<?xml version="1.0" encoding="UTF-8"?>
<svg id="Layer_1" xmlns="http://www.w3.org/2000/svg" version="1.1" viewBox="0 0 2048 1536">
  <!-- Generator: Adobe Illustrator 30.2.1, SVG Export Plug-In . SVG Version: 2.1.1 Build 1)  -->
  <defs>
    <style>
      .st0 {
        fill: #f8f8ee;
      }

      .st1 {
        fill: #aba871;
      }

      .st2 {
        fill: #f68067;
      }

      .st3 {
        fill: #c57762;
      }

      .st4 {
        fill: #d7a334;
      }

      .st5 {
        fill: #c16747;
      }

      .st6 {
        fill: #1b2020;
      }

      .st7 {
        fill: #efddc5;
      }

      .st8 {
        fill: #c56024;
      }

      .st9 {
        fill: #ca948d;
      }

      .st10 {
        fill: #f7bb8f;
      }

      .st11 {
        fill: #f79e7e;
      }
    </style>
  </defs>
  <path class="st0" d="M-176,1664V-128h2400v1792H-176ZM428.03,316.45c-24.01,7.38-66.18,41.62-70.38,67.46-3.09-.38-8.37,2.16-9.46,5.84-11.98,40.39-10.8,82.85,7.51,120.87,23.79,49.38,59.98,72.22,80.22,123.9,9.9,25.28,17.48,50.65,20.63,78.79-15.84-23.48-30.31-43.81-48.37-63.65-16.23-17.83-28.51-36.92-40.25-57.56-5.91-10.4-17.68-16.26-28.51-15.02-10.38,1.19-20.27,8.97-23.9,20.56-8.36,26.7,23.62,58.19,41.63,75.21,13.69,12.94,27.16,25.86,36.37,43.08-41.44,19.67-81.4,52.68-89.4,97.61-6.81,38.27,9.07,74.98,39.55,100.27-12.05,6.5-22.34,12.91-27.57,24.13-11.82,25.34,2.93,51.21,29.94,61.69-36.66,17.53-38.71,57.34-21.13,85.86,26.84,43.53,72.52,71,123.7,75.48-24.1,37.56-31.85,80.2-16.82,124.79,11.58,34.37,39.56,66.37,77.88,82.56,56.53,23.88,106.4,18.46,163.37-7.26,86.95,72.97,206.28,114.21,320.86,104.93,76.11-6.17,144.31-37.78,198.86-93.79,18.23,31.64,43.91,54.42,74.96,71.9,35.09,19.76,76.46,22.44,112.36,3.52,30.87-16.27,46.45-47.1,49.88-81.9,11.41-10.71,23.58-22.41,28.82-40.42,16.11,28.58,43.74,46.31,77.48,43.75,52.56-3.99,95.87-44.76,102.65-96.87,4.36-33.51-10.73-62.84-40.62-80.07,50.24-8.99,77.97-52.92,67.27-100.22-9.21-40.7-43.25-68.51-85.8-67.29-20.76.59-38.83,8.15-58.42,18.4l28.75-60.61c38.97,10.94,80.28,8.08,115.8-10.87,40.01-21.34,62.71-63.31,58.6-108.22-6.28-68.54-65.84-112.78-133.04-117.17l-3.93-45.23c52.64-4.21,86.75,20.13,126.79,48.07,7.36,5.13,17.92,4.92,24.77,1.08s10.36-12.62,9.63-21.87c-3.16-39.79-27.1-73.15-62.26-92.25-24.77-13.46-50.94-17.66-80.39-21.72,46.67-19.57,80.45-52.89,96.73-99.01,10.83-30.69,15.14-62.29,12.44-95.04-.12-1.41-1.6-4.78-2.37-5.97s-5.37-1.71-6.68-1.07c-62.44,30.68-130.9,82.59-150.95,155.64-14.27-33.66-28.41-65.53-48.41-97.43,16.37-12.89,23.84-30.79,26.7-52.81,14.39,8.79,26.93,16.59,42.43,18.65,38.24,5.09,70.49-22.93,70.68-61.53.14-27.69-16.09-49.98-40.09-64.91,36.36-13.53,53.89-47.56,45.31-83.04-6.54-27.02-28.17-46.7-56.27-48.35-19.12-1.12-35.69,6.07-51.84,17.94.5-37.14-18.37-73.65-54.81-74.99-41.38-1.53-63.44,39.33-60.08,81.18-17.86-9.66-34.6-16.27-53.09-13.6-32.32,4.67-51.37,34.17-41.98,65.29,5.02,16.65,15.56,28.93,30.41,39.82-3.51,3.97-10.26,9.1-15.16,9.39l-48.58-30.21c14.68-50.46,6.6-103.76-25.9-145.12-32.09-40.84-82.76-62.77-134.66-57-70.05,7.79-124.22,61.93-134.39,132.14-49.93,1.63-99.19,10.63-148.03,24.93-9.15-29.31-34.47-48.34-65.77-47.73s-57.21,14.95-81.86,35.93l2.48-31.6c25.11-31.55,66.09-44.29,105.34-33.67,15.4,4.17,29.33,10.91,42.87,19.06,44.61,26.86,102.49,22.14,128.02-23.75,8.14-14.64,4.34-29.71-9.31-38.39-45.62-29.02-99.29,1.68-126.65,43.04-48.76-23.99-99.42-22.37-140.88,15.37-4.45-21.65-10.54-40.89-24.53-56.09-23.81-25.87-60.84-28.06-86.58-4.29-29.68,27.41-33.57,71.51-26.18,111.77-30.1-26.97-72.52-47.22-110.33-32.35-26.98,10.61-42.01,36.68-38.84,65.3,2.04,18.41,9.95,33.32,22.04,48.82-6.28,5.88-12.91,12.18-19.23,15.96Z"/>
  <path class="st6" d="M357.65,383.91c1.94,3.4,2.91,8.79,1.57,13.41-13.24,45.79-5.6,92.98,21.39,131.88,8.88,12.8,18.01,24.19,27.88,36.28,24.33,29.81,41.42,62.95,51.13,100.39,1.65,6.36,3.78,12.13,6.31,18.16,3.02-13.99,6.66-28.48,8.03-42.04-9.45-58.1-37.87-81.04-66.92-124.75-41.14-61.91-26.28-135.27,15.97-192.42,1.96-2.66,3.79-5.97,5.02-8.36,6.33-3.78,12.96-10.08,19.23-15.96-12.09-15.5-19.99-30.41-22.04-48.82-3.18-28.62,11.86-54.69,38.84-65.3,37.82-14.87,80.23,5.38,110.33,32.35-7.4-40.26-3.5-84.35,26.18-111.77,25.74-23.78,62.77-21.59,86.58,4.29,13.99,15.2,20.08,34.44,24.53,56.09,41.47-37.74,92.13-39.36,140.88-15.37,27.36-41.36,81.04-72.05,126.65-43.04,13.65,8.68,17.45,23.75,9.31,38.39-25.53,45.9-83.41,50.61-128.02,23.75-13.54-8.15-27.48-14.9-42.87-19.06-39.25-10.62-80.23,2.12-105.34,33.67l-2.48,31.6c24.64-20.98,50.85-35.33,81.86-35.93s56.62,18.42,65.77,47.73c48.84-14.3,98.11-23.3,148.03-24.93,10.17-70.21,64.34-124.35,134.39-132.14,51.9-5.77,102.57,16.16,134.66,57,32.5,41.36,40.58,94.67,25.9,145.12l48.58,30.21c4.9-.29,11.65-5.42,15.16-9.39-14.85-10.88-25.39-23.17-30.41-39.82-9.39-31.11,9.66-60.62,41.98-65.29,18.49-2.67,35.23,3.94,53.09,13.6-3.36-41.84,18.7-82.7,60.08-81.18,36.44,1.34,55.31,37.85,54.81,74.99,16.15-11.87,32.72-19.06,51.84-17.94,28.1,1.65,49.73,21.33,56.27,48.35,8.58,35.47-8.95,69.51-45.31,83.04,24,14.93,40.22,37.22,40.09,64.91-.19,38.6-32.44,66.62-70.68,61.53-15.49-2.06-28.04-9.86-42.43-18.65-2.86,22.02-10.34,39.92-26.7,52.81,20,31.89,34.13,63.77,48.41,97.43,20.05-73.04,88.51-124.96,150.95-155.64,1.3-.64,5.91-.12,6.68,1.07s2.25,4.56,2.37,5.97c2.71,32.75-1.6,64.35-12.44,95.04-16.28,46.12-50.06,79.43-96.73,99.01,29.45,4.05,55.61,8.26,80.39,21.72,35.16,19.1,59.11,52.46,62.26,92.25.73,9.26-2.45,17.85-9.63,21.87s-17.41,4.06-24.77-1.08c-40.04-27.94-74.15-52.28-126.79-48.07l3.93,45.23c67.2,4.4,126.76,48.64,133.04,117.17,4.12,44.92-18.59,86.88-58.6,108.22-35.52,18.95-76.83,21.82-115.8,10.87l-28.75,60.61c19.6-10.25,37.67-17.81,58.42-18.4,42.55-1.22,76.59,26.59,85.8,67.29,10.7,47.3-17.03,91.23-67.27,100.22,29.89,17.24,44.98,46.57,40.62,80.07-6.79,52.11-50.1,92.88-102.65,96.87-33.74,2.56-61.37-15.16-77.48-43.75-5.24,18.01-17.42,29.72-28.82,40.42-3.43,34.8-19.01,65.63-49.88,81.9-35.9,18.92-77.27,16.24-112.36-3.52-31.05-17.48-56.73-40.26-74.96-71.9-54.55,56-122.75,87.62-198.86,93.79-114.58,9.28-233.9-31.96-320.86-104.93-56.96,25.72-106.84,31.14-163.37,7.26-38.32-16.19-66.3-48.19-77.88-82.56-15.03-44.59-7.27-87.23,16.82-124.79-51.18-4.48-96.86-31.95-123.7-75.48-17.58-28.52-15.53-68.33,21.13-85.86-27.01-10.48-41.76-36.35-29.94-61.69,5.23-11.21,15.52-17.62,27.57-24.13-30.48-25.29-46.36-62-39.55-100.27,8-44.93,47.96-77.94,89.4-97.61-9.21-17.22-22.67-30.14-36.37-43.08-18.01-17.02-49.99-48.51-41.63-75.21,3.63-11.59,13.52-19.37,23.9-20.56,10.83-1.24,22.6,4.62,28.51,15.02,11.74,20.64,24.02,39.73,40.25,57.56,18.06,19.84,32.53,40.17,48.37,63.65-3.15-28.13-10.73-53.51-20.63-78.79-20.24-51.68-56.43-74.52-80.22-123.9-18.32-38.01-19.49-80.47-7.51-120.87,1.09-3.67,6.37-6.22,9.46-5.84ZM1225.64,239.07l63.04,28.62c25.13-82.16-25.92-168.27-110.64-182.36-76.74-12.76-148.75,41.95-159.54,118.46l68.93,3.35c8.59-36.68,42.83-59.57,80.34-54.08,39.65,7.69,65.16,44.77,57.86,86.02ZM448.54,463.82c29.73,35.6,87.08,15.49,104.35-6.55l49.97-63.75c-23.18-18.01-33.43-45.33-25.53-73.24,6.99-24.68,28.62-44.04,54.47-47.44,27.74-3.65,53.34,8.61,67.72,34.28,45.32-31.73,92.32-55.87,144.7-73.57-2.69-18.76-18.32-32.86-36.64-37.35-41.84-10.27-84.74,20.96-108.49,51.89-1.45,1.88-7.71,2.19-8.95.66s-1.92-5.72-1.23-7.8c13.16-39.89,18.06-85.54-9.94-119.7-18.33-22.37-49.21-24.61-70.6-4.44-14.46,13.64-21.75,33.43-24.03,53.67-5.17,45.95,17.1,73.59,7.55,78.66-1.59.85-6.85.09-7.98-1.32-24.64-30.43-62.95-59.21-104.32-52.68-30.02,4.74-47.6,32.37-40.87,61.86,9.62,42.17,52.83,66.48,93.21,75.56,2.3.52,5.82,4.29,5.84,6.43.1,10.63-36.84,6.05-72.41,37.85-26.22,23.44-38.83,60.61-16.84,86.95ZM978.77,139.01c4.06-8.35.63-15.29-6.27-19.78-38.46-25-83.91,3.34-108.8,37.99,33.68,27.84,94.06,24.99,115.06-18.21ZM1587.53,425.38c18-.54,32.72-12.28,40.27-25.84,9.06-16.27,8.22-34.98-.68-50.96-18.15-32.58-49.7-30.16-46.17-41.05.64-1.98,4.86-4.75,7.05-5.04,35.37-4.61,59.86-35.52,52.28-70.22-6.79-31.07-37.45-48.34-67.11-37.33s-37.22,35.52-43.63,28.27c-6.04-6.83,11.1-37.2-8.27-67.88-8.7-13.78-22.5-21.56-38.11-20.39-14.45,1.08-26.89,10.34-34.37,24.6-17.87,34.06,3.04,65.03-6.53,67.51-1.75.45-6.44-.45-7.94-1.93-13.85-13.72-33.6-24.98-54-23.28-13.26,1.1-24.93,8.16-30.74,17.32-16.57,26.11,4.11,56.99,31.22,70.38,2.08,1.03,4.61,3.87,5.47,5.63,4.37,9.01-19.34,10.16-25.11,18.52,56.67,40.82,100.88,89.97,139.03,146.73,28.67-25,16-61.03,23.71-65.04,9.68-5.03,23.26,31.22,63.63,30.01ZM1213.73,235.51c4.68-36.51-17.36-64.83-49.42-70.18-29.81-3.51-57.68,14.24-63.56,43.26,40.29,5.22,76.92,15.75,112.98,26.91ZM1038.91,445.13l37.93.87.07-110.02c0-2.53,4.21-5.45,7.19-5.76,50.81,5.53,97.04,21.47,144.31,43.8l46.24-96.84c-51.83-26.52-104.68-42.69-160.27-52-176.11-28.93-354.72,29.07-479.96,155.61,1.91,39.56,38.65,68.74,75.29,77.64,68.57-70.61,157.08-114.55,254.16-127.84,2.64-.36,7.62.15,9.05,1.46s2.22,5.26,2.21,7.91l-.16,105.83,63.93-.66ZM688.68,315c-7.46-17.82-24.45-27.93-41.19-30.05-18.07-2.28-35.33,4.99-47.43,19.4-20.28,24.14-15.44,61.76,11.61,79.15,24.6-25.25,48.64-47.2,77.01-68.49ZM1484.09,462.76c-50.28-76.11-117.47-136.53-197.48-179.66l-46.81,96.97c93.84,53.24,164.62,135.33,201.72,237.65,58.22-34.07,40.57-98.68,42.56-154.96ZM478.65,494.39c-38.29-6.45-60.49-41.19-52.07-78.2,10.23-40.4,43-63.23,80.34-77.24-19.36-8.06-33.83-15.41-49.4-28.65l-14.75,10.62c-49.36,55.65-67.3,134.54-19.71,197.86l22.38,29.74c15.39,20.45,26.82,41.72,35.51,67.77,13.16-45.42,31.34-88.21,55.5-130.77-19.88,7.68-37.45,12.28-57.8,8.86ZM679.94,1021.15l281.15-280.93-.19-395.32c-66.22,9.55-126.61,34.37-180.24,71.3-195.49,139.14-244.17,409.31-100.73,604.95ZM1371.82,1021.09c114.5-156.71,107.99-366.61-8.67-516.85-66.84-85.96-163.76-143.77-272.39-159.12l.05,395.48,281,280.49ZM583.35,749.04c6.03-105.28,45.25-201.18,116.06-279.46-38.7-16.48-64.43-32.32-76.73-76.73-69.97,75.57-117.99,167.46-138.09,269.43,40.43,19.66,55.13,25.81,80.55,62.48,5.79,8.35,10.13,16.54,18.21,24.27ZM1654.26,518.61l-76.86,90.94c19.1-3.38,36.11-11.64,52.35-21.78,53.85-33.62,76.79-96.76,72.96-159.02-61.9,32.96-121.66,81.48-137.41,150.97-1.81,7.97-2.46,16.12,1.84,22.18l80.04-94.17c1.48-1.59,8.22.43,8.46,2.59.2,1.82-.15,6.84-1.38,8.29ZM974.15,457.97l-.15,178.77,102.97.09.15-178.77-102.97-.09ZM1477.62,1083.2c31.16-42.74,53.24-87.41,69.85-135.92,52.43-153.2,35.87-321.47-48.82-461.2l-2.33,64.52c-1.25,34.55-20.77,62.91-50.1,80.12,38.04,119.31,26.16,245.08-33.79,353.6,13.94,30.84,39.83,76.73,65.19,98.89ZM474.65,896.51c-9.13-45.18-14.8-85.35-14.82-128.1-4.68-18.88-10.36-36.23-17.87-53.96-30.66-50.27-55.48-61.45-84.29-115.57-4.2-7.89-13.99-11.33-21.43-7.81-21.71,10.28-1.14,41.38,9.97,52.66l39.55,40.15c23.89,24.25,34.36,56.1,33.44,90.08-1.36,50.38-.06,102.55,55.45,122.55ZM1721.83,739.05c2.4,1.72,10.1,1.6,11.83-.32,1.44-1.6,3.12-6.22,2.9-8.73-3.54-39.99-28.77-71.43-65.26-87.25-30.12-14.15-63.87-17.34-97.26-13.24l11.86,58.37c56.14-2.83,91.78,19.4,135.93,51.16ZM1077.2,1148.27l-.33-241.81c.68-2.74,1.52-6.94,3.35-7.11s6.15,0,7.91.17l21.81,21.33,49.52-92.36-82.29-82.22-.53-97.28c-34.63-2.27-67.45-1.82-101.35,1l-.44,95.99-73.73,73.68,49.14,93.15,14.42-14.08,7.22.54c1.56.12,2.78,4.7,2.78,6.78l-.06,242.9c35.15,3.94,68.06,5.32,102.58-.69ZM582.98,769.69c-21.93-21.35-30.32-46.85-51.14-65.47-14.44-12.92-31.87-20.97-49.8-28.32-21.84,126.32,1.45,254.61,64.6,365.09l91.46-58.38c-36.5-66.96-54.15-138.04-55.13-212.91ZM478.57,912.43c-72.38-26.88-71.7-75.66-71.87-140.35-.04-15.27-.67-29.41-8.37-43.83-37.74,17.25-73.2,45.68-81.6,86.58-7.01,34.14,7.73,67.99,35.54,89.5,38.35,29.65,85.97,41.14,135.09,38.84l-8.79-30.74ZM1689.2,937.21c32.96-38.85,30.3-95.35-2.98-133.61-23.77-27.32-58.02-42.03-94.49-44.73l-1.15,47.44c33.44,5.72,51.45,35.73,46.14,65.83s-33.5,47.99-64.51,44.82l-17.16,52.44c41.44,16.78,104.1,3.24,134.16-32.18ZM1575.35,904.22c25.03,3.16,46.86-14.31,49.71-38.02,2.67-22.25-12.88-44.19-36.08-46.81l-13.63,84.83ZM844.54,1018.57l96.17-96.16-49.39-93.15-115.45,115.76,68.68,73.56ZM1208.72,1019.66l69.96-72.1-109.6-109.33-49.67,91.9,89.31,89.52ZM375.46,991.19l127.98-4.65-12.47-31.43c-47.9,3.08-91.76-7.03-131.91-30.22-13.82-1.19-31.75,10.55-34.23,25.57-4.09,24.81,22.62,41.74,50.62,40.72ZM961.11,1194.39l-.68-272.07-190.49,190.58c57.38,43.98,121.15,69.99,191.17,81.49ZM1281.92,1112.59l-190.94-190.55-.08,272.01c69.35-11.2,135.26-37.5,191.01-81.47ZM773.41,1133.62l-17.29-14.14c-3.3-3.05-3.95-8.41-.65-12.01l79.5-79.25-68.36-74.25-81.14,81.37c-3.97,3.31-8.61,2.88-13.07.22l-28.27-41.7-90.76,58.19c33.07,54.67,74.04,101.38,122.78,142.25,34.44-15.82,68.98-33.75,97.25-60.69ZM1469.57,1094.23c-16.1-16.56-27.06-30.87-38.12-47.47l-27.27-47.62-25.67,37.58c-4.15,1.45-8.45,1.19-12.05-1.34l-79.22-78.72-68.98,72.23,78.1,78.57c3.01,3.87,2.74,8.91-.51,12.1l-22.61,18.05c37.67,7.7,71.83,21.48,97.85,46.98,1.56,1.53,6.99,6.78,8.65,5.41,33.75-27.73,64.31-59.49,89.82-95.76ZM446.8,1147.84c-9.29-25.58-7.29-48.92,6.05-69.86,17.06-26.75,48.3-35.55,80.46-30.53l-24.2-47.62-73.04,1.34c-24.8.45-48.51.93-72.37,6.1-15.39,3.34-29.91,12.37-34.66,27.45-5.11,16.23-.12,33.03,9.16,47.65,23.37,36.82,63.65,61.55,108.6,65.47ZM1498.77,1348.96c44.44,25.92,115.81-12.21,127.29-74.53,4.59-24.91-3.63-46.77-22.31-62.72-24.59-20.98-47.71-15.04-47.17-26.58.57-12.33,31.23,5.26,66.8-15.7,26.03-15.34,36.39-45.51,29.98-74.54-8.55-38.74-43.71-63.35-83.18-56.75-18.36,3.07-35.12,10.42-50,22.03-4.41,3.44-13.88,8.51-17.01,12.77l-31.59,43.06c32.55,19.32,38.96,60.71,15.55,89.63-12.36,15.27-29.9,21.91-49.9,20.67-17.48-1.09-32.79-11.17-44.82-28.03l-54.53,42.34c-14.66,11.39-20.5,36.72-21.92,54.76-3.06,38.89,25.15,67.85,61.93,70.75,39.52,3.11,70.74-24.46,71.8-64.73.06-2.44,3.21-6.72,5.34-7.01,11.91-1.63,6.68,32.97,43.76,54.59ZM610.67,1267.85c11.23,26.6,38.65,38.89,64.47,32.72,26.44-6.32,44.19-30.3,41.64-59.25-22.49-15.21-43.19-30.93-64.81-49.23-11.88,20.26-32.36,28.82-53.82,24.64-19.38-3.77-34.92-20.24-37.97-39.93-3.41-21.99,7.15-40.05,27.01-52.24l-42.31-55.81c-14.98-19.76-51.94-11.12-70.07,3.4-16.51,13.22-22.63,32.02-20.75,52.31,1.56,16.79,11.92,33.62,28.3,43.52,21.5,12.98,39.7,8.83,40.11,17.2.1,1.94-2.28,5.83-4.8,7.14-28.02,14.57-38.27,51.55-18.83,78.7,12.02,16.79,29.03,27.93,49.74,26.54,38.41-2.58,44.9-36.2,54.42-37.29,2.44-.28,6.19,4.11,7.66,7.59ZM1488.11,1170.15c1.22-18.56-8.5-36.71-25.35-43.05-19.34,22.94-38.47,42.55-59.96,62.28,9.92,19.5,31.74,27.88,51.84,22.8,18.13-4.58,32.13-21.64,33.47-42.03ZM600.71,1140.86c-2.27-2.35-5.84-5.2-7.69-4.27-15.48,7.74-23.34,24.09-20.06,39.5,3.35,15.7,15.95,26.63,30.43,28.46,15.7,1.98,34.1-6.47,37.42-22.2l-40.1-41.49ZM905.89,1305.75c5.01-45.57,40.9-56.62,52.69-97.82-63.36-10.24-121.24-32.89-174.04-67.4-15.83,14.68-30.81,27.19-48.57,37.04l-46.99,26.06c64.77,50.68,137.96,84.89,216.92,102.12ZM973.65,1201.61c-12.85,55.79-54.3,64.8-53.31,107.46,157.92,31.25,320.9-8.74,447.54-109.14-22.93-30.11-77.67-50.32-113.74-50.88-52.13,31.46-107.97,51.23-168.07,59.52-4.55.63-8.78-3.21-8.84-6.96l-.64-39.91c-35.55,4.71-67.39,3.58-101.61.47-.97,14.16,1.43,27.52-1.31,39.44ZM925.8,1368.03c73.56,15.06,151.32,2.61,212.21-45.22-143.71,26.8-285.29,1.6-408.29-73.44-1.72,32.44-22.91,56.66-51.93,63.65-29.11,7.01-58.74-5.75-75.8-33.03-15.03,19.49-34.75,29.97-57,29.87-21.9-.1-41.96-11.18-54.96-29.94-20.79-28.11-17.84-66.12,9.17-90.09-14.8-5.8-26.99-12.51-38.92-22.57-42.96,60.8-25.54,143.33,38,180.97,39.85,23.61,86.54,28.56,131.3,15.63,19.72-5.7,37.48-13.61,56.23-22.02,56.88-25.49,103.16-22.02,160.19.39,26.39,10.13,50.98,18.82,79.8,25.81ZM1372.14,1437.48c25.32-12.66,40.01-36.15,43.64-64.41-33.6,12.38-71.14,4.78-94.69-21.93-23.21-26.32-21.25-63.18-8.87-95.57l-60.22,30.58c-12.04,27.78-29.38,51.93-49.7,75.54,15.09,31.68,40.68,53.23,69.73,70.37,30.89,18.22,66.83,22.06,100.11,5.42ZM1000.35,1452.98c63.67-6.8,120.35-32.21,167.86-74.81,25.29-24.12,47.89-49.77,65.11-82.97l-63.38,19.16c-75.16,68.7-180.47,89.95-278.06,57.37l-74.16-25.9c-43.46-15.18-89.2-12.14-130.74,10.07,83.77,69.55,206.97,109.12,313.36,97.08Z"/>
  <path class="st11" d="M428.03,316.45c-1.22,2.4-3.05,5.71-5.02,8.36-42.26,57.15-57.11,130.51-15.97,192.42,29.05,43.71,57.47,66.66,66.92,124.75-1.37,13.56-5.01,28.05-8.03,42.04-2.54-6.03-4.66-11.8-6.31-18.16-9.71-37.43-26.81-70.57-51.13-100.39-9.87-12.1-18.99-23.48-27.88-36.28-26.99-38.91-34.63-86.09-21.39-131.88,1.33-4.61.37-10-1.57-13.41,4.2-25.84,46.38-60.08,70.38-67.46Z"/>
  <path class="st5" d="M1038.91,445.13l-63.93.66.16-105.83c0-2.65-.78-6.6-2.21-7.91s-6.4-1.83-9.05-1.46c-97.08,13.29-185.59,57.23-254.16,127.84-36.63-8.9-73.38-38.08-75.29-77.64,125.24-126.55,303.84-184.54,479.96-155.61,55.59,9.31,108.44,25.48,160.27,52l-46.24,96.84c-47.28-22.33-93.51-38.27-144.31-43.8-2.99.32-7.19,3.24-7.19,5.76l-.07,110.02-37.93-.87Z"/>
  <path class="st0" d="M1371.82,1021.09l-281-280.49-.05-395.48c108.63,15.36,205.55,73.16,272.39,159.12,116.66,150.24,123.16,360.14,8.67,516.85ZM1125.46,673.16c4.19,58.59,45.02,97.62,84.18,135.39l140.21,135.19c3.57,3.44,11.79,4.69,16.35,3.68,3.77-.84,8.84-5.03,11.32-9.67,110.23-206.3-10.77-450.85-218.19-536.79-5.97-2.47-14.65-1.72-19.35,1.37-3.34,2.2-7.08,8.2-7.92,13.63-8.59,55.9-9.73,115.5,17.87,166.42,17.33,31.97,45.34,56.43,78.64,70.44l33.73,14.19c10.21,28.35,22.17,56.87,23.14,88.19-33.2-52.43-78.8-88.42-136.59-104.01-5.76-1.55-13.52.27-17.12,3.57-4.12,3.77-6.81,10.74-6.26,18.41Z"/>
  <path class="st2" d="M1077.2,1148.27c-34.51,6.01-67.43,4.63-102.58.69l.06-242.9c0-2.08-1.22-6.66-2.78-6.78l-7.22-.54-14.42,14.08-49.14-93.15,73.73-73.68.44-95.99c33.9-2.82,66.73-3.27,101.35-1l.53,97.28,82.29,82.22-49.52,92.36-21.81-21.33c-1.76-.16-6.05-.34-7.91-.17s-2.67,4.36-3.35,7.11l.33,241.81Z"/>
  <path class="st8" d="M1498.77,1348.96c-37.07-21.62-31.85-56.21-43.76-54.59-2.13.29-5.27,4.56-5.34,7.01-1.07,40.27-32.29,67.84-71.8,64.73-36.78-2.89-64.99-31.86-61.93-70.75,1.42-18.04,7.26-43.37,21.92-54.76l54.53-42.34c12.03,16.86,27.34,26.94,44.82,28.03,19.99,1.24,37.54-5.4,49.9-20.67,23.41-28.92,16.99-70.31-15.55-89.63l31.59-43.06c3.13-4.27,12.6-9.33,17.01-12.77,14.88-11.62,31.64-18.97,50-22.03,39.48-6.6,74.63,18.01,83.18,56.75,6.41,29.03-3.94,59.2-29.98,74.54-35.57,20.96-66.23,3.37-66.8,15.7-.53,11.55,22.58,5.6,47.17,26.58,18.68,15.94,26.9,37.81,22.31,62.72-11.48,62.32-82.85,100.45-127.29,74.53Z"/>
  <path class="st10" d="M448.54,463.82c-21.99-26.33-9.38-63.5,16.84-86.95,35.57-31.8,72.51-27.23,72.41-37.85-.02-2.14-3.54-5.91-5.84-6.43-40.38-9.08-83.59-33.39-93.21-75.56-6.73-29.49,10.85-57.12,40.87-61.86,41.37-6.54,79.68,22.25,104.32,52.68,1.14,1.4,6.39,2.16,7.98,1.32,9.55-5.08-12.73-32.72-7.55-78.66,2.28-20.24,9.56-40.04,24.03-53.67,21.39-20.17,52.26-17.93,70.6,4.44,28,34.16,23.1,79.81,9.94,119.7-.68,2.07,0,6.25,1.23,7.8s7.51,1.23,8.95-.66c23.75-30.93,66.64-62.16,108.49-51.89,18.31,4.5,33.94,18.59,36.64,37.35-52.38,17.7-99.38,41.84-144.7,73.57-14.38-25.67-39.98-37.94-67.72-34.28-25.85,3.41-47.48,22.76-54.47,47.44-7.91,27.91,2.34,55.23,25.53,73.24l-49.97,63.75c-17.28,22.04-74.63,42.15-104.35,6.55Z"/>
  <path class="st7" d="M1477.62,1083.2c-25.36-22.16-51.25-68.05-65.19-98.89,59.96-108.52,71.83-234.28,33.79-353.6,29.33-17.21,48.85-45.57,50.1-80.12l2.33-64.52c84.68,139.73,101.25,308,48.82,461.2-16.6,48.51-38.69,93.18-69.85,135.92Z"/>
  <path class="st3" d="M1587.53,425.38c-40.38,1.22-53.96-35.03-63.63-30.01-7.71,4,4.96,40.04-23.71,65.04-38.15-56.76-82.36-105.91-139.03-146.73,5.77-8.35,29.48-9.5,25.11-18.52-.85-1.76-3.39-4.6-5.47-5.63-27.11-13.38-47.79-44.27-31.22-70.38,5.81-9.16,17.48-16.22,30.74-17.32,20.4-1.7,40.15,9.57,54,23.28,1.5,1.48,6.19,2.39,7.94,1.93,9.57-2.48-11.34-33.45,6.53-67.51,7.49-14.27,19.92-23.52,34.37-24.6,15.61-1.17,29.41,6.61,38.11,20.39,19.37,30.68,2.23,61.05,8.27,67.88,6.41,7.24,15.02-17.64,43.63-28.27s60.32,6.25,67.11,37.33c7.59,34.7-16.91,65.61-52.28,70.22-2.19.29-6.41,3.06-7.05,5.04-3.53,10.89,28.02,8.48,46.17,41.05,8.9,15.98,9.74,34.68.68,50.96-7.55,13.56-22.27,25.3-40.27,25.84ZM1532.95,303.09c0-26.63-21.58-48.21-48.21-48.21s-48.21,21.58-48.21,48.21,21.58,48.21,48.21,48.21,48.21-21.58,48.21-48.21Z"/>
  <path class="st1" d="M973.65,1201.61c2.74-11.92.34-25.29,1.31-39.44,34.22,3.11,66.06,4.24,101.61-.47l.64,39.91c.06,3.75,4.29,7.59,8.84,6.96,60.11-8.29,115.94-28.06,168.07-59.52,36.07.56,90.82,20.77,113.74,50.88-126.64,100.4-289.62,140.39-447.54,109.14-.99-42.66,40.46-51.67,53.31-107.46Z"/>
  <path class="st10" d="M925.8,1368.03c-28.82-6.99-53.41-15.68-79.8-25.81-57.04-22.41-103.31-25.89-160.19-.39-18.75,8.41-36.51,16.32-56.23,22.02-44.76,12.93-91.44,7.98-131.3-15.63-63.54-37.64-80.96-120.17-38-180.97,11.93,10.07,24.13,16.77,38.92,22.57-27.01,23.98-29.96,61.98-9.17,90.09,13,18.76,33.06,29.84,54.96,29.94,22.25.1,41.97-10.38,57-29.87,17.06,27.28,46.7,40.04,75.8,33.03,29.01-6.98,50.2-31.21,51.93-63.65,123,75.04,264.58,100.23,408.29,73.44-60.89,47.83-138.66,60.28-212.21,45.22Z"/>
  <path class="st5" d="M1000.35,1452.98c-106.38,12.04-229.59-27.54-313.36-97.08,41.54-22.21,87.28-25.25,130.74-10.07l74.16,25.9c97.6,32.58,202.9,11.33,278.06-57.37l63.38-19.16c-17.22,33.2-39.82,58.85-65.11,82.97-47.51,42.6-104.19,68.01-167.86,74.81Z"/>
  <path class="st11" d="M1484.09,462.76c-1.99,56.28,15.66,120.89-42.56,154.96-37.11-102.31-107.89-184.4-201.72-237.65l46.81-96.97c80.01,43.13,147.19,103.55,197.48,179.66Z"/>
  <path class="st9" d="M582.98,769.69c.97,74.87,18.63,145.95,55.13,212.91l-91.46,58.38c-63.14-110.48-86.44-238.77-64.6-365.09,17.92,7.36,35.36,15.41,49.8,28.32,20.81,18.62,29.2,44.12,51.14,65.47Z"/>
  <path class="st4" d="M773.41,1133.62c-28.27,26.95-62.82,44.88-97.25,60.69-48.74-40.87-89.71-87.58-122.78-142.25l90.76-58.19,28.27,41.7c4.46,2.66,9.1,3.08,13.07-.22l81.14-81.37,68.36,74.25-79.5,79.25c-3.31,3.6-2.65,8.96.65,12.01l17.29,14.14Z"/>
  <path class="st4" d="M583.35,749.04c-8.08-7.73-12.42-15.92-18.21-24.27-25.42-36.67-40.13-42.82-80.55-62.48,20.1-101.97,68.13-193.87,138.09-269.43,12.3,44.41,38.03,60.25,76.73,76.73-70.81,78.28-110.03,174.18-116.06,279.46Z"/>
  <path class="st9" d="M610.67,1267.85c-1.47-3.48-5.22-7.86-7.66-7.59-9.52,1.09-16.02,34.7-54.42,37.29-20.71,1.39-37.72-9.75-49.74-26.54-19.44-27.15-9.19-64.13,18.83-78.7,2.52-1.31,4.89-5.2,4.8-7.14-.41-8.37-18.61-4.22-40.11-17.2-16.38-9.89-26.75-26.72-28.3-43.52-1.88-20.29,4.24-39.09,20.75-52.31,18.13-14.52,55.09-23.16,70.07-3.4l42.31,55.81c-19.86,12.19-30.42,30.26-27.01,52.24,3.05,19.69,18.6,36.17,37.97,39.93,21.46,4.17,41.94-4.38,53.82-24.64,21.62,18.3,42.32,34.03,64.81,49.23,2.55,28.96-15.2,52.93-41.64,59.25-25.82,6.17-53.24-6.12-64.47-32.72Z"/>
  <path class="st4" d="M1469.57,1094.23c-25.51,36.27-56.07,68.03-89.82,95.76-1.66,1.37-7.09-3.88-8.65-5.41-26.02-25.5-60.18-39.28-97.85-46.98l22.61-18.05c3.24-3.18,3.52-8.22.51-12.1l-78.1-78.57,68.98-72.23,79.22,78.72c3.61,2.54,7.9,2.79,12.05,1.34l25.67-37.58,27.27,47.62c11.06,16.6,22.01,30.91,38.12,47.47Z"/>
  <path class="st0" d="M1281.92,1112.59c-55.75,43.97-121.66,70.27-191.01,81.47l.08-272.01,190.94,190.55Z"/>
  <path class="st0" d="M961.11,1194.39c-70.01-11.5-133.79-37.51-191.17-81.49l190.49-190.58.68,272.07Z"/>
  <path class="st9" d="M1225.64,239.07c7.3-41.24-18.21-78.33-57.86-86.02-37.51-5.49-71.75,17.4-80.34,54.08l-68.93-3.35c10.78-76.51,82.79-131.22,159.54-118.46,84.71,14.09,135.77,100.2,110.64,182.36l-63.04-28.62Z"/>
  <path class="st9" d="M905.89,1305.75c-78.96-17.23-152.15-51.45-216.92-102.12l46.99-26.06c17.76-9.85,32.74-22.36,48.57-37.04,52.8,34.51,110.68,57.16,174.04,67.4-11.79,41.2-47.68,52.26-52.69,97.82Z"/>
  <path class="st11" d="M1372.14,1437.48c-33.28,16.64-69.22,12.8-100.11-5.42-29.06-17.14-54.65-38.69-69.73-70.37,20.32-23.61,37.66-47.77,49.7-75.54l60.22-30.58c-12.38,32.39-14.34,69.25,8.87,95.57,23.54,26.71,61.09,34.31,94.69,21.93-3.63,28.26-18.32,51.75-43.64,64.41Z"/>
  <path class="st5" d="M1689.2,937.21c-30.05,35.42-92.72,48.97-134.16,32.18l17.16-52.44c31.01,3.18,59.2-14.79,64.51-44.82s-12.69-60.11-46.14-65.83l1.15-47.44c36.48,2.7,70.73,17.41,94.49,44.73,33.29,38.26,35.94,94.76,2.98,133.61Z"/>
  <rect class="st4" x="936.18" y="495.91" width="178.77" height="102.97" transform="translate(477.31 1572.5) rotate(-89.95)"/>
  <path class="st8" d="M446.8,1147.84c-44.95-3.92-85.22-28.65-108.6-65.47-9.28-14.61-14.27-31.42-9.16-47.65,4.75-15.08,19.27-24.12,34.66-27.45,23.86-5.17,47.58-5.65,72.37-6.1l73.04-1.34,24.2,47.62c-32.15-5.02-63.4,3.78-80.46,30.53-13.35,20.93-15.35,44.28-6.05,69.86Z"/>
  <path class="st5" d="M478.57,912.43l8.79,30.74c-49.12,2.3-96.74-9.19-135.09-38.84-27.82-21.51-42.55-55.36-35.54-89.5,8.4-40.9,43.86-69.33,81.6-86.58,7.7,14.42,8.33,28.55,8.37,43.83.17,64.7-.52,113.48,71.87,140.35Z"/>
  <polygon class="st2" points="844.54 1018.57 775.86 945.01 891.31 829.25 940.71 922.41 844.54 1018.57"/>
  <path class="st0" d="M478.65,494.39c20.35,3.43,37.92-1.17,57.8-8.86-24.16,42.56-42.34,85.35-55.5,130.77-8.68-26.05-20.12-47.32-35.51-67.77l-22.38-29.74c-47.6-63.32-29.65-142.21,19.71-197.86l14.75-10.62c15.57,13.23,30.04,20.58,49.4,28.65-37.34,14.01-70.11,36.84-80.34,77.24-8.43,37.01,13.77,71.75,52.07,78.2Z"/>
  <polygon class="st2" points="1208.72 1019.66 1119.41 930.14 1169.08 838.24 1278.68 947.57 1208.72 1019.66"/>
  <path class="st10" d="M474.65,896.51c-55.51-20-56.81-72.17-55.45-122.55.92-33.97-9.55-65.83-33.44-90.08l-39.55-40.15c-11.11-11.28-31.67-42.38-9.97-52.66,7.44-3.52,17.22-.08,21.43,7.81,28.81,54.12,53.63,65.3,84.29,115.57,7.5,17.73,13.19,35.08,17.87,53.96.03,42.75,5.69,82.92,14.82,128.1Z"/>
  <path class="st1" d="M1654.26,518.61c1.23-1.45,1.58-6.47,1.38-8.29-.24-2.16-6.98-4.19-8.46-2.59l-80.04,94.17c-4.3-6.05-3.65-14.2-1.84-22.18,15.75-69.5,75.51-118.01,137.41-150.97,3.82,62.25-19.11,125.39-72.96,159.02-16.23,10.13-33.25,18.4-52.35,21.78l76.86-90.94Z"/>
  <path class="st4" d="M1721.83,739.05c-44.15-31.76-79.79-53.99-135.93-51.16l-11.86-58.37c33.39-4.1,67.14-.91,97.26,13.24,36.49,15.82,61.72,47.26,65.26,87.25.22,2.51-1.46,7.12-2.9,8.73-1.72,1.92-9.43,2.04-11.83.32Z"/>
  <path class="st1" d="M375.46,991.19c-28,1.02-54.71-15.92-50.62-40.72,2.48-15.02,20.41-26.76,34.23-25.57,40.15,23.19,84.01,33.3,131.91,30.22l12.47,31.43-127.98,4.65Z"/>
  <path class="st3" d="M688.68,315c-28.37,21.3-52.41,43.25-77.01,68.49-27.05-17.39-31.89-55.01-11.61-79.15,12.1-14.41,29.36-21.68,47.43-19.4,16.75,2.12,33.74,12.23,41.19,30.05Z"/>
  <path class="st8" d="M978.77,139.01c-21,43.2-81.38,46.05-115.06,18.21,24.88-34.64,70.34-62.99,108.8-37.99,6.9,4.49,10.33,11.43,6.27,19.78Z"/>
  <path class="st4" d="M1213.73,235.51c-36.06-11.16-72.69-21.69-112.98-26.91,5.89-29.02,33.76-46.77,63.56-43.26,32.05,5.35,54.09,33.66,49.42,70.18Z"/>
  <path class="st7" d="M1488.11,1170.15c-1.34,20.39-15.34,37.45-33.47,42.03-20.11,5.08-41.92-3.29-51.84-22.8,21.49-19.73,40.62-39.34,59.96-62.28,16.84,6.33,26.56,24.49,25.35,43.05Z"/>
  <path class="st7" d="M600.71,1140.86l40.1,41.49c-3.32,15.74-21.72,24.19-37.42,22.2-14.48-1.83-27.08-12.76-30.43-28.46-3.28-15.41,4.57-31.76,20.06-39.5,1.85-.93,5.42,1.92,7.69,4.27Z"/>
  <path class="st11" d="M1575.35,904.22l13.63-84.83c23.19,2.62,38.75,24.56,36.08,46.81-2.84,23.71-24.67,41.18-49.71,38.02Z"/>
  <path class="st6" d="M1125.46,673.16c-.55-7.67,2.15-14.63,6.26-18.41,3.6-3.3,11.36-5.12,17.12-3.57,57.79,15.59,103.39,51.59,136.59,104.01-.97-31.32-12.93-59.84-23.14-88.19l-33.73-14.19c-33.31-14.01-61.31-38.48-78.64-70.44-27.6-50.91-26.46-110.52-17.87-166.42.84-5.44,4.58-11.44,7.92-13.63,4.7-3.09,13.38-3.85,19.35-1.37,207.43,85.94,328.43,330.49,218.19,536.79-2.48,4.64-7.55,8.84-11.32,9.67-4.55,1.01-12.78-.24-16.35-3.68l-140.21-135.19c-39.16-37.76-79.99-76.8-84.18-135.39ZM1256.33,650.33c-9.77-31.46-18.88-58.22-22.06-88.25-4.22-33.52-.67-65.13,14.31-95.43-31.56-23.57-63.15-43.02-101.92-56.27-16.16,69.67-10.98,160.67,49.27,207.81,18.4,13.52,37.12,25.77,60.4,32.14ZM1156.56,729.3c12.03,19.3,26.42,35.45,42.33,51.83l92.9,89.11,70.26,67.98c92.84-158.58,31.9-353.94-103.54-463.41-21.28,37.74-14.14,97.71-1.87,134.32l27.99,83.53c10.28,30.66,16.85,60.71,16.22,93.18-.05,2.54-2.34,6.65-4.31,7.16s-7.07-1.53-7.97-3.51c-28.19-62.12-76.41-107.99-141.96-126.1-20.44-5.65-.45,49.27,9.93,65.92Z"/>
  <path class="st6" d="M926.1,671.07c-2.34,61.41-49.92,105.14-90.78,144.41l-132.42,127.26c-3.88,3.72-10.55,5.42-15.65,4.99-4.18-.36-10.28-4.66-13.04-9.79-22.87-42.46-36.96-87.38-40.55-135.95-4.14-56.05,3.39-110.49,23.77-162.81,28.66-73.6,77.06-135.83,139.53-183.76,30.72-23.57,62.53-41.95,98.98-55.42,3.94-1.46,12.69-.12,16.04,2.32s6.14,8.63,7.1,14.03c7.13,40.21,7.94,78.94-.27,118.47-15.01,72.32-61.88,107.1-128.87,131.98-12.43,28.2-21.65,57.59-25.3,90.54,32.14-52.48,78.94-90.48,138.09-106.04,5.28-1.39,12.06,0,16.14,2.89,3.71,2.63,7.51,9.68,7.23,16.9ZM904.77,540.15c9.67-36.44,9.32-72.79,3.9-110.19-1.03-7.07-1.94-13.59-6.03-19.17-36.78,13.95-68.34,31.8-99.47,55.83,22.9,46.7,17.45,99.41,2.71,147.65l-10.4,36.26c56.68-20.41,94.13-53.2,109.3-110.38ZM905,663.16c-68.39,20.39-113.16,63.85-142.08,125.21-.94,2-4.44,4.11-5.98,4.57s-5.74-2.18-5.86-3.82c-3.49-46.98,13.69-92.82,29.54-136.91,19.03-52.94,39.98-121.91,12.52-177.44-39.82,32.21-72.27,70.58-97.9,114.66-61.01,104.41-70.57,239.19-6.25,348.7l163.75-157.09c14.09-13.52,25.61-28.31,36.81-43.6,14.76-20.14,22.61-42.67,24.21-67.36.24-3.73-3.75-8.42-8.77-6.92Z"/>
  <path class="st6" d="M1532.95,303.09c0,26.63-21.58,48.21-48.21,48.21s-48.21-21.58-48.21-48.21,21.58-48.21,48.21-48.21,48.21,21.58,48.21,48.21ZM1520.42,303.16c0-19.66-15.94-35.6-35.6-35.6s-35.6,15.94-35.6,35.6,15.94,35.6,35.6,35.6,35.6-15.94,35.6-35.6Z"/>
  <path class="st1" d="M1156.56,729.3c-10.38-16.65-30.37-71.57-9.93-65.92,65.55,18.11,113.76,63.99,141.96,126.1.9,1.99,6,4.02,7.97,3.51s4.26-4.62,4.31-7.16c.63-32.47-5.95-62.52-16.22-93.18l-27.99-83.53c-12.27-36.61-19.41-96.57,1.87-134.32,135.44,109.46,196.38,304.83,103.54,463.41l-70.26-67.98-92.9-89.11c-15.91-16.38-30.3-32.53-42.33-51.83Z"/>
  <path class="st1" d="M1256.33,650.33c-23.28-6.37-42-18.62-60.4-32.14-60.25-47.15-65.43-138.15-49.27-207.81,38.77,13.25,70.36,32.69,101.92,56.27-14.98,30.31-18.52,61.91-14.31,95.43,3.18,30.03,12.28,56.79,22.06,88.25Z"/>
  <path class="st1" d="M905,663.16c5.01-1.49,9.01,3.19,8.77,6.92-1.6,24.69-9.45,47.22-24.21,67.36-11.2,15.29-22.72,30.08-36.81,43.6l-163.75,157.09c-64.33-109.51-54.76-244.3,6.25-348.7,25.63-44.08,58.08-82.46,97.9-114.66,27.46,55.54,6.51,124.5-12.52,177.44-15.85,44.09-33.03,89.93-29.54,136.91.12,1.63,4.32,4.27,5.86,3.82s5.04-2.57,5.98-4.57c28.93-61.36,73.69-104.82,142.08-125.21Z"/>
  <path class="st1" d="M904.77,540.15c-15.18,57.19-52.62,89.97-109.3,110.38l10.4-36.26c14.74-48.24,20.19-100.94-2.71-147.65,31.13-24.03,62.69-41.89,99.47-55.83,4.1,5.57,5.01,12.1,6.03,19.17,5.43,37.4,5.77,73.75-3.9,110.19Z"/>
  <path class="st0" d="M679.94,1021.15c-143.44-195.64-94.76-465.82,100.73-604.95,53.62-36.93,114.02-61.75,180.24-71.3l.19,395.32-281.15,280.93ZM926.1,671.07c.28-7.23-3.52-14.27-7.23-16.9-4.08-2.89-10.86-4.28-16.14-2.89-59.16,15.57-105.95,53.56-138.09,106.04,3.65-32.95,12.88-62.34,25.3-90.54,66.99-24.88,113.86-59.66,128.87-131.98,8.21-39.54,7.39-78.27.27-118.47-.96-5.4-3.8-11.63-7.1-14.03s-12.1-3.78-16.04-2.32c-36.45,13.48-68.27,31.85-98.98,55.42-62.47,47.93-110.87,110.16-139.53,183.76-20.37,52.32-27.91,106.76-23.77,162.81,3.59,48.58,17.67,93.49,40.55,135.95,2.76,5.13,8.87,9.44,13.04,9.79,5.1.43,11.78-1.26,15.65-4.99l132.42-127.26c40.86-39.27,88.44-83,90.78-144.41Z"/>
  <circle class="st7" cx="1484.82" cy="303.16" r="35.6"/>
</svg>