<?xml version="1.0" encoding="iso-8859-1"?>
<!-- Generator: Adobe Illustrator 30.2.1, SVG Export Plug-In . SVG Version: 9.03 Build 0)  -->
<svg version="1.1" id="Layer_1" xmlns="http://www.w3.org/2000/svg" xmlns:xlink="http://www.w3.org/1999/xlink" x="0px" y="0px"
	 viewBox="0 129.6 1200 1541.6" style="enable-background:new 0 129.6 1200 1541.6;" xml:space="preserve">
<style type="text/css">
	.st0{fill:#281D8C;}
	.st1{fill:#E7E4D1;}
	.st2{fill:#FFFFFF;}
	.st3{fill:#07D196;}
	.st4{fill:#43B3F4;}
	.st5{fill:#03BDAB;}
	.st6{fill:#059EB8;}
	.st7{fill:#59DD8F;}
	.st8{fill:#0B56BE;}
	.st9{fill:#41A7EA;}
	.st10{fill:#0A82DD;}
	.st11{fill:#6FC1EA;}
	.st12{fill:#428ABC;}
	.st13{fill:#145DC8;}
	.st14{fill:#0886C1;}
	.st15{fill:#06B2B8;}
</style>
<path class="st0" d="M1199.96,642.17v492.49c-6.23,0.17-12.4-1.22-18.52-4.15c-32.5-12.84-65.2-25.15-98.11-36.94
	c-10.57-3.3-23.04-4-33.72-0.78c-45.51,13.7-90.78,29-135.37,45.42c-20.45,8.52-39.71,4.1-59.76-0.67
	c-19.85-1.45-39.41,2.31-58.7,11.28l-8.88,2.37c-4.88,1.62-8.63,1.25-11.26-1.11l-1.86-2.09c-0.64-7.73-2.52-15.26-5.66-22.57
	c-0.01-0.87,0.07-1.6,0.46-1.86c0.59-0.38,2.17-0.47,3.13-0.48c1.88-0.03,7.17,5.66,8.63,7.33c-0.22-6.95-1.59-13.78-4.13-20.5
	l1.44-2.1c1.04-1.73,3.04-1.51,6.02,0.66c-0.95-4.01-2.68-7.83-5.2-11.47l0.89-2.53l-2.08-3.47c2.81-0.76,4.16-2.19,4.05-4.29
	c-3.51,0.03-3.61-3.84-0.86-5.83c0.49-2.89,3.18-3.8,8.09-2.73c-4.11-4.08-4.85-7.03-2.22-8.85l1.57-1.63l8.35,1.45l-5.11-14.76
	c1.39-2.57,4.15-2.87,8.28-0.9c-4.61-5.94-8.59-12.26-11.93-18.96c-1.54-2.77-0.49-5.03,2.53-5.09
	c-3.59-6.85-7.25-13.74-10.97-20.68c4.68-27.65,5.32-52.41-4.16-78.96c-6.97-19.52-35.83,6.53-40.46,16.73l-2.24,0.18
	c-1.53,2.48-4.76,2.19-7.21,1.31c-1.39,0.95-2.47,1.12-3.22,0.5c-0.81-0.12-0.78-0.38,0-0.77c-0.6-0.63-1.25-0.73-1.95-0.28
	c-0.47,0.6-0.97,1.17-1.55,1.63c-6.35,5.09-33.98,1.17-42.72-0.26l0.45,8.27c-1.15,1.39-2.21,2.44-3.7,1.34
	c-2.52-7.84-10.99-16.52-16.95-22.42c-9.87-9.78-27.71-23.67-33.69-3.62c-6.69,22.44-8.54,44.95-4.95,67.89
	c-0.04,4.65-1.46,6.9-4.26,6.76c-2.39,1.72-3.1,3.25-2.13,4.59c1.9,1.95,0.88,4.1-3.08,6.44c1.75,1.09,2.33,2.25,1.75,3.46
	c-4.19,4.65-8.51,9.2-12.95,13.64c11.57-5.29,5.93,4.44,1.18,11.18c-9.6,13.62-23.08,23.35-38.69,29.03c5.74,1.57,3.61,5.03-1,6.63
	c-4.46-0.15-6.37,0.98-5.74,3.39c-6.93,2.77-14.31,4.6-22.13,5.48c4.85,0.82,8.31,3.18,2.78,6.34
	c-36.42,13.72-70.32,32.91-101.85,55.53l-3.57,1.17l-3.25,1.12c-30.47-9.41-61.37-14.34-92.69-14.8l-2.93-1.66l-3.69-0.78
	c-32.18-25.22-63.31-61.68-67.51-103.81c-3.39-33.94,12.76-67.72,35.26-92.88c53.09-59.39,138.39-96.17,214.99-113.64
	c69.32-15.81,139.12-30.05,208.88-43.31c35.85-7.62,71.35-16.8,106.5-27.18c119.77-34.7,241.97-72.17,366.6-112.4L1199.96,642.17z"
	/>
<path class="st0" d="M728.6,129.11c-1.13,2.5-2.41,4.96-4.28,6.99c-11.16,12.05-25.81,23.69-38.8,33.9
	c-39.47,31.02-83.27,55.97-127.74,79.03l-123.02,61.55C294.5,377.91,163.44,468.75,93.36,612.06
	c-47.9,97.95-61.45,211.59-18.69,313.59l0.19,3.55c0.98,1.31,1.89,3,2.74,5.08c2.63,0.04,3.61,3.26,1.12,4.48
	c1,1.23,1.91,2.61,2.73,4.14l2.63,1.76c0,0,3.56,7.33,10.69,22c4.18,4.64,7.57,10.12,10.17,16.44
	c41.52,67.05,106.84,116.99,176.67,152.89l2.29,2.59c-0.57,0.56-1.16,1.09-1.82,1.5c-7.46,4.67-37.85-1.3-47.51-3.2
	c-37.79-11.27-75.08-23.45-111.85-36.53c-11.98-3.6-24.67-1.83-36.55,1.36l-84.46,27.75L0,1128V128.64l0.93-1.92
	c242.13,0.15,484.28,0.31,726.47,0.46L728.6,129.11z"/>
<path class="st1" d="M1199.96,1230.6v11.47l-5.75,1.84c-70.5,8.1-140.38,20.79-208.69,40.19c29.82,2.2,59.49,4.74,89.01,7.62
	c1.9,2.16,1.8,3.6-0.3,4.32c-51.91,7.61-105.1,16.18-157.47,27.3c-3.47,0.65-7.03,0.57-10.55,0.42c-0.82-0.56-2.03-1.4-1.86-2.13
	c1.23-5.54,7.61-10.97,12.24-13.69l-0.14-0.88c1.66-0.75,1.13-0.53-1.59,0.66l-0.2,1.41c-4.5,3.64-8.65,7.66-12.43,12.07l-2.48-0.25
	c-3.86,4.04-6.88,4.93-6.63-1.78c0.25-6.71,7.01-19.64,10.45-25.09c-0.09-0.45-0.12-0.87,0.05-1.18c4.43-8.23,4.23-5.15-0.09,0.15
	c-0.22,0.27-0.68,0.36-1.2,0.38l-0.01,1.93c-4.63,8.56-8.53,17.43-11.7,26.6l-2.79,2.51c1.02,2.14,0.56,2.36-1.53,1.21l-2.45-1.37
	c-1.49-7.28-1.82-14.66-1-22.14l-3.01,16.28c-1.86,2.27-3.42,1.87-4.68-1.19c-2.96-7.85-6.02-15.56-9.18-23.12
	c-0.84-0.34-1.2-0.1-1.05,0.77c3.15,4.53,5.6,9.57,7.36,15.13c1.42,2.9,1.19,5-0.69,6.3c0.31,3.11-0.1,5.31-3.58,3.86l-8.93-13.82
	l5.43,15.9l-1.36,1.95c-2.21,0.63-3.95,0.07-3.17-2.56c-1.4-1.66-2.81-2.04-4.22-1.12l-6.58-4.24c-4.22-1.65-8.21-3.41-11.99-5.3
	c-0.37,1.12-0.85,0.91-1.75,0.49c-0.09-0.04,1.71,0.02,1.5,1.1c4.87,0.2,9.65,1.83,14.36,4.87c3.08,1.58,4.66,2.88,5.21,6.4
	c2.02-1.95,4.17,0.45,2.68,2.77l0.4,1.57c-5.07,1.35-10.39,2.15-15.96,2.38c0.14,2.8-1.69,2.75-2.5,0.1
	c-0.15,1.16-1.38,0.99-2.31,0.84c-0.86,2.44-1.42,2.46-2.52,0.1c-0.43,0.92-1.49,1.23-3.18,0.93c-0.38,1.85-1.12,1.87-1.59,0.04
	c-0.9,0.61-2.01,1.1-3.32,1.47l-4.66,2.12c-32.73,6.65-65.05,14.94-96.98,24.88c-14.26,1.32-13.25,2.12,2.48,0.12
	c149.18,8.55,298.36,21.3,446.48,41.14c8.26,1.11,16.37,3.07,24.45,5.04v135.51l-0.57,1.95c-57.92,3.13-115.86,6.26-173.8,9.38
	l-1.29-1.85c-0.27-0.81-0.51-1.63-0.61-2.46c-0.86-7.23,12.51-30.66,17.08-37.97c8.65-13.83,19.55-29.22,32.71-38.54
	c0.7-0.97,0.19-1.46-1.02-1.16l-1.32,2.19c-26.44,21.07-47.3,47.23-62.2,77.56l-3.8,3.34c-1.35,2.71-5.49,2.19-4.98-1.08
	c-0.28-1.28-0.51-2.57-0.61-3.87c-0.09-1.28-0.17-2.55,0.05-3.76c3.78-21.24,9.82-44.48,17.52-64.63c0.44-1.16,1.14-2.22,1.88-3.28
	c0.75-1.07,1.61-2.07,2.51-3.04l1.73-2.23c-2.59-1.03-0.8-4.78,1.6-4.87c0.74-1.96,0.22-2.14-1.53-1.8
	c-0.22,2.96-1.56,5.94-4.03,8.92c-11.46,13.06-18.52,27.56-21.18,43.52l-1.91,2.17c-0.38,0.96-0.89,1.73-1.53,2.31
	c2.58,0.31,2.36,0.89-0.05,1.61c0.34,0.93,0.03,1.92-0.93,2.22c1.68,1.49,1.44,2.87-0.63,3.71c-0.44,2.3-1.24,3.3-2.4,2.98
	c-1.39-1.71-2.09-3.65-1.68-5.81c2.69-20.08,4.11-40.2,4.25-60.34l1.57-3.85c0.42-1.38,0.88-2.82,1.36-4.31
	c-0.75-0.18-1.45-0.53-1.82-1.23c-0.68-1.3,2.02-13.06,3.26-14.8c-0.07-2.23-0.47-2.9-1.2-2.01c0.52,1.05,0.86,2.1-0.22,2.7
	c-0.36,0.91-0.82,1.69-1.39,2.37l0.42,3.62c-8.03,33.43-14.02,67.25-17.96,101.46c-0.43,5.54-2.1,4.77-5.03-2.28
	c-6.36-30.82-16.43-61.05-33.06-87.9l-1.35-5.69c-3.39-1.45-5.97-4.39-7.74-8.84c2.82,3.68,3.88,7.32,3.18,10.93
	c0.9,0.88,1.76,1.79,2.51,2.78c0.75,0.99,1.48,1.96,1.89,3.04c7.14,18.64,14.06,37.81,17.32,57.48l-0.47,3.71
	c0.5,1.04,1.02,2.13,1.54,3.25c2.76,0.74,2.9,2.79,0.22,3.83c-0.16,2.72-0.45,2.29-1.72,0.08l-3.87-3.23
	c-12.09-22.09-28.55-41.75-48.06-57.58c0,0-0.08,0.98-0.24,2.94l1.98,2.03c0.93,0.29,1.83,0.62,2.68,1.07
	c0.82,0.44,1.6,0.89,2.18,1.52c16.23,17.7,29.9,42.69,37.82,65.31c1.21,3.46,7.39,21.49,5,21.72c-1.09,0.11-3.35-1.64-4.65-2.68
	c-14.28-18.85-32.24-35.11-53.99-44.79c14.07,10.87,28.36,23.86,37.32,39.42c0.35,0.62,0.48,1.37,0.57,2.16
	c0.1,0.82,0.06,1.66-0.01,2.51l-5.91,1.7c-73.97,8.01-147.67,18.23-221.11,30.67c-144.7,19.89-289.06,41.88-433.09,65.95
	c-23.06,4.86-46.28,8.55-69.66,11.08l-0.67,1.92c-133.08,0.1-199.62,0.15-199.62,0.15L0,1672.32v-49.92
	c7.96-3.08,15.96-6.16,24.21-8.39c65.92-17.78,132.49-33.25,199.05-48.42c190.31-40.59,379.65-80.36,568.03-119.3
	c5.45-1.2,38.8-9.74,39.73-13.94c0.5-2.26-16.31-7.4-18.59-8.02c-24.65-6.75-50.64-11.01-75.76-13.2l-1.29-1.71l-2.52-0.6
	c-5.35-11.25-12.14-13.87-23.66-11.14c-4.14,0.32-6.54-4.5-8.16-7.91c-6.4-13.43-6.99-44.6-5.04-59.62l1.97-1.43
	c2.13-1.19,4.29-2.34,6.5-3.36c2.21-1.02,4.41-2.03,6.7-2.73c156.24-48.27,317.84-85.21,481.52-92.94L1199.96,1230.6z"/>
<path class="st2" d="M0,128.64V0h1199.96v128.9c0.05,0.45,0.06,0.89-0.07,1.28c-0.57,1.72-32.05,1.04-35.89,0.8
	c-2.33,0.51-3.73-0.12-4.18-1.9l-3.46,1.92l-99.57,0.03c-1.5,0.3-2.04-0.43-2.57-1.92l-3.95,1.92c-38.95,0-77.88,0-116.78-0.01
	l-1.16-1.92l-4.05,1.92c-66.2,0-132.36,0-198.49,0l-1.18-1.92L0,128.64z"/>
<path class="st2" d="M201.47,1672.17l20.92-1.93c326.07-0.1,651.53-0.2,976.36-0.3l1.21,1.92V1800H0v-127.68L201.47,1672.17z"/>
<path class="st3" d="M1199.96,128.9v137.83l-4.15,4.6c-165.27,122.76-345.11,233.7-547.1,283.12l-167.67,40.13
	c-109,30.81-227.32,80.09-300.11,169.24c-36.04,44.13-60.1,97.58-50.15,155.24l-1.04,5.24c0.55,0.58,1.08,1.35,1.58,2.31
	c2.55-0.11,2.44,0.86,0,1.62c-0.04,1.2,0.26,2.26,0.9,3.19c2.81,0.11,3.02,3.54,0.41,4.39c0.98,0.26,1.11,1.32,0.91,2.24
	c1.93-0.04,1.9,0.89,0.04,1.61c1.13,1.39,2.04,3.27,1.95,5.07c2.81-0.55,4.03,1.95,1.85,3.84l2.26,1.83
	c17.55,33.79,38.74,66.03,67.87,91l2.76,4.84l2.34-0.5c2.09,2.52,4.51,3.91,7.25,4.16c-7.55-28.83-8.02-59.4,0.09-88.2
	c12.68-45.08,52.25-89.63,89.88-116.8c121.1-87.48,273.95-118.77,418.82-142.2c45.55-9.33,91.19-18.12,136.94-26.36
	c12.05-2.77,24.02-3.8,35.91-3.11c2.63,3.32-3.61,5.71-6.49,6.68c-64.69,21.72-129.62,42.9-195.89,59.67l-200.86,52.88
	c-112.62,32.8-258.42,90.99-269.05,224.9c-3.2,40.27,3.54,60.06,31.6,87.7c12.2,12.01,26,22.3,39.63,32.45l0.88,3.04l-1.31,1.93
	c-3.88,0.74-15.85,0.97-16.09-3.91c-35.46-17.86-70.68-37.81-101.26-64.98c-33.61-29.85-70.22-64.64-87.86-106.94
	c-7.8-12.1-11.02-26.08-13.27-40.11c-5.95-37.03-0.82-76.98,11.18-112.36c0.26-0.76,0.81-1.43,1.39-2.12
	c0.59-0.7,1.29-1.31,2.01-1.9l11.29-23.73l2.11-1.18c-0.06-1.09-0.04-2.16,0.26-3.15c3.97-13.05,21.35-35.08,30.45-46.34
	c21.48-26.58,49.28-52.45,78.63-70.06c0.82-0.49,1.79-0.74,2.79-0.97c1.02-0.23,2.07-0.33,3.13-0.39c0.32-1.36,1.49-1.8,3.52-1.31
	c0.44-1.89,1.48-3.04,3.11-3.45l2.57-3.22c58.1-39.14,125.53-62.42,191.83-84.07c134.97-39.53,266.78-88.93,388.63-161.86
	c126.04-75.44,241.22-169.09,340.28-277.49l5.14-3.88L1199.96,128.9z"/>
<path class="st4" d="M1199.96,1542.9v128.96l-998.49,0.31c165.06-32.4,334.32-53.94,502.47-78.92
	c75.96-11.29,151.15-25.37,227.3-30.47l2.82,0.99c6.33,8.73,11.25,18.06,14.78,28l-1.31,2.8c1.15,2.64-3.13,4.41-4.71,2.19
	l-3.35-0.79c-5.2-5.32-11.38-9.54-18.16-12.58c2.92,1.21,4.35,3.03,4.3,5.44l-1.4,3.22c-11.76,6.1-24.05,11.07-36.86,14.9
	l54.73-2.34c12.41,1.78,24.84,2.99,37.28,3.63c26.69-5.31,53.79-9.57,81.12-10.22l-24.92-3.97l-1.68-2.39
	c0.43-1.58-0.79-2.08-3.66-1.5c-0.92-3.89-0.04-7.89,2.65-12l-4.26,6.53c-1.62,4.39-3.98,7.67-7.07,9.86
	c-1.35,2.92-9.66,3.02-9.89-0.88l-1.26-3.2c1.4-8.59,6.16-30.08,10.89-36.51c0.68-0.92,1.92-1.27,3.04-1.56L1199.96,1542.9z"/>
<path class="st5" d="M1199.96,562.59c-1.63,1.33-3.29,2.62-5.03,3.8c-1.73,1.17-3.46,2.33-5.31,3.21
	c-75.49,35.91-156.38,69-237.12,90.79c-1.98,0.53-4.04,0.78-6.12,1.01c-2.09,0.23-4.19,0.31-6.29,0.35l-2.33,1.51
	c0.1,0.75,0.15,1.91-0.35,2.07c-6.75,2.26-18.17,5.31-25.08,6.43c-2.71,1.3-4.66,1.14-5.87-0.48l-2.43,1.64
	c-0.27,2.7-1.41,2.76-2.53,0.3c-68.01,7.99-134.77,25.73-203.18,36.69c-131.73,21.12-269.1,55-380.34,131.52
	c-26.74,18.4-50.31,42.38-69.72,67.9c-31.22,41.06-39.69,92.04-25.99,141.85c-5.4,2.35-8.99-2.49-12-4.97
	c-7.05-14.8-14.02-30.39-18.57-46.36c-1.46-4.05-1.09-6.73,1.12-8.03c-0.6-1.13-1.1-2.55-1.48-4.27c-2.87-1.9-3.33-8.85-1.13-11.39
	c-0.12-15.78,4.88-32.65,10.26-47.49c17.9-49.36,63.84-92.5,106.27-122.7c86.36-61.47,183.26-107.61,287.73-127.95l127.4-25.21
	C892.4,620.1,1056.17,530.83,1198,445.54l1.97,1.07V562.59z"/>
<path class="st6" d="M1199.96,343.51v103.1l-63.55,37.46c-98.11,57.83-201.2,107.7-309.4,143.86c-82.09,27.43-183.6,39-269.97,60.78
	c-87.75,22.13-163.41,60.44-238.09,111.11c-37.31,25.32-71.13,55.18-97.31,91.8c-18.37,25.71-25.54,54.57-31.43,84.56
	c-0.62-0.51-1.22-1.05-1.71-1.67c-5.05-6.4-3.61-36.97-2.44-46.19c12.55-98.56,109.96-175.04,193.36-217.2
	c74.08-37.45,158.46-55.21,236.44-71.37l1.55,1.62c3.87,0.63,6.2-0.49,7-3.36l2.35-0.48l4.6-2.66c66.51-20.6,132.5-43,195.5-73.02
	c48.29-23.01,93.07-50.52,137.2-80.14c10.85-5.56,20.41-11.58,28.67-18.07l-0.29-2.01l33.84-17.24l171.67-101.93L1199.96,343.51z"/>
<path class="st4" d="M382.03,1203.22c-0.82,3.69-1.22,5.54-1.22,5.54c-24.89,39.37-40.91,83.86-40.88,130.82
	c-6.37,5.41-11.36,11.61-14.99,18.59l-2.39,1.06c-0.87,0.7-0.92,1.17-1.02,2.26c2.52,0.49,2.25,1.38-0.25,1.81
	c-2.33,3.89-4.48,7.87-6.45,11.93l-2.13,0.78c-0.89,2.91-2.48,3.11-4.27,0.66c-1.27-0.48-1.62-0.33-2.39,0.77
	c0.51,2.88-5.76,3-6.33,0.24c-1.67-0.29-3.07-0.04-4.2,0.76c-5.38,1.46-10.8,2.81-16.34,3.48c-87.92,10.68-175.62,22.1-262.51,39.66
	c-5.5,0.95-11.1,1.06-16.66,1.16v-219.84l0.92-1.92c126.62,0.11,253.26,0.23,379.91,0.34L382.03,1203.22z"/>
<path class="st7" d="M1199.96,562.59v79.58c-65.43,22.89-131.51,43.87-198.47,63.73l-178.34,52.9
	c-48.7,14.45-97.33,26.08-147.17,35.31c-55.53,10.28-110.19,21.56-165.09,34.44c-77.11,18.09-154.66,49.99-210.72,106.82
	c-13.51,13.7-23.83,29.02-31.82,45.95c-29.76,63.03,12.18,120.03,59.82,157.24c-4.42,2.65-9.71,3.83-15.85,3.53
	c-4.31,0.97-7.98,0.46-11.01-1.53c-26.28-19.43-68.34-50.28-73.05-85.78c-8.39-63.27,17.89-124.5,65.62-165.75
	c24.06-20.79,50.15-37.69,78.97-51.56c43.33-20.84,88.2-37.31,134.85-49.55l145.23-38.09c81.35-21.34,161.91-43.29,240.86-71.53
	c3.45-1.24,6.46-2.44,7.69-5.07l2.53-0.3c0.6-0.62,1.41-1.17,2.43-1.64l31.3-8.03c0.43-0.65,1.2-1.15,2.33-1.51
	C1029.5,638.2,1116.44,602.35,1199.96,562.59z"/>
<path class="st8" d="M1199.96,266.73v76.78l-172.75,102.57l-34.47,17.56l-4.77,3.86c-135.01,71.76-279.58,122.83-430.11,150.68
	c-115.58,22.67-226.16,62.58-318.17,136.37c-58.18,46.66-105.79,119.91-93.66,197.16c-1.31,6.49-4.82,3.24-5.99-1.28
	c0,0-0.89-0.62-2.67-1.86c-0.56-1.21-1.21-2.67-1.85-3.84c-0.07-1.92-0.91-3.5-1.95-5.07c0.09-0.53-0.09-1.08-0.04-1.61
	c0.05-0.87-0.26-1.62-0.91-2.24l-0.41-4.39c-0.79-0.6-1.09-1.66-0.9-3.19v-1.62l-1.58-2.31c-6.16-32.97-2.98-65.44,10.33-97.37
	c28.99-69.55,95.15-126.61,160.66-162.37c60-32.75,122.88-58.31,189.58-74.24l151.97-36.28
	C852.18,503.92,1028.55,391.77,1199.96,266.73z"/>
<path class="st9" d="M0,1622.4v-23.04c1.24-1.14,2.51-2.24,3.86-3.24c1.34-0.99,2.67-1.96,4.12-2.67
	c49.18-24.24,99.85-47.65,150.27-67.23c6.66-3.06,27.71-12.93,27.75-20.97c0.02-3.09-3.13-6.2-5.47-7.94
	c-16.25-8.94-30.88-19.61-6.93-32.46c7.54-4.04,15.64-7.1,23.76-9.87c34.38-11.71,71.1-19.03,106.46-25.32l1.27,1.76
	c0.9,0.08,1.67-0.17,2.32-0.75c0.9-2.55,7-3.82,8.42-1.31c2.26-2.16,4.94,0.61,2.68,2.78l-0.25,2.29
	c-13.06,5.47-33.62,18.47-13.63,30.26c23.76,14.01,64.68,19.14,91.28,21.41c84.62,7.2,173.88-0.34,255.15-25.5l-19.87-7.89
	c-2.55-3.66,0.05-5.32,7.8-4.98l31.15-0.98c11.08,0.22,19.79-2.99,26.14-9.63c0.52-2.81,1.74-4.59,3.64-5.35
	c11.59-0.65,23.06-2.11,34.41-4.39c4.21-0.78,6.76-2.7,7.65-5.77c0,0-1.55-2.19-4.65-6.58c-2.92-0.31-3.98-3.55-1.98-5.63
	c10.09-1.25,99.36,13.13,97.52,23.24c-1.42,7.82-58.44,19.51-69,21.68l-226.92,46.73l-263,55.49
	C181.5,1576.07,90.52,1598.28,0,1622.4z"/>
<path class="st4" d="M1199.96,1242.07v165.32c-160.54-20.62-320.05-36.89-483.76-44.92c37.47-12.57,74.47-21.89,111.99-28.38
	c1.13-0.44,2.24-0.93,3.32-1.47c0.52,0.07,1.07-0.08,1.59-0.04c1.57-0.06,2.15-0.11,3.18-0.93c0.81,0,1.73-0.21,2.52-0.1
	c0.96,0.15,1.73-0.13,2.31-0.84c0.69-0.21,1.89,0.22,2.5-0.1c2.07-0.62,3.08-0.24,3.01,1.15c7.37,0.69,14.73,1.59,22.09,2.71
	l10.43-0.1c5-1.21,9.54-1.24,13.62-0.07c0.71-3.12,4.66-3.23,5.51-0.19c3.19-1.46,6.99-1.8,11.38-1.05l13.76-0.69l-16.35-5.29
	l-0.73-2.25c-0.87-0.19-0.9-0.53-0.14-1.04c38.77-9.06,78.62-14.93,118.48-22.5c17.25-3.27,33.54-2.95,50.82-7.53l-97.58-8.82
	C1051.24,1262.61,1125.47,1249.09,1199.96,1242.07z"/>
<path class="st4" d="M752.69,1202.75c1.01-1.28,1.51-1.92,1.51-1.92c148.18-0.02,296.37-0.04,444.56-0.06l1.2,1.92v27.92
	c-170.59,8.09-339.36,47.44-501.99,98.11l-1.79-3.89c-0.43-16.27,2.09-50.54,8.98-64.71c0.64-1.31,1.96-2.14,3.17-2.87
	c0.61-1.86,2.27-2.78,4.97-2.76c-1.09-2.6,0.25-4.36,3-4.37l5.77-7.94c1.61-0.31,2.77-1.83,3.48-4.56c-2.56-1.57-1.74-3.99,1.2-3.99
	c2.32-7.09,4.13-8.36,5.44-3.81c2.9,0.03,3.09,3.93,0.4,4.57c0.88,1.21,1.79,1.23,2.73,0.06c-2.18-1.73-0.52-5.58,2.13-5.44
	c0.43-0.98,1-1.73,1.71-2.24c-2.53-1.43-0.51-6.14,2.28-5.7c0.84-2.41,2.23-3.4,4.18-2.98c1.71-0.86,3.04-2.43,3.98-4.69
	c-3.03-2.05-2.18-9.01,1.11-10.45C751.18,1200.39,751.55,1200.36,752.69,1202.75z"/>
<path class="st1" d="M312.7,1376l1.3,4.24c-1.99,14.95-0.85,30.15,2.71,44.77l-0.87,4.34c-2.8,0.57-5.55,1.45-8.42,1.31
	c-0.42,0.9-1.42,0.9-2.32,0.75c-20.81,2.89-138.76,26.03-141.98,45.88c-2.02,12.48,22.53,14.6,24.7,27.03
	c2.09,11.95-34.47,26.38-45.24,30.41c-49.52,18.51-95.55,42.41-142.58,64.62V1488c1.78-1.15,3.58-2.25,5.45-3.23
	c1.86-0.97,3.72-1.93,5.67-2.59c48.33-16.57,99.21-29.85,149.01-41.3c2.01-0.46,4.09-0.64,6.18-0.8c2.1-0.16,4.22-0.19,6.33-0.17
	l2.97-1.48c6.38-1.81,12.76-3.69,19.14-5.65c-8.38-0.67-16.71-1.75-24.98-3.25l-1.12,1.92c-11.22,0.01-22.44,0.02-33.67,0.04
	l-1.4-1.92c-5.72,0.92-11.59,1.21-17.62,0.89c-1.78,2.58-9.6,3.22-11.11,0.21c-3.98,0.42-7.98,0.87-11.99,1.35
	c0.39,2.95-7.6,3-8.26,0.18c-0.86,0.64-2.19,0.53-3.2,0.07c-0.09,3.25-5.13,3.02-6.35,0.2c-1.9,1.08-4.26,1.34-7.08,0.77
	c-1.15,2.82-3.08,2.81-4.46,0.17c-2.67,1.03-5.67,1.33-8.98,0.9c-1.15,3.03-4.86,2.83-6.33,0.12c-2.29,0.53-4.68,1.01-7.17,1.44
	c0.52,2.83-12.76,2.67-13.55,2.33c-0.71-0.3-1.08-1.14-1.38-1.88c-0.82,1.43-3.52,1.11-5.18,0.76c-0.32,3.29-5.24,2.95-6.36,0.19
	l-1.94,0.98c-2.94-0.55-5.62-0.38-8.05,0.52c-0.37,2.76-3.77,2.8-4.57,0.28v-16.32c97.83-18.35,196.3-35.29,295.51-44.3
	c0.88-0.95,2.27-1.2,4.2-0.76l6.33-0.24c0.34-1.04,1.55-1.57,2.39-0.77C309.84,1376.37,311.31,1376.4,312.7,1376z"/>
<path class="st10" d="M283.91,1138.58c6.49,3.27,10.53,1.93,17.4,1.99c9.28,0.08,17.86-1,26.86-2c27.31-3.03,71.86,8.11,98.87,15.33
	l-1.61,3.81c-10.14,9.97-20.06,20.07-29.76,30.3l-2.2,0.47c-2.78,0.96-4.17,1.44-4.17,1.44c-28.54-5.45-56.84-12.07-84.91-19.86
	c-18.49-4.01-37.57-6.28-56.41-3.51l-98.11,18.23c-28.29-5.46-56.46-12.14-84.53-20.04c-9.8-2.86-19.64-4.55-29.53-5.06l-34.06,6.43
	L0,1164.48V1128l74.77-24.85c15.71-5.22,33.7-9.7,49.71-4.26l79.58,27.03C230.18,1134.79,257.3,1141.97,283.91,1138.58z"/>
<path class="st8" d="M1199.96,1171.14v31.54l-447.27,0.06c-1.69-0.74-1.27-3.86,0.86-3.68c0.47-2.63,2.24-7.11,4.86-7.87l2.51-1.99
	c11.19-1.55,22.25-3.88,33.2-6.97l124.67-23.05c47.1-8.99,93.88-24.41,135.41-47.13c2.91-1.15,14.14-5.4,15.52-1.21
	c0.96,2.89-20.17,20.19-24.72,23.8c-10.35,8.21-21.29,15.65-32.81,22.14c10.05-3.71,19.96-7.83,29.73-12.37
	c12.53-5.33,26.14-7.84,39.59-4.4c37.47,10.03,75.07,19.58,112.79,28.64L1199.96,1171.14z"/>
<path class="st10" d="M1199.96,1134.66v36.48c-39.45-7.99-78.35-18.46-117.59-28.91c-32.73-8.72-52.11,15.65-83.91,19.65
	c27.17-13.35,49.71-30.43,70.27-51.12c-11.84,0.13-19.57,6.36-28.95,10.98c-40.49,19.98-83.49,32.53-128.03,40.75l-115.92,21.38
	c-12.92,2.38-24.75,7.32-37.42,7.33l-1.56-2.4c1.15-6.83,1.49-13.78,0.49-20.67c3.17-5.74,8.15,1.59,10.1,5.39l-0.5-17.92
	c1.93-2.32,4.18-1.77,6.75,1.67c-0.69-3.66-0.04-6.05,1.95-7.19c10.95,0.82,21.68-3.81,32.56-7.72
	c58.93-21.19,57.87,11.39,108.04-6.89c43.29-15.77,86.06-30.57,129.97-43.72c12.69-3.8,25.33-3.99,37.7,0
	C1126.24,1105.37,1159.17,1121.94,1199.96,1134.66z"/>
<path class="st8" d="M393.46,1188.48l0.58,2.2l-9.76,12.6l-2.26-0.06L0,1202.88v-38.4l35.52-6.7c12.15-2.29,94.61,23.78,114.23,25.1
	l94.01-17.57C293.45,1156.03,343.73,1183.18,393.46,1188.48z"/>
<path class="st4" d="M169.78,1429.53c5.25,0.55,10.38,1.6,15.38,3.14c0,0,0.3,0.87,0.91,2.61c-4.47,1.59-8.94,3.14-13.42,4.64
	C114.24,1453.53,56.66,1468.29,0,1488v-48.96c1.51-0.33,3.05-0.15,4.57-0.28l2.3-0.86c2.89,0.69,5.46,0.47,7.69-0.64
	c1.9-0.38,4.6,0.59,6.36-0.19c2.04,0.57,3.77,0.31,5.18-0.76l14.93-0.45c2.39-0.39,4.78-0.87,7.17-1.44
	c1.95-0.21,4.45,0.28,6.33-0.12c3.28,0.39,6.28,0.09,8.98-0.9c1.34-0.01,3.18,0.03,4.46-0.17c2.67,0.48,5.04,0.22,7.08-0.77
	c1.94-0.13,4.53,0.37,6.35-0.2c1.18,0.39,2.25,0.37,3.2-0.07l8.26-0.18c3.99-0.43,7.99-0.88,11.99-1.35
	c3.66,0.12,7.48-0.64,11.11-0.21c5.99,0.33,11.87,0.03,17.62-0.89L169.78,1429.53z"/>
<path class="st1" d="M719.83,947.42c0.37-1.4,1.83-1.22,1.95,0.28c-0.03,0.24,0.09,0.54,0,0.77l1.13,0.26
	c3.13-1.7,4.63-1.09,4.5,1.82c-3.88,8.88-3.19,8,2.07-2.64l2.73-1.25c5.87-12.28,28.06-31.26,39.4-24.53c2.9,1.72,4.72,5.68,6.31,10
	c8.9,24.3,7.19,49.98,2.99,76.37l12.91,23.23c-2,0.64-3.55-0.84-5.59-0.46c3.74,9.46,9.94,16.82,15.89,25.48l-11.4-3.17l7.15,18.87
	c-4.9-2.34-9.27-2.16-13.51-3.15c-2.82,1.36-6.3,1.75-10.42,1.15c-4.21,1.13-7.82,1.1-10.83-0.09c-8.39,3.85-17.21,7.51-26.11,9.53
	c-0.82,3.07-4.49,3.3-6.97,2.13c-2.69,5.2-5.99,11.42-11.02,14.26c-2.72,5.42-16.37,5.54-20.34,1.42c-2.66-2.76-3.47-4.08-0.83-7.25
	c14.27-4.08,11.89-16.26-2.43-14.97c-10.99,0.99-13.87,9.26-2.27,13.67c10,10.07-9.3,14.72-16.46,10.04
	c-2.6,1.77-7.81-3.41-5.99-6.01c-2.38-2.59-5.07-4.75-8.07-6.46l-0.27-2.16c-1.89-0.79-1.83-1.5,0.2-1.83l0.06-2.02
	c-2.74-1.73-5.02-3.9-6.84-6.5c-2.68-0.06-5.37-1.29-8.07-3.68c-7.44-4.7-32.84-5.34-8.52-1.89c2.51,1.99,1.82,6.39-0.16,8.62
	c-2.49,2.79-17.33,5.78-20.23,4.42c-2.98-4.71-5.99-9.23-12.36-8.31c-3.12,0.45-8.77,9.95-9.56,12.93
	c6.86-3.45,14.28-4.5,11.29,5.67c2.27-0.08,3.31,0.26,3.99,2.56l-2.16,13.4c2.8-3.58,8-9.64,9.67-2.24
	c1.04-2.46,3.68-3.34,4.97-0.61c1.1,11.5,4.96,22.75,10.59,32.7c-0.37-5.32,0.96-9.46,3.98-12.42l2.16,1.2
	c5.9,8.39,10.93,17.29,15.07,26.7c-0.97-6.16,0.59-8.79,4.67-7.9l19.2,30.44c-1.78-6.03-0.11-11.7,5.63-5.14l9.72,15.34
	c3.43-2.71,5.36,1.88,6.22,4.79l2.75,10.94c6.73-11.53,12.25-23.79,15.55-36.76c3.45-4.98,6.51,0.12,6.61,4.56
	c4.44-9.38,8.01-19.07,10.7-29.09c0.45-0.87,0.93-1.57,1.49-1.64c5.14-0.66,5.41,10.36,5.15,13.9c3.97-7.01,6.04-14.9,7.39-22.79
	c1.56-3.87,4.82-2.92,6.48,0.36l0.86-12.14c2.14-1.95,4.71-1.25,7.71,2.11c4.66,0.26,5.51-3.65,2.55-11.73
	c1.06-5.49,6.76-5.68,6.54-0.7c2.15,8.86,6.4,17.39,3.9,27.07c-3.69-4.32-6.66-8.54-12.04-10.73c3.39,8.74,6.67,17.18,6.13,25.94
	c-0.23,3.78,0.34,7.66-0.5,11.8l-6.32-6.9c-0.33,8.96,2.12,16.35-0.55,24.01c-2.82-4.59-4.09-9.33-9.27-12.02
	c1.67,8.8,0.69,16.48-0.58,24.23c-0.49,2.99-2.12,7.18-4.86,7.87c-0.77,0.02-1.37,0-1.41-0.16c-2.68-11.19,0.64-10.07,0.04,0.34
	c-0.08,1.32-0.28,3.46-1.47,3.71c-0.54,3.51-1.19,6.88-1.11,10.45c-1.58,4.18-3.34,5.58-5.28,4.19c-0.14,1.29-1.1,2.45-2.87,3.48
	l-2.28,5.7l-1.71,2.24c-0.41,1.92-1.36,3.66-2.13,5.44c0.1,1.53-2.55,1.48-2.73-0.06c0.1-1.54-0.24-3.06-0.4-4.57
	c-1.54-3.5-3.36-2.23-5.44,3.81c-0.38,1.15-1.11,2.81-1.2,3.99l-1.9,4.22c-2.83,2.16-5.28,4.92-7.36,8.28
	c-0.51,1.64-1.87,3.07-3,4.37c-2.46,1.77-4.59,2.08-3.81-1.55c-1.26-0.45-0.77-2.3,0.3-2.95c-0.29-0.98-0.65-1.44-1.41-1.03
	l0.08,0.96c-0.78,0.85-1.39,1.84-1.85,2.97c2.34,2.71-3.41,11.13-6.8,10.45c-2.57,3.69-5.15-3.37-1.86-5.05
	c-4.74-11.37-8.29-23.16-10.65-35.35c-0.3,4.55-1.27,19.17-4.84,21.63c-4.72,3.24-5.14-5.78-5.2-8.81
	c-0.62,7.61-3.35,13.67-8.2,18.17l-2.03-1.07c-1.58-0.79-2.98-0.22-4.22,1.72l1.05,2.03c-4.48,7.37-8.98,14.72-13.48,22.05
	c-0.16,2.15-1,3.43-2.54,3.82l-0.98,1.92c0.77,0.26,0.72,0.53-0.08,0.8c-0.94,2.41-1.85,4.72-2.73,6.96
	c-1.26,23.59-1.93,47.39-2,71.43l-1.92,1.47c-1.92-0.76-3.3-2.55-4.12-5.37l-3.16-4.06c-24.28-18.4-34.98-50.76-43.58-79.45
	c-3.04-2.33-2.81-6.13-2.57-9.69l-1.16-3.22l2.9-13.03c0,0-0.89,0.19-2.66,0.58l-1.92-2.94c1.19-16.32,0.6-32.5-1.77-48.54
	c-2.85,27.7-10.8,58.31-35.16,74.84l-3.39-0.18l-2.84-1.61c-3.6-7.45-8.65-14.13-14.91-19.56l-0.81-3.16
	c-1.61-1.5-3.38-2.23-5.3-2.2c-25.32-19.93-63.3-15.89-86.24,5.92c9.92-5.54,20.23-9.58,30.94-12.15l2.03,0.78
	c45.12-15.33,77.77,30.95,74.82,72.84l-1.99,3.23l-4.18,0.7c-31.93-9.59-64.79-1.19-94.91,10.54
	c-17.82,7.46-35.88,14.19-54.19,20.18c-10.79,2.96-25.43,4.87-32.67-5.3c-1.54,1.71-0.96,4.22,1.75,7.54
	c15.36,18.31,26.67,12.36,43.89,0.84c0.79-0.53,1.59-0.47,2.43,0.09c0.88-1.49,2.37-1.45,4.47,0.13c4.44-3.36,9.27-6.34,14.26-8.89
	c4.74-2.43,16.61-8.23,21.2-8.39c2.82-0.1,3.38,0.61,3.46,3.34c10.24-5.08,20.86-9.94,32.01-12.74c10.14-2.55,17.91-2.8,7.73,5.46
	c12.61-5.2,25.53-7.73,38.75-7.6c1.58,1.24,1.86,2.61,1.18,4.43l12.54,1.21l1.46,1.96l1.07-1.92c5.67-0.01,11.34-0.02,17.02-0.03
	l1.35,1.92c3.49-2.41,12.5-1.2,15.85,0.86c5.3,3.27-0.6,5.56-4.65,5.02c0,0,9.04,1.68,27.12,5.04l2.62,2.57
	c0.52-0.57,1.31-1.41,1.85-1.2c1.66,0.66,14.74,7.01,14.96,7.82c0.81,2.96-0.62,4.18-3.37,4.25c14.34,7.6,21.51,11.4,21.51,11.4
	c3.35,1.43,5.48,3.59,6.37,6.48c3,0.82,5.83,2.84,8.48,6.05l7.07,4.57c-3.53-12.8-6.08-27.94-4.95-41.24l1.98-3.16
	c-3.18-1.2-1.27-8.64,1.95-8.57l1.8,2.47c8.31,38.82,12.46,58.22,12.46,58.22c3.09,2.86,7.21,3.58,12.37,2.16
	c5.93,3.08-3.63,11.74-8.21,9.45l-3.43,1.92c-6.49,0.42-12.99,0.46-19.49,0.11c-25.56-3.03-50.89-2.85-75.99,0.55l13.12,3.11
	c3.68,4.2-0.96,4.96-5.24,5.57c-9.07,0.99-18.13,1.53-27.19,1.64c14.27,3.37,8.87,6.26-3.72,8.71c-14.15,2.02-28.37,2.73-42.67,2.11
	l21.7,6.93c0.95,0.83,2.56,2.44,2.6,3.27c0.12,2.45-17.22,2.5-20.61,2.49c-17.87-0.05-35.51-3.23-52.33-9.19
	c6.76,3.95,13.76,7.5,21,10.65c0.66,0.92,1.69,2.43,1.6,3.26c-0.06,0.5-0.98,0.93-2.12,1.38c-4.95,1.95-22.3,0.14-28.36-0.86
	c-8.89-1.47-17.59-4.05-25.75-7.85l7.9,5.8c0.45,2.29,0.51,3.33-1.86,3.96c-6.42,1.7-25.79-8.37-32.1-11.73l6.25,7
	c0.03,2.23-0.22,3.71-2.63,3.57c-9.29-2.16-18.07-5.9-26.41-10.32c-0.93,1.52-2.16,1.74-3.77,1.8c-7.68,0.25-27.1-19.48-31.63-26.06
	c-2.02,15.11-11.5-3.96-14.77-10.56c-4.18-8.46-9.18-21.74-8.27-31.2c0.25-2.6,0.44-4.43,2.39-6.55l0.25-1.81
	c-0.33-0.98-0.07-2.07,1.02-2.26c2.43-8.02,8.8-14.04,15.68-20.27c-0.23-50.21,17.29-94.35,43.8-135.74
	c2.68-4.19,7.92-11.05,11.44-14.75c11-11.57,21.01-24.62,33.57-34.58c32.46-25.73,69.11-44.96,107.92-59.7
	c-6.12-1.84-10.86-2.24-15.33-4.17c12.12-1.7,22.21-2.94,30.99-5.39c-4.39-6.49,8.22-1.83,9.79-7.02
	c-3.63-1.52-8.03,2.67-12.95-1.02c24.68-5.94,43.02-19.58,54.54-41.78c-5.38,0.65-6.64,4.89-10.86,4.47
	c4.06-8.24,11.2-12.32,16.89-19.14c-2.88-0.39-5.48,1.79-7.96,1.94c2.89-5.08,8.9-5.7,10.27-10.49c-1.86-1.16,0.73-3.47,2.13-4.59
	c4-5.36,2.04-13.26,0.93-19.97c-2.81-17.04,1.82-32.43,4.89-49.21c1.32-7.21,5.25-18.71,14.13-17.59
	c14.68,1.86,24.6,14.4,33.43,24.83c3.5,4.13,7.53,6.49,8.31,13.38l-0.67-12.42C689.38,950.01,705.01,950.67,719.83,947.42z"/>
<path class="st11" d="M657.75,1074.2l2.89,3.3c2.74,1.56,4.03,3.3,3.88,5.22l-0.2,1.83l-1.3,1.39c3.55,1.88,7.16,3.96,9.64,7.23
	c1.64,2.01,4.04,4.34,5.99,6.01c1.88,0.46,2.29,1.13,1.23,2.02c2.52,1.37,2.69,2.69-0.18,3.54l-4.04,0.19
	c-11.68-4.69-23.58-8.74-35.71-12.17c19.36,6.96,36.71,18.55,53.19,30.9c5.42,3,10.24,1.48,15.16-1.59
	c10.98-9.76,23.13-17.18,36.44-22.27c9.16-1.17,15.96-3.83,23.11-9.45c2.65-1.52,6.67-3.64,8.84-0.87c0.85,0.08,0.83,0.34,0.02,0.75
	l1.97,0.44c-1.45,0.49-1.23,1.76,0.66,3.79c1.93,4.39,7.38,11.02,6.22,16.23c-3.21,0.12-5.41-2.37-7.93-2.9
	c-0.94-0.19-1.75-1.59-2.74-1.58c-1.63,0.02-2.08,1.25-1.91,2.1l0.71,3.48c0.51,2.51,1.34,5.04,0.76,7.7
	c-0.36,1.63-3.09,2.66-5.8,2.65c-1.69-0.01-3.01-2.46-6.09-3.98c-0.92,5.88,0.96,11.55-2.54,16.74c-1.87-1.99-1.13-5.09-4.45-6.17
	c-1.59,11.17-4.99,21.21-10.88,30.59c-1.51-7.18,1.19-13.25-3.17-19.69c-3.64,17.16-10.73,27.32-15.56,42.95
	c-1.03-7.24,3.49-13.17-1.55-18.94c-3.65,15.56-10.23,29.21-18.1,42.31c-3.77-7.06-2.59-14.24-6.97-19.83
	c-1.37,3.51-0.01,4.38-1.04,5.39c-4.17-8.1-8.89-15.66-14.5-23.28c-1.48,4.8,2.15,8.04-0.31,13.2l-22.39-35.61
	c-2.54,5.89,1.14,10.43-0.6,15.99c-6.38-12.53-11.14-24.33-19.48-35.32c-2.17,6.1-1.51,11.65-2.68,18.31
	c-6.91-13.32-12.87-26.09-13.67-40.8c-2.16,3.38-2.56,7-4.14,10.74l-1.09-11.29c-4.77,2.69-6.65,7.69-10.56,11.53l3.53-21.88
	c-3.07,2.09-3.05,5.84-5.78,8.15l2.54-15.14c-4.82-1.29-8.25,1.73-13.92,3.76c2.09-5.61,5.19-10.77,8.56-15.82
	c2.31-3.47,7.22-3.12,10.84-1.66c2.83,1.14,5.15,3.57,6.87,7.79c5.63-1.02,11.62-0.91,16.68-2.92c1.81-0.72,3.67-5.99,2.16-7.03
	l-24.69-3.66C631.05,1063.82,646.26,1062.75,657.75,1074.2z"/>
<path class="st11" d="M786.35,1069.29c-0.26,4.08,2.77,6.47,6.37,9.99c-4.62,2.03-8.68-0.84-12.24,1.6
	c-0.65,4.84-6.16,5.33-10.39,4.31l-1.92,2.41c-11.92,4.14-23.75,8.62-35.47,13.43l-11.61,2.7l-2.75-1.66
	c-0.94-0.39-0.78-0.99,0.46-1.79c-0.89-1.66,1.34-3.13,2.94-2.95c-0.05-0.4-0.04-0.77,0.14-1c1.62-2.14,4.96-6.37,6.74-8.1
	c2.46-2.38,7.78-7.29,10.58-4.32l0.76-2.15c1.34-0.1,1.69-0.19,0.71-1.37c8.2-3.25,16.35-6.59,24.45-10.02
	C771.96,1068.45,779.73,1067.74,786.35,1069.29z"/>
<path class="st12" d="M732.2,946.66c-2.65,5.54-5.46,11.3-9.79,17.2c-2.18-5.39,2.13-9.68,3.43-14.83
	c-0.77-0.82-1.83,0.44-2.25,0.73c-1.09,0.75-2.35,0.1-1.82-1.3C725.49,946.39,728.08,946.38,732.2,946.66z"/>
<path class="st8" d="M781.33,1086.7c0.82,2.85-2.09,3.94-4.6,3.54l-0.02-0.75c-2.12-0.69-4.4-1.36-6.86-2.01l0.23-2.3
	c3.57-0.73,7.07-2.03,10.39-4.31C779.8,1082.8,780.87,1084.76,781.33,1086.7z"/>
<path class="st12" d="M779.36,1094.47c-0.74-1.08-2.58-1.94-2.63-4.22c1.97-0.48,3.6-1.79,4.6-3.54c0.22,0.9,1.65,2.52,0.76,3.26
	c-0.99,0.82-2.34,0.42-4.33,1.19C777.98,1092.45,779.45,1093.17,779.36,1094.47z"/>
<path class="st11" d="M612.46,1007.01c-1.11,1.49-1.67,2.97-2.13,4.59l-3.49,1.12C608.31,1010.62,609.81,1007.72,612.46,1007.01z"/>
<path class="st13" d="M932.32,129.1l-2.49,4.49C822.78,247.07,691.98,339.25,548.58,401.01l-155.89,64.73
	C266.05,520.91,152.42,604.89,95.08,732.99C67.09,795.5,66.5,857.02,77.8,923.49c0,0-0.39,1.88-1.16,5.63
	c-0.01,2.56-0.92,2.47-1.78,0.08c-40.07-87.99-34.26-190.43,0.28-280.17c27.27-70.86,71.33-133.28,125.75-186.11
	c78.23-75.95,164.54-119.72,260.28-167.8c93.95-47.17,193-90.35,267.43-166.01L932.32,129.1z"/>
<path class="st14" d="M1054.22,129.11c-0.77,1.58-1.58,3.13-2.51,4.61c-0.93,1.48-1.86,2.93-3.01,4.17
	C909.95,287.25,731.15,408.02,542.27,483.96l-149.97,56.27c-86.15,34.19-168.09,78.88-227.22,150.92
	c-23.47,28.59-38.24,55.8-54.5,88.62c-1.05,2.13-2.28,4.07-4.16,5.58l0.43,2.2l-10.76,22.61c-17.46,49.87-22.23,106.34-1.31,156.49
	c-5.55-6.99-10.63-15.23-13.33-23.76c-0.87-1.37-1.78-2.75-2.73-4.14c-0.36-1.5-0.99-2.92-1.12-4.48c-1.27-1.14-2.18-4.03-0.97-5.16
	c-10.21-72.99-14.72-122.92,15.2-193.46c31.61-74.52,85.5-137.01,150.3-185.46c49.01-36.64,102.55-66.7,159.21-90.19l141.87-58.83
	c143.02-59.31,283.64-160.23,389.1-272.07L1054.22,129.11z"/>
<path class="st8" d="M76.64,929.11c0.24,1.73,0.82,3.42,0.97,5.16c-2.49,0.06-1.96-3.35-2.74-5.08L76.64,929.11z"/>
<path class="st8" d="M81.46,942.9c-2.24,0.04-2.32-2.44-2.73-4.14C81.32,938.55,80.92,941.22,81.46,942.9z"/>
<path class="st0" d="M709.79,1249.99c-0.33,0.78,0.19,2.3-0.3,2.95c1.78,1.84,1.39,3.33-1.16,4.31
	c-9.13,22.2-9.53,47.32-10.36,71.46c-0.58,16.74-3.46,54.72,9.49,67.1c6.24,0.06,12.77-3.11,18.88,1.53
	c3.37,2.56,6.37,7.16,9.03,12.08c0.78,1.44,1.46,4,1.98,5.63c5.07,3.29-0.04,7.19-3.95,9.31c-14.34,3.53-29.1,4.68-44.29,3.47
	c0.8,3.56-0.49,5.67-2.6,8.37c-5.64,7.2-39.01,7.83-45.62,2.75c-1.02-0.79-1.13-1.29-0.61-2.79l-1.44-1.01
	c-3.97,1.46-10.86,3.36-10.14-3.06c15.15-6.85,28.79-15.84,40.94-26.98l3.44-1.34c3.01-1.95,8.13-3.68,9.01-8.01
	c-5.66,1.75-13.73,1.94-15.35-4c-5.48-20.18-8.05-40.4-12.07-60.29c-1.32-1.71-1.8-4.14-1.43-7.28l-4.05-14.92
	c-0.22-8.63,3.31-16.39,10.6-23.28c1.19-2.8,2.76-4.22,4.72-4.26l0.91-1.07c-0.48-2.84,0.7-5.78,3.56-8.82
	c0.53-2.2,1.6-3.43,3.19-3.69c-1.23-3.57,3.21-6.46,5.02-1.61l-1.66,9.35c3.01-2.41,6.59-4,10.74-4.78
	c2.58-3.46,5.19-6.91,7.84-10.34l1.65-0.4c1.27,2.45,2.62,3.46,4.05,3.01c1.95-3.43,5.67-6.39,6.8-10.45
	c0.35-1.36,0.97-2.35,1.85-2.97c0-0.3-0.02-0.69-0.08-0.96C709.65,1247.17,710.58,1247.95,709.79,1249.99z"/>
<path class="st13" d="M997.58,1443.87l-1.44,16.03c-0.41,1.55-0.86,2.99-1.36,4.31c2.56,22.81-3.58,46.6-4.14,70
	c0.82,0.74,1.62-0.25,2.4-2.98c0.25-1.23,0.46-2.47,0.63-3.71c0.75-0.74,0.87-1.18,0.93-2.22l0.05-1.61l1.53-2.31
	c-0.72-19.32,15.59-38.06,27.11-54.61c2.5-1.78,2.84-0.9,1.53,1.8c-0.93,1.38-1.08,3.34-1.6,4.87l-1.73,2.23
	c-9.69,25.44-16.7,51.9-21.35,78.57c0.77,2.92,1.15,4.38,1.15,4.38c-3.14,12.59-5.93,25.25-8.39,38c2.57,8.64-5.56,7.08-10.95,5.11
	c-7.6-5.02-16.25-5.59-25.96-1.73c-4.2,1.03-11.76-0.6-8.48-5.44c-2.48-12.07-10.35-21.5-16.29-31.79
	c-12.49-21.65-30.31-37.72-52.44-51.48c30.7,8.97,53.85,28.78,72.55,54.31c-8.42-34.22-24.58-64.37-47.02-89.07l-1.98-2.03
	c-1.89-3.89-7.94-4.6-7.42-11.33c24.64,17.87,45.79,42.12,59.6,69.2c1.85,2.05,2.42,2.02,1.72-0.08c0.02-1.28-0.14-2.55-0.22-3.83
	c-0.67-0.93-1.19-2.02-1.54-3.25c-5.05-22.76-12.37-45.38-21.25-67c-0.93-3.1,2.35-4.47,4.56-2.09
	c19.35,29.45,30.41,62.75,37.43,98.89c3.14-38.64,10.69-72.73,19.55-108.09l1.39-2.37c-0.07-0.91,0.13-1.8,0.22-2.7
	C997.37,1441.33,997.77,1442,997.58,1443.87z"/>
<path class="st9" d="M1005.14,1555.32l0.62,3.27c-1.94,4.63-10.43,35.35-9.47,37c0.78,1.34,11.74-0.94,13.18-2.83l2.17,0.89
	c2.95,1.68,6.83,0.29,9.89,0.88c1.58-0.99,3.71-1.44,6.39-1.37c2.33-1.79,4.31-2.3,5.94-1.52c12.24,3.24,25.24,2,38.05,8.36
	c-30.69-0.38-58.87,3.32-87.91,9.46c-14.94,3.16-29.55-3.55-44.12-2.91l-64.59,2.83c17.7-7.88,36.03-10.63,50.32-20.56l1.07-0.77
	c4.86,3.64,9.83,7.41,14.93,11.32c-0.61-1.23,0.05-1.81,1.22-2.61l4.71-2.19c1.95,9.5,19.35-2.3,27.94,1.57
	c5.61,2.53,9,6.42,16.26,4.84c1.54-16.29,5.87-32.07,8.43-46.73C1001.7,1555.02,1003.42,1555.3,1005.14,1555.32z"/>
<path class="st13" d="M1072.47,1472.24c2.48-1.64,2.95-1,1.02,1.16c-21.11,22.73-40.65,49.07-49.18,78.98
	c-6.97,11.96-9.59,27.42-12.67,41.26c-5.02,3.39-10.8,5.23-18.12,3.34c4.39-14.28,5.55-29.24,11.62-41.66
	C1020.9,1523.01,1042.64,1492.48,1072.47,1472.24z"/>
<path class="st9" d="M391.12,1611.06l-0.55,1.99l-12.54,1.49c-0.54,0.03-1.09,0.05-1.64,0.04c-3.28-0.67-6.26-1.66-8.97-2.97
	l0.39-2.64c-2-4.25-4.35-9.89-7.84-13.4c-1.13-1.57-1.07-2.28,0.19-2.12c7.36,5.16,11.67,13.44,21.2,17.48
	c-0.02-17.95-8.65-32.18-11.76-49.4C379.47,1577.08,388.46,1593.49,391.12,1611.06z"/>
<path class="st10" d="M886.3,1325.7c0.43-0.19,0.95-1.34,1.53-1.21l1.15-1.86c4.6-0.47,5.93,2.12,3.98,7.75
	c2.81,0.14,2.53,3.37-0.18,3.89c-15.12,3.39-31.89,3.13-46.14-2.53l-0.31-1.36c4.48-0.29,8.76-0.96,12.84-2.01l0.02-1.73l-2.68-2.77
	c-3.84-5.27-0.33-5.89,3.48-2.2c0.75,0.73,3.15,1.08,3.17,2.56l1.84-0.02c-2.01-1.31,3.01-5.69,5.42-2.37
	c-0.09-1.69,0.24-2.54,2.1-2.87c1.68-4.79,5.89,0.54,6.47,3.46C881.95,1323.05,884.39,1324.13,886.3,1325.7z"/>
<path class="st12" d="M399.42,1613.09c-2.43,0.6-3.38,0.19-2.84-1.25c6.94-19.09,14.98-37.54,28.94-53.65
	c-7.48,16.4-15.9,31.21-18.8,48.74c-0.34,2.08-0.26,4.58-1.52,5.53C403.54,1613.68,401.03,1612.34,399.42,1613.09z"/>
<path class="st12" d="M886.3,1325.7c-2.56,0.67-6.28-0.78-8.95-1.85c-0.92-0.37-0.3-3.49-1.03-4.15c-1.06-0.95-2.48-0.84-3.81-0.73
	c-1.37,0.71-1.67-0.17-0.92-2.63c-0.5-7.65-5.42-13.98-6.67-21.43c-1.05-1.52-0.46-1.92,1.05-0.77c5.35,7.4,9.36,15.12,11.72,25.34
	l6.29-33.95C886.92,1299.72,881.91,1313.48,886.3,1325.7z"/>
<path class="st11" d="M367.82,1608.97c2.05,3.72,6.39,2.72,8.58,5.61c-18.47-0.39-36.86,0.8-56.35-0.62
	C336.1,1608.22,352.3,1610.67,367.82,1608.97z"/>
<path class="st11" d="M871.59,1316.35c0.05,0.84,0.97,1.66,0.92,2.63l-0.21,3.87c-0.04,0.82-1.08,2.03-2.31,1.38
	c-0.69-0.36-1.95-2.94-2.68-1.78l-1.92,3.03c-0.67,1.06-2.21,0.18-2.23-1.24l-11.52-33.36l17.77,28.4
	C871.17,1318.47,870.98,1317.1,871.59,1316.35z"/>
<path class="st12" d="M937.79,1456.12c-1.71,0.21-3.18,1.11-4.56,2.09c-5.73-13.95-15.3-25.99-22.78-40.17
	C922.42,1428.66,929.44,1443.41,937.79,1456.12z"/>
<path class="st9" d="M903.57,1294.09c0.68,3.11-16.86,36.53-3.82,26.87c0.73,2.92-3.56,9.85-6.78,9.43
	c-2.01-1.48-0.33-3.64-0.59-4.69c-0.42-1.72-3.41-0.94-4.55-1.21c3.21-10.84,7.93-21.89,14.5-31.05
	C903.38,1291.9,904.05,1292.26,903.57,1294.09z"/>
<path class="st14" d="M916.6,1307.95c-2.75,5.81-11.21,9.62-10.38,15.82l0.14,1.04c0.1,2.69-1.37,2.52-2.06,0l-3,2.81
	c0.52,2.07-0.89,5.75-3,6.48c-1.46-0.27-4.07-0.13-5.51,0.19l0.18-3.89c2.29-3.23,3.87-6.67,6.78-9.43
	c4.92-4.67,8.7-10.63,15.12-13.23C915.81,1306.88,916.47,1306.56,916.6,1307.95z"/>
<path class="st9" d="M859.98,1321.68c-0.73-0.29-1.89-1.71-2.6-1.5c-1.49,0.43-1.21,2.7-0.87,3.69
	c-5.32-5.51-12.54-8.33-19.57-11.27c-2.41-0.23-2.16-1.27,0.25-1.59C845.46,1312.05,854.01,1315.84,859.98,1321.68z"/>
<path class="st11" d="M360.16,1593.45l-0.19,2.12c-5.43-5.47-12.94-9.18-17.73-15.98C350.88,1581.12,354.7,1589.61,360.16,1593.45z"
	/>
<path class="st12" d="M1024.83,1468.56c-0.1-0.87-0.71-1.54-1.53-1.8c3.54-5.08,5.26-12.2,11.92-15.89
	C1031.65,1457.14,1028.55,1463.07,1024.83,1468.56z"/>
<path class="st12" d="M893.74,1462.96l-1.01,1.06c-5.49-3.27-10.44-6.63-14.28-11.4C884.1,1455.4,890.17,1458.21,893.74,1462.96z"/>
<path class="st11" d="M396.57,1611.84c0.77,0.74,1.81,1.04,2.84,1.25c-6.47,2.97-14.25,1.04-21.39,1.45l13.09-3.48
	C392.6,1612.61,394.67,1612.73,396.57,1611.84z"/>
<path class="st9" d="M413.85,1612.65c1.98-4.26,3.78-7.81,8.52-9.77C422.24,1607.11,418.49,1612.5,413.85,1612.65z"/>
<path class="st11" d="M997.58,1443.87c-0.17-0.79-0.54-1.53-1.2-2.01c0.41-4.2,0.71-8.92,3.16-12.63
	C1001.23,1434.76,997.94,1439.88,997.58,1443.87z"/>
<path class="st11" d="M903.57,1294.09l-1.24-0.64c2.76-3.85,3.57-9.37,9.19-11.82C909.66,1286.41,907,1290.85,903.57,1294.09z"/>
<path class="st12" d="M1073.48,1473.4c0.66-0.92-0.46-0.99-1.02-1.16c3.44-2.33,5.94-7.23,11.11-7.81
	C1081.49,1468.78,1076.35,1470.32,1073.48,1473.4z"/>
<path class="st9" d="M846.64,1331.75c-0.98-0.39-2.3-0.15-3.01-1.15c4.68-4.03,12.35,1.06,15.56-3.95
	C868.98,1331.48,847.23,1329.23,846.64,1331.75z"/>
<path class="st12" d="M993.04,1531.23c-0.31,1.54,0.02,2.79-1.09,5.46c-0.4,0.97-3.22,0.72-1.3-2.48
	C991.68,1533.4,992.14,1532.14,993.04,1531.23z"/>
<path class="st11" d="M956.24,1532.29c2.02,2.03,1.8,5.17,0.33,7.55c-0.8-2.87-0.96-5.35-2.05-7.47L956.24,1532.29z"/>
<path class="st11" d="M865.97,1294.16l-1.05,0.77c-0.85-0.15-3.69-4.14-2.21-4.34C864.78,1290.3,865.94,1294.12,865.97,1294.16z"/>
<path class="st11" d="M916.6,1307.95l-1.74-0.22c0.47-1.55,3.87-3.11,4.27-2.68c1,1.08-0.19,1.89-0.74,2.11
	C917.88,1307.36,916.75,1307.97,916.6,1307.95z"/>
<path class="st12" d="M996.14,1459.9c-0.07,0.74,0.61,2.24,0.22,3.34c-0.19,0.53-0.55,1.45-1.58,0.97l-0.28-2.51
	C994.43,1460.98,994.79,1459.41,996.14,1459.9z"/>
<path class="st15" d="M1159.83,129.08c-95.85,108.96-214.42,203.79-338.77,279.58c-103.73,63.23-214.67,109.17-329.77,145.12
	c-87.46,27.31-184.17,55.51-259.91,105.82c-2.8,0.03-4.31,1.31-4.53,3.87l-2.11,0.9c-47.67,28.39-88.97,72.03-115.26,120.91
	c-1.65,2.1-2.67,2.13-3.07,0.09c30.15-74.22,85.67-137.33,153.54-180.67c45.74-29.21,94.6-52.52,145.47-71.54l126.59-47.34
	c189.68-70.94,385.94-208.37,522.21-356.69L1159.83,129.08z"/>
<path class="st14" d="M992.74,463.64c-1.02,1.27-1.5,4.27-3.42,5.34c-21.29,11.87-40.92,24.96-61.46,38.52
	c-91.19,60.2-196.95,100.12-301.1,130.04c-1.87,0.23-3.76,0.41-5.67,0.57c-1.13,1.32-2.36,2.41-3.67,3.27l-93.41,20.87
	c-103.62,23.15-201.96,69.94-275.73,147.37c-40.36,42.37-72.28,108.4-58.07,166.57c0.91,3.72,0.98,7.57,1.13,11.39
	c0.39,1.48,0.88,2.9,1.48,4.27c-0.96,15.06,17.79,45.11,17.45,54.39c-31.03-25.56-56.15-61.13-72.89-97.67
	c1.52-0.21,3.11-0.27,4.01,0.89c1.06,1.36,0.29,3.48,3.12,4.79c-14.52-84.79,40.92-161.82,106.45-210.99
	c65.05-48.8,139.4-83.53,217.86-105.36c41.98-11.68,84.25-20.87,126.98-29.68C742.45,578,860.68,530.93,992.74,463.64z"/>
<path class="st6" d="M109.49,785.26l-13.4,24.9c2.98-8.52,7.08-16.79,10.33-24.81L109.49,785.26z"/>
<path class="st1" d="M231.38,659.59c-0.22,1.53-0.68,3.23-1.67,4.59c-1.11,1.52-3.33,0.62-4.97,0.17c0.41-1.87,0.33-4.17,2.31-5.55
	C228.22,658,230.35,657.85,231.38,659.59z"/>
<path class="st14" d="M135.53,944.74c-0.88-1.62-2.3-2.96-1.95-5.07C135.67,939.74,136.76,943.28,135.53,944.74z"/>
<path class="st13" d="M1033.86,1591.64c-3.73,3.25-8.09,5.27-12.34,2.89c6.03-14.26,15.9-27.81,28.54-36.64
	c-7.04,11.13-17.09,18.16-19.02,31.52l7.81-5.28C1036.9,1586.45,1035.9,1589.86,1033.86,1591.64z"/>
<path class="st13" d="M942.82,1596.75c4.68,12.88-11.33-3.04-17.21-7.93c-8.1-6.74-17.08-8.99-27.35-13.15
	C915.42,1577,931.55,1583.98,942.82,1596.75z"/>
<path class="st6" d="M192.82,991.85c-1.01,0.59-1.52-0.36-1.7-0.9c-0.38-1.14,0.25-2.57,0.22-3.37c1.33-0.48,1.68,1.08,1.64,1.79
	L192.82,991.85z"/>
<path class="st11" d="M626.77,637.54c-0.97,1.92-1.79,4.61-3.65,5.32c-2.23,0.86-4.6,0.42-5.7-1.48c-0.13-2.5,1.26-4.56,3.59-5.28
	C623.13,635.45,625.35,635.85,626.77,637.54z"/>
<path class="st11" d="M321.28,1363.29c-2.66,18.9,6.31,37.05,17.49,53.38c3.06-5.63-1.63-9.75,0.64-15.43
	c-0.7,11.17,39.94,45.82,36.37,30.86c8.76,6.36,19.02,9.81,29.59,12.59c-3.09-5.88-8.63-7.41-9.73-13.74
	c12.25,6.68,23.56,13.51,37.87,14.64c-4.59-5.47-11.95-6.35-14.1-13.6c19.03,10.82,40.58,14.59,62.29,12.32
	c-11.18-6.29-22.97-8.66-30.43-19.02c25.85,11.65,53.58,15.01,80.83,11.86c-11.98-4.46-23.15-6.06-33.21-12.2
	c21.78,1.1,42.54,1.65,63.9-4.06c-6.26-2.48-12.31-2.49-17.61-5.44c14.37-2.27,28.24,0.54,43-3.81l-23.31-5.53
	c45.22-9.89,67.53-0.18,108.2-2.35c-11.18,13.08-26.4,21.8-43.11,29.19c0.52,5.27,13.72-3.84,10.32,3.2l-1.19,2.88
	c-8.63,4.96-17.44,9.86-27.14,12.38c12.22,1.68,0.65,6.69-6.75,9.22c-11.29,3.85-23.15,5.67-34.96,6.74
	c5.23,3.38,0.74,5.39-4.14,6.17c-19.89,1.93-39.7,2.9-59.44,2.92c4.61,1.15,5.74,4.63,0.12,5.85c-26.25,1.6-52.6-0.19-78.47-4.72
	c7.72,6.02-0.08,6.06-6.66,5.25c-9.97-2-19.7-4.85-29.17-8.56c2.03,1.71,2.36,4.69-0.59,5.3c-5.71,1.17-23.74-10.41-29.03-14.12
	c0.6,2.55-0.29,4.33-3.2,3.82c-9.08-1.57-25.07-19.75-30.8-27.32c-1.44,14.06-9.42-2.16-11.46-7.75l1.09-2.08
	c-0.6-1.18-1.5-2.12-2.68-2.78c-4.74-17.49-6.19-35.41-3.14-53.36C313.56,1370.91,317.32,1365.98,321.28,1363.29z"/>
<path class="st9" d="M66.4,1304.75c1.58-0.5,2.14,0.15,2.72,1.43c-0.4-1.76-0.15-2.76,1.79-3.39c1.38,0.01,2.76-0.29,3.89-1.11
	l1.41-0.14c1.8,2.68,2.75,6.2,2.84,10.55c2.51-0.52,4.29,0.09,5.34,1.82c0.52-0.64,1.08-1.22,1.75-1.57
	c1.1-0.58,12.15,0.03,14.7,0.24c-0.22-2.28,1.01-9.83,4.62-8.87l4.09-0.37c1.77-2.14,3.59-3.24,5.45-3.3
	c11.17,0.72,21.87,2.66,33.06,6.07c38.11,11.61,60.28,7.46,95.87,16.05l-223.79-1.74C35.66,1313.89,51.02,1307.43,66.4,1304.75z"/>
<path class="st13" d="M105.46,1303.7c-1.96,2.85-2.31,6.74-3.79,10.35c-8.24,0.29-16.11,0.51-24.14-0.35
	c-1.49-4.42-0.48-8.59-2.72-12.02c-0.2-0.44,0.06-1.22-0.03-1.72c-0.6-0.36-1.09-1.14-1.46-2.34c0.28-2.83-1.29-5.38-1.32-8.18
	c-0.67-0.56-1.24-1.33-1.72-2.3c-1.31-8.38-9.25-13.04-13.51-21.81c12.06,6.35,18.44,18.84,24.22,32.09
	c2.69-7.98-0.78-15.42,0.95-23.75c1.49,3.82,2.51,7.74,2.71,11.61c1.47,2.78,2.2,4.18,2.2,4.18c1.56-4.04,3.98-8.34,6.5-11.64
	c5.01-13.27,7.77-27.88,17.7-39.48c-8.3,19.69-15.29,38.97-11.64,61.23c6.01-15.27,13.7-29.57,27.72-38.67
	C116.51,1275.08,106.64,1287.11,105.46,1303.7z"/>
<path class="st10" d="M93.34,1277.81c1.14,3.81-2.43,6.85-3.75,9.71c-3.91,8.47,0.7,18.13-5.41,26.4
	c1.58-10.18,0.94-19.33,0.46-28.66c4.27-12.23-1.35-26.76,0.14-41.87C88.68,1254.35,89.95,1266.48,93.34,1277.81z"/>
<path class="st13" d="M70.91,1302.79c-0.71,3.52,2.64,5.62,1.18,8.69c-1.96-0.83-5.46-4.58-5.69-6.73
	c-0.9-8.42-6.73-13.63-11.81-20.1C63.08,1288.17,66.16,1296.22,70.91,1302.79z"/>
<path class="st10" d="M115,1300.02c-0.59,1.89-3.86,3.16-5.45,3.3c3.37-5.82,6.92-12.14,13.22-16.17
	C120.69,1292.56,116.47,1295.31,115,1300.02z"/>
<path class="st11" d="M299.71,1377.67c-0.84,1.46-2.84,0.63-4.2,0.76c-0.58-1.29,0.6-1.73,1.62-1.94
	C298.14,1376.27,298.93,1377.7,299.71,1377.67z"/>
<path class="st13" d="M318.52,1432.14l7.5,14.69c1.03-3.36,0.56-6.15,2.43-9.47c8.05,13,19.07,23.98,33.37,30.89l-2.78-7.79
	c10.49,7.25,21.03,15.2,34.2,17.49l-7.41-8.1c14.78,4.34,28.33,12.1,45.04,11.58l-13.21-8.17c29.65,6.81,61.27,9.05,92.29,6.94
	c-4.59-3.51-9.82-0.99-14.17-5.36l42.75-1.16c11.31-0.31,22.14,0.2,33.37-3.8c-5.71-2.05-10.8-1.12-16.21-3.81
	c20.94-0.43,41.83-2.91,60.93-12.14c-7.05-2.11-13.14,2.51-19.36-2.71c16.93,0.31,29.46-7.36,43.04-15.07
	c3.98,5.35,55.22,8.77,46.01-10.68c7.72,0.22,55.62,3.77,51.06-10.43c3.04-0.09,5.67,2.89,6.38,5.54
	c3.36,12.49-38.17,11.45-44.57,13.33c-1.7,20.28-52.39,13.57-68.55,16.5l26.31,10.46c-65.41,21.44-132.7,29.44-200.87,29.27
	c-40.64-0.1-80.3-1.72-119.52-11.5c-9.87-2.46-40.15-11.19-41.85-21.96C292.62,1443.48,308.46,1437.4,318.52,1432.14z"/>
<path class="st9" d="M906.35,1324.8l29.14,9.43c-13.36-0.56-25.62,2.01-37.2-0.14c-0.07-2.38,0.61-5.48,3-6.48l3-2.81L906.35,1324.8
	z"/>
<path class="st14" d="M1122.26,1289.63c5.3,1.63,5.54,7.53,8.89,11.91c4-5.59,1.52-13.04,8.38-17.27l-6.36,23.5
	C1127.37,1302.68,1126.01,1295.91,1122.26,1289.63z"/>
<path class="st10" d="M1142.55,1304.36c0.52-4.35,3.74-7.69,7.34-10.31C1149.15,1298.53,1146.31,1301.73,1142.55,1304.36z"/>
<path class="st11" d="M749.61,1213.41c0.04,1.66-1.31,4.54-2.73,6.07c-1.03,1.1-3.89-0.24-5.42,1.6c1.88-4.71,0.8-9.77,2.73-15.63
	c3.67,3.67,0.23,8.01,2.29,11.91C748.34,1216,747.57,1213.08,749.61,1213.41z"/>
<path class="st12" d="M753.56,1199.07c-0.73,1.08-1,2.38-0.86,3.68l-1.97,0.21c0.97-6.28-2.19-12.65,0.63-19.89
	C754.25,1188.04,751.61,1193.93,753.56,1199.07z"/>
<path class="st11" d="M725.57,1237.62c-0.47,6.37-4.82,8.65-9.26,12.5c2.03-3.1,1.65-7.07,4.29-9.43
	C724.27,1243.93,723.12,1238.16,725.57,1237.62z"/>
<path class="st11" d="M732.21,1229.82c-1.36-1.09-2.7-3.08-3.01-0.56c-0.23,1.84-0.79,3.38-2.43,4.37c0.85-2.58,1.7-5.17,1.89-8.55
	C731.59,1225.23,731.99,1227.76,732.21,1229.82z"/>
<path class="st11" d="M713.31,1254.49c-1.35,1.54-2.55,3.04-4.97,2.76c0.55-1.34-0.03-3.12,1.16-4.31
	C709.92,1254.6,711.83,1254.78,713.31,1254.49z"/>
<path class="st11" d="M172.65,1439.91c2.11-4.4,9.34-1.09,12.19-5.46l-15.06-4.92c11.5-0.01,22.98,0.43,35.5,2.77L172.65,1439.91z"
	/>
<path class="st11" d="M133.59,1429.56c-4.11,3.86-12.16,1.52-17.62,0.89C121.44,1428.37,127.69,1429.57,133.59,1429.56z"/>
<path class="st11" d="M104.85,1430.66c-2.29,3.36-8.05,1.26-11.99,1.35C95.26,1428.85,100.89,1430.54,104.85,1430.66z"/>
<path class="st11" d="M14.56,1437.26c-1.24,3.72-6.68,1.21-9.99,1.5C6.14,1435.16,11.24,1437.93,14.56,1437.26z"/>
<path class="st11" d="M63.51,1433.4c-0.91,3.37-6.47,2.04-8.98,0.9C57.2,1432.5,60.39,1433.42,63.51,1433.4z"/>
<path class="st11" d="M75.05,1432.46c-0.35,3.08-5.26,2.21-7.08,0.77C70.09,1431.58,72.61,1432.62,75.05,1432.46z"/>
<path class="st11" d="M48.19,1434.41c-0.36,3.15-4.78,1.37-7.17,1.44C41.73,1432.77,45.78,1434.68,48.19,1434.41z"/>
<path class="st11" d="M26.09,1436.31c0.62,1.31-0.9,1.87-1.65,1.85c-1.37-0.04-3.08,0.13-3.52-1.09
	C22.82,1436.22,23.98,1436.37,26.09,1436.31z"/>
<path class="st11" d="M539.24,1318.08c3.09,1.91,3.03,12.48-0.81,13.5c-5.98,0.01-11.5-1.95-18.28-0.97
	c0.97-2.64,4.25-3.7,2.41-5.04c-15.73-0.27-29.6,5.19-44.37,10.3c1.41-5.5,7.36-5.48,9.98-10.47
	c-18.52,3.66-35.09,10.58-50.97,19.87c0.2-4.47,4.92-4.17,6.37-8.41c-13.64,3.75-25.61,9.42-36.7,17.46
	c-1.67,1.21-4.3-1.41-5.51-1.66c-0.44-0.89-0.97-1.06-1.74-0.58c-12.95,7.95-29.14,15.58-41.92,2.86c-2.37-2.35-6.93-8.1-4.41-10.75
	c8.42,5.38,17.53,7.23,27.74,4.64C427.77,1336.98,480.89,1298.61,539.24,1318.08z"/>
<path class="st11" d="M585.78,1250.81l0.56,3.24c-5.43,13.38-8.74,27.4-9.93,42.07c-0.5,6.89-8.6,25.54-14.46,28.11
	c-1.97,0.86-2.51,0.66-4.18-0.47c-1.81-1.22-14.1-35.53-15.83-40.6l1.38-1.75c-0.86-2.82-0.78-5.29,0.23-7.41
	c27.47-15.75,37.01-55.98,36.84-87.08C588.79,1208.49,585.61,1229.79,585.78,1250.81z"/>
<path class="st13" d="M518.38,1249.85c0.36-0.43,0.72-0.76,1.05-0.74c1.98,0.13,24.43,29.02,24.45,31c0.01,0.42-0.25,0.85-0.58,1.28
	l16.48,42.26c22.64-21.68,10.1-41.46,25.99-72.84c1.11-2.18,3.58-4.47,5.79-6.34c-1.66,8.2-3.07,15.11-4.87,22
	c0.6,2.86,0.34,5.52-0.77,7.99l2.92,0.23c2.1,4.39,5.12,22.59,3.59,26.71c-0.28,0.76-0.68,1.48-1.12,2.18l-0.66,3.06
	c-9.44,7.89-18.88,15.78-28.31,23.66l-4.48,1.24l-19.44,0.03c1.27-4.49,0.66-8.99,0.81-13.5c0.51-15.12-1.54-30.91-8.22-44.78
	c-12.13-25.18-37.98-38.18-64.61-31.29c0.4-5.21,9.82-6.49,14.48-6.72c12.93-0.65,26.15,5.23,36.93,11.9L518.38,1249.85z"/>
<path class="st11" d="M640.13,1365.05c2.98,0.48,2.85,8,0.01,8.74c-11.57-7.7-22.63-14.98-36.78-18.36l11.75-1.93l-16.3-8.46
	l-2.17-1.37c-1.03-6.3-2.07-12.6-3.1-18.9l1.67-1.69c0.11-0.92-0.14-1.69-0.75-2.32l-1.8-1.37c-0.45-4.4-1.41-8.74-2.85-12.99
	l1.52-2.82c-0.65-8.98-1.53-18.17-3.11-28.14c-4.05,1.99-3.54,6.25-5.02,10.18c-2.36-6.82,1.89-12.94,3.51-19.14
	c9.68,25.33,17.47,53.03,34.12,75.32C626.7,1349.68,637.65,1353.15,640.13,1365.05z"/>
<path class="st11" d="M699.8,1263.34l-1.33,2.34c-0.55,0.98-2.3,0.88-2.44-0.21c-0.16-1.24,0.7-2.74-0.41-3.77
	c-3.66,3.01-5.99,11.7-11.16,12.2c-5.52,0.14-6.87,2.73-12.09,7.91l3.12-16.73c-1.55,0.92-1.94,2.64-3.34,3.03
	c-2.87,2.74-5.78-4.19-6.83-6.8c-3.39-0.04-1.86-6.47,0.23-8.28c0.17-1.85,0.88-1.92,1.45-0.18c7.8-3.73,6.48-15.13,10.39-23.73
	c3.5,4.33,0.61,9.86,3.23,14.97c5.8-9.23,3.36-19.47,6.08-29.48c5.63,15.84,6.08,30.67,13.97,44.41c-2.29,1.18-2.92,1.38-2.93,2.13
	C697.73,1262.66,698.27,1264.11,699.8,1263.34z"/>
<path class="st0" d="M591.32,1303.58c0.39,5.39,3.96,11.33,3.14,17.19c0.98,0.31,0.93,1.37,0.75,2.32l3.6,21.95
	c-14.27-3.23-28.22-6.91-43.35-5.97c6.21-4.84,12.77-2.79,19.79-4.13c-5.62-1.94-11.57-3.41-17.39-3.4L591.32,1303.58z"/>
<path class="st13" d="M665.33,1261.32c2.42,2.81,1.18,12.13,0.36,16.12c-0.24,1.17-0.52,2.42-1.41,3.24
	c0.57,0.21,0.63,0.55,0.22,1.02c-3.98,9.48-15.92,15.93-13.28,27.93c1.55,7.07,5.75,14.03,3.45,21.81
	c-0.84,2.83-1.88,5.38-1.95,8.57c-1.26,5.69-9.95,8.87-10.35,1.08c-0.81-15.73,0.53-33.48,2.74-48.94
	c-0.73-1.94,0.61-4.92,1.68-6.96c-0.04-0.24,0-0.56,0.08-0.8l0.98-1.92c-0.63-8.06,11.21-18.09,14.97-27.9
	c0.94-1.87,1.86-2.39,2.76-1.54L665.33,1261.32z"/>
<path class="st8" d="M652.72,1340.02c-0.37,15.95,0.2,31.28,6.18,47.98c-7.72-3.11-14.35-8.13-18.76-14.21l-0.01-8.74
	c-0.01-11.88,1.42-62.91,3.92-72.89c0.31-0.84,0.66-0.82,1.06,0c-1.78,16.62-0.98,33.82-1.02,51.25
	C649.45,1345.18,649.33,1340.38,652.72,1340.02z"/>
<path class="st11" d="M524.97,1249.66c-1.62,0.91-3.82,0.98-6.59,0.2c-14.98-10.1-37.76-18.27-51.98-7.85
	c-14.05,3.64-26.59,10.54-40.86,17.44C448.63,1228.46,498.5,1223.22,524.97,1249.66z"/>
<path class="st0" d="M720.99,1096.27c0.9-0.3,1.1,0.08,0.73,1.05c-1.07,0.84-1.62,2.29-2.94,2.95c-1.05,1.47-2.5,2.57-4.36,3.31
	c-10.32-0.6-20.57-0.33-30.74,0.81c-2.07-0.38-3.68-0.75-3.79-3.18c-0.42-0.49-1.03-1.38-1.23-2.02c5.63,0.13,17.18,1.77,17.66-5.93
	c-1.86-4.27-11.46-5.25-10.66-11.19c0.79-5.86,6.46-8,11.06-8.46c4.85-0.48,11.24,0.67,13.79,4.82c1.9,3.1,0.41,6.9-1.44,9.11
	c-1.99,2.38-5.56,2.65-9.37,5.24C702.44,1100.88,714.29,1099.99,720.99,1096.27z"/>
<path class="st11" d="M743.82,1031.8c-1.2-0.63-2.1-1.81-2.72-3.52c-10.76-3.93-18.88,4.6-19.26,15.2c-0.37,0.89,0,2.03-0.35,3.16
	c-0.22,0.72-0.83,0.75-2.69,0.61c-1.99-5.81-4.41-44.53,7.31-38.85c-5.53,19.64,24.83,9.39,43.08,25.13
	C760.58,1036.29,752.09,1032.6,743.82,1031.8z"/>
<path class="st11" d="M677.08,1042.5l-2.1-0.88c-2.38-11.73-12.64-19.11-23.38-11.66l-2.77,0.29c-7.42,2.9-15.98,2.44-24.68,6.64
	c15.55-18.84,48.55-17.7,43.54-16.26c3.28-0.95,0.33-6.4-1.57-8.84c2.95-0.03,4.4,1.82,6.49,1.44c2.86-0.51-0.44-4.1,3.11-6
	C679.81,1018.54,681.63,1032.17,677.08,1042.5z"/>
<path class="st11" d="M759.15,985.82c1.18-1.27,2.84-1.58,4.98-0.93c-0.27-9.42,1.27-18.68,4.62-27.78
	c0.91-4.92,1.65-21.36-6.54-17.04l-1.81-1.21c-4.86-1.26-0.24-5.31,1.68-6.52c2.92-1.82,6.99-4.02,9.81-1.92
	c7.1,27.42,2.84,36.14-3.09,64.1C764.47,992.38,760.74,989.72,759.15,985.82z"/>
<path class="st0" d="M677.08,1042.5c0.26,1.15-0.42,2.52-0.31,3.69c-0.01,1.51-1.49,1.58-1.8,0c-0.92-10.77-13.44,0.66-20.09-12.4
	c-1.27-2.49-3.54-3.75-6.05-3.54c3.81-4.99,11.98-6.77,18.48-3.49C672.9,1029.58,675.65,1036.28,677.08,1042.5z"/>
<path class="st13" d="M353.29,1344.2c2.19,11.67,16.42,17.9,28.06,14.67c7.79-2.16,14.13-5.33,20.38-10.21
	c0.73,1.49,0.38,3.47-0.37,4.02c-5.28,3.88-10.1,8.53-16.57,10.95C358.81,1373.35,344.65,1338.68,353.29,1344.2z"/>
<path class="st11" d="M627.62,934.94c2.84,0.07,3.07,4.28,0.44,5.04l2.12,2.78c-0.3,12.75,0.29,25.4,1.78,37.96
	c-0.28,3.19-1.24,9.92-5.23,8.97C623.63,974.3,618.14,948.67,627.62,934.94z"/>
<path class="st0" d="M743.82,1031.8c-7.9,16.41-17.89,1.81-21.98,11.68c-3.64-3.74,0.96-11.25,3.98-14.12
	c4.34-4.13,10.91-4.95,15.89-2.9C743.53,1027.2,744.49,1030.42,743.82,1031.8z"/>
<path class="st9" d="M524.97,1249.66c8.07,6.36,14.51,14.89,18.56,24.33c1.13,2.63,2.63,5.58-0.23,7.41l-24.92-31.54
	c0.3-1.44,1.78-2,3.13-1.58C522.51,1248.59,524.05,1248.92,524.97,1249.66z"/>
<path class="st11" d="M756.6,957.32c3.31,1.54,1.86,10.74-0.55,13.14l-9.01,6.82c8.79-3.5,16,0.32,5.62,5.92
	c-4.37-2.63-9.15-1.88-13.85-5.83C746.3,970.98,748.18,960.81,756.6,957.32z"/>
<path class="st12" d="M738.98,1079.88c1.81,1.1,1.72,2.66,0.19,4.01c-7.34,2-11.57,8.77-17.46,13.42c-0.21-0.37-0.45-0.72-0.73-1.05
	c11.37-12.89,8.29-27.81,33.65-28.34c-8.3,3.81-16.07,6.52-22.83,12.95C734.44,1080.58,737.4,1080.59,738.98,1079.88z"/>
<path class="st9" d="M765.1,1070.35c-5.89,5.08-14.76,7.03-23.52,10.26c3.49,1.29,7.09-1.76,11.28,0.38
	c-4.68,2.4-9.32,1.71-13.69,2.91c-0.88-1.22-1.19-2.79-0.19-4.01C747.26,1075.92,756.18,1072.82,765.1,1070.35z"/>
<path class="st9" d="M638.6,937.63c1.76,0.99,1.56,3.48-0.44,3.99c-1.56,2.74-8.19,0.43-10.1-1.63l-0.44-5.04
	c0.87-1.26-0.3-4.1,1.92-4.45C633.02,929.94,636.89,934.96,638.6,937.63z"/>
<path class="st12" d="M664.33,1084.56c4.02,1.35,7.46,4.69,8.34,8.62c-8.41-2.98-14.2-10.17-24.5-10.99
	C654.24,1080.26,659.36,1082.89,664.33,1084.56z"/>
<path class="st12" d="M664.53,1082.72c-3.22-2.34-5.81-4.53-6.77-8.52C660.02,1076.46,671.51,1080.84,664.53,1082.72z"/>
<path class="st12" d="M667.02,1252.87c-0.42,0.2-1.02,0.02-1.45,0.18c-1,0.36-1.85,1.01-2.76,1.54c1.48-3.17,1.59-6.77,3.68-9.9
	C667.5,1247.96,666.55,1250.46,667.02,1252.87z"/>
<path class="st11" d="M753.72,952.49c3.59-2.01,11.06-2.21,7.23,3.55c-1.19,1.78-2.2,1.98-3.52,0.19c7.23-4.06-17.54,1.05-5.56-3.1
	L753.72,952.49z"/>
<path class="st11" d="M709.79,1249.99l-1.41-1.03c-0.12-0.57,0.27-1.97,0.57-2.58c0.28-0.58,1.15-1.52,1.65-0.61
	C710.87,1246.23,711.27,1249.53,709.79,1249.99z"/>
<path class="st11" d="M640.49,942.92c-2.09,1.68-2.65,1.38-2.33-1.31c0.05-1.34,0.22-2.67,0.44-3.99c0.99,0.26,2.51,0.57,2.52,1.81
	C641.14,940.7,640.69,941.83,640.49,942.92z"/>
<path class="st12" d="M646.78,1285.2c0.41,2.46-1.43,4.68-1.68,6.96l-1.06,0C644.65,1289.77,644.22,1286.04,646.78,1285.2z"/>
<path class="st11" d="M647.02,979.21c-0.67,1.14-1.5,2.62-3.11,2.62C639.88,979.07,646.82,974.1,647.02,979.21z"/>
<path class="st11" d="M640.41,983.04c0.51,0.72-0.15,1.45-0.75,1.67c-0.51,0.19-1.01,0.17-1.46,0.14
	C634.29,984.12,638.27,979.43,640.41,983.04z"/>
<path class="st13" d="M759.15,985.82l-3.43-1.08c0.54-0.76-0.33-1.36-0.85-1.49c-0.56-0.14-1.03-0.12-1.45-0.1l-0.75,0.04
	c-0.62-2.57,2.37-2.98,3.84-5.52c-5.01-0.46-8.46,3.12-13.82,1.71c3.44-5.07,8.9-7.55,13.36-11.41l0.56-10.66
	c0.36-0.16,0.5-0.85,0.83-1.09c1.59,0.15,3.4-3.05,2.03-3.6c-2.14-0.54-4.67,1.96-5.74-0.14l5.56-4.66
	c-2.37-1.11-4.58-0.33-6.51,0.55c1.96-4.16,7.59-4.76,7.64-9.51c2.3-1.31,6.48-3.04,8.17,0.46c8.62,17.87-5.32,25.89-2.25,47.38
	C763.26,987.07,761.2,986.46,759.15,985.82z"/>
<path class="st13" d="M638.16,941.61c0.58,0.33,1.83,0.86,2.33,1.31c1.58,1.42,5.76,2.95,6.97,5.17c-3.56,0.39-6.61-1.76-9.05-0.18
	c3.88,2.8,9.16,4.26,9.33,8.7c-2.69-0.09-8.29-3.92-5.4,0.98c0.81,1.37,5.68,4.5-1.7,3.55c3.04,3.19,8.2,3.63,6.12,8.38
	c1.57,3.66,7.55,3.16,10.97,6.76c-4.65-1.98-6.99,2.39-10.7,2.91c-0.59-1.06-1.95-0.37-2.31,0.24c-0.44,0.75-0.7,1.72-0.81,2.38
	c-1.24,0-2.4,0.76-3.5,1.21c-0.56,0.23-1.37,0.03-2,0.64c-0.29,0.29-0.59,0.64-0.2,1.17c-5.14-0.01-7.45,10.29-11.48,4.84
	c2.26-3.19,3.95-6.99,3.09-11.47c-2.47-12.91-0.66-25.73-1.75-38.23C631.21,939.3,635.18,941.13,638.16,941.61z"/>
<path class="st10" d="M770.08,1085.18c2.18,2.61,6.53,0.11,6.63,4.31c-8.72,0.2-14.18,9.24-22.89,10.39
	c-36.39,4.8-44.25,39.28-65.36,23.01c-10.29-7.93-20.74-15.16-32.39-21.1c-9.8-5-20.99-7.1-28.89-15.65
	c17.93,7.39,36.49,10.52,52.53,18.6l2.38-0.81c12.34,6.3,23.61,7.24,34.76-1.89l1.46,0.01
	C735.89,1100.85,753.39,1088.6,770.08,1085.18z"/>
<path class="st1" d="M718.78,1100.26c-0.11,0.61-0.26,1.21-0.46,1.79c-12.24,12.97-24.9,9.59-38.61,2.68l0.18-3.54
	c5.13,3.1,10.94-0.23,17.03-0.15C704.67,1101.16,712.05,1103.61,718.78,1100.26z"/>
<path class="st2" d="M332.28,424.25c3.74-1.99,7.91-0.32,9.48,3.07c1.34,2.91,0.56,7.36-2.84,8.72c-3.24,1.29-7.04,0.75-9.34-2.7
	C327.99,430.95,328.57,426.22,332.28,424.25z"/>
<path class="st1" d="M792.43,151.4c1.79-0.56,3.56,0.67,4.27,1.79c1.21,1.9-0.41,3.57-1.64,4.31c-1.62,0.97-4.39,0.77-4.74-0.92
	C789.85,154.31,790.18,152.1,792.43,151.4z"/>
<path class="st1" d="M901.52,207.36c3.86-1.85,8.64-0.99,9.79,2.6c1.07,3.35,0.82,7.87-3.32,9.86c-2.35,1.13-6.96,0.86-8.95-2.59
	C897.63,214.79,897.95,209.08,901.52,207.36z"/>
<path class="st9" d="M672.16,1268.12c-0.37,4.9-4.54,8.22-6.74,12.52c-0.37,0.37-0.72,0.43-1.13,0.05
	c-1.33-6.22,0.87-13.05,1.05-19.36C669.22,1261.81,669.02,1266.51,672.16,1268.12z"/>
<path class="st1" d="M659.23,1029.87c0.21-1.45,2.89-1.05,4.17-0.57c0.81,0.3,0.36,1.77-0.1,2.96c-0.31,0.8-1.86,1.84-2.91,1.35
	C659.56,1033.24,659,1031.54,659.23,1029.87z"/>
<path class="st1" d="M736.59,1029.32c0.91-0.59,2.17-0.3,2.47,0.47c0.36,0.92,0.38,2.47-0.45,2.98c-0.78,0.48-2.52,0.61-3.02-0.29
	C735.05,1031.5,735.5,1030.03,736.59,1029.32z"/>
<g>
</g>
<g>
</g>
<g>
</g>
<g>
</g>
<g>
</g>
<g>
</g>
<g>
</g>
<g>
</g>
<g>
</g>
<g>
</g>
<g>
</g>
<g>
</g>
<g>
</g>
<g>
</g>
<g>
</g>
</svg>
