<?xml version='1.0' encoding='UTF-8'?>
<svg xmlns="http://www.w3.org/2000/svg" id="Layer_1" viewBox="0 0 1200 1200" xml:space="preserve" width="1200" height="1800">
<style type="text/css">
      .cls-1 {
        fill: #0e2243;
      }

      .cls-2 {
        fill: #0f284a;
      }

      .cls-3 {
        fill: #0e587f;
      }

      .cls-4 {
        fill: #4f5558;
      }

      .cls-5 {
        fill: #6d7a80;
      }

      .cls-6 {
        fill: #61a9bf;
      }

      .cls-7 {
        fill: #6eb5cc;
      }

      .cls-8 {
        fill: #7dbbcd;
      }

      .cls-9 {
        fill: #b39fdf;
      }

      .cls-10 {
        fill: #b5b1a7;
      }

      .cls-11 {
        fill: #70d0bd;
      }

      .cls-12 {
        fill: #96eba2;
      }

      .cls-13 {
        fill: #9de9ca;
      }

      .cls-14 {
        fill: #c4f1e9;
      }

      .cls-15 {
        fill: #d0f8f2;
      }

      .cls-16 {
        fill: #fcfdfd;
      }

    </style>
<path class="cls-7" d="M275.25,700.73l1.76,1.75l-64.78,135.35c43.81,16.76,88.59,30.57,134.33,41.45c0,0,2.47,1.48,7.42,4.45  l1.98,1.5l-30.3,93.51c20.82,9.98,42.34,15.84,64.56,17.58l3.49,2.19l2.08,1.52c-5.12,25.37-10.24,50.76-15.36,76.15l-2.57,0.91  c0.9,0.18,2.23,0.72,2.12,1.28c-7.65,39.67-16.51,81.34-25.65,120.71l-2.59,0.91H249.58l-1.97-1.51  c14.51-44.18,29.02-88.37,43.53-132.57l2.67-0.63l-1.96-1.52l27.5-81.81c-43.95-14.59-85.71-34.74-115.96-70.96  c-14.64-17.64-29.64-35.2-49.7-46.89c-4.93-5.24,4.42-9.06,9.42-10.94c11.15-4.2,25.54-3.37,36.79-0.29  c1.95-4.24,3.93-8.59,5.94-13.03l1.64-0.03c-24.95-8.62-49.16-19.23-72.6-31.83c-20.98-12.92-42.76-23.06-65.34-30.43  c-24.7-3.48-47.35-11.75-67.94-24.8L0,748.83V602.34c3.03-4.98,12.42-3.53,17.86-2.62c6.76,1.12,13.76,3.8,19.74,7.15  c33.52,21.63,70.11,39.08,108.43,51.12c38,20.61,79.93,32.46,122.45,39.3C268.48,697.29,270.73,698.44,275.25,700.73z" />
<path class="cls-1" d="M950.68,1200H351.75l26.11-122.91l4.24-1.62l20.84,3.46l3.6,2.66c3.18-1.62,12.45,7.04,13.65,9.56  c2.98,6.27-2.75,6.57-7.86,6.25c-10.11-2.22-13.34-0.91-9.69,3.92l14.52-0.73c4.74,0.75,4.89,2.24,3.18,6.19  c-11.9,9.18-14.34,13.55-7.32,13.1l8.74-10.47c6.67-4.77,7.55-1.3,7.48,5.61c-3.16,12.99-1.75,16.76,4.21,11.32l-1.46-13.39  c0.52-5.66,2.09-6.1,6.83-3.58c9.79,12.24,13.86,14.36,12.21,6.37l-7.66-6.31c-3.29-3.36-5.48-5.6-0.43-8.33  c16.58,1.29,21.34-0.35,14.28-4.93c-16.72,3.65-20.85,0.99-12.37-7.99l2.76,0.56c4.84-0.59,7.26-0.89,7.26-0.89  c70.98,16.29,142.27,19.24,213.4,4.43c51.26-9.75,102.69-19.67,154.29-29.76c9.29-2.38,18.33-2.78,27.13-1.21  c1-0.7,2.02-1.36,3.11-1.87c1.07-0.5,2.12-0.95,3.19-1.05c10.9-1.02,21.98-0.96,32.92-0.73c14.53,0.31,29.02,1.57,43.48,2.91  c0,0,1.84,1.07,5.52,3.21l14.93,134.54L950.68,1200z" />
<path class="cls-1" d="M124.35,953.78l-0.51,1.72c-3.68,0.83-7.14,2.14-10.38,3.94c-3.29,4.7-8.07,7.81-14.35,9.33  c0,0,0.71,0.71,2.13,2.14c-0.05,6.69,1.5,12.58,4.66,17.66l-0.69,2.63c3.05,1.59,8.89,5.96,7.25,9.57l2.78-0.3  c7.54,4.47,12.27,10.09,14.19,16.85l3.22-2.13c-3.98-5.95-5.79-13.2-5.44-21.72l1.66-2.09c-3.63-0.41-5.96-8.05-3.54-10.52  l-2.64,0.08c-2.13-6.26-5.87-10.66-11.24-13.2c-4.59-6.1,8.22-14.08,12.79-10.3l2.73,1.22c4.45,9.77,11.42,17.9,20.92,24.38  l25.26,19.84c13.39,11.45,27.25,25.78,29.12,44.01c13.3,8.38,35.52,11.82,51.06,13.79l39.21,2.21l1.25,2.42L249.58,1200H0V833.2  l3.75-0.62c17.62,7.72,35.82,13.99,54.59,18.81c50.02,17.25,78.45,43.62,68.78,99.86L124.35,953.78z" />
<path class="cls-16" d="M1040.62,0l-0.56,4.73L1010.66,47c-17.49,27.48-45.93,47.84-75.28,61.92l-4.87-0.03l-2.86,3.18l-75.81,21  c-5.97,1.81-12.73,4.21-16.98,9c-12.5,14.11-24.47,28.8-35.06,44.44l-5.5,4.14c-14.03,0.43-28.13-1.36-42.31-5.4l-139.65-32.56  c-12.01-3.55-34.68-11.48-43.06-20.45c-1.56-1.67-2.37-3.51-3.18-5.65c-0.68,0.62-1.8,1.46-2.33,1.07  c-6.38-4.66-23.88-19.31-28.5-24.95l0.26-2.88c-2.92,1.15-3.23,0.07-0.92-2.01c3.03-3.03,7.55-3.6,13.56-1.72  c21.44,5.75,43.2,10.31,65.27,13.68l76.31,18.52c-6.56-9.8-9.84-14.69-9.84-14.69l-0.14-3.44l-5.65-5.41  c-6.07-10.75-12.69-21.53-21.97-29.82l-83.14-36.87c-6.66-6.3-27.42-27.73-28.66-35.03c-0.17-1-0.17-2.02-0.13-3.05H1040.62z" />
<path class="cls-7" d="M1200,586.15v84.22c-2.34,3.95-5.97,7.31-10.89,10.06l-9.73,9.07c-14.37,18.17-30.21,34.8-47.51,49.88  l-4.41,0.2c-4.8,0.45-9.91-4.41-12.99-8.1l-10.39,6.07c1.99,4.43,4.28,8.97,6.86,13.62l-1.15,3.35l-1.15,4.1  c-12.21,10.05-24.27,20.29-34.28,32.6c5.32,20.36,8.01,41.31,8.07,62.85c5.53,44.64,43.18,62.29,83.86,66.52l3.19,2.69l2.45,3.76  c4.05,43.95-3.64,81.33-33.72,114.82c-7.1,7.91-36.91,36.04-45.51,36.72c-0.9,0.07-1.81-0.01-2.73-0.15  c-1.16-2.14-2.27-4.3-3.22-6.53c-0.94-2.22-1.85-4.44-2.42-6.74c-6.31-25.12-12.75-51.61-13.34-77.33l2.71-2  c11.89,0.55,23.7-0.91,35.45-4.37c10.38-1.35,25.38-1.99,32.57,6.44l2.02-1.63c8.94,5.54,8.11,3.13,3.44-6.02  c-21.19-41.55-50.8-53.05-91.62-64.76l-0.88-2.76l-2.51-1.79c-15.66-76.76-31.12-153.57-46.38-230.43l2.01-1.88l2.48-2.31  c10.71-0.12,19.94-5.57,27.51-12.76c9.95-11.58,20.78-22.01,32.48-31.29c-4.7-11.16,5.14-17.6,13.94-21.77  c22.29-7.6,44.48-15.2,66.56-22.82l4.38-2.2c13.43,0.5,26.93,0.93,40.27-0.97L1200,586.15z" />
<path class="cls-2" d="M416.1,246.19l-0.05,2.58l-75.41,33.18c-3.07,0.89-16.82,11.65-16.41,12.87c0.62,1.84,19.55,9.18,23.44,10.38  c9.47,2.92,19.33,4.38,29.21,4.89l3.98,2.49c7.18-2.1,21.12-1.65,28.17,0.83c5.52,1.94,5.94,2.41,1.28,6.32  c-2.63,2.21-20.13,7.11-24.47,7.73l-3.86-1.41c0.04,3.5-4.47,4.06-5.72,0.98l-2.61,3.19c-17.05,4.91-25.57,7.37-25.57,7.37  l-2.29-1.78l-15.45,4.93c-24.94-0.73-43.5,4.25-62.68,19.93l-3.09-1.04l-1.17,3.17c-1.59,1.36-18.09,8.86-19.26,8.48  c-0.52-0.17-0.96-0.58-1.38-1.07c-0.69,1.46-1.47,3.09-2.92,3.92c-16.58,9.52-62.66,14.55-82.85,15.63l-4.54-1.78  c-0.47,2.46-2.62,3.34-6.46,2.66c-12.64-3.81-32.8,7.45-42.1,15.65c-0.13,0.12,0.89,1.22,2.54,1.87  c35.59,8.95,71.39,16.83,107.4,23.65c4.33,1.38,10.09,6.43,5.28,9.6l-1.06,2.47l-20.7,2.2c-1.14,0.43,0.44,3.32,0.95,4.11  c4.51,6.97,38.96,6.96,47.53,6.94c0.34,0,0.67-0.62,1.01-1.41c7.14-0.33,14.14,0.3,21.01,1.91l0.48,2.65  c13.33,3.58,26.22,8.37,38.69,14.38c1.83-3.08,7.66-1.29,7.27,2.33l4.08-0.9c15.45,7.82,31.37,14.37,47.76,19.63l79.91,11.35  c2.27,2.56,2.19,4.34-0.24,5.34c-18.48,5.7-37.93,5.79-57.05,4.68c3.18,3.69,6.96,7.07,11.64,8.66l91.81,10.8l1.13,2.49  c-5.45,2.01-8.18,3.01-8.18,3.01l-58.43,5.02l-8.59-1.07c-0.13,2.35-1.19,2.32-2.02,0.06c-0.3,0.72-0.76,0.68-1.33,0.03  c-0.54,0.93-1.2,1.91-2.24,2.31c-5.7,2.18-26.43-6.71-31.81-10.68c-35.89-25.36-79.38-49.23-124.36-52.84  c-20.86-1.67-43.01,4.06-56.95,20.46l-3.78,0.96l0.14,3.75c-7.56,10.37-12.54,22.37-12.82,35.31l-2.35,3.11  c-3.18,0.97-6.47,1.94-9.83,1.84c-23.64-0.7-48.84-4.78-72.19-8.85c-28.93-5.05-61.98-11.31-89.85-20.02c-3.2-1-6.06-2.77-8.79-4.68  V408.98l4-2.19c11.22,0.41,22.42,0.77,33.58,0.5c13.78-0.34,24.94-2.4,35.99-11.32l28.38-14.24l0.86-3.11  c6.95-4.55,14.32-8.15,22.12-10.8l2.8,1.79l12.17-4.5c39.39-6.05,78.11-13.69,116.16-22.93l14.42-5.99  c1.39-4.9,4.34-9.48,8.86-13.74c11.94-19.3,26.94-35.23,45.01-47.8c19.38-10.3,37.85-21.77,55.43-34.39l6.87-13.7l-10.71-22.4  l1.4-2.51c4.63-0.88,9.37,0.8,14.21,5.05c7.12,4.51,25.89,18.39,30.57,24.39C424.92,234.65,421.55,247.35,416.1,246.19z" />
<path class="cls-3" d="M293.81,1065.29l-36.01-1.97c-20.25-1.11-38.92-5.62-57.2-15.08c-6.24-43.79-70.24-62.12-76.35-90.81  c1.84-2.22,1.87-3.44,0.1-3.64c3.44-20.94,3.78-45.14-9.12-63.23C87.03,850.97,34.59,852.84,0,833.2v-84.38  c44.82,31.25,56.6,13.77,109.43,42.93c32.36,17.87,64.72,33.67,99.49,47.01c-2.76,5.8-4.5,11.36-8.27,16.08  c-16.63-2.95-33.48-4.47-47.41,6.44c18.46,10.49,31.66,23.87,44.18,39.21c39.15,46.87,68.95,59.84,124.85,80.12L293.81,1065.29z" />
<path class="cls-16" d="M300.08,85.57l3.83-0.25c11.89,6.94,22.37,15.44,31.42,25.49l0.79,5.1c3.65-1.21,8.03,9.8,8.68,12.99  l-1.56,2.31c2.12,2.1,4.31,4.27,5.66,6.97c9.07,18.06,18.09,36.35,26.76,54.61c0.62,1.3,0.92,2.76,1.2,4.25  c0.29,1.51,0.41,3.05,0.48,4.6l12.14,25.39c-4.33,5.52-4.81,12.67-9.84,16.65c-21.33,16.9-47.57,25.76-67.95,43.2  c-16.75,14.34-26.17,34.46-41.22,49.3l-8.14,3.47c-13.61,0.33-27.21,0.66-40.81,1.01l-3.59-1.91l-5.28-0.83  c-6.89-7.02-14.44-10.86-22.65-11.5l-48.65,7.82c-17.64,0.21-35.06-3.09-52.23-9.9c-5.58-0.84-10.63-2.69-15.14-5.55l-6.66-2.06  C46.21,302.5,24.49,289.3,2.17,277.13L0,274.22V165.23l3.1-1.07c9.6,2.94,27.66,9.75,35.8,15.03c7.7,4.99,13.14,11.63,18.89,19  c14.65,18.77,28.27,39.48,41.34,59.42c0.54,0.83,0.83,1.84,1.1,2.88c0.28,1.08,0.4,2.2,0.48,3.33l-1.33,2.21l-39.63-4.4  c24.41,16.1,49.95,29.46,76.61,40.08c18.29,3.02,36.79,4.53,55.49,4.53l16.44,2.41c15.55,5.47,31.01,11.14,46.37,17.01  c3.99,0.07,6.95,1.26,8.88,3.58c1.87-4.42,4.72-8.57,8.57-12.45c12.2-23.72,27.51-39.85,50.76-52.18c11-5.9,14.72-12.69,11.15-20.39  l-10.68-12.32c-12.21-18.45-26.61-34.38-43.19-47.78c-13.42-6.44-27.47-11.37-42.16-14.79l-7.28-5.09l-7.82-0.65  c-35.37-12.29-71.24-22.77-107.63-31.44c-13.54-6.22-26.45-13.6-38.73-22.13l-1.57-3.57c2.98-2.3,6.93-2.54,11.87-0.7  c16.86,5.6,33.65,6.89,50.39,3.89c14.89-4.53,30.02-7.49,45.37-8.9l82.03,26.5c5.3,2.57,29.38-14.46,29.63-16.16  c0.38-2.54-16.92-29.31-20.72-33.44l-0.59-4.17c2.68-1.23,5.71-0.76,9.08,1.42L300.08,85.57z" />
<path class="cls-14" d="M172.27,0l3.77,1.62c20.36,18.29,41.04,36.24,62.05,53.83c7.32,4.1,15.19,7.32,23.6,9.66l0.67,2.91  c1.4-3.4,11.5,1.95,10.61,5.46c10.19,10.89,16.34,23.63,24.43,38.56c-9.8,5.98-21.18,18.62-33.16,17.51l-81.85-26.49  c-19.63,0.22-38.33,9.55-58.03,10.81c-17.7,1.13-33.03-6.4-49.37-7.4c-1.52-0.14-3.04-0.33-4.51-0.69  c-1.45-0.35-2.88-0.72-4.13-1.39C46.38,93.59,26.37,82.54,6.56,71.46C3.99,70.02,1.95,67.8,0,65.62V0H172.27z" />
<path class="cls-4" d="M230.74,164.24c18.05,7.58,40.66,9.02,56.63,22.07c18.58,15.19,30.54,37.36,47.01,54.68  c16.59,17.45-22.24,29.44-38.61,45.5c-13.02,12.78-18.12,32.35-32.19,42.75l-2.4-0.62l-2.66-35.91  c-11.42-6.74-22.25-15.26-32.5-25.55c-27.42,5.73-54.91,10.96-82.47,15.71c-11.67-2.1-22.78-6.67-33.31-13.7l-8.17-2.8l-1.33-2.57  c-18.24-24.88-33.33-52.43-54.61-75.75C34.63,175.47,14.38,172.75,0,165.23v-64.45l5.17-0.05c18.83,7.92,40.18,19.5,58.09,29.44  c13.35,7.4,25.32,16.06,35.45,27.5l48.49,55.15c17.97,5.64,36.22,10.21,54.77,13.71l-1.66-22.05c0.59-1.82,2.03-2.51,3.92-2.53  l92.6,27.28l-3.39-4.37c-17.04-14.68-34.08-29.64-51.1-44.87C236.63,175.55,232.76,170.31,230.74,164.24z" />
<path class="cls-1" d="M1200,817.42V1200h-86.12l-2.14-0.4c-8.25-39.28-16.23-78.7-23.96-118.24l2.02-1.85c-1-0.42-0.9-0.78,0.21-1.06  c25.2-15.48,50.61-37.82,65.63-64.34c15.81-27.9,14.69-60.33,13.87-90.81l-2.43-3.98c-2.57-34.64,6.15-73.4,28.42-100.45  c0.41-0.5,1.15-0.75,1.95-1.01C1198.26,817.61,1199.12,817.49,1200,817.42z" />
<path class="cls-10" d="M1170.7,0h29.3v26.01l-1.77,5.36c-30.06,23.78-61.37,46.04-93.93,66.79c-8.36,5.25-15.77,11.4-22.24,18.45  c-8.64,16.5-17.81,32.64-27.53,48.43c-7.47,3.42-15.66,4.64-24.56,3.66l-3.75,1.93c-12.72-0.57-25.43-0.08-38.11,1.48l-3.71-2.07  l-9.38,3.21c-32.53,5.9-64.69,11.9-96.49,17.99c-3.91,1.82-7.27,2.22-10.09,1.2c-24.58,5.55-47.55,10.48-72.11,0.94l-2.04-2.74  c11.01-17.34,24.36-33.62,38.17-49.43c5.65-6.47,13.55-8.99,21.59-11.21l76.44-21.12l1.86,1.63l-12.99,31.29l191.77-78.43  c5.45-2.46,10.74-5.46,14.82-9.9l40.38-51.71L1170.7,0z" />
<path class="cls-3" d="M1200,817.42c-26.83,28.05-31.52,67.78-30.5,105.87c-47.4-4.62-88.28-24.11-90.15-78.48  c-0.64-18.54-1.82-36.55-7.13-53.94c10.69-15.09,24.73-25.04,37.58-36.35c2.25-2.9,5.06-1.14,3.48,2.33  c1.88-0.36,3.56,0.56,5.02,2.76c3.81,1.39,5.7,3.27,5.68,5.62c2.84-2.53,12.2,1.74,11.85,5.68c2.58,0.1,4.18,2.41,4.81,6.94  c0.9-0.12,1.65-0.14,1.85,0.18c1.32,2.13,2.48,4.59,3.33,6.98c0.22,0.62-6.92-10.39-2.37-11.37c-2.55-1.15-4.04-2.8-4.47-4.96  c-2.16,0.33-2.39,0.01-3.08-1.55c-1.05-2.4-2.87-10.41-1.49-12.47c-4.37,0.75-5.71-8.09-5.89-11.67c-3.37,1.17-3.86-1.64-1.05-3.4  c29.31-19.41,44.65-54.82,72.53-69.21V817.42z" />
<path class="cls-15" d="M180.65,548.51c4.24,1.39,1.22,8.85-2.27,10.13l-0.64,2.7c-11.62,5.03-15.06,17.49-13.91,29.19  c3.02,0.52,4.57,3.29,4.66,8.31c2.57-1.46,4.21,0.94,4.94,7.2c1.66-1.65,2.36-1.02,1.23,1.06l2.86,0.71  c6.86,8.39,15.53,15.45,26,21.16c14.15,14.97,29.72,28.16,46.73,39.55c13.34,6.04,24.74,12.03,32.79,24.49l-0.61,2.99  c3.28,3.99-3.98,6.54-7.17,4.73c-45.34-6.85-89.2-18.41-130.13-40.58c-36.42-11.71-70.66-27.03-102.54-47.59  C29.31,604,15.18,599.1,0,602.34V516.8C59.31,532.17,119.25,545.92,180.65,548.51z" />
<path class="cls-7" d="M559.99,917.43c4.67-1.69,9.85-0.87,15.53,2.45l12.35,6.08c49.46,35.06,107.73,47.45,168.1,40.81l5.69,1.82  l5.36-2.68c22.81-1.86,44.98-7.84,66.76-14.66c27.41-9.48,55.13-17.9,83.16-25.24c3-1.07,4.31,0.07,5.78,2.2l15.02,132.56  c25.98,5.76,51.65,12.82,77.01,21.18c23.36,6.23,48.36,8.01,70.67-2.87l4.36,0.43l24.09,120.49h-163.2l-15.18-136.77  c-29.22-2.88-57.77-4.82-85.8-1.92c-6.68-1.42-13.17-3.83-19.48-7.23l-13.72-4.85c-41.33-10.57-83.44-17.06-126.32-19.47  c-5.53-3.2,0.35-7.85,4.44-10.11c15.05-5.82,31.11-8.75,48.18-8.78c5.29-0.18,26.92-4.48,29.07-8.46  c2.12-3.93-61.32-13.27-67.35-9.16c-49.9,5.27-100.28,10.35-150.67,12.96c-44.12,2.29-85.08-0.13-128.34-5.29l-25.04-0.43  l-5.64-2.05c-0.39-1.43-0.73-2.86-0.89-4.31c-0.16-1.44-0.3-2.85-0.08-4.18c4.77-28.29,12.32-56.36,19.75-83.95l2.4-3.64  c4.78-0.27,7.17-0.4,7.17-0.4c42.14,11.73,86.09,18.32,129.82,13.93L559.99,917.43z" />
<path class="cls-16" d="M1200,310.24v33.98l-6.89,3.02c-45.9,9.72-92.12,17.8-138.68,24.23c-5.24,0.36-9.39,2.18-12.46,5.47  c-1.65,13.55-6.13,17.9-16.72,25.27c-6.44,4.48-23.24,14.62-30.19,17.4l-99.53,22.45c-21.7,18.57-44.79,39.72-61.05,62.71  c1.54,0.99,2.29,1.8,1.31,3.85l5.95,1.8c16.67,8.47,32.89,17.64,48.64,27.5c4.67,3.08,6.38,6.23,5.12,9.45l-2.58,1.17  c-1.97-0.51-15.62-5.9-16.11-6.62c-0.57-0.83-0.47-1.96-0.34-2.98l-5.92-0.94c-8.53-3.14-22.06-9.43-30.06-13.84  c-14.55-8.02-21.43-14.94-19.59-31.95c0.75-6.95,3.18-18.23,9-22.22c-1.44-2.26-1.47-5.26-0.09-8.98c-0.54-4.43,0.2-7.77,2.23-10.02  l1.67-3.49c15.86-11.67,32.02-22.86,48.48-33.56l63.63-22.52l17.49-3.6l2.1-3.3c9.94-4.07,18.48-10.66,26.57-17.6l3.92-0.28  l4.82-6.91c9.79-6.8,18.97-14.39,27.54-22.75c53.01-11.33,106.34-20.62,160.02-27.87C1188.25,309.13,1192.17,309.5,1200,310.24z" />
<path class="cls-14" d="M1170.7,0l-41.56,53.35c-5.47,7.02-13.79,10.94-22.26,14.4l-191.84,78.41l15.47-37.27  C1002,70.53,993.81,63.48,1040.62,0H1170.7z" />
<path class="cls-8" d="M1200,461.51v43.19c-3.53,3.55-8.61,5.28-15.26,5.17c-20.85,0.29-40.29,4.67-58.33,13.13  c-13.69,9.02-27.97,16.89-42.83,23.62c-21.98,5.4-44.6,7.48-67.84,6.23c-18.99,1.09-37.63,4.78-55.92,11.05l-10.5,0.18l-2.05,1.99  c-11.46-0.67-34.04-3.93-43.96-8.92c-3.51-1.77-10.74-5.74-7.81-9.77c-8.93-16-42.92-24.32-59.71-38.75l5.6-2.35  c11.14,0,22.29-0.01,33.45-0.01l1.71,2.34l9.09,0.1l68.17,19.06l91.11-20.84c17.66-11.67,35.83-22.59,54.64-32.32l98.69-15.21  L1200,461.51z" />
<path class="cls-8" d="M74.99,106.46c15.65,8.52,29.17,20.74,47.34,25.45c36.94,9.57,73.74,17.77,108.41,32.33  c15.53,17.87,33.71,33.07,52.45,48.18c7.38,5.95,14.3,11.62,18.6,20.82l-99.27-29.36l2.05,25.76c-19.94-4.88-40.57-8.08-58.65-14.91  C73.41,134.5,100.88,150.87,0,100.78V65.62C25.48,77.82,49.95,92.83,74.99,106.46z" />
<path class="cls-10" d="M439.45,0c7.41,2.44,11.11,3.66,11.11,3.66c28.21,16.36,56.74,32.13,85.82,46.92  c30.35,15.43,59.84,23.02,92.51,30.66c20.05,4.27,36.63,15.35,50.89,28.94c6.32,5.87,10.77,13.96,15.24,21.82l-79.86-19.4  c-20-4.86-39.68-5.68-59.41-12.12c-7.1-2.32-14.23-3.44-21.12-2.65l-6.8-1.28l-20.04-10.43C472.92,72.2,438,59.39,403,47.7  c-10.63-4.39-18.71-11.03-24.79-20.8C368.06,21.27,359.15,10.85,355.08,0H439.45z" />
<path class="cls-14" d="M1200,344.23v58.01c-5.07,2.91-10.77,3.12-16.48,3.01c-34.74-0.57-69.23-1.05-103.46-1.41  c-9.69,2.1-14.53,3.15-14.53,3.15c-9.55,10.54-19.47,20.75-29.75,30.62l-93.1,20.23l-1.87-1.99l-3.38,2.35  c-17.25,4.75-34.34,10.05-51.29,15.92l-8.03,0.61l-1.66,3.4c-12.47,7.96-23.94,17.38-34.42,28.28l-6.23,2.22  c-1.89-1.62-4.23-1.81-3.57-5.54c0.86-4.82,53.17-58.25,62.5-63.19l99.44-22.41l28.91-16.7c28.31-16.35,2.63-27.15,31.99-31.79  C1103.83,361.29,1152.06,354.28,1200,344.23z" />
<path class="cls-2" d="M1200,249.22v61.02c-57.48,5.64-114,18.18-170.79,28.8c-10.49,11.61-22.79,18.52-33.33,27.62l-1.63-2.99  c4.15-10.27,10.02-19.66,17.62-28.18l-31.56,7.54l-1.89-1.96c-0.63,0.76-1.28,1.48-2.04,2.07c-0.75,0.59-1.46,1.14-2.23,1.27  c-7.36,1.28-14.59,2.35-22.05,2.94c-7.66,0.61-28.91,2.22-34.9,0.31c-1.53-0.49-2.73-0.96-2.78-1.53c-0.1-1.11,1.36-3.05,2.28-4.25  c14.36-6.48,21.53-9.73,21.53-9.73c13.23-2.73,25.28-7.67,36.16-14.8c4.81-4.53,10.12-8.29,15.93-11.29l1.67-2.85  c9.35-3.96,18.26-8.86,26.75-14.7c4.72-4.26,45.44-12.4,47.51-11.07c1.44,0.93,1.67,4.18,0.8,5.83c8.73-1.38,17.47-3.29,26.21-5.73  l3.53,1.75l5.73-3.27c32.28-4.32,64.13-10.02,92.62-26.8L1200,249.22z" />
<path class="cls-2" d="M304.69,0l3.77,1.56c4.51,10.14,10.39,19.08,17.63,26.81l70.36,35.39l5.5,5.39c2.8,0.15,5.67,0.37,8.28,1.46  c27.03,11.26,53.37,21.95,81.18,30.35l10.2,4.94c6.48,2.6,10.75,6.43,12.81,11.49l3.31,0.7c15.71,12.4,31.71,24.5,47.99,36.31  l3.74,5.17l2.58-0.1c0.61,0.3,10.31,8.21,10.31,8.9c-0.01,0.95-0.45,1.77-1.02,2.5l-3.53,0.62c-14.74-6.1-28.7-13.49-41.87-22.19  c-5.76-2.27-11.72-3.93-17.86-5l-5.05-3.7l-1.5,1.98c-33.9-11.04-67.84-22.09-101.82-33.15l-5.09-4.12l-1.96,1.52  c-24.76-16.13-49.53-32.28-74.31-48.45l-2.73-4.56c-3.68,1.32-7.96,1.3-12.83-0.05c-15.58,0.37-31.17,1.39-46.75,3.06  c-2.19,0-4.26-0.95-5.84-2.45c-0.77,0.62-1.65,1.3-2.61,1.25c-6.25-0.35-46.9-44.77-53.03-52.72L205.08,0H304.69z" />
<path class="cls-4" d="M1200,504.7v81.45c-16.18,3.02-32.76,2.08-49.22,1.54l-6.56,2.13c-16.91-0.55-33.81-1.11-50.7-1.66l-1.32-2.39  c-5.38-3.22-11.95-4.46-19.72-3.73c0,0-0.7-1.34-2.1-4.01c2.62-4.87,6.47-9.12,11.56-12.74c2.31-2.44,0.09-4.75-2.63-4.13  c-3.86,4.58-7.88,9.04-12.05,13.38c0,0-1.12-0.15-3.35-0.44c-1.83-5.7-3.24-11.65-4.22-17.86c-5.15-0.68-4.98,5.23,0.5,17.73  c-0.31,1.92-1.67,2.81-3.57,3.1l-16.51-3.88c-2.73,4.2,1.91,6.62,13.93,7.25c3.17,3.25,2.55,6.26-1.46,4.45l-3.17,2.19  c-13.86,0.86-27.69,0.63-41.47-0.7c-16.96-8.5-34.99-14.6-53.48-18.78l-5.14-3.53c18.56-4.08,36.42-11.35,56.14-12.99  c24.51-2.04,48.76,1.31,72.49-5.16c21.98-5.99,38.2-22.66,59.71-30.69C1157.28,507.92,1179.68,509.99,1200,504.7z" />
<path class="cls-10" d="M1200,402.24v34.09c-4.69,1.86-7.03,2.79-7.03,2.79l-60.98,3.79c-26.57,1.59-50.13,5.86-70.35,22.82l-3.58-0.33  c-4.9,2.43-9.66,3.39-15.1,3.18c-31.09-1.22-62.22-1.07-93.4,0.46c-7.35,0.26-15.42-8.12-8.74-13.19l94.54-20.48l28.97-30.33  c13.32-5.55,29.81-3.65,44.29-3.35C1139.73,402.34,1169.63,404.05,1200,402.24z" />
<path class="cls-14" d="M1200,108.48c-1.82,1.58-3.68,3.11-5.63,4.5c-1.94,1.38-3.89,2.72-5.98,3.77  c-36.16,18.14-74.33,33.86-111.76,48.26c-9.86,3.79-33.53,9.45-43.36,6.44c-1.41-0.43-2.43-1.6-3.29-2.75  c7.42-0.78,19.19-0.52,24.57-6.96l25.53-46.36c7.5-13.62,102.73-68.14,119.92-89.37V108.48z" />
<path class="cls-14" d="M1200,436.33v25.18l-99.61,15.27c-19.21,10.03-36.64,20.57-54.5,32.25l-92.22,21.03l-77.13-21.45l2.5-3.16  c20.08-2.76,40.51-2.9,61.29-0.41c25.35-1.23,50.12-6.39,74.3-15.49l4.8,0.35l2.15-3.37c10.17-4.9,19.64-10.95,28.42-18.15  l8.03-2.98c11.01-7.83,23.92-17.15,37.72-19.83C1130.59,438.83,1165.34,438.62,1200,436.33z" />
<path class="cls-8" d="M1200,108.48v41.47l-1.17,2.99l-110.44,43.55c-19.03,3.84-38.28,6.45-57.75,7.84l-3.91-1.68l-4.82-0.92  c-15.66-9.27-33.13-14.25-52.4-14.94l-2.59-2.73c1.27-7.7,10.28-12.13,17.49-14.02c14.51-1.03,30.98-3.37,45.56-1.34  c19.56,2.71,35.33-1.65,54.3-9.04C1124,144.17,1162.12,127.15,1200,108.48z" />
<path class="cls-14" d="M540.23,0c8.44,13.08,18.91,25.12,30.17,36.22l83.11,36.84c11.25,9.71,19.61,24.86,26.28,37.12  c-12.39-5.28-21.35-16.44-34.75-21.32c-30.77-11.2-64.06-14.36-94.08-28.58C512.54,42.08,475.89,20.87,439.45,0H540.23z" />
<path class="cls-8" d="M217.93,338.74l-3.65,2.91c-16.61,1.95-32.86,5.39-48.74,10.3c0,0-12.61,5.88-37.82,17.65  c-9.35,1.65-17.51,7.86-25.77,12.12c-15.03,9.13-30.62,15.58-46.76,19.35c-11.23-0.48-22.41-1.59-33.54-3.33l-18.54-0.53L0,394.92  v-33.98l1.56-2.05l60.08,13.83c12.76-6.73,25.01-14.25,36.75-22.59c-8.78-8.65-16.88-17.9-24.3-27.76l-0.11-3.59  c22.92,2.75,45.88,16.56,68.49,12.92l47.22-7.61C200.31,322.38,208.95,333.39,217.93,338.74z" />
<path class="cls-2" d="M1200,149.94v47.31l-1.15,2.94c-16.53,6.22-33.06,12.44-49.59,18.65l-2.11-1.71l-5.58,4.02  c-22.56,2.31-45.16,3.55-67.79,3.73l-1.46-2.29l-3.63,2.46c-11.54,0.33-23.15,0.7-34.45,3.31l-4.18-1.34l-0.32-3.03l7.35-10.66  c-12.65-0.33-25.27-1.1-37.87-2.33l-3.14-2.38c0.05-0.94,0.13-2.12,0.87-2.56c1.1-0.65,23.36-4.94,25.06-4.88l4.71,1.47  c22.24-4.33,46.17-2.14,67.93-10.8L1200,149.94z" />
<path class="cls-14" d="M73.99,318.78c8.76,9.27,16.34,22.17,28.47,31.66c-14.24,10.02-25.79,16.83-40.4,24.48L0,360.94v-86.72  C25.07,287.4,51.4,301.38,73.99,318.78z" />
<path class="cls-12" d="M1200,249.22c-38.97,22-60.25,23.27-103.19,30.08l-1.14-2.31c15.15-18.72,30.32-37.45,45.51-56.2l5.97-3.65  l52.86-19.88V249.22z" />
<path class="cls-5" d="M355.08,0c7.41,9.16,15.16,18.24,23.12,26.89c9.68,12.36,18.05,25.66,25.11,39.9l-1.36,2.36l-77.18-38.86  c-9.54-7.6-13.59-20.74-20.08-30.29H355.08z" />
<path class="cls-4" d="M205.08,0c12.17,13.52,40.5,47.01,55.1,54.38c2.49,0.63,3.22,1.64,2.19,3c2.93,3.04,4.49,8.61-0.01,10.64  c-7.91-4.07-18.98-4.93-26.48-11.35C214.15,38.07,191.63,20.06,172.27,0H205.08z" />
<path class="cls-14" d="M101.95,381.73C53.75,406.59,76.13,411.99,0,408.98v-14.06C61.14,393.78,34.87,411.2,101.95,381.73z" />
<path class="cls-3" d="M849.7,1061.31c-41.88,4.33-82.42,14.62-124.4,22.69c-116.2,22.35-157.35,30.03-277.69,4.73  c-0.83-0.54-1.24-1.25-1.12-2.19c6.76-4.93,7.69-7.99,2.8-9.18c-4.35,4.3-8.73,8.64-13.11,13.03c0,0-1.07-0.37-3.2-1.11  c-1.07-5.52-0.93-11.37,0.4-17.55c-0.23-3.17-4.95-2.66-6.1-0.14c1.55,5.89,1.9,11.68,1.05,17.35c-2.15,0.96-3.23,1.43-3.23,1.43  c-4.5-3.68-8.64-7.88-12.42-12.6l-2.85,0.16c-0.7,1.91-1.79,3.13-3.3,3.65c-9.62-0.62-19.15-2.85-28.68-4.49l15.85-78.58  c0.18-1.05,0.55-1.05,1.12-0.08c37.87-2.61,77.47,7.19,117.36,6.68c60.47-0.77,118.69-6.25,178.29-12.99  c29.3-3.31,59.11-2.28,86.28,9.44c-22.23,20.08-71.36,5.29-87.73,25.88C733.77,1031.42,812.29,1037.07,849.7,1061.31z" />
<path class="cls-13" d="M314.5,732.73c2.51,2.91,2.64,4.47,0.38,4.69l1.77,5.35l-5.04,46.02c2.69,24.77,20.8,45.9,43.57,55.48  c1.69-2.81,9.85-3.33,12.31-1.35c0.46,0.69,0.88,1.39,1.16,2.15c1.38,3.81-8.7,30.24-11.27,35.96l-3.39,2.71  c-48.19-13.22-96.54-24.18-144.83-44.9l66.1-138.1c1.71-2.79,6.27-1.19,7.17-4.73l4.56,1.95c7.96,10.63,16.6,20.67,25.9,30.11  L314.5,732.73z" />
<path class="cls-15" d="M436.13,807.48c0.39,2.66,0.76,5.42,0.2,8.08c-5.86,27.78-11.87,55.73-17.99,83.34l-2.33,3.45  c-6.87,31.89-16.16,63.67-21.18,96.09l-1.12,0.08c-23.52,1.62-47.51-9.43-70.96-18.41l31.23-96.38  c4.31-13.31,10.85-26.95,13.5-40.82l-0.13-3.69c7.64-9.06,16.24-17.06,25.8-24.01c6.58-6.27,7.72-12.21,6.4-21.32l1.99-2.6  c1.71-0.25,3.56-0.49,5.22,0.15c5.02,1.95,25.8,11.18,27.85,13.66C435.21,805.82,435.68,806.64,436.13,807.48z" />
<path class="cls-12" d="M134.52,713.75c1.84-0.5,3.43,0.3,4.77,2.42c4.39,2.39,6.26,4.92,5.62,7.6c-5.08,7.98-15.84,10.19-23.43,16.83  c0.73,4.82,4.78,8.73,0.81,13.76c-2.26-12.2-7.79-16.19-18.35-21.58c13.09,2.37,22.41-6.96,24.01-17.89  C127.87,711.05,133.28,710.12,134.52,713.75z" />
<path class="cls-15" d="M145.08,707.71c2.08-3.18,4.46-2.29,4.8,1.34c3.64-0.39,4.26,1.8,1.18,3.75c-1.26,4.13-3.92,7.46-6.15,10.97  c-3.45-3.49-8.26-5.45-10.39-10.01c-3.63-2.08,0.51-7.94,3.56-4.75C140.19,708.42,142.88,707.55,145.08,707.71z" />
<path class="cls-15" d="M196.81,755.45c4.41-0.47,7.75,2.89,8.14,5.85c0.6,4.49-2.34,7.96-6.41,8.53c-3.53,0.49-6.86-1.92-7.91-5.69  C189.66,760.64,191.91,755.97,196.81,755.45z" />
<path class="cls-13" d="M138.08,709c-1.83,0.51-3.13,3.18-3.56,4.75c-2.25-0.06-4.49,0.32-6.58,1.15c0.67-4.58-4.7-8.11-6.79-13.12  c4.37-1.3,7.87,3.43,11.07,6.26c1.3-4.1-0.94-8.41,2.51-11.17C136.85,701.41,134.71,706.43,138.08,709z" />
<path class="cls-14" d="M51.88,709.63c3.28-0.35,5.49,1.63,6.05,4.07c0.7,3.07-1.11,5.31-3.34,6.09c-3.09,1.08-5.71-0.63-6.31-2.52  C47.15,713.8,48.17,710.03,51.88,709.63z" />
<path class="cls-13" d="M151.06,712.8c0.21-3.14-2.99-4.87-5.98-5.09c2.46-5.81,2.73-10.97,1.82-20.21c5.33,6.1,3.66,12.86,3.17,21.23  c6.58-1.3,8.71-6.74,14.16-8.94C160.44,705.05,156.87,710.8,151.06,712.8z" />
<path class="cls-13" d="M447.61,1088.73c-14.97,14.69,6.86,1.39,12.85,6.14c1.94,1.54,3.34,8.43-0.47,8.46l-18.35,0.12  c3.33,7.11,14.34,9.12,12.45,15.97c-0.64,2.31-2.45,3.29-4.71,3.36c-4.7,0.13-6.54-8.27-14.44-13.39c-1.5,5.41-0.04,9.72,0.79,14.53  c0.76,4.44-1.79,7.3-6.19,6.99c-9.58-0.68,0.15-14.9-3.29-22.16c-8.53,6.01-9.74,14.9-15.51,13.96c-2.41-0.39-3.78-1.66-4.06-4.26  c-0.59-5.38,8.15-8,13.22-14.81c-7.95-3.15-19.93,4.45-21.01-3.92c-0.28-2.19,0.85-5.97,4.29-5.72c5.46,0.4,10.65,2.06,16.57,0.42  c-3.69-5.13-9.09-8.86-13.22-12.82c-0.13-2.74,0.59-5.53,3.46-6.2c6.93-1.61,8.66,7.97,16.21,13.53c1.97-9.85-3.22-16.28-0.45-19.38  c1.75-1.96,3.89-2.6,6.04-2.21c8.27,1.5,0.57,12.7,3,21.45c5.57-3.6,8.1-11.06,13.49-13.6c4.59-1.04,8.47,4.57,5.65,7.33  L447.61,1088.73z" />
<path class="cls-9" d="M235.64,1117.8c-3.36-1.54-3.73-4.37-4.85-5.73c-1.42-1.72-4.83-1.87-5.28,0.09  c-0.74,3.29,0.47,5.27-1.29,9.25l-4.14-11.88l-7.99,10.07c-1.95-4.42,2.3-6.78,2.74-11.23l-9.21,3.99c1.32-3.99,5.6-5.03,6.18-9.07  c-4.87-0.65-9.17,2.15-12.3-1.44c4.09-2.88,8.7-1.5,11.72-4.51c-3.59-4.56-10.08-0.19-11.62-7.33c8.33,2.92,11.87,2.14,14.54-2.81  c1.73-3.21,4.12-4.01,0.06-12.79c7.77,1.36,3.6,7.48,8.27,10.44c5.4-0.96,3.91-7.19,7.79-11.26c2.96,4.42-2.23,8.22-0.09,12.97  l10.38-6.91c0.06,4.78-4.86,6.14-5.64,10.5c4.55,0.88,8.21-2.67,11.42,0.19c-2.16,2.47-4.54,2-6.37,2.9  c-1.89,0.93-5.96,2.11,1.32,5.12c-3.33,1.11-4.64,2.66-4.65,4.48c-0.01,2.69,5.53,5.46,7.02,7.11c-2.15,5.01-6.38-0.71-10-2.71  C231.21,1111.49,237.06,1113.53,235.64,1117.8z" />
<path class="cls-13" d="M124.25,957.42c-5.57,1.1-9.97,2.47-12.33,8.25c8.44,2.31,10.19,9.6,13.42,15.17  c-1.69,3.1-4.85,5.26-9.47,6.47c-3.63,2.81-7.18,4.1-10.66,3.87c-5.48-4.95-5.6-12.97-6.09-20.36  c-11.25,0.31-13.86,10.98-24.41,13.2c6.03-3.92,10.43-13.1,17.82-15.5c32.11-10.41,5.94-8.98,31.83-14.75  c4.77-1.06,9.47-1.58,15.07-3.4C134.82,954.39,129.61,955.79,124.25,957.42z" />
<path class="cls-6" d="M128.88,991.36c2.63,5.46,0.52,11.1,2.09,16.93c1.63,6.04,10.91,9.05,7.59,16.65c-0.96-4.49-2.46-4.86-3.76-6  c-1.84-1.61-3.36-1.85-3.39,0.17c-0.05,2.79,0.54,4.26,0.88,7.67c-6.53-1.86-3.74-11.89-7.64-15.66  c-4.09-3.95-8.86-5.92-12.18-10.36c-0.28-3.35,2.03-6.03,6.92-8.05C123.32,989.75,126.49,989.3,128.88,991.36z" />
<path class="cls-9" d="M125.34,980.85c2.21,3.81,2.04,7.41,3.54,10.52c-5.98,1.43-11.98,5.14-16.42,9.4  c-2.35-3.15-7.05-5.26-7.25-9.57C111.15,986.49,118.24,983.4,125.34,980.85z" />
<path class="cls-8" d="M794.31,190.65c9.98,1.53,19.78,6.01,30.74,6.31c15.21,0.41,29.33-6.65,43.41-4.51l0.29,2.55l-31.48,18.84  c-5.96,5.58-11.45,11.62-16.49,18.12l-4.88,1.87c-2.95,2.61-6.94,3.26-11.98,1.97c-29.05-5.69-57.93-12.02-86.63-18.97l-4.62-3.46  c-1.44,3.09-3.44,2.22-3.48-1.13l-4.15,1.12c-7.83-1.7-15.33-3.95-22.51-6.73c0.49,7.97,0.7,16.1,0.61,24.41l-2.26,3.47  c-2.83-0.6-4.06-3.06-3.68-7.38c-0.71-7.07-0.02-13.61,2.05-19.61l-3.67,0.52c-18.17-7.8-37.35-12.93-57.55-15.39  c-12.98-3.64-24.91-9.77-35.78-18.41l-0.93-3.38c-3.18-4.63-9.58-6.06-11.86-11.3l-2.77-4.1c-0.91-8.98-1.83-17.97-2.74-26.97  l2.16-1.91c22.3,19.52,48.31,24.69,77.24,31.07C694.26,168.88,743.33,182.81,794.31,190.65z" />
<path class="cls-4" d="M534.62,97.83l0.92,2.01l-1.02,3.09c-6.31,3.91-11.91,8.73-16.79,14.45l-3.31,0.02  c-11.92-9.76-25-15.55-40.13-19.94c-25.5-7.41-49.44-16.76-72.34-28.3L378.2,26.89c9.09,9.88,19.99,17.07,32.93,21.49l60.95,20.84  C494.36,76.85,515,85.98,534.62,97.83z" />
<path class="cls-5" d="M566.11,126.6l3.36,32.97c-19.41-12-37.26-27.62-55.05-42.18c6.6-6.59,12.47-13.78,21.12-17.56L566.11,126.6z" />
<path class="cls-15" d="M740.62,546.12c44.07,6.95,85.71,2.7,128.66-8.14c2.36-0.32,4.76,0.01,7.18,0.98  c5.55,3.85,13.7,4.84,19.04,8.42c7.69,13.79,38.34,13.46,53.81,16.71c20.87,4.38,40.55,10.59,59.35,20.1  c14.74,2.57,30.11-0.23,43.92,0.72c2.46,1.95,1.64,3.59-0.32,5.56c-13.6,9.64-3.6,15.41,4.03,1.5c2.13-2.29,4.08-4.2,6.35-1.32  l2.48,0.59l2.59,13.87c7.32,3.88,7.71-1.47,1.15-16.05l2.15-1.97l2.58-1.97l11.26,2.45c2.74-1.16,5.19-1.76,7.35-1.79l58.58,1.92  c-15.01,15.52-93.36,20.34-77.28,45.6c-22.67,11.77-34.47,46.71-65.68,45.36c-3.96-0.79-6.14-7.23-2.37-9.36  c-2.06-1.52-3.16-4.18-3.31-7.96l-4.47-13.85c0.92-9.01,11.46-2.19,14.13,3.13c3.31-0.59,6.51,0.09,9.62,2.03  c4.73-0.23,4.01-1.67-2.17-4.32c-2.63-2.97-0.86-6.16,5.33-9.58c-5.2,3.45-16.19,7.54-21.19,2.17c-4.92-5.29-1-7.13,3.99-9.33  c22.48-4.53,17.47-7.23-2.85-0.06l-2.4-2.34c-1-0.05-2.39-0.47-2.36-1.18c0.26-6.12,10.51-8.45,15.51-9.32  c-4.36-0.57-6.01-3.8-4.95-9.68c-5.95,5.31-10.09,5.11-12.42-0.6c2.65,7.04,6.07,20.04-5.43,18.3c-2.95-6.89-6.05-13.7-9.3-20.41  c0.87,6.94,2.88,13.93,6.02,20.96l-2.1,1.79l-1.92,2.2c-6.86-3.69-13.77-6.28-20.71-7.75l18.42,10c2.03,3.78-3.26,7.88-5.67,4.14  l-1.43,2.72c-18.25,1.74-11.93,5.99,0.27,0.88l2.37,1.74c0.24-4.34,5.94-2.63,3.82,1.32c2.67,4.45-4.21,6.18-8.04,7.09  c-3.98-0.68-6.85,0.17-8.62,2.54l-1.45,3c-5.94,1.2-11.76,2.36-17.48,3.47l34.15,154.52l-1.98,1.9l-4.09-0.77  c-15.99-19.14-34.63-34.16-55.9-45.04l-2.31-3.29c-6.29-3.64-12.3-7.71-18.03-12.23l-0.87-3.31l-2.73-3.33l-11.11-99.58  c-26.15-9.84-53.77-18.52-82.85-26.06c-2.37-1.31-8.52-6.55-6.43-9.21c4.22-5.4,31.18-6.31,39.12-6.07  c15.23,1.62,30.38,1.86,45.46,0.72l-6.64-52.47l-22.94,2.34c-26.15,5.35-52.33,9.48-78.55,12.38l-3.34,86.32l-2.4,1.32l-4.54-0.54  c-15.05-14.66-31.55-26.97-49.5-36.91c-21.75-8.91-44.31-15.24-67.7-19l-3.86-3.24l-2.08-1.34l9.9-39.76  c-23.82-4.59-48.07-6.38-72.34-5.76l-77.17,1.77l-1.89,7.01l-2.57,0.71l-4.36,1.35c-23.12-2.9-45.85-7.29-68.2-13.17  c0,0-0.91-1.21-2.74-3.63c24.91-3.57,50.13-4.86,75.2-6.95c2.07-0.78,4.15-1.52,6.28-2.09c2.11-0.57,4.21-1.1,6.34-1.3  c42.29-3.86,86.13-6.2,128.45-5.58c32.85,0.48,66.67,5.76,98.86,12.16c1.28,0.26,2.5,0.88,3.74,1.54  C738.29,544.46,739.47,545.27,740.62,546.12z" />
<path class="cls-13" d="M764.12,891.58l2.3-1.09c9.98,7.95,45.11,29.43,56.79,24.91c3.89-1.5,3.73-5.29,3.22-8.84l1.99-2.09l3.5-1.57  l12.91,2.17c30.64,1.54,61.22,3.37,91.74,5.49c5.17,0,8.53,1.56,10.09,4.69c0.38-0.84,1.08-2.07,1.71-1.91  c8.71,2.09,21.33,6.17,29.67,9.44c3.96,0.47,6.1,1.97,6.42,4.5c2.64,1.58,2.96,4.55,0.95,8.92l-2.91,6.63  c-14.98,19.06-23.09,53-8.15,74c2.58,3.63,7.07,8.59,10.83,4.02c5.64-10.57,11.29-15.94,22.35-20.48c6.84-2.8,16.49-5.53,23.66-4.56  c0.49-2.28,2.27-4.11,5.36-5.49c4.6-4.5,7.7-10.07,9.32-16.7c1.22-1.96,2.96-1.7,4.91-0.53c5.6,5.48,11.94,9.53,19,12.14l1.23,2.63  c5.18,30.36,11.52,60.76,18.99,90.59c0.08,0.32-0.27,0.74-0.21,1.06c-50.83,26.95-101.57-9.38-154.42-16.78l-15.06-135.07  c-53.95,11.87-106.92,38.58-158.64,40.93l-2.34-1.09c0.11-24.77,0.21-49.54,0.32-74.33l2.35-1.39  C761.55,889.51,762.63,890.15,764.12,891.58z" />
<path class="cls-13" d="M1005.45,669.29c-0.25,3.18,1.78,6.41,2.37,9.36l46.87,234.11c-3.24,3.02-15.42-0.9-15.51-5.63l-4.31-3.6  c-12.93-23.22-27-45.7-42.19-67.42l-11.85-13.91l-2-5.4l-35.14-159c7.64-1.13,15.16-1.21,21.9-3.89c5.69-4.78,13.04,0.77,6.39,7.68  c-0.75,1.9,0.3,2.82,1.86,1.38c6.59-9.77,8.81-5.83,12.32,2.93c-2.88-7.66-2.86-14.35,0.06-20.09l2.67,1.07  c3.96-3.17,6.39,1.73,8.04,5.4C997.74,659.79,1000.58,665.46,1005.45,669.29z" />
<path class="cls-4" d="M1141.74,987.92c-32.19-13.07-41.6,4.32-70.73-0.07c-8.71-1.31-16.51-8.75-23.1-14.1  c-2.16,10.16-7.54,19.36-16.72,22.05c-4.16,1.09-6.89,0.03-8.19-3.18c-13.35,0.75-26.27,4.07-38.74,9.96  c-21.15-19.45,2.63-67.93,30.85-50l13.94,8.52c3.14,2.09,6.38,2.81,9.71,2.17c-0.87-3.36-0.18-5.33,2.08-5.93  c-0.44-12.34-3.44-23.74-9.02-34.22l0.73-3.22c0.9-0.88,1.94-1.76,3.22-1.89c5.74-0.61,26.5,5.57,33.12,7.68  c23.55,7.5,49.24,19.57,64.37,39.78C1137.59,971.26,1144.57,981.15,1141.74,987.92z" />
<path class="cls-14" d="M828.6,780.41c0.92-0.42,1.84-0.8,2.8-1.02c8.31-1.91,37.67,10.79,46.93,15.02  c34.03,19.43,67.62,39.36,100.78,59.78c20.36,14.31,38.46,31.16,54.29,50.54c1.03-2.07,2.96-1.27,5.78,2.4  c3.39,2.39,11.42,4.28,15.51,5.63l34.76,11.49c30.54,10.1,52.94,35.51,64.47,65.61c-5.59,3.98-8.74-0.54-12.18-1.94  c-11.21-42.92-70.05-62.51-109.19-68.01l-3.55-0.95c-6.98-7.87-14.58-15.14-22.8-21.82c-15.44-16.97-32.44-32.7-53.59-42.42  l-3.32-4.06l-4.87-1.28c-23.01-15.43-47.9-27.44-74.67-36.03l-3.53-3.64l-3.47,0.37c-20.38-7.41-40.87-14.69-61.48-21.83l-5.33-3.91  l2.32-2.38c8.96-0.09,17.89-0.49,26.79-1.2C825.83,777.55,827.23,777.55,828.6,780.41z" />
<path class="cls-4" d="M1129.1,682.49c-0.38,2.96-4,3.3-5.58,2.94c-6.32-1.47-1.53-12.48-3.4-19.98c-7.1,4.1-10.33,14.52-16.02,12.02  c-2.79-1.22-3.77-5.39-1.57-7.44l12.11-11.27c-6.37-1.21-16.44,2.33-19.45-2.62c-0.91-1.49-1.25-5.96,1.15-6.09l17.27-0.92  c-3.35-5.36-14.56-11.33-11.59-16.39c0.81-1.37,4.59-2.98,6.28-1.4l11.99,11.19c1.89-6.76-2.64-19.45,4.3-19.63  c2.08-0.05,4.84,1.02,4.76,4.01l-0.41,16.41c6.46-4.1,11.76-15.9,17.82-11.63c7.16,5.05-8.93,12.76-10.35,17.38  c7.42,2.38,18.08-2.65,18.86,4.36c0.41,3.7-1.79,5.47-5.62,5.49c-4.31,0.02-8.3-0.72-13.14-0.19l11.03,12.06  c1.43,1.57,0.18,4.58-0.72,5.68c-4.84,5.9-11.83-8.14-17.05-11.09C1128.46,671.42,1129.87,676.39,1129.1,682.49z" />
<path class="cls-13" d="M1127.47,739.58c0.65,1.4,0.53,2.86,1.05,3.4l0.44,2.61l-9.16,10.23c-2.78,2.93-4.95,3.27-6.52,1.04  c-0.6-1.62-2.97-1.64-3.48-2.33c-2.6-6.59-5.71-11.88-10.06-16.98c6.5-4.12,10.99-7.13,16.33-9.35  C1117.35,734.82,1124.65,735.06,1127.47,739.58z" />
<path class="cls-15" d="M1061.11,707.46c3.32-1.3,6.68,0.34,7.75,2.95c1.36,3.33,0.17,7.11-2.6,8.34c-3.46,1.53-7.35,0.32-8.64-2.73  C1056.28,712.84,1057.54,708.85,1061.11,707.46z" />
<path class="cls-6" d="M445.41,143.17l1.46-2.13L522.7,154c-4.23-3.14-7.91-6.77-11.03-10.89l1.35-2.51  c9.18,2.99,20.73,3.08,29.13,9.82c11.91,9.55,27.16,12.86,39.19,20.45c13.11,8.26,21.77,16.46,38.64,19.8  c20.11,3.99,43.76,6.89,59.29,16.86c-0.26,1.76-0.66,3.22-1.69,4.64c-4.83,6.69-17.34,18.04-24.64,21.89  c-20.77,4.65-24.97,18.2-29.16,36.56c-1.32,4.87-10.04,20.52-13.97,21.84c-2.36,0.79-3.44-0.03-4.72-2.09  c1.15-25.24,2.67-50.27,4.56-75.08c-4.14-3.26-8.43-5.77-12.88-7.55l-11.13,91.75c-7.44,11.87-17.1,22.13-28.98,30.79l-3.34-0.01  l-2.94-1.58l-9.1-23.16c-2.52-5.38-2.49-9.54,0.08-12.49l-2.37-1.32c0.18-8.2-0.18-16.07-1.07-23.61l-56.3,11.91  c-18.56,4.34-34.08,17-41.8,34.45l-3.79,3.15c2.53,2.04,1.48,3.13-1.49,2.42l-1.75,4.08c-8.32,5.94-14.32,14.34-15.2,24.62  l-1.35,21.41c-1.16,6.68-4.49,12.94-9.48,17.61c-4.58,4.28-12.62,11.26-18.7,9.45l-2.38-6.45c-1.19-20.51-2.81-40.95-4.84-61.3  l1.15-3.41c10.35-2.75,20.7-4.96,30.46-9.93c-11.14-0.99-21.35-3.3-31.58-3.53l0.48-2.71c4.83-2.29,10.15-6.84,10.84-11.94  l-22.75,1.71c-2.84-2.04-3.95-3.18-0.79-5.81c17.43-12.15,36.4-21.78,55.61-30.73c2.77,0.76,1.65-1.83,0.42-4.26  c-2.13-4.23-5.3-7.09-9.01-9.97l0.41-2.69c2.33-3.13,6.19-9.33,4.18-13.81c-14.15-11.33-27.65-24.44-42.94-30.75  c-11.23-23.5-23.74-46.52-34.11-70.42l3.76-1.14l36.68,13.32c18.9,6.06,39.34,7.99,57.72-0.84L445.41,143.17z" />
<path class="cls-6" d="M376.26,327.03l1.94,1.76c-4.29,24.88-15.45,67.43-44.68,35.27c-0.9,9.97-1.08,20.07-0.54,30.3l-2.5,2.79  l2.14,2.53c-2.91,13.51-2.78,26.55,0.41,39.1l-1.22,3.02l-3.22,0.99c-7.27-3.13-14.27-6.76-21.01-10.89  c18.14,31.63,53.41,51.21,88.41,57.73c-2.74-3.06-7.99-9.66-1.37-10.85c3.51-0.63,30.28,5.55,35.78,7.11l3.2,2.77  c4.84,3.14,9.7,6.3,14.59,9.45c35.43,11.74,74.67,9.01,109.75-1.55l14.91-2.68c-14.38-3.92-28.92-7.72-43.62-11.41  c-2.54-0.44-4.28-2.08-5.44-4.36l1.19-2.29c20.33,1.01,40.67,2.02,61.02,3.04l1.27,2.41l3.41-2.19c17.84-0.48,35.04,1.94,51.6,7.26  l2.09,3.48c0.49-0.78,1.35-1.89,1.97-1.66c6.72,2.53,18.82,8.12,24.88,11.76c3.03,1.1,4.81,2.17,5.81,5.34l3.63,0.19  c11.34,10.64,26.49,12.77,41.35,10.38c12.79-2,25.34-4.42,37.64-7.25l-0.18-4.58l-20.38-6.2c-2.43-3.32-2.58-4.89,1.83-5.92  l15.92-3.11l-1.68-10.8l1.9-2.13l-1.88-3.23c1.24-9.09,1.3-18.42-0.89-27.38l1.47-3.42c0.77-0.32,1.55-0.6,2.35-0.73  c4.14-0.66,25.35,11.79,26.8,15.74c0.28,0.77,0.42,1.6,0.51,2.44l3.51-0.01c5,5.19,9.67,10.68,13.99,16.46l-0.18,3.44l-2.3,3.47  c-8.73,4.02-17.65,7.57-26.76,10.66c12.86,4.8,26.48,5.83,40.87,3.07c3.14,0.18,4.64,0.6,3.98,3.74  c-1.19,5.71-14.78,14.88-20.56,16.85l-36.86,8.78c22.77,2.48,45.78,1.39,68.21-3.29c27.35,12.74-7.66,18.08-20.87,19.25  c-22.34,6.39-44.77,8.34-67.85,4.4c-38.92-7.89-77.77-14.03-118.38-13.78c-43.68,0.26-86.16,3.16-128.89,6.73l-90.59-10.39  c-7.75-0.89-14.89-8.06-19.24-14.68c22.11,2.35,43.17,2.1,63.61-4.39l-74.66-10.3c-20.85-2.88-38.95-14.93-58.16-22.3  c-1.46-1.21-2.28-3.2-2.47-5.99c-8.01-10.56-16.88-20.51-26.6-29.87l0.54-2.83c-8.93-2.27-14.01-21.29-12.88-29.36  c0.24-1.71,0.48-2.76,2.43-3.55l2.13-2.4c9.44,0.6,18.67-0.27,27.7-2.6c-6.23-2.79-12.81-5.01-19.72-6.68l-4.24-3.56l-0.7-3.36  c4.72-10.84,10.48-20.94,17.26-30.29c15.39-8.46,31.4-15.36,48.02-20.68L376.26,327.03z" />
<path class="cls-16" d="M414.81,546.11c0.6,0.61,0.77,0.73,1.33-0.03c0.67-0.06,1.36,0.04,2.02-0.06c23,9.92,50.5,9.01,75.31,15.46  c1.73-0.18,3.45-0.31,5.17-0.28c1.71,0.03,3.39,0.08,4.98,0.46c36.92,8.96,73.91,17.95,110.11,29.54c1.56,0.5,3,1.4,4.47,2.31  c1.47,0.92,2.85,1.98,4.2,3.09c6.59,1.21,13.16,2.86,19.44,5.2l74.78,33.64c22.53,9.6,43.37,21.69,62.51,36.25  c2.53,0.23,5.11,0.61,7.35,1.85c35.3,25.19,71.08,50.02,107.34,74.47l3.82,4.14c6.8,4.08,13.75,9.98,18.9,15.54  c-0.38,0.84-1.09,2.07-1.71,1.91c-37.83-9.83-76.1-26.8-108.82-49.89l-3.41,0.93c-11.09-7.02-22.37-13.64-33.84-19.88l-4.73-0.16  c-25.19-12.54-47.24-28.65-66.16-48.35c-33.8-18.95-68.6-37.25-105.97-47.85c6.45,30.23-24.67,24.23-40.85,10.61  c-7.71-8.11-15.04-16.45-21.98-25.01c-15.47-2.41-31.1-3.62-46.88-3.64l-5.11-2.9l-4,1.84c-21.08-3.51-31.62-5.26-31.62-5.26  c-9.23-1.25-16.57-4.76-22.01-10.52c-0.64,0.69-1.61,1.71-2.28,1.45c-4.68-1.87-14.55-7.07-18.74-9.87c-3-1.25-4.91-2.5-5.89-5.75  c-3.21,2.27-8.57-3.03-10.36-5.87l-3.41-0.54c-5.42-5.28-10.85-10.49-16.29-15.63c-15.04,7.48-29.36,0.46-41.67-8.83l-16.6-14.99  c-14.05-7.8-31.76-6.8-46.36-1l-5.72,0.07l-1.17,2.45c-10.65,3.42-33.52,9.17-43.86,5.91c-4.5-1.42-13.07-5.36-11.41-10.62  c17.13-22.52,47.25-27.76,75.28-21.66C364.99,505.15,374.53,546.33,414.81,546.11z" />
<path class="cls-10" d="M252.12,508.58c19.9-0.59,34.11,13.21,45.2,28.15l9.26,8.51l0.4,3.35c1.54,4.14,0.66,8.68-2.64,13.59  c-1.97,5.48-5.28,9.45-9.95,11.9c-0.6,3.41-2.51,3.98-4.9,1.49c-23.1,0.46-48.11-2.27-66.34-17.95c-12.31-5.82-25.71-8.06-40.19-6.7  l-2.31-2.43c-0.37-16.62,5.69-29.91,15.03-42.18C211.25,525.69,235.94,509.6,252.12,508.58z" />
<path class="cls-9" d="M381.98,326.05c2.89,23.62,6.23,47.36,6.06,71.17l0.17,3.6c-8.86,11.45-13.85,25.49-10.93,39.95  c3.27,10.16,1.02,13.5-6.92,6.12c-9.91-13.5-19.42-27.3-28.52-41.4c-3.17-3.67-6.95-6.44-11.35-8.32  c0.88-11.95-1.38-24.19,0.84-36.95c7.93,2.94,14.51,15.98,24.62,12.93c11.93-3.61,17.12-35.04,20.31-46.1  C378.07,326.51,380.17,326.53,381.98,326.05z" />
<path class="cls-11" d="M242.76,370.23c4.87-0.54,3.81,12.78,3.05,16.27l-2.27,1.48l-3.81,2.53c-20.9-0.22-20.48,1.44,1.25,4.98  l2.68,3.05c1.74,0.46,2.52,1.04,2.34,1.72c0.73,1.68,0.55,35.13-0.72,36.45c-2.07,2.17-6.7,2.72-7.26-0.85l-2.99,0.5l-7.66-9.02  c-21.46-1.77-47.22-9.91-64.57-23.12c-4.27-3.25-14.04-11.22-10.34-16.24C182.81,383.92,215.39,383.51,242.76,370.23z" />
<path class="cls-11" d="M380.86,312.58c-21.26-0.49-41.36-5.22-59.97-17.27c6.95-9.14,15.74-14.5,26.11-19.02l69.09-30.1  c5.48,4.48,11.69,9.03,12.11,17.64c-21.43,10.01-41.63,20.01-60.6,33.6l28.18-2.12C394.49,303.2,388.07,310,380.86,312.58z" />
<path class="cls-6" d="M152.45,388c6.72,20.5,55.03,36.58,75.87,37.34c3.67,3.66,6.07,7.65,9.7,10.53c1.92,0.63,3.12,2.39,3.61,5.28  l5.71,9.97c0.91,1.72,2,5.07,0.02,6.1c-1.25,0.64-25.44-0.62-27.98-1.25c-6.66-1.64-7.6-3.66-3.39-9.06  c0.13-2.87,1.18-4.7,3.14-5.48c0.22-3.32-2.24-6.64-7.32-7.72c-37.81-8.01-75.68-14.2-114.64-25.76  C142.48,377.6,133.75,390.51,152.45,388z" />
<path class="cls-7" d="M266.02,403.92l1.33,2.93c-2.12,8.58-3.72,17.29-4.8,26.14l18.27,2.35l4.98,2.97l22.83,24.05  c3.85,4.06,7.75,9.73,5.71,14.64c-2.18-0.84-4.99-1.64-7.27-2.33c-12.47-6-25.37-10.8-38.69-14.38  c-18.35-7.11-77.06,7.38-73.61-16.27l24.38-2.59c-0.26,3.91-0.11,7.32-4.34,10.49c11.28,4.84,21.03,2.32,31.81,4.42  c-1.74-8.53-8.69-12.7-8.58-20.47c1.64,0.08,3.23,0.38,5.64-0.31l-0.01-37.02C249.77,396.15,261.91,398.68,266.02,403.92z" />
<path class="cls-9" d="M119.34,447.67c-2.28,0.72-5.92,1.09-6.63-1.95c-0.35,3.51-6.94,2.8-7.32-0.58c-1.65,0.55-3.66-0.13-6.04-2.02  c-15.7-2.53-31.49-4.87-46.97-10.07c8.79-1.75,16.04-7.55,23.74-6.7l85.08,9.31l31.26,27.67  C155.33,466.81,149.18,449.77,119.34,447.67z" />
<path class="cls-14" d="M270.48,336.17c-6.01,5.93-13.83,8.78-23.28,10.95c-39.71,9.09-79.68,15.48-119.47,22.49  c30-22,53.03-25.32,90.21-30.86C235.13,336.18,253.38,339.71,270.48,336.17z" />
<path class="cls-11" d="M345.79,335.81l-46.51,22.42c-7.95,8.92-11.7,21.92-18.07,31.91c-3.52,2.63-13.53,1.41-16.16-2.15l-2.37-1.3  c0,0-0.14-8.2-0.41-24.59l2.3-2.47c9.81-4.76,19.62-14.63,30.04-17.5C311.34,337.52,329.67,340.46,345.79,335.81z" />
<path class="cls-14" d="M105.39,445.13c1.42,2.09,1.06,5.03-1.08,8.8c-1.29,4.14-1.11,15.15,3.9,8.41c3.01-4.05,3.85-9.66,2.69-14.52  l1.82-2.1c1.82,0.14,5.96-0.81,6.63,1.95c0.74,3.02,2.74,3.67,6.97,6.03c-6.14,6.48-11.22,12.2-13.53,19.11  c10.85,1.76,16-4.23,20.2-12.98c7.87,2.44,3.08,8.7,4.12,14.59c0.35,1.97,3.64,3.26,3.78,4.61c1.32,12.6-10.53-7.87-26.81,2.76  c5.99,8.63,14.79,7.17,25.9,10.79c-9,3.73-8.2,7.53-12.55,16.06c-4.49-10.67-9.54-17.06-18.39-20.25c-2.61,0.68-6.62,0.55-6.09-3.03  c-5.08,2.42-12.42-11.74-7.21-14.28c-0.22-23.77-20.65-20.02-10.47-25.64c3.62-2,8.6,6.41,11.25,3.18c1.29-1.57,2.27-3.63,2.83-5.5  c0.96-0.82,2.22-1.67,3.64-0.79C103.79,442.81,104.6,444.4,105.39,445.13z" />
<path class="cls-8" d="M95.74,471.07c0.05,5.58,2.98,10.73,7.21,14.28c3.43,0.76,2.04,6.64-1.39,6.67  c-7.99,5.31-9.48,13.82-9.69,25.19c-5.51-6.59-9.11-8.57-17.54-9.39c8.45-6.9,15.99-9.14,19.32-19.91  c-9.94-2.55-14.66,3.5-22.93,12.83c-3.09-8.24-3.36-16.13-5.39-24.37c11,5.04,16.82,7.3,26.92,2.44c-6.15-7.31-15.21-8.05-25.95-8.8  c0.93-6.66,6.78-3.77,8.31-6.83c1.36-2.73-2.93-6.14,2.53-10.22C81.22,462.23,87.1,468.31,95.74,471.07z" />
<path class="cls-7" d="M264.57,359.64l0.47,28.36c-5.55,3.46-15.79,3.18-21.51-0.02c-0.52-5.9,1.63-12.24-0.78-17.75L264.57,359.64z" />
<path class="cls-6" d="M337.44,320.35c-10.37,7.2-22.58,1.73-33.95,5.69c-0.39-5.66,1.53-8.66,3.91-13.48  C317.23,312.56,328.42,312.74,337.44,320.35z" />
<path class="cls-13" d="M109.04,488.38c-0.38,23.72,14.12,17.68,12.15,23.79c-0.48,1.47-0.69,3.89-2.34,4.08  c-2.97,0.35-6.05-4.5-9.11-4.08c-2.25,0.31-2.91,4.9-5.4,7.58c-1.46,1.57-3.94-2.95-4.5-5.18c5.97-7.13,4.55-14.58,1.73-22.55  l1.39-6.67C104.35,486.53,108.52,485.64,109.04,488.38z" />
<path class="cls-6" d="M307.05,474.68c-13.18-3.96-25.87-9.41-38.69-14.38C281.32,461.05,295.6,467.92,307.05,474.68z" />
<path class="cls-14" d="M162.75,501.28c3.62-0.82,6.02,1.72,6.4,3.82c0.56,3.13-1.08,5.69-2.97,6.35c-3.22,1.12-6.13-0.72-6.65-2.64  C158.67,505.71,159.16,502.1,162.75,501.28z" />
<path class="cls-13" d="M171.85,948.89c-6.09-1.41-3.11-6.98-3.98-12.42c-4.53,0.82-5.32,7.14-10.85,7.36  c-3.52-5.47,3.05-7.82,6.39-12.12c-5.22-1.23-11.21,1.67-13.09-3.88c3.75-4.2,9.1-0.66,12.94-3.15c-2.42-2.78-9.42-6.27-6.52-9.91  c3.3-4.15,6.91,3.59,10.27,5.11c1.44-3.34-0.9-11.91,4.1-11.26c4.54,0.59,1.9,9.23,2.66,12.38c3.05-1.19,6.73-9.28,10.32-6.71  c4.79,3.42-4.09,7.47-6.28,11.12c4.82,1.41,11.42-1.68,13.08,4.04c-3.82,3.52-8.66,0.46-12.91,2.61c2.32,2.26,9.47,6.06,6.75,9.8  c-2.78,3.83-7.51-2.47-9.75-5.85L171.85,948.89z" />
<path class="cls-14" d="M192.13,996.92c3.98-1.62,7.41,0.23,8.23,3.36c0.79,3.01,0.44,6.67-3.39,7.81c-2.37,0.71-6.13,0.16-7.51-2.69  C188.21,1002.83,188.59,998.36,192.13,996.92z" />
<path class="cls-10" d="M100.73,263.82c15.55,1.73,30.38,19.71,47.68,16.29l78.2-15.45c9.81,10.61,21.62,18.69,34.13,26.5l2.83,38.08  c-18.63-0.6-35.52-13.72-55.77-18.31c-25.35-5.74-52.58-0.31-77.19-8.48c-29.79-11.03-54.99-30.67-82.94-44.54L100.73,263.82z" />
<path class="cls-11" d="M404.6,105.31c5.8,4.9,11.39,10.1,16.76,15.62l23.39,18.51l0.67,3.73c-34.93,18.33-68.09,0.07-102.19-11.96  c-1.93-4.46-4.49-11.29-7.12-15.3c-1.31-5-1.41-10.33-0.31-16.01l-0.54-9.35c-3.91-11.29-7.76-22.66-11.55-34.1l1.87-2.63  L404.6,105.31z" />
<path class="cls-6" d="M325.59,53.81c4.84,26.55,17.54,27.13,10.52,62.09c-8.49-12.97-23.06-21.57-36.03-30.33  c-12.57-7.08-24.54-15.05-35.91-23.92l-1.81-4.28c-1.01-0.76-1.74-1.83-2.19-3C281.83,55.57,304.95,47.16,325.59,53.81z" />
<path class="cls-5" d="M300.08,85.57c-7.88-5.32-18.59-7.71-27.11-12.09l-10.61-5.46c0.27-3.54,0.57-7.11,0.01-10.64L300.08,85.57z" />
<path class="cls-4" d="M984.41,170.04c-6.45,3.95-12.06,8.89-17.49,14.02c0.62,0.66,1.42,1.82,1.03,2.25  c-6.75,7.33-16.34,15.98-23.93,22.61c-3.72,3.89-7.09,6.91-12.38,8.47l-0.69,2.49c-19.91,3.31-39.84,6.63-59.76,9.94l-1.77-2.08  c-6.18,4.58-14.83,5.88-22.04,3.2c-0.18,3.68-9.32,4.57-10.62,1.23c-7.44,3.39-14.39,3.94-20.86,1.66  c7.93-7.77,13.88-18.67,23.83-24.51l28.74-16.87c8.19-4.81,20.23-4.62,29.72-6.6C927.32,179.75,955.39,172.11,984.41,170.04z" />
<path class="cls-9" d="M1134.41,754.65c-1.7,3.79-5.86,11.57-10.43,10.59c-4.47-2.14-9.01-3.79-10.69-8.38  c6.92-1.86,9.42-9.81,15.24-13.88C1132.78,745.79,1132.07,751.87,1134.41,754.65z" />
<path class="cls-15" d="M1138.98,768.68c1.53,3.24-0.63,4.74-3.15,2.24l-11.85-5.68c3.96-3.31,5.34-9.14,10.43-10.59  C1138.1,759.05,1136.68,763.93,1138.98,768.68z" />
<path class="cls-13" d="M1135.83,770.92c1.18-0.54,2.23-1.32,3.15-2.24c4.94,1.32,9.95,5.71,9.98,10.56  c-2.69-0.65-2.64-2.42-3.75-3.13c-1.13-0.72-1.72,0.24-1.25,1.11c0.56,1.01,0.97,2.22,0.66,2.57c4.17,13.22-1.38,0.47-2.38,0.3  c-1.98-0.32-0.96,3.09-1.99,3.93L1135.83,770.92z" />
<path class="cls-4" d="M275.3,633.79l3.08-1.29c16.49,7.48,33.92,11.92,48.46-2.06l3.56-0.02c2.07-2.73,7.09-1.99,8.1,1.35l3.12-0.33  l8.49,6.42c4.29,1.52,7.15,3.7,8.58,6.54l3.63,3.36c9.91,30.81,27.87,58.65,56.33,74.06l2.43,2.41c0.95,0.1,1.89,0.25,2.78,0.55  c7.66,2.56,24.5,28.9,28.99,37.25c9.4,24.73,24.03,44.87,42.83,63.18l0.91,4.4c-1.36,0.21-2.71,0.37-4.07,0.36  c-1.34-0.01-2.65-0.03-3.84-0.4c-15.62-4.82-31.53-10.43-46.53-16.9c-1.15-0.5-2.16-1.34-3.18-2.22c-1.03-0.89-1.96-1.91-2.85-2.97  c-11.39-5.12-23.74-10.13-34.59-16.2c-1.33-0.05-2.65-0.15-3.93-0.42c-1.27-0.26-2.5-0.53-3.55-1.11  c-27.31-15.1-55.02-32.19-77.83-53.46l-1.72-3.58c-12.04-10.65-22.09-24.34-32.08-36.73c-5.72-7.09-11.1-15.08-20.81-19.16  c-23.38-9.83-39.49-26.82-57.42-44.13c-9.77-9.43-24.66-13-29.53-25.6c1.63-3.38,5.31-4.1,11.05-2.17  c24.79,8.22,50.33,15.45,76.59,21.7C267.31,628.01,271.9,629.72,275.3,633.79z" />
<path class="cls-10" d="M291.73,611.35c6.77-0.63,15.44,3.21,19.68,8.48c1.98-0.82,2.97-1.23,2.97-1.23l9.68,6.3  c3.04,0.79,4.87,2.21,5.48,4.25c1.03-0.31,1.28,0.16,0.87,1.26c-19.66,18.02-33.8,11.86-55.11,3.37  c-8.9-7.83-18.03-15.34-27.4-22.52c-0.43,0.61-1.27,0.74-1.96,0.76c-20.92,0.57-36.4-4.33-55.96-11  c-8.78-3.17-13.53-1.96-14.24,3.63l-2.31,1.38c-2.57-1.15-3.15-5.76-4.94-7.2c-3.32-14.33,9.21-14.82,20.17-11.46  c22.96,10.94,46.75,14.98,72.42,13.47C273.17,600.95,283.39,604.45,291.73,611.35z" />
<path class="cls-16" d="M233.22,572.97l-2.1,1.89c-2.62-0.59-16.14-0.16-17.16,0.87c-1.73,1.76,20.46,15.39,24.73,13.79  c12.77,0.96,25.42,2.51,37.95,4.67c4.64,1.77,14.01,5.84,11.56,11.41c-1.16,0.82-2.3,0.85-3.57,0.47  c-16.76-5.01-30.19-6.5-47.76-5.53c-4.43-0.31-20.74-1.62-22.6-4.59c-0.37-0.59-0.59-1.26-0.78-1.96l-9.74-5.04  c-11.22-9.13-29.76-18.66-38.53-1.87c3.1,1.75,2.1,3.83-1.39,3.43c-6.2-10.32,1.66-28.05,14.55-31.89l1.91-2.9  c17.92-1.49,35.19,3.21,51.78,14.09L233.22,572.97z" />
<path class="cls-10" d="M60.43,590.77c-8.22,0.28-4.95-8.47-6.01-14.29c-4.33,2.39-8.58,11.74-13.19,6.63  c-3.4-3.77,5.85-7.86,6.77-12.16c-4.35-0.4-14.58,1.98-13.15-4.45c1.1-4.96,9.99-2.62,14.12-3.36c-1.1-4.49-7.14-6.69-7-12.53  c5-3.72,7.56,2.1,11.78,6.7c2.52-4.4-0.32-10.05,3.41-14.2c6.29,1.6,4.19,8.38,5.26,13.75c3.84-1.86,7.78-9.86,11.49-6.2  c4.13,4.07-4.51,8-6.06,11.87c4.9,0.54,14.98-2.11,14.24,4.71c-0.54,5.04-9.09,2.67-13.81,3.38c1.7,4.84,9,6.36,9.06,12.53  c-5.16,5.21-9.14-1.04-13.81-6.3L60.43,590.77z" />
<path class="cls-5" d="M275.3,633.79c-23.61-9.41-48.18-13.85-73.27-20.44c-9.56-2.51-17.3-8.96-27.37-6.25  c-0.32-0.27-0.84-0.88-1.23-1.06c-1.47-24.63,43.98,10.71,75,3.1C257.88,616.96,270.48,623.27,275.3,633.79z" />
<path class="cls-5" d="M289.49,575.59c-0.97,5.69-9.35,5.44-14.06,3.59c-0.73,0.6-1.48,1.16-2.3,1.58  c-4.71,2.4-34.31-2.03-38.16-5.65c-0.67-0.63-1.23-1.37-1.75-2.14c-17.27-8.09-35.41-20.11-54.84-14.33  c0.52-3.34,2.35-6.7,2.27-10.13c20.53,0.86,33.32-2.16,52.14,12.96C246.95,572.85,271.87,571.04,289.49,575.59z" />
<path class="cls-2" d="M213.49,594.01c24.07,9.39,48.94-1.65,74.7,11.6c3.55-1.49,7.12,3.47,3.53,5.74  c-12.18-6.21-26.81-9.27-41.09-8.4c-52.97,3.23-75.68-33.27-82.14-4.12c-3.8-1.58-2.96-5.47-4.66-8.31  c0.25-1.06,1.52-2.27,1.39-3.43c1.92-4.06,5.79-6.13,11.59-6.2C189.62,581.99,201.84,586.36,213.49,594.01z" />
<path class="cls-4" d="M101.28,621.57c-3.38,1.9-5.42,7.21-9.48,3.94l5.21-8.06c-2.87-0.42-5.49-0.13-7.56-0.77  c-1.2-0.37-1.75-2.85,0.03-3.8c1.9-1.01,4.36-0.14,7.59-0.29l-4.88-9.12c4.7-1.98,5.68,3.16,9.24,5.15l0.53-7.8  c0.12-1.75,3.47-2.26,3.76-0.53l1.22,7.34c3.29-0.98,5.12-7.02,9.11-3.93c0.3,3.92-4.24,5.04-4.74,8.32l7.03,0.49  c1.58,0.11,2.17,2.86,0.55,4.04c-1.52,1.1-4.47-0.29-7.14,1.07c-0.68,1.88,1.84,3.1,2.65,3.75c1.33,1.07,2.86,4.48,0.05,5.06  c-3.61,0.75-4.6-4.69-7.8-4.23c-0.25,3.26,0.37,5.27-0.44,7.32c-0.56,1.41-3.3,1.35-3.89-0.07  C101.48,627.39,102.33,625.91,101.28,621.57z" />
<path class="cls-7" d="M114.86,565.78c3.74-1.62,7.27-0.26,8.7,2.59c1.53,3.03,0.26,6.87-2.93,8.53c-2.64,1.37-6.12,0.42-8.02-2.07  C110.58,572.17,110.84,567.51,114.86,565.78z" />
<path class="cls-6" d="M995.88,366.66c-10.01,8.63-19.96,16.78-32.59,21.17c-4.78,1.41-34.35,6.26-36.81,4.8  c-0.9-0.53-1.55-1.2-1.86-2.22c-2.04-0.06-2.91-1.98-2.62-5.76l-96.52,13.75l-1.73-2.12l-4.11,2.18  c-39.72,7.93-79.46,17.24-117.3,32.02l9.08,17.01l-1.29,2.55c7.11,1.22,6,25.62,3.08,27.87c-2.62,2.02-33.44-10.46-38.59-13.33  l-2.89-3.68l-2.63-1.58c-4.53-11.93-13.19-21.13-25.98-27.58l1.37,17.53l-2.36,1.79c-2.12,1.93-5.42,1.75-9.88-0.55  c-2.8,0.02-4.56-0.93-5.28-2.83c-1.16,0.57-2.43,1.11-3.75,0.93c-2.61-0.36-15.39-3.88-17.85-4.91c-1.69-0.71-3.04-1.74-4.19-3.17  c-3.13,1.87-11.34,0.54-13.81-2.12l-2.48,1.5c-4.51-1.24-9.12-2.06-13.83-2.45l-1.41-2.64c-3.29-1.29-3.27-11.83,0.93-11.68  c6.09-2.66,12.91-3.86,20.46-3.58c15.62-0.25,16.78-1.93,3.48-5.03c-8.57-1.4-17.52-1.42-26.86-0.08  c-15.39-1.02-30.32-4.87-44.77-11.57c-13.08-9.14-41.18,0.56-48.7,12.72c-1.01,1.64,15.65,1.27,17.88,0.56l2.38,2.13  c0.91-0.06,2.31-0.05,2.49,0.57c0.85,2.91,4.68,22.94,3.8,24.26c-0.3,0.45-0.82,0.77-1.39,1.04c2.93,1.57,3.08,2.77-0.29,3.55  c-0.78,0.61-1.57,1.17-2.44,1.59c-5,2.41-38.04-0.92-42.39-4.35c-0.77-0.6-1.43-1.34-2.07-2.11l-2.52,1.78  c-16.92-2.87-51-18.66-28.64-37.37c2.63-2.2,7.38-5.86,10.29-3.3l2.45-2.68c13.49-6.9,28.94-10.66,43.8-13.95  c13.86-3.07,35.12-7.78,48.79-7.52c2.36,0.05,4.6,0.71,6.72,1.72l0.87-2.43c19.16-1.7,38.34-3.39,57.51-5.09l1.6,2.21l2.1,1.95  l-2.36,13.12l18.19-4.22l2.16,1.88l6.23,0.39c24.07,11.25,51.04,18.8,77.65,13.96c-15.67-4.61-8.9-9.65,5.21-13.64  c18.16-6.94,39.71-12.88,58.99-15.21c1-0.12,2.04,0.11,3.12,0.38c1.1,0.28,2.16,0.71,3.21,1.2c1.04,2.67,0.61,5.83-1.3,9.48  c23.62-9.18,35.43-13.77,35.43-13.77l5.85-0.33c1.52,2.02,0.21,4.77-3.94,8.26c11.13-0.29,22.19-1.31,33.17-3.03  c2,1.11,4.37,1.34,7.1,0.69l3.81-1.94c20.71,2.4,42.18,4.55,62.3-2.39l4.26,0.92l9.17-2.68l42.69-1.56  c5.97-6.06,10.22-16.66,10.12-26.19l2.24-2.41l39.13-9.39C1009.47,343.32,998.8,353.79,995.88,366.66z" />
<path class="cls-11" d="M924.61,390.41l-1.84,2.51c-31.51,6.13-72.92,24.18-95.48,47.38c-6.11,6.28-5.45,7.99,3.62,8.07l1.11,2.64  c0.7,7.38,0.4,12.56-2.13,19c-6.47,5.95-18.35,9.66-27.12,9.17c-5.44-6.33-10.89-14.5-17.32-19.89c-0.84-2.11-0.19-4.44,1.95-7.01  c1.13-4.77,3.11-7.46,5.96-8.07l1.64-3.92c5.48-3.74,10.62-7.94,15.47-12.47c12.27-11.45,14.57-14.38,10.87-29.76l2.41-1.78  l100.99-14.39L924.61,390.41z" />
<path class="cls-2" d="M829.89,470c-5.35,13.56-12.55,32.96-0.11,44.11c13.16,11.8,32.5,15,46.69,24.83  c-58.29,11.29-76.93,19.11-135.84,7.16c20.91,0.93,41.09,0.29,62.17-5.53c11.85-3.27,24.49-1.75,35.57-8.93  c-1.77-3.01-5.54-4.81-9.18-6.97c-26.53,5.97-53.32,5.97-81.19,1.67l44.69-10.21c9.51-2.17,18.32-8.57,24.74-17.67  c-17.96,1.63-34.74,4.22-49.85-5.91c13.01-3.14,23.96-8.91,35.2-13.39C811.53,475.68,820.92,472.98,829.89,470z" />
<path class="cls-2" d="M963.28,387.83l-74.36,25.87c-21.12,7.35-36.73,27.49-56.9,37.3c-2.65-0.87-8.47-0.38-10.15-2.11  c-9.84-10.14,64.97-55.98,102.74-58.49L963.28,387.83z" />
<path class="cls-10" d="M878.1,474.72l7.5-0.51l54.65,13.73c11.47-1.15,22.91-3.32,34.31-6.52c11.16-1.75,33.25-1.24,42.54,4.95  c1.22,0.81,1.85,2.2,2.34,3.53c-23.92,8.78-52.17,17.33-77.43,17.48c-22.48,0.13-44.94-5.34-65.47,1.23l-40.76,0.02  C849.58,497.47,861.94,481.99,878.1,474.72z" />
<path class="cls-15" d="M1083.13,513.85c4.2-1.4,8.37,0.52,9.54,4.01c1.4,4.14,0.31,8.91-3.65,10.37c-4.23,1.56-8.58-0.13-10.34-4.28  C1077.11,520.24,1078.51,515.38,1083.13,513.85z" />
<path class="cls-16" d="M940.81,455.85c-0.07,2.75-0.47,6.37,1.92,8.44c1.69,1.47,5.84,2.7,8.97,2.42c50.99-4.5,60.77,2.09,106.34-1.31  c-12.48,8.88-24.07,19.17-38.6,24.5c-41.15-18.13-64.44,4.42-82.3-0.13l-59.05-15.05C898.41,466.55,919.66,460.43,940.81,455.85z" />
<path class="cls-6" d="M1147.14,217.14l-50.34,62.16c-11.85,1.88-23.16,6.6-36.38,7.76c1.96-2.39,5.37-2.97,4.95-8.17  c-13.65,4.46-28.98,3.86-42.28,10.06c-11.32,5.28-20.54,14.43-32.77,17.12l-7.67,4.27c-35.09,11.75-70.67,22.54-106.74,32.37  c-10.45,3.49-20.79,4.82-31,4c-2.04-2.77,2.4-5.61,4.78-3.25l5.98-4.55c47.83-19.87,92.96-45.2,135.39-75.99  c0,0,2.41-0.64,7.23-1.91l4.99-0.96c11.16,3.3,22.66,5.27,34.2,6.44l30.55-42l4.27-1.89l52.99-1.85  C1132.54,220.49,1140.66,219.57,1147.14,217.14z" />
<path class="cls-9" d="M978.43,341.08c0.85,11.11-3.5,22.21-10.89,30.89l-53.33,1.95l1.05-3.24l12.71-7.65  c-25.07-2.02-59.62,0.3-82.35,12.47c-0.71,0.38-1.27,1.06-1.78,1.82c-13.04,3.8-27.68,3.77-43.03,4.96  c-0.42-5.62,4.84-7.06,6.7-10.88c3.26-4.53,7.83-8.23,13.69-11.09c6.22-5.3,12.96-9.64,20.23-13.01c-0.49-3.32,2.17-3.62,3.49-0.6  c30.6-5.23,60.73-13.84,90.82-23.7c18.61-6.1,36.1-12.86,54.6-16.92c-30.61,31.91-38.6,17.87-75.03,39.33  C936.19,346.07,958.02,345.97,978.43,341.08z" />
<path class="cls-12" d="M513.01,140.6c3.08,6.94,11.26,9.55,15.8,16.82l-83.4-14.26c-13.75-12.61-31.7-21.8-40.81-37.86L513.01,140.6z  " />
<path class="cls-13" d="M1092.19,585.78c-4.99,7.99-13.65,2.07-21.19,1.31c-1.14,1.51-2.21,2.31-3.63,1.22  c-1.24,1.76-2.32,3-4.74,2.33c-5.95,0.73-9.6,13.26-15.44,12.22c-2.51-0.45-3.81-2.85-4.06-4.7c-0.76-5.52,8.71-7.3,9.44-13.27  c5.39-3-5.03-3-8.08-3.88c-3.94-0.02-7.08-0.94-7.66-3.99c-0.42-2.2,0.85-6.79,3.98-6.06l17.34,4.06l-4.63-14.97  c-1.05-3.4,1.14-6.25,4.06-6.53c8.25-0.79,4.27,11.8,7.93,19.77l11.95-13.57c2.18-2.47,6.93-0.24,7.61,2.21  c1.9,6.85-12.97,10.89-12.51,17.89C1081.39,581.09,1091.51,577.43,1092.19,585.78z" />
<path class="cls-14" d="M1135.54,560.91c4.67-0.72,7.87,3.1,8.49,6.27c0.9,4.63-2.36,8.21-5.95,8.84c-4.47,0.78-8-1.72-8.84-5.36  C1128.26,566.4,1130.35,561.71,1135.54,560.91z" />
<path class="cls-5" d="M1026.73,202.65l-30.64,5.97l-3.61,2.44c-13.58,1.55-27.08,3.73-40.5,6.54l-4.03-1.83  c-3.13,3.96-12.32,4.57-16.32,1.62l35.28-33.34C988.19,187.11,1010.42,188.07,1026.73,202.65z" />
<path class="cls-12" d="M996.09,208.62c14.98-0.06,29.4,3.6,46.26,2.04c-4.92,6-7.62,11.89-12.3,16.37c-0.59,2.12-1.31,4.26-2.74,5.97  c-4.86,5.81-20.94,24.29-25.81,26.78c-1.01,0.52-2.1,0.89-3.2,1.22c-47.6,30.89-94.07,64.34-148.6,82.45  c-0.91,0.05-2.34-0.12-2.38-0.7c-2.05-26.49-3.4-55.25-4.03-81.95c-1.05-5.09-0.49-9.58,1.68-13.46l-2.15-1.82l2.3-13l2.26-1.57  c7.33-0.85,14.75-1.98,22.04-3.2l2.36,1.05l1.05,69.03l25.91-35.67c3.57-3.81,13.9-12.25,18.78-12.35c2.15-0.05,3.33,0.32,4.42,2.23  l5.84,38.89c7.7-10.26,12.14-22.58,13.47-35.25l3.86-37.2l2.84-2.71C963.94,213.89,979.95,208.68,996.09,208.62z" />
<path class="cls-11" d="M1072.31,222.59l-33.55,46.13c-13.68-0.73-27.53-3.73-40.46-7.72c10.19-11.28,20.68-23.37,31.76-33.97  C1044.01,223.1,1058.12,223.08,1072.31,222.59z" />
<path class="cls-2" d="M401.54,791.29c4.67,29.34-12.87,23.09-34.06,51.62c-3.88,1.87-8.12,1.9-12.31,1.35  c-4.06-1.35-7.11-3.09-9.88-6.29c-3.39-3.91-12.26-19.83-14.94-24.97c-3.82-7.34-6.74-14.64-6.94-22.98  c1.97-12.58,1.66-24.61-0.93-36.11c-3.23-5.37-5.77-10.87-7.6-16.49c0.17-1.55,0.03-3.15-0.38-4.69  C340.84,756,370.91,774.16,401.54,791.29z" />
<path class="cls-4" d="M355.17,844.26c-28.05-3.68-47.36-42.92-45.83-56.73l5.54-50.11c28.04,33.42-4.26,44.03,21.92,81.43  C342.93,827.59,345.7,838.63,355.17,844.26z" />
<path class="cls-13" d="M496.6,829.61l3.36-0.58c22.19,6.7,44.66,12.42,67.41,17.14l5.64,3.19c3.2,0.76,4.56,2.11,4.09,4.05  l-14.51,63.19l-2.6,0.83c-48.48,6.2-97.22-1.5-143.99-15.08c6.76-31.36,11.15-63.82,20.12-94.87  C455.7,816.27,476.23,823.24,496.6,829.61z" />
<path class="cls-15" d="M733.36,883.65l1.95-1.88c2.77,0.23,25.64,7.13,26.36,8.31c0.28,0.46,0.34,1.07,0.33,1.72l-0.33,76.8  c-49.27,4.96-100.83,1.44-145.03-22.8c-19.33-10.6-35.59-24.02-56.65-28.36l14.89-64.79c0.36-1.56-1.27-2.48-1.87-3.29l1.1-2.22  l111.53,14.64c2.68,0.67,5.19,1.59,5.37,4.69c1.57,22.66,4.13,46.69,30.2,53.02c5.58-10.1,11-22.15,10.82-33.85L733.36,883.65z" />
<path class="cls-9" d="M679.26,207.52c1.61,9.03-1.34,18.47,1.63,26.98c3.45-0.3,3.34,3.59,0.1,4.46l1,2.54l2.32,3.7  c1.18,11.21,1.99,25.97,1.97,37.24c-0.01,5.29-0.09,16.55-3.4,20.47c-25.12,4.03-50.42,7.44-75.91,10.24  c0.08-0.31-0.1-0.95-0.1-0.91c-0.38,6.37-2.26,28.56-4.65,32.46c-0.52,0.84-1.17,1.6-1.85,2.34c3.4,4.35-0.34,16.09-4.98,18.69  l-3.02,1.53c-12.23-4.09-24.3-10.9-32.69-20.86c-3.36-3.98-9.59-11.56-6.36-16.16c9.87-9.94,23.67-18.09,30.12-31.49l11.51-95.49  c6.1,3.45,11.9,6.75,16.67,11.06l-4.24,77.24c26.1-24.66,7.81-47.45,40.35-57.92C661.2,229.31,668.82,216.14,679.26,207.52z" />
<path class="cls-7" d="M712.68,213.36l4.18,2.56c5.88,12.28,14.15,20.93,24.81,25.97c13.13,1.09,26.39,2.03,39.76,2.8l2.51,2.67  c0.49,1.56,0.94,3.13,1.21,4.73c0.27,1.58,0.49,3.14,0.39,4.67c-1.07,16.54-2.53,34.89-8.42,50.12l-1.07,3.39  c-11.87,5.37-24.55,8.17-38.03,8.42l-2.84-2.07l-1.59-3.05c-0.87-15.38-0.26-30.84,1.83-46.36c-13.33,10.1-20,15.15-20,15.15  c-5.42,1.26-15.13,2.99-18.22-2.19l-2.12-1.48c3.85-21.82,7.71-43.64,11.57-65.47l2.55-0.98  C710.2,212.57,711.7,213.14,712.68,213.36z" />
<path class="cls-12" d="M709.2,212.23l-12,67.94c0.88,0.24,2.17,0.82,2.05,1.39c-2.44,11.61-6.55,25.83-10.15,37.21  c-0.45,4.81-2.01,7.57-4.68,8.26c-1.04,2.24-2.22,3.56-4,5.03c-8.51,7.07-30.61,16.95-39.98,7.11c-12.18-0.63-24.23,2.29-36.16,8.74  l-3.91-0.86c1.44-11.77,2.5-23.58,4.93-36.05l76.08-9.54c5.64-15.04,0.17-34.98,0.61-59.97l-1-2.54l-0.1-4.46  c-0.21-9.65-0.88-19.31,0.65-29.42C691.67,207.42,700.61,209.3,709.2,212.23z" />
<path class="cls-6" d="M815.9,233.83c6.94-0.3,13.87-0.85,20.86-1.66l-2.05,3.66c-15.1,5.85-30.68,10.17-46.76,12.95l-4-1.41  c-46.36-5.99-45.6,8.4-71.27-34.01l77.72,17.75C799.34,233.15,807.42,234.2,815.9,233.83z" />
<path class="cls-13" d="M897.63,752.17c-20.15-12.1-39.43-25.15-59.24-38.92c-20.12-13.99-38.83-29.06-59.26-41.54  c-4.68-3.69-9.28-7.39-13.79-11.11l-0.11-2.05l3.5-90.36c37.44-0.86,66.71-12.82,105.78-14.45l7.24,57.17  c-28.92,4.19-51.38-6.36-85.87,4.01c2.46,4.16,6.45,7.14,11.01,8.11c27.01,5.72,52.36,14.6,79.09,24.58L897.63,752.17z" />
<path class="cls-10" d="M916.53,767.71c24.3,7.77,43.67,30.68,62.31,49.1c25.76,25.46,41.95,59.37,60.35,90.32  c-1.32-0.93-4.23-1.67-5.78-2.4c-25.36-31.4-52.51-60.21-86.93-81.97c-34.89-20-67.65-42.82-98.27-68.48l-35.95-25.83  c-3.77-2.2-5.85-5.11-6.25-8.73c24.35,11.45,47.21,27.73,72.99,35.97L916.53,767.71z" />
<path class="cls-13" d="M639.63,598.86l-1.53,1.26c-5.19-1.15-10.42-2.32-15.69-3.5c-42.18-14.7-85.88-23.95-128.92-35.14  c0.8-3.17,0.96-6.59,3.04-10.02l75.34-1.74c26.78-0.62,52.57,0.6,78.38,6.53L639.63,598.86z" />
<path class="cls-5" d="M639.63,598.86c28.27,6.31,56.8,10.28,82.61,25.43c16.34,9.59,28.39,23.34,42.99,34.27  c5.02,3.76,10.06,8.44,13.9,13.16c-32.23-19.7-66.19-36.19-101.41-51.11c-18.97-8.04-36.48-17.42-55.32-23.99  C627.73,596.54,634,597.6,639.63,598.86z" />
<path class="cls-8" d="M987.11,629.04c1.45-3.68,4.9-3.19,8.11-1.95c2.84-1.25,5.66-1.03,6.91,2.1c8.14,0.89,15.27-8.25,24.5-2.9  c-5.29,8.22-17.12,3.85-23.83,10.84c6.3,7.4,14.82,3.28,22.81-1.88c4.25,5.37-2.37,7.01-6.57,10.32l6.37,3.36  c2.24,1.18,1.22,4.73-0.23,5.45c-6.02,2.97-7.14-4.06-14.58-0.93c-1.84-4.36-5.79-8.08-11.02-8.32c1.52,8.59,6.51,15.9,5.87,24.16  c-11.63,2.36-6.15-19.54-16.56-22.41c-2.03,1.33-4.24,0.47-6.64-2.59c-0.78-1.39-2.18-1.76-3.82-1.32  c-3.37-0.76-3.95-3.22-1.21-5.34c1.55-0.46,3.18-1.21,4.85-2.35l-21.07-10.8C964.17,614.22,981.93,629.9,987.11,629.04z" />
<path class="cls-6" d="M1002.13,629.19c-5.18-0.57-9.91-0.97-15.03-0.15c-0.88-8.4-8.54-16.04-5.91-25.41  c9.48-2.91,10.71,35.2,17.15,17.04c1.15-3.24-8.69-23.46,0.6-14.76c1.01,0.94,2.02,2.75,3.41,5.54l10.36-7.04l-0.13,11.41  C1048.11,621.42,1000.3,617.57,1002.13,629.19z" />
<path class="cls-6" d="M988.89,646.88c-8.42,3.01,6.76,30.4-3.97,21.09c-0.93-0.81-1.79-2.25-2.46-4.09l-1.01-2.75  c-0.26-0.71-0.68-3.26-1.62-2l-2.35,3.15c-1.21,1.62-2.75,3.59-4.49,3.74c-2.22,0.19-3.79-1.81-3.6-3.34c0.27-2.22,0.89-3.65,4-6.52  c-2.09-2.24-5.3-1.11-7.79-2.22c-2.99-10.07,8.81,0.54,16.66-9.63C986.03,642.34,987.01,646.36,988.89,646.88z" />
<path class="cls-10" d="M1071.01,587.08c-0.38,5.08,11.1,20.1,0.48,21.71c-3.09,0.47-5.94-0.97-6.62-4.97l-2.22-13.18  c0.8-1.29,2.02-2.85,2.96-3.78C1067.47,585.02,1068.69,586.85,1071.01,587.08z" />
<path class="cls-8" d="M917.48,586.55c4.19-0.69,6.38,2.19,6.78,5.03c0.49,3.4-1.66,6.02-4.42,6.52c-3.34,0.61-6.21-1.72-6.94-3.81  C911.6,590.63,913.42,587.22,917.48,586.55z" />
<path class="cls-6" d="M977.23,637.63c0.49,1.76,0.97,3.53,1.21,5.34c-5.44,1.48-12.04,5.05-17.84,1.78  C962.9,637.3,971.51,639.31,977.23,637.63z" />
<path class="cls-5" d="M843.8,822.85c4.01-3.45,11.81,1.91,15.78,4.78c3.97,2.87,11.51,8.59,9.51,13.48  c-0.27,2.2-2.12,3.19-5.55,2.95c8.71,4.7,28.36,15.74,28.84,26.75c0.09,2.09-0.09,3.1-1.6,4.74c-4.56,4.96-34.21-4.37-39.79-8  c-19.56-11.7-40.06-19.03-61.52-21.99c-3.61,0.71-6.6,0.15-8.97-1.69l-2.58,1.48c-11.44-5.65-29.16-10.94-34.64,4.55l-2.52,0.85  c-0.2,1.04-0.55,1.02-1.03,0.02l-2.63,1.14c-4.82-2.26-9.34-5.02-13.54-8.27c-5.34,3.58-11.05,6.52-17.16,8.8  c10.49,5.56,22.38,8.46,33.95,11.25l5.04,3.41l4.21,1.55c3.25,3.26,14.67,17.21,14.79,20.44c0.03,0.83-0.09,1.66-0.26,2.49  c-0.61-0.14-1.54,0.37-2.12,0.21l-28.64-8.14c-0.81,0.87-1.79,1.39-2.96,1.54c-2.79,0.36-20.85-9.46-24.74-11.61  c-27.46-17.17-55.24-33.6-83.33-49.3l-1.22-3.09c-4.82-1.56-13.86-7.19-10.53-12.32c1.34-2.18,3.08-2.57,5.43-2.04  c10.94,2.17,21.8,3.14,32.85,4.03c1.18,0.1,2.08,0.86,2.79,1.8c1.88-3.21,5.58-2.85,11.1,1.06c10.56,9.54,21.97,13.79,34.24,12.74  l6.6-2.62c-4.11-3.28-5.84-6.44-5.18-9.49l0.39-2.6c6.18-2.65,9.94-10,7.7-16.46l1.66-1.98c-0.55,0.17-1.1,0.29-1.63,0.23  c-0.56-0.06-4.39-7.97-5.09-9.57c-0.4-0.92-0.45-1.94-0.49-2.93c1.38-2.37,4.04-3.99,7.97-4.86c6.82-5.52,11.61-5.8,14.38-0.85  c3.68,7.64,6.51,15.64,8.5,23.98c15.25,13.79,39.08,21.1,58.78,25.54c19.52,3.45,38.94,7.35,58.27,11.69  c-1.15-4.16-3.24-7.94-6.27-11.35L843.8,822.85z" />
<path class="cls-4" d="M869.1,841.11l3.11-1.08c14.35,4.74,27.53,11.25,39.54,19.51l0.17,3.43l6.48,3.24  c16.94,16.92,36.89,30.9,60.08,37.6l8.24,4.5l2.18-1.8c16.08,6.53,45.64,24.88,50.75,41.89c0.63,2.08,1.18,5.26-0.44,6.65  c-5.25-1.21-10.26-3.86-15.03-7.95c-16.27-7.96-24.4-11.94-24.4-11.94c-6.34-1.42-11.44-4.05-15.31-7.87l-37.8-12.03l-2.23-1.5  c-0.74-5.82-5.77-9.9-10.92-11.85c-12.99-1.37-25.8-4.07-38.43-8.13c-22.8-2.17-45.46-4.22-67.96-6.16l3.22,14.73l-1.93,2.13  c7.44,34.03-55.77-4.83-64.29-12.89c-5.43-8.72-12.48-16.39-18.74-24.48c-3.26-1.28-3.85-2.26-5.24-5.07  c-1.32-2.66-3.64-9.93-0.42-11.26l1.03-0.02c2.96-1.54,6.15,0.7,6.87,3.71l3.81,2.01c10.17,18.27,22.59,35.72,41.98,44.84  c6.85,3.22,21.9,9.87,28.12,5.79l-2.64-1.93c-0.61-13.28-4.38-25.16-11.31-35.62l-24.53-13.46l-0.33-2.86  c-0.27-2.54-1.38-4.83-3.34-6.87l1.1-2.5c35.2-5.6,68.1,26.64,97.51,29.88l8.18,0.9c2.13,0.24,4.49-1.01,3.91-3.45  c-3.33-14.01-21.77-20.92-34.69-29.31C859.91,841.44,865.51,841.67,869.1,841.11z" />
<path class="cls-2" d="M1039.21,955.06c1.06-0.31,1.6,0.46,1.62,2.29c-0.55,2.18,1.43,6.7-1.06,7.96  c-8.81,4.45-24.66-13.46-35.69-14.5c-11.76-1.11-18.49,9.85-22.63,17.8c-5.69,10.95-3.54,21.29,3.22,32.11  c12.49-6.65,26.46-10.81,39.92-10.31c1.21,3.34,3.47,5.21,6.59,5.4l-20.83,6.12c-22.88,6.72-19.42,23.75-28.94,23.1  c-11.98-0.82-29.8-40.89-4.16-78.15c4.24-6.16,7.42-12.9,7.2-19.58C1004.25,933.59,1023.36,941.66,1039.21,955.06z" />
<path class="cls-5" d="M946.66,915.26c-26.04-8.29-85.07-2.21-118.25-10.78l-4.48-20.49c22.94,5.95,46.14,3.04,68.99,6.99  c12.94,2.23,23.09,7.81,36.52,7.85C937.97,898.85,947.92,907.72,946.66,915.26z" />
<path class="cls-5" d="M949.28,850.66c20.33,8.66,38.36,22.65,53.45,39.6c9.29,10.43,22.02,17.96,29.81,29.65  c7.2,10.8,11.29,25.59,8.29,37.44c-0.87-0.4-1.46-1.35-1.62-2.29c-4.18-23.91-45.44-45.22-52.49-46.74l-7.61-4.15  c-9.28-9.05-18.56-18.1-27.84-27.15l0.41-2.88c-2.79-2-14.4-18.59-14.33-20.28c0.04-1.12,0.49-2.08,1.23-2.91  C941.09,848,944.66,847.91,949.28,850.66z" />
<path class="cls-8" d="M768.75,700.78c29.27,13.15,51.62,44.99,60.98,75.13c0.19,0.62,0.03,1.35-0.17,2.14  c-0.2,0.81-0.56,1.59-0.96,2.36c-0.91,0.64-2.68-0.03-3.56,0.35l-5.05,0.68c-5.87,0.97-9.98-0.21-12.34-3.57l-3.18-2.01  c-7.93-20.85-25.26-33.1-44.53-43.56c-24.33-13.19-49.02-25.61-74.14-37.23c0,0-2.43-2.03-7.3-6.09l-5.23-4.27  c-17.88-30.56-49.8-45.07-83.47-50.42l-45-7.99c-21.66-4.17-56.05-18.45-67.3-38.37c-0.76-1.34-0.59-2.99-0.43-4.46  c17.03,2.25,34.84,0.07,52.39,4.23c7.09,1.68,22.52,40.97,53.93,35.37c9.26-1.65,8.22-14.59,4.6-22.79  c39.58,11.85,75.75,29.82,111.32,50.17C718.66,673.84,744.22,685.49,768.75,700.78z" />
<path class="cls-4" d="M806,719.73c15.31,15.09,35.28,24.72,51.9,39.49c22.47,19.97,46.37,34.64,72.04,50.23  c40.2,24.41,79.3,55.77,103.47,95.28c-10.85-5.08-28.59-32.32-55.51-48.54L892.89,805c-20.85-12.55-41.08-19.96-64.28-24.6  c-8.68-31.79-31.58-62-59.85-79.63C782.33,703.66,793.45,713.83,806,719.73z" />
<path class="cls-16" d="M721.83,760.71l3.21-1.32c8.66,4,17.6,7.17,26.81,9.51l53.06,6.28c1.11,0.48,2.03,1.37,2.74,2.68  c5.81,0.67,11.48,2.98,17.39,2.89c-8.79,3.81-19.38,3.39-29.11,3.58l-1.3,2.37l-16.03,0.31c6.06,6.55,12.83,12.32,20.31,17.31  l1.18,3.81c-0.93,0.96-2.03,1.77-3.38,1.98c-4.93,0.77-20.75-4.86-25.86-7.3c-9.72-4.63-17.98-11.14-24.47-19.76l-44.45-20.33  c-7.49-3.02-15.67-3.97-23.58-2.31l-3.12-1.67l-6.31,1.88c-10.04-0.37-20.7-0.63-30.01,3.69c-3.69,1.71-4.33,2.58-5.36,6.48  c0.2,4.16-0.9,6.78-3.31,7.86c-0.02,0.91-0.1,2.24-0.75,2.44c-3.19,0.99-13.94,2.54-15.41-0.64c-3.97-3.42,0.6-12.29,3.1-16.47  c2.45-4.1,7.55-11.84,12.47-9.71l1.48-3.55c28.01-14.1,59.9-3.18,87.51,6.37L721.83,760.71z" />
<path class="cls-13" d="M795.94,784.34c24.02,6.34,46.92,16.72,70.28,25.37c3.63,2.36,7.33,6.42,6.91,10.86l-3.69,1  c-17.2-7.92-35.06-10.69-53.81-11.18c-4.4,2.61-12.09,1.58-15.52-2.24c-9.4-7.09-19.46-13.9-26.87-23.36L795.94,784.34z" />
<path class="cls-10" d="M949.28,850.66c-3.54,0.41-7.14,0.4-10.71,0.29c-0.77,1.08-1.78,1.78-3.04,2.16  c-8.9,2.7-51.32-22.3-62.15-29.67l-0.27-2.88c-3.42-2.02-5.04-7.6-6.91-10.86C894.68,820.25,925.65,830.74,949.28,850.66z" />
<path class="cls-12" d="M434.42,380.95l1.46,2.73c-1.61,5.95-2.33,12.03-2.17,18.26l-2.42,2.01c-7.56,3.11-19.22,11.33-14.49,19.63  c6.91,12.12,22.56,16.03,35.36,19.26c4.75,4.86,2.81,16.67-2.25,21.3c0.89,3.21-2.14,8.61-5.62,9.04c-0.55,3.48-4.13,2.79-3.62-0.84  l-4.82-1.17c-1.94,0.91-3.99,1.5-6.13,1.45c-14.09-0.27-37.99-6.75-52.17-10.74c-9.85-2.77-38.19-11.01-43.81-17.36  c-0.73-0.83-1.33-1.76-1.9-2.73c-6.77-13.8-2.44-29.65-1.34-44.65c14.15-5.67,30.44,42.49,46.83,52.54  c-7.27-20.28-1.52-37.23,10.72-52.48c49.91-23.54,5.77-50.22,46.49-77.17c0.58,0.91,1.11,1.84,1.5,2.82  c0.37,0.96,0.71,1.89,0.7,2.81C436.63,344.05,436.23,362.75,434.42,380.95z" />
<path class="cls-12" d="M541.35,293.04c0.22,12.72,8.4,24.86,11.96,37.23c5.05,17.53,24.44,30.47,42.07,35.49  c3.39,1.25,1.72,11.71-2.34,10.47l-59.99,5.31l-2.74-1.28c-1.01-5.41-2.79-10.53-5.34-15.36c-5.74,3.27-11.78,5.59-18.13,6.97  c-2.38-1.72-3.57-2.58-3.57-2.58l-6.79-35.7c-2.51,0.54-4.69,0.27-6.55-0.82c-1.07-0.8-2.2-1.75-2.56-3.09  c-0.91-3.43,0.39-19.77,1.15-24.1l2.46-3.08c0.72-0.83,1.46-1.63,2.31-2.29c4.45-3.47,39.49-9.87,45.03-8.37  C539.37,292.12,540.37,292.56,541.35,293.04z" />
<path class="cls-14" d="M508.66,202.77l0.5,3.9c-3.51,7.34-7.16,14.62-10.95,21.83l-4.68,3.02l-1.49,3  c-6.8,3.63-23.3,10.64-30.54,10.82c-4.89,0.12-38.43-20.31-44.08-25.21l-6.34-25.62c-0.75-3.04,1.61-5.03,3.84-5.66l3.9-0.32  c9.69,4.81,19.55,9.28,29.6,13.4c10.65-4.77,50.98-8.25,58.56-1.21C507.62,201.32,508.16,202.03,508.66,202.77z" />
<path class="cls-16" d="M523.55,213.15c-0.64,0.7-1.39,1.27-2.34,1.44c-0.75,0.13-11.66-8.61-12.14-9.2l-0.41-2.61  c-19.68-5.37-40.49-4.69-60.36,1.41c-12.06-5.41-23.61-8.85-33.38-15.33c14.07-8.98,28.07-16.1,40.72-28.09  C481.9,168.55,519.17,181.36,523.55,213.15z" />
<path class="cls-11" d="M541.35,293.04c-16.89,2.07-34.08,4.65-50.35,9.46l-3.63,2.7c-16.04,2.72-31.66,7.17-46.85,13.34l-4.5-0.92  c7.4-20.39,24.68-35.59,46.54-40.21l58.32-12.32L541.35,293.04z" />
<path class="cls-9" d="M491,302.5c-0.22,10.12-2.01,20.15-1.05,30.27l-1.2,3.41c-13.08,5.15-25.42,11.46-37.02,18.93  c-6.69,6.82-11.46,15.07-14.31,24.77l-2.99,1.08c-1.97-20.02-0.32-40.52,0.11-60.91c0.04-1.01,1.19-1.6,1.49-2.42  C454,311.47,472.09,303.88,491,302.5z" />
<path class="cls-2" d="M493.53,231.52l4.22-3.28c7.83,0.47,15.11-0.52,21.85-2.97l2.57,1.07c-0.1,19.51-33.69,33.51-53.21,33.99  c-18.74-10.7-36.86-23.77-51.54-40.19l44.25,22.97C473.6,241.4,483.1,234.92,493.53,231.52z" />
<path class="cls-12" d="M556.76,181.54c0.34,18.33-3.54,34.74-7.04,53c-6.35-18.41-12.42-36.33-15.71-56.62  C542,178.24,548.7,179.96,556.76,181.54z" />
<path class="cls-8" d="M508.66,202.77c5.96,1.63,9.4,7.94,14.89,10.37c0.73,5.28-1.36,9.07-1.38,13.19  c-8.33,6.37-19.37,2.17-28.64,5.19C499.82,222.34,503.27,211.93,508.66,202.77z" />
<path class="cls-12" d="M757.09,475.86c1.03,4.42,2.48,9.62,2.03,14.76c-7.53,1.17-14.29,2.53-20.9,4.47l22.13,6.86  c2.75,0.85,1.53,6.36,1.5,9.51c-32.81,3.43-59.96,18.21-84.8-6.19l-2.68-2.69c-1.61-13.34-3.21-26.68-4.82-40.02l2.16-1.65  c13.24,5.16,25.87,11.52,40.74,15.45c0.47-9.71,1.45-19.22-2.34-26.31l2.13-1.98c15.35,6.73,30.11,15.03,44.28,24.91L757.09,475.86z  " />
<path class="cls-9" d="M823.74,396.28c-0.64,5.84,3.46,13.31,0.63,19.45c-8.3,11.27-19.62,21.08-31.02,28.48  c-0.45,0.91-1.16,1.8-2.12,1.75c-13.67-0.69-21.15-3.14-9.73-17.35c1.08-0.84,9.82-8.03,8.33-7.93  c-6.78,0.47-36.72,7.98-40.55,11.67l6.57,6.57l-0.08,2.92c3.38,10.8,3.13,22.95,1.3,34.02c-12.97-6.07-34.13-24-46.97-25.81  l-11.18-20.93C739.25,414.01,781.69,402.27,823.74,396.28z" />
<path class="cls-9" d="M331.83,441.8c31.85,16.65,68.42,24.19,104.01,29.37l4.82,1.17c0.64,0.79,2.73,0.57,3.62,0.84l2.7-1.69  c9.29,1.24,18.29,3.44,26.99,6.59c0,0,0.6,1.24,1.79,3.71c2.42-2.55,7.14,1.46,5.91,4.42l2.34,1.44c4.99-1.33,11.28,5.98,4.99,9.26  l-50.49-5.35l-4.88-2.87c-13.62-1.44-26.88-6.51-40.79-7.77c2.34,4.99,6.48,7.34,7.55,13c-25.29-6.9-51.52-14.47-70.45-32.33  c-11.59-10.93-23.31-20.55-27.81-37.28C310.6,433.04,321.74,436.53,331.83,441.8z" />
<path class="cls-12" d="M515.39,449.2l2.4,2.42c-0.58,8-0.52,15.96,0.17,23.9c3.71-0.54,5.67,0.33,5.87,2.61  c18.95,7.16,39.78,8.97,60.32,16.59c-55.44,6.85-43.7,16.35-105.03,12.12c-16.61-1.14-36.77-3.95-45.48-18.16l56.41,5.98  c-0.92-4.21-4.61-4.27-6.03-7.01l-2.34-1.44c-2.22-1.11-3.86-3.09-5.91-4.42c-3.28-2.1-4.04-4.01-2.27-5.71  c6.78-2.71,14.38-3.16,22.81-1.35c0.59-6.7,0.72-13.61,0.38-20.71l2.33-1.67c-3.31-1.1-3.32-3.63,0.05-4.63l0.29-3.55  C503.26,441.84,512.98,445.5,515.39,449.2z" />
<path class="cls-14" d="M587.36,438.42c0.92,0.24,2.3,0.65,2.34,1.36c0.65,9.95,0.61,24.06-0.04,33.98c0.75,3.93-0.03,6.44-2.35,7.52  l-63.47-3.16c-2.12-0.8-5.27,0.66-7.81-0.67c-2.11-9.5-0.24-18.93-0.63-28.25l4.01-1.8c14.39,0.95,30.5,7.04,43.47,13.17  c1.2-0.17,1.79-1.21,1.75-3.12l2.28-20.47l2.74-2.16C575.55,436.03,581.89,435.82,587.36,438.42z" />
<path class="cls-11" d="M601.17,440.55c7.2,6.11,14.7,11.95,22.51,17.52l0.78-9.3l2.49-1.07c5.25-0.54,10.07,2.26,15.16,3.38  c1.1,1.57,1.99,3.27,2.28,5.18c0.75,4.9,2.27,27.88,1.29,30.85c-0.32,0.95-0.78,1.85-1.28,2.74c-17.18-8.12-37.86-7.59-57.1-8.55  l0.06-42.86C592.01,437.7,596.92,438.54,601.17,440.55z" />
<path class="cls-9" d="M671.71,460.91l5.34,44.36l-32.66-15.44c-1.37-12.87-2.66-25.79-2.29-38.76c0.21-7.46-1.45-13.69-1.82-24.04  C652.76,435.63,669.74,444.57,671.71,460.91z" />
<path class="cls-2" d="M243.54,387.98c7.79-0.35,14.81-0.26,21.51,0.02c5.07,0.21,11.26,0.88,16.16,2.15  c10.68,2.75,20.4,6.01,31.17,9.51c-12.07,6.97-24.72,5.27-37.04,5.73c-1.93,2.5-8.81,2.24-9.32-1.47  c-7.74-2.5-15.16-3.58-22.35-5.38c-10.78-2.7-20.74-3.96-30.65-8.12C224.02,388.99,233.71,388.42,243.54,387.98z" />
<path class="cls-12" d="M793.35,444.21c-2.33,5.11-3.91,11.13-7.9,15.08c-8.78-7.37-19.21-13.31-29.66-17.45  c-3.62-2.7-6.52-5.97-10.52-10.48c15.76-6.48,32.97-12.41,50.25-13.59c-6.11,10.86-18.32,12.18-16.99,23.44  C783.14,444.09,789.04,442.32,793.35,444.21z" />
<path class="cls-14" d="M676.53,522.1c-26.77,15.85-64.04-9.13-93.21-12.96c18.52-4.07,36.52-1.85,54.38,2.81L676.53,522.1z" />
<path class="cls-11" d="M266.02,403.92c2.6,0.84,5.92-0.12,9.32,1.47c-0.65,11.69,2.38,24.41,10.45,32.92l-26.14-3.21  C262.55,423.77,261.89,412.94,266.02,403.92z" />
<path class="cls-10" d="M477.07,583.48c52.39,72.14,152.17,16.78,201.43,105.51l-3.83,0.84l-19.77-6.83l5.37,8.69  c3.35,4.63,4.29,8.86,2.8,12.67l-3.19,1.64c-20.28-7.25-40.03-15.92-59.23-26.01c-20.02-8.95-42.57-13.62-63.35-4.26l-3.99-0.73  c-0.84,0.13-1.67,0.22-2.5,0.14c-5.37-0.46-22.6-20.16-26.44-25.72l-0.52-4.48c0.47-1.98,2.01-2.8,4.61-2.45  c-17.34-11.92-35.64-22.68-54.91-32.27c-9.45-5.78-18.79-12.23-25.92-20.81c-4.12-4.95-11.14-13.87-8.2-19.88  C437,578.79,457.37,580.87,477.07,583.48z" />
<path class="cls-8" d="M419.44,569.54c10.86,37.94,66.3,49.01,94.51,73.93c-3.48,1.51-7.03,1.63-10.09,1.48  c-0.81,0.55-1.65,1.07-2.54,1.43c-7.23,2.96-38.76-4.69-47.83-7.58c-15.27-4.85-31.38-11.37-41.92-23.76  c-4.5,2.51-9.97-9.56-11.5-13.57l-1.3-5.11l-2.32-1.56c-2.04-6.03-2.52-11.65-1.44-16.85c-0.93-0.15-2.3-0.37-2.48-1.08  c-0.45-1.82-2.44-18.63-2.15-19.57c0.29-0.92,1.26-1.47,2.15-1.93L419.44,569.54z" />
<path class="cls-14" d="M382.16,549.5c1.95,7.85-7.88,7.44-13.87,6.79c-12.49-6.17-24.83-7.21-37.01-3.12l-3.12-1.2l-1.79,2.28  l-11.78-1.06c-4.74-0.12-7.28-1.65-7.61-4.59c-29.49-23.68-12.38-26.3-54.87-40.01c15.16-7.91,35.82-9.86,51.92-1.91  c9.06,4.47,28.87,36.85,58.86,24.57C370.07,537.78,377.28,542.86,382.16,549.5z" />
<path class="cls-10" d="M382.16,549.5c4.16-0.31,7.22,4.22,10.36,5.87l2.48,22.59c0.11,7.62-7.12,14.36-14.27,16.37  c-13.69-10.75-28.66-18.13-44.91-22.15l-2.9-2.79l-2.63-1.14c-1.69-3.23-5.94-14.57-2.13-16.28  C357.39,538.45,370.84,565.4,382.16,549.5z" />
<path class="cls-8" d="M331.69,569.53c2.7,2,0.19,6.63-2.56,7.85c1.51,3.07-1.14,6.69-4.5,6.27l-1.07,2.22  c-15.92,1.36-7.76,20.36,1.11,25.98l0.02,2.76c4.48,2.26,11.55,12.35,4.84,14.55c-7.04-0.46-11.88-6.96-18.13-9.32l-2.87-2.48  c-5.94-15.37-16.97-26.86-31.43-34.59l-1.67-3.59c4.77-0.09,9.86-1.88,14.06-3.59c1.37-0.56,3.44-1.14,4.9-1.49  c9.36-7.2,23.86-8.72,35.47-7.37L331.69,569.53z" />
<path class="cls-13" d="M328.16,551.97c0.3,6.15,3.76,11.45,4.76,17.42c-0.3,1.08-0.71,1.13-1.23,0.14  c-12.45-3.26-24.96,1.55-37.3,4.56c5.61-7.78,10.12-16.22,12.6-25.5C312.87,551.35,321.9,551.74,328.16,551.97z" />
<path class="cls-1" d="M112.71,445.72c2.85,8.31-0.32,18.35-7.61,22.6c-6.77-6.74-3.39-15.94,0.29-23.19L112.71,445.72z" />
<path class="cls-7" d="M947.96,215.77c-6.32,34.97,0.88,52.57-21.64,81.15l-6.81-45.32c-9.25,2.95-16.9,8.57-22.43,16.34l-26.49,37.25  l-1.18-77.44l62.22-10.35C936.87,216.53,942.66,216.4,947.96,215.77z" />
<path class="cls-9" d="M847.38,230.94c0.59,5.4-2.01,11.24-2.4,16.4c-2.08,3.35-4.28,6.68-7.14,9.42  c-12.51,12-25.28,23.99-38.04,35.72c-2.91,2.68-6.4,4.62-9.87,6.47c-0.02,4.75-9,10.23-12.8,7.95c2.8-19.8,5.42-39.56,6.82-59.52  c17.7-4.64,37.27-6.84,52.81-15.2L847.38,230.94z" />
<path class="cls-2" d="M427.67,700.53c3.49-1.8,9.17,7.54,8.51,10.58c2.81,2.4,4.65,5.95,5.52,10.65  c10.12,18.49,20.17,37.05,30.15,55.69c14.28,24.43,54.63,46.14,82.29,51.15c4.81,0.87,12.28,1.61,14.11-4.02l2.51-0.6  c-1.93-1.17-2.74-3.36-2.44-6.55c-1.71-4.29-1.67-7.55,0.13-9.79l5.66-0.25l19.54,6.17c9.72,1.44,18.89,3.98,27.49,7.64  c27.26,11.4,84.47,54.56,112.24,62.46c5.1,3.83-7.02,34.4-11.21,38.51c-32.32-8.95-30.55-31.92-33.74-57.65l-115.41-15.15  c-26.1-3.43-51.35-11.91-76.41-19.75c-15.27-16.38-31.02-31.65-39.76-53.44c-8.15-20.29-20.59-37.21-35.75-51.93  c-7.27-2.12-4.66-13.86-1.72-18.98C420.99,702.44,424.95,696.93,427.67,700.53z" />
<path class="cls-5" d="M395,577.96c0.67,6.11,4.16,12.07,3.77,18.41l1.81,5.67c-2.53,14.13-6.51,27.88-11.96,41.25l-3.38,2.61  l-3.29-0.17c-4.24-6.13-8.73-12.01-13.47-17.67l-6.97,15.74l-2.82,0.59c-7.4-2.13-14.57-7.39-20.19-12.64l0.01-2.6  c7.5-3.14,13.63-7.62,18.39-13.44c-5.7-0.48-11.64,0.14-17.83,1.84c-6.33,1.62-11.13,0.64-14.39-2.95  c-8-4.55-14.03-14.73-11.98-24.61c0.8-3.84,8.54-7.15,11.92-6.34c5.19-3.68,13.77,2.48,18.29,6.13c3.61,5.97,16.31,17.06,9.79,2.78  c-3.78-8.27-13.16-12.43-21.87-12.81l-1.71-2.37c-0.31-2.89,1.35-5.32,2.56-7.85c0.38,0.1,0.84-0.19,1.23-0.14  c17.76,2.14,33.21,11.63,48.14,22.87C387.57,589.29,391.58,583.46,395,577.96z" />
<path class="cls-9" d="M385.25,645.91l2.68,1.69c1.4,7.83,4.03,12.69,10.77,16.71c11.7,4.05,21.62,10.5,29.77,19.37  c4.01,3.56,5.73,7.25,5.15,11.09c0.46,3.26-2.61,6.66-5.96,5.75c-7.75,3.06-11.57,16.41-6.58,23.71  c-11.52,1.59-43.66-34.86-46.83-42.72c-5.04-12.51-11.53-24.59-15.56-37.11l9.18-20.73C374.51,629.7,379.13,639.44,385.25,645.91z" />
<path class="cls-6" d="M454.72,780.43c-55.24-5.51-67.25-15.54-111.93-41.34c-3.96-6.61-2.79-15.25-2.64-20.98  c16.12-4.1,28.03-1.23,38.39,9.6c8.86,10.6,21.94,13.24,33.45,19.56C428.07,756.12,439.74,770.42,454.72,780.43z" />
<path class="cls-5" d="M326.87,668.05l-1.05,3.13c-11,3.08-21.67,6.85-32.03,11.32l-3.09-0.66c-33.3-24.02-56.78-21.48-70.68-52.22  c44.49-0.31,56.17,33.92,68.8,35.04L326.87,668.05z" />
<path class="cls-6" d="M290.7,681.85c10.28-8,24.43-7.56,36.17-13.79c7-3.54,18.62-2.1,25.74-9.54c1.79,7.42,0.56,20.83-7.21,22.79  l-40.83,10.3C298.45,693.15,294.53,684.61,290.7,681.85z" />
<path class="cls-9" d="M338.51,631.77c-2.74-0.18-5.49-0.49-8.1-1.35c-0.33-0.39-0.62-0.82-0.87-1.26c2.5-5.49-3.9-9.3-4.84-14.55  c13.31,3.94,28.64-4.56,33.36-0.96C364.63,618.65,341.49,630.43,338.51,631.77z" />
<path class="cls-14" d="M233.22,572.97c13.75,4.14,27.72,6.47,42.21,6.21c17.68,9.42,30.21,20.95,35.97,40.66  c-6.77-2.55-13.26-5.21-19.68-8.48c-0.14-2.49-2.34-3.87-3.53-5.74c-14.74-23.04-56.01,1.37-79.18-32.49  C216.8,573.73,225.93,570.78,233.22,572.97z" />
<path class="cls-10" d="M213.49,594.01c-17.92-2.61-27.83-18.01-48.27-6.91c-0.52-4.58,2.48-8.62,6.07-9.97  C187.31,571.11,201.18,583.98,213.49,594.01z" />
<path class="cls-14" d="M533.06,381.53c-34.58,3.06-69.65,9.2-101.77,22.42c0.32-7.6,0.06-15.86,3.13-23  c3.91-9.09,6.91-19.65,14.73-26.7c11.88-10.72,27.72-13.5,40.8-21.48c2.1-1.28,5.07-1.46,8.3-2.54l7.49,39.39  c8.07-0.6,13.24-5.15,20.09-7.73C530.2,368.1,531.38,375.13,533.06,381.53z" />
<path class="cls-9" d="M769.8,358.46c0.1-3.51,6.57-3.18,7.07,0.17c4.85,2.68-3.69,14.31-6.61,17.4l-2.73-0.01  c-27.13,2.96-53.2,11.11-78.8,21.24c3.91,2.98,10.4,2.7,13.85,7.41c-31.59,7.21-62.34-2.35-89.45-15.73l1.72-2.91  c12.12-5.89,24.5-11.08,37.13-15.58l2.96,1.89c9.28-3,19.02-4.82,29.21-5.46c26.57-5.5,53.35-9.1,80.34-10.8  C764.49,356.08,766.26,356.88,769.8,358.46z" />
<path class="cls-14" d="M677.42,356.35l0.76,2.88c-3.13,5.56-17.18,10.93-23.25,13.12c-14.7,1.88-27.69,13.11-41.81,16.61l-23.79,5.9  c2.41-7.7,2.9-12.87,3.72-18.64c1.64-2.96,1.45-7.24,2.34-10.47c1.68-6.11,4.2-12.26,4.98-18.69c68.89-30.31,22.87,16.1,84.05-20.03  l1.85,2.29l-2.92,18.96C682.7,353.49,680.73,356.18,677.42,356.35z" />
<path class="cls-9" d="M570.57,423.15c-1.21,3.76-0.22,7.93-0.93,11.68c-1.82,9.61-1.14,19.3-4.29,29.76  c-16.63-9.41-32.78-13.05-49.96-15.39c-5.52-0.75-10.86-3.2-16.04-5.03l-4.9-25.87l3.12-2.62c23.37-0.55,46.67,1.09,69.91,4.93  L570.57,423.15z" />
<path class="cls-11" d="M570.57,423.15c-34.51-1.94-41.06-8.08-76.13-4.85c-8.28,0.76-16.73,1.89-24.97-0.89  c9.61-11.93,26.48-21.77,41.19-20.76c31.5,8.53,38.44,19.11,74.22,14.24c9.72-0.8,20.42,6.29,30.11,7.27  C599.81,421.53,585.19,422.75,570.57,423.15z" />
<path class="cls-2" d="M914.21,373.92c-23.31,9.23-46.66,5.99-70.37,3.4l-6.08-0.66c30.64-15.5,63.1-18.67,96.98-16.08  C927.9,366.74,921.07,370.17,914.21,373.92z" />
<path class="cls-12" d="M841.43,347.3c-10.13,9-21.7,17.69-33.92,24.1c-14.36,7.54-29.54,13.05-46.02,18.02  c2.53-5.13,3.8-9.43,6.04-13.39c3.17-5.62,8.8-10.57,9.34-17.39l3.76-2.34c19.06-1.96,37.91-5.5,56.56-10.61L841.43,347.3z" />
<path class="cls-11" d="M499.06,447.72c-0.12,1.51-0.06,3.1-0.05,4.63l-2.55,2.52c-15.54-0.3-29.89,2.94-43.06,9.71l-3.5-0.43  c2.39-6.86,2.59-14.08,2.25-21.3C467.35,446.68,483.64,447.96,499.06,447.72z" />
<path class="cls-13" d="M626.95,447.69c-0.74,4.96,0.26,10.22-2.48,14.43c-8.36-8.56-19.84-11.87-23.3-21.57  C609.89,442.12,618.91,443.96,626.95,447.69z" />
<path class="cls-14" d="M849.7,343.45l-4.78,3.25l-3.49,0.6c-21.56,3.68-42.97,11.87-64.56,11.34l-7.07-0.17l-2.08-3.05  c0.06-9.53,1.31-18.83,3.75-27.92c10.53-4.82,17.44-13.09,16.44-25.07l2.02-3.48c17.74-17.68,36.12-35.12,55.05-51.61L849.7,343.45z  " />
<path class="cls-11" d="M735.18,316.63l2.31,1.54c-2.06,21.56-28.73,48.29-51.09,44.24c-3.58-0.65-9.59-1.8-8.97-6.05  c5.73-8.42,4.43-19.95,6.99-29.33l12.79-46.85c27.82,4.71,18.64-7.7,41.4-16.99C735.95,281.92,734.96,299.32,735.18,316.63z" />
<path class="cls-12" d="M789.92,298.95c1.88,13.67-3.29,24.3-16.74,29.9c-2.67,10.32-2.44,20.11-3.38,29.62  c-37.9-0.92-76.28,12.11-114.87,13.88c6.38-6.54,17.08-8.05,22.49-15.99c24.32,16.12,58.02-19.2,57.76-39.72  c14.28-1.51,29.97-1.89,41.94-9.73C780.99,304.36,786.66,302.2,789.92,298.95z" />
<path class="cls-4" d="M494.73,707.68c3.77-0.45,7.74,0.57,11.91,3.05l10.46,2.8c38.68,4.13,76.92,13.39,109.54,35.74  c0.72,0.5,1.24,1.31,1.77,2.18c0.54,0.88,0.93,1.85,1.28,2.85c-9.04,5.56-14.39,16.05-15.58,26.18c-2.08,2.5-4.12,5.08-6.11,7.74  l-1.41,4.73c0.33,2.93-0.22,5.37-1.63,7.32c3.42-0.66,3.62,1.94,2.6,4.54c3.32-1.25,4.19,1.34,3.03,4.06  c1.99,4.39,6.96,8.92,10.53,12.32c-18-2.46-35.93-6.49-52.68-13.56c-2.96-1.36-4.46-4.53-4.51-9.52  c-1.09-27.01-13.23-49.19-36.71-62.96c-18.55-8.82-36.12-19.21-52.71-31.18c-13.34-7.96-22.06-9.31-32.11,4.66l-3.96,1.54  c1.36,2.98-0.33,3.46-2.27,0.94c-3.92-2.56-5.35-7.27-8.51-10.58c1.48-1.92,3.68-4.72,5.96-5.75c2.41-5.99,14.05-7.06,20.31-7.09  c6.31-0.03,11.58,1.21,17.43,3.45C478.68,693.94,490.49,701.23,494.73,707.68z" />
<path class="cls-10" d="M800.1,808.14c5.11,0.49,10.5,1.15,15.52,2.24c3.94-0.1,7.79,0.19,11.55,1.42c5.13,1.68,14.79,6.3,16.64,11.04  c3.32,4.97,8.05,9.35,7.54,17.04c-43.41-12.62-84.38-9.35-121.3-39.11c-4.15-9.36-4.15-20.41-11.6-27.69  c-5.45,3.91-11.35,7.34-17.48,7.96l-1.78,1.87c-6.1-1.88-10.7-0.84-13.78,3.11c0.43,2.06-0.84,4.23-3.79,6.49  c0.73,3.17,0.38,5.45-1.04,6.86c0.47,2.18,0.41,3.88-2.09,4.52c0.47,4.7-9.55,4.35-11.66,1.29c-5.64-0.34-11.22,0.14-16.75,1.44  c-11.29-0.2-22.41-2.62-33.38-7.24l-5.63,0.02c-2.52,1.56-4.56,1.84-6.09,0.85c-2.74-7.04,1.14-18.9,9.15-19.79l16.15-1.8l2.03-2.59  c14.15-0.4,24.72-7.26,35.67-15.41l7.29-1.91c10.15-2.73,20.16-1.68,30.17,2.92l42.67,19.59  C760.34,798.32,780.05,806.21,800.1,808.14z" />
<path class="cls-6" d="M873.12,820.56l24.04,14.23c13.27,7.86,26.2,15.67,41.41,16.15c3.49,8.2,10.64,14.55,13.1,23.19l-4.16,0.85  l-15.22-5.42c-7.25-1.36-14.04-3.56-20.38-6.6c-10.62-11.08-29.8-15.16-42.82-21.87c-5.54-8.96-15.06-15.85-25.3-18.26  c-9.21-4.54-18.08-10.27-28.19-12.47C834.41,805.89,855.06,812.96,873.12,820.56z" />
<path class="cls-9" d="M678.48,803.9c2.02-0.03,3.7,1.22,5.04,3.74c3.82,2.9,8.35,4.32,13.58,4.26l1.32,2.46l8.99,10.29  c-27.53,16.23-42.82-13.97-55.76-11.99c-3.41,0.4-3.34-3.44-0.08-4.22c-0.02-0.58,0-1.14,0.2-1.64c0.49-1.24,12.61-2.51,15.04-1.61  C670.42,804.42,674.5,805.65,678.48,803.9z" />
<path class="cls-9" d="M739.73,850.77c1.05,5.05,2.27,11.96,5.65,16.33c-15.72-2.95-31.21-7.93-45.99-14.59  c9.25-3.46,17.1-5.69,23.73-12.62C728.06,845.48,734.23,847.24,739.73,850.77z" />
<path class="cls-6" d="M780.5,843.86l3.54,5.01c1.23,1.74,0.46,3.45-1.3,4.36l-2.54,1.29c-7.17-3.65-16.1-7.98-23.89-3.75l-2.49-1.12  c0.92,3.41-3.17,5.53-6.18,4.81c-2.74-0.13-4.82-2.03-6.87-3.71c0.81-6.52,6.22-11.78,13.89-13.21  C763.24,835.94,772.44,840.63,780.5,843.86z" />
<path class="cls-8" d="M698.42,814.36c-8.95-0.68-16.58-1.55-19.95-10.46c-0.08-1.77-0.08-4.3,2.09-4.52l3.02,0.56  c5.74,7.02,14.77,1.16,19.56-3.87c-0.1-2.94,2.53-3.88,5.02-2.75C712.13,800.69,707.11,811.91,698.42,814.36z" />
<path class="cls-10" d="M651.58,808.44l0.08,4.22c-13.95,2.13-27.11-3.64-41.07-3.8c-1.77-0.29-1.93-3.37-3.03-4.06  c-2.65-4.85,3.64-5.96,7.88-5.6c11.29,4.37,22.69,6.86,34.19,7.47L651.58,808.44z" />
<path class="cls-15" d="M700.96,781.05c5.63,2.29,5.16,8.46,7.21,12.27c-1.23,1.58-2.99,2.69-5.02,2.75c-2.2,0.53-4.16-0.66-5.9-3.57  c0,0-2.17-1.33-6.51-3.99c-2.67,0.13-4.45-0.7-5.33-2.47c-0.55-4,2.26-6.53,5.63-6.16C694.22,780.22,697.96,779.82,700.96,781.05z" />
<path class="cls-10" d="M782.74,853.23l26.38,14.58c9.24,10.64,10.53,26.26,12.42,39.29c-0.82,0.85-1.79,1.81-2.92,1.8  c-7.29-0.09-25.74-7.15-30.68-12.46c-1.25-1.35-1.98-2.26-1.35-4.38c0.59-2.59,2.42-4.7,5.47-6.33c7.78-8.21,6.06-10.42-3.35-16.33  c-8.3-5.21-16.74-9.55-26.54-11.12l-3.65-2.83c-3.14,1.73-7.37-2.91-4.72-5.79C761.9,843.39,773.48,848.11,782.74,853.23z" />
<path class="cls-9" d="M951.67,874.14l35.05,34.18c-30.38-6.53-53.48-23.1-74.8-45.35C925.26,864.13,939.16,869.01,951.67,874.14z" />
<path class="cls-15" d="M753.81,849.65c0.83,2.4,3.48,3.76,4.72,5.79l3.98,2.09c5.54,10.08,11.78,19.66,18.73,28.72  c3.11,1.57,4.9,3.5,5.36,5.8c9.03,9.05,22.38,13.06,34.95,15.05c0.13,0.87,0.33,2.13-0.12,2.76c-0.53,0.75-2.04,1.49-3.61,1.23  c-37.22-6.11-53.34-26.2-70.17-56.63C749.03,851.88,751.86,851.15,753.81,849.65z" />
<path class="cls-4" d="M678.5,688.99c31.81,15.29,64.16,29.98,94.59,48.26c16.11,9.67,29.27,23.96,34.56,40.63l-51.95-6  c-13.22-1.53-23.14-7.36-33.87-11.16l-3.72-3.09c-0.82-4.64-2.63-8.62-5.44-11.96l-35.93-16.37l-0.6-2.84  c-5.01-3.29-9-8.03-11.99-14.23c-2.56-3.12-2.92-5.74-1.08-7.86c-3.1-9.7-7.64-17.26-14.76-26.26  C659.45,682.48,669.36,684.59,678.5,688.99z" />
<path class="cls-5" d="M503.85,644.95c8.59,11.11,17.89,22.05,29.46,30.05l4.31,1.55c10.37,12,24.34,22.32,39.57,27.15  c20.1,6.37,41.28,10.57,62.21,14.58c12.8,1.33,25.04,4.05,36.74,8.17l36.43,16.46c6.21,2.81,6.44,12.33,9.26,17.8  c-27.55-9.74-64.89-23.19-92.14-6.42c-29.5-21.62-66.5-33.14-103.09-37c-11.95-1.26-22.71-3.95-31.86-9.61l-3.01-3.78  c-4.65-15.8-19.45-22.51-34.83-24.41c-13.43-20.65-28.24-40.29-44.42-58.9c0,0-0.3-1.84-0.9-5.53  C438.63,635.09,470.44,643.38,503.85,644.95z" />
<path class="cls-14" d="M675.25,758.75c-22.96,14.4-20.22,17.15-44.99,19.92c0.7-4.62,0.21-12.55,5.39-15.33  C647.83,756.78,662.25,757.88,675.25,758.75z" />
<path class="cls-13" d="M499.01,452.35l0.23,24.59c-4.19,1.2-30.39-4.99-23.47,4.85c-9.19-5.98-20.94-5.47-31.48-8.61  c1.2-2.89,2.89-7.03,5.62-9.04C463.81,453.9,481.97,453.52,499.01,452.35z" />
<path class="cls-13" d="M440.66,472.35c-1.57-0.22-3.96,0.46-4.82-1.17C437.66,471.44,439.29,470.65,440.66,472.35z" />
<path class="cls-8" d="M663.07,704.36c2.49,7.79,9.32,14.97,13.07,22.09c-30.1-4.03-60.18-9.75-90.01-17.56  c-22.15-5.79-39.1-16.6-52.81-33.89C580.8,651.62,622.77,695.38,663.07,704.36z" />
<path class="cls-10" d="M411.57,615.05c14.61,22.55,31.45,34.21,46.59,62.7c18.66,1.25,34.36,12.3,36.57,29.93l-18.13-11.21  c-13.75-8.5-28.9-8.11-42.97-1.7c-22.6-36.23-43.19-16.65-48.38-48.87c5.54-16.41,12.45-32.05,13.52-49.54  C404.5,601.31,405.27,610.38,411.57,615.05z" />
<path class="cls-15" d="M324.63,583.65c1.16-2.32,2.73-4.39,4.5-6.27c14.88-0.12,28.94,9.36,27.64,25.72  C340.37,599.8,349.35,589.51,324.63,583.65z" />
<path class="cls-8" d="M450.84,713.48l3.88,3.23c17.14,48.16,48.66,90,100.24,101.94l2.88,2.97c1.52-3.49,12.37-1.35,12.91,2.35  c-2.99,20.12-51.99-6.01-61.12-10.35c-22.37-10.64-36.18-24.79-46.4-47.69c-8.38-18.76-23.6-34.99-27.06-54.82l2.27-0.94  C441.96,705.53,450.2,707.97,450.84,713.48z" />
<path class="cls-10" d="M568.44,807.63c1.36,5.41,3.13,10.87,2.32,16.34l-12.91-2.35c-3.17-1.47-5.66-4.43-1.46-5.99l-1.77-3.55  c-0.19-10.84-0.76-23.52-2.99-34.16c-5.3-25.35-23.74-33.11-45.72-40.5l-0.68-2.99l-3.39,0.67c-8.44-5.87-16.42-12.28-23.92-19.24  c-8.28-6.16-14.61-5.84-23.97-1.3l-3.11-1.08c-3.92-2.15-8.25-5.01-12.39-3.3c22.87-34.15,38.21-0.4,83.95,19.95  c25.63,11.4,41.63,35.69,43.36,63.15C566.12,798.82,567.3,803.1,568.44,807.63z" />
<path class="cls-1" d="M340.55,604.98c-4.53,1.82-9.67,3.97-12.95,2.49c-2.8-1.26-6.85-5.65-6.55-8.79c2.04-2.59,8.44-3.92,11.77-1.88  C335.47,598.43,339.47,601.73,340.55,604.98z" />
<path class="cls-2" d="M666.82,805.19l-15.24,3.25c-13.21,2.82-41.04-14.88-44.02-3.64c-1.7-1.07-1.88-2.7-2.6-4.54  c4.26-3.32,10.31-4.11,15.7-1.46C646.83,811.68,656.94,799.28,666.82,805.19z" />
<path class="cls-5" d="M703.15,796.07c0.74,5.72-5.83,7.58-10.27,9.02c-5.31,1.73-10.17-1.08-12.31-5.71c-0.9-1.95-2.04-6.12-1-7.94  c0.99-1.73,3.91-4.57,5.83-5.41C693.49,784.72,698.74,789.69,703.15,796.07z" />
<path class="cls-13" d="M786.59,892.05c-5.75-1.74-9.92-6.58-13.2-12.01l-14.86-24.6c14.31,1.26,29.46,9.04,40.43,19  C800.91,882.38,792.81,889.28,786.59,892.05z" />
<path class="cls-15" d="M505.22,734.43l2.02,3.53c-2.16,20.62,5.11,35.41,19.48,49.35l28.9,24.59l0.76,3.72  c-0.43,1.89,1.36,4.14,1.46,5.99c-27-4.91-56.62-23.35-74.37-46.01c-14.66-18.72-24.12-41.63-32.64-62.13  C477.21,699.99,478.54,718.55,505.22,734.43z" />
<path class="cls-14" d="M556.38,815.63c-29.12-26.24-56-37.37-51.16-81.19c10.53,6.27,47.35,8.54,50.05,53.36  C555.85,797.49,558.46,806.53,556.38,815.63z" />
<path class="cls-2" d="M699.02,797.64c-6.61,3.26-13.49,4.45-14.96-2.39C683.19,791.16,694.76,791.31,699.02,797.64z" />
<g>
</g>
<g>
</g>
<g>
</g>
<g>
</g>
<g>
</g>
<g>
</g>
<g>
</g>
<g>
</g>
<g>
</g>
<g>
</g>
<g>
</g>
<g>
</g>
<g>
</g>
<g>
</g>
<g>
</g>
</svg>