<?xml version='1.0' encoding='UTF-8'?>
<svg xmlns="http://www.w3.org/2000/svg" id="Layer_1" viewBox="0 0 1200 1543" xml:space="preserve" width="1200" height="1800">
<style type="text/css">
      .cls-1 {
        fill: #332724;
      }

      .cls-2 {
        fill: #50311c;
      }

      .cls-3 {
        fill: #3c5349;
      }

      .cls-4 {
        fill: #895a3a;
      }

      .cls-5 {
        fill: #787ec5;
      }

      .cls-6 {
        fill: #59b7bc;
      }

      .cls-7 {
        fill: #73b5a6;
      }

      .cls-8 {
        fill: #d5ad77;
      }

      .cls-9 {
        fill: #b1b7e4;
      }

      .cls-10 {
        fill: #cccabb;
      }

      .cls-11 {
        fill: #cacfee;
      }

      .cls-12 {
        fill: #f1daa7;
      }

      .cls-13 {
        fill: #e7e2cb;
      }

      .cls-14 {
        fill: #dee9ec;
      }

      .cls-15 {
        fill: #f8eed6;
      }

      .cls-16 {
        fill: #edeff9;
      }

    </style>
<path class="cls-15" d="M841.07,0H1200v310.25c-2.1,1.44-4.95,1.16-8.55-0.83c-9.82,0.19-19.91,1.1-30.27,2.73  c-16.37-1.78-32.63-1.78-48.77-0.02c-5.68,2.43-10.93,3.28-15.75,2.55c-1.42,0.05-2.67,0.76-3.02,2.25  c-0.44,8.01-2.56,14.94-6.34,20.78c3.65,3.26,0.77,18.28-2.59,19.62c-3.9,1.55-9.37-13.86-5.24-16l-2.85-0.72l-4.52-25.31  l-4.52,26.39c0,0-1.29,2.14-3.88,6.42c0.97,0.47,2.43,1.2,2.35,2.01c-0.4,3.96-5.44,30.59-6.85,31.81c-3.49,3-34.26,5.76-38.39,0.88  c-3.07-3.63-1.81-7.4,1.61-10.21c-4.86-7.12-5.32-12.98-1.38-17.58c-4.32-4.85-7.33-14.1-1.31-18.44  c-7.85-9.24-8.11-15.21-0.77-17.9c0,0-1.74-8.3-5.23-24.9c-0.46,10.04-2.18,19.8-5.17,29.29c7.83,2.46,4.25,13.65,0.1,18.71  l3.14,3.53c0.85,9.64-3.13,17.76-11.95,24.38c13.62-12.1,11.05,8.76,6.03,16.15c-3.94,5.82-14.29,8.33-19.49,3.65  c-0.08,4.6-9.1,6.78-13.21,7.07c-9.68,0.67-15.22-5.86-6.83-11.81c-4.56-6.48-6.74-13.25-6.54-20.32c1.64-1.23,1.45-3.64-0.54-7.22  c0.38-1.79,1.58-3.17,3.6-4.17l-5.95-18.46l2.12-2.67l-2.67-2.7c0.41-0.48-0.02-33.06-1.07-30.48c-2.71,6.61-2.74,20.54-1.27,27.7  l-1.84,2.91c2.72,2.38,1.97,6.32-2.26,11.82c5.3,5.83,1.33,11.72-3.02,16.77c8.44,3.22,3.25,13.42-2.38,17.69  c9.56,1.47,3.63,13.85-2.23,17.87c4.31,2.97,7.22,5.28,1.74,8.9c-6.75,4.47-22.82,6.42-30.47,4.02  c-3.79-1.19-18.7-11.03-20.27-13.72c-1.59-2.73-0.35-9.26,2.29-10.93c-4.55-9.56-8.03-20.86-4.55-31.3  c-2.54-4.45-3.55-9.82-3.03-16.09c0.85-4.22,0.62-8.55-0.69-12.98c3.12-0.63-0.43-10.34-0.68-9.87c-0.59,1.1-4.46,23.53-3.92,24.66  c9.54,11.58-2.87,23.36-13.79,28.51l-2.58-1.55c-1.37,4.76-10.36,2.63-13.16-0.22c-12.01-2.88-20.21-16.69-9.9-27.23l-3.9-3.73  c-0.02-1.86-0.72-19.65-1.12-18.79c-0.61,1.31-3.78,27.22-3.53,28.77c4.6,6.87,2.38,14.79-2.84,20.57l3.41,2.16  c1.69,8.12-1.68,15.76-10.13,22.92c7.97-2.37,8.76,2.75,2.39,15.36l-2.17,14c-3,1.05-3.55,3.56-1.67,7.52l-3.18,5.07  c-0.97,2.4-3.43,4.24-7.38,5.5c-0.44,3.64-1.87,5.91-4.27,6.8c0.93,7.68-8.17,15.76-13.98,20.74c-5.67,4.85-15.02,12.57-22.22,10.21  c-4.46-4.84-7-11.26-7.6-19.27c-4.05-27.97-5.85-56.14-5.41-84.51c-3.27,23.23-5.93,46.45-7.99,69.65  c-7.85,13.75-20.55-4.59-10.27-12.53c-3.52-3.45-6.97-7.69-2.39-11.85c-4.27-14.85-6.39-30.4-6.36-46.66l-2.32,14.75  c1.76,8.68,1.03,16.41-2.18,23.2c8.3,6.41,2.45,13.56-2.83,19.65c3.8,3.63,3.98,8.99,0.52,16.1c3.5,2.84,3.57,7.52,0.29,10.75  c-14.88,14.67-16.29-25.88-14.97-33.31c-3.78-12.51-5.6-23.91-4.91-37.14c-0.05,11.17-1.53,22.08-4.43,32.74  c4.47,6.51,1.7,10.11-2.8,15.36c3.09,2.52,3.69,3.92,3.69,7.94c0,0.88-3.37,16.56-4,17.17c-1.9,1.86-3.81,1.45-5.8-0.09l-0.19,2  c8.92-0.29-2.81,12.9-5.79,14.51c-9.93,5.39-20.63-3.77-19.04-14.81l-1.5-3.65l-7.42,16.95c-2.11,2.01-3.93,1.06-5.9-0.84  l-7.31-22.91c-3,3.46-4.5,5.19-4.5,5.19l0.31,15.5c-0.82,8.82-5.39,14.01-8.62,2.41l-3.76-29.59c-0.3,6.48-1.72,12.69-4.26,18.62  c3.8,1.66,3.32,10.44,1.33,12.77c-10.39,12.16-14.04-13.61-12.57-21.01l-2.08,24.24c-2.19,11.68-8.79,16.78-15.24,4.93  c-2.39-23.79-3.99-25.23-4.81-4.3l-1.6,3.66c-10.47,1.47-20.96,2.12-31.47,1.93c-0.2,9.85-4.54,13.88-14.53,13.63  c8.78,37.28-18.46,48.15-49.96,44.42c-6.12,0.76-8,9.64-9.14,15.08c-3.18,15.22,1.27,20.07,16.52,21.69  c7.55,3.52,11.15,11.62,6.26,18.31c-0.94,4.23-10.5,3.8-14.49,3.34c-5.7,0.34-8.9-1.28-9.61-4.85l-3.02,0.71  c-1.86-2.35-3.95-3.39-6.26-3.11c-8,7.72-17.05,12.34-27.16,13.85l-4.97,10.2l24.54,1.09l1.77,2.76l5.43-2.59l82.59,1.35l16.65,0.27  l1.56,2.7l1-2.66c85.68,2.06,171.38,4.12,257.09,6.19l1.59,2.72l2.33,2.02c-1.27,6.46-2.54,12.92-3.82,19.39l-3,1.36  c-1.28,3.86-4.59,4.32-6.25,0.41l-6.19,1.71c-25.56-2.66-50.7-6.57-75.43-11.71c-20.42,1.49-41.32,1.8-62.7,0.94l-224.87-9.09  c-37.65-0.73-75.25-0.32-112.77,1.24c-4.9,5.63-14.37,7.38-17.85-0.82c-8.69-0.17-17.41,0.04-26.18,0.61l-2.18-1.64  c-0.16,0.96-0.34,1.71-0.58,1.73c-3.43,0.31-29.16,1.88-30.25,0.83c-0.46-0.44-0.72-1.07-0.93-1.76l-3.82,1.87  c-21.88,0.86-43.86,1.4-65.92,1.62l-7.89-2.14l-3.11,2.88c-17.74-0.45-35.45-0.43-53.12,0.06c-0.48,1.14-0.96,1.1-1.44-0.08  c-18.31,2.73-38.64,3.07-57.43,2.82c-1.32-0.02-2.64-0.61-3.95-1.37c-0.75,2.45-2.72,2.31-2.81-0.28  c-11.45-1.47-5.65-18.6,1.92-22.73c5.99-0.66,11.53-2.28,16.63-4.83l0.97-2.66c0,0,37.81,0.63,113.44,1.9l2.45,2.72l1.01-2.65  l134.24,3.85c-4.64-13.75-0.82-27.29,8.01-38.39c18.29-22.99,43.65-23.77,70.7-22.67c1.67-6.89,7.61-15.11,13.51-19.36  c4.13-2.97,13.25-8.1,16.38-2.75c1.08-2.46,3.68-3.44,7.82-2.95c-11.04-24.79-5.67-58.16,17.04-73.59  c-5.11-4.53-11.06-15.73-7.97-21.82c-6.48-3.93-5.39-16.11,3.21-14.25c-2.04-1.86-8.78-9.18-8.58-11.3c0.31-3.38,1.77-4.5,5.03-4.67  c-2.45-0.59-3.63-1.94-3.52-4.06c-7.35-1.73-3.89-16.52,2.63-11.53l1.57-3.02c7.72,0,15.44,0.51,23.16,1.51  c4.48-6.15,9.31-12.02,14.49-17.6l3.74-0.82c2.87-2.64,12.51-6.14,15.91-2.76l2.47,1.61l-9.88,68.39  c3.47-0.23,26.13-1.87,26.64-4.72c0.24-1.36-4.44-8.59-6.21-9.9c-0.38-2.44,0.22-5.32,1.78-8.65c-4.69-11.42-5.32-22.35-5.43-34.69  c-1.47-4.88-1.36-8.96,0.33-12.25l3.02-2.34c7.36,1.26,14.35,3.71,20.98,7.36c3.14-33.69,35.2-46.42,64.81-39.23  c-8.07-17.45-11.69-37.48-7.04-56.38c1.82-7.39,4.36-17.06,11.69-20.13c-1.1-7.04,8.02-13.86,13.58-17.95  c16.6-12.2,36.73-14.81,56.55-16.29c-19.98-27.11-21.99-62.76-3.32-91.02c4.82-7.3,11.71-17.24,20.52-18.38  c0.27-1.07,0.58-2.12,1.07-3.09c0.46-0.92,0.94-1.78,1.64-2.34c33.99-27.04,83.16-32.94,124.04-20.3l0.94-1.02  c-6.36-13.17-9.08-27.43-8.21-41.98c0.55-9.26,4.11-28.2,8.97-35.73C837.89,1.18,839.57,0.55,841.07,0z" />
<path class="cls-16" d="M862.76,761.83c2.58-0.3,2.6,0.73,0.03,1.52c-1.09,3.71-5.97,5.51-9.75,5.28l-1.79,2.8  c-7.29,1.64-14.21,4.42-20.75,8.33c-1.34,9.29-1.08,18.76,0.78,28.43l-3.85,23.98c3.2-12.66,11.89-20.21,14.97-2.06l5.7,13.26  l-1.79,2.83c-1.66,1.6-4.62,2.16-8.9,1.7l8.43,1.12c1.63,2.22,3.43,2.64,5.39,1.25c35.12,4.15,70.1,8.64,104.93,13.47l1.27,2.87  c1.91,1.5,1.29,1.61-1.06,1.14l-2.38,3.27c-7.2,2.67-14.46,4.76-21.77,6.26l-5.15,1.85c-37.29-5.05-74.73,8.19-106.34,26.1  c-1.76,3.83-9.12,9.42-13.16,6.89c-4.01,3.69-9.22,6.05-15.62,7.09c-14.92,6.33-22.37,9.5-22.37,9.5  c-5.79,4.13-11.82,6.64-18.08,7.53c-6.87,1.59-14.23,1.63-22.07,0.12c-45.69-0.93-91.13,16.68-129.6,38.49  c1.16,3.79-9.49,8.59-13.02,9.75l-2.88-1.52l-3.52,3.37c-18.56,5.29-38.13,12.71-55.66,20.8c-19.71,9.1-21.39,18.28-23.13,38.16  c-0.12,1.43-0.75,2.5-2.07,3.25l-3.76,0.51c-10.86-11.83-19.25-25.68-25.19-41.55c-7.97-14.5-13.4-21.94-29.21-28.07  c-81.1-31.46-159.66-6.81-234.49,29.42c-10.41,6.33-20.95,12.38-31.6,18.15l-0.3,3.07c-2.89,2.58-14.48,10.75-16.73,6.27l-5.27,3.89  c-30.06,8.13-59.14,20.8-87.33,33.73c-17.45,8.01-33.7,19.13-33.46,40.35l-2.59,2.87c0.24,2.64,1.05,4.56,2.43,5.77  c-3.07,17.82-6.08,35.62-9.02,53.4c4.71-3.1,6.38,0.43,4.99,10.61c4.97,6.84,8.37,3.51,10.2-9.98c1.05-1.2,2.51-1.66,4.38-1.37  c-0.55-11.25-3.08-22.24-7.59-32.97l-2.01-9.97c-1.3-5.26-0.45-9.65,2.54-13.17c-4.55-2.83-0.46-12.63,1.7-16.92  c2.3-4.57,5.49-8.78,9.75-11.72c12.18-8.39,16.07-4.43,10.3,8.53c-6.37,33.87-2.15,69.31,3.11,102.99  c2.31,18.9-4.87,36.73-16.47,51.35c1.49,28.8,1.38,57.72-0.32,86.75l-3.62,12.96c7.66,2.37,11,6.75,10.01,13.13  c5.5,1.56,11.12,2.54,16.88,2.95l4.02,3.15l6.66,0.08c37.77,13.02,76.46,23.16,116.07,30.4c9.73,1.13-3.31,16.53-6.48,17.75  c-22.35-1.05-54.48,4.54-66.78,25.03l-2.36,0.74c-31.07,1.57-64.5,8.35-75.44,41.69c-4.71,3.6-30.1,13.17-36.39,13.98  c-2.11,0.27-4.17-0.25-6.11-1.08V905.36c1.85-1.14,3.73-2.22,5.69-3.13c1.95-0.9,3.88-1.79,5.89-2.23  c61.09-13.24,123.14-22.13,185.73-23.15l213.51-2.5l1.68,2.66c0.85-3.74,4.66-4.13,5.3-0.18c0,0,11.88-1.13,35.64-3.38  c63.2-1.29,126.85-2.6,190.19-6.95c39.73-2.73,81.66-5.69,120.21-14.85c10.19-2.42,22.6-5.66,29.62-13.35l3.35-1.02  c-5.7-9-14.84-12.4-24.86-15.52c-36.47-8.78-73.18-16.54-110.1-23.29c-7.12-0.7-12.09-3.46-14.91-8.28  c-3.81,0.1-5.04-4.83-3.49-7.85c3.5-6.79,44.06-12.46,53-13.64c51.73-6.79,111.17-9.91,163.23-9.46L862.76,761.83z" />
<path class="cls-13" d="M708.55,107.03c-35.99,28.54-41.3,76.8-11.27,112.64c-29.44-0.64-59.28,5.86-76.06,31l-4.12,3.46  c-11.1-0.21-22.39-1.22-33.86-3.03c-133.34-4.15-268.28-4.87-404.82-2.18c-52.59-1.64-105.27-1.49-158.05,0.45  c-6.98,0.27-13.97,0.22-20.36-2.94V105.8c48.8-1.81,73.2-2.72,73.2-2.72c199.14,0.47,400.29-0.3,597.58-1.45  c10.82-0.06,22.14,0.35,32.82,1.92c0.87,0.13,1.7,0.67,2.55,1.27C707.03,105.45,707.81,106.22,708.55,107.03z" />
<path class="cls-14" d="M841.07,0c-13.11,28.28-15.5,57.79,1.5,86.45c-48.28-16.89-95.72-9.8-134.03,20.58  c-15.89-2.75-32.07-2.83-48.91-2.67C439.62,106.39,219.55,105.59,0,105.8V0H841.07z" />
<path class="cls-9" d="M367.25,1379.34c9.45-0.63,18.85-0.05,28.26,0.81c75.86,6.97,151.58,13.27,227.53,19.24l575.44,30.69l1.52,2.76  v110.01h-186.16l-37.81-2.68l-456.2-65.22c-71.46-11.83-142.46-26.37-213.36-41.1c-2.94-0.61-5.8-1.6-8.67-2.62  c-2.88-1.02-5.7-2.23-8.5-3.48l-0.76-3.09c18.21-15.67,38.6-32.08,60.27-42.92c4.93-2.47,10.63-5.08,16.2-5.3  C366,1376.41,366.77,1378.14,367.25,1379.34z" />
<path class="cls-12" d="M621.22,250.67c-16.41,24.58-13.27,55.87,1.06,81.83c-16.59-5.44-33.15-7.12-48.09,1.91  c-12.48,7.54-20.64,21.23-19.82,37.73c-8.68-6.81-17.29-9.89-26.6-10.76c-1.29,1.79-3.11,1.64-5.48-0.46  c-1.01,1.87-2.23,1.9-4.21,0.68c-4.74,0.75-11.01,4.2-15.91,2.76l-3.04,1.99c-10.93-0.99-21.93,0-33,2.97l-2.92-2.29  c-2.39,1.96-9.59-0.51-10.95-4.03c0.03-7.12-0.65-5.63-2.05,4.47c1.56,5.26,2.87,12.2-1.02,16.88c4.38,7.46,2.36,14.77-6.05,21.92  l1.09,2.32c3.99,2.46-1.49,18.48-3.97,20.59c-0.96,0.82-2.61,1.35-3.89,1.59c0.36,0.55,0.67,1.11,0.77,1.71  c0.17,1.03-8.24,9.52-10.15,10.95c-1.58,3.98-5.6,5.23-12.06,3.77c-14.76-6.18-29.77-10.78-45.89-12.69l-2.17-3.26l-5.06,1.47  c-12.3-3.58-24.78-6.21-37.44-7.9l-4.25-3.03c-3.09,1.07-6.55-6.32-7.29-9.02c-1.03-3.76-1.53-7.71,2.68-9.48  c-3.45-7.41-7.16-14.78-11.13-22.1c-0.45-3.12,1.05-5.81,4.5-8.04l-3.63-8.44c-5.66-6.38-6.11-11.48-1.36-15.31  c-4.85-10.46-7.51-21.93-7.96-34.38l-7.65-28.11l-7.9,41.83c-3.88,9.87-5.47,9.27-8.35-1.22l-7.98-38.03l-20.54,113.67l-2.92,1.12  l-1.91,2.41c-6.74-0.99-13.46-2.08-20.15-3.28l-1.48-2.81c-7.72,0.95-6.27-9.18-3.77-14.38c-0.3-5.13-2.7-9.66-7.2-13.58  c-2.06-3.74-1.33-7.62,2.2-11.65l-18.2-92.75l-11.08,70.14c3.33,5.7,4.63,11.25,3.91,16.65c-3.87,0.29-5.8,0.43-5.8,0.43  c-1.05,9.38-1.58,14.07-1.58,14.07c3.04,5.06,2.26,9.06-2.33,11.99c3.59,6.16,5.05,18.55-4.36,9.83l-3.23,2.33  c-13.59-3.36-27.15-4.99-40.7-4.9l-3.19-2.19l-2.88-0.67l-16.43-77.6l-12.44,69.55l-2.92,1.11c-4.27,0.91-8.62,1.77-13,1.53  c-19.08-1.04-38.36-2.34-57.42-3.83c-4.37-0.34-8.58-1.7-12.71-3.13l-1.73,0.46c-0.91-4.07-1.63-8.2-2.15-12.4V246.43  c52.62,1.45,105.09-3.72,159.15-0.7c25.06,1.4,47.91-0.51,74.07-0.86c56.05-0.74,111.01-1.38,166.76-0.27l111.62,2.22  c28.99,0.58,56.83-0.77,85.61,3.07C605.65,251.03,613,252.79,621.22,250.67z" />
<path class="cls-11" d="M536.93,1298.09c0.37-1.3,1.26-2.43,2.66-2.58c218.82,8.16,438.42,14.87,658.81,20.14l1.59,2.72v78.72  l-1.38,2.63c-264.63-8.95-529.29-17.9-793.99-26.85l-1.59-2.73c-2.93,2.79-8.31-1.84-6.54-5.34c-1.59-2.51-0.63-4.86,2.87-7.04  l5.04-3.68c-6.3,0.6-11.75-0.33-16.35-2.81c-10.31,18.62-26.71,19.68-46.02,16.6c-6.11,4-12.17,8.26-18.19,12.76  c-5.05,1.95-8.03,1.2-8.92-2.23c-3.85-0.39-3.91-3.13-0.31-4.37l-0.25-1.62c-4.45-0.38-8.84-5.91-3.6-7.73  c-2.33-2.56-2.08-3.24,1.37-3.69c-0.34-3.73,2.6-5.8,8.82-6.23l16.14-1.83c5.78-3.15,11.69-5.54,17.72-7.16  c-1.56-20.87,20.96-19.2,34.8-13.96l5.44-7.25c3.31-3.16,10.89-10.24,13.45-4.02c2.41,0.74,4.91,1.94,7.52,3.62  c7.79,2.23,11.23,1.12,10.31-3.34l2.48-1.87c3.09-7.59,18.14,1.6,23.27,5.36l0.33,2.97l2.01-2.24c6.71-0.05,13.37-1.43,19.98-4.13  c2.41-5.28,7.64-11.3,12.45-5.48c9.14-2.94,17.07-7.44,23.79-13.49l3.42,0.01c0.39-3.61,1.55-3.49,3.16-0.27l0.82-2.93  c4.06-0.58,7.75-1.96,11.06-4.14c3.53-6.86,6.55-8.05,9.05-3.56C536.71,1293.44,536.29,1295.78,536.93,1298.09z" />
<path class="cls-16" d="M711.26,1206.76l7.41-2.55c160.02,2.85,319.92,5.69,479.7,8.53l1.63,2.71v102.92l-423.14-11.6l-239.93-8.68  c-1.08-4.29-0.03-10.88,5.68-8.65l3.31-3.01c15.83,0.5,29.59-3.32,41.3-11.47l3.47,0.19c5.59,2.48,8.86,3.41,14.64,0.2  c4.92-2.74-0.72-6.69-4.7-3.99c-4.15,2.87-7.36,3.32-9.61,1.34c-3.55-1.32-6.95-1.47-10.2-0.46c-8.64,4.63-17.47,8.87-26.48,12.73  c-3.96,0.48-7.67-0.62-5.01-4.59c-4.65-0.8-1.93-7.95,2.37-6.99l0.8-2.88c6.44-4.7,12.96-9.34,19.57-13.93  c18.46,1.01,36.42-3.49,50.28-16.11l4.43-0.43c3.27,2.62,3.27,2.62,0,0c0.03-1.64,0.19-3.41,1.23-4.76  c2.86-3.72,11.7-8.8,16.18-11.32c16.28-9.15,44.09-16.13,62.72-18.93L711.26,1206.76z" />
<path class="cls-8" d="M1060.64,676.22c0.11,1.03,0.06,2.63-0.6,2.76c-18.22,3.67-41.11,4.94-59.62,4.01l1.4,4.71  c65.33,5.44,130.9,9.94,196.71,13.5l1.47,2.78v44.5c-18.43,5.32-37.58,8.16-57.45,8.54c-71.49,3.82-141.84,6.03-211.05,6.63  l-1.68-2.65c-2.8,0.17-5.58-1.2-8.35-4.13c-18.1-6.55-36.85-4.79-56.27,5.28l-2.44-0.33c-48.39,1.25-174.16,3.51-215.12,20.26  c-4.56,1.86-0.7,5.31-0.72,8.08c2.99,4.67,6.9,7.81,11.73,9.43c28.5,7.72,57.3,14.27,86.39,19.64c15.7,3.42,31.23,7.6,46.35,13.07  c1.05,0.38,1.95,1.19,2.88,2.04c0.94,0.86,1.75,1.87,2.53,2.91c-9.79,37.99-337.02,37.89-384.3,39.73l4.49-2.82  c20.42-1.41,40.73-6.56,59.71-13.74c-33.09-7.21-66.68-10.95-100.79-11.23c-54.94-2.37-109.45-8.13-163.56-17.29  c-6.84-2.79-5.01-3.88,1.67-7.54c16.37-4.36,33.19-6.57,50.05-7.87l253.95-14.6c26.08-2.3,50.83-5.35,76.73-8.63  c3.15-0.4,6.33,0.22,9.4,0.9c-0.13-2.33,1.69-3.72,5.45-4.16c4.18-2.51,2.07-5.92-6.31-10.24l-23.69-12.52  c-1.99-1.07-4.91-4.09-4.22-6.23c1.79-5.53,22.79-8.72,28.79-9.43c63.71-7.55,128.66-11.14,193.21-10.72l154.98,0.33  c11.1,2.76,202.26-9.13,194.09-14.44c-6.08-3.96-19.92-6.26-27.43-7.5c-78.63-7.35-157.73-11.87-237.3-13.55  c0,0-11.4-1.28-34.19-3.84c-7.85-1.82-8.26-3.57-1.66-7.71c30.71-5.93,61.83-9.33,93.38-10.19l22.85-3.66  c-16.39-6.07-33.54-9.57-51.45-10.48l-88.34-7.9l-1.34-2.81c-3.04-2.8-0.38-5.71,2.72-2.73c0.03-1.05,0.37-2.65,1.02-2.64  c63.11,1.03,126.64,4.3,190.67,9.57c13.29,1.94,26.87,4.37,39.7,8.38c1.05,0.33,1.98,1.05,2.93,1.82  C1058.98,674.29,1059.82,675.24,1060.64,676.22z" />
<path class="cls-16" d="M1013.84,1542.86H214.46l-2.66-2.21c-1.34-9.31-11.61-4.68-15.16,0.62l-3.74,1.59h-37.68  c-6.83-4.69,1.41-13.14,6.23-17.33c16.41-9.81,35.35-23.08,45.89-39.59c1.19-7.65,4.12-13.61,8.79-17.89  c19.53-4.45,37.65-11.31,54.35-20.57c5.72-6.05,10.85-12.64,15.39-19.75l3.44,0.04c85.48,16.62,170.8,36.22,257.93,48.63  L1013.84,1542.86z" />
<path class="cls-6" d="M120.61,774.71l2.25,1.61c30.46,4.22,61.3,4.34,92.53,0.34l40.77,1.27c76.4-1.7,152.24-0.03,227.53,5.01  c37.52,2.56,74.69,1.73,111.52-2.5c6.93-0.93,15.28,10.03,8.96,13.73c-40.06,8.24-81.12,10.2-122.89,12.56L290.84,817.5  c-27.72,1.57-54.77,2.91-81.94,11.12c53.9,11.88,105.91,12.64,158.79,17.26c39.25,3.42,78.11,1.39,118.32,14.58  c-23.42,8.17-49.76,16.27-73.52,16.55l-208.83,2.42C134.13,880.23,66.8,889.91,0,905.36V788.84l5.49-3.52  c8.91-2.12,44.5-9.2,50.38-7.21c1.1,0.37,2.14,0.92,3.16,1.52c3.21,1.67,4.56,1.12,7.57-0.71c-0.37-3.48,0.99-3.53,2.84-0.56  c2.51,1.44,5.63,1.93,8.28-0.35c2.74-3.9,7.26-4.31,10.8-1.15c3.22,1.05,4.14,1.15,6.62-1.16c0.34-4.15,6.86-4.11,7.75-0.24  c2.63,1.88,3.49,1.62,5.6-0.13C108.52,770.62,119.51,770.64,120.61,774.71z" />
<path class="cls-8" d="M297.09,633.21c1.34-4.8,17.74,2.01,18.56,4.29c0.48,1.34-7.88,15.26-8.68,15.7c-0.52,0.29-1.13,0.41-1.77,0.48  c-8.84,3.72-18.44,5.3-28.8,4.75l-144.62,3.04c-7.22,0.63-14.38,1.93-21.24,4.34c48.24,7.84,96.98,12.48,145.77,15.21l419.05,19.91  c8.81,0.66,55.58,4.7,56.11,10.4c0.52,5.59-38.45,9.5-45.42,9.61c-134.05-0.41-268.02-1.88-401.9-4.41  c-8.02-1.62-65.99,3.54-66.37,7.35c-0.29,2.9,50.66,11.89,56.99,11.38l70.06,6.22c48.52,2.42,96.77,7.28,144.75,14.6  c6.57,2.25,6.41,3.12,1.06,7.41c-3.73,2.99-26.81,5.33-33.24,5.86c-95.63,7.9-193.15,7.61-289.26,6.46  c-14.27,0.47-28.49,0.59-42.68,0.36l-4.86-1.48c-4.05,0.27-8.14-0.49-12.13,0.61c-0.52,2.34-4.39,2.13-5.6,0.13  c-2.57,0.19-5.26-0.19-7.75,0.24c-1.46,2.53-4.21,2.48-6.62,1.16c-3.66,0.64-7.22,1-10.8,1.15c-0.94,2.3-6.73,2.2-8.28,0.35  c-0.78,0.03-2.03,0.65-2.84,0.56c-2,1.98-5.48,2.81-7.57,0.71c-19.91,1.53-39.33,6.5-59.03,9.21v-8.04l0.68-2.87l90.08-18.12  c3.05-1.09,4.25-2.54,3.6-4.37l2.67-1.75c-2.22-2.5-4.8-4.28-7.75-5.36l-65.24-11.8l-1.11-2.92c-1.17-2.64,0.3-4.62,4.41-5.92  c21.94-6.49,44.35-11.48,67.24-14.98c6.12-1.61,12.11-3.92,16.65-8.45c-3.39-3.75-7.45-6.25-12.19-7.52L1.19,681.91L0,679.02v-12.05  l0.39-2.63c20.29-0.37,40.09-2.68,59.38-6.94l0.51-2.3l-35.68-6.85l-1.93-3.17c0.52-0.84,1.07-1.64,1.77-2.29  c2.49-2.33,37.52-6.13,41.29-4.89c0.88,0.29,1.66,0.89,2.41,1.58l0.29-1.67c20.27,0.41,40.29-0.58,60.04-2.96l1.44,0.08  c17.34-0.26,34.69,0.13,52.05,1.16l4.28,2.3c3.15-1.1,5.99,0.95,8.53,6.16l62.54-3.44c-1.03-4.24-0.34-10.64,5.12-6.46l1.45-2.03  l31.21-1.04L297.09,633.21z" />
<path class="cls-11" d="M815.62,1143.75c5.43,0.41,11.58,12.96,2.99,14.34c10.27-1.57,15.4-2.36,15.4-2.36  c121.69,2.52,243.15,5.04,364.37,7.55l1.61,2.71v49.46l-488.74-8.69c-0.49-3.24,1.54-5.85,6.11-7.83  c8.58-2.97,16.85-6.52,24.8-10.63c-5.07-1.5-7.29-3.86-6.66-7.07c-3.94,0.46-5.05-2.11-2.86-5.2c0.88-5.67,13.74-9.65,16.06-2.6  c1.72-3.06,10.9-3.41,12.51-0.09c1.58-3.57,10.16-9.2,14.26-11.03c7.46-3.33,15.31-4.19,9.1,6.2c-7.19,5.1-7.74,5.76,1.17,2.64  c5.34-1.87,25.94-10.48,16.61-16.2C801.73,1150.8,812.74,1136.67,815.62,1143.75z" />
<path class="cls-16" d="M388.27,1369.98c5.33,6.24,9.34,6.89,12.01,1.94l2.76-1.78L1200,1397.1v35.75l-519.62-27.43  c-105.56-5.57-210.68-14.26-313.14-26.07c0.05-5.15,12.76-9.78,17.65-10.83L388.27,1369.98z" />
<path class="cls-16" d="M1200,748.48v160.13l-1.26,2.67c-21.46-0.23-42.92-0.46-64.39-0.7l-1.57-2.7c-6.8-4.67-2.91-11.88,3.98-15.5  c14.05-7.38,19.94-6.06,23.63,10.38c2.4-1.68,3.91-4.89,4.53-9.63c2.19-3.2,5.75-5.2,10.69-5.98c3.46-21.01,6.83-48.69-23.65-40.84  l-1.77-2.57c-3.5,1.86-5.73-3.05-2.72-5.43c-8.64-17.51-27.66-19.5-45.14-16.8l-2.46-2.13c-2.46-3.04-5.88-9.75-3.1-13.07  c-2.85-3.41-6.79-4.75-11.81-4.02c-0.53,4.37-4.31,4.63-5.85,0.63c-7.22-11.2-12.37-16.76-26.79-15.14  c-11.12,1.25-21.53,5.06-31.81,9.31c1.2,2.89-0.18,3.55-2.81,2.38c-2.07,3.05-5.67,4.99-10.8,5.8l-9.12,4.38  c2.89,11.13,4.7,28.28-3.86,36.7c0.12,4.33-10.68,10.05-13.5,5.57c-0.17,0.82-0.71,1.22-1.41,1.59c-5.36,2.78-50.91-6.18-57.7-11.1  l-1.36-2.97c-7.08-7.86-5.88-18.38,5.74-22.77c13.49-5.1,15.21,1.67,17.71,13.43l3.97-7.49c18.16-11.85,19.14-52.4-9.66-45.57  l-2.5-1.74c-1.06-1.48-2.1-3.25-3.1-5.33c-3.43,1.07-3.92-0.02-1.4-2.55c-2.91-1.55-4.86-4.89-0.89-6.42l117.84-2.26  C1099.17,757.77,1149.63,754.88,1200,748.48z" />
<path class="cls-5" d="M396.5,1364.81c0.22,3.37-5.42,8.07-8.23,5.17c-6.97,3.14-14.62,5.11-21.02,9.36  c-14.62-3.85-71.76,41.18-77.94,48.41c-8.78,10.29-12.04,21.56-26.47,27.35c-14.6,5.87-30.21,11.42-45.63,15.34  c-6.03,3.31-4.49,13.06-8.18,17.74c-34.69,43.99-53.63,32.9-53.81,54.67h-69.5c0.19-2.51,1.73-4.94,4.61-7.31  c3.56-9.58,9.34-16.95,17.34-22.12c11.33-5.6,22.04-12.15,32.12-19.67c18.25,4.02,34.58-3.61,38.97-22.53  c18.91-5.28,36.58-12.73,53.01-22.33c16.82-16.62,32.06-28.63,55.45-33.33c13.95-1.82,19.27-23.53,2.08-10.35  c-16.22-5.27-27.44,1.89-38.09,13.62l-4.81,0.94c0.07,0.79,0.1,1.57-0.06,2.31c-1.95,9.29-49.73,27.9-62.8,26.59  c-5.62,1.44-9.99,3.3-13.37,8.32c-7.52,20.75-23.97,23.7-43.85,22.71c-10.63,4.67-20.36,11.46-29.17,20.35  c-9.97,4.71-18.7,10.71-26.18,18c-6.17,11.92-12.6,14.77-25.51,15.07c-14.85-2.34-29.19-2.54-43.03-0.62L0,1530.8v-13.39l3.79-4.09  l36.5-13.09c1.3-22.68,20.45-33.14,39.85-39.64l33.12-8.7c12.67-8.58,26-15.08,39.99-19.49l33.69-5.09  c5.5-13.47,24.43-23.97,37.12-30.62c20.6-10.8,39.89-17.78,63.63-14.07c8.95-3.88,17.85-5.93,26.7-6.13l0.55,1.91  c8.61,1.89,13.05-2.8,18.27-8.26c15.17-15.88,27.99,13.25,54.13-21.1c8.2,3.12,16.68,2.69,27.44,1.05  C407.89,1355.68,400.73,1358.46,396.5,1364.81z" />
<path class="cls-16" d="M839.71,625.52c10.85,4.43,21.89,7.19,33.13,8.3c12.12-0.49,23.89-2.96,35.31-7.39  c-0.17-3.58,1.07-3.63,2.62-0.44l4.98-2.58c81.33,1.55,162.64,3.1,243.91,4.65l1.6,2.71c0.15-1.05,0.53-2.61,1.28-2.65  c4.03-0.21,34.12-0.15,35.56,0.89c0.97,0.7,1.65,1.53,1.9,2.73v66.84l-1.08,2.62c-60.75-3.62-121.77-7.61-183.05-11.94  c-6.8-0.15-11.95-2.23-15.45-6.26l60.22-6.77l0.77-2.79c-16.93-6.1-34.71-9.81-53.34-11.12c-58.69-5.48-117.58-9.27-176.65-11.35  l-1.48-2.76l4.48-22.77C835.49,621.72,838.75,621.82,839.71,625.52z" />
<path class="cls-16" d="M1200,1123.11v42.88l-381.38-7.9l2.88-3.17c13.62-2.28,21.55-12.04,22.16-25.71c4.6-4.6,12.83-7.19,19-8.16  c0.31-3.97,3.1-4.1,5.23-0.73l1.3-2.24c109.7,0.41,219.42,1.2,329.17,2.34L1200,1123.11z" />
<path class="cls-13" d="M1200,310.25v56.39c-3.35,2.9-7.97,4.17-13.84,3.82l-0.1,1.88c17.87,27.5,16.56,67.24-1.48,94.28  c-8.12,12.18-30.98,33.39-46.07,33.66c-1.51,0.03-2.83-0.95-3.97-1.86l-3.27-4.37c-5.22-22.37-9.57-44.82-13.04-67.35  c-3.15-7.58-6.17-15.15-9.07-22.7c5.58-2.27,5.43-6.51-0.46-12.71c-1.82-4.9-3.11-15.68,3.31-16.34l0.93-2.79l60.39-6.39  c-14.99-19.72-43.49-26.11-68.04-27.81l-3.34-2.91c-5.45-2.33-9.5-15.9-5.31-20.37c31.71-14.87,54.54,0.5,84.53-7.87  C1187.62,305.02,1195.31,306.99,1200,310.25z" />
<path class="cls-11" d="M920.27,1084.4l3.67-2.18c91.5,0.69,182.98,1.76,274.45,3.24l1.61,2.7v34.96l-332.11-2.79  c-4.75-0.03-2.94-5.46,1.36-4.77l2.01-2.17c4.52,1.15,20.26-5.1,22.64-7.75c2.5-2.79-13.41,2.48-13.23,5.5  c-3.26,1.51-5.68,2.28-5.95-2.01c-3.78-2.03-4.22-6.87-0.77-9.46c-1.1-0.83-0.96-1.34,0.41-1.53c3.38-2.52,7.76-3.69,13.17-3.51  c13.15-4.25,19.72-6.37,19.72-6.37C911.78,1084.97,916.12,1083.68,920.27,1084.4z" />
<path class="cls-9" d="M314.62,1374.04l0.31,4.37c-8.87-1.95-19.5,6.58-27.83,6.93c-27.26-3.65-49.13,4.7-72.36,20.37  c-9.45,6.37-21.23,9.79-25.9,23.97l-33.71,5.13c-17.09,2.6-25.71,12.26-39.01,18.76c-16.38,8-69.38,7.1-73.94,48.24  c-14.26,6.85-28.3,10.9-42.18,15.61v-16.07c13.41-3.5,26.54-8.66,40.74-14.71c11.93-35.14,44.69-40.35,78.27-42.57  c4.01-17.45,53.83-29.58,67.21-25.3l9.71-12.13c-42.67-11.3-87.21-15.9-125.08-33.86c1.43-2.14,2.14-3.21,2.14-3.21  c-4.28-4.57-5.85-8.87-4.69-12.89c0.93-0.71,1.89-1.37,2.93-1.86c1.01-0.48,1.99-0.91,2.96-0.92c15.67-0.16,48.04,1.41,62.15,6.05  c1.04,0.34,1.93,1.12,2.78,2.03l2.88-0.88c6.97,3.5,14.9,4.12,23.8,1.85l-7.19-8.41l0.82-3.16c3.96-1.14,5.94-1.7,5.94-1.7  c39.06,9.05,78.43,16.21,118.1,21.48l25.48,0.55L314.62,1374.04z" />
<path class="cls-7" d="M1200,366.64v265.1l-38.74-0.97c-2.22-5.2-4.35-10.47-5.49-16.02c-6.78-32.79-13.55-65.65-20.18-98.47  c-1.12-5.55-1.14-11.26-1.09-16.91c-1.23-0.04-1.16-0.36,0.06-0.95c26.28-5.17,46.97-25.81,55.97-48.96  c11.04-28.41,7.3-57.2-10.26-80.82C1187.19,367.43,1193.58,366.94,1200,366.64z" />
<path class="cls-11" d="M980.23,1030.66c3.95-1.8,6.81,1.38,8.57,9.53c6.57-5.42,10.47-6.12,11.69-2.09l1.69-2.65  c65.41,1.2,130.81,2.41,196.22,3.61l1.59,2.71v30.11l-0.94,2.67l-198.9-1.35c-16.43,2.01-32.71,2.36-48.85,1.06  c-6.4,10.87-12.14,6.41-19.03,0.07c-3.8,7.77-26.98-0.87-30.17-5.31c-1.17-1.63-1.4-2.43,0.35-4.13c-0.89-3.41,1.41-4.9,6.9-4.47  c-1.38-5.99,1.99-8.52,10.11-7.6l9.17-2.27l1.99,2.36c1.79-0.24,3.33,1.08,4.61,3.98c1.75-1.94,3.46-3.89,5.11-5.83  c0.93-2.45,4.65-2.84,6.7-0.94c3.49-2.39,7.51-3.82,12.07-4.28c1.83-8.21,6.38-10.61,13.77-12.63  C976.35,1028.05,978.79,1027.21,980.23,1030.66z" />
<path class="cls-11" d="M1100.57,961.69l5.5-1.63c28.57,2.87,57.29,3.91,86.15,3.12c3.05-0.26,5.62,1,7.78,3.16v19.85  c-7.29,1.69-10.93,2.54-10.93,2.54c-47.74-2.1-95.17-1.54-142.29,1.66l151.61,1.95l1.61,2.7v24.38l-0.98,2.66  c-60.25-1.2-120.51-2.4-180.79-3.59l-1.58-2.71l-1.6-0.8c3.44-9.83,7.28-19.84,11.55-30.04c-0.16-3.15,0.85-5.19,3.04-6.12  c1.54-6.26,17.86-9.07,21.92-4.26c1.27-3.4,4.13-3.64,6.68-1.34c2.38-1.72,5.01-3.23,7.88-4.51c5.43-5.45,11.32-10.3,17.67-14.57  l2.55,1.79c3.03-0.76,5.66,1.38,7.88,6.43C1096.68,960.34,1098.8,960.13,1100.57,961.69z" />
<path class="cls-16" d="M111.23,704.26c-6.71,5.08-14.94,8.05-24.7,8.92c-24.54,3.97-48.68,9.48-72.42,16.52c4.67,0,7.61,1.3,8.82,3.91  l64.88,11.66c5.25,0.94,10.45,3.2,9.21,8.42c-1.69,1.14-3.41,2.24-5.22,3.15c-1.8,0.91-3.58,1.79-5.45,2.24  c-24.53,5.95-49.51,10.64-74.45,14.51c-1.91,0.3-3.88,0.18-5.89,0.04C4.01,773.49,2,773.16,0,772.77v-93.75l96.37,14.51  C104.51,694.76,110.91,697.54,111.23,704.26z" />
<path class="cls-16" d="M1016.65,1015.77l183.35,3.65v22.36l-199.5-3.67l-2.25-2.07c0.73-5.92,3.27-18.71,8.66-21.26  C1009.93,1013.34,1015.88,1011.75,1016.65,1015.77z" />
<path class="cls-16" d="M1200,1071.88v16.27l-279.73-3.76c-1.83-2.25-0.62-3.72,3.62-4.4c0.34-1.97,1.92-2.91,4.74-2.82l3.65-2.85  c6.17-2.13,4.87,2.42,8.86,3.73c5.27,1.74,6.68-5.28,9.44-6.62c17.44,3.49,34.13-1.04,51.19-0.92L1200,1071.88z" />
<path class="cls-9" d="M85.74,1542.86H9.38l0.68-3.07c13.82-2.2,27.78-3.83,41.88-4.87c14.74-2.77,26.33-7.95,32.6-22.54  c5.36-2.15,10.92-3.63,16.69-4.43c13.24-19.02,34.79-24.35,55.94-28.63c10.62-3.4,15.65-8.22,18.45-19.48l6.61-4.82  c15.84-5.2,31.73-10.41,47.67-15.63c7.81-2.97,10.81-5.67,13.47-13.33c3.4-2.57,4.42-4.66,3.03-6.27  c12.44-11.94,22.22-24.01,42.19-16.79c2.03-3.69,6.61-5.17,9.19-4.95c4.44,0.38,4.6,3.72,4.96,7.25c1.17,11.35-33.29,18.3-32.35,18  c-16.85,5.24-28.32,23.16-42.06,31.16c-15.72,9.15-31.6,13.24-47.87,18.51c-3.07,18.33-21.61,28.15-39.98,23.16  c-10.75,10.86-26.85,14.71-38.18,24.56C95.77,1526.37,95.3,1538.97,85.74,1542.86z" />
<path class="cls-16" d="M9.38,1542.86H0v-12.05c15.23-9.19,55.11,9.38,64.91-8.37c6.94-12.58,15.61-15.86,26.63-21.94  c13.55-7.49,23.89-25.42,41.28-23.78c14.28,1.34,26.99-3.1,32.21-15.7c7.18-17.3,21.55-14.73,35.54-17.65  c15.51-3.24,33.44-13.79,45.84-23.56c2.88,0.11,5.48-0.22,8.44,2.46c-8.83,0.44-10.67,7.87-12.92,13.52  c-27.23,17.48-48.55,12.54-64.14,25.47c-8.24,34.8-44.6,9.9-75.09,48.82l-16.38,4.02C73.49,1546.46,28.06,1535.69,9.38,1542.86z" />
<path class="cls-16" d="M36.35,606.31c0.85-4.16,12.29-3.64,13.26,0.39c5.01-3.43,16.61-2.56,23.05-1.57l3.86,2.58  c1.18-4.02,5.09-3.07,6.32,0.75c-5.47,12.64-16.98-1.14-21.54,16.21c-1.15,4.36-1.33,8.41,2.99,11.35l-3.33,1.93  c-13.36,0.3-26.34,2.01-38.94,5.16l0.65,1.97c12.68,3,26.84,2.83,37.61,10.02c0.14,0.67,0.19,1.3-0.04,1.8  c-1.23,2.68-51.79,7.1-58.39,7.14L0,661.61v-56.25C10.72,601.86,26.07,601.81,36.35,606.31z" />
<path class="cls-11" d="M1132.77,907.89l67.23,0.73v15.4c-2.33,1.4-2.34,2.83,0,4.23v18.63l-1.32,2.65c-27.6-0.72-55.2-1.44-82.82-2.15  l-1.55-2.72c-8.27-1.42-4.59-13.04,3.67-12.18c2.76-7.76,6.24-15.2,10.46-22.32L1132.77,907.89z" />
<path class="cls-16" d="M1200,946.88v19.47c-33.27-2.61-67.75,2.32-99.43-4.65c-0.46-9.35,2.02-21.17,13.74-17.05L1200,946.88z" />
<path class="cls-16" d="M1200,986.19v8.85l-160.14-1.84c2.28-3.34,5.16-4.89,7.1-6.03C1098.57,983.17,1149.15,985.68,1200,986.19z" />
<path class="cls-9" d="M1200,698.58v5.4l-191.99-12.46c-2.87-0.19-6.31-0.52-7.98-1.91c-1.39-1.16-1.96-6.36,0.39-6.62  c21.51,6.49,44.91,6.09,68.53,7.54L1200,698.58z" />
<path class="cls-9" d="M97.03,753.7c-0.39,1.66,1.17,4.58-1.06,5.82c-1.11,0.62-2.66,2.5-4.79,2.93L0,780.8v-8.04  C32.55,767.74,65.13,761.85,97.03,753.7z" />
<path class="cls-9" d="M60.29,655.1C75.72,665.4,1.84,665.72,0,666.96v-5.36L60.29,655.1z" />
<path class="cls-16" d="M1200,924.01v4.23c-22.59-2.05-46.27,2.73-70.15-3.43C1153.93,919.21,1177.44,925.67,1200,924.01z" />
<path class="cls-9" d="M214.46,1542.86h-21.56c1.7-5.18,7.15-9.2,12.1-10.06C211.58,1531.65,215.01,1536.74,214.46,1542.86z" />
<path class="cls-13" d="M772.7,472.77c-0.28,1.45-0.97,2.64-2.06,3.62c-2.76,2.48-18.97,4.13-23.54,4.07  c-11.09-0.16-20.72-3.31-30.73-7.93l-4.4,8.63c22.81,9.91,39.78,30.09,41.45,55.42c22.23-15.61,52-12.97,68.84,9.01l1.5-0.18  c20.58-33.49,71.61-29.49,96.31-2.76c9.15,9.9,19.92,34.57,15.2,47.67c-0.49,1.37-1.85,2.24-3.08,2.97  c-0.23,1.21-0.68,1.25-1.33,0.17c-0.97,4.8-5.03,1.55-7.76-0.75c1.26,8.6-0.06,16.34-3.94,23.22c2.28,4.51-3.65,9.68-8.37,10.06  l-2.62,0.44l-11.72,3.61c-16.23-0.17-32.45-0.87-48.67-2.09l-8.05-2.44c-1.66,0.1-3.62-0.05-5.29-0.09l-259.68-6.25l-2.84-0.75  l-5.88-35.91c-10.76-2.26-21.89-4.78-30.64-12.23c-2.87,9.2-6.54,18.13-16.62,22.96c-3.5,1.68-8.96,4.28-11.06,0.19  c-1.13-4.93,0.02-11.35-4.01-14.23c-4.12-2.93-10.62-2.55-14.65-4.06c-14.55-5.46-4.72-34.78,0.47-38.36  c6.21-4.28,34.07,5.96,48.23-12.06c7.07-8.99,5.5-22.5,2.39-33.06c4-0.8,9.39-0.04,12.86-2.34c2.88-1.9,2.08-7.73,3.6-12.4  c10.69,0.57,21.55,0.53,32.13-0.37c1.04-8.43,0.37-16.78,4.63-24.84c7.57,10.6,0.49,36.6,13.63,29.85  c3.34-1.72,2.33-34.83,6.79-44.92c5.05,10.92,0.59,22.07,4.73,32.35c1.05,2.6,5.46,3.17,5.47,0.25c0-1.59,2.1-4.28,1.12-7.85  c-0.43-1.57-3.63,2.59-7.18-2.35c10.79,3.64,8.29-39.97,11.71-46.29c1.98,21.33,3.02,41,7.17,62.14c4.32-8.23,0.68-17.07,2.06-25.73  c4.57-1,4.46-5.26,7.23-11.62l10.05,31.97c4.12-7.18,6.27-14.28,9.03-20.99c6.25,2.97,5.48,9.04,6.17,14.48  c0.74,5.83,6.82,6.87,11.96,6.69c4.74-0.16,3.81-6.13,12.38-10.11c-5.23,0.45-5.81-1.94-5.47-4.39c0.44-3.21,0.07-9.74,2.49-10.09  c6.05,17.51,1.52,8.61,7.47-8.11c1.19-3.34-3.08-4.13-3.65-6.85c-0.68-3.26,5.96-6.67,5.05-10.02c-1.23-4.51-3.41-3.5-1.74-8.6  c4.96-15.12,2.07-32.79,6.31-49.48c0.69,9.66,4.12,19.87,3.02,29.23c-1.32,11.29,4.09,19.48,4.81,28.01  c0.28,3.3-1.8,32.25,5.89,32.41c3.17,0.07,4.91-1.35,5.95-4c0.88-2.25-1.5-4.06-2.45-6.08l3.09-13.79  c-4.27,1.39-4.53,6.18-9.78,4.27l12.37-16.1c1.26-1.63,0.46-6.72-1.07-7.33c-1.92-0.77-4.32,1.8-8.54,1.45  c8.29-5.57,10.15-11.23,8.69-19.38c-2.11-11.76,3.19-25.69,4.15-39.7c7.61,26.93,0.66,55.79,13.02,67.1  c-9.24-4.04-5.64,2.13-3.49,4.41l5.26,5.58c-5.01-0.37-6.53,1.18-6.91,5.54c-0.18,2.06,1.2,4.6,3.09,6.54  c2.77,2.85,4.38-0.51,6.05-2.08c-1.89,1.77,9.87-83.35,10.52-92.93C767.6,396.58,756.94,419.1,772.7,472.77z" />
<path class="cls-13" d="M443.55,528.44c-15.06-0.08-23.43,12.55-28.61,24.16c-18.02,1.13-40.03-1.2-55.82,9.5  c-18.05,12.24-29.47,31.64-20.19,52.38l-139.24-4.07c-5.55-1.28-7.8-11.47-8.54-16.92c-3.01-22.24,16.98-40.6,38.8-38.12  c3.02-31.12,31.26-51.2,60.3-34.51c5.39-17.37,17.77-29.44,36.79-30.65c2.02-7.99,6.59-10.39,13.55-6.15  c13.35-8.03,30.04-8.84,43.28,0.04c1.98-17.37,16.34-34.64,35.22-34.68c12.43-0.03,15.74,4.15,5.06,11.3  c1.62,1.16,3.14,0.59,4.54-1.73c7.55-14.97,16.44-4.97,7.85,6.75c17.24,1.11,4.69,17.18-3.36,22.85c17.89-1.95,14.43,9.11,6.4,19.47  c3.55-2.39,5.1-1.82,7.19,1.87C447.26,510.8,447.43,528.85,443.55,528.44z" />
<path class="cls-13" d="M823.69,648.61c4.23,1,4.18,6.71,0.01,7.76c-1.34-0.05-1.93,2.1-2.72,2.73c0.02,1.48-0.19,3-1.12,4.21  c-8.93,11.53-54.03,15.28-68.75,15.1l-3.43-2.38c-16.1-1.21-35.03-5.36-44.96-19.1c-3.15,1.01-6.59,1.29-10.33,0.86  c-3.6,8.3-9.5,17.36-18.66,19.57c-48.48,3.66-97.53,2.86-146.19,1.94c-19.52,0.1-39.05,0.04-58.34-3.36  c-8.35-1.71-17.4-11.69-19.77-19.71c-1.11-3.75-2.76-9.81,1.88-10.93c-1.4-2.82-0.61-5.89,2.36-9.2c-5.51,4.61-11.2,7.37-17.07,8.28  l-1.71,2.95c-12.03,5.14-22.6,13.51-31.72,25.11l-6.94,2.25l-1.54,2.66c-19.6,1.92-61.78,1.49-79.06-6.68  c-5.82-2.75-16.88-11.38-10.43-16.97c-0.26-5.89,4.82-9.93,8.68-15.52c-5.47-1.04-11.48-5-16.79-4.95c-3.78-0.32-4.3-1.44-1.56-3.35  c10.2-0.26,22.11-4.2,31.88-0.78c-1.61,5.33,2.73,4.11,6.74,4.7c2.6,0.38,4.23-4.54,7.37-4.7c75.71-3.86,150.3,0.18,226.28,2.96  c55.34,2.02,109.53,6.61,164.4,4.77c6.62-0.22,8.05-1.89,15.55,0.09C772.07,643.28,798.74,644.33,823.69,648.61z" />
<path class="cls-10" d="M456.58,395.81c5.24,0.72,9.67,5.5,14.49,7.77l-14.02-1c4.32,9.77,12.54,14.46,19.8,20.5l-16.59-5.33  c-5.48,14.28,8.11,8.39,21.88,21.2c-7.35-1.7-12.2-6.58-21.08-7.32c1.92,7.49,4.93,13.79,9.55,20.61  c-22.2,17.81-28.89,49.66-15,75.17c-4.37,1.18-8.25,1.07-12.06,1.05l0.61-19.73c-4.73,1.89-6.9,5.69-11.23,3.45  c5.18-6.53,9.83-11.73,11.27-19.83c-13.45-4.09-24.93,2.66-34.06,12.01c2.36,6.45,4.51,12.19,4.6,18.54  c-3.03,2.15-12.3,2.06-15.51-1.13c5.09-11.3,6.41-18.72-0.69-27.19l6.46-4.42c2.48-1.69,3.6-0.63,3.6,0.87  c0.01,2.83,0.35,4.02,0.93,8.06c8.75-1.25,38.38-21.94,32.19-29.46c-2.16-2.63-6.18,0-10.05-0.86c2.39-5.4,8.92-10.61,4.17-16  c-2.89,4.86-4.16,7.4-7.18,10.11c-2.51,2.25-5.27,1.16-8.96-2.25l9.52-7.2c-12.19-3.23-22.9-0.52-31.85,8.47  c-7.06,7.1-11.96,16.75-9.53,28.76c-14.15-13.11-31.49-12.67-46.34-4.12c-1.83,1.05-7.26-3.85-9.27-1.2  c-1.12,1.47-2.4,4.52-3.25,7.81c-18.54-0.13-34.13,12.4-35.77,32.65c-13.16-8.64-29.14-11.81-42.26-2.96  c-10.94,7.38-18.39,20.9-17.69,35.88c-14.76-3.39-27.58,3.21-35.22,14.72c-8.01,12.07-4.4,24.15,1.64,37.02l-116.86-1.95  c-2.09-0.04-4.22-0.85-6.32-0.75c-5.21-3.43-1.64-16.37,0.65-21.79c7.98-18.92,28.73-23.26,46.6-16.48  c5.53-11.14,17.12-15.76,28.22-19.28c7.72-8.54,15.33-4.46,23.83,0.76c6.52-12.62,21.26-15.53,33.63-9.6  c-3.65-27.09,20.16-47.99,46.46-41.08c-10.57-41.8,32.68-62.61,67.89-48.87l1.84,3.54c2.32-1.91,4.91-1.5,7.76,1.25l5.79,4.97  c3.47,6.44,7.35,8.09,11.65,4.94c-1.56-7.5-0.77-14.98,2.45-21.94c2.48-5.36,7.27-13.41,13.57-12.88  c11.69,2.96,25.82,3.36,38.01,9.15c7.88,3.74,12,6.2,22.1,3.03l3.07-0.73c6.27,6.87,9.69,4.08,10.24-8.36  c-2.58-0.4-3.89-1.59-3.93-3.57c4.86-6.63,5.85-14.51,7.86-22.18c-3.03-0.64,5.64-11.93,6.34-12.45  C452.77,394.51,454.1,393.64,456.58,395.81z" />
<path class="cls-10" d="M574.74,619.18l-106.24-1.74l-0.72-3.17c7.05-5.78,11.43-12.64,13.13-20.6l2.68-1.73  c7.72,3.46,16.98,2.02,24.1,1.5c14.74-1.07,24.99-12.74,24.67-29.46c9.77,9.93,22.02,14.67,35.84,15.31L574.74,619.18z" />
<path class="cls-9" d="M829.94,648.2l124.88,6.5c12.15,0.63,111.65,8.23,110.19,19.63c-0.26,2.05-2.8,1.72-4.37,1.89  c-35.55-11.71-75.13-14-113.94-15.4l-123-4.45c0.28-2.58,0.39-5.19-0.01-7.76C825.74,648.96,827.9,648.09,829.94,648.2z" />
<path class="cls-10" d="M527.77,361.38c3.7,10.86,2.17,22.81,3.44,32.82c0.93,7.36,8.44,13.5,1.23,20.84  c4.39,2.73,5.25,6.87,6.81,9.56c5.93,10.21-28.33,7.65-31.91,11.24l10.73-74.24c1.37-0.79,2.3-3.65,4.67-3.22  C524.62,358.72,526.35,360.48,527.77,361.38z" />
<path class="cls-13" d="M853.18,362.91c3.84-1.76,9.22,1.26,13.16,0.22c4.2-0.6,5.08-0.18,3.16,3.78c0.2,3.22-1.18,6.49-4.15,9.81  c1.05,3.69,1.04,6.64-0.01,8.86l1.41,0.99c20.36-11.33,13.2,12.92,4.55,21.95c9.23-2.33,8.21,8.04,3.04,13.43  c-12.82,13.37-36.62,3.63-26.3-13.88c-4.4-4.39-7.86-11.33,0.74-12.66c-3.38-5.42-4.99-10.71-4.82-15.89  c1.26-0.92,2.68-1.3,4.26-1.14c-4.04-5.75-9.31-14.27-4.95-20.71C846.49,360.19,849.78,361.94,853.18,362.91z" />
<path class="cls-13" d="M263.77,630.65c3.81,1.57,2.15,3.25-1.33,4c-0.9,0.46-3.18,0.88-3.15,2.28c0.03,1.16,1.96,3.55,1.6,6.66  l-67.54,3.72c-3.12-3.76-3.98-7.09-7.1-8.92c-3.38-1.08-3.53-5.24-0.11-6.4C211.88,629.9,238.14,631.3,263.77,630.65z" />
<path class="cls-13" d="M483.59,591.94c0.5,10.8-8.16,17.88-15.09,25.5l-30.19-1.34c2.66-6.95,4.31-10.28,7.19-15.18  C470.6,599.17,469.72,576.77,483.59,591.94z" />
<path class="cls-13" d="M502.16,364.35c-4.31,7.42-12.56,12.42-15.91,21.02c-10.09,0.65-18.59-3.13-27.05-1.1  c-2.08,2.73-6.66-3.51-7.28-5.39c-3.18-9.54-0.03-16.28,10.28-10.56l1-1.3C476.15,365.35,489.35,360.59,502.16,364.35z" />
<path class="cls-7" d="M1079.46,341.33c-0.33,2.26-2.03,3.67-5.08,4.25c-4.47,3.51-8.03,4.36-10.68,2.52  c3.03-16.03,4.94-32.12,8.37-48.21L1079.46,341.33z" />
<path class="cls-13" d="M128.47,634.85c-0.89,7.98-52.26,4.08-60.33,4.63c-3.71-0.32-4.04-0.81-1.05-3.18  C87.26,634.15,108.48,633.68,128.47,634.85z" />
<path class="cls-10" d="M186.14,632c0.39,2.11,0.54,4.28,0.11,6.4c-19.2,2.22-37.45-2.35-56.34-3.46  C146.93,629.34,167.3,633.53,186.14,632z" />
<path class="cls-13" d="M959.03,331.91c-2.28,2.67-6.82,0.94-6.84-2.57c-5.8-14.94,3.41-33.84,2.27-51.47  c1.93,11.86,4.72,21.67,4.68,30.76L959.03,331.91z" />
<path class="cls-9" d="M64.29,636.02c0.92-0.04,1.89,0.38,2.81,0.28c0.27,1.09,0.63,2.15,1.05,3.18c-15.29,1.04-31.1,1.81-45.47,5.59  c-4.95-1.17-10.23-1.18-16.06-2.95C25.73,638.31,44.92,636.79,64.29,636.02z" />
<path class="cls-7" d="M1096.65,314.68c0.62,7,3.08,13.71,5.31,20.37c1.26,0.17,1.22,0.57,0.01,1.18c-0.49,4.3-12.99,5.38-14.68,1.48  c1.67-10.19,3.3-20.36,5.66-30.32L1096.65,314.68z" />
<polygon class="cls-9" points="295.53,629.85 297.09,633.21 262.44,634.65 263.77,630.65 " />
<path class="cls-13" d="M808.9,441.83c1.23-2.64-0.15-7.29,3.35-9.45c2.26-1.39,5.3-2.59,8.3-2.86c0.63-0.5,1.2-1.2,1.39-1.99  c1.17-4.86,2.53-8.14,6.6-2.15c3.74,5.5-4.38,12.72-8.5,15.69C817.75,442.73,809.71,445.84,808.9,441.83z" />
<path class="cls-10" d="M1063.7,348.1c5.34-2.16,9.96-6.3,15.76-6.77l4.43,15.15c1.65-6.5,2.38-12.49,3.4-18.77l14.68-1.48  c4.43,3.98,7.59,14.7,7.23,20.8c-3.14,5.06-1.87,9.93,3.8,14.62l-0.97,3.31c-8.9,20.75,14.47,23.2-0.79,29.49  c4.74,9.76,9.93,18.32,10.52,27c1.45,21.4,10.18,43.94,12.8,66.98c0.03,0.3-0.13,0.65-0.06,0.95l-3.37,2.95  c0,0-10.49-0.41-31.46-1.24c23.63,64.6-63.63,106.8-109.54,62.96c-3.58,21.74-19.85,35.4-42.07,35.12  c-5.2-0.07-14.59-0.35-15.87-5.86c5.12-33.21-15.33-60.93-48.9-67.72c-23.81-4.81-49.56,2.53-59.94,26.54  c-7.47-13.08-19.62-20.28-32.55-22.34c-14.86-2.37-28.04,2.68-40.01,12.77c1.27-26.78-17.66-51.63-42.69-59.32  c2.45-5.05,3.67-9.68,7.88-14.52c19.35,11.54,38.66,11.13,56.74,4.07c15.18-5.93,27.37-16.39,36.2-30.94  c9.47-1.7,20.03-6.38,16.62-17.45c-2.74,1.72-2.38,4.92-4.97,5.15c2.84-5.28-4.54-12.3,2.87-13.76c-0.03-9.59,1.71-17.51,7.42-26.79  c-27.09,7.46,11.02-13.52,1.34-24.08c-4.36,2.02-7.21,4.93-10.87,3.29c9.53-6.91,15.7-13.85,12.28-23.57  c-1.51,1.41-2.66,2.75-4.06,3.13c-2.6,0.7-1.33-1.18-1.13-1.97c0.25-1.01,3.46-2.45,3.58-3.4l6.61-53.96  c0.44,14.84,4.16,28.52,3.02,42.62c5.11,3.07,5.93,5.3,3.26,6.67c-1.5,0.77,3.9,8.02-2.97,3.31c-2.84,8.61,3.63,17.53,11.27,21.91  c-3.5,1.61-3.7-0.1-9.23-3.69c-0.02,9.07,4.63,16.88,12.32,23.84c-4.05,2.15-5.89-1.79-11.08-2.36l9.17,20.65  c-2.51-0.13-3.98-1.6-5.43-2.62c-2.97-2.09-3.64,1.18-2.05,3.43c1.15,1.64,0.89,2.41,6.41,6.05c-6.64,2.35-5.89,6.29-4.59,9.92  c3.04,8.53,9.02,8.26,15.04,6.44c7.06-2.14,13.58-6.17,11.27-14.78c-3.81,1.67-7.4,5.08-11.71,4.83  c7.05-9.85,16.01-18.2,13.48-29.34l-8.34,2.78c-1.35,0.45-5.42,1.31-3.1-2.5l-0.2-3.15c8.95-4.88,13.53-11.27,13.74-19.15  c-3.44,3.75-6.57,4.96-9.38,3.63c-0.7-1.52-1.8-2.81-3.16-3.78c5.22-1.37,10.15-4.7,13.83-9.3c2.68-3.36,7.24-22.41-4.11-12.65  c7.81-0.76,8.25-47.84,10.91-68.05c4.8,15.48-3.96,32.65,6.76,47.46c-2.43-0.54-3.36,0.3-3.98,1.59c-0.74,1.53,2.22,5.41,3.02,6.17  c-3.73,3.94-1.28,10.15-1.61,15.5c-0.41,6.76,5.28,5.17,12.78,8.8c-3.18,2.2-6.95,0.12-10.84-2.01  c-2.76,14.04,1.97,25.28,8.57,36.92c-2.79,0.4-3.66-1.32-4.59-2.27c-1.45-1.49-2.32,0.65-1.72,1.22c0.71,0.68-0.67,4.71,0.6,5.59  c25.15,17.46,21.8,15.65,49.75,6.95c-14.99-8.71,0.88-5.12,1.15-19.33c0.1-5.22-5.92,3.87-5.68-4.62c3.2-3.29,6.67-4.98,7.42-11  c0.62-4.97-2.16-1.68-5.88-6.09c4.05-3.69,5.84-6.28,6.91-9.3c1.29-3.67-2.11-5.6-3.9-8.77c4.38-2.74,5.83-6.7,6.46-10.61  c2.51,0.13,4.79,1.17,6.84,2.57c1.72,8.41,6.56,15.19,6.98,25.27c-0.3,0.06-1.51-0.79-2.78-0.96c-8.02-1.07,18.77,22.57-1.17,8.09  c-0.75,10.42,7.14,16.26,8.65,25.2c-2.14-0.77-3.55-1.22-4.54-1.66c-2.13-0.94-1.34,1.58-1.12,2.36c1.97,6.99,7.43,3.27,18.29,1.23  c1.66-8.65,0.68-16.55,3.78-25.64l1.99,23.77c4.92-0.76,9.97-0.65,13.16-2.82c1.74-1.19,11.77-30.76-1.57-13.09  c-1.64,1.4-1.81-2.3-2.84-2.29c-1.75,0-3.94,1.72-5.74-0.01c9.12-7.45,20.71-13.89,16.58-27.26c-4.76,2.07-9.59,6.68-14.96,6.47  c9.4-6.4,18.71-12.44,16.25-24.79c-3.6-0.71-5.63,3.34-9.81,3.28c13.16-3.59,10.51-60.73,13.69-68.63  c2.59,30.62,1.65,43.26,9.34,61.89c-22.74-6.58,17.33,30.68-3.37,16.27c-3.06,10.56,3.68,16.81,14.02,22.92  c-5.54,2.88-8.61-1.87-13.28-3.97c-0.38,6.5,3.37,11.26,5.45,16.71c-3.37,1.24-4.95,2.67-4.14,5.24c2.64,8.34,25.77,0.55,35.71,0.8  L1063.7,348.1z" />
<path class="cls-2" d="M476.93,1091.55c6.49,2.54,13.26,8.36,3.97,12.85c5.76,5.68,5.79,12.84,0.1,21.48  c-0.3,8.31-5.56,6.81-8.06-0.18c-1.05,6.02-2.57,11.89-4.56,17.62c-4.35,1.45-7.04-1.65-8.07-9.33l-3.99,17.31  c-5.27,6.16-7.8-7.05-8.24-11.28c-2.31,4.67-3.92,9.83-4.83,15.5c-1.94,4.58-3.52,3.77-6.33,0.2l-3.54-16.61  c0.14,20.39-1.73,40.5-5.62,60.35c-4.32,9.44-8.4,1.68-8.87-4.94c-0.89,5.53-8.05,31.91-12.6,31.26l-3.63-2.66l-2.43-13.06  l-6.67,21.37c0,0-1.05,0.83-3.16,2.5c-3.34-2.9-5.44-7.33-6.28-13.27c-6.15,5.69-12.44,11.23-18.86,16.63  c-2.41-0.91-3.62-1.37-3.62-1.37c-0.81-6.41-1.11-12.99-0.91-19.74c-5.88,4.8-10.29,5.46-13.22,1.98l-5.66-30.75l-21.57,21.3  c-2.35,2.37-4.05,0.98-6.11-1.23l-2.5-14.56c-5.99,6.95-9.23,4.22-9.72-8.22l-30.24,56.5l-3.11,0.14l-3.29,2.82l-44.94,1.84  c-4.95,15.52-13.06,14.82-24.31-2.13l-44.71-29.12c-5.41,18.92-11.08,37.71-17.02,56.37c-7.63,31.17,4.07,51.12,24.27,75.11  l0.84,5.15l12.16,14.22c-11.33-0.36-25.26,4.62-32.47-3.61c-3.74-2.31-7.95-3.69-12.64-4.13c-0.13-6.08-1.25-11.92-3.37-17.54  l-33.46-66.54l1.7-13.41c-25.08,23.39-35.65,60.33-22.07,92.49l-0.99,3.81c2.81,4.82,5.18,9.68,9.25,14.31  c-2.82,0.65-4.84,1.99-6.71,1.78c-7.92-0.9-15.9-1.77-24.06-3.65c0.78-3.52,1.49-8.3-1.34-9.76l-8.92-4.57  c6.05-13.89,6.25-28.61,5.92-43.66l-1.26-58.17c12.74-16.33,19.85-33.73,15.72-55.38c-4.02-21.04-10.81-88.81,1.74-108.98  c-15.88,3.84-21.92,17.23-23.15,30.99c-3.26,8.92-5.09,5.02-5.92-2.32c-1.49-25.86,17.24-38.43,40.04-47.85  c29.69-12.26,56.98-26.62,88.62-32.99c1.86,0.08,2.92,1.79,3.19,5.14l31.7,1.22l5.1,1.78c8.72-3.85,15.12-3.26,19.19,1.78  c6.67-4.08,12.6-5.18,17.79-3.3l1,2.79c9.47-6.03,15.67-5.98,18.58,0.13c4.59-2.16,9.16-3.11,13.72-2.86  c1.65,4.31,2.14,9.07,1.47,14.27c2.49-1.39,4.3-1.54,5.61,1.09l-1.47,17.19c8.55-7.94,10.63-4.25,6.24,11.06  c3.03-0.13,4.85,0.92,5.44,3.14c0.68,13.45,2.33,26.34,4.96,38.64c13.81-30.5,29.82-59.71,48.03-87.65  c23.96-30.81,41.18-4.42,55.67,19.37l19.45,35.81c3.3-13.42,14.51-21.82,21.01-5.04c4.02,1.48,5.27,2.9,6,7.12  c4.33-6.76,9.3-4.48,14.92,6.85c4.47-9.3,10.99-14.69,19.57-16.17L476.93,1091.55z" />
<path class="cls-2" d="M795.72,1018.36c3.02,1.46,3.44,11.05,3.25,14.69c0.15,5.37-1,14.81-7.98,12.21c-0.18,6.38-4.25,12.9-8.63,5.1  c-0.98,6.99-3.78,13.03-8.84,5.1c-0.43,11.26-7.86,10.32-8.57,0.24c0.4,11.46-0.72,22.72-3.35,33.79c-0.72,3.25-3.06,4.23-7.03,2.94  c-1.67,9.68-9.07,26.31-12.87,9.49c-1.41,7.35-7.04,16.44-10.9,5.2c-9.59,9.19-16.95,13.74-14.95-4.15c0,0-2.07,0.53-6.21,1.58  c-4.03-5.36-6.06-11.93-6.09-19.72c-4.77,3.52-9.28,7.73-13.53,12.63c-4.13,0.44-6.33-3.04-6.59-10.46  c-3.34,1.33-5.7-0.44-5.85-3.92l-18.67,34.01l-3.11,0.1l-3.16,2.84l-29.11,1.55c-4.59,14.08-12.32,3.61-14.17-4.95  c-4.77-0.86-11.08-11.52-4.05-13.82c-4.51-4.81-5.26-8.6-2.25-11.39c-2.15-0.71-3.34-2.48-3.58-5.31  c-7.13-9.93-14.67-19.65-22.63-29.16l-5.96-3.72c-17.25-4.6-35.37-5.23-54.37-1.9l-2.2-2.64l-2.78-3.99c0.15-7.69,1-15.3,2.57-22.83  c-6.17,6.66-8.77,15.47-7.8,26.45l-2.82,1.37c-1.26,3.64-3.64,2.81-3.97-1.04c-1.71-23.72,6.37-37.56,28.45-45.58  c18.81-6.84,36.13-16.84,55.93-19.99c0.3,0.62,0.6,1.2,1.03,1.58c4.45,4.03,58.86,2.52,69.05,2.11c3.31,1.39,4.45,4.51,3.42,9.37  c4.27,0.76,5.3,4.19,3.07,10.29c8-2.66,5.93,4.37,4.02,9.46l1.89,1.49c1.88,7.58,3.37,15.23,4.49,22.95  c8.01-16.88,16.8-33.38,26.36-49.48c16.47-24.81,26.93-17.54,40.78,4.27l13.71,24.9c4.91-12.5,11.76-7.89,17.39,1.23  c4.54-1.5,7.9,0.43,10.07,5.81C782.6,1022.71,791.15,1011.99,795.72,1018.36z" />
<path class="cls-4" d="M500.91,1061.99c2.61,1.42,2.38,3.8-0.68,7.13c-3.24,1.75-6.52,3.4-9.84,4.94c1.63,6.54,0.49,11.08-3.43,13.62  c-0.04,4.21-8,8.33-10.04,3.86c-10.2-1.21-15.05,9.78-21.19,18.24l-9.47-14.2c-2.35,2.59-2.83,4.49-4.92,6.55  c-1.32,1.31-2.73-2.11-3.32-4.31l-1.01-3.73c-6.07,1.35-5.42-8.02-10.34-10.19c-7.95,1.59-9.67,10.57-11.76,18.91  c-11.89-17.47-33.81-74.4-56.65-73.62c-21.46,0.73-55.77,85.88-68.7,106.81c-5.42-16.15-4.33-31.6-6.53-47.11  c-1.63,0.01-2.45,2.13-5.13,2.76c-1.28-6.44,1.58-12.35,3-18.89c-3.24,2.49-4.42,6.63-8.98,8.35c-1.55-8.24,0.87-15.11,1.33-23.25  c-2.75,1.9-2.2,5.32-5.23,6.65c-1.64-6.98-0.24-13.22-0.75-19.85l-10.94,3.6c-6.01,1.98-2.62-5.36-7.65-4.65  c-5.35,0.75-15.83,10.1-15.34,0.82c-6.52-2.63-15.84,9.7-19.36,1.98c-3.9-6.25-14.12,4.96-20.39-0.99l-33.83-1.24  c-2.87-0.11-1.33-5.99-1.54-7.76c6.26-1.26,11.24-7.05,17.03-9.33l11.31-6.61l3.23,1.04c7.9-7.02,15.09-7.94,22.17,0.77  c1.81-7.03,8.38-17.54,15.21-10.13c7.08-9.31,12.88-8.07,11.54,3.91l7.81-10.01c10.14-9.36,17.57-9.3,15.11,6.14  c3.95-8.21,13.23-20.08,22.81-15.38c0.96,7.74,2.78,8.23,5.47,1.46c6.49-7.57,12.32-9.54,9.88,1.91  c3.96-6.11,8.58-12.12,14.76-16.18c10.72-7.05,11.43-1.36,9.87,8.34c4.39-6.17,9.55-9.35,15.47-9.56c1.37,2.05,1.91,4.44,1.63,7.16  c7.7-10,17.61-15.01,16.45,2.49c6.38-10.81,19.82-23.55,18.7-1.78c6.81-9.02,20.89-17.02,17.1,1.09  c6.76-9.01,16.09-10.61,11.47,3.31c4.84-6.85,8.8-8.39,11.9-4.6c-0.96,7.86,0.4,10.15,4.08,6.85c4.55,6.47,7.54,14,8.98,22.6  c2.09,9.42,4.4,18.45,6.91,27.12c-4.56-13.49-7.35-31.3-5.51-46.99c9.49-3.35,15.15,9.26,17.92,16.68  c-0.07-8.48,2.29-11.2,7.07-8.16c0.74,3.52,2.44,4.8,5.09,3.84c4.21,5.1,7.78,10.68,10.7,16.74c2.19-1.61,3.23-1.64,5.34,0.14  c1.78,1.5,11.18,18.36,11.64,20.87c-1.75,3.45,0.5,5.46,6.76,6.03C500.59,1057.24,502.18,1059.18,500.91,1061.99z" />
<path class="cls-2" d="M1077.8,803.06c0.28-1.51,0.72-1.55,1.3-0.12c1.87-0.01,4.1,0.23,5.85-0.63c4.25-0.24,9.61-0.3,11.81,4.02  c1.56,4.36,4.67,8.3,3.1,13.07l-2.45,3.67c-8.24,4.1-16.79,7.23-25.67,9.39c-0.02,2.45-1.23,4.55-3.63,6.31  c7.84-1.05,15.51-0.86,22.98,0.59c3.34,4.88,5.45,10.35,6.33,16.39c3.69-10.06,9.55-17.62,17.59-22.7l2.97,1.33l12.72,15.89  l5.06,0.36c3.81,3.67,7.12,3.07,9.92-1.78c0.95-3.1,2.44-4.81,4.48-5.11c9.14-0.46,18.88-3.48,25.13,3.54  c7.93,8.91,4.51,33.73,2.79,40.57c-1.02,4.06-9.37,1.92-10.69,6.22l-2.71,8.79c-0.58,1.88-6.41,4.23-7.22,1.19  c-1.21-4.56-1.49-9.75-5.4-13.15c-1.99-1.73-17.65,4.44-19.09,7.4c-1.48,3.04-0.1,7.13-0.21,9.57c-4.6,8.15-9.47,17.3-12.93,26.27  c-2.22,1.11-7.6,1.17-7.5,4.53c0.05,1.67,1.32,3.96,1.97,5.95c-2.07,2.98-6.53,1.14-9.3,3.78c-1.19,4.49-0.62,10.7-4.44,13.26  c-2.08,1.39-7.32,5.05-8.39,2.9c-1.42-2.87-3.81-6.26-5.85-8.68c-2.28-2.65-2.99-7.11-2.81-10.53c-2.31-0.71-4.81-0.34-7.52,1.09  c-2.76-1.2-14.32,4.03-16.32,6.27c-3.68,4.13-2.76,12.84-1.74,18.03c2.59,0.35,2.74,1.45,0.29,2.44c-1.97,1.52-4.34,1.41-6.68,1.34  c-2.01-0.63-3.84-1.77-5.49-3.42c-9.99,5.55-12.71-1.23-15.51-9.53l-3.36-1.99c-1.75-7.53-4.58-14.47-8.48-20.82  c-7.08,0.81-8.62-6.37-0.61-5.91l2.17-1.84c-2.18-1.23-3.95-3.49-5.33-6.8l-4.66-2.66c-11.18-1.21-22.59-1.34-34.23-0.39  c-3.48-0.19-6.57-1.7-5.17-5.25c-3.13-3.18-5.93-7.03-8.41-11.53c-4.76-13.19-13.82-21.72-28.06-23.97l-2.2-3.18  c7.17-4.92,15.65-7.79,24.15-9.53l5.03-0.75c11.87,1.45,23.88,2,36.01,1.65c4.69,7.95,7.93,16.53,9.73,25.74  c4.93-13.39,12.4-24.27,22.41-32.62c10.17,3.44,17.33,11.31,21.47,23.59c4.61-3.9,10.03-2.52,16.25,4.16  c5.64-3.1,10.9-6.82,15.79-11.15l4.42-0.08c1.71-1.77-0.24-3.09-5.87-3.95l-14.08-22.85c-4.14-4.54-38.06-15.01-45.23-11l-4.42-3.02  c-4.14,7.84-8.9,10.39-14.28,7.65c-4.52,3.52-7.75,3.94-9.69,1.26c3.14-12.16,5.89-24.37,0.39-37.71  c6.49-4.21,15.03-7.74,23.39-9.17c4.84-0.21,9.81-0.23,14.92-0.05c5,1.05,7.9,4.99,8.7,11.81l5.5-10.86  c5.47-8.06,11.79-5.77,18.96,6.89c5.85-0.6,8.77-0.91,8.77-0.91C1075.09,804.38,1076.17,803.27,1077.8,803.06z" />
<path class="cls-2" d="M967.26,938.12l2.2,2.14c1.13,9.12-1.03,14.49-6.48,16.12c0.48,6.36,0.31,7.82-6.6,6.69  c-2.21-0.36,0.27-3.89,0.63-1.1c0.63,4.82-4.16,13.89-7.82,6.21c-3.34-0.21-5.01-0.32-5.01-0.32l-0.14,12.43  c0.14,6.99-2.19,10.76-6.97,11.33c0.16,10.28-2.86,14.11-9.04,11.5c-1.49,5.23-5.31,7.69-7.97,1.82c-5.49,6.18-12.43,6.45-12.4-3.36  c0,0-1.57,0.37-4.71,1.12c-2.86-3.71-4.7-8.36-5.54-13.94c-5.02,5.55-12.79,11.97-14.45,1.08c-2.31,0.68-4.3,0.2-5.17-2.03  l-4.63,9.01c-2.46,5.04-5.01,5.87-7.66,2.5c-3.15-0.05-6.44-1.49-9.89-4.34c-12.96-2.86-26.48-3.04-40.56-0.55  c-4.92,0.62-8.92-0.37-12-2.96l-22.82-39.24c-6.5-7.16-18.52-10.65-27.65-13.02l-1.1-2.95c16.73-11.18,36.37-19.92,56.08-24.12  c6.54,0.84,13.78,1.46,21.72,1.86c11.42-0.03,22.7,0.66,33.82,2.06c3.59,11.77,7.2,23.6,10.84,35.48  c5.54-11.9,11.77-23.44,18.69-34.6c13.11-18.35,21.12-11.35,31.36,4.1l9.54,16.97c4.68-6.89,11.16-4.91,19.46,5.94  C956.15,940.09,964.18,931.86,967.26,938.12z" />
<path class="cls-4" d="M968.67,916.55c3.08,0.35,4.61,4.89,5.33,7.98c4.7,2.2-2.8,13.96-6.74,13.59c-6.58,0-9.89,4.85-15.02,10.86  c1.46-2.57-12.41-14.02-13.47-13.31c-2.06,1.37-3.18,4.1-4.9,7.87c-6.27-7.67-15.56-34.79-27.84-35  c-10.84-0.18-28.75,44.91-33.96,51.76c-2.45-28.67-10.51-26.16-10.5-42.7c-0.59-0.19-64.02-0.31-54.02-5.48  c4.31-1.65,8.26-6.38,13.16-6.89c4.31-3.6,8.17-4.57,11.58-2.93c3.69-2.85,7.72-5.05,12.09-6.6l3.18,1.87  c3.12-3.32,8.3-7.99,11.08-2.05c3.23-3.97,7.43-6.75,11.59-2.51c2.02-3.07,4-4.4,7.6-2.57c0,0,3.17-2.29,9.52-6.87  c3.8,1.3,7.83,2.09,12.08,2.36c2.98-2.68,6.14-3.3,8.74,0.26c3.33-3.77,6.84-4.66,9.72-0.04c3.24-2.03,6.14-3.15,8.29,0.77  c3.05-1.84,6.18-1.25,7.27,2.43c3.61,1.53,6.08,4.38,7.41,8.55c0.08-7.77,5.78-6.27,9.32-0.47c1.35-1.74,2.6-1.37,4.44-0.54  C959.62,899.15,968.22,911.08,968.67,916.55z" />
<path class="cls-4" d="M1087.48,878.28c-1.88,0.43-17.86,16.37-21.63,13.59c-8.79-6.51-9.42-8.64-12.13-5.04  c-0.69,0.91-0.84,3.16-2.78,3.7c-6.32-9.77-9.17-22.78-20.92-26.36c-12.48,9.38-15.51,24.89-24.7,38.38  c-0.92-11.31-4.64-22.37-9.25-31.9c-14.45,0.02-28.72,2.62-39.72-2.88c0.4-0.25,0.62-0.97,1.06-1.14c0-4.54,12.58-10.31,15.1-5.75  c3.07-1.36,6.16-2.96,9.26-4.79c2.29,1.67,5.23,0.77,8.84-2.68c3.18-0.27,6.32-0.94,9.41-2c1.94,1.14,4.69,1.44,8.24,0.91  c3.41-6.18,7.27-8.04,11.59-5.56c5.22,0.34,10.2-0.09,14.94-1.28c1.74,1.24,4.26,1.17,7.55-0.22c3.18,2.82,4.94,4,9.3,4.74  c3.69,2.54,7.03,3.38,10.03,2.54c2.71,2.43,5.83,4.09,9.37,5c3.83,6.11,7.78,12.03,11.83,17.75  C1086.18,875.05,1087.72,876.05,1087.48,878.28z" />
<path class="cls-9" d="M932.21,877.28c28.33,5.35,27.77,17.68,38.67,38.69c1.06,3.4-0.3,3.61-2.21,0.58  c-4.01-7.08-10-12.25-16.47-18.52c-2.29,3.74,0.9,6.88-1.8,10.37c-2.48-4.7-1.14-10.48-6.81-14.12l-0.31,23.42  c-1.45-11.15-4.52-20.26-9.3-26.13c-4.88,8.84-2.14-2.8-3.61-3.07c-2.56-0.48-5.87,3.16-6.96,4.68c-2,1.49,2.73-7.73-1.29-6.32  c-1.74,0.61-2.44,2.35-4.57,4.11c-2.61,0.64-1.58-3.13-2.25-4.31c-0.97-1.71-3.98-1.03-4.82,0.88c-1.1,2.51-2.02,3.81-3,7.12  c-2.28-0.83-0.19-10.8-4.32-8.08c-2.03,1.34-2.7,1.62-5.78,5.94c-1.74-2.13,0.61-5.17-0.77-5.19c-2.69-0.05-5.45,2.93-7.61,6.64  c-1.79-3.22,0.94-5.23-0.11-8.18c-6.83,2.37-10.3,7.58-13.87,13.65c-1.18-5.29,3.19-9.86-0.51-7.22c-1.4,0.99-1.82,2.39-3.89,5.85  c-2.44-3.71-4.06-6.03-6.78-3.79c-3.77,3.1-5.32,5.46-7.15,10.71c-2.58-2.94,0.67-6.2-0.91-10.5c-4.98,3.04-8.82,6.7-10.68,12.65  c-3.17-4.04,1.47-6.18-0.44-9.75c-3.62,5.06-10.1,2.58-11.38,10.05c-2.18-0.88-2.59-4.52-4.24-3.93c-3.19,1.13-5.47,1.46-8.29,1.75  c8.79-11.29,24.55-15.07,38.59-20.24C883.33,876.15,907.57,872.62,932.21,877.28z" />
<path class="cls-11" d="M919.95,839.45c7.59,1.05,14.36,6.5,21.61,7.45l38.85,5.04c5.12,3.9-4.23,7.67-7.89,8.93  c-5.44,0.64-10.01,3.86-15.1,5.75l-125.15-16.7c2.54-7,9.25-5.3,14.04-3.71c1.93-1.74,2.67-1.01,1.53,1.38  c0.77,1.49,1.64,1.8,2.6,0.93c0.6-4.12,4.05-2.36,5.37,0.57l0.94-1.51c8.38,0.24,16.61-0.45,24.7-2.08l1.63,1.03  c0.8-0.99,1.45-0.9,1.95,0.27l3.21-0.26c0.08-1.24,0.54-1.35,1.38-0.39l1.41-3.12c8.63-1.04,16.89-2.57,24.79-4.59l1.71,1.06  C918.1,836.77,919.28,836.76,919.95,839.45z" />
<path class="cls-9" d="M796.8,837.27c-44.07-17.75-94.09-21.13-138.96-35.12c-6.69-2.09-10.95-5.77-10.92-11.98  C666.4,803.43,803.22,812.38,796.8,837.27z" />
<path class="cls-1" d="M35.49,1119.59c-2.82,31.6,17.31,36.92,6.6,75.22c-0.95-6.25,2.04-11.51-1.33-17.87  c-1.95,8.92-4.71,17.45-3.52,27.17c-3.27-3.81-0.85-8.27-3.25-12.55c-3.04,5.17-0.39,10.02-2.5,15.32l-2.79-17.83  c-2.22,7.16,0.71,13.54-2.56,20.53c-2.67-11.08-0.15-21.7-0.67-34.08l-4.42,14.03c-2.81-20.76,9.25-59.77,8.53-72.25  c1.73,0.84,0.69,3.52,2.22,4.91C32.93,1123.2,34.23,1119.84,35.49,1119.59z" />
<path class="cls-4" d="M930.7,767.43l1.4,2.55c1.57,1.41,2.43,3.74,1.65,5.74c5.34,0.15,3.37,5.02-0.46,7.76  c-3.48,2.49-17.08,2.41-19.19-1.44c0,0-0.77,0.48-2.31,1.43c-3.09-5.02-6.6-9.53-10.55-13.54c-5.44,6.82-9.91,14.32-13.42,22.51  c-2.25,3.09-4.18,1.99-6.44-0.73c-1.77-17-5.55-20.05-22.71-18.91c-4.2,0.12-6.07-1.27-5.6-4.16c2.14-1.99,6.38-5.84,9.75-5.28  c10.36-3.66,24.34-8.5,35.62-9.58c7.61-0.72,15.08-0.23,20.43,5.99C924.5,758.01,928.08,763.13,930.7,767.43z" />
<path class="cls-10" d="M929.82,761.01l0.89,6.42c-5.13,0.96-9.73-12.16-11.2-1.53c-9.45-21.62-42.39-0.19-56.71-2.55l-0.03-1.52  C879.46,750.86,916.33,742.07,929.82,761.01z" />
<path class="cls-3" d="M217.02,400.6l3.03,1.44l9.53,45.93l8.07-42.64l2.92-1.05l23.76-131.5c3.08,20.9,6.91,40.72,12.21,62.05  c3.64-19.68,6.23-39.36,11.68-59.05c3.73,16.95,10.23,32.2,11.94,49.03c0.85,8.37,0.57,15.05,6.69,24.29  c1.16,1.75-6.04,5.17-3.91,7.47c5.35,5.8,8.28,15.61,8.87,16.7c2.01,3.7-5.78,2.91-5.02,6.52c1.94,9.25,12.74,17.19,10.88,24.77  c-7.37,4.03,0.99,11.27,2.44,17.23c0.83,0.59,1.63,1.22,2.29,1.96c3.35,3.79,6.04,25.6,3.24,31.16  c-20.78-8.47-45.51-7.12-61.17,10.56c-9.22,10.41-8,24.78-4.99,39.07c-12.93-5.56-26.49-3.13-36.56,5.73  c-10.45,9.19-13.04,22.54-9.67,37.79c-6.83-5.82-13.07-8.45-21.53-6.45c-6.46,1.52-12.86,6.13-14.63,14.12  c-4.09-4.69-8.91-5.57-12.15-7.23c-6.49-3.33-8.44,3.07-12.74,4.46c-11.46,3.72-22.52,7.79-27.46,20.86  c-11.7-7.16-25.62-6.13-36.16,1.36c-9.84,6.99-12.46,20.31-12.08,32.53c-8.98,0.45-17.95-0.75-26.91-1.01l-2.49-1.36  c12.33-75.04,24.65-150.1,36.99-225.16l2.91-1.2l15.08-84.92l19.6,92.53l2.81,0.4l22.75,116.34l18.65-110.83l2.91-1.15  c1.34,0.13,2.1-1.42,2.72-0.52c1.1,1.61,2.86,1.86,2.49,0.8l-1.48-4.21c-0.93-2.64-2.59-4.89-1.83-7.09  c0.66-1.92,2.47-2.61,5.34-4.58c-7.15-3.96-0.73-24.06-0.64-24.07c1.23-0.19,3.1,2.23,6.03,2c-0.6-5.19-3.39-9.52-5.08-15.08  l13.4-85.81l21.44,109.28c-1.59,2.1-4.06,4.71-3.81,6.82c0.29,2.47,2.09,3.31,3.8,5.48C223.47,389.96,207.39,389.75,217.02,400.6z" />
<path class="cls-7" d="M87.01,378.98L49.61,606.7l-13.26-0.39l-2.93-1.09l-22.26-117.3c-0.47-3.12,1.45-4.79,4.5-5.02  c-4.48-6.08-11.71-16.07-5.85-22.8c-4.52-4.42-10.2-14.69-1.2-15.38c-1.7-4.22-0.91-8.51,2.38-12.87c-4.41-6.2-8-14.03-5.59-21.68  c-4.22-3.98-7.06-14.66-1.25-17.51c-1.63-3.74-4.97-15.98-2.56-19.04c0.31-0.39,1.22-0.3,2.3-0.07  C31.68,374.34,59.33,376.43,87.01,378.98z" />
<path class="cls-7" d="M168.8,391.35l-21.46,127.57l-25.65-132.32C137.33,383.46,152.93,389.81,168.8,391.35z" />
<path class="cls-7" d="M366.86,431.25c-10.67,9.06-17.13,21.56-12.72,36.45l-10.09,3.78c-4.68-7-10.67-13.41-18.41-16.57  c-1.84-11.04-2.89-22.24-5.53-33.12C335.94,422.72,351.52,427.37,366.86,431.25z" />
<polygon class="cls-7" points="240.57,404.27 229.6,462.25 217.02,400.6 " />
<path class="cls-13" d="M426.98,443.42c-0.8-5.21,5.7-9.36,9.39-12.66c1.97,1.33,6.55-1.59,6.68,0.1c0.18,2.22-0.28,6.41-0.79,7.82  c-1.96,5.1-0.63,11.24-6.31,10.26C433.13,448.46,430.35,446.94,426.98,443.42z" />
<path class="cls-3" d="M463.2,367.03c0.8,0.54,2.99,2.62,2.11,2.92c-2.51,0.85-5.87-1.13-8.22-1.63c-4.98-1.06-4.65,6.83-2.68,9.48  l4.8,6.48c-2.14,0.51-4.08,2.87-4.08,4.67c0,2.51,1.1,4.62,1.45,6.86c-4.72,1.75-10.96,7.46-12.36,12.77  c-4.37-0.88-7.33,3.26-11.67,3.51c10.75-10.68,18.44-8.97,15.8-25.42c-4.71,1.28-7.37,4.8-12.44,4.85  c11.23-6.56,16.5-12.16,12-23.57c-5.1,3.21-10,4.42-15.38,6.71c4.76-4.42,10.46-6.9,16.14-10.48l1.93-49.78l3.96,46.93  C454.82,364.43,460.67,366.17,463.2,367.03z" />
<path class="cls-16" d="M268.59,1241.33l1.2,3.43l-8.74,13.94l2.82,1.37c0.51,4.39-1.4,8.88-5.73,13.46c0,0,1.61,1.65,4.83,4.96  l-1.21,9.8c1.87,0.99,3.2,2.29,3.99,3.92c-3.24,8.88-4.26,18.1-2.06,27.5c-3.36,1.37-1.64,1.1,5.14-0.79c1.56,2,2.33,2.99,2.33,2.99  c5.17-2.84,12.27-0.31,14.28,5.24c2.62-4.37,6.91-6.33,7.54-0.14c-4.83,9.77-7.38,19.73-7.66,29.9l23.08,4.66l2.37,3.12  c-1.25,6.85,12.65,6.48,3.85,9.35c-48.55,3.84-107.22-14.8-155.18-22.67c-51.33-60-25.86-73.46-9.74-141.17l47.37,31.09  c5.66,3.71,7.61,11.52,14.39,14.29c3.65-2.94,4.63-7.74,6.4-12.19L268.59,1241.33z" />
<path class="cls-16" d="M408.52,1320.57c-8.08-0.61-13.9,8.5-17.71,14.35c-10.08-2.22-21.78-8.02-30.39,0.34  c-2.07,2.01-3.77,4.61-3.56,7.96c0.21,3.29,4.69,0.05,6.18,7.04c-11.57-5.08-15.9,1.89-22.77,4.5c-9.29,3.53-20.37,0.28-28.13,6.25  c-7.5-2.75-10.46-16.82-10.72-24.62c-0.27-8.26,3.01-14.65,7.89-20.95c10.84-9.22,19.67-19.57,26.5-31.06  c1.28-7.31,5.13-17.17,8.26-4.89c7.87-7.93,6.69,4.69,5.9,11.16c3.17-5.21,9.07-8.73,11.74-1.49c3.4,0.14,5.49,1.42,5.77,4.75  c4.77,0.9,6.69,5.23,5.77,12.97c2.46-1.46,4.32-0.95,6.25,1.09c2.37-2.05,4.16-2.35,6.13,0.39c1.95-3.25,5.77-1.89,6.35,1.61  c1.84-4.37,6.47-4.17,7.35,0.55C405.46,1302.89,413.82,1315.41,408.52,1320.57z" />
<path class="cls-5" d="M508.61,1265.35c4.77,3.34,7.54,8.84,8.31,16.47l2.62,15.76l-2.3,4.12c-1.03,0.23-2.13,0.1-3.16,0.27  c-2.32-3.15-5.71-3.22-10.19-0.21c-4.27,3.08-7.99,4.25-11.15,3.5c3.19,1.02,1.52,2.64-5,4.85c-6.37,3.48-12.42,7.58-18.13,12.29  c-5.71,0.56-10.49,1.71-14.35,3.45l-2.82,1.45c-8.64-2.84-14.21-11.42-23.6-8.34c-3.55,0.41-3.58-0.85-0.41-2.45l0.74-4.25  c14.62-9.39,28.85-19.11,42.69-29.15c8.55-3.11,16.87-6.77,24.96-10.97C493.85,1267.44,505.08,1261.4,508.61,1265.35z" />
<path class="cls-16" d="M514.09,1301.97c-6.21,8.5-17.15,12.32-27.35,15.99c-2.06-0.87-4.8-4.25-6.87-1.58  c-1.03,1.33-2.15,4.61-3.25,6.82c-7.66,1.49-16.81,6.53-24.17,4.11c0.05-9.41,11.02-4.09,15.84-7.21  c8.55-5.52,16.45-13.16,25.04-14.89c-5.23,1.05,19.89-12.36,20.78-8.19C514.53,1299,513.93,1300.67,514.09,1301.97z" />
<path class="cls-9" d="M396.5,1364.81l6.54,5.34c0.25,4.74-2.73,7.77-7.32,7.68c-4.5-0.08-7.85-3.32-7.45-7.85  C390.83,1368.83,393.21,1365.06,396.5,1364.81z" />
<path class="cls-5" d="M711.26,1206.76c-30.61,7.38-60.26,10.05-84.48,33.28c-14.98,14.36-32.01,20.23-54.24,19.12  c-8.07,3.67-12.34,12.52-20.84,14.24c-4.97-1.28-2.88-13.97,1.8-14.58l2.81-3.7c9.38-3.78,19.09-6.85,29.14-9.21l9.1-8.17  c1.76-2.97,3.65-5.25,5.68-6.82l0.89-2.99l18.7-1.86c7.71-4.84,16.18-8.15,25.4-9.94c14.18-8.01,32.39-12.99,48.51-10.42  c-0.71-4.33,1.81-8.11,7.55-11.32c9.69-2.23,18.79-5.27,27.29-9.11c2.07-3.06,4.39-4.41,6.95-4.05c3.55,3.05,7.75,4.44,12.09,6.76  C727.18,1201.96,727.16,1193.27,711.26,1206.76z" />
<path class="cls-5" d="M591.02,1272.7c3.83,0.05,3.53,2.2-0.33,2.45c-10.89,12.86-31.36,12.53-48.07,14.29  c-3.06-3.52,2.67-14.99,6.71-9.06C553.73,1290.87,584.93,1257.5,591.02,1272.7z" />
<path class="cls-9" d="M626.78,1240.04c6.41-0.41,16.22-4.52,18.92,0.54c4.27,8.01-18.37,13.5-20.19,8.33  C624.7,1246.61,626.7,1243.13,626.78,1240.04z" />
<path class="cls-9" d="M590.69,1275.15c0.47-0.55,0.6-1.79,0.33-2.45c5.22-1.72,13.36-8.14,17.8-2.69c3.78,4.64-3.06,9.15-7.12,9.74  C596.8,1280.46,592.27,1280.75,590.69,1275.15z" />
<path class="cls-7" d="M305.2,653.68c1.18,26.84,68.61,20.61,91.03,21l6.73-2.56c20.1,0.32,40.2,0.68,60.3,1.07l5.93,2.73  c67.98,1.16,136.38,0.8,204.53,1.42c1.28-0.67,2.58-1.3,3.94-1.75c1.32-0.43,2.62-0.82,3.93-0.85c21.95-0.46,44.26-0.44,66.09,1.27  c25.68-2.48,52.09,0.09,73.31-16.92l78.71,7.03c23.95,2.14,47.92,3.94,71.59,14.44c-37.38,11.82-90.57,4.7-128.97,17.5  c28.75,6.28,56.11,5.09,84.44,6.73c52.2,3.01,103.26,2.34,155.32,8.16c24.62,2.75,50.32,1.73,74.02,15.76  c-185.3,30.42-358.57,1.99-541.03,24.3c-13.22,1.62-25.86,2.33-37.83,8.61c6.21,8.37,41.1,17.49,37.04,27.49  c-1.48,3.66-6.53,4.32-10.11,5.05c0.07-2.86-0.97-5.66-2.35-8.08c-1.29-2.27-5.33-3.47-8.72-2.79  c-38.15,7.64-141.97,0.77-185.97-1.55c-48.86-2.58-95.78-3.25-144.36-1.28c-22.92,0.93-44.06-3.42-66.88,0.55  c-4.72,0.82-82.59,4.08-75.27-6.31c30.15-2.02,59.82-1.64,91.16-1.3c76.15,0.83,151.04,0.5,226.8-5.35  c18.76-1.45,37.03-1.81,55.34-8.49c-60.68-11.53-119.38-11.82-179.05-18.15c-35.08-3.72-71.02-3.18-105.37-17.95  c34.56-11.87,68.85-9.61,102.75-9.15l318.38,4.33c33.25,0.45,65.46,1.72,99.6-7.06c-32.25-7.75-63.99-8.66-96.58-10.17  l-313.56-14.49c-72.53-3.35-144.48-6.79-218.61-20.14c23.21-11.78,48.7-7.65,72.75-8.76C218.49,656.01,261.81,658.06,305.2,653.68z" />
<path class="cls-9" d="M249.19,1484.2c-16.84,8.34-26.57,24.92-32.84,17.29c-1.96-2.38-2.44-6.66,0.07-10.75  C222.23,1481.26,241.73,1473.72,249.19,1484.2z" />
<path class="cls-9" d="M218.84,1517.26c-1.86,3.78-5.16,5.16-7.89,5.43c-3.85,0.38-6.21-1.85-5.91-5.79  c0.58-7.63,10.87-10.32,13.53-8.41C220.76,1510.06,220.25,1514.4,218.84,1517.26z" />
<path class="cls-7" d="M66.6,778.92c-0.49,1.81-1.75,3.17-3.08,3.34c-2.29,0.29-4.86-0.27-4.49-2.63  C61.56,779.43,64.02,778.63,66.6,778.92z" />
<path class="cls-7" d="M77.72,778.01c0.63,2.57-1.36,3.02-3.38,2.94c-2.04-0.08-5.52,0.32-4.9-2.6L77.72,778.01z" />
<path class="cls-7" d="M95.14,775.7c-0.42,1.11-0.71,3.35-2.17,3.44c-1.75,0.11-3.66-0.94-4.45-2.27L95.14,775.7z" />
<path class="cls-7" d="M108.48,775.32c0.42,2.04-0.19,2.85-2,2.9c-2.17,0.07-4.39-0.29-3.59-2.77  C104.67,775.32,106.75,775.8,108.48,775.32z" />
<path class="cls-9" d="M111.23,704.26c0.8,16.75-71.47,14.54-88.3,29.35c-4.49-0.81-9.82,0.33-14.71-4.58  C42.21,716.11,78.21,714.34,111.23,704.26z" />
<path class="cls-16" d="M748.71,1173.44c-7.03-3.1-9.65,0.71-16.06,2.6c-0.81,2.82-3.4,4.43-7.78,4.82c-3.38,1.36-5.46,4.26-6.23,8.71  c-11.42,3.56-22.87,6.25-34.35,8.05l-1.27-1.53c-5.34-0.91-6.84-11.08-6.79-16.06c0.05-4.95,1.34-9.38,4.57-13.33  c6.34-5.61,12.07-11.65,17.18-18.13c1.97-6.53,8.69-9.45,8.35-0.9c2.44,2.24,4.27,2.28,5.49,0.12l3.59-0.69  c2.06,2.83,4.57,4.5,7.52,5c1.9,9.36,4.27,12.42,7.12,9.16c3.01,0.39,5.82,1.11,8.42,2.18  C746.57,1160.29,754.1,1166.81,748.71,1173.44z" />
<path class="cls-5" d="M812.61,1130.06c5.35-1.11,7.76,12.5,3.02,13.69c-4.55-1.05-5.57,4.92-9.31,7.26  c-5.73,3.59,3.79,3.65,1.18,10.6c-10.34,7.82-23.11,15.48-35.52,14.07c4.11-6.38,11.98-6.96,12.81-13.22  c-9.11-0.32-16.06,9.88-23.56,10.87c-4.12,1.07-5.3-6.75-3.55-9.73c-3.85-12.07,9.27-18.46,19.3-21.27  c5.92-2.85,10.96-7.09,15.11-12.72C795.43,1128.21,809.84,1127.18,812.61,1130.06z" />
<path class="cls-9" d="M732.65,1176.04c1.36,1.38,1.87,3.68,2.86,5.2c-13.22,19.88-25.26,1.81-41.79,24.48  c-4.7,0.04-13.39-2.6-10.77-8.09c-2.6,0.14-2.56-0.9,0.06-1.54l33.81-8.03C717.68,1177.81,725.71,1178.09,732.65,1176.04z" />
<path class="cls-10" d="M1087.48,878.28c-1.55-1.07-5.36-0.49-6.66-2.54c-4.22-6.68-8.31-13.61-13.22-17.98  c-3.38,9.97-2.48-2.95-8.11-3.02c-0.72,5.6,2.17,10.88,0.79,15.9c-2.76-4.29-2.74-16.01-6.17-16.78c-2.97-0.66-5.94-3.84-10.22-1.34  c-0.82-2.99-0.35-4.64-2.51-4.81c-1.84-0.14-2.22,2.58-4.15,3.64c-1.57,0.86-1.41-2.49-2.05-3.15c-1.13-1.18-2.18,0.58-2.66,1.22  c-0.56,0.75-0.83,3.05-3,3.47c-0.91-1.19,1.86-7.35-2.3-3.45c-0.94,0.88-1.36-0.63-2.89,2.34c-0.24-6.83-2.66-1.06-4.83-0.62  c-2.16,0.44,0.39-4.68-4.2-2.88c-2.53,0.99-5.34,8.62-7.27,6.98c-4-3.39-6.68,5.63-8.69-2.15c-4.27,3.66-4.64,6.29-6.39,9.36  c-0.47-1.4,0.9-2.46,0.61-7.06c-4.85,0.37-6.78,5.86-10.41,5.62c-2.07-7.29-6.33,3.87-10.63-0.16c1.85-3.87,7.41-4.23,7.89-8.93  c4.71,0.03,9.35-4.36,13.5-5.57c3.68-1.07,6.26-0.81,9.36-7.57c2.02,6.2,4.48,7.29,8.48,2.18c2.61-3.34,5.63-3.38,0.93-7.66  c6.5-0.79,7.4,4.21,11.8,5.05c1.08-7.24,43.69,8.93,45.09,11.46l13.35,24c36.11-4.59,36.63,8.85,32.06,9.04  C1102.58,883.39,1106.67,873.93,1087.48,878.28z" />
<path class="cls-4" d="M1147.46,838.33l2.72,5.43c-0.29,5.44-2.9,7.68-6.66,10.93c-5.37,4.63-6.27-4.76-13.21-0.63l-15.13-18.9  c-9.65,7.08-13.36,18.93-19.17,29.1c-1.07-8.34-2.53-16.31-6.36-22.88c-11.36-2.08-21.2,2.07-32.27-1.31  c6.94-0.91,9.49-5,14.37-7.61l33.98-8.93c11.23-2,22.15-3,30.14,6.88C1140.7,829.22,1144.57,831.86,1147.46,838.33z" />
<path class="cls-4" d="M1077.8,803.06c0.1,2.05,0.01,5.11-1.95,5.76c-2.89,0.96-6.2-1.78-10.02,1.84c-5-2.89-6.27-10.37-12.89-13.24  c-6.71,5.94-8.25,14.48-12.66,22.07c-1.61-5.78-1.76-12-5.27-17.16c-6.14-0.94-13.42,1.54-17.32-2.84c0.4-1.38,1.86-1.63,2.81-2.38  c3.73-1.6,7.5-3.08,11.33-4.39C1048.43,787.07,1070.47,781.91,1077.8,803.06z" />
<path class="cls-9" d="M1147.46,838.33c-4.37-0.25-10.84-12.83-10.88-1.93c-13.09-24.87-43.59-1.68-64.84-3.94  c8.87-4.75,18.59-10.05,28.12-13.06C1109.25,816.43,1146.04,815.66,1147.46,838.33z" />
<path class="cls-9" d="M1079.1,802.94c-0.49,0-0.91-0.53-1.3,0.12c-17.06-22.9-35.2-8.66-57.29-5.95c9.8-7.71,24.49-12.07,37.06-12.14  C1070.74,784.9,1075.98,792.2,1079.1,802.94z" />
<path class="cls-9" d="M1096.76,806.33l-11.81-4.02c2.49-1.23,5.2-1.61,8.15-1.24C1096.32,801.48,1095.88,803.87,1096.76,806.33z" />
<path class="cls-10" d="M935.2,775.31c1.27,2.54,0.1,3.01-1.46,0.41c-1.14-1.71-1.76-3.68-1.65-5.74  C934.95,770.05,935.38,772.91,935.2,775.31z" />
<path class="cls-2" d="M933.75,775.72c0.71,0.52,0.93-0.11,1.46-0.41c6.84-3.88,14.72-1.45,19.55,1.57  c13.27,8.3,9.42,38.1-4.82,46.95c-2.6,1.61-2.35,10.75-9.28,9.23c0.05-5.1-1.91-14.37-6.76-16.18c-5.13,1.88-12.9,3.17-14.36,6.86  c-1.87,4.7-0.61,11.69,0.42,15.7c-0.62-0.09-1.81-0.13-2.4,0.04c-2.35-0.98-5.32-0.62-8.92,1.07l-9.76-9.32l-7.4,6.23  c0.29,3.92-0.33,6.8-1.83,8.67l-1.38,0.39c-0.83,1.71-2.4,2.05-3.21,0.26c-0.66-0.01-1.31-0.13-1.95-0.27  c-3.56,0.26-3.54-0.96-0.3-2.39c-3.68-1.48-6.79-10.34-7.61-14.61c-0.75-3.95-0.86-7.22,0.75-10.99c-3.95-0.2-7.75,0.83-11.37,3.12  c-3.69-2.26-7.21-4.82-10.56-7.69c-5.37,8.24-6.7,22.08,1.83,29.24l-0.12,3.29c3.57,0.27,3.47,1.47,0.11,2.6  c-1.66-0.1-3.59-1.76-5.37-0.57c-1.03,1.32-2.33,0.71-2.6-0.93l-1.53-1.38c-2.75-7.72-7.71-14.86-8.9-25.52  c-7.45,5.24-10.29,17.63-5.22,26.53c-14.53,9.52-4.32-34.07-3.84-36.81c1.71-9.63-4.96-19.69,0.14-29.24  c-8.91,2.66-2.57,9.83-7.04,16.17c-1.9-5.92,1.22-10.44,1.92-17.32c9.48-3.61,19.56-11.17,29.67-11.37  c6.66,3.4,16.11-0.23,23.92,3.67c5.82,2.91,5.16,14.2,7.52,20.37c5.06-7.57,7.82-18.91,15.89-25.15  c6.15-0.92,10.63,13.47,15.39,15.76C906.21,778.68,938.59,787.69,933.75,775.72z" />
<path class="cls-3" d="M1134.48,499.37c9.96,43.46,19.4,87.41,26.77,131.4l-250.49-4.77c3.47-2.57,5.34-7.32,8.37-10.06  c3.5-6.64,6.39-13.48,8.67-20.53l3.03-1.94l1.33-0.17c12.13,4.81,26.57,4.44,38.64-2.88c10.13-6.14,16.3-17.91,17.05-32.37  c24.13,25.76,60.36,28.14,88.96,8.35c22.89-15.84,31.07-43.01,18.34-68.81C1110.3,500.02,1122.03,500.48,1134.48,499.37z" />
<path class="cls-15" d="M908.15,626.43c-19.25,13.56-50.13,13.61-68.44-0.91C862.45,624.15,886.11,630.09,908.15,626.43z" />
<path class="cls-4" d="M873.95,1099.66c0.44,3.14,0.77,6.29,0.77,9.46c0.39,2.95-2.45,6.48-5.48,6.43c-0.01,1.38-2.31,3.01-1.36,4.77  c-1.75-0.01-3.49,0.56-5.23,0.73c-5.94-4.45-9.5-13.15-3.03-19.37C862.31,1099.1,871.43,1095.69,873.95,1099.66z" />
<path class="cls-15" d="M1112.02,374.95c-3.25-5.33-10.56-10.18-6.17-16.23c3.33-6.26-4.12-15.06-3.88-22.5  c0.01-0.36,0.11-0.84-0.01-1.18c28.89,1.79,58,7.81,77.54,32.77L1112.02,374.95z" />
<path class="cls-5" d="M923.89,1079.99c-1.29,1.41-2.78,2.67-3.62,4.4c-14.21,8.31-28.83,14.46-45.9,13.73  c-3.01-2.86-0.13-8.69,3.99-7.86l0.82-2.82c8.45-0.52,16.62-2.24,24.51-5.15C903.02,1074.72,920.33,1075.61,923.89,1079.99z" />
<path class="cls-5" d="M869.25,1115.55c0.03-2.43,2.85-6,5.48-6.43c5.06,2.94,9.82-7.21,16.55-7.12c2.53,0.04,4.89,0.48,6.27,5.36  C888.51,1110.29,877.75,1118.82,869.25,1115.55z" />
<path class="cls-16" d="M139.13,1361.98c-23.59-1.96-47.26-6.08-70.83-5.31c-11.18-19.15-9.09-50.14,0.77-70.99  c6.73-14.23,18.88-23.59,26.65-36.74l-3.52,24.3l29.9,58.8c4.02,7.92,7.78,15.25,5.99,24.57  C139.89,1355.97,137.77,1360.43,139.13,1361.98z" />
<path class="cls-16" d="M930.64,1052.9c-6.06,0.92-11.51,4.2-18.63,2.17c-0.67,3.72,1.3,7.46-1.76,8.12c-2.13,0.46-5.29-0.9-7.78,1.69  c1.58,2.9,0.23,3.79-2.3,4.95c-4.12,1.89-17.08,3.56-18.95-1.25c-3.45-2.19-4.67-6.29-3.66-12.29c1.26-7.22,5.6-13.15,13-17.8  c4.7-10.12,8.51-12.23,11.43-6.33c6.41,2.51,10.83,6.55,13.25,12.1c3.24-0.96,5.88-0.49,7.92,1.41  C929.84,1042.42,936.64,1048.42,930.64,1052.9z" />
<path class="cls-5" d="M980.23,1030.66c-1.06-1.18-3.1,1.63-4.14,2.91c-0.65,0.81-0.09,2.45,3.69,0.91c1.31-0.53,3.19-0.18,1.17,5.37  c-7.87-7.22-9.07-2.7-12.16-2.27c-4.1,0.57-5.04,3.04-7.39,10.22c-4.47,2.27-14.72,0.83-13.74,8.77c-1.93-3.06-1.79-4.42-3.04-4.95  c-1.45-0.62-2.86-0.64-4.25-0.58c-3.47,0.96-3.82,0.46-1.65-2.41c3.8-5.17,7.3-10.69,10.49-16.55c7.77-4.45,14.13-9.7,19.09-15.75  l2.94-0.59C976.38,1006.74,988.18,1026.95,980.23,1030.66z" />
<path class="cls-9" d="M902.46,1064.88c0.27,4.03,20.2,12.77,29.82,9.44c-0.05,2.21-1.11,4.26-2.54,4.97  c-2.14,1.06-4.19,0.54-5.85,0.71c-6.22,0.62-15.55-2.53-20.2,2.29c-1.75,3.2-20.99-0.14-22.44-1.13c-0.89-0.61-1.16-1.86-1.37-2.95  c-5.56-0.25-4.39-10.12,1.34-9.63C888.99,1068.25,896.75,1070.83,902.46,1064.88z" />
<path class="cls-5" d="M1083.52,945.38c3.58,2.27,4.28,6.31,2.81,10.53c-11.03,4.42-18.92,20.78-28.1,17.3  c0.07-0.78-0.43-1.67-0.29-2.44c-5.66-9.29,16.38-25.78,23.86-26.51C1082.33,944.21,1082.91,944.72,1083.52,945.38z" />
<path class="cls-14" d="M1051.55,974.55c-7.33-0.22-15.33,1.11-21.92,4.26c-4.93-2.08-4.37-15.77,0.92-17.21  c5.11-0.73,4.12,7.86,8.12,9.06c2.8,0.84,6.15-3.31,8.64-1.84C1049.4,970.06,1051.6,971.59,1051.55,974.55z" />
<path class="cls-15" d="M865.35,385.59c-1.68-2.26-3.87-7.48-2.17-10.46c1.31-2.3,3.63-6.2,6.33-8.2l11.76-8.73  C884.83,372.07,874.85,378.77,865.35,385.59z" />
<path class="cls-10" d="M930.85,593.46c-1.14,8.72-5.36,16.71-11.71,22.47c1.78-9.37,1.99-18.52-0.3-28.52  C925.16,589.22,926.59,593.99,930.85,593.46z" />
<path class="cls-10" d="M436.6,644.37l6.11-1.42c4.51-0.92,7.38-0.14,8.6,2.34c-2.26,14.15,8.21,21.65,17.89,30.64l-72.96-1.24  C412.65,662.27,419.7,646.11,436.6,644.37z" />
<path class="cls-10" d="M747.67,676.02c-24.6,2.38-49.12,1.55-73.95,1.32c6.17-6.97,14.28-11.64,16.05-22.17  c5.16-0.27,8.55,0.39,13.91-0.5C714.81,669.17,732.22,670.23,747.67,676.02z" />
<path class="cls-12" d="M451.3,645.28c-4.95,0.2-10.25,1.08-14.71-0.91c6.86-3.59,11.59-10.49,21.52-12.54  C457.51,637.2,453.12,640.91,451.3,645.28z" />
<path class="cls-16" d="M609.35,1116.62c2.24,2.66,4.31,6.98,6.95,8.96c3.73,2.79,3.86-6.31,6.59-6.47l32.91-1.94  c1.11,0.45,2.49,1.6,2.09,2.35c-6.93,7.62-7.61,15.44-6.77,25.15c4.28,7.15,3.23,14.43,1.69,22.29  c11.56,1.36,19.44,13.99,15.08,24.98c3.05,1.41,6.32,2.23,9.81,2.44l1.38,3.1c7.29,4.77-1.06,6.62-6.6,7.41  c-20.85-3.62-41.71-6.72-62.59-9.3l-6.92,1.42c-1.58-4.33-1.64-9.28-0.15-14.86c-0.93-13.31-1.39-19.97-1.39-19.97  c-3.85-9.14-0.84-17.41,2.36-26.14c0.36-0.98,1.54-1.44,2.53-1.64c-0.65-3.3-0.02-6.37,3.08-8.11  C606.46,1122.8,602.3,1115.38,609.35,1116.62z" />
<path class="cls-16" d="M514.32,1048.68c-0.65,4.5-10.48,6.51-10.83,1c1.34-12.7-0.89-27.68,14.9-32.86  C515.37,1027.58,513.81,1037.99,514.32,1048.68z" />
<path class="cls-4" d="M807.78,999.29c0.75,3.18-0.49,6.76-3.71,10.72c3.29,4.02-4.41,11.5-8.35,8.35  c-7.98,0.39-11.65,7.35-17.08,13.48c-2.2-2.03-3.42-7.45-5.5-8.97c-1.29-0.94-2.99,6.72-5.79,0.77c-1.26-2.68-4.2-5.23-5.15-6.87  c-2.11-3.66-5.42-1.47-6.45,0.89l-3.47,8c-8.61-10.8-21.56-48.46-37.62-47.84c-13.83,0.53-37.09,58.3-45.18,70.3l-5.06-29.17  c-5.71-2.47-0.09-7.27-0.55-11.89l-4.73,4.73c-3.93-3.97,1.12-9.3-0.7-14.11c-1.41,0.55-0.64,2.53-2.66,4.08  c-2.3-4.32-0.01-8.95-1.33-12.52c-2.87,0.82-83.3,3.15-70.56-6.19l15.91-8.22l3.57-1.23c4.76-4.28,8.79-6.27,14.41-1.46  c1.6-4.75,5.04-9.13,9.97-6.19c3.31-3.78,7.03-5.94,9.69-0.34c3.95-5.71,12.64-12.39,14.34-1.9c4.04-5.02,11.96-13.07,15.81-4.33  c2.84-4.18,6.78-9.91,9.65-2.83c3.77-6.08,15.99-16.02,15.28-3.3c5.33-7.06,9.67-8.49,13-4.29c4.22-4.3,10.07-5.55,10.36,2.09  c3.78-6.21,9.83-11.39,13.17-1.74c4.52-5.21,11.22-7.23,11.68,1.36c2.7-3,6.14-3.59,7.98,0.56c4.27-0.19,6.52,1.27,6.17,5.57  c3.81,0.5,6.13,3.51,6.95,9.04c-0.04-13.6,9.44-8.75,13.26-0.15c1.3-2.99,2.76-2.9,5.49-2.19c1.65,0.43,20.61,22.16,21.68,26.06  c-0.33,2.3-0.49,3.45-0.49,3.45C806.99,994.16,808.99,996.25,807.78,999.29z" />
<path class="cls-10" d="M970.88,915.97c4.94,9.06,48.18-9.35,49.39,15.09c-3.97,3.56-9.13,5.96-11.53-0.99l-3.86,0.24  c-4.4-2.85-9.52-4.02-15.33-3.51c-6.36,1-11.54,0.24-15.56-2.26c-5.24-0.87-3.77-5.23-5.33-7.98L970.88,915.97z" />
<path class="cls-14" d="M1083.52,945.38c-10.59,5.47-23.5,13.56-25.58,25.39c-5.34-1.63-4.08-14.32-0.85-19.05  c2.73-4,11.2-5.15,16.61-9.72C1076.31,947.41,1081.91,938.6,1083.52,945.38z" />
<path class="cls-4" d="M1100.44,899.7c-1.13,8.34-11.66,3.98-12.98-1.5c-1.22-5.06-0.57-10.69,6.29-16.5  C1088.24,890.48,1097.55,894.74,1100.44,899.7z" />
<path class="cls-4" d="M471.87,1023.15c0.96,1.8,2.99,3.36,1.66,5.49C472.97,1027.07,470.9,1025.72,471.87,1023.15z" />
<path class="cls-16" d="M882.79,844.13c-0.35,0.76-0.75,1.42-1.33,1.69c-1.09,0.51-20.98,1.79-24.04,1.82  c-0.57,0.01-1.14-0.5-1.71-1.15c-11.98-8.47-9.9-23.21-3.47-36.97c4.25,2.78,7.95,5.5,12.55,9.97c3.71-4.34,8.75-3.82,16.17-3.39  C872.21,826.16,881.51,833.82,882.79,844.13z" />
<path class="cls-16" d="M917.55,839.49c-8.11,5.05-18.62,4.01-27.91,6.65c-0.73-3.11-2.6-7.57-0.1-10.49c2.07-2.42,6.34-3.27,8.75-8.78  l11.77,11.82c1.79-0.9,3.81-2.64,5.2-2.56C916.69,836.21,917.36,838.16,917.55,839.49z" />
<path class="cls-14" d="M882.79,844.13l0.3,2.39c-7.13,5.4-18.52,3.09-27.27,2.57l-0.11-2.6C864.22,842.73,873.62,843.4,882.79,844.13z  " />
<path class="cls-3" d="M3.88,373.55c-6.28,7.06,3.73,13.43,3.04,21.33c-13.68,1.1,5.51,18.02,1.48,15.17  c-3.39,6.57,1.28,16.44,6.74,22.74c-4.06,3.31-6.49,6.62-3.8,11.41l6.15,10.96l-10.99-8.8c-0.62,9.83,8.48,12.43,10.62,19.71  c-1.94-0.4-2.82-2.66-6.71-4.05c-1.45,8.12,4.48,15.78,10.38,23.02c-0.4,2.68-4.91-0.21-7.31,0.79l22.87,120.48  c-12.1-0.36-24.24-0.11-36.35-0.95V361.61L3.88,373.55z" />
<path class="cls-16" d="M508.61,1265.35c-3.77,1.01-9.41,3.14-11.79,6.8c-7.37,4.22-15.18,7.57-23.44,10.05l-35.99,24.07  c0,0-4.71,1.16-14.12,3.49c-4.24,1.99-5.28-2.92-5.7-6.79c2.5-15.4,2.18-30.54-0.97-45.42c0.41-3.39,1.9-3.58,5.22-3.18  c4.3-2.92,7.06-1.01,8.29,5.72c1.29-4.65,3.79-6.19,7.49-4.62c1.36-7.65,4.18-10.58,8.45-8.8l7.16,0.64  c0.28-4.63,1.52-9.2,6.49-6.06c0.64-12.12,11.48-18.93,8.27-2.19c-0.9,4.37,0.15,5.46,3.15,3.26c0.44-5.7,3.07-17.18,8.55-8.29  c2.36-3.52,5.06-4.46,7.41-0.7c4.22-3.5,7.79-1.6,10.71,5.67c2.23,7.65,5.87,13.85,10.92,18.61  C510.82,1261.03,510.78,1263.6,508.61,1265.35z" />
<path class="cls-14" d="M679.07,1197.5c1.37-3.4,2.68-3.41,3.89,0.13c2.79,3.53,7.19,5.42,10.77,8.09  c-14.93,3.74-29.08,2.06-43.61,11.03c-7.42,4.58-18.24,3.76-25.67,9.85c-5.95,4.88-16.66,2.05-24.23,4.32  c-1.68,1.58-2.75,2.24-2.63-0.35c-3.49-1.03-3.55-1.84-0.31-3.53c-1.47-4.07-2.48-8.41-3.06-13.02l2.83-1.74  c-2.72-4.22,1.33-13.54,5.9-15.25C604.04,1181.98,685.22,1213.68,679.07,1197.5z" />
<path class="cls-4" d="M542.61,1114.69c5.45,3.95-2.89,17.34-8.7,18.7c-9.13,2.12-16.82-2.48-22.33-7.78  c-16.04-15.44-4.21-44.21,12.17-57.14c-1.5,11.82-4.78,22.42-0.83,32.73C526.17,1109.69,535.32,1109.4,542.61,1114.69z" />
<path class="cls-9" d="M496.82,1272.16c-2.68,4.13-6.77,8.49-12.94,8.48c-9.62-0.02-13.12,6.42-19.5,11.51  c-11.41,9.11-25.52,14.5-35.95,24.37c-3.66,4.47-8.33-3.47-5.15-6.76c1.8-5.69,9.4-3.41,13.71-6.33  C456.13,1290.48,474.46,1276.58,496.82,1272.16z" />
<path class="cls-4" d="M597.06,1212.28c-1.15,4.24,3.97,10.53,0.22,14.76l-1.55,3.02c-10.57-0.06-12.87,3.21-6.9,9.83l-0.91,2.85  c-0.77,3.26-6.98,6.67-9.33,3.96c-2.31-3.36-5.63-11.02-6.64-15.51c-2.12-9.45,3.79-14.55,11.55-18.06  C587.09,1211.52,594.7,1208.64,597.06,1212.28z" />
<path class="cls-9" d="M600.22,1230.92c-18.29,27.38-24.78,15.32-46.72,27.89c-5.84-6.49,3.75-10.27,9.81-12.18  c4.1-1.29,12.61-3.32,15.3,0.06c4.21-0.67,6.19-0.94,9.33-3.96c-0.89-2.78,4.32-8.51,6.61-10.59c0.86-0.78,1.97-1.2,3.05-1.59  C598.4,1230.43,599.44,1231.15,600.22,1230.92z" />
<path class="cls-9" d="M499.52,1048.64c1.21,0.84,2.78,0.44,3.97,1.04c3.72,1.87,7.55-0.99,10.83-1c25.67-0.1,59.78-11.58,74.71,19.96  c3.22,6.81,14.21,10.91,14.02,22.78c-0.37,0.98-1.02,2.42-1.75,2.33c-2.1-0.25-19.82-4.22-20.56-4.98c-4.03-3.07-2.09-6.07,5.83-9  c-8.19,0.35-16.3,0.38-24.33,0.08c-2.35-3.25-0.13-5.97,6.66-8.17c-5.99,1.33-12.05,2.29-18.16,2.89c-2.64-3.52-0.6-6.53,6.14-9.04  c-5.62,2.66-10.87,3.54-15.75,2.63c-0.97-2.86,0.06-5.55,3.07-8.07c-5.2,1.82-10.47,3.31-15.82,4.45l-2.74-2.04l-8.2,4.79  c-4.87,0.21-6.3-1.15-3.86-5.75c-4.52,4.76-7.5,4.14-12.68,0.43c-4.29-4.14-10.1-4.03-15.6-5.97c5.04-4.57-5.85-2.23-4.32-4.06  c1.52-1.81,3.64-1.08,6.58-2.14c-4.94-6.16-8.42-13.31-12.66-20.29c-2.89,3.1,2.01,4.02,1.58,8.13c-8-5.94-9.67-15.99-16.88-24.06  l0.55,9.76l-6.59-15.11c-4.21,15.01,3.63,27.4,3.99,42.91c-6.36-9.13-8.51-48.35-24.48-49.75l3.29,46.19l-4.36-15.12  c-1.43,0.75,0.06,2.09-1.68,5.28c-1.06-13.28-4.28-25.35-9.81-39.14l-5.69,10.59l-0.37-19.85l-13.05,13.78  c-0.62-5.66,2.52-10.3,2.8-16.73c-5.9,2.88-8.85,8.48-14.05,12.79c-0.08-5.91,2.34-10.61,1.54-16.44  c-7.6,2.22-12.16,8.24-16.71,15.34c-1.72-6.02-0.44-11.36-1.59-17.78c-8.76,4.54-13.36,13.16-16.4,22.97  c-2.51-6.33-1.17-13.01-2.29-20.74c-8.32,3.44-12.08,10.76-17.66,17.91l2.05-16.11c-8.04,2.84-12.49,10.25-18.73,16.35l2.41-18.09  c-13.96,5.73-20.23,17.95-27.38,30.3c-1.71-7.16,2.61-12.26,2.82-19.27c-6.46,5.14-10.32,11.96-13.85,19.07  c-1.82-5.46,0.04-10.27-2.2-15.11c-12.26,1.99-17.3,12.88-21.99,25.01c-2.48-6.39-0.51-13.44-0.93-20.93  c-12.28,3.54-18.23,14.89-23.27,26.35l0.1-20.17c-4.79,2.49-5.48,4.84-7.42,7.76c-1.86,2.8-4.02-4.35-6.25-3.65  c-7.69,3.45-7.37,12.95-10.9,19.19c-0.95-6.29-3.11-11.11-9.66-12.6c-4.54-1.04-8.76,5.38-12.96,6.16  c-3.34-5.4-8.91,2.27-13.63,2.38c31.64-26.74,73.07-39.96,113.11-52.85c47.3-15.23,94.11-16.87,141.31-1.57  c13.55,4.39,25.92,8.25,34.81,19.91C478.35,1010.75,482.83,1036.99,499.52,1048.64z" />
<path class="cls-1" d="M603.05,1091.42c-0.1,6.4,5.93,9.24,5.93,14.18c-11-1.53,0.7,6.24,0.37,11.03c-4.45,3.64,4.31,6.79,2.75,11.82  c-8.59,0.17,3.13,16.66-6.1,7.63c0.85,6.32-3.43,9.51-4.34,15.96c4.61,15.64,5.41,30.39,1.29,45c-1.5,5.33-3.96,10.14-5.9,15.25  c-8.54,1.87-21.85,4.06-22.87,14.78c-0.6,6.29,6.76,13.05,4.41,19.64c-21.33,3.38-23.36,3.62-25.11,12.11  c-1,4.84-2.44,9.56-1.8,14.58c-0.74,1.97-2.69,4.54-2.37,6.99c-5.31,0.02-3.5,6.53-6.71,9.06c-2.86,2.2-5.29,4.8-5.68,8.65  c-2.97-1.61,0.13-4.58-2.15-8.66c-1.78,9.29-9.57,10.47-17.53,12.26c-1.02-12.08-3.33-24.6-8.64-36.34  c-1.59-3.52-1.88-9.43-5.87-8.91c-3.98-6.07-5.37-15.62-12.13-23.53c-1.74,3.08,0.89,7.04-0.79,11.4  c-3.71-2.93-2.97-7.56-6.52-11.79c-2.27,5.06-0.14,9.59-3.03,14.58l-3.93-15.28c-0.94,3.93-2.5,7.15-2.58,11.59  c-0.09,5.13-4.23-1.38-6.96,5.74c-2.82-6.05-1.33-11.84-0.18-18.95c-5.3,7.1-3.61,14.87-6.94,23.06c-3.72-3.65-0.27-7.77-2.23-11.88  c-2.46,4.52-0.46,9.23-4.48,13.59c0.99-8.87-3.03-5.01-3.03-3.94c0,1.16-1.09-0.04-1.21-1.02c-0.19-1.57-1.99-3.75-2.24,3.85  c-1.24,2.21-2.4,2.3-2.35,1.08c0.96-23.07-5.28,13.62-7.92,6.07l-1.64-4.7c-1.66,1.3,0.19,5.09-1.59,5.42  c-1.84,0.34-3.96,3.15-4.83,1.88c-1.5-2.17-1.12-4.86-2.74-9.49l-1.77,9.68c-3.01-1.82-0.53-6.66-4.92-8.12  c9.23,30.88-4.12,45.69,4.55,54.1c1.88,1.83,1.65,6.29,5.15,6.76l0.41,2.45c0.49,2.87,0.13,5.64-0.65,8.71  c-7.54,0.03-17.82,0.48-19.66-7.11c-0.81-3.34-1.56-8.89-4.94-10.54c-1.53,0.95-5.12,7.02-6.3,5.01c-1.18-2.03,0.21-4.57-1.55-6.56  c-1.71,4.18-4.64,8.82-8.94,10.39c0.79-4.92,4.18-8.33,1.62-10.84c0.18,2.98-5.39,5.01-5.37,3.95c0.05-2.93,1.58-7.16-3.18,0.27  c-5.71,5.75-2.21-0.82-3.03-3.23c-1.12-3.27-3.1,3.65-5.77,4.93l-1.28-18.5c-1.52,1.63-2.26,3.25-2.59,4.48  c-1.79,6.71-2.18-5.61-2.5-6.51c-2-5.76-2.69,3.1-3.62,2.36c-1.55-1.23-1.32-5.87-2.99-8.47c-5.44,0.99-5.95,8.04-12.2,10.74  c1.03-6.6,2.37-13.18,1.87-20.52c-3.08,6.61-2.9,14.01-8.91,19.14c1.5-8.22,3.91-14.7,1.69-21.92  c-2.06,37.52-56.5,36.07-28.39,86.29c-0.13,1.33-0.43,2.7-1.37,3.69c-8.78-1.57-18.56-2.44-27.27-6.11  c-3.37-12.46,4.16-22.08,7.51-34.4l-12.4,16.49c0.29-4.83,3.44-7.78,4.14-10.62c1.05-4.28-2.95-5.94-6.5-6.69  c-3.3-0.7-5.63,3.02-9.75,3.7c-0.28-2.28,5.35-6.87-0.08-5.69c-1.13,0.24-5.52,6.3-2.84-1.17c-3.11,10.97-6.75-23.39,0.55-27.3  c-4.11-2.4-5.69-2.54-4.85-5.56c1.06-3.85,0.4-6.37,1.7-9.8c-4.04,2.1-4.4,6.83-7.47,9.59c-2.07-4.93,7.48-10.75,0.94-12.89  l8.56-12.92c-5.15-0.01-7.29,4.13-12.37,3.57c8.79-6.13,13.33-14.95,17.95-23.57l34.5-64.48c3.37,6.03,0.76,12,3.28,18.41  c3.06-3.12,3.2-7.09,6.93-8.56l3.69,21.46l26.55-26.24l6.8,36.94c4.26-1.73,7.53-5.1,13.34-6.64l-0.25,23.43l21.65-19.48  c3.09,5.46,2.89,10.39,5.34,16.29l9.68-31.01c3.99,7.58,3.12,15.02,5.72,22.97c6.53-12.63,10.04-25.3,11.63-39.27  c4.82,5.49,3.79,12.02,6.51,17.79c7.6-24.3,4.87-47.85,7.36-73.87c6.1,8.29,6.5,18.56,8.69,28.43c2.33-9.56,3.72-17.91,8.88-26.21  l4.56,20.79c2.08-10.03,3.47-19.53,8.2-28.39c1.44,7.11,1.06,13.24,4.72,19.25l5.98-27.02l5.75,14.82  c-1.26-7.52,4.78-12.33,5.01-18.46c0.07-2.01-4.78-5.08-4.9-6.96c-0.21-3.37,2.08-3.9,5.92-5.59c-3.73-3.17-7.08-4.45-7.21-8.14  c2.06,0.2,5.66-2.25,7.88-2.4c-0.16-1.38-4.32-5.07-1.8-5.53c1.47-0.27,3.5,1.18,5.44,0.97l-0.7-9.88c-0.32-4.43,4.3-2.53,5.62-5.08  c-2.52-4.36,3.14-0.77,4.21-1.62c1.97-1.56,2.56-4.33,3.34-6.01c-0.47,1.01,5.89-5.35,6.45-3.36c0.55,1.97-2.25,3.8-0.47,4.66  c4.44-2.71,6.6-6.64,12.19-7c-0.37,4.01-3.5,5.99-4.67,9.59c6-2.98,10.6-7.09,17.07-8.39c-1.84,3.41-3.92,2.88-3.83,4.68  c7.71-1.11,14.26-5.95,23.74-5.34c-1.86,4.34-7.26,5.11-8.9,10.5l24.12-7.81c-3.2,7.21-10.35,8.71-16.34,12.91l25.94-4.84  c-2.76,7.35-9.13,7.12-14.02,10.33c10.23,0.93,19.13-3.33,28.64,0.27c-0.89,5.44-6.08,5.4-11.27,7.54L603.05,1091.42z" />
<path class="cls-14" d="M812.61,1130.06c-6.19,0.96-12.14,1.6-19.42,1.8c-15.53,22.21-29.48,7.76-35.52,31.75  c-0.5,0.48-1.02,0.89-1.61,1.08c-5.93,1.84-3.16-14.59-1.86-17.69c-0.85-12.13-0.59-19.05,13.31-19.25c0.36-3.7,2.64-6.12,6.43-5.19  c1.77-2.78,3.89-3.93,6.59-1.83c2.02-4.12,4.96-2.83,8.16-1.14c0.95-4.58,3.28-6.81,6.98-6.69c1.41-7.02,6.83-4.32,7.21,1.94  C808.31,1114.07,815.36,1125.82,812.61,1130.06z" />
<path class="cls-14" d="M971.23,1015.76c-2.21,10.18-15.16,11.76-21.72,19.99c-3.17,3.98-2.85,12.99-10.8,12.9l-3.13,0.16  c-2.23-2.09-2.09-24.42-1.57-25.61c1.6-3.66,2.44-4.96,5.65-2.15l5.08-0.84c1.15-7.6,14.95-11.51,21.1-10.6  C968.82,1010.03,971.01,1012.89,971.23,1015.76z" />
<path class="cls-4" d="M836.88,1035.17c3.36,3.03-2.34,11.62-6.17,12.13c-4.97,0.67-11.33-1.26-15.21-6.11  c-8.81-11.03-1.49-28.5,8.97-36.42c-1.76,8.01-2.44,13.44-0.99,20.21C824.69,1030.58,831.64,1030.45,836.88,1035.17z" />
<path class="cls-4" d="M997.78,950.84c2.49,2-1.35,8.27-4.01,9.14c-3.88,1.26-9.02-0.58-12.11-4.31c-7.35-8.87-1.83-21.04,6.31-28.12  c-1.28,7.21-2.06,10.4-0.95,15.44C987.93,947.17,993.3,947.26,997.78,950.84z" />
<path class="cls-11" d="M903.69,1082.29c-4.14,8.54-16.31,5.38-25.34,7.98c-4.53-1.05-2.89-11.87,1.53-12.06L903.69,1082.29z" />
<path class="cls-9" d="M751.48,936.23c10.46,1.96,27.75,8.23,32.61,16.73l21.73,37.95c17.55,4.12,45.25-9.39,59.67,8.39  c5.32-0.45,14.56,16.24,15.16,20.49c1.39,9.79-15.64,5.53-15.11-1.99c-3.92-0.24-6.12-2.77-3.83-6.33  c-7.73,2.9-11.71,1.81-11.95-3.28c-5.78,0.66-8.12-0.04-5.54-5.53c-4.05,2.45-8.08,3-9.84-2.54c-4.59,0.11-9.03,0.88-13.32,2.31  c-3.02-2.71-6.65-2.97-10.9-0.78l-2.38-2.35c-2.37-4.03-13.44-2.83-7.62-8.18c-4.2-11.56-16.47-16.65-21.75-26.64  c-3.26,6.93,0.96,11.54-0.72,17.37c-4.06-7.71-2.64-18.06-12.39-22.65c-2.48,10.67,2.77,19.99,1.93,30.81l-10.82-31.75  c-6.35,10.05-3.12-4.31-4.76-4.55c-2.27-0.34-4.07,5.4-6.43,6c-2.41,1.46,4.3-13.33-1.46-8.15l-4.8,4.32  c-1.22,1.09-0.6,2.58-1.94,3.11c0.34-3.7,1.19-7.33,0.73-11.95c-5.54,1.1-8.05,5.59-11.28,10.69c-0.33-3.98,0.08-7.96-1.68-11.82  c-5.97,3.03-7.7,8.93-10.37,14.59c-1.79-4.3-0.65-8.13-1.66-12.85c-5.59,1.77-8.16,6.72-11.62,10.63c-0.48-2.57,0.2-3.98,0.69-5.44  c5.96-17.42-18.37,21.38-11.15-3.83c-8.03,2.36-12.53,10.96-17.49,18.64c-1.23-4.43,1.75-7.84,1.55-13  c-3.12,3.79-5.85,6.98-8.56,12.2l-1.94-9.38c-7.81,2.77-12.73,9.03-13.8,17.73c-3.06-4.74-0.14-9.72-2.07-15.1  c-8.03,3.23-11.18,10.64-14.26,17.88c-2.38-5.1,1.08-9.27,0.29-13.76c-3.36,1.07-3.78,3.39-5.11,4.7c-1.45,1.41-3.68-1.9-4.96-1.57  c-4.44,2.82-4.51,8.78-6.16,13.08c-1.96-3.26-1.84-6.3-3.59-7.33c-7.66-4.48-9.23,5.54-14.78,1.74  c14.42-15.7,36.83-20.65,57.24-28.4C688.41,934.53,719.14,930.18,751.48,936.23z" />
<path class="cls-1" d="M1020.27,931.06c0.3,5.99-7.06,1.23-4.84,4.58c2.77,4.17,4.84-10.08,15.12,25.98  c-1.67,6.18-1.49,11.34-0.92,17.21c0.85,8.75-4.34,16.78-7.54,24.25l-5.45,12.71c-3.06-0.06-10.36,0.88-11.61,3.69l-4.54,18.64  c-3.82-2.6-7.63,5.59-15.14,5.51c0.85-5.74-1.46-10.94-5.12-12.95c0.91-5.53-2.03-16.53-9-14.9c-2.73,0.64-3.77-3.01-5.45-3.99  c-1.04-0.61-3.44,8.89-4.71-1.42c-1.74,3.73,0.43,4.49-4.58,9.44c1.64-13.16-0.08-6.26-1.08-3.19c-0.49,1.49-6.81-6.67-3.97,1.26  c-4.47-5.31-1.69,5.2-7.15,5.03c-2.97-0.09-5.68,2.79-8.14-2c3.49,10.91-3.35,20.17,2.56,27.77c0.6,0.77,1.09,1.61,1.65,2.41  c0.34,2.04,0.26,4.41-1.33,6.26c-1.01,1.18-3,3.04-5.76,1.87c-1.66-0.71-1.98-4.31-2.64-6.28c-0.49-1.48,0.03-3.73-1.14-5.03  c-1.55-1.74-4.2-0.11-6.22,1.98c-1.99-1.38-2.16-3.72-3.95-3.43c-2.84,0.46-4.78,0.14-7.5,2.13c0.01-6.61,0.94-7.67-5.75-10.66  c-2.54-1.13-3.53-7.19-7.17,0.71c-0.22-6.61,0.56-7.77-1.01-8.68c-6.42,21.68-21.93,9.83-16.67,38.65  c-2.39,2.92-2.53,6.37-1.34,9.63c-0.7,3.69-1.8,8.1-1.53,12.06c-1.38,2.38-2.78,5.32-3.99,7.86c-0.18,0.37-0.46,1.13-0.41,1.53  c-4.89,0.97-11.33,1.59-14.47,6.01c-3.25,4.57,3.43,9.73,3.18,15.38c-3.48,5.76-11.15,4.4-16.72,9.22  c-0.64,17.35-11.88,25.9-27.32,27.82c5.47-4.6-2.74-10.4-2.99-14.34c-0.29-4.57-0.07-8.49-3.02-13.69l-7.95-14.03  c-2.85,10.7-4.63-2.5-5.57-5.65c-2.04-1.8,1.48,21.94-4.97,4.45c-2.16,1.37-2,5.08-3.09,6.37c-2.04,2.44-5.33-0.09-7.39-1.24  c-1.03,2.16-0.94,5.76-3.4,4.28c-2.07-1.25-3.5-6.34-3.41,2.36c-2.21,1.03-2.94-1.76-4.16-1.71c-2.29,0.08-2.16,0.9-2.89,5.91  c-5.61-0.05-6.87,0.79-9.9,0.58c-3.43-0.23-3.37,10.57-3.03,13.72c0.71,6.67-5.62,14.82,0.82,18.52c2.55,1.46,2.3,7.55,3.55,9.73  c-2.7,0.53-9.43,1.45-12.51,0.09c-1.07-2.01-0.52-7.63-3.66-8.09c-2.38-0.35-5.62,0.94-7.78,2.97c-0.48-5.31-1.86-3.97-2.78-2.83  c-2.71,3.35-2.05,1.69-2.99,1.79c-1.13,0.12-0.34-1.32,0.39-4.18c-2.51,1.72-4.84,3.38-6.32,2.09c-2.49-2.18-3.44-6.76-3.98-10  c-0.75-4.5-3.05,0.28-3.88-0.27c-1.44-0.94-1.43-4.84-2.9-5.64c-1.34-0.72-5.53,6.3-5.98,4.85c-1.16-3.72-2.35-4.73-4.93-2.3  c-1.24,1.17,0.68-7.55-0.63-8.23c-8.17,23.45-34.37,19.35-20.23,52.48l-0.06,1.54c-1.24-0.14-2.68,0.28-3.89-0.13  c-4.19-1.42-11.8-0.59-14.65-5.5c5.4-7.12-0.34-15.22-3.86-18.93c-2.72-2.87-3.6-2.45-11-3.25c1.1-6.06,2.82-14.26,1.41-19.27  c-4.4-6.66-3.1-12.09-1.58-17.96c-3.26-5.7,5.34-9.62,6.41-15.42l22.61-41.45c3.1,7.36,0.91,11.26,3.54,9.12  c1.1-0.89,1.73-2.68,3.06-3.59c1.75,5.06,1.71,9.92,2.69,15.13c5.71-5.95,10.69-12.33,17.43-17.14c2.2,8.18,1.47,16.81,5.32,23.21  c2.69-0.66,7.68-4.55,7.96-2.18c1.1,9.17-2.5,15.58,2.11,11.99c2.4-1.87,7.17-6.44,9.55-7.91c3.02-1.86,3.25,2.66,4.83,6.48  c3.67-4.86,4-10.64,6.73-17.13c3.39,4.39,2.37,9.52,4.14,14.42c4.41-7.81,6.8-16.49,7.82-26.27c3.36,2.9,1.92,6.84,4.46,9.72  c5.94-15.47,2.81-31.18,5.05-48.02c5.06,5.35,3.6,12.19,6.27,18.73c2.16-4.71,0.27-9.95,4.93-14.2l3.22,9.89  c2.38-4.83,1.03-11.37,5.22-14.37l2.52,6.82c3.43,9.29,2.93-26.55,7.99-5.98c6.11-8.55,1.01-16.7,2.49-26.1  c16.71-11.98-3.27,0.57,12.06-19.06c3.74-0.02,13.43-5.55,11.84,0.98c6.23-3.28,13.17-1.72,21.23-4.14  c1.83,0.96-7.86,7.17-1.76,5.62l4.61-1.17c1.67-0.42,2.88-0.67,4.79-1.44c1.19-0.48,2.91,0.38,1.08,2.22  c-0.93,0.93-2.48,2.01-5.51,3.75c5.25,2.28,8.91-1.88,14.5-1.99c-0.86,4.67-4.85,4.16-7.35,7.53c8.21-0.62,14.18-4.49,17.54,0.04  c-2.7,2.9-7.22,2.09-5.83,3.49c1.1,1.12,3.47,0.77,5.6,1.49c7.35,2.66-4.79,2.97,0.07,4.82c5.56,2.12,8.73,3.23,10.32,1.87  c-4.17-8.98-7.92-16.27-13.42-23.06c5.7,4.4,13.81-30.64,14.75-11.26c1.69-0.15,3.26-3.08,4.1-2.05c1.58,1.93,1.11,5.13,2.12,7.72  c5.06-1.39,7.34-6.45,12.68-9.57l4.31,16.65c2.89-1.26,5.73-3.83,6.85-2.06c1.06,1.68-1.02,7.27,1.55,7.92  c2.66,0.67,5.16-2.69,6.24-3.66c2.27-2.04,4.29-2,5.1,3.87c2.5-3.77,3.31-7.75,4.76-12.74c1.87,1.92,1.97,5.9,3.28,8.65  c4.98-2.24,0.04-17.62,7.69-13.24c4.87-8.66,0.62-19.93,3.98-30.55c2.94,1.58,2.08,4.14,3.08,6.92c1.24,3.46,4.03-4.91,6.09-6.32  c-0.12,23.09,1.5,0.63,3.3-0.64c1.51-1.07,5.98,7.6,1.46-0.57c6,9.35,2.4-1.74,3.93-3.58c1.02-1.21,4.39-1.59,5.85-3.02  c-0.08-4.36-0.68-9.52,0.66-13.65c1.59-4.91,5.86-8.52,6.74-13.59c10.15-0.78,21.58-0.66,29.82,0.99c-0.93,4.21,5.32,1.01,9.7,1.44  c-3.5,4.36-1.16,5.3,1.14,4.98C1016.89,931.64,1018.59,931.66,1020.27,931.06z" />
<path class="cls-1" d="M597.28,1227.04c-0.01,1.16,0.41,2.37,0.31,3.53c-0.49,5.86-5.91,8.57-9.66,12.17  c-2.61-2.13-6.55-9-4.42-11.68C586.31,1227.55,593.52,1228.03,597.28,1227.04z" />
<g>
</g>
<g>
</g>
<g>
</g>
<g>
</g>
<g>
</g>
<g>
</g>
<g>
</g>
<g>
</g>
<g>
</g>
<g>
</g>
<g>
</g>
<g>
</g>
<g>
</g>
<g>
</g>
<g>
</g>
</svg>