<?xml version="1.0" encoding="iso-8859-1"?>
<!-- Generator: Adobe Illustrator 30.2.1, SVG Export Plug-In . SVG Version: 9.03 Build 0)  -->
<svg version="1.1" id="Layer_1" xmlns="http://www.w3.org/2000/svg" xmlns:xlink="http://www.w3.org/1999/xlink" x="0px" y="0px"
	 viewBox="0 0 1200 1543" style="enable-background:new 0 0 1200 1543;" xml:space="preserve">
<style type="text/css">
	.st0{fill:#ED735C;}
	.st1{fill:#CF8A47;}
	.st2{fill:#ED925C;}
	.st3{fill:#F9D7A6;}
	.st4{fill:#EFAB56;}
	.st5{fill:#DB7E35;}
	.st6{fill:#1B493F;}
	.st7{fill:#B94C26;}
	.st8{fill:#DB6725;}
	.st9{fill:#5B814B;}
	.st10{fill:#61837E;}
	.st11{fill:#7B2F1F;}
	.st12{fill:#245D4B;}
	.st13{fill:#2E8460;}
	.st14{fill:#A26431;}
	.st15{fill:#9F442A;}
</style>
<path class="st0" d="M0,117.86V0h1200v131.74c0.03,1.05-0.24,2.67-0.89,2.69c-50.44,1.73-101.55,2.16-152.68-0.4
	c-59.84-10.5-119.01-11.02-179.37-4.83c4.21,7.89,0.4,10.38-7.72,12.62l-174,12.2c171.72,1.78,342.22,3.74,513.08,8.74l1.58,2.72
	v69.85c-4.98,3.19-11.03,4.34-18.17,3.44l-248.7,0.94c-48.55-3.32-97.22-6.63-146.02-9.94l-195.55-5.59c0,0-5.18-1.13-15.53-3.38
	l-2.69-1.51c-0.31-1.82-0.54-21.29-0.16-22.34c0.45-1.22,1.54-2.15,2.66-2.79l-0.92-2.94l7.1-7.58c-2.75,1.12-4.69,0.57-5.82-1.64
	l-2.65-2.31c0.07-23.21,0.04-47.54-6.36-70.1c-6.96-24.5-20.36-40.73-46.22-45.39L518,66.92c-44.76,3.56-49.11,60.45-48.2,95.51
	l-2.56,2.47c-0.99,2.75-3.58,3.15-7.75,1.2l8.24,7.47l-0.38,3.27c0.74,0.2,1.27,0.67,1.78,1.23c1.39,1.53,1.15,37.12,0.35,41.1
	l-2.7,1.92c0.02,1.05-0.27,2.67-0.92,2.68c-49.37,1.06-100.59,0.94-149.96,0.55c-103.66-0.84-210.56-2.24-314.3-4.66L0,216.96
	v-46.88l0.88-2.7c107.62-1.26,217.09-4.27,328.42-9.02l-216.09-23.46c-17.82-2.67-35.59-7.03-51.62-15.44l-54.27,0.65L0,117.86z"/>
<path class="st1" d="M347.76,584.99c0.74,0.71,1.43,1.45,1.98,2.28c1.69,2.57,3.23,30.09,3.26,35.89l-1.96,5.12
	c-0.55,3.07-2.57,3.54-5.29,3.95c2.91,0.21,5.12,1.45,6.64,3.72c3.79,5.08,6.23,11.21,7.31,18.37c0,0,3.46,8.51,10.39,25.52
	c4.7,6.63,7.79,13.46,9.29,20.5c1.06,2.66,0.36,5.99-2.09,9.98c2.35-2.07,4.75-3.06,7.2-2.99l5.21,1.86
	c20.66,22.89,48.89,34.09,78.7,39.64c1.99,6.02,3.94,17.22-1.05,21.32c-1.64,1.31-3.44,1.2-5.4-0.36c4.67,3.81,6.59,7.45,5.76,10.92
	l2.62,3.57c0.01,47.85-0.03,95.69-0.11,143.51l-2.68,1.62c0.22,6.15-9.94,9.94-12.96,3.32c-0.26-26.92-7.25-72.25-38.61-78.99
	c-12.69-2.73-26.19,5.55-31.94,16.72c-18.68,36.3,28.83,64.4,58.5,71.93c2.83,1.36,4.58,2.72,2.98,5.65
	c-25.88,34.45-4.83,71.79,21.99,97.77l0.2,4.01l2.39,2.54c0.07,46.34-0.09,92.7-0.49,139.08l-2.69,1.62l-3.69-0.08
	c-3.39-3.6-7.15-6.86-11.36-9.47c-6.95-4.32-18.74-9.3-6.48,0.88c3.34,4.16,2.44,5.66-2.68,6.26c-6.62-3.01-13.73-5.5-21.11-4.97
	c8.33,2.37,11.09,5.7,8.28,10.01c-7.17-0.19-13.97,1.04-20.41,3.69c9.94-2.5,20.09,0.62,7.02,8.66c-3.4,5.05-5.63,10.79-6.69,17.24
	c2.22,0.69,2.58,1.71,2.9,3.57c1.73,9.99-8.27,26.38-14.21,34.22l-3.54,0.21c-3.88,3.05-10.28,6.37-13.21,0.95l-2.49-1.35
	c6.95-44.28,14.38-88.44,22.29-132.48c5.47-2.1,10.97-4.01,16.51-5.75l0.27-43.64c-35.16,8.75-71.47,11.13-107.59,12.29
	c-1.3,0.04-2.63-0.36-3.99-0.78c-1.38-0.43-2.7-1.03-4.01-1.69c-3.7,2.99-8.85,3.97-15.44,2.95
	c-58.91,1.76-122.06-0.35-179.45-13.22l0,36.08l-2.68,1.95c-4.06,1.76-6.08,2.64-6.08,2.64c-23.49-1.32-46.96-1.72-70.4-1.2
	c10.23,0.57,19.55,3.01,27.94,7.33c-1.14,19.23-1.25,38.45-0.33,57.65c0.06-13.26,0.66-26.54,1.67-39.7
	c1.73-22.49,28.47-23.83,45.66-24.19l1.93,2.37c5.21,3.03,10.79,4.85,16.75,5.46l2.12,2.98c3.69,0.9,6.5,9.99,2.87,12.08l2.56,3.4
	c5.59,24.89,10.98,49.91,16.17,75.05l-0.54,7.98c4.52,1.91,0.69,13.9-4.31,9.9l-4.28-4.14c-10.93-26.64-16.39-39.97-16.39-39.97
	c-0.75-1.33-6.19,20.13-5.93,24.07l-3.48,5.37c2.08,5-1.73,13.88-6.37,15.8l-4.56-0.1c-8.98-7.39-18.73-13.34-29.24-17.84
	l4.46,14.92l-1.58,3.15l-0.93,2.79c-23.65,2.55-47.31,5.1-70.98,7.65L0,1249.55V620.09c5.15-2.73,11.27-2.91,18.38-0.55
	c8.07,0.5,14.46,2.99,19.19,7.46c3.77,4.47,5.5,10.31,5.2,17.52l1.74,35.69c1.89-24.86,5.28-49.47,10.16-73.85l4.81-3.8
	c16.09-2.61,32.44-5.21,48.81-6.62c16.23-1.4,33.06-2.84,49.21-0.49c6.02,0.88,20.56,3.22,19.53,10.25c0.87,0.85,1.7,1.73,2.37,2.72
	c0.66,0.98,1.28,1.92,1.45,2.92c4.17,24.37,5,49.98,3.19,74.52c0,0,11.68-0.37,35.05-1.1l-23.04,0.39l-1.62-2.89l-1.51-3.88
	c1-23.64,4.57-48.06,8.79-71.53c1.26-6.98,7.2-11.11,13.27-13.29c39.15-5.54,80.48-9.34,120.66-10.9c1.99-0.08,4,0.29,6.05,0.68
	C343.74,583.76,345.76,584.35,347.76,584.99z"/>
<path class="st1" d="M1200,516.84v622.99c-4.64,4.06-14.21-2.55-16.18-7.92c-5.56,1.81-9.68,0.8-12.37-3.02
	c-0.46-5.21-2.46-7.69-5.99-7.45c-6.32,6.01-13.45,5.57-15.86-3.52c-8.77,1.94-11.41-4.01-11.19-11.68c0,0-2.1-0.3-6.31-0.9
	c-5.66-8-12.6-13.99-20.81-17.98c-7.06-0.16-10.58-3.06-10.54-8.72c-6.96,0.54-12.73-3.02-17.31-10.67
	c-3.03-1.42-5.85-3.11-8.44-5.08l0.45-3.17c22.26-36.02,36.56-76.54,19.53-117.72c28.48-14.18,57.05-42.95,53.17-77.24
	c-2.08-18.37-17.41-32.51-35.86-32.97c-36.65-0.91-48.51,49.45-45.75,78.75c-0.13,1.36-0.38,2.51-1.06,2.89
	c-1.35,0.75-26.57-2.68-27.6-3.64c-10.79-37.84-36.07-72.95-79.39-70.57c-2.68,0-3.77-1.35-3.33-4.02
	c7.35-34.35-4.68-88.23-49.24-79.26l-3.21-1.88l-1.97-2.88c6.41-49.22-53.91-49.58-64.13-5.29c-3.41,13.16-5.88,26.53-7.4,40.09
	l-3.2,2.58l-2.67-3.67c-0.2-80.48,0.38-160.77,1.74-240.88c0.98-5.75,3.21-8.46,6.71-8.13l5.24-3.12l124.51-9.83
	c14.72,0.6,31.56,6.19,43.83,14.37l1.5,3.92c1.04-0.13,2.67-0.04,2.77,0.61c5.09,33.11,7.85,67.53,10.05,100.99
	c-0.54-1.81-0.3-3.13,0.73-3.97c2.97-33.03,7.72-65.85,14.23-98.48c5.04-11.76,18.98-14.97,30.51-16.16l133.04-9.92L1200,516.84z"/>
<path class="st2" d="M1200,235.32v145.14l-0.97,2.66l-122.84-2.15c-4.98-1.95-4.53-4.95-0.95-8.23l-178.57-6.46
	c-34.91,2.15-69.69,1.94-104.35-0.62c-4.61-0.59-5.26-4.43-2.84-7.77c-27.7-4.15-55.73-6.88-84.1-8.2c-3.31,0-6.06-1.48-8.31-3.89
	l-2.68-2.29c0.83-23.85-6.18-55.79-35.51-56.59c-26.76-0.73-34.57,35.92-33.27,57.02l-2.69,3.01c-0.07,1.05-0.32,2.64-1.06,2.74
	c-8.56,1.16-35.71,3.26-43.33,2.24l-2.08-2.57l-2.69-1.22c0,0-0.2-27.32-0.61-81.96l2.65-3.53c0.45-3.98,3.09-7.64,7.92-10.98
	c-4.28,2.06-6.76,1.62-7.44-1.31c-1.04-0.12-2.6-0.42-2.69-1.17c-0.31-2.56-0.74-25.24-0.22-26.46c0.43-1.01,1.61-1.53,2.66-1.94
	c98.98,4.8,199,2.48,296.24,12.12c25.29,2.51,50.65,4.38,76.25,4.27l217.19-0.96C1177.72,236.17,1188.6,236.15,1200,235.32z"/>
<path class="st3" d="M356.11,398.98l1.25,3.29c-5.32,9.92-8.48,21.08-6.89,32.34c7.88,0.74,18.29,9.03,13.03,17.28
	c-1.66,2.61-10.63-2.18-12.82-4.05c-0.55,14.29-0.61,28.99-0.17,44.08c17.94,3.36,19.08,25.08-0.17,13.64
	c0.4,15.26,0.11,29.91-0.87,43.92c7.3,1.02,12.19,4.03,14.68,9.03c3.58,1.38,3.54,3.87-0.06,5.16c-1.59,7.05-13.86,1.19-17.03-2.62
	l-1.04,2.77l-103.85,8.27c-13.59,2.25-26.29,7.91-38.06,14.91l-4.7-0.3c-2.46,1.82-3.68,1.75-3.67-0.23
	c-2.1,0.68-4.37,0.28-6.8-1.19c-25.16-6.47-75.28-1.79-101.8,2.12c-13.2,1.94-18.4,4.52-26.96,15.52c-2.2,0.58-3.52,1.69-3.95,3.34
	c-17.1-1.75-34.22-2.25-51.36-1.5L0,602.68V399.11l1.28-2.68c117.7-0.04,235.42-0.08,353.16-0.12L356.11,398.98z"/>
<path class="st3" d="M1200,398.52v88.03l-0.69,2.75l-130.61,11.77c-8.15,3.75-16.03,8.2-23.63,13.36c-1.47-2.32-3.91-3.05-7.32-2.2
	c-19.11-6.42-39.14-10.86-59.39-9.18l-115.51,9.67l-1.85-2.53l-7.49,3.37c-45.59,4.25-91.12,8.48-136.6,12.69l-1.86-2.52
	l-16.34,2.64l-1.75-2.51c-1.04-0.27-2.58-0.67-2.7-1.5c-0.58-4.15-1.06-26.6-0.36-30.13l2.66-1.95c0.82-2.65,3.01-4.29,6.56-4.9
	c-3.68,1.14-5.88,0.39-6.61-2.24c-1.06-0.11-2.64-0.48-2.68-1.23c-0.83-15.84-1.13-36.85-0.12-52.55c-0.72-3.91,0.17-6.9,2.66-8.99
	l-0.14-3.18c4.21-2.44,4.39-4.45,0.55-6.02c-4.8,0.14-3.84-11.63,0.19-12.25l1.28-2.68c166.67-0.14,333.36-0.27,500.09-0.41
	L1200,398.52z"/>
<path class="st2" d="M466.82,312.26c1.05,0.27,2.62,0.7,2.7,1.51c0.79,8.41,0.95,22.93,0.38,31.36l-2.66,1.96
	c-1.96,2.07-4.96,2.01-9-0.17l9.68,8.04l-0.11,3.74c3.8,2.12,2.56,7.51-1.05,9.33c-5.25,2.3-7.88,3.45-7.88,3.45
	c-32.83,1.88-65.54,4.57-98.14,8.08c4.41,0.47,9.9,2.92,6.39,7.46c0.83,2.31-0.38,4.53-3.64,6.65c-2.04,3.54-4.5,5.31-7.39,5.31
	L0,399.11v-79.02l1.24-2.7c154.6-2.59,309.22-5.19,463.87-7.78L466.82,312.26z"/>
<path class="st4" d="M467.77,250.41c3.86,1.95,3.18,5.97-0.86,7.03l-0.79,2.73l-288.5,15.92c-13.09,1.06-26.29,2.34-39.02,5.59
	c109.37,7.6,218.37,12.73,327.02,15.41l1.53,2.73c4.16-0.33,3.67,11.72-0.34,12.45L0,320.09v-81.7c10.77-2.03,16.16-3.04,16.16-3.04
	c138.39,1.18,275.64,3.43,411.73,6.74l9.64-1.36c4.17-2.03,8.32-3.71,12.46-5.05c4.48-0.97,14.72,6.68,17.12,10.33
	C467.95,247.3,467.89,248.94,467.77,250.41z"/>
<path class="st5" d="M1120.56,1398.39c4.01-0.25,11.08,12.52,6.07,14.35l-0.49,3.06l-34.53,13.34l107.34,21.35l1.06,2.94v89.44
	h-81.52c-17.14-5.61-34.44-10.76-51.89-15.45l6.5,6.58c3.6,2.98,4.64,5.94,3.13,8.87H669.64l-27.63-2.86l-94.94-19.21
	c-2.64-0.75-1.92-3.61-0.22-5.78l104.64-14.85l1.97,2.43c1.44,2.4,1.03,5.63-1.22,9.69l70.18,0.25c5.23,2.11,3.86,5.02,0.3,8.18
	c28.81,1.81,57.66,1.47,86.56-1.02c0,0,1.74,0.89,5.21,2.68c2.96-2.88,8.84,0.71,11.65,3.19l2.93-3.25l37.09-9.74
	c7.28-2.51,13.25-2.21,17.91,0.88c0.66-3.56,1.25-3.54,2.47-0.06c1.06-0.47,2.12-0.89,3.23-1.13c4.61-0.98,25.08,5.26,30.88,7.61
	c2,0.81,3.46,2.51,4.8,4.14l2.86-1.92c10.45,5.37,21.16,9.27,32.12,11.69c12.38-2.09,22.96-9.17,31.74-21.24
	c16.89-18.03,40.06-7.48,58.11,2.62c0,0,1.27,0.33,3.82,1l10.02-3.97l105.9-13.38l-48.11-10.56c-7.98,0.58-15.68,0.18-23.09-1.2
	l-0.28-3.15c1.2-4.29,4.21-8.04,9.02-11.26l-43.8,5.43l-1.89-2.46l-2.37-1.75c5.62-27.16,11.24-54.34,16.87-81.52l2.95-1.02
	l3.23-2.22l24.59,5.75C1112.71,1394.77,1117.18,1395.94,1120.56,1398.39z"/>
<path class="st4" d="M1200,380.46v18.05l-503.03,0.41l-2.73-1.01l-0.81-15.78c-16.93,5.81-13.62-9.97-0.32-13.36
	c0,0,0.43-6.75,1.3-20.26l2.68-2.72c31.57,5.17,64.32,2.8,96.91,9.54c0.1,2.79-2.95,3.36-3.97,7.3c37.61,6.18,74.5-0.28,112.72,1.11
	l185.09,6.76c-4.39,5.6-11.07,0.77-13.22,7.74L1200,380.46z"/>
<path class="st2" d="M1200,131.74v33.74l-212.93-5.11l-232.89-2.96c-31.52-0.4-61.69,2.39-93.8-4.28l197.48-13.83
	c3.02-0.21,6.69-1.33,8.03-3.37c0.9-1.38-1.57-4.49-0.09-8.63c44.78-4.31,90.78-8.01,135.21-1.91c29.33,4.03,55.51,8.4,85.28,7.98
	L1200,131.74z"/>
<path class="st4" d="M1200,486.55v30.29l-133.85,9.98c-9.96,0.74-24.95,4.14-28.97,14.33l-16.78,97.7c-0.6-0.12-1.07-0.26-1.08-0.44
	c-0.68-7.37-1.06-15.95-1.1-23.38c-0.14-25.45,0.63-51.31,2.73-76.52c1.47-6.29,4.57-12.07,8.85-16.91
	c-7.63,5.05-13.61,12.14-19.24,19.25l-3.69,0.37c-16.43-9.34-31.96-17.05-52.12-15.4l-122.95,10.06c-1-3.81,0.96-7.38,5.9-10.7
	c6.97-6.62,14.74-11.62,23.32-15l117.16-9.8c23.28-1.95,45.59,3.97,66.84,11.54c8.76-4.72,15.37-12.88,25.1-13.75L1200,486.55z"/>
<path class="st2" d="M0,170.09v-52.23c20.37-1.4,40.59-0.76,62.13-0.96c20.99,10.68,42.78,14.72,66.44,17.26l228.75,24.58
	c-71.82,6.39-142.24,7.4-213.92,8.72L0,170.09z"/>
<path class="st5" d="M141.94,1304.62c2.47-2.52,7.15,0.8,8.33,3.55c0.39-1.25,0.85-1.23,1.38,0.02l3.64-1.07
	c6.75,2.9,13.7,5.27,20.85,7.12l1.84,3.43l2.53-1.91c3.32,1.88,6.7,2.88,10.14,3l34.56-21.53c2.17-1.15,3.24-0.46,2.48,1.97
	c5.58-1.95,11.57-1.28,17.96,2.02c13.75,8.47,28.11,15.02,43.1,19.67c3.38,1.58,5.37,2.96,2.9,6.03
	c-10.38,10.11-18.97,21.71-27.38,33.42l-4.43,1.43l-2.85,2.36c-85.23-10.01-170.45-20.02-255.66-30.03L0,1331.25v-4.02l3.62-2.48
	c20.86-4.89,41.5-10.66,61.91-17.3l8.35-0.22c0.36-1.38,0.95-2.73,2.15-3.59c1.86-1.33,20.81-5.62,24.48-6.08l3.84,1.68
	c1.66-3.8,5.82-4.84,12.5-3.12l23.55,5.65L141.94,1304.62z"/>
<path class="st2" d="M466.79,221.1c4.43,1.44,5.27,17.61-0.5,17.42c-0.95,2.86-3.4,2.98-7.34,0.34c-3.84-3.29-6.83-4.34-8.97-3.17
	c-2.98,5.95-14.11,9.26-22.91,9.08L138.8,239c-46.99-0.94-92.9-1.88-138.8-0.61v-21.43l315.92,4.68L466.79,221.1z"/>
<path class="st6" d="M1200,1378.07v25.41c-0.98,7.01-6.31,10.42-11.94,13.98c-18.05,11.4-37.57,13.45-54.38-0.3
	c-3.62-0.72-5.97-2.2-7.05-4.43c-0.43-5.27-4.79-9.45-6.07-14.35l-3.53-2.61c-2.78-6.05-12.84-32-11.81-36.54
	c0.99-4.36,3.01-3.25,6.72-0.78c8.11,7.17,15.64,14.91,22.6,23.22l-3.5-51.7c2.98-4.78,6.44-3.09,10.37,5.06
	c5.21,9.74,10.17,19.38,14.89,28.89l13.05-41.98c4.63-3.31,7.18-0.29,7.66,9.04l2.48,32.67c6.09-7.96,18.15-21.24,16.82-1.85
	c-1.37,6.98-3.26,13.82-5.68,20.53C1194.15,1377.08,1197.27,1375.65,1200,1378.07z"/>
<path class="st4" d="M195.75,586.49c0.09,1.01,0.06,1.91-0.4,2.48c-3.54,4.36-10.06,11.68-14.09,15.36l-4.24,1.39
	c-18.76-17.55-91.93-3.92-119.27-0.51c-8.12,25.93-5.57,52.67-13.25,75.01c-1.45-18.19-2.09-36.67-1.29-54.94
	c-1.79,2.28-3.68,2.85-5.65,1.74c-12.35-3.55-24.68-6.45-37.57-6.91v-17.41c18.37-2.66,36.84-0.58,55.63,1.57
	c6.7-7.58,13.64-16.97,23.62-18.5C94.56,583.41,188.45,573.38,195.75,586.49z"/>
<path class="st7" d="M1200,1453.42l-118.09-23.48l44.72-17.2c10.15-0.41,16.49,10.34,27.38,11.28c16.85,1.46,36-7.96,45.99-20.53
	V1453.42z"/>
<path class="st4" d="M53.64,1285.79l3.68-0.03c6.32,5.44,12.11,11.37,17.38,17.79l-0.8,3.68c-23.41,8.93-48.81,15.5-73.89,20.01
	v-41.52l0.91-2.68c0,0,15.63,0.02,46.89,0.07L53.64,1285.79z"/>
<path class="st4" d="M73.77,1241.61l4.29,3.07l12.04,29.13l-0.34,5.2l-5.75,0.23c-15.54-8.03-31.79-13.98-48.73-17.85l12.19,14.2
	l-0.78,3.21l-2.64,2.54c-13.99-3.23-27.62-3.89-40.89-1.97L0,1277.68v-28.12L73.77,1241.61z"/>
<path class="st5" d="M0,1412.95v-10.71l1.37-3.22c7.26-4.1,27.76-12.49,35.63-12.13c34.93,1.57,69.94,4.43,104.66,9.16
	c6.37,0.42,7.8,1.87,5.73,6.35L1.85,1415.47L0,1412.95z"/>
<path class="st5" d="M333.48,1542.86H99.11l2.37-3.11c9.91-2.66,19.96-4.5,30.14-5.53l217.81-0.2c2.87,0.28,2.38,2.99,1.43,5.59
	L333.48,1542.86z"/>
<path class="st8" d="M1118.48,1542.86h-42.27c-4.51-8.13-12.1-13.54-19.36-21.26C1077.37,1528.32,1099.81,1531.44,1118.48,1542.86z"
	/>
<path class="st1" d="M46.69,1278.8c3.94-1.08,8.3,2.95,6.95,7L0,1285.71v-8.04C15.12,1271.49,30.7,1278.25,46.69,1278.8z"/>
<path class="st9" d="M520.98,64.21c1.15,0.52,1.15,1.05,0,1.57l2.21,2.26c3.3,13.62,4.74,27.62,4.32,42.01l1.01,735.06l-2.67,6.59
	l1.21,3.55c-5.51,12.3-3.56,26.18,0.51,38.61l-1.68,3.37c2.53,13.77,3.05,27.94,1.55,42.52c0.77,4.78-0.2,7.68-2.91,8.7l-3.67,0.33
	c-5.61-5.87-11.89-10.81-18.83-14.81l-1.19-3.43l-2.09-1.29c-0.72-269.18-0.85-538.38-0.38-807.6L498,926.36l-2.68,1.67
	c-3.98,2.71-9.16,3.6-15.55,2.69c-4.87,1.19-8.94,0.75-12.22-1.3l0.17-148.7l3.17-1.46c9.01,8.37,12.72,9.94,11.16,4.7
	c-4.91-3.5-9.9-6.99-14.98-10.45l0.3-3.35c-0.09-6.28,0.7-12.54-0.44-19.56c-32.53-4.49-61.78-18.84-82.42-43.26l-1.3-2.97
	c1.35-3.82,8.52-16.03,12.92-13.15c4.25,1.73,4.63,0.14,1.14-4.77c-8.09-5.97-23.61-39.87-21.06-47.69
	c0.31-0.95,0.79-1.84,1.32-2.72c-0.89-1.5-1.04-3.32-0.45-5.44c-1.8-0.85-2.88-2.1-3.25-3.73l-2.27-3.18
	c-4.39-25.52-4.28-52.59-3.92-78.06c0.19,4.6-1.15,8.91-3.48,12.88c-5.12-2.77-10.41-4.96-16.55-7.57l0.06-49.96
	c4.71,1.77,11.52,9,14.93,3.63c0.41-6.02-9.13-8.25-14.75-10.71l-0.48-50.37c5.39,1.14,9.35,6.64,14.9,6.43
	c4.38-9.62-8.8-10.19-13.91-13.95c-3.17-12.11,1.71-26.39,7.74-37.04c2.25-3.98,7.11-9.52,11.03-11.96
	c-0.06-6.87,15.65-7.01,21.04-5.9l1.56,2.85c0.83,0.76,0.34,0.99-1.45,0.69c1,3.91,1.92,7.91,1.82,11.98
	c-1.61,64.9-2.59,130.1-1.6,194.86c0.75,49.17,23.98,103.17,76.94,112.84l-0.69-12.53l2.99-2.28l-2.23-2.4
	c0.23-5.97-0.15-11.94-1.12-17.91l2.63-2.03c-1.62-0.78-2.5-1.76-2.65-2.94l0.55-67.95l2.69-1.56l2.66-1.99
	c25.22,17.72,11.71,0.21-2.76-5.47l-0.19-3.26c-3.21-1.95-4.59-6.9-0.26-8.34c-4.23-7.57-4.23-17.44-0.15-25.07l-2.67-1.28
	l1.06-102.48c0.38-3.03,2.37-4.01,5.27-3.27c10.79,8.69,15.02,10.38,12.68,5.08c-5.28-4.26-11.04-7.97-17.27-11.13
	c-1.43-11.35-1.95-22.77-1.56-34.26l2.5-4.45c-0.68-0.47-1.33-0.97-1.85-1.57c-1.28-1.47-1.06-21.91-0.66-25.8l2.37-3.42
	c-0.38-3.06,1.02-6.28,1.05-9.33l1.07-1.56c4.46,1.25,8.92,3.89,13.36,7.93c6.63,0.03,1.36-4.86-15.81-14.66
	c-0.32-1.21,0-2.31,0.82-3.32l-0.42-34.83l0.34-12.45c-1.03,0-2.61-0.21-2.68-0.89c-0.93-8.01-1.33-32.24-0.23-39.89l2.67-1.59
	c-0.01-2.29,1.2-4.68,0.86-7.03l2.6-2.03c4.35,3.18,8.75,5.92,13.18,8.22c1.76-1.85,0.84-3.79-2.75-5.8l-15.03-9.04l0.52-3.25
	c2.23-5.43,0.42-11.64,0.5-17.42l0.57-44.25c0.91-2.79,3.04-2.85,6.4-0.16c8.59,6.97,11.83,7.92,9.74,2.87
	c-5.56-4.01-11.27-7.87-17.13-11.57l0.87-3.07C465.25,128.55,471.66,63.47,520.98,64.21z"/>
<path class="st6" d="M576.21,182c1.14,1.44,2,2.83,0.58,3.85c-1.32,0.56-22.18,13.29-16.06,13.5c4.3-2.13,8.56-4.57,12.77-7.34
	l2.34,2.15l0.19,26.64l0.25,29.56c1.64,1.19,2.38,2.63,0.93,3.92l-13.73,8.67c-6.88,6.15-3.05,5.48,11.49-2.01l0.84,1.7l0.65,86.71
	c1.04,0.13,2.62,0.49,2.67,1.22c0.63,10.2,0.46,25.73-0.37,35.92l-2.7,1.9c0.66,0.42,0.66,0.91,0.07,1.46
	c3.62-0.12,3.34,0.98,0.02,2.25c2.21,2.23,0.97,4.4-3.7,6.51c-20.77,9.79-16.01,13.95,0.77,3.09l2.72,1.67l2.68,0.92
	c0.19,46.15,0.38,92.32,0.57,138.52l-2.66,3.6l2.67,1.24l-0.26,64.08c0,0,1.67,0.52,5.01,1.56l1.74-3.58
	c22.65-10.27,31.41-36.07,33.58-59.22l2.91-2.74c-4.18-1.49-3.07-15.86,1.17-17.25l-2.68-0.92c-0.11-43.04-0.22-86.09-0.32-129.14
	l2.67-1.63l-2.68-1.56c-0.03-16.1-0.05-32.21-0.08-48.33l2.68-1.96c-0.03-18.18,1.03-36.69,12.64-51.65
	c6.01-7.74,18.99-12.34,27.32-10.76c31.28,5.93,34.22,36.36,34.19,61.26c-0.01,7.56,0.11,16.51-1.64,24.13
	c-2.13,3.5-12.84,4.09-10.59,10.06c1.42,3.75,6.99-0.82,11.01-2.65l1.11,21.59c0.2,3.94-1.19,8.26-0.19,12.25
	c1.28,3.06-1.14,5.62-7.25,7.69l-2.7,2.3c3.79-1.55,6.97-1.82,9.54-0.79l0.15,62.76l-1.76,3.2c-10.95,1.28-14.76,5.25-1.05,1.87
	l2.86,2.07l0.4,33.58c4.39,2.62,3.04,8.7-0.49,11.81c0.65,1.09,1.24,2.21,1.66,3.38c0.41,1.17,0.8,2.29,0.72,3.35
	c-1.98,23.64-6.21,44.94-11.7,67.93c-0.25,1.04-0.93,1.98-1.66,2.97c-0.73,1-1.61,1.89-2.53,2.75l-1.19,2.83l-15.23,1.75
	c-1.45,1.91,1.93,2.5,10.14,1.75l3.46,2.24c-15.27,42.48-56.44,74.38-101.21,80.17l0.18,103.55l-2.67,1.63
	c1.04,0.3,2.57,0.76,2.65,1.58c0.52,5.38,0.05,15.71-0.42,21.3c0.85,4.96-0.11,8.15-2.87,9.56l-2.58,1.85
	c-6.7-3.93-13.6-5.97-20.72-6.13l-2.11-2.3l-2.68-1.28l-0.85-703.23c-0.87-19.61-4.63-49.33-19.63-62.63
	c-3.01-0.12-5.09-1.1-6.25-2.92c-0.09-0.51,0.06-1.06,0-1.57C577,65.05,576.66,143.21,576.21,182z"/>
<path class="st3" d="M467.24,164.91c3.39,5.32,24.86,11.48,18.73,19.12c-4.49,5.6-12.05-6.6-18.62-7.18l-19.87-18
	C455.17,159.67,460.42,164.96,467.24,164.91z"/>
<path class="st1" d="M575.85,194.16c-5,0.44-13.97,11.81-17.57,6.35c-5.54-8.41,16.86-13.26,17.93-18.51
	c5.34-0.57,10.5-3.41,15.92-5.21L575.85,194.16z"/>
<path class="st10" d="M902.69,754.06l1.44,3.98c-4.68,10.74-15.15,26.21-25.21,32.31l-4.16-0.07l-2.11,4.8
	c-8.98,5.05-18.39,9.2-28.23,12.45c12.98,28.34,2,60.99-14.75,85.27l-3.75,0.59l-1.81,6.12c-8.9,9.59-18.23,18.77-28.01,27.53
	l-4.58,0.95l-3.02,0.73c-6.38-3.77-13.01-7.21-19.87-10.32c-2.89-12.94-7.88-26.1-21.01-31.43c9.3,18.36,6.24,38.09-2.67,55.95
	c-8.56,17.16-24.52,36.46-42.03,44.23c-5.23-7.81-10.59-15.58-16.09-23.29c21.65,54.7,7.53,115.19-14.03,167.59l-4.25,3.16
	c-2.45,0.81-4.92,1.56-7.43,2.11c-2.5,0.55-4.99,1.08-7.48,1.16c-27.58,0.89-55.28,0.92-82.84-0.45c-2.49-0.12-4.97-0.67-7.47-1.25
	c-2.5-0.58-4.96-1.36-7.41-2.19c-2.98-1.22-4.75-4.28-5.31-9.17c-2.21-3.49-2.67-6.51-1.4-9.08c-3.32-0.79-4.36-3.1-1.46-5.5
	c-2.82-4.8-4.23-7.2-4.23-7.2l-5.5-29.27l-11.05,0.24l-1.89-2.64c-1.18,2.62-3.56,3.31-7.15,2.07c-4.92-0.54-14.61-1.9-16.74-5.95
	c-3.13,1.2-5.39,0.97-5.64-2.85c-0.74,0.79-1.84,1.95-2.61,1.65c-4.68-1.82-14.32-7.11-18.66-9.92c-3.82-1.16-6.02-3.34-6.59-6.54
	c-27.96-27.92-53.09-64.53-23.45-104.26c-34.92-7.82-82.03-39.7-63-75.59c5.74-10.83,18.26-20.99,32.57-19.26
	c34.76,4.19,43.79,54.03,43.28,82.68c4.38,1.76,7.4-3.09,10.44-3.97c9.01-1.84,18.67-1.53,27.76-1.39c2.66-2.1,5.47-1.04,5.52,2.53
	c9.63,3.75,16.07,11.33,23.7,17.91l3.43,1.69c5.97,12.02,11.17,24.33,15.59,36.95c0.84-5.99,2.99-9.52,6.45-10.61
	c2.41-11.55,7.95-21.84,16.61-30.87l-14.67-10.67l-1.63-5.14l-3.88-0.27c-9.02-8.25-19.87-19.81-20.54-32.32
	c-5.19-14.68-7.76-31.45-0.04-45.53c0.79-6.28,2.94-8.25,7.88-11.61c3.9-2.66,13.38-8.27,16.66-4.25
	c8.89-2.32,17.46,3.54,25.41,6.57l4.47,1.08c21.93,24.2,18.96,55.58,15.09,85.54c12.6-3.89,26.91-5.97,39.51-3.69
	c0.28-10.57,11.94-30.68,19.31-38.59c-16.01-6.86-55.11-60.9-50.21-75.58c0.3-0.91,0.78-1.76,1.3-2.59
	c-1.24-0.59-2.6-1.28-3.14-2.52c-5.4-12.34,3.87-39.09,12.4-49.15c11.17-13.18,31.91-20.11,48.84-17.35
	c5.88,0.96,14.63,2.72,15.7,9.2c8.04-0.54,15.1,11.32,18.64,18.19c14.4,27.95,7.76,64.97-1.09,93.72
	c8.55,1.17,16.98,2.28,25.29,3.33c-1.67-25.92,5.7-56.42,24.48-75.23c0.51-0.51,1.3-0.77,2.15-0.99c0.91-0.24,1.86-0.31,2.82-0.33
	l-0.54-3.12c3.94-3.85,16.93-9.29,22.46-10.14l2.19,2.22c1.68-2.51,3.04-2.99,5.66-3.66c12.35-3.17,33.21,5.25,43.62,12.11
	l1.25,3.69c4-20.65,3.66-43.59,17.59-62.49c10.24-13.88,26.77-19.36,42.1-12.85C900.51,719.51,907.87,737.66,902.69,754.06z"/>
<path class="st7" d="M379.43,1275.95c3.57-5.36,9.64-9.98,15.53-12.67c8.16-10.45,16.55-24.03,14.85-38
	c2.87-15.98,23.97-20.84,38.15-20.37c8.19,0.27,21.82,1.56,26.29,8.56c2.92-4.55,12.75,4.54,12.39,7.92
	c-0.48,4.61-12.48,9.28-16.6,10.88l-2.42,3.99c-30.33,11.13-39.93,29.84-39.58,60.06c-0.8,8.74-10.01,31.6-16.85,35.68
	c-1.23,0.73-2.68,0.75-4.06,0.59l-2.65-1.69c2.96-16.99-3.14-29.87-22.32-30.4c-50.34-1.4-104.9,61.95-121.39,104.52l-4.82,3.89
	c-2.28,4.01-14.53,4.04-16.34-0.24c-0.46-0.84-0.87-1.7-1.11-2.6c-1.36-5.12,9.99-29.91,16-33.51c-3.38-2.88,0.82-11.22,5.34-10.77
	c9.63-12.6,17.74-25.69,31.3-37.65c-33.72-6.62-29.96-19.01-63.44-24.92l1.73-4.91c6.03-5.88,21.85-21.69,23.08-29.26
	c0.13-0.77-9.81,0.28-11.86,0.59c-13.97,2.13-27.09,8.24-37.99,17.2l-4.47,0.32l-1.84-2.3l30.37-60.67
	c-17.66,8.19-32.15,21.58-45.73,35.27l-4.87,1.12l-1.94-3.44c-2.04-20.91-4.6-41.82-7.67-62.71l-1.83-2.34
	c-5.73,13.27-10.93,26.76-15.63,40.47l-3.57,1.92c-7.99-27.92-11.87-57.57-18.19-86.43c3.62-0.51,7.31-0.91,10.94-0.33
	c52.92,8.49,104.51,16.14,158.46,14.84c4.45-1,6.4,0.4,7.99,3.66l-0.64,147.4c22.08-13.89,45.5-25.3,70.28-34.21L379.43,1275.95z"/>
<path class="st11" d="M381.75,1264.23c4.36,2.02,1.3,9.55-2.31,11.72c-26.06,12.41-53.74,19.51-78.11,39.14l0.66-153.83
	c-59.27-0.37-117.65-4.08-174.72-17.23c-0.88-4-2.68-7.89-2.87-12.08c3.83-0.79,7.75-1.48,11.68-1.17
	c54.5,4.3,108.81,8.26,163.56,6.29l0.4-44.66l2.69-1.56c39.59-0.93,79.68-3.3,118.29-13.23l-0.3,48.65
	c-5.5,3.76-11.24,3.19-17.27,5.67L381.75,1264.23z"/>
<path class="st10" d="M299.98,1053.81l0.73,3.51c-5.1,7.36-9.03,15.61-11,24.36l-3,1.59c-10.22,0.31-20.5,1.09-30.72-0.08
	l-2.27-4.54c4.09-24.6,6.35-48.99,6.78-73.16c-5.25-20.82-13.59-40.88-25.02-60.17l0.31-5.24c3.13-54,17.28-109.09,48.22-153.54
	c0.66,2.88,1.26,5.77,1.67,8.69c0.41,2.91,0.79,5.79,0.76,8.67c-0.76,59.74-3.51,119.73-9.82,179.07
	c2.94-6.58,15.74-29.34,22.56-28.96c3.87,0.22,7.14,25.69,7.71,31.23C309.16,1007.06,308.81,1033.76,299.98,1053.81z"/>
<path class="st7" d="M302.73,1090.83l-0.44,48.67c-60.21,0.69-119.29,0.61-177.9-7.57c-7.07-0.99-17.68-1.66-18.87-8.44
	c-3.95-0.69-4.16-3.61-0.37-4.89l0-41.94C146.34,1091.86,257.24,1091.9,302.73,1090.83z"/>
<path class="st12" d="M344.54,1010.85l-2.63,5.64c-12.9,10.68-25.5,21.83-36.33,34.65l-5.61,2.66c6.32-32.32,7.98-65.9-1.45-98.19
	c-11.95,12.19-18.47,25.85-25.33,39.43c7.21-70.53,10-139.2,10.82-208.51c29.96,54.28,37.08,120.4,28,183.35
	c12-16.76,23.53-33.02,40.81-46.36C358.66,953.29,353.61,983.07,344.54,1010.85z"/>
<path class="st12" d="M317.68,1082.31l1.27-5.13c18.03-18.98,31.05-42.76,35.2-68.75l3.28-4.14c15.7-18.48,37.19-31.94,61.47-39.31
	c-4.66,36.38-19.51,68.02-44.14,94.52c22.63-5.38,41.04-13.11,63.14-12.59C417.13,1088.48,361.01,1080.98,317.68,1082.31z"/>
<path class="st12" d="M200.88,998.96l2.36,2.62l-3.77,19.57l-2.67,2.13c-5.33-3.52-9.75-8.47-13.24-14.86
	c-13.42-15.16-20.13-22.73-20.13-22.73c-6.68-4.98-11.6-10.74-14.79-17.27c-14.43-45.84-20.87-94.39-14.62-142.12
	c1.29,0.96,2.55,1.97,3.66,3.11c1.1,1.13,2.16,2.25,2.83,3.56c8.18,16.06,15.14,32.71,21.67,49.5
	c13.02,35.57,25.59,71.33,38.02,107.11c0.49,1.42,0.64,2.96,0.75,4.54C201.05,995.72,200.99,997.34,200.88,998.96z"/>
<path class="st13" d="M145.82,1020.37c0.75-1.02,1.32-0.92,1.69,0.3l3.39,3.54c4.25,19.02,14.74,35.64,25.7,51.47l0.13,4.91
	c-13.62-2.19-29.84,0.62-43.27-4.56c-36.72-19.72-62.58-51.86-81.19-90.08C86.32,989.36,116.87,1003.38,145.82,1020.37z"/>
<path class="st6" d="M215.53,937.61c1.03,0.17,2.56,0.69,2.49,1.35c-1.49,13.5-4.58,30.14-7.42,43.5c0.02,5.53-1.45,8.84-4.41,9.93
	c-1.2,1.62-1.99,3.61-2.38,5.98l-2.93,0.61c-22.15-57.54-38.29-119.22-66.86-172.66c0.22-1.68-0.81-3.79,1.01-5.42
	C172.98,851.26,201.51,891.66,215.53,937.61z"/>
<path class="st4" d="M347.06,561.07c2.85,0.64,4.03,2.86,3.54,6.65c0.45,4.75,0.73,14.57-2.85,17.26
	c-42.06,0.96-83.92,5.53-126.31,9.85c-7.23,0.74-16.14,5.43-17.11,12.49c-3.49,25.58-8.26,50.07-9.92,74.94
	c-4.36,4.96-6.61-1.69-7.87-6.22l0.87-65.15c0.9-8.92,2.53-21.04,11.99-24.2c15.56-9.52,31.17-16.76,50.32-18.22L347.06,561.07z"/>
<path class="st9" d="M495.58,1064.64l2.68,2.4l0.03,43.77l1.37,3.54l-1.08,3.16l-18.89,3.95l-2.05,2.28
	c-0.21,2.92-1.42,4.61-3.64,5.07l2.42,5.74c0.01,24.46,0.01,36.69,0.01,36.69l3.92,2.69c3.34,0.75,5.25,2.37,5.7,4.86
	c4.2,1.2,3.61,6.7,0.25,8.94l3.5,3.11c1.32,7.21,2.62,14.34,3.9,21.38c8.38-2.9,36.91,4.8,39.66,13.11c0.92,2.78-0.2,3.88-2.82,5.04
	c-9.17-0.58-18.09-0.19-26.76,1.18c-2.46,1.99-4.74,2.63-6.84,1.92c0.13,6.05,0.14,11.99,0.04,17.82l-1.78,1.18
	c-0.18,1.03-0.58,2.56-1.33,2.61c-2.36,0.15-23.38-0.68-24.42-1.33c-0.99-0.62-1.47-1.69-1.76-2.78c-4.46-0.48-3.46-4.49-0.63-6.98
	c0.56-3.66,2.94-6.69,7.15-9.07c0,0-1.39-0.89-4.17-2.66c3.31-4.75,9.12-6.26,14.45-11.1c-2.68-3.54-6.7-6.28-10.25-7.69
	c-3.32-2.77-5.31-6.9-5.95-12.4c-2.08-3.1-2.54-5.76-1.37-8l0.79-143.24L495.58,1064.64z"/>
<path class="st12" d="M248.83,1082.95c-7.14,1.23-14.36-0.69-21.28-0.74l-3.06-5.25c-3.85-26.74-10.31-52.94-19.37-78.59
	c0,0,0.35-2,1.06-5.99l9.35-54.77c3.75-2.64,2.37-7.94,5.67-10.94l1.8-0.08c10.15,51.17,19.54,102.6,28.19,154.29L248.83,1082.95z"
	/>
<path class="st6" d="M223.61,924.26c3.55,5.35,9.24,10.08,12.19,15.81c39.89,77.38,27.56,60.69,20.2,143.11
	c-2.02-0.23-5.2-0.56-7.17-0.22L221.2,926.67l-0.08-2.39C221.54,923.1,222.97,923.18,223.61,924.26z"/>
<path class="st10" d="M148.63,968.42c18.77,16.29,35.41,33.35,48.17,54.86c1.06,0.23,2.64,0.61,2.74,1.41
	c0.45,3.42,2.24,29.88,1.41,31.2c-0.63,1-1.42,1.72-2.59,2.04c-5.65-1.8-10.72-5.34-15.22-10.64c0,0-6.97-5.18-20.91-15.53
	c-6.27-2.69-11.18-6.38-14.72-11.1c-0.49-0.23-1.22-0.02-1.69-0.3c-5.6-18.84-12.46-37.32-10.77-58.09L148.63,968.42z"/>
<path class="st13" d="M357.42,1004.29c-3.51,29.79-18.51,56.96-39.75,78.03l-30.96,0.95c1.29-8.98,6.9-21.31,13.27-29.45
	c12.76-16.31,28.65-29.86,44.56-42.96C348.17,1007.87,352.83,1005.1,357.42,1004.29z"/>
<path class="st10" d="M134.46,1263.28c1.52,0.56,3.2,1.2,4.02,2.56c3.56,5.9,7.95,28.47,6.38,35.03c-0.38,1.6-1.68,2.76-2.92,3.75
	c-11.53-0.91-25.75-9.02-37.58-5.39c-4.59,0.54-5.83-8.78-4-12.34l-2.72-4.39c0.63-12.41,1.94-24.75,3.91-37.03l3.14-4.01
	c0.51-4.65,5.15-11.13,6.37-15.8l4.36,2.02c7.02,9.96,13.55,20.21,19.6,30.76L134.46,1263.28z"/>
<path class="st14" d="M60.78,904.75c-12.7,0.69-25.46,2.94-38.94,1.15c10.26-7.1,21.68-1.61,33.09-7.64
	c1.77-31.49,2.5-63.49,0.24-94.38c-0.65-8.89-12.54-8.22-18.27-9.93l-5.21-1.56c-30.3-9.05,97.83-6.05,95.7-2.92
	c-1.4,9.01-64.57-2.1-63.62,17.25c1.19,23.95-1.05,46.75-1.95,70.61L60.78,904.75z"/>
<path class="st12" d="M198.36,1057.93c3.83-0.39,6.66,2.35,8.47,8.21c2.02,4.08,5.89,12.9,2.27,15.95
	c-10.74-0.69-21.69,0.2-32.38-1.52c-12.88-18.67-25.33-37.07-29.21-59.91C166.54,1029.52,183.65,1042.87,198.36,1057.93z"/>
<path class="st13" d="M150.27,1308.17c-3.27,0.49-6.34-1.75-8.33-3.55c1.25-14.09-1.56-28.38-7.48-41.34
	c-0.51-4.41,0.38-8.89,2.67-13.45c0.17-4.51,1.51-7.67,4.01-9.49c4.05-1.58,3.02-6.5,4.31-9.9c5.54-14.52,9.01-30.71,19.19-42.39
	l1.43,6.11C164.6,1232.09,162.3,1272.07,150.27,1308.17z"/>
<path class="st13" d="M206.18,992.38c8.42,29.75,19.71,58.62,21.38,89.83c-6.13-0.05-12.2,0.28-18.45-0.12
	c-2.12-8.15-4.57-17.84-10.75-24.16l-1.56-34.65c-0.37-8.15,3.26-16.2,4.08-24.32c0.18-1.79,1.51-3.11,1.93-5.4
	C203.04,992.24,204.22,990.8,206.18,992.38z"/>
<path class="st6" d="M466.92,1193.06c4.63,5.29,5.58,14.06,7.32,20.4c-22.71-9.08-50.61-9.57-64.44,11.81
	c-1.16-9.55-0.62-18.12,11.88-23.59c-9.03-1.63-13.41,1.74-20.89,1.59c6.65-8.8,17.78-10.27,29.54-9.94
	c-5.06-4.59-11.46-4.46-17.73-7.88c10.74-5.41,22.89-1.22,33.02,3.6c-4.69-6.65-10.1-10.25-16.01-14.28
	C444.93,1174.04,457.56,1182.36,466.92,1193.06z"/>
<path class="st14" d="M105.15,1118.6c0,1.56,0.1,3.35,0.37,4.89c-17.96,1.84-43.35-0.74-45.17,24.48
	c-1.74,24.17-1.41,47.64-1.86,72.23c-6.38-30.1-6.82-60.82-3.99-91.9c-13.35-5.84-25.77-2.74-38.07-10.07
	C46.6,1114.87,75.93,1118.67,105.15,1118.6z"/>
<path class="st12" d="M104.69,1241.47c-1.55,15.18-4.81,30.16-4.33,45.43c-3.12,2.84-11.52-4.23-10.59-7.88
	c-6.46-11.97-10.3-25.1-15.99-37.41c-3.45-7.46-4.31-16.67-8.09-23.73C81.34,1224.02,92.86,1232.48,104.69,1241.47z"/>
<path class="st9" d="M369.62,635.8l3.96,2.19c4.82,14.87,10.8,29.2,17.94,43.01l-0.29,4.49c2.49,4.79-6.91,15.08-11.85,14.86
	c-13.67-19.31-22.63-41.16-26.99-64.4C353.94,631.86,369.32,630.32,369.62,635.8z"/>
<path class="st14" d="M199.42,586.72c-6.42,6.32-9.27,17.35-9.4,26.5l-0.85,61.15c-0.06,4.67,1.81,7.39,5.25,7.91
	c11.75,1.78,24.27-3.6,36.62,3.32c-19.75,4.13-39.33,2.86-58.68,2.85c2.52-4.54,6.13-2.54,9.83-4.43c0.21-26.5,0.2-52.92-5.17-78.31
	c5.07-7.64,11.29-13.88,18.73-19.23C196.98,586.37,198.21,586.47,199.42,586.72z"/>
<path class="st9" d="M364.1,563.69l2.73,0.72c0.85,20.29,2.21,40.54,4.08,60.75l-2.53,1.75c1.42,4.98-12.37,4.44-15.62,3.8
	l-1.72-2.43c-2.37-14.33-2.01-28.85-3.28-43.3c-0.7-7.96,1.25-16.15-0.7-23.92C353.48,560.04,357.66,566.73,364.1,563.69z"/>
<path class="st12" d="M141.14,1240.34c0.13,7.91-3.05,16.13-6.69,22.94c-6.16-13.49-15.95-24.88-23.4-37.61
	c1.7-12.51,4.09-24.99,7.76-38.25C128.76,1205.19,135.02,1222.72,141.14,1240.34z"/>
<path class="st14" d="M44.5,680.21c-3.63-17.3-3.43-35.55-6.94-53.21l8.51-9.02L44.5,680.21z"/>
<path class="st3" d="M373.83,626.88c2.4-0.32,5.48,1,5.93,3.47c0.39,2.09-0.77,4.2-2.24,5.7c-2.18,3.38-5.79,3.32-7.91-0.25
	c-5.69-1.73-11.64,0.5-17.22,0.16c-5.7-0.35-11.54-1.33-17.63-3.14c6.07-2.25,11.18-3.45,16.27-4.53
	c5.55-1.18,11.89,1.14,17.33-1.37C368.68,622.59,372.66,623.18,373.83,626.88z"/>
<path class="st3" d="M467.36,770.16c9.06,8.67,17.13,8.22,17.93,15.48c0.22,1.98-1.53,3.54-2.88,3.93
	c-5.03,1.46-9.48-7.22-14.69-8.86l-13.54-15.93C458.97,765.38,464.16,767.1,467.36,770.16z"/>
<path class="st3" d="M396.12,691.22c-5.32,4.04-8.11,10.7-11.62,16.12c-1.9,2.94-5.74,6.33-10.27,7.67
	c-0.71-4.98,2.49-10.89,5.16-14.66c3.53-5,8.74-9.33,11.85-14.86C392.32,678.07,402.64,689.44,396.12,691.22z"/>
<path class="st5" d="M394.96,1263.28c-4.06,5.21-8.7,10.8-15.53,12.67l2.31-11.72C386.18,1264.59,390.57,1263.93,394.96,1263.28z"/>
<path class="st14" d="M861,510.19c-9.52,9.03-22.03,14.68-29.22,25.69c-2.96,4.54-4.9,8.67-4.93,15.87l-0.86,236.81
	c-15.04-9.6-32.67-16.3-50.54-12.13l-0.93-4.43c13.93-26.49,22.77-80.26-11.07-94.78c-15.25-6.55-32.82-0.81-41.76,13.04
	c-19.06,29.51,3.37,73.44,28.58,92.81l1.09,4.4c-21.07,21.01-29.37,49.77-26.43,80.94c-10.79-2.9-20.39-5.07-32.32-4.18
	c12.47-36.15,20.49-90.04-13.54-115.45l-2.62-3.63c0.06-41.29,1.03-82.01,2.92-122.17l3.36-1.26c15.57,0.27,18.13-0.58,7.7-2.55
	c-3.71,0.18-6.19-0.86-7.44-3.12c6.66-26.5,12.65-52.94,13.51-80.38c3.16-6.41,11.47-11.54,18.58-11.93L861,510.19z"/>
<path class="st14" d="M1020.4,638.85c-0.07,3.35,1,6.97-0.84,10.93l-12.7-108.56c9.42-12.11,20.51-25.36,37.01-28.47
	c-15.27,11.08-21.28,20.7-21.63,37.49L1020.4,638.85z"/>
<path class="st14" d="M1059.79,758.97l-2.3-62.73c-1.17-32.06-36.27-18.72-52.97-27.28c31.37-2.76,61.19-4.44,93.09-3.17
	l-35.05,10.67C1065.2,703.96,1064.49,730.56,1059.79,758.97z"/>
<path class="st4" d="M622.93,346.96l0.08,51.85c-0.13,1.04-0.44,2.59-1.2,2.68c-7.05,0.81-30.47,0.97-37.21-0.07l-1.93-2.68
	c-1.64-1.97-0.72-4.2,2.74-6.69c-4.48,2.56-7.57,2.58-9.27,0.06l-0.02-2.25c0.68-0.49,0.63-0.98-0.07-1.46l0.4-39.03L622.93,346.96z
	"/>
<path class="st1" d="M575.81,262.65c2.73-2.4-14.65,11.02-17.57,6.43c-5.23-8.23,18.62-13.71,18.04-18.72
	c5.44,0.2,8.83-3.16,13.93-2.36C585.94,254.01,580.76,258.29,575.81,262.65z"/>
<path class="st12" d="M373.83,626.88c-1.5,0.2-4.19-0.55-5.45,0.04l-4.28-63.23c-0.11-1.67-0.07-3.5,0.06-5.16
	c3.03-38.1,0.78-76.61,0.91-115.7c0.05-14.6,0.55-28.89,6.87-42.81l-1.75,154.33C369.9,579.47,370.17,602.97,373.83,626.88z"/>
<path class="st0" d="M895.38,935.07c2.2,2.05,19.63,4.37,22.82,3.54c8.71-8.34,18.83-8.14,26.06,1.93
	c11.73-5.75,23.79,0.31,31.65,8.94c9.97-4.76,19.21-3.76,22.26,8.35c5.44,0.43,10.48,2.69,15.11,6.76c6.99-1.66,14.34,0.78,19.93,5
	c14.29-5.84,21.04-2.43,26.47,11.46c13.26,3.98,19.26,9.01,14,23.64c13.74,11.75,10.59,19.37-0.3,31.41
	c6.32,18.53-9.98,21.61-24.54,17.9c3.38,2.55,0.33,5.62-2.17,7.9c-9.61,8.76-21.95,4.67-27.25-6.84
	c-15.85,5.61-25.12-0.38-24.26-17.07c-9.39-1.61-15.42-6.05-16.67-15.77l-3.17-2.18c0,13.23-13.32,22.22-23.22,12.49
	c-1.35,1.77-2.65,2.15-4.18,0.66c-1.56,5.76-11.49,15.11-15.64,8.77c-2.33,3.75-5.13,1.43-7.92-0.94c-2.93-4.18-6.6-6.7-11.03-7.56
	c-4.04,3.72-7.12,4.79-9.26,3.23c-6.95,4.28-14.25-7.02-16.36-13.43l-20.43,2.39c7,12.21,2.42,17.45-8.23,24.15l-4.98,12.79
	c-3.18,4.36-9.67,8.13-12.95,2.68c-1.63,1.49-3.46,2.03-3.74-0.38c-1.27,1.26-2.94,1.33-5.02,0.2c-4.84,8.77-7.11,12.31-17.84,9.06
	c-2.72-0.82-8.35-4.72-6.96-7.92c-1.05,0.4-2.15,0.29-3.29-0.34c-12.71,8.23-25.42-0.76-24.14-15.87l-0.9-1.18
	c-11.79-0.98-20.17-11.39-10.25-20.23c-0.06-2.29,0.35-4.81,1.24-7.55c-5.04-14.87,1.04-18.07,13.52-23.35
	c0.97-8.1,6.08-16.47,15.46-15.28c1,0.13,1.54,1.94,1.89,3.2c1.67-1.27,3.77-1.75,6.3-1.46c4.38-6.38,16.18-9.43,18.92-1.47
	c3.31-4.88,6.47-9.91,9.47-15.1c-0.94-12.8-1.15-17.03,11.62-20.98c4.24-13.64,11.93-16.21,24.46-11.28
	C877.19,928.79,892.05,925.31,895.38,935.07z"/>
<path class="st15" d="M1086.3,1351.28c-1.32,0.99-2.67,1.93-4.11,2.7c-1.42,0.76-2.83,1.47-4.31,1.78
	c-34.83,7.25-73.44,9.89-109.04,11.1c-1.51,0.05-3.04-0.3-4.6-0.68c-1.58-0.39-3.11-0.96-4.63-1.58l-2.46-3.49l1.39-29.51
	c-4.96,11.43-11.36,22.05-19.21,31.85l-3.3,0.03l-2.68-0.91c0.07-18.85,0.13-37.7,0.2-56.56l2.68-1.57l2.03-2.7
	c43.61-1.19,88.74-2.46,131.96-10.49c12.59-2.34,25.63-5.18,36.62-11.7l3.07,1.07l1.78,0.12c0.64,7.12,1.69,60.26-0.29,62.78
	C1108.11,1347.76,1091.02,1355.4,1086.3,1351.28z"/>
<path class="st11" d="M1086.3,1351.28c2.78,12.58-0.34,29.01-7,40.03l-17.44,84.29l-0.41,2.8l-56.08,10.4
	c-5.14-2.8-3.86-4.9,0.41-9.23c16.61-17.48,32.66-35.44,48.15-53.87l9.79-8.76c-28.13,9.48-54.39,23.4-79.72,38.9l-5.21-0.09
	l-2.03-2.15l31.16-78.63c-16.22,9.65-31.68,20.61-46.39,32.88c-3.51,2.76-5.17,1.97-7.38-1.45c-1.09-1.68,2.06-35.35,2.67-40.03
	l2.8-1.78C1002.1,1362.69,1044.7,1360.36,1086.3,1351.28z"/>
<path class="st1" d="M895.38,935.07c-7.94-5.66-16.19-3.51-22.96,2.67c-4.86-0.86-10.93-3.32-16.28-0.99
	c-3.59,1.56-3.46,7.88-6.81,11.68c-2.9,3.29-9.11,2.55-10.38,5.38c-2.13,4.77,0.7,10.34-0.66,14.63
	c-2.62,5.05-6.78,13.39-11.98,14.23l-2.69-2.03c-0.11-26.78-0.22-53.57-0.33-80.38l2.65-6.87c16.2-21.64,30.54-59.09,14.69-87.2
	c11.66-4.9,24.63-8.34,34.15-15.91l2.57,3.98c-0.44,26.92,12.72,49.48,30.83,68.54c-12.96,21.08-15.09,44.42-10.72,68.38
	L895.38,935.07z"/>
<path class="st7" d="M1109.91,1280.62c-24.83,19.75-140.31,23.55-173.67,23.82c-4.26-1.47-3.17-8.87,1.34-9l1.74-2.68
	c36.75-0.22,74.17-1.16,110.96-5.65c6.23-0.76,39.5-5.58,42.13-9.15c1.62-2.19-22.24-7.63-25.43-7.08l-2.13-2.95
	c-3.56-2.5-0.82-6.52,2.74-3.88c0.3-0.57,0.64-1.09,1.1-1.46c1.34-1.08,30.88,3.39,33.85,4.88
	C1107.79,1270.09,1116.54,1276.37,1109.91,1280.62z"/>
<path class="st5" d="M689.5,1450.2c2.95-3.65,7.81,2.07,5.29,5.54c-6.67,4.83-14.54,7.71-23.6,8.66c-25.97,5.2-52.04,9.87-78.2,14
	c-6.57,8.35-17.26,14.74-27.78,16.62c-87.29,15.6-177.72,21.5-265.01,9.43l-13.02-0.36l-180.07,12.67
	c-7.58,1.29-37.79-0.68-38.44-9.72c-0.34-4.72,30.02-10.41,35.95-11.41c69.57-6.72,139.55-13.23,209.95-19.53l6.88,0.8
	c6.49,0.6,6.92,7.4,0.47,10.6c-5-0.26-9.77,0.21-14.31,1.41c15.31-1.09,30.41,1.34,45.31,7.3c-3.91-6.4,2.04-8.18,7.59-7.22
	c-7-0.72-14.07-0.81-21.2-0.28c-7.94-1.52-15.47-4.81-9.86-12.97c0.83-0.95,1.69-1.85,2.67-2.6c5.51-4.23,48.53-11.45,55.26-9.42
	c1.18,0.36,2.31,0.89,3.42,1.48c6.8-1.66,17.55,11.48,8.24,15.14l-11.01,1.4c15.83-1.37,29.95,1.88,44.99,6.38
	c-5.63-6.25,2.42-8.44,8.4-7.27l-7.3-1.1c-11.07,2.68-18.27,2.72-27.33-4.42c-3.04-2.4-9.61-7.87-7.5-11.48l4.62-2.49
	c55.26-9.86,112.31-6.44,168.16-2.69l44.07-16.87l51.46,7.94l18.41-2.42L689.5,1450.2z"/>
<path class="st6" d="M407.12,1332.58l0.71,5.27c-12.92,36.94-51.41,58.23-84.65,73.79l-8.42,1.25c0.56,4.4-5.25,6.12-7.95,2.92
	l-4.07,4.19c-16.84,6.7-34.06,12.12-51.66,16.27c-1.66,0.12-3.06,0.05-3.58-0.66c-1.9-2.61,3.34-21.44,5.02-25.5l3.42-1.21
	c13.56-28.75,29.08-55.68,52.58-76.82c22.26-20.01,73.52-49.26,94.51-25.26C409.71,1314.45,407.16,1323.77,407.12,1332.58z"/>
<path class="st6" d="M239.61,1408.65l-0.06,3.01c-47.73,30.1-99.75,60.87-151.25,84.02c-9.1,1.85-14,0.42-8.24-9.17
	c-6.46,2.58-13.08,4.69-19.85,6.31c-17.61,2.62-17.28-4.71-6.27-15.61c-3.92,1.49-19.66,2.95-19.14-3.22
	c0.85-10.07,34.24-29.68,43.96-34.27c52.49-24.79,106.61-46.67,161.81-65.16c2.18-0.73,4.48-1.1,6.81-1.43
	c2.35-0.34,4.72-0.49,7.11-0.58C249.03,1384.34,243.03,1396.18,239.61,1408.65z"/>
<path class="st8" d="M732.58,1493.1l3.53-0.53c4.03,3.1,7.71,6.35,11.04,9.75c21.2-24.55,55.48-4.11,69.43,17.56l-2.08,2.48
	c-31.95-0.36-63.88,5.94-97.58,0.16c0.13-3.83,5.5-3.61,7.09-7.31l-79.22-0.28c4.88-2.45,6.54-8.24,8.69-12.34l1.17-4.31
	C680.59,1473.62,703.33,1474.75,732.58,1493.1z"/>
<path class="st12" d="M759.4,1466.57c4.64,3.58,9.94,6.35,15.9,8.31l33.41,20.84l5.41,6.91c1.05-0.23,2.62-0.57,3.09,0.12
	c2.73,4.03,8.65,15.35,10.42,19.87l-1.48,2.94c-4.46,0.72-7.25-0.72-11.65-3.19c-2.1-9.47-12.55-13.91-20.11-20.11
	c-14.75-12.09-32.66-11.52-47,2.36c-6.03-3.6-10.32-7.8-14.8-11.52c-13.41-8.17-25.32-18.67-35.73-31.52l-2.07-5.83
	c-1.65-1.61-2.96-4.64-5.29-5.54c-5.35-1.48-10.92-8.71-8.53-14.27c15.12,2.84,29.87,8.98,43.65,15.82
	C736.89,1454.97,749.45,1458.41,759.4,1466.57z"/>
<path class="st5" d="M442.7,1523.32l-70.37,3.08c9.94-8.25,20.97-11.05,31.63-15.56L442.7,1523.32z"/>
<path class="st1" d="M696.56,490.28c-6,1.32-13.02,4.19-15.97-1.14c4.4-5.22,10.94-4.41,15.93-5.99c6.84,0.25,12.49-2.52,18.76-0.03
	C708.69,486.01,702.66,488.93,696.56,490.28z"/>
<path class="st1" d="M696.36,420.38c-4.25,2.68-10.68,5.3-13.18,2.03c2.52-7.09,9.98-6.83,13.59-11.22
	c4.25-0.29,6.81-3.28,11.61-2.23C704.19,412.53,700.7,417.64,696.36,420.38z"/>
<path class="st4" d="M715.06,523.73c-5.86,4.36-12.19,8.38-18.58,11.93c0.12-3.83,0.53-8,0.49-11.81
	C703.11,523.38,709.44,520.6,715.06,523.73z"/>
<path class="st4" d="M466.76,368.04c1.25,10.22-0.4,20.56,0.15,30.79c-0.27,1.05-0.73,2.63-1.55,2.69
	c-12.39,0.85-29.86,1.06-42.18,0.31c-4.28,0.83-7.46-0.04-9.52-2.61l-3.36-0.44c-5.63-6.35-12.49-11.29-20.57-14.81
	c-7.13-0.77-15.69-1.26-22.6,3.05c-2.58-8.63-14.31-2.03-22.75-7.57C385.42,371.96,426.2,372.2,466.76,368.04z"/>
<path class="st3" d="M467.24,347.09c0.62,3.91,28.87,13.65,18.93,20.38c-5.39,3.65-12.26-7.44-18.37-8.76
	c-6.33-6.99-14.4-10.82-20.02-18.05C454.91,341.63,461.23,345.45,467.24,347.09z"/>
<path class="st2" d="M466.91,257.44l0.25,42.38l-135.11-4.1l-210.76-12.37c34.92-11.09,69.03-10.39,103.77-12.34L466.91,257.44z"/>
<path class="st3" d="M466.29,238.52c4.58,5.69,25.96,11.19,19.8,19.26c-4.42,5.79-12.31-6.56-18.32-7.37
	c-5.81-5.91-11.84-10.3-17.78-14.73C446.46,226.35,460.74,238.69,466.29,238.52z"/>
<path class="st12" d="M959.62,1364.6l-2.88,43.2c20.02-12.72,34.56-29.93,56.2-38.22l-34.15,86.18l1.03,3
	c-1.2,0.53-9.23,11.8-8.59,11.46c18.53-9.92,38.12-21.69,56.08-32.71c11.24-9.09,23.38-15.95,36.41-20.56
	c-17.2,24.83-39.66,45.46-60.39,69.52l58.54-10.86l53.06-6.67c-5.64,5.96-10.71,10.84-16.39,14.96c0.61,0.84,1.35,2.26,0.84,2.7
	c-8.15,7.02-26.97,21.16-35.99,26.06l-9.3,3.5c-0.88,0.64-2.84,1.96-4.53,1.61c-12.79-6.78-32.92-17.82-47.58-9.4
	c-13.77,7.91-21.78,26.9-39.52,28.05c-12.36,0.8-25.31-9.17-37.03-12.41l0.59-4.94c16.29-32.86,29.67-66.83,40.14-101.91
	c-11.97,8.97-23.33,18.67-34.09,29.09l-5.48,1.35c-1.01-0.27-2.49-0.97-2.34-1.6c7.32-29.82,16.22-61.84,25.18-91.43
	c2.48-8.2,4.86-15.51,9.11-22.98C960.93,1341.91,960.36,1353.54,959.62,1364.6z"/>
<path class="st10" d="M884.07,1513.44c-20.22-0.46-38.31,8.93-57.93,12.11l-12.03-22.93c-6.33-6.49-10.78-19.33-12.93-28.3
	l1.15-3.63c-6.67-12.49-11.7-25.7-15.08-39.64c0,0,0.57-1.17,1.72-3.51c-5.98-12.27-10.35-25.24-13.12-38.92
	c-0.48-6.99,2.7-11.39,6.24-3.98l2.76-1.03l38.22,38.08l3.34,7.11c3.46-0.35,6.21,1.55,8.25,5.7l17.33,29.75l1.8-14.7l3.04-2.03
	c-0.67-12.93,1.54-31.74,5.44-44.19l2.92-1.07c-2.14-3.38,0.35-17.87,2.07-20.06c0.67-0.86,1.93-1.05,3.04-1.19
	c-2.99-5.13,0.04-14.82,5.22-17.77c-1.84-8.52,1.81-19.77,8.47-25.41c0.85,2.02,1.64,4.06,2.25,6.15c0.6,2.08,1.18,4.14,1.33,6.22
	c3.56,49.63,4.56,101.31,0.24,150.89c-0.18,2.08-0.78,4.14-1.41,6.21C885.79,1509.41,884.96,1511.43,884.07,1513.44z"/>
<path class="st10" d="M925.45,1524.01c-12.95-3.58-25.67-7.88-38.9-10.62c-0.98-12.6,7.43-25.97,14.2-36.69
	c3.41-7.42,8.05-12.68,13.92-15.78c0.63-5.75,5.8-14.65,11.94-13.31c14.16-12.68,27.71-26.43,44.42-36.87
	C959.74,1451.63,944.42,1488.35,925.45,1524.01z"/>
<path class="st12" d="M897.29,1363.7l2.73,1.63c0.91,1.62,4.93,17.52,4.26,18.22c-0.46,0.48-1.01,0.88-1.59,1.26l3.32,3.47
	c2.57,7.3,5.38,18.64,3.52,25.92c0.83,0.68,1.63,1.4,2.28,2.23c3.01,3.85,5.18,29.89,4.97,36.5c-0.09,2.95-0.94,5.26-2.12,7.98
	c-11.65,16.3-22.58,33.16-28.11,52.47c-0.77-0.16-1.68,0.07-2.47,0.06c5.52-58.51,4.43-117.04-0.07-175.59
	c2.04-2.34,3.86-1.39,5.65,0.91c3.57,7.15,6.6,14.58,9.09,22.28L897.29,1363.7z"/>
<path class="st7" d="M1054.09,1516.16l44.45-32.26c7.16,4.24,16.13,0,24.63,1.87l62.58,13.75L1054.09,1516.16z"/>
<path class="st10" d="M198.16,1283.14l0.1,3.63c-6.8,9.11-12.37,19.09-16.71,29.97l-3.58,0.94c-8.78-3.06-18.36-4.79-26.33-9.48
	c3.94-18.41,11.78-37.71,24.44-51.63c16.3-16.58,33.46-33.02,56.35-41.89L198.16,1283.14z"/>
<path class="st6" d="M227.69,1299.2c5.18-4.1-37.5,22.67-36.81,22.71c-4.66-0.29-8.81-2.81-12.9-4.24
	c6.4-11.15,10.36-25.71,20.18-34.54c15.89-14.28,36.7-22.23,58.77-20.97C249.94,1276.78,240.13,1289.36,227.69,1299.2z"/>
<path class="st13" d="M89.76,1279.02c3.62,1.73,7.23,5.64,10.59,7.88c2.65,3.24,2.19,8.67,4,12.34c-9.76,3-21.27,4.48-30.46,7.99
	c-5.04-8.45-13.6-14.23-20.25-21.44c-1.98-2.14-5.34-4.78-6.95-7l-18.75-21.84C49.93,1260.46,69.78,1269.46,89.76,1279.02z"/>
<path class="st12" d="M176.09,1256.56c-8.83,16.91-17.1,34.01-24.44,51.63c-0.33-0.13-1-0.08-1.38-0.02
	c7.57-39.28,12.18-80.16,14.38-120.12c0.9-1.07,0.01-3.41,2.2-4.97C172.83,1207.11,175.06,1231.83,176.09,1256.56z"/>
<path class="st14" d="M1200,1139.83v238.25c-6.15,2.16-8.36,9.25-14.48,13.58c2.26-12.81,9.13-24.6,8.65-38.18
	c-8.1,3.88-10.3,11.27-17.12,15.94c-1.39-16.55-0.58-31.66-4.67-48.17l-15.69,50.49c-7.54-14.4-12.55-29.42-23.08-43.5l4.21,62.18
	c-9.83-12.02-18.33-22.91-30.91-32.53c2.76,14.5,10.09,26.83,13.66,40.51c-14.22,1.19-27.27-5.25-41.25-7.07
	c2.74-13.24,5.39-26.68,7-40.03c7.81-1.7,16.11-4.37,23.02-9.04l0.59-61.61c0.16-17-31.74-11.56-42.31-16.57
	c-3.74-4.35,3.35-12.4,6.78-16.19c1.85-2.04,4.15-3.65,6.51-5.04l-1.14-6.74c1.52-8.04,5.16-15.63,10.92-22.76
	c3.73-36.49,5.59-54.73,5.59-54.73c-2.36-10.15-3.82-20.38-4.38-30.68c1.85-2.91,1.56-7.36-2.32-7.34
	c-4.6-10.69-9.37-21.32-14.3-31.89c0.88-5.46,0.07-7.47-2.43-6.03c-7.03-8.58-14.6-16.68-22.7-24.32l-1.29-4.32
	c2.12-6.09,12.9,4.32,22.31-5.89c3.35-3.63-1.77-9.7-0.11-13.33c2.41-5.28,8.67-8.41,9.26-13.97c0.72-6.69-4.9-10.23-9.7-14.6
	c0.79-4.69,3.89-10.71,1.09-15.84c-2.8-5.13-10.28-3.94-13.85-7.39c-3.73-3.6-3.46-10.36-8.26-12.56
	c-5.65-2.59-12.4,1.34-16.85,1.69c-6.58-4-12.93-7.06-20.56-4.41c-3.39-3.49-9.08-7.41-15.28-7.71c-2.48-2.94-3.56-8.93-7.06-10.01
	c-4.79-1.48-9.79,0.97-14.38,1.94c-9.6-8.06-20.4-16.18-31.92-6.99c-2.98-6.98-7.32-8.6-12.07-9.67c-5.76-1.3-8.83,5.24-13.5,6.24
	c5.09-1.09-31.28-0.02-22.58-6.41c-4.32-24.8-4.8-50.7,10.55-71.98c-21.21-19.41-32.53-45.64-31.17-72.81
	c11.87-9.44,23.26-21.45,27.93-36.22c18.37-5.73,37.36,1.32,46.98,18.86c10.78,19.68,12.39,41.7,7.5,64.1
	c44.96-3.78,72.19,31.89,82.25,71c8.84,0.89,16.88,1.15,24.72,4.06c-1.38-22.06,1.17-43.49,12.32-61.68
	c10.54-17.2,28.97-25.37,47.31-19.29c17.91,5.93,29.24,23.59,27.11,43.8c-3.24,30.62-24.89,55.41-53.88,67.82
	c18.89,41.58,2.9,81.36-20.24,119.84c9.21,0.91,11.21,7.09,16.5,12.54c1.56,1.6,6.99,0.16,8.8,1.28c1.59,0.99,1.65,3.52,2.3,7.36
	c12.81-0.61,21.44,10.02,29.35,19.53c1.15,1.39,5.2-0.46,6.36,0.58c2.47,2.21-0.79,9.13,4.55,11.71c1.38,0.66,5.28-1.33,6.38-0.25
	c2.05,2.02,1.85,6.18,4.37,7.09c3.72,1.33,5.45-0.92,8.23-2.95c2.8-2.04,6.67-0.06,8.27,1.97c1.43,1.82,0.71,6.38,3.52,8.01
	c2.69,1.56,6.45-0.51,8.87-0.16C1189.16,1130,1181.57,1134.05,1200,1139.83z"/>
<path class="st12" d="M550.39,835.85c-8.77,2.28-19.96,7.51-24.54,15.86l-1.01-738.84c-0.02-16.85-1.09-31.76-3.87-47.09
	c20.91-6.41,28.57,52.29,28.59,67.17L550.39,835.85z"/>
<path class="st3" d="M466.91,398.83c0.66,12.31-0.27,25.24,1.21,37.53c8.22,4.44,19.51,7.42,19.05,17.04
	c-7.01,4.23-10.71-4.04-19.18-8.14L466.9,550.6c-0.19,1.07-0.5,2.66-1.32,2.81c-8.07,1.48-33.33,4.3-40.75,3.68l-2.19-2.49
	l-2.68-0.91l-0.58-121.15c-0.51-9.97-2.43-19.88-6.56-29.01l0.86-4.33L466.91,398.83z"/>
<path class="st6" d="M413.66,399.22c6.13,11.62,8.48,25.07,8.53,38.78l0.44,116.6l2.68,1.52l-0.01,20.4l-2.68,1.89l2.7,2.71
	c1.22,30.59,9.21,68.65,39.8,82.54l1.88,3.53c-0.06,7.26,2.69,14.77,0.72,22.34c-8.67,3.2-21.27-4.63-28.77-9.92
	c-29.83-21.05-35.57-54.17-38.56-87.94l-1.6-182.64c-0.68-7.75-2.58-16.76-9.6-21.11l-0.92-3.26l1.45-0.69
	C398.85,384.96,408.86,390.1,413.66,399.22z"/>
<path class="st12" d="M388.28,384.66c9.09,2.78,13.21,15.58,13.3,27.1l1.43,176.07c0.37,45.26,17.39,90.59,64.73,101.7
	c-1.35,5.2,2.1,11.65-0.41,18.07c-59.44-10.19-82.46-69.56-81.53-123.92C386.92,516.58,383.06,449.45,388.28,384.66z"/>
<path class="st12" d="M500.84,930.56c-1.81-0.7-4.34-0.61-5.52-2.53l0.16-799.14c0-20.62,5.23-40.3,13.76-58.14
	c-3.19,17.93-8.27,35.72-8.28,55.45L500.84,930.56z"/>
<path class="st1" d="M467.05,575.67l0.26,8.34c-2.4,1.51-5.59,1.3-9.56-0.64l10.44,8.07l-0.6,3.3l-0.59,72.45
	c-33.73-11-44.39-57.46-44.38-88.78c0.22-1.07,0.59-2.67,1.4-2.77c12.03-1.5,28.77-2.53,40.9-2.52L467.05,575.67z"/>
<path class="st12" d="M550.32,929.83l2.51,4.51c1.14,14.46,0.2,28.51-2.83,42.17c-3.18,6.97-3.46,14.11-7.56,21.59
	c-0.73-19.06-12.57-33.34-17.91-49.63l1.36-51.23C530.49,910.24,541.14,919.67,550.32,929.83z"/>
<path class="st4" d="M466.9,550.6c-0.09,8.26-0.11,16.82,0.15,25.07l-44.42,2.74l0.01-23.81L466.9,550.6z"/>
<path class="st12" d="M377.52,636.04c8.43,48.32,41.45,81.15,93.19,91.92c-29.59,4.13-56.37-16.02-74.59-36.74
	c-0.62-1.21,0.7-4.1-0.87-5.19c-1.08-0.75-2.74-0.57-4.02-0.54c-10.44-15.31-13.75-33.41-21.61-49.69
	C371.97,636.51,375.13,634.7,377.52,636.04z"/>
<path class="st3" d="M467.31,584.02l17.3,10.65c2.82,1.74,2.3,6.45-0.01,8.19c-4.04,3.04-11.69-7.42-17-8.11
	c-5.72-6.68-13.68-8.9-18.66-16.48C455.11,580.31,462.54,581.08,467.31,584.02z"/>
<path class="st1" d="M679.06,748.78c-16.62-12.41-42.91-7.1-57.24,4.75c-15.75,13.02-20.31,35.31-16.55,55.07
	c-8.02,3.81-20.51,4.48-28.84,1.38l-0.26-107.55c46.41-4.98,83.52-36.3,102.25-77.34l-11.95-0.14c-2.21-0.03-3.92-1.19-2.93-6.67
	l19.42-2.23c7.05-0.81,14.89,2.46,22.52,4.71c-7.64,5.1-15.3,3.03-24.55,3.75L679.06,748.78z"/>
<path class="st3" d="M582.68,398.73l40.33,0.07l0.33,131.69l-3.16,2.75c-14.24,0.76-27.27,6.99-39.5,13.89l-4.16-0.73l-0.59-143.04
	C573.89,399.53,580.19,394.19,582.68,398.73z"/>
<path class="st14" d="M605.27,808.6c5.87,30.89,26.04,56.73,51.11,77.9c-9.37,12.68-15.63,26.78-20,40.63
	c-13.92,0.27-29.47-1.16-44.18,6.84c3.32-36.92,9.89-62.1-16.4-91.55l0.63-32.45C585.97,808.82,595.67,808.27,605.27,808.6z"/>
<path class="st1" d="M622.17,547.75c-1.82,26.77-12.35,56.13-38.23,65.53l-2.39-3.7c1.45-13.22,0.71-26.4-2.24-39.3
	c-1.26-16.85,27.6-22.64,40.16-24.73L622.17,547.75z"/>
<path class="st4" d="M623.34,530.5l-1.17,17.25c-11.18,2.28-44.57,6.75-39.71,25.62c3.55,13.78,2.56,26.44,1.48,39.91
	c-2.34,0.85-5.16,3.14-7.7,3.08l0.28-69.96C591.25,538.04,606.17,530.38,623.34,530.5z"/>
<path class="st1" d="M582.68,398.73c-3.38-0.01-4.51,3.6-6.75,4.64c-9.6,4.45-16.55,10.71-18.9,6.19
	c-4.4-8.47,15.45-11.03,19.11-17.46c5.57-0.88,11.05-4.6,17.28-4.26L582.68,398.73z"/>
<path class="st12" d="M791.53,928c1.45-0.03,3.07-0.01,4.2,0.9c7.35,5.95,11.67,25.51,11.7,34.89c0.02,6.8-0.21,18.63-6.35,21.83
	c-3.91-1.7-8.28,0.59-11.22,2.86c-3.4,2.63-1.56,9.88-5.02,11.62l-10.71,5.4c-8.74,4.4,4.94,16.42-5.18,23.1
	c-6.06,7.63-14.15,13.43-24.26,17.41c-10.29,5.65-21,9.22-32.11,10.7c-0.1,10.96-6.43,46.78-13.46,53.13
	c-0.78,0.71-1.69,1.28-2.62,1.82c3.24,2.28,0.68,4.74-2.56,4.98c0.73,0.73,1.69,1.77,1.39,2.58c-1.4,3.79-10.47,14-14.96,14.85
	c-0.38,4.16-10.68,4.46-11.79,0.55c23.49-54.68,41.5-128.88,8.15-183.71c12.13,8.56,19.58,20.28,26.89,34.29
	c30.45-19.87,63.38-67.11,37.99-102.61c17.67,2.74,26.52,18.11,29.07,34.4C777.25,920.34,786.65,922.38,791.53,928z"/>
<path class="st12" d="M775.45,776.43c-6.99,1.64-18.87,5.82-24.1,11.04c-24.8-20.24-42.98-48.28-38.39-81.08
	c2.71-19.33,16.93-33.26,35.02-34.45c18.56-1.22,33.95,11.5,39.15,30.34C794.15,727.64,786.21,753.1,775.45,776.43z"/>
<path class="st1" d="M547.78,1110.23c0.33,1.58,2.14,3.59,1.46,5.5l-3.46,2.91c-16.24,0.03-32.25,1.76-48.02,5.18
	c17.11,4.61,34.96,7.01,53.55,7.21l4.64,2.95c37.44,2.17,75.16,2.36,112.62,0.62l11.79-0.55l4.75-2.91
	c17.5-0.79,35.06-2.18,52.15-6.34c-13.16-3.31-26.72-5.03-40.66-5.17l-2.66-3c-0.31-2.03,1.96-3.46,2.56-4.98l1.87-2.51
	c20.53-0.08,40.16,3.04,58.91,9.36c4.99,3.73,6.93,10.38-0.42,10.33l-2.57,2.67c-36.3,12.35-77.32,13.12-115.68,13.76
	c-1.06,0.02-2.14-0.37-3.25-0.79c-1.14-0.43-2.22-1.03-3.28-1.67l-3.25,2.79c-50.77,0.39-103.28,0.39-152.56-13.16l-2.25-3.62
	c0.72-14.74,9.94-9.05,25.66-14.46c0.35-1.24,0.81-1.28,1.38-0.13c0.04-1.08,0.33-2.13,1.21-2.84c0.8-0.64,18.4-2.39,20.36-2.36
	l2.2,2.44c0.08-1.04,0.29-2.59,1.04-2.74c1.93-0.37,19.05-1.61,19.89-1.07C546.73,1108.29,547.44,1109.07,547.78,1110.23z"/>
<path class="st14" d="M826.3,982.68c-19.35-7.31-11.27,9-25.22,2.94c6.74-20.12,4.58-41.37-9.55-57.62
	c10.88-11.9,24.71-21.65,34.4-34.6L826.3,982.68z"/>
<path class="st9" d="M525.11,1071.37c1.04,0.13,2.62,0.47,2.67,1.21c0.3,4.1,0.41,35.27-0.27,36.99c-0.4,1-1.64,1.49-2.69,1.9
	l-23.77,2.75c-1.05-0.28-2.6-0.75-2.67-1.57c-0.77-9.1-1.24-34.91,0.16-43.21l2.69-1.95
	C509.03,1068.19,517.47,1071.54,525.11,1071.37z"/>
<path class="st11" d="M549.24,1115.73c3.5,5.13,5.25,12.14,6.71,18.25c-22.31-1.29-45.64-2.21-68.39-9.59
	C508.44,1116.15,529.37,1117.17,549.24,1115.73z"/>
<path class="st12" d="M547.78,1110.23l-22.96,1.23l0.29-40.1l15.51-0.34C542.44,1084.3,545.07,1097.38,547.78,1110.23z"/>
<path class="st6" d="M550,976.5l0.31-46.67c5.59,6.18,13.98,9.62,20.89,16.3C561.78,954.66,555.11,965.32,550,976.5z"/>
<path class="st12" d="M501.22,1067.49l-0.17,46.73c-0.42,0.05-0.98-0.01-1.38,0.13c-0.77-0.06-4.05,0.14-4.05-1.58l-0.03-48.13
	C497.17,1065.48,500.47,1065.11,501.22,1067.49z"/>
<path class="st3" d="M467.07,1243.99l-0.87,3.56c-6.43,4.24-12.13,9.74-15.3,16.84l-3.45,1.37c3.28,2.13,1.3,10.99-2.56,11.53
	l2.21,4.3c-0.19,13.91-1.62,51.76-6.89,62.82c-0.72,1.52-2.37,2.38-3.85,3.13l1.15,4.56c-10.24,25.72-30.59,47.36-56.91,56.7
	l-4.44-1.37c-2.29,4.63-14.49,7.91-19.83,8.78l-2.55-2.03l-1.04,3c-1.03,0.73-19.3,1.18-19.47-2.58
	c-5.02,3.68-15.97,4.26-18.49-1.72c40.16-20.46,73.61-32.99,92.36-80.31c40.96-45.92-8.38-69.81,62.91-100.32
	c4.59-0.83,10.05-0.15,15.09,0.81C476.64,1234.08,472.48,1240.89,467.07,1243.99z"/>
<path class="st3" d="M449.56,1229.81c-4.6-0.37-8.52-2.68-8.81-6.4c-0.29-3.74,3.28-6.51,7.19-7.64c3.18-0.92,6.81-0.19,9.07,1.87
	c1.98,1.81,3.12,5.78,1.11,8.52C456.73,1228.08,453.11,1230.09,449.56,1229.81z"/>
<path class="st8" d="M632.05,1410.32c-1.25,0.72-2.52,1.39-3.85,1.89c-1.31,0.49-2.59,0.94-3.88,0.98
	c-22.16,0.73-44.66,0.4-66.27-5.11c-1.12,1-2.37,2.12-3.84,2.2c-6.56,0.33-25.01-5.5-30.37-9.49c-2.27-1.69-9.59-48.82-10.45-55.55
	l2.36-2.03c-3.73,1.19-6.28-17.18-5.82-18.09c0.53-1.03,1.23-1.81,2.33-2.26c-0.96-0.1-1.9-0.4-2.54-1.16
	c-1.59-1.88-3.67-21.87-4.03-25.71c-0.58-6.06-1.08-12.1-0.99-18.22c-1.02,0.17-2.6,0.22-2.8-0.43
	c-3.84-13.08-4.82-30.22-4.97-43.86c6.79-9.4,22.51-4.39,35.12-5.95c-9.6-10.86-24.85-13.34-39.72-13.36
	c-3.71-8.89-3.7-17.97-6.04-26.44l7.9-0.19c43.32,13.66,88.96,16.3,134.1,17.43c0,0,1.89,0.71,5.66,2.12
	c0.98,67,1.23,134.2,0.77,201.59L632.05,1410.32z"/>
<path class="st15" d="M632.28,1189.05c3.47-1.32,7.04-2.56,10.77-2.8c32.54-0.95,64.95-3.43,97.22-7.45l5.59,0.89l2.5,1.34
	c0,0-7.23,45.72-21.7,137.17l-2.9,1.2c3.96,1.64,2.65,11.66-1.76,11.74l1.69,3.96l-3.87,26.83l-3.2,2.95l1.84,4.96
	c-0.4,5.24-4.52,28.26-6.93,30.74c-4.73,4.86-31.92,9.06-40.22,10.12c-10.96,1.4-23.28,2.26-34.31,2.15l-4.94-2.54l0.04-202.58
	c-51.03-1.23-99.88-4-145.79-20.01c-0.77-2.8,0.22-6.08-0.25-8.94l4.84-0.89c45.38,5.91,90.97,9.03,136.78,9.38L632.28,1189.05z"/>
<path class="st8" d="M632.07,1142.81c1.04,0,2.62,0.23,2.68,0.9c0.82,8.99,1.56,35.62,0.2,43.75l-2.67,1.6
	c-49.02,0.21-98-0.74-146.22-10.26c-3.76-0.74-9.97-3.24-12.11-6.83c-1.1-14.97-0.63-29.12,0.05-43.16
	C510.43,1142.27,592.7,1144.22,632.07,1142.81z"/>
<path class="st12" d="M495.2,1252.47l2.65,1.22c0.09,21.78,0.14,43.58,0.17,65.38l-2.68,1.59c-4.57,5.19-24.19,1.26-29.05-2.34
	c-1.62-1.2-1.88-35.34-1.61-40.11l2.65-1.97c-3.92-1.64-3.87-6.24,0.04-7.78c-3.82-3.54-3.29-13.87,0.32-17.48L495.2,1252.47z"/>
<path class="st6" d="M504.71,1277.76c0.69,13.49,1.65,26.97,2.9,40.45l-2.6,3.63c-0.22,5.02-9.11,3.33-9.67-1.18l-0.14-68.19
	c-0.01-6.23-0.09-13.21,1.75-19L504.71,1277.76z"/>
<path class="st1" d="M467.07,1243.99l0.63,6.98c0.52,5.81-0.05,11.66-0.32,17.48c-4.88,4.02-16.11,2.27-19.93-2.69
	C451.01,1256.05,458.23,1249.07,467.07,1243.99z"/>
<path class="st13" d="M932.26,1041.95c1.04,0.16,2.6,0.54,2.64,1.28c0.4,7.85-0.04,22.38-1.04,30.08c0.67,4.08-0.31,6.58-2.94,7.51
	c1.83,3.75,1.61,4.03-1.69,6.78c0.45,1.16,0.85,2.59,0.17,3.57c-0.39,0.57-14.17,5.69-2.58,0.89c0.66-2.24,1.49-1.05,2.64,1.05
	c1.04,0.17,2.58,0.55,2.63,1.3c0.36,5.38-0.17,18.45-0.94,23.82l-2.75,1.82c2.1,3.56,1.77,5.64-1,6.23c0.81,1.37,1.19,3.4,0.27,4.62
	c-0.48,0.64-16.36,6.49-2.32,0.62c0.55-2.19,1.54-0.84,2.64,1.28c1.04,0.27,2.6,0.68,2.69,1.48c0.59,5.28,0.66,18.37,0.13,23.65
	l-2.67,1.88c0.87,3.66,0.52,7.38-1.03,11.18c-1.85,2.36-1.6,3.07,0.74,2.14c1.05,0.26,2.59,0.66,2.71,1.49
	c0.69,4.63,0.66,14.54,0.43,19.45c1.01,4.61,0.19,7.6-2.48,8.99c1.8,1.4,0.47,9.47-0.12,10.19c-0.38,0.47-6.14,2.66-7.16,2.81
	c-0.4,0.06,7.03-3.72,6.86-1.21c1.04,0.09,2.6,0.32,2.72,1.07c0.77,4.5,0.93,14.51,0.77,19.35c1.08,4.53,0.3,7.47-2.33,8.83
	c1.48,3.82,1.33,6.72-0.43,8.69c1.33,3.01-0.71,5.03-6.12,6.03c-1.99,1.9-1.45,1.95,1.62,0.17c2.6-3.5,4.3-3.89,5.11-1.2
	c1.04,0.08,2.61,0.31,2.73,1.05c0.89,5.38,1.06,15.72,0.99,21.43c1.17,4.87,0.42,8.08-2.24,9.64c-14,4.23-30.19,4.05-44.17-0.18
	l-2.17-0.95c0,0-4.44-12.84-13.31-38.52l0.79-2.52c5.01-2.56,1.82-5.63-2.15-7.6c-5.1-11.67-6.9-24.33-5.43-38
	c-1.64-11.76-3.05-23.67-4.21-35.72l1.33-3.69c5.15-2.87,5.21-6.82,0.15-11.83c1.53-10.02,2.69-20.09,3.48-30.21
	c-1.96-3.38,1.77-5.57,5.13-4.2l1.27-2.87c-1.97,0.15-3.16-0.44-3.79-2.41c-1.62-5.09,10.56-34,16.52-38.22
	c-1.1-5.6,0.93-11.12,6.1-16.56c6.24-9.51,13.86-17.17,22.88-22.98C920.38,1026.77,923.7,1041.5,932.26,1041.95z"/>
<path class="st13" d="M837.35,1064.87c2.93,0.4,1.65,2.14-0.19,3.78c-3.83,4.91-6.33,10.03-7.49,15.37
	c-5.36,2.36-7.61,4.93-6.74,7.69c-4.86,11.14-8.22,22.72-10.06,34.75c-3.19,1.92-4.37,3.02-2,6.32
	c-2.72,10.55-4.29,21.39-3.96,32.31c-2.73,2.16-2.33,5.8,0.75,7.47c-1.56,2.75-2.13,5.8-1.72,9.16l3.24,22.86
	c-1.8,3.2-1.37,5.86,1.3,7.98c-0.55,3.72,0.09,5.95,1.93,6.67c1.79,10.8,5.28,20.58,10.48,29.32c-2.73,1.85-2.29,4.08,1.32,6.69
	c1.93,3.24,14.87,27.12,14.23,28.58c-0.26,0.58-0.72,1.07-1.25,1.53c-4.35,4.36-14.77-0.21-19.89-3
	c-4.99-2.72-13.97-8.37-12.07-14.36c-3.63-0.65-4.54-1.73-3.04-5.11l-4.29-1.88c-4.32-3.62-20.38-31.22-20.7-36.77
	c-0.12-2.15,1.11-5.06,2.21-6.91c0.35-6.48-1.74-9.28-6.25-8.42l-1.32-3.64l-3.1-4.27c-1.44-13.47-5.56-64.37,2.9-72.67
	c0.69-0.68,1.51-1.23,2.36-1.74l2.18-2.57c2.94,0.96,4.48-0.42,4.62-4.16c-2.87-1.81-3.35-4.61-1.44-8.38l-1.38-4.31
	c5.24-12.44,14.34-31.96,25.04-40.27l4.47-0.68c3.55,2.46,7.88,6.24,11.58,6.66C830.8,1074.21,826.58,1055.95,837.35,1064.87z"/>
<path class="st13" d="M904.05,1036.67l0.08,2.59c-4.43,5.8-9,11.52-13.7,17.16c-3.26,5.43-6.52,10.79-9.8,16.06
	c-2.96,0.02-3.62,2.5-1.98,7.44c-5.41,9.84-8.9,20.19-10.45,31.05c-1.34,1.42-2.3,3.36-2.88,5.84l-2.97,34.45l-2.9,4.86
	c-0.65,4.59-0.16,8.17,1.47,10.74c0.86,9.02,1.47,18.04,1.81,27.07c-3.35,5.63-2.12,13.08,1.57,18.44
	c-0.64,10.81,1.48,20.33,6.37,28.56c-2.02,2.77-2.28,4.91-0.79,6.42c4.67,13.29,9.43,26.91,14.28,40.87l-1.41,1.41
	c-0.72,0.68-1.47,1.3-2.32,1.72c-3.68,1.84-33.51-0.61-36.53-3.33c-0.71-0.64-1.31-1.42-1.87-2.23c-0.79-0.27-1.55-0.58-2.2-1.03
	c-1.74-1.21-16.03-28.91-16-30.89c4.72-3.73,4.75-5.81-1.58-4.73c-4.69-10.43-8.21-21.15-10.56-32.16c5.81-6.85,5.47-9.61-1.03-8.29
	l-1.86-2.48c-1.71-11.25-2.42-22.48-2.12-33.69c3.26,2.69,6.05-7.31,0.86-5.82c-0.99-11.6,0.14-23.23,3.4-34.9l4.61-0.74
	c-3.51-13.56,2.17-27.23,7.65-39.73c6.79-0.04,8.92-1.66,5.41-7.8l8.57-14.88c0.59-2.3,1.71-2.9,3.93-3.4
	c3.97,0.1,9.16-0.24,10.55-3.84l4.68-12.14c1.7-4.4,9.04-5.49,11.01-9.86c2.14-4.75-1.13-9.13-4.12-15.99l26.47-3.1
	C891.92,1029.04,896.48,1034.14,904.05,1036.67z"/>
<path class="st12" d="M952.08,1032.52l4.75,2.72c9.36,11.06,15.94,23.12,19.75,36.17c0.22,4.53,1.53,9.02,3.92,13.47
	c5.82,4.2,6.97,11.07,7.98,17.69c6.9,45.2,10.12,93.99,1.01,138.59c-3.62,4.52-4.22,8.42-1.8,11.7
	c-1.87,11.93-5.3,23.44-10.28,34.53l-3.76,2.28c-0.1,1.04-0.39,2.49-1.18,2.62c-7.54,1.24-31.58,1.06-39.61,0.27l-1.95-2.67
	l-1.48-32.12l1.41-2.87c3.87,0.67,3.25-0.96-1.88-4.9c0.96-1.62,1.06-3.59,0.29-5.92l-1.16-29.25c-0.65-2.21,0.78-3.31,4.27-3.28
	l-0.12-1.81c-2.3,0.27-3.55-1.96-3.73-6.69l-0.66-29.94c-1.76-3.22,0.61-3.58,3.74-3.32c0.11-1.76-0.97-3.23-3.25-4.39l-0.2-5.6
	l-0.15-27.01c-0.44-1.99,0.84-3.46,3.84-4.41l0.15-1.32c-4.05-1.44-5.24-3.78-3.57-7.02l1.07-26.95l1.72-2.69
	c2.49,1.14,3.5,0.06,3.03-3.23c-3.88-1-4.97-3.13-3.28-6.37l1.34-38.87c6.64-0.22,12.24-4.41,13.6-11.84
	C948.69,1029.54,950.09,1031.96,952.08,1032.52z"/>
<path class="st14" d="M807.53,1066.22c-12.45,11.93-22.96,28.79-28.14,45.26c0.91,4.44-0.29,7.17-3.62,8.2l-0.08,3.5
	c-2.99,1.45-3.55,2.58-1.67,3.41c-7.7,25.58-4.67,52.32-2.17,78.68l3.24,2.31c-2.09,5.24-0.64,8.49,4.32,9.76
	c-2.05,13.1,18.04,36.89,22.77,45.55l-1.78,2.47c-12.51,0.73-27.35,2.06-38.97,6.92c-5.98,2.5-8.37,4.23-10.07,10.79l2.66,2.83
	c-0.15,23.58-0.22,35.37-0.22,35.37l-2.69,1.9c-0.27,1.01-0.79,2.51-1.54,2.49c-2.38-0.05-23.33-2.61-24.31-3.34
	c-0.94-0.7-1.33-1.8-1.53-2.91l22.1-139.71l-0.76-1.73c2.16-2.72,5.25-5.02,9.28-6.9c3.07-1.73,2.64-4.16-1.29-7.29
	c0,0,0.84-8.69,2.51-26.07c-1.03-3.98-0.61-6.94,1.26-8.88c14.87-14.87-55.01-16.33-60.36-17.18c7.06-17.97,12.54-36.13,14.3-56.47
	c22.04-4.52,40.34-14.82,58.16-26.59c-2.03,4.3-2.57,9.1,0.28,13.42c2.09,3.17,9.72,3.14,13.08,5.27
	c1.49,5.72-0.33,12.76,4.72,16.28c6.11,4.27,12.26,3.51,17.88-1.51C806.24,1060.96,807.42,1065.24,807.53,1066.22z"/>
<path class="st15" d="M939.64,1007.2c-5.65,1.74-11.06,1.28-15.03-2.13c-3.56-3.06-5.54-8.17-2.89-12.9
	c2.51-4.47,6.74-8.02,12.58-8.51c6.3-0.53,13.86,2.72,15.4,8.29C951.53,998.54,946.34,1005.13,939.64,1007.2z"/>
<path class="st11" d="M1036.57,1027.24c-3.69,7.14-12.28,4.22-17.72,0.85c-4.95-3.06-10.18-9.86-6.89-16.36
	c3.39-6.72,12.24-5.61,17.9-2.7C1035.91,1012.14,1040.82,1019.01,1036.57,1027.24z"/>
<path class="st15" d="M821.47,1043c-7.53,1.11-14.01-2.99-14.09-9.67c-0.08-6.56,5.26-11.5,12.25-12.03
	c6.4-0.49,12.51,2.93,13.7,9.23C834.5,1036.74,828.85,1041.91,821.47,1043z"/>
<path class="st15" d="M877.28,992.02c-6.78,2.5-9.36-5.17-8.08-10.21c0.85-3.36,5.63-9.1,9.1-6.9
	C880.27,981.48,884.95,989.19,877.28,992.02z"/>
<path class="st6" d="M913.31,1033.44c-7.68,7.53-14.49,16.26-22.88,22.98c3.57-7.18,8.01-13.6,13.62-19.75L913.31,1033.44z"/>
<path class="st6" d="M890.43,1056.42c-3.17,6.36-5.43,11.83-3.64,17.04c-6.98,9.82-17.91,22.7-16.59,38.18
	c2.28-1.12,3.39-1.54,5.02-1.87c1.11-0.22,1.45,1.19,0.99,1.86l-2.44,3.55l-2.01,4.92c-0.5,1.22-1.85-1.5-4.57-2
	c-0.8,10.62-4.1,21.3-2.9,32.17c0.29,2.62,5.4,3.37,4.29,6.08c-1.57,3.82,0.05,7.66-4.4,6.72c-5.15,11.98,0.27,26.88,2.51,36.05
	c2.75,11.24-6.34,29.99,6.2,40.77c3.76-4.36,6.82,10.73,0.84,8.98c0.93,14.18,8.64,26.65,13,40.86c-0.06,3.53-3.3,3.31-3.99-0.11
	l-12.84-38.27c-10.54,7.27-1.65-1.41-2.45-3.15c-2.02-4.45-7.13-2.42-13.12-6.25l14.4,0.44c-7.31-10.2-1.32-26.76-11.09-34.55
	c1.45-3.59,2.8-5.72-2.63-8.78c9.83-2.83,8.55-32.79-1.5-35.74c6.68-2.31,2.57-6.22,3.08-8.7c8.77-7.8,4.86-25.48,7.11-35.18
	c-10.84-1.69,2.06-1.53-0.11-6.33c-0.81-1.79-8.15-7.75,2.17-2.61l10.82-32.86c-22.32,0.95-1.77-2.04-1.07-3.68
	c1.1-2.54-6.01-10.37-0.62-2.9c-5.39-10.9,1.83-0.38,4.66-0.56C883.21,1064.6,886.1,1059.88,890.43,1056.42z"/>
<path class="st6" d="M842.02,1285.79c-2.09,3.14-3.3,3.03-4.81-0.44c-6.27-12.87-13.03-34.86-28.55-36.23
	c4.23-2.53,5.67,2.08,12.49-0.92c-9.9-6.66-2.36-29.61-16.13-28.55c5.55-5.56,3.9-6.34-2.54-10.39c12.84-6.82-3.06-24.1,3.43-35.81
	c-6.29-1.28-6.33,2.06-10.94,1.62c3.08-4.43,10.65-2.51,6.9-7.78c-1.33-1.86-7.67-6.04,2.59-2.24l4.32-32.33
	c-25.69,4.05-0.55-0.82-1.51-3.92c-1.62-5.26-3.02-2.7-5.91-8.37l9.03,5.65l10.38-34.57c-13.43-1.83-0.19-2.82,0.71-4.46
	c2.06-3.76-4.29-5.46-2.71-9.82c2.27,1.47,4.02,5.14,7.56,6.87c4.17-5.47,6.11-11.73,10.83-15.44l-6.9,15.27
	c6.38,1.91,2.59,3.64,1.57,6.93c-1.24,4.02-4.23,2.05-7.26,2.51c-18.8,29.28,3.31,41.77-12.3,40.3c-3.01,9.47-4.69,21.32-3.49,31.63
	l4.88-2.09c2.03-0.87-4.55,22.25-6.11,9.71c-0.41,11.32,0.88,23.42,4.23,34.22c14.62-8.27,0.59,10.05,8.49,10.14
	c-1.82-0.02-3.62-1.54-5.96-1.22c-0.33,10.03,4.19,21.78,9.01,31.21c1.5,1.28,4.39-7.26,4.86-4.16c2.46,16.14,7.23,8.36-2.43,11.2
	C829.97,1265.51,836.61,1275.37,842.02,1285.79z"/>
<path class="st6" d="M1048.83,1054c10.09,7.17,17.64,16.81,24.43,26.65c7.12-7.55,4.19,6.8,4.61,7.71c4.38,9.49,10.17,19.71,13,30.5
	c3.8-0.43,4.87-3.63,7.73-2.54c-0.93,2.86-4.91,5.55-3.47,6.84c1.83,1.64,4.56,1.59,8.11,3.68c-2.88,2.4-7.49-1.62-8.89,1.81
	c-0.42,11,5.57,25.49,4.58,34.18c-1.77,15.41-3.26,37.36-5.47,50.32c-1.24,7.28-14.9,15.89-9.94,28.14c1.6,0.04,7.23-0.85,10.7,1.27
	c-13.17-0.99-22.07,9.46-26.6,21.5c-1.48,0.63-2.2,2.65-2.74,3.88c1.46,2.24-4.81,11.81-6.39,12.55
	c-20.38,9.5-54.86,11.13-77.96,11.66c-2.49,0.06-4.79-1.21-6.87-2.44c4.79-12.51,10.23-24.65,11.61-38.62
	c-2.89-0.45-3.46,0.22-7.77,0.12c14.71-8.85,11.2-25.55,13.12-38.27c4.68-31.05,0.36-68.32-3.76-97.79
	c-1.06-7.57,0.17-25.7-10.36-29.28c3.35-3.44-2.56-6.1-2.39-9.61c0.77-15.94-13.87-29.01-22.02-43.71
	c4.71,1.33,10.64,2.17,14.96-0.4c4.9-2.92,5.43-9.04,5.32-15.47c17.98,2.67-0.41,14.55,25.39,19.11c0.22,5.9-0.27,13.66,4.56,17.04
	c5.69,3.98,13.07-0.2,18.02-0.89c3.32,3.68,6.34,11.87,13,11.99C1039.98,1064.03,1046.52,1060.64,1048.83,1054z"/>
<path class="st11" d="M805.25,1267.99c7.78,11.18,18.59,15.81,31.96,17.36c1.55,0.18,3.3,0.1,4.81,0.44
	c13.23,3,27.12,3.47,40.72,3.84l3.99,0.11c14.7,0.4,29.46,0.25,44.17,0.18l42.74-0.22c27.25-0.14,55.01-2.71,81.83-10.06
	c4.16-3.55,5.68-9.14,9.39-11.71c10.95,1.32,22.85,2.41,33.48,9.74c-21.89,16.14-133.06,17.81-160.76,17.77l-2.61,2.67
	c-42.24,0.68-89.69-0.93-131.56-7.24c-9.86-1.48-20.29-3.26-29.75-6.29c-15.1-4.85-18.37-8.52-0.96-14.87
	c5.4-1.97,27.27-6.55,30.96-3.57C804.29,1266.65,804.79,1267.3,805.25,1267.99z"/>
<path class="st8" d="M936.25,1304.44l-0.21,59.03c0.43,1.17,0.06,1.56-1.11,1.16c-0.43,0.97-1.09,2.36-2.03,2.63
	c-2.33,0.67-22.62-0.32-26.43-0.66c-4.77,0.77-7.83-0.2-9.18-2.91c-6.03-8.27-4.62-22.26-13.28-25.84
	c-3.21,8.24-5.96,16.86-8.47,25.41l-2.02,2.6l-25.78-1.07l-2.67-2.79c-0.93,0.5-2.4,1.12-2.89,0.55
	c-6.92-8.18-13.58-19.53-18.83-28.86l-1.44,0.52c1.45,7.33,2.09,14.7,1.92,22.12l-2.74,1.81c-1.13,0.58-2.28,1.11-3.48,1.45
	c-1.16,0.33-2.29,0.61-3.39,0.52c-12.56-0.99-28.31-2.87-38.85-8.97c-1.43,1.97-2.65,1.93-4.63,1.69
	c-3.26-0.39-18.62-6.79-20.43-8.94c-1.39-1.66-3.58-13.86,0.61-14.21c-3.84-1.36-3.62-5.37,0.23-6.52l0.25-40.1l3.5-1.37
	c8.87,3.59,18.25,5.93,27.69,7.82c49.18,9.82,101.05,11.27,150.89,12.28L936.25,1304.44z"/>
<path class="st13" d="M926.6,1447.6c-3.54,3.17-9.2,9.47-11.94,13.31c-1.15-15.54-1.87-31.41-5.13-46.71
	c1.72-8,5.66-19.64,9.78-26.85l3.59-1.33l-1.46-2.95l7.99-11.95c1.11-3.69,2.94-5.85,5.49-6.48c0.18-0.4,0.84-0.77,1.11-1.16
	l22.5-31.88L926.6,1447.6z"/>
<path class="st13" d="M1063.72,1416.95c-13.07,6.25-23.67,16.25-36.71,23.85l-61.51,35.86c2.46-9.73,8.91-15.24,13.28-20.9
	C1007.09,1439.57,1036.91,1420.08,1063.72,1416.95z"/>
<path class="st1" d="M802.21,1262.88c2.08,0.76,2.02,3.65,3.04,5.11c-14.02-0.65-29.4,1.65-42.94,9.33
	c33.89,17.25,137.61,18.06,175.27,18.12c-1.04,2.87-1.33,5.95-1.34,9c-40.54,0.33-149.05-4.48-184.86-21.38
	C741.43,1267.22,794.84,1262.13,802.21,1262.88z"/>
<path class="st4" d="M515.76,1343.21l9.82,55.86c10.42,5.34,21.53,7.68,32.47,9.01c11.21,3.14,22.77,4.11,34.33,4.95
	c47.39,3.42,96.24,3.62,144.41,2.99c3.21-0.04,6.33,0.96,9.35,1.99l4.55,3.04c3.35,5.03,15.39,26.32,15.04,30.35
	c-0.09,0.99-0.35,1.97-0.67,2.95c-4.14,0.75-8.64,0.4-13.48-1.04c5.51,0.42,10.46,1.69,14.84,3.8c5.29-2.17,12.95,13.08,11.3,16.21
	c-1.76,3.34-14.8-3.5-18-5.25c-0.3-0.16-0.35-0.77-0.33-1.51c-25.1-9.55-51.09-19.12-78.23-29.43l8.33,13.06
	c-7.72-1.38-15.58,3.33-23.91,2l-49.04-7.83l-44.27,16.9c-58.51-4.23-116.31-6.18-172.98,2.57l-4.68-0.98
	c-5.16-4.3-26.48-24.97-27.3-29.55c-0.24-1.3,4.5-19.4,5.58-22.54l3.27-3.35c28.07-8.46,50.2-31.74,60.2-59.89l1.86-2.75
	c25.26-1.42,50.53-2.81,75.81-4.17L515.76,1343.21z"/>
<path class="st4" d="M353.77,1414.19l2.71,1.09l-0.04,13.33c12.63,10.37,24.07,21.62,34.31,33.75l0.05,2.85
	c-20.54,1.85-41.6,4.84-61.36,10.55c-1.64-1.07-3.43-2.28-4.24-4.13c-2.78-6.3-10.92-40.3-10-45.56
	c0.5-2.88,14.24-10.75,18.06-11.45C339.41,1413.69,347.82,1415.98,353.77,1414.19z"/>
<path class="st12" d="M376.15,1407.44c-1.18,8.25-3.66,16.9-6.4,25.45c8.69,11.82,19.97,20.84,29.55,30.95
	c9.03,9.53,14.86,18.1,31.08,13.74c5.69-1.53,16.05,0.06,19.37,6.8c-5.41,0.5-11.03-2.75-17.29,0.11c3.96,2.96,9.61,3.54,11.92,9.32
	l-36.46-9.43l-26.56,0.03c3.26-7.73,11.87-5.42,19.12-7.07c0.04-6.15-6.71-8.5-9.69-12.15c-10.58-12.98-24.49-22.85-36.63-35.46
	l-0.39-15.55L376.15,1407.44z"/>
<path class="st12" d="M314.76,1412.89c5.78,1.22,12.47,2.61,18.49,1.72c-4.34,4.7-9.79,7.81-15.79,12.15
	c3.59,16.75,6.32,33.42,11.97,48.99c1.12,3.08,0.4,7.03,3.35,8.63c10.34,5.6,30.94-5.56,36.65,9.73
	c-5.46-1.34-10.44-3.98-16.11-1.82c2.72,4.24,8.26,2.83,10.94,8.58c-25.65-2.63-32.39-13.84-62.06-8.43
	c3.64-15.53,29.37,0.98,19.23-15.52l-2.89-0.58c-4.65-19.44-9.31-38.89-13.96-58.35l2.23-2.18
	C309.1,1415.06,311.79,1414.4,314.76,1412.89z"/>
<path class="st3" d="M314.99,1359.34c-1.15,6.91-7.94,9.93-12.32,16.62c11.62-1.54,21.41-7.79,33.14-12.48l-7.99,12.06
	c10.23-2.47,18.05-7.85,26.74-11.73c-0.82,4.45-4.54,5.29-4.57,9.29c13.6-5.72,25.66-12.29,37.91-20.73
	c-18.54,28.88-39.34,29.82-70.51,35.68c0.89-3.03,2.96-2.91,2.73-4.62c-8.42,1.34-16.1,5.28-26.46,4.95
	c-0.4-2.78,3.5-4.18,4.35-7.07c-7.13-0.28-14.89,3.18-21.32-0.77C289.05,1371.19,301.54,1366.77,314.99,1359.34z"/>
<path class="st4" d="M259.83,1361.77c-1.9,2.48-3.91,7.69-5.34,10.77c-56.49,19.62-112.91,39.99-167.22,66
	c-18.95,9.07-37.47,19.15-50.51,35.49c9.28,5.51,15.72-1.91,24-0.41c-4.42,6.62-12.26,9.42-11.68,17.49
	c13.76,0.55,25.34-6.09,37.98-9.79l-4.8,6.72c-23.86,33.43,158.36-81.18,157.34-79.38l16.34,0.24c-3.35,7.09-3.93,15.85-7.42,25.31
	c20.42-3.84,38.38-11.9,58.28-18.39l14.62,61.1c-57.52,8.61-115.35,11.33-173.97,16.94c-26.1,2.5-51.94,3.36-77.3,13.71
	c14.72,8.59,30.82,6.99,46.53,5.87l164.36-11.73c20-1.43,35.17,2.35,54.65,4.06c75.19,6.59,151.81-0.21,225.86-12.76
	c13.11-2.22,22.21-7.7,30.3-16.92c35.22-6.65,69.6-10.81,102.93-20.34c12.68,12.37,24.18,26.06,37.79,37.35
	c-41.11-13.11-41.18-20.37-79.11,9.49l-107.47,15.25l123.64,25.02H333.48l17.59-6.17l-217.77,0.17
	c-12.17,0.01-23.25,4.39-34.19,5.99H0v-129.91l148.07-13.31c-36.12-5.16-72.11-8.23-108.49-10.05c-14.81-0.74-26.6,9.02-39.58,12.65
	v-70.98L259.83,1361.77z"/>
<path class="st13" d="M802.33,1470.69c5.42,9.72,6.64,22.13,11.78,31.93c-7-5.16-49.98-32.33-55.39-33.49
	c-1.17-0.25,0.06-1.75,0.67-2.56l16.96,6.45c-2.79-6.23-5.74-11.79-9.93-15.91c-2.18-0.8-2.64-1.72-1.37-2.76
	c-5.28-12.57-12.93-24.15-18.93-36.34c-6.42-3.23-10.84-15.58-8.42-22.29l3.52,0.71C765.28,1416.8,787.3,1442.93,802.33,1470.69z"/>
<path class="st5" d="M777.8,1363.49c5.04,5.22,6.76,14.38,4.29,21.17c-12.66-11.04,10.18,42.24,6.88,42.89l-2.57,1.44
	c-16.16-11.39-32.04-23.16-47.64-35.3l-1.04,2.03c2.31,7.41,5.02,15.39,8.42,22.29c-38.25,3.24-76.13,1.35-115.26-0.83
	c-25.32-1.41-50.93,0.29-72.82-9.1c24.58,2.98,49.36,2.92,74,2.24c25.88-0.72,52.05-1.54,77.66-11.43
	c3.33-11.35,4.85-22.77,6.9-34.01l1.17-2.71c19.45-0.44,38.9-0.89,58.36-1.33L777.8,1363.49z"/>
<path class="st13" d="M856.84,1447.55c-1.38,7.48-1.24,16.54-3.36,23.54c-10.22-13.4-15.56-30.8-27.06-42.26l-3.25-6.27
	c-1.46-16.4-2.92-32.79-4.39-49.19l2.53-1.8c-4.35-1.53-4.45-11.69-0.22-13.42l0.82-23.93l1.65-0.26
	c11.76,33.92,22.7,68.26,32.83,103.02L856.84,1447.55z"/>
<path class="st7" d="M821.3,1371.56l5.11,57.27l-44.32-44.17c-1.72-7-2.97-14.09-4.29-21.17c-3.58-0.76-3.22-2.07,0.37-2.69
	l5.27-1.19l20.15,5.83C810.58,1366.08,816.49,1368.12,821.3,1371.56z"/>
<path class="st12" d="M845.06,1362c4.6,2.11,10.32,12.49,8.19,17.3c6.8,3.74,10.75,15.28,11.95,22.99l-8.36,45.26L821.9,1334.2
	c0.05-1.38-0.88-3.22,0.52-4.62L845.06,1362z"/>
<path class="st12" d="M788.96,1427.55l13.36,43.14c-19.83-25.92-40.46-54.13-64.62-74.97c-1.15-2.2-3.67-4.38-3.15-7.65
	L788.96,1427.55z"/>
<path class="st11" d="M875.53,1363.26c-1.7,5.81-3.81,11.91-5.22,17.77l-1.43,2.55c-6.59,0.4-11.8-1.03-15.63-4.28
	c-2.8-5.54-6.43-11.31-8.19-17.3L875.53,1363.26z"/>
<path class="st7" d="M870.31,1381.04l-5.11,21.25c-5.18-6.9-8.09-15.34-11.95-22.99L870.31,1381.04z"/>
<path class="st11" d="M934.93,1364.63c-1.56,8.11-8.51,14.27-12.03,21.38c-5,3.56-15.53,2.67-20.22-1.22
	c-1.04-6.79-5.54-14.02-5.4-21.11L934.93,1364.63z"/>
<path class="st14" d="M922.9,1386.02c-4.57,9.21-7.13,19.91-13.37,28.18c-2.08-9.78-5.32-19.39-6.85-29.4
	C909.43,1384.63,916.18,1385.37,922.9,1386.02z"/>
<path class="st11" d="M680.36,1134.06l13.58-17.42c17.03,2.18,35.46,0.22,51.76,8.68C723.01,1132,701.49,1133.08,680.36,1134.06z"/>
<path class="st7" d="M756.85,1128.84c3.03,3.67,0.78,36.54-1.89,34.63c1.04,0.74,4.75,2.01,4.44,4.77
	c-0.6,5.5-9.82,7.81-13.55,11.46c-37.1,6.3-75.79,9.2-113.58,9.36l-0.21-46.24C673.92,1141.32,716.93,1141.66,756.85,1128.84z"/>
<path class="st5" d="M467.33,1276.24l0.51,40.42c9.67,2.97,18.58,4.43,27.5,4c2.98,0.28,6.21,2.29,9.67,1.18
	c1.27-4.14,6.37-2.47,7.27,1.02l3.49,20.35l-79.4,4.33c8.08-22.73,5.59-46.78,8.53-70.25
	C449.82,1272.32,461.84,1271.96,467.33,1276.24z"/>
<path class="st4" d="M467.37,1268.46c-0.12,2.49-0.07,5.3-0.04,7.78c-7.48-0.03-15.02,0.05-22.44,1.06
	c0.59-4.74,0.97-7.21,2.56-11.53C454.04,1266.92,460.68,1268.15,467.37,1268.46z"/>
<path class="st12" d="M512.27,1322.86c-2.2,0.88-5.3-1.65-7.27-1.02c-0.1-14.75-2.92-29.79-0.29-44.08L512.27,1322.86z"/>
<path class="st4" d="M750.91,1329.68c0.11,4.06,0.58,7.71,1.33,12.7c7.48,3.42,15.25,7.38,23.11,8.76c3.59,1.05,4.2,6.45,2.82,9.66
	c0.08,0.86-0.53,1.85-0.37,2.69l-61.19,1.4c2.03-11.13,2.03-22.77,5.39-33.74l1.08-2.51c8.55-0.69,17.14-1.21,25.76-1.54
	L750.91,1329.68z"/>
<path class="st5" d="M751.14,1323.16c-0.01,2.12-0.29,4.42-0.23,6.52l-28.91,1.47c1.04-3.38,1.19-8.15,1.76-11.74L751.14,1323.16z"
	/>
<path class="st6" d="M929.45,1093.11c-1.9,0.7-5.72,0.11-7.96,0.65c2.03-2.44,7.66-2.55,5.23-5.16l-5.31-5.7l6.21,2.08
	c0.95,0.32,3.25-2.95,3.29-4.16c0.34,3.51,5.32,3.32,5.78,5.07c0.4,1.56-0.08,5.55-0.3,7.33
	C936.2,1094.81,930.96,1092.55,929.45,1093.11z"/>
<path class="st6" d="M927.97,1132.81l-9.06,0.96c2.68-2.58,5.38-2.41,6.49-4.06c1.29-1.92-2.87-3.59-2.37-5.36
	c0.82-1.02,3.91-0.01,4.81-1.43c0.43-0.68,0.6-1.81,0.53-2.87c6.72,12.62,9.25-10.26,5.94,9.04
	C934.01,1130.94,929.71,1132.63,927.97,1132.81z"/>
<path class="st6" d="M928.07,1214.86c-2.08,1.22-5.14,0.35-7.65,2.09c2.44-3.01,6.47-3.48,5.62-5.95c-0.61-1.76-4.23-2.15-4.57-5.29
	c2.39-0.66,4.41,2.89,5.75,1.9c1.14-0.84,1.3-3.48,1.27-4.53c3.04-0.42,0.42,5.57,4.02,3.95c1.08-0.49,1.54-1.65,4.36-1.71
	c-3.98,3.83-0.55,8.29-1.66,9.55C934.13,1216.1,930.09,1213.67,928.07,1214.86z"/>
<path class="st6" d="M927.84,1173.14c-11.85,27.04,0.26-18.74,0.29-13.32c1.65,0.7,1.52,3.43,3.19,5.16
	c0.86,0.9,2.16-2.77,4.52-1.29c-3.7,4.01-0.79,6.93-0.46,8.6C935.66,1173.83,928.62,1171.36,927.84,1173.14z"/>
<path class="st6" d="M929.42,1257.79c-1.59,0.58-3.56,0.36-5.11,1.2l-1.62-0.17c0.97-1.32,3.79-2,4.05-3.32
	c0.43-2.16-2.21-2.69-3.06-5.56c2.18-0.43,4.47,0.96,4.93-0.83c0.53-2.04,0.5-3.54,0.62-5.01l2.98,6.65
	c5.54-3.22,3.47,2.34,3.64,5.06C936.01,1258.63,931.33,1257.1,929.42,1257.79z"/>
<path class="st12" d="M924.31,1258.99c-1.74,0.94-3.12,3.74-5.63,2.03c1.19-1.09,3.02-0.85,4-2.19L924.31,1258.99z"/>
<path class="st6" d="M779.44,1217.32c-3.31,2.06-3.69,7.3-7.49,8.85c-0.22-3.82,3.71-7.74,2.02-9.24
	c-3.06-2.72-3.28-0.68-13.32-2.59l6.74-1.62c7.49-1.8,4.75-4.6,4.48-7.46c3.2,3.03,7.42-1.1,8.43,2.4
	C781.73,1212.57,783.31,1214.92,779.44,1217.32z"/>
<path class="st6" d="M779.4,1111.48c-0.81,6.06,5.25,4.87,3.87,9.88c-1.88,6.85-3.13,5.4-9.23,5.22c-3.34-0.1-6.64,2.08-10.83,0.53
	l11.13-5.07l-10.81-11.57c3.02,1.03,8.67,6.31,11.26,6.54C776.6,1117.18,778.81,1113.34,779.4,1111.48z"/>
<path class="st11" d="M821.08,1358.14c-0.14,4.16-0.14,9.31,0.22,13.42c-14.75-1.75-28.94-6.46-43.13-10.77
	c-2.5-2.54-2.75-6.23-2.82-9.66C790.54,1353.8,805.75,1356.73,821.08,1358.14z"/>
<path class="st8" d="M507.19,1412.82l-63.76-1.96c4.83-11.8,16.36-15.83,26.48-20.95C482.62,1397.42,494.23,1402.91,507.19,1412.82z
	"/>
<path class="st5" d="M765.06,1454.35c0.34,0.82,1.2,1.88,1.37,2.76l-44.81-7.49C736.93,1448.46,750.97,1452.13,765.06,1454.35z"/>
<g>
</g>
<g>
</g>
<g>
</g>
<g>
</g>
<g>
</g>
<g>
</g>
<g>
</g>
<g>
</g>
<g>
</g>
<g>
</g>
<g>
</g>
<g>
</g>
<g>
</g>
<g>
</g>
<g>
</g>
</svg>
