<?xml version='1.0' encoding='UTF-8'?>
<svg xmlns="http://www.w3.org/2000/svg" version="1.1" id="Layer_1" x="0px" y="0px" viewBox="0 0 1200 1800" style="enable-background:new 0 0 1200 1800;" xml:space="preserve">
<style type="text/css">
	.st0{fill:#09182F;}
	.st1{fill:#0946A9;}
	.st2{fill:#FFFFFF;}
	.st3{fill:#7AB1E0;}
	.st4{fill:#4992DD;}
	.st5{fill:#556D97;}
	.st6{fill:#EECA94;}
	.st7{fill:#5C291D;}
	.st8{fill:#8F3B16;}
	.st9{fill:#062179;}
</style>
<path class="st0" d="M1120.18,527.91c-0.73,1.86-3.42,5.18-5.72,5.63c-1.01,1.51-3.01,0.82-2.23,0.45c0.81-0.39,1.7,0.14,2.31,0.86  c1.91-2.45,4.21-5.09,6.77-6.87c3.54-5.92,9.28,0.8,3.91,5.81l-7.73,8.27c2.2,0.21,3.59,0.84,4.82,2.8l5.5-4.16  c5.34-1.4,7.48,3.16,3.15,5.48l0.73,2.27c-2.38,4.74-3.62,9.9-3.72,15.46c9.37-3.22,7.8,3.31,5.32,9.56l-5.41,9.89  c9.64-9.09,13.98-1.34,10.09,8.16c-1.58,3.87-5.29,11.04-8.97,6.52c-0.99,0.67-1.28,1.33-0.86,1.97c2.08-1.35,3.35,0.33,3.26,2.63  c-0.25,5.81-17,11.07-20.19,3.26c0.29,2.93,1.91,5.13,4.39,6.65c5.9,1.3,5.82,5.11-0.24,11.43l8.04-8.36  c2.54-2.76,5.29-4.48,7.81-0.78c2.78-4.06,11.81-12.58,13.82-4.72l-7.03,16.14c3.08,0.09,4.4,2.41,5.01,5.2  c2.86-4.26,8.42-10.06,12.91-5.05c2.4-3.17,5.92-3.98,6.97,0.37c13.36-4.58,7.74,4.45,3.2,10.98c0.13,4.83-1.52,6.96-4.93,6.4  c2.97,3.73,2.9,6.25-0.22,7.54c-4.83,0.48-9.56,0.72-14.22,0.73l2.9,5.91c0.13,4.72-2.5,4.43-6.26,2.78  c1.49,6.17-7.55,5.87-11.96,5.14c-4.46-0.74-13.44-4.51-11.08-9.51c-1.3-2.7-4.33-3.78-2.78-0.1c1.4,0.59,2.52,1.95,3.36,4.08  c3.04,4.07,7.29,6.95,12.76,8.65c3.99,2,5.09,5.48,5.85,9.56c3.17-2.55,5.91-4.52,8.76-0.58c1.07,1.48,0.95,4.92-1.3,5.16  l-1.68,3.02l1.11,1.13c8.2-4.75,14.99-10.8,20.37-18.15c5.69-4.35,6.02,4.04,5.09,8.5c2.26-2.59,8.96-7.9,11.48-3.46  c2.86,5.05-11.47,16-15.47,18.22c6.5,0.36,13.01,0.01,19.53-1.05c7.61,1.74,0.01,9.05-3.3,11.7c1.24,2.72,0.89,4.5-1.06,5.35  l-22.99,4.02c5.73,10.76,1.67,12.58-12.15,5.45l0.11,4.36c11.18,4.28,5.42,18.19,1.15,25.9c9.77-3.06,18.34-9.03,25.9-15.83  c4.59-1.49,4.91,2.74,3.36,6.36l11.92-8.98c4.18-0.32,3.87,3.5,2.69,6.71c2.78-2.69,5.1-3.35,6.96-1.98v11.1  c-0.57,4.3-1.79,7.15-5.99,8.9c5.78-0.35,5.63,4.03,5.46,8.72c-2.54-1-5.15-1.55-7.82-1.65c13.14,10.96-1.49,13.54-10.86,8.02  c-1.8,6.61-7.31,5.84-12.38,3.51c2.18,10.22-2.53,10.09-9.8,4.66c-1.71,3.55-4.04,5.87-6.97,6.96c-3.52-0.34-6.24,0.34-8.18,2.04  l2.8,0.89l3.27-2.16c15.85-0.2,31.4-2.16,46.67-5.9l3.82,0.77v12.31c-0.46,0.63-0.46,1.27,0,1.92v11.58  c-0.81,1.71-2.66,1.83-5.57,0.34c7.29,6.36-4.88,8.04-10.08,6.82c7.46,3.27,8.04,9.15-1.24,8.33c4.2,2.54,6.3,3.81,6.3,3.81  c2.87-2.27,7.61-5.8,10.59-2.62v4.38c-0.98,2.24-1.28,3.64,0,4.8v22.29c-0.89,3.06-2.75,5.91-5.92,6.94  c3.58-0.06,5.55,1.02,5.92,3.25v13.02c-0.63,0.79-0.63,1.68,0,2.68v41.44l-2.46,0.11c-2.9-3.45-5.28-4.57-7.13-3.37l1.01,1.03  c0.91,0.08,0.89,0.37,0.04,0.84l2.78,2.75c0.39-0.79,0.71-0.76,0.96,0.08c1.59,0.5,3.19,0.87,4.8,1.12v747.31  c-0.08,0.77-0.38,1.92-0.92,1.92c-111.93,0.55-227.81,0.46-339.78-0.26l-1.19-1.92c5.74-5.47,12.66-9.63,20.76-12.48  c29.94-12.76,60.47-23.87,91.59-33.33c33.48-11.39,61.85-38.72,81.72-67.12c7.73-11.04,12.82-18.84,7.22-31.93  c-5.18-12.11-13.33-20.38-25.47-25.32l-28.53-7.31c-1.54-1.61-2.32-2.62-0.6-4.18l8.98-3.06c8.89-5.3,16.64-12.25,23.26-20.85  l2.78-0.17c-0.2-2.45,0.86-4.96,3.16-7.54c2.46-7.78,4.3-15.78,5.5-24.01c0.4-2.54,1.62-3.81,3.65-3.8  c1.67-2.59,2.83-0.74,4.08,1.29c22.91-6.69,45.29-16.71,67.12-30.06c14.06-12,27.45-24.53,40.16-37.6  c4.42-7.15,7.25-15.04,8.51-23.68c-26.69,12.49-52.52,26.72-77.49,42.69c-3.18,2.33-5.18,1.44-5.73-1.81  c-0.56,2.97-1.85,4.94-3.88,5.91l-1.15,3.27l-33.73,25.72c-13.27,10.22-19.94,25.74-20.72,42.25l-2.05,2.69  c-3.2,5.23-9.2,0.32-5.47-5.14l3.78-21.2l-0.99-1c-1.51,1.82-2.43,1.41-2.8-1.04c2.08-27.59-0.74-55.52-9.37-81.87  c-3.08-9.39-10.9-30.37-17.21-37.06c-0.48-0.51-3.02-2.66-3.23-2.59c1.63,14.33,2.56,28.66,2.79,43l-1.15,3.19  c0.52,0.72,1,1.45,1.36,2.23c1.63,3.57,1.55,29.75,1.41,36.14c-0.04,1.66-0.79,3.21-1.54,4.66c0.52,0.66,1.01,1.44,1.46,2.35  c1.98,1.64,3.69,7.8,1.17,9.55c0.76,0.01,1.91,0.15,1.99,0.67c0.53,3.27,3.61,27.4,2.77,28.57c-1,1.38-2.36,1.32-3.94,0.77  c-4.18-10.65-4.76-8.64-1.75,6.02c-2.09,4.05-4.5,2.35-7.24-5.09c0.66,6.4-1.12,7.24-5.38,2.11c0.72,2.58,0.02,3.59-2.33,4.62  l-127.88-26.81l-7.04-3.44l-1.05,1.74c-41.01-8.65-81.97-17.5-122.88-26.57l-0.79-1.88l-0.99-0.18c-0.53,1.81-1.31,1.67-1.84-0.1  l-1.16-0.74c-0.4,1.13-0.9,0.74-1.75,0.03l-1.93,0.98l-13.48-4.27l-1.08,1.72c-62.77-14.73-94.16-22.09-94.16-22.09l-0.69-2.13  l-1.39-2.33c-1.25-15.34-3.21-30.6-5.9-45.78c-5.03,21.09-13.87-6.91-14.79-15.43l-0.7,20.83c-0.72,2.35-1.31,3.34-3.67,2.52  c-7.02-2.44-14.74-20.2-12.47-27.87c4.75-17.87,6.19-35.79,4.31-53.76c-3.19-13.39-6.89-26.63-11.1-39.72l-0.59,13.63  c-1.58,2.08-2.31,2.96-4.33,1.09c-2.78-2.56-10.02-26.73-9.45-30.6c0.18-1.21,0.59-2.29,1.42-3.21c1.88,0.32,3.24,2.28,4.09,5.88  c0,0,2.24-1.07,6.73-3.2c2.69-8.8,5.92-17.32,9.69-25.56l2.49-0.07c1.76,0.84,2.62,2.76,2.58,5.77l1.29,3.58  c-0.44-6.54,1.14-9.32,4.73-8.35c1.6,0.27,2.61,1.58,3.03,3.9c2.78-0.59,4.54,1.34,5.27,5.78c1.39-3.17,2.22-6.51,2.49-10.03  l2.09-0.8c1.4-1.11,3.19-0.92,4.6,0.23c1.63-0.67,1.16,0.98,1.17,0.88c1.75-14.44,7.64-5.98,10.98,2.63  c0.66-3.18,1.83-5.46,3.49-6.83c1.71,0.76,2.56,1.15,2.56,1.15l3.89,19.51c-0.1-2.58,0.84-3.92,2.83-4.01l0.22-1.09  c-2.74-0.79-1.91-3.77,0.84-3.89l1.12,0.34c1.04,3.43,2.19,4.04,3.47,1.83c1.42-2.82,3.91-2.03,4.69,0.7  c1.48-0.12,1.49-0.96,0.01-2.53c-1.92,1.96-3.93-0.86-4.18-2.8c-0.53-4.23,2.18-7.07,4.34-3.28c0.16-1.96,9.66,4.09,9.14,3.95  c-2.5-0.68-8.29-4.4-9.06-6.74c-5.07,1.33-6.48-6.97-0.09-6.16c-3.45-5.29-1.75-8.58,4.46-7.21c3.61,0.42,3.58-1.28-0.09-5.08  c-3.16-4.3-3.24-7.15-0.25-8.55c2.74,1.6,5.24,2.17,7.51,1.73c-5.43-8.31-6.71-20.32,5.76-10.32c6.22-0.3,6.5-1.78,0.84-4.47  c-2.18-2.2-6.15-6.62-2.73-8.78c0.2-0.89,1.39-0.85,1.97-0.23c2.14,0.47,3.38,0.19,3.74-0.86c-1.28-1.54-0.79-2.29,1.13-1.72  c2.78,1.13,3.75,1.19,2.92,0.18c2.07-1.47,2.62-2.72,1.67-3.76c-1.11-0.3-1.68-1.2-1.69-2.71c-5.9-2.03-3.15-9.83,1.61-10.09  c0.26-1.18,0.94-1.69,2.02-1.33c-0.33,1.74,3.7,2.27,3.89,2.09c1.29-1.19,2.55-4.17-0.12-3.9c-1.2,1.81-1.92,1.84-2.15,0.1  c-0.96,1.64-2.76,2.2-5.39,1.67c-2.07,1.88-2.98,0.89-2.11-1.78c-3.16-0.36-2.75-2.23-0.71-4.53c-5.83-5.89-0.32-10.03,5.69-4.92  c-2.24-3.75-0.95-7.14,3.56-5.24c1.71-1.06,0.9-2.38-2.42-3.95c-6.97-5.43-7.39-18.05,3.05-8.04l1.58-0.64  c0.06-0.85,0.39-0.86,0.95-0.13c1.56-0.15,1.29-0.87-0.8-2.18c-0.52,0.76-0.9,0.7-1.13-0.2c-1.77-0.81-2.12-2.53-1.06-5.18  c-0.58-3.16-0.37-4.38,3.32-4.17c-4.48-2.85-1.31-9.24,1.79-11.92c2.57-8.31,3.91-17.06,4.01-26.23c0.22-3.75,1.14-8.59,5.12-4.84  c0.44,12.15,3.15,24,7.37,35.22l-1.41,1.85c-3.8,2.83-3.18,6.56,1.91,4.77c-1.7-1.01-1.24-2.55,0.52-3.26  c4.93-1.96,4.35,3.43,2.9,6.71c-0.2,1.18,0.96,7.27,1.33,7.39c5.5,1.72,4.09,9.9-0.1,12.15c-1.25-1.05-2.51-1.35-3.77-0.91  l-1.49,1.28c2.03,0.69,3.16,1.81,3.41,3.36c0.49,2.31,2.53,1.87,6.14-1.32c4.82-0.1,4.93,5.57,1.5,7.24  c3.26,2.51-0.49,4.94-3.18,6.43c4.23,2.36,2.7,7.13-2.03,6.71c0.66,1.56,0.17,2.48-1.46,3.23c0.38,0.58,0.73,0.65,1.04,0.2l0.2-2.21  c4.01-1.12,7.35-3.02,10.03-5.7l2.14,0.14c0.97-0.98,1.97-1.32,3.02-1.02c1.51-2.47,3.76-2.12,3.98,0.89  c0.85-0.82,1.9-0.82,3.16-0.01c0.47-7.64,3.59-6.48,9.02-3.57c-0.64-1.67-0.39-2.84,1.27-3.81c-0.67-0.9-0.11-1.32,1.69-1.26  c0.33-2.68,2.52-3.8,6.56-3.38c-9.86-1.4-17.36-2.67-21.43-12.84c-3.75-9.36,1.33-8.53,7.89-4.29c0.86-4.33,3.89-4.61,9.08-0.84  c5.54-2.87,9.11-4.52,15.19-5.88c0.9-0.2,0.88-0.65,0.07-1.21l-2,0.62c-0.91,2.1-5.03,2.64-5.59-0.13  c-0.75-0.84-0.49-1.76,0.77-2.74c-1.01-1.14-1.52-1.71-1.52-1.71c-6.55,0.41-7.79-0.33-5.82-6.72c-3.27,0.73-9.56,1.81-6.98-2.95  c-0.96-1.01-1.79-2.44-0.17-3.08c-2.44-0.1-2.62-0.45-1.72-2.73c-1.13-1.75-1.07-2.72,0.16-2.91c0.91-3.06,6.89-1.16,6.25,1.83  c1.59-2.7,3.26-3.7,5.02-3c0.39-0.82,0.71-0.8,0.96,0.08c0.74,0.97,1.78,1.62,3.1,1.95c1.71-2.22,4.32-1.56,5.54,0.79l6.72,1  c0.44-2.94,7.86-2.78,8.56,0.08l2.96-0.92c0.05-2.57,0.94-2.55,1.92-0.19l0.97-0.79c-0.93-2.5,0.72-3.45,2.86-1.74  c1.1-1.84,2.42-2.8,3.94-2.89c1.04-1.3,2.3-2.62,3.79-3.97c1.24-2.22,2.44-2.85,3.61-1.9l1.98-2.89c-0.61,0.84-1.15,0.84-1.64,0.01  l-3.94,4.77c-1.32,1.95-2.95,3.05-4.89,3.29c0.25,0.85-1.04,1.67-1.91,1.7c-1.46,0.65-2.99,1.32-4.61,2  c-1.47,0.19-2.96-0.21-4.5-1.19c-5.53,3.31-9.02,3.97-10.77-3.05c-5.65,2.08-12.6,2.03-17.62-1.7c-7.48-5.56-1.73-6.67,4.38-6.75  l3.71-1.34c-3.92,0.13-8.17-1.24-5.33-5.66l-4-4.25c-3.21-7.61,0.32-8.82,10.58-3.61c-6.88-6-6.55-17.68,2.64-8.27  c9.48,9.46,19.93,2.11,28.33-4.7c-2.63,0.75-4.55,0.28-5.76-1.42c0.53-4.02-1.67-4.15-6.61-0.39c-4.71,0.99-16.75-2.73-14.82-8.51  c-5.74-0.86-8.69-3.48-8.86-7.86c-2.38-3.48-4.36-8.95,1.3-9.61c5.91,3.4,11.95,5.01,18.13,4.84c-3.72-5.14-3.55-9.35,3.77-6.5  c2.11-4.07,5.3-2.64,7.79,0.17c-3.86-6.13-3.36-6.85,3.1-9.41c0.89-0.35,5.19-1.66,5.64-1.52c0.41,0.13,0.74,0.51,1.04,0.97  c0.97-1.3,0.95-2.03-0.04-2.2c0.27,1.82-2.43,2.05-2.65,0.01l-1.05,0.24c-0.01,1.87-1.36,2.3-2.97,2.5  c-7.84,1.01-6.18-5.5-1.91-9.31c-3.73,4.2-13.9,3.85-17.25-0.16c-2.07-2.48-2.21-3.9,0.44-6.01c-7.5-4.54-8.48-13.75,2.28-7.56  c6.72,4.14,11.89-5.9,4.48-6.48c-2.1-0.62-2.76-2.71-1.96-6.28c-7.4-12.07,2.48-11.21,9.93-4.51c-2.42-6.38,1.04-6.27,6.03-5.39  c-2.89-5.97,0.52-7.95,10.23-5.92l2.95-3.03c-6.23,4.06-14.53,2.26-9.67-5.87c-8.9-1.58-16.96-13.04-14.36-21.4  c3.92,1.08,7.88,2.41,11.89,3.98c-0.16-7.5,3.67-4.93,7.96-1.37c1.37,1.14-2.92-9.59-3.84-9.69c-1.05-3.78-0.19-7.66,3.46-4.62  l3.18,0.75c2.45-1.45,6.07,0.91,7.37,3.15c0.56,0.03,0.9-0.37,1.01-1.19c-2.49-0.89-2.33-3.17,0.5-6.84  c-5.15,4.83-13.74,2.3-14.83-3.85c-0.35-1.96-0.4-2.52,1.96-2.67c-1.29-0.44-1.74-1.8-1.02-2.91c-4.8,3.24-8.21-2.33-7.19-7.3  c1.17-5.68,3.76-5.02,7.62-1.58c0.63-5.08,4.11-4.84,10.44,0.72l1.89-3.44c-4.87-2.73-6.11-7.48-0.3-10.01  c-6.28-2.1-10.09-10.19-7.8-16.44c1.31-3.57,4.23-4.53,6.17-0.88c0.13-3.72,0.64-5.53,4.91-5.85c0.11-2.99,0.98-5.85,2.62-8.55  c-4.6-4.01-8.51-15.23,0.55-11.18l2.76-34.72c1.22-1.02,2.54-0.7,3.93,0.01l3.02,34.43c9.6-4.59,5.77,7.17,1.95,12.17  c1.77,1.84,2.42,3.7,2.57,6.18c3.56-3.02,7.34-3.6,7.02,2.28l3.02,1.41c-0.21,3.39-0.91,6.84-2.09,10.33  c1.99-2.32,5.22-4.42,6.8-0.77l-3.72,14.29c2.88-1.48,4-1.15,5.04,2c0.27,0.83-3.45,16.02-5.98,15.79c-0.59,1.5-0.2,1.51,1.16,0.05  c-0.28-1.59,2.05-3.68,3.39-4.16c9.4-3.33,4.06,6.89,1.13,11.91c-2,5.2-4.66,7.43-7.97,6.71c-3.11,5.06-7.17,3.49-8.62-1.74  l-1.61-0.93l0.96,3.78c2.14-1.48,3.1,1.32,3.47,3.12c2.53-0.94,5.48-1.67,5.38,2l10.77-7.28c3.23-0.8,3.53,0.1,3.8,3  c0.25,2.67-5,15.41-8.87,14.47l-0.86,1.1c1.5,1.58,3.19,1.12,5.04-1.37l2.37,0.31l3.89-2.03c-0.73-1.95,0.29-2.37,1.99-1.06  c1.8-1.39,4.04,0.17,5.67,1.34c-0.83-3.09,3.44-3.77,4.73-1.26c1.54-0.87,2.16-0.4,1.13,1.1c0.61,2.83,0.31,12-3.89,8.51l-1.09,0.87  c-0.69,2.11-0.77,2.46-0.23,1.06c4.47,4.58-3.34,9.25-5.26,4.22l-2.83,1.8c-0.26,1.56-0.9,1.91-1.92,1.04  c0.33,1.82-0.55,2.02-2.01,2.29c4.12,5.11,2.27,8.13-4.23,7.28c3.19,1.29,3.03,4.17-0.48,8.63c1.08,5.12,3.62-3.98,3.67-5.63  c3.64-6.7,6.95-3.24,5.68,3.05l9.15-7.05c3.47-1.33,4.77-0.36,4.74,3.3c11.45-5.24,3.05,11.17-0.9,15.19c1.62,3,4.02,2.29,7.21-2.14  c3.59-1.73,5.43,0.54,4.38,4.14c6.71-2.5,8.1-0.12,3.92,5.86c-4.01,5.74-11.67,8.69-18.28,10.08c3.22,8.22-1.13,10.02-13.06,5.4  c-0.84,4.06-2.94,8.01-7.43,5.64c0.74,2.56-0.45,4.43-1.78,6.45c1.21-1.8,2.67-2.86,4.38-3.17l1.13-1.86c0.23-2.52,2.65-3.24,4.62-2  c3.41-2.31,6.49-0.28,4.8,3.8c1.84,1.87,1.37,4.65-1.4,8.32c5.03-3.09,10.02-6.27,14.96-9.55c4.87-0.24,9.39-1.45,13.57-3.62  l-0.18-1.04c-2.15,1.67-2.92-4.42-2.55-4.99c2.66-4.12,7.65,0.15,5.8,1.97l1.4-0.74c1.21-0.53,2.07-0.04,1.28,1.16  c0.8,0.05,1.56,0.33,1.93,1.05c7.29,13.96,34.12,5.95,39.58-7.35l1.18-0.42c-1.12-1.37-2.6-0.49-3.51,0.91  c1.24,3.86-5.93,10.01-9.07,5.95c-3.76,4.16-11.49,9.37-11.23,0.54c-3.62,2.68-13.31,6.09-14.32,0.18  c-2.46-0.94-2.41-1.23,0.13-1.94c0.46-1.77,1.76-3.13,3.88-4.07l2.18-2.46c-6.55,1.95-11.39,0.97-14.52-2.92  c0.97-1.37,0.69-3.23-0.83-5.59c0.96-3.03-0.18-5.64-3.43-7.82c-8.81-14.18,6.04-6.07,12.32-1.21c3.8,2.65,3.81,1.13,0.03-4.57  c-1.23-3.56-1.13-5.12,3.05-4.88l13.45,9.54c8.09-4.91,14.99-12.49,20.57-20.24l1.54-0.3c-0.03-0.96-0.37-1.43-1.03-1.41  c0.57,1.86-1.02,2.95-2.65,1.69c-0.55,0.97-1.59,1.59-3.1,1.85l-1.13,1.88c-9.53-1.96-14.09-3.69-4.05-10.85  c-4.65,4.46-15.78,7.81-17.6-0.52c-2.68,0.89-4.96,0.67-6.84-0.65c0.39-3.63-0.75-7.04-3.42-10.23c-0.38-3.91,2.38-4.28,8.3-1.11  c9.58,2.43,21.42-6.97,7.27-5.35c-3.88-1.72-2.95-4.09-1.53-7.35c-9.47-4.88-15.1-18.99,1.76-11.49c8,5.58,9.96,5.89,5.89,0.94  c-1.71-2.79-1.7-4.83,0.02-6.1c-2.08-2.53-0.92-3.06,1.88-1.92c1.72-1.41,3.69-0.88,5.91,1.57c2.16,3.41,4.04,3.93,5.66,1.57  c-1.75-3.39,0.32-5.92,6.21-7.6c3.66-4.61,6.08-10.47-0.35-1.85c-0.99,1-2.12,1.76-3.39,2.37c-9.74,4.72-9.92-5.2-7.59-12.37  c-3.48-0.58-6.94-0.89-10.38-0.91c-1.3-5.36-3.81-10.46-7.55-15.31c0.38-4.1,2.08-4.06,5.59-2.52c3.84,2.92,7.45,3.68,10.83,2.28  c-1.03-2.99-0.44-4.77,1.79-5.34c9.55,4.12,9.59,3.64,3.11-4.42c-3.03-4.07-3.43-7.18-1.2-9.32c0.28-0.56,0.62-0.57,1.02-0.06  c1.69-1.73,2.07-1.63,2.76,0.69c0.66-0.31,0.94,0.38,1.18,1.1c1.48-1.38,3.46-0.68,5.94,2.11l2.54,0.97  c-2.77-4.94-4.67-9.04,2.99-7.67c1.1-2.18,2.67-3.42,4.69-3.72c0.59-0.8,0.57-1.5-0.06-2.11c-4.08,9.21-18.28,7.76-19.43-2.27  c-2.1-3.12-4.11-6.3-6.03-9.54c1.41-4.44,5.42-4.45,12.03-0.03c0.05-6.08,4.65-4.25,7.96-1.18l2.27-3.9  c-5.19-1.25-6.68-5.78-2.7-9.44c-3.21-0.8-3.17-2.92-2.88-5.83c0,0-1.62-1.28-4.87-3.85c-4.4-7.76-1.59-9.02,8.43-3.77  c-6.33-4.27-7.55-12.67,1.62-9.02c-2.31-4.29,0.07-6.16,4.4-6.79c1.65-6.13,0.28-12.48-4.13-19.06c0.51-4.61,3.22-3.35,6.08-1.08  l3.04-34.09c1.24-0.98,2.55-0.64,3.92,0.09l2.61,38.48l0.91,1.34c4.66-7.37,8.23-4.18,6.46,3.95c-1.91,4.59-3.46,9.22-4.64,13.87  c3.87-1.33,6.73-0.93,8.59,1.18c5.5-0.82,5.21,3.26,3.54,7.42c-6.84,8.69-6.65,10.06,0.56,4.09c4.24-0.93,5.13,1.7,2.67,7.9  l-0.66,8.37c0,0,1.15,0.46,3.44,1.39c-0.67,4.72-2.16,9.42-4.46,14.1c12.14-11.39,8.94,3.47,3.96,11.21  c-3.24,5.04-8.96,13.58-15.35,8.59c0.4,1.84,1.13,3.21,2.18,4.09l17.35-6.96c1.64,0.33,2.26,1.56,2.36,3.22l-6.35,12.97  c3.52-3.24,8.38-5.57,8.73,0.9l12.71-5.03c7.67,0.5,2.32,8.16-1.02,11.68c2.54,4.32-0.33,5.52-4.26,6.38  c0.07,4.11-2.29,5.19-6.01,5.13c2.12,2.72,1.73,6.35-2.18,6.76c1.33,6.32-1.91,6.72-9.7,1.21c-5.65-2.7-7.13-1.98-2.1,1.89  c4.49,0.92,7.87,3.73,10.16,8.45c2.58-2.73,5.36-4.69,8.33-5.89c1.39,2.12,2.09,3.18,2.09,3.18l7.41-7.12  c6.98-0.23,4.45,9.03,0.99,12.95c4.21,2.42,2.02,5.4-0.99,7.97c-10.7,4.79-6.69,5.68,12.03,2.65c2.18,1.23,2.2,3.3,0.05,6.2  c6.63,1.22,8.58,0.24,5.83-2.93c-2.03-7.55,3.29-6.52,8.13-3.81c1.23-2.46,2.77-3.56,5.44-4.03c-0.51-3.38,1.17-4.61,4.33-4.57  c-1.04-0.91-0.69-1.8,0.2-2.93c-0.32-0.41-0.58-0.52-0.99-0.15c-1.11,1.84-2.45,1.85-3.6,0.05c-0.77-0.23-1.59-1.27-2.04-2.08  c-0.36,0.86-0.68,0.83-0.96-0.08l-1.1,0.24c-0.14,1.84-1.54,2.81-4.18,2.89c-3.6,0.04-5.65-2.57-6.17-7.81  c-2.2-0.85-3.31-2.56-4-4.74c-3.61,0.59-7.2-5.31-3.85-7.47c-0.62-1.76,0.41-1.77,2.12-1.01c0.78-0.44,1.1-0.22,0.95,0.67  c2.68,1.23,5.7,2.38,8.53,1.04c0.17-0.86,0.45-0.85,0.83-0.03c0.8-1.57,2.3-0.98,3.11,0.17c-0.29-0.94,0.03-1.24,0.96-0.92  l0.95-0.97c1.25-2.87,3.2-2.35,2.82,0.76c1.21,1.73,2.96,2,4.77,0.93c-0.23-2.85,1.65-5.12,5.64-6.8c3.38-2.58,6.27-3.13,8.69-1.65  l3-1.05l-0.1-1.81c-5.24,2.41-17.77,3.77-14.67-4.87c-7.79,0.54-8.25-3.27-4.01-8.56l0.22-2.87c-7.27,2.83-10.81,2.08-10.62-2.25  c-5.13-1.59-6.88-4.43-3.51-9.11c-5.6-3.99-4.96-11.84,2.59-7.3c4.86,0.5,9.83,0.59,14.91,0.25c6.62,1.85,13.29,3.4,20.01,4.67  l1.88,2.04c0.41,0.47,0.69,0.76,1.04,0.19c0.67-2.48,1.58-2.22,2.72,0.04c0.78,0.66,2.25,0.5,3.04-0.15  c0.08-2.56,0.96-2.45,1.76-0.04l3.92-0.98c0.37-1.98,1.24-2.07,1.92-0.17l1.93-0.87c1.74-3.02,1.62-4.17-0.35-3.46l-0.57-2.16  l-1.07-3.89c-0.24,0.84-0.53,0.8-0.88-0.05c-1.7-0.78-2.76-0.07-3.86,1.23c0.3,3.28-2.48,4.42-4.71,2l-1.96,0.51  c-2.83,1.06-3.63-0.79-1.21-2.59c1.28-2.97,0.68-4.94-1.81-5.9c0.18,3.56-7.56,6.18-9.43,3.04l-4.01,0.9  c-0.15,1.97-1.06,1.92-1.73,0.01l-3.06-0.91c-0.38,2.55-1.13,2.4-1.77-0.08l-2.02-1.05c-2.64,2.69-12.67-3.24-8.59-6.62l1.9-0.76  l1.47-1.66c7.09,2.63,12.58,1.9,16.47-2.2l2.19-0.15c2.25-2.38,2.88-4.65,1.88-6.8c-0.58,2.76-5.35,2.07-7.74,1.58  c-6.95-1.41-9.57-4.84-2.77-8.21l-1-1.11c-0.21,0.8-0.51,0.77-0.88-0.03c-2.9-1.47-3.89-3.03-2.94-4.69  c-2.8-0.57-7.55-9.31-3.88-10.56c1.19-0.79,2.45-0.37,3.15,0.82l2.1-1.2c5.46,3.97,11.11,7.49,16.96,10.56l0.9,2.16  c0.34,0.58,0.66,0.63,0.97,0.17c0.63-1.58,2.21-2.28,4.76-2.1c0.78-2.46,1.89-4.78,3.8-1.88c1.01-1.5,2.88-2.38,5.6-2.61l4.14-2.4  c-3.6-2.29-3.99-3.81-1.14-4.55l4.96-0.95c0.2-3.03,3.26-3.76,4.76-1.14l5.75-0.84c-0.94-1.3-0.79-2.8,0.47-4.49  c-3.66,1.65-7.77,3.34-11.84,3.25c-2.58-0.06-6.38-0.19-5.82-3.39c-1.32-0.52-1.02-1.51,0.91-2.97l-0.31-2.19  c3.39-2.13,5.69-4.93,6.89-8.4l2.03-0.73c0.64-0.67,0.73-1.49-0.07-2.05l-0.76,2.09c-4.98,2.91-9.98,5.79-14.98,8.63l-3.89-1.69  c-2.3,0.49-4.51,0.67-6.62,0.56c-0.97-2.84-2.71-4.62-5.23-5.34c-6.4-0.77-11.13-4.42-2.91-7.65c-2.84-2.14-9.16-7.9-7.41-11.66  c0.74-1.59,1.85-2.57,3.51-1.95c13.83,11.32,32.1,0.4,6.58-7.37c-0.77-3.92-2.17-7.44-4.21-10.57c-3.68-3.23-3.88-5.44-0.61-6.65  c6.16,1.87,12.05,4.5,17.69,7.9c2.34,0.54,4.61,0.41,6.8-0.37c0.69,1.32,5.51,6.8,6,6.8c0.13,0,0.27-0.26,0.4-0.59l-0.95-1.11  c-0.96,0.75-1.36,0.27-0.88-0.88l-1.04-1.05c-3.91-1.08-7.81-6.67-1.69-7.88c10.11,4.58,13.45,4.01,10.01-1.71l0.28-1.62  c4.82-0.87,8.89-2.84,12.19-5.91c1.8-3.13,3.81-4.71,6.01-4.76l0.84-3.02c-1.21-0.96-1.77-2.03-1.02-3.35  c-2.81,2.67-5.88,5.59-9.47,7.17c-6.51,2.85-10.53,2.8-8.66-5.41c-9.44,0.94-7.94-3.37-3.85-9.76l-12.66-0.64  c-2.54-0.68-3.04-3.18-1.48-7.51c-3.56-2.57-6.17-5.65-7.84-9.25c-1.58-7.3,2.49-7.67,12.22-1.11c-0.26-6,3.52-5.42,11.33,1.74  l6.8,3.57l-11.18-21.12c-1.27-6,4.19-6.1,8.57-3.79c4.96,5.18,9.8,7.01,14.51,5.51c0.65-3.93,1.98-5.86,3.96-5.8l0.08-2.7  c7.68-6.82,6.8-7.14-2.62-0.97l-2.23-1.13c-1.4,4.14-9.99,0.73-8.43-4.15c-5.16-0.26-7.54-2.47-4.69-7.46  c-5.75-1.85-8.15-9.28-8.53-14.81l1.38-1.87c0.02-0.5,0.09-0.98,0.32-1.36c1.42-2.41,8.29,1.9,10.16,3.47  c-0.26-5.28,2.13-7.77,6.58-4c5.05,7.36,6.49,6.98,11.76-0.27c-8.19-0.29-11.67-11.3-2.78-14.15c-5.13,0.1-6.11-2.95-6.62-7.21  c-5.13-3.62-11.71-13.28-3.1-15.38c3.21,3,6.79,5.04,10.73,6.12c-9.75-5.98-10.4-19.79,3.35-10.91c5.7-10.18,5.08-22.79,1.18-33.74  c-0.78-5.33-1.46-12.78,5.42-7.36c0.51-13.67,1.77-27.38,3.78-41.13c2.8-6.55,4.25-4.57,5.31,2.04c0.4,16.97,1.62,33.73,3.65,50.29  c7.8-8.21,11.83-5.66,7.96,5.59l-8.03,14.16c5.71-2.41,6.99,1.42,7.92,6.24c3.09-3.33,5.85-6.19,8.08-0.43  C1123.17,526.03,1121.85,528.16,1120.18,527.91z" />
<path class="st1" d="M1200,128.94v183.47c-10.09,4.24-15.13,6.37-15.13,6.37c-188.85,54.54-378.71,114.02-549.94,211.2  l-124.21,69.46C356.28,685.83,190.86,753.24,16.8,785.55c-2.38,0.44-4.81,0.62-7.25,0.76c-2.45,0.14-4.91,0.14-7.37,0.1  c-0.61-0.05-1.08-0.11-1.08-0.17c-0.4-36.86-0.4-74.77-0.12-111.65c0-0.23,0.42-0.45,0.96-0.67c-0.54-0.06-0.96-0.11-0.96-0.17  C0.68,608.43,0.68,541.03,1.07,475.7c0-0.23,0.47-0.45,1.07-0.67l5.02-2.74c29.47-6.93,58.6-14.53,87.38-22.8  c2.28-0.52,9.62-1.88,10.61,0.17c0.21,0.45,0.34,0.93,0.45,1.43c1.45,1.7,0.94,3.39-1.51,5.09c0.13,0.26,3.21,4.6,3.5,4.6  c0.34,0.01,4.13-4.87,4.08-5.2c-3.04-2.01-6.16-5.02-3.25-8.28c-0.15-0.75-0.22-1.93,0.26-2.09  c60.69-20.26,129.01-40.63,193.96-55.47c6.55-1.54,13.14-2.88,19.87-1.87l0.93,3.54c-16.96,60.24,47.66,110.17,99.72,73.63  l2.99,0.52l1.06-0.94c-2.17-1.37-1.54-2.19,1-1.85c1.63-1.74,1.91-2.79,0.83-3.17l-2.27,2.89c-50.75,18.06-100.19-29.02-84.08-80.32  l2.74-1.99l2.79-2.51c16.23-4.6,32.64-8.4,49.22-11.41c19.08-0.1,36.66-3.25,55.21-7.71c68.22-16.41,136.44-37.44,202.78-60.6  c111.98-43.43,221.68-88.39,335.04-141.85c19.09-10.04,38.62-19,58.6-26.87l0.67-1.92c0,0,49.7-0.09,149.1-0.26L1200,128.94z" />
<path class="st3" d="M1200,396.16v132.77l-0.43,1.94c-22.28,5.75-44.62,11.38-67.01,16.9l-1.59-1.58  c2.68-13.38-13.66,9.42-16.47,4.6c-0.54-1.52,7.76-4.35,5.42-6.07c-1.7-1.24-4.48,0.04-5.59-1.13c-2.25-0.82,20.88-18.54,6.98-15.6  c-0.43,0.43-0.77,0.45-1.14-0.07c0.23-0.94,0.36-2.06,0.58-3.25c0.3-1.62-1.39-1.84-2.27-0.8c-0.8,0.95-1.77,1.99-3.62,3.82  c-3.64-0.93-1.66-6.02-4.71-7.93c-16.52,7.05,7.96-15.68,4.01-23.88c-4.57,1.93-6.53,5.28-8.85,8.19  c-4.32-20.1-1.79-39.3-4.85-60.59c-4.06,16.77-3.51,34.16-4.45,51.93c-2.1-2.53-2.31-6.35-5.85-8.19  c-1.27,7.95,3.15,15.2,3.72,22.66c-0.27-3.52-0.64,17.55-5.22,20.65c-2.54,1.72-4.98-2.26-9.22-3.06c-1.94,2.38,0.51,6.45,2.52,8.37  c2.68,2.56,3.97,3.76,8.69,2.07c-5.59,7.89-12.6,2.48-18.49-2.81c-3.23,5.6,1.85,9.24,5.4,12.56c1.87,1.75,0.17,6.13,3.34,6.63  c2.68,0.43,4.96-0.38,9.01-2.35c-1.83,8.54-14.76,4.87-8.73,14.43c1.83,2.9,3.4,2.29,7.94,1.79c-2.11,5.4-5.88,9.3-10.55,10.8  c-3.34-2.77-4.26-6.44-8.44-8.44c-1.59,2.51,0.21,5.43-1.48,7.5c-3.63-2.29-7.66-6.28-11.67-5.25c-4.65,2.19-9.37,4.29-14.31,5.74  c-57.24,16.7-112.75,33.21-168.84,53.86c-193.37,71.18-373.54,169.92-552.52,272.7C261.63,937.82,200.3,968,137.38,993.67  c-4.66,2.61-9.41,5.01-14.26,7.19l-2.08-1.4c-2.08-0.45-3.07-2.53-2.97-6.27c-0.02,1.8-1.05,9.49-2.41,10.03  c-0.76,0.3-1.55,0.21-2.31-0.03l-3.03,1.37l-1.1,2.99c-9.2,4.74-18.88,8.33-29.03,10.76l-4.18-0.68c-1.19,2.9-10.67,0.09-10.83-2.92  c-8.08,10.19-15.53,1.2-6.61-7.5c-7.82-3.91-7.92-8.87-4.66-16.34c-2.37-2.84-4.18-5.88-5.42-9.14c2.02-1.8,1.75-3.2-0.81-4.18  l-3.18-12.15c-0.67,5.37-2.12,10.31-4.33,14.82c-1.22,0.05-0.58,1.35,1.94,3.91c1.96,6.6-6.95,7.88-8.54,2.8l-3.08,0.57  c-8.37-5.6-16.93-10.86-25.67-15.79l-2.83,62.08L0,1034.88V673.92c0.31-2.55,1.19-2.44,1.92,0l0.25,112.49l1.92,0.67l-0.17,84.61  c144.67-23.3,284.58-70.88,414.26-139.43c104.89-55.85,209.39-111.87,313.51-168.05c143.25-76.25,296.92-129.16,454.27-166.66  c2.26-0.54,4.6-0.78,6.95-1.01C1195.26,396.3,1197.63,396.21,1200,396.16z" />
<path class="st4" d="M1200,312.42v83.75c-128.93,30.51-263.03,71.94-383.78,128.42c-58.94,27.57-116.36,58.11-173.5,89.3  c-78.29,42.73-156.26,85.43-235.55,126.22C279.45,805.82,144.61,851.64,2,873.48l0.17-87.08c125.99-23.64,250-62.3,366.69-116.79  C449.55,631.93,527,588.87,604.23,545c57.4-32.6,115.5-63.52,176.1-89.76C918.49,395.44,1056.19,353.86,1200,312.42z" />
<path class="st0" d="M65.17,1014.72l1.74,1.35c-1.74,4.22-3.29,8.48-4.64,12.77c16.23-9.4,8.81,16.68-1.95,17.48  c4.77,0.72,9.09-1.42,12.98-4.02c6.1,0.16,3.54,11.12-1.29,11.71c-0.94,0.93-2.19,1.64-3.74,2.12c2.83,0.23,2.48,2.05-0.05,2.68  c0.25,1.6-0.71,2.23-2.89,1.89c2.14,0.09,4.02,0.5,5.63,1.23c-1-3.17,7.01-4.53,8.77-3.78c4.26,1.8,2.13,4.92-0.23,7.5  c5.78,1.87,2.24,8.39-2.48,8.46l-0.01,0.9c10.7-7.55,8.75,7.28-0.77,9.71c4.25,0.2,8.1,1.95,11.55,5.23c2.62,1.54,3.52,1.18,2.7-1.1  l0.96-2.47c-2.73-0.51-6.06-1.87-3.3-4.38l-0.68-1.05c-3.65-4.24,3.09-6.53,7.09-4.39c-6.67-4.97-8.07-12.41,2.63-10.85  c-3.55-2.35-3.05-6.23,1.26-7.04c-3.49-3.42-6.21-6.63,0.03-8.33c-0.68-5.1,2.56-5.2,6.54-3.94c-7.69-3.26-8.49-15.05,1.22-9.7  l1.71-1.38c-3.3-0.73-6.09-3.44-3.27-6.22c0.2-3.66,3.64-5.61,6-1.82l0.48-1.31c-7.67-1.99-8.17-14.24,1.9-12.59  c-0.14-1.67,0.04-2.74,2.01-3.14c-0.46-0.32-0.82-0.64-0.84-0.99c-0.01-0.17,2.14,0.45-1.83,0.08c-0.61-0.06-0.85-0.6-0.84-1.22  c-2.55-0.91-2.6-1.54-0.2-2.92c-0.59-1.6,0.42-2.19,2-2.02c4.75-6.07,0.99-14.74,4.63-22.43l3.07,18.69  c2.94,0.37,4.83,4.86,3.91,7.74c5.28,3.57,3.57,11.2-3.09,10.38c1.05,2.06,2.4,2.43,4.05,1.1c-0.3-1.51,0.23-2.54,1.78-2.33  c4.58,0.64,2.48,7.89-0.18,9.87c2.12,0.09,2.18,0.74,0.18,1.93c1.45,0.35,1.43,1.66,0.03,2.06c-0.28,1.13,0.79,1.38,3.21,0.73  l0.56,0.94c2.85-1.1,3.73,1.02,1.43,3.07c1.41,1.09,1.39,2.11,0.08,3.18c4.24-0.27,5.36,3.28,3.74,6.77c5,3.06,1.49,7.26-1.55,10.69  c8.45-5.89,10.79,1.67,4.72,7.85c5.58-3.37,9.85-0.71,4.47,4.53l-2.16-0.51c-0.53,0.38-0.53,0.73,0,1.06  c2.81-1.12,8.59,3.32,8.23,6.43c-0.44,3.8-6.65,6.22-10.14,6.71c0.18,0.66,0.48,0.78,0.91,0.35c0.38-0.87,1.41-1.08,1.74-0.06  c5.03-0.74,6.71,0.23,5.04,2.9c0.84,0.15,0.8,0.4-0.04,0.75c1.87,0.42,3.67,0.84,5.41,1.27c4.09,2.79-3,6.26-5.52,3.56  c-0.49,0.52-0.56,0.66,0.16,0.99c2.17-1,6.32,0.84,8.48,2.1c0.36-0.93,1.35-0.76,2.04-0.17c1.46-1.19,1.98-0.49,0.92,1.15  c0.19,2.64-1.69,4.57-5.66,5.78l0.2,3.65c-2.32,3.28-2.57,4.15-0.75,2.62c0.57-4.92,9.6-7.61,7.13-1.69  c0.98,1.1-0.94,2.05-0.96,1.93c-0.05-0.36,2.27-1.84,2.9-0.91c-0.25-1.71,0.5-2.34,2.1-2.43c-3.26-1.33-7.66-4.84-3.48-7.09  c1.14-0.22,1.53-0.61,1.17-1.18l-1.24-0.29c-3.14-5.45-0.22-7.29,8.77-5.52c-3-0.57-4.41-3.16-2.92-5.89  c-5.67-4.51-3.56-7.24,6.33-8.2c-7.22-1.12-9.17-7.34-1.81-9.32c-0.29-1.59-0.23-2.35,1.56-3.08c-0.73-0.53-0.69-1.62-0.06-2.18  c-1.12-2.38,0.51-3.38,2.83-2.79c1.1-1.57,1.47-2.05,2.05,0.02c0.52-1,0.87-1.93,0.14-2.9c0.06,1.86-0.68,1.82-1.1-0.07  c-6.05,0.07-8.63-10.14-0.32-7.02c-0.61-2.85,0.07-4.93,2.04-6.23c-1.9-2.3-1.93-4.82,1.31-4.98c-2.91-1.09-1.23-4.6,1.57-2.85  l1.17-0.64l-1.04-3.03c0.41-2.7,3.72-17.97,4.38-19.09c2.76-4.69,6.16,3.81,6.33,7.44l1.5,8.99c2.72,1.44,4.09,3.55,3.13,6.38  c0.22,2.07,0.93,3.65,2.11,4.72l-2.04,1.8c-0.48,0.81-0.5,1.59,0.03,2.33c4.86,1.64,6.94,7.33,2.92,11.54  c2.72,3.05,2.73,5.87-1.53,5.57c-0.63,0.27-0.69,0.54-0.18,0.82c1.55-0.86,2.86-1.81,3.92-2.87c5.27-1.69,6.92,2.87,5.62,7.62  c-0.95,3.46-5.94,11.45-9.58,6.96c-1.55-2.45-1.55-2.45,0,0c2.61,1.44,6.14,0.89,10.57-1.67c0.96,0.14,1.6,0.72,2.27,1.35  c1.23,1.15-1.81,12.28-2.29,12.84c-2.51,2.95-3.34,1.87-4.21-1.21c-0.55,2.55-1.45,2.89-2.7,1.01c0.2,1.93-0.79,1.96-2.96,0.09  c-2.5-0.13-0.01,1.97,1.95,2.83c0.36-0.82,0.69-0.75,1,0.13c0.11-2.36,2.06-2.5,2.77-0.09c1.38-0.99,2.72-2,4.02-3.03  c6.94-3.52,8.7-1.48,5.18,5.43c9.84,1.04,1.94,10.77-4.2,8.3l-2.09,0.7l0.76,1.04l7.73-2.71c6.35,2.38,1.41,9.92-3.47,7.54  c-0.43,0.64-0.42,1.23,0.11,1.76c3.99-3.43,7.1-3.83,9.35-1.2c0.8,0.26,0.51,0.79,0.01,1.45c2.21,1.84-0.39,4.86-2.82,3.71  c-0.41,0.35-0.79,0.68-0.27,1c3.04,1.57,0.86,5.02-1.9,2.88c-0.07,2.19-1.22,2.05-2.97,1.66c-0.72,0.95-1.66,0.96-2.69,0.35  l-0.36,1.9c3.82-0.16,7.07,0.42,9.74,1.74c1.18-2.48,2.01-2.48,3.2-0.01c4,2.63-2.19,8.14-5.52,9.25l0.61,1.45l2.11-1  c0.91-2.3,2.17-2.12,3.87-0.69c0.28-2.79,2.11-3.31,4.63-3.45c-1.22-1.74-1.28-2.89,0.95-3.68c0.41-1.91,1.26-1.99,1.92-0.13  c1.96,0.27,2.01-0.05,0.16-0.97c-3.15-2.53-2.09-3.45,0.7-5.6c-2.6-3.25-2.59-7.66,1.83-9.16l7.24-27.33  c1.87-1.52,3.16-2.29,4.41,0.02c2.93,12.28,5.89,24.55,10.99,36.07c0.82,3.28,0.34,6.55-1.49,9.35c3.89,1.3,6.54,2.67,4.47,7.23  c6.61-1.23,5.9,4.09,3.74,8.28l4.47,0.69c-0.47-2.9-0.02-5.55,1.35-7.96c-2.23-3.05-0.17-5.44,3.34-5.52l-0.93-1.64  c5.37-8.63,9.34-17.86,11.92-27.69c1.31-2.39,2.54-1.4,4.46,0.22c1.3,1.09,2.63,12.32,2.88,14.89c5.52,1.03,5.25,7.13,3.36,11.51  c2.93,1.27,4.37,3.21,2.87,6.35c3.65,1.64,3.84,5.16,3.49,8.72c2.27,0.93,3.04,2.21,2.32,3.83c2.42,0.92,2.34,2.83-0.41,3.15  c-0.77,0.93-1.18,1.84-0.97,3.06c1.24,7.48,4.86,18.41,3.57,2.98l1.92-1.29c1.33-2.83,2.26-5.86,2.78-9.1l1.11-0.38  c-0.88-1.47-0.63-3.25,0.73-5.33l2.29-9.56c2.69-9.63,5.79-8.53,9.28,3.29l3.95-14.95c1.06-1.04,2.44-1.98,4.14-2.8  c0.38-4.06,1.22-7.96,2.55-11.7c3.27-2.32,5.25,0.01,5.96,6.97c0,0,1.13,2.54,3.4,7.61c3.54,2.87,4.18,5.93,1.91,9.2  c4.02,0.58,4.59,3.04,3.23,6.53c4.39,0.81,5.38,4,2.95,9.56c1.45,0.85,2.73,1.84,3.84,2.99c0.81,0.6,1.52,0.28,2.11-0.97  c-1.22-3.55-2.41-11.7,3.32-11.25l5.49-14.27c1.8-1.89,2.6-2.17,4.44,0.28c1.22,6.75,3.3,13.2,6.26,19.35  c1.64-7.87,3.58-15.61,5.8-23.24c2.66-1.32,4.64,0.32,5.94,4.92c1.49,7.11,3.27,14.08,5.35,20.92c1.55,1.5,2.04,2.99,1.45,4.48  c0.97,0,0.94,1.08,0.24,1.66l0.61,2.04c1.86-0.01,2.42,0.66,2.27,2.68c0.23,1.3,1.13,0.97,2.71-1c-3.62-2.06,0.16-13.41,4.63-10.24  c2.03,6.15,3.9,12.36,5.62,18.62l1.01-8.67c1.45-4.91,4.57-9.62,8.06-3.41l2.8-9.96c1.33-1.04,2.67-0.67,4,0.34l5.8,17.01  c-0.07-8.84,1.65-16.99,5.16-24.46l2.48-0.1l1.83,1.36c-0.1,6.64,1.05,13.3,2.78,19.69l-1.47,1.76c0.41,7.33,2.98,12.79,6.19,19.12  c2.49,1.12,3.92,3.71,4.28,7.76c3.74,9.41,4.19,35.88-4.69,41.94c-3.17,2.16-4.12,2.23-5.65-1.66l-9.14-30.51  c2.74,7.92-9.38,50.5-15.43,49.83c-3.31-0.37-6.39-7.25-7.68-10.29c-4.47-10.57-4.08-22.59-3.22-33.82  c-11.68,19.56-9.59,37.08-0.86,57.07l18.7,32.04l-1.08,1.95l0.92,2.06c1.86,0.59,2.01,1.66,0.38,2.73  c4.07,2.68,3.1,12.12,1.19,15.94c-8.54,17.16-17.7-4.37-17.08-14.36c-4.74,6.68-7.65,15.11-9.88,23.18l-2.51,2.38  c-6.8,0.56-10.21,0.85-10.21,0.85c-33.57-3.82-66.81-9.92-99.99-16.19c-1.65-0.31-3.24-0.94-4.85-1.57c-1.62-0.64-3.18-1.4-4.73-2.2  c-0.34,0.7-0.85,1.72-1.44,1.68c-3.92-0.28-11.18-1.87-15.12-2.87c-3.63,0-5.78-1.06-6.47-3.18c-3.43,0.32-6.89,0.55-10.32,0.07  c-34.06-4.73-66.4-9.14-100.88-11.09c-44.19-2.5-88.48-2.21-132.71-1.35c0,0-3.41-0.57-10.23-1.7l-1.12-6.37  c0.38-54.88,0.01-109.74-1.13-164.58v-10.56l0.8-2.08c1.77,1.31,1.51,0.4-0.8-2.72v-3.84c1.18-2.38,2.09-2.31,2.88,0.23  c0.54-0.44,0.99-0.19,1.23,0.42c0.65-3.3,5.93-1.22,6.4,1.2c0.7-0.55,0.85-1.19,0.39-1.93c-2.62,0.54-9.71-2.14-7.13-5.52  c-0.9-0.29-1.52-0.73-1.84-1.32c-1.5-1.23-1.18-4.33,0.91-4.61c0.13-1.39,1.68-1.41,2.02,0.02c1.24-1.34,3.39-1.13,6.46,0.65  c4.52-0.34,5.15-1,1.9-1.97c-5.8-3.43-6.76-6.74-2.88-9.91c-0.28-4.73,2.66-5.49,8.84-2.26c5.42-1.31,4.2-1.94-0.48-3.26  c-3.14-2.43-9.86-8.93-5.4-11.96c-0.2-0.91,0.42-0.81,1.14-0.14l1.95-1.04c0.76,1.86,8.37,0.77,7.9,0.55  c-4.8-2.26-12.22-10.45-4.17-13.45c-2.67-2.56-1.69-5.78,2.03-5.52c-3.08-8.02,0.81-12.1,6.87-5.57c1.83,0.09,3.38-0.78,4.64-2.61  c-1.61,0.09-2.82-0.65-3.62-2.24c-3.87-0.37-5.84-11.16-0.24-10.37c-0.82-5.71,0.21-13.96,6.9-7.69c0.83-1.5-0.53-2.97-4.09-4.43  c-2.22-3.16-5.24-10.72,0.95-8.98c1.47,0.72,2.68,0.83,3.97,0.98c2.3,0.27,3.83-0.34,2.82-3.01c-0.54-1.43-2.48-2-2.96-3.87  c-0.42-1.62-2.35-4.84,2.26-2.12l4.75-22.3l4.99,20.43c0.83,0.74,3.47-0.69,3.15,0.78c-0.33,1.47-0.43,2.57-2.49,4.18l5.79,8.26  c0.05,3.1-2.95,6.57-1.98,9.96c1.04,3.63,4.46,3.57,7.82,7.1c-3.68,2.02-7.19,7.6-4.1,10.41  C60.51,1017.32,62.38,1013.96,65.17,1014.72z" />
<path class="st4" d="M33.56,986.95c-3.35,0.16-1.19,4.33-0.28,6.46c1.12,2.6,3.12,2.83,5.69,2.72c0.22,1.65-0.06,5.05-1.26,5.88  c-1.7,1.18-3.09-1.1-5.29-2.9c-0.13,2.77-1.22,4.45-1.54,5.86c-0.55,2.45,3.01,3.9,4.4,5.62c-2.99,2.48-4.71-1.31-7.53-0.61  l2.27,8.45c3.14,0.74,1.7,4.63-1.02,4.85c-1.89,1.87-3.42-1.08-5.78-1.92c-1.25,4.96,1.89,8.54,5.8,10.29l-8.96-1.12  c0.39,2.11,2.48,2.97,2.77,4c0.63,2.2-2.94,1.29-3.72,2.19c-2.6,3,1.81,5.2,3.31,7.93c1.7,3.08,4.84-0.2,8.44-1.02  c-2.94,6.77-10.56,8.72-16.45,4.68c-0.92-0.58-1.3-0.53-1.14,0.14c0.14,3.48,1.63,5.88,3.98,8.17c2.79,2.72,3.65,3.84,8.85,1.93  c-0.66,4.36-2.83,6.61-6.29,7c-2.72,0.31-4.42-1.73-7.88-2.57c2.26,6.04-5.17,6.07-1.6,8.16c3.25,1.9,4.36,5.33,8.63,3.31  c0.35,4.02-3.37,4.59-6.34,5.21c-2.69,0.56-5.33-1.57-7.78-2.5c-0.67-1.12-1.35-1.13-2.02-0.02c-0.04,1.42-0.9,3-0.91,4.61  c0.87,0.34,0.86,0.76-0.01,1.15c-0.31,2.55-1.19,2.44-1.92,0v-14.4c1.55-2.08,1.83-5.23,0.84-9.43c0.63-5.67,0.35-11.17-0.84-16.49  v-7.68l3.02-66.19C15.03,973.79,23.33,981.94,33.56,986.95z" />
<path class="st6" d="M1200,780.65c-17.32,6.04-35.62,5.92-53.76,7.28l-2.8-0.89c-2.25-5.03,5.37-2.95,8.88-4.19  c2.81-0.99,3.31-6.35,6.04-6.68c2.42-0.29,4.82,3.42,8.19,4.18c1.82-2.89-1.69-6.36,0.95-9.63c2.7,1.26,5.32,2.69,8.04,2.45  c2.63-0.24,3.13-3.24,4.1-5.97c5.29,2.11,10.91,5.93,15.7,2.27c-0.6-4.56-5.87-4.68-6.84-8.53c3.65-1.78,7.77-1.69,10.54,1.54  c0.31-14.08-19.65,3.94-21.49-10.42c8.8,5.32,18.96,1.9,22.44-6.16V780.65z" />
<path class="st6" d="M1200,806.46v16.68c-3.79,0.68-6.85,1.39-10.76,5.43c-4.62-6.34-13.71-4.87-17.78-12.46  c6.76,0.88,11.42,6.21,17.32,3.13c-2.58-3.58-7.51-3.23-8.11-8.1c5.31,0.79,11.32,2.01,15.08-1.27c-3.84-2.9-8.46-2.79-8.63-7.35  L1200,806.46z" />
<path class="st6" d="M1056.99,572.77c5.22,14.71-1.79,8.61,10.11,16.29c-1.01,1.74-3.03,3.25-2.2,4.73  c0.78,1.41,3.02,0.63,4.85,1.34c2.03,0.79,0.05,4.96,1.61,5.03c1.63,0.08,4.54,1.43,5.91,0.9c2.4-1.24,4.14,2.73,4.77,4.79  c-1.39,2.08-0.85,7.24-4.22,8.18c-10.43,2.9-15.08-11.68-21.78-6.23l13.95,26.28c-8.41-1.5-14.87-7.23-20.53-11.85  c0.57,2.28,1.72,6.01-0.89,5.59c-4.27-0.69-6.73-4.24-11.47-5.66c0.09,13.21,13.24,8.43,6.79,19.46l17.06,0.86l-5.18,9.6l6.41,0  c2.67,0,0.67,3.91,0.83,7.32c9.51-0.65,15.08-8.53,22.33-15.47c0.6,4.79-4.05,7.43-4.53,11.67l-0.84,3.02  c-3.87,6.07-8.92,11.99-17.08,11.36c1.44,3.17,2.8,6.17,0.66,7.01c-6.93,2.71-16.82-7.58-12.5,0.64c0.43,0.82,1.14,1.88,2.12,2.87  l1.04,1.05l0.88,0.88l0.95,1.11c3.02,1.55,6.69,2.5,10.37,1.95c-0.63,15.19-20.96-13.02-17.73-6.04  c-9.07,3.12-15.39-7.85-24.87-7.78c5.01,4.33,7.07,8.93,7.27,14.22c5.36-0.34,16.48,5.99,12.9,12.16  c-3.86,6.66-17.38,1.84-22.02-2.54c-1.54,6.55,5.17,9.12,8.86,12.7c-1.72,1.26-3.06,1.67-4.07,2.11c-8.81,3.79,10.16,0.77,9.23,9.45  c3.74-1.09,7.09-2.44,10.04,0.69c6.07-3.19,9.86-8.09,15.65-9.05c0.9,0.46,0.73,1.27,0.07,2.05c-0.37,5.06-4.73,8.33-8.6,11.32  c-1.75,1.62-2.05,2.61-0.91,2.97c6.13,3.43,13.35,0.22,19.85-3.07c0.72,3.44-1.22,5.67-2.66,7.69c-1.85,0.54-3.76,0.82-5.75,0.84  c-1.63,0.19-3.2,0.64-4.76,1.14l-4.96,0.95c-1.16,2.63,3.09,1.85,4.9,3.76c-3.39,3.51-8.42,6.57-13.5,5.8  c-1.89-0.59-2.88,0.26-3.8,1.88c-0.14,2.5-2.72,2.45-4.76,2.1c-0.38,0.48-0.7,0.41-0.97-0.17c-7.9-1.35-12.71-8.81-19.97-11.53  c-0.97-1.07-1.77-1.57-3.15-0.82c0.06,3.97,3.56,6.63,3.88,10.56c-0.54,1.94,0.45,3.51,2.94,4.69c0.26,0.1,0.64-0.1,0.88,0.03  l1,1.11c1.75,1.58-1.36,1.71-2.25,4.51c3.83,2.35,8.54,2.05,12.75,2.11c1.57,2.09-0.43,4.92-1.88,6.8  c-3.36,8.22-12.27,5.59-20.12,4.02l-1.9,0.76c0.3,3.9,5.51,4.71,8.59,6.62l2.02,1.05c0.56,0.13,1.19,0.01,1.77,0.08l3.06,0.91  c0.56,0.08,1.17,0.05,1.73-0.01l4.01-0.9c3.34-0.3,6.47-1.5,9.43-3.04c3.16,0.66,2.82,3.42,1.81,5.9c0.41,0.89,0.25,2,1.21,2.59  l1.96-0.51c1.63-0.41,3.39-0.86,4.71-2c1-1.38,2.29-2.03,3.86-1.23l0.88,0.05l1.07,3.89c10.23,3.65,12.73-14.48,20.14-11.75  c-4.15,8.21-11.54,13.5-19.22,17.37l-1.93,0.87c-0.57-0.15-1.33,0.11-1.92,0.17l-3.92,0.98l-1.76,0.04  c-0.74,0.72-2.25,0.77-3.04,0.15c-0.91,0.05-1.84,0.12-2.72-0.04c-0.41,0.41-0.75,0.34-1.04-0.19c-7.61-0.24-14.85-3.42-22.2-4.82  c-5.49-1.05-13.39,2.84-18.9-2.66c-0.67,5.37,2.74,5,3.66,7.44c0.76,2-3.27,3.49-1.4,5.84c0.98,1.23,4.04,1.53,4.99,2.59  c0.6,0.66-1.67,3.57,0.77,3.31c2.83-0.31,5.14-2,7.6-1.92c2.27,0.07,2.49,2.35,2,4.72c-0.32,1.56-1.6,3.43-3.52,5.32  c2.24,2.64,6.15,1.02,9.8,0.94c0.31,2.78-3.08,3.22-3.57,5.55c6.68,4,13.3-0.26,20.32-2.26c-0.17,3.85-3.87,4.52-6.26,5.77l-3,1.05  c-5.32,1.61-10.52,4.41-14.33,8.45c-1.72,1.14-3.66,0.8-4.77-0.93c-0.81-0.65-1.78-0.96-2.82-0.76l-0.95,0.97  c-0.3,0.31-0.73,0.56-0.96,0.92c-1.07-0.45-2.11-0.51-3.11-0.17c-0.27,0.03-0.56-0.02-0.83,0.03c-2.85,1.34-5.92,0.19-8.53-1.04  c-0.26-0.27-0.73-0.37-0.95-0.67c-2.24-0.53-2.94-0.19-2.12,1.01c-0.11,2.83,2.24,5.17,3.85,7.47c0.85,2.34,1.82,3.61,4,4.74  c3.64,0.26,2.4,4.68,3.73,5.58c1.87,1.25,5-0.85,6.62-0.66l1.1-0.24c0.2,0.17,0.7,0.02,0.96,0.08l2.04,2.08  c1.2-0.06,2.4-0.08,3.6-0.05l0.99,0.15c0.71,1.16,2.04,2.31,2.08,3.41c0.06,1.78-2.92,1.45-5.08,1.63c1.9,5.81-3.41,3.78-4.34,5.85  c-2.73,6.06-5.66-0.92-9.6,0.8c-0.66,2.31,2.67,5.51,2.96,7.05c0.36,1.94-10.38,2.68-11.63,0.59c-0.96-1.6,1.06-3.08,1.83-5.9  c-2.55,0.72-22.47,5.53-20.12-1.4c0.55-1.62,7.07-2.66,9.25-7.09c1.15-2.33-2.03-0.43-2.85-3.46c3.01-3.7,5.38-7.58,2.97-11.97  c-3.74,3.64-6.09,7.22-10.72,9.45c-0.75-1.7,0.56-3.27-0.56-5.2l-8.48,7.9c-1.39-3.47-4.23-6.03-5.88-9.07  c-5.5,0.49-8.9-4.23-10.42-8.84c5.9,0.6,11.74,2.78,16.28,7.02c2.23-3-1.45-4.22-0.89-5.49c0.42-0.95,4.42,0.37,4.59-1.36  c0.26-2.67-3.23-4.22-1.68-5.28c1.67-1.15,3.82-0.23,5.49-0.95c1.45-0.63,0.15-4.23,1.94-4.83c1.15-0.39,6.51-0.21,3.57-2.97  c-2.03-3.68,5.4-5.09,4.54-11.75l-18.86,7.47c-0.75-1.92,2.2-3.57,2.41-6.22c-6.23,1.1-7.71,7.04-12.81,9.04l10.86-22.02l-19.5,7.89  c-1.95-2.88-3.61-6.73-3.78-11.44c3.62,2.08,4.62,5.03,7.78,4.54c2.73-0.42,15.38-15.68,12.54-22.61  c-3.49,2.47-5.74,6.56-10.12,7.54l7.17-17.78c-2.22-0.75-3.02,1.22-5,1.83c2.05-6.2-0.11-12.38,3.72-18.85  c-3.63-0.14-4.98,2.85-7.24,4.02c1.65,4.49-0.07,8.44-2.46,12.81c-2.38-3.93-7.02-5.77-6.94-9.54l5.69,2.2  c1.27,0.49,2.66-1.28,3.24-2.75c0.6-1.53-1.06-2.23-2.85-3.11c-0.42-6.04,7.7-7.98,5.91-15.56l-9.79,11.39  c-1.07-1.43-2.25-3.83-1.26-5.44c1.19-1.96,6.43-2.28,6.99-5.74c0.25-1.56-1.59-1.55-2.31-1.31c-14.99,4.95,0.98-13.35-1.39-21.41  c-2.96,1.27-3.04,3.22-3.72,4.03c-1.17,1.38-1.95,1.07-2.63,0.3c-1.07-1.23-1.53-2.35-1.62-3.76l-2.56-38.37l-3.46,38.83  c-16.04-14.85,5.55,7.63-2.19,17.19c-0.93,1.14-5.55,0.74-4.79,2.6l2.51,6.13c-3.3,1.04-5.02-4.11-8.57-1.94  c1.19,4.54,5.32,5.34,7.26,9.52c-4.53,1.09-8.17-1.33-12.38-4.2c-0.02,4.78,4.01,7.65,8.34,9.32c-1.47,2.19-2.56,3.89-0.34,4.5  c1.31,0.36,4.38-0.13,5.51,1.22c-1.39,2.1-3.99,1.7-4.82,2.58c-1.12,1.18-1.55,3.51-0.19,4.6c1.41,1.14,2.9,0.36,5.91,1.21  c-2.83,2.57-3.18,7.03-6.44,8.34c-1.55-1.57-2.49-2.46-3.14-2.96c-1.28-0.99-2.77-1.3-2.53,0.42c0.13,0.92,0.15,3.06-0.74,3.32  c-4.38-0.31-7.48-5.19-11.77-3.36l6.83,10.53c-1.89,3.49,4.76,6.18,7.29,6.96c3.23,1,6.95-3.84,9.96-4.53  c0.76,0.52,0.65,1.49,0.06,2.11c-0.34,1.83-2.08,3.05-3,4.55c-1.23,2.01-3.47,0.53-5.71,0.12c0.63,3.28,3.92,4.97,3.13,8.45  c-5.24,1.11-7.17-3.01-10.57-4.82c-0.15-0.64-0.48-1.23-1.18-1.1c-0.97,0.04-1.95-0.14-2.76-0.69c-0.5-0.48-0.53-0.5-1.02,0.06  c0.31,6.17,4.38,10.87,8.53,15.22c-1.06,2.67-3.64,3.84-5.69,2.65c-1.3-0.75-2.86-1.83-5.35-2.62c0.46,4.39,3.98,7.52,7.37,10.62  c-3.49,0.4-5.39-1.77-7.68-5.35c-5.68,4.11-9.51-1.99-15.96-3.06c2.54,6.93,8.77,9.44,7.05,16.12c5.23-1.52,8.23-0.48,11.86,0.62  c-1.06,4.63-1.6,8.84-1.87,12.23c9.55,2.42,11.16-6.44,17.93-13c-0.84,6.72-2.96,17.86-11.78,17.4c-1.2,1.72,1.15,3.69,0.33,5.11  c-0.91,1.58-2.59,2.3-4.35,2.41c-2.65,0.17-1.09-2.42-9.01-6.55c-1.92-0.22-2.52-0.02-1.88,1.92c2.02,8.39,6.73,16.17,16.29,14.47  c-4.4,12.97-14-7.81-31.6-10.31c1.52,5.09,4.39,10.21,10.82,11.43c-1.46,2.58-2.65,4-2.56,5.11c0.33,3.81,6.14-1.52,8.91,2.75  c0.8,1.23,0.38,3.25-1.05,4.54c-6.05,5.49-14.43,4.8-21.3,0.07c1.45,5.72,6.12,6.65,3.38,12.12c3.71-0.15,4.87-1.13,6.65-0.62  c1.2,0.35,0.85,3.78,1.93,4.16c7.82,2.75,13.45-2.74,18.55-8.75c0.99,6.54-3.63,9.71-8.98,13.36c4.02,0.47,7.04,2.6,10.29,2.48  c1.43-0.29,2.46-0.91,3.1-1.85c0.92-0.45,1.76-1.17,2.65-1.69c1.65-0.75,1.95-0.11,1.03,1.41c-3.86,8.98-13.54,16.67-21.62,23.24  l-15.93-11.31c0.15,5.56,5.31,7.15,3.66,12.47c-6.93-1.64-11.56-7.04-18.51-9.73c0.84,4.46,5.2,8.42,8.58,11.61  c-0.44,1-2.2,1.78-1.85,2.84c0.72,2.2,0.78,3.03,2.13,1.92c0.97-0.8,2.68-2.3,4.49-1.95c3.51,0.68,0.78,3.26-0.96,3.8  c-1.7,0.53-3.28,0.69-5.41,2.09c5.01,3.42,10.01,1.28,16.04,0.47c-0.54,5.01-5.08,7.98-8.87,9.06c-1.5,0.61-3.49,0.58-5.98-0.08  c0.33,6.23-5.86-4.8-5.34-1.13l0.69,4.89l0.18,1.04c-0.13,3.98-8.8,5.64-12.31,5.13c-6.25,2.72-11.07,9.36-20.13,11.34  c1.81-4.28,4.59-7.4,5.3-11.62c1.73-4.13-1.35-5.98-4.8-3.8c-0.65,1.41-3.4,1.64-4.62,2l-1.13,1.86c-0.25,1.81-1.55,2.98-2.75,4.34  c-1.05,1.19-3.72,1.95-3.76-0.66c-0.03-1.74,3.16-4.4,2.08-6.06c-0.99-1.53-6.54-1.33-9.32-3.61c-1.18-0.97-1.33-2.82,0.66-2.94  c0.82-0.05,1.92-0.49,3.32-2.29c3.05,1.77,6.38,6.31,10.42,7.16c1.75-1.26,1.71-5.8,3.18-6.51c2.08-1,4.87,1,7.06,1.45l5.14,1.06  c2.62,0.54,0.32-5.13-0.88-7.71c9.36-1.51,18.73-5.35,22.05-14.57c-1.79,1.63-9.96,4.14-7.66,1.04c0.84-1.14,1.89-3.25,0.45-4.37  c-2.32,1.6-5.64,6.8-8.39,4.97c-2.28-1.51-8.6-9.67-1.22-5.07l5.99-13.32c-3.62,0.25-3.77,1.62-5.2,2.2  c-1.21,0.49-2.15,0.05-1.75-1.66c0.2-0.85,0.49-2.14-0.14-3.6c-5.52,3.72-9.4,8.47-15.43,10.36c1.77-3.57,3.3-6.75,1.41-9.39  c-3.11,4.73-1.73,9.69-4.94,13.2c-1.04-1.07-2.01-3.79-2.94-3.39l-3.07,1.35l5.64-9.79c-9.15-0.54-16.96-3.6-16.04-12.75  c6.44,5.44,12.42,10.93,20.17,8.46c-1.74-2.17-2.92-3.71-3.12-5.18c-0.39-2.88,2.34-1.51,4.05-2.03l1.31,0.01  c0.49-2.17,1.63-3.13,3.44-2.85c1.06,0.07,4.43,0.65,4.99-1c0.34-0.99-4.15-3.99,0.5-4.28l1.09-0.87c3.97-0.84,0-6.06,3.89-8.51  c0.16-0.84-0.24-1.19-1.13-1.1c-1.23,0.72-3.67,0.25-4.73,1.26c-1.79-0.58-3.68-1.02-5.67-1.34c-0.71,0.26-1.4,0.59-1.99,1.06  l-3.89,2.03c-1.64,1.78-4.7,4.67-7.09,4.91c-0.72,0.07-1.06-0.88-0.77-2.04l0.46-1.81l0.86-1.1c3.21-4.55,6.5-10.27,7.27-16.64  l-17.95,12.14l3.81-6.82c-1.68-0.01-4.21,1.92-5.62,0.33c-0.82-0.93-0.69-3.18-2.06-4.33l-0.96-3.78c2.79-1.63,3.46,3.31,5.57,3.8  c3.34,0.78,2.35-5.73,6.64-2.02c3.39-4.34,6.41-10.53,9.08-16.92c-3.76-0.31-4.9,3.28-7.61,3.35c-0.45,1.01-0.79,1.02-1.16-0.05  l4.32-17.08c-2.79,0.53-3.17,2.98-5.11,4.06c-1.25-7.29,2.11-12.35,3.85-19.81c-11.81,5.74-4.8,22.49-10.58,16.89  c-1.17-1.13-5.81,4.31-3.77-0.28c1.15-2.59-2.84-6.07,2.4-3.88c4.08-5.82,4.86-13.89,7.62-20.92c-2.49-0.42-3.08,1.47-4.17,1.81  c-2,0.61-1.84-2.16-0.92-2.78c0.51-0.34,2.49-1.67,1.28-3.79c-1.84-0.26-3.96,2.91-5.63,2.41c-2.89-0.87,0.33-5.29-4.18-6.71  c0.05-4.4,5.68-7.22,4.16-13.56c-1.74,0.43-3.15,3.12-5.52,3.4l-3.37-38.33l-3.01,37.81c-1.93,0.75-3.35-1.79-5.12-2.59  c-1.41,4.99,3.86,8.27,5.3,11.53c-1.08,2.51-5.19,5.49-1.92,10.24c-3.43-0.32-5.9-0.45-6.23,2.11c-0.33,2.5,1.86,4.28,2.94,7.74  c-3.17-1.26-6.18-3.6-7.45-7.16c-4.24,5.02-1.83,9.48-0.22,12.18c1.7,2.85,2.7,4.33,8.44,5.01c-2.75,3.85-4.72,3.07-5.76,4.8  c-0.51,0.85,0.51,3.94,2.09,3.85l3.48-0.2c-1.9,3.12-2.69,8.2-5.43,8.09c-2.79-0.1-4.88-3.64-7.43-5.13  c-1.21,1.25-0.93,2.88-0.99,4.27c-0.08,1.88-1.53,1.54-2.54,0.45c-0.82-0.89-1.9-1.66-3.58-3.13c-1.93-0.26-1.42,4.19-1.54,6.03  c-0.12,1.98,3.69,3.73,5.33,3.78l1.02,2.91c-1.41,2.36,2.32,6.62,6.65,7.49c3.77,0.76,5.88-4.68,9.83-6.85  c1.64,5.27-4.7,7.94-4.11,12.71c0.01,0.69-0.33,1.08-1.01,1.19c-2.87,0.34-5.05-1.64-7.37-3.15l-3.18-0.75  c-7.01,1.12,4.99,10.08,2.08,15.19c-0.5,0.88-2.33,3.42-3.17,1.13c-0.62-1.72-0.21-2.63-5.24-3.76l3.03,7.23  c-4.94-3.29-10.4-2.85-15.61-7.14c1.45,9.54,6.94,18.88,16.94,18.8c-1.09,2.55-3.89,5.39-2.43,7.24c5.48,2.02,9.91-2.9,13.78-7.09  c1.01,4.03-2.96,8-5.08,10.73c-3.1,3.98-8.08-0.78-12.22,1.37c-1.44,1.43,5.36,7.12-0.33,6.2c-2.15-0.35-2.95-0.11-5.86-1.02  c1.2,2.67,1.8,6.86,3.73,8.33c2.84,2.16,7.12,2.73,11.02,2.69c-1.36,17.36-16.05-11.56-26.65-9.53c2.25,5.45,5.07,7.24,2.37,11.61  c2.8,0.52,6.4,0.71,6.27,2.42c-0.1,1.34,0.3,4.3-0.71,6.15c-2.9,5.27-10.91,2.02-15.15-1.18c-1.26,6.09,10.84,7.23,3.65,11.35  c-1,2.19,6.97,5.24,10.02,4.84c4.17-0.54,8.04-4.91,12.28-7.47c5.43,1.79-18.31,17.19-0.4,13.04l1.05-0.24l2.65-0.01  c1.82,0.61,1.84,1.52,0.04,2.2l-10.83,4.23l3.14,5.38c1.03,1.76-1.4,2.62-2.94,2.11c-1.01-0.33-1.88-2.51-3.73-2.63  c-1.63-0.1-1.52,3.65-3.02,3.03c-1.57-0.65-2.58-1.77-5.26-1.42c1.15,2.11,3.6,3.47,3.75,6.94c-7.27,2.41-14.13-1.2-21.64-4.77  c-2.48,4.42,2.39,5.69,1.89,10.05c-0.38,3.33,8.35,3.41,9.61,4.36c-0.42,1.65-2.12,3.27-1.32,4.65c-0.49-0.84,9.41,4.92,11.98,3.98  c1.91-0.7,5.08-3.79,7.05-3.09c5.53,1.98,9.05-1.47,5.51,2.24c-1.03,1.08-2.52,0.68-3.57,2.14c7.08,2.07,9.98-5.19,15.26-10.47  c0.96,8.14-21.37,26.1-31.23,23.59c-4.75-1.21-9.42-4.76-13.13-9.18c-1.38,5.61,3.93,8.05,6.32,12.34  c-4.59,1.99-8.32-0.97-13.24-3.59c-0.97,5.3,3.13,7.46,6.23,10.19c-5.3,3.49-0.39,3.58,1.61,3.67c2.64,0.12,3.62-1.44,6.18-2.03  c-2.23,6.39-8.6,8.23-16.06,7.43c6.17,7.1,16.44,7.81,23.11,1.92c0.28,3-1.8,4.44-1.14,6.07c0.78,1.91,3.42,2.23,4.75,1.5l4.04-2.21  c1.23-0.67,2.66,2.17,3.97,1.65c1.19-0.47,1.49-2.73,2.4-2.98c1.39,0.22,1.24,2.92,2.8,2.68c0.24,0.66-0.07,1.29-0.93,1.87  c-1.03,0.41-1.89,1.22-2.86,1.74l-0.97,0.79l-1.92,0.19l-2.96,0.92l-8.56-0.08l-6.72-1c-1.87,0.42-3.79-0.37-5.54-0.79  c-1.33-0.33-2.37-0.98-3.1-1.95c-0.26-0.14-0.67,0.02-0.96-0.08c-1.84-0.49-3.52,0.51-5.02,3c-1.94-0.75-4.25-1.69-6.25-1.83  c-0.97,0.35-1.02,1.33-0.16,2.91c1.01,0.6,1.65,1.53,1.72,2.73c-0.76,0.85-0.7,1.88,0.17,3.08c1.69,4.49,6.4-1.08,9.68,1.57  c-0.43,1.47-1.29,2.68-1.74,3.78c-0.41,1.01-0.64,2.61,1.36,2.55c1.5-0.05,3.06-0.51,4.7,0.16c1.06,0.43,0.89,2.04,0.33,3.32  c-1.75,1.88-2.01,2.79-0.77,2.74c1.84-0.3,3.75,0.1,5.59,0.13l2-0.62c1.79,0.17,3.95-2.32,5.71,0.18  c-18.4,4.76-19.66,14.06-26.78,5.09c-1.59,2.56-0.69,5.69-4.35,4.31c-1.68-0.63-2.75-2.17-6.75-3.28c1.38,4.89,3.2,10.46,8.34,13.49  c3.42,2.02,9.96,2.92,14.72,3.17c0.58,3.1,0.08,4.74-2.54,4.27c-1.78-0.32-3.68,0.12-5.72,1.2l-1.38,0.5  c-2.07-1.4-4.17-1.94-6.3-1.62c0.12,2.81-3.09,2.82-3.84,0.16l-1.64,1.96c-4.6-0.29-9.16-0.14-13.69,0.44l-2.01-1.47  c0.16-1.05-0.13-2.01,0.14-3.1c1.84-7.5-6.67,4.11-8.21,0.66c-0.52-1.17-0.54-2.71,0.43-3.48c-1.75-1.46-2.39-3-1.92-4.64  c0.78-5.19,4.23,0.69,4.45-1.09c0.28-2.4,2.89-9.67-1.32-8.06c-2.06,0.78-4.32,2.39-7.33,2.24c-1.12-4.13,4.97-1.66,6.55-5.5  c-3.09-3.46-1.75-7.23-0.13-11.58c-1.48-0.28-2.63,0.96-3.09,1.92c-4.36,2.22-7.05-2.12-1.91-4.77l-3.83-11.47  c-2.54-8.78-3.54-16.47-4.12-26.75c-3.27,9.92-0.47,34.46-9.06,35.83c1.65,2.24-0.45,3.8-0.95,4.94c0.06-0.13,2.52,3.07,6.39,0.1  c2.46,2.64-1.2,3.2-3.13,4.08c-2.21,1.01-1.41,3.1-4.51,0.08c2.03,3.21,0.01,5.46,0.05,8.46c0.85,0.54,1.29,1.62,0.98,2.51  c0.14,2.96-1.75,3.33-3.45,1.47c-1.05-1.14-2.42-1.97-4.63-3.53c0.17,5.67,5.06,11.71,11.35,11.92c-3.78,1.75-2.96,4-4.52,4.94  c-0.86,0.52-2.78-1.44-4.04-1.12c0.19,1.95,1.87,3.51,1.59,4.7c-0.48,2.09-2.77,1.4-4.01,0.88c-0.79-0.33-1.77-2-3.31-2.42  c-5.34,5.03,11.59,6.79,0.02,7.97c-0.72,0.07,0.31,1.85,0.25,2.51l-5.37,1.18c-42.45,0.19-85.51-0.11-127.61-5.52  c0.81,1.32,1.48,2.7,1.87,4.2c2.83,10.93,2.4,29.23,2.12,40.93c-0.28,11.46-0.73,29.11-3.62,39.78c-0.51,1.86-1.48,3.51-2.7,5  l-0.38,5.6c1.4,17.06,2.76,34.02,4.07,50.87c8.95-9.54,15-22.12,14.47-35.39c1.37-1.38,1.79-3.28,1.26-5.72  c-2.62-2.78,0.17-10.68,1.77-14.2c6.08-13.38,11.04,1.31,6.61,7.48c1.84,11.53,4.34,23.43,10.25,34.04  c1.43-9.02-1.1-16.79,3.98-24.53c-0.12,8.82,2.32,16.89,5.45,25.49c22.97,63.24-16.63,77.07,14.03,104.61  c1.82-10.62-1.01-20.11,2.65-30.19c3.81,10.54,3.51,21.19,10.45,29.79c4.4-4.69,1.42-10.17,4.28-15.76  c5.15,18.69,6.74,38.05,7.59,57.18l2.1,3.61c0.76,10.21,1.08,20.44,0.96,30.68c0.73,6.87-0.72,10.49-4.33,10.87l-67.1-56.5  l0.35-2.22c-1.51-2.71-2.07-5.88-1.68-9.5c-2.67-13.1-5.63-26.07-8.89-38.92l-7.36,10.07c-14.64,19.69-33.61,5.93-32.64-15.08  l2.92-47.16c-0.87-6.39-2.25-12.69-4.12-18.9c-5.5,12.92-10.77,25.85-15.79,38.8c-0.65,9.35,0.64,18.84,3.9,28.48  c1.25,7.92,0.8,16.08-2.15,23.53c-6.93,11.11-10.66,22.76-11.17,34.97c-0.21,3.22-1.4,4.64-3.57,4.26l-19.85-10.83l-4.5,9.21  c-2.3,10.38-2.32,21.14-0.04,32.3l-1.83,1.94l-0.03,2.11l-62.93,28.04c-5.21,1.02-6.01-7.11-6.37-11.28  c0.52-15.92,3.19-31.69,7.99-47.3c2.86-8.98,2.43-17.1-1.31-24.36c-2.65,0.1-4.2-6.21-4.48-8.63c-1.2-10.11,2.04-10.3,8.58-2.09  c5.26,6.61,11.1,18.53,12.06,26.92l-1.41,2.92l0.66,1.04c2.86-0.45,1.78,1.02,0.29,2.75l2.07,1.73c-0.49,8.09-0.43,15.59,0.18,22.5  l6.8-15.38c6.27-8.47,10.37-17.53,12.32-27.17c0.07-9.1-0.3-18.19-1.12-27.29c1.25-16.18,10.64-22.46,18.28-4.49  c13.5-0.13,13.46-18.91,5.83-26.63c-0.2-0.86-0.37-1.85-0.38-2.73l-0.92-2.06l-18.56-31.76c-12.66-21.67-10.36-46.68,4.45-67.89  c-1.48,17.8-4,36.11,8.01,51.38c11.02-17.56,15.68-37.94,12.94-58.41c7.78,12.58,8.73,27.25,14.66,42.44  c12.73-13.89,8.38-34.24,3.26-50.06c-2.35-0.23-3.2-0.62-1.17-2.04c-3.15-5.48-4.43-10.26-5.02-17.09  c-1.88-5.81-3.74-16.74-3.14-22.82c-0.43-0.57-0.82-1.15-1.1-1.78c-1.62-3.67,4.14-26.32,6.68-30.37c2.74-4.37,3.26-4.81,5.41,0.09  c1.6,17.95,9.54,43.88,26.25,52.93c3.43,1.86,6.69,1.5,10.05-0.72c15.73-10.39,20.77-43.59,20.84-61.35  c-19.02-2.33-38.17-5.13-56.77-9.91c-23.24-5.97-38.81-15.33-57.96-28.84l-24.44,8.57l-6.56-1.66  c-24.21-9.14-47.48-20.45-69.81-33.92c-6.03-2.43-18.49,1.99-24.21,4.72c-21.96,15-46.24,15.17-71.95,13.5  c-0.5-1.8-0.95-3.64-1.35-5.52c-2.98-0.69-1.24-8.34-4.24-1.57c-1.46-7.38-1.62-13.83-4.8-22.05c-1.47,8.75-2.9,15.99-5.25,22.93  l-1.17,0.64c-1.42,0.39-0.99,1.95-1.57,2.85l-3.78,1.85c-7.06,0.41-37.37,0.77-41.32-2.05c-0.62-0.44-1.15-0.99-1.67-1.57  c-0.22-1.13-0.61-2.23-1.43-3.07c-2.55-0.28-2.37-1.18,0.1-1.81c-0.83,0.06-1.19-0.64-1.09-2.1c-0.89-0.82-1.88-1.4-2.98-1.75  c-1.74-2.72,4.58-9.96-1.59-7.54c-0.96,1.74-3.85,1.01-4.05-1.1c2.14-1.56,3.69-2.12,4.19-4.36c0.76-3.43-2.27-3.65-3.26-5.73  c2.05-4.09-2.07-4.83-1.74-8.04c5.79-1.42,10.06-5.31,16.38-7.89c71.71-29.26,140.69-64.17,208.44-102.35  c78.46-44.21,156.11-88.72,236.92-130.06C733.14,682.26,894.07,614.69,1056.99,572.77z" />
<path class="st7" d="M256.39,1292.86c2.06,2.25,2.24,5.42,0.52,9.51c-3,8.03-8.28,14.68-15.82,19.94  c12.29,8.69,22.86,18.92,31.7,30.71c5.38,11.56,11.95,21.87,22.16,29.8l0.81,3.17c-0.66,0.7-1.35,1.27-2.11,1.41  c-16,2.87-40.52,0.37-56.54-2.9c-11.4-2.33-22.27-5.42-31.25-12.93l-21.81-18.39c-2.15-5.59-2.56-11.56-1.23-17.91  c-10.67,1.89-21.16,4.57-31.47,8.03c-40.35,18.08,17.9,30.01,33.88,33.17c9.12,2.29,17.61,5.76,25.47,10.4l0.72,1.97l-6.18,1.98  c-31.83,0.69-63.2,6.8-94.01,14.27c-10.93,2.65-22.14,8.83-27.52,19.02l56.24,21.43c1.07,1.09,1.11,2.41,0.6,3.81  c-23.02,20.8-45.54,42.17-67.57,64.11l41.75,21.69l117.18-28.03c-1.75-11.42-2.62-17.13-2.62-17.13c-0.36-3.71,0.67-5.72,3.08-6  c0.68-0.04,1.35-0.05,2,0.07c9.6,1.76,28.14,42.98,28.43,53.96c0.18-0.34,0.45-0.55,0.83-0.62c3.27-0.65,9.2-1.56,11.86-0.42  c2.98-1.37,15.76,0.39,15.77,3.66c0,0.59-0.29,1.17-0.68,1.76c-7.81,4.19-16.03,7.55-24.66,10.09c12.87,1.77,25.82,2.23,38.85,1.36  c12.6,0.66,22.71,4.25,28.65,16.36c8.63,1.14,17.35,2,26.15,2.58c2.99,1.91,3.39,2.82,0.2,4.99c3.4-0.58,6.54,1.79,3.5,4.51  c-9.33,4.19-17.96,9.56-26.42,15.25c-5.04,3.39-8.63,6.09-11.69,10.82c-11.51-0.76-23.37,0.08-34.62,2.76  c19.26,0.37,38.53,0.42,57.82,0.14l35.47,2.4c4.74-16.44,11.33-32.18,19.77-47.23l3.4-2.58c0.36-1.65,0.74-1.67,1.13,0l2.21,1.61  c4.41,27.24,50.39,38.48,59.72,9.3l2.27-1.36c0.78-2.88,5.6-1.6,5.86,1.16c2.33,1.08,3.27,3.48,2.8,7.2l-1.27,21.15  c-1.62,1.08-1.03,1.26,1.77,0.53c19.29,3.23,38.58,6.38,57.88,9.47c56.54-0.48,113.08-1.46,169.64-2.95  c18.3-2.43,36.43-5.82,54.39-10.16c-14.67-7.09-29.58-13.66-44.73-19.7c-10.6-4.87-21.48-9.92-30.66-17.24  c-0.47-0.38-0.77-0.98-1.06-1.63c-0.3-0.68-0.48-1.41-0.63-2.16l1.7-2.12c18.02-3.11,32.92-17.36,39.32-34.17l2.42-1.24l1.97-0.54  c13.01,3.94,26.16,7.56,39.45,10.85c4.48,1.53,9.65,4.08,6.24,9.27l84.26,28.11c-0.67-4.44-0.6-8.65,0.24-12.64l32.17-27.11  c27.87-27.66,23.8-45.14-3.48-70.72l-44.27-36.82l0.35-2.2l135.97,28.51c-2.97-11-11.27-17.75-17.77-26.41  c10.67,5.38,16.43,16.08,22.95,26.02c0.12-9.15-6.72-15.67-12.2-21.68c11.5,2.67,13.84,14.59,19.23,23.81l-3.94-26.06l9.48,18.27  l-2.92-29.89c1.41-2.01,2.1-4.26,2.08-6.73l1.86-1.1l1.72,1.47c2.75,8.22,4.35,16.79,4.81,25.73c1.16-11.83,4.28-23.01,9.36-33.54  c-1.82-26.37-8.54-52.37-20.67-75.91c1.51,11.86,2.42,23.66,2.74,35.39l-1.19,2.02c-2.03,1.95-4.21,0.08-4.58-2.24  c-0.68-17.73-2.29-35.05-5.2-53.59c29.61,33.7,39.13,87.27,35.02,130.66c7.62-22.07,10.68-45.31,26.15-62.89  c-12.27,28.2-22.13,55.08-25.93,84.79c-0.22,1.71-2.49,3.62-0.64,4.68c1.33,0.76,3.12-0.34,4.24,0.07  c3.58-1.79,10.73,1.23,12.57,4.68l-14.05,15.19c-5.49,5.93-12.58,8.57-21.24,10.87l28.32,7.21c14.58,3.71,28.4,19.92,31.02,36.19  c2.92,18.16-43.6,64.15-57.44,74.13c-13.11,9.46-30.09,16.82-45.98,21.85c-35.59,11.26-69.85,22.71-102.32,40.32l-856.14-0.05  l0.28-392.69C87.15,1276.86,173.3,1277.08,256.39,1292.86z" />
<path class="st8" d="M536.85,1352.68l68.5,57.67c1.64-15.31,0.15-29.94-0.47-44.12l95.93,22.5c5.36,1.24,10.39,3.28,15.07,6.11  c0,0,0.11-0.94,0.33-2.82c0.58,0.03,1.17-0.08,1.75-0.03l1.16,0.74c0.59,0.02,1.27,0.16,1.84,0.1l0.99,0.18l124.72,26.71  l43.62,36.26c11.32,9.41,23.65,22,24.51,37.72c0.94,17-11.94,31.12-23.94,41.12l-27.88,23.23l0.76,14.05l-91.17-30.6  c20.67-8.49-41.24-14.27-42.81-19.99c-2.81-0.58-1.98-2.12-0.33-3.88c-1.74-0.35-2.97-1.8-3.68-4.35  c-17.34-15.19-35.2-30.02-53.58-44.48l-2.94,1.96c-30.3-20.66-60.78-41.12-91.45-61.39c-31.2-21.71-61.9-46.21-80.96-79.71  l-1.6-0.09c1.75,2.02,1.75,2.22-0.94,1.91c0.57,1.8-0.18,3.74-2.24,5.8c-5.49,9.2-13.24,16.62-23.24,22.24  c-1.69,3.75,0.3,6,3.22,8.38c22.15,18.05,45.21,36.03,68.19,53.33l19.17,12.52c4.33,2.64,6.39,5.7,6.2,9.16  c12.49,11.68,18.74,17.52,18.74,17.52l1.18,3.35c1.09-0.26,2.29,1.11,2.14,2.33l1.69,1.57c-0.98,9.28,6.47,17.21,15.49,18.32  l1.76,2.02c1.68-0.08,2.26,1.31,1.74,4.18l78.32,64.6l-0.32,2.23c23.45,19.37,55.5,25.97,82.97,41.79  c-21.98,3.17-43.73,10.88-66.03,11.3l-155.1,2.93c-23.9,0.45-46.86-8.86-70.34-9.95c-0.31-12.12,2.69-20.69,0.37-30.57  c-3.14-0.57-3.05-7.04-0.23-7.76c-0.54-0.29-0.58-0.63-0.12-1.04c-2.46-1.18-2.42-1.97,0.15-2.88c-0.5-0.38-0.41-0.7,0.2-0.96  c-2.09-1.77-1.04-5.64,1.79-5.8c-0.35-0.07-0.65-0.17-0.79-0.37c-1.36-2.11,6.64-31.76,9.11-35.89c21.05,3.99,40.78,1.25,60.85-5.52  l20.36-0.65l-11.8-2.54c-4.24-0.52-6.48-2.13-6.71-4.84c-0.29-3.23,7.68-7.51,9.79-4.18c6.51-1.88,12.74-4.35,18.68-7.42  c5.16-3.54,7.97-6.14,5.75-12.34l1.34-4.09l-2.42-0.48c-5.07-6.22-11.23-11.52-18.48-15.9l-0.1-2.57l-1.93,0.88l-44.42-37.81  c-5.34,17.31-10.39,34.79-15.17,52.44l-2.16,0.59l-0.86,2.98c0.7,0.28,1.71,0.82,1.62,1.35c-1.04,5.78-5.6,23.67-7.9,28.49  l-2.23,0.84c1.17,1.46,0.64,1.99-0.97,1c-1.62,1.45-1.89,0.71-1.38-1.3c-1.74-0.67-1.64-1.42,0.23-1.6l0.86-1.05  c-2.43-1.16-2.39-1.88,0.17-2.72c-0.51-0.42-0.47-0.78,0.12-1.08c-2.12-1.62-1.45-4.94,1.12-5.64l0.83-1.07  c-2.56-1.32-0.49-7.32,2.1-7.57c0.89-6.01,1.73-12,2.54-17.97c4.95-17.54,10.34-34.94,16.16-52.21l-44.35-36.35l0.32-2.22  c-0.46,0.04-0.91,0.03-1.31-0.1c-0.88-0.29-12.26-12.05-12.28-13.65c-0.02-1.43,0.86-3.93,2.32-3.62  c4.7-12.59,16.36-31.03,28.01-38.21c4.5-2.77,9.6-3.59,14.14-0.38c10.95,7.72,21.67,15.67,32.21,23.96c0.78,0.61,1.36,1.5,1.95,2.41  C535.93,1350.67,536.41,1351.66,536.85,1352.68z" />
<path class="st4" d="M653.71,1091.4c0.58,0.72,1.28,1.37,2.11,1.78c1.81-1.18,2.55-0.6,1.74,1.37l-3.74,6.44l4.37,2.81  c0.88,0.57-0.49,2.52-0.54,3.56c-1.38,0.89-2.14,2.02-2.28,3.39l-2.31,0.19c-0.47,0.5-0.8,1.13-1.13,1.72  c-1.08,1.98-2.38,1.33-4.03-0.02l-1.69,1.11c0.77,4.96,4.25,8.85,9.84,10.43c-0.95,4-4.24,4.29-7.71,4.69  c-2.55,0.3-3.64-3.45-8.28-4.3c0.32,10.92,9.39,14.41,0.72,15.09c-2.3,0.18-3.53-1.7-6.92-2.62c1.48,4.19,3.61,8.09,7.59,11.87  c-2.92,1.92-6.85,3.17-10.48,1.33c-0.89,5.09,4.2,6.25,2.72,9.61c-2.6-0.19-2.93-1.5-4.37-1.71c-1.32-0.2-1.66,0.86-0.51,2.1  c0.51,0.55,0.99,1.55,1.99,2.34c1.63,1.78,1.6,2.71-0.08,2.79c-2.2-0.17-3.54,0.69-2.4,2.93c0.52,1.01,0.88,2.6,2.23,3.14  c1.69,0.85,1.78,1.84-0.01,2.53c-1.44-0.65-3.17-0.53-4.69-0.7c-1.15,2.16-2.34,1.81-3.58-1.04l-1.01-1.13l-0.84,3.89l-0.22,1.09  c-1.35,3.12-0.15,6.81-3.53,10.33l-5.25-26.3l-3.65,12.95c-2.12-6.23-4-12.34-8.3-16.04l-2,7.03c-0.42,1.48-1.72,1.45-2.2-1.29  l-1.77-0.92c0.65-1.48-0.29-1.25-2.83,0.69c-0.92,4.79-0.92,10.31-4.72,14.18c-2.97-2.97-1.91-5.78-3.65-8.07  c-2.35,2.36-2.98,0.32-3.49-0.92c-0.65-1.58-1.28-2.82-1.03-4.05c-1.86-1.4-4.16-1.12-6.9,0.82l-1.71-1.82  c-5.92,6.86-6.09,19.15-11.3,28.01c-4-1.44-6.76,4.54-8.77,2.43c-1.32-1.39-2.44-5.33-2.94-7.49c-0.85-3.7,0.57-8.11-1.86-12.07  c-4.34,5.95-5.06,12.46-6.52,18.79c1.02,5.07-1.66,11.08-5.68,5.21c2.11,0.29,1.82-0.9-0.28-0.99l-5.04-16.68  c-0.91,19.08-11.86,11.19-8.42-2.9c4.74-29.92,6.52-59.27,1.49-91.03C564.9,1090.09,609.17,1090.54,653.71,1091.4z" />
<path class="st7" d="M1052.11,1430.43l-1.09-2.03c8.39-10.31,17.48-20.09,27.26-29.34c2.85-3.59,5.05-7.56,6.6-11.89  c1.33-6.66,5.2-13.56,8.79-20.11c1.14,5.86-3.13,10.39-3.13,16.15c27.39-16.44,53.91-32.89,84.28-46.83  c-2.42,10.53-4.41,24.06-12.15,31.45l-28.61,27.35c-21.29,20.35-51.33,28.68-78.54,38.62  C1054.14,1432.72,1053.31,1429.97,1052.11,1430.43z" />
<path class="st8" d="M1052.11,1430.43c-6.93,14.06-0.42,22.5-12.31,35.35c-4.33-1.16-8.37-3.15-12.57-4.68  c0.66-19.41,6.91-35.3,22.71-47.33l34.94-26.6C1089.17,1398.13,1058.69,1417.1,1052.11,1430.43z" />
<path class="st6" d="M1039.69,897.4l-0.97,0.28l-8.64,3.65l-0.96,0.73c-0.95-0.04-1.91,0.14-2.85,0.27  c-1.16,0.37-2.45,0.62-3.87,0.77c-3.03,0.76-7.11-1.03-9.87-0.08c-2.28,1.24-4.05,3.81-7.48,1.56c-1.86-1.22-0.03-5.04-1.32-7.8  c-3.54,1.88-5.2,9.11-9.36,6.6c-2.37-1.43-9.91-5-4.28-7.99c20.76,9.53,9.7-15.07,28.54-12.37c5.88,0.84,11.44-3.13,16.73-4.52  c0.02,3.72-2.27,6.39-4.72,9.8c17.53,4.99,23.41-9.76,37.32-14.51C1061.23,884.68,1049.92,891.15,1039.69,897.4z" />
<path class="st4" d="M712.25,1115.31c-2.07,0.17-1.2-1.8-0.12-3.26c2.26-1.22,4.61,1.66,6.74,0.15c0.24-0.17,5.59-7.24,7.86-8.57  c0.93-0.55,2.4,2.84,3.81,2.28l13-5.17l-0.74,10.05c6.13-1.83,11.11-5.82,18.05-6.59c-8,8.1-19.38,15.62-30.48,15.15  c-0.83-0.04-2.23-2.4-3.17-2.87c-1.6-0.78-0.88-0.29,0.58,4.74C722.18,1122.66,714.95,1120.83,712.25,1115.31z" />
<path class="st6" d="M909.81,935.25c-3.41,13.84-22.89,20.09-35.9,15.12c-4.22-1.61-7.06-4.78-6.8-8.4c0.28-1.8,4.27-0.78,4.56,0.86  c5.86,3.01,11.02,0.17,16.06-3.94c0.8,2.46,0.23,3.63-0.11,5.2c-0.28,1.28,1.03,1.98,2.46,1.31c0.84-0.39,1.82-1.3,3.09-2.37  l3.25-2.75c1.17-0.99,4.13-2.21,2.42,1.97c3.34-0.55,4.83-3.94,7.45-6.08C907.1,934.74,908.72,933.88,909.81,935.25z" />
<path class="st5" d="M710.62,1112.01c2.11,1.54-1.64,7.33-4.1,6.25c-1.89-0.24-4.22,0.78-5.62-0.85l-0.79-0.93l-0.17-1.92  c-0.86-0.7-1.23-0.53-2.02,0.11c-0.34,1.21-1.53,1.81-2.39,1.7c-1.62-0.19-2.8-1-4.44-2.31c-0.71,1.96-1.03,4.6-2.32,5.45  c-2.39,1.58-5.23,0.4-6.98-0.94c-1.68-1.29-3.25-4.93-0.94-6.08c1.61,1.99,2.67,3.35,3.45,4.75c0.91,1.64,2.39-0.42,3.36-1.08  c1.93-1.3-1.99-4.12-1.04-5.53c1.47-2.17,4.74,0.07,6.56-0.29c2.31-0.47-0.01-3.81,2.22-4.78l3.87-1.69  c1.69-0.74-1.43-1.62-1.3-4.91C704.54,1098.67,709.28,1105.75,710.62,1112.01z" />
<path class="st6" d="M840.97,990.57c-2.49,0.56-5.05,0.85-7.68,0.87c-1.57-0.11-3.22-0.03-4.62-0.83l-1.21-0.68  c-2.19,0.1-4.38,0.16-6.56-0.1l-1.08-0.16c-0.31-0.05-0.65,0.03-0.96-0.03l-2.75-2.01l-0.86-0.86l-0.98-0.96  c-0.41-1.33-1.24-2.62-1.59-3.56c-0.97-2.58,0.97-2.15,2.13-1.44l3.4,2.08c2.85,1.74,4.04,5.84,6.82,5.67  c3.42-0.2,7.54,0.19,7.26-3.62c-0.08-2.07,1.8-2.01,2.14,0.01c2.29,0.01,1.74-3.67,3.27-3.71c2.4-0.06,3.37,1.91,4.96,3.24  c0.93,0.78,3.03-1.49,3.65-2.46c0.88-1.39-3.04-1.54-2.35-4.48c4.95-0.09,7.75,4.18,12.06,5.85c-3.62,2.79-7.01,7.4-11.37,3.74  L840.97,990.57z" />
<path class="st3" d="M712.32,1082.78c3.08,1.21-0.28,11.48-3.62,9.61c-1.22-0.65-2.71-0.48-3.98-0.89c-0.9,0.47-1.91,0.81-3.02,1.02  c-2.31,4.58-7.88,5.58-12.36,7.77c-0.41,0.44-0.76,0.36-1.04-0.2c0.1-2.24-1.33-4.43-0.63-6.65c1.61,0.95,2.51,2.1,3.73,1.53  c0.91-0.43,1.39-1.67,0.85-2.23c-0.95-0.98-2.6-0.53-4.77-1.48c2.32-3.32,7.26-3.39,7.5-7.54  C700.61,1082.05,706.51,1083.02,712.32,1082.78z" />
<path class="st6" d="M1129.92,728.64c-0.87-0.49-1.97-0.89-2.88-0.22c-2.38-0.18-4.68-0.49-6.81-2.04c-1.95-1.42-2.23-3.9-0.75-6.16  l0.99-3.98c4.07-1.64,5.83,4.97,9.75,8.05c2.48-2.67,2.43-7.03,6.55-4.63c1.96,1.14,4.61,3.29,4.4,5.74  c-0.2,2.35-1.27,6.36-3.89,6.16C1134.72,731.36,1131.64,730.37,1129.92,728.64z" />
<path class="st6" d="M1009.7,928.63c1.21-0.41,1.26,0.46,0.14,2.6c-3.59,6.19-11.25,6.46-16.22,11.4c-1.03,0.96-2.76,0.65-3.87-0.04  c-0.82-0.43-1.27-1.1-1.89-1.71c-1.38-0.62-2.79-1.29-2.03-2.95l0.03-0.87c0.55-0.72,0.53-1.37,0.06-2.08  c-2.73,0.35-11.98-10.84,12.4-1.02C1002.78,935.17,1006.21,929.88,1009.7,928.63z" />
<path class="st6" d="M1177.8,916.77c0.88,0.44,1.62,0.45,2.21,0.03c0.15-1.63,2.31-4.86,4.11-3.71c0.73,3.12-0.64,6.65-1.39,9.41  c-0.68,0.94-2.03,0.48-2.88-0.07c-1.41-0.98-3.01-1.86-4.73-1.98l-2.06-0.82c-4.22-1.79-9.66-1.89-12.25-5.78  c-0.74-0.8-0.99-1.97-0.16-2.84c2.9-4.19,6.59,3.51,11.61,0.94l4.45-0.42C1177.34,911.48,1176.65,915.52,1177.8,916.77z" />
<path class="st9" d="M625.86,1173.26c0.18,1.9-0.28,4.17,1.05,6.04c0.93,1.29,3.26,1.61,5.69,2.88c-0.86,0.74-2.31,1.21-2.89,1.96  c-1.42,1.84-0.25,2.54,0.7,2.5c2.05-0.07,3.12-0.39,6.14,0.38c-1.06,2.96-8.46,5.05-10.84,1.79c-3.75-5.15-2.82-12.24-4.45-17.73  C623.15,1168.88,623.88,1173.38,625.86,1173.26z" />
<path class="st7" d="M716.21,1392.03c2.66,4.65,10.99,4.07,12.3,11.98l-27.7-15.27C705.65,1389.87,711.94,1388.59,716.21,1392.03z" />
<path class="st6" d="M1054.09,956.94l-1.1,1.11c-1.19,0.09-2.13,1.54-4.12-0.26c5.85-5.33,10.87-11.4,17.74-16.13  C1067.34,949.85,1059.92,953.71,1054.09,956.94z" />
<path class="st9" d="M711.58,1140.36c-3.94,6.22-10.36,6.47-15.17,10.9c9.85-17.15-13.68-1.12-12.98-14.18l4.51,4.41  c1.62,1.59,5.64-2.26,7.16-1.74C700.78,1141.71,704.48,1143.03,711.58,1140.36z" />
<path class="st6" d="M970.39,902.38c0.24,1.78,0.56,5.12,2.13,7.02c1.02,1.23,4.57-1.7,7.04,2.49c-1.79,3.23-7.03,5.17-10.39,7.16  c-0.89-4.02,3.54-5,2.08-8.24c-1.71-1.29-3.65-2.87-4.59-4.05c-0.85-1.07-0.87-4.34,0.13-5.29  C968.79,899.09,970.2,899.21,970.39,902.38z" />
<path class="st3" d="M1082.04,605.85c-2.66-0.02-3.51-2.79-4.77-4.79c4.33-1.7,7.92-4.63,12.93-7.78  C1090.74,599.04,1085.53,602.45,1082.04,605.85z" />
<path class="st6" d="M1200,528.93v205.86c-4.59,2.02-8.04,6.07-13.43,7.15c2.26-3.35,6.15-6.23,5.29-10.73  c-6.08,4.42-9.97,9.37-16.9,11.29c0.95-3.58,3.09-6.02,2.29-9.26c-9.32,8.78-20.22,15.66-31.88,18.43  c4.25-8.32,9.39-16.54,6.18-24.33c-0.98-2.37-5.3-2.43-5.3-4.4c0-2.13-1.08-6.5,0.88-6.6c5.48-0.29,8.78,5.34,14.1,4.38  c-1.51-4.28-4.23-7.47-2.55-9.75l25.13-4.26c-6-5.43,5.71-6.81,4.99-13.03c-8.15-0.3-17.08,3.69-25.6-0.46  c7.41-4.92,15.94-8.77,18.82-17.95c-5.64-2.2-7.06,5.29-11.88,5.25c-1.1-4.32,1.91-7.29-1.24-11.46  c-0.9,6.81-25.63,24.83-24.55,19.92c0.16-0.74,0.87-1.63,0.95-2.43c0.92-0.6,1.7-1.86,1.68-3.02c-0.05-2.55,0.17-6.92-3.3-5.16  c-1.53,0.77-3.83,3.19-6.67,4.08c2.73-17.6-15.33-7.84-19.45-25.8c-0.45-0.97-0.04-2.44,0.84-1.47c0.65,0.72,1.29,1.17,1.93,1.57  c2.65,6.33,13.15,9.95,21.83,6.75c-0.7-2.76-4.15-3.53-4.57-6.63c4.17,0.27,6.63,3.69,10.91,3.5l-4.91-10  c6.08-0.86,12.7,1.11,18.17-0.91c0.86-1.33-6.2-6.78-2.44-7.06l5.61-0.43c-6.19-5.3,15.38-19.57-2.15-13.1  c-3.04-0.08-0.93-4.64-3.15-3.21c-2.36,1.53-2.75,3.07-4.88,5.43c-1.31-2.11-0.31-5.45-2.22-4.92c-8.03,2.22-6.73,8.65-10.29,7.28  c-1.77-0.68-0.56-4.53-4.18-5.54c-2.11,5.12-0.79,12.04-8.07,12.01l13.65-31.33c-6.34,0.3-9.26,5.85-12.94,9.87  c-1.09-1.28-1.24-3.83-2.72-4.1c-5.49,3.62-8.16,10.04-14.49,13.09c-2.05-4.81,2.85-7.14,5.66-11.63c-7.14-1.23-11.04-7-9.63-13.79  c3.97,2.38,6.54,8.12,11.23,5.96c3.97-1.84,12.09-3.46,7.43-7.94c0.34-0.64,0.63-1.29,0.86-1.97c7.5-0.6,8.19-10.52,8.15-17.19  c-6.69,0.68-8.26,6.28-13.79,8.33c2.82-9.51,9.8-15.31,10.09-24.14c-3.08-0.67-5.42,0.57-8.14,3.33c1.58-7.62,0.75-16.04,5.64-22.19  L1200,528.93z" />
<path class="st9" d="M678.95,129.13c1.66,1.31,3.15,1.27,4.45-0.14l365.65,0.23c-79.21,40.58-160.84,76.46-243.9,110.63  l-103.22,42.47c-68.02,27.99-184.47,62.96-256.16,79.83c-14.04,3.3-25.51,5.22-39.69,5.45c-20.96,0.33-41.06,8.96-60.67,12.56  l-1.15-2.39c2.5-10.01,10.33-27.97,21.51-29.28c0.04-0.6-0.25-0.9-0.87-0.9c-1.34,1.38-4.34,3.33-5.63,1.14l-4,2.56  c-0.22,0.91-0.54,0.9-0.96,0.03l-2.02,1.07c1.6,2.79-2.88,5.63-4.68,2.93l-1.06,0.89c-0.86,3.35-3.16,6.33-6.91,8.95  c0,0-3.57,4.48-10.72,13.44c-1.52,4.1-3.66,7.2-6.42,9.29c-63.45,11.25-125.62,31.96-187.54,51.19l-26.55,8.24  c-0.04,1.78-0.38,3.81-2.81,3.79c-6.07-1.68-12.14,0.79-18.84,2.4c-28.57,6.88-56.04,17.38-84.61,21.54l-0.21-6.55l0.81-339.51  L678.95,129.13z" />
<path class="st2" d="M364.89,347.58c1.42-0.75,1.76-0.47,0.87,0.9c-11.68,5.73-15.82,19.71-20.35,31.67  c-8.77,23.16-2.47,50.21,15.89,67.3c18.52,17.23,44.17,21.43,67.72,12.13c1.38,0.47,1.1,1.53-0.83,3.17c-0.49,0.48-0.55,1.33-1,1.85  l-1.06,0.94c-9.88,5.54-19.59,11.76-31.49,13.32c-23.52,3.09-46.71-6.79-60.82-24.59c-14.87-18.76-18.73-43.86-11.32-66.42  c4.23-12.89,14.05-23.2,24.05-31.67l1.06-0.89c1.78-0.56,3.35-1.61,4.68-2.93l2.02-1.07c0.3-0.03,0.69,0.1,0.96-0.03l4-2.56  C361.15,348.33,362.96,347.77,364.89,347.58z" />
<path class="st4" d="M76.01,1017.64c5.19,0.65,10.34,2.41,15.46,5.28c5.25,1.17,9.65,3.23,13.2,6.2c0.47,1.19,0.72,2.5,1.27,3.32  c0.77,1.13,3.33,0.43,4.24,1.2c1.49,1.47-1.4,3.56-2.7,4.53c-1.69,1.26-3.46-0.67-6.1-1.71c-1.67,5.04,2.9,8.02,7.59,9.31  c-1.82,4.73-5.24,1.63-8.81,1.76c-0.11,1.97,1.68,4.37,0.21,5.27c-0.7,0.43-2.45-1.22-4.01-0.6c1.11,4.2,4.53,6.03,8.13,8  c-2.78,1.85-4.48,0.68-5.56,0.49c-2.04-0.37-3.12,1.65-1.34,2.95c1.17,0.86,2.51,1.14,4.05,1.76c-1.83,3.21-6.71,2.13-10.19,1.92  c-1.24,6.3,5.9,6.23,5.64,10.75c-2.99,1.25-4.77-0.55-6.52-0.55c-1.8,0-2.68,1.77-3.08,3.45l0.68,1.05  c0.38,2.93,4.87,1.88,5.49,3.59c0.59,1.63-3.74,3.86,0.8,5.98c-4.8,3.27-8.99-0.79-13.03-3.87c-2.14-1.63-7.16,0.17-9.4-3.45  c5.07-1.93,10.65-3.78,10.58-9.71c-2.06-0.34-3.93,0.46-5.58,0.45c-0.48-0.34-0.49-0.65,0.01-0.9c0.92-1.98,3.26-2.79,3.95-5.82  c-2.04-0.76-4.74-1.57-3.56-3.46c0.57-0.9,2.95-2.25,3.08-4.51c-1.68-0.9-7.12,0.25-9.53,1.62c-2.55,0.9-3.44-0.88-2.74-3.12  l0.05-2.68c1.38-0.55,2.62-1.26,3.74-2.12c1.37-2.89,3.76-6.54,2.56-10.49c-7.43,6.01-17.4,7.11-22.73-0.55  c4.01,2.58,10.1,1.76,13.28-1.01c2.6-2.26,4.2-7.83,5.16-12.39c-2.79-3.18-6.27,0.78-9.76,2.66c-1.36-7.52,4.07-11.63,4.65-17.54  L76.01,1017.64z" />
<path class="st6" d="M111.35,1005.22c-0.1,0.87,0.44,2.11,0.2,2.92c0.8,0.77,1.97,1.48,3.51,2.13c-0.3,1.34,0.46,4.37-1.05,5.16  c-2.32-0.23-5.14-0.48-6.24,1c-1.31,1.76,0.7,5.06,1.29,7.25c0.84,0.73,4.1-0.91,4.1,1.38c0,1.75-0.83,3.74-1.93,4.46  c-2.19,1.43-2.49-1.28-3.05-3.31c-0.96,1.5-1.81,2.83-3.52,2.92c-9.97-2.46-19.79-6.37-28.66-11.48  c11.53-3.86,24.4-6.27,34.31-13.07C111.32,1003.82,111.68,1004.02,111.35,1005.22z" />
<path class="st8" d="M256.39,1292.86l23.04,4.38c12.8,7.2,25.49,15.16,37.66,23.51c17.46,11.99,40.06,34.75,35.94,57.67  c0.35,0.25,8.2,0.79,8.41,0.42c4.47-8.15,5.74-23.58,4.57-32.85l1.42-2.96c16.28,8.06-13.81,58.89-2.14,81.66l64.79-28.87l0.88-2.45  c12.26-5.1,24.51-10.21,36.76-15.31l1.79,1.33c3.26,1.55-1.6,13.77-3.08,14.81c-1.98,1.39-4.12,2.85-6.29,3.96  c-42.81,21.83-88.84,38.6-134.28,54.05c-4.68,2.36-6.97,1.74-7.41-2.28l-79.41,32.64l-1.8-1.34c0.01,3-3.21,2.68-3.89,0l-0.88,1.89  c0.88,0.25,0.81,0.53-0.11,0.84c-2.96,7.18,0.43,14.91,2.49,24.41L114.5,1537.2l-44.77-22.94c3.24-3.7,6.61-7.77,10.61-11.49  l59.37-55.26l-58.68-22.33c5.56-12.68,18.51-19.27,31.71-22.43c32.71-7.83,65.45-13.93,98.66-13.88c3.68-1.23,5.53-1.85,5.53-1.85  c26.61,1.3,53.16,1.39,79.66,0.24l-0.84-1.25c-8.99-7.33-16.63-15.11-21.6-26.27c-9.75-21.86-34.75-32.89-34.93-37.36  C239.01,1317.21,255.73,1315.27,256.39,1292.86z" />
<path class="st4" d="M441.63,1128.19c-6.74,8.08-3.67,21.32-7.33,31.93l-8.21-24.58l-4.22,15.29c-1.84-1.87-2.24-5.1-3.39-7.11  c-5.96,4.61-1.74,11.55-5.9,18.55c-4.43-7.19-4.48-15.54-7.68-23.27c-1.98,3.29-2.33,6.9-2.84,10.07c-0.35,2.51-0.8,2.63-2.71,1  c-1.17-1.1-3.47-0.35-4.66-1.66c-0.92-1.01,0.98-2.36,1.78-3.06c0.58-0.71,0.5-1.27-0.24-1.66c-7.97-5.75-4.22-20.03-11.36-30.02  l-6.05,27.37c-5.29-4.24-8.33-19.33-9.54-24.64l-6.81,17.7c-6.48-4.41-0.77,6.47-4.28,8.4c0.25,2.42-0.21,2.4-2.11,0.97  c-2.81,1.06-4.37-1.02-6.31-2.58c-1.23-0.98,3.23-4.04,1.48-7.23c-0.62-1.13-2.68-0.84-4.07-0.63c-3.53,0.54,1.64-3.95,0.95-5.65  c-0.64-1.57-4.4-0.52-4.3-2.68c0.05-1.18,1.39-2.8,2.22-4.78c-5.58-4.23-7.66-12.07-8.65-19.49c-5.02,4.79,0.6,14.32-7.42,14.8  l-5.58,21.55c-1.53-0.72-1.29-1.76,0.46-3.38c-4.79-2.35-3.46-7.13-5.7-11.98c-4.21,6.86-2.93,15.27-7.31,20.23  c-0.33,1.74-0.78,2.18-1.36,1.31c-0.05,7.76-4.26,5.37-6.65,0.27c-0.93-1.38-3.98-1.52-4.15-3.61c-0.17-2.01,0.28-3.74-0.37-5.27  c-0.71-1.68-2.51-2.02-4.2-2.88c0.43-0.99,2.07-2.38,1.6-3.76c-0.33-0.98-3.67-1.82-3.57-2.84c0.22-2.3,1.6-4.31,1.35-6.52  c-0.3-2.65-1.59-3.6-4.01-4.34c-1.6-5.5-1.33-11.27-4.04-16.95c-2.4,10.87-6.14,19.99-12.46,28.19c1.97,1.29,3.28,1.23,3.81,1.88  c2.81,3.43-13.52-0.56-3.83,6.09c-4.54,2.46-3.21,1.67-3.35,5.5c-0.11,2.95,0.92,3.88,1.35,6.78c0.26,1.72-2.02,5.43-3.39,5.61  c-1.22,0.15-3.38-2.1-4.13-3.52c-0.57-1.08,4.68-1.34,3.76-4.87c-1.94-1.86-6.12,0.01-7.97-2.44c1.56-1.33,2.86-2.21,3.25-3.55  c0.28-0.96,1.36-3.6-0.6-3.6c-1.01,0-3.99,1.05-4.93-0.39c-0.72-1.1,2.78-3.9,1.06-5.07c-1.5-1.02-2.91-1.02-6.42-2.12  c5.4-5.39,3.4-10.48,1.27-14.97c-4.47-9.44-6.19-20.68-9.47-32.58l-8.12,30.67c-3.63-0.92-2.95,1.5-2.84,3.47  c0.09,1.67,1.86,1.93,3.41,2.91c-1.3,1.21-2.44,1.77-3.9,2.61c-1.15,0.66-1.22,1.83-0.54,3.3c0.78,0.41,0.72,0.73-0.16,0.97  c-0.6-0.15-1.31,0.19-1.92,0.13c-0.99-0.13-1.71-0.88-2.16-2.23l-3.46-0.49l-1.03,0.84c-1.06-0.02-2.13-0.04-3.2,0.01  c-3.05-0.65-8.22-3.14-3.73-5.64c1.01-0.15,1.92-1.69,1.9-2.88c-0.36-0.42-0.25-0.75,0.27-1l2.82-3.71  c0.47-0.63,0.47-1.11-0.01-1.45c-3.1-0.64-6.3,1.07-9.35,1.2c-2.1,0.13-1.74-0.62-0.11-1.76c1.32-0.32,2.81-0.46,3.55-1.78  c0.64-1.13,2.13-2.89-0.05-4.05c-2.02,1.49-12.71,3.93-8.52-0.03l2.09-0.7c2.55-1.05,5.59-2.08,7.57-5.38  c-3.06-2.32-5.46,0.83-8.6-0.91c2.44-2.06,5.43-3.88,5.64-7.3c-4.21-0.38-6.24,4.33-9.61,2.89c-2.21-0.43-1.97-2.99-0.06-3.96  c2.17,0.6,2.03,3.13,2.33,0.86l0.36-2.76c0.41-3.18,4.71-7.32,1.42-9.45c-2.9,2.21-10.45,4.03-10.46,0.03  c4.43,1.48,4.39-2.36,6.42-5.27c2.07-2.96,3.27-6.32-1.03-8.54c-1.13,0.75,0.03,3.12-1.35,3.08c-1.71-0.05-2.86-0.55-4-0.98  c-0.56-0.32-0.47-0.59,0.18-0.82c0.86-1.37,2.38-3.22,1.39-3.58l-5.61-2.05c3.14,0.73,5.38-1.59,6.15-4.88  c0.44-1.88-3.02-3.47-3.31-6.6c-1.88-0.53-1.7-1.43-0.03-2.33c0.23-2.17,0.15-4.35-0.07-6.52c1.37,0.93,0.62,3.72,1.8,3.73  c15.79,0.23,41.11,2.04,54.99-5.23c12.76-6.68,27.27-16.29,42.17-12.86c24.74,13.12,47.86,28.71,74.95,35.37l24.59-8.81  c13.58,7.51,24.55,17.9,38.81,23.1c24.87,9.07,50.76,12.38,77.59,16.33c1.19,17.39-6.92,61.96-26.5,66.41  c-4.82,1.1-8.86-2.01-12.39-5.17c-15.19-13.61-20.19-32.46-22.31-53.36C445.22,1105.01,442.75,1116.78,441.63,1128.19z" />
<path class="st7" d="M399.21,1316.36c0.83,0.25,1.71,0.79,1.67,1.6c-0.44,11.59-1.83,28.86-7.23,39.07  c-1.91,3.61-6.22,10.87-10.52,8.92l-0.29-2.75l-0.66-1.04c-2.15-12.65-7.69-25.27-17.61-34.65c-0.96,6.21,1.84,10.64,2.85,15.53  c2.56,12.44,0.37,25.05-4.93,37.16c-4.41,0.28-8.07,0.48-12.25-0.18c8.09-20.93-18.06-45.78-32.96-56.76  c-12.6-9.29-26.99-15.78-37.85-26.03C319.17,1304.79,359.26,1312.41,399.21,1316.36z" />
<path class="st4" d="M179.66,1036.73c-1.2,1.86-0.48,4.71,0.34,3.34c0.51-0.85,3.41-4.68,3.37,0.37c-0.02,2.94-5.86,2-5.28,4.87  c0.3,1.47-0.64,4.14,2.24,4.48c-1.33-2.97-0.09-2.4,1.26-1.99c1.06,0.32,3.27,1.25,2.57,1.92c-4.93,4.71-16.38-5.85-9.88,2.24  c0.63,0.79,1.29,1.95,2.34,3.01c0.87,1.14,0.46,2.72-1.08,2.95c-0.56,1.24-1.66,2.06-2.83,2.79c-0.49,0.79-0.65,1.48,0.06,2.18  c-0.29,1.24,1.06,3.06,0.72,4.11c-0.43,1.34-3.51,0.49-4.44,1.53c-1.01,1.14,0.02,3.81,1.19,4.41c1.57,0.81,4.24,0.15,6.49,0.52  c-1.5,4.43-6.16,5.4-10.89,4.34c-1.08,2.92,1.4,3.89,4.26,5.24c-1.05,0.93-2.62,1.57-2.1,2.96c0.34,0.92,1.19,1.7,2.21,1.5  c0.68-0.13,1.79-1.24,3.17-1.68c1.62,1.99-1.32,4.16-2.74,5.17c-2.21,1.57-5.17-0.3-7.56-0.61c-2.63-0.34-1.82,3.47-1.02,4.8  c-0.05,1-0.56,0.89-1.29,0.23c-1.18,2.66-2.8,1.6-1.37-0.92c-0.26-0.38-0.71-0.76-0.92-1.15c-0.84-0.46-1.41-0.72-2.04,0.17  c-2.71,1.43-6.54,0.16-8.48-2.1c-0.67-0.18-0.7-0.51-0.16-0.99c1.97-1.75,5.76-0.27,5.52-3.56c-1.74-0.52-3.54-0.94-5.41-1.27  l0.04-0.75c-0.37-2.32-2.05-3.28-5.04-2.9c-0.52,0.17-1.17,0.1-1.74,0.06c-0.47,0.43-0.77,0.3-0.91-0.35  c2.96-1.87,8.37-3.86,8.47-8.47c-2.31-0.87-4.83-2.73-6.56-4.67c-0.59-0.32-0.58-0.67,0-1.06c10.21-10.77-6.37,3.81-9.26-3.24  c5.41-0.59,9.67-4.88,8.06-9.62c-2.71,1.17-3.62,2.44-5.26,2.86c-0.94,0.24-3.43-0.56-3.17-1.73c2.28-2.95,4.95-5.11,5.08-8.54  c-3.53,0.02-5.94,2.58-8.92,0.67c1.88-1.74,4.06-1.79,5.16-2.53c1.66-1.11,2.25-4.05,0.84-5.26c-0.7-0.6-2.65,1.16-3.66,1.19  c-2.18,0.07-1.9-2.06-0.78-3.27c0.61-0.67,1.78-1.26,2.61-3.04C148.29,1037.6,164.04,1036.3,179.66,1036.73z" />
<path class="st8" d="M427.49,1289.21c6.53,1.61,7.63,10.82,6.81,17.04c-0.8,6.02-6.44,13.34-13.61,11.18  c-2.85-2.51-3.4-10.21-9.52-11.22c-15.11,16.26,5.79,34.75-12.38,61.11c-6.43,9.33-9.49,19.36-14.65,30.37  c-3.03-11.12,0.04-21.97-1.01-31.74c16.46-9.69,14.22-40.62,16.08-49.59c2.25-10.89,7.25-21.9,13.15-31.36  c2.58,8.97,0.96,19.42,8.16,24.92C428.64,1308.68,429.26,1296.61,427.49,1289.21z" />
<path class="st5" d="M160.79,1095.44c0.68,0.2,0.7,0.51,0.11,0.95c-0.81,4.13,4.66,5.83,9.16,6.01c-1.78,2.73-5.18,2.8-7.78,3.5  c-1.35,1.18-2.14,0.76-1.94-1.02c-1.04-2.56-2.08-1.68-3.81-0.35c-1.51,1.17-1.52,2.51-1.54,3.98c-2.8,0.46-6.83,1.36-7.5-1.1  c1.94-1.46,3.08-1.86,3.84-2.58c1.46-1.39,0.9-3.49-0.15-3.85c-2.31-0.8-2.05,0.16-8.26-0.3c7.32-0.57,11.63-2.13,16.5-6.17  C159.73,1094.97,160.17,1096.04,160.79,1095.44z" />
<path class="st5" d="M230.34,1122.08c-0.51,2.53,2.41,3.75,2.3,6.26c-2.05-0.03-6.41-1.49-5.97,0.57l1.29,5.95  c-3.18-1.73-3.94-5.47-7.07-4.96l-2.11,1c-0.95,0.35-3.25-0.45-2.74-1.46c3.7-2.73,7.12-4.98,7.64-9.24l1.03-0.84  c0.52-1.9,2.43-1.84,3.8-1.41C230.6,1118.59,230.68,1120.4,230.34,1122.08z" />
<path class="st2" d="M536.85,1352.68c-11.52-9.7-24.18-18.6-36.61-27.98c-14.13-10.66-37.68,31.24-41.76,40.82  c3.59,6.4,10.9,7.97,11.82,13.83c-0.05,0.86-0.32,0.86-0.79,0.08l-39.43,16.42c-0.38-12.1-4.66-25.48,0.85-36.65l4.67-9.46  l22.59,12.33c-3.1-32.56,22.7-32.05,10.4-73.09c-7.54-25.15,11.21-33.67,16.96-66.54c0.26,12.24,6.34,22.35,5.58,33.41l-2.85,41.23  c-0.62,8.91,2.9,24.45,13.69,25c12.72,0.65,17.43-13.91,26.15-22.86C529.29,1321.08,539.3,1333.89,536.85,1352.68z" />
<path class="st0" d="M537.83,1192.32c3.19,16.84-4.86,34.48-18.74,46.68c3.43-21.83-6.44-46.72-0.69-62.04  c0.14,3.74,0.92,9.82,3.32,13c6.12-5.58,0.64-12.91,4.64-19.01c-0.63,1.16,9.91,29.19,6.92,26.28c1.12,1.09,2.46,0.97,3.61-0.34  C538.05,1195.59,537.49,1193.79,537.83,1192.32z" />
<path class="st8" d="M448.61,1474.55c2.3,1.52,1.22,3.59-1.41,3.88c-0.65,3.97-1.83,7.54-3.53,10.72c0.41,1.82,0.75,3.73,0.31,5.57  c-2.38,9.97-11.71,33.73-17.28,41.94c-5.5,2.96-10.68,6.09-15.55,9.39c-1.8,5.88-3.18,11.8-4.15,17.78  c-8.04,16.58-17.29,32.84-21.91,51.83l-27.51-2.04c-23.96-1.77-47.79,1.31-73.16-1.17c2.16-6.04,41.85-7.45,40.37-5.58  c0.96-1.22,0.83-3.35,2.29-4.49c11.56-9.05,22.87-16.18,36.98-22.57c-11.94-1.24-22.4,5.54-31.3-3.37  c10.04,0.63,19.44,2.85,28.21-1.33c-10.48-3.09-19.85,0.16-28.77-3.54c-14.8-27.04-40.11-9.05-72.29-18.65  c10.06-5.54,21.08-5.93,30.23-12.42l-14.66-3.54l-0.2-2.02c0,0,28.15-12.9,84.44-38.69l1.86,1.26c1.63-5.06,9.87-6.64,13.45-2.31  c5.61,0.86,11.32,0.12,16.85-1.04l2.62,1.39l2.79-0.19c3.45,1.88,11.28,7.7,10.69,11.56l-1.77,2.03l-14.49,0.32  c-8.36,0.61-9.07,1.23-2.14,1.88c11.5-1.52,21.94,0.52,31.33,6.12c-0.48-2.35,0.02-4.12,1.5-5.29c-0.68-0.32-1.67-0.9-1.55-1.42  c0.54-2.38,5.7-17.82,6.86-18.43c0.4-0.21,0.89-0.23,1.41-0.19c-0.63-0.46-1.55-1.16-1.39-1.74c1.31-4.68,9.25-26.32,11.35-29.31  l3.47-3.63c-3.03-0.91-0.21-8.03,2.69-8.55c-2.31-1.36-1.58-2.5,1.02-1.98c0.61-0.72,0.77-1.35,0.49-1.89l-0.54-3.35  c2.76-7.53,5.52-15.02,8.26-22.5l2.51-2.08l-0.65-3.55c1.17-3.79,6.89-18.36,9.37-19.57c1.94-0.95,10.6,6.53,10.42,9.2l-25.36,71.12  L448.61,1474.55z" />
<path class="st0" d="M492.54,1339.47l1.42,2.31c0,0-1.42,2.21-4.27,6.62c6.1,5.86,12.75,11.13,19.94,15.79l1.15,3.79l5.28,2.86  c24.16,22.83,49.5,44.34,76.02,64.52l33.71,30.45c10.72,7.3,21.65,14.5,32.78,21.58c17.74,13.62,35.8,26.75,54.18,39.39l14.49-9.95  l2.21,0.81c0.2,1.12,0.66,2.76,0.33,3.88c-5.46,18.2-24.45,35.98-43.44,37.53l-79.28-65.48c-1.6-1.32,0-4.62-0.46-5.53  c-0.78-0.19-1.48-0.52-2.11-1c-1.71-1.33-10.3-13.32-8.16-15.32c0.39-0.36,0.97-0.52,1.61-0.62c-11.38-8.72-22.16-18.11-32.34-28.17  c-3.97-5.58-9.51-9.59-15.4-13.08c-27.16-16.06-49.15-38.11-74.93-57.27c-3.99-2.97-12.01-7.06-7.81-14.33  c10.18-6.9,21.07-15.01,26.85-26.75C500.64,1329.63,496.9,1338.4,492.54,1339.47z" />
<path class="st0" d="M457.04,1416.93c-3.68,9.16-5.77,19.05-10.23,27.93c0.25,0.6,0.08,1.23-0.49,1.89l-1.02,1.98  c-0.74,1.42-1.26,1.81-2.5,2.3c-4.21,1.69-16.13-0.12-20.72-1.56c-21.68,8.55-42.5,19.17-62.48,31.86l43.26-19.8  c2.59,0.95,3.23,2.19,1.94,3.73c-13.58,9.93-27.92,18.68-43.03,26.25c2.85,2.1,2.5,4.12-0.18,6.01l-86.11,39.45  c-4.06,1.86-8.98,2.57-13.81,2.27c-5.4-20.5-13.79-41.71-29.31-55.26c0.09-0.22,0.14-0.61,0.11-0.84l0.88-1.89  c1.2-0.21,2.76,0.35,3.89,0c2.24,0.45,4.12,2.11,5.65,4.97c3.11,2.81,5.5,5.73,7.17,8.77c41.13-16.87,82.15-34.05,123.05-51.55  c5.62-1.28,5.64-0.1,2.13,4.64l-14.62,10.35c28.18-16.71,58.67-29.08,89.24-40.81c1.07-0.41,2.26-0.53,3.47-0.65  C454.56,1416.86,455.8,1416.88,457.04,1416.93z" />
<path class="st0" d="M495.62,1488.08c-0.18,2.64-1.43,5.03-2.1,7.57l-0.83,1.07c-0.02,1.94-0.41,3.83-1.12,5.64  c-0.54,0.42-0.7,0.61-0.12,1.08c-0.11,0.9-0.16,1.81-0.17,2.72l-0.86,1.05c-0.2,0.47,0,1.15-0.23,1.6  c-0.43,4.22-1.44,8.36-3.01,12.44c-3.6,10.4-6.24,20.98-7.93,31.73l0.73,3.14c-0.5,1.95-0.91,3.96-1.79,5.8  c-0.56,0.29-0.75,0.57-0.2,0.96c-0.13,0.95-0.16,1.92-0.15,2.88c-0.46,0.38-0.43,0.79,0.12,1.04c0.29,2.49-0.35,5.29,0.23,7.76  l-5.86-1.16l-2.09-1.85c-3.69-28.17-43.66-40.99-58.63-14.4l-2.55,0.94c-0.61,1-0.74,1.99-0.4,2.96c2.66,1.08,2.24,2.29-0.54,2.8  H407c0.96-6.53-1.64-17.87,5.57-21.46c4.45-2.22,8.38-4.3,12.71-6.92c7.09-15.1,13.79-30.46,18.39-46.31  c1.63-3.36,2.81-6.93,3.53-10.72c0.17-1.4,0.94-2.59,1.41-3.88c3.4-4.27,4.77,0.72,4.9,4.74c-2.2,9.25-4.97,18.36-8.32,27.35  c4.54-9.31,8.54-18.96,10.94-29.06l2.54-2.77c1.92-7.07,3.89-8.28,5.9-3.66l-19.72,60.12c0.02,0.44,5.22,2.1,5.33,1.81  c11.6-31.43,20.39-62.53,25.81-95.67c0,0,1-1.75,2.99-5.25c2.4-1.89,3.18,0.65,3.6,3.16c-1.1,14.91-3.15,29.76-6.17,44.57  c2.33-4.62,5.78-3.34,5.95,1.4c1.09-6.31,6.51-21.64,8.22-6.85c2.26-2.35,5.12-4.44,8.09-2.27  C496.94,1477.38,495.93,1482.68,495.62,1488.08z" />
<path class="st0" d="M295.76,1386c2.3-0.02,4.81,0.31,6.68,1.81c-30.78,3.99-60.79,1.32-91.02,1.05c-4.56-0.04-7.96-4.38-11.26-5.63  c-29-10.99-61.54-10.54-64.47-27.06c-2.7-15.22,39.74-20.76,49.83-23.5c-0.43,6.76-3.26,13.45-0.04,19.29  c11.51,8.33,22.61,22.04,36.63,26.59C245.92,1386.28,271.87,1387.55,295.76,1386z" />
<path class="st0" d="M1001.4,1404.48l-1.25-13.44c-0.96-4.17-1.24-8.36-0.86-12.56l-0.75-8.45c-0.22-0.56-0.28-1.45-0.06-2.19  l-0.3-8.21c-0.55-14.89-3.69-29.6-3.75-45.47c21.02,36.58,27.84,78.52,24.5,118.26c-2.82-10.46-1.74-20.7-1.39-31.14  c-6.48,14.5-6.66,28.98-10.2,43.48C1005.88,1431.38,1005.05,1417.46,1001.4,1404.48z" />
<path class="st8" d="M472.33,1573.4c-2.06,10.94-9.83,17.93-20.5,19.71c-20.46,3.42-40.95-8.89-43.69-29.27  c0.38-1.26,0.49-2.03,0.54-2.8c-0.5-1.04-0.08-1.99,0.4-2.96c6.93-16.37,26.53-21.46,41.89-14.24  C463.2,1549.59,471.58,1560.07,472.33,1573.4z" />
<path class="st7" d="M495.62,1488.08c-2.39-4.4,1.02-9.17,1.94-14.94c-2.89-0.61-5.42,2.06-6.95,4.8c-3.75-1.73-0.49-5.47-2.8-8.71  l-5.75,20.04c-2.48-3.3-1.22-6.93-2.1-11.19c-1.56,1.81-1.88,3.49-4.08,5.11c3.03,1.13,3.5,2.78,3.14,5.15  c-0.33,2.15-0.79,4.67-4.23,4.51c-5.11-10.72,11.44-56.33,4.18-60.71c-2.36-1-1.08-12.48-0.3-13.67c0.51-0.78,1.43-1.13,2.29-1.37  l-0.02-2.1c-0.57-0.1-1.1-0.12-1.5,0.09c-1.96,1.04-13.53,35.95-15.23,41.55c-1.22,6.28-3.06,12.33-5.55,18.16  c-2.69,14.41-9.69,28.75-16.53,42.63c-3.59-8.65,17.07-44.26,6.48-42.88l25.88-71.99c-2.6-3.15-5.47-4.99-8.2-7.55  c-3.77,7.74-6.39,14.8-9.25,21.92c-30.28,11.57-60.56,23.3-89.25,39.63c-32.33,18.41-63.86,36.97-100.68,49.02  c31.17-20.78,79.03-35.1,110.27-61.76c-44.42,16.82-83.98,37.75-127.52,52.82c-4.51-5.48-9.96-9.57-12.64-15.39l81.09-33.32  c0.48-0.2,2.74,1.23,3.25,1.27c1.61,0.13-0.64,0.34-1.8,2.98c49.64-15.9,97.57-34.99,144.71-58.27c2.59-4.36,4.23-9.95,5.02-14.49  c0.23-0.1,0.55,0,0.79-0.08l46.37,38C508.41,1441.71,501,1464.76,495.62,1488.08z" />
<path class="st7" d="M729.44,1517.65l-16.73,11.49c-26.05-16.48-49.05-38.12-75.89-53.49c-12.82-7.34-20.9-15.95-31.15-25.62  c-30.2-28.49-66.78-51.02-94.89-82.05c-2.44-3.26-1.86-5.98-0.34-9.56l-17.69-16.17l-0.2-2.79c0.14-2.06,1-3.05,1.91-3.71  c1.79-1.31,1.91-3.73-0.16-4.26l0.94-1.91c0.23,0.77,0.23,0.77,0,0c-0.13,0.27,1.12-4.68,2.01-3.09l1.25,2.23  c34.03,60.61,112.26,95.63,170.85,140.65c1.42-1.58-0.19-2.47,0.04-3.77c0.17-0.95,3.34,1.2,3.48,1.31l51.26,41.69  C727.2,1511.11,728.87,1514.42,729.44,1517.65z" />
<path class="st2" d="M565.57,1459.33c0.3,1.13,0.61,2.4,0.14,3.48c-2.75,6.4-13.13,16.08-18.88,20.36  c-9.71,7.23-20.54,11.7-32.28,14.42c3.17,1.11,6.45,1.8,9.82,2.09c3.29,0.21,6.21,2.92,2.97,5.47c-3.83,3.01-29.6,7.88-33.34,5.32  c-0.54-0.37-1.01-0.85-1.46-1.36l8.5-30.68l0.86-2.98l15.98-56.7L565.57,1459.33z" />
<path class="st6" d="M586.57,1478.28c-0.2,1.76-0.48,3.19-1.4,4.7c-3.92,6.39-17.3,16.22-24.38,19.14  c-3.51-0.08-6.83,3.01-9.79,4.18c-0.78,1.31-1.76,2.5-3.1,3.26c-6.13,3.48-19.77,6.44-27.12,7.84c-7.63,1.46-18.58,3.21-26.15,2.34  c-1.53-0.18-2.83-1.15-4.02-2.07c-1.22,0.18-1.33-0.47-0.15-1.08c-2.15-0.17-2.01-1.87,0.05-2.48c-0.33-0.6,0.19-1.17,0.76-1.36  c-1.82-0.37-1.31-2.34,0.28-2.64l0.97-1c11.49,0.76,23.88-1.6,35.47-6.25c-6.66-3.17-13.81-0.29-17.36-6.78  c23.59-3.42,43.71-17.29,54.92-36.74C572.76,1465.46,582.58,1469.86,586.57,1478.28z" />
<path class="st7" d="M479.98,1556.12c-8.21,1.56,7.84-42.62,10.21-47.31l1.38,1.3c-0.16,0.87-0.18,1.76-0.28,2.64  c-0.56,0.4-0.81,0.86-0.76,1.36c-0.03,0.83-0.16,1.67-0.05,2.48c-1.02,0.67-0.97,1.03,0.15,1.08c21.02,1.17,40.91-3.63,60.38-11.36  c7.46,4.87,16.55,3.21,25.31,7.51c-10.12,4.43-21.58-0.03-31.83,3.6c-17.97,6.37-36.29,8.33-55.63,3.86L479.98,1556.12z" />
<path class="st7" d="M735.3,1478.93c-13.9,3.36-32.83,5.21-44.95-4.17c12.55-5.96,25.84-2.51,37.54-5.66  c-7.71-3.16-15.31-3.79-22.37-8.43c8.79-1.98,16.37,0.52,24.79,3.83C735.07,1466.37,740.39,1474.52,735.3,1478.93z" />
<path class="st7" d="M606.58,1488.05c-11.25-0.03-21.25-10.5-18.94-21.9c0.06-1.2-0.99-2.62-2.14-2.33  c-7.66-5.73-14.43-13.15-19.92-20.88c13.81,11.23,28.73,21.09,41.66,34.83c-4.41,0.63-6.07-4.37-10.16-5.14  C599.16,1478.88,605.6,1482.14,606.58,1488.05z" />
<path class="st7" d="M560.79,1502.12c8.93-7.74,18.47-14.37,25.78-23.84l1.49,10.21C582.87,1497.22,571.35,1502.38,560.79,1502.12z" />
<path class="st6" d="M409.78,1474.52l2.56-0.04c4.53,6.2,9.89,11.23,16.1,15.11l0.73,2.38l-6.73,20.03  c-0.96,3.9-11.38-1.37-13.85-2.97l-0.59-2.09c-3.87-4.45-9.05-7.61-13.48-11.37c-2.82,1.85-9.6-10.12-9.26-10.8  c1.22-2.46,17.83-10.82,21.11-11.13C407.59,1473.52,408.73,1473.91,409.78,1474.52z" />
<path class="st2" d="M442.6,1457.28l-13.43,34.68c-8.11-2.96-13.48-11.15-19.39-17.44l0.1-2.22c10.19-5.35,20.39-10.71,30.6-16.07  L442.6,1457.28z" />
<path class="st7" d="M376.98,1530.07c-4.08,5.94-58.15,7-49.31-8.92C331,1515.16,368.1,1525.97,376.98,1530.07z" />
<path class="st7" d="M408,1506.94c5.16,0.88,8.99,5.26,14.44,5.06c1.75,9.16-1.95,17.15-8.78,24.69c0.78-6.24,4.21-11.29,5.92-18.37  c-19.41-10.92-28.46-0.52-39.93-8.54C389.29,1506.12,399.06,1507.64,408,1506.94z" />
<path class="st8" d="M510.78,1367.98c-6.33-6.98-17.36-10.75-23.28-19.5c1.33-2.51,4.83-5.84,5.05-9.01l20.21,18.48  C510.91,1361.69,510.72,1364.78,510.78,1367.98z" />
<path class="st7" d="M674.48,1526.33c-12.87-9.24-28.77-18.44-37.31-34.74C650.19,1501.24,663.11,1511.77,674.48,1526.33z" />
<path class="st7" d="M511.27,1393.97c-10.93-5.84-22.36-13.51-27.47-25.61C494.65,1373.98,503.54,1383.44,511.27,1393.97z" />
<path class="st7" d="M445.29,1448.73l-2.69,8.55l-32.83,17.24c-7.93,2.46-15.01,6.23-23.34,10.73c3.97,2.79,5.02,7.72,8.08,10.32  c-6.21,1.42-14.69,2.85-20.42,1.26c-3.52-4.37-8.06-1.34-12.51,0.7c0.14-1.24,0.81-3.39-0.59-4.37c-1.11-0.77-3.09,0.49-5.33,0.1  c15.36-10.89,33.76-16.75,49.05-30.47l-75.03,34.36c7.83-7.89,18.4-11.77,29-17.52c20.83-11.29,41.85-25.81,63.32-32.03  C428.34,1449.74,438,1450.01,445.29,1448.73z" />
<path class="st8" d="M480.94,1415.01c2.03-0.06,2.01,1.54,0.02,2.1c-1.32,4.91-1.04,10.21-1.99,15.04  c-6.82,34.68-13.1,69.13-27.66,102.18c-3.02,0.23-5.92-0.16-9.07-1.29l20.78-63.33c-2.49,0.95-2.77,3.89-4.36,5.09  c1.96-21.01,12.44-41.76,19.7-62.81C480.45,1412.83,480.17,1414.32,480.94,1415.01z" />
<path class="st7" d="M427.2,1585.73c8.14,0.23,11.8,5.36,18.62,4.1c4.72-0.87,10.86-2.66,12.16-10.14  c-8.93,7.55-18.69,8.49-28.47,4.18c-8.44-3.72-16.86-14.54-11.43-25.1c4.98-9.7,20.91-10.01,30.37-5.54  c9.37,4.43,19.03,14.92,15.23,26.8C458.93,1594.83,436.82,1594.68,427.2,1585.73z" />
<g>
</g>
<g>
</g>
<g>
</g>
<g>
</g>
<g>
</g>
<g>
</g>
<g>
</g>
<g>
</g>
<g>
</g>
<g>
</g>
<g>
</g>
<g>
</g>
<g>
</g>
<g>
</g>
<g>
</g>
</svg>