<?xml version='1.0' encoding='UTF-8'?>
<svg xmlns="http://www.w3.org/2000/svg" id="Layer_1" viewBox="0 0 1200 1543" xml:space="preserve" width="1200" height="1800">
<style type="text/css">
      .cls-1 {
        fill: #2d252f;
      }

      .cls-2 {
        fill: #9e233b;
      }

      .cls-3 {
        fill: #5c4e55;
      }

      .cls-4 {
        fill: #267c81;
      }

      .cls-5 {
        fill: #806665;
      }

      .cls-6 {
        fill: #d7464f;
      }

      .cls-7 {
        fill: #bb6c39;
      }

      .cls-8 {
        fill: #ab7f72;
      }

      .cls-9 {
        fill: #ca9179;
      }

      .cls-10 {
        fill: #e5903c;
      }

      .cls-11 {
        fill: #f1a46f;
      }

      .cls-12 {
        fill: #9ac5bb;
      }

      .cls-13 {
        fill: #b6cbb9;
      }

      .cls-14 {
        fill: #f4bb8b;
      }

      .cls-15 {
        fill: #d6d0b6;
      }

      .cls-16 {
        fill: #f7d4b1;
      }

    </style>
<path class="cls-16" d="M266.6,317.63c2.83,1.76,5.75,3.58,7.85,6.21c14.16,17.73,28.3,35.42,42.55,53.09c2.18,2.71,3.47,6,4.69,9.23  l3.57,1.46l6.56,14.3c-0.02-6.09,9.01-10.85,12.27-5.46c1.65-2.56,4.99-3.02,10.03-1.38l3.67-0.2c0.82-5.32,2.96-8.43,6.42-9.31  l-1.24-2.68c13.26-15.68,26.53-31.37,39.81-47.06l3.08,0.5c4.08-0.47,8.43,0.66,13.07,3.39c17.28,3.78,34.9,5.91,52.86,6.39  c20.33,5.09,40.98,5.57,61.98,1.42c95.04,5.97,190.21,12.76,285.53,20.38c92.13,4.69,185.59,9.97,280.38,15.84  c33.71,1.32,67.16,4.72,100.34,10.2v110.2c-1.67,1.56-2.5,2.33-2.5,2.33c-10.39-4.12-20.95-7.42-31.67-9.92l-145.29,7.77l-6.38-2.34  l-7.54-2.35c-47.34-35.82-103.85-50.92-161.52-60.37l-3.42,2.41c-7.77-0.81-15.45-2.24-23.05-4.29c-2.77,4.26-14.09,4.06-17.59,0.69  c-4.08,3.28-12.07,4.93-14.71-0.17l-51.69,8.67l-4.72-2c-51.62,11.77-100.15,34.7-142.58,66.3c0,0-2.4,0.65-7.21,1.96  c-25.13,10.15-52.13,20.95-79.06,28.91c-22.23,6.58-48.2,13.05-71.41,12.94c-1.03,0-2.06-0.39-3.12-0.83  c-1.09-0.46-2.12-1.09-3.12-1.77l-1.14-3.32c17.58-24.35,3.82-52.64-26.26-53.19l-2.45-2.56c0.16,4-5.39,4.14-6.46,0.53l-4.2,3.28  c-24.47,2.36-34.22,28.52-20.28,48.6l-0.98,3.46l-5.45,2.52l-18.62,0.75c-46.02,7.5-91.78,15.8-137.28,24.89l-2.09-2.33  c-1.99-0.45-2.91-2.47-2.76-6.05c-8.26-2.47-12.15-0.34-11.66,6.39l-3.08,0.75l-0.87,2.7c-59.37,1.34-118.75,2.67-178.15,4.01  L0,579.91V306.7l1.13-2.6l255.02,19.28l4.03-1.19C262.04,319.21,264.18,317.69,266.6,317.63z" />
<path class="cls-12" d="M0,40.18V0h1200v124.34l-13.68,0.93c-87.36-5.35-174.6-11.05-261.72-17.1l-32.86-3.95  c-8.52,0.27-16.96,0.21-25.32-0.19c-4.49,0.7-9.29-0.28-14.39-2.94c-8.47-2.78-16.83-3.7-25.08-2.77l0.67,155.82l-2.67,1.64  c0,1.24-0.45,1.37-1.33,0.45c-1.2,4.18-12.9,3.87-14.34-0.18c-3.64,0.99-11.01-6.18-8.55-9.66c-1.16-0.37-2.3-0.78-3.35-1.35  c-1.02-0.55-1.99-1.1-2.66-1.9c-14.54-17.11-31.33-37.17-41.64-56.73c-15.54-29.48-2.75-66.25,25.42-82.66  c-1.37-1.23-3.83-2.95-5.7-3.13C687.87,92.4,601.24,86.7,514.95,81.67C347.73,70.72,180.71,57.87,13.89,43.12L0,40.18z" />
<path class="cls-15" d="M800.73,246.4c2.55,3.24,6.38,5.95,8.55,9.66c4.09,0.96,5.14,4.42,2.41,7.59c1.3,1.14,2.27,1.32,2.88,0.53  c1.32-3.39,6.64-4.67,7.66-0.41c2.54-4.11,10.39-2.57,14.85-1.64c0.63-3.97,2.37-6.11,5.19-6.43c-0.39-1.44-0.75-3.07-0.12-4.5  c1.75-3.97,17.35-19.98,21.6-23.78l4.26-0.94l2.04,3.57c-3.07,19.35,6,37.56,17.33,52.68c9.94,11.03,19,22.59,27.18,34.68  c3.16-0.7,7.08,5.42,5.5,7.93c2.44-1.27,4.11,0.69,5.03,5.87c2.05,1.45,3.99,2.97,5.82,4.55c1.46-3.28,5.18-3.94,11.17-1.95  c0.66-4.57,2.67-7.9,6.05-9.98l-0.46-3.62l23.53-27.69c12.56-13.84,20.95-29.36,25.17-46.57l2.86-2.18l4.94-0.82  c61.95,7.97,124.18,13.69,186.7,17.18c0,0,3.04,1.21,9.12,3.62v130.22c-89.41-7.01-178.61-13.35-268.14-17.54l-54.17-2.53  c-113.4-5.3-225.83-17.58-338.22-23.6c-19.69-1.05-34.67,6.78-54.56,1.09c-24.77-7.09-57.16-0.24-79.04-15.06l-0.53-3.65l9.52-15.29  l3.86-0.94l-0.16-4.54c9.69-14.75,15.5-31.95,14.83-49.72l2.44-4.02l-2.98-3.02c-1.02-9.76-3.32-19.41-7.62-28.27l0.77-4.37  l15.5-0.43c117.22,8.34,232.9,16.13,347.05,23.35C793.31,244.22,797.37,244.54,800.73,246.4z" />
<path class="cls-13" d="M800.73,246.4c-11.37,2.93-23.21,1.61-36.38,0.63c-113.25-8.47-225.77-14.44-338.36-24.52l-3.65,0  c-5.21-7.02-11-13.47-17.39-19.33l-0.54-3.67l0.94-2.68l233.57-0.35c-59.81-7.89-121.56-10.77-181.78-13.25  c-0.89-1.82-1.76-1.7-2.62,0.22c-31.13-6.92-63.04-10.75-95.56-12.2c-20.91-6.46-38.35-10.32-60.36-11.1  c-22.53,1.6-44.52,0.19-65.99-4.21c-17.51-7.69-35.37-12.58-53.59-14.66c-34.04,5.93-62.98-6.19-93.13-19.09l-17.38-4.36  c-21.48-1.95-43.2-1.44-65.15,1.52L0,116.52V40.18c88.93,7.34,177.98,15.66,267.85,21.08c112.06,6.75,222.78,17.22,334.65,23.19  c56.58,3.02,111.67,8.42,167.32,12.96c5.23,0.43,10.45,2.9,12.61,7.29c-32.14,17.53-42.9,55.34-23.68,86.47  C771.1,211.17,786.43,228.26,800.73,246.4z" />
<path class="cls-14" d="M580.12,512.86l-3.1,6.98c-50.48,51.2-75.97,121.44-66.46,193.09l-1.71,7.52c2.18,3.29,2.24,5.1,0.17,5.44  c-1.29,0.69-2.6,1.32-3.96,1.78c-1.33,0.45-2.63,0.86-3.93,0.88c-63.34,0.85-127.46-5.28-187.79-25.29  c-31.85-11.98-63.2-23.45-97.29-22.69c-46.27,2.33-89.7,4.11-136.3-1.95c-24.33-3.16-55.36-9.49-78.72-15.42L0,660.27v-80.36  l180.71-4.06c1.88,0.84,2.8,2.7,2.75,5.56l11.86,0.57c-2.3-2.03-3.69-10.52,2.89-7.22l117.1-22.09c15.95-3.01,30.97-4.43,46.34-3.75  c3.41,0.34,6.39,2.55,8.95,6.64l7.38,10.99l2.11-0.21l5.5,9.64l2.04-0.27c1.59,3.41,3.6,4.86,6.03,4.38  c1.59-2.1,3.86-3.91,6.81-5.44l19.68-22.84l3.27,0.31c46.17,0.18,92.82-17.26,136.9-34.19C567.38,515.22,573.1,511.86,580.12,512.86  z" />
<path class="cls-14" d="M510.42,732.42l2.81,3.82c7.82,26.39,17.48,52.1,28.96,77.13c6.28,10.36,11,21.04,14.17,32.06  c-0.43,1.29-1,2.69-2.22,3.39c-4.12,2.36-21.05,2.69-26.76,2.77c-30.78-1.48-61.52-3.09-92.25-4.83c12.52,1.68,25.12,2.71,37.79,3.1  c18.94,5.79,38.26,9.81,57.95,12.06c12.94,3.82,26.05,6.01,39.32,6.57l2.94,2.06l2.9-0.56c25.11,34.95,37.66,52.42,37.66,52.42  l-1.24,2.87c-4.76,4.32-11.03,6.6-18.8,6.83c-30.27,3.27-60.42,4.64-90.44,4.11c-4.15,0.36-7.69-2.17-10.61-7.6  c-6.52-8.41-11.27-17.44-14.25-27.09c-3.28,4.88-4.6,11.01-3.96,18.4l-3.09,1.22c-10.25,31.37-24.05,61.82-40.94,89.81l-3.11,0.13  c-6.04,3.82-6.53-2.43-5.71-7.52c9.86-17.61,16.77-36.2,20.72-55.77c2.36-4.09,5.19-7.85,8.48-11.27  c-8.95-9.16-20.74-13.65-35.36-13.47l-2.92-3.06l-3.94-1.41c-13.29-24.94-32.97-24.4-56.68-17.6c-5.33,0-8.29-1.43-11.19-6.01  c-6.32-13.56-13.46-26.63-21.4-39.24c-11.9-0.97-23.87-1.15-35.89-0.53c-11.18,0.8-17.77-2.93-19.76-11.2  c-2.29-1.54-4.37-3.63-6.22-6.27l-6.05-3.37c-9.99-1.79-20.06-3.17-30.2-4.17l-1.56-2.89c-4.63,3.84-13.89,0.31-19.29-2.04  c-6.06-2.64-9.9-5.68-14.11-10.86c-0.71,0.27-1.42,0.51-2.14,0.59c-8.8,1.08-19.07-32.81-20.47-40.74c-2.2-3.36-2.65-6.12-1.35-8.29  l-32.8-2.68c-42.9-7.06-85.64-14.08-128.2-21.08L0,739.29v-32.14c1.62-0.51,3.25-0.97,4.91-1.25c1.62-0.28,3.22-0.5,4.8-0.41  c111.94,6.71,219.94,13.48,331.04,20.55c55.44,1.32,110.41,2.7,164.91,4.14L510.42,732.42z" />
<path class="cls-14" d="M1128.82,832.04c1.57,7.24,0.48,14.88-3.26,22.94c-6.7,18.68-14.12,37.07-22.26,55.17l22.7-25.54l3.05,0.6  c2.87-3.21,7.66-6.67,9.19-1.48c0.5,1.49,0.95,2.99,1.22,4.53c0.27,1.51,0.51,2.99,0.35,4.41c-5.12,46.27-10.7,91.83-22.84,136.11  l-1.56,11.46c0.57,5.39-0.34,9.91-2.75,13.53c-1.46,6.76-4.74,12.97-9.83,18.65c-2.2,4.81-4.89,7.08-8.07,6.82  c-1.18-0.05-2.61-0.46-2.78-1.48c0.36-11.65-2.24-21.75-7.79-30.32c-2.62,1.24-4.58,1.22-5.88-0.06  c-14.58,19.44-17.97,43.66-20.14,67.28l-2.77,2.35c0.5,2.36,0.64,5,0.42,7.93c10.66,16.75,7.69,29.84,2.77,47.56  c0.64,15.38-1.49,30.07-6.39,44.06c-8,11.59-14.53,23.89-19.6,36.89c-5.47,22.27-9.9,44.8-13.29,67.57c0,0-1.33,1.62-4,4.85  l-2.88-2.46c0.27-13.97-2.59-26.84-8.58-38.6l0.7-3.59c-2.21,1.12-4.15-0.19-5.82-3.91c-11.04-4.18-20.58,6.14-25.58,15.3  c-10.85,26.21-16.75,53.86-17.71,82.95l-2.91,2.22c2.23-0.16,4.16,1.1,5.79,3.79c8.88,4.72,18,9.14,27.34,13.23  c11.67,6.09,13.94,12.5,6.81,19.22c-11.24,7.12-21.7,15.08-31.37,23.87c-1.66,3.93-3.78,6.26-6.34,7c-2.47-0.77-4.59-2.89-6.35-6.34  c-4-1.97-6.26-4.27-6.77-6.89l-2.45,2.04c-12.9-2.78-20.22,12.69-24.1,22.82c-9.89,25.76-12.7,55.57-13.82,82.83l-2.66,2.01  c1.18,0.39,1.17,0.89,0.04,1.47h-56.38c-0.91-0.59-2.26-1.5-2.07-2.3c2.08-8.83,9.76-35.18,13.59-42.29l3.15-1.04  c-0.09-8.6,1.89-17.02,5.92-25.25c13.44-34.25,27.89-67.99,43.36-101.23c5.56-18.56,10.67-37.27,15.32-56.13l3.99-3.34  c-0.96-0.47-2.33-1.38-2.09-2.08c15.34-45.3,32.57-94.25,58.69-135.19l3.34-2l0.28-5.67c8.75-17.15,15.5-35.12,20.24-53.93  c10.37-20.09,20.23-40.6,29.58-61.51c7.74-20.69,16.12-40.77,25.13-60.22c2.72-0.53,12.19-17.1,9.7-18.25  c-2.44-1.13-39.1,24.52-38.68,35.63c-2.59,12.48-4.01,25.19-4.28,38.13c-4.66,34.79-19.5,58.6-47.84,80.51  c-8.57,11.58-13.63,25.2-15.18,40.88l-3.15,1.59l-4.19,2.25c-5.3,0.08-21.16-1.96-25.67-3.9c-1.48-0.64-2.37-2.2-3.14-3.63  l-0.11-6.55c6.06-17.12,18.19-47.68,30.29-60.17c13.86-7.46,22.41-18.32,25.65-32.58c5.12-28.51,10.96-54.27,32.36-75.22  c-9.48,4.08-20.27,10.31-29.04,17.06c-19.7,15.16-25.69,33.38-31.23,57.02c-3.36,9.75-8.61,18.79-16.03,25.89  c-10.13,6.79-18.83,14.48-26.1,23.05c-2.8,12.01-5.37,24.31-7.72,36.9c-0.64,4.95-2.77,8.47-6.38,10.55  c-0.53,0.94-1.35,2.35-2.14,2.22c-8.17-1.39-22.15-4.98-29.98-7.68l-1.18-3.07l-1.85-2.14l31.37-54.09  c-19.54,12.79-37.79,26.36-45.89,49.79l-3.86,2.55c-0.69,2.58-1.91,2.68-2.85,0.14c-1.17-0.08-1.14-0.44-0.03-1.04  c-0.44-0.31-0.78-0.58-0.73-0.72c3.79-10.65,8.13-22.05,12.54-32.45c0.35-0.82,0.88-1.3,1.79-1.38c-0.62-1.8-1.05-3.72-0.62-5.61  c2.31-10.27,14.87-29.84,21.34-38.99c6.16-8.72,23.62-30.99,31.67-35.99c1.61-1,3.42-1.41,5.31-1.44c4.25,2,1.15,6.18-1.12,9.1  c-0.89,0.65-8.61,9.07-8.12,8.74c11.08-7.48,34.66-24.12,41.89-34.34c5.24-12.44,12.97-21.87,23.21-28.31l54.25-22.76  c7.17-6.11,13.55-13.1,19.11-20.97l1.85,0.11l0.6-3.8c18.27-27.74,34.02-56.89,49.37-86.18c4.19-8.89,9.88-15.38,17.06-19.48  C1113.96,827.8,1127.43,827.97,1128.82,832.04z" />
<path class="cls-8" d="M1183.69,1324.57l-2.73,1.52c-36.15-17.37-41.31,23.58-37.35,50.65l-2.35,3.1l2.9,1.25  c5.24,23.25,33.56,17.41,51.48,13.58l4.36,1.41v146.77H992.26l-2.4-1.71c4.64-26.51,9.86-52.86,15.63-79.03  c11.83-20.37,25.09-39.99,39.78-58.85c25.33-37.38,30.18-49.52,29.83-95.54c-4.56-47.09-3.3-92.08,33.75-127.04  c19.72-26.98,20.15-50.83,12.89-81.98l-10.73-37.77c0.05-2.39,0.6-4.78,1.65-7.17c-1.78-22.38,6.71-44.15,11.37-66.47  c7.26-34.75,9.71-69.12,14.21-103.57c-1.23-2.3-0.36-2.89,1.58-1.11c0.94,0.71,1.84,1.46,2.6,2.33c0.75,0.86,1.44,1.68,1.7,2.61  c1.9,6.76,3.37,13.56,4.77,20.44c4.82,23.79,8.24,51.12,11.26,75.35c4.23,33.95,2.25,63.45-5.24,96.15  c-1.07,8.5-0.67,17.4,2.61,25.45c10.35,20.45,18.24,42.68,23.65,65.1c7.95,32.95-0.65,56.06-12.62,85.85  c-5.54,20.27-0.02,32.39,11.09,49.87C1181.98,1310.72,1186.31,1320.18,1183.69,1324.57z" />
<path class="cls-13" d="M1200,124.34v139.4c-65.4-7.03-136.54-6.6-200.76-19.98l-2.63-3.09c-0.31-32.33-29.88-53.29-60.4-53.43  l-3.01-2.65c-1.51,3.85-7.02,4.03-8.97,0.46l-4.81,3.35l-16.99,3.75c-4.2,2.93-8.13,3.99-11.77,3.18l-0.61-4.42  c16.07-29.52,7.85-65.73-21.81-82.78l-1.81-4.09c19.62-6.56,40.16,0.5,61.61,1.69C1019.64,110.79,1109.59,118.79,1200,124.34z" />
<path class="cls-15" d="M278.39,200.05l-1.09,4.11c-15.65,12.43-23.36,31.7-25.83,51.12l-3.01,2.98l2.44,3.78  c-0.66,17.72,5.05,35.21,15.54,49.46l0.22,4.65c1.16,0.47,1.12,0.96-0.05,1.48c-1.83,3.97-4.69,8.88-11.08,8.39L0,306.7V198.21  l0.96-2.67c91.92,0.6,183.85,1.21,275.79,1.81L278.39,200.05z" />
<path class="cls-5" d="M182.26,1415.36l3.19-1.37c7.74,5.52,14.11,12.53,19.09,21.05l-0.93,3.3l-1.01,2.77l-46.53,3.88  c2.21,0.69,2.89,1.55,2.15,4.07l2.8,1.22l1.23,13.44l63.46-3.87l1.74,2.58c3.5,0,12.73,1.31,15.65,2.91  c1.81,0.99,2.55,1.64,2.17,4.13c-2.45,3.5-6.42,5.21-11.91,5.15c-14.74,1.8-29.44,2.91-44.12,3.34c1.85,3.66,2.74,11.01,1.26,14.88  c18.83-1.94,37.77-3.75,56.83-5.44l7.08,1.62c1.05-5.86,16.83,0.36,20.75,2.47l0.75,2.9l-0.94,2.79l-58.16,6.22l1.06,13.49  l61.88-5.21l1.8,2.54c3.06-6.01,13.09-0.95,17.3,2.51c7.06,10.61,11.82,12.4,14.28,5.38c8.2-18.45,16.01-37.07,23.44-55.84  c22.2-5.52,44.59-10.56,67.17-15.14l10.21,0.53l2.62-1.85c7.15,5.23,12.01,12.9,14.6,23.01c7.74,11.75,30.5,55.37,26.05,67.35  c-0.35,0.95-0.88,1.84-1.45,2.71H219.33l-2.77-1.24c0.23-3.18-0.16-6.23-1.15-9.14c-38.89,4.53-78.52,9.08-117.64,10.38H31.69  l-2.89-1.08c-5.57,0.22-9.14-1.48-10.71-5.08l-0.51-104.96l2.67-1.62c-2.62-4.02,0.99-6.52,4.28-8.76  c13.73-9.36,40.4-10.18,56.83-10.54c13.72-0.31,25.37,0.2,37.93,5.99l48.75-3.17C173.07,1413.44,177.81,1414.02,182.26,1415.36z" />
<path class="cls-11" d="M1112.67,1053.78c2.39,30.04,39.99,82.96-8.27,136.54c-48.91,54.31-16.24,101.99-30.35,165.29  c-7.47,33.51-63.87,92.45-67.61,112.24l-14.18,75.01h-93.6l-0.04-1.47l1.14-3.08c8.57-2.32,17.14-4.64,25.71-6.95l2.54,2.09  l2.03-3.21c9.19-1,18.42-1.01,27.69-0.03l1.12,1.4c0.04-22.03-0.92-44.11-2.88-66.24c-2.07-7.17-2.47-13.99-1.2-20.44  c4.3-22.38,57.24-33.29,33.04-45.01c-10.7-10.15-30.77-9.67-35.28-22.11l1.44-3.26c8.71-2.72,17.43-5.44,26.16-8.16l2.63,1.98  l1.83-3.27c4.14-2.41,23.74-1.52,28.62-0.11c-1.54-5.65-0.79-26.37-0.25-33.64c0.15-2.02,1.24-3.81,2.33-5.45  c9.31-33.96,5.6-69.3,29.27-101.62c10.92-14.91,10.61-30.74,11.05-48.38c0.34-13.43,9.52-26.08,2.63-39.11  c-3.3-6.25-8.61-14.84-2.86-19.77c-0.41-3.01,13.68-10.29,14.58-10.11c1.16,0.23,2.07,0.9,2.82,1.81l1.38-3.16l16.05-1.47  c1.43-6.95,2.08-14.15,1.95-21.59l2.57-3.25L1112.67,1053.78z" />
<path class="cls-5" d="M162.18,765.96c8.32,9.69,5.2,34.35,23.96,48.43c9.48,7.27,35.49,45.33,34.24,55.2  c-0.89,7.03-9.74,9.72-15.19,4.59c-15.48-24.48-34.52-48.23-59.81-63.32c-2.63-1.57-17.05-9.5-17.17-7.5  c-0.56,9.49,26.89,35.73,36.03,40.74c7.49,5.62,9.64,13.58,10.78,22.42c3.41,8.71,9.2,16.15,17.38,22.32  c0.34,14.07,4.05,27.58,9.56,40.45l-1.16,4.26c3.96-0.06,5.07,1.59,2.88,5.22l5.42,5.64c8.1,17.09,15.43,34.39,21.99,51.92  c-8.64,7.33-11.15,15.04-8.73,25.99l-2.41,2.1l3.11,2.78c1.56,10.68,3.92,21.39,9.29,30.86l-0.64,4.09  c1.05-0.11,2.65-0.13,2.87,0.58c2.2,6.83,5.24,20.33,6.13,27.4c1.67,3.77,1.36,6.44-0.95,8.01l2.87,1.27  c5.22,17.35,10.23,34.81,15.03,52.38l-0.14,9.37c0.34,1.56,0.62,3.13,0.73,4.71c0.1,1.55,0.18,3.08-0.14,4.51  c-10.33,47.47-21.38,95.12-38.83,140.54c-1.34,4.52-3.97,8.26-7.59,11.28c-1.69,4.8-13.06,2.75-13.26-1.92  c-1.15-1.01-2.35-2.19-2.66-3.75c-1.98-9.98,5.06-28.05,8.77-37.53c1.37-8.01,1.78-16.15,1.24-24.44  c7.83-37.99,1.93-75.69-9.79-112.33c-3.27-18.31-5.54-36.77-6.8-55.37l2.04-4.84c1.62-2.97,4.6-4.87,8.95-5.72  c-3.97,0.38-7.68-0.61-11.1-2.64l-2.67-1.58c0.52-17.36,0.34-34.6-0.52-51.73c-2.96-3.53-4.44-5.3-4.44-5.3  c-33.41-1.54-50.11-2.3-50.11-2.3l-5.49-2.39c-1.5,4.7-13.66,2.28-14.68-1.99c-4.69,1.77-8.84-4.94-4.15-9.03l56.94-0.92l2.46,2.64  l2.54-2.62c16.67,2.45,18.1-6.81,4.3-27.8c-2.52-6.35-2.78-13.3-0.78-20.84c-1.6-23.9-3.38-47.72-5.33-71.45  c-1.07,0.48-2.03,0.42-2.87-0.32c-0.67-7.99-3.15-13.98-7.47-17.98c-0.1,2.62-1.16,2.47-1.63-0.21c-3.54-2.6-6.28-6.61-8.21-12.03  c-19.04-23.21-39.07-45.45-60.07-66.72c-8.29-5.1-17.81-6.74-28.57-4.92c14.33,9.8,27.16,22.09,33.3,38.73  c8.64,30.7,21.57,59.05,38.79,85.05c3.49,2.47,5.21,5.13,5.16,7.97c3.82,2.05,1.24,7.44-2.91,6.59c-0.73,0.77-1.95,1.82-2.56,1.42  c-5.19-3.39-26.02-18.25-29-22.03l-17.6-37.1c-15.66-37.85-44.58-63.56-80.7-82.08L0,770.09v-4.02l0.93-2.68  c42.64-0.03,85.46-0.06,128.46-0.09L162.18,765.96z" />
<path class="cls-16" d="M404.41,199.5l-5.2-0.13c-35.22-21.2-80.44-21.3-115.49,0.39l-5.34,0.28L0,198.21v-81.7  c9.05,0.64,18.16-0.78,27.9-1.86c75.52-8.33,77.95,31.36,146.2,24.23c26.23-2.74,47.89,14.37,73.14,17.48  c31.84,3.92,64.78-3.79,96.47,8.16c22.53,8.5,45.56,3.95,69.04,8.36l43.81,8.21c-16.43-3.08,151.35,7.24,170.61,11.07  c17.66,3.51,35.43,1.13,53.4,6.93L404.41,199.5z" />
<path class="cls-3" d="M361.62,1048.71c4.83-1.1,6.57,5.78,7.52,9.84c1.82,7.79,0.31,23.73-8.93,24.85l2.14,2.43  c-0.04,10.09,2.19,20.13,6.68,30.14l-2.16,2.45l2.58,0.7c4.51,18.83,8.75,37.81,12.73,56.91l-0.67,9.37l4.21,6.32  c7.14,25.19,14.29,50.38,21.44,75.56l0.46,14.63l2.57,3.95c5.87,25.47,11.38,51.03,16.53,76.68l-0.52,4.67  c1.14,1.46,2.24,2.94,3.16,4.52c0.91,1.56,1.76,3.12,2.26,4.79c5.89,19.58,10.48,40.68,14.78,60.72c0.36,1.68,0.34,3.45,0.3,5.25  c-0.05,1.82-0.28,3.63-0.57,5.44c1.69,1.81,3.48,3.74,4.26,6.14c8.29,25.3,17.51,55.41,22.6,81.36c0.22,1.14,0.03,2.36-0.19,3.63  c-0.23,1.29-0.65,2.55-1.12,3.8h-15.91c-2.93-24.64-12.67-45.59-25.72-66.61c-5.89-9.48-5.71-21.22-16.1-24.62  c-3.03,0.01-14.07-0.32-15.42-2.22c-0.67-0.95-1.05-1.94-0.94-3.13l-3.6-2.06c-3.85-15.99-9.26-31.24-16.23-45.73  c-9.79-14.01-16.63-33.04-21.55-49.52c-7.04-23.57-3.9-39.92,0.96-63.82c2.1-18.87-1.29-37.59-10.17-54.21  c-10.15-14.02-15.3-28.77-15.45-44.25c10.2-29.64,12.21-59.37-2.05-88.26c0.63-3.7,1.75-7.32,3.37-10.85  c-3.78-1.38-6.22-3.14-7.32-5.3c-1.78,1.12-3.7,2.26-5.84,2.42c-8.34,0.64-20.43,0.8-28.74,0.24l-5.81-2.59  c-0.71,4.18-12.15,4-13.22,0c-4.02-0.08-5.18-3.03-1.69-5.37l3.21-2.79c3.71-0.57,20.63-1.28,23.99-0.87  c1.42,0.17,2.57,1.17,3.6,2.09l5.87-3.54c30.33,1.07,38.89-16.25,22.68-40.5c-2.91-9.98-4.16-20.36-3.77-31.14l-4.14-35.02  l2.43-2.24l3.25,1.67c4.9,10.32,9.61,20.72,14.11,31.23c3.02,17.46,9.03,33.92,19.89,48.09L361.62,1048.71z" />
<path class="cls-11" d="M1200,504.16v146.53c-1.62,0.62-3.25,1.2-4.93,1.58c-1.66,0.38-3.29,0.75-4.9,0.69  c-27.59-1.03-55.24-2.6-82.63-6.14c-1.58-0.2-3.11-0.86-4.68-1.54c-1.57-0.68-3.06-1.55-4.53-2.47l-3.84-5.71  c-10.48-50.34-37.33-96.22-77.05-129.03l-3.3-6.08l149.5-8.08C1176.9,493.21,1188.21,502.88,1200,504.16z" />
<path class="cls-8" d="M132.65,914.49l0.55,4.24c-8.95,13.54-12.94,28.02-14.42,43.93c-0.62,2.82-1.45,5.6-2.57,8.28  c-2.47,5.95-6.97,16.58-13.31,17.45l-3.25-1.42c-2.38-5.81-4.16-11.76-5.82-17.8c-0.57-2.09-29.64-2.89-33.93,3.13  c10.09,6.61,19.58,13.97,28.47,22.06c3.22,3.82,16.64,33.67,15.98,35.72c-3.37,10.53-30.84,1.29-33.64-8.45l-26.34-34.59  c-12.88,1.46-25.52,3.83-37.92,7.13c8.31,9.82,16.55,19.93,24.72,30.33c4.28,5.96,5.02,10.83,2.23,14.59  c-10.25,3.06-24.26,1.78-33.4-3.81V926.79c3.19-2.13,6.68-0.61,10.49,4.56c9.13,11.77,17.92,23.73,26.39,35.88l3.51-2.42  c-12.61-16.65-22.18-35.08-28.72-55.27L7.49,902c-3.5-3.84-6-8.08-7.49-12.72V825c0.96-0.75,2.05-1.2,3.28-1.13  c4.99,0.27,21.88,25.35,24.75,30.85c8.92,16.63,18.56,32.77,28.91,48.41c0.92-18.35-3.46-34.34-13.16-47.98  c-12.69-13.37-23.71-28.09-33.06-44.16c-4.65-4.8-8.23-9.95-10.73-15.46v-25.45c66.82,36.98,70.98,53.78,103.18,122.22  L132.65,914.49z" />
<path class="cls-5" d="M1159.89,897.24l3.14-0.46c2.92,4.65,6.29,8.89,10.1,12.71l-0.23,3.03l4.82,3.11  c5.58,7.92,13.16,19.82,17.39,28.39c2.45,4.96,4.26,9.32,4.9,15v437.07c-11.87,4.18-25.16,5.19-38.33,4.1  c-11.2-0.92-19.2-9.98-20.41-20.35l0.83-2.7l47.92-1.48c1.04-15.76-1.46-31.62-7.25-46.32l0.94-4.77  c-3.37-7.82-4.7-16.26-10.14-24.41c-32.37-48.46,25.74-65.88,2.83-137.06c-5.32-16.54-8.59-32.76-17.25-48.41  c-21.58-39.03,12.26-53.78-3.22-140.86c-5.49-30.9-6.63-61.96-16.08-91.2c1.44-4.94,7.34-1.53,10.52,0.57  C1154.11,885.67,1161.29,892.69,1159.89,897.24z" />
<path class="cls-3" d="M68.96,1181.34c6.35,4.52,9.96,15.79,9.93,23.75c3.25,0.97,5.65,3.78,7.19,8.42  c6.51,7.88,13.69,15.25,21.54,22.09c-1.5-13.53,1.39-24.74,8.67-33.64l3.13,1.02c0.65,0.87,1.25,1.76,1.68,2.73  c1.38,3.04,0.03,33.18-0.52,39.49c-0.18,2-1.32,3.77-2.42,5.39c0.12,2.46,0.04,4.78-0.25,6.97c0.95,0.3,1.88,0.64,2.72,1.14  c4.83,2.87,19.09,41.61,21.81,50.05l-0.65,5.21l4.16,2.82l11.03,25.61l-0.45,4.91l2.92,1.09c7.52,20.6,14.83,41.31,21.92,62.15  l-2.01,2.38c-14.62,2.16-31.97-3.49-46.32-8.17c-8.1-2.64-30.66-10.07-34.82-15.66c-0.68-0.91-1.2-1.93-1.68-2.98l-2.56-2.58  c1.87-22.93-2.81-43.63-14.01-62.09c-13.39-34.44-27.41-68.95-42.07-103.55c-5.57-20.07-13.16-38.89-22.78-56.45  c-4.05-5.75-8.58-11.1-13.6-16.06L0,1141.07v-36.16l4.56-0.27c31.01,16.12,48.69,40.42,63.87,70.92L68.96,1181.34z" />
<path class="cls-5" d="M735.25,1253.88c2.59,7.23,4.35,14.71,5.26,22.43c9,26.39,18.29,52.7,27.86,78.93  c1.8,18.44,3.12,36.93,3.94,55.48c2.48,11.04,7.36,21.25,14.65,30.63c6.98,13.3,7.18,27.75,5.29,42.25  c1.74,13.89,7.98,26.5,18.73,37.82l4.6,7.89c3.56,5.47,4.16,9.99,1.78,13.56h-88.53l-4.13-3.13c-10.62-18.2-22.65-42.69-26.56-63.28  c-4.56-23.96,0.23-48.08,9.65-70.14c22.42-39.21,24-83.6,19.25-128.89l1.24-10.53c-4.78-4.03-5.15-15.19-1.25-19.96  C730.8,1242.24,738.2,1249.39,735.25,1253.88z" />
<path class="cls-11" d="M509.02,725.89c3.97-1.53,5.87,5.37,1.4,6.52c-23.54,2.73-46.92-2.52-71.74-1.86  c-47.52,1.26-93.42-1.35-141.39-4.44L99.88,713.37c-33.9-2.19-66.78-2.36-99.88-6.22v-46.88l55.74,11.38  c115.43,23.57,152-10.94,232.64,19.91C366.33,721.38,426.87,725.91,509.02,725.89z" />
<path class="cls-2" d="M510.37,1457.27l2.92,0.94l5.46,24.95c1.76,2.08,31.62,14.03,35.78,14.8c8.02,1.48,13.85-0.45,20.99-4.21  c1.75-0.19,17.21,7.86,15.05,11.53c0.95,0.45,2.32,1.23,2.17,1.98c-1.35,6.61-8.44,28.88-11.39,34.58l-3.15,1.01H471.68  c-5.63-32.27-18.1-63.13-25.54-94.92l0.75-3.07c6.75-2.5,7.43-8.95,2.05-19.34c-1.31-5.11-1.48-10.58,0.48-15.55  c3.37-8.57,13.25-18.94,19.61-25.51c32.28,9.6,37.59,37.38,35.68,66.54C506.02,1453.39,507.91,1455.48,510.37,1457.27z" />
<path class="cls-3" d="M752.9,1278.91l4.12,1.37c6.44,13.94,13,27.82,19.67,41.62c10.25,11.69,18.99,24.13,26.2,37.32  c2.28,4.21,2.14,7.45-0.41,9.72l3.22,3.9c4.57,21.01,13.51,40.52,26.81,58.52c8.98,18.99,16.99,38.4,24.02,58.23l0.42,7.63  l-14.66,45.63h-24.92c-5.34-27.69-31.74-35.4-27.28-65.82c2.15-14.69-1.44-30.54-10.34-42.22c-18.53-24.31-7.55-54.62-14.3-80.27  c-8.98-34.13-30.39-64.79-30.19-100.67l3.07-0.29c5.21,7.4,10.43,14.8,15.65,22.21L752.9,1278.91z" />
<path class="cls-14" d="M727.04,1246.92c0.4,6.63,0.36,13.37,1.25,19.96c-2.2,24.11-14.65,47.3-28.8,66.66  c-5.28,11.77-8.09,24.48-8.43,38.11c-3.69,13.4-7.43,26.77-11.25,40.11l-2.83,2.45l-1.95,6.61  c-24.23,34.82-42.37,74.08-49.62,116.05l-3.67,5.98H578.2l12.37-37.58l-1.93-2.24c14.09-31.01,28.19-62.05,42.3-93.11l5.27-5.13  c0.03-1.73,0.12-3.46,0.39-5.15c0.27-1.68,0.55-3.33,1.22-4.78c6.45-13.84,13.17-27.6,20.14-41.09c2.48-12.57,5.45-22.3,14.45-32.59  c2.88-6.95,6.87-12.46,11.96-16.55c-0.18-1.17-0.3-2.33-0.24-3.49c0.05-1.09,0.17-2.15,0.57-3.08c3.36-7.85,8.59-16.45,13.09-23.83  c0.53-0.86,1.72-1.32,3.11-1.65c2.93-9.1,11.26-23.03,19.07-28.33C722.28,1242.69,727.09,1243.48,727.04,1246.92z" />
<path class="cls-14" d="M1200,650.69v84.56l-7.26,1.68c-30.81-2.98-61.57-2.28-92.28,2.08l-3.72-1.2l-1.34-3.27  c3.73-28.41,4.16-56.82,1.28-85.24l1.66-6.47C1131.69,647.87,1166.03,649.3,1200,650.69z" />
<path class="cls-5" d="M96.55,1386.1l-3.76,1.04c-3.72-1.11-22.57-8.72-24.34-10.49c-0.95-0.95-1.08-2.48-1.16-3.84  c-2.49-1.94-3.95-5.06-4.37-9.35c-6.14-11.59-12.88-22.9-20.22-33.94c-8.53-23.45-19.06-45.84-31.6-67.17  c-4.87-5.18-8.57-10.78-11.1-16.81v-104.46c15.15,11.93,25.16,28.93,30.84,48.24c9.71,32.98,25.36,62.67,37.36,94.26  c6.41,16.88,9.45,30.07,19.36,45.84C97.23,1344.78,96.06,1368.89,96.55,1386.1z" />
<path class="cls-9" d="M728.29,1266.88c4.48,32.96,5.17,66.78-1.46,100.17c-5.63,28.36-50.23,75.24-13.1,145.13  c5.47,10.31,11.2,20.17,15.12,30.67h-69.16c-2.39-3.19-2.05-6.55-0.99-10.22c10.77-36.85,20.54-71.2,15.58-109.93l2.71-8.5  c0.34-13.19,7.85-24.65,10.56-37.93c3.31-16.18,1.33-33.72,11.89-47.36C714.39,1309.6,720.67,1288.72,728.29,1266.88z" />
<path class="cls-8" d="M67.28,1372.8c8.92,5.88,20.01,8.05,29.26,13.3c25.08,14.22,54.31,22.09,82.82,26.81  c2.3-3.66,5.14-1.31,2.89,2.46l-61.58,4.09c-7.01,0.47-10.28-4.21-15.68-4.94c-14.15-1.9-77.24-3.24-84.76,15.6l-3.48-0.19  l-7.5-7.77c-4.49-2.11-7.58-4.74-9.27-7.88V1350l2.02-2.14c21.27,7.19,42.54,14.41,63.81,21.66L67.28,1372.8z" />
<path class="cls-7" d="M91.17,1086.22l2.21,2.14l-4.5,17.16l-3.07,1.13l-5.04,2.32c-15.81-1.13-31.76-1.71-47.5,0.38  c16.05,1.55,32.18,1.76,48.39,0.63l2.9,2.85l2.37,2.82c-4.09,21.39-9.01,42.61-14.77,63.67l-3.2,2.02  C41,1135.56,47.37,1135,0,1104.91v-38.84c0.18-3.77,2.89-3.45,6.11-2.7c7.38,4.69,15.28,8.23,23.68,10.64  c39.45,6.72,59.17,10.07,59.17,10.07L91.17,1086.22z" />
<path class="cls-3" d="M67.28,1372.8L0,1350v-104.46c22.74,20.8,31.57,52.02,44.06,80.56C51.31,1342.65,67.17,1355.23,67.28,1372.8z" />
<path class="cls-11" d="M676.98,1414.22c-0.55,21.78,3.16,44.09-1.64,66.32c-4.61,21.33-12.89,41.16-15.66,62.33h-37.94  C628.51,1496.65,648.86,1451.28,676.98,1414.22z" />
<path class="cls-10" d="M33.4,1039.08c0.24-1.04,0.79-2.57,1.53-2.52c18.51,1.32,41.33,3.75,59.54,6.87c4.94-0.35,7.83,0.89,8.68,3.7  c0.51,0.81,0.98,1.63,1.28,2.51c1.17,3.44-7.25,27.81-9.53,33.17l-3.74,3.4c-23.74-3.66-48.38-4.52-71.82-12.57  c-6.95-2.39-11.63-9.95-19.35-7.58v-30.8C11.13,1036.94,22.25,1037.79,33.4,1039.08z" />
<path class="cls-10" d="M1200,787.55v35.23l-0.97,2.67c-43.34-0.58-86.69-1.15-130.05-1.73l-1.6-2.7c-2.32-1.18-2.57-3.1-0.76-5.77  c1.35-3.64,4.98-12.23,8.79-11.83l2.18-2.75c40.11-5.39,80.26-10.58,120.45-15.58L1200,787.55z" />
<path class="cls-14" d="M1200,768.71v18.84l-124.59,15.87c-0.29-1.21-0.53-2.42-0.59-3.64c-0.24-5.31,9.34-29.58,12.34-36.58  c0.93-2.17,2.7-3.83,4.45-5.35c4.7-0.61,9.58-0.88,14.62-0.83c29.17,6.09,58.54,9.23,88.09,9.42L1200,768.71z" />
<path class="cls-11" d="M1200,735.26v33.45c-31.32,2.85-62.2-4.29-94.07-9.03c-5.16-0.77-10.36,2.59-14.32-1.83  c-2.83-4.76,0.63-16.92,5.12-20.04C1131.21,732.09,1165.35,729.86,1200,735.26z" />
<path class="cls-11" d="M1200,822.79v8.47c-2.4,3.06-5.02,6.14-7.88,9.23c-11.19,17.89-20.85,36.58-28.98,56.09l-3.25,0.66  c-6.08-6.64-10.79-15.15-20.06-14.62l-1.58,1.11c-3.17-0.25-6.09,1.12-9.19,1.48c-0.57-5.49,1.62-10.89,6.56-16.19  c8.95-11.81,18.62-23.01,29.01-33.61c0.84-1.85-27.6-0.88-31.47-0.73l-4.35-2.64l-15.89,0.01c-4.68,3.54-14.46,3.72-18.73-0.2  c-6.58,4.28-18.22,5.22-24.28,0.14c-2.33,3.06-6.81,3.95-7.92-0.44c-3.41-2.35,1.39-11.48,5.39-10.54L1200,822.79z" />
<path class="cls-3" d="M20.25,1430.11l0.42,106.57c3.09,4.53,8.81,2.04,11.02,6.17H0v-128.57  C8.45,1416.63,15.16,1423.05,20.25,1430.11z" />
<polygon class="cls-10" points="162.18,765.96 0,766.07 0,739.29 " />
<path class="cls-5" d="M0,825v-29.46c16.35,12.75,23.1,34.56,38.46,49.86c10.24,10.21,18.25,20.82,19.45,35.9l2.41,30.44  C42.19,893.04,21.3,836.75,0,825z" />
<path class="cls-14" d="M1200,865.74v93.28c-7.64-16.41-18.56-30.82-27.11-46.49l-1.11-3.74c5.62-16.24,13.71-30.63,24.26-43.17  L1200,865.74z" />
<path class="cls-8" d="M1200,831.25v34.48c-14.12,11.27-18.74,30.74-27.11,46.78c-5.55-3.11-8.68-10.56-13-15.28  C1163.5,889.56,1190.45,826.69,1200,831.25z" />
<path class="cls-5" d="M0,926.79v-37.5c22.26,19.94,15.19,41.25,43,74.32c1.94,2.31-4.13,5.92-6.36,6.17  C32.42,970.24,10.84,928.98,0,926.79z" />
<path class="cls-3" d="M219.33,1542.86H97.77l119.82-13.32C219.58,1534.64,218.96,1538.73,219.33,1542.86z" />
<path class="cls-2" d="M1014.15,502.01c44.81,34.88,74.17,85.39,84.19,140.81c5.67,31.38,2.92,63.73-1.6,94.99  c-0.93,6.42-3.29,13.76-5.12,20.04c-4.53,15.5-10.83,30.4-16.2,45.57c-1.83,5.17-6.85,12.31-8.03,17.59l-5.39,10.54  c-0.03,1.57-0.12,3.13-0.4,4.66c-0.28,1.5-0.58,2.96-1.24,4.23c-17.51,33.48-42.28,66.36-66.04,95.75c-0.89,1.1-2.11,1.95-3.37,2.81  c-1.28,0.87-2.66,1.58-4.07,2.24c0.74,0.75,1.75,1.99,1.33,2.62c-4.14,6.33-11.79,15.42-16.9,21.18c-2.41,4.29-5.55,6.79-9.41,7.5  l1.5,2.4c-12.54,15.29-25.08,30.59-37.63,45.89l-3.07-0.48l-5.51,6.73c1.53,2.7,0.55,3.44-2.34,2.85  c-26.72,25.88-43.62,46.25-57.7,82.03c-1.56,2.42-2.41,2.48-2.57,0.17l-1.94,2.57c-14.1,0.53-28.1,0.2-41.98-1l-1.43-2.87  l-0.65-37.54c-4.11-0.12-6.71-1.32-7.79-3.6c-2.43-5.59-4.76-11.26-6.04-17.23c-23.42-108.73-37.66-221.41-46.46-332.22  c-0.87-9.09,1.19-10.33,8.19-9.06c45.84,21.1,100.04,23.39,145.5,0.24l6.04-0.22c0.61,1.14,1.16,2.3,1.54,3.51  c0.37,1.22,0.72,2.38,0.62,3.5c-10.74,117.5-45.7,234.85-79.54,347.48c-3.15,2.57-2.91,2.85,0.75,0.83  c7.9,0.5,15.77,0.48,23.63-0.07c34.63-58.68,67.9-118.22,99.81-178.62c50.28-100.46,88.23-193.24,45.62-303.48  c-26.55-68.69-78.25-121.03-149.99-140.89l-5.36-4.2C905.35,443.23,966.03,464.55,1014.15,502.01z" />
<path class="cls-4" d="M845.09,439.29c61.21,15.36,112.39,54.87,143.08,111.99c26.06,48.51,39.52,108.1,31.71,163.52  c-15.66,111.12-107.12,255.63-163.39,353.67c-9.65,1.5-19.01,1.58-29.5,0.3c31.69-99.01,74.2-258.11,81.02-357.56l-2.48-3.21  c0.86-71.72-4.86-160.81-41.31-224.34c-10.23-17.84-23.95-34.28-43.18-42.46l-2.41-3.79C827.67,436.87,836.02,438.69,845.09,439.29z  " />
<path class="cls-6" d="M818.62,437.41c78.92,27.64,94.03,206.01,89.38,273.8c-47.7,26.95-108.33,24.71-157.64,0.01  c7.06,121.59,27.53,240.25,50.41,358.47c-0.91,1.3-2.06,2.42-3.6,2.91c-4.29,1.38-20.66,0.35-24.2-3.06  c-1.19-0.87-2.34-1.79-3.36-2.83c-1.01-1.03-1.98-2.05-2.57-3.25c-33.42-67.03-67.6-135.63-95.2-205.39  c-16.82-42.5-33.72-89.63-40.9-134.71c-0.21-1.32-0.03-2.71,0.19-4.13c0.23-1.44,0.65-2.85,1.12-4.25l5.23-0.1  c35.4,19.14,76.51,13.44,110.71-5.47c0.06-73.15,0.34-156.88,24.91-226.85c3.64-10.36,14.1-35.79,22.21-42.14l5.72-2.34  C807.05,437.14,812.62,437.77,818.62,437.41z" />
<path class="cls-11" d="M801.04,438.09c-47.58,48.63-51.39,204.15-50.75,272.58c-36.01,21.9-81.35,26.31-118.04,4.33  c-3.07,1.56-3.38,0.64-1.4-2.11c-0.71-0.83-1.38-1.69-1.89-2.63c-0.5-0.93-0.96-1.8-0.98-2.68  c-1.61-73.56,14.98-156.76,63.77-214.05c23.64-27.76,57.42-52.26,94.57-55.61C790.51,438.1,797.28,438.69,801.04,438.09z" />
<path class="cls-12" d="M786.32,437.93c-119.01,28.28-160.27,165-155.47,274.96l-1.39,4.23c-15.99,10.58-35.66,16.02-54.73,12.54  c-9.1-1.66-21.93-5.25-25.66-14.11c-0.81-0.87-1.58-1.77-2.18-2.77c-4.92-8.11-2.37-44.05-1.12-55.4  c11.67-105.69,77.44-191.7,184.14-212.77C748.58,441.93,767.19,437.14,786.32,437.93z" />
<path class="cls-11" d="M729.91,444.6c-58.73,17.59-113.03,47.54-145.27,103.35c-27.91,48.3-43.79,110.98-35.56,167.59  c-2.22,10.39-17.6,18.59-28.08,16.7c-6.64-1.2-10.62-5.29-12.15-11.79c-11.74-80.77,14.08-150.68,71.27-207.59  C625.07,479.52,673.81,452.61,729.91,444.6z" />
<path class="cls-4" d="M418.71,316.46c-4.69,6.7-8.12,14.28-12.85,19.87l-41.64,49.23c-1.31,3.52-17.36,4.24-19.31,3.45  c-1.01-0.41-1.55-1.57-2-2.6l-1.54,2.66c-4.68,0.76-16.93,0.85-19.67-2.92c-20.38-22.31-38.1-45.05-55.1-68.53l0.05-1.48  c4.59-3.91,12.81-4.2,17.47-0.32c0.23-3.96,10.41-3.38,14.09-2.97c2.55,0.28,3.63,1.01,5.76,2.56c8.48-3.91,22.29-3.11,32.05-1.98  c2.15,0.25,4.05,1.47,5.8,2.68c1.02-0.7,2.06-1.35,3.17-1.84c1.08-0.48,2.13-0.92,3.18-0.96c21.2-0.92,43.23-1.79,64.38-0.12  c1.05,0.08,2.07,0.61,3.13,1.17C416.76,314.92,417.75,315.67,418.71,316.46z" />
<path class="cls-12" d="M191.4,393.9l2.68,0.92c0.15,50.48,0.29,100.98,0.44,151.48l-2.67,1.64c4.08,0.56,3.67,9.69-0.26,10.39  c-3.22,1.51-8.21-2.33-10.07,4.42c-6.8-16.38-19-29.5-30.22-44.4c1.02-2.77,1.28-5.41,0.8-7.94  c-12.71-19.35-19.44-39.98-20.19-61.89l-3.19-3.74c-3.28-0.45-5.98-1.43-8.12-2.95C128.67,408.94,160.18,393.84,191.4,393.9z" />
<path class="cls-4" d="M260.89,442.09l-1.48,2.74c-3.54-0.28-6.21,0.58-8.02,2.56c-0.45,22.85-9.03,42.68-21.6,61.79l-0.8,3.93  c1.27,2.61,1.29,4.74,0.08,6.38c-7.95,9.64-17.41,18.51-21.98,28.61c-3.38,4.36-11.93,4.25-15.25-0.17L191.4,393.9  C223.23,393.97,254.51,411.26,260.89,442.09z" />
<path class="cls-7" d="M511.59,475c-0.45,1.14-0.88,1.09-1.29-0.09c-5.24,0.71-14.11-2.34-13.79,4.46c0.06,1.5-0.61,2-2.03,1.48  c-0.68-4.3-4.09-7.65-4.24-12.1c1.14-2.44,4.12-3.44,8.94-3.02l-0.62-103.83l2.67-1.65c17.78,0.18,35.9,5.11,45.97,20.58  C572.05,419.05,523.16,448.23,511.59,475z" />
<path class="cls-10" d="M501.22,360.25l0.65,107.97c-4.29,0.97-7.95,0.34-11.63,0.52c-20.13-23.99-55.26-55.85-33.68-88.47  C466.3,365.56,484.09,360.07,501.22,360.25z" />
<path class="cls-6" d="M423.41,552.11l-21.03,24.4c-2.28,2.68-5.86,3.7-8.72,3.58c-1.3,0.28-1.7-0.19-1.2-1.42l-1.87-10.37  c0.12-24.05,0.49-48,1.11-71.84l1.86-3.4c15.25-1.26,29.57,6.89,35.82,18.64C436.98,525.94,431.15,539.36,423.41,552.11z" />
<path class="cls-11" d="M387.11,493.58l1.01,3.42c-10.64,22.26-5.4,49.57,2.67,71.96l1.68,9.7c0.31,0.53,0.86,0.91,1.2,1.42  c-0.31,5.07-3,2.07-4.75,1.21c-2.5-1.24-2.05-4.38-3.32-5.32l-6.24-11.03l-1.37,1.6c-5.81-5.68-12.25-11.44-16.34-17.63  c-7.9-11.99-11.46-25.52-4.66-37.84C362.63,500.85,374.91,494.59,387.11,493.58z" />
<path class="cls-11" d="M151.3,518.36c-13.9-18.46-40.85-41.75-30.69-76.52c2.43-1.32,6.37-0.74,8.63,0.2  c2.03,0.85,5.62,4.18,5.46,7.42C132.72,489.95,166.77,511.96,151.3,518.36z" />
<path class="cls-6" d="M260.89,442.09c7.18,34.72-14.12,55.95-31.81,77.4c-4.37-4.59-3.03-10.2,0.51-15.61  C262.54,453.53,235.08,442.94,260.89,442.09z" />
<path class="cls-10" d="M393.57,493.05c-0.75,28.54,1.74,57.31-1.1,85.62c-11.22-19.46-19.64-64.32-5.35-85.08L393.57,493.05z" />
<path class="cls-8" d="M198.21,574.75c-3.09,1.35-2.93,3.21-1.3,4.49c1.17,0.92,2.7,1.75,3.83,4.48c-5.39,1.8-12.55,0.61-18.55,0.58  c-1.66-1.16-2.42-6.48-1.48-8.46c1.52-3.17,0.78-10.06,3.34-10.14c3.59-0.11,8.25-0.89,12.11,0.45  C199.24,567.22,198.48,571.03,198.21,574.75z" />
<path class="cls-5" d="M345.54,412.5c2.15-0.08,1.98,4.57,0,5.36c-0.66,0.8-0.63,0.87,0.15,1.62c4.11,1.18,3.77,13.53-1.15,13.06  c-5.3-0.14-8.73,1.12-14.35,0.23c-0.1-6.82-2.13-16.74,4.64-20.26C338.03,411.32,343.51,409.62,345.54,412.5z" />
<path class="cls-5" d="M342.9,386.42c4.61,0.15,5.75,8.92,1.19,10.04c-3.76,0.06-8.77,1.15-9.19,3.5l-2.07,11.48l-11.14-25.27  L342.9,386.42z" />
<path class="cls-3" d="M364.22,385.56c-3.36,3.97-1.92,11.32-6.3,12.03c-5.13,0.83-9.85-1.2-13.82-1.14c0.38-3.4-0.22-6.77-1.19-10.04  L364.22,385.56z" />
<path class="cls-3" d="M344.53,432.53c1.55-4.15,0.72-8.69,1.15-13.06c0.33-1.25,1.31-2.25,2.53-2.96c0.11-1.33,0.56-2.22,1.34-2.68  c5.82,3.73,6.54,7.75,6.7,14.13C356.43,435,350.77,432.7,344.53,432.53z" />
<path class="cls-3" d="M207.1,548.11l-6.06,13.39c-1.27-4.86-7.06-2.74-9.46-3.17l0.26-10.39  C196.92,548.29,202.02,548.55,207.1,548.11z" />
<path class="cls-9" d="M508.97,487.26c-2.98,3.14-13.74,4.92-13.69-1.04c-0.52-1.7-0.54-3.61-0.81-5.37  c0.73-0.41,1.41-0.92,2.03-1.48c3.26,2.74,8.11-0.12,12.25,2.02C510.39,482.23,508.78,485.81,508.97,487.26z" />
<path class="cls-3" d="M508.97,487.26c0.87,3.19,0.95,7.62-3.17,7.15c-2.33-0.27-6.42,0.57-10.09-0.65c-2.09-0.69-0.29-4.83-0.43-7.54  C499.66,489.14,504.5,485.28,508.97,487.26z" />
<path class="cls-8" d="M348.21,411.16c-0.31,1.87-1.14,2.72-2.68,1.34h-10.71C338.22,408.94,344.62,408.71,348.21,411.16z" />
<path class="cls-5" d="M349.55,413.84c-0.15,1.04-0.8,1.83-1.34,2.68c-2.14,0.13-1.97-4.32,0-5.36  C349.43,411.99,349.25,413.3,349.55,413.84z" />
<path class="cls-4" d="M866.42,104.04c34.72,18.4,43.88,57.53,24.24,91.29l-0.16,3.49c-7.33,8.22-13.65,17.37-18.98,27.46l-3.51,0.21  c-7.97,10-18.58,18.36-25.74,29.23c-0.91,3.26-12.09,2.87-15.29,2.31l-2.03-2.22l-0.7-161.04  C839.61,94.78,853.99,97.45,866.42,104.04z" />
<path class="cls-3" d="M842.27,255.71c-1.6,3.74-2.23,7.62-4.65,11.01c-4.65-5.7-10.71-1.03-15.39-2.94  c-3.73-2.16-2.87-6.76,1.39-7.54l1.33-0.45C830.04,254.06,836.49,255.95,842.27,255.71z" />
<path class="cls-5" d="M823.61,256.24c-0.61,2.48-1.22,4.98-1.39,7.54c-2.1-0.86-5.38,1.52-7.66,0.41c-1.01,2.29-1.86,1.65-2.88-0.53  c-0.98-2.43-1.78-5.12-2.41-7.59L823.61,256.24z" />
<path class="cls-4" d="M404.41,199.5c9.34,6.19,14.55,15.74,21.58,23.01c6.37,11.73,8.79,23.47,9.84,35.66l-6.33,1.43  c-27.06-3.89-54.32-5.21-81.79-3.93c0,0-1.98-0.89-5.93-2.68c-4.19,1.76-6.29,2.64-6.29,2.64c-26.98-1.13-53.77,0.22-80.39,4.04  l-6.65-1.43c1.99-22,11.24-45.46,29.93-58.2C316.57,174.01,367.38,174.94,404.41,199.5z" />
<path class="cls-6" d="M999.24,243.76c-1.1,26.3-34.72,60.36-51.09,80.06c-2.35,5.59-11.25,5.86-14.78,1.41l-1.79-0.23  c-1.14-46.13-1.49-92.39-1.06-138.78l2.68-1.63C968.32,183.59,1000.76,207.46,999.24,243.76z" />
<path class="cls-6" d="M435.82,258.17c1.87,21.71-5.38,41.55-17.11,58.29c-25.53-2.83-51.24-0.74-76.9-0.35l-1.79-0.1  c-1.07-20.12-1.38-40.6-0.93-61.44l2.68-1.57C373.38,253.11,404.75,251.25,435.82,258.17z" />
<path class="cls-11" d="M924.23,185.05l0.22,3.99c-23.9,39.6-8.11,92.57,6.54,133.09l-1.3,3.49c4.67-0.8,5.62,9.42,1.24,10.13  c-3.79,0.67-5.54-0.03-7.99-2.99c-1.51-1.83-1.37-5.82-2.87-7.43c0.37-3.34-2.65-10.43-5.5-7.93  c-22.85-23.93-54.52-55.17-46.56-90.93c7.56-9.49,12.02-23.74,22.65-31.16C900.23,188.64,913.23,186.39,924.23,185.05z" />
<path class="cls-10" d="M920.07,325.33c-2.16-2.33-4.6-4.86-5.5-7.93c0.85-3.76-1.86-6.89-4.18-10.4  c-20.18-30.51-53.03-88.25-6.01-113.17c-27.12,36-2.81,93.04,17.04,126.03c0.61,1.53,1.27,2.93,0.66,4.14  C921.78,324.61,920.85,325.03,920.07,325.33z" />
<path class="cls-5" d="M826.31,293.37c-3.5-0.17-10.51,2.51-11.57-1.74c-0.99-3.95,1.03-8.98,0.88-13.07  c1.92,0.28,3.67-0.23,5.27-1.54l0.1-1.68c10.85-0.44,13.47-0.06,8.09,10.33C829.46,289.74,828.53,292.31,826.31,293.37z" />
<path class="cls-3" d="M826.31,293.37c-0.57-5.57-0.53-10.98,4.53-16.31l-9.95-0.03c-3.23,1.82-4.25,0.05-2.49-3.17  c5.17-0.44,9.57-0.62,13.48,1c4.19,1.74,6.76,17.78,2.03,18.92C831.63,294.34,828.8,293.49,826.31,293.37z" />
<path class="cls-7" d="M930.93,335.75c-0.09-3.23,0.12-7.06-1.24-10.13c-0.66-3.78,2.42-3.92,3.68-0.39  c4.92-0.52,10.38,1.28,14.78-1.41l-4.41,13.62C939.43,335.87,935.06,335.02,930.93,335.75z" />
<path class="cls-9" d="M925.7,349.07c5.51-1.89,11.13-3.2,17.4-4.62C939.05,348.53,931.49,353.18,925.7,349.07z" />
<path class="cls-9" d="M818.41,273.86c0.63,1.2,1.53,2.22,2.49,3.17c0.12,1.59-0.39,2.91-0.47,4.59c-0.07,1.54-3.21,1.53-3.66,0.23  l-1.13-3.28c-0.06-1.97-0.08-3.12,0.27-4.46C816.18,273,817.49,273.94,818.41,273.86z" />
<path class="cls-9" d="M814.57,264.18l0.86,7.86c-3.58-1.88-2.62-5.59-3.75-8.39C812.59,263.98,813.71,263.76,814.57,264.18z" />
<path class="cls-6" d="M748.66,1069.72c-2.41,3.74-6.44,3.92-9.23,0.47l-3.24,0.1l-10.78-10.42l0.58-3.26  c-3.7,2.21-11.94-7.14-9.77-10.76c-10.19-5.24-18.59-14.43-22.56-25.19l-3.96-0.5c-31.31-36.42-46.97-54.63-46.97-54.63l0.99-2.96  c-5.51-1.52-13.44-8.93-12.93-14.4l-3.16-0.77c-4.47-6.87-9.85-13.19-16.12-18.96l0.95-3.16l-39.32-54.73  c-1.62-0.3-3.46-0.65-4.64-1.9c-4.86-5.11-12.5-16.46-12.13-23.22c-21.06-35.41-36.01-73.06-45.94-113.01  c-0.54-2.16,0.45-4.69-1.4-6.52c0.02-1.5,0.06-3.81-0.17-5.44c5.71,7.31,12.13,11.56,22,8.42c6.69-2.13,12.37-7.76,18.23-13.33  l3.51,4.97c15.38,72.69,55.92,139.04,96.13,201.06c0,0,33.27,48.28,99.81,144.84L748.66,1069.72z" />
<path class="cls-10" d="M385.59,575.98c-3.9-2.63-4.92-6.79-7.61-9.43c-4.74-17.22-32.74-49.77-3.18-67.05  C358.54,530.23,376.91,550.13,385.59,575.98z" />
<path class="cls-5" d="M503.2,936.2l3.56,2.59l5.98,21.32l-1.25,4.12c9.04,7.48,21.22,31.57,20.6,43.04  c-0.29,5.35-0.58,8.48-6.84,9.42c0.78,2.21-0.38,4.64-3.48,7.27l-0.87,4.21l8.06,24.62l-1.92,2.67c6.61,6.69,10.17,17.57,8.49,26.83  c3.44,2.77,7.49,8.44,3.23,11.68l3.37,1.89c1.51,2.91,8.89,21.41,8.74,23.1c-0.12,1.35-1.03,2.43-1.97,3.33l3.96,5.8  c3.96,14.76,8.19,29.39,12.68,43.89l-0.51,3.69l3.54,1.91c3.38,16.15,8.65,31.31,15.81,45.47l-0.46,3.84l2.49,2.7  c1.51,12.11,4.24,24.07,8.18,35.89l-1.35,1.75l4.27,5.1c3.24,8.46,14.23,41.16,13.05,47.36c-0.22,1.16-0.63,2.28-1.09,3.39  c0.14,1.05,0.15,2.7-0.56,2.9c-28.81,7.98-60.42,15.76-89.65,22.08l-2.2-2.22l-3.2-3.75c0.04-20.64,0.91-41.24,2.59-61.82  l-1.15-9.41c-4.39-14.94-10.8-29.25-19.23-42.94c-4.95-14.88-4.47-30.43,1.47-46.65c4.68-23.09,5.59-47.04-2.61-69.17  c-13.25-28.02-17.17-55.51-6.62-85.81c-11.93-0.51-23.86-0.42-35.8,0.25l-8.1-3.17c-0.01,4.15-11.02,2.69-11.36-1.33  c-2.87-2.01-7.68-6.41-5.72-9.98c0.44-1.41,1.43-2.27,2.75-2.58c2.86-0.68,16.61-0.44,17.15,3.29l5.58-2.42  c26.68-0.05,40.02-0.08,40.02-0.08l-16.72-89.2c-2.05-8-1.31-14.52,2.21-19.58C487.19,912.73,491.87,926.8,503.2,936.2z" />
<path class="cls-9" d="M412.46,919.97c15.42,2.04,32.02,2.1,41.64,16.45c-3.28,5.04-9.56,9.51-10.45,16  c-5.1,37.12-29.12,55.34-16.4,58.65c1.19,0.01,1.19,0.36,0.1,1.01c2.47,3.28,6.41,5.55,5.72,9.98c3.77,1.5,1.19,13.59-0.01,17.39  l-2.93,1.39l-2.77,3.12c-17.04,0.49-33.97,1.39-50.79,2.71l-11.13,3.41l-3.81-1.36c-11.17-14.32-18.38-28.86-21.83-48.28  c-2.39-13.49-12.52-24.62-15.69-37.48c-3.16-0.76-6.76-2.9-8.89-5.36c-1.02,0.04-2.07-0.39-3.14-1.3  c-5.53,11.49-10.75,23.17-15.66,35.03c-7.26,24.09-16.63,47.12-28.11,69.09l-3.27,0.5l-3.43,2.6c-8.76-0.61-17.49-0.39-26.18,0.66  l-3.73-2.01c-7.41-11.38-9.92-24.46-11.76-37.74l4.29-2.44c6.69-0.13,48.12-2.18,49.37-4.32c0.8-1.38-12.17-24.74-14.31-28.51  c-12.13-21.37-29.24-32.65-50.62-44.42l-4.99-5.96c-0.73-1.64-2.15-3.45-2.88-5.22c-1.21-2.88,0.62-3.76,3.35-3.62l37.4-2.02  c-0.27,3.03,2.5,1.39,8.32-4.92c15.63-6.22,39.79-8.88,49.52,8.01c12.48-0.5,22.36,3.03,29.67,10.6l15.67,25.58l61.93-5.37  c-6.88-11.91-15.98-16.88-29.08-18.89c-12.19-0.37-50.13-3.13-55.68-14.62c-3.5-7.24,11.96-10.84,17.13-10.95  c20.98-15.2,34.86-9.03,52.75,5.66l15.33,14.38c2.37,1.02,5.41-0.12,7.55-1.42l-3.97-13.57L412.46,919.97z" />
<path class="cls-8" d="M186.14,814.38c9.84,7.38,21.4,11.44,33.41,12.9l3.27,2.69c2.36,10.56,6.45,20.82,12.75,29.65  c3.25,4.56,14.57,16.94,19.42,18.03c1.15,0.26,22.28-4.98,22.72-6.07c-5.77-3.97-10.77-8.07-13.92-14.51  c-1.86-3.8-4.89-11.11-0.2-13.1c7.41,15.01,37.49,4.61,57.15,9.65c9.69,12.53,14.74,26.25,22.22,39.96  c9.68,17.75,40.77-24.13,69.51,26.38c2.33,4.1,3.31,11.29,5.2,16.17c-0.58,3.29-9.76,5.69-12.12,3.39  c-20.73-18.99-36.76-40.04-64.02-20.51c-4.67,3.35-15.08-0.31-17.56,8.34c34.85,24.43,65.6-3.77,87.2,36.92l-68.2,5.72l-15.65-26.17  c-6.16-10.29-19.08-8.45-29.98-10.48c-7.94-20.61-47.26-10.19-48.8-6.05c-0.75,2.02,0.81,4.63,1.02,7.1c-3.1-1.57-4.76-4.32-6.81-5  c7.83,2.61-47.3,2.23-41.94,4.13c-5.79-14.18-11.01-27.84-10.68-43.68c-31.25-25.22-7.22-29.98-32.37-47.35  c-15.7-10.85-28.95-26.37-34.29-44.68c36.25,12.03,61.83,40.81,81.59,71.07c2.38,3.64,3.32,7.04,7.69,5.11  c5.6-2.48,5.79-2.49,4.15-7.25C209.77,846.22,196.91,831.46,186.14,814.38z" />
<path class="cls-11" d="M630.78,948.16l-2.53,2.55c-12.17,4.15-24.79,6.91-37.87,8.28l48.7,0.82l4.63,2.76l49.94,58.1l-0.74,2.08  c-7.62,2.34-15.77,3.68-24.44,4.02l-139.26,30.98l-2.17-2.26l-8.04-23.45c-2.43-7.08,1.05-11.79,6.25-15.32l4.06-2.77l99.4-2.22  c-8.32-8.45-20.47-11.66-31.83-13.8c-19.58-2.22-35.61-5.44-53.61-14.17c-10.73-5.2-23.06-11.69-31.77-19.51  c-3.85-8.97-5.37-18.67-8.29-28.04c0.33-3.37,3.88-2.66,7.12-2.75c34.62-0.95,69.6,0.96,102.12-8.19  C617.81,932.72,627.65,938.69,630.78,948.16z" />
<path class="cls-9" d="M478.34,901.51c-1.79,17.24,3.25,33.24,6.51,50.83l11.17,60.36c-17.43,1.29-33.27,0.64-48.77,0.09  c0.28-3.25,2.23-6.43,5.83-9.54c2.95-8.54,3.29-17.96,1.01-28.25l1.09-10.7c5.88-14.2,11.25-28.59,16.11-43.17  C473.63,914.84,469.75,900.01,478.34,901.51z" />
<path class="cls-5" d="M263.59,843.97c-0.31,12.65,8.55,23.69,22.82,27.91c-11.62,2.99-20.59,7.02-31.92,8.3  c-19.75-10.67-31.06-31.7-34.94-52.91l28.19,3.42C253.87,831.44,263.77,836.6,263.59,843.97z" />
<path class="cls-16" d="M556.35,845.42c4.94,8.3,11.1,17.21,16.78,25.11c-14.66,2.67-30.2-4.06-45.54-6.47l-32.97-5.17  c-9.32-1.46-16.26-6.39-26.79-6.93c-15.66-0.8-32.47,0.4-47.09-7.74C459.72,841.43,524.83,855.05,556.35,845.42z" />
<path class="cls-11" d="M370.86,743.04c30.64,27.76,51.74-2.05,84.86,29.22l-109.9-6.28L370.86,743.04z" />
<path class="cls-11" d="M471.3,921.13c0.35,10.44-3.72,20.74-8.69,30.49c-16.12,31.58,9,42.87-15.35,61.16l-19.91-0.71l-0.1-1.01  l24.26-45.19C459.31,951.37,461.62,933.93,471.3,921.13z" />
<path class="cls-10" d="M682.67,1114.17c4.64-1.47,9.91-1.31,15.83,0.48c12.13-0.09,23.45,2,33.96,6.27l3.93-1.91  c8.22,2.14,16.55,3.67,24.97,4.57l3.26,2.81l2.92-0.14l8.1,16.35c2.3-3.13,4.28-6.6,5.96-10.41l3.24-0.44  c2.03-3.32,10.24-1.67,11.58,1.75c3.54-0.47,3.59,0.74,0.43,2.35c1.43,2.35,2.15,3.53,2.15,3.53l13.58-0.05l2.7,2.96  c3.49-0.02,3.58,3.64,0.45,5.05l-0.62,1.7c0,0-7.04-0.01-21.12-0.04c0.44,7.81,0.49,15.86,0.12,24.15c-1.22,3.4-4.28,5.02-9.17,4.86  c-1.23,5.36-5.6,2.58-8.5-0.57c-5.56,3.23-4.6,36.35-3,37.4l33.37-0.28l4.77,2.63l3.46-2.65c10.16,0.17,20.24,0.45,30.23,0.83  c-0.62-0.45-0.9-1.05-0.9-1.8c-0.06-21.78-1.83-39.14-5.87-60.39l2.48-2.71l1.37-1.52c-1.49-1.38-0.79-1.86,1.22-1.37  c0.91,0.14,1.95-0.31,2.85-0.14c1.24-3.66,14.17-0.74,17.23,0.58c2.02,0.02,2.82,1.18,3.01,3.31l33.3,8.53  c4.18-1.77,9.24-1.55,15.17,0.65c5.47-0.21,9.85,0.92,13.13,3.39c10.65,3.16,21.95,4.08,33,5.28l3.37-1.88l18.13,1.88l2.71,2.85  c-12.75,20.47-24.07,41.37-32.6,64.65l-27.33,74.61l-3.33,4.07c-15.71,5.16-31.08,11.2-46.1,18.12  c-7.71,6.51-12.68,15.15-14.92,25.92c-17.17,7.08-35.28,11.03-54.33,11.85l-4.38-2.28c-2.1-19.08-18.92-30.87-28.74-46.68  c-8.73-14.07-11.48-30.06-20.84-43.34l0.1-2.83l170.65-52.5c-3.64-4.08-9.71-5.07-18.19-2.96c-5.9,7.35-12.78,12.21-20.63,14.61  c-12.73-0.38-25.49-1.01-38.3-1.89c-26.39,7.23-39.59,10.84-39.59,10.84c-5.26-3.45-10.65-2.94-16.18,1.53  c-30.73,0.24-61.53-1.59-92.39-5.48l-6.16-2.93l-4.06-1.7c-9.27-19.54-16.35-39.97-21.25-61.3l1.42-3.9c2.93-2.32,6.27-3.59,10-3.37  l77.84-0.98l-95.35-20.02l-2.95-3.36l-3.39-1.3c-4.64-9.02-7.95-18.45-9.95-28.28l2.45-2.89l3.04-2.2l23.61,1.63  C678.51,1109.39,681.53,1110.91,682.67,1114.17z" />
<path class="cls-7" d="M925.53,1311.27c-7.85,21.43-9.59,45.1-19.45,66.76c-18.06,39.65-35.97,78.21-49.13,119.19  c-11.33-24.72-17.48-51.77-33.12-75.1c-11.39-16.99-19.19-33.56-21.34-53.18c18.39-1.72,39.32-3.72,56.9-11.26  c3.28-14.77,9.46-25.71,24.27-31.12L925.53,1311.27z" />
<path class="cls-9" d="M928.25,1163.89c-9.53,0.72-19.17-1.7-28.3-4.04c4.5-11.84,7.69-24.39,8.81-37.7  c2.58-30.7,36.22-18.84,48.02-70.54c9.56-41.92,32.59-50.66,69.6-71.51c-9.95,15.79-22.58,25.7-28.92,41.63  c-7.46,18.74-7.36,39.4-15.72,57.59c-5.59,12.15-20.66,15.23-27.16,26.61C943.85,1124.68,936.6,1144.7,928.25,1163.89z" />
<path class="cls-9" d="M985.46,1172.01c-8.08-0.54-16.45-0.52-24.21-2.84c3.93-15.22,5.17-35.34,18.27-45.99  c74.47-60.51,25.32-107.85,64.69-136.33c9.98-7.22,18.94-13.84,30.03-19.93c-1.71,5.45-1.45,14.84-5.37,18.46  c-11.86,10.98-13.46,24.18-18.97,38.23c-7.5,19.14-16.02,37.67-24.65,56.49c-7.33,15.98-17.3,29.51-21.31,47.11  C1000.23,1143.58,993.91,1158.45,985.46,1172.01z" />
<path class="cls-1" d="M954.78,1444.91c7.17,28.32,6.62,58.3,5.75,88c-11.51-0.02-22.45-2.2-32.5,0.52l-2.59-3.19  c-1.79-31.04-2.32-69.51,12.2-97.36l4.02-1.21C947.88,1433.94,952.78,1437.04,954.78,1444.91z" />
<path class="cls-5" d="M1004.56,1281.24l-0.44,3.31c-6.1,3.94-9.77,10.47-12.28,17.14c-7.53,20.04-7.05,43.61-6.48,64.67l-2.58,2  l-30.23,9.43c2.59-25.87,7.42-106.36,44.05-104.17C1001.24,1273.9,1001.93,1277.91,1004.56,1281.24z" />
<path class="cls-5" d="M941.65,1431.69c-18.31,25.61-12.58,70.91-13.63,101.75l-29.4,7.95  C898.07,1518.12,907.52,1419.33,941.65,1431.69z" />
<path class="cls-9" d="M1043.12,940.28c2.18-2.59,2.69-2.06,2.78,1.24c-5.61,8.16-12.54,20.33-21.3,23.99l-52.83,22.08  c-15.49,6.47-17.36,26.77-30.08,36.35l-41.43,31.21c0.27-12.93,13.9-14.69,14.57-25.2c0.09-1.38,1.1-2.42,2.34-2.85l5.51-6.73  l39.2-47.81l4.33-2.21c11.73,0.79,23.69-2.31,32.88-9.8l29.83-26.11c4.2,0.14,5.63,3.5,4.28,10.09l7.13-5.41L1043.12,940.28z" />
<path class="cls-1" d="M1004.56,1281.24c9.44,11.95,9.51,29.22,10.76,44.65c1.07,13.24,0.4,27.07-0.39,40.5  c-12.07,0.66-22.43-1.06-32.15,1.97C981.54,1346.08,981.02,1292.89,1004.56,1281.24z" />
<path class="cls-3" d="M841.55,1146.47c1.07-1.95,1.4-2.24,1.99,0.05c-0.11,0.27,0.1,0.74,0.03,1.04l-1.22,1.37l-1.37,1.52  c2.05,30.07,8.34,27.3,5.87,66.51c-12.96,1.51-23.86,0.21-35.27,0.22l-2.68-1.2l-0.08-34.49l-22.05-0.76l-1.84-2.72  c10.41-1.49,7.6-17.59,7.39-27.48c-5.69,0.6-13.43,3.53-14.48-2.04c2.76-1.82,10.11-0.12,12.96-0.78c2.08-0.48,2.4-1.56,2.9-5.52  c4.07,10.97,14.97,3.7,22.01,5.15c1.79-3.68,4.24-1.93,2.59,1.62c1.51,1.54-0.17,4.23-0.55,3.59c-0.7-1.17,1.13-2.76,2.59-3.36  c-8.46-8.79,4.5-20.63,4.99-4.55l6.86,0.6C836.33,1144.13,839.45,1144.55,841.55,1146.47z" />
<path class="cls-8" d="M1129.06,885.21l-34.86,39.22c12.73-31.63,28.38-60.42,34.62-92.39c13.67-0.01,26.96-1.13,42.38,0.13  C1155.45,849.75,1138.72,865.32,1129.06,885.21z" />
<path class="cls-8" d="M1112.94,832.06c-10.85,13.37-19.52,27.69-27.12,43.9c-11.08,23.61-25.48,44.57-39.91,65.56  c-1.03-0.15-2-0.55-2.78-1.24l-0.2-5.01c10.68-20.25,18.56-41.52,23.63-63.82c1.46-4.28,2.98-8.57,5.01-12.63  c4.97-9.92,12.14-23,22.64-26.96C1100.49,831.21,1106.71,832.06,1112.94,832.06z" />
<path class="cls-9" d="M866.65,1151.32l-20.24-3.89c17.6-47.44,47.62-45.21,56.55-64.9c4.96-10.93,10.88-23.47,21.32-30.48  L866.65,1151.32z" />
<path class="cls-1" d="M1094.77,1079.25c0.52,8.54-1.03,17.59-0.99,27.06c-7.3,1.31-14.37,0.27-20.97,2.41l-2.63-4.45  c-0.49-12.36-0.32-37.73,3.38-48.84c1-3.01,2.59-5.71,4.76-8.03c2.22-1.13,3.77-3.67,7-2.35  C1092.76,1048.09,1094.28,1071.14,1094.77,1079.25z" />
<path class="cls-5" d="M1078.32,1047.39c-5.85,19.89-5.23,40.66-5.51,61.33c-6.07,1.98-11.19,6.67-17.4,8.31  C1056.52,1099.82,1061.45,1056,1078.32,1047.39z" />
<path class="cls-7" d="M857.14,1111.97l-13.6,34.55c-0.62,0.14-1.39-0.25-1.99-0.05c-0.88-0.63-2.16-1.58-1.96-2.38  c1.37-5.46,9.22-26.72,11.91-31.07l3.07-0.89L857.14,1111.97z" />
<path class="cls-1" d="M1115.32,1430.6c8.01,9.16,8.69,51.79,2.37,59.04c-0.67,0.77-1.48,1.42-2.33,2.03  c-0.58,0.81-1.19,1.58-1.92,2.22c-4.72,4.1-54.48,4.38-64.66,4.13l-4.8-2.29c-2.14-28.04-1.03-65.84,31.35-75.87  C1091.39,1414.89,1105.3,1420.19,1115.32,1430.6z" />
<path class="cls-1" d="M1183.69,1324.57c7.03,16.29,10.61,34.64,8.7,53.81l-51.13,1.46c-1.96-16.74-3.1-36.17,6.36-51.57  C1155.03,1316.19,1173.03,1318.07,1183.69,1324.57z" />
<path class="cls-5" d="M1115.36,1491.67c6.58-0.63,13.93,8.33,14.74,14.75c-0.71,3.46-3.03,5.6-6.5,5.56l-71.88-0.63  c-5.77-1.66-7.75-10.83-7.74-15.62C1067.78,1493.39,1092.22,1496.7,1115.36,1491.67z" />
<path class="cls-3" d="M1130.1,1506.42c-4.83-4.99-9.3-10.44-14.74-14.75c5.1-20.1,4.78-40.93-0.04-61.07  c7.26,7.54,14.5,14.29,15.43,26.3C1132.01,1473.06,1133.33,1490.76,1130.1,1506.42z" />
<path class="cls-10" d="M933.2,184.59l0.17,140.65l-3.68,0.39c-14.95-33.78-33.47-108.24-5.46-140.57  C927.31,184.67,930.13,184.68,933.2,184.59z" />
<path class="cls-10" d="M341.78,252.99l0.04,63.11c-12.62,0.19-25.25-0.96-37.84-0.7l-4.81-1.83c-5.24-8.95-9.26-18.5-12.06-28.64  c-0.68,9.7-0.7,19.47-0.07,29.31l-2.91,1.57c-5.76,0.12-11.69,0.42-17.47,0.32c-13.46-16.54-20.01-37.74-18.19-57.89  C279.33,251.72,310.41,252.88,341.78,252.99z" />
<path class="cls-14" d="M301.48,1429.1l1.7-2.42c30.45,5.45,60.92,10.9,91.41,16.35l3.01,3.26l16.36,5.35l-75.68,16.4  c-4.54,9.95-21.09,58.96-27.27,60.96c-9.69,3.12-8.94-16.54-29.45-14.79l-2.56-2.58c1.06-6.74,0.53-11.58-3.07-17.25  c-6.42-1.12-14.44-6.56-21.5-5.37l-2.99-1.29l-1.83-14.84c-2.99-0.02-4.42-1.15-4.32-3.41c-4.75-3.81-13.84-1.76-17.82-7.04  l-2.64-2.19l-0.89-11.63c-3.99-0.62-6.25-2.11-6.76-4.48c-6.99,0.54-10.13-1-9.43-4.63c0.11-1.08,0.29-2.65,1.1-2.89  c4.22-1.27,26.15-5.04,30.08-4.91l2.35,2.33l3.19-3.25c10.63-3.04,43.87-7.76,53.65-4.88  C299.59,1426.32,300.59,1427.78,301.48,1429.1z" />
<path class="cls-7" d="M202.38,1349.97c4.07,0.57,8.7-0.62,13.88-3.58c11.33-3.94,19.54,1.33,24.63,15.82l4.58,6.73  c8.33,4.06,12.28,9.76,11.85,17.11l1.01,5.83c-1.64,7.57-10.17,36.82-14.35,40.39c-0.82,0.7-1.75,1.26-2.73,1.77l-33.52,5.48  c-2.01,3.23-3.64,2.4-4.12-1.16c-6.04-8.31-12.11-18.77-21.35-22.97c-0.4-1.2-1.6-2.24-2.89-2.46l-22.83-65.61  c0.07-1.03,0.39-2.6,1.06-2.62c9.24-0.32,34.87,0.7,43.36,2.53L202.38,1349.97z" />
<path class="cls-1" d="M98.43,1524.44l-54.4,4.69c3.49-26.47-12.51-95.32,27.57-95.67C110.34,1433.12,95.58,1498.94,98.43,1524.44z" />
<path class="cls-3" d="M281.55,1514.2l-65.86,5.62c-1.34-6.41-1.08-12.16-1.77-18.86l62-6.58  C284.3,1495.84,281.73,1506.38,281.55,1514.2z" />
<path class="cls-3" d="M254.41,1489c-21.2,3.58-42.88,4.04-65.05,5.68c-1.01-6.68-1.71-12.45-1.71-18.29  c19.85-3.2,39.48-1.99,57.62-6.93c1.48,0.77,5.68-0.26,6.64,2.34C253.98,1477.41,253.08,1483.57,254.41,1489z" />
<path class="cls-3" d="M227.46,1462.43l-67.63,4.17l-1.61-17.54l2.37-1.95c16.23-1.53,32.59-2.91,49.07-4.16l7.51,1.19  c4.56,1.31,9.5,0.36,9.65,5.58C226.94,1454.25,227.68,1458.35,227.46,1462.43z" />
<path class="cls-8" d="M203.61,1438.34c1.08-0.09,3.09,0.82,4.12,1.16c2.56,1.73,6.44,3.52,9.43,4.63  c-18.8,4.02-39.12,3.49-58.94,4.93c-3.97-2.47-8.82-2.51-12.95-5.85L203.61,1438.34z" />
<path class="cls-11" d="M285.16,1082.35c20.6,6.52,17.93,29.03,13.37,46.01c-12.13,31.41-19.38,63.83-21.73,97.25  c2.49,51.89,2.04,104.06-14.75,154.13c-0.39,1.17-1.13,2.23-1.92,3.29c-0.82,1.09-1.79,2.07-2.8,3.01  c-11.29-23.23-6.1,2.54-24.74-33.33c-7.91-15.22-33.22,9.69-30.2-2.74l-1.06-3.07c3.21-7.52,5.59-15.48,7.14-23.86l3.21-0.86  c22.44-51.51,32.93-106.55,45.83-161.03l-0.16-8.98c7.47-15.26,11.91-30.93,13.32-47.02l2.46-3.08c-4.53-2.89-4.36-15.74-1.19-19.74  H285.16z" />
<path class="cls-8" d="M191.22,1082.01c3.23,21.65,2.62,44.71,9.18,66.34c10.24,33.75,15.4,66.02,8.63,101.22  c-2.06,10.72,1.7,22.78-3.09,33.17c-5.64,12.22-7.68,24.53-7.53,37.52c-0.37,4.16-12.13,1.64-12.15-2.44l-4.59-3.28  c-14.63-25.78-20.05-58.58-17.98-87.74c-3.2-11.11-4.76-22.14-4.66-33.1c7.77-20.7,6.22-40.95-2.19-61.09  c-0.87-13.64-0.04-27.43,2.48-41.39l2.67-2.33c0.04-1.08,0.12-2.7,0.9-2.96c3.34-1.14,25.47-6.37,27.04-5.45  C190.48,1080.8,190.87,1081.37,191.22,1082.01z" />
<path class="cls-9" d="M167.13,878.34c1.01,4.05,1.61,8.33,1.06,12.5c-10.06,25.16-9.19,50.99-7.39,77.79  c-0.75,10.29,1.69,20.16,7.32,29.61l-1.72,2.8l-60.25,0.97l5,6.34c1,0.33,2.45,0.96,2.38,1.72c-0.59,6.74-5.08,29.68-7.36,35.69  l-3.02,1.37l-69.76-8.05c-1.92-18.19-19.92-29.13-31.51-45.53c13.97-8.41,29.56-4.77,43.42-9.7l26.94,35.39  c7.49,9.83,16.61,16.54,30.12,10.24c-8.1-12.78-9.87-30.42-21.56-38.83l-26.08-18.77c11.89-8.54,27.84-8.09,41.22-5.08  c1.56,8.37,4.95,14.75,6.95,21.6c16.15,8.19,26.97-12.59,31.07-26l5.55-23.62c6.46-18.17,11.26-36.74,14.4-55.71  c-0.19-8.24,0.77-15.92,2.88-23.02C162.68,852.3,166.51,877.22,167.13,878.34z" />
<path class="cls-14" d="M125.83,1010.35l2.7,1.51c2.64,20.62,1.73,40.59-2.75,59.91l61.65-0.77l1.63,2.65  c8.62-0.13,17.3-0.02,26.25,0.35c-8.3,2.52-16.11,6.14-24.09,8.01l-29.23,6.88l-6.1,1.4c0,0-16.06-1.8-48.18-5.41  c0.77,11.24-0.36,22.48-3.38,33.7l-6.56,44.82c-4.73,13.31-9.9,26.46-15.49,39.46l-3.38,2.23c-3.38-7.68-7.54-15.89-9.93-23.75  c4.05-18.62,13.85-51.03,15.6-68.51c-3.71-1.61-2.84-6.1,1.25-6.18l5.36-20.43c3.47-13.24,9.24-25.77,11.98-39.09l8-38.78  C116.06,1008.86,120.87,1010.7,125.83,1010.35z" />
<path class="cls-8" d="M155.16,859.83l-0.43,6.7l-8.75,19.26c-2.2,8.48-5.68,15.85-10.43,22.12c-17.65-9.72-38.35-66.81-44.58-86.73  c-6.86-21.94-21.17-35.69-42.53-47.2c14.65-0.38,32.04-3.78,41.6,6.46l41.41,44.36C141.89,835.95,151,845.42,155.16,859.83z" />
<path class="cls-9" d="M189.07,1073.65l-68.28,1.06c9.91-10.88,5.15-49.36,5.04-64.36c17.06-1.22,34.36,0.74,51.92,1.21  c8.03,0.21,11.63,6.77,11.59,14.04L189.07,1073.65z" />
<path class="cls-8" d="M219.93,1024.41c-1.59-11.43-2.94-20.19,8.94-28.73l-25.2-56.91c46.8,26.97,50.29,30.54,73.98,81.25  C256.68,1021.82,238.86,1025.89,219.93,1024.41z" />
<path class="cls-14" d="M102.9,988.39c24.84-34.29,3.87-32.38,29.75-73.9c1.52-2.44,2.09-3.67,2.91-6.59  c4.76-16.89,11.43-32.49,19.6-48.08l1.63,0.21c2.79,26.88-5.84,50.95-13.65,75.87c-6.3,20.11-5.18,41.73-24.92,54.6  C112.56,994.2,104.9,995.26,102.9,988.39z" />
<path class="cls-8" d="M167.13,878.34c6.6,12.11,3.1,26.47,5.46,40.06c2.52,14.52,4.08,26.87,1.18,42.13  c-2.02,10.62,19.19,29.05,9.13,38.68c-3.76,3.6-11.11,1.75-16.5,1.84l-8.37-19.69c1.04-22.31-3.39-45.79,0.86-67.84  C161.23,901.32,167.3,890.6,167.13,878.34z" />
<path class="cls-10" d="M186.26,1317.83l12.15,2.44c4.25,0.85,8.75,2.71,13.26,1.92c-3.76,8.62-3,20.11-9.3,27.78l-45.84-2.67  c-5.66-10.3-9.85-22.5-14.74-33.33c0.1-1.03,0.46-2.58,1.13-2.59c4.83-0.08,37.45,2.39,40.18,3.49L186.26,1317.83z" />
<path class="cls-10" d="M265.05,1060.9c2.27,1.92,2.42,8.84,0.2,10.83c3.55-0.84,4.54,2.2,5,5.24c0.06,1.9,1.33,3.58,1.69,5.37  c1.31,6.51,0.51,13.3,1.19,19.74c-0.4,1-1.02,2.49-1.84,2.48c-5.84-0.07-17.91-1.57-23.68-2.8c-3.93,0.34-6.55-0.87-7.87-3.63  l-8.05-35.99C242.68,1059.71,253.85,1060.7,265.05,1060.9z" />
<path class="cls-7" d="M273.13,1102.08c2.26,21.4-10.99,39.52-15.62,59.08l-17.76-63.02L273.13,1102.08z" />
<path class="cls-9" d="M517.08,1345.86l-0.59,2.89c-29.36,6.9-58.73,13.8-88.12,20.71l-2.17-2.24c-8.18-27.93-13.11-56.79-18.59-85.3  c-0.26-10.5,0.38-20.9,1.91-31.19c-1.55-14.5,0.15-28.3,5.09-41.39c11.73-25.98,20.9-52.96,27.5-80.95  c5.5-30.56,8.88-61.09,10.14-91.61c-2.7-4.6-4.05-6.9-4.05-6.9c-3.13-1.92-4.4-4.08-3.79-6.49c15.11,1.77,30.53-1.89,47.86,0.73  c-27.34,81.89,30.36,68.86,4.82,171.48c-10.95,43.99,28.81,44.48,21.26,104.97C516.42,1316.07,514.74,1331.03,517.08,1345.86z" />
<path class="cls-10" d="M684.39,1304.63c-5.02,10.02-9.84,19.48-17.5,29.28c-4.65,5.96-3.5,15.44-7.15,22.41  c-8.51,16.28-16.17,32.3-23.51,48.47c-4.83,5.05-10.45,9.37-16.87,12.98c-13.84,15.14-25.89,20.22-44.95,26.11  c-19.01,5.88-42.35,11.52-61.85,15.59l-2.18-2.21c-23.6,0.91,14.48-46.31-41.01-70.56l-13.96,18.1  c-15.44,20.01,13.45,36.26-9.26,43.12c-6.28-26.85-12.12-54.06-19.93-80.72l90.88-21.36l92.41-22.76l0.57-2.9  c24.03-5.93,48.07-11.86,72.12-17.79L684.39,1304.63z" />
<path class="cls-8" d="M397.59,1446.29l-96.11-17.19l-2.77-1.33c-0.84-19.8-2.6-39.69-5.27-59.69c-3.49-10.58-5.61-20.47-1.08-31  c12.61-23.48,18.24-47.4,12.07-74.3c-5.51-17.7-6.09-34.96-1.74-51.78c10.17-22.43,16-45.53,17.49-69.3  c-2.58-16.23-2.93-32.18-1.07-47.85c0.41-5.78,2.55-9.64,6.44-11.59c4.02,0.24,7.11,0.94,9.3,3.52c2.48,2.93-3.84,10.22-2.61,12.83  c12.63,26.86,13.51,52.89,3.72,81.22c-12.78,36.99,38.18,47.99,20.79,124.08c-4.94,21.62-1.99,35.45,6.12,55.1  c5.05,12.23,5.87,22.72,14.46,34.1C388.57,1408,391.16,1429.36,397.59,1446.29z" />
<path class="cls-9" d="M325.54,1082.27c-5.53,13.27-6.53,26.54-4.26,41.11c9.28,59.59-25.86,80.35-17.96,119.41  c4.86,24.02,10.28,49.3,1.43,73.07c-4.97,13.36-16.15,27.5-11.16,42.61c4.6,13.94,5.03,27.25,6.04,42.59l1.84,28.03  c-19.69-3.52-40.89,1.76-60.22,4.92c6.98-15.53,11.06-32.06,16.06-47.98c13.27-42.19,20.79-87.53,17.39-132.67  c-7.85-104.13,50.41-140.5,10.45-171.02C298.61,1082.35,312.1,1081.46,325.54,1082.27z" />
<path class="cls-14" d="M444.42,1023.39c7.32,4.75,12.56,11.31,10.59,21.46c-3.48,17.95-2.5,35.44-5.04,53.81  c-4.01,29.04-10.77,58.9-22.23,85.55c-28.74,66.84-6.83,32.04-20.13,97.71c-6.32-32.9-19-63.97-26.11-96.51l0.29-9.45  c6.05-18.49,12.09-36.96,18.15-55.42l3.05-0.69c-1.42-9.19,4.12-22.63,10.53-29.43l-1.38-4.55c5.66-13.7,10.54-27.63,14.67-41.79  l3.32-3.24l2.94-18.78L444.42,1023.39z" />
<path class="cls-11" d="M430.13,1040.84c-2.68,17.15-11.64,32.8-16.6,49.58c-0.52,1.34-0.75,1.89-1.92,2.45  c-2.28,1.1-45.57-5.31-50.18-6.6l-1.22-2.86c8.24-8.92,9.76-24,1.41-34.69C389.3,1037.22,399.63,1045.77,430.13,1040.84z" />
<path class="cls-8" d="M324.11,962.95l4.15,34.77c1.68,14.06-1.42,26.16,7.11,38.67c6.31,9.25,7.67,26.25-2.84,32.69  c-9.41,5.77-21.67,4.31-31.48,6.32c-0.09-3.13,1.27-6.41,4.09-9.83l2.04-8.02c0.02-31.24,1.93-62.78,5.75-94.64l2.3-5.34  C319.3,956.59,323.09,958.83,324.11,962.95z" />
<path class="cls-10" d="M413.52,1090.42c-2.95,9.99-7.3,19.57-10.53,29.43l-2.05,2.6c-10.74-0.42-21.49-0.84-32.23-1.27l-1.84-2.75  c-2.36-10.8-10.25-23.39-6.66-35.02L413.52,1090.42z" />
<path class="cls-11" d="M315.22,957.58c-2.64,27.46-4.67,55.51-5.02,83.46c-0.17,13.41,1.58,24.86-9.16,34.36  c-10.13,2.08-20.44,1.08-30.8,1.57c-3.39-0.08-3.72-3.11-5-5.24l0.87-2.94c8.11-1.01,15.02-3.99,20.75-8.93  c10.58-30.44,17.62-61.93,21.13-94.48l4.1-9.1c0.54-0.36,0.56-2.05,1.67-1.16C314.53,955.76,314.87,956.61,315.22,957.58z" />
<polygon class="cls-7" points="402.99,1119.84 381.51,1185.41 366.87,1118.42 " />
<path class="cls-9" d="M161.99,1088.9c0.43,16.26-7.39,32.95-0.69,49.08c7.16,17.21,7.36,35.1,1.14,53.26  c-4.51,13.18,5.02,27.07,3.96,40.34c-2.58,32.16,5.78,58.02,19.85,86.26l-44.46-3.87c-8.41-18.66-13.24-38.45-23.88-56.4  c0.93-2.3,3.69-3.4,8.29-3.29c1.44-2.29,3.16-3.75,5.16-4.35l-2.33-1.95c1.47-9.14,4.55-37.69-2.53-43.83  c-2.94,0.21-5.3-0.18-7.08-1.15c-11.99,7.88-7.23,25.17-10.02,40.88c-13.93-23.62-18.29-10.98-30.51-38.78  c3.94-16.07,14.8-30.36,17.13-46.89l5.48-38.84c1.8-12.75,6.3-23.8,2.77-37.98C124.46,1083.39,143.47,1084.51,161.99,1088.9z" />
<path class="cls-1" d="M131.38,1249.93c-1.77,3.98-11.62,4.79-13.2,0.67c-1.09-15.94,0.71-31.73,1.25-47.61  C138.72,1190.31,133.45,1241.07,131.38,1249.93z" />
<path class="cls-8" d="M131.38,1249.93c-0.72,3.08-1.8,6.03-4.36,6.88c-3.44,1.15-6.25,0.67-9.08,0.76c-0.78-1.32-2.76-2.01-2.86-3.6  c-0.14-2.12,1.45-2.92,3.11-3.37L131.38,1249.93z" />
<path class="cls-7" d="M752.9,1278.91l-17.64-25.03c-2.26-3.21-3.74-6.54-8.22-6.96c-2.46-0.23-5.38-1.85-7.98,1.34  c-14.16,17.39-24.83,36.73-34.67,56.36l-74.89,18.47c-3.98-18.93-11-37.24-16.24-55.86c-0.35-3.83,2.77-4.02,4.15-0.5  c0.76-0.77,1.54-1.49,2.43-2.06c4.31-2.77,37.64-2.28,42.07,0.42c0.9,0.55,1.7,1.24,2.48,1.98c1.34-4.16,14.73-2.93,15.79,1.24  l3.61-2.36c11.14,1.73,22.33,2.9,33.58,3.49c-1.28-9.94-3.46-19.63-6.54-29.06l1.39-3.1c31.45,0.91,62.99,7.48,95.17,6.43  c5.93-0.2,10.1-8.72,18.54-2.67c5.11,3.66,26.54-12.62,50.92-10.55c11.73,1,25.52,6.16,36.27-1.67c5.74-4.18,7.79-11.39,14.8-11.37  c8.22,0.03,16.16-2.33,19.97,7.6L752.9,1278.91z" />
<path class="cls-1" d="M752.05,1494.95c-8.07,2.58-14.99,0.87-23.75,1.94c-0.7-12.44-4.94-42.92,7.94-48.93  c3.06-1.43,11.02-1.97,12.5,2.05C752.67,1464.07,750.98,1478.39,752.05,1494.95z" />
<path class="cls-8" d="M732.81,1506.32c10.14-0.52,19.53,0.31,30.09-1.66C753.65,1510.85,742.31,1512.43,732.81,1506.32z" />
<path class="cls-7" d="M636.22,1404.8l-45.65,100.48l-14.85-9.14c-12.91,8.67-24.53,4.79-37.79-1.27l-21.98-10.04l-5.59-27.56  l58.6-14.73C616.37,1430.63,599.29,1422.23,636.22,1404.8z" />
<path class="cls-10" d="M85.81,1106.65c-0.39,1.49-1.09,4.61-1.25,6.18c-20.51-1.52-41.38,4.63-62.72-4.17  C43.05,1103.9,64.83,1105.09,85.81,1106.65z" />
<path class="cls-14" d="M1094.2,831.85c-36.19,37.73-20.5,56.57-51.08,108.42c0.76-1.29-10.68,11.68-12.4,5.11  c-0.9-3.42,0.83-4.91,0.05-9.33l-28.87,25.61c-10.87,9.64-26.36,12.96-40.01,10.88l24.99-31.3l5.85-3.93  c7.88-0.89,14.36-3.89,19.45-9.01l53.66-94.55c0.94-0.97,2.3-1.56,4.08-1.76C1077.81,832.43,1086.16,832.68,1094.2,831.85z" />
<path class="cls-9" d="M1069.92,832l-54.65,96.44c-5.28,9.31-19.45,10.83-28.4,12.81c27.63-34.62,54.89-70.07,75.12-109.68  L1069.92,832z" />
<path class="cls-11" d="M748.66,1069.72c1.52-2.87,5.22-3.79,11.11-2.76c5.81-1.06,10.21-0.2,13.21,2.58  c9.25-0.07,18.53,0.97,27.8,0.15c3.15-0.28,6.77,0.62,10.42,0.72l0.72,41.57l42.66,0.15l-13.02,34.34  c-5.9,1.95-13.89,1.86-19.6,0.06c0.77-4.15,1.03-6.52-0.52-8.32c-2.3,3.12-1.13,7.34-1.1,10.97c-0.82,2.39-1.78,2.29-2.04-0.23  c-0.55-0.94-1.55-1.41-2.59-1.62c0.09-1.56-0.16-3.59-0.45-5.05c-2.16,0.06-3.13-1.05-2.89-3.32l-13.89-0.35l-1.65-2.77l-0.43-2.35  l-1.98-2.15l7.28-16.52c-5.66,1.38-9.04,0.72-10.14-1.97l-3.11,2.05c-8.74-0.86-17.52-0.97-26.34-0.34l-2.66-2.75l-3.92-2.79  c-2.87-5.04-17.21-33.62-16.87-36.15c0.12-0.91,0.42-1.79,0.76-2.67C742.48,1069.82,745.58,1069.74,748.66,1069.72z" />
<path class="cls-14" d="M917.18,1027.09c0.56-3.15,3.8-4.64,5.51-6.73C921.19,1022.89,920.13,1026.05,917.18,1027.09z" />
<path class="cls-4" d="M632.25,715c17.68,112.76,90.69,251.44,140.73,354.55l-24.31,0.18c-63-89.97-184.03-247.25-199.59-354.18  c24.61,18.66,57.18,15.2,81.78-2.66C631.19,713.58,632.12,714.21,632.25,715z" />
<path class="cls-6" d="M303.97,315.41l-19.85,0.41c2.08-12.51-4.45-26.57,3.6-38.94C292.71,291.62,294.85,304.84,303.97,315.41z" />
<path class="cls-11" d="M176.3,447.32c-5.7,45.12,14.84,68.35,3.35,71.87c-2.26,0.69-7.41,0.5-8.77-3.29  c-5.56-15.54-24.15-67.77-11.5-79.92c3.15-3.03,8.46-2.77,12.42-0.49C175.04,437.36,176.89,442.61,176.3,447.32z" />
<path class="cls-6" d="M210.11,517.71c-1.16,3.34-8.33,2.29-9.97,0.36c-7.61-8.92,10.37-29.12,5.63-72.06  c-0.74-6.74,4.49-12.18,10.5-12.25C240.25,433.5,214.3,505.71,210.11,517.71z" />
<path class="cls-15" d="M348.21,411.16v5.36c-0.32,0.5-0.12,1.39-0.26,1.86c-0.32,1.1-1.27,1.81-2.27,1.1  c-0.8-0.47-0.84-1.01-0.15-1.62v-5.36C346.04,411.48,347.1,410.93,348.21,411.16z" />
<path class="cls-9" d="M716.22,1045.85l-0.78,2.85l-87.66,14.84c-2.47,1.02,49.39,5.87,53.01,5.94c14.07,0.27,33.17,0.02,41.97-12.47  l3.22-0.4c3.94,4.34,10.1,8.54,13.44,13.59c6.17,14.07,15.11,27.68,20.03,41.61c4.47,0.55,8.57,11.58,5.15,14.58  c-10.9-0.12-21.52-3.32-32.16-5.48l-6.74-2.98c-9.9-0.76-18.51-4.03-25.84-9.81c1.08-12.03-5.97-6.74-11.09-0.13  c-1.38,3.66-3.42,5.72-6.13,6.18c-11.14-3.56-24.34-1.75-35.71-3.97l-2.83-0.33c-0.8-2.57-1.97-4.61-3.53-6.11  c0.09,4.1-2.54,3.97-5.53,2.64c-1.82,3.63-4.38,2.72-4.15-1.14l-29.98-6.32c-5.87-0.89-10.43-3.04-13.69-6.44  c-0.65-8.13-3.04-10.63-7.16-7.48c-11.56,15.27-34.1,10.54-44.56-2.7c-2.51-9.08-5.4-17.83-8.49-26.83l139.65-31.09  c9.47-2.11,18.25-0.97,26.97-3.73C700.95,1029.14,708.65,1037.51,716.22,1045.85z" />
<path class="cls-11" d="M716.22,1045.85l9.77,10.76c-12.94,28.28-87.11,9.97-116.74,7.35L716.22,1045.85z" />
<path class="cls-9" d="M630.78,948.16c4.42,3.61,8.98,9.81,12.93,14.4l-82.74-1.39C584.38,956.63,608,954.65,630.78,948.16z" />
<path class="cls-7" d="M623.88,1127.49l2.12,1.87c-6.29,14.97-12.59,29.95-18.88,44.93l-3.08,0.42l-1.86,2.5  c-11.69,0.55-23.4,0.92-35.15,1.1l-1.99-2.63c-6.62-17.37-12.58-35.24-16.13-53.39l4.58-2.71c11.41-1.15,62.28-0.89,68.64,5.53  C622.8,1125.82,623.36,1126.64,623.88,1127.49z" />
<path class="cls-9" d="M525.24,1016.71c13.62-9.26-10.21-44.19-13.75-52.47c18.13,7.23,34.74,20.57,53.08,25.36  c24.56,6.41,51.75,3.02,71.04,24.64L525.24,1016.71z" />
<path class="cls-10" d="M630.91,1105.26c1.36,0.17,2.71,1.24,4.15,1.14c3.13,1.15,3.35,3.93,0.65,8.34  c-1.57,3.75-7.84,12.61-11.84,12.76c-24.42-7.35-49.63-5.26-74.98-5.19c-1.8-9.21-7.5-18.78-10.14-28.31l1.57-2.51  c20.15,2.66,40.42,5.15,60.79,7.46L630.91,1105.26z" />
<path class="cls-11" d="M640.59,1103.75c3.08,0.07,3.62,4.34,0.13,5.05l-0.47,13.51l-3.02,1.1l-5.95,11.41  c1.49,14.51-1.43,27.48-8.76,38.92c-6.78,6.21-10.45,13.25-10.99,21.11c0.56,13.2-0.84,25.91-4.21,38.13  c-4.88,7.12-7.8,14.7-8.76,22.74c0.98,4.5,0.59,8.17-1.16,11l-4.15,0.5c-3.71-13.19-10.83-26.41-9.33-40.34  c0.08-3.22,1.69-6.49,4.86-9.81c4.9-13.35,8.87-27.07,11.9-41.16l3.36-1.22l19.85-47.22c2.8-6.67,11.64-12.6,11.19-21.09  C634.94,1103.96,639.57,1104.9,640.59,1103.75z" />
<path class="cls-10" d="M604.03,1174.72c-7.08,16.85-5.66,41.02-20.11,52.19c-11.21-13.83-12.41-34.23-18.89-51.22L604.03,1174.72z" />
<path class="cls-3" d="M566.19,1288.44c-6.5,0.82-10.37,0.34-16.31,0.11c-0.57-7.96-8.32-47.39,3.84-47.52  C565.48,1240.91,563.26,1278.57,566.19,1288.44z" />
<path class="cls-7" d="M630.91,1105.26l-92.15-11.27l-3.23-11.68c11.95,5.3,23.77,15.59,36.26,6.46c3.54-2.59,6.39-7.5,11.93-7.75  c5.59-0.25,4.29,8.14,6.71,11.94L630.91,1105.26z" />
<path class="cls-3" d="M537.57,1157.88c-5.31,1.54-8.98,1.36-13.97,0.24c-0.46-7.95-8.95-46.19,0.61-46.46  c2.34-0.07,5.53,2.61,6.05,5.52L537.57,1157.88z" />
<path class="cls-14" d="M312.08,956.29l-9.1,58.26l-11.06,41.3c-3,11.21-17.23,13.74-26.68,15.89c-1.86-3.08-1.99-7.34-0.2-10.83  l13.74-26.69C278.65,1034.48,300.16,964.15,312.08,956.29z" />
<path class="cls-5" d="M646.96,1110.19c0.52,11.73,6.97,22.08,10.89,32.47l3.85,2.61c2.81,7.46,5.63,14.92,8.44,22.38l-1.83,2.74  c10.58,28.06,7.35,38.67,23.89,66.9c5.52,9.42,5.21,24.17,8.93,34.8c-15.48,0.41-27.52-2.71-40.96-3.77l-1.29-3.97  c7.84-14.03,8.65-26.82,2.42-38.36c-0.87-10.53-1.77-21.06-2.7-31.61c-4.29-7.3-7.87-14.89-10.72-22.77  c-0.03-16.94-2.63-33.46-7.8-49.58l0.66-13.24c-0.04-1.66,0.4-3.4-0.13-5.05c1.5-1.67,3.39-1.07,3.68,0.43  C644.73,1106.59,646.87,1108.32,646.96,1110.19z" />
<path class="cls-7" d="M668.3,1170.4l-10.46-27.73l117.16,24.6C738.26,1171.3,703.24,1167.37,668.3,1170.4z" />
<path class="cls-7" d="M784.93,1178l26.56,0.62l0.08,38.56c-13.38,0.01-26.93,1.15-41.16,0.05c0.84-17.07-4.33-34.75,4.78-42.27  C779.06,1171.76,778.35,1180.22,784.93,1178z" />
<path class="cls-7" d="M791.57,1112.85c0.92,0.47,2.24,1.21,2.13,1.99c-0.35,2.49-2.87,8.69-4.02,11.27  c-0.54,3.79-2.16,5.67-4.86,5.64l-8.95,17.38l-11.27-22.74l-5.15-14.58C770.21,1112.31,781.15,1110.11,791.57,1112.85z" />
<path class="cls-7" d="M732.45,1120.91c-16.82-3.41-34.18-1.76-49.79-6.74c2.29-7.39,11.02-19.03,19.32-15.01  c2.37,1.15-1.86,6.75,0.6,8.15l7.06,4.01C716.14,1115,727.54,1113.41,732.45,1120.91z" />
<path class="cls-10" d="M820.34,1149.19c0.08,9.8,2.08,19.04-1.82,30.56c-5.9-9.03-12.75-7.94-22.23-5.86  c-0.61-7.62-0.55-15.76-0.22-22.49c7.71-2.09,16.89,3.27,22.23-2.45C818.99,1148.97,819.67,1149.04,820.34,1149.19z" />
<path class="cls-10" d="M839.02,1177.25c-4.57,1.12-9.17,0.76-14.16-0.17l-2.05-25.24c5.43-0.75,10.14-0.67,16.12-0.12L839.02,1177.25  z" />
<path class="cls-1" d="M162.38,1064.61c-4.32,2.3-8.42,1.25-13.34,0.79c0.83-6.96-1.84-42.46,8.24-40.69  C166.87,1026.39,161.24,1054.08,162.38,1064.61z" />
<path class="cls-1" d="M488.88,1315.18c-0.29,1.04-0.75,2.58-1.58,2.67c-5.58,0.6-16,0.23-21.81-0.16c-5.02,0.92-8.3,0-9.83-2.75  l-2.44-4.49c-0.74-13.32-0.87-31.97,4.89-43.6c4.77-5.34,11.6-6.92,18.78-4.68C491.91,1266.83,490.51,1304.95,488.88,1315.18z" />
<path class="cls-1" d="M481.1,1168.09c-5.93,3.76-16.5,3.57-22.5-0.03c0.31-9.12-1.27-43.03,10.82-42.85  C482.26,1125.4,481.21,1159.25,481.1,1168.09z" />
<path class="cls-3" d="M455.66,1314.93c1.42,3.98-1.61,6.86-5.57,6.71c-5.6-1.72-2.89-52.2,8.02-54.81  C455.33,1282.7,456.73,1298.88,455.66,1314.93z" />
<path class="cls-5" d="M488.88,1315.18c-0.44,2.8,0.33,4.74-1.31,6.13c-3.09,2.62-34.32,2.29-37.48,0.33c1.2-2.7,3.66-4.5,5.57-6.71  L488.88,1315.18z" />
<path class="cls-5" d="M481.1,1168.09c-0.1,7.69-6.1,9.65-12.89,9.14c-4.68-0.35-10.31-3.26-9.61-9.16  C466.09,1167.49,473.6,1167.74,481.1,1168.09z" />
<path class="cls-3" d="M423.12,1107.4c5.69,0.71-1.19,54.88-12.88,41.27C414.1,1135.71,412.6,1118.34,423.12,1107.4z" />
<path class="cls-3" d="M126.49,1165.25c-5.94,2.01-10.68,1.91-17.27,1.54l7.12-47.13c0.43-2.83,3.39-5.96,5.27-6.56  C132.32,1109.63,126.68,1156.89,126.49,1165.25z" />
<path class="cls-9" d="M637.23,1123.42l1.91,3.87c-3.18,16.46-0.57,32.76,3.84,48.74c1.6,16.83,1.9,33.73,0.92,50.71l2.98,38.21  l-2.51,2.15c-15.65-1.23-31.45-2.21-46.97-0.34c-3.3-11.3-1.12-20.47,5.24-30.55c9.75-15.44,2.67-36.94,8.55-52.92  C643.62,1149.47,615.76,1138.27,637.23,1123.42z" />
<path class="cls-8" d="M660.16,1268.33l-15.79-1.24l-2.84-34.87c-1.77-21.74,3.31-41.31-2.85-62.81c-4.27-14.91-4.75-32.21-1.46-45.99  l3.49-14.62c0.34,12.73,6.69,24.89,8.28,37.74c1.71,13.71-1.96,25.51,7.34,37.53c8.07,10.43,6.03,22.56,6.28,34.25  C662.99,1235.16,677.3,1226.31,660.16,1268.33z" />
<path class="cls-9" d="M796.4,1133.49c-3.94,0.35-7.77-0.8-11.58-1.75l6.74-18.9c4.04,1.06,8.61-2.83,13.68,0.57L796.4,1133.49z" />
<path class="cls-3" d="M815.26,1142.28c-6.27-0.79-12.53-0.36-19.24-0.11c-0.23-2.53,0.16-4.5,0.81-6.33  c5.43,0.45,11.21-0.84,17.15,0.77C815.94,1137.14,814.98,1140.84,815.26,1142.28z" />
<path class="cls-1" d="M638.21,1224.86c0.14,3.37,0.74,7.44-0.67,9.15c-1.23,1.5-7.32,1.47-7.34-0.51  c-0.06-6.35-1.64-14.92,2.28-19.77c1.89-2.34,5.29,0.89,5.36,2.53L638.21,1224.86z" />
<g>
</g>
<g>
</g>
<g>
</g>
<g>
</g>
<g>
</g>
<g>
</g>
<g>
</g>
<g>
</g>
<g>
</g>
<g>
</g>
<g>
</g>
<g>
</g>
<g>
</g>
<g>
</g>
<g>
</g>
</svg>