<?xml version='1.0' encoding='UTF-8'?>
<svg xmlns="http://www.w3.org/2000/svg" id="Layer_1" viewBox="0 0 1200 1543" xml:space="preserve" width="1200" height="1800">
<style type="text/css">
      .cls-1 {
        fill: #122445;
      }

      .cls-2 {
        fill: #194764;
      }

      .cls-3 {
        fill: #3a4761;
      }

      .cls-4 {
        fill: #6a373b;
      }

      .cls-5 {
        fill: #7a3d41;
      }

      .cls-6 {
        fill: #117387;
      }

      .cls-7 {
        fill: #525b6f;
      }

      .cls-8 {
        fill: #b02b70;
      }

      .cls-9 {
        fill: #188e9c;
      }

      .cls-10 {
        fill: #a45653;
      }

      .cls-11 {
        fill: #d35041;
      }

      .cls-12 {
        fill: #5db1b5;
      }

      .cls-13 {
        fill: #48b8d7;
      }

      .cls-14 {
        fill: #f07f6a;
      }

      .cls-15 {
        fill: #b6c540;
      }

      .cls-16 {
        fill: #f5f3e7;
      }

    </style>
<path class="cls-13" d="M0,427.23V0h1199.99v114.85l-0.81,3.03c-25.21,6.97-47.62,18.27-67.24,33.91l-3.03-0.39  c-4.73,3.42-15.25,7.66-19.87,3.85l-4.36,3.01c-9.95-0.76-19.85-0.72-29.7,0.12l-154.81,45.32c-7.19,2.05-13.51,6.38-16.75,13.27  l-78.03,163.39c-19.83,7.7-39.84,14.94-60.05,21.73c-6.11,7.4-11.79,15.13-17.04,23.2l-4.09,0.95c-3.5,3.97-11.89,3.9-12.85-1.73  l-1.67-2.78c2.52-13.4-4.59-10.85-21.35,7.65c-7.97,2.78-8-7.64-6.19-13.43c4.47-9.32,5.71-18.15,3.72-26.47l-11.22,14.36  c-2.31,0.65-3.86-0.54-4.98-2.6c-0.35-10.44-2.22-21.43-5.93-31.24c-6.69-17.65-14.98-18.27-11.97,2.92  c-3.59,21-11.6,14.5-14.93-1.12c-7.41-17.73-23.9-50.96-46.62-47.46c9.01,10.25,31.05,47.79,23.8,60.22  c-1.26,2.16-2.16,2.87-4.34,1.19c-11.74-18.63-27.07-31.09-45.99-37.38l-6.66-0.55c5.39,9.38,10.79,18.8,16.19,28.27  c1.79,6.11,2.83,13.24-5.53,9.87c-15.05-13.84-31.88-22.07-50.48-24.7l-6.32,0.51c10.85,7.58,20.54,16.26,29.06,26.03  c3.02,4.38,5.73,9.67-1.13,10.51c-12.18-3.01-24.32-3.87-36.42-2.58c-8.98,2.07-5.53,6.98,10.36,14.73l7.41,6.28  c3.95,3.18,5.1,6.22,3.44,9.1l-4.31,3.01c-21.12,0.24-42.05,0.64-62.79,1.21c2.47,8.04-3.34,10.93-8.87,4.63  c-2.51,5.09-15.17,2.65-13.86-4.65c-19.75-0.2-39.5-0.3-59.25-0.31l-1.57-2.69l-3.06-1.25c-1.4-9.6-5.54-17.05-12.4-22.35  c-3.83-0.82-6.39-2.43-7.66-4.8c-3.58-3.67-2.69-14.8,0.68-18.51c-3.97-1.64-8.07-2.85-12.3-3.63l-1.77-2.8l-2.7-1.49  c-0.31-2.09-0.73-21.21-0.29-22.23c0.43-1.01,1.6-1.52,2.65-1.94c-6.4-2.19-13.2-3.29-20.4-3.32l-1.35-3.32  c-2.75-0.75-2.49-2.82,0.78-6.19c-3.27-0.69-3.39-7.97-2.66-9.75l-43.89,3.95c-0.8,9.47-2.94,26.9-15.32,26.93  c-10.85,1.23-21.64,2.49-32.39,3.79c0.12,11.36-8.85,45.98-16.88,52.47c-2.35,1.9-4.26,1.88-6.42-0.08l-7.14-18.33  c-11.01,0.65-21.74,3.52-32.17,8.62l-5.01,18.05c-0.93,1.99-2.46,3.68-4.59,5.09c1.39,2.07,0.5,2.7-1.42,1.1l-1.64,2.49  c-54.61,0.13-109.27,0.25-163.98,0.38L0,427.23z" />
<path class="cls-1" d="M1199.99,129.08v268.34l-0.45,2.74c-47.02,8.28-94.06,16.62-141.11,25.03c-12.24,2.71-24.28,6.92-35.11,13.29  l-64.79,83.54l38.58,16.14l82.96-67.14c39.1-8.46,76.9-21.95,113.42-40.58c0,0,2.16,0.04,6.49,0.12v76.75l-0.74,2.73l-125.2,8.28  l-67.61,53.75c7.61,5.48,15.78,10.99,25.05,12.96l90.46-51.55c21.43-10.53,51.08-9.9,74.75-8.42l3.29,2.46v125.53l-1.23,2.68  l-97.83,0.39c2.31,6.47,1.4,10.62-2.73,12.44l-266.13,0.39c-9.12,0.4-16.84-1.58-23.14-5.94c0.37-4.84,7.06-14.84,12.05-13.82  c2.46-2.14,5.32-3.3,8.56-2.93c31.26,2.19,62.47,2.69,93.61,1.49c15.7-3.93,30.94-9.7,45.71-17.31l14.33-4.31  c14.62,3.65,29.51,5.92,44.57,6.13c12.1,0.17,36.36-0.96,46.94-5.37c0.78-0.33-6.68-7.52-8.42-7.4  c-25.11-9.04-51.21-18.94-74.76-32.74l-15.37,3.12c-28.16,1.97-55.35,7.1-81.56,15.4c-18.67,11.02-37.61,21.49-56.81,31.41  l-4.58-1.25l-1.64,1.85c-66.8,0.84-133.69,0.95-200.67,0.34l-1.63-2.68l-0.2-2.83l140.2-60.33c18.3,2.08,36.46,5.84,54.48,11.28  c12.02,2.24,24.24,0.28,35.81-3.52c21.14-9.66,42.82-16.43,65.03-20.31c15.03,0.18,29.85-0.66,44.47-2.51l-48.61-29.85  c-44.64,2.63-89.15,6.49-133.55,11.57c-52.34,5.03-96.15,24.19-137.31,55.31c-9.06,5.64-18.26,11.24-28.11,15.4  c-0.73,0.31-1.63,0.24-2.59,0.13c-0.99-0.11-1.97-0.4-2.94-0.74l-7.61,2.6l-78.38-0.83l-16.6-0.17l-1.57-2.7  c-2.06-1.37-1.2-2.48,2.57-3.35l1.18-4.28c11.92-11.88,34.89-22.51,51.57-24.36c22.76-19.71,46.62-37.78,73.27-51.93  c12.78-6.78,30.66-9.93,45.01-10.5l3.21,2.11l5.97-3.9c0,0,17.37-2.12,52.11-6.35c6.29-11.11,13.76-21.59,21.21-31.82  c12.31-16.89,23.88-24.59,43.7-31.31c12.04-5.68,23.74-12.17,35.12-19.45c13.05-29.44,19.58-44.16,19.58-44.16  c36.64-17.24,74.27-32.36,112.37-46.01l39.45-91.97c16.53-12.64,31.87-26.72,45.92-42.06c13.64-15.92,27.65-32.01,45.01-42.86  c6.62-1.23,13.02-3.77,19.87-3.85l-1.13,4.93c-14.48,22.88-30.63,44.67-48.45,65.38c-16.46,15.91-32.6,32.09-48.41,48.54  l-19.21,78.23c26.63-6.52,39.95-9.78,39.95-9.78l80.05-135.01c20.59-26.94,42.39-52.74,65.41-77.41  C1199.7,125.57,1199.97,126.19,1199.99,129.08z" />
<path class="cls-4" d="M1199.99,1133.43v409.43H590.68l-8.34-2.51l-57.47-39.77c-14.43-12.09-25.83-26.97-34.19-44.66l0.68-4.15  l2.48-2.64c5.47-0.39,10.91,0.08,16.31,1.39l1.93-2.72c14.74-0.27,77.9-4.07,83.81-16.45c3.07-6.43-10.21-15.38-15.19-18.11  c-3.87-3.31-3.42-8.27,1.34-14.89c13.9-21.62,37.62-37.34,59.71-49.45c4.29-4.92,16.09-8.77,22.42-7.13l3.91,0.59l11.71,11.83  c-0.41-5.46-1.37-10.89-2.9-16.29l1.87-4.03c0.24-1.06,0.52-2.11,0.97-3.07c4.98-10.58,53.47-30.69,66.74-35.32  c0.83-0.29,1.8-0.2,2.82-0.08c1.05,0.12,2.09,0.42,3.12,0.77l3.41,0.87c3.45,9.91,8.34,18.78,14.67,26.62l-0.11,3.48  c-1.65,2.9-4.74,4.89-9.28,6l-9.76,6.01c-1.62-0.84-3.37-0.71-5.23,0.39c0.66,0.95,1.08,2.49,0.31,2.92  c-8.79,3.99-17.32,8.45-25.59,13.4c-4.19,2.93-7.85,6.36-10.99,10.29c-0.21,1.23-0.7,1.36-1.48,0.39c0.74,3.12-1.56,6.96-4.94,6.27  l-4.86,6.64c-44.33,45.15,5,87.38,47.85,107.47c85.65,40.16,198.11,44.73,290.14,24.86c34.98-7.55,96.8-33.72,99.97-74.34  c2.75-35.29-33.73-59.91-62.11-73.7l-3-4.39c-3.24-2.85,2.77-12.63,6.52-13.61c-1.25-1.51-0.33-2.84,2.76-3.98l-1.26-3.15  c14.74-41.19-38.65-87.12-77.19-86.79c6.66,5.7,28.2,27.23,23.43,36c-3.45,6.34-34.28-12.96-37.33-19.21  c1.21,17.68,8.52,33.76,21.93,48.23l-0.59,3.75c-0.19,1.06-0.5,2.64-1.31,2.79c-5.04,0.94-19.04,2.22-24,1.93  c-3.06,0.26-6.11-0.39-9.15-1.95l-5.84-0.28c-31.08-17.32-67.06-24.54-102.31-18.71l-5.75-1.66c-6.44,0.36-33.05-7.48-36.95-10.92  c-0.81-0.72-0.85-2.05-0.88-3.19l1.47-3.33c10.54-5.47,20.06-12.66,28.56-21.58l3.66,0.41l5.51-3.93  c51.99-10.95,104.33-22.47,157-34.58c32.17-8.55,70.01-18.8,98.31-36.02c10.87-6.61,20.29-15.72,26.85-26.62l4.12-1.91  c0.09-5.76,1.67-11.64,4.74-17.64l1.18-5.38c-0.36-3.73,0.59-6.38,2.84-7.96c0.09-1.03,0.45-2.6,1.12-2.6  c10.24,0.04,23.93,1.49,34.22,2.74C1197.09,1129.69,1199.4,1130.77,1199.99,1133.43z" />
<path class="cls-10" d="M1199.99,751.01v382.41l-42.25-3.38l-3.09-2.96c-5.61-36.99-39.73-53.51-71.58-64.9  c-25.88-7.69-51.65-15.62-77.3-23.79c-25.96-10.1-46.72-25.01-32.98-55.37l-14.83-4.72c-33.22-6.82-66.73-12.14-100.53-15.95  c-7.55-1.21-44.94-7.22-48.24-12.2c-0.61-0.92-0.43-2.18-0.24-3.31c-4.73-3.47,0.5-7.35,5.15-7.96l84.57-2.51  c60.32-2.35,71.2-33.36,11.7-59.59c-24.98-8.51-49.11-18.61-72.38-30.31c-5.63-3.05-7.65-6.24-6.07-9.56  c-0.71-1.49-1.47-3.17-1.12-4.8c1.29-5.94,10.19-22.13,13.97-27.63l4.28-2.32c0.24-0.94,0.52-1.86,0.96-2.69  c4.39-8.34,41.83-16.48,52.47-17.58l118.86-14.77c9.6-1.54,19.23-3.94,27.48-9.28l3.89,0.53c-0.54-1.1-0.86-2.57-0.01-3.26  c6.14-3.14,10.18-6.91,13.13-13.02c44.23,1.2,88.45,3.25,132.65,6.15L1199.99,751.01z" />
<path class="cls-5" d="M302.49,845.04l-0.09,3.31c-5.36,3.74-10.28,8.06-14.15,13.34c-4.82,6.57-1.3,9.33,6.74,11.11  c34.98,7.75,73.47,8.18,108.92,2.86l7.28,1.38l2.78-3.24l20-3.51l4.12,1.69c1.59,2.8-0.06,5.09-4.96,6.89  c-21.4,6.04-42.99,11.3-64.78,15.78l-1.89,2.92c-10.97,3.38-34.75,8.28-45.67,6.27c-4.13-0.76-8.21-1.93-11.98-3.84  c-11.73-8.58-24.2-15.49-37.41-20.71c18.98,12.91,36.91,27.02,53.8,42.35c8.23,10.94-1.22,20.11-9.92,26.32  c-15.4,11-35.32,18.05-52.99,24.17c-28.85-15.93-59.2-22.76-91.29-26.63c26.17,6.75,51.61,15.56,76.31,26.43  c4.28,3.43,6.31,5.56,1.09,8.31c-42.89,22.96-87.62,44.19-135.83,52.97c-36.23-4.35-74.49-17.14-108.21-31.22L0,997.77V787.5  c1.32-0.88,2.65-1.7,4.07-2.35c1.38-0.64,2.76-1.22,4.19-1.44c25.96-4.13,53.15-4.61,79.42-4.71l213.99,63.02L302.49,845.04z" />
<path class="cls-5" d="M69.47,983.4c-2.59,4.95-9.33-0.13-5.49-4.2C65.72,973.93,72.94,979.48,69.47,983.4z" />
<path class="cls-5" d="M63.98,979.21c-2.16,5.53-14.21-2.31-10.75-6.81C55.88,967.34,67.81,974.1,63.98,979.21z" />
<path class="cls-16" d="M731.37,424.53l1.2,3.04c-2.92,2.65-4.12,5.58-3.6,8.81c3.04,0.41,5.57,1.26,7.59,2.54  c0.08,1.25,0.1,2.48-0.07,3.7c-0.73,5.39-18.41,31.53-23.13,34.35c-1.03,0.61-2.14,1.07-3.29,1.48c-1.09,0.68-2.73,1.14-3.39,0.25  c-10.73-19.17-15.65-21.1-14.76-5.78c-3.24,10.49-6.57,10.82-12.43,2.43c-2.88-7.73-6.75-13.71-11.63-17.93  c-0.14,7.93-4.69,19.44-12.76,11.13c-10.6-20.64-25.25-36.29-43.95-46.94l-6.51-2.08c11.84,20.55,29.51,57.46,22.62,81.39  c-1.66,5.78-3.33,7.72-9.28,5.23c-7.81-9.98-16.77-17.41-26.89-22.28l6.78,18.1c2.53,9.42,4.93,26.24-10.02,19.55  c-8.88-8.87-31.86-31.22-45.43-26.21c3.43,5.27,7.16,10.76,11.18,16.48c8.94,15.88,7.51,32.08-14.76,30.03  c-9.64-4.47-18.45-5.42-26.42-2.85l9.78,14.43c11,28.7-13.82,15.13-26.13,6.18c-6.7-3.52-15.34-7.68-22.59-4.8  c5.72,4.07,16.96,20.94,8.57,25.38c-1.03,0.55-2.29,0.44-3.41,0.31c-8.65-3.3-17.33-5.46-26.02-6.48  c17.52,13.46,1.76,25.54-15.01,21.98c-16.42-7.07-33.21-11.76-50.36-14.09c-12.26,0.32-24.22,3.02-35.89,8.1  c-10.98,4.49-53.68,5.98-57.3-8.29c-1.56-6.14,4.12-9.99,9.79-9.91c-4.87-4.46-12.4-8.19-19.16-10.64  c-22.67-8.24-37.28-1.74-57.42,10.16c-31.4,17.51-62.69,15.5-95.76,7.18c-23.97-3.6-47.27,3.76-69.45,12.79  c-19.1,3.65-38.63,5.12-58.57,4.41L0,593.3v-22.77l4.07-2.69c25.4,1.71,50.04-0.8,73.93-7.52c29.5-15.57,59.39-20.98,91.43-9.51  c29.21,5.25,42.22-4.41,62.9-22.92c16.02-11.07,29.23-13.59,48.58-8.2l47.84,16.48c21.95,6.12,57.43,14.29,79.37,6.52  c11.79-11.82,23.63-18.1,40.39-13.6c1.54,0.07,7.4-0.19,8.31-0.67c2.77-1.47-7.92-21.91-9.35-24.05  c10.51-20.58,31.91-22.31,51.85-17c7.84,0.46,8.27-3.41,4.84-9.61l2.11-2.48c-3.66-0.47-6.62-4.98-3.78-8.06  c-2.99-0.97-5.43-3.27-7.32-6.91c-9.66-8.04-21.42-20.67-1.74-25.59c10.5-2.63,28.54,6.29,37.73,11.26  c-5.96-10.25,0.12-11.69,9.61-10.76c11.61,6.92,12.23,4.93,1.88-5.97l0.96-3.41c-9.8-17.59-31.25-19.62-29.13-27.17  c3.29-11.7,37.93-4.22,46.74-2.63c-6.89-17.34-23.54-22.92-36.33-35.62c25.9-7.72,46.64,10.63,66.55,24.96  c5.2-13.18-33.3-44.43-8.75-39.93c22.16,4.06,35.3,20.66,49.26,39.74c2.24-23.71-12.33-43.27-25.86-61.88  c24.79-14.24,53.53,39.77,57.48,61.38c10.34-6.54,2.28-27.47,7.19-29.61c14.89-6.46,22.52,37.32,21.52,47.6l13.49-17.59  c12.68,12.15-7.54,33.02-0.29,43c5.8-2.95,19.12-24.76,26.81-15.37C734.24,415.11,733.18,421.24,731.37,424.53z" />
<path class="cls-10" d="M412.45,1370.31l4.04,1.2c11.91,12.35,23.76,24.77,35.54,37.25l-0.37,4.27l4,1.24  c9.02,13.33,20.87,24.64,34.3,33.49l1.39,4.01c9.57,16.18,18.95,35.47,35.07,46.63l64.25,44.46H168.56l-1.14-2.6  c46.12-41.51,91.46-84.26,136-128.26c5.78-6.9,12.22-11.03,19.34-12.4c0.24-0.99,0.54-1.95,0.99-2.83  c6.58-12.79,67.49-26.31,83.63-28.34L412.45,1370.31z" />
<path class="cls-1" d="M322.77,1399.6c-19.88,13.82-35.67,33.77-53.84,50.55l-100.37,92.7H0v-57.59c7.79-8.19,17.55-13.72,27.43-19.01  c67.57-35.94,137.64-73.16,209.29-100.25c5.26-1.99,10.8-3.07,16.35-3.89l1.15-3.47c11.85-8.08,20.93-19.11,27.23-33.11l3.63-0.93  c1-0.37,2.59-0.74,2.95-0.09c11.53,21.09,24.26,45.89,34.05,67.77C324.5,1395.31,324.73,1397.75,322.77,1399.6z" />
<path class="cls-9" d="M506.28,475.28c0.51,3.66,4.37,6.92,1.87,11.28c-7.37,12.83-33.91-15.61-58.42,17.84  c2.6,1.71,14.87,25.08,7.74,26.5c-22.56,4.5-19.67-11.03-48.22,14.16c-39.96,9.35-81.31-5.24-117.43-18.99  c-72.77-27.7-58,46.32-131.48,25.27c-28.34-8.12-48.2-3.97-73.77,8.29c-26.3,12.6-58.26,10.76-86.58,10.92v-54.91  c1.08-0.79,2.18-1.53,3.36-2.11c1.16-0.57,2.29-1.1,3.45-1.21c34.99-3.3,68.76-1.34,104,0.95c57.09-0.66,114.09-3.15,171.01-7.48  c44.95,2.08,89.86,2.45,134.71,1.13l7.69,1.85l2.62-1.28c9.59,5.56,24.6-4.91,2.8-2.28l-2.65-2.63l-2.57,2.59  c-54.81-1.95-110.22-3.21-166.23-3.79l-42.42,1.65c-68.82,7.01-137.66,5.16-206.55,3.02c-3.2-0.1-6.26-1.31-9.2-2.49v-29.46  c5.85-1.69,8.77-2.54,8.77-2.54l78.52,1.62c65.34-5.11,130.78-3.54,196.1,0.87l220.38-1.44L506.28,475.28z" />
<path class="cls-1" d="M615.64,873.39l0.11,2.95c-22.1,10.96-44.08,22.31-65.94,34.03l-10.92,7.94c-3.56,4.69-7.46,7.86-11.71,9.52  l-3.19,3.31c-36.24,3.24-72.66,4.34-109.27,3.3c-27.19,0.85-55.28,2.21-80.3,13.56c-6.96,3.16-8.49,4.07-9.15,11.66  c1.44,33.78-21.23,42.95-50.5,49.57c-4.56,0.94-8.07,2.65-10.51,5.14c-0.84,6.5-5.34,9.93-13.52,10.28  c-44.87,24.08-90.73,47.83-140.58,59.67c-15.89,16.27-33.42,30.93-52.6,43.97c-14.53,11.54-27.96,25.33-32.78,43.73l-3.39,2.74  c-5.13-1.2-8.7-11.68-10.43-17.01c-2.95-5.62-3.03-9.88-0.24-12.8c-1.07-1.05-2.23-2.27-2.43-3.82  c-2.43-18.58,21.07-49.04,35.9-59.49l37.59-27.27c4.09-3.69,8.72-8.05,4.11-13.27c-13.65-15.46-63.13-19.57-83.46-17.08L0,1021.88  v-24.11c36.45,11.53,73.59,29.96,112.43,32.79c48.24-8.65,93.92-31.04,137.61-53.98c-23.52-13.99-45.98-17.7-68.73-24.78  c-13.19-4.48-27.25-8.26-36.79-19.38c14.95,5.66,25.27,11.77,39.76,12.76c27.84,1.92,53.59,11.41,78.35,24.47  c11.26-4.71,81.02-27.86,58.8-48.08c-19.31-17.58-40.06-31.61-62.15-47.91c15.06,2.31,29.36,8.91,41.17,17.98  c25.31,19.42,44.65,5.35,67.9,3.01c21.56-5.04,43.77-7.18,66.64-6.4c27.72,0.88,54.87,0.03,81.45-2.53  c6.53-2.62,12.83-3.67,18.91-3.16c1.05-1.69,2.24-3.51,4.09-4.38c15.68-7.44,54.46-12.1,71.35-8.2  C612.76,870.44,614.28,871.97,615.64,873.39z" />
<path class="cls-13" d="M710.07,478.43l0.52,3.97c-5.27,9.76-10.6,19.49-16.01,29.18l-5.98,3.55c-13.14,2.78-28.33,1.91-41.24,7.96  c-29.09,13.64-54.1,33.98-79.15,54.72c-21.25,2.23-37.51,13.66-53.85,26.28l-2.91,1.75c-66.55,2.06-135.54,3.74-201.55-4.75  l-40.04-17.49c-19.16-2.47-55.32-3.94-72.11,5.77c-3.41,1.97,1.84,3.55,4.08,4.09c25.87,2.3,51.8,4.21,77.81,5.72  c14.33,8.25-0.44,11.73-9.55,12.63c-49.5,0.39-98.97-1.09-148.41-4.44l-92.55-0.02c-10.6,0.72-20.31-0.84-29.12-4.67v-9.38  c21.25-2.34,45.66,2.08,66.04-6.33c87.84-36.23,83.1,25.58,176.21-26.48c22.16-12.39,46.73-3.3,65.56,10.14  c-0.98-0.7,10.75,2.95,4.37,3.34l-5.4,0.33c-3.79,0.23-8.66-0.07-10.08,4.08c-3.66,10.72,33.68,17.82,62.57,6.11  c49.69-20.14,79.27,24.94,97.33,3.98c5.05-5.86-5.78-11.41-9.27-15.8c10.78-4.84,21.73,3.79,33.64,5.47  c4.73-10.61-6.16-16.56-12.29-25c21.26-10.02,45.52,20.36,51.92,14.77c8.27-7.21-9.34-22.9-11.59-29.59  c12.61-12.39,31.69,8.8,43.08-1.54c13.17-11.96-8.03-32.61-14.87-43.32c30.59-7.45,50.07,30.3,56.39,27.39  c10.3-4.74-3.91-31.42-6.8-39.59c20.15-3.76,35.82,40.45,38.21,16.23c2.85-28.85-9.89-54.85-25.72-81.61  c29.07,3.12,44.9,31.19,59.57,53.56c7.6-2,4.41-10.21,7.73-16.95c10.41,5.46,11.36,18.19,18.82,26.71  c6.13-4.75,3.19-13.35,5.24-19.8C702.52,459.71,703.35,471.89,710.07,478.43z" />
<path class="cls-10" d="M10.73,1144.95c0.67,10.34,6.79,20.74,10.67,29.81l4.13,2.6c14.07,28.39,41.86,45.65,69.99,58.65  c60.44,26.16,120.22,52.05,179.33,77.66c6.26,2.64,9.67,6.28,10.24,10.93c-8.3,14.22-16.69,31.19-32.02,37.51l-9.21,1.2  c-80.99-13.31-161.88-26.6-242.67-39.87L0,1320.54v-175.45C0.45,1141.01,9.75,1141.02,10.73,1144.95z" />
<path class="cls-1" d="M835.71,673.72l1.86-2.44c2.22-0.02,18.37,2.12,19.13,2.71c0.92,0.71,1.29,1.81,1.48,2.91  c1.37,3.3-0.81,5.59-6.56,6.87c-14.9,2.61-20.4,6.68-2.22,11.34c47.31,5.16,94.8,9.87,142.46,14.15c25.62,3.87,57.3,9.31,75,29.18  c23.7-1.18,47.36-2.84,70.99-4.98l11.16,1.65c0.9-0.77,1.83-1.49,2.85-2.04c4.98-2.7,34.15-2.28,42.13-1.78l6,2.52v17.2  l-132.59-7.25c-2.82,8.94-9.78,10.92-14.67,14.62l-3.28,0.75c-15.92-9.11-33.49-14.65-52.7-16.63  c-44.83-5.19-89.61-10.19-134.34-14.98c-6.96-1.17-23.47-4.05-27.46-10.1c-2.5-3.79-3.62-11.43-0.68-14.52  c-27.31-2.65-54.89-4.1-82.42-1.87c-32.12,3.43-64.34,5.08-96.65,4.93c-56.59-3.78-112.35-8.23-167.29-13.37  c-8.53-1.56-24.26-4.67-27.97-13.47c-0.88-2.1-1.33-3.56,0.96-4.01c-23.77,0.09-47.58,0.59-71.45,1.5  c0.02,10.84-8.95,13.2-17.46,15.02c0,0-11.48,0.67-34.45,2.01c-0.29,0.98-0.83,2.45-1.49,2.4c-9.1-0.72-45.17-6.39-50.66-11.45  c-7.26-6.68-0.08-10.87,6.53-13.29c27.75-3.49,55.63-6.34,83.64-8.55l6.9-2.11c-24.08-5.09-47.94-10.99-71.6-17.69  c-3.61-1.87-3.08-3.49-0.7-6.12l94.36,9.93c16.89-1.45,33.45-1.01,49.66,1.33l6.97,2.76c6.16,5.88,13.07,10.1,20.71,12.68  c65,5.44,131.04,9.21,198.14,11.34c35.76-1.78,71.47-3.91,107.11-6.4l17.48,2.43C815.26,670.46,825.63,671.39,835.71,673.72z" />
<path class="cls-5" d="M253.08,1362.12c-86.9,35.86-172.11,74.84-253.08,123.15v-164.73L253.08,1362.12z" />
<path class="cls-9" d="M543.61,425.84c3.07,5.5,11.55,10.46,9.43,19.76c-6.64-5.06-14.64-11.25-21.83-6.84  c0.28,6.23,6.76,8.51,5.31,14.17c-10.84-8.95-44.96-24.32-50.87-9.82c-2.7,6.62,11.74,10.66,16.85,24.11  c0.03,1.05-0.22,2.67-0.87,2.7c-80.28,3.24-160.7,3.17-240.69-0.81L1.67,470.08L0,467.41v-40.18l167.27-0.19  c3.17,3.15,1.8,6.8-2.6,7.14l-3.4,1.63c-21.19-7.55-40.29,1.96-57.97,12.58c32.63,0.73,65.51,0.84,98.64,0.34l1.62,2.67l17.21-2.66  l211.49,0.14c-10.25-11.14-22.28-19.21-36.79-10.8c-5.48-1.12-7.86-5.5-3.1-8.39c-3.31-1.52-2.95-2.19,0.59-2.64l64.88,0.34  c-1.25,2.04-3.26,5.51,1.13,7.05c1.59,0.56,3.64-7.95,4.82,1.89c2.99-3.47,0.39-7.8,3.99-10.89c1.71,1.65-1.25,3.46,0.02,5.43  c1.15,1.78,3.13,2.23,3.47,3.49c0.73,2.73,3.49,1.18,3.36-0.63c-0.61-8.33-3.86,2.83-4.65-6.88  C498.41,425.77,518.69,427.95,543.61,425.84z" />
<path class="cls-3" d="M1199.99,397.42v33.13c-28.05,11.87-55.19,27.14-85.17,34.53l-33.54,8.27l-84.05,68.15l-43.01-18.31  l67.48-86.81c13.23-7.8,27.19-12.38,42.72-15.11L1199.99,397.42z" />
<path class="cls-16" d="M514.36,604.1c-1.08,0.84-1.61,2.39-2.57,3.35c-0.06,3.58-1.13,3.5-2.8,0.39c-3.77,1.46-7.63,2.87-11.68,3.26  c-55.13,5.3-110.2,10.86-165.22,17.24c-32.66,2.6-65.58,3.46-98.33,3.6c-1.92,0.01-3.84-0.4-5.79-0.83  c-1.97-0.44-3.89-1.06-5.8-1.73c-2.71,4.11-4.81,4.76-6.29,1.96c-3.19,4.73-15.97,3.88-19.27-0.53c-2.05,0.9-3.51,0.29-4.85-1.51  c-3.49,1.18-7.08,2.27-10.79,2.37c-57.46,1.58-113.32,4.16-169.94,15.98c0,0-3.67-0.26-11.02-0.77v-44.2  c43.15,4.61,86.13,0.82,130.25,2.22c21.62,0.69,142.8,9.55,151.47,1.64c13.15-12-81.25-2.16-87.43-14.31  c-6.36-12.5,65.04-16.37,78.31-10.5l37.29,16.5C325.94,605.33,486.75,605.41,514.36,604.1z" />
<path class="cls-3" d="M1199.99,114.85v14.23c1.09-11.43-71.98,86.07-65.66,75.41l-81.19,137.01l-45.14,10.9l20.61-83.37  c13.56-18.57,33.98-30.92,48.67-49c18.37-22.63,36.13-44.94,51.64-68.61C1138.06,137.47,1183.38,119.66,1199.99,114.85z" />
<path class="cls-5" d="M10.73,1144.95L0,1145.09v-123.21c16.53-5.12,87.1,3.11,90.44,22.52C93.78,1063.81,13.35,1082.02,10.73,1144.95  z" />
<path class="cls-3" d="M1199.99,507.3v20.23c-25.04,2.02-54.12-4.6-76.75,8.3l-91.84,52.34c-10.76-3.02-20.45-9.19-29.4-16l71.22-56.3  L1199.99,507.3z" />
<path class="cls-12" d="M426.98,502.59c2.43,2.7,0.53,5.31-2.77,6.18c-52.05,6.4-104.4-2.79-157.5,0.26  c-64.5,3.7-126.6,10.57-191.66,5.01c-25.63-2.19-50.45-0.77-75.05,1.59v-12.05c51.95-1.53,103.94,4.78,156.54,0.85  c47.5-3.54,91.79-6.91,139.54-5.55L426.98,502.59z" />
<path class="cls-12" d="M502.5,467.22c1.06,2.79,3.28,4.54,3.78,8.06l-135.27,0.74c-44.7,0.25-87.17,2.39-131.6-1.37  c-42.37-3.59-83.06-2.86-125.46,0.13c-38.74,2.73-76.17-0.27-113.96-0.68v-6.7l260.99-0.98l104.73,3.64L502.5,467.22z" />
<path class="cls-3" d="M1109.04,155.26c-6.1,10.02-17.67,15.42-25.95,25.24c-19.3,22.9-39.05,43.49-63.01,61.39l-39.32,92.16  c-38.46,14.03-75.74,29.06-112.86,46.06l-19.31,43.99c-67.9,43.91-50.81,6.69-100.67,82.96c-19.9,2.5-40.08,4-59.33,8.08  c9.08-10.78,13.46-25.74,21.47-36.7c9.23-12.62,18.58-25.52,26.49-39.52c-3.41-3.67,2.95-12.1,7.66-12.65  c6.55-8.29,12-18.56,19.65-26.32l59.69-21.29l77.48-162.86c3.64-7.65,10.41-12.3,18.36-14.63l153.79-45.05  C1085.23,152.58,1097.55,157.4,1109.04,155.26z" />
<path class="cls-3" d="M335.17,335.21c-2.76,3.72-3.02,5.78-0.78,6.19c7.06,3.42,19.31-1.71,21.76,6.64l-1.98,2.96  c-9.34,0.06-17.02,2.91-23.06,8.54c-16.7,5.56-33.81,10.38-51.32,14.44c23.99-1.84,48.05-2.86,72.2-3.05l4.49,2.75  c4.91,0.1,13.53,2.27,14.06,6.44l-2.77,2.96c-12.16,0.59-24.21,1.18-36.15,1.78c-8.54,6.88-16.8,14.24-24.78,22.07  c-41.08,4.89-82.2,10.44-123.36,16.67c-5.3,2.48-10.23,3.26-14.79,2.33c2.78-7.64,5.34-16.47,7.62-24.69  c11-5.17,23.71-10.65,35.96-9.82l8.38,21.53c10.89-16.79,16.16-35.05,18.47-54.39c13.37-3.55,26.59-3.56,39.76-5.75  c5.2-7.88,5.96-16.44,8.32-25.31c15.61-2.86,30.91-3.93,46.28-4.17C335.59,327.63,335.27,331.45,335.17,335.21z" />
<path class="cls-2" d="M370.54,380.13c0.78,6.16-0.07,12.36-0.68,18.51l-3.27,2.52c-19.77,0.41-39.05,4.86-57.84,13.33  c13.45,5.71,26.8,11.48,40.05,17.3c13.07,0.76,26.23-0.58,39.49-4.03l4.11,1.92c0.38,2.85,0.04,6.88,3.09,5.68l6.97-2.74  c11.96-4.7,26.79,8.13,36.17,18.93l-235.05-0.16c5.23-5.19,12.38-8.21,21.46-9.06c24.35-4.17,48.88-6.62,73.6-7.33  c0.53-0.01,2.13-0.91,2.03-1.09c-2.93-4.8-24.31-8.02-30.87-8.68c-20.41-2.08-56.48,1.37-76.09,7.74  c-6.88,2.23-11.36,5.3-16.04,10.95c-5.51,1.06-14.74-3.94-12.98-9.75c1.12-2.29,1.96-4.68,2.6-7.14c0.13-0.46,1-0.91,1.42-1.1  c15.74-7.14,31.93-8.15,48.89-10.3l88.91-11.24C339.72,371.69,320.38,385.19,370.54,380.13z" />
<path class="cls-12" d="M240.86,153.11c4.31-0.81,5.07,8.85,1.81,11.25c-13.74,10.27-29.24,19.27-36.81,34.71  c0.54,9.62,13.6,17.94,23.92,18.83c-4.93,5.64-12.2,0.47-18.01,2.59c-32.41,25.67-52.3,1.83-81.42,5.22  c-0.63-1.97-0.92-7.59,3.11-9.67c3.65-1.88,7.83-2.25,13.33-3.87c-3.48-10.34-48.57-6.97-54.31-6.06  c-4.37-1.44-1.63-12.45,2.3-14.04c16.9-4.99,34.76-15.13,49.96-8.79l32.13,13.4C192.5,172.69,214.42,158.59,240.86,153.11z" />
<path class="cls-16" d="M535.37,185.09c4.22,0.23,5.98,8.35,2.04,10.36c-18.46,9.49-34.8,20.87-45.75,39.74  c6.09,1.89,12.04,4.69,16.12,11.71c-36.6,26.55-54.33,12.33-96.4,2.09l31.4-6.67c-12.78-14.13-31.26-21.44-49.37-25.76  c-3.47-2.02-6.92-8.18-3.8-11.52c28.1-1.36,53.78,4.05,74.48,25.26C482.38,203.94,506.63,190.23,535.37,185.09z" />
<path class="cls-16" d="M720.75,139.54c3.61,0.4,6.98,1.89,10.1,4.46l14.35,7.33l0.66,3.58c3.29,2.26,5.12,6.41,8.2,9.15  c-23.53,11.87-48.63,9.74-69.42-4.63c-6.39-2.03-12.26-4.98-17.61-8.85l-1.4-4.53l23.91-0.08c-13.04-24.09-34.8-30.47-60.25-32.48  c-2.89-2.6,0.45-11.9,3.84-13.14C689.31,99.77,683.22,96.77,720.75,139.54z" />
<path class="cls-3" d="M369.86,398.64c15.5,0.96,19.79,14.49,23.12,28.4c0.19,0.81-0.7,1.81-0.59,2.64  c-61.58,12.26-37.88,1.93-93.78-15.77C331.87,406.14,338.92,396.71,369.86,398.64z" />
<path class="cls-12" d="M810.61,153.84c3,2.83,1.06,7.89-2.97,8.27l-27.69-8.36c-10.93-3.3-26.19-5.67-34.1,1.16  c-9.56-6.3-18.38-7.71-25.11-15.37C765.42,129.96,772.68,123.25,810.61,153.84z" />
<path class="cls-2" d="M356.14,348.03l0.33,25.66c-45.48-0.94-61.31,4.09-102.19,3.15c16.73-1.67,31.55-8.56,46.9-11.56  C352.89,355.17,315.21,353.26,356.14,348.03z" />
<path class="cls-1" d="M633.12,100.34c-0.02,4.7-2.03,8.87-3.84,13.14c-15.28-1.21-30.48-2.35-46.96-7.19  C599.33,102.17,616.26,100.51,633.12,100.34z" />
<path class="cls-1" d="M94.78,192.08l-2.3,14.04c-15.02,2.38-29.2,5.39-44.19,4.33C64.03,203.06,79.13,196.69,94.78,192.08z" />
<path class="cls-16" d="M699.4,357.39c-6.91-6.74-10.32-24.81-0.03-28.94c6.18-1.52,8.73,9.27,8.43,13.58  C707.43,347.5,706.6,354.22,699.4,357.39z" />
<path class="cls-1" d="M389.59,205.02c1.07,4.01,4.14,7.27,3.8,11.52c-15.01-3.59-29.29-6.47-43.64-11.69  C363,200.13,376.79,205.64,389.59,205.02z" />
<path class="cls-16" d="M628.12,277.95c-9.98,2.51-23.61-11.78-20.21-20.35C617.85,254.37,628.48,267.83,628.12,277.95z" />
<path class="cls-1" d="M242.67,164.36l-1.81-11.25c10.2-4.77,20.92-6.7,32.26-7.72C264.21,154.03,252.08,157.32,242.67,164.36z" />
<path class="cls-1" d="M537.41,195.44c0.08-3.59-1.62-6.84-2.04-10.36c11.18-4.82,23.23-5.9,33.92-6.03L537.41,195.44z" />
<path class="cls-1" d="M807.64,162.11c0.76-2.84,1.93-5.53,2.97-8.27c8.52,6.87,21.93,10.72,28.92,22.58  C828.08,174.16,818.24,165.31,807.64,162.11z" />
<path class="cls-9" d="M744.22,426.26c-2.51,3.17-5.69,9.16-7.66,12.65c-4.83,0.97-9.09,2.27-10.21-2.04  c-1.56-6.02,3.1-8.87,5.02-12.35C735.44,426.16,739.87,426.68,744.22,426.26z" />
<path class="cls-16" d="M653.55,305.34c-6.74,3.13-14.37-15.29-9.09-18.26C651.16,283.34,660.17,302.11,653.55,305.34z" />
<path class="cls-16" d="M508.64,373.76c-6.37,7.31-18.5,2.81-23.94-3.8C491.97,365.51,502.34,366.31,508.64,373.76z" />
<path class="cls-1" d="M665.62,146.05c5.92,4.93,12.63,8.97,19.01,13.38c-12.26-2.23-23.84-4.32-32.77-15.66  C656.78,144.36,661.05,146.06,665.62,146.05z" />
<path class="cls-16" d="M591.82,313.18c-6.26,3.54-17.66-5.15-18.15-11.23C579.53,297.92,591.63,304.4,591.82,313.18z" />
<path class="cls-16" d="M730.82,369.9c-5.17-1.37-2.48-19.05,3.94-17.72C741.19,353.51,738.31,371.61,730.82,369.9z" />
<path class="cls-1" d="M334.39,341.39c-14.39,1.24-28.36,1.22-43.99,5.95c7.64-12.28,36.1-2.36,44.77-12.14  C335.11,337.28,334.61,339.34,334.39,341.39z" />
<path class="cls-3" d="M629.28,634.94l-4.17,2.71c-6.59,0.83-37.57,1.52-41.84-0.42c-3.28-1.49-3.13-2.63-2.46-5.8  c0.36-1.7,25.84-19.88,27.86-20.79l7.27-2.08c36.69-14.44,66.49-46.13,105.14-58.3c64.14-20.19,132.83-20.37,199.78-25.93  l55.91,33.95c-21.4,5.61-42,0.96-63.11,5.12c-25.25,4.97-48.12,20.94-74.17,23.13c-23.58,1.99-45.05-11.86-69.79-12.14  L629.28,634.94z" />
<path class="cls-3" d="M853.67,515.62l-49.34,1.68c13.88-26.46,28.93-51.12,45.53-76.07l149.27-71.65l112.18-25.46l-60.22,65.77  l-157.72,46.58C878.6,475.53,867.53,495.35,853.67,515.62z" />
<path class="cls-3" d="M820.98,649.2c-5.33-2.58-1.88-6.01,1.61-8.6c3.68-1.58,7.23-3.3,10.62-5.16c24.55-7.77,43.92-28.14,69.7-36.14  c28.79-8.94,59.56-8.44,89.01-15.07c22.81,12.16,43.53,21.9,66.97,29.59c8,2.63,15.92,5.49,19.74,14.83  c-32.64,8.31-63.39,8.53-95.51,0.13c-21.76,4.89-39.55,19.49-61.32,21.86C888.04,654.29,854.39,647.54,820.98,649.2z" />
<path class="cls-6" d="M527.18,927.83c3.66,0.71,4.18,5.96,0.41,7.12c1.24,1.68,1.75,3.89,1.51,6.63c5.3,5.89,12.42,9.53,21.36,10.93  c29.56,5.39,59.37,8.88,89.41,10.49c30.6,3.06,51.29,21.74,67.64,45.85c7.26,8.16,15.67,15.14,25.21,20.94  c11.79-3.87,17.69-5.81,17.69-5.81l2.29,2.07c10.37-8.33,18.02-19.05,22.94-32.16l5.22-7.99l4.87-1.01  c20.94,10.04,42.61,17.24,65,21.61c34.93,2.35,68.92,10.24,102.68,19.04c19.51,5.08,23.78,19.98,27.44,37.22  c5.05,14.17,12.1,19.19,26.78,23.72l46.21,11.71c29.03,8.14,62.49,17.84,83.72,40.45c5.48,5.84,13.17,14.29,11.42,22.39  c-8.97,17.21-24.63,29.66-43.39,38.2c-40.79,18.57-83.35,29.22-127.36,38.72l-121.04,26.13l-0.88-2.84c3.2-4.56,5.52-9.66,6.96-15.3  c-6.52,3.19-39.49,14.91-43.23,7.09c-3.77-7.89,26.99-24.79,33.71-27.13c-39.43-11.78-93.47,12.62-101.01,54.76  c0.86,2.86,0.37,4.96-1.47,6.31c3.55,2.68,4.06,4.47,1.54,5.35c3.49,1.27,3.1,3.03-0.4,3.85c-25.86,9.3-52.49,20.39-73.65,37.7  c-2.19,3.41-10.53,10.46-14.59,7.91c-6.97,3-14.97,5.67-22.42,7.13l-10.16,4.53l-39.08,4.79c-58.28,3.39-116.37,8.03-174.27,13.91  l-5.78-1.81c-30.72,5.02-63.72,11.24-89.68,29.29l-37.68-74.99c-13.01-12.54-32.85-17.91-50.35-25.68  c-50.61-22.48-101.63-40.93-150.98-65.73c-26.72-13.43-50.89-31.64-62.36-58.44c8.94-43.54,59.36-59.41,87.51-92.71  c50.03-12.12,95.39-35.52,140.69-59.81c3.13-1.68,8.34-0.66,10.41-3.3c1.43-1.82,0.87-6.85,4.1-8.41  c16.64-8.03,36.82-7.86,50.22-21.4c9.77-9.88,5.41-26.86,10.72-38.95C371.92,919.73,473.02,938.57,527.18,927.83z" />
<path class="cls-1" d="M712.49,1370.09c-2.37,4.26-7.5,0.09-4.14-3.57c0.45-0.22,1.01-0.21,1.48-0.39  C713.46,1363.84,715.91,1367.38,712.49,1370.09z" />
<path class="cls-1" d="M1009.92,1429.22c5.17,2.2-1.31,8.88-4.32,3.71C1000.48,1430.68,1007.35,1424.1,1009.92,1429.22z" />
<path class="cls-1" d="M823.49,1288.57l37.83,14.11l-2.13,3.19c-31.69,8.84-58.53,19.08-40.91,55.23  c27.56,56.54,100.01,74.2,152.32,39.9c9.09-5.96,31.49-26,33.87-36.02c0.52-2.17-6.3-14.71-8.21-17.51  c-5.4-7.95-12.86-14.28-20.33-20.19l-0.73-3.94l34.47-2.78l4.43-0.18c18.38,12.89,39.61,23.14,62.57,19.35l4,2  c-0.82,1.29-1.46,3.07-2.76,3.98l-2.86,2.77c-2.76,1.81-27.16-1.13-32.1-1.87l-30.52,12.36c0.55,7.92-1.35,14.79-5.72,20.6  c19.54,0.93,44.17-8.22,59.78-19.76l4.89-0.5c19.51,9.06,38.3,20.41,52.65,36.72c20.41,23.2,21.09,54.33-2.34,76.18  c-24.2,22.57-56.16,36.19-90.03,43.36c-87.02,18.42-180.14,12.76-263.91-16.98c-37.15-13.19-93.74-43.77-88.79-88.6  c1.58-14.34,10.87-29.48,24.43-37.21l2,2.67c-1.18,0.98-8.52,25.91-6.86,24.88c4.09-2.53,14.59-20.55,12.81-26.73l2.33-2.21  l1.88-2.5c11.26-0.08,40.49-16.86,30.52-29.38c6.97-4.85,14.65-10.68,24.28-12.4l5.16,0.63c8.98,6.8,18.38,12.25,28.21,16.34  c-0.87-7.23-0.15-14.86,3.58-21.29l-23.56-20.29c0,0-9.71-2.27-29.14-6.8l-1.82-3.4c-0.25-1.86-0.85-3.62-1.54-5.35l4.21-0.75  c20.06,10.21,43.19,6.75,64.01,0.74L823.49,1288.57z" />
<path class="cls-1" d="M940.95,916.15c4.7,1.67,1.08,7.27-1.5,9.94c-6.25,6.47-20.59,8.51-29.33,9.42  c-32.92,0.45-65.81,0.53-98.66,0.23c-9.93,1-18.08,4.29-2.9,7.92l0.4,3.18c23.69,16.16,127.34,17.1,167.42,34.77  c-40.86,83.37,170.41,45.74,181.36,148.43c1.21,11.34-4,21.86-8.76,30.98c-19.43-48.27-94.79-59-140.65-71.56  c-49.15-13.47-15.97-49.94-56.94-61.73c-31.61-9.1-63.47-15.06-96.42-18.07c-28.65-2.62-49.89-14.77-74.11-23.75  c-7.16,12.76-15,24.98-23.52,36.66l-4.64,3.48c-7.56,2.27-11.2,6.28-19.98,3.74c-2.05-0.99-2.54-1.89-1.47-2.71l1.04-1.51  c7.06-1.33,11.95-6.07,14.66-14.23c8.36-22.69,14.24-46.04,17.65-70.03c6.11-20.86,13.37-31.25,36.51-32.4l109.28,10.5  c9.11,0.44,18.38-0.54,26.72-4.35L940.95,916.15z" />
<path class="cls-11" d="M975.22,1323.34c14.32,10.91,27.62,22.95,31.8,42c-17.47,33.6-55.73,55.72-92.8,55.85  c-80.73,0.28-113.51-73.73-102.4-91.29c10.14-16.03,31.64-23.59,49.51-27.21C901.13,1294.61,941.47,1303.18,975.22,1323.34z" />
<path class="cls-5" d="M641.75,1348.9c-19.16,17.82-52.5,31.61-61.84,60.89c8.03,3.99,23.04,14.69,18.27,22.92  c-8.3,14.34-71.93,17.5-88.03,17.81c-19.09-2.24-49.75-17.9-50.96-39.29c-2.72,2.63-5.22,3.23-7.52,1.8  c-10.13-16.25-28.78-26.29-39.21-42.72C475.99,1359.93,580.54,1360.89,641.75,1348.9z" />
<path class="cls-11" d="M857.19,1264.08c-10.17,8.41-20.59,20.59-33.7,24.49c-24.46,7.29-49.9,11.4-72.22-1.61  c-2.66-6.69-0.71-15.19,3.58-22.72c20.18-35.38,66.31-53.46,106.14-39.13c-14.81,8.18-30.61,13.07-39.31,27.11  c17.09,2.6,30.51-5.77,46.14-10.74C864.78,1248.23,862.75,1259.48,857.19,1264.08z" />
<path class="cls-11" d="M1080.68,1341.73c-27.12,5.63-49.13-5.76-71-21.17c-12.52-17.33-27.4-34.25-23.83-58.66  c10.82,12.42,23.26,22.24,38.52,24.61c-4.28-16.65-17.06-25.33-28.79-37.62C1046.43,1243.82,1101.99,1308.25,1080.68,1341.73z" />
<path class="cls-11" d="M1077.92,1345.71c-0.86,4.72-4.58,9.39-6.52,13.61c-19.85,16.74-45.1,22.95-70.79,23.09  c6.33-9.58,12.32-15.28,8.45-25.29C1065.52,1335.03,1022.77,1347.72,1077.92,1345.71z" />
<path class="cls-10" d="M656.49,1491.51c2.72,17.39-73.52,19.24-76.62,1.02C576.92,1475.24,653.81,1474.35,656.49,1491.51z" />
<path class="cls-10" d="M1165.53,1254.91c-17.1,14.3-47.49,13.87-63.6-0.15C1117.47,1240.47,1149.48,1240.91,1165.53,1254.91z" />
<path class="cls-11" d="M713.71,1371.4c-0.15-0.31-0.66-0.59-1.21-1.31c-0.4-1.34-1-2.63-2.66-3.95  c-3.96-9.73,32.45-23.96,36.27-26.61c2.09-0.48,6.22-0.69,5.28,1.69c-0.66,1.66,0.64,6.75-0.91,8.79  C742.72,1360.23,726.45,1373.33,713.71,1371.4z" />
<path class="cls-11" d="M708.36,1366.52c0.57,1.92,2.16,3.25,4.14,3.57l1.21,1.31c3.03,13.67-9.52,24.09-16.74,36.26  c-3.8-12.9,3.34-23.63,6.45-34.88C704.28,1369.66,706.38,1367.49,708.36,1366.52z" />
<path class="cls-1" d="M510.15,1450.52c-6.17,0.12-12.52,1.56-18.79,1.25c-15.14-8.97-30.62-24.18-39.69-38.73  c3.8-2.09,6.17-5.42,11.97-6.47C451.94,1426.1,498.09,1446.33,510.15,1450.52z" />
<path class="cls-10" d="M1178.86,1318.12c-9.43,9.94-29.93,9.4-40.15,0.16C1149.79,1310.1,1166.43,1309.97,1178.86,1318.12z" />
<path class="cls-5" d="M678.76,1333.86c1.94,9.24,4.43,18.21,5.09,28.19c-7.18-7.6-14.26-13.17-19.69-20.28  C668.38,1339.95,673.06,1333.74,678.76,1333.86z" />
<path class="cls-9" d="M1052.73,758.38c-11.07,8.37-25.44,10.87-40.51,12.72L905.1,784.26c-20.33,2.5-39.38,7.35-56.03,17.9  c-3.44,3.95-16.22,5.32-19.01,0.9l-0.5-4.72c7.25-12.36,13.25-25.45,18.45-38.62c-8.33-2.81-16.61-2.66-25.03,2.01l-83.9,48.45  c-12.3,5.7-26.58,2.1-39.01-1.8c-24.17-9.42-48.12-19.35-71.86-29.8c-39.11-13.45-36.88,3.45,6.7,50.71l-1.24,2.77l-2.37,3.19  c-11.24,2.01-21.69,0.87-31.34-3.4c-5.18,1.46-7.78,2.19-7.78,2.19c-44.4-4.72-88.72-5.05-132.95-1l-7.88-1.54l-3.58,1.05  c-22.57-8.69-46.38-13.61-71.42-14.76c-32.39-2.35-64.63-5.73-96.73-10.14c-6.45-1.12-28.69-5.18-32.63-8.53  c-1.09-0.93-1.54-2.32-1.76-3.69l1.8-2.78c19.68-2.03,35.56-8.1,29.41-30.37l2.86-4.06c-3.87-0.63-2.99-4.99,0.86-5.25  c0.16-3.17,3.07-4.83,8.73-4.97l62.93-6.62c8.64-0.56,16.6-2.68,23.87-6.36c2.73-5.97,3.39-12.69,1.97-20.16l2.7-2.39  c-2.18-2.55-4.6-4.74-7.26-6.59c-10.65-3.31-21.51-6.2-32.59-8.67l-2.93-3.59c10.72-6.36,53.43,1.82,48.92-19.18  c25.36-1.72,49.73-2.58,75.68-0.98c-5.49,21.07,74.64,20.04,92.44,21.65c50.9,4.59,100.24,11.44,151.29,6.94  c43.7-3.85,86.53-8.19,129.84-0.81c0.04,5.5-1.59,11.36,1.76,15.04C854.47,734.95,1019.06,728.07,1052.73,758.38z" />
<path class="cls-2" d="M1134.63,927.95c14.93,3.55-2.35,10.22-10.5,10.85c-2.66,2.77-8.44,2.78-12.5,2.74  c-18.71-0.17-37.91-0.72-56.7-1.3c-1.27-0.04-2.53-0.44-3.81-0.89c-1.32-0.46-2.57-1.1-3.81-1.79c-2.32-1.13-3.63-3.58-3.96-7.34  c-3.81-5.56-5.71-8.34-5.71-8.34c-2.97-1.51-4.24-3.43-3.8-5.75c-9.32-21.81-31.1-36.39-49.52-51.89  c28.45,7.41,47.92,28.29,66.1,52.5c-8.58-36.65-30.5-65.34-52.37-94.63c34.58,22.76,55.87,58.91,66.44,98.28  c-2.8-38.08-12.29-73.04-21.12-110.35c16.28,25.09,23.78,52.4,30,82.29c8.55-27.44,13.69-53.29,31.75-75.01  c-8.67,33.94-16.97,64.89-20.28,99.35c14.04-31.52,32.6-61.47,63.18-78.19c-20.45,25.19-39.18,50.92-50.91,81.26  c17.3-21.27,33.44-40.07,58.99-47.79c-17.29,14.18-34.34,28.88-45.21,49.62c18.01-7.97,29.67-18.67,47.64-18.21  c-12.51,5.48-24.84,11.7-33.98,23.46C1127.69,928.03,1131.92,928.8,1134.63,927.95z" />
<path class="cls-2" d="M1145.13,1002.03c3.52,6.02-8.69,11.55-13.9,13.66c-22.07,8.93-47.28,9.01-70.53,7.43  c-0.28,1.13-0.95,2.47-1.96,2.42c-10.45-0.43-36.39-2.35-38.07-15.31c-0.42-3.2,0.71-7.61,4.23-8.35  C1056.85,970.3,1116.88,968.08,1145.13,1002.03z" />
<path class="cls-5" d="M808.96,946.85c-3.37-2.3-14.71-2.4-10.66-9.69c15.85-14.89,141.9,12.78,142.65-21.01l-2.73-1.51  c-3.72-10.74-11.67-18.78-23.86-24.11c-29.31-13.28-59.16-25.12-89.54-35.51l-0.05-3.04c-4.73-3.1,1.72-16.94,7.16-15.05  c15.42,24.97,125.36,36.09,120.19,78.08c-2.71,22.02-47.37,24.02-64.78,24.5l-71.75,1.96C811.72,941.56,808.98,943.31,808.96,946.85  z" />
<path class="cls-14" d="M979.51,827.21c2.96,20.09-91.01,20.75-93.24,1.15C884.03,808.55,976.81,808.87,979.51,827.21z" />
<path class="cls-5" d="M994.95,926.96c1.04,0.24,2,0.63,2.89,1.21c0.75,0.48,15.89,4.42,16.74,4.18c3.49-3.85,7.22-3.13,11.2,2.17  c1.99-4.74,5.93-4.69,11.81,0.14c4.71-0.34,7.95,0.63,9.74,2.9c20.31,0.05,40.54-0.32,61.56,1.2c10.64,0.77,20.77-2.72,29.98-7.14  l-4.23-3.67c8.47-2.64,18.97,0.17,27.24,4.6c-12.82,6.33-24.99,4.94-38.4,7.97c2.76,2.58,7.27,2.36,9.83,5.52l-64.6,0.85  c-22.32,0.29-44.18,4.71-65.55-0.12c4.17-4.27,10.2,1.38,12.63-4.81c-13.61-1.88-26.89-2.53-39.13-7.85  C981.32,926.58,989.05,928.45,994.95,926.96z" />
<path class="cls-5" d="M1024.91,1001.88c-0.26,3.44-2.78,6.85-0.93,10.44c4.95,9.61,28.83,9.45,36.72,10.8l49.38,1.27  c16.91,1.85,31.68-1.19,44.31-9.12c2.99,0.77,5.21,3.73,3.17,6.57c-13.36,18.62-77.35,14.99-99.57,13.04  c-17.74-1.55-39.84-3.87-48.11-21.6C1006.86,1006.82,1019.87,1001.78,1024.91,1001.88z" />
<path class="cls-14" d="M1159.43,786.82c-25.25,13.66-61.72,13.09-85.49-1C1099.77,773.38,1134.82,773.2,1159.43,786.82z" />
<path class="cls-3" d="M1033.85,916.12c7.47,3.57,13.58,11.63,13.47,21.44c-5.75-0.01-11.66,1.96-17.3-5.38  c-1.7,3.94-2.83,5.8-6.01,5.02c-1.46-0.36-2.05-3.42-3.43-4.27c-3.72-2.29-4.14,3.22-5.46,2.64c-17.49-7.7-19.08,0.16-20.18-8.6  c8.98-2.27,18.3,0.18,28.4-4c-11.62-13.71-26.93-20.83-41.32-26.27C1003.12,895.83,1017.47,908.29,1033.85,916.12z" />
<path class="cls-1" d="M849.07,802.17c-6.02,11.43-13.05,22.47-17.13,34.75c-3.87,3.96-6.33,9.59-7.16,15.05  c-1.97,2.76-5.68,1.64-8.45,0.36c-18.62-8.58,2.4-39.09,10.64-49.19l3.1-0.07L849.07,802.17z" />
<path class="cls-1" d="M1154.39,1015.27c-0.99,18.81-80.66,10.08-93.69,7.85c16.76-0.34,74.8-2.3,84.43-21.09  C1148.66,1006.27,1153.26,1010.12,1154.39,1015.27z" />
<path class="cls-5" d="M599.94,831.86c13.18,5.2,22.95,19.5,29.34,31.87c-1.97,2.06-4.07,4-6.31,5.83c0.97,4.06-4.46,6.8-7.34,3.83  c-26.76-4.4-54.69-0.86-80.3,9.17l-4.9,0.08c-26.4-15.95-52.77-31.95-79.11-47.99l0-3.13C500.16,823.59,550.56,828.86,599.94,831.86  z" />
<path class="cls-3" d="M187.6,740.86c-4.51,4.02-14.7,6.62-19.03,2.5c-5.14,0.19-10.25,0.36-15.37,0  c-12.87-0.92-38.33-3.97-48.49-11.11c-8.69-6.1-26.23-26.87-33.12-35.43l-0.57-4.57c7.01-4.04,12.01-8.21,22.12-5.8  c21.78,5.21,43.69,10.72,65.44,17.26C176.83,709.21,203.68,732.92,187.6,740.86z" />
<path class="cls-3" d="M440.66,870.47l-1.49,1.4c-0.1,1.19-0.47,1.21-1.08,0.12c-9.35,2.68-18.29,3.34-26.9,5.06l-7.51-1.24  c-20.83-11.46-44.04-14.2-67.42-12.82c-18.9-2.24-21.48-19-6.94-30.02c0.37-1.49,0.99-2.93,2.22-3.92c8.74-7,30.86-5.41,41.51-4.12  c15.78,1.91,61.53,18.59,69.17,32.24C444.74,861.66,447.37,870.62,440.66,870.47z" />
<path class="cls-1" d="M71.02,692.25c51.68,55.84,24.45,37.19,97.55,51.11c-0.46,0.81-0.95,1.58-1.58,2.23  c-3.53,3.68-27.56,4.92-34.36,5.24c-21.82,1.02-43.74-0.34-65.42-2.84c-7.7-0.89-39.36-4.55-42.94-8.54  c-3.41-3.81,5.59-11.32,9.28-12.32C47.43,716.58,56.49,700.62,71.02,692.25z" />
<path class="cls-1" d="M280.13,752.98c-5.76,2.51-15.34-2.75-20.94-5.97c-11.11-6.4-14.45-12.11-1.76-19.17l12.32-3.5  c33.67-4.38,67.37-8.24,101.09-11.57c3.88-1.69,7.04-1.78,9.48-0.28c-0.32,7.05,2.14,16.07-1.59,22.96  C372.21,747.5,298.32,745.76,280.13,752.98z" />
<path class="cls-1" d="M329.32,832.97c-1.97,5.95-8.12,11.32-6.33,18.91c1.33,5.67,10.97,9.03,17.27,8.56  c25.62-1.94,49.66,3.47,70.92,16.61c-37.49,7.5-76.37,5.63-113.75-0.91c-5.1-0.89-14.18-4.29-14.68-9.75  c3-8.52,12.26-16.32,19.73-21.34l1.12-3.86c7.2-3.7,14.62-6.9,22.26-9.61L329.32,832.97z" />
<path class="cls-5" d="M33.55,727.13c-3.15,2.4-5.77,6.75-7.72,11.12c39.37,9.13,104.36,14.94,142.74,5.11  c5.92-1.52,13.01-0.57,19.03-2.5c-3.76,6.68-12.16,9.27-20.31,11.68c-37.84,11.21-76.32,8.3-115.09,1.43  c-15.73-2.79-33.28-1.56-45.3-13.07C12.99,731.04,24.56,730.53,33.55,727.13z" />
<path class="cls-1" d="M245.2,795.44c-0.45,1.03-0.96,2.2-1.96,2.65c-4.33,1.96-28.19-11.16-30.23-15.38  c-4.03-8.37,7.8-12.08,14.6-14.05c14.91-2.22,29.61-5.11,44.1-8.69c2.85-2.24,5.37-2.82,7.56-1.75c-1.26,7.7,3.88,18.44-2.32,25.53  C270.22,791.44,255.6,795.06,245.2,795.44z" />
<path class="cls-2" d="M196.6,630.8l2.64,3.17c-0.3,2.67-0.26,21.46,1.04,20.63c2.72-1.74,10.97-17.62,12.5-21.83l3.09-1.43  c2.13-0.21,4.01-1.95,6.29-1.96l1.58,3.47l-14.4,29.27c2.32-3.42,13.64-15.9,17.17-15.33c2.56,0.41,3.3,1.96,3.56,4.48l-7.92,12.76  l8.86-3.1c5.11-1.27,10.59-2.55,8.71,4.59c-0.49,1.86-30.51,17.25-34,17.89c-7.79,1.42-36.41-2.54-41.42-7.57  c-3.1-3.11-2.19-4.63,0.45-7.93l-12.78-8.64c-0.66-1.03-1.1-1.95-0.82-2.45c4.05-7.17,20.49,3.35,25.01,7.17l-8.86-18.53  c-0.21-2.82,0.36-4.66,3.29-4.61c5.71,0.1,15.61,18.09,17.58,23.49c-0.22-9.7,0.09-19.43,0.59-29.13c0.05-0.99,0.53-1.97,1.04-2.99  c0.53-1.04,1.21-2,1.94-2.94c0.93,0.04,1.95-1.33,3.08-0.92C195.89,628.76,196.45,629.68,196.6,630.8z" />
<path class="cls-14" d="M510.61,630.95c-15.88,9.77-40.06,10.65-55.44,0.05C471.11,621.23,493.27,621.63,510.61,630.95z" />
<path class="cls-1" d="M707.05,653.7l2.94,0.39c3.23,4.72,8.03,8.01,14.41,9.87l0.16,3.04c-13.01,0.56-24.64-0.04-37.47-0.45  C692.8,660.03,699.86,655.81,707.05,653.7z" />
<path class="cls-3" d="M724.55,667c-6.75-3.34-15.52-5.62-17.5-13.3c9.65-3.91,19.8,2.75,23.22,11.56  C728.95,667.17,726.03,666.94,724.55,667z" />
<path class="cls-1" d="M36.41,879.98c0.81-1.8,1.81-1.8,2.82-0.07c-0.05-1.19,0.28-1.2,0.95-0.12c3.36-1.44,4.33-0.51,5.15,2.78  c-3.65,18.25-0.65,12.08,4.67,0.43c6.61-7.9,19.26-3.32,12.25,5.87c-2.75,9.13,4.07,13.59,2.48,0.28  c5.65-3.04,12.21-4.55,19.67-4.55l6.96-2.95c14.86,5,30.48,8.6,45.56,2.34l3.77,1.24c2.22-1.1,3.43-1.52,2.77,1.28  c7.24-1.77,19.21-2.31,23.93,4.22c-0.08,7.02,1.05,8.07,3.38,3.14c-1.66-4.38-1.84-7.67-0.52-9.87c-1.18-0.39-1.17-0.87-0.04-1.44  c0.04-0.7,0.13-1.37,0.45-1.91c3.32-5.73,14.62,7.43,16.48,10.96c-2.21-4.26-2.49-7.6-0.85-10.02c1.98-2.39,5.02-1.74,9.13,1.95  c1.99-3.49,3.51-3.48,5.43,0.05c4.29,6.38,14.03,4.46,14.42,12.19c1.55,30.59-137.97,40.42-193.12,12.09  c-6.43-3.3-10.39-10.45-6.58-16.16c3.78-5.68,7.6-6.59,15.51-2.8c0.85-4.42,0.81-6.2,1.54-7.96  C33.13,879.71,35.22,879.95,36.41,879.98z" />
<path class="cls-8" d="M157.84,853.18c9.27,5.68,1.2,16.74-4.3,22.65c-3.25,3.5-8.43,8.84-12.86,9.42  c-15.99,7.79-33.69,5.08-49.14-1.13c-7.7,6.07-17.69,2.39-24.76,6.21c-0.12,2.31,1.24,5.71,0.7,7.48c-0.56,1.85-4.64,2.75-6.2,1.83  c-0.4-0.23-6.16-7.74,0.92-15.22c1.8-1.9-4.2-2.48-6.01-2.92c-2.27-0.55-4.03,2.91-5.15,5.39l-3.57,7.86  c-0.88,1.94-7.43,3.47-7.28,0.27c0.3-6.27,5.72-11.87-0.01-15.22c-0.19-0.73-0.31-1.43-0.14-2.06c0.81-3.06,2.71,0.61-0.81,2.18  c-0.84,0.49-2.42,1.47-2.82,0.07c0.84-2.1-0.96-6.27,0.89-7.83c8.9-7.54,18.79-1.53,30.25-3.54c-10.34-5.21-20.74-7.56-27.93-17.15  c12.06-3.6,23.72,1.65,31.58,11.34C77.97,834.52,133.32,833.1,157.84,853.18z" />
<path class="cls-10" d="M53.23,972.4c2.9,3.63,6.59,6.87,10.75,6.81c1.16,3.38,2.67,3.91,5.49,4.2c0.97,1.75,2.23,4.05,0.9,5.23  c-1.21,1.07-3.01,0.2-4.89-0.14l-17.95-3.22c-4.28-0.77-7.6-2.16-8.74-7.24c-0.65-2.89,0.17-7.24,4.59-7.95  C46.14,969.63,49.53,972.75,53.23,972.4z" />
<path class="cls-10" d="M69.47,983.4c-1.42-1.46-1.69-4.25-5.49-4.2c-1.42-4.12-6.83-6.16-10.75-6.81c-2.4-3.9-6.94-5.14-7.62-7.99  c-1.22-5.16,0.64-9.18,5.18-10.12c4.58-0.95,7.48,2.2,10.75,6.21c0.17-4.26-2.64-8.1,0.31-10.25c2.23-1.63,8.7-4.16,11.73-1.14  c8.36,8.3,9.11,21.69,13,32.7c2.49-11.97-7.58-21.57-6.02-33.59c0.65-5,13.48-3.98,14.66,0.67c2.87,11.34-2,21.98-1.12,32.91  c4.76-10.28,2.63-21.44,6.08-31.36c2.11-3.34,12.1-0.19,13.23,3.7c1.48,5.1-2.7,9.77-5.53,15.62c4.51,0.44,5.69-3.43,7.76-4.63  c2.35-1.36,7.61-1.25,7.92,2.65c0.98,12.35-24.19,11.88-17.97,22.02c-12.23,2.64-25.26,2.78-37.23,2.57  c1.46-2.35,3.27-1.64,4.86-2.1c2.23-0.65,1.77-1.82,0.2-3.78C72.69,985.56,71.27,984.81,69.47,983.4z" />
<path class="cls-8" d="M64.07,827.15l17.47-5.54C79.7,839.44,51.62,854,37.05,845.07c-3.1-18.51,20.94-32.34,36.83-30.49  L64.07,827.15z" />
<path class="cls-8" d="M141.5,821.96c7.36-2.45,10.55,6.64,18.36,5.63c-2.41-6.63-9.54-7.18-14.79-13.29  c18.98-2.55,41.24,8.44,46.22,28.55C173.57,851.46,149.93,839.11,141.5,821.96z" />
<path class="cls-8" d="M175.44,866.7c10.72-0.52,26.55,5.73,25.4,16.91c-1.81-0.12-3.62-0.15-5.43-0.05  c-5.81-4.28-11.93-6.91-18.38-7.9c-6.83,0.68-13.53,0.51-20.08-0.53l-0.21-1.98c-0.33-3.86,4.49-7.58,8.3-5.57l9.41-2.21  L175.44,866.7z" />
<path class="cls-8" d="M175.43,863.58c-1.17,3.12-14.1,5.6-14.94,3.07c-0.2-0.6,1.64-12.65,4.29-10.18c7.23-6.57,15.2-9.79,24.66-7.9  C186.18,856.21,180.39,859.27,175.43,863.58z" />
<path class="cls-3" d="M164.78,856.47c-1.3,1.19-0.87,5.25-1.79,6.84c-1.5,2.61,1.09,3.84,3.7,3.19c2.83-0.7,5.11-1.64,8.74-2.92  l0.01,3.12c-6.37,0.31-14.36,2.35-18.71,6.44c1.85,2.77,1.58,3.38-1.67,4.07l-0.14,2.19l13.33,0.81l1.96,2.36l0.04,1.44l-1.29,2.78  c-8.55-1.32-17.06-1.41-25.5-0.27l-2.77-1.28c0.02-0.01,27.69-21.72,17.16-32.07C159.76,854.75,162.63,855.33,164.78,856.47z" />
<path class="cls-14" d="M429.74,1453.88c2.43,23.48-99.99,24.48-101.64,1.21C326.42,1431.59,427.44,1431.7,429.74,1453.88z" />
<path class="cls-4" d="M370.51,1501.03c-13.4,17.15-47.05,16.65-60.87,0.33C323.87,1485.8,353.93,1486.92,370.51,1501.03z" />
<path class="cls-16" d="M424.21,508.77c0.15-2.34,1.25-4.42,2.77-6.18c5.76,0.16,12.58-2.07,18.55,2.42  C441.38,512.73,429.71,514.12,424.21,508.77z" />
<path class="cls-11" d="M830.06,803.07c-7.29,13.69-26.64,34.38-15.64,44.98c2.86,2.76,7.27,2.54,10.36,3.92  c20.33,11.14,116.86,33.13,116.18,64.18c-11.24,6.04-23.58,6.82-37.05,5.48l-98.54-9.79c-21.53-2.14-33.97,9.91-38.13,30.04  c-3.42,16.54-14.44,93.75-35.98,85.21c-2.45,0.56-5.42-1.69-7.27-3.51c-5.72-5.62-14.85-32.41-17.56-41.36l1.24-3.35  c-5.65-10.88-9.62-22.42-11.91-34.61c-8.58-26.6-18.44-26.26-44.94-20.92c-28.07,6.6-56.22,12.73-84.45,18.39  c-9.76,2.48-19.1,2.41-28.02-0.22c-3.93,2.31-12.3-1.4-10.74-6.55c0.25-2.11-0.96-4.91-0.41-7.12c7.6-12.24,20.47-19.92,33.71-26.65  l54.75-27.8c2.61-1.33,4.91-2.32,7.34-3.83c2.18-1.6,3.64-3.36,4.39-5.27c17.43-6.59,23.47-15.25,5.77-28.72l0.53-3.49  c-10.17-13.4-44.16-47.21-34.97-57.39c17.62-19.49,108.06,51.22,140.02,32.66l77.15-44.81c10.78-6.26,23.24-11.41,34.38-3.4  C845.98,775.49,837.38,789.31,830.06,803.07z" />
<path class="cls-5" d="M146.54,1292.81c7.51,24.79-99.49,23.19-72.85-2.22C94.06,1271.16,138.61,1266.64,146.54,1292.81z" />
<path class="cls-5" d="M61.95,1258.7c-10.74,9.55-31.31,9.8-40.63-0.85C32.77,1250.25,50.98,1249.01,61.95,1258.7z" />
<path class="cls-10" d="M992.34,693.78c2.2,4.55,5.5,6.75,9.89,6.62l2.41,2.71l11-0.83c4.4-0.19,7.41,0.95,9.04,3.41  c9.98,1.7,20.22,1.86,30.72,0.46c30.58,5.69,60.73,13.88,90.45,24.59c0,0,1.05,1.46,3.16,4.38c-27.3,2.59-54.49,4.94-82.91,5.71  c-32.05-38.65-153.71-31.45-215.9-42.82c-6.82-1.25-15.09-3.74-15.97-10.57c7.37-6.5,18.27-3.89,23.95-10.53l1.46-2.42l71.99,15.51  c18.85,1.11,37.73,1.4,56.66,0.87L992.34,693.78z" />
<path class="cls-3" d="M1111.02,698.45c4.63-0.28,6.65,4.32,11.6,6.02c-3.93-9.29-11.62-14.22-19.33-19.9  c9.83,0.6,15.2,8.1,23.91,13.54c-1.76-9.78-9.17-16.23-13.19-25.86c9.71,5.07,14.09,14.25,18.47,24.81  c3.7-10.34,3.6-20.73,5.89-31.29c3.78,9.88,2.79,19.84,2.68,31.02c6.52-7.78,12.48-15.25,21.29-18.48  c-6.04,10.36-15.02,15.7-18.67,26.68c7.64-4.25,11.29-10.63,19.16-9.37C1151.01,710,1115.02,714.76,1111.02,698.45z" />
<path class="cls-3" d="M1041.98,680.45c18.46,17.75-25.25,21.97-37.33,22.66c-3.4-0.07-6.52,0.18-9.73-1.79  c-2.65-1.62-3.44-4.22-2.57-7.53c-0.2-1.34-0.24-2.79,0.5-3.98c4.93-7.94,38.4-16.81,46.66-12.52  C1040.75,677.93,1041.46,679.19,1041.98,680.45z" />
<path class="cls-1" d="M1024.68,705.68c-6.42,0.67-13.66-2.44-20.04-2.57c11.89-4.44,25.2-5.2,37.38-10.91  c4.04-1.9,0.59-8.82-0.05-11.75c3.55-4.83,12.9,2.93,16.33,6.37c2.71,2.73,10.65,13.36,6.96,16.64  C1060.57,707.64,1032.13,707.98,1024.68,705.68z" />
<path class="cls-10" d="M104.55,1388.13c-0.59,17.82-75.62,17.1-75.09,0.09C30.02,1370.66,105.08,1372.1,104.55,1388.13z" />
<path class="cls-3" d="M203.57,451.4l-104.92,0.4c3.18-10.52,11.82-8.92,18.06-13.27c13.47-9.39,33.24-10.09,47.96-4.35  c2.91,2.66,6.08,7.34,11.89,7.6c7.87-11.7,20.72-12.45,33.68-14.82c29.41-5.39,59.65-8.6,87.83,1.94c2.27,0.85,4.8,3.01,5.12,4.62  c0.43,2.14-2.2,4.05-4.84,4.22C266.34,439.89,232.82,440.16,203.57,451.4z" />
<path class="cls-10" d="M215.87,631.33c-2.32,12.04-12.9,20.48-17.45,33.29c-2.65-12.13-1.9-22.83-1.82-33.82  C203.02,631.08,209.45,631.97,215.87,631.33z" />
<path class="cls-2" d="M687.18,1217.51l-1.71,2.68c-10.3,0.42-20.78,1.09-30.8,3.69c-8.71,2.25-14.72,4.29-18.19,13.09  c-45.87,13.11-93.48,17.85-142.18,14.25c-19.58,18.45-42.8,29.27-68.77,37.29c-67.94,21.4-201.21,13.6-247.69-44.88  c-14.58-18.35-16.31-42.37-3.78-60.99l3.01,1.24l0.25,13.39c1.22,5.95,5.72,10.59,13.51,13.92c0.34,8.56,3.25,14.7,8.72,18.42  c10.22-0.34,17.85,5.06,22.88,16.19c6.57,4.39,14.49,5.09,23.74,2.09c7.41,8.53,21.79,20.97,32.31,10.72l3.06,0.31l0.84,0.25  l2.92-0.37c7.09,7.43,20.88,13.65,28.46,3.72l2.91,0.28c0.14-3.3,1.26-3.29,3.36,0.04l3-1.21c10.6,8.21,20.51,13.94,31.06,2.25  c2.84-5.4,5.92-7.04,9.22-4.92c7.54,7.55,18.18,9.38,25.05-0.17l3.01-1.03c1.88-3.39,2.97-2.53,3.84,1.12l3.09-1.89  c3.38,1.65,6.73,2.15,10.07,1.49c2.92-2.27,5.68-4.73,8.27-7.38c-0.01-3.83,2.97-3.73,3.94-0.09l2.56-1.87  c9.8,3.77,16.62,1.88,20.93-8.31c4.28-3.5,10.2-5,17.75-4.49c3.23-4.3,6.46-8.37,9.71-12.22c-0.35-2.52,0.73-3.08,2.6-1.35  l2.42-2.17c6.18-0.04,9.51-4.5,9.98-13.38l2.55-1.83c-0.63-1.42-0.32-1.79,1.14-1.18c2.24-2.43,7.5-7.54,10.83-5.75  c3.18-6.5,6.96-12.65,11.34-18.45l3.62-0.46c0.71-2.53,1.78-2.46,2.15,0.14l1.78,0.12c2.49,20.42,16.62,44.27,31.91,15.21  l6.28-15.39c1.93-2.12,3.71-1.12,5.72,0.74c3.98,23.32,29.23,44.18,35.89,9.95l1.06-15.25c0.6-3.05,2.96-3.87,5.64-2.37  c18.7,28.48,45.95,42.64,36.17-5.94l1.86-3.11c0.01-1.2,0.33-1.14,0.94,0.01l3.2-1.14c5.83,7.75,39.63,29.79,34.91,5.2l-4.54-16.03  c-0.55-2.65,1.89-4.88,4.51-4.49c9.67,5.54,33.1,18.33,27.15-4.32c-7.06-11.95-5.08-16.25,5.94-12.88l4.37,0.11  c3.4-1.7,6.46-2.54,9.19-2.53c13.95,15.08,14.65,36.44,2.78,54.14C721.51,1198.72,704.36,1207.73,687.18,1217.51z" />
<path class="cls-8" d="M541.99,996.05c2.64,2.04,3.82,5.58,3.54,10.62c12.17,3.67,18.93,1.12,20.29-7.67  c7.85-6.69,7.99,2.2,5.41,8.81l18.16,2.55c0.74-4.01,6.17-14.96,11.88-11.31c1.17,0.54,2.51,1.79,2.03,2.7  c-1.82,3.48-4,6.52-6.27,9.57c16.87,3.49,32.79,9.33,47.76,17.51c1.57-1.81,12.74-9.96,14.2-8.46c3.74,3.84,4.02,4.81,0.08,7.83  l-7.91,4.44c15.64,10.76,28.14,27.4,22.71,47.17c9.55,1.62,41.41,11.83,43.76,21.21c0.86,3.4-1.32,3.84-4.7,3.36  c-13.64-8.47-27.91-14.05-42.81-16.73c-2.1,2.16-3.74,4.72-4.93,7.67l-3.32,0.37c0.94,0.99,0.42,1.43-1.55,1.31  c-1.03,3.87-4.01,7.28-8.95,10.22c7.74,6.64,31.51,29.2,29.81,39.52c-0.63,3.82-2.82,2.88-5.72,0.41  c-8.37-13.9-18.92-25.33-31.66-34.27l-19.71,9.2c8.7,8.21,22.14,25.55,23.05,37.65l-1.75,3.91l-0.94-0.01l-3.7-1.43  c-6.45-14.18-13.83-27.44-26.17-37.31c-26.49,9.48-55.99,10.72-83.68,6.95c-3.79,10.55-6.63,21.32-8.53,32.34  c0.16,6.19-1.25,11.35-4.23,15.48l-2.15-0.14c-0.64-0.92-1.22-1.87-1.63-2.89c-0.39-0.97-0.73-1.92-0.69-2.85  c0.64-14.16,4.62-29.22,9.59-42.42c-8.87-1.03-16.68-3.52-23.44-7.47c-10-2.58-20.17-3.79-30.51-3.64  c-4.81,1.64-8.95,1.94-12.42,0.89c-2.78,0.88-3.54-0.2-1.76-2.51c-2.06-3.08-4.16-6.17-6.32-9.26l-5.3-1.17  c-54.42-43.8-136.47-40.03-195.62-7.54l-5.4,0.12l-4.75,1.84c-8.5-4.69-17.39-7.04-26.67-7.06l-1.22-1.64  c0.36-10.94,12.26-14.13,22.66-15.74c5.95-10.28,7.83-18.1,26.98-13.78c4.51-15.09,22.51-7.93,30.32-12.21  c11.2-6.13,16.99-6.61,30.73-6.37c8.64,0.15,20.94-8.96,28.86,5.04c8.63-8.14,19-5.21,28.33-4.64c8.89,0.54,17.82-3.09,26.71,1.44  c2.17,2.33,3.26,3.49,3.26,3.49c8.71-2.42,16.59-1.8,23.65,1.86c5.65,7.64,9.25,6.35,10.82-3.87c-26.13-4.39-11.79-14.72,5.61-6.29  c16.7-16.5,37.2-27.22,61.5-32.17c-3.39-5.22-3.61-8.68-0.65-10.38l1.46-0.03c3.09,1.15,5.28,4.22,6.56,9.21  c6.9,0.17,13.73-0.65,20.47-2.46c-0.77-5.48,0.09-9.07,2.56-10.76L541.99,996.05z" />
<path class="cls-8" d="M604.19,996.26c2.42,3.14,0.25,5.26-2.92,2.81c-2.73-2.51-2.06-3.56,1.58-2.93L604.19,996.26z" />
<path class="cls-14" d="M602.85,996.14c-0.23,0.98-1.39,1.79-1.58,2.93c-5.48,1.79-7.49,8.24-10.99,13.55  c-7.35-0.32-14.88-1.47-21.83-2.68c-0.25-4.9,2.66-8.38,1.62-12.22c-3.52,3.71-3.62,8.32-5.16,10.55  c-2.17,3.13-21.95,2.33-22.13-0.33c-0.27-4.07-0.88-8.18-0.79-11.88c0.22-9.21,7.01-21.66,17.71-20.58  c9.41,0.95,10.7,12.82,11.65,21.33c6.08-8.34,22.21-24.07,30.5-12.51C604.14,987.49,603.8,992.06,602.85,996.14z" />
<path class="cls-14" d="M730.12,1127.58c-4.67,7.3-13.54,5.51-22.14,3.48c4.46,8.98,11.53,20.76,2.2,25.99  c-9.72,5.45-18.87-4.44-29.14-7.9l4.91,17.29c1.29,4.56,0.22,9.8-2.95,12.75c-11.38,10.56-29.55-11.08-37.59-15.53  c-4.03-16.54-12.26-31.81-26.91-41.9l25.26-11.8c16.42,8.7,24.54,23.34,35.82,38.24c-5.49-17.1-18.41-29.9-33.08-40.33  c5.07-4.23,9.08-8.13,13.83-10.85c2.87-0.14,3.38-0.58,1.55-1.31c2-2.94,3.92-9.37,7.83-10.62c17.72,0.26,30.93,11.54,46.87,17.93  c-11.74-13.19-28.74-16.89-46.37-21.35c7.62-19.86-5.03-36.45-22.73-48.3c2.6-6.15,9.86-5.06,13.38-10.46  c-6.64,0.2-10.19,5.12-15.66,8.98c-16.3-9.57-33.91-14.47-52.21-18.52c2.63-6.4,7.43-9.12,8.3-14.3c1.43-0.47,1.98-2.07,2.92-2.81  c6.76-3.27,12.72-7.87,21.03-6.28c4.65,0.89,8.29,3.33,8.89,7.5c0.56,3.88-0.82,7.47-3.4,11.09c9.37-3.51,31.85-11.49,34.72,1.91  c0.97,4.52-2.86,7.85-5.92,13.37c11.6-1,21.6-3.49,30.52,3.07c3.31,2.43,4.49,5.67,2.84,9.59c-0.98,2.33-3.4,4.22-6.1,6.88  c12.46,0.4,39.64,6.65,34.33,21.36c-1.25,3.45-5.45,4.86-10.4,7.17c9.49,3.43,29.74,18.94,20.64,28.34  c-3.62,3.74-8.43,2.48-14.69,4.42C725.12,1111,729.07,1119.32,730.12,1127.58z" />
<path class="cls-8" d="M214.29,1158.35c5.39,2.76,7.74,9.62,5.13,15c-0.92,1.94-0.35,3.21,1.71,3.8l3.57,0.79  c6.49,8.41,14.78,14.99,24.86,19.73l1.03,3.69c-0.2,1.96,0.66,2.37,2.46,1.36c5.74-2.18,19.97,1.89,25.19,5.16  c1.53,0.96,2.43,2.57,3.12,4.19l0.51,1.5c-6.44,14.51-9.07,31.18-0.36,45.34c-8.14,12.85-28.04,3.71-36.15-8.81  c-8.76,2.34-15.39,3.98-22.91-0.77c-4.49-2.83-6.95-11.03-11.89-15.02c-4.43-3.57-12.77,0.61-16.62-5.32  c-2.82-4.35-5.05-9.56-5.26-16.54c-4.71-3.26-11.18-4.62-13.21-10.75c-2.16-6.55,0.33-12.54-1.43-19.08  c-0.19-0.72,0.51-1.71,0.24-2.46c3.46-8.91,29.62-25.47,38.53-23.54C213.41,1156.76,213.87,1157.47,214.29,1158.35z" />
<path class="cls-9" d="M637.9,1301.45c-44.49,14.51-96.45,13.77-140.17-1c-6-2.03-10.72-7.42-11.36-11.61  c-0.71-4.69,4.17-11.32,10.51-13.39c44.49-14.51,96.55-14.62,140.95,0.49c5.89,2,10.77,7.86,11.33,11.99  C649.82,1292.62,644.87,1299.18,637.9,1301.45z" />
<path class="cls-1" d="M784.52,1134.8c3.77,0.42,3.92,2.09,0.49,3.59c1.17,2.95,0.54,6.62-1.87,11c3.45-9.63,9.32-12.83,18.72-8.59  c0.08,4.36,1.31,5.99,3.7,4.9c2.5-3.1,6.28-5.42,7.38-0.62c1.73,0.7,3.21,0.27,4.44-1.27l3.57,1.1l3.44-1.16  c11.24,5.56,24.9,6.71,36.1,0.55l3.35,1.03c3.32-1.65,5.19-1.39,5.61,0.78c2.1-3.1,14.7-1.12,17.53,0.57  c1.77,13.08,6.63,12.96,0.82-0.08l1.52-2.82c-2.5-0.8-2.34-1.87,0.28-2.31c5.48-7.46,13,3.01,15.96,8.97  c-5.83-10.69-4.81-15.54,3.04-14.54c6.29,2.34,10.09,7.63,11.4,15.88c-0.49,3.27,2.66,4.03,3.33,5.48  c5.08,10.99-35.64,21.35-44.49,17.02l-1.28-7.16c-0.48-2.67-40,0.52-60.57-2.47c-2.28-0.33-6.55,0.22-6.95,2.35  c-0.37,1.97,1.16,4.35,2.98,7.32c-13.24,5.39-50.49-1.5-51.67-18.21c-0.23-3.29,3.07-8.53,5.81-11.01  c9.22-7.82,13.84-11.73,13.84-11.73L784.52,1134.8z" />
<path class="cls-2" d="M538.34,941.5l20.52,4.64c30.84,2.5,61.65,1.73,92.43-2.3c25.52,0.51,47.54,9.25,56.37,35.03  c9.02,15.76,8.69,36.33,23.6,48.22c0.74,0.59,0.79,2.04,1.47,2.71c-40.15-11.63-30.36-58.36-101.31-65.13  c-17.45-1.67-118.86-4.57-103.82-29.7C529.97,938.7,535.4,938.83,538.34,941.5z" />
<path class="cls-9" d="M1024.79,1162.85c-13.82-2.37-81.89-16.21-79.87-31.67c0.45-3.48,4.97-6.65,9.65-7.44  c36.71-6.22,76.04,2.21,109.15,19.07c3.31,1.68,5.25,6.2,5.51,8.58C1070.65,1164.07,1036.72,1164.89,1024.79,1162.85z" />
<path class="cls-14" d="M508.64,1000.33c0.11,4.01,2.97,8.56,4.7,12.91c-24.79,5.8-48.31,13.29-64.44,31.87  c-7.56-0.19-12.8-4.96-20.05-2l16.95,4.19c-1.36,5.62-3.9,10.89-8.05,17.37c-14.15-25.92-33.83-0.16-33.29-16.99  c4.73-2.52,9.83-2.84,16.38-4.87c-4.8-2.68-7.49-6.82-6.79-12.11c1.73-13.1,22.6-9.82,32.57-9.75c-1.92-6.74-4.18-14.43,2.28-17.53  c8.59-4.12,18.59-0.08,26.81,3.4c-1.14-6.65-3.67-11.74,0.02-15.99C484.27,981.01,501.81,994.08,508.64,1000.33z" />
<path class="cls-10" d="M879.94,1118.07c2.4,1.45,3.17,4.75,2.3,9.9c-3.29,2.75-4.74,5.1-4.35,7.04l-6.07,4.68  c0.53,0.66,0.93,1.2,0.82,1.33c-0.6,0.73-7.15,4.74-8.81,4.31c-11.61,8.19-29.84,7.32-42.89-0.42c-4.78,0.95-6.49-0.06-5.15-3.02  c-4.15-2.38-6.62-4.86-7.41-7.45c-3.28-2.77-4.45-9.59-4.81-14.09c-0.02-0.3,0.47-0.65,1.11-1.01  C822.66,1099.68,861.91,1098.32,879.94,1118.07z" />
<path class="cls-10" d="M920.01,1151.79c-8.84-4.33-1.75-9.38-9.03-11.9c-2.52-0.87-5.67-3.93-7.6,0.93c4.9,4.51,7.16,11.98,2.97,15.9  c-6.13-8.89-7.93-17.02-16.75-15.24c-2.96,2.5-13.03,0.77-17.43-0.35c-0.22-0.06-0.31-0.67-0.35-1.44  c3.42-3.98,6.93-7.67,10.54-11.06c0.57,0.48,1.09,0.83,1.47,0.71c2.14-0.66,15.46-4.72,16.2-4.33c0.58,0.3,1.05,0.82,1.49,1.38  C911.6,1129.95,924.85,1142.15,920.01,1151.79z" />
<path class="cls-9" d="M687.18,1217.51c3.51,0.09,43.21,5.04,40.87,16.29c-3.63,17.47-75.54,16.91-91.59,3.17  C630,1219.56,680.14,1217.34,687.18,1217.51z" />
<path class="cls-9" d="M860.15,1046.55c-16,7.77-100.59,7.51-101.82-6.61C756.87,1023.21,890.02,1027.35,860.15,1046.55z" />
<path class="cls-12" d="M87.57,1166.72c0.18,17.14,40.14,19.67,31.08,32.61c-18.08,2.18-47.38-6.79-52.85-27.11  c-5.44-20.22,21.65-38.68,38.87-34.94C103.51,1150.41,87.44,1154.18,87.57,1166.72z" />
<path class="cls-8" d="M206.38,1097.42c5.3-4.44,24.14-0.05,28.35,4.31c2.08,2.16,2.2,3.38-0.09,5.5c-1.25,4.69-4.1,9.13-8.54,13.31  l-6.75,11.75l-3.83,2.18l-3.15,2.94c-11.36,0.55-22.41,3.46-33.16,8.72l-2.2-1.12c-2.85-5.82-2.72-11.82-0.62-18.2  c1.8-5.46,8.31-7.07,13.65-10.43C190.49,1107.73,196.55,1097.68,206.38,1097.42z" />
<path class="cls-9" d="M428.06,989.01c-0.48,15.76-80.8,15.85-81.2-0.05C346.46,973.17,428.52,973.69,428.06,989.01z" />
<path class="cls-9" d="M472.49,953.22c4.79,15.49-68.88,16.15-69.54,1.02C402.36,941.04,468.49,940.28,472.49,953.22z" />
<path class="cls-9" d="M509.07,1326.81c5.36,15.26-68.83,16.28-68.88,1.05C440.14,1314.48,504.49,1313.77,509.07,1326.81z" />
<path class="cls-11" d="M802.12,1119.61c3.64,3.77,6.48,15.28-2.37,9.41c-0.31,6.12-15.3,2.52-12.6-3l-11.4-16.25  c-0.7-18.1,17.26-30.9,34.56-29.53c-1.19,3.25-3.35,4.23-4.35,5.33c-1.93,2.13-0.28,4.2,2.27,3.49c1.64-0.46,3.55-2.95,7.07-2.74  c-0.13,10.97-10.65,19-21.35,24.23C794.83,1115.11,800.97,1115.9,802.12,1119.61z" />
<path class="cls-11" d="M901.07,1121.2c2.06,4.63-18.09,8.87-19.08,8.35c-0.52-0.27-0.83-0.86-0.97-1.57  c-0.08-0.44,1.08-8.39,1.24-8.81c0.15-0.39,0.92-0.54,1.87-0.62c3.84-1.23,6.55-4.81,8.97-7.71c-10.97-4.71-22-11.02-24.5-23.1  c5.32,0.46,9.3,5.83,12.71,1.8l-9.45-9.31c14.75-1.7,31.07,5.72,36.17,20.32C910.39,1107.32,905.93,1116.58,901.07,1121.2z" />
<path class="cls-9" d="M166.89,1112.73c4.08,14.01-38.4,33.8-46.68,21.01c-1.35-2.08-1.54-6.38,0.23-8.83  C136.09,1103.17,164.49,1104.47,166.89,1112.73z" />
<path class="cls-9" d="M925.22,1183.59l3.09-1.57c5.07,1.92,10.53,2.38,15.91,2.04c12.34-0.78,25.8-5.29,4.89-4.48l-1.25-2.76  c-0.95-5.53,50.38-2.34,48.1,8.85C992.64,1201.99,912.89,1196.34,925.22,1183.59z" />
<path class="cls-8" d="M214.16,1142.44c3.65,1.44,3.68,10.87-0.43,11.8c-2.64,2.46-6.44,4.05-11.39,4.78l-10.58,5.08  c-6.53,4.79-12.87,9.6-19.01,14.43c-1.74-9.7-4.56-21.83,2.68-29.04c6.36-4.84,19.08-10.31,27.23-11.45  C209.72,1136.13,213.55,1137.6,214.16,1142.44z" />
<path class="cls-14" d="M539.7,996.29c-0.69,4.54,2.03,10.21-1.07,13.1c-0.23,0.22-22.33,5.35-24.05,1.6  c-1.18-2.59-3.94-7.21-4.49-10.69c-1.32-8.39-1.63-20.53,7.53-21.49C528.29,977.69,534.69,988.68,539.7,996.29z" />
<path class="cls-9" d="M940.76,1071.14c4.17,13.44-34.97,11.26-42.82-5.18C906.14,1056.7,936.97,1058.92,940.76,1071.14z" />
<path class="cls-12" d="M217.21,1067.44c13.72,0.57-48.74,24.91-52.92,18.72C173.62,1079.14,208.26,1067.07,217.21,1067.44z" />
<path class="cls-12" d="M947.86,1176.81c6.12,0.54,12.62-1.09,19.86,3.45c-12.44,6.5-30.41,9.22-42.5,3.33  C929.16,1176.39,939.8,1176.1,947.86,1176.81z" />
<path class="cls-10" d="M799.74,1129.03c2.75-1.39,9.98,4.36,9.3,7.01c-0.15,0.59-0.67,1.05-1.34,1.32  c-14.92-0.55-22.37-0.82-22.37-0.82l-0.81-1.74c-6.59,1.77-9.85,10.32-17.35,10.29c1.79-9.7,11.78-14.23,19.97-19.07  C789.11,1128.83,797.54,1130.41,799.74,1129.03z" />
<path class="cls-2" d="M780.86,985.91c-6.05,15.94-12.24,35.37-28.16,40.14C763.71,1013.55,768.13,995.74,780.86,985.91z" />
<path class="cls-12" d="M310.5,1018.46c-5.2,9.88-20.38,11.19-27.38,3.79C289.66,1014.75,301.95,1012.97,310.5,1018.46z" />
<path class="cls-4" d="M884.13,1118.55l-1.09,9.45c5.89-1.74,13.61-2.6,18.03-6.8c0.26,1.72,0.42,3.46,0.46,5.21  c-7.4,2.58-15.47,2.65-23.48,7.11c5.68,2.29,10.86-0.36,15.52,3.34c-8.31,0.08-15.9-1.28-21.74,2.84  c2.92-6.52,12.49-14.57,8.12-21.63C881.24,1117.99,882.88,1118.91,884.13,1118.55z" />
<path class="cls-4" d="M871.83,1139.7c4.73,1.23,12.47,2.86,17.78,1.78l-0.28,2.31c0.24,1.13,0.02,2.09-0.79,2.85  c-7.77-2.55-14.13-2.73-19.08-0.52c-1.89-0.11-3.76-0.44-5.61-0.78L871.83,1139.7z" />
<path class="cls-5" d="M213.74,1154.24c3.63,0.18,3.7,2.56,0.56,4.11c-16.53,0.44-27.96,11.4-40,21.82c-0.35-0.56-1.37-1.01-1.55-1.64  C183.1,1165.21,197.22,1157.63,213.74,1154.24z" />
<path class="cls-5" d="M214.16,1142.44c-11.98-8.64-25.29,3.89-38.74,7.04c1.04-1.03,0.86-3.23,1.59-4.45  c12.82-4.49,24.6-9.79,38.5-10.55C218.57,1136.71,218.35,1142.17,214.16,1142.44z" />
<path class="cls-5" d="M209.86,1093.94c11.88-1.47,21.4,5.47,32.64,6.86c1.83,3.83-4.63,9.04-7.86,6.43  c-3.11-10.36-17.71-10.08-28.25-9.81C206.65,1095.61,208.11,1094.34,209.86,1093.94z" />
<path class="cls-4" d="M804.68,1119.35c0.6,9.07,7.49,20.37,16.26,25.57c-1.22,0.86-2.97,0.72-3.75,1.46  c-2.23,2.11-3.74,1.15-4.25-1.3l-0.41-2.23c-8.48-3.24-16.9-4.09-25.28-2.56l-2.25-1.91l-0.49-3.59l23.09,1.01l-7.87-6.78  c2.33,0.12,5.5,0.73,4.36-2.96l-1.99-6.45L804.68,1119.35z" />
<path class="cls-11" d="M788.91,1400.35l-10.39-13.18c8.69-4.34,17.37-2.42,26.73-4.22c-10.92-6.61-23.63-4.45-36.39-6.96  c-5.09-1-5.18-10.12-4.66-14.35c19.23,1.45,36.88,5.18,53.85,10.13c-0.58,3.36,7.19,11.07,3.48,11.24c-3.71,0.17-5.96-0.93-9.84,1.6  c11.86-0.16,19.47,4.87,27.39,14.67L788.91,1400.35z" />
<path class="cls-11" d="M1051.55,1403.37c-20.52-2.81-38.65-8.12-59.96-7.66c-3.85-15.03,53.32-10.13,62.06-8.98  C1053.72,1391.83,1054.41,1397.82,1051.55,1403.37z" />
<path class="cls-11" d="M812.52,1366.53c-20.21-5.42-39.73-8.07-60.52-10.67l3.05-17.32c19.67,4.23,36.79,11.73,54.86,18.28  C810.91,1359.97,813.43,1360.75,812.52,1366.53z" />
<path class="cls-11" d="M1031.76,1418.94l-56.48-12.25c10.57-16.71,42.89-3.88,62.49-1  C1038.78,1409.45,1035.89,1417.09,1031.76,1418.94z" />
<path class="cls-11" d="M1005.6,1432.93c3.29-0.06,4.13-1.74,4.32-3.71c2.65-0.03,3.99-1.65,6.78-0.67  c3.95,8.57,1.22,27.68-8.87,30.65c-7.56,2.22-11.51-7.97-10.38-12.74C998.69,1441.21,1002.07,1437.68,1005.6,1432.93z" />
<path class="cls-11" d="M1009.92,1429.22c-2.21,0.02-4.2,1.42-4.32,3.71c-17.29,0.52-32.78-11.9-52.24-14.49  c5.7-3.74,11.34-6.75,17.04-8.52c14.63,0.96,29.14,4.99,41.41,13.2C1012.41,1425.44,1010.18,1426.61,1009.92,1429.22z" />
<path class="cls-11" d="M740.37,1404.21c-2.38,2.39-12.43-1.17-11.79-4.44c3.33-17.06,17.24-29.71,32.33-38.4  C769.36,1373.71,749.78,1394.78,740.37,1404.21z" />
<path class="cls-11" d="M1087.87,1468.51c-3.78-13.95-13.26-30.14-1.53-37.2c13.19-7.94-6.73-0.13-5.95,0.48  c-13.85-10.89-31.22-26.64-22.8-44.54C1084.36,1402.98,1103.56,1441.18,1087.87,1468.51z" />
<path class="cls-11" d="M1059.42,1452.74c-0.8,3.55-9.79,3.24-11.87,1.1c-1-1.03-21.11-35.65-4.73-45.37  C1052.98,1419.8,1061.31,1436.34,1059.42,1452.74z" />
<path class="cls-11" d="M776.25,1389.78c9.89,7.77,15.46,23.36,7.38,30.96c-2.4,2.25-10.04,4.98-12.51,2.16  C766.01,1412.13,768.28,1398.2,776.25,1389.78z" />
<path class="cls-11" d="M802.63,1459.86c-14.86-4.99-23.29-18.86-30.11-32.18c4.36-1.36,7.35-2.12,12.13-2.43  C790.97,1436.25,799.42,1445.89,802.63,1459.86z" />
<path class="cls-11" d="M1004.99,1463.79c-9.88,11.54-23.42,19.3-38.86,19.42l27.49-26.07  C997.96,1458.68,1000.93,1459.87,1004.99,1463.79z" />
<path class="cls-11" d="M726.89,1404.6c18.83,0.22,11.68,25.14,9.09,39.97C726.31,1433.41,725.83,1418.47,726.89,1404.6z" />
<path class="cls-11" d="M1059.65,1458.51c-3.44,13.52-10.92,25-21.92,34c-0.4-12.88,5-23.54,9.37-34.28  C1050.26,1456.72,1055.06,1457.09,1059.65,1458.51z" />
<path class="cls-11" d="M770.38,1327.12c-9.38-7.66-12.71-20.69-17.97-30.96c-0.51-1,0.55-2.75,0.4-3.85  c47.12,15.38,16.66-5.66,57.72,29.9c-5.53,9.76-4.98,17.51-3.17,27.99C794.61,1342.82,781.41,1336.13,770.38,1327.12z" />
<path class="cls-5" d="M910.93,1408.97c9.56-22.12,27.37-38.82,45.43-53.79C942.32,1374.57,926.28,1391.26,910.93,1408.97z" />
<path class="cls-5" d="M884.3,1405.03l-24.55-64.62C873.67,1358.83,880.83,1382.08,884.3,1405.03z" />
<path class="cls-10" d="M595.64,1431.01c-32.27,4.45-61.78,1.33-91.37,11.73c-7.95-18.68-17-31.36-27.64-48.84  C517.57,1401.83,557.81,1407.95,595.64,1431.01z" />
<path class="cls-12" d="M710.9,729.43c-60.53,16.55-209.53,24.49-259.43-0.01C492.06,706.17,660.23,714.52,710.9,729.43z" />
<path class="cls-12" d="M454.05,783.35c-39.69,12.52-84.88,12.31-124.12-0.78C368.75,770.5,415.99,770.38,454.05,783.35z" />
<path class="cls-12" d="M751.29,755.98c-26.72,14.27-64.04,13.86-90.57-0.24C685.98,741.43,724.15,742.26,751.29,755.98z" />
<path class="cls-12" d="M480.44,755.31c-35.85,9.54-75.16,9.03-110.73-2.25C405.46,744.62,445.87,744.38,480.44,755.31z" />
<path class="cls-12" d="M994.43,758.18c-7.7,4.44-14.97,2.35-22.09,0.81c-55.78-12.06-91.31,3.63-119.5-28.09  C908.53,752.19,947.33,739.78,994.43,758.18z" />
<path class="cls-1" d="M633.66,832.07c4.51,5.94,16.42,12.25,12.27,21.91c-3.71,8.64-15.84,11.14-22.95,15.58  c0.74-2,2.68-3.3,3.9-5.72c-7.06-12.73-16.77-22.49-26.94-31.97C611.26,832.55,623.01,834.54,633.66,832.07z" />
<path class="cls-12" d="M549.05,784.14c-13.18,10.95-36.32,9.45-51.44,0.86C511.84,774.83,532.56,776.34,549.05,784.14z" />
<path class="cls-12" d="M810.56,725.64c-11.98,9.35-30.5,7.76-43.98,0.83C778.14,717.78,796.87,717.81,810.56,725.64z" />
<path class="cls-12" d="M455.47,698.04c-11.14,8.31-29.8,7.79-40.99,0.11C426.63,690.6,442.6,691.39,455.47,698.04z" />
<path class="cls-7" d="M1122.92,990.68c-10.53,10.15-33.52,11.18-39.78-2.37C1092.9,979.03,1112.92,980.22,1122.92,990.68z" />
<path class="cls-10" d="M508.99,607.84c3.04,1.35,2.84,4.95-0.6,10.82c0.19,4.07,2.71,7.63,7.56,10.66  c36,8.78,68.04,15.07,105.36,14.28c30.1-2.81,60.15-3.17,90.13-1.06c31.25,7.02,61.94,15.44,92.05,25.27  c11.11-0.61,21.78,0.28,31.99,2.66l0.23,3.25c-35.58-5.03-71.71-1.92-108.48,1.58c-52.39,4.99-102.93,0.72-155.35-2.73l-85.16-5.61  c-13-0.86-19.31-8.06-26.94-13.79c-17.91-8.88-39.18-1.94-58.1-3.95l-93.04-9.85c25.63,8.96,51.84,12.61,78.67,19.56  c-0.59,14.74-101.99,5.58-102.27,20.7c-0.15,8.04,46.48,12.3,52.5,14.01c29.71,8.45,43.29,7.55,42.78,18.85  c-14.01,10.99-196.98,6.29-100.19,40.48l-0.86,5.25c-12.12,12.62-54.8,6.36-65.69,21.37c7.2,6.74,20.57,16.25,31.62,15.85  c45.37,21.07,168.64,13.3,206.13,36.08l84.02,51.04c-12.5,4.9-23.52,7.86-38.67,7.9c-43.11,0.1-85.91-0.09-128.33,4.19  c5.2-8.81,61.77-11.01,69.74-22.67l1.08-0.12c0.3-0.13,0.99-0.5,1.49-1.4c12.14-21.57-54.37-40.11-69.17-43.14  c-14.7-3.01-28.66-0.72-42.17,5.63c-8.24,3.87-18.31,6.36-26.83,12.08L87.4,781.63c-30.31-0.43-58.72,1.9-87.4,5.87V646.88  c63.35-11.4,127.31-20.04,191.75-17.58c-0.83,15.17-1.4,30.11-0.62,46.37c-7.74-12.48-9.98-25.75-22.24-33.09l14.53,30.4  c-10.42-7.52-18.29-16.12-31-16.28c7.54,4.49,14.73,8.79,20.73,15.18c-3.98,1.64-8.03-3.33-8.68,1.19  c14.79,5.94,36.12,12.23,48.54,4.97l26.38-15.43c-10.02-0.17-15.83,4.68-24.05,7.31l13.08-21.07c-12,4.81-16.06,16.09-24.62,23.7  c2.61-17.29,13.51-28.91,18.37-43.17c48.22-0.42,95.9-1.24,144.65-7.13C414.77,616.44,461.61,609.79,508.99,607.84z" />
<path class="cls-8" d="M155.06,877.21c0.25-0.63,0.54-1.22,0.98-1.67c1.08-1.11,29.02,0.16,30.38,2.77l-0.13,3.3  c4.99,10.27,7.66,23.75-2.69,30.6c-0.48-9.33,5.49-14.92,0.2-20.56c-4.64-4.95-6.21-10.85-13.59-9.07  c-6.12,1.48-13.34-1.38-19.89-1.25C150.79,878.51,153.16,877.06,155.06,877.21z" />
<path class="cls-8" d="M170.24,884.02c1.83,3.07,3.53,6.41,3.23,9.78c-0.27,3.02-3.74,6.84-6.92,5.59c-2.74-1.08-0.45-7.7-2.32-8.85  c-6.54-3.69-14.59-1.15-20.78-4.01C149.67,879.16,161.04,885.02,170.24,884.02z" />
<path class="cls-4" d="M195.41,883.56c-2.99,0.15-6.33-1.31-9.13-1.95c-8.55-7.45-20.18-3.52-31.22-4.39  c-0.13-1.65,0.52-2.98,1.67-4.07C173.03,879.49,182.83,865.22,195.41,883.56z" />
<path class="cls-5" d="M40.17,879.79c-0.22,0.16-0.67,0.02-0.95,0.12c-0.81-2.11-1.39-4.85,0.8-5.77c1.08-0.46,2.78-0.98,5.54-0.23  c2.2,0.59,2.17,3.41-1.33,3.9C42.99,877.98,41.41,878.9,40.17,879.79z" />
<path class="cls-5" d="M61.38,875.08c-4.38,1.27-8.59,3.83-12.85,0.72C53.22,873.36,56.94,874.58,61.38,875.08z" />
<path class="cls-5" d="M105.91,971.49c1.45-1.86,3.1-0.14,2.22,1.2c-0.32,0.49-1,1.65-1.98,2.11  C104.12,975.75,104.25,973.63,105.91,971.49z" />
<path class="cls-5" d="M74.56,975.9c-4.41-3.78-7.95-8.72-11.51-14.3C67.83,964.98,71.16,969.18,74.56,975.9z" />
<path class="cls-1" d="M707.66,978.86C694,955,673,944.05,645.6,946.92c-23.8,2.49-91.4,9.02-107.26-5.41  c40.28-0.41,81.19-16.55,127.57-23.49C700.05,912.91,698.39,953.72,707.66,978.86z" />
<path class="cls-16" d="M727.21,835.22c5.31-1.29,9.43,2.06,10.16,5.58c1.13,5.41-1.57,8.81-5.63,9.71c-4.81,1.06-9.28-0.42-10.66-5.08  C719.9,841.43,721.9,836.52,727.21,835.22z" />
<path class="cls-16" d="M750.45,849.85c3.83-1.66,8.73-0.95,11.01,2.83c1.7,2.82,0.89,8.17-3.44,9.96c-2.67,1.11-7.13,1.42-10.07-2.39  C745.91,857.6,745.76,851.88,750.45,849.85z" />
<path class="cls-16" d="M704.41,849.93c5.09-0.98,8.78,2.02,9.25,5.38c0.69,4.9-1.66,8.18-5.86,8.73c-3.98,0.52-8.59-0.2-9.3-5.03  C698,855.71,699.53,850.87,704.41,849.93z" />
<path class="cls-16" d="M726.08,862.29c3.81-2.61,8.79-1.31,10.72,1.84c1.9,3.09,1.79,8.35-1.86,10.57c-2.75,1.67-7.6,1.78-10.02-1.08  C722.74,871.04,722.21,864.94,726.08,862.29z" />
<path class="cls-16" d="M747.69,824.29c3.2-1.8,7.72-1.49,9.76,1.77c1.61,2.57,1.2,7.46-2.32,9.67c-2.36,1.48-7.34,1.67-9.52-1.48  C743.75,831.55,744.22,826.24,747.69,824.29z" />
<path class="cls-16" d="M699.43,827.47c3.56-2.52,8.05-1.27,10.19,2.24c1.33,2.19,1.24,6.36-1.76,8.58c-2.61,1.94-6.84,1.38-9.3-1.26  C696.6,834.94,695.91,829.97,699.43,827.47z" />
<path class="cls-5" d="M511.79,607.45l104.16,1.1l-34.5,25.74c16.57,2.32,32.46,0.61,47.83,0.65l203.94,0.5  c-0.66,8.44-14.1,4.4-12.23,13.77l-10.39,12.91c7.59,3.68,15.34,4.2,24.12,4.19l264.41-0.41c0.79-4.66-0.99-7.88-1.72-12.42  l102.58-0.4v80.75c-16.79,0.59-34.14-0.3-50.98,1.3c-20.19-9.71-43.19-12.7-65.17-20.2c-39.84-13.61-48.22,0.97-59.16-9.22  c12.41-1.3,24.84-0.52,39.04-3.67c-1.32-9.66-11.79-19.45-21.74-21.55c-17.17-3.63-36.82,1.48-49.63,13.33  c-22.96-1.69-46.35,2.5-69.5-2.61l-64.67-14.27l-22.47-3.18c-8.65-5.87-21.53-1.48-32.79-3.3l-68.88-20.45  c-46.19-13.72-95.97-0.67-144.56-3.95c-24.61-1.66-47.19-9.78-71.53-13.15c-5.13-0.71-9.94-7.24-11.93-10.64  c-2.3-3.91,3.33-9.68,2.96-14.39C509.91,607.8,510.86,607.44,511.79,607.45z" />
<path class="cls-14" d="M644.46,1163.64c3.22,9.54,6.35,33.26-4.41,37.2c-15.15,5.54-26.95-18.39-36.52-27.23  c-0.59,13.47-0.22,34.52-15.43,36.93c-16.47,2.6-22.54-17.17-27.34-30.87c-4.08,11.54-11.11,34.31-26.81,30.95  c-12.7-2.72-15.97-27.94-15.8-30.94c1.01-17.67,4.17-34.44,11.64-49.89c29.88,2.59,58.36,1.81,85.06-7.35  C630.79,1133.14,636.84,1148.41,644.46,1163.64z" />
<path class="cls-8" d="M391.36,1257.75c-0.57,5.65-8.83,9.74-13.43,10.26c-5.88,0.67-12.71-3.13-17.76-8.39  c-4.52,8.22-10.87,13.63-19.14,13.57c-8.08-0.05-14.32-5.97-21.02-10.37c-0.9-0.11-1.68-0.31-2.02-0.8  c-3.54-5.13-0.37-5.69-0.2-0.59c0.01,0.44-0.49,0.9-1.13,1.36c-2.85,5.87-11.05,8.95-17.35,7.13c-4.97-1.44-13.98-5.25-16.94-10.76  c-10.12-13.17-7.4-34.37,1.33-47.11l6.39-1.9c26.92,3.15,54.34,3.14,80.89-2.74l6.53,1.19c0.92,0.09,1.74,0.27,2.2,0.77  c7.92,8.57,16.44,35.45,13.6,46.63C393.12,1256.7,392.32,1257.25,391.36,1257.75z" />
<path class="cls-8" d="M471.52,1224.1c1.13,4.86-4.57,9.88-6.82,13.07c-3.37,4.78-12.41,1.07-16.07,2.87  c-4.34,2.91-5.78,10.51-10.24,12.18c-6.52,2.44-12.09,1.11-17.81-1.23l-1.95-1.69c-0.75-16.29-6.27-32.03-15.49-45.44l0.02-2.36  l1.48-3.84c9.54-4.08,18.76-8.77,27.64-14.06l4.2,0.23c10.89-0.73,22.47,11.08,28.25,20.01  C468.25,1209.32,473.11,1218.16,471.52,1224.1z" />
<path class="cls-8" d="M416.63,1251.09c-0.26,4.66-3.35,8.3-6.87,9.71c-5.36,2.14-9.75-0.78-14.56-1.93l-1.85-1.39  c0.37-16.63-2.67-33.7-12.96-47.19l0.13-2.06c1.63-5.96,14.83-10.19,19.68-6.29c0.88,0.06,1.66,0.2,2.05,0.67  c6.96,8.18,18.64,36.6,16.23,46.84C418.33,1250.1,417.57,1250.61,416.63,1251.09z" />
<path class="cls-8" d="M500.68,1181.16c7.92,0.01,4.48,12.46,0.36,17.28c-3.26,2.57-5.57,6.84-10.83,5.75  c-7.96-17.02-23.36-26.56-40.55-33.07l-0.71-1.67c-4.49-2.5,2.2-10.76,6.25-9.62c0.64-0.99,1.52-1.43,2.66-1.57  C472.23,1156.49,493.58,1169.25,500.68,1181.16z" />
<path class="cls-8" d="M489.06,1205.37c0.78,3.49-1.93,9.79-2.93,12.87c-1.38,4.27-7.71,6.06-12.02,4.51l-1.72-1.1  c-4.19-16.85-15.78-31.78-32.11-38.26l-0.74-2.09c-2.76-4.08,4.09-13.59,8.08-9.61c0.72-0.47,1.39-0.79,1.89-0.63  C465.06,1176.18,485.45,1188.51,489.06,1205.37z" />
<path class="cls-14" d="M516,1179.53c-4.85,6.58-8.61,13.89-14.96,18.91c0.83-5,3.32-12.84-0.36-17.28c-1.71-1.94-0.99-2.63,1.39-1.37  c-0.4-2.07,0.8-3.89,3.6-5.45c1.81-2.88,2.11-6.35,0.91-10.4c-1.19-2.62-1.28-4.98-0.28-7.09c-1.92-2.53-1.91-3.78,0.04-3.74  c4.79-8.7,1.98-18-5.79-24.26l-0.87-3.13c-2.3-0.54-2.29-1.44,0.15-1.81c8.15,2.6,18.2,2.11,26.55,5.83  C520.22,1146.38,516.75,1163,516,1179.53z" />
<path class="cls-4" d="M474.11,1222.75c-0.77,0.62-1.66,1.05-2.6,1.35c-4.24-18.22-17.25-34.77-35.05-40.26  c-1.61-3.44-0.24-4.21,3.08-2.54C457.63,1187.78,470.36,1203.99,474.11,1222.75z" />
<path class="cls-5" d="M490.21,1204.19l-1.14,1.18c-7.78-17.2-24.33-26.68-41.44-33.68c-2.6-2.34-2.03-2.78,1.31-2.24  C466.67,1176.19,485.65,1185.11,490.21,1204.19z" />
<path class="cls-4" d="M380.52,1208.22c12.88,14.41,13.88,31.95,14.68,50.65c-1.29-0.31-2.51-0.92-3.84-1.12  c1.84-18.12-3.52-34.43-13.86-49.16C378.03,1205.13,378.88,1205.12,380.52,1208.22z" />
<path class="cls-5" d="M403.14,1201.52c11.37,14.53,15.83,31.31,17.43,49.48l-3.94,0.09c0.99-17.83-6.88-34.3-16.43-49.16  C400.42,1198.34,401.64,1198.27,403.14,1201.52z" />
<path class="cls-4" d="M283.69,1212.05c-6.19,15.21-9.33,32.23-1.33,47.11l-0.84-0.25c-11.4-12.31-7.73-32.24-0.15-46.84  C281.78,1209.52,282.8,1209.54,283.69,1212.05z" />
<path class="cls-4" d="M320.01,1262.82l-3.36-0.04c-3.85-12.8-10.45-27.36-1.83-40.87C314.23,1236.97,313.91,1249.88,320.01,1262.82z" />
<path class="cls-15" d="M448.81,1109.39c3.13-1.45,4.43,0.8,3.91,6.76l2.41,2.5c0.39,0.96,1,1.81,1.76,2.51  c3.87,0.55,4.14,2.6,1.04,4.83c5.35,1.93,5.29,12.25,5.01,17.64c-0.25,4.96-0.67,12.73-6.15,13.25c2.25,1,1.72,1.98-1.6,2.95  c-2.17,3.99-5.59,5.8-6.25,9.62c-0.21,1.21-1.2,1.76-1.31,2.24c-4.33,2.25-5.96,6.5-8.08,9.61c-1.13,1.11-2.44,2.03-3.08,2.54  c-10.55,8.26-22.55,11.59-33.32,17.67l-2.95,0.41c-7.24,1.02-13.72,3.38-19.68,6.29c-1.51,0.47-2.44,0.22-3.02,0.37  c-30.65,7.89-62.41,7.62-93.81,3.45c-1.21-0.16-1.89,0.21-2.32,0.02c-9.58-4.18-19.09-6.68-28.31-9.34  c-2.59,2.73-2.89,2.33-2.46-1.36c-11.88-6.9-23.22-12.68-29.46-24.21c-1.2-0.61-1.77-1.87-1.71-3.8c-1.4-5.1-3.19-10.09-5.13-15  c-0.4-1.01-0.67-3.03-0.56-4.11c0.47-4.55-0.3-8.35,0.43-11.8c0.69-3.23,0.58-6.02,1.35-7.96c4.18-10.54,10.51-19.78,19.13-27.25  c2.55-2.21,6.02-4.39,7.86-6.43C301.06,1064.28,397.64,1061.33,448.81,1109.39z" />
<path class="cls-9" d="M627.55,1066.89c-1.11,47.15-144.7,46.45-148.34,1.09c-2.54-31.54,79.82-54.86,134.95-22.07  C622.42,1050.83,627.74,1058.54,627.55,1066.89z" />
<path class="cls-5" d="M455.13,1118.65c-4.78,0.11-3.08-6.22-6.32-9.26c14.28-6.09,28.48-18.02,44.9-8.66  C481.99,1098.08,444.99,1106.3,455.13,1118.65z" />
<path class="cls-10" d="M660.32,1097.02c0.57-0.33,0.91-1.06,1.55-1.31c16.62,4.72,35.97,13.8,42.13,31.05  C689.9,1112.83,678.2,1101.11,660.32,1097.02z" />
<path class="cls-5" d="M499.83,1123.91l-0.15,1.81l-2.65,2.19c-12.75-4.66-24.72-4.92-35.92-0.78l-3.17-1.14  c-0.44-1.59-0.93-3.17-1.04-4.83C471.66,1117.25,486,1117.8,499.83,1123.91z" />
<path class="cls-5" d="M253.05,1202.73c-9.77,11.93-15.44,24.37-15.59,41.28c-5.64-16.47,3.36-30.92,13.13-42.64  C251.28,1201.77,252.32,1202.52,253.05,1202.73z" />
<path class="cls-5" d="M221.13,1177.15c-14.95,3.2-25.09,13.2-32.76,25.97c1.84-17.38,18.6-22.98,31.05-29.78  c0.68,0.06,1.76-0.07,2.33,0.54C222.29,1174.47,221.06,1175.81,221.13,1177.15z" />
<path class="cls-12" d="M553.89,1281.97c-4.75,0.76-44.4,10.9-42.08-0.72c2.34-11.71,56.05-10.51,67.69-6.89  C574.92,1285.26,563.11,1280.5,553.89,1281.97z" />
<path class="cls-10" d="M812.94,1145.09c-3.82-1.35-4.84,2.89-6.7,3.23c-2.74,0.5-11.9,0.63-5.9-4.31c0.47-3.73-6.86-2.64-9.23-2  c-3.37,0.9-3.52,8.14-7.15,10.05c-3.2,5.54,4.2,10.01,1.4,17.37c-8.95-9.17-6.38-20.8-0.36-31.03  C792.02,1134.1,824.82,1140.43,812.94,1145.09z" />
<path class="cls-10" d="M889.32,1143.79c2.18,3.91,6.19,11.96,2.23,15.17c-4.8,1.75-7.01-6.38-6.01-10.74  c-6.05-1.21-11.1-1.81-16.09-2.11C867.54,1138.14,883.81,1145.37,889.32,1143.79z" />
<path class="cls-5" d="M502.07,1179.78c-0.56,0.21-0.88,1.06-1.39,1.37c-12.58-12.02-27.8-23.11-45.48-21.33l1.6-2.95  c0.8-1.17,1.8-2.27,3.2-2.68c9.36-2.71,38.47,12.63,42.12,21.44C502.68,1176.98,502.46,1178.43,502.07,1179.78z" />
<path class="cls-8" d="M499.68,1125.71c5.12,1.01,9,8.12,10.53,12.2c2.11,5.62,2.58,13.13-3.87,15.19c-2.1-0.9-2.11,0.35-0.04,3.74  c3.02,2.91,3.23,8.77,3.57,12.75c0.42,4.94-3.17,8.41-7.8,10.2c-11.28-14.29-26.9-23.48-45.27-22.9c4.77-8.77,4.22-19.8,1.14-30.89  C470.2,1117.29,485.39,1122.9,499.68,1125.71z" />
<path class="cls-5" d="M506.34,1153.1l-0.04,3.74c-11.29-10.88-24.49-16.32-41.45-18.32C481.1,1134.52,495.76,1142.53,506.34,1153.1z" />
<path class="cls-8" d="M420.23,1135.8c-1.68,43.41-93.63,68.87-154.42,33.8c-11.2-6.46-17.12-16.54-17.35-26.94  c-0.27-12.11,3.51-20.24,14.95-28.67C320.03,1072.3,421.99,1090.29,420.23,1135.8z" />
<path class="cls-12" d="M527.74,1045.99c-0.33,2.86-2.41,5.35-6.22,7.49c-0.79,0.44-1.95,3.54-1.25,3.48  c3.38-0.29,27.32-9.29,31.29-11.24c-5.77,1.21-9.73,0.42-11.85-2.38c7.3-7.31,58.6-3.47,57.24,16.78  c-1.5,22.3-59.17,30.98-86.16,7.73c-5.83-5.02-1.39-12.99,1.9-15.76C517.01,1048.48,522.65,1043.28,527.74,1045.99z" />
<path class="cls-16" d="M539.71,1043.35c6.96,1.03,13.31-3.06,20.15,2.24l-41.87,15.04c-2.87-7.85,4.12-11.51,9.75-14.64  C531.59,1043.85,536.74,1045.58,539.71,1043.35z" />
<path class="cls-14" d="M363.16,1118.32c8.41,4.5,7.42,10.27,2.07,17.13c-12.43,15.91-61.74,16.4-67.02-3.25  c-0.84-3.12-1.22-5.01,1.88-7.17C318.83,1111.67,343.22,1108.91,363.16,1118.32z" />
<path class="cls-10" d="M300.09,1125.04c-0.64,6.36,2.39,12.13,8.89,14.92c20.01,8.61,51.47,5.57,57.36-11.91  c1.28-3.81-1.05-6.8-3.18-9.73c6.52,3.08,12.45,3.23,14.22,11.27c1.25,5.68,0.82,12.43-6.04,16.31  c-35.05,19.82-82.85,5.55-79.16-10.29C293.25,1131.01,295.39,1126.07,300.09,1125.04z" />
<g>
</g>
<g>
</g>
<g>
</g>
<g>
</g>
<g>
</g>
<g>
</g>
<g>
</g>
<g>
</g>
<g>
</g>
<g>
</g>
<g>
</g>
<g>
</g>
<g>
</g>
<g>
</g>
<g>
</g>
</svg>