<?xml version='1.0' encoding='UTF-8'?>
<svg xmlns="http://www.w3.org/2000/svg" id="Layer_1" viewBox="0 0 1200 1543" xml:space="preserve" width="1200" height="1800">
<style type="text/css">
      .cls-1 {
        fill: #333055;
      }

      .cls-2 {
        fill: #0b4082;
      }

      .cls-3 {
        fill: #323d91;
      }

      .cls-4 {
        fill: #2a54a2;
      }

      .cls-5 {
        fill: #2767b0;
      }

      .cls-6 {
        fill: #595784;
      }

      .cls-7 {
        fill: #148399;
      }

      .cls-8 {
        fill: #118acb;
      }

      .cls-9 {
        fill: #4976b8;
      }

      .cls-10 {
        fill: #21a8e3;
      }

      .cls-11 {
        fill: #ab827e;
      }

      .cls-12 {
        fill: #5cbceb;
      }

      .cls-13 {
        fill: #8daad0;
      }

      .cls-14 {
        fill: #98cdef;
      }

      .cls-15 {
        fill: #c3c3c5;
      }

      .cls-16 {
        fill: #f0eede;
      }

    </style>
<path class="cls-3" d="M820.98,0c0.96,0.33,1.9,0.7,2.74,1.23c0.8,0.51,1.54,1.01,1.92,1.7c18.68,34.29,17.87,80.12-0.34,114.41  c-27.37,51.52-90.13,65.58-143.87,68.11l-4.97-2.09c-21.03,1.06-42.09,1.97-63.17,1.79c-53.41-1.03-107.03-2.04-160.55-2.38  c-33.62-0.21-68.34-0.32-101,1.84c-16.23,1.08-37.74,7.36-22.11,26.71c5.17,2.84,6.3,5.78,3.4,8.81l-188.97-0.44  c-2.79-0.29-4.73-2.42-5.82-6.39c-2.45,1.15-0.99-1.26-0.75-1.02c2.59,2.48,1.41,6.76-2.21,7.51L1.62,219.64L0,216.96V0H820.98z" />
<path class="cls-10" d="M1200,515.47v230.7l-3.6-4.06c-15.9-38.82-28.54-78.7-37.92-119.64c-6.53,32.55-15.16,64.46-25.9,95.73  l-3.81,6.24c-1.04-0.05-2.07-0.15-3.05-0.42c-6.68-1.89-21.03-24.02-25.38-31.19c-11.48-18.93-19.6-39.67-27.46-60.27  c-12.82,31.24-28.26,60.89-46.31,88.95c6.76-1.31,13.42-3.2,19.96-5.65c1.43,0.33,4.23,1.1,4.54,1.71  c1.92,3.78-21.09,37.69-26.02,44.89c-8.37,12.22-17.29,24.03-26.66,35.45l27.11-2.91c2.87,1.39,4.63,2.61,2.74,5.47l-29.52,29.38  c-2.67,3.16-5.65,4.27-8.92,3.32l-2.9-0.43l-9.65-33.92c-2.88,11.9-6.38,23.61-10.48,35.13l-4.16,3.2  c-0.91,0.54-2.37,1.22-2.86,0.67c-2.68-3-20.61-26.38-20.84-28.12c-0.65-5,5.74-4.55,9.51-3.86l8.61,1.73  c-5.05-8.53-31.09-57.79-28.34-63.28c1.13-2.25,4.74-3.22,7.22-2.83c-9.41-23.2-16.35-47.27-22.74-71.45  c-5.23,23.6-11.33,47-18.29,70.18c2.72,0.32,3.61,1.86,4.54,4.16c3.8,9.36-23.99,53.34-31.14,62.3l18.97-1.39  c2.26,1.69,2.25,2.3,2.21,5.04c-0.03,2.06-21.38,32.98-23.16,34.02c-3.2,2.28-4.19,2.25-6.93-0.74  c-4.61-5.03-19.92-37.1-21.48-44.16c-1.37-6.17,1.74-7.29,7.13-6.82c-9.34-22.9-17.15-46.36-23.45-70.36  c-5.49,21.78-11.58,43.42-18.27,64.92l-0.07,3.93c2.62,0.6,3.33,2.24,4.04,4.57c2.93,9.63-23.75,48.11-30.66,56.83l11.1-1.48  c7.38-1.38,10.84,0.38,10.36,5.27l-20.59,27.42l-3.32-0.04l-4.04-0.98c-15.8-21.26-42.71-21.5-66.83-20.09l-3.02-2.55l-5.71-2.25  c-18.87-19.2-44.86-23.24-70.65-23.91c-9.57-49.81-43.79-92.11-94.88-102.23l-3.77-3.4l-0.25-4.02c7.25-10,11.41-21.93,12.93-34.15  l2.95-2.71l4.46-2.53c47.21,2.35,88.09,33.37,105.3,77.04C666.98,692,731.55,642.91,803.85,648.9c16.9,1.4,36.78,5.55,50.62,14.76  c-0.47-8.41,2.97-22.85,10.61-27.17c-0.57-1.62-0.81-3.31-0.33-4.98c3.5-12.21,27.81-33.32,38.92-40.24  c40.01-24.93,90.24-21.05,127.46,7.39c22.74-67.92,95.62-108.08,165.24-87.1c0.72,0.22,1.33,0.83,1.96,1.51  C1198.98,513.78,1199.51,514.61,1200,515.47z" />
<path class="cls-15" d="M941.52,0c1.01,0.38,1.99,0.81,2.87,1.39c0.85,0.56,1.65,1.11,2.07,1.86c41.34,73.71,15.95,149.51-49.62,197.91  c-42.75,31.55-84.36,36.92-135.76,42.29c-90.67,16.9-149.18,81.62-106.71,173.77c24.84,39.95,39.21,87.1,8.2,127.89  c-26.84,35.3-68.71,40.11-109.59,30.7c-34.23-2.66-67.99,9.49-82.76,42.25c11.84-1.49,23.74-0.02,35.69,4.41l1.51,3.03l3.01-0.43  c4.62,3.65,9.34,7.21,14.17,10.68l-0.85,3.06l4.1,0.93c6.69,7.13,19.43,36.14,15.9,44.46c-0.59,1.38-1.5,2.45-2.83,3.19  c-1.06,14.01-6.48,29.9-15.64,40.88c0.32,1.42,0.45,2.93-0.22,4.28c-2.21,4.48-15.13,11.62-20.19,13.7  c-12.22,5.04-24.86,5.42-37.88,5.03c-43.39,3.67-50.34,41.24-52.25,77.49l-2.29,2.79c-0.12,1.03-0.36,2.53-1.12,2.69  c-2.41,0.52-9.07,0.31-11.84,0.12c-3.72,0.8-6.02-0.07-6.9-2.61c-0.62,1.04-1.06,0.9-1.34-0.33l-3.17-0.96  c-0.44-9.64,0.21-19.3,1.95-28.97l2.39-2.03c-2.98-11.82,1.57-25.94,6.32-37.07c8.95-20.96,24.8-35.06,44.49-45.95  c21.97-18.26,20-49.07,15.23-74.52c-2.77-43.61,4.51-82.64,48.94-102.79c23.94-6.95,46.36-18.53,54.19-43.89l3.53-2.54l1.4-3.49  c34.64-16.12,40.04-62.85,3.85-80.65l-0.08-3.38c-3.63-0.59-5.45-0.88-5.45-0.88c-22.07-17.97-36.64-43.11-40.33-71.36  c-1.77-13.52,0.65-57.08,11.08-64.88c0.8-0.6,1.7-1.05,2.64-1.46c-0.55-1.75-0.85-3.6-0.31-5.38c5.42-17.67,35.53-41.86,51.35-51.32  c25.69-15.37,57.13-26.83,87.21-26.53c27.97-3.63,55.6-3.52,82.71-14.57c28.62-11.67,53.55-29.8,66.69-58.6  C841.87,75.08,839.88,32.96,820.98,0H941.52z" />
<path class="cls-5" d="M747.78,361.36l0.59,4.25c-42.81,89.48,96.58,124.31,102.39,27.18l2.45-3.14c0.32-6.4,9.89-6.41,15.25-6.4  c27.46,3.19,54.93,6.58,82.41,10.15l19.07-1.03c7.45-0.98,12.18,0.84,14.19,5.48c0.63-1.06,1.12-1,1.47,0.19  c2.5-4.59,7.34-6.98,14.52-7.15l49.8-2.21c60.33,4.77,90.5,7.16,90.5,7.16c19.62,2.16,38.68,1.17,57.19-2.98l2.38,2.23v120.4  c-69.9-22.56-145.85,14.8-166.89,88.1c-27.83-22.16-61.27-31.66-97.26-23.04c-28.89,6.93-56.02,27.6-70.77,55.96  c-3.5,0.72-7.44-0.19-11.81-2.73c-10.59-1.3-21.55-0.82-32.86,1.45c-20.1-2.24-40.2-2.42-60.3-0.51  c-23.13-0.86-46.06-0.76-68.89,2.92c-23.84-1.88-47.82-2.22-71.94-1.03c-23.97-1.78-47.93-2.87-71.89-3.29  c-9,2.12-13.5,3.18-13.5,3.18c-3.61,2.46-7,3.23-10.16,2.32c-4.29-5.38-12.51-7.46-16.33-13.31c-4.94-1.91-1.43-10.03,0.57-13.82  c13.49-25.63,48.36-15.43,67.76-1.83c110.89,51.3,211.15-84.59,129.79-174.61c-15.05-18.9-21.92-60.4-7.91-80.89  c0.9-1.31,2.63-1.85,4.18-2.33c3.09-1.82,6.95-2.29,11.56-1.41c12-1.78,23.45-1.26,34.34,1.56  C751.06,354.3,751.09,357.37,747.78,361.36z" />
<path class="cls-8" d="M417.85,612.09l3.34,0.41l5.92,7.89c20.14,15.76,38.84,47.13,5.37,59.72c-38.13-2.24-68.4,27.37-60.96,66.37  c5.37,15.23,11.89,29.96,19.58,44.19l1.3,8.81c2.25,10.96-5.6,21.02-1.17,31.97l-1.49,2.72l-43.66,1.17  c-0.86,4.72-1.24,9.68-1.15,14.88c3.3-0.39,5.33,0.58,6.1,2.92c4.61-0.23,5.68,8.33,1.28,9.44c4.15,0.84,3.52,12.21-0.51,13.09  c-2.56,3.52-6.51,6.28-11.84,8.3c-13.11,10.87-25.58,22.49-37.4,34.86c-3.49,3.64-6.58,4.49-9.26,2.56c-4.1-2.2-7.3-5.91-9.61-11.12  c-15.96-18.67-23.93-28.01-23.93-28.01l-1.01-4.96l1.59-2.7c13.84,1.96,13.24-3.79-1.8-17.25c-2.5-3.75-6.63-10.65-0.03-10.8  l2.64-1.54c1.1,2.03,17.02,8.36,17.2,6.06c0.47-6-6.5-19.09-9.85-24.79c-9.76-16.6-23.57-29.46-37.83-41.98  c-2.09-2.96-2.34-3.48,0.81-5.84c-2.56-3.31,1.55-8.3,5.47-5.84l2.37-1.82c1.02,1.6,12.09,2.28,11.74,1.42  c-17.6-42.92-37.77-94.84-43.62-140.69c-0.02-0.18,0.45,2.85-2.18,1.95c0.3,1.55-0.06,3.63-1.43,4.27c1.21,0.27,1.14,0.67-0.08,1.17  c-0.8,0.56-0.88,0.97-0.22,1.21c1.19,0.26,1.21,0.69,0.09,1.28c0.22,5.61,0.34,8.42,0.34,8.42c-7.92,31-16.72,61.75-26.37,92.24  c-2.31,9.99-6.53,18.42-12.65,25.3l-3.76-0.61c-8.16-7.92-16.22-15.94-24.18-24.06l0.59-3.83c-4.52-3.92,2.34-18.26,8.21-17.3  c0.59-1.14,1.65-2.26,2.79-1.94c4.37,1.23,9.74,3.74,13.39,6.37l0.13-3.8c-12.34-25.72-22.65-52.2-30.92-79.45l-2.93-0.38  l-22.79-73.83l-2.25,0.75c-0.71,6.11-1.45,12.15-3.05,18.09c-8.94,33.31-22.05,67.99-36.45,99.16l-3.56,3.55  c-4.71,4.08-8.56-5.13-10.28-9.26l-16.94-67.66c-6.95,36.5-15,72.99-27.38,108.12c-0.48,1.36-1.39,2.57-2.33,3.81  c-0.95,1.25-2.06,2.38-3.21,3.48V470.08c1.67-1.02,3.49-1.78,5.46-1.72c13.71,0.36,39.92,14.1,52.12,21.45  c6.3,3.79,12.81,7.87,17.9,13.14c91.53-50.75,207.45-0.13,239,98.31c6.35,13.38,18.05,7.09,27.52,1.23  c22.9,4.76,46.16,7.97,69.59,7.19L417.85,612.09z" />
<path class="cls-4" d="M538.2,266.6c-23.6,50.08-12.05,105.26,32.07,138.58l-6.5,7.44c-4.55,2.65-34.09,3.5-39.27,1.49  c-19.79,7.5-37.95,11.65-58.36,3.01c-19.46-1.59-38.99-1.79-58.58-0.61c-9.31,6.52-16.77,6.98-27.89,4.62  c-7.76-2.19-15.15-2.8-22.18-1.81c-2.89,1.47-4.82-0.23-5.79-5.1c-2.43,8.78-9.85,12.63-22.28,11.56l-5.64,1.49  c-29.09-3.82-58.49-4.53-88.2-2.13c-47.45,0.57-94.8,0.83-142.06,0.8c-16.36,0.71-32.41,0.85-48.15,0.41l-2.65-2.02  c-5.38-4.27,2.51-9.55,7.78-10.56c-5.96-0.73-9.03-5.22-10.5-10.6c-2.1,5.89-5.59,9.38-10.47,10.49c-4.49-0.81-7.17-0.37-8.05,1.32  c4.01,1.66,1.81,4.94-0.78,7.63c-3.67,3.81-17.29,8.77-20.7,3.28V266.51l1.28-2.68c178.39,0.03,356.8,0.06,535.24,0.09L538.2,266.6z  " />
<path class="cls-5" d="M570.26,405.18c7.53,5.69,17.39,10.63,22.33,19.99c13.77,26.09-0.93,57.24-27.49,67.53l-2.8,3.48  c-11.57-0.26-23.1-2.45-34.58-6.57c-64.59-19.12-137.32,54.67-109.01,118.35l-0.86,4.13c-24.59,1.36-51.38-1.28-75.54-7.15  c-5.02,4.31-12.99,7.14-18.64,7.06c-4.65-0.06-10.72-6.44-12.5-11.64c-33.72-98.23-144-143.58-235.9-95.02  C52.7,487.93,27.18,474.49,0,470.08v-44.2c7.88,0.29,21.33-2.27,21.47-10.91c6.46-4.96,16.67,1.44,18.19,9.74l3.05-0.39  c10.37-3.53,21.32,1.11,32-0.04c19.13-2.07,36.93-0.45,55.83-0.45c29.55,0,58.7-2.54,89.12-1.52c37.08,1.24,74.1-5.2,109.75,3.45  c7.93-2.29,14.27-1.05,19.02,3.72c2.15,6.13,3.82,6.5,5.01,1.11c4.54-4.72,11.14-6.89,19.78-6.5c-1.07-0.71-2.24-1.01-3.51-0.9  c-2.52,4.31-14.53,2.14-12.24-3.89c-3.61-9.19,29.9,3.81,41.75-0.48c4.55-6.01,8.58-5.06,14.72-5.02  c21.58,0.14,43.94-3.82,64.51,3.9c15.1,5.66,31.1-2.52,46.48-6.09c0.6,3.81,39.97-2.24,36.32-0.55  C564.33,409.65,565.57,402.89,570.26,405.18z" />
<path class="cls-4" d="M1200,226.04v169.04l-16.06,3.47c-10.88,2.35-90.26-1.67-109.54-5.36c-20.09-3.84-38.68-0.55-59.52-0.45  c-10.47,0.05-19.79,0.56-29.27,5.29c-1.49-6.06-1.98-12.34,4.59-15.72c-3.33-3.44-5-5.15-5-5.15l-3.59,4.24  c-3.95,0.86-5.67,1.86-5.14,2.98l3.68,3.85c6.35-4.48,5.89,5.53,3.98,9.61c-11.78-6.4-25.02,0.48-37.31-2.38  c-23.65-5.49-47.2-3.56-70.97-8.43c-8.42-1.72-14.75-2.1-22.64,2.61l-3.02-2.52c-8.42-47.73-66.54-62.8-98.3-26.38l-4.1,0.61  c5.38-16.42-31.34-4.47-45.99-9.35c-0.66-1.61-0.69-3.22-0.31-4.89c1.58-7.1,19.47-24.11,25.95-29.02  c20.9-15.84,47.29-21.92,72.55-25.28c51.12,0.39,102.09-9.92,147.98-33.18l8.31-1.31l10.02-4.46c25.59-4.93,50.5-13.19,73.77-24.95  l7.55-0.94c20.48-9,49.65-9.62,71.81-6.73c13.45,4.14,26.85,5.88,40.17,5.23c12.14-4.5,24.93-5.46,38.39-2.86L1200,226.04z" />
<path class="cls-16" d="M822.24,1276.4c0.85-3.81,3.39-3.8,4.29-0.03c0.13-1.04,0.43-2.56,1.18-2.67c3.78-0.55,25.58-0.58,29.1,0.1  l1.89,2.68c6.05-4.38,20.2-2.87,25.25,2.62l2.04-2.32c9.61,1.92,19.22,3.85,28.84,5.77l1.37,3.01  c30.88,1.61,61.63,12.61,90.58,23.37c65.22,24.25,126.14,58.44,185.68,94.11c1.47,0.88,2.73,2.16,4,3.45  c1.28,1.31,2.43,2.75,3.53,4.22v38.19c-21.66-5.06-42.92-11.73-63.76-19.99c-48.25-15.9-96.86-30.54-145.85-43.92l-8.82-4.03  l-1.94-2.25c16.82-58.27-25.88-52.54-44.26-8.12l-3.2,0.89c-1.63,2.62-5.07,3.07-10.33,1.36c-4.95,0.31-7.96-0.98-9.02-3.88  l-2.65-1.54c-1.69-45.27-34.23-59.19-42.15-6.93l-2.73,1.6l-4.58,1.34c-49.74-2.84-100.02-3.37-148.99,7.78l-146.43,33.1  c-22.03,3.11-70.29,9.18-87.12-7.62c-13.75-13.73-0.8-32.22,14.17-38.79c37.63-14.88,76.23-26.92,115.8-36.11  c0.27-1.27,0.73-1.25,1.34-0.05l10.62-2.58c0.12-0.79,1.05-1.2,2.79-1.21l7.56-4.01c34.52-7.71,68.78-16.5,102.79-26.38  c0,0,2.87,0.22,8.6,0.67c0.23-3.9,3.76-4.82,5.68-1.34c1.05-0.95,2.13-1.85,3.31-2.59c1.17-0.73,2.3-1.42,3.52-1.67  c19.8-4.09,39.99-6.51,60.12-8.22c1.24-0.11,2.53,0.21,3.85,0.54C819.65,1275.3,820.95,1275.82,822.24,1276.4z" />
<path class="cls-14" d="M608.13,1321.78c-38.72,14.08-80.44,21.15-117.57,39.98c-9.64,4.89-15.54,13.1-15.22,22.44  c1,29.68,76.5,20.7,97.63,15.88l133.8-30.52c52.67-12.02,105.49-12.95,158.53-7.47l2.76,2.27c0.8,14.68,3.94,31.38,16.76,40.37  l1.58,3.98l2.68,0.93l-0.19,111.11c-2.5,3.01-3.38,3.55-6.45,0.76c-6.01-5.46-15.33-27.91-18.46-36.64  c-2.32-6.46-5.36-15-6.04-21.65c-0.21-2.08,0.73-4.09,1.64-5.92l0.37-4.46c13.14-22.51,3.99-49.08-13.96-65.98  c-12.12-11.42-21.56-2.44-23.49,11.84c-3.04,22.49,4.54,48.83,26.75,58.47l2.71,3.69l4.02,3.64c7.22,24.64,17.74,47.28,32.21,68.17  c2.52,5.52,1.96,8.9-1.69,10.14H829.1l-2.78-1.26c0,0-10.53-17.78-31.59-53.33c6.93,12.09,13.62,24.32,20.07,36.69  c0.08,1.51,0.16,3.22-0.67,4.55c-1.57,2.5-23.27-3.26-27.56-4.68c-11.15-3.68-20.74-12.17-27.67-21.58l0.42-3.17l-2.06-3.67  c0.78-17.59-11.69-32.51-26.97-39.89c-49.17-23.73-18.14,50.18,12.46,48.45c4.79-0.68,8.6-0.13,11.45,1.66  c2.07-3.31,5.64-0.22,7.8,1.97c11.88,12.02-2.89,10-11.96,7.2c23.89,5.32,47.28,11.99,70.17,19.99c3.39,1.96,6.51,5.64,1.65,7.07  h-69.27c-5.51-1.84-11-3.84-16.06-6.71c-57.99-32.83-113.8-63.8-174.25-92.25c-46.4-21.84-93.54-42.07-140.87-61.79  c-5.28-2.31-10.03-5.66-14.72-8.99l6.3-3.32c51.22-12.84,102.26-26.39,153.13-40.63l7.09-0.46c0.52-1.35,1.17-2.83,2.48-3.55  c3.14-1.73,23.78-4.88,28.63-5.22L608.13,1321.78z" />
<path class="cls-9" d="M676.45,183.36c-51.67,6.7-114.58,33.01-138.25,83.23L0,266.51v-49.55l136.2,0.16  c0.42-3.53-2.61-4.25-1.17-5.25c2.19-1.52,3.91-1.47,4.71-0.8c0.88,0.73,2.01,2.42,2.67,5.95l191.54,0.45  c-8.02-3.75-10.06-9.22-11.7-14.17c-6.76-20.37,30.17-21.85,44.39-22.24c79.03-2.13,157.54-0.31,237.2,1.34  C629.19,182.92,652.95,180.7,676.45,183.36z" />
<path class="cls-16" d="M44.15,1286.88c4.99-4.02,15.6-3.25,20.02,1.37c0.82-0.59,1.65-1.14,2.56-1.53c2.73-1.16,33.98,3.07,40.04,4.17  l4.58,2.87c1.5-2.3,2.6-1.89,2.4,0.84c3.54-3,10.72-2.13,13.51,1.57c2.14-3.16,3.5-2.87,3.71,0.99c0.58-0.93,1.34-2.05,2.38-2.29  c2.07-0.48,38.38,6.27,41.82,7.49l1.44,2.98c7.99-1.62,15.86-0.01,23.64,1.92c66.78,14.83,131.7,37,196.2,59.54  c1.84,0.64,3.54,1.66,5.27,2.72c1.74,1.06,3.38,2.29,4.99,3.55c118.09,48.64,236.21,101.54,345.9,169.74h-26.59  c-8.92-2.1-17.81-4.38-26.41-7.56c-145.25-53.78-292.96-108.24-440.32-145.19l-4.77-2.75l-3.1-1.99  c-7.33-36.95-47.04-41.2-69.64-14.2l-3.82,0.41l-5.08,0.81c-55.57-9.12-111.83-9.64-167.94-7.53L0,1363.35v-77.68  c0.15-1.04,0.53-2.61,1.28-2.64c6.32-0.31,33.22-0.24,37.86,1.1L44.15,1286.88z" />
<path class="cls-2" d="M1200,746.17v3.36l-1.71,2.63l-9.39-0.25c5.4,8.21,9.1,16.95,11.1,26.23v442.17l-4.72,0.41  c-33.57-10.02-67.56-18.32-101.97-24.91l-8.28-3.92c-1.06-0.07-2.66-0.37-2.73-1.1c-1.64-18.59-2.47-40.37-2.58-59.09  c-1.2-5.46-0.47-9.05,2.21-10.76l1.65-0.89c3.6,2.38,7.08,5.17,10.44,8.39c15.33,10.1,19.13-2.98,19.06-16.46l-1.36-20.33  c1.74-2.62,3.13-4.21,5.77-2.04c12.51,16.14,27.43,33.44,47.23,39.49c2.9-2.42,6.68-1.73,11.32,2.07  c11.57,2.23,11.5-5.01-0.23-21.71c-16.94-21.97-33.08-44.34-48.42-67.1l1.81-2.98l2.07-2.25c7.78,3.84,15.4,5.23,22.87,4.17  c8.5-9.6-34.8-68.22-43.29-78.01l0.94-3.21l2.04-2.38l16.94,3.11c13.04,0.23,11.45-5.73-4.78-17.89c-3.32-2.39-4.04-4.65-2.15-6.8  c1.67-2.74,5.82-4.66,8.2-1.55c1.29-4.3,0.09-8.55-3.62-12.76c-10.23-13.39-21.46-25.88-33.7-37.49l0.83-3.01  c-5.04-0.28-5.97-1.75-2.8-4.42c5.32,0.01,10.66,0.65,16,1.91c7.71,0.53,8.97-3.43,3.8-11.87l1.85-2.56  c-0.87-3.75,2.29-4.07,3.8-0.62l4.74-1.27c14.46,4.11,29.67,5.14,44.65,4.82l-55.1-67.5c-0.52-2.78-0.59-4.79,2.39-5.37l31.52,3.39  c-6.57-8.75-13.25-17.83-20.04-27.24l-0.02-4.6c-0.92-2.5-0.05-5.13,2.6-7.88l2.86-5.61l-11.91,0.14c-2.21-1.49-2.28-1.98-2.63-4.54  c-0.15-1.1,6.25-18.92,7.23-20.98l3.14-0.89c-2.03-1.68-1.41-2.57,1.1-1.74c12.01-38.29,22.19-77.27,29.92-116.3  C1169.31,655.48,1181.63,702.2,1200,746.17z" />
<path class="cls-14" d="M1200,1448.91v93.91h-184.98c-0.38-2.92,1.32-4.83,5.1-5.74l18.66-6.58l3.13,1.41l3.04-0.73  c14.06,7.85,30.27,1.3,41.86-8.19c36.81-30.12-6.79-42.06-32.58-18c-4.78,5.79-9.34,11.74-13.69,17.84  c-0.24,1.57-0.51,3.34-1.67,4.38c-10.69,9.66-35,14.02-49.13,15.59h-8.12l-0.36-4.34c5.46-9.71,11.65-18.91,18.57-27.6l4.32-0.66  l2.31-2.72c20.89-1.55,36.07-19.95,40.1-39.58c9.37-45.55-51.43-2.46-47.62,21.96c0.82,5.01,0.54,9.34-0.86,13  c0.84,0.64,2.02,1.73,1.69,2.4c-2.33,4.81-18.71,33.44-21.08,35.56l-4.29,1.98h-23.67l1.17-3.66  c18.61-11.25,25.41-31.87,21.84-52.72c-1.97-11.52-9.65-20.29-20.36-11.9c-17.19,13.47-21.56,43.02-14.49,62.74  c3.7,0.39,4.27,4.35,0.47,5.53h-46.33c-1.11,0.16-2.67-0.12-2.68-0.9c-0.27-20.56-0.13-41.48,0.6-62.01  c20.19-17.83,36.04-39.81,48.18-63.76l4.82-3.55l3.25-3.28c14.09-3.5,23.97-15,30.78-27.28l3.59-1.06  C1055.72,1399.18,1128.47,1421.91,1200,1448.91z" />
<path class="cls-14" d="M970.87,1177.3c7.72-3.77,18.52-2.9,25.53,2.06l1.54-2.51c18.82,2.27,37.64,4.55,56.47,6.82l1.26,2.85  l2.59,3.77l-0.28,25.96l11.88-0.5l1.71,2.57l1.36-2.74l9.96,0.51c0.03-6.76-0.11-13.58-0.4-20.46l2.55-3.75  c39.22,5.29,77.24,16.71,114.97,28.42v64.34l-1.45,2.47c-32.04-0.88-64.05-0.11-96.03,2.31c-0.01,2.56-0.19,4.78-3,5.75  c-0.51,2.73-2.71,3.94-6.58,3.62c-6.38-1.21-6.38-6.15-0.01-14.83c6.95-30.3-15.79-4.58-20.39,7.31c-5.16,2.96-6.68-0.22-7.13-5.21  c0.49-8.12-0.72-15.45-3.65-21.99c-4.05,6.95-6.53,14.81-7.47,23.56c-1.03,5.29-3.35,7.49-6.94,6.61  c-5.95-8.81-9.82-10.75-11.63-5.82c0.4,9.61-1.56,10.76-10.46,11.2c-3.48,0.17-11.43,0.14-11.42-3.95c-4.29,2.3-7.43-0.59-9.43-8.66  c-4.66-1.79-10.15-1.45-16.46,1.02c-23.94,0.79-47.86-0.04-71.76-2.48l-32.26-6.45l-1.59-2.76c5.48-9.74,3.35-22.48-7.42-27.03  l-0.59-2.95c-3.99-0.45-3.28-4.32,0.38-4.9l0.76-2.82c13.41-6.13,12.34-24.13,0.14-31.58l0.01-3.27l-1.5-2.78  c7.22-7.06,11.02-14.61,11.39-22.64l2.25-2.24c21.87-4.27,45.66-3.31,68.07-2.06C960.98,1174.34,965.97,1175.79,970.87,1177.3z" />
<path class="cls-9" d="M1181.25,0c0.73,0.97,1.42,1.97,1.93,3.05c0.5,1.05,0.95,2.06,1,3.09c2.88,61.58-24.36,124.59-65.45,169.57  c-19.46,21.3-43.75,42.69-71.11,52.27c-28.3,15.35-59.73,25.43-91.34,30.35l3.53-6.2c74.99-59.1,91.74-162.33,46.74-245.11l-0.74-7  H1181.25z" />
<path class="cls-12" d="M222.22,1187.79c2.56,0.3,4.91,2.07,7.05,5.3c3.44,1.78,5.96,4.04,7.54,6.76c3.01,1.93,2.39,4.99-1.17,5.53  l-0.59,3.16c-13.87,6.96-15.1,24.97-0.92,32.42l0.25,3.21c4.08-0.4,3.63,5.92-0.05,6.51l-0.29,2.95  c-10.19,6.04-13.61,19.49-5.42,28.84l-1.09,2.94l-3.08,3.62l-24.43,7.48c-7.73,3.92-15.54,6.86-23.44,8.82l-45.64-8.18  c-0.68-0.5-1.23-1.02-1.3-1.59c-0.12-0.93,8.8-12.76,10.28-14.17l3.06,0.53l1.94-1.88c12.36,0.51,21.31-11.36,24.92-22.09  c13.87-41.18-42-5.16-30.05,18.05l-1.43,2.78c0.85,0.73,2.21,1.9,1.93,2.47c-0.41,0.84-10.31,14.14-11.13,14.95  c-0.31,0.31-1.06,0.19-1.93-0.05c-4.57,0.13-9.07-0.45-13.51-1.57l-1.11-0.74c3.86-13.36,7.57-26.71,11.15-40.06l1.96-0.36  c3.84-3.98,7.28-8.26,10.32-12.84c12.57-22.35-9.77-58.18-21.38-18.82c-2.97,10.07-4.42,25.02,5.75,31.33l0.34,3.11  c1.66,2.11,1.7,4.89,0.11,8.35c-2.04,9.6-5.27,20.85-9.55,29.2c-15.8-0.34-31.48-3.96-47.18-5.51c-2.75-3.52-4.57-10.22,1.01-11.95  c2.55-12.89-23.88-29.69-33.97-25.34c-14.16,6.11,8.28,28.32,14.02,33.02l-1.08,2.9L0,1285.68v-105.8l1.56-2.5l177.31,9.98  l41.64-2.16L222.22,1187.79z" />
<path class="cls-14" d="M89.06,1107.51l2.61,1.34l-1.89,33.95c4.17,0.74,8.4,0.85,12.7,0.32l2.26,2.64l2.76-2.65l15.49,0.26  c-0.94-10.55-1.3-21.14-1.06-31.76l2.55-4.28c5.01-1.83,7.51-2.74,7.51-2.74c29.37,0.71,57.08,4.34,86.06,8.63  c1.22,0.18,2.38,0.79,3.58,1.43c1.21,0.65,2.34,1.46,3.45,2.31c5.25-2.03,4.86,2.49,3.64,6.66c-7.76,10.77-5.57,21.92,5.09,29.05  l0.76,3.12c3.97,1.6,2.98,4.75-1.22,5.39l-0.05,3.19c-6.81,4.6-11.06,12.77-9.03,20.99l-2.06,2.45l-43.45,2.24  c3.68-0.19-168.44-8.41-178.77-10.16v-60.27c1.21-1,2.45-1.94,3.78-2.72c1.33-0.77,2.63-1.52,4-1.8c24.3-4.93,47.84-7.88,72.55-9.73  c1.4-0.1,2.85,0.25,4.34,0.62C86.17,1106.34,87.62,1106.9,89.06,1107.51z" />
<path class="cls-12" d="M1013.85,1295.68c2.38,2.22,1.15,4.2-3.7,5.96c32.81-1.83,65.61-2,98.42-0.5c-3.77-1.64-6.79-3.63-9.04-5.96  c-0.02-2.54-0.1-5.52,1.33-7.63c1.36-2,89.43-5.09,99.14-2.9v126.07c-89.06-53.94-181.36-104.67-283.79-125.16  c23.54-3.84,48.12,3.09,73.63-0.46c5.62-0.78,9.78-4.48,15.82-0.52C1008.64,1286.52,1007.96,1294.78,1013.85,1295.68z" />
<path class="cls-3" d="M1181.25,0H1200v226.04c-8.67,1.56-20.27-3.18-28.63-0.65c-17.61,8.27-30.47,3.14-48.22-0.81  c-14-3.11-60.2-1.89-75.53,3.4C1130.18,183.18,1186.43,95.35,1181.25,0z" />
<path class="cls-7" d="M199.63,927.99c3.43,0.17,3.05,4.48,2.02,7.22c-2.33,6.22-6.42,6.53-12.54,6.4c-2.13,1.89-4.95,1.95-8.45,0.18  c-0.01,1.15-0.95,1.85-2.81,2.1l-2.74,1c-8.16-8.9-17.24-16.8-27.24-23.69c-6.23,7.04-14.73,10.34-25.49,9.92  c-3.42,5.96-8.04,10.24-13.85,12.84c-0.5,36.86-0.58,73.83-0.25,110.89l-2.68,1.62c-4.32,3.73-13.53-4.78-13.26-10.31  c-9.12-3.38-13.66-18.01-16.22-27.32c-1.44-5.26-2.16-10.67-2.59-16.1l-1.26-0.48c-9.8,12.57-21.76,23.48-35.51,31.59  c-7.29,4.3-24.36,12.63-32.34,12.67c-1.68,0.01-3.16-0.94-4.46-1.91V989.7l1.51-4.36c13.29-16.23,26.32-32.7,39.09-49.42  c-5.32,1.84-11.64,2.64-15.88-1.79c-2.28-2.38-3.51-4.51-0.36-6.31l2.83-3.83c18.42-6.81,32.01-20.87,41.11-38.01  c2.61-2.88,4-1.01,5.86,2.15c1.87,15.87,10.85,31.48,28,33.19l2.29,2.84l1.96-2.63c23.36,2.37,31.55-17.39,30.93-38.05  c2.19-6.66,6.02-4.25,11.49,7.22c11.04,16.89,27.88,28.75,47.42,33.72L199.63,927.99z" />
<path class="cls-2" d="M60.16,690.07l1.94,2.2c-4.79,9.47-8.88,19.15-12.28,29.04l0.7,3.01c3.67-0.03,7,0.33,10,1.09  c5.98-3.42,13.5-0.38,18.21,4.15c2.33,2.25,4.17,5.55,0.76,7.24c0.75,0.88,1.47,2.23,0.85,2.97C65.66,755.62,51,772.17,39.04,790.4  c-2.22,3.38-17.11,27.25-8.87,29.14c3.98-0.51,7.21-0.1,9.7,1.23c2.06,1.81,3.66,4.57,4.78,8.29l7.59,6.02l-0.1,3.09l0.67,2.94  c-15.73,15.39-47.29,54.98-43.68,77.47c1.07,6.68,6.34,7.53,12.42,7.13l2.79,2.11c1.04,4.3,3.69,6.4,7.32,6.86  c4.89,0.62,8.23-2.35,14.64-2.2C31.86,953.18,16.12,971.77,0,989.7V764.71c1.68-7.87,4.75-15.24,9.22-22.13  c-4.66,1.14-7.73,0.48-9.22-1.98v-12.05c15.58-40.78,24.16-84.33,32.71-127.38l19.11,76.81C53.06,682.92,56.3,688.56,60.16,690.07z" />
<path class="cls-2" d="M92.36,1046.16c1,2.09,1.97,4.32,1.96,6.68c-0.05,9.16-0.89,46.4-3.3,51.52c-0.52,1.11-1.21,2.14-1.95,3.15  c-29.93,1.66-59.91,5.11-89.06,12.1v-75c30.84-4.9,58.64-25.68,76.1-52.27C75.29,1012.42,80.62,1030.69,92.36,1046.16z" />
<path class="cls-1" d="M893.31,1407.57l1.79,0.09c1.16,18.93,1.54,38.23,1.17,57.9c15.09-15.93,29.18-33.57,36.4-54.58l3.81-3.24  c-0.16-4.56,3.77-13.82,6.87-17.6c3.52-4.29,9.3-8.3,10.17,0.09c0.52,4.97-4.03,20.73-9.56,22.36  c-12.89,25.66-28.25,49.44-50.81,68.54l-0.11,61.69h-6.56c1.33-6.05-0.85-10.36-4.52-15.31c-15.01-20.27-22.38-43.47-30.03-66.64  c-6.44-1.98-6.98-24.08-2.28-25.38c4.43-1.22,14.2,17.14,9.9,21.81c3.7,22.5,12.58,44.4,26.64,65.08l0.19-113.66l-2.56-3.25  c-0.43-5.97-0.3-36.55,5.56-36.95c6.59-0.44,7,30.21,6.53,35.95L893.31,1407.57z" />
<path class="cls-8" d="M950.71,1542.81h-5.32l-2.81-1.74l1.67-18.74l-2.31,14.24l-3.06,0.71c-17.06-18.41,3.75-73.54,25.55-68.13  c3.04,0.76,7.27,2.97,9,7.18C983.5,1500.74,974.26,1531.18,950.71,1542.81z" />
<path class="cls-1" d="M829.1,1542.81h-7.23c4.8-10.01-66.7-19.48-77.43-26.69c5.29-7.19,11.85-0.33,20.07,0.08  c-1.77-4.03-6.26-7.87-10.3-9.62c-0.64,0-1.25-0.05-1.81-0.26c-0.98-0.38-12.51-14.24-13.12-16.04c-1.62-4.77-0.95-7.5,4.61-6.78  c1.16,0.15,16.84,13.22,15.44,16.54c19.62,16.57,6.27,19.02,53.64,28.06c-5.1-19.02-22.88-30.55-22.71-50.52  C806.89,1497.7,816.79,1521.57,829.1,1542.81z" />
<path class="cls-1" d="M1041.91,1531.91c-8.09,4.48-18.97,5.43-26.89,10.9h-25.29c17.65-5.02,35.94-9.23,50.8-19.97  c0.69-4.88,15.97-10.82,18.92-10.08c4.95,1.25,4.94,1.82,2.75,6.1C1060.34,1522.5,1046.47,1534.59,1041.91,1531.91z" />
<path class="cls-1" d="M1004.13,1510.22c-9.17,9.1-15.15,21.62-22.52,32.6h-7.22l23.67-39.93c0.85-5.73,10.97-20.61,16.76-14.73  C1018.05,1491.42,1008.71,1509.33,1004.13,1510.22z" />
<path class="cls-10" d="M1200,749.54v28.6l-15.53-28.81C1190.76,748.33,1195.24,749.5,1200,749.54z" />
<path class="cls-8" d="M0,764.71V740.6c4.49-0.3,8.62-1.22,13.86-0.3L0,764.71z" />
<path class="cls-1" d="M945.4,1542.81h-6.04c0.51-1.64-1.05-4-0.47-5.53c2.84-7.51,0.67-16.28,6.58-24.16  C949.42,1523.09,944.29,1532.95,945.4,1542.81z" />
<path class="cls-16" d="M554.22,125.34c-7.54,1.28-16.62,1.68-22.26,6.81c-5.72,5.21-4.74,15.13-7.66,23.25  c-1.61-7.25-1.5-16.24-6.09-22.16c-4.63-5.96-14.96-6.3-22.55-8.31c6.76-2.44,16.22-2.05,21.33-6.52  c6.18-5.41,5.14-15.44,7.89-23.67c2.82,7.34,1.11,17.64,7.39,23.7C538.04,124.01,547.3,121.99,554.22,125.34z" />
<path class="cls-16" d="M584.66,74.49c-3.11-5.14,0.01-11.25-5.11-14.52c-4.36-2.78-9.23-4.21-15.62-4.79  c6.37-4.86,12.7-2.25,16.07-6.46c3.82-4.77,3.47-10.72,4.71-16.84c3.28,5.65,0.93,12.1,4.9,16.72c3.86,4.49,10.37,2.2,16.57,7.03  c-6.15-0.56-10.06-0.2-14.39,2.57C586.79,61.39,587.13,66.04,584.66,74.49z" />
<path class="cls-16" d="M429.55,78.36c-3.91-4.28,1.77-7.98-2.55-10.82c-3.78-2.48-6.91-4.66-11.98-5.19  c4.43-1.53,8.69-0.95,12.14-4.04c3.16-2.84,1.8-7.6,4.35-11.7c0.65,3.62,0.77,10.31,4.49,12.74c2.44,1.59,5.85,2.36,10.95,3.23  c-5.39,5-9.48,0.94-12.38,4.3C432.03,69.83,433.67,74.1,429.55,78.36z" />
<path class="cls-16" d="M756.17,109.44c-0.28-7.22-5.41-10.43-13.04-12.15c3.37-0.34,6.09-0.44,8.81-1.99c2.94-1.67,2.57-4.59,4.56-8.7  c1.25,6.85,5.32,10.48,12.14,11.1C762.39,99.03,758.34,100.71,756.17,109.44z" />
<path class="cls-16" d="M347.92,142.64c-1.62-3.25-0.72-5.76-2.76-7.64c-2.08-1.92-4.28-2.65-7.74-3.07c3.05-1.67,6.06-1.33,7.89-2.92  c3.07-2.67,1.11-5.49,2.67-9.31l2.58,8.43c0.66,2.16,4.25,2.54,7.27,3.79c-2.93,1.7-5.2,1.94-6.67,2.96  C348.51,136.71,350.74,139.46,347.92,142.64z" />
<path class="cls-16" d="M138.66,56.15c-1.25-2.71-0.74-5.16-2.31-6.95c-2.13-2.44-4.42-2.49-7.91-3.19c5.84-0.95,10.28-3.18,10.83-9.68  c1.14,6.02,4.4,9.12,10.9,9.85C144.55,47.15,140.35,48.11,138.66,56.15z" />
<path class="cls-16" d="M60.25,154.49c-2.55-6.78-0.44-17.15-7.11-22.64c-4.4-3.62-12.96-6.27-20.54-5.87  c8.17-5.36,16.45-2.58,21.55-8.24c4.84-5.37,3.95-13.96,7.14-21.34c2.9,7.9,2.21,16.92,7.39,21.92c5.62,5.43,14.62,4.08,22.43,7.02  c-7.37,0.4-15.09,3.43-21.58,6.77C62.1,135.93,64.66,146.34,60.25,154.49z" />
<path class="cls-16" d="M774.16,883.67c5.59,2.94,10.5,7.48,14.75,13.64c9.48,8.79,17.99,18.2,25.5,28.23l0.02,2.86l5.47,3.97  c24.11,28,49.28,55.04,75.52,81.1c3.08,3.24,5.39,7.11,7.55,11c4.67-1.51,12.34,9.11,11.81,13.5c4.89-1.86,12.65,9.42,10.63,13.52  c1.5,5.71-4.31,4.79-8.12,2.84c-35.45-35.72-69.95-72.78-103.48-111.18l-27.5-34.57c-8.55-10.51-18.16-21.34-31.56-25.18l-1.9-3.17  c-1.43,1.96-3.84,3.34-7.21,4.15l-6.15,5.33c-38.61,46.94-79.21,92.12-121.81,135.54c-18,10.74-75.74,36.52-94.36,28.66  c-22.68-9.57,0.46-28.09,11.37-35.44l17.88-11.02c-48.25,19.45-97.26,38.06-147.9,49.75c-19.19,4.43-31.02-18.25-17.77-32.85  l87.98-97.8c8.4-4.17,7.49-5.49-2.73-3.97c-7.64,3.93-16.33,5.27-26.07,4.03l-2.63-2.74c-4.77-3.98-4.49-16.51-0.42-21  c-3.76-0.11-3.6-2.05-0.1-3.18l-2.67-1.53c-0.75-3.64-0.99-16.83,2.8-18.06c-3.7-0.73-3.21-2.55,0.41-3.05  c4.96-1.13,9.93-2.2,14.94-3.07c5-0.87,9.99-1.73,15.02-2.15c65.4-5.42,130.91-9.96,196.46-13.07c5.04-0.24,10.1-0.04,15.17,0.18  c5.08,0.22,10.14,0.64,15.21,1.12C728.4,858.86,755.85,857.39,774.16,883.67z" />
<path class="cls-8" d="M700.27,860.05c-85.71,3.62-171.32,9.59-256.79,16.99c-3.55-1.76-4.47-11.75-0.39-13.2  c-4.1-0.65-3.8-11.01,0.21-11.95c1.12-2.36,2.8-2.88,5.1-2.81l0.06-13.45l-34.16-1.32l-1.87-2.75c-2.12-11.27,2.1-21.84,3.57-33.39  c3.8-29.91,25.65-51.02,57.35-49.59c19.36,0.88,38.91-4.73,51.91-20.31c51.85,8.39,91.72,50.47,100.09,103.93  C653.85,830.51,682.36,838.93,700.27,860.05z" />
<path class="cls-7" d="M1128.76,724.45c-0.2,0.63-0.89,1.12-1.1,1.74l-2.72,2.67c-8.18-0.92-16.18-2.75-23.99-5.51  c5.39,9.49,11.03,18.77,16.9,27.84c5.44,4.12,8.28,9.05,8.51,14.78c8.45,11.55,16.34,24.33,27.97,34.34  c-15.03,1.11-26.03-2.54-40.76-3.45l59.93,73.42c-19.5-0.21-38.2-0.5-55.29-6.53c-1.88-1.94-3.1-4.82-3.66-8.62  c-21.19-36.08-35.69-78.13-43.12-119.79l-1.84,0.01c-13.3,44.13-28.74,87.52-46.31,130.18c10.03-2.44,18.56-8.56,25.6-18.36  c2.62-2.03,4.82-1.68,6.72,1.11c3.93,13.96,8.62,18.67,14.09,14.14l3.09,0c2-3.76,4.66-7.37,7.96-10.83  c4.15-12.71,8.73-13.96,13.74-3.75c4.73,5.96,10.97,10.57,18.15,13.14l1.8,3.39c1.53,4.23,6.81,12.52,1.83,15.42  c-7.57,4.4-16.22-1.15-23.38-0.69c0.15,1.41,2.16,0.51,2.7,2.21l-1.3,2.71c-6.98,3.17-13.93,6.56-20.84,10.17l-2.11-2.35  c-2.84,6.14-12.44,0.36-16.88-2.46l-8.61-7.28c-14.26,13.46-27.01,28.12-38.25,43.97l-4.25,2.1c2.17,3.79-4.28,9.41-8.97,5.87  c0.51-4.63-2.27-4.04-8.33,1.79c-9.33,0.33-23.6-5.62-31.56-10.71c-3.45-1.09-4.67-2.85-3.64-5.29l-3.3-1.47  c-18.22,7.37-23.75-1.96-13.79-17.66c2.13-3.35,6.61-9.86,10.27-6.25c1.74-1.1,4.08-1.23,6.99-0.39c6.53-2.04,11.73-1.59,15.6,1.35  c4.26,9.36,7.15,11.86,8.67,7.5c3.51-11.72,5.72-13.51,16.22-5.85c6.59,4.92,12.16,5.66,16.73,2.21  c-8.51-20.3-14.95-41.19-19.33-62.67l0.9-3.4c14.12-9.15,23.94-23.65,37.93-35.72l-35.98,3.86c22.74-25.89,40.87-53.9,57.95-83.58  c-10.94,2.95-19.35,7.63-29.26,6.4c23.91-30.3,37.28-64.63,52.35-99.51C1086.01,660.17,1100.94,698.69,1128.76,724.45z" />
<path class="cls-8" d="M865.08,636.49c-4.58,8.8-7.39,18.49-9.81,29.03c-42.66-19.9-90.85-20.03-133.75,4.55  c-35.38,20.28-62.86,57.19-70.14,102.08c-15.28-49.67-59.17-83.96-110.47-84.79c1.35-17.86-6.24-34.87-17.18-48.58  c11.01-7.39,23.33-9.21,37.34-8.35l47.91,2.96c16.52,1.02,29.83,0.93,47.42-0.42c15.56-1.19,30.59,4.29,46.75,0.72  c22.96-5.07,47.21,0.62,71.41-2.82c18.59-2.64,38.59,4.19,57.05,0.56C845.19,628.78,853.66,629.05,865.08,636.49z" />
<path class="cls-14" d="M989.79,833.18c6.03,21.43,11.5,43.27,21,64.34c1.9,4.21-5.63,6.96-8.56,7.02  c-1.57,0.04-20.62-8.34-19.94-11.34c-3.57,5.84-3.24,11.61-8.42,15.62c-5.82-1.84-6.96-9.93-10.84-13.5  c-6.26-0.38-13.72,3.89-19.01-0.9c-2.71-4.21-2.53-9.61,0.55-16.2c1.33-7.27,4.4-12.51,9.21-15.72c-2.2-3.72,4.3-23.26,6.57-24.51  c0.69-0.38,1.47-0.63,2.26-0.83c6.33-15.21,9.63-30.59,14.65-48.6L989.79,833.18z" />
<path class="cls-5" d="M962.6,837.17c-3.43,8.24-4.9,17.13-8.83,25.35c-0.66,0.81-1.35,1.57-2.15,2.2c-6.57,5.09-59.15,2.6-70.99,1.68  l-4.86-2.7c-4.71,1.97-10.05,2.55-16.02,1.76c3.31,3.61,4.51,6.73,3.61,9.38l4.03,2.66c9.17,17.1,20.3,32.95,33.4,47.55  c1.55,2.72,0.34,4.38-2.09,5.91l-79.52,0.13l-4.74-2.67c-12.36-15.54-28.8-28.26-40.28-44.73l22.49-29.95  c-10-0.96-18.14,1.7-28.8,2.6c6.76,0.22,54.18-73.64,29.99-61.31c9.39-27.4,16.68-54.94,23.11-84.78  c8.16,29.13,15.76,56.24,27.44,84.16c-2.88,1.89-5.62-0.02-9.15,1.5c7.28,16.73,14.05,33.16,23.74,48.55l24.94-36.64l-27.44,2.15  c6.21,0.54,53.67-78.71,29.74-65.73c9.03-27.99,17.1-56.3,22.65-85.64c8.07,30.08,15.28,58.02,27.18,85.57  c-3.5,0.45-6.02-0.77-9.38,0.71c8.91,23.53,18.04,46.23,33.12,66.53c-8.97-0.9-15.48-4.02-23.21-3.07L962.6,837.17z" />
<path class="cls-16" d="M565.1,492.7c-6.16,23.37-24.11,38.68-46.9,45.32c-36.35,10.58-60.17,46.71-57.53,82.89  c0.88,12.03-0.82,19.26,2.05,32.46c4.6,21.18,0.27,55.19-21.24,67.37c-33.08,18.73-44.77,42.65-49.08,78.72l-19.16-39.5  c-15.77-32.51,4.39-76.59,41.58-81c12.39-1.47,24.3,1.06,30.17-11.24c12.36-25.88-15.15-34.08-27.14-55.63  c-25.99-46.74,11.38-112.81,71.77-126.84C521.6,477.83,549.93,498.58,565.1,492.7z" />
<path class="cls-11" d="M412.44,831.55l38.72,1.42l-0.07,18.41c-3.11,0.56-5.4,0.59-7.78,0.5c-1.1,0.64-2.21,1.23-3.38,1.66  c-4.8,1.75-27.67,0.99-34.66,0.47c-2.27-0.17-4.31-1.3-6.22-2.46c-1.95,3.81-6.4,2.4-6.74-1.48c-4.24-4.51-4.25-14.02,0.27-18.32  L412.44,831.55z" />
<path class="cls-6" d="M391.24,831.43c0.76,0.11,1.16,0.33,1.34,0.33c-0.53,6.09-0.41,12.22-0.27,18.32  c-0.04,1.05-0.26,2.64-0.99,2.76c-5.85,0.95-33.69,3.58-38.16,2.8l-2.12-2.53c-3.44,0.25-6.35-0.5-9.11-0.29l1.21-20.11  L391.24,831.43z" />
<path class="cls-13" d="M1005.8,0c50.18,89.98,33.7,194.52-49.53,258.32c-45.94,24.67-97.03,36.88-149.89,37  c-9.92,0.02-19.9,1.06-28.39,4.67c-33.07,4.8-61.15,23.98-76.2,52.02c-15.45,28.79-10.62,62.07,10.75,88.07  c39.09,47.58,32.07,111.93-12.43,153.06c-37.41,34.58-89.73,41.9-133.69,14.47c-8.58-5.35-19.19-8.49-29.17-9.15  c-16.5-1.09-30.36,11.51-29.85,27.03c-14.5-2.61-27.64-10.17-42.98-2.39c18.79-45.16,62.23-56.47,105.71-47.54  c53.53,10.99,103.34-24.14,107.25-77.31c1.81-24.6-6.91-46.78-19.14-67.89c-19.68-33.99-27.26-74.06-12.41-111.57  c12.57-31.74,39.93-52.41,70.79-65.51c30.62-13,61.91-15.05,95.29-19.29c45.82-5.83,87.79-32.68,117.54-66.45  C971.32,120.01,973.15,53.31,941.52,0H1005.8z" />
<path class="cls-13" d="M853.21,389.64c2.63,25.66-12.48,49.89-35.16,59.66c-24.9,10.73-52.24,3.11-68.31-17.08  c-16.81-21.12-15.87-48.6-1.96-70.87c16.01-18.95,39.41-28.54,64.3-21.25C833.69,346.42,850.79,366.05,853.21,389.64z" />
<path class="cls-16" d="M985.61,398.03c-0.43-0.17-1.06,0.03-1.47-0.19c0.19-3.79,0.25-8.54-3.98-9.61c-1.51-0.56-3.59-1.64-3.68-3.85  c-2.2-0.52-4.6-0.68-6.95-2.14c4.57-1.45,9.08-1.05,11.9-4.19c2.55-2.84,2.89-7.26,3.7-11.22c1.99,4.55,1.45,9.09,4.37,11.8  c2.77,2.57,6.89,2.38,11.02,3.71c-4.12,1.5-9.15,1.27-11.76,4.47C986.16,389.99,985.91,394.27,985.61,398.03z" />
<path class="cls-16" d="M1133.9,455.2c-2.91-9.6,0.22-11.53-12.96-15.73c3.61-1.92,7.31-1.5,9.17-3.85c2.49-3.14,2.82-6.89,3.52-11.12  c1.81,3.46,1.55,7.29,3.46,10.18c2.31,3.5,6.25,3.15,11.84,5.14C1140.26,439.53,1134.58,444.6,1133.9,455.2z" />
<path class="cls-16" d="M995.01,536.34l-2.24-6.89c-0.72-2.22-3.95-1.98-8.23-3.77c3.39,0.85,5.54-1,7.3-2.05  c3.18-1.91,1.25-5.66,3.28-8.76c1.88,3.05-0.07,7.1,3.18,8.7c1.82,0.89,3.98,3.51,7.23,2.04c-4.41,1.36-6.04,2.33-7.56,3.18  C995.67,530.08,997.34,533.4,995.01,536.34z" />
<path class="cls-16" d="M868.91,560.35c-0.56-16.52-10.51-27.81-27.33-27.23c8.93-5.57,17.24-2.62,21.82-9.17  c4.12-5.88,4.1-14.54,6.46-21.87c2.47,7.92,1.69,16.79,6.65,22.84c4.74,5.77,14.86,4.58,22.07,7.25  c-6.91,1.73-14.97,2.42-20.66,6.19C871.79,542.42,873.27,550.74,868.91,560.35z" />
<path class="cls-12" d="M351.81,875.65c2.52-0.66,2.69,0.37,0.25,1.54c3.57,0.32,3.45,1.57,0.08,2.7c4.25,4.42,3.75,15.19-0.04,19.87  c3.6,1.39,3.66,2.66,0.17,4.32c3.43,4.44,3.27,14.23-0.07,18.7c3.55,1.53,3.52,2.85-0.09,4.23c3.47,5.25,3.49,14.38-0.12,19.55  c3.61,1.41,3.68,2.73,0.2,4.44c3.72,3.13,2.39,12.02,1.29,16.18c12.95-0.65,25.96-1.48,39.04-2.48l5.46,2.21l1.62-2.87  c8.55-1.12,16.39-5.38,20.19-13.37l3.17-0.96c-0.08-1.45,0.9-2.41,2.92-2.87l-0.02-3.01c8.59-3.04,13.5-8.02,14.74-14.95l2.32-1.82  c-3.29-1.72-3.12-2.76,0.53-3.22c41.3,1.01,12.76-5.46,39.47-3.99c2.38,0.13,2.45,3.28,0.29,4.52l-5.78,3.31l-87.22,96.84  c-5.85,6.49-8.11,15.96-4.54,22.56c3.24,5.97,13.47,8.98,21.99,6.88c55.15-13.6,108.09-34.2,162.02-56.53  c-10.52,14.16-61.79,31.32-51.37,49.69c10.04,17.7,84.41-14.87,97.67-23.96c43.81-41,79.43-88.13,119.04-132.54  c4.89-5.48,10.59-11.75,17.82-10.41c2.03,1.17,3.09,3.52,3.19,7.03l4.81,13.03c1.32,4.91,0.33,7.55-2.99,7.92  c0.03,2.28-1.42,4.18-4.35,5.72c-2.7,4.33-5.66,6.3-8.9,5.94c-1.74,3.53-3.6,7.06-6.26,9.98c-37.56,41.25-75.01,82.52-111.34,124.91  c-8.64,11.14-18.59,20.26-29.85,27.38c-3,3.89-7.52,5.7-13.56,5.44c-140.4,0.8-281.04,1.15-421.93,1.07l-3.63-2.68  c-5.34,0.61-6.58-7.94-6.36-12.33c0.52-10.09,14.68-23.81,23.42-27.96c-2.27-4.2,4.14-9.13,8.36-7.85c1.14-2.77,2.36-5.61,4.43-7.82  c8.69-9.3,17.76-18.7,26.76-27.7c2.14-2.14,4.98-3.42,7.72-4.62l0.11-4.08c9.64-8.34,18.45-17.4,26.43-27.2l3.84-1.16  c0.36-2.48,2.16-4.66,5.38-6.54l8.12-10.08l3.08,0.62l0.01-3.77c8-6.34,15.54-13.06,22.62-20.17c-2.95-2.09-1.94-3.51,1.33-3.98  C311.16,913.67,325.44,882.97,351.81,875.65z" />
<path class="cls-7" d="M107.2,802.45c-3.4-4.11-0.95-20.57,5.98-16.42c2.58,5.34,25.23,38.21,31.54,29.65  c0.75-6.75-0.34-13.66-3.26-20.73l1.98-3.76c6.17,1.67,12.27,4.24,18.31,7.74c6.76,1.74,12.23,4.58,16.43,8.53  c2.21,0.58,3.98,2.46,5.32,5.64c17.53,15.09,17.9,23.91,1.11,26.45c-1.2,12.31,8.32,5.68,13.92,0.57c4.01-6.22,7.62-7.83,10.83-4.81  c9.92,26.74,25.18,25.89,27.9-3.18c3.59-7.57,17.56,6.8,21.23,11.19l0.04,3.22c-6.38,8.7,27.05,26.94,10.38,29.82  c-3.88,0.67-6.75,0.93-10.14,0.93l-2.16,1.97l-13.53-6.05c-8.74,14.16-22.41,2.55-28.21-7.79c-4.1,5.63-9.15,10.33-15.13,14.08  l-2.68-1.86c-6.32-3.78-11.77-9.09-16.33-15.95c-8.23-9.71-17.38-18.41-27.43-26.11c-0.82,24.72-30.44,11.56-41.82,1.69l-0.08-3.33  c-2.08-0.55-3.12-0.82-3.12-0.82c-8.32,17.44-32.69,28.92-39.76,4.19c-4.68,2.37-13.6,6.85-16.34,0.88  c-7.09-4.34-13.32-8.42-12.28-17.4l2.68-5.01c0,0,7.35-6.44,22.04-19.31c3.63-5.54,8.01-9.45,13.14-11.75l2.96,1.47  C81.64,804.97,93.29,830.83,107.2,802.45z" />
<path class="cls-16" d="M137.58,738.85c7.14,11.09,19.73,17.26,27.34,28.5c3.21-1.78,5.2-0.59,3.94,3.09  c6.68,2.47,14.39,11.85,15.99,18.77c5.39,0.13,6.18,5.75,6.48,10.42c0.52,8.3-8.46,14.29-13.16,7.82  c-11.98-2.92-23.23-8.36-34.44-14.78c0.85,6.08,8.88,23.3,0.85,26.24c-12.06,4.41-28.54-23.93-34.57-32.81  c-0.55,6.25-1.65,11.28-2.81,16.34c-3.34,11.6-17.17,16.21-22.15,3.31c-2.41-6.24-5.43-20.07-1-24.94c-1.05-0.1-2.62-0.41-2.7-1.15  c-0.65-5.93-1.64-32.53-0.64-37.23l2.65-1.98l4.05-0.74c14.76,8.73,32.05,9.56,46.05-1.11L137.58,738.85z" />
<path class="cls-9" d="M258.51,846.53c-6.46-3.8-11.48-11.92-18.42-15.37c-1.62,10.42-3.43,26.6-15.38,26.39  c-10.25-0.18-13.71-15.06-18.72-22.58c-3.6,6.49-17.62,20.26-23.24,11.34c-1.62-2.57-1.76-5.59-0.34-8.21  c1.66-3.06,12.21-1.84,12.71-7.21c0.33-3.54-18.13-16.88-16.95-23.44c3.94,0.96,10.9-1.3,10.66-5.57  c-0.18-3.25-0.98-9.94-3.97-12.68l3.03-2.81c13.56-0.58,27.49-1.96,39.56-8.65l4.03,0.7c-0.49,3.08,1.98,5.13,4.75,7.43  c20.64,17.16,39.97,39.82,45.81,66.96C272.83,856.24,265.38,850.56,258.51,846.53z" />
<path class="cls-9" d="M258.75,877.27c13.35,14.1,26.06,26.79,34.55,44.09c0.17,1.54-0.63,2.73-1.33,3.98  c-6.25,10.72-21.09,16.82-30.98,8.24c-2.54,2.56-5.44,1.56-8.7-3c2.08,24.49-25.15,19.46-35.94,5.52l-4.9-2.36  c2.49,4.47-6.81,9.69-10.77,10.92c-3.91,1.21-11.72,2.36-11.58-3.04c2.91-1.34,6.83-2.25,8.45-4.22c2.45-2.99,1.86-6.45,2.07-9.4  c0.25-1.1,0.77-2.24,1.8-2.46c3.06,0.09,10.4-1.01,11.56-3.86c3.3-8.11-12.36-33.67-17.24-41.22l1.29-2.84  c7.83-2.39,12.25-10.52,17.65-17.54c4.59,7.44,12.25,20.19,22.06,16.23c2.07-0.84,3.72-3.68,4.95-6.66L258.75,877.27z" />
<path class="cls-16" d="M131.18,642.72c6.94,27.68,17.13,51.76,29.79,77.09c0.97,1.93,1.26,4,1,6.16c-6.57,0.64-10.99-3.12-16.18-4.43  l-2.73,1.05l-16.78-16.94c-0.14,6.68-1.03,19.38-7.25,23.14c-5.94,3.59-18.31,0.85-15.93-6.99c-0.8-1.39-1.54-2.79-2.1-4.27  c-0.55-1.46-1.08-2.89-1.16-4.33c-0.55-10.26-0.66-20.51-0.71-30.78c-0.17-31.26,0.61-64.59,1.94-95.83l2.13-17.33  c0.92-2.79-0.46-7.32,1.99-9.44L131.18,642.72z" />
<path class="cls-14" d="M103.11,721.81c-5.35,3.17-11.28-5.27-14.12-9.71c-1.68-2.64-2.84-5.58-3.95-8.48  c-5.29,8.92-14.03,20.13-24.53,21.8c-3.18,2.64-9.73,2.64-11.93,0.79c-1.9-1.59-1.8-6.87-0.4-9.93l11.98-26.2  c18.19-39.77,29.82-80.57,43.05-120.8C105.79,619.61,99.16,670.8,103.11,721.81z" />
<path class="cls-14" d="M215.5,766.01c2.58,2.85,0.58,4.62-2.78,2.6c-6.19,3.8-14.89-5.66-18.4-10.54c-5.06,2.09-9.78,5.34-14.14,9.77  c-4.51,4.44-8.28,5.3-11.31,2.6c-1.09-1.06-2.97-1.65-3.94-3.09c17.62-40.69,26.21-83.71,38.68-125.96  c2.13-4.37,6.02-2.52,4.69,2.51c3.74,37.85,7.14,76.33,10.19,115.45L215.5,766.01z" />
<path class="cls-16" d="M236.95,772.61l-3.21,1.23l-11.86-9.99c-2.01,2.48-4.14,3.2-6.38,2.16c3.02-2.45-12.83-132.58-8.38-123.43  c-0.49-1-1.74-1.7-3.51-1.19c0.11-0.39-0.17-0.88-0.09-1.28c-0.64-0.44-0.53-0.84,0.22-1.21c-0.03-0.38,0.14-0.79,0.08-1.17  c0.9-1.08,1.37-2.5,1.43-4.27c0.88-1.67-0.33-4.59,3.11-5.6c9.9,50.61,26.8,97.72,45.7,146.14  C248.13,776.54,241.62,775.06,236.95,772.61z" />
<path class="cls-7" d="M103.11,721.81c1.91,2.03,3.91,5.2,6.57,5.56c3.61,0.49,7.64,0.65,9.71-2.59c4.93-7.72,3.75-16.66,4.53-25.33  l21.87,22.09c-4.15,4.79-7.2,11.05-8.21,17.3c-17.42,14.01-35.36,13.07-54.21,1.62c-3.53,2.14-3.96-0.72-3.89-3.67  c-1.95-8.87-10.72-9.96-18.97-11.39c10.46-8.68,21.84-16.42,24.68-30.58C88.17,706.53,92.49,716.5,103.11,721.81z" />
<path class="cls-7" d="M194.32,758.07c3.19,6.11,7.27,9.83,12.25,11.18l6.15-0.63c1.05-0.33,1.96-2.09,2.78-2.6  c2.1-1.3,3.81-3.77,5.42-6.34c5.88,4.37,10.28,9.94,16.03,12.95c-2.74,0.75-3.42,4.51-5.47,5.84  c-13.87,8.93-30.32,10.12-46.61,10.76c-6.03-5.53-11.15-12-15.99-18.77c7.16,0.59,22.7-17.89,23.88-15.51L194.32,758.07z" />
<path class="cls-6" d="M443.3,851.88l-0.21,11.95l-0.92,2.67c-13.88-0.28-27.66-0.2-41.36,0.27c0.67,4.79-0.37,7.79-3.13,9l-0.57,1.8  c-14.64,0.58-29.35,0.9-44.11,0.94l-0.94-1.34l-0.25-1.54l0.51-13.09l1.2-2.68l41.2,0.01c0.29-4.48,1.73-7.26,4.32-8.33  C413.37,850.9,427.73,851.29,443.3,851.88z" />
<path class="cls-3" d="M399.04,851.56l-1.47,11l-45.25-0.01c0.12-3.16-0.16-6.5-1.28-9.44l41.27-3.03  C394.28,849.85,396.34,851.69,399.04,851.56z" />
<path class="cls-15" d="M161.97,725.97c-16.53-24.85-25.99-53.78-30.79-83.25l32.89,78.15c0.54,1.28,0.62,2.94,0.21,3.82  C163.97,725.36,162.9,725.88,161.97,725.97z" />
<path class="cls-14" d="M203.82,637.73c-0.25-1.61-0.05-3.35,1.43-4.27c1.35-0.02,1.04,1.36,1.07,2.05  C206.41,637.17,205.25,638.42,203.82,637.73z" />
<path class="cls-16" d="M42.71,424.32l-3.38,11.98c-1.85-6.73-1.5-12.01-4.66-16.19c-2.83-3.73-8.44-5.01-13.2-5.15  c-10.67-3.92,9.49-2.3,11.93-5.76c3.79-5.38,6.93-15.01,6.06-19.26c2.72,6.1,1.66,13.13,6.18,18.67c3.17,3.88,10.3,1.61,16,5.98  C52.16,416.69,43.69,415.75,42.71,424.32z" />
<path class="cls-16" d="M357.48,419.31c3.27,3.26,7.36,4.43,12.24,3.89c1.42-1.63,3.07-1.17,3.51,0.9c-4.18,4.01-11.35,2.8-14.81,5.15  c-5.5,3.73-5.57,12.44-6.86,17.99c-1.92-5.24-1.92-12-5.2-16.08c-4.23-5.26-11.67-4.11-16.94-5.39l15.51-5.2  c5.56-1.86,2.93-10.21,7.04-16.32C353.93,409.96,353.58,415.42,357.48,419.31z" />
<path class="cls-16" d="M277.77,342.79c-0.95-3.03-0.62-5.79-2.35-8.07c-1.97-2.59-4.57-2.93-7.67-3.19c3.15-1.93,5.88-1.48,7.57-3.5  c1.82-2.18,1.34-4.83,2.56-8.05c1.34,2.88,0.83,5.8,2.78,7.98c2.22,2.49,5.51,2.22,8.74,3.55c-3.38,1.15-6.07,0.36-8.26,2.37  C279.07,335.75,278.99,337.95,277.77,342.79z" />
<path class="cls-10" d="M254.51,1387.31l2.73,3.49c-0.9,13.82-4.53,26.99-10.89,39.52c22.03-21.91,63.68-9.85,43.19,23.36  c11.08-5.24,21.76-6.36,32.04-3.35c7.07,2.93,18.73,14.11,10.56,20.17l-280.56-0.03c-6.5-1.84-3.84-9.04-1.61-14.08  c10.25-23.14,39.18-19.5,58.34-10.1c-15.72-17.64-29.37-54.25,0.53-65.77c22.53-8.68,44.78,6.07,53.78,26.79  c1.51-10.66,4.11-26.53,11.3-34.82l4.03-0.95c11.66-14.74,29.44-23.42,46.5-19.81C241.4,1355.31,251.71,1370.26,254.51,1387.31z" />
<path class="cls-5" d="M980.15,388.23c-1.34,0.11-3.66,2.18-3.7,0.77c-0.06-2.24,0.21-3.47,0.02-4.62l2.68,0.63  C980.15,385.25,980.24,387.03,980.15,388.23z" />
<path class="cls-11" d="M849.38,1052.19l4.36,0.21c5.97,4.29,16.87,16.07,20.28,22.5l-0.48,4.35l-1.59,2.51  c-16.96,2.08-18.24,27.29-1.15,31.63l1.18,3.13c3.85-0.28,3.74,2.79,0.14,3.9l-1.22,2.82c-16.36,3.13-16.62,28.18-0.4,31.45  l1.36,2.76c4.77,2.55,11.07,7.27,15,11.41c2.16,2.28,4.32,5.41,0.93,7.26c3.35,12.83-6.8,17.61-12.13,27.65l-1.87,2.55  c-20.11,0.13-20.38,31.23-0.75,32.53l1.72,2.61l-0.38,4.9l-1.64,2.44c-12.69,0.49-17.1,14.71-12.16,25.1l-1.85,2.59l-32.17-0.11  l-1.79-0.23c-0.1-52.7-0.47-105.29-1.12-157.77l-25.35,0.07l-3.89-2.63l-0.89,2.68l-48.04,0.23c-0.97,55.73-1.28,111.69-0.94,167.86  l-2.68,1.64c-39.81,9.36-78.67,23.33-118.95,29.72l-18.39,2.14c-25.17-4.86-28.85-38.06-5.07-48.35  c-20.84-9.3-21.27-36.34-1.52-47.34c-20.02-11.33-20.1-44.45,4.94-47.5c-22.95-10.02-27.87-35.95-4.67-49.23  c-8.24-3.11-17.48-16.32-15.05-25.05c0.47-1.69,0.94-2.52,3.09-2.92c-2.4-3.62,2.15-7.47,5.84-6.73c7.45-5.54,16.33-12.1,25.77-7.84  c8.68-13,18.81-24.53,30.37-34.59l197.52-1.02C847.31,1049.95,848.82,1050.48,849.38,1052.19z" />
<path class="cls-6" d="M586.22,1099.7c-2.74,14.07,6.35,25.19,21.44,28.41c-13.95,3.03-21.65,10.62-21.96,23.06  c-0.66,26.14,51.43,30.19,18.02,28.42c-11.58-0.61-18.04,10.9-17.71,22.02c0.27,9.18,7.11,16.76,17.35,22.9  c-11.4,5.35-18.39,14.23-17.13,25.56c1.24,11.18,7.88,17.79,21.45,21.94c-11.39,3.15-19.46,8.65-21.2,18.71  c-1.85,10.73,3.58,21.5,13.7,25.45c7.59,2.96,15.35,1.2,22.7,1.77c-0.64,0.6-2.17,0.75-2.79,1.21l-10.62,2.58  c-0.4-0.06-0.95-0.05-1.34,0.05c-11.26,2.84-23.9,3.22-34.92,6.9l-8.45,0.42c-13.02-3.64-26.04-7.27-39.06-10.91l-0.81-3.01  c0.77-0.74,1.58-1.43,2.47-1.96c0.88-0.53,1.71-1.01,2.54-1.03c11.23-0.26,22.43-0.22,33.64,0.21c-22.24-0.77-44.46-1.24-66.67-1.42  c-10.32,3.42-23.45,3.18-33.48-0.85c-19.78,2.12-39.34,2.17-58.66,0.16l-7.14-0.83c-41.83-21.9-89.26-28.82-136.06-26.2l-6.82-2.25  l-2.15-2.37c4.75-12.79-2-26.28-16.24-25.66l-1.98-2.28l0.05-6.51l1.76-2.65c13.53,0.77,20.78-10.98,16.89-23.49l0.52-2.27  c5.63-0.99,50.51-2.46,52.51-0.73c2.22,1.92,1.03,4.37-1.85,5.09l-0.44,2.9c-8.48,3.01-11.46,6.83-8.95,11.46l-1.42,3.21l3.14,1.03  c-0.11,3.28,0.45,6.15,1.68,8.6l83.1-0.69c0.33-4.21,1.84-7.25,4.53-9.12c-1.2-1.92-1.78-4.54-1.74-7.85l-2.84-2.67  c-3.1-0.95-4.84-2.57-5.22-4.84c-2.33-2.31-1.96-7.42,1.76-8.6c19.33-1.14,38.53-0.55,57.58,1.75c4.31,2.67,4.93,3.72-0.07,6.03  l-0.25,2.99c-8,3.13-10.57,7.05-7.72,11.77l-1.56,2.86l2.86,0.7l0.95,8.01c28.34,0.04,56.5-0.09,84.47-0.41  c-0.16-4.1,1.07-6.49,3.71-7.16c-2.28-1-2.39-3.2-0.32-6.6c0.12-2.12-1.12-3.89-3.7-5.32c-3.52-1.08-5.63-2.85-6.33-5.3  c-5.98-3.29-0.33-8.47,5.61-8.12c-2.7,0.05-5.18-0.52-7.46-1.72c0.12-13.73-0.2-27.23-0.94-40.49c1.51-2.88,4.41-3.95,8.68-3.22  c-1.92,0.08-6.94,0.04-7.69-1.52c-2-4.15-2.11-34.14-0.75-39.61c0.7-2.82,1.23-4.2,4.11-4.82l23.74-0.02  c-40.31-3.83-60.46-5.74-60.46-5.74c-22.4,1.88-44.73,4.33-66.98,7.32c-12.84,0.03-25.48-1.84-37.91-5.63  c-19.71-1.05-39.44-1.31-59.18-0.79l-2.18,4.91c-17.12,0.47-34.22,0.47-51.3,0.01c-4.39,1.29-22.11-4.72-24.37-7.65  c-2.03-2.63-0.85-3.75,1.61-5.72c9.15-0.75,17.42-1.67,21.85-10.75c110.08-1.52,220.32-2.28,330.73-2.28L586.22,1099.7z" />
<path class="cls-11" d="M794.04,1121.77c7.65-5.15,20.61-2.42,29.51-0.39c1.02,50.16,1.52,102.81,0.83,153.4  c-0.01,0.77-1.13,1.28-2.15,1.62c-25.12,2.24-50.19,4.72-74.73,10.49l-2.68-0.93l0-163.38c0.45-2.06,2.02-2.88,4.07-3.13l43.17-0.34  L794.04,1121.77z" />
<path class="cls-8" d="M981.57,1380.96c-7.84,15.34-20.6,29.65-37.62,31.62c3.7-7.37,6.48-17.03,7.19-25.38  c-9.21,3.94-8.73,15.22-14.68,20.54c-6.28,0.55-8.23-11.39-8.85-16.82c-0.65-5.73-1.45-17.79,4.55-19.44  c4.77-13.69,25.45-45.09,44.03-37.17C992.54,1341.27,984.33,1375.56,981.57,1380.96z" />
<path class="cls-8" d="M912.82,1368.95l2.55,2.37c-0.87,10.36-3.46,21.74-10.05,30.03c-2.74,3.45-7.97,9.65-12.01,6.21  c-0.06-12.37,0.53-25.17-3.73-37.7c-3.72,13.63-3.18,26.38-3.2,38.85c-15.99-7.87-20.69-28.84-21.09-46.62  c-0.17-7.55,6.81-37.94,23.31-38.22C905.05,1323.59,913.41,1354.09,912.82,1368.95z" />
<path class="cls-14" d="M932.17,1371.47c-4.02,11.55-2.45,27.4,4.3,36.27c-6.83,24.05-23.85,45.08-42.85,64.41l-0.3-64.58  c13.59-5.82,18.92-23.84,19.51-38.62L932.17,1371.47z" />
<path class="cls-1" d="M794.38,1115.81c3.91,0.39,3.43,5.27-0.34,5.97l-46.68,0.37l0.15,164.75l-5.68,1.34l0.18-172.17  L794.38,1115.81z" />
<path class="cls-15" d="M874.35,1246.35c6.53,1.48,11.3,7.77,12.76,12.84c2.18,7.61,0.07,13.88-3.16,19.91  c-8.04-1.61-17.05-2.6-25.25-2.62c-2.84-6.77-4.38-13.97-0.59-21.12C860.85,1250.18,867.42,1244.77,874.35,1246.35z" />
<path class="cls-6" d="M826.53,1276.37c-1.36,0-2.93-0.09-4.29,0.03l0.08-153.27c-9.65-1.46-19.05-1.43-28.28-1.36l0.34-5.97  c10.25-0.05,20.52-0.84,31.92,0.04L826.53,1276.37z" />
<path class="cls-14" d="M620.09,1319.16c-2.69,2.34-7.07,3.14-10.62,2.58C612.3,1319.35,616.52,1319.5,620.09,1319.16z" />
<path class="cls-10" d="M404.73,1310.28c19.4,1.9,38.95,1.85,58.66-0.16c11.28-0.05,22.26,0.08,33.48,0.85l25.43,1.42l2.58,2.79  l48.32,13.49c-54.49,18.18-110.62,31.24-166.52,44.4c-75.95-25.38-150.81-53.52-230.1-67.73c14.65-10.27,33.35-15.09,50.94-19.92  c2.5-3.65,6.85-5.48,13.06-5.48c5.85-1.91,10.56-1.56,14.12,1.06C307.03,1277.24,358.77,1284.43,404.73,1310.28z" />
<path class="cls-8" d="M859.55,1457.29c-0.98-5.97-5.27-14.79-9.4-20.3c-1.74,7.71-0.43,17.21,1.77,23.87  c-27.66-7.35-39.22-46.25-29.49-72.67c3.07-8.34,13.9-11.55,21.14-6.55C866.69,1397.59,878.1,1435.88,859.55,1457.29z" />
<path class="cls-8" d="M759.33,1500.04l-18.06-15.25c-0.91,11.12,12.35,12.44,12.93,21.79c-24.03,7.09-50.46-18.69-52.93-43.76  c-0.78-7.94,6.68-14.37,14.17-13.5C740.08,1452.15,764.03,1475.81,759.33,1500.04z" />
<path class="cls-10" d="M64.16,1288.25c-6.43-0.64-13.5-1.19-20.02-1.37c-8.11-10.19-25.32-19.98-18.11-34.69  c5.36-9.33,21.35-2.16,28.62,2.86c8.09,5.59,15.92,14.95,12.54,23.92C59.76,1278.43,68.04,1284.59,64.16,1288.25z" />
<path class="cls-6" d="M125.74,1253.44l-12,41.16c-0.74-0.19-1.66-0.82-2.4-0.84c3.08-12.6,7.8-24.72,9.43-37.55  c-4.86-3.11,3.29-21.77,8.04-17.46C131.54,1241.22,130.21,1251.85,125.74,1253.44z" />
<path class="cls-1" d="M142.99,1281.94c-4.33,4.45-9.87,9.01-12.04,15.23l-3.71-0.99c2.68-6.54,9.32-10.53,11.13-17.37  c-1.99-4.02,9.77-14.05,12.82-11.47C154.5,1270.12,147.57,1282.47,142.99,1281.94z" />
<path class="cls-7" d="M1123.85,936.11c5,8.47,16.44,11.41,19.69,23.22c-8.94,8.02-21.37,2.26-31.74,0.74c-3.54,0.34-5.3,0.5-5.3,0.5  c-4.84,21.6-25.94,11.62-33.36-2.11l-3.36,0.43c0.08,5.77-8.99,10.1-13.94,11.82c-9.36,3.25-20.66,2.39-22.95-9.04  c-16.76,17.45-25.14,26.18-25.14,26.18l-4.58,1.63c-1.88,1.88-4.26,1.34-7.14-1.61c-8.1,2.8-14.96-1.1-20.93-6.35  c-8.16,10.28-24.48,21.37-31.29,3.68l-8.66,7.01l-3.12-0.92c-8.57,5.07-15.71,1.59-12.28-9.19c3.39-5.47,5.86-11.24,7.42-17.31  l2.37-1.61c-0.53-4.76,14.42-8.84,17.69-8.11c1.74,0.39,2.92,0.83,3.17,2.75c-1.72,18.4,8.75,11.39,17.37,1.85  c2.48-2.12,4.61-2.08,6.82,0.24c5.89,14.55,31.66,14.23,20.85-3.95c1.15-6.58,5.9-11.15,14.27-13.71c1.75-2.31,3.61-3.8,5.57-4.46  c-0.37-0.98-0.82-2.49-0.22-2.91c5.6-3.84,16.16-8.97,22.6-9.82c1.54,4.45,2.45,9.29,2.74,14.52c1.82,2.49,3.3,4.9,4.44,7.24  c9.25-3.68,16.15-10.94,20.68-21.78c4.2-2.31,5.01-0.16,4.81,4.11l2.96,0.29c6.94,16.26,27.16,21.8,25.08-2.93l2.69-2.18  c1.46-0.38,3.03-0.66,4.49-0.15c2.39,0.84,13.96,6.73,15.96,8.16C1122.74,933.22,1123.36,934.7,1123.85,936.11z" />
<path class="cls-14" d="M1111.8,960.07c10.32,13.96,53.3,66.63,44.26,82.92c-8.7,4.96-18.44-1.8-26.85-3.61l-3.5,0.57  c-10.03-6.81-18.52-14.97-25.47-24.5c1.1,8.74-14.76,31.05-23.15,28.73c-1.23-0.34-2.18-1.1-2.91-2.14l-1.78-3.49  c-0.42-24.15-1.82-48.28-4.21-72.39l1.59-7.26c1.04-2.37,2.17-6.63,5.03-2.68l4.09,5.65c3.89,5.37,11.01,9.31,17.14,8.44  c6.51-0.92,7.45-8.78,9-15.5C1107.13,956.52,1110.4,958.18,1111.8,960.07z" />
<path class="cls-14" d="M1118.22,863.74l-3.8,0.62c-11.42-3.27-20.87-11.03-27.01-22.44c-2.23,9.16-6.79,16.91-14.62,20.49l-2.69-0.89  c-0.44-41.5-0.88-83.02-1.32-124.54l2.66-1.65c12.09,36.58,20.37,74.28,39.79,108.6C1115.01,850.62,1120.1,856.66,1118.22,863.74z" />
<path class="cls-14" d="M1095.56,881.3c4.6,5.05,53.03,50.76,36.48,53.26c-2.6-0.11-5.32-1.42-8.14-3.95c-6.97-2-13.64-4.68-20.02-8.05  l-2.85,1.76c-0.08,6.81,0.75,18.96-7.81,21.25c-10.26,2.74-19.96-7.66-22.92-16.43l-0.18-1.97c-3.04-1.41-3.3-6.81-0.07-8.72  l-2.6-1.65c0.37-7.73,0.73-15.46,1.1-23.19l2.77-1.78C1080.4,890.8,1086.44,881.01,1095.56,881.3z" />
<path class="cls-1" d="M1081.93,1120.93l3.1,70.96c0.37,8.52,0.11,17.36,1.37,26.39c-5.83,1.37-10.21-0.35-14.83,0.05l-2.66-0.94  l0.95-63.71c-6.09-3.83-10.27-8.42-12.54-13.77c-4.77-3.22-4.19-13.24-0.38-17.62l-0.92-3.81c4.38-6.66,8.15-13.62,11.34-20.88  l3.42-1.77l3.74,2.5l7.98,18.21L1081.93,1120.93z" />
<path class="cls-10" d="M1127.66,726.19l-8.22,23.85l17.35-0.35c-3.74,6.06-6.1,12.09-10.43,16.27c-10.78-14.73-22.55-29.03-30.78-47.7  C1106.13,721.74,1116.71,726.57,1127.66,726.19z" />
<path class="cls-13" d="M1132.05,934.56c-2.53,0.38-5.17,2.97-8.2,1.55c-7.81-2.9-15.92-6.75-22.81-11.79  c0.03-2.52-2.38-4.33,0.38-7.59C1110.67,927.59,1126.46,923.83,1132.05,934.56z" />
<path class="cls-7" d="M1129.21,1039.37c3.39,14.88,68.09,82.07,57.07,92.59c-10.54,10.06-22.74-11.42-18.59,1.93  c-22.44-7.64-39.33-24.92-53.24-44.04c-0.66,14.6,6.14,33.57-5.62,43.09c-9.01,7.29-20.43-5.79-26.91-12.01  c-4.61-7.55-8.17-16.6-11.16-25.1l-1.85-3.47c1.58-12.4,1.92-24.9,1.04-37.48c-11.6,0.47-22.26-4.06-29.88-12.82  c-7.62,7.4-16.2,11.54-25.74,12.41l-6.68-2.87l-24.68,31.98c-5.42,8.62-12.09,15.2-20.02,19.73l-3.43-0.05  c-3.17-5.33-5.49-11.04-6.95-17.15c-9.68,10.72-47.62,35.75-60.83,24.98c-5.17-4.22-4.39-11.19-1.1-15.71l2.24-2.83  c11.34-0.16,22.59-0.54,33.75-1.15l0.03-3.11c10.4-8.2,4.65-24.31-1.14-33.89l1.28-2.9c-0.36-4.73,2.05-9.06,7.23-12.98  c4.27-5.61,9.01-8.49,14.23-8.66l3.33,0.61c5.14,8.46,14.59,12.66,24.08,14.21c0.51-2.76,1.71-4.55,3.62-5.38l3.16-1.69  c22.33,6.48,42.52-11.22,52.58-29.8c1.77-2.61,3.22-3.49,5.5-1.23c3.42,16.96,11.93,27.9,25.52,32.82c3.74-0.35,6.44,0.53,8.11,2.64  c16.76-2.7,23.85-18.18,24.45-37.29C1103.55,1021.77,1117.58,1029.52,1129.21,1039.37z" />
<path class="cls-8" d="M1004.13,1510.22c1.07-7.38,9.71-12.06,8.33-22.03c-6.28,2.85-8.62,11.31-14.4,14.69  c-8.42-22.91,12.63-50.24,35.72-57.5c8.09-2.55,16.13,3.77,16.36,11.93C1050.86,1483.28,1029.98,1510.64,1004.13,1510.22z" />
<path class="cls-8" d="M1041.91,1531.91c6.97-3.86,14.33-10.33,20.27-16.98c-7.38,1.42-16.15,4.28-21.64,7.91  c5.15-21.52,29.2-35.43,51.35-32.93c5.22,0.59,9.66,4.38,10.79,7.77c1.47,4.39,0.83,8.92-1.72,13.21  C1089.49,1530.17,1059.72,1546.24,1041.91,1531.91z" />
<path class="cls-2" d="M962.94,1103.31c1.1,2.56,0.13,5.39-2.92,8.49c-7.87,14.7-13.53,27.98,9.03,14.21  c3.38,0.06,4.01,2.34,1.86,6.83c1.05,0.28,2.62,0.75,2.68,1.57c0.34,4.77,0.7,38.96-0.05,40.93c-0.39,1.02-1.62,1.54-2.68,1.96  c-27.7-1.2-55.37-1.5-83.1-1.18c-2.54-9.74-13.87-10.45-15.93-18.68l1.38-2.73c16.85-2.84,15.83-27.07,0.07-31.28l-1.19-3.02  l-0.14-3.9l0.75-3.09c7.54-2.67,13.28-8.69,12.58-17.08l2.46-2.17c1.9-2.19,3.13-1.68,2.88,1.21c-1.4,3.46-1.9,7.72,0.36,11.17  c9.99,15.21,53.64-13.11,62.85-26.07C956.57,1088.8,957.61,1097.08,962.94,1103.31z" />
<path class="cls-2" d="M1056.94,1122.29c-0.98,5.83,0.58,11.82,0.38,17.62l2.52,4.58c-0.47,13.38-0.94,26.77-1.41,40.18l-2.75,1.86  l-59.28-7.16l-2.71-0.8c-0.76-18.39-1.52-36.78-2.28-55.18l2.53-3.56l1.91-5.2c8.91-8.61,17.4-17.64,25.47-27.08  c3.33-2.77,4.51-0.68,5.96,3.1c0.28,11.81,2.86,33.29,11.83,41.65c0.86,0.8,13.57-8.95,14.92-11.06L1056.94,1122.29z" />
<path class="cls-10" d="M1099.53,1295.17c5.71,0.25,12.33,2.37,13.46,9.36c-36.09-3.82-71.09-0.98-107.65,0.15  c0.45-6.49,6.57-5.11,8.52-9c5.8,0.89,13.8,2.46,19.09-0.21c0.23-3.64-1.19-7.9,2.34-11.44c3.76-3.78,10.62,2.52,13.71,9.05  c6.37-9.98,2.65-23.77,12.64-32.98c8.97,7.58,4.08,19.1,7.47,30.7c5.74-3.93,10.34-22.58,20.55-23.37c2.82-0.22,6.5,0.7,7.44,4.33  c2.2,8.51-2.9,16.04-7.5,23.26C1092.95,1297.47,1096.55,1295.05,1099.53,1295.17z" />
<path class="cls-1" d="M996.4,1179.36c-8.36-1.01-17.15-1.7-25.53-2.06l0.05-44.46l0.55-3.59c6.43-3.25,12.78-6.64,19.04-10.18  l3.43,0.75L996.4,1179.36z" />
<path class="cls-6" d="M1071.57,1218.33c-5.3,0.46-10.16-0.37-17.22,1.33c1.8-10.73,0.93-21.95,1.33-33.13l1.64-46.61l15.24,12.23  L1071.57,1218.33z" />
<path class="cls-15" d="M875.64,1203.77c7.55,5.12,12.92,11.79,12.24,20.99c-0.44,6.03-5.29,16-13.15,16.68  c-12.4,1.09-19.78-10.42-18.89-20.54C856.81,1210.04,864.68,1202.51,875.64,1203.77z" />
<path class="cls-1" d="M597.18,1082.14c4.33,3.05-0.72,9.55-5.12,10.83c-0.97,2.7-4.47,4.28-5.84,6.73l-330.88,1.42  c-4.63,10.61-13.58,10.36-24.87,11.82c28.53,15.64,42.79,6.95,73.32,9.77l2.86-7.7c23.88,3.22,48.34-2.84,69.77,3.58  c42.7,12.79,70.35-12.57,130.21-0.11c27.84,5.79,66.54-2.98,72.9,7.5l-71.78,0.07c-1.35,13.28-0.56,26.61-0.38,40.53l62.9,0.63  l11.19,4.31l-74.22,0.52l-0.3,39.29c21.19,3.51,42.56-3.85,64.4,3.72c-5.66,7.78-74.35-4.48-63.91,7.83c-1,3.94-3,3.73-3.62-0.21  l-2.68-1.19l-0.12-41.09c-8.22-0.05-16.43,0.17-24.65,0.64l0.07,36.87l-2.67,1.95c-2.33,2.87-3.43,2.6-3.9-1.09l-2.68-1.2  l0.04-36.53c-7.47-1.1-14.97-1.25-22.51-0.46l-0.22,37.83l-2.69,1.56c0.15,3.92-4.16,4.2-6.47,1.39c11.95-8.35-56.82-4.35-58.47-5.2  c-0.82,2.54-0.71,4.3-0.8,6.03c-0.74,3.47-1.86,3.23-2.62-0.17l-2.68-1.57l-0.03-40.24l-24.86,0.25l-0.23,37.37l-2.68,1.95  c-2.43,2.75-3.29,2.56-4.03-1.07l-2.06-4.99c0.48-4.9,1.54-31.98,0.17-33.15c-0.86-0.73-21.94-1.47-22.54-0.51l-0.06,36.64  l-2.68,1.92c-0.68,3.71-5.95,5.22-7.54,1.52c0.21-1.01,0.63-2.51-0.12-3.55c-0.68-0.94-2.45-0.63-4.02-0.62l-44.76,0.39  c2.67,8.66,1.52,15.41-2.82,21.13c-4.27,5.62-10.97,6.95-18.1,6.7c-7.71-4.08-13.46-10.41-13.02-19.36  c0.43-8.81,5.94-16.23,14.28-19.43l1.88-2.44c6.34,0.77,12.96,2.48,17.27,7.59l47.72-0.29l-0.28-37.04  c-14.66-0.22-29.34-0.3-44.04-0.22c2.36,11.18,0.82,18.97-8.72,26.07c-3,2.24-12.04,6.21-12.66,0.79  c-5.82-0.84-12.65-6.54-14.59-12.07c-3.66-10.45,1.88-21.26,11.13-26.62l3.66-1.75c6.23,5.46,63.16,7.98,65.45,5.6  c1.32-1.37-0.55-33.75-0.82-37.34l-43.28,0.11c2.51,11.8,0.68,20.26-9.97,27.39c-3.6,2.41-11.89,5.75-13.82,0.61  c-5.83-1.49-10.38-8.75-12.18-13.18c-5.41-13.39,9.6-21.25,2.68-25.65c-2.34-1.19-3.05-4.38-2.11-9.57l-1.35-3.37  c-32.53-0.17-48.8-0.25-48.8-0.25c-6.49-2.25-17.01-10.8-14.76-17.79l226.25-0.21l169.98-0.58  C569.45,1085.14,583.53,1086.64,597.18,1082.14z" />
<path class="cls-6" d="M235.64,1205.39c0.01-1.9,0.36-3.8,1.17-5.53c6.72,0.97,14.23-4.14,17.08-8.88  c3.96-6.59,2.87-13.19,0.37-20.67l50.64,0.05l0.32,42.7l-51.63,0.13C248.82,1207.09,242.17,1206.29,235.64,1205.39z" />
<path class="cls-1" d="M254.71,1281c-8.58,0.62-18.89,2.15-27.18,4.42c-4.47-5.49-7.74-11.97-5.65-19.58  c1.47-5.38,5.99-13.26,12.46-15.16c7.1-2.08,14.48,1.91,19.19,8.01l313.95,0.6c-10.75,1.01-20.91,3.61-31.9,3.56l-280.25-1.29  C257.82,1268.24,256.38,1274.73,254.71,1281z" />
<path class="cls-10" d="M125.74,1253.44c1.21-4.13,2.31-9.34,1.12-14.41c-2.13,5.3-5.4,11.83-6.08,17.18  c-14.81-5.97-12.47-29.8-5.1-44.15c2.96-5.75,12.62-15.31,19.4-8.17C147.26,1216.72,143.17,1248.97,125.74,1253.44z" />
<path class="cls-10" d="M142.99,1281.94l7.81-13.37c-5.46,2.24-8.26,7.36-12.43,10.23c-7.65-11.19,1.46-25.48,11.19-35.37  c4.92-5,19.01-12.89,23.25-2.43C179.53,1257.57,160.23,1287.57,142.99,1281.94z" />
<path class="cls-10" d="M95.45,1273.25c-1,0.82-3.09-3.67-3.26-4.54c-0.27-1.38-2.49-1.34-2.82-0.25c-0.75,2.47-0.24,3.94-1.97,7.55  c-14.79-6.18-23.64-34.38-9.79-46.2c9.89-3.54,17.27,8.9,20.23,15.43C101.7,1253.76,102.85,1267.19,95.45,1273.25z" />
<path class="cls-8" d="M175.12,1045.7c-13,15.99-27.87,22.81-17.06,40.28c16.45,26.6,19.89,10.65,64.39,15.57  c4.71,2.07,3.16,11.13,2.62,15.41c-33.36-4.91-66.82-10.36-100.59-9.63c-1.05-0.08-2.64-0.35-2.73-1.09  c-1.09-8.99-1.62-23.36-1.34-32.41c-0.95-4.18-0.19-7.3,2.29-9.37c-4.72-1.33-2.32-8.83,0.34-11.77c0.13-4.08,1.96-7.98,5.52-11.72  c5.15-10.46,7.73-15.7,7.73-15.7c1.06-5.82,3.38-10.12,6.97-12.9l2.69,2.47c0.28,11.43,3.63,23.74,12.89,31.1l14-2.54L175.12,1045.7  z" />
<path class="cls-6" d="M233.35,1161.17c0.87-1.66,1.11-3.53,1.22-5.39c6.51,1.4,15.5-3.76,18.57-8.19  c4.67-6.76,4.64-14.45,0.63-22.47l51.3-0.13l0.08,42.87C266.14,1166.94,269.72,1171.54,233.35,1161.17z" />
<path class="cls-1" d="M105.62,1056.47c2-1.71,4.82-2.51,8.46-2.4c3.36-1.64,6.35-2.1,8.98-1.39c0.78,3.9-0.5,7.91-0.34,11.77  l-0.92,3.17l-14.44,10.13l0.07,66.42l-2.68,1.59c-5.82,0.01-11.52,0.93-17.79-0.29l2.11-37.95c1.14-20.46,0.76-41.04,3.3-61.35  C95.35,1050.09,101.43,1054.45,105.62,1056.47z" />
<path class="cls-6" d="M122.71,1064.46l1.78,42.87c0.52,12.63-0.37,25.52,1.31,38.47c-7.93,0.54-14.21-0.04-21.06-0.03l-0.13-69.41  C111.42,1072.11,116.38,1067.23,122.71,1064.46z" />
<path class="cls-9" d="M177.86,943.89l2.85-0.76c14.24,17.21,28.48,34.42,42.73,51.65l-1.05,2.93c-12.34,13.96-25.16,27.53-38.9,40.13  l-4.26,1.06c-12.89-7.31-24.27-16.45-34.16-27.41l-1.79,0.86c-4.04,14.77-9.66,28.65-20.22,40.32c-3.3,3.64-13.32,5.77-17.44,3.79  l-0.24-114.52c8.55-1.23,12-9.33,16.07-13.9c10.17-0.35,19.67,0.03,25.84-10.86l20.93,16.44L177.86,943.89z" />
<path class="cls-16" d="M197.03,877.62c3.13,4.22,25.58,39.58,17.05,47.03c-2.77,2.42-10.21,4.25-14.46,3.34  c-28.09-6-48.25-23.36-59.64-47.58c0.24,14.15-1.46,25.23-8.36,34.46c-6.52,8.72-16.97,9.66-27.19,9.29l-2.66-4.41  c-2.29-28.07-0.38-55.52,5.75-82.35l3.84-3.48c10.77,7.57,22.45,16.46,35.34,11.6c5.26-1.98,2.7-10.15,4.96-15.31  C169.07,844.1,184.19,860.3,197.03,877.62z" />
<path class="cls-14" d="M111.37,833.92c-10.46,33.54-6.58,55.13-6.93,90.25c-20.15-0.72-31.31-17.27-33.26-38.41  c-10.25,20.78-25.71,35.2-46.83,42.07c-5.13,1.67-13.05,0.11-15.33-2.9c-14.08-18.54,27.49-74,43.13-86.76  c7.55,0.98,13.34-1.32,18.16-6.07c0.94,7.19,2.71,12.45,7.46,14.95c12.79,6.74,23.47-6.65,29.82-18.19  C110.29,829.52,110.8,832.22,111.37,833.92z" />
<path class="cls-2" d="M252.76,965.28c-7.35,12.97-20.71,21.49-30.38,32.43l-44.53-53.82c-0.08-3.2,0.82-6.84,4.54-4.64  c1.79,1.06,4.4,1.36,6.72,2.36c8.78,3.78,16.12-1.26,22.34-7.88l1.87,0.33c9.68,9.21,19.99,17.54,30.92,24.97  C248.53,960.17,251.37,962.25,252.76,965.28z" />
<path class="cls-14" d="M83.37,740.47l0.69,40.36c-0.46,3.66-2.87,5.02-6.32,3.88c-10.54,14.28-22.87,26.49-37.86,36.07  c-3.08,1.97-10.39,2.47-12.67,0.18c-13.09-13.15,41.84-73.53,52.27-84.16C81.94,736.26,82.14,739.72,83.37,740.47z" />
<path class="cls-2" d="M953.77,862.51c-4.81,10.05-9.03,21.31-9.76,31.92c-7.47,3.61-12.04,13.62-12.63,22.19  c6.29,6.21,18.37-7.19,19.45,3.19l0.34,3.84l-23.67,23.66c-12.58,14.28-12.69,18.91-0.33,13.89l2.36,1.96  c0.84,8.66-6.4,15.47-8.85,24.05c0.36,4.22,8.11,4.02,11.35,4.06c0.71,0.78,1.67,2.06,1.22,2.67c-4.63,6.36-21.46,26.49-26.97,30.82  l-3.3-0.3c-31.59-30.1-61.43-61.98-88.55-96.07l85.5-0.14c-13.75-17.52-28.87-33.83-36.58-53.43c-2.36-4.88,7.56-10.49,12.41-11.14  C901.88,863.6,927.81,867.4,953.77,862.51z" />
<path class="cls-14" d="M925.42,1051.49c0.4-1.17,0.87-1.15,1.39,0.01c8.42,12.03,13.32,32.99-0.17,39.9c-6.41,0.62-11.97-2.38-16.68-9  c-44.69-51.76-89.92-103.43-135.69-155.03c-7.02-5.66-12.48-12.04-16.38-19.16c3.36-10.55-6.98-17.89-5.02-27.98  c18.37,3.4,31.56,21.53,43.35,36.6c20.61,26.37,41.49,51.55,64.99,75.41c17.9,18.17,35.11,34.9,51.5,54.43  C916.13,1050.74,921.97,1055.86,925.42,1051.49z" />
<path class="cls-9" d="M1003.16,989.48l0.44,3.97c-11.21,12.92-18.37,27.31-21.49,43.17l-2.81,2.68c-0.03,2.39,0.06,4.55-0.69,8.43  c-12.22-1.08-25.2-6.82-30.35-17.88c-2.34,0.8-3.58-0.49-3.74-3.87c0,0-8.51,4.31-25.54,12.92l-4.19-0.93  c-4.77-3.83-7.51-9.41-11.81-13.5l29.04-33.19l12.16-9.84c3.47,2.62,4.01,9.81,8.37,10.31c9.32,1.07,16.74-7.48,22.67-14.52  c5.53,6.63,12.84,11.25,21.04,7.6C998.94,986.45,1000.77,988.39,1003.16,989.48z" />
<path class="cls-11" d="M443.04,902.85c0.22,6.99-0.37,14.04,0.42,21c-0.85,0.87-1.7,1.55-2.58,1.58c-10.44,0.4-22.69,0.5-33.06-0.21  c-4.27,0.62-7.62-0.2-10.04-2.46c-3.86,0.64-3.06-16.49-2.48-17.23c1.07-1.37,3.52-3.52,5.04-3.92c13.36-0.42,26.75-0.76,40.11-0.38  C441.33,901.27,442.19,901.97,443.04,902.85z" />
<path class="cls-11" d="M443.07,880.09l-0.13,19.58l-0.4,1.59c-29.2,0.21-43.81,0.31-43.81,0.31l-0.89-1.78  c-1.19,0.17-1.19-0.21-0.17-1.06c-3.63-5.2-3.61-13.64,0.24-18.7c-0.02-0.87,0.05-1.59,0.41-1.79c1.92-1.06,38.4,0.09,43.86,0.38  C442.5,878.63,442.79,879.27,443.07,880.09z" />
<path class="cls-2" d="M948.27,1029.85c-8.18,6.09-15.83,13.13-21.46,21.65l-1.39-0.01c-3.53-4.04-6.42-10.14-10.63-13.52  c10.05-5.05,20.82-8.88,30.09-15.94C947.91,1024.51,947.2,1027.55,948.27,1029.85z" />
<path class="cls-1" d="M397.68,875.78c3.95-1.8,5.93-2.7,5.93-2.7l35.75,1.53l4.12,2.42l-0.41,3.05l-45.15-0.07  c-0.28,1.05-0.76,2.62-1.58,2.67c-10.25,0.69-26.18,0.72-36.32-0.11c-4.15,0.82-6.78-0.08-7.87-2.7l-0.08-2.7L397.68,875.78z" />
<path class="cls-6" d="M442.94,899.67l0.1,3.18c-14.85-0.2-29.76-0.81-45.04,0.89l-0.22,19.03c-0.49,0.65-1.02,1.24-1.67,1.63  c-1.83,1.09-38.69,1.32-42.6,0.41c-0.56-0.13-0.96-0.98-1.31-2.02c-0.8-6.21-0.62-12.49,0.07-18.7l0.37-1.79  c14.17-0.71,28.43-1.11,42.76-1.2l2.43-1.31L442.94,899.67z" />
<path class="cls-11" d="M443.09,863.84c-0.08,4.39,0.98,8.86,0.39,13.2c-15.35,1.33-30.84-1.72-45.8-1.26l0.61-12.13L443.09,863.84z" />
<path class="cls-10" d="M875.76,863.68l-12.41,11.14c-2.52-2.64-5.78-6.68-7.37-11.16C862.65,861.17,869.51,863.7,875.76,863.68z" />
<path class="cls-16" d="M1071.44,735.33l1.34,127.08c-1.24,2.3-2.99,4.98-6.11,4.78c-10.77-0.69-9.42-13.29-14.64-19.35  c-9.34,8.78-17.69,22.33-32.55,20.13c17.73-46.96,36.72-90.53,48.8-139.87C1071.98,729.05,1070.68,733.03,1071.44,735.33z" />
<path class="cls-9" d="M1003.33,928.16c3.07-3.09,13.49,5.75,11.92,9.62c-0.97,9.81-12.45,7.08-16.9,15.56  c-1.78,3.4,3.31,7.03,2.97,10.7c-0.66,7.11-9.27,9.52-15.48,8.87c-5.58-0.59-10.07-6.97-14.42-12.72  c-5.93,4.04-10.3,12.93-18.88,11.54c-5.84-0.94-4.83-8.98-4.39-14.31c-6.94,0.62-13.05,3.39-18.63,5.76  c-4.16,1.76-14.5,4.58-14.76-0.87c7.27-18.52,24.96-28.11,36.06-42.47c4.58,3.55,31.18,15.8,33.92,13.7l8.9-6.8  c1.43-1.09,2.87,3.75,2.72,4.67C995.2,938.74,1005.72,923.64,1003.33,928.16z" />
<path class="cls-16" d="M1071.32,891.83l-1.26,26.62c-0.64,2.71-2.37,5.18-5.21,7.42c-4.61,10.27-11.29,17.25-20.03,20.93  c-8.17-1.7-7.99-9.52-8.16-20.21l-21.41,11.18l-11.92-9.62c9.9-18.77,27.65-33.14,42.12-50.15  C1053.36,885.64,1061.17,892.97,1071.32,891.83z" />
<path class="cls-1" d="M926.63,1091.4c-10.87,5.56-23.79,2.98-36,3.98c-0.86-0.61-1.85-0.98-2.88-1.21l-3.49-0.82  c-2.21-5.2-5.59-8.93-10.14-11.21l-0.6-2.89c-5.88-10.25-15.07-19.42-24.15-27.06c-2.82-0.76-6.63-3.13-4.45-6.31l-4.47-1.49  c-1.46-0.69-19.84-20.72-22-23.62c-0.98-1.31-1.18-3.01-1.28-4.6c-2.2-0.63-4.27-1.4-2.75-3.78l-4.74-2.82  c-20.09-21.81-40.09-43.71-60-65.7l-2.48-4.89c-7.32,0.37-5.74-14.18-2.57-19.12c3.97-3.86,7.05-9.83,13.25-11.66  c16.1,13.64,29.63,29.39,43.99,45.9l106.95,122.99C914.28,1083.38,919.4,1088.84,926.63,1091.4z" />
<path class="cls-6" d="M744.63,919.87c1.33,5.99-1.62,14.09,2.57,19.12l1.23,2.68l-58.51,68.52l119.66-0.45l4.85,2.65  c0.96,1.13,2.84,1.91,2.75,3.78l-6.12,2.05c-43.16,2.06-86.41,2.33-129.77,0.81l-22.57,26.56l181.27-2.33l4.94,2.62  c1.68,1.91,4.7,3,4.45,6.31l-200.87,0.86c-11.55,9.9-19.69,23.29-29.73,34.34c-19.53-3.58-14.1,5.83-26.71,5.59  c1.38-3.85,4.44-6.77,5.12-10.83C648.94,1030.72,692.49,970.65,744.63,919.87z" />
<path class="cls-6" d="M397.96,926.85l2.68,1.52c0.74,3.86,1.11,16.73-2.7,18.14c0.02,0.64-0.01,1.25-0.23,1.79  c-0.86,2.04-39.33,0.71-44.13,0.49c-0.7-0.03-1.19-1.22-1.58-2.22c-0.45-6.51-0.51-13.05,0.12-19.55c-0.2-1.16,0.03-2.06,0.89-2.05  c14.46,0.11,28.9-0.04,43.37-0.22L397.96,926.85z" />
<path class="cls-7" d="M261,933.58c5,1.9,11.16,11.1,8.35,15.7c-5.32,5.41-8.87,13.81-16.58,16c-17.18-4.78-29.36-18.6-41.31-31.55  c7.14-2.8,11.65,7.63,19.25,9.8c6.53,2.1,12.43,3.01,17.23-2.49c3.81-4.35,1.49-10.46,0.27-17.22  C254.31,926.58,255.78,932.71,261,933.58z" />
<path class="cls-6" d="M397.92,880.02c0.13,6.23,0.18,12.48-0.24,18.7c-0.1,0.66-0.26,1.29-0.59,1.8c-1.19,1.86-42.52,2.61-44.04,1  c-0.44-0.47-0.71-1.09-0.94-1.76c-0.41-6.61,0.24-13.29,0.04-19.87L397.92,880.02z" />
<path class="cls-11" d="M442.93,927.08c2.95,10.11-8.72,15.44-17.03,19.77c-7.24,1.82-17.38,2.01-25.2,1.46  c-0.96-0.07-1.86-0.83-2.75-1.8l0.02-19.65l0.24-1.78c0,0,14.61,0.13,43.83,0.38L442.93,927.08z" />
<path class="cls-6" d="M397.82,950.8c4.45,3.89,4.48,12.11,0.17,16.12c-14.79,1.26-29.78,2.82-45.79,2.09  c-1.02-6.02-0.61-12.31,0-18.01c0.09-1.16,0.57-2.21,1.55-2.22c14.01-0.18,28.07-0.2,42.1-0.12  C396.99,948.66,397.6,949.62,397.82,950.8z" />
<path class="cls-2" d="M183.48,1037.84c-2.67,2.45-6.1,5.07-8.36,7.85l-17.23,3.13c-11.12-8.85-14.8-23.01-14.62-36.46  c0.03-2.62-0.03-5.44,0.47-7.8C155.4,1018.46,167.66,1031.48,183.48,1037.84z" />
<path class="cls-11" d="M422.98,949.72c-3.86,11.15-14.37,16.3-24.99,17.2c0.3-5.37,0.33-10.77-0.17-16.12c0.14-1,0.36-1.83,0.86-2.05  c3.17-1.4,18.63-0.81,23.06-0.44C422.19,948.34,422.59,948.95,422.98,949.72z" />
<path class="cls-1" d="M397.78,922.77c15.18,1.7,30.3,0.71,45.68,1.08c0.11,1-0.81,2.27-0.53,3.22l-44.97-0.22l-45.85,0.16  c0.13-1.31,0.26-2.93,0.09-4.23C367.14,925.49,382.94,921.11,397.78,922.77z" />
<path class="cls-1" d="M397.93,946.51c9.26-0.01,18.59,0.56,27.96,0.34c-0.3,1.36-1.49,2.6-2.92,2.87  c-8.39,0.01-17.03-1.11-25.16,1.08l-45.62,0.2c0.15-1.39-0.1-3.04-0.2-4.44L397.93,946.51z" />
<path class="cls-1" d="M397.67,898.72c-0.02,0.35,0.16,0.71,0.17,1.06c0.05,1.15,0.61,2.64-0.45,3.6l-45.11,0.7  c0.15-1.36-0.08-2.95-0.17-4.32L397.67,898.72z" />
<path class="cls-8" d="M291.98,925.34c-5.31,9.55-15,16.18-22.64,23.94l-8.35-15.7C273.07,935.59,284.61,935.65,291.98,925.34z" />
<path class="cls-15" d="M84.06,780.82c0.14,8.21,1.45,17.8,4.02,25.63c1.41,4.29,7.28,4.67,11.12,3.7c3.06-0.78,3.99-5.94,8.01-7.71  c-0.99,4.31-1.57,8.44-4.86,11.82c-2.71,2.78-7.1,5.45-11.6,2.48c-10.56-6.96-11.01-20.47-13.01-32.04  C79.26,782.64,81.62,781.45,84.06,780.82z" />
<path class="cls-13" d="M212.72,768.61c-2.32,4.37-9.01,4.18-12.96,0.75c-3.16-2.73-5.97-6.78-5.44-11.29  C201.67,759.41,205.08,767.94,212.72,768.61z" />
<path class="cls-14" d="M177.95,1371.54c-10.19,12.88-12.66,30.32-13.53,47.13c-6.29-17.4-17.19-34.67-35.91-37.2  c-10.52-1.42-20.73,0.3-27.55,7.18c-18.4,18.55,1.6,48.69,17.27,64.47c-12.36-4.68-23.05-10.13-35.59-11.47  c-16.87-1.8-31.75,8.8-32.7,26.13l283.14,0.03c-2.59-12.8-15.88-19.47-28.86-15.85c-8.26,2.3-15.55,6.06-23.76,7.14  c9.06-7.38,14.77-17.11,11.01-26.51c-3.97-9.95-15.45-12.91-25.89-9.86c-9.87,2.88-16.5,10.02-26.53,15.13  c8.71-16.71,16.24-31.91,15.47-50.56c41.02,7.78,81.53,20.39,122.38,33.09c118.13,36.74,234.86,76.73,349.12,122.41H0v-179.46  C59.46,1359.34,119.43,1359.63,177.95,1371.54z" />
<path class="cls-16" d="M714.97,1221.27c0.98-3.63,1.94-3.23,2.89,0.3c5.62,0.7,10.61,2.44,13.07,6.04c3.16,4.63,1.62,9.57-2.38,12.62  l-5.19,2.41c-25.57,1.14-56.15,1.72-81.38-1.47c-0.79-0.1-1.55-0.67-2.35-1.29c-0.81-0.63-1.5-1.4-2.17-2.21  c-0.65-4.12-2.93-7.68,0.65-10.82c1.94-1.7,4.74-3.88,7.67-5.4c0.66-2.21,1.12-3.71,2.9-1.66l2.85-3.18  c16.13-2.17,32.19-1.27,48.18,2.72l12.6-0.39L714.97,1221.27z" />
<path class="cls-1" d="M717.86,1221.58c-0.53-0.07-1.41-0.34-2.89-0.3l-2.68-1.21l0.08-40l-61.01,0.19l-1.6-2.67  c-0.1,3.86-3.11,3.34-3.63-0.33l0.06-20.25c0.9-3.69,2.43-3.51,3.43,0.1c4.7,1.39,3.68,11.38,2.03,14.79  c8.83,0.28,17.73-0.03,26.7-0.94c0.08-15.68,0.14-31.36,0.17-47.04l-25.58,0.3l-3.27,3.26c-0.58,3.72-2.48,3.51-3.39-0.08  c0.48-3.56-1.42-7.49,0.81-11.65l71.09-0.17L717.86,1221.58z" />
<path class="cls-15" d="M610.09,1315.27c-10.74-0.79-15.56-11.25-15.45-19.57c0.13-9.44,6.83-18.84,17.46-18.37  c10.41,0.46,15.95,10.51,15.61,19.69C627.38,1305.93,621.36,1316.1,610.09,1315.27z" />
<path class="cls-15" d="M612.47,1171.51c-12.31,1.11-18.45-10.2-18.3-20.54c0.14-10.03,10.11-20.08,20.79-16.73  c8.58,2.69,13.08,12.01,12.5,19.47C626.85,1161.56,622.27,1170.63,612.47,1171.51z" />
<path class="cls-15" d="M872.1,1120.41c10.42,1.92,16.26,10.46,16.06,20.06c-0.19,8.74-6.69,17.07-16.32,16.97  c-10.82-0.12-16.56-10.83-16.05-19.65C856.32,1128.67,862.96,1120.95,872.1,1120.41z" />
<path class="cls-15" d="M873.53,1079.25c7.42,1.28,11.47,9.89,14.23,14.92c1.74,11.99-5.77,19.14-15.79,22.35  c-10.72-2.76-16.88-10.11-16.04-20.58C856.59,1087.67,863.98,1077.59,873.53,1079.25z" />
<path class="cls-1" d="M728.54,1240.24c-1.5,3.06-1.08,8.86-5.45,8.91l-82.51,1.06c-3.96-2.67-2.58-9.11-3.13-12.54  C666.91,1243.4,698.13,1238.26,728.54,1240.24z" />
<path class="cls-6" d="M649.76,1177.59l2.58,3.3c0.74,12.09,0.61,24.14-0.41,36.16l-3.25,2.75c-0.67,0.51-1.39,0.96-2.9,1.66  l0.35-44.19L649.76,1177.59z" />
<path class="cls-6" d="M649.67,1127.48c4.01,4.62,4.39,19.36,2.93,25.3c-0.43,1.76-1.67,3.14-2.98,4.33l-3.43-0.1  c0.03-9.83-1.24-19.77,0.09-29.6L649.67,1127.48z" />
<path class="cls-14" d="M469.85,1218.75c1.49,0.14,3.11,0.81,3.9,1.09l2.12-2.12c8.41,2.28,17.35,3.78,26.07,2.64l1.87,2.3  c1.02-0.3,2.49,0.98,3.62,0.21c5.04,0.94,8.95,3.24,11.57,6.5c2.97,3.71-0.16,6.83-1.22,10.72c-0.94,0.79-1.91,1.53-2.97,2.11  c-1.05,0.57-2.06,1.11-3.07,1.18c-26.6,1.66-53.17,0.13-79.73-1.5c-1.04-0.06-2.07-0.52-3.13-1.02c-1.09-0.51-2.1-1.18-3.09-1.9  c-1.99-3.89-4.41-8.48-0.08-11.69c2.37-1.76,6.01-4.65,9.61-5.92c2.27-0.8,5.02-1.33,6.47-1.39c0.23-1.05,0.59-2.62,1.39-2.74  c2.47-0.38,23.64-1.73,24.67-1.05C468.83,1216.8,469.53,1217.59,469.85,1218.75z" />
<path class="cls-12" d="M311.75,1218.61l1.51-2.67c7.92,0.02,15.85,0.05,23.78,0.07l1.87,2.68c1.76,0.01,3.03,0.78,4.03,1.07  c4.55-1.55,9.76-1.57,15.63-0.06c5.98-0.81,10.93-0.04,14.84,2.31c1.4-0.14,2.09,0.31,2.62,0.17c4.52,0.74,7.71,2.97,9.63,5.19  c3.05,3.52,1.31,6.8,0.18,10.17l-2.21,3.8c-29.29,2.69-58.8,2.41-88.52-0.83l-1.71-2.79c-2.56-5.14-4.16-8.82,0.8-12.02  c2.65-1.71,6.3-4.77,10.01-5.56C307.12,1219.51,309.96,1218.76,311.75,1218.61z" />
<path class="cls-1" d="M385.85,1237.53c-1.49,4.43-0.18,8.49-3.18,11.76l-85.67,0.74c-4.15-3.37-1.86-8.85-3.59-12.33  C308.67,1238.64,376.34,1243.99,385.85,1237.53z" />
<path class="cls-1" d="M517.78,1240.09c-1.08,3.98,0.02,8.27-2.65,9.76c-3.21,1.79-6.61,0.41-10.04,0.4l-76.16-0.06  c-3.94-1.1-1.8-8.62-3.14-11.24C456.37,1239.97,487.56,1243.54,517.78,1240.09z" />
<path class="cls-1" d="M524.89,1315.18c-9.23-0.1-18.76-3.57-28.01-4.21c3.16-1.28,82.31-6.32,78.54,4.24  C557.35,1315.26,541.16,1313.92,524.89,1315.18z" />
<path class="cls-1" d="M463.39,1310.12l-34.51,3.92c-9.63,1.1-16.97,0.28-24.15-3.76C424.22,1308.81,443.85,1310.2,463.39,1310.12z" />
<path class="cls-1" d="M809.67,1219.06c-8.32-3.45-7.54-21.97-0.86-26.82C818.03,1195.64,818.87,1216.37,809.67,1219.06z" />
<path class="cls-9" d="M1070.77,1095.83c-2.86,9.58-9.07,17.8-13.83,26.46c-5.74,4.55-10.31,11.33-18.77,12.26  c-11.48-12.28-13.16-29.08-13.66-46.84c-9.92,11.29-19.25,22.72-30.57,32.12c-6.67,5.54-15.99,7.96-23.01,13.02  c-0.54-0.19-1.45-0.46-1.55-0.93c-0.23-1.11,1.22-2.01,1.01-3.93c-5.36,2.68-14.15,10.97-20.22,3.67  c-0.02-8.29,6.51-21.38,12.77-28.34c16.01-17.77,29.89-37.19,45.25-56.73c7.56,13.89,24.69-2.75,32.12-8.37  c8.34,10.33,18.31,14.96,32.44,13.85C1072.01,1066.81,1074.88,1082.07,1070.77,1095.83z" />
<path class="cls-16" d="M1069.78,958.89c4.66,27.54,4.47,55.26,4.4,83.15c-19.78,3.19-31.78-15.44-35.57-35.34  c-11.38,23.42-36.42,41.91-59.3,32.6c0.24-18.46,12.96-34.67,23.86-49.82c8.8-12.23,21.01-22.33,30.79-34.02  c2.26,5.13,0.96,8.38,3.87,10.92C1047.58,974.89,1061.94,965.59,1069.78,958.89z" />
<path class="cls-15" d="M1070.06,918.45c-0.17,3.63,2.06,7.44,0.25,10.69c-4.29-12.7-7.2,21.48-25.49,17.67  C1059.17,935.59,1061.32,920.9,1070.06,918.45z" />
<path class="cls-6" d="M435.27,1166.92l-58.48,0.86c-0.77-13.9-0.64-27.78,0.05-42.38l58.29,0.62L435.27,1166.92z" />
<polygon class="cls-6" points="435.22,1212.43 376.94,1213.18 376.7,1170.78 435.05,1171.45 " />
<polygon class="cls-11" points="373.14,1173.12 343.14,1173.38 343.15,1122.19 373.14,1122.05 " />
<path class="cls-11" d="M503.78,1172.93c-10.44,0.86-19.56,0.66-29.98,0.38l-0.4-50.6c10.24-1.25,19.78-0.75,30.35-0.69  L503.78,1172.93z" />
<path class="cls-11" d="M339.9,1173.26l-28.26,0.02l-0.43-50.66c9.78-1.26,18.83-0.49,28.51-0.35L339.9,1173.26z" />
<path class="cls-11" d="M470.3,1172.99c-9.87,1.05-18.58,0.25-28.52,0.28l-0.06-51.13l28.5,0.05L470.3,1172.99z" />
<path class="cls-11" d="M373.43,1222c-9.86,0.99-20.01,0.73-30.48-2.24l0.1-41.97l30.42-0.31L373.43,1222z" />
<path class="cls-11" d="M503.81,1222.66c-7.22,2.1-23.04-0.33-30.06-2.82l-0.08-41.65l30.01-0.65L503.81,1222.66z" />
<path class="cls-11" d="M469.85,1218.75l-28.05,1.2l0.24-42.29c9.77,0.06,18.44-0.72,27.86,0.51L469.85,1218.75z" />
<path class="cls-11" d="M338.92,1218.69l-27.17-0.08l-0.02-41.29l27.79,0.47C340.4,1191.83,340.9,1205.41,338.92,1218.69z" />
<path class="cls-11" d="M817.18,1016.18c10.36,8.38,18.9,19.63,27.75,29.7l-192.53,2.47l27.65-31.99  C726.79,1016.75,771.8,1018.28,817.18,1016.18z" />
<path class="cls-11" d="M814.43,1012.4l-130.51,0.7l63.28-74.1C770.95,961.75,793.06,987.2,814.43,1012.4z" />
<path class="cls-11" d="M714.97,1221.27c-26.68,4.3-28.32-8.03-66.28-1.48c3.03-13.72,0.43-28.12,1.08-42.21l65.3-0.36L714.97,1221.27  z" />
<path class="cls-11" d="M649.62,1157.11c0.86-10.57,0.59-20.13,0.05-29.63c-0.14-2.53,0.03-4.03,0.49-5.91l31.09-0.37l-0.22,52.17  c-10.22,1.76-20.73,1.56-30.89,0.15C649.85,1167.21,650.39,1162.19,649.62,1157.11z" />
<path class="cls-11" d="M715,1173.19c-10.55,2.16-21.1,1.69-31.43,0.23l-0.24-51.26l31.57-0.86L715,1173.19z" />
<g>
</g>
<g>
</g>
<g>
</g>
<g>
</g>
<g>
</g>
<g>
</g>
<g>
</g>
<g>
</g>
<g>
</g>
<g>
</g>
<g>
</g>
<g>
</g>
<g>
</g>
<g>
</g>
<g>
</g>
</svg>