<?xml version="1.0" encoding="iso-8859-1"?>
<!-- Generator: Adobe Illustrator 30.2.1, SVG Export Plug-In . SVG Version: 9.03 Build 0)  -->
<svg version="1.1" id="Layer_1" xmlns="http://www.w3.org/2000/svg" xmlns:xlink="http://www.w3.org/1999/xlink" x="0px" y="0px"
	 viewBox="0 0 1200 1543" style="enable-background:new 0 0 1200 1543;" xml:space="preserve">
<style type="text/css">
	.st0{fill:#85624A;}
	.st1{fill:#EBF1F6;}
	.st2{fill:#627A87;}
	.st3{fill:#4B4E56;}
	.st4{fill:#718784;}
	.st5{fill:#A4C7D9;}
	.st6{fill:#5D737A;}
	.st7{fill:#647042;}
	.st8{fill:#665554;}
	.st9{fill:#677E7B;}
	.st10{fill:#796C60;}
	.st11{fill:#384B54;}
	.st12{fill:#F7AD2C;}
	.st13{fill:#83739F;}
	.st14{fill:#695788;}
	.st15{fill:#495460;}
</style>
<path class="st0" d="M0.01,120.54V0H1200v1015.87c-0.08,1.05-0.33,2.62-1.07,2.73c-6.9,0.98-32.07,2.56-38.2,1.67l-2.04-2.59
	l-2.71-1.67l-1.82-15.84c-0.22-282.98,0.24-563.44,0.92-847.4c-1.84-22.45-2.02-44.49-0.54-66.1c-1.66-3.68-1.83-6.76-0.51-9.26
	l-6.08-0.9l-22.64-15.3l-86.11,1.64l-7.7-2.55l2.48,3.48c-0.39,18.85-0.86,37.7-1.43,56.55l-2.72,1.5l1.65,4.44
	c-2.24,24.42-2.81,49.02-1.7,73.82c0.16,5.25-1.19,8.21-5.99,5.17l-4.97-85.49c-2.38-3.66-5.71-6.58-9.96-8.77
	c0,0,0,14.05-0.01,42.15c4.13,50.3,5.56,100.62,4.28,150.96c-0.46,3.79-2.8,4.83-5.71,3.3l-8-198.09
	c-0.97-6.51-3.14-10.8-9.84-12.67l-1.01-2.98l-3.55,0.24l-8.62-7.18l1.48,220.64l-2.67,1.67c-0.32,1.19-0.82,1.27-1.53,0.26
	l-0.11,1.79c-19.12,0.95-38.59,1.13-58.42,0.56l-1.55-2.69c-0.63-1.41-1.21-2.83-1.62-4.3c-0.4-1.43-0.74-2.85-0.76-4.26
	c-0.55-39.45-1.05-79.22,0.41-118.64c2.77-18.86,3.62-37.51,2.55-55.94c-0.53-0.97-19.39-2.15-21.92-1.2
	c-20.76,7.81-41.28,17.43-60.8,28.11l-6.57,0.95l2.68,0.93c0,50.83-0.01,101.68-0.01,152.53l-2.68,1.64l-1.84,2.69
	c-4.79,1-20.4,2.25-20.91-3.57l-3.38-3.07c-5.17-44.87-5.19-90.02-0.06-135.44c-5.61-0.71-11.29-0.92-17.02-0.61l-2.15-2.76
	c-1.19,3.34-1.38,3.16-2.86,0.01l-6.41,5.31c-19.58,8.25-38.83,17.18-57.77,26.81l-8.11,1.59l2.66,1.27
	c-0.87,70.31-1.31,105.46-1.31,105.46l-2.7,1.57c-0.11,1.06-0.49,2.66-1.23,2.68c-28.63,1.02-58.54,0.48-86.97-0.62l-0.89-1.31
	c0.2-79.34,0.03-158.75-0.54-238.22l-19.23-5.91l-0.99-3.11c-2.74-0.03-2.76-1.36-0.26-2.64l-0.97-1.36
	c-3.83,0.01-4.12-1.45-3.84-4.98l-3.73,0.25c-24.13-17.1-57.87-11.88-84.64-4l-9.2,0.64c2.2,2.76,1.97,3.15-1.51,2.6l-2.28,2.87
	c-4.22-1.01-8.47-1.5-12.76-1.46l2.62,2.1c-0.83,31.4-1.66,62.8-2.49,94.21l-2.72,1.55c-2.44,3.21-8.42-1.42-6.75-4.94
	c-45.65-22.14-96.55-27.97-146.67-21.24c-30.31,5.87-60.19,11.77-89.62,17.69c-72.21-23.44-147.98-28.69-223.18-21.2L0.01,120.54z"
	/>
<path class="st1" d="M301.6,966.82l2.87,4.64c1.65,15.65,2.36,31.3,2.14,46.95c3.69-0.22,5.94,0.92,6.75,3.4
	c2.91,0.24,5.65-0.27,8.2-1.52l2.51,1.76c0.81-2.92,2.3-2.69,4.64-2.15c4.18-16.06,8.77-32.02,14.69-47.56
	c0.41-1.09,1.23-2.03,2.09-3c0.87-0.98,1.89-1.84,2.95-2.66l2.34-2.67c10.06,0.04,20.13,0.09,30.2,0.13l1.9,2.69
	c0.74,1.37,1.42,2.76,1.93,4.22c0.5,1.43,0.95,2.83,1.02,4.25c0.72,15.55,0.47,31.23-0.16,46.76c2.69-0.62,4.43,0.16,5.23,2.34
	c0.96-4.04,10.39-3.87,12.21-0.17c0.07-2.36,1.8-3.15,5.17-2.38c13.73-27.13,20.6-40.7,20.6-40.7c3.12-2.9,6.2-5.94,9.25-9.15
	c2.44-0.42,4.88-0.79,7.34-0.96c2.45-0.16,4.88-0.33,7.23-0.02c37.9,4.91,76.02,10.8,112.83,20.98l6.59,3.36l1.93,3.85
	c-3.98,22.01,3.9,44.34,20.48,59.28c15.86,12.53,31.35,25.56,46.47,39.09c4.89,5.76,13.65,16.65,9.89,23.62
	c0.19,0.98,0.5,2.58-0.11,2.91c-3.61,1.99-13.36,5.75-17.37,6.73l-2.69-1.83l-1.4,1.12c-2.29-2.98-4.33-6.15-6.12-9.51
	c-2.98-1.01-5.2-3.6-6.68-7.77l-4.63-6.17c8.91,14.52,16.02,29.8,21.34,45.83l-1.76,4.39c1.05,4.27-1.56,7.98-7.83,11.14
	c-6.47,4.66-13.02,6.51-19.65,5.55c-0.26,4.43-6.66,5.89-9.31,2.37l-1.16,2.85c-6.44,0.82-12.87,1.64-19.32,2.45l-2.21-2.42
	l-2.38-2.22c0.75-9.63-2.04-19.14-5.28-28.12c-2.68,2.07-4.71,4.9-6.1,8.49l-3.44,0l-2.99-0.55l-4.49-8.89
	c-2.75,2.2-5.27,3.17-7.55,2.89c-2.81,0.19-5.46-1.62-7.93-5.44c-4.61,6.88-10.36,6.71-17.24-0.51c-5.96,13.4-5.81,29.4-1.59,43.29
	l-1.54,3.73c0.02,1.05-0.06,2.62-0.79,2.82c-4.36,1.21-14.49,2.46-19.28,2.78c-4.41,1.55-7.43,1.08-9.08-1.4
	c-0.37-1.01-0.68-2.03-0.82-3.08c-0.13-1.01-0.22-1.97,0.07-2.77c6.11-16.65,15.19-34.56,26.31-48.19
	c-0.05-3.98,1.67-8.03,5.17-12.16c-2.43,5.56-5.39,8.17-8.87,7.83c-4.28,8.66-9.24,17.14-14.86,25.45
	c-6.81,15.84-15.49,30.15-26.02,42.92l-3.74-0.29c-2.23,0.3-3.69-0.77-4.43-2.78c-1.3-3.56,2.82-29.06,4.05-34.41l2.94-1.48
	l-2.03-3.78c3.22-11.81,8.05-22.98,14.48-33.5l3.89-1.61l1.26-1.43c-2-1.68-1.33-2.53,1.15-1.52c11.8-13.97,25.82-25.82,42.07-35.55
	c24.99-19.53,40.3-39.7,33.63-73.46c-7.51,5.18-14.55,11-21.1,17.46l-3.46-0.76c-2.53-1.21-3.52-4.17-2.96-8.88
	c-0.23-8.69-3.01-13.38-8.33-14.06c-4.82,2.94-8.29,3.38-10.42,1.31c-2.77-2.12-4.13-5.65-4.08-10.59
	c-3.7-15.46-13.91-14.58-30.63,2.66c-2.27,1.59-4.32,1.3-6.05-0.87c-0.86-1.7-9.69-18.61-11.71-17.01
	c-7.71,6.11-14.78,22.12-17.08,31.68c-6.28,26.2,2.92,47.45,13.27,71.18c6.48,17.81,10.16,36.78,5.49,55.46l1.78,2.68l-2.85,15.18
	l-3.1,1.24c0.76,2.54-0.1,5.21-2.58,7.99c-3.38,11.79-6.3,23.76-8.77,35.92l-3.34,1.07c-3.58,5.35-6.82,3.17-8.39-3.56
	c-3.49-30.55-10.76-60.47-20.92-89.48c1.91-6.74-1.56-3.95-0.24,1.93c-19.04,27.98-32.48,58.14-42.74,90.28
	c-1.7,5.32-8.81,28.2-8.16,30.17c0.1,0.3,6.28,0.82,6.37,0.52c9.73-38.51,20.79-77.21,39.49-112.54c2.28-4.35,4.33-3.65,7.39-0.56
	c9.84,42.65,13.65,88.35,16.28,131.87c-0.14-1.86,0.36-1.39,1.52,1.42c0.36-2.56,1.42-2.43,2.68-0.05c-0.07-3.84,3.01-3.8,4.11-0.18
	c0.99-4.06,10.49-3.89,11.84-0.15c1-2.43,3.56-3.18,7.7-2.22l9.39-29.66c1.27-4.62,3.6-6.86,6.97-6.72c0.36-0.98,1-2.41,1.76-2.34
	c2.64,0.25,23.04,4.8,24.83,5.76c1.39,0.75,2.68,1.92,3.08,3.46c3.63,1.13,5.11,4.04,6.26,7.46c0,0,0.2-1.65,0.59-4.94l2.1-2.23
	c6.46,1.63,12.92,3.26,19.39,4.9l1.14,3.05c4.42,0.76,5.7,8.99,5.95,13.21c0.26,4.29-0.04,8.04-2.43,11.74l2.46,1.85l-2.89,21.93
	c4.11-0.22,7.06,0.68,8.84,2.71c0.17-2.29,2.04-3.1,5.6-2.43c1.92-12.17,5.66-24.1,11.2-35.77l3.07-1.31l2.7-1.79
	c23.71,7.88,69.74,31.66,82.63,52.96c2.37,3.91,6.83,11.91,1.92,14.47c-0.05,1.17-0.45,1.24-1.19,0.28
	c0.02,1.05-0.28,2.67-0.93,2.68c-118.6,1.37-236.97,1.69-355.93-2.11c-34.29-2.26-73.07-4.98-105.65-15.59
	c-33.41-10.88-42.2-31.53-9.43-51.72c1.51-0.93-30.74,6.91-34.4,8.24c-12.05,4.39-51.11,24.96-50.78,38.46
	c0.12,5.15,4.89,6.81,9.16,7.78c74.15,14.74,148.35,30.42,220.7,52.72c0,0,4.68,2.42,14.05,7.26c27.57,3.64,54.71,16.59,78.63,30.55
	c9.39,3.48,16.61,8.9,21.67,16.25c9.5,2.09,15.6,13.68,15.09,22.86c5.11,6.5,1.43,14.53-5.24,19.13c-2.72,1.87-6.11,4-8.52,1.13
	l-6.39,0.22c-37.18-14.51-77.41-18.21-117.02-20.34c-39.68-1.16-79.37-2.9-119.1-5.22c-65.76-5.1-136.02-13.22-194.8-44.03
	l-2.09-3.1v-360.27l5.51-3.75c51.97-18.95,106.89-31.86,161.93-37.52l6.61,0.96c4.52-0.97,8.89,8.02,10.52,12.08
	c3.01,4.99,3.07,8.58,0.17,10.77c3.53,4.72-3.17,13.74-6.75,17.9c-5.11-1.11-9.99-3.5-14.64-7.17c-15.33-9.41-18.1,5.13-18.39,17.6
	l-2.94,2.13l-1.03,1.52c-12.96-4.41-17.26,2.76-12.9,21.52l-2.56,1.68l-3.6,0.81c-7.13-5.98-14.77-11.11-22.94-15.36
	c-3.88,33.79,14.51,52.89,40.86,69.51c15.83,6.99,29.41,16.31,40.75,27.96l3.7-0.08c7.31,8.4,19.8,24.4,21.11,35.47l-1.95,3.21
	l2.88,0.61c4.59,20.95,9.41,41.8,14.47,62.57c4.94-0.89,8.62-0.12,11.03,2.3c0.86-3.91,4.39-3.49,5.2,0.31
	c0.6-3.55,1.8-3.49,2.94-0.1l1.66-3.32l-0.32-25.01c2.21-24.68,3.24-49.16,3.08-73.44c-6.82,28.03-10.36,56.71-10.61,86.04
	l-1.92,2.39c-3.68-0.46-6.09-3.34-7.23-8.66c-3-14.29-7.53-27.71-13.61-40.26l0.59-3.61l-3.19-1.38
	c-2.56-6.54-4.83-13.18-6.82-19.91c2-0.75,2.19-2.14,2.03-3.99l-1.6-1.91c-2.86-24.62,0.3-48.86,9.49-72.71
	c3.98-14.95,3.75-30.55-0.34-45.58l1.6-4.31c-0.1-3.76,1.74-3.69,2.99-0.25c1.1-1.63,2.81-2.11,5.13-1.46
	c-0.83-18.14-0.29-36.22,1.63-54.23c0.7-2.57,1.9-3.13,4.1-2.55c6.4,1.7,29.27,51.5,33.04,60.9c-0.23-2.18,1.56,0.09,2.65,1.68
	c1.66-3.58,2.24-3.28,4.05,0.07c1.16-3.47,7.59-3.82,8.51-0.04c-0.83-2.88,5.29-2.92,6.45-2.24c1.54,0.9-0.02,2.17-0.32-0.75
	c-1.53-15.14-1.13-39.81,1.13-54.83c0.3-2.02,1.65-3.72,2.89-5.27c0.14-1.02,0.35-2.47,1.12-2.68
	C288.89,963.43,301.16,963.18,301.6,966.82z"/>
<path class="st2" d="M1200,1015.87v526.98H0.01v-26.79c4.28-0.93,8.64-1.76,13.04-1.58c66.52,2.62,132.85,4.49,199.44,0.97
	c0,0,6.45,0.74,19.34,2.22l0.88-2.7c74.05-1.96,148.06-3.35,222.02-4.17c4.76,7.55,12.02,11.37,20.41,14.13
	c39,12.84,101.1,11.46,142.51,9.04c52.38-4.38,105.44-7.48,159.19-9.32c59.05,1.24,118.06,1.73,177.02,1.46l6.68,1.41
	c2.07-3.88,8.44-3.34,11.46-0.69c0.24-2.69,1.27-2.58,1.93,0.12c2.17-3.28,9.69-3.53,11.88-0.2l1.07-2.79
	c3.21-0.09,6.38-0.07,9.5,0.05l1.18-2.76c28.12-3.15,58.85-7.25,85.08-18.66c57.27-24.9-33.31-38.42-52.61-41.07l-4.08-3.25
	c-2.81,1.27-7.51-1.17-8.1-4.22c-3.17-3.45-3.25-8.42-0.24-14.94c5.89-13.08,11.99-26.09,18.29-39.02
	c-9.3,11.55-16.73,24.31-22.3,38.28l-4.04,2.51l-3.05,1.15c-4.19-3.95-8.74-7.34-13.63-10.18l-0.69-3.06
	c-1.61-4.35-0.67-9.03,2.81-14.02c5.36-10.01,11.69-19.38,19-28.11c13.03-19.77,20.77-53.05,4.75-73.34
	c-0.23-0.3-4.34,2.29-4.86,3.07c-3.52,5.14-7.73,8.76-12.63,10.86c-4.77-4.55-9.26-9.42-13.48-14.61
	c-7.11-4.55-12.41-0.1-15.91,13.36c-3.24,2.06-7.4,1.46-12.47-1.81c-5.68,2.43-9.06,8.19-10.12,17.29
	c-2.55,2.77-3.86,3.82-6.75,0.67c-4.43-6.56-9.19-12.85-14.27-18.86c-11.88,25.39-1.45,54.68,18.43,72.9l6.24,8.65l-0.96,2.99
	l-4.28,0.66c-25.48-6.12-51.28-10.35-77.39-12.69l-7.73-3.09l-1.62-0.86c0.62-5.9,1.91-11.84,3.88-17.84
	c-0.63,2.46-1.76,3.87-4.51,4.02l-4.3,13.48l-1.8,0.31l-1.5,2.68l-17.71,0.03l-1.88-2.68c-4.42,0.34-6.43-4.32-2.66-6.9
	c-0.18-17.26,4.52-32.29,11.62-47.66c3.83-9.76,5.46-20.37,3.72-30.83l2.12-3.44l0.79-2.72l211.07-11.27
	c6.33-0.52,12.61-1.38,18.84-2.59c2.98-0.58,13.27-2.67,14.36-3.88c1.41-1.56-11.69-8.28-13.49-7.93
	c-19.75-4.31-39.61-8.11-59.57-11.41c-28.45-8.32-4.52-19.73,9.52-25.03c2.4-0.54,51.9-16.66,47.51-18.23
	c-5.48-1.96-11.58-3.31-17.3-4.39c-12.44-2.34-25.03-3.52-37.67-4c-44.21-0.81-88.53-3.7-131.04-14.6c-3.66-1.34-8.03-3-4.5-6.51
	c-7.55-3.33,4.88-15.87,11.22-10.85l0.88-2.81l75.18-9.64c5.35-1.26,11.24-3.1,14.6-7.65l-46.3-20.71
	c-4.65-7.02,3.71-11.92,9.83-14.23c6.88-2.6,17.04-4,24.25-4.91c47.82-6.05,95.63-11.29,143.73-14.34c1.05,0.14,4.28-1.72,3.96-2.43
	c-2.57-5.65-34.49-8.69-41.32-9.23l-144.11-4.9c-8.29-1.21-33.73-6.51-28.62-18.84c3.17-7.66,20.49-11.35,28.01-12.86
	c38.04-5.92,76.24-9.2,114.6-9.85c2.37,0.18,4.31,0.98,5.82,2.38c1.41-3.82,3.12-3.68,3.75,0.38l2.96-1.48
	c11.57,2.43,23.69,2.12,36.38-0.94l2.29,2.58c0.35-3.57,1.59-3.44,2.69-0.06c3.99-1.83,5.99-2.74,5.99-2.74l43.24,0.23l0.49-28.01
	l2.71-1.85L1200,1015.87z"/>
<path class="st3" d="M921.32,1019.2c18.09-3.59,38.04-3.54,56.13,0.07c2.52,2.47,3.6,6.44,3.25,11.88l3.75,7.75l5.08-1.78
	c18.88,2.09,37.84,2.47,56.86,1.13l4.82,2.6c6.91,2.45,9.24,5.35,6.98,8.72c-15.9,1.18-156.54,3.43-145.84,25.71
	c9,10.12,26.42,11.28,39.93,11.65l116.38,3.18c7.48,0.2,61.57,3.22,57.57,13.93c-0.76,2.03-3.52,3.71-6.42,3.97
	c-53.33,4.81-106.48,7.01-159.03,17.08c-7.71,1.48-16.67,3.83-18.07,11.23l49.83,22.12c-5.21,9.46-17.37,11.58-27.33,12.82
	l-67.52,8.35l-3.86-0.16c-12.48-8.22-28.72-8.4-42.74-4.42l-5.83-0.59c-2.31,1.86-5.47,2.24-9.48,1.14
	c-60.74,1.18-17.27,27.51,14.07,13.54l3.29,1.6l3.81-1.81c9.03,0.55,18.07,0.18,27.14-1.1l2.37,2.65
	c-1.37,8.7,90.48,17.08,97.94,17.36c32.26,1.24,66.02-0.42,98.39,11.29c-9.14,13.09-74.1,22.06-73.13,35.23
	c0.89,12.14,87.3,10.02,86.3,30.05c-16.73,6.12-33.5,7.38-51.16,8.31L847.95,1303l-3.04-1.37c-1.62-6.47-4.41-13.07-9.76-17.27
	c-3.83,7.15-8.43,10.48-13.79,9.97c-9.07-10.85-14.94-10.61-17.6,0.74l-3.09,1.31l-2.37,1.65c-6.16-2.85-9.25,0.55-9.25,10.23
	l-2.8,1.48c-2.1,3.62-5,1.15-7.61-1.26c-6.71-9.79-9.71-7.53-9,6.77l-2.17,2.44c-0.39,2.33-2.38,4.06-5.96,5.18
	c-4.74,3-5.13,7.65-1.18,13.94c3.27,17.48-9.37,25.24-24.62,28.75l-88.19,11.28l-1.92-2.45l-6.18,1.91
	c-16.34-4.16-31.87-3.66-46.58,1.48l-3.32-0.9l-2.45,2.31c-17.49-5.26-31.97-2.9-43.44,7.11c13.21,13.44,34.41,11.36,50.27,3.81
	l3.36,1.28c3.96-1.53,8.56-1.46,13.81,0.21c13.68-0.33,20.52-0.5,20.52-0.5c4.49-1.55,8.58-1.55,12.25-0.01l1.3-2.52
	c0,0,34.06,4.95,102.19,14.85l1.22,2.88l-2.55,3.91c-15.05,6.19-29.79,13.95-41.1,25.85l-4.47,1l0.75,3.16l-11.94,11.67l-3.16,0
	l-2.83,2.26c-10.14-1.58-29.22-0.6-36.97,6.56c-3.77,3.48,28.09,10.76,31.04,7.38l1.94,2.57l2.91,0.22
	c3.04,5.4,11.49,7.69,17.6,8.59c80.17,11.92,159.64,19.96,241.37,15.62c4.63,0,9.18,1.08,13.65,2.21l2.97,2.01l4.59,19.11
	c1.57,4.34,0.97,7.37-1.79,9.09c-37.37,2.23-74.45,2.39-112.83,0.71c-69.08-3.03-135.93,0.68-204.45,6.76
	c-30.6,2.72-175.89,10.38-189.76-22.13l-221.67,4.81c-11.99,1.16-20.96-1.93-26.9-9.26c-45.7,6.11-91.7,7.84-137.98,5.19
	c-20.7-1.78-41.37-2.08-62.01-0.89l-4.93-2.02v-24.11l0.84-2.71c99.6-2.14,200.29-6.18,302.05-12.11
	c44.57-2.43,87.87-10.02,129.9-22.76l6.62,0.23c4.86-2.08,12.97-4.97,13.26-12.74c0.37-9.71-5.94-24.11-14.6-30.37
	c1.04-3.48,10-2.17,12.93-1.23c11.38,3.63,14.22,12.87,6.88,22.03c13.41,2.26,26.58,5.49,39.49,9.67
	c22.35,11.22-0.86,20.72-13.71,24.4l-25.82,7.84c-1.8,8.51-8.01,15.98-16.13,19.27l-30.12,10.85c-0.41,1.01,1,1.44,4.24,1.3
	l2.23,2.7l11.53,1.98c7.6-1.42,14.48-0.93,20.62,1.47l3.35-2.51c16.96,0.78,47.01,0.95,60.57-10.36c1.09-0.91-0.58-5.95-2.27-6.7
	l-16.55-10.89c-8.89-8.74-4.65-14.7,5.27-20.04c46.3-10.28,92.97-18.41,140.02-24.41c1.81,0.37,10.1-3.58,8.87-5.06
	c-2.99-3.59-20.02-6.64-25.07-7.46c-36.43-3.85-72.7-8.65-108.81-14.41c-15.51-1.97-40.95-15.49-17.43-28.63l131.59-21.55
	c-2.8-2.55-7.43-3.58-11.19-3.15c-69.62,10.58-140.01,15.63-210.27,19.95c3.24,11.77,12.03,16.47,23.01,20.21
	c4.86,3,12.18,10.37,6.75,14.73c-30.09-21.79-65.01-35.38-100.31-46.8c5.45-1.63,10.97-3.23,16.66-3.71
	c36.47-2.36,72.92-5.11,109.27-8.88c60.03-6.22,116.93-16.11,176.06-26.46c3.51-0.61,9.49-2.86,8.69-6.88l2.51-1.8
	c0.39,0,0.82-0.35,1.19-0.28c10.68-6.37,14.27,10.59,14.29,18.82c-4.76,6.86-12.02,11-21.77,12.41l32.63,7.1
	c-2.48-10.47-0.01-16.2,7.41-17.2c17.81-3.28,35.04-8.25,51.71-14.91c5.04-2.13,7.34-5.1,6.9-8.92l-16.05-8.81
	c-18.53-14.72,20.02-17.77,29.18-18.47c62.17-3.12,124.21-5.09,186.12-5.9l1.68,2.64c0.28,12.35,37.61,8.42,40.06,4.42
	c1.73-2.83-19.63-6.42-22.17-5.01l-1.7-2.68c-11.94-0.62-23.88-1.63-35.81-3.03c-21.75,0.33-43.22-1.01-64.42-4.01
	c-1.11-2.06-1.46-4.26-1.06-6.62c-18.22-1.42-36.45-3.12-54.7-5.11c-11.26-2.19-26.98-7.36-11.36-18.57l97-16.56
	c-5.17-4.43-11.6-7.14-19.29-8.14c-28.24-4.43-56.32-9.62-84.23-15.56c-46.9-18.55-2.28-29.2,20.9-33.53
	c26.64-3.28,52.87-8.03,78.68-14.23c-4.37-6.04-13.85-6.65-21.06-7.01l-3.94-2.7c-0.78,2.56-1.92,2.53-2.56-0.07l-1.45-1.07
	c-0.21,4.63-11.32,3.01-12.08-0.71c-34.52-3.63-69.1-6.22-103.85-7.23c0,0-1.92-1.03-5.77-3.08c-2.31-1.73-1.92-4.38,1.16-7.95
	c-1.22-0.24-1.17-0.7,0-1.34l2.84-3.96c-1.07-0.6-0.96-1.03,0.27-1.29l-0.63-3.13c3.54-5.92,7.28-11.61,11.2-17.07
	c-1.1-0.3-1.08-0.72-0.02-1.23c2.84-7.05,6.38-13.88,10.62-20.48c-10.31,12.65-19.25,26.3-26.81,40.96
	c-1.74,5.84-4.84,10.26-9.31,13.26c-2.93,3.49-8.34,3.35-11.01-0.38c-2.52-1.37-2.98-11.97-2.49-14.83l2.7-1.51l-2.4-3.43
	c2.07-11.52,5.59-22.62,10.58-33.31l3.6-1.92c6.61-11.4,15.23-20.53,25.85-27.4l3.4,1.38l5.25-2.34c11.31,1.21,22.55,1.14,33.7-0.21
	c0.92-4.26,3.98-5.14,7.74-3.45l0.55-14.5l2.66-3.28c0.63-3.86,14.09-3.3,17.43-2.56c2.02-0.35,3.04,0.62,3.64,2.7l2.73,3.48
	l1.45,13.95c2.05-0.32,2.87,0.65,3.19,2.84l2.95-2.07c22.05,2.26,51.48,3.97,73.03-1.22c4.13-0.99,4.27-2.38,4.43-6.1
	C911.9,1024.82,913.85,1012.29,921.32,1019.2z"/>
<path class="st4" d="M703.04,308.05c0.77-4.19,12.27-3.99,13.39,0.02l2.77-2.62c7.06,0.73,14.12,0.98,21.18,0.75l2.94,2.3
	c0.16-2.79,1.53-2.74,2.66-0.1l5.47-2.38c15.03,0.84,30.13,1.44,45.13-0.11l5.57,2c7.17,2.76,15.17,0.78,22.75,0.87
	c0.07-4.05,8.6-3.76,9.23,0.11c12.29-3.92,26.73-3.77,39.05,0.06c0.88-1.86,3.07-3.09,6.58-3.68c2.04-0.85,3.59-0.67,3.82,1.44
	l26.23-0.4l3.82,2.65l60.08,0.34c4.02,0.17,3.68,6.71-0.08,7.42l-0.94,2.68c-118-0.36-235.85-0.12-353.54,0.72l0.08,44.95
	l-2.67,1.95l2.68,1.28c0,182,0.29,363.99,0.86,545.98l82.59,0.42l1.6,2.69c1.76-4.04,10.77-4.21,12.31,0.05l7.44-2.19
	c24.53,0.13,48.97,0.23,73.35,0.31l3.66,1.76c0.12-1.04,0.41-2.58,1.15-2.68c1.97-0.28,21.17-0.53,22.19-0.08
	c0.99,0.44,1.48,1.62,1.88,2.67c1.2-3.86,6.79-3.91,8.08-0.08c3.86-1.79,5.79-2.68,5.79-2.68c22.97,1.28,45.92,1.51,68.86,0.7
	l5.9,2.09c0.58-1.18,1.34-2.37,2.6-2.91c2.51-1.07,20.78-0.1,22.5,3.51c4.36,0.15,5.98,5.73,1.64,7.32l-0.92,2.68
	c-64.78,0.47-129.52,0.66-194.24,0.58l-1.65-2.35c-0.74,4.09-12.05,4.6-12.46,0.16c-5.91,3.21-18.22,5.37-22.57-0.57
	c-1.66,2.82-8.67,3.37-10.48,0.24l-4.07,2.66l-75.89-0.06c1.27,20.99,0.63,41.82-1.92,62.48c-0.65,6.01-11.82,2.56-14.41-1.09
	l-4.55,0.55c-11.59-5.01-23.3-9.75-35.13-14.24l-2.31-4.09c-1.98-2.76-3.61-3.55-4.88-2.38c-1.35,0.89-2.87,1.85-4.48,1.71
	c-6.79-0.59-28.59-9.35-35.77-12.69l-2.89-3.74l-2.68-2.11c-0.07-249.66-0.15-499.33-0.22-749.01l2.68-1.68
	c0.26-1.6,1.41-2.87,3.46-3.81l0.48-23.81L1.67,179.45l-1.66-2.67v-12.05c2.9-2.97,6.82-4.12,11.76-3.43
	c34.91,2.2,69.64,3.09,104.76,1.5c31.34,2.33,62.41,4.25,93.21,5.76c56.81-4.48,116.26-7.86,174.97,0.15
	c10.82-2.4,21.64-5,32.45-7.79c20.58,3.02,40.81,3.26,60.71,0.72l4.04,1.62l5.62-1.37c7.73,2.37,15.3,3.39,22.7,3.05l0.16-93.99
	c-3.42-0.87-8.78-2.29-5.63-6.3c0.32-0.99,0.85-2.41,1.63-2.42c1.95-0.03,20.83,3.47,22.63,4.22l1.34,2.98
	c0.74,5.43,1.19,5.53,1.34,0.16c0.24-1.01,0.66-2.48,1.45-2.54c1.9-0.16,20.75,1.73,22.39,2.29l1.61,2.86l1.35,0.37
	c0.06,8.67,0.5,8.54,1.33-0.39c0.21-4.56,7.69-4.46,7.84,0.08c1.46,0.79,2.78,0.55,3.95-0.73l1.14-2.89
	c7.4-0.06,13.2-2.41,17.4-7.05l3.03-0.02l23.18,7.12l0.42,128.84l-0.69,110.89L703.04,308.05z"/>
<path class="st5" d="M439.41,1449.27c-66.02,28.23-233.19,31.01-310.74,33.39l-128.66,3.95v-109.82
	c69.82,36.99,176.76,44.72,256.29,47.53C315.18,1426.39,387.02,1426.16,439.41,1449.27z"/>
<path class="st5" d="M166.1,895.94c2.93-1.53,5.94-0.52,9.04,3.03c5,3.16,7.88,7.08,8.63,11.76l3.56,1.53
	c6.91,12.65,10.75,25.89,11.53,39.71l1.63,0.86l1.77-14.08c0.31-7.68,2.66-13.53,7.05-17.53c-1.58-2.72,0.94-2.91,2.11-0.18
	c2.26-4.69,10.26,2.07,9.75,6.2c5.69,4.31,1.73,22.05-5.53,21.52c6.92,9.81,4.92,18.57-0.21,28.39c2.34,14.8,3.28,29.75,2.8,44.85
	l-2.41,3.56l-2.99,0.25c-2.89,0.48-5.18-1.69-6.84-6.49c-3.96-4.65-5.24-8.65-3.83-11.99c-4.07-9.44-6.3-19.63-6.7-30.57
	c-5.38,0.65-9.38-0.26-11.99-2.72c-4.76-3.24-8.77-7.93-12.02-14.08c-12.23-15.22-12.74-14.74-1.55,1.45
	c4.45,5.4,5.84,10.34,4.17,14.82c-59.54,7.29-117.44,20.95-174.06,40.3V912.05l4.48-2.66c19.36-1.74,38.57-4.7,57.64-8.88l4.89,2.04
	c1.84-0.92,3.69-1.78,5.62-2.46c1.91-0.67,3.8-1.31,5.73-1.52c25.17-2.74,50.65-4.21,75.95-4.92c1.94-0.05,3.9,0.3,5.88,0.69
	C162.19,894.74,164.15,895.31,166.1,895.94z"/>
<path class="st6" d="M0.01,772.77v-92.41l0.93-2.68c58.79-0.16,117.57-0.03,176.34,0.38c6.42,5.16,13.09,9.96,20.01,14.41
	c0.29,8.58,2.11,65.7-0.11,68.52c-0.75,0.95-18.51,13.91-19.72,13.99L1.65,775.45L0.01,772.77z"/>
<path class="st6" d="M512.81,202.23l-1.28,2.68c-169.92,0-339.87,0-509.85,0.01l-1.67-2.68v-25.45l223.72-1.72l295.75-3.17
	l-0.59,29.34C516.46,201.82,514.63,202.23,512.81,202.23z"/>
<path class="st5" d="M464.65,146.41l6.75,4.94c4.84,0.12,17.38,7.5,10.51,11.92c-19.02,6.08-39.38,2.02-60.21,0.33
	c-14.25-1.15-27.03,9.61-41.28,7.52c-28.87-4.24-55.78-4.29-83.96-4.4c-81.64-0.32-51.32,9.81-145.7,0.73
	c-26.21-2.52-48.36-2.5-74.63-0.96c-25.42,1.49-50.97-4.62-76.11-1.75v-22.77c-0.06-1.05,0.16-2.68,0.81-2.72
	c58.1-3.6,117.14-5.55,176.24-5.26c19.05,1.3,37.88,4.67,56.19,10.06c1.99,0.09,2.99-1.36,2.87-3.19
	c48.58,1.71,72.87,2.56,72.87,2.56c38.31-1.4,76.46-2.94,114.45-4.6C437.7,139.04,451.85,139.38,464.65,146.41z"/>
<path class="st6" d="M120.49,292.15c0.28,3.78-2.58,6.19-8.58,7.23c-18.75,1.69-37.8,1.29-57.16-1.18
	c-7.55-0.24-14.52,1.98-21.24,5.06l-2.7-1.97c-8.56,1.29-17.13,2.2-25.69,2.74l-5.11-2.69v-87.05l1.23-2.68l104.2-0.44
	c7.93,1.68,17.7,9.09,21.16,16.17l-0.02,60.63C125.92,290.28,123.89,291.68,120.49,292.15z"/>
<path class="st7" d="M40.19,431.37c4.51,0.6,8.4,2.02,11.66,4.24c13.73-2.82,29.13-2.33,41.75,3.94c8.11-5.64,21.57-1.61,30.76,1.75
	c28.9,10.59,35.26,23.73,14.98,48.51c-45.8,0.72-91.71,0.85-137.72,0.37l-1.62-2.68v-42.86l2.72-2.66
	c11.61,4.58,18.88,1.5,23.84-9.77c3.16-0.2,6.36-0.48,9.61-0.83C36.13,427.36,39.47,427.59,40.19,431.37z"/>
<path class="st6" d="M0.01,594.64v-95.09l1.61-2.65l55.14,0.99c7.27,1.77,13.65,7.9,15.53,15.04l0.22,68.96
	c0.05,4.2-3.15,7.52-6.32,10c-11.93,9.3-48.84,6.98-64.19,5.35L0.01,594.64z"/>
<path class="st6" d="M0.01,894.64v-105.8c0.15-1.05,0.54-2.62,1.28-2.65c9.82-0.36,36.26-0.26,44.44,2.58
	c5.44,1.89,13.92,11.43,14.74,17.16L61,878.37c-8.57,20.13-29.19,20.65-48.13,18.41C7.36,897.76,3.07,897.05,0.01,894.64z"/>
<path class="st6" d="M0.01,664.29v-56.25l1.62-2.6c9.18-1.4,40.26-2.69,42.03,10.08c1.24,8.94,2.58,37.59-1.5,44.07
	c-5.1,8.1-31.21,7.91-40.27,7.01L0.01,664.29z"/>
<path class="st8" d="M231.83,1517.68c-77.01,1.67-154.83,5.5-231.82-1.61v-5.36c22.37-3.54,43.66-0.38,67.02,0.23
	c46.45,1.2,92.65,2.1,138.47-4.89C213.31,1515.19,221.69,1516.57,231.83,1517.68z"/>
<path class="st9" d="M1158.68,1017.68l-0.56,32.22c-17.74,1.08-34.92-0.2-51.87,0.15l-2.69,0.06c-14.14,0.3-29.49,6.84-41.63-0.17
	l-1.94-0.9c-0.86-17.81-1.09-35.73-0.7-53.75l2.68-1.57c1.04-2.97,4.2-4,9.47-3.1c0.02-20.42-0.31-40.92-0.98-61.5
	c-42.15-1.13-84.56-1.54-127.23-1.25l-1.61-2.68c0.05-2.54-0.6-5.01-1.64-7.32c0.11-1.04,0.4-2.59,1.16-2.69
	c6.05-0.82,28.96-1.27,34.71-0.39l1.95,2.66c0.89-3.82,4.51-3.96,5.6-0.16c0.28-1.04,0.75-2.61,1.55-2.67
	c8.8-0.65,23.54-0.57,32.33,0.16l1.91,2.69c0.46-3.55,1.69-3.39,2.69,0.02c0.12-1.04,0.43-2.61,1.17-2.68
	c3.38-0.35,26.14-0.49,27.46,0.77c0.45,0.43,0.7,1.08,0.89,1.78c1.44-2.13,4.2-2.27,8.26-0.43l-0.31-548.28l2.68-1.68
	c0.91-1.92,2.73-3.28,5.45-4.07l-1.54-43.2l-90.72-0.29l-1.6-2.68l0.08-7.42c0.49,0,1.05-0.35,1.53-0.26
	c1.79-3.4,10.76-3.73,11.92,0.27l2.88-2.62l18.83-1.45c1.21,1.7,2.2,1.58,2.97-0.36c6.93-1.37,37.57-3.82,40.38,2.18
	c0.32,0.68,0.5,1.43,0.64,2.19c2.04-1.62,4.11-1.99,6.19-1.12l0.25-224.75l2.68-1.65c4.77-4.19,12.55-4.24,17.32-0.02
	c0.97,1.47,1.91,1.43,2.84-0.08c2.96-2.07,4.44-3.11,4.44-3.11c20.14-0.23,40.22-1.08,60.25-2.55l7.2,1.46
	c7.78,13.18,0.39,29.07,1.78,44.62c4.59,51.38,1.77,100.81,1.67,152.68l-0.61,308.96l-0.03,416.47
	C1156.84,1007.06,1158.78,1011.9,1158.68,1017.68z"/>
<path class="st9" d="M913.62,308.95c-10.03-0.06-20.2,1.11-30.8,0.21c-1.54-0.33-2.06-3.21-3.07-3.89
	c-3.13-2.68-4.12-6.14-4.15-10.15l0.23,11.83l-2.65,2c-13.01,0.27-26.06,0.09-39.05-0.06l-2.68-0.92l-0.36-150.2
	c-3.7-0.49-5.76-1.86-6.18-4.09c19.84-12.61,42.54-21.55,65.07-31.09c7.87-3.33,19.07,1.09,26.59,0.49
	c2.8,15.23,0.52,28.17-0.91,42.16C910.84,212.25,915.73,260.87,913.62,308.95z"/>
<path class="st10" d="M1029.83,121.83l3.57,0.3c7.05,6.62,14.56,12.76,22.53,18.41c0.43,55.59,0.3,111.28-0.38,167.07l-2.69,1.63
	c-19.13-8.25-43.78,0.92-65.71,0.07l-2.67-0.95c0.47-71.01,0.94-142.03,1.41-213.06l2.69-1.63c8,1.54,13.19,6.91,13.58,16.48
	l7.99,198.08c5.62-69.08-7.02-131.97-3.87-202.37c4.7,3.93,13.14,7.36,15.15,13.35l5.13,87.14
	C1029.86,176.98,1022.66,148.15,1029.83,121.83z"/>
<path class="st9" d="M802.14,307.91c-18.43,2.67-37.57,1.52-56.17,0.49l-1.32-0.25c0.29-37.35,0.32-74.66,0.1-111.94
	c-1.42-3.69-1.47-6.55-0.15-8.61l2.52-4.23c4.46-2.97,19.9-11.14,24.43-12.02c1.69-0.33,3.36,0.3,4.87,1.02
	c2.11,11.61,2.7,10.74,1.76-2.62l1.36-3.72c6.94,0.39,13.98-0.75,21.9,1.14C798.42,206.86,794.09,272.46,802.14,307.91z"/>
<path class="st11" d="M492.89,59.99c2.35-3.5,11.58,1,11.87,4.67c1.23,3.2,5.48,2.53,7.91,5.26l0.24,99.13
	c-10.93-1.18-21.04-3.22-31.01-5.78c0.79-7.02-8.29-6.11-10.51-11.92l2.59-97.86C480.69,53.15,488.83,53.96,492.89,59.99z"/>
<path class="st11" d="M1061.99,81.71l-0.26,231.35l-8.87-3.83l1.01-167.35c-9.16-7.16-18.38-11.82-24.04-20.06l1.67-61.52
	c4.45-0.68,29.82,16.42,30.43,18.09C1062.35,79.52,1062.45,80.58,1061.99,81.71z"/>
<path class="st11" d="M988.58,93.67l-1.42,215.64c-3.96-0.15-7.98,0.53-11.92-0.27l-1.53-227.2
	C979.7,84.91,984.51,89.56,988.58,93.67z"/>
<path class="st4" d="M1154.03,77.41c-23.36,4.86-47.86,1.58-71.89,4.2c-0.92,3.55-1.73,3.57-2.84,0.08
	c-5.77-0.29-11.55-0.22-17.32,0.02l-30.49-21.4l94.64-1.54L1154.03,77.41z"/>
<path class="st11" d="M834.13,308.89l-9.23-0.11l0.01-155.1c2.69,0.35,5.37,0.52,8.85,1.57L834.13,308.89z"/>
<path class="st5" d="M588.12,52.58c1.53,1.48,3.7,2.4,3.84,4.98l0.97,1.36c0.11,0.87,0.09,1.77,0.26,2.64
	c-3.78,8.22-13.15,8.59-21.58,9.96c-0.48,3.67-1.71,3.61-3.95,0.73c-2.6-0.66-5.22-0.75-7.84-0.08c-0.25,3.68-1.65,3.58-2.68,0.02
	l-25.45-2.61c-0.39,1.17-0.84,1.07-1.34-0.16l-25.6-4.78c-4.55-0.85-7.73-3.25-11.87-4.67c-5.05-2.94-6.33-5.58-3.85-7.91
	c0.39-0.93,0.9-1.8,1.51-2.6c9.75-0.23,19.54,0.27,29.35,1.52c20.93-0.87,41.98-1.22,62.59,4.41
	C584.41,54.7,586.29,53.76,588.12,52.58z"/>
<path class="st11" d="M716.27,199.8l2.68,1.23c0.05,35.13,0.1,70.27,0.16,105.42l-2.68,1.61l-13.39-0.02l1.34-108.31
	C709.61,197.34,713.57,197.36,716.27,199.8z"/>
<path class="st1" d="M588.12,52.58c-0.21,1.31-0.42,2.85-1.11,3.65c-1.11,1.3-3.64,2.2-5.83,1.69
	c-46.42-10.94-50.55,1.59-90.63-8.45C515.05,38.75,566.07,31.24,588.12,52.58z"/>
<path class="st10" d="M776.67,166.04c2.28,0.66,2.39,6.07-0.26,6.33c-11.05,3.89-21.23,10.14-31.82,15.23
	c0.49,3.07-1.36,3.82-5.53,2.25l-1.43,3.18c-2.51,1.52-14.69,7.43-16.97,7.97c-1.8,0.42-2.89,0.53-4.4-1.19
	c-3.68,1.21-8.13-0.62-11.88-0.06C727.8,187.61,751.99,175.09,776.67,166.04z"/>
<path class="st6" d="M779.53,166.03c2.35,26.41,0.72,53.04-0.22,80.4l-2.13,61.88c-4.97-46.1-2.58-91.73-0.77-135.94l0.26-6.33
	C777.43,165.76,778.71,165.99,779.53,166.03z"/>
<path class="st4" d="M489.04,52.07c1.25,2.67,3.14,5.03,3.85,7.91l-18.9-6.5C478.42,50.42,484.06,52.96,489.04,52.07z"/>
<path class="st1" d="M464.65,146.41c-24.96-6.48-51.65-5.33-78.99-3.53c-50.07,3.3-98.4,5.45-148.77-0.62
	c1.2,4.02,5.48,3.97,5.18,7.47c-33.97-11.9-69.34-15.08-105.55-13.54L0.01,141.96v-21.43c75.92-10.37,155.24-4.07,228.63,19.84
	l76.67-15.75C351.48,115.15,427.04,118.91,464.65,146.41z"/>
<path class="st8" d="M845.07,1137.9l-1.23,2.8c-2.34-0.59-21.66,1.36-21.04,4.39c1.15,5.58,34.57,5.24,39.6,1.06
	c-1.7-2.34-2.12-4.48-1.25-6.39c9.67-0.1,23.69,0.65,29.6,10.62c-22.36,11.72-121.39,14.36-121.59,31.51
	c-0.27,23.24,132.38,21.14,123.17,41.43l-97.2,16.43c-3.89,0.66-5.9,3.08-5.7,6.44c0.73,11.84,72.93,9.27,72.59,13.57l-0.49,6.39
	c33.06,4.63,68.47-0.84,98.9,8.69c-1.54,3.74-14.25,7.77-16.19,3.26l-128.84,3.03c-147.37,3.46-71.4,19.73-69.27,26.83
	c4.98,16.62-53.18,23.64-66.29,28.81c-1.8,4.78,1.29,9.74-0.33,16.13l-46.31-10.09c9.68-3.27,20.17-3.75,28.68-10.34
	c4.44-3.44,0.56-8.4,0.1-12.95c-0.58-5.73-4.24-7.11-9.83-8.18c-0.58-29.34-63.97-56.19-87.26-65.64l-1.81-4
	c8.2-22.41,7.59-23.5-1.83-3.26l-4.3,3.23c-1.84,4.24-13.35-0.74-14.3-4.29c-4.46-3.13,1.6-16.39,4.35-20.32l3.36-0.91
	c6.8-8.07,12.13-16.96,16-26.67c0.65-5.19,2.52-8.72,5.59-10.6l22.69-2.88c3.53,1.96,7.31,3.9,11.32,5.82l0.71,3.41l0.97,3.27
	c-9.05,9.68-14.01,20.61-14.86,32.8c7.19,3.43,14.59,6.29,22.2,8.58l2.32,3.27l5.89,3.11c0.16,7.29,3.24,11.56,9.25,12.8
	c10.23,0.34,20.63-0.71,31.19-3.17l79.45-2.43c9.06-2.68,7.13-6.91,1.78-12.51l1.28-3.16l-0.16-3.02l8.87-5.57
	c0.02-3.93,0.91-6.7,2.68-8.3l-3.22-1.92c-4.8-16.19-19.46-26.14-33-34.76l-0.85-3.7c-0.8-0.84-1.4-1.65-1.3-2.36
	c1.31-9.32,9.91-29.74,14-39.24c0.28-0.65,1.2-1.02,2.3-1.31C771.99,1130.32,810.4,1128.52,845.07,1137.9z"/>
<path class="st5" d="M650.96,1311.62c0.39,2.55,0.31,6.03-2.13,7.63c-2.32,1.51-5.48,3.06-9.39,3.87
	c-99.46,20.6-200.69,30.24-301.67,36.23c-76.56-24.78-155.24-41.38-234.56-57.2c-5.73-1.14-10.45-3.38-11.73-8.08
	c-1.27-4.67,1.71-9.43,5.6-13.64c24.64-26.67,61.69-37.4,97.3-40.08c-13.65,6.51-29.05,12.58-32.65,27.62
	c-11.94,49.82,244.02,44.24,273.59,44.17L650.96,1311.62z"/>
<path class="st12" d="M684.05,995.09l2.91,0.96c0.69,2.01,4.1,18.7,3.78,19.65c-0.37,1.09-1.3,1.8-2.28,2.33l1.27,3.37
	c-3.1,9.42-5.93,18.95-8.5,28.58l-3.49,1.38c1.14,2.81-1.22,7.01-4.51,6.48c0.8,6.2-0.51,10.25-3.92,12.15
	c-1.09,11.06-3.32,21.97-6.69,32.74c0.2,5.69-0.86,10.36-3.17,14c4.03,0.13,3.78,7.47,0.99,9.62c2.45,7.94-5.79,6.36-8.23,0.2
	c-3.91,0.74-4.73-3.46-1.37-5.31c-2.94-11.38-10.11-21.5-19.48-29.13l-35.94-29.27c-20.48-16.68-29.14-42.74-23.34-67.45l2.63-2.03
	l19.36,9.84c3.15-2.84,5.07-6.8,5.76-11.87l3.2-1.43c4.97-1.11,9.96,3.42,14.41,1.09l2.1-15.91c7.63-14.7,23.96,0.12,30.95,7.18
	c2.34-4.84,10.69-19.76,16.98-18.03C676.78,966.8,683.69,985.98,684.05,995.09z"/>
<path class="st12" d="M347.49,1200.08c-4.4,1.96-6.97-1.3-7.69-9.77c3.93-55.12-80.48-68.77-57.8-137.2
	c11.8-1.45,19.88,9.25,28.45,15.96c5.92-8.91,9.82-26.74,21.45-27.42c12.15-0.71,18.79,15.23,24.94,22.78
	c6.56-9.16,11.63-20.36,22.38-25.81c35.25,42.9-7.73,91.34-29.4,127.27C344.56,1176.29,349.76,1189.31,347.49,1200.08z"/>
<path class="st13" d="M531.99,1032.63l2.48,4.13c1,17.33-9.04,39.61-20.45,52.38c-11.23,11.76-22.28,23.69-33.16,35.8
	c-0.44,0.45-0.74,1.05-1.15,1.52l-1.26,1.43c-6.58,12.48-14.19,24.78-16.35,38.9c-3.36,4.02-8.91,0.64-6.75-4.17
	c1.85-6.04,1.41-13.33,4.17-19.1c2.24-14.44,2.58-29.07,1.03-43.91c0.64-33.03,8.36-62.29,35.56-84.17
	c1.94-1.56,12.24-6.43,14.19-4.45c4.09-0.89,11.12-6.85,15.66-2.73C531.42,1013.24,532.26,1025.08,531.99,1032.63z"/>
<path class="st13" d="M142.04,1029.53l2.81-1.11c0.82,0.1,14.31,5.87,15.15,6.51c38.37,28.98,39.92,67.12,41.61,109.7
	c-0.13,3.57,0.55,5.47,2.06,5.69c0.92,8.22,5.9,17.4,7.98,25.28c-2.44,3.89-5.56,3.94-8.16,0.17c-3.07-13.55-13.1-29.19-22.87-38.6
	c-11.04-10.57-22.41-20.85-34.13-30.83c-7.04-6.92-13.33-14.87-17.24-24.04c-3.35-7.85-8.32-20.84-3.69-28.07
	c-0.46-7.97-4.01-18.07,2.03-25.38C130.92,1024.81,138.17,1028.04,142.04,1029.53z"/>
<path class="st14" d="M510.29,1011c-5.44,4.96-14.62,5.57-16.87,10.5c-48.4,49.11-20.57,94.05-33.91,122.02
	c2.33-25.64-4.95-49.79-15.73-73.51c-13.5-29.71-9.68-65.36,13.73-88.19c8.86,4.35,10.19,13.48,15.16,20.21
	c7.56-6.22,17.58-17.11,27.49-15.18C508.76,989.96,509.56,1003.48,510.29,1011z"/>
<path class="st14" d="M197.21,1001.89c2.09-1.32,3.74,0.49,4.94,5.43l10.68,18.48c15.36,53.08-15.74,65.66-9.16,124.51
	c-3.16,19.56-7.5-50.1-7.24-40.56c-0.8-29.16-13.35-52.21-36.48-70.58c-2.27-5.57-11.05-3.21-17.91-9.65
	c1.09-7.62,0.27-21.62,8.88-24.76c8.82-3.22,18.23,6.51,26.27,10.18c2.58-4.63,5.74-10.86,7.56-15.88
	C186.31,990.76,194.31,995.72,197.21,1001.89z"/>
<path class="st5" d="M485.11,945.64c1.46-1.01,3.06-1.39,4.81-1.41c4.44-0.05,20.34,6.61,23.12,10.79
	c14.37,4.37,28.45,11.69,43.13,14.72c3.05-2.44,4.1-1.15,4.88,2.38c13.58,6.94,28.92,10.12,41.99,17.79
	c-1.6,5.07-2.98,14.23-8.52,16.16c-8.93-2.21-14.53-8.83-22.43-10.68c-44.19-10.35-88.85-18.35-133.98-23.36
	c-2.11,0.2-2.06-0.75,0.01-1.53c-0.68-0.57-1.19-1.06-1.09-1.28c1.64-3.78,19.84-29.96,21.68-30.28c0.59-0.1,1.23,0.04,1.88,0.24
	c0.39-0.97,1.06-2.38,1.81-2.29c1.99,0.24,20.71,4.98,21.58,5.68C484.82,943.25,484.99,944.52,485.11,945.64z"/>
<path class="st11" d="M440.65,1207.6l1.52,3.37c-2.66,14.16-3.1,28.78-1.32,43.86l-2.8,2.59l-4.11,0.18
	c-0.94-1.34-1.84-1.33-2.68,0.05c-1.01,0.05-2.18,0.29-3.04-0.32c-0.28-0.2-9.91-116.5-18.15-134.27
	c-20.4,37.48-30.68,76.04-41.1,115.17c-0.94,3.53-8.4,1.15-11.91,1.07c9.55-43.58,25.7-85.93,51.61-123.57l-2.64-17.37
	c3.12,3.15,3.27,5.25,4.23,7.75c1.1,2.86,2.4,3.07,4.47,0.22c1.24-1.7,2.16-3.95,5.29-6.18c-0.39,5.36-4.37,8.72-6.14,14.2
	c11.09,30.37,18.01,61.28,21.46,93.34C437.79,1208.04,439.21,1207.61,440.65,1207.6z"/>
<path class="st5" d="M407.11,925.55l3.34,1.74c2.01,11.26,2.34,22.68,1.01,34.26c7.62-11.86,16-24.04,29.93-28.79l3.45,1.73
	c4.22-1.13,10.81-1.58,12.05,3.36c0.47,0.51,0.86,1.03,0.99,1.61c0.28,1.28-15.12,19.83-16.49,19.99c-0.62,0.07-1.27-0.15-1.94-0.46
	c-1.51,3.19-5.49,10.35-8.04,12.2c-0.85,0.62-1.96,0.32-2.97-0.23c-3.04,2.45-7.46,2.99-13.24,1.61
	c-3.76,15.16-7.71,30.26-11.88,45.3c3.85,0.68,3.53,5.65-0.26,6.39c-3.05,0.22-8.83,0.14-12.21,0.17c-1.24-0.57-2.17-1.44-2.77-2.66
	c-0.69-1.41,0.69-19.15,4.18-19.98c1.12-10.69,4.35-20.64,8.34-30.57c-4.53,0.41-7.69-0.59-9.49-3.02l-3.08-2.77l-2.4-18.89
	c-1.71-6.17-2.53-12.27-2.46-18.29c-2.8,0.03-2.44-5.87-1.26-8.22c-1.26,0.13-1.28-0.25-0.21-1.09c0.39-0.96,1.02-2.34,1.81-2.3
	c1.59,0.09,19.25,4.62,20.69,5.39L407.11,925.55z"/>
<path class="st11" d="M395.33,864.91c3.94,1.16,2.73,6.99-0.65,8.39c-1.07,4.32-3.09,8.37-6.06,12.16
	c-3.47,6.22-6.38,12.36-8.71,18.43c8.02-0.64,15.35,0.25,21.99,2.68c5.35,1.48,8.09,14.65,5.21,18.98l-25.41-6.62
	c-1.28,0.44-2.65,0.07-4.1-1.12c-0.45,2.64-2.68,3.31-6.68,2.01c-8.01,13.97-14.24,28.79-18.72,44.47l-3.78,2.41
	c-6.86,17.52-12.77,35.5-17.07,54.85c-0.5,2.24-6.24,0.14-7.29,0.5c-2.14-10.7,0.43-25.26,5.48-35.01
	c-0.26-4.28-0.36-8.51-0.28-12.68c6.82-20.1,15.2-39.55,25.12-58.36l-11.37-2.24l-1.24-2.95c-3.68-2.11-1.08-6.41,2.66-3.98
	l3.05-2.71c4.86,1.02,9.35,0.78,13.45-0.72c7.55-10.65,15.08-21.33,22.59-32.03C387.22,866.01,391.16,863.85,395.33,864.91z"/>
<path class="st14" d="M480.86,1124.93c18.76-33.45,49.25-38.3,51.14-92.31c8.9-6.3,15.32-16.01,26.67-20.65
	C571.98,1079.27,513.33,1092.04,480.86,1124.93z"/>
<path class="st13" d="M554.76,1157.02c0.83,0.49,1.62,1.02,2.28,1.67c7,6.86,4.24,50.22-6.68,57.45c-3.01,6.8-6.91,13.5-7.71,21.23
	c4.13,1.55,2.55,15.02-1.66,16.09c2.77,2.86-1.09,7.76-4.39,5.28c1.09-8.3-1.04-17.04-3.52-24.95c-2.63-2.01-4.89-7.99-1.42-9.84
	c-12.1-16.43-7.2-55.46,3.89-71.09c0.95-1.34,2.66-1.89,4.17-2.38c1.66-3.23,7.8-7.8,9.85-4.1
	C551.21,1149.31,553.78,1153.41,554.76,1157.02z"/>
<path class="st14" d="M125.55,1054.24c2.89,50.08,40.76,57.25,55.07,82.93c-22.91-22.07-93.28-33.45-83.82-101.57
	C108.9,1040.26,116.45,1048.37,125.55,1054.24z"/>
<path class="st8" d="M511.43,1191.55l3.64,1.83c5.88,10.01,11.41,20.2,16.61,30.57c1.14,3.28,2.2,6.83,1.42,9.84l-22.63-5.72
	c-2.23,0.47-3.74-0.74-4.52-3.63l-2.33,1.11l-29.67-6.89c-3.18-1.03-3.66-3.94-1.46-8.73l6.8-13.8l3-0.39L511.43,1191.55z"/>
<path class="st11" d="M304.06,904.32c0.93,0.93,1.82,1.9,2.55,2.97c0.71,1.05,1.38,2.08,1.63,3.19c4.6,20.43,6.84,40.97,5.96,61.85
	l2.62,5.22c0.61,7.46,1.31,37.5-1.42,41.83c-0.56,0.89-1.28,1.69-2.04,2.45c-3.04-0.47-5.44-0.01-9.25-1.36
	c0.96-18.53-2-36.13-2.51-53.64c-3.14-9.32-4.72-19.23-4.74-29.73c-2.43-11.67-3.22-23.09-2.37-34.26l-2.8-0.4l-9.35-50.23
	c0.64-0.81,2.81-2.71,3.04-2.72c4.02-0.18,12.31,24.12,14.19,29.79c2.01,6.04,3.96,12.12,5.52,18.29c0.25,1,0.11,2.11-0.07,3.27
	C304.84,902.02,304.47,903.17,304.06,904.32z"/>
<path class="st14" d="M539.74,1150.48c-12.1,23.51-16.86,48.17-8.07,73.47c-7.03-9.5-15.87-20.76-20.24-32.39
	c-5.75-15.32-5.8-34.73,1.32-48.81c5.01-3.05,8.7,5.37,11.59,5.75c2.78-1.28,4.89-7.7,8.83-5.67
	C535.78,1144.16,537.53,1148.07,539.74,1150.48z"/>
<path class="st4" d="M455.34,1162.62c1.38,2.51,3.93,3.94,6.75,4.17l-5.06,33.1c-0.26,1.71,2.7,3.86,2.5,5.57
	c1.37,3.14,2.06,4.71,2.06,4.71c-3.11,14.3-5.98,28.64-8.61,43.01l-3.1,4.09c-3.5,0.43-8.21-0.01-11.84,0.15
	c1.13-16.86-4.33-34.4,2.6-49.82C447.24,1192.94,443.79,1173.71,455.34,1162.62z"/>
<path class="st11" d="M507.85,1141.71c-8.57,18.06-19.16,35.11-25.56,54.04c-2.44,7.23-9.4,14.5-8.34,22.92
	c-7.87,10.34-8.84,24.56-14,37.42c-1.25,3.1-7.46,0.87-10.06,1.19c1.36-17.7,7.64-34.58,9.65-51.81
	c17.85-14.69,19.49-39.78,44.62-68.08c1.21-0.58,2.73-0.75,3.32,0.27c0.7,1.23-4.5,7.13-6.01,8.78
	C501.16,1146.77,506.24,1138.69,507.85,1141.71z"/>
<path class="st15" d="M231.92,936.33c-2.66-0.74-3.12-0.68-1.39,0.19l-4.29,20.22c3.79,1.54,5.41,3.68,4.86,6.43
	c-1.87,0.4-2.54,1.19-2.02,2.37c1.17,0.48,2.26,1.04,3.09,1.87c11.42,11.47,23.87,39.91,29.7,55.59c0.86,2.32,1.49,4.44,0.5,6.89
	c-1.33-0.11-2.72,0.28-4.09-0.3c0.62,0.26-24.83-54.1-32.78-61.23c-3.61,19.32-1.29,38.65-1.97,57.37c-1.89,1.82-5.78,0.94-7.7-0.19
	c-1.45-15.26,0.97-30.88-2.92-47.4c-1.72-7.31,15.01-12.6-5.93-36.4c4.8-2.95,6.68,1.84,10.85,5.39c2.27-6.37,4.33-13.51,3.35-19.9
	C224.6,922.39,233.81,931.62,231.92,936.33z"/>
<path class="st11" d="M217.08,1240.42c-5.43,3.41-7.76,0.94-12.41,1.88c-15.69-39.67-39.33-73.7-65.08-108.67
	C176.27,1160.68,198.64,1200,217.08,1240.42z"/>
<path class="st5" d="M377.6,917.81c3.09,0.17,2.93,2.66,1.69,5.05c1.24,3.94,2.52,7.85,3.85,11.73c2.56,11.31,2.46,22.07-0.29,32.26
	l-34.43-0.15c6.29-16.06,10.14-33.68,20.57-48.64C370.7,916.14,375.61,918.35,377.6,917.81z"/>
<path class="st11" d="M240,1241.47c-0.82-0.83-1.49-1.68-1.63-2.61c-1.8-12.25,0.93-15.29-0.05-1.03c-0.09,1.27-0.61,2.51-1.26,3.74
	l-5.2-0.31c-3.13-2.1-3.66-11.05,0.03-13.13c1.98-34.74,1.44-71.85,16.1-106.8c0.04,42.37-6.36,81-4.15,120.51
	C240.98,1241.48,240.23,1241.46,240,1241.47z"/>
<path class="st5" d="M211.65,1175.6c12.02,14.3,9.71,36.22,20.25,52.53c-0.24,4.28,1.6,8.85-0.03,13.13
	c-3.93-0.24-8.95,1.27-13.58-0.1l-14.8-65.39C206.21,1175.87,208.93,1175.84,211.65,1175.6z"/>
<path class="st11" d="M291.57,907.04l1.29,3.77c-1.48,16.31-3.07,32.68-4.78,49.11l-3.01,6.92c-0.69,20.64-3.08,41.41-1.15,63.06
	c-3.94,1.13-6.05-0.04-8.99,0.03l-2.34-2.69c-0.4-2.69-1.73-22.23-1.17-23.25c0.63-1.14,1.58-1.92,2.78-2.4
	c-1.68-7.64-3.98-23.84-1.42-30.92c0.58-1.61,1.76-2.81,3.16-3.75c-0.54-0.95-1.04-1.91-1.37-2.92c-2.01-6.24,8.37-50.73,13.2-55.09
	c0.79-0.72,1.71-1.29,2.67-1.83L291.57,907.04z"/>
<path class="st4" d="M329.54,987.06c-1.03,11.78-3.21,23.41-5.48,35.01c-3.42,1.67-9.06,4.58-10.71-0.24
	c1.84-16.47,0.51-32.99,0.84-49.5l0.2-20.87c1.84-5.26,3.93-7.94,7.84-2.73c-1.22,10.83,1.51,19.2,8.17,25.1
	C330.4,973.81,330.11,978.23,329.54,987.06z"/>
<path class="st4" d="M254.2,960.59c2.74-3.01,8.09,3.72,5.5,6.64c8.24,8.91,12.24,22.39,14.5,34.36c-0.72,9.32,2.34,19,0.73,28.34
	c-2.85,0.07-5.65,0.57-8.51,0.04c-3.68-1.5-7.84-11.91-5.03-14.8c-3.67-14.2-7.66-28.29-11.97-42.28l0.86-4.85
	c-4.29-0.15-4.18-5.7-1.09-7.66C248.83,957.16,250.49,957.22,254.2,960.59z"/>
<path class="st14" d="M571.96,1178.87c-2.7,14.26-9.7,30.22-21.59,37.27c8.48-19.14,9.91-38.95,4.4-59.12
	c3.68-3.7,3.18-9.32,10.76-12.7C569.04,1152.85,573.98,1168.23,571.96,1178.87z"/>
<path class="st8" d="M652.22,1126.54c6.92,9.83,10.14,24.81,8.11,36.66c-0.57,4.14-14.31,7.19-14.8,1.97l-2.03-0.94
	c-3.86-11.42-8.58-22.52-14.15-33.31l1.32-1.88l20.17-7.81L652.22,1126.54z"/>
<path class="st5" d="M294.49,902.84c3.94,21.14,6.48,42.44,7.11,63.99l-16.52,0.02c0.67-20.12,3.79-39.8,6.5-59.8
	C289.77,901.22,290.75,899.82,294.49,902.84z"/>
<path class="st11" d="M383.18,928.25C382.27,929.45,382.27,929.45,383.18,928.25c5.65,11.96,5.98,26.52,7.95,39.95
	c0.76,0.57,1.47,1.16,2.05,1.87c4.25,5.2,0.5,24.65-0.9,31.72c0.09,7.49-1.94,15.09-1.41,22.64c-1.97,0.02-7.02,1.24-7.78-1
	c0.69-19.6,0.4-38.07-0.24-56.57c-0.51-14.7-1.57-29.35-3.56-43.99c-0.25-2.8-0.1-4.32,2.63-2.84
	C383.57,922.36,382.56,925.84,383.18,928.25z"/>
<path class="st15" d="M564.9,1245.7c-2.55,12.04-12.55,25.15-11.59,39.24c-4.14,1.19-5.95,0.26-8.29,0.28
	c-3.47-1.16-3.22-2.26,0.12-3.52c0.57-8.73,3.32-33.33,9.26-38.4c0.76-0.65,1.65-1.16,2.56-1.64c5.29-13.05,13.14-25.53,22.8-37.3
	C574.5,1220.05,567.88,1231.63,564.9,1245.7z"/>
<path class="st5" d="M339.79,1190.31c2.27,3.44,4.17,7.79,7.69,9.77c3.45,12.63,7.3,25.92,7.56,39.33c-4.49,0.73-9.4,0.95-13.2,0.38
	C337.6,1222.78,338.68,1205.97,339.79,1190.31z"/>
<path class="st15" d="M309.05,1178.55c8.09,19.04,13.41,39.29,18.61,59.3l-2.18,2.22c-1.83,0.48-4.81,1.13-5.25-1.06
	c-6.8-33.59-18.51-64.55-33.14-96.05C297.86,1153.4,303.63,1166.35,309.05,1178.55z"/>
<path class="st11" d="M435.27,971.01l-2.68,3.99c-1.71,2.59-1.71,2.59,0,0L435.27,971.01c0.89-2.58,2.15-3.49,2.83-0.51l-0.01,1.53
	c-11.4,15.67-19.08,33.75-27.85,51.5c-1.44,1.78-5.47,0.6-7.17,0.73l0.26-6.39c1.3-5.93,3.11-11.63,5.61-17.13
	c4.64-10.22,11.28-22.66,19.51-29.78l11-11.97l2.83,1.88C440.36,964.61,438.02,968,435.27,971.01z"/>
<path class="st15" d="M183.46,974.04c3.23,0.62,5.47,3.13,6.71,7.54c1.66,2.89,8.82,16.82,8.24,18.71c-0.18,0.6-0.65,1.11-1.2,1.6
	c-2.85-4.06-8.45-5.83-12.46-2.82c-0.38-8.17-6.09-16.19-10.69-22.85c-4.79-14.84-16.76-25.72-23.27-41.23
	C164.46,946.51,176.28,959.48,183.46,974.04z"/>
<path class="st15" d="M623.16,1120.65c7.62,13.3,15.79,27.89,20.01,42.69c0.41,1.44,0.05,2.46-1.42,3.29
	c0.63,4.18-2.15,4.57-4.42,1.33c-4.82,0.82-7.21-7.18-5.9-11.03c-4.44-22.64-19.46-41.68-29.54-63.7
	C611.13,1101.11,619.91,1110.31,623.16,1120.65z"/>
<path class="st15" d="M510.46,1228.07c32.49,77.05,11.55,54.61,11.91,56.25c-4.6-20.47-9.28-40.61-18.76-58.76
	c0.72-3.95-4-5.97-3.77-11.25C505.41,1216.86,508.29,1222.91,510.46,1228.07z"/>
<path class="st11" d="M309.05,1178.55c11.22,19.38,16.96,40.37,22.91,61.22c-2.76,1.06-4.59,0.46-6.48,0.3L309.05,1178.55z"/>
<path class="st5" d="M545.14,1281.7c0.31,1.09-0.28,2.41-0.12,3.52c-3.84,0.04-8.31,1.39-11.85-0.34l3.44-26.14
	c1.74-1.51,2.92-3.52,4.39-5.28c1.21-5.76,4.38-2.73,5.92,2.01C546.95,1264.2,546.36,1272.95,545.14,1281.7z"/>
<path class="st11" d="M237.32,970.97l4.61,2.26c9.21,12.49,16.62,26.6,19.45,41.95l5.03,14.8c-1.28-0.24-2.74,0.03-4.05-0.07
	c-8.71-22.43-19.36-44.79-33.29-64.35C230.24,959.14,240.98,966.64,237.32,970.97z"/>
<path class="st8" d="M637.33,1167.96c-0.66,4.32-10.94,8.9-15.37,10.37l-3.62-0.85c-5.77,1.84-10.84,1.67-15.21-0.51l0.83-3.34
	c10.32-3.63,21.57-7.34,27.47-16.7C634.65,1159.61,634.53,1164.81,637.33,1167.96z"/>
<path class="st6" d="M240,1241.47l-2.94,0.1c-0.53-31.06,0.46-62.33,6.42-92.23C242.57,1181.7,236.64,1211.5,240,1241.47z"/>
<path class="st3" d="M603.96,1173.63c2.84,5.82,10.32-0.49,14.38,3.85c0.63,0.96,0.34,1.29-0.83,1.04
	c-2.19,3.43-6.99,10.21-10.84,6.7c-4.58-2.83-11.4-3.31-12.03-9.23C597.3,1175.65,601.37,1174.53,603.96,1173.63z"/>
<path class="st15" d="M507.85,1141.71c-2.43,1.14-4.55,3.7-6.71,5.71c-0.26-5.07,6.47-7.55,3.01-10.04
	c5.88-6.62,9.19-16.45,18.2-20.16C517.42,1126.66,513.83,1135.26,507.85,1141.71z"/>
<path class="st11" d="M630.68,1129.05c3.35,12.65,12.32,23.21,14.85,36.13c2.25,3.75-1.71,4.95-3.79,1.45
	c-1.96-16.85-13.7-30.43-18.58-45.98L630.68,1129.05z"/>
<path class="st6" d="M433.93,1257.61c-0.88,0.04-1.8,0.01-2.68,0.05c0.5-7.38-1-14.83,0.74-22.92
	C433.04,1242.51,432.3,1250.05,433.93,1257.61z"/>
<path class="st12" d="M992.2,1428.78l1.93,2.67c-4.22,8.07-6.44,16.33-6.67,24.79l-2.32,2.36c5.95,0.42,1.6,13.31-3.48,9.04
	c-4.31,3.3-5.1-6.38-4.38-9.42c-3.85-1.43-3.9-3.66-0.01-5.1l-0.75-1.45l-2.88-2.52c-1.84-14.95-11.94-26.77-21.74-37.48l0.09-3.86
	c-3.49-3.8-5.56-8.6-10.01-12.84c-20.15-19.2-28.21-51.27-14.69-76.19c8.56,6.96,11.98,15.77,18.94,23.53
	c2.17-6.64,2.96-14.41,8.55-19.45c4.43-4,9.91,1.28,14.38,2.71c3.18-5.92,4.96-17.27,12.92-17.7c8.81-0.48,13.94,11.37,19.65,17.21
	c6.62-4.38,9.07-12.95,18.11-14.87c17.16,25.05,12.02,58.83-6.69,82.02C1003.67,1403.98,996.43,1415.37,992.2,1428.78z"/>
<path class="st1" d="M951.99,1407.81c11.61,12.63,23.79,26.29,24.53,43.86l0.75,1.45c-0.39,1.71-0.02,3.39,0.01,5.1
	c-0.04,1.23-0.48,1.35-1.31,0.39c-0.19,1.12-0.42,2.38-1.29,3.06c-0.82,0.65-19.05,1.38-19.83-1.79l-4.05-2.33l-12.86-25.66
	l7.74,22.36c0,0-0.41,1.81-1.22,5.44l-1.19,2.7c0,0-30.02,0.46-90.07,1.39l-1.64-2.65c-3.15-2.86-3.98-7.21-2.49-13.06
	c0.63-8.83,2.02-19.89,6.66-26.91c-0.66-0.56-1.25-1.15-1.59-1.86c-1.3-2.71,3.82-20.01,5.22-24.24c0.41-1.24,1.93-1.88,3.24-2.37
	C892.92,1393.93,922.82,1399.54,951.99,1407.81z"/>
<path class="st3" d="M996.38,1524.02c-2.94-4.3-3.18-9.83-0.72-16.59l4.17-14.31l3.79-2.47l2.61-3.26
	c9.62-2.1,18.81-5.17,27.58-9.22c-3.01-5.4-6.09-11-9.25-16.78l1.41-3.11c12.19,1.54,81.48,11.22,78.46,28.67
	C1100.26,1510.95,1016.83,1522.81,996.38,1524.02z"/>
<path class="st13" d="M800.67,1296.38l4.61,0.27c26.9,18.68,29.48,46.89,26.12,76.25c-0.46,3.99-0.76,8.01-0.92,12.03
	c0.04,2.64,1.73,4.73,2.66,6.9c4.33,0.51,3.78,9.01,1.09,11.63c-0.65,3.61-1.54,3.88-4.06,1.21c-4.72,1.38-6.67-8.41-5.2-12.15
	c-2.25-1.49-3.68-4.24-4.3-8.26c-2.83-3.24-3.98-6.23-3.44-8.95l-1.61-2.55c-1.87,1.82-2.62,1-1.31-1.32
	c-14.43-9.04-34.98-41.56-30.88-58.34c0.36-1.46,1.64-2.5,2.8-3.38c0.27-4.22,1.07-9.53,3.06-13.33
	C790.76,1293.59,797.55,1293.94,800.67,1296.38z"/>
<path class="st14" d="M847.95,1303c6.47,33.09-14.1,45.21-17.47,81.93c-0.56-37.03,5.7-60.83-29.82-88.55
	c1.03-4.6,3.64-12.15,8.86-12.95c4.68-0.72,9.2,5.64,13.54,9.02c6.49-0.65,6.23-9.08,12.55-11.3
	C842.69,1286.27,846.4,1295.09,847.95,1303z"/>
<path class="st11" d="M1017.86,1454.05l0.62,3.34c-5.31,9.36-9.02,19.62-11.14,30.77l-3.72,2.47c-4.13,10.59-7.17,22.19-7.23,33.37
	c-1.76,4.25-6.85,2.09-10.56,2.75c-2.14-4.5-2.57-9.82-1.29-15.96c-0.95-6.08-0.36-11.38,1.76-15.89c2.31-2.01,3.47-3.02,3.47-3.02
	l8.98-32.32l3.1-1.1c-2.13-1.69-1.94-4.33,0.56-7.92c1.36-5.75,3.75-8.98,7.18-9.66c7.89-17.91,17.02-37.28,32.2-51.55
	C1037.06,1414.21,1017.32,1432.58,1017.86,1454.05z"/>
<path class="st11" d="M954.84,1459.89c1.37,0.31,2.89,0.71,3.72,1.84c1.91,2.61,7.71,25.74,8.56,30.58l-1.44,3.8
	c2.89,0.18,3.66,1.09,3.9,3.8c1.25,9.19,2.06,18.17,2.41,26.93c-3.61,1.61-7.64,0.46-11.46,0.69c0.2-10.38-4.72-20.04-5.76-30.21
	l-3.09-3c-2.25-10.39-5.21-20.6-8.88-30.63l1.63-4c-4.08-14.87-10.01-28.67-15.83-45.01
	C940.85,1427.98,947.48,1444.35,954.84,1459.89z"/>
<path class="st15" d="M897.69,1179.59c-5.56,0.69-12.48,5.44-11.22,10.85c-11.02-0.13-22.71,3.6-33.32,0.25l-0.59-2.71
	c3.39-4.31,1.22-7.74-6.5-10.3l-0.79-3.26C859.76,1167.49,886.68,1167.82,897.69,1179.59z"/>
<path class="st5" d="M1017.86,1454.05c2.79,0.1,6.72,1.4,8.1,4.22c3.21,6.55,7.81,12.27,9.96,20.82c-9.9,6.45-21.26,9.39-32.3,11.55
	C1008.39,1478.39,1009.09,1463.11,1017.86,1454.05z"/>
<path class="st4" d="M981.65,1467.65c3.46-0.29,5.39,2.35,5.8,7.91l1.26,17.23l-2.43,2.11c1.58,10.59,1.02,21.34-0.47,31.85
	c-3.95,0.69-7.88,0.92-11.88,0.2c-3.58-9.02-3.27-22.25,0.72-31.14c-1.77-2.93-2.66-4.4-2.66-4.4c1.22-9.89,1.78-19.78,1.69-29.68
	l2.28-3.12l1.31-0.39C977.33,1462.33,979.01,1465.36,981.65,1467.65z"/>
<path class="st11" d="M1061.98,993.72l-0.04,56.22c-0.88-0.51-2.75-0.45-3.75-0.38c-0.64-4.49-7.94-3.63-6.98-8.72
	c-1.04-0.01-2.63-0.26-2.67-0.92c-0.61-8.45-1.26-37.64,0.25-44.67l2.69-1.56C1052.03,989.56,1061.94,989.15,1061.98,993.72z"/>
<path class="st1" d="M1009.57,1440.88l-7.75,17.59c-1.68,4.19-14.94,4.3-16.69,0.14c-2.33-10.98,4.07-20.34,7.06-29.82
	C999.15,1430.75,1003.58,1437,1009.57,1440.88z"/>
<path class="st1" d="M854.23,1391.8l1.5,0.92c-3.35,11.63-5.27,23.48-5.74,35.55l-2.19,11.46l-3,1.41l-3.31-0.99
	c-1.78-11.69-4.54-22.87-8.29-33.52l1.02-3.17c-1.42-3.34-0.38-8.18-1.09-11.63L854.23,1391.8z"/>
<path class="st6" d="M1106.25,1050.05l-2.69,0.06l-0.86-65.8c-0.39-30.23-0.85-59.32,4.45-88.49c1.26,13.94-2,26.81-1.88,40.81
	L1106.25,1050.05z"/>
<path class="st11" d="M855.72,1421.16c-1.3,13.38-5.44,26.62-4.17,39.97c0.87,0.79,1.62,2.3,0.95,2.8
	c-7.62,5.63-11.08,1.76-11.45-6.8c-0.18-4.28,0.28-13.97,3.75-15.99l9.43-49.34c1.03-4.48,4.34-9.51,6.1-13.79l2.38,2.96
	l-8.07,32.28C853.23,1417.29,853.59,1419.93,855.72,1421.16z"/>
<path class="st15" d="M862.59,1392.69c-2.44,9.09-5.93,18.76-6.87,28.47c-1.62,0.04-1.62,2.12-3.61,3.78
	c-2.02-16.37,6.98-31.16,8.22-46.93c3.6-8.73,6.35-17.71,13.12-25.71L862.59,1392.69z"/>
<path class="st3" d="M974.65,1495.82c0.33,10.4-0.29,20.73-0.72,31.14c-0.48-0.09-1.49-0.31-1.93-0.12
	c-5.85-8.83-2.49-21.3-6.31-30.73C965.03,1492.08,973.85,1491.98,974.65,1495.82z"/>
<path class="st8" d="M450.22,1506.42c-3.31-1.34-7.04-2.48-10.61-2.7c-7.66,1.08-14.84,0.83-21.54-0.75
	c-2.18,0.18-4.39-0.3-7.22-0.61c-1.55-0.17-2.11-2.01-1.97-5.25l30.84-11.08c9.38-3.37,13.78-10.96,16.18-18.79
	c6.61-4.02,49.15-12.24,48.27-21.34c-0.96-9.93-40.69-13.87-50.16-17.29c2.05-5.34,5.81-7.07,5.27-11.02
	c-1.6-11.81-8.93-9.71-21.19-11.44c-3.26-22.02-24.59-5.69-33.39-37.64c72.38-4,142.07-9.17,212.44-19.79
	c6.49-0.98,15.66,1.43,16.62,7.74l-132.7,21.6c-5.49,0.89-9.1,3.57-9.56,8.84c-2.28,25.76,146.61,21.23,160.29,38.4
	c1.72,6.18-7.77,8.44-12.89,9.24c-46.05,7.25-91.6,12.36-136.41,23.58c-4.65,1.17-9.88,6.73-9.48,10.1
	c1.13,9.56,29.32,13.61,23.14,26.94C497.17,1508.13,472.05,1507.61,450.22,1506.42z"/>
<path class="st5" d="M834.24,1403.47c8.32,10.59,5.04,25.58,10.57,37.68c0.6,6.79-1.97,13.86-0.75,21.3
	c0.43,2.64,6.43,0.34,7.5-1.32l92.89-1.43c3.4,12.39,8.98,24.46,10.33,37.63c-83.58,3.19-168.74,0.29-251.37-14.43
	c-9.75-1.74-21.96-4.14-24.15-12.22c-2.15-3.01-1.81-7.08,1.01-12.2c0.79-4.35,2.73-6.54,5.81-6.57
	c3.21-5.74,10.27-9.96,14.35-14.82c2.63-0.36,5.5,0.88,8.6,3.72c9.24,4.47,19.46,6.73,29.57,8.59c28.39,5.24,57.62,6.79,86.2,7.9
	l1.32,2.71c5.09,2.01,6.87,1.21,5.34-2.39l2.43-3.13c-3.49-15.8-5.58-31.81-6.26-48.01l2.55-1.78
	C831.49,1404.16,832.85,1403.75,834.24,1403.47z"/>
<path class="st2" d="M767.47,1317.69l3.35,1.62c4.44,17.4,14.29,29.27,29.45,39l14.05,13.14c0.53,0.31,0.85,0.93,1.31,1.32
	l1.61,2.55c4.92,4.4,8.16,10.71,7.74,17.21c-2.31,4.52-12.1,5.07-14.82,0.74c-2.47,0.64-4.6-1.38-6.38-6.04
	c-2.57-1.27-4.85-3.76-6.83-7.46c5.27,6.9,5.7,11.74,1.28,14.52l-3.75,3.59c-13.83,2.35-27.45,5.48-40.88,9.41l-5.05-1
	l-104.71-15.22c-12.48,0.05-11-16.4,1.76-16.7l88.83-11.35c12.77-1.63,25.85-10.75,23.84-23.35c-0.95-5.94-5.98-10.43-1.8-15.82
	C758.58,1321.13,763.1,1318.24,767.47,1317.69z"/>
<path class="st1" d="M810.7,1411.68c4.1-0.39,4.98,2.27,2.51,5.15c2.54-0.93,3.42,1.24,1.36,2.83l3.07,1.1
	c4.27,12.08,7.88,24.34,10.85,36.78l-2.37,2.44c-21.13-0.44-115.08-4.67-125.69-22.92c12.17-14.48,30.28-23.73,48.12-30.76
	c15.88-6.26,33.19-8.11,49.67-12.01c0.85-3.64,2.94-3.13,5.33-0.79C806.05,1395.95,811.84,1408.36,810.7,1411.68z"/>
<path class="st13" d="M768.9,965.56c5.63,7.73,2.69,22.22,0.56,31.62c-2.66,11.78-8.22,22.68-14.87,32.62l-28.82,40.17
	c-4.69,12.56-11.07,25.01-11.79,38.66c0.11,4.79-6.04,5.4-8.03,1.57l-2.66-2.55c3.64-17.98,5.61-35.83,5.92-53.54l0.98-6.63
	l-3.48-1.92c-9.23-37.51,13.87-77.49,41.07-101.93l3.47,0.69c-1.34-3.52,2.08-4.32,5.18-4.61c11.59-1.1,13.8,14.81,14.96,23.68
	L768.9,965.56z"/>
<path class="st10" d="M917.65,993.91c6.28,0.84,7.57,3.73,8.48,9.56c0.66,4.26,0.25,15.63-4.81,15.73
	c-13.55-0.42,4.2,18.48-12.73,20.94c-19.07,2.76-56.71,5.14-75.21,0.43c-1.04-0.3-2.59-0.79-2.65-1.62
	c-0.62-9.18-0.69-35.03,0.85-43.38l2.72-1.91l1.25-2.67c26.83,0.08,53.67,0.16,80.52,0.24L917.65,993.91z"/>
<path class="st10" d="M1051.48,993.7l-0.27,47.15c-22.17,0.24-45.17,2.54-66.76-1.94c-1.47-0.78-2.19-2.3-2.59-3.87
	c-0.92-3.59-0.97-34.91-0.29-39.33l2.67-1.95l1.23-2.68c21.46-0.02,42.93-0.03,64.41-0.05L1051.48,993.7z"/>
<path class="st14" d="M791.64,993.49c1.75,2.28,1.27,4.05,0.63,6.43c-1.72,6.37-7.06,14.54-10.95,20.02
	c-6.37,8.99-15.87,20.85-26.28,24.02c-12.33,5.09-19.09,17.95-29.25,26.02c11.92-31.93,47.63-48.94,43.12-104.42
	c0.57-2.3,2.43-4.21,5.6-5.73l10.33-10.73c1.98-1.68,7.07-4.47,9.21-2.73c4.14,3.38,4.47,19.1,4.25,24.85
	C798.03,978.13,797.58,990.07,791.64,993.49z"/>
<path class="st0" d="M977.79,993.76c1.26,0.81,2.39,1.85,2.88,3.3c1.22,3.59,0.2,19.46-3.23,22.21
	c-18.69,0.57-37.44,0.52-56.13-0.07c2.76-8.93,4.56-19.72-3.67-25.29c-0.07-0.63-0.08-1.24,0.1-1.79c0.8-2.41,44.91-1.25,50.43-1.02
	C973.29,990.17,976.49,991.05,977.79,993.76z"/>
<path class="st9" d="M800.8,993.69l2.27,2.13c0.63,7.42,2.11,14.88,4.43,22.4l-2.58,1.95c0.07,6.4-0.09,13.98-0.64,20.54
	c-2.65,0.66-5.32-1.19-6.49-1.07c-1.12,0.12-1.1,4.13-2.51,4.39c-13.58,2.45-27.32,0.35-40.25-0.07
	c16.06-14.34,30.2-29.27,36.6-50.47C793.2,989.11,799.06,989.69,800.8,993.69z"/>
<path class="st6" d="M656.89,1493.89c-23.79,15.02-62.03,15.32-84.25-0.36C596.06,1478.85,633.51,1478.82,656.89,1493.89z"/>
<path class="st6" d="M938.8,1246.54c-21.07,14.37-56.82,14.62-77.69,0.42C881.99,1232.31,916.52,1232.8,938.8,1246.54z"/>
<path class="st6" d="M1078.37,1278.68c-21.16,14.82-55.97,14.33-77.23,0.29C1021.91,1264.49,1055.93,1264.72,1078.37,1278.68z"/>
<path class="st6" d="M939.83,1092.87c-20.25,14.58-55.3,14.2-76.03,0.22C884.4,1078.7,918.24,1078.88,939.83,1092.87z"/>
<path class="st6" d="M589.5,1376.88c8.63-2.53,17.39,11.72,7.74,14.51c-17.89,9.68-43.75,11.45-57.11-4.94
	C551.69,1369.9,572.52,1374.08,589.5,1376.88z"/>
<path class="st15" d="M645.59,1374.39c-2.05,2.84-6.75,4.19-7.68,7.37c-0.79,2.69,2.92,8.9,5.92,9.33
	c-14.65,4.42-32.07,5.11-46.59,0.3c0.98-2.5,2.37-5.95,0.41-8.65c-1.63-2.24-5.25-3.17-8.15-5.86
	C605.32,1366.32,628.33,1372.5,645.59,1374.39z"/>
<path class="st6" d="M845.26,1174.42c4.19,1.77,7.81,3.53,10.57,6.27c2.24,2.23,0.8,8.57-2.69,10.01
	c-24.41,10.04-52.2,3.14-50.79-7.2C803.94,1171.91,836.06,1171.16,845.26,1174.42z"/>
<path class="st14" d="M786.24,1309.74c-1.61,25.26,12.25,43.26,28.08,61.71c-9.71-5.75-18.31-13.27-27.82-20.56
	c-10.78-8.26-14.99-20.88-19.03-33.19c-1.91-5.81,0.42-15.7,3.07-20.16C777.84,1301.52,779.76,1308.57,786.24,1309.74z"/>
<path class="st11" d="M750.28,1091.62c-1.51-0.4-4.38,4.4-5.28,6.51c1.44-3.81,3.2-5.57,5.29-5.27c-2.87,6.95-4.94,15.21-10.58,20.2
	c-2.46,0.42-4.47,3.46-6.05,9.14c0.58-2.42,1.56-3.27,2.94-2.55c-0.07,2.66-0.36,5.39-1.16,7.95c-4.56,14.49-11.86,28.1-15,42.91
	c-1.86,3.44-4.06,2.62-3.82-1.39c-0.38-2.14-0.89-2.45-1.55-0.91c-1.98,3.41-3.75,3.03-4.15-0.89c-0.55-0.78-0.99-1.58-1.09-2.41
	c-0.54-4.53,8.05-32.61,10.84-37c0.88-1.39,2.59-2.02,4.11-2.55c13.23-27.17,28.65-51.96,50.5-75.08
	C767.48,1064.12,760.67,1079.35,750.28,1091.62z"/>
<path class="st5" d="M713.99,1108.64c-0.25,4.82,1.29,11.12-0.22,16.34c1.21,6.09,0.7,12.62-1.52,19.57
	c-0.09,8.28-1.84,15.48-5.23,21.58c-1.81,3.84-15.46,1.36-13.62-3.61c-0.62-0.74-1.19-1.49-1.61-2.33
	c-1.71-3.44,3.79-30.54,5.43-36.45l3.29-3.84c-4.62-2.89,0.77-13.11,5.45-9.68C708.33,1109.29,711.76,1110.52,713.99,1108.64z"/>
<path class="st6" d="M686.08,1451.89c-2.96,5.3-5.2,13.07-6.82,18.77c-12.36,0.74-28.99,1.58-36.78-10.53
	C655.34,1450.26,672.32,1449.5,686.08,1451.89z"/>
<path class="st0" d="M826.28,993.77c1.04,0.29,2.58,0.74,2.66,1.55c0.5,5.09,0.35,18.04-0.24,23.11l-2.7,1.87l-21.07-0.14
	c-0.1-9.15-6.64-17.35-4.12-26.47c3.53-4.36,16.56-3.58,22.31-2.56L826.28,993.77z"/>
<path class="st6" d="M845.07,1137.9c3.92-0.43,8.1,1.36,12.08,0.71l1.45,1.07c0.85,0.04,1.71,0.08,2.56,0.07
	c1.98,1.19,6.25,7.54,2.21,8.86c-13.79,4.49-32.42,6.33-44.61-3.02C825.27,1136.75,836.38,1138.85,845.07,1137.9z"/>
<path class="st6" d="M960.45,1274.83c9.23,0.03,20.22-0.75,28.13,7.41c-6.04,9.61-53.14,9.97-44.32-4.15
	C949.65,1277.97,955.07,1274.81,960.45,1274.83z"/>
<path class="st11" d="M834.28,993.66l-0.91,46.91c-1.53-0.39-5.82,0.48-6.06-1.77c-0.67-6.35-1.37-12.6-1.31-18.49l0.28-26.53
	C827.14,989.8,833.25,989.76,834.28,993.66z"/>
<path class="st8" d="M724.79,1125.35c-6.36,13.07-9.32,28.24-13.86,41.96c-1.21,3.64-4.08,2.58-3.89-1.19
	c1.24-13.82,2.91-27.87,6.75-41.15C717.45,1124.88,721.13,1124.93,724.79,1125.35z"/>
<path class="st11" d="M984.23,993.75l0.22,45.16c-8-1.66-6.96-12.42-7-19.64c-0.05-8.46,1.1-17.01,0.34-25.51
	C978.51,989.81,982.68,990.08,984.23,993.75z"/>
<path class="st6" d="M450.22,1506.42c-10.67-0.58-25.15,4.9-32.15-3.44C428.8,1502.09,444.22,1497.31,450.22,1506.42z"/>
<path class="st6" d="M739.72,1113.06l-0.27,1.29l-2.84,3.96c-0.12,0.41,0.01,0.91,0,1.34c-1.64,0.79-1.5,4.78-4.36,3
	C734.22,1119.11,736.37,1107.33,739.72,1113.06z"/>
<path class="st6" d="M750.28,1091.62c0,0.37,0.16,0.89,0.02,1.23l-5.29,5.27c1.17-4.93,3.42-9.55,7.34-13.57
	C753.35,1088.01,750.29,1089.22,750.28,1091.62z"/>
<path class="st0" d="M703.25,367.05l2.68,1.28c0.35,182.44,0.69,364.91,1.04,547.4l-2.68,1.67l-87.2-0.45l-0.54-549.92l1.24-2.68
	c27.94,0.01,55.89,0.02,83.85,0.02L703.25,367.05z"/>
<path class="st9" d="M763.4,366.88c0.66,1.15,1.17,2.29,1.18,3.44c0.13,17.91-2.97,21.63-0.1,1.33c0.23-1.62,0.93-3.17,1.77-4.7
	c1.11-4.07,6.77-4.02,7.97,0.02c0.4,5.93,1.74,5.92,4.01-0.01c2.5-4.69,16.19-3.71,21.36-2.64l2.57,2.71l2.6,1.37l-2.69,42.51
	c3.21,18.88,2.8,38.28-1.32,56.99l1.52,408.34c0,0,0.65,8.36,1.94,25.08c0.95,6.54-0.1,11.87-3.15,16
	c-27.9,0.1-56.55,2.35-84.45,0.12l-2.68-1.28c-0.07-182.45-0.13-364.93-0.2-547.44l2.68-1.67c0.28-1.05,0.74-2.62,1.56-2.68
	c8.19-0.67,36.65-1.56,43.46-0.16L763.4,366.88z"/>
<path class="st9" d="M873.32,366.99c2.1,5.84,2.85,12.23,2.26,19.17c-0.03,6.26,0.92,8.41,2.84,6.47l1.45,4.78
	c0.8,57.7,0.81,115.44,0.03,173.2l-3.08,37.54l-2-1.2c-1.91,11.44-1.25,12.25,1.97,2.43c2.09-19.12,3.33-38.33,3.84-57.56
	c-0.05-62.45,0.4-123.72,1.38-183.83l1.79-0.93c0.93-1.34,2.09-2.49,3.66-3.01c2.93-0.98,19.34-0.38,23.35,0.21l3.79,2.72l2.68,1.28
	c0.1,182.41,0.2,364.86,0.3,547.33l-2.68,1.67c-26.43,3.14-53.64-0.39-80.55-0.12l-2.68-1.28c-0.04-182.44-0.08-364.9-0.13-547.39
	l2.68-1.67c0.13-1.04,0.46-2.61,1.2-2.67c7.9-0.69,19.97-0.3,28.03,0.13C868.47,363.38,871.76,364.29,873.32,366.99z"/>
<path class="st0" d="M976.02,366.98l2.68,1.27c0.59,182.48,1.18,364.98,1.77,547.51l-2.67,1.68l-37.81,0.43
	c-8.23,0.09-16.92-1.57-25.1-0.6l-0.3-550.27l1.24-2.68c19.52,0,39.06-0.01,58.6-0.01L976.02,366.98z"/>
<path class="st15" d="M973.63,316.72l95.29,0.3l1.33,49.16c-3.33,0.12-5.92,1.3-8.22,0.77c-1.12,3.35-8.62,3.88-9.27,0.01
	c0.07,0.63,0.08,1.24-0.11,1.79c-1.01,3-55.76,1.08-62.89,0.77l-1.57-2.68c-0.63,4.16-11.1,4.08-12.17,0.13l-61.43,0.01
	c-10.25,0-20.58-1.09-30.8,0.08c-1.09,2.66-2.57,2.65-3.72,0.02c-0.51,2.7-1.89,2.47-2.84-0.17c0.19,3.9-2.91,3.64-3.92,0.07
	l-39.1-0.18c0.58,4.04-8.34,4.01-9.12,0.16c-0.13,1.03-0.39,2.52-1.17,2.68c-2.61,0.54-8.89,0.21-11.97,0.04
	c-5.01,0.99-8.28,0.11-9.8-2.65c-7.93,0.03-16.01-1.34-23.93-0.07c-0.66,3.77-2.41,3.46-4.01,0.01c-2.66-0.12-5.31-0.31-7.97-0.02
	c-0.87,2.6-2.1,2.56-2.84-0.07l-46.99,0.17c-0.7,4.18-12.1,3.99-13.15-0.01l-86.69-0.02l-0.09-50.26L973.63,316.72z"/>
<path class="st15" d="M941.63,925.19l131.45,0.44l1.52,67.63c-5.12,0.12-8.87-0.09-12.61,0.46c-3.48-0.79-7.01-0.02-10.51-0.02
	l-67.25,0.05c-1.8,0-4.63,0.01-6.44,0.01l-60.14,0.15l-83.37-0.25c-2.54-0.01-5.6,0.03-8,0.11c-8.46,0.29-17-1.02-25.47-0.08
	c-2.96,0.33-6.17-1.09-9.17-0.21c4.28-14.15,5.96-30.44,1.16-45.41c-11.33,2.85-13.63,16-23.9,17.48
	c-0.6-7.43-2.04-16.35-7.27-22.41c-1.71-1.98-8.28-0.38-10.37,1.19c-3.43,1.89-8.62-14.69-8.34-15.61c0.34-1.11,0.9-2.01,1.91-2.64
	L941.63,925.19z"/>
<path class="st0" d="M825.09,366.96l2.66,1.27l-1.33,81.06l2.52,466.25l-2.67,1.69l-25.21,0.09c0.54-13.39,1.15-26.44-1.45-40.83
	l-1.51-408.92c4.14-19.24,4.48-37.2,1.31-56.5l2.75-44.04L825.09,366.96z"/>
<path class="st11" d="M716.4,367.05l0.2,550.39c-3.83-0.31-8.4-0.03-12.31-0.05l-1.04-550.35L716.4,367.05z"/>
<path class="st11" d="M834.22,366.81l0.13,550.34c-2.57,0.03-5.56,0.07-8.08,0.08l-2.52-467.95l1.35-82.31L834.22,366.81z"/>
<path class="st14" d="M709.79,925.68c3.27,2.16,6.11,5.23,8.54,9.2c4.19-4.05,8.87-6.93,14.04-8.63c3.56,0.46,8.72-0.14,12.46-0.16
	l6.44,18.25c-23.35,17.52-54.36,67.89-41.05,103.16c0.43,6.24-1.55,8.62-5.94,7.14c-3.67-12.59-8.97-23.72-15.92-33.4l0.11-3.21
	l-4.41-22.93c-7.08-20.57-2.07-49.09,10.55-66.75c0.45-0.63,1.17-1.06,1.96-1.46c0.85-0.44,1.79-0.72,2.75-0.95
	C703.91,925.33,704.88,924.29,709.79,925.68z"/>
<path class="st15" d="M699.31,925.92c-13.84,20.74-18.96,44.51-15.26,69.17c-2.04-10.62-8.47-21.02-17.09-28.52
	c-8.8,3.42-10.92,12.98-15.96,19.76c-7.33-4.98-14.42-16.67-23.87-14.38c-7.03,1.86-8.14,13.34-9.69,19.06l-0.8-65.38L699.31,925.92
	z"/>
<path class="st9" d="M739.06,189.84c6.02-2.54,6.89,8.09,4.59,12.36c1.7,33.49,1.88,67.18,1.06,100.72
	c-0.05,1.87-0.64,3.72-1.4,5.57c-8.85,1.55-18.03-0.42-26.89-0.43l-0.16-108.26C724.22,197.2,731.07,191.75,739.06,189.84z"/>
<path class="st6" d="M559.83,72.18c1.51,40.62,1.76,80.45,0.02,122.06c-3.08,73.67-5.16,145.99-2.92,219.49
	c0.74,24.19,12.63,46.82,10.36,69.51c-5.01,50.03-2.62,98.01-5.57,147.35l-6.94,116.07c-2.76-36.99,3.98-71.08,4.36-107.14
	l1.58-147.46c0.45-42.44-10.06-84.14-8.61-128.14l7.46-225.84l-2.42-65.88C557.96,72.28,559.04,72.38,559.83,72.18z"/>
<path class="st6" d="M589.36,721.48c2.61-52.1-4.97-105.34-3.28-158.42c2.3-72.61,9.87-143.44,6.81-215.78l-6.93-163.79
	c-1.52-35.92,1.12-69.67-2.34-106.99c8.26,39.26,4.39,79.23,5.95,120.24l4.04,106.12c2.74,71.99-1.24,141.92-2.03,214.17
	L589.36,721.48z"/>
<path class="st6" d="M539.58,914.57c-6.82-84.76-4.18-170.07,2.8-248.12L539.58,914.57z"/>
<path class="st6" d="M530.36,69.44c0.44,0.08,0.89,0.11,1.34,0.16c3.94,30.51,3.62,60.75,2.99,92.52
	c-0.9,46.21,0.78,91.48-4.23,136.6C533.55,220,530.12,146.85,530.36,69.44z"/>
<path class="st10" d="M582.33,964.94c-2.63-30.69-8.32-62.71-7.01-95.71c1.65-41.67,7.88-81.55,5.47-122.06
	c2.73,21.53,2.95,41.85,1.01,62.51C576.94,861.32,581.1,910.55,582.33,964.94z"/>
<path class="st6" d="M879.75,305.27c-0.2,1.14,0.16,3.35-0.88,3.68c-2.04,0.64-4.04-0.03-5.7,0l-0.8-53.22
	c-0.47-30.93,4.04-60.83,3.95-91.28C883.95,214.93,870.76,253.98,879.75,305.27z"/>
<path class="st6" d="M744.59,187.6c2.56,3.94,2.55,8.18,2.5,13.38l-1.11,107.41c-0.84-0.05-1.83-0.04-2.66,0.1
	c0.6-35.39,0.73-70.78-2.26-106.58c2.52-4.76,1.52-9.32-2-12.07C739.58,186.96,742.9,188.41,744.59,187.6z"/>
<path class="st6" d="M561.05,972.12c-1.47-0.75-3.77-0.98-4.88-2.38l2.47-73.52L561.05,972.12z"/>
<path class="st6" d="M571.61,71.53l-1.74,67.82l-2.21-67.09C568.83,71.93,570.37,71.73,571.61,71.53z"/>
<path class="st15" d="M732.36,926.25c-3.63,5.09-9.51,7.73-14.67,12.82c-3.79-4.43-6.17-8.71-7.91-13.39
	C716.62,927.61,725.25,925.34,732.36,926.25z"/>
<path class="st6" d="M377.74,772.77l-3.64-0.12c-4.38-12.04-13.55-10.55-27.53,4.45c-7.99,2.68-14.01-1.69-18.06-13.1
	c-4.99-3.14-9.89-0.31-14.71,8.49l-3.29,0.26l-2.95,2.68c-25.83,0.18-51.66,0.11-77.48-0.21l-18.98-13.51
	c-0.45-8.4-2.35-66.2-0.18-68.88c0.92-1.13,18.87-14.25,20.1-14.32l234.25-0.41c7.92,3.42,16.41,9.94,23.02,15.8
	c0,0,0.02,22.14,0.06,66.42c0,0-6.99,5.05-20.98,15.15l-88.03-0.03L377.74,772.77z"/>
<path class="st6" d="M40.19,431.37c-1.15,0.01-2.99-0.25-4.02,0.02c-8.82,5.11-28.19-7.95-28.79-16.73
	c-1.76-25.97-1.79-52.8-0.37-78.79c0.36-6.66,15.19-15.93,21.1-18.26l154.19,0.69c7.64,1.95,17.01,11.11,20.99,17.8
	c0.42,26.65,0.42,53.29,0.01,79.92c-6.12,8.05-13.47,13.66-22.08,16.83l-131.55,1.12L40.19,431.37z"/>
<path class="st6" d="M206.26,272.14c-1.59,3.28-9.04,4.14-10.64,0.47c-1.15,1.33-2.24,2.2-3.93,2.61
	c-3.21,0.77-35.51-0.11-39.68-0.84c-2.94-0.52-18.1-7.48-19.46-9.35c-1.28-1.76-1.44-40.92-0.24-43.27
	c1-1.94,17.74-9.34,20.96-10.07c108.96-0.32,217.85-0.04,326.65,0.85c5.39,1.46,19.16,6.79,20.74,11.55
	c0.69,2.07,0.72,38.81-0.55,40.38c-2.42,3-17.08,9.15-21.49,10.49l-254.94-0.14C218.16,273.18,212.35,272.28,206.26,272.14z"/>
<path class="st7" d="M465.35,592.83l-152.84,0.15c-14.93,0.02-22.09-13.73-20.66-26.34l4.79-42.18
	c12.65-4.35,28.14-3.38,37.45-14.38c3.02-13.45,11.99-32.36,29.1-32.37l101.18-0.07c7.02,0,15.95,8.35,18.49,14.1l-0.26,87.31
	C481.07,584.34,472.09,592.83,465.35,592.83z"/>
<path class="st7" d="M358.81,613.41c2.18,2.39,1.22,4.01-0.66,6.13c4.45,6.17,1.82,12.33-0.98,18.52
	c2.15,4.11,5.12,10.42-0.92,11.69c-7.31,0.73-6.61,12.71-16.51,12.48c-0.36,2.22,1.19,5-0.08,6.55c-1.82,2.22-4.16,4.06-7.46,4.06
	l-260.02,0.21c-16.91,0.01-12.7-49.17-13.85-47.49c7.95-11.59,15.93-0.06,14.39-16.64l203.2,0.16c38.61-27.7,54.22,17.26,60.82-7.68
	c2.22,6.04,2.62,2.33,3.43,1.4c3.16-3.62,4.43-0.03,3.74,0.84c-1.57,1.98-2.29,3.49-4.09,6.6
	C345.46,615.44,352.85,610.3,358.81,613.41z"/>
<path class="st6" d="M483.21,464.72l-129.39,0.31c-6.39-3.83-11.79-7.78-17.27-12.74l0.1-62.35c4.77-5.29,10.27-8.94,16.51-13.05
	l130.22,0.35c6.41,2.64,11.78,8.09,16.78,12.37l0.03,61.98C495,456.84,489.54,460.66,483.21,464.72z"/>
<path class="st6" d="M267.31,595.41l-174.44,0.22c-4.63-2.91-8.11-5.93-12.44-9.42c-0.77-16.47-0.3-32.39-0.24-49.13
	c3.98-3.78,7.51-6.69,12.4-9.97l172.48,0.1c5.6,0.67,9.51,7,13.47,9.96l0.23,48.12L267.31,595.41z"/>
<path class="st7" d="M315.12,512.44l-140.86-0.02c-4.46,0-12.33-6.33-12.62-10.43c-1.24-17.6-0.43-34.15-0.24-51.43
	c0.04-3.67,3.4-6.43,4.29-8.7c1.32-3.38,8.63-0.02,10.8-1.73c12.47-9.85,26.95-3.88,41.15-2.02c36.43,4.76,109.79-6.54,111.2,11.99
	c1.34,17.59,0.95,34.34,0.06,52.12C328.67,506.73,320.2,512.44,315.12,512.44z"/>
<path class="st6" d="M500.07,363.83l-128.87-0.26c-5.38-0.01-9.24-6.29-13.02-9.38l0.11-56.5c2.43-3.65,7.54-9.52,12.23-10.22
	l105.34-0.34l23.77,25.5L500.07,363.83z"/>
<path class="st6" d="M356.25,649.74c2.46-5.37-1.07-8.66-1.91-11.65c1.75-5.5,7.14-12.87,0.05-17.87c2.01-2.96,3.44-4.49,4.42-6.81
	c5.18-0.69,7.31-5.72,10.37-7.16l114.14,0.59c5.19,0.03,10,4.75,13.22,8.33l-0.52,49.03c-0.52,4.53-9.36,9.03-13.82,9.04
	l-105.87,0.23c-6.73,0.01-12.03-3.02-16.63-7.16C355.22,662.28,359.38,655.09,356.25,649.74z"/>
<path class="st12" d="M486.36,865.21c0.64-4.71,3.32-5.59,7.22-2.78c5.64,4.06,0.42,22.3-1.73,27.81
	c-4.89,12.5-13.23,29.05-27.01,32.35l-0.97,3.24c-4.21,3.35-13.89,9.21-19.03,8.65c-17.57,4.86-25,19.49-35.92,35.99
	c-0.99-17.69,3.02-30.98-1.81-44.92c-2.1-6.07-2.65-12.76-5.21-18.98c-4.21-2.62-6.56-7.27-7.05-13.95
	c-2.49-7.1-2.54-13.54-0.17-19.32c-0.24-2.49,0.37-5.89,0.65-8.39c-2.6-1.14-1.77-4.09,2.48-8.83l0.67-4.12l9.34-9.35
	c3.15-5.3,6.93-8.91,11.32-10.84l1.86-0.65c3.32,3.05,5.84,7.45,7.54,13.19c13.46-11.05,29.46-13.97,29.68,9.41
	c13.14-3.96,14.79,8.89,14.28,18.7C477.06,867.88,481.68,865.48,486.36,865.21z"/>
<path class="st6" d="M222.89,828.26l-135.71-0.12c-5.85-0.01-10.51-1.99-13.9-5.21c-4.09-3.88-3.74-29.03-0.37-32.34
	c2.8-2.76,7.29-5.99,12.86-5.99l140.51,0.07c4.84,0,10,2.75,12.15,5.35c1.57,1.91,3.2,27.13-0.6,31.87
	C234.85,825.61,229.92,828.27,222.89,828.26z"/>
<path class="st14" d="M377.74,772.77c4.09,0.01,6.18,7.11,2.65,9.27c2.86,0.37,4.12,3.05,3.78,8.03c6.22-1.84,19.84,0.83,17.56,8.39
	l-2.83,5.95c-28.83,25.4-47.84,59.16-61.61,94.68l-4.7,4.75l-2.78-3.76c-2.96-23.79-9.93-46.76-20.91-68.9
	c-4.12-11.14-10.01-35.34-5.32-46.26c0.62-1.44,2.05-2.3,3.36-3.03c-3.83-2.88-0.79-8.64,3.56-9.14c2.5-4.35,8.87-13.36,14.44-13.21
	c7.32,0.2,8.05,9.02,11.4,12.97c10.15,11.96,16.41-13.1,32.52-10.63C372.89,762.49,373.89,769.13,377.74,772.77z"/>
<path class="st6" d="M306.95,781.89c-10.5,45.51,25.24,71.58,25.65,121.95c3.44,1.57,3.1,5.1-0.67,5.76
	c-0.32,0.99-0.87,2.42-1.66,2.41c-1.86-0.03-22.96-3.89-23.99-4.55l-2.21-3.15c-4.5-18.19-10.55-36.28-19.37-54.15l9.81,52.67
	c-2.06,0.21-2.67,2.41-2.91,4.2l-1.13,0.04c-1.95-1.4-5.24-2.29-9.86-2.66l-19.53-1.85l-1.37-2.88c-7.08-2.16-7.43-8.18-1.06-18.04
	c7.34-17.77,5.6-38.03-5.68-53.75l0.12-4.26l-2.28-2.12c-1.64-12.22-0.67-27.8,9.81-35.89c9.99-7.71,32.39-7.7,44.74-6.39
	L306.95,781.89z"/>
<path class="st6" d="M316.11,428.07l-92.3-0.18c-13.99-0.03-10.02-33.56-9.35-47.71c0.18-3.76,6.66-8.21,10.46-8.21l89.9-0.04
	c4.63,0,7.77,4.03,11.36,6.64l-0.37,41.19C325.03,423.51,319.58,425.47,316.11,428.07z"/>
<path class="st7" d="M206.26,272.14l17.92,1.81c1.65,1.92,2.05,4.69,1.19,8.3c8.49-1.83,14.35-1.28,21.9,2.94
	c6.92,3.87,15.44,9.69,16.22,17.74c0.35,3.58-0.46,12.71-4.41,13.45L7.64,316.07c-8.24-5.27,0.92-11.18,7.47-12.97l15.7-1.8
	c3.77-1.02,6.75-2.79,10.16-3.88c22.51-7.15,62.15,9.21,79.52-5.26c3.64-2.05,7.59-3.5,11.86-4.34
	c14.03-14.13,31.63-10.07,48.93-4.66l6.81-4.63c2.07-3.07,4.58-5.04,7.53-5.91C198.8,272.67,203.2,270.96,206.26,272.14z"/>
<path class="st6" d="M184.83,840.04c2.51,3.24,1.28,3.67-3.68,1.28c0.99,2.97-0.48,7.5-4.01,7.71c-1.68,6.78-6.49,6.3-14.43-1.44
	c-2.56-1.5-4.37,1.32-5.42,8.46c-1.26,12.71,2.13,24.93,10.17,36.65l-1.36,3.25c-33.13,1.05-66.16,2.62-99.08,6.61l-2.67-0.93
	l0.67-50.52c3.1-6.42,9.86-12.39,16.79-14.16l101.43,0.41L184.83,840.04z"/>
<path class="st13" d="M205.05,915.81c3.06,1.37,4.48,3.17,4.25,5.4c-3.46,11.09-5.85,22.56-5.89,34.74c-2.3,0.38-5.1-0.98-7.33-2.64
	c1-15.7-6.57-28.72-12.31-42.59c-3.21-4.02-1.86-14.04,3.92-12.12C192.5,905.27,198.01,911.51,205.05,915.81z"/>
<path class="st13" d="M239.25,844.75l3.49,1.81c4.62,10.75,8.42,21.77,11.4,33.05c0.8,6.36,1.1,12.65,0.91,18.89
	c-2.29,0.82-3.53,2.71-3.71,5.69l2.04,3.08c-6.33,18.04-5.83,34.65,1.5,49.81l-0.68,3.51l-5-0.19c-4.44-1.95-7.99-5.86-10.63-11.72
	c-3.98-3.9-6.19-8.02-6.64-12.34c-3.07-3.11-5.52-7.57-10.76-9.09c-3.36-0.98-5.99-5.77-9.75-6.2l-6.36-5.23
	c-20.4-14.24-34.56-38.34-31.11-63.85c0,0,1.06-0.98,3.19-2.94c0.53-2.75,1.46-6.69,4.01-7.71c9.8,1.47,19.27,8.6,27.01,14.78
	l3.38-19.09l2.97-1.42c1.92-1.4,4.49-1.17,7.71,0.71C232.14,823.59,241.49,830.99,239.25,844.75z"/>
<path class="st6" d="M486.36,865.21c-5.11,4.09-10.19,8.22-16.41,12.5c-0.52-7.32,0.89-13.62-2.32-19.6
	c-2.17-4.03-7.35-2.21-11.52-1.02c-1.59-5.25,0.03-15.81-6.32-18c-7.86-2.71-15.54,4.99-21.84,9.06c-4.18-4.97-4.42-12.21-8.8-16.4
	l-1.03-3.56c6.2-11.26,10.62-24.36,7.81-37.25c-7.26,1.33-14.48,4.49-21.68,9.49l-2.51-1.99c-4.79-5.6-11.32-8.65-19.17-4.25
	c-1.77-4.21-1.08-8.33-2.17-12.16l0.92-2.68l103.36-0.28c2.52-0.02,3.86,1.52,4.31,3.91l0.05,79.74L486.36,865.21z"/>
<path class="st6" d="M332.29,357.99c-36.97,2.35-71.9,2.45-108.51-0.1c-8.95-2.03-9.35-28.29-0.32-30.6
	c36.46-2.97,71.49-2.36,107.8-0.28C341.01,328.19,341.16,354.88,332.29,357.99z"/>
<path class="st6" d="M336.91,317.65c-21.88,0.99-45.51,2.14-66.78-0.08c-8-5.46-8.29-27.23-0.39-33.2c21.46-2,45.63-1.28,67.28,0.1
	C343.94,291.41,343.86,309.92,336.91,317.65z"/>
<path class="st6" d="M147.27,518.89c-18.51,1.35-36.51,0.53-54.75,0.26c-5.53-0.08-7.95-6.63-8.24-10.96
	c-0.26-3.86,2.95-10.66,8.29-10.74c18.59-0.28,36.88-0.88,55.22,0.25c5.48,0.34,6.54,6.87,6.59,10.55
	C154.43,512.11,153.43,518.44,147.27,518.89z"/>
<path class="st14" d="M253.05,823.64c16.13,19.9,16.79,47.6,2.44,69.69c1.14,3.04,3.96,3.87,4.19,6.35l-0.79,1.69
	c-2.74,0.45-5.25,1.38-7.55,2.81c5.21-22.5-5.09-39.27-12.09-59.43c0.41-7.4,3.65-18.72,10.3-22.72
	C250.39,821.52,251.99,822.8,253.05,823.64z"/>
<path class="st6" d="M485.11,945.64l-24.53-6.45c-2.59,2.65-3.45,2.33-3.68-1.35c-4.1-0.82-8.27-1.52-12.05-3.36
	c6.28-3.44,12.86-9.5,19.99-11.89c10.33-6.35,23.51-1.18,24.08,12.05C489.07,938.2,488.7,944.51,485.11,945.64z"/>
<path class="st14" d="M214.51,835.58l-4.66,26.38c-8.93-11.26-20.17-13.21-28.7-20.64c1.16-0.46,3.04,0.32,3.68-1.28
	c0.73-2.19,2.82-3.52,6.27-4c6.75-9.92,13.7-11.91,20.84-5.99C214.89,831.51,215.75,833.36,214.51,835.58z"/>
<path class="st14" d="M177.14,849.02c-5.09,26.52,9.33,48.61,27.92,66.79c-7.93-2.45-13.97-9.47-19.21-16.46l-2.07,11.37
	c-5.5-5.26-10.99-11.17-17.68-14.78c-7.09-14.27-16.18-27.56-10.39-43.98c0.97-2.74,1.54-7.13,4.54-7.6
	C166.6,843.39,172.43,856.97,177.14,849.02z"/>
<path class="st14" d="M211.41,921.04c-0.63-0.96-1.38-0.26-2.11,0.18c-1.74-1.45-2.69-3.87-4.25-5.4
	C208.13,916.76,210.93,917.48,211.41,921.04z"/>
<path class="st1" d="M202.15,1007.32c-0.91-1.68-3.7-3.68-4.94-5.43l-13.75-27.85l14.28-0.44L202.15,1007.32z"/>
<path class="st10" d="M1052.76,366.97l2.68,1.29c-0.45,182.44-0.9,364.92-1.35,547.42l-2.68,1.66l-29.52,0.14
	c-1.22-5.58-1.67-5.91-1.36-0.98l-1.33,0.96l-35.79-0.18l-2.67-1.3c1.59-182.47,3.18-364.96,4.77-547.48l2.69-1.64L1052.76,366.97z"
	/>
<path class="st11" d="M1062.03,366.96l0.31,553.1c-4.38,1.45-7.45-2.73-10.94-2.72l1.35-550.37
	C1055.86,366.98,1058.88,366.23,1062.03,366.96z"/>
<path class="st11" d="M988.2,366.84l-4.79,550.43c-1.75-0.01-3.84,0.14-5.6,0.16l-1.78-550.46L988.2,366.84z"/>
<path class="st10" d="M1115.92,350.68c0.8-59.83,5.72-116.1-1.19-174.46c-3.6-30.37,1.65-62.57,4.15-93.59
	C1115.8,175.95,1128.21,259.11,1115.92,350.68z"/>
<path class="st15" d="M1082.14,81.61c-1.8,14.59,3.9,29.77-0.25,44.16c-4.74,16.43,3.31,32.63,2.36,49.83
	c-2.83,51.55-5.85,101.59-0.99,153.42c-6.11-14.77-1.46-29.25-5.15-44.32l-0.32-156.81c-0.03-16.06,3.65-30.92,1.51-46.22
	C1080.23,81.74,1081.23,81.71,1082.14,81.61z"/>
<path class="st6" d="M1111.71,599.18c-5.38-89.08-12.82-184.76-2.57-275.19C1105.65,416.45,1110.35,506.46,1111.71,599.18z"/>
<path class="st10" d="M1115.21,809.94c0.03,3.56-0.84,3.58-2.4,0.33c-3.24-28.2-0.46-56.06,4.69-83.14
	c-6.95-30.68-6.67-61.14-4.75-91.53c4.6,21.33-1.69,42.96,3.62,64.26c2.82,11.29,6,20.8,3.27,32.88
	C1113.79,758.6,1113.73,784.28,1115.21,809.94z"/>
<path class="st10" d="M1136.78,637.8c-2.01-23.88-8.12-49.06-6.72-75.32c2.2-41.19,3.84-80.33,0.54-120.88
	c5.82,33.46,3.92,65.95,3.14,99.46C1132.98,573.02,1134.93,602.27,1136.78,637.8z"/>
<path class="st6" d="M1131.68,1018.9c-3.36-25.01-3.41-50.86-3.93-77.39l0.66-116.54L1131.68,1018.9z"/>
<path class="st0" d="M1021.88,917.47l-2.69-0.02l-2.21-92.65C1021.05,855.49,1021.49,886.61,1021.88,917.47z"/>
<path class="st6" d="M1115.21,809.94c2.39,41.51,2.41,83.43,0.97,124.91c-0.72-42.37-0.29-83.24-3.37-124.58L1115.21,809.94z"/>
<path class="st6" d="M891.42,298.7c-2.37-41.13,0.27-80.86,0.93-121.82c0.37-17.78-3.37-34.31,1.1-51.69l2.52,45.02L891.42,298.7z"
	/>
<path class="st1" d="M686.98,1161.42c2.28-2.36,5.4-2.52,6.42,1.09c3.99,2.71,9.09,2.23,13.62,3.61l3.89,1.19
	c1.36,0.41,2.75,0.67,4.15,0.89c1.17-2.49,2.24-1.87,1.55,0.91c0.98,1.07,2.74,0.71,3.82,1.39c15.95,10.01,33.21,21.53,37.07,40.39
	c-0.1,1.06-0.47,2.66-1.21,2.69c-27.03,1.19-57.31,1.75-84.38,1.07c-16.46,0.07-49.26-0.75-58.4-16.75
	c-4.22-7.39-1.84-13.79,3.99-19.4c0.17-0.31,0.53-0.84,0.83-1.04c5.87-4.08,12.7-6.2,18.99-9.52c1.3-0.69,3.12-0.25,4.42-1.33
	c0.83-0.69,3.1-0.2,3.79-1.45c4.88,0.89,9.93-1.7,14.8-1.97c2.3-3.92,7.58-4.5,10.72-1.23c0.58-4.55,11.06-3.89,11.99,0.25
	l1.34-1.06C684.82,1157.59,685.99,1157.97,686.98,1161.42z"/>
<path class="st5" d="M617.51,1178.52c-0.25,5.67-5.26,10.09-3.01,15.48c7.32,17.51,41.65,18.19,59.21,17.97l83.8-1.07
	c0.66,3.22,1.84,9.03-2.26,11.46l-9.13,5.43c-0.23,0.91-0.5,1.8-0.93,2.6c-0.42,0.79-0.82,1.5-1.41,1.79
	c-38.29,18.62-80.3,12.47-120.67,4.84l-5.83-3.87c-8.83-1.76-18.49-5.9-26.53-10.42c-2.32-15.68,7.96-26.02,15.91-37.5
	C610.1,1183.25,613.57,1179.66,617.51,1178.52z"/>
<path class="st3" d="M746.13,1227.78c1.8,4.03,7.14,7.36,5.9,11.41c-1.46,4.75-6.63,7.13-11.55,7.26l-75.75,2.06
	c-13.38,0.36-27.01,8.13-39.11,0.49c-6.18-3.9-2.05-12.76-8.32-15.86C659.86,1241.64,710,1249.27,746.13,1227.78z"/>
<path class="st1" d="M556.96,1241.66c-5.16,12.72-8.2,26.88-11.82,40.03c-2.67-9.26,2.36-32.92-4.14-28.24l1.66-16.09
	C547.79,1237.54,551.96,1240.92,556.96,1241.66z"/>
<path class="st3" d="M710.21,1047.5c7.06,18.73-4.61,43.58-4.24,62.72c-3.13,1.23-5,6.39-5.45,9.68c-1.84,2.63-7.4,5.21-10.45,3.66
	l-2.31-1.83l12.63-51.49l-5.56,8.84l-3.27,0.17l-3.24-1.88c-2.11-8.05-5.14-16.02-10.72-22.34l0.16-3.69
	c4.76-10.39,5.18-23.56,10.71-33.33c10.84,6.96,11.86,23.41,18.26,35.99C707.89,1052.45,708,1049.04,710.21,1047.5z"/>
<path class="st11" d="M690.07,1123.56c1.01,0.38,2.52,0.96,2.53,1.77c0.02,3.22-2.05,28.7-2.78,30.02
	c-0.53,0.97-1.75,1.36-2.84,1.66c-2.28-3.71-3.38-8.31-3.28-13.81l1.94,16.9l-1.25,1.05l-1.34,1.06c-3.89,0.06-8.11-0.98-11.99-0.25
	c-1.22-0.01-1.14-0.33,0.06-0.92c-0.13-11.23,0.78-22.61,2.73-34.13c0,0-0.46-5.12-1.39-15.35l-1.88-2.7
	c1.32-8.75,0.52-17.63-2.42-26.64l1.18-12.25c1.13-4.06,0.63-9.44,3.92-12.15l2.44,1.36c4.59,10.31,7.63,21.3,9.12,32.97
	c2.02-2.47,3.28-6.22,3.77-11.23l2.98-1.68l15.54-24.71L690.07,1123.56z"/>
<path class="st8" d="M672.45,1111.58c8.98,5.75,0.71,39.92-1.34,49.48l-3.48-1.5c-2.15-7.15-3.98-14.38-5.48-21.7
	c-2.08-4.25-2.64-8.09-1.69-11.52c-1.4-2.44-0.68-6.93-0.99-9.62C659.73,1112.01,669.55,1107.45,672.45,1111.58z"/>
<path class="st1" d="M691.55,1079.25c-1.07,7.01-2.75,15-7.63,22.05c-3.26-15.23-5.22-29.76-10.68-43.48
	c0.73-2.12,1.89-5.66,4.51-6.48C685.41,1058.72,689.05,1068.99,691.55,1079.25z"/>
<path class="st1" d="M672.45,1111.58c-4.64,0.82-8.73,3.2-12.98,5.14c-1.83-16.16,5.55-31.26,9.86-46.74
	C669.35,1084.05,677.66,1098.85,672.45,1111.58z"/>
<path class="st5" d="M660.45,1126.34c6.1,10.63,5.77,23.51,10.66,34.72c0.11,0.25-0.1,0.64-0.06,0.92
	c-3.61,0.68-7.06,1.03-10.72,1.23c-2.33-12.32-5.06-24.84-8.11-36.66c1.63,0.81,3.38,1.61,4.96,2.17
	C659.3,1129.48,660.7,1128.79,660.45,1126.34z"/>
<path class="st15" d="M460.58,939.18l-22.47,31.32c-1.04-0.54-1.9,0.25-2.83,0.51c-0.5-4.8,5.65-7.55,4.19-12.04l17.44-21.14
	C458.17,938.09,459.34,938.86,460.58,939.18z"/>
<path class="st15" d="M432.59,975c0,1.9-1.06,3.52-3.65,5.4C429.34,978.15,430.59,975.92,432.59,975z"/>
<path class="st6" d="M430.88,1231.35c-2.64-31.08-9.09-62.71-13.8-95.79C424.66,1165.81,431.29,1197.07,430.88,1231.35z"/>
<path class="st1" d="M428.46,970.94c-8.44,15.63-17.62,30.76-25.12,46.92c0.65-16.3,5.75-32.22,9.97-48.37L428.46,970.94z"/>
<path class="st1" d="M392.28,1001.79c-0.13-11.07,0.46-22.59-1.16-33.59c4.14,0.29,7.86-0.56,13.05,1.17L392.28,1001.79z"/>
<path class="st15" d="M381.71,918.93c0.14,0.33,0.01,0.8,0.21,1.09c-1.09,0.73-1.98,1.7-2.63,2.84c-0.24-1.73-1.32-3.35-1.69-5.05
	c0.56-0.3,1.03-1.6,1.5-2.4C380.43,913.13,380.57,917.62,381.71,918.93z"/>
<path class="st13" d="M419.15,831.77c-5.66,9.44-13.58,17.81-21.34,24.31l-4.03,6.53c-15.12,8.74-28.28,19.38-39.47,31.93
	c-2.56,5.56-5.85,9.67-9.88,12.31c-1.66,0.65-1.88,2.66-2.66,3.98l1.16,3.48c-3.19,8.62-5.47,17.53-6.85,26.72
	c-0.54,10-9.11,6.77-11.69,0.27c-2.25-5.7,2.17-23.05,4.52-29.53l3-2.17c0.27-2.5,0.24-4.6,0.67-5.76
	c15.61-41.32,35.51-77.47,69.14-105.39c9.79-2.83,15.01-11.52,26.11-10.57C432.41,802,426.91,818.82,419.15,831.77z"/>
<path class="st5" d="M331.92,909.6c-1.02,9.6-5.52,18.73-6.06,28.76c0.92,2.81,5.47,5.64,5.65,8.5c4.64-12.56,3.8-25.04,10.26-36.03
	c5.11,0.99,9.9,1.29,16.51,3.62c-9.32,18.7-27.61,54.37-28.74,72.61c-1.99-3.25-1.57-7.43-1.27-12.14
	c-10.04-5.85-7.37-16.14-8.9-27.71c-4.63,7.57-5,16.84-5.17,25.11c-2.48-22.5-4.6-45.65-10.13-68L331.92,909.6z"/>
<path class="st6" d="M395.33,864.91c-14.68,8.45-20.53,27.08-32.67,40.52c-4.44,3.79-12.8,0.88-18.24,1.43
	c11.88-28.34,33.74-34.32,53.38-50.77C398.19,859.24,395.66,861.97,395.33,864.91z"/>
<path class="st6" d="M394.68,873.3c1.06,11.14,2.91,22.77,7.22,33.27c-9.39,0.58-18.54,0.42-27.61-0.43
	C382.68,894.51,385.21,881.36,394.68,873.3z"/>
<path class="st6" d="M307.49,970.22c-2.34-29.48-8.38-59.2-13.95-90.38C301.4,908.29,308.61,937.58,307.49,970.22z"/>
<path class="st6" d="M466.43,1220.36c0.15-8.64,4.45-15.3,9.03-21.72C473.15,1206.27,471.1,1213.11,466.43,1220.36z"/>
<path class="st6" d="M460.38,1236.32c0.59,2.39-1.12,4.35-1.61,6.64C457.01,1241.07,458.1,1239.52,460.38,1236.32z"/>
<path class="st6" d="M465.7,1221.59c0.9,2.18-1.15,3.48-1.63,5.25C462.37,1225.36,464.03,1224.48,465.7,1221.59z"/>
<path class="st6" d="M487.18,1173.61c0.11,3.92-3.24,6.58-4.49,10.44C481.69,1180.27,484.7,1178.38,487.18,1173.61z"/>
<path class="st5" d="M231.92,936.33c7.16,7.26,11.95,15.44,17.27,24.06c1.29,2.09,0.13,5.52,1.09,7.66l-1.53,2.96
	c-3.93,0.37-7.74,0.36-11.42-0.04c-1.74-2.75-5.5-6.69-8.24-5.42c-5.93-1.8,1.23-3.33,0.87-3.53l-7.21-3.93
	C224.48,959.04,227.28,922.5,231.92,936.33z"/>
<path class="st6" d="M244.56,1139.77c0.91,2.22,0.96,4.55-0.08,6.76C243.3,1145.09,243.27,1143.22,244.56,1139.77z"/>
<path class="st6" d="M245.06,1137.42c-1.06,4.95,1.76-15.69,1.38-2.32l-0.07,2.64C246.34,1138.96,244.97,1137.86,245.06,1137.42z"/>
<path class="st5" d="M259.67,899.69c7.66,1.22,36.93,1.61,30.77,7.39c-7.85,18.88-11.49,39.52-14.5,59.85
	c-2.38,4.56-13.73,4.98-16.24,0.31l-5.5-6.64c-12.56-15.17-7.33-37.08-2.86-56.41c0.52-1.63,0.73-4.18,2.6-4.58
	C255.82,899.2,257.92,899.41,259.67,899.69z"/>
<path class="st1" d="M275.94,966.92c-1.68,11.34-0.86,23.24-1.74,34.67c-5.5-11.02-10.31-22.75-14.5-34.36
	C265.09,968.07,270.52,967.24,275.94,966.92z"/>
<path class="st6" d="M279.47,1014.77c-2.06-18.45-1-36.56,1.33-54.62L279.47,1014.77z"/>
<path class="st6" d="M283.42,938.89c0.82,3.13,0.98,6.25-0.11,9.5C282.15,945.93,282.05,943.24,283.42,938.89z"/>
<path class="st6" d="M282.08,949.6c0.86,2.67,0.97,5.4-0.1,8.13C280.8,955.77,280.73,953.49,282.08,949.6z"/>
<path class="st6" d="M284.74,930.84c0.91,2.22,0.96,4.55-0.08,6.76C283.48,936.16,283.44,934.29,284.74,930.84z"/>
<path class="st1" d="M250.28,968.05c6.58,14.64,9.2,31.42,11.11,47.13c-5.41-15.91-15.09-30.01-24.07-44.21
	C239.52,966.83,246.08,969.21,250.28,968.05z"/>
<path class="st15" d="M387.56,1009.83l-4.28-74.26C387.41,959.58,390.16,984.72,387.56,1009.83z"/>
<path class="st5" d="M1001.83,1458.47l-8.94,31.19c-0.52,1.82-0.32,3.47-1.72,4.47c-1.36,0.97-3.18,1.24-4.89,0.78
	c-1.35-9.04,0.47-19.78-4.63-27.26c3.15-0.89,4.15-5.91,3.48-9.04L1001.83,1458.47z"/>
<path class="st5" d="M975.96,1458.62c2.11,12.32-1.71,24.74-1.31,37.2l-8.96,0.29c-4.67-11.52-5.55-25.03-10.85-36.22
	C961.77,1458.05,969.14,1460.66,975.96,1458.62z"/>
<path class="st1" d="M824.98,1392.53c3.22,3.16,2.52,8.55,5.2,12.15l3.71,49.79l-4.38-5.59c-4.62-13.59-9.34-26.9-14.16-39.91
	c-3.35-5.25-5.08-10.48-5.18-15.69C815.1,1393.72,820.04,1392.91,824.98,1392.53z"/>
<path class="st6" d="M1019.38,1433.38c-0.05-5.84,2.92-10.12,6.34-14.09C1025.76,1425.14,1022.8,1429.41,1019.38,1433.38z"/>
<path class="st6" d="M999.89,1485.6c1.65-1.29-0.82,7.49-1.55,7.6c-3.03,0.47-1.84-2.4-1.26-2.95
	C997.79,1489.56,997.32,1486.73,999.89,1485.6z"/>
<path class="st6" d="M1003.99,1473.41c0.56,0.15,1.4,4.25-0.91,5.93c-1.57,1.14-1.32-0.89-1.37-1.64
	C1001.64,1476.69,1002.77,1475.78,1003.99,1473.41z"/>
<path class="st6" d="M1014.61,1444.01c0.71-0.28,0.52,1.36,0.63,1.82c0.18,0.77-0.45,1.94-1.4,2.69c-1.45,1.16-1.4-0.66-1.4-1.48
	C1012.46,1445.8,1012.72,1444.75,1014.61,1444.01z"/>
<path class="st6" d="M1010.71,1454.71c1.09,3.96-1.68,6.94-3.03,10.62C1006.73,1461.86,1009.18,1459.79,1010.71,1454.71z"/>
<path class="st6" d="M1006.77,1466.68c0.9,2.18-1.15,3.48-1.63,5.25C1003.43,1470.45,1005.1,1469.57,1006.77,1466.68z"/>
<path class="st6" d="M1018.88,1434.68c0.59,3.15-2.43,4.9-3.07,7.84C1014.17,1439.7,1016.91,1438.65,1018.88,1434.68z"/>
<path class="st6" d="M1032.28,1406.62c-0.07,3.41-2.13,6.4-4.6,9.13C1028.1,1412.65,1029.66,1410.96,1032.28,1406.62z"/>
<path class="st6" d="M604.07,1425.33c-15.82,10.33-39.11,10.51-54.99,0.1C562.8,1413.36,589.17,1413.64,604.07,1425.33z"/>
<path class="st11" d="M810.16,1393.27c9.07,20.03,17.98,39.83,23.72,61.19c0.18,2.41,0.4,4.78,0.71,7.34
	c0.33,2.69-3.21,2.23-5.83,1.77c-1.31-0.23-2.26-1.87-2.65-3.59c-1.22-11.37-8.98-30.15-11.54-40.32c0.77-1.59,0.69-2.56-1.36-2.83
	c-1.4-1.09-1.49-3.94-2.51-5.15c0.91-5.9-4.49-13.74-8.21-18.73c-1.22-2.36-1.04-4.11,1.29-5.73
	C806.35,1388.53,807.91,1391.65,810.16,1393.27z"/>
<path class="st15" d="M803.77,1387.23c1.36,11.46,16.72,26.56,6.92,24.45c-4.54-5.4-4.71-18.41-12.48-17.39
	c2.99-8.32-7.07-14.64-9.91-26.02C793.53,1372.89,802.81,1379.1,803.77,1387.23z"/>
<path class="st15" d="M814.57,1419.66c-0.19-0.76-0.75-2.34-1.36-2.83c0.85-0.75,2.34-1.76,3.13-1.17c1.14,0.84,0.83,2.24,0.59,2.88
	C816.61,1419.41,815.46,1419.96,814.57,1419.66z"/>
<path class="st6" d="M716.62,1169.12c-0.3-0.33-1.1-0.84-1.55-0.91c5.18-14.59,7.95-30.57,17.58-43.39L716.62,1169.12z"/>
<path class="st8" d="M700.51,1119.89c-1.95,14.29-6.14,28.23-7.11,42.62c-1.81-0.31-4.81,0.72-6.42-1.09
	c-2.07-0.46-2.2-3.94-0.01-4.41l3.09-33.46C693.27,1121.13,696.38,1118.62,700.51,1119.89z"/>
<path class="st6" d="M736.22,855.19c0.23-30.99,4.46-60.6,7.3-91.75c4.17-45.77,2.73-89.49,1.55-135.3
	c-0.96-37.22,3.38-72.87,5.44-109.96l-2.04,102.01c-1.05,52.35,1.76,102.94-3.71,155.17C741.91,802.53,740.04,828.15,736.22,855.19z
	"/>
<path class="st6" d="M774.1,884.81l-0.19-104.4c-0.09-52.52,4.32-102.87-0.05-157.48c12.43,83.48-1.87,180.1,2.66,267.94
	C776.2,889.98,774.1,887.42,774.1,884.81z"/>
<path class="st6" d="M766.24,366.96c-4.13,43.37-2.86,85.4-0.58,130.84c-8.93-43.53-4.53-87.1-2.27-130.91
	C764.32,366.88,765.32,367.06,766.24,366.96z"/>
<path class="st10" d="M778.22,366.96c-3.6,35.24,2.5,61.1,1.04,95.28c-2.82-1.63-0.29-4.79-0.48-7.13
	c-5.49-29.85-6.5-58.62-4.57-88.14C775.48,367.03,776.97,367.16,778.22,366.96z"/>
<path class="st6" d="M736.09,858.57c0.8,4.42,1.02,8.85-0.13,13.54C734.87,868.16,734.68,864.32,736.09,858.57z"/>
<path class="st8" d="M883.79,367.07l0.05,90.96c0.03,51.79-0.71,101.72-7.05,151.35c-1.17-0.32-1.13-0.74,0.03-1.23
	c7.22-72.01-3.79-143.95,1.6-215.52c-3.12-0.75-2.99-2.31,0.22-2.9c-0.61-7.31-0.84-16.14,1.44-22.64
	C881.3,367.07,882.57,367.21,883.79,367.07z"/>
<path class="st10" d="M856.32,617.13c-0.35-30.73-3.75-61.9-0.51-93.74c4.98-48.95,7.93-96.5,5.86-145.83
	c5.8,44.4,1.57,89.53-1.33,135.04C858.1,547.64,860.03,580.86,856.32,617.13z"/>
<path class="st6" d="M876.82,608.15c0.07,0.4-0.07,0.83-0.03,1.23c-7.96,62.33-0.75,125.39-4.53,188.77l-2.69-93.64
	c-1.29-44.77,4.9-87.82,3.64-132.74C876.57,583.82,874.75,596.19,876.82,608.15z"/>
<path class="st8" d="M888.41,917.19l-1.27-68.62l5.99-61.2c-1.29,35.83-3.87,70.21-2.09,105.94
	C888.23,901.04,890.39,908.17,888.41,917.19z"/>
<path class="st6" d="M877.23,366.92l1.48,0.74c-0.4,7.38-0.43,14.74-0.08,22.07l-0.22,2.9l-9.27,80.34
	c3.16-36.11,5.57-70.73,4.18-105.98L877.23,366.92z"/>
<path class="st9" d="M880.07,367.09c0.64,7.66-0.87,15.1-1.44,22.64c-3.36-6.97-0.42-15.22-1.4-22.81
	C878.17,366.91,879.13,367.11,880.07,367.09z"/>
<path class="st11" d="M512.81,202.23l0.22,752.8c-9.49-2.89-18.46-6.9-27.93-9.39c-0.04-5.6,3.21-14.28-1.05-18.75
	c-3.51-3.68-13.82-6.1-19.22-4.29c28.26-19,35.74-68.75,21.52-57.38l-0.06-83.46l-105.92,0.29l-2.65-9.27l89.66,0.11l18.7-13.6
	l-0.2-65.12c-7.04-4.26-12.81-7.95-18.98-13.38l-234.88,0.1c-6.46,4.79-11.76,9.23-19.07,13.29l0.03,66.06
	c6.53,4.09,12.14,7.55,18.05,12.6l79.47-0.09c-1.23,2.13-3,6.71-3.56,9.14c-15.57,0.51-43.45-4.98-51.93,15.14
	c-3.71,8.8,0.22,18.38-1.97,26.61c-9.03,1.67-7.68,14.44-13.8,21.11c-1.49-4.3-5.39-15.42-8.04-12.99l-7.5,6.86
	c-1.33,1.22-7.01-1.22-9.21-3.04c-3.45-2.86-11.13-10.01-15.19-4.59c-4.67,6.23-6.88,9.08-14.49,9.05l-104.27-0.42
	c-4.46,2.73-11.26,7.72-12.98,12.06l-0.57,50.88c-22.57,2.74-44.34,10.11-67.01,9.5v-17.41c30.26-3.04,38.13,8.56,58.33-14.64
	l-0.55-75.29c-2.89-5.79-11.41-14.7-17.86-14.87l-39.91-1v-16.07l176.44-0.15c6.35-4.81,11.4-9.11,18.71-12.97l0.19-65.76
	c-7.07-4.14-12.99-7.75-19.06-13.47L0.01,680.36v-16.07c6.54-2.27,39.68,4.1,41.11-9.43c1.39-13.18,0.94-25.56-0.01-38.71
	c-6.09-13.08-27.91-7.14-41.1-8.11v-13.39c21.19-1.21,60.21,8.15,69.83-11.14l-0.23-71.79c-2.53-4.2-8.57-11.11-13.74-11.2
	l-55.86-0.95V487.5l137.95,0.31c6.61-10.31,15.81-22.47,7.27-31.45c-8-8.4-39.79-22.75-51.57-14.34
	c-11.71-5.27-28.38-7.13-42.78-3.46c-3.22-4.16-7.59-4.44-10.7-7.19l141.92-1.21c7.45-2.6,13-10.12,18.88-15.17l-0.29-78.89
	c-4.64-5.4-11.87-12.81-18.89-15.2l-154.64-0.62c-5.46,4.67-15.8,8.99-17.53,15.95C8.93,362.4,8,387.67,10,414.2
	c2.67,9.02,17.32,17.72,26.17,17.18c-1.79,1.24-5.57,1.48-7.83,2.64c-2.66,7.01-6.58,9.74-10.53,11.83
	c-6.22,3.29-10.9-1.84-17.8-1.22v-143.3c10.27-0.07,20.54,0.54,30.8-0.05c-8.89,2.41-19.41,1.38-24.82,12.1l254.02,0.33
	c-0.02-6.28,1.33-10.01,0.57-13.49c-1.27-5.77-7.09-6.11-10.4-9.28c-17.7-16.92-30.69,4.69-26.8-14.82c-5.08-3.1-11.99-2-17.12-3.99
	l271.78,0.24c7.4-2.5,13.69-6.21,20.1-9.29l-0.17-40.17l-20.15-8.34l-324.71-0.24l-18.69,8.53l-0.11,40.64
	c6.78,2.01,12.72,8.22,19.58,8.34l41.73,0.76c-2.53,5.69-7.06,10.1-14.2,13.11c-51.94-14.69-33.64,8.23-60.93,6.44
	c0.39-1.3,3.49-2.59,3.49-4.64l-0.06-61.42c-5.47-4.11-10.48-9.43-16.85-12.27L0.01,214.29v-12.05L512.81,202.23z"/>
<path class="st0" d="M1014.3,625.68c-4.18-37.51-2.33-74.88-2.1-113.44l0.81-137.3l2.82,130.82
	C1016.68,544.9,1010.85,584.47,1014.3,625.68z"/>
<path class="st8" d="M1031.64,754.43l0.33-203.93L1031.64,754.43z"/>
<path class="st0" d="M1014.67,628.18c0.82,3.13,0.98,6.25-0.11,9.5C1013.39,635.22,1013.29,632.53,1014.67,628.18z"/>
<path class="st6" d="M686.97,1157.02l0.01,4.41c-0.62-0.37-1.88-0.03-2.6-0.26l-7.07-65.16
	C684.18,1116.56,683.17,1137.3,686.97,1157.02z"/>
<g>
</g>
<g>
</g>
<g>
</g>
<g>
</g>
<g>
</g>
<g>
</g>
<g>
</g>
<g>
</g>
<g>
</g>
<g>
</g>
<g>
</g>
<g>
</g>
<g>
</g>
<g>
</g>
<g>
</g>
</svg>
