<?xml version='1.0' encoding='UTF-8'?>
<svg xmlns="http://www.w3.org/2000/svg" id="Layer_1" viewBox="0 131.6 1200 1537.7" xml:space="preserve" width="1200" height="1800">
<style type="text/css">
      .cls-1 {
        fill: #0f4638;
      }

      .cls-2 {
        fill: #7b2621;
      }

      .cls-3 {
        fill: #933328;
      }

      .cls-4 {
        fill: #9b14d4;
      }

      .cls-5 {
        fill: #475f3b;
      }

      .cls-6 {
        fill: #c5271e;
      }

      .cls-7 {
        fill: #7d4a86;
      }

      .cls-8 {
        fill: #a94e33;
      }

      .cls-9 {
        fill: #fc344c;
      }

      .cls-10 {
        fill: #ec6137;
      }

      .cls-11 {
        fill: #cb6f4c;
      }

      .cls-12 {
        fill: #ef8017;
      }

      .cls-13 {
        fill: #b09283;
      }

      .cls-14 {
        fill: #f2a364;
      }

      .cls-15 {
        fill: #f8c28d;
      }

      .cls-16 {
        fill: #ffffff;
      }

    </style>
<path class="cls-6" d="M581.91,451.17l1.08-1.92c5.48,0.01,10.96,0.01,16.44,0.02l1.35,1.92c0-0.75,0.18-1.9,0.64-1.92  c11.46-0.61,25.89-0.66,37.33-0.09c3.44-0.65,5.55-0.02,6.35,1.9c1.24-0.7,1.64-0.21,0.86,0.95l1.96,0.77l4.99,113.42  c13.87-0.36,27.74-0.62,41.63-0.77c1.65,0.89,2.51,2.2,3.06,3.58c0.29,0.72-5.48,13.1-8.06,12.6c1.27,0.56,2.26,1.59,2.96,3.11  l24.48,30.01l0.14,2.13l2.8,1c0.92,0.58,14.5,15.26,14.42,16.34c-0.06,0.83-0.19,1.6-0.74,2.28l2.55,0.58  c8.51,10.16,16.58,20.64,24.19,31.44l3.98,3.44c2.38,0.59,3.89,1.66,4.53,3.22c18.17,10.4,36.73,21.99,54.06,34.04l-0.08,2.24  c0.32-0.29,0.63-0.52,0.92-0.5c2.12,0.12,32.06,19.23,36.15,22.09c7.86,5.49,11.07,9.48,7.35,19.38  c7.14,9.98,13.49,21.21,19.05,33.69l135.06,0.19c10.38,1.59,20.22,5.38,29.51,11.38l4.01,1.56c13.45-0.24,26.84,0.31,40.18,1.65  l103.87,36.68L1200,840v17.17l-0.66,1.92c-51.38-0.87-102.87-0.81-154.48,0.17c-3.01,0.29-4.45-0.64-4.29-2.78  c-2.58-1.17-2.88-7.36-0.23-8.55c-0.87-2.66-0.48-5.77,1.19-9.35c-2.12-3.32-3.35-7.05-3.68-11.2c-0.84-0.02-1.73-0.25-2.02-0.99  c-2.84-7.18-5.51-11.21-10.87-2.52c-1.37,6.81-2.12,13.77-2.27,20.87c-0.88,2.49-1.73,4.39-4.1,2.22c-2.13,2.59-0.68,3.46,1.97,4.56  c3.26-1.01,3.65,4.12,0.6,4.85l-0.66,1.92l-120.82-0.01l-4.4,1.06c-4.69,3.62-9.76,6.32-15.21,8.09  c45.71,0.06,91.32-0.06,136.83-0.36c2.87-0.36,4.28,0.5,4.22,2.6l1.92,0.88l0.15,70.43c-3.71,10.68-10.94,0.86-12.6-6.39  c-3.03-17.13-4.76-34.36-5.2-51.68c-3.08-8.18-6.73-2.01-7.8,3.86c-1.33,7.13-1.52,14.19-0.58,21.19l-0.53,30.67  c0.59,2.43,0.26,4.37-1,5.82l-0.67,1.92l-162.37,0.01c-7.75-2.99-9.51-14.32-1.3-18.55c0.84-2.68,1.12-5.67,0.85-8.96  c0.65-0.16,1.15-0.33,1.18-0.55c0.29-2.68,0.51-11.21,0.08-13.63c-0.55-0.14-0.86-0.62-0.93-1.46l-0.9,1.91  c-104.2-0.42-208.41-0.71-312.64-0.88l-1.14-1.92c-1.12,0.29-2.22,0.26-2.08-1.02c-0.23,0.84-0.53,0.81-0.91-0.03  c-1.26-1.04-2.57-1.61-3.95-1.7l-125.28,0.81l-1.17-1.91l-1.96-0.96c0,0-0.45-6.36-1.35-19.08c-0.04-2.35,0.09-4.49,1.96-6.18  c1.25-1.13,10.62-5.19,11.72-2.77l1.17-1.92l73.09,0.16l-12.23-7.21c-1.57-1.74-2.14-3.23,0.23-4.3l0.67-1.92l154.78-0.03  c6.77,0.96,10.38-1.25,10.82-6.61l1.37-1.89c13.28-4.19,26.7-7.94,40.24-11.24c14.95-5.03,28.07-13.58,32.96-29.25  c-93.32,0.67-186.45,1.8-279.4,3.4c10.93,7.6,21.78,15.17,32.54,22.72c2.35,3.74,4.62,12.09,1.21,15.13  c-0.75,1.95-2.74,2.34-5.96,1.16l-63.55,0.01l-1.16-1.92c-2.97-0.79-3.34-7.57-0.36-8.51c0.18-0.91-0.05-1.67-0.71-2.28l-1.97-1.36  c-0.81-16.23-6.2-55.44-25.55-58.82c-28.03-4.88-35.1,48.61-35.64,66.98c0,0-0.76,1.36-2.27,4.09l-0.68,1.92L1.18,846.72L0,844.8  v-43.2l0.85-1.91c10.31,0.55,20.57,0.37,30.8-0.53c38.75-15.52,77.9-30.32,117.46-44.41c18.33-5.3,36.53-10.58,54.61-15.86  l2.45,1.62l0.92-1.92c87.92,0.6,175.7,0.71,263.33,0.32c9.3-6.86,18.59-13.74,27.86-20.61c6.2-12.97,11.91-25.94,17.12-38.91  l-198.51,0.08c-3.1,0.21-4.71-0.76-4.83-2.91c-0.83-2.33,0.89-4.19,5.14-5.59c4.07-6.55,7.18-13.84,9.33-21.85  c4.17-9.05,8.53-13.28,18.79-13.55l-0.27-1.31c1.86-1.06,4.4-1.56,7.61-1.48c1.53-3.56,3.4-5.45,5.61-5.66l2.68-1.51  c59.19,1.28,118.35,2.3,177.5,3.07l1.06,2.03c2.01,0.34,2.22,1.5,1.43,3.26L522,674.63l36.75,0.28l1.11,1.93  c1.39,1.07,1.39,1.07,0,0l-1.32-1.62c0,0,5.77-11.99,17.31-35.97c0.65-1.99,2.17-3.21,4.15-3.89l2.07-1.98  c7.61,0.28,15.08-0.3,22.42-1.74c6.41-3.99,12.54-8.45,18.41-13.37c-11.27-0.49-22.68-1.01-34.23-1.56  c-0.68,3.35-2.55,9.96-4.69,12.66c-0.86,1.09-1.45,1.67-3.12,1.37c-0.21,0.75-0.56,1.87-1.14,1.9c-8.17,0.45-28.8,0.47-36.2-0.89  l-1.23-1.96c-1.14-1.46-1.71-2.19-1.71-2.19c1.79-3.83,3.5-7.6,5.14-11.32l-108.49-1.06c-2.6,0.23-4.05-0.67-4.35-2.7  c-1.77-2.59-1.01-5.75,2.29-9.49c3.25-5,7.26-8.55,12.04-10.65c0.27-2.02,1.87-3.7,4.78-5.04c5.92-6.98,12.65-11.16,20.19-12.54  l0.93,2.07c1.45,0.21,2.87,0.02,4.26-0.56c0.46-0.83,1.02-0.91,1.69-0.24c2.2-1.19,4.91-1.42,8.13-0.67l77.92,0.75l1.13,1.93  l1.45,1.42l-15.31,32.66l34.18,0.83c4.02-9.07,7.8-18.35,11.34-27.84l2.3-0.6c0.67-1.45,1.62-2.51,3.21-2.44l28.88-1.22  c1.55-5.6,4.83-8.73,10.39-10.35l-39.5-0.1l-1.13-1.92c-0.1,0.75-0.35,1.86-0.89,1.91c-3.83,0.35-13.2,0.18-17.05-0.28l-1.35-1.94  c-11.91,0.48-24.03,0.28-36.34-0.59l-32.3,0.48c0,0-1.79-0.64-5.37-1.91l-1.95-2.89c1.7-25.19,3.02-50.45,3.97-75.8l1.95-3.56  c-2.86-1.82-2.26-9.59,0.23-11.63c1.35-2.21,3.75-3.18,7.2-2.91c0,0,9.73-0.27,29.18-0.81c0.54-1.66,1.09-3.29,1.66-4.88  c-3.85-0.77-1.77-7.25,1.87-8.07c0.91-4.56,2.25-5.46,6.74-6.21c3.98-0.66,16.56-0.51,20.91-0.17L581.91,451.17z" />
<path class="cls-16" d="M725.82,1671.7l0.92-1.92c157.33,0.06,314.69,0.11,472.06,0.17l1.2,1.92V1800H0v-127.68l0.92-1.92  c238.67-0.2,477.6-0.41,716.79-0.61L725.82,1671.7z" />
<path class="cls-10" d="M1200,328.21v18.38l-1.05,1.96c-250.5,4.8-501.02,9.12-751.58,12.97l-33.93,1.46  c138.51,10.46,275.9,19.7,414.48,22.22c21.41,2.01,42.56,3.85,64.27,1.81c14.29,1.92,28.06,2.77,42.67,1.92  c13.64,1.94,25.84,1.92,39.54-0.03c16.46,0.33,32.58,0.47,48.85-1.04c38.84,1.4,77.66,1.42,116.48,0.05  c19.12,0.08,38.26,0.3,57.43,0.66l2.83,1.3v99.88l-2.2,1.14l-87.35-0.35c-9.93-1.64-18.52-1.13-28.33,0.78  c-12.58-1.41-26-2.82-38.46-0.16c0,0-40.01-0.25-120.03-0.75c-2.14-0.38-4.21-1.54-4.96-3.64l-2-1.04l-2.07-9.38  c-4.82-0.05-9.69,0.49-14.59,1.62c-6.16,0.24-8.16-13.13-8.69-18.15l1.57-1.75l1.89-2.26c59.04,0.18,117.67-0.65,175.9-2.49  c-61.45-6.41-122.86-11.19-184.24-14.32l-1.23-2.01l-4.75,1.67c-15.59,0.14-31.12,0.53-46.6,1.19l-2.42-1.14  c-2.78,2.93-10.47,2.32-14.62,1.7c-3.34-0.5-5.32-2.12-7.44-4.6c-2.08,2.51-3.67,2.88-4.79,1.1l-1.23,0.37  c-2.02-2.29-4.91-2.56-8.68-0.81l-1.92-1.44c-2.18,2.82-5.86,3.96-11.07,3.4l-44.23,0.33l-1.14-1.91c-0.84,0.05-0.84-0.25-0.13-0.85  c-1.13-0.11-1.14-1.36-0.9-2.27c-2.75-0.52-2.74-3.39-0.3-4.75c-0.55-1.36-1.5-1.99-2.84-1.88l-11.4,0.16  c-0.2,0.75-0.49,1.84-1.09,1.93c-2.66,0.42-18.02,0.65-20.4,0.21l-1.41-1.91c-1.16,0.63-2.53,0.58-4.11-0.14l-46.77-0.32l0.03,22.65  l-1.92,1.41l-44.32,0.11c-1.63-0.36-2.22-1.58-1.75-3.67c-4.93-0.89-9.89-1.34-14.91-1.35c0.11,2.55-0.63,4.21-2.22,5l-22.22,0.18  c-1.54,0.01-3.05,0.56-3.74,1.29c-0.87,0.93-0.67,2.57-1.42,3.91c-0.72,1.29-2.97,1.27-3.13,2.22c-0.26,1.56-0.73,3.56-0.41,4.93  c-0.01,1.96-1.42,2.87-4.23,2.74l-31.97,0.24c0.18,2.72-0.43,4.59-1.83,5.62c0.5,3.9-0.17,7.77-0.23,11.63  c-3.93,2.89-8.97,3.96-15.12,3.22c-42.97-1.49-85.41-2.45-128.02-0.3l-197.65,0.31l-20.53-1.63c-13.18,1.12-26.32,1.54-39.41,1.28  c-4.09-1.18-6.24-0.92-10.34,0.23c-3.56-1.6-7.07-1.7-10.52-0.31l-42.04,0.52c-2.88-0.95-5.82-1.58-8.82-1.91l-38.86,0.4L0,483.84  v-124.8l2.61-1.81c46.37-1.86,92.64-3.98,138.81-6.34c159.32-4.72,318.69-9.57,478.1-14.57c-13.22-0.75-7.47-12.37,2.23-10.27  c6.77-3.81,14.89-3.9,22.26-2.02c22.59-1.2,45.36-1.3,68.3-0.27l30.95-0.46c30.99,0.9,61.93,0.54,92.83-1.08  c19.83,1.61,39.67,2.65,59.53,3.14c0,0,29.15-0.63,87.46-1.88c15.08-3.7,29.51-3.24,43.31,1.37c17.2,0.53,34.21-0.13,51.01-1.99  l11.48,1.11c36.9,0.17,73.48,0.98,109.74,2.41L1200,328.21z" />
<path class="cls-9" d="M1148.92,265.03c1.5-0.46,2.6-0.24,3.28,0.65c0.39-3.07,9.51-2.49,10.22,0.38c1.1-0.41,2.74-0.53,3.17,0.69  c4.49-3.26,15.08-1.79,18.87,2.17c0.83-0.52,1.98-0.23,2.24,0.83c0.56-1.77,1.3-1.72,1.6,0.12c0.9-0.46,1.95-0.24,2.22,0.77  c0.26-2.89,6.35-2.25,6.61,0.55c5.76,4.02-4.09,5.67-9.01,6.2c-20.96,1.71-41.73,3.18-62.33,4.41  c-128.97,4.43-257.7,8.56-386.19,12.38c27.71,3.56,56.36,2.71,84.67,1.34c78.41,1.93,156.89,2.43,235.45,1.51l9.82-1.11l116.73-0.55  c4.19-0.53,8.39-0.82,12.59-0.87l1.13,2.11v31.59c-3.09,0.35-6.21-0.45-9.73-0.53l-61.54-1.31c-13.28-0.28-25.85-0.36-39.19-0.47  c-5.7-0.05-11.5-2.05-17.1-0.61c-3.66,0.94-6.99,1.27-10.73,1.22l-9.46-0.12c-8.87-0.11-17.23,0.76-25.94,0.37  c-3.92-0.17-5.76-2.11-9.05-2.86c-6.7-1.53-15.59-1.32-22.47-0.14c-6.72,1.15-11.66,2.34-18.51,1.17c3.1,0.53-74.39,1.85-74.62,1.88  c-5.29,0.75-9.64,0.49-14.75-0.13c-12.82-1.54-29.06,0.97-47.77-2.28c-5.36-0.93-10.8,0.75-16.03,0.81l-33.99,0.4l-45.85-0.41  l-9.83,0.08c-9.67,0.08-19.21,0.76-28.82,0.12c-5.48-0.37-10.14-0.82-15.5-0.48c-7.4,0.46-14.88-1.35-22.41,0.18  c-4.74,0.96-21.75,1.14-23.06,0.81c-7.45-1.87-14.9-1.6-20.93,1.79c-1.94,1.09-5.91-1.86-7.44,1.71c-0.41,0.96-2.61,0.73-1.85,2.39  c2.29,5.01,19.89,1.26,24.2,2.8c4.32,1.54,19.35-1.43,18.27,2.95l-43.98,0.83l-33.41,1.01l-24.22,0.84l-30.7,0.99l-36.27,1.09  l-25.17,0.85l-23.85,0.97l-37.41,1l-37.59,0.97l-22.74,0.9l-44.31,1.05l-36.64,0.96l-28.63,0.94l-25.95,0.94l-35.49,1.02  l-28.04,0.89l-39.13,2.02l-23.59,0.8l-37.7,2.14l-22.59,0.74c-6.4,0.21-12.5,0.93-18.49,0.53v-64.32l2.29-2.28  c111.87-4.56,224.24-9.71,337.13-15.44l13.48-1.57c-114.08-6.03-228.84-10.14-344.28-12.34c0,0-2.87-0.66-8.62-1.97v-92.16  c1-0.5,2.01-0.95,3.07-1.29c1.04-0.33,2.05-0.63,3.07-0.65c8.31-0.12,16.64,0.05,24.95,0.24c204.33,8.48,408.74,14.78,613,20.98  c1.76,0.14,5.42,0.59,5.62,2.42c0.35,3.19-8.89,3.75-11.46,3.76c-169.35,5.22-338.77,10.99-508.25,17.33l-61,3.92  c39.51,4.05,78.69,6.87,117.55,8.46c224.36,8.34,448.54,16.65,672.55,24.92c95.75,3.95,191.89,8.52,288.41,13.73L1148.92,265.03z" />
<path class="cls-4" d="M1200,128.9v142.17c-0.05,2.82-1.8,2.65-2.85,0.13l-6.61-0.55c-0.69-0.48-1.43-0.73-2.22-0.77  c-0.53-0.08-1.08-0.01-1.6-0.12c-0.69-0.5-1.44-0.77-2.24-0.83c-6.24-1.2-12.51-2.25-18.87-2.17c-0.83-0.69-1.89-0.92-3.17-0.69  l-10.22-0.38c-1.1-0.74-1.68-0.72-3.28-0.65c-4.9-1.19-10.69-0.9-16.12-1.19l-17.32-0.94c-13.58-0.74-26.55-1.72-40-2.24  l-24.88-0.95l-35.12-2.01l-23.22-0.89L965,255.93l-38.01-2.04l-23.28-0.85l-44.7-2.06l-28.2-0.85l-29.02-0.94l-41.85-2.01  l-31.9-0.88l-44.87-2.05l-26.12-0.86l-29.02-0.93l-48.37-2.08l-33.02-0.87l-27.34-0.71l-44.57-2.19l-28.91-0.94l-48.55-1.95  l-37.1-0.91l-75.38-3.07l-28.28-0.92l-41.87-1.96l-28.18-0.8l-40.19-2.12c-28.85-1.52-57.04-3.25-86.39-7.52  c1.02-3.21,26.43-3.92,30.46-4.17l39.57-2.41l23.33-0.87l56.01-2.45c6.11-0.27,11.79-0.28,17.76-0.5l26.06-0.94l16.38-0.76  l31.46-1.14l39.53-0.92l53.56-1.9l36.48-1.09l35.54-0.92l57.54-1.95l31.91-0.86l50.75-1.91l24.31-0.9  c6.15-0.23,11.86,0.02,18.34-1.77c-8.92-1.82-16.9-1.23-25.48-1.51l-29.6-0.98l-38.3-1.15l-25.2-0.78l-27.85-0.82l-42.06-1.14  l-35.51-1.11l-20.14-0.73l-29.96-0.86l-37.41-1.1l-45.17-1.79l-79.58-2.97l-31.73-0.93l-29.81-1.05l-39.12-1.89l-28.28-0.87  l-49.45-1.99c-11.7-0.47-22.95-0.36-34.21-0.34v-40.32L1200,128.9z" />
<path class="cls-11" d="M995.47,944.45c2.07,0.2,3.07,2.27,2.98,6.23c2.55,8.76,9.59,13.74,21.11,14.95l2.16,1.41  c0.12,18.77,0.18,28.16,0.18,28.16c-1.77,1.35-1.79,3.17-0.08,5.45c0.22,12,0.56,23.99,1.02,35.96c5.05,0.21,10.09,0.06,15.11-0.44  c0.47-16.59,1.33-33.16,2.59-49.72c8.91-2.51,16.46-6.57,22.64-12.18c2.71-9.13,4.11-18.73,4.2-28.81l2.15-0.95l0.67-1.92  c42.87,0.01,85.74,0.02,128.62,0.03l1.18,1.92v362.01l-0.99,1.87c-52.47-2.72-104.84-5.55-157.11-8.49l-1.28-2.01l-2.05-3.94  l-3.27-42.21c-4.39-42.06-27.86-40.76-33.86,0.77l-2.22,35.34l-2,1.29l-1.23,1.72c-76.23-14.42-152.58-29.46-229.05-45.11  c-1.3-1.5-1.33-1.76-1.03-3.74c0.22-1.46,16.85-22.56,18.14-23.28c36.8-6.35,73.83-12.19,111.08-17.53l1.44,1.72  c2.22-0.06,3.69,1.57,4.42,4.91l0.92,30.45c4.12,0.7,8.35,0.73,12.7,0.1c1.31-12.6,1.86-25.14,1.65-37.64  c-0.07-1.65,0.71-2.33,2.44-2.53c1.27-1.88,3.53-2.88,6.78-3.01c49.52-7.07,100.65-16.88,148.83-30.14  c3.42-0.94,25.8-7.16,26.85-8.09c1.69-1.5,0.87-9.1-0.37-11.35c-0.88-1.6-2.32-3.37-3.88-4.34c-14.34-8.97-29.55-13.74-46.02-17.91  c-42.97-10.29-85.8-19.84-128.49-28.64l-0.74-2.12c-4.18,2.74-5.04-0.55-5.86-4.42c0.28-8.75,0.07-17.5-0.62-26.24  c-2.23-15.82-10.58-11.16-11.99,1.57c0.94,5.48,0.27,10.28-2.01,14.39c1.66,4.02,1.43,6.93-0.67,8.71c-1.64,2.18-4.49,2.6-8.56,1.28  l-147.21-27.59c-3.09-2.09-3.47-5.51-1.16-10.27c0.02-4.45,0.95-17.04,5.06-19.29c0.66-0.36,1.28-0.7,2.03-0.82  c36.44-4.51,72.87-8.58,109.3-12.22c45.48-2.68,91.35-6.11,137.61-10.28c2.03-0.64-26.06-7.46-29.18-8.07  c-64.14-12.69-127.76-19.41-191.6-24.63c-10.24-0.74-14.5-1.24-12.68-12.58l1.92-1.28l0.04-2.11l22.59-9.73  c0.29-2.89,1.26-5.32,2.92-7.26l22.21-8.92c-2.87-1.24-5.93-2.01-9.01-2.54c-14.55-2.47-30.02-4.03-44.89-5.23  c-39.88-3.22-80.13-5.12-119.06-5.88l-119.34-2.59c-3.02,0.2-5.28-0.67-6.76-2.6c-2.99-0.37-3.1-7.85-0.29-8.66  c-0.32-1.84,0.42-1.9,1.1-0.09l2.41-0.85c113.37,0.2,170.06,0.29,170.06,0.29c47.82,0.79,95.58,3.52,142.32,11.86l0.1-12l1.91-1.35  c0.75,0.01,1.67,0.06,1.8,0.74c0.26,1.38-0.36,17.64-0.34,22.29c0.02,3.66-4.67,4.44-5.8,7.23c-1.45,3.58,1.22,8.1,3.28,10.97  L995.47,944.45z" />
<path class="cls-2" d="M309.91,1598.24c0.76-2.45,1.62-2.18,1.91,0.35l1.94,4.26c0.2,12.17,1.38,24.43,4.4,36.22  c0.4,1.58,2.06,2.47,3.6,2.42c18.78,0.22,37.51-0.06,56.2-0.86c1.82-0.36,2.69-1.64,2.96-3.45c2-13.4,3.48-26.83,3.93-40.38  c0,0,0.73-1.65,2.18-4.95l0.96-1.94l13.01-0.45c28.39-3.03,56.94-5.17,85.23-2.38c19.63,1.94,27.74,7.24,42.64,19.74  c8.99,6.23,18.8,12.08,29.84,13.34l1.83,2.04c10.44,1.88,21.1,4.27,32.01,7.18c43.34,8.17,88.47,17.25,128.07,37.57  c1,0.51,1.88,1.27,2.76,2.07c0.89,0.81,1.68,1.73,2.45,2.67L0,1672.32v-63.36c2.33-2.82,8.58-3.19,11.36-0.86l4.09-0.28  c-0.32-2.86,4.6-3.33,5.52-0.68c3,0.31,5.34,0,7.02-0.93c0.16-0.76,0.4-1.87,1-1.98c2.83-0.55,18.65-1.59,21.11-1.23l1.5,1.84  c2.76-0.39,5.45-0.89,8.08-1.49c0.77-2.82,6.74-3.34,7.31-0.19c3.62,0.26,6.83-0.17,9.61-1.29l-0.75-1.43  c-1.63,1.13-6.57,1.06-8.92,0.83c-1.4-0.14-2.06-0.43-2.45-2.04c-0.8-0.69-1.2-0.76-2.28-0.77c-0.7,2.81-3.4,2.29-4.41-0.29  c-1.5-0.51-2.93-0.97-4.29-1.38c-1.63,3.32-7.09,1.87-8.24-1.36l-2.32-1.54c-2,2.79-6,0.9-6.34-2.22l-2.24-1.89  c-1.39,1.4-2.13,0.97-1.71-0.93l-2.06-1.95c-2.4,2.25-5.35-1.77-6.92-3.9c-7.98-10.89-4.26-23.78,6.05-31.71  c3.11-2.39,10.29-7.12,13.26-4.02c1.48-0.48,2.9-0.96,4.25-1.44c1.3-2.66,7.17-2.91,8.26,0.01c1.45,0.46,2.87,0.94,4.25,1.43  c1.05-3.04,4.89-1.79,5.41,1.23l2.28,1.79c1.46-3.15,5.29-0.62,7.56,0.91c4.72,3.18,12.46,13.76,15.05,18.96l-0.77,2.25l2,2.03  c2.44-1.31,3.09-0.65,1.83,1.82l2.12,1.91c2.3-0.57,4.89,0.33,7.76,2.68c5.07,2.22,19.71,6.89,12.47-3.05  c-14.84-8.8-37.26-38.3-14.64-50.44c16.96-9.1,36.35,7.66,41.92,23.41l-1.31,2.25c0.41,0.72,0.95,1.49,1.62,2.32  c2.72,0.47,2.85,1.62,0.29,2.67l0.82,0.98c0.88,0.12,0.88,0.4,0.07,0.82c0.78,1.74,1.67,3.46,2.67,5.14l2.2,0.61  c1.63,5.4,2.52,6.86,2.68,4.38l1.97-1.12c0.69-0.98,0.98-2.38,0.87-4.2c-0.73-0.1-1.77-0.26-1.92-0.82c-0.53-2-0.7-10.86,1.92-11.24  c0.29-2.56,0.02-4.93-0.8-7.11c-1.66-0.33-2.69-1.6-3.08-3.79c-12.54-15.47-29.63-37.12-18.52-58.09  c4.81-9.07,14.17-12.92,24.18-11.75c23.27,2.72,31.15,30.86,31.19,50.83c-2.21,13.68-1.9,26.99,0.95,39.93  c1.66-29.27,14.01-80.22,53.5-67.61c23.98,7.66,26.27,33.95,8.65,50.01c-7.96,7.8-15.59,16-22.91,24.47  c-2.86,3.31-5.69,7.35-6.18,11.63c10.47-9.33,21.74-17.65,33.79-24.96c26.56-14.8,51.82,16.12,22.64,34.02l-12.3,5.84l42.96,0.35  L309.91,1598.24z" />
<path class="cls-12" d="M512.72,483.93c-0.11,7.14,0.08,14.32-0.43,21.94l-3.05,45.49c-0.35,5.2-0.61,10.03-0.49,14.82  c-0.41,2.33-2.47,3.48-6.16,3.45c-8.83-0.93-15.9,1.16-21.21,6.27l-2.31,0.15c-0.55,0.16-1.12,0.24-1.69,0.24  c-1.14,0.83-2.56,1.02-4.26,0.56c-9.35-1.96-16.12,11.85-25.9,15.51l-3.19,1.79c-22.78,1.88-45.46,4.13-68.05,6.75  c-29.22-17.54-43.83-26.31-43.83-26.31c-3.04-3.01-5.13-6.71-6.28-11.09c-40.5,1.48-81.94,2.7-124.31,3.64  c-8.53-1.05-16.75-1.01-24.65,0.13c-0.5,5.94-2.88,10.4-7.16,13.38c-20.29,8.42-40.65,16.36-61.1,23.81  c-7.28,4.13-14.33,8.57-21.14,13.29c-28.26-0.57-56.67-1.72-85.25-3.45L0,612.48V483.84l33.59-0.26c5-0.04,9.79-0.89,14.36,1.77  l43.2-0.54c2.16-0.03,4.27-2.11,6.5-0.88c2.97,1.64,6.06,1.76,9.1-0.58c4.23,2.43,8.73,1.29,13.22,1.65  c13.95,1.1,21.5-2.62,38.33-0.97c4.71,0.46,8.62,1.22,13.66,1.22l113.1-0.12l84.51-0.19c4.81-0.01,8.95-0.7,13.62-0.75l62.2-0.66  c5.78-0.06,11.24,0.05,16.86,0.85c9.34,1.33,18.74-0.14,28.35,0.59C498.32,485.54,505.58,485.2,512.72,483.93z" />
<path class="cls-15" d="M210.36,1238.39c2.9,2.58,3.25,10.21,3.35,14.46c0.19,7.93-0.2,8.93-8.14,7.91c-5.18,0.46-3.46,4.52,0.11,6.66  l9.34,4.21c1.59,13.21,4.19,26.17,7.81,38.86l4.2,8.47l-0.24,3.06l4.53,5.85c0.87-0.01,0.94,0.28,0.24,0.84l5.4,5.61  c1.54-0.93,2.12-0.37,1.22,1.19l2.53,2.44c2.36-0.79,3.12-0.22,3.02,2.28l3.96,3.5c2.57-1.71,3.9-0.81,3.73,2.19  c1.51,1.13,3.15,2.1,4.91,2.91c1.59-1.96,2.42-1.17,2.59,1.21c1.14,0.53,2.2,1.11,3.18,1.73c1.85-1.65,2.56-1.25,2.61,1.13  c1.63,0.69,3.02,1.56,4.18,2.62c0.42-1.84,1.25-1.67,1.61,0.21c2.87,0.9,5.55,2.07,8.06,3.51c1.36-2.43,2.62-2.29,3.45,0.36  c1.23,0.38,2.31,0.9,3.25,1.55c0.49-1.83,1.23-1.8,1.61,0.05c1.89-0.34,3.27,0.01,4.14,1.03c1.49-2.27,2.34-2.2,3.5,0.24  c1.88,0.46,3.6,0.97,5.16,1.53c0.25-2.81,1.96-2.5,2.57,0.06c2.52-0.3,4.53,0.03,6.02,1c0-0.87,0.25-0.82,0.72,0.01  c3.16,1.58-0.47,4.98-2.85,5.81c1.61,1.91,1.33,2.19-1.07,1.71c-1.12,1.85-1.02,2.53,0.19,4.25c2.34-0.62,2.25-0.36,0.98,1.69  l1.99,1.97c1.38-1.25,1.88-0.72,0.86,0.88c0.21-0.02,0.39-0.02,0.46,0.08c1.33,1.54,0.57,35.34,0.43,40.48  c-0.01,0.22-0.46,0.43-1.03,0.64l-0.6,2.03c0,0-37.92,5.45-113.77,16.34c-6.45,5.33-13.66,7.67-21.87,10.21  c-55.81,17.26-114.23,29.9-171.55,37.95L0,1487.04v-227.52l0.48-1.98c69.49-6.98,138.99-13.96,208.5-20.94L210.36,1238.39z" />
<path class="cls-14" d="M1200,1306.55v320.59l-1.24,1.72l-68.86-13.3c-23.86,2.17-47.81,2.66-71.84,1.46  c-6.4,0.26-11.81-1.1-16.22-4.08c-0.76-0.08-1.9-0.36-1.92-0.9c-0.62-21.38-0.01-43.44,0.71-64.73c0.54-1.11,1.45-1.92,2.61-2.37  c27.92-4.53,53.91-16.31,53.67-48.97l2.84-25.72c4.98-2.14,5.8-3.14,2.46-3l-2.11-1.44c0.99-27.99-0.37-55.62-4.08-82.91  c-7.5-31.06-22.93-8.12-22.21,10.72l-3.2,61.18c-1.6,15.53-6.36,41.36-21.8,48.9c-2.98,1.46-7.27,3.52-8.96-0.45l0-146.75  c1.04-2.6,3.6-4.51,7.69-5.73c-3.8,0.37-6.24-0.73-7.34-3.28c-0.98-32.09-1.46-48.13-1.46-48.13l1.9-1.41l26.89,1.77l16.29,0.87  l24.02,1.03l39.39,2.07L1200,1306.55z" />
<path class="cls-8" d="M922.74,1608.79c0.19,2.19-0.91,3.85-3.31,5c-9.35,5.05-14.02,7.58-14.02,7.58  c1.59,0.37,20.62,0.51,21.62,0.09c3.3-1.4-0.45-7.09-2.29-8.55c-1.31-1.73-1.65-2.97,0.58-3.99c-2.02-0.33-1.28-2.43,0.93-2.37  c22.82-2.24,45.64-2.76,68.45-1.57l0.92,2.24l1.91,1.07c-0.48,13.5,0.27,26.87,2.23,40.12l38.95-0.1  c0.88-11.29,1.28-22.62,1.18-33.99l1.94-1.38c18.46,3.56,39.59,3.17,59.31,2.58c9.83-0.3,18.92-2.11,28.92-1.86l69.93,13.5v44.73  l-474.18-0.17c-36.06-18.48-75.76-29.86-116.15-36.97c-15.96-2.81-30.66-6.33-46.13-10.53c-1.36-0.37-2.34-1.2-3-1.99  c-2.45-1.37-1.18-2.21,1.11-3.06l45.66-6.22c35.06-2.19,72.59,0.79,107.77,5.15c3.73,0.46,7.31,1.69,10.82,2.98  c4.55-0.46,9.19-0.11,13.95,1.05c0.55,0.1-10.56-0.9-10.33-2.78c-14.39,0.55-26.35-17.32-16.86-30.09  c10.77-14.5,30.43-13.71,43.15-2.27c5.72,8.08,12.32,14.85,19.78,20.31c4.22,1.88,14.7,5.17,8.94-2.02  c-10.37-8.12-28.63-27.54-12.42-39.24c17.44-12.59,31.8,8.77,38.16,22.55l4.15,10.22c2.4-13.64,0.18-24.7-10.24-34.4  c-9.42-13.82-13.71-38.66,6.95-43.96c23.5-6.03,32.76,23.03,32.79,41.2c-1.6,9.61-1.48,19,0.35,28.16  c2.38-24.46,12.95-63.02,45.52-49.88c16.21,6.54,17.53,22.73,8.08,35.97c-10.21,9.71-18.83,20.04-25.86,30.99  c11.76-10.06,41.91-35.7,53.4-12.9C927.45,1598.04,928.06,1607.36,922.74,1608.79z" />
<path class="cls-7" d="M345.34,635.57c-3.52,2.42-8.55,2.83-11.87,6c-7.57,7.25-9.04,26.35-15.09,30.92  c-2.12,1.6-5.05,1.94-6.31,4.07l-1.39,1.94c-31.52,13.22-63.17,25.73-94.98,37.52c-2.81,0.87-5.52,1.22-8.12,1.05l1.07,1.58  c0.23,1.77,0.37,20.06-0.3,20.86c-0.56,0.67-1.33,0.96-2.19,1.01c-9.36,0.87-18.37,5.91-27.98,8.03  c-16.96,3.75-32.59,9.25-48.75,15.21L98.5,775.16l-64.8,25.32c-5.27,2.06-10.78,1.38-16.36,1.32L0,801.6V656.64l1.01-2.4  l36.31-12.87c61.18,1.22,122.12,2.77,182.82,4.66l32.51-15.35c30.68,0.16,61.33,1.04,91.95,2.63  C345.21,633.41,345.37,634.69,345.34,635.57z" />
<path class="cls-2" d="M1200,701.59V840l-99.79-35.26c-3.79-1.34-7.54-2.97-11.57-3.03l-33.41-0.5c-5.29-0.08-21.24-12.96-33.89-12.98  l-136.22-0.19c-5.54-13.62-11.95-23.09-20.11-35.35c2.25-4.31,2.71-10.09-0.62-13.94c-3.4-3.93-35.97-21.55-41.56-27.28  c-1.49-2.14-0.23-3.04,2.13-3.28c124.77-3.4,249.2-6.68,373.85-8.5L1200,701.59z" />
<path class="cls-14" d="M308.96,1422.57l1.03,0.29c0.19,17.41,0.07,34.82-0.37,52.23l-7.46,1.13c0.64,1.92-0.54,2.91-3.54,2.99  c0.23,0.59,0.21,1.35-0.05,2.27c2.21,0.2,5.35,3.27,4.61,5.57l4.24,2.85c1.59-2.21,2.3-1.69,1.67,0.95c1.47,0.16,1.5,2.5,0.17,3.07  l1.92,0.88c0,13.29,0,26.58,0,39.87l-1.92,1.15c0.58,0.03,0.89,0.3,0.89,0.85c-0.07,9.43-0.06,18.99-0.03,28.31l1.66,1.86l0.48,13.3  l-1.92,1.7c1.01,3.79,1.35,11.63,0.55,15.78c-0.05,0.25-0.46,0.44-0.98,0.6c-0.5-0.09-47.84-0.33-52.72-0.5l18.01-8.39  c5.73-2.67,11.35-6.8,13.2-13.35c3-10.65-5-20.79-15.9-21.72c-5.98-0.51-11.73,0.98-17.15,3.99c-11.62,6.45-21.41,15.15-31.57,23.65  c-0.74,0.62-1.82,1.03-2.46,0.92c-3.94-0.69,0.29-8.57,2.42-11.4c6.61-8.78,14.11-16.27,21.87-24.06c4.68-4.7,9.32-9.52,12.15-15.35  c6.53-13.47,0.55-27.73-12.5-33.75c-14.95-6.9-31.2-2.26-40.27,11.51c-10.53,15.98-11.8,33.46-14.5,52.52  c-0.25,1.78-0.29,3.78-2.77,4.56c-10.47-29.95,6.91-43.03-9.49-76.65c-5.9-12.08-18.98-19.59-32.36-15.66  c-9.44,2.77-14.29,11.23-14.86,20.87c-0.79,13.16,4.87,25.3,13.67,35.14c4.08,4.56,8.47,9.03,9.13,14.86  c0.95,2.11,1.21,4.48,0.8,7.11l0.01,12.06c0.34,1.89,0.05,3.29-0.87,4.2c-0.06,1.96-0.08,4.24-2.28,6.05c-2.59-3-3.53-6.6-4.57-9.92  c-1.02-1.47-1.91-3.19-2.67-5.14c-0.03-0.27,0-0.55-0.07-0.82l-0.82-0.98c-0.02-0.9-0.18-1.79-0.29-2.67  c-0.66-0.42-1.2-1.19-1.62-2.32c-1.28-4.92-4.5-9.18-7.63-13.63c-5.19-7.4-13.28-11.97-22.35-12.43  c-10.57-0.54-18.72,7.07-18.17,17.81c0.66,12.89,13.55,23.61,23.05,31.23c2.13,1.71,4.71,8.51,1.44,9.19  c-8.09,1.68-16.62-2.31-22.55-7.02l-2.12-1.91c-0.41-0.75-1.2-1.34-1.83-1.82c-0.74-0.46-1.4-1.13-2-2.03  c-6.1-8.53-12.26-21.35-21.84-22.12c-0.96-0.46-1.72-1.05-2.28-1.79c-1.82-0.36-3.53-1.3-5.41-1.23c-1.4-0.38-2.82-0.86-4.25-1.43  c-2.75-0.14-5.55,0.28-8.26-0.01c-1.33,0.55-2.75,1.03-4.25,1.44c-10.61,2.29-20.81,10.53-21.7,22.35  c-0.52,6.92,4.11,14.09,9.32,17.28c0.77,0.52,1.7,1.16,2.06,1.95c0.59,0.2,1.08,0.8,1.71,0.93l2.24,1.89  c2.2,0.57,4.04,2.17,6.34,2.22c1,0.34,1.77,0.85,2.32,1.54c2.8,0.34,5.41,1.87,8.24,1.36c1.53,0.42,2.96,0.88,4.29,1.38  c1.36-0.12,3.11,0.32,4.41,0.29c0.91-0.45,1.93-0.21,2.28,0.77c3.88,0.04,7.48,1.46,11.37,1.2c3.94,1.21,0.81,1.99-2.08,2.54  l-6.78,0.19c-2.15-0.72-5.06,0.63-7.31,0.19c-2.71,0.59-5.4,1.09-8.08,1.49l-23.62,1.37c-1.81,1-4.15,1.31-7.02,0.93l-5.52,0.68  l-4.09,0.28c-3.74,0.69-7.57,0.83-11.36,0.86v-121.92c3.47,0.54,6.77-0.34,10.66-0.96c52.01-8.3,122.37-23.2,171.81-40.19  c4.39-1.51,7.99-4.64,11.5-6.74c14.89-2.79,29.2-3.64,44.23-5.91L308.96,1422.57z" />
<path class="cls-8" d="M109.47,1029.9c2.55,1.63,1.04,3.05-1.25,4.17c1.34,0.51,2.43,1.3,3.28,2.37c0.9,15.29,6.86,20.62,22.03,23.62  c0.57,0.17,1.07,0.38,1.29,0.76c2.51,4.22,2.39,25.61-0.89,30.48c1.38,1.14,2.04,2.69,2.48,4.38c1.06,4.04,1.55,13.74-1.95,16.03  l-0.58,1.94l-73.23,2.61l70.05,5.86l4.54,2.03c1.56-0.18,2.1,0.4,2.09,1.76c4.8,0.45,9.6,0.41,14.39-0.12l1.79,1.04  c0.11-0.83,0.51-1.89,1.21-1.89c7.94,0.02,33.74,0.62,38.06,7.26c0.44,0.68-0.13,1.78-0.61,2.6l2.14,0.76  c-0.81,4.89,0.85,7.45,4.97,7.7l9.97,1.6l0.75,2.22c0.75,0.21,1.85,0.54,1.91,1.13c0.41,4.37,0.22,12.83-0.18,17.28  c0.6,3.13-0.07,5.12-1.98,5.95c-0.38,2.31-0.91,4.53-1.59,6.66c-10.75-2.3-16.93,2.78-23.54,10.29c-11.76,9.52-23.64,5.31-8.6-6.43  c11.75-13.65-4.68-21.17-12.99-4.8c-2,7.6-7.84,16.44-10.01,3.52c-1.18-7.05,1.06-10.67,5.97-15.32c3.58-5.48,7.77-17.38-1.22-19.89  c-13.23-3.7-16.04,21.36-12.8,30.05c-0.18,4.7-1.71,13.61-6.99,8.48c-0.94-6.81-2.46-13.46-4.55-19.94  c-6.27-14.19-28.6-7.38-19.4,6.36c4.4,4.65,8.57,9.48,12.53,14.49c2.54,3.27,2.62,5.67,0.24,7.2c-5.39-2.02-10.51-4.97-15.34-8.85  c-8.24-4.45-18.12-0.89-11.01,7.58l9.16,4.6c1.48,1.99,0.28,3.67-1.87,4.64c48.57-0.41,72.86-0.62,72.86-0.62  c8.98-1.32,17.92-3.01,26.8-5.06l2.56,1.65c2.73,1.99,2.88,8.76,0.04,10.67l-0.68,2c-69.05,7.27-138.17,13.68-207.38,19.24  L0,1225.92v-192c0.69-1.92,2.33-2.78,4.91-2.58l103.12-3.34L109.47,1029.9z" />
<path class="cls-9" d="M1200,346.58v43.28c-13.26-0.08-26.53-0.41-40.3,0.4c-8.37,0.49-16.57-1.08-24.93-0.13  c-4.31,0.49-7.99,0.79-12.61,0.77l-67.07-0.35c-5.48-0.03-10.12-0.38-15.67-0.48l-16.15-0.3c-3.4-0.06-25.04,1.94-29.9,1.4  c-8.78-0.98-23.75-0.53-32.08,0.84c-9.36,1.54-12.16-0.23-22.52-0.96c-7.93-0.56-15.9-0.34-23.81,0.16  c-5.38,0.34-9.68-1.11-14.75-1.71c-21.14-2.47-34.36,3.28-49.96-0.81c-5.68-1.49-11.74,0.13-17.56-1.02  c-5.12-1.02-10.4-0.5-15.71-0.46c-9.96,0.08-19.38-0.12-29.25-0.47l-31.79-1.14l-36.07-2.01l-21.55-0.87l-25.61-1.05l-40.97-2.34  l-17.59-0.68c-5.93-0.23-11.6-0.41-17.67-0.82l-93.48-6.24l-79.69-6.27c-8.58-0.67-16.54-0.1-24.98-2.34  c3.31-2.05,6.94-2.16,10.63-1.97c5.27,0.28,10.16-0.48,15.34-0.66l23.04-0.79l45.57-0.92l60.59-1.02l40.21-0.76l70.05-1.15  l71.05-1.07l55.87-0.91l54.58-0.88l98.02-1.16l68.19-1.04l52.8-0.93l42.06-0.86l57.57-1.05L1200,346.58z" />
<path class="cls-13" d="M447.21,592.38c-4.46,5.97-12.46,11-14.33,20.14c1.73,2.07-2.42,4.43-4.32,5.47  c-8.53,4.69-17.5,6.16-27.17,5.16l-24.86-4.47c-4.85,0.14-12.14,4.38-15.5,7.8l-2.73,0.62l-3.39,6.06c-1.82,3.26-7.37,0.88-9.57,2.4  c-0.12-0.97-19.83-1.56-22.77-1.62l-40.86-0.83l-29.18-0.56l-31.96,15.31c-5.54,0.46-10.65-0.38-16.09-0.51l-30.37-0.75l-43.15-1.11  l-26.71-0.78l-38.37-1.02c-9.56-0.25-18.74-0.42-28.31-0.46L0,656.64v-44.16c5.92-0.36,11.81,0.65,18.23,0.91l56.41,2.27  c4.85,0.2,11.29,2.13,15.45-1.34c6.69-5.58,13.23-10.06,21.56-13.16l39.09-14.56c5.85-2.18,11.42-4.43,17.01-7.06  c9.34-4.39,4.5-14.55,9.89-14.85c6.08-0.33,11.84-0.23,17.82,0.23c9.57,0.74,19.01,0.28,28.61-0.01l29.97-0.9l51.57-1.93  c7.23-0.27,14.25-0.77,21.6-0.34c1.87,4.5,2.85,9.4,7.08,12.06l12.32,7.76l29.7,17.54l24.96-2.93l34.93-3.4  C440.09,592.4,443.67,592.16,447.21,592.38z" />
<path class="cls-12" d="M1200,489.74v84.24c-2.71,2.49-6.45,3.52-11.24,3.09c-31.55-1.87-63.03-4.72-94.44-8.55l-40.69-2.36  c-20.59-5.56-40.78-12.18-60.57-19.85l-0.44-2.19c-2.52-0.28-3.4-2.47-2.62-6.57c2.66-7.52,1.12-10.67-4.59-9.44l-1.02-1.99  l-1.29,0.01c-0.98-2.22-1.56-4.7-1.75-7.46c-1.78,0.71-3.49,1.58-5.12,2.61c-0.62,2.66-1.4,2.74-2.54,0.27  c-1.23,1.04-3.18,1.24-4.33,0.03c-1.4,2.55-2.52,2.45-3.46-0.31c-2.26-1.09-4.61-1.95-7.07-2.61c-1.24,1.99-3.79,2.19-7.67,0.61  c-2.46,1.46-4.2,1.49-5.25,0.1l-2.24,1.96c1.46,1.22,0.89,1.81-0.86,0.88c-1.3,1.05-3.3,1.4-6.02,1.05  c-0.39,2.92-6.91,2.65-7.41-0.17c-1.28-0.75-3.26-1.02-5.94-0.83c-0.98-2.34-1.87-4.6-2.69-6.8c-2.74-1.13-2.56-3.34-0.02-4.59  c0.31-2.02,0.04-3.74-0.81-5.16c-2.88,0.13-2.94-4.74-0.28-5.38c0.16-0.92-0.08-1.69-0.72-2.32c-3.12-0.35-3.07-10.26-0.22-11.28  c1.76-0.95,3.37,1.72,5.17,1.75l60.1,0.72l60.6,0.01c6.38-2.49,12.79-1.16,19.13-1.11c4.92,0.04,9.38-0.49,14.55,0.85  c4.8,1.24,10.29-0.57,14.97-1.35c6.14-1.02,11.01,0.96,16.61,0.98l80.52,0.36C1193.96,488.98,1197.11,488.06,1200,489.74z" />
<path class="cls-3" d="M1168.15,666.89l1.96-1.34c9.56,5.31,19.25,10.28,29.09,14.91l0.79,2.17v18.97l-54.12,0.83l-28.07,0.65  l-48.75,1.11l-48.18,1l-37.26,0.83l-41.3,1.01l-54.74,1.05l-61.26,1.97c-1.55,0.05-3.07,0.15-3.49,1.44l-53.06-34.42  c-0.77-0.5-0.77-1.49-0.92-1.85c0.07-0.76,0.32-1.91,0.85-1.94c22.94-1.06,47.21-1.26,70.21-1.35c3.06-0.72,5.66-0.41,7.79,0.93  l0.79-1.01c10.91,6.59,21.73,13.78,32.45,21.57l-4.9-18.39l1.5-1.83l0.61-1.93c94.82-1.87,189.61-3.91,284.36-6.11L1168.15,666.89z" />
<path class="cls-6" d="M136.11,928.28c1.32,0.73,1.98,1.09,1.98,1.09c-0.88,18.97-1.21,38.01-0.99,57.12l-1.93,1.14  c-0.67,0.94-0.9,2.34-0.68,4.21c0.75,0.09,1.88,0.33,1.92,0.86c0.22,2.72,0.67,23.28-0.02,24.28c-0.49,0.7-1.07,1.19-1.92,1.38  c-0.77,2-0.4,4.08,0.04,6.11c6.09,12.05-1.18,24.62-9.69,6.54c-3.42-14.77-4.79-30.04-4.12-45.83c-0.6-4.79-3.35-10.34-7.26-4.56  l-2.22,12.52c-2.36,2.73-2.51,4.75-0.45,6.08c0.79,9.15,0.98,18.33,0.57,27.52l-1.86,3.14l-26.69,0.6L62,1031.49l-25.92,0.96  L5,1033.26c-1.89,0.05-3.5,0.67-5,0.66v-105.6l0.67-1.92c0,0,44.75-0.01,134.25-0.04L136.11,928.28z" />
<path class="cls-7" d="M992.62,544.12l41.39,14.67c9.45,3.35,18.34,6.26,28.5,5.95l31.98,1.87l53.66,5.57l28.74,2.77  c8.06,0.78,15.64,0.07,23.12-0.98v108.64c-8.94-1.81-23.17-12.95-31.85-15.74c-5.17-1.79-14.35-5.07-18.76-7.98  c-0.72-0.47-1.01-1.41-1.25-2.24c-2.5-0.08-4.99-1.27-7.45-3.56l-10.08-10.17c-2.33-1.35-4.18-2.97-5.56-4.85  c-13.28-4.76-26.59-9.5-39.92-14.22l-1.14-1.89c-3.82-1-7.62-2.2-11.39-3.61l-0.13-2.24l-1.88-0.97l-6.89-13.34l-27.37-6  c-7.52-5.37-14.07-11.93-19.65-19.66l0.81-2.13c-1.33-1.86-1.99-2.79-1.99-2.79c-7.48-5.56-16.4-8.47-26.77-8.72l-0.94-1.95  c-2.84,1.02-2.93-12.15-2.66-12.81c0.29-0.72,1.11-1.1,1.84-1.42C986.95,543.78,991.02,541.58,992.62,544.12z" />
<path class="cls-6" d="M1200,869.66v74.88l-130.47-0.04l-2.02-1.61c0.5-10.3-0.55-20.16-3.16-29.58c-4.51-1.43-6.94,2.17-7.28,10.81  l-0.27,12.69c0.44,4.17-0.53,6.8-2.92,7.89c-0.1,0.74-0.28,1.82-0.82,1.92c-2.76,0.5-11.47,0.84-12.41-1.89  c-0.75-0.09-1.89-0.34-1.92-0.86c-0.21-3.38-0.22-26.95,0.63-28.15c8.3-4.15,12.45-8.1,13.68-17.46l0.04-27.22l1.92-1.37  c-0.15-2.52,2.17-3.25,6.96-2.2l136.84,0.27L1200,869.66z" />
<path class="cls-6" d="M312.96,869.78l1.82,1.66c0.77,7.12-0.16,13.56-2.8,19.34c-9.2-1.72-12.78,0.03-10.75,5.26l-1.63,1.6  c1.97,2.58-0.91,3.2-3.24,3.64L1.42,903.34L0,901.44v-30.72l0.91-1.92c102.87,0.28,205.63-0.06,308.3-1.02  C309.21,867.77,310.46,868.44,312.96,869.78z" />
<path class="cls-3" d="M311.07,926.18c0.19,0.96,0.23,2-0.8,2.41l-0.03,0.8l-3.79,1.84c-49.4,0.29-98.42,0.06-147.08-0.68  c-1.11,2.37-2.4,2.89-3.85,1.56l-1.35,0.02c-1.73-3.17-3.37-6.52-4.93-10.06c-5.39-8.17-10.53-2.34-11.28,5.03l-1.85,1.19L0,928.32  v-26.88l37.96-0.46l152.68-0.99l105.84-0.63c1.54-0.01,2.46-1.12,3.13-1.72c0.59-2.7,12.02,2.73,12.37,3.32  c1.64,2.84,2.32,19.12,1.25,22.41C312.84,924.54,312.04,925.44,311.07,926.18z" />
<path class="cls-2" d="M314.9,845.9c0.73,0.26,1.8,0.65,1.83,1.25c0.15,3.9-0.68,10.78-1.2,14.83c0.39,4.02-0.47,6.62-2.56,7.81  c-7.13-0.39-13.9,0.61-21.72,0.62L0,870.72V844.8l228.94,0.52L314.9,845.9z" />
<path class="cls-4" d="M0,294.72v-33.6c20.17-0.04,40.24,1.04,60.85,1.52l40.52,0.94l30.7,0.85l24.78,0.85l31.69,1.02l36.45,1.02  l26.16,0.82l65,3.14l28.67,1.93c5.28,0.36,10.67-0.6,15.89,2.94c-19.15,3.48-37.07,3.73-55.91,4.64l-121.56,5.82l-23.35,0.98  l-23.22,0.82l-41.97,2.07l-23.32,0.85l-39.91,2.02C20.1,293.92,9.11,293.16,0,294.72z" />
<path class="cls-3" d="M210,1206.7c0.74,0.08,1.69,0.23,1.93,0.84c0.54,1.37,0.54,26.08,0.33,29.43l-1.9,1.42L0,1259.52v-33.6  c4.64,0.39,9.36-0.27,14.42-0.73l42.42-3.91l99.66-8.85L210,1206.7z" />
<path class="cls-7" d="M1200,271.07v25.55c-4.43-0.92-8.93,0.64-13.69,0.67l-68.84,0.45l-47.89,0.1c-3.32,0.01-6.23,1.1-9.82,1.11  l-77.85,0.16c-19.26,0.04-35.32,0.09-54.55,0.05L914,299.13c-2.63-0.01-39.27-0.21-37.5-0.05l-10.64-0.94  c-9.16-0.81-18.03,1.09-27.48,0.05c-23.49-2.57-46.68,2.54-76.47-0.06l-24.81-2.17c-3.65-0.32-12.91,1.53-20.99,0.71  c-10.87-1.11-21.58,1.43-32.77-2.07c11.87-2.72,22.63-1.42,33.94-1.73l31.99-0.87l51.06-1.87l42.82-1.15l34.32-0.71l14.38-0.73  l27.82-0.92l47.95-1.38l106.9-3.45l31.91-0.97l19.24-0.94l32.07-2.13c13.63-0.9,26.78-0.78,40-4.27c0.12-0.92-0.48-1.64-0.61-2.29  L1200,271.07z" />
<path class="cls-3" d="M1200,857.17v12.49l-138.07-0.28c-2.74-0.01-4.93-0.9-6.9,0.28c-1,1-2.38,0.98-4.14-0.07  c-2.68-0.19-3.94,1.8-3.76,5.95l-0.64,17.62c1.08,8.19-9.32,10.23-9.59,2.54c-0.22-6.55-0.03-33.4,2.15-37.21  c0.41-0.72,0.94-1.37,1.51-2.01c4.2,1.85,8.77,0.12,13.67,0.12l89.71,0.01l18.62,0.28L1200,857.17z" />
<path class="cls-1" d="M380.33,835.01c1.06,0.27,1.05,1.35,0.71,2.28c-0.05,2.58,0.21,5.87,0.36,8.51c2.92,1.39,2.94,5.05,0.04,6.41  l0.68,0.72c-0.53,3.42-0.17,6.15,1.09,8.18c2.48-3.57,11.26-2.87,13.62,1.11c1.27,2.13,0.92,7.6-2.21,7.3l-11,4.46  c-1.71,3.62-0.05,8.36,0.11,12.12l0.53,12.41l2.03,2.72c-0.06,6.08,0.52,12.08,1.76,17.98c4.64-0.92,11.42-0.96,13.7,4.14  c1.03,2.3,0.72,6.62-2.32,6.5l-0.04,2.15c-3.65,2.56-7.58,4.51-11.81,5.84l1.22,76.48l-1.89,1.42c0.74,0.1,1.84,0.3,1.92,0.84  c0.37,2.55,0.35,9.76-0.01,12.32l-1.92,1.34c0.74,0.09,1.84,0.29,1.92,0.83c0.44,2.9,0.22,9.08,0.07,12.28  c0.72,3.89,0.1,6.49-1.87,7.78l1.92,0.88l0.16,46.81c8.9-4.88,10.16-20.05,10.54-29.93l1.95-2.04c0.43-2.2,0.87-4.28,1.32-6.25  c-2.82-1.14-2.63-6.29-0.02-7.6c-1.67-0.6-2.19-2.1-1.55-4.51c-14.45-1.2-13.75-15.28,0.55-13.55c-0.14-2.78,0.54-4.39,2.03-4.84  c-2.52-3.03-2.95-11.77,0.19-14.38c-0.88-1.47-1.51-3.06-1.63-4.77c-0.62-9.14,2.32-28.72,6.98-37c3.55-6.32,9.11-9.71,16.45-7.58  c16.47,4.78,19.36,29.32,17.85,43.87l-1.9,1.41c0.92,0.38,1.36,1.78,0.6,2.54c2.04,0.98,2.67,3.49,1.88,7.53  c0.67,2.15,0.37,3.72-0.9,4.71c1.71,2.33,2.23,5.42,1.58,9.27l0.75,7.96c3.87,0.57,12.49,2.15,7.38,6.54  c1.86,2.46-0.25,3.62-2.59,4.65c-2.65,0.39-4.66,1.39-6.04,3.01l1.7,1.64c0.08,4.48-0.65,32.7-1.52,34.75  c-0.32,0.75-1.31,1.04-2.15,1.25l0.38,3.31c0.95,3.56,1.12,10.73-2.4,12.85l0.52,3.51c-4.48,13.24-15.75,29.61-26.42,38.61  c-3.4,2.86-12.13,9.15-16.32,9.27c-0.98,0.03-1.86-0.67-2.63-1.31c-0.24,0.93-1.27,1.19-2.19,1.04c0.02,2.12-1.16,2.4-2.08,0.47  c-2.06,0.31-3.23,1.01-3.52,2.1c2.93,0.45,2.64,7.1-0.19,7.66c0.47,4.23,0.49,8.51,0.06,12.83c1.99,0.28,2.06,1.14,0.18,1.81  c0.75,0.08,1.87,0.32,1.92,0.85c0.55,5.73,1.01,24.13,0.11,29.28l-1.91,1.4l1.92,1.13l-0.07,29.71  c19.92-0.38,14.27,14.06-0.16,19.29l0.53,92.81c4.09-0.07,8.06-0.9,11.92-2.47l1.76,1.48c0.7-0.5,1.45-1.08,2.26-1.72  c-1.43-2.49,2.97-4.24,4.51-1.97l2.15-1.98c0.09-0.84,0.36-0.82,0.8-0.05l0.96-0.94c-2.36-2.59,3.16-8.09,5.74-5.71l0.95-0.97  c-0.84-0.09-0.79-0.36,0.03-0.79l1.98-2.16c-1.83-2.18-0.8-3.81,1.91-3.63L427,1339c-0.83-0.24-0.79-0.52,0.06-0.82  c1.08-1.53,1.77-3.07,2.2-4.87c-2.36,0.02-8.69-3.38-5.2-6.34c-1.21-0.39-1.14-1.93,0.25-2.25c-0.88-2.53-0.16-2.91,1.74-1  c2.57-0.53,4.93-1.1,7.06-1.71c0.09-0.86,0.33-0.84,0.73-0.03c0.83-0.75,1.18-1.79,1.06-3.13c-2.55,0-2.41-0.94,0.07-1.58  c0.68-0.81,1-1.87,0.97-3.16l-1.54-2.31c1.55-6.09,2.44-12.25,2.67-18.49l1.79-2.05l-1.42-1.95c1.72-10.05,2.47-20.21,2.25-30.47  l1.98-1.3l-1.77-2.18c0.76-5.42,1.15-10.84,1.17-16.27c-1.82-0.27-2.85-1.14-3.09-2.62l-2.42-1.62c-1.98,1.94-2.69,1.39-1.66-1.15  c-3.35-2.02-1.88-5.09,1.13-6.68c0.95-1.81,3.17-2.51,6.67-2.11l1.36-20.48l2.1-2.62c-2.5-1.9-2.45-3.94,0.19-5.65l-1.42-4.72  c1.25-12.46,2.96-24.89,5.11-37.29c-13.53-5.72-9.1-16.6,4.69-12.75c16.37-24.56,35.3-12.54,41.05,12.89  c2.31,15.61,3.94,31.14,4.88,46.59c11.79,2.27,7.64,8.82,0.38,13.98l0.23,20.34l-1.9,1.38c3.03,0.63,2.98,9.62,0.09,10.55  c0.74,0.1,1.82,0.3,1.92,0.87c0.84,4.86,0.4,22.91-0.15,28.32l-1.93,1.38l1.88,1.75l-0.15,13.15c5.36,2.4,6.92,4.75,4.68,7.06  c1.87,2.95-4.1,6.66-6.5,6.49c-0.42,25.17-2.94,50.9-9.11,75.32c0.57,1.09,0.63,1.84-0.4,3c6.25,2.37-0.78,7.17-4.25,9.11  c-20.37,31.81-59.05,43.73-95.05,46.05c0.52,15.32,0.92,30.4,1.18,45.24c14.92,0.88,10.28,14.96-0.13,18.99  c-0.64,28.92-1.12,57.86-1.45,86.84l-1.98,1.15c-0.77,15.16-1.53,30.34-4.23,45.72c-0.5,2.83-2.46,5.21-5.45,4.96  c-3.09-0.26-5.82,0.69-8.8,0.7l-46.89,0.17c-2.63,0.01-4.79-1.63-5.4-4.05c-3.39-13.61-4.51-27.19-4.43-40.77l-0.95-0.49  c0.64-5.67,0.46-11.08-0.53-16.24c0.15-5.5-1.29-11.42-0.22-16.86c-0.02-9.27-0.01-18.59,0.05-27.95c-0.71-0.2-1.01-0.61-0.91-1.22  l-0.01-41.9c0.88-1.62,1-1.94-0.17-3.07c-0.53-0.22-0.97-0.99-1.67-0.95l-4.24-2.85c-1.91-1.4-4.38-2.82-4.61-5.57l0.05-2.27  c-0.63-2.5,2.76-1.97,3.54-2.99c2.18-0.63,4.45-0.89,6.8-0.78c0.79-2.77,1.13-5.98,1.04-9.63l0.06-83.22c0,0-0.33-0.41-0.98-1.22  l-0.86-0.88l-1.99-1.97c-0.27-0.55-0.99-0.98-0.98-1.69c-1.38-1.15-1.44-2.97-0.19-4.25c0.08-0.73,0.76-1.12,1.07-1.71  c3.2-1.55,5.49-3.98,2.85-5.81c-0.18-0.06-0.5-0.01-0.72-0.01c-1.56-0.89-3.57-1.22-6.02-1l-2.57-0.06  c-1.14-0.42-2.86-0.93-5.16-1.53c-1.16,0.09-2.34-0.2-3.5-0.24c-0.84-0.78-2.22-1.13-4.14-1.03c-0.53,0.03-1.08-0.11-1.61-0.05  c-1.04-0.54-2.13-1.05-3.25-1.55c-1.15-0.05-2.31-0.22-3.45-0.36c-2.58-1.46-5.26-2.63-8.06-3.51c-0.53-0.01-1.08-0.13-1.61-0.21  l-4.18-2.62c-1.07,0.07-1.81-0.57-2.61-1.13l-3.18-1.73c-1.01,0.1-1.91-0.73-2.59-1.21c-1.92-0.76-3.56-1.73-4.91-2.91  c-1.27-0.67-2.4-1.64-3.73-2.19l-3.96-3.5c-1.28-0.32-2.29-1.2-3.02-2.28l-2.53-2.44c-0.41-0.21-0.97-0.81-1.22-1.19l-5.4-5.61  c-0.15-0.24-0.1-0.6-0.24-0.84l-4.53-5.85c-9.84-13.64-10.67-32.75-13.14-49.33c-5.9-2.08-14.15-4.34-13-10.69  c0.93-5.1,8.4-2.39,11.17-2.88c0.58-7.24-1.39-14.22-1.46-20.73l-0.36-31.7c-0.04-3.39-0.25-7.28-0.04-10.67  c-3.31-7.21-2.23-16.97-0.22-24.6l0.25-24.36c-2.8-4.19-2.79-10.16,0.1-14.29c-2.84-7.44-2.41-16.72,0.95-23.94l-1.86-1.19  l0.83-14.58c-10.32-6.69-13.45-16.09,1.98-16.98c1.1-17.17,2.66-36,12.93-50.55l3.52-1.17c-0.63-3.73,4.97-4.27,7.99-4.46  c3.14-0.2,10.72,0.23,11.05,3.76c5.49,1.27,8.79,9.49,10.77,14.74c6.46,17.16,8.29,44.4,9.09,63.13c0.04,0.87-0.18,1.76-0.43,2.66  c-0.26,0.93-0.65,1.82-1.07,2.71l2.05,2.14l0.53,14.38l-1.56,2.46c-0.31,2.99-0.07,6,0.72,9.04l1.84,1.8l0.7,7.98  c4.03,1.07,10.99,4.1,6.31,8.35c1.01,2.55-0.93,4.14-5.8,4.75c-0.05,7.2,0.27,14.4,0.96,21.58l-1.78,2.53  c0.39,1.33,1.63,2.02,3.71,2.07c0.78-1.74,2.59-2.01,4.03-0.87c5.03,3.97-0.04,10.06-4.87,11.51c0.81,2.37,0.49,3.89-0.97,4.56  c1.79,0.95,2.51,2.86,2.16,5.72l0.75,2.87c14.05-3.2,15.26,8.75,2.06,12.41l1.6,8.46l-1.54,1.95l2.24,1.34  c4.09,17.94,10.76,39.46,28.92,47.32l0.11-51.12l1.92-1.15c-0.75-0.09-1.87-0.34-1.92-0.88c-0.43-5.08-0.8-24.52,0.11-28.73  l1.93-1.4c-0.45,0.05-0.89,0.06-1.28-0.07c-1.77-0.59-1.11-33.29-0.72-37.12l1.92-1.13c-0.75-0.2-1.87-0.53-1.92-1.12  c-0.6-6.96-0.99-25.46,0.01-31.92l1.92-1.4c-0.74-0.1-1.84-0.31-1.91-0.85c-0.19-1.42-0.22-15.23,0.12-15.96  c0.33-0.71,1.17-1.05,1.93-1.33l-1.93-1.12l-0.15-33.17c-4.56-0.96-9.03-2.36-13.4-4.22c-7.45-8.66-2.96-13.01,13.47-13.05  l0.07-32.13l1.92-1.13l-1.92-0.89c0.08-22.85,0.17-45.72,0.25-68.59l1.92-1.14c0.37-0.85,0.5-1.54,0-2.38  c-2.8-4.23-2.5-13.46-0.13-17.91c-0.03-0.26-0.01-0.54,0.03-0.8c0.58-0.67,0.85-1.47,0.8-2.41c0.7-7.81,0.93-16.01-0.43-24.19  c-4.37-0.85-7.45-3.15-11.03-4.35c-0.27-2.08-1.86-4.82-0.17-6.92c2.72-3.4,7.54-2.43,11.81-1.32c2.36-6.61,1.21-13.35,1.72-19.61  l1.94-23.88c1.15-14.16,2.58-28.48,6.44-42.52c2.66-9.69,6.68-18.61,14.2-25.14c6.44-5.6,15.84-7.44,23.28-3.32  C374.65,783.69,379.94,819.23,380.33,835.01z" />
<path class="cls-3" d="M456.89,856.25c-2.63,1.49-7.06-7.62-4.82-9.69c-0.86-15.76-1.6-13.16-10.2-19.32  c-9.51-6.82-19.46-11.81-28.97-20.38l66.69-0.9l65.33-1.04l45.94-0.72l110.31-0.83c-14.09,36.54-44.54,32.8-75.54,43.91  c-1.75,2.1-1.25,5.76-3.35,7.41c-2.73,1.18-6.42,1.54-9.93,1.54L456.89,856.25z" />
<path class="cls-10" d="M312.08,676.56c1.46,0.16,2.57,1,4.9,0.99l201.99-0.08l-16.42,36.19c-1.05,2.31-1.73,4.46-4.25,4.64  c-0.51,1.22-1.89,1.65-3.11,1.92l-285.79-0.2c-2.25,0.09-2.59-0.82-1.8-2.94l65.57-25.13c11.2-4.29,21.83-8.09,32.44-13.77  C307.5,677.17,310.26,676.37,312.08,676.56z" />
<path class="cls-5" d="M1037.84,827.38c0.55,2.13,0.96,4.45,1.23,6.95l2.63,4.25c-1.9,3.52-2.36,6.64-1.37,9.36  c0.24,2.65,0.54,5.91,0.23,8.55c-1.49,12.74-1.15,25.82-1.75,39.17c-0.1,2.23,1.67,3.19,3.23,2.95c1.51-0.23,1.93-1.08,2.2-2.93  c2.1-14.34-1.23-26.27,4.57-27.86c2.28-0.62,4.55,0.38,6.21,1.85l-0.03,27.88c-0.01,9.14-6,16.24-14.24,19.18l-0.09,28.01l1.87,2.09  l-0.84,13.5c-0.99,9.2,5.56,2.67,6.94-2.77c-0.38-3.58,0.6-6.01,2.94-7.28c-0.16-3.2,0.61-5.06,2.32-5.58  c2.76-11.43-1.54-24.52,5.44-33.07c1.23-1.51,5.73-0.72,6.71,0.68c3.59,5.1,3.01,26.05,3.5,32.19c-2.3,10.66,0.21,12.5-3.03,26.89  c-2.14,9.5-15.98,13.16-24.6,16.07l-0.82,18.07l-0.86,27.4c-0.04,1.43-0.07,4.87-1.73,5.12c-5.37,0.81-10.61,0.44-16,0.41  c-1.54-0.01-1.73-2.34-1.76-3.69l-0.81-34.39c-0.02-0.95-3.16-2.18-2.62-3.56c0.31-0.79,2.81-1.28,2.87-2.2  c0.59-9.1,0.17-17.76,0.14-26.8l-10.59-3.02c-15.04-4.28-12.94-17.38-14.23-20.36c-0.74-1.71-0.96-4.09-0.91-6.39l0.43-21.26  c0.12-6.12,0.46-11.47-0.99-17.54c-0.55-2.28,1.55-4.98,1.5-7.47c-0.08-3.89,0.14-7.44,1.67-10.87c1.25-2.81,3.55-4.04,6.48-3.46  c1.85,0.37,3.5,2.88,3.67,5.54l2.09,32.12c0.64,9.81,1.63,19.13,7.19,27.59c0.66,1.01,2.1,1.15,3.19,0.75  c0.53-0.19,1.48-0.59,1.47-1.84l-0.15-71.96c-2.93-2.37-2.47-10.67,0.04-13.3c-0.19-1.62,0.44-3.38-0.6-4.85  c-3.04-0.96-5.85-2.85-1.97-4.56c4.72-1.01,1.39-13.87,4.03-22.3c1.25-3.98,4.38-8.41,9-7.24  C1036.03,818.55,1037.6,823.57,1037.84,827.38z" />
<path class="cls-3" d="M498.29,718.3c-0.01,1.34-0.93,2.36-2.19,3.37l-19.75,15.83c-3.21,2.57-5.35,3.89-9.99,3.88l-260.18-0.86  c1.62-4.88-1.21-22.44,1.42-23.44c0.48,1.53,1.69,0.91,3.71,0.91L498.29,718.3z" />
<path class="cls-3" d="M696.14,451.36l1.92,0.67l-0.1,113.25l49.02-0.75l1.15,1.91c4.22,0.8,1.51,11.58-1.27,13.3  c-0.06,0.76-0.29,1.91-0.82,1.95c-15.65,1.11-34.89,2.08-50.47,1.68c-3.23,0.74-5.24,0.17-6.02-1.72l6.68-14.18  c-15.59-0.97-29.44,1.36-45.15,0.6l-2.69-56.55l-0.83-25.39l-1.59-34.1c0.86-1.63,1.29-2.45,1.29-2.45  c15.89-0.32,31.81-0.37,47.77-0.16L696.14,451.36z" />
<path class="cls-3" d="M514.65,901.3c0.3,1.18,0.23,2.53-0.23,4.07l0.29,8.66c2.89-0.25,2.55,4.27-0.14,4.68  c2.97,2.69,1.78,9.67-1.82,11.36l-2.14,2.18c-36.64,0.69-73.32,0.53-110.06-0.48l-1.13-1.94c0.87-2.61,1.76-6.07-1.23-7.86  c-3.64-2.16-7.88-1.22-11.98-0.51c-1.59-7.9-1.64-15.55-1.95-22.97l63.49-0.42l63-0.4c1.29-0.01,2.7,0.26,3.24,0.92  C514.44,899.15,515,900.61,514.65,901.3z" />
<path class="cls-2" d="M847.7,672.84c-2.34,0.54-4.78,0.94-7.73,0.99l-71.12,1.36c-9.95,0.19-15.62-15-25.11-25.99  c-3.65-4.23-7.71-8.09-10.15-12.69c-1.12-2.66,0.76-3.05,3.15-3.1c16.67,0.87,33.32,0.8,49.95-0.22c3.58-1.01,6.6-0.9,9.06,0.31  c1.6-2.59,4.4-1.53,8.39,3.17c14.92,11.08,29.7,22.35,44.34,33.79L847.7,672.84z" />
<path class="cls-10" d="M542.29,629.79c0.29,2.67-1.13,3.13-2.75,0.92l-6.8-0.66l-91.64-0.83l-61.29-1.09  c-7.49-0.13-14.69,0.28-21.5-1.01c3.84-6.87,16.68-10.77,18.99-10.33l20.45,3.9c10.28,1.96,23.36,0.51,31.3-5.34l3.84-2.83  c1.46,0.29,2.87,0.77,4.96,0.8l110.47,1.07C548.27,619.73,542,624.83,542.29,629.79z" />
<path class="cls-3" d="M728.42,866.29l-37.91-0.07l-43.93-0.65c5.1-3.53,10.1-3.77,14.9-6.39c4.72-2.57,9.81-5.54,15.96-5.55  l155.85-0.19c-4.25,7.45,1.19,13.38-6,13.34L728.42,866.29z" />
<path class="cls-2" d="M746.85,579.74c0.31-0.33,0.64-0.62,1.03-0.77c2.24-0.89,27.23,31.96,30.65,36.62  c0.17,0.59-0.99,1.35-1.78,1.79c-0.21,0.75-0.57,1.89-1.15,1.91c-17.49,0.4-37.23,0.09-54.93-0.63l-3.56-1.77  c-2.1-0.53-3.07-2.8-4.59-4.66l-21.13-25.79c-1.28-1.56-2.61-3.19-1.85-4.79L746.85,579.74z" />
<path class="cls-10" d="M559.86,676.84c7.61,0.06,15.35-0.65,23.76-0.07l-5.67,18.14c-1.61,5.16,5.23,17.31,5.37,22.97  c-5.93,5.97-11.83,11.51-17.35,18.39l-33.44,0.34L559.86,676.84z" />
<path class="cls-3" d="M542.29,629.79l13.02,0.45l25.55,0.5c2.68,0.87,1.99,4.64-0.86,4.62c-4.8,8.79-8.17,18.43-12.99,27.71  l-7.15,13.77l-41.14-0.31c3.92-6.9,6.15-12.45,8.92-18.43l9.73-21.04c1.03-2.22,2.41-4.14,2.16-6.35  C540.41,630.79,541.36,629.76,542.29,629.79z" />
<path class="cls-3" d="M1021.15,856.37c0.53,4.43-0.04,8.88-0.04,13.3c-4.74-1.92-13.6,0.96-21.61-0.4  c-4.51-0.76-8.23,0.03-12.78,0.03l-101.88-0.08c-6.23,0-14.12,1.04-14.09-0.91c0.04-2.49,10.2-0.5,19.93-8.33  c3.81-3.06,6.83-3.73,11.82-3.73L1021.15,856.37z" />
<path class="cls-2" d="M452.07,846.56l4.82,9.69c0.39,0.78,0.01,2.07,1.05,2.89c5.17,4.08,11.52,5.36,16.46,10.56l-79.77-0.18  c0.6-2.19,2-6.12-0.72-7.81c-2.58-1.6-8.06-0.19-10.69-0.59l-1.06-0.98c0.26-2.95,0.02-5.59-0.72-7.91  c0.18-2.12,0.09-4.28-0.04-6.41l64.89,0.01C448.5,846.19,450.31,846.55,452.07,846.56z" />
<path class="cls-14" d="M832.32,903.23l0.09,15.64l-37.05-6.07l-55.16-4.39l-28.5-0.64c-7.92-0.18-15.59-1.13-23.73-1.13l-98.17,0.08  c-8.44,0.01-15.99-0.43-24.46-0.24l-11.56,0.26c-0.39,0.01-40.39-1.34-37.64,0.12c-0.46-0.24-0.62-0.98-0.63-1.59  c-1.2-0.26-1.32-1.61,0-1.92c0.28-1.28,0.91-1.55,2.12-1.02l66.68,0.28l133.69,0.19l20.28-0.09c16.68-0.07,28.14-0.16,45.05,0.01  L832.32,903.23z" />
<path class="cls-3" d="M600.84,578.84c2.35,1.65,2.29,4.83-0.64,5.7l-11.97,30.41l-39.15-0.95l17.16-35.92  c-0.69-1.74,0.05-1.95,1.12-0.33c0.22-0.75,0.6-1.87,1.18-1.88c9.26-0.25,21.72,0.16,30.96,1.01L600.84,578.84z" />
<path class="cls-8" d="M697.87,427.48c0.76,0.09,1.9,0.31,1.96,0.84c0.52,4.99-0.91,17.65-1.66,22.98c-0.11,0.76-1.24,0.71-2.03,0.06  l-45.28-0.15c-1.95-0.01-3.57,0.15-4.9,0.83c-0.61,0.08-0.86-0.4-0.86-0.95l-0.03-26.1l48.85,0.45  C695.71,425.45,697.06,426.53,697.87,427.48z" />
<path class="cls-3" d="M776.75,617.38c0.54-0.53,1.43-1.26,1.86-0.97c2.37,1.59,17.11,13.33,17.85,14.63  c0.38,0.67-0.24,1.7-0.71,2.47c-8.65,2.83-18.22,1.19-27.8,2.15c-9.43,0.95-18.23,0.77-27.78-0.09c-2.31-0.21-5.38-0.7-6.57,0.95  c-1.43-2.69-14.43-14.8-16.48-19.63c7.59-0.45,15.25-0.02,23.29,0.07L776.75,617.38z" />
<path class="cls-10" d="M582.76,568.2l-0.57,2.48l-11.14,3.2c-1.25,1.24-2.47,2.53-3.67,3.87l-1.12,0.33l-73.5-0.76  c-4.88-0.05-9.58,0.32-13.68-1.25c8.26-12.08,17.37-5.32,29.68-9.88c16.06,0.08,32.18-1.03,48.58-0.18l20.85,1.08  C579.96,567.17,581.64,567.31,582.76,568.2z" />
<path class="cls-10" d="M580,635.36c0.71-1.29,0.29-3.36,0.86-4.62c3.17-4.47,4.46-9.76,6.94-15.48c8.33,0.41,16.58-0.52,24.85,0.72  c5.06,0.76,9.49-1.15,14.84,1.28C600.85,636.67,611.77,634.4,580,635.36z" />
<path class="cls-10" d="M600.2,584.54c0.44-1.79,0.03-3.96,0.64-5.7c-1.91-2.37-1.24-8.49,1.21-10.32l46.32-0.1  c-3.15,6.2-13.14,2.52-14.04,14.3l-15.23,0.63C612.54,583.62,606.27,583.34,600.2,584.54z" />
<path class="cls-8" d="M602.05,568.52c0.3,3.54-0.04,6.99-1.21,10.32l-33.47-1.09c-1.08-8.12,10.17-6.09,15.39-9.55L602.05,568.52z" />
<path class="cls-8" d="M550.98,463.71c0.27,1.14,1.31,1.98,1.04,3.28c-0.32,1.49-0.64,3.48-2.88,3.48  c-11.52-0.02-25.92-0.06-36.19,1.85l-0.97-7.52l33.35-0.19C547.49,464.58,549.31,464.08,550.98,463.71z" />
<path class="cls-8" d="M600.78,451.19l-18.88-0.03c0.02-2.1-0.36-4.3,0.91-6.88c5.72,0.12,11.36,0.16,17.05,1.43  C601.65,446.11,600.68,450.06,600.78,451.19z" />
<path class="cls-3" d="M1040.33,847.93c-3.51,0.81,0.11-9.07,0.09-9.24c-0.31-2.61-3.27,0.52-2.59-11.31  c4.09,1.08-2.25,2.75,5.25,10.75C1042.11,841.18,1040,844.31,1040.33,847.93z" />
<path class="cls-3" d="M1018.58,846.96c-0.23,0.83-0.81,1.89-0.15,2.57c0.69,0.7,1.54,1.17,2.12,1.99c-1.83-0.13-5.22-0.15-5.41-2.98  C1015.03,847.09,1017.64,847.16,1018.58,846.96z" />
<path class="cls-8" d="M515.52,903.36v1.92l-1.1,0.09c-1.36-1.2-0.45-2.73,0.23-4.07l0.91,0.03  C516.95,901.95,516.78,902.64,515.52,903.36z" />
<path class="cls-2" d="M885.21,436.98l1.99,1.52c-0.46,5.56,1.15,9.82,4.84,12.76c1.48,2.14,3.62,5.24,0.85,6.79l3.54,15.44  c1.41,6.16,11.68-1.06,19.94,1.11c0.25,4.49,2.23,8.37,2.31,12.15l0.22,11.28c1.03,0.3,1.02,1.38,0.72,2.32l0.28,5.38  c0.94,1.29,1.2,3.01,0.81,5.16c0.31,1.5-0.2,3.1,0.02,4.59c0.64,2.33,1.59,4.48,2.84,6.45l-0.88,1.34c5.29,2.38,11.2,4.5,17.73,6.35  c-0.28-2.88,0.46-4.67,2.2-5.34c-2.51-0.67-2.28-1.4,0.18-2.06c0.39-0.15,0.54-0.68,0.86-0.88c0.42-0.79,1.17-1.45,2.24-1.96  c1.97-0.45,3.73-2.48,6.18-1.91c2.48,0.58,4.57,1.18,6.73,1.19c2.56,0.68,4.92,1.55,7.07,2.61c1.09,0.28,2.33,0.43,3.46,0.31  c1.68,0.84,2.6,0.92,4.33-0.03c0.84-0.04,1.73,0,2.54-0.27c1.42-1.07,3.13-1.94,5.12-2.61c1.3,0.01,2.25,1.1,2.45,2.73l0.59,4.72  c3.68,4.76,5.35,14.89,2.58,20.21l0.82,14.23l-0.82,1.94c-48.69,1.3-97.61,2.71-146.75,4.25l-3.13-1.42  c-1.18,2.78-4.8,1.57-5.81-1.02l-2.6-3.99c-4.36-18.11-6.3-37.19-3.13-55.21c0.58-15.52,1.36-31.22,2.89-46.75  c0.12-1.21,0.53-2.4,0.96-3.6c0.44-1.22,1-2.38,1.6-3.54c-2.52-3.47-2.28-9.22,0.44-12.53  C849.36,437.65,867.31,435.75,885.21,436.98z" />
<path class="cls-2" d="M720.77,427.25c4.76-0.49,9.36-0.3,13.8,0.55l0.45,1.17c0.11,1.35,0.39,3.37,0.3,4.75  c-0.14,0.92,0.16,1.67,0.9,2.27c0.07,0.27,0.13,0.57,0.13,0.85c1.88,1.81,2.64,4.53,2.28,8.16c1.02,2.98,0.87,5.44-0.45,7.38  l1.99,0.68c3.64,36.91,7.47,73.92,11.47,111.03l-2,1.56c0.51,1.96-0.21,2.35-1.52,0.78l-32.97,0.28  c-6.49,0.05-12.61,1.07-19.12,0.37l0.1-115.73c0,3.92,2.08-23.53,1.73-23.87L720.77,427.25z" />
<path class="cls-12" d="M892.89,458.06c-2.65-11.59-6.98-1.58-7.68-21.08l21.01,1.44l16.26,1.02l20.17,0.95l24.99,1.98l15.38,0.87  l19.3,1.25l70.01,7.04c1.09,0.11,2.22,0.74,2.72,1.3c2.34,2.65-10.03,2.9-12.4,2.95l-29.19,0.66l-88.14,1.1  c-10.68,0.13-20.72,0.57-31.32,0.18C906.71,457.48,899.67,456.73,892.89,458.06z" />
<path class="cls-8" d="M792.78,435.02c3.17,3.69,2.69,13.11,0.12,17.14l-0.88,1.92c-17.56,0.07-35.12,0.15-52.69,0.22l-1.15-1.92  c-1.56-4.99-1.87-10.33-1.83-15.54l44.13-0.32C784.81,436.49,789.04,436.03,792.78,435.02z" />
<path class="cls-2" d="M804.6,436.9c1.97-0.11,2.81,1.14,2.54,3.75c0.35,2.55,0.05,11.03-2.68,11.53l1.76,1.01l-7.92,40.07  c-2.21,3.34-3.94,1.92-5.6-1.26c-1.2-2.3-1.51-30.53-1.32-34.92c0.08-1.75,0.72-3.38,1.51-4.92c-0.54-5.66,0.13-11.47-0.12-17.14  c2.84-0.77,5.97-2.17,9.43-1.3C803.18,433.97,804.28,435.98,804.6,436.9z" />
<path class="cls-8" d="M831.45,438.7c0.13,4.18-0.06,8.36-0.44,12.53c-0.12,0.7-0.32,1.89-0.79,1.95  c-2.71,0.32-23.28,1.53-24.31,0.88c-0.72-0.46-1.23-1.02-1.46-1.87l0.75-10.87c0.09-1.36-0.26-3.42-0.61-4.42  c2.22-0.17,2.65-3.27,5.5-3.08c1.94,1.87,3.92,4.63,6.88,4.67C822.01,438.57,826.85,438.97,831.45,438.7z" />
<path class="cls-8" d="M735.01,428.98c-4.88-3.71-10.36,1.29-14.25-1.73c0.13-0.96,1.81-1.09,3.03-1.04l10.59,0.36  C735.2,426.59,734.96,428.37,735.01,428.98z" />
<path class="cls-10" d="M609.03,332.25c-2.75,1.95-5.69,1.99-8.25,0.09C603.09,329.29,606.65,329.39,609.03,332.25z" />
<path class="cls-9" d="M1040.59,225.12c-9.21,3.9-19.28,3.83-29.32,4.85c-15.62,1.6-30.74,0.6-46.44-0.37l-48.06-2.98l-62.36-3.83  c-11.83-0.73-23.04-1.84-34.73-2.45l-17.57-0.92c-9.53-0.5-18.77-0.92-28.33-2.7c-2.44-0.45-5.48,2.08-7.38-1.45  c6.33-0.07,11.86-0.82,17.93-1.13l31.08-1.62l26.13-0.94l39.15-1.91l26.97-0.91l56.12-3.45c4.56-0.28,9.25,0.24,12.61-3  c-7.7-2.85-15.08-1.3-23.04-3.79c15.16-2.61,29.15-0.77,44.15,0.01l88.43,4.59c9.16,0.48,17.59,1.07,26.69,2.04  c5.86,0.63,26.06,0.39,30.14,3.2c-6.29,2.36-12.3,1.68-18.64,2.1l-33.1,2.21l-29.8,0.97l-18.09,0.89l-23.04,0.97l-27.05,1  c-7.86,0.29-15.07-0.55-23.3,1.17c6.11,3.13,12.06,1.81,18.16,2.23l29.66,2.01C1025.09,222.43,1032.25,222.52,1040.59,225.12z" />
<path class="cls-14" d="M876.41,1149.95l1.94,2.47c-1.74,15.72,6.95,20.56,20.41,23.56c0.41,0.21,0.79,0.45,1.05,0.77  c0.76,0.93,1.63,22.83,1.24,23.96c-0.88,2.58-2.19,4.33-4.5,2.23l-74.88,11.33l-37.14,6.22l-17.62,23.38l149.86,29.97l80.44,15.32  l1.85,1.99c0.76,6.23,1.78,16.14-5.19,17.98c2.5,0.49,3.99,1.7,4.46,3.62l-0.01,88.82c-0.03,3.28-2.55,4.95-7.56,5.02  c3.36,1.02,5.8,2.65,7.33,4.91l0.21,75.3c-2.24,5.9-9.99,0.45-13.07-2.94c-3.11-3.41-9.68-13.99-4.03-16.82  c-3.71-0.67-5.78-2.73-6.22-6.16c-3.74-21.2-5.34-42.71-4.8-64.55l-0.85-12.37c-0.14-32.31-21.02-40.33-23.83-3.05l-2.06,1.56  l-1.13,1.89c-49.75-10.7-106.82-13.6-157.72-6.5c-7.82,1.09-47.53,7.34-49.23,16.27c-1.33,6.97,25.08,13.26,29.67,14.02  c55.36,9.22,111.09,9.66,166.58,0.06c0,0,2.16,0.32,6.48,0.95c2.41-1.36,4.17,0.57,5.06,2.94c-0.08,27.1,0.16,54.22,3.53,81.1  c3.28,26.18,28.81,32.91,50.77,37.26l0.92,2.13l-0.83,73.48l-1.93,1.14c-7.18-3.09-79.56,1.24-70.3,1.71  c0.04,2.77-2.12,2.49-2.59-0.13c2.85-5.49,3.42-12.11-1.26-17.19c-5.3-5.76-14.04-5.85-20.91-2.54  c-13.94,6.71-17.51,12.96-30.08,21.17c-6.72-3.08,18.91-27.83,22.15-31.2c5.21-5.42,9.67-12.07,9.41-19.97  c-0.27-8.28-6.33-14.7-13.68-17.65c-9.78-3.93-21.19-1.91-28.03,6.01c-12.75,14.78-10.54,31.58-15.53,49.11  c-10.85-23.11,5.42-34.24-9.36-62.57c-6.04-11.58-19.74-15.46-29.27-9.32c-13.17,8.49-8.57,30.62,2.73,42.49  c6.12,6.42,8.89,13.61,8,22.73c-0.42,4.31,1.14,9.47-3.14,13.09c-5.61-15.9-15.88-43.46-36.58-37.44c-4.33,1.26-7.42,5.26-8.45,8.3  c-6.46,19.1,25.69,29.5,18.8,37.42c-21.19,1.23-24.21-16.98-36.86-26.1c-10.4-7.49-24.6-6.01-33.82,2.32  c-7.54,6.81-7.71,17.2-0.28,24.2c3.58,3.37,8.21,6.47,12.94,7.71c0.58,1.4-0.62,1.97-3.62,1.73c-31.19-3.06-62.3-5.98-94.12-7.21  c-10.41-0.41-19.74,0.3-29.9,1.7l-40.08,5.52c-0.88,0.12-1.39,0.58-1.27,1.15c-22.13-0.78-44.97-24.8-53.92-28.95  c-13.81-6.4-54.84-5.72-71.18-4.98c-13.78,0.63-27.01,3.06-40.82,3.39l-7.59,0.18l0.41-7.99l0.62-81.02  c4.74-2.05,9.32-4.95,10.17-10.05c0.42-2.55-1.58-4.45-2.96-5.16c-1.85-0.95-4.1-0.54-6.54-0.72l-0.46-19.31  c-0.23-9.78-0.37-19.18-0.08-29.02c20.29-2.27,38.98-6.26,56.94-14.08c15.97-6.95,27.89-17.6,37.61-31.84  c1.81-2.65,8.48-3.24,5.97-8.21l0.59-2.11l148.56-38.18c8.78-2.73,17.68-5.66,25.51-10.56c1.33-0.83,2.94-2.2,1.99-3.97  c-2.24-4.19-15.28-7.6-19.94-8.8c-46.33-9.45-92.91-15.84-139.74-19.16l-0.94-2.02c-0.18-3.11-3.55-4.14-6.31-5.11  c-1.04-5.32-0.12-11.6-0.09-16.85l2.81-1.96c28.3,2.47,55.92,1.56,84.44-0.8c7.1-0.59,34.8-4.4,39.48-10.62  c3-3.99-6.97-7.61-9.93-8.37c-37.23-9.49-76.02-9.11-114.22-6.79l-2.4-2.03l-0.09-10.55l0.9-2.01c12.15-4.29,24.28-8.77,36.37-13.43  c36.82-3.38,73.68-7.65,110.57-12.81c11.35-1.96,29.02-5.54,38.57-11.75c7.15-4.65,3.33-7.22-2.44-10.52  c-36.11-12.89-54.17-19.34-54.17-19.34c-8.28-3.81-9.3-10.36,0.14-12.75c26.74-2.26,40.1-3.38,40.1-3.38l206.57-2.53L876.41,1149.95  z" />
<path class="cls-15" d="M766.02,960.88l-2.19,1.91c-9.19,1.21-18.18,2.98-26.99,5.33c27.07,5.83,53.58,8,80.32,9.93  c42.9,4.09,85.76,9.63,128.58,16.62c2.49,0.26,4.59,0.75,5.34,2.04c1.66,2.81-8.15,5.61-10.39,6.2  c-63.17,10.44-126.42,19.45-189.75,27.03c-38.48,5.71-77.6,11.59-117.36,17.67c-9.65,0.63-17.89,3.26-24.7,7.89  c5.48,2.77,11.35,4.61,17.6,5.54l101.76,18.11c49.22,9.52,98.15,23.44,144.02,42.98c2.22,0.01,3.56,0.74,4.02,2.18  c3.4,7.47,3.28,18.07,0.15,25.65l-27.24,0.46l-86.54,1.08l-94.16,1.02c-12.78,0.14-24.61,1.74-37.28,2.94  c-2.51,0.24-7.68,1.38-7.65,4.18c0.03,3.1,4.52,4.97,7,6.03c10.93,4.65,21.63,7.97,32.87,11.34c6.25,1.88,26.29,7.57,27.25,14.54  c1.39,10.06-37.98,17.96-46.5,19.04l-69.1,8.77l-37.24,3.41c-9.47,0.87-30.07,13.38-39.43,13.83l-0.26-23.06l6.02-4.58  c1.22-0.93,1.12-2.88,0.52-4.27c-1.03-2.42-6.67,0.42-7.04-4.42l-1.83-23.67c-0.92-11.86-2.16-23.54-6.86-34.4  c-4.01-9.27-13.48-14.45-22.88-10.67c-5.28,2.12-8.22,7.11-11.22,11.79c-2.73,0.44-10.56-2.93-11.93,1.73  c-1.22,4.17,5.69,6.43,8.34,8.16c-2.29,10.4-3.46,20.56-4.39,31.08c-0.37,4.2-1.38,8.07-1.49,11.89c-4.6,0.01-9.42-10.64-6.85-14.3  c-1.67-1.42-2.24-3.96-1.69-7.61l-47.28-6.86l-0.86-2.06c-0.74-1.14,0.17-1.84,2.72-2.1c0.7,0.01,1.38-0.39,2.08-0.47  c1.11-0.03,1.45-0.26,2.19-1.04c10.68-2.32,18.84-9.65,26.2-17.95c8.59-9.69,13.52-20.77,18.65-32.13l1.02-2.01l90.41-7.03  c35.37-3.73,73.19-7.77,108.67-15.74c0.31-0.07,2.03-3.45,1.99-3.84c-0.11-1.25-8.38-5.55-10.44-5.52l-1.28-2.17l-3.98,1.44  l-52.02-4.57c-42.9-5.02-85.94-9.14-129.12-12.35l-1.26-2.01c-3.31-5.13,6.25-2.5,8.63-7.66l2.02-1.86  c112.67-9.97,224.98-20.9,336.63-35.02c1.45-4.51,3.47-6.3,6.05-5.36c-0.91-2.6-0.43-7.61,1.18-10.02  c-54.1-6.18-108.3-11.93-162.59-17.25l-57.77-11.06l-0.77-2.1c-1.73-3.94,5.45-7.27,8.83-8.35c1.97-0.63,4.02-1.22,6.09-1.42  c49.37-4.73,99.99-9.48,148.83-11.74c5.84-1.45,6.57-7.29,6.13-12.54l1.85-1.14l-1.79-2.21c-0.31,0.83-0.64,0.81-1.01-0.02  l-1.81,0.88c-75.82-4.62-151.86-8.28-228.13-10.97l-2.32-1.27l0.14-4.68c2.12-0.26,4.32,0.63,6.83,0.68l52.13,0.95l29.98,0.77  l37.21,0.86l34.07,0.93c40.03,1.1,79.39,3.64,119.1,8.7c8.59,1.09,16.68,1.68,24.65,6.07l-25.49,10.06c-2.62,1.04-1.79,5.09-2.5,7.2  L766.02,960.88z" />
<path class="cls-5" d="M1040.61,1297.92l0.4,23.44l1.05,26.24c0.76,1.65,4.44,0.81,6.1,1.16c1.61,0.34,1.4,2.11,1.02,3.08  c-0.95,2.38-7.43,2.24-7.43,4.02l0.01,148.04c21.45-2.89,26.55-39.28,27.32-54.73l2.75-54.79c0.41-8.24,3.02-28.1,13.43-28.46  c3.94-0.14,7.24,2.02,9.16,5.82c5.33,10.54,6.27,32.48,6.8,45.24c0.68,16.3,1.33,32.11,0.27,48.15c2.08,0.49,5.2,0.79,5.06,2.65  c-0.16,2.26-3.39,2.46-5.35,3.21c-0.81,11.73-1.99,23.04-3.67,34.65c-4.16,28.74-28.75,36.01-52.96,40.88  c-2.13,0.43-2.64,1.93-2.64,3.91l-0.1,62.5l-0.46,28.6l-0.92,8.69l-42.43,0.11c-2.35-7.92-2.5-34.26-2.4-43.11l0.85-75.54  c-25.76-4.06-48.52-11.89-52.04-40.68c-3.19-26.11-3.2-52.11-3.1-78.53c-0.29-1.59-2.75-2.12-3.24-3.31  c-1.4-2.11-0.07-3.13,1.9-3.92l1.42-21.53l2.02-1.24c0.6-7.69,2.76-27.99,13.23-28.25c12.08-0.3,13.31,18.39,14.38,27.82  c2.96,25.9-0.74,56.69,6.72,81.75c1.61,1.13,5.42,0.48,6.39,3.13l-4.13,3.84c4.45,8.48,6,15.09,16.36,17.21l-0.16-76.5  c0-1.46-9.47-2.33-6.93-6.01c2.52-3.65,7.1,1.65,7.1-3.95l0-89.4c-2.58-1-4.87-1.22-5.9-3.87l6.57-2.84  c0.62-5.64-0.17-11.03,0.13-16.23l1.7-29.27c0.72-12.45,2.96-31.38,13.84-38.83c3.17-2.17,8.17-2.76,11.54-0.76  c12.41,7.38,13.1,32.13,13.86,44.73C1038.84,1276.43,1040.43,1287.19,1040.61,1297.92z" />
<path class="cls-14" d="M766.02,960.88l-0.02,9.94c6.74,4.15,17.34,2.92,24.08,3.95c9.39,1.43,18.29,1.31,27.6,2.25l45.55,4.61  c43.47,4.4,80.06,9.5,122.46,19.77c6.06,1.47,11.75,2.82,17,7.32c-12.65,1.92-24.41,3.13-37.02,3.94l-72.23,4.63l-33.33,2.36  l-84.93,8.92c-7.98,0.84-16.53,0.49-24,2.59c-5.33,3.48-5.43,12.99-5.66,18.46c-0.14,3.37-2.78,5.6-0.92,8.78l142.26,26.64  c5.1,0.96,9.17,1.85,13.62,1.61c0.45-0.05,0.89-0.06,1.28,0.08c1.84,0.62,0.75,34.35,0.24,38.54c-1.16,0.91-0.91,2.21,0.75,3.9  c0.84,5.23,0.77,22.81-0.41,27.67c-0.58,2.42-1.31,2.63-3.71,2.78c-9.5,0.59-13.58-35.61-11.99-43c-0.26-4.01-0.56-8.21-1.11-12.16  c-0.63-4.44-6.69-1.55-6,2.7c0.26,3.95-0.48,7.43-2.2,10.46c1.43,3.19,1.07,5.43-1.07,6.7c-3.86,0.79-6.63-1.36-10.6-2.97  c-47.7-19.36-96.9-33.01-147.59-42.12l-66.76-11.99c-5.48-0.98-47-6.4-44.39-12.28c2.49-3.98,8.2-5.28,12.87-6.36  c21.27-4.93,42.31-7.8,63.93-10.79l43.96-6.08l78.01-10.28l40.12-5.97l75.84-11.3c9.71-1.45,19.44-2.18,28.83-6.8  c-41.33-7.68-81.13-12.31-121.77-16.34c-4.88-0.48-8.89-1.7-13.71-2.11l-43.17-3.7c-13.93-1.19-27.08-3.55-40.81-6.27  c3.41-3.2,7.44-2.91,11.4-3.91C750.41,962.99,758.18,960.59,766.02,960.88z" />
<path class="cls-14" d="M918.68,1198.23c-2.78-1.22-1.81-3.3,0.3-5.03c10.98-1.6,17.98-6.41,20.99-14.44  c2.12-11.9,3.5-39.65,1.47-51.93c-2.4-14.5-6.59-5.86-7.81,2.55c-0.11,14.09-2.1,27.69-5.98,40.8  c-10.21,17.98-12.79,1.58-11.03-9.98c-0.27-41.21-0.41-61.81-0.41-61.81c0.35-4.27,1.22-5.97,5.44-5.77l92.35,19.88  c18.61,4.01,36.14,8.37,54.22,13.88c10.38,3.16,20.26,7.05,29.21,12.95c6.49,4.27,8.42,11.73,4.94,18.98l-27.56,8.62l-38.06,9.17  c-18.37,4.43-35.86,9.22-54.71,12.18L918.68,1198.23z" />
<path class="cls-5" d="M921.65,1092.63c0.59,1.59-3.4,2.12-3.44,3.33c-0.27,8.45-0.6,16.75-0.35,25.26l0.39,13.49  c0.22,7.42-0.71,13.18,0.17,23.14c0.55,6.23-1.15,12.56,0.59,18.79c6.22-1.86,6.78-7.14,8.19-11.75c1.14-3.72,2.49-7.08,2.83-11.2  c0.65-7.91,0.44-35.05,6.53-36.22c7.06-1.36,7.16,11.83,7.2,17.28l0.17,23.76c0.05,6.56-1.36,13.24-1.99,19.85  c-0.98,10.36-11.96,13.78-20.9,16.07c-2.79,0.72-1.9,2.23-2.37,3.82c-1.53,5.21,0.2,10.61-0.36,16.19l-0.75,7.53  c-0.62,6.16-0.29,12.08-1.05,18.24l-7.34,0.49c-2.59,0.17-7.45,0.6-9.14-1.45L899.2,1209c-0.07-2.43-2.29-4.05-2.64-6.06  c0.81-0.12,1.63-0.97,2.12-1.41c1.01-0.91,0.29-2.24,0.27-3.63l-0.4-20.08c-9.57-2.78-20.76-4.8-21.65-17.4  c-0.26-3.66-0.52-7.18-0.48-10.48c0.1-8.55,0.29-17.11-0.15-25.65c-0.1-1.89,0.08-3.74-0.71-6.1c-0.56-1.66,1.59-3.09,1.7-4.68  c0.38-5.88-0.31-12.41,5.58-13.25c1.79-0.26,4.39,1.5,4.62,4.12c0.57,6.54,1.46,13,1.37,19.79c-0.13,9.87,0.41,19.71,5.39,28.2  c1.4,2.39,1.96,5.13,6.26,5.63c-0.11-9.32,1.35-19.22,0.51-28.3c-0.08-0.85-2.14-1.86-2.45-2.48c-0.54-1.08,1.9-2.1,1.9-3.19  l0.06-37.4c0-3.04-0.76-6.22-1.12-9.1c5.32-7.16-2-13.17,5.5-24.77c1.56-2.42,3.84-2.98,6.55-2.4c8.76,1.88,5.62,32.52,6.42,40.25  C918.67,1091.58,920.67,1092.42,921.65,1092.63z" />
<path class="cls-3" d="M67,1603.15c0.11-2.34,10.57,0.81,8.86-2.72c1.81-0.12,4.42-0.08,5.86,2.22  C76.5,1603.18,71.52,1604.68,67,1603.15z" />
<path class="cls-5" d="M311.83,1598.59l-1.91-0.35l0.44-16.39C313.07,1578.58,311.83,1597.47,311.83,1598.59z" />
<path class="cls-3" d="M59.68,1603.35c1.66,3.02-7.62,1.47-8.08,1.49C49.77,1602.32,59.44,1603.3,59.68,1603.35z" />
<path class="cls-8" d="M154.59,1552.53c-1.7-1.98-0.97-4.69-0.8-7.11C156.63,1546.31,156.08,1550.54,154.59,1552.53z" />
<path class="cls-3" d="M27.99,1606.21c1.93,2.98-8.83,1.77-7.02,0.93C23.01,1605.45,25.48,1606.36,27.99,1606.21z" />
<path class="cls-8" d="M146.88,1564.93c-2.54,0.09-2.43-3.18-2.67-5.14C146.55,1559.97,146.31,1563.1,146.88,1564.93z" />
<path class="cls-8" d="M153.72,1568.8c0.04-1.38-0.67-3.44,0.87-4.2c0.09,0.74,1.26,1.62,1.08,2.58  C155.48,1568.21,155,1569.38,153.72,1568.8z" />
<path class="cls-3" d="M15.45,1607.82c-0.55,0.25-0.88,1.19-1.58,1.16c-0.9-0.03-2.39,0.25-2.51-0.88  C8.29,1608.66,16.36,1605.49,15.45,1607.82z" />
<path class="cls-8" d="M47.23,1545.82c0.48,1.01-0.42,1.42-0.93,1.62c-1.09,0.44-2.58-0.34-3.32-0.19c-0.51-1.35,1.03-1.78,1.74-1.71  L47.23,1545.82z" />
<path class="cls-8" d="M59.74,1547.26c-0.69,0.03-1.69,0.34-2.54,0.31c-0.74-0.03-2.22-0.39-1.72-1.74c0.83,0.04,2.09-0.54,3.3-0.13  C59.3,1545.87,60.22,1546.26,59.74,1547.26z" />
<path class="cls-8" d="M57.79,1598.17c-0.81,0.07-2.25,0.43-3.23,0.14c-0.55-0.16-1.59-0.5-1.05-1.52c0.62-0.11,1.7-0.34,2.57-0.36  C56.81,1596.41,58.28,1596.79,57.79,1598.17z" />
<path class="cls-10" d="M477.37,576.31c-0.12,1.09-0.92,1.48-1.72,1.72c-1.22,0.36-1.77-0.99-2.54-1.16  C473.93,575.43,476.01,576.11,477.37,576.31z" />
<path class="cls-11" d="M175.71,1379.12l-83.43,0.55c-4.45,0.03-8.31-0.64-12.62-0.87c-14.86-0.79-29.72-1.01-43.66-5.33  c-4.65-1.44-7.85-5.09-8.27-8.8c-0.57-4.92,2.08-9.25,6.65-11.08c4.42-1.77,5.35-4.52,7.56-8.11c9.21-14.96,25.37-23.61,42.77-25.22  c21.26-1.97,41.34,1.7,61.94,6.45c7.66,1.77,15.33,1.85,22.34,5.98c4.37,2.58,8.6,5.4,13.43,7.35c9.42,3.8,28.12,13.9,25.87,25.4  C206.38,1375.22,183.8,1379.07,175.71,1379.12z" />
<path class="cls-5" d="M302.17,1476.22c1.21-1.57,4.43-1.24,6.89-1.55l-0.09-52.1l0.14-41.2c0.32-0.04,1.96-0.03,1.96,1.08  l-0.07,83.38c0,3.65-1.04,6.89-0.75,10.37L302.17,1476.22z" />
<path class="cls-5" d="M278.57,1359.25c-0.84-0.1-9.65-1.94-8.06-3.51C273.39,1355.81,277.8,1356.09,278.57,1359.25z" />
<path class="cls-5" d="M308.27,1365.06c-2.01-0.05-4.67,0.81-6.02-1c0.94-0.82,2.2-0.94,3.46-0.99  C306.94,1363.04,308.87,1363.25,308.27,1365.06z" />
<path class="cls-5" d="M231.32,1327.87c-2.42-1.17-3.14-3.91-4.53-5.85C228.79,1323.52,230.1,1325.72,231.32,1327.87z" />
<path class="cls-5" d="M299.69,1364.01c-1.81-0.04-5.21,1.1-5.16-1.53c1.02-0.08,2.03-0.36,3.45-0.3  C298.74,1362.22,300.25,1362.54,299.69,1364.01z" />
<path class="cls-5" d="M256.35,1348.84c-2.02-0.12-5.09-0.36-4.91-2.91C253.41,1346.19,255.57,1346.86,256.35,1348.84z" />
<path class="cls-5" d="M305.08,1372.59c0.16,1.41,0.23,2.83,0.19,4.25c-1.09,0.01-1.86-0.61-2.01-1.61  C303.06,1373.85,303.64,1372.6,305.08,1372.59z" />
<path class="cls-5" d="M306.15,1370.88c1.23-2.29,4.26-3.08,2.85-5.81c0.37,0.12,1.5-0.27,1.76,0.23c0.98,1.88,0.05,3.37-1.27,4.48  C308.62,1370.51,307.5,1371.14,306.15,1370.88z" />
<path class="cls-5" d="M291.03,1362.23c-1.37-0.06-3.42,0.44-4.14-1.03c0.67-0.72,1.64-0.93,2.52-0.99  C290.56,1360.13,291.65,1361.08,291.03,1362.23z" />
<path class="cls-5" d="M268.9,1355.53c-1.67-0.25-4.08-0.6-4.18-2.62c0.93-0.06,1.9-0.02,2.89,0.41  C268.4,1353.66,269.05,1354.47,268.9,1355.53z" />
<path class="cls-5" d="M236.97,1334.32c-2.55-0.83-3.99-3.44-5.4-5.61C233.81,1330.02,235.58,1332.16,236.97,1334.32z" />
<path class="cls-11" d="M925.32,1608.92c-0.33,3.64,5.89,6.11,4.84,10.83c-0.31,1.41-1.56,3.84-3.77,3.81l-27.62-0.35  c0.47-1.56,1.78-2.61,3.26-2.99c8.07-2.08,14.63-6.41,20.7-11.43L925.32,1608.92z" />
<path class="cls-11" d="M725.9,1621.06c1.35-0.23,2.73-0.63,3.62-1.73c7.73,2.02,15.97,1.4,24.23,4.62  C744.24,1624.89,735.04,1621.96,725.9,1621.06z" />
<path class="cls-5" d="M310.13,1565c-0.55,0.3-0.91-0.48-0.91-1.19l0.05-27.98c0.52-0.59,1.85,0.24,1.81,1.11  C310.68,1546.72,311.9,1556.02,310.13,1565z" />
<path class="cls-5" d="M307.43,1489.9c-2.66,0.9-3.02-1.96-4.24-2.85C305.11,1487.07,307.08,1487.86,307.43,1489.9z" />
<path class="cls-5" d="M155.51,932.1c-0.89,2.36-1.08,4.7-0.59,7.02c7.12,0.47,6.3,5.97,0.54,8.51l0.05,42.18l1.28-20.98  c1.35-12.42,10.84-12.31,13.57-0.03c2.09,9.4,1.1,31.61-5.63,38.76c-2.14,2.27-6.83,6.23-9.22,3.22  c-1.78,2.91-1.52,11.41,0.45,17.05l-0.07,32.08c4.78-0.91,8.14-6.35,7.57-11.2c3.29-6.78,3.15-14.06,2.67-21.5l1.86-1.85  c-3.02-0.79-1.6-5.51,0.88-6.63c-0.19-1.14-0.25-2.73,0.89-3.23c-4.46-4.81,2.2-12.21,8.54-9.64c2.81,1.14,6.28,6.54,2.31,7.73  c1.17,1.2,1.19,3.44,0.89,5.15c2.97,0.3,3.15,5.91,0.24,6.46c0.75,0.1,1.88,0.36,1.91,0.88c0.47,9.15,0.38,33.56-2.36,41.43  c-3.48,9.99-16,13.51-24.67,15.21l-0.78,23.41c0,0-0.67,1.58-2.02,4.73c0.73,0.11,1.73,0.29,1.9,0.89  c0.29,0.98,0.02,12.37-0.28,13.75l-1.95,1.33c-0.6,2.01-14.93,1.22-16.83,0.76c-1.26-0.3-1.49-2.55-1.44-3.45  c-2.84-1.25-4.09-11.07-0.78-12.44c2.51-22.08-3.14-17.85-3.17-20.66c-0.01-1.23,2.36-1.94,2.51-3.01  c1.21-8.57,0.49-17.35-0.33-26.22c-7.53-1.79-14.74-3.42-19.61-9.27c-3.42-4.1-2.57-10.56-3.96-15.14c-0.62-1.25-5.46-2-3.76-4.12  c1.17-1.46,3.4-1.26,3.33-3.39c-0.3-9.88,0.68-19.9-0.46-30.07c-0.11-0.99-2.91-1.57-2.68-2.93c0.22-1.3,1.88-1.63,2.47-2.8  c2.38-4.66,0.43-14.76,5.53-17.22c1.95-0.94,4.54-0.82,5.82,1.18c2.51,3.91,2.94,8.8,2.73,13.55c-0.31,6.89,0.47,13.4,0.71,20.16  c0.26,7.64,1.21,23.08,10.27,27.12c2.2-4.68-0.75-10.05,0.65-14.41c-0.53-1.97-0.86-4.17-0.04-6.11l0.02-26.52  c-0.46-1.85-0.23-3.25,0.68-4.21l0.3-50.67c0.02-3.23,0.95-5.88,0.63-8.68c-0.4-3.56,1.02-7.27,3.54-10.13  c1.53-1.74,4.27-2.42,6.3-1.77C150.92,917.97,153.88,927.42,155.51,932.1z" />
<path class="cls-3" d="M209.74,1171.43c-0.09,8.2,0.74,16.38,0.22,24.6c-10.03,0.85-19.85,5.13-30.49,5.38  c-13.71,0.31-26.91-0.41-40.69-0.1l-37.93,0.83c-2.75,0.06-5.29,1.43-7.91-0.04c1.87-4.61,13.1-1.45,16.03-5.21  c-5.08-2.29-10.74-3.35-12.8-8.54c-1.54-3.87,1.87-6.68,4.26-8.26c8.11-5.37,19.69,8.79,26.62,10.59  c-3.05-12.35-26.52-21.9-14.01-33.19c3.52-3.17,8.28-3.72,13.04-2.59c11.71,2.77,11.39,19.6,14.03,29.85  c7.93-9.84-3.59-16.27,5.08-34.5c2.76-5.8,10.86-9.35,16.15-5.01c5.44,4.46,4.13,12.19,1.3,17.83c-4.83,9.64-10.42,5.29-6.87,22.52  c4.62,0.34,2.99-13.23,14.22-18.78c4.86-2.4,11.37,0.08,11.96,5.44c1.36,12.38-15.62,15.38-10.22,19.69  c15.29,0.24,15.41-20.18,35.82-15.41C209.1,1174.74,208.05,1172.31,209.74,1171.43z" />
<path class="cls-3" d="M211.04,1108.84c-0.45,7.96-0.86,15.93-0.95,23.94l-0.61,2l-15.77,1.78l-1.54-1.76  c-3.08-7.86-31.16-7.75-38.66-7.96l0.33-15.97l2.95-1.39c17.88-0.68,35.54-1.56,52.97-2.64  C209.75,1106.83,210.18,1107.5,211.04,1108.84z" />
<path class="cls-3" d="M134.46,1111.7c-0.38,3.36,0.93,9.33,0.78,12.44c-12.29-0.13-24.53-1.67-37.28-2.8l-29.9-2.65l-18.06-1.25  c-4.11-0.28-8.5,0.98-12.11-2.34l26.03-0.89l27.89-0.97L134.46,1111.7z" />
<path class="cls-15" d="M210.09,1132.77c-0.05,4.68-0.05,9.62-0.1,14.29c-4.83-1.62-10.71-0.93-15.6-3.48  c-2.75-1.43-1.34-6.52-2.23-8.8L210.09,1132.77z" />
<path class="cls-13" d="M992.62,544.12c-2.08,0.29-3.48,2.24-5.65,2.21c-0.39-6.73-1.74-13.47-2.58-20.21  c2.23,0.32,6.71-0.65,8.17,1.99C994.44,531.49,990.07,537.84,992.62,544.12z" />
<path class="cls-7" d="M929.36,523.11l7.41,0.17c2.53-0.56,4.48-0.23,5.85,1.01c-0.01,2.43,0.02,4.9-0.74,7.68  c-6.62-1.39-12.23-3.7-18.04-6.31c-1.05-0.47-0.92-1.76-1.15-2.37C923,521.61,928.01,522.1,929.36,523.11z" />
<path class="cls-11" d="M929.36,523.11l-6.67,0.17c-0.94-2.5-1.57-5.14-1.96-7.79c3.13-1.07,0.34,4.3,2.63,5.6  C925.84,522.49,930.57,520.3,929.36,523.11z" />
<path class="cls-10" d="M965.89,521.27c-2.38-0.61-6.23,0.07-7.07-2.61C961.28,518.69,965.46,518.39,965.89,521.27z" />
<path class="cls-11" d="M942.8,522.23c0.04,0.69-0.17,1.37-0.18,2.06c-2-0.02-4.17,0.25-5.85-1.01  C938.15,521.52,940.79,522.37,942.8,522.23z" />
<path class="cls-11" d="M920.71,510.89c-1.51-1.36-0.71-3.38-0.81-5.16c1.28-0.5,1.79,0.96,1.76,1.67  C921.62,508.75,921.9,510.41,920.71,510.89z" />
<path class="cls-8" d="M981.34,518.67c-0.25,2.27-3.33,2.03-5.12,2.61C976.13,518.84,979.37,518.65,981.34,518.67z" />
<path class="cls-10" d="M973.67,521.55c-0.18,1.3-1.32,1.87-2.6,1.75c-0.86-0.08-2.3-0.51-1.74-1.72  C970.79,521.42,972.23,521.2,973.67,521.55z" />
<path class="cls-6" d="M831.28,564.32c1.92-0.08,3.98,0.84,5.81,1.02c4.58,1.94,8.64,5.12,12.18,9.53l-0.63,2.15l2.36,2.96  c3.43,12.95,6.75,25.71,9.95,38.26c1.49,1.06,2.34,2.96,2.53,5.69c2.11,3.19,2.61,5.74,1.49,7.64c2.58,0.2,3.03,4.77,1.85,6.77  l2.09,1.45c1.28,5.61,2.99,11.1,5.15,16.48l-1.29,2.3l2.08,0.47c1.41,3.27,3.43,10.93,2.71,14.14l6.62,24.76l-36.46-25.11  c-0.4-0.92-1.09-1.69-2.18-2.51l-42.6-32.15c-2.14-1.61-4.27-5.01-7.18-4.67c-0.45-1.16-1.43-2.02-2.63-2.98l-16.36-13.15  c0.26-2.03-1.19-3.63-2.66-5.37l-27.24-32.27c0.13-2.45,0.48-4.97,1.18-7.76c0.46-2.06,0.49-3.88,0.1-5.54  c0.57,0,1.09-0.48,1.52-0.78l0.88-1.93c26.51-0.03,52.95-0.46,79.33-1.28L831.28,564.32z" />
<path class="cls-2" d="M1168.15,666.89l-30,0.94l-40.65,0.81l-39.23,0.84l-61.19,1.16l-45.49,0.89l-28.48,0.83l-45.57,0.82  c-0.92,2.06-4.15-12.44-4.78-14.61l0.67-1.92l266.5-0.15c3.13-0.49,5.86-0.44,8.21,0.17  C1153.09,657.31,1164.17,663.79,1168.15,666.89z" />
<path class="cls-3" d="M134.51,1024.48c-1.73-1.32-1.69-4.74-0.04-6.11C134.47,1020.83,135.37,1021.79,134.51,1024.48z" />
<path class="cls-3" d="M135.17,987.64c-0.01,1.36,0.8,3.39-0.68,4.21c-0.62-0.68-1.19-1.58-1.17-2.52  C133.35,988.32,133.96,987,135.17,987.64z" />
<path class="cls-2" d="M1017.49,574.03c3.92,5.35,12.94,15.55,18.76,19.82l28.43,6.22c2.66,2.68,3.2,6.76,5.35,9.85  c1.41,2.03,2.76,3.93,2.44,6.2l-0.66,1.92l-207.96,1.84l-2.9-1.65c-2.39-0.59-2.26-3.17-2.94-5.56  c-3.46-12.13-7.91-23.61-9.37-35.66l0.63-1.93l166.82-2.93L1017.49,574.03z" />
<path class="cls-3" d="M1125.04,638.09c6.67,0.01,12.92,11.65,18.98,15c1.76,0.97,3.5,1.9,4.11,3.58c-2.35,1.75-5.09,1.75-8.82,1.76  l-266.56,0.15c-1.9-6.46-5.46-13.64-5.95-20.23c3-1.44,4.5-2.16,4.5-2.16l18.38-0.33l228.9,0.31  C1120.99,636.37,1123.14,637.01,1125.04,638.09z" />
<path class="cls-2" d="M1125.04,638.09l-221.17-0.27c-12.94-0.02-24.79-0.24-37.06,0.53c-1.62-1.53-1.81-4.61-1.85-6.77l0.77-1.96  c67.97-2.81,138.3-5.6,210.97-8.38l7.28,0.74c4.39-0.34,9.06,2.22,13.36,3.91l25.54,10.04  C1124.03,636.38,1124.81,637.32,1125.04,638.09z" />
<path class="cls-3" d="M1072.47,616.13c2.76,1.78,12.86,3.92,11.51,5.85c-55.12,4.26-110.64,5.38-166.46,7.38l-23.57,0.85  l-28.98,1.37c-2.05-4.16-4.86-8.59-4.01-13.34c4.55-0.53,9.19-0.57,14.22-0.62l73.93-0.67L1072.47,616.13z" />
<path class="cls-3" d="M987.79,560.57c3.41-0.1,33.08,3.63,29.7,13.46l-16.23,0.55l-59.11,0.93l-52.8,0.99l-40.7,0.51l-2.3-2.48  c-3.05-3.28-7.09-5.57-9.25-9.2c10.42-2,21.16-1.19,32.34-1.49l69.84-1.88L987.79,560.57z" />
<path class="cls-11" d="M1053.89,944.7c-0.49,2.03,0.61,4.69-0.86,6.79c-0.55,0.78-1.94,1.16-2.46,1.68  c0.02-0.02,2.26,11.98-10.31,14.65c-1.31-7.95,0.37-15.71,0.4-23.09L1053.89,944.7z" />
<path class="cls-6" d="M310.23,929.38c0.72,5.92,0.3,11.95,0.13,17.91c1.07,0.62,1.07,1.8,0,2.38l-0.26,70.61l-1.6,1.87  c-19.46,0.87-38.85,1.92-58.17,3.14l-2.85-1.62c-6.5-1.89-13.03-3.28-19.04,0.7c-1.36,0.83-2.83,1.7-4.45,1.83  c-6.99,0.56-35.97,2.19-40.01,0.36c-0.79-0.36-1.52-0.83-2.24-1.35c0.03-1.96-0.03-4.55-0.24-6.46c0.22-1.96,0.1-3.68-0.89-5.15  c0.48-2.11-0.96-4.57-2.49-5.64c-1.89-1.32-4.78-1.01-6.37,0.92c-1.62,1.96-1.86,4.49-1.99,6.63c-0.63,0.84-0.93,1.92-0.89,3.23  c0.4,2.22-0.95,4.44-0.88,6.63c0.54,3.94-11.28,3.47-12.47,2.35c-1.18-1.11-1.74-15.11-0.01-16.93c6.96-1.69,11.51-7.45,12.65-15.13  c0.76-5.16,2.67-31.68-2.93-33.49c-1.44-0.47-4.62-0.78-5.23,1.18c-4.21,13.4,0.22,30.48-4.91,29.14c-0.79-0.21-1.49-1.36-1.5-2.73  l-0.05-43.23c1.43-1.47,4.37-1.55,4.62-3.7c0.27-2.34-3.55-1.22-4.48-2.21c-2.09-2.22-1.5-8.03,1.83-8.5  c1.31-0.18,1.59-2.2,2.48-3.49l26.78,0.3l79.96,0.63c8.28,0.07,16.02,0.68,24.29,0.31C296.36,929.51,303.33,929.12,310.23,929.38z" />
<path class="cls-6" d="M399.42,929.83l63.63,0.88l36.13,0.4c4.83,0.05,9.27-0.56,13.56-1.04c1.66-0.77,2.49-1.15,2.49-1.15  c9.55,8.35,19.39,16.31,29.53,23.87l0.53,2.37c2.12,0,4.14,1.29,6.06,3.9c2.69,1.25,4.14,2.85,4.34,4.82l3.28,1.57  c15.82,12.53,31.42,25.38,46.79,38.55c2.14,3.93-1.33,4.82-4.96,5.35c-51.6,2.35-102.46,4.46-154.22,6.36l-3.1-1.65l-1.62-2.43  c-0.22-13.9,0.83-36.48-14.61-42.81c-5.89-2.42-12.21-0.86-15.34,4.67c-1.63,2.89-3.34,6.06-4.02,9.46  c-2.19,10.96-3.15,21.92-3.77,32.74c0,0.49-0.05,0.95-0.29,1.28c-0.64,0.9-13.56,0.92-15.56,0.68l-1.37-1.92l-0.5-25.62l-0.78-54.35  C391.41,935.9,395.06,931.77,399.42,929.83z" />
<path class="cls-15" d="M488.7,1384.46c-0.58-1.15-1.95-1.74-1.35-3.88c6.63-23.9,7.71-50.76,9.37-75.26c3.65-1.36,5.88-3.4,7.99-5.66  l56.39,5.61c14.41,1.43,103.32,11.77,106.1,23.99c0.37,1.61,0.17,3.86-1.28,4.91c-9.7,7.07-28.95,12.52-40.94,15.51l-53.96,13.47  l-72.86,19.09L488.7,1384.46z" />
<path class="cls-8" d="M577.89,967.5l58.82,11.26l131.41,13.54c11.08,1.14,21.53,1.23,32.19,4.63c-0.63,4.24-0.55,10.05-2.45,10.99  c-18.34,2.02-36.86,3.16-55.57,3.42c-98.46,5.26-196.89,10.92-295.31,16.97l-3.52-1.9c-1.84-3.75-0.57-8.15-0.98-12.24  c0.2-0.87,0.54-0.89,1.02-0.11c6.84-0.76,14.14-0.53,21.54-0.85l22.09-0.95l24.15-0.89l17.14-0.97l25.11-0.9l29.58-1.12  c7.43-0.28,14.63,0.37,22.31-2.17l-32.16-26.99l-14.47-11.48c-1.44-1.15-3.01-2.12-3.08-3.85c1.48-2.17,4.08-2.69,7.78-1.55  C567.77,962.82,575.81,964.06,577.89,967.5z" />
<path class="cls-3" d="M797.86,1007.92c-2.32,1.15-3.35,3.64-4.08,7.05l-51.74,6.41l-87.04,9.75l-65.69,6.6l-122.63,11.75  c-5,0.48-9.17,0.92-13.53,0.69c0.02-0.94-0.08-1.97-0.57-2.72c-1-1.53-8.11-0.95-8.55-3.27c-1.17-6.05-1.15-12.14-0.58-17.78  c5.83-0.02,11.74-0.06,17.95-0.53l31.13-2.36l69.06-3.91l48.06-2.94l67.16-3.73l65.39-3.51c17.98-0.97,35.32-0.63,53.12-3.04  c0.73-0.1,1.25-0.38,1.73-0.11C797.59,1006.59,797.84,1007.26,797.86,1007.92z" />
<path class="cls-15" d="M445.17,1201.81l-1.65,24.91c-3.31,0.48-5.93,0.26-8.48,0.3c-2.99,1.85-4.36,4.25-1.13,6.68  c0.47,0.27,0.91,1.22,1.66,1.15c0.99,0.44,1.79,0.98,2.42,1.62c1.37,0.11,4.7,0.42,4.86,2.23c0.6,6.52-0.85,12.82-1.17,18.84  l-1.65,2.12c-12.21,2.66-20.52,5.97-22.53,19.23c-1.04,6.86,14.11,10.81,19.54,10.46l1.83,1.91c0.76,7.6-1.68,15.39-2.92,22.84  c0.23,1.02,0.2,2.72-0.97,3.16l-0.07,1.58c0.21,1.24,0.29,2.83-1.06,3.13c-0.24,0.01-0.49,0-0.73,0.03l-0.51,0.8  c-2.4-0.24-4.58,0.06-6.54,0.91c-0.72-0.02-1.17,0.78-1.74,1c-1,0.64-1.09,1.39-0.25,2.25c0.23,1.55,1.33,3.02,3.13,3.58  c1.72,0.53,1.47,2.01,2.07,2.76c-0.12,1.75-1.07,3.48-2.2,4.87L427,1339c-0.38,1.01-0.96,1.74-1.74,2.19  c-0.26,1.29-1.41,2.36-1.91,3.63l-1.98,2.16c-0.01,0.26,0.02,0.54-0.03,0.79l-0.95,0.97c-2.3,1.32-4.39,3.42-5.74,5.71l-0.96,0.94  c-0.25,0.04-0.54,0.05-0.8,0.05l-2.15,1.98l-4.51,1.97c-0.57,0.68-1.32,1.25-2.26,1.72c-4.82,1.36-9.4,3.59-15.59,2.81l-0.55-96.43  c4.87-1.67,9.09-3.51,11.99-7.39c1.68-2.25,1.67-5.4-0.84-6.78c-3.47-1.91-7.11-1.04-10.98-0.49l0.08-33.65l2.74-2.27  c11.12-0.5,22.11-1.8,32.97-3.93c6.3-3.69,12.45-7.69,18.45-12C443.31,1200.11,444.3,1200.71,445.17,1201.81z" />
<path class="cls-8" d="M630.9,1075.33c2.86,1.09,1.72,2.99-0.47,4.47c-35.06,8.29-70.1,14.69-105.11,19.21  c-26.7,1.32-53.39,2.07-80.05,2.26c-2.21-0.04-3.12-1.97-2.73-5.79c1.25-5.56,0.6-29.99,1.97-37.65l34.3,2.41  c19.87,1.4,38.89,4.05,58.73,6.12l37.53,3.92l32.53,2.92C615.72,1073.93,623.41,1074.28,630.9,1075.33z" />
<path class="cls-8" d="M310.1,1020.28l-0.08,35.71c-5.35,0.42-11.03-1-15.83,1.68c-2.8,1.56-0.66,6.12,1.76,7.48  c4.31,2.42,8.91,2.46,14,3.58l0.16,36.35c-1,0.52-2.02,1-3.08,1.35c-1.04,0.35-2.07,0.66-3.12,0.72  c-10.51,0.6-21.21,1.03-31.73,1.29c-1.04,0.03-2.1-0.19-3.16-0.45c-1.08-0.26-2.13-0.65-3.18-1.07  c-1.55-19.12-2.53-38.35-6.45-57.59c-2.03-9.94-5.79-18.23-11.91-25.65c5.14-0.42,10.77-1.85,16.53-1.4  C274.65,1023.1,298.37,1019.72,310.1,1020.28z" />
<path class="cls-8" d="M228.44,1024.37c-10.78,11.33-13.06,32.69-14.51,48.91c-0.16,1.76,0.36,3.53-0.91,4.36  c-2.48,1.63-7.56-0.38-9.31,3.2c-2.64,5.43,5.78,8.02,8.29,10.98l-0.96,17.02c-3.31-0.38-6.68,0.62-10.38,0.74l-19.46,0.63  c-9.36,0.3-18.41,0.3-27.37,0.66c0.19-9.52,0.32-19.11,1.32-28.98c10.12-3.93,23.4-5.73,24.89-17.61l1.29-10.22l0.42-28.85  C197.58,1025.82,212.9,1023.82,228.44,1024.37z" />
<path class="cls-13" d="M498.31,1277.69l0.17-30.56c5.69,0.4,11.42-0.29,17.54-0.62c29.23-1.56,63.52-0.76,92.19,5.65  c5.43,1.21,19.51,4.56,19.43,10.7c-0.1,6.94-21.62,11.04-27.75,12.02c-27.03,4.31-54,5.28-81.43,3.7  C511.29,1278.17,504.87,1277.47,498.31,1277.69z" />
<path class="cls-3" d="M440.53,1111.63c0.88-5.18,0.85-10.97,2.01-16.16c0.58,0.3,0.69,3.91,2.08,3.89l63.17-1.24  c20.66-0.41,26.51-2.64,45.43-5.31c25.38-3.58,50.07-7.96,74.94-14.14c1.95-0.48,3.04-1.81,2.73-3.35c5.37,0.75,10,3.09,14.1,7.39  c-1.32,1.84-1.64,4.83-3.69,5.9c-27.78,6.63-55.82,9.62-84.24,12.96l-24.93,2.93L440.53,1111.63z" />
<path class="cls-3" d="M438.52,1181.86c1.38,5.02,3.51,10.31,6.85,14.3c-0.06,1.9-0.07,3.74-0.19,5.65  c-4.21,0.92-15.92,11.72-21.13,13.07c-11.87,3.08-24.21,2.68-35.97,4.28l-0.12-31.53l2.53-2.03c15.13-2.19,30.29-4.08,45.47-5.66  L438.52,1181.86z" />
<path class="cls-8" d="M309.97,1157.67l0.09,38.32l-2.97,1.94c-5.09,0.81-31.54,3.92-33.8,2.55c-0.57-0.35-1.08-0.8-1.57-1.29  c-0.1-1.65-1.48-3.35-0.8-5.23c0.83-2.29,7.53-2.1,6.59-7.9c-0.33-2.03-2.53-1.51-3.98-2.08c-2.28-0.01-3.52-0.7-3.71-2.07  c-0.39-7.86-1.59-17.37-0.97-25.66c3.13-0.82,5.92-1.03,7.59-3.2c0.11-0.74,0.43-1.84,0.9-1.81c6.82,0.34,25.72,2.51,31.76,4.37  L309.97,1157.67z" />
<path class="cls-15" d="M309.94,1226.99l-0.11,55.21c-21.3-6.81-29.46-33.89-33.07-51.6c0-0.76,0.13-1.91,0.65-2  c3.58-0.63,29.45-3.8,30.94-3.36C309.1,1225.46,309.57,1226.26,309.94,1226.99z" />
<path class="cls-15" d="M309.98,1123.22l-0.02,34.45l-33.53-4.61c0.42-7.18-7.43-4.57-8.21-8.04c-0.78-3.5-0.84-6.92-0.65-10.09  c-1.29-1.44-1.35-6.75,0.49-7.94l-0.04-1.28c13.25-1.95,26.8-3.38,40.66-4.29L309.98,1123.22z" />
<path class="cls-3" d="M310.05,1195.99l-0.12,31l-33.19,3.6c-0.77-3.8-2.05-7.72-2.03-11.96c2.57-1.51,5.43-1.48,7.6-3.19  c1.5-1.18,2.15-3.37,1.23-4.81c-2.27-3.58-7.8,0.36-10.22-1.53c-1.94-3.07-1.43-6.82-1.61-9.92  C284.63,1199.45,297.5,1195.77,310.05,1195.99z" />
<path class="cls-3" d="M310.11,1105.08l-0.13,18.14l-41.91,3.76c-1.12,0.75-1.54,0.15-1.21-1.09c-1.17-6.27-0.51-12.68-1.02-18.98  C280.23,1105.93,295.67,1105.39,310.11,1105.08z" />
<path class="cls-8" d="M438.52,1181.86c-14.97-0.4-34.91,5.34-50.57,5.77c0-0.5,0.02-1.35-0.18-1.81c0.44-4.33,0.42-8.61-0.06-12.83  l0.19-7.66c0.01-0.86,0.29-0.82,0.79-0.01l49.84,7.23C439.21,1175.73,438.73,1178.85,438.52,1181.86z" />
<path class="cls-14" d="M441.68,1257.54c-0.45,8.26,0.12,24.94-2.81,33.72c-6.48,0.2-13.46-1.26-19.04-4.95  c-4.32-2.86-5.27-6.79-3.23-11.38c1.52-3.44,1.93-7.72,5.5-10.05C428,1261.03,434.95,1258.09,441.68,1257.54z" />
<path class="cls-8" d="M402.9,1052.97c0.29,2.52-0.03,5.07,0.02,7.6c-0.56,1.04-0.78,2.9-0.68,5.58l-0.64,0.67  c-0.09,9.34-0.89,19.4-5.7,27.75c-1.97,3.42-3.68,6.79-8.71,6.73l-0.17-50.18C391.5,1048.27,399.18,1049.19,402.9,1052.97z" />
<path class="cls-2" d="M403.93,1030.06c-0.21,1.78,0.89,4.22-0.57,6.04c-1.88,2.33-8.59-1.64-10.29,3.57c-0.6,1.86-0.14,3.97,2.13,5.2  c2.29,1.23,5.32,0.84,7.43,2.15c1.38,1.28,0.08,4.36,0.27,5.95c-5.22-1.01-10.57-1.66-15.89-1.86l-0.12-20.9l1.07-1.93l14.6-0.13  L403.93,1030.06z" />
<path class="cls-8" d="M404.12,1015.68c-0.27,4.77,0.38,9.61-0.19,14.38l-17.04,0.15l0.01-14.49L404.12,1015.68z" />
<path class="cls-3" d="M387.77,1185.82c-1.7-3.96-0.16-8.79-0.06-12.83C389.35,1170.58,389.23,1188.33,387.77,1185.82z" />
<path class="cls-5" d="M268.07,1126.98l-0.49,7.94c-2.46,1.87-2.13-8.61-0.72-9.04C267.42,1125.61,268.1,1126.5,268.07,1126.98z" />
<path class="cls-5" d="M383.21,861.11c-2.88-0.44-2.48-0.41-1.78-8.89c0.71-0.6,1.5,0.36,1.53,1.24L383.21,861.11z" />
<path class="cls-5" d="M433.11,1322c1.46,2.89-5.85,1.64-7.06,1.71C426.69,1320.5,430.6,1322.27,433.11,1322z" />
<path class="cls-2" d="M402.92,1060.57c0.04,2.1,1.56,5.87-1.32,6.25C401.59,1066.92,400.18,1059.33,402.92,1060.57z" />
<path class="cls-5" d="M273.53,1183.98c-0.96-0.04-2.06,0.28-3.34,0.03c-1.36-0.26-0.57-1.56-0.37-2.1  C271,1182.61,272.24,1183.48,273.53,1183.98z" />
<path class="cls-13" d="M391.41,1163.22c-0.82,0.92-2.39,0.79-2.72,2.1c-0.26-0.04-0.53,0.03-0.79,0.01  c-0.13-0.36-0.67-0.82-0.51-1.25c0.22-0.58,0.68-0.89,1.49-0.88L391.41,1163.22z" />
<path class="cls-5" d="M427.06,1338.18c0.14-1.84,0.53-3.86,2.2-4.87C430.69,1335.1,429.06,1337.47,427.06,1338.18z" />
<path class="cls-5" d="M435.04,1227.01c-1.61,2.15-3.09,4.38-1.13,6.68c-1.54-0.66-3.52-1.36-2.92-3.42  C431.49,1228.54,433.23,1227.04,435.04,1227.01z" />
<path class="cls-8" d="M746.82,930.08c1.33,2.08,1.67,2.77-0.24,4.78c-4.63,4.85-12.81,8.76-19.48,9.43  c-48,2.53-96.42,3.74-145.26,3.63c-11.71,1.21-23.2,3.84-34.47,7.88l-2.08-0.64c-7.23-3.07-14.96-11.95-23.82-18.45  c-2.92-2.14-5.23-6-8.73-6.64c0.98-3.7,1.71-7.51,1.82-11.36c7.73-0.03,15.45,0.05,23.64,0.36l54.4,2.04L614.1,922l78.58,3.82  l46.5,2.67C742.05,928.66,745.15,928,746.82,930.08z" />
<path class="cls-3" d="M831.01,451.23c-1.54,17.04-2.95,34.14-3.43,51.81c-0.22,8.14-2.46,15.88-1.85,23.98  c0.96,12.89,3.64,25.09,5.56,37.3l-17.69,0.7l-63.95,0.64c0.28-3.45-0.22-6.88-0.66-10.84l-8.32-75.12l-2.48-27.31l54.72-0.23  c0.99,10.36,1.16,20.72,1.21,31.69c0.02,3.44-0.9,7.19,2.09,10.16l8.26-41.82L831.01,451.23z" />
<path class="cls-13" d="M660.17,1471.52c-35.3,12.49-96.02,13.02-133.66,11.09c-13.34-0.68-83.29-5.88-84.06-22.04  c-0.3-6.33,11.42-10.35,17.19-12.15c21.22-6.66,42.88-8.36,65.05-10.01c22.36-1.66,43.78-1.57,66.14,0.07  c22.16,1.62,43.85,3.23,65.1,9.82c4.84,1.5,22.38,7.55,17.17,14.97C670.01,1467.67,665.18,1469.74,660.17,1471.52z" />
<path class="cls-13" d="M943.44,1382.47l-1.85,23.65c-1.25,1.29-2.81,1.77-3.5,3.04c-21.69,3.34-43.19,6.69-65.64,7.46  c-37.48,1.28-82,0.26-118.09-8.94c-5.85-1.49-19.88-6.52-20.89-12.36c-0.93-5.42,8.73-9.5,13.46-11.06  c30.67-10.15,68.24-11.89,100.72-11.62c28.44,0.24,62.89,1.27,90.03,9.13C939.76,1382.36,941.73,1382.44,943.44,1382.47z" />
<path class="cls-8" d="M691.46,1573.14l-80.62,0.05c-6.12,0-14.33-1.28-18.86-5.44c-2.98-7.19,1.2-16.72,7.11-22.34  c15.96-15.18,36.51-24.34,58.37-27.78c23.42-3.68,46.3,3.64,61.63,21.19c6.78,7.76,6.32,17.68-1.72,24.66  C710.8,1569.18,701.41,1573.13,691.46,1573.14z" />
<path class="cls-13" d="M864.04,1351.07c-7.37,0.39-14.09,0.5-21.44,0.1c-19.38-1.07-54.38-2.31-70.83-11.99  c-1.92-1.13-3.51-4.06-1.99-5.96c6.46-8.07,33.48-11.28,44.33-12.29c32.16-3,63.91-2.42,95.63,3.11c5.92,1.03,23.62,4.74,24.3,10.92  c0.18,1.63-0.9,3.51-2.59,4.54C916.36,1348.66,882.12,1350.11,864.04,1351.07z" />
<path class="cls-13" d="M849.64,1298.87c-41.33,7.56-82.99,7.73-123.9,0.26c-4.49-0.82-19.41-5.01-19.02-10.28  c0.73-9.92,46.57-14.18,55.52-14.54c17.11-0.69,33.74-0.84,50.75,0.07c8.65,0.47,54.65,4.56,53.77,15.32  C866.44,1293.5,853.91,1298.09,849.64,1298.87z" />
<path class="cls-13" d="M834.17,1190.44c-26.42,8.52-72.83,7.85-100.48,3.69c-5.53-0.83-24.79-3.55-24.31-10.03  c0.26-3.42,11.66-6.65,14.73-7.17c33.8-5.75,68.35-6.01,102.16,0.15c5.45,0.99,12.03,2.93,14.44,7.71  C841.54,1187.29,836.29,1189.76,834.17,1190.44z" />
<path class="cls-3" d="M749.63,932.31c0.34,4.96,0.49,10.43-3.99,13.94c-3.17,2.48-7.19,1.81-11.37,2.06  c-47.1,2.8-93.55,6.05-140.32,11.21c-6.65,0.73-12.5,3.27-16.04,7.97c-7.35-1.41-14.61-4.25-22.19-3.62c-4.1-1.64-8-4.97-10.4-8.72  c0.5-0.39,1.05-1.3,2.11-1.59c27.5-7.66,26.84-8.1,56.46-7.76c20.22,0.24,39.74,0.48,59.86-0.57l44.74-2.35  c8.27-0.43,16.44,0.65,24.42-1.74c2.58-0.77,15.37-7.78,13.94-11.08l1.01,0.02C748.55,930.63,749.15,931.36,749.63,932.31z" />
<path class="cls-13" d="M624.61,1142.3c-23.6,8.09-81.65,8.68-105.32,3.16c-2.87-0.67-17.6-2.83-17.26-7.35  c0.35-4.55,21.69-7.33,26.51-7.94c25.78-3.25,72.72-3.54,96.77,5.25c1.76,0.65,2.87,2.18,2.8,3.67  C628.02,1140.66,626.34,1141.7,624.61,1142.3z" />
<path class="cls-8" d="M155.51,1010.78l-0.1,14.98c4.12,1.14,8.77,0.88,12.58-0.41c0.18,6.13,0.9,13.25-0.93,19.4  c-0.79,2.66-2.2,3.43-1.77,6.84c0.44,3.46-6.78,12.48-10.62,9.72c-0.7-0.5-0.94-2.04-0.94-3.38c0.09-15.26,0.86-29.95-0.34-45.17  c-0.07-0.86,0.52-1.54,0.78-1.82C154.49,1010.62,155.1,1010.88,155.51,1010.78z" />
<path class="cls-3" d="M181.51,1018.75c-0.79-1.68-1.37-3.08-0.89-5.15c1.31-0.61,1.88,0.86,1.85,1.64  C182.41,1016.57,182.7,1018.25,181.51,1018.75z" />
<g>
</g>
<g>
</g>
<g>
</g>
<g>
</g>
<g>
</g>
<g>
</g>
<g>
</g>
<g>
</g>
<g>
</g>
<g>
</g>
<g>
</g>
<g>
</g>
<g>
</g>
<g>
</g>
<g>
</g>
</svg>