<?xml version="1.0" encoding="iso-8859-1"?>
<!-- Generator: Adobe Illustrator 30.2.1, SVG Export Plug-In . SVG Version: 9.03 Build 0)  -->
<svg version="1.1" id="Layer_1" xmlns="http://www.w3.org/2000/svg" xmlns:xlink="http://www.w3.org/1999/xlink" x="0px" y="0px"
	 viewBox="0 0 1200 1200" style="enable-background:new 0 0 1200 1200;" xml:space="preserve">
<style type="text/css">
	.st0{fill:#9DA6A8;}
	.st1{fill:#6E7F9A;}
	.st2{fill:#C4B0B1;}
	.st3{fill:#75769B;}
	.st4{fill:#F3B6A4;}
	.st5{fill:#9EA8A9;}
	.st6{fill:#589A85;}
	.st7{fill:#F4CA98;}
	.st8{fill:#E99A96;}
	.st9{fill:#C4C4BA;}
	.st10{fill:#589986;}
	.st11{fill:#6B7F98;}
	.st12{fill:#536C82;}
	.st13{fill:#F8E6C8;}
	.st14{fill:#F5E4C9;}
	.st15{fill:#4A6581;}
</style>
<path class="st0" d="M1200,90.03v105.73c-68.33,4.28-136.39,11.99-204.62,20.69c-48.76,6.22-97.66,8.38-146.4,10.22
	c12.06-26.53,5.6-57.26-17.13-75.63c-22.56-18.24-54.64-18.65-77.54-0.44c-22.46,17.86-30.64,49.05-17.78,76.06
	c-87.46-1.35-174.66-0.43-262.56,2.83c-114.58,4.26-228.7,5.28-343.24,8.92L0,242.58V94.34l87-7.88c59-5.34,117.84-6.25,177.35-4.95
	l616.21,13.46c56.1,1.23,111.75,0.23,167.65-1.16L1200,90.03z"/>
<path class="st1" d="M600.18,1200H281.07c0.93-5.03,4.59-7.78,9.05-9.81c1.66-12.1,1.61-25.38,6.96-36.28
	c2.96-6.02,3.6-11.61,3.05-18.66c-0.21-2.72,2.12-5.7,0.9-9.1c-2.16-6-1.32-13.73,3.5-18.29c1.06-1,3.58,0.04,4.2-1.37
	c0.46-1.04,1.29-2.38,1.37-3.81l0.85-14.66c0.17-2.87,3.99-5.82,2.66-8.91c-0.46-1.07-2.57-1.13-2.48-2.47
	c-0.11,1.46,3.65-14.83,7.95-15.49c0.64-9.19-2.99-26.18,4.21-30.76c2.91-1.85,6.66-5.22,12.61-2.91c3.41,1.32,6.59,5.4,12.17,4.73
	c1.27-0.15,4.2,1.08,5.4,1.48c1.25,0.41,1.72,3.27,2.29,4.54c1.77,3.97,8.01,3.03,10.17,5.4c3.05,3.33,4.67,4.07,8.71,4.9l13.71,2.8
	c0.69,1.2,1.03,2.77,2.41,3.18c1.41,0.42,2.41-1.24,4.11-0.92c0.9,0.17,0.83,2.18,1.44,2.5c-0.43-0.23,9.83,1.64,10.75,1.45
	c0.73-2.68,2.01-5.3,3.51-6.44c2.29-1.74,5.48,0.78,7.8,0.03c7.38-2.38,15.2-0.47,19.13,6.85c-4.67,0.84-6.65,2.1-7.87,5.54
	c-1.02,0.34-2.3,0.71-2.84,1.14c-0.45,0.36,0.38,3.05-0.11,3.31c-4.15,2.2-4.48,9.2-6.83,12.59c-2.82,4.07-1.99,5.14-1.9,9.24
	c0.19,8.86,0.24,16.7,3.91,24.47c1.06,2.25-1.29,6.77,1.21,8.65c7.78,5.86,15.14-2.32,18.3,11.62l30.8-0.53
	c7.47-5.37,15.14-9.55,22.84-13.29c6.42-3.12,10.44-6.99,18.66-5l13.62-3.91c1.69-0.48,3.56,1.09,5.2,0
	c1.14-0.76,1.94-3.17,3.21-4.23c5.11-2.67,11.1-0.57,16.63-2.41c0.74-0.87,0.56-2.5,0.69-3.62c0.04-0.39-0.03-0.8-0.01-1.2
	c0.07-1.29,0.15-2.77-0.98-3.33c-0.39-0.19-77.18-0.31-84.81-0.27c-5.23,0.02-10.88-2.05-11.5-8.01c6.11-2.09,10.03-6.8,14.04-10.4
	c3.69-3.3,7.4-4.9,9.38-9.78c3.65-9.02,3.6-18.24,3.95-27.59c0.25-6.82,2.62-13.59-4.06-17.99c-3.45-18.78-9.54-17.87-10.31-19.48
	c-2.25-4.7-8.77-6.72-12.05-10.08c-4.3-4.41-7.11-10-14.81-8.57c-0.22-6.74-4.03-12.03-9.04-16.62c-4.93-4.51-8.68-11.03-16.5-12.28
	c-1.8-0.29-3.74-0.17-3.9-2.39c-0.11-1.49,0.22-3.03,2.05-4.17c-2.06-3.5-2.07-7.26-2.23-11.79c-4.35,0.36-9.22-5.19-7.54-8.96
	c1.31-2.95,5.62-2.38,4.76-5.44c-0.65-2.34-2.22-12.56-5.59-11.67l-2.28-15.72c4.45-2.09,4.96-6.57,5.83-10.66l5.46-4.1
	c-0.4-6.39-0.43-13.15-2.88-19c-4.59-10.94,3.14-18.66-6.06-25.32c0.61-2.73-0.56-5.66,0.36-8.15c-0.95,2.73,7.84-5.2,7.85-5.24
	c2.81-12.99-2.77,2.97-0.18-15.7c3-0.68,4.79,0.62,8.04,0.22c-0.47,2.73,1.26,4.35,2.44,6.51c0.7,2.05-0.39,6.2,1.54,6.52
	c7.99-3.13,24.65,1.75,28.75-3.53l12.8,0.08c3.06,7.4,10.17,11.89,17.59,8.25c1.38,2.6,2.95,3.33,4.23,3.95
	c2.15,1.03,3.87-1.52,5.41-1.08l14.19,4.07c-0.29-2.64-2.23-4.97-4.73-6.19c2.4-3.06,4.45,0.86,6.07,0.75
	c2.33-0.17,5.34-2.76,6.99,0.15c-0.02,2.54-3.59,2.48-2.42,6.17c1.41-2.81,10.2,2.12,10.01,1.33l0.85,3.52
	c1.71-4.1,6.09-1.34,8.41,1.32c2.19,2.51-1.25,10.84-3.42,11.59c-1.28,0.44-1.2-2.19-3.7-1.16c5.54,4.19,4.92,10.04,6.41,17.28
	c2.76-4.14,5.72-6.78,10.35-7.25c0.11-3.95-3.01-6.06-3.42-9.49c1.37-1.35,2.17-2.95,3.2-4.09c1.14-1.28-1.68-2.73-1.5-4.16
	c4.49-3.79,9.92-2.21,14.32,0.4c2.02-0.11,4.64-2.78,7.26-0.35c0.01-4.92,4.2-7.57,8.04-7.7c-1.21,8.69,9.03,7.79,8.47,11.65
	c-0.29,2,0.78,2.79-2.76,2.44c1.39,3.42,5.66,6.24,9.33,6.45c0.63-1.06,1.17-2.94,1.85-2.95l3.09-0.07c-4.95,0.11,7.6-4.4,7.65-4.37
	l2.65,1.75c2.15,1.42,5.27-0.59,6.48,1.37c9.43,15.27-5.84-3.87,5.39,7.16c0.6,0.59,0.33,2.33,0.79,2.99
	c2.24,0.87,2.73-1.52,3.03-3.56c0.31-2.17-2.2-1.97-3.24-3.53c-0.17-1.4,1.25-3.15,1.82-4.12c0.72-1.22,2.26,1.06,3.59,0.6
	c1.58-0.55,2.89-1.71,4.33-2.13c1.1-0.32,2.32,1.83,3.51,1.9c3.41-2.06,7.14-4.82,10.69-2.03c0.75-1.42,1.03-2.28,1.68-2.65
	c0.99-0.56,1.51,0.56,1.63,1.12c1.12,5.27-2.94,3.79-1.23,6.13c0.68,0.93,1.49,3.78,2.82,1.94c0.6-0.83-0.3-2.28,0.08-3.02
	c0.47-0.91,1.85-0.74,2.3,0c0.27,0.43,1.05,1.12,2.14,1.71c5.52-2.66,11.77-5.66,16.82-2.2c-0.1,0.99-0.81,2.41,0.1,3.12
	c0.94,0.73,2.27,0.71,2.77-0.59c0.24-0.63-0.45-1.75-0.45-3.38c10.26,3.19,18.54,0.32,22,1.35c6.64,1.96,12.89,2.4,19.51,4.59
	c3.91-2.33,7.97-6.01,12.53-8.07c1.07,0.25,2.85,2.07,3.76,2.11c1.92,0.09,1.88-3.82,5.08-3.07c5.54,1.3-7.92,6.46-3.32,8.48
	c1.67-0.86,2.92-1.08,4.38-0.85c2.11,0.34,2.75,0.76,2.33,3.44c1.91-0.16,3.8-1.46,5.16,0.09c0.88,1,1.28,3.02,2.69,4.85
	c1.78,0.64,2.14-2.8,3.44-4.26c1.26-1.42-1.89-3.37-2.24-5.68c5.27-3.2,12.87-1.58,18.18,0.96c-0.23,1.89-1.22,3.33-0.55,4.31
	c0.29,0.42,4.14,4.17,5.84,2.67c0.9-0.79,0.37-2.24,0.08-3.92c2.03-0.8,1.83,1.44,2.46,2.67c0.64,1.25-0.46,2.03-1.25,3.46
	l7.35,4.57c1.48-0.3,2.64-2.55,4.03-0.85l2.88,3.51c2.11-3.99-0.73-6.58-4.16-8.6c-0.37-0.98,1.64-1.7,2.65-1.89
	c-1.32,0.25,13.55,9.91,10.64,8.81c-2.76,0.88-2.77-1.12-4.18-0.84c-1,0.2-1.67,0.7-1.79,2.16c0.01-0.11,2.86,4.85,2.97,4.89
	c0.63,0.19,2.17-0.73,3.31-0.58c0.11,2.81,3.14,4.49,4.33,6.45c1.48,2.44,20.75,36.7,13.78,36.63c-6.35,1.35-13.64,0.15-19.28,3.48
	c0.04,2.75-3.23,5.13-3.85,7.39c-1.61,5.86,1.03,13.01,3.76,18.31c2.92,0.01,4.99,0.24,6.73,2.32c4.98,5.98-0.26,11.91,3.72,17.9
	c5.79,8.7,7.21,5.49,16.2,18.35c3.56,5.1-3.11,22.44,4.51,22.81c1.05,0.05,1.9-2.82,3.28-1.49c0.64,0.61,1.94,1.6,1.78,2.72
	c-0.11,0.8-2.11,1.63-2.13,2.96c-0.02,1.68,2.15,2.43,1.66,4.29c-0.28,1.07-1.06,2.3-1.71,3.46c4.54,6.76,14.63,2.91,10.68,6.55
	c-0.73,0.67-3.05-0.17-3.76,0.94c-0.46,0.72-1.59,1.43-1.57,2.95c0.02,1.12,2.3,1.17,2.87,2.18c-0.77,2.02-3.45,2.14-5.89,0.88
	c-0.35,2.56-2.63,3.74-3.43,5.66c2.4,1.12,2.83-0.39,3.72-0.55c1.15-0.21,0.61,2.02,1.28,2.23c1.16-0.51,1.87-1.61,2.8-1.68
	c1.56-0.1,2.09,0.62,1.88,1.94c-0.17,1.08-0.23,2.44-1.41,2.51c-2.8,0.16-3.88-2.54-7.13-3.53c-2.12-0.64-2.52,1.75-4.32,2.34
	c-2.69,0.88-5.72-1.39-8.3-1.43c-12.28-0.21-10.66-13.1-14.02-19.44c-4.94,0.02-10.84,0.08-15.58-1.4c-0.76-2.33-0.32-5.18-1.67-6.4
	c-4.51-4.07-3.9,1.6-11.58-4.7c-1.88-1.54,2.19-3.53,1.42-5.57c-2.34-1.54-6.49-0.36-8.35-2.52c-1.72-1.99-3.08-4.53-3.24-7.58
	l-20.02,0.11c-2.26,4.98,1.79,8.56,1.37,13.07c-0.36,3.82,3.66,6.97,5.25,10.83c3.71,2.83,6.73,6.06,7.82,11.43l9.07,8.19
	c1.51,7.18,1.35,13.82,5.39,19.51c-2.2,0.72-3.25,1.34-3.18,2.62c0.04,0.73,2.22,1.12,2.22,2.19c0,2.08-2,4.44,0.2,6.38l5.63-4.09
	c-0.42,1.75-1.56,3.14-0.43,3.97c2.23,1.64,5.25-0.27,9.57,0.24c-0.65-0.08,6.08,8.42,5.95,10.15c0.24,0.61,2.29,0.62,2.49,1.31
	c0.31,1.07,0,1.92-0.67,2.38c-0.45,0.31-2.28,0.4-2.44,1.03c-0.3,2.51,3.8,2.69,5.95,2.61c0.09,2.17-2.3,2.42-4.09,3.29
	c0.94,1.52,2.68,1.24,4.26,2.09c-7.46,6.56-5.4-1.6-11.22,2.38c-0.98,0.67-0.29,2,0.7,2.07c0.73,0.05,1.42,0.2,3.13,0.72
	c-0.82,2.18-1.85,5.25-3.23,7.32c-0.48,0.72-3.28-0.07-3.9,0.49c-0.61,0.55-0.86,2.64,0.05,3.26c1.65-0.49,3.11-2.91,4.87-1.16
	c0.84,0.84,3.93,1.2,2.84,2.91c-0.71,1.11-2.17,1.42-2.65,1.99c-0.54,0.66-0.54,2.06,0.28,2.64c0.94,0.67,2.2,0.97,2.21,2.17
	c0.04,5.84-10.78-5.37-11.39,0.62c-0.32,3.17-2.67,5.44-3.23,8.07l-12.43,1.07c0.45,1.25,1.38,1.87,1.03,2.56
	c-0.32,0.63-0.88,0.7-1.3,0.72c-2.63,0.12-2.59-3.56-3.53-3.24l-3.07,1.05c-2.08,0.71-4.45-1.95-6.68-0.5
	c-1.93,1.26-1.35,3.51-2.33,6.1c-1.16,3.05-7.88,3.97-10.69,2.61c-2.97-1.43-4.81,1.45-6.36,1.35c-5.62-0.36-7.84,2.91-11.59,6.48
	c-3.4,3.23-10.56,0.78-14.77,1.22c-4.4,0.46-3.2,5.21-3.1,8.73c-17,1.06-6.58,4.11-18.66,5.23c-0.45,1.7-0.17,3.83-1.61,4.31
	c-1.2,0.4-3.45,0.03-4.81,0.16c-2.95,3.64-7.31,6.63-12.58,5.75c-0.47,1.25-0.21,3.22-1.38,3.6l-8.35,0.9
	c-0.86,3.49-5.74,2.52-7.13,4.04c-2.54,2.79-6.85,3.53-10.41,4.99c-4.49,1.83-8.29,5.74-13.17,7.44
	C610.4,1191.05,600.61,1193.27,600.18,1200z"/>
<path class="st2" d="M1200,195.76v105.41c-58.75,2.98-117.47,8.69-176.38,15.21c-90.82,10.06-181.32,19.41-272.4,27.51
	c-101.63,9.04-243.15,14.48-343.45,3.62l-121.7-13.18c-62.67-6.79-125.13-9.77-188.18-8.6L0,327.54v-84.96l130.73-4.15
	c114.55-3.64,228.66-4.66,343.24-8.92c87.9-3.27,175.11-4.19,262.56-2.83c10.11,21.23,33.32,33.95,55.8,34.43
	c24.24,0.52,45.34-13.3,56.65-34.42c48.73-1.85,97.63-4,146.4-10.22C1063.61,207.75,1131.67,200.04,1200,195.76z"/>
<path class="st3" d="M0,94.34V0h1200v90.03l-151.78,3.77c-55.9,1.39-111.55,2.39-167.65,1.16L264.35,81.5
	C204.85,80.2,146,81.11,87,86.45L0,94.34z"/>
<path class="st4" d="M1200,301.18v91.33c-26.54,4.13-52.95,6.74-80.17,7.99c-39.79,1.83-79.43,3-119.32,3.4
	c-59.95,0.59-119.05,6.5-177.68,19.32l-68.2,14.92c-31.42,6.87-62.56,11.65-94.21,14.71c-41.6-4.73-84.39-6.98-127.22-12.22
	c-73.3-8.96-132.66-25.88-209.18-30.29c-43.09-2.48-86.09-3.07-129.13-3.31c-65.8-0.37-130.48-6.09-194.9-17.38v-62.11l97.89-1.81
	c63.05-1.17,125.51,1.81,188.18,8.6l121.7,13.18c100.3,10.86,241.82,5.42,343.45-3.62c91.09-8.1,181.58-17.45,272.4-27.51
	C1082.53,309.86,1141.25,304.16,1200,301.18z"/>
<path class="st5" d="M1200,467.38v150.46c-40.81-4.47-81.61-9.21-123.05-10.44c-31.37-0.94-62.18,1.31-93.1,1.98l-19.84-31.17
	c-4.58-7.2-8.47-14.17-14.2-20.3l17.5,51.99L841.95,618c-93.82,6.08-187.88,8.52-281.46,1.04l-82.67-6.61
	c-7.16-47.66-29.7-24.82-30.14-53.56c32.92-1.02,65.96-0.99,99-5.39l87.21-11.62c28.51-3.8,56.32-5.73,85.08-6.97l94.31-4.07
	c35.48-1.53,70.28-6.53,104.36-14.69c18.64-4.46,37.1-9.05,55.85-14.89c23.2-7.23,46.3-13.91,70.23-18.73
	C1095.4,472.11,1147.66,467.92,1200,467.38z"/>
<path class="st6" d="M1104.46,658.61c13.81,18.82,24.69,39.72,34.77,60.9c16.1,33.82,28.82,68.67,38.09,105.32
	c7.07,27.95,11.4,56.25,15.7,84.46c2.9,19.02,1.55,38.81,5.27,57.63c1.3,6.58-1.28,14.49,1.71,20.38v150.59l-6.16,62.11h-129.68
	c-11.75-55.68-28.31-110.19-45.94-164.17c-19.6-60.03-40.18-120.05-63.85-178.58c-0.19-0.47,0.03-1.23,0-1.74
	c-0.07-1.38,0.08-3.59-1.7-3.56c-0.03-0.31-0.17-0.85-0.1-1.17c0.24-1.15-0.05-2.31-1.1-2.93c-0.37-0.22-0.42-0.78-0.62-1.11
	c0.29-2-0.52-4.33-2.32-5.33l-0.01-0.54c-0.09-4.09-2.22-8.48-4.69-11.79c-0.22-0.56-0.42-1.12-0.62-1.69
	c1.29-0.12,0.15-0.98,0.06-1.46c-0.15-0.77-1.01-1-1.22-1.51l-44.41-107.81c-0.04-1.28-0.85-2.39-0.78-4
	c6.56,4.1,11.45,9.77,17.19,14.51c41.57,41.82,76.03,87.99,102.75,140.56l28.97,57.01c28.5,65.2,52.07,131.26,70.91,200.98
	c5.77-45.75,9.21-90.25,11.06-134.8c1.38-33.15,1.77-66.71-1.48-99.61c-0.02-0.21,0.11-0.43,0.1-0.63
	c-2.2-57.19-10.81-114.87-21.75-171.06l-12-61.66c-1.36-6.96-3.14-13.57-4.37-21.39L1104.46,658.61z"/>
<path class="st7" d="M1200,392.51v74.87c-52.34,0.54-104.6,4.73-156.28,15.14c-23.93,4.82-47.03,11.49-70.23,18.73
	c-18.74,5.85-37.2,10.43-55.85,14.89c-90.2-10.27-181.16-18.04-272.49-21.91c-70.38-2.98-140.43-2.74-210.3-3.2l57.75-14.83
	c37.78-9.7,76.1-14.48,114.88-18.23l52.94-5.12c31.65-3.06,62.79-7.84,94.21-14.71l68.2-14.92
	c58.63-12.83,117.73-18.73,177.68-19.32c39.89-0.4,79.53-1.56,119.32-3.4C1147.05,399.25,1173.46,396.64,1200,392.51z"/>
<path class="st8" d="M660.42,452.85l-52.94,5.12c-38.79,3.75-77.1,8.53-114.88,18.23l-57.75,14.83
	c-42.6-0.28-85.31,0.48-128.42,0.05l-121.76-1.22l1.54-8.22l5.21-20.11l-16.86,28.36C116.4,491.65,58.17,491.16,0,491.6V389.65
	c64.42,11.28,129.1,17.01,194.9,17.38c43.04,0.24,86.04,0.83,129.13,3.31c76.52,4.41,135.88,21.33,209.18,30.29
	C576.03,445.87,618.82,448.12,660.42,452.85z"/>
<path class="st6" d="M270.78,718.97c-6.82,21.64-13.57,43.51-20.59,65.02c-31.4,96.19-75.21,260.75-75.35,359.75l-0.08,56.26h-61.67
	c2.35-86.08,13.65-172.01,33.99-255.96c10.7-44.18,25.7-86.88,44.55-128.04c6.61-14.44,17.31-27.14,21.66-41.94
	c12.18-17.73,23.19-36.36,36.89-53.31c9.32-11.54,19.43-22.34,30.52-33.24L270.78,718.97z"/>
<path class="st6" d="M64.58,733.08l-1.82,48.53c-1.09,28.96-3.24,58.42-0.56,87.28c-10.12,56.8-19.46,113.77-25.95,171.9
	c7.88,52.9,15.04,106,18.89,159.2H28.96c-6.67-38.83-13.71-77.55-22.24-116.27c-2.43-11.05-3.27-21.92-6.73-31.97V851.37
	l10.42,38.65c1-36.05,2.22-70.93,5.24-106.09c1.33-15.46,3.24-31.03,5.53-46.37C32.07,664.61,50.88,582.55,82.99,516
	C74.99,589.59,67.3,660.8,64.58,733.08z"/>
<path class="st9" d="M174.56,489.89c-18.37,30.9-31.24,64.94-43.81,99.05c-17.25,46.8-30.87,94.49-41.97,142.78
	c-0.86-0.06-1.72,0.28-2.56,0.33l-19.32,1.15c-0.77,0.05-1.54-0.06-2.31-0.12C67.3,660.8,74.99,589.59,82.99,516
	c-32.11,66.55-50.92,148.61-61.8,221.56L0,739.45V491.6C58.17,491.16,116.4,491.65,174.56,489.89z"/>
<path class="st10" d="M941.02,1030.09c1.19,3.87,2.51,7.46,4.48,11.52c24.66,50.91,45.56,103.98,60.69,158.39h-92.13
	c-11.11-35.99-24.1-72.12-39.16-106.55c-19.59-52.55-45.8-100.86-72.89-152.38c38.32,44.44,66.16,94.88,93.37,145.21
	c11.34,20.98,20.33,43.04,29.76,65.23c-5.21-23.53-14.56-45.38-22.17-67.47c-9.82-28.51-20.96-56.75-33.09-84.87
	c-23-53.33-46.59-106.45-72.91-157.76l-0.05-1.42c-0.28-7.56-7.35-12.38-7.1-21.68c43.61,38.94,70.54,76.42,102.11,125.5
	C910.02,971.93,924.79,1001.62,941.02,1030.09z"/>
<path class="st11" d="M410.73,799.87c0.06,3.03,6.35,2.09,8.21,0.52c15.17,2.64,30.71,3.69,45.6,7.46c0.13,0.75,0.44,2.27-0.16,2.94
	c1-1.12-11.53,4.28,3.7,0.03c0.51-0.14,0.96-1.35-0.03-1.67c-0.43-0.14-0.97-0.49-1.08-1.17c4.61,0.1,8.9,2.59,13.48,1.56
	c0.17-0.04,0.41-0.03,0.59,0l32.74,7.85c0.05,1.15-2.4,3.32,0.27,2.54c3.87,1.36,9.05,2.48,12.15-0.07l40.95,7.39
	c0.06,1.45-0.35,3.53,0.87,4.8c0.95,0.99,3.37-0.62,4.99-0.08c1.17,0.39,1.03,2.42,1.93,2.42c-4.15-0.01,12.34-3.89,8.56-4.5
	c1.39,0.22,2.99,0.03,4.17,0.84c0.01,0.75-1.41,1.32-1.48,1.94c-0.14,1.13,1.61,1.27,2.24,0.92c0.88-0.48,1.23-1.64,1.1-2.63
	c9.18,0.91,18.39,1.56,27.53,2.65c-0.18,1.76,1.24,2.48,2.81,2.93c1.69,0.49,3.32-0.27,3.58-2.17c3.55,0.43,7.15,0.63,10.59,1.2
	c-0.45,0.75-1.59-0.15-2.65,1.19c4.91,2.17,10.25,2.01,15.45,1.82c-0.68-0.88-1.34-0.71-1.52-1.05c-0.26-0.49-0.24-0.96-0.19-1.39
	h1.76c0.04,0.24-0.11,0.66,0.01,0.88c0.26,0.47,0.91,0.35,1.44,0.27c0.42-0.06,0.35-0.76,0.31-1.15c7.22,0.78,14.32,1.23,22.02,1.47
	l109.19,3.33c0.01,0.91,0.91,1.08,1.77,1.35c0.68,0.22,1.46,0.04,1.72-0.85l1.69-0.13c-1.13,2.35,7.28,4.4,8.2,3.85
	c1.16-0.7,1.58-2.15,0.77-3.55c0.97,0.08,2-0.38,2.98-0.2c26.32,51.31,49.91,104.44,72.91,157.76
	c12.13,28.12,23.27,56.36,33.09,84.87c-2.48,0.92-4.93,2.12-7.59,2.25c-27.21-50.33-55.05-100.77-93.37-145.21
	c27.09,51.52,53.3,99.83,72.89,152.38c-9.99,4.54-16.44,3.87-25.22,8.72c-28.91-37.64-61.86-72.41-103.59-99.95
	c28.37,36.55,54.43,71.32,76.11,109.33l-82.44,28.33c-46.8,16.08-92.34,35.53-134.85,60.11h-4.73c0.43-6.73,10.22-8.95,15.69-10.85
	c4.88-1.7,8.68-5.61,13.17-7.44c3.56-1.45,7.88-2.2,10.41-4.99c1.38-1.52,6.27-0.55,7.13-4.04l8.35-0.9
	c1.17-0.38,0.91-2.35,1.38-3.6c5.27,0.87,9.63-2.11,12.58-5.75c1.36-0.13,3.62,0.24,4.81-0.16c1.44-0.48,1.16-2.61,1.61-4.31
	c12.08-1.13,1.65-4.17,18.66-5.23c-0.1-3.52-1.29-8.27,3.1-8.73c4.21-0.44,11.37,2.01,14.77-1.22c3.75-3.56,5.97-6.84,11.59-6.48
	c1.56,0.1,3.4-2.78,6.36-1.35c2.81,1.35,9.53,0.44,10.69-2.61c0.99-2.59,0.4-4.84,2.33-6.1c2.23-1.45,4.6,1.21,6.68,0.5l3.07-1.05
	c0.94-0.32,0.89,3.35,3.53,3.24c0.42-0.02,0.97-0.08,1.3-0.72c0.35-0.68-0.58-1.31-1.03-2.56l12.43-1.07
	c0.56-2.63,2.91-4.9,3.23-8.07c0.61-5.99,11.43,5.22,11.39-0.62c-0.01-1.2-1.27-1.5-2.21-2.17c-0.82-0.58-0.83-1.99-0.28-2.64
	c0.47-0.57,1.94-0.89,2.65-1.99c1.09-1.71-1.99-2.08-2.84-2.91c-1.76-1.74-3.22,0.67-4.87,1.16c-0.91-0.62-0.66-2.71-0.05-3.26
	c0.62-0.56,3.43,0.23,3.9-0.49c1.38-2.07,2.41-5.14,3.23-7.32c-1.71-0.52-2.39-0.67-3.13-0.72c-0.99-0.07-1.68-1.4-0.7-2.07
	c5.82-3.98,3.76,4.18,11.22-2.38c-1.58-0.85-3.32-0.57-4.26-2.09c1.78-0.87,4.18-1.12,4.09-3.29c-2.15,0.07-6.26-0.1-5.95-2.61
	c0.16-0.63,1.99-0.73,2.44-1.03c0.67-0.46,0.97-1.31,0.67-2.38c-0.2-0.7-2.25-0.7-2.49-1.31c0.13-1.73-6.6-10.22-5.95-10.15
	c-4.32-0.51-7.34,1.39-9.57-0.24c-1.13-0.83,0-2.22,0.43-3.97l-5.63,4.09c-2.2-1.94-0.2-4.3-0.2-6.38c0-1.07-2.18-1.46-2.22-2.19
	c-0.07-1.28,0.98-1.91,3.18-2.62c-4.04-5.69-3.88-12.33-5.39-19.51l-9.07-8.19c-1.09-5.37-4.11-8.6-7.82-11.43
	c-1.6-3.86-5.61-7.01-5.25-10.83c0.42-4.51-3.63-8.1-1.37-13.07l20.02-0.11c0.16,3.05,1.52,5.59,3.24,7.58
	c1.87,2.16,6.02,0.98,8.35,2.52c0.77,2.03-3.3,4.02-1.42,5.57c7.68,6.3,7.07,0.63,11.58,4.7c1.35,1.22,0.91,4.08,1.67,6.4
	c4.74,1.48,10.64,1.42,15.58,1.4c3.36,6.34,1.74,19.22,14.02,19.44c2.58,0.04,5.61,2.31,8.3,1.43c1.8-0.59,2.2-2.98,4.32-2.34
	c3.25,0.98,4.33,3.69,7.13,3.53c1.17-0.07,1.23-1.43,1.41-2.51c0.21-1.32-0.32-2.04-1.88-1.94c-0.93,0.06-1.63,1.17-2.8,1.68
	c-0.67-0.21-0.13-2.44-1.28-2.23c-0.89,0.16-1.31,1.66-3.72,0.55c0.8-1.92,3.08-3.1,3.43-5.66c2.44,1.26,5.11,1.14,5.89-0.88
	c-0.57-1.01-2.85-1.06-2.87-2.18c-0.02-1.53,1.11-2.23,1.57-2.95c0.71-1.12,3.03-0.27,3.76-0.94c3.96-3.64-6.14,0.21-10.68-6.55
	c0.66-1.16,1.43-2.39,1.71-3.46c0.49-1.86-1.68-2.61-1.66-4.29c0.02-1.33,2.02-2.16,2.13-2.96c0.16-1.13-1.14-2.11-1.78-2.72
	c-1.39-1.33-2.24,1.55-3.28,1.49c-7.62-0.37-0.95-17.72-4.51-22.81c-8.99-12.86-10.41-9.65-16.2-18.35
	c-3.98-5.99,1.26-11.92-3.72-17.9c-1.73-2.08-3.81-2.31-6.73-2.32c-2.73-5.3-5.37-12.45-3.76-18.31c0.62-2.26,3.89-4.64,3.85-7.39
	c5.63-3.32,12.93-2.13,19.28-3.48c6.97,0.06-12.3-34.2-13.78-36.63c-1.19-1.96-4.22-3.64-4.33-6.45c-1.15-0.14-2.68,0.78-3.31,0.58
	c-0.11-0.03-2.96-5-2.97-4.89c0.12-1.46,0.79-1.97,1.79-2.16c1.41-0.28,1.42,1.72,4.18,0.84c2.91,1.11-11.95-8.56-10.64-8.81
	c-1.01,0.19-3.03,0.91-2.65,1.89c3.43,2.02,6.27,4.62,4.16,8.6l-2.88-3.51c-1.39-1.7-2.54,0.55-4.03,0.85l-7.35-4.57
	c0.79-1.44,1.89-2.21,1.25-3.46c-0.63-1.23-0.44-3.47-2.46-2.67c0.29,1.69,0.82,3.14-0.08,3.92c-1.7,1.49-5.55-2.25-5.84-2.67
	c-0.67-0.98,0.33-2.42,0.55-4.31c-5.3-2.54-12.91-4.15-18.18-0.96c0.35,2.31,3.5,4.26,2.24,5.68c-1.3,1.46-1.66,4.9-3.44,4.26
	c-1.41-1.84-1.81-3.85-2.69-4.85c-1.35-1.55-3.24-0.25-5.16-0.09c0.42-2.68-0.21-3.1-2.33-3.44c-1.46-0.24-2.71-0.02-4.38,0.85
	c-4.6-2.02,8.86-7.18,3.32-8.48c-3.2-0.75-3.16,3.16-5.08,3.07c-0.91-0.04-2.69-1.86-3.76-2.11c-4.56,2.06-8.62,5.74-12.53,8.07
	c-6.62-2.19-12.87-2.63-19.51-4.59c-3.45-1.02-11.74,1.84-22-1.35c0,1.63,0.69,2.74,0.45,3.38c-0.5,1.3-1.83,1.32-2.77,0.59
	c-0.91-0.7-0.2-2.12-0.1-3.12c-5.05-3.46-11.31-0.46-16.82,2.2c-1.09-0.59-1.87-1.28-2.14-1.71c-0.46-0.74-1.84-0.91-2.3,0
	c-0.38,0.74,0.53,2.2-0.08,3.02c-1.34,1.83-2.15-1.02-2.82-1.94c-1.71-2.34,2.35-0.86,1.23-6.13c-0.12-0.56-0.64-1.68-1.63-1.12
	c-0.65,0.37-0.93,1.23-1.68,2.65c-3.55-2.8-7.29-0.03-10.69,2.03c-1.19-0.07-2.41-2.22-3.51-1.9c-1.43,0.41-2.75,1.58-4.33,2.13
	c-1.33,0.46-2.88-1.82-3.59-0.6c-0.57,0.97-1.99,2.72-1.82,4.12c1.05,1.56,3.55,1.36,3.24,3.53c-0.29,2.04-0.78,4.43-3.03,3.56
	c-0.45-0.66-0.18-2.4-0.79-2.99c-11.23-11.03,4.03,8.11-5.39-7.16c-1.21-1.96-4.33,0.05-6.48-1.37l-2.65-1.75
	c-0.05-0.03-12.6,4.48-7.65,4.37l-3.09,0.07c-0.67,0.02-1.21,1.9-1.85,2.95c-3.68-0.2-7.94-3.03-9.33-6.45
	c3.54,0.35,2.47-0.44,2.76-2.44c0.56-3.86-9.68-2.96-8.47-11.65c-3.84,0.12-8.03,2.78-8.04,7.7c-2.63-2.44-5.25,0.24-7.26,0.35
	c-4.4-2.61-9.84-4.19-14.32-0.4c-0.18,1.43,2.64,2.88,1.5,4.16c-1.02,1.15-1.83,2.75-3.2,4.09c0.41,3.43,3.53,5.54,3.42,9.49
	c-4.63,0.46-7.59,3.11-10.35,7.25c-1.48-7.24-0.87-13.09-6.41-17.28c2.49-1.02,2.42,1.6,3.7,1.16c2.16-0.74,5.6-9.08,3.42-11.59
	c-2.32-2.66-6.7-5.42-8.41-1.32l-0.85-3.52c0.19,0.79-8.6-4.15-10.01-1.33c-1.17-3.69,2.4-3.63,2.42-6.17
	c-1.64-2.91-4.66-0.32-6.99-0.15c-1.62,0.12-3.67-3.81-6.07-0.75c2.51,1.22,4.44,3.55,4.73,6.19l-14.19-4.07
	c-1.54-0.44-3.26,2.11-5.41,1.08c-1.28-0.62-2.85-1.35-4.23-3.95c-7.42,3.64-14.52-0.85-17.59-8.25l-12.8-0.08
	c-4.1,5.28-20.76,0.4-28.75,3.53c-1.93-0.32-0.84-4.47-1.54-6.52c-1.18-2.16-2.91-3.78-2.44-6.51c-3.25,0.39-5.04-0.9-8.04-0.22
	c-2.59,18.67,2.99,2.71,0.18,15.7c-0.01,0.04-8.8,7.96-7.85,5.24c-0.92,2.49,0.25,5.42-0.36,8.15c9.19,6.66,1.47,14.38,6.06,25.32
	c2.45,5.85,2.48,12.61,2.88,19l-5.46,4.1c-0.88,4.09-1.38,8.57-5.83,10.66l2.28,15.72c3.37-0.89,4.94,9.33,5.59,11.67
	c0.86,3.06-3.45,2.49-4.76,5.44c-1.68,3.77,3.18,9.32,7.54,8.96c0.17,4.53,0.18,8.29,2.23,11.79c-1.83,1.15-2.16,2.68-2.05,4.17
	c0.16,2.22,2.11,2.1,3.9,2.39c7.83,1.25,11.58,7.78,16.5,12.28c5.02,4.59,8.82,9.88,9.04,16.62c7.7-1.43,10.51,4.16,14.81,8.57
	c3.28,3.36,9.8,5.38,12.05,10.08c0.77,1.61,6.86,0.71,10.31,19.48c6.68,4.39,4.32,11.16,4.06,17.99c-0.35,9.35-0.3,18.57-3.95,27.59
	c-1.97,4.88-5.69,6.48-9.38,9.78c-4.01,3.59-7.93,8.31-14.04,10.4c0.62,5.97,6.28,8.04,11.5,8.01c7.63-0.04,84.42,0.08,84.81,0.27
	c1.12,0.56,1.05,2.04,0.98,3.33l-55.89,3.11l-37.16-1.7c-4.6-0.21-8.32-3.32-9.99-6.43c-2.42-4.5-1.64-8.94,1.31-12.17
	c2.56-2.53,6.54-0.76,8.04-3.95c0.86-1.24,3.04-1.61,4.24-2.31c0.53,0.33,1.07-0.09,1.74-0.26c0.47-0.12,1.36-0.68,0.56-1.27
	c0.32-0.11,0.74-0.62,1.05-0.8c-0.02,0.31,0.17,0.55,0.38,0.61c0.37,0.11,0.72-0.01,0.81-0.34c0.06-0.22-0.07-0.71,0.03-0.94
	c6.66-5.81,10.1-14.8,11.04-23.34c1.49,0.35,1.38-1.07,1.3-2.06c-0.08-0.98,0.41-2.38-0.79-2.63c0.2-1.79-0.28-4.03,0.14-5.86
	c1.37,0.33,1.26-0.99,1.26-2.06c0-0.87-0.13-1.78-1.3-1.46c-0.25-4.92-2.73-9.27-3.65-14.06c-0.07-0.38,0.35-0.9,0.15-1.4
	c-0.17-0.44-0.68-0.47-1.15-0.4c-1.5-2.48-3.03-4.98-4.13-7.66c0.8-0.37,0.38-1.1,0.03-1.4c-0.6-0.5-1.1-0.74-1.67-0.84
	c-0.27-0.56-1.4-1.05-1.41-1.87c-0.57-2.41-3.09-5.46-5.6-5.67c-1.37-1.52-3.39-2.45-4.56-4.16c0.33-0.42,0.51-1.18,0.05-1.22
	c-0.72-0.07-1.18,0.02-1.53,0.04c-0.33-0.39-0.72-0.72-1.02-1.14c0.7,0.11,0.6-0.66,0.21-0.67c-0.44-0.01-0.7-0.03-0.87-0.01
	c-0.7-0.4-1.44-0.84-1.74-1.63c-0.13-0.35,0.15-0.98-0.27-1.27c-0.24-0.17-1.12-0.06-0.94,0.44c-4.6-3.28-9.09-6.52-14.47-8.76
	c-1.02-2.73-2.4-5.66-3.61-8.05c0.31-0.01,0.51-0.18,0.56-0.39c0.09-0.39-0.05-0.75-0.33-0.83c-0.27-0.07-0.77,0.16-0.97,0
	c-2.6-1.93-4.5-4.78-6.94-6.88c-0.07-0.35,0.05-1.03-0.35-1.25c-0.44-0.24-0.97-0.11-1.38-0.08c-1.08-0.45-2.16-1.41-2.97-2.23
	c-0.13-0.32,0.04-0.97-0.35-1.2c-0.45-0.27-1.1,0.18-1.41,0.01c-3.91-2.04-7.61-4.4-12.01-6.26c-1.05-2.7-2.14-5.3-2.7-7.9
	c0.17-0.13,0.46-0.3,0.59-0.48c0.27-0.38,0.02-0.67-0.21-0.69c-0.41-0.03-0.71-0.01-0.95,0c-3.85-5.7-5.36-11.57-5.85-18.64
	c-0.49-7.16-2.72-13.98-0.87-20.65c1.16,0.1,3.78-0.03,3.85-1.45c-0.92-1.74-2.1-3.54-3.47-4.37c-0.23-2.34,0.35-4.83,1.03-7.04
	c3.27,0.43,2.74-5.43,2.53-8.19c3.44-11.16-3.31-27.58-3.99-47.32c1.79-0.37,3-2.67,3.01-4.59c0.01-1.54-1.77-3.39-3.3-3.7
	c-0.03-0.81-0.26-2.35-0.46-3.14c1.81,0.11,3.3-0.78,3.87-2.18c0.89-2.21-2.54-9.93-3.33-8.81l1.73-17.59
	c0.39,0.02,1.13,0.15,1.22-0.3c0.1-0.49,0.19-1.18-0.27-1.45c-0.22-0.12-0.66,0.04-0.9-0.01v-1.17
	C403,798.38,406.9,798.95,410.73,799.87z M431.93,811.89c-0.95,0.67-2.02,2.51-1.49,3.19c0.7,0.91,2.36,0.4,2.96,0.01
	c0.79-0.51,2.75-1.38,1.69-2.52C434.46,811.91,432.87,811.23,431.93,811.89z M604.6,842.11c1.84,1.21,3.67-0.66,4.11-2.18
	c0.38-1.33-1.27-4.07-2.73-2.7C605.89,839.02,606.59,840.77,604.6,842.11z M771.03,849.11c-1.89-0.2-3.68-0.82-5.54-0.58
	c-0.62,2.31,1.14,2.4,2.57,2.75C769.38,851.61,770.43,851.27,771.03,849.11z M832.16,1063.4c-0.32,3.3,2.23,6.95,4.13,8.93
	c0.92-3.78-0.94-7.43,2.12-9.07l3.92,5.51c2.67-3.91,2.11-8.78,1.18-13.03c-0.92-4.21,1.5-9.19-0.51-13.53
	c-1.33-2.86-8.56-1.74-10.25,0.62c-1.62,2.26-4.57,3.84-7.23,5.53l7.71,3.73l-8.11,1.32c1.05,3.74,0.64,7.04-0.06,11.02
	c2.99-1,7.39-6.32,8.23-5.49c0.78,0.76,1.6,1.24,1.59,2.2C834.87,1062.34,832.26,1062.44,832.16,1063.4z M849.51,1079.8
	c1.86-0.13,2.58-0.56,3.05-2.17c-0.12,0.4,0.82-8.5-3.18-8.47c-2.17,0.02-2.68,0.65-3.71,2.75c-1.38,2.81-9.44-2.3-6.69,3.05
	c0.52,1.01,2.88,0.5,3.36,1.16C843.93,1078.86,845.71,1080.06,849.51,1079.8z M793.42,1094.31c-2.19,1.36-0.62,3.21-1.46,4.39
	c-0.61,0.85-2.46,0.27-3.27,1.09c-1.24,1.24,0.25,2.59,1.48,2.51C793.4,1102.08,794.01,1094.26,793.42,1094.31z"/>
<path class="st10" d="M190.92,588.45c-14.69,45.48-28.37,91.47-39.2,138l-12.55,53.93c-12.72,54.66-18.55,110.82-24.17,166.6
	c-8.46,84.02-12.25,168.56-10.37,253.03H89.55c-9.62-55.59-16.54-111.54-21.53-168.13c-3.55-40.26-6.32-80.39-6.67-120.67
	c7.78-33.36,16.74-65.86,26.58-98.48c12.96-43,29.16-84.65,47.28-125.36c8.2-18.43,17.46-36.64,27.93-54.25l26.36-44.37
	C189.78,588.38,190.53,588.46,190.92,588.45z"/>
<path class="st12" d="M954.38,857.26l-45.94-5.88c36.59,61.27,65.71,125.02,89.97,192.35l19.82-7.89
	c17.62,53.98,34.19,108.49,45.94,164.17h-57.97c-15.13-54.4-36.03-107.48-60.69-158.39c-1.97-4.06-3.29-7.65-4.48-11.52
	c-19.25-62.58-43.86-124.35-70.86-183.99c-13.34-29.47-25.27-59.85-39.79-88.53c-0.07-0.21-0.13-0.45-0.15-0.67
	c-0.22-1.78-2.06-3.1-1.46-5.52c31.32,27.43,57,63.53,78.91,98.82C923.74,851.77,939.11,854.09,954.38,857.26z"/>
<path class="st11" d="M281.45,785.74c-2.61,7.19-5.33,14.94-5.94,22.67c-0.53,6.68-3.69,12.68-1.02,19.77
	c6.2,0.19,12.78-3.65,17.42-7.96c0.23,2.88-2.15,8.17,1.36,9.78c12.96,0.66,29.85-23.58,36.56-29.27c5.11-4.33,13.43-7.26,19.96-8.6
	c7.01-1.45,14.6,2.15,21.67,2c-0.27,14.3-6.4,28.13-6.71,42.72c-0.31,14.63,2.87,28.77,2.89,43.83c0.01,8.85-3.25,18.09-2.96,27.25
	c0.36,11.37,7.71,22.3,8.28,35.27c-10.69-3.35-21.8-5.27-32.56-6.28c3.3-10.67,6.55-21.39,8.27-33.4
	c-7.19,10.32-15.16,19.37-20.47,28.87c-12.16-5.43-20-17.42-36.14-17.87c-0.63,1.53,0.24,4.41-0.97,4.98
	c-1.09,0.51-3.38-1.23-4.55-0.76c7.37-29.97,21.27-58.7,31.84-89.8c-20.73,19.53-36.13,42.87-49.76,66.72
	c-50.24,87.91-79.41,204.69-92.26,304.34h-1.61l0.08-56.26c0.14-99.01,43.96-263.56,75.35-359.75L281.45,785.74z"/>
<path class="st12" d="M186.2,481.64c-20.65,67.3-37.89,136.45-51,205.72c-18.12,40.71-34.31,82.36-47.28,125.36
	c-9.83,32.62-18.8,65.12-26.58,98.48c0.36,40.28,3.12,80.41,6.67,120.67c4.99,56.59,11.9,112.54,21.53,168.13H55.13
	c-3.84-53.2-11.01-106.3-18.89-159.2c6.49-58.14,15.84-115.1,25.95-171.9l15.56-87.37l8.91-42.07c0.04-0.21,0.01-0.59,0.13-0.76
	c1.41-1.96,1.44-4.64,1.97-6.97c11.09-48.3,24.72-95.98,41.97-142.78c12.57-34.11,25.44-68.15,43.81-99.05l16.86-28.36L186.2,481.64
	z"/>
<path class="st12" d="M271.33,595.38c-15.35,41.04-29.82,82.63-42.18,124.69l-15.86,53.98c-4.35,14.8-15.05,27.51-21.66,41.94
	c-18.85,41.16-33.85,83.86-44.55,128.04c-20.34,83.95-31.64,169.88-33.99,255.96h-8.45c-1.88-84.47,1.91-169,10.37-253.03
	c17.16-55.13,30.46-111.97,52.38-165.9l23.11-56.83c18.64-45.85,42.92-89.19,72.46-128.97c3.94-5.31,7.87-10.54,13.01-15.88
	C274.54,584.89,273.22,590.33,271.33,595.38z"/>
<path class="st12" d="M868.54,1200H604.91c42.51-24.58,88.06-44.02,134.85-60.11l82.44-28.33
	C838.38,1139.93,857.16,1168.77,868.54,1200z"/>
<path class="st12" d="M286.55,918.74c-5.48,4.34-5.34,13.49-7.73,19.96c-28.3,76.58-48.41,180.15-61.52,261.3h-40.93
	c12.85-99.65,42.02-216.42,92.26-304.34c13.63-23.85,29.03-47.19,49.76-66.72C307.81,860.04,293.92,888.77,286.55,918.74z"/>
<path class="st10" d="M340.41,936.92c-6.48,20.96-12.46,42.17-18.1,63.36l-13.17,49.53l-10.46,43.62
	c-8.5,35.45-16.81,70.68-21.52,106.58h-50.4c8.45-58.5,48.67-173.18,76.7-223.32l24.75-44.28c5.31-9.5,13.28-18.55,20.47-28.87
	C346.95,915.53,343.7,926.25,340.41,936.92z"/>
<path class="st9" d="M1200,617.84v40.6c-31.86-0.31-64.18-3.01-95.54,0.18l-16.21-22.1c1.24,7.82,3.02,14.43,4.37,21.39l-80.59,3.72
	l-28.18-52.25c30.92-0.67,61.73-2.91,93.1-1.98C1118.39,608.63,1159.19,613.37,1200,617.84z"/>
<path class="st10" d="M849.68,1102.17c23.52,30.62,43.62,63.63,61.56,97.83h-42.7c-11.39-31.23-30.16-60.07-46.34-88.44
	c-21.67-38.01-47.74-72.78-76.11-109.33C787.81,1029.77,820.77,1064.54,849.68,1102.17z"/>
<path class="st7" d="M1200,717.52v193.45l-6.98-1.68c-4.3-28.21-8.63-56.51-15.7-84.46c-9.27-36.66-21.99-71.5-38.09-105.32
	c0.32-1.02,1.44-1.39,2.82-1.4L1200,717.52z"/>
<path class="st11" d="M303.45,976.68c-28.03,50.14-68.25,164.83-76.7,223.32h-9.45c13.1-81.15,33.22-184.72,61.52-261.3
	c3.33,8.03,9.88,13.87,14.45,21.33L303.45,976.68z"/>
<path class="st13" d="M1200,658.44v59.09l-57.95,0.58c-1.38,0.01-2.5,0.38-2.82,1.4c-10.08-21.17-20.97-42.08-34.77-60.9
	C1135.82,655.42,1168.14,658.13,1200,658.44z"/>
<path class="st11" d="M328.69,1006.63c0.12,2.03,2.14,4.05,4.18,4.11c2.31,1.67,4.57,3.55,6.42,5.72c0.13,0.19-0.05,0.69,0,0.97
	c0.05,0.28,0.39,0.43,0.8,0.36c0.2-0.04,0.62-0.08,0.4-0.5c2.72,2.08,5.62,4,8.15,6.3c-0.1,0.43-0.11,1.02,0.36,1.1
	c0.35,0.06,0.75-0.12,0.96-0.05l21.52,12.95l0,0.97c0,0.25,0.52,0.39,0.83,0.33c0.23-0.05,0.42-0.32,0.43-0.63
	c48.67,22.65,59.74-5.3,68.71-5.16c6.34,0.1,13.7,13.5,6.72,23.92c-1.97,0.21-4.93-0.19-6.8,1.1c-1.4,0.96-0.32,4.3-1.33,5.94
	c-1.55,0.58-2.65,2.58-4.53,2.53c-0.58-0.01-1.2-0.01-1.78,0.24c-0.55,0.23-0.76,0.84-0.71,1.46c-0.33,0.12-0.62,0.62-1.03,0.63
	c-0.37,0.01-1.01-0.21-1.26,0.18c-0.18,0.29-0.07,0.7-0.05,0.94c-2.42,2.97-5.73,5.4-6.34,9.27c-0.88,0-1.47,0.57-1.37,1.44
	c0.07,0.58-0.05,1.51,0.76,1.49c-1.17,6.18-1.28,12.47-1.08,18.75c0.01,0.42-0.33,0.91-0.15,1.41c0.18,0.5,0.77,0.41,1.22,0.35
	c0.1,0.38,0.42,0.72,0.46,1.12c-0.24,0.17-0.64,0.62-0.48,0.86c0.28,0.42,0.92,0.23,1.2,0.33l4.59,6.42
	c0.27,0.38-0.35,1.47,0.35,1.75c0.47,0.19,1.01,0.08,1.43,0.07c0.75,0.36,1.36,0.95,1.73,1.7c0.08,0.42-0.3,1.3,0.3,1.8
	c0.23,0.19,0.8-0.41,0.93-0.65l9.3,6.47c0.02,0.35,0.07,0.63,0.11,0.88c0.07,0.37,0.33,0.5,0.77,0.35c0.2-0.07,0.39-0.34,0.41-0.61
	c9.92,4.05,21.01,4.35,30.96,0.5c0.02,1.05,1.17,0.7,1.81,0.48c0.72-0.26,1.19-0.83,1.12-1.61c1.13-0.44,2.39-0.98,3.58-1.15
	c1.87,1.35,3.28-1.25,4.55-2.27c5.62-4.49,12.91-5.49,19.89-6.91c-0.25,0.41,0.12,0.97,0.45,1.01c0.44,0.06,1.21,0.24,1.3-0.34
	l0.14-0.88c4.12-1.53,8.57-2.09,12.87-2.99c0.08,0.99,1.22,0.74,2.06,0.77c0.72,0.03,1.08-0.5,0.89-1.3
	c1.09-0.1,2.15-1.26,3.42-0.98c-0.22,0.4,0.07,1,0.4,1.04c0.52,0.07,1.24,0.24,1.32-0.34c0.04-0.29,0.09-0.61,0.12-0.93
	c7.7-2.15,15.51-4.6,23.36-5.73c-0.13,1.12,0.06,2.74-0.69,3.62c-5.52,1.84-11.52-0.26-16.63,2.41c-1.28,1.06-2.07,3.47-3.21,4.23
	c-1.64,1.09-3.51-0.48-5.2,0l-13.62,3.91c-8.22-1.99-12.24,1.88-18.66,5c-7.7,3.74-15.37,7.92-22.84,13.29l-30.8,0.53
	c-3.17-13.94-10.52-5.76-18.3-11.62c-2.5-1.88-0.15-6.4-1.21-8.65c-3.67-7.77-3.72-15.61-3.91-24.47c-0.09-4.1-0.92-5.16,1.9-9.24
	c2.35-3.39,2.67-10.39,6.83-12.59c0.5-0.26-0.34-2.95,0.11-3.31c0.54-0.43,1.82-0.8,2.84-1.14c1.21-3.45,3.2-4.7,7.87-5.54
	c-3.93-7.32-11.76-9.23-19.13-6.85c-2.33,0.75-5.51-1.77-7.8-0.03c-1.5,1.14-2.78,3.75-3.51,6.44c-0.92,0.2-11.18-1.68-10.75-1.45
	c-0.6-0.32-0.54-2.33-1.44-2.5c-1.7-0.32-2.7,1.33-4.11,0.92c-1.38-0.41-1.73-1.98-2.41-3.18l-13.71-2.8
	c-4.04-0.83-5.66-1.57-8.71-4.9c-2.17-2.37-8.4-1.43-10.17-5.4c-0.57-1.27-1.04-4.13-2.29-4.54c-1.2-0.39-4.13-1.63-5.4-1.48
	c-5.58,0.66-8.76-3.41-12.17-4.73c-5.96-2.31-9.7,1.06-12.61,2.91c-7.2,4.58-3.56,21.57-4.21,30.76c-4.3,0.66-8.05,16.95-7.95,15.49
	c-0.1,1.34,2.01,1.4,2.48,2.47c1.33,3.09-2.5,6.04-2.66,8.91l-0.85,14.66c-0.08,1.44-0.91,2.78-1.37,3.81
	c-0.62,1.41-3.14,0.37-4.2,1.37c-4.82,4.55-5.66,12.29-3.5,18.29c1.22,3.4-1.11,6.38-0.9,9.1c0.56,7.05-0.09,12.64-3.05,18.66
	c-5.35,10.9-5.31,24.18-6.96,36.28c-4.46,2.03-8.13,4.78-9.05,9.81h-3.93c4.71-35.89,13.02-71.13,21.52-106.58l10.46-43.62
	l13.17-49.53C324.78,1001.99,326.56,1004.53,328.69,1006.63z"/>
<path class="st12" d="M28.96,1200H0v-148.24c3.46,10.05,4.3,20.92,6.73,31.97C15.26,1122.45,22.3,1161.17,28.96,1200z"/>
<path class="st12" d="M914.06,1200h-2.82c-17.95-34.2-38.04-67.2-61.56-97.83c8.79-4.85,15.23-4.18,25.22-8.72
	C889.97,1127.88,902.95,1164.01,914.06,1200z"/>
<path class="st11" d="M15.66,783.93c-3.02,35.16-4.24,70.04-5.24,106.09L0,851.37v-66.8L15.66,783.93z"/>
<path class="st14" d="M21.19,737.56c-2.29,15.34-4.2,30.9-5.53,46.37L0,784.57v-45.12L21.19,737.56z"/>
<path class="st11" d="M1200,910.98V967l-1.71-0.07c-3.72-18.82-2.37-38.62-5.27-57.63L1200,910.98z"/>
<polygon class="st12" points="1200,1137.89 1200,1200 1193.84,1200 "/>
<path class="st12" d="M1200,967v20.3c-2.99-5.89-0.41-13.8-1.71-20.38L1200,967z"/>
<path class="st14" d="M848.99,226.68c-11.31,21.12-32.41,34.94-56.65,34.42c-22.47-0.48-45.68-13.2-55.8-34.43
	c-12.87-27-4.68-58.2,17.78-76.06c22.9-18.21,54.98-17.8,77.54,0.44C854.59,169.42,861.04,200.15,848.99,226.68z"/>
<path class="st15" d="M400.87,785.18c-1.12,3.84-0.49,8.31-1.62,12.03l-0.25,0.84v1.17c0,0.58,0.01,1.18-0.05,1.76l-1.73,17.59
	c-0.36,3.66-1.49,7.3-0.53,10.99c0.2,0.79,0.43,2.33,0.46,3.14l0.29,8.29c0.68,19.74,7.43,36.16,3.99,47.32l-2.53,8.19
	c-0.68,2.2-1.26,4.7-1.03,7.04c0.15,1.47,0.01,4.38-0.39,5.82c-1.84,6.66,0.38,13.49,0.87,20.65c0.49,7.07,2,12.94,5.85,18.64
	c0.23,0.34,0.16,0.91,0.56,1.17c0.57,2.61,1.65,5.21,2.7,7.9c4.41,1.86,8.1,4.22,12.01,6.26c0.27,0.75,1.05,1.02,1.76,1.19
	c0.81,0.82,1.88,1.78,2.97,2.23c0.54,0.23,0.75,1.65,1.73,1.33c2.44,2.1,4.34,4.94,6.94,6.88c0.03,0.52,0.54,0.81,0.74,1.21
	c1.22,2.39,2.6,5.32,3.61,8.05c5.38,2.24,9.87,5.48,14.47,8.76c0.39,0.28,0.65,0.81,1.21,0.83c0.3,0.79,1.04,1.24,1.74,1.63
	c0.23,0.13,0.5,0.46,0.66,0.68c0.3,0.42,0.69,0.75,1.02,1.14c0.42,0.49,0.84,0.96,1.48,1.18c1.17,1.71,3.2,2.63,4.56,4.16
	c1.73,1.93,3.48,4.22,5.6,5.67c0.01,0.81,1.14,1.3,1.41,1.87c0.39,0.82,0.99,1.68,1.65,2.23c1.1,2.68,2.63,5.18,4.13,7.66
	c0.34,0.56,0.1,1.61,1,1.79c0.92,4.79,3.4,9.14,3.65,14.06c0.06,1.1,0.3,2.43,0.04,3.52c-0.43,1.83,0.05,4.07-0.14,5.86l-0.52,4.69
	c-0.94,8.54-4.38,17.53-11.04,23.34c-0.53,0-0.81,0.44-1.21,0.67c-0.32,0.18-0.74,0.7-1.05,0.8c-0.95,0.12-1.54,1.09-2.3,1.53
	c-1.2,0.7-3.38,1.07-4.24,2.31c-3.44-0.17-5.91,1.63-8.04,3.95c-2.95,3.22-3.73,7.67-1.31,12.17c1.67,3.11,5.39,6.22,9.99,6.43
	l37.16,1.7l55.89-3.11c-0.02,0.4,0.05,0.81,0.01,1.2c-7.85,1.12-15.66,3.58-23.36,5.73c-0.6-0.06-1.26,0.36-1.84,0.23
	c-1.26-0.28-2.32,0.88-3.42,0.98c-1.05,0.1-1.98,0.33-2.95,0.54c-4.3,0.9-8.75,1.46-12.87,2.99c-0.63,0.05-1.26,0.08-1.88,0.21
	c-6.98,1.43-14.27,2.42-19.89,6.91c-1.75,0.2-3.2,1.27-4.55,2.27c-1.19,0.18-2.45,0.71-3.58,1.15l-2.93,1.13
	c-9.95,3.85-21.05,3.55-30.96-0.5c-0.43-0.18-0.78-0.6-1.29-0.62l-9.3-6.47c-0.27-0.51-0.72-0.88-1.23-1.15
	c-0.36-0.75-0.98-1.34-1.73-1.7c-0.41-0.77-0.99-1.44-1.78-1.82l-4.59-6.42c-0.16-0.42-0.11-1.23-0.72-1.19
	c-0.04-0.41-0.36-0.74-0.46-1.12c-0.18-0.69-0.35-1.46-1.07-1.76c-0.2-6.28-0.09-12.57,1.08-18.75c0.18-0.93,0.91-1.86,0.6-2.93
	c0.61-3.88,3.92-6.31,6.34-9.27c0.3-0.37,1.6-0.2,1.31-1.12c0.41-0.01,0.71-0.51,1.03-0.63c0.99-0.3,2.4-0.48,2.49-1.7
	c1.88,0.05,2.98-1.95,4.53-2.53c3.67-1.39,6.11-4.02,8.13-7.04c6.98-10.42-0.38-23.81-6.72-23.92c-8.96-0.14-20.04,27.81-68.71,5.16
	c-0.42-0.19-0.86-0.43-1.26-0.67l-21.52-12.95c0.11-0.29-0.04-0.49-0.17-0.63c-0.31-0.35-0.91-0.2-1.16-0.42
	c-2.53-2.3-5.43-4.21-8.15-6.3c-0.38-0.29-0.66-0.77-1.19-0.83c-1.86-2.17-4.11-4.05-6.42-5.72l-4.18-4.11
	c-2.13-2.1-3.91-4.64-6.39-6.35c5.64-21.19,11.62-42.4,18.1-63.36c10.75,1.01,21.87,2.93,32.56,6.28
	c-0.58-12.97-7.92-23.9-8.28-35.27c-0.29-9.17,2.97-18.4,2.96-27.25c-0.02-15.07-3.2-29.2-2.89-43.83
	c0.31-14.59,6.44-28.42,6.71-42.72c1.43-0.82,1.36-2.61,2.29-3.8c2.31-0.58,4.14-2.5,6.57-2.24c-0.48,2.13-0.83,4.35-1.03,6.73
	l3.29,0.34c-0.77,0.19-2.13,0.81-3.39,0.74l-4.87,27.79c-0.81,4.62,1.24,8.55,1.11,12.54c-0.17,4.99-2.34,9.68-1.95,15.23
	c1.18,17.09-0.79,34.35,0.73,51.38c0.37,4.12,1.69,5.48,0.94,10.38c-1.19,7.73,2.52,17.02,4.14,24.79
	c1.05,5.05,6.9,8.21,10.71,10.52c1.38-2.21,2.39-4.22,2.68-6.38c-1.33-11.31-3.4-22.15-5.89-33.31c3.05-9.62,6.85-18.15,10.83-27.12
	l-11.25-46.45c2.39-12.9,4.01-26.82,5.15-37.62c0.08-0.76-1.72-0.83-1.96-0.92c-0.23-0.09-0.31-0.2,0.03-1.01
	c0.45,0.21,1,0.54,1.57,0.38c0.5-0.14,0.8-0.79,0.88-1.53l0.78-7.16C395.68,787.37,398.18,786.03,400.87,785.18z"/>
<path class="st13" d="M490.87,523.09c-9.77,1.65-20.7-5.34-23.56-0.43c-1.27,2.18-0.5,4.82,1.25,6.58c2.9,2.91,6.66,1.31,10.08,1.68
	c5.39,0.58,10.01,4.25,15.29,6.35c-11.34,3.43-23.55,2.34-35.66,4.48c-7.62,1.35-10.72,10.31-10.61,17.14
	c0.44,28.74,22.98,5.9,30.14,53.56c3.54,24.55,0.46,49.95-12.17,71.76c-6.95,12-15.94,21.91-24,33.68l83.96-0.07
	c55.92-0.04,111.13-4.95,166.39-13.61l123.54-19.38c56.19-8.81,112.16-15.92,168.44-20.91c6.75,20.26,12.66,40.77,18.42,61.39
	c-0.55,0.02-1.09,0.1-1.64,0.14l-80.3,5.41c-2.76,0.19-4.23-2.31-6.41-3.73c-5.73-4.74-10.63-10.41-17.19-14.51
	c-0.07,1.61,0.74,2.72,0.78,4c0.2,5.65,5.49,10.38,4.71,15.42c-77.08,3.66-153.79,13.21-229.33,30.77
	c-58.5,13.59-115.68,30.76-172.68,48.3c-0.81,0.25-1.95,0.03-2.16,1.13l-17.13-2.69c-0.17-0.03-0.42-0.04-0.59,0
	c-26.87-5.37-54.13-9.39-81.22-12.33c1.13-3.72,0.5-8.19,1.62-12.03c2.28-7.84,5.25-15.48,6.93-23.48
	c18.05-14.17,30.63-33.83,29.8-57.3c-0.39-10.87-4.1-19.55-13.37-24.66c0.07-0.94-0.58-1.98-0.59-2.95
	c-0.04-8.33-2.57-16.95-10.6-21.02c-5.84-2.96-12.87-1.78-19,0.9c-35.35,15.42-59.71,47.26-79.58,79.12
	c-5.34,8.56-10.16,16.98-17.62,24.86c3.4-8.3,7.46-16.91,8.17-27.04c-5.13,8.16-6.62,17.31-10.78,25.81
	c-4.35,8.89-9.46,17.23-12.77,26.32l-31.26-1.75c7.02-21.51,13.77-43.38,20.59-65.02l40.15-1.02
	c18.84-32.92,43.28-68.23,76.33-86.47c17.44-9.62,36.84-4.92,47.95,10.87c1.66,2.36,4.58,4.11,7.09,3.49
	c10.44-2.55,10.27-24.65,7.22-35.9c-4.75-17.52-26.05-11.89-27.15-50.95c-0.46-16.49,5.33-32.64,17.93-43.54
	C456.92,501.08,477.76,511.18,490.87,523.09z"/>
<path class="st9" d="M967.31,609.88c6.02,17.89,10.74,36.23,16.67,54.02c-56.28,5-112.25,12.1-168.44,20.91L692,704.2
	c-55.26,8.67-110.47,13.57-166.39,13.61l-83.96,0.07c8.06-11.77,17.05-21.69,24-33.68c12.63-21.81,15.71-47.21,12.17-71.76
	l82.67,6.61c93.58,7.48,187.64,5.04,281.46-1.04L967.31,609.88z"/>
<path class="st9" d="M434.85,491.03c69.88,0.46,139.92,0.23,210.3,3.2c91.33,3.86,182.28,11.64,272.49,21.91
	c-34.08,8.16-68.88,13.16-104.36,14.69l-94.31,4.07c-28.77,1.24-56.57,3.18-85.08,6.97l-87.21,11.62c-33.04,4.4-66.08,4.37-99,5.39
	c-0.1-6.82,2.99-15.79,10.61-17.14c12.11-2.14,24.32-1.05,35.66-4.48l59.38,4.95c-2.99-3.49-7.2-4.37-11.17-5.56
	c-16.68-4.99-33.24-9.57-50.6-13.4c-0.09-0.02-0.28-0.11-0.68-0.16c-13.11-11.91-33.96-22.01-50.56-7.65
	c-12.6,10.9-18.39,27.05-17.93,43.54l-74.95,1.63c-41.54,0.91-82.87,5.67-123.06,15.79l-41.6,10.48c2.39,1.48,5.07-0.09,6.72,1.84
	l-26.36,44.37c-10.47,17.62-19.73,35.82-27.93,54.25c13.11-69.27,30.34-138.41,51-205.72l-1.54,8.22l121.76,1.22
	C349.53,491.51,392.25,490.75,434.85,491.03z"/>
<path class="st12" d="M983.85,609.37l28.18,52.25c10.93,20.28,19.93,41.81,28.5,63.21c20.7,51.7,38.91,104.36,53,158.75l32.83,7.04
	c0.01,0.21-0.12,0.43-0.1,0.63l-32.68-6.69l26.36,109.13l7.8-2.84c-1.85,44.54-5.29,89.04-11.06,134.8
	c-18.84-69.72-42.42-135.78-70.91-200.98c-1.65-17.94-6.2-35.51-9.21-53.25c-8.37-49.26-20.7-98-34.16-146.14
	c-5.77-20.62-11.67-41.13-18.42-61.39c-5.93-17.79-10.65-36.13-16.67-54.02l-17.5-51.99c5.73,6.13,9.61,13.11,14.2,20.3
	L983.85,609.37z"/>
<path class="st11" d="M954.38,857.26c23.66,58.53,44.25,118.55,63.85,178.58l-19.82,7.89c-24.26-67.33-53.38-131.08-89.97-192.35
	L954.38,857.26z"/>
<path class="st13" d="M1092.62,657.9l12,61.66l-1.29,0.06l-57.46,3.04c-2.18,0.12-5.59-0.23-5.33,2.17
	c-8.57-21.4-17.56-42.94-28.5-63.21L1092.62,657.9z"/>
<path class="st11" d="M1126.26,891.26c3.26,32.9,2.86,66.46,1.48,99.61l-7.8,2.84l-26.36-109.13L1126.26,891.26z"/>
<path class="st9" d="M1104.62,719.56c10.94,56.2,19.55,113.88,21.75,171.06l-32.83-7.04c-14.09-54.39-32.3-107.05-53-158.75
	c-0.26-2.4,3.16-2.06,5.33-2.17c-3.97,3.24-1.14,7.24,0.11,11.6c2.9,10.14,7.75,19.41,11.18,29.31l13.2,38.02
	c6.92,19.93,12.75,39.71,19,60.08c2.09,6.82,2.26,13.88,5.25,20.84l30.7,6.29c-3.37-57.48-11-113.54-21.99-169.18L1104.62,719.56z"
	/>
<path class="st11" d="M1036.56,871.44c3.01,17.74,7.56,35.31,9.21,53.25l-28.97-57.01L1036.56,871.44z"/>
<path class="st9" d="M1002.41,725.3c13.46,48.14,25.79,96.87,34.16,146.14l-19.76-3.75c-26.72-52.57-61.17-98.74-102.75-140.56
	c2.17,1.41,3.65,3.91,6.41,3.73c39.25,43.18,69.1,82.1,96.34,135.05c5.65,1.78,11.74,3.63,18.51,2.96
	c-9.78-48.58-19.68-96.79-34.55-143.42C1001.31,725.4,1001.86,725.32,1002.41,725.3z"/>
<path class="st9" d="M942.06,824.42c0.1,1.1,0.81,1.98,1.16,2.97c0.2,0.57,0.4,1.13,0.62,1.69l4.69,11.79l0.01,0.54
	c1.23,1.58,1.31,3.65,2.32,5.33c0.2,0.33,0.24,0.89,0.62,1.11c0.04,1.07,0.27,2.19,1.1,2.93c-0.07,0.32,0.07,0.86,0.1,1.17l1.7,3.56
	c0.02,0.51-0.19,1.27,0,1.74c-15.27-3.17-30.64-5.49-46.71-7.06c-21.91-35.28-47.59-71.39-78.91-98.82
	c-0.59,2.42,1.24,3.74,1.46,5.52c-2.09-0.56-3.53-4.13-1.8-6.14c7.17,3.36,11.36,9.81,16.69,14.6c6.2,5.58,11.62,11.24,16.45,17.61
	c13.09,17.28,26.8,33.78,38.15,52.59c2.85,4.72,6.6,8.45,9.24,13.55l43.45,5.65l-44.24-110.28c-1.78-4.44-3.73-8.58-5.79-12.46
	c0.78-5.04-4.51-9.77-4.71-15.42L942.06,824.42z"/>
<path class="st12" d="M948.54,840.87l-4.69-11.79C946.32,832.39,948.44,836.78,948.54,840.87z"/>
<path class="st12" d="M950.87,846.74c-1.01-1.68-1.09-3.75-2.32-5.33C950.35,842.42,951.16,844.74,950.87,846.74z"/>
<path class="st9" d="M449.54,609.94c3.05,11.25,3.22,33.35-7.22,35.9c-2.51,0.61-5.43-1.13-7.09-3.49
	c-11.12-15.78-30.52-20.49-47.95-10.87c-33.05,18.24-57.5,53.55-76.33,86.47l-40.15,1.02l9.92-31.47
	c-11.08,10.9-21.2,21.7-30.52,33.24c-2.21-0.94-22.16,2.27-21.03-0.67c12.36-42.06,26.83-83.65,42.18-124.69l141.1,11.51
	C425.21,607.93,437.22,609.75,449.54,609.94z"/>
<path class="st14" d="M250.18,720.74c-13.7,16.96-24.72,35.58-36.89,53.31l15.86-53.98C228.02,723.01,247.97,719.79,250.18,720.74z"
	/>
<path class="st11" d="M69.14,781.64c2.17,0.96,5.53,1.1,7.62-0.06l1-0.04L62.2,868.9c-2.68-28.86-0.53-58.32,0.56-87.28
	C64.9,781.47,67.02,781.53,69.14,781.64z"/>
<path class="st14" d="M66.89,733.2c-1.02,1.25-1.58,2.75-1.65,4.66l-1.57,42.1c4.76,0.85,9.12,0.69,13.44-0.05l9.56-40.45
	l-8.91,42.07l-1,0.04c-2.53,0.11-5.09,0.2-7.62,0.06c-2.12-0.11-4.24-0.18-6.38-0.03l1.82-48.53
	C65.35,733.14,66.12,733.25,66.89,733.2z"/>
<path class="st13" d="M86.21,732.05c0.98,2.07,0.33,4.41,0.59,6.65c-0.12,0.17-0.09,0.55-0.13,0.76l-9.56,40.45
	c-4.32,0.74-8.68,0.9-13.44,0.05l1.57-42.1c0.07-1.9,0.63-3.41,1.65-4.66L86.21,732.05z"/>
<path class="st14" d="M88.78,731.73c-0.54,2.34-0.57,5.02-1.97,6.97c-0.26-2.24,0.39-4.57-0.59-6.65
	C87.06,732,87.91,731.66,88.78,731.73z"/>
<path class="st11" d="M783.89,809.75l30.97,31.54l55.3,4.81c27,59.64,51.61,121.41,70.86,183.99
	c-16.22-28.47-30.99-58.16-49.09-86.29c-31.57-49.08-58.5-86.57-102.11-125.5c-0.25,9.3,6.82,14.13,7.1,21.68
	c-0.04-0.39-0.17-0.32-0.36-0.02l-8.32-17.89c0.01-0.18,0.04-0.43-0.03-0.6c-1.6-4.07-3.55-8.08-5.98-11.71
	c-0.18-0.47,0.37-0.71,0.67-0.45C783.16,809.55,783.55,809.56,783.89,809.75z"/>
<path class="st3" d="M498.19,812.22c23.33,3.66,46.35,9.92,70.16,13.97c75.71,12.86,152.29,11.15,228.21,13.77
	c0.19-0.29,0.33-0.37,0.36,0.02l0.05,1.42c-0.98-0.19-2.01,0.28-2.98,0.2c-2.98-0.25-5.99-0.52-8.96-0.29l-1.69,0.13
	c-0.84-1.15-2.31-0.47-3.49-0.5l-109.19-3.33c-7.69-0.23-14.8-0.69-22.02-1.47c-0.58-0.06-1.18,0-1.76,0h-1.76
	c-3.68,0-7.44,0.04-11.09-0.56c-3.44-0.57-7.04-0.77-10.59-1.2l-6.39-0.77c-9.14-1.1-18.34-1.75-27.53-2.65
	c-0.49-0.05-1.42-0.06-1.86-0.23c-1.17-0.81-2.78-0.62-4.17-0.84l-16.34-2.64l-40.95-7.39c-3.65-0.66-8.85-1.49-12.41-2.47
	l-32.74-7.85L498.19,812.22z"/>
<path class="st12" d="M895.38,1086.29c2.66-0.13,5.11-1.32,7.59-2.25c7.61,22.09,16.96,43.94,22.17,67.47
	C915.71,1129.33,906.72,1107.26,895.38,1086.29z"/>
<path class="st1" d="M832.16,1063.4c0.09-0.96,2.71-1.07,2.72-2.27c0.01-0.96-0.81-1.44-1.59-2.2c-0.84-0.83-5.24,4.49-8.23,5.49
	c0.71-3.98,1.12-7.27,0.06-11.02l8.11-1.32l-7.71-3.73c2.65-1.69,5.61-3.27,7.23-5.53c1.69-2.36,8.93-3.48,10.25-0.62
	c2.01,4.34-0.42,9.32,0.51,13.53c0.93,4.25,1.49,9.12-1.18,13.03l-3.92-5.51c-3.06,1.64-1.2,5.29-2.12,9.07
	C834.4,1070.36,831.85,1066.71,832.16,1063.4z"/>
<path class="st1" d="M849.51,1079.8c-3.81,0.26-5.58-0.94-7.17-3.68c-0.48-0.66-2.85-0.15-3.36-1.16c-2.74-5.35,5.32-0.23,6.69-3.05
	c1.03-2.1,1.55-2.74,3.71-2.75c4-0.03,3.06,8.87,3.18,8.47C852.1,1079.24,851.38,1079.68,849.51,1079.8z"/>
<path class="st3" d="M480.47,809.54c-4.59,1.03-8.88-1.46-13.48-1.56c-0.75-0.02-1.72,0.06-2.44-0.12
	c-14.9-3.77-30.44-4.82-45.6-7.46c-2.6-0.45-5.7,0.08-8.21-0.52c-3.83-0.91-7.73-1.49-11.73-1.82l0.25-0.84
	C426.34,800.15,453.59,804.17,480.47,809.54z"/>
<path class="st1" d="M583.49,829.89c3.79,0.61-12.7,4.49-8.56,4.5c-0.9,0-0.75-2.03-1.93-2.42c-1.61-0.54-4.03,1.08-4.99,0.08
	c-1.22-1.27-0.81-3.35-0.87-4.8L583.49,829.89z"/>
<path class="st1" d="M526.21,819.85c-3.1,2.56-8.28,1.44-12.15,0.07c-2.67,0.78-0.22-1.39-0.27-2.54
	C517.36,818.37,522.56,819.19,526.21,819.85z"/>
<path class="st1" d="M396.68,829.56c-0.95-3.69,0.17-7.33,0.53-10.99c0.79-1.13,4.23,6.6,3.33,8.81
	C399.98,828.77,398.49,829.67,396.68,829.56z"/>
<path class="st1" d="M645.12,836.13c-0.05,0.43-0.06,0.89,0.19,1.39c0.18,0.34,0.83,0.17,1.52,1.05
	c-5.19,0.19-10.53,0.36-15.45-1.82c1.05-1.33,2.19-0.44,2.65-1.19C637.68,836.17,641.44,836.13,645.12,836.13z"/>
<path class="st1" d="M793.99,841.6c0.81,1.4,0.4,2.85-0.77,3.55c-0.91,0.55-9.33-1.49-8.2-3.85
	C788,841.08,791.01,841.35,793.99,841.6z"/>
<path class="st1" d="M397.43,840.98l-0.29-8.29c1.53,0.31,3.31,2.16,3.3,3.7C400.43,838.31,399.21,840.6,397.43,840.98z"/>
<path class="st1" d="M793.42,1094.31c0.59-0.06-0.02,7.77-3.25,7.99c-1.24,0.08-2.72-1.26-1.48-2.51c0.81-0.82,2.66-0.23,3.27-1.09
	C792.8,1097.53,791.23,1095.68,793.42,1094.31z"/>
<path class="st1" d="M397.47,909.34c0.4-1.44,0.53-4.35,0.39-5.82c1.37,0.83,2.54,2.63,3.47,4.37
	C401.25,909.32,398.63,909.45,397.47,909.34z"/>
<path class="st1" d="M431.93,811.89c0.94-0.66,2.53,0.02,3.15,0.68c1.06,1.13-0.9,2.01-1.69,2.52c-0.59,0.39-2.25,0.9-2.96-0.01
	C429.91,814.4,430.98,812.56,431.93,811.89z"/>
<path class="st1" d="M604.6,842.11c1.99-1.34,1.28-3.09,1.38-4.88c1.46-1.37,3.11,1.37,2.73,2.7
	C608.28,841.45,606.44,843.31,604.6,842.11z"/>
<path class="st1" d="M623.44,834.38c-0.25,1.9-1.89,2.65-3.58,2.17c-1.57-0.45-2.99-1.17-2.81-2.93L623.44,834.38z"/>
<path class="st1" d="M398.89,896.48l2.53-8.19C401.63,891.05,402.16,896.91,398.89,896.48z"/>
<path class="st1" d="M771.03,849.11c-0.59,2.15-1.65,2.5-2.98,2.17c-1.43-0.35-3.18-0.43-2.57-2.75
	C767.34,848.3,769.14,848.92,771.03,849.11z"/>
<path class="st1" d="M418.95,800.39c-1.86,1.57-8.15,2.5-8.21-0.52C413.24,800.47,416.35,799.94,418.95,800.39z"/>
<path class="st1" d="M466.99,807.98c0.11,0.68,0.66,1.04,1.08,1.17c0.99,0.32,0.54,1.53,0.03,1.67c-15.23,4.25-2.7-1.15-3.7-0.03
	c0.6-0.67,0.29-2.19,0.16-2.94C465.27,808.04,466.24,807.96,466.99,807.98z"/>
<path class="st1" d="M459.35,1079.23c-1.5,3.19-5.48,1.42-8.04,3.95C453.44,1080.87,455.9,1079.06,459.35,1079.23z"/>
<path class="st1" d="M467.98,1008.91c-2.12-1.45-3.87-3.74-5.6-5.67C464.89,1003.45,467.42,1006.5,467.98,1008.91z"/>
<path class="st1" d="M479.2,1050.59l0.52-4.69c1.19,0.25,0.71,1.64,0.79,2.63C480.58,1049.52,480.69,1050.94,479.2,1050.59z"/>
<path class="st5" d="M422.39,558.99c1.1,39.05,22.4,33.43,27.15,50.95c-12.32-0.19-24.33-2.01-37.11-3.05l-141.1-11.51
	c1.89-5.05,3.21-10.49,4.64-15.98c-5.14,5.34-9.07,10.57-13.01,15.88l-45.01-3.99c-9.32-0.83-18.02-3.08-27.03-2.84
	c-0.4,0.01-1.14-0.06-1.42,0.29c-1.65-1.93-4.33-0.37-6.72-1.84l41.6-10.48c40.18-10.12,81.52-14.88,123.06-15.79L422.39,558.99z"/>
<path class="st9" d="M262.96,595.27c-29.54,39.77-53.82,83.12-72.46,128.97l-38.77,2.2c10.83-46.53,24.51-92.51,39.2-138
	c9.01-0.24,17.71,2.02,27.03,2.84L262.96,595.27z"/>
<path class="st11" d="M167.39,781.07c-21.93,53.93-35.23,110.77-52.38,165.9c5.62-55.78,11.45-111.94,24.17-166.6L167.39,781.07z"/>
<polygon class="st13" points="190.5,724.24 167.39,781.07 139.18,780.37 151.73,726.44 "/>
<path class="st7" d="M902.36,732.03c2.07,3.88,4.01,8.02,5.79,12.46l44.24,110.28l-43.45-5.65c-2.64-5.1-6.4-8.83-9.24-13.55
	c-11.35-18.82-25.06-35.32-38.15-52.59c-4.83-6.37-10.25-12.03-16.45-17.61c-5.32-4.79-9.51-11.24-16.69-14.6
	c-1.72,2-0.28,5.57,1.8,6.14c0.03,0.22,0.08,0.46,0.15,0.67c5.02,15.45,12.74,30.16,19.7,45.31l18.37,41.71l-52.35-4.82
	c-11.53-9.72-19.88-23.2-32.2-30.01c-0.34-0.19-0.73-0.2-0.99-0.43c-0.3-0.26-0.85-0.02-0.67,0.45c1.63,4.12,2.08,9.54,5.98,11.71
	c0.06,0.16,0.03,0.42,0.03,0.6c-0.19,5.9,4.74,10.1,5.58,17.12l-134.34-4.48c-50.35-1.68-110.82-11.4-159.12-23.61
	c57-17.54,114.18-34.71,172.68-48.3C748.57,745.24,825.28,735.69,902.36,732.03z"/>
<path class="st9" d="M870.16,846.1l-55.3-4.81l-30.97-31.54c12.32,6.81,20.67,20.29,32.2,30.01l52.35,4.82l-18.37-41.71
	c-6.96-15.15-14.68-29.85-19.7-45.31C844.89,786.26,856.82,816.63,870.16,846.1z"/>
<path class="st9" d="M423.64,676.79c-3.41,25-14.19,47.09-33.3,64.63c-14.01,12.87-28.9,25.28-45.78,34.38
	c-14.62,7.88-28.09,16.35-39.15,28.84c-4.63,5.23-8.54,10.97-13.5,15.58c-4.63,4.31-11.22,8.15-17.42,7.96
	c-2.68-7.09,0.48-13.09,1.02-19.77c0.62-7.73,3.33-15.49,5.94-22.67c3.31-9.09,8.42-17.43,12.77-26.32
	c4.16-8.5,5.64-17.66,10.78-25.81c-0.71,10.13-4.77,18.74-8.17,27.04c7.46-7.87,12.28-16.3,17.62-24.86
	c19.88-31.86,44.23-63.7,79.58-79.12c6.14-2.68,13.17-3.86,19-0.9C421.07,659.84,423.59,668.46,423.64,676.79z"/>
<path class="st0" d="M424.22,679.74c-1.38,18.15-6.87,36.95-17.17,52.32c-13.47,20.1-36.49,28.35-34.81,49.12
	c-6.15,5.92-15.09,7.31-22.45,10.94c-6.52,1.35-14.85,4.27-19.96,8.6c-6.72,5.69-23.6,29.93-36.56,29.27
	c-3.5-1.61-1.12-6.9-1.36-9.78c4.95-4.61,8.87-10.36,13.5-15.58c11.06-12.49,24.53-20.97,39.15-28.84
	c16.88-9.1,31.76-21.51,45.78-34.38c19.11-17.54,29.89-39.63,33.3-64.63C423.64,677.77,424.29,678.81,424.22,679.74z"/>
<path class="st15" d="M328.2,932.39l-24.75,44.28l-10.19-16.64c-4.57-7.46-11.11-13.3-14.45-21.33c2.39-6.48,2.25-15.62,7.73-19.96
	c1.17-0.47,3.46,1.27,4.55,0.76c1.21-0.57,0.33-3.45,0.97-4.98C308.21,914.97,316.04,926.96,328.2,932.39z"/>
<path class="st14" d="M373.75,790.32c-0.93,1.2-0.86,2.98-2.29,3.8c-7.07,0.15-14.66-3.45-21.67-2c7.36-3.64,16.3-5.02,22.45-10.94
	C372.47,783.99,373.32,787.36,373.75,790.32z"/>
<path class="st1" d="M448.16,1057.01c-2.02,3.01-4.46,5.65-8.13,7.04c1.01-1.64-0.07-4.98,1.33-5.94
	C443.23,1056.82,446.19,1057.21,448.16,1057.01z"/>
<path class="st1" d="M486.84,1119.16c-1.27,1.02-2.68,3.62-4.55,2.27C483.64,1120.43,485.09,1119.36,486.84,1119.16z"/>
<path class="st1" d="M332.87,1010.74c-2.04-0.06-4.05-2.08-4.18-4.11L332.87,1010.74z"/>
<path class="st11" d="M389.59,795.7c-0.34,0.81-0.26,0.92-0.03,1.01c0.23,0.09,2.03,0.16,1.96,0.92
	c-1.13,10.8-2.76,24.72-5.15,37.62l11.25,46.45c-3.98,8.98-7.78,17.5-10.83,27.12c2.49,11.17,4.56,22.01,5.89,33.31
	c-0.29,2.16-1.3,4.18-2.68,6.38c-3.81-2.31-9.66-5.47-10.71-10.52c-1.61-7.76-5.33-17.06-4.14-24.79c0.75-4.9-0.57-6.26-0.94-10.38
	c-1.52-17.03,0.45-34.28-0.73-51.38c-0.38-5.56,1.78-10.24,1.95-15.23c0.14-3.99-1.91-7.93-1.11-12.54l4.87-27.79
	c1.25,0.07,2.62-0.56,3.39-0.74L389.59,795.7z"/>
<path class="st9" d="M407.8,761.7c-5.93,4.65-12.64,7.89-17.63,13.36c-3.56,3.9-8.43,6.77-9.84,13.02
	c-2.42-0.26-4.25,1.66-6.57,2.24c-0.43-2.97-1.28-6.34-1.51-9.14c-1.68-20.76,21.34-29.02,34.81-49.12
	c10.3-15.37,15.8-34.17,17.17-52.32c9.28,5.11,12.99,13.79,13.37,24.66C438.43,727.87,425.85,747.53,407.8,761.7z"/>
<path class="st0" d="M407.8,761.7c-1.67,8-4.65,15.64-6.93,23.48c-2.69,0.85-5.19,2.2-8.05,2.2l-2.66-12.32
	C395.16,769.59,401.87,766.35,407.8,761.7z"/>
<path class="st14" d="M390.16,775.06l2.66,12.32l-0.78,7.16c-0.08,0.74-0.38,1.39-0.88,1.53c-0.57,0.16-1.13-0.16-1.57-0.38
	l-7.02-0.55l-3.29-0.34c0.2-2.38,0.55-4.59,1.03-6.73C381.73,781.83,386.61,778.96,390.16,775.06z"/>
<path class="st7" d="M1000.76,725.44c14.86,46.63,24.77,94.85,34.55,143.42c-6.77,0.67-12.87-1.18-18.51-2.96
	c-27.24-52.95-57.09-91.87-96.34-135.05L1000.76,725.44z"/>
<path class="st12" d="M493.94,537.26c-5.28-2.09-9.9-5.77-15.29-6.35c-2.9-4.53,13.35-3.01,12.91-7.66
	c17.36,3.83,33.92,8.41,50.6,13.4c3.97,1.19,8.18,2.07,11.17,5.56L493.94,537.26z"/>
<path class="st9" d="M500.35,811.1c48.3,12.21,108.77,21.93,159.12,23.61l134.34,4.48c-0.83-7.02-5.77-11.22-5.58-17.12l8.32,17.89
	c-75.91-2.61-152.49-0.9-228.21-13.77c-23.81-4.05-46.83-10.31-70.16-13.97C498.39,811.13,499.54,811.35,500.35,811.1z"/>
<path class="st0" d="M490.87,523.09c0.4,0.06,0.6,0.14,0.68,0.16c0.44,4.65-15.8,3.13-12.91,7.66c-3.42-0.36-7.18,1.23-10.08-1.68
	c-1.75-1.76-2.52-4.39-1.25-6.58C470.18,517.76,481.11,524.74,490.87,523.09z"/>
<path class="st7" d="M1103.32,719.62c10.99,55.64,18.62,111.7,21.99,169.18l-30.7-6.29c-2.99-6.96-3.15-14.02-5.25-20.84
	c-6.25-20.37-12.08-40.15-19-60.08l-13.2-38.02c-3.44-9.9-8.28-19.17-11.18-29.31c-1.25-4.36-4.08-8.37-0.11-11.6L1103.32,719.62z"
	/>
<path class="st12" d="M76.76,781.58c-2.09,1.17-5.45,1.03-7.62,0.06C71.67,781.78,74.23,781.69,76.76,781.58z"/>
<path class="st9" d="M788.21,821.48c-3.9-2.17-4.35-7.59-5.98-11.71C784.66,813.39,786.61,817.4,788.21,821.48z"/>
<g>
</g>
<g>
</g>
<g>
</g>
<g>
</g>
<g>
</g>
<g>
</g>
<g>
</g>
<g>
</g>
<g>
</g>
<g>
</g>
<g>
</g>
<g>
</g>
<g>
</g>
<g>
</g>
<g>
</g>
</svg>
