<?xml version="1.0" encoding="iso-8859-1"?>
<!-- Generator: Adobe Illustrator 30.2.1, SVG Export Plug-In . SVG Version: 9.03 Build 0)  -->
<svg version="1.1" id="Layer_1" xmlns="http://www.w3.org/2000/svg" xmlns:xlink="http://www.w3.org/1999/xlink" x="0px" y="0px"
	 viewBox="0 0 1200 1543" style="enable-background:new 0 0 1200 1543;" xml:space="preserve">
<style type="text/css">
	.st0{fill:#F1F0F0;}
	.st1{fill:#1B75FE;}
	.st2{fill:#7EB0F0;}
	.st3{fill:#0966F9;}
	.st4{fill:#519DFD;}
	.st5{fill:#B3B2C6;}
	.st6{fill:#DDD5DD;}
	.st7{fill:#2A53A0;}
	.st8{fill:#8B91B5;}
	.st9{fill:#0B37C4;}
	.st10{fill:#044CCB;}
	.st11{fill:#989EBC;}
	.st12{fill:#042055;}
	.st13{fill:#072A80;}
	.st14{fill:#0946CC;}
	.st15{fill:#0B40C9;}
	.st16{fill:#0465FB;}
	.st17{fill:#515F8F;}
	.st18{fill:#1A2847;}
	.st19{fill:#054BBA;}
	.st20{fill:#0C3BC7;}
	.st21{fill:#010102;}
	.st22{fill:#C8BEC5;}
	.st23{fill:#96BAEF;}
</style>
<path class="st0" d="M1200,693.19v151.05l-1.11,3.42c-14.75,6.92-29.52,13.81-44.31,20.66l-2.58-1.76l-2.86,0.71l-33.72-42.51
	l11.97,52.76l-2.25,2.15l0.27,2.82c-14.43,6.46-28.86,12.91-43.3,19.37l-2.54-1.8c-3.38-1.78-5.83-5.34-7.35-10.66
	c1.7,5.54,1.86,10.37,0.48,14.47l-2.08,2.94c-16.68,8.32-33.36,16.82-50.03,25.49l-6.67,0.92l-2.91,0.46l-36.34-54.64l14.66,62.71
	l-2.24,2.18l0.1,2.95c-18.74,9.42-37.49,18.84-56.25,28.26l-2.63-1.67l-5.09-3.79l-14.43-24l9.28,31.09l-2.11,2.28l0.31,2.82
	c-77.41,37.07-154.83,74.15-232.27,111.24l-2.65-1.7l-3.33-1.27c-13.94-16.44-28.13-32.78-42.57-49l17.84,62.47l-2.14,2.26
	l0.05,2.95c-23.61,11.42-47.23,22.85-70.86,34.28l-2.61-1.71l-2.9,0.55l-31.35-43.68c7.76,15.96,12.9,32.41,15.41,49.34l-1.46,2.41
	c0.35,1,0.7,2.6,0.05,2.95c-17.54,9.35-38.48,19.42-56.75,27.29l-2.61-1.72l-2.6,1.11l-17.41-19.55l6.38,20.05l-1.08,5.11l0.35,2.8
	c0,0-16.14,7.79-48.42,23.36l-2.58-1.73l-2.92,0.4l-27.39-43.33c6.18,15.55,10.8,31.37,13.87,47.47l-1.13,3.2l0.06,2.93
	c-12.66,5.95-25.33,11.9-38,17.85l-2.89-1.6l-2.66,0.97l-24.08-29.76l10.89,34.76l-1.97,2.67l-0.27,3.12
	c-33.25,16.41-67.16,33.14-100.4,49.54l-2.64-1.68l-3.77-1.53c-3.94-8.09-8.76-15.44-14.78-21.99
	c-3.05-3.32-26.48-24.56-28.36-24.61c4.89,33.04,7.33,49.56,7.33,49.56l45.4,15.53l4.72,4.45l2.16-2.01
	c24.66,10.12,49.33,20.25,74.01,30.38l0.46,3.08l3.87-0.92c9.91,5.31,19.89,10.48,29.95,15.52l2.1,3.58
	c5.72-1.89,16.91,3.92,21.47,7.61l-0.1,3.05c1.85,0.29,3.69,0.63,5.48,1.15c1.76,0.51,3.49,1.04,5.04,1.9
	c32.67,18.18,65.08,37.03,96.41,57.47c4.57,2.96,4.59,4.71,1.27,7.53l-292.79-88.89c-65.53-21.88-131.93-29.12-200.08-35.86
	c-4.48-0.44-8.78-1.83-13-3.35v-77.68l1.13-3.44c14.84-6.66,29.68-13.32,44.52-19.97l2.55,1.79c1.62-0.45,3.04-0.46,4.24-0.03
	l22.32,17.98l17.46,26.13c-3.65-17.77-8.58-35.22-14.79-52.35l1.35-4.92c0.31-2.52,2.29-4.29,5.94-5.29
	c7.88-6.79,16.25-9.49,25.1-8.1c3-1.28,4.9,0.84,5.75,3.82c0.57,7.35,1.38,14.59,2.43,21.72l35.96,49.5
	c-4.19-19.75-9.31-39.66-18.8-57.63l0.04-5.34l7.28-3.54c44.31-5.25,85.69-22.25,125.32-41.73l4.2-0.29l2.89-0.6l36.38,49.12
	l-8.21-63.89l2.45-1.94c1.72-1.85,3.47-3.67,5.36-5.32c1.88-1.65,3.76-3.26,5.85-4.51c41.43-24.8,86.21-47.14,130.96-65.3
	c2.26-0.92,4.68-1.44,7.13-1.95c2.46-0.51,4.97-0.82,7.48-1.07l2.87-0.69l39.48,49.36l-14.11-59.34l2.23-2.19
	c2.88-2.88,4.32-4.33,4.32-4.33c38.89-9.67,75.94-23.22,111.16-40.64c19.06-13.58,38.66-26.39,58.8-38.44l2.77,1.42l2.93,0.31
	l21.09,60.93c0.29,2.2,15.44,19.31,15.86,18.18c1.55-4.2-3.51-34.01-5.13-40.97c-3.03-13-8.91-19.8-19.37-27.97l-5.98-7.18
	c-2.77-2.81-3.28-5.3-1.53-7.48c0.39-1.06,0.83-2.1,1.42-3.03c0.59-0.92,1.15-1.78,1.93-2.24c23.43-13.65,53.66-25.85,79.15-35.68
	l6.17-0.05c4.05-1.38,8.21,0.54,12.47,5.75c14.97,17.49,28.54,36.14,40.7,55.95c-3.19-22.86-9.74-45.63-20.74-66.1
	c-1.81-3.44,0.02-4.69,3.3-5.98c9.39-0.73,22.42-2.43,25.02-12.28l3.02-1l1.67-3.98c23.78-13.63,48.78-29.73,57.84-56.88l3.58-2.55
	c1.46-1.52,2.96-3,4.59-4.32c1.61-1.31,3.23-2.58,5.02-3.48c24.97-12.62,51.38-23.84,77.22-34.63c1.84-0.77,3.85-1.16,5.89-1.54
	c2.05-0.38,4.14-0.57,6.23-0.71l3.6-0.07l37.59,40.33l19.7,30.02c-2.43-28.84-9.01-57.55-21.89-83.6l-0.16-6.2l0.02-2.95
	c25.98-11.79,51.97-23.59,77.96-35.39l2.57,1.77l5.1,3.17c13.68,19.23,28.79,37.31,45.34,54.26c-1.85-20.53-5.94-40.35-12.26-59.44
	l-3.21-5.8c-2.63-2.5-3.62-5.11-2.96-7.86l1.98-2.96c14.78-8.79,31.37-17.59,47.65-23.61c0.97-0.36,2.09-0.35,3.25-0.3
	C1197.63,692.66,1198.81,692.9,1200,693.19z"/>
<path class="st1" d="M27.8,1392.85c2.88,3.17,0.25,4.42-3.25,5.13c1.39,1.44,1.21,3.41-0.56,5.93l123.7,3.1
	c1.14-4.63,3.33-6.19,8.65-4.04c42.45,7.49,84.24,17.28,125.37,29.36l5.06,3.34l-4.9,3.53c-22.15,3.93-43.64,11.67-62.65,23.82
	l-6.12,0.85c0.92,1.8,0.43,3.58-1.47,5.32c71.5,1.54,143.47,0.52,215.9-3.08c-3.15-0.68-4.63-2.27-4.43-4.74
	c-3.5,0.47-6.25,0.08-6.03-3.96l5.44-1.98c29.39-1.77,58.83-3.48,88.32-5.11c62.67-5.73,125.25-11.5,187.75-17.32l1.88,2.5
	c2.28,2.11,4.59,4.33,6.03,7.12c17.15,33.21,33.83,65.08,55.68,95.59l1.18,4.66H0v-150c2.33-4.24,13.01-4.33,18.06-4.09
	C23.57,1388.07,26.81,1389.43,27.8,1392.85z"/>
<path class="st2" d="M397.68,1377.9c2.59-1.07,5.2-2.08,7.86-2.9c2.66-0.82,5.3-1.6,8-1.97c112.58-15.31,232.28-15.37,345.69-9.42
	c2.73,0.14,5.44,0.7,8.17,1.28c2.74,0.58,5.43,1.36,8.12,2.19l2.33,2.06c4.39,18.03,8.92,36.13,13.58,54.31l-0.83,5.63
	c-0.04,1.06-0.3,2.67-1.03,2.76c-18.22,2.13-39.01,3.26-57.47,4.07c-5.91,1.33-11.11,0.81-15.59-1.58l-4.8-1.41L697,1418.96
	c3.11,5.81,4.26,11.32,3.45,16.53l-178.06,16.51c-36.14,3.35-70.49,4.16-105.33,5.4l-6.45,0.11
	c-36.93-15.75-77.32-24.7-117.53-19.99l-6.32-1.85c-44.29-13.14-90.36-21.65-136.65-31.26c0,3.24,3.63,2.82,4.49,5.45l-134.27-3.36
	c-0.03-3.99,2.42-6.18,4.21-8.52l3.59-2.64l98.47,1.17c-28.39-15.99-66.45-26-94.4-3.85l-4.41,0.18c-8.63-2.91-18.62-0.49-27.8,0
	v-75c72.44,3.15,143.69,15.34,213.85,36.64l293.7,89.16C472.06,1419.32,434.28,1399.51,397.68,1377.9z"/>
<path class="st3" d="M1200,977.79v106.18l-4.33,2.72c-42.37,9.22-83.79,21.56-124.26,37.03l-149.35,61.49
	c-48.2,19.48-97.42,36.59-147.98,48.84c30.99,3.03,62.06,6.58,92.91,11.31c2.03,0.31,4,1.04,5.99,1.79c2,0.76,3.94,1.7,5.86,2.69
	c1.15,1.28,2.15,2.74,2.36,4.47c0.63,5.34-2.53,27.27-3.7,33.99l-2.78,4.12c-0.01,1.05-0.35,2.66-1,2.65
	c-104.37-1.53-210.35-3.51-313.44-13.25l-1.38-2.81l0.02-2.97c192.8-90.95,385.87-182,579.19-273.15l11.22-2.36
	c-0.43-0.95-0.85-2.52-0.26-2.82c12.82-6.58,32.29-15.88,45.63-20.49C1196.88,975.9,1198.18,975.63,1200,977.79z"/>
<path class="st4" d="M1200,1083.98v215.13l-1.01,2.64l-127.38-4.86c-2-1.46-1.76-3.39-0.51-5.5l13.91-7.92
	c5.81-4.31,12.45-12.19,0.9-9.24l-27.85,22.3c-3.45,1.47-9.36,2.36-10.63-1.74c1.25-5.95,1.87-8.92,1.87-8.92l24.94-46.84
	c-12.02,15.95-23.23,32.74-32.94,50.31l-6.1,5.76c-3.16,3.92-16.39,3.98-17.29-1.5c-9.23-2.24-18.25-5.38-27.06-9.42l-1.43-3.58
	c-0.22-4.56-0.32-6.84-0.32-6.84c2.62-6.83,31.33-81.95,27.06-82.8c-4.38-0.87-42.17,65.76-47.28,75.65c0,0-1.84,1.5-5.53,4.5
	c-3.26,0.27-6.6,0.47-9.79-0.35c-16.76-4.27-33.5-8.45-50.29-12.61c-3.2-0.79-6.05-2.55-8.79-4.34l-3.68-5.29l-4.97-21.23
	l-4.02,19.57l-2.94,3c-40.8-6.2-81.31-11.64-123.58-14.23c60.89-13.18,119.29-33.68,177.44-57.63l137.71-56.74
	C1112.53,1103.89,1156.12,1093.01,1200,1083.98z"/>
<path class="st5" d="M366.96,0c1.05,0.12,2.64,0.49,2.68,1.23c0.78,17.43,0.9,39.3-0.1,56.65c0.9,4.84,0,7.83-2.69,8.97l-2.01,3.88
	l-18.25,10.92l16.62,0.87l3.91,2.8l2.7,1.18l1.06,68.65L438.9,51.12c2.63-1.09,4.33-1.61,5.53,1.15
	c2.21,5.08-13.79,35.62-17.6,41.66l-3.33,1.35l-0.06,1.1c-1.05,4.66-2.8,7.85-5.23,9.58c1.1,0.47,1,0.83-0.23,1.08
	c-8.35,20.4-18.25,40.1-29.68,59.1l0.53,4.44L380,187.76l-3.73,2.38l1.44,3.12c-2.79,2.88-4.6,6-5.42,9.37
	c0.86,58.25,0.79,116.41-0.2,174.5c0.74,9.16,1.4,18.33-0.89,27.42c3.56,0.32,3.33,1.55-0.09,2.47c0.75,0.42,0.67,0.95-0.06,1.57
	c0.69,1.21,1.33,2.44,1.8,3.74c2.83,7.75,1.97,38.71,1.16,48.88c-0.21,2.69-1.64,5.12-2.98,7.41l-1.4,3.59l-14.5,6.83l14.13,0.49
	l1.82,2.74l2.69,0.89c0.54,43.73,1.08,87.47,1.62,131.22l-2.66,1.66l0.21,3.72c-7.39,5.99-15.36,11.2-23.9,15.64l23.36,2.04
	l1.7,2.84l2.69,0.9c0.61,61.09,1.23,122.19,1.84,183.31l-2.66,1.66l-6.09,0.93l-21.71-6.06c-8.18-0.87-15.31-3.22-21.41-7.05
	c-3.8-0.7-7.49-1.64-11.06-2.83l-0.08-1.98l-2.65-1.66c0.58-37.94,1.16-75.87,1.74-113.81l2.7-1.58l1.34-2.99
	c13.9,0.16,14.03-1.71,0.41-5.61l-1.46-3.05c-1.05-0.11-2.62-0.44-2.69-1.18c-0.79-9.21-0.7-23.11-0.19-32.4
	c-0.92-4.77-0.04-7.86,2.63-9.27c-2.61-22.88-3.13-46.08-1.55-69.61c-0.89-5.62,0.07-9.26,2.86-10.91
	c5.66-3.75,12.51-5.82,20.56-6.2l-16.73-2.84l-3.82-3.18c-1.05-0.12-2.63-0.47-2.68-1.2c-0.74-12.01-0.7-28.81,0.08-40.83l2.68-1.94
	c-0.85-15.25-0.64-30.56,0.95-45.75c-2.72-0.29-2.61-1.57,0.05-2.46c-0.9-1.05-0.7-3.07,0.19-4.11c-1.18-0.24-1.13-0.7-0.01-1.35
	l1.14-2.87l24.42-3.48l-23.99-12.46l-1.28-3.68c-1.17-0.4-1.21-0.9-0.13-1.49c-1.79-1.82-2.69-2.73-2.69-2.73
	c-0.36-0.98-0.48-19.88-0.06-20.84c0.44-1,1.62-1.49,2.67-1.89c-0.11-31.82-0.26-63.61-0.43-95.38l1.96-6.3l4.17-3.53
	c7.03-1.1,13.5-3.07,19.41-5.91l-22.45-15.04l-0.83-3.78c-3.48,0.11-3.41-1.02-0.42-2.65c-1.2-6.18-1.59-12.61,0.07-18.75
	c-1.22-0.48-1.18-0.93,0.09-1.34l0-1.34c-1.31-0.26-1.31-0.71-0.09-1.34c-1.39-16.02-1.22-32.16-0.2-48.21
	c-4.19-0.13-4.18-6.42,0-6.7c-0.73-7.9-0.24-15.49,1.47-22.79c-1.03-0.6-0.93-1.11,0.24-1.52l1.21-2.84l20.99-2.47
	c-6.48-4.54-13.35-8.35-20.59-11.44l-1.64-3.33c-1.2-0.29-1.22-0.75-0.12-1.38l-2.67-0.95c0.37-46.37,0.74-92.76,1.1-139.15
	L324.11,0H366.96z"/>
<path class="st6" d="M928.12,0l4.09,1.73l55.34,95.98l0.83-96.1L991.07,0h48.21c3.46,6.31,3.28,15.51-0.51,21.64l-1.04,3.4
	l-21.97,9.87l21.73,1.15l1.81,2.77c1.06,0.1,2.63,0.43,2.7,1.19c1.03,11.88,1.09,27.93,0.7,39.93c-0.01,0.43-0.71,0.84-1.59,1.24
	l-0.49,32.64l2.68,1.56l-0.13,44.55c-2.36,3.52-6.26,5.9-11.7,7.12c6.23-0.32,10.45,1.35,12.65,5.01l1.86,95.73l48.02-90.67
	c2.21-0.67,3.58,0.72,4.82,2.62c-8.08,22.18-16.63,44.4-27.59,65.35c1.14,0.46,1.09,0.91-0.09,1.34l-1.29,2.68
	c0.1,1.62,0.15,3.23,0.01,4.83c-0.14,1.56-0.31,3.1-0.83,4.5c-6.18,16.69-12.75,33.53-19.37,50.05c-1.17,2.9-3.3,5.3-5.38,7.6
	l-0.75,1.34c2.59,0.76,2.61,1.93,0,2.68c0.79,1.67,0.86,3.69,0.02,5.36c1.04,0.1,2.59,0.36,2.71,1.12
	c0.72,4.54,0.8,14.77,0.56,19.63c1.04,4.58,0.23,7.55-2.42,8.93l-1.9,2.84c-15.43,2.88-15.41,4.55,0.05,5.01l1.58,2.86
	c1.04,0.09,2.56,0.32,2.72,1.07c1.64,8.07,0.12,19.97-1.7,27.98c2.76,1.27,3.56,4.57,2.39,9.9c0.79,4.83-0.19,7.87-2.95,9.14
	l-3.87,3.51l-15.98,4.6l18.21,1.28l1.74,2.81c4.22,21.38,4.13,44.76,3.83,66.77c0.37,9.05,0.5,18.12-2.61,26.75l-1.14,3.42
	l-28.09,12.31c10.38,0,20.15,1.46,29.32,4.38l2.7,0.87c0.9,46.61,1.79,93.25,2.69,139.91l-2.61,3.62
	c-7.98,9.29-17.37,17.54-28.16,24.75c-9.46,8.2-19.14,16.06-29.04,23.57l-4.64,1.78l-2.67-0.96c0.46-37.1,0.92-74.21,1.38-111.33
	l2.7-1.6l6.81-3.43c7.56-0.65,14.94-1.98,22.14-3.97c-8.44-3.8-17.07-7.02-25.9-9.65l-2.9-3.42l-2.67-1.25
	c0.13-29.02,0.27-58.04,0.4-87.08l2.69-1.59l1.31-2.8l22.59-1.89l-9.43-5.19c-6.29-1.9-11.11-4.87-14.46-8.92l-2.67-1.25
	c0,0,0.19-33.77,0.58-101.31l2.69-1.59c-0.65-0.43-0.65-0.91-0.05-1.45c-3.6,0.01-3.54-1.05-0.35-2.61c-1.64-2-2.38-4.57-2.23-7.73
	c1.87-33.96,2.89-67.94,3.06-101.93c-1.17-0.27-1.05-0.7,0.16-1.26l3.03-3.12l13.4-2.12l-14.93-4.81l-1.42-3.66
	c-0.89-37.38-0.92-74.84-0.08-112.38l-2.8-0.99c-6.47-10.32-11.78-21.51-15.94-33.54l-13.2-26.22l0.73-4.68l-5.46-6.73
	c-11.66-23.57-22.92-47.31-33.77-71.23L921.43,0H928.12z"/>
<path class="st6" d="M211.61,0l2.69,4.6c0,0,0.77,52.65,2.3,157.95c-0.16,2.75-1,4.78-2.52,6.09c-2.64,4.01-2.15,4.49,1.47,1.44
	c-0.5-2.57-0.14-5.33,1.07-8.26l64.57-131.67c2.12-0.65,3.6,0.51,4.97,2.2l-46.93,121.08l-6.28,8.79l1.43,3.96
	c-6.11,12.29-11.32,24.91-15.61,37.85l0.55,92.72c-1.63,10.37-2.47,20.82-2.51,31.36c2.43,0.98,2.25,2.11-0.35,2.37
	c-3.26,3.82-8.06,6.46-14.38,7.92l12.94,1.45l1.6,2.86c1.21,0.26,1.26,0.74,0.19,1.43l3.52,118.64c0.09,2.11-0.51,3.72-1.8,4.83
	c3.46,0.95,3.07,2.01-0.38,2.62c-3.16,2.48-7.31,3.45-12.43,2.9c-1.69,2.43-2.99,4.83-3.92,7.19c6.6,0.04,12.11,1.51,16.53,4.42
	l2.69,0.91c0.67,64.23,1.34,128.48,2.01,192.73l-2.66,1.68l-2.08,3.38l-12.56,5.08l13.7,2.45l1.45,2.94l2.71,1.17
	c0,0,0.62,27.64,1.86,82.93l-2.64,1.65c4.57,12.62,5.48,30.13,0.92,42.77c1.04,0.15,2.61,0.52,2.65,1.26
	c0.21,3.72,0.05,31.49-0.75,32.93c-1.08,2.65-2.38,4.31-5.07,3.05c-12.14-10.06-25.84-17.69-41.11-22.89
	c-5.36-2.92-15.99-8.93-9.54-14.58c-0.98-0.19-2.65-0.58-2.67-1.25c-0.76-22.53-0.67-48.17,0.24-70.71l2.68-1.6l-2.61-3.64
	c0.83-45.98,1.66-91.95,2.5-137.9l2.71-1.58l3.37-2.86c11.01-0.41,13.17-1.38,6.49-2.9c-4.68-0.44-7.86-2.09-9.56-4.94
	c-0.74-0.85-1.43-1.72-1.96-2.68c-2.47-4.49-1.27-34.16-0.52-41.61l2.69-5.5l3.76-3.06c0,0,7.79-1.42,23.37-4.26
	c-7.83-6.33-16.13-11.94-24.88-16.84l-2.14-4.01c-1.05-0.13-2.62-0.49-2.67-1.23c-0.39-6.18-0.76-38.28,0.44-42.3l2.7-1.93
	c-0.64-0.45-0.67-0.94-0.1-1.47c-2.65,0.39-2.78-0.9-0.35-2.26c-0.75-0.64-1.18-1.49-1.41-2.44c-2.66-11.13-1.49-38.49-0.64-50.72
	c-0.84-4.81,0.08-7.76,2.78-8.84l0.64-2.86l19.96-3.95l-10.29-4.18c-4.73-0.6-8.05-2.34-9.96-5.22c-2.53-0.2-2.57-1.4-0.2-2.43
	c-0.74-19.51-1.08-39.15-1.01-58.9l-1.55-1.43c0.05-27.68,0.08-41.53,0.08-41.53l2.68-1.61l2.73-2.87
	c14.74,0.43,14.55-2.47-0.58-8.71l-1.12-3.05c-1.16-0.07-1.08-0.44,0.05-1.07c-0.6-61.18-0.82-122.4-0.65-183.68l-1.39-5.52
	c-12.34-23.54-24.47-47.48-36.38-71.83c-0.43-3.29,1.37-3.74,4.39-3.68l32.52,47.82l0.86-21.74C173.86,19,174.5,9.24,176.79,0
	H211.61z"/>
<path class="st7" d="M609.38,0l2.3,5.38c0.28,18.41,0.48,36.7,0.6,54.88l-1.75,2.64l2.7,2.01c0.29,34.49,0.57,68.98,0.86,103.47
	l-2.67,1.64l2.79,8.57c0.58,41.54,1.13,83.12,1.64,124.75l-2.42,15.51l2.69,1.25c1.24,123.57,2.49,247.17,3.74,370.79l-2.66,1.69
	l-3.39,2.35c-12.11,3.01-24.3,5.9-36.58,8.65l-7.89-0.59l-2.67-0.97c0.9-84.83,1.8-169.67,2.7-254.53l2.7-1.63l-2.46-15.6
	c0.67-47.86,1.34-95.6,2.01-143.23l2.7-1.59l-2.67-1.26l0.75-76.96c-0.97-3.87-2.86-7.45-5.67-10.75l1.03-3.56l-3.5-1.06
	c-17.28-35.4-34.57-70.79-51.85-106.17l1.7-2.62c-6.09-2.34-14.01-19.12-4.13-18.37l62.92,108.29l1.65-171.41L577.23,0H609.38z"/>
<path class="st8" d="M66.96,0l2.46,3.87L69.1,20.82L79.37,1.24L83.04,0h10.71l2.05,2.11L70.59,67.37c-1.62-0.41-2.46,0.44-2.51,2.56
	l-0.93,54.63c1.16,2.03,2.34,4.19,2.51,6.57c1.18,16.09,0.85,33.22,0.28,49.17l-1.8,3.27c1.05,0.13,2.61,0.49,2.67,1.24
	c0.6,7.77,0.5,22.06-0.28,29.75c0.78,4.11-0.14,6.7-2.75,7.76c-1.03,3.43-4.45,5.73-10.26,6.89c5.39-0.41,8.81,0.8,10.25,3.64
	c2.46-0.7,2.7,0.32,0.33,1.5c1.08,2.05,1.44,4.65,0.16,6.72c1.04,0.28,2.6,0.73,2.68,1.54c0.35,3.59,0.38,27.04-0.88,28.37
	c-0.43,0.45-1.08,0.7-1.79,0.89c0.68,13.95,1.21,28.12,0.73,42.11c-0.01,0.31-0.49,0.6-1.11,0.88l-2.24,3.52
	c-14.66,4.61-14.49,6.43,0.53,5.46l1.85,2.72l0.97,0.39l-0.53,29.3c3.78,15.95,3.9,34.79,1.1,51l2.68,0.94
	c-0.1,58.15-0.21,116.31-0.31,174.48l-2.68,1.64l-1.08,3.11l-24.41,7.21l23.68,4.02l1.49,2.97l1.79,0.1
	c1.12,19.59,1.47,39.53,1.07,59.84l-2.67,1.58l-5.98-2.31c-12.8-13.12-26.17-25.78-41.16-36.4L18.77,619l-2.61-3.6
	c0.79-42.66,1.58-85.3,2.38-127.94l2.71-1.57l1.02-2.74l20.09-1.19l-11.19-7.34c-4.71-1.59-7.83-4.05-9.36-7.38l-2.68-1.23
	c-0.03-41.89-0.04-62.84-0.04-62.84l2.68-1.6l3.38-2.66c9.25-0.56,18.46-1.64,27.62-3.23l-28.11-18.74l-1.79-4.38
	c-4.92-0.02-2.72-9.43-0.08-12.28c-0.8-15.21-1.38-30.68,1-45.82c-4.17-0.72-3.89-12.11,0.12-13.11
	c-0.92-8.01-1.12-16.11,0.06-24.11c-2.6,0.13-2.56-0.91,0.07-1.57l1.46-2.72l19.31-0.62L26.38,261.8l-1.76-3.57
	c-2.58-0.29-2.74-1.37-0.37-2.41c-1.53-12.39-1.34-25.4,1.2-37.5c-0.87-0.36-0.84-0.81,0-1.34l-1.02-1.34
	c-1.94-0.15-2.89-0.81-2.83-1.95l1.2-12.74c-0.78-3.12-0.31-5.37,1.41-6.76c-0.8-20.25-1.2-30.38-1.2-30.38l2.89-3.06l4.12-2.79
	l15.59-1.32c-5.53-5.11-11.61-9.02-18.24-11.73l-1.26-2.97c-1.05,0-2.66-0.31-2.67-0.96c-0.27-42.39-0.1-88.23,1.83-130.63
	C24.45,5.03,25.4,1.59,28.12,0H66.96z"/>
<path class="st7" d="M1154.46,0l2.69,0.89l2.39,151.44l37.33-61.31l3.12,0.02v8.24l-2.38,9.01c-14.25,27.55-26.41,56.08-36.46,85.58
	c-1.87,24.47-1.84,48.98,0.12,73.54c0,0-0.84,1.88-2.52,5.65l2.71,1.56c0.81,37.08,1.63,74.9,2.44,111.98l-2.64,1.68l2.94,22.21
	c0.83,71.08,1.65,141.96,2.48,212.65l-2.65,2.57c-2.91,3.19-4.37,4.78-4.37,4.78c-12.42,4.19-24.6,8.92-36.54,14.2l-4.64-0.52
	l-2.67-0.96c1.21-118.33,2.43-236.68,3.64-355.05l2.7-1.63l-2.68-1.24c0.08-28.44,0.16-56.88,0.24-85.34l2.68-1.59l-2.66-1.26
	c0.32-27.76,0.64-55.52,0.97-83.3l2.7-1.57c-3.58-0.07-3.43-1.33-0.08-2.49c-2.9-0.5-1.81-3.56-0.4-5.37l-1.78-0.42
	c-0.83-33.73-0.88-67.85-0.15-102.36l2.69-1.58H1154.46z"/>
<path class="st9" d="M577.23,0l-1.76,183.62L507.19,65.26c0.91,6.37,4.16,12.2,6.92,17.84l-3.82,1.94
	c-26.43-5.83-56.82-7.81-77.83,11.99c-3.79,1.83-7.67,3.45-8.96-1.74c4.86-14.8,17.37-26.85,18.54-44.07l-73.7,113.02l-1.21-78.89
	c-1.03-0.12-2.48-0.33-2.7-1.11c-0.92-3.39-1.06-15.53,2.42-17.37L366.96,0H577.23z"/>
<path class="st9" d="M921.43,0l37.49,80.55c-3.9,1.87-7.53-0.21-10.91-6.26c-1.71-5.36-4.55-9.13-8.52-11.32
	c-0.41,11.91-8.52,23.73-18.79,11.66l-40.88-6.98c-13.8,1.5-26.24,2.53-40.28-0.84c-42.96-0.51-85.48-0.98-127.58-1.41
	c1.79-2.91,1.89-1.62-0.19,0.49c-12.98,0.51-26.45,1.75-34.76,12.91c-9.76,4.24-19.24,2.61-24.21-7.28
	c-3.16-3.08-6.95-2.56-11.39,1.56c-1.24,0.41-1.77,0.54-3.02,0.66c-1.49,0.14-23.91-6.63-26.76-7.74l-1.1-3.12
	c-0.17-20.77-3.03-42.01-1.15-62.9H921.43z"/>
<path class="st10" d="M18.77,619c18.41,12.07,34.87,28.08,50.35,44.13c4.69,2.28,7.04,3.43,7.04,3.43
	c27.19,28.08,55.6,55.45,89.03,76.06l4.96,6.06l-0.25,73.55c-1.48,0.5-2.97,0.94-4.5,1.21c-1.5,0.26-2.97,0.49-4.38,0.32
	c-35.92-4.23-75.25-9.84-109.81-20.33c-1.37-0.42-2.62-1.22-3.89-2.08c-1.29-0.87-2.47-1.9-3.62-2.98
	c-0.29-2.24-1.03-2.86-2.33-1.39c-1.76,3.17-12.45,0.02-15.68-1.36l-1.72-2.8c-3.1,1.46-5.81,0.77-6.82-2.5
	c-1.52,3.02-2.86,2.18-4.03-2.53c-3.73,2.32-11.96-1.52-13.12-5.64V606.7c2.96-1.52,6.67-0.16,11.13,4.09
	C15.36,612.57,17.91,615.31,18.77,619z"/>
<path class="st1" d="M1200,1431.13v111.73h-155.36c2.49-4.17,3.74-6.25,3.74-6.25c7.88-1.52,78.38-71.64,73.3-72.65
	c-3.06-0.61-36.39,25.07-42.55,30.16c-16.28,13.44-31.28,28.36-44.99,44.41c-1.95,2.02-4.57,3.23-7.11,4.34h-53.35
	c-0.76-1.93-0.83-3.88,0.07-5.74c17.58-36.18,37.52-64.62,65.09-93.67l14.48-18.68l4.91-2.26l2.64-2.24
	c46.2,1.83,92.3,4.96,138.28,9.37L1200,1431.13z"/>
<path class="st10" d="M1200,1299.11v129.28l-0.52,1.32c-42.15-7.23-84.15-15.5-126.01-24.83l-1.06-2.95
	c-0.26-4.14-0.39-6.21-0.39-6.21c8.29-15.51,16.02-31.26,23.21-47.26c-15.49,15.21-30.16,31.15-44,47.83l-3.76,2.02l-3.78,2.18
	c-15.33-2.15-30.67-4.29-46-6.44l-1.2-2.87c-0.18-1.4-0.31-2.79-0.24-4.18c0.07-1.38,0.13-2.71,0.63-3.83
	c12.93-28.93,28.59-55.95,44.58-83.23c0.62-1.06,1.6-1.92,2.61-2.79c1.03-0.89,2.19-1.64,3.37-2.35c2.66-0.67,7.03,1.29,9.67-0.83
	l27.28-21.92c2.63-2.11,7.29-2.23,9.2,0.26c7,9.15-17.7,18.69-22.21,22.13L1200,1299.11z"/>
<path class="st1" d="M1200,617.35v75.84c-19.54,7.08-37.93,17.27-56.45,26.29c-0.78,1.71-1.68,3.55-3.31,4.61
	c-4.3,2.8-22.12,11.87-25.72,11.66c-1-0.06-2-0.3-2.99-0.59l-80.56,36.56l-3.2,4.47c-7.4,4.56-22.48,13.01-30.25,15.57
	c-1.76,0.58-3.68,0.01-5.39-0.52c-33.16,14.13-66.72,28.25-98.95,44.68c-1.87,4.05-6.21,5.37-9.37,2.17
	c8.58-11.68,18.71-22.35,30.39-31.99c21.58-21.09,42.24-42.82,61.99-65.18c2.96-3.44,6.06-6.29,10.74-6.66
	c19.45-17.68,40.38-34.83,61.83-50.1c0.46-1.16,0.96-2.29,1.62-3.31c0.65-1,1.29-1.95,2.17-2.55c17.51-11.92,39.9-24.02,59.04-33.29
	l6.87-0.83c13.96-8.1,30.87-11.76,45.55-18.47c0.84-3.42,3.75-5.33,8.73-5.73l23.91-4.5L1200,617.35z"/>
<path class="st4" d="M56.4,1044.58c0.97-2.14,2.27-1.23,3.91,2.73l4.39-0.49c3.92,1.58,18.1,9.26,21.46,11.68
	c1.21,0.87,1.74,2.38,2.21,3.73c1.27-0.9,2.09-0.11,2.46,2.37l5.17,0.63c14.96,10.02,30.13,19.75,45.49,29.2
	c7.29,3.76,11.91,8.64,13.87,14.65l-1.17,4.23c-26.6,16.97-47.16,38.65-61.69,65.03c-0.84,3.6-2.28,6.46-4.31,8.57
	c6.64-0.36,16.38-0.44,21.64,3.7c1.17,0.38,1.15,0.84,0,1.35c-11.74-0.81-20.1,10.86-31.04,13.4l-2.03,3.14
	c-8.69,2.87-17.01,6.65-24.97,11.33l-3.58-1.28L0,1240.18v-215.62l4.61-1.89c16.77,4.6,33.06,10.59,48.89,17.96L56.4,1044.58z"/>
<path class="st9" d="M324.11,0l-1.12,141.73c-2.62,2.76-6.42,4.11-11.4,4.06l-19.22-12.74c-9.48,6.52-19.16,12.68-29.05,18.48
	c-10.33-2.3-19.59,1.82-27.78,12.34c-1.19,0.12-2.02-0.49-2.59-1.63l51.04-131.71l-68.44,139.56c-1.35,0.4-1.84-0.08-1.47-1.44
	l-1.79-69.11c-0.68-26.2-0.6-67.71-0.67-99.53H324.11z"/>
<path class="st11" d="M1200,844.25v133.55l-50.67,22.75c-14.34,2.81-29.1,3.65-44.26,2.51l-3.29-1.51
	c-0.13-8.41-0.66-16.87-1.59-25.39c-5.35-24.26-12.7-48.06-22.05-71.4l1.44-4.7l45.57-20.39c3.82,3.98,6.58,9.22,8.28,15.73
	c1.76,3.72,24.17,44.11,26.29,42.77c2.81-1.79-6.2-57.65-8.78-65.89l1.07-5.71L1200,844.25z"/>
<path class="st12" d="M989.42,1280.6c1.89,3.46-2.35,12.75-6.72,13.27l-0.51,4.62c-14.38,25.92-29.07,51.75-44.08,77.49l-6.16,6.25
	c0.38,2,0.7,4.14,0.07,6.12c-2.83,8.93-7.84,22.19-11.73,30.67c-0.88,1.92-2.69,3.23-4.37,4.43c-0.56,10.37-2.92,20.7-7.08,31
	c-7.4,27.36-11.71,51.97-16.51,79.68c-0.54,3.14-2.08,5.99-3.63,8.74h-5.91l-2.49-1.59l9.38-71.29c-0.11-13.9-1.73-27.67-4.87-41.29
	l2.03-3.97l-2.79-0.45c-2.62-15.57-5.24-31.15-7.86-46.72l2.38-2c-0.85-0.96-1.65-1.94-2.29-3.02c-0.63-1.07-1.23-2.1-1.36-3.17
	c-2.95-23.51-3.1-46.64-2.91-70.27c0.01-1.09,0.45-2.19,0.91-3.33c0.47-1.16,1.11-2.25,1.8-3.33c0.05-14.08,3.31-28.47,4.12-42.58
	c0.63-11,4.56-21.8,6.5-33.49c4.15,12.47,6.95,24.88,9.12,37.44c0.85,0.93,1.65,1.88,2.29,2.94c4.02,6.62,4.74,27.99,2.19,35.87
	c0.82,1.29,1.58,2.61,2.16,4c0.58,1.38,1.13,2.72,1.23,4.08c1.7,23.69,1.2,46.99,0.03,70.68c-0.07,1.36-0.59,2.71-1.12,4.09
	c-0.54,1.4-1.26,2.73-2.03,4.04c1.04,0.18,2.58,0.61,2.6,1.36c0.23,7.82-0.79,34.03-2.49,40.77l-2.79,1.77
	c2.36,6.91,3.14,14.38,2.33,22.41l6.08-19.84l3.13-1.07c-0.95-0.45-2.33-1.27-2.15-1.99c2.12-8.76,9.93-33.62,13.85-40.96l3.16-0.98
	c5.78-30.24,16.35-60.19,30.92-87.32l-1.8-2.84c5.33-12.81,7.99-19.21,7.99-19.21l3.31-0.53c17.02-30.84,33.17-62.05,57.31-89.69
	C1015.46,1216.39,1001.31,1248.08,989.42,1280.6z"/>
<path class="st13" d="M1200,412.06v205.29c-11.53,3.44-24.91,3.31-35.97,8.37l-2.77-237.43l2.82,0.21l12.83,49.48
	c4.36-11.02,10.9-20.02,19.62-27L1200,412.06z"/>
<path class="st9" d="M1123.66,0l-0.76,104.37c-1.66,2.71-1.52,4.5,0.4,5.37l0.08,2.49c-0.28,3.3-3.4,3.63-6.04,2.36
	c-6.39-3.07-5.71-7.25-1.94-12.23c-0.35-1.94-25.11-24.43-32.38-19.45c-12.87,2.53-25.6,3.66-38.2,3.38l-1.46,23.79l-2.75,3.76
	l-1.31-75c-1.03-0.11-2.48-0.3-2.71-1.08c-0.91-3.13-1.29-14.51,2.18-16.11c-0.22-7.2-0.11-14.49,0.51-21.64H1123.66z"/>
<path class="st1" d="M886.84,1424.73c2.83,16.86,7.37,34.51,4.85,52.95l-8.91,65.18h-43.06c-4.37-6.03-6.84-13.22-7.39-21.57
	c-4.35-28.49-9.29-56.88-14.82-85.16l0.77-8.23c0.07-1.06,0.37-2.67,1.11-2.73c18.75-1.67,42.68-3.16,61.34-2.84
	C884.03,1421.46,886.07,1422.26,886.84,1424.73z"/>
<path class="st9" d="M176.79,0c1.37,19.4,0.76,39.01-0.37,59.34L138.58,3.69c47.74,104.48,38.09,38.38,37.51,153.91l-0.56,110.32
	c-0.78-0.65-1.52-1.33-2.11-2.11c-3.4-4.51-2.65-39.86-1.99-48.08l2.68-4.78l-2.73-14.22l-0.62-109.76
	c-1.75-14.48-6.25-15.91-20.23-12.51c-19.43-14.3-37.88-17.43-58.53-5.59c-6.62,2.28-13.3,2.78-20.06,1.5l-2.03,50.72l-2.74,1.49
	l-0.31-54.91L93.75,0H176.79z"/>
<path class="st1" d="M790.61,1429.09c0.97-0.38,2.59-0.69,2.83-0.08c13.51,33.18,28.12,70.12,39.51,104.07
	c2.58,4.31,2.86,7.57,0.85,9.79h-44.98c-2.46-2.1-4.92-4.32-6.57-7.13c-19.8-33.88-39.05-66.23-64.12-96.67l-1.62-4.72
	L790.61,1429.09z"/>
<path class="st1" d="M971.29,1422.86l-0.24,5.76c-12.47,36.3-24.48,72.75-36.05,109.36l-3.08,4.87H888.7
	c3.93-40.79,13.86-80.93,27.22-119.43l2.41-2.7c17.12-0.18,34.23-0.35,51.35-0.53L971.29,1422.86z"/>
<path class="st14" d="M1200,277.24v134.81c-12.25,6.41-16.89,20.58-23.84,33.67l-14.9-57.45l-2.51-115.22l4.65-1.9l29.28,8.16
	C1194.98,276.62,1196.97,274.49,1200,277.24z"/>
<path class="st15" d="M1200,99.28v177.97c-2.43,0.63-4.23,2.54-6.26,4.93c-11.95-3.16-23.23-7.33-34.98-9.11
	c-0.56-25.84-3.58-53.48-0.18-79.83C1170.98,161.28,1182.22,126.75,1200,99.28z"/>
<polygon class="st9" points="1154.46,0 1200,0 1200,91.04 1157.03,161.99 "/>
<path class="st13" d="M22.85,372.55c3.58,4.38,2.56,14.57,1.91,20.46c0.72,4.57-0.28,7.43-3,8.56l0.05,65.67
	c4.06,4.63,3.62,14.08-0.57,18.65L18.77,619L0,606.7V400.45c0.57-9.47,10.9-35.26,18.45-39.13c0.93-0.47,1.94-0.79,2.97-1.05
	c0.38-1.17,0.83-1.15,1.34,0L22.85,372.55z"/>
<path class="st9" d="M28.12,0l-1.99,141.91c4.1,4.12,4.32,15.01-0.22,18.81c-0.98,11.19,0.54,22.58-1.69,33.44
	c-3.57-1.19-5.46-4.86-5.66-11.02c-3.77-4.11-9.35-5.39-16.75-3.82L0,176.79V0H28.12z"/>
<path class="st1" d="M1031.29,1422.48l1.94,2.06c-20.65,39.01-41.2,78.08-61.67,117.2l-3.29,1.11h-27.82
	c-0.21-1.88-0.37-3.75-0.33-5.62c0.04-1.85,0.1-3.68,0.56-5.38c8.99-33.45,20.88-69.56,35.57-100.89c0.75-1.61,1.85-3.05,3-4.49
	c1.17-1.46,2.49-2.79,3.85-4.09l2.41-2.63c14.6-0.02,29.21,0,43.82,0.06L1031.29,1422.48z"/>
<path class="st15" d="M24.22,194.16c3.2,6.09-0.76,15.02,0.21,21.46c0.53,0.55,0.4,0.99-0.32,1.34c0.91,0.35,0.88,0.8,0,1.34
	c-0.88,12.48-0.84,24.98,0.14,37.5c0.17,0.79,0.3,1.61,0.37,2.41c2.11,1.03,2.07,1.7-0.36,1.57c-0.78,0.71-0.81,1.67-0.11,2.87
	c3.87,0.56,3.71,5.56-0.06,6.43c-0.64,1.96-1.01,3.47-0.02,5.42c1.16,0.31,1.12,0.69-0.06,1.15l-0.07,1.57
	c-1.19,7.99-0.97,16.11-0.06,24.11l-0.12,13.11c-1.28,15.27-2.06,30.54-2.34,45.82C12.22,372.65,5.62,386.06,0,400.45V176.79
	c6.08-0.48,11.71-1.45,18.33,1.8C22.6,180.68,21.23,188.48,24.22,194.16z"/>
<path class="st12" d="M799.55,1369.97c1.1,1,2.15,2.04,3.06,3.2c5.91,7.52,13.47,35.21,16.19,46.19c0.32,1.31,0.29,2.72,0.21,4.15
	c-0.09,1.47-0.37,2.93-0.71,4.38c9.99,39.57,12,76.83,21.44,114.96h-5.93l-43.2-113.77c-7.5-19.75-10.03-41.52-15.08-62
	c-3.67-2.87-5.26-7.51-4.77-13.92l-1.57-35.53c2.08-7.08,4.06-6.59,7.75,0.12c5.45,7.31,23.47,41.45,23.19,48.63
	C800.07,1367.59,799.84,1368.78,799.55,1369.97z"/>
<path class="st16" d="M56.4,1044.58c-18.77-6.84-36.58-16.92-56.4-20.03V904.02l4.27,2.51c12.9,23.55,25.57,46.58,37.99,69.09
	c5.59,21.81,10.69,44.01,15.27,66.36C57.69,1042.73,57.14,1043.63,56.4,1044.58z"/>
<polygon class="st9" points="991.07,0 990.37,107.95 928.12,0 "/>
<path class="st16" d="M13.12,787.78c3.15,9.35,4.92,19.28,5.29,29.8c4.29,21.45,9.12,42.74,14.47,63.89l1.43,1.04
	c2.62,20.23,4.38,41.19,5.15,61.79c0.03,0.83-0.68,1.68-1.6,2.54c2.75,5.72,7.11,17.69,0.89,21.81
	c-9.27-16.49-17.66-33.47-25.17-50.94C8.14,909.36,3.61,900.78,0,891.96V782.14C4.65,783.27,8.93,785.53,13.12,787.78z"/>
<path class="st12" d="M716.52,1434.33c28.1,33.36,53.2,69.29,72.31,108.53h-25.48c-24.68-33.71-46.56-68.78-62.9-107.36
	c-3.54-8.36-6.69-16.72-9.03-26.18C700.22,1418.2,709.17,1425.61,716.52,1434.33z"/>
<path class="st12" d="M1072.42,1401.93l0.19,3.14c-4.36,4.89-7.94,10.39-10.76,16.51l-3.61,0.94
	c-33.15,46.87-59.53,60.94-84.56,120.34h-5.41l63.01-120.37c-1.3-3.68,0.09-7.68,4.17-12.01c3.05-6.38,7.06-10.44,12.02-12.17
	c15.54-20.79,32.9-40.45,53.14-58.5C1094.92,1363.51,1080.15,1381.09,1072.42,1401.93z"/>
<path class="st12" d="M1047.44,1294.79c-17.52,31.24-37.6,62.55-50.95,96.39c0.36,0.93,0.67,1.87,0.8,2.83
	c0.68,4.94-8.77,25.5-14.18,28.37c-17.99,38.52-31.65,79.31-42.65,120.49h-8.53c10.21-40.9,24.7-80.61,39.37-120l-1.25-4.22
	c8.42-18.4,12.63-27.6,12.63-27.6l4-1.94c-0.93-0.47-2.24-1.46-1.96-2.05c12.99-27.02,27.99-56.05,42.54-82.39
	c1.63-5.14,4.28-8.33,7.95-9.56c16.47-31.91,38.85-61.21,61.8-89.84C1078.29,1234.68,1063.77,1265.67,1047.44,1294.79z"/>
<path class="st12" d="M1044.64,1542.86h-17.61c28.36-34.71,63.18-64.8,103.92-87.34
	C1107.79,1490.91,1077.02,1518.19,1044.64,1542.86z"/>
<path class="st2" d="M1072.42,1401.93l127.58,26.46v2.74l-141.76-8.61C1062.99,1415.8,1065.23,1406.41,1072.42,1401.93z"/>
<path class="st12" d="M37.86,946.84c2.57-3.1,4.69,3.56,5.12,6.67l2.95,5.8c3.11,27.55,8.36,54.75,15.74,81.59
	c0,0-0.45,2.14-1.35,6.41c-1.25-0.75-2.58-2.25-3.91-2.73C39.71,953.88,36.97,977.66,0,904.02v-12.05
	c18.14,21.45,25.84,48.84,39.33,75.44C41.58,960.55,37.93,953.59,37.86,946.84z"/>
<path class="st9" d="M83.04,0L66.97,30.67C65.72,19.85,66.4,9.92,66.96,0H83.04z"/>
<path class="st10" d="M874.72,1292.43c-0.1,27.77-0.73,55.85,3.86,83.12l-1.41,2.59c-25.11-1.77-50.23-3.54-75.36-5.32l-2.25-2.84
	c-7.12-19.61-17.24-37.88-28.19-56.41c2.7,18.3,0.09,37.01,4.17,53.53c-125.74-6.34-253.75-6.91-377.84,10.82
	c-5.24-3.09-15.61-8.81-21.37-10.65c2.25-1.98,4.54-3.91,6.95-5.67c2.41-1.76,4.8-3.51,7.4-4.85
	c49.64-25.61,100.42-49.23,151.14-72.63c2.66-1.23,5.5-2.09,8.36-2.94c2.87-0.85,5.8-1.52,8.74-2.14l86.82,7.37L874.72,1292.43z"/>
<path class="st11" d="M651.15,1105.86l2.94,0.05c9.76,21.59,19,43.36,27.72,65.33c-19.95,36.99-56.6,49.08-94.33,58.83
	c-22.72,7.26-42.12,20.8-59.14,37.51c-21.5,0.63-42.9,3.17-60.91,15.46c-13.88,10.25-28.36,19.67-43.42,28.26l-2.85,0.4
	c-3.35-4.03-5.29-9.11-5.81-15.25c-13.16-19.41-27.21-38.39-42.15-56.95l1.16-2.9l40.84-19.18l3.24,1.94
	c4.69,11.63,11.17,22.45,19.44,32.45c-1.75-12.42-4.05-24.77-6.9-37.05l1.79-5.09l50.65-24.43l4.07,3.46
	c-1.37,5.12,27.31,60.36,28.22,55.66c0.79-4.05-0.32-16.48-0.78-21.34c-1.71-17.81-6.79-27.82-17.92-41.44l1.13-3.05l59.31-28.52
	c2.66-1.35,4.58,0.02,5.77,4.09c1.32,5.05,3.05,9.92,5.19,14.58c2.2,3.65,22.89,29.25,25.2,30.85c1.79,1.24-1.8-23.63-2.54-26.37
	c-2.62-9.71-7.22-18.74-13.05-26.91l-0.27-4.88L651.15,1105.86z"/>
<path class="st11" d="M915.95,979.04l3.22,1.28l5.93,16.71c0.96,10.49,3.1,18.4,10.13,26.37c0.75,3.34,0.43,5.47-3.37,6.18
	c-25.42,4.95-50.23,11.91-74.43,20.87c10.68,14.7,0.89,23.86-12.9,29.38c-9.04,3.62-18.25,6.74-27.69,9.1
	c-23.45,3.71-45.23,11.08-65.33,22.09c-16.92,13.72-33.15,28.1-48.69,43.13c-2.11,0.51-3.73-0.43-5.05-2.11l-4.39-41.95
	l-12.93-15.55l0.88-3.16L915.95,979.04z"/>
<path class="st11" d="M1072.7,903.87l3.03,2.98c11.49,30.67,20.72,62.17,27.66,94.48c-10.88,1.59-21.86,2.37-32.94,2.35
	c-38.37,4.79-76.4,12.01-114.09,21.65l-6.83,0.33c-2.44-1.48-18.16-38.51-20.76-45.32c-0.83-2.18-0.67-4.59-0.46-6.87l58.78-29.53
	l2.93,0.7c10.12,11.48,18.82,24.22,26.11,38.22l-3.98-41.78c0,0,0.58-2.61,1.75-7.83C1032.33,921.64,1052.93,913.12,1072.7,903.87z"
	/>
<path class="st11" d="M356.53,1245.24l2.98,0.81c5.87,26.39,13.27,50.89,28.71,74.3c0,0,0.49,2.33,1.47,7
	c-14.68,6.04-28.93,12.96-42.75,20.74l-6.54,0.98l-76.63-31.45c-3.64-1.24-12-15.57-12.11-18.51c-0.04-1.09,0.8-2.06,1.56-2.89
	L356.53,1245.24z"/>
<path class="st17" d="M752.34,901.29c1.02-0.34,2.33-0.77,3.08-0.17c0.87,0.7,11.38,17.11,12.14,18.8l-1.21,3.06
	c-29.1,14.72-61.3,23.13-88.68,40.99c-1.48,0.87-3.2,0.52-5.17-1.06c0.82,2.64,0.04,4.23-2.69,5.25l-65.95,41.32
	c-33.4,20.92-74.16,27.56-111.1,40.66c-2.6-0.39-4.41-2.54-5.42-6.44c0,0-2.8-3.69-8.41-11.06c-3.58-2.04-5.2-4.34-4.86-6.89
	c-3.32-1.79-2.05-3.4,1.44-2.45c2.09-1.67,5.25-2.26,9.47-1.77l4.52-1.29c2.53-1.83,5.03-2.56,7.51-2.2
	c2.55-2.11,5.99-2.71,10.3-1.82c17.5-2.79,35.06-5.26,52.67-7.42c19.42,1.55,38.25,0.07,54.63-11.36c-0.41-2.7,2.13-5.39,4.88-4.99
	c2.43-6.82-6.62-13.16-12.97-16.33c-4.34-0.84-7.36-2.38-9.08-4.64l6.32-5.37c32.38-15.12,64.6-30.58,96.67-46.4l8.26-0.58
	c-0.38-0.96-0.77-2.51-0.18-2.82c8.83-4.67,31.99-14.45,41.37-16.9L752.34,901.29z"/>
<path class="st17" d="M444.65,1040.64c1.46-0.75,2.32-1.1,3.83-0.75c2.52,0.58,13.11,16.88,14.75,20.21l-0.95,2.91
	c-54.55,21.61-106.68,47.66-156.77,78.15l-3.56-0.92c-5.5-7.98-10.02-16.43-13.55-25.35l1.95-3.19c1.61-2.99,6.59-7,9.6-4.22
	c-0.45-0.94-0.88-2.53-0.3-2.82c36.18-17.84,74.72-35.6,111.77-52.16c5.77-3.84,11.48-5.52,17.13-5.04
	c-0.98-2.61,0.39-3.43,4.11-2.47l3.66-1C434.26,1039.4,442.19,1037.26,444.65,1040.64z"/>
<path class="st18" d="M795.54,877.48c1.21-3.82,8.04-3.98,9.66-0.4c10.16-1.51,16.55,7.2,20.72,15.31c3.42,2.19,4.82,4.5,4.2,6.93
	c-2.52,12.16-14.94,15.28-30.17,16.1c14.43,24.8,19.56,51.47,24.65,79.76c-18.01-19.61-36.44-61.51-58.25-72.2l-14.01-21.7
	c-1.39-1.12-1.81-2.85-1.25-5.18c-10.59-16.06-21.42-32.23-32.5-48.52l-0.91-5.25c-4.88-1.24-8.14-5.2-9.79-11.87l-5.46-18.66
	l2.07-2.87c-2.26-0.4-2.73-1.33-3.25-3.12c-1.15-3.94,3.05-29.12,5.03-30.49c2.5-1.72,4.44-2.75,5.65,0.47
	c-2.07,20.14,0.04,40.77,11.32,58.04l36.61,57.2c0.9,8.14,31.07,20.17,33.15,15.7c1.05-2.27-7.63-12.45-9.58-14.51
	c-0.14-0.8-0.17-1.54,0.12-2.12c4.23-8.21,17.68,11.04,19.29,15.05c1.61,1.59,8.06,1.98,9.25,0.77c1.51-1.53-7.94-14.06-10.8-15.93
	c-0.48-2.39,1.24-3.35,3.47-4.12L820.52,899c-1.56-11.33-13.67-16.33-23.59-18.51L795.54,877.48z"/>
<path class="st17" d="M257.01,1134.42l3.36,0.53l10.76,15.33c2.77,3.33,3.06,6.06,0.87,8.19c-42.28,23.7-88.41,40.58-136.8,45.56
	c-4.1,0.94-15.83-10.43-10.4-13.67c5.8-2.92,12.44-4.43,19.92-4.53c38.4-9.39,73.9-26.33,106.5-50.84L257.01,1134.42z"/>
<path class="st18" d="M1152,866.56c8.54,26.51,8.53,53.69,11.73,82.81c-13.06-21.39-32.69-44.17-38.59-69.7l-15.31-66.28
	L1152,866.56z"/>
<path class="st18" d="M474.06,1025.76c7.33,3.64,16.45,14.95,18.69,24.38l17.42,73.26l-47.9-60.4c-6.14-6.1-8.9-17.86-17.63-22.37
	c0.79-4.47,4.32-7.77,10.6-9.92l14.98-6.41L474.06,1025.76z"/>
<path class="st18" d="M1013.92,933.23c2.47,20.22,4.53,38.97,5.17,59.39c-10.77-16.64-19.46-34.23-32-48.69l-18.84-79.37
	L1013.92,933.23z"/>
<path class="st18" d="M577.73,1141.38c14.84,19.37,20.8,39.3,18.31,65.37l-28.91-35.26c-5.27-6.43-4.07-16.01-9.69-21.47
	c-3.17-24.14-15.66-44.77-22.72-68.56L577.73,1141.38z"/>
<path class="st18" d="M253.22,1296.22l10.55,21.4l-52.49-17.96c-2.2-20.89-4.59-39.6-9.7-60.15
	C229.46,1268.35,236.86,1263.03,253.22,1296.22z"/>
<path class="st18" d="M677.67,963.98c17.74,31.53,30.35,5.48,35.32,90.86c-8.61-9.57-19.41-16.81-23.4-28.52l-19.79-58.15
	c1.39-5.76-2.52-8.98-2.05-14.81C669.73,958.09,675.58,960.27,677.67,963.98z"/>
<path class="st18" d="M124.81,1190.36c1.21,5.97,7.62,9.02,10.4,13.67c13.64,22.79,18.09,49.52,25.11,76.3l-44.67-61.58
	c-4.01-8.2,1.56-21.02-5.82-26.78v-1.35C110.74,1186.36,123.38,1186.34,124.81,1190.36z"/>
<path class="st18" d="M498.13,1178.53l11.08,15.75c11.45,16.16,7.6,40.14,9.87,59.52c-18.16-20.58-26.94-43.77-35.67-68.56
	c-4.52-12.83-7.7-25.03-13.45-38.34L498.13,1178.53z"/>
<path class="st18" d="M432.77,1209.68c3.05,17.62,8.19,34.75,9.04,53.52c-8.35-15.56-23.12-29.14-26.61-45.78
	c-5.1-24.36-14.9-45.81-22.13-70.55L432.77,1209.68z"/>
<path class="st17" d="M830.12,899.33c-13.94-8.72-2.85-12.28-24.92-22.24c0.48-4.79,10.13-7.9,11.64-2.62l3.76-1.54
	c18.98,4.46,38.63-2.18,53.47-14.18c-0.79-3.42-1.99-6.57-3.59-9.44c-3.7-5.22,8.62-14.18,13.35-11.23
	c2.56-1.59,6.58-0.75,9.37-2.17C885.02,865.82,855.76,885.32,830.12,899.33z"/>
<path class="st18" d="M78.78,1205.36c6.26,22.18,16.04,43.68,17.21,67.78l-23.16-34.81l-24.64-19.78
	C58.33,1214.01,67.57,1207.23,78.78,1205.36z"/>
<path class="st18" d="M288.16,1111.34c1.55-1.83,2.18-2.18,2.17,0.35c2.29,10.65,10.04,19.7,15.16,29.46l10.01,76.07L272,1158.47
	c-2.71-8.89-10.67-15.72-15-24.05l1.06-3.97l18.96-15.15C280.77,1111.43,284.48,1110.12,288.16,1111.34z"/>
<path class="st18" d="M1079.57,900.06c11.42,40.84,26.24,56.9,23.93,100.31l45.82,0.17L558.9,1279.02
	c-61.12,28.83-123.08,56.73-182.59,88.23c-12.88-4.12-23.94-13.26-35.91-18.18c14.39-9.46,30.37-17.09,47.51-22.8
	c-6.58-16.21-17.96-29.17-22.17-45.44l-9.21-35.59l-15.86-50.63l33.68,41.99l40.71,53.26c4.34,5.68,3.34,12.66,6.5,19.82
	c44.02-23.22,47.08-43.93,105.76-44.45c61.7-62.56,105.41-24.43,152.07-94.44l-28.26-64.94l-21.22-74.29
	c20.19,19.79,35.23,39.94,51.42,59.83l14.49,17.8l4.71,43.47l35.98-33.21c34.76-32.1,67.47-23.96,112.85-44.64
	c5.11-2.33,8.92-7.08,9.85-11.34c1.09-5-2.2-8.62-5.79-14.17c25.7-11.42,52.75-16.24,80.56-22.96c-4.06-6.31-9.81-12.15-10.13-20.13
	c-0.41-10.21-5.35-18.64-7.91-27.19l-15.37-51.49c9.84,16.26,19.67,30.53,27.73,45.92c8.37,15.98,14.63,33.29,22.35,50.19
	c59.07-10.63,86.65-24.63,151.08-23.32c-10.63-32.51-17.16-65.48-29.04-96.47c-3.54-9.25-3.87-20.35-3.46-30.85
	C1070.71,882.84,1077.03,890.97,1079.57,900.06z"/>
<path class="st18" d="M1030.99,771.72c16.33,30.9,22.91,62.48,25.82,100.45l-25.57-39l-39.09-41.93
	C1004.92,785.8,1017.85,777.68,1030.99,771.72z"/>
<path class="st18" d="M1143.55,719.48c18.29,18.04,15.7,54.08,23.71,83.24c-19.12-22.56-40.99-42.68-55.72-67.57
	C1121.88,730.46,1133.18,724.53,1143.55,719.48z"/>
<path class="st0" d="M417.07,1457.4c2.95,0.25,4.17,3.22,6.03,3.96c-1.43,6.14-14.24,5.73-20.2,5.54
	c-61.37-4.92-123.99-3.23-185.07,2.14c-3.95-0.41-7.9-0.84-4.74-5.18c22.43-15.48,47.64-24.23,73.67-28.19
	C331.81,1428.82,376.75,1439.41,417.07,1457.4z"/>
<path class="st2" d="M423.1,1461.36c5.15,2.03,9.08,3.58,13.55,7.46c-28.6-1.04-56.66,3.43-86.11,3.41l-143.04-0.08
	c1.02-3.94,3.16-6.6,5.6-8.28c0.04,3.12,5.49,2.55,8.76,2.27c59.44-5.2,117.57-6.76,177.01-2.1
	C407.57,1464.71,416.34,1464.18,423.1,1461.36z"/>
<path class="st0" d="M24.55,1397.99c1.14-1.49,1.85-3.91,3.25-5.13c32.37-28.25,75.4-13.77,109.98,6.48L24.55,1397.99z"/>
<path class="st10" d="M1017.91,1293.59c5.57,1.9,11.48,1.04,17.29,1.5l-48.53,94.01l-2.74,2.35c-16.92-2.13-33.83-4.26-50.75-6.39
	l-1.24-2.86c14.77-30.08,34.33-58.37,50.76-88.35l2.83-2.73C996.48,1291.07,1007.27,1291.89,1017.91,1293.59z"/>
<path class="st3" d="M963.33,1271.1c-3.34,6.05-7,15.89-9.49,22.57l-2.47,2.63l-50.91-0.98l-1.52-2.71
	c-1.28-12.91-2.27-26.03-4.48-38.81C917.72,1257.86,940.95,1263.61,963.33,1271.1z"/>
<path class="st19" d="M1044.88,1228.82c12.61-13.82-4.07,46.74-5.88,48.56C1037.64,1262.97,1034.99,1239.66,1044.88,1228.82z"/>
<path class="st3" d="M1017.91,1293.59c-11.57,2.58-23.4-0.18-35.21,0.27c2.13-3.88,3.53-10.05,6.72-13.27
	C998.87,1285.06,1009.56,1287.35,1017.91,1293.59z"/>
<path class="st13" d="M449.94,291.9c3.92,5.48,5.88,8.22,5.88,8.22c15,46.37,27.06,93.54,36.2,141.51l12.87-50.98
	c8.12-28.22,23.88-81.03,46.21-24.2c9.81,24.98,16.31,53.34,20.95,79.44l-2.73,257.12l-5.73,4.56
	c-62.96,19.7-112.39,67.02-138.97,126.93l-5.18,5.13c-0.58,0.92-1.49,2.28-2.28,2.1c-9.92-2.32-25.12-6.95-34.49-10.69
	c-4.2-0.43-6.43-2.06-6.69-4.88l-1.87-185.87l-2.53-2.2c2.51-7.6,2.89-14.95,1.15-22.04l-1.65-133.76
	c-4.24-2.65-4.11-10.94-0.06-13.66c1.05-19.96,0.05-40.01,0.02-60.03c0.64-0.65,0.9-0.98,0.06-1.57l0.09-2.47
	c3.82-27.26,10.87-55.62,19.13-82.21c4.85-15.6,10.5-33.78,19.93-47.12c7.93-11.23,17.38-15.42,28.5-5.47
	C443.62,274.09,452.97,285.58,449.94,291.9z"/>
<path class="st16" d="M41.37,796.97c0.7,0.28,1.25,0.57,1.24,0.83c-0.11,5.04-0.92,11.13-2.24,15.84c0.38,0.68,0.75,0.48,1.13-0.36
	c-0.13-4.2,0.15-9.98,0.99-14.3c0.05-0.27,0.56-0.46,1.21-0.62c41.2,12.91,83.55,18.21,126.2,23.86c-0.05,15.4,30.43,13.37,53,36.29
	l0.82-36.07l2.6-2.54c31.53-9,68.08-12.76,100.47-5.93c16.37,2.39,33.4,7.27,49.2,12.17l43.46,13.48l1.2,4.13
	c-5.81,17.26-10.64,34.82-14.47,52.69c-6.08,23.53-16.3,47.26-33.79,64.75c-29.48,29.49-71.08,61.44-106.4,84.12
	c-1.47,0.94-3.16,1.55-4.9,2.13c-1.75,0.59-3.57,0.99-5.4,1.33c-1.74,3.56-4.34,6.35-7.94,8.02
	c-28.98,15.64-57.29,32.36-84.93,50.16l-7.46,2.13c-18.34-17.79-44.09-27.98-64.53-44.48c-1.1-6.41-1.92-7.2-2.46-2.37
	c-9.76-3.49-19.09-9.56-28.06-14.92c-6.55-31.12-16.42-61.92-17.33-93.8l-0.9-3.67c3.6-14.98,7.48-29.81,11.62-44.48
	c-1.65-2.13,6.86-29.4,6.54-27.98c-1.77,8.01-4.51,17.47-6.87,25.48c-0.25,0.85-0.76,1.63-1.34,2.39
	c0.11,3.44-8.78,46.44-10.46,44.84c-0.89-0.84-1.71-4.19-2.16-6.12c-3.04-34.27-3.68-68.59-1.94-102.95
	c-1.02,3.67-7.17,4.11-8.24,0.25c-1.09-0.03-2.73-0.14-2.96-0.91c-1.92-6.43-9.85-36.72-9.61-41.26c0.08-1.6,0.2-2.65,1.96-3.4
	c0.07-2.82,1.86-3.79,5.36-2.89C30.09,792.95,35.45,795.79,41.37,796.97z"/>
<path class="st13" d="M269.29,440.5l3.46,4c25.07,61.32,35.81,129.06,44.73,193.11l0.25,42.85c4.05,0.84,3.75,10.75-0.29,11.66
	l-1.79,117.05c-1.22,0.44-2.44,0.83-3.7,1.03c-1.24,0.19-2.43,0.36-3.5,0.11c-25.9-6.24-55.08-16.49-80.05-26.1l-5.6-4.52
	l-1.93-85.75c-4.17-0.8-4.53-12.39-0.52-13.85l-2.04-195.32c-4-1.65-3.44-12.22-0.18-14.51c-0.17-0.81,0.39-1.78,0.38-2.62
	c0.79-2.79,2.02-4.27,3.69-4.44c0.67-17.7,15.15-55.32,37.51-40.81C263.52,424.85,272.92,436.61,269.29,440.5z"/>
<path class="st15" d="M567.75,192.95c2.14,4.39,7.39,9.12,7.33,14.81l-0.77,77.71c-0.44,1.97-2.6,3-6.48,3.11
	c-2.71,8.62-6.44,10.62-11.19,5.99l-8.6-8.31c-18.37,7.36-41.71,1.47-58.44-7.72c-8.6,1.49-17.3,1.79-26.11,0.89
	c-3.95,3.36-7.28,7.56-10,12.6l-3.55-0.13c-3.4-8.92-11.99-22.99-21.18-24.9c-29.81-6.21-49.83,120.69-57.56,137.55
	c0.39-10.45-2.24-20.77-1.72-30.29c3.15-57.37-1.32-114.25,0.14-171.82c0.14-5.46,5.34-8.42,6.65-12.3
	c1.34-1.64,3.58-2.63,6.71-2.96c7.69-8.29,18.29-12.01,31.78-11.17c17.63-11.72,36.93-15.37,54.31-0.99l4.99,1.5
	c17.9,0.51,35.85,1.07,53.87,1.67c4.54,1.6,8.34,4.64,11.39,9.1c7.46,4.18,15.87,5.3,25.25,3.36L567.75,192.95z"/>
<path class="st15" d="M322.98,141.73l0.12,1.38c2.22,0.81,2.2,1.25-0.18,1.52c-0.91,1.06-1.13,1.59-0.12,2.7
	c3.69,2.12,3.76,5.79,0.01,7.89c-1.09,1.62-0.98,4.03-0.06,5.69c2.62,0.06,2.77,1.13,0.38,2.28c0.08,0.49-0.16,1.03-0.24,1.52
	c-1.69,7.29-2.18,14.88-1.47,22.79c-0.61,1.73-0.01,4.81,0,6.7c-1.02,16.05-1.19,32.18,0.2,48.21c0,0.35-0.12,1.08,0.09,1.34l0,1.34
	c-0.22,0.26-0.07,0.99-0.09,1.34c-1.68,6.13-1.23,12.57-0.07,18.75c0.27,0.61,0.43,1.98,0.42,2.65l2.14,2.77
	c-0.49,7.68-0.41,15.38,0.25,23.09l-2.69,2.4c-0.92,33.89-2.31,67.73-1.53,101.68l-1.8-5.59c-0.84-26.47-1.72-52.98-2.61-79.53
	c-0.41-4.74-4.07-5.45-10.99-2.13c-10.7-8.58-22.28-13.05-34.75-13.39c-12.01,2.39-23.99,5.38-35.92,8.97
	c-3.54-0.29-6.1-2.6-7.69-6.93l-4.24,1.72l-2.49,25.61l-2.85,1.64l-0.68-124.47c3.15-14.61,12.3-27.85,16.82-41.43
	c-1.06,3.18,16.1-20.64,30.15-13.15l29.43-19.35l19.53,13.55C316.55,142.89,319.51,140.25,322.98,141.73z"/>
<path class="st14" d="M320.15,397.77l0.07,25.46c-1.14,1.01-2.56,1.11-4.26,0.27c-8.6,9.6-18.77,15.95-32.03,12.33l-11.81,6.24
	l-2.83-1.57c-2.81-7.18-12.9-21.99-20.84-19.13c-17.15,6.17-20.12,27.28-26.25,41.83l-1.79-0.15c-1.28-39.62-2.49-79.24-3.62-118.88
	l-0.19-1.43c-1.09-0.56-1-0.98,0.22-1.28c1.33-1.32,1.12-3.86,0.11-5.35c-3.74-1.14-4.04-3.85-0.48-5.59
	c-0.05-0.64,0.29-1.78,0.35-2.37l2.71-27.55c0.27-2.75,6.26-4.66,8.04-3.73c1.62,0.84,3.02,5.23,5.05,6.86
	c29.33-5.9,39.84-19.75,72.71,4.38c2.91-0.55,6.72-3.45,8.54-2.54c2.31,1.16,4.35,3.54,4.55,6.8
	C320.15,341.22,320.07,369.86,320.15,397.77z"/>
<path class="st20" d="M514.11,83.1l53.64,109.85c-42.86,5.73-25.66-15.14-47.51-12.15c-10.68,1.46-23.5-2.31-33.73-1.78
	c-8.77,0.45-15.09,1.59-22.28-3.86c-14.89-11.31-31.36-7.61-45.5,2.02c-6.94,4.73-23.62-0.67-30.38,8.44
	c-3.22,4.34-7.19,6.32-12.09,4.52c2.87-8.52,7.58-16.25,12.03-24.01c11.43-18.98,21.32-38.68,29.68-59.1l0.23-1.08
	c2.34-2.63,4.08-5.82,5.23-9.58c0.04-0.35-0.05-0.76,0.06-1.1c7.11,2.82,9.18-2.82,14.09-5.98
	C461.65,73.82,488.41,77.65,514.11,83.1z"/>
<path class="st10" d="M320.22,423.23c0,0.48,0.19,1.02,0.13,1.49c3.35,5.88,3.39,16.79-0.28,22.49c0.03,0.45,0.03,0.9,0.01,1.35
	c-0.96,1.06-0.97,2.98-0.19,4.11c-0.04,0.8-0.13,1.66-0.05,2.46c-1.58,15.18-1.8,30.51-0.95,45.75l-0.08,43.97
	c4.1,0.14,4.03,11.2-0.02,12.23l-1.3,80.52c-5.86-13.21-6.27-28.04-8.92-43.43c-9.07-52.77-19.98-104.39-39.26-153.68l14.36-7.24
	C311.59,438.89,311.09,412.95,320.22,423.23z"/>
<path class="st10" d="M315.65,809.17l11.14,4.81c-33.99-1.96-70.89-0.35-103.07,8.47c0.32-14.24-0.6-28.4-0.92-42.77
	C253.85,788.89,283.75,802.51,315.65,809.17z"/>
<path class="st17" d="M321.68,296.08c0.24-8.97-1.82-19.35,0.3-28.26l30.49,20.43C341.75,291.38,331.95,294.28,321.68,296.08z"/>
<path class="st17" d="M374.12,640.27l-32.88-2.87c10.23-8.36,23.39-11.78,31.5-21.37C381.11,619.84,374.05,633.68,374.12,640.27z"/>
<path class="st17" d="M320.06,447.22c-0.44-7.49-0.58-15.04,0.28-22.49l33.98,17.65L320.06,447.22z"/>
<path class="st17" d="M323.13,163.19l-0.38-2.28c-1-1.59-1-4.14,0.06-5.69c0.03-2.63-0.13-5.27-0.01-7.89
	c-1.1-0.59-0.95-2.12,0.12-2.7l0.18-1.52c11.17,3.13,20.04,11.3,31.38,16.4L323.13,163.19z"/>
<path class="st17" d="M366.85,66.86l0.27,18.48c-9.35-0.31-18.5-0.42-28.45-2.03C348.73,77.55,357.13,71.06,366.85,66.86z"/>
<path class="st17" d="M318.78,557.09l0.02-12.23c10.44,1.25,20.74,2.95,32.28,6.11C340.26,553.83,329.59,555.37,318.78,557.09z"/>
<path class="st17" d="M371.03,468.62c-0.23,4.31,0,9.34,0.06,13.66l-27.67-0.96L371.03,468.62z"/>
<path class="st17" d="M317.44,692.12l0.29-11.66c7.58,1.27,13.83,6.13,21.44,8.69C331.06,691.97,324.27,690.53,317.44,692.12z"/>
<path class="st14" d="M319.84,455.14c1.66,15.35-0.92,30.48-0.95,45.75C317.07,486.15,315.12,468.88,319.84,455.14z"/>
<path class="st9" d="M321.63,242.41c-2.72-15.47-2.31-32.57-0.2-48.21L321.63,242.41z"/>
<path class="st9" d="M321.43,187.5c-1.92-6.91-3.38-17.16,1.47-22.79C321.81,172.33,324.56,180.35,321.43,187.5z"/>
<path class="st9" d="M418.2,105.95c0.71-3.43,2.07-7.52,5.23-9.58c-0.27,2.32-0.67,4.53-0.33,7.38
	C423.41,106.3,420.73,105.95,418.2,105.95z"/>
<path class="st9" d="M321.56,265.18c-2.04-4.6-2.93-14.08,0.07-18.75C321.25,252.67,321.38,258.93,321.56,265.18z"/>
<path class="st14" d="M319.88,452.68c-1.16,0.12-1.17-1.32-1.09-2.02c0.09-0.82,0.07-2.6,1.29-2.09L319.88,452.68z"/>
<path class="st9" d="M388.3,166.13l29.68-59.1C413.62,128.02,399.24,147.1,388.3,166.13z"/>
<path class="st13" d="M909.34,194.44c6.04-4.71,15.73,8.67,17.55,14.54c0.99,0.25,1.95,0.54,2.82,0.99
	c0.86,0.45,1.65,0.89,2.07,1.55c23.7,37.1,38.97,92.38,48.77,135.43c3.11,9.27,4.45,18.63,4.03,28.09c2.03,0.04,3.04,1.63,3.04,4.77
	l1.52,3.19c-0.01,0.87,0.32,1.75,0.35,2.61c-0.68,0.48-0.64,0.98,0.05,1.45l-0.59,104.14c2.53,1.1,3.42,3.43,2.67,6.97
	c1.07,5.83,0.18,9.77-2.69,11.82l-0.41,89.91l2.62,2.16c-0.68,5.3-0.85,10.59-0.52,15.88l-2.24,2.43l-1.41,113.89
	c-16.58,15.07-30.76,33.63-47.03,50.15c-18.58,18.87-36.93,36.4-56.09,53.67c-4.86,3.01-11.72,5.86-13.35,11.23
	c-0.52,0.83-1.41,0.28-2.69-1.64c-3.39,0.89-7.19,0.2-11.41-2.07c-9.28-1.43-18.75-0.59-28.41,2.51
	c-7.57-14.55-11.34-30.52-11.32-47.93l2.29-5.7c-2.08-0.09-2.27-1.52-0.56-4.3l1.9-5.81c26.23-28.06,39.61-65.03,42.73-102.93
	l6.12-101.62l2.77-1.46l-1.91-2.52c3.03-4.59,4.64-9.33,4.81-14.23c-1.64-0.12-1.76-0.6-0.34-1.44c1.47-2.21,3.36-4.2,5.65-5.98
	l-1.68-3.72c9.78-23.07,16.22-42.31,6.55-66.54c-10.39-26.05-24.73-17.05-41.23-2.97c-22.5-5.32-44.6-4.59-67.18-0.16
	c-31.47-34.71-48.35,6.76-45.73,37.45c24.91,59,22.55,152.02-53.43,167.56l-58.28,9.17l-1.96-2.4l-3.76-373.73
	c-0.94-15.63,17.67-55.74,34.14-56.66c9.7-0.55,22.19,14.34,25.54,22.41c1.21,2.92,1.54,4.19,0.87,7.68
	c1.29,1.35,2.54,2.73,3.62,4.22c1.07,1.48,2.1,2.96,2.75,4.58c7.12,17.91,12.92,36.41,18.32,54.9
	c11.09,37.94,19.17,76.75,27.18,115.39l12.77-28.83c15.34-30.36,34.24-49.17,56.82-11.49l9.52,19.94
	c10.49-53.96,23.16-107.4,38.01-160.3c0,0,2.14-3.97,6.43-11.9l-2.13-2.16c6-22.81,26.25-72.06,47.55-82.8
	C898.92,191.78,908.15,188.62,909.34,194.44z"/>
<path class="st20" d="M958.91,80.55c7.1,15.26,16.4,29.39,21.31,47.06c1.81,6.52,9.51,10.66,9.9,18.37l-0.44,55.09l-1.61,0.84
	c-2.29,7.87-5.21,9.53-8.74,4.97c-3.72-16.14-18.5-30.39-34.98-21.04c13.99,3.74,8.86,11.76-4.18,11.08L922,193.27
	c3.81,4.23,6.42,8.72,7.82,13.47l-2.94,2.23c-3.48-5.06-11.49-13-17.55-14.54c-4.84-1.18-2.54-6.95,0.64-9.7
	c-24.91-2.26-49.95-2.72-75.12-1.36c-35.66-1.43-71.26-1.33-106.78,0.31c-7.39,1.67-14.55,2.39-21.49,2.15
	c-5.06-3.55-9.66-4.04-13.79-1.45c-11.95,15.35-26.14,13.7-41.2,4.44c-20.17,15.1-34.87,3.24-40.18-18.82L610.52,62.9l28.73,8.47
	c3.62-2.36,7.72-5.81,11.74-4.25c3.9,1.52,4.96,4.37,7.86,8.3c3.22,4.38,17.36,3.54,19.75-1.65c4.93-10.7,40.37-11.54,34.08-9.89
	c7.82-2.05,16.04-0.86,25.58-0.76l41.09,0.42c23.85,0.24,50.98-2.09,75.32,2.71c9.59,1.89,19.04-2.45,27.18-1.04l40.5,6.99
	c1.95,1.64,4,6.36,7.89,4.57c10.27-4.73,2.18-18.94,10.07-16.33C950.24,63.73,945.86,74.17,958.91,80.55z"/>
<path class="st13" d="M1122.14,286.54l-3.67,357.65c-23.03,13.35-47.96,24.51-69.7,39.98l-2.78-144.4
	c-1.99-1.42-2.61-3.81-1.86-7.16c-1.49-5.83-0.9-10.14,1.76-12.95c0.31-31.15-0.99-62.41-1.22-93.53
	c-4.16-0.65-4.05-11.14-0.09-12.2l0.56-19.04c4.97-23.74,11.19-48.54,19-71.79c4.1-12.2,8.62-25.6,16.09-36.13
	C1092.87,269.16,1107.87,274.55,1122.14,286.54z"/>
<path class="st20" d="M1123.39,112.23l-1,86.13l-2.3,2.2c-3.05-0.61-5.95-0.14-8.78,1.1c-5.9,2.59-17.48,15.66-22.11,21
	c-0.52,0.6-1.71,1.14-2.58,1.12l-12.13,21.06l-3.26,0.25l25.53-67.45l-53.23,101.44l-2.1-107.87c-7.22-1.81-13.59-0.69-19.84-3.05
	l18.96-7.61l0.08-46.7c0.02-10.88,1.89-22.02,1.53-33.78c8.56,13.43,41.63-10.46,60.26,6.58c5.01,4.58,10.17,11.17,16.66,14.37
	c-1.4,3.82-4.99,6.89-3.76,8.77C1117.34,112.84,1120.68,112.68,1123.39,112.23z"/>
<path class="st15" d="M988.07,201.91l1.52,3.34c-0.75,21.8-0.65,43.59,0.29,65.36c1.25,0.17,1.3,0.66,0.25,1.46
	c0.01,0.41-0.1,0.85-0.16,1.26c-0.29,33.16-1.17,66.26-2.65,99.3c-0.2,1.48-1.17,2.23-2.74,2.4
	c-11.85-49.37-29.2-124.61-57.69-166.06c2.09-7.79-8.15-9.96-8.04-18.29c10.78-1.14,20.5,6.98,31.31,2.13
	c-0.95-5.64-7.39-2.73-10.76-6.62c7.59-7.24,19.71-7.86,28.22-2.09c6.58,4.46,12.32,12.89,14.39,22.94
	C986.47,207.12,984.22,201.39,988.07,201.91z"/>
<path class="st15" d="M1122.4,198.36l-0.25,88.17c-4.08,4.84-13.32-12.76-28.98-7.34c-24.86,8.6-38.21,99.53-48.01,115.68
	l-1.02-29.05c-4.09-0.64-3.68-9.92,0.26-10.71l-0.85-29.68c0.79-1.73,0.72-3.61-0.02-5.36c0.11-0.87-0.03-1.8,0-2.68l0.75-1.34
	c7.34-22.67,16.84-44.74,25.57-66.96l1.29-2.68l0.09-1.34l13.78-23.33C1094.23,219.41,1103.44,192.9,1122.4,198.36z"/>
<path class="st17" d="M988.36,620.38c-1.67-6.7,0.12-13.69,0.15-20.47c13.19,2.72,25.03,9.14,39.1,14.2
	C1014.31,617.04,1001.46,619.12,988.36,620.38z"/>
<path class="st17" d="M1045.91,519.65c-0.07,6.69,2.06,13.61,0.09,20.11c-13.02,0-26.02-1-39.02-3.05L1045.91,519.65z"/>
<path class="st17" d="M988.92,509.99l0.01-18.8c12,3.79,22.71,10.53,34.57,15.9L988.92,509.99z"/>
<polygon class="st17" points="1039.31,38.84 1004.31,37.13 1038.78,21.64 "/>
<path class="st19" d="M990.2,258.36c3.67,2.03,3.28,10.28-0.32,12.25c-3.14-22.32-2.65-45.72-1.81-68.7l2.05-55.93
	C992.01,183.29,991.23,220.99,990.2,258.36z"/>
<path class="st17" d="M1044.6,413.92l0.09,12.2l-33.77-2.37C1022.73,419.5,1033.43,415.97,1044.6,413.92z"/>
<path class="st17" d="M990.13,272.07c-0.01-0.48-0.17-0.98-0.25-1.46c-0.64-4.1,0.21-8.18,0.32-12.25
	c8.26,4.35,17.56,5.29,26.66,9.12C1007.1,269.86,998.61,270.89,990.13,272.07z"/>
<path class="st19" d="M989.14,382.99c-3.73-0.72-3.82-4.85-4.56-7.95c8.22-25.39,0.64-70.89,5.39-101.7L989.14,382.99z"/>
<path class="st17" d="M1044.4,355.12l-0.26,10.71l-24.33-2.61C1028.07,360.07,1035.84,355.44,1044.4,355.12z"/>
<path class="st17" d="M1043.55,325.45c-0.05-1.79-0.26-3.56-0.02-5.36C1045.21,321.04,1045.24,324.49,1043.55,325.45z"/>
<path class="st13" d="M173.37,467.7c-0.01,0.75,0.34,1.51,0.35,2.26c-0.64,0.47-0.56,1.02,0.1,1.47l-0.47,45.45
	c3.57,9.32,3.5,18.87-0.11,28.17c0.15,16.58-1.42,33.23-0.21,49.79c4.21,1.14,3.75,9.57-0.3,10.7l-2.59,143.12
	c-38.5-22.14-70.38-53.78-101.03-85.55l-0.18-61.51c-1.16-0.08-1.93-0.65-2.65-1.5c-0.56-0.66-0.68-16.19,2.98-15.81l0.31-177.06
	c3.85-17.22,19.55-54.97,38.09-58.99c20-4.33,33.59,24.41,40.27,39.29C159.45,413.2,166.75,440.94,173.37,467.7z"/>
<path class="st15" d="M174.11,212.95c0.1,18.35-1.39,37.08,1.42,54.97c0.05,0.31,0.04,0.77-0.05,1.07
	c2.86,2.53,2.79,13.07-1.03,14.62l-0.2,103.46c-3.02-1.89-4.35-4.98-3.99-9.28l-0.34-47.59l-5.67-1.18
	c-13.05,0.71-23.83,0.97-29.13-13.01c-10.39,1.53-20.77,2.1-31.14,1.71c-2.93,15.56-9.89,8.8-17.45,0.63
	c-5.26-5.86-10.76-8.37-16.5-7.53l-1.07-1.84c0.29-12.39,0.06-24.75-0.68-37.1l-0.02-30.8c1.28-2.08,0.84-4.65-0.16-6.72
	c0.03-0.47-0.43-1.04-0.33-1.5c-3.48-1.45-3.67-8.95,0.01-10.52l0.37-38.75c0-3.63,4.22-4.53,7.29-4.97
	c9.58-1.36,12.87,1.47,13.2,11.33c19.26,3.13,38.7,1.07,57.57-3.17l13.58,3.11c4-1.07,6.97-0.66,8.89,1.24
	C171.44,198.12,173.25,205.4,174.11,212.95z"/>
<path class="st14" d="M174.24,387.07c0.14,0.71,0.36,1.72,0.2,2.43c3.13,2.78,3.68,14.16-0.34,16.21l-0.73,62
	c-3.96-1.41-3.97-6.29-5.15-10.57c-6.41-23.29-27.18-102.28-53.8-106.47c-23.79-3.74-36.87,45.54-44.84,56.59
	c-1.34-16.78-1.68-34.04-1.1-51c-0.12-15.3,0.39-30.45,1.54-45.43c2.17-11.24,23.5,9.77,27.17,14.52c4.87-2.83,3.07-8.52,5.01-9.69
	c2.91-1.77,6.6,0.25,9.32-0.01l25.64-2.51c7.5,21.76,19.7,8.67,35.08,15.11C174.47,348.61,170.42,368.16,174.24,387.07z"/>
<path class="st17" d="M173.25,545.06c-0.08-9.42,0.01-18.74,0.11-28.17c11.9,5.39,22.26,14.05,33.35,22.24
	C194.61,542.39,184.06,544.1,173.25,545.06z"/>
<path class="st17" d="M218.14,470.25c0.99,4.81,0.13,9.7,0.18,14.51c-7.6-0.39-15.26-1.09-22.37-2.56c-0.19-1.21,4.99-3.22,4-4.42
	c-3.58-4.36-18.23,1.5,3.77-3.17l-12.79-2.11C200.09,470.9,209.08,469.69,218.14,470.25z"/>
<path class="st17" d="M174.1,405.71c0.06-5.42-0.86-10.87,0.34-16.21c10.19,1.29,19.52,6.42,29.4,10.32L174.1,405.71z"/>
<path class="st19" d="M222.21,463.2c-0.79,1.89-1.11,4.46-3.69,4.44l-1.72-123.47L222.21,463.2z"/>
<path class="st17" d="M174.44,283.61c0.01-4.9-0.51-9.97,1.03-14.62c8.1,1.65,13.86,8.15,21.66,11.72
	C188.79,282.56,181.78,283.14,174.44,283.61z"/>
<path class="st17" d="M215.54,170.09c-1.79,3.66-0.12,8.06-0.83,12.48c-8.14,0.21-16.15-0.13-24.54-0.79
	c7-6.29,15.72-9.09,23.9-13.13C214.51,169.18,215,169.66,215.54,170.09z"/>
<path class="st8" d="M220.36,680.08l0.52,13.85l-25.29-4C204.53,686.47,212.1,682.2,220.36,680.08z"/>
<path class="st17" d="M216.45,330.51c0.14,1.87,0.47,3.72,0.48,5.59c1.14,1.53,1.13,3.89-0.11,5.35l-0.22,1.28l-24.43-2.51
	C200.59,335.75,208.44,332.78,216.45,330.51z"/>
<path class="st8" d="M172.74,605.55c0.06-3.36,0.54-7.38,0.3-10.7c7.39,1.03,14.45,3.36,22.78,7.67
	C188.06,604.52,180.41,605.2,172.74,605.55z"/>
<path class="st0" d="M880.11,554.22c-0.68,2.91-3.29,4.03-7.84,3.36c0,0,0.73,0.87,2.19,2.62c-0.32,0.51-0.17,1.11,0.34,1.44
	c1.45,3.31-2.18,5.72-4.3,3.38c-8.16,0.23-16.25,0.03-24.28-0.62c-0.6,1.86-1.9,2.69-3.92,2.51l0.13,2.61
	c6.19,1.71,12.39,3.34,18.6,4.89l0.01,1.53c-0.08,1.59-0.18,3.39-1.23,4.53c-7.68,8.35-27.83,14.57-39.08,15.93
	c-25.85,3.12-45.32-5.54-66.26-18.83c11.38,14.08,24.31,26.74,38.78,37.97c46.4,47.33,31.09,112.35,1.49,164.2
	c-2.1,7.19-5.42,12.91-9.97,17.14c-1.28,12.65-3.2,25.09-5.77,37.34l0.75,9.95c-1.77,6.1-1.48,12.7,0.86,19.79
	c2.39,1.91,4.55,4.35,6.5,7.32c3.4,1.79,6.21,3.86,8.41,6.21c15,2.77,29.76,10.6,27.99,27.51l-21.41-17.82
	c6.27,5.36,10.43,11.42,14,19.8c-4.64,3.05-13.38,3.6-16.51-1.52c-4.04-6.6-6.9-13.48-14.82-14.89c5.48,4.67,9.89,9.71,11.54,18.6
	c-15.1,2.39-30.81-4.27-39.4-17.69l-35.95-56.21c-12.06-18.86-13.84-39.13-11.52-61.41c-2.81,10.82-7.65,23.86-4.95,35.1
	c-9.91,5.2-20.66,9.07-32.23,11.61c-28.12,9.74-55.17,21.88-81.16,36.4l-4.58,0.7c-3.39-0.38-6.38-2.57-8.97-6.57
	c35.1,42.85,7.32,97.41-29.14,129.66l40.24-6.71c10.61-0.78,26.94,2.02,30.95,13.8c1.39,4.09,0.03,7.39-4.4,5.62
	c1.05,5.42-9.62,11.05-14.75,8.82c-3,4.34-7.83,5.45-12.71,6.21c-25.96-0.17-51.92,1.8-77.87,5.91c-6.3,0.67-13.2-0.06-17.67-5.07
	l-7.9-17.84c-3.03-5.17-9.06-10.53-14.66-12.75c-32.3-12.79-52.75,6.69-71.94,29.81l-3.68-0.1l1.21,2.56
	c-29.41,28.85-58.82,57.7-88.25,86.56l-3.04-0.77l-1.36,1.09c-0.12,1.24-0.54,1.23-1.24,0.09l-1.35,1.68
	c1.94,1.84,1.14,2.56-1.34,1.22c-1.95,4.7-4.2,5.54-6.77,2.54c-2.34,0.06-4.09-1.81-5.23-5.62c-6.31-1.48-11.28-5.53-15.61-10.22
	c-15.17-2.95-16.85-14.24-13.79-27.54l-0.7-3.9c-1.94-2.85-2.23-5.3-0.88-7.35c36.98-23.37,71.44-51.33,104.76-79.94
	c47.28-40.58,41.7-88.53,59-129.22c28.55-67.12,79.4-116.09,149.88-136.61c15.46-4.5,31.93-7.92,47.86-10.42l57.97-9.1
	c26.23-4.12,47.69-20.84,57.67-45.37c15.85-38.99,10.75-77.43-3.64-116.14c-6.02-16.2,3.7-41.88,13.68-53.64
	c10.55-9.22,27.58,1.23,34.23,10.18c22.84-5.19,44.01-5.74,66.13,0.1c7.49-8.17,24.61-20.13,35.05-10.19
	c10.87,10.35,15.81,33.01,13.92,48.03C890.47,530.06,883.46,542.11,880.11,554.22z"/>
<path class="st15" d="M909.34,194.44c-29.27-7.42-53.51,63.82-59.94,84.36c-3.08,7.24-7.74,12.62-13.97,16.15
	c-9.92-6.53-21.26-9.11-34.03-7.73c-8.73-1.67-17.5-2.32-26.32-1.95c-26.81,4.46-55.33,8.97-80.57-4.02
	c-7.91-2.34-14.71,3.39-17.57,10.54l-2.97,0.5c-3.33-8.16-9.54-15.71-15.67-22.55c-20.29-22.69-43.35,39.49-44.88,49.12
	l-2.01-148.84c5.22,6.23,7.92,14.96,14.93,20.91c7.64,6.48,19.48-1.89,25.77-5.51c8.16,5.84,20.8,11.82,30.75,4.66
	c3.72-2.68,7.5-9.03,12.97-10.02c7.13-1.29,10.93,5.3,16.6,3.63c26.15-7.71,103.55-1.86,140.07-3.19
	c22.16-0.8,44.29-1.16,65.71,1.92c-1.43,5.61-5.38,3.08-7.06,4.7C909.1,189.12,909.22,191.96,909.34,194.44z"/>
<path class="st14" d="M574.31,285.48l-2.25,160.41c-7.45-14.34-21.64-101.45-41.08-101.88c-17.07-0.37-32.46,90.52-39.43,108.34
	c-12.32-55.35-21.99-108.9-41.6-160.45c5.67-5.09,7.8-17.25,17.95-15.43c6.73,1.21,15.62,1.18,22.16-0.45
	c9.89,6.97,48.24,16.99,57.27,6.26c6.17,4.44,9.07,9.63,14.7,12.86c1.69-3.66,2.16-6.95,4.1-8.57
	C568.43,284.62,571.66,285.49,574.31,285.48z"/>
<path class="st20" d="M174.11,212.95l-8.34-21.98c-5.68,4.78-15.76-2.61-20.8-1.41c-19.26,4.6-38.54,6.25-59.46,2.49
	c-0.14-5.27,1.24-10.23-4.4-11.06c-4.56-0.67-8.61,1.33-12.96,2.57c0.19-19.52-1.78-39.44-1-59.01l2.28-56.93
	c28.15,13.12,34.05-26.63,81.7,6.35c5.6-0.79,13.09-4.1,17.01,0.74c3.05,3.76,5.27,9.14,5.3,15.1L174.11,212.95z"/>
<path class="st17" d="M21.76,401.56l1.09-29.02l37.89,24.88C46.33,398.81,34.36,401.91,21.76,401.56z"/>
<polygon class="st17" points="69.27,584.31 68.94,601.62 31.9,595.34 "/>
<path class="st17" d="M25.91,160.72c0.54-6.14,0.13-12.63,0.22-18.81c10.35,1.49,17.07,11.19,27.41,16.53
	C43.88,160.01,35.09,160.54,25.91,160.72z"/>
<path class="st17" d="M24.02,275.66l0.06-1.15c-0.98-1.85-0.71-3.54,0.02-5.42l0.06-6.43c-0.5-1.03-0.92-2.1,0.11-2.87
	c0.02-0.52,0.4-1.05,0.36-1.57c10.47,3.76,19.24,11.15,30.03,16.58L24.02,275.66z"/>
<path class="st17" d="M21.24,485.89c0.11-6.08,0.57-12.62,0.57-18.65c10.27,3.52,18.99,10.7,28.76,16.92L21.24,485.89z"/>
<path class="st17" d="M67.9,314.87c1.84,3.03,1.7,8.49,0.14,11.69l-23.91-0.49C51.76,321.7,59.52,317.26,67.9,314.87z"/>
<path class="st17" d="M67.78,222.32c-0.03,3.49,0.78,7.01-0.01,10.52l-22.46-1.74L67.78,222.32z"/>
<path class="st20" d="M70.02,310.82c0.62,15.14-1.03,30.57-1.54,45.43l-0.45-29.69c-0.06-3.75-0.17-7.97-0.14-11.69l0.38-42.99
	C70.79,284.39,69.49,297.77,70.02,310.82z"/>
<path class="st9" d="M23.77,314.45c-0.14,15.26-1.11,30.5-1,45.82h-1.34C23.03,344.89,18.24,328.29,23.77,314.45z"/>
<path class="st9" d="M25.45,218.3c0.09,12.54-2.47,24.89-1.2,37.5c-2.59-11.94-2.3-25.47-0.14-37.5
	C24.5,217.42,24.95,217.44,25.45,218.3z"/>
<path class="st9" d="M23.89,301.34c-1.86-7.52-1.99-16.63,0.06-24.11C23.61,285.24,23.96,293.32,23.89,301.34z"/>
<path class="st20" d="M68.26,241.07c0-2.24,0.04-4.49-0.16-6.72c1.03,0.85,1.73,2.05,1.68,3.34
	C69.72,238.94,69.91,240.94,68.26,241.07z"/>
<path class="st20" d="M1122.9,104.37c-0.01,1.79,0.34,3.58,0.4,5.37c-2.52,1.55-4.06-0.58-3.15-2.7
	C1120.59,106.02,1121.79,105.24,1122.9,104.37z"/>
<path class="st13" d="M17.15,790.32c2.16,1.45,4.08,3.51,1.46,5.39l10.62,45.57l3.14,2c0.94,18.81,1.71,18.52,2.32-0.86l2.78-1.39
	c4.21,34.9-3.38,70.63,4.55,108c1.94-15.24,7.44-29.43,10.01-43.77c0.66-2.27,1.24-2.26,1.67,0.11l-10.72,48.15
	c-3.1-1.25-1.58-6.2-5.12-6.67c-0.93-87.99-21.37-82.44-24.74-159.06C14.27,788.4,15.77,790.38,17.15,790.32z"/>
<path class="st13" d="M43.7,798.37c-1.1,4.98-0.13,10.17-2.2,14.92c-0.06,0.8-0.45,0.89-1.13,0.36c-0.84-5.6,1.52-11.23,0.99-16.67
	l-4.37-45.17c4.9,9.17,0.73,18.81,6.8,28.39c4.6-17.33,9.71-33.78,18.33-49.65c5.7,9.02-2.58,15.01-6.08,22.1
	C48.98,766.96,46.2,783.09,43.7,798.37z"/>
<path class="st3" d="M23.97,792.81c-1.47,1.46-3.38,2.32-5.36,2.89c-0.37-1.61-2.75-3.29-1.46-5.39
	C19.65,790.2,21.88,792.2,23.97,792.81z"/>
<path class="st2" d="M1047.47,1398.31c-5.29,7.08-12.16,16.48-16.19,24.17l-48.19-0.11c4.6-9.86,9.44-21.19,13.39-31.2
	L1047.47,1398.31z"/>
<path class="st21" d="M255.69,1048.78c10.49,15.18-2.92,17.92,6.22,31.69c2.32,3.5,8.62,2.62,11.42,5.58
	c14.12,14.92,14.11,2.6,18.56,17.37c4.12,2.37,0.33,7.87-3.72,7.93c-11.49,5.93-20.57,16.16-31.16,23.07
	c-40.88,26.7-82.83,55.14-132.2,55.95l-14.99,0.25c-7.48,0.12-15.3-0.83-23.41-2.56c8.57-34.43,43.29-59.73,68.94-78.97
	C186.59,1085.65,222.87,1069.52,255.69,1048.78z"/>
<path class="st13" d="M90.83,1064.6c-0.87-0.7-2-1.28-2.46-2.37c1.57-22.41,6.92-44.06,9.9-66.95c3.84-29.47,5.57-58.07,17.83-86.23
	C116.07,964.51,93.23,1006.4,90.83,1064.6z"/>
<path class="st2" d="M878.57,1375.55l8.27,49.18l-68.55,3.17c-4.94-19.57-11.85-38.94-18.75-57.93L878.57,1375.55z"/>
<path class="st10" d="M953.84,1293.68c-10.83,29.01-21.14,58.39-30.92,87.32l-2.6,2.53l-18.55-1.59l-2.55-2.42
	c1.77-28.98,2.59-57.91-0.27-86.89L953.84,1293.68z"/>
<path class="st2" d="M986.67,1389.1c-5.29,10.24-11.45,23.21-15.38,33.76l-55.37,0.57c4.93-14.21,9.48-27.88,16.03-41.22
	L986.67,1389.1z"/>
<path class="st2" d="M922.92,1380.99l-14.86,43.93c-3.13,3.35-9.29,2.41-11.53-1.5l2.68-43.91
	C907.14,1378.35,914.96,1380.71,922.92,1380.99z"/>
<path class="st1" d="M908.06,1424.92l-11.49,37.53c-0.57-13.34-0.81-26.34-0.04-39.03C900.42,1423.55,904.24,1424.25,908.06,1424.92
	z"/>
<path class="st9" d="M24.08,274.51c-0.71-0.59-1.02-1.43-1.33-2.18c-0.58-1.38,1.34-2.29,1.35-3.25L24.08,274.51z"/>
<path class="st13" d="M717.68,842.33c10.78,12.32,18.36,26.6,27.64,41.24c3.92,6.18,11.75,10.28,7.02,17.72l-43.66,17.84l-7.96,0.76
	c-26.08-6.55-52.14-13.09-78.18-19.64l-0.9-2.99l-2.3-2.65c-0.69-4.71-0.76-15.3,2.28-18.65c0.39-1.11,0.83-2.18,1.43-3.16
	c6.13-10.01,46.22-24.14,59.12-27.44c7.42-1.9,26.42-6.69,32.42-4.57C715.66,841.16,716.68,841.72,717.68,842.33z"/>
<path class="st18" d="M586.54,857.65l3.49,0.52c2.98,4.35,11.09,25.24,10.68,29.79c-0.15,1.62-0.42,2.72-1.98,3.77
	c0.57,0.89,1.1,1.81,1.45,2.78c0.33,0.91,0.59,1.8,0.52,2.66c-2.16,27.38-19.18,56.79-37.87,76.33l32.31-4.41l2.29,2.39
	c10.42,1.84,20.65,7.72,25.56,17.95c-14.78,21.97-38.68,23.22-61.53,22.09c-22.13-1.1-43.3,10.58-64.46,6.52l-3.12,1.21
	c-6.57-5.46-10.7-12.85-12.36-22.17c-2.38-2.81-3.09-5.23-2.13-7.26l-4.18,0.23c-14.97-10.91-27.47-12.66-43.25-3.32
	c-3.37,1.99-25.75,17.68-26.63,19.06c-1.7,2.68,19.04,38.01,29.5,35.39l1.49,2.8c-1.57,3.68-4.98,2.17-7.77,3.47
	c-4.74,0.67-9.16-1.06-13.25-5.2c-7.62-6.9-13.52-15.28-17.7-25.16c-3.14-3.05-4.32-5.94-3.56-8.67
	c13.9-13.64,27.56-33.87,47.87-35.63c47.77-4.13,47.28,29.59,52.6,35.07c4.06,4.17,10.19,4.4,15.88,3.76l54.46-6.06
	c11.32-1.26,23.25,4.88,33.08-4.02c-4.54-5.63-11.46-7.89-18.33-12.09c9.43-1.91,16.24,4.29,22.25,10.56
	c3.29,1.72,8.86-1.77,12.11-3.54c-4.71-8.21-11.58-12.49-20.93-15.05c10.84-3.21,15.78,5.65,25.85,11.01
	c-3.55-14.92-20.83-19.18-33.54-16.57l-47.19,9.7c23.23-18.25,41.56-40.06,49.86-68.3c9.98-33.95-4.25-66.18-35.47-83.17
	C566.17,837.27,578.95,846.38,586.54,857.65z"/>
<path class="st8" d="M479.38,989.83l0.54,3c-9.83,5.43-18.96,11.76-27.37,19.01c-4.12,5.58-0.18,7.52,11.8,5.82
	c6.36-0.18,10.08,1.7,11.15,5.65l-1.44,2.45c-10.02,3.6-21.32,8.18-29.41,14.87c-1.8,1.21-7.22,1.24-8.34,3.36
	c-17.35-0.41-30.36-27.25-34.22-39.36C427.81,989.13,443.38,962.22,479.38,989.83z"/>
<path class="st16" d="M497,1018.04c-3.81,5.3-14.92,8.26-21.5,5.27c-14.41-6.56-17.7,0.34-24.53-3.74
	c-13.5-8.06,23.24-24.92,28.41-29.75C488.31,996.67,483.28,1010.22,497,1018.04z"/>
<path class="st16" d="M428.54,1047.47l-128.6,60.01c-5.49,1.85-6.64-4.33-1.28-6.61c0.48-0.17,1.02-0.82,1.34-1.22l1.35-1.68
	c0.4-0.09,0.85,0.03,1.24-0.09l1.36-1.09l90.08-88.36C407.76,1022.16,401.77,1033.57,428.54,1047.47z"/>
<path class="st3" d="M299.94,1107.48c-3.03,1.41-5.64,4.87-9.6,4.22l-2.17-0.35c1.33-2.61,3.06-5.05,3.72-7.93
	c2.32-0.67,4.5-1.73,6.77-2.54C296.6,1103.02,297.91,1105.75,299.94,1107.48z"/>
<path class="st22" d="M704.51,808.94c2.55,10.6,5.77,24.93,13.17,33.39c-34.27,2.38-68,13.83-96.07,33.63
	c-3.03,7.25-14.37,13.65-21.89,15.92c-0.3,1.15-0.63,1.07-1-0.14c-1.76-9.78-6.36-25.41-12.19-34.08
	C623.17,835.15,662.45,818.33,704.51,808.94z"/>
<path class="st13" d="M788.55,846.38c2.08-1.92,2.91-1.11,1.45,1.36c3.09,4.92,6.77,9.33,11.02,13.25
	c2.41-2.89,12.22,3.19,15.04,5.37l0.82,3.1c3.68,1.3,3.78,3.87-0.04,5.02c-3.91-1.21-8.1,1.82-11.64,2.62
	c-2.99,0.48-6.61,0.4-9.66,0.4c-7.01-0.02-14.59-6.16-14.91-13.53c-2.4-7.6-2.7-14.83-0.9-21.7
	C782.68,842.11,785.62,843.48,788.55,846.38z"/>
<path class="st18" d="M870.47,849.32c3.3,2.02,5.6,5.69,6.59,10.39c-17.31,14.4-39.16,21.28-60.23,14.76l0.04-5.02l3.05-1.96
	c6.76,1.68,20.52,2.95,26.41-1c1.82-1.22-7.78-6.89-9.59-7.72c-3.29-9.68,7.36-5.79,12.99-1.46c3.7,6.32,7.39,7.64,11.05,3.95
	c-3.04-4.96-2.44-7.8,1.8-8.52c2.71,2.42,4.82,3.36,6.34,2.81c-2.65-3.45-3.03-6.07-1.14-7.88L870.47,849.32z"/>
<path class="st23" d="M301.04,932.05c-10.1,1.15,32.01,4.99,29.45,20.75c-0.53,3.26-3.42,6.26-7.35,7.86
	c-27.97,11.34-57.55,7.99-85.16-3.88c-23.49-10.1-86.22-38.52-80.43-69.83c1.57-8.49,9.14-15.38,18.78-18.67
	C218.75,853.79,280.11,897.91,301.04,932.05z"/>
<path class="st12" d="M53.69,905.36l-1.67-0.11c5.34-29.74,11.54-59.72,27.79-85.76C79.01,850.83,60.14,876.38,53.69,905.36z"/>
<path class="st12" d="M102.67,1049.47c10-25.56,18.8-51.94,37.94-72.93C133.59,1003.96,119.88,1027.38,102.67,1049.47z"/>
<path class="st13" d="M82.67,1011.28c0.23,4.93,0.83,11.68-5.63,15.01l-12.03-65.57c7.94,19.23,7.34,38.92,13.13,58.59
	C80.59,1018.23,80.74,1015.64,82.67,1011.28z"/>
<path class="st3" d="M37.46,841.02l-2.78,41.04c-5.34-14.22-2.51-28.12-5.46-40.79C31.97,841.25,34.71,840.77,37.46,841.02z"/>
<path class="st3" d="M40.03,835.72c-2.71-3.63-2.82-7.36-1.04-10.58C42.41,827.76,41.53,831.72,40.03,835.72z"/>
<path class="st3" d="M41.5,813.29c-0.53,1.21,0.58,3.58,1.02,4.28c0.58,0.93-0.01,3.27-2.56,2.09c-0.66-0.31-0.08-5.17,0.42-6.01
	L41.5,813.29z"/>
<path class="st9" d="M322.75,160.9c-1.47-0.13-1.4-2.37-1.31-3.45c0.05-0.72,0.1-2.52,1.37-2.24L322.75,160.9z"/>
<path class="st19" d="M216.83,341.45c0.3-1.75,0.12-3.57,0.11-5.35c1.58-0.12,1.42,2.11,1.46,3.39
	C218.42,340.3,218.24,341.81,216.83,341.45z"/>
<path class="st14" d="M849.4,278.8c-18.47,59.02-30.57,118.98-43.5,181.4c-6.44-14.92-18.19-48.62-37.47-47.09
	c-20.16,1.6-33.68,48.38-43.59,66.34c-13.15-63.47-26.39-127.15-50.86-187.16c2.75-9.81,13.59-17.61,22.83-12.96
	c22.99,11.58,49.15,8.03,74.09,3.81c11.33-1.92,18.53-0.14,29,1.22c11.87,1.53,24.53-2.48,35.59,8.41L849.4,278.8z"/>
<path class="st22" d="M861.04,575.94c5.58-1.66,9.2-0.84,10.85,2.45l-5.81,97.65c-2.59,43.46-17.45,84.11-47.71,114.17
	c0.09,1.02-0.23,2.44-0.81,3.23c-2.71,3.67-28.67,30.5-30.8,30.99c-1.9,0.43-2.65,0.05-3.75-1.56c-2.38-3.5,0.71-21.01,1.76-25.99
	c9.76-27.77,27.25-51.51,33.04-82.35c7.96-42.4-4.12-82.69-40.64-109.33c-10.72-7.82-16.93-17.71-27.84-28.62
	c3.43-3.47,8.39-1.4,13.67,2.49C791.82,600.31,834.56,599.47,861.04,575.94z"/>
<path class="st8" d="M867.79,847.68c1.02,2.28,2.55,4.37,3.35,5.95c1.51,2.97-1.02,4.75-2.67,5.02c-3.86,0.63-3.89-3.48-7.76-3.49
	c3.29,5.37,4.07,7.28-0.51,9.84c-10.28,5.77-8.56-11.1-23.43-9.36c5.38,3.4,10.65,5.15,14.02,11.63
	c-10.44,5.89-22.72,5.34-33.92,2.17c-5.78-1.64-10.44-6.06-15.86-8.47c-4.24-3.89-7.92-8.31-11.02-13.25
	c-0.24-0.44-0.96-1.33-1.45-1.36c-7.3-2.71-10.46-7.23-9.46-13.57c12.5-12.39,24.86-25.04,37.07-37.95l2.78-0.36
	c1.16,17.05,2.18,34.95,9.97,51.65C843.46,840.39,855.43,840.12,867.79,847.68z"/>
<path class="st18" d="M818.94,794.5c-12.76,12.9-23.52,27.85-38.31,39.15c0.18,6.64,5.34,8.42,7.91,12.72
	c-2.12-0.12-7.4-4.05-8.38-0.89c-1.93,6.21,0.21,12.69,0.45,18.47c-7.56-21.22-1.69-45.16,4.15-67.08
	c-2.11,6.86,0.01,17.32,0.57,26.16l33.03-32.82C819.25,791.52,818.84,793.06,818.94,794.5z"/>
<path class="st8" d="M880.11,554.22c0.73,1.63,0.29,3.74-0.79,4.73c-1.57,1.45-3.34,1.55-4.86,1.25
	c-11.44-2.23-22.15-0.26-35.04,2.64c5.61-7.12,13-10.96,22.26-11.23c-3.88,4.29-9.14,3.08-13.87,6.84L880.11,554.22z"/>
<path class="st11" d="M871.9,578.39c-2.86-0.38-8.27-0.46-10.85-2.45c-6.75-5.23-34.4-2.47-18.74-9.02l1.7-0.94
	c3.07,1.77,3.82,1.24,2.22-1.57c9.53-3.04,20.88,3.23,28.58-2.76C881.38,563.03,873.4,573.44,871.9,578.39z"/>
<path class="st21" d="M784.06,540.42c-5.72,3.78-14.83,2.27-16.9-3.34c-1.92-5.19-0.45-14.56,5.59-17.45
	c4.93-2.36,9.88,2.32,11.61,5.6C786.6,529.47,788.43,537.53,784.06,540.42z"/>
<path class="st21" d="M840.47,541.49c-5.49-1.84-5.71-8.81-4.17-13.87c1.1-3.63,4.85-8.76,10.15-8.56
	c7.58,0.28,8.75,7.67,8.69,13.17C855.07,540.03,849.22,544.43,840.47,541.49z"/>
<path class="st21" d="M800.78,553.28c1.87,0.09,2.94,1.28,3.2,3.59c10.98,3.58,15.77,2.47,14.36-3.32l2.61-1.72
	c5.93,2.89,6.85,7.58,3.87,12.78c-4.6,8.03-19.37,7.94-24.72,0.84C797.33,561.74,796.6,556.27,800.78,553.28z"/>
<path class="st18" d="M820.96,551.83c-0.02,2.78,1.04,7.16-1.51,8.63c-3.12,1.8-13.84,0.3-17.08-1.51c-1.7-0.95-1.42-3.71-1.59-5.66
	C807.13,548.41,814.85,548.85,820.96,551.83z"/>
<path class="st6" d="M846.22,564.41c6.2,6.74,16.04-2.67,25.24,2.12c-1.35,2.12-3.78,5.41-6.02,8.19c-8.1-3.66-16.9-2.66-23.14-7.79
	c0.39-0.61,0.32-2,1.09-2.51C844.31,563.8,845.48,564.64,846.22,564.41z"/>
<path class="st8" d="M862.39,551.33c-0.04-1.19,12.55-3.6,12.34-1.48C870.62,550.75,866.6,552.52,862.39,551.33z"/>
<path class="st8" d="M873.69,521.92c0-3.97,2.39-15.69-5.21-12.74c-1.69-5.4,1.48-10.66-1.18-16.38c-1.04,1.82-2.26,4.53-3.39,5.53
	c-0.96,0.85-3.32,3.01-3.38,0.42c4.28-5.41,2.68-11.88,2.44-17.59c-3.87,7.87-2.08,2.78-3.72,0.95c-1.85-2.07-3.69,3.46-5.41,1.83
	c-0.29-7.1,13.66-14.99,20.47-12.72c8.02,1.87,5.99,60.29,14.06,31.26c3.68,8.38-0.76,17.28-7.95,21.4
	c-1.37-2.05-1.98-6.48-3.36-5.4C875.99,519.32,875.98,520.98,873.69,521.92z"/>
<path class="st8" d="M755.45,495.02c-6.05,26.37-7.92-0.66-8.36,17.6c-0.14,5.85-4.36,2.38-4.89,4.17
	c-0.85,2.88,0.28,8.72-0.42,11.91c-5.17-5.65-12.95-12.76-9.46-21.97c1.34-1.11,4.1,1.39,5.82,5.62l6.65-40.9
	c5.18-3.33,25.78,5.36,20.08,12.78c-0.96,1.26-3.65-0.91-5.62-0.92c-2,4.99-1.06,11.17-0.25,16.23
	C757.69,499.08,757.31,498,755.45,495.02z"/>
<path class="st7" d="M621.64,897.26c-5.9,2.74-17.57-0.66-21.91-5.39c6.23-6.57,14.57-10.75,21.89-15.92
	C621.64,883.08,622.99,890.24,621.64,897.26z"/>
<path class="st16" d="M621.64,897.26l87.04,21.86c-37.24,15.21-73.23,37.9-111.25,52.35l-42.31,5.87
	c25.99-24.42,39.74-52.61,43.6-85.61l1,0.14C607.13,892.94,614.3,895.42,621.64,897.26z"/>
<path class="st18" d="M801.01,860.98c-4.46-1.98-8.91-9.42-11.02-13.25L801.01,860.98z"/>
<path class="st18" d="M854.46,849.47c3.81-0.69,4.76,2.8,6.64,4.65L854.46,849.47z"/>
<g>
</g>
<g>
</g>
<g>
</g>
<g>
</g>
<g>
</g>
<g>
</g>
<g>
</g>
<g>
</g>
<g>
</g>
<g>
</g>
<g>
</g>
<g>
</g>
<g>
</g>
<g>
</g>
<g>
</g>
</svg>
