<?xml version="1.0" encoding="iso-8859-1"?>
<!-- Generator: Adobe Illustrator 30.2.1, SVG Export Plug-In . SVG Version: 9.03 Build 0)  -->
<svg version="1.1" id="Layer_1" xmlns="http://www.w3.org/2000/svg" xmlns:xlink="http://www.w3.org/1999/xlink" x="0px" y="0px"
	 viewBox="0 0 1200 1800" style="enable-background:new 0 0 1200 1800;" xml:space="preserve">
<style type="text/css">
	.st0{fill:#011230;}
	.st1{fill:#042684;}
	.st2{fill:#021F5A;}
	.st3{fill:#021331;}
	.st4{fill:#C82663;}
	.st5{fill:#602982;}
	.st6{fill:#011432;}
	.st7{fill:#181761;}
	.st8{fill:#036359;}
	.st9{fill:#02575E;}
	.st10{fill:#0A6C61;}
	.st11{fill:#EC402A;}
	.st12{fill:#FCC81C;}
	.st13{fill:#028075;}
	.st14{fill:#F35916;}
	.st15{fill:#B12804;}
</style>
<path class="st0" d="M506.3,1253.68c1.71-3.08,6.47-3.14,8.19-0.02l2.77,1.67c31.04,42.35,48.56,90.62,64.8,138.58
	c6.38-17.16,13.71-33.9,21.99-50.22l1.42-5.43c-0.76-11.44-3.53-22.78-8.31-34.02c-1.48-5.77-6.84-30.97-0.6-33.46
	c6.51-2.6,27.28,25,30.64,31.38l1.64-0.14c13.49-17.61,29.06-32.77,46.72-45.45c3.1-1.42,3.52-0.71,3.47,2.44
	c-15.66,35.62-29.15,72.09-40.46,109.41c-4.25,4.06-11.24,70.25-8.05,68.85c1.34-0.58,6.26-15.05,7.42-18.53
	c6.8-20.48,9.58-41.02,9.71-62.58c0.83-5.27,3.13-2.98,6.49,1.15c12.81,24.98,23.29,50.99,31.46,78.02
	c2.72-27.48,0.55-54.98-6.53-82.5c-1.17-5.46-5.23-39.23-1.17-39.95c3.3-0.59,6.62,3.54,8.57,6.03
	c8.9,14.62,16.95,29.74,24.15,45.36c8.42-23.79,19.07-46.28,31.96-67.48c15.75-20.48,15.6-1.14,14.12,12.38
	c-5.81,31.54-12.22,63.17-19.23,94.87c-1.18,8.26-3.92,28.8-1.43,35.85c0.46,1.29,11.53-22.19,10.93-24.99l16.39-80.67
	c2.63-7.13,9.24-15.72,14.9-7.56l1.58,70.23c7.35-16.64,14.38-33.42,21.09-50.35c9.04-21.02,26.51-52.67,40.96-70.07
	c5.59-6.73,15.66-17.91,21.82-5.5c9.43-15.56,18.05-31.52,25.85-47.89l2.47-1.62c3.03-1.15,5.07,1.47,3.31,4.16l1.61,2.78
	l-38.67,128.82c-3.03,12.05-5.21,24.47-4.67,36.91l40.46-63.83c1.79-0.81,3.34-0.18,4.75,1.11l15.37,90.58
	c0.78-3.23,2.3-5.35,4.56-6.37c9.21-4.03,16.26-5.16,26.67-3.71c7.08-1.9,12.34-0.84,15.79,3.17c2.9,6.85,6.8,12.46,11.71,16.83
	c7.2-3.36,20.53,2.41,27.49,6.19l1.44,3.09l1.02,2.46c-3.01,2.94-5.44,6.26-7.29,9.94c9.46,18.76,45.71,32.59,62.09,16.07
	c13.89-2.53,34.94,2.67,48.41,6.88c9.93-4.37,20.02-8.4,30.26-12.08c11.9-5.35,22.3-11.8,24.41-25.78c3.77-2.34,6.22,0.17,7.37,7.54
	c4.8-8.05,7.08-2.49,7.97,4.05l0.24,14.66c0,0,7.9,5.18,23.71,15.55V1800H0v-378.52c3.35-5.75,4.32-12.43,2.9-20.04
	c3.88-8.96,5.79-17.95,5.71-27c2.77-6.28,12.15-14.84,13.89-3.88c4.78,0.77,7.63,3.06,8.54,6.85c3.3-6.66,6.42-8.21,9.36-4.67
	l6.04,54.91c-0.25-5.9,3.87-9.37,9.57-7.06c6.05,7.7,15.9,7.94,20.37-1.44c2.21-2.26,4.69-1.6,7.44,1.97
	c3.79,3.9,20.81,3.8,13.8-3.42c-0.03-3.47,1.12-5.27,4.01-2.49l3.79,0.07c2.95,1.8,13.55,10.43,15.01,12.89
	c0.68,1.15,0.53,2.57,0.33,3.83l1.01,3c-8.2,6.35-8.64,11.58-1.32,15.68c5.46,4.14,36.18,23.01,41.11,23.62
	c6.75,0.83,17.8-5.58,18.77-12.88l2.35-2.5c-2.52-2.99,1.67-5.9,3.6-2.33c1.93,0.91,3.87,1.74,5.79,2.48
	c1.03-6.8,5.07-9.93,11.85-9.48c4.58-13.6,16.81-10.08,22.24,1.09c7.17,0.5,12.39-3.35,15.66-11.56l10.2-5.55
	c7.41-7.25,15.46-13.51,24.16-18.78c1.13-6.06,2.22-12.19,3.26-18.4c0,0,1.12-0.17,3.36-0.52l3.35,2.29l5.97,19.16
	c5.99-23.06,12.16-46.17,18.49-69.33c0,0,3.14-19.18,9.41-57.55c-2.19,2.2-3.46,0.79-4.12-1.96c-1.47-6.11,7.61-13.83,11.08-7.53
	c1.79,1.67,2.41,4.2,1.85,7.57c11.11,40.66,22.65,81.58,34.63,122.74l0.78-26.84c-1.21-39.96-3.25-78.98-6.12-117.05
	c-0.79-9.03,6.38-21.81,12.05-8.89c3.18-0.33,5.51,0.43,6.99,2.27c2,0.76,2.85,3.27,2.56,7.54c14,24.78,22.68,52.06,30.14,79.42
	c3.18-5.96,4.77-8.94,4.77-8.94c7.76-30.81,16.59-61.52,26.48-92.14c3.03-6.79,18.16-33.71,25.7-32.02
	c4.32,0.97,14.35,41.69,16.21,49.93c5.29,23.57,8.34,47.62,10.17,71.69c-9.99,22-18.78,46.58-14.96,70.75
	c4.74-15.94,8.41-32.17,10.99-48.67c-0.15-8.41,17.59-49.8,23.92-48.25c5.24,1.28,6.18,14.83,6.16,19.65
	c-3.79,24.52,5.23,45.1,16.51,66.84c2.32-47.62-14.09-95.65-30.7-139.72L506.3,1253.68z"/>
<path class="st1" d="M0,191.02V0h1200v243.25l-0.89,2.44l-551.25,54.94l-238.31,28.05c-44.06,5.23-88.26,7.51-132.74,7.23
	c-84.34-0.53-172.02-2.51-255.8-11.74c-7.12-0.78-14.1-2.4-21.01-4.25v-48.05l1.1-2.35c138.06-0.2,276.57-1.3,415.53-3.3l31.36-2.66
	c-5.14-5.89-12.02-9.7-20.65-11.44c-29.25-6.48-58.8-9.93-88.65-10.35c-28.56-21.13-63.01-25.37-96.34-13.54
	c-26.02-44.06-78.44-42.08-118.18-18.54c-30.65-36.69-79.58-34.02-120.3-17.71L0,191.02z"/>
<path class="st2" d="M281.37,895.31l2.61,1.15c0.26,11.89,2.61,8.74,1.91-0.95l2.39-1.37c-0.72-3.55-2.06-10.45,1.6-11.85
	l462.4,0.04l1.47,2.34l2.67,0.02c6.16,8.59,19.16,9.09,25.85,0.74l2.78,0.17l1.42-2.36c80.1-0.73,160.22-1.42,240.36-2.07l3.21,2.27
	l2.24-1.54c4.08,1.14,8.33,1.38,12.74,0.73l1.47,2.31l4.84-2.36l104.45-0.26l42.8-0.11l1.43,2.34v131.39l-2.23,9.81
	c-12.95,26.24-25.88,52.43-38.79,78.57l-3.48,1.75c0.14,1.15,0.23,2.29,0.17,3.42c-0.06,1.09-0.16,2.15-0.53,3.1
	c-4.41,11.55-8.95,23.42-13.69,34.83l-36.33,37.32c-3.34,0.29-4.98,0.01-4.57-3.92c2.01-13.85,4.41-27.69,7.63-41.3
	c0.22-0.93,0.78-1.79,1.38-2.67c0.62-0.9,1.36-1.72,2.15-2.5c-0.83-7.4,0.24-14.85,3.21-22.32c2.81-10.79,6.04-21.62,9.36-32.27
	c0.37-1.18,1.05-2.27,1.77-3.37c0.73-1.12,1.6-2.15,2.5-3.16l2.15-1.71c20.16,8,30.17-19.77,9.27-25.41l-1.2-2.51
	c-1.55-3.84-0.53-7.45,0.99-11.14c7.9-20.67,16.5-41.06,25.81-61.17c0.32-1.39-1.17,0.14-2.77,1.83
	c-12.72,13.42-24.26,31.78-33.99,47.61c-17.71,30.42-34.24,61.44-49.59,93.08c0,0-1.55,1.32-4.66,3.95
	c1.65,4.11-3.63,6.06-6.69,2.26l-6.4-28.37l-0.34,58.51c-2.78,7.56-6.69,14.68-11.73,21.37l-2.74,0.26
	c-4.82,3.83-13.02,3.84-17.8-0.05l-2.72-1.59c-1.81-4.63,0.79-22.03,3.78-26.56l-1.62-2.09c4.24-6.22,6.14-12.65,5.67-19.27
	l1.79-2.02l-0.53-5.53c5.36-14.41,8.73-29.18,10.12-44.31c-10.03,10.18-19.48,20.92-28.34,32.22l-4.68,1.26l-1.68,2.42
	c-15.04,1.06-24.07,17.04-17.48,30.46l-1.12,2.66c0.69,1.37,0.99,2.61,0.89,3.71l-22.14,48.82c-2.58,1.36-3.68,1.86-5.27-0.8
	c-2.25-3.74-1.8-20.09-1.53-25.45c0.5-10.08,2.2-24.4,4.58-34.12l2.78-3.04c-0.61-0.44-0.54-0.83,0.15-1.17
	c-2.95-1.66-2.89-3.25,0.18-4.69l1.01-1.17c-3.06-0.68-2.82-1.75,0.23-2.35c-1.53-2.6-2.12-5.4-1.33-8.31
	c7.49-35.34,19.42-69.44,35.79-102.3c-26.35,26.53-43.34,60.94-59.27,94.42c-3.34,4.92-6.01,10.21-8.03,15.86l-2.87,2.71
	c0.98,0.34,0.95,0.72-0.05,1.14l-1.03,1.17l1.8,1.85l-18.22,47.49c-0.45,1.13-1.54,1.8-3.28,2c-0.59,2.52-3.26,3.84-7.99,3.94
	c-2.43,1.36-4.39,1.35-5.88-0.03c-0.21-3.32-0.37-6.72,0.39-9.98c2.9-12.5,6.03-25.17,9.31-37.58c0.85-3.22,2.62-6.1,4.39-8.9
	l-1.64-3.27c5.55-15.25,9.3-30.69,11.25-46.33c-7.59,15.65-17.22,30.19-27.4,44.25l-6.84,5.39l-2.63,6.5
	c-30.9,35.59-49.88,79.36-59.08,125.37c-0.4,1.72-0.93,3.18-1.96,3.75c-7.24,3.99-10.57-16.77-10.48-20.87
	c-3.83,1.2-3.88-4.96-1.27-6.79c-5.96-14.41-4.75-31.98-3.64-47.52c1.6-22.4,6.24-44.48,11.81-66.21
	c-13.71,19.47-26.69,39.49-38.95,60.08c-1.93,2.25-2.76,1.76-4.41,0.06c-3.99-4.09-2.39-26.08-1.07-32.24l2.44-2.07l-1-1.41
	c-0.81-0.17-0.73-0.47,0.1-0.86l-2.09-1.53l14.72-74.53c-17.24,22.97-25.16,51.4-31.43,79.06c-0.82,2.13-2.05,4.15-3.71,6.07
	l2.07,1.54l-10.29,48.78c-2.66,2.13-4.44,1.98-5.34-0.45c-4.98-15.07-10.35-29.99-16.13-44.77c-2.28-4.48-2.6-8.53-0.94-12.16
	l0.36-3.43c10.56-16.98,20.64-34.27,30.25-51.85c-1.91-1.47-29.02,31.38-32.11,35.81l-5.2,3.14c0.48,3.84-4.05,4.23-5.06,0.81
	l-3.88-2.63c-12.85-25.16-30.58-50.21-55.55-63.88c5.24,18.6,12.1,36.67,20.59,54.19l-0.98,4.12l-1.7,2.44
	c-13.34,1-23.83,11.47-22.87,25.17l-2.15,2.19c-0.91,0.51-1.76,0.43-2.7,0.11c-1.3-0.44-13.35-20.62-14.72-23.25l1.07-2.68
	l-5.56-4.35c-14.91-23.3-31.82-45.95-54.59-62.12l29.48,65.08c-0.65,1.63-0.79,3.21-0.43,4.74l2.74,0.39
	c14.74,31.82,28.16,80.03,33.28,114.87c0.94,6.36,3.88,37.45-1.36,40.77c-3.1,1.97-4.75,2.38-6.38-1.7
	c-14.78-33.38-34.3-64.52-58.99-91.48c2.63-18.17,5.76-36.32,9.4-54.45c-34.63,28.95-52.21,73.97-64.16,116.4l-3.12,2.8
	c-2.72,0.27-5.47,0.35-8.19,0.02c-0.94,0.13-2.35,0.31-2.69-0.31c-1.7-3.18-8.28-17.93-8.55-20.64
	c8.25-29.11,20.56-56.85,32.97-84.36c-16.51,17.37-30.73,36.83-42.65,58.39c-2.12,1.98-2.4,2.04-5.13,1.51
	c-3.87-0.75-14.28-14.72-13.56-18.42c1.79-9.11,9.27-35.39,13.6-42.52c0.95-1.57,2.41-2.66,4.03-3.5l-1.81-1.69l34.31-77.44
	c-18.23,23.48-34.18,48.43-47.85,74.86l-2.71,1.88c0.7,0.63,1.75,1.59,1.49,2.25c-1.03,2.58-10.44,21.72-11.43,22.51l-3.09,1.99
	c-11.43-2.93-32.03-49.66-36.42-62.25c-0.87,16.64,1.26,33.15,6.37,49.51l-1.61,3.45l-2.09,1.77c-6.28-2.09-13.36-3.64-19.58-0.58
	l-2.53-1.24l-3.31-2.65c-3.81-12.02-7.95-24.02-14.31-34.99c1.68,44.05,0.78,88.18-0.26,132.27c-0.03,1.2-0.39,2.41-0.78,3.63
	c-0.4,1.26-0.95,2.47-1.55,3.67c-1.48,0.01-2.99,0.16-4.32,0.89c-2.55,1.41-1.75-2.15-2.68-3.16l-3.02-5.19
	c-2.6-35.79-9.82-70.32-21.67-103.6l-18.79,58.76c-3.37,1.08-4.72,1.21-4.6-3.02c3.02-23.87,8.42-47.46,15.95-70.3
	c0.35-1.05,1.05-1.98,1.79-2.94c0.75-0.97,1.63-1.83,2.55-2.67c0.25-5.44,0.37-8.16,0.37-8.16c13.7-34.31,26.52-68.94,38.47-103.89
	c-25.67,32.84-45,69.94-61.91,107.84l-2.97,3.31l0.86,4.29l-10.42,29.21c-1.32,2.79-3.15,2.56-5.53,1
	c-8.46-21.94-19.91-41.74-34.37-59.4c-4.56-4.48-7.11-3.16-7.66,3.97l-1,15.25l-2.6,1l-1.82,1.83c-5.6-1.33-11.61-0.75-17.02,1.1
	l-1.97-1.69c-0.59-0.57-1.15-1.17-1.57-1.85c-2.76-4.42,4-33.27,6.12-39.93l3.12-3.01l-1.51-3.6c5.04-13.62,9.31-27.38,12.79-41.27
	c-7.67,11.64-13.13,24.5-18.3,37.38l-3.63,2.74c3.03,1.07-3.63,13.48-4.35,13.78c-2.04,0.84-3.05,0.95-4.9-0.67l-12.49-45.35
	c0.49,28.89-0.78,57.65-3.79,86.27c-0.66,3.98-2.61,15.28-6.71,15.51c-0.73,0.04-1.54-1.51-2.38-3.52l-15.02-58.25
	c-3.16-9.52-4.06-18.73-2.7-27.63l-2.47-0.76l-9.92-72.27c-6.31,13.66-10.49,28.17-12.56,43.54l-2.95,2.32l-0.16,2.66
	c-4.37,1.47-7.56,4.03-9.55,7.66l-2.58,0.46l-3.66-2.39c-5.15-14.79-10.74-29.37-16.77-43.75c-0.57,24.51,0.83,49.11,4.18,73.81
	c0.54,5.24,2.28,35.19-1.84,36.49c-0.56,0.18-1.15,0.24-1.75,0.28l-2.48,1.21c-7.11-4.2-16.44-6.07-23.78-1.38l-2.71-0.93
	l-2.35-1.09c-0.06-25.69-0.12-51.39-0.18-77.1l2.34-1.42l-2.22-1.3l5.76-57.21c-13.96,14.86-21.5,34.23-27.26,53.48l-3.22,2.62
	l1.34,3.71c-3.83,10.8-6.38,21.88-7.68,33.22c-1.97,5.46-2.88,6.13-6.43,0.94c-8.64-21.99-18.08-43.57-28.32-64.75
	c9.8,37.07,20.02,74.05,30.64,110.94l15.77,66.12l-1.96,1.9c-0.11,0.9-0.3,2.12-1.02,2.35c-1.21,0.39-15.49,0.34-17.28,0.02
	l-1.65-2.31c-2.96-3.51-4.44-5.27-4.44-5.27c-10.83-35.09-24.03-69.16-39.62-102.23L0,1055.86V884.77l1.08-2.34
	c31.69-0.12,63.39-0.1,95.09,0.07l2.18,2.18l2.87-0.78c6.52,4.45,14.91,4.85,21.45,0.24l2.88,0.72l3.7-2.28
	c16.09-0.88,32.14-0.72,48.16,0.48l6.8,3.63c0.92-2.89,7.15-5.28,8.81-2.07l3.61-2.35c27.78-0.17,55.53-0.12,83.27,0.17
	C280.45,886.68,280.94,890.97,281.37,895.31z"/>
<path class="st3" d="M1200,489.84v394.73l-153.52,0.38l-0.44-2.68c21.82-25.82-31.02-32.32-15.33-1.61l-0.69,2.78l-244.99,2.16
	l-1.65-2.36c7.38-27.77-34.03-28.58-28.04-0.82l-1.6,2.25l-464.99-0.04c-1,3.68-0.2,6.61-0.47,9.5c-1.78,0.07-3.26-0.31-3.45-2.05
	c-0.56-23.32-2.45-11.68-0.96,1.59l-2.51,1.64c-1.06-3.01-1.98-5.97-1.26-10.8l-87.09,0.1l-0.53-3.16
	c9.39-23.61-27.63-13.95-7.81,2.6l-0.47,2.63c-18.84-4.38-39.08-1.25-58.66-1.83l-0.86-2.75c16.26-33.4-40.23-36.07-25.14-0.03
	l-1.21,2.59L0,884.77V629.3l4.56-14.15c-2.61-0.31-4.13-1.45-4.56-3.42v-29.3c0.66-1.34,2.08-2.24,4.26-2.69
	c9.33-11.05,12.16-31.78,12.73-45.81c0.63-6.1,3.65-10.64,9.45-12.24c0,0,3.45,9.25,10.35,27.74c7.77,13.94,16.28,27.43,25.52,40.48
	l-0.14,4.19l-0.75,2.56c-4.46,0.09-8.46,0.88-11.98,2.37c7.97,11.88,16.28,23.55,24.94,35.02c0.32,4.18-2.79,6.85-9.31,8.02
	c-5.89,2.22,2.7,13.94,5.46,17.17c5.84-13.82,11.17-27.86,15.97-42.11c3.9-7.06,5.26-5.54,8.62,1.09
	c3.38,11.31,6.98,22.5,10.81,33.56c5.17-8.59,10.69-16.98,16.53-25.15c-6.29,0.49-10.63-1.19-13.02-5.06
	c4.58-6.55,8.53-13.5,11.82-20.83l2.99-0.84c-0.78-0.5-1.89-1.38-1.64-1.98c1.72-4.22,13.04-28.7,14.88-30.61
	c2.14-2.22,2.55-2.31,5.43-0.63c1.6,0.93,14.88,29.04,16.61,33.06l-1.33,2.58c6.29,2.42,11.18,10.84,14.61,16.81
	c0.36,5.34-2.75,9.47-9.32,12.38c5.25,13.83,13.18,26.36,23.78,37.59c2.99,8.37-11.05,7.59-16.5,7.14
	c-4.56-0.09,3.66,7.99,5.68,9.67c2.8,2.35,7.02,5.4,10.45,5.1c-0.79-13.03,3.76-23.53,11.52-33.73c4.59-10.1,7.64-20.96,9.15-32.57
	c1.92-4.58,6.85-11.44,10.88-5.29c7.26,26.77,15.16,54.5,34.4,75.38c1.9,2.31,0.88,3.62-0.75,5.55l-14.55,4.29
	c2.66,3.17,3.59,5.82,2.79,7.96c4.63,3.61,9.43,6.87,14.4,9.77c5.35-0.05,4.34-0.83,0.39-3.46c-1.83-2.52-0.94-4.85,2.67-6.98
	l3.59-4.11l-0.11-3.69c7.54-14.13,14.82-28.43,21.84-42.92c2.3-2.79,3.55-4.05,5.72-1.13c2.95,16.96,10.1,31.27,21.47,42.94
	c1.09,3.14,0.76,6.95-3.17,5.86c0.49,2.15-1.16,3.46-4.93,3.92c4.41,7.52,9.95,14.47,16.61,20.84c3.47,5.31,0.94,6.66-3.9,8.67
	c-8.69-0.6-2.13,5.23,2.03,8.07c7.64,5.22,11.53,4.7,10.21-5.75c3.92-11.02,8.34-21.86,13.26-32.52l2.83-0.65
	c-2.96-4.4,3.28-7.95,7.95-5.95c2.24,0.96,4.19,4.18,1.52,5.69l3.73,3.55c8.78,20.44,13.16,30.66,13.16,30.66l9.9-22.14
	c1.96-5.55,4.97-9.61,9.03-12.19c4.33,2.01,7.44,5.85,9.33,11.52c4.18,13.67,10.28,26.12,18.28,37.36c0.92,3.9-1.88,6.49-8.4,7.76
	c3.19,4.04,6.63,8.12,11.37,10.36l20.52-43.28c2.51-2.18,3.78-2.64,6.12,0.18c6.71,12.45,12.21,25.54,16.5,39.29
	c3.71-6.58,7.15-13.32,10.34-20.23l3.15-0.59c1.35-3.08,2.9-2.33,5.11-0.3c5.29,9.52,9.66,19.64,13.12,30.38
	c4.22-12.61,9.35-24.79,15.4-36.52c1.71-1.84,3.17-1.26,5.19-0.23c2.29,1.17,16.71,41.9,17.56,48.09l-4.26,2.97
	c2.08,3.7,4.63,6.72,7.66,9.06l13.66-28.23c3.64-4.81,7.12-0.01,9.39,3.8l8.04,18.26c3.67-4.32,7.27-9.06,10.78-14.23
	c3.94-0.73,7.16,1.61,9.66,7.03l9.17,18.17c6.88-9.19,13.51-18.75,19.89-28.68c1.55-2.41,3.18-1.8,5.44-0.53l16.85,25.33
	c2.65-2.47,4.7-5.86,6.13-10.16l9.83-23.32c1.6-3.9,3-4.04,6.4-2.31l20.59,31.21c3.23-7.13,6.06-14.47,8.48-22.01
	c2.55-7.02,6.03-9.7,10.45-8.05c3.11,4.84,6.48,9.13,10.11,12.85l14.1-35.85c1.39-2.09,2.51-2.8,4.78-1.7
	c5.72,2.77,10.95,23.77,10.22,30.53c2.36,0.82,4.21,3.25,5.56,7.3c3.17-6.85,6.95-13.28,11.35-19.27
	c6.1,1.88,10.18,6.93,12.25,15.16c6.72-17.42,12.57-35.14,17.57-53.17c4.1-7.25,8.59,1.1,11.19,6.22c4,11.58,7.82,23.22,11.46,34.92
	c8-5.85,20.14-20.87,22-30.88c0.09-0.51-0.4-0.75-0.93-0.58c-5.9,1.71-16.86,3.53-14.45-5.33c8.26-8.44,13.47-19.09,18-29.84
	l3.23-1.55l-0.9-3.76c7.17-19.07,10.76-28.61,10.76-28.61c1.77-2.88,2.87-2.29,5.64-0.45c5.17,10.03,9.46,20.46,12.86,31.31
	l-0.96,2.8l4.01,1.55c3.31,3.94,13.31,17.05,13.3,21.05c-0.01,3.28-8.02,4.19-10.86,4.19c0.48,3.54,2.43,7.2,4.4,10.29
	c7.13,11.18,8.56,9.02,7.8-3.03c3.62-11.92,7.65-23.72,12.07-35.41l2.92-1.2c-3.56-3.76,1.61-13.98,7.45-9.86
	c1.94,1.37,6.98,9.76,3.4,11.31l3.01,1.73c2.1,9.26,5.19,18.15,9.27,26.65c7.14-1.87,12.73-10.05,15.12-17.17l-12.12,1.69
	c-10.86-0.64-9.93-9.84-1.56-12.09l0.83-4.33c8.07-8.99,15.36-18.51,21.87-28.55c-5.89-0.07-11.76-0.75-17.61-2.01l-1.73-2.83
	c4.89-6.42,9.24-13.25,13.02-20.48c6.7-16.06,12.79-32.36,18.26-48.9c2.22-2.9,3.83-4.44,5.82-1.16
	c8.36,22.14,20.97,40.91,38.05,57.15c-2.08,4.82-6.86,7.65-14.36,8.48c-1.34,1.27-0.91,3.32,1.27,6.15
	c7.33,8.92,14.95,17.59,22.86,26.02c1.8,3.97,2.66,8.55-2.76,7.11l-1.03,2.48c-7.07,1.6-7.79,3.8-3.71,9.43
	c3.26,4.51,3.54,4.69,7.52,0.19c2.55-4.49,5.81-7.32,9.77-8.48l0.34-3.8c9.24-8.48,16.73-17.97,22.47-28.48l-30.6,0.44
	c-2.49-1-4-2.11-2.74-4.67l28.32-31.37c3.05-3.95,9.69-12.9,10.43-17.44c0.31-1.9-16.41,1.75-17.76,2.1
	c-4.14,0.79-10.22,0.93-8.6-4.49l26.48-26.17c4.09-8.32,7.18-17.09,9.27-26.31l2.96-1.71c-0.81-0.5-2.02-1.3-1.85-1.99
	c1.18-4.89,10.37-38.07,11.86-39.49c2.89-2.75,4.31-3.23,6.32,0.72c5.02,11.65,8.89,23.7,11.62,36.13l-1.39,3.26
	c3.79,3.43,6.68,8,8.66,13.72c9.21,13.51,13.82,20.26,13.82,20.26c10.15,9.42,11.88,14.94,5.19,16.55l-13.18,0.36
	c8.44,14.62,19.51,27.52,33.21,38.7c5.1,5.97-0.89,7.47-6.1,8.73c-6.81,0.08-13.59,0.24-20.35,0.48
	c0.99,8.49,5.02,16.37,10.41,22.92c13.66-16.22,26.92-32.69,39.79-49.39c-10.19-0.51-20.59-0.25-31.19,0.78
	c-4.78-0.79-4.65-2.38-2.86-6.27c10.65-10.54,21.61-20.81,32.88-30.82c5.62-5.06,9.03-10.64,10.23-16.73l-26.31,6.09
	c-1.91-0.81-2.3-2.46-2.01-4.47l17.02-18.97c1.33-0.89,2.9-1.47,4.7-1.73l0.25-3.92l6.64-10.18c7.34-17.58,12.88-35.91,16.6-54.98
	c4.01-17.63,8.35-21.93,13.01-12.9L1200,489.84z"/>
<path class="st4" d="M1200,425.53v64.31c-3.57-4.14-1.98-10.42-7.24-14.92c-12.16,30.77-11.53,63.26-31.32,85.33
	c-2.67,0.91-5.44,1.78-8.29,1.75c-19.18-0.21-38.15-0.22-57.33-0.1c-2.86,0.02-5.63-0.92-8.29-1.86
	c-4.57-13.15-5.61-26.77-13.81-41.08l-12.75,42.44l-4.16,1.25c-24.62-0.6-49.25-0.17-73.88,1.31
	c-59.2,6.03-118.65,10.83-178.37,14.41l-272.35,7.84c-118.56,7.58-238.27,13.89-360.73,17.61c-4.47,0.14-8.91-0.64-13.28-1.49
	l-17.85-35.53l-16.1,33.11l-1.96,2.17c-19.65-1.84-39.3-3.68-58.96-5.52l-1.17-2.46c-13.93-22.67-31.58-41.69-36.63-71.28
	c-13.17,11.31,0.76,23.39-17.63,54.9c-0.89,1.53-1.37,3.28-2.38,4.05c-1.79,1.36-3.71,1.12-5.53,0.65v-48.05
	c3.29-2.9,8.08-2.75,1.68-0.64c-0.45,0.15-1.04-0.13-1.68-0.54v-104.3l1.07-2.24c220.54,24.61,469.19,51.53,706.4,34.21
	c127.92-10.36,255.98-20.53,384.18-30.51C1127.72,426.81,1163.84,425.2,1200,425.53z"/>
<path class="st5" d="M1200,243.25v83.05l-4.52,2.06c-15.68-0.74-31.16,2.38-46.02,7.26c-3.89,0.53-5.35-2.48-4.36-9.03
	c-1.26-13.84-7.08-21.94-19.02-29.24c-51.53-31.51-111.34-1.34-149.71,37.22c-40.16-21.5-98.92-25.27-123.38,20.55
	c-32.82-11.49-65.94-4.5-92.39,17.82c-17.87,1.09-35.59,3.64-53.15,7.67c-9.79,1.79-16.88,6.21-21.25,13.27l512.35,0.36l1.46,2.34
	v28.94c-150.31,9-300.27,22.43-451.2,34.7c-195.65,15.89-391.03,7.18-585.63-13.76L0,428.91V319.92
	c98.94,9.21,198.31,14.32,298.21,13.57c39.58-0.3,77.22-3.14,116.71-7.79l232.7-27.39L1200,243.25z"/>
<path class="st6" d="M1200,1117.7v7.11l-0.91,2.39l-11.68,0.58c-6.94,32.22-15.81,64.06-26.6,95.51c-1.17,4.63-2.29,9.27-3.15,13.97
	c-0.5,2.75-2.22,13.21-0.96,11.98c10.06-15.4,20.44-30.56,31.14-45.48c3.21-5.43,7.26-8.82,12.17-10.16v102.48
	c-2.33,5.42-2.33,11.28,0,17.58v17.09c-1.58,1.41-3.68,2.42-6.3,3.03c-2.26,3.94-0.81,7.14,4.37,9.58l1.94,5.45v56.25l-1.75,2.47
	c-8.11-1.05-7.67,18.96,0.32,19.25l1.43,2.49v51.2c-3.91,3.91-26.39-16.43-25.69-13.53c-1.86-7.74,1.09-15.39-2.03-23.15
	c-4.26,3.84-0.7,9-3.95,12.8l-5.15-18.57c-3.76,26.73-31.87,29.17-57.1,40.74c-14.12-4.97-30.18-7.2-47.71-7.02
	c-10.05,10.75-22.75,8.71-35.92,4.39c-12.82-4.21-21.82-7.5-29.12-22.16c0.01-4.11,5.25-8.68,8.5-12.8l3.54-1.16
	c9.99,3.11,19.34,7.5,28.04,13.17c-0.66,3.78,7.14,2.27,7.5,1.89c3.45-3.65-21.21-27.01-28.41-28.93
	c-11.5-3.07-24.96-2.41-34.83,4.67l-4.77,1.07c-9.13,2.54-8.46-14.46-17.85-18.94c-7.81,2.24-15.67,0.96-23.65,0.59
	c-4.52-0.21-8.7,6.54-12.66,2.06l-1.69-3.17c4.99-31.99,13.35-72.84,25.01-102.87c5.94-15.3,14.1-31.81,26.65-42.68
	c3.05-2.64,10.99-9.39,14.6-6.2c0.44,0.39,0.11,1.64-0.43,3.13c-22.25,32.57-30.06,72.58-29.22,111.49l92.49-183.21
	c5.74-10.52,12.26-20.64,19.91-29.88c3.44-4.15,18.52-21.88,22.97-19.06c0.75,0.47,0.38,2.72-0.32,5.48
	c-11.32,33.92-21.39,68.26-28.41,103.34l-22.13,37.58c-4.81,12.11,11,2.77,12.38-4.18c15.44-17.68,30.43-35.7,44.96-54.04
	c9.6-17.56,20.62-34.09,33.08-49.6c19.57-17.94,36.48-38.45,50.86-60.84l18.39-5.08L1200,1117.7z"/>
<path class="st7" d="M1200,326.3v70.29l-516.45-0.06c-0.88-21.67,63.7-24.48,76.12-25.66c26.68-21.97,59.45-30.57,92.66-17.57
	c20.58-45.23,86.1-43.63,123.69-20.69c38.95-42.2,106.63-70.36,156.01-34c11.67,8.59,17.26,20.61,14.9,35.57
	C1164.81,327.74,1182.3,324.82,1200,326.3z"/>
<path class="st8" d="M1074.59,1117.77l2.06-1.7c1.77-0.06,17.53,2.83,20.08,3.47c8,2.01,16.3,4.98,14.99,14.84
	c-3.53,16.08-7.05,32.14-9.24,49.74l36.93-37.73c4.72-14.28,10.18-27.29,16.09-40.3c3.03-5.47,12.58-1.88,12.81,3.65
	c1.8,1.99,2.05,5.02,0.74,9.1c9.5-4.25,19.05-8.92,28.66-14.01l2.29,1.47v11.4l-19.08,4.88c-12.64,19.93-27.49,39.09-45.05,55.24
	c-18.18,16.72-26.17,36.52-39.46,56.43c-14.22,21.3-35.34,37.74-48.87,59.9c-1.25,2.05-6.12,2.21-7.41,3.38
	c-1.49,1.36-4.84-0.74-5.13-2.44c-0.48-2.82,0.25-5.28,1.66-7.65l21.43-36.18c7.24-36.37,17.28-70.43,29.91-107.67
	c-18.65,15.17-32.4,34.71-43.11,55.96l-93.21,184.9c-2.41-40.33,4.63-87.83,30.54-123.57c-43.56,19.49-53.35,110.78-63.5,154.74
	c-1.21,5.25-2.99,10.36-5.23,16.44L896.37,1331l-44.72,70.59c-2.52-24.78,4.6-46.93,11.29-69.03l32.39-106.95l3.16-0.19
	c43.49,31.24,72.6-41.24,20.13-47.96l-2.11-2.27l19.7-51.35l1.03-1.17c0.11-0.34-0.09-0.81,0.05-1.14l3.56-3.96
	c3.24-21.06,31.77-25.88,30.22-0.42l1.91,2l-0.23,2.35l-1.01,1.17c0.1,1.57,0.03,3.13-0.18,4.69c-0.69,0.4-0.75,0.66-0.15,1.17
	c-2.73,20.77-8.23,41.46-3.26,63.7l23.95-52.82l3.06,0.19c7.95,9.62,21.78,10.28,31.77,3.36l3.03,0.65
	c0.64,9.6-3.47,18.58-1.06,28.14l2.82,1.82l2.81,16.84c3.61-5.38,6.59-11.1,8.96-17.18l3.21-1.43c3.58-7.84,12.51-15.82,12.49-25.27
	l-0.13-66.53c7.39,12.65,7.12,26.76,11.29,40.34C1072.15,1120.06,1073.24,1118.29,1074.59,1117.77z"/>
<path class="st7" d="M0,271.88v-80.86c40.44-16.54,93.25-22.78,124.52,16.76c38.96-25.09,94.54-25.23,118.43,18.59
	c33.98-13.34,67.94-7.37,96.53,13.28c16.77,0.58,108.3,3.34,111.58,25.81c-38.95,4.93-76.39,4.4-114.88,4.6L0,271.88z"/>
<path class="st6" d="M175.62,1187.11l2.08,3.8c7.91,48.27,20.1,95.74,39.82,140.62l0.34,4.3c4.68,1.26,1.68,4.94-1.55,6.95
	c-22.53,9.08-41.02,26.47-51.74,48.32c-3.18,6.47-11.98,31.6-9.59,37.31c1.93,4.6,45.82-54.65,47.41-58.86
	c5.86-9.15,13-16.61,21.44-22.4c-0.69-2.13,0.02-4.38,2.15-6.76c-1.63-0.76-2.35-1.96-2.17-3.58l-2.67-1.8
	c-8.08-48.65-16.15-97.3-24.23-145.93l2.08-1.79c-6.19-2.74-3.51-21.21,3.17-12.16c7.64,22.95,15.56,45.75,23.74,68.4l-0.83,3.44
	l2.83,2.43c2.33,13.59,6.49,26.71,12.5,39.37c4.58,17.08,9.93,33.88,16.06,50.42c3.24,1.05,29.44-52.33,31.57-60.19
	c2.51-17.82,2.65-35.96,0.42-54.4c-0.04-9.63,0.21-33.49,5.53-40.75c1.58-2.16,2.44-2.88,4.49-0.83
	c12.44,17.01,20.84,36.31,25.18,57.89c8.43-6.34,16.89-12.7,25.36-19.08c5.91-2.88,8.49-3.1,6.51,3.95
	c-10.07,16.81-18.55,34.26-25.43,52.34l-3.11,2.84c-2.61-0.09-5.52-0.27-7.36,2.24c-1.74,2.37-2.4,5.87,0.41,7.25l-2.87,12.23
	c-10.22,20.06-19.42,40.58-27.61,61.57c-4.17,9.79-5.81,19.65-4.93,29.57l-1.81,2.06c-4.72,4.49-1.5,12.18-3.8,18.62
	c-1.79,5.03-10.5,6.39-14.09,10.4c-6.03,6.72-12.36,12.4-21.62,15.95c-2,3.24-4.04,8.4-7.37,10.15c-3.86,2.03-10.25,4.17-13.1-0.26
	c-2.96-4.59-3.61-8.02-8.4-7.44c-6.19,0.74-7.9,2.06-7.54,8.97c-3.86-0.63-6.6-0.43-9.19,0.74c-2.25,1.01-2.41,4.12-3.53,6.92
	c-0.81,2.02-3.63,1.64-5.26,0.66c-1.17-0.7-2.15-2.35-2.62-3.99c2.24-3.97,3.35-5.96,3.35-5.96c21.1-17.03,41.02-35.32,59.76-54.87
	c-34.3,5.93-60.44,23.05-74.36,55.49c-4.29,10-3.13,10.47,5.33,6.16l2.33,1.51c0.77,7.77-5.39,12.56-11.09,15.42
	c-8.42,4.22-13.06,2.48-20.7-2.23l-27.96-17.24c-4.2-2.59-9.41-4.72-10.25-10.71c-0.61-4.33,6.12-7.42,8.08-12.16
	c0.83-1.74,1.11-3.39,0.83-4.94l-8.48-16.82l1.35-2.53c-0.05-1.98,1.19-3.53,3.74-4.67l7.34-6.92l2.54,1.03
	c3.68,0.49,6.39,3.23,8.14,8.24l4.62,10.68c3.7-26.25,9.15-51.97,16.36-77.17c0.48-6.95-1.1-3.65-4.74,9.91
	c-2.9,16.45-6.7,32.66-11.38,48.64c-2.23,3.01-3.3,2.07-5.99-0.48c-7.17-13.88-15.54-26.83-25.1-38.83
	c1.85,5.71,4.39,11.18,7.62,16.43l-1.36,2.63c-1.83,5.42-12.42,3.39-14.06-2.45c1.56-2.39,0.34-3.7-3.65-3.94
	c-9.83,5.55-12.33,2.28-16.39-6.89c-6.25-0.29-12.22-1.31-17.91-3.06c-1.74-3.7-3.42-2.99-5.04,2.13c-6.01,3.8-6.25,12.25-6.11,19.1
	c0.29,13.85,6.24,16.81,18.16,11.36l2.88,0.65l4.06-0.37c7.94,5.25,15.41,11.11,22.43,17.56l1.01,3.92
	c-1.28-1.13-1.65,1.35-1.83,2.06c-0.22,0.89,2.93,2.36,3.43,4.16c-5.49,6.68-19.3,6.34-24.09-2.18c-3.67,5.45-4.5,7.65-9,8.73
	c-14.76,3.54-12.41-9.55-19.88-4.93c-3.39,2.09,1.42,8.08-5.43,11.36l-6.87-62.49c-3.18,3-5.54,9.82-8.07,8.36
	c-1.45-0.85-1.13-5.15-2.93-5.74l-5.69-1.89c-1.78-0.59-0.38-3.55-2.69-5.77c-2.4,1.99-8.66,6.3-7.85,10.05
	c2.12,9.82-4.33,16.25-5.51,24.79c-1,7.25,4,16.4-5.22,19.76v-219.14c2.66-0.82,4.77,0.86,6.33,5.05c3.02,4.13,3.61,7.43,1.76,9.91
	l2.77,0.84c7.62,22.05,11.44,33.08,11.44,33.08l-1.66,2.37c-0.45,2.07-1.07,4.22-1.86,6.45l5.38,10.97
	c0.51,2.67-0.18,5.47-2.08,8.39c1.27,5.26,10.44,14.01,14.36,17.71c3.68-0.59,6.45,5.86,2.52,7.22c-0.09,6.45,0.4,12.82,1.45,19.12
	c-2.37,2.5-14.72,10.61-17.14,10.33c-1.01-0.12-1.87-0.75-2.61-1.4c-0.48-3.08-4.29-7.02-6.73-4.01c-0.52,0.64-1.4,15.74-1.24,16.56
	c5.48,8.21,11.59,9.88,18.34,5.02c2.6,2.53,5.19,4.86,7.79,6.99c3.7-5.71,8.06-7.83,13.08-6.39c0.26-3.36,1.54-5,3.83-4.93
	l1.79-1.29c-0.68-3.39,0.05-5.81,2.21-7.26l1.23-2.24l20.25,1.83c6.83-2.41,7.44-7.59,1.84-15.53l-11.35-14.95
	c-4.97-7.99,6.04-15.62,12.29-19.79c4.54-3.02,9.11-4.79,13.93-0.5c2.26,2.01,3.05,3.63,0.56,5.8c-1.16,1.79-3.66,2.84-7.49,3.13
	c-1.33,3.12-3.08,4.71-5.24,4.76c-1.4,2.99-2.08,5.35-0.03,8.21c3.5,0.06,4.66,2.91,1.25,4.65c1.39,5.17,4.44,9.51,9.13,13.03
	l3.89-0.37c4.53,2.63,9.39,4.57,14.34,6.26c3.74,1.27,13.27,4.45,16.51,4.11c2.05-0.22-1.04-15.6-2.1-18.15
	c-4.63-11.12-15.7-18.34-26.58-22.61l-1.37-3.01c1.56-4.16,6.66-2.8,9.83-0.79c1.98-1.89,5.26-1.34,9.82,1.64
	c-1.91-31.77-5.9-63.66-15.22-94.2l0.19-7c-0.96-2.88,2.5-4.45,4.83-5.39l4.06,1.02c10.87,15.64,19.5,32.74,25.87,51.28
	c2.72-42.92,8.07-87.86,19.05-129.53c1.16-9.76,3.64-13.18,7.43-10.26l11.17,86.89L175.62,1187.11z"/>
<path class="st9" d="M46.73,1172.9c3.7-0.48,6.98,12.32,6.48,14.28c-1.74,6.82-4.56,3.94-8.06-0.88
	c-8.45-12.83-18.13-24.48-29.05-34.97l18.53,65.38l-1.87,1.99c4.91,3.74,6.71,15.49,4.58,21.24c-2.07,4.46-5.95,0.75-8.09-2.3
	c-4.01-10.96-10.47-17-19.36-18.13l-1.81-2.2c-1.74-5.03-4.64-11.33-8.09-14.96v-146.48C21.3,1092.05,32,1133.57,46.73,1172.9z"/>
<path class="st8" d="M1200,1124.82v68.8c-18.55,18.37-29.48,42.18-47.25,64.8c2.08-45.39,27.11-86.28,32.19-132.85L1200,1124.82z"/>
<path class="st2" d="M1200,1106.31l-34.03,17.2c1.08-5.57,1.03-10.24,2.34-13.76l-0.3-5.34c7.41-23.43,16.65-50.57,27.6-72.41
	c0.34-0.68,1.06-1.19,1.84-1.73c0.78-0.54,1.65-0.95,2.55-1.32V1106.31z"/>
<path class="st10" d="M1200,1028.95c-14.42,24.68-20.17,54.24-31.69,80.79c-4.01-2.46-8.22-5.74-12.81-3.65l44.5-90.14V1028.95z"/>
<path class="st0" d="M1200,1405.08v24.21c-2.99,0.12-5.95-2.01-7.8-3.49c-2.39-1.91-2.79-16.27,0.57-19.1
	C1194.57,1405.18,1197.48,1405.31,1200,1405.08z"/>
<path class="st11" d="M0,534.38v-1.17c8-6.79,14.77-16.17,26.06-17.38c-0.22,7.54-7.57,7.07-12.07,10.03
	C9.06,529.1,5.4,537.03,0,534.38z"/>
<path class="st0" d="M1200,1330.76v18.07c-6.43-8.23-11.38-5.65-9.2-14.49C1191.69,1330.75,1196.24,1329.77,1200,1330.76z"/>
<path class="st11" d="M0,629.3v-17.58l7.32,1.01C6.64,619.4,3.49,624.7,0,629.3z"/>
<path class="st0" d="M1200,1296.09v17.58C1196.95,1309.59,1193.93,1297.98,1200,1296.09z"/>
<path class="st8" d="M816.66,1230.63l-2.93-0.29c-5.09-7.91-13.42-13.35-23.06-12.77l-2.22-2.14l-2.45-1.11l-1.97-21.38
	c-1.71-1.22-21.48,38.07-19.61,37.1c1.64-2.38,3.44-3.02,5.4-1.93l1.47,2.57c-10.75,35.04,42.58,44.6,44.42,8.78l2.23-2.04
	c3.18,6.01,2.38,13.6,9.54,19.82c9.93-51.4,30.22-96.81,64.62-134.56c4.24-7.46,17.86-6.4,24.21-2.69l0.41,2.65
	c-4.14,18.82-8.64,37.77-14.08,56.46l-0.48,3.22c-11.33,8.51-14.5,23.11-8.97,36l-1.15,3.14c-8.73,18.88-17.07,38.35-29.32,55.34
	c-5.59-40.01-56.29,63.93-58.77,68.93c-9.64,19.43-14.04,39.83-26.26,59.74l-1.78-79.83c-5.99-0.15-9.3,4.27-10.38,9.72
	l-14.17,71.14c-2.91,14.62-7.92,28.29-16.77,39.9c-4.14-24.55,1.1-47.21,6.01-70.7c0.85-4.08,27.67-108.12,6.52-81.05
	c-17.09,21.88-24.15,48.53-36.2,74.69c-12.92-19.2-15.95-40.73-32.24-55.3c-2.05,47.32,19.2,80.94,7.55,130.07
	c-11.79-30.68-18.69-61.31-36.78-90.05c1.54,33.4-6.36,63.75-20.17,91.8c-9.52-56.93,26.16-136.93,48.84-188.66
	c-20.47,13.76-34.96,31.75-50.46,49.84c-8.52-12.68-16.48-25.98-30.48-34.73c-6.39,31.8,18.64,54.59,8.22,74.02
	c-9.42,17.56-16.11,35.31-23.09,55.22l-22.09-61.93c-11.33-31.76-29.7-58.08-45.71-85.94c9.73-40.04,34.54-100.81,70.63-124.52
	l-10.8,58.9c25.87,27.36,44.72,58.72,60.54,94.48c15.41-25.74-21.13-132.94-31.78-156.46c-1.46-4.86-0.93-5.84,3.5-7.94
	c6.47-3.07,23.29-2.13,27.6,4.6l16.35,25.82l2.57,1.16c10.09,29,48.29,22.22,46.57-8.91l2.02-2l0.22-3.65
	c-7.38-13.86,7.35-13.17,15.15-8.2c1.62-0.4,3.54,0.25,5.06-0.81c2.06-3.28,6.64,1.81,8.28,4.27c-2.53,4.2-3.06,8.23-1.59,12.06
	c4.27,19.36,14.31,36.82,19.84,58.27l10.81-51.2c1.81-6.73,13.72-9.63,20.14-10.64l2.36,1.57c-0.05,0.28-0.13,0.59-0.1,0.86l1,1.41
	c-0.33,11.04-3.5,22.34,0.24,34.39c16.56-22.92,26.47-48.97,46.5-68.98C817.92,1151.03,811.1,1189.52,816.66,1230.63z"/>
<path class="st8" d="M466.25,1141.43c2.43-2.82,5.92-3.68,10.47-2.59c5.29,0.16,7.82,1.81,7.6,4.97
	c-6.43,14.48-10.28,30.35-15.38,46.12c2.28,6.64,7.77,14.41,13.63,16.85c16.16-23.34,27.35-49.3,51.32-65.93
	c-13.96,31.22-27.12,60.14-36.59,91.94l9.01,20.89c13.91,32.27,39.98,115.09,30.36,150.73c-6.73-16.3-15.77-30.92-19.35-47.21
	c-3.27-14.85,3.36-30.42-4.08-45.58c-28.96,35.56-20.22,71.49-36.5,104.79c-5.58-28.11,1.91-54.74,14.17-80.53
	c-3.34-40.01-9.68-80.66-24.83-119.82c-16.03,13.46-24.3,31.8-29.32,50.26l-18.3,67.34c-1.86,6.83-3.2,13.66-10.13,18.38
	c-7.42-29.2-15.99-56.3-30.39-82.03c-1.55-2.78-0.78-6.76-0.8-9.26c-0.28-52.79,3.42-95.04-0.59-148.73
	c10.63,14.58,15.78,31.14,20.79,46.8c-0.2,2.69-1.83,5.26-4.9,7.73c-21.67,42.63,53.99,44.72,34.29,0.7
	c-3.08-2.7-4.81-5.49-5.19-8.37c-4.35-19.37-11.04-39.88-5.64-61.63c9.76,24.9,18.38,48.65,37.54,69.36L466.25,1141.43z"/>
<path class="st8" d="M316.32,1128.64l2.36-2.11l17.33-0.18c3.48-0.42,5.6,0.64,6.36,3.19c-8.58,25.14-15.37,52.41-18.35,79.54
	l21.21-66.34c16.67,37.39,19.97,77.43,24.93,115.74c-17.07-17.65-6.7,46.31-6.38,51.33c2.31,37.05,4.24,73.8,1.35,113.37
	c-14.54-39.73-21.55-79.31-34.34-118.02c-2.82-8.55-5.67-15.86-3.83-24.21c4.6-20.91,18.33-38.39,28.1-59.73
	c-12.13,5.61-20.9,16.46-32.69,23.7c-6.27-21.38-11.21-43.55-26.15-61.64c-14.18,40.54,5.35,76.69-10.01,107.31
	c-9.07,18.08-18.14,36.42-30.09,53.42c-11.07-22.62-13.11-46.32-23.15-67.47c-4.64-9.78-6.03-19.59-7.91-29.59
	c-0.01-5.6,1.5-10.16,4.53-13.7c13.44,2.6,16.6-1.37,15.29-14.53l2.39-1.15c2.6-1.18,3.31,0.25,3.45,2.77
	c-1.32,10.87,4.14,26.2,4.79,5.36l-2.44-23.86l2.39-1.66c0.23-2.85,1.01-4.75,2.34-5.7c5.19,8.67,15.34,3.45,9.72-5.72l0.09-5.65
	c-4.54-1.04-11.31-3.85-8.78-9.05l0.47-3.08c17.37-11.25,15.42-35.07-2.92-44.07l-0.79-2.95c1.9-7.83-0.9-17.91,4.51-24.95
	c14.14-4.13,38.55,53.17,43.82,64.41C307.86,1150.12,312.11,1139.56,316.32,1128.64z"/>
<path class="st12" d="M916.5,1175.18c15.25-1,27.98,8.8,31.56,22.12c3.76,13.99-2.71,28.45-14.58,34.49
	c-13.07,6.65-28.45,3.95-38.16-6.19c-1.5-1.57-2.64-2.8-3.31-4.16c-7.8-15.99-3.51-32.97,10.61-42.35
	C906.89,1176.25,912.47,1176.19,916.5,1175.18z"/>
<path class="st8" d="M282.8,1395.88c-7.76-20.65,28.27-82.89,37.21-105.43c-0.02,25.9-5.52,55.65-13.63,83.44
	c-5.98,20.5-12.53,38.76-14.05,59.6C291.17,1419.29,287.26,1407.77,282.8,1395.88z"/>
<path class="st13" d="M186.27,1456.61c-2.26-0.12-2.68,1.93-3.6,2.33c-4.05,1.73-10.75,6.32-12.64,0.56
	c10.1-40.65,46.68-62.17,85.59-67.2C233.99,1417.14,209.8,1436.37,186.27,1456.61z"/>
<path class="st13" d="M1001.83,1441.18c-9.26-3.58-18.65-8.61-28.92-9.28c9.17-9.42,24.24-11.65,38.92-8.36
	c12.88,2.89,30.75,24.04,31.41,31.4c0.36,3.99-3.18,1.74-6.28,2.95c-3.55,1.39-3.35-0.01-5.2-3.1
	C1022.5,1448.31,1011.72,1445.01,1001.83,1441.18z"/>
<path class="st8" d="M821.68,1366.31c13.87,22.62,29.14,68.39,3.35,88.55L821.68,1366.31z"/>
<path class="st8" d="M443.34,1424.92c-5.37-34.86,9.37-72.27,11.06-108C459,1342.37,463.55,1404.24,443.34,1424.92z"/>
<path class="st13" d="M74.96,1382.89c2.12-2.61,5.56-2.7,10.32-0.27c4.33,1.37,12.04,4.24,12.85,8.5c2.43-2,3.08-1.28,2.41,1.61
	c5.65,2.54,10.49,6.61,14.52,12.21l-0.61,2.79l9.04,17.84c0.84,1.66,0.8,3.88,0.29,5.2c-0.36,0.92-2.08,0.97-3.02,1.25
	c-5.56-6.4-12.63-11.38-19.13-16.79c-8.87-7.39-17.4-15.64-27.5-21.11c-4.21,0.01-15.1-8.65-8.34-11.29
	C66.27,1379.13,73.88,1379.68,74.96,1382.89z"/>
<path class="st9" d="M63.33,1020.76c2.43-1.21,5.53-1.24,9.29-0.1l15.28-0.14c0,0,0.79,0.88,2.38,2.65l0.18,79.62
	c0.15,2.59-1.07,5.2-3.67,7.83c-16.65,46.77,60.11,38.44,32.35-3.72l0.29-3.01c7.96-21.87-9.94-99.21-1.19-116.85
	c9.91,17.35,13.17,35.89,21.04,52.41l2.05,1.77c-2.17,16.06,15.91,23.22,27.02,12.92l2.71,0.33c1.93-2.41,7.35-1.56,8.41,1.36
	c4.06,29.61,13.14,58.22,20.7,88.47c11.41-33.69,4.38-82.6,8.54-114.58l16.39,59.5c1.5-4.47,4.86-8.94,6.7-13.53
	c2.09-3.08,11.2,1.15,10.65,4.75c-3.46,14.81-7.91,29.65-7.68,44.79l-0.52,2.95c-17.34,11.39-15.6,37.44,4.86,44.24l1.11,2.84
	c1.46,0.74,3.11,1.22,4.69,0.38c1.31-3.06,3.4-3.05,4.69,0.02c1.17,0.78,2.39,0.24,3.52-0.37c-1.53-3.85,4.1-4.45,5.71-1.21
	c2.6,4.25,5.32,7.48,12.06,5.82c-2,5.89-1.45,9.09,0.73,13.86c1.39,3.04-3.62,6.81-6.22,7.4c-4.07,0.92-7.74-1.21-8.2-5.69
	c-1.26,2.54,0.13,5.18-1.75,4.73c-3.42-1.09-3.6-5.4,0.01-6.05l-1.44-3.33c-2.05,2.52-2.71,1.94-2.13-1.17
	c-0.78-1.18-2.44-0.98-3.46-0.19c0.93,2.09,0.96,4.75,0.1,7.96c1.2,6.34,1.65,12.69,1.36,19.05l-2.64,1.11
	c-0.33,5.33,1.29,11.05-2.25,15.52c-3.42,4.33-8.25,3.56-14.68,2.1c-3.7,3.81-0.29,10.46-5.29,11.75
	c-9.87-17.67-15.65-51.06-26.43-73.94c-1.07,4.67-0.42,9.58,0.36,14.27c-0.25,0.91-0.64,2.26-1.36,2.33
	c-2.76,0.29-20.12,0.17-21.24-0.93c-0.39-0.38-0.6-0.95-0.76-1.57l-11.49-89.37c-11.77,49.75-21.61,103.84-21.91,151.82
	c-11-22.77-15.98-46.53-32.04-63.56l-2.37-1.27l-0.66-28.31c-0.7-0.68-3.61,0.01-3.88,0.48c-3.03,5.17,2.19,25.85,3.77,32.1
	l-1.69,2.4c11.37,33.48,15.37,69.25,17.77,104.92l-12.57-5.36c-5.67-0.93-14.57-9.57-12.65-15.1c-2.94-1.42-7.27-4.42-4.12-7.59
	c-4.31-2.67-8.25-12.19-6.05-16.89c-1.02-1.14-2.01-2.31-2.84-3.58c-0.83-1.26-1.63-2.5-2.06-3.84
	c-6.56-20.31-11.73-41.42-16.46-62.24c-0.31-1.38-0.28-2.85-0.23-4.35c0.05-1.51,0.27-3.02,0.53-4.52l-15.13-63.51
	c-10.04-42.16-25.14-81.72-34.01-126.22c18.46,23.15,22.74,51.97,36.94,77.93C54.85,1046.22,59.64,1033.39,63.33,1020.76z"/>
<path class="st10" d="M1138.79,1043.62l-1.41,2.29c-12.34,1.06-17.01,15.82-8.32,24.51l-0.49,2.83
	c-5.62,20.36-12.32,40.48-16.85,61.13c-4.82-16.78-24.98-11.32-37.13-16.61c25.99-50.42,56.67-118.11,98.48-158.96
	C1161.87,988.88,1146.81,1014.7,1138.79,1043.62z"/>
<path class="st6" d="M46.73,1172.9l19.95-0.06c6.28,26.36,12.33,52.85,21.07,78.53c-2.18,4.01-9.41,4.4-12.35,0.52
	c-0.4-28.96-11.54-31.7-39.69-30.62l-2.93-2.58l-21.11-74.48c17.66,13.08,26.53,30.36,39.56,45.86
	C50.6,1183.55,48.66,1178.06,46.73,1172.9z"/>
<path class="st12" d="M862.47,1095.56c-14.41,5.08-29.61,0.33-36.15-12.11c-6.28-11.93-2.55-28.87,9.81-35.83
	c14.37-8.09,31.64-3.57,39.09,10.87C881.79,1071.2,877.75,1090.18,862.47,1095.56z"/>
<path class="st10" d="M342.37,1129.54c-8.58-2.08-17.31,0.28-26.05-0.9c16.52-42.86,39.66-83.69,70.49-122.22
	C375.09,1049.87,356.25,1088.88,342.37,1129.54z"/>
<path class="st12" d="M255.6,1123.97c10.3,4.39,17.47,13.62,18.03,24.13c0.61,11.49-5.33,20.25-14.8,25.96
	c-1.42,0.86-4.32-0.27-5.71,1.21c-1.05,0.66-2.4,1.15-3.52,0.37c-1.56,0.16-3.13,0.17-4.69-0.02c-1.47,0.88-3.31,0.4-4.69-0.38
	c-11.04-3.33-19.26-11.57-20.09-22.94c-0.8-10.93,4.6-22.11,14.64-27.09C239.77,1122.74,250.44,1121.78,255.6,1123.97z"/>
<path class="st10" d="M972.98,1119.13c-9.93,2.6,2.63-12.55-12.17-16.77c-3.31-0.95-10.5,1.78-13.73,4.85
	c-4.47,4.24-2.01,13.54-9.79,14.3c15.96-36.52,43.51-95.44,76.52-122.07C997.68,1038.63,977.14,1077.34,972.98,1119.13z"/>
<path class="st12" d="M677.25,1118.74c1.84-3.94,8.34-0.74,11.57,0.92c7.22,3.72,14.39,10.61,12.87,19.12
	c3.15,14.43-8.27,30.17-21.11,31.74c-13.28,1.62-28.38-8.69-30.06-21.99C648.34,1131.2,661.35,1119.12,677.25,1118.74z"/>
<path class="st12" d="M816.66,1230.63c1.29,2.23,0.21,5.18,1.27,6.79c1.05,11.74-5.02,21.34-14.45,24.91
	c-10.27,3.89-21.65,2.35-29.11-5.43c-6.87-7.16-8.97-19.28-4.56-28.79c-3.47-3.23,3.47-8.07,6.5-10.13
	c3.15-2.15,9.58-6.3,12.14-2.56C801.14,1213.74,811.11,1221.07,816.66,1230.63z"/>
<path class="st10" d="M717.06,1126.94c-4.66,1.17-9.87-1.94-14.93-0.3c-0.91,4.84,3.32,9.86-0.44,12.15
	c-2.46-11.31-13.84-19.32-24.45-20.05c-7.17-20.36-19.66-39.49-22.87-63.64C683.48,1070.98,704.07,1099.47,717.06,1126.94z"/>
<path class="st12" d="M1012.37,1103.86c8.6-5.43,25.09,6.39,23.43,16.36c3.32,8.42-3.05,16.98-5.84,23.38
	c-11.89,9.62-29.38,8.27-37.86-4.2c-5.25-7.72-3.97-18.03,0.44-24.96C996.71,1107.88,1004.2,1103.93,1012.37,1103.86z"/>
<path class="st12" d="M421.55,1158.89c12.63,8.49,15,25.02,5.57,35.44c-9.78,10.8-26.5,10.28-36-0.55
	c-9.34-10.64-5.96-27.14,6.24-34.95C405.08,1153.88,414.47,1156.44,421.55,1158.89z"/>
<path class="st12" d="M119.43,1103.89c10.15,9.37,11.45,25.45,1.55,34.72c-9.57,8.97-25.35,8.55-34.36-2.1
	c-7.85-9.28-6.74-25.31,3.83-33.71C99.34,1095.73,111.53,1098.66,119.43,1103.89z"/>
<path class="st12" d="M316.62,1014.89c0.53,0.47,0.68,0.9,0.85,1.1c5.33,8.76,6.06,20.17-1.05,28.16c-10.91,9.61-24.35,8.8-34.92,0
	c-11.16-8.04-7.66-27.41,3.71-34.05C295.53,1004.06,309.43,1004.33,316.62,1014.89z"/>
<path class="st10" d="M634.18,1122.72c-5.25-3.86-31.99-7.2-31.1,3.34l-34.53-76.22C597.83,1067.91,617.2,1095.91,634.18,1122.72z"
	/>
<path class="st10" d="M781.95,1140.45c-7.83,3.48-16.16,2.83-22.5,9.08c6.91-32.75,16.45-67.97,39.49-95.07L781.95,1140.45z"/>
<path class="st10" d="M484.32,1143.81c-4.78-3.29-12.33-3.18-18.07-2.38c15.79-31.09,33.66-63.43,58.86-89.43L484.32,1143.81z"/>
<path class="st12" d="M767.71,973.22c11.27-1.82,19.21,6.7,20.63,16.79c1.58,11.21-6.25,20.46-16.65,21.36
	c-10.65,0.92-20.23-5.73-21.35-15.8C749.05,983.91,755.15,975.25,767.71,973.22z"/>
<path class="st12" d="M455.76,1028.52c11.2-1.63,20.27,6.06,22.09,15.36c2.16,11.04-5.36,20.95-15.57,22.45
	c-10.54,1.55-20.38-4.69-22.34-14.83C437.94,1041.14,444,1030.22,455.76,1028.52z"/>
<path class="st10" d="M90.28,1023.18c-9.16-1.57-18.11,1.98-26.95-2.41c6.39-21.86,15-45.73,33.47-62.33L90.28,1023.18z"/>
<path class="st12" d="M1061.77,968.84c10.49-3.67,21.24,2.46,24.32,12.45c2.87,9.32-2.11,20.18-11.69,23.16
	c-9.72,3.03-21.21-1.24-24.17-11.06C1047.3,983.67,1050.71,972.71,1061.77,968.84z"/>
<path class="st12" d="M228.44,937.03c10.94-0.23,18.35,8.04,18.91,17.52c0.65,10.88-7.53,18.69-18.2,19
	c-9.68,0.28-17.95-6.82-18.6-17.17C209.93,946.38,217.09,937.27,228.44,937.03z"/>
<path class="st12" d="M915.21,954.87c10.41-3.92,20.92,0.95,24.33,10.9c3.08,8.97-0.19,19.39-10.79,22.96
	c-8.57,2.88-19.02-0.5-23.13-10.12C902.05,970.25,904.86,958.76,915.21,954.87z"/>
<path class="st12" d="M125.55,884.85c-7.94,6.8-19.13,6.35-27.21-0.18c-5.15-8.27-5.71-19.46,1.8-26.85
	c6.56-6.46,19.12-5.32,25.38,1.53C132.35,866.8,131.74,877.27,125.55,884.85z"/>
<path class="st12" d="M341.97,924.25c10.59-3.17,20.58,2.2,23.41,11.44c2.88,9.41-2.04,18.29-10.81,21.9
	c-9.54,3.93-19.47-0.83-23.03-10C328.15,938.85,332.01,927.23,341.97,924.25z"/>
<path class="st12" d="M785.05,885.61c-3.43,5.13-9.16,8.3-15.75,8.18c-5.53-0.1-12.8-3.26-15.54-9.12
	c-3.48-7.42-1.11-16.7,5.17-21.51c6.52-5,15.13-4.94,21.97,0.6C787.17,868.86,788.15,877.66,785.05,885.61z"/>
<path class="st12" d="M978.41,901.9c10.57-3.18,18.75,2.31,21.66,12.11c2.59,8.71-2.06,18.43-11.62,21.1
	c-8.15,2.28-18.21-2.76-20.79-10.59C964.43,914.7,968.19,904.98,978.41,901.9z"/>
<path class="st10" d="M179.46,1055.83c-2.88,0.29-5.77-0.14-8.41-1.36l-1.43-2.14c4.31-11.38-3.79-22.46-16.24-21.39l-1.81-2.28
	c4.22-17.38,5.54-36.78,16.92-52.77L179.46,1055.83z"/>
<path class="st12" d="M171.05,1054.48c-5.07,7.23-15.85,8.12-22.85,5.02c-7.17-3.18-10.75-12.29-8.93-20.05
	c1.39-5.96,7.13-8.38,12.29-10.78c7.85-0.42,14.39,1.2,18.69,7.6C173.04,1040.41,174.66,1049.32,171.05,1054.48z"/>
<path class="st12" d="M1138.79,1043.62c7.9,0.66,13.3,6.2,14.7,12.26c1.57,6.79-1.39,13.14-6.48,16.71
	c-5.57,3.91-12.48,2.97-18.45,0.66c-5.61-5.25-7.88-12.32-5.39-18.94C1125.61,1047.86,1131.66,1043.03,1138.79,1043.62z"/>
<path class="st10" d="M1035.8,1120.22c-3.7-9.37-12.84-16.45-23.43-16.36c12.79-11.56,20.04-27.81,36.59-39.11
	C1047.17,1083.86,1042.1,1102.87,1035.8,1120.22z"/>
<path class="st10" d="M916.71,1122.63c-7.02-2.69-18.18-5.56-24.63,0.04c14.42-19.54,27.68-38.88,36.51-60.47
	C931.15,1085.19,920.87,1103.68,916.71,1122.63z"/>
<path class="st12" d="M485.12,898.53c8.66-2.51,16.37,2.81,18.59,10.27c2.24,7.55-2.14,16.25-9.48,18.31
	c-8.1,2.27-15.98-1.73-18.65-8.82C472.62,910.42,476.25,901.1,485.12,898.53z"/>
<path class="st10" d="M728.81,1142.46c-2.69-0.01-3.33-2.3-3.47-4.17c-0.2-2.79,1.73-4.78,3.14-7.58l-6.36-4.59
	c12.54-17.48,27-34.05,44.66-48.34C756.13,1101.3,742.17,1121.78,728.81,1142.46z"/>
<path class="st12" d="M1126.04,898.44c8.53-2.4,16,2.6,18.34,9.57c2.63,7.82-2.1,16.26-9.66,18.54c-7.59,2.28-15.39-1.59-18.06-9.13
	C1114.09,910.19,1117.31,900.89,1126.04,898.44z"/>
<path class="st12" d="M623.36,1010.99c8.75-1.92,15.97,3.91,17.53,11.58c1.55,7.61-3.08,15.27-11.56,17.02
	c-6.85,1.42-14.63-3.09-16.59-10.93C611.02,1021.79,614.98,1012.83,623.36,1010.99z"/>
<path class="st12" d="M1046.48,884.96c-5.55,0.01-11.01,1.37-16.45-1.5c-6.3-6.66-6.8-15.87-0.8-21.82
	c6.68-6.63,16.75-4.76,21.74,1.71C1056.73,870.82,1053.35,879.63,1046.48,884.96z"/>
<path class="st12" d="M540.25,978.3c7.39-3.01,14.77,0.51,17.55,7.36c2.44,6-0.43,13.66-7.44,16.1c-5.99,2.09-13.8,0.07-16.81-6.27
	C530.71,989.5,532.75,981.35,540.25,978.3z"/>
<path class="st12" d="M719.41,1035.61c7.49-0.73,13.88,4.31,14.18,10.25c0.42,8.26-3.49,13.58-11.25,14.6
	c-6.59,0.87-12.6-3.32-13.93-10.16C707.08,1043.38,711.16,1036.41,719.41,1035.61z"/>
<path class="st12" d="M531.84,1097.83c7.65-2.66,14.04,1.45,16.63,7.68c2.58,6.23-0.98,13.51-7.38,16.05
	c-6.33,2.51-13.3-0.56-16.09-6.34C522.02,1109.02,524.56,1100.36,531.84,1097.83z"/>
<path class="st10" d="M242.46,1080.43l-10.65-4.75c6.76-16.8,13.98-34.97,25.97-49.54C256.19,1046.67,246.55,1062.91,242.46,1080.43
	z"/>
<path class="st12" d="M669.13,932.45c7.07-0.59,11.91,5.3,12.32,10.6c0.55,7.17-5.39,11.57-11.04,12.73
	c-7.08,1.45-11.42-3.66-12.38-9.96C657.05,939.41,661.99,933.05,669.13,932.45z"/>
<path class="st12" d="M437.16,972.43c6.6-2.25,12.71,1.51,14.37,7.15c1.83,6.23-1.83,12.08-7.68,14.19
	c-5.83,2.11-11.75-0.52-13.97-6.09C427.49,981.7,430.19,974.8,437.16,972.43z"/>
<path class="st12" d="M858.53,1115.52c-2.41,16.34,1.37,34.82-4.85,34.5c-8.41-0.43-5.17-40.9-5.33-40.73
	c1.39-1.5,4.81-0.8,7.19-0.29C857.6,1109.43,859.01,1112.32,858.53,1115.52z"/>
<path class="st12" d="M857.59,954.22c-6.38,3.47-18.31-10.05-17.72-7.81c-0.29-1.09,7.62-12.61,15.18-12.47
	c4.5,0.08,8.79,4.43,9.41,8.82C865.22,948.12,861.94,951.85,857.59,954.22z"/>
<path class="st12" d="M193.02,884.61c-2.77,0.23-5.76,2.78-8.81,2.07c-4.06-3.26-8.09-6.61-7.88-11.06
	c0.27-5.71,3.95-9.69,7.55-10.46c6.09-1.31,10.41,2.19,12.06,5.85C198.3,876.24,196.14,880.91,193.02,884.61z"/>
<path class="st12" d="M385.87,1079.71c-2.16-5.84,12.89-15.45,17.08-10.85c5.12,5.63,3.82,13.53-0.96,16.91
	C398.02,1088.58,388.73,1087.42,385.87,1079.71z"/>
<path class="st12" d="M303.71,1063.45c-2.73,10.62,3.6,24.06-3.92,34.13C296.75,1095.96,287.5,1052.19,303.71,1063.45z"/>
<path class="st12" d="M45.85,919.99c0.22-0.38,0.72-0.63,1.02-0.96c15.31-11.18,25.47,15.59,7.06,17.46
	C43.17,937.57,37.58,927.02,45.85,919.99z"/>
<path class="st12" d="M461.51,1112.13c-2.75-0.72-7.86-35.21-0.23-35.61C467.39,1076.21,465.32,1110.87,461.51,1112.13z"/>
<path class="st6" d="M1046.7,1171.79c-3.61,7.9-6.86,16.43-13.06,24.16c-2.83-8.42-2.83-16.62-4.74-24.2
	C1034.82,1172.13,1040.77,1172.09,1046.7,1171.79z"/>
<path class="st12" d="M117.53,903.06c0.12,3.83,7.18,40.82-2.11,34.28c-1.39-0.98-1.54-2.99-1.64-4.53l-1.62-23.18
	c-0.15-2.15-0.79-4.06,0.34-5.4C113.31,903.24,117.06,901.58,117.53,903.06z"/>
<path class="st12" d="M1071.85,1047.39c-7.69,8.55-8.64-28.86-5.31-30.16C1076.83,1013.22,1071.06,1036.12,1071.85,1047.39z"/>
<path class="st12" d="M233.45,987.12c0.36,10.85,2.37,20.98-0.78,31.18c-6.36,3.51-5.97-31.61-6.02-30.54
	C226.76,985.63,233.36,984.4,233.45,987.12z"/>
<path class="st7" d="M316.62,1014.89c-9.44-8.43-20.49-11-30.55-3.62c-10.1,7.41-11.39,22.26-4.58,32.88
	c-10.26-1.47-10.49-12.37-9.15-22.24c1.26-9.23,9.22-12.46,18.32-15.07C301.2,1003.81,312.38,1004.46,316.62,1014.89z"/>
<path class="st12" d="M922.54,1001.67c5.06-17.23,8.52,34.96,2.82,35.23C921.12,1031.06,920.84,1007.47,922.54,1001.67z"/>
<path class="st12" d="M769.5,904.35c6.22-4.66,3,35.42-0.43,34.3C765.8,936.84,764.38,908.18,769.5,904.35z"/>
<path class="st7" d="M45.85,919.99c-2.26,3.85-3.8,8.81-0.7,12.69c2.87,3.59,8.67,4.57,12.95,1.51c3.74-2.68,4.46-8.55,1.68-12.51
	c-3.01-4.28-8.12-4.37-12.9-2.66c3.52-3.88,9.71-6.68,14.48-5.66c8.22,1.77,7.75,19.01,4.57,21.07c8.36-5.42-16.88,9.14-22.8-0.59
	C39.57,928,38.2,922.56,45.85,919.99z"/>
<path class="st12" d="M347.44,971.52c9.95-11.2,6.47,30.61,4.61,33.34C347.45,1004.35,347.89,971.02,347.44,971.52z"/>
<path class="st12" d="M769.64,1022.06c9.31-2.26,4.74,31.5,1.73,30.66C768.31,1049.32,765.21,1023.14,769.64,1022.06z"/>
<path class="st12" d="M288.28,894.14c-0.31,3.31,1.17,11.05-2.35,12.44c-5.65,0.09-3.44-8.08-4.56-11.26
	c1.06-6.72-2.97-14.75,1.99-21.22C290.4,879.82,284.2,888.33,288.28,894.14z"/>
<path class="st12" d="M886.57,893.06c7.56-11.93,5.69,26.27,0.66,27.59C881.87,918.69,887.35,891.83,886.57,893.06z"/>
<path class="st12" d="M1130.13,960.63c-4.75-6.97-3.17-19.06,1.79-25.03C1137.25,942.56,1134.75,954.61,1130.13,960.63z"/>
<path class="st12" d="M490.85,956.27c-2.94-7.3-6.51-17.97,0.42-23.61C496.61,938.74,496.14,949.51,490.85,956.27z"/>
<path class="st12" d="M984.56,967.37c-3.05-6.99-3.97-16.6-0.24-23.75C989.14,950.12,989.49,960.5,984.56,967.37z"/>
<path class="st12" d="M627.65,1066.17c-3.34-6.15-4.72-14.69,0.41-19.22C632.02,1052.56,631.51,1061.22,627.65,1066.17z"/>
<path class="st7" d="M316.42,1044.14c6.2-8.47,4.92-18.66,1.05-28.16C324.61,1024.45,324.06,1037.4,316.42,1044.14z"/>
<path class="st11" d="M1060.97,561.41c-11.52,38.36-4.05,22.05-37.89,56.49c10.52,1.38,18.16-4.93,28.77-1.95
	c-7.07,21.5-26.61,35.12-40.98,53.18l36.77-0.53c-6.52,14.12-17.79,24.44-27.23,34.7c-3.6,3.92-11.63,1.43-12.56-3.62
	c9.69-5.64-21.85-22.25-25.26-39.55c5.19-4.5,11.32-2.01,16.52-7.76c-19.2-16.05-30.03-35.07-38.88-58.3
	c-9.46,23.12-16.54,56.33-32.88,71.35c7.02,4.43,13.84-1.19,19.61,4.5c-6.67,12.88-15.71,23.61-24.65,33.1
	c-3.32,2.51-11.66,3.05-13.71-0.82c-1.26-3.82-2.89-7.47-6.44-11.2c-2.48,3.13-3.29,6.64-4.4,9.76l-2.31,2.53
	c-9.55,0.89-19.11,1.51-28.67,1.88l-2.65-1.84c-7.39-10.4-5.15-23.04-15.17-34.39c-2.64,12.67-7.72,22.81-12.23,33.09l-2.18,2.34
	c-33.7,0-67.4,0-101.11,0l-2.18-2.34l-3.96-2.83c-49.94-96.08-194.93-97.71-239.35,4.36l-3.85,3.05l-2.13,2.42l-84.38,2.96
	c-4.01-0.17-7.74-0.04-11.18,0.39c-10.79,0.41-21.52,0.77-32.19,1.08l-1.51-2.24c-0.71-2.05-2.92-4.8-4.95-4.17
	c-1.89,0.59-3.76,2.69-4.51,4.44l-1.92,2c-8.41,0.05-16.84,0.46-25.28,1.24c-6.27-0.16-9.24-2.1-8.9-5.81
	c0.94-0.61,2.23-4.13,0.66-5.48c-12.95-11.18-17.29-26.43-20.86-43.69c-11.55,16.47-14.41,34.5-25.56,48.11
	c-5.15,8.22-13.02,12.22-21.04,4.78c-1.76-2.74-5.82-5.09-5.13-9.98l17.26-4.81c-21.32-22.49-28.66-50.11-36.7-79.53
	c-4.46,2.7-6.95,7.96-7.55,13.13c-4.66,39.96-20.15,27.02-18.91,63.24c-10.86-1.98-19.59-10.14-23.72-19.33
	c7.24-3.92,14.24,1.82,20.61-3.95c-10.05-12.49-21.78-25.42-25.32-40.71c3.57-3.59,12.6-5.94,9.13-12.23
	c-3.16-5.72-9.07-10.69-11.8-16.13c56.82-4.03,115.39-3.32,174.65-6.79l199.27-11.67l233.59-6.44
	c52.04-1.44,102.33-4.51,154.3-10.03C967.59,562.36,1015,557.67,1060.97,561.41z"/>
<path class="st12" d="M731.25,702.02c0.81,0.36,1.59,0.75,2.28,1.27c7.36,5.55,11.46,41.14,11.33,51.44
	c-0.06,5.23-0.47,19.5-3.39,22.67c-0.58,0.63-1.27,1.15-2,1.64c-4.18-9.13-3.93-20.55-12.19-29.56l-16.58,42.15l-12.94-17.86
	c-9.45,8.92-8.37,23.71-16.49,33.68l-23.25-35.24c-7.34,14.29-10.66,28.56-19.11,40.67L619,782.94l-22.29,33.13
	c-8-8.59-8.58-21.05-17.6-28.53l-12.04,17.98c-6.89-8.16-6.56-19.88-15.05-27.33L536.15,811c-4.55-3.37-8.86-9.26-11.62-14.15
	c1.63-2.17,5.98-1.95,6.13-4.25c-0.33,4.9-15.72-44.79-18.74-45.14c-9.42,12.41-9.81,27.82-17.53,40.95
	c-6.89-7.54-10.78-36.5-18.64-34.96l-2.18-3.88c-0.6-7,3.82-38.21,8.36-41.74c0.65-0.51,1.39-0.89,2.17-1.23
	c20.66-50.53,68.35-83.23,124.23-82.14C660.14,625.47,709.6,654.9,731.25,702.02z"/>
<path class="st14" d="M836.72,702.02c-5.07,11.56-9.89,23.6-20.49,33.87c7.02,5.35,11-1.85,17.73,1.37
	c-4.07,14.61-14.5,27.93-25.55,37.3c-8.69-16.18-6.89-33.3-19.21-47.54c-6.31,21.01-11.66,40.75-20.03,60.08
	c-5.54-6.07-4.56-14.62-12.18-18.25l-11.44,21.53c-4.44-2.47-4.4-7.71-6.07-11.34c6.19-24.82,2.69-53.24-8.23-77.01L836.72,702.02z"
	/>
<path class="st11" d="M1161.44,560.25l-20.68,23.06l30.48-7.13c0.36,18.75-35.56,39.08-45.99,54.17
	c13.59,3.03,25.24-5.04,37.92,1.17l-43.79,54c-7.55-8.08-12.13-17.84-13.35-28.33c9.78-3.37,19.45,2.32,29.74-3.65
	c-13.46-14.01-29.13-25.23-36.96-43.52c5.84-4.31,12.21,1.06,19.47-3.1c-13.7-14.45-24.74-29.57-30.75-46.87
	C1111.98,558.44,1137.1,558.24,1161.44,560.25z"/>
<path class="st14" d="M475.74,753.46c-5.19,7.61-7.16,17.55-13.76,25.04c-8.86-14.03-8.38-31.37-19.65-43.94l-21.81,46.53
	c-7.1-1.96-12.17-8.67-16.82-14.73l11.57-3.82c-15.6-17.26-14.55-36.25-26.61-50.32c-8.82,12.09-11.93,25.86-19.2,38.32
	c-7.24-13.44-12.28-26.3-16.77-39.32l131.39-4.6C478.07,721.33,476.32,737.83,475.74,753.46z"/>
<path class="st11" d="M124.25,599.91c-3.36,6.92-6.45,15.24-13.07,21.73c5.74,4.09,10.29,1.13,14.47,2.56
	c-3.17,13.85-17.82,18.95-18.69,34.55c-8.6-12.62-8.01-28.55-16.55-45.13c-7.18,17.5-11.4,34.63-19.79,50.67
	c-4.73-6.72-9.42-13.61-10.56-21.5c3.35-4.06,8.75-3.37,12.84-6.69c-7.43-14-20.45-23.3-26.72-38.65
	c5.11-2.99,11.41-2.19,15.98-3.36L124.25,599.91z"/>
<path class="st14" d="M343.24,711.48l-13.01,30.26c-1.9,4.43,0.43,9.58-2.39,13.97c-9.14,1.1-17.2-6.09-21.41-13.82
	c4.61-2.55,9.15-0.2,12.29-4.7c-6.93-8.44-15.12-15.14-19.75-24.79c2.3-2.67,5.63-2.35,8.15-3.5
	C315.89,716.82,331.06,708.55,343.24,711.48z"/>
<path class="st12" d="M274.27,830.75c9.49-4.03,19.4,0.63,22.9,9.91c2.9,7.68-0.67,17.61-9.8,21.21c-7.84,3.09-17.57,0-21.59-8.77
	C262.36,845.61,265.08,834.66,274.27,830.75z"/>
<path class="st12" d="M885.9,848.27c9.57-3,18.67,1.86,21.6,10.54c2.85,8.45-2.05,17.99-11.33,21.08
	c-7.69,2.56-17.31-1.35-20.42-9.73C872.67,861.89,876.22,851.31,885.9,848.27z"/>
<path class="st14" d="M864.12,703.32l33.63-2.57l-12.11,33.99c-1.93,5.41,1.96,12.37-3.78,16.59c-7.32-5.24-12.32-14.26-14.57-22.82
	c4.32-1.65,7.27-0.02,12.33-2.77C875.16,717.79,869.33,710.65,864.12,703.32z"/>
<path class="st12" d="M1081.8,731.07c7.33-3.22,15.03,0.19,17.66,7.06c2.37,6.19,0.34,14.15-7.01,16.93
	c-5.88,2.23-13.78,0.03-17.15-7C1072.73,742.69,1074.43,734.3,1081.8,731.07z"/>
<path class="st14" d="M922.31,703.01c-1.8,1.9-5.24,6.99-3.45,8.89c6.66,2.75,12.99-2.08,20.06-0.54
	c-1.91,9.79-9.48,18.99-18.64,22.8c-6.69-10.51-8.24-21.55-11.68-31.97C913.18,702.54,917.81,701.98,922.31,703.01z"/>
<path class="st12" d="M130.16,766.22c6.6-2.72,12.07,0.75,13.54,6.77c1.2,4.94-0.48,11.11-6.48,13.46
	c-4.61,1.81-10.25-1.28-12.81-6.43C122.15,775.45,124.29,768.64,130.16,766.22z"/>
<path class="st12" d="M965.59,803.6c6.54-1.45,11.38,3.35,12.3,8.28c1.09,5.83-2.41,11.03-7.49,12.41
	c-5.8,1.58-10.73-2.71-12.36-7.47C956.12,811.25,959.17,805.03,965.59,803.6z"/>
<path class="st14" d="M1007.85,699.67c3.62,1.59,8,4.37,12.56,3.62c-4.57,4.96-7.78,11.59-13.93,14.92
	c-4.55-2.87-6.93-7.57-8.18-11.46C997.02,702.75,1004.08,699.87,1007.85,699.67z"/>
<path class="st12" d="M1085.51,806.11c-3.3-11.82-2.78-27.14,1.41-39.43C1090.62,779.1,1089.08,793.47,1085.51,806.11z"/>
<path class="st14" d="M240.33,712.62c8.02,2.47,15.74,2.09,21.04-4.78c-1.82,2.23-3.68,5.22-4.84,7.64
	c-1.49,3.1,5.96,3.71,5.53,6.32C254.37,730.04,244.82,719.59,240.33,712.62z"/>
<path class="st13" d="M1044.96,1378.48c7.98,3.5,16.58,13.38,17.93,21.93c7.16,4.22,13.36,14.07,13.92,22.35
	c4.9,0.61,6.06,10.11,5.86,14.14c0.06,1.41,0.85,3.44-0.57,5.98c-31.36-24.16-64.42-49.66-84.1-85.88
	C1017.53,1356.94,1030.38,1370.72,1044.96,1378.48z"/>
<path class="st15" d="M1132.08,1237.6l0.12,5.56c2.92,10.77,3.7,21.45,2.34,32.03l-0.1,3.23c0.52,3.73-0.52,7.52-2.54,10.65
	c-0.05,0.36,0.1,0.84-0.05,1.17c-3.3,5.59-8.3,10-14.12,12.86c-3.53,1.02-11.73,5.08-13.71,0.54
	c-12.27-28.19,2.18-53.11,24.52-70.69C1131.83,1229.5,1133.68,1234.34,1132.08,1237.6z"/>
<path class="st11" d="M1046.63,1339.94c-16.01,0.9-28.56-13.82-38.73-25.5c14.3-4.22,28.08-7.88,42.57-6.86
	c15.9,1.12,26.57,15.32,28.48,30.55L1046.63,1339.94z"/>
<path class="st0" d="M1075.74,1368.46c0.85,0.19,1.68,0.41,2.44,0.77c9.05,4.32,22.9,45.3,23.96,56.33
	c0.06,0.67-0.19,1.38-0.51,2.12c-0.33,0.78-0.81,1.5-1.32,2.2l-17.64,7.02c-3.65-3.22-3.14-9.73-5.86-14.14
	c-0.66-3.01,1.73-4.78,7.18-5.29l-7.17-13.39c-1.23,1.87-2.82,2.85-4.79,2.95c-3.05-2.12-6.09-4.32-9.14-6.62
	c-5.33-7.58-11.41-14.45-17.93-21.93c5-0.62,6.52-4.49,8.54-10.8C1061.61,1371.77,1068.51,1370.66,1075.74,1368.46z"/>
<path class="st15" d="M1170.53,1325.37c-0.45,2-2.29,3.58-2.32,5.78c-1.94,4.67-5.03,8.25-9.27,10.72
	c-8.37,5.34-17.81,10.65-26.8,5.7c-1.07-4.05-1.36-8.2-0.87-12.44c1.15-4.81,2.25-9.62,3.29-14.42c-0.08-0.37,0.14-0.79,0.09-1.17
	l1.08-2.35c0.89-0.89,0.76-2.36,1.26-3.4l8.03-8.15c0.66-0.39,1.57-0.84,2.25-1.16l3.61-2.2c1.59-0.15,3.13-0.68,4.58-1.33
	l2.34-1.14c0.37,0.06,0.8,0.01,1.17-0.05c3.15-1.32,16.09-4.49,18.35-3.1C1178.6,1297.44,1172.29,1322.54,1170.53,1325.37z"/>
<path class="st10" d="M1100.31,1429.88c-2.25-21.96-11.83-43.36-24.57-61.42c-0.92-2.16-3.39-4.63-0.91-7.39
	c11.16,5.16,13.51,17.41,21.18,27.76c3.8-24.58-1.91-49.02,7.14-71.91c-2.23,36.74-6.03,70.77,0.08,108.01
	c6.06-23.2,8.82-48.88,24.23-70.26c-1.67,23.64-23.31,70.8-19.07,94.21c0.64,3.5-4.7,7.36-2.47,12.54
	C1103.18,1451.27,1101.47,1441.23,1100.31,1429.88z"/>
<path class="st13" d="M1175.14,1373.95c-16.65,26.28-30.22,48.62-49.09,71.06C1120.44,1412.77,1142.06,1377.12,1175.14,1373.95z"/>
<path class="st3" d="M1132.14,1347.56c-2.49-1.37-5.11-27.59-2.24-23.57c3.9,9.48,1.22-0.94,4.66-3.29
	C1136.73,1330.28,1130.97,1338.76,1132.14,1347.56z"/>
<path class="st3" d="M1134.53,1275.19c0.34-10.83-2.11-21.29-2.34-32.03C1135.44,1252.5,1139.18,1266.54,1134.53,1275.19z"/>
<path class="st0" d="M1164.84,1338.28c-0.91-1.16,0.77-3.64,2.34-3.47c1.64-0.26,3.63-0.81,6.34-0.87c2.02-0.04,1.13,2.57,0.96,4.16
	c-0.32,3.1-2.76,2.84-5.05,2.11C1168.26,1339.83,1167.04,1339.26,1164.84,1338.28z"/>
<path class="st3" d="M1170.53,1325.37l6.4-28.24l-17.94,2.63c5.11-3.32,12.82-5.49,19.98-3.23
	C1175.63,1306.79,1176.4,1317.79,1170.53,1325.37z"/>
<path class="st3" d="M1131.89,1289.07c0.49-3.63,1.75-7.09,2.54-10.65C1136.41,1281.64,1135.17,1287.15,1131.89,1289.07z"/>
<path class="st3" d="M1132.08,1237.6c-0.03-1.2,0.3-2.59-0.17-4.08c-0.37-1.19-2.27-0.64-3.39-0.56c0.85-0.67,1.43-3.8,2.91-2.38
	C1133.75,1232.81,1133.49,1238.81,1132.08,1237.6z"/>
<path class="st3" d="M1117.71,1303.1c5.27-3.79,10.26-7.61,14.12-12.86C1129.27,1296.07,1123.87,1301.32,1117.71,1303.1z"/>
<path class="st3" d="M1167.19,1334.81c-1.06,0.85-1.57,2.41-2.34,3.47c-1.43,1.97-4.13,2.45-5.91,3.58
	c4.32-2.43,5.61-7.51,9.27-10.72C1168.2,1332.14,1167.39,1333.86,1167.19,1334.81z"/>
<path class="st3" d="M1136.99,1313.78c1.66-3.39,4.78-6.26,8.03-8.15C1142.68,1308.63,1139.85,1311.27,1136.99,1313.78z"/>
<path class="st12" d="M925.69,1288.43c-0.1,3.19-2.21,4.91-4.02,4.99c-1.55,0.07-4.38-1.15-4.52-3.64l-2.06-36.99
	c-0.17-2.98,3.28-4.35,5.46-4.27c2.01,0.08,6.35,0.71,6.24,4.12L925.69,1288.43z"/>
<path class="st12" d="M1014.7,1166.04c-3.03,15.74,1.1,31.03-4.41,32.03c-6.57,1.19-4.23-18.25-4.91-32.03
	c-0.18-3.68,0.91-5.68,4.16-5.65C1012.17,1160.42,1015.45,1162.11,1014.7,1166.04z"/>
<path class="st8" d="M37.35,1239.94c1-0.23,1.8,0.06,2.62,0.61c0.74,0.49,4.71,15.37,4.96,17.03l-1.79,2.24
	c0.92-0.09,2.32-0.09,2.51,0.53c2.11,6.81,4.57,18.48,5.57,25.55c1.56,3.63,1.32,6.21-0.71,7.74l2.46,0.29
	c2.91,13.78,5.82,27.56,8.73,41.35l-2.01,1.83c0.54,2.57-0.17,4.8,0.15,8.52c0.17,1.95-1.82,2.62-4.14,0.03
	c-0.84,0.33-2.2,0.67-2.47,0.15c-2.99-5.7-14.76-34.17-14.85-38.94c-0.02-0.87,0.21-1.72,0.58-2.51c0.32-2.33-2.04-5.26-2.52-7.22
	l-3.34-3.41c-4.66-12.57-9.07-25.1-13.23-37.6l0.77-2.51l-12.54-36.29C28.22,1214.91,27.53,1241.45,37.35,1239.94z"/>
<path class="st0" d="M116.25,1377.21l2.77,0.32l8.18,11.83c2.62,3.25,2.91,5.86,0.87,7.81c-4.9,3.33-7.75,8.92-13.62,10.56
	l-13.91-14.99c1.36-2.15,3.79-2.73,7.3-1.73c2.54-1.54,0.12-2.8-7.26-3.8c0.22,2.17-0.59,3.48-2.44,3.92
	c-7.52-3.44-15.01-8.17-23.17-8.23c-4.88-3.77-7.11-4.2-6.69-1.29l-2.49,1.22c-1.81,5.29,6.75,6.53,8.34,11.29
	c-4.83,4.92-18.48,6.51-21.57-1.25c-3.06-7.69-1.9-20.82,0.86-28.03c11.28-5.22,2.8-24.47,10.99-16.66
	c1.06,1.01,2.61,2.44,2.35,4.43c-0.16,1.26-2.64,2.8-3.44,4.42c4.75,5.78,13.99,2.37,19.88,4.85c3.36,1.42,2.85,10.45,8.34,9.44
	c3.01-0.55,4.94-3.79,8.36-2.54c3.44,1.25,7.19-0.02,4.5,5.93C104.46,1378.08,112.9,1378.18,116.25,1377.21z"/>
<path class="st0" d="M55.7,1345.64c-0.86,1.99-1.1,5.8-2.68,6.87c-1.71,1.16-5.73-1.21-7.53,0.44c-3.11,2.85-3.92,7.31-8.07,6.12
	c-2.67-0.77-4.64-5.2-6.74-7.2c-3.58,2.46-4.33,3.55-7.82,3.52c-5.68-0.06-12.26-10.35-12.31-9.81c1.82-21.03-1.48-18.73,7.61-20.32
	c2.93-0.51,2.46,4.79,5.22,6.51l15.08-8.97c-1.33-7.58-3.94-14.17,0.49-18.45L55.7,1345.64z"/>
<path class="st0" d="M20.63,1253.59c5.02,14.52,12.11,28.57,15.8,43.53c-6.38,3.61-17.74-20.43-17.03-16.95
	c-0.58-2.81,4.01-5.47,2.58-8.3l-4.94-9.73C15.42,1258.94,16.97,1255.09,20.63,1253.59z"/>
<path class="st0" d="M87.75,1251.37c1.93,5.68,4.58,11.09,6.05,16.89l0.35,2.82c-2.68-0.45-1.43,1.14,3.76,4.77
	c3.16,5.83,8.24,10.27,12.65,15.1c-3.24,0.66-6.55,0.54-9.83,0.79c-0.78,1.06-1.54,1.05-2.3-0.02c-0.57-4.56-4.37-5.77-8.74-6.05
	c-2.51-0.16-17.1,14.32-16.82,12.46c-1.91,12.68,12.02,12.03,17.19,35.11c-2.7,1.44-5.55,5.63-8.98,5.77l-21.4-1.92l-9.18-43.46
	l1.49-2.33c3.14-0.86,5.31-22.62,4.96-23.81c-1.17-3.91-7.85-7.43-11.86-5.87l-1.96-1.81l-5.79-19.87
	c-2.01-6.91-2.6-14.24-4.58-21.24c9.69,0.92,20.27,0.31,30.6,2.32c11.12,2.16,14.37,20.11,13.91,29.85
	C81.23,1254.35,84.44,1250.12,87.75,1251.37z"/>
<path class="st6" d="M696.62,1314.49c2.91-32.82-2.45-63.07-2.62-94.46c-0.09-16.3,10.21-30.85,12.9-45.95
	c10.55,33.8,17.27,66.3,23.72,101.21C720.96,1288.7,714.37,1303.69,696.62,1314.49z"/>
<path class="st12" d="M569.35,1225.84c2.49-2.63,8.44-0.26,9.29,3.34c8.61,7.22,11.16,17.94,5.59,27.2
	c-4.75,7.89-15.53,11.49-25.07,7.65c-8.56-3.44-13.41-13.63-10.86-23.56C550.66,1231.26,559.44,1226.07,569.35,1225.84z"/>
<path class="st6" d="M788.45,1215.42c-6.12,0.81-15.74,6.42-18.64,12.68l-14.57,13.95c10.61-18.45,17.04-38,30.6-55.62
	L788.45,1215.42z"/>
<path class="st12" d="M796.74,1317.13c-0.02,2.41-2.41,4.17-4.03,4.48c-5.74,1.11-5.09-37.21-4.93-43.12
	c0.09-3.39,9.24-3.54,9.22-0.67L796.74,1317.13z"/>
<path class="st12" d="M682.07,1220.44c-11.5,8.8-8.94-36.19-8.25-37.92c0.8-1.99,8.1-1.75,8.27,0.65
	C682.95,1195.35,683.14,1207.75,682.07,1220.44z"/>
<path class="st12" d="M570.04,1279.78c1.14,45.48-6.72,26.49-6.73,26.2l-0.56-27.06c-0.03-1.47,2.75-2.11,3.68-1.9
	C567.57,1277.28,569.99,1277.69,570.04,1279.78z"/>
<path class="st2" d="M578.64,1229.17c-2.6-1.26-6.16-1.5-9.29-3.34c0.27-7.39,0.33-14.83,2.48-22.67
	C577.07,1211.5,577.1,1220.5,578.64,1229.17z"/>
<path class="st8" d="M198.98,1187.28l24.82,149.52c-1.66,2.84-4.7,2.05-5.95-0.97c-22.43-45.87-35.71-97.92-42.24-148.71
	L198.98,1187.28z"/>
<path class="st13" d="M223.8,1336.8c2.02,0.93,5.74,1.19,4.52,4.15c-0.6,1.47-3.3,3.53-2.6,7.16
	c-21.67,13.51-43.93,65.35-73.14,85.48c-0.94-40.02,25.53-77.13,60.11-91.78c3.64-1.54,5.78-2.34,5.15-5.99
	C219.84,1335.98,221.96,1335.95,223.8,1336.8z"/>
<path class="st15" d="M98.43,1291.72c0.75,0.05,1.55,0.08,2.3,0.02c20.49,7.28,36.84,22.27,31.92,46.72
	c-12.85-2.58-25.92-6.03-36.61-12.96c-4.76-3.54-7.8-7.89-9.13-13.03c0.37-1.44-1.14-3.26-1.25-4.65c-2.1-2.48-1.56-5.48,0.03-8.21
	c1.39-2.52,2.15-5.8,4.19-6.82C93.05,1291.19,95.75,1291.56,98.43,1291.72z"/>
<path class="st15" d="M169.25,1321.93c-4.74-5.78-8.99-9.6-14.49-13.2c-19.92-13.04-5.86-32.56-7.47-52.54
	c14.33,3.44,26.64,14.56,29.06,29.5C178.41,1298.45,174.58,1310.65,169.25,1321.93z"/>
<path class="st10" d="M128.07,1397.17c-2.1-8.15-8.89-13.41-11.83-19.96c-3.73-8.34-9.94-15.5-8.91-24.44
	c15.23,11.73,19.94,29.67,31.33,45.24c8.25-22.9,7.58-46.64,18.34-68.92c5.5,7.95,0.75,18.56-1.79,27.74
	c-6.81,24.64-13.04,47.82-11.87,73.16C138.66,1417.22,135.61,1406.29,128.07,1397.17z"/>
<path class="st12" d="M110.19,1186.01c0.07,3.22-2.25,4.09-4.83,5.39c-3.25-9.56-7.59-33.42-3.42-36.38
	c1.91-1.36,7.48-2.53,7.58,1.92L110.19,1186.01z"/>
<path class="st3" d="M96.04,1325.5c-5.15-3.34-10.83-6.39-9.13-13.03L96.04,1325.5z"/>
<path class="st3" d="M85.67,1307.82c-2.01-0.55-2.44-2.17-2.59-3.98c-0.17-2.14,1.82-2.8,2.61-4.23
	C85.48,1302.34,85.48,1305.09,85.67,1307.82z"/>
<path class="st12" d="M418.11,1216.45c-0.91,13.94,1.86,30.68-2.84,31.87c-6.62,1.68-3.83-16.03-7.06-29.89
	c-0.7-3.01,1.85-5.37,4.27-5.94C414.27,1212.07,418.3,1213.46,418.11,1216.45z"/>
<path class="st12" d="M251.89,1189.64c1.05,0.6,1.54,1,2.13,1.17l1.44,3.33c-0.16,2.67-0.09,4.37-0.01,6.05
	c-0.74,7.67,7.02,37.41-1.76,37.98c-8.12,0.53-3.21-18.37-6.43-20.59c2.71-10.35-4.5-20.34,1.17-28.12
	C249.43,1188.54,251.24,1188.5,251.89,1189.64z"/>
<path class="st6" d="M100.54,1392.73c-1.05,0.09-1.64-1.26-2.41-1.61c-0.19-3.47-0.2-7.31,4.19-5.82c2.03,0.69,5.48,0.47,8.4,2.19
	c2.21,1.3-0.34,5.46-2.51,5.78C105.83,1393.61,103.26,1392.49,100.54,1392.73z"/>
<path class="st6" d="M74.96,1382.89l-9.18-0.07c0.42-2.63-0.15-6.47,3.53-5.57C72.42,1378.01,75.58,1379.53,74.96,1382.89z"/>
<path class="st6" d="M93.8,1268.26l4.12,7.59c-4.58-0.17-9.87-3.12-9.7-7.91c2.21,0.01,2.79,0.99,3.75,1.12
	C92.56,1269.14,93.95,1269.61,93.8,1268.26z"/>
<path class="st8" d="M244.92,1175.63c-0.21,1.28-1.86,0.93-2.85,0.97c-0.84,0.04-1.26-1.09-1.84-1.35L244.92,1175.63z"/>
<path class="st6" d="M1076.82,1422.77c-4.6-7.46-8.86-15.16-13.92-22.35c3.64-0.81,5.87,1.5,8.61,4.19c1,0.89,2.86-0.7,2.86-1.64
	c0-1.54-0.94-3.07,1.37-5.56l12.08,21.32C1084.2,1420.31,1079.81,1420.09,1076.82,1422.77z"/>
<path class="st6" d="M50.51,1293.63l-7.37-33.82c4.7-1.86,9.11-0.6,12.29,2.15c5.85,5.06,3.79,6.63,2.66,13.25
	C57.01,1281.52,59.01,1294.58,50.51,1293.63z"/>
<g>
</g>
<g>
</g>
<g>
</g>
<g>
</g>
<g>
</g>
<g>
</g>
<g>
</g>
<g>
</g>
<g>
</g>
<g>
</g>
<g>
</g>
<g>
</g>
<g>
</g>
<g>
</g>
<g>
</g>
</svg>
