<?xml version="1.0" encoding="iso-8859-1"?>
<!-- Generator: Adobe Illustrator 30.2.1, SVG Export Plug-In . SVG Version: 9.03 Build 0)  -->
<svg version="1.1" id="Layer_1" xmlns="http://www.w3.org/2000/svg" xmlns:xlink="http://www.w3.org/1999/xlink" x="0px" y="0px"
	 viewBox="0 0 1200 1543" style="enable-background:new 0 0 1200 1543;" xml:space="preserve">
<style type="text/css">
	.st0{fill:#2C708C;}
	.st1{fill:#5D8589;}
	.st2{fill:#4095BB;}
	.st3{fill:#858B73;}
	.st4{fill:#80CEEF;}
	.st5{fill:#F8F9FB;}
	.st6{fill:#347E96;}
	.st7{fill:#D4E3ED;}
	.st8{fill:#6DB8C8;}
	.st9{fill:#ADDAED;}
	.st10{fill:#CDE1EC;}
	.st11{fill:#8EAFC1;}
	.st12{fill:#201C1B;}
	.st13{fill:#6497AE;}
	.st14{fill:#6E6854;}
	.st15{fill:#E05B2C;}
</style>
<path class="st0" d="M992.63,760.54c1.03,0.95,2.02,1.94,2.86,3.03c0.83,1.07,1.62,2.13,2.03,3.3
	c7.91,22.72,15.45,45.66,21.17,69.05c2.26,9.59,2.35,19.32,0.26,29.2l10.13,54.34l27.63,0.35c5.7-30.88,17.01-67.31,35.48-93.07
	c4.9-6.83,9.49-12.89,9.98-3.82c-4.25,32.97-10.55,65.78-19.34,97.82l53.39,1.78c9.23-25.09,21.16-49.13,36.05-71.39
	c2.7-3.29,4.2-2.44,6.48,0.38l-14.72,71.66l34.16,2.15l1.8,2.78v226.39l-5.64,0.04c-19.67-11-39.8-20.96-60.38-29.89
	c-71.54-33.61-136.72,10.45-194.41,53.7c-29.86,23.41-60.29,45.72-91.29,66.93c-33.21,16.92-67.01,32.8-101.39,47.62
	c-36.47,17.61-71,40.23-97.61,71.23l-6.23,3.25l-4.89,0.07c-11.16-6.67-23.6-10.71-36.23-13.63c-43.1-7.52-86.16-16.29-129.18-26.3
	c-39.87-10.34-73.89-20.39-98.11-54.88c-18.66-34.77-46.29-62-80.68-81.29l-3.4-5.04l1.12-2.86c8.73-2.08,17.31-2.37,25.74-0.87
	c-1.48-1.94-0.64-2.61,1.35-1.16c5.26-3.98,11.49-6.57,18.68-7.78c0,0,10.2-4.01,30.61-12.02c7.07-4.56,14.36-7.4,21.88-8.52
	l4.87,2.1c18.94,24.89,48.17,37.69,78.67,41.33c9.06,5.48,13-0.45,11.27-9.46c-3.62-18.85-18.65-32.73-35.18-41.24l-9.09-10.73
	l-26.71,11.52l-4.04-1.56c-3.26-1.94-2.4-3.35,1.37-2.77l5.65-4.25c13.52-6.19,26.33-13.73,38.41-22.62l4.21,0.56l1.69-3.1
	c15.98-10.42,31.39-21.67,46.23-33.78l6.26-2.13c0.65-3.71,2.53-5.57,5.02-8c10.38-10.11,40.92-25.6,55.24-27.17
	c1.73-0.19,3.4,0.79,4.89,1.67l-1.77,3.79c-13.95,5.04-27.13,11.5-39.54,19.39c-0.23,0.49-0.08,1.03,0.36,1.24
	c5.71,2.85,26.03,4.76,33.61,5.38c10.51,0.86,30.29,2.47,12.11-4.8c-7.55-7.12-4.93-13.02-1.01-20.99c0,0-0.41-1.34-1.22-4.02
	c0.53-1.56,1.5-2.73,2.83-3.67c3.64-2.55,21.02-3.1,26.52-3.11c12.87-0.02,31.28,1.64,43.82,4.3l3.4,3.09
	c4.24-4.23,12.62-0.03,17.55,2.51c14.22,7.32,23.1,21.89,29.83,35.87l21.19,50.83c9.19,20.87,21.4,41.19,40.5,54.38
	c2.51-12.06,3.15-21.14-1.02-33.23c0.37-15.55-2.06-30.3-7.29-44.25c-5.73-31.07,23.82-33.32,46.72-28.72
	c12.77-2.07,25.57-3.84,38.41-5.32c1.48,1.55,1.79-0.85,1.23-2.42c-5.12-14.3-44.92-26-59.88-27.95
	c-30.84-2.54-61.06-7.89-90.66-16.05c-6.96-4.14-14.08-6.72-21.37-7.74l-4.88-5.23c-14.54-7.77-30.06-13.37-46.56-16.81l-2.74-3.38
	c-7.58,2.65-20.5-0.36-26.88-5.19l-7.01,2.03c-18-0.71-35.96-0.96-53.87-0.73l-3.47-1.59c-13.37,4.94-29.92,6.32-43.98,3.96
	l-5.68,3.55c-18.79,3.95-37.3,8.75-55.55,14.41l-3.43-0.7c-0.71,0.97-1.45,1.9-2.31,2.7c-3.3,3.06-24.63,10.55-30.81,12.42
	c-2.17,0.66-4.49,0.36-6.69-0.02l-3.04,4.32c0,0-8.44,4.43-25.33,13.3c-12.01,10.16-25.07,17.85-39.19,23.08
	c-3.17,2.96-6.23,4.59-9.2,4.89c-1.61,4.32-3.37,5.13-5.28,2.44l-3.31,0.57c-11.99-15.21-45.55-12.1-36.93,11.68
	c-0.71,3.9-3.91,4.85-9.62,2.85c-7.74,0.78-15.47,2.21-23.2,4.3c0,0-4.31-1.24-12.92-3.72c-6.03,13.6-6.26,26.07-0.7,37.41
	c1.18,4.99,2.45,15.27-3.28,16.62l-2.42,1.68l-64.63-38.04c-12.78-6.03-26.86-8.48-40.89-9.74c-31.77-2.85-64.25,0.91-95.63,5.34
	L0,1102.23v-61.61c3.29-1.71,6.6-3.37,9.98-4.84c3.38-1.47,6.76-2.92,10.25-3.97c76.58-23.02,155.25-43.99,233.51-60.38
	c3.57-0.75,7.23-1.09,10.9-1.4c3.68-0.31,7.39-0.42,11.09-0.47l-0.13,5.26c-11.74,19.12-20.03,40.46-21.79,62.96
	c4.77-13,9.73-26.02,16.12-38.34c0.48-0.93,1.34-1.67,2.26-2.42c0.94-0.77,1.99-1.39,3.09-1.97l3.3,1.48
	c4.62,10.11,11.86,18.58,21.7,25.43c5.11,3.72,7.38,7.68,6.81,11.86c1.7,0.79,3.29-0.43,4.79-3.66c-3.75-1.56-2.25-4.92,1.67-4.42
	c-1.09-6.34,3.23-10.56,7.76-14.48c4.08-3.54,13.15-10.22,17.77-6.79l1,4.4c-4.59,11.56-6.53,24.16-5.51,36.53
	c17.06-12.08,35.31-22.06,54.75-29.92c-1.48-1.78-2.08-3.39-0.84-5.67c-0.37-1.95,0.66-3.32,3.1-4.11
	c1.29-1.81-3.47-39.71-5.11-44.02c-0.45-1.19-1.72-1.25-2.87-1.02c-4.32,2.17-7.61,2.49-9.86,0.95c-7.99,5.86-16.21,9.11-24.64,9.75
	c-6.4-0.12-19.51-7.79-14.09-14.02c9-3.57,13.5-5.36,13.5-5.36c67.63-11.09,135.53-20.25,203.7-27.49c0,0,4.78,0.27,14.33,0.8
	l3.16-0.77c24.78,15.21,68.95,17.79,91.16-3.03l3.3-0.11c5.57-3.41,16.29-3.51,21.75,0.12l1.71,0.66
	c8.31,18.7,51.25,17.62,63.14,3.22c0.04-2.37,1.01-3.76,2.93-4.18c2.93-0.82,5.86-1.58,8.84-2.14c2.97-0.56,5.92-1.11,8.87-1.2
	c79.76-2.5,162.39-1.68,242.17,1.23c7.66,1.57,10.36,2.07,6.02-0.24c-1.47-17.3-4.97-33.94-10.48-49.9
	c-16.68-29.64-26.99-67.39-24.99-101.69c0.05-0.92,0.47-1.82,0.94-2.74c0.5-0.97,1.16-1.85,1.86-2.71c-4.32-0.89-2.86-13.63,0-14.12
	C989.95,747.16,996.83,758.75,992.63,760.54z"/>
<path class="st1" d="M1200,1154.5v388.36h-162.17l0.61-8.25c12.94-31.99,21.3-65.98,24.65-100.26
	c-15.4,36.31-33.15,72.93-57.85,103.9c-0.82,1.03-1.97,1.82-3.17,2.59c-1.22,0.79-2.55,1.43-3.91,2.01h-9l-2.39-1.73l11.12-55.9
	l-10.49,51.67c0,0-1.36,1.99-4.08,5.96h-99.46c-2.33-7.15-2.24-14.9,0.27-23.26c12.19-51.37,25.34-101.97,39.47-151.8
	c-33.21,51.83-64.52,107.3-73.87,168.97l-3.46,6.09H572.63l-3.68-1.47c-11.97-32.36,4.89-69.49,20.15-98.38
	c5.26-9.95,45.32-75.37,51.79-75.79c0.71-0.05,1.43,0.05,2.16,0.18c65.18-79.79,162.52-93.36,219.18-134.34
	c48.73-35.24,94.21-74.54,146.82-103.1C1084.66,1088.92,1131.62,1118.35,1200,1154.5z"/>
<path class="st2" d="M869.33,510.33c5.66-0.57,11.37-0.99,17.05-0.45c98.57,10.68,197.47,16.61,296.71,17.77
	c0,0,5.64,1.06,16.91,3.17v198.14l-9.74,2.82c-42.86,5.72-85.65,11.98-128.38,18.79c-22.92,5.03-46.01,8.35-69.25,9.96
	c-1.26-3.92-4.35-7.39-4.93-12.13c-0.64,5.21-0.63,9.18-0.77,13.38c-6.92,2.69-13.93,5.24-21.19,6.86
	c-79.89,17.83-157.63,35.61-236.43,58.32c-91.22,26.28-181.69,56.78-270.94,87.69c-41.77,14.06-84.48,20.59-128.17,22.11
	c-27.23,0.95-53.58,0.86-80.7-4.2c-1.49-0.28-2.91-0.93-4.34-1.64c-1.46-0.72-2.83-1.62-4.18-2.57l-1.43-8.1
	c6.76-41.05,1.35-81.97-4.71-122.43c-0.99-10.27-3.05-43.96,2.24-50.84c0.64-0.84,1.43-1.56,2.26-2.25c-0.96-1.08-1.78-2.32-1.9-3.8
	c-0.92-11.75,19.8-39.46,33.1-40.6c0.36-1.08,0.76-2.14,1.31-3.1c4.27-7.42,40.82-26.68,50.93-31.33
	c8.89-4.09,35.74-15.52,43.68-13.59c1.1,0.27,2.15,0.72,3.19,1.22c1.68-1.54,3.52-3.12,5.79-3.66c19.67-4.71,61.88-2.96,80.98,3.64
	c2.21,0.76,3.88,2.52,5.4,4.23l0.59-1.69c17.82,4,35.78,8.82,53.87,14.47l0.77,3.01l4.82-1.39c11.03,3.61,22.26,6.41,33.68,8.41
	c8.36,4.81-6.53,7.42-10.8,7.58c-10.44,3.03-15.66,4.55-15.66,4.55c-4.27,2.13-8.17,4.25-6.76,9.65
	c3.65,13.98,49.5,13.69,61.17,9.97c7.01-2.84,10.42-1.8,10.22,3.12c-10.14,13.69-19.93,27.66-25.89,43.76
	c-7.78,1.77-15.53,3.52-23.27,5.25c-13.25,8.37-7.47,15.28,17.34,20.72l1.55,2.61c3.71,20.19,10.64,17.04,25.01,8.21
	c30.48-18.75,56.38-37.33,72.83-70.52c9.37-0.58,18.68-1.75,27.92-3.51c12.8-1.76,20.21-7.27,22.23-16.53
	c-1.26-4.09-1.72-8.22,3.86-8.36c46.71,0.25,92.72-5.69,136.05-23.65l2.85,2.61c1.06,7.54,1.61,6.24,1.65-3.9
	c21.21-14.8,31.76-39.33,15.09-61.88l0.47-3.7c-1.92-2.38-2.25-5.65-0.98-9.8c-1.5,4.15-3.8,7.22-8.17,4.99
	c-10.54-9.26-21.76-17.5-33.67-24.73l-2.09-4.01l-3.33,0.56c-4.7-3.43-9.71-6.38-15.03-8.84l-0.59-3.41l-5.28,0.12l-16.47-7.17
	c-28.45-7.46-57.17-13.89-86.17-19.29c0,0-1.97-1.51-5.9-4.52c-0.52,0.94-1.21,1.94-2.23,2.11c-1.11,0.18-20.65-5.13-19.41-8.89
	c-3.46-1.02-3.28-1.62,0.25-2.43c0.06-1.15,0.64-2.82,1.41-2.71c5.19,1.81,10.19,2.54,15.01,2.17c0.02-1.07,0.27-2.69,1.02-2.78
	c23.97-2.92,50.07-4.78,74.35-6.39c7.41-1.61,14.33-1.31,20.76,0.9c1.95-2.91,5.32-3.87,10.12-2.87
	c20.14,3.65,40.02,4.78,59.66,3.42C859.99,510.6,864.87,509.72,869.33,510.33z"/>
<path class="st3" d="M207.2,1145.15l6.33-0.69c4.87,5.69,10.56,10.21,17.06,13.55c4.99,1,8.49,2.96,10.5,5.88l3.1,1.09
	c5.46,9.31,13.91,16.37,25.36,21.17c5.24-3.87,16.48-4.34,21,0.17c32.69,18.42,61.25,41.45,80.25,75.15
	c14.89,26.4,36.08,42.4,65.04,52.24c46.63,15.85,94.63,24.19,143.44,32.9c22.82,4.07,45.29,8.41,63.77,20.78
	c-28.08,34.38-94.86,129.12-70.41,175.46H0v-440.62c38.41-5.95,110.64-14.27,145.84,6.57L207.2,1145.15z"/>
<path class="st4" d="M488.45,265.61c33.62-8.46,68.74-9.03,103.29-9.36c95.21-0.93,190,11.5,283.83,26.78
	c105.95,19,211.98,37.22,318.09,54.68l6.34,2.65v153.12l-0.82,2.72c-108.21,5.07-216.41,9.36-324.61,12.87l-1.01-1.74
	c-1.39-2.2-0.39-4.95,3-8.26c1.99-16.48-28.67-20.86-40.93-21.9c-18.64-1.58-56.93-1.27-63.99,19.79l-2.73,1.44l-1.29,2.53
	c-30.98-4.28-61.99-8.57-93.02-12.85l-5.04-3.4l-5.3-2c-16.95-19.34-36.94-36.34-59.86-48.19c-0.45-0.23-4.68,7.14-5.36,8.41
	c-4.46,8.47-5.22,17.95-5.07,27.38l-2.64,2.24c-3.18,4.17-12.43,2.44-13.98-2.55c-2.13-1.19-3.2-3.47-3.22-6.85
	c-15.93-27.41-66.14-23.38-91.11-10.74c-2.71,2.73-5.29,3.62-7.74,2.65c-1.49,3.76-9.77,0.44-9.16-3.57l-1-2.86
	c25.77-20.31-10.99-31.18-28.74-33.99c-28.67-4.54-74.29-4.91-95.94,16.56l-3.08,0.07c-4.78-0.07-9.56-0.2-14.33-0.51
	c-4.76-0.31-9.51-0.66-14.2-1.37c-89-13.59-177.95-27.57-266.72-42.54c0,0-9.12-2.52-27.35-7.57l6.64-2.25
	c91.57-8.52,183.07-21.81,270.79-50.61l171.9-57.85l12.68-1.45C476.79,262.94,487,261.77,488.45,265.61z"/>
<path class="st5" d="M0,140.62V0h1200v116.58l-3.19,3.8c-46.63,19.29-97.26,14.05-145.99,7.4
	c-71.54-15.14-140.87-16.64-215.64-12.36c-43.6,2.5-87.31,5.27-130.66,9.74c-14.02,0.88-59.93,1.11-69.02-7.53
	c-0.78-0.74-1.42-1.61-2.03-2.52c-9.81-0.82-7.22-13.54,0.08-17.97l12.53-7.79c9.64-3.8-3.47-9.52-8.63-10.05
	c-115.54-11.86-230.32-6.52-345.58,8.17c-59.13,6.08-119.6,8.16-177.36,6.44c-7.79,0.09-15.56,0.48-23.24,1.56
	c-37.18,5.26,1.05,19.73,14.69,24.18c17.74,9.88-5.68,16.58-15.54,18.37c-26.01,4.73-61.19,4.97-87.76,4.94L0,140.62z"/>
<path class="st6" d="M986.93,761.79c-1.15,34.63,4.82,70.62,22.35,101.56c9.63,16.99,9.75,38.39,13.59,58.48
	c-91.5-0.88-180.18-4.44-269.16-0.65l-3.79,0.43c-17.64-12.08-42.78-12.52-60.2,0.18l-3.8-0.3c-7.26,0.49-14.51,0.66-21.75-0.12
	l-2.75-1.12c-9.61-20.57-51.11-19.13-70.36-15.24c-8.76,1.77-25.16,6.5-22.49,17.97l-2.02,2.32
	c-76.85,10.48-154.62,16.48-231.53,32.05l-2.96-0.85l-2.52-10.21c-10.38,23.03-13.69,48.28-14.87,73.28l-2.45,4.91
	c-1.19,0.64-2.93,0.96-3.54-0.04c-1.2-1.98-1.76-3.56-2.27-5.78c-0.22-0.97-0.42-18.84-0.27-19.82l1.94-2.22l-1.41-4.6
	c2.77-8.88,5.08-17.88,6.92-27.01c-5.93-0.52-11.36,0.53-16.26,3.15l-2.75-1.14c-0.39,3.93-2.54,5.81-6.1,3.9
	c-3.98-1.15-4.93-5.03-2.85-11.63l-6.61,10.11l-3.29,0.18C182.78,988.6,90.89,1013.38,0,1040.62V878.57
	c8.64,0.04,12.96,0.06,12.96,0.06c59.51,14.81,119.42,27.21,179.5,39.29c4.25,0.86,8.23,2.69,12.1,4.59
	c3.06,0.33,4.37,3.03,3.95,8.1l3.81,0.89c9.96,16.39,14.93,24.58,14.93,24.58c5.72-6.95,8.89-15.47,9.51-25.56l3-1.01
	c-1.97-1.72-1.18-2.46,1.21-1.14c79.06,14.77,157.46,4.79,233.92-22.04C642.48,847.5,813.08,794.83,986.93,761.79z"/>
<path class="st7" d="M633.48,115.11c-0.81,2.36-2.82,4.44-6.03,6.23c-3.11,5.31-6.91,8.63-11.42,9.95l-2.97,2.77
	c-12.21-0.62-23.67-4.58-34.38-11.87c-12.82-2.89-26.07-4-39.73-3.33c-42.4-5.66-85.37-11.38-128.26-8.73
	c-18.16,5.02-36.84,7.74-56.04,8.14c-9.82,1.16-19.74,2.56-28.9,6.28c-30.97,12.59,33.6,28.71,42.46,30.48
	c2.59,2.04,3.26,3.04,1.38,5.67c-6.77,1.69-12.68,4.31-17.74,7.87c9.59,9.78,23.17,11.18,35.99,9.54
	c23.85-5.46,46.92-10.66,72.3-9.31c43.05,1.56,85.83-0.1,128.35-4.98c16.52,1.51,32.9,1.27,49.13-0.7l3.95,1.74
	c20.6,4.81,21.71,23.77-0.94,27.97c-64.52,11.98-128.27,14.48-193.42,13.1c-12.18,0.36-27.24,4.03-34.51,13.98l12.35,11.54
	c12.88,14.44,6.69,25.2-11,30.78l-1.22,2.69c-28.07,0.31-56.14,0.61-84.23,0.92l-1.64-2.66c-4.64-1.77-9.77-2.09-15.39-0.96
	l-78.15-2.15l-1.55-2.72l-2.06-2.36c2.8-16.09-24.5-19.53-36.1-20.92c-22.38-2.67-44.93-1.11-66.97,0.73
	c-4.46-13.33-27.35-15.03-40.01-15.12c-18.52-0.13-36.37,5.41-52.7,13.79c-12.93,2.41-18.63,9.13-11.5,20.83l-1.28,2.92
	c-2.53,6.03-16.62,8.45-21.25,3.95V140.62c16.42-2.91,104.23,2.17,110.47-14.97c-5.96-6.79-41.27-12.24-37.61-24.3
	c4.31-14.21,65.54-9.36,81.36-9.34c75.27,0.14,149.18-8.14,224.08-16.1c84.87-9.03,170.22-6.99,254.67-0.01
	c8.14,0.67,16.37,4.09,20.59,9.45c-3.85,9.02-25.24,12.32-23.75,23.61C630.08,111.02,632.04,113.02,633.48,115.11z"/>
<path class="st8" d="M14.77,379.24c106.42,19.22,214.91,34.44,322.6,51.99c2.83,7.19,5.33,13.04,12.66,16.84
	c34.59,15.68,74.57,14.99,110.2,2.69l5.91,0.68l9.16,3.57l1.35,3.17c-3.9,8.9,1.25,15.67,9.06,20.25
	c23.24,13.65,69.36,13.12,88.24-8.23l3.43-0.26c4.53,1.46,9.22,2.38,13.98,2.55c0.65,0.05,1.27,0.15,1.8,0.43
	c1.04,0.55,8.63,18.82,9.11,21.56c1.03,5.8,0.71,11.03-1.78,16.51c23.44,0.06,46.38,2.65,68.84,7.77l3.03,2.45l-0.25,2.43
	l-2.37,2.15c-5.99-0.47-11.99-0.29-18.02,0.54l-1.99-2.65c-3.87-2.02-10.75-2.75-13.56,0.25c-0.1,8.1-14.17,2.1-15.25-3.2l-5.41,1.7
	c-25.53-4.18-51.48-1.73-77.06,0.84l-5.39-2.15c-4.77,2.3-7.15,3.44-7.15,3.44c-33.33,4.21-66.27,10.62-98.81,19.22
	c0.26,4.04-7.74,5.3-9.23,1.59c-25.2,7.2-50.99,11.9-77.34,14.1C230.09,571.09,119.55,581.28,8.9,590.06L0,589.29V379.02
	C3.58,375.57,11.35,375.6,14.77,379.24z"/>
<path class="st2" d="M417.86,545.37c0.31,1,0.66,2.54,0.01,2.94c-2.07,1.24-21.38,10.32-22.62,10.23c-1.17-0.08-2.1-0.81-2.87-1.64
	c-3.01,3.32-4.52,4.98-4.52,4.98C351.6,578.23,314.68,595,284.84,621.9l-6.27,2.22l-1.56,5.23c-18.15,15.39-33.91,32.7-47.27,51.92
	l-4.71,2.78c0.23,2.31,0.1,4.61-0.79,6.77c-3.72,8.99-14.89,22.31-21.58,30.05c-7.83,9.05-19.15,21.17-29.01,27.61
	c-1.94,1.27-4.34,1.52-6.6,1.68l0.62,2.88l-62.84,46.8c-14.06,13.07-41.82,42.31-43.18,61.61c-0.24,3.33,0.14,6.44,3.13,8.47
	c15.33-7.15,31.13-13.27,47.4-18.35c9.7-4.68,18.49-10.7,26.39-18.06c28.35-16.2,55.82,10.44,50.78,40.23
	c1.89,6.89,5.46,13.64,10.7,20.26c3.89,7.65,9.96,21.5,4.53,28.54C135.53,912.35,68.19,893.01,0,878.57V589.29
	C139.12,573.05,280.42,569.02,417.86,545.37z"/>
<path class="st9" d="M1200,146.39v193.96c-236.7-31.23-480.96-103.8-711.55-74.75c1.06-1.08,2.15-2.12,3.36-3.01
	c1.18-0.87,2.35-1.7,3.64-2.17c35.4-12.89,71.45-25.76,107.43-36.93c41.82-12.98,82.53-23.21,126.4-26.03
	c1.34-0.09,2.73,0.29,4.15,0.68c1.43,0.4,2.82,0.99,4.18,1.63l1,1.59c-3.37,5.65-2.68,9.69,2.07,12.12
	c12.4,5.01,25.44,8.32,39.14,9.95c40.01,17.1,83.99,12.76,124.43-0.53c15.99-1.22,31.67-3.86,47.04-7.92
	c14.37-5.82,10.41-13.8-1.94-18.23l-0.87-3.23c1.45-3.87,2.77-7.86,3.94-11.96c-1.35-6.1-6.02-9.77-14.03-11.01l-0.88-3.03
	c2.5-1.07,5.02-2.09,7.6-2.91c2.57-0.82,5.13-1.6,7.74-1.98c75.72-10.85,154.6-14.6,231.07-18.08c2.65-0.12,5.33,0.16,8.02,0.47
	C1194.64,145.34,1197.32,145.84,1200,146.39z"/>
<path class="st10" d="M1200,116.58v29.81c-87.59,4.72-176.27,8.29-262.49,21.14c-5.17,5.7-8.78-2.47-8-8.2
	c-3.23-9.33-36.03-9.53-44.56-8.71c-38.46,1.33-76.83,4.67-115.11,10.02c-7.38,1.47-31.36,6.48-32.79,15.25
	c-1.04,6.38,10.35,12.02,15.71,12.81l1.04,2.93c5.06,5.05-9.48,11.31-13.19,6.94l-1.35,1.16c0.33,2.6-0.76,2.62-1.67,0.05
	c-84.6,2.67-168.03,38.78-249.16,65.83l-11.66,1.47c-13.81,1.53-27.81,1.08-42.03-1.35c-7.65,0.45-14.56-0.72-20.72-3.5
	c-1.08-4.14,12.67-5.2,14.72-13.98c3.08-13.23-13.62-18.96-19.86-29.01c12.88-14.98,31.56-16.45,50.55-16.16
	c61.17,0.92,120.9-0.61,180.61-12.85c7.02-1.44,16.22-5.84,14.54-12.87c-1.73-7.23-11.05-6.77-13.04-12.48l1.54-3.15
	c15.16-2.8,23.24-8.08,2.15-12.39c-7.62-8.49-16.6-13.56-26.94-15.22l-2.28-2.81c5.48-5.75,9.41-15.22,17.45-16.18
	c23.65,7.81,50.07,9.49,76.51,6.89c61.38-6.02,121.31-9.84,183.25-11.43c117.4-3.02,142.28,22.02,245.1,20.34
	C1160.51,130.55,1179.98,122.71,1200,116.58z"/>
<path class="st6" d="M1200,728.96V928.1l-39.28-2.05l15.67-76.28c-15.86,23.85-29.16,48.51-37.82,75.51l-59.26-1.97
	c10.06-34.74,15.5-68.31,21.17-104.32c-21.43,31.28-35.49,65.88-41.86,103.52l-31.94-0.4l-10.28-55.94
	c-1.24-6.78,3.14-13.29,1.32-22.16c-5.91-28.82-16.21-55.94-25.09-83.47C1061.26,747.01,1130.42,736.13,1200,728.96z"/>
<path class="st9" d="M414.04,262.23c20.85-0.23,42.01,3.39,62.74,4.85l-170.71,57.55c-95.72,32.27-191.83,47.86-291.31,54.61
	c-4.92,0.33-9.87,0.39-14.77-0.22v-50.89c11.3-5.24,23.67-8.15,37.11-8.72c76.6-6.42,152.83-11.49,228.68-15.22
	c7.19-0.72,9-5.75,5.45-15.07c-3.14-18.79,43.04-31.27,53.88-27.22c0.74,0.28,1.4,0.58,1.84,1.28L414.04,262.23z"/>
<path class="st8" d="M1200,493.48v37.34c-110.36-3.25-222.17-5.47-330.67-20.49c-3.5-3.03,1.34-6.17,4.23-3.01L1200,493.48z"/>
<path class="st10" d="M21.25,257.21c1.81-3.62,8.18,0.84,6.65,4.41l2.26,2.08c-3.68,4.34-7.09,8.74-10.23,13.18
	c-0.68,4.87,20.47,12.72,24.58,14.23c43.23,15.89,86.7,10.66,131.78,2.72c9.26-0.21,59.12-5.26,60.06-14.03
	c-2.76-4.86-5.98-9.54-9.64-14.05l1.09-3.05c-3.13-2.5,0.67-7.02,4.06-5.37l90.82,2.5c2.4,0.07,3.86,1.74,4.27,3.33
	c-10.27,0.11-59.83,6.33-52.29,29.95c1.02,3.18,1.42,7.55-0.5,10.03c-1.66,2.14-6.43,3.73-10.32,3.95l-164.38,9.47
	C65.4,318.55,32.7,321.63,0,328.12v-66.96C7.28,260.98,14.47,259.91,21.25,257.21z"/>
<path class="st3" d="M989.16,1542.86h-5.84c5.82-24.96,9.03-50.63,16.67-75.81c2.73-9.01,4.41-15.71-1.53-24.49
	c-0.43-34.16,8.37-66.12,17.4-98.78c15.06-54.45,40.77-104.73,82.77-144.5c-27.28,76.39-49.37,151.23-70.39,227.51
	c-3.76,13.66-10.74,24.82-21.94,29.84L989.16,1542.86z"/>
<path class="st3" d="M883.87,1542.86h-37.58c7.26-66.76,46.99-134.14,84.46-191.12l-29.08,107.25
	C894,1487.21,886.07,1514.28,883.87,1542.86z"/>
<path class="st3" d="M1037.83,1542.86h-39.67c31.24-38.26,51.6-81.29,70.09-128.42C1064.29,1460.04,1055.33,1503.34,1037.83,1542.86
	z"/>
<path class="st11" d="M657.82,1044.11c-2.98-2.5-2.52-6.19,1.38-11.06c2.37-3.72,9.64-12.38,13.82-11.04
	c5.09-5.96,14.71,2.39,20.16,4.44c52.1,19.66,106.18,6.18,149.31,39.43c3.6,2.78,7.3,8.46,3.92,13.06
	c-15.3-0.99-32.81,6.8-47.76,5.01c-14.75-1.77-24.99-4.75-34.33,7.45c-9.05,11.82-1.23,20.49,1.83,33.69
	c3.01,12.99-0.3,26.55,5.34,41.08c2.21,5.69-3.12,16.96-1.39,26.8C706.04,1154.49,718.11,1050.79,657.82,1044.11z"/>
<path class="st12" d="M379.18,1027.42c2.91-0.32,4.23,1.79,3.97,6.34c1.16,5.55,0.28,9.68-2.65,12.4l3.05,5.75
	c10.91,5.66,13.35,15.22,11.92,26.83c15.04,9.93,30.8,32.91,25.4,51.75c-1.73,6.05-3.73,9.24-9.76,11.83
	c-0.72,0.76-1.11,1.77-1.37,2.77c1.37,3.32,0.3,3.51-2.47,1.39c-1.09-0.47-2.07-0.09-2.94,1.16c-0.14,1.15-0.53,1.13-1.16,0.07
	l-4.17,1.34c0.74,3.81-2.31,3.9-3.54,0.46c-0.6,1.21-1.35,0.83-1.99-0.38l-2.9-1.05c-4.3-8.03-12.63-12.21-24.98-12.56
	c-7.2-3.93-14.4-5.7-21.61-5.31c-11.31,5.7-28,10.46-39.81,3.74c-3.34-1.9-8.69-5.31-5.66-9.07c-1.2,0.01-2.54-0.04-3.44-0.83
	c-4.39-3.87-2.14-20.94-1.15-26.54c1.35-7.66,3.6-18.94,8.52-24.49c5.51-9.93,21.05-10.56,28.36-16.75
	C346.09,1043.3,361.71,1035.24,379.18,1027.42z"/>
<path class="st12" d="M483.64,995.07c5.7,1.34,1.32,8.84-1.12,12.65c-8.69,7.57-12.28,15.4-10.77,23.49l-1.76,2.64
	c1.2,0.46,1.21,0.97,0.05,1.53l-3.18,4.63l-17.03,10.48l20.37-8.99l2.53,1.81l1.6-1.34c0.02-3.57,1.21-3.45,2.34-0.1l1.35-1.15
	c0.33-1.19,0.77-1.19,1.34-0.06l10.85-3.08l1.24,1.2c30.66-12.2,30.63,18.78,22.11,38.22c-16.19,15.43-34.95,27.46-54.18,39.01
	c-1.9,0.81-2.81,0.7-4.37,0.22c-9.32-2.83-14.13-22.98-12.18-31.61l-1.3-3.78c-5.92-2.72-12.62-3.95-20.11-3.7
	c-7.76-3.57-14.89-14.63-8.9-21.79c-5.16-1.84-0.81-7.66,1.83-10.97c12.16-9.87,12.29-15.46,3.14-28.65l1.49-3.39
	C439.87,1005.05,461.13,998.02,483.64,995.07z"/>
<path class="st7" d="M250.75,1131.63l4.69-4.37c11.17-2.4,22.54-2.73,34.11-1c3.5-1.34,6.49-1.8,8.95-1.4
	c8.06,13.99,30.28,10.13,40.82,4.37c11.6-6.35,20.39,3.01,30.52,4.52c10.89,1.63,22.21,4.16,23.62,15.37c0.99,0.17,1,0.59,0.15,1.23
	c1.02,3.5-0.49,4.94-3.68,2.78c-22.35,13.04-45.78,22.66-71.17,28.31l-1.51-2.8c9.08-14.61-18.22-3.32,0.07,0.66l0.09,3.3
	l-26.86,3.73c-5.88,0.82-13.49-2.12-19,1.43c-1.07,1.06,2.49,5.6,1.45,7.44c-2.04,3.6-6.71-8.42-5.39-7.76
	c-10.07-5.07-23.45-10.8-26.52-23.54l-3.05-1.84l0.38-16.62c-1.61-3.21-2-5.98-1.17-8.3c-2.9-1.42-4.23-4.77-3.99-10.05
	c-2.35-6.07-1.15-8.71,3.59-7.93l8.55,16.47C246.47,1132.36,248.25,1131.03,250.75,1131.63z"/>
<path class="st11" d="M389.93,1153.12c1.29-0.75,2.17-2.29,3.68-2.78l1.84-0.85l3.54-0.46l4.17-1.34c0.37-0.08,0.78-0.1,1.16-0.07
	c0.34-1.43,1.69-2.06,2.94-1.16c0.79-0.35,1.68-1.17,2.47-1.39c10.69-2.94,20.66-9.24,31.53-12.89c4.67,4.04,6.98,10.53,12.53,13.22
	c28.57,13.87,41.14,47.08,29.74,55.11c-3.9,2.74-7.67-1.03-11.47-1.51C438.31,1194.7,409.2,1180.53,389.93,1153.12z"/>
<path class="st10" d="M618.84,996.59c6.73,4.35,6.71,18.54,2.01,24.87c-6.57,4.02-14.36,5.96-23.36,5.83
	c-8.16,1.88-12.79,6.2-15.34,14.04l-3.43,2.16c-23.48,4.72-47.41,16.59-65.15,33.5c-0.38-11.2,5.31-24.32-0.92-34.82
	c-4.22-7.11-14.71-1.26-21.19-3.41c0.19-1.03,0.46-1.89,1.02-2.17c12.68-6.34,27.92-9.42,41.91-11.1l3.02-3.56
	c9.44-2.83,19.03-4.96,28.78-6.38c0.7-1.51,1.79-2.92,3.27-4.23c1.33-2.71,2.42-3.95,3.69-1.16c6.01-0.24,11.97,0.09,17.89,0.97
	l0.94,1.36c4.14,1.39,5.03,0.94,2.68-1.34c-8.13-0.46-16.3-1.01-24.5-1.64c2.64-8.6,12.67-16.87,21.83-18.12
	C601.05,992.39,609.94,994.75,618.84,996.59z"/>
<path class="st13" d="M297.15,1075.44l-1.06,3.52c-8.17,4.45-15.05,11-20.29,18.65l-3.72,0.83l1.15,1.46
	c-1.85,3.01-4.69,5.55-8.53,7.63c0.09,3.7-1.06,4.18-3.59,1.45l-2.65,2.22c-15.8-1.64-45.15,1.63-27.41,23.21
	c3.11-0.17,5.17,0.74,6.18,2.72c7.58,7.62,1.52,17.1,3.84,26.75c-11.08-1.6-22.04-7.94-28.22-17.23c-2,0.98-3.27,1.21-4.23,0.69
	c-0.68-0.38-1.12-1.38-1.45-2.19c7.14-29.15-13.53-8.04,2.85-59.41c19.42,15.96,23.33-3.76,44.42,3.78
	c-0.55-5.11-3.07-9.95-1.76-13.77c0.96-2.79,4.97-6.26,8.25-8.33C274.07,1059.15,286.96,1065.62,297.15,1075.44z"/>
<path class="st7" d="M664.18,921.36c-14.14,23.49-79.23,21.62-97.62,3.92C553.51,893.34,664.07,891.52,664.18,921.36z"/>
<path class="st11" d="M388.5,1009.8c1.74,1.71,3.22,4.79,5.11,7.02c-22.12,9.58-41.78,17.86-61.31,33.78
	c-1.96-15.37,0.27-32.26,6.79-46.14c-0.87-5.08,0.94-10.29,5.42-15.64c5.91-9.65,15.14-22.55,26.35-24.4
	c1.15-0.46,2.45-0.89,3.69-0.51c10.18,3.13,15.41,28.23,13.64,37.97C389.26,1004.87,389.37,1007.51,388.5,1009.8z"/>
<path class="st7" d="M412.52,1055.35c0.11,8.7,2.83,19.81,13.29,19.71c38.43-0.38,2.96,21.16,33.56,40.95
	c-15.32,9.2-30.03,22.18-48.27,26.31c19.08-20.23,0.95-48.52-17.9-62.52c0.63-31.43-12.68-19.16-12.71-33.63
	c2.66-0.26,5.46,1.26,8.38,4.55l8.41,3.87C397.28,1054.59,402.36,1054.84,412.52,1055.35z"/>
<path class="st12" d="M673.02,1022.01c-6.27,7.34-14.23,11.92-15.2,22.1c-25.3-2.8-52.45-8.71-76.56-0.61
	c-0.7,2.64-1.85,2.61-2.55,0c9.96-38.73,53.58,0.95,40.13-46.9C624.59,997.79,680.4,1011.49,673.02,1022.01z"/>
<path class="st1" d="M335.03,957.33c2.52,10.51,16.11,14.54,25.85,8.87c4.25-2.47,8.31-4.41,12.88-4.6c2.1,3.02,0.35,4.72-2.89,2.83
	c-14.13,9.17-24.48,24.52-31.77,40.04c-10.77,3.82-21.01,10.64-25.53,21.27c-1.83,1.82-2.53,1.1-1.33-1.28
	c0.12-28.81,4.4-59.52,18.22-86.24L335.03,957.33z"/>
<path class="st10" d="M527.62,991.11c8.3,4.28,22.45,20.09,5.53,21.78c-21.62,5.45-42.8,11.95-63.15,20.96
	c-8.83-18.08,15.54-23.36,13.65-38.78C498.38,993.14,512.85,991.96,527.62,991.11z"/>
<path class="st10" d="M418.98,1012.33c2.6,7.65,11.87,15.73,6.49,23.99c-4.42,6.78-13.06,10.36-12.94,19.03
	c-7.46,7.22-26.64,0.02-32.03-9.19c-0.01-4.72,0.74-13.82-1.32-18.74C392.37,1021.52,405.43,1017.06,418.98,1012.33z"/>
<path class="st7" d="M753.71,921.18c4.33,22.75-70.9,23.09-67.79,0.3C703.24,905.76,735.83,906.12,753.71,921.18z"/>
<path class="st10" d="M302.43,1073c-2.21,16.11-12.83,36.4-3.92,51.86c-8.35,10.15-22.09-3.05-47.76,6.77
	c-0.94-0.45-1.74-1.13-1.94-2.2c-0.21-1.07,7.94-18.01,9.08-19.84l3.23-0.62c1.16-0.57,2.34-1.11,3.59-1.45
	c5.67,2.92,11.64,4.72,11.54-4.53c-1.59-1.41-2.98-2.93-4.16-4.56c5.97-9.8,15.38-18.52,25.07-23L302.43,1073z"/>
<path class="st13" d="M294.59,967.01l2.7,2.06c0.6,8.46,5.54,15.65,10.36,22.36l0.44,5.16c4.58,8.97-3.32,20.72,4.14,27.86
	l1.33,1.28c-0.54,1.26-1.45,3.09-1.67,4.42c-1.18,3.67-2.78,4.89-4.79,3.66c-13.06-18.05-25.73-18.61-31.82-38.77l-1.62-2.62
	c3.85-7.04,7.7-14.08,11.56-21.13l3.26-0.38C289.68,968.74,293.11,968.51,294.59,967.01z"/>
<path class="st11" d="M581.26,1043.5c11.53,4.72-7.82,11.97,3.93,22.96c2.61,2.44,8.14,1.33,10.9,9.07
	c-21.99,2.81-43.65-1.61-65.72-6.47c14.54-13.46,32.61-17.91,48.35-25.55C579.51,1043.34,580.47,1043.76,581.26,1043.5z"/>
<path class="st12" d="M591.96,991.4c-7.16,5.06-14.69,10.26-20.13,17.68c8.25,1.23,16.11-0.83,22.81,2.07
	c0.92,3.13-0.58,3.88-2.68,1.34c-7.08-2.11-15.13-1.69-22.53-1.17l-3.09,2.86c-9.89-0.1-19.71,0.49-29.48,1.76l-3.68-1.92
	c-1.19-0.2-1.18-0.58-0.05-1.15c2.29-0.39,4.83-3.46,5.41-5.32c1.36-4.36-10.32-10.7-10.93-16.46
	C548.97,989.87,570.45,989.06,591.96,991.4z"/>
<path class="st1" d="M288.49,970.91l-13.2,24.13c-10.16,18.57-17.38,38.58-24.33,59.39c-1.79-32.06,8.81-59.92,24.78-84.87
	l18.18-28.41C292.52,952.23,284.8,960.92,288.49,970.91z"/>
<path class="st13" d="M388.5,1009.8c-8.35-8.2,5.67-28.07-17.64-45.38c1.09-0.7,1.69-2.19,2.89-2.83c3.79-1.99,12.86-6.6,15.16-1.02
	c2.33,5.66,5.98,45.57,5.93,45.65C393.32,1008.22,390.82,1009.35,388.5,1009.8z"/>
<path class="st13" d="M247.6,1059.31c-0.08,6.3-1.22,8.63-3.41,6.99c0.76-17.96-4.01-39.33,8.18-56.69
	C253.33,1026.16,246.41,1042.73,247.6,1059.31z"/>
<path class="st14" d="M318.76,1181.43c-0.18,0.41-0.89,1.09-1.35,1.16c-2.87-2.75-8.04-1.32-8.84-5.1
	c-0.88-4.14,1.21-7.37,5.11-8.53c3.13-0.93,7.3,0.06,8.44,3.89C323.05,1175.96,319.89,1178.89,318.76,1181.43z"/>
<path class="st1" d="M244.2,1066.3c2.94-1.25,0.76-5.39,3.41-6.99c0.58,8.04,3.86,16.71-1.53,25.65
	C244.4,1078.27,243.56,1072.19,244.2,1066.3z"/>
<path class="st6" d="M311.9,1030.15c-1.72,10.64,0.07,21.59-4.12,32.81c-1.51-10.36,2.86-20.09-0.68-29.15
	C308.69,1032.55,309.99,1030.92,311.9,1030.15z"/>
<path class="st7" d="M738.23,592.1c4-0.26,7.14,9.47,8,13.27c3.53,15.48-4.3,23.43-16.29,31.74c-23.93,9.43-55.2,41.16-9.13,42.85
	c22.93-2.58,45.5-7.08,67.71-13.5c27.93-1.58,72.94-9.58,62.97-47.15l1.47-3.23c-2.78-6.7,10.95-11.44,16.29-11.9l2.17,2.34
	c8.68,10.23,12.44,23.37,9.24,37.32c-2.69,11.7-12.09,21.95-22.57,29.32c2.08,23.3-14.58,26.81-14.77,44.35
	c-11.89-12.16,16.11-24.98,7.74-42.08c-43.41,20.14-90.72,24.11-138.77,24.26c11.84,22.48-34.68,28.61-49.53,27.57
	c-16.35,33.45-44.88,56.25-77.53,73.47c-6.32,3.33-11.3,7.13-17.33,3.37c-5.38-3.36-5.07-11.96-7.65-17.06
	c-7.3-3.05-26.88-3.83-25.34-15.47c1.68-12.67,21.59-11.72,31.21-14.14c5.11-16.53,15.4-29.49,26.55-45.09
	c-18.45,7.72-70.92,7.8-73.35-11.26c-1.69-13.17,29.71-16.42,38.08-17.58c-14.62-1.89-27.48-6.31-40.34-9.98
	c-3.9-6.1,2.46-17.86,6.33-23.83c3.52-5.43,8.09-10.2,13.61-13.63c5.51-3.42,16.22-8.73,21.37-4.08l1.57-1
	c0.22-1.23,0.61-1.17,1.15,0.04c2.12,3.07,4.8,4.67,8.03,4.83c19.3,0,38.65-0.96,58.06-2.88l15.37-3.94l4.25,1.45
	c1.59,3.21,0.06,6.74-4.6,10.6c-14.21,12.52-24.64,26.16-19.9,46.44l-2.09,3.49c-0.96,1.36,0.84,1.84,5.39,1.46
	c0.44-0.88,0.92-1.73,1.53-2.47c5.88-7.02,46.22-9.13,55.85-4.58c-1.71-11.13,4.01-25.2,11.09-34.26
	c9.98-9.14,21.51-16.54,34.62-22.19c11.88-8.82,14.18-21.42,5.52-33.72l1.17-3.01C735.04,588.52,737.08,588.65,738.23,592.1z"/>
<path class="st7" d="M239.33,744.74c-5.44,26.52-2.7,51.36,1.66,78.5c5.74,35.74,5.91,70.4-0.02,105.12l-1.21,1.14l-3.89,1.94
	l-13.46-2.77c-5.95-2-10.58-1.36-13.9,1.94c-1.5-2.29-3.94-4.96-3.95-8.1c-0.06-15.73-6.13-28.4-15.73-40.87
	c-7.39-9.6,9.29-40.59-29.99-49.99c-16.18-3.87-23.69,10.09-35.97,17.47c-17.45,10.49-39.84,12.82-58.35,23.74
	c-21.91-11.19,26.02-65.76,39.05-75.46l63.46-47.26c3.6,1.25,7.26,1.87,11.07,2.06c9.91,0.5,41.05-0.68,49.8-3.52
	c2.9-2.2,5.86-4.29,8.87-6.26L239.33,744.74z"/>
<path class="st15" d="M636.15,523.93c2.45-3.12,10.12-2.19,13.56-0.25c7.19,0.09,15.45-2.21,22.38-0.04l21.65,6.78l2.83,3.12
	c-0.39,22.02,11.41,34.03,28.77,44.54l6.52,5.83c3.26,2.58,4.44,5.35,3.52,8.33c5.07,6.99,8.71,15.91,5.75,24.48
	c-10.46,30.24-51.23,11.82-56.94,70.46c-20.73-3.08-40.32-1.68-58.59,5.28c-2.96,0.59-4.76,0.1-5.39-1.46
	c-7.61-38.1,16.21-41.99,26.59-60.53c-1.23-2.51-1.28-5.71-0.14-9.6l-1.63-7.53c-5.5-9.66-11.6-18.98-18.32-27.95l1.55-2.77
	c-8.12-5.12-10.53-19.44-11.73-28.99c-0.76-6.12-1.48-24.53,0.93-29.2c0.81-1.57,1.88-2.85,3.44-3.72
	C627.02,522.02,630.97,527.95,636.15,523.93z"/>
<path class="st8" d="M482.49,893.52c-52.96,30.82-92.64,2.61-134.53,23.77c-7.02,3.54-7.53,12.56-15.41,15.57
	c-4.38-9.29-7.66-14.48-19.31-16.07c46.92-38.25,47.27-91.58,91.52-120.65c3.42-2.25,9.86-3.6,11.84,0.8l-9.72,37.38
	c-2.63,10.13-11.86,16.04-5.91,26.95c5.81,10.67,14.55,9.96,26.31,10.57c10.06,0.52,19.71,11.21,31.41,8.11L482.49,893.52z"/>
<path class="st15" d="M492.86,594.76c17.19-1.26,34.38-1.55,51.55-0.87c10.71-2.53,20.33-1.43,28.86,3.31
	c6.11,2.28,3.63,13.68,1.74,19c-1.93,5.46-7.67,16.49-13.92,14.84c-0.38,0.03-0.78-0.12-1.15-0.04l-1.57,1
	c-23.87,2-36.8,18.7-41.31,41.54l-55.24-15.79l-3.34-2.5c-3.49-21.57-17.24-30.65-36.06-37.63l-8.31-4.76
	c-3.37-1.43-4.79-3.54-4.25-6.34l3-2.46c25.13-5.48,50.71-9.17,76.43-10.38L492.86,594.76z"/>
<path class="st15" d="M278.57,624.12l3.09-0.94c7.14,3.75,14.96,5.92,23.46,6.51l1.43,3.02l0.67,3.14
	c-2.74,1.91-1.35,1.47,4.17-1.33c3.93-1.98,6.31-1.51,7.14,1.4c14.14-3.29,40.72-4.7,50.06,8.44c2.03,2.86,4.95,7.2,1.04,9.19
	c-37,6.57-68.84,25.46-99.11,46.8c-12.93,7.77-21.07,1.78-29.8-8.12l-5.64-2.86c-4.9-0.66-8.25-2.44-10.07-5.33
	C238.33,660.02,259.3,642.88,278.57,624.12z"/>
<path class="st9" d="M669.57,484.66c5.63,2.37,9.7,6.9,12.22,13.58l8.14,18.15l-1.16,4.29c-1.41,7.04-10.46-0.16-16.42,0.54
	c-24.7-5.29-49.53-6.98-76.35-7.25c11.56-20.2-4.36-29.04-4.65-41.47c-0.33-13.88,0.57-29.44,12.89-40.38
	C630.41,444.04,651.62,463.8,669.57,484.66z"/>
<path class="st10" d="M807.56,561.29l1.28,2.64c-5.55,9.56,8.61,15.27,14.82,8.5l2.85,0.56c14.06,6.45,25.79,17.53,38.51,27.69
	c10.48-10.39-9.17-29.73,8.28-39.46c-9.33,17.43,4.58,21.98-1.87,45.33c-6.9,1.12-14.73,3.47-18.46,9.56l-3.45-0.65
	c-3.85-6.58-8.97-12.49-15.74-16.19l-69.69-31.69c-17.57-5.88-27.06,4.16-23.82,21.87l-2.04,2.68l-2.85,0.15
	c-17.75-24.49-40.08-16.68-41.64-61.82C730.86,542.07,773.68,541.42,807.56,561.29z"/>
<path class="st7" d="M492.48,756.19c1.45,28.85-114.64,29.98-115.47-0.19C376.23,727.57,491.01,726.96,492.48,756.19z"/>
<path class="st10" d="M873.56,507.32c-0.83,1.11-3.85,1.18-4.23,3.01c-27.44,15.02-56.37-0.33-84.43,2.09l-6.31-1.5
	c-3.52-1.55-13.38-8.72-9.68-12.53c-0.56-32.97,107.7-31.36,110.94-2.38C880.33,500.39,876.24,503.73,873.56,507.32z"/>
<path class="st10" d="M409.86,606.51c24.99,19.71,42.68,9.48,51.96,51.24c-30.24-8.64-61.25-9.69-92.17-4.2
	c-1.6-9.34-10.13-15.86-20.15-16.29l-30.95-1.34c2.09-3.26,3.13-4.89,3.13-4.89c10.48-4.4,21.05-8.55,31.86-12.11
	c13.29-4.37,40.55-13.3,53.46-13.62C407.94,605.26,408.9,605.8,409.86,606.51z"/>
<path class="st10" d="M225.03,684.04c32.86,5.57,14.38,21.03,45.51,16.3c-17.38,12.25-26.75,22.69-31.2,44.4
	c-4.81-0.28-6.48,6.24-11.76,6.69c-7.8,0.67-64.77,8.39-60.52-1.28C191.3,732.1,210.38,710.49,225.03,684.04z"/>
<path class="st8" d="M768.9,498.39c3.63,6.64,10.56,9.17,16,14.03l-96.13,8.27c-5.06-12.54-10.24-25.6-19.21-36.02L768.9,498.39z"/>
<path class="st10" d="M447.92,659.1c-8.78,6.12-77.58,55.7-81.08,44.77c-1.87-5.85,9.67-12.49,9.3-24.11
	c-0.29-9.26-17.28-11.41-16.43-15.93C362.15,650.8,432.85,654.14,447.92,659.1z"/>
<path class="st7" d="M536.53,814.09c5.98,18.29-64.29,22.26-67.05,1.9C467.11,798.5,530.47,795.55,536.53,814.09z"/>
<path class="st7" d="M675.96,813.95c5.2,18.63-67.4,21.08-67.53,1.02C608.32,796.83,670.9,795.81,675.96,813.95z"/>
<path class="st1" d="M826.51,572.98c-3.18,5.41-10.66,6.39-16.17,3.54c-5.97-3.09-7.56-10.08-2.78-15.23
	C813.66,564.86,821.48,567.86,826.51,572.98z"/>
<path class="st14" d="M481.22,1456.62c-51.12,12.09-107.53,9.07-157.37-4.8c-17.53-4.88-27.48-20.24-28.14-35.35
	c-3.45-78.95,229.32-47.08,210.82,18.91C504.12,1444,494.22,1453.55,481.22,1456.62z"/>
<path class="st14" d="M87.12,1272.63c-16.75,1.93-64.67-2.64-65.77-25.24c-2.27-47.03,150.26-58,152.13-9.28
	c0.45,11.72-7.59,22.96-17.72,25.99C134.53,1244.94,103.4,1248.63,87.12,1272.63z"/>
<path class="st10" d="M466.14,451.45c-36.68,14.11-78.15,15.36-114.13,0.6c-7.61-3.12-18.46-12.79-14.64-20.82
	c14.49-30.46,140.94-28.62,139.56,5.7C476.68,443.3,470.31,446.69,466.14,451.45z"/>
<path class="st10" d="M577.37,469.95c-17.82,28.36-91.99,25.48-103.75-0.23c-2.04-4.45-0.62-11.18,1.68-14.7
	C497.81,431.95,581.1,435.1,577.37,469.95z"/>
<path class="st10" d="M700.89,397.24c3.24,29.07-104.7,30.63-106.72,1.22C592.22,370.14,697.69,368.56,700.89,397.24z"/>
<path class="st10" d="M542.15,363.78c3,20.34-68.65,20.96-67.93,1.16C474.89,346.39,539.7,347.14,542.15,363.78z"/>
<path class="st10" d="M737.86,452.18c3.38,19.52-67.15,20.6-67.76,1.14C669.52,434.52,734.74,434.16,737.86,452.18z"/>
<path class="st7" d="M908.05,865.99c3,35.63-144.09,36.3-143.7-0.15C764.7,831.78,905.12,831.25,908.05,865.99z"/>
<path class="st10" d="M239.77,929.5c-2.71,10.55-2.23,23.89-13.91,30.87c-4.56-12.17-11.31-20.57-17.34-29.76
	c0.29-1.05,0.08-5.86,1.97-5.88C220.79,924.96,230.33,927.65,239.77,929.5z"/>
<path class="st0" d="M308.09,996.6c-6.45-8.93-13.87-18.4-13.5-29.59c4.89-4.95,14.26-4.62,21.98-4.85
	C315.57,975.64,310.42,985.43,308.09,996.6z"/>
<path class="st5" d="M616.03,131.3c13.32,0.34,21.21,6.77,29.05,14.72c3.51,3.56,19.03,2.04,15,11.25
	c-2.16,4.93-13.23,6.07-18.52,7.6c-21.77,6.31-43.56-0.75-64.3,2.56c-50.67,8.08-100.16,1.41-149.76,5.45
	c-26.05,2.12-54.25,20.24-77.95-3.24c-1.04-6.96,11.58-8.26,19.87-11.42c-11.62-3.79-62.28-13.59-53.79-29.1
	c8.05-14.71,59.47-14.5,75.29-16.59c7.05-0.93,13.5-4.85,21.72-5.27c41.51-2.12,81.88,2.88,122.84,8.53
	c17.1,2.36,35.49-2.66,50.93,7.33C595.47,128.98,604.36,131.97,616.03,131.3z"/>
<path class="st5" d="M231.87,257.34l-4.06,5.37l-1.16,3.8c-16.1,6.21-33.36,8.92-51.79,8.13c-14.86,3.09-29.72,4.57-44.57,4.45
	c0.04,3.09-4.84,6.15-7.86,7.55c-23.63,10.93-71.91-11.21-94.37-21.85l-0.15-3.17l-6.65-4.41c-4.21-5.95-5.94-12.82-3.02-18.1
	c3.57-6.45,10.68-5.91,16.6-8.95c27.07-13.88,58.26-18.29,87.66-5.88c3.26,1.37,4.37,5.02,5.18,8.57
	C144.84,228.59,243.9,224.14,231.87,257.34z"/>
<path class="st15" d="M531.68,534.13l3.1,1.79c0.95,9,2.77,17.6,5.45,25.82c7.44,7.35,15.69,13.86,24.73,19.51l1.01,4.01
	c0.91,0.28,0.95,0.73,0.15,1.31c-0.7,4.06-11.47,4.41-11.44-0.18c-2.24,2.9-3.6,2.53-4.11-1.06c-1.06,1.27-3.19-0.07-4.24-1.07
	c-0.57,2.73-4.34,1.97-5.25-0.2c-1.31,0.95-2.8,0.6-4.06-0.24c-1.14,1.14-2.69,0.77-2.64-0.94c-2.17,0.7-4.63,0.78-6.7-0.31
	c-0.57,1.62-1.72,1.27-2.72-0.16c-41.71-3.95-84.16-4.01-124.88,7.6l-3.78-0.69l-3.54-0.99c-3.52-8.98-6.86-23.84-0.36-31.46
	l25.47-11.53l9.23-1.59L449.8,539c53.35-4.92,80.02-7.39,80.02-7.39L531.68,534.13z"/>
<path class="st9" d="M620.91,520.73c-4.58,21.7-2.75,41.93,7.35,61.91c-2.53,2.01-6.2,2.77-11.02,2.29
	c-12.84,3.7-25.74,5.51-38.69,5.43c-4.53-1.1-8.73-2.8-12.59-5.1c-37.37-26.71-27.27-17.41-34.27-51.14
	c-5.15-0.31-2.55-11.82,1.37-13.02C561.96,518.22,592.97,514.85,620.91,520.73z"/>
<path class="st11" d="M533.05,521.11c0.02,4.17-2.24,8.85-1.37,13.02l-104.58,9.65C460.36,530.97,497.12,524.7,533.05,521.11z"/>
<path class="st9" d="M649.71,523.69c-4.11-0.05-9.62-0.67-13.56,0.25C632.98,518.8,651.82,520.55,649.71,523.69z"/>
<path class="st10" d="M392.39,556.9c-1.05,11.19-1.81,22.54,3.91,32.45c1.03,0.62,0.88,0.99-0.38,1.12l-2.44,1.93
	c-28.98,8.39-55.83,22.63-80.68,39.57l-6.23,0.74c-9.55-2.06-20.65-2.06-27.99-8.58C310.09,593.45,352.15,575.1,392.39,556.9z"/>
<path class="st5" d="M937.51,167.53c6.71,1.86,13.63,3.82,16.62,9.57c2.46,4.72,0.03,13.57-5.66,16.41
	c-0.54,1.55-1.16,3.28-2.53,4.14c-13.21,8.29-41.13,8.2-56.07,4.45c-19.12,20.77-67.12,24.78-92.44,14.31
	c-6.83-2.82-14.39-8.26-10.07-16.35c-10.12-2.67-20.41-4.44-30.88-5.31l-2.69-3.13c-7.46-1.25-16.14-5.36-18.75-11.75
	c-10.76-26.29,105.48-29.24,120.69-29.93c16.02-0.73,67.19-7.94,76.18,8.26c1.07,1.93-0.43,5.72,1.07,7.6
	C933.82,166.85,935.79,167.17,937.51,167.53z"/>
<path class="st7" d="M948.48,193.52c5.69,2.26,13.1,5.24,14.38,10.89c4.33,19.1-50.1,18.42-59.73,21.54
	c-39.86,12.91-82.93,17.2-122.21,0.62c-5.79-2.44-47.17-5.16-47.18-18.24c0-3.08,1.72-6.02,3.88-8.54l1.67-0.05l1.35-1.16
	c4.62-1.63,11.74-1.87,13.19-6.94c12.28,2.06,24.87,2.13,37.58,7.02c-0.77,2.01-2.84,4.05-2.78,5.64
	c0.66,17.8,76.24,22.98,100.66-4.55C910.22,203.88,930.67,202.42,948.48,193.52z"/>
<path class="st5" d="M1115.68,231.53l-1.6,3.63c-16.55,3.66-33.18,7.28-49.91,10.86c-11.37,1.75-40.46,3.13-50.3-1.37
	c-4.22-1.93-4.7-4.21-3.05-8.3c-3.49,0.34-5.75-0.7-6.76-3.1c-5.85-0.93-18.94-4.28-16.23-11.57c6.47-11.61,24.2-7.4,35.15-10.07
	c20.09-4.89,37.4-4.06,56.77,0.62c1.89,0.46,46.77,0.46,43.41,13.1C1122.31,228.54,1119.2,229.82,1115.68,231.53z"/>
<path class="st7" d="M1004.06,233.25c2.97,0.12,7.38,0.02,9.86,1.27c1.4,0.71-1.99,3.16-1.27,7.23c20.19,4.12,43.5,4.96,63.33-1.3
	c13.26-4.18,27.22-2.88,39.7-8.92c2.42,2.58,5.96,3.03,8.29,4.81c18.31,14.02-43.52,19.25-44.36,19.4
	c-31.84,5.75-64.49,6.58-93.66-8.21C988.72,236.97,998.56,238.76,1004.06,233.25z"/>
<path class="st7" d="M227.81,262.71l9.9,13.56c11.8,16.16-61.06,20.23-61.09,20.23c-36.27,5.84-72.8,11.51-109.68,4.37
	c-5.96-1.15-46.56-13.3-49.38-22.07c-2.3-7.15,10.07-11.69,10.34-17.18c4.4,2.92,86.75,43.24,101.4,15.26
	c17.94,0.99,34.88-4.67,52.94-5.54C198.3,270.58,213.53,271.8,227.81,262.71z"/>
<path class="st0" d="M403.16,1147.7c-0.71,1.72-2.67,1.14-4.17,1.34C399.42,1147.37,401.83,1147.98,403.16,1147.7z"/>
<path class="st9" d="M569.44,1011.33c-0.49,2.13,1.46,2.63,2.96,6.41c-13.28,0.6-25.68,4.59-38.02,7.76l-12.47,1.8
	c-14.37,3.79-28.55,8.24-42.55,13.35l-1.34,0.06l-1.35,1.15l-2.34,0.1l-1.6,1.34l-45.41,20.17c13.95-10.32,27.83-20.87,42.73-28.1
	c19.08-11.24,41.38-17.68,63.15-21.35C544.67,1011.1,557.78,1012.16,569.44,1011.33z"/>
<path class="st0" d="M533.15,1012.88l0.05,1.15c-21.62,5.52-43,11.57-63.15,21.35c-0.14-0.45,0.15-1.11-0.05-1.53
	C489.74,1023.07,511.02,1016.68,533.15,1012.88z"/>
<path class="st0" d="M534.38,1025.51c-14.42,3.71-29.8,6.3-42.93,13.27c-3.56,1.17-8.35,1.7-12.09,1.88
	C496.43,1033.17,516.25,1024.32,534.38,1025.51z"/>
<path class="st0" d="M261.12,1108.98l-10.37,22.66l-5.58,9.81l-11.25-22.13c2.3,5.52,2.53,12.41,3.32,17.82
	c-10.24,1.84-11.57-3.56-14.19-13.4C219.17,1109.17,250.12,1106.33,261.12,1108.98z"/>
<path class="st9" d="M591.96,1012.5c0.96,0,1.91-1.08,2.68-1.34c2.33,0.26,5.57-1.19,7.5,0.11c1.75,1.17,4.56,2.98,2.74,4.93
	C598.4,1015.15,592.62,1018.1,591.96,1012.5z"/>
<path class="st9" d="M586.09,1016.77c-4.37,0.59-9.08,1.66-12.62-1.91C577.84,1013.57,581.31,1013.68,586.09,1016.77z"/>
<path class="st14" d="M264.7,1107.53c-0.92-5.13,5.5-6,7.38-9.09c4.09-0.29,7.12,1.86,6.91,5.85c-0.2,3.81-1.82,7.18-5.42,8.07
	C269.43,1113.4,265.41,1112.04,264.7,1107.53z"/>
<path class="st15" d="M852.96,616.09c6.84,13.73,1.96,26.17-8.09,36.13c-14.9,14.77-34.37,13.32-54.48,16.64
	c-17.2,2.84-76.42,23.52-91.25,8.27c-2.75-2.83-6.28-8.14-4.43-13.18c9.01-24.46,41.01-24.08,48.8-45.66
	c3.56-9.86-2.7-17.92-5.29-26.17c-2.79-8.87-1.24-18.44,3.78-23.87c5.27-5.71,15.18-6.75,23.14-3.14l67.59,30.64
	C842.27,600.06,848.54,608.03,852.96,616.09z"/>
<path class="st10" d="M628.26,582.65c7.22,14.29,28.31,30.38,18.53,47.85c-11.56,3.78-22.68,6.6-36.02,6.95l-41.77,1.09
	c-2.21,0.06-4.74-1.03-6.92-1.52c-1.78-0.4-0.9-4.11-1.01-5.97c10.24-8.49,15.59-20.81,12.18-33.84l1.48-3.15
	c-5.4-1.62-8.28-4.11-8.64-7.46l-0.15-1.31C593.6,594.16,611.12,578.46,628.26,582.65z"/>
<path class="st14" d="M792.18,692.37c-6.24,0.68-11.14-2.35-11.76-7.31c-0.72-5.72,3.71-10.03,9.8-10.59
	c5.63-0.52,11.3,2.14,12.06,7.94C802.92,687.25,798.58,691.67,792.18,692.37z"/>
<path class="st2" d="M620.21,691.02c1.8-0.24,3.72,1.04,5.39,1.46c-7.55,2.88-14.72,1.73-24.52,4.51l-10.47-6.93
	C601.48,689.59,610.6,692.32,620.21,691.02z"/>
<path class="st2" d="M395.91,590.47c2.5-0.02,2.3,0.88-0.62,2.71l-5.11,4.57c-4.08,1.24-46.19,18.05-44.15,19.34
	c55.71-17.82,117.9-30.52,176.66-28c3.61,0.15,7.04,1.52,10.35,2.87l-0.32,1.25l-39.86,1.55c-28.16,0.58-56.13,6.04-83,11.75
	c-30.68,6.51-64.4,13.18-91.31,29.4c-7.06-0.31-11.35,4.73-19.66,7.32c-0.6-4.21,5.39-7.84,7.68-10.52
	C334.56,615.11,363.59,597.81,395.91,590.47z"/>
<path class="st1" d="M566.11,586.58l13.92,7.17c-1.99,1.52-4.22,3.79-6.77,3.44c-26.11-3.55-53.45-2.99-80.4-2.44l40.18-2.79
	l2.64-2.55l14.86,1.51c-0.45-2.55,2.11-3.75,4.13-4.53C558.28,587.25,562.56,586.39,566.11,586.58z"/>
<path class="st1" d="M524.96,582.43c2.31,0.23,2.39,1.18,0.04,1.87c-4.42,1.33-6.63,2-6.63,2c-38.79-3.89-78.5-3.67-116.15,7.51
	l-6.92-0.63l0.62-2.71l0.38-1.12C438.49,578.84,482.03,574.64,524.96,582.43z"/>
<path class="st2" d="M527.68,582.59c2.12,1.05,4.48,0.96,6.7,0.31c0.82,0.15,1.93,0.49,2.64,0.94c1.32,0.63,2.72,1.27,4.06,0.24
	c1.74,0.2,3.51,0.09,5.25,0.2c1.16,0.98,2.89,2.24,4.24,1.07c1.48-0.01,2.73,0.74,4.11,1.06c0.06,1.02,0.12,2.14-0.42,3.3
	c-0.59,1.25-2.54,1.01-3.71,1.23c-7.85-1.22-15.78-2.47-23.8-3.75L525,584.3l-0.04-1.87C525.82,582.58,526.8,582.58,527.68,582.59z"
	/>
<path class="st1" d="M534.38,582.9c-1.53,1.75-5.41,1.78-6.7-0.31C529.91,582.62,532.17,582.49,534.38,582.9z"/>
<path class="st1" d="M541.07,584.08c0.21,1.25-1.19,1.19-2.14,1.25c-0.96,0.06-1.23-1.05-1.91-1.48
	C538.37,583.88,539.73,583.92,541.07,584.08z"/>
<path class="st1" d="M550.56,585.34c0.41,1.39-1.13,1.48-1.9,1.07c-0.97-0.52-2.67-0.87-2.33-2.13
	C547.74,584.36,549.12,585.34,550.56,585.34z"/>
<path class="st10" d="M525,584.3c8.61,0.94,19.06,1.57,25.53,6.63c-4.42,4.08-11.66,0.97-17.5,1.03
	c-72.72-1.97-142.63,9.86-211.3,36.83c23.56-16.17,48.56-27.31,73.55-35.61C437.26,579.24,481.5,579.54,525,584.3z"/>
<g>
</g>
<g>
</g>
<g>
</g>
<g>
</g>
<g>
</g>
<g>
</g>
<g>
</g>
<g>
</g>
<g>
</g>
<g>
</g>
<g>
</g>
<g>
</g>
<g>
</g>
<g>
</g>
<g>
</g>
</svg>
