<svg xmlns="http://www.w3.org/2000/svg" viewBox="0 0 1200 1800">
<style>
.c1{fill:#E8A838}
.c2{fill:#D4573B}
.c3{fill:#F5C96A}
.c4{fill:#1A3A4A}
.c5{fill:#E87D6A}
.c6{fill:#2B5A6E}
.c7{fill:#F2E2A0}
.c8{fill:#C23A2A}
</style>
<!-- Sky - 3 big regions -->
<path class="c3" d="M0,0 H1200 V400 Q900,350 600,380 Q300,410 0,360 Z"/>
<path class="c1" d="M0,360 Q300,410 600,380 Q900,350 1200,400 V650 Q900,620 600,660 Q300,700 0,640 Z"/>
<path class="c2" d="M0,640 Q300,700 600,660 Q900,620 1200,650 V800 H0 Z"/>

<!-- Sun -->
<circle class="c7" cx="900" cy="280" r="120"/>
<circle class="c3" cx="900" cy="280" r="80"/>

<!-- Clouds - simple shapes -->
<path class="c7" d="M100,180 Q150,140 220,160 Q280,130 340,170 Q360,200 300,210 Q200,220 100,200 Z"/>
<path class="c7" d="M500,120 Q560,80 640,110 Q700,80 760,120 Q780,150 700,155 Q600,160 500,145 Z"/>

<!-- Water body -->
<path class="c6" d="M0,800 H1200 V1100 H0 Z"/>
<path class="c4" d="M0,1100 H1200 V1400 H0 Z"/>
<path class="c6" d="M0,1400 H1200 V1600 H0 Z"/>
<path class="c4" d="M0,1600 H1200 V1800 H0 Z"/>

<!-- Water ripples - a few simple ones -->
<path class="c4" d="M50,850 Q200,830 400,860 Q600,890 800,850 Q950,830 1150,860 V880 Q950,850 800,870 Q600,910 400,880 Q200,850 50,870 Z"/>
<path class="c6" d="M100,950 Q300,930 500,960 Q700,990 900,950 Q1050,930 1150,960 V980 Q1050,950 900,970 Q700,1010 500,980 Q300,950 100,970 Z"/>
<path class="c4" d="M0,1050 Q200,1030 400,1060 Q600,1080 800,1050 Q1000,1030 1200,1060 V1080 Q1000,1050 800,1070 Q600,1100 400,1080 Q200,1050 0,1070 Z"/>

<!-- Flamingo body - large simple shapes -->
<!-- Main body -->
<path class="c5" d="M450,520 Q500,440 580,460 Q660,480 680,560 Q700,640 660,720 Q620,780 560,780 Q480,780 450,720 Q420,660 430,580 Z"/>
<!-- Wing -->
<path class="c2" d="M480,560 Q520,520 580,530 Q640,540 660,600 Q670,660 640,700 Q600,730 550,720 Q500,700 480,650 Q470,600 480,560 Z"/>
<!-- Wing detail -->
<path class="c8" d="M510,590 Q540,560 580,570 Q620,580 630,620 Q640,660 610,680 Q580,690 550,670 Q520,650 510,620 Z"/>

<!-- Neck -->
<path class="c5" d="M480,520 Q460,460 440,380 Q430,320 450,260 Q470,200 500,180 L520,190 Q490,220 480,280 Q470,340 480,400 Q490,460 500,510 Z"/>

<!-- Head -->
<path class="c5" d="M490,180 Q510,150 540,150 Q570,155 580,175 Q585,195 570,210 Q550,220 530,215 Q510,210 500,195 Z"/>
<!-- Eye -->
<circle class="c4" cx="550" cy="175" r="8"/>
<!-- Beak top -->
<path class="c1" d="M490,180 Q470,170 440,175 Q420,180 410,190 L420,200 Q430,190 450,188 Q470,185 490,190 Z"/>
<!-- Beak tip -->
<path class="c4" d="M410,190 Q400,195 395,200 Q400,208 410,210 L420,200 Z"/>

<!-- Legs -->
<path class="c8" d="M560,780 L570,950 Q575,960 565,960 Q555,960 555,950 L545,780 Z"/>
<!-- Standing foot -->
<path class="c8" d="M555,950 Q540,970 530,965 Q535,955 545,945 Z"/>
<path class="c8" d="M570,950 Q585,970 590,965 Q585,955 575,945 Z"/>

<!-- Tucked leg -->
<path class="c8" d="M520,720 Q510,750 520,760 Q530,755 535,740 Q540,725 530,715 Z"/>

<!-- Tail feathers -->
<path class="c2" d="M640,700 Q680,680 710,700 Q730,730 700,750 Q670,760 650,740 Z"/>
<path class="c5" d="M660,720 Q690,710 720,730 Q740,760 710,780 Q680,790 660,760 Z"/>

<!-- Reflection in water - simplified mirror -->
<path class="c5" d="M450,1050 Q480,1000 560,1010 Q620,1020 650,1060 Q670,1100 640,1150 Q600,1180 540,1180 Q480,1170 460,1130 Q440,1090 450,1050 Z" opacity="0.4"/>
<path class="c2" d="M490,1080 Q520,1050 580,1060 Q620,1070 640,1100 Q650,1140 620,1160 Q590,1170 550,1160 Q510,1150 490,1120 Z" opacity="0.4"/>
<!-- Reflection neck -->
<path class="c5" d="M480,1050 Q470,1000 460,960 Q450,920 460,880 Q470,860 490,850 L500,860 Q480,875 475,900 Q470,940 475,980 Q480,1010 490,1040 Z" opacity="0.4"/>

<!-- Palm tree left -->
<path class="c4" d="M80,800 Q90,600 100,400 Q105,300 95,250 L115,245 Q120,300 115,400 Q110,600 100,800 Z"/>
<!-- Palm fronds -->
<path class="c6" d="M95,260 Q40,200 0,220 Q30,240 70,260 Z"/>
<path class="c6" d="M105,250 Q60,180 20,150 Q50,190 90,240 Z"/>
<path class="c6" d="M110,255 Q150,190 200,170 Q170,200 120,260 Z"/>
<path class="c6" d="M115,250 Q180,210 230,220 Q190,240 125,260 Z"/>
<path class="c4" d="M100,255 Q80,230 50,240 Q75,255 100,260 Z"/>

<!-- Palm tree right -->
<path class="c4" d="M1080,800 Q1090,650 1095,500 Q1098,420 1090,380 L1110,375 Q1115,420 1112,500 Q1108,650 1100,800 Z"/>
<!-- Palm fronds right -->
<path class="c6" d="M1090,385 Q1040,330 1000,340 Q1030,360 1070,385 Z"/>
<path class="c6" d="M1100,380 Q1060,310 1020,290 Q1050,320 1090,375 Z"/>
<path class="c6" d="M1105,385 Q1150,320 1200,310 Q1170,335 1115,390 Z"/>
<path class="c6" d="M1110,380 Q1170,345 1200,360 Q1175,375 1118,390 Z"/>

<!-- Grass/reeds at water edge -->
<path class="c4" d="M0,790 Q50,780 100,790 Q150,795 200,785 Q250,780 300,790 Q350,795 400,785 Q450,780 500,790 Q550,795 600,785 Q650,780 700,790 Q750,795 800,785 Q850,780 900,790 Q950,795 1000,785 Q1050,780 1100,790 Q1150,795 1200,785 V810 H0 Z"/>

<!-- Small birds in sky -->
<path class="c4" d="M200,100 Q215,85 230,100 Q245,85 260,100" fill="none" stroke="#1A3A4A" stroke-width="4"/>
<path class="c4" d="M700,60 Q710,50 720,60 Q730,50 740,60" fill="none" stroke="#1A3A4A" stroke-width="3"/>
<path class="c4" d="M350,140 Q360,130 370,140 Q380,130 390,140" fill="none" stroke="#1A3A4A" stroke-width="3"/>

<!-- Lily pads -->
<ellipse class="c6" cx="200" cy="900" rx="60" ry="25"/>
<ellipse class="c4" cx="200" cy="900" rx="45" ry="18"/>
<path class="c2" d="M195,895 Q200,875 210,880 Q205,890 205,900 Z"/>

<ellipse class="c6" cx="950" cy="1000" rx="55" ry="22"/>
<ellipse class="c4" cx="950" cy="1000" rx="40" ry="16"/>

<ellipse class="c6" cx="150" cy="1300" rx="50" ry="20"/>
<ellipse class="c4" cx="150" cy="1300" rx="38" ry="15"/>

<!-- Distant mountains/treeline -->
<path class="c4" d="M0,360 Q100,300 200,340 Q300,280 400,330 Q500,290 600,350 Q700,300 800,340 Q900,280 1000,330 Q1100,290 1200,350 V400 Q900,350 600,380 Q300,410 0,360 Z" opacity="0.5"/>
</svg>
