<?xml version='1.0' encoding='UTF-8'?>
<svg xmlns="http://www.w3.org/2000/svg" id="Layer_1" viewBox="0 0 1200 1200" xml:space="preserve" width="1200" height="1800">
<style type="text/css">
      .cls-1 {
        fill: #212433;
      }

      .cls-2 {
        fill: #343c4a;
      }

      .cls-3 {
        fill: #254258;
      }

      .cls-4 {
        fill: #4c565f;
      }

      .cls-5 {
        fill: #695952;
      }

      .cls-6 {
        fill: #416779;
      }

      .cls-7 {
        fill: #4b6d82;
      }

      .cls-8 {
        fill: #82796f;
      }

      .cls-9 {
        fill: #668291;
      }

      .cls-10 {
        fill: #829ca4;
      }

      .cls-11 {
        fill: #8aa1a8;
      }

      .cls-12 {
        fill: #7eaa9c;
      }

      .cls-13 {
        fill: #aca293;
      }

      .cls-14 {
        fill: #a4b7b7;
      }

      .cls-15 {
        fill: #bfd0c8;
      }

      .cls-16 {
        fill: #e5ebdf;
      }

    </style>
<path class="cls-7" d="M0,168.75V0h1200v92.66c-11.9,1.32-23.83,2.59-35.81,2.87c-222.97,2.36-446.55,11-666.2,28.91  c0,0-7.01-0.4-21.03-1.19c-3.55-0.41-7.08-2.25-10.59-5.54c-14.1-8.46-14.08-7.12,0.06,4.03l0.13,3.41l-0.55,2.42  c0,0-57.52,6.5-172.57,19.5l-5.13-1.78l-2.85,1.5c-7.56-2.28-15.28-3.7-23.16-4.27l-0.81,1.48c-3.39,1.03-6.79,2.01-10.23,2.82  c-3.44,0.81-6.86,1.6-10.33,2c-76.57,8.77-153.51,15.03-230.34,20.53L0,168.75z" />
<path class="cls-9" d="M1200,92.66v112.09l-0.81,2.35c-53.04,0.16-106.09,0.32-159.16,0.49l-1.45-2.34c-1.35-2.01-0.7-3.81,1.96-5.42  c-4.09,2.92-7.54,6.63-10.34,11.13c-4.56-0.25-9.12-0.95-13.68-2.1c-3.05,0.68-5.51,0.52-7.41-0.49c-5.71,1.1-11.47,2.08-17.3,2.2  c-72.72,1.51-145.36,3.25-217.92,8.41l-8.82-0.92l-5.03,0.73c-35.24-13.94-68.43-12.78-99.69,7.68c-7.05,3.87-15.18,4.67-23.12,4.54  c-0.3,0-0.59-0.62-0.88-1.41c-50.75,5.48-102.08,10.7-153.99,15.66l123.78,10.35c1.19,1.53,0.72,3.1-0.23,4.74l-188.56-0.13  l-1.43-2.34c-5.29-2.74-3.12-8.85,3.38-9.41c6.57,2.36,10.2,2.04,10.88-0.96L1.26,213.39L0,210.94v-42.19  c87.14-8.06,174.81-14.02,261.5-24.74c0.09-0.75,0.23-1.37,0.59-1.55c4.97-2.38,31,6.07,32.58,14.53  c0.45,9.65,10.36,7.38,14.85,1.44c11.19,0.57,23.51,1.14,3.18-0.93c-3.85,0.41-7.64,1.21-11.39,2.41  c-4.44-3.74-8.74-7.67-12.89-11.79l-0.1-2.82l178.25-20.14c3.94-1.28,8.98,5.88,10.77,9.32c4.19,8.03,3.69,10.09-5.57,9.89  c-1.01-0.09-0.45,1.73-0.02,2.03c0.88,0.63,21.01,2.01,21.61,1.11c0.69-7.06,6.38-9.25,17.08-6.57l17.35,3.37  c-6.15-3.49-13.08-7.1-20.36-6.14c-7.09,1.42-14.24,2.44-21.43,3.06c-4.25-4.18-11.31-12.24-9.05-17.97  c80.12-4.09,159.94-12.08,239.49-16.36C877.5,98.21,1038.68,94.95,1200,92.66z" />
<path class="cls-16" d="M763.83,813.84c2.82-2.53,6.74-2.59,11.76-0.18c6.64,2.58,12.75,6.14,18.33,10.67  c6.27-12.28,19.16-12.7,26.67-1.24c4.72-3.88,10.87-4.37,16.74-3.74c18.67,1.99,37.97,14.38,53.39,24.41l2.26,4.63l3.2-0.38  c12.59,12.5,24.61,25.52,36.06,39.06c3.11,3.24,6.77,5.57,10.99,6.99c2.55,1.32,5.21,3.13,7.98,5.43l34.55,17.79l1.95,3.64  l2.13-1.45c19.94,11.84,39.75,23.9,59.43,36.18l1.55,3.32c0.61-0.69,1.63-1.66,2.2-1.33c4.36,2.52,20.17,12.85,22.97,15.88  l3.22,5.08c0.74-0.59,1.81-1.41,2.5-1.06c3.93,2.01,29.17,20.83,31.61,23.68l3.13,5.27c4.18-1.48,13.53,5.84,13.27,10.25l5.08,1.49  c19.08,15.67,39.6,28.95,61.56,39.85l3.63,4.01v31.53c-3.47,2.46-8.9-0.37-8.9-4.62l-3.77,0.28  c-17.94-15.27-34.38-22.99-57.89-20.46l-1.84-2.57c-1.67,3.46-5.14,1.13-7.59-0.65c-5.23-3.8-10.1-14.97-10-21.4  c-1.99,0.5-4-0.36-6.02-2.58c-7.64-2.03-15.38-3.98-23.21-5.85c-6.48-6.76-9.67-15.76-9.58-26.99c-0.99,0.21-2.39,0.22-2.67-0.55  c-0.61-8.69-3.61-12.91-8.99-12.66c-6.97,2.67-13.76,5.01-17.89-3.02c-4.26-9.84-9.95-18.35-17.06-25.52  c-3.12-0.85-5.53-2.07-7.24-3.66c-2.6,5.08-12.54,4.07-17.7,3c-5.56-1.15-10.39-4.49-14.11-8.62c-4.8-6.58-9.81-12.96-15.04-19.13  c7.68,94.56-71.47,166.61-150.82,204.31c-132.05,62.75-284.41,47.77-414.85-12.3c-7.01,5.77-16.4-1.16-22.61-6.17l-15.43,5.1  c-9.57,1.05-15.26-4.3-17.07-16.07c-4.16-0.61-8.73-0.09-13.71,1.54c-7.45-0.4-10.44-5.42-8.98-15.05  c-8.51,0.59-15.54-1.64-21.09-6.67l1.17-2.46c-2.5-1.57-2.31-4.83,0.56-9.79c-5.13-0.56-13.05-2.67-14.8-7.6l-3.66-2.54l-2.07-15.88  l-4.87-1.15c-12.02-0.56-23.75,2.84-35.18,10.19l-8.05,1.16c-1.5,3.16-10.55,3.51-11.79,0.03c-11.89-0.65-11.91-13.91-9.76-23.03  c-7.02-3.04-14.61-2.42-21.55,0.47c-10.81,7.06-21.14,8.78-30.99,5.16c-12.88-13.31-21.47-10.89-39.09-5.87  c-43.48,12.4-82.6,29.19-121.7,51.83L0,1094.53v-17.58l0.98-2.9c30.94-16.49,62-32.82,93.2-48.99l5.36-0.16  c1.27-1.92,2.7-3.83,4.71-5.02c14.5-8.54,36.92-16.45,53.13-22.15c8.47-2.98,16.34,1.29,21.47,7.92  c14.2-6.9,28.64-13.39,43.31-19.46c26.36-9.57,63.26-13.65,52.07,26.09c15.64-5.63,34.07-9.02,50.72-8.83l3.35,2.13  c22.34,2.55,14.87,21.66,6.73,34.74c9.86,1.42,19.47,3.68,28.84,6.78c4.26,2.48,11.87,9.26,7.42,13.65l2.5,1.1  c-0.39,5.24-2.23,10.15-5.54,14.72c8.91,7.14,18.8,13.04,29.02,18.15l3.59,4.31c18.41,5.76,36.45,12.58,54.13,20.47  c56.41,23.8,110.36,39.71,171.23,38.8c85.1-1.27,171.25-19.9,243.09-64.95l2.92-4.22c53.62-32.33,100.3-96.56,65.74-158.72  c-8.74,33.79-21.89,71.36-47.08,96.56c-0.61,0.61-1.45,0.98-2.35,1.34c-0.93,0.37-1.93,0.59-2.94,0.76l-4.95,7.96  c-18.07,19.2-52.49,37.2-76.88,47.43c-60.63,25.4-141.76,38.14-207.41,35.92c-0.96-0.03-1.92-0.4-2.9-0.81  c-1-0.42-1.94-0.99-2.87-1.6l2.54-3.04c16.37-1.56,32.65-3.6,48.82-6.15l3.68,1.28c26.95-5.93,53.74-12.51,80.37-19.74  c10.22-4.13,20.47-6.61,30.76-7.43c3.22-3.15,5.65-3.98,7.3-2.49l38.33-18.71c60.27-28.86,128.48-95.82,93.33-166.51  c-11.65,6.65-26.58,1.65-34.74-8.61c-1.04,2.02-7.73,8.67-9.43,8.24c-0.97-0.24-1.7-0.89-2.29-1.69  c-5.4,7.08-16.55-3.17-16.53-10.87c1.16-4.78-0.85-5.88-6.05-3.29c-0.13,1.98-0.99,3.11-2.57,3.39c2.25,6.09,0.95,10.29-2.75,15.38  c-2.58,3.56-9.09,10.6-13.12,7.27l-0.97,2.84c-4.69,2.1-18.46,4.57-20.84-0.75c-2.8,3.52-7.92-0.73-10.47-3.31  c-6.34-6.41-7.4-16.45-5.86-24.95c-5.76,2.57-11.43,1.5-16.87,0.15c-0.7,3.07-1.63,6.05-2.92,8.93c-0.74,1.65-1.58,1.12-1.48,1.15  c10.13,2.68,20.82,28.93,22.53,39.11c6.71,40.11-21.52,76.59-55.42,95.16c-79.67,43.65-181.96,17.32-258.98-19.71l-81.54-35.57  C256.4,910.54,119.18,943.9,7.89,1005.27c0,0-2.63,0.46-7.89,1.37v-19.92l2.01-3.67c11.03-4.91,21.52-10.75,31.47-17.5l4.04-0.24  c0.36-0.97,0.76-0.94,1.22,0.04l3.32-4.02c15.76-6.93,31.52-13.87,47.29-20.81l2.23,1.58c0.66-0.94,1.35-1.85,2.16-2.64  c0.79-0.76,1.58-1.47,2.5-1.88c10.51-4.72,23.9-10.1,35.08-9.74c4.47-3.98,10.11-6.32,16.93-7.03c8.77-2.16,34.76-8.32,41.85-6.76  c1.1,0.24,2.17,0.64,3.23,1.08c1.49-3.75,7.24-4.35,9.48-1c1.3-0.69,2.62-1.33,3.99-1.81c1.35-0.47,2.69-0.91,4.04-1  c26.35-1.77,55.45-0.88,81.58,2.87c1.34,0.19,2.64,0.74,3.95,1.33c1.33,0.6,2.59,1.35,3.83,2.15c0.68-0.49,1.37-0.93,2.12-1.23  c4.48-1.8,29.4,7.44,35.03,10.27l2.52,3.61c1.11-3.06,11.32,1.63,12.92,2.96c1.04,0.86,1.55,1.55,1.2,3.06  c3.58-2.48,13.24,2.85,14.08,6.99c0.44-0.81,1.23-1.98,1.85-1.78c7.89,2.46,18.99,7.11,26.55,10.63c4.19,0.83,6.42,2.57,6.71,5.21  l3.36-0.32c15.49,5.94,31.81,12.31,46.88,19.57c1.95,0.94,3.41,2.62,4.76,4.27c2.79-2.95,12.52,2.23,13.16,5.82  c3.08-3.09,9.45,0.45,10.23,4.48l6.98,0.98c15.19,6.91,30.41,13.63,45.66,20.16l2.54,2.64l3.55-1.14c10,4.71,20.37,8.09,31.14,10.13  l2.68,2.61c3.63-3.46,13.67-1.79,16.41,2.32l4.09-1.84l22.76,0.76l3.83,2.4l4.75-2.33c22.65-0.34,44.87-6.35,65.06-16.52l5.25-0.09  l1.84-3.66c43.62-17.96,79.89-71.04,35.02-107.79c-6.45,5.22-16.26,5.49-24.06,2.81c2.66,9.36,0.2,18.42-8.52,23.5  c-3.46,2.02-12.12,5.44-13.87,0.83c-2.09,3.87-8.22,0.92-11.51-0.82c-20.72-10.99-15.74-40.22,3.4-50.36  c-5.62-6.9-2.88-14.47,5.54-16.84c-2.06-5.28-1.66-8.82,1.18-10.62c-3.11-2.39-0.73-9.7,3.4-8.98c-1.65-4.47,4.45-8.18,8.11-10.34  c11.95-7.06,27.3-6.11,39.9-1.26c1.57-1.17,2.83-3.08,3.79-5.73c1.94-3.84,4.05-4.95,6.34-3.32  C747.33,813.22,760.83,809.16,763.83,813.84z" />
<path class="cls-14" d="M42.49,368.13c1.52-0.45,3.05-0.85,4.61-1.08c1.53-0.23,3.04-0.42,4.53-0.3c17.73,1.48,35.65,3.24,53.34,5.13  c3.08,0.33,5.98,1.57,8.79,2.83c0.57-2.27,1.58-2.31,2.28-0.07c0.34-1.28,1.63-1.92,2.92-2.1  c144.73,13.33,290.46,25.72,437.19,37.19c15.04,1.26,30.02,2.99,44.98,4.91c1.84,0.24,3.64,0.89,5.47,1.55  c1.83,0.66,3.59,1.49,5.34,2.36c0.2,1.03,0.3,2.18-0.31,3.09c-2.05,3.08-11.07,6.98-14.76,8.51  c-36.23,27.33-76.11,49.09-120.52,58.45l-92.99,18.71c-10.82,2.94-21.12,7.81-29.91,14.81l-4.2,0.45l-5.86,1.8  c-20.76-0.87-41.55-1.17-62.35-0.89c-5.35,0.62-9.96-0.4-13.86-3.05c-1.34-1.63-1.83-1.79-1.25-0.1l-0.82,2.34  c0,0-87.88-0.01-263.65-0.02L0,520.31V364.45l4.37-1.62c11.39,1.26,22.82,2.13,34.28,2.59L42.49,368.13z" />
<path class="cls-15" d="M265.92,520.33c0.32-0.96,0.74-0.88,1.25,0.1c26.7,2.15,54.7-0.87,82.06,2.14c0.82,0.6,1.17,1.35,0.95,2.28  c-24.11,19.95-48.06,40.13-65.68,67.1l0.79,3.36c-4.25,6.27-8.06,12.77-11.42,19.52l-3.04,1.46c-7.16,11.05-15.58,21.15-25.26,30.29  l-5.18,2.1c-1.11,1.29-2.33,2.61-3.96,3.2c-5.74,2.11-15.65,4.99-21.6,6.18c-1.7,0.34-3.43-0.27-5-0.85  c-4.32,3.12-9.47,4.73-15.45,4.83c-3.18,1.67-5.9,2.1-8.17,1.27l0.16,5.26c-5.9,15.85-11.12,31.87-15.64,48.07l-2.12,1.96  l-1.45,2.34c-55.24-0.08-110.48-0.17-165.72-0.25L0,718.36V520.31L265.92,520.33z" />
<path class="cls-14" d="M1200,417.35v162.38l-0.81,2.35l-274.41,0.53c-3.58-3.58-1.41-5.79,6.51-6.62c18.94-2.34,37.84-4.92,56.68-7.73  l4.4,0.93c2.09-3.82,11.78-2.42,16.02-1.52c5.37,1.13,10.14,2.98,14.07,6.98c3.44-2.04,6.68-4.69,9.7-7.95  c-1.26-1.23-1.96-2.66-2.1-4.3l0.61-2.51l35.69-7.2c-11.05,1.29-22.04,1.35-32.96,0.2c-4.91-0.98-9.73-3.42-4.81-7.56l1.16-3.88  c0,0,7.76-5.09,23.29-15.27c14.8-5.95,29.83-11.5,45.1-16.64l-31.26,3.31c-18.18,1.64-31.42,5.36-43.28,18.67l-2.95-0.66l-5.14,2.22  l-37.57-0.65l-6.28-2.46l-1.24,1.01c-3.03-1.28-6.18-2.51-9.47-3.71c-23.27,0.37-46.35-0.33-69.24-2.1l-1.93,3.16  c-15.61,2.99-31.61,3.74-47.98,2.26l-2.92-2.24l-0.35-6.42c0,0,2.61-11.6,7.83-34.79c0.07-7.51,1.49-14.37,4.24-20.6  c-2.75-12.62-3.85-27.34-1.05-39.85c14.05-1.87,21.07-2.8,21.07-2.8c102.72-0.6,205.31-4.01,307.96-7.62  C1185.75,416,1192.89,416.62,1200,417.35z" />
<path class="cls-15" d="M992.37,569.19c-21.9,6.66-45.09,4.53-69.04,11.08l276.67-0.53v138.94l-0.82,2.34c0,0-72.34-0.06-217.03-0.19  l-1.44-2.34l-3.06-2.16c-2.23-15.13-4.34-30.27-6.34-45.41c-1.81-3.62-2.14-6.85-0.98-9.7c-2.68,1.56-7.48,2-8.38-1.45  c-1.97-1.43-2.66-3.74-2.07-6.95l-11.51-0.31l-2.64-2.29c-4.88-1.15-9.8-2.13-14.74-2.94l-0.5-2.61  c-18.89-5.22-37.84-10.62-56.84-16.2c-10.66-2.97-19.07-8.45-25.22-16.46c-5.93-23.31-8.58-47.79-10.75-71.78  c-1.49-0.35-1.53-2.02-0.14-5.02c-4.76,0.35-2.83-7.8,1.37-6.88c17.59-0.86,36.71,3.1,52.82-3.18c17.88,0.76,39.65,4.6,57.06,9.69  c8.25,2.41,29.5,8.69,33.79,15.96c0.96,1.62,1.36,2.7-0.17,3.9c-10.02,5.89-10.16,8.43-0.43,7.61  C988.42,562.82,991.89,565.12,992.37,569.19z" />
<path class="cls-10" d="M1200,204.76v81.37l-0.9,2.44c-113.96,10.45-228.27,20.93-342.93,31.45c-7.5,0.58-15.97,1.16-23.34,1.12  c-0.32,0-0.63-0.55-0.94-1.25c-2.99-2.45-4.48-3.68-4.48-3.68c-7.03-16.64-13.99-33.3-20.87-49.97c-3.56-1.66-6.95-8.35-6.94-12.12  c-9.98-11.75-20.92-22.45-32.81-32.1l-1.7-3.96c81.2-6.04,163.48-10.79,244.04-9.69c0.75,2.57-0.9,4.81-4.94,6.7  c-3.21,0.54-4.58,2.78-4.11,6.72c6.2-9.95,13.63-13.83,22.28-11.65c3.65,3.54,7.14,4.35,10.48,2.43c0.79-5.35,2.71-7.79,5.75-7.31  L1200,204.76z" />
<path class="cls-11" d="M1200,321.78v95.58c-117.02,7.29-234.35,6.62-350.44,9.32c-1.87-3.4-2.8-5.1-2.8-5.1l-5.28-57.92  c-2.65-11.95-5.84-23.75-9.6-35.38l0.35-5.81c0.09-0.73,0.2-1.3,0.37-1.32c7.5-0.74,16.19-0.96,23.88-1.07  c114.34-0.21,228.36-0.42,342.05-0.63L1200,321.78z" />
<path class="cls-12" d="M1017.35,963.36c0.64,0.68,1.25,1.38,1.72,2.17c0.45,0.76,0.86,1.49,0.9,2.22  c1.76,38.7-16.35,77.42-43.36,104.6c-38.14,38.37-82.31,68.95-128.54,96.92c-0.75,0.55,12.63-3.63,17.19-5.36  c32.06-12.18,62.65-27.9,92.02-45.57c5.65-2.34,5.99-1.65,4.83,4.37c-1.39,7.21-22.58,26.23-29.24,31.58  c-21.08,16.94-44.29,30.29-68,43.49l-8.18,2.23H608.2c-75.76-5.84-152.74-17.71-224.03-39.97c-33.61-13.06-68.35-22.42-104.21-28.08  c-21.06-2.02-41.99-4.99-62.81-8.91c-0.82,0.53-1.65,1.02-2.54,1.37c-2.42,0.94-33.18-0.83-38.47-1.54  c-1.81-0.24-3.42-1.14-4.89-2.18c-0.34-7.81,10.23-15.4,16.66-19.64c22.91-15.12,54.24-17.98,81.09-17.1  c7.26,0.24,30.32,1.43,35.74,4.04c1.16,0.56,1.83,1.73,2.37,2.86c3.52,6.25,13.59,6.62,22.34,6.86c1.33,4.1-1.51,9.58,0.83,12.59  c5.17,6.65,14.95-3.06,20.93,1.41c2.25,1.68,2.19,7.23,3.68,10.17c5.95,11.71,18.39,1.88,27.63,0.37c6.13,3.01,13,12.2,22.41,6.23  c43.37,17.64,86.63,33.88,133,43.37c133.49,27.34,296.11-4.44,388.18-111.62c30.41-35.4,47.72-81.21,41.07-127.17  C985.06,944.36,984.24,971.14,1017.35,963.36z" />
<path class="cls-6" d="M1071.2,1008.78c2.64,11.07-0.93,22.3-4.34,32.89c-4.9,15.22-12.12,29.6-20.35,43.28  c7.57-5.26,17.21-10.91,11.61,4.46c-5.78,19.44-20.7,37.62-34.5,52.08c40.7-15.88,70.29-52.22,82.84-93.53l3.55-3.76  c5.71,8.51,6.46,20.52,17.59,22.05c0.41,0.81,0.78,1.63,0.99,2.49c0.2,0.82,0.37,1.61,0.19,2.3  c-17.66,69.59-92.85,98.91-154.87,118.19c-10.16,4.66-20.6,8.25-31.32,10.76h-85.93c20.79-13,43.07-23.34,63.05-38.71  c16.33-11.98,31.81-24.17,42.33-43.19c-42,25.83-86.61,47.18-134.35,60.78c52.7-31.75,101.98-62.98,144.02-104.91  c30.06-29.98,48.95-68.6,45.62-110.61c15.38-3.61,23.65,28.77,29.65,31.87c4.03,2.08,9.08-1.71,12.94-2.08  C1069.59,992.22,1068.86,1002.85,1071.2,1008.78z" />
<path class="cls-3" d="M171.25,1120.69c15.39-0.78,30.59,1.21,45.9,2.35l19.65,4.77c74.3,24.48,148.36,46.54,222.2,66.18  c4.01,1.07,5.93,3.08,5.77,6.01H0v-21.09c0.67-1.07,1.37-2.12,2.19-3.05c0.81-0.92,1.6-1.81,2.58-2.36  c34.57-19.54,70.88-36.9,109.54-46.56c11.89-2.97,43.22-10.34,53.37-7.61C168.9,1119.66,170.08,1120.15,171.25,1120.69z" />
<path class="cls-10" d="M129,257.65l4.21-0.37c17.77,8.19,38.1,22.42,51.88,36.24c3.91,3.92,21.53,21.63,21.46,24.83  c-0.11,5.21-20.38,11.17-25.42,12.1l-1.81,2.23c1.45,2.53,3.02,4.98,4.7,7.37c-3.61,2.59,0.31,5.57,3.21,2.42  c0-4.34,5.92-1.74,7.28,0.92c10.92-4.11,8.59,5.51-0.52,8.2c4.99-0.91,7.45,0.05,7.39,2.87c7.3,2.21,3.69,9.86-3.09,10.56  c6.88,9.98-3.11,9.27-10.54,8.3c-6.95-0.9-20.18-4.41-13.8-13.11c-3.94-2.17-7.51-2.52-10.7-1.03c2.01,10.41-3.83,12.16-17.53,5.24  c-4.29,3.35-10.25,3.65-17.88,0.88c-0.93,3.48-3.59,4.94-7.07,4.08c-0.15,2.84-1.95,4.99-4.73,5.25c-0.75-0.07-1.53,0.1-2.28,0.07  c-1.57-0.44-2.38-2.04-2.42-4.78c-3.42-1.04-5.81-2.99-7.18-5.86c-4.32,2.58-7.39,2.6-9.22,0.07c-3.53,2.86-7.61,4.35-9.28-1.1  c-4.83-2.11-7.24-3.16-7.24-3.16c-4.51,5.64-13.94,2.83-12.98-4.65c-2.31-4.81-4.24-3.34-4.84,1.32c2.78,7.01-7.68,11.89-12.34,6.8  c-1.27,2.98-3.2,4.58-5.78,4.78C28.42,366.65,14,367.17,0,364.45V258.98l0.79-2.35c40.4-0.42,80.85-0.84,121.35-1.26L129,257.65z" />
<path class="cls-12" d="M786.46,907.09l2.85,1.83l4.73,19.64l-1.88,2.19c0.6,0.76,1.15,1.55,1.56,2.4c0.39,0.82,0.74,1.62,0.74,2.4  c-0.04,9.63-0.52,22.8-5.92,30.36c0.44,6.69-3.7,15.34-9.01,19.33c0.02,1.85-0.25,3.68-1.17,5.3  c-6.05,10.55-35.07,34.76-46.59,38.53c-1.78,0.58-3.64,0.47-5.46,0.07c-0.43,0.85-0.89,1.67-1.48,2.39  c-5.34,6.52-41.66,13.56-51.86,15.14c-83.05,12.81-176.49-2.44-255.23-29.42c-57.45-36.04-121.61-58.72-190.07-47.17  c-4.62,0.54-4.68-1.38-0.2-5.75c0,0,9.33-2.94,28-8.81c-67.78-3.71-135.98,16.67-198.15,43.04c0,0-1.96,0.02-5.88,0.07  c-1.06,1.14-2.14,2.25-3.33,3.23c-1.17,0.96-2.35,1.87-3.66,2.52c-11.71,5.75-23.71,11.38-35.59,16.76  c-2.77,1.26-5.86,1.61-8.86,1.93v-16.41c38.76-19.59,76.77-39.31,119.96-51.91c67.06-19.57,144.47-27.6,212.32-5.77  c57.22,18.41,167.63,77,225.61,88.28c46.75,9.1,94.84,9.22,139.69-7.98c27.88-10.7,51.49-29.47,64.41-55.81  c14.24-29.04,9.72-62.73-15.06-83.85c2.67-5.12,3.76-9.32,4.84-14.88c7.53,5.22,14.68,3.82,21.83-0.1  C769.21,888.71,772.86,903.72,786.46,907.09z" />
<path class="cls-7" d="M415.92,257.87c-11.89,1.54-17.83,2.31-17.83,2.31c-72.02-0.96-144.03-0.48-216.03,1.43  c-6.06,0.08-12.08-0.7-18.07-1.6l-1.7,1.94l-39.89-11.68c4.42,2,6.61,4.45,6.58,7.37L0,258.98v-48.05l434.15,34.52  c0.59,2.12-2.44,3.95-3.77,6.2c-1.52,2.58-12.45-3.01-14.31,0.05C414.88,253.67,416.12,256.22,415.92,257.87z" />
<path class="cls-3" d="M1191.1,1089.01c0.46,0.77,0.87,1.56,1.13,2.39c0.25,0.8,0.46,1.56,0.32,2.23  c-9.38,46.07-53.65,81.94-92.34,104.4l-8.14,1.97H942.61c30.7-15.15,64.39-23.51,96.65-37.57c41.63-18.16,77.92-52.13,88.34-96.17  c10.57,1.46,21.57-1.42,32.14,2.78C1171.63,1073.76,1180.91,1082.26,1191.1,1089.01z" />
<path class="cls-6" d="M1200,718.67v38.41l-6.22,1.38c-41.37-0.32-82.72,0.23-124.06,1.65c43.92,4.96,86.88,6.97,128.9,6.02l1.39,2.35  v24.5l-0.72,2.37c0,0-44.11,1.63-132.34,4.9l-1.51-2.29l-2.98-2.16c-1.55-7.31-3.68-14.43-6.4-21.36l0.95-3.43l-3.46,1.57  c-16.11-3.89-32.22-7.78-48.33-11.67l-0.79-2.6l-2.46-1.39c0.27-7.61-1.22-14.55-4.46-20.81l0.89-2.57  c-5.02,1.67-14.19,0.17-17.33-3.9c-3.6-0.11-3.85-10.03-0.33-11.16L1200,718.67z" />
<path class="cls-6" d="M227.25,1065.28c3.61-0.01,8.27-0.52,11.79-0.03c16.75-2.01,35.32,1.67,51.5,6.07l2.33,2.14  c5.74,1.38,10.77,7.05,18.84,4.7c-2.04,5.94-4.47,8.13-4.6,12.69c-40.61-8.33-110.12-9.62-135.86,29.84  c-63.59,3.24-116.98,27.08-171.25,58.22v-49.22c0.88-1.23,1.79-2.42,2.83-3.5c1.03-1.06,2.05-2.08,3.25-2.79  c63.66-37.69,138.9-58.24,212.69-60.35L227.25,1065.28z" />
<path class="cls-12" d="M227.25,1065.28c-80.03,0.24-158.66,23.29-227.25,64.41v-35.16c43.66-26.48,90.14-47.87,140.72-58.35  c7.85-1.63,14.74-0.16,20.1,5.39c19.03,19.71,32.76-13.51,59.43-0.66C217.24,1051.92,218.28,1061.18,227.25,1065.28z" />
<path class="cls-9" d="M1200,286.12v35.65l-367.77,0.68c-3.13-0.38-3.13-1.23-0.34-2.57L1200,286.12z" />
<path class="cls-6" d="M168.61,718.62l1.49,0.48c-2.79,14.53-6.29,29.2-10.51,44l-2.61,0.75c-3.27,0.85-6.59,1.18-9.96,0.91  c-45.71-3.59-91.32-6.65-137.24-6.33c0,0-3.26-0.86-9.77-2.57v-37.5L168.61,718.62z" />
<path class="cls-3" d="M1200,792.98v59.86c-3.44,2.55-7.9,2.89-13.38,1.02c-33.21-10.67-60.31-18.39-95.93-14.96  c-5.21,1.59-10.1,1.72-14.65,0.4c-0.8-0.49-1.57-1.01-2.22-1.64c-3.08-2.99-8.59-28.48-9.56-34.77l1.16-4.92L1200,792.98z" />
<path class="cls-6" d="M608.2,1200H464.77c-7.65-5.85-17.95-7.17-28.3-10.09c-73.94-20.85-148.39-39.82-219.32-66.87  c140.5,10.49,123.98,29.45,238.27,53.1C506.51,1186.72,557.52,1193.03,608.2,1200z" />
<path class="cls-6" d="M1200,1093.63V1200h-107.91c42.3-23.24,89.97-60.62,99.02-110.99C1193.88,1090.84,1196.94,1092.42,1200,1093.63  z" />
<path class="cls-12" d="M1200,868.03v9.21l-2.63,3.29c-12.28,5.05-28.5,6.5-41.7,6.45c10.89,4.58,22.94,4.74,34.62,4.78l2.57,2.35  c3.52,2.99,1.89,11.09-2.25,13.17c0.28,3.5-2.15,6.2-7.28,8.09c-6.39,3.84-12.84,5.74-19.35,5.69l-2.33,1.37l-26.25-14.97  c-12.7-6.57-27.17-2.66-40.04,1.32l-2.87-1.57c-3.94-2.03-7.57-16.53-7.06-20.54c0.16-1.26,1.15-2.25,2.08-3.09l1.53-2.28  c10.13-4.81,21.07-7.53,32.81-8.17c-10.83-2.33-22.2-1.77-33.2-0.6l-4.45-1.76c-4.85-2.34-7.28-11.68-4.79-16.35l3.59-3.2  c15.89-5.36,39.28-2.82,55.56,0.34c19.16,5.63,38.56,10.2,58.21,13.74L1200,868.03z" />
<path class="cls-3" d="M99.54,1024.91L0,1076.95v-53.91c16.82-8.89,34.22-16.61,51.44-24.44c1.35,0.79,2.56,2.15,3.61,4.07  c4.85,0.9,9.79,0.45,14.82-1.36c13.65-4.72,27.55-8.28,41.7-10.68c4.67-0.66,11.32-0.34,7.99,5.47  c-10.93,6.72-20.72,14.39-29.37,22.99C94.82,1019.99,97.94,1021.93,99.54,1024.91z" />
<path class="cls-3" d="M147.5,797.99c2.97,1.4,3,2.06-0.06,3.5c-0.97,0.84-1.98,1.6-3.11,2.11c-3.18,1.45-6.67,2.69-9.98,3.84  c-14.6,5.06-28.99,10.19-43.5,15.5c-2.35,0.86-4.91,0.81-7.38,0.72c2.02,3.11-1.13,11.25-4.86,11.87l-4.73,0.86  c-22.49-7.13-46.8-6.15-69.13,1.17L0,836.72v-43.36l0.89-2.32c48.41,1.52,96.83,3.04,145.26,4.56L147.5,797.99z" />
<path class="cls-12" d="M1200,939.2v26.83c-0.54,0.79-1.11,1.54-1.8,2.18c-7.69,7.19-42.8,6.23-54.18,5.35  c12.93,5.31,26.4,8.84,40.42,10.6c2.2,1.18,1.98,2.1,0.15,3.68c-4.05,3.5-22.88,4.58-29.05,4.3c-11.38-0.51-32.42-7.64-43.43-11.86  l-2.01-2.92c-0.9,0.1-2.23,0.19-2.52-0.43c-0.66-1.44-4.6-17.38-4.6-18.81l1.89-2.14c0.11-1.21,0.56-2.25,1.38-3.14  c3.23-3.48,21.95-3.49,27.1-1.78c15.26,5.4,30.55,7.34,45.85,5.81c-15.88-3.08-30.71-9.66-44.66-17.76  c-4.94,2.34-8.23,3.74-10.14-2.91c-7.27-2.42-15.09-3.33-22.64-1.8l-2.66-1.76l-2.48-0.81c-1.34-2.9-4.27-12.69-0.96-14.21  c3.04-5.41,13.01-5.15,19.01-4.97c16.83,2.54,32.86,8.43,48.1,17.67c10.65,5,22.32,8.23,34.19,6.91L1200,939.2z" />
<path class="cls-6" d="M155.81,766.68c2.78,5.44-2.31,26.54-6.07,29.83c-0.67,0.58-1.44,1.05-2.24,1.47L0,793.36v-22.27l0.74-2.37  c51.41-1.87,102.82-3.07,154.21-3.59L155.81,766.68z" />
<path class="cls-6" d="M1200,966.03v41.66c-0.66,0.83-1.34,1.62-2.13,2.29c-6.93,5.81-49.29,9.74-60.12,9.04  c-2.92-0.19-5.35-1.03-8.02-2.27c-4.04-3.14-9.34-7.3-13.27-10.25c-3.75-2.29-8.85-26.17-7.73-28.03c0.28-0.47,0.79-0.8,1.36-1.1  c30.17,7.33,38.32,18.75,74.91,8.45c-18.88-2.23-37.3-4.59-52.18-16.81C1156.67,973.96,1178.48,972.8,1200,966.03z" />
<path class="cls-12" d="M74.86,847.4c-0.97,14.4-5.25,28.48-12.58,40.92c-2.57,5.74-6.41,5.77-11.96,4.72  c-7.23-3.38-14.68-5.64-22.35-6.78c-3.66-1.29-9.37-4.01-5.86-7.65l-2.6-1.38c-2.4,1.05-6.36-0.23-6.35-2.93  c0.03-6.45,23.49-13.58,29.73-13.86c-13.3-2.98-27.09-0.19-39.36,5.34L0,864.84v-14.06c0.39-0.82,0.81-1.6,1.36-2.29  c6-7.54,38.99-9.63,49.28-8.71c5.37,0.48,19.57,2.15,22.67,5.45C73.92,845.87,74.4,846.62,74.86,847.4z" />
<path class="cls-3" d="M1200,1007.69v54.4c-26-10.07-48.27-28.27-70.27-45.36C1153.74,1016.75,1176.89,1014.95,1200,1007.69z" />
<path class="cls-16" d="M1200,852.84v15.19c-45.32-4.69-68.3-25.94-120.59-13.6c-4.16-1.37-5.84-11.82-3.36-15.12  c29.33-7.2,59.63-4.31,88.65,5.77C1176.59,849.2,1187.93,852.86,1200,852.84z" />
<path class="cls-6" d="M50.54,926.09c2.29,4.76-0.91,13.99-2.85,19.35c-0.68,4.39-2.57,6.93-5.67,7.6l-2.57,2.24  c-4.49-0.13-8.98-0.08-13.43,0.5c-19.93,2.63-9.65,3.91,2.7,4.64c5.04,0.08,7.97,1.7,8.81,4.89C26.87,974.33,12.69,980.1,0,986.72  v-42.19c1.28-2.5,3.55-4.73,6.81-6.69c3.78-8.5,14.72-11.87,23.61-13.55C36.34,923.17,46.64,921.47,50.54,926.09z" />
<path class="cls-3" d="M156.98,763.84c2.96,1.67,2.04,2.82-1.17,2.84L0,771.09v-15.23C52.34,757.15,105.35,756.59,156.98,763.84z" />
<path class="cls-3" d="M1200,757.09v11.4l-57.49-0.27c-34.15-0.16-67.29-4.79-101.84-9.81C1093.3,756.27,1148.64,755.44,1200,757.09z" />
<path class="cls-16" d="M1163.97,921.07l4.49-0.3c9.03,3.89,18.97,4.48,28.68,3.63l2.86,2.08v12.72c-41.26,6.3-62.1-34.93-104.36-21.58  c-3.37-0.88-5.97-7.92-3.16-10.4c14.88-4.6,30.86-9.35,45.03-1.26L1163.97,921.07z" />
<path class="cls-12" d="M56.26,908.13c0.83,0.38,2.04,1.03,1.93,1.67c-0.62,3.53-3.41,12.22-4.93,15.47l-2.72,0.82  c-13.73-1.55-27.41,0.38-39.56,8.51c-1.4,5.61-5.97,8.37-10.98,9.93v-8.2c2.63-6.39,7.45-11.55,14.46-15.49  c10.66-6.19,16.46-9.59,1.01-5.77c-4.37,1.08-8.48,2.96-12.54,4.85L0,918.75v-14.06c5.33-6.37,18.52-5.95,26.78-5.45  c5.38,0.32,23.37,2.93,26.9,5.55C54.87,905.66,55.76,906.72,56.26,908.13z" />
<path class="cls-16" d="M22.11,878.6c3.41,7.47,10.27,4.95,16,7.06c8.76,3.22,15.65,9.1,24.17,2.66l1.86,1.94  c-0.24,1.67-4.57,16.31-5.16,16.98c-0.63,0.72-1.74,0.83-2.72,0.89c-18.74-6.56-37.13-9.45-56.26-3.44V891.8l1.32-2.49  c5.03-0.59,8.77-3.48,11.22-8.68C15.3,878.08,19.64,875.12,22.11,878.6z" />
<path class="cls-16" d="M78.61,835.53c3.49,1.44-0.15,11.98-3.75,11.88c-24.84-8.66-50.84-7.28-74.86,3.38v-14.06  C25.3,827.49,53.25,826.29,78.61,835.53z" />
<path class="cls-6" d="M22.11,878.6C8.75,880.22,16.23,890.49,0,891.8v-26.95c16.95-8.31,36.85-11.47,53.97-2.92  c-14.35,0.7-28.79,3.23-39.19,12.45c2.22,1.62,4.3,0.55,6.56,1.18C22.41,875.85,21.85,877.34,22.11,878.6z" />
<path class="cls-6" d="M1200,877.24v15.28c-0.64,2.81-5.93,4.97-7.14,1.6c-16.74-0.04-34.01,0.09-48.02-10.66  C1164.67,886.88,1182.28,882.99,1200,877.24z" />
<path class="cls-6" d="M1200,904.22v22.26c-12.4,1.33-25.19,0.79-36.03-5.4c9.02-4.5,19.55-6.4,26.63-13.79  C1192.11,903.85,1197.34,900.87,1200,904.22z" />
<path class="cls-7" d="M0,936.33v-17.58c10.47-5.2,21.84-9.69,34.55-5.96C20.71,918.04,9.93,926.28,0,936.33z" />
<path class="cls-9" d="M1200,892.52v11.7l-9.39,3.07c1.43-4.27,1.55-8.75,2.25-13.17C1195,894.12,1197.55,891.7,1200,892.52z" />
<path class="cls-16" d="M476.96,123.25c2.72,5.26,5.42,11.3,9.85,15.97l20.31-3.39c11.15-1.86,22.29,7.86,33.58,11.48  c-5.9,4.36-55.74-15.51-43.11,3.64c-7.95-3.38-26.89,0.34-27.99-3.68c-0.7-2.56-3.62-5.25-0.22-5.26c3.21-0.01,5.33,0.05,8.93-0.38  c-2.46-6.7-7.27-11.94-11.73-16.49c-7.19-7.34-15.43-11.97-23.03-21.37C454.51,109.91,468.32,113.64,476.96,123.25z" />
<path class="cls-4" d="M288.32,145.29c4.91,2.75,8.18,7.89,13.33,12.56c12.33-5.82,24.57-1.35,36,4.74l-27.46-2.01  c-4.01,2.52-3.33,6.25-9.5,5.1c-6.34-1.18-7.65-1.54-7.7-6.7c-2.99-8.21-20.52-16.31-31.5-14.96c-0.73-1.29-3.1-0.62-2.67-3.72  C269.28,142.94,279.36,141.86,288.32,145.29z" />
<path class="cls-10" d="M636.36,229.59c0.41,1.4-0.75,2.41-3.46,3.01c-0.11,2.09-1.46,3.62-4.06,4.59c0.07,2.82-0.93,4.31-3.01,4.46  c-0.03,4.65-0.62,9.43-1.78,14.34l0.61,4.92c1.7,2.75,2.1,5.15,1.2,7.2l-0.66,6.29c-5.04,8.86-6.96,20.23-7.34,30.58  c-0.01,0.3,0.42,0.62,0.97,0.94c1.59-1.42,4.18-2.04,7.77-1.85c0.91-2.76-0.79-3.04-5.1-0.85l-1.81-2.08  c-0.73-0.42-1.3-0.84-1.3-1.26c0.02-6.15,1.86-14.86,4.37-20.47c0.17-0.38,0.87-0.51,1.72-0.58c1.16-2.25,3.5-1.45,7.02,2.41  c-0.04-2.27,0.85-2.21,1.33,0.1c3.72-0.16,10.57,6.57,9.37,10.33c8.86,4.07,16.23,9.79,22.1,17.15l-0.86,3.04  c1.53,5.26-2.18,9.29-6.73,11.58c-7.06,1.5-8.31,4.02-3.76,7.56c2.62-0.36,4.5,0.28,5.66,1.91c-0.1,2.17,0.23,4.08,0.97,5.74  c5.08-1.55,5.07,7.8,3.8,11.74c-0.41,1.28-14.75,17.9-16.87,20.03l-2.86-0.25c-2.31,0.24-4.56-0.65-6.76-2.67  c-0.15-4.75-1.65-5.82-4.5-3.22c-11.37-3.7-4.32-14.3,5.88-10.72c9.23-5.55,7.95-8.12-3.84-7.72c-2.74-2.45-4.21-2.69-4.41-0.72  c5.15,13.57-10.88,3.41-12.37-3.16c5.46-5.05-0.43-6.56-2.46-0.29l-1.86,0.25c-6.94-3.75-13.78-4.53-20.53-2.36  c-4.25-3.62-7.65-2.34-10.18,3.83c2.35,5.7-0.04,10.84-6.65,9.99c-0.54,9.36-9.87,9.59-13.65,1.36c-3.74,2.44-7.91,3.74-12.28,2.42  c0.14,10.49-13.25,13.31-7.66,2.31c-3.88-1.74-4.68-5.1-2.43-10.08l-3.94-3.69c4.93,7.98,1.03,19.42-6.06,8.04  c-2.6,2.75-5.18,3.41-7.75,1.98c-7.27-18.07-19.07-21.01-36.24-11.95l-2.65-1.24c-3.5-4-7.17-4.99-11-2.96  c-0.68,4.4-4.04,5.79-10.07,4.17c-3.11,2.45-6.94,1.84-10.41,0.78c-2.51,6.17-5.88,4.01-9.91,0.8l-0.33,1.12  c6.2,7.5,3,18.36-5.52,7.71c-11.57,3.6-5.15-4.74-1.12-9.28c-3.76-0.77-6.1-0.09-7.04,2.02c-10.86-0.38-8.76-10.55-3.75-17.16  c-2.62-5.18-5.18-4.24-4.88,2.07c-4.14,7.95-8.95,10.16-14.42,6.61c-3.13-3.72-2.92-1.38-1.71,2.22c6.34,4.59,4.63,9.45-3.25,9.28  c-2.11,1.96-4.41,3.73-6.9,5.31c-6.06-0.88-11.16,0.3-15.3,3.52c-2.24,6.92-6.67,6.29-13.3-1.87c-8.99,7.29-16.56-4.75-9.63-11.96  c-2.9,0.97-5.71,2.98-8.43,6.04c-8.67-5.59-16.77-6.43-24.31-2.53c-4.46,5.82-9.08,7.8-13.88,5.96c-3.03,3.45-5.59,3.15-8.71,0.17  c0.46,7.7-8.39,10.97-9.83,2.71c-3.06-2.96-5.68-6.38-7.88-10.28c-1.57,7.13-4.66,6.41-10.07,2.79c-0.09-5.38-5.72-6.69-9.33-3.33  c-6.8-2.99-7.52-0.09-2.15,8.7c0.13,5.2-1.46,5.7-6.22,4.19c3.07,8.59-9.93,13.64-13.53,6.06c-5.65,4.92-10.54,5.49-11.17-3.48  c-1.12,11.27-7.96,2.29-11.81-3.44c-4.55,2.55-7.88,2.71-9.97-2.86c-1.98,2.26-5.9,0.48-6.77-1.5c-1.52-3.46,2.87-16.16,6.75-18.67  c0.11-0.94,0.38-1.84,1.05-2.53c0.52-0.53,14.18-0.12,14.9,0.08l1.84,1.85c6.1-0.97,8.77,0.71,8.02,5.06  c1.54,1.5,3.43,1.38,5.69-0.34c-4.5-5.41-4.24-8.4,0.78-8.96l1.72-2.41c1.66-5.61,13.86-6.04,17.25-1.42l1.3-1.7l-5.76-7.29  c-2.08,1.05-2.63,0.36-1.18-1.45c0.69-3.05-0.96-5.24-4.96-6.58c-0.79-0.9-0.37-2.05,1.26-3.46c-0.75-4.11,6.01-9.86,9.42-12.73  c2.23-1.88,4.24-3.42,6.72-4.97l48.7-20.41c-18,1.95-35.67,5.43-53,10.43c-11.81,11.83-24.12,23.02-36.92,33.56l-2.66-0.98  l-41.56-41.76l-15.14-6.64l-0.91-2.76c83.81-3.85,168.9-2.2,251.92-2.14L606.73,258l-150.55-12.59l169.36-16.7  C629.71,228.3,634.09,225.41,636.36,229.59z" />
<path class="cls-16" d="M967.05,150.08c-21.33-12.28-48.6-4-74.39-8.86c18.4-2.7,36.38-7.76,55.69-8.48l33.25,12.47l28.41-29.24  c16.66-7.27,34.58-10.6,54.33-14.87l-43.7,23.86c-10.71,5.85-17.54,16.56-26.65,24.89l17.34,5.97l-7.53,8.57  c0.17-0.2-35.82-6.83-43.63-4.62C960.43,155.84,962.98,152.76,967.05,150.08z" />
<path class="cls-16" d="M765.08,218.05c13.88,8.82,25.52,22.6,34.51,36.06l-3.84-0.03c-20.49-20.47-40.8-35.22-70.27-39.54  c-22.86-3.35-41.46,2.44-59.71,15.76c-4.85,2.47-14.37,7.14-17.93,1.86c-2.99,3.24-12.01,3.86-14.96,0.42  c0.79-0.78,2.12-3.07,3.46-3.01C671.88,231.33,680.38,187.74,765.08,218.05z" />
<path class="cls-4" d="M1038.59,205.25c-4.51,5.39-1.4,9.04-6.89,10.48c-6.02,1.57-7.81-2.75-11.42-3.94  c-9.56-3.18-14.27,8.35-21.13,14.17c-3.97-2.37,0.69-7.57-1.66-11.37c5.69-0.19,8.15-3.76,11.63-6.22  c5.79-4.09,12.76-0.48,20.09,0.83c7.03-14.09,20.74-17.21,35.12-15.36C1054.53,197.3,1044.05,197.55,1038.59,205.25z" />
<path class="cls-6" d="M726.3,1029.13c3.59,0.66,4.32,7.36,1.38,9.57c2.59,2.86,2.72,4.92,0.08,7.75c0.95,1.38,1.22,2.3,0.8,2.77  l17.54-6.91c2.69-1.31,10-3.47,11.23-0.14c1.25,3.4-19.31,19.79-24.15,23.59c-25.4,19.92-55.9,37.31-87.51,44.3  c-17.5,6.17-37.37,3.1-55.04,7.91l-3.83,2.32c-10.32,1.17-26.31,1.37-36.68,0.44c-43.28-3.88-89.36-8.74-132.04-16.87l-17.2-4.82  c-12.4-5.72-24.5-12.89-35.65-21.76c2.82-5.55,7.19-10.9,6.08-16.52l2.23-2.2l21.43,0.18c5.93-0.12,9.47,1.6,10.63,5.15  c0.14,0.97,0.06,2.01-0.71,2.59c-15.89,11.99,17.16,18.91,5.17,0.77l0.08-3.15c6.58-2.08,13.77-2.12,21.58-0.11  c27.34,4.3,54.63,8.95,81.87,13.95c28.52,4.58,57.56,7.32,86.38,4.07c-61.19-5.19-122.16-11.16-175.14-41.44  c-26.98-18.01-54.06-35.46-88.25-33.02l-8.25-1.98c-18.74,1.26-36.84,1.45-57.19,10.64c1.95-12.52,6.27-18.96,0.3-26.58  c-18.01-22.96-71.89,10.35-93.87,19.09c-4-7.49-11.61-11.89-21.17-8.18c-19.12,7.42-38.81,14.92-56.84,24.35  c-4.63-1.47-9.21-3.05-14.28-5.4c11.35-10.73,23.09-18.6,34.53-26.32c-23.18-3.81-70.26,25.38-68.35,5.43  c61.81-28.09,151.4-53.65,220.54-44.32c-15.97,3.46-32.03,6.48-47.44,13.95c77.86-11.47,128.94,8.32,194.21,46.9  C498.33,1045.78,649.88,1064.88,726.3,1029.13z" />
<path class="cls-1" d="M622.22,751.59l2.1,3.49c0.63,5.79,0.9,16.07-2.17,20.53c0.85,0.67,0.53,1.84-0.03,2.69  c3.13-0.08,3.05,1.03,0.17,2.18l2.15,42.62c-0.3,68.86-0.6,137.42-0.9,205.68l-2.35,1.44c-10.29-0.22-20.42,0.23-30.68-1.32  l-2.33-0.86l2.01-116.85c-2.92,1.92-5.39,1.41-7.42-1.51l-1.05-123.94c-3.93,0.01-8.79,4.89-11.76,8.31l-2.32,130.81  c3.58-0.97,6.07-0.27,7.47,2.1l1.32,98.17l-2.32,1.45c-13.48-0.93-25.27-7.01-37.36-11.6l-2.86-2.67l-21.1-116.9  c-0.69-1.74,0.08-2.55,1.75-3.51l-7.27-1.18c-10.4-5.48-20.79-10.97-31.18-16.45l-0.13-2.72l-2.58-3.05l-3.78-22.58l1.89-3.6  l1.74-1.91l54.03,16.87c9.41-37.34,18.58-75.9,13.74-114.61l1.56-5.31c2.13-0.31,4.26-0.56,6.39-0.64c2.12-0.08,4.22-0.11,6.28,0.18  C577.59,740.04,601.29,743.62,622.22,751.59z" />
<path class="cls-3" d="M869.33,1093.35c-27.32,22.53-63.7,35.43-98.67,46.34c-42.35,13.21-85.35,18.08-129.62,20.44  c-43.24,2.31-84.93-2.37-126-16.28c-39.11-13.26-77.2-27.77-114.17-44.82c48.71,6.76,97.29,15.28,147.33,19.21  c15.11,1.19,28.23-0.51,42.41-0.28c95.7,1.61,224.19-18.15,295-88.89c1.81,3.11,1.37,6.74-1.33,10.87  c-14.65,33.82-60.77,57.26-92.17,73.07c24.49-2.95,48.74-8.71,71.11-19.27L869.33,1093.35z" />
<path class="cls-2" d="M397.26,708.38l2.31,0.9c-1.48,37-2.96,74-4.44,111.01l-2.4,1.33c-1.48,2.95-4.35,4.53-8.61,4.76l37.72,19.15  l0.18,2.72l2.31,2.21l-2.11,19.35c0.66,4.62,0.16,8.4-1.49,11.32c1.08,0.39,1.02,0.75-0.11,1.1l0.57,5.39  c-5.86,21.56-10.72,43.37-14.58,65.44c0,0-1.16,1.44-3.47,4.31l-35.11-14.06l-2.08-1.96l2.41-17.52c-5.84,1.3-9.42,6.79-11.69,11.99  l-2.72,0.51l-14.11-6.02l-1.83-2c3.99-12.66,7.99-25.32,11.99-37.99l2.75-0.92c-0.11-1.66-0.17-3.31-0.06-4.96  c0.11-1.64,0.22-3.24,0.71-4.72c5.92-18.02,11.92-36.04,18.51-53.83c-0.08,0.25-0.32,0.48-0.56,0.36  c-1.29-0.66-17.58-21.28-17.98-22.67c-0.9-3.15,1.25-28.56,1.87-33.54l2.45-1.54l-1.85-2.85c2.7-20.15,5.49-40.29,8.38-60.42  l2.51-1.05C376.07,702.33,388.72,704.17,397.26,708.38z" />
<path class="cls-2" d="M685.27,848.33c-1.19,3.88,1.31,8.26,1.36,12.6c-4.21,0.68-7.8,2.38-8.59,6.16c-0.7,3.37,1.22,6.51,4.77,9.79  c-12.08,4.7-19.17,15.41-18.74,27.26c0.46,12.6,9.85,22.07,22.58,22.83c0.93-0.01,2.36,0.17,2.45,0.81  c3.41,23.53,6.92,50.8,8.47,74.46c1.22,4.05,0.78,7.06-1.33,9.03c-22.88,12.34-48.74,19.49-75.05,18.93l1.1-249.74l2.42,0.57  l12.14,115.23c0,0-0.6,1.18-1.81,3.55c-4.92-0.8-7.4,5.31-1.72,2.75c4.13-1.87,32.98-20.64,33.73-22.52l-1.02-44.4  c0.86-3.45,2.17-3.16,5.1-2.43c0.91,0.23,13.32,11.64,13.91,12.47L685.27,848.33z" />
<path class="cls-2" d="M1034.52,813.28l2.53,4.02l1.72,18.57c1.96,6.56,2.53,12.75,1.7,18.58l2.87,5.19  c3.23,32.59,6.45,65.15,9.67,97.68l-2.19,1.65l-63.11-38.05l-2.49-2.77l-1.16-22.29c-6.71,3.32-10.96,2.91-12.75-1.23l1.02-73.95  c4.22-6.08,7.66-12.62,10.13-19.6l3.18-1.9c0.81-3.14,1.65-3.25,3.38-0.49c1.3-2.81,2.06-2.59,2.48,0.43l2.45,0.79l5.69,48.1  c2.87-14.83,3.69-29.99,4.43-45.05l2.57-4.7c1.41-4.38,8.61-3.36,12.56-2.49C1028.57,797.82,1033.71,803.72,1034.52,813.28z" />
<path class="cls-4" d="M681.91,739.47l2.41,0.94c1.52,24.53,3.04,49.07,4.55,73.62l-2.25,1.56l-1.68,2.05  c-9.31-3.01-15.67,8.02-2.76,6.52l2.03,1.97l1.58,0.37c0.53,4.31,1.48,8.6,2.88,12.87c-1.75,2.36-2.56,6.21-3.4,8.98  c-6.62-2.44-9.36-9.59-16.93-14.13l1.08,47.18c-13.59,7.72-24.25,19.2-39.35,25.18c-3.97,1.57-1.84-3.79-1.79-5.66  c0.1-4.04,2.45-2.6,6.39-2.96l-12.37-117.47l-0.17-2.18c0.36-1.03,0.41-1.64,0.03-2.69c-0.05-7.83-0.67-16.22,0.06-24.02l0.58-2.51  c19.09-3.88,38.18-7.75,57.29-11.63L681.91,739.47z" />
<path class="cls-12" d="M764.1,1080.4l2.55-4.19c40.37-23.4,79.02-55.34,91.54-102.16c-3.89,5.85-18.3,27.19-25.05,25.1  c-0.38-0.12-0.34-1.42-0.02-3.04c16.32-30.07,24.01-64.34,15.15-97.92l1.03-5.06c5.38-1.51,8.66-5.95,12.26-11.53  c6.73,13.85,20.86,16.96,34.99,11.74c12.31,18.39,13.53,40.1,8.64,61.51C890.87,1017.58,820.6,1061.13,764.1,1080.4z" />
<path class="cls-6" d="M869.33,1093.35c-27.81,14.29-59.07,20.85-91.63,23.47c36.16-15.48,98.28-47.45,107.93-87.75  c28.02-27.99,42.43-65.2,51.23-105.01c20.58,31.13,20.11,72.97-0.02,104.48C920.02,1054.85,896.6,1079.34,869.33,1093.35z" />
<path class="cls-4" d="M1065.43,797.97c3.68,13.75,5.83,27.9,10.62,41.33c1.68,4.7,2.01,10.25,3.36,15.12  c1.55,5.6,2.74,10.99,4.79,16.35c4.2,0.5,5.39,9.67,3.3,12.8c0.48,8.04,3.05,15.75,4.99,23.64c0.74,2.99,3.01,7.65,3.16,10.4  c0.22,4.12,3,10.77,3.45,15.02l2.7,2.44l4.62,17.55l-1.55,3.35l5.23,21.38l6.37,29.13l-37.24-27.89l-3.18-4.3l-18.04-97.8  l-14.81-16.3l-2.71-5.75c-4.11-13.06-5.39-27.42-5.95-41.17c-2.21-6.02-3.15-12.09-2.83-18.22c7.04-8.19,14.36-16.1,21.96-23.74  l3.33-0.32C1061.19,779.1,1062.99,788.88,1065.43,797.97z" />
<path class="cls-2" d="M514.53,891.89l22.21,123.08c-18.58-7.06-37.52-14.32-55.19-23.77l-2.46-2.89c0-5.92-0.66-11.74-1.98-17.46  l-3.07,15.42l-2.72,0.45c-4.4-1.13-9.04-4.35-13.16-5.82l-2.25-1.7c-0.83-25.06-1.53-50.13-2.11-75.23l2.31-1.46  c9.68-5.72,21.55-7.91,32.64-6.04l2.75,2.51c0.68,10.13,1.61,20.21,2.82,30.22l1.02-31.11l2.58-2.86  C499.87,889.21,509.24,890.41,514.53,891.89z" />
<path class="cls-2" d="M189.96,848.04c1.39-3.38,9.5-1.65,10.45,1.51c0.93,0.04,2.32,0.24,2.42,0.91c1.81,12.28,3.5,32.42,3.35,44.66  l-1.45,11.92c3.45,1.19,1.45,6.89-1.93,7.1c-3.04,0.2-6.46,0.54-9.48,1l-3.21-0.81c-5.37-13.7-9.32-27.91-11.84-42.63  c-4.71-11.1-8.63-16.97-11.1-0.6c-0.55,11.7-1.54,23.29-2.98,34.79c-1.36,7.21-16.35,23.22-16.51,9.32  c-3.68-5.32-6.83-10.65-9.44-15.97l-3.55,3.09l-0.96,23.94l-2.41,1.58c-13.41,4.24-26.88,8.6-39.74,14.26l-0.54-5.39  c4.07-30.98,8.57-61.88,13.51-92.7l2.24-4.95c0.16-4.4,9.59-5.13,13.41-4.88c10.75,0.69,14.18,6.07,15.7,16.11  c1.58-4.8,4.07-7.97,7.48-9.52l43.87,4.63L189.96,848.04z" />
<path class="cls-4" d="M841.61,756.92l-0.16,2.57c-19.99,7.72-40.02,15.45-60.1,23.2l-11.22,1.82c0.52,1.79-0.11,3.65-1.9,5.59  c-1.23,7.45-1.83,15.07-1.81,22.86l-2.59,0.87c-5.87-0.2-12.08,1.75-17.02,4.86c-0.93-0.03-2.32-0.23-2.42-0.89  c-3.03-20.04-3.65-43.07-2.78-63.27l-1.98-2.35c-0.28-10.44,0.46-32.23,15.3-28.52l2.82-2.25c21.97-5.27,44.02-10.49,66.15-15.67  l6.76,0.18c2.99,0.06,4.93,2.17,5.81,6.32c3.05,13.73,5.32,27.65,6.8,41.75L841.61,756.92z" />
<path class="cls-3" d="M410.13,1064.1c-1.63,2.93-3.21,2.81-4.54-0.22c-10.2-5.01-22.7-2.16-34.28-3.13  c-4.09-20.71-35.59-12.99-38.45-19.59c-2.11-4.88,11.37-14.03,7.38-25.73c-1.58-4.64-6.84-7.51-11.92-9.85  c72.94-4.92,78.51,37.29,151.61,55.66c47.11,11.84,94.51,18.02,143.01,19.21C549.94,1097.4,477.95,1069.03,410.13,1064.1z" />
<path class="cls-2" d="M741.6,754.54l5.21,64.16c-3.97,2.5-6.06,7.11-7.68,12.64c-17.31-8.06-39.05-7.34-50.45,8.02  c-5.46-0.97-4.15-8.51-4.46-13.23c-0.67-2.11-0.01-4.11,1.97-6.02c-0.97-1.75-0.82-3.25,0.44-4.52l-4.71-76.12l4.84-3.43  c10.75-3.1,33.22-9.44,43.37-9.56c3.13-0.04,4.39-0.01,5.49,2.94l3.54,26.17L741.6,754.54z" />
<path class="cls-6" d="M849.29,893.13c10.68,35.77,3.85,72.36-15.26,105.52c13.13-10.98,22.12-24.69,29.58-38.53  c-9.27,58.67-53.35,93.71-99.51,120.28l-7.3,2.49l0.87-4.53c19.33-18.99,35.29-40.14,47.87-63.44l4.82-12.82  c1.7-2.87,1.16-5.33-1.61-7.39l-0.57-2.69c5.45-5.33,13.39-24.19,0.01-23c-2.77-0.55-3.94-2.79-1.87-4.67l10.96-26.2  c5.48-6.43,6.97,2.24,7.12,7.96l-0.04,11.83c5.88-22.37,9.28-46.75,0.54-68.82l-0.76-6.75c0.03-2.66-0.79-4.93,2.63-5.84l8.47-2.25  c-0.2,5.15-0.93,10.08,2.12,14.06C840.06,891.87,844.8,894.39,849.29,893.13z" />
<path class="cls-1" d="M696.24,1011.28l-9.59-84.3c6.86,0.41,14.21-2.28,17.96-7.48c4.55-6.3,3.51-13.1,0.54-21.42  c9.92,5.78,19.09,4.78,28.09-0.36c25.44,15.41,28.61,49.31,12.95,73.94C734.31,990.34,714.93,1001.2,696.24,1011.28z" />
<path class="cls-4" d="M918.76,760.56l2.47,0.21c8.8,34.81,17.61,69.69,26.45,104.65l0.38,11.06l2.09,1.83  c0.16,4.02-1.7,17.06-6.91,15.74c-8.11,7.63-28.68-28.13-50.26-45.67l-2.32-3.45c-3.54-17.04-7.63-33.98-12.26-50.81l1.63-4.17  c-0.82-4.64,10.69-12.55,13.74-7.02c3.89,13.14,4.78,11.29,2.68-5.55l2.22-1.85l0.15-2.91  C903.27,767.81,912.09,759.56,918.76,760.56z" />
<path class="cls-1" d="M106.79,839.06c-4.68,34.37-8.45,69.04-15.22,103.04l-52.83,23.25c-2.02-2.77-0.92-11.87,3.28-12.31  c4.48-8.38,5.67-18,8.52-26.94l5.73-17.96l6.02-19.81c4.14-13.62,8.29-27.35,12.58-40.92l3.75-11.88c1.21-3.82,2.84-8.46,4.86-11.87  C91.93,823.8,103.13,831.46,106.79,839.06z" />
<path class="cls-2" d="M590.51,1028.89c-5.25-0.79-11.17-1.96-16.41-2.32l-1.35-100.39l-7.54,2.85l2.42-136.45  c4.98-4.81,9.91-9.1,16.39-11.09l1.1,128.98c3.65-0.86,4.52-3.29,7.48-3.49L590.51,1028.89z" />
<path class="cls-1" d="M770.13,784.52c13.56-1.89,27.37-2.03,41.44-0.43l1.6,2.42c3.42-1.73,6.01-1.8,9.57-1.85  c16.97-0.27,38.93,1.31,56,2.9l1.28,2.41c3.27,19.86,11.96,38.96,12.95,58.43c-10.44-8.48-60.46-40.14-73.33-20.76  c-2.29-5.91-6.08-10.23-11.79-10.52c-6.28-0.32-10.14,4.49-13.39,11.25c-9.22-8.53-19.15-14.13-30.63-14.52  C766.3,804.06,761.25,789.93,770.13,784.52z" />
<path class="cls-3" d="M756.8,1082.9c-36.04,12.3-73.3,22.77-111.13,27.17c41.03-14.47,79.77-36.5,110.57-68.06  c-13.77,2.08-22.62,11.07-36.42,10.58l7.94-6.13c1.18-2.31,2.44-4.69,4.42-6.42c8.4-7.32,17.16-14.67,25.8-21.7  c2.06-1.67,4.61-2.57,7.1-3.39c2.49-1.51,4.4-0.17,5.73,4.02c0.61,8.07,4.02,7.61,10.23-1.37l2.65,0.83l1-3.62  c7.05-6.24,13.78-12.83,20.21-19.77l3.84-0.33l5.93,0.08C806.67,1031.66,780.31,1055.97,756.8,1082.9z" />
<path class="cls-1" d="M436.17,889.99c6.09,0.74,14.49,4.79,17.57,9.97c2.56-2.45,4.2-0.46,2.38,2.55l2.05,78.38  c-18.77-6.67-36.57-16.13-55-23.52c6.38-24.96,8.52-51.3,17.47-75.15C425.06,881.07,435.84,885.18,436.17,889.99z" />
<path class="cls-1" d="M985.63,799.19c-2.72,7.74-5.87,15.2-11.18,22.28l-0.82,74.28c4.54,0.73,7.87-2.04,12.53-4.35l1.54,29.53  l-36.05-18.55c-3.95-2.03-7.42-3.87-8.43-8.31c4.07-5.22,3.8-11.6,4.83-17.57l-0.41-11.42c3.73-21.68,7.46-43.32,11.18-64.93  l2.55-0.98c5.19-2.33,10.92-3.11,17.19-2.32C982.29,796.09,984.65,796.88,985.63,799.19z" />
<path class="cls-1" d="M218.17,880.94l5.65-1.42c24.3,4.12,48.6,8.23,72.89,12.35l1,2.55c0.93,0.15,2.32,0.38,2.47,1.08  c0.96,4.43,2.16,15.73,2.16,20.25l-2.15,1.91c-32.31-4.98-64.79-5.68-97.39-3.54l1.93-7.1c-0.04-6.26,1.19-12.07,3.68-17.42  C210.23,886,213.89,878.93,218.17,880.94z" />
<path class="cls-1" d="M1079.22,978.6l-28.4-19.63l-10.35-104.52c6.98,6.17,12.85,13.13,19.54,20.98L1079.22,978.6z" />
<path class="cls-4" d="M352.77,889.4l-12.91,40.91c-12.42-5.3-26.19-10.57-39.67-12.64l-2.49-23.25l2.38-3.73  c13.84-5.37,27.29-11.52,40.36-18.44l4.31-0.01c0.45-0.42,0.91-0.78,1.44-0.93C350.44,870.1,352.46,885.93,352.77,889.4z" />
<path class="cls-1" d="M193.32,915.13c-20.93,3.23-41.81,6.33-62.01,12.71l1.07-26.65c1.62-2.56,6.88-3.69,6.33-8.67  c0.9,4.18,11.16,25.53,11.43,20.71l-0.37,6.51c24.04-15.45,6.19-33.95,19.67-63.48C187.48,867.13,180.49,894.8,193.32,915.13z" />
<path class="cls-12" d="M806.32,964.35c-1.4-9.03,0.43-21.15,4.67-29.24l-2.13-3.33l-0.2-12.37c-1.49-5.33-1.62-10.13-0.39-14.41  c9.56-3.71,15.76-12.73,15.87-22.64c14.65,26.25,7.64,61.8-1.91,90.91c-1.52-12.98,1.77-24.56-1.75-36.61  C816.25,946.16,813.07,956.62,806.32,964.35z" />
<path class="cls-12" d="M292.87,1073.47c-17.71-4.25-35.86-5.71-53.83-8.22l26.52-12.32c6.18-2.87,17.71-2.12,23.6,0.37  C291.48,1060.25,289.34,1067.8,292.87,1073.47z" />
<path class="cls-6" d="M808.27,905c3.02,10.02,3.51,19.91,2.72,30.11l-1.58,2.08c-5.13,0.37-17.28-0.29-17.25-6.45l-5.7-23.65  C793.03,908.72,801.96,907.46,808.27,905z" />
<path class="cls-12" d="M42.02,953.04c-1.85,3.46-1.04,8.79-3.28,12.31c-0.3,0.03-0.92,0.02-1.22-0.04  c-9.45-4.31-20.28-2.53-31.23-5.27C17.47,953.14,30.01,952.44,42.02,953.04z" />
<path class="cls-4" d="M368.05,943.32c-4.55-1.82-9.74-5.14-14.08-6.99c3.1-8.32,9.37-15.84,17.29-14.89L368.05,943.32z" />
<path class="cls-4" d="M481.56,991.2c-2.51-1.34-7.5-3.78-10.23-4.48c3.22-6.88,1-15.16,6.73-23.06  C480.86,972.77,481.22,982.29,481.56,991.2z" />
<path class="cls-11" d="M643.64,370.16c0.72,2.5,0.06,5.36-1.98,8.57c-1.54,8.88-3.99,17.37-7.37,25.47  c-5.86,5.67-12.44,10.75-19.74,15.23l-2.61-0.88c-53.63-8.07-108.93-9.82-163.92-14.66l-331.98-29.24  c-0.39-1.92,1.62-2.86,2.23-4.11c1-2.02-2.49-2.48-2.18-4.95c3.2,0.22,4.65,2.1,7.48,1.66c1.98-0.31,1.75-3.1,2.81-4.03  c6.18-1.59,14.35,5.47,18.09-0.66c5.04-2.38,9.55,5.51,16.47,3.61c1.32-4.57-1.94-7.2,1.77-9.49c4.44-2.74,14.4,2.45,14.34,2.11  c0.24,1.29-2.44,4.11-3.04,6.32c5.49,6,16.77,6.59,24.86,6.24c-1.17-4.22-3.36-5.05-2.85-6.85c0.81-2.9,5.23-1.75,6.17-3.47  c2.32-4.29-1.35-7.56-5.78-7.27c-2.75,0.18-5.12,0.25-9.73,3.38c-6.54-5.48,22.33-12.59,10.98-12.62c-0.76,0-2.37-1.52-3.16-1.11  c-1.6-4.39,9.98-12.11,12.96-7.96c-1.63,5.96-3.49,12.07-5.95,18.46c4.72,2.59,5.89-2.72,6.39-5.3c0.28-1.45-1.9-3.1,0.82-5.09  c1.54,2.85,2.17,3.85,3.27,4.92c1.52,1.47,3.45,0.53,2.21-1.69c-0.61-1.09-3.1-1.22-1.85-4.73c3.06,1.9,5.63,4.34,9.73,4.73  c-1.38,2.44-2.3,0.73-4.16,0.54c-0.82,2.49-1.24,4.34-2.77,6.6c-1.47,2.17-3.13-1.33-5.15-0.64c-1.28,3.26,1.98,5.44,3.6,4.49  l4.29-2.5l8.62,11.09c0.66-4.57-0.92-4.51-1.57-6.96c-0.33-1.24,0.75-3.71,3.88-0.97c0.7,0.62,0.22,3.25,4.39-0.08  c2.09,2.92-1.56,3.4-1.47,4.68c0.25,3.47,1.79,5.06,3.73,3.06c1.17-1.2,2.77-1.96,5.25-3.68c3.54-0.07,1.84,5.78,4.74,4.67  c3.85-1.48,6.42-1.1,6.7-4.33c0.21-2.36-2.07-5.18-0.78-7.56c16.34,8.77-1.46-5.36,4.09-11.37c3.09-3.35,8.55,5.13,7.92-3.7  c2.92,2.09,6.68,3.78,12.34,4.1c-0.4,2.46-3.49,2.91-2.38,4.19c1.04,1.22,3.21,0.48,5.72,2.97c-0.74-2.59-2.21-3.01-1.2-3.75  c2.35-1.72,3.35-4.75,4.21-4.04c4.23,3.5,5.73,10.75,7.65,10.8l5.3,0.11c0.14,2.04-2.01,1.83-2.61,2.06  c-0.73,0.28-0.87,1.97-0.15,2.47c0.56,0.39,2.05,1.3,2.9,0.58c3.8-3.24,0.63-7.53,1.8-11.71l6.02,6.66c1.18,1.3,3.94-2.47,5.79-4.12  c1.18-1.05,1.65-4.25-1.18-5.59c-0.38-2.09,2.02-1.46,3.49-1.27c1.16,0.15,2.3,0.94,2.5,2.77c0.09,0.83-1.16,1.66-2.25,2.36  c-1.51,0.98-1.32,2.66-0.82,3.99c0.22,0.59,1.44,1.86,1.95,0.49c0.31-0.83,2.36-0.81,2.83-1.43c8.17-10.72,19.54-10.43,30.83-2.67  c2.07-2.91,3.8-5.28,5.8-6.02c1.92-0.71,5.98-1.01,5.17,2.26c-0.72,2.89-4.85,4.6-2.66,7.47c1.25,1.63,3.07,5.16,5.57,4.62  c3.61-0.77,2.81-4.05,2.15-7.25l11.34,12.47c2.02-9.77,11.05-10.37,18.74-9.46c1.24-1.25,3.04-2.91,4.38-2.96  c1.48-0.05,0.72-3.02-0.5-3.1c-1.75-0.12-3.8-0.36-4.89-1.09c-0.87-0.58-1.24-3.34,1.23-2.07c0.76,0.39,1.9-0.66,3.63-1.24  c1.49,0.63,1.92,4.21,3.51,4.74c1.82,0.61,4.05,0.21,6.06-2.06c-4.47-1.8-6.14-5.07-5.44-9.58c0.41-2.67,1.39-7.02,6.06-5.46  c-5.42,3.6,0.66,7.04,2.84,7.59c3.33,0.84,5.58-4.32,7.16-5.96c3.32-3.44-0.84-5.4,0.42-6.66c2.02-2.01,6.7-0.8,7.75,0.35  c7.77,8.57-10.48,9.78,2.49,20.58c-2.93-8.01,1.88-3.33,4.29-3.64c4.84-0.62,6.54,0.53,5.75,3.81c-0.68,2.81-4.44,3.33-5.78,6.36  c2.96,2.12,3.62-2.58,5.83-0.88c2.01,1.54,2.83,3.86,5.01,5.36c2.9-6.57-5.84-8.66-1.87-14.33c3.55-0.57,5.25,2.47,7.17,3.41  c1.8,0.89,1.65-4.71,4.93-4c1.52,0.33,3.62,0.75,5.09,0.77c8.44,0.06-6.03-4.66-4.05-9.8c0.61-1.58,2.06-1.35,2.83-0.02  c0.35,0.61,0.83,2.72,2,3.03c1.48-0.7,1.97-4.17,3.82-3.06c1.42,0.86,3.88,2.07,3.56,3.74c-0.56,2.91-4.34-0.09-6.02,3.93  c3.72,0.7,7.48,1.06,10.57,1c-0.76-2.92-2.3-4.05-3.01-6.03c-0.31-0.87,2.71-1.29,4.38,0.19c0.67,0.59,2.5,4.07,3.27-1.5  c3.54,0.98,7.84,4.13,11.25,7.16c6.93-5.19,15.19-5.46,22.48-4.85c6.86,0.57,12.59,11.59,15.15,17.19c4.07,1.79,4.34-6.45,7.03-3.17  c1.15,1.4,2.96,3.35,4.32,6.46c2.05-4.26,0.68-8.24-2.83-13.13c3-4.16,6.1,0.73,8.21,2.16c3.44,2.33,1.64,5.89-0.08,8.69  c1.26,1.33,4.19,2.11,4.58,4.28c0.35,1.94-2.5,2.26-2.34,5.36c5.12-1.2,5.22-5.96,4.49-11.53c6.55,4.02,10.75,1.86,16.19-1.86  c1.89,2.78,2.99,5.18,4.14,6.4c1.45,1.54,3.9,0.16,5.64-0.81c1.27-0.7-0.24-4.61,0.86-5.47c3.59-1.44,6.31,1.49,7.28-3.36  c0.39-1.94-1.15-4.37-1.43-6.37c3.42-1.69,4.47-4.54,5.57-5.85c1.8-2.14,5.48-0.19,7.69,1.54c6.26-3.56,14.11-0.77,21.51,2.67  c0.53-3.37,0.68-7.41,3.79-5.08c1.43,1.08,5.66,1.58,6.48,4.28c0.58,1.93-6.85,1-4.59,4.52c3.37,1.91,6.22,4.04,8.84,7.29  c0.9-4.09-2.84-4.85-0.49-7.94c1.15-1.51,0.57-7,3.62-2.75c2.41,6.87,9.59,0.38,15.3,5.89c-0.08,3.11-6.27,10.09-10.73,9.89  c-3.19-0.15-3.84-3.6-6.74,0.4c-1,1.37-2.34,2.87,1.35,5.57c1.76,1.29,3.39-7.79,5.66-0.54c3.92,1.35,2.06-5.99,8.59-6.46  c-0.92,4.14-3.76,8.62-7.95,10.76C640.68,366.87,642.87,367.81,643.64,370.16z" />
<path class="cls-16" d="M665.61,317.9c5.74-2.53,7.84,11.02,2.06,11.22c2.12,2.66,0.9,4.73-2.32,5.01c2.91,11.03,6.44,21.9,10.57,32.59  l-1.87,2.4l-2.56,0.49c-2.62-2.9-4.86-6.07-6.71-9.53c-7.04,4.52-12.58,12.44-16.64,20.02l-3.26,1.56  c-0.56,6.83-4.77,28.99-8.88,32.79c-0.64,0.59-1.39,1.07-2.17,1.52c-2.64,1.47-3.13-0.16-3.6-2.76  c-11.08,7.31-20.74,15.81-29.01,25.49l-3.17,0.79l-4.84,4.47c-21.43,10.77-42.58,22.19-63.43,34.28  c-32.37,19.81-70.66,24.81-107.18,29.11l-1.73-2.1l-5.07,2.96c-26.92,0.63-43.04,6.07-65.18,22.45  c-19.46,14.4-36.24,32.05-52.19,50.16c0,0-1.8,0.88-5.4,2.63c0.48,3.04-5.38,9.84-8.52,8.52c6.91-12.81,15.73-26.73,27.69-37.13  l37.04-32.25c12.22-10.64,26.19-16.34,42.15-19.59c92.27-18.76,125.51-16.98,204.34-74.86c6.34-2.11,11.52-5.91,16.21-9.57  c6.73-5.24,17.1-8.84,21.21-17.1c4.99-10.02,3.45-23.02,10.49-31.3l17.19-20.2c2.49-2.93,1.55-9.03-1.26-11.32  c-0.83-6.53-1.17-15.06,3.07-20.58C663.35,317.14,664.51,317.27,665.61,317.9z" />
<path class="cls-4" d="M267.18,520.43c-0.41-0.03-0.84-0.1-1.25-0.1c-16.92-16.05-21.59-29.24-44.2-28.03  c0.66,3.86,2.53,6.43,0.82,8.22c-10.33-8.15-28.7-4.3-29.74-9.7c-0.49-2.53-3.53-6.39-0.17-6.16c3.5,0.24,5.27,0.86,10.24,0.15  c-14.29-33.14-19.55-22.41-43.5-40.13c15.06,2.11,27.79,7.45,40.23,12.87l13.78,27.11l28.37,1.3  C251.58,496.78,261.27,507.79,267.18,520.43z" />
<path class="cls-11" d="M113.75,374.71c-23.86-1.07-47.59-4.1-71.27-6.58c2.19-3.36,3.83-7.22,7.23-9.3c0.85,6.52,3.55,4.68,7.52,2.85  c3.47-1.59,0.36-3.34,1.14-6.72c1.11-4.79,4.9-6.9,7.59-3.21c2.35,3.23,2.38,3.72,1.6,8.98c4.28-5.38,3.6,0.42,4.86,0.16  c4.4-0.89,4.7-3.07,4.7-5.82c3.22,4.37,7.5,6.31,12.91,5.71c-4.16,4.21-0.69,4.28,1.27,2.98c1.29-0.85,2.68-1.98,4.31-2.51  c1.22-0.39,1.7,5.36,3.64,2.38c0.68-1.05,4.2-1.02,4.42-2.57c0.17-1.22-4.78-2.95-4.03-5.04c0.86-2.42,6.32-3.2,7.62-1.16  c2.41,3.78-2.12,4-0.91,8.48c0.74,2.76,4.57,3.64,6.06,4.53C114.54,369.15,114.24,372.53,113.75,374.71z" />
<path class="cls-1" d="M186.21,663.33c0.79-0.39,2.13-0.96,2.81-0.67c1.34,0.58,14.87,12.53,16.56,14.31l-0.25,2.88l2.21,1.13  l-13.31,93.65l3.8,43.01l-2.21,1.59c-3.57,0.56-5.35,0.84-5.35,0.84c-10.41-4.2-20.99-7.83-31.74-10.87l-2.64-2.85  c-2.9,0.96-7.95-1.86-8.65-4.84c0.21-1.07-0.35-2.47,0.06-3.5c3.95-9.98,6.5-20.73,8.31-31.31c0.15-0.88,0.94-1.96,1.17-2.84  l11.63-45.22C173.44,699.86,177.96,680.39,186.21,663.33z" />
<path class="cls-11" d="M251.73,647.91c-0.88,7.42-6,15.66-12.21,19.81c0.78,5.09,1.63,10.23,2.56,15.43  c-1.69,4.16-9.83,4.18-11.22,0.06l-1.65,2.12c-6.81-1.05-13.63-2.11-20.46-3.16l-1.26-2.57c-1.91-0.78-2.6-2.58-2.08-5.38  c-4.25-9.02-2.77-14.68,4.42-16.99c9.99-3.2,20.08-6.59,30.57-8.53C243.81,646.39,249.06,643.65,251.73,647.91z" />
<path class="cls-1" d="M270.92,617.81c-0.08,4.63-1.63,9.38-4.65,14.23l-4.37,12.43l-3.22,2.46c-1.3,2.99-4.89,3.91-6.95,0.98  c-3.7,0.46-7.66,0.1-11.33,0.78l30.44-32.4C273.1,616.27,273.13,617.16,270.92,617.81z" />
<path class="cls-16" d="M209.83,657.23c-9.97,8.82,0,10.47-2.34,22.38c-0.32,2.3-1.3,2.44-2.16,0.25l-19.12-16.52  C192.64,657.88,202.65,659.52,209.83,657.23z" />
<path class="cls-5" d="M737.12,372.59c0.67-0.99,1.44-2.09,2.57-2.37c2.25-0.56,34.13,5.76,35.4,7.04c3.04,20.69,8.27,38,20.78,54.91  l3.25-22.98l18.04-33.75c2.1-1.39,4.24-0.8,6.41,1.78c-2.15-6.08-3.77-12.28-4.85-18.58c-0.04-3.1,0.6-5.18,3.98-4.84l2.83,1.73  c2.67,7.68,6.47,14.81,11.4,21.38l2.82,8.55c3.71,0.15,3.32,6.77-0.06,7.31l-1.16,10.28c-10.84,27.14-17.47,55-19.88,83.57  l9.23-12.19l2.86,0.1c2.45,0.82,3.9,3.12,4.34,6.89c5.53,12.99,7.33-4.82,5.62-10.91c-2.7-0.36-4.79-1.34-6.25-2.95  c-1.06-6.33,4.27-16.52,10.38-18.69l2.49,1.3l3.27,16.36c-0.93,20.98-4.84,41.9-11.72,61.8c-0.8,2.32-2.59,3.96-1.37,6.88  c-2.12,8.99-9.07,19.93-14.83,27.33c-1.35,3.43-3.24,4.93-5.68,4.49l-1.69-4.54c1.48-17.25,1.07-36.76-2.67-53.74  c-0.1-0.44-0.87-0.57-1.55-0.15l-19.32,23.55l-4.33,2.11c-11.24,8.76-13.5-1.1-11.43-11.55c10.84-26.86,16.27-40.29,16.27-40.29  c-5.45-4.96-11.39-7.37-17.83-7.21l-2.17-1.88l-9.31-38.79L743,419.76c-8.34-7.38-16.51-9.88-24.52-7.52l-2.4-1l-4.63-2.25  c-7.23-8.61-36.09-45.52-35.82-53.84c0.03-0.92,0.22-1.84,0.46-2.75c3.66-0.12,5.49-0.18,5.49-0.18  c19.84,10.38,39.93,20.11,60.27,29.2C738.72,378.78,737.14,375.84,737.12,372.59z" />
<path class="cls-16" d="M1028.59,545.33c-0.27,2.13-0.4,3.19-0.4,3.19l-8.93,6.34c2.32,2.37,5.46,3.97,9.43,4.79l1.38,2.75  c2.01,0.44,3.94,2.21,6.7,3.26l-13.99,12.82c-8.01-9.95-19.13-9.22-30.4-9.29c-5.73-4.54-13.03-5.88-21.61-3.99  c1.16-5.58,4.45-10.46,11.24-11.97c-12.81-11.22-26.42-14.68-42.14-17.98l-48.14-10.1c7.11-2.77,14.76-1.95,22.83-0.83  c15.56,2.16,30.65-0.39,46.69,0.61c3.14,0.35,8.14,3.18,10.43,5.02l6.41,2.07l20.66,14.2l7.29-5.08c4.21-5.19,9.09-8.62,14.63-10.3  c6.11-4.59,12.22-12.02,19.63-15.07c23.24-6.05,46.61-7.89,71.18-9.65C1070.05,525.98,1064.79,516.73,1028.59,545.33z" />
<path class="cls-15" d="M1030.06,562.4c-4.96-1.09-10.09-3.14-14.7-6.68c3.95-5.22,9.15-7.18,13.23-10.4  c-6.46,13.15,67.37,0.53,74.83,2.4L1030.06,562.4z" />
<path class="cls-15" d="M1020.65,530.85c-7.32,5.5-12.73,14.14-22.2,17.54c-9.75-5.28-18.65-11.88-26.79-18.43L1020.65,530.85z" />
<path class="cls-11" d="M961.94,659.77c2.72-0.25,6.06,0.24,8.38,1.45l-0.23,3.48c-5.67,4.55-11.6,8.74-17.81,12.56l-3.38-0.43  c-4.08,1.47-8.34,2.2-12.77,2.22c-7.08,1.59-13.52,4.82-19.33,9.68c-7.78,0.61-15.54,0.03-23.28-1.72c-9.08-0.58-13,1.85-17.83,9.93  c-9.18,1.73-18.7,2.48-28.54,2.26l-3.72,0.83c-19.57-3.31-39.21-6.49-58.93-9.54l42.33,11.79c0,0,1.27,1.22,3.82,3.65  c-24.47,7.93-50.45,11.86-75.74,17.74l-7.38,0.65l-44.59-10.97c-10.83,8.5-22.31,15.31-34.45,20.44  c-7.59-0.83-15.17-1.66-22.73-2.49c-2.55,1-4.22,3.17-5.02,6.51c-12.94,7.62-28.69,3.38-41.49-2.39  c-12.54,1.67-25.07,2.49-37.61,2.44c-11.42-6.99-22.7-6.21-35.32-4.51l-1.58,2.05c-28.17-6.36-56.36-12.72-84.55-19.08l-0.87-2.6  l0.01-2.58l34.68-15.76l-42.1,8.3l-1.83-2.02c-13.29-1.16-26.55-1.28-39.78-0.36l-10.43-2.6c-5.91-3.93-11.5-5.3-16.77-4.12  c-5.33,2.84-10.72,4.72-16.17,5.63c-1.33,3.02-8.23,2.12-9.34-0.78c-1.96,1.21-2.61,0.53-1.31-1.37c-0.81-0.45-1.96-1.25-1.76-1.87  c1.13-3.45,11.3-28.42,12.77-29.02c8.29-3.39,37.01-3.53,46.88-2.6c45.28,5.37,90.82,10.11,136.46,12.42  c1.34,0.13,10.57,8.73,7.63,11.28c2.42,3.54-6.33,8.65-8.59,5.32c-0.12,1.76-0.18,2.64-0.18,2.64c-6.73,1.95-11.38,5.54-13.93,10.77  l-2.46,0.8c29.62,3.63,59.48,2.72,89.57-2.73c48.96-9,97.9-17.83,146.81-26.48l141.27-14.28l46.92-2.33  c0.03-0.92,0.18-2.29,0.83-2.43c1.99-0.43,20.5-2.31,21.53-1.97C960.97,657.89,961.5,658.88,961.94,659.77z" />
<path class="cls-1" d="M681.13,509.53c3.49-4.5,8.01,4.33,4.4,7.08l2.37,7.56c1.04,20.29,6.23,39.9,15.56,58.84  c-0.76,1.84,1.03,2.53,5.35,2.06l33.02,4.01l5.73,2.89c0.21-1.03,0.51-0.96,0.91,0.08l0.19,2.47  c-6.66,10.16-14.79,19.33-24.38,27.53c14.75-0.37,29.99-7.36,43.69-13.75c21.32-9.93,34.75-19.13,45.65-40.34l3.38-0.93l20.51-31.82  c0.57,1.36-0.08,3.52,0.14,5.02c0.86,3.83,0.93,7.34,0.22,10.55l-1.62,7.08c-4.57,7.53-8.14,15.47-10.72,23.82l-2.86,2.13l-0.79,4.1  c-17.21,22.65,0.52,50.75,24.41,58.38l1.17-2.03c6.8-3.92,17.82-3.81,24.65,0.22l2.46-2.15l14.86,1.33l2.31,2.18l2.25-2.51  c9.7,0.63,19.29,2.25,28.78,4.88c8-0.26,15.64,0.41,22.94,2.03c5.17-0.11,10.49-0.3,16.21,0.43c0.73,3.44-0.02,6.25,0.02,9.12  l-24.25,2.22c-37.63,2.4-76.14,2.77-113.91,1.76c-8.91-0.56-26.32-7.81-30.47-15.71c-0.59-1.13-0.33-2.53-0.05-3.78  c-3.49-0.25-6.63-5.26-4.39-8.29l-3-1.57l-5.91-17.58l-20.69,15.44l-5.85,1.46c-0.74,4.01-6.57,6.13-10.6,6.06  c-0.38,0.87-0.8,1.72-1.34,2.48c-5.13,7.08-36.12,14.94-46.02,16.01c-0.81,9.44-10.44,17.57-19.35,20.4  c-34.04,10.78-68.89,19.67-103.85,27.26c-19.81,4.3-39.09,6.29-59.13,1.88c0.47-7.74,9.95-11.26,16.57-14.22  c5.93,2.82,12.7,3.05,20.28,0.67l2.15,1.79l1.58-2.48c34.87-7.19,68.95-17.59,102.23-31.2c11.2-2.54,19.81-7.43,25.81-14.66  c4.42-13.35,4.96-27.33,1.62-41.94l2.1-2.14c-1.98-3.86-2.97-5.79-2.97-5.79c-2.99-29.1-6.23-58.36-14.63-86.47l0.31-6.43  c0.25-0.77,0.59-0.73,1.01,0.02l3.28,1.18l5.82,11.91C678.06,514.5,679.01,511.66,681.13,509.53z" />
<path class="cls-4" d="M980.71,718.48l0.33,11.16l-2.03,2.2c-9.89-2.95-18.91-2.29-27.06,1.98c-6.47,4.51-13.3,7.49-20.47,8.95  l-3.21-1.71c-3.08-14.09-5.21-28.38-6.38-42.86l1.64-3.23c5.96-8.2,15.69-15.32,25.38-18.16c6.99-5.29,15.28-9.27,21.42-15.61  C978.48,678.33,974.8,699.72,980.71,718.48z" />
<path class="cls-16" d="M930.47,644.67c-5.25,1-10.8,0.53-16.65-1.43c-7.01-0.17-13.18-1.71-18.51-4.62c-0.45,0.61-0.84,0.58-1.17-0.1  c0.02,3.13-1.06,3.03-2.12,0.12c-1.8,2.37-8.56,0.92-8.42-2.34c-0.48,0.61-0.87,0.52-1.17-0.22c-0.36,0.99-0.75,0.89-1.17-0.16  l-1.17-0.94c-0.02,1.04-0.4,1.02-1.08,0.08c-10.16-1.15-36.83-13.03-39.23-23.19c-3.19-13.5-4.87-38.94-3.96-52.86l2.08-8.22  c-0.13-3.5,0.3-7.07-0.22-10.55l11.69,67.44C852.86,627.91,917.09,635.11,930.47,644.67z" />
<path class="cls-11" d="M894.14,638.52c0.44,0.74,0.65,0.72,1.17,0.1c11.81,0.94,23.75,2.68,35.15,6.05c5.21,1.8,11.93,1.28,15.25,5.55  c-7.94,0.16-16.1,1.67-24.56,0.07c-9.89-1.87-19.66-5.55-29.4-4.46c-3.52-0.17-3.09-6.7,0.27-7.18L894.14,638.52z" />
<path class="cls-13" d="M799.6,254.11c3.15,2.37,6.26,8.11,6.94,12.12l4.29,11.28l8.5,50.04c-0.54,2.27-1.32,3.46-3.66,3.01  c-4.52-0.86-28.68-23.52-27.57-31.2c-5.15-11.29-14.42-19.06-27.82-23.32c-6.71-4.51-9.96-11.38-9.76-20.61  c-3.14-6.98-13.28-7.01-18.32-1.72c-2.41-0.61-4.42-2.04-6.02-4.29c-2.04,2.17-3.82,3.49-5.28,0.35l-1.02-2.43  c5.04-11.72-6.59-19.87-16.79-11.15c-7.48,6.39,3.91,11.1,9.78,12.55c3.94-1.36,6.61-1.01,8.02,1.03c0.36,0.84,0.82,2.14,0.3,2.54  c-5.76,4.46-17.08,11.82-23.15,5.41l-10.37-9.98c-0.55,2.91-1.69,5.52-5.04,4.81c-10.44-4.43-21.12-7.99-32.05-10.68l-2.59-2.74  c-2.81-1.1-3.07-5.84-0.14-6.95c12.01,0.89,18.01-4.82,26.97-10.38c27.49-17.05,59.81-11.4,87.45,2.41  C777.24,231.69,786.73,244.41,799.6,254.11z" />
<path class="cls-4" d="M1025.8,366.87c-5.67,1.53-15.88-3.58-21.26,4.24c0.8-11.06,11.9-6.93,17.55-9.85  c5.94-3.07,11.56-14.57,19.93-7.29C1032.13,355.18,1029.19,360.74,1025.8,366.87z" />
<path class="cls-12" d="M1110.02,1044.21c-13.38,47.7-46.52,87.77-96.13,103.43c21.1-19.51,37.48-40.62,44.58-67.23l-19.3,11.78  c16.8-25.64,29.67-53.6,32.04-83.4c2.09,5.3,4.26,10.72,5.6,17C1080.4,1042.76,1100.9,1030.61,1110.02,1044.21z" />
<path class="cls-6" d="M299.76,1172.48l-68.95-5.63c-40.02-3.27-78.29,2.49-118.33,12.98C162.85,1123.32,242.4,1142.53,299.76,1172.48  z" />
<path class="cls-16" d="M164,260.01c5.21,1.53,11.86,5.23,17.34,7.48l42.71,42.8l36.1-33.74c23.61-8.16,48.93-8.94,73.88-14.07  l-64.7,26.84c-8.32,3.45-13.72,11.34-19.96,16.96c0.66,2.07-0.08,3.71-2.2,4.93c4.67,0.3,6.63,2.01,5.9,5.11  c0.4,0.47,0.7,1.04,1.18,1.45c2.34,2.39,4.19,4.93,5.53,7.63l-1.07,1.36c-6.11-1.09-11.82-0.81-17.25,1.42  c0.81,2.04-0.58,3.07-4.17,3.09c-2.25,3.33-7.9,4.59-12.03,3.56c-5.23,2.15-12.28-0.53-17.79,0.59c-4.99,1.02-9.18,4.51-12.96,7.96  c-2.67,1.39-4.55-1.67-7.28-0.92c-0.05,0.69-0.42,0.69-1.03,0.17c-1.91-0.48-1.57-1.19,0.39-1.61c-2.79-1.1-6.78-5.52-7.27-8.36  c-0.58-1.26-1.56-2.46-1.95-3.66c9.62-2.64,18.38-3.99,27.37-10.72c-29.4-33.45-37.46-39.74-75.73-60.65l-20.09-13.81L164,260.01z" />
<path class="cls-11" d="M186.59,341.04c-1.28,1.08-1.41,1.62-0.39,1.61c0.34-0.07,0.69-0.08,1.03-0.17c0.84,0.48-3.43,6.37-4.38,4.86  c-0.98-1.55-0.19-3.44-1.97-4.08c-2.17,1.63-0.61,5.01-3.44,4.98l4.69-9.09c-1.54-1.83-3.33-2.1-4.49-2.94  c-0.91-0.66,1.17-2.68,1.68-3.52C182.37,334.75,186.08,337.2,186.59,341.04z" />
<path class="cls-11" d="M118.75,355.49c1.54-2.4,5.49,2.91,4.67,3.62c-1.48,1.28-2.76,0.19-3.59,0.48  C118.19,360.14,116.98,358.24,118.75,355.49z" />
<path class="cls-11" d="M110.45,360.39c1.02-0.79,2.54-0.07,3.05,0.93c0.43,0.83,2.37,1.47,1.41,2.28c-1.3,1.09-3.08-0.22-4.11-0.15  C108.4,363.62,108.81,361.67,110.45,360.39z" />
<path class="cls-7" d="M808.75,994.71c-8.69,7.64-15.51,17.22-25.05,23.71l-1.36,0.99c-3.58-2.5-7.17-5.43-10.77-8.79  c-1.93,3.55-4.09,4.99-6.48,4.32c-11.84,11.22-24.6,21.68-37.32,31.51c0.23-2.71-0.31-5.76-3.83-7.77c1.05-1.94,4.21-1.8,3.33-4.07  c-0.76-1.96-0.95-3.7-0.96-5.48c21.5-10.06,38.95-25.14,53.23-43.9c2.99-2.49,5.52-5.63,7.57-9.42c6.92-2.15,12.46-5.49,16.63-10.01  c-1.22-3.05,0.29-3.75,2.59-1.46c1.05,5.06,7.24-0.19,10.59,5.77C819.63,977.23,815.31,988.94,808.75,994.71z" />
<path class="cls-4" d="M810.99,935.11c-0.77,9.89-2.18,19.52-4.67,29.24l-2.59,1.46c-0.39,5.53-14.72,4.68-15.19,0.11  c2.17-11.67,3.73-23.27,3.62-35.17C796.79,935.89,804.42,933.61,810.99,935.11z" />
<path class="cls-6" d="M803.73,965.8c2.23,7.54-9.67,8.17-14.57,11.36c-3.39,2.21-3.37,9.67-9.63,8.07  c2.68-6.55,5.58-13.13,9.01-19.33C793.34,966.78,799.53,968.16,803.73,965.8z" />
<path class="cls-16" d="M1056.99,771l-23.18,24.72l0.71,17.56c-4.56-12.83-14.75-17.82-27.89-15.01c-0.12,0.96-0.42,1.86-1.11,2.55  c-0.53,0.52-13.78,0.76-14.03-1.7c-0.71,0.21-1.73-0.44-2.48-0.43c-3.69-0.33-3.91-8.92-3.61-12.19c0.36-3.89,0.64-6.38,4.99-7.1  c-0.46-2.36,0.33-3.13,2.48-3.47c21.82-0.87,23.76-2.78,5.84-5.74l-1.34-3.13c-2.78-2.49,3.82-10.25,7.03-8.76L1056.99,771z" />
<path class="cls-14" d="M981.04,729.64c5.78,0.27,11.79,2.52,17.33,3.9c0.29,0.9,0.72,2.24,0.17,2.69  c-2.18,1.79-17.16,11.59-18.69,11.29c-0.54-0.1-1.02-0.46-1.5-0.89c-0.07,0.91-0.41,2.28-0.98,2.27  c-11.55-0.25-26.21-1.63-37.72-3.1c-4.51,0.44-7.24-0.57-8.17-3.02c9.1-4.92,18.04-11.31,28.38-14.94  C966.72,726.89,974.5,729.34,981.04,729.64z" />
<path class="cls-4" d="M1004.4,758.31l-7.03,8.76c-0.06,2.66-1.93,4.87-5.62,6.61c-2.24,2.85-4.68,4.3-7.3,4.34  c-0.15,2.2-1.14,2.17-1.89,0.05c-0.91,0.01-2.13-0.03-2.46-0.73c-0.84-1.77-3.72-25.32-3.85-28.71l2.1-2l20.01-13.08  C1003.93,739.35,1003.71,750.15,1004.4,758.31z" />
<path class="cls-6" d="M1087.49,883.58c-1.67-3.26-1.98-9.36-3.3-12.8c18.69-2.83,38.13-2.08,56.24,4.17  C1121.67,874.43,1104.06,876.86,1087.49,883.58z" />
<path class="cls-16" d="M1154.71,894.77c3.39-0.71,6.68,0.95,7.28,3.78c0.71,3.36-0.82,6.98-3.93,7.99c-3.44,1.12-6.67-0.71-7.69-4.11  C1149.44,899.31,1150.84,895.57,1154.71,894.77z" />
<path class="cls-16" d="M147.44,801.49c2.23,2.91,0.16,4.47-2.62,5.98c-7.69,2.76-7.46,3.93,0.71,3.51c3.16,0.36,5.74,1.01,4.62,4.53  l3.55,0.87c7.27,12.74,16.85,18.61,28.72,17.6c4.62,1.62,10.77,9.96,7.55,14.07l-47.61-5.03l-7.99,15.27  c-1.85-8.28-0.4-16.32-6.73-19.78c-6.44-3.53-14-1.78-20.84,0.56c-7.44-5.61-15.07-11.08-23.32-15.4  C103.71,814.35,125.72,806.92,147.44,801.49z" />
<path class="cls-6" d="M1104.86,955.98c-1.9-7.78-4.92-15.3-5.77-23.34c9.72-2.74,20.69-0.95,28.89,2.39  c-2.45,8.1,3.88,1.17,7.32,1.75c17.95,10.41,36.24,18.45,56.71,18.61C1153.8,971.14,1134.69,942.25,1104.86,955.98z" />
<path class="cls-3" d="M91.67,789.53c-21.92,2.31-42.78,0.77-64.14,1.18c-1.43-3.58-5.14-1.34-7.3-5.34  C23.03,783.71,99.61,778.13,91.67,789.53z" />
<path class="cls-1" d="M673.83,302.56c3.02-2.32,4.19-1.6,5.76,1.78c4.11-0.66,8.51,0.28,10.67,3.86c0.66-1.6,1.34-1.24,2.02,1.09  c4.59-0.36,9.41,0.94,14.46,3.91c5.78,1.21,10.85,3.37,15.2,6.48c1.1,0.01,1.13,0.4,0.21,1.13l-3.89,2.5  c-11.57,1.1-23.08,2.75-34.52,4.94c9.02,9.8,21.68,12.59,34.36,13.92l2.97-1.43c3.23,0.51,19.08,4.81,20.76,6.25  c0.85,0.73,1.01,2.04,1.15,3.19c-1.04,1.22-2.26,2.31-3.83,2.74c-5.92,1.63-19.59-0.22-26.14-1.27  c-12.04-1.93-26.33-5.08-35.72-12.87c-3.24,3.6-11.21-6.1-9.61-9.68c1.43-4.43,1.61-8.33-2.06-11.22c-2.36,0.08-3.09-1.94-2.18-6.06  c-4.89-8.56-14.54-13.13-21.24-20.19c0.4-0.83,1.12-2.03,1.76-1.87c3.3,0.84,27.9,8.98,29.04,10.01  C673.71,300.44,673.8,301.57,673.83,302.56z" />
<path class="cls-5" d="M657.34,277.53c4.56,1.95,0.98,5.04-1.49,6.55c4.18,1.02,21.16,6.85,23,9.53c0.64,0.94,0.92,1.98,0.88,3.12  c2.05,3.2-2.69,7.22-5.9,5.84l-31.64-10.9c-3.22-3.39-6.92-6.36-9.37-10.33c-3.36-4.73,2.47-8,7.06-9.29  C644,270.88,655.99,273.3,657.34,277.53z" />
<path class="cls-1" d="M647.85,232.18c0.58,2.29,0.85,4.67,0.14,6.95c0.08,1.87-1.1,3.33-3.54,4.37c-1.86,3.06-4.12,5.49-6.78,7.3  c1.94,0.97,1.94,2.95,0.01,5.96c1.55,7.71,7.88,12.28,18.98,13.74l1.06,2.74c3.34-1.2,7.53-2.59,9.85,1.39  c4.58,7.86-7.99,8.3-10.24,2.9c-7.78-2.98-21.2-7.44-24.53,3.8l-1.33-0.1c-2.76,0.19-5.59-4.51-1.46-5.3l-0.73-2.89  c5.07-8.17,3.85-17.01-3.65-26.53l0.17-4.86c0.52-1.6-0.04-5.57,1.98-6.59c1.31-0.66,3.27-2.41,5.09-2.46  C637.89,232.45,642.86,231.8,647.85,232.18z" />
<path class="cls-8" d="M630.03,275.94c-1.22,3.08-2.68,2.75-3.07-0.46c-1.79-0.58-2.16-3.04-1.11-7.37  c-6.38-7.65-4.6-18.07-0.02-26.46C632.12,254.95,640.71,262.85,630.03,275.94z" />
<path class="cls-11" d="M665.61,317.9c-6.79,4.21-1.37,14.35-6.04,20.73c-2.51,0.07-4.37-0.69-4.1-1.72c0.4-1.56,1.47-1.64,1.28-2.38  c-0.4-1.56-0.96-2.93-5.02,1.84c0.75-4.95-3.97-6.77-5.62-11.63c8.6-2.42,15.9-5.12,17.32-12.9  C664.48,313.69,664.74,315.99,665.61,317.9z" />
<path class="cls-11" d="M241.45,328.19c0.19,1.08,1.61,2.6,0.86,4.04c-0.64,1.24-2.59-0.53-5,0.36l7.51,11.82  c3.31-2.58,0.35-3.87,0.75-5.12c0.36-1.13,1.81,0,2.48-0.16c1.2-0.28,1.54,1.58,1.61,2.51c0.02,0.21-3.58,3.57-5.22,5.3  c-2.74,2.88-0.92-4.66-4.28-4.91c-2.43-0.18-3.97,2.23-5.9,1.14c-2.6-1.46-4.26-2.1-2.74-5.65c-2.11-1.4-4.71-0.81-6.28-2.69  L241.45,328.19z" />
<path class="cls-15" d="M626.96,275.48c0.13,1.79-0.66,2.87-2.49,3.34c-3.57,6.66-5.1,14.78-4.79,22.31c3.14,1.94,2.7,4.01-0.86,4.79  c-0.89,4.55,0.92,8.98-1.99,14.96c-1.39-17.96,1.25-36.12,9.02-52.77C627.52,270.11,626.72,273.09,626.96,275.48z" />
<path class="cls-11" d="M618.82,305.92c0.3-1.54,0.92-3.2,0.86-4.79c1.89-0.34,4.48-0.5,5.19-1.88c0.97-1.89-0.41-4.34,0.02-6.52  c4.9,0.57,3.63,6.9,3.86,11.55C628.9,307.24,621.76,307.5,618.82,305.92z" />
<path class="cls-11" d="M253.06,316.32c-2.36-2.78-6.19-2.55-10.31-3.57c1.56-3.12,4.45-4.53,6.61-6.47c-0.13,3.52,3.7,3.43,5.18,4.67  C256.54,312.62,254.83,315.36,253.06,316.32z" />
<path class="cls-11" d="M626.96,275.48c1,0.25,2.04,0.35,3.07,0.46c-0.87,1.61,0.86,3.85,1.46,5.3c-2.31,1.49-2,5.59-5.26,5.89  c-1.71-3.34,0.93-4.2,1.71-5.88c0.67-1.46-2.49-1.96-3.46-2.42c0.37-0.69-0.27-1.9,0.28-2.71  C625.23,275.4,626.05,275.25,626.96,275.48z" />
<path class="cls-11" d="M246.08,363.56c-1.46-2.18-3.17-4.04-3.39-5.56c-0.21-1.43,2.75-3.51,4.51-5.23  C250.09,354.77,249.45,361.67,246.08,363.56z" />
<path class="cls-11" d="M258.7,326.77l-4.47-8.99C265.51,326.97,269.51,328.69,258.7,326.77z" />
<path class="cls-11" d="M630.1,309.6c1.41,2.69-1.82,5.18-4.45,5.34c-2.05,0.12-6.55-2.9-4.14-5.16  C623.14,308.46,627.99,310.99,630.1,309.6z" />
<path class="cls-11" d="M301.92,338.01c7.11-3.63-3.19,8.53,0.26,6.05c-1.64,1.18-4.17,0.38-3.23-1.37  C299.93,340.85,300.07,338.95,301.92,338.01z" />
<path class="cls-11" d="M430.33,327.39c1.36-0.86,1.87-0.1,2.72,0.68c1.17,1.08,0.1,2.22-1.1,2.73c-0.8,0.34-2.56,1.71-3.1,0.05  C428.4,329.49,429.36,328,430.33,327.39z" />
<path class="cls-11" d="M221.75,352.3c0.93-1.96,3.21-0.39,3.1,0.82c-0.07,0.78-0.76,1.51-1.93,2.61  C222.34,356.27,220.89,354.09,221.75,352.3z" />
<path class="cls-16" d="M405.59,1063.88c1.41-0.26,3.12,0.12,4.54,0.22c3.32,2.91,6.21,6.66,5.04,10.7c-1.33,4.59-5.61,6.57-8.8,6.07  c-5.18-0.81-7.95-4.44-8.19-8.13C397.87,1067.87,401.4,1064.66,405.59,1063.88z" />
<path class="cls-2" d="M526.35,733.35c5.38-0.99,13.2-0.87,16.21,4c6.78,39.84-3.6,83.68-13.76,123.2l-57.31-18.24  c-2.42,1.47-3.59,0.47-2.94-2.36l-6.61-1.13c-10.15-5.91-20.31-11.82-30.47-17.73l-0.31-2.89l-2.27-0.99  c2.67-34.08,5.34-68.16,8-102.25l2.45-1.24L526.35,733.35z" />
<path class="cls-16" d="M754.92,723.67c-15.98,3.72-9.8,11.6-13.32,30.87l-2.84,15.56l-5.66-41.73c-17.5,2.54-34.23,7.65-51.19,11.09  l-59.7,12.12c-26.44-5.28-52.97-10.41-79.66-14.24c-5.47-0.78-10.84-2.79-16.21-4c12.64-6.66,25.11-3.66,37.24,2.91l36.14-3.09  c12.66,5.37,26.25,9.59,39.42,3.17c3.41-16.09,22.25-0.87,32.59-5.82c11.04-5.29,19.62-12.84,30.76-19.33L754.92,723.67z" />
<path class="cls-4" d="M468.55,839.95c0.84,0.49,2.8,1.14,2.94,2.36c1.1,9.81,3.98,19.37,4.46,29.23l-0.66,2.49l-35.64,6.2  c-6.83,2.14-13.13,2.45-18.9,0.91c-2.82-10.55,1.39-21.89,1.28-32.89l0.83-2.57c6.25-2.41,19.69-4.57,26.09-3.09l0.98-2.5  C456.39,838.43,462.6,838.38,468.55,839.95z" />
<path class="cls-14" d="M475.95,871.53l38.58,20.36c-5.57,0.83-11.36,1.24-16.6,3.35c-1.25,2.95-7.05,4.02-9.17,1.24  c-10.94,1.67-21.83,3.67-32.64,6.04c-0.8-0.67-1.34-2.14-2.38-2.55l-1.24-2.41c2.34-8.05-1.57-10.18-11.73-6.39l-4.6-1.17  l-15.53-7.76c0.1-0.27,0.18-0.83,0.11-1.1L475.95,871.53z" />
<path class="cls-4" d="M346.95,700.21c2.56-1.81,17.05,0.01,18.62,1.35c0.78,0.66,1.06,1.65,1.17,2.63l-9.04,64.32  c-2.46,1.21-5.36-0.05-8.69-3.79c-3.43,26.33-6.43,53.05-9.02,80.16l-2.48,1.15l-1.13,2.21l-89.37-12.47  c-2.06-0.25-3.02-1.93-3.17-3.85l26.44-110.55c2.94-3.21,6.09-1.28,9.45,5.79c7.25,9.03,15.36,17.26,24.31,24.7  c1.98-1.49,3.85-3.57,5.6-6.24c2.62-3.12,4.47-4.82,7.63-0.95l0.72,26.14c4.32-18.85,8.49-37.75,12.49-56.7  c0.82-6.31,3.2-11.21,7.13-14.69C340.76,698.93,343.99,699.61,346.95,700.21z" />
<path class="cls-1" d="M439.35,713.71l-8.18,104.48c-4.3,3.28-9.82,4.87-16.54,4.78c-4.49,1.28-8.29,0.77-11.4-1.51  c-0.49,3.63-9.59,3.61-10.49,0.15l4.52-113.24c-0.08-0.92-0.08-2.29,0.56-2.51c9.04-3.04,22.83-4.97,32.29-4.23l64-12.82  L439.35,713.71z" />
<path class="cls-1" d="M357.7,768.5l-2.22,34.3l18.56,23.03c-7.26,21.97-14.67,42.67-21.26,63.57c-5.66-4.46-1.98-13.69-8.01-17.17  c-3.89,1.89-8.46,0.65-8.51-3.93l-2.25-1.78c-0.37-0.88,0.64-18.12,1.08-18.97c0.44-0.85,1.49-1.22,2.43-1.52l9.12-86.14  L357.7,768.5z" />
<path class="cls-16" d="M403.23,821.46c4,1.6,7.57,4.39,10.71,8.37c6.09,5.03,13.56,6.76,22.42,5.21c4.39,0.62,13.53,2.16,12.58,7.54  l-26.91,5.66l-46.55-23.63c5.69-0.59,11.64-0.99,17.27-2.99L403.23,821.46z" />
<path class="cls-16" d="M430.11,701.65l-32.85,6.73c-10.2-0.67-20.68-2.21-30.52-4.19l-19.79-3.98c6.11-3.74,15.33-9.76,23.06-8.62  C400.6,708.06,402.09,691.08,430.11,701.65z" />
<path class="cls-4" d="M1006.64,798.27c-0.97,20.82-1.94,41.92-7.63,64.36l-7.51-63.51C996.34,797.66,1001.83,799.3,1006.64,798.27z" />
<path class="cls-14" d="M984.45,778.02c3.71-1.45,5.69-0.99,5.94,1.39c-4.51,5.52-2.15,12.56-1.38,19.29  c-1.12,0.02-2.27,0.49-3.38,0.49l-24.25-0.03c-0.56-0.73-1.32-1.87-0.9-2.41c2.48-3.26,16.07-16.97,19.23-19.14l2.86,0.46  C983.19,777.92,983.83,777.9,984.45,778.02z" />
<path class="cls-16" d="M686.62,815.58c0.89,1.37,2.58,4.2,1.53,5.59c-0.95,1.25-2.35,4.56-3.94,4.95c-3.98,0.98-10.36,1.42-11.42-3.39  c-0.88-4.03,2.29-6.46,4.82-7.27C680.65,814.49,683.72,814.96,686.62,815.58z" />
<path class="cls-16" d="M647.12,859.85c3.46-2.08,8.03-0.3,9.71,2.63c1.72,2.99,0.33,7.25-2.94,9.71c-2.67,2.01-6.66,1.3-8.7-2.46  C643.88,867.31,643.12,862.25,647.12,859.85z" />
<path class="cls-4" d="M497.93,895.24c-1.39,14.56,0.7,29.39-3.15,45.85c-5.4-14.72-3.53-30.08-6.02-44.61  C491.8,896.01,494.76,894.56,497.93,895.24z" />
<path class="cls-14" d="M195.82,819.22c0.78-0.86,1.73-1.4,2.88-1.57c1.06-0.16,17.64,6.87,19.9,8.03l1.64,2.77  c2.05-3.76,12.42,2.2,15.04,4.39l0.32,2.79c0.24,0.89,0.47,2.27-0.12,2.57c-5.94,3.01-26.77,11.76-32.6,12.9l-2.46-1.55  c-3.55,0.17-6.99-1.14-10.45-1.51c-11.21-28.27-10.1,8.38-39.82-32.54c1.07-3.14,3.08-7.47,5.95-9.17  C169.64,808.37,182.4,815.57,195.82,819.22z" />
<path class="cls-4" d="M235.59,835.63l3.55,1.61c3.55,7.65,6.4,15.56,8.53,23.73l-1.34,3.63c-6.72,7.7-18.23,14.06-28.16,16.34  c-7.76,5.93-11.05,17.31-13.44,26.09l-4.32-57.49L235.59,835.63z" />
<path class="cls-1" d="M847.16,699.19c7.79-0.85,15.67-0.03,23.63,2.45l1.19,2.64l2.34,0.79c0,16.9,0,33.8,0,50.71l-2.34,1.38  c-0.25,0.91-0.66,2.28-1.36,2.33c-7.34,0.54-20.03,0.43-27.36-0.22l-1.66-2.36c-4.77-16.94-1.72-37.41-10.95-50.99  c-20.9-6.77-42.85-10.27-64.08-19.6C795,688.5,821.07,693.84,847.16,699.19z" />
<path class="cls-14" d="M871.99,757.16l3.27-2.34c13.85-0.85,27.54,0.02,41.06,2.6l2.44,3.14c-7.9,2.67-12.94,10.53-20.1,14.98  l-2.67,1.74l-14.63-4.05c-4.66,3.17-9.42,3.95-14.28,2.32c-8.1-4.87-15.54-2.8-22.33,6.2l-2.58,1.37  c-4.04-1.57-8.15-2.28-12.33-2.12c-5.56,1.77-11.11,3.6-16.67,5.5l-43.04-1.99l71.48-27.6L871.99,757.16z" />
<path class="cls-16" d="M384.98,1032.21c3.44-1.19,6.53,0.96,7.22,3.48c0.92,3.38-0.38,6.59-3.17,7.69c-3.02,1.19-6.44,0.06-7.56-2.7  C380.15,1037.45,381.35,1033.46,384.98,1032.21z" />
<path class="cls-16" d="M703.52,959.79c-4.1-1.47-3.73-7.17-2.97-10.46c0.61-2.63,2.81-7.42,7.19-6.63c4.3,0.77,4.66,6.23,3.71,9.74  C710.66,955.38,708.03,961.41,703.52,959.79z" />
<path class="cls-2" d="M923.52,694.98c4.19,15.85,1.58,33.31,7.95,47.79l46.88,3.85l4.21,31.44l-21.19,21.08l-13.32,77.33  l-29.3-115.93c-14.48-4.58-31-3.27-46.77-3.4l0-52.88l0.65-2.5c0,0,16.36-2.96,49.09-8.87L923.52,694.98z" />
<path class="cls-16" d="M898.66,775.54l2.33,32.13l-9.9-25.13c-4.39,1.54-7.43,5.07-11.06,7.42l-66.86-3.46  c8.75-6.87,17.8-10.8,28.72-5.47c5.58-4.08,11.34-12.69,17.88-10.71c7.44,2.25,13.63,7.56,20.05-0.23  C886.59,772.98,892.68,773.97,898.66,775.54z" />
<path class="cls-16" d="M859.27,806.84c3.23-1.2,6.64-0.81,8.93,2.18c1.53,2,2.02,6.73-1.82,8.28c-2.64,1.06-6.47,0.42-9.27-2.43  C855.07,812.8,855.13,808.37,859.27,806.84z" />
<path class="cls-6" d="M783.7,1018.42c-3.65,2.49-7.3,11.99-13.81,7.74c-0.41-4.08-1.08-8.43-4.8-11.21c1.44-1.36,3.07-4.68,5.67-6.37  C773.53,1006.77,782.34,1018.07,783.7,1018.42z" />
<path class="cls-16" d="M453.74,899.97c-6.23-2.42-12.29-5.88-17.57-9.97c5.71-1.4,12.71-4.34,18.42-1.85  C455.44,891.52,456.01,897.43,453.74,899.97z" />
<path class="cls-14" d="M336.25,868.3c2.62,0.93,5.39,3.81,8.51,3.93c-14.15,9.67-31.47,14.49-47.05,22.19l-79.54-13.47  c8.92-5.86,18.64-11.42,28.16-16.34l0.83-3.07c9.67-6.13,25.55-12.71,37.06-12.21c11.34,0.49,39.69,11.41,51.2,16.2L336.25,868.3z" />
<path class="cls-16" d="M324.68,913.32c-3.83-1.57-5.68-4.87-4.68-7.89c1.04-3.14,4.58-4.59,8.12-4.54c3.4,0.05,5.88,1.74,7.43,3.86  c2.03,2.79,1.1,6.17-0.63,7.65C331.85,915.05,328.23,914.78,324.68,913.32z" />
<path class="cls-10" d="M587.58,340.48c1.46-1.14,1.51,1.68,1.67,2.42c0.25,1.18,0.49,3.43-1.41,3.32c-0.79-0.05-2.05-0.94-2.4-1.67  C584.92,343.48,585.78,341.89,587.58,340.48z" />
<path class="cls-10" d="M616.73,347.71c1.17-1.01,2.14-0.75,2.76,0.31c0.53,0.92,0.81,2.13-0.11,3.23c-0.76,0.92-2.27,1.61-2.44,0.57  C616.6,349.83,615.54,348.74,616.73,347.71z" />
<path class="cls-10" d="M388.66,359.12c0.11-1.3,2.16-0.16,2.63,0.13c0.63,0.38,1.08,2.03,0.51,2.61c-0.4,0.4-0.95,1.53-2,1.11  C389.12,362.69,388.49,361.08,388.66,359.12z" />
<path class="cls-10" d="M472.81,340.32c1.43-1.63,2.08,0.86,1.86,1.47c-0.48,1.33,0.49,3.29-0.18,4.5c-0.85,1.53-2.55,0.25-2.3-0.37  C472.76,344.52,471.4,341.93,472.81,340.32z" />
<path class="cls-8" d="M654,436.05c1.8,4.36-3.15,13.44-7.22,15.04c0.59,1.17,0.75,2.21,0.48,3.13l-23.08,28.63  c0,0,1.27,4.04,3.82,12.12c9.29-7.51,19.35-12.69,30.17-15.54c5.09,6.57,9.09,13.99,11.98,22.27l-0.98,3.26l-1.01-0.02  c-0.47,6.55-0.63,13.1-0.47,19.65l12.88,77.29l-2.07,1.78c1.16,0.42,2.04,1.14,2.67,2.19c4.41,7.35-6.85,40.69-14.8,45.21  c-16.05,9.11-42,18.2-59.95,23.74c-8.09,2.5-16.72,5.1-25.06,6.43c-0.93,0.15-1.91-0.03-2.92-0.25c-1.04-0.23-2.05-0.63-3.05-1.07  l1.13-3.48c13.58-5.89,26.91-12.19,40.01-18.88l1.96-3.59c9.95-4.48,20.22-8.05,30.82-10.71c1.69-2.39,4.37-4.32,8.04-5.8  c-2.27-10.03-5.1-19.87-8.49-29.54c-1.52,3.52-3.42,6.79-5.73,9.81l-2.97-0.25l-3.45-1.68c-3.67-8.29-7.96-16.22-12.9-23.79  l-1.82-6.04l-2.31-1.38c-2.55-9.36-6.43-25.99,1.03-33.44l-0.45-1.47l-14.15,29.61l-2.85,0.54c-4.82,0.81-7.91-7.01-7.06-11.6  l-2.71-4.09c-3.45-19.8-0.9-42.86,6.63-61.42l-1.28-0.98c2.41-6.41,1.46-11.65-2.84-15.71c-5.02,1.42-7.6-0.85-7.76-6.82  c-2.99-3.96-3.76-7.33-2.3-10.13c-0.15-3.73,1.5-7.47,4.93-11.23c15.69-12.28,27.81-26.76,40.09-42.05l2.89,0.2  c3.98-11.35,6.49-23.16,11.06-34.3l2.79,1.62c1.08,11.09,1.31,22.21,0.7,33.36l1.95,8.02C652.99,428.69,654.21,432.48,654,436.05z" />
<path class="cls-13" d="M674.06,369.12l5.53,3.6l13.66,16.75c11.77,11.92,22.58,24.6,32.42,38.06c3.65-0.37,10.41,6.52,6.83,9.59  c-0.85,0.28-1.71,0.52-2.58,0.6c-4.77,0.43-36.17-19.16-42.72-23.56l-2.63-4.02l-2.48-0.6c-6.99-8.63-13.4-17.67-19.21-27.14  c-9.28,23.71-3.1,42.35,12.97,61.18l8.35-24.4l2.75-0.87l2.58-0.06l23.88,48.78c1.37,6.64,0.84,14.48-2,20.64  c0.89,0.2,2.2,0.59,2.23,1.27c0.17,3.44-0.81,11.28-1.41,14.98c0.41,4.34-0.62,7.04-3.12,8.1l-2.54,0.49  c-17.54-24.18-35.09-48.38-52.65-72.58l0.07-3.89c-15.2-20.96-3.53-32.6-9.1-54.38c4.12-10.06,11.58-18.07,20.58-26.44  C667.39,362.08,671.37,365.32,674.06,369.12z" />
<path class="cls-13" d="M420.88,505.24c0.25,1.35,0.26,2.75-0.38,4c-1.51,2.96-26.44,24.28-31.18,28.11  c-14.56,11.76-33.32,21.26-52.17,19.26l-5.01,1.19c-10.17,8.37-19.85,17.32-29.03,26.85c-3.67,2.34-9.5,4.15-10.08-1.21  c22.33-25.76,47.03-51.59,77.41-68.41C385.68,506.6,404.74,507.76,420.88,505.24z" />
<path class="cls-1" d="M674.98,349.34c3.1-0.04,3.84,1.25,1.11,3.07c9.57,21.57,25.84,39.86,39.98,58.84  c5.12,0.21,12.42,11.8,9.58,16.28c-17.8-18.82-36.69-37.35-51.6-58.41c-2.31-11.99-11.21-23.12-8.7-34.99  c0.92-0.36,1.88-0.52,2.84-0.22c0.71,0.22,6.91,11.38,7.5,12.8L674.98,349.34z" />
<path class="cls-8" d="M677.28,338.8c5.85,2.84,8.18,5.96,6.99,9.34c2.24,5.93-6.66,4.06-9.29,1.19c-4.47-4.13-5.54-10.63-9.63-15.21  c0-2.19,1.81-3.44,2.32-5.01C671.13,332.3,672.95,336.76,677.28,338.8z" />
<path class="cls-5" d="M584.29,563.6c0.92,0.06,2.3,0.26,2.4,0.91c0.46,2.95,1.74,25.35,0.77,26.25  c-14.51,8.76-29.64,16.38-45.4,22.87l16.79,1.7c2.3,2.06,3.22,2.99,0.9,5.32c-5.03,5.04-31.39,10.78-39.48,11.42  c-16.99,1.35-14.1-3.05-4.36-10.69c-8.35,0.18-16.67,1.19-24.99,3.01c-20.93-2.2-41.73-6.63-62.38-13.29  c-13.01-4.2-24.82-1.37-37.39,1.99c-24.42,8.95-47.11,14.25-73.84,10.96l-3.42-2.51c-4.75,3.39-9.7,2.12-14.17-1.29l-1.43,2.25  c-13.55,0.85-26.86,12.27-29.59,25.62c3.61,0.15,5.85,2.8,2.18,4.58c-0.73,3.06-1.37,6.12-1.93,9.16l-1.65,0.43  c-1.64,2.85-3.48,1.48-5.46-0.65c-1.38-2.66-3.36-4.54-5.94-5.62c-3.36-1.73-0.74-8.63,2.79-9.09c3.07-10.01,6.46-20.27,12.24-29.12  c5.44-5.18,11.34-9.99,17.72-14.42l124.99-35.94c3.95-0.51,15.51-1.82,16.48,3.25c0.16,0.84-0.69,1.86-1.83,2.95  c0,0-8.35,7-25.04,20.99c-2.1,1.65-8.09,7.72-6.48,7.65c49.12-7.99,99.18-14.45,149.11-15.46c16.69-1.01,25.8-9.04,35-22.47  L584.29,563.6z" />
<path class="cls-2" d="M596.2,568.21l-0.04,2.49c3.75,8.47,6.57,17,8.46,25.58c-11,14.79-23.55,28-37.66,39.64  c-24.79,6.73-49.57,9.45-74.34,8.15c-25.93-6.56-51.84-13.95-77.72-22.17l-42.81,13.91c-10.66,0.94-55.87-0.96-59.7-10.81  c-0.69-1.79-0.44-2.4,1.51-3.45c63.84,3.24,42.15-5.51,98.39-15.31c24.7,1.93,48.05,13.23,72.8,15.79  c11.7,1.21,22.97-5.65,34.99-2.18c-2.52,4.54-7.08,7.28-11.37,10.11c17.72,0.86,35.36-4.09,51.59-12.14l-27.33-2.54  c18.06-8.54,36.11-15.84,52.8-25.73l-1.48-25.95l-2.42-2.91l1.12-12.39c0.35-7.28,2.51-13.12,6.47-17.52  c-0.41-0.72-0.77-1.46-0.98-2.23c-0.83-3.01,5.91-19.56,8.07-23.4l3.58-2.45C593.4,523.97,594.15,546.09,596.2,568.21z" />
<path class="cls-5" d="M584.94,464.17l1.49,0.48c-1.56,2.41-1.73,3.88-0.5,4.41c1.83,5.64,6.92,10.28,4.99,16.24  c5.87-5.22,8.84,1.47,10.47,4.11c2.61,4.22,0.17,9.87-1.27,13.3c-3.71,8.85-8.05,18.65-10.67,28.08l-2.75,3.58  c-1.09,0.81-21.27,8.79-22.47,8.69c-4.42-0.37-5.11-1.3-4.33-6.15c1.69-14.15,6.2-27.71,11.2-40.96l-18.32,0.85  c-5.9,1.38-7.08-16.9-5.49-19.02c2.84-3.81,26.91-19.73,31.26-20.55C579.76,456.99,586.81,461.88,584.94,464.17z" />
<path class="cls-13" d="M485.17,538.01l-40.34-1.08c-5.84-0.16-10.87-3.09-16.48-5.61c8.99-3.12,15.35-10.86,23.82-12.14  c20.65-3.12,41.35-2.19,62.88-1.68L485.17,538.01z" />
<path class="cls-5" d="M487.37,572.22c-15.59,0.9-32.13,2.71-48.83-2.22C454.53,567.91,472.3,562.62,487.37,572.22z" />
<path class="cls-5" d="M428.85,570.09c2.27-0.99,4.34-0.91,6.02,0.04C432.99,571.05,430.72,571.17,428.85,570.09z" />
<path class="cls-13" d="M369.48,566.11c-9.72,6.3-19.89,9.98-30.95,13.84c6.03-6.77,11.8-13.43,19.45-18.52  C361.57,560.16,366.46,564.07,369.48,566.11z" />
<path class="cls-4" d="M207.49,679.6l23.37,3.61l1.86,2.74c-2.15,12.01,4.53,21.38,12.79,29.38c-6.94,37.41-14.5,74.82-22.69,112.21  l-2.58,0.91c-8.62-1.6-16.18-6.99-24.41-9.23l-3.92-44.71l13.43-94.66C205.99,679.96,206.84,679.5,207.49,679.6z" />
<path class="cls-11" d="M156.09,806.33c-0.08,4-1.94,8.04-5.95,9.17c-3.31-4.04-10.65-0.94-15.49-3.89  c3.11-5.67,10.85-4.71,12.78-10.13C150.41,801.69,154.61,804.02,156.09,806.33z" />
<path class="cls-2" d="M248.35,673.82c3.12,0.01,3.86,2.81,2.21,8.42c4.64,7.4,10.26,12.99,16.85,16.76l0.88,2.61  c1.99-3.35,4.93-0.87,3.68,2.58c3.13,1.55,5.9,3.92,8.3,7.09c2.08-2.34,3.05-1.49,3.36,1.51c5.1,0,10.62,8.43,5.92,12.48  c-0.18,3.95,1.06,6.96,3.72,9.03c10.22-12.11,20.18-24.4,29.87-36.88l2.88-1.34c2.15-2.97,9.75-1.89,10.28,1.98l1.31,1.37  c-11.33,30.69-10.66,56.1-21.57,85.83l-1.14-41.31c-4.17,2.96-5.67,6.59-10.23,11.7c-11.37-10.73-24.21-20.46-31.78-35.12  l-26.96,112.73l91.58,12.78l-1.26,22.27l-40.56-14.44c-18.65-6.64-34.4,3.03-49.35,10.75c-3.04-9.77-5.6-20.18-10.74-28.97  c-4.63-2.25-10.13-6.21-15.36-7.19l23.39-112.18c-10.98-9.56-15.69-20.26-12.77-33.06l9.19,0.75c-1.52-6.02-3.19-11.21-0.53-16.24  C242.44,668.1,248.38,670.44,248.35,673.82z" />
<path class="cls-4" d="M258.68,646.92l-2.79,9.09c2.4,2.41,1.81,3.83-1.51,4.19l-3.49,12.68l-2.53,0.94  c-3.41-1.66-7.73-2.12-8.84-6.1c3.63-6.85,7.76-13.46,12.21-19.81C254.04,647.62,256.3,646.64,258.68,646.92z" />
<path class="cls-5" d="M745.12,322.8c-4.92-2.2-9.34-5.82-13.26-10.87l-3.95-3.1c-3.07-1.15-4.79-2.92-5.15-5.29  c-4.29-3.43,5.86-14.74,10.11-12.48c12.81,9.22,27.3,15.71,43.46,19.5c5.2,2.35,11.97,5.43,14.51,10.71  c1.85,3.84,2.49,33.32,1.07,35.93c-1.09,2-2.42,2.31-4.62,2l-20.94-26.81c-2.92,5.84-6.85,9.32-11.79,10.44  c-1.98-4.23-3.4-8.98-4.25-14.24C748.57,326.54,746.84,324.61,745.12,322.8z" />
<path class="cls-2" d="M839.71,392.77c0.93,0.02,2.34,0.21,2.43,0.86c2.03,14.27,3.38,31.22,4.19,45.69  c1.28,4.73,0.79,7.91-1.48,9.54c-4.06,5.84-7.22,12.32-10.38,18.69c3.05,1.94-1.17,6.29-3.71,6.97l-14.21,18.9  C814.26,463.01,830.14,420.33,839.71,392.77z" />
<path class="cls-13" d="M684.27,348.15c0.56-0.74,1.49-1.76,2.1-1.49c6.22,2.82,13.75,8.05,19.09,11.84l1.2-1.05  c0.38-4.49,12.39-4.22,13.89-0.6l3.34,1.04c4.21,4.17,8.68,8.07,13.42,11.68l-0.19,3.03c4.15,4.08,7.98,9.03,11.87,14.26  c-26.58-9.12-48.54-24.29-72.9-34.44c-0.37-0.84-0.43-2.44-1.11-3.07C678.32,347.48,681.67,352.21,684.27,348.15z" />
<path class="cls-2" d="M742.97,350.2c0.71-2.28,1.74-2.24,2.34,0.06c0.38,0.58,0.67,0.92,1.17,0.33c3.4-4.51,14.92,2.32,7.68,5.61  c-4.16,1.89-23.13,2.61-29.16,2.73l-4.45-2.09c-4.64,0.27-9.39-0.72-13.89,0.6c-0.48-1.19-0.48-1.19,0,0  c1.04,3.12,5.61,3.2,6.11,7.31l-28.5-16.61l-6.99-9.34C698.47,347.09,720.18,352.99,742.97,350.2z" />
<path class="cls-2" d="M722.14,320.82c1.12-4.93,7.99,0.08,3.6,3.05l-1.19,2.48c-5.69,1.88-11.12,4.58-16.29,8.09  c2.31,2.13,5.28,3.75,8.91,4.86l0.92,2.88c-12.41,3.51-29.84-3.61-38.93-15.61C693.95,324.48,708.06,321.1,722.14,320.82z" />
<path class="cls-13" d="M839.76,385.47c-6.18-9.89-14.71-20.2-17.05-31.65c-4.52-0.33-2.83-19.26-1.81-21.23  c2.09-4.03,3.24-4.81,6.1-0.77c8.97,14.1,17.34,28.1,14.22,45.23C842.22,381,841.73,383.81,839.76,385.47z" />
<path class="cls-4" d="M722.76,303.54c9.16,3.26,16.05,11.91,22.36,19.26c-0.07,0.91-0.24,2.24-0.9,2.4  c-2.75,0.65-8.98,0.69-12.08,0.67c-3.32,0.87-5.45,0.2-6.4-1.99c-0.09-0.87-0.26-1.88-1.12-2.53c-0.61-0.46-1.62-0.54-2.48-0.52  c-0.12-0.35-0.06-0.79-0.21-1.13c-4.44-3.02-8.79-6.19-13.05-9.52l0.13-2.8c-5.21-0.75-12.32-9.04-6.4-12.64  c1.19-0.72,16.97,4.88,19.37,6.05L722.76,303.54z" />
<path class="cls-5" d="M657.74,273.24c-9.06-2.59-18.23-4.56-21.75-11.85c-2.23-4.61,0.65-7.27,1.7-10.58  c5.16-6.08,9.6-3.31,13.33,8.3l2.86,2.51C660.82,264.25,670.47,272.11,657.74,273.24z" />
<path class="cls-2" d="M709.02,307.36c4.89,3.65,10.43,6.55,12.92,12.32c-10.24-1.59-20.47-5.59-29.65-10.39  c-0.84-0.73-2.19-7.07-2.07-7.44C691.75,297.14,705.89,305.35,709.02,307.36z" />
<path class="cls-4" d="M690.26,308.21c-3.58,1.83-7.59-5.54-10.22,0.64c-3.34-1.16-1.37-5.89-6.21-6.28l5.9-5.84  C686.72,293.61,694.27,301.72,690.26,308.21z" />
<path class="cls-16" d="M703.79,281.33c-11.57-11.77-23.64-21.59-38.18-30.19C681.86,254.82,694.3,267.9,703.79,281.33z" />
<path class="cls-4" d="M787.45,534.26c0.71,0.6,1.68,1.65,1.34,2.21c-9.96,16.04-22.86,36.12-34.31,50.88c-1.57,3.71-3.57,5.28-6,4.7  l-0.91-0.08c-2.78-2.21-4.05-5.45-3.81-9.72c-1.35-13.84-1.51-27.58-0.48-41.23c5.13-0.28,10.37,0.95,15.72,3.68  c5.23,3.23,12.97-8.1,7.38-11.09l-0.86-3.64c-4.24-1.19-6.99-3.76-8.24-7.72c-3.57,4.82-10.35,2.51-12.04-2.94  c-3.47-0.05-6-1.93-7.61-5.64c-6.51,6.55-9.76,9.82-9.76,9.82c-3.46,7.25-7.75,13.8-12.88,19.67l-2.83-0.55  c-5.96-1.89-6.03-13.82-5.98-19.76c-0.79-5.06,0.18-8.66,2.91-10.81l2.29-24.35c1.91-6.46,3.26-13.12,4.05-19.97  c2.96-3.26,6.01-1.22,9.16,6.1l7.91,10.54c5.69-4.74,11.73-9.29,18.12-13.65c2.27,0.5,2.36,0.41,0.29-0.27  c-5.59-9.92-11.59-19.57-17.99-28.96l-0.45-4.34c-0.72-4.13-5.52-5.8-6.83-9.59c-1.96-5.65-5.87-11.31-9.58-16.28  c11.09-11.13,36.52,13.7,48.76,22.04l9.91,40.24c6.9-4.19,21.08,9.69,20.78,7.8C796.44,487.03,760.19,544.19,787.45,534.26z" />
<path class="cls-2" d="M817.01,567.03c-7.94,12.32-15.78,26.42-29.2,33.65c-22.6,12.17-44.59,23.31-70.87,25.4  c11.41-11.68,23.1-21.51,31.55-34.03l38.97-57.79c7.52-11.16,16.64-20.81,26.47-32.62C817.48,524.3,820.6,545.85,817.01,567.03z" />
<path class="cls-8" d="M830.76,474.53c-0.59-2.68,2.74-5.01,3.71-6.97c3.09-0.54,7,0.11,8.65,0.2c-0.63,10.72,4.33,17.45-6.49,21.85  C833.72,485.73,831.96,479.99,830.76,474.53z" />
<path class="cls-8" d="M720.9,249.77c2.45,0.46,3.75-3.16,5.13-3.16s3.36,3.38,6.06,5.21c4.33-5.69,7.52-4.38,12.86-3.47  c6.98,1.19,8.38,5.52,8.73,12.9c1.01,21.34,30.74,9.96,38.21,42.78c4.67,10.16,17.73,17.76,25.37,25.29l-10.72-63.09  c11.84,15.95,15.99,36.17,25.35,53.64c0.38,0.72,0.04,1.81,0.34,2.57c13.01,33.42,14.12,68.85,17.34,104.22  c1.21,13.32,1.64,26.57,1.05,39.85c-3.67-4.22-5.22-11.75-5.76-17.65l-5.15-56.1c-0.22-2.4,0.48-4.89,0.06-7.31  c-4.42-25.38,10.53-11.17-16.4-55.11c-0.31,8.37-2.11,16.31-0.65,23.45c-5.58,6.45,5,18.91,3.67,30.24l-7.15-7.85l-18.22,34.43  l-3.71,28.94c-16.83-29.96-18.68-25.51-23.6-60.86c-12.63-0.83-24.35-6.66-36.58-6.11c-5.35-5.26-12.7-9.09-16.57-15.75  c11.51-0.68,22.83-1.27,35.44-3.27c-3.17-1.66-6.41-1.88-9.51-2.99c-0.36-0.13-0.79-0.33-1.17-0.33c-0.76,0-1.58-0.15-2.34-0.06  c-7.66-4.18-16.78-4.89-24.88-8.02c-5.11-1.97-9.77-3.96-15.69-7.79c8.59-2.76,15.19-10.07,23.34-10.52l19.38-1.07  c8.61-0.48,8.85,10.5,9.96,18.51c4.57-2.6,7.87-8.05,11.22-13.15l23.32,30.23c-0.78-13.16,2.97-25.32-1.32-37.37  c-13.92-14.42-38.22-10.35-57.62-28.98c-3.64,4.52-6.85,7.32-7.93,11.5l-20.25-7.21c0.56,5.43,3.06,8.46,6.51,11.03  c-5.6-0.78-10.91-3.01-16.81-5.29c-1.15,2.59,0.39,4.9,0.07,7.22c-0.68-0.35-1.44-0.57-2.02-1.09c0.91-8.33-5.39-8.78-10.53-11.48  c-9.89-5.2-19.58-11-33.47-11.5c4.96-5.51,12.02-1.38,11.08-7.7c2.55,0.98,6.06,0.28,9.4,1.77c-0.52-6.15-5.26-4.99-9.01-6.06  c0.79-1.11,3.06-1.56,3.88-2.37c0.74-0.74-1.74-3.77-2.89-4.21c-20.28-7.71-6-20.03-21.05-15.86c1.46-4.63,4.7-10.79,10.32-11.68  c12.53,1.44,23.84,7.22,36.66,11.71c1.95-15.98,9.76,6.47,21.03,7.78L720.9,249.77z" />
<path class="cls-4" d="M742.82,639.79l4.85-1.28c13.44,3.01,27.22,4.67,40.99,3.79l4.6,1.96c8.86,11.62,21.69,17.45,36.65,17.49  l107.78,0.24l-178.06,17.8c-68.19,6.81-192.62,45.21-246.51,28.03c20.57,2.43,40.33,0.14,61.1-4.74  c33.6-7.89,66.36-15.14,99.06-25.9c10.51-3.46,17.87-9.11,20.9-20.58C711.92,653.74,727.78,647.86,742.82,639.79z" />
<path class="cls-4" d="M578.88,664.51l0.01,2.9l-10.54,4.36l-0.93,2.64c-5.91,3.73-11.81,7.46-17.71,11.2  c0.14,2.39-1.74,3.77-3.51,1.98c-0.28,3.72-7.37,4.81-7.93,0.69c-2.31-3.2-4.9-5.82-8.33-9.17c-44.15-1.84-87.42-6.51-131.52-11.75  c-17.02-2.02-33.32-0.14-50.03,1.63l-12.09,29.08l-10.28-1.98l-0.65-3.26c7.84-12.6,4.71-27.78,0.87-41.31l0.3-4.38  c29.3-6.17,60.49-3.16,90.13,0.23c50.15,8.36,100.97,11.89,151.87,14.74C572.1,662.29,575.53,663.37,578.88,664.51z" />
<path class="cls-16" d="M948.91,676.82c-8.27,6.26-16.66,12.47-25.38,18.16l-51.53,9.31l-24.82-5.09c7.45-5.76,17.73-0.45,27.09-3.97  c10.84-19.63,25.22-5.72,42.74-8.85C926.22,677.59,936.75,674.95,948.91,676.82z" />
<path class="cls-14" d="M552.13,696.05c-2.35,1.15-25.52,5.03-22.43-2.45c2.98-1.33,6.39-2.85,8.59-5.32c2.67,0.97,5.24-0.71,7.93-0.69  c1.52,1.27,3.06,0.58,4.62-2.08c0.35-0.99,0.72-0.96,1.13,0.04C558.73,684.71,555.46,693.47,552.13,696.05z" />
<path class="cls-2" d="M747.57,591.97c-14.98-1.26-29.51-3.67-45.26-5.24c-11.21-31.4-17.18-35.93-16.78-70.12l2.4-0.58l20.68,32.82  c0.17-3.53,1.35-5.62,3.56-6.25c13.61-12.55,5.05-15.53,25.8-32.24c3.25,2.85,2.8,5.06,4.19,5.85c2.11,1.2,4.24,0.53,6.35,0.82  c-0.55,2.48-0.73,4.11,0.92,4.64c2.03,0.66,4.55,1.6,5.18,0.2l2.61-5.79c2.28,3.4,1.88,6.59,4.43,9.33  c1.56,1.68,4.16,1.41,6.63,1.76c-2.36,8.21,6.06,7.18,1.64,12.32c-1.82,2.11-2.69,8.38-7.97,8.08c-5.18-0.29-10.43-3.66-17.39-5.55  C745.53,559.72,744.42,576.17,747.57,591.97z" />
<path class="cls-5" d="M709.11,512.03c-0.95,10.07-1.16,21.56,3.07,30.57c-0.56,3.82-0.98,7.87-2.82,11.82l-23.83-37.81  c-1.42-2.25-0.76-6.86-4.4-7.08c-1.92-0.54-3.01-2.18-3.27-4.91c-10.73-17.07-21.42-34.16-32.07-51.27l0.99-2.26  c1.33-5.24,5.1-9.95,7.22-15.04L709.11,512.03z" />
<path class="cls-11" d="M685.47,603.62c1.01,9.44,8.49,45.39-10.4,53.57c-24.14,10.45-98.42,37.35-122.94,38.87  c-2.05-4.16,4.52-7.36-0.18-10.5c3.52-3.4,8.53-5.19,15.06-5.37c3.39-1.58,6.18-1.66,8.38-0.26c30.4-4.89,60.77-18.14,89.68-30.75  c10.83-11.68,15.97-30.59,13.44-45.5C679.96,600.97,683.52,601.62,685.47,603.62z" />
<path class="cls-13" d="M681.13,509.53c-0.18,7.63,0.36,14.85-0.93,22.79c-2.02-10.77-6.58-19.01-11.02-27.36  c-3.89-7.33-6.46-16.15-11.67-23.62c-12.07,3.47-21.43,11.28-31.12,17.91c-1.24-7.19-2.17-11.78-5.07-16.73l25.45-31.43l25.12,39.47  C675.75,496.6,681.29,502.57,681.13,509.53z" />
<path class="cls-5" d="M879,635.05c-2.41,3.94-11.68,3.86-14.38,0.15l-2.98,1.32c-14.39-3.49-31.37-9.67-34.46-26l-2.63-2.86  c-1.84-6.63-4.06-17.77-1.85-23.86c2.17-11.71,9.29-22.83,15.2-33.02c0.71,19.78,0.67,40.7,4.07,60.33  C849.77,624.79,866.83,627.58,879,635.05z" />
<path class="cls-13" d="M685.47,603.62c-2.23,1.05-4.7,0.97-6.96,0.04l-11.04-65.03c-1.96-11.54-4.57-23.92,0.71-33.7  C678.87,536.44,681.94,570.48,685.47,603.62z" />
<path class="cls-2" d="M822.69,583.8c1.21,8.64,3.83,17.89,4.48,26.72c2.85,10.05,7.37,18.85,13.55,26.39  c3.59,2.04,5.84,4.48,6.76,7.33c8.4,12.93-23.18-4.79-28.71-15.82C810.31,611.56,810.07,595.64,822.69,583.8z" />
<path class="cls-8" d="M864.62,635.2c1.87,0.86,7.22,4.16,8.08,5.71c0.8,1.43,0.87,2.09-0.56,3.55c-8.16-0.53-16.49-0.42-24.65-0.22  c-13.12-6.02-19.26-19.56-20.31-33.73C841.93,631.93,837.67,624.14,864.62,635.2z" />
<path class="cls-11" d="M753.43,633.73c7.9-2.74,19.72-1.76,28.21-0.56c3.54-0.47,5.95,0.47,7.25,2.81c1.15,2.24,3.54,5.82,4.39,8.29  c-17.1,1.79-33.79-0.44-50.44-4.47C746.12,638.02,749.53,634.11,753.43,633.73z" />
<polygon class="cls-15" points="788.88,635.97 753.43,633.73 781.13,612.93 " />
<path class="cls-13" d="M879,635.05c0.36-0.02,0.72-0.09,1.08-0.08l1.17,0.94c0.39,0.02,0.79,0.09,1.17,0.16  c0.37,0.71,0.76,0.79,1.17,0.22c2.88,0.55,5.89,0.79,8.42,2.34l-0.27,7.18c-6.69,0.75-12.89-0.92-19.62-1.36  c-1.33-4.23-7.42-4.34-7.52-9.26C869.09,635.51,874.47,635.32,879,635.05z" />
<path class="cls-1" d="M720.9,249.77c-6.75,1.13-11.74,3.01-15.78-1.52c-2.35-2.64-9.42-5.7-6.98-9.6  c4.73-7.56,13.02-11.25,19.69-6.73C723.82,235.98,726.23,244.09,720.9,249.77z" />
<path class="cls-1" d="M789.66,260.22c0.53,5.91,7.21,9.8,4.46,17.24c-8.39-8.35-21.27-12.14-26.16-21.96  C773.36,251.59,785.53,254.96,789.66,260.22z" />
<path class="cls-8" d="M754.9,226.27c-5.29,3.24-13.86,5.89-19.94,2.24c-4.23-2.54-9.61-8.7-12.07-13.98L754.9,226.27z" />
<path class="cls-15" d="M789.66,260.22c-7.08-2.34-14.22-4.37-21.69-4.72c-1.25-2.22-1.81-3.92-2.38-5.4  C762.99,243.35,788.61,248.63,789.66,260.22z" />
<path class="cls-10" d="M997.37,767.07c5.44,2.98,13.32,1.4,18.33,6.94c-8.17,6.1-17.77,1.29-25.3,5.39c-1.14-0.46-2.38-0.32-2.96,0.12  c-1.21,0.94-2.54-0.62-2.98-1.51C987.57,773.25,992.61,769.98,997.37,767.07z" />
<path class="cls-14" d="M431.17,818.19l37.39,21.75l-19.61,2.64c-17.88-13.87-23.94,7.66-45.71-21.12  C412.4,821.33,421.88,819.57,431.17,818.19z" />
<path class="cls-1" d="M596.2,568.21c0.4,4.35,5.33,8.11,7.06,11.6l2.68,0.13c12.37,18.21,7.62,40.13,3.18,60.57l-3.09,2.96  c3.53,2.35-0.52,7.44-3.62,9.18c0.31,0.86,0.68,2.21,0.14,2.55c-2.56,1.62-20.77,10.83-22.29,10.35c-0.52-0.16-0.96-0.57-1.38-1.05  c-45.03,0.05-88.91-4.7-134.25-11.06c-38.75-5.44-77.15-10.56-116.84-5.08c5.11,17.68,8.28,33.62-1.76,47.71  c-9.61,13.49-19.37,27.25-31.09,39.72c-2.42,2.58-5.95-2.15-6.68-3.94c-0.97-2.41-1.61-5.25,1.3-6.58l0.88-3.74  c12.38-13.02,22.85-27.68,31.43-43.98c-1.43-4.7-1.27-9.02,0.47-12.96c-5.23-7.04-6.94-17.95-7.79-26.81  c-2.39-0.19-4.31-1.95-5.75-5.26c-2.79-2.06-4.21-4.29-4.24-6.71c-2.94,1.98-6.89-2.8-4.84-5.56c4.71,0.55,9.43,1.05,14.17,1.29  c-1.38,11.84,55.32,12.75,57.67,11.99l43.36-14.11c78.2,20.42,66.05,32.15,151.08,14.39c13.87-10.51,25.3-25.35,36.57-38.33  C601.58,584.73,591.71,576.69,596.2,568.21z" />
<path class="cls-5" d="M621.98,585.96l1.94,5.22c-2.09,5.05,0.65,35.65,6.08,35.48c0.61-0.02,2.11-1.82,2.69-2.54  c1.97-4.63,4.45-6.85,7.46-6.65c3.99-3.92,5.95-9.03,8.13-15.94c6.63,11.67,8.07,23.92,11.22,36.27c-1.8,3.34-6.8,5.04-10.19,5.44  l-7.51,2.29l-0.9-1.3c-6.59-0.28-13.23,0.24-19.93,1.57c-2.91-1.32-3.53-2.9-2.29-5.8c-3.23,4.92-11.23,12.86-12.64,3.46  c3.65-15.62,6.9-31.84,4.71-48.48l-7.48-15.18l19.07-39.91c-0.02,3.68,0.11,8.14,0.52,11.85  C613.19,562.82,622.68,574.37,621.98,585.96z" />
<path class="cls-13" d="M656.73,589.82l-19.48-36.13c1.21-9.49,4.56-18.74,6.89-28.76c2.57,14.68,7.46,26.73,16.73,37.35  C659.74,571.52,660,579.55,656.73,589.82z" />
<path class="cls-13" d="M649.3,643.25c-10.28,5.93-22,8.65-32.78,14.3c-12.73,8.14-28.98,14.11-44.02,15.81l-4.15-1.59  c3.58-1.92,7.38-4.99,10.53-7.26l23.53-11.85c1-1.3,2.12-2.7,3.7-3.29c10.09-3.8,24.09-5.33,34.78-5.12L649.3,643.25z" />
<path class="cls-4" d="M621.98,585.96c7.94,8.9,12.72,20.74,18.17,31.51c-3.47,3.41-5.14,10.41-11.1,12.13  C618.39,616.79,621.12,600.21,621.98,585.96z" />
<path class="cls-5" d="M575.39,679.91c-6.94,3.37-16.11,3.46-23.44,5.64c-0.35,0.1-0.76-0.08-1.13-0.04  c-0.15,1.05-0.52,1.06-1.11,0.1c5.02-5.17,11.05-12.39,18.63-13.83c15.96-3.04,33.37-6.46,48.18-14.22  C605.83,667.73,588.8,671.05,575.39,679.91z" />
<path class="cls-5" d="M732.49,437.12c8.34,10.07,14.14,22.08,21.62,34.27c-8.52,4.78-14.56,9.87-21.29,17.37  c-5.21-7.47-11.48-13.82-14.64-21.9c-2.8,8.04-1.53,16.34-6.78,20.82c0.57-6.05,0.79-13.49-0.23-19.99l-24.23-49.37  c-3.85,0.58-5.73-6.49-2.37-8.18C700.88,418.49,715.59,430.11,732.49,437.12z" />
<path class="cls-8" d="M684.57,410.13c0.58,2.64,1.17,5.74,2.37,8.18l-10.07,30.62c-23.66-31.96-25.01-37.42-14.58-72.98  C670.38,388.29,676.12,399.86,684.57,410.13z" />
<path class="cls-8" d="M381.46,529.06c-6.55,7.59-16.13,12.54-27.18,12.43C361.22,532.62,369.3,526.52,381.46,529.06z" />
<path class="cls-8" d="M299.72,620.26l4.84,5.56c0.73,0.94,1.1,2,1.07,3.19c-0.07,2.65-10.01,13.89-12.64,16.33  c5.03,10.71,4.66,23.76,1.14,34.98c-1.93,6.14-5.61,16.67-11.9,18.16l-1.4-2.25c0.14-11.17,1.2-22.38,3.17-33.63l-1.45-0.22  c-1.57,1.07-3.43,0.88-5.58-0.54c-2.67,0.73-4.66,0.38-5.96-1.05c-0.58,0-1.13-0.06-1.57-0.3c-0.49-0.27,0.93-6.69,1.43-7.78  c0.61-4.51-4.99-0.09-4.6-4.05C267.8,633.37,287.15,618.8,299.72,620.26z" />
<path class="cls-2" d="M343.99,616.56c-10.68,3.06-21.65,3.23-32.39-0.27c11.26-9.83,24.11-15.26,38.5-14.59  C345.14,606.04,347.44,611.43,343.99,616.56z" />
<path class="cls-8" d="M267.29,662.28c2.84,1.4,0.98,11.6-0.13,14.92c-0.31,0.92-1.23,1.27-2.22,1.34c3.7,2.3-0.72,18.89-5.83,14.55  c-3.92-3.33-8.58-27.36-4.72-32.89c0.21-1.5,1.08-2.78,1.51-4.19c1.67-0.18,2.93-1.73,4.72-1.75  C261.86,658.15,263.75,661.65,267.29,662.28z" />
<path class="cls-2" d="M271.01,660.77c3.65,1.34,2.41,11.42-0.48,13.24c2.57,2.66,1.7,4.26-1.95,4.6c-0.16,3.36-2.88,3.14-3.64-0.07  l2.36-16.26c0.48-3.29,1.59-6.99,3.58-9.59L271.01,660.77z" />
<path class="cls-8" d="M584.94,464.17c-2.24-1.05-3.89-2.68-6.3-4.97c-10.09,6.58-20.1,12.08-29.44,19.63  c-0.03,5.2,0.1,10.45,1.85,15.69l23.65-1.1c-6.26,15.71-11.61,31.53-12.88,48.05l27.64-10.69c-2.9,10.48-5.76,22.27-5.16,32.82  c-11.09,15.77-20.65,25.92-41.05,25.58c-28.1-0.47-54.99,3.51-82.62,6.8c-24.97,2.97-48.58,3.84-73.06,11.19  c12.76-13.86,25.62-25.22,41.21-36.74c-7.13-2.11-14.1-1.24-20.95,0.76l-118.57,34.43c-6.42,3.82-10.84,11.34-18.33,12.18  l-0.08-1.51c2.9-8.69,9.33-16.3,13.67-24.34c2.57-3.1,4.9-6.62,8.52-8.52c9.89,6.28,20.1-15.99,36.23-26.72  c8.02-5.34,20.42-0.05,29.13-4.43c10.69-5.38,24.07-10.94,32.17-19.31c10.27-10.61,21.75-17.4,30.31-27.73l60.25-9.39  c30.49-4.75,88.75-46.19,116.93-56.36c0.69,0.65,1.68,1.59,1.43,2.3c-1.78,4.97-9.46,18.32-12.8,22.43  C586.46,464.49,585.77,464.38,584.94,464.17z" />
<path class="cls-13" d="M633.83,415.97l-20.86,25c-7.81,9.36-21.76,15.82-27.04,28.08c-1.38,1.46-2.4,0.52-2.07-0.73l1.08-4.15  l13.12-24.68c7.02-13.21,23.12-20.47,34.34-31.41C634.21,411.22,631.5,414.08,633.83,415.97z" />
<path class="cls-5" d="M314.55,637.78c1.11,7.09-0.05,14.16-3.47,21.2c-3.62,12.44-8.95,23.7-15.98,33.79  c0.67,0.66,1.66,1.66,1.38,2.31c-1.06,2.47-9.52,17.37-11.1,17.82c-0.53,0.15-1.12,0.05-1.74-0.11c-1.05-0.35-2.56-0.55-3.36-1.51  c-3.98-1.45-1.64-11.83,1.95-12.8c11.41-15.95,15.9-34.27,8.64-53.47c5.49-6.96,10.73-12.35,13.68-19.18  C309.53,628.68,312.45,632.97,314.55,637.78z" />
<path class="cls-13" d="M289.56,725.27c1.43-4.89-3.66-8.48-5.92-12.48l11.46-20.01c7.94-9.09,15.81-18.27,23.61-27.54l3.62-0.64  l2,13.63C313.82,694.31,304.28,713.93,289.56,725.27z" />
<path class="cls-1" d="M264.93,678.54l3.64,0.07c0.91,0.26,2.26,0.64,2.33,1.35c0.43,4.38,0.28,15.67-0.24,20.03l-2.36,1.62  c-9.53-1.77-12.54-10.84-20.03-18.37c-2.24-1.09,2.61-5.78,0.08-9.42c0.78-4.9,2.05-10.46,6.02-13.62  c0.92,11.09,1.66,22.56,7.11,32.86L264.93,678.54z" />
<path class="cls-1" d="M282.24,698.47c-0.28,4.22-2.09,8.47-1.95,12.8c-3.92,0.62-7.85-3.24-8.3-7.09l-1.23-2.85  c2.16-6.58,3.67-13.33,4.51-20.27l2.76-1.57l-1.86-2.05c1.96-4.42,3.33-8.97,4.1-13.66l2.29-1.42c0.93-1.43,1.71-3.55,2.91-6.05  C285.85,670.36,283.19,684.29,282.24,698.47z" />
<path class="cls-8" d="M278.02,679.49c-2.02,8.16-2.04,17.18-6.04,24.69c-1.05-0.92-2.22-2.31-3.68-2.58l0.28-22.99  c0.86-1.43,1.27-3.08,1.95-4.6C273.34,671.75,278.48,676.33,278.02,679.49z" />
<path class="cls-11" d="M546.21,687.59c1.34-0.3,2.53-1.02,3.51-1.98l1.11-0.1c0.2,1.79-0.47,3.1-2.29,4.23  C547.06,690.66,546.3,689.54,546.21,687.59z" />
<path class="cls-8" d="M322.34,664.59c-8.59,9.92-16.04,21.2-27.23,28.18c6.79-17.23,16.79-38.74,19.45-54.99  C318.28,646.35,320.98,655.28,322.34,664.59z" />
<path class="cls-2" d="M640.9,644.25c-12.87,1.52-25.72,5.47-38.48,8.42c0.09-3.38,2.89-6.04,3.62-9.18c1.52,0.57,3.03,2.33,5,1.97  c4.62-5.08,7.87-11.37,14.76-12.41c-1.85,3.3-5.09,6.4-5.61,10.19C627.37,645.3,635.33,640.02,640.9,644.25z" />
<path class="cls-5" d="M282.55,662.37c0.56,5.83-3.19,11.71-4.53,17.13c-2.98-1.08-4.91-3.72-7.49-5.48  c-0.79-4.42,0.56-8.84,0.48-13.24C275.49,658.62,278.89,658.96,282.55,662.37z" />
<g>
</g>
<g>
</g>
<g>
</g>
<g>
</g>
<g>
</g>
<g>
</g>
<g>
</g>
<g>
</g>
<g>
</g>
<g>
</g>
<g>
</g>
<g>
</g>
<g>
</g>
<g>
</g>
<g>
</g>
</svg>