<?xml version='1.0' encoding='UTF-8'?>
<svg xmlns="http://www.w3.org/2000/svg" version="1.1" id="Layer_1" x="0px" y="0px" viewBox="0 0 1200 1800" style="enable-background:new 0 0 1200 1800;" xml:space="preserve">
<style type="text/css">
	.st0{fill:#FFFFFF;}
	.st1{fill:#1D3247;}
	.st2{fill:#B4D0E2;}
	.st3{fill:#4B768D;}
	.st4{fill:#D2E4F4;}
	.st5{fill:#85AFBC;}
	.st6{fill:#C83713;}
	.st7{fill:#FC7619;}
	.st8{fill:#42677D;}
	.st9{fill:#719AAE;}
</style>
<path class="st0" d="M628.86,1106.78c1.78-0.91,2.18-1.05,1.72,1.07l2.27,2.31c14.35,8.88,28.11,18.58,41.28,29.1l-0.24,2.22  c4.36,4.96-5.95,3.74-9.59,3.08c0.14,2.38-0.68,3.86-2.46,4.46l-23.57,2.02c5.23,5.97-0.01,6.35-5.33,6.33l-16.93-1.72  c1.23,0.31,1.98,1.3,2.25,2.95l-0.07,2.59c-5.98,1.51-12.11,2.28-18.38,2.33c0.66,0.91,1.36,1.92,2.11,3.03  c5.94-1.32,13.89,1.25,18.68,4.87c3.17,2.4,5.2,4.46,0.43,6.27c-11.9-1.01-23.8-1.4-35.7-1.19c-4.69,0.05-6.29,1.09-4.79,3.12  l-0.6,1.19c1.02,1.26,1.43,2.17,0.49,3.53c3.74,2.53,7.31,5.18,10.71,7.94l-0.51,0.83c-2.52,2.52-8.64,1.79-10.76-1l-3.93-0.78  c-1.32,2.53-3.43,2.39-4.49-0.24c-1.08-0.57-2.82-0.82-5.21-0.74c0.17,2.76-2.01,2.58-2.61-0.01c-0.86-0.4-1.87-0.4-3.04-0.01  c-1.01,2.96-5.19,2.83-6.53-0.06c-1.61,1.18-3,2.46-4.18,3.82l5.15,7.48c10.64,6.95,0.46,8.12-7.04,7.12l-2.94,1.89  c-6.51,0.53-15.62-0.01-21.74-1.83l-1.01,1.27c4.32,3.05,8.93,5.74,13.83,8.07c-0.02,0.98-0.56,1.6-1.54,1.9  c-0.35,1.85-1.12,1.82-1.65,0c-0.91-0.35-1.93-0.31-3.05,0.11l-2.66,2.11l-18.19,1.93c3.73,2.06,15.98,9.9,16.17,14.04  c0.08,1.8-0.17,2.66-1.85,3.57l-13.3,2.21c9.7,1.62,14.54,2.43,14.54,2.43c4.36,2.09,5.62,3.6,0.74,5.74  c-4.41,0.28-28.7,6.91-29.32,9.73c-0.05,0.24,2.75,2.27,3.35,2.67c8.96,5.01,16.6,9.36,3.98,16.44c-7.99,4.48-18.27,6.09-27.23,7.26  c-0.15,0.47-0.33,0.92-0.62,1.27c-0.23,0.29-6.43,0.21-7.37,0.13c-0.26-0.02,5.01-1.01,4.23,1.27c0.71,0.52,1.4,0.66,2.07,0.39  c-0.22-2.1,1.17-2.03,1.61,0.05c1.28,0.85,2.93,1.45,4.96,1.79c0.17-0.88,0.5-0.84,0.96,0c0.08,1.08-0.88,1.64-2.88,1.67  c-3.37,1.89-7.43,2.8-12.18,2.72c-4.73,1.5-9.34,2-13.84,1.52c-1.97,2.67-4.89,4.19-8.77,4.57c-11.14,2.84-21.96,4.79-32.46,5.86  c-1.01,0.37-2.02,0.69-3.06,0.88c-1.03,0.19-2.03,0.36-2.98,0.21c-23.41-3.71-46.16-10.52-68.5-17.94  c-6.33,7.65-1.26,11.03,5.8,14.34c16.99,5.77,34.81,9.77,53.47,12.01c58.16,7.23,116.11,12.68,173.83,16.37  c1.27-2.5,3.54-2.64,4.61,0.11l3.06,0.92c0.15-0.74,0.48-1.84,1.02-1.85c5.4-0.06,15.06,0.74,20.39,1.62  c2.97-0.35,4.76,0.43,5.37,2.35l8.64,0.86c0.77-3.02,4.87-2.17,5.68,0.73c4.21-0.27,8.43,0.05,12.64,0.95  c0.3-2.94,4.29-2.8,4.64,0.06c1.14-0.85,2.71-0.4,3.92,0.1c5.72-2.45,14.71-1.74,20.19,1.17c1.2,0.53,2.34,1,3.69,1.1  c123.33,9.38,255.61,15.05,375.39-18.53c39.89-11.19,108.15-36.37,130.57-74.22c3.92-6.61,6.41-15.14,1.91-21.9  c-11.03-16.57-45.53-24.61-64.43-27.72l-1.6-2.12c-2.55-0.65-2.32-1.95,0.13-2.8l1.41-4.88c-2.85-0.65-2.51-2.68,0.19-3.68  c-0.53-0.89-0.5-1.93,0.09-3.09c-1.73-0.87-1.7-1.9,0.11-2.61c0.4-2.94,1.36-3.51,3.47-1.28c0.84-1.48,1.18-1.41,1.16,0.31  c1.21,1.86,1.87,2.16,1.98,0.9c-1.35-1.08-1.9-1.71-0.01-1.99c0.35-3.44,0.13-6.73-0.65-9.86c-2.55-1.87-2.57-4.74-0.03-6.63  c1.84-1.92,4.33-2.5,7.45-1.75c24.89,2.66,49.77,5.99,74.64,10l4.03,2.51v229.35c-5.93,1.78-11.91,3.44-18.03,4.44  c-70.41,11.49-139.03,23.08-208.63,39.34c-133.07,31.1-264,74.03-393.02,119.93l-8.38,2.01l-1.68-1.43l-5.72,0.48l-324.49-85.96  c-29.19-7.52-58.75-13.52-88.54-18.08c-47.57-7.27-92.44-9.17-140.29-10.79c-3.81-0.13-7.54-0.97-11.22-1.89v-111.36l1.51-1.71  c7.55-1.42,13.11,2,16.69,10.26c0,0,5.95-0.19,17.84-0.58c41.95-5.1,83.71-10.92,125.29-17.44c8.55-1.73,17.11-3.72,25.2-6.97  c6.81-2.74,14.75-7.49,6.31-13.98c-15.06-11.58-59.06-16.73-77.41-18.34c-37.1-3.24-74.23-3.61-111.24-2c0,0-1.4-0.68-4.2-2.03  v-12.48c2.85-1.56,5.71-3.08,8.63-4.47c2.92-1.38,5.84-2.74,8.86-3.83c60.18-21.86,121.62-40.78,183.15-58.31l9.58-1.51l0.47-1.97  c17.27-3.59,34.37-8.05,51.28-13.38c-9.79,1.03-14.15-2.46-3.87-8.95c5.33-5.13,10.18-10.69,14.56-16.68l2.84-0.42  c2.16-0.63,4.4,0.74,6.72,4.13c5,4.02,10.52,7.25,16.57,9.67l0.8,2.55l1.36-0.19c1.01,2.03,2.87,3.18,5.57,3.45  c0.44,3.48-0.34,7.08-2.35,10.8l22.97,8.53c3.5,1,5.48,2.75,5.94,5.24l1.03,1.08c1.15-2.66,5.74,0.23,4.73,2.82l1.07,0.94  c3.3-1.43,8.61,4.52,7.44,7.73c8,10.9-2.33,8.95-9.71,4.66c-0.52,1.41-2.12,2.26-4.78,2.55l7.41,2.78l0.44,2.32  c2.46,0.81,2.73,0.96,0.31,2.2c-0.27,2.04-1.86,2.18-4.74,0.42l-2.13-0.36l-1.72,0.38c-11.29-7.44-24.21-11.58-37.61-12.86  c-1.3,2.3-3.92,2.36-7.84,0.17c-7.2-5.75-15.55-6.16-18.74,3.59c-2.71,8.28,5.42,14.32,11.61,18.13  c15.81,9.73,40.07,16.9,58.05,22.15c4.28-3.3,10.1-7.54,15.33-9.54c-0.28-1.85,1.11-1.76,1.81-0.2c1.65-1.12,2.81-2.42,3.49-3.92  l2.42,1.21c-0.46-1.33,0.5-2.37,2.88-3.13c-0.43-0.77-0.11-1.04,0.85-0.89c0.03-2.57,0.96-2.47,1.84-0.08l4.13-2.82  c0.11-0.92,0.45-0.98,1.01-0.2c3.75-1.84,7.21-4.05,10.36-6.6c-0.86-3.55,7.75-7.24,10.6-6.45l1.02-1.12  c0.16-0.69,0.73-1.17,1.71-1.43c-0.37-2.72,1.8-2.94,2.85-0.45l4.16-2.91c0.22-0.85,0.46-0.85,0.72-0.01l5.9-3.83  c0.15-0.89,0.43-0.89,0.85-0.04l4.05-2.83c0.1-0.87,0.34-0.85,0.72-0.01l5.9-3.84c0.15-0.89,0.44-0.89,0.84-0.04l4.04-2.79  c-1.05-2.6,1.11-3.15,2.64-0.97c0.44-0.62,1.18-1.22,2.2-1.79c0.04-0.84,0.33-0.81,0.82-0.02l8.66-4.94  c0.14-0.85,0.42-0.85,0.85-0.05l7.86-4.62c0.13-0.89,0.41-0.88,0.84-0.04l1.06-0.95c0.26-1.86,1.04-1.88,1.68-0.09l1.15-1.01  c-1.15-2.43,0.24-2.85,1.87-0.81l0.92-0.96c0.24-0.85,0.57-0.85,0.96-0.03l1.14-1.01c0.62-2.98,2.36-3.47,4.43-1.23  c0.94-0.37,1.69-0.92,2.25-1.66c-0.8-2.79,1.65-3.6,3.75-1.81l4.83-2.1c-0.53-2.71,2.03-4.19,3.82-1.73c4.46-2,8.96-3.98,13.48-5.92  c0.1-1.87,0.82-1.92,1.65-0.19c0.9-0.63,1.91-1.17,3.04-1.6c0.21-0.81,0.53-0.8,0.96-0.04l1.1-0.92c0.55-1.96,1.59-2.08,2.58-0.31  c1.9-1.02,3.91-1.92,6.03-2.7c-0.03-2.56,0.83-2.49,1.68-0.1c2.9-1.34,5.88-2.57,8.93-3.7c0.3-2.71,1.44-2.74,2.53-0.27  c2.86-0.86,5.55-2.02,8.09-3.47c-0.48-2.79,1.51-2.97,2.56-0.38c11.39-4.31,23.26-7.55,35.6-9.72c2.2-6.62,5.48-12.26,9.84-16.93  c-1.26-2.52,0.35-3.5,2.65-1.86l2.08-3.87c-2.47-1.09-1.67-2.29,0.87-1.81l0.06-4.09c-2.73,0.42-2.78-1.86-0.23-2.75  c-1.46-0.63-1.71-2.28-0.05-2.74c0.71-3.06,3.09-5.35,7.15-6.87c12.6-4.92,25.32-9.64,38.14-14.16L628.86,1106.78z" />
<path class="st1" d="M212.12,129.09l1.92,0.66c-0.63,357.94-1.26,716.55-1.9,1075.82l-1.92,1.19  C139.55,1227.7,69.46,1249.73,0,1274.88v-97.92c0.33-1.74,0.66-2.08,0.99-1.01l0.96-39.65c23.27-333.48,41.96-667.53,50.89-1006.1  l1.95-1.12l0.67-1.92c51.81,0,103.64,0.01,155.47,0.01L212.12,129.09z" />
<path class="st2" d="M1200,1403.47V1560c-4.08,0.11-6.13,0.16-6.13,0.16c-61.2-21.13-130.28-24.26-193.9-16.67  c-21.96,2.62-23.71,4.75,0.43,11.56c47.83,12.3,95.99,26.99,142.76,41.69c17.64,5.05,35.57,9.64,53.84,11.15l3,2.09v61.94  l-1009.92,0.41c-2.75-0.32-2.33-1.72-0.18-3.33c73.1-11.9,151.35-24.86,225.52-48.1c48.18-16.31,96.6-33.62,144.64-51.05  c3.28-1.19,6.75-1.68,10.2-2.09c2.84-1.18,6.3-1.25,10.19-2.65c82.12-29.39,165.04-57.04,249.14-81.84  C951.29,1447.4,1074.84,1420.34,1200,1403.47z" />
<path class="st3" d="M1200,128.92v1026.91c-2.94,1.05-4.41,1.58-4.41,1.58c-25.73-3.82-51.46-6.83-77.17-9.02l-0.94-2.03l-1.58-2.92  c-0.37-305.89,0.28-613.35,1.95-922.39l-0.23-90.77l1.92-1.18L1200,128.92z" />
<path class="st4" d="M570.26,1567.76c-45.71,19.02-93.5,33.26-140.59,50.17c-12.11,4.35-22.67,8.01-35.16,11.31  c-41.36,10.93-82.03,20.91-124.34,28.14l-78.09,13.35c-0.79,0.13-1.66-0.39-2.07,0.14c-0.23,0.3,0.06,1.13,0.07,1.45l-15.52-0.61  L0,1672.32v-220.8c82.26-0.7,165.77,9.08,246.01,30.33l102.59,27.16l154.66,41.13L570.26,1567.76z" />
<path class="st3" d="M54.8,129.07l-4.16,137.45c-2.49,82.29-6.8,163.73-10.26,246.02l-3.55,84.59L28.9,745.9l-7.86,131.62  L7.2,1082.9l-5.68,91.15c-0.06,0.95,0.82,1.57,0.33,2.35c-0.38,0.61-0.9,0.85-1.86,0.56V128.64L54.8,129.07z" />
<path class="st4" d="M0,1340.16v-52.8c12.7,0.53,25.11-0.69,38.46-0.84c35.64-0.41,70.38,1.07,105.46,6.59  c11.5,1.81,53.36,8.18,54.53,22.13c1.1,13.11-51.43,19.95-60.98,21.27l-34.79,4.82l-65.11,8.54c-6.85,0.9-13.37,1.52-20.05,0.56  c-3.19-2.59-4.24-7.36-7.59-9.57C7.13,1339.02,2.89,1340.97,0,1340.16z" />
<path class="st5" d="M1200,1560v49.97c-25.67-1.03-62.77-12.69-88.58-21.08c-31.55-10.25-62.48-19.06-94.54-27.28  c-11.71-3-22.58-6.12-33.51-10.55c-1.65-0.67-2.56-2.83-2.41-3.98c0.17-1.35,1.69-2,3.16-2.41c34.28-9.53,123.54-7.34,159.46-0.21  C1163.12,1548.35,1181.41,1554.45,1200,1560z" />
<path class="st4" d="M1200,1168.58v5.53c-10.09-1.3-20.14-3.63-30.66-4.85l-25.95-3.01c-10.08-1.17-19.74-3.21-29.51-2.91  c-3.13-1.22-4.71-11.22-1.1-12.43l1.08-0.91c3.32,5.16,3.82,5.36,9.82,4.63c25.21,3.82,50.38,7.78,75.51,11.87L1200,1168.58z" />
<path class="st5" d="M1200,1155.82v5.79c-1.52,2.21-8.28,1.57-10.86,0.83c-2.77-2.34-5.71-2.92-8.82-1.75  c-11.45-0.37-22.72-1.82-33.79-4.34c-9.29-0.59-18.55-1.13-27.79-1.62c-2.53-1.14-4.54-3.3-6.02-6.47  c-0.76-0.47-0.74-0.91,0.06-1.31c0.87-2.34,3.45-3.18,4.71-0.58l55.54,5.67C1182.45,1152.99,1191.08,1155.42,1200,1155.82z" />
<path class="st2" d="M1200,1161.62v6.97l-48.04-7.64l-16.37-2.71c-4.01-0.66-7.4-1.07-11.31-2.24c-2.46-0.74-6.41,2.59-8.67-0.43  c-1.02-1.36-0.75-4.47-2.84-4.64c-2.45-0.95-2.45-1.56-0.07-2.67c1.76-0.13,2.47,1.76,3.29,3.19c2.09,3.65,28.81,1.06,37.24,4.3  c4.8,1.84,7.31,1.62,12.16,1.61c6.02-0.01,11.71,2.81,18.11,0.75c2.2-0.71,5.21,2.65,7.4,2.87  C1194.24,1161.29,1197.2,1160.51,1200,1161.62z" />
<path class="st3" d="M382.05,129.07l1.92,0.66c0.46,144.88,0.32,290.71-0.42,437.49c-1.09,125.18-4.23,250.55-9.41,376.11  c0,0-0.79,1.72-2.38,5.15l-0.99,2.71c2.71,18.52-14.15,10.18-22.58,3.96l-1.59,1.24c-5.29-0.47-7.94-0.7-7.94-0.7  c-32.61-11.75-65.6-22.97-99.06-31.05c-7.76-1.87-11.12,3.24-9.14,10.71l-1.78,1.65l2.19,4.25c5.67,53.85,28.12,105.49,52.99,152.7  l0.14,3.35c-5.28,13.14-10.47,26.44-15.56,39.91c3.43-0.71,3.92,0.89,3.91,3.96c-1.28,5.29-3.28,10.35-5.99,15.19l8.85-7.27  c2.17-0.65,3.27-0.72,4.08,1.48c0.71,1.95-0.76,14.07-3.78,14.81c-6.81,8.1-12.32,17.07-22.65,23.33  c8.32,2.67,15.43-0.55,22.69-3.95c-5.42,11.1-53.37,18.48-65.32,22.02l0.41-360.04l0.74-233.3l0.8-402.02l-0.05-82.31L382.05,129.07  z" />
<path class="st6" d="M1012.71,936.02l2.73-0.21c60.46,50.71,96.43,127.71,98.82,208.68l-1.48,2.46c0.09,0.4-0.03,0.9-0.06,1.31  c-0.05,0.88,0.18,1.8,0.07,2.67c-0.56,4.2,0.8,8.24,1.1,12.43c0.16,2.22,0.18,4.41,0.03,6.63c0.85,3.11,1.06,6.4,0.65,9.86  l0.01,1.99c-0.28,1.45-0.94,1.15-1.98-0.9l-1.16-0.31c-1.14-1.08-1.69-2.73-1.65-4.95c0.64,2.99,0.04,5.07-1.82,6.23  c0.02,0.85,0.05,1.77-0.11,2.61c-0.58,1.17-0.61,2.2-0.09,3.09c-0.04,1.19-0.36,2.49-0.19,3.68c-0.28,1.74-0.75,3.37-1.41,4.88  c-0.04,0.88,0.11,1.95-0.13,2.8c0.27,0.84,0.51,1.68,0.61,2.54c0.1,0.85,0.19,1.66-0.02,2.36c-8.64,27.82-25.68,67.91-51.55,83.28  c-11.07,6.58-42.83,15.72-56.06,19.12c-110.75,28.47-225.58,42.48-337.32,36.78l-1.18-0.68c-6.73,0.05-13.5-0.57-20.19-1.17  c-1.24-0.45-2.67-0.92-3.92-0.1c-1.52-0.04-3.13-0.29-4.64-0.06c-4.21-0.9-8.42-1.22-12.64-0.95c-1.69-0.18-4.04-0.83-5.68-0.73  l-8.64-0.86l-26.78-2.13l-3.06-0.92c-1.49-0.22-3.14,0.24-4.61-0.11c-1.28,0.45-2.57,0.42-3.89,0.3  c-43.18-3.94-88.41-11.05-130.8-18.35l-0.86-2.07l0.67-2.29c9.5-2.05,18.99-4.16,28.48-6.34l-10.54-5.23l-0.39-2.32  c8.34-2.83,17.23-4.56,26.02-4.24c2.73-0.34,3.69-0.89,2.88-1.67c-0.31-0.04-0.65-0.02-0.96,0c-1.99-0.27-3.65-0.87-4.96-1.79  l-1.61-0.05c-0.77,0.39-1.61,0.4-2.07-0.39c-1.44-0.5-2.79-1-4.87-1.1c2.67-1.4,5.71-1.62,8.63-1.57l11.84-1.74  c34.7,0.3,69.3,0.98,103.8,2.04l17.16-0.59l-24.55-5.35c-2.27-1.18-18.45-22.37-19.83-25.57c-2.15-4.97-2.32-5.79,3.63-5.86  c12.78,1.7,19.17,2.55,19.17,2.55c46.99,11.08,94.14,20.55,142.51,18.98c-8.89-3.49-17.35-7.85-25.38-13.08  c-3.65-2.86-7.6-6.99-1.49-8.7c-20.62-2.5-40.39-7.9-59.31-16.21c-3.37-3.67-3.7-4.57,1.19-5c33.99,4.17,68,8.12,102.03,11.83  c-13.92-12-30.97-20.45-47.58-28.65c-2.81-1.75-1.88-2.97,2.81-3.66c21.27,6.77,42.78,12.77,64.54,18l13.89,2.23  c-6.24-2.59-27.63-16.94-28.72-22.63c-0.7-3.65,3.31-3.08,6.54-2.49c21.38,6.1,42.81,12.21,64.29,18.34  c-1.77-2.95-2.75-4.8,1.11-6.33l19.73,4.58c-11.9-6.29-17.85-9.43-17.85-9.43c-6.28-2.87-7.6-5.47-3.97-7.8l55.44,15.13  c19.85,4.3,41.16,7.37,61.63,6.43c14.53-0.66,12.61-1.81-1.03-0.71c-0.98-0.17-1.79-0.41-2.02-0.91  c-2.76-6.05,12.99-8.55,16.74-9.06l-14.45-1.43c-3.2-3.48-0.64-5.26,7.69-5.35l13.63,0.04c1.09-3.11,3.11-4.25,6.02-5.08  c-4.27,0.42-9.21-0.5-5.8-5.55c18.12-3.55,31.15-10.83,37.4-28.99c-24.69,5.86-50.46,6.86-75.57,4.76  c-0.75,2.26-1.86,3.18-3.36,2.74c-13.01-3.56-26.15-6.54-39.43-8.95l5.87,2.85c4.2,2.43,4.35,6.7-1.2,5.7  c-18.33-4.38-36.2-10.45-53.58-17.69l12.35,6.63c1.37,3.36,1.49,4.59-2.56,3.94c-16.22-3.91-32.32-8.24-48.29-12.98  c0.38,2.2,0.57,3.42-1.75,3.82c-16.78-6.84-34.01-11.36-51.69-13.54c-12.31-3.96-12.24-2.89,0.2,3.21c3.28,2,8.5,5.19,2.65,7.11  c-11.6-3.72-23.27-7.77-34.99-12.13c-0.38,0.92-0.94,1.76-1.83,2.25c-2.08,1.14-25.14-1.16-29.21-2.03l-0.65-2.38l-30.2-22.67  c-3.91-2.94-7.82-5.23-10.83-8.65l0.89-0.07l2.21-1.16l15.35,7.87l-8.2-6.64c-3.91-1.84-6.7-4.21-8.36-7.13  c-3.39-0.14-4.79-3.21-1.01-5.34l17.63,3.04c-15.08-14.34-31.13-27.59-48.15-39.72c7.94-15.38,14.26-31,13.94-48.62l1.9-3.39  c-1.83-0.99-1.73-2.1,0.21-2.82l0.17-1.04l-0.92-2.55c1.31-12.53,2.46-25.12,3.44-37.76l2.02-4.7c0.72-14.33,0.04-28.51-2.04-42.54  l2.07-0.76c-0.65-3.09-2.13-13.19,3.64-10.59c0.9,0.41,1.34,1.45,1.65,2.36c6.7-2.99,13.29-6.04,19.78-9.17l9.15-6.67  c8.47-2.35,4.86,3.01,0.9,6.77c-7.26,4.17-10.99,7.28-12.96,15.74l17.07-10.57c4,1.06,3.49,2.61,1.32,5.27  c-5.68,5.23-5.84,6.53-0.5,3.89l12.15-8.22c6.46-4.53,9.65-4.51,9.54,0.06c-8.49,6.33-17,12.9-25.54,19.72  c9.64-5.07,19.63-9.25,29.97-12.54c4.95-0.2,4.95,0.76,2.32,4.56l-20.47,17.58c15.17-6.76,30.55-13.36,46.89-16.78  c3.52,0.15,3.2,1.28,1.66,4.4c-12.7,6.68-24.51,14.59-35.41,23.75l24.21-7.46c19.56-2.85,38.61-7.55,57.16-14.11  c1.44-0.21,2.61-0.28,2.82,0.14c1.4,2.74-3.2,7.07-5.5,8.85c-12.54,8.72-25.77,16.42-39.68,23.09c23.77-1.59,47.55-2.06,71.36-1.39  c1.14,1.18,0.71,2.5-0.04,3.92l-32.86,3.63c-6.59,3.57-12.5,8.28-17.74,14.12c-4.58,1.27-6.87,1.91-6.87,1.91s10.09,1.49,30.26,4.47  c2.67,0.53,2.49,1.98,1.78,4.3c-6.65,5.31-14.15,11.35,0.36,9.67c19.28-2.23,33.62-9.16,49.88-19.46  c19.95-10.92,47.25-19.69,69.69-12c3.78,1.29,10.13,3.61,5.37,5.74c-28.27-5.03-58.39-0.42-76.18,24.03  c3.23-2.27,7.96-0.78,5.68,3.05c-11.01,5.79-17.79,15.02-23.31,25.75c0,0,3.92-3.33,11.76-9.98c4.88-4,7.82-4.12,8.82-0.34l-3,6.03  c3.28-1.91,7.1-1.61,5.43,2.93c-6.7,5.24-12.71,11.15-18.01,17.7c5.82-4.88,11.97-9.3,18.45-13.24c4.38-1.35,4.95,0.01,3.7,4.09  c-22.51,29.72-29.48,72.39-8.48,104.55c8.28-49.13,37.8-80.57,79.81-106.03c9.38-5.68,39.9-23.06,51.12-21.36  c8.76,1.33,1.22,6.08-4.57,5.94c4.78,3.13,9.56,6.5,14.34,10.12c-1.87,3.65-4.65,6.87-8.33,9.67c-0.59,0.51-2.36,2.69-1.72,2.59  c5.23-0.8,20.42-6.29,25.51-8.82c28.5-14.21,38.98-58.98,34.83-88.61L1012.71,936.02z" />
<path class="st7" d="M476.08,1288.22c3.78-1.75,32.03-8.23,31.97-13.85c-0.05-4.99-9.5-5.83-15.06-13  c10.56-7.02,21.8-9.19,34.56-11.64c-10.21-5.14-20.93-3.06-32.49-5.24l28.79-4.78c-4.41-8.5-12.51-11.91-20.88-16.15  c8.94-2.51,18.05-2.81,26.87-3.47c1.1-0.42,2.12-0.46,3.05-0.11l1.65,0l0.97-1.65c-4.21-2.57-8.34-5.23-12.38-7.97l0.13-1.62  c8.21-0.88,16.45-0.05,24.68-0.06c4.75,0.27,9.42,0.01,13.99-0.78c-2.17-2.69-3.79-5.92-4.86-9.68c-3.9-3.3-4.91-5.95-3.05-7.96  c1.46,0.87,4.92-0.42,6.53,0.06c1.16-0.39,2.17-0.38,3.04,0.01l2.61,0.01c2.14-0.31,3.88-0.06,5.21,0.74  c1.48-0.05,3.01,0.11,4.49,0.24l3.93,0.78c3.61-0.01,7.18,0.54,10.76,1c0.77-1.3-1.54-3.38-6.91-6.23c-3-1.83-4.25-3.85-3.77-6.07  c-12.33-11.33,37.84-4.16,42.72-5.14c-6.08-6.2-13.84-7.08-20.74-9.13c-0.03-0.86-0.03-1.81,0.52-2.44  c1.47-1.68,19.78-2.72,23.23-2.05c-3.28-0.19-5.75-1.35-7.4-3.46c-2.74-0.42-5.91-2.25-9.11-3.85c9.6-3.29,24.34,2.64,29.92,0.18  c-1.92-2.64-3.85-3.75-5.49-5.42l28.96-2.49c-0.39-2.62-3.01-2.54-5.02-4.22c2.87-1.99,18.48,2.97,16.37-1.33  c3.08,2.31,25.44,2.39,30.92,2.52c-5.77-3.55-11.45-4.71-15.53-9.46c9.4,4.85,18.68,8.33,28.68,11.66l24.27,8.11  c-7.82-7.72-33.63-16.61-37.34-24.46c4.61,5.87,28.12,13.29,35.55,14.09c25.48,2.72,27.49,6.63,50.36,13.55  c-5.45-5.66-10.66-3.47-15.03-9.13c22.67,7.55,43.46,12.76,66.97,18.66c-10.36-7.28-24.63-10.92-33.42-20.59  c24.93,11.82,50.33,21.5,77.48,27.74c-2.2-3.61-6.45-3.57-9.34-5.86c-3.56-2.82-7.31-4.55-10.65-7.84  c20.08,8.64,34.06,6.82,52.79,13.86c0.1-2.21-2.34-1.28-2.87-3.04c7.47-0.78,14.02,0.49,21.18,0.7c21.42,0.63,41.91-1.16,62.57-7.14  c-10.03,23.58-15.61,28.2-39.94,33.78c-0.71,0.16-0.43,2.15,0.18,2.15c10.94,0.01,4.31,0.55,18.16-1.58  c-1.28,3.95-14.32,4.02-17.94,8.09c5.55,0.1,10.51-0.16,15.66,0.96c-12.58,3.61-26.31-0.75-39.81,2.84l29.13,2.89l-20.7,3.94  c-3.51,0.67-6.61,2.13-8.91,4.91c8.02-0.9,15.51-0.64,23.9-0.17c-16.01,9.49-67.98,2.31-84.91-2.32l-54.97-15.02  c5.62,5.85,13.46,6.6,19.48,11.15c4.97,3.76,10.98,4.81,15.77,9.24l-32.87-7.64c0.37,3.03,3.08,3.93,4.66,6.32  c-3.15,1.72-6.22-0.53-9.53-1.25c-14.83-3.2-28.74-7.58-43.09-12.5c-7.2-2.47-14.24-4.46-22.13-5.05  c5.18,7.1,12.15,11.26,18.6,16.34c8.1,6.38,17.16,8.38,27.83,10.21c-20.42,0.84-39.6-4.29-59.41-9.52  c-14.01-3.7-26.4-9.74-41.15-12.1c16.17,7.8,31.51,15.1,45.31,26.09c2.73,2.17,5.75,3.97,6.88,7.2  c-37.99-2.34-71.77-9.73-109.14-12.49c14.56,8.51,29.38,11.78,45.1,14.65l45.16,8.25c-11.01,0.73-20.85-2.76-30.95-1  c4.61,5.85,10.72,9.25,17.15,12.05l19.54,8.52c-10.86,1.65-20.63,0.9-30.93,0.36c-12.98-0.69-25.42-0.8-38.34-2.4  c-19.44-2.41-37.8-6.86-56.96-10.9c-15.81-3.33-30.92-7.56-47.16-7.94c6.87,10.92,13.88,19.28,21.22,28.15l32.87,6.63  c-9.19,4.71-41.92,2.03-54.75,1.84L476.08,1288.22z" />
<path class="st6" d="M578.89,1127.18l1.75,2.72l0.23,2.75l-0.06,4.09l-0.87,1.81c-0.48,1.56-1.17,2.85-2.08,3.87  c-0.92,0.4-1.81,1.3-2.65,1.86c-1.24,1.96-2.29,2.36-3.14,1.21l-2.43,0.69c-13.96-7.97-30.41-12.29-46.04-7.18  c-8.9,2.91-31.09,14.82-38.41,20.57c-10.18,7.99-13.71,15.1-4.61,25.92l0.39,2.03c-0.37,1.33-1.65,2.32-3.84,2.99  c-1.27-0.05-2.55,1.6-3.82,1.73l-4.83,2.1c-1.09,0.79-2.61,1.07-3.75,1.81c-0.38,0.7-1.13,1.25-2.25,1.66  c-1.5,0.3-2.98,0.76-4.43,1.23l-1.14,1.01l-0.96,0.03l-0.92,0.96l-1.87,0.81l-1.15,1.01l-1.68,0.09l-1.06,0.95  c-0.25,0.1-0.6-0.09-0.84,0.04c-1.02,1.24-2.91,2.58-4.06,0.86l-1.94-1.07c0.73-6.83,1.83-13.61,3.29-20.36  c6.92-30.27-51.04-23.41-59.57-4.81c-5.29,19.27-8.53,39.6-10.91,59.47c5.55-2.9,11.44-5.06,17.67-6.48l2.45,1.52  c-0.46,0.6-1.06,1.06-1.71,1.43l-1.02,1.12l-10.6,6.45c-3.16,2.56-6.62,4.76-10.36,6.6c-0.31-0.05-0.7,0.14-1.01,0.2  c-1.22,1.07-2.6,2.01-4.13,2.82l-1.84,0.08c-2.5,1.66-4.35-3.92-4.72-6.07c-2.9-2.83-5.05-6.54-6.43-11.11  c-2.18-4.14-4.24-8.3-6.18-12.48c-2.41-2.62-4.53-5.53-7.44-7.73l-1.07-0.94l-4.73-2.82l-1.03-1.08  c-15.06-8.4-16.86-6.21-31.29-12.73c0.84-3.81,3.13-6.78,3.58-10.89c-1.77-0.31-3.04,0.55-4.51,0.47c-0.34-1.98-0.49-3.42-1.27-4.67  l-1.38-1.96c2.49-5.3,6.24-9.99,11.23-14.06c-2.93-2.82-1.85-6.09,3.24-9.82c2.18-2.61,0.52-4.54-4.99-5.8  c-2.68-1.5-2.66-2.71-1.09-5.14c1.85-2.88,20.52-14.21,24.55-15.84c11.42-4.61,22.54-4.75,32.81,2.74  c0.32-8.35-0.01-16.71-0.99-25.08c1.53-4.82,4.95-2.12,6.79,1.32c-1.51-7.14-2.69-14.33-3.55-21.58c2.43-2.59,4.97-1.1,7.62,4.45  l-2.96-13.98c0.24-6.08,4.56-3.52,6.9,0.6c-1.96-14.27,0.09-17.41,6.15-9.45c2.73,7.44,4.01,7.8,3.84,1.09l-0.95-14.77  c3.01-9.15,6.34-3.9,7.95,2.59c3-0.63,4.31,1.44,3.94,6.21c4.67-7.95,8.42-9.78,9.37,1.6c-2.51,2.52-2.19,0.12-0.1-2.13  c-0.06-2.96,0.31-14.24,2.15-15.8c2.74-2.32,3.92-2.31,5.31,1.29c2.36,6.97,5.01,13.81,7.94,20.51c-0.64-8.18-1.59-16.35-2.86-24.52  c0.17-3.88,1.68-7.28,4.81-3.54c1.05,12.04,3.46,23.75,7.2,35.11c-0.39-5.92,0.73-11.04,3.36-15.35c1.84,0.35,2.76,0.52,2.76,0.52  c1.5,7.33,2.78,14.79,3.85,22.38c0.13-3.85,0.67-18.87,7.11-17.05c0.54,0.15,0.86,1.07,1.11,2.2l1.17,18.14l4.87-9.81  c2.81-6.08,5.24-7.27,7.29-3.56c-2.3,8.81-4.22,17.65-5.76,26.54c3.88-9.43,10.42-16.61,17.84-23.88c6.07-1.45,3.75,3.82,0.9,6.89  c-4.96,4.56-8.59,9.64-10.88,15.25c11.78-8.97,24.13-17.07,37.04-24.3c4.95-2.03,12.09-4.62,7.46,1.93  c-12.89,6.22-24.06,14.32-33.51,24.28l-3.49,7.33c-1.16,2.83-2.86,4.22-5.11,4.18c-1.03-1.88-2.35-0.69-3.93,3.59  c8.83-4.85,17.83-9.34,27.01-13.48c1.63-0.3,3.06,0.37,4.27,2.02l13.41-3.15c1.98-0.07,2.4,1.32,2.79,3.15  c10.14,2.02,20.29,2.93,30.47,2.73c1.51,1.8,2.26,2.7,2.26,2.7c4.3,1.66,8.59,2.56,12.86,2.68c7.99-1.37,10.76,0.03,8.31,4.2  c4.93,0.45,9.55,1.36,13.87,2.73C580.55,1119.53,579.44,1125.7,578.89,1127.18z" />
<path class="st2" d="M660.51,1342.35l86.05-0.63c69.83-0.51,196.84-19.4,264.92-41.25l32.65-10.48  c11.68-3.75,19.88-11.2,27.59-20.64c16.98-20.79,27.17-44.97,34.31-70.39c18.49,1.95,53.68,11.71,66.28,26.91  c4.41,5.32,5.14,12.63,2.63,19.24c-8.55,22.49-38.49,41.87-59.41,52.68c-76.17,39.38-175.01,51.09-260.07,54.26  c-64.25,2.4-127.74-0.92-191.42-7.47C662.13,1344.39,660.99,1343.35,660.51,1342.35z" />
<path class="st7" d="M444.36,1204.8c0.12,1.42-1.14,2.67-3.8,3.75l-0.85,0.05l-8.66,4.94c-0.27,0.01-0.56,0.05-0.82,0.02l-2.2,1.79  l-2.64,0.97c-1.2,1.05-2.55,1.98-4.04,2.79c-0.27,0.01-0.59-0.04-0.84,0.04l-5.9,3.84c-0.24,0-0.48-0.02-0.72,0.01  c-1.21,1.04-2.56,1.99-4.05,2.83c-0.27,0-0.59-0.04-0.85,0.04l-5.9,3.83c-0.24,0-0.48-0.01-0.72,0.01c-1.3,1.01-2.68,1.98-4.16,2.91  l-2.85,0.45c-7.34,1.16-14.32,3.6-21.35,8.7c-1.53-5.01-0.45-9.86,0.45-14.86l7.67-42.49c4.18-23.15,38.34-26.66,56.15-20.78  C456.25,1169.58,443.81,1192.11,444.36,1204.8z" />
<path class="st4" d="M418.11,1440.79l-62.45-2.17c-17.78-0.62-14.06-8.86-23.2-11.35c-0.81-0.22-1.29-1.59-1.31-2.16  c-0.02-0.68,0.67-1.39,1.7-1.87c18.33-8.6,36.87-6.65,56.08-1.63c23.89-1.65,47.5-1.31,70.79,3.88c5.78,1.29,23.54,5.35,23.14,12.11  C482.56,1442.57,426.05,1441.06,418.11,1440.79z" />
<path class="st7" d="M572.06,1145.49c0.74,1.08,0.31,1.72-0.33,2.58c-2.34,3.22-29.18,17.18-34.84,20.12  c-2.27,1.18-4.62,2.25-7.14,2.74c-0.64-0.15-1.93,0.19-2.56,0.38c-2.42,1.42-5.12,2.57-8.09,3.47l-2.53,0.27l-8.93,3.7l-1.68,0.1  l-6.03,2.7c-0.85,0.07-1.74,0.18-2.58,0.31l-1.1,0.92c-0.3,0.07-0.65,0.05-0.96,0.04l-3.04,1.6c-0.53-0.04-1.13,0.15-1.65,0.19  c-1.12,0.81-8.4,3.88-8.88,3.68c-0.31-0.13-0.55-0.42-0.77-0.74c-2.92-0.2-3.68-3.81-5.17-5.97c-10.98-16,17.03-29.65,27.77-34.9  l18.46-9.03C535.82,1130.87,560.05,1137.2,572.06,1145.49z" />
<path class="st2" d="M411.79,1309.46l1.42-0.57c6.49,1.82,13.1,3.19,19.82,4.12l1.77,2.2l95.96,14.58  c13.65,2.08,26.74,2.54,39.59,5.54c-1.02,1.1-2.85,1.53-4.94,1.37l-82.5-6.26l-52.45-5.16c-26.01-2.56-51.08-6.84-76.48-12.69  c-6.69-1.54-24.37-7.07-21.3-15.4c0.78-2.11,2.52-7.41,5.48-6.41C362.69,1299.03,386.81,1306.26,411.79,1309.46z" />
<path class="st2" d="M294.83,1224.2c0.86,0.04,0.81,0.26-0.04,0.64l17.98,7.28c1.39,0.5,1.53,1.75,1.16,3.19  c9.54,3.77,19.19,6.66,28.95,8.66c4.74,3.66,9.76,6.87,15.05,9.64c2.46,2.1-1.19,4.5-2.9,3.04l-1.05,0.88  c-6.46-3.84-13-7.24-19.64-10.19c-0.38,0.33-0.75,0.58-1.09,0.55c-8.14-0.79-4.95-1.8,0.71,0.13c0.21,0.07,0.32,0.42,0.4,0.85  c5.59-0.26,13.79,4.87,18.65,8.31c0.28,0.2,0.29,0.8,0.21,1.5c-0.27,1.22-1.11,2.36-2.44,3.2l-12.87,8.11  c-15.48-5.23-30.96-9.02-45.7-15.69c-10.57-4.79-27.73-12-26.31-24.76c0.44-3.92,3.1-6.9,6.32-9.7  C279.42,1213.62,284.91,1224.5,294.83,1224.2z" />
<path class="st7" d="M453.02,1299.02l15.97,7.71c-10.7,4.72-26.45,5.35-34.2,8.47c-7.8-1.19-16.02-1.94-23.01-5.75  c-0.15-0.63,0.25-1.28,1.25-1.49C426.68,1305.16,440.25,1303.36,453.02,1299.02z" />
<path class="st4" d="M359.97,1245.69c-1.18,1.6-3.64-0.21-4.65-1.67c-0.54,0.2-1.03,0.31-1.37,0.13c-4.62-2.42-0.29-2.27,1.2,1.33  l0.63-0.53c3.29,1.42,5.98,3.98,8.06,7.7c-0.14,1.72-1.23,2.85-2.88,3.13c-1.14,0.42-2.23-0.37-3.28-2.35  c-7.12-4.25-14.17-8.57-21.15-12.97c-1.41-1.23-2.19-2.49-2.36-3.78c2.03-1.54,4.58,0.51,6.87-0.06c0.9-0.41,1.46-0.13,1.67,0.83  l1.06-0.7l0.1-0.98c-1.83,0.52-2.88,0.07-3.14-1.36c-3.3-1.57-6.47-2.79-11.22-3.89c0.93-2.78,4.05-4.19,7.32-3.53l-3.78-3.07  c4.35-1.24,15.56,8.03,16.12,3.08c0.23-2.01-1.64-3.41-1.8-4.9C353.47,1228.75,357.31,1237.06,359.97,1245.69z" />
<path class="st4" d="M529.77,1170.93c8.37-7.43,34.64-18.53,42.3-25.44c0.73-0.66,2.28-0.63,3.14-1.21l-8.44,18.49  c-7.77,2.53-15.05,3.54-22.65,5.12C539.11,1168.93,534.44,1172.02,529.77,1170.93z" />
<path class="st3" d="M334.16,1236.68c7.89,4.62,14.64,11.71,23.89,15.16c1.61,0.6,2.39,2.94,2.91,3.95  c-2.19,0.38-3.82,2.08-5.91,2.71c-2.21-0.04-2.16-1.24-0.01-1.84c0.86-0.32,2.2,0.03,2.88-1.32c-4.56-2.27-8.51-4.68-11.55-8.03  c-2.99-3.29-6.17-2.16-9.63-3.22c-7.94-2.41-15.84-5.22-22.8-8.78l2.16-1.48l11.46,3.7c-8.66-5.65-18.63-8.17-28.53-10.67  l-4.24-2.03l0.04-0.64C308.65,1223.79,322.12,1229.63,334.16,1236.68z" />
<path class="st4" d="M554.03,1190.27c0.41,1.33,0.97,3.25,2.31,4.29c3.57,2.77,3.77,6.65,5.32,10.5c0.8,1.97,5.24,1.76,5.09,4.92  c-6.33-0.27-12.85-0.19-18.79-1.29c3.21,0,6.84-0.24,10.2-1.51c-0.9-3.09-4.27-3-5.14-5.22c-1.07-2.73-4.18-4.73-4.99-7.35  C547.21,1191.98,551.82,1188.96,554.03,1190.27z" />
<path class="st4" d="M633.74,1110.09c-1.23-0.28-2.34-1.24-3.16-2.23c-0.61,0.01-1.14-0.92-1.72-1.07  c-0.85-3.05,3.71-6.59,5.87-3.76c8.46,3.74,15.75,10.43,23.35,17.11C648.17,1119.67,641.69,1113.15,633.74,1110.09z" />
<path class="st4" d="M523.27,1208.74c5.51,5.26,13.19,7.77,19.97,11.18c-3.32,0.65-6.08,0.07-8.7,0.07  c0.68-4.08-10.58-4.16-15.5-11.09C520.65,1206.85,522.11,1208.87,523.27,1208.74z" />
<path class="st4" d="M590.6,1193.11c1.24-2.32-8.83-2.92-12.43-8.53l1.74-3.76l11.16,10.25c0.65,0.6,0.43,1.31,0.53,1.5  C591.78,1192.92,591.11,1193.18,590.6,1193.11z" />
<path class="st5" d="M916.64,129.11c0.75-0.01,1.91,0.21,1.92,0.68c0.33,51.21,0.24,103.98-0.92,155.49  c-0.75,7.1-1.05,14.14-0.9,21.13c0.59,2.35,1.18,4.78,0.96,7.21c-1.29,14.05-2.66,28.17-4.04,42.21c-0.24,2.43-1.22,4.71-2.22,6.92  c-4.62,30.99-11.32,61.78-20.1,92.37c-26.61,92.88-53.67,184.29-81.18,274.24c-11,40.82-20.39,81.99-28.19,123.53l-2.31,6.02  l-4.21,1.2c-85.1-0.3-169.47,18.08-247.68,51.33c-2.94,1.48-5.02,1.36-6.22-0.36l-1.91-0.7c5.17-254,7.07-514.06,5.69-780.17  l1.9-1.15L916.64,129.11z" />
<path class="st8" d="M958.15,129.08l1.87,0.79c-11.6,168.01-20.35,340.79-17.87,515.52c0.11,7.83,0.48,15.78,1.79,23.48l6.13-18.16  l49.88-175.89l2.12-344.56l1.93-1.16l115.54,0.01l0.23,91.95l-1.47,377.03l-0.96,397.22l0.44,83.73l0.39,48.96  c0.05,6.44,0.16,12.48-0.69,18.37c-1.42-0.14-3.16,1.29-4.71,0.58c-1.35-6.05-1.04-12.33-1.56-18.92  c-3.18-39.87-15.67-79.68-34.4-114.84c-7.66-14.37-15.99-27.27-26.82-39.41c-2.06-2.31-3.36-4.6-5.71-6.99L1032,954.26l-12.25-11.67  c-2.52-2.4-4.53-4.55-7.04-6.58c-0.54,0.52-1.34,1.22-1.86,0.96c-1.54-0.75-13.28-10.3-14.69-11.84l0.14-2.35l-1.49-1.85  c2.1-105.66,3.21-211.15,3.34-316.47c-12.34,54.97-26.37,109.95-42.08,164.94l-8.71,124.48l-2,1.04c-1.85,1.79-4.68,1.63-8.51-0.5  l-35.71-13.67l-0.63-2.3l-1.89-1.24c4.38-147.89,6.67-295.66,8.41-442.75c0.01-24.12,1.48-48.02,4.41-71.72  c0.65-18.64,2.72-37.86,5.3-56.34c1.93-28.98,4.77-57.91,8.51-86.81l7.99-89.53l2.01-0.99L958.15,129.08z" />
<path class="st8" d="M527.23,129.07l0.62,41.14c1.29,192.32-0.33,384-3.55,576.55l-2.75,164.34c0.04,3.2-5.84,7.28-7.79,3.88  c-1.84,1.08-3.84,1.99-5.99,2.75c-0.21,1.86-1.01,1.85-1.57,0.06c-1.94,1.05-4.01,1.94-6.21,2.68c-0.12,0.86-0.41,0.85-0.83,0.06  l-2.83,1.16l-0.84,0.03c-8.4,3.27-12.6,4.91-12.6,4.91c-0.65-1.36-0.02-2.77,1.88-4.22c0.45-2.91,2.51-5.38,6.21-7.42l-19.09,10.89  c-2.64,0.75-3.29-0.95-3.27-3.44l-20.16,9.89c-2,0.33-3.21,0.04-3.53-2.02c-0.93-5.85,13.08-19.14,17.86-22.73  c-9.95,5.08-19.06,11.56-27.92,18.31l-3.81,0.49c-2.42,2.76-6.1,6.58-9.52,7.92c-0.19,0.07-0.56-0.57-0.68-1.46  c-0.2-1.54,6.64-15.24,8.76-16.92c-2.43,2.71-5.11,4.28-8.03,4.71c-0.06,0.78-0.16,1.55-0.38,2.28c-0.21,0.69-0.44,1.35-0.86,1.85  c-1.67,1.99-23.53,28.02-25.37,28.57c-1.28,0.38-1.9,0.16-2.74-0.87c-2.95-3.61,4.31-23.44,6.12-28.12  c-8.34,10.99-16.36,22.14-24.07,33.44c-5.05,1.26-4.04-5.87-2.5-9.28c1.23-13.29,1.92-26.27,2.32-40.45l4.95-171.73l2.59-169.1  l0.89-242.81l-0.24-29.74l-0.2-88.22l-0.03-77.36L527.23,129.07z" />
<path class="st9" d="M1004,129.1l-0.44,97.6l-1.73,248.44l-49.91,176.1c-2.64,9.31-5.72,17-9.04,25.94  c-2.57-16.2-2.72-30.63-2.87-46.66c-0.91-100.63,0.3-200.58,6.03-301.16l6.46-113.32l5.64-86.95L1004,129.1z" />
<path class="st9" d="M935.25,129.09l-6.04,68.72c-3.23,36.81-7.44,72.7-12.47,108.6c-0.68-0.66-1.13-2.32-1.12-4.13l1.02-173.17  L935.25,129.09z" />
<path class="st1" d="M346.6,956.39c3.14-2.53,6.69,3.91,4.38,6.32c2.64,4.33,0.95,4.97-5.05,1.91c-3.03,3.46-6.55,6.09-10.56,7.89  c-1.41,5.51-4.76,9.99-10.06,13.45c-1.37,2.58-2.97,4.23-4.8,4.94c0.15,1.81,0.22,2.72,0.22,2.72l6.07,16.37  c1.12,5,0.6,9.31-5.56,8.67c-24.84-31.78-56.94-57.75-90.84-78.82l-1.72-2.84c-0.21-4.4-2.6-10.32,3.7-13.71  c2.83-1.52,7.1-0.74,10.8,0.13C278.79,931.86,312.47,944.71,346.6,956.39z" />
<path class="st2" d="M620.45,926.4c-0.18,1.32,0.1,2.28,0.81,2.88c0.63,0.37,1.21,0.78,1.63,1.32c2.27,2.93,1.4,24.26,1.08,29.51  c-0.12,15.12-2.34,30.06-4.55,45.01l-0.17,1.04c-0.04,0.93-0.23,1.89-0.21,2.82l-1.64,1.46c-2.32-1.26-4.59-1.65-6.82-1.17  c-3.24,3.68-6.98,6.98-11.22,9.89c-2.59,5.18-6.3,6.99-11.13,5.44c-2.77,2.11-5.11,4.57-7.01,7.37c-0.75,4.01-3.89,14.12-7.43,7.72  l-1.81-2c0.58-7.84,1.81-23.24,7.58-28.89c0.99-0.97,1.63-1.43,3.24-0.9l0.81,1.14c2.27,0.19,1.31,3.64-0.07,4.97  c0.4,1.77,0.74,1.74,1.04-0.03c-0.48-5.41,0.8-7.99,3.82-7.75c1.55-1.2,2.28,1.21,2.46,2.71c0.04,0.3-2.37-4.36,0.33-4.55  c0.22-4.61,1.64-9.25,4.25-13.91l3.71-11.97l2.71-3.09c1.54-5.19,1.6-10.07,0.21-14.64c-2.62-0.73-2.41-3.68-0.02-4.58l-0.23-4.61  c-1.23-3.24-0.9-5.2,0.98-5.85c-0.44-3.33-1.39-6.29-2.85-8.89c-3.43,1.43-1.59-0.98-1.38-0.13c0.48,1.95-0.69,2.11-2.46,1.2  c-0.42,1.86-1.73,3.65-3.9,5.36c-1.35,4.06-3.59,6.59-6.74,7.58c1.74,3.1-0.36,5.4-6.31,6.91c1.59,3.95-0.27,6.63-5.57,8.03  c6.77,1.05,3.66,6.75,0.35,10.42c3.17,4.24,0.57,9.44-3.8,11.41c2.9,0.07,4.34,0.47,4.04,3.7c-0.12,1.37-10.69,10.37-13.32,6.21  c-0.88,0.76-1.87,1.56-3.07,1.69c-3.8,0.4-22.4-1.84-25.6-3.26c-2.13-0.95-2.62-1.66-2.33-3.96c6.77-19.89,22.25-34.78,38.28-48.05  c6.26-5.18,17.77-14.59,26.1-14.44c1.48,0.03,2.92,0.47,4.14,1.31c5.18-4.41,11.77-5.83,18.4-4.72c-0.84-3.75-0.29-6.23,1.65-7.46  C621.36,918.23,623.75,925.72,620.45,926.4z" />
<path class="st1" d="M624,916.8c-0.85,3.52,1.2,7.23,1.09,11.05c-0.25,8.52-0.32,16.73-0.1,25.46c0.06,2.5,0.46,5.26-1.03,6.8  c0.08-10.31-0.2-20.81-2.71-30.83c-0.7-0.65-0.97-1.61-0.81-2.88c-0.01-2.77-1.42-5.16-2.02-7.76l-2.15-0.78  c-0.9-4.19-3.14-12.31-7.18-14.32c-2.25-1.12-6.37,0.73-8.46,2.08c-37.11,23.84-72.67,50.89-102.23,83.72l-5.18,3.14  c-3.35,2.94-3.93,0.34-3.2-3.25l11.2-18.55c-3.71-5.67-7.41-11.33-11.11-17c-1.69-0.71-2.47-1.78-2.33-3.23  c-0.3-3.34,1.83-6.22,6.39-8.63c33.15-17.31,66.74-33.81,100.78-49.5C619.23,883.88,621.57,896.1,624,916.8z" />
<path class="st7" d="M779.65,858.92c2.36-0.88,4.8-1.65,7.34-1.68c16.02-0.17,34.48,2.82,50.4,5.41  c20.18,3.29,40.5,7.49,59.92,13.66l3.19,2.15l34.81,13.34c3.35,1.28,7.05,2.63,10.04,3.13c0.35-0.66,1.08-1.58,1.49-1.37  c16.06,8.09,33.7,17.74,49.17,26.89l0.28,2.34l16.41,13.23c3.4,26.82,0.12,51.66-15.08,75.07c-14.97,23.07-28.18,20.54-51.14,29.97  c2.37-7.26,8.34-10.51,13.07-15.66c-5.78-3.7-11.67-6.13-16.7-10.4c3.49-3.35,7.55-1.93,11.5-3.73c-6.6-1.31-12.73,0.8-19.31,3.52  c-31.82,13.16-61.24,32.9-84.55,58.34c-4.8,5.24-8.43,11.63-12.09,17.73c-8.95,14.93-12.59,31.48-16.97,48.89  c-4.01-2.46-6.17-6.87-8-11.11c-12.88-29.97-9.25-63.45,8.78-90.32c2.19-3.26,4.47-5.94,5.94-10.1  c-10.32,5.09-20.35,14.98-29.45,20.86c6.24-11.5,15.71-19.95,25.6-28.05c-2.56-0.82-5.39,2.9-6.64,0.7  c-1.72-3.04,2.37-5.68,2.93-9.05c-8.01,3.72-14.21,9.84-20.74,16.25c-2.69-3.25,0.77-5.68,1.93-8.2  c4.94-10.69,12.6-18.48,23.08-23.88c-5.19-1.55-6.26,3.77-11.89,4.09c19.39-29.81,48.39-37.3,83.85-30.54  c-30.5-12.3-59.41-0.81-86.02,15.28c-14.16,8.56-29.86,14.33-46.43,13.83c-1.64-0.05-3.44-1.12-3.99-1.95  c-2.31-3.46,7.42-10.12,9.35-11.99c-13.57-1.32-26.05-2.61-39.32-6.54c2.31-1.56,5.66-1.91,8.21-1.96c5.6-0.09,6.89-3.34,10.36-6.57  c3.3-3.08,8.73-7.81,13.21-9.33l33.94-3.78l-54.86-0.04c-7.75-0.01-14.86,2.31-22.98,1.09c16.67-11.97,37.35-16.32,50.74-32.71  c-13.33,5.64-26.71,9.45-41.08,11.48c-18.57,2.62-31.43,7.24-49.53,13.88c5.93-7.69,13.2-13.19,21.06-18.31  c7.14-4.65,14.93-7.29,21.71-13.15c-19.37,3.96-36.19,11.68-54.49,19.86c1.66-5.7,7.22-7.72,10.76-11.48  c4.84-5.13,10.08-8.78,15.97-13.93c-15.06,3.08-27.12,11.7-42.26,17.23c6.76-7.3,14.42-12.52,21.69-18.58  c4.01-3.35,9.23-4.83,12.11-9.26c-7.95,2.67-13.31,8.19-20.03,12.06c-2.77,1.6-6.47,1.07-8.59,3.9c-0.43,0.57-0.97,1.07-1.37,1.15  c-7.1,1.35,10.84-12.83,9.63-14.54l-31.8,19.74c3.29-10.88,12.03-6.07,13.52-16.43c1.19-8.23,11.08-7.77,15.72-16.18  c-6.49,1.97-9.74,8.13-15.69,9.37c-3.27,0.68-4.45,2.15-6.84,3.84c-3.3,2.34-8.92,1.9-11.25,6.62c-0.99-1.92-0.53-3.63-1.2-5.49  c-4.56,2.2-1.51,2.8-3.07,9.29l-5.54-17.6c-1.54-4.88-6.31-8.95-11.66-8.1c-6.94,1.11-13.12,3.54-19.52,6.67l-81.61,39.83  c-7.07,3.45-13.64,7.01-17.87,12.85c0.59,0.65,1.1,1.64,0.62,2.24c-6.33,5.08-9.77,18.19-10.25,26.04c5.38,1.86,7.79,4.46,7.25,7.81  c-2.45,8.43-2.33,16.03,0.38,22.81c0.69-6.03,2.37-11.64,5.03-16.84l2.42-0.04c14.09-17.06,30.48-31.91,47.97-46.18  c18.93-15.44,37.53-29.83,58.46-42.34c2.67-1.6,7.85-3.85,10.43-2.05c5.51,3.85,7.01,10.95,8.33,16.73l0.36,9.84  c-7.58-1.85-14.99-0.65-20.34,5.06c-9.41-12.96-57.05,37.83-59.39,42.95l-7.91,17.31c10.72,2.4,19.91,2.97,29.72,3.74  c3.16,0.22,4.74,0.33,4.74,0.33c1.01,0.11,2.11,0.57,2.32,1.54c1.63,7.32-26.91,23.42-33.53,26.37c12.57,6.07,25.7,10.7,39.41,13.91  c3.95,1.82,4.32-4.35,5.3-7.51c1.29-4.13,5.77-6.66,8.51-9.68l6.57,0.96c2.33-5.5,6.66-8.21,11.19-11.19  c2.32-1.53,2.88-4.95,5.92-5.2c2.79-0.23,5.1,1.04,7.74,1.92c0.43,18.24-3.88,35.5-14.34,51.57c19.39,13.21,36.51,26.7,52.8,43.17  l-24.96-4.3c1.03,1.13,2.22,2.16,2.19,3.59c-2.48,0.31-3.96,2.78-5.87,3.76c-20.81,10.66-29.96,6.98-48.27,20.38l-1.7,0.02  c-1.97-2.04-1.46-4.96-0.1-7.69c-6.03-0.89-11.57-0.53-17.03-3.08l4.67-3.45c-20.28,2.01-11.24-0.82-25.08-2.52  c-0.02-1.89,1.63-1.32,2.01-2.44c-14.92,2.51-18.35-2.67-34.16-2.53c-0.42-1.74,1.38-1.99,1.19-3.48  c-22.26,6.75-14.61,1.84-17.65,1.23c-0.85-0.17-30.02,14.07-33.61,18.22l8.98-17.34c2.84,0.83,0.33,3.52,0.61,6.2  c4.06-2.83,4.46-8.61,7.43-12.25c9.48-11.64,23.14-17.43,35.74-25.43c-15.1,4.27-26.8,14.28-38.84,23.4  c-2.68,2.03-5.71,2.24-7.98,7.13c-4.73-10.87,10.63-17.78,13.76-27.3c-4.64,4.76-9.05,9.39-13.26,14.53  c-3.35,4.09-4.07,9.88-8.06,13.39c-1.11-2.22-1.48-4.79-0.93-7.1l5.87-24.95c-5.39,6.64-7.39,14.2-11.75,20.9  c-1.29-8.78-1.69-16.7-1.81-25.55c-5.95,4.19-3.15,19.39-5.9,23.66c-3.25-5.41-4.47-22.5-5.72-29.45c-4.2,5.36-0.87,13.85-4.6,20.7  c-5.73-13.52-7.44-27.34-9.41-42.7c-3.45,11,5.54,22.69,0.73,35.14c-5.08-8.96-7.23-18.39-11.41-28.18  c-2.9,5.47-2.69,12.82-2.64,18.73c-0.68,0.53-3.29-0.35-3.46,1.56c-0.59-3.14-0.29-5.86-2.2-8.81c-4.53,10.64-4.17,2.97-6.17,12.9  c-2.77-3.87-0.83-7.83-1.72-12.86c-2.08,1.81-0.96,4.31-1.19,6.9c-2.87-3.62-2.03-10.5-3.26-11.74c-7.73-7.85,1.83,22.75-4.62,23.04  c-4.17,0.19-2.99-7.17-8.62-11.05l1.48,17.46c-3.92-1.97-4.33-5.63-7.7-7.81c0.34,4.69,5.44,18.69,2.33,19.66  c-2.43,0.75-4.74-7.13-6.88-8.3c0.64,12.38,5.57,18.34,3.29,31.54c-2.56-3.87-1.72-8.87-6.32-12.07  c-0.09,5.45,3.34,28.62-0.55,29.66c-13.56-12.88-31.7-6.63-44.47,2.63l-12.99,9.42c2.63,2.81,8.23,2.3,8.71,5.88  c0.54,4-4.51,6.43-6.48,9.44c0.63,1.25,2.11,1.25,3.19,2.39c-4.95,8.5-9.44,6.21-12.7,16.89c-6.53-3.37-14.1-6.09-19.36-11.49  l-4.73-4.86c0.76-4.86,1.87-9.85,1.99-15.71l-16.56,14.08l4.42-9.85c2.17-4.83,5.63-9.96,5.12-15.62c-4.26,2.43-2.57,7.63-7.33,9.15  c4.9-16.51,11.31-31.79,18.01-47.24c1.64-3.79,1.26-6.2-0.87-9.53c-8.74-13.68-14.5-28.24-20.99-43.23  c-14.42-33.3-28.9-74.77-30.62-110.41c11.96,4.84,21.75,14.04,32.53,21.79c21.05,15.12,45.79,37.32,60.97,58.39  c0.58,0.73,2.41-1.1,2.97-1.83c0.74-0.97,0.39-3.24-0.17-4.75l-5.97-16.2c-0.65-1.75,0.91-2.84,1.49-3.5l2.31-0.45  c4.96,7.37,10.55,14.26,16.78,20.69c0.39-3.86,0.45-7.76,0.17-11.69c1.27-4.14,2.71-4.91,5.48-1.24c0.06-5.87,2.13-9.49,6.2-10.87  l5.5-11.95c0.12-3.62-1.94-6.93-6.18-9.92c0,0,0.07-0.92,0.21-2.75c-1.42-1.93-1.74-5.41-4.38-6.32c-0.43-2.33-1.8-4.61-0.66-6.89  c2.1,6.24,19.34,13.06,21.57,10.81c3.29-3.31,0.88-10.93,4.25-11.84c-0.25,2.7-0.45,5.37,1.18,8.7c1.03-3.55,4.05-5.73,5.98-8.96  c3.62-6.08,20.37-30.82,26.22-32.78c-5.14,8.42-12.63,27.47-11.42,36.9l15.88-18.68c3.95-4.65,8.04-8.84,11.96-13.06  c2.41-2,3.93-1.86,4.57,0.42l-4.93,11.14c0.47,0.57,0.95,1.12,1.48,1.62c0.41,0.39,7.82-6.31,8.36-7.42  c13.26-10.11,26.72-20.07,43.85-26.09c-3.45,5.21-9.5,7-13.72,11.18c-8.59,8.5-9.6,6.76-14.82,19.76l28.43-13.95l-5.27,7.72  c10.69-5.8,19.84-12.19,30.91-16.54c-5.08,6-10.52,9.78-15.66,13.95c-2.1,1.6-2.34,2.89-0.73,3.88l11.45-4.57  c0.27,0.01,0.57,0.01,0.84-0.03l2.83-1.16l0.83-0.06c2.15-0.73,4.21-1.62,6.21-2.68c0.47-0.17,1.07,0.02,1.57-0.06l5.99-2.75  c3.17,0.12,5.14-3.19,7.79-3.88c2.61-0.68,4.82-1.02,7.97-2.34c45.58-19.18,92.53-33.21,141.44-41.83  C707.51,860.47,743.27,858.09,779.65,858.92z" />
<path class="st9" d="M911.44,362.75l-2.49,71.76l-1.44,107.92l-2.07,140.16l-4.93,195.87c-39.72-10.4-79.65-18.6-120.85-19.55  c8.66-52,20.31-103.67,35.8-154.55l27.87-91.59c21.42-70.41,54.78-178.56,66.9-248.71C910.34,363.37,911.1,362.5,911.44,362.75z" />
<path class="st9" d="M996.3,922.79l-17.95-9.81l-33-18.05L953.57,774c0.71-10.4,5.14-19.86,7.91-29.76  c10.3-36.75,19.74-72.85,27.46-110.25l11.18-45.76l-0.38,106.89l-2.31,214.72C997.38,914.85,997.52,918.76,996.3,922.79z" />
<path class="st8" d="M596.1,937.93l2.24,0.04c1.85,6.06,3.09,12.14,3.71,18.24c0.49,1.11,0.04,3.36,0.02,4.58  c1.97,3.71,0.72,10.19-0.21,14.64c-2.25,10.12-5.67,19.88-10.67,28.97c-0.5,1.43-1.43,2.04-2.79,1.84  c-2.41,2.01-1.65,5.58-3.82,7.75c-0.27,0.85-0.62,0.85-1.04,0.03c-0.03-1.43-0.06-3.69,0.07-4.97l-0.81-1.14  c-7.28,7.75-8.43,20.56-9.01,31.78c-0.42,0.53-0.84,1.54-1.46,1.71c-0.88,0.24-1.62-0.79-2.54-1.18l-8.04-1.81  c-11.01-2.48-21.03-7.94-32.41-12.05c13.49-7.6,29.62-14.41,37.22-26.64c-2.72-1.01-5.32-0.06-5.72-2.16  c6.3,0.49,5.76-3.39,12.5-7.55c-4.24-0.99-7.79,0.09-11.86-1.67c3.79-1.37,8.21-1.5,10.91-4.87c1.18-1.48,1.24-3.68,0.6-5.34  c-0.51-1.3-2.52-1.18-4.69-2.23c1.98-1.29,4.49-0.9,6.59-2.8l-3.83-2.25c2.17-0.86,4.48,0.18,5.29-1.97  c-3.79-2.06-7.04-0.29-11.1-1.43l11.97-5.36c1.59-0.71,0.02-3.66-0.46-5.14c2.73-2.02,6.09-2.06,8.62-4.44l-7.54-0.46  c3.14-1.91,6.46-2.75,10.17-4.13C589.36,943.28,591.87,939.32,596.1,937.93z" />
<path class="st6" d="M350.98,962.71c2.09,2.85,5.41,5.05,7.48,8.38c3.1,5.01-5.51,14.13-6.26,20.65c-1.35-0.59-0.8-1.93-1.8-2.93  c-3.05,3.78-2.86,8.18-3.48,12.68c-2.84-0.23-3.22-2.92-4.97-4.28c-1.13,6.51,1.7,12.16-2.12,18.18c-3.02-5.9-7.37-9.22-11.22-13.43  c-3.23-3.52-4.69-8.16-8.09-11.07c0.67-5.13,6.48-9.1,10.78-12.47l2.77-7.98c8.69-0.68,9.68-13.17,16.36-5.2  C351.83,964.26,351,963.5,350.98,962.71z" />
<path class="st2" d="M267.95,999.22c-2.74-1.62-5.66-0.37-8.44-2.99c3.13-2.04,6.05-0.72,9.15-1.71  c-3.62-3.08-13.76-4.58-15.53-9.43c3.57-1.2,6.53,0.65,9.94-0.96c-3.57-3.35-15.16-1.74-14.35-11.62c0.26-3.18-1.16-5.77-0.28-9.02  c12.76,8.48,23.89,18.16,32.92,29.93c5.01,6.53,7.75,14.02,12.3,21.62c-2.7-0.45-28.02,4.57-22.59-0.78  c0.87-0.85,4.28-0.59,4.52-2.3c0.85-5.95-11.29-3.82-13.05-8.87L267.95,999.22z" />
<path class="st6" d="M493.24,992.48c-4.4,5.33-4.36,13.87-6.3,20.24c-9.63-5.44-3.04-20.69-3.31-29.42  c-2.43-0.85-7.77-1.89-7.33-4.97c1.02-7.11,3.13-13.93,5.43-20.71c0.96-2.82,4.47-4.96,6.07-7.15c5.83,1.1,8.65,9.37,11.35,14.58  c1.07,2.06,5.25,4.3,3.62,6.96l-10.97,17.98c-0.34,0.56-0.34,1.58-0.25,2.07C491.64,992.58,492.55,992.61,493.24,992.48z" />
<path class="st1" d="M285.12,1040.94c8.4,4.38,16.28,7.96,24.83,11.11c-2.41,3.65-4.42,7.01-8.3,9  c-7.09-5.98-13.06-12.58-18.28-19.52C283.67,1040.5,284.25,1040.3,285.12,1040.94z" />
<path class="st6" d="M637.79,898.38l14-7.19c-6.07,6.5-13.97,11.34-21.97,15.09c-0.95-2.11-1.31-3.4-2.54-3.87  c-1.34-0.51-2.97,0.58-5.1,0.07c-3.15,0.43,24.1-15.25,20.49-10.58l-13.52,8.42C632.27,902.79,635.56,901.08,637.79,898.38z" />
<path class="st6" d="M431.03,926.36c-1.39,3.93-5.96,6.03-8.99,9.22c-1.69,1.78-2.33,4.53-5.11,4.79  c-0.47-4.75,13.18-21.75,4.62-19.76c3.77-4.04,8.13-7.46,13.49-10.82c-4.18,10.92-11.63,13.05-13.1,23.45  C425.46,931.07,428.11,928.59,431.03,926.36z" />
<path class="st6" d="M303.68,1106.8c10.07-1.23,39.38,10.26,45.74,19.93C334.91,1117.15,320.8,1110.68,303.68,1106.8z" />
<path class="st6" d="M352.91,1120.93c3.94,7.22-20.46-15.19-18.46-13.44l-17.74-15.59l5.52,2.91L352.91,1120.93z" />
<path class="st6" d="M658.89,1253.83c-5.06,0.67-9.97-2.28-14.43-4.49c-11.92-5.91-23.73-9.71-36.49-14.98  C621.34,1235.42,645.54,1245.79,658.89,1253.83z" />
<path class="st1" d="M469.09,1156.79c-0.2-2.5-6.1-10.27-2.46-11.57l36.5-13.08l17.08-8.72c2.4,7.7-14.26,15.75-20.27,17.62  l-21.14,6.58C474.33,1149.01,471.68,1151.44,469.09,1156.79z" />
<path class="st1" d="M375.94,1172.13c-9.99-14.93-34.57-7.03-49.29-16.54c-2.1-1.36-4.55-4.84-2.13-6.6  c8.66,3.19,18.25,5.94,27.44,6.35c4.67,0.21,22.32,3.59,23.08,9.41C373.47,1167.32,376.22,1168.59,375.94,1172.13z" />
<path class="st4" d="M313.94,1235.32c-3.8-3.85-16.68-5.5-19.14-10.47c14.92,1.61,29.38,6.52,41.16,16.42  C327.2,1240.47,321.08,1236.74,313.94,1235.32z" />
<path class="st4" d="M951.11,744.36c-3.15,3.74-7.86,4.99-11.76,3.37c-4.08-1.68-6.48-5.64-6.35-10.5c0.12-4.69,3.42-8.45,6.98-9.7  c4.87-1.71,9.6,0.1,12.18,3.65C955.1,735.21,954.59,740.24,951.11,744.36z" />
<g>
</g>
<g>
</g>
<g>
</g>
<g>
</g>
<g>
</g>
<g>
</g>
<g>
</g>
<g>
</g>
<g>
</g>
<g>
</g>
<g>
</g>
<g>
</g>
<g>
</g>
<g>
</g>
<g>
</g>
</svg>