<?xml version="1.0" encoding="iso-8859-1"?>
<!-- Generator: Adobe Illustrator 30.2.1, SVG Export Plug-In . SVG Version: 9.03 Build 0)  -->
<svg version="1.1" id="Layer_1" xmlns="http://www.w3.org/2000/svg" xmlns:xlink="http://www.w3.org/1999/xlink" x="0px" y="0px"
	 viewBox="0 131.7 1200 1539.0" style="enable-background:new 0 131.7 1200 1539.0;" xml:space="preserve">
<style type="text/css">
	.st0{fill:#96D0F1;}
	.st1{fill:#FFFFFF;}
	.st2{fill:#ADD8F1;}
	.st3{fill:#609DC2;}
	.st4{fill:#3A5B72;}
	.st5{fill:#C3B4CE;}
	.st6{fill:#D7D1DA;}
	.st7{fill:#E7CED3;}
	.st8{fill:#C2E2F7;}
	.st9{fill:#D5B3C7;}
	.st10{fill:#C6D3E2;}
	.st11{fill:#F3C4C9;}
	.st12{fill:#EFCDCF;}
	.st13{fill:#293450;}
	.st14{fill:#5D7499;}
	.st15{fill:#AE8D5A;}
</style>
<path class="st0" d="M1200,860.36v101.56c-0.78,1.87-2.77,2.73-5.97,2.58c-158.3,14.52-316.04,28.3-473.22,41.35l-1.73,1.21
	c-15.01-8.86-30.03-17.72-45.06-26.58l0-2.23l-2.21-1.79c-1.99,2.02-2.69,1.67-2.62-1.08c-1.46-0.92-2.77-1.87-3.95-2.86
	c-0.79,1.77-2.54,0.4-2.97-1.06c-0.9-0.31-1.2-0.03-0.89,0.86l3.06,1.41c43.38,36.5,85.62,73.7,126.73,111.59
	c7.73,6.4,16.42,11.6,26.07,15.59c72.86,33.04,145.04,65.91,216.54,98.6c-98.02-59.83-195.27-119.62-291.78-179.37l0.01-2.25
	c0.55-2.28,2.61-2.94,6.18-2c62.21,12.11,124.79,23.39,187.74,33.85c87.7,6.22,175.24,10.63,263.01,14.94l1.07,1.98v224.01
	l-1.42,1.45c-174.21-81.73-348.07-164.32-521.57-247.78l-67.56-31.05c198.75,179.02,393.56,357.8,589.22,538.1l1.33,3.83v60.81
	c-0.5,0.57-1.38,1.35-1.83,1.06c-13.93-9.04-29.48-19.97-42.71-29.98l0.05-2.29c-3.89-1.21-7.82-3.18-11.78-5.9
	c-175.83-123.33-352.35-247.73-529.56-373.2c-7.55-5.46-14.55-11.19-21-17.18c-8.51-6.3-8.75-6.03-0.74,0.81
	c6.94,4.61,13.9,9.86,20.89,15.78c0,0,57.88,50.59,173.65,151.78l0.46,3.42c1.85,1.35,1.49,2.72,0.61,4.54
	c-41.73,102.22-82.72,204.21-122.98,305.96l-2.44,0.94l-0.92,1.92c-152-0.14-304.02-0.29-456.06-0.43l-1.2-1.92l-1.1-1.71
	l321.51-412.5L4.44,1633.47c-1.9,1.42-3.47,2.16-4.43-0.51V913.92l2.88-1.79c135.42-7.87,271.61-17.58,408.58-29.15l106.69-12.38
	c2.46,0.1,4.19,0.2,3.11,3.08c0.96,1.71-0.1,3.02-3.2,3.93c-63.39,21.27-126.76,41.54-190.09,60.82l-1.39-0.56
	c-1.15,0.64-0.66,1.15,1.48,1.53c-0.09-0.53-0.14-0.95-0.06-0.98c7.41-2.4,15.71-4.62,23.36-6.55l195.7-46.65
	c78.33,29.16,156.33,59.13,234,89.9l0.16,1.43c0.81,0.87,1.61,0.88,2.41,0.02c-67.22-33.75-134.53-67.92-201.93-102.5
	c-1.48-1.3-1.87-2.07-1.03-3.88c0.89-1.93,10.32-10.81,12.52-7.48c3.94-1.54,8.34-2.45,13.21-2.73
	c106.77-10.75,213.95-20.04,321.54-27.87c19.79,0.89,39.48,2.91,59.09,6.06l211.35,20.31L1200,860.36z"/>
<path class="st1" d="M204.45,1671.31l458.19,0.43l1.52-1.92c178.21,0.04,356.42,0.08,534.64,0.12l1.2,1.92V1800H0.01v-127.68
	l0.66-1.92c67.51-0.33,135.04-0.67,202.58-1L204.45,1671.31z"/>
<path class="st2" d="M1200,128.89v7.97c-5.73,1.87-11.92,2.6-18.56,2.19c-6.51,1.25-12.73,1.36-18.66,0.34
	c-1.02,0.56-2.09,1.14-3.21,1.74c0.18,2.96-2.79,3.64-4.49,1.12c-1.44,0.78-2.84,1.68-4.2,2.71c0.29,0.68,0.69,1.68,0.27,2.07
	c-0.97,0.91-10.46,6.6-11.53,6.89l-2.13-0.96l-2.62,2.47c0.52,0.54,1.19,1.5,0.87,1.83c-9.9,10.49-21.09,20.63-32.02,29.87
	l-5.18,0.27c-16.53-2.61-33.42-4.89-50.26-6.21c-24.71-1.93-40.19,1.87-62.2,15.86c-5.82,5.18-11.94,9.25-18.35,12.22
	c-23.76-4.42-47.73-9.36-71.88-14.81c-62.26-11.19-127.79-13.44-188.31,7.06c-29.78,11.73-58.68,23.51-85.76,39.27l-42.45,1.06
	c-24.97,3.14-50.04,4.3-75.22,3.49c-27.99-2.7-56.21-4.1-84.65-4.2c-16.51,1.26-32.57,5.11-48.2,11.56l-1.63-1.68
	c-4.53,2.54-8.87,2.99-13.04,1.33c-5.38,1.54-11.17,1.14-17.37-1.2c-30.67-0.46-61.1-0.68-91.31-0.69
	c-6.49-0.97-12.92-0.97-19.28,0.02l-5.59-0.93l-49.23,1.11c-20.66-0.44-41.23-0.58-61.72-0.43c-7.99,1.72-16.11,1.55-24.38-0.5
	c-6.68,1.95-13.21,2.31-19.59,1.06c-14.35,0.95-28.75,1-43.19,0.15l-4.31,0.86c-5.11,3.79-8.91,2.05-13.39-1.88
	c-3.55,0.89-5.95,0.47-7.22-1.26v-120L1200,128.89z"/>
<path class="st3" d="M1155.51,1584.81l5.99,4.08l38.5,27.13v55.85l-537.37-0.13l23.3-58.77l95.82-238.82
	c2.07-5.16,4.63-9.03,5.69-13.85l1.73-1.43c52.85,43.48,105.68,87,158.49,130.55C1017.24,1520.85,1086.52,1552.64,1155.51,1584.81z"
	/>
<path class="st0" d="M1200,704.81v75.54l-1.06,1.94c-185.06,4.41-370.22,8.74-555.48,13.01c-3.38,0.38-5.4-0.45-6.07-2.49
	l-1.67-1.45l1.75-9.51l-12.81,14.16l-2.37-0.25l-1.59,0.77l-120.36,1.9c35.13,2.91,70.04,6.01,104.71,9.28
	c2.42,0.21,4.05,0.77,3.83,3.45c3.95,2.23-5.39,12.36-8,7.82c0.02,0.98-0.22,1.91-1.21,1.87c-199.35-6.44-398.88-12.85-598.59-19.23
	l-1.08-1.96v-37.44l1.72-1.86c214.97-7.54,429.25-15.02,642.85-22.43l0.71,1.25c0.86-0.05,1.67,0.11,2.37,0.62
	c0.63,0.46,4.51,14.14,4.55,14.92l-1.05,1.95c4.02,1.73,0.88,4.46-2,5.97c-9.52,1.15-8.14,1.43,4.14,0.86l32.45,9.23
	c0.46,0.03-4.66-6.66-5.37-7.56c-7.43-9.38-9.06-9.53-20.53-8.95l-1.05-1.99c-3.7-0.85-2.19-2.18,0.15-4.09l16.88-6.18l-22.78-16.99
	c0,0-0.13-0.86-0.38-2.57c6.43-6.33,13.18-12.4,20.25-18.21c-3.03-0.98-5.2-2.66-6.51-5.04c0.98-2.99,15.61-16.5,18.74-17.27
	c0.77-0.19,1.57-0.25,2.38-0.27c32.09,5.06,64.74,9.91,97.96,14.57l18.35,1.34l395,3.35L1200,704.81z"/>
<polygon class="st4" points="1200,1290.66 1200,1555.21 1017.93,1387.79 866.82,1249.05 598.85,1006.29 677.82,1042.59 
	814.7,1108.17 1071.61,1230.47 "/>
<path class="st5" d="M1200,290.58v163.56l-0.76,1.88c-348.27-16.8-696.66-33.16-1045.18-49.06c-7.4-2.71,0.49-9.01,3.39-3.71
	c1.82-0.69,3.95-0.96,5.76-0.04c-0.27-2.11,2.52-1.83,2.88-0.01c5.85-0.62,8.77-0.92,8.77-0.92c151.6-4.78,302.93-8.08,453.99-9.91
	c65.48-22.27,135.26-27.29,203.37-31.71c8.18-2.33,12.27-3.5,12.27-3.5c88.66-79.24,216.47-85.78,327.12-57.24
	c7.98-3.89,16.03-7.43,24.18-10.61C1198.12,288.22,1199.52,288.64,1200,290.58z"/>
<path class="st6" d="M166.06,400.98c2.75,0.52,2.53,1.35,0.03,2.22l-2.88,0.01c-1.85-0.89-3.88-0.64-5.76,0.04
	c-1.58,0.69-3.89-1.63-5.39,1.65c17.95,1.36,33,1.57,51.52,2.37l50.6,2.19l62.78,2.95l22.65,0.92l169.61,8.44l25.21,1.09
	l100.05,4.59l48,2.15l220.8,10.1l129.16,6.14l24.18,1.11l70.4,3.36l72.98,3.83v46.03l-0.63,1.92c-10.35,1.32-22.31,1.75-32.47-0.16
	c-5.12,1.38-11.08,2.22-15.96-0.39c-3.74,2.62-8.3,1.62-12.34,0.2c-6.23,1.05-12.47,0.95-18.72-0.31
	c-27.2,1.93-54.78,2.11-82.74,0.53c-27.54,0.86-54.17,0.34-81.4-0.86c-20.21,0.54-40.7,0.77-60.7-1.73
	c-14.65,1.61-29.83,0.65-44.23-1.33c-9.84,1.6-19.19,1.41-28.06-0.57c-6.6,2.05-13.67,2.38-21.18,0.98
	c-51.9,0.23-103.75,0.41-155.54,0.53c-7.95,0.61-15.73,2.3-23.34,5.08c-7.61-0.02-15.27,0.33-22.99,1.03
	c-18.04-1.99-35.89-4.52-53.55-7.58c-17.74-0.06-35.53-0.32-53.39-0.78c-12.08-3.73-24.09-6.67-36.02-8.84
	c-0.93,3.08-4.49,2.72-5.42-0.19c-2.64-1.58-11.09-1.68-14.66-0.15c0.16,2.56-0.74,2.53-1.77,0.2c-14.04,1.63-29.24,2.35-43.23-0.14
	c-0.32,2.54-1.19,2.35-1.76-0.13c-0.78-0.67-2.17-0.89-4.15-0.67c-0.5,2.78-3.96,2.52-4.47-0.18l-2.33-1.53l-3.36,1.59
	c-14.08-2.04-27.9-4.83-41.45-8.39c-2.4-0.73-3.84-2.75-4.34-6.05c-20.41-7.43-41.9-13.98-63.39-17.37l-1.26-1.9l-2.36-1.47
	c-0.31,0.71-0.8,1.78-1.37,1.74c-6.63-0.5-22.59-2.52-27.61-5.74c-23.32-18.29-58.63-27.6-88.32-26.04
	c-15.39,2.15-30.69,4.63-45.91,7.44c-10.85,1.67-21.56,0.15-31.72-4.04l-32.19-14.51c-10.13-4.46-21.15-6.7-32.22-6.38l-3.44-1.75
	v-3.84l1.66-1.88c11.26,1.35,22.48,2.98,33.67,4.89l12.29-3.27c7.1,0.67,14.27,0.24,21.51-1.31c14.81-0.31,29.59-0.49,44.32-0.55
	c4.7,0.39,7.02,2.13,6.97,5.21c2.21,1.04,4,0.58,5.36-1.36c4.71-3.19,37.07-3.57,39.56-1.38
	C165.98,399.3,166.09,400.18,166.06,400.98z"/>
<path class="st7" d="M1200,500.16v54.86c-2.89,2.68-7,3.69-12.34,3.06c-8.74-0.91-13.1-1.36-13.1-1.36l-92.06-0.01l-4.26,1.2
	c-15.61-0.31-31.36-0.21-47.23,0.28c-13.5-1.1-27.02-1.83-40.57-2.18c-3.34,0.85-6.7,1.3-10.1,1.34
	c-6.37-2.06-12.34-2.16-17.91-0.32c-6.94-2.91-15.58-2.41-22.84-0.06c-6.74-1.29-13.69-1.55-20.82-0.79
	c-7.51-0.98-15.22-0.61-23.13,1.1c-16.78-0.62-33.52-0.51-50.2,0.33l-3.7-1.28c-10.83,0.36-21.67,0-32.54-1.08
	c-9.48,1.08-17.98,1.41-27.28-1c-4.85,1.21-9.13,0.8-12.84-1.26l-89.34-0.48c-5.34,0.28-10.57,1.34-15.68,3.18
	c-11.6-0.06-23.32-0.21-35.16-0.44c-11.12,1.15-22.19,1.5-33.21,1.04c-4.28-2.38-7.74-2.55-10.38-0.52
	c-11.44,0.16-22.9,0.12-34.36-0.1c-11.72-1.83-23.34-2.35-34.88-1.57c-5.11-2.29-9.25-2.63-14.53-0.82
	c-13.02-1.72-25.92-1.89-38.72-0.5c-7.28,3.22-14.7,5.59-22.25,7.13c2.01,1.99,2.06,3.44,0.17,4.34
	c-2.11,2.63-13.39,2.57-16.22,1.47c-0.96-0.37-1.53-1.36-2.01-2.25c-0.79-1.48,0.29-2.47,3.25-2.96c-3.27-1.8-7.96-1.26-9.85,2.1
	c-0.7,4.46-9.58,3.19-11.64,0.03c-2.18-1.15-1.43-2.87,2.26-5.15l-1.65-2.7c-11.92,0.44-23.65-0.13-35.52-1.33l-46.25-3.44
	c-4.03-0.44-6.77,0.77-8.22,3.63c-1.5,2.72-4.18,2.46-4.76-0.68c-0.68-0.71-1.4-0.76-2.16-0.16c-0.82,0.4-1.64,0.76-2.5,0.99
	c-0.83,0.23-1.64,0.41-2.43,0.36c-12.69-0.93-25.9-1.9-38.22-3.89c-10.61-6.13-22.12-7.33-34.32-6.8
	c-32.88,2.71-66.16,3.4-95.2-14.62c-20.91-6.46-44.52-6.05-66.45-5.36c-16.14-8.42-32.81-13.93-50.91-14.3
	c-1.5-1.19-0.94-2.49,0.12-3.98c186.13-1.99,375.46-1.87,558.89,4.52l0.97-1.86c10.6,1,10.14,0.71-1.37-0.88
	c-22.2-7.06-44.82-7.6-67.81-5.97c-5.87-0.32-11.73-0.49-17.59-0.52l-1.52-1.89c-4.01,2.06-6.38,1.8-7.13-0.8
	c-8.24-3.82-17.27-5.79-26.28-7.12c-1.47-1.48-1.61-2.21,0.52-2.82c3.9-1.05,7.32,0.5,11.34,1.28c5.11,0.99,9.93,1.59,14.89,3.24
	c7.12,2.37,14.43,3.4,21.99,3.42l34.51,0.09c3.36,0.01,7.25,0.15,10.61,0.65l25.88,3.85c11.93,1.77,23.67,4.11,35.79,1.87
	c4.21-0.78,8.94,0.79,12.97-0.62c12.43-4.35,17.41-4.98,31.13-4.52l10.31,0.34c2.94,0.1,5.25-0.21,7.72-0.26l15.3-0.35l10.7,0.15
	c12.4,0.17,20.31-0.32,32.71-0.34l69.01-0.13c7.14-0.01,14.08,2.42,21.15-0.88c8.96,4.38,25.4-1.64,33.9,1.33
	c3.48,1.22,5.03,0.76,8.54,0.61c9.21-0.39,18.89,2.08,28.12,0.06c3.44-0.75,5.5,1,8.54,1.07l35.97,0.83
	c3.92,0.09,6.83,0.59,10.78,0.01c6.09-0.9,12.42,0.06,18.6,0.19l41.48,0.89c2.75,0.06,4.76-0.28,7.37-0.33
	c14.12-0.27,28.08-0.53,42.22,0.37c10.84,0.7,21.4,0.05,32.34,0.16l9.56,0.09l18.23-1.35c3.84-0.29,6.98,0.65,10.73,1.22
	c3.75,0.58,7.89-2.18,11.95-0.36c3.23,1.45,6.76,0.87,9.87-0.71c5.07,2.29,10.36,1.77,15.45,0.36c1.27-0.35,2.58,1.04,3.91,1.04
	l24.87-0.06C1196.99,501.06,1198.53,499.98,1200,500.16z"/>
<path class="st4" d="M204.45,1671.31l-204.44,1.01v-39.36c1.69,0.28,2.52-0.48,4.3-1.77l500.68-361.8
	c9.78-7.06,18.44-14.35,28.84-20.57l-12.93,16.42l-209.82,268.91L204.45,1671.31z"/>
<path class="st8" d="M600.89,818.99c2.58,0.33,2.78,2.17,0.63,5.5c2.19,3.31,4.73,6.34,7.63,9.11l-0.42,2.39
	c1.41,0.54,1.29,2.76-0.24,2.93c0.02,2.85-3.17,3.79-4.5,1.17c-0.61,0.61-1.36,1.18-2.24,1.73c-0.09,2.99-3.01,3.74-4.48,1.15
	c-0.54,0.6-1.3,1.15-2.29,1.65l-0.12,2.11c-23.93,9.43-47.87,18.87-71.82,28.3l-1.78-1.36c-1.41-1.94-4.07-0.96-6.57-0.67
	l-97.11,11.21c-39.43,4.55-77.9,7-117.25,10.06l-26.77,2.08l-96.25,6.45l-33.78,2.12l-117.71,7.81c-9.09,0.6-17.29,1.76-25.8,1.18
	V799.68l65.78,2.38l40.59,0.96l53.17,1.97l34.01,0.89l32.66,0.98l59.06,1.98l31.19,0.85l52.54,1.93l33.84,0.98l35.52,1l57.34,1.97
	l36.7,0.91l28.05,0.87L600.89,818.99z"/>
<path class="st9" d="M1200,171.45v84.83l-2.36,2.53c-14.44,3.15-27.14,9.77-38.84,18.78c-77.23-20.8-170.7-26.16-242.63,12.96
	c-4.12,3.28-8.42,5.85-12.9,7.71c-0.19,0.82-1.21,1.47-3.04,1.95l-0.4,1.29C611.2,314.32,322.42,327.18,33.5,340.08l-2.62-2.03
	c-0.49,1.29-1.91,1.37-2.08-0.13c-3.03-0.85-2.04-2.66,0.73-3.61c48.03-5.49,96.02-11.26,143.97-17.3l1.06-3.16
	c14.34-9.38,30.02-10.65,47.07-9.4c51.61,0.75,102.96,2.07,154.06,3.97c10.31-0.03,16.54-2.04,23.69-10.1
	c6.48-5.63,14.81-7.55,23.25-7.22c13.61,1.95,26.95,2.25,40,0.9c23.39-13.21,43.52-23.17,71.51-26.62
	c31.81-0.21,63.41-1.29,95.05-4.08c4.2-2.37,8.19-5.5,11.98-9.38c23.57,3.27,46.97,6.49,70.19,9.66
	c36.04-36.08,94.7-43.35,143.77-40.47c28.59,2.72,57.08,6.33,85.48,10.83c27.41,3.93,53.29,6.27,80.56,1.1
	c3.04-0.58,5.99-3.13,7.56-5.7c1.97-6.39,5.35-10.61,10.15-12.66c31.66-2.9,62.98-5.06,93.98-6.49
	c14.96-0.73,28.27-6.35,39.25-16.63c7.69-7.39,15.86-14.17,24.51-20.33L1200,171.45z"/>
<path class="st10" d="M919.51,298.82c1.7,0.77,1.71,1.79,0.03,2.6c-1.35,3.14-8.77,3.56-10.16,0.31c-1.67,0.44-3.43,0.88-5.29,1.34
	l-3.4,2c-36.29,2.83-72.77,8.17-107.58,19.07c-21.69,2.14-42.94,6.39-63.75,12.75c-7.9,3.53-15.72,6.77-23.47,9.74l-60.62,6.62
	c-7.08,1.1-12,5.18-16.99,9.93c-28.67,9.54-61.89,14.19-92.26,17.06c-24.46-1.82-49.1-2.65-73.92-2.49
	c-42.69,4.58-84.78,8.56-126.25,11.95l-1.56-1.8c-5.15-0.53-11.48-0.35-16.32,1.53c0.14,2.88-5.2,3.04-5.85,0.34
	c-0.93-1.33-2.4-0.59-4.13,0.83c-0.02,3.01-4.44,2.94-4.53-0.01c-3.85-0.95-24.13,0.79-25.06,1.7c-0.24,0.23-0.63,0.31-1.06,0.35
	c-0.2,3.02-8.31,3.64-9.3,0.86c-2.57-1.24-5.36-0.17-7.81,0.87c-0.74,2.58-4.2,3.02-4.85,0.14c-15.02,0.09-29.97,0.9-44.85,2.41
	c-7.73,0.19-15.2,1.24-22.4,3.13c-0.33,2.48-7.95,2.65-8.52,0.07c-3.42-0.3-6.67,0-9.76,0.93c-0.37,1.64-3.73,1.77-3.8-0.08
	c-3.95-1.79-24.2-1.89-27.83-1.39l-9.84,1.37c-1.78,0.25-2.92,2.68-4.81,3.12c-2.59-1.3-4.84-0.45-7.32,0
	c-1.1,0.2-1.34-2.36-0.12-2.47c0.82-0.07,2.03,0.14,3.26-1.28c-6.57-3.81-14.6-2.29-22.4-2.05l-15.2,0.46
	c-6.08,0.18-11.35-0.53-17.57,0.53l-7.96,1.36c-3.51,0.6-7.97-1.79-11.31,0.2c-2.03,1.21-4.49,0.97-6.3,1.73
	c-4.43,1.84-7.04-0.19-11.11-0.8c-4.47-0.68-9.05-0.05-13.58-1.64c-4.7-1.65-9.42-1.6-13.97-1.73v-57.6
	c-0.26-2.87,4.97-2.91,5.58-0.2c2.75-0.44,5.41-0.98,7.98-1.63c-0.04-2.57,0.56-2.6,1.8-0.07c4.28-1.11,8.12-1.11,11.52-0.02
	c1.51,0.22,2.85-0.06,4-0.83c5.74,0.36,11.56-0.18,17.74-0.47l43.53-2.03l24.93-1.12l18.26-0.88l15.38-0.87l30.7-1.22l18.54-0.63
	l38.06-2.05l24.49-0.78l39.83-1.99l26-1.05l22.67-0.76l59.36-2.97l121.71-5.71l32.78-1.18l27.05-0.87l36.46-1.91l26.05-0.9
	l70.69-3.03l26.19-0.88l35.31-1.94l27.1-0.85l37.21-1.96l25.16-0.95l24.14-0.83c2.55-0.94,5.67-1.16,9.36-0.66l1.64-0.81
	C910.94,295.76,918.95,295.98,919.51,298.82z"/>
<path class="st11" d="M1200,136.86v34.59c-14.38,8-25.67,23.41-40.64,31.64c-9.74,5.36-20.35,6.74-31.41,7.35l-39.88,2.18
	c-16.47,0.9-32.51,1.55-48.84,3.94c-8.16,1.19-4.72,15.65-18.92,18.66c-16.26,3.44-32.08,3.4-48.86,2.01
	c-81.71-6.75-146.94-32.06-228.11,3.95c-12.02,5.33-22.16,12.15-31.26,22.01l-40.95-4.98l-29.46-4.55
	c-4.24,2.96-7.27,9.2-12.71,9.58l-46.46,3.21l-44.84,0.71c-15.49,0.25-29.07,4.42-43.09,10.55c-36.57,15.97-19.53,19.91-66.32,15.64
	c-11.66-1.06-21.23-0.23-29.78,8.42c-11.3,11.43-20.24,8.33-39.03,7.78l-26.7-0.78l-43.21-1.05l-50.86-0.99
	c-12.44-0.24-24.49-0.69-37.05-0.31c-9.21,0.28-17.79,4.71-25.68,8.55c-0.31,0.96-0.12,2.66-0.55,3.06
	c-0.74,0.69-1.81,1.12-3.45,1.32l-141,16.84c-1.09,0.13-1.71-0.25-2.09,0.36c-0.21,0.33-0.08,0.98-0.04,1.38
	c0.07,1.48-1.2,1.11-1.92,0l-11.52,0.98l-1.8,0.07l-0.51,0.78c-2.8-0.25-5.29,0.03-7.46,0.85l-5.58,0.2V336l0.19-1.28
	c14.37-2.75,28.72-6.17,43.05-10.26c7.35-5.18,13.92-7.16,22.93-8.99c25.78-5.25,51.82-8.17,78.01-10.59
	c-4.11-8.61,4.78-11.65,11.78-13.64c22.04-6.28,54.37-7.69,77.66-8.53c32.97-1.18,67.1-1.47,100.56-0.4c2.15,0,4.26-0.23,6.36-0.65
	c1.97-0.39,13.67-6.54,14.59-7.52c-5.37-5.44-6.58-10.33-3.63-14.66c5.3-4.12,11.34-6.94,18.12-8.46c2.31-0.26,4.54-1.1,7.1-2.06
	c28.53-10.73,40.26-10.54,70.81-9.29l17.85,0.73l32.01,2.54c45.61,3.61,55.16-2.77,94.5-3.45l29.8-0.52
	c3.76-3.41,7.8-5.45,12.15-7.46l42.01-19.44c35.71-16.53,73.32-25.75,112.72-27.43c41.74-1.78,82.61,2.17,123.43,11.16l51.31,11.29
	c4.42,0.97,6.73-0.02,10.05-2.88c14.71-12.66,32.94-21.52,52.18-25.17c11.93-2.26,51.57,3.48,66.04,5.17
	c3.92,0.46,10.11,2.84,13.32,0.17l29.96-28.96l2.62-2.47l13.38-8c1.17-1.03,2.57-1.93,4.2-2.71c1.55-0.01,3.01-0.77,4.49-1.12
	c0.72-0.72,1.78-1.3,3.21-1.74C1175.08,137.15,1187.49,136.46,1200,136.86z"/>
<path class="st12" d="M1200,555.02v58.9l-2.68,1.42c-20.36,1.61-40.48,4.6-60.38,8.99l-10.19,1.06
	c-45.71-0.77-92.26-0.93-139.63-0.49c-23.19,2.95-46.48,4.37-69.88,4.26c-5.64,0.31-4.75-11.95-4.22-16.27l1.91-1.35l-0.25-1.95
	c-5.58-6.54-11.14-13.08-16.68-19.62l0.56-1.32l-2.86-2.88c-0.4,0.77-0.68,0.67-0.84-0.22l-2.2-2.86c-0.22,0.87-0.5,0.84-0.83-0.02
	l-1.03-0.86c-0.09,0.76-0.31,1.5-0.86,2.06c-0.46,0.47-12.08-0.06-12.32-2.01c-4.71-0.66-8.66-0.42-11.88,0.72l-0.87,1.93
	c-13.28,0.08-26.57,0.16-39.86,0.24l-1.16-1.91l-6.06,0.03l-1.63,1.9c-4.16-0.43-8.02,0.08-11.6,1.54
	c-15.73,16.5-23.59,24.75-23.59,24.75l-2.32-0.38c-0.34,0.83-0.7,0.8-1.08-0.04c-1.67,0.08-3.39-0.74-5.15-2.46
	c-8.37-1.53-17.03-1.73-25.99-0.63c-0.94-1.08-1.21-1.21-1.66,0.36c-36.39-1.36-72.88-2.1-109.49-2.21
	c-4.75,0.08-24.33,3.34-26.63,5.7c1.07,3.84,0.34,5.9-2.19,6.17c1.24,1.14,0.09,1.52-1.66,1.37c-0.49-0.04-7-5.94-5.84-7.38
	l-2.69,1.48c-9.33-0.39-18.66-0.55-27.99-0.47c-2.07,4.11-5.82,7.12-9.24,9.5c2.37,1.63,2.27,2.71-0.38,3.84
	c-0.08,0.76-0.34,1.9-0.87,1.92c-12.43,0.65-27.62,0.74-40.04,0.2c-2.64,0.57-4.22-0.06-4.76-1.9c-3.26-0.49-3.26-9.41,0.46-9.17
	c0.18-0.61,0.4-1.12,0.75-1.22c2.03-0.63,4.21,2.52-1.15-0.41l-45.6-36.36l-55.55-3.83l-1.01-2c-0.84-0.27-0.83-0.59,0-0.96
	c-1.32-1.14-1.21-2.17,0.42-2.6c38.09-1.91,76.71-2.81,115.05-2.18c0.23,0,0.46,0.43,0.68,0.97c0.05-0.49,0.13-0.89,0.37-1.01
	c1.65-0.85,2.4,0.85,0.46,0.02c-0.33-0.14-0.56-0.53-0.76-0.98c-0.08,0.94-0.39,1.01-1.06,1.01l-62.13-0.07
	c-5.22,0.67-9.42-0.23-12.6-2.68c-0.64-0.26-1.37-0.28-2.18-0.05c-1.31,2.98-7.11,2.6-8.39-0.34c0.02-2.18-2.11-2.55-4.37-4.81
	c3.65-2.14,7.82-1.54,11.56-3.03l11.69-4.65c11.42-4.55,41.39,0.29,42.91-0.47c3.19-1.59,8.12-1.59,11.35,0.12
	c3.85,2.05,6.77-0.23,10.39-0.17c2.93,0.05,24.42,2.49,26.73,2.51l33.61,0.32c3.34-3.38,6.14-1.35,9.54-0.18
	c9.2,3.17,28.66-2.4,49.05,0.03c4.04,0.48,7.84-0.33,11.81-0.7c3.68-0.34,8.26,1.44,11.71-0.04c4.38-1.89,8.1-2.61,13.02-2.6
	l50.82,0.09l39.01,0.48c9.18,5.01,4.87-1.5,19.81,2.52c6.53,1.76,13.26-0.47,19.87-0.36c1.08,0.02,20.99,1.53,20.14,1.74
	c5.56-1.33,11-1.97,16.3,0.69c13.14-2.61,47.77,1.47,58.1-1.36c5.15-1.41,9.24-1.48,13.91-0.26c2.39,0.62,19.04-1.49,21.93,1.04
	c11.66-4.23,13.24-0.66,18.21-1.76c1.66-0.37,4.23,2.19,5.82,1.73c7.73-5.05,12.27,2.83,23.68-0.58c3.28-0.98,4.59-0.21,7.67-0.12
	l25.24,0.72c4.99,0.14,8.64,1.5,13.69,0.97c9.56-1.01,19.09,0.32,28.77,0.06c2.97-0.08,5.92-1.09,8.64-0.95
	c3.67,0.19,6.96,1.78,10.74-0.4l92.71-0.04C1183.47,556.8,1191.98,556.33,1200,555.02z"/>
<path class="st5" d="M450.03,494.6c1.06,0.49,2.17,0.96,3.36,1.41c1.13-2.89,7.01-2.43,8.18,0.26c1.44-0.34,2.54-0.1,3.32,0.73
	c0.67-3.21,7.69-2.55,8.33,0.43c2.01,0.47,2.36,1.06,1.03,1.78c-2.17,1.57-9.31,1.58-11.58-0.02c-2.28,0.2-2.26,0.86,0.06,2
	c5.88-2.09,12.84-0.98,19.04,0.16c2.06-1.18,3.46-0.97,4.21,0.63c2.65-1.68,10.56-2.02,12.04,1.03c1-0.25,2.08-0.2,3.25,0.14
	l2.79-1.59c24.14,0.3,47.68,2.42,71.32,6.08l1.59,2.09c0.05,0.43-0.9,1.26-1.85,1.24l-44.78-0.79l-41.31-0.93l-30.54-0.79
	l-52.98-1.04l-58.22-1.18L89.8,506.3l-72.6,0.84c7.66,1.18,14.6,0.53,21.94,2.84c10.6,2.25,20.04,6.71,30.06,11.66
	c18.16-1.48,35.7-0.02,53.63,2.13c7.9,0.95,13.55,2.94,20.36,6.84c22.91,13.12,50.63,13.43,76.64,11.49
	c43.17-3.22,38.76,7.36,52.33,7.62c12.18,0.23,24.09,1.69,35.84,3.09c0.14-1.97,1.89-1.9,2.16,0.16c1.51,0.65,3.14,0.52,4.76,0.68
	c0.07-2.75,2.25-2.42,2.64,0.25c1.13-0.27,2.81-0.26,3.25,0.87c0.56-0.81,1.25-1.58,2.23-1.85c2.04-0.57,13.62,1.22,14.71,3.84
	c1.51-0.33,2.6-0.08,3.28,0.76c0.16-0.74,0.5-1.83,1.04-1.83c6.85-0.03,24.51,1.49,30.97,3l1.21,2.05c0.88-0.37,1.91-0.35,2.31,0.61
	l1.15-1.88c0,0,8.25,0.43,24.76,1.28l1.84,1.9c3.95-0.18,8.05,1.95,11.64-0.03c1.83-1.72,5.83-1.75,6.6,0.87
	c5.98,1.1,12.16,0.65,18.23,0.78c2.74,0.06,5.66,0.48,8.39,0.34c0.62-0.5,1.49-0.44,2.18,0.05c4.47,0.53,9.29,0.71,14.31,0.79
	l43.42,0.69c5.26,0.08,13.74,0.36,18.06,0.25c2.54,0.4,2.39,1.31-0.07,1.98l-70.23,1.49l-29.66,0.53
	c-2.07,0.04-17.93,0.33-16.27,1.78c-0.74,1.33-3.2,1.62-4.07,0.28c-0.71,3.23-7.71,2.35-9.27-0.12c-0.54,2.61-1.74,2.39-2.95,0.04
	l-2.04,0.7c-127.69,1.95-255.59,4.52-383.7,7.71c-3.21,0.26-6.25,0.2-8.85-1.9V421.44l1.16-1.77c31.04,4.45,62.06,8.96,93.06,13.52
	l1.81,3.02c-3.51,1.72-7.63,2.13-12.37,1.24c15.07,1.48,30.3,2.03,45.7,1.62c33.53,1.19,67.86,3.32,98.3,18.72
	c22.02,14.88,45.08,22.44,71.73,20.7c16.25,1.6,32.36,4.04,48.34,7.31c2.8,2.73,6.02,4.23,9.64,4.49
	c7.26,3.84,15.64,4.65,24.14,4.92c0.26,0.01,0.11-1.82-0.59-2.53c0.52-2.45,8.86-2.21,11.38-2.14c17.89,1.16,35.89,1.84,53.98,2.03
	L450.03,494.6z"/>
<path class="st8" d="M1200,780.35v80.01c-4.01,0.22-7.65-0.37-12.25-0.82l-198.83-19.25c-23.41-2.27-46.07-7.72-69.02-5.9
	l-122.15,9.65l-110.61,10.16l-80.52,7.69c-4.74,0.45-9.07,2.12-13.42,0.82c-0.45-0.18-0.86-0.4-1.16-0.72
	c-1.49-1.6,8.73-9.21,10.48-10.21l2.2,0.72l2.08-1.95c0.09-3.33,3.24-5.78,6.48-4.87l2.16-1.86c-1.11-2.37,0.73-3.76,2.74-1.88
	c0.52-0.72,1.21-1.37,2.06-1.96c-0.61-1.64,0.72-3.45,3.98-5.45l4.23-14.15l2.23-0.75l1.41-1.9l60.98,1.79l-59.36-5.48l-0.97-2.02
	c-2.11-1.52-1.64-3.36-0.99-5.58c0.73-4.17,2.36-11.51,5.66-13.64c2.04,0.09,4.25,0.62,6.79,0.57l47.55-0.9l41.33-1.05l37.4-0.89
	l30.58-0.85l52.04-1.02l69.83-1.93l47.24-1l48.95-1.06l30.56-0.88l33.79-0.83l47.82-1.11l45.27-1L1200,780.35z"/>
<path class="st8" d="M1200,961.92v104.72l-89.69-4.46l-102.47-5.74l-30.54-2.06l-16.32-0.89c-14.15-0.77-27.3-1.62-41.37-4.15
	l-100.84-18.18l-70.13-13.26c-2.48-0.47-4.61-0.44-6.63-0.03c-0.22,0.83-0.88,1.88-1.5,1.67c-5.53-1.84-14.8-7.56-19.38-11.24
	l-0.31-2.45c-0.45-0.52,0.42-1.47,1.31-1.71l94.43-8.12l92.77-8.01l88.26-7.88l196.25-17.55
	C1196.42,962.36,1198.05,961.68,1200,961.92z"/>
<path class="st0" d="M792.98,660.51l2.07-1.86c5.04-0.21,10.07,0.07,15.09,0.84c0.09-0.75,0.32-1.86,0.87-1.92
	c4.09-0.47,21-0.71,24.64-0.02l1.41,1.92c1.42-0.32,1.57-0.16,0.45,0.48c14.62-1.04,29.22-1.23,43.8-0.57
	c0.39-2.61,1.26-2.45,1.89,0.07c4.32,0.62,8.88,0.54,13.7-0.25l0.64,0.98l1-1.13c0,0,8.63-0.48,25.89-1.45
	c-3.24-1.62-4.38-3.59-0.7-5.7c76.82,3.09,153.72,5.14,230.69,6.14c1.13,1.21,0.46,2.56-0.51,3.88
	c-56.96,2.62-114.18,4.29-171.67,5.03c-0.41,1.33-2.18,1.44-3.04,0.25c-1.32-0.2-1.32,0.12,0,0.96c0.97-0.41,2.11-0.47,3.06-0.24
	c0.71-1.74,2.89-1.74,2.87,0.38c1.86,0.6,1.79,1.77-0.17,2.02c-0.88,2.46-8.1,3.15-8.37,0.08c-1.73,0.7-3.8,0.93-6.23,0.69
	c-1.84,2.78-10.56,3.58-12.04,0.25c-2.25,0.43-4.66,0.88-7.2,1.33l-4.12,1.98l-123.52,3.94c-12.97-4.85-26.18-7.41-39.65-7.68
	c-29.35,2.06-58.81,2.59-88.37,1.58l-0.23-2.4c-0.34-0.61-0.57-1.13-0.41-1.34c0.59-0.77,6.96-5.27,2.92-1.85
	c-0.87,0.73-1.96,1.42-2.93,2.03c-2.28,1.42-7.17,4.39-9.32,3.05l-3.46,1.29c-19.7-0.84-39.48-1.3-59.33-1.36l44.69,7.53
	c3.61,0.2,6.05,1.53,7.34,4l-0.16,3.03c-10.63,11.19-15.95,16.78-15.95,16.78c4.24,3.06,4.93,5.69,2.08,7.88
	c-6.46,1.21-12.79,2.69-18.99,4.44l4.81,18.95l-1.52,1.8l-0.17,1.28c-214.5,0.37-429.06-0.37-643.68-2.21l-1.12-1.93v-12.48
	l0.86-1.93l346.99-4.05l-25.1-2.65l-4.78-2.17c-1.07-0.41-2.19-0.86-3.36-1.35c-0.06,0.74-0.32,1.86-0.8,1.86
	c-6.16,0.07-24.9-1-30.35-2.39l-0.98-2c-0.82-0.52-1.33-0.8-2.35-0.72c-0.16,0.73-0.49,1.81-1.03,1.83
	c-3.41,0.1-10.46-0.79-14.03-1.38c-3.56,0.32-5.76-0.54-6.6-2.58c-1.12-0.45-2.24-0.89-3.37-1.34c-0.06,0.74-0.32,1.86-0.8,1.86
	c-6.01,0.06-25.15-1-30.35-2.38l-0.98-2c-1.18-0.49-2.31-0.93-3.38-1.31c-1.27,2.34-3.25,2.12-5.6,1.82
	c-4.49-0.09-12.05-0.5-15.05-3.35c-1.37-0.46-2.81-0.91-4.3-1.37c-0.67,3.29-7.96,2.68-8.54-0.45c-3.07-0.51-2.49-1.57,0.23-2.54
	c0.09-2.93,2.72-2.79,3.6-0.13c1.25,0.02,2.35-0.24,3.28-0.76l3.26-2.04c4.06-0.71,23.21-3.11,25.23-2.2
	c0.64,0.29,1.23,0.69,1.8,1.13c0.91,0.1,1.67-0.19,2.29-0.86l2.54-2l14.44-1.61l2.84,1.62c0.9,0.13,1.68-0.12,2.32-0.75
	c1.41-0.96,2.92-1.89,4.63-2.16c5.3-0.84,22.34-3.02,26.08-1.95c0.86,0.25,1.68,0.62,2.5,1.03c1.26,0.06,2.34-0.2,3.24-0.8
	l2.51-1.98l15.5-1.74l2.78,1.67c1.28,0.09,2.36-0.17,3.24-0.8c0.01-0.75,0.13-1.9,0.65-2c4.37-0.8,25.85-3.5,29.03-2.99l1.58,1.77
	c0.92,0.19,1.68-0.06,2.28-0.75c-0.35-2.79,2.75-2.76,3.4-0.09c2.93-0.47,3,7.29,0.19,7.84l-1.07,2.08l-12.94,4.01
	c-10.79,0.6-21.39,1.65-31.81,3.15c-0.22,0.47-0.48,0.9-0.84,1.2c-1.25,1.04,27.92,5.59,30.77,5.96
	c66.53,5.5,132.64,11.8,198.32,18.91c6.87-1.91,13.52-4.8,19.95-8.67c6.2-3.14,12.72-4.66,19.67-3.69l-33.13-13.39
	c-3.28-0.44-5.67-1.48-7.17-3.13c-3.67-0.89-7.87-1.51-12.59-1.86l-1.04-2.07c-0.83,0.06-1.38-0.3-1.92-0.87
	c-0.76-0.82-0.15-19.83,0.06-22.3l1.92-1.4c0.3-0.84,0.65-0.83,1.06-0.01l0.55-1.95c56.95-2.43,114.04-3.97,171.27-4.62l13.22-2.24
	c1.87-0.17,3.17,0.35,3.92,1.56c-2.4,4.53,0.7,5.2,1.72,0.44c23.7-0.99,47.47-1.98,71.31-2.96c4.25-0.01,4.38,8.17-0.19,8.63
	l12.86,0.38C789.43,658.96,790.62,659.47,792.98,660.51z"/>
<path class="st11" d="M1200,256.27v34.3c-3.44-0.13-6.33,1.76-9.62,3.17c-6.23,2.67-12.27,4.48-18.64,7.99
	c-84.82-20.76-173.22-23.84-254.71,11.27c-26.73,11.52-49.9,26.64-71.47,45.72c-9.39,4.46-21,4.82-31.31,5.32
	c-60.31,2.92-127.5,10.76-185,30.17l-61.28,0.82l-53.98,0.97l-49.9,1.04l-37.27,0.82l-50.88,0.98l-59.64,1.07l-33.48,0.91
	l-39.34,0.92L206,402.72c-13.58,0.35-26.75,0.44-39.91,0.48l-0.03-2.22c1.05,0.47,2.67-0.02,3.8,0.08c3.04-1.06,6.29-1.37,9.76-0.93
	c2.52,0.81,5.92,0.13,8.52-0.07c0.9-0.9,2.15-1.36,3.75-1.38c21.12-2.43,42.29-3.82,63.5-4.17c1.3,0.25,3.59-0.53,4.85-0.14
	c1.91-1.39,5.84-2.01,7.81-0.87l9.3-0.86c0.05-0.32,0.14-0.61,0.32-0.82c0.87-0.97,22.9-1.68,25.8-1.24c1.51,0.21,3.1,0.3,4.53,0.01
	c0.99-1.25,3.33-2.46,4.13-0.83l5.85-0.34c5.07-1.84,10.96-2.03,16.32-1.53l35.28-2.95l31.72-2.93c12.6-1.16,24.82-2.19,37.26-4.11
	c17.06-2.63,39.32-2.71,56.77-1.81l23.15,1.19c9.6,0.49,18.85,1.8,28.37,0.44c24.42-3.49,47.95-7.96,72.04-13.2
	c3.83-0.83,7.98-1.95,10.54-4.8c9.33-10.38,22.95-9.06,36.71-10.57l37.35-4.11c6.78-0.75,9.26-3.37,14.81-5.83
	c19.8-8.77,41.72-12.82,63.25-15.22c8.51-0.95,15.13-2.35,23.16-4.93c22.01-7.07,44.74-10.43,67.8-12.99
	c11.02-1.22,21.15-2.95,31.58-3c1.73-0.49,3.49-0.93,5.29-1.34c3.39,0.36,6.81-0.05,10.16-0.31l0.54-1.1
	c1.89,0.49,1.7-0.01-0.56-1.49l-8.28-0.1c-2.21,1.33-6.24,1.45-7.96-0.47c0.27-2.21,2.57-2.84,4.3-4.17
	c8.29-6.36,17.07-10.5,26.72-14.62c63.96-27.34,158.12-23.89,224.24-3.63C1171.72,264.81,1184.33,259.84,1200,256.27z"/>
<path class="st8" d="M1200,632.72v72.09l-88.94-0.62l-133.19-1.1l-103.83-0.8l-60.98-0.59c-32.16-0.31-63.17-6.6-94.9-11.51
	l-29.21-4.51c-0.65-0.1-1.17-0.67-1.42-0.95c-0.21-0.23-0.13-0.74-0.01-1.11c-0.3-1.85,0.51-3.87,2.42-6.07
	c-0.15-6.63,1.61-9.12,5.27-7.46c1.28,1.34,3.42,0.87,5.61,0.85l61.57-0.31l19.95-1.56c14.28-1.11,27.72,3.52,41.41,7.63l76.08-2.35
	l30.01-0.95c7.33-0.23,14.34-0.72,21.26-0.74c2.28-0.43,4.68-0.88,7.2-1.33c4.01,0.47,8.02-0.49,12.04-0.25
	c2.44,0.16,4.52-0.07,6.23-0.69c2.79,0.31,5.59-0.67,8.37-0.08c1.17-0.26,1.23-0.93,0.17-2.02c-0.84-0.24-2.03-0.46-2.87-0.38
	c-0.85-0.25-0.84-0.57-0.03-0.97c0.48-1.22,1.94-1.71,3.63-1.73c11.28-0.11,22.09-0.22,33.26-0.56l28.62-0.87l35.72-1l47.71-1.98
	l23.77-0.86l-39.42-0.61c-6.52-0.1-12.69-0.8-19.23-0.89l-37.85-0.49l-55.76-0.96l-22.39-0.78l-57.56-2.46
	c1.6,2.81,5.04,1.59,6.23,4.96c-5.45,1.66-10.72,0.23-16.02,0.99c-5.43,0.78-10.43,0.35-15.43,0.45c-1.84-0.49-1.89-1.36-0.12-2.06
	l1.34-2.19l14.15-4.67l0.28-18.24c1.85-1.5,2.78-2.25,2.78-2.25l282.81,0.02L1200,632.72z"/>
<path class="st10" d="M369.63,251.01c-2.11,2.67-17.04,7.35-18.06,11.82c-1.19,5.21,9.37,11.54,4.24,13.1
	c-4.34,1.32-7.21,4.74-10.81,6.31c-8.13,3.53-17.65,1.29-26.24,1.24c-13.28-0.09-25.86-0.08-39,0.19l-46.05,0.95l-28.88,1.82
	c-8.4,0.53-57.72,4.17-59.66,13.06c-0.86,2.36,1.82,4.32,1.73,7c-32.93,3.58-56.87,5.12-89.38,12.91c-5.46,1.31-8.73,4.43-13.46,6.8
	c-4.04,2.02-38.02,9.77-44.05,9.8v-87.36c12.86-1.53,3.91-0.57,15.78,3.91c6.7-6.39,18-2.19,26.39-2.97
	c4.51-0.42,7.46-0.86,11.8,0.55c-0.72-0.23,16.03-0.71,13.88-1.45c5.35,1.83,10.36,1.23,15.52-0.24c9.1-2.59,14.88,3.82,25.25,0.28
	c4.09-1.39,26.88,0.95,39-0.62c4.19-0.54,7-0.29,11.08,0.05c19,1.55,36.59-0.53,56.34-0.08c4.55,0.1,9.13-1.38,13.64,0.54
	c6.98-2.11,13.76,0.11,20.81-0.09l5.93-0.17l42.11,0.56c12.94,0.17,29.42-1.19,41.91,0.31c5.73,0.69,11.25,4.2,17.09,1.28
	C361.08,252.37,365.4,251.5,369.63,251.01z"/>
<path class="st8" d="M345.07,664.36c2.75,2.04,3.03,7.5,0.25,9.6l-3.4,0.09c-0.23,1.07-1.32,1.08-2.28,0.75l-31.26,3.22
	c-0.67,0.79-1.75,1.06-3.24,0.8c-6.88,0.51-13.87,2.06-20.79,2.05c-0.6,0.82-1.68,1.09-3.24,0.8c-11.01,1.1-22.13,2.67-33.21,3.08
	c-0.42,0.92-1.42,0.9-2.32,0.75c-6.51,0.65-13.24,1.94-19.81,2c-0.26,1.03-1.35,1.1-2.29,0.86c-10.05,0.79-20.2,2.96-30.3,3.11
	c-0.64,0.81-1.73,1.06-3.28,0.76c-1.11,0.12-2.52-0.16-3.6,0.13c-0.16,0.72-0.34,1.3-0.64,1.36c-9.47,1.94-8.33-1.03-0.32,0
	c0.29,0.04,0.52,0.55,0.73,1.19c2.84,0.3,5.7,0.85,8.54,0.45c1.19,0.26,2.62,0.72,4.3,1.37c6.92,0.08,13.7,1.89,20.65,1.53
	c1.27,0.37,2.4,0.81,3.38,1.31l32.13,2.52c1.18,0.34,2.3,0.78,3.37,1.34l21.66,2.14c0.92-0.16,1.92-0.24,2.35,0.72l32.13,2.53
	c1.16,0.33,2.28,0.78,3.36,1.35c8.16,0.32,16.39,1.2,24.87,2.14l31.39,4.28l-80.1,0.98l-108.43,1.15l-70.9,0.89l-61.6,0.76
	l-53.19,0.59v-64.32l5.13-1.57c112.51,2.18,224.76,4.66,336.74,7.44L345.07,664.36z"/>
<path class="st12" d="M394.6,572.36l0.51,2.05l-51.46,41.13c2.22-0.15,2.91,0.81,1.95,2.87c3.69-0.49,1.82,6.33-0.73,7.35
	c-0.06,0.74-0.33,1.88-0.79,1.86c-12.44-0.39-28.07-1.49-40.35-3.16c-3.49,0.38-5.56-0.43-6.21-2.41l-1.87,1.17
	c-2.72-2.48-5.61-4.59-8.69-6.31c-6.09-0.09-12.09-0.58-18-1.47c0.3,3-4.06,6.33-6.79,4.81l-2.86,1.59
	c-14.03-0.2-28.35-1.22-41.26-7.16c-12.85-3.61-35.75-8.15-49.29-8.93c-17.5-1.01-31.03,0.54-48.31,5.7
	c-41.32,7.33-79.6,4.75-119.22,0.18l-1.21-2.05v-30.72c8.08,0.11,16.11-0.2,24.68-0.42l68.99-1.82l53.6-1.06l60.69-0.97l83.28-1.87
	l68.31-1.07l32.24-0.53C393.14,571.12,393.94,571.87,394.6,572.36z"/>
<path class="st8" d="M644.99,736.3c2.85,0.01,2.59,1.73,0.29,2.89l-26.81,1.33l-30.36,1.12l-27.1,0.89l-45.84,1.99l-31.92,0.86
	l-46.63,2l-30.92,0.96l-29.98,0.91l-54.28,2.03l-30.2,0.87l-30.9,0.9l-53.29,2.02l-29.18,0.95l-132.26,4.66l-33.16,0.84
	c-4.36,0.11-8.47,1-12.45,0.71v-28.8l46.59,0.36l198.72,1.14l120.49,0.6l184.4,0.51L644.99,736.3z"/>
<path class="st11" d="M262.78,451.51c0.92,0.36,1.71,0.85,2.36,1.47c7.39-0.78,55.51,12.88,65.73,17.72
	c1.49,1.04,1.16,3.77,2.37,5.42l26.38,6.15c6.56,1.53,13.04,2.21,19.34,2.83c0.94,0.34,1.72,0.85,2.33,1.53l4.47,0.18
	c1.87-0.48,3.25-0.25,4.15,0.67l1.76,0.13c14.21,2.39,28.95,1.88,43.23,0.14l1.77-0.2c0.98-1.3,13.45-1.18,14.04-0.76
	c0.28,0.2,0.46,0.53,0.62,0.91c1.68,0.02,3.79,0.63,5.42,0.19c-0.61,0.6-0.1,1,0.19,1.23c-0.97-0.79,25.96,3.74,25.57,8.71
	c-2.37,2.04-6.78,1.22-9.29-0.4c-2.78-0.13-5.54-0.76-8.33-0.43c-1.02-0.59-2.12-0.83-3.32-0.73c-2.67,0.2-5.52-0.32-8.18-0.26
	c-1.17-0.33-2.28-0.8-3.36-1.41c-5.69-0.08-11.44-0.53-17.53-0.71l-25.85-0.8c-8.45-0.26-16.63-1.35-25.24,0.18l31.5,4.71
	c-16.08,0.41-31.49-0.45-47.15-2.47c-4.19-0.54-7.9-3.93-11.96-3.88c-3.51,0.04-4.6-3.39-6.71-4.01
	c-12.67-3.73-25.71-3.91-38.64-5.96c-6.31-1-12.12-1.8-18.53-1.51c-20,0.91-38.37-5.45-54.96-15.98
	c-24.16-15.33-56.85-20.87-84.93-22.12c-10.19-0.45-19.82-1.28-30-1.21c-9.79,0.07-26.61,0.25-35.58-1.31l-41.46-7.2
	c17.07-1.19,36.02,4.44,52.42,3.33c-6.84-2.75-13.56-2.34-20.8-3.39l-74.6-10.83v-19.2c13.01-0.94,25.83,1.44,38.02,7.09l18.49,8.57
	c27.18,12.61,33.15,11.2,62.56,5.74l12.42-2.31c27.62-5.13,51.6-0.37,77.51,10.05c7.83,2.85,15.81,5.87,22.11,11.42
	c3.09,2.73,5.44,4.88,9.93,5.53L262.78,451.51z"/>
<path class="st0" d="M282.24,638.23c0.06-2.9,6.16-2.66,6.6,0.12c0.45-2.65,4.19-2.64,5-0.22c0.25-2.86,2.41-2.52,2.74,0.2
	c15.72,0.69,31.42,1.02,47.1,0.99l1.39,1.93c3.1,6.84,3.25,16.33,0.01,23.12c-7.97,0.34-15.91-0.62-24.43-0.75l-57.17-0.86
	l-25.02-0.82l-33.4-0.87l-51.1-1.06l-56.61-1l-54.13-1.3c-14.83-0.36-29.01,0.12-43.21-1.06v-12.48l0.62-1.93l223.61-1.72
	c10-0.06,19.74-1.15,29.24-3.28c5.04,1.14,9.89,1.55,14.54,1.24C271.45,636.58,278.76,636.47,282.24,638.23z"/>
<path class="st13" d="M914.93,611.52l0.09,15.7c9.99,0.01,19.6,0.25,29.59-0.46l14.51-1.03c11.49-0.82,22.32-2.7,33.94-3.1
	c23.56-0.81,46.59-0.32,70.23,0.05l56.04,0.88c7.99,0.13,15.32-0.45,23.01-2.3c19.16-4.63,38.39-6.43,57.66-7.35v18.81l-284.93-0.02
	l-0.25,20.24c-6.09,1.23-11.55,4.36-17.4,5.18c-0.28,0.59-0.59,1.06-0.95,1.12c-4.13,0.63-9.23,0.98-13.27,0.2
	c-0.61-0.03-1.3-0.17-1.89-0.07l-13.44-0.72l-1.86-1.82c-1.88-0.11-2.7-1.8-2.47-5.09l-0.43-38.71l1.9-1.43
	c0.88-3.23,3.03-6.11,6.45-8.64c5.83-7.33,12.33-13.8,19.52-19.42c8.1,7.89,16.74,16.52,23.69,26.01
	C915.02,610.03,915.02,610.74,914.93,611.52z"/>
<path class="st13" d="M262.15,620.26c1.12,1.3,1.04,3.11-0.25,5.43c-0.06,3.19-1,5.5-2.84,6.94l-0.67,1.92
	c-85.72,0-171.45,0.01-257.2,0.01l-1.19-1.92V609.6l30.74,3.02l22.87,1.5c28.35,1.86,56-1.41,83.6-8.37
	c10.78-2.71,20.9-3.55,31.8-1.89l28.19,4.3c11.88,1.81,23.12,4.4,33.99,9.58C242.74,619.4,251.36,618.84,262.15,620.26z"/>
<path class="st8" d="M259.07,632.63c1.43-0.06,2.12,0.36,1.92,1.67c3.86,0.22,6.21,1.61,7.05,4.18c1.83,2.81-8.56,1.85-9.22,1.59
	c-6.47-2.56-12.05,0.99-18.04,1.52c-14.28,1.27-28.01,0.84-42.55,0.95l-132.46,1.09l-24.13-0.06l-41.63,0.59v-11.52L259.07,632.63z"
	/>
<path class="st4" d="M506.01,909.99l0.2,12.34c0.79,3.72,1.09,7.64,0.89,11.76c1.25,1.99-0.02,5.4,0.63,7.54
	c-0.33,5.85-0.01,10.75,0.95,14.68l0.09,5.41l0.21,7.01l0.71,6.46l0.19,6.06c0.52,2.2,0.34,5.07,0.16,7.32
	c0.44,4.59,0.9,9.21,1.38,13.88c-0.09,2.07-0.34,5.37,0.18,7.31c-0.38,4.29-0.08,8.24,0.9,11.84l0.12,7.31l0.13,4.19l0.15,4.45
	c0.49,4.24,0.95,8.55,1.37,12.94c-0.06,1.92-0.63,5.55,0.19,7.29c-0.36,5.3-0.08,9.88,0.85,13.77l0.18,6.34l0.22,7.97
	c1.21,1.69-0.09,4.73,0.69,6.47c-0.24,3.47-0.09,6.51,3.16,7.64c1.33,0.17,3.09,0.87,4.45,1.26l2.26,1.69
	c1.27,0.06,2.42,0.64,3.58,1.09c1.66,1.02,3.34,1.94,5.05,2.75c1.59,0.25,3.11,1.16,4.7,1.28c4.2,1.6-2.11,5.7-4.72,5.42
	c-9.15,3.83-17.8,8.67-27.15,13.46l-104.03,53.29l-140.9,72.12l-96.97,49.82c-2.2,1.19-3.05,1.07-2.55-0.36l41.31-31.68
	l204.29-157.35l69.53-53.45l-77.56-23.28l84.94-104.77l1.89-2.08c0.16-1.05,1.3-1.79,1.9-2.7l1.96-2.05l10.71-13.52
	C504.27,908.31,505.52,908.01,506.01,909.99z"/>
<path class="st4" d="M1155.51,1584.81c-0.09,0.38-0.23,0.8-0.51,0.85c-0.42,0.08-1.04,0.05-1.8-0.3l-107.84-49.33l-98.74-45.02
	l-67.13-55.1l-84.22-70.09c-2.71-2.26-4.92-4.74-7.83-5.52c-6.37-7.58-14.64-13.17-22.55-20.07l-66.65-58.06l-105.8-92.85
	c-0.52-0.76-0.24-1.01,0.74-0.81l293.76,207.45l154.74,109.19L1155.51,1584.81z"/>
<path class="st4" d="M544.07,1110.09l65.28,27.01l101.79,43.03l40.27,17.46l-155.05-31.27l-29.18-5.81l-149.13,106.02l-97.51,68.04
	c-1.65,1.39-2.2,0.85-0.92-0.95l59.65-60.58l58.34-58.71c1.22-0.32,1.71-0.78,2.01-2.01l56.72-57.41l1.99-1.99l21.97-21.98l2.01-2
	c4.81-4.69,10.25-9.06,14.28-14.43C537.51,1112.37,541.3,1108.77,544.07,1110.09z"/>
<path class="st4" d="M637.39,792.82c-1.27,6.46-4.03,12.59-4.67,19.21c2.92,1.09,1.01,7.35-2.05,7.6l-4.51,15.16
	c-0.76,2.57-4.27,3.68-5.92,5.2c-0.56,0.68-1.25,1.33-2.06,1.96c-0.97,0.38-1.72,1.62-2.74,1.88c-0.42,0.82-1.14,1.44-2.16,1.86
	c-2.11,1.68-4.21,3.4-6.48,4.87l-2.08,1.95l-8.65,6.72c-1.35,1.05-2.73,2.02-2.88,3.48c-4.02,1.67-6.83,4.42-11.67,9.11
	l191.48,97.59c4.3,2.19,9.05,3.54,10.63,7.16c-0.41,1.26-1.92,1-2.41-0.02l-115.94-44.49l-118.22-44.98l-35.19,8.59l-70,16.59
	L328.07,939.4c-1.66,0.12-2.21,0.09-1.48-1.53l49.04-15.89l142.48-46.4l3.16-1.9l73.72-29.05c0.68-0.52,1.44-1.07,2.29-1.65
	c1.53-0.2,3.02-0.67,4.48-1.15c0.62-0.63,1.37-1.21,2.24-1.73c1.54-0.23,2.99-0.82,4.5-1.17c1.12-0.75,1.2-1.73,0.24-2.93
	c-3.19-3.59-7.55-7.42-9.55-11.87c0.9-1.66,2.97-3.51,1.71-5.12c3.55,0.14,7.39-5.48,8-7.82l0.02-2.26
	c4.21-4.36,8.2-8.83,11.99-13.41l1.39,0.27l18.57-20.52L637.39,792.82z"/>
<path class="st4" d="M665.24,972.51c1.43,0.92,2.75,1.87,3.95,2.86c0.88,0.16,1.69,1,2.62,1.08c0.84,0.41,1.76,1.06,2.21,1.79
	l46.79,27.61c4.2,2.48,16.78,11.71,21.2,12.02l106.16,65.65l205.18,125.72c-9.27-2-16.84-6.47-25.44-10.39l-135.7-61.83
	c-30.6-13.94-61.14-26.29-90.67-42.01c-11.34-6.03-20.17-16.99-29.87-25.51l-69.44-60.99c-13.98-12.28-27.98-23.55-40.84-36.22
	c-0.39-0.99-0.09-1.28,0.89-0.86C663.32,971.5,664.24,972.36,665.24,972.51z"/>
<path class="st3" d="M326.59,937.87c0.4,0.59,0.91,1.1,1.48,1.53c-8.08,1.93-16.16,6.33-24.77,5.95
	C311.14,941.1,319.21,940.26,326.59,937.87z"/>
<path class="st3" d="M788.36,979.56c-0.41-0.85,0.17-1.28,1.73-1.28c5.01,1.87,9.69,3.5,13.78,7.11
	C797.97,984.95,793.06,982.14,788.36,979.56z"/>
<path class="st3" d="M163.28,1301.77c0.6,0.84,1.68,0.61,2.55,0.36c-4,2.06-7,6.6-12.15,6.88
	C155.66,1304.52,160.64,1303.79,163.28,1301.77z"/>
<path class="st14" d="M319.61,1333.63c-0.13,0.64,0.37,0.92,0.92,0.95c0.9,1.69-10.61,8.8-11.25,9.16
	C312.36,1339.34,315.46,1335.48,319.61,1333.63z"/>
<path class="st3" d="M593.18,1188.52c-0.27,0.25-0.52,0.52-0.74,0.81c-3.3-2.9-8.47-4.32-10.57-9.05
	C587.15,1181.23,589.69,1186.06,593.18,1188.52z"/>
<path class="st14" d="M544.07,1110.09c-2.77,1.07-4.4,3.91-7.48,4.42c-0.38-0.59-1.02-0.92-1.7-1.06c0.97-2.5,5.06-1.9,4.72-5.42
	C541.39,1108.16,542.61,1109.48,544.07,1110.09z"/>
<path class="st3" d="M662.27,971.44c-0.39,0.17-0.71,0.47-0.89,0.86c-2.51-2.01-6.45-3.08-8.46-7.1
	C656.75,966.09,660.12,968.53,662.27,971.44z"/>
<path class="st14" d="M508.68,956.31c-2.91,4.42-1.91-17.77-0.95-14.68c0.39,0.72,1.22,1.49,1.19,2.91L508.68,956.31z"/>
<path class="st14" d="M515.3,1071.54c-2.76,3.84-1.84-16.63-0.85-13.77C516.43,1062,515.17,1066.84,515.3,1071.54z"/>
<path class="st14" d="M511.43,1002.45c-2.82,2.7-1.44-13.19-1.38-13.88C512.83,985.91,511.46,1001.61,511.43,1002.45z"/>
<path class="st14" d="M514.27,1050.48c-2.78,2.47-1.34-12.2-1.37-12.94C515.78,1035.15,514.29,1049.65,514.27,1050.48z"/>
<path class="st14" d="M512.5,1021.6c-2.92,3.22-1.89-14.17-0.9-11.84C513.56,1013.36,512.43,1017.52,512.5,1021.6z"/>
<path class="st14" d="M507.1,934.09c-2.17-3.44-0.83-7.69-0.89-11.76C508.77,919.18,508.07,936.37,507.1,934.09z"/>
<path class="st14" d="M519.56,1099.96c-0.61-0.08-2,0.69-2.69-0.17c-1.72-2.12-2.06-5.6-0.47-7.47
	C517.61,1094.98,517.5,1097.92,519.56,1099.96z"/>
<path class="st14" d="M515.71,1085.85c-1.62-2.26-1.95-5.59-0.22-7.97C517.04,1080.14,517.1,1083.57,515.71,1085.85z"/>
<path class="st14" d="M508.98,968.74c-1.53-1.95-1.96-5-0.21-7.01C510.22,963.68,510.44,966.81,508.98,968.74z"/>
<path class="st14" d="M506.01,909.99c-1.32-0.12-2.74-0.05-3.75,0.89c0.59-0.75,1.02-1.68,1.67-2.81c0.52-0.91,1.86-0.95,2.54-0.26
	C506.86,908.23,506,909.32,506.01,909.99z"/>
<path class="st14" d="M509.88,981.26c-0.8-1.83-2.29-4.31-0.19-6.06C510.78,976.96,511.67,979.56,509.88,981.26z"/>
<path class="st14" d="M534.9,1106.74c-1.96-0.3-5.2-0.23-5.05-2.75C531.63,1104.69,534.97,1104.28,534.9,1106.74z"/>
<path class="st14" d="M669.19,975.37c-1.71-0.31-4.32-0.68-3.95-2.86C667.02,972.78,669.42,973.15,669.19,975.37z"/>
<path class="st4" d="M790.1,978.28c0.33,0.95-1.12,1.06-1.73,1.28c-1.36-0.18-1.94-0.34-2.58-0.34c-0.44,0-0.99-1.46-0.26-1.71
	C787.02,976.99,788.84,977.81,790.1,978.28z"/>
<path class="st14" d="M512.75,1033.1c-0.92,0.14-1.03-1.08-1.07-1.61c-0.08-0.95-0.08-2.34,0.95-2.58
	C513.25,1030.16,514.38,1031.84,512.75,1033.1z"/>
<path class="st10" d="M1155.07,142.24c0.18,2.39-2.76,1.85-4.2,2.71C1150.76,142.71,1153.24,142.25,1155.07,142.24z"/>
<path class="st3" d="M695.22,670.09c-6.8,1.48,1.28,6.45-7.69,13.53c-6.82,5.38-13.03,11.61-19.85,17.77l8.65,4.4l-22.48,19.48
	l25.56,18.93c-2.71,2.76-24.75,7.08-20.64,10.04c-1.37,2.24-5.45,4.58-7.64,2.44c-2.94-4.25-3.13-11.83-5.86-17.49
	c-0.36-0.74-0.08-2.06-0.29-2.89l-5.73-22.55l21.85-4.69c-1.45-3.45-3.76-3.44-5.29-5.21c1.5-2.62,3.77-4.05,5.75-5.83
	c5.06-4.55,8.83-9.99,13.16-14.59c-0.48-0.58-1.13-1.47-0.83-1.93c2.18-3.19,7.8-9.32,11.59-9.53c3.19-3.4,10.07-3.6,13.75-6.7
	C698.34,667.73,696.46,668.48,695.22,670.09z"/>
<path class="st8" d="M622.29,795.77l-5.42,7.36c-2.2,2.99-4.81,6.33-7.98,8.04c-2.64-2.11-6.16-1.52-9.86-1.87l-71.01-6.82
	c-16.58-1.59-32.15-1.86-48.83-4.59c12.37-2.1,23.78-1.07,35.96-1.33l51.64-1.13l52.42-0.8
	C620.48,794.61,622.58,794.55,622.29,795.77z"/>
<path class="st14" d="M651.14,756.68c3.02-0.96,4.91-3.08,7.64-2.44c4.81,0.44,11.32-0.74,15.71,1.54
	c6.36,6.02,11.14,13.4,16.73,20.53l-37.64-10.78c-7-2.01-52.13,7.9-63.33,7.05c6.24-2.48,12.63-3.17,19.41-4.45l37.16-6.97
	c1.58-0.3,3.04-0.4,3.81-1.66C651.1,758.74,651.19,757.67,651.14,756.68z"/>
<path class="st11" d="M163.21,403.21l-5.76,0.04C158.93,401.85,161.97,401.39,163.21,403.21z"/>
<path class="st7" d="M434.89,487.75c-2.46,3.15-41.93,4.35-43.23-0.14c2.55-1.89,5.71-0.12,8.86-0.06
	c9.23,0.2,18.23,0.38,27.47,0.04C430.51,487.5,433.01,485.95,434.89,487.75z"/>
<path class="st7" d="M451.32,487.69l-14.66-0.15c-0.54-0.61,0.14-1.76,1.1-1.76l12.45-0.02
	C451.31,485.77,451.85,487.19,451.32,487.69z"/>
<path class="st7" d="M389.9,487.48c-1.34-0.1-3.35,0.72-4.15-0.67c0.75,0.03,1.41-1.41,2.53-1.19
	C389.2,485.8,390.6,486.14,389.9,487.48z"/>
<path class="st12" d="M404.28,562.64c-4.05,0.19-8.12-0.62-12.59-0.78l-15.16-0.52c-0.7-0.52-1.47-0.73-2.31-0.61l-33.22-3.22
	c-0.81-0.54-1.9-0.8-3.28-0.76c-5.59-0.49-11.31-1.98-16.94-1.99c-0.8-0.69-1.88-0.98-3.25-0.87l-2.64-0.25
	c-0.43-0.97-1.31-2.38-0.91-3.26c5.35-3.43,11.56-2.13,17.39-1.64l24.7,2.06c7.47,0.62,13.99,0.25,21.25,1.83
	c2.64,0.57,5.72-1.25,9.02-0.19c6.06,1.95,13.07-0.49,19.41,0.72c1.31,1.56,2.71,3.34,3.24,5.23
	C406.98,560.05,404.57,560.58,404.28,562.64z"/>
<path class="st12" d="M576.96,509.73c-3.95-0.27-8.05-1.52-12.5-1.95l-36.42-3.58c-9.16-0.9-18.16,0.25-26.77-1.05l-3.25-0.14
	c-3.47,0.17-8.84-0.21-12.04-1.03c-3.24-1.53-2.02-2.64,3.66-3.35c11.62-0.3,12.91,1.02,26.68,0.24
	c16.21-0.92,32.57-1.02,48.39,3.15c5.42,1.43,10.12,2.9,15.7,3.69l34.88,4.93c-8.2,2.85-15.91,0.62-23.85,0.08L576.96,509.73z"/>
<path class="st12" d="M422.52,563.47c-2.82,0.18-4.84,0.02-6.6-0.87c-0.77-2.45-3.38-1.57-3.83-4.5c3.21,1.66,4.91,0.6,7.75-0.32
	c2.23-0.73,6.61,0.27,7.91,1.84C430.21,562.58,420.84,563.58,422.52,563.47z"/>
<path class="st9" d="M482.51,497.82l7.13,0.8c-0.86,2.07-4.54,0.8-3.66,3.35c-1.21-0.1-3.99,1.86-4.21-0.63
	c-2.09-0.51-4.46-0.89-7.09-1.15l-0.43-0.99l-1.03-1.78C476.31,497.57,479.42,497.48,482.51,497.82z"/>
<path class="st6" d="M903.27,298.26c2.64,0.14,5.31,0.44,7.96,0.47c2.31,3-10.31,1.45-11,1.48
	C899.84,298.68,902.08,298.19,903.27,298.26z"/>
<path class="st6" d="M28.81,337.92l2.08,0.13c0.56,1.2-0.52,1.86-1.63,1.92c-0.9,0.05-1.73-0.61-2.37-1.09
	c-0.84-0.27-0.83-0.59,0-0.96H28.81z"/>
<path class="st6" d="M255.39,394.52c-2.07,1.45-4.81,0.74-7.74,0.97l-59.51,4.58c-0.66-4.37,20.69-2.72,26.87-5.81
	c3.48,2.25,6.57,0.25,9.94,0.08l26.53-1.38C253.13,392.87,254.57,393.75,255.39,394.52z"/>
<path class="st6" d="M303.46,390.59c-2.24,1.71-23.45,1.81-26.12,2.05c-0.54-0.94,0.2-1.83,0.73-1.79l3.13,0.27
	C281.95,391.19,302.59,385.86,303.46,390.59z"/>
<path class="st6" d="M919.54,301.42c-0.17-0.86-0.19-1.74-0.03-2.6c4.57,0.05,9.26,0.17,14.2-0.6c2.6-0.4,5.85-1.85,7.57,1.47
	C938.05,300.78,920.72,302.64,919.54,301.42z"/>
<path class="st6" d="M334.3,387.9c-5.31,0.44-10.88,1.21-16.32,1.53C316.44,386.58,336.74,386.37,334.3,387.9z"/>
<path class="st6" d="M179.62,400.13c-2.8,1.82-6.53,1.21-9.76,0.93C171.8,397.88,176.77,398.57,179.62,400.13z"/>
<path class="st6" d="M268.04,393.51c-2.56,0.24-5.07,1.7-7.81,0.87c0.16-1.99,1.95-2.4,3.35-2.38
	C265.48,392.02,268.04,391.28,268.04,393.51z"/>
<path class="st6" d="M13.57,338.97c1.45,3.03-6.54,1.58-7.98,1.63C4.23,337.91,11.84,339.04,13.57,338.97z"/>
<path class="st9" d="M26.89,337.92v0.96l-11.52,0.02C10.95,338.52,30.64,336.13,26.89,337.92z"/>
<path class="st6" d="M909.37,301.73c-0.05,2.8-3.49,1.33-5.29,1.34C904.13,300.41,907.56,301.54,909.37,301.73z"/>
<path class="st6" d="M312.13,389.77l-4.13,0.83c-0.54-1.31,2.95-3.1,3.51-2.77C312.13,388.21,312.62,389.1,312.13,389.77z"/>
<path class="st4" d="M397.55,572.32c18.16,13.62,36.11,27.61,53.84,41.97c20.26,0.54,40.57,0.78,60.93,0.72l1.13,1.93
	c-1.26,2.91-0.53,6.1-0.46,9.17c1.88,1.18,2.39,3.37,1.54,6.56c2.36,1.08,2.2,5.57-0.11,6.63c1.51,1.96,2.42,7.09-0.73,7.59
	c-0.07,4.28-0.06,8.56,0.02,12.84l-0.07,24.57c-4.21,2.47-12.06,2.03-16.15-0.6c-0.59,1.09-1.89,1.01-2.43-0.16l-1.92-0.89
	c0.16-16.64,0.15-33.28-0.01-49.89c-3.78-0.41-7.45-0.26-11.03,0.45l-0.08,50.06l-1.92,1.14c-0.48,1.78-1.21,1.83-1.84,0.1
	l-2.21-0.16l-1.32,1.64c-8.61-2.86-17.3-4.69-26.08-5.49l-1.3-1.91l-1.92-0.88l0.09-58.26l-48.97-38.19l-44.78,34.73
	c-2.47,3.36-4.53,4.17-6.19,2.44c-1.15-2.9-5.75,1.81-5.81-1.59c-0.01-0.88,0.63-1.16,1.54-1.88l53.27-42.58
	C395.5,572.38,396.62,572.31,397.55,572.32z"/>
<path class="st11" d="M777.57,610.61c0.8,1.69,2.11,2.92,3.93,3.7c-0.22,3.1-0.19,6.08,0.09,8.94c0.79,0.49,0.67,0.82-0.29,1.01
	c-0.19,3.43-9.63,1.51-12.07,0.65l-1.09-1.95c-1.34-0.85-3.03-1.11-5.09-0.78c-0.21,0.74-0.54,1.84-1.13,1.91
	c-2.14,0.23-15.27,0.06-16.18-0.84c-0.32-0.32-0.49-0.78-0.62-1.29l-3.28-1.51c-0.42,2.91-4.25,2.56-4.39-0.3
	c-0.53-1.02-1.28-1.31-2.25-0.86c-1.17,2.25-1.71,2.2-2.59-0.18c-2.88-1.39-11.16-1.55-14.67-0.03c-1.32,2.5-2.95,2.54-4.5,0.2
	c-1.09-0.45-2.16-0.16-3.21,0.86c-1.03,2.76-4.22,3.23-5.36,0.29c-1.5,0.36-2.91,0.86-4.23,1.52c-0.4,2.7-1.54,2.67-2.52,0.17
	c-1.37-0.17-2.48,0.13-3.34,0.9c-0.54,2.92-5.54,3.31-6.21,0.32c-1.18,0.46-2.31,0.9-3.38,1.33c0.22,2.84-3.67,2.9-4.37,0.24
	c-1.93-0.21-3.65,0.06-5.16,0.81c0.5,2.89-6.67,3.08-7.34,0.28c-1.65-0.29-3.04-0.04-4.17,0.75l-3.35,1.39
	c-13.38,1.27-27.15,1-40.65,0.64c-1.13-0.03-2.25-0.32-3.38-0.63c-1.16-0.32-2.28-0.77-3.39-1.26c-2.07-0.6-4.23-1.78-4.6-4.01
	c-2.68,0.06-3.72-3.3-2.33-5.35c1.11-1.98,0.39-4.25,0.12-7.49c21.73-7.33,26.55-6.68,49.07-5.99l11.52,0.35
	c1.83,0.06,27.55,0.04,27.54,0.05c3.11-0.62,5.19-0.12,8.3-0.02l20.76,0.68c4.16,0.14,7.6-0.44,11.85-0.03l10.16,0.96
	c-6.21-0.59,22.1-1.51,24.5-0.77C773.52,606.28,776.07,607.59,777.57,610.61z"/>
<path class="st13" d="M406.82,572.44c1.25,0.73,2.02,0.77,4.07,0.68l57.3,4.12l49.44,39.25c-1.82,1.09-3.06,0.45-4.18,0.44
	l-59.31-0.37c-3.77-0.02-4.37-0.87-7.02-2.99l-47.38-37.91c-1.33-1.07-2.38-1.83-2.2-3.35L406.82,572.44z"/>
<path class="st14" d="M890.8,581.79l1.03,0.86c0.26,0.07,0.57,0.03,0.83,0.02c1.07,0.53,1.72,1.75,2.2,2.86l0.84,0.22l2.86,2.88
	l17.87,21.31c0.85,1.01-1.37,1.62-1.51,1.58c-4.03-4.46-7.75-9.26-12.11-13.95l-11.62-12.51c-10.08,8.6-16.7,19.07-26.19,26.55
	c-1.43,2.29-4.11,3.15-8.03,2.57l-73.5,0.4l-1.16-1.91c0.08,2.92-6.31-0.1-3.68-2.03l14.32-14.48c12.15-12.29,7.25-13.6,24.82-13.33
	l6.06-0.03l41.89-0.25c3.62-1.12,7.58-1.35,11.88-0.72C881.65,580.6,886.66,582.63,890.8,581.79z"/>
<path class="st15" d="M589.47,621.93c0.74,0.11,1.8,0.31,1.91,0.86c0.34,1.82,0.08,6.62-0.1,8.69c0.52,2.71-0.14,4.39-1.98,5.02
	l-1.02,1.94l-10.39,0.86c-0.88,0.69-1.9,0.7-2.85,0.07c-4.09,0.82-19.25,0.2-15.87-6.01c-2.62-1.35-2.29-5.46-0.52-7.47
	c0.21-1.27,0.34-2.55,0.38-3.84c-0.04-0.45-0.03-0.83,0.16-0.98c1.92-1.52,21.26-1.18,25.14-1.03
	C587.18,619.43,588.89,620.07,589.47,621.93z"/>
<path class="st4" d="M606.46,617.54c1.09,1.52,2.12,3.47,2.33,5.35c1.65,1.46,1.35,3.34-0.89,4.07c2.4,1.26,2.53,3.86,0.71,5.73
	c2.84,0.67,1.52,4.55-0.4,5.66c-1.64,0.95-14.62,1.8-16.75,0.83c-2.31,0.26-2.77-0.57-2.16-2.69l0.17-14.57
	c-1.39-0.87-1.31-1.34-0.69-2.49c1.02-1.87,7.8-7.62,10.17-7.9C601.32,612.02,608.47,620.35,606.46,617.54z"/>
<path class="st14" d="M598.96,611.54c-2,3.95-9.47,8.89-9.48,10.39l-30.44,0.11c-0.15,0-1.02-1-0.65-1.3
	c3.66-2.89,6.13-6.12,9.19-9.85C578.41,611.35,588.95,609.47,598.96,611.54z"/>
<path class="st13" d="M558.65,625.88c1.25,2.3,0.51,4.95,0.52,7.47c-0.5,2.45-1.1,2.22-2.26,0.04c-1.47,1.57-3.79,1.99-6.96,1.26
	l-34.3-0.06l-1.12-1.92c-2.66-1.2-1.49-4.19-1.54-6.56L558.65,625.88z"/>
<path class="st7" d="M550.72,567.45c-6.36,1.4-12.2,1.57-18.8-0.09C538.31,565.81,544.07,565.64,550.72,567.45z"/>
<path class="st9" d="M778.65,610.64c0.01,1.87,2.13,2.04,3.68,2.03c2.98,0.88,2.21,9.85-0.74,10.58c-2.44,0.27,0.59-5.77-0.84-8.4
	c-0.52-0.95-2.07-0.73-3.62-1.27c-0.86-0.3-0.16-2.46,0.44-2.97L778.65,610.64z"/>
<path class="st5" d="M877.61,581.84c-3.97,1.22-7.63,0.69-11.88,0.72C862.56,579.72,879.87,580.57,877.61,581.84z"/>
<path class="st7" d="M527.05,568.35l0.07-1.98c1.07-0.03,4.09-1.35,3.95,1.1C530.97,569.01,528.09,568.33,527.05,568.35z"/>
<path class="st5" d="M823.84,582.81c-1.77,1.34-4.28,1.35-6.06,0.03C819.12,581.1,822.47,581.14,823.84,582.81z"/>
<path class="st4" d="M410.89,572.16v0.96c-0.59,0.66-1.45,1.08-2.35,1.06c-0.96-0.02-2.25-0.57-1.72-1.74L410.89,572.16z"/>
<path class="st9" d="M462.67,499.18c2.75,0.18,2.53,1.13,0.06,2c-5.6,0.09-11.35,0.04-17.37-1.08c-4.4-0.81-8.98,1.99-13.2-1.51
	C442.9,498.1,452.77,499.16,462.67,499.18z"/>
<path class="st12" d="M474.25,499.2c1.79,0,4.06,2.23,6.83,0.63c1.51,0.32,2.35,0.77,0.7,1.51c-6.33-0.37-12.7-0.27-19.04-0.16
	l-0.06-2L474.25,499.2z"/>
<path class="st0" d="M630.67,819.63c0.62-2.07,1.86-5.56,2.05-7.6l70.41,6.49c12.48,1.15,24.3,1.49,36.19,3.76
	c-11.57,1.52-22.32,0.07-33.78-0.35l-53.64-1.96L630.67,819.63z"/>
<path class="st14" d="M447.36,678.57l-1.92,1.98c-6.86,0.82-13.49,2.55-19.9,5.19c-2.67,0.78-4.59,0.45-5.76-0.97
	c-1.1,0.49-2.21,0.96-3.33,1.43c-0.04,0.92-1.12,0.86-1.72,0.2c-0.33,0.26-0.66,0.47-1,0.49c-4.91,0.24-11.14,0.48-15.98,0.33
	c-0.37-0.01-0.73-0.38-1.09-0.86c-0.96,1.67-7.01,1.91-7.63-0.21c-1.48-0.5-2.91-0.97-4.29-1.39c-0.29,3.43-8.37,1.6-8.26-1.34
	c-2.06-0.83-4.11-1.67-6.13-2.53l-2.06,1.51c-7.18-0.4-14.36,0.01-21.53,1.22l-1.24-1.82l-0.19-7.84c-0.08-3.22-0.38-6.39-0.25-9.6
	c0.3-7.71,0.11-15.41-0.01-23.12c-2.74-2.37-2.91-5.9-0.41-8.52c-3.14-0.35-1.39-5.28,0.22-6.96c-0.9-1.67,1.62-5.41,0.73-7.35
	c2.12-0.36,3.11-2.46,4.97-3.92l45.77-35.85l51.12,39.66L447.36,678.57z"/>
<path class="st3" d="M428.9,687.64c1.37,1.27,3.51,1.35,5.24,0.72l0.86-1.9c12.74,0.44,25.69,0.52,38.84,0.25l5.01,1.65
	c0.91,0.13,1.68-0.13,2.31-0.79c0.57-1.92,1.58-1.97,2.48-0.19c2.49-1.95,7.36-1.96,10.04-0.29c0.09-0.61,0.21-1.11,0.48-1.2
	c1.33-0.46,8.58-0.97,8.72,1.63c1.23,0.75,2.99,1.43,5.18,0.84l2.48-1.85c5.72-0.13,11.3,0.45,16.74,1.73
	c3.81-0.51,7.62,1.23,11.49,2.79l42.31,17.13c-7.61,0.19-14.09-2.4-21.34-1.57c-11.16,1.27-25.21,13.24-32.72,12.41l-61.48-6.76
	l-110.1-9.69c-15.32-1.35-29.83-2.3-44.75-5.37c-6.61-1.36-12.25-4.53-19.57-4.55c2.91-2.28,6.06-1.81,8.58-1.58
	c10.18-1.54,20.68-2.58,31.49-3.1c21.07,0.73,42.18,0.57,63.33-0.49l2.77,0.78l1.49-1.11c5.38-0.49,10.7-0.42,15.95,0.23
	c4.55-1.41,9.08-1.75,13.59-1.01L428.9,687.64z"/>
<path class="st8" d="M779.63,632.67l1.17,0.28c0.09,2.43,0.56,4.6,1.43,6.53c3.06,0.72,3.01,10.37,0.09,11.4
	c-2.85,5.87,1.58,6.13,6.51,5.49c3.12,0.03,6.85,0.81,4.14,4.14c-8.24-0.49-16.69,1.38-25.25-1.45c3.74-3.32,11.64-0.35,10.97-5.83
	c-0.25-2.05-2.17-1.23-3.94-1.15l-28.13,1.23l-40.96,0.89l2.67,2.05c0.51,0.39,0.02,2.49-0.93,2.34c-3.8-0.61-7.41-1.42-10.68-2.77
	c1.27-2.37,4.16-0.99,6.04-2.89c-5.92-0.72-10.56,2.02-16.09,2.14l-44.99,1.03l-65.21,1.06l-27.94,0.91l-33.76,1.65
	c-1.75-3.15-1.82-7.56-0.2-10.76l0.29-1.02c31.45-0.08,62.86-0.17,94.23-0.27l1.41,0.95c0.72-2.83,5.83-2.46,6.61,0.18
	c0.5-1.36,1.47-1.26,2.31-0.02l0.89-1.92c25.8-0.19,51.6-0.03,77.4,0.49l1.16,1.51c0.79-0.96,1.13-1.94-0.01-2.79l-1.34,1.04
	c-23.52-0.92-46.97-1.7-70.37-2.34l-13.27-2.6l-1.31-1.95c-3.63-0.27-3.61-4-0.61-5.83l57.9-0.84c0.31-0.33,0.77-0.63,1.38-0.9
	l0.66-1.92c35.52,0.01,71.05,0.01,106.58,0.02L779.63,632.67z"/>
<path class="st15" d="M865.01,611.61l0.44,40.02l0.56,5.2l-0.82,2.02c0,0-9.38,0.2-28.14,0.61l-26.91,0.02
	c-6.92-0.32-13.72-1.33-20.4-3.05c-7.42,1.03-9.89-0.82-7.42-5.56l-0.09-11.4c-0.92-1.61-2.22-6.35-0.26-6.84
	c-2.3-1.05-3.05-7.16-0.68-8.38c0.13-0.33,0.27-0.69,0.29-1.01l0.74-10.58l68.17-0.38C855.72,612.26,860.4,612.42,865.01,611.61z"/>
<path class="st8" d="M370.34,680.9c2.09,0.85,4.13,1.69,6.13,2.53c2.79,0.33,5.43,1.65,8.26,1.34c1.16,0.29,2.59,0.75,4.29,1.39
	c2.51-0.2,5.14,0.55,7.63,0.21c2.27-0.04,2.5,0.52,0.63,1.88c-12.48,1.18-24.87,2.17-37.97,2.23c-14.83,0.07-29.38-1.4-44.31-0.01
	c-5.43,0.51-10.32,1.05-15.32,0.59c-0.03-0.49,0.16-1.51,1.05-1.6l27.06-2.83c6.25-0.65,12.42-4.36,17.71-4.81l3.42-0.29
	C356.4,680.87,363.17,679.03,370.34,680.9z"/>
<path class="st8" d="M685.49,671.97l-10.76,11.45c-4.63-1.53-9.42-2.58-14.66-3.45l-37.03-6.1c-8.39-1.38-16.15-1.74-24.61-3.76
	c6.16-1.84,11.76-0.32,17.88-0.23l46.78,0.69C666.07,670.62,685.24,671.02,685.49,671.97z"/>
<path class="st10" d="M881.31,659.38c-14.25,2.37-29.04,0.5-44.05,1.06c-0.38-0.36-0.43-0.87-0.21-0.97
	c7.16-0.01,14.36-2.23,22.13-1.26c2.73,0.34,4.94-1.22,6.82-1.37C871.24,656.41,876.41,657.72,881.31,659.38z"/>
<path class="st8" d="M513.64,684.3c0.31,0.03,15.68,1.97,13.63,3.94c-6.35,0.86-12.79,0.25-19.22,0.12c-1.6,0.49-4.03,0.4-5.18-0.84
	c-2.96,0.61-6.21-0.72-9.2-0.43c-1.88-0.43-2-1.36-0.28-2.25c-0.09-1.87,0.74-2.01,1.65-0.32c0.88-0.11,1.7-0.39,2.45-0.83
	C502.89,683.38,508.26,683.76,513.64,684.3z"/>
<path class="st10" d="M782.33,650.88c0.11,1.35-0.37,3.95,1.06,5.05c10.32-2,17.27,1.22,26.75,3.55c-5.67,0-11.25,1.37-17.16,1.02
	c-1.56-6.04-11.07-0.58-12.16-5.37C780.34,653.03,780.12,651.23,782.33,650.88z"/>
<path class="st5" d="M897.42,658.13c0.08,0.68,0.11,1.37,0.12,2.06l-13.34,0.28c-0.7,0.01-1.17-0.59-0.99-1.01
	C887.93,659.66,892.69,658.8,897.42,658.13z"/>
<path class="st5" d="M514.57,648.96c-0.07,3.59-0.08,7.18,0.2,10.76l-1.06,0.01c-2.09-4.01-1.1-8.64-0.02-12.84
	c0.23-0.84,0.53-0.81,0.91,0.03C517.31,646.87,517.08,648.33,514.57,648.96z"/>
<path class="st2" d="M186.31,692.36c-0.43,0.79-0.67,1.71-0.23,2.54c-2.54-0.27-5.07,0.81-8.24-0.84
	C181.05,692.52,183.72,693.08,186.31,692.36z"/>
<path class="st2" d="M958.32,671.33c1.35,2.73-7.01,1.33-7.2,1.33C949.86,670.04,957.38,671.23,958.32,671.33z"/>
<path class="st2" d="M976.59,670.4c0.94,3.46-8.75,0.53-6.23,0.69C971.83,669.24,974.53,670.17,976.59,670.4z"/>
<path class="st2" d="M198.93,696.72c-0.68-0.01-1.63,0.36-2.5,0.28c-0.73-0.07-2.3-0.29-1.8-1.65c0.76-0.11,2.29-0.51,3.34-0.25
	C198.51,695.25,199.39,695.72,198.93,696.72z"/>
<path class="st15" d="M282.24,638.23c-4.63,1.3-9.44,1.35-14.21,0.24c-2.44-0.57-4.58-2.14-7.85-2.25c-1.35-0.04-1.13-2.65-1.12-3.6
	c0.02-3.21,0.85-9.37,3.09-12.37c2.2-1.55,4.43-3.49,6.79-4.81c2.96-0.49,12.11,4.29,13.29,6.35
	C284.05,624.94,285.69,636.05,282.24,638.23z"/>
<path class="st13" d="M344.87,625.76c1.43,2.64-0.42,4.56-0.22,6.96c-0.08,0.76-0.35,1.9-0.89,1.92c-12.59,0.6-27.9,0.62-40.48,0.04
	c-2.66,0.56-4.26-0.07-4.8-1.92c-4.29-0.19-4.22-8.74-0.96-10.71L344.87,625.76z"/>
<path class="st4" d="M297.51,622.06c0.18,3.63-1.21,7.58,0.96,10.71c2.72,0.96,0.85,5.98-1.9,5.56c-0.88,0.08-1.88-0.43-2.74-0.2
	l-1.88-2.16c-0.04-11.97-1.66-6.71-1.18,1.08l-1.93,1.3l-6.6-0.12c0.13-5.08,0.06-10.22-1.51-15.4l-11.79-7.39
	c2.4-1.34,16.24-1.05,18.62-0.34C291.63,616.32,294.02,620.45,297.51,622.06z"/>
<path class="st5" d="M101.75,436.39c-1.37,0.68-2.9,0.68-4.85,0.04C97.93,435.42,99.23,435.54,101.75,436.39z"/>
<path class="st8" d="M344.65,632.72c0.24,2.87,0.36,5.62,0.41,8.52l-28.31-0.15c-5.84-0.03-11.34-1.45-17.34-0.71
	c-1.6,0.2-2.84-0.93-2.83-2.06l1.9-5.56L344.65,632.72z"/>
<path class="st13" d="M293.83,638.13c-1.63,0.42-3.39,0.25-5,0.22l0.08-10.65c1.46-1.05,3.29-0.95,4.64,0.36
	C293.89,631.68,293.92,634.92,293.83,638.13z"/>
<path class="st0" d="M555.65,640.13l1.09-1.72c6.18,0.07,12.28,0.7,18.31,1.9c1.2-0.9,3.49-0.72,4.94-0.01
	c1.09-2.48,10.16-3.02,11.29,0.15c6.43-1.11,13.1-1.82,20-2.14l1.28,1.89c5.08-0.11,10,2.53,15.51,2.68l28,0.78l27.67,1.01
	c5.39,0.2,10.23,0.37,15.11,1.38c2.76-0.11,2.62,2.08,0.01,2.79l-79.45-0.08c-0.78-0.85-1.55-0.84-2.31,0.02
	c-2.2,0.22-4.42-0.22-6.61-0.18l-3.09-1.17c-30.73,0.33-61.45,0.5-92.16,0.49l-0.64-1.02l-0.91-0.03c0.63-2.42-1.02-5.4,0.73-7.59
	l2.48-1.98c12.47,0.27,24.86,0.57,37.15,0.9L555.65,640.13z"/>
<path class="st13" d="M495.06,683.54c0.83,0.3,0.81,0.63-0.02,0.99c-0.55,0.02-1.1,0.33-1.65,0.32c-2.1,1.85-7.45,1.95-9.61,0.17
	c-0.83,1.98-3.58,1.62-3.67-0.62l0.08-53.3c5.38-0.66,9.88-0.38,15.06-0.18L495.06,683.54z"/>
<path class="st8" d="M447.36,678.57c2.95-0.01,6.22-0.21,9.48,0.66l19.22,5.1c0.72-0.41,1.47-0.19,2.21,0.16
	c0.47-0.03,1.32-0.13,1.84-0.1c1.2,0.07,2.46,0.76,3.67,0.62c2.33,1.1,2.3,1.54-0.14,2.36c-0.82-0.02-1.66,0.14-2.48,0.19
	c-0.36,0.98-1.39,1.02-2.31,0.79c-10.62,0.7-21.57,0.52-32.62,0.27l-12.09-0.27c-1.56,0.68-4,0.59-5.24-0.72l-14.17-0.28
	c-0.84-0.27-0.83-0.59,0-0.96c0.56-0.03,1.16-0.24,1.72-0.2c1.02-0.58,2.13-1.06,3.33-1.43
	C425.03,685.34,434.65,678.63,447.36,678.57z"/>
<path class="st8" d="M556.92,633.39c3.16,1.15,2.25,6.35-1.27,6.75c-5.57-0.05-10.14,0.77-16.52-0.28
	c-8.11-1.33-16.77-0.69-24.7-0.56c-0.51-2.19-0.36-4.45,0.11-6.63l34.59,0.06C552.02,632.73,554.55,632.86,556.92,633.39z"/>
<path class="st13" d="M717.95,619.09c4.61-1.36,10.06-1.35,14.67,0.03c0.77-0.03,1.85-0.04,2.59,0.18c1.01-0.78,1.92-0.28,2.25,0.86
	c1.46,0.12,2.91,0.45,4.39,0.3c1.33,0.36,2.42,0.87,3.28,1.51l17.93,0.22c2.2-0.51,3.9-0.25,5.09,0.78
	c4.47-0.07,8.68,2.07,13.16,1.3c0.62,2.69,1.19,5.61,0.68,8.38c-0.46,2.76-1.29,2.49-2.34,0.03l-108.4-0.02l-0.3,0.72
	c-20.37,0.18-40.76,0.59-61.15,1.24l-1.16-1.92c-0.98-1.71-0.88-3.78-0.71-5.73c-0.24-3.15,4.14-2.16,5.48-0.06
	c16.92-0.18,33.86,0.5,50.78-0.15c0.8-0.99,2.19-1.24,4.17-0.75l7.34-0.28c1.23-0.89,2.94-1.16,5.16-0.81l4.37-0.24
	c1.1-0.47,2.23-0.92,3.38-1.33c2.07,0.19,4.14-0.2,6.21-0.32c0.38-1.31,2.09-1.13,3.34-0.9l2.52-0.17c1.32-0.65,2.73-1.15,4.23-1.52
	c1.78,0.34,3.6-0.44,5.36-0.29c0.25-1.22,2.22-1.63,3.21-0.86C714.77,618.97,716.58,619.05,717.95,619.09z"/>
<path class="st9" d="M732.61,619.12c-4.89,0.16-9.78,0.11-14.67-0.03c-0.5-0.59,0.14-1.79,1.08-1.79l12.45,0
	C732.57,617.3,733.11,618.6,732.61,619.12z"/>
<path class="st12" d="M613.38,626.9l-5.48,0.06c0.12-1.41-0.5-3,0.89-4.07C611.11,622.9,613,624.64,613.38,626.9z"/>
<path class="st9" d="M680.83,624.91c-1.08,1.74-3.46,0.74-5.16,0.81c-0.46-1.74,1.34-1.75,2.59-1.88
	C679.24,623.74,679.97,624.96,680.83,624.91z"/>
<path class="st9" d="M768.13,622.96c-1.68,0.03-3.9,0.65-5.09-0.78c0.87-0.58,2.02-1.44,3.47-1.19
	C767.4,621.14,768.69,621.56,768.13,622.96z"/>
<path class="st9" d="M704.88,620.45c0.51,0.98-0.48,1.37-1,1.51c-1.07,0.29-2.45-0.05-3.23,0.01c-0.6-1.38,0.88-1.89,1.65-1.86
	C703.3,620.14,704.12,620.3,704.88,620.45z"/>
<path class="st9" d="M668.33,626.01c-0.86,1.41-2.81,0.7-4.17,0.75c-0.58-1.28,0.58-1.76,1.63-1.96
	C666.81,624.61,667.58,625.88,668.33,626.01z"/>
<path class="st6" d="M559.17,633.35c-0.25,3.35,12.19,6.62,15.87,6.01c0.84,0.27,0.83,0.59,0,0.96l-19.4-0.19
	c0.65-2.23,1.81-4.39,1.27-6.75C557.59,633.54,558.48,632.88,559.17,633.35z"/>
<path class="st6" d="M589.31,636.49c1.09-0.02,2.07,1.79,2.16,2.69c1.83,0.44,1.7,1.16-0.2,1.28l-11.29-0.15l-2.09-1.02
	C580.89,636.72,585.42,636.55,589.31,636.49z"/>
<path class="st10" d="M577.89,639.29c0.66,0.02,2.17,0.15,2.09,1.02c-1.53-0.02-3.43,0.02-4.94,0.01v-0.96
	C575.96,639.21,576.97,639.25,577.89,639.29z"/>
<path class="st10" d="M671.23,632.65c0.62,0.6-0.11,1.74-1.23,1.8c-13,0.72-25.73-0.03-38.59,0.64l-18.84,0.99
	c-1.68,0.09-0.35,3.29-0.01,4.12c-5.69,0.13-16.11,0.32-21.29,0.25c-0.01-0.39,0.23-0.93,0.2-1.28c2.59,0.31,5.13,0.03,7.86-1.16
	c2.45-1.07,5.38,0.28,7.79-1.2c1.05-0.64,1.53-3.13,1.5-4.13L671.23,632.65z"/>
<polygon class="st4" points="410.43,643.97 381.83,644.03 382.12,620.26 410.23,620.31 "/>
<path class="st2" d="M414.73,686.4v0.96c-5.61-0.11-11.7,0.34-17.44,0.88l-0.63-1.88C402.67,685.55,408.68,686.67,414.73,686.4z"/>
<path class="st3" d="M376.47,683.43c-2.16-0.25-5.6,0.03-6.13-2.53C372.46,681.45,376.33,680.59,376.47,683.43z"/>
<path class="st3" d="M389.02,686.15c-0.62,0.05-1.75,0.33-2.51,0.29c-0.74-0.04-2.29-0.33-1.78-1.68c0.82-0.09,2.22-0.5,3.31-0.21
	C388.6,684.7,389.5,685.15,389.02,686.15z"/>
<path class="st5" d="M493.39,684.85c0.13,0.74,0.23,1.49,0.28,2.25c-3.34,0.33-6.68,0.39-10.04,0.29c-0.01-0.79,0.02-1.58,0.14-2.36
	C486.97,684.66,490.18,684.77,493.39,684.85z"/>
<path class="st2" d="M434.14,688.36c-0.29,1.07-1.67,0.88-2.62,1c-1.06,0.13-3.06-0.09-2.63-1.72
	C431.17,687.68,432.3,688.31,434.14,688.36z"/>
<path class="st10" d="M508.05,688.36c-0.27,1.08-1.72,0.85-2.62,0.99c-1.16,0.18-3.15-0.16-2.56-1.83
	C504.94,687.09,506.45,688.06,508.05,688.36z"/>
<path class="st2" d="M610.49,648.62l-31.64,0.54c-4.43,0.08-8.92,1.68-13.33,0.67c-6.2-1.42-12.04-1.07-18.34-1.03l-32.61,0.17
	l0.04-2.05l39.26,0.3c3.83-1.64,7.6-1.21,11.62-1.2l42.03,0.19C609.1,646.22,610.26,647.62,610.49,648.62z"/>
<path class="st2" d="M698.86,648.86l-0.01-2.79c-5.72-1.18,29.37,0.17,27.88,0.16c6.05,0.02,12.05-1.22,17.77,2.13
	c-10.02,0.55-19.72-1.24-29.25,0.33l-8.79,1.46L698.86,648.86z"/>
<path class="st10" d="M781.97,632.64c-0.44,2.36,0.25,4.52,0.26,6.84c-1.67,1.33-1.5-4.9-2.61-6.81L781.97,632.64z"/>
<polygon class="st14" points="408.01,641.28 384.75,641.55 384.24,622.95 407.98,623.14 "/>
<g>
</g>
<g>
</g>
<g>
</g>
<g>
</g>
<g>
</g>
<g>
</g>
<g>
</g>
<g>
</g>
<g>
</g>
<g>
</g>
<g>
</g>
<g>
</g>
<g>
</g>
<g>
</g>
<g>
</g>
</svg>
