<?xml version="1.0" encoding="iso-8859-1"?>
<!-- Generator: Adobe Illustrator 30.2.1, SVG Export Plug-In . SVG Version: 9.03 Build 0)  -->
<svg version="1.1" id="Layer_1" xmlns="http://www.w3.org/2000/svg" xmlns:xlink="http://www.w3.org/1999/xlink" x="0px" y="0px"
	 viewBox="0 0 1200 1543" style="enable-background:new 0 0 1200 1543;" xml:space="preserve">
<style type="text/css">
	.st0{fill:#C7D8DC;}
	.st1{fill:#F0F4F7;}
	.st2{fill:#AFDBEE;}
	.st3{fill:#0B4B59;}
	.st4{fill:#1B5469;}
	.st5{fill:#27523F;}
	.st6{fill:#24373F;}
	.st7{fill:#6BBDDE;}
	.st8{fill:#79C3E2;}
	.st9{fill:#5194A7;}
	.st10{fill:#295B43;}
	.st11{fill:#92CDE4;}
	.st12{fill:#73B3C5;}
	.st13{fill:#1B6E82;}
	.st14{fill:#2AA3CD;}
	.st15{fill:#517242;}
</style>
<path class="st0" d="M0,89.73V0h1200v53.57l-3.01-0.71l-7.32-24.17l-21.4,60.41c6.26-4.44,10.16-4.36,11.69,0.24l-27.07,51.83
	c-0.63,1.01-1.79,1.31-3.49,0.9l-3.9-1.5c-3.47-4.61-14.6-24.17-14.15-28.73c0.26-2.63,4.36-4.44,6.94-3.32
	c0,0-5.85-17.15-17.55-51.46l-1.49-0.45c-6.3,19.34-13.34,38.39-21.1,57.14c21.51-11.17,8.6,11.31,0.58,20.22
	c22.57-3.37,9.62,16.39,2.75,26.53l-3.1,0.03l-3.82,3.33l-25.02,8.18l-3.6-1.78c-8.56-1.13-14.61-18.37-1.6-15.2
	c-2.38-4.22-9.65-17.18-8.52-21.4c1.34-5.04,6.35-2.85,9.81-0.97c-8.18-19.42-15.96-39.04-21.81-59.3l-19.42,56.36
	c10-3.45,7.39,5.24,3.79,12.8c-1.82,3.9-3.34,7.65-4.58,11.24c3.08-2.21,8.66-4.07,9.12,0.79c0.4,4.24-12.69,31.26-17.75,34.99
	l-3.56-0.48c-2.19,4.81-5.98,8.76-11.36,11.85c-2.45,3.37-5.15,5.03-8.11,4.98c-1.33,0.14-2.76,0.12-3.9-0.67
	c-4.17-2.9-12.22-24.25-12.63-30.06c2.7-2.13,6.18-2.4,10.44-0.8c-8.18-20.69-15.56-41.67-22.12-62.92
	c-6.82,21.75-14.95,43-24.39,63.74c4.28-2.8,8.44-3.97,12.48-3.51l0.72,2.9c-3.53,11.73-8.62,22.81-15.27,33.25
	c3.88-1.14,8.47-2.16,10.29,2.15c1.11,2.63-1.73,18.67-7.22,14.93c-1.24,2.48-2.63,4.44-4.82,6.1
	c-6.79,5.15-40.58,23.19-46.98,21.94c-0.98-0.19-1.92-0.56-2.85-0.98l-2.9-0.46l-8.94-32.52l-20.75,60.37l-3.05,0.63l-5.6,5.03
	c-35.73,16.83-70.27,35.99-103.62,57.49c-24.82-10.82-49.6-21.82-74.34-33.01c-36.92-15.5-75.07-30.43-115.26-33.23l-4.87-2.85
	l-2.91-0.38l-9.42-31.71l-4.17,17.29c-0.8,6.51-3.32,10.9-7.54,13.17c-4.12-0.88-6.18-1.32-6.18-1.32
	c-22.08-16.76-44.44-33.63-69.88-45.01l-4.15-4.65l-3.98-3.61l-8.97-31.2l-6.24,21.16l-3.75,2.93l-2.11,2.06
	c-20.37-7.81-40.76-15.62-61.15-23.44l-2.3-3.75l-3.89-0.03c-7.8-9.04-15.64-21.97-15.13-33.8c3.9-1.21,8.12-0.38,12.65,2.48
	c-9.71-21.84-18.25-44.13-25.64-66.86l-22.3,66.02l6.35-6.19c4.2-2.1,4.73-0.88,5.48,3.14c0.55,2.94-5.08,23.16-10.77,20.28
	l-5.19-0.74c-11.14-7.99-22.87-15.04-35.18-21.15l-2.77-4.54l-3.1-1l-4.6-11.92c-0.27,3.77-1.74,5.74-4.42,5.89
	c-6.77-2.14-10.15-3.21-10.15-3.21c-24.61-15.8-49.85-30.47-75.59-44.33c-18.66-10.05-36.11-15.58-57.23-12.84l-4.07-2.24
	c-4.09-4.38-7.08-9.95-8.98-16.73c-3.29,11.22-7.54,22.02-12.75,32.42l-4.08,1.53l-3.34,4.13l-23.17,12.71l-4.04-0.97l-2.84-2
	c-8.72-19.38-15.65-39.59-20.8-60.61L3.05,89.08L0,89.73z"/>
<path class="st1" d="M511.96,1088.74c4.27-3.77,11.14-3.12,14.58,1.33c1.64-4,12.85-3.25,13.29,1.37l3.42-1.73
	c8.93,2.09,32.62,14.1,34.88,22.85c1.31,5.08,0.92,6.47-4.74,6.17c-16.42-3.08-32.14-2.65-47.15,1.27
	c-11.21,6.47-22.91,11.47-35.11,15.01c1.29,5.95,0.86,31-3.16,34.59c-2.92,2.61-6.02,0.48-6.85-2.99l-5.64-26.14
	c-4.93-17.8-10.38-17.73-23.48-5.62c-10.26,9.48-23.22,24.83-21.35,39.44c70.36,0.68,141.14,0.86,212.31,0.56
	c23.45,0.24,26.92-1.91,10.42-6.46c-16.61-1.76-33.6-0.94-50.96,2.47c-22.51-0.71-44.91,0.24-67.18,2.85
	c-3.24,0.13-3.43-1-2.67-4.01c3.81-15.02,36.83-31.99,51.43-35.69c33.32-8.43,72.6,1.41,94.03,29.04
	c22.65-5.99,47.96-1.27,66.93,12.52l25.85,0.03c4.42-34.68,31.41-49.83,64.08-49.9c21.25-0.05,58.77,7.5,64.56,31.75
	c1.31,5.48,2.25,10.35-4.82,8.29c-9.7-10.78-20.8-17.02-33.3-18.7c-48.33,18.46-72.5,27.69-72.5,27.69
	c42.68-0.53,85.48,1.37,127.87,4.28c14.52,0.16,29.28-4.09,43.05-8.34l4.54,1.35l0.35-2.93c28.21-9.22,56.43-18.45,84.66-27.68
	l2.36,2.05c5.54-6,14.58-8.65,22.49-6.69c1.65-3.31,2.02-3.19,2.65,0.52l1.12,4.1c-7.76,12.89-16.51,25.14-26.24,36.76
	c13.28-6.66,25.94-14.56,37.96-23.7c3-0.78,3.79,0.95,4.8,3.53c0.53,1.36-11.44,23.53-14.77,24.97
	c-3.93,8.76-14.02,19.03-23.06,22.3c-10.18,4.57-19.68,10.21-28.51,16.92c5.7-2.7,9.12-2.13,10.25,1.72
	c0.66,3.16-0.11,6.4-2.31,9.74c17.58-9.73,35.49-18.96,54.4-25.95c8.51-1.12,4,11.84-1.58,12.59l0.98,3.5
	c-4.87,8.01-10.09,15.72-15.67,23.12c-0.5,3.28-2.57,6.44-6.21,9.48c-9.34,17.61-21.41,26.95-38.88,38.06
	c-15.53,9.88-31.17,19.34-47.76,27.36c-1.24,0.6-2.67,0.81-4.14,1.01c-1.49,0.2-3,0.21-4.53,0.16c-4.53-0.45-3.88-5.64-0.22-7.94
	c-3.74-1.97-0.61-7.65,2.93-8.6c2.84-3.14,5.87-6.31,9.07-9.53l9.53-13.85l3.88-1.19l-0.74-3.36c7.29-6.87,13.24-14.49,17.84-22.83
	c-9.87,0.93-19.77,0.85-29.71-0.23l-126.53,1.17c-2.63-1.25-3.83-2.16-2.8-5.01c2.66-7.38,28.01-15.43,35.93-16.93
	c-36.32,2.14-72.59,4.79-108.8,7.96l-7.5-0.91c-5.89-1.99,0.03-13.11,5.36-13.79c3.23-4.07,7.78-6.57,13.66-7.52
	c27.59-7.08,55.02-14.64,82.29-22.7l-565.93,0.4c15.04,9.53,30.72,17.83,47.05,24.9l3.61,4.15l8.95,2.47
	c17.79,13.8,37.12,23.05,57.98,27.74c36.16,5.72,72.1,13.43,107.83,23.14c8.42,1.57,15.43,4.96,21.03,10.15
	c6.27-3.93,21.25,9.3,14.18,13.86l-0.93,2.68l-95.84,0l31.2,9.01c6.62,8.67-14.68,5.92-19.43,4.82l-203.1-1.53
	c19.26,4.05,37.82,10.07,55.7,18.04c9.44,5.66,15.67,11.09-0.09,11.57c-98.27,1.19-196.5,5.28-294.38,14.23l84.62,27.44l0.71,3.05
	l4.13-1.46c5.4,1.02,30.51,11.08,33.07,14.28c1.77,2.22,1.32,3.83-0.29,6.11L1.9,1430.17l-1.9-2.49V1281.7
	c6.63-0.32,9.95-0.49,9.95-0.49c58.79,13.12,118.83,23.77,179.29,21.36l-13.62-9c-4.24-3.51-10.63-9.16-2.7-11.81
	c19.82,6.07,50.65,13.46,70.26,4.31c1.82-0.85-1.95-4.11-3.11-5.04c-12.59-6.12-26.48-10.89-41.68-14.3
	c-39.19-15.56-79.19-27.64-120-36.21l-6.3-3.54c-0.75-1.27-1.45-2.56-1.98-3.91c-2.69-6.91-3.67-40.39-2.48-48.85
	c0.59-4.19,0.89-5.88,4.92-6.02l57.84,25.8c-3.62-9.2-5.43-13.81-5.43-13.81c-0.38-3.34-0.21-5.48,3.46-5.41
	c18.97,4.16,38.07,6.33,57.31,6.53c-2.62-2.93-3.8-5.59-3.54-8l-3.6-3.93c-1.46-2.65-10.42-22.33-10.2-23.6
	c0.23-1.26,0.87-2.29,1.85-3.12c0.95-2.7,3.95-0.8,5.21,1.24c0.48-1.07,0.93-1.05,1.34,0.05l6.54-0.13
	c17.11,7.26,34.23,14.53,51.35,21.8l1.22,3.43l2.69,1.8c1.18,8.88,1.67,17.72,1.49,26.52l10.95,1.69l0.74-20.05l2.73-1.83
	c1.52-1.46,2.27-2.19,2.27-2.19c8.53,5.33,17.08,8.8,25.64,10.39l24.57-5.05l2.37,2.25c3.85-2.51,8.18-3.95,12.63-4.94
	c23.85-5.3,59.41-4.01,84.24-2.79c5.31,1.92,7.03,1.25,5.16-1.99c2.24-12.77,6.34-25.1,10.81-37.17c-5.87,2.1-8.62,1.22-8.26-2.64
	c-0.4-1.61-0.71-3.39-0.05-4.98c5.02-12.05,26.42-26.67,38.31-32.01c13.77-6.18,40.98-12.55,55.76-10.15L511.96,1088.74z"/>
<path class="st2" d="M780.86,1227.91c-2.61,5.41-5.82,7.94-5.36,13.79c1.12,0.08,2.74,0.6,2.67,1.35
	c-1.81,6.07-2.16,11.72-1.06,16.95l3.43-0.9c25.63,4.16,51.3,7.87,77,11.12l2.9,2.13c4.1-0.23,5.04,3.58,1.31,5.26l2.8,1.5
	l0.9,11.64l108.59,12.82l1.29,2.85c0.08,3.14-2.24,5.66-2.93,8.6c-1.86,4.17-5.87,6.67-12.04,7.49l-11.67,2.34
	c-62.05,1.19-123.89-0.97-185.51-6.47c8.86,1.13,11.45,4.1,11,12.92c8.66,7.18,11.96,14.9,9.92,23.16
	c-79.11,22.56-158.1,45.5-237.08,68.52c-6.33,1.85-12.89,2.72-19.43,3.46l-2.61,2.72c-18.35,6.24-36.85,12.27-55.49,18.09
	c10.83-0.64,21.45,0.18,31.88,2.45c1.28,0.61,2.3,1.26,2.42,2.05c0.74,4.85-21.3,11.56-26.25,12.89
	c-28.9,6.81-57.74,14.19-86.53,22.14l-5.52-0.14l-0.08,2.83l-158.53,50.08l-19.31,3.29h-23.03c3.14-5.29,8.55-9.03,16.23-11.23
	c32.78-11.75,65-24.62,96.67-38.61c4.73-4.82-117.66-9.58-127.89-7.41c-4.85-0.11-9.59-1.37-14.25-2.64
	c0.81-1.03,1.66-2.02,2.64-2.86c0.97-0.84,1.9-1.63,2.97-1.98c8.8-2.86,17.63-5.55,26.65-7.65
	c75.57-15.01,149.91-32.64,223.01-52.87c2.71-0.36,5.62-0.41,8.22,0.65l6.04-3.41c20.04-6.18,40.15-12.19,60.32-18.02
	c-10.99-0.76-15.66-12.97-6.99-19.78c59.96-9.74,119.72-20.57,179.27-32.5c-0.75-5.21,5.11-10.91,9.87-13.55
	c-17.02-9.11-35.61-15.34-55.77-18.7c-15.48-5.11-29.84-12.32-43.07-21.62c-3.63-0.64-7.34-0.64-11.13-0.02
	c-33.64-13.1-68.73-19.79-104.94-26.15c-51.18-8.99-44.81-8.55-90.85-37.36l1.29-2.68c138.77,0.26,277.56,0.51,416.38,0.77
	L780.86,1227.91z"/>
<path class="st3" d="M1168.44,1178.67l4.26,1.8c7.08,13.19,15.47,25.41,25.16,36.68l2.14,5.77v97.3l-2.45,1.89l-19.73-8.09
	c5.62,10.46,12.43,20.02,20.43,28.68l1.75,4.82v195.34h-199.64c3.98-4.03,5.97-6.05,5.97-6.05c30-16.4,62.48-34.44,87.38-58.13
	c0.33-0.32-0.04-1.09-0.76-1.22c-24.86-1.56-49.73-2.38-74.6-2.45l-8.23-2.44c-3.33,6.22-23.5,0.14-12.38-5.95
	c-0.6-0.85-1.33-2.3-0.82-2.71c12.14-9.63,27.96-20.83,41-29.18c2.53-2.75,4.83-3.29,6.91-1.63l2.36,1.72l39.38-21.45
	c19.89,2.43,32.36-7.62,39.59-25.6c2.1-5.22,1.36-8.32-3.43-11.33c-12.69-7.99-27.33-3.15-37.14,7.01
	c-9.28,9.61-16.98,20.42-24.4,31.5l-4.57,1.86c-1.33,1.06-2.7,2.06-4.15,2.91c-1.45,0.84-2.86,1.65-4.38,2.03
	c-36.12,9.06-72.52,17.23-109.58,21.5c-6.65,0.93-6.63-1.05-4.75-6.55c12.53-18.09,26.94-34.08,43.24-47.97
	c11.84-5.77,23.65-11.37,35.44-16.81c2.51-3.07,5.18-4.47,8.03-4.2l0.38-4.18c15.09-7.07,41.48-24.79,6-24.78
	c-2.31-0.94-2.66-2.86-2.29-5.24l9.71-12.42c-19.64,2.86-39.31,5.46-59.02,7.79c-9.13-0.57-10.11-7.6-2.62-5.94
	c26.25-12.23,52.1-27.64,75.65-45.4c11.48-8.66,14.54-23.97,25.87-30.68c6.92-6.65,13.19-13.83,18.82-21.53
	c-3.23-1.29-4.6-2.99-4.13-5.09c1.85-3.08,2.38-7.09,5.35-11.18c-24.76,9.35-46.26,19.9-68.33,34.6
	c7.22-5.01,7.93-15.15,12.48-19.81c-0.64-0.81-1.53-2.05-1.1-2.7c3.57-5.47,13.28-13.45,19.36-15.94
	c7.34-7.5,15.03-15.55,23.06-22.3c5.67-7.27,12.6-13.51,20.79-18.73l4.06-0.14l3.08,1.22c11.57,15.22,33.62,22.28,52.12,24.36
	c10.25,7.17,12.59,6.37,7.03-2.39C1164.85,1182.71,1165.43,1179.85,1168.44,1178.67z"/>
<path class="st1" d="M1200,312.98V335l-2.99,3.29c-12.12,1.54-24.05,3.97-35.77,7.27c-1.57,8.6-12.49,23.03-21.86,22.7
	c-1.73-0.06-2.63-0.33-3.5-2.32l-1.82,4.59l-17.75,17.36c-1.48,1.51-4.56,3.51-6.15,2.78c-4.87-2.22,0.01-24.34,1.57-29.37
	c-0.15-0.55-0.66-0.93-1.31-1.05c-4.31-0.77-26.59,6.05-32.21,8.12c-9.36,3.46-18.36,7.9-26.17,14.19l-4.63,0.4
	c-0.19,1.82-0.6,3.68-2.72,2.7l-3.87,2.54c-14.52,0.59-28.78,3.07-42.77,7.47l-4.4-1.62c-0.48,3.86-1.65,3.91-4.15,0.94l-2.14,2.93
	c-10.04,3.63-26.16,7.37-36.35,6.85c-3.5,11.1-10.48,21.25-17.62,30.44c-1.95,51.02-4.9,102.33-8.85,153.93l-2.3,12.68
	c-1.06,8.98-3.7,11.78-7.92,8.38c-2.2-41.36-5.03-82.9-8.5-124.6c-2.62-14.74-6.3-29.24-11.05-43.48l-2.73-1l-1-14.62l-4.75,3.24
	c-2.5,3.44-5.11,4.9-7.82,4.37l-2.05,4.33c-9.85,6.49-14.47,17.48-15.13,29.01c-1.16,26.54-3.22,53.03-6.17,79.5
	c-0.68,4.81-2.24,5.09-5.87,3.25l-11.09-73.21c-0.8-3.48-6.49-24-7.6-24.68c-0.52-0.32-1.09-0.51-1.68-0.68
	c-5.66,0.09-8.73-1.42-9.23-4.55c-1.85,2.18-4.11,2.35-6.78,0.51c-0.31,2.95-2.23,5.36-5.78,7.23c-2.65,3.73-5.62,5.67-8.89,5.82
	l-2.94-0.27c-2.99-5.51-8.37-3.34-16.12,6.52c-3.45,3.75-6.37,4.35-8.74,1.81l-3.83-0.43l-11.51-18.89
	c-3.06,4.96-5.72,6.54-7.97,4.77c-4.17,16.53-9.81,19.32-25.69,22.19c-6.47,2.29-13.57,4.83-15.01,12.38
	c-4.7,62.4-7.09,125.24-7.18,188.5c-0.21,37.37-3.16,74.33-8.86,110.87l-3.27,2.28c-1.15,0.19-2.65,0.07-2.92-0.84
	c-2.8-108.23-2.78-216.48,0.05-324.74c-1.7,1.09-2.94,0.32-4.06-1.53c-1.74,2.54-3.97,3.01-6.84,2.54
	c-15.03-2.05-29.87-3.39-44.49-4c-0.59,2.2-1.67,3.52-3.26,3.94c-5.72,8.69-8.58,13.03-8.58,13.03
	c-2.31,10.24-4.79,20.41-7.43,30.53c-1.99,4.13-4.19,6.63-7.86,1.83l-0.24-19.88c-0.93-6.78-5.12-18.45-10.71-8.43
	c-3.65,47.65-5.5,95.61-6.9,144.02c-0.68,6.71-2.75,27.01-6.93,30.58c-0.72,0.62-1.56,1.1-2.43,1.54l-2.9-4.35
	c-2.23-60.94-1.28-122.56,3.78-183.29l3.08-3.87l-2.49-1.46c4.35-12.92-2.85-13.67-21.58-2.25c-3.77,2.48-6.34,2.42-7.72-0.18
	c-9.08,6.15-24.12,6.84-34.82,4.8c-17.03-9.82-38.33-13.14-57.47-15.06c-2.75,1.56-5.09,1.8-7.02,0.72
	c-0.34,1.18-0.79,1.18-1.35,0.05l-4.19,0.09c-16.61-9.87-34.84-15.93-54.71-18.2c3.91,6.7,7.04,13.74,9.39,21.11
	c1.67,9.47,0.3,9.51-9.79,8.4c-9.78-1.07-38.21-6.55-44.86-11.45c-1.11-0.82-2.1-1.79-3.06-2.8l-3.88-2.9
	c-4.59-13.26-9.64-15.63-23.65-19.29c-26.86-7.02-55.62-13.01-83.3-15.17c-4.36-0.34-8.69,3.56-9.59,7.74l-2.8,1.73
	c-5.03,5.65-17.15,2.56-24.19,0.62c-8.02-2.22-15.31-6.17-22.37-10.46c-6.17-3.75-23.63-15.28-27.64-20.02
	c-1.25-1.47-1.93-2.89-2.18-4.88l-4.29,0.37c-21.06-12.29-47.39-15.09-70.74-8.42l-3.76-1.52c-1.1,2.77-1.73,5.59-1.89,8.45
	c3.88,10.14,6.46,20.45,7.73,30.91c0,0-1.06,0.75-3.18,2.26l-3.12,0.89c-3.45-3.61-6.73-5.1-9.84-4.49l-5.91,25.83
	c-4.16,3.72-7.39,0.19-9.7-10.6c-6.99-13.11-10.49-19.66-10.49-19.66c-3.7-3.99-6.25-8.27-7.67-12.84
	c0.09-10.02-2.83-19.34-14.41-19.52L0,377.68v-42.86c1.85-3.92,8.47-2.91,9.41,1.25c1.02-1.31,2.13-2.06,3.33-2.26
	c71.64,8.69,144.53,20.54,217.44,35.04l4.34,2.28l3.47-1.66l22.32,3.68l2.37,3.17l2.15-2.29l147.9,30.8l64.28,19.5l4.94,4.3
	c2.21-3.64,14.27-0.68,13.66,3.88c4.62-0.91,9.67,0.02,15.16,2.79c17.98,3.1,36.12,5.65,54.41,7.64l2.84,3.31
	c2.31-0.76,4.95-0.21,7.91,1.66l5.94,0.45c57.39-8.55,117.19-10.99,175.87-10.36c21.25-4.13,42.72-7.03,64.41-8.72l4.21,1.75
	l3.62-3.87c14.96-7.2,30.3-12.56,46.04-16.09c42.37-24.64,91.42-41.34,140.15-47.27c1.32-0.16,2.69,0.07,4.09,0.34
	c1.43,0.28,2.82,0.74,4.21,1.26l2.39-2.96c8.58,0.13,16.19-1.46,22.81-4.77c1.82-5.2,4.26-7.43,7.32-6.71
	c1.46-2.52,3.28-4.55,5.43-6.1l20.8-4.35c31.48-11.3,64.07-19.69,96.72-27.29c1.66-0.39,3.43-0.34,5.24-0.29
	c1.82,0.05,3.63,0.29,5.44,0.58C1192.04,309.26,1197.67,309.67,1200,312.98z"/>
<path class="st3" d="M189.08,830.29c5.87,7.93,10.9,16.51,15.1,25.76c2.5,5.08,2.2,8.49-0.93,10.25c-2.51,0.32-4.9-1.09-7.18-4.25
	c-15.34-11.45-22.09,5.78-11.13,15.05c9.5,3.03,17.87,7.43,25.12,13.21L209,893.3c-0.67,2.26-2.43,4.47-5.28,6.64
	c2.45,4.22,3.38,8.25,2.81,12.08c1.42,5.46-3.04,4.74-7.06,2.89c-15.74-16.29-16.83,1.04-4.07,10.2l0.44,3.5
	c3.18,1.46,5.83,4.08,7.95,7.86l6.82,6.1l-0.26,2.92l2.86-1.26c9.22,9.52,16.15,8.6,5.39-3.57l1.24-2.89
	c0.31-5.82,10.6-1.34,12.11,2.56l2.08,3.11c-0.23,3.99-4.43,11.47-6.64,15.1c-3.26,5.35-9.64,15.64-15.82,15.04l-2.95,2.81
	c-6.32-1.09-12.33-0.84-18.03,0.75c4.91,6.05,10.42,11.54,16.53,16.46l0.63,4.13l1.49,2.69L198.15,1019
	c4.6-1.84,8.62-2.22,12.04-1.14c5.47,1.05,4.57,10.45-1.03,10.81l1.53,2.51l-19.76,28.97c6.14-1.52,11.43-1.18,15.89,1.04
	l-0.02,2.58c-3.84,5.3-8.24,10.12-13.21,14.44l9.3-2.49l1.84,2.46c2.65,4.06-1.44,8.53-5.31,10.44l1.51,2.93
	c-7.46,9.55-14.56,19.27-21.31,29.16c-0.12,2.99-1.12,4.96-3.01,5.91c5.29,0.61,5.7,14.7,1.69,17.1l-1.52,0.24
	c-0.4,0.02-0.97,0.08-1.34-0.05c-2.72-1.82-5.41-3.68-8.05-5.6l-3.71-0.34c-5.01-7.68-9.44-15.7-13.29-24.05
	c-7.93-19.93-37.04-25.74-56.08-23.51c-2.15,0.25-1.29,6.57-0.28,8c20.55,29.34,51.64,54.55,83.84,70.08l4.3,4.82
	c2.97,2.44,7.98,6.12,6.21,10.45c-21.57,1.75-40.67-3.4-62.2-6.71c3.83,6.19,7.38,13.5,7.31,21.27l-63.15-28.17
	c-0.29,19.45,0.86,38.18,1.74,56.82l2.78,3.31c0.44,3.78,0.88,27.31,0.34,29.74c-0.71,3.16-1.09,3.41-4.01,4.44
	c-1.96,0.69-39.86-5.12-40.76-6.99c-2.08-4.33-0.99-27.25-0.26-33.53l3.15-3.86l-1.9-6.41c1.85-13.31,2.01-26.39,0.5-39.22
	c-9.23,6.21-18.89,11.4-28.98,15.57l-2.94-2.1v-66.96l1.38-3.75c7.48-4.52,14.71-10.72,19.47-17.53c-6.29-0.09-12.58,0.3-18.86,1.17
	L0,1098.21v-70.98l2.4-8.1l13.66-16.43c12.06-16.6,0.56-17.31-13.65-13.73L0,987.05v-60.27l1.59-4.43
	c7.14-5.14,10.71-11.38,10.72-18.71l2.24-2.07c-0.32-2.17,0.84-3.36,3.49-3.58c0.03-3.04,0.84-5.65,2.43-7.84
	c8.84-0.55,17.2,0.64,25.07,3.59l16.06-8.5l2.91,1.49l1.58,3.03c-4.68,11.19,1.1,18.22,9.71,24.76
	c8.28,4.87,16.26,10.15,23.97,15.82c7.08,13.52,16.27,25.1,27.56,34.72l1.08,4.22c0.03,2.62-2.32,4.66-7.05,6.12
	c2.77,6.87,4.95,13.86,6.55,20.98l-2.74,1.54l-4.28,0.24c-6.72-4.64-29.51-14.28-36.62-12.56c-1.72,0.42-0.79,8.57-0.33,10.17
	c5.11,17.92,24.29,40.18,37.65,53.04c14.86,10.69,29.27,21.79,43.23,33.3c4.6,4.03,8.11,4.94,10.55,2.73
	c-5-6.22-8.93-13.4-11.79-21.54c-10.37-18.47-21.11-36.63-32.23-54.48l0-3.28l1.43-4.05l11.05-7.52c3.61-4.06,7.48-6.36,11.61-6.9
	c2.49-0.95,3.73-1.42,3.73-1.42c-6.68-14.06-13.63-28-20.87-41.81l0.89-4.8l0.34-4.06c6.62-7.74,12.33-16.14,17.12-25.21
	l-15.76,7.79l-2.95-1.49c-0.78-0.22-1.53-0.48-2.17-0.9c-3.55-2.29,1.4-15.68,3.52-19.19c-1.29-0.25-1.43-0.8-0.41-1.63
	c-3.23-2.15-2.62-5.72,1.84-10.71c7.55-7.45,12.41-15.75,14.56-24.9c-1.99-2.94-2.84-5.63-2.57-8.07c-2.53-2.19-1.8-5.57,2.2-10.14
	c-1.56-2.33-1.81-4.3-0.74-5.93c-3.8-7.44,5.98-10.29,12.54-6.58l3.05-7.53C173.94,814.11,188.86,823.97,189.08,830.29z"/>
<path class="st4" d="M1138.58,823.57c0.91,0.72,1.8,1.5,2.36,2.54c1.74,3.23,6.12,14.91,1.72,16.24c0.99,3.31,1.87,6.73,2.63,10.26
	l5.59,7.93l-0.54,3.25l1.84,2.3l-28.76,57.25c15.58-11.15,28.42-25.6,39.23-41.37c3.27-3.35,4.28-1.09,5.83,3.04
	c-3.48,27.54,9.22,45.58,28.82,63.14l2.69,6.67v62l-2.16,2.22c-23.2-7.55-18.09,6.29-7.54,20.55c4.65,3.97,7.88,8.5,9.7,13.61v32.82
	l-3.17,1.7c-2.46-1.81-27.73-9.42-27.91-6.97c-0.9,12.47,18.99,40.23,29.06,48.31l2.02,5.18v48.39l-2.46,1.86l-27.8-11.85
	c1.15,2.75,0.72,4.76-1.3,6.03c-0.53,5.72,1.71,12.02,5.69,17.58c-6.65,4.4-12.2-4.47-17.32-4.46
	c-15.93,0.03-51.07-15.89-52.32-27.72c-2.22-4.07,3.17-10.58,7.12-7.22l2.81-3.47c-2.75-2.33-2.51-3.14,1.05-2.85l2.7-8.47
	c8.51-10.53,16.49-21.43,23.94-32.71c-9.83,3.94-19.89,6.98-30.17,9.11l-2.82-2.47c-0.72,4.1-9.69,3.22-10.77-0.32l-1.24,2.1
	c-6.62-1.23-11.33,0.96-14.13,6.57c-2.09,5.72-5.04,9.85-8.85,12.41c-7.4,2.06-15.14,4.29-22.49,6.69l-2.71-1.46l-0.32-22.11
	c-3.02-0.56-4.29-2.04-3.8-4.44l3.53-4.58c28.74-15.55,57.52-39.93,78.44-65.13c1.66-2-18.95-4.28-20.35-3.43l-1.49-2.8l-1.05-3.4
	c10.68-12.28,23.01-23.09,36.99-32.43c15.58-13.74,4.07-20.16-11.31-22.83l-1.83-3.08l-0.65-3.25l15.58-15.77
	c2.92-3.53,15.49-20.69,3.67-21.53c-12.07-0.86-38.5,30.52-46.28,40.15l-3.42,0.08l-3.47-1.2c-3.47-11.39-8.51-21.73-15.12-31.02
	l0.2-3.58c-1.61-2.06-0.85-2.79,1.37-1.37c5.72,1.08,10.21-2.66,13.49-11.23l9.69-18.73c-9.94,9.21-27.16,7.07-14.82-8.03
	c5.47,1.98,11.46-11.75,4.81-12.86c-2.59,0.19-2.57-0.84,0.03-1.54c0.75-2.5,3.01-3.94,6.77-4.32c7.09-1.89,11.73-5.52,13.91-10.9
	c-0.54-5.39-0.37-10.62,0.51-15.7c12.05-12.59,10.62-18.47-4.3-17.62l-1.73-2.5c-5.48-2.57,0.09-11.34,4.98-12.58
	c1.93-1.66,4.82-2.55,8.64-2.66l3.77-3.41C1129.59,807.62,1135.65,817.26,1138.58,823.57z"/>
<path class="st5" d="M1200,650.97v123.98l-4.18,2.73c-8.9,0.99-50.73,3.63-55.31-0.25c-0.7-0.6-1.29-1.33-1.85-2.1
	c-1.19,0.03-1.27-0.37-0.32-1.16l-1.39-1.41l-3.18-0.71c-1.13-4.74-2.77-8.41-4.91-11.02l-8.76,19.28l-3.22,0.61l-3.86,2.03
	c-19.59-0.24-39.24,0.5-58.95,2.21l-2.86-1.14c1.95-13.06,5.97-25.63,12.04-37.72l-1.31-2.22c-17.76,2.11-35.55,3.86-53.38,5.32
	c-1.46,0.12-2.96-0.23-4.51-0.58c-1.56-0.36-3.07-0.9-4.57-1.5l-1.77-0.24c0.55-20.13,1.88-40.55,4-61.26l2.8-1.35l2.39-2.32
	c17.15-4.12,34.67-6.19,52.57-6.22c-0.49-5.13,7.35-8.73,12.56-9.65c38.14-6.75,76.39-12.53,115-16.57c2.1-0.22,4.26-0.03,6.43,0.18
	C1195.66,650.1,1197.83,650.51,1200,650.97z"/>
<path class="st6" d="M179.39,508.97l2.41-1.61c9.31,3.38,20.04,6.03,29.98,6.18c5.06,0.08,8.65-0.4,12.94-3.23
	c4.17-1.14,6.22,3.19,2.34,5.39l2.58,2.55c-1.02,10.2,0.44,20.35,2.7,29.93c18.55,0.22,37.07,1.59,55.55,4.1
	c49.7,6.93,99.43,13.2,149.2,18.81l4.93,2.06l1.82-2.51l13.35,2.56l1.66,2.53l2.71,0.81c0.58,15.77,1.15,31.54,1.73,47.32
	l-2.62,1.68c-0.15,1.04-0.67,2.59-1.32,2.51c-39.46-5.1-80.05-12-119.05-19.01c-1.65-9.23-8.26-14.17-19.85-14.82l-1.36-3.16
	l-6.69-0.15c-51.59-15.23-103.41-23.47-156.4-31.59c-4.36-0.67-8.5-2.29-12.54-4.01c-1.22-0.12-2.45-0.62-2.73-1.76
	c-0.13-7.4-1.54-9.39-8.34-12c-2.92-1.12-5.97-2-9.01-2.8c-6.86-1.79-13.79-3.33-20.78-4.68c-33.13-6.41-66.96-10.73-100.26-14.2
	L0,516.96v-38.84c2.58-0.38,5.16-0.71,7.76-0.83c2.59-0.12,5.15-0.23,7.64,0.11c50.14,6.86,99.91,16.47,149.58,26.13
	c2.47,0.48,4.87,1.37,7.29,2.28C174.69,506.73,177.05,507.82,179.39,508.97z"/>
<path class="st7" d="M385.52,1486.65c2.86,1.88,5.9,3.45,9.11,4.73c40.71,0.25,81.5-0.53,122.37-2.36
	c25.81,2.22,51.47,3.03,76.97,2.44c8.17,2.32,16.06,3.02,23.65,2.1c5.74-3.62,11.46-6.19,13.26,2.4c3.73,2.22,5.13,12.25,1.38,14.83
	c18.71,11.92,38.97,21.45,60.78,28.58l0.82,3.49H207.59L385.52,1486.65z"/>
<path class="st5" d="M1200,507.01v70.34l-2.45,3.08c-7.69,0.7-15.13,2.4-22.3,5.11l-1.18,35.66c0,0-1.11,1.11-3.33,3.34
	l-138.44,13.8c-6.39-0.72-11.32-5.47-5.07-8.93c0.86-23.72,2.47-47.48,5.02-71.09c0.44-4.08,1.92-7.95,3.45-11.73
	c3.55-4.37,8.99-6.76,16.31-7.17c16.83-2.59,33.73-4.63,50.69-6.12c0,0,4.77-5.92,14.32-17.76c24.55-5.06,49.59-7.96,74.54-10.27
	c1.35-0.13,2.75,0.14,4.17,0.43C1197.18,506,1198.6,506.48,1200,507.01z"/>
<path class="st4" d="M571.95,1323.35c9.06,7.18,0.86,17.86-9.43,18.34l-50.64,5.02c0.31,6.93-1.67,11.86-5.93,14.77l-156.4,18.57
	c-1.3,11.22-4.22,18.25-17.33,16.56c-1.41,3.54-3.71,3.43-5.43,0.2c-0.44,1.34-1.61,1.94-2.68,0.84c-0.82,3.3-5.29,3.55-6.7,0.45
	c-0.17,2.05-2.55,1.81-4.02,0.9l-0.69,2.75l-141.78,11.95c3.19,11.08,2.38,22.99-9.66,27.88L2.14,1474.17l-2.14-2.3v-44.2
	l167.52-17.69c-13.08-8.17-25.51-12.23-37.56-16.17c-2.75-2.58,1.06-6.77,3.93-7.21c8.12-1.24,16.28-2.37,24.49-3.26
	c61.54-6.71,123.28-10.88,185.04-14.84c2.08-5.77,2.41-11.96,1.01-18.56c1.15-1.4,2.51-2.53,4.09-3.39l157.13-7.46
	c0.17-5.52,0.84-10.9,2.02-16.12l2.82-1.17l59.81-1.1L571.95,1323.35z"/>
<path class="st8" d="M332.22,1396.61c11.6-0.92,25.57,6.56,34.11,14.12c15.16,2.25,30.52,2.84,46.08,1.76
	c3.61,0.64,7.26,1.35,6.38,5.76l-138.3,35.67c-42.22,10.89-85.47,14.2-125.18,29.05c0.5,2.02,0.07,2.71-1.26,3.7
	c-2.15,1.6-7.94,1.79-10.77,1.87c-33.42-3.16-67.15-5-101.21-5.51c-13.19-2.43-26.43-2.14-39.72,0.87L0,1481.25v-9.38l158.94-32.44
	c6.02-1.23,9.5-6.72,10.42-10.54c1.38-5.71-0.21-11.46-2.24-17.57l146.27-12.33c1.78,0.69,3.12,0.39,4.02-0.9
	c1.96-0.41,4.78-1.23,6.7-0.45l2.68-0.84C328.49,1396.17,330.46,1396.63,332.22,1396.61z"/>
<path class="st7" d="M155.31,1482.97c40.36-0.18,80.78,0.12,121.64,2.79c9.5,0.62,18.11,2.47,26.89,6.58
	c-30.26,19.13-86.8,31.29-119.29,50.52H0v-61.61c11,0.18,20.07-4.44,31.41-2.43c31.8,5.64,65.01,0.68,98.53,5.57
	C138.76,1485.67,148.34,1487.51,155.31,1482.97z"/>
<path class="st5" d="M63.03,420.57c2.61-0.44,3.91-0.66,3.91-0.66l-2.87-17.01c-1.54-8.79-0.03-12.82,4.55-12.09
	c1.29-3.38,4.59-4.73,9.89-4.06c19.51,2.43,38.81,5.67,57.93,9.7l1.4,2.99c3.27,1.45,5.93,4.45,7.99,9
	c5.9,6.06,10.75,12.49,14.53,19.29l-0.88,1.99c2.58,1.26,4.39,2.73,5.45,4.41c9.22,22.25,14.71,45.68,16.49,70.28l-2.03,4.57
	C119.75,497.85,60.23,485.45,0,478.12V377.68c6.62-0.99,11.93,2.05,15.71,6.69c3.63,4.47,2.16,12.94,3.95,18.08
	c10.19,12.32,16.91,24.53,21.47,41.61l6.75-29.53C52.58,411.41,59.35,417.55,63.03,420.57z"/>
<path class="st2" d="M33.32,1220.11c-1.63,11.63-0.92,23.5-1.03,36.19l40.48,5.7c-1.64-12.57-0.15-23.83-0.68-35.02
	c53.72,6.29,103.21,32.1,157,46.14c7.89,2.06,15.92,6.01,18.64,14.15c-25.95,10.07-50.62,4.97-77.1-3.52
	c5.43,11.03,17.64,11.04,24.55,21.64c-67.17,2.65-131.21-8.99-195.19-23.69v-68.3l3.55-2.26c9.42,0.77,18.63,2.53,27.64,5.29
	L33.32,1220.11z"/>
<path class="st9" d="M41.7,107.04c4.04-1.07,7.77,13.93,7.44,16.13c-0.74,4.97-6.19,3.72-9.49,0.82l10.65,29.96l-1.87,2.74
	c3.34,7.38,6.2,15.11,2.78,23.43c2.62-1.41,14.54-6.4,16.49-5.11c1.9,1.26,2.91,2.44,2.77,4.86l-26.78,42.18l9.77-4.21
	c4.79-1.59,11.05-3.33,10.48,3.68c-11.02,17.11-21.8,34.33-32.33,51.67c5.45-0.35,10.11,0.49,13.99,2.52l0.13,3.48L12.97,335.3
	l-3.55,0.77c-3.13-0.42-6.23-1.14-9.41-1.25V89.73l18.1-53.81C26.22,60.59,31.5,84.62,41.7,107.04z"/>
<path class="st6" d="M1200,577.35v73.62c-42.21,4.66-84.42,9.54-126.66,17.78c-6.08,1.19-10.56,2.99-12.67,9.25
	c-19.29,1.83-37.98,2.53-56.16,6.48c-1.05-0.16-2.63-0.62-2.62-1.36c0.35-25.84,1.69-54.52,3.74-80.3l2.75-1.48
	c3.83-3.63,13.7-4.03,17.37-0.09l2.57,1.38l-1.09,26.8c0.08,1.44-0.36,3.2,0.42,4.56c0.7,1.23,2.8,1.89,5.1,1.66l138.65-13.84
	l1.24-38.27C1181.7,579.61,1191.05,578.76,1200,577.35z"/>
<path class="st9" d="M1200,53.57v259.41c-2.97,0.93-6.43-0.16-9.37,0.51l-3.82-0.68c-1.7-1.33-19.55-25.95-19.72-27.64
	c-0.77-7.49,11.94-2.66,15.46,0.15l-23.69-42.87c-0.03-4.82,0.02-6.08,0.14-3.65c5.43-1.49,11.44-0.94,18.03,1.63
	c-10.49-13.11-20.39-26.64-29.71-40.58c-1.75-3.65,0.05-4.6,3.54-5.51l14.23,6.64c-4.48-7.21-8.33-14.72-11.55-22.54l1.94-3.1
	l-1.54-3.6l11.33-31.14l-10.58,5.51l-2.89-1.5c-2.34,2.07-4.28,0.09-2.39-2.53L1178,87.3l-14.49,7.2l26.37-74.45L1200,53.57z"/>
<path class="st5" d="M143.45,555.28c0.18,3.54-0.81,3.6-2.85,0.73l-3.61,1.61c-15.06-2.67-30.4-2.89-46.04-0.66
	c-2.22,17.83-6.68,34.8-13.4,50.9c-13.8-0.26-27.66-1.44-41.59-3.53l-1.65-2.88c-1.6,1.57-2.4,2.36-2.4,2.36
	c-9.8-3.42-19.66-5.67-29.58-6.73L0,594.64v-77.68c19.77,1.45,131.88,15.06,140.63,26.13C143.22,546.38,143.37,551.53,143.45,555.28
	z"/>
<path class="st4" d="M77.69,787.46c3.06,2.95,5.16,5.27,6.11,9.4c0.83,3.59,0.83,14.02-3.53,14.58c-1.77,1.86-4.29,1.65-7.56-0.63
	c-0.38-2.94-7.3-3.21-6.91-1.67c4.66,18.43,14.45,36.73,26.4,51.48l0.53,4.64c4.45,1.52,9.32,4.41,9.51,10.09
	c4.76-3.19,13.34,9.07,15.42,13.33l-1.09,3.01c5.15,5.22-4.63,9.16-9.35,8.3c-0.77,0.84-2.04,1.77-2.79,1.26
	c-9.84-9.72-20.75-15.58-32.71-17.58c-2.55,2.1-4.96,3.12-7.21,3.05l-19.38,10.25c-8.07-6.19-15.85-1.46-23.49-5.24
	c-0.86,3.93-0.34,5.66-1.48,7.79c-0.89,1.66-3.89,1.38-5.6,2.05c-0.35,1.21-0.77,1.18-1.24-0.03l-2.43-1.5
	c2.52-2.5-4.88-1.44-5.52,0.06c-0.3,3.54-1.22,3.44-2.68,0.27c-1.38,0.17-2.5-0.27-2.68-1.72v-37.5c1.02-3.85,6.42-6.9,10.15-8.04
	l14.15-19.46c6.18-9.51,18.26-28.65,1.23-32.81c-2.27,0.65-4.77-0.2-7.49-2.56c-3.45-0.47-5.86-1.81-7.23-4.02
	c0.14-1.12,0.32-2.23,0.68-3.28c3.01-8.78,27.84-25.74,36.8-31.03c8.49,8.82,17.74,16.64,27.76,23.46L77.69,787.46z"/>
<path class="st6" d="M1200,442.07v64.94c-27.13,3.15-54.5,5.31-81.85,10.82l-14.37,17.77c-23.51,3.62-46.86,3.34-68.08,10.99
	c-1.04-0.06-2.61-0.41-2.62-1.07c-0.11-11.34,1.12-26.02,2.25-37.42c-0.62-5.43,0.48-8.83,3.3-10.19l1.23-2.84
	c8.25,0.57,15.17-1.2,20.78-5.31l2.96,0.45c2.12,1.07,4.28,1.85,6.48,2.36c24.04-1.64,48.08-3.85,72.13-6.61l12.08-3.68
	c0.99-18.39,1.49-27.59,1.49-27.59l2.57-3.47C1169.44,443.76,1186.73,440.4,1200,442.07z"/>
<path class="st4" d="M996.48,1502.48c0.58,0.26,1.11,0.57,1.48,1c1.07,1.25-13.71,24.94-15.84,28.26
	c-2.23,5.55-5.48,9.25-9.75,11.11h-63c-27.99-1.36-56.43-2.78-84.3-6.39l-1.3-2.83c-5.68-4.98-7.96-15.87-9.29-23.5
	c-2.19-6.18-1.78-10.98,1.24-14.38l7.5-1.81c39.66-0.81,79.24,0.27,118.73,3.24c17.29-1.01,34.45-0.41,51.48,1.81L996.48,1502.48z"
	/>
<path class="st10" d="M1200,335v107.07c-13.97,2.86-28.02,5.44-41.66,9.17c-1.15,5.05-18.82,5.9-22.42,4.59
	c-2.24-0.81-3.31-1.51-3.75-3.98l0.98-81.21l2.74-4.71c12.76-0.58,18.83-9.87,23.68-22.25C1172.75,338.43,1186.82,337.64,1200,335z"
	/>
<path class="st1" d="M1200,904.02v50.8c-28.1-29.49-35.73-32.66-34.08-73.28c-12.5,19.67-29.03,36.83-49.71,50.21l34.13-67.96
	c-1.32-2.91-0.76-6.47,1.68-10.68c-0.08-3.72,0.81-6.39,2.66-8c-2-3.47-0.96-4.14,2.63-2.49c-0.7-0.34-1.28-0.71-1.45-1.22
	c-0.49-1.5,9.01-28.69,10.29-29.61c2.64-2.16,4.53-3.09,6.42,0.14c7.93,26.86,16.17,53.59,24.74,80.19L1200,904.02z"/>
<path class="st11" d="M1000.36,1542.86h-14.58l-0.49-4.47l20.66-29.63c10.13-14.13,8.92-16.41-3.62-6.84l-3.33-1.74
	c-1.74-1.74-2.61-2.61-2.61-2.61c4.15-8.59,8.73-16.92,13.74-24.99c29.99-1.19,59.87,1.44,91.54,2.56
	C1071.02,1503.42,1036.49,1524.75,1000.36,1542.86z"/>
<path class="st6" d="M1200,774.95v129.07c-16.81-32.23-17.34-60.39-30.65-93.08l-12.03,31.69c-7.9,2.06-8.18-9.53-5.47-14.32
	c3.28-2.74,3.29-6.52,0.04-11.34l-5.57-10.34l1.55-2.99c-0.63-0.09-1.24-0.29-1.76-0.69c-2.03-1.53-8.95-21.56-9.38-24.96l1.95-2.66
	C1158.77,778.72,1179.52,774.99,1200,774.95z"/>
<path class="st9" d="M792.78,1524.87c2.76-3.16,7.11-3.59,13.07-1.27c7.62,1.61,13.6,4.95,17.93,10.03l85.59,9.23H693.87
	c-10.65-6.47-60.39-19.98-61.61-32.07l5.44-0.8c37.6,6.15,75.43,10.24,113.49,12.27C765.45,1521.59,779.31,1522.46,792.78,1524.87z"
	/>
<path class="st6" d="M34.31,601.46l3.4,2.81c2.14,15.1,5.62,29.81,10.44,44.13l-1.02,4.12c1.24,0.81,1.69,2.86,1.62,4.28
	c-0.14,2.89-5.79,23.77-7.12,24.59c-0.53,0.33-1.22,0.4-1.95,0.41l-1.49,2.54c-12.17-1.26-24.35-2.52-36.52-3.78L0,677.68v-83.04
	C11.86,592.8,23.74,600.28,34.31,601.46z"/>
<path class="st5" d="M39.69,681.79c0.35,5.6,0.53,8.4,0.53,8.4c-8.12,29.15-20.07,56.96-31.98,84.7c-0.51,1.19-1.43,2.21-2.38,3.27
	c-0.96,1.07-2.06,2.01-3.2,2.92c2.59,3.74,0.76,4.85-2.66,2.41v-105.8L39.69,681.79z"/>
<path class="st1" d="M33.32,1220.11c-10.47-4.37-22.08-5.27-33.32-6.71v-25.45c12.65-2.24,21.81-12.72,35.53-18
	C35.95,1186.97,35.59,1203.88,33.32,1220.11z"/>
<path class="st11" d="M1200,1086.01v48.21c-16.64-13.15-30.71-33.94-34.34-56.37C1178.93,1076.94,1189.56,1082.33,1200,1086.01z"/>
<path class="st11" d="M1200,1182.62v40.29c-13.61-12.13-21.91-28.86-31.56-44.25c-0.71-2.7-2.22-6.92-1.15-9.99L1200,1182.62z"/>
<path class="st1" d="M985.78,1542.86h-13.4l24.11-40.38c-1.52-3.1-0.62-3.46,2.52-2.31c6.44-1.28,9.97-8.3,18.45-7.97
	C1010.32,1511.72,995.38,1525.76,985.78,1542.86z"/>
<path class="st11" d="M0,1027.23v-40.18c4.2-1.87,10.54-3.1,14.99-2.48c3.36,0.47,11.22,3.62,9.08,9.24
	C19.12,1006.84,6.87,1015.69,0,1027.23z"/>
<path class="st1" d="M10.15,853.12c-1.2,4.49-6.07,6.83-10.15,8.04v-25.45c1.69-5.22,10.11-19.58,14.21-22.24
	c1.15-0.75,2.65-0.62,3.99-0.44c11.78,4.31,11.55,10.68,5.97,20.88L10.15,853.12z"/>
<path class="st5" d="M10.81,794.27c4.85-0.36,11.48,1.97,14.73,6.58c1.24,3.6-2.72,13.17-7.34,12.18C11.49,820.13,7.03,829,0,835.71
	v-34.82c0.65-3.67,4.4-6.33,8-6.41C7.59,790.74,9.61,790.86,10.81,794.27z"/>
<path class="st11" d="M1200,1016.81v36.38c-8.93-8.05-19.38-18.46-21.41-30.91c-0.94-5.77,5.71-8.11,8.83-8.26
	C1191.73,1013.83,1195.87,1015.91,1200,1016.81z"/>
<path class="st11" d="M1200,1320.22v27.3c-12.99-9.81-19.65-25.85-29.46-39.39L1200,1320.22z"/>
<path class="st2" d="M0,1120.98v-22.77c8.54,0.13,16.76-3.09,26.35-0.08C18.3,1107.52,10.04,1116.12,0,1120.98z"/>
<path class="st2" d="M5.36,900.11c1.54-2.66,7.7-2.26,7.95,1.44c0.39-0.08,0.87,0.18,1.24,0.03C17.73,911.9,8.14,920.54,0,926.79
	v-25.45c0.11-1.85,1.17-2.04,2.68-0.96C3.49,900.11,4.5,900.21,5.36,900.11z"/>
<path class="st0" d="M9.15,785.99c2.51,2.17,1.64,6.94-1.14,8.49c-1.08,3.57-4.72,5.11-8,6.41v-17.41c1.29-0.42,2.15-1.22,2.66-2.41
	C5.8,780.33,10.7,782.18,9.15,785.99z"/>
<path class="st12" d="M850.06,280.04l2.53,1.7c12.24-15.26,14.35-1.85,6.42,11.54l-14.48,28.78l9.88-7.07
	c4.29-2.74,9.43-5.71,10.35,1.29l-29.7,63.02l11.65-4.87c2.14,0.42,3.39,1.86,3.94,3.97l-20.08,49.41l-4.2,3.21
	c-21.72,5.72-45.29,2.16-68.29,9.61c-55.06-0.18-110.52,0.96-166.14,9.15c-9.23,1.36-17.46,3.15-23.91-3.54l-4.56-4.3
	c-3.23-6.53-17.65-41.54-15.67-44.82c4.23-2.36,9.09-2.29,14.59,0.21c-5.61-10.37-11.1-21.07-16.46-32.11
	c-0.22-5.95,4.07-7.42,12.87-4.4c-6.16-10.71-11.27-21.87-15.32-33.48c1.07-4.46,4.73-5.14,10.97-2.05
	c-5.33-8.44-9.82-17.28-13.46-26.53l1.63-3.86c1.6-1.51,3.58-1.8,5.93-0.9c-1.57-3.4-6.4-15.61-4.95-18.51
	c0.52-1.03,1.7-1.57,2.79-2.03c59.66,1.06,138.42,41.58,194.25,66.63C776.86,318.54,811.33,294.32,850.06,280.04z"/>
<path class="st9" d="M1065.96,170.25c3.6,2.07,6.26,5.69,7.97,10.84c4,4.8,5.86,9.57,5.59,14.3c2.18,4-1.01,13.08-5.35,14.58
	c4.1,5.26,8.14,13.58,4.11,20.44l-0.26,5.86l-9.13,17.65l11.09-3.5c4.47-1.13,9.26-1.92,9.53,4.08l-21.2,43.03
	c5.04-1.3,10.32-2.2,11.07,4.33l-17.46,44.01l-4.91,5.06c-2.95,2.52-3.89,8.92-8.05,10.76c-7.91,2.64-16.56,2.69-24.47,3.68
	l-3.24-0.64c-1.2-1.27-14.24-30.19-14.07-31.93c0.6-5.92,8.62-2.33,11.86,0.07c-8.22-15.61-15.93-31.48-23.14-47.61
	c-2.64-8.43,5.53-9.85,12.29-9.41l-2.06-6.85c-1.84-2.64-2.08-4.87-0.72-6.69l-1.21-3.95l5.1-13.22
	c-7.43,4.82-15.16,4.23-13.23-4.82c5.63-9.82,11.65-19.4,18.07-28.74c-6.52,1.44-10.59,0.12-12.2-3.97
	c2.18-6.59,5.34-12.77,9.51-18.54c10.54-8.24,13.19-23.58,19.37-36.04l-14.38,7.54c5.58-9.73,9.9-19.43,13.3-30.26l-10.06,4.97
	l24.62-71.44c6.65,26.91,16.09,50.32,27.05,74.28l-13.07-5.79c1.27,10.86,7.46,19.66,13.23,29.33l-12.08-5.24
	C1058.25,162.64,1064.55,166.21,1065.96,170.25z"/>
<path class="st12" d="M245.1,136.59l0.67,4.18c-4.4,17.17-9.6,34.14-15.62,50.9c5.43-2.38,10.16-1.4,8.46,5.37
	c-8.21,19.63-16.67,39.08-25.39,58.33l13.3-0.26c2.33,1.69,2.36,2.21,2.37,5.03c0.01,1.89-16.65,29.02-19.14,32.68l-3.31,0.34
	c-0.94,0.45-2.49,0.91-2.81,0.34c-2.6-4.72-19.29-38.18-19.31-40.42l0.49-3.7c4.49-0.73,9.38-0.3,14.66,1.3l-9.95-23.2l1.71-2.81
	c-1.09-5.77,5.42-6.01,10.14-5.57c13.08,4.78,17.87,2.02,14.37-8.29c-2.67-6.33-4.87-12.81-6.62-19.45c0,0,1.05-2.49,3.14-7.48
	c-7.29-22.6-10.94-33.9-10.94-33.9c-2.09,11.37-5.25,22.4-9.5,33.08l-3.92,1.86l-3.39-1.33c-2.95-4.64-14.64-28.11-11.32-31.92
	c1.55-1.78,5.38-0.87,7.37,0.28c-5.69-17-11.44-33.9-17.25-50.7c-5.38,16.94-11.28,33.67-17.71,50.21c5.51-2.81,9.37-1.36,8.39,5.44
	c-3.83,10.19-8.51,20.01-14.04,29.44c8.66-4.57,13.49-3.82,14.47,2.24l-17.47,32.82c-2.74,2.03-4.73,2.79-6.59-0.49
	c-6.72-14.49-13.85-28.84-23.23-41.83c-1.85-7.74,4.77-6.12,9.98-4.51l8.88,3.78l-24.84-60.92c0.4-4.24,2.35-5.42,6.58-5.42
	c-4.42-11.44-7.98-23.11-10.67-35.02l0.98-3.04c18.51-2.35,35.71-0.79,53.22,7.95C184.11,98.29,214.55,117.38,245.1,136.59z"/>
<path class="st12" d="M522.33,271.83l1.88,2.46l-4.38,17.76c1.91,0.35,3.29,1.35,4.15,2.98l0.99,4.87c-3.84,8.7-8.17,17.14-13,25.33
	l11.58-4.85c2.32,0.45,2.97,2.07,3.66,4.18c0.59,1.82-15.38,33.04-16.65,34.48c-1.29,1.46-2.54,2.13-4.39,2.93
	c-1.08,0.13-2.73,0.26-3.06-0.47c-2.4-5.26-17.4-42.36-16.58-44.6c0.94-2.59,4.11-3.69,6.71-3.97c0,0-4.49-15.48-13.48-46.43
	c-5.64,17.23-10.45,34.82-14.44,52.77c-2.72,8.3-6.43,8.42-9.48,1.39c0,0-1.04-0.65-3.13-1.96l-3.8-2.27
	c-1.94-3.45-3.95-9.55-5.09-13.51c-4.14-14.39-4.62-18.93,10.25-11.93c-5.4-10.18-10.58-20.58-15.54-31.19
	c-2.94-8.68-4.41-19.24,8.02-13.08c-2.44-7.51-4.55-15.2-6.34-23.09l1.93-2.78C471.06,232.44,497.28,252.89,522.33,271.83z"/>
<path class="st12" d="M419.18,210.12l1.03,5.71c-3.25,10.46-6.27,20.79-9.08,30.98c8.44-6.53,12.58-6.32,12.42,0.62
	c-4.36,15.04-11.06,29.21-20.08,42.53c5.09-0.75,9.71-0.32,13.86,1.27c-0.82,9.52-4.79,18.4-11.91,26.64l-3.71,0.63l-2.69-1.62
	c-2.17-12.14-6.96-23.64-14.38-34.5c-0.38-6.03,2.1-7.1,7.64-5.64l-18.52-62.65c-3.29,15.77-7.05,31.55-11.76,46.99
	c-0.37,1.22-1.14,2.33-1.95,3.47c-0.83,1.15-1.8,2.19-2.83,3.21l-4.82-3.72c-5.06-8.77-18.42-32.45-20.02-40.71
	c-0.7-3.61-0.35-4.86,2.94-6.16l22.22,3.43l-12.39-28.41c0,0,0.03-1.29,0.08-3.87c2.94-0.94,5.74-2.04,8.4-3.32L419.18,210.12z"/>
<path class="st12" d="M885.71,252.01c19.06-5.76,37.58-16.47,54.65-27.07l1.92,3.79c-5.75,15.26-12.82,29.84-21.22,43.72l18.94-9.52
	c2.34,0.35,3.25,2.08,3.47,4.42l-32.61,62.99c3.36-1.07,15.65-3.72,16.42,1.5c0.49,3.36-23.66,42.18-30.16,45.77
	c-0.93,0.39-1.85,0.67-2.71,0.56c-9.05-1.21,3.58-22.43,7.46-25.24c-4.3-11-8.72-21.98-13.27-32.92c0.26-5.63,4.54-6.15,12.83-1.58
	c-3.07-5.56-16.82-36.1-13.67-38.77c1.33-1.12,4.32-1.39,5.84-0.41c-2.99-7.84-6.19-15.72-9.6-23.64L885.71,252.01z"/>
<path class="st12" d="M300.37,170.04l1.31,2.63l-5.92,11.14c2.07-0.55,5.37,0.45,6.22,2.3c1.68,3.67-10.86,31.93-17.12,34.86
	c1.09,5.11-5.71,10.58-9.46,5.36c-2.28-3.17-12.1-25.11-13.15-29.12c-1.61-6.15,2.77-7.51,7.8-5.21c-7.9-14.85-12.67-30.19-14.33-46
	l1.5-2.4C271.97,151.63,287.59,159.28,300.37,170.04z"/>
<path class="st12" d="M72.26,91.18l1.59,4.23l-4.76,14.35c3.37,1.39,4.72,2.4,4.93,6.29c0.43,8.16-12.16,41.46-17.69,47.32
	c-4.74,5.02-6.8-2.21-7.9-6.68l-15.27-42.93c5.83,2.44,5.87,9.15,13.78,10.81c-1.9-5.8-2.93-12.44-5.24-17.53
	C52.1,102.11,61.3,94.77,72.26,91.18z"/>
<path class="st12" d="M1005.4,262.32c-3.12,0.82-5.45-1.03-6.98-5.56c-2.36-4.19-6.8-14.36-4.34-18.12
	c0.86-5.78,0.41-11.58-1.36-17.38l2.13-2.97c-3.23-3.14-8.28-9.67-2.89-12.37c4.92-7.36,12.86-11.66,19.47-16.83
	c1.31,6.55-5.34,11.74-7.32,19.26c4.56,2.26,9.86-0.15,15.82-0.72l-24.68,37.63c8.35,2.53,12-4.06,18.78-4.11L1005.4,262.32z"/>
<path class="st12" d="M1098.39,160.51c0.86,0.61,2.09,1.66,1.78,2.34c-4.3,9.5-11.78,23.28-17.37,32.09l-3.29,0.44
	c-5.07-8.16-10.43-16.15-13.55-25.14C1076.9,167.47,1087.11,161.81,1098.39,160.51z"/>
<path class="st6" d="M196.99,669.64c2.06,0.35,3.45,2.41,4.16,6.19c59.53,8.42,119.31,16.57,179.34,24.44l1.26,2.87l1.61,4.51
	c-2.35,13.23-4.1,26.57-5.27,40.02l-1.72,2.71c28.94,3.74,57.9,7.36,86.86,10.86l4.24,2.14c0.71,0.54,1.37,1.12,1.89,1.8
	c2.14,2.81,1.83,24.31,1.01,29.22c1.6,0.56,2.57,2.22,2.91,4.98l0.85,18.18c-0.46-6.62,0.86-11.9,3.96-15.84
	c-1.75-4.26,2-13.67,6.44-14.66l0.1-19.69l2.81-2.83c6.91-3.1,18.52-2.71,24.94,1.36l2.68,1.25c0.01,32.96,0.02,65.94,0.03,98.92
	l-2.68,1.62l-1.13,2.6l-167.95-12.4c-3.96,2.3-11.96,45.95-12.67,54.32c-2.48,4.88-2.48,5.47,3.75,3.73
	c57.41,6.41,114.85,12.05,172.34,16.93l6.07,1.99l2.67,0.94c-0.28,50.42-0.56,100.86-0.84,151.3l-2.69,1.61
	c-38.72-2.05-77.89,10.21-98.02,44.3c2.44,4.7-5.4,15.05-10.59,13.53l-4.4,0.97c-19.89-7.15-42.51,2.34-54.01,19.51l-3.54,0.68
	l-0.38,3.32c-10.7,3.55-21.26,7.38-31.67,11.52l-26.48,5.44c-9.52,1.96-18.7-8.89-28.38-10.84c-3.79-1.71-5.55-5.66-5.29-11.87
	c-0.55-4.37-1-26.96,0.03-29.81c1.07-2.97,2.48-3.03,5.51-2.31l12.56,8.5c-0.23-5.15,1.24-7.97,4.41-8.49
	c5.64,2.83,11.29,5.07,16.94,6.72c-0.82-5.87,0.7-9.18,4.57-9.91l18.19,7.1c-2.28-3.32-2.42-5.92-0.42-7.8
	c0.44-2.3,2.28-2.99,5.52-2.07l-33.38-45.4c-0.41-6.07,5.63-5.36,10.31-4.79c-2.95-2.62-4.77-5.32-5.44-8.11
	c-6.29-3.25-7.99-6.41-5.1-9.49l2.52-1.94c1.05,1.06,18.58,7.18,18.35,5.62c-0.75-4.98-11.66-18.76-15.7-22.99l-0.16-3.57
	c-4.02-2.85-4.43-5.02-1.22-6.52c1.62-1.98,4.34-1.56,8.16,1.27l143.3,9.68c0.17-8.27-1.41-19.64-8.18-25.99l-57.72-7.06
	c-1.27-1.8-0.65-3.57,0.49-5.4l122.75,5.79c0.38-7.38-1.59-16.18-5.44-23.11c-15.94-1.76-31.8-4.03-47.57-6.8
	c-2.14-8.42-5.3-16.06-9.47-22.92l-163.82-8.65l-1.5-2.76c-8.22-0.4-6.04-14.78,3.9-11.79c-2.02-5.39-4.69-10.69-8-15.89l1.47-3.15
	c-0.95-0.49-1.87-1.02-2.67-1.7c-0.79-0.67-1.53-1.29-1.82-2.06c-4.77-12.89-9.11-25.91-13.36-38.96l-18.29,49.79l-3.71,2.32
	c4.36,2.84-4.53,12.56-8.02,9.26c-2.95-1.48-5-4.43-6.13-8.85c-3.27-3.79-4.78-7.46-4.53-11.03c-2.43-2.65-3.98-7.94-5.12-10.55
	c-1.75-4.01,4.02-7.26,7.6-8.16c1.55-2.45,3.99-2.05,7.34,1.2l-14.44-25.17l1.35-3.04c0.69-13.62-12.34-22.86-14.17-36
	c2.13-2.06,5.66-1.43,10.58,1.91l-8.73-15.37l1.89-2.55l-4.16-3.97l-12.29-36.61c0,0,0.54-1.19,1.63-3.56l1.38-2.6l68.65,3.88
	c-4.25-15.03-9.86-29.48-16.84-43.35l-101.68-14.03c-20.68-16.6-41.2-25.03-67.73-26.62l-2.77-3.15l-3.16-1.54
	c-2.19-4.45-6.78-18.27-2.24-21.06c2.72-1.05,5.02,0.48,6.91,4.58l131.27,10.09C192.42,671.8,194.16,669.57,196.99,669.64z"/>
<path class="st2" d="M672.35,1017.6l4.25-0.31c8.86,5.3,34.26,28.54,34.37,38.17c0.02,1.51-0.39,2.87-1.31,4.08
	c0.76,6.41-0.73,12.87-4.48,19.37c-10.09,18.17-15.87,37.31-17.32,57.41l4.65-12.15l3.18-0.82l2.79,1.67l-0.8,19.89l9.04-24.91
	c6.62-12.98,23.49-20.94,29.85-3.82c4.73-11.9,13.86-19.98,27.39-24.24c13.29-10.61,27.25-15.95,33.38,4.3
	c1.26,8.78,3.11,17.39,5.53,25.82c-0.45-11.04,0.31-21.75,2.27-32.14c4.33-6.11,10.32-9.03,17.95-8.78
	c-13.68-9.28-28.63-16.6-44.84-21.98l-1.51-3.69l3.13-2.97l15.68-0.88c5.54-0.87,9.59,0.31,12.16,3.55
	c7.47-3.78,19.79,2.16,27.28,5.99c21.15,10.84,35.49,30.09,40.79,53.2c2.46,0.88,5.4,1.05,8.84,0.5
	c14.51,2.56,27.03,10.22,37.55,22.98c8.4,6.55,17.93,11.55,28.59,14.99c6.37,3.54,18.4,11.62,13.52,19.18
	c-20.66,6.75-38.13,11.42-61.92,9.08c-41.05-4.05-82.2-3.41-123.99-3.75c15.64-10.26,33.42-13.74,48.86-20.05l28.3-11.56
	c15.11-6.17,29.99,8.76,42.36,19.28c-0.82-34.05-60.77-43.19-90.78-32.31c-19.56,7.09-32.72,24.2-33.57,45.59l-29.55-0.33
	c-19.66-13.89-42.03-17.67-66.78-12.63c-35.57-43.44-110.04-42.9-143.69,6.62c26.45-7.01,53.95-1.06,81.42-4.98
	c18.72-2.68,38.4-7.44,56.42,8.17c-31.45,3.93-59.74,2.84-90.23,2.67l-153.05-0.86c-6.02-20.7,28.79-54.71,38.45-53.43
	c14.03,1.86,12.52,34.91,18.68,45.94c5.1-11.55,3.38-22.62,4.01-35.89c47.33-16.35,25.78-23.39,88.12-17.16
	c-7.87-13.96-22.8-20.48-37.53-24.98c-3.55-3.25-4.49-8.29-2.81-15.12c0.51-5.61,1.34-14.81,6.46-17.14
	c-3.31-2.66-1.42-5.28,2.67-3.99c6.56-8.49,19.02-14.65,29.06-17.5c3.56,7.04,4.55,15.04,2.97,23.99l7.97-19.78
	c8.05-5.44,20.27-4.97,26.03,3.54l5.58,32.23c2.71-19.21,10.89-52.65,35.32-49.7l26.62,16.67c-0.85-7.16-5.29-13.36-13.32-18.59
	c-3.17-3.13-7.08-9.32-1.03-10.34C667.78,1012.47,672.28,1013.25,672.35,1017.6z"/>
<path class="st6" d="M823.51,707.23l2.7,1.19l1.3,72.61c0.96,3.34,3.94,5.51,8.92,6.53c1.95,67.05,4.99,133.98,9.31,200.94
	c1.16,18,2.82,35.82,5.98,53.14c1.61-28.09,3.3-56.11,5.08-84.07l1.99-4l0.47-13.5c1.88-23.14,12.19-7.95,11.79,5.07
	c3.62-5.21,5.19-11.36,4.69-18.47l2.77-1.44l1-2.78c29.5-2.59,59.01-5.17,88.53-7.76l1.83,2.53c3.66,1.1,2.74,12.94-0.28,14.87
	l-4.61,3.28c-23.57,2.65-46.34,6.81-68.37,15.82c-4.91,2.01-4.08,20.45-2.95,25.1c5.95-0.82,11.85-2.02,17.71-3.59
	c8.39-1.5,12.54,3.49,12.43,14.97c9.12,3.33,18.14,0.37,27.04-8.87c7.89-6.75,60.61-14.38,65.62-9.55c1.84,1.78,2.26,2.26-0.01,4.44
	c3.52,3.1,0.31,8.28-4.08,7.85l-4.36,2.57c-27.41-0.27-53.91,9.99-72.74,30.17c-11.61,5.78-25.23,6.27-37.78,6.62
	c0.35,0.36,0.34,0.74,0.12,1.18c-9.27,18.64-20.12,40.59-21.37,61.31l115.76-6.52l1.78,2.58l0.2,4.46l-11,15.24l9.53-0.96
	c3.93,1.02,3.42,4.02-1.52,9.02c0.87,1.83,0.75,3.2-0.89,4.14l17.44-5.86c4.67,0.17,6.3,4.42,4.9,12.74l11.01-4.91
	c4.94-2.58,8.04-2.27,9.3,0.92l3.09,2.2c3.82-2.63,6.81-2.96,8.97-1.01c1.63,1.27,6.28,1.41,6.34,4.24l0.5,23.77l-87.36,28.56
	c-4.7-18.85-26.14-18.77-38.44-27.73c-15.79-11.51-26.85-32.29-51.85-25.38c-6.79-35.83-32.5-58.34-66.29-63.73
	c-0.65-3.86-1.25-7.73-1.66-11.62c-0.41-3.87-0.78-7.74-0.79-11.61c-0.33-100.63-0.64-201.32,1.38-301.93c0,0,1.14-7.7,3.43-23.11
	C812.93,703.44,820.9,703.5,823.51,707.23z"/>
<path class="st2" d="M546.64,463.52l0.61,3.66c-6.05,8.69-7.4,19.52-7.46,29.94c-0.82,134.86-1.55,270.15-2.09,405.19l-3.23,155.23
	l-2.71,1.55c0.83,1.34,1.7,2.84,1.61,4.47c-0.24,4.16-2.81,18.62-3.98,22.73c-0.44,1.56-1.66,2.73-2.84,3.76
	c-4.73-0.65-9.81-1.07-14.58-1.33l0.86-153.85c-1.06-0.11-2.65-0.47-2.69-1.22c-0.9-17.46-1.43-40.45-0.35-57.73
	c-0.9-4.48-0.03-7.23,2.63-8.23l-0.04-101.8l-2.68-1.23c0.01-24.34,0.02-48.7,0.04-73.06l2.68-1.59l-2.68-1.24l-0.05-47.63
	c-1.1-14.91-0.23-29.39,2.63-43.45l-2.7-1.18l-0.86-45L504,604.69c-4.18,2.7-5.67,1.94-6.17-4.21
	c-5.62-40.15-7.49-80.56-9.31-120.95c-0.07-1.45-0.52-2.82-1.14-4.12l0.69,155.08l-2.67,1.64l2.93,5.91
	c2.08,28.43,2.36,56.82,0.84,85.17c1.04,0.17,2.58,0.55,2.63,1.3c0.39,6.97-0.18,32.18-1.59,38.22l-2.76,1.81
	c-0.3,7.31-0.8,15.47-2.91,22.51l-2.85-0.72l-4.83-27.62c-2.31,10.39-2.06,21.15-1.58,31.72l-2.46,3.78
	c0.07,3.57-1.17,3.48-2.44,0.18c-0.48-10.5-2.43-21.43-2.9-31.03l-2.72-0.79c-2.22-45.1-4.44-90.21-6.66-135.33l2.6-1.75l-1.82-49.8
	l-2.72-0.79l-5.26-113.93c-3.58-0.79-5.6-4-3.55-7.01c7.68-7.11,17.71-1.87,26.78-0.42C529.11,462.38,493.61,472.05,546.64,463.52z"
	/>
<path class="st8" d="M780.86,1227.91l-419.33-0.77c-22.33-7.54-40.62-21.14-61.78-31.72l591.45-0.42
	C853.7,1210.71,816.28,1214.5,780.86,1227.91z"/>
<path class="st7" d="M571.5,1304.51c4.57,2.56,6.34,17.32,0.45,18.83l-62.63,1.15c-1.35,6.33,0.81,12.05-1.01,17.14l-161.29,7.66
	c0.55,7.39,2.72,16.99-2.71,21.56c-70.39,5.48-139.45,8.68-208.7,18.05c-2.91,0.39-4.58,3.52-5.65,4.91l-96.67-31.6
	c106.67-11.27,207.93-14.4,314.98-15.92c-26.03-18.49-56.99-19.39-83.25-29.62l221.55,1.67c6.71,0.05,13.16,3.63,18.97,0.2
	l-51.88-14.03L571.5,1304.51z"/>
<path class="st11" d="M418.79,1418.26c-7.93-8.48-33.1,2.13-53.93-5.37c-3.91-6.64-32.95-16.28-32.65-16.28
	c3.57-2.45,9.06-2.48,11.45-5.22c3.07-3.53,1.62-8.63,3.06-13.7l159.82-18.98c2.58-4.75,2.07-8.91,2.66-14.43l52.04-5.14
	c4.53-0.45,8.22-1.98,10.54-4.49c3.07-3.33-0.84-8.69,0.15-11.3c2.18-5.06-0.34-13.98-0.45-18.83c-0.14-6.48-6.12-10.73-14.18-13.86
	c8.68-10.06,22.65,4.52,32.64,10.35c23.46,13.7,65.32,13.47,82.34,30.71c-7.4,2.6-11.63,7.26-13.58,14.81
	c-59.57,11.72-119.76,24.46-179.67,32.94c-4.28,2.49-2.58,11.24,0.28,12.7c3.96,2.02,7.98,1.84,15.73,4.84
	C470.44,1404.3,444.8,1411.55,418.79,1418.26z"/>
<path class="st13" d="M248.1,962.62c3.58,1.15,6.66,3.87,9.23,8.18l8.84,8.33l0.35,3.83c2.2,2.28,3.32,5.82,3.37,10.64l2.3,5.34
	c2.42,2.22,3.28,4.45,2.56,6.68c3.96,7.18,8.21,14.2,12.75,21.04l-0.82,3.37c0.14,2.22,0.56,4.4,1.22,6.52l-3.11,1.42l-19.53-9.63
	c3.19,10.35,8.47,20.15,16.9,27.12l0.74,3.98c0.56,3.74,3.75,6.1,5.1,9.49l-2.13,2.13c-11.67-5.44-35.25-7.66-20.35,11.66
	c11.74,10.37,21.41,22.2,29.92,35.18c3.99,4.01,9.25,6.12,14.41,8.13l1.14,3.28l4.98,11.66c-8.67-1.43-15.67-5.75-24.49-8.91
	l-0.24,11.67c-8.34-1.36-13.99-5.64-20.73-8.55c-0.84,4,1.16,7.27-0.78,10.39c-7.49-2.42-11.4-7.45-18.07-11.07
	c0.78,14.98-2.05,29.69,2.84,42.69l-0.65,24.72c-6.17-0.33-11.01-0.61-17.69-2.98c3.31-10.68-0.44-20.86-0.25-29.87l-2.59-2.18
	c2.07-9.71,2.28-18.81,0.61-27.29c-10.34,13.22-16.39,14.3-18.15,3.24c-11.85,8.94-17.91,6.72-14.78-9l-17.35,10.74
	c-1.63,0.41-3.85-0.11-5.33-0.83c-0.61-5.73,0.2-11.6-1.69-17.1l2.68-3.3c11.76-2.63,23.32-7.64,31.55-16.67
	c2.52-2.77,10.2-13.34,10-16.28c-0.23-3.35-14.42-0.63-17.94,0.14l-3.48-1.89c1.54-3.39,3.05-7.44,5.31-10.44l0.06-4.52
	c6.73-7.38,34.21-46.74,30.57-54.28c-0.45-0.93-13.08,8.18-14.24,9.03c-3.5,2.02-10.92,5.87-11.95,0.25
	c1.93-2.82,2.32-7.92,1.03-10.81c-2.56-1.57-2.17-4.2,1.18-7.89c6.43-6.48,10.5-13.63,12.23-21.47c-2.93-1.99-2.17-3.33,1.19-3.98
	l-0.06-3.46c2.68-4.13,15.2-21.15,18.32-22.11C246.7,957.83,249.43,958.59,248.1,962.62z"/>
<path class="st7" d="M997.82,1281.85l-3.66,2.57c-43.63-1.36-87.25-2.72-130.86-4.08l-1.54-2.73c-0.17-1.8-0.7-3.57-1.31-5.26
	l-2.05-2.27c0.93-3.17,0.76-5.81-0.52-7.92l-78.22-3.55l-2.55,1.39c-7.23-2.07-1.19-13-1.61-18.3c43.78-5.26,88.06-9,131.86-9.98
	c-17.54,8.38-36.35,7.46-50.35,22.22l128.19-1.19c12.04-0.11,22.84,3.3,34.93-1.41C1014.78,1266.08,1004.92,1272.63,997.82,1281.85z
	"/>
<path class="st2" d="M167.4,1138.31c3,1.39,3.95,2.84,2.84,4.36c2.75,10.25,10.46,19.97,11.95,30.65
	c-35.51-14.94-65.91-41.45-89.71-72.28c-2.3-2.98-4.03-13.15,1.84-13.28c14.28-0.3,35.56,1.17,47.41,10.49
	C154.19,1108.86,157.32,1126.56,167.4,1138.31z"/>
<path class="st4" d="M997.82,1281.85c-4.31,5.6-14.4,25.53-22.48,24.57l-111.96-13.18c-1.83-5.64-1.13-10.68-1.62-15.63
	L997.82,1281.85z"/>
<path class="st2" d="M309.35,1182.56c7.89-9.69,21.76-8.32,32.05-14.84c3.22-1.63,7.27-2.01,12.15-1.13
	c9.49-1.35,18.27-5.09,26.36-11.24l19.31-8.91l4.14,0.12c4.12-3.64,7.76-8.74,10.59-13.53c3.29,2.84,7.32-1.5,12.06,0.3
	c-5.44,14.33-10.2,27.69-12.72,44.49C377.46,1176.16,341.4,1175.98,309.35,1182.56z"/>
<path class="st2" d="M1109.12,1115.99c3.04,2.61,2.27,6.34-2.29,11.17l-5.8,5.74c13.3-1.46,21.31,4.11,14.45,17.62
	c0.07,0.91-1.07,1.9-1.05,2.85l-2.81,3.47c-3.52,1.13-4.77,4.87-7.12,7.22c-7.36,7.35-17.09,12.36-24.85,18.87l12.85-27.17
	c-15.93,10.05-29.64,22.53-47.66,28.21c9.73-17.31,25.03-29.7,31.94-46.7c0.28-2.9,2.59-5.13,6.92-6.7c0,0,3.04-2.84,9.11-8.51
	c1.2-3.58,3.04-5.71,5.54-6.4C1101.99,1115.14,1105.56,1116.14,1109.12,1115.99z"/>
<path class="st6" d="M235.9,1169.05l-59.11-25.09c0.49-0.03,1.04-0.1,1.52-0.24c9.07-2.65,16.09-9.94,25.79-14.63
	c0.11,5.68-1.75,11.33-1.02,16.91c6.24-0.98,9.88-5.13,15.46-7.92c1.11,3.78-0.09,7.59,1.74,10.9c5.97-4.29,10.2-10.01,15.53-15.18
	C240.55,1145.92,236.13,1158.02,235.9,1169.05z"/>
<path class="st12" d="M543.49,1059.18c-3.07,10.56-5.34,21.31-3.65,32.26c-3.86-1.18-9.19-0.81-13.29-1.37
	c0.19-10.54,2.52-20.8,5.21-30.97C534.93,1057.48,541.44,1055.54,543.49,1059.18z"/>
<path class="st11" d="M1056.58,1205.24l-18.26,18.64c-6.6-2.83-11.98,4.45-20.53,3.06
	C1028.84,1218.32,1041.7,1206.24,1056.58,1205.24z"/>
<path class="st12" d="M1098.35,1115.67c-1.99,10.6-12.47,17.67-21.57,21.61c-0.81,0.1-1.87-0.74-2.65-0.52
	C1085.74,1107.32,1091.5,1116.66,1098.35,1115.67z"/>
<path class="st4" d="M1074.14,1246.88c2.25-9.81,9.51-18,14.69-26.62c2.09,1.53,5.3,0.98,7.71,3.9
	C1091.78,1234.6,1082.94,1242.48,1074.14,1246.88z"/>
<path class="st6" d="M175.45,1143.91c-1.69-0.59-3.41-1.11-5.21-1.24c-1.51-0.82-1.86-3.22-2.84-4.36
	C170.61,1139.37,175.35,1139.93,175.45,1143.91z"/>
<path class="st8" d="M527.61,1426.44l3.71,0.17c17.85,8.43,37.4,11.36,58.65,8.79l37.47-3.05l2.3,2.47c3.26,2.25,2.31,7.2-1.71,7.75
	c1.99,3.61,2.6,8.17,1.83,13.68l1.82,13.7l-2.15,3.18c5.26,4.84,5.98,17.27,1.36,22.82l-4.96-3.28c-1.05-0.7-3.88,1.68-5.02,2.32
	c-10.15,5.62-20.35-1.7-30.09-0.83c-16.44,1.47-30.77,0.23-46.82-1.19c-48.87-4.31-97.81,3.6-146.42,1.49
	c-5.74-0.25-12.62-3.28-12.04-7.81c26.61-8.41,53.26-16.11,81.24-22.14c12.25-2.64,23.96-6.19,35.61-12.55
	c-17.18-3.18-32.89-1.51-48.65-2.21C478.72,1439.86,503.55,1434.35,527.61,1426.44z"/>
<path class="st4" d="M860.45,1272.35c-27.84-3.22-56.57-4.69-83.34-12.34c-0.23-0.75-0.8-2.3-0.1-2.79
	c0.87-0.61,2.33-0.89,3.79-0.83l80.16,3.22C861.68,1264.22,862.01,1268.53,860.45,1272.35z"/>
<path class="st1" d="M1020.48,1367.73c-9.83,12.85-24.52,12.99-37.53,20.43c-20.17,11.53-33.55,34.83-49.51,53.04
	c43.82-4.94,83.37-14.13,123.19-24.38c0.92,6.16-5.65,15.11-11.79,16.29l-47.09,33.51c-6.94,1.62-10.42,2.43-10.42,2.43
	c-61.18-3.23-122.4-5.08-183.67-5.55c-10.24-10.36-23.95-14.34-41.14-11.94c-43.71,4.18-87.74,3.2-131.28-5.23l-3.23-3.76
	c0.57-2.57,0.91-5.21,1.71-7.75l1.11-3.94c26.49-10.87,54.29-19.41,83.41-25.62c103.73-25.17,206.22-49.59,307.48-73.26
	c3.52,1.66,4.26,3.55,2.24,5.68c-4.46,3.72-25.8,25.42-25.51,28.36c7.53-3.69,15-5.09,22.42-4.21
	C1022.09,1363.54,1021.96,1365.51,1020.48,1367.73z"/>
<path class="st7" d="M997.75,1466.62c-1.56,4.12-0.78,5.33,2.24,5.38c4.23,0.07,6.85,0.7,10.13,0.57
	c5.21,6.64-12.35,17.96-11.13,27.6c-0.62,0.98-1.5,1.75-2.52,2.31c-19.21-5.25-39.53-1.6-60.46-2.87
	c-40.63-2.47-80.28-4.14-120.3-3.87l-2.68,1.15l-15.63-14.62c-2.84-0.72-5.82-0.69-8.93,0.09l-2.19-2.5l-1.18,2.71l-95.44,2.42
	c-19.66-2.93-39.31-5.95-58.97-9.06l-1.18-2.81c-1.78-9.9-3.7-20.71-1.5-30.56c19.64,6.37,40.28,5.05,61.96,8.08
	c40.05,5.59,100.8-13.28,114.52,10.59C873.3,1459.52,931.89,1465.25,997.75,1466.62z"/>
<path class="st11" d="M1044.84,1433.11c4.53-5.69,8.17-11.15,11.79-16.29c10.35-14.71,19.23-29.21,33.18-40.82
	c9.54-7.94,27.74-7.86,36.71-0.07c8.57,7.44-1.19,18.21-4.32,23.89c-8.62,15.66-18.92,15.94-34.98,16.1l-44.4,24.36
	C1041.36,1438.13,1044.77,1435.39,1044.84,1433.11z"/>
<path class="st11" d="M1049.68,1293.89l3.01-3.24c15.3-3.37,26.75-15.98,27.82-31.71l2.72-2.29c9.79-6.05,60.12-23.94,63.23-8.87
	c2.81,13.66-31.78,38.47-42.91,46.82c-3.99-1.44-7.41-5.57-6.82-9.32c0.66-4.22,4.4-7.53,3.76-13.88
	C1095.85,1273.44,1041.68,1322.52,1049.68,1293.89z"/>
<path class="st1" d="M1083.23,1256.64c0.01,19.41-14.51,34.76-33.54,37.24C1054.33,1277.26,1068.04,1261.26,1083.23,1256.64z"/>
<path class="st14" d="M770.4,468.69l2.7,0.88c1.66,126.44,5.22,251.66,10.68,375.68c2.24-99.86,4.82-199.92,7.75-300.17
	c0.01-28.4,2.23-56.55,6.67-84.46c4.06-5.46,8.76-9.93,14.67-13.05c1.56-0.56,2.96-0.49,4.21,0.21
	c0.11,59.44-0.37,119.04-1.44,178.79l-2.71,1.58l2.63,1.34c-0.92,25.29-1.84,50.58-2.76,75.89l-2.74,1.52
	c-4.22,115.89-0.92,232.28-2.36,348.26c-10.41-1.66-20.92-0.61-30.96,0.3l-3.29,3.03c-17.77,2.05-35.52,7.46-49.55,18.93l-4.53,0.39
	c-2.31-0.16-3.9-1.78-4.76-4.87c-3.87-4.19-5.52-8.66-4.97-13.41c-6.27-18.15-21.48-31.12-37.3-41.94
	c-1.14-4.35-2.29-8.78-2.27-13.31c0.51-121.39,0.42-242.89,0.1-364.33c1.43-60.35,3.83-118.76,7.21-175.25l2.76-1.47
	c2.26,0,5.54-3.08,7.53-0.99c-2.78-2.93-4.3,319.93-0.6,328.1c2.84-0.73,4.78,1.64,5.81,7.13l1.56,89.81
	c4.26-3.18,6.46-3.3,6.81,2.71c1.35,42.16,2.95,84.44,10.21,126.07c4.91-42.29,7.91-84.99,8.98-128.09
	c2.96-9.49,7.67-1.17,6.87,5.79l0.27,22.57c0.72,7.91,1.42,9.11,2.09,3.6c2.44-146.4,7.26-293.26,14.47-440.57l2.94-25.24
	c3.04-1.06,4.14-7.46,8.68-8.49C761.08,453.06,764.44,461.99,770.4,468.69z"/>
<path class="st7" d="M680.14,463.23l-4.6,88.71c-7.41,142.98,1.66,321.1-3.2,465.66c-1.89-1.29-5.07-0.76-7-1.9l-4.48,0.57
	c-12.98-6.69-27.49-9.21-41.8-11.44l-3.25-3.22l-2.67-0.95l2.45-497.19c2.26-11.58,4.75-23.1,7.46-34.55l2.51-3.22
	C623.8,450.92,643.76,463.23,680.14,463.23z"/>
<path class="st2" d="M989.5,394.99l1.64,6.33l-2.25,20.5c-1.92,118.46-3.59,237.09-5.01,355.91c-2.44,9.77-2.47,18.02-0.09,24.77
	c1,2.26,1.94,4.65,1.92,7.16c-0.07,8.46-0.88,35.85-3.39,41.41c-0.53,1.18-1.23,2.28-1.98,3.35c0.62,0.95,1.19,1.91,1.59,2.94
	c0.38,0.99,0.7,1.95,0.65,2.89c-0.48,10.49-1.82,24.72-7.48,33.05c-2.08,7.59-4.23,9.38-6.46,5.37c-6.28-9.7-9-26.53-5.34-37.51
	c-0.99-1.65-1.98-3.21-2.98-4.69l-7.42-116.73c0,0,0.23-10.42,0.7-31.26l-2.68-0.92l-0.44-100.79l-3.27,11.16
	c-4.64,4.11-7.25,1.1-7.83-9l-1.54-19.27l-4.9,98.5l-2.76,1.49c2.46,7.43,1.22,17.71-5.43,21.94c-1.01-1.2-2.43-1.68-2.4-1.38
	c0.68,9.16-0.14,44.27-4.99,50.06c-2.01,2.4-3.51,2.08-5.92,0.39l-4.76-94.85l-0.94,9.67c-1.78,1.69-3.69,0.79-5.5-0.79l-2.71-31.75
	l-2.58-6.52c-3.88-53.55-4.67-107.29-2.38-161.25c-0.95-11.52-0.21-22.54,2.2-33.03c13.81,22.48,15.11,52.51,16.78,79.65l5.52,89.5
	c7.1-24.26,7.16-48.14,8.46-72.96l5.49-104.15c7.71-9.97,13.3-19.4,18.64-31.35C964.23,403.62,976.08,396.06,989.5,394.99z"/>
<path class="st2" d="M878.46,434.1l2.65,1.34c-3.94,142.09-6.87,284.53-8.81,427.33l-2.62,31.77c-1.95,5.28-5.86,4.51-6.94,0.02
	c-1.33,19.67-2.64,39.34-3.94,59.01c-1.84,34-1.36,68.06-6.32,102.27c-3.73-13.36-5.61-25.08-6.9-38.55
	c-7.29-76.25-9.47-152.38-11.08-228.72c-3.27-0.67-6.56-0.88-7.41-2.38c-0.63-1.12-2.24-3.39-2.28-5.53l-1.29-73.43
	c-1.06-0.09-2.67-0.43-2.71-1.17c-1.51-24.86-2.26-52.68-2.09-77.61l2.63-1.69l-2.7-0.86c-1.9-58.11-2.25-116.68-1.07-175.72
	l2.07-3.1c3.54,2.1,13.87,0.02,14.53,6.57c0.9,8.84,5.59,15.93,6.79,23.91L852.08,551c2.27-27.42,5.77-53.71,6.4-80.9
	C858.85,454.26,864.78,441.31,878.46,434.1z"/>
<path class="st2" d="M747.08,454.13c-7.11,151.9-11.52,303.75-14,456.24c-0.12,7.41-0.6,13.96-4.8,20.1
	c-6.78-15.71-1.4-30.8-4.89-46.92c-3.29,49.93-2.98,99.46-11.06,150.96c-10.76-49.43-12.27-98.78-13.89-148.78
	c-5.07,6.93,0.37,15.39-6.34,22.36l-1.88-110.74l-3.16-7c14.39-59.13,8.01-253.06,16.68-302.16c2.45-13.86,22.69-15.34,33.17-18.82
	C743.28,464.8,740.07,456.52,747.08,454.13z"/>
<path class="st15" d="M445.98,454.02l2.45,6.64c0.4,29.93,0.08,59.85-0.98,89.74c0.39,8.76-1.42,16.33-5.43,22.73
	c-68.87-3.44-141.53-20.22-210.77-22.86c-5.59-11.86-4.61-23.18-4.19-34.59l1.49-2.55l97.73,8.98c1.53-23.09,1.65-46.26,0.37-69.51
	l2.88-4.3c2.67-4.37,7.13-0.31,9.23,2.86c17.75,5.51,36.37,9.93,56.25,12.86c-1.3-13-8.22-21.26-12.92-32.53
	C404.72,437.4,429.06,439.73,445.98,454.02z"/>
<path class="st2" d="M625.55,465.7c1.5,12.67-7.23,24.39-7.29,37.82l-1.35,354.89l-1.1,143.2l-2.05,2.69
	c-7.71,0.77-15.27,2.41-22.66,4.91l-2.83-1.96l-2.68-0.93l-0.22-294.9c1.24-7.2,2.11-16.46,1.99-23.67c0-0.05-0.33,0.25-0.76,0.65
	c-0.52,2.18-2.18,3.14-4.98,2.87l-0.59,7.7c1.41,5.39,1.04,9.62-1.12,12.71l-3.58-1.06c-4.68-15.52-6.16-31.83-4.43-48.93l2.57-2.75
	c10.35-28.52,6.71-60.12,8.47-91.14l4.7-82.81c0.23-4.12,2.68-8.72,6.24-8.56c14.81,0.67,9.02,27.25,10.66,35.8
	C613.61,502.39,607.87,471.9,625.55,465.7z"/>
<path class="st7" d="M578.43,467.41l-1.5,2.96c-6.47,0.84-11.16,3.65-14.07,8.43c-2.55,88.94-4.98,179.34-7.28,271.22l0.51,33.69
	c0.64-2.66,3.67-13.55,5.43-14.31c2.27-0.98,3.83-0.27,5.5,1.5l0.92,247.2l-2.66,3.68c-0.82,5.63-3.5,11.13-8.07,16.49
	c-2.81,6.42-6.5,12.05-11.07,16.9c-1.15,1.02-2.2,2.37-2.67,3.99c-4.16,0.3-8.12,2.65-11.74-0.08l2.4-108.44
	c3.34-150.59,0.11-300.22,2.89-450.79c0.26-14.23,1.17-25.73,9.59-36.34c9.79-1.58,19.16-12.58,30.08-9.93
	C582.22,454.91,578.82,463.7,578.43,467.41z"/>
<path class="st14" d="M578.43,467.41c-5.04,47.66-6.8,139.65-3.96,191.51c0.97,17.65-2.95,38.26,5.45,52.74
	c2.74-6.45,3.85-13.77,3.32-21.96l3.38-1.31c0.6-2.19-1.51-5.22,1.42-7.06l0.24,325.91l-0.76,3.09c-0.82,0.8-17.34,11.92-18.38,12.3
	c-1.53,0.56-2.4,0.61-3.84-0.85l-0.93-251.81c-6.07,8.74-5.49,19.64-10.55,29.92c-2.66-66.62,1.27-132.54,3.08-199.77l3.25-120.73
	C560.34,471.85,572.66,468.16,578.43,467.41z"/>
<path class="st15" d="M1135.88,365.93l-1.05,87.19c7.62,0.45,16.35,0.07,23.51-1.89c0.36,10.71,0.71,21.58-2.09,32.6
	c-7.67,3.89-15.9,5.67-24.6,6.38l-61.52,5.04c-3.81,0.31-6.22-1.96-6.52-5.04l-3.33-5.5c-5.87-26.85-11.64-59.19-13.63-86.31
	c-0.3-4.08-0.62-9.29-0.41-13.32c0.04-0.85,0.62-1.54,1.19-2.13c18.38-16.31,43.39-22.26,68.48-26.36
	c-3.59,11.66-5.65,21.54-5.03,32.56C1120.5,381,1126.65,371.88,1135.88,365.93z"/>
<path class="st7" d="M894.77,442.1c2.29,43.86-3.44,88.73-0.39,133.76c1.58,23.3,3.75,44.08,3.14,67.04l1.94,27.54
	c0.17,35.64-1.46,72.12-4.28,107.31c-8.48,26.64-11.73,54.45-9.75,83.43l-2.9,4.04l1.77,0.22c-0.22,19.16-1.22,38.62-3.01,58.39
	l-2.78,1.39c-0.64,9.52,0.01,19.54-9.5,24.76c-2.04-7.01,0.24-14.41-5.51-20.36c-3.45,7.72-4.3,16.28-4.71,23.95
	c-1.48-23.99,0.15-48.47,2.3-72.94l5.45,17.03c5.37-36.7,2.74-71.34,3.59-107.69l8.33-355.88c3.59-4.66,8.66-9.44,15.28-11.72
	L894.77,442.1z"/>
<path class="st2" d="M1044.7,385.66l1.55,0.5c-0.69,36.75-2.31,73.51-4.86,110.3l-2.76,1.46l-2.93,48.67
	c-1.67,27.8-4.4,55.71-8.47,82.82l-1.48-28.18l-3-4.6c-1.45-7.85-6.64-44.52-4.48-48.75c0.46-0.9,1.08-1.71,1.75-2.51l-2.75-3.04
	l-2.17-26.14c-1.08-5.22-0.08-8.96,3-11.2l-1.99-6.59c1.53-18.65,1.24-37.54-0.82-56.1l-1.35,51.1c0,0-0.93,2.1-2.79,6.29
	c3.11,2.64,2.9,5.2-0.99,6.59c-1.09,0.59-1.95,1.02-2,0.93c-1.42-2.84-0.48-10.94,0.37-0.91c-1.04,20.12-2.78,40.2-5.24,60.23
	l-2.83,1.32c-4.28-7.82-6.27-16.83-5.98-27.02c-1.87-46.64-3-93.02-3.37-139.14c-0.53-3.89,0.32-6.44,2.55-7.66
	C1010.41,389.74,1027.38,384.59,1044.7,385.66z"/>
<path class="st2" d="M798.2,460.63c-7.24,126.75-8.25,253.94-11.16,381.29c-0.09,3.96-1.16,7.09-5.83,7.56l-4.53-98.37l-6.28-282.43
	c8.43-1.23,15.49-16.61,22.4-14.31C794.92,455.09,797.69,458.32,798.2,460.63z"/>
<path class="st7" d="M993.65,394.05l1.84,108.16c0.39,22.73,1.34,44.12,4.96,65.65c5.11-3.05,7.55-2.65,7.3,1.19
	c-0.3,3.3-0.01,6.48,0.86,9.52l2.66,1.53c-0.06,6.45-0.13,12.91-0.19,19.37l-2.7,1.85l-3.87,83.14l-5.02,62.86
	c4.04,1.2-0.68,21.59-1.45,22.49c-1.73,2.04-3.41,1.91-5.62,0.52l-1.36-15.72c-0.59,12.77-1.99,25.52-3.44,38.24
	c-0.19,1.64-0.82,3.24-1.46,4.87c-0.65,1.64-1.49,3.21-2.37,4.76c-2.77,0.4-4.54-3.84-4.16-7.03c3.27-27.67,2.34-54.13,2.65-81.62
	l2.74-243.63c0.29-26.12-0.1-50.54,4.48-75.22C990.85,394.88,992.33,394.38,993.65,394.05z"/>
<path class="st9" d="M506.16,361.98c3.38-4.65,15.93-6.73,16.01,0.59c-4.81,12.3-11.11,23.82-18.89,34.58
	c6.91-2.21,10.87-1.23,11.9,2.93l-12.98,28.1c-1.49,3.65-3.68,5.1-6.57,4.33c-3.8-1.71-9.63-2.66-13.66-3.88l-5.17-3.84
	l-22.28-40.56c-0.05-2.74,0.27-4.7,3.18-4.81l21.62,6.19c0,0-10.02-13.3-30.07-39.89c-2.28-9.57,6.8-5.87,12.12-2.96l-10.16-20.69
	l1.47-3.37c1.17,0.25,3.27-1.43,4.32-0.82c1.91,1.1,0.24,4.76,4.61,5.58c5.02-22.81,11.1-44.27,17.81-66.86
	c6.75,19.86,9.69,39.3,18.46,58.58c-2.88,0.81-5.21-0.54-9.19,2.29L506.16,361.98z"/>
<path class="st11" d="M338.77,451.17l-9.23-2.86c-2.59,0.75-5.42-0.08-8.48-2.5c-21.69-4.77-43.62-8.95-65.79-12.55
	c-11.64-2.37-22.65-1.74-33.04,1.9l-2.74-1.39c-5.34,1.97-8.64-7.77-3.95-10.49c-0.22-6.35,6.11-13.04,13.76-12.04
	c32.26,4.2,64.7,8.22,95.56,19.43C332.53,433.44,336.44,444.91,338.77,451.17z"/>
<path class="st2" d="M215.55,423.27c0.13,3.72,1.01,8.38,3.95,10.49c4.41,0.51,2.88,12.89,0.06,14.87
	c2.97,15.46-6.23,9.41-14.26,3.76c-9.34-9.18-19.13-17.75-29.36-25.72c-4.11,3.66-8.48,5.92-13.13,6.76l-3.34-3.72
	c-6.24-10.55-17.45-18.09-21.64-30.28c-2.53-2.87-2.91-9.69,1.33-10.91C162.72,405.2,183.83,426.89,215.55,423.27z"/>
<path class="st10" d="M1063.6,490.22c-4.96,7.93-16.07,6.53-24.97,7.7l6.07-112.26c0.09-1.58,1.82-1.9,2.72-2.7l5.35,42.95
	C1055.5,447.9,1061.45,468.75,1063.6,490.22z"/>
<path class="st10" d="M447.33,453.97c-1.33,3.29,3.61,3.68,6.15,5.28l5.38,116.46c-5.71,0.89-11.5-2.3-16.83-2.57
	c6.66-39.03,2.26-79.77,3.96-119.12L447.33,453.97z"/>
<path class="st11" d="M139.16,388.53c-0.78,3.62,0.54,7.51-1.33,10.91l-36.29-6.79c-11.33-2.12-22.28-4.97-32.93-1.84
	c-4.53,0.99-13.3-7.86-8.24-11.86C82.34,370.57,117.76,373.38,139.16,388.53z"/>
<path class="st4" d="M819.65,447.07c-2.11,20.54-1.37,41.51-0.89,63.13l2.59,116.55c0.14,4.05-6.93,5.04-8.42,1.4l2.92-172.58
	c0.07-3.86,1.12-7.18-2.98-8C816.84,445.48,817.2,445.62,819.65,447.07z"/>
<path class="st2" d="M68.61,390.81c-7.59,5.12,7.41,40.45-2.11,32.61l-3.47-2.86c4.37-13.83-16.17-36.46-2.65-41.62
	C60.16,384.55,66.15,386.17,68.61,390.81z"/>
<path class="st13" d="M1149.4,142.08c0.54,1.01,1.67,1.67,2.39,2.53c5.3,2.23,1.82,6.04-4.14,5.1c-10.01-8.54-10.27-5.06-0.8,10.46
	l4.01,6.1c3.22,2.81,4.76,5.83,4.61,9.08c2.19,9.72,9.42,18.17,14.25,28.84c-8.01,0.46-13.1-5.28-21.51-7.91
	c10.14,16.85,22.61,30.84,34.33,47.19c-7.71,0.81-13.1-3.33-22.11-3.69l28.76,52.03c-7.55-1.08-10.38-8.71-20.36-8.06l21.81,29.74
	c-35.31,8.06-70.14,16.57-104.77,28.96c-9.92,3.55-21.21,1.96-28.87,8.49l19.94-49.73c-1.55-4.45-7.63-0.12-13.61,0.36l24.16-49.06
	c-8.15-1.16-13.91,4.7-23.31,4.56c4.9-9.43,9.23-18.45,14.09-26.67c0.62-5.35,2.41-10.14,5.38-14.39c-5.24-0.53-8.4-2.55-9.49-6.05
	c1.19-4.78,3-10.23,5.35-14.58l18.88-34.87c3.92-7.23,10.84-13.85,10.5-24.28l-15.78,0.94c5.71-8.16,11.99-15.36,15.45-24.25
	c-7.55-0.58-9.92,5.5-16.35,7.74c11.29-24.51,18.57-48.35,27.95-74.71c7.43,24.36,14.12,46.72,23.9,68.73
	c-4.73-1.53-7.07-6.23-10.4-2.48C1137.72,123.66,1144.29,132.61,1149.4,142.08z"/>
<path class="st5" d="M92.4,795.43c3.44,0.83,7.19,4.11,9.17,7.05l3.14-1.07c11.91,3.74,24.65,5.58,38.2,5.52
	c5.49,0.43,8.41,2.42,8.75,5.97c3.82,1.99,1.71,5.3-1.82,6.71l1.25,3.22c-5.87,10.14-5.58,13.38,0.87,9.71l2.21,2.07
	c1.96,2.36,4.5,4.64,2.94,7.44c-1.52,2.74-3.79,5.18-4.41,8.62c1.79,1.95,0.96,2.66-1.27,1.06l-2.78,2.75l0.63,4.65
	c-4.96,8.84-9.23,18-12.8,27.46l-3.68,2.82l-4.07-1.36c-5.16-9.66-10.9-18.92-17.22-27.79l-0.12-4.2l-2.99-0.9
	c-2.62-5.42-5.82-10.53-9.62-15.32l1.46-2.84l-3.97-1.68l-7.3-11.03c-4.54-3.97-7.44-8.26-8.69-12.85
	c1.31-8.36,2.28-16.76-2.58-23.98c0.47-0.51,0.96-0.95,1.54-1.17C81.2,785.56,90.16,793.28,92.4,795.43z"/>
<path class="st2" d="M125.15,997.92c3.59,2.25,3.54,4.86-0.4,6.58c-1.3,7.71,1.91,14.35,5.5,21.1
	c11.87,22.28,27.96,41.18,45.1,59.24l1.1,3.38c0.74,2.28-0.63,2.06-1.71,1.64l-3.33-1.29c-12.99-5.02-20.55-16.25-31.89-23.25
	c-21.99-13.58-38.84-31.28-51.46-55.31c-4.36-8.3-11.03-16.68-5.49-27.08C97.46,983.88,113.38,989.05,125.15,997.92z"/>
<path class="st2" d="M107.22,899.99c2.71-1.4,5.19-0.24,7.42,3.48c3.34,3.64,10.12,12.15,8.69,16.5c2.63,3.43,0.86,6.32-5.29,8.66
	c2.45,14.67,9.42,27.98,20.92,39.92l-0.87,3.5c-2.62,2.9-9.2,1.23-9.69-2.77c-12.2-9.13-20.77-19.13-27.74-33.39
	c-6.45-13.21-50.11-20.25-36.16-49.16C72.63,869.9,98.66,893.81,107.22,899.99z"/>
<path class="st9" d="M204.73,1078.19c-5.88,0.51-11.13,4.29-17.78,3.11c6.27-7.1,13.04-11.95,18.35-19.7l-19.82,1.72l23.7-34.64
	c11.33,2.08,17.03-11.74,30.22-12.88C235.15,1040.34,218.87,1059.39,204.73,1078.19z"/>
<path class="st12" d="M267.25,948.44c4.81-0.24,8.15,10.3,4.47,13.15c0.94,9.62-18.03,4.25-23.62,1.03
	c-6.29-7.51-14.44,15.42-23.31,21.91c-2.32,4.8-7.33-0.35-6.15-5.06c-9.4,8.93-18.32-1.67-7.07-5.88
	c9.17-8.88,18.24-20.89,20.38-33.25c-0.64-0.82-1.52-2.1-1.08-2.71c1.75-2.43,12.42-13.16,14.7-12.51
	c1.3,0.37,17.34,16.19,19.33,18.61C266.07,945.15,267.16,946.5,267.25,948.44z"/>
<path class="st1" d="M124.75,1004.5c2.67-3.12,5.01-2.75,6.59,1.04c16.37,25.36,34.75,50.73,44.01,79.3
	C163.65,1083.8,108.13,1008.43,124.75,1004.5z"/>
<path class="st9" d="M176.61,1126.62c-3.09-11.36,16.12-23.92,22.81-38c8.18-2.22,16.13-3.05,25.63-2.15
	C217.53,1110.68,200.39,1122.03,176.61,1126.62z"/>
<path class="st8" d="M192.82,814.29c2.65,7.89,10.44,13.68,10.36,22.68l-14.11-6.68c-4.83-3.79-10.02-7.73-16.2-10.55l-4.14,11.7
	c-3.79-0.96-6.73-2.58-9.86-2.54c-2.72,0.03-2.98,4.49-4.7,5.71c-4.04,1.38-7.56,2.94-11.5,1.76c2.22-6.77,4.31-11.93,7.17-16.75
	c3.05-3.15,6.63-6.03,10.76-8.65c3.98-5,8.47-8.9,13.45-11.7c4.36,4.82,9.48,8.42,15.35,10.77L192.82,814.29z"/>
<path class="st9" d="M203.25,866.3l19.29,33.64c-6.56-0.38-8.81-5.26-13.54-6.63c-8.63-12.27-30.76-8.8-31.9-23.75
	c-0.42-5.46,1.92-14.19,9.22-14.43C192.63,854.91,200.18,860.95,203.25,866.3z"/>
<path class="st13" d="M138.09,972.05c6.09-2.85,19.05,8.63,17.34,15.01c-6.72,7.47-15.53,13.16-24.09,18.48
	c-2.22-0.21-4.42-0.57-6.59-1.04c0.47-2.12,0.17-4.43,0.4-6.58c0.84-7.8-6.19-15.39-6.77-24.68l10.02-3.96
	C131.58,970,135.1,970.68,138.09,972.05z"/>
<path class="st1" d="M132.8,889.42c2.4-1.2,4.42,0.45,6.07,4.94c0.07,0.55,0.28,1.09,0.41,1.63c-0.42,6.31-3.77,6.95-9.43,6.36
	c-5.23-0.55-14.72-4.99-13.29-10.65c-4.15-5.35-7.77-12.44-14.33-16.34c-5.47-8.97-1.63-18.76,9.15-19.28
	C120.44,865.8,125.41,878.4,132.8,889.42z"/>
<path class="st6" d="M139.29,895.98c1.68,7.04-4.07,13.71-1.35,20.08c6.97,1.31-2.05,12.32-6.51,13.15
	c-3.32,2.88-10.07-5.84-8.1-9.24c-5.27-6.02-9.28-15.05-16.11-19.98c2.31-4.61,10.23-2.76,9.35-8.3
	C121.74,898.36,135.42,903.89,139.29,895.98z"/>
<path class="st4" d="M211.57,973.59c-1.7,1.65-3.22,4.97-1.81,7.55c5.45-1.29,7.84-5.69,12.34-5.72c-0.12,3.09-1.32,4.72-0.9,6.72
	c0.29,1.38,1.82,2.39,3.59,2.38c-0.12,1.4-0.38,2.81-1.19,3.98c-1.5,2.08-3.87,3.57-7.08,4.48c-2.77,2.77-5.69,4.35-8.77,4.75
	c-7.11-6.33-15.07-12.72-21.18-21.27C194.68,970.42,203.31,974.48,211.57,973.59z"/>
<path class="st4" d="M206.53,912.01c5.11,5.57,8.92,12.33,10.67,19.87c2.7,2.63,2.27,3.54-1.48,3.16c-0.38,1.32-0.9,1.29-1.57,0.02
	c-2.35-0.13-4.84-1.02-7.46-2.69c-4.78,0.08-8.39-1.18-10.85-3.78c-7.61-4.56-16.79-15.47-8.48-23.33
	C195.98,903.83,201.28,918.44,206.53,912.01z"/>
<path class="st12" d="M223.6,988.51c8.11,6.5-10.9,20.04-13.41,29.36c-4.85,2-10.97,5.19-16.74,3.24l14.29-23.37
	C210.94,992.52,218.26,987.68,223.6,988.51z"/>
<path class="st11" d="M138.87,894.35c-0.96,0.3-4.39,1.34-4.03-0.88c0.32-2.01-0.87-2.32-2.04-4.06
	c3.53-12.35,10.09-23.49,15.85-34.93l2.78-2.75c0.46-0.2,0.9-0.75,1.27-1.06C170.57,863.52,137.54,884.27,138.87,894.35z"/>
<path class="st12" d="M139.18,939.03c-4.52,3.39-10.17-5.74-7.75-9.82c0.64-5.38,8.14-7.83,6.51-13.15l26.55-13.69
	C155.65,915.37,149.69,929.49,139.18,939.03z"/>
<path class="st9" d="M214.15,935.07c2.08,3.4,0.93,10.57-3.79,10.42c-5.43-3.18-12.55-10.49-14.51-16.89
	C202.38,929.14,211.54,928.52,214.15,935.07z"/>
<path class="st13" d="M215.72,935.05c2.94-0.88,4.25-1.02,4.13,2.73c2.19,3.53,9.59,9.96,6.06,14.25
	c-5.36,4.79-11.73-4.3-15.55-6.54c2.08-3.19,1.3-7.48,3.79-10.42C214.67,935.21,215.21,935.2,215.72,935.05z"/>
<path class="st1" d="M131.43,929.21c2.66,3.04,3.66,8.25,7.75,9.82c7.23,18.11,19.61,34.47,25.11,53.3
	c-3.28-2.27-6.3-4.08-8.86-5.26c-4.42-6.25-10.31-11.77-17.34-15.01c-9.57-14.66-23.85-26.55-22.66-46.01
	c3.4-1.23,8.28-2.09,7.9-6.08L131.43,929.21z"/>
<path class="st5" d="M1104.58,841.35c1.96,3.17,1.42,6.85-1.61,11.04l-20.68,33.13c4.95-0.97,8.46-0.19,10.53,2.33l-0.03,1.54
	c-0.38,3.86-3.84,6.02-10.38,6.48c-2.76,6.38-6.38,8.97-10.87,7.77l-3.53-0.06c-4.98-8.57-8.42-17.94-10.31-28.11
	c-0.55,4.25-2.28,6.58-5.2,7l-3.34,13.63c-1.09,6.61-3.67,11.15-7.73,13.62c0.91,2.29,1.36,3.44,1.36,3.44
	c-3.76,5.53-6.92,11.34-9.48,17.43c12.44-5.19,6.52,8.85,2,14.65l0.91,3.36l-10.78,19.02c-2.5,5.01-5.49,7.03-8.99,6.06
	c1.61-8.47-50.27,1.99-54.65,3.02c-15.26,3.62-22.08,21.55-38.95,13.53c-3.69-1.75-1.77-10.42-3.89-14.09
	c-8.76-3.48-17.12,3.94-27.95,2.66c-0.33-7.69-3.55-23.66,4.24-29.91c23.58-10.42,49.7-13.76,74.34-16.83
	c1.07-2.58,2.16-2.79,2.74-0.02c3.91-4.01,7.54-8.59,10.89-13.74c-5.05,1.57-8.04-1.39-8.33-6.23c-4.65-3.98-3.07-13.74,0.21-18.8
	c2.14-12.73,4.45-25.84,5.23-38.88l5.85-2.15c37.44-3.5,74.84-7.4,112.21-11.7L1104.58,841.35z"/>
<path class="st6" d="M999.49,747.33c50.41-2.96,100.15-12.52,152.57-12.67c-28.1,4.71-56.53,4.75-85.51,10.65
	c-5.83,12.28-9.86,25.25-13.68,37.7c23.17-0.03,43.89-6.26,64.03-2.09c2.39,2.68,0.22,13.43-1.17,17.01l-3.07,1.37l0.51,3.32
	c-4.49,6.42-7.84,13.54-10.03,21.37c4.83-2.77,8.11-2.69,9.82,0.23c-2.3,4.05-4.99,7.79-4.98,12.58c4.11,2.06,0.32,6.38-3.4,4.54
	c-41.35,7.13-82.46,10.54-124.24,13.08c1.03-17.24,1.36-34.71,3.46-51.93c3.42-28.15,6.07-56.34,6.29-84.74l5.1,53.23
	C996.28,762.47,998.88,754.91,999.49,747.33z"/>
<path class="st12" d="M1078.24,941.62c9.83,9.04,12.86,23.94,18.4,35.8c2.12,4.29-2.74,11.87-7.59,9.66l-2.82,0.8l-22.08-26.28
	c-2.05,2.54-4.48,4.69-7.99,3.63c-5.41,6.34-10.56,13.22-15.43,20.66c-5.17,8.51-11.9,13.37-20.19,14.57
	c1.46,3.46-0.32,4.06-2.69,1.3l-0.74-3.44l5.1-9.17c-13.87,4.98-18.24,2.76-13.13-6.69l3.27-0.9c1.17-2.64,3.63-4.82,4.08-7.85
	c9.03-7.14,12.04-19.26,18.86-28.45c8.18-8.92,15.28-19.02,21.3-30.3c3.23-1.97,4.96-2.19,6.81,1.41
	c3.11,9.04,7.94,16.4,14.52,22.08L1078.24,941.62z"/>
<path class="st1" d="M1044.81,1115.43l-8.03,3.52c-4.12,1.8-4.19-1.65-4.03-4.7c-0.01-1.3,0.03-2.59,0.26-3.84
	c0.23-1.25,0.45-2.44,1.06-3.34c14.67-21.73,30.66-40.1,48.19-59.45c0.72-0.79,1.77-1.31,2.87-1.83c1.12-0.54,2.31-0.91,3.53-1.23
	c-1.35-3.92,1.29-5.34,4.2-2.58c3.15-2.87,9.5-7.18,12.1-2.49c9.15,0.89,18.01-1.25,25.85,5.79
	C1105,1072.93,1077.18,1101.26,1044.81,1115.43z"/>
<path class="st1" d="M1127.73,977.74c0.23,3.88-1.76,7.19-5.96,9.93c-11.91,10.69-24.27,20.66-37.08,29.93
	c-1.4,4.66-6.89,4.95-10.46,2.53c-3.45,1.18-4.23-0.36-4.2-3.69c0.03-3.33,12.84-24.92,15.75-29.07l3.27-0.28
	c3.49-2,5.26-6.47,7.59-9.66c7.2-9.83,41.47-50.01,52.94-41.82C1164.83,946.5,1134.45,969.94,1127.73,977.74z"/>
<path class="st11" d="M1104.94,1039.49c-3.4-0.14-8.3,3.28-12.1,2.49l-1.8-2.32l12.55-23.86l-16.42,3.96l-2.48-2.16
	c11.75-15.19,30.09-24.81,43.04-39.86c8.65,1.65,24.58,4.43,23.19,15.94C1149.27,1007.39,1116.35,1019.62,1104.94,1039.49z"/>
<path class="st9" d="M1092.82,887.85c-4.53,0.46-9.84,0.11-15.1,0.99c8.05-18.19,21.72-30.23,26.86-47.49
	c0.53-1.47,3.41-2.6,3.4-4.54c4-0.51,7.7-0.51,12.45,1.29c2.81,1.07,6.69,5.52,4.05,8.94l-6.95,9.01
	c-4.8,6.22,2.76,17.57-4.94,23.48C1107.88,883.14,1100.18,887.11,1092.82,887.85z"/>
<path class="st12" d="M1147.86,803.64c1.19,3.68,17.27,26.38,3.98,24.67c-3.3,2.8-12.11-0.75-13.27-4.73
	c-4.19-0.73-6.77-5.12-8.97-9.32c-0.34,4.1-2.83,6.84-5.67,8.97c-3.82,2.86-7.1,1.49-10.98,1.01c-4.48-0.56-8.06,3.35-14.07,3.08
	c4.34-9.79,6.43-21.1,13.77-28c4.47,1.23,7.83,0.13,10.1-3.3c3.71-6.63,7.41-8.2,11.1-4.71
	C1138.35,795.72,1143.01,799.83,1147.86,803.64z"/>
<path class="st11" d="M1070.94,906.75c2.92,0.59,5.12,3.18,6.59,7.76c7.88,4.3,6.44,15.44,4.95,23.53l-2.87,2.21l-1.37,1.37
	c-9.04-4.14-12.52-14.65-18.35-26.35c-5.79,5.44-16.93,33.57-24.59,29.97c-1.55-4.86,2.18-8.89,3.87-14.17l-9.35,4.57
	c0.31-10.98,8.38-17.97,11.61-25.92c3.46,1.52,6.62-0.06,9.49-4.74l3.03-0.8c0.25-0.61,0.52-1.21,0.88-1.74
	c0.24-0.36,0.5-0.67,0.84-0.81C1056.43,901.3,1070.73,904.64,1070.94,906.75z"/>
<path class="st9" d="M1079.62,940.25c2.95-35.81,0.32-8.56-8.68-33.5c-2.4-1.4-2.15-2.7,0.6-3.1c3.83-3.04,8.45-5.22,7.29-10.06
	c5.93-0.42,10.03-2.03,13.95-4.2c3.33-1.84,7.11,0.62,5.89,3.64l-3.7,9.18c-1.65,4.09-5.04,1.53-6.43,2.64
	c-1.87,1.5-2.99,7.95-1.08,8.43c8.85,1.1,14.38-7.65,23.51-10.32C1101.17,913.33,1088.76,955.04,1079.62,940.25z"/>
<path class="st1" d="M1115.48,1150.52c-0.42-5.24,1.44-11.28-2.45-13.42c-5.82-3.2-11.39-0.48-18.81-2.02
	c6.33-5.66,13.97-10.48,14.9-19.1c12.82-0.54,23.56-7.48,38.56-11.07C1138.68,1122.13,1125.59,1135.37,1115.48,1150.52z"/>
<path class="st13" d="M1151.84,828.31c3.71,5.45-1.79,12.45,5.47,14.32c-0.39,1.03-2.18,1.29-2.63,2.49
	c-3.24,0.76-10.96,0.98-12.03-2.77c0.75-6.83-5.86-11.74-4.08-18.77C1143.26,824.39,1147.36,826.45,1151.84,828.31z"/>
<path class="st14" d="M1154.68,845.11c2.08,6.43-1.67,13.37-4.34,18.68c-5.56-5.37-11.85-14.34-7.69-21.45
	C1146.48,842.71,1152.27,841.36,1154.68,845.11z"/>
<path class="st1" d="M1136.96,772.77l1.39,1.41c0.18,0.33,0.21,0.8,0.32,1.16l9.19,28.3c-7.78,0.82-11.69-8.12-18.51-12.38
	c-2.05,3.85-4.99,7.12-6.97,9.05c-3.54,3.45-7.12,2.7-9.72-1.01c1.45-5.62,1.94-13.09,4.24-18.38l12.03-26.49
	C1133.57,760.45,1134.44,766.99,1136.96,772.77z"/>
<path class="st15" d="M143.45,555.28c60.1,5.84,117.93,18.21,175.63,35.75l2.48,1.4c1.17,13.9,2.4,27.82,3.68,41.78
	c17.32,5.39,35.36,8.88,54.1,10.46c10.92,3.46,12.27,5.68,11.74,17.55c-0.37,8.16-2.55,33.87-6.9,38.8c-0.7,0.8-1.55,1.48-2.43,2.12
	l-171.29-23.02c-4.06-0.55-7.63,0.15-10.53-1.86c-2.47-1.72-2.68-5.57-2.93-8.62l-1.78-5.14c-1.04-29.36-1.72-58.74-2.04-88.15
	l-1.87,1.05c-17.86,0.32-35.19-1.68-51.98-6c-6.84-3.47-5.22-13.76,1.27-15.4C141.53,556.01,142.54,555.19,143.45,555.28z"/>
<path class="st5" d="M460.67,625.51l6.79,137.88c-30.73-2.49-60.91-5.25-92.69-11.53c2.72-17.46,2.79-33.9,6.97-48.71
	c4.09-14.46,6.33-29.91,6.94-47.07c0.55-15.55-45.29-7.54-66.4-20.47l-3.21-44.58c10.28,3.12,22.21,2.19,22.89,16.41L460.67,625.51z
	"/>
<path class="st10" d="M329.53,448.31c-1.51,24.87,3.51,49.82-1,76.71l-101.47-9.33c0.08-2.14-1.49-3.76-2.34-5.39
	c-3.31-1.73-4.78-5.18-4.42-10.36c-0.21-17.35-0.46-34.45-0.74-51.31c-1.65-4.54,0.43-10.21-0.06-14.87
	c14.28-10.8,59.68,1.28,78.28,4.7C309.19,440.56,321.52,440.21,329.53,448.31z"/>
<path class="st15" d="M219.56,448.63c6.93,19.13-0.11,41.23,5.16,61.67c1.94,12.41-42.03,2.04-45.34-1.33
	c-4.17-27.14-5.71-55.25-19.91-79.25c5.39,4.39,10.39-3.56,16.1-5.61C184.13,423.35,221.68,473.89,219.56,448.63z"/>
<path class="st4" d="M786.29,1479.87c1.05-0.02,2.6,0.06,2.82,0.81c2.44,8.38,5.65,32.81,6.03,41.88l-2.37,2.32
	c-53.89,2.14-107.68-4.06-160.52-14.09c-0.49-4.83-1.6-9.93-1.38-14.83c0.33-7.58,0-15.27-1.36-22.82l60.27,9.2L786.29,1479.87z"/>
<path class="st11" d="M317.41,1398.1c-0.06,0.6,0.19,1.43-0.02,2.1c-0.23,0.76-1.14,0.94-2.01,0.79c-0.8-0.13-1.53-1.09-1.99-1.99
	C314.29,1397.59,316.09,1398.38,317.41,1398.1z"/>
<path class="st13" d="M98.06,73.97c4.13,14.34,8.7,28.54,15.77,42.4c-3.73-1.38-7.25-2.81-10.47-0.36l27.34,66.47
	c-8.47-1.39-13.68-7.08-22.78-6.74c10.92,14.43,18.37,29.97,25.78,46.12l18.94-35.57c-6.66-1.01-11,3.33-17.3,4.23
	c4.81-13.14,13.77-23.12,16.8-37.17c-3.93-2.25-5.94,2.69-11.54,2.15c9.95-19.74,14.33-40.97,23.08-62.62
	c8.64,21.25,11.67,42.65,22.26,62.78c-4.56,0.7-7.42-2.46-11.3-2.77c1.98,12.19,9.4,21.36,13.27,32.06
	c4.89-0.28,9.11,11.6,3.54,13.35c-2.27,2.01-5.71,1.15-10.35-2.58c2.53,5.89,4.2,12.01,5.01,18.38c3.97-1.29,8.28,8.05,5.12,10.59
	l12.41,28.95c-6.15,0.46-11.25-1.82-17.59-3.12l20.38,42.67c0.55-0.3,1.11-0.54,1.69-0.59c1.85-0.17,12.53,20.28-4.08,15.44
	l32.08,60.43l-1.61,2.68c-44.12-4.62-86.95-16.48-131.6-22.49L9.41,336.08l34.63-59.3c-5.19-1.17-10.92,0.38-16.93-2.07l35.23-55.66
	c-9.57-0.27-16.46,6.52-25.21,8.35l31.56-49.71c-9.58-0.13-15.41,5.72-25.38,8.31c10.76-8.87,5.35-18.14,5.12-29.3
	c1.15,2.09,2.86,4.48,4.92,6.86c8.53-16,16.22-31.65,18.28-49.57l-6.43-3.13c3.06-6.48,5.39-13.42,7.06-19.67
	c8.01-12.26,10.81-26.65,16.92-41.76C92.51,57.71,95.72,65.84,98.06,73.97z"/>
<path class="st10" d="M1020.02,545.38c0.07,18.75,4.76,37.39,5.73,55.85c-5.79,0.11-11.59,0.62-17.37,0.09l0.22-22.75
	c-1.51-9.28-2.75-19.13-1.03-28.67c0.33-1.82,1.56-3.32,2.75-4.67C1010.93,541.18,1019.19,541.49,1020.02,545.38z"/>
<path class="st0" d="M1155.47,175.34c-9.44-8.29-15.91-22.36-20.53-34.73c7.35-0.85,17.53,13.38,16.85,4l18.41-9.75L1155.47,175.34z
	"/>
<path class="st10" d="M140.6,556.01c-0.77,3.06-5.12,9.48-1.8,12.33c17.66,7.14,36.63,4.45,56.19,6.75
	c2.23,31.68,2.05,63.78,2,94.55c-1.64,2.17-1.66,5.56-1.82,9.63L58.69,668.79c-1.55-3.23-3.4-5.27-5.07-7.13
	c-4.66,1.4-5.88-5.48-6.49-9.14c-7.6-14.95-8.69-34.28-12.83-51.06l41.79,4.66c7.84-17.31,7.59-33.26,13.29-50.96
	C106.51,553.11,125.2,550.27,140.6,556.01z"/>
<path class="st2" d="M92.4,795.43c-5.93,0.46-9.67-5.16-14.71-7.97c-11.27-6.28-20.36-14.12-29.51-25.3
	c-14.3,9.74-26.35,20.6-37.36,32.11L8,794.48c-1.18-1.9-0.26-6.35,1.14-8.49l0.65-5.85c21.27-35.17,31.91-52.75,31.91-52.75
	c3.46,1.4,6.6,3.59,9.39,6.57c14.19,7.26,21.79,16.5,29.99,30.77c3.87,6.73,10.5,18.41,12.16,25.54
	C93.67,792.02,93.04,793.82,92.4,795.43z"/>
<path class="st2" d="M80.27,811.44c8.66,7.19,14.88,15.97,19.96,25.57c-1.22,3-4.81,4.3-10.76,3.92c1.63,7.19,4.74,13.99,9.33,20.42
	c2.62,7.06-0.85,9.27-6.07,3.91c-13.45-14.61-24.2-35.75-29.43-55.55c-1.15-4.34,7.67-5.67,9.13-2.68
	C73.48,809.16,77.98,809.54,80.27,811.44z"/>
<path class="st0" d="M100.23,837c3.21,6.07,9.71,11.88,11.16,19.06c-1.62,4.36-7.44,3.79-8.78,8.07c-1.11,3.56,2.2,7.62-0.37,11.21
	c-4.64-2.76-6.17-6.46-9.51-10.09c14.39,6.08-9.49-16.13-5.47-26.78L100.23,837z"/>
<path class="st2" d="M10.15,853.12c3.03-11.35,15.73-19,14.96-32.44c-0.15-2.64-8.65-3.42-6.91-7.65c2.7-2.86,3.62-9.38,7.34-12.18
	c3-2.26,7.18-0.71,8.75,1.44C44.84,816.85,20.34,843.42,10.15,853.12z"/>
<path class="st3" d="M13.31,901.54c-2.26-1.75-5.2-1.79-7.95-1.44c-0.82-3.35,2.41-2.72,4.7-2.95
	C13.28,896.84,14.05,898.58,13.31,901.54z"/>
<path class="st3" d="M815.72,1495.75c-0.3,13.03,4.61,25.39,8.06,37.88c-11.59-4.28-17.48-9.29-31-8.76l-6.49-45
	c3.96-0.1,10.19-2.27,13.59,0.94L815.72,1495.75z"/>
<path class="st1" d="M53.62,661.66c0.07,7.77,3.65,15.09,5.4,22.61l4.22,5.89c7.37,23.54,15.77,46.67,25.19,69.39l-0.3,3.81
	c5.29,4.71,8.84,11.25,10.66,19.64c3.57,7.02,4.49,13.51,2.78,19.5c-5.32-0.46-7.43-2.46-9.17-7.05
	c-6.04-15.9-14.25-33.1-25.44-46.7c-6.64-8.08-17.81-9.87-24.53-19.8c-9.32,21.71-21.25,38.77-33.28,57.06
	c-2.1-1.9-5.68-1.98-6.48-4.92c14.01-32.63,28.19-64.53,37.03-99.28l7.45-29.28C50.92,653.42,51.01,658.75,53.62,661.66z"/>
<path class="st9" d="M546.38,273.47c-0.91,9.51,3.64,16.21,6.93,25.18c-3.55-2.07-7.92-1.94-10.69-3.76
	c-1.75,1.43-4.32,1.65-7.73,0.69c-4.86,1.89-8.49,1.71-10.91-0.55c-3.17,0.32-4.15,0.8-9.43,1.76c5.55-8.76,4.55-17.96,7.79-24.96
	c6.06-13.08,7.59-26.7,11.18-41.65L546.38,273.47z"/>
<path class="st9" d="M191.25,224.68l-5.12-10.59c-1.15-4.98-1.08-16.37,5.34-15.8c1.22-4.28-1.99-9.05-3.54-13.35
	c7.41-13.8,8.55-29.73,13.66-45.93c3.41,17.89,9.6,34.65,16.36,52.21c-2.84,0.3-3.56-3.1-6.39-1.97
	c1.38,12.55,12.34,24.9,5.85,33.05C212.86,228.01,198.58,216.48,191.25,224.68z"/>
<path class="st9" d="M108.08,298.34c-0.41-14.26,13.54-24.68,17.53-46.3c6.53-2.1,11.16-5.7,18.48-6.64
	C144.73,246.35,108.69,319.59,108.08,298.34z"/>
<path class="st9" d="M135.82,305.79c-8.55,14.89-17.43,28.21-32.68,34.36C107.55,323.03,115.92,303.77,135.82,305.79z"/>
<path class="st12" d="M131.23,226.81c-2.03,6.22-3.79,11.66-8.17,17.91c-4.54-9.33-8.54-16.3-15.08-23.73
	C116.3,222.78,121.48,226.33,131.23,226.81z"/>
<path class="st12" d="M191.47,198.28c-3.22,4.74-3.04,10.63-5.34,15.8c-3.62-7.49-8.5-14.58-9.74-24L191.47,198.28z"/>
<path class="st9" d="M401.7,318.5l1.51,2.52l-17.32,25.22l18.16-7.46c3.02,0.48,4.41,1.12,4.17,4.26
	c-0.31,4.12-17.36,23.44-21.52,26.66l-3.73,0.26c-2.35,3.97-5.01,2.35-3.73-1.63l-4.07-4.05c-7.69-18.11-15.93-35.98-24.72-53.63
	c-1.34-3.6,0.27-4.54,3.22-5.83l21.56,6.35l-19.75-40.84l1.73-2.58c6.37-21.03,11.85-41.99,16.02-64.86l23.13,78.23
	C371.9,271.24,402.2,294.15,401.7,318.5z"/>
<path class="st12" d="M304.01,238.65c0.36,9.27-6.11,22.34-11.36,30.49c-1.19,1.85-3.12,3.04-5.01,4.08
	c-3.23-0.42-5.71-3.15-7.43-8.2c-7.18-8.43-6.13-12.6,4.77-12.13l-7.25-16.92c-2.16-11.52,18.12-14.53,17.12-1.22
	C299.39,235.05,302.44,236.36,304.01,238.65z"/>
<path class="st12" d="M379.24,368.34c1.19,0.4,2.09,2.19,3.73,1.63c0.78,2.15,1.17,3.22,1.17,3.22c5.84-2.36,11.07-2.73,15.71-1.12
	c0.45,5.01-9.16,21.09-12.89,23.27c-2.82,1.65-3.35,1.39-6-0.15c-1.6-0.93-17.63-30.68-16.55-32.59
	C367.23,357.58,377.78,364.15,379.24,368.34z"/>
<path class="st9" d="M257.22,143.61c2.26,20.04,11.06,38.27,20.01,57.53c-5.42-2.55-7.42-8.69-13.74-7.46
	c5.83,12.07,10.84,22.65,15.19,33.81c2.09-3.19,4.47-5.02,6.17-6.51c3.16-5.94,20.24-4.25,25.68-2.28c3.64,1.32,3.81,1.42,3.91,5.37
	c0.06,2.39-6.7,16.14-10.44,14.58c-3.97,0.45-7.8-0.94-12.28-1.02c1.27-6.25,0.36-9.73-5.76-8.75c-2.63,0.42-7.35,1.62-5.68,6.31
	c2.53,7.11,6.5,13.2,8.4,20.6c-4.59,1.17-7.55-1.47-11.55,0.86c5.29,5.41,7.58,11.16,10.5,16.57l2.01,1.99l-16.75,34.24
	c4.8,2.3,10.25,2.31,16.35,0.04c2.36,0.41,3.19,2.16,3.37,4.51l-26.83,61.91l-3.09,0.41c-9.34-1.95-19.23-1.85-28.16-5.18
	l-35.35-66.59l12.61,1.44l-5.34-12.81l20.75-35.43c-7.09-0.25-12.07,1.13-19.02-0.32c11.74-20.55,19.37-42.2,29.26-64.29
	c-5.22-0.64-8.1,2.65-12.55,3.09c7.72-20.75,14.76-40,20.22-59.63l4.96-17.82C250.4,128.36,255.24,136.39,257.22,143.61z"/>
<path class="st8" d="M994.85,218.29c1.13,7,5.5,15.53-0.77,20.35c-5.55-1.72-10.26-11.94-12.67-17.68
	c-5.07-12.09-2.37-14.32,9.29-8.04L994.85,218.29z"/>
<path class="st8" d="M1078.27,230.42c2.41-7.26-5.93-13.15-4.11-20.44c2.66,0.98,5.21,2.21,7.46,2.62c3.55,0.65,6.23-0.21,5.63-4.17
	c-0.36-2.41-1.48-5.14-3.57-8.68c4.52-2.92,10.22-3.75,15.93-5.49L1078.27,230.42z"/>
<path class="st13" d="M991.96,205.92c0.04,4.43,2.2,8.08,2.89,12.37c-4.31-2.5-9.06-5.07-14.3-7.01
	c3.14,10.65,9.13,18.64,13.53,27.37c3.95,7.82,5,17.05,11.32,23.68c4.01,4.21,4.27,12.34,8.31,17.54
	c-6.55-2.08-11.54-2.24-16.76,1.52c9.57,19.57,17.46,38.93,28.87,58.32c-5.62-1.54-9.21-6.97-16.66-7.93l15.31,33.61
	c-51.54,6.4-102.25,21.29-147.53,48.15c-18.86,2.04-33.55,13-50.59,17.49l22.14-54.46l-19.07,8.4l33.44-70.95
	c-8.98,2.48-14.57,10.44-23.88,14.22c7.29-18.72,18.59-33.4,23.34-51.9c-5.74,3.08-7.77,8.31-12.71,12.66
	c-0.06-2.91-0.4-6.51,0.44-8.96l24.2-70.41l11.44,42.38c3.14,11.63,10.5,21.7,13.08,34.06c-3.75-1.5-5.12-4.84-9.58-5.62
	c4.59,14.58,9.48,28.72,17.58,41.59c-6.4,0.03-10.32-3.37-16.46-4.86L905,353.12c-5.32,7.86-12.69,13.99-10.45,23.33
	c14.51-12.06,19.54-29.58,30.9-44.39c-7.27-2.28-11.77,1.54-19.22,1.38l35.44-68.43l-26.73,13.55
	c7.76-18.99,21.92-34.57,25.43-53.62c4.33-2.68,3.95-10.9,4.92-15.06c-5.82-1.31-8.32,2.03-13.12,1.72
	c7.09-13.06,14.83-24.92,18.39-38.92c-6.2,2.3-9.44,7.17-15.37,4.48c12.63-24.32,19.62-48.34,28.77-74.68
	c7.38,26.26,16.06,50.27,26.83,75.47l-13.79-2.37C981.72,186.59,985,197.55,991.96,205.92z"/>
<path class="st13" d="M353.62,184.99c-0.29,1.05,1.75,3.54,1.02,4.32c-1.41,1.51-4.23-0.64-7.81,0.04l15.13,34.64l-28.22-4.36
	c7.13,17.53,15.91,32.48,23.48,48.12l23.27,48.12l-28.71-8.82c9.62,21.85,20.84,40.72,27.47,61.3c-4.44-1.51-7.84-5.09-13.26-4.98
	l17.9,31.56c6.11-7.49,10.73-14.05,14.48-22.29l-20.2,4.75c2.73-2.27,3.23-5.48,4.81-7.41c7.54-9.21,17.65-16.78,23.46-28.93
	c-10.11,1.67-16.89,9.73-26.08,8.03l21.35-30.56c5.52-7.9,11.68-16.15,13.97-26.28l-16.92,0.82c8.76-16.8,19.95-30.6,22.75-49.42
	c-5.33,2.19-8.03,6.88-15.13,6.95c5.3-13.97,8.64-27.36,12.81-40.46c3.37-10.59,6.97-21.21,9.22-33.97
	c6.16,15.1,8.78,30.04,13.72,44.7c3.38,10.02,3.6,21.46,11.36,31.64l-13.96-5.76c-3.03,12.82,14.72,34.12,19.8,49.27l-16.32-6.58
	c2.06,10.83,5.97,20.01,9.69,29.29c3.82,9.53,10.58,17.83,12.7,28.41c-5.94-1.54-9.63-5.14-15.56-5.3
	c10.98,16.54,22.31,31.84,36.32,47.25c-10.08-0.25-18.65-4.29-30.05-7.51l25.86,47.07l-69.87-21.2l-149.4-31.11l27.96-64.52
	c-7.72,2.35-15.07,3.2-21.65-0.47l18.64-38.11c5.6-11.44,11.69-22.77,16.37-34.56c2.09-5.27,6.89-9.43,8.27-17.12
	c-8.92-0.58-18.73-3.62-27.42-0.55c5.6-10.96,10.86-22.22,15.24-34.36c-3.94-1.23-5.77,1.72-10.19-0.25
	c5.47-4.15,6.58-12.03,10.46-16.34c5.58-6.21,6.67-14.19,8.62-23.03c-5.26,5.44-8.53,9.82-14.14,10.62l26.92-79.71
	c7.68,26.98,18.47,53.06,30.85,80.81l-16.63-6.8C339.04,163.69,344.5,176.84,353.62,184.99z"/>
<path class="st13" d="M542.61,294.9c3.3,12.15,11.02,22.73,17.48,35.13c-4.93-0.11-8.54-3.62-14.5-4.67
	c3.81,14.36,12.43,26.2,18.61,40.88c-5.83-1.02-10.72-5.34-16.67-4c6.01,14.49,13.79,26.14,20.6,39.08
	c-6.91-0.97-12.12-3.87-18.58-3.57c5.1,17.07,12.39,32.57,18.48,48.49c-30.95-6.9-44.01-1-72.41-13.74
	c8.49-9,10.41-22.79,17.83-34.33l-15.95,2.87c9.09-13.93,17.82-26.14,22.77-40.93l-14.12,1.86l19.02-39.39l-19.14,8.06
	c6.39-12.23,13.48-23.27,17.94-35.61C530.34,294.39,536,290.57,542.61,294.9z"/>
<path class="st5" d="M286.68,1030.03c-5.53-7.34-11.26-15.12-11.93-24.41l2.51-1.51c26.83,22.21,7.15-5.54-0.96-14.49l0.94-3.02
	c0.7-2.51,3.13-2.8,7.3-0.86c0,0-4.36-6.71-13.09-20.12l0.27-4.03c-1.13-4.19-2.35-9.14-4.47-13.15c-2.76-2.76-2.62-4.22,0.44-4.37
	l167.11,8.83c6.15,7.52,6.81,15.81,9.25,23.71l47.47,6c5.83,8.58,6.46,19.17,7.42,28.55l-127.24-6l59.16,7.18
	c8.55,5.59,9.93,21.66,10.71,31.54l-147.83-9.98L286.68,1030.03z"/>
<path class="st5" d="M512.41,867.71l0.41,67.18c-61.47-1.82-122.24-11.32-185.33-16.95c1.53-22.05,6.83-42.23,13.51-62.88
	L512.41,867.71z"/>
<path class="st10" d="M178.01,770.15c-2.17-0.76-4.37-1.63-6.58-2.58l-1.36,2.35c-26.5-0.96-53.04-2.25-79.59-3.88l-2.34-2.67
	c-11.14-25.85-22.7-51.57-29.11-79.09c44.85,7.13,36.37,3.61,71.49,27.34l102.29,13.98c9.38,15.44,12.51,31.86,19.74,48.77
	L178.01,770.15z"/>
<path class="st5" d="M440.04,836.22l-148.32-23.4c-4.19-2.05-2.82-12.18-1.37-16.69l141.54,9.27
	C437.48,814.81,440.37,824.73,440.04,836.22z"/>
<path class="st10" d="M512.41,690.04l-0.04,75.87c-8.34-0.02-16.67-0.17-24.94-1.36l1.72-41.34c0.37-11.09,1.02-22.15,1.97-33.2
	l2.92-1.55C497.13,684.45,509.38,686.38,512.41,690.04z"/>
<path class="st9" d="M288,1068.92c5.14,1.61,8.26,7.86,10.76,10.93c-5.33,1.58-9.35-2.27-13.9,0.47l36.29,48.61
	c-3.93,1.77-7.16,0.6-10.16,0.36c-27.92-10.12-13.22-13.61-44.69-41.89c-4.32-3.88-11.72-14-6.88-19.13
	C266.66,1060.6,279.32,1066.2,288,1068.92z"/>
<path class="st11" d="M265.06,913.24c3.18,7.22,8.8,13.8,10.55,21.91c-4.22,0.59-9.03-2.24-10,1.21c-0.57,2.04,0.57,5.75,2.08,7.72
	l-0.44,4.37c-8.33-5.57-15.24-12.19-22.14-21.35l-13.16,13.25c-4.46,0.63-7.6-4.09-12.11-2.56c-1.05-0.81-4.11-0.46-4.13-2.73
	c0.6-1,1.1-2.06,1.48-3.16c2.92-2.36,6.65-5.53,8.02-9.26c3.01-2.21,6.37-4.25,10.07-6.12l1.79-4.41
	c0.33-10.89,3.78-15.53,10.34-13.92c3.54,5.1,7.5,9.3,11.9,12.6C262.17,910.5,264.09,911.32,265.06,913.24z"/>
<path class="st1" d="M178.01,770.15l14.81,44.14c-6.84-2.76-15.57-5.63-19-13.07c-7.75,7.26-13.74,17.01-23.98,18.4
	c1.47-2.48,0.7-5.28,1.82-6.71l-0.08-4.38c7.35-11.92,12.76-24.74,16.26-38.46l3.59-2.51c0.45-1.42,2.44-4.69,3.46-3.09
	C176.02,766.23,177.4,768.33,178.01,770.15z"/>
<path class="st1" d="M265.06,913.24c-13.25,3.72-15.45-13.48-20.77-13.41c-4.71,0.07-2.38,13.63-7.56,19.11
	c-2.8,2.96-7.49,3.42-11.52,3.7l22.03-59.97C254.08,881.02,258.1,897.42,265.06,913.24z"/>
<path class="st1" d="M403.34,1146.57c-7.61,6.72-18.5,7.97-27.3,14.19c-10.62,7.49-22.76,10.82-34.64,6.97
	C353.01,1147.21,381.97,1135.72,403.34,1146.57z"/>
<path class="st9" d="M287.9,1036.55c9.29,6.9,13.98,18.94,20.56,28.6c-9.96,2.51-17.36-2.97-25.57-5.72
	c-13.14-9.65-18.91-23.47-22.62-39.18C269.21,1029.19,279.36,1032,287.9,1036.55z"/>
<path class="st12" d="M484.52,787.07c-1.49,4.98-3.99,10.59-6.44,14.66c-4.73-0.09-6.67-3.08-5.27-7.5
	c-0.98-15.72-1.19-32.26,4.54-48.23L484.52,787.07z"/>
<path class="st11" d="M472.8,794.23c1.61,2.6,3.4,5.08,5.27,7.5c-0.96,12.63-1.41,25.11-5.69,37.03l-2.03-44.35L472.8,794.23z"/>
<path class="st1" d="M776.75,1055.47c17.88,8.89,38.8,12.38,53.83,29.24c-10.1-0.26-21.02-2.06-23.74,8.48
	c-3.01,11.69,1.64,23.75-3.04,35.89c-9.42-10.68-5.1-36.96-15.13-42.35c-3.28-1.76-9.37-2.49-13.23,0.55
	c-24.83,19.52-27.58,5.15-39.43,38.1c-2.55-8.48-1.68-15.41-9.12-15.87c-21.91-1.36-19.29,27.47-30.17,42.39
	c-4.2-10.1-0.15-19.45-1.04-28.55l-1.82-3.77c3.75-12.46,10.02-31.28,19.98-39.97c1.72-1.5,2.93-2.5,5.54-1.78
	C735.04,1063.4,756.43,1057.32,776.75,1055.47z"/>
<path class="st1" d="M615.81,1001.61c17.1,2.7,34.57,5.24,49.53,14.09c-4.82,9.81,24.89,17.46,15.46,32.89l-27.71-17.62
	c-7.94-5.04-18.99,6.5-22.52,13.24c-9.59,18.31-10.91,35.02-11.63,56.36l-9.19-54.14c-2.54-6.34-17.01-6.63-21.6-2.89l-12.8,32.78
	c-1.29-11.29,2.68-24.68-1.07-36.9l-28.11,15.77c4.3-11.86,11.3-23.36,19.13-33.39c7.08-3.74,15.12-12.27,22.98-14.54
	C596.36,1004.91,607.43,1001.35,615.81,1001.61z"/>
<path class="st8" d="M719.38,1077.82c-12.8,11.78-19.92,29.67-23.7,45.52l-11.23,29.32c0.38-51.54,10.48-49.89,25.19-93.13
	C711.7,1065.47,718.2,1070.99,719.38,1077.82z"/>
<path class="st5" d="M1012.36,981.55c-1.1,2.47-1.91,5.22-3.84,8.12c7.1-0.75,12.03-4.42,18.44-3.04
	c-3.06,5.24-5.62,10.91-9.11,15.13l-0.36,4.59c-7.17,7.61-13.54,15.78-19.13,24.52c6.01-1.46,11.38-1.33,16.12,0.41
	c-0.84,4.93-3.04,9.6-6.61,14.03c5.92-2.78,17.01-5.94,12.76,4.07l-20.51,25.77l-6.35,4.32l-119.91,6.75
	c-3.33-17.28,14.67-48.99,22.15-67.26c12.11-1.85,25.95-0.88,37.68-6.8C954.01,990.37,982.65,980.24,1012.36,981.55z"/>
<path class="st5" d="M963.29,861.16c0.8,12.58,3.02,25.21,5.34,37.51c1.24,0.52,2.47,1.23,3.1,2.48c1.24,2.45,1.45,14.52-1.86,16.07
	l-91.36,8.01l4.01-59.99l0.95-2.79l72.6-7.29C961.17,855.59,962,855.82,963.29,861.16z"/>
<path class="st9" d="M990.98,1107.21c0.79-1.86,2.63-3.25,2.87-6.24c-5.84-0.65-10.03,1.97-16.63,0.4
	c6.67-7,11.49-14.58,16.55-21.92c8.21-11.92,17.3-23.03,27.15-34.53c-7.59-0.14-12.34,3.67-18.98,5.24
	c2.22-6.89,7.53-11.21,11.02-18.08l-20.14,2.01c7.32-12.79,16.7-22.32,25.02-32.35l2.69-1.3c5.79-1.83,17.55-4.37,17.58,3.86
	l-15.5,29.06c6.56,11.43,9.84,17.14,9.84,17.14c-4.87,12-27.77,53.04-38.41,56.23C993.07,1107.02,992.03,1107.14,990.98,1107.21z"/>
<path class="st5" d="M821.35,626.76l2.17,80.47c-4.49,0.22-8.99,0.31-13.45-0.33l2.87-78.75L821.35,626.76z"/>
<path class="st0" d="M974.89,912.11c3.25,4.41,2.36,17.64-2.56,19.96c-0.64-0.22-2.05-0.06-2.74,0.02c2.14-4.76,0.46-9.9,0.28-14.87
	c-0.22-6.09-0.09-12.48-1.24-18.55c3.54,0.63,3.7-3.84,6.46-5.37C974.1,899.23,975.66,906.11,974.89,912.11z"/>
<path class="st7" d="M512.31,597.73c-1.83,8.66-3.22,17.43-4.18,26.28l-3.06,1.43c-0.74,0.44-0.68,0.71-0.1,1.34
	c3.53,0.58,3.2,1.82-0.28,2.51c-5.96,9.43-13.89,19.38-19.31,2.84l-0.76-163.34c3.73,1.92,6.5,6.52,6.58,11.13
	c0.69,42.68,5.01,84.61,9.99,126.15l9.28-104.93L512.31,597.73z"/>
<path class="st6" d="M512.41,690.04c-6.17,0.39-12.2-1.29-18.36-1.57l-2.34-3.24c-0.26-3.77-0.67-26.85,0.15-27.98
	c1.77-2.43,3.34-1.57,5.71-0.01l1.73,10.56c1.07-11.77,1.94-23.55,2.61-35.35l2.79-3.15l0.28-2.51c-0.55-0.43-0.49-0.88,0.1-1.34
	c2.3-9.42,1.41-19.76,7.24-27.72L512.41,690.04z"/>
<path class="st8" d="M504.7,629.3c-1.86,16.8-0.13,33.98-5.84,52.43l-4.18-25.58c-1.51,10.72,0.86,21.76-0.63,32.32l-4.9,34.75
	l-3.77-91.08c3.49,1.17,4.02,5.92,8.44,6.86C497.17,634.73,500,630.25,504.7,629.3z"/>
<path class="st8" d="M271.72,961.59c6.44,8.37,13.39,16.98,17,27.43c-5.09,0.68-7.94-2.29-11.49-2.41l-3.03,0.67
	c-2.15-2.65-4.71-4.09-7.69-4.32c-7.01-6-14.08-12.13-18.41-20.34C256.54,960.03,265.37,968.62,271.72,961.59z"/>
<path class="st11" d="M277.23,986.6c4.93,5.73,23.66,26.92,12.86,29.88l-15.34-10.87c-6.55-4.64-9.4-14.28-8.24-22.66
	c1.53-3.16,3.46-2.62,5.73-0.86C274.14,983.57,275.76,984.89,277.23,986.6z"/>
<path class="st11" d="M972.41,1315.02c-0.53,2.26,0.07,5.79,0.22,7.94c-17.53,10.42,63.22-7.58,67.02-4.23l-13.72,17.38
	c8.08,0.2,20.63-0.19,20.91,6.73c0.62,15.3-20.06,16.64-26.37,24.89c-0.82-1.01-1.04-2.46-1.02-4.3c-9.25,0.26-16.86,4.5-27.74,7.56
	c8.75-13.23,19.61-26.33,32.23-36.77l-179.14,42.28c-59.33,14-117.1,26.88-175.48,43.93c-14.11,4.12-28.53,6.51-39.59,14.39
	c-24.83,2.38-85.5,9.94-102.12-8.38c83.67-27.49,168.9-48.75,255.07-73.77c1.29-8.25-5.45-13.36-10.48-19.59
	c-2.38-2.95,1.11-9.5-3.31-10.57l-11.61-2.8c4.94-7.57,14.52-3.1,22.36-2.65l85.52,4.9l49.47,1.01
	C935.14,1323.39,953.89,1324.33,972.41,1315.02z"/>
<path class="st6" d="M930.18,689.63c3.53-0.3,5.58,2.37,6.15,8l2.1,19.15l-2.2,2.36c1.11,2.74,2.46,5.32,4.03,7.75
	c-0.46,12.16,0.62,23.43,3.24,33.82l1.62-10.33c0.33-11.87,2.43-23.2,6.31-33.98c-4.26-1.24-2.49-9.23,2.17-7.92l9.71,152.68
	c-1.29-1.85-3.83-3.66-7.06-3.34l-73.7,7.41c1.52-22.74-1.54-47.6,4.61-69.99c2.96-10.78,6.79-18.36,7.12-30.66l3.26-121.68
	l5.61,32.8l4.25-48.88l6.78,134.61c9.27-27.5,3.99-53.64,7.21-80.68c4.47,9.57,1.81,18.94,3.21,29.49
	C927.82,703.72,929.83,696.62,930.18,689.63z"/>
<path class="st7" d="M953.59,708.48c-1.77,1.86-1.71,5.18-2.17,7.92l-1.33,2.8c-0.57,8.24-2.26,12.21-11.2,8.56
	c-0.14-3.52-1.03-6.39-2.67-8.61c-2.56-9.65-0.09-21.31-6.05-29.52l6-120.92c6.63,16.93,3.14,33.26,7.92,50.32l8.96-30.61
	L953.59,708.48z"/>
<path class="st11" d="M586.61,688.39c-4.16,7.87,3.48,20.28-6.7,23.27c-1.13-7.15-2.62-14.8-0.54-22.27
	C580.91,687.81,584.97,688.49,586.61,688.39z"/>
<path class="st8" d="M1018.1,505c-3.36,2.57-6.87-1.57-6.95-5.29c0.57-27.4-0.27-54.98,4.45-83.97
	C1018.96,446.28,1021.59,476.59,1018.1,505z"/>
<path class="st8" d="M1010.16,506.29c1.05,0.11,2.63,0.45,2.68,1.17c0.78,10.15,0.83,25.67,0.16,35.84l-2.67,1.93
	c0.05,11.08-1.61,22.28-1.72,33.34c-3.56-2.61-0.28-7.81-3.15-10.83c-5.24,2.29-0.22,14.36-4.11,3.5c-0.29-0.82-0.72-2.34-0.89-3.39
	l6.99-67.01C1009.63,502.72,1007.74,506.02,1010.16,506.29z"/>
<path class="st6" d="M1018.1,505c-1.57,12.78,1.87,27.39,1.92,40.38l-9.7-0.14l-0.17-38.94c-0.01-2.24,0.95-4.42,0.99-6.59
	C1013.99,500.67,1015.72,503.25,1018.1,505z"/>
<path class="st6" d="M171.43,767.56c-4.8,15.3-9.52,32.34-19.76,45.35c-15.66-8.81-36.69-0.07-50.1-10.42
	C98.8,789.3,93.58,776,88.13,763.35L171.43,767.56z"/>
<path class="st1" d="M1071.54,903.65c-0.25,1.02-0.46,2.06-0.6,3.1c-5.88,1.5-11.08-2.41-17-2.56c-2.51-0.45-3.77-0.67-3.77-0.67
	c-1.3-6.56-0.52-13.57,2.32-21.04c2.29-3.88,1.18-10.55,5.29-14.41C1063.3,880.3,1063.15,894.39,1071.54,903.65z"/>
<path class="st6" d="M972.33,932.07l2.56-19.96l5.3,4.34c15.07-5.12,30.66-7.57,45.83-7.65c-15.09,6.31-31.71,1.78-42.56,13
	C979.5,925.88,978.49,935.05,972.33,932.07z"/>
<path class="st0" d="M1053.94,904.19c-0.51,3.22-3.29,5.2-5.5,7.09c-3,2.57-6.39,3.39-7.02-1.55c3.65-9.01,6.03-18.69,11.07-27.25
	C1054.96,889.75,1048.22,898.4,1053.94,904.19z"/>
<path class="st13" d="M1089.05,987.08l-14.82,25.29c-1.68,2.87-2.44,5.8,0,7.76l4.15,0.27c4.81,6.36,8.69,13.4,11.64,21.11
	l-1.37,3.05c-19.87,21.91-40.18,43.56-55.9,69.7c-8.32-0.73-14.52,6.34-23.74,7.5l1.2-14.33l-26.29,8.84
	c-0.41-5.36,4.53-6.66,7.06-9.04c16.43-15.49,28.61-35.83,39.16-56.61c-4.91-4.6-7.57-10.94-10.04-17.33l16.19-31.27l-15.76-1.55
	c12.86-6.24,21.78-21.3,30.12-33.61c-12.13-0.88-12.02,11.4-20.62,12.9c6.76-8.93,13.69-18.94,23.93-14.15
	c-1.7-8.93,1.26-9.36,1.9-8.46c0.83,1.17,0.29,6.36,1.73,6c3.87-0.96,3.24-3.28,7.23-5.23L1089.05,987.08z"/>
<path class="st4" d="M1092.85,1041.97c-0.82,0.74-2.85,1.09-4.2,2.58c-4.84-8.24-6.9-18.39-14.42-24.42c3.4-1.05,7-1.69,10.46-2.53
	l24.13-5.83L1092.85,1041.97z"/>
<path class="st8" d="M936.22,719.15c4.45-0.17,1.44,5.88,3.76,6.41c3.32,0.76,7.38,1.87,8.35-1.4c0.65-2.2-0.25-5.95,3.08-7.75
	c-2.78,16.86-2.15,34.76-7.3,53.36C934.31,753.53,940.49,735.19,936.22,719.15z"/>
<g>
</g>
<g>
</g>
<g>
</g>
<g>
</g>
<g>
</g>
<g>
</g>
<g>
</g>
<g>
</g>
<g>
</g>
<g>
</g>
<g>
</g>
<g>
</g>
<g>
</g>
<g>
</g>
<g>
</g>
</svg>
