<?xml version="1.0" encoding="iso-8859-1"?>
<!-- Generator: Adobe Illustrator 30.2.1, SVG Export Plug-In . SVG Version: 9.03 Build 0)  -->
<svg version="1.1" id="Layer_1" xmlns="http://www.w3.org/2000/svg" xmlns:xlink="http://www.w3.org/1999/xlink" x="0px" y="0px"
	 viewBox="0 0 1200 1543" style="enable-background:new 0 0 1200 1543;" xml:space="preserve">
<style type="text/css">
	.st0{fill:#E3ECF6;}
	.st1{fill:#8B97A7;}
	.st2{fill:#727AAD;}
	.st3{fill:#647082;}
	.st4{fill:#FDFCFC;}
	.st5{fill:#FDFDFD;}
	.st6{fill:#FCFCFD;}
	.st7{fill:#155085;}
	.st8{fill:#47515D;}
	.st9{fill:#155084;}
	.st10{fill:#C1D1E1;}
	.st11{fill:#1B5992;}
	.st12{fill:#145186;}
	.st13{fill:#486F86;}
	.st14{fill:#A6CCEA;}
	.st15{fill:#648BD0;}
	.st16{fill:#79B8E9;}
	.st17{fill:#5260A1;}
	.st18{fill:#77B8EA;}
	.st19{fill:#78B8E9;}
	.st20{fill:#FBFBFC;}
	.st21{fill:#A5CBEB;}
	.st22{fill:#78B7E8;}
	.st23{fill:#ADD1EC;}
	.st24{fill:#496F85;}
	.st25{fill:#96AFC1;}
	.st26{fill:#C0D0E0;}
	.st27{fill:#46505C;}
	.st28{fill:#636F81;}
	.st29{fill:#8A92B6;}
	.st30{fill:#A6CBE9;}
	.st31{fill:#7CDEDF;}
	.st32{fill:#CCEEEB;}
	.st33{fill:#CCEDEB;}
	.st34{fill:#CBEDEA;}
	.st35{fill:#487086;}
	.st36{fill:#647081;}
	.st37{fill:#7ADEDE;}
	.st38{fill:#CDEEEB;}
	.st39{fill:#CDEDEB;}
	.st40{fill:#7CDDDE;}
	.st41{fill:#ADD3F0;}
	.st42{fill:#B1D3E8;}
	.st43{fill:#AFD4EF;}
	.st44{fill:#B2D4EE;}
	.st45{fill:#A1CDEA;}
	.st46{fill:#A5CCE7;}
	.st47{fill:#BFDEEC;}
	.st48{fill:#78B8EA;}
	.st49{fill:#EEF9F9;}
	.st50{fill:#A8CCEB;}
	.st51{fill:#A7D4DF;}
	.st52{fill:#A3D4E0;}
	.st53{fill:#658CD0;}
	.st54{fill:#628ACD;}
	.st55{fill:#79B9EA;}
	.st56{fill:#C5E8EB;}
	.st57{fill:#175082;}
	.st58{fill:#A4D5E3;}
	.st59{fill:#72B3E5;}
	.st60{fill:#FCFBFC;}
	.st61{fill:#77B7EA;}
	.st62{fill:#FCFCFC;}
	.st63{fill:#165082;}
	.st64{fill:#155185;}
	.st65{fill:#174F7D;}
	.st66{fill:#AFD4F1;}
	.st67{fill:#497189;}
	.st68{fill:#F6F8FC;}
	.st69{fill:#BFCFDE;}
	.st70{fill:#A2B8CA;}
	.st71{fill:#C0D0DF;}
	.st72{fill:#466E85;}
	.st73{fill:#476F86;}
	.st74{fill:#B8CEE0;}
	.st75{fill:#5D8297;}
	.st76{fill:#B8CAD8;}
	.st77{fill:#84DBDC;}
	.st78{fill:#8BDADE;}
	.st79{fill:#BBCDDE;}
	.st80{fill:#B7CCE1;}
	.st81{fill:#4A738C;}
	.st82{fill:#C4E7EB;}
</style>
<path class="st0" d="M0,277.23V0h1200v513.19l-6.52,1.49c-26.03-4.48-52.62-3.52-78.61,0.74l-6.51-1.59
	c-21.28-8.48-43.17-15.54-65.68-21.2c-6.72-1.73-18.5-6.32-8.65-12.26c-4.39-3.65-7.96-7.77-10.71-12.37l1.56-3.9
	c0.03-1.22-9.79-22.07-11-21.9c-1.33,0.18-9.55,22.41-10.37,24.83c0.45,5.98-2.78,11.23-9.68,15.75c7.62-1.12,14.35,4.98,5.8,9.53
	c-27.48,4.5-54.42,11.65-78.79,25.44c-5.65-2.8-16.16-8.46-8.25-13.47c-5.09-4.31-8.47-9.12-10.14-14.43l3.01-2.53
	c0,0-3.88-7.82-11.65-23.45l-5.29,10.68c0.89,14.33-8.43,11.49-17.18,4.64l-19-19.22c-4.69-3.77-11.45-9.87-1.28-10.39
	c-5.75-4.39-8.61-9.27-8.59-14.65c1.46-0.12,2.75-0.48,2.68-1.05c-0.14-1.17-10.48-20.02-11.49-20.63
	c-0.62-0.38-6.8,11.74-4.59,13.07c-0.8,3.95-3.26,7.16-7.35,9.61c5.9,7.2-5.38,18.38-13.26,19.98c-6.93,1.41-31.08-8.5-22.39-17.85
	c-8.13-5.03-10.65-10.16-7.56-15.38c-3.81-2.3-6.37-5.28-7.71-8.96c0.84-2.07-4.64-14.84-5.09-14.2
	c-2.28,3.17-5.24,10.99-5.36,14.89c-1.2,3.76-3.54,6.94-7.03,9.54l1.96,2.24c-1.54,6.35-5.42,12-11.63,16.94
	c11.92-1.09,13.54,5.78,2.01,9.96c-10.53,3.81-18.61,2.15-26.34-5.45c-3.35-3.29-11-11.75-4.47-14.08c0,0-3.79-7.47-11.37-22.4
	c-2.77,5.53-4.56,11.26-5.39,17.21c-3.78,4.1-4.18,6.96-1.2,8.57c-1.94,5.14-4.55,10-7.81,14.57c4.02,0.81,4.38,3.53,3.09,6.69
	c2.12,1.92,1.56,3.05-1.24,2.57c-5.85,7.1-15.43,11.48-24.23,13.81c-11.86-13.21-23.35-26.7-34.45-40.47
	c-2.97,2.36-4.12,0.95-3.12-2.69l-5.46-1.48c-24.46-22.09-55.84-33.74-86.72-43.84c-3.88-2.49-3.04-5.46,0.68-7.09
	c-5.78-4.42-7.21-8.95-4.3-13.59c-3.86-6.26-7.4-12.59-10.63-19c-1.98,7.48-4.74,14.63-8.26,21.44c3.24,3.35-1.52,9.92-4.74,11.46
	c-7.33,3.52-33.34,0.21-39.04-5.68c-3.14-3.25-2.13-5.29,1.33-7.83c-7.31-11.08-12.96-23.16-16.95-36.23
	c-3.19,5.59-5.48,10.13-5.84,16.33c-4.69,3.73-6.13,6.42-4.34,8.05c-1.53,5.99-5.08,11.3-10.64,15.93
	c5.99-1.34,15.29,0.94,9.52,7.69l-61.7,16.39c-3.25,1.97-21.73-15.12-22.1-16.49c-1.1-4.13,3.44-5.42,7.05-3.88
	c-4.44-4.39-7.84-9.11-10.17-14.16l2.68-2.84c-3.84-7.65-7.43-15.6-10.76-23.85c-2.29,8.95-5.84,17.29-10.63,25.03
	c5.71,5.9-1.28,12.52-9.24,10.78c-3.12-0.68-17.64-9.14-16.58-12.17c0.84-2.39,3.33-2.25,5.45-1.99c-5.05-3.89-8.31-8.25-9.8-13.08
	c2.2-1.23,3.3-1.84,3.3-1.84c-6.26-5.14-7.58-9.78-3.96-13.92c0,0-3.16-6.45-9.49-19.36l-7.84,19.75c1.64,1.15,2.42,2.52,2.35,4.11
	c-2.74,5.03-5.8,9.79-9.19,14.25c11.89-0.9,2.05,10.72-4.97,11.85c-20.63-2.27-41.38-2.74-62.14-2.83
	c-1.09-0.13-11.03-10.65-5.63-12.53c-4.76-2.96-6.1-5.49-4.23-11.25c-6.72-12.68-12.7-25.22-17.94-37.6l-11.45,25.5
	c5.91,4.04-11.16,20.15-12.75,20.51c-2,0.45-20.77-11.93-20.87-13.18c-0.22-2.8,0.49-4.95,3.31-5.33l-5.77-6
	c-4.45-3.98-4.92-7.49-1.43-10.54c-3.86-6.35-7.34-12.68-10.46-19.01c-6.82,15.11-10.23,22.67-10.23,22.67
	c4.63,3.63-1.86,11.91-5.57,7.2l-2.91,0.19l-6.1-11.33c-0.52,1.1-1.68,1.53-3.47,1.3l-5.23,0.96c-20.27-5.48-40.99-8.69-62.16-9.61
	c-6.56-1.55-17.28-11.69-11.09-17.22c-4.47-6.43-8.26-13.25-11.39-20.44c-1.74,6.74-4.15,13.21-7.23,19.39L0,277.23z"/>
<path class="st1" d="M211.61,625.71l-2.65,7.23l-21.62,124.73c-2.2,2.63-3.3,3.95-3.3,3.95L40.64,790.8l96.69,29.7
	c13.26,9.61,26.29,19.51,39.1,29.69c1.97,47.8,2.35,97.02,2.69,145c-36.4,29.91-73.04,59.72-109.9,89.42l74.86,9.55l79.13,51.4
	l0.63,3.61l2.73,0.78l6.12,113.58c-10.55,11.4-21.43,22.55-32.64,33.43l-3.01-0.78l-3.24,1c-5.21-4.95-10.83-9.31-16.84-13.07
	l-63.57-26c-32.82-0.95-65.26-5.68-97.35-14.18l-7.21,0.15c-3.4,1.86-6.34,2.35-8.82,1.46V585.27l1.04-2.64
	c60.59,2.18,121.13,4.66,181.64,7.46c8.62,10.37,16.92,21.02,24.89,31.94C209.95,622.69,211.3,623.92,211.61,625.71z"/>
<path class="st2" d="M1200,819.53v313.25l-2.01,2l-117.29-57.58c-9.14,8.8-18.57,17.49-28.28,26.07c-1.06,2.72-2.76,4.06-5.1,4.03
	c-2.15,2.99-4.42,5.99-7.38,8.23c-49.45,37.38-97.81,75.91-146.07,114.88c0,0-7.07,3.74-21.2,11.21l-3.26-1.49l-1.89-2.26
	l30.24-64.95l-77.59-220.7l1.98-2.43l8.45,1.07l241.54,115.36l-26.26-71.63l-0.22-3.52l116.47-161.19l5.88-3.55l3.16-3.4
	c4.07-1.46,21.4-5.88,24.6-5.53C1197.42,817.55,1198.81,818.42,1200,819.53z"/>
<path class="st3" d="M1200,530.23v261.61c-0.04,1.06-0.31,2.68-1.04,2.76c-27.55,2.8-56.34,3.96-83.88,4.96
	c-1.23-1.56-1.84-2.33-1.84-2.33l-30.69-154l-86.31,120.02c-1.41,3.82-3.2,6.55-5.37,8.18l-3.17-3.76
	c-6.34-48.44-9.98-101.62-11.2-150.45l2.55-3.92c-4.88-1.56-1.23-7.91,1.79-10.67c2.29-2.1,31.77-15.82,34.99-16.17
	c1.13-0.12,2.26,0.03,3.35,0.32l-0.26-2.82l117.42-52.01c19.63-3.8,39.71-5.18,60.25-4.14L1200,530.23z"/>
<path class="st4" d="M1200,513.19v17.04c-22.5,2.16-47.56-2.98-69.1,6.64l-111.73,49.91c-8.44,0.27-16.66,1.96-24.67,5.05
	l-21.24,2.89c-36.57,13.7-73.03,28.52-109.38,44.44c-12.28,5.06-24.91,8.55-37.88,10.47c-0.69,3.77-2.32,6.41-4.88,7.93
	c2.58,2.61,0.19,6.08-3.07,7l-1.14,3.05c-6.07,3.11-26.81,8.85-32.66,5.51c-1.5-0.85-2.03-1.48-2.17-3.61
	c-3.15,1.54-7.03,0.95-11.61-1.77c0,0-4.79-0.87-14.36-2.6c-4.17,1.17-7.55,0.94-10.14-0.7c-1.1,3.43-4,4.83-8.7,4.22
	c-10.64-2.76-21.35-4.62-32.13-5.6c-4.03,1.53-7.36,1.53-9.99,0c-0.64,4.59-10.6,9.14-13.52,5.27c-1.86,5-13.63,5.95-18.78,5.45
	c-2.2-0.22-4.23-0.46-6.39-0.93c-7.24-3.45-14.65-4.96-22.24-4.51l-2.21-2.49l-2.3,3.02c-4.05,1.49-26.8,7.93-29.32,7.51
	c-1.29-0.22-2.24-1.4-3.07-2.45c-3.96,0.79-7.94,1-11.93,0.65l-1.58,2.02c-17.49-3.95-33.93-2.96-51.39,0.6
	c-2.8,0.32-5.61,0.59-8.44,0.61c-5.45,0.03-6.83-0.11-11.04-3.73c-1.11,3.56-7.59,3.42-7.92-0.55c-13.83,1.08-27.99,0.5-42.48-1.75
	l-1.87-3.39l-3.7,1.54c-15.15-8.35-28.5-8.09-40.05,0.78l-3.28-0.97c-0.89,2.92-1.88,4.74-5.22,4.68
	c-10.36-2.7-20.1-2.13-29.23,1.71c-5.16,1.7-7.9,0.86-8.23-2.53c-2.47,4.36-7.81-1.61-8.61-5.31c-1.49-6.81,7.27-23.96,15.16-24.13
	c-0.75-2.1-0.68-3.54,1.28-4.4c-8.44-3.78-17.19-6.02-26.26-6.72c-31.88-8.24-63.8-16.91-95.78-25.99
	c-10.91-0.5-21.92-0.49-33.04,0.05c-16.24-1.09-28.98-5.42-35.37-21.9c-55.43-4.61-111.22-7.93-167.39-9.94
	c-8.65,0.31-15.63-1.71-20.95-6.06v-36.16c0.53-4.29,5.38-3.92,6.7-0.29l25.62-0.59c1.89-1,4.51-0.71,7.86,0.87
	c5.49-0.43,11.24-0.85,17.25-1.25l0.86,3.38c-2.49,6.59-4.77,13.2-6.84,19.83c2.46,0.71,4.57,0.63,6.32-0.24l3.26-19.27l2.99-2.5
	c2.43-4.15,9.24-3.75,11.29,0.55c2.2,1.74,2.5,4.66,0.88,8.75l2.91-2.43c0.44-5.69,1.67-7.62,3.68-5.79
	c1.62-0.57,3.25-1.08,4.91-1.4c1.64-0.31,3.25-0.57,4.84-0.45c53.46,4,120.51,22.8,170.33,42.91c1.47,0.59,2.81,1.51,4.15,2.48
	c1.36,0.99,2.61,2.14,3.83,3.33c8.26,1.66,11.3,11.74,10.53,20.16c0.8-0.05,2.08-0.81,3.82-2.3c-1.71-4.79-0.83-6.81,2.62-6.09
	c4.18,0.92,5.71,4.25,4.61,9.99c3.42-0.18,3.41,0.51,0.83,2.66c3.82,0.89,6.89,0.29,9.22-1.79c8.26-0.62,13.57,1.44,15.93,6.19
	c3.44-1.66,5.55-2.14,9.6-1.86c14.54,1.02,28.93,3.41,43.09,6.77c4.24-5.16,15.8-0.35,21.16,2.52
	c10.44,7.74,20.09,13.68,33.53,12.03c25.15-3.28,50.33-4.21,75.54-2.77l4.93,1.91l15.97-0.08l1.14-2.11
	c60.19,3.61,119.8,1.48,179.76-2.65l134.2,3.31c25.02-8.53,47.59-21.5,68.84-36.2c4.42-2.66,7.73-2.66,9.92,0.02l2.78-3.04
	l16.81-3.19c16.91-7.83,33.73-9.83,50.45-6c11.29-25.33,39.82-41.53,64.71-51.51c13.02-5.22,38.04-13.83,51.56-14.66
	c2.24-0.14,4.1,0.28,6,1.59C1138.7,508.29,1169.76,506.93,1200,513.19z"/>
<path class="st2" d="M1200,1142.41v260.51l-1.58,3.57c-25.53,10.74-38.3,16.11-38.3,16.11l-2.83-1.72
	c-2.81-1.34-6.67-5.95-3.16-8.22l-3.52-2.54c-22.91-68.58-121.38-77.96-161.63-19.31c-21.79-2.98-43.46-3.02-65.01-0.12l-5.12-1.65
	l6.06-9.08c73.15-78.23,147.99-155.27,222.79-232.1c5.25-5.39,11.25-9.99,17.26-14.5c0.38-0.98,1.08-2.39,1.84-2.29
	c5.24,0.7,27.68,6.22,31.98,8.26L1200,1142.41z"/>
<path class="st5" d="M197.03,1296.18c1.67-1.72,3.9-1.48,6.68,0.73c8.69,0.96,17.75,0.73,27.19-0.7
	c13.15,0.07,19.62,4.96,28.43,14.38c12.68,7.73,19.02,11.6,19.02,11.6l1.52,3.55l0.69,2.92c-18.36,18.03,0.49,26.68,17.81,32.63
	c22.05,7.57,45.83,11.12,68.9,13.41l0.86,2.17l10.89,0.94c8.38-4.93,20.15,3.3,26.94,9.27c3.13-3.47,9.24,3.76,10.52,7.2
	c4.35,1,7.02,2.73,8.01,5.2c-1.59,6.62-17.4,3.31-22.51,1.07l-1.13-3.22c-20.35-6.47-39.95-6.98-60.64-2.19
	c-36.03-2.79-71.38-13.68-104.13-29.4c-18.21-6.38-37.27-9.34-57.17-8.85c-12.09-1.03-24.59-3.24-34.88-10.1l-93.41,16.12
	c-4.95,1.09-9.71,2.94-14.29,5.08l50.81,7.01l39.67,29.62c22.32-0.05,44.63,0.63,66.94,2.05c5.89,0.89,43.08,18.14,44.4,20.2
	c1.46,2.28,0.48,3.62-1.41,5.42l-76.19-11.31c-15.17,0.24-30.31-0.65-45.41-2.68c-1.7,3.63-7.56,2.01-9.17-1.31
	c-23.45,0.69-46.92,0.81-70.26-2.14c-10.36-1.31-20.86-2.81-30.91-5.74c-0.91-0.27-1.71-0.92-2.53-1.64
	c-0.85-0.74-1.57-1.62-2.26-2.54v-159.38c7.6-6.34,15.56-4.74,25.14-2.65c29.88,6.53,58.46,13.69,88.62,12.61l63.33,25.76
	C185.09,1284.51,190.33,1291.8,197.03,1296.18z"/>
<path class="st6" d="M1154.14,1412.66l-2.5,2.37c-8.4-2.87-16.62-6.27-24.65-10.18c-18.83-3.48-37.08-8.87-54.73-16.16
	c-16.9-1.13-33.84,1.34-50.82,7.4c4.49,2.47,9.35,4.78,14.58,6.94l1.85,4.03c2.2-0.36,4.5-0.15,6.54,0.82
	c15.32,7.28,29.43,26.86,36.96,41.7l54.91-22.64l8.68-0.68c-0.32-4.2,9.59-8.67,12.35-5.37l42.7-17.96v37.07
	c-1.87,3.93-6.1,5.82-12.69,5.65c-24.4-0.52-45.58,7.63-67.46,18.01l-4.43-1.18c-0.09,0.81-0.25,1.57-0.67,2.14
	c-7.39,10.07-43.02,4.13-54.03,2.11l-2.52-2.94c-0.96-3.59,2.03-5.03,8.96-4.32l0.54-3.05c-0.21-2.07-34.19-11.31-39.58-12.71
	c-51.6-13.36-85.38-3.56-131.25,17.28c-7.64,2.57-15.42,5.03-23.4,6.18c-8.75,1.27-24.08,2.03-23.28-10.21
	c-4.07-2.3-3.33-8.41,1.34-9.28c-2.85-2.37,3.87-17.16,5.48-18.42c1.02-0.8,2.39-0.82,3.63-0.75l-0.46-3.92l13.36-15.11
	c-16.59-11.1-37.18-11.32-56.44-10.02c-46.51,3.57-93.16,6.99-139.94,10.26c-2.11,4.48-15.42,2.69-18.11-0.89
	c-12.45-0.21-15.02-2.62-7.71-7.23c12.6-2.43,24.96-5.77,37.06-10.02c1.59-2.67,3.6-5.27,6.01-7.8l3.16,0.85l2.49-4.7
	c17.57-13.59,49.93-27.27,72.29-21.12c25.58,8.48,51.83,15.05,78.74,19.72c15.85-0.24,32.81,5.05,42.34,18.03
	c5.16-3.4,13.36-7.52,19.56-8.69c2.28-0.43,3.91-0.72,5.88,1.18c23.84-5.58,47.79-3.1,69.14-0.45
	c31.1-45.29,93.59-50.54,136.17-20.04C1139.04,1379.19,1149.55,1395.34,1154.14,1412.66z"/>
<path class="st7" d="M273.32,1449.16l0.65,3.45c-3.97,6.28-6.77,13.1-8.4,20.46l-3.22,1.38c0.84,6.68,2.37,13.63,6.83,19.02
	l-1.31,2.76l-4.61,2.57c-38.09-2.54-69.51,13.56-93.64,42.4l-4.8,1.66H0v-100.45l4.16-2.05c21.71,0.06,43.43-0.95,65.19-3.01
	l202.45,9.07L273.32,1449.16z"/>
<path class="st8" d="M1200,791.84v27.68c-10.88,1.13-21.37,4.71-31.99,6.78c-5.28,2.82-7.92,4.23-7.92,4.23
	c-45.15,6.6-89.41,16.2-133.67,26.86c-2.84,0.68-5.81,0.31-8.66-0.1c-4.99,1.91-10.52-6.76-10.05-11.78
	c-6.29,0.77-8.4-7.8-7.67-12.8c0.02-0.11-0.09,1.6-1.12,1.62l-2.77-0.56c-2.58-20.15-5.16-40.29-7.73-60.45l2.46-1.91
	c-0.39-3.84,1.05-6.77,3.64-10.36l89.5-124.44l32.05,161L1200,791.84z"/>
<path class="st9" d="M851.51,1447.65c-1.31,2.49-1.04,6.54-1.34,9.28c1.3,3.63,1.95,5.44,1.95,5.44c-1,4.39-0.64,8.51,1.08,12.37
	c6.05,4.57,12.92,8.26,20.62,11.07c1.98,2.65,3.62,2.78,4.9,0.37c29.23-18.7,79.29-27.47,113.9-32.42
	c14.15-2.02,63.51-6.35,72.76,3.25c0.69,0.71,1.25,1.55,1.77,2.43l-8.96,4.32l-0.42,3.11l-14.58,3.7l-3.11,2.98
	c-26.56,2.81-43.54,24.71-48.31,49.8l-3.56,4.65c2.19,1.85,2.08,4.84-0.34,8.97c3.31-1.27,5.69-1.01,7.15,0.78
	c3.87,1.63,2.68,3.33-3.57,5.1h-68.12l-5.15-1.74c-28.18-21.92-65.58-17.72-94.49,0.44l-2.29-0.25c-1-0.56-2.05-1.15-2.75-2.08
	c-2.08-2.75-7.16-11.05-4.64-13.57l-3.91-2.32c-11.55-22.2-42.07-32.94-60.66-12.68l-3.63,0.07c-5.17,0.32-14.19-9.19-12.2-14.31
	l-4.42-1.95c-9.19-14.34-19.16-28.46-32.38-39.38l-1.56-4.6l0.05-3.07c5.12,0.56,10.41,1.14,15.87,1.73l1.37-2.61l94.02,4.55
	c13.73-1.14,27.37-3.02,40.93-5.66L851.51,1447.65z"/>
<path class="st6" d="M513.16,1494.51c0.63-0.42,1.25-0.76,1.89-0.78c4.57-0.14,13.8,15.11,14.84,20l-2.15,2.42
	c3.83-0.82,4.58,3.53,1.09,5.14c3.77,13.53-4.72,19.06-17.85,16.41l-37.12-14.72c-22.52,8.06-48.31,5.45-69.28-5.79
	c-14.42,6.17-28,13.93-40.73,23.3c0,0-7,0.79-21,2.35h-21.43c-16.31-3.26-32.61-5.8-48.89-7.59c-9.28,0.36-18.45,2.05-27.5,5.07
	c-16.14-0.2-32.2,0.64-48.17,2.53h-32.07c31.31-35.66,54.24-48.2,103.05-46.63c3.59-4.29,17.55-2.76,20.07,2.27
	c6.6-2.9,30.84,4.66,33.78,9.3c0.5,0.79,0.85,1.67,1.16,2.58c10.71,0.96,21.51,10.45,26.35,19.33c8.16-9.85,18.5-20.93,31.11-24.55
	c0.42-1.1,0.88-2.17,1.51-3.15c3.98-6.2,34.04-19.57,42.51-21.34c3.21-0.67,6.05-0.92,9.32,0.01c0.52-3.33,1.85-3.21,4.18-0.99
	c6.36-6.04,20.3-5.2,29.26-4.61c12.01,0.79,36.01,6.26,44.36,14.88C512.64,1491.16,512.97,1492.9,513.16,1494.51z"/>
<path class="st10" d="M100.5,303.95c2.08,2.8,1.83,6.11-0.75,9.93c-3.98,5.12-4.52,8.6-1.61,10.43
	c-3.78,15.5-10.61,29.97-20.51,43.43c12.62-0.92,11.74,4.5-2.64,16.25c3.28-0.01,3.86,2.25,3.94,5.16l-27.11,32.89l8.42-0.41
	c5.02-0.5,7.65,0.87,7.91,4.11c0.66,4.47-6.65,7.78-10.56,8.19c0.03,1.23-0.4,1.36-1.27,0.44c-0.51,4.54-9.95,12.17-14.56,10.3
	l-4.03-9c-1.52,0.13-2.9-0.94-4.13-3.19l-3.09-0.96c-3.18-5.91-6.87-11.54-11.09-16.89c-2.76-4.29-3.23-6.85,2.57-7.68L36.43,413
	l-16.68-29.89c-0.63-5.87,3.51-5.66,7.78-3.58c-5.35-8.17-9.19-16.63-11.52-25.38c0.87-8.65-1.98-17.17-8.55-25.57
	c-0.75,3.87-2.2,7.44-4.34,10.7L0,338.84v-61.61c5.78-7.4,5.74-18.3,11.59-27.86c2.37,11.62,8.69,22.81,16.86,32.62
	c-3.3,1.08-5.11-1.34-7.44-1.08c3.46,3.69,6.87,11.17,12.48,11.74C56.66,294.97,79.51,295.83,100.5,303.95z"/>
<path class="st11" d="M736.6,1522.97c3,2.36,2.33,4.68-1.48,5.04c0.56,4.53-2.44,12.72-6.45,14.84H533.98l-2.89-1.54l-2.26-20.02
	l-1.09-5.14c3.98-4.45,9.91-6.71,17.81-6.79c23.6-1.21,47.15-2.87,70.65-5c16.97-4.25,34.06-6.49,51.26-6.74
	c20.94,9.3,42.47,16.6,64.59,21.9L736.6,1522.97z"/>
<path class="st12" d="M1200,1491.52v51.34H991.45c0.41-2.24,3.89-2.77,3.57-5.1l0.59-3.31c17.34-11.26,56.46-27.2,76.83-28.82
	c5.36-0.43,13.22-0.29,17.98,2.3c15.77,11.13,32.64,20.8,50.24,28.7c-1.95-5.12-1.83-8.48,0.37-10.08l-4.52-5.74
	c-5.51-13.86-16.36-24.87-28.78-32.86l-1.11-3.82c-0.87-0.5-0.8-0.95,0.15-1.36l2.29-3c12.32-0.05,24.15,3,35.49,9.15
	c13.21-2.28,26.5-1.55,39.87,2.2l5.51-0.22C1194.22,1489.37,1197.58,1489.58,1200,1491.52z"/>
<path class="st13" d="M33.61,432.49l2.81,4.66c4.2,19.2,8.4,38.41,12.6,57.61l-3.36,1.22c5.31,2.94,11.3,12.1,13.36,17.74
	c1.46,4,3.61,10.28-0.15,13.03c1.51,2.55,1.29,4.9-1.38,6.31c-5.74-0.38-11.5-0.84-17.29-1.37c-3.42,0.24-6.06-2.2-7.94-7.33
	c-2.87-4.07-7.56-6.08-14.07-6.06c-6.39,2.66-15.9,3.46-18.17-4.03V338.84c4.72-4.9,3.97-11.81,7.98-19.16
	c1.27,11.47,12.12,21.17,11.44,30.27c-4,10.37,9.6,20.92,12.36,33.57c-2.71,0.14-6.18-2.45-10.46-3.09l21.31,38.18l-23.09-9.79
	C22.78,417.51,31.39,423.59,33.61,432.49z"/>
<path class="st14" d="M377.51,644.14l-4.3,2.04c-18.1-2.26-36.13-5.56-54.08-9.89c-30.15-14.01-57.24-15.43-89.35-8.39l-3.55-2.52
	c-1,4.17-13.15,4.4-14.62,0.33c-1.99-0.08-4.61-0.05-6.2-2.13l-23.74-31.2L0,585.27V569.2c24.85,6.11,50.75,3.54,76.69,5.38
	l113.86,8.09c10.4,33.48,52.73,16.97,68.65,22.26c20.04,6.67,39.02,11,59.2,15.92c14.58,3.56,27.2,9.72,43.1,10.45
	c7.82,0.36,15.13,7.75,24.02,5.83C382.78,641.26,379.99,641.59,377.51,644.14z"/>
<path class="st15" d="M105.97,1416.98c2.81-0.29,6.39,0.78,9.17,1.31c21.68,1.92,43.16,5.21,64.46,9.9
	c35.36,5.01,70.27,7.14,104.75,6.38l1.93,2.7c0.18,4.49-8.49,12.66-12.96,11.89l-202.05-9.07c-24.5-1.1-47.76,6.67-71.27,2.32
	v-21.43l2.72-2.55c8.9,1.55,17.82,2.77,26.77,3.66C54.91,1418.9,80.4,1417.2,105.97,1416.98z"/>
<path class="st16" d="M1200,1439.99v51.54c-25.87,7.3-23.27-5.62-55.72,0c-12.56-4.84-23.78-11.08-37.52-8.74
	c-7.06-1.3-6.52-6.7-0.35-9.76c3.14-3.48,6.14-7,9.01-10.56c14.97-5.45,29.44-14,45.81-17.2
	C1174.46,1442.67,1187.78,1444.81,1200,1439.99z"/>
<path class="st17" d="M1200,1132.77v9.64l-35.03-9.05l-3.6,1.76l-78.83-22.45c-10.75-1.66-21.59-2.46-32.54-2.4l-2.68-2.98
	c4.4-13.44,23.52-18.31,31.38-34.07L1200,1132.77z"/>
<path class="st18" d="M528.83,1521.3c4.28,6.14,4.15,14.22,5.15,21.56H342.86c3.71-4.68,10.45-1.8,14.9-1.71
	c15.76-9.52,29.07-20.96,47.02-26.49c21.61,10.9,45.82,13.73,69.05,5.76l38.48,14.93c4.31,1.67,9.74,0.54,12.63-2.39
	C527.77,1530.09,528.13,1525.33,528.83,1521.3z"/>
<path class="st19" d="M814,1525.66c1.93,5.21,7.96,9.41,7.39,15.65c1.19,0.4,1.24,0.91,0.16,1.55h-92.87
	c0.39-5.52,3.19-10.45,6.45-14.84c4.2,2.95,8.16,1.91,11.87-3.12l5.63-0.81c-1.34-2.8,0.03-3.71,4.12-2.73
	c-0.55-1.2-0.65-2.6,0.36-3.37c3.26-2.48,12.92-2.09,17.11-1.81c6.57,0.43,31.23,3.79,36.22,6.24L814,1525.66z"/>
<path class="st20" d="M923.33,1542.86H821.55c0.01-0.51-0.2-1.04-0.16-1.55C849.57,1518.34,898.11,1516.47,923.33,1542.86z"/>
<path class="st21" d="M105.97,1416.98l-72.44,7.58c-11.73,1.23-22.56-3.39-33.52-3.57v-16.07
	C34.75,1415.66,70.71,1413.59,105.97,1416.98z"/>
<path class="st22" d="M321.43,1542.86H196.88c10.63-5.74,23.47-3.97,36.25-3.86C258.09,1539.21,258.54,1522.13,321.43,1542.86z"/>
<path class="st23" d="M40.18,531.7c1.17,0.38,1.15,0.83,0,1.34c-6.55,6.67,7.43,15.13,1.84,25.32L34.2,532.8
	c-8.98,0.01-18.59,0.71-27.51-0.06c0.66-3.16,3.38-4.46,8.18-3.89l13.97,0.25c-0.1-4.62-6.81-6.89-11.7-6.06L3.18,527.1L0,525
	v-10.71c5.19,1.96,10.37,5.58,16.37,3.03c-1.6-3.29-5.86-4.21-4.18-8.22c4.41,6.13,9.63,10.13,15.56,8.5l-17.41-45.79
	C23.6,491.62,25.84,516.49,40.18,531.7z"/>
<path class="st24" d="M6.7,532.75c-2.01,0.64-4.64-0.53-6.7,0.29V525c5.24-0.86,10.21-2.74,15.91-4.4
	c7.64-2.22,16.16,3.1,17.46,10.76C24.16,532.82,15.08,530.08,6.7,532.75z"/>
<path class="st25" d="M629.13,431.4c0.9,0.89,2.11,1.94,3.12,2.69c7.4,7.65,10.34,15.44,8.84,23.37
	c3.54,11.52,9.03,22.5,16.47,32.94c-0.18,3.21-2.48,4.51-6.88,3.91c5.64,3.74,9.88,8.29,12.72,13.68c-3.9,2.82,6.14,6.62,7.06,6.41
	c0.88-0.2,9.95-13.16,10.24-14.63c-4.45-2.47-4.56-5.13-1.11-8.57c5.26-4.12,6.58-6.76,3.94-7.9c-1.07-3.41,0.37-6.53,4.32-9.36
	c-8.89-2.48-1.58-9.53,3.09-13.19c0.4-0.78,1.15-1.62,1.24-2.57c1.2-5.25,7.64-1.31,10.89,0.8c4.12,2.66,14.94,11.56,11.19,15.98
	c5.96,1.28,11.89,6.05,3.61,8.68l10.08,9.03c3.51,5.87,0.14,8.19-10.1,6.98c7.58,5.77,15.17,11.74,22.76,17.88
	c-0.18,4.3-3.44,5.5-9.79,3.62c8.13,5.26,15.4,11.23,21.81,17.92c0.2-2.66,1.78-5.58,4.74-8.76c-4.22,1.23-5.97,0.68-6.3-4.21
	c5.35-8.88,10.33-17.82,14.91-26.84c-3.62,0.75-6.78-0.98-5.53-4.99c0.47-1.51,17.03-24.91,18.25-25.92
	c2.06-1.72,3.17-2.15,4.59,0.25c3.03,9.21,7.51,17.53,13.43,24.97c0.97,4.24-0.89,6.11-4.84,5.68c5.09,8.94,11.06,17.39,17.9,25.35
	c0.59,4.89-2.74,6.46-10,4.71l13.66,15.72c16.02,18.68,1.41,14.69-12.71,9.81c10.1,9.58,19.59,19.73,28.45,30.43
	c11.66,15.86-1.88,11.14-12.34,7.43c8.87,5,16.5,11.11,22.89,18.31c4.2-6.49,10.23-11.75,18.1-15.79l-13.92,1.07
	c-2.44-0.88-2.68-2.85-2.04-5.31l16.65-21.15c-9.01,1.23-7.34-3.82,5.01-15.14c-4.21,1.39-5.72,0.41-6.21-4.15l11.42-19.98
	c-2.65-1.21-4.42-2.19-3.08-5.08c6.93-8.39,12.24-18.04,14.9-28.61c2.87-4.48,10.66,10.05,11.18,12.63c0.66,3.3,0.61,4.99-1.73,7.68
	c6.49,3.6,7.38,6.96,5.54,13.93c3.1,7.53,7.36,14.76,12.79,21.69c0.61,5.23-2.03,5.53-6.47,5.69l12.73,8.37
	c-0.14,4.73-4.02,6.25-11.66,4.57c4.01,1.9,21.23,14.32,15.23,18.33c-0.61,0.41-1.33,0.67-2.08,0.88
	c-11.64,1.35-16.94,8.19-27.01,14.73c-15.07,9.78-33.96,16.99-51.18,24.03l-134.7-3.21l-96.5,5.06l-100.43-2.9
	c1.47-2.91,5.18-3.95,11.12-3.13c-4.84-4.78-8.75-10.09-11.72-15.9l2.03-2.54c-1.46-2.4-0.37-3.26,1.53-4.52
	c-1.9-1.73-2.36-3.5-1.37-5.3c-5.46-6.01-10.65-12.35-15.59-19c0,0-7.11-6.16-21.34-18.48c-0.59-0.88-1.06-1.76-1.11-2.67
	c-0.41-6.86,15.1-1.38,18.04,0.89c-8.76-14.03-18.29-27.59-28.61-40.68l-0.01-2.78c5.46-1.06,11.11-0.01,16.97,3.17
	c-4.46-9-10.21-17.46-17.27-25.38c-2.25-6.95,3.99-6.19,8.99-4.82l-4.21-8.91l1.32-2.9l-1.13-3.43c5.19-6.61,8.41-13.71,9.67-21.29
	c-1.16-4.24-0.42-6.79,0.96-10.74c1.41-4.03,7.64-18.23,11.94-15.06c2.22,1.64,14.69,23.66,9.1,27.29
	c2.42,5.66,5.6,11.05,9.56,16.17c4.15,8.36,4.88,11.78-5.31,11.72l15.52,12.39c0.08,4.17-2.08,5.89-6.49,5.18l16.1,22.65
	c1.57,5.08-2.87,6.07-7.08,5.51c11.72,11.41,17.58,17.11,17.58,17.11c1.08,0.88,17.77-18.76,18.74-20.33
	c0.16-0.26-4.93,0.5-6.07,1.11c-7.3,3.83-10.96,3.24-10.97-1.78l17.96-24.44c-4.55,1.57-9.86,0.69-8.32-4.91
	c5.12-7.19,9.73-14.67,13.85-22.43c-4.76-0.96-6.53-2.87-5.32-5.73c5.39-7.78,9.61-16.16,12.67-25.13l2.03-1.6
	c3.96,4.22,7.2,9.34,9.71,15.35c7.76,9.53,8.71,14.88,2.82,16.05l11.84,23.57c0.42,4.56-0.44,6.02-5.24,5.11
	c-0.79,0.17,7.34,13.41,8.03,13.83c0.45,0.27,8.34-7.71,1.28-4.81c-2.63-1.07-4.11-2.12-3.03-4.89l18-12.7
	c-12.8,4.27-11.81-1.55-7.3-10.7c5.19-6.23,8.94-12.85,11.25-19.87c-4.18-6.78,3.86-20.71,8.4-26.58L629.13,431.4z"/>
<path class="st10" d="M629.13,431.4c-4.12,7.87-10.04,16.34-11.11,22.68c8.35,9.56-11.6,21.33-12.77,34.52
	c4.12-0.88,10.46-3.41,16.46-3.5c-7.38,8.47-17.1,12.25-25.32,19.19l12.87-1.51l-12.61,13.19l-13.95-22.84
	c3.91-0.72,5.63,2.65,10.15,2.4l-14.66-29.19c2.74-1.17,4.32,0.68,7.17,0c-6.23-8.2-11.01-16.83-15.56-27.27
	c-2.39,10.3-6.12,19.61-13.21,27.46c3.42,0.92,5.57-0.3,8.52-0.08c-3.93,10.4-10.43,18.98-16.98,28.67
	c4.26,1.67,7.88-2.33,12.1-0.09l-21.82,29.69c7.06-3.72,14.5-5.32,22.95-6.19l-25.63,28.93c-8.54-10.63-16.88-19.11-27.91-24.72
	l16.01,0.5c-7.48-10.39-13.64-21-22.11-29.59l12.63,1.41l-24.13-19.12c4.84-0.34,11.61,2.63,15.15,1.68
	c-0.08-11.41-18.6-22.22-10.3-30.03c-0.93-5.78-7.08-12.56-10.91-22.24c-2.18,8.25-8.53,15.19-8.6,21.33
	c3.3,9.87-5.87,20.13-10.52,28.72c-4.14,2.78-11.36-12.41-10.87-14.26c0.68-2.55,1.88-4.15,4.55-4.17
	c-5.7-12.7-8.56-19.05-8.56-19.05c-3.26,6.03-6.57,12-9.93,17.91c3.59-0.37,4.26,1.44,4.45,4.82l-12.91,27.54
	c12.8-2.22,2.91,13.87-3.63,17.14c-8.5-8.76-17.52-17.05-27.06-24.86c-2.41-7.6,5.42-6.07,10.55-4.83l-17.93-19.18
	c1.23-4.77,6-5.85,14.32-3.25c-11.15-17.81-16.73-26.72-16.73-26.72c4.16-2.29,5.54-3.88,4.14-4.75
	c-2.07-4.5-10.13-17.79-13.89-19.98c-1.2-0.69-7.42,9.83-8.73,12.21c11.78,0,7.78,6.45,1.82,12.02l3.44,2.95
	c-4.07,6.37-8.43,12.69-13.09,18.95c15.11-2.57,6.15,9.97-0.76,17.35c-3.54,4.49-18.24,21.59-21.93,22.68c-2,0.59-5.46-2.92-5-5.33
	l-1.35-0.37l-3.1-0.99c-2.6-4.44-4.56-9.1-5.87-13.98c-3.62-4.68,3.11-4.95,6.51-2.3c-5.51-9.61-10.21-19.45-14.1-29.53
	c2.89-1.94,4.33-2.91,4.33-2.91c-5.51-12.56-8.27-18.84-8.27-18.84c-3.88,5.47-7.43,11.37-10.65,17.69c4.17-0.27,4.8,1.41,4.59,5.22
	L297,463.92c0,0,1.33,0.64,3.99,1.93c5.46,2.67-4.2,16.48-7.25,19.95l-3.19,0.34c-2.35-0.02-3.52-0.03-3.52-0.03
	c-2.92-9.19-5.32-18.6-7.19-28.22c-1.62,1.03-2.78-0.23-3.78-1.93c-1.45,0.17-3.07,0.22-4.09-0.74c-4.15-3.9-17.8-25.73-16.77-30.12
	c0.28-1.2,2.76-2.72,4.22-2.44c0.78-0.67-6.82-17.28-7.77-18.96c-0.52-0.91-11.73,17.26-10.75,17.64c3.87-0.62,4.77,1.11,4.92,4.81
	c0.08,1.84-13.85,32.57-15.43,33.53c-0.56,0.5-1.13,0.93-1.78,1.11c-2.04,0.58-24.73-18.44-25.47-20.37
	c-2.93-7.65,4.3-6.21,9.99-5.02c14.39,6.17,14.48,2.78,0.24-10.18c-5.33-4.76-9.65-9.93-12.96-15.53l2.66-2.86l11.5,1.4
	c-4.31-8.67-10.2-16.5-16.67-23.65c-1.92-4.31,0.53-6.69,4.66-5.92c-1.98-3.8-12.9-21.97-15.64-22.4
	c-0.79-0.12-8.91,11.2-8.96,11.95c6.74,0.2,9.21,2.37,7.42,6.51c-5.38,3.74-5.86,6.69-1.47,8.85c-4.42,6.53-9.29,12.89-14.62,19.08
	c4.3-1.14,10.81-1.48,9.57,4.36c-0.84,3.99-13.98,21.25-19.41,18.62c-1.57,2.04-2.35,1.43-1.46-1.07c-0.99,0.45-2.52,1.08-3.06,0.48
	c-3.69-4.05-29.14-33.37-29-35.67c0.6-3.89,3.36-5.39,8.3-4.5l-21.66-18.56c-1.48-3.59-1.83-5.35,2.62-5.73
	c4.6,1.2,9.18,2.1,13.72,2.68l-19.57-36.03c0.05-3.29,2.6-4.24,5.6-4.05c-3.16-3.75-3.81-6.88-1.95-9.39
	c1.04,0.34,4.64-2.48,5.27-4.83c0.33-1.24-6.7,2.14-3-2.76c6.88-9.1,9.66-20.55,14.12-31.41c3.08,11.37,8.49,22.99,16.62,32.63
	c-3.19,0.74-4.81-1.77-7.52-1.53c4.18,7.19,10.3,11.52,15.52,17.61l-9.99-1.37l19.34,13.86c3-6.72,17.68-14.18,9.71-17.23
	c4.94-9.55,10.16-20.16,15.33-35.23c8.61,21.4,14.64,37.43,22.74,48.7c-10.79,1.97,6.28,7.45,6.03,12.51
	c-1.26,0.4-4.53-2.27-6.06-1.11c-1.73,1.31,4.42,3.27,5.79,7.54c19.9-0.92,39.77,0.06,60.07,2.34c4.4,0.49,7.9-5.69,10.69-7.12
	l-10.62,1.46c4.52-7.07,10.02-12.53,13.4-19.66l-6.28,2.29c6.56-9.21,8.08-20.23,13.85-31.72c3.77,11.32,8.67,22.88,16.83,32.52
	c-3.56,0.03-5.09-2.92-8.38-2.12c3.98,6.09,8.31,10.34,13.38,14.61c-4.12,1.27-6.55-1.91-10.56-1.75l17.34,17.51
	c-5.1-0.94-8.87-3.24-13.35-2.43c7.68,2.66,13.03,9.38,20.09,9.57c1.94-0.25,3.45-3.68,4.33-4.24c1.28-0.81,1.06-2.63-1.08-2.21
	c-1.25,0.24-2.83,0.9-4.27,0.49c11.55-14.4,7.73-13.98,16.36-35.32c5.18,12.83,9.29,25.07,18.25,35.66
	c-4.14,0.88-5.18-2.89-8.36-1.57l15.99,18.94c-4.79-0.22-8.3-3.29-13.22-2.82l18.47,16.18l64.42-17.11c-4.3-4.72-10.56-1.03-16-1.76
	c4.93-6.81,11.51-11.62,14.71-18.21c-10.81-3.01,9.54-8.42,3.37-14.47c3.69-5.88,6.16-11.55,8.54-18.35
	c9.07,22.14,11.91,36.32,24.55,48.03c-3.78-0.57-6.09-1.48-8.52-0.53c2.46,8.41,36.05,10.21,37.65,7.49c1.24-2.1,9.48-7.5,1.36-6.5
	c6.53-10.82,7.2-15.35,12.78-32.84c4.93,12.94,9.69,23.7,18.02,32.84l-7.64-1.57c2.92,5.66,7.83,8.96,11.87,14.55
	c-3.24,0.63-5.68-3.68-9.29-0.45C569.41,393.74,604.02,406.6,629.13,431.4z"/>
<path class="st13" d="M112.98,313.78c2.2,4.26,3.9,8.58,7.82,12.51l-9.47-0.52l22.35,40.64c-6.84,0.85-13.13-2.78-20.88-3.4
	L143,388.86l-15.4-1.55l30.38,37.24c0.97,1.69-3.68,5.39-3.85,4.73c-0.22-0.86,3.99-3.67,5.31-3.66
	c7.24-5.07,12.79-12.81,17.81-20.89c-5.98-0.86-9.65,2.42-15.04,3.36c6.06-9.06,12.26-17.06,20-24.52
	c-3.64-1.29-5.95,0.59-9.15-0.17l11.42-11.63l-11.84-1.13c5.04-6.34,9.59-12.53,12.66-19.45c10.23,8.45,15.6,19.34,22.1,30.27
	l-9.02-0.27c8.57,8.75,15.06,18.81,21.5,30.36l-18.28-2.23c10.9,10.4,20.7,21.36,30.3,34.05c-10.44-2.16-18.53-6.66-28.43-6.26
	l24.53,21.81l15.87-35.01c-3.2-0.51-5.07,1.38-8.24,0.29c6.57-9.2,11.62-18.27,16.4-29.16c2.84,11.28,6.25,21.28,13.34,30.49
	c-3.29,1.32-4.95-0.82-8.42-0.13c5.67,10.66,10.82,22.08,19.1,30.55c1.8,3.07,0.24,2.93-2.87,1.85c-1.66,2.19-3.34,1.95-5.66,1.3
	c7.27,8.61,12.78,17.96,16.53,28.08c5.36-1.18,5.61,6.75-1.12,6.56l-16.71-5.72c2.22,1.61,2.68,3.35,1.39,5.21
	c1.06,2.16,1.44,3.04-1.09,2.29c-1.84,4.45-3.26,8.86-4.27,13.24l10.2,43.22l-1.65,2.95c3.69,4.96,7.1,16.01,7.04,22.16
	c-0.06,6.12-2.24,8.99-7,3.81c-60.69-22.65-123.05-41.97-188.05-46.86l-1.82-0.86c0.33-3.65-0.37-4.63-2.11-2.96
	c-0.73,3.9-1.91,5-3.54,3.29c-3.75-0.43-7.52-0.73-11.29-0.55c-0.74-0.25-0.66-1.16,0.25-2.75c-2.48-4.16-2.5-9.32-0.06-15.48
	c3.11-11.04,5.94-22.07,8.5-33.09c4.75-3.37,5.7-4.28,2.85-2.74l-2.46-2.59c-0.18-9.75-0.74-19.56-3.69-28.91
	c1.3-2.34,1.82-5.5,1.56-9.48l-1.77-0.62c-0.68-3.67-1.03-7.52-1.06-11.57c-6.84-2.75-14.23-0.78-22.57-0.35l31.86-38.65
	c-3.98-0.26-6.45,2.17-10.57,1.29l18.64-17.79l-13.3,0.59c10.34-14.47,18.63-29.59,24.13-45.94c-2.57-0.54-4.13,0.86-6.77-0.06
	c5.27-6.47,8.95-13.25,10.92-20.89c0.63-2.44,2.77-4.46,3.19-8.15L112.98,313.78z"/>
<path class="st10" d="M1108.37,513.83c-41.99,7.67-99.66,25.04-121.13,66.65c-37.84-5.84-30.27,5.43-71.17,10.16
	c3.22-8.58-12.54-13.97-19.82-21.07c4.46-2.18,10.81,0.48,17.27-0.76l-20.46-12.29l13.52-1.12c-4.58-10.62-17.54-19.17-12.66-29.51
	c1.35-4.78-9.31-5.91-6.56-10.54c7.28-3.95-5.55-10.98-3.85-19.37c-2.82,12.02-8.24,22.37-16.84,32.34l7.41-1.73l-15.03,26.29
	c5.47-0.94,9.33-2.61,14.74-2.89c-7.08,5.56-13.48,11.93-20.24,18.7l12.9-4.47l-23.45,29.6c8.03-0.87,15.21-2.43,23.74-0.01
	c-10.08,4.54-18.73,10.35-27.03,19.36c-10.57-9.44-21.66-16.95-34.88-24.67c9.65-0.76,18.62,3.5,27.65,6.54
	c-10.54-17.9-25.92-29.36-39.83-44.43c9.67,1.05,17.56,4.5,26.81,6.93c-7.5-11.33-17.02-20.81-26.38-31.94l15.65,1.94
	c-7.88-10.24-15.89-19.37-21.64-30.87l8.62-0.24c-7.51-8.17-11.71-17.06-14.45-28.06c-5.67,10.9-12.32,18.97-19.68,28.68l9.92-1.17
	l-18.71,32.58l10.31-2.05c-2.62,5.21-6.54,9.48-10.48,14.75c-10.43-8.38-19.88-15.88-30.99-22.35c6.61-2.01,11.19,0.67,17.76,0.48
	l-28.6-21.2c6.09-2,11.22-0.77,17.5-1.04c-5.17-6.19-11.59-11.3-18.47-15.78c4.02-1.34,6.95,0.75,10.83-1.11L706,474.74
	c2.54-2.53,4.9-0.69,7.95-2.1c-6.71-6-13.39-15.33-21.78-14.47c-3.01,0.14-1.01-3.97-2.46-4.07c-2.36-0.16-4.15,1.33-8.7,2.13
	c5.28-6.18,9.52-12.13,14.18-19.08c-2.82-0.77-4.66,1.56-6.67,0.28c2.16-5.62,8.8-8.25,7.3-13.72l7.53-20.63
	c4.83,13,8.83,24.78,19,34.94c-3.9,1.14-5.22-3.29-8.7-1.43c5.49,5.59,10,14.19,15.33,14.98c7.61,1.12,17.52-0.13,22.68-4.58
	c-4.28-3.25-9.25,0.22-13.4-1.56c5.51-7.49,12.08-11.68,15.22-18.37c-11.28-2.49,7.59-8.83,3.78-15.18l8.89-19.91l7.68,19.78
	c-3.48,5.41,14.33,9.98,5.42,13.68c-2.25,6.11,16.48,11.08,7.16,15.45c-0.18,6.29,10.76,10.67,19.47,12.29
	c7.56,1.41,14.48-9.06,15.77-14.24c-10.53-4.34,10.17-8.58,3.48-14.86c2.35-6.32,7.22-11.55,8.24-19.57
	c0.64,9.57,27.15,42.52,9.94,31.43c3.83,6.62,9.72,11.46,15.19,17.55l-11.76-1.82c11.2,7.28,31.32,36.22,37.68,29.72
	c1.17-1.19,5.1-5.23,0.16-4.55c2.83-6.91,7.2-13.52,9.28-21.63c4.25,14.64,10.09,26.9,19.26,37.08c-5.03-0.88-6.05-2.47-9.13-2.38
	c5.11,7.61,11.02,12.71,17.2,18.45l-10.4-1.67c2.82,3.48,5.88,5.73,9.92,8.69c24.16-14.97,51.29-20.99,80.85-26.08
	c-0.91-6.77-9.52-2.47-13.96-2.81c3.26-7.33,16.52-12.74,13.33-19.58l13.07-32.09c-7.04-9.47,28.53,53.58,11.72,30.96
	c-0.52,6.48,16.35,13.09,9.33,17.02C1016.78,488.28,1099.84,500.17,1108.37,513.83z"/>
<path class="st26" d="M690.93,460.75l-5.27,10.2c1.79,0.82,4.07-0.07,5.01-0.36c14.3-4.3-19.26,16.71,1.34,10.54
	c-3,5.6-8.77,9-12.94,15.03c2.02,1.06,4.2-0.14,7.14,0.03l-12.98,20.05c5.49-0.09,9.71-2.15,15.02-1.23l-17.02,16.54
	c5.4,1.07,9.11-2.18,14.72-2.26c-3.55,2.86-6.64,5.06-10.21,8.64c-7.75-7.65-16.14-13.79-24.79-20.66
	c7.28-1.81,14.19,2.45,19.45,0.37c-1.6-2.48-19.48-5.14-8.97-8.58c-3.09-6.74-11.58-10.47-18.38-18.67
	c3.78-0.16,8.27,1.13,12.74,1.51c-6.87-11.65-18.06-25.23-17.44-37.11c4.76-6.99-7.22-12.42-6.11-20.71
	c13.94,10.32,24.54,24.85,35.21,38.35L690.93,460.75z"/>
<path class="st27" d="M226.23,625.38l2.45,1.43l-25.2,129.17c35.5,18.95,71.52,37.38,108.07,55.28
	c12.98,5.77,26.79,10.1,41.11,10.07l3.8,2.56c1.12,18.58,0.46,37.32-1.99,56.22c-10.56,122.59-1.01,246.93,14.28,364.8
	c1.53-34.8,5.87-69.16,13.04-103.09c1.51-3.83,3.19-3.61,6.21-1.86l9.6,158.12l-2.57,1.79l-2.76,2.44
	c-11.91-3.31-23.82-5.42-35.74-6.35c-15.17,2.89-30.11,6.83-44.83,11.83l-4.05-1.89l-2.72-0.8l-9.18-189.69l-24.06-23.97
	c-11.04-3.9-22.33-6.65-33.88-8.26l-11.06,64.87l-2.91,1.13l-80.59-52.51l-81.09-10.24l114.63-92.05l-2.44-142.85l-38.19-28.65
	l-106.4-32.6l154.67-31.47l21.71-125.24c0.75-4.33,1.26-7.01,5.48-7.87L226.23,625.38z"/>
<path class="st28" d="M307.63,1305.89l-1.3,3.05c-8.62,4.11-16.34,9.97-23.16,17.57l-3.3-0.77c-39.36-16.11-20.66-31.78-66.42-25.39
	c-7.92,1.11-11.39-0.89-16.42-4.17l33.24-33.32l-6.44-113.69l11.82-69.36c13.15,1.73,25.07,5.36,37.31,9.34l25.14,25.29
	L307.63,1305.89z"/>
<path class="st27" d="M998.92,834.34c1.29-7.78,2.13,3.37,3.17,5.02c1.98,3.15,4.18,4.79,9.4,1.81c-3.88,10,3.21,11.46,6.27,16.14
	c1.03-0.17,2.66-0.18,2.79,0.46c4.1,19.18,6.73,39.76,8.86,59.08l-2.4,1.98l-196.57,32.29l-8.29-1.35l78.68,223.79l-31.41,66.56
	l0.25,2.82l-197.18,88.63l-7.77,26.33c-1.46,4.38-3.87,6.2-7.23,5.45l-2.1,2.08c-23.12-8.58-46.26-17.17-69.4-25.76l-0.58-3.07
	l-2.64-2.05l1.58-91.77c1.98-22.51,5.6-44.8,10.87-66.85c1.52-7.28,3.51-7.51,6.97-1.12c1.06,1.95,3.11,34.18,2.37,36.44
	c-2.39,1.35-2.4,3.54-2.24,6.09c1.4,3.15,3.36,2.68,5.87-1.42l-2.42-2.83c-0.41-5.81,0.72-22.08,2.48-27.34
	c4.57-13.58,9.14-4.79,10.84,6.46c4.41,28.9,7.87,57.94,10.39,87.12c3.45-20.28,4.55-41,5.49-61.58l4.56-204.05l2.75-20.64
	l3.41-3.22c0.95,0.91,1.86,1.84,2.62,2.89c0.74,1.03,1.42,2.03,1.71,3.14c2.91,11.13,4.71,22.8,6.09,34.22
	c2.78,47.69,6.73,95.57,11.85,143.64c3.58-28.96,8.47-57.69,14.66-86.19l3.05-6.73l2.71,0.85l4.04,129.09
	c2.91,15.56,4.36,23.34,4.36,23.34c4.71-50.48,8.49-101.08,11.34-151.79c-0.03-9.68,1.87-18.66,5.71-26.93l0.13-21.32
	c4.54-34.12,9.06-68.13,13.57-102.04l2.87-1.26c4.64,4.89,7.02,11.61,7.16,20.18c1.83,22.8,3.51,45.59,5.02,68.37
	c8.24-47.98,13.24-95.7,15.01-143.18c0.73-12.38,2.45-24.54,5.19-36.46c2.26-6.09,7.16-13.76,10.01-4.75l2.79,2.85l1.49,39.05
	c0.71-9.22,2.24-18.29,3.86-27.39c0.14-0.8,0.76-1.54,1.44-2.32c0.68-0.79,1.49-1.46,2.35-2.09l2.73,0.76l7.69,118.43l17.95-266.28
	l2.78-1.46c0.44-8.1,2.17-10.24,5.19-6.42c7.22,38.23,13.73,76.74,19.54,115.53c0.81,35.84-1.17,71.63-5.96,107.36l-0.79,21.24
	l171.05-29.81l-8.44-68.07L998.92,834.34z"/>
<path class="st29" d="M1047.32,1107.29c12.06,1.54,24.98-0.35,37.35,3.18l80.29,22.89c-81.34,87.29-167.84,171.91-246.11,255.68
	c-8.55,2-16.71,5.54-25.78,9.84c-10.49-10.98-22.63-17.33-37.76-17.45c-13.11-0.1-25.15-5.73-37.39-7.38
	c-50.05-6.72-49.65-33.76-120.38,10.57l-4.82-0.36c-9.86-7.26-20.97-12.53-32.35-16.94l-2.9-3.96c8.96-7.89,7.21-22.4,13.21-33.62
	l198.72-89.61c8.16-3.68,14.82-5.78,22.86-11.86C944.82,1188.46,993.67,1142.91,1047.32,1107.29z"/>
<path class="st29" d="M1168.01,826.31l-120.17,165.83l29.14,79.48L822.15,949.77l205.35-33.74l-9.74-58.73
	C1064.78,841.97,1117.67,836.12,1168.01,826.31z"/>
<path class="st1" d="M990.87,771.43l8.05,62.91l9,72.58l-177.2,30.47c0.93-50.52,13.62-100.58,4.92-149.75l-17.43-98.4
	c-1.29,2.43-2.14,4.31-2.33,7.19c-1.02-0.36-2.49-0.87-2.57-1.73c-0.23-2.53,1.07-27.41,2.11-28.37l2.64-1.76
	c0.19-2.77,1.58-5.26,3.07-7l1.77-3.08c51.23-14.6,102.52-29.04,153.86-43.32l2.3,2.14C980.32,652.93,985.43,728.91,990.87,771.43z"
	/>
<path class="st30" d="M1019.18,586.79l-36.82,18.03c-2.05,1-3.37,6.29-3.3,8.49l-157.92,44.26l2.1-10.51
	c24.81,0.36,101.26-37.2,112.84-41.46l36.59-13.46l19.94-2.69C1001.61,588.23,1011.08,580.91,1019.18,586.79z"/>
<path class="st31" d="M632.02,665.83l2.13,7.75l-0.72,26.37c4.18,96.36,9.13,192.39,14.86,288.08l-2.58,1.8
	c-1.88,8.59-3.45,18.25-3.66,28.3l-3.98,185.93c-0.66,30.73-2.89,60.53-8.01,91.86c-9.57-39.83-4.98-77.59-17.09-116.31
	c-4.81,12-3.45,24.61-4.77,36.29c-1.09,1.3-3.04,1.77-5.87,1.42c-1.39-15.18-0.25-30.35-3.53-46.23
	c-4.33,25.74-11.4,49.18-11.83,74.36l-1.54,91.12c-2.4,1.99-6.06,1.9-10.98-0.26c-4.97,0.02-8.06-1.31-9.26-4.01
	c-3.36-0.7-6.89-1.02-10.6-0.97l-1.37-11.16c4.71-100.76,7.6-201.59,8.66-302.48c4.6-116.48,11.2-230.71,19.8-342.7
	c5.2-0.15,10.41-0.52,15.65-1.1C609.48,673.41,620,667.12,632.02,665.83z"/>
<path class="st32" d="M505.02,673.51c-0.31,2.28-1.57,2.79-3.48,2.71c-12.57,210.83-4.51,423.61,4.32,634.45l-0.71,17.76l-1.9,2.25
	c-26.9-7.41-53.8-14.81-80.71-22.22l-0.84-3.01l-2.45-1.06c10.16-210.61,23.04-422.12,38.65-634.54l2.78-1.48
	C475.27,673.5,490.45,668.56,505.02,673.51z"/>
<path class="st33" d="M597.32,673.92c-3.7,0.15-6.83,2.27-13.2,0.93l-14.02,213.33c-9.7,147.62-5.08,295.13-14.92,442.89
	c4.5,0.88,7.72-1.05,9.99,1.25l-2.45,2.56l-16.63-0.49l-2.52-2.38c-1.08-0.05-2.7-0.37-2.75-1.12
	c-11.06-174.72-20.85-352.97-29.64-529.08c-0.68-42.98-0.1-85.56,1.75-127.75c14.86,3.28,28.77-2.01,44.1-2.92
	C570.95,670.32,584.14,675.97,597.32,673.92z"/>
<path class="st34" d="M413.64,669.72l1.04,9.73c-5.16,73.78-8.67,147.66-10.56,221.63c0.96,133.55,2.46,266.53,4.5,398.92l-2.66,1.7
	c-2.5,3.33-9.58,2.03-10.95-1.83l-9.75-160.67c-11.89,43.03-10.39,85.58-16.54,129.48l-12.38-107.62
	c-12.93-112.43-10.7-225.22,0.11-337.16l-2.58-1.17c4.76-49.25,9.51-98.51,14.27-147.78l2.82-1.36c7.14,2.3,14.1-3.77,21.72-3.79
	C399.97,669.77,407.07,674.37,413.64,669.72z"/>
<path class="st35" d="M465.02,475.41c3.28,4.69,4.7,10.85,8.87,15.57l-14.47-2.52c9.55,11.51,17.35,22.29,24.07,34.69
	c-7.94-3.03-15.06-6.22-23.05-8.01c11.01,16.39,25.42,28.03,32.28,46.99c-7.36-1.21-13.51-7.81-21.44-5.6
	c15.63,11.55,30.13,23.94,36.54,40.43c-2.96,1.07-6.34,0.84-10.13-0.7l9.14,6.99l0.83,3.53c1.9,7.81,9.56,12.59,14.77,20.94
	l-16.19,0.63c-24.79-0.71-49.63,0.28-74.84,3.09c-37.02,4.12-29.24-15.88-60.31-16.78l-17.82-3.86c-3.53-1.11-19.64-6.51-19.33-9.62
	c2.94-4.23,1.68-4.03-3.8,0.59c-8.34-1.65-16.59-3.86-24.75-6.64l-1.02-3.1c-5.22-3.13-0.36-13.16,2.92-17.2
	c-1.53-0.82-1.94-2.53-1.61-4.63c2.77-18.09,6.26-37.31,10.09-55.2c0.5-2.31,2.49-4.91,4.83-4c4.58-5.21,6.86-7.81,6.86-7.81
	l1.99-0.59c0.76-3.6,2.07-5.15,3.93-4.67c-2.15-1.32-2.77-5.55-0.11-6.67c-4.09-1.46-0.85-8.12,2.65-9.01
	c0.01-2.7,1.28-2.56,2.22-1.25l3.7,5.09c10.08-11.69,21.59-22.17,30.08-35.81c-5.11-0.91-9.12,1.38-13.77,1.94
	c5.72-8.51,11.44-15.89,18.22-23.18c-3.23-1.09-5.24,0.71-8.57-0.04l11.08-11.55c-3.33-1.21-6.69-0.44-11.25-1.07
	c4.04-6.63,9.23-12.48,12.32-19.6c10.16,8.32,15.47,19.38,21.31,30.23c-3.81,0.35-5.58-1.36-8.34-0.49
	c8.54,9.15,14.66,19.01,20.3,30.1l-18.02-2.32l24.11,25.66c-6.39,0.03-11.33-3.64-17.82-2.42c10.35,8.13,19.1,15.24,26.86,25.9
	c3.88-5.28,6.13-9.07,8.05-13.88c-3.55,0.65-5.68,2.72-9.09,1.79l15.44-32.9l-8.01,0.3c6.26-9.72,11.97-18.6,16.2-29.12
	c2.39,12.2,6.19,21.81,13.47,30.51l-7.85-0.46C457.77,466.18,461.75,470.74,465.02,475.41z"/>
<path class="st36" d="M377.51,644.14c-5.5,5.68-10.53,12.26-12.63,20.71c-0.97,3.9,2.77,7.66,6.08,8.73l-14.51,150.31
	c-20.25,1.18-39.63-6.55-58.39-16.12l-97.69-49.81l25.87-132.58c15.74-0.35,31.92-5.99,48.37-4.67
	c21.13,1.7,40.32,13.71,61.15,16.94L377.51,644.14z"/>
<path class="st31" d="M460.68,668.38l-29.61,447.11l-9.37,189.96c-2.08,3.89-15.23,0.56-15.73-3.76l-4.52-352.13
	c-1.21-93.93,5-187.15,12.2-279.84C431.08,657.41,432.58,658.52,460.68,668.38z"/>
<path class="st37" d="M505.02,673.51c2.58,0.3,5.39-0.01,7.92,0.55c2.5,0.96,3.17,2.98,2.96,6.42
	c-3.75,62.03-2.99,123.8,0.63,186.15l27.04,465.38c-5.12,5.84-18.09,3.6-25.64,2.16c-6.01-0.16-10.28-2.07-12.79-5.73
	c-13.52-217.79-16.16-435.68-6.65-654.11C501.03,673.34,503.1,673.29,505.02,673.51z"/>
<path class="st38" d="M681.64,668.31c0.88,4.57,1.63,9.21,1.42,13.87c-1.83,39.08-3.55,76.65-3.79,115.89
	c2.59,94.22,5.6,187.89,9.04,281l-2.62,1.73c-6.98,37.6-12.85,74.93-17.52,114.17c-6.43-44.23-10.12-87.85-12.18-132.91
	c-1.15-25.14-3.91-48.95-10.28-72.23l-13.14-239.61c-1.59-29.08-2.87-56.52-0.55-84.39C656.62,663.19,649.67,676.73,681.64,668.31z"
	/>
<path class="st39" d="M745.98,664.43l0.93,6.79c-6.6,87.42-11.18,173.42-13.75,258l-2.74,1.52l-16.57,124.62
	c-2.91-9.13-4.37-13.69-4.37-13.69c-12.05-121.38-18.67-242.43-17.09-364.43c0.03-2.36,0.48-4.72,0.94-7.1
	c0.47-2.39,1.12-4.75,1.83-7.09C717.09,653.62,728.69,671.05,745.98,664.43z"/>
<path class="st40" d="M713.84,1055.36c-8.41,63.22-6.73,127.93-15.83,193.29c-3.86-13.97-8.05-27.64-8.48-41.71l-3.85-126.13
	l-7.98-234.27c-2.06-60.36-1.93-119.05,3.94-178.22c4.12-1.09,9.49-3.53,13.52-5.27c-0.36,66.27-1.76,132.67,3.52,200.79
	C703.68,928.54,705.72,992.43,713.84,1055.36z"/>
<path class="st31" d="M782.09,669.51l1.58,7.34c0.03,43.76,0.49,87.52,1.39,131.28l-1.32,7.39l0.48,10.76
	c-0.94,8.18-4.8,19.62-11.42,8.63c-1.35-0.31-2.91-1.78-4.17-0.95c-7.02,4.65-9.56,59.28-10.18,71.44
	c-2.23,43.89-6.62,86.13-16.4,129.34c-6.92-35.32-1.67-72.24-11.64-104l4.52-113.78c2.05-51.67,4.36-102.15,11.04-152.53
	C758.46,659.65,770.3,664.36,782.09,669.51z"/>
<path class="st33" d="M818.06,664.56l-2.19,31.87l-20.79,308.27l-10.37-159.71l-2.19-2.6c1.27-8.94,1.67-17.9,1.21-26.88
	c-3.28-48.55-3.1-97.39-1.65-146.01C793.92,674.68,806.45,667.77,818.06,664.56z"/>
<path class="st41" d="M326.79,474.11c5.7,0.39,5.93,14.83,3.17,18.34c1.38,0.29,2.43,1.78,3.16,4.47c-0.34,1.69-1.56,3.58-3.65,5.67
	c-1.15,5.95-7.75,9.19-12.29,13c-1.78,19.34-6.04,38.08-9.43,58.01c11.47-9.26,16.63-21.6,22.56-33.22c1,4.82-3.75,6.38,0.17,8.75
	c0.95,0.57-0.5,1.73,3.18-0.23c-13,7.15-13.48,18.6-21.87,25.36c-6.16,4.96-6.72,10.56-7.39,17.77c4.39-0.23,0.13,12.21-0.93,13.1
	l-10.2,0.22c-0.51-0.77-0.74-1.74-0.83-2.66c-0.85-4.27-1.13-8.31-0.84-12.1l3.12-1.3l-1.55-3.95
	c11.51-27.28,14.18-46.39-8.92-68.32l-0.14-4.32c-0.79-0.91-0.53-1.21,0.71-0.95c2.27-1.34,4.48-0.24,6.65,3.29
	c-1.13-2.96-0.56-4.96,1.71-5.99c-1.25-4.25-0.81-6.11,1.32-5.58l2.99,2.95c-0.13,4.26,8,28.37,9.5,28.4
	c2.76,0.06,9.7-46.47,1.55-52.18l1.1-3.38c2.72-4.9,4.33-10.88,4.28-16.84c-1.13-5.73,0.29-7.43,4.26-5.09l3.7,46.62
	c3.38-8.44,4.09-17.93,2.13-28.47L326.79,474.11z"/>
<path class="st42" d="M371.09,614.66c-15.35-0.44-30.53-2.95-46.26-4.38c-1.97-0.18-4.58,2.9-9.25,2.21c-4.16-0.62,1.89-3-1.2-5.06
	l-21.13-2.08c2.59,0.03,7.84,0.84,8.53-2.66c0.57-2.9,2.27-7.15,2.6-10.66l24.97,7.47c7.22-7.64,19.73-12.08,23.43-21.72l10-26.05
	l-4.03,20.42c5.78-0.57,6.93-6.8,12.56-6.67c-13.02,11.17-24.55,23.1-35.58,35.87L371.09,614.66z"/>
<path class="st43" d="M266.52,495.54c2.33,1.66,2.5,4.86,0.54,9.63c4.91,25.7,10.63,51.37,17.16,77.02c1.97,0.83,2.7,1.69,2.4,4.14
	c-0.82,2.88-0.86,5.71-0.11,8.48c-2.14,0.81-1.98,2.15-1.31,3.98c-0.97-2.08,2.34,7.07-0.62,6.23c-14.72-4.21,3.72-3.74-13.73-24.08
	c8.8,6.9,2.66-23.31-3.05-24.74c-20.9-5.27-41.96-9.92-57.24-24.54l18.1,8.75c-0.38-4.47-5.6-9.19,0.1-13.95
	c-0.86,15.43,8.89,21.35,23.74,23.19c-0.12-6.59-3.5-12.58-2.04-19.69c2.49,6.25,1.89,12.15,4.9,17.5c2.39,4.24,9.4,2.52,15.25,5.04
	l-12.73-53.33c6.08-2.07,1.56,3.9,4.79,5.46C265.56,501.27,262.07,496.17,266.52,495.54z"/>
<path class="st44" d="M82.79,534.06c-2.58,1.06-1.74,4.28-3.68,5.79c-3.8-1.02-2.19-6.74-0.24-9.6l14.27-40.4
	c1.38,8.65-3.72,15.72-4.3,23.38c15.2-3.39,12.16-18.66,20.96-28.76c2.3,9.55-9.12,15.49-5.58,23.94
	c9.93,2.01,19.82,1.72,29.85,2.22c-17.85,5.81-29.01-5.61-44.57,6.29C85.29,520.13,82.41,527.26,82.79,534.06z"/>
<path class="st45" d="M64.28,530.23l-0.25,2.75c-0.75,8.15-3.41,16.13-3.82,25.18c-4.51,0.15-8.37-0.2-12.57-1.22l8.52-23.79
	l-15.98-0.13v-1.34c7.23-0.87,16.62,3.11,18.67-4.95c3.74-2.89,5.19,2.71,3.63,5.35C62.38,532.27,61.65,528.61,64.28,530.23z"/>
<path class="st46" d="M79.1,539.84c-1.23,6.59-2.94,13.25-5.6,20.07c-0.57,1.47-5.58,0.16-5.59-1.35c1.88-8.2,7.39-16.69,7.41-25.04
	c1.47-0.74,2.62-1.94,3.54-3.29C77.81,533.21,79.67,536.8,79.1,539.84z"/>
<path class="st47" d="M286.61,586.32c1.93-4.05,8.92-1.61,8.1,2.96c-1.39,4.37-1.18,9.08-2.27,13.4c-0.21-2.25-0.07-4.81-2.75-6.32
	c-2.54-1.44-5.31-2.48-4.48,2.42C283.34,594.8,281.01,587.25,286.61,586.32z"/>
<path class="st48" d="M1154.14,1412.66c0.67,2.54,4.23,4.86,3.16,8.22c-3.53,1.49-8.55,3.81-12.35,5.37l-8.74,0.89
	c-32.77-7.32-65.55-14.01-98.34-20.08c-8.07-4.61-16.86-7.22-25.17-11.22c76.92-22.93,56.52-2.57,110.81,5.47
	C1134.81,1402.99,1143.51,1411.77,1154.14,1412.66z"/>
<path class="st49" d="M395.01,1299.86c2.99,0.17,8.14,1.16,10.95,1.83l15.73,3.76l83.45,22.98c12.9,3.55,25.02,5.79,38.43,3.57
	c6.65-1.1,14.88,0.05,21.59,0.31c5.71,0.22,14.99,2.32,20.24,4.27l72.07,26.75c14.18,5.26,28.47,11.79,40.07,21.27
	c-3.45,2.16-3.83,7.28-9.17,6.94c-23.41,8.9-48.86,13.35-73.6,7.07c-9.25-0.88-16.88,3.32-23.03,9.92
	c-7.49,5.92-16.95,6.71-26.1,5.19c-15.17-3.35-30.36-6.39-46.01-4.82l-3.31,1.88c-13.35-5.75-26.9-8.82-40.65-9.21l-2.98-2.29
	c-2.18-0.05-2.33-1.26-1.17-3.06c-17.91,5.33-38.4,8.5-55.05-1.96c-4.8-0.46-6.72-5.32-10.52-7.2c-6.26-4.12-11.89-8.9-16.89-14.34
	c-0.68-0.08-14.15,3.15-10.05,5.07c-17.78,0.87-109.51-11.15-108.91-35.21c0.12-4.98,4.75-12.94,9.77-16.85
	c8.77-6.83,16.36-17.73,27.76-19.86c16.16-3.01,31.6-11.14,48.66-12.61C369.48,1292.15,382.38,1299.13,395.01,1299.86z"/>
<path class="st50" d="M400.85,1397.34l-4.66,1.84c-23.77-4.31-48.03-0.93-68.98,11.37l-6.89,1.44c0.09,3.04-2.62,5.75-8.13,8.15
	c-1.18,1.89-2.53,3.57-4.06,5.04c-1.32,3.12-4.3,5.41-8.94,6.88l-9.41,6.07l-3.51-0.84l-49.34-0.57
	c-41.29-0.48-81.79-10.71-121.81-18.41l45.62,0.01l77.61,11.51c-17.59-6.66-34.03-21.18-53.56-21.52l-58.94-1.02l-39.55-29.81
	l-60.92-8.26c8.32-2.49,16.71-7.6,26-9.17l93.29-15.72c24.87,15.49,54.57,6.96,80.97,14.94c23.89,7.23,44.34,21.44,70.95,25.66
	c18.44,2.93,35.19,11.21,55.1,5.78C369.06,1385.97,384.64,1391.49,400.85,1397.34z"/>
<path class="st20" d="M400.85,1397.34c7.36,2.65,16.45,4.54,23.64,2.14c1.7-2.15,6.59,0.65,6.52,2.55
	c12.65-0.51,25.17-2.11,37.58-4.8l4.11,2.07c16.84-2.87,30.92,5.54,46.94,9.63c8.47-3.27,42.51,6.14,43.98,14.3
	c0.22,1.25-0.05,2.43-0.67,3.53c4.27,6.72-5.02,5.27-9.74,4.49c-23.96-5.37-47.49-12.38-70.59-21.03
	c-12.05-3.09-23.69-3.42-32.61,6.58c17.59,2.5,50.94,25.18,11.71,20.74l-21.43-5.44c-25.39-1.14-48.09-3.17-70.08-16.55
	c-8.13-2.95-16.63-2.96-25.51-0.03c-14.71-0.43-22.06-0.65-22.06-0.65l-2.3-2.9C344.89,1394.92,372.85,1391.56,400.85,1397.34z"/>
<path class="st51" d="M472.7,1399.3c-13.69,2.33-28.1,1.78-42.1,5.16c-2.25-1.93-4.05-4.14-6.11-4.98c-2.46-1-5.31-4.94-8.01-5.2
	c19,5.66,38.1,9.04,55.37-1.73c1.98,2.67,3.79,3.56,5.03,3.83C488.89,1398.97,468.78,1397.68,472.7,1399.3z"/>
<path class="st52" d="M405.96,1387.08c-8.6-4.24-17.52-8.17-26.94-9.27c-3.18-0.37-6.44-1.64-10.91-1.51
	c7.11-2.36,13.67-4.2,21.55-5.96C395.7,1375.9,401.82,1380.98,405.96,1387.08z"/>
<path class="st53" d="M860.62,1428.48c-3.95,5.77-5.88,13.01-9.11,19.16c-16.59,1.69-33.23,6.91-50.7,6.03l-89.65-4.54l-5.19-0.98
	c-10.92,1.72-14.18-0.33-9.77-6.15c-0.36-5.1-0.96-10.2-1.8-15.29c10.55-4.77,21.19-9.4,31.92-13.9l19.66-1.05l4.81-2.34
	c35.38,0.58,70.05,5.43,104,14.57C854.79,1423.99,856.74,1425.49,860.62,1428.48z"/>
<path class="st54" d="M659.04,1408.81c5.86-0.66,12.26,1.22,18.11,0.89c21.84-3.13,43.49-3.16,64.93-0.09l3.9,2.15
	c-27.71,3.02-24.14,8.52-49.68,15.94c2.11,6.78,5.34,13.89-0.2,19.51c6.1,1.99,11.02-1.49,15.06,1.93
	c-5.22-0.26-11.57-1.49-15.92,1.35l-4.52,0.12c-41.5-24.04-97.2-18.09-138.79,3.01l-4.45-0.49l-8.6,2.6
	c-37.81-0.35-75.58-0.7-113.31-1.05l-3.55-2.71c-2.96,2.79-5.45,1.19-4.17-2.64l4.98-2.73c24.52-2.79,48.97-5.85,73.34-9.17
	c14.62,2.14,28.43,0.52,41.43-4.85c11.25-1.88,22.52-1.91,33.81-0.08c9.47-0.4,18.55-2.98,27.23-7.75l0.95-3.4
	c12.2-9.43,32.53-21.19,48.3-15.62c0.46,0.16,0.68,1.02,0.82,2.08L659.04,1408.81z"/>
<path class="st55" d="M1067.15,1459.44c-32.45-10.58-66.27-5.2-100,1.77c-32.26,6.66-63.62,10.58-90.8,29.81
	c-7.77-7.07-18.08-6.98-24.52-13.75c-4.76-5-2.3-14.56-1.67-20.34c7.75,23.13,71.61-9.58,85.79-14.57
	c51.35-18.09,89.33-2.9,138.49,13.02C1072.2,1458.85,1069.56,1458.28,1067.15,1459.44z"/>
<path class="st56" d="M860.62,1428.48c-47.31-14.13-65.11-13.1-114.64-16.73c-22.98-2.17-45.77-3.38-68.83-2.07
	c42.53-6.26,86.73-9.07,131.39-12.35c24.63-1.81,49.13-3.31,69.25,11.85C871.47,1416.44,865.14,1421.89,860.62,1428.48z"/>
<path class="st57" d="M1144.95,1426.25l-65.31,26.93c-8.43-20.84-23.32-35.58-41.77-46.13c4.69-3.09,10.04-1.32,15.65-0.13
	L1144.95,1426.25z"/>
<path class="st58" d="M688.39,1391.55c-5.44-0.34-9.59,6.8-15.06,7.88c-8.84,1.73-18.03,0.5-24.56,7.66
	c4.33,1.38,8.08-0.74,10.28,1.72c-9.82,1.11-20.39-3.29-30.71-0.53c-11.1,2.97-19.52,12.11-29.66,16.45
	c-7.39,3.69-26.44,11.4-34.07,6.77c-2.23-1.35-3.06-1.94-1.64-4.75c-9.59-13.67-27.21-13.72-43.3-17.83
	c26.55-11.42,53.76,15.51,73.78-5.5c5.88-6.17,16.57-9,25.49-6.85C644.21,1402.66,664.99,1395.94,688.39,1391.55z"/>
<path class="st59" d="M1115.42,1462.46c5.29,3.98-6.17,7.59-6.85,12.65c-2.86,0.56-3.41,2.09-4.37,3.46
	c-1.28,1.84,0.94,3.27,2.56,4.21l-0.15,1.36l-5.05,0.26c-16.54-8.62-35.27-11.8-53.81-11.32l-4.55-2.5c4.03-3.79,10.06-4.43,15-6.82
	C1089.09,1466.65,1087.91,1472.48,1115.42,1462.46z"/>
<path class="st60" d="M417.87,1449.32c1.26,1.06,2.71,1.89,4.17,2.64c5.11,1.57,9.57,9.35,12.01,14.28c3.05,4,3.42,7.24,1.13,9.71
	l-2.21,1.26c-15.89-4.22-31.8-8.5-47.7-12.83c-19.08-4.44-38.93-4.15-57.33,3.06c-15.67,7.7-31.99,13.4-48.98,17.08
	c-8.11,0.8-18.11,1.07-16.61-10.09c2.67-8.5,4.64-18.1,10.97-25.28c3.59-4.06,8.45-8.81,12.96-11.89c6.56-4.48,14.1-9.89,21.86-12.1
	c0.52-0.84,1.07-1.65,1.75-2.33c7.42-7.43,45.55-4.19,56.64-1.71c10.98,2.45,47.08,15.73,50.7,25.35
	C417.57,1447.38,417.74,1448.34,417.87,1449.32z"/>
<path class="st61" d="M435.17,1475.96c3.52-1.67,5.06,0.73,2.68,3.72c-1.4,0.26-2.81,0.62-4.18,0.99
	c-16.55-2.59-31.28-4.86-48.47-3.95c-30.77,1.62-63.17,8.21-91.04,21.17l-6.24,0.6c-6.1-1.31-14.03-2.08-20.07-2.27
	c-4.51-6.28-8.65-11.8-5.51-21.78c2.36,20.82,56.28-6.41,65.28-9.75C368.01,1449.71,399.78,1466.69,435.17,1475.96z"/>
<path class="st20" d="M695.24,1450.49c15.98,11.8,28,29.59,38.36,45.94c-0.55,1.42-1.48,2.48-2.77,3.27
	c-5.65,3.43-29.2-1.46-36.27-3.57c-25.79-8.34-52.02-15.46-78.72-21.36c-18.59,4.34-36.48,11.03-53.68,20.06
	c-7.52,2.93-15.58,5.03-23.72,4.65c-7.2-0.33-19.9-1.78-22.68-8.72c-4.2-5.8,3.67-16,7.87-21.13c6.11-7.47,14.04-15.09,23.86-16.5
	C585.83,1429.67,658.11,1423.06,695.24,1450.49z"/>
<path class="st16" d="M733.6,1496.42c3.34,5.27,8.36,9.57,12.2,14.31c2.21-1.69,8.03,5.12,9.73,7.44c0.68,0.93,0.96,2.07,1.22,3.18
	c-1.48,1.19-2.35,1.92-4.12,2.73c-9.89,1.13-14.84,1.69-14.84,1.69l-1.18-2.8c-24.52-3.43-46.29-13.76-69.7-22.75
	c-17.83-0.98-36.36,4.75-54.06,7.4c-29.17,4.36-58.88-0.21-85.09,8.54c-1.56-7.39-7.89-16.48-14.58-21.65
	c-1.97-3.08-0.86-4.41,2.6-3.75c39.88,19.02,56.59-12.22,100.28-18.62c20.52,5.65,41.29,8.94,61.71,15.79
	C696.39,1494.17,714.91,1500.66,733.6,1496.42z"/>
<path class="st20" d="M1043.19,1470.58c22.47-1.23,44.61,2.53,63.41,13.56c16.23,9.52,30.66,25.22,34.41,42.42l-4.75,0.05
	c-18.38-14.71-38.45-23.67-60.2-26.88c-17-0.95-34.04-2.31-51.13-4.06c-9.28,9.26-18.19,18.89-26.75,28.89
	c-3.62,4.18-6.95,5.34-9.97,3.47C993.05,1496.37,1011.81,1472.66,1043.19,1470.58z"/>
<path class="st18" d="M1141.02,1526.55c1.02,4.68,3.14,8.61,2.05,14.51c-17.46-8.97-34.73-16.47-51.15-29.28
	c-21.07-13.7-74.47,14.49-96.9,25.97c-3.18,1.63-6.96,1.74-9.59,3.28c-1.55-5.5,2.15-8.86,2.78-13.02
	c13.69-6.04,20.48-23.67,36.09-34.83C1090.79,1499.86,1086.56,1489.98,1141.02,1526.55z"/>
<path class="st62" d="M814,1525.66c-11.42-1.27-47.7-11.96-57.25-4.31c-5.84-1.08-7.95-6.92-10.95-10.62
	c9.8-11.77,24.24-16.77,39.86-11.5C797.6,1503.27,809.26,1512.91,814,1525.66z"/>
<path class="st63" d="M547.49,1453.12c-14.24,8.71-28.36,21.6-31.73,37.63c-0.31,1.46-1.68,2.68-2.6,3.75
	c-21.76-16.79-48.64-19.72-75.31-14.83l-2.68-3.72c-2.23-9.01-8.94-15.83-13.14-24L547.49,1453.12z"/>
<path class="st64" d="M433.67,1480.68c-19.05,5.2-36.94,13.38-53.34,24.48l-8.54,3.47c-13.82,1.26-27.63,2.51-41.43,3.76l-7.49-2
	c-10.87-5.63-22.99-9.31-34.94-11.88C314.41,1480.64,404.53,1463.94,433.67,1480.68z"/>
<path class="st65" d="M380.33,1505.15c-11.04,7.47-20.65,17.29-31.11,26.7c-7.54-8.55-16.44-16.34-26.36-21.48L380.33,1505.15z"/>
<path class="st35" d="M37.74,435.68c1.63,2.57,3.76,5.36,6.29,7.65c4.74-3.16,7.66-7.33,12.3-8.95c3.02,6.19,7.25,10.78,12.7,13.78
	c5.05,10.89,4.37,24.38,2.57,35.82c-0.89,5.62-5.07,29.08-8.81,30.68c-3.26,1.4-10.72-11.74-12.06-14.9
	c-5.17-20.43-10.23-41.79-14.34-62.71C36.32,436.69,36.93,436.21,37.74,435.68z"/>
<path class="st66" d="M37.74,435.68c4.46,19.91,9.87,63.11,24.32,77.38c6.27-19.15,11.74-39.37,7.46-59.48
	c-3.39-6.4-12.08-11.48-13.2-19.19l1.27-0.44l3.21,0.35c4.26,7.86,6.7,9.35,7.34,4.48l2.84-0.83l4.74,39.29
	c15.99-11.14,5.61-27.06,9.53-38.1l2.58,21.19c3.71-3.07,2.72-8.04,6.1-11.76C91.94,463,85.25,476.63,73.4,484.3
	c-1.92,16.58-7.75,30.96-9.13,45.94c-4.6,6.97-0.46,0.15-5.42-3.48c-3.8-40.26-34.07-25.13-36.46-55.88
	c8.42,11.86,10.55,22,24.95,23.17c-3.97-21.17-8.73-41.41-13.74-61.55C35.8,432.3,36.73,434.09,37.74,435.68z"/>
<path class="st67" d="M70.98,437.95c-0.04,2.48-2.48,5.5-1.45,9.44c-5.98-3.28-9.3-8.23-11.94-13.45c1.76-4.37,7.01-5.37,10.56-8.19
	C72.69,427.57,71.06,432.78,70.98,437.95z"/>
<path class="st68" d="M752.63,1524.08c-4.17,1.9-9.76,10.32-14.46,8.3c-1.95-0.84-2.98-2.42-3.04-4.37
	c0.36-1.72,0.81-3.42,1.48-5.04C741.91,1523.71,747.73,1521.47,752.63,1524.08z"/>
<path class="st69" d="M750.04,544.28c-1.77,3.98-4.11,6.7-7.07,10.46l-18.33-9.8C732.83,543.79,740.05,543.56,750.04,544.28z"/>
<path class="st70" d="M507.84,596.96c1.56,0.84,3.78,3.65,4.4,5.08c0.62,1.43-3.85,4.1-4.56,4.74c-6.62-3.45-13.24-9.27-18.37-15.65
	C495.82,592.18,502.33,594,507.84,596.96z"/>
<path class="st71" d="M553.28,554.81c-3.73,1.75-12.74,8.2-14.26,8.69c-2.32,0.75-6.56-2.24-6.27-5.34
	C540.49,556.95,546.6,554.19,553.28,554.81z"/>
<path class="st72" d="M326.96,467.27c2.28,3.66,2.22,5.94-0.18,6.84c-1.27,12.28,5.94,26.36-7.29,35.74l-4.07-53.22l-1.58,24.13
	c-1.49-0.02-2.86-1.2-4.23-1.51c-6.63,1.28-8.46-12.26,0.15-11.42c1.55-10.12-2.59-16.08-5.72-2.77l-3.06,0.79
	c-2.95,0.35-5.17,2.73-9,2.63l15.58-34.39c-2.94-0.67-5.07,1.24-7.98-0.01c6.33-9.44,11.03-18.45,16.33-28.68
	c2.86,11.41,6.27,20.78,13.24,29.56c-3.02,1.29-5.94-0.79-7.72,0.94l15.49,29.91C332.85,471.66,328.89,462.11,326.96,467.27z"/>
<path class="st73" d="M309.62,479.25c10.74,16.46,4.11,43.73-1.92,63.22c-6.47-13.08-12.3-25.79-13.22-39.01
	c-4.57-1.85-10.67-15.85-3.93-17.32c3.58-7.48,9.88-12.7,10.44-20.29c1.49-4.14,2.34-12.27,8.11-11.03
	c5.16,1.11,4.65,18.27,0.52,16.5C303.56,467.21,307.9,477.92,309.62,479.25z"/>
<path class="st74" d="M290.55,486.14c-2.75,5.76,3.47,10.61,3.93,17.32c-1.72,1.17-1.16,3.73-1.32,5.58
	c-2.74-0.24-5.53,0.66-8.36,2.7l-0.71,0.95c-0.87,0.57-2.22,1.34-2.8,0.84c-1.64-1.41-12.37-13.88-13.32-15.71
	c-0.66-1.27-0.57-3.14-0.36-4.57c-1.63-1.92-6.97-4.98-2.54-8.56l20.18,7.04c0.95-2.46-1.29-3.07-1.2-4.54
	c-2.48-8.1-5.07-16.09-7.77-23.97c-2.37-1.54-3.4-3.34-3.1-5.4c1.2-0.16,2.39-0.67,2.87-1.85c9.75,0.11-0.4-12.49,5.72-17.8
	C284.24,455.81,279.57,474.25,290.55,486.14z"/>
<path class="st75" d="M335.93,482.24c0.47,3.4-2.59,5.72-2.65,9.01c-0.19,2.61-1.51,3.08-3.33,1.2c-1.97-5.96-0.58-12.65-3.17-18.34
	c-0.86-1.9,0.75-4.84,0.18-6.84C330.58,471.94,334.46,476.43,335.93,482.24z"/>
<path class="st76" d="M157.98,424.56l1.46,1.07c-2.29,1.6-2.9,8.57-7.52,8c-3.09-0.38-6.16-4.82-9.81-6.42l-4.18-1.83
	C144.66,423.08,153.5,430.2,157.98,424.56z"/>
<path class="st73" d="M284.1,512.69c28.65,33.79,23.48,36.02,10.61,76.59c-2.16-1.91-5.53-2.26-8.1-2.96
	c-1.21-0.33-3.85-1.61-4.67-2.86l-17.38-72.63c-1.28-5.34,1.12-10.62,1.96-15.29l1.09-2.29L284.1,512.69z"/>
<path class="st10" d="M273.19,457.81c10.53,3.86,9.2,18.78,10.86,29.38l-22.41-31.77C265.89,455.96,269.78,456.56,273.19,457.81z"/>
<path class="st28" d="M233.36,1074.34c-9.29-2.54-17.82,4.97-26.69,5.05l25.27-74.1l-53.55-153.96l80.53-41.57
	c27.03,10.45,53.83,17.32,83.92,23.15l-45.34,222.52c-5.74,11.11-14.7,20.39-21.48,30.57L233.36,1074.34z"/>
<path class="st77" d="M784.72,844.99c-5.92,23.15-5.02,47.57-8.77,72.63l-3.15-82.71c1.48,0.34,4.28,2.71,5.34,1.5
	c5.2-5.93,6.36-9.6,5.6-20.88C784.16,824.43,787.07,835.83,784.72,844.99z"/>
<path class="st78" d="M608.19,1215.91c-1.66,14.72-0.6,29.79-3.56,44.46c-2.36-14.83-1.04-29.08-2.31-43.04
	c0.17-0.81,0.18-4.72,1.38-4.27C605.41,1213.7,606.71,1215.51,608.19,1215.91z"/>
<path class="st79" d="M364.53,486.93c-3.7,3.38-12.2,11.41-13.88,10.87c-2.76-0.88-4.32-4.81-6.88-8.82
	C350.14,486.43,357.22,486.43,364.53,486.93z"/>
<path class="st80" d="M333.28,491.25c-2.6,7.67,9.97,3.5,14.4,9.33c-0.98,1.72-4.93,5.05-7.64,6.05
	c-4.34,1.62-7.14-12.06-10.58-4.05c0.71-3.7,1.6-6.79,0.49-10.13C330.98,491.85,332.11,491.46,333.28,491.25z"/>
<path class="st81" d="M293.16,509.04l2.09,12.21c-5.12-2.64-7.33-6.5-10.45-9.51c-0.33-3.92,4.25-5.24,6.24-9.08L293.16,509.04z"/>
<path class="st82" d="M562.95,1426.76c9.17,9.93,24.88-0.32,35.71-2.03c-5.04,2.16-8.78,6.56-15.08,8.07
	c-15.07,3.61-35.56-2.54-49.66,3.92c-15.93,7.3-27.45,2.08-43.75,3.68c-23.53,2.32-47.87,9.1-72.3,8.9
	c-29.98-25.21-71.9-34.93-109.73-24.14c-2.04-7.11,6.72-9.39,12.18-13.19c9.6,0.82,20.98,2.36,30.52-0.33
	c16.43-4.63,27.4,5.98,42.16,11.6c17.73,6.75,38.55,2.82,57.11,8.21c9.47,2.75,18.93,6.51,28.57,3.32
	c-8.69-11.23-22.22-11.82-33.31-17.03c24.11-29.21,53.76,2.33,101.75,8.79C552.57,1427.28,560.87,1434.07,562.95,1426.76z"/>
<g>
</g>
<g>
</g>
<g>
</g>
<g>
</g>
<g>
</g>
<g>
</g>
<g>
</g>
<g>
</g>
<g>
</g>
<g>
</g>
<g>
</g>
<g>
</g>
<g>
</g>
<g>
</g>
<g>
</g>
</svg>
