<?xml version='1.0' encoding='UTF-8'?>
<svg xmlns="http://www.w3.org/2000/svg" id="Layer_1" viewBox="0 0 1200 1543" xml:space="preserve" width="1200" height="1800">
<style type="text/css">
      .cls-1 {
        fill: #343941;
      }

      .cls-2 {
        fill: #7b563f;
      }

      .cls-3 {
        fill: #5f6873;
      }

      .cls-4 {
        fill: #966847;
      }

      .cls-5 {
        fill: #a37544;
      }

      .cls-6 {
        fill: #918358;
      }

      .cls-7 {
        fill: #838f9d;
      }

      .cls-8 {
        fill: #bd8259;
      }

      .cls-9 {
        fill: #be965b;
      }

      .cls-10 {
        fill: #bf9473;
      }

      .cls-11 {
        fill: #8ba4b6;
      }

      .cls-12 {
        fill: #9eb2c1;
      }

      .cls-13 {
        fill: #afbac7;
      }

      .cls-14 {
        fill: #c0cfd9;
      }

      .cls-15 {
        fill: #d9dfe4;
      }

      .cls-16 {
        fill: #f3f1e9;
      }

    </style>
<path class="cls-14" d="M677.68,341.52l-0.19,0.91l44.97-5.07c33.1-0.72,65.66-4.88,97.68-12.49l6.17,0.79  c15.9-2.72,72.93-10.68,82.48,2.7c6.9,9.66,0.65,17.16-8.88,21.19l-3.24,3.45c-29.27,4.55-57.01,10.07-79.98,29.38  c-10.53,6.18-22.19,10.24-34.96,12.18c78.46-14.53,157.36-27.07,236.69-37.62c57.82-13.6,114.21-23.96,173.9-18.02  c1.31,0.13,2.58,0.73,3.9,1.35c1.32,0.63,2.57,1.43,3.78,2.29v174.57l-4.06,1.35c-65.59-20.05-164.97-5.33-187.49,69.68  c-29.79-8.04-59.86-11.02-89.15,1.09c-22.06,9.13-36.68,24.46-46.63,46.1c-33.52-3.79-69.23-2.57-90.48,27.74  c-36.67-11-76.94-3.29-94.66,33.72c-36.34-1.81-72.2,4.88-106.97,14.91l108.93-12.27c14.94-5.87,29.87-12.21,44.78-19.03  c11.14-4.33,40.6-14.23,51.46-9.38l1.93,3.15c4.14,1.15,2.55,2.42-0.23,4.61l-4.06,4.86c-15.77,9.3-34.18,19.06-50.58,27.35  c-28.45,14.39-56.52,23.81-88.32,27.83c101.32-3.02,203.35-16.51,300.94-40.71c25.49-4.09,51.05-2.55,76.68,4.64  c18.24,2.88,36.67,2.89,55.26,0.03c15.38-0.26,47.06,6.76,57.53,17.9c4.58,4.87-2.69,9.13-7.19,11.47  c-12.29,3.92-25.12,6.4-38.48,7.43l-80.81,24.79l189.79-10.14l1.78,2.59v185.37l-1,2.66l-274.82-6.22c-4.5-1.06-8.83-2.45-4.32-6.55  c1.24-6.83,12.55-10.66,19.04-12.71c3.22-1.01,6.61-1.34,9.96-1.48c2.18,1.17,33.8,0.59,32.08-2.21c-0.35-0.57-10.65-6.92-11.3-6.77  c-14.95,6.11-50.07,14.58-64.88,8.1c-1.55-0.68-2.58-2.08-3.4-3.52c-6.59-2.07-4.39-9.13-1.59-13.73  c-5.62-1.23-11.34-1.85-17.16-1.87l-1.56-2.88c-10.94,1.09-21.96,1.36-33.07,0.83c-0.41,3.53-1.46,3.43-3.13,0.32  c-8.81,2.87-19.99,0.33-29.2-2.16c-3.01-1.52-24.95-10.69-26.38-6.15c-0.17,0.54,5.38,3.89,6.4,4.22  c17.91,5.6,33.83,14.28,47.78,26.06c12.37,10.79,7.18,13.16-5.03,16.52c-8.68,2.37-17.78,3.16-27.32,2.37l-77.03-3.63l-13.46-2.63  c-0.89,0.45-1.79,0.84-2.73,1.07c-10.29,2.47-49.57-21.04-58.43-29.83c0,0-0.9,1.07-2.69,3.21c-3.32-0.57-5.41,2.47-6.29,9.1  c3.46,3.63,4.72,6.99,3.77,10.07c-8.13,2.96-16.78,3.96-25.95,3.01c-59.58-2.44-119.17-3.62-178.76-3.53l100.61,13.34  c1.3,1.8,0.69,3.58-0.47,5.42l-123.51-3.58l-1.56-2.72c-8.35-1.39-16.37-4.49-24.05-9.3c-6.84-2.84-14.46-1.81-22.85,3.08  c-52.93,12.76-99.65,16.82-113.21-49.43l2.07-3.31l0.94-2.68l315.2,0.88l-24.55-4.15c0,0-1.98-1.21-5.94-3.64  c-2.59-0.38-2.61-1.47-0.09-2.31c-0.01-1.05,0.27-2.67,0.93-2.68c77.33-1.52,157.34-0.72,234.58,2.35c1.24-2.69,3.09-2.96,5.71-2.5  c-19.92-3.54-39.75-7.57-59.49-12.07l-2.63-3.89c4.15-3.64,9.69-5.17,16.63-4.59c44.39,0.19,88.68,0.99,132.87,2.42l8.41,2.88  c3.76,0.28,5.63,0.42,5.63,0.42l33.86,23.77c2.72-0.99,5.08-0.79,6.74,1.7c1.23-7.12,5.09-7.98,9.02-2.07  c-0.15-4.37,2.16-5.86,6.15-4.43l-6.3-13.79l1.5-2.54c-1.34-3.52,1.51-5.47,8.54-5.83c26.99,0.36,53.88,2.53,80.67,6.52l99.96,1.25  c-29.33-4.13-58.9-6.61-88.54-6.48c-12.94-10.88-28.57-12.13-44.69-9.67c-22.45-18.01-51.57-29.16-79.97-19.88l-5.77-0.66  c-0.13-1.42-0.24-3.01,0.55-4.21c5.67-8.61,27.31-15.43,37.7-15.44c16.75,0.96,33.09-0.31,49.02-3.81  c-5.89-3.42-12.09-6.71-18.61-9.89c-40.17,14.77-81.19,18.26-118.98-4.99c-15.35-4.07-30.97-7.27-46.84-9.59  c-4.33-0.6-6.72-2.53-7.19-5.79c0.08-1.5,0.62-2.78,1.59-3.9c2.84-3.28,18.28-5.64,23.28-6.38c28.2,0.32,56.58-0.26,85.16-1.73  c-47.92-4.44-71.88-6.67-71.88-6.67c-12.3-8.76-25.24-7.94-36.49,1.86c-5.41,8.38-11.98,11.29-21.6,7.39l-2.16,0.45  c4.69,5.4-0.47,7.2-6.08,4.57c-2.32,3.89-6.11,4.44-11.39,1.65c-3.27,5.72-6.05,3.7-9.99,0.23c-5.53,3.45-11.96,5.27-19.3,5.47  c7.29-0.83,14.45-0.65,21.5,0.54l3.29,2.63c2.19-3.8,14.83,1.81,14.54,6.02c14.79,5.29,30.73,13.63,39.18,27.03  c1.33-4.04,7.29,2.52,7.54,4.41c0.83,6.4-6.94,8.81-10.69,5.11l-4.69,1.02c-34.85-13.85-73.62-11.62-102.44,14.05  c-8.53-2.89-16.86-5.46-25.98-4.87c-20.08-14.64-42.75-14.37-65.31-6.23c-15.5-32.72-45.88-54.61-82.99-50.27  c-11.9,2.1-23.38,5.7-34.44,10.82c-7.78-19.09-15.97-34.65-34.07-45.89c-18.69-11.61-38-12.49-59.3-10.7  c-2.37-7.92-4.44-15.93-6.19-24.03l1.93-3.5l1.88-3.03l19.31-5.11c74.87,19.22,151.38-2.06,214.07-44.05  c48.33-35.43,96.07-69.61,159.66-65.94c18.07,1.03,35.84,1.01,53.32-0.06c16.15-4.41,32.25-8.24,48.28-11.5  c-9.3-2.57-18.3-5.89-27.01-9.98c-9.3-12.48-24.9-19.93-40.34-15.37c-26.65,11.8-54.28,17.73-82.81,23.11  c-20.08,3.78-45.59,7.57-65.64,8.81c-8.29,0.51-15.89-0.19-24.06-1.83c-7.56-1.52-49.9-11.25-51.87-13.1  c-6.6-6.21-15.8-29.4-19.5-39.06c-3.13-8.19-5.68-16.51-8.08-24.93c-0.29-1.01-0.14-2.16,0.03-3.37c0.17-1.22,0.52-2.41,0.93-3.59  l4.21-2.9c23.57-4.19,47.23-7.24,71-9.14c38.74,3.33,76.95,1.48,114.63-5.56c21.51-9.93,41.75-11.84,65.09-9.99  c17.16-1.42,33.93-5.09,50.3-11.03c18.93-1.9,37.67-4.68,56.2-8.32l0.97-2.79l23.49-2.31c-30.91-0.1-62.04,2.47-93.39,7.7  c-43.94-9.79-92.55-14.41-132.12,11.21c-28.8-11.33-59.94-10.65-85.18,8.54c-24.73,2.38-49.41,4.69-74.05,6.92l-5.41-1.04  c-0.87-0.67-1.69-1.38-2.38-2.2c-0.68-0.82-1.31-1.58-1.47-2.41c-3-15.79-5.61-31.63-8.03-47.51  c-31.61-36.8-65.13-71.63-100.56-104.46c0,0-0.79-2.13-2.36-6.4l5.62-2.72c34.36-3.38,68.26-10.43,101.69-21.15l28.03-5.65  c42.98-4.63,86.59-9.16,129.91-13.28c3.03-0.29,6.1-0.12,9.2,0.05c3.11,0.17,6.2,0.54,9.3,0.97l28.24-4.08  c38.72-0.38,77.99-0.79,114.77-14.73c1.69-0.16,3.08-0.15,3.46,0.48c2.83,4.68-24.78,18.59-30.13,20.77  c-40.35,16-80.22,32.11-115.73,58.15C725.88,329.7,702.42,337.14,677.68,341.52z" />
<path class="cls-3" d="M0,125.89V0h1200v127.14l-0.94,2.99l-141.45,34.72c-49.09,15.53-98.13,31.67-147.11,48.44  c-52.91,21.47-106.37,38.69-163.05,45.32c-45.73,3.95-90.47,9.13-136.74,13.52c-50.02,4.75-96.63,28.78-147.01,28.26l-3.27,0.43  c-2.95-1.99-11.88-10.69-9.48-13.98c-0.25-1.45-0.01-2.79,0.67-4.07c3.44-6.5,32.21-17.75,40.25-17.68c2.19,0.02,3.66,0.09,5.05,2.3  l6.83-2.45c13.29,3.4,25.07,2.21,35.33-3.54c22.05-28.89,59.77-44.87,95.16-32.65c19.32-8.62,38.61-17.55,57.86-26.8  c20.38-11.71,44.85-35.16,18.4-55.07c-33.53-25.24-89.7-12.34-125.04,3.54c-42.6-51.23-123.76-51.71-182.59-32.7  c-45.38,19.44-96.77,35.39-146.16,39.66c-24.03,2.08-48.12-4.37-70.2-13.3c-31.85-15.47-60.01-26.59-96.02-27.59  c-28.58-0.8-57.04,4.04-84.73,10.73L0,125.89z" />
<path class="cls-14" d="M334.6,215.42l3.87,1.6c10.15,14.19,22.58,26.55,37.3,37.07c1.99,5.05,1.18,6.91-2.43,5.56  c-19.29-11.36-38.66-22.56-58.1-33.6c8.97,14.33,20.28,26.88,33.93,37.63c1.9,3.61-0.11,4.05-4.01,4.74  c-9.43-3.24-18.87-6.3-28.3-9.2c6.89,8.63,13.73,17.2,20.54,25.71c-2.89,3.04-3.98,5.69-3.28,7.96l8.06,10.49  c11.67,29.91,28.2,58.82,46.86,84.97c9.63,26.27,17.47,55.88,22.73,83.34l-2.14,2.53c0.62,4.71-0.14,8.35-3.82,3.91  c-1.72,1.35-3.57,1.66-5.65,1.25c-25.55-5.05-52.62-14.01-76.96-23.47c-31.09-12.09-57.26-28.88-79.69-53.81  c8.3,13.3,20.1,23.88,35.4,31.76c1.49,4.28,1.38,5.6-3.27,5.2c-18.95-6.49-37.04-15.32-53.9-26.08  c8.65,8.21,18.59,14.88,29.82,20.03c3.95,7.11-1.7,6.47-8.19,4.75c-10.33-2.48-20.51-5.45-30.55-8.93  c8.53,4.88,17.45,9.01,26.76,12.41c2.15,2.17,0.79,3.69-1.37,5.54l-13.66-1.64c19.65,11.48,39.5,22.81,59.55,34l1.21,4.38  l-0.28,2.82l-79.73,18.69l59.18-5.48l1.85,2.52c14.3-0.85,28.63-0.89,42.99-0.12c8.55-0.55,16.03,0.79,22.43,4.02  c1.81-2.5,7.18-1.15,7.27,2.51c4.75,0.13,7.04,1.17,6.87,3.11l5.29,1.36c30.55,27.67,61.03,55.4,91.43,83.2l-0.6,3.08l3.14-0.52  c0.66,0.57,7.72,11.16,7.65,11.86c-0.11,1.09-1.25,2.08-2.69,3.04c-17.43,9.49-35.28,18.01-53.56,25.56l-2.85,3.26  c-17.84,3.51-36.88,1.38-54.32-1.71c-7.14,0.11-14.32,0.23-21.56,0.36c-19.77-52.44-77.91-85.39-129.86-56.06  c-3.58,1.61-4.51-0.89-5.36-4.57c-6.79-50.72-55.91-84.52-105.71-71.55c-21.63-18.52-44.7-36.59-72.96-43.26L0,462.05V320.09  c1.38-1.02,2.79-1.99,4.28-2.79c1.49-0.8,2.94-1.57,4.48-1.91c41.38-9.04,83.12-16.84,125.4-19.07c18.21-2.75,35.3-9.23,51.26-19.44  c12.34-2.23,24.26-5.58,35.74-10.05c1.97-1.66,2.2-2.53,0.09-2.31c-38.14,4.03-74.33,9.2-111.25,19.22  c-28.12,6.06-55.69,3.56-83.46-2.97l-12.04-1.07c-5.58,0.74-10.41-0.09-14.5-2.49v-69.64l5.77-0.87  c56.68,8.93,113.68,13.66,170.99,14.19c52.13-2.2,103.86-4.87,155.18-8.02L334.6,215.42z" />
<path class="cls-1" d="M1200,1183.14v3.99l-1.01,2.98c-108.15,24.8-216.52,49.64-325.09,74.53l-15.41,0.79  c-25.07,7.13-50.18,14.13-75.54,20.16c-176.14,41.36-352.31,82.76-528.25,124.88c-0.51,0.12,5.69,2.63,7.78-1.02  c5.49-1,11.06,0.11,16.71,3.32c6.58-5.25,13.13-4.78,19.34,0.88c1.94,0.72,4.26-0.08,6.96-2.39c8.39,0.11,15.88,4,22.48,11.66  c5.66-4.19,12.12-4.03,19.37,0.47c14.26-1.53,26.98,1.12,38.15,7.96l2.44,2.81c10.68-0.54,23.25-0.57,29.48,9.42  c10.59-0.27,18.15-3.57,22.69-9.9c6.1-3.06,12.36-1.47,18.77,4.78c7.54-1.38,14.5-0.58,20.86,2.4c8.66-7.02,19.76-3.23,24.91,6.2  c63.48-21.87,126.92-42.4,190.32-61.57c15.44-1.07,29.21-3.47,43.21-10.72c6.61-2.31,15.21-4.21,21.17-0.08  c6.02-3.83,13.05-5.66,21.11-5.48c12.67-7.97,26.25-8.91,36.78,2.77l5.97-3.75c8.81-1.62,17.99-0.58,27.52,3.12  c9.8-4.28,16.22-4.91,23.84,3.8c3.77-0.51,7.35-0.3,10.75,0.64c10.31-12.59,26.99-6.59,39.33-0.64c6.41-2.06,13.16-1.57,20.24,1.48  c9.41-1.33,18.76-0.08,28.06,3.72c9.85-3.05,17.33-1.61,22.43,4.33c8.86,1.85,13.29,2.77,13.29,2.77c7.27-7.03,17.01-4.83,25.7-1.46  c7.66-2.69,13.63-1.93,17.9,2.31c5.73-2.12,9.89,0.13,13.65,4.46l8.15-24.51c1.05-3.17,3.37-2.46,6.08-1l13.87,30.03l13.02-44.44  c4.14-3.82,7.75-1.14,10.83,8.03l6.28,15.92l13.84-48.4c1.91-1.62,3.77-0.99,5.48,0.75l7.68,18.3c1.44-5.54,4.44-9.32,9.01-11.33  l1.13-4c-0.15-7.11,1.64-12.84,5.37-17.2c6.09,3.08,11.21,7.9,15.35,14.44l6.77-22.17l3.12-1.06c2.69-4.76,5.39-2.23,8.1,7.59  v229.18H933.48l-31.6-2.77L213.5,1420.37L2.23,1471.41L0,1469.2v-16.07l1.01-2.98l165.26-37.62L1.15,1383.72L0,1380.8v-12.05  l1.38-2.48l212.87,37.21l329.34-76.44L1.24,1243.08l-1.24-2.9v-9.38c1.27-3.54,5.4-3.73,12.4-0.58c0,0,1.99-1.56,5.96-4.69  c9.64-1.04,19,1.79,28.07,8.5c8.19-1.42,16.58,0.23,21.56,7.41c9.15-8.42,17.44-4.62,24.73,3.77c9.5-5.25,14.8-4.16,23.08,2.74  c6.18-5.96,12.02-5.42,18.59-0.12l5.01-1.18c11.32,1.08,22.3,3.82,32.95,8.21c10.03-0.91,18.57,1.11,25.6,6.05l28.42-0.33  c11.15-5.56,24.93-5.77,33.16,4.78c5.49-1.06,12.12-0.52,16.67,2.82c9.59-7.46,18.73-1.95,26.71,4.9  c10.84-5.99,17.51-5.47,25.79,4.09c6.28,0.6,12.17,2.33,17.67,5.18c6.48-8.56,14.86-11.41,23.27-3.58c2.16-1.99,5.52-1.21,8.1-0.26  c10,7.43,15.97,9.17,28.5,8.08l15.26,3.08c9.29-1.39,16.78,0.59,22.47,5.93c6.43-1.89,13.41-2.76,19.15,1.55  c10.82-6.51,17.77-3.02,26.19,5.29c6.89-0.57,12.89,0.76,17.99,3.97c7.51-6.18,16.41-5.84,23.03,1.43c3.34-1.08,6.7-1.52,10.09-1.31  c15.54,4.31,23.32,6.47,23.32,6.47c2.23,4.08,6.34,6.21,12.32,6.4l295.3-67.29l16.5-1.02l0.34-2.82  c103.19-22.46,206.4-44.93,309.62-67.41L1200,1183.14z" />
<polygon class="cls-4" points="933.48,1542.86 0,1542.86 0,1469.2 213.52,1417.73 " />
<path class="cls-12" d="M496.91,267.38c1.05-3.89,3.89-7.3,8.5-10.22c6.53-7.2,11.61-15.55,15.24-25.07c2.81-4.31,6.92-7.63,11.61-9.58  c26.56-11.08,53.22-21.71,80.22-31.55c-7.66-3.01-15.88-3.92-24.04-4.27c-66.83-3.04-134.18-5.57-202.03-7.59  c-8.74,1.41-17,1.22-24.76-0.58c1.11,1.59,1.22,2.66,0.34,3.23c-1.92-0.98-3.78-1.35-5.58-1.12c-1.19,0.91-2.41,1.77-3.71,2.46  c-1.28,0.68-2.54,1.33-3.87,1.57c-46.84,8.46-94.68,12.43-142.22,8.69c19.98,5.54,40.7,7.8,62.17,6.79l57.93-0.81l1.37,2.74  c4.22-1.01,9.59,10.38,6.54,13.34l-129.74,7.22C135.4,226.5,67.73,218.7,0,207.59v-81.7c50.96-13.03,109.05-20.14,158.08,2.66  c36.57,17,68.83,31.49,110.41,24.78c43.08-6.95,86.16-17.02,127.11-35.5c49.88-22.51,155.1-21.92,190.36,30.38  c37.72-18.19,80.55-25.7,117.6-8.68c11.36,5.22,20.06,15.17,20.69,26.03c2.03,34.78-64.61,52.21-89.9,65.73  c-36.76-11.84-71.55,3.89-93.38,31.99C528.23,274.02,510.97,266.89,496.91,267.38z" />
<path class="cls-16" d="M396.54,639.17c21.67-8.29,43.57-16,65.71-23.12c6.06-2.32,11.06-3.95,10.1,3.16  c-30.67,24.83-16.05,39.43,14.88,49.63l20.79,5.12l2.58,3.63c-8.58,6.31-22.6,6.78-33.51,6.97c-9.84,0.17-40.8-1.96-48.36-6.08  c-4.18-2.28-2.53-4.66,0.6-7.93l14.2-12.01l-1.86-4.53c-9.52,7.82-19.39,15.09-29.63,21.83c-14.95-6.84-31.02-7.28-48.2-1.34  c-7.6-2.8-3.13-5.94,2.86-8.97c14.59-7.19,29.67-13.16,45.23-17.91l-63.7,1.4c-5.02,5.74-14.07,17.67-14.94,26.76  c-0.04,0.41,4.04,6.57,4.41,6.76c10.33-4.15,32.56-3.46,12.61,7.7l3.35,3.85c16.02-1.35,31.95-2.82,47.79-4.4l3.12,1.38  c1.83,8.14,4.42,16.02,5.5,25.8c41.43-8.3,82.41,14.25,92.88,56.49c42.89-26.5,98.73-8.04,117.48,39.29  c22.49-10.47,46.26-7.95,65.26,5.75c8.69-0.55,16.28,0.87,24.77,5c30.17-27.95,71.02-27.82,107.58-12.72l2.09,2.12  c12.31-5.25,16.13-2.46,11.45,8.35c2.85,5.74,8.87,9.09,18.05,10.06c0,0,0.8,1.78,2.4,5.35c6.12-0.64,12.15-1.82,18.09-3.54  c3.42-0.01,19.73,9.65,18.96,14.41l-116.23-2.81c-14.56-0.35-28.2-0.33-41.67,2.09c-5.07,1.1-7.61,1.64-7.61,1.64  c-29.64-6.81-59.52-11.81-89.63-14.98l-21.26-0.03c-23.98-28.27-60.68-41.61-95.96-27.1c-16.76-4.77-34.07-5.76-51.91-2.96  c-18.25-43.11-61.76-59.16-105.97-51.06c-8.08-14.21-18.13-24.66-34.63-28.21c-20.4-47.18-70.54-61.46-117.14-46.26  c-3.58,1.13-4.54-1.2-5.54-4.57c-9.32-42.53-52.46-53.47-90.36-42.62c-13.97-32.17-44.88-45.43-78.69-40  c-9.35-8.67-19.57-15.22-30.65-19.65L0,567.86v-105.8c29.01,5.59,54.55,23.33,77.56,44.47c51.38-14.08,102.94,23.14,108.11,77.18  c21.57-13.75,47.77-15.95,72.46-7.1c28.86,10.35,49.93,32.93,60.99,62.58C358.55,633.66,348.6,648.44,396.54,639.17z" />
<polygon class="cls-9" points="0,1368.75 0,1240.18 557.99,1326.45 214.25,1406.12 " />
<path class="cls-2" d="M666.84,1165.07c52.28-2.92,106.1,2.69,157.21,14c21.91,11.13,43.52,14.52,68.06,16.99l2.51,3.38l-0.37,2.81  l-145.82,30.26l138.09,15.73l1.33,2.85l-311.47,71.13l-12.32-2.72c-1.47-8.83-9.21-4.92-13.45-6.78  c-6.48-2.83-13.06-5.88-20.17-1.24c-3.63-2.92-7.02-7.06-11.5-6.77c-4.66,0.3-8.11,1.42-12.16,6.01  c-4.64-8.22-12.36-3.83-18.41-5.76c-3.91-1.25-7.04-7.1-10.27-7.95c-5.81-1.53-10.51,0.26-14.89,3.84  c-5.59-6.01-14.17-4.45-20.18-1.71c-5.41-10.31-17.68-5.1-24.28-7.27c-8.61-2.83-16.52-3.2-26.54-2.59  c-6.08,0.37-15.2-12.77-22.45-7.96c-3.95-1.31-8.57-6.53-13.28-3.99c-3.3,1.78-6.64,4.04-9.98,9.67c-5.32-6.97-12.84-5.29-19-7.44  c-3.82-2.32-6.3-7.23-10.85-7.88c-5.58-0.8-9.38,3.8-14.13,3.97c-9.82-5.15-11.91-12.95-26.2-4.96c-5.22-2.6-11.85-4.32-17.81-2.23  c-8.17-11.67-20.71-10.3-31.54-5.28c-8.82,0.48-21.93,0.67-29.99,0.14c-7.86-7.52-16.65-4.34-25.25-5.84  c-1.42-0.25-35.85-13.87-37.57-5.34c-2.9-4.22-5.93-5.08-8.87-5.88c-3.72-1.02-6.96,4.51-9.73,4.46c-4.12-1.44-6.96-5.43-10.75-6.3  c-4.59-1.05-8.84,3.71-12.78,3.71c-4.18-3.21-7.05-7.91-11.66-8.63c-5.16-0.8-8.26,1.8-13.21,6.24c-4.9-10.23-12.82-9.8-21.25-9.12  c-13.78-6.37-23.7-15.81-32.52-3.27c-4.56-0.57-8.96-3.88-13.4-2.53v-14.73c3.28-1.02,6.58-1.98,9.92-2.76  c3.32-0.78,6.65-1.52,10-1.89c84.1-9.44,168.25-18.58,252.4-27.58c40.33-3.9,80.71-7.41,121.17-9.56c3.35-0.18,6.74,0.08,10.14,0.36  c3.4,0.28,6.79,0.76,10.18,1.3l0.81-2.72c66.66-3.02,133.49-6.04,200.5-9.08l17.29,1.9c-1.2-4.03,17.1-3.07,17.99-2.64  c0.97,0.46,1.44,1.64,1.82,2.68l13.56-2.28L666.84,1165.07z" />
<path class="cls-7" d="M199.46,717.83c7.93,3.89,11.89,5.84,11.89,5.84c27.46,6,55.82,13.17,82.53,22.91l6.19,4.76l2.74-1.96  c19.37,4.87,40.74,11.23,42.74,34.71c12.5-2.33,24.81-1.7,36.74,3.52c27.86,16.18,56.58,20.57,88.57,23.6  c16.58,3.01,34.93,7.64,46.81,19.89c13.72-13.29,33.25-11.11,50.49-6.66c67.22,24.81,139.41,31.52,210.95,37.25  c0,0,2.84,1.16,8.51,3.49l-235.51,0.33c-0.14,0.55-0.32,1.01-0.61,1.1c-2.44,0.8-2.74-1.21-0.3-0.03c0.43,0.21,0.74,0.69,1,1.24  c18.07,2.8,35.68,5.69,54.75,10.5l-340.4-0.91l-4.82-0.35c-27.33-16.79-54.23-34.21-80.71-52.23c-6.59-4.12-10.33-9.01-11.22-14.68  l3.92-2.38c21.67,4.42,42.17,12.68,61.5,24.79c36.37-4.49,72.44,5.95,106.38,18.1c32.61-7.86,66.55-8.03,99.75-4.34  c-30.67-8.93-62.97-12.31-94.68-7.43c-30.77-16.99-64.22-28.57-99.6-21.75c-32.66-37.58-82.05-49.99-128.88-33.38  c-28.58-33.34-69.48-49.84-113.1-47.45L0,733.93v-76.34c1.29-1,2.74-2.11,4.34-2.09c13.95,0.18,35.89,13.42,44.51,24.21  c49.76-19.22,106.54,0.68,141.94,38.79C194.6,716.35,197.49,716.13,199.46,717.83z" />
<path class="cls-7" d="M1200,576.31v180.55l-214.84,11.48l101.33-30.73c16.34-4.96,34.64-0.06,48.36-13.89  c-20.55-13.95-44.84-21.02-69.88-17.2c-26.6,4.05-48.21-2.23-74.04-6.88c-29.65-5.34-60.56,4.63-89.63,11.36  c-96.51,22.35-195.71,27.94-293.59,32.09c30.86-6.73,60.02-9.21,89.21-19.1c32.75-11.1,59.89-31.25,90.52-45.18  c0.72-1.69,1.7-3.42,3.42-4.16c31.47-13.53,69.59-15.99,100.66-0.52c38.36-35.17,96.3-62.72,146.66-35.74  c7.1-6.16,15.27-11.12,24.5-14.89c36.44-36.45,81.67-49.66,132.29-49.65L1200,576.31z" />
<path class="cls-3" d="M1200,195.65v146.91c-54.5-7.35-108.29,0.23-162.12,13.22c-29.63,7.15-58.99,7.84-89.33,13.03l-227.3,38.82  c25.65-8.04,51.39-13.31,76.87-19.89c16.89-4.36,25.39-14.94,39.64-22.23c18.98-9.7,42.11-11.33,62.14-15.95  c7.42-3.91,15.89-6.01,25.42-6.3c10.24-1.74,20.53-3.72,30.42-6.97c5.7-1.87,18.5-6.45,19.17-13.29c0.32-3.28-4.84-6.38-7.75-7.05  c-41.5-9.63-84.98-4.19-125.53,7.33l-15.32,2.39c-29.42,10.28-60.97,11.24-92.21,13.52l-62.23,4.53c0.93-3.92,4.05-1.69,5.82-2.19  c35.89-7.26,71.58-15.35,107.08-24.26c33.22-10.54,49.83-15.8,49.83-15.8c24.91-19.28,54.67-30.96,85.32-37.37l56.28-11.24  c76.06-18.47,149.9-38.25,221.53-59.33L1200,195.65z" />
<path class="cls-13" d="M731.18,846.73c18.13,7.57,38.61,7.12,59.07,12.29c8.05,2.03,15.98,6.22,26.08,5.74  c-10.18,2.34-19.27,0.42-28.73,0.43c-65.62-6.29-132.58-9.7-196.51-30.39c-24.45-7.92-49.13-19.98-73.57-1.39  c-28.22-23.81-64.85-19.36-97.78-26.99c-24.26-5.62-46.57-29.36-76.53-18.04c-1.33-28.6-22.82-30.68-43.15-37.05l-4.48-3.26  c-19.6-30.17-58.59-42.64-91.99-29.16l-4.13-1.1l-9.02,4.24c-35.84-39.58-91.14-58.35-142.1-40c-13.6-14.1-30-22.33-48.34-24.48  v-89.73c12.83,1.98,22.7,11.9,33.09,20.28c34-5.65,66.92,8.01,79,40.45c13.45-4.69,26.07-5.35,39.45-3.7  c27.47,3.38,48.54,22.82,53.26,51.04c49.95-16.35,99.49-2.55,121.06,46.23c16.07,3.01,27.53,13.66,33.94,27.99  c44.25-9.4,89.67,8.52,106.18,51.17c17.77-2.97,34.28-3.61,50.7,2.38c35.13-14.52,72.83-1.91,96.94,27.35  C659.19,827.94,689.73,841.5,731.18,846.73z" />
<path class="cls-12" d="M1200,127.14v68.51l-113.96,32.22c-52.22,14.76-103.51,27.39-156.75,37.1c-34.62,6.31-65.94,17.73-93.5,38.86  c-51.96,18.38-104.51,31.37-158.11,37.69c22.88-10.66,49.81-11.62,72.31-26.73c23.68-15.91,47.07-30.03,73.76-40.41  c24.37-9.48,47.35-17.39,69.4-33.34c-49.16,20.7-97.82,13.43-145.7,17.56c39.36-10.39,80.04-15.75,118.76-31.54  c33.95-13.85,67.05-24.45,102.09-35.6c30.07-9.57,57.66-21.61,88.65-29.22L1200,127.14z" />
<path class="cls-10" d="M1028.59,1062.17l10.58-1.32c53.17,0.49,106.25,0.98,159.24,1.47l1.59,2.71v25.31l-0.96,2.67  c-53.14-0.61-106.29-1.21-159.45-1.82l-1.61-2.7l-19.61,2.08c-0.42-0.68-0.84-1.21-1.28-1.23c-8.06-0.29-17.14,0.81-3.56,1.21  c2.62,0.15,2.73,1.23,0.31,2.31c-46.1,5.41-91.61,13.59-136.54,24.55c-10.1,1.62-20.08,1.97-29.95,1.07  c-69.43-3.43-138.87-6.17-208.34-8.21l-4.6,2.89c-25.46,4.15-50.86,8.74-76.21,13.75l-5.04-2.06c-2.2,3.48-9.78-3.01-7.84-6.49  c-6.13-5.71-12.45-11.17-18.95-16.38l-1.17-3.83l0.72-2.74l131.4-10.14l-96.24-5.3l-1.48-2.76c-0.25-1.94,0.1-3.18,1.94-3.37  c-5.07-2.53-6.85-5.75-5.32-9.67c3.98,1.74,12.63,2.44,16.82,1.43c0.32-0.08,0.48-0.78,0.61-1.67l17.38-3.42l1.98,2.61  c9.81-1.92,20.3-2.82,31.45-2.72l402.49-0.91L1028.59,1062.17z" />
<path class="cls-15" d="M838.39,934.71l9.5-3.51c5.84-4.03,8.13-1.05,6.88,8.93l3.61,2.5c5.96,0.9,9.52,3.21,10.68,6.93  c15.09-0.44,32.59-9.27,45.34-16.98l5.47-0.45c-0.05,2.24,1.18,3.8,4.47,3.88l275.67,6.24v59.23c-5.11,1.11-10.3,2.22-15.55,2.17  c-80.14-2.57-160.49-2.62-240.4,5.05c-52.38-3.87-104.79-6.68-157.23-8.46l-8.7-1.83c-0.23-1.35-0.46-2.87,0.22-4.03  c4.43-7.51,23.71-13.81,32.55-13.76c12.46,0.47,24.74-0.41,36.84-2.65c-5.92-2.64-7.69-5.32-5.32-8.03l0.91-2.69l136.2-1.31  c-70.46-2.87-140.95-4.61-211.46-5.23l-12.59-1.67c-4.48-1.61-3.03-9.07-1.33-12.79c-6.16-3.26-12.61-5.69-19.35-7.28l-2.22-3.12  c-3.32,2.29-11.4-0.97-12-5.02C759.5,930.19,799.14,935.42,838.39,934.71z" />
<path class="cls-8" d="M1200,1131.35v9.94l-0.46,2.6c-100.85,19.46-201.78,38.75-302.79,57.87l-2.13-2.32  c-14.74-4.04-32.54-2.79-47.5-7.88c-8.7-2.96-15.16-7.84-25.1-10.25c-51.51-12.5-103.14-13.34-155.18-16.24l-0.07-1.36  c0,0,60.77-13.96,182.3-41.89c0.2-0.78,0.43-1.41,0.78-1.48c8.43-1.84,20.54-2.94,29.2-2.61c0.39,0.02,0.76,0.71,1.12,1.6  l318.95,10.5L1200,1131.35z" />
<path class="cls-9" d="M1200,1313.68c-4.41-1.4-3.27-8.98-8.1-7.59l-1.6,2.5c0,0-110.17-13.44-330.5-40.31l-1.33-2.86l341.52-78.3  V1313.68z" />
<polygon class="cls-6" points="1200,1141.29 1200,1183.14 887.85,1251.09 731.4,1233.27 894.62,1199.44 " />
<path class="cls-7" d="M141.93,803.36c6.27,4.9,11.94,10.48,16.99,16.75c-1.31,4.92-5.85,5.2-13.61,0.86  c4.47,3.5,10.25,8.46,2.17,10.56c12.79,12.2,23.97,26.11,33.55,41.74l-0.11,4.06l-1.2,2.69l-75.04,0.93  c25.25,16.17,55.85,19.99,85.26,19.33l4.32,2.56c4.23-1.27,9.84,7.46,5.49,10.24l-0.93,2.68c-65.71,0.1-131.43,0.2-197.17,0.31  L0,913.39V782.14c0.6-0.81,1.23-1.58,1.97-2.21c0.7-0.59,1.39-1.12,2.15-1.28c31.52-6.64,69.33,5.45,94.66,24.42  c13.84-2.97,27.53-3.53,41.08-1.69L141.93,803.36z" />
<path class="cls-2" d="M320.83,1108.33c5.92-3.04,8.36-2.38,7.3,1.96l-0.86,2.7l-163.21,4.6l199.19,41.91l1.05,2.96l-1.08,2.76  c-120.43,8.43-240.89,16.85-361.36,25.28L0,1187.95v-70.98l0.87-2.7l252.71-6.8C276.65,1105.61,299.07,1105.9,320.83,1108.33z" />
<path class="cls-16" d="M1200,517.13v16.5l-4.45,2.19c-60.8-4.13-126.32,20.43-161.94,71.52C979,592.65,916,605.09,885.73,656.74  c-33.24-12.59-66.26-5.2-93.31,17.08l-4.76,0.39c-32.49-8.11-85.71,26.55-98.16,27.95l-142.04,15.99  c45.25-12.53,91.89-27.6,139-23.43c15.45-36.07,58.47-46.43,94.98-33.82c18.99-29.91,57.88-33.05,90.02-27.5  c20.87-54.23,89.2-64.98,135.94-47.05C1023.52,511.25,1140.3,493.93,1200,517.13z" />
<path class="cls-13" d="M1200,533.64v42.68c-60.71,2.63-89.36,7.82-133.83,47.83c-7.79,7.01-21.53,7.77-27.43,18.2  c-49.24-30.05-107.71,0.23-146.95,34.18c-32.94-15.21-71.16-12.81-104.36,2.29l0.23-4.61c28.37-23.36,61.42-34.73,97.31-19.57  c26.92-51.57,96.99-65.57,147.8-49.46C1063.88,554.1,1143.3,526.26,1200,533.64z" />
<path class="cls-14" d="M199.75,913.08c1.64,0.1,3.46,0.24,4.7,1.33c4.73,4.17,21.39,31.38,21.76,36.91  c0.23,3.41-18.65,9.48-22.43,10.44l-0.47,1.78c-4.63,1.31-9.39,2.24-14.29,2.8c-1.61,2.12-4.79,3.46-9.54,4.03  c-2.03,3.77-4.44,6.2-7.21,7.31l-0.96,2.67c-56.55-0.44-113.11-0.88-169.68-1.32L0,976.34v-62.95L199.75,913.08z" />
<path class="cls-11" d="M1200,1001.47V1022l-6.36,1.54c-177.66,1.76-355.03,2.36-533.04,2.35l-1.67-2.68  c-26.68,2.17-53.54,2.36-80.6,0.57c-6.89,0.85-12.57-0.19-17.06-3.13c-3.34,4.76-16.31,0.3-19.01-4.24l-2.4,2.28  c-11.05-0.55-20.76-3.71-29.14-9.49l0.63-3.25c2.15-0.75,4.31-1.44,6.51-1.96c2.17-0.51,4.34-0.98,6.52-1.1  c54.29-2.93,108.67-5.44,163.04-6.52c5.28,0.44,8.11,1.81,6.04,4.78l-17.17,2.1c0.01,2.83-0.9,5.82-2.72,8.95  c3.7,3.43,7.73,4.64,12.09,3.63l14.66-3.34c3.93,2.52,8.5,3.82,13.71,3.88c21.03-1.28,41.12-7.66,60.28-19.14l3.83,1.16  c55.21,0.12,110.19,3.34,165.91,7.61C1030.01,997.7,1114.94,998.54,1200,1001.47z" />
<path class="cls-12" d="M169.78,810.16c-3.13,0.55-6.25-1.15-9.36-5.08c-4.45,8.41-13.07,4.25-18.5-1.72  c-14.56-1.49-28.76,0.33-43.77,2.19c-29.23-21.03-64-30.48-98.16-23.41v-48.21c45.5-3.18,89.07,11.15,118.81,47.58  c46.81-17.89,97.85-3.77,129.03,33.34c34.25-7.53,67.84,4.02,99.23,21.5c40.77-6.73,82.38,1.26,122.17,16.65  c-43.8-7.48-85.96-9.42-127.77,0.28c-35.14-12.1-69.84-22.53-106.68-18.13C214.21,825.07,192.88,811.34,169.78,810.16z" />
<path class="cls-4" d="M413.8,1175.94c-137.77,6.24-275.85,26.92-413.8,40.13v-28.12l364.29-25.49c0.98-0.49,1.97-0.93,3-1.19  c5.25-1.36,41.03,8.08,44.64,12.01C412.66,1174.07,413.25,1174.99,413.8,1175.94z" />
<path class="cls-2" d="M1016.99,1092.66l-3.15,0.2l-0.31-2.31C1016.32,1087.33,1024.66,1090.82,1016.99,1092.66z" />
<path class="cls-2" d="M1200,1090.34v38.02l-0.28,1.49l-319.59-10.68c-2.04-2.44-1.02-3.2,3.12-3.86  c44.08-10.32,88.92-16.71,133.74-22.64l1.34-1.89l19.65-2.28L1200,1090.34z" />
<path class="cls-6" d="M376.47,1032.88l5.79-1.89c46.55,0.6,93.04-0.34,139.48-2.83l5.92,1.33c1.66-5.16,11-0.65,10.73,4.5  c3.4,0.5,5.23,1.92,5.49,4.23l-0.87,2.7c-59.11,1.51-118.32,3.01-177.61,4.53l-8.88-2.45c2.43,2.51,1,5-2.01,5.89  c-0.3,4.53-3.48,4.18-9.53-1.07c-78.38-2.65-156.78-3.25-235.21-1.81l27.8,2.52l197.16,5.42l1.56,2.72c2.47,1.49,1.5,2.16-1.06,2.7  l-13.37,1.76c-102.37,1.58-204.74,3.23-307.12,4.96c-0.92,4.23-13.46,4.02-14.73-0.02v-26.79l0.94-2.68  c79.88,0.84,160.4,0.61,241.56-0.69c34.85-2.74,69.65-3.98,104.42-3.7c-1.51-7.83,0.05-11.43,4.68-10.8  c5.34,9.92,6.92,11.46,4.74,4.6c1.8-4.51,5.3-3.85,10.51,1.99C370.06,1029.57,373.27,1031.19,376.47,1032.88z" />
<polygon class="cls-10" points="0,1453.12 0,1380.8 180.07,1412.22 " />
<path class="cls-6" d="M225.24,1087.44c12.55,2.68,25.22,4.69,38.01,6.02l1.93,3.07c18.72,1.46,37.34,3.89,55.87,7.31  c6.21,2.54,5.16,4.26-0.22,4.48L0,1116.96v-22.77l0.86-2.7l223.4-5.34L225.24,1087.44z" />
<path class="cls-15" d="M172.26,977.68c1.4-0.5,2.59,0.2,3.54,2.1c6.79-1.23,9.6,0.56,8.4,5.36c8.11-0.36,16.24-1.39,24.38-3.11  c23.49,3.67,47.31,4.19,70.01-4.21c13.89,3.76,25.64,11.8,35.27,24.11l-0.31,3.54c-12.3,0.84-24.63,1.48-36.97,1.19  c-79.93-1.88-159.76-3.54-239.7-4.87c-12.34-0.2-24.63-1.36-36.89-2.69v-22.77L172.26,977.68z" />
<path class="cls-11" d="M313.55,1005.47c4-5.42,16.83,5.78,15.97,11.42c-1.36,0.8-2.73,1.54-4.18,2.1c-1.42,0.55-2.83,1.04-4.27,1.17  c-11.88,1.08-38.63,3.38-48.51,0.48c-1.52-0.45-2.99-1.08-4.44-1.76l-1.64,1.79c-88.18,1.62-176.46,2.47-264.83,2.52L0,1020.54  v-21.43C104.53,998.86,209.11,1001,313.55,1005.47z" />
<path class="cls-6" d="M1200,1032.82v13.02c-3.59,1.9-5.39,2.85-5.39,2.85c-22.66-0.82-45.28-0.63-67.87,0.59l-5.68-1.96l-32.53,1.91  c-119.5-1.45-238.99-1.64-358.48-0.58l-16.32-1.57c-2.58-0.49-2.54-1.58,0-2.32c4.24-1.03,8.5-2,12.79-2.77  c4.28-0.77,8.56-1.51,12.86-1.83c43.15-3.22,86.39-5.25,129.63-6.6c111.34-3.47,222.26-4.05,329.33-3.42L1200,1032.82z" />
<path class="cls-3" d="M1200,1022v4.7l-1.24,2.7c-161.11,1.62-322.25,3.74-483.4,6.36l-1.7-2.66c0.24,1.57-1,2.16-2.41,2.6l-29.83,0.1  c-8.85,1.11-16.8,0.23-23.85-2.66c-1.67,3.78-12.46,3.96-14.96,0.97c-6.54,0.43-13.02-0.15-19.42-1.74l-1.75-2.69l2.98-2.67  l34.52-3.8l373.93-0.66l78.39-1.66C1141.42,1020.26,1170.58,1020.83,1200,1022z" />
<path class="cls-2" d="M14.73,1066.09c73.46-2.03,147.24,0.47,222.88,10.68c2.01,0.27,3.98,0.97,5.96,1.68c2,0.72,3.93,1.62,5.84,2.58  c-0.7,1.49-1.73,3.08-3.28,3.24c-9.02,0.96-17.85,1.61-26.91,2.07L1.7,1091.48l-1.7-2.64v-22.77L14.73,1066.09z" />
<path class="cls-9" d="M252.78,1028.41l4.37-1.54c25.91-0.64,52.21-0.25,78.2,0.61c3.05,0.1,5.95,1.28,8.74,2.43  c2.51-3.33,4.85-1.29,2.83,2.3c-51.87,3.1-103.92,7.74-157.23,7.59L0,1039.29v-12.05l0.95-2.67c83.39,0.39,166.79,0.78,250.21,1.17  L252.78,1028.41z" />
<path class="cls-10" d="M1200,1026.7v6.12l-187.58,0.62c-100.26,0.33-199.66,3.52-298.69,11.33c-2.5,3.29-8.96,3.95-10.88-0.25  l-0.97-3.29l11.77-8.12L1200,1026.7z" />
<path class="cls-1" d="M1037.98,1088.49c-6.35,2.21-14.01,3.73-20.99,4.17c1.31-0.35,0.9-2.72,0.04-2.57  c-1.36,0.23-2.62,0.45-3.5,0.46c-67.2,1.29-135.02,2.47-201.98-1.1L1037.98,1088.49z" />
<path class="cls-1" d="M1013.84,1092.86l3.15-0.2c-44.97,9.54-91.08,12.96-137.45,25.53l320.46,10.17v2.99l-336.21-11.47  l-196.95,45.19c-4.83-0.27-9.78,1.02-14.61,1.01l9.84-4.39c54.5-15.24,109.53-28.49,165.07-39.76l-186.62-8.91l-1.52-2.75  c75.82-1.89,152.29,6.86,227.81,6.6C916.56,1106.44,965.03,1095.92,1013.84,1092.86z" />
<path class="cls-16" d="M221.17,266.84l-10.18,4.05c-33.34,7.44-66.61,15.36-99,26.35L1.72,301.28L0,298.66v-21.43  c13.69-0.96,27.78,0.33,41.6,3.64c34.96,8.36,67.69,1.41,101.48-7.53c37.53-9.92,75.72-9.45,114.08-15.03  C245.42,262.77,233.14,264.28,221.17,266.84z" />
<path class="cls-15" d="M221.17,266.84c-9.92,10.54-28.47,7.48-41.61,15.85c-16.28,10.37-32.34,15.73-51.65,16.86  C84.31,302.1,42.03,310.67,0,320.09v-21.43l111.4-4.01C147.77,282.38,184.05,273.62,221.17,266.84z" />
<path class="cls-3" d="M268.13,1018.89c3.09,5.49-0.74,8.21-11.49,8.16l-3.86,1.37L0,1027.23v-6.7L268.13,1018.89z" />
<path class="cls-9" d="M1200,1045.85v11.44c-1.69,0.69-3.39,1.32-5.14,1.78c-1.72,0.45-3.42,0.85-5.14,0.92  c-42.71,1.72-85.96,2.54-128.69,1.44c-7.16,0.53-13.96-0.15-20.41-2.05c-0.04-1.06,0.09-2.68,0.82-2.83  c25.62-5.34,53.5-7.59,79.61-9.22C1147.03,1043.43,1173.7,1046.95,1200,1045.85z" />
<path class="cls-1" d="M294.64,1080.8c-0.96,0.89-1.94,1.73-3.03,2.4c-1.08,0.67-2.12,1.29-3.23,1.48  c-20.26,3.43-43.08,6.72-63.15,2.75L0,1094.2v-5.36l195.38-3.4c19-0.33,37.66,0.37,54.03-4.4l4.35-2.21  c12.2,0.56,24.4,0.37,36.61-0.58L294.64,1080.8z" />
<path class="cls-6" d="M1200,1057.29v7.74l-171.41-2.86c-0.9-4.92,10.7-7.66,12.04-2.79  C1093.31,1062.33,1146.79,1057.05,1200,1057.29z" />
<path class="cls-1" d="M361.64,178.51c3.66,1.57,6.55,4.78,8.66,9.61l7.71,10.11l-0.1,4.16c4.33,0.57,9.77,5.57,6.56,9.41l5.99,4.26  c16.09,23.83,35.54,45.25,57.07,64.27l3.41,6.5c3.3,4.15,8.96,9.41,12.75,13.54c9.87,10.75,20.67,20.28,32.21,30.77  c26.24,23.87,47.88,52.89,73.02,78.87c3.75,18.92,5.17,36,9.58,53.34c4.12,0.27,5.22,6.37,1.69,8.3c4.11-0.45,6.16,8.62,2.57,10.43  c5.94,24.06,15.07,47.57,28.19,68.96c75.37,18.63,54.33,17.02,125.5,7.53c33.35-4.45,62.9-11.22,93.06-23.84  c18.06-7.55,36.8,1.59,46.31,14.69c11.55,6.99,23.58,5.4,33.52,14.16c-55.91,6.35-32.96,14.97-92.61,12.4  c-119.25-5.15-128.6,48.53-224.53,92.29c-53.13,24.24-109.64,31.33-166.57,17.31c-7.14,1.34-14.29,4.61-21.06,5.51  c-18.21,2.42-35.85,5.61-53.95,5.7c0.44-5.7-6.69-5.2-3.63-7.72c3.19-2.63,5.51-3.42,10.26-5.4c-6.18-2.41-12.9,0.43-20.47,1.68  c-2.39-2.18-3.54-6.08-5.97-9.16c2.15-11.34,8.28-20.96,15.76-29.79l80-1.76c-22.87,10.23-45.56,13.99-65.81,27.71  c19.15-3.26,34.85-9.51,51.27,1.15l30.24-23.31c2.48,2.73,3.39,6.29,4.43,9.56c-6.45,5.31-12.42,9.48-18.98,16.1  c26.99,5.62,54.33,9.7,81.79,1.18c-17.07-3.65-63.35-12.41-55.95-39.04c2.69-9.67,11.73-14.6,18.16-22.07  c-26.2,7.78-49.81,18.35-75.18,23.26c17.01-11.11,35.69-19.01,54.8-29.18c-5.11-1.41-5.95-7.66-9.35-10.76  c1.07-3.92,3-7.86,5.79-11.84c-3.52-3.54-4.85-8.44-3.98-14.7c-14.06-30.53-25.88-61.85-35.47-93.95l1.3-4.52l-9.64-39.65  c-7.3-30.04-1.71-15.04-13.27-44.92c-12.14-14.54-41.72-67.62-46.29-83.5c-2.07-7.17-16.69-13.52-5-20.95  c-9.07-9.1-16.64-18.37-24.75-30.06c13.2,1.23,24.32,8.73,38,11.28c-16.62-13.99-31.3-27.32-39-45.82  c24.85,10.94,43.9,26.12,66.92,37.79c-15.43-13.83-33.25-25.12-42.01-42.98l-6.54-13.34c-4.28,1.17-5.19-10.89-3-12.18  c2.14-1.26,14.33,7.83,15.52,9.9c0.77,1.34,0.85,2.1-0.35,3.66c4.46-0.11,13.68,6.76,12.11,11.26c7.61,3.74,14.48,9.25,20.62,16.52  c10.98,10.9,10.9,9.63-0.23-3.8c-5.29-5.53-7.71-11.17-7.26-16.9c-4.17,0.96-7.86-7.38-4-9.56c-3.19-0.88-4.99-4.36-5.37-10.45  c-2.12-4.54-2.02-7.83,0.29-9.89l0.38-5.81C357.11,169.66,365.83,187.81,361.64,178.51z" />
<path class="cls-15" d="M654.2,924.44l3.59-0.1c10.9,8.43,19.47,18.34,25.72,29.73l-1.73,3.26l-5.33,1.72  c-25.99,0.63-52.01,1.48-78.03,2.55c27.32,2.56,54.65,3.28,81.99,2.17l6.94,2.07l3.87,0.2c7.12,5.51,14.62,17.84,17.48,26.38  c7.95-1.08,6.69,3.83,2.61,8.95c2.36,5.07,7.58,7.99,15.66,8.74c2.59,1.98,4.09,3.69,1.26,5.5c-4.34,2.78-25.57,0.45-29.73-3.87  c-5.72,1.53-19.09,2.07-14-5.97c-4.38,1.06-7.11,0.22-8.21-2.52l17.85-4.22c-62.78-0.04-121.38,5.4-182.79,6.92  c-2.34,3.04-13.76,3.74-15.91-0.02l-0.89,2.69c-41.08,0.4-82.17,0.81-123.28,1.21l-2.52-2.65c-5.11-2.57-8.96-7.29-11.55-14.19  c-3.67-4.84-4.85-9.46-3.53-13.89l0.94-2.68l98.92,0.31l-103.25-9.39l-2.28-2.9l-4.09,1.17c-3.41-0.86-20.39-7.73-20.78-9.47  c-1.2-5.37,16.29-10.94,20.64-12.09c24.57-2.31,48.85-5.35,72.85-9.11l7.92,1.43l126.07,3.65l-128.95-17.1  C500.05,916.28,578.36,926.71,654.2,924.44z" />
<path class="cls-1" d="M791.61,752.59c6.51,2.02,13.09,4.14,19.73,6.36l0.21,3.06c17.55,9.14,39.79,4.76,57.78,14.22  c42.77,22.51,67.32,17.93,115.27,3.59l26.18,12.41c-35.81,15.74-64.27-6.8-94.89,23.5c5.68-0.88,12.41,3.64,16.87,7.2  c7.3,5.84,8.29,7.91,9.77,17.1c3.05,3.96,4.1,7.44,3.16,10.45c5.11,6.85,4.51,17.34,15.05,22.01c-5.55,0.91-9.19-1.92-13.74-4.39  c-0.33,4.95,2.95,5.87,4.79,8.63c-5.64,0.22-9.93-2.91-12.34-7.86c-2.3,5.13-0.41,9.41,0.14,13.39c-6.5-1.54-5.67-13-10.41-7.1  c-12.64-7.98-26.15-19.09-40.09-27.73c-5.93-3.68-11.41-8.71-19.05-11.85c-17.27,5.81-34.09,4.25-51.95,1.87  c-9.97-1.33-22.74,6.19-29.75,0.96c2.21-8.5-7.36-0.21-7.89-4.94c-0.33-2.96,1.98-10.02,4.86-10.99  c10.02-3.39,21.28-0.22,31.75-1.14c-7.18,4.55-14.85,3.34-21.59,8.76c5.85-0.28,11.48-1.6,17.07,1.68c4.21-2.59,6.6-6.37,11.45-8.53  c3.25,4.41-1.9,5.3-5.27,9.65c10.07,3.47,21.23,4.7,31.89,1.43c-7.12-2.29-14.58-2.89-19.92-8.21c-3.83-3.82-0.59-8.66,0.81-13.67  c-7.44,0.22-11.49,4.32-18.17,3.6c2.2-1.85,4.18-3.34,4.73-5.35c2.13-0.14,4.57-0.22,7.54-1.36c4.08-1.57-4.56-8.29-4.39-8.16  c-4.22-6.37-8.76-12.49-13.63-18.36c-8.73-2.27-17.38-4.67-25.55-8.67l-14.54-6.02c-3.82-1.45-8.67-4.44-5.49-8.64  c2.62-0.29,5.19,2.05,8.04-0.42c-5.64-1.11-9.33-1.59-9.79-7.17c8.06,1.95,13.58,6.62,20.94,6.7c-7.89-6.26-16.23-9.86-17.51-19.32  c6.85,8.54,15.97,15.73,26.52,17.33c-6.28-6.59-14.07-11.17-11.88-21.16C780.88,744.15,787.84,747.5,791.61,752.59z" />
<path class="cls-1" d="M720.57,930.81c4.08,1.15,8.57,2.82,12,5.02c2.74,3.91,5.68,7.78,8.8,11.62c4.59,10.79,9.81,18.35,18.34,26.14  c1.3-0.81,2.75-1.38,4.27-1.11c20.91,3.77,36.89,3.84,58.06-0.25c0.59-3.19,3.35-4.74,8.26-4.66c5.7-1.33,9.73-0.55,12.1,2.35  c2.55,4.85,8.08,6.08,13.83,7.54c-26.56,13.35-53.3-5.47-78.11,20.92c-24.54,11.38-49.45,27.02-78.03,16.69  c-6.86,1.47-15.83,5.12-22.52,3.2c-2.7-3.73-8.03-3.14-6.36-7.43c1.14-2.94,2.2-6.94,5.07-7.62c6.76,0.51,13.53-1.56,20.24,0.3  l-12.6,5.38c10.28,1.71,14.94,2.24,20.54-5.69c3.43,4.33-1.02,4.94-3.71,8.65c9.48,3.2,18.9,3.54,27.99,1.33  c-7.97-1.72-21.47-4.31-20.02-12.44c0.35-1.96,2.35-3.93,4.46-6.33c-7.64,0.33-12.38,5.33-19.8,4.48c4.02-2.73,9.31-3.13,12.58-7.17  c-4.03-10.45-11.64-18.55-18.61-25.93c-4.03-0.01-6.34-4.93-5.56-8.51c-4.14-14.18-17.74-22.13-27.58-32.89  c-3.82-4.18-5.26-9.16-9.78-12.52c13.2,0.13-1.34-2.16-3.45-7.51l11.2,2.03c-2.69-3.74-6.88-5.33-7.65-9.73  c4.69,1.61,6.83,5.8,12.52,6.4c-0.42-4.71-5.91-6.16-4.26-11.27C670.94,911.54,695.39,923.7,720.57,930.81z" />
<path class="cls-16" d="M944.2,435.14l-14.12,3.12c-45.58,4.95-90.97,10.46-136.16,16.52c-15.38,6.67-23.07,10.01-23.07,10.01  c-24.89-5.36-50.44-8.55-75.78-4.89c-35.2,6.64-72.04,11.63-107.87,13.53c-2.44,0.13-4.8-0.85-7-1.77c-0.64-2.57-1.04-5.73-1.69-8.3  c25.87-3.72,51.51-6.33,78.67-8.36c25.03-18.85,55.88-20.85,85.7-8.51c37.08-25.75,89.27-21.31,132.38-11.39  c21.11-4.38,41.7-6.27,63.7-6.89l105.87-3.01L944.2,435.14z" />
<path class="cls-1" d="M844.83,896.22c0.29,2.82,2.09,4.47,5.4,4.95c16.08,2.59,32.09,5.27,48.11,8.94l3,3.43  c22.24,5.66,45.41,1.28,68.32-7.09l17.63,9.73c-31.15,13.81-34.68-6.91-67.43,15.94c-24.65,17.19-51.05,24.09-80.35,19.33  c-7.02-1.14-22.86,7.43-23.19-6.15c-0.21-8.5,14.49-6.89,22.77-6.07c-3.22,3.08-7.33,3.07-11.94,5.52  c9.81,0.97,15.09,2.22,20.61-4.98c3.17,4.15-0.69,4.16-3,7.77c7.64,1.97,15.86,3.65,22.83,0.58c-6.23-1.75-10.36-2.35-13.79-5.18  c-3.58-2.96-1.47-6.59-0.84-11.45c-6.39,2.16-10.04,3.12-14.57,3.2l10.67-6.29c-25.7-32.62-60.48-27.97-64.56-43.6  c-0.32-1.25,3.1,1.42,5.35,0.23c3.9-2.84,13.75,1.26,20.69,4.02C821.35,894.67,833.49,893.86,844.83,896.22z" />
<path class="cls-16" d="M945.69,850.5c-16.2-21.72,6.38-14.07-29.79-34.75c28.67-12.29,62.31-2.31,86.43,18.12  c15.67-2.92,31.73-1.56,44.69,9.62c43.15-0.88,85.21,5.72,128.98,12.12l-139.3-1.68C1020.27,853.73,952.93,840.92,945.69,850.5z" />
<path class="cls-15" d="M944.2,435.14c-16.29,8.72-37.65,5.1-57,11.17c-17.1,5.37-33.35,10.93-51.53,10.87  c-15.63-0.05-32.85-2.36-47.14,4.45c-31.58,15.04-93.43,12.69-128.33,11.16c-26.42-1.16-51.75,8.42-77.42,9.29l-2.57-10.43  c33.31-4.73,67.61-4.52,100.53-11.89c29.91-6.7,59.1-4.77,89.79,2.5c12.68-8.09,25.46-11.71,40.34-13.26L944.2,435.14z" />
<path class="cls-12" d="M899.91,349.56c3.36-5.43,9.75-8.55,9.24-14.19c-1.96-21.53-72.66-6.37-82.84-9.71  c44.29-15.48,93.68-22.79,140.33-12.61c5.4,1.18,10.51,5,10.9,8.86C979.58,342.22,904.92,348.4,899.91,349.56z" />
<path class="cls-16" d="M811.55,762.02c-6.75-3.52-14.69-2.34-19.94-9.43c4.05-2.2,8.99-0.43,14.06-2.08  c9.45-16.1,29.65-21.14,44.85-9.65c37.95,5.05,75.03,6.77,113.9,8.49c-28.39,1.42-56.7,5.71-85.71,5.3  C855.35,754.3,831.34,750.56,811.55,762.02z" />
<path class="cls-3" d="M901.34,913.54c-7.94-2.02-18.47-2.96-28.04-6.43c-12.42-1.6-23.64-0.72-33.58-8.46  c2.21-0.66,4.13-0.98,5.11-2.43c0.98,0.12,2.17-0.57,3.13-0.32c11.1,0.67,22.12,0.4,33.07-0.83c7.27,1.03,14.63-0.15,23.12,3.3  C899.63,903.66,898.43,908.76,901.34,913.54z" />
<path class="cls-16" d="M761.99,759.49l5.49,8.64c-24.79-3.83-58.81,5.69-87.41,3.52C708.23,769.92,734.99,762.49,761.99,759.49z" />
<path class="cls-3" d="M821.2,801.18c-12.82-9.59-24.85-19.51-39.18-27.03c8.11,3.36,18.41,2.55,27.17,6.62  C813.37,786.74,822.66,794.79,821.2,801.18z" />
<path class="cls-1" d="M881.03,895.06c-9.24,6.76-22.22,3.64-33.07,0.83C858.17,891.38,870.1,893.52,881.03,895.06z" />
<path class="cls-13" d="M552.09,865.52l0.09,2.31c-3.27-0.51-6.78,0.02-9.91-2.17C546.12,864.41,549.08,865.53,552.09,865.52z" />
<path class="cls-14" d="M496.91,267.38c-16.9,0.59-33.67,8.63-45.97,19.45c-25.18-21.4-48.63-47.05-66.47-75.02l0.66-2.75l58.55-5.56  c-20.82,0.54-41.52,1.01-62.11,1.42l-3.67-2.52c-5.95-7.45-12.3-15.07-16.27-23.89c28.9-4.17,57.17-1.52,87.07-0.27l127.06,5.32  c15.19,0.64,30.41-0.03,44.29,8.13c-30.37,10.7-59.01,20.68-86.69,33.26C514.03,233.73,525.89,247.76,496.91,267.38z" />
<path class="cls-3" d="M441.99,599.23l-96.12-87.63l-0.03-1.75l48.75-3.28l0.88-2.13c-4.55-1.36-31.68-22.54-32.16-24.51  c-0.87-3.52-1.2-5.48,2.92-5.74c12.72,1.37,25.33,3.16,37.86,5.36l1.72-1.41c2.26,0.32,3.18-2.18,3.82-3.91  c1.61,6.63,30.2,89.92,36.12,96.64c2.95,3.35-2.98,13.95,6.57,15.22C446.94,591.45,447.59,597.42,441.99,599.23z" />
<path class="cls-16" d="M313.3,496.45l-0.58,2.77c-15.39,1.93-30.86,2.88-46.41,2.85l-100.53,9.47l119.51-28.02l3.27-1.42l17.45,6.85  C311.08,490.44,313.51,492.94,313.3,496.45z" />
<path class="cls-15" d="M313.3,496.45c1.81-6.33,18.14,1.84,17.79,7.1c3.6-0.26,3.65,0.4,0.64,2.43l-65.41-3.91L313.3,496.45z" />
<path class="cls-3" d="M339,508.49c-2.56,0.15-5.05-2.22-7.27-2.51l-0.64-2.43c0.85-0.79,1.73-1.53,2.7-2.1  c6.22-3.68,47.54-1.96,56.11,0.37c3.16,0.86,6.36,1.73,5.5,4.31c-0.78,2.34-44.91,3.84-49.03,3.69L339,508.49z" />
<path class="cls-1" d="M405.8,478.12c-0.33,1.74,0.99,2.79,2.58,5.34c-14.22-3.65-28.55-5.48-44.88-6.87l36.99,30.82l-54.63,4.18  c-1.74-1.59-5.09-1.37-6.87-3.11l56.41-3.28c-21.27-2.83-43.28-4.22-64.31-1.66c-5.15-2.67-11.64-7.83-17.79-7.1  c-7.87-6.45-19.08-8.47-28.01-12.92c-15.19-12.79-35.87-17.74-51.25-29.92c-7.98-6.32-17.25-7.71-26.81-13.57l32.85,4.29  c-14.72-5.95-29.14-11.29-40.62-22.11c17.85,4.37,34.01,11.84,53.03,14.42c-15.55-9.1-32.48-15.38-39.6-32.98  c20.76,15,43.6,26.29,66.58,33.88c-18.26-13.11-39.13-22.04-41.05-45.31c25.22,29.57,54.39,51.26,91.44,63.1  C355.46,463.51,380.29,474.49,405.8,478.12z" />
<path class="cls-5" d="M858.48,1265.42l333.42,40.66l-8.94,29.31c-5.07-7.22-9.85-13.44-16.12-18.66  c-3.33,8.39-1.32,16.36-5.37,22.53c-6.84-0.66-6.05,9.53-10.46,14.75l-10.6-25.27l-15.84,56.42c-5.64-10.92-7.32-22.9-14.52-33.12  l-15.52,52.95l-17.32-37.75l-10.92,32.84c-1.83-4.08-3.36-6.91-5.89-8.9c-2.62-2.06-6.61-0.11-9.42-0.73  c-3.86-6.36-12.58-1.59-17.08-1.88c-7.37-2.14-16.41-6.84-24.61,1.93c-4.88-1.74-9.92-3.81-15.59-3.01  c-4.57-10.98-16.6-2.92-22.57-4.77c-7.6-2.35-16.01-5.69-24.72-3.58c-5.31,1.28-14.42-6.74-21.07-0.68  c-11.32-5.64-31.33-14.19-39.23,1.51c-3.28-4.84-9.59-0.9-12.62-2.41c-4.42-2.19-5.37-6.87-10.55-6.74  c-12.58,0.32-4.62,6.84-24.26,0.2c-7.99-2.7-14.35-3.15-21.06,5.42c-17.32-20.85-32.59-4.99-36.95-4.6  c-6.61,0.59-14.91,0.83-21.18,5.29c-13.52-6.89-27.42,4.57-40.8,8.11c-5.97,1.58-15.61,0.31-22.82,4.28  c12.19-6.72-37.47,9.41-35.46,8.75l-157.35,52.11c-2.48-5.92-5.95-8.76-10.2-10c-5.36-1.56-9.88,0.61-13.82,4.69  c-5.47-7.42-13.43-3.31-20.57-3.97c-4.27-0.4-7.45-7.58-12.94-6.52c-12.64,2.44,5.18,7.48-29.02,11.3  c-7.62-9.9-19.11-10.37-29.68-8.16c-5.7-13.18-32.25-11.57-39.03-11.6c-4.92-0.03-14.1-9.6-18.73,1.55  c-25.64-24.75-22.69-9.22-29.97-10.95c-4.01-0.95-6.2-5.38-10.48-5.04c-3.44,0.27-6.7,1.8-9.8,5.04  c-20.44-14.51-16.68,6.47-28.59-6.92C452.59,1360.53,655.38,1311.99,858.48,1265.42z" />
<path class="cls-13" d="M760.75,1394.39c3.2,1.1,4.5,4.02,3.88,8.76c-1.78,9.77-2.66,14.65-2.66,14.65l0.09,59.2  c-1.13,4.41-4.18,10.33-8.11,5.59l-11.36-28.47l-10.61,32.45l-16.86-37.22l-12.44,40.54c-5.64,1.69-11.08-2-15.81-2.29l-3.06-0.74  c-2.3-17.58-2.86-35.43-1.71-53.56c-0.59-5.2-1.17-10.22-1.74-15.08l4.76-3.98l53.23-17.19  C746.31,1393.55,753.77,1392.66,760.75,1394.39z" />
<path class="cls-2" d="M1047.79,1438.61c-0.03-2.41,1.73-4.8,5.27-7.18c2.29-4.99-1.22-8.25-10.53-9.77l-2.97-3.44  c-1.04-0.37-1.99-0.82-3.11-0.99c-6.73,3.09-17.02,0.87-22.35-4.32c-1.75,3.98-14.15,1.49-14.75-2.73  c-10.1,2.23-22.01,0.13-30.94-5.18l-1.52,2.5c-1.99,0.05-16.56-1.7-17.19-2.3c-0.85-0.81-1.4-1.71-1.51-2.9  c-3.2,3.69-13.81,3.05-15.84-1.49l-6.79,1.7c-22.73-1.79-45.38-3.49-67.96-5.1l-3.14-1.99l-3.27,1.57  c-17.69-0.67-35.45-1.34-53.3-2.01l-6.34-2.5l-3.56,2.81l-23.19,1.2l-4.04-2.09c-27.48,4.82-53,17.24-80.39,23.82  c-2.05,4.81-13.65,7.56-17.49,3.92c-6.43,4.01-13.87,6.61-22.31,7.8c-7.94,3.43-15.7,4.91-23.26,4.43l-2.72,3.69l-36.36,10.03  c-9.59,3.67-19.18,7.15-28.78,10.42c-3.36,1.19-6.8,1.08-10.96,3.78c-6.53-8.63-14.54-1.44-24.11-6.55  c76.81-23.24,152.13-46.77,229.44-65.93c28.12-6.97,54.07-6.75,82.72-4.79c79.57,5.45,157.1,15.37,237.28,25.38  c-2.68,14.04-7.02,27.39-11.79,39.86L1047.79,1438.61z" />
<path class="cls-15" d="M854.46,1395.42l3.12,1.9c0.23,10.05,1.02,19.99,2.37,29.84l-1.77,3.03c-8.35,11.12-9.16,26.14-16.35,38.54  l-14.33-36.78l-16.63,44.03l-8.79-21.99c-0.88,5.64-5.16,9.58-6.42,13.85l-3.55-2.46c-3.25-22.89-4.23-46.16-2.93-69.81l2.37-3.09  C812.57,1391.56,833.49,1394.03,854.46,1395.42z" />
<path class="cls-16" d="M932.35,1400.8c1.6,2.53,2.08,6.03,1.44,10.51c1.63,3.84,2.07,7.08,1.32,9.72l-10.34,34.33l-7.23-10.67  c-3.64,3.55-3.48,8.58-9.15,12.36l-16.4-35.15l-9.56,36.37c-1.62,3.63-11.43,5.49-13.43,1.63c-4.75-9.39-6.91-19.81-10.83-29.71  c-4.44-11.21-0.93-23-3.71-34.77C880.38,1397.13,906.67,1396.62,932.35,1400.8z" />
<path class="cls-14" d="M791.54,1392.47c2.61,21.01-3.82,51.81,4.11,75.36c-1.5,5.08-3.85,9.68-5.66,14.65  c-0.81,1.49-1.8,2.51-2.96,3.08l-29.48,3.75l-2.26-2.41c-1.02-0.94-1.01-3.18-1.34-4.32c2.97,0.07,5.53-3.21,5.53-6.94l-0.1-58.38  c2.83-7.82,3.41-15.41,1.38-22.88C771.28,1392.54,781.18,1392.92,791.54,1392.47z" />
<path class="cls-11" d="M662.88,1422.12c0.76,0.71,1.47,1.44,2.03,2.28c3.78,5.65,0.74,48.11-3.79,53.17  c-0.67,0.75-1.48,1.38-2.33,1.97c-10.9,0.8-18.01,2.58-25.62-7.56c-5.61-0.74-13.86,1.88-17.15-4.01l-2.05-3.24  c1.81-8.93,2.95-18.16,1.32-27.21l2.02-3.18C632.24,1429.36,647.31,1424.72,662.88,1422.12z" />
<path class="cls-12" d="M680.37,1418.21c9.47,3.64-0.06,51.61,6.51,69.39c-10.76,5.22-17.75-7.36-28.08-8.05  c4.63-18.06,6.17-38.87,4.08-57.42C668.41,1421.2,674.94,1419.51,680.37,1418.21z" />
<path class="cls-7" d="M617.31,1434.35c2.81,10.55,1.07,22.96-1.29,33.63c-4.75-2.09-11.5,2.37-15.72,3.3  c-3.92-1.67-7.45-5.24-12.1-5.7c-4.18-0.41-6.99,2.57-10.56,4.65c-10-6.24-18.24-15.25-28.18-11.74  C568.29,1444.89,594.64,1441.94,617.31,1434.35z" />
<path class="cls-13" d="M999.35,1410.16l2.58,3.72c-0.35,11.25-0.64,22.62,1.75,33.69l-1.73,4.12c-3.39,5.5-17.14,6.98-22.54,3.87  c-2.95-10.09-7.05-20.08-11.94-29.08c-5.95,0.5-4.79-9.82-3.88-14.19c0.26-4.73,1.87-7.17,4.82-7.31  C978.79,1406.37,989.03,1408.25,999.35,1410.16z" />
<path class="cls-14" d="M968.41,1404.98c-2.19,6.59-4.58,14.82-0.95,21.5l-11.64,32.06c-9.38-1.97-6.95-11.7-9.9-17.45  c-2.28-4.12-1.79-35.35-0.52-37c0.73-0.95,1.58-1.6,2.79-1.81L968.41,1404.98z" />
<path class="cls-2" d="M1001.95,1451.69c1.04-3.74,2.7-3.7,3.73-0.02c-4.19,15.29-8.47,30.66-13.9,46.11l-12.37-42.22  C986.87,1453.93,994.57,1453.78,1001.95,1451.69z" />
<path class="cls-2" d="M789.99,1482.48c-2.73,7.5-4.31,15.82-9.18,23.61c-7.69-2.54-14.41-5.43-22.11-5.08  c-1.73-5.08-3.43-9.8-3.41-14.11L789.99,1482.48z" />
<path class="cls-12" d="M1014.1,1412.9c4.79,1.66,5.07,11.45,0.29,13.23c-1.45,8.93-6.35,16.93-8.71,25.54  c-1.18,0.21-2.57-0.3-3.73,0.02c-3.76-13.54-2.95-27.55-2.59-41.53L1014.1,1412.9z" />
<path class="cls-7" d="M1036.45,1417.22l-10.9,32.12c-4.77-8.33-5.03-17.61-11.15-23.21c0.73-4.48,0.61-8.68-0.29-13.23  C1021.55,1414.28,1028.97,1416.06,1036.45,1417.22z" />
<path class="cls-15" d="M948.19,1402.28l-2.27,38.81c-4.06-7.19-3.83-17.38-10.81-20.06c-4.68-4.52-5.13-14.85-2.76-20.23  C937.27,1401.6,943.13,1401.61,948.19,1402.28z" />
<path class="cls-3" d="M1047.79,1438.61l-8.24-20.4c4.9,1.76,12.3,1.86,15.91,6.72C1059.67,1430.59,1052.86,1436.64,1047.79,1438.61z" />
<path class="cls-2" d="M882.43,1458.27c-2,7.6-4.06,15.79-6.92,24.15c-4.95-6.15-3.25-16.07-6.51-22.52  C873.51,1459.49,877.9,1458.04,882.43,1458.27z" />
<path class="cls-14" d="M356.39,180.63l5.08,20.34c-0.03,1.09-0.26,2.15-0.96,3.01c-0.66,0.8-18.41,1.27-20.28-0.52  c-3.5-4.77-10.64-7.38-14.17-13c1.13,3.81,0.57,8.73,1.99,11.62c-22.89-1.26-118.81,7.21-131.23-12.65  C252.42,195.92,304.21,189.88,356.39,180.63z" />
<path class="cls-9" d="M348.06,1109.03c41.56,8.71,83.19,16.66,124.88,23.85l1.11,2.93c22.5,1.85,44.85,4.99,67.02,9.43l3.81,2.12  c1.7-4.49,11.72-0.55,14.49,1.89c-0.78-0.36-0.2-1.13,0.44-1.57c0.33-2.6,2.08-2.48,5.25,0.35l1.88-2.27  c21.53,5.76,43.07,11.52,64.63,17.29l0.84,3l-218.61,9.9c-15.78-6.46-32.86-9.98-49.52-13.48l-223.8-47.09l187.64-5.08  C331.96,1106.14,343.58,1105.7,348.06,1109.03z" />
<path class="cls-6" d="M639.01,1110.26l210.41,10.05c-66.51,13.04-132.05,28.83-197.18,45.77l-19.82-0.04l-67.34-18.02  c-8.41-2.84-7.8-4.1-1.98-11.2c-5.65-3.33-8.96-7.32-9.93-11.98C581.71,1122.66,610.35,1110.98,639.01,1110.26z" />
<path class="cls-15" d="M464.7,1216l2.86,3.24c1.4,6.73,0,32.43-3.28,37.92c-0.76,1.28-2.29,1.88-3.67,2.36l-72.28,0.12l-2.79-2.24  c1.47-12.86,0.64-25.14-2.5-36.83l1.38-3.18L464.7,1216z" />
<path class="cls-15" d="M609.21,1172.38c1.12,1.47,2.34,3.08,2.57,4.96c0.9,7.38,1.58,19.57,1.34,26.95l-2.39,5.11l-79.16-1.35  c-1.82-2.77-1.88-6.36-0.19-10.75c0.06-9.17,0.08-13.75,0.08-13.75c-1.53-3.7-1.49-6.79,0.12-9.27  C557.82,1171.95,583.56,1172.56,609.21,1172.38z" />
<path class="cls-16" d="M680.46,1173.05c1.05,0.24,2.62,0.63,2.73,1.44c0.85,6,1.14,17.78,0.87,23.94c1.03,4.31,0.24,7.1-2.38,8.37  c-24.26,1.83-47.58,3-70.95,2.6c-0.63-12.35-2.04-24.63-1.53-37.02C633.92,1172.21,657.24,1172.79,680.46,1173.05z" />
<path class="cls-14" d="M531.59,1174.28c4.56,10.56,3.51,22.89-0.01,33.77l-73.66-0.95c-1.01-0.27-2.5-0.77-2.5-1.53  c0.01-4.66,1.61-13.81,2.53-18.72c-0.26-5.27,1.09-8.53,4.03-9.77C485.69,1175.78,508.74,1172.75,531.59,1174.28z" />
<path class="cls-14" d="M384.41,1217.39c7.08,12.49,2.95,27.93,3.92,42.25c-18.78,0.03-37.51-0.66-56.24-2.24l-2.11-4.35l1.07-16.1  c-1.14-6.8-0.79-12.9,1.05-18.29L384.41,1217.39z" />
<path class="cls-16" d="M512.95,1216.6l2,3.65c-1.26,11.68-0.74,23.35,1.56,34.99l-2.2,3.62l-53.71,0.66  c5.3-13.65,4.95-28.94,4.09-43.51L512.95,1216.6z" />
<path class="cls-11" d="M271.71,1220.3c4.9,2.32,4.04,13.04,3.57,18.39c-0.27,3.07-1.02,10.2-2.62,12.41l-3.42,1.1  c-21.55-1.4-43.22-2.96-64.55-7.01c-2.54-2.57-3.37-6.45-2.48-11.66c-1.07-3.92-0.59-6.98,1.44-9.18  C226.24,1221.69,249.01,1221.03,271.71,1220.3z" />
<path class="cls-15" d="M555.76,1217.38c2,2.06,2.48,5.06,1.44,9.01c0.96,5.31,0.11,9.06-2.56,11.26c0,0.97-2.12,2.03-1.68,2.8  c0.58,1.02,2.16,2.42,3.03,2.69c3.03,2.02,4.72,12.43,1.23,14.4c-14.24,1.83-28.63,1.14-42.9,1.31c-1.93-14.03-4.57-28.4-1.37-42.26  L555.76,1217.38z" />
<path class="cls-14" d="M744.64,1176.88l2.27,2.47c-0.29,6.12,0.25,12.21,1.64,18.27l-2.37,2.51c-14.39,1.43-27.89,3.89-41.54,4.92  c-1.04-0.28-2.58-0.69-2.69-1.52c-0.66-5.1-0.46-15.17-0.16-20.53c-0.99-4.95-0.12-8.18,2.6-9.7  C717.93,1173.46,731.4,1174,744.64,1176.88z" />
<path class="cls-12" d="M302.43,1219.31c4.05,2.98,5.78,8.11,5.2,15.41l-0.64,18.18l-3.04,2.8c-11.74-0.17-23.24-2.74-34.73-3.49  c4.56-9.15,3.88-21.67,2.47-31.9L302.43,1219.31z" />
<path class="cls-13" d="M332.1,1218.65c2.45,12.53,1.88,26.1-0.01,38.75c-9.12-0.77-18.96-1.58-28.13-1.71  c1.55-11.72,1.87-25.24-1.53-36.39L332.1,1218.65z" />
<path class="cls-13" d="M461.98,1177.09l-4.06,30.01l-36.01,0c-1.89-3.51-2.2-7.82-0.93-12.94c-0.94-5.87-0.26-10.7,2.03-14.51  C436.05,1178.49,448.97,1177.81,461.98,1177.09z" />
<path class="cls-12" d="M423,1179.65c1.08,8.99,1.09,18.65-1.09,27.45c-12.39,0-24.48,1.11-36.38,0.69l-1.94-4.02l2.07-17.52l2.67-3.52  L423,1179.65z" />
<path class="cls-11" d="M388.33,1182.74c0.24,8.33-1.12,16.89-2.8,25.06l-34.53-1.2c-2.39-2.1-2.92-5.8-1.59-11.09  c-0.91-3.35-0.48-5.84,1.28-7.48C363.77,1184.82,376.07,1183.83,388.33,1182.74z" />
<polygon class="cls-15" points="704.4,1173.31 704.65,1205.06 681.69,1206.79 680.46,1173.05 " />
<path class="cls-7" d="M203.65,1224.36c1.7,6.86,1.35,13.81,1.04,20.83c-11.83-2.25-25.69-1-36.29-10.34  C178.44,1225.96,191.97,1225.73,203.65,1224.36z" />
<path class="cls-7" d="M350.69,1188.03c2.56,6.01,0.93,12.24,0.31,18.57c-11.91-0.41-25.55,1.12-37.15-6  C324.5,1190.92,338.74,1190.97,350.69,1188.03z" />
<path class="cls-13" d="M763.62,1178.49c2.57,2.17,3.39,5.83,2.48,10.98c1.1,3.81,0.7,6.75-1.19,8.81l-18.72,1.86  c-0.92-7.79-3.3-15.52-1.54-23.25C751.11,1178.29,757.93,1177.75,763.62,1178.49z" />
<path class="cls-14" d="M574.62,1217.5c3.47,2.93,4.21,11.95,1.42,15.51l-21.41,4.65c0-6.79-0.75-13.7,1.12-20.27L574.62,1217.5z" />
<path class="cls-12" d="M783.69,1181.09c4.21,1.03,3.79,13.62-0.27,14.87l-18.5,2.32c-2.14-6.38-1.49-13.13-1.29-19.79L783.69,1181.09z  " />
<path class="cls-13" d="M596.19,1218c3.36,1.72,4.57,10.22,1.35,12.44c-7.18,0.99-14.47,1.04-21.49,2.57  c-1.5-5.04-1.86-10.27-1.42-15.51L596.19,1218z" />
<path class="cls-13" d="M557.22,1257.55c-0.81-4.8-2.22-9.55-1.23-14.4c9.11,2.8,19.78,2.42,28.56,8.78  C576.16,1258.75,565.96,1256.43,557.22,1257.55z" />
<path class="cls-11" d="M804.84,1182.63c3.75,1.88,2.56,8.1-0.06,10.66c-7.53,2.23-14.65,1.83-21.37,2.67l0.27-14.87L804.84,1182.63z" />
<path class="cls-11" d="M613.6,1218.7c3.54,0.67,4.93,8.33,1.1,9.41c-5.72,1.32-11.32,1.52-17.17,2.33  c-1.02-4.09-1.85-8.23-1.35-12.44L613.6,1218.7z" />
<path class="cls-7" d="M614.71,1228.11c-0.29-3.16-1.4-6.22-1.1-9.41c7.31,0.29,15.78-0.34,22.96,5.08  C629.94,1229.53,621.37,1226.56,614.71,1228.11z" />
<path class="cls-7" d="M804.78,1193.29c-1.64-3.4,0.04-7.03,0.06-10.66c7.73,0.56,15.19,0.44,20.48,6.69  C818.81,1193.88,811.04,1191.44,804.78,1193.29z" />
<path class="cls-11" d="M300.06,751.35c-28.04-8.77-55.52-18.53-85.29-24.09c-6.4-1.2-13.92-4.14-15.31-9.42  C235.44,700.91,282.03,715.71,300.06,751.35z" />
<path class="cls-3" d="M1121.06,1047.32l-80.43,12.05c-4.07-0.23-8.54,0.96-12.04,2.79l-142.1,0.54l-293.47,0.42  c-5.18-1.44,0.26-7.5,2.97-2.6c12.34-3.98,25.15-6.16,38.45-6.54c22.02-2.42,44.03-3.73,66.02-3.92c0.87-3.01,8.2-3.62,11.42-3.68  c0.62-0.01,1.24,0.3,1.86,0.71C849.54,1045.32,985.84,1043.74,1121.06,1047.32z" />
<path class="cls-1" d="M365.56,1048.4c8,2.93,16.13,5.29,24.37,7.08l2.31,2.78c14.83,2.96,30.15,4.04,45.96,3.25l0.97,0.96  c12.47-0.1,25.04,1.53,37.7,4.9l2.75,2.79l-0.37,3.06l-24.03,10.11c20.53,3.53,38.83,13.54,56.53,23.73  c9.12,0.76,17.97,2.51,26.55,5.27l7.02,6.03l7.84,6.49c6.22,5.15,12.01,11,19.15,15.13c-2.41,1.89-8.44-4.03-7.43-0.12  c1.62,6.29-2.66,1.87-4.05,2.27c-1.41,0.4,4.79,5.6,4.24,5.9c-1.73-0.43-3.48-0.46-5.25-0.35c-0.61,0.49-1.14,1.01-0.44,1.57  c-4.44,1.31-9.41-1.48-14.49-1.89c-10.26-6.06-20.85-11.61-31.78-16.65l-0.23-3.37l-4.79-0.31c-11.25-9.46-23.63-16.3-37.15-20.53  c-23.42,1.59-46.68,1.25-69.8-1l-1.7-2.79c-9.35,2.27-7.78-7.47-1.03-10.46c3.44-1.52,8.04-2.1,8.63,2.17  c1.34-0.38,1.37-0.86,0.1-1.42c-0.36-1.26-0.19-2.88,0.92-3.13c5.71-0.39,11.21-1.53,16.49-3.43c0.39-2.37,0.58-3.55,0.58-3.55  l-14.51-6.55l-0.47-3.04c-16.54-5.14-33.65-8.93-51.33-11.36c-5.17-0.98-7.34-3.11-6.51-6.37c-1.75-2.28-1.02-4.52,2.21-6.7  c-0.96-1.53,1.2-4.74,2.01-5.89C363.23,1043.22,366.24,1045.03,365.56,1048.4z" />
<path class="cls-1" d="M511.35,1005.95c6.57,7.94,20.15,8.34,30.91,10.46c2.76,1.76,4.16,3.81,4.19,6.15  c6.74,1.31,13.51,3.52,20.34,6.64c6.82,0.24,13.43,0.97,19.81,2.18c0.7-1.09,1.15-1,1.36,0.26c4.14,0.11,8.29,1.27,12.46,3.46  l8.85,1.41c11.13-1.01,22.24-1.81,33.34-2.4c5.41-1.41,9.39-0.97,14.96-0.97c10,2.71,13.7,10.09,0.24,8.03  c-3.83,0.91-7.98,1.77-12.45,2.56c-8.57,0.73-17,1.85-25.29,3.36l-1.07,2.88c-7.33,4.86-15,8.38-23,10.54l-1.91,0.48  c-0.8,0.2-1.33,1.11-1.06,2.12c-11.8,0.02-22.86,7.64-36.02,2.31c3.01,6.66,7.88,5.3,12.55,8.83l-9.93,2.94  c-2.6,2.32-5.58,1.28-8.96-3.13c-1.11,3.23-3.27,5.39-6.64,6.2c-11.87-0.4-23.06,1.23-33.57,4.9l-3.11-1.35  c-3.13,5.57-15.09-6.41-10.43-10.02l2.52-1.9c11.97-1.88,24.06-2.94,36.29-3.15c-1.13-3.07,2.39-1.61,2.19-1.59  c-4.34,0.54-10.37-3.13-5.28-6.35c-2.82-3.95,0.12-7.59,4.54-5.55c0.34-0.95,0.81-2.07,1.66-2.2c3.36-0.53,13.28-0.68,12.92,3.43  c4.15-1.2,6.91,0.75,6.1,5.03c2.66,1.74,2.4,0.19-0.78-4.65c0.78-3.07-0.01-5.75-2.38-8.03c-2.49,0.3-4.55-1.42-6.19-5.17  c-2.87-1.57-4.41-3.39-4.62-5.46c-3.13-0.37-6.69-1.45-9.15-3.28c4.57-4.03-6.43-5.56-7.06-5.45c-3.23-0.73-5.02-1.98-5.37-3.73  c-5.06-1.13-10.06-3-14.98-5.58l-1.06-2.75c-5.68-0.47-16.19-5.86-10.81-11.49C500.52,1005.88,506.91,1004.47,511.35,1005.95z" />
<path class="cls-4" d="M559.61,1077.2l138.4,7.61l-172.8,13.34c-4.89,3.21-13.56-4.36-17.6-8.14c-2.6-2.61-2.69-4.68-0.27-6.19  c20.9-12.15,42.18,2.18,40.85-14.45C553.17,1071.24,555.26,1076.34,559.61,1077.2z" />
<path class="cls-3" d="M491.48,1070.27c4.47-0.1,6.28,1.08,5.43,3.54c2.04,4.6,5.85,9,10.43,10.02c2.1,7.66,10.86,10.37,17.87,14.33  c8.43,4.75,15.43,11.65,20.12,20.21c-24.02-11.84-27.63-3.72-39.62-11.35c-18.1-11.52-37.36-19.48-59.8-22.66l33.72-14.19  C480.2,1066.06,490.53,1066.27,491.48,1070.27z" />
<path class="cls-14" d="M842.4,969.94c-8.04,0.08-12.49-0.41-20.36,2.3c-20.28,2.44-40.64,2.36-61.06-0.23l-1.52-2.09  c-5.12,1.79-8.71-7.87-3.99-10.89c104.82-1.18,209.11,2.71,314.56,8.71L842.4,969.94z" />
<path class="cls-3" d="M755.47,959.03c0.28,3.97,0.78,8.2,3.99,10.89c2.86,0.89,2.96,2.38,0.26,3.67  c-19.04-7.51-13.12-20.4-27.9-33.21c-2.2-1.91-2.18-2.73,0.76-4.55c8.25,1.32,16.71,4.24,23.77,9.45  C755.38,950.5,755.17,954.77,755.47,959.03z" />
<path class="cls-14" d="M1154.49,979.96l-170.11-0.09C1041.79,977.39,1098.25,976,1154.49,979.96z" />
<path class="cls-14" d="M180.92,877.33c3.65-0.11,6.36,2.38,8.13,7.46c2.71,4.72,7.58,13.43,5.2,18.05  c-33.31,1.12-69.4-2.65-97.91-24.47L180.92,877.33z" />
<path class="cls-1" d="M169.78,810.16c22.23,26.49,68.57,44.75,96.75,67.26c3.44,18.65,12.79,41.18,29.07,50.74  c17.33,10.18,36.77,7.08,54.01,4.84c59.02-7.67,26.74-21.51,74.95,3.37l-33.43,5.43c-22.34,3.62-46.55-0.88-66.39,13.91  c8.34,2.22,16.31,5.8,23.27,8.74c3.98,1.44,8.69,11.16,5.66,14.65c3.77,9.85,9.46,19.11,15.08,28.07c4.42,0.57,6.81,6.58,7.4,10.66  c2.15,0.57,4.04,2,5.66,4.28c4.47,1.89,6.66,4.43,6.58,7.61c-2.4,1.76-5.97,2.01-10.69,0.78l-1.23,2.37  c-6.58,0.13-11.97-1.35-17.28-8.76c-1.31,7.29,4.53,9.08,5.09,15.69c-7.98-3.16-11.78-10.57-14.56-17.65  c-1.94,5.09,2.15,9.75-2.81,10.05c-0.55-1.16-1.66-1.86-2.83-2.3c-4.91-3.31-9.94-6.65-15.07-10.03l0.51-2.99  c-4.47-3.7-9.63-11.03-15.97-11.42c-9.34-9.65-20.61-22.55-34.71-25.05c-22.35,8.61-43.77,7.19-66.71,4.44  c-10.95-1.32-22.3,6.38-32.47,1.65c5.32-6.51,1.51-4.42-0.79-4.13c-6.51,0.81-6.08-2.16-6.62-4.7c1.11-3.09,2.7-6.87,4.93-8.9  c2.6-2.37,8.43-2.87,11.83-2.44l16.03-2.28l-1.26-2.3l20.39-10.53c-7.66-13.89-14.47-27.23-24.42-38.15  c-0.16-3.84-3.96-6.97-5.49-10.24c-4.11-8.76-7.02-18.15-13.34-25.52c-12.01-13.99-21.2-34.1-35.32-43.85l-5.24-3.62  c-5.44-3.76,6.87-0.11,9.72-1.19c-5.17-4.63-10.97-8.21-14.41-14.01l21.72,7.8c-5.42-7.17-12.4-11.48-15.47-19.1  c4.16,0.43,8.76,4.57,13.26,3.65c4.45-0.91-0.07-6.52,1.27-10.54C159.8,802.12,166,805.65,169.78,810.16z" />
<path class="cls-4" d="M424.54,1086.46c-4.35,5.31-11.6,3.45-17.41,6.56c1.14,0.49,1.09,0.96-0.1,1.42c-3.18-1.09-8.06-0.48-9.97,2.02  c-2.26,2.97-2.52,5.91,2.36,6.27c-2.8,3.89-7.46,5.77-13.99,5.64c-12.67,2.06-25.13,2.28-37.38,0.66  c-6.21,1.01-13.59,1.08-19.93,1.25c-1.63-1.72-4.88-2.02-7.3-1.96c1.11-1.3,2.53-0.15,3.3-1.47c-19.82-1.95-39.43-6.44-58.95-10.32  l0.76-2.73c52.25-3.3,104.52-6.61,156.79-9.91L424.54,1086.46z" />
<path class="cls-16" d="M189.01,966.34c3.96-1.37,10.25-4.74,14.76-4.57c10.07,0.38,18.28-6.31,29.47-6.56  c-3.83,2.65-7.88,5.88-8.1,9.86c-0.59,10.73,15.74,12.82,24.22,15.47c-11.84,3.68-23.94,2.26-35.38-1.27  c4.44-4.17,10.72-5.34,5.44-11.8c-7.06,11.73-15.2,9.46-27.33,7.45c5.2-5.84,13.03-2.97,19.98-8.52  C204.01,965.91,196.6,967.29,189.01,966.34z" />
<path class="cls-4" d="M658.93,1023.21c-12.47,1.87-24.71,6.93-37.5,6.47l-2.05,2.72l-18.08-0.82c-4.67,0.82-9.12,0.83-13.35,0.05  c-0.32-0.26-0.99-0.08-1.36-0.26c-7.21-1.11-14.52-2.05-21.95-2.82c-3.78-1.75-6.8-4.48-3.37-7.91L658.93,1023.21z" />
<path class="cls-3" d="M561.27,1020.66c2.14,11.93,22.87,2.06,25.32,10.72c-12.16,2.82-23.63,1.44-34.52-5.67l-21.79-1.81  c1.04-1.35,12.2-0.61,13.9-1.7c1.29-0.83-4.14-3.52-1.92-5.79C548.31,1017.61,555.09,1020.49,561.27,1020.66z" />
<path class="cls-8" d="M335.22,1059.37c3.7-3.1,17.64-1.28,9.56,4.09c-14.28,2.79-28.64,4.88-43.08,6.25l1.3,3.02  c6.64,5.84-4.62,17.79-8.36,8.07c-15.44,0.27-30.16,2.26-45.24,0.23c-42.47-5.71-85.12-10.62-128.77-11.88l-105.91-3.06  C120.72,1060.29,228.3,1059.14,335.22,1059.37z" />
<path class="cls-10" d="M354.51,1048.89c1.59,2.53-0.49,4.5-2.21,6.7c0.51,5.1-11.04,3.17-15.13,2.43c-0.37-0.07-0.64-0.64-0.89-1.35  l-195.53-5.35c-24.33-0.67-46.64-5.08-70.03-7.42l126.23-1.83l147.34,3.16C349.66,1044.23,351.79,1053.58,354.51,1048.89z" />
<path class="cls-2" d="M554.69,1048.85c0.54,1.2,0.69,2.69-0.32,3.4c-2.24,1.58-15.62,2.19-16.96-1.58l-7.87,1.55  c-52.06-0.66-104.12-1.4-156.19-2.24l-7.79-1.58c-2.69-2.13-5.86-4.24-9.04-5.41l187.35-4.77  C549.48,1038.88,552.32,1043.84,554.69,1048.85z" />
<path class="cls-4" d="M410.14,1073.32l-1.08,2.74l-97.54,5.58c-3.16-0.06-3.75-2.48-3.51-5.49c-2.68-0.16-4.18-0.38-5-3.42  l-21.77-4.69c22.65,0.09,44.28-3.88,65.88-7.7c-4.42-1.51-8.27-0.97-11.89-0.98c0.47-0.85,0.82-1.76,1.06-2.7  c5.33,0.15,11.01,0.75,16.03-1.09C360.08,1064.55,409.02,1062.64,410.14,1073.32z" />
<path class="cls-9" d="M527.66,1029.49c-50.19,4.14-100.76,2.37-151.19,3.4c-1.55-1.87-4.66-3.12-4.63-6.16  c6.2,0.96,11.32,3.35,16.55,3.02c4.27-3.21,9.24-3.48,14.43-3.35c37.43,0.85,74.78,0.06,112.04-2.35l7.43,1.71  C524.07,1026.87,527.92,1026.06,527.66,1029.49z" />
<path class="cls-9" d="M410.14,1073.32c7.7,2.69,14.95,9.25,24,7.55c-2.77,4.79-7.08,3.87-9.6,5.6l-159.36,10.07  c-13.32-2.65-29.05-1.65-39.94-9.09c23.2-0.7,47.21-2.21,69.41-6.64c2.61-0.05,5.59,2.84,6.76-0.85c0.8-2.52,1.77-4.87,1.6-7.22  c2.12,0.46,4.53,0.42,6.98,1.14c2.79,0.81,1.73,1.75-0.22,5.18L410.14,1073.32z" />
<path class="cls-6" d="M344.09,1029.92c-30.41,1.2-60.9-1.36-91.3-1.5c3.49-6.25,14.14-0.94,15.35-9.53  c20.62-0.13,41.41-0.42,61.39-2C334.74,1021.21,342.51,1023.15,344.09,1029.92z" />
<path class="cls-4" d="M657.8,1041.17c14.11,0.78,28.36,0.89,42.65,0.52l2.4,2.83c3.6,0.29,7.26,0.53,10.88,0.25l0,2.32  c-3.53,3.48-8.71,2.51-13.28,2.97c-26.16,1.33-52.68,1.22-78.87-0.22l-1.52-2.74c-3.29-4.9,36.57-4.88,32.22-9.4  C653.95,1039.43,655.36,1040.02,657.8,1041.17z" />
<path class="cls-9" d="M713.65,1033.11c1.16,6.6-8.16,5.97-10.8,11.41c-15.01-1.2-31.79,2.91-45.05-3.35  c2.38-0.41,4.98-0.52,7.17-2.34c-3.77-1.94-7.23-2.53-7.41-5.69L713.65,1033.11z" />
<path class="cls-6" d="M621.43,1029.68c6.87-0.29,14.65,3.44,21.18,4.43c-18.37,4.79-39.62,9.69-54.65-2.47  C597.12,1026.62,610.21,1030.16,621.43,1029.68z" />
<path class="cls-16" d="M867.9,569.61c-12.85,1.54-25.39,4.61-38.18,2.94c-0.9-11.71,0.55-22.23-5.01-32.46  C843.54,537.89,845.86,554.86,867.9,569.61z" />
<path class="cls-12" d="M384.47,211.81c-1.78-2.78-4.48-6.82-6.56-9.41l141.52-3.4L384.47,211.81z" />
<path class="cls-14" d="M352.35,214.71c-0.08-0.66-0.11-1.3,0.06-1.88c0.47-1.58,10.8-2.81,13.07-2.31c8.38,17,21.73,29.74,34.13,45.96  C382.18,244.14,366.74,229.61,352.35,214.71z" />
<path class="cls-12" d="M361.48,200.97c0.78,3.14,2.56,6.63,4,9.56c-2.47,4.31-8.73,2.72-13.13,4.19c-3.86-3.99-8.68-6.58-12.11-11.26  C346.72,200,354.49,203.13,361.48,200.97z" />
<path class="cls-11" d="M495.44,1005.93c1.22,5.57,5.96,8.27,10.81,11.49l-0.92,2.68c-42.6,0.5-85.12,0.41-127.54-0.26l-1.64-2.01  c-4.59-1.67-5.09-6.98-7.4-10.66L495.44,1005.93z" />
<path class="cls-14" d="M353.67,979.11c-1.86-4.86-4.71-9.45-5.66-14.65l167.83,15.16L353.67,979.11z" />
<path class="cls-14" d="M681.78,957.33c3.16,1.56,4.03,5.94,5.56,8.51c-41.48,4.28-84.16-2.97-127.66-3.15  C600.16,957.44,641.06,956.76,681.78,957.33z" />
<path class="cls-4" d="M506.25,1017.42c5.93-0.02,11.48,5.45,16.04,8.33c-43.76,6.46-89.24,1.11-133.9,3.98  c-4.62-3.76-11.39-5.56-12.24-11.9L506.25,1017.42z" />
<path class="cls-16" d="M404.72,938.34c-5.91,1.54-13.94,3.73-15.3-0.12c-1.17-3.31-3.89-12.17,0.45-12.75  C396.6,929.22,400.86,934.02,404.72,938.34z" />
<path class="cls-15" d="M822.04,972.24c-20.4,7.02-42.74,9.07-62.32,1.35c0.11-1.23,0.05-2.47-0.26-3.67L822.04,972.24z" />
<path class="cls-10" d="M512.87,1127.35c-3.98,5.32-14.03,7.14-20.81,8.18c-6.11,0.93-11.83,0.88-18.01,0.29l-89.54-16.36  c-13.07-2.39-25.86-4.2-36.46-10.42c17.13-2.8,35.04-1.22,51.37-6.3l21.77,1.3c17,1.02,32.51,1.97,49.81-0.17  C485.52,1106.48,500.97,1118.51,512.87,1127.35z" />
<path class="cls-6" d="M544.89,1147.37c-23.89-1.94-47.89-6.32-70.83-11.55c12.89-1.31,26.49-4.93,38.82-8.46  C523.09,1134.56,538.51,1136.42,544.89,1147.37z" />
<path class="cls-10" d="M620.06,1047.1l80.39,2.96l-104.46,10.46C605.26,1058.16,610.5,1048.08,620.06,1047.1z" />
<path class="cls-10" d="M537.41,1050.67c3.79,0.9,3.49,3.74-0.24,4.59c-2.21,1.18-3.7,3.22-4.54,5.55l-1.24,2.68  c-30.53,0.76-60.97,0.15-91.33-1.85l-0.91-0.89c-16,1.52-31.63,0.68-46.9-2.5c-9.63-0.08-19.44-4.12-26.68-9.86  C422.34,1046.75,480.1,1048.94,537.41,1050.67z" />
<path class="cls-4" d="M532.62,1060.82c-0.1,3.41,3.22,4.58,6.89,5.4c-0.61,2.05-2.38,2.17-3.8,2.53l-37.97,2.76l-6.27-1.24  l-11.86-0.1c-13.78-0.11-26.88-6.98-40.45-7.69c-2.59-0.06-2.6-1.07-0.04-1.71L532.62,1060.82z" />
<path class="cls-15" d="M407.03,1094.44l0.1-1.42c41.52-4.24,9.44-2.72,48.01,6.63c-12.25,6.91-24.3,3.49-35.28-1.4  c4.65-1.88,5.87-1.6,5.82-3.82C419.3,1094.38,413.11,1096.52,407.03,1094.44z" />
<path class="cls-3" d="M439.14,1060.76l0.04,1.71c-15.37-0.81-34.87,6.25-46.93-4.21C407.88,1058.4,423.73,1057.7,439.14,1060.76z" />
<path class="cls-14" d="M537.17,1055.27l0.24-4.59c5.61,0.17,12.98,1.84,17.28-1.83c1.47,0.04,4.44,0.78,5.7,1.55  c1.5,0.91-1.17,4.28-0.74,5.96c1.62,6.28,8.73,5.07,13.37,8.17c-4.27-2.03-20.94,4.19-17.22-5.67c-4.52-0.86-8.06,3.85-15.67,1.26  l10.38-4.27C546.1,1054.57,541.61,1055.76,537.17,1055.27z" />
<path class="cls-10" d="M535.71,1068.75c-12.68,3.21-25.74,4.54-38.8,5.05l-5.43-3.54C505.8,1067.63,521.41,1066.19,535.71,1068.75z" />
<path class="cls-8" d="M305.6,1077.61c0.71-1.81,2.16-0.55,2.57-0.1c0.86,0.95,0.63,2.43-0.81,3.27  C306.15,1081.49,304.53,1080.31,305.6,1077.61z" />
<g>
</g>
<g>
</g>
<g>
</g>
<g>
</g>
<g>
</g>
<g>
</g>
<g>
</g>
<g>
</g>
<g>
</g>
<g>
</g>
<g>
</g>
<g>
</g>
<g>
</g>
<g>
</g>
<g>
</g>
</svg>