<?xml version="1.0" encoding="iso-8859-1"?>
<!-- Generator: Adobe Illustrator 30.2.1, SVG Export Plug-In . SVG Version: 9.03 Build 0)  -->
<svg version="1.1" id="Layer_1" xmlns="http://www.w3.org/2000/svg" xmlns:xlink="http://www.w3.org/1999/xlink" x="0px" y="0px"
	 viewBox="0 129.7 1200 1539.6" style="enable-background:new 0 129.7 1200 1539.6;" xml:space="preserve">
<style type="text/css">
	.st0{fill:#B1D5FC;}
	.st1{fill:#FDAEB4;}
	.st2{fill:#FFFFFF;}
	.st3{fill:#EABECD;}
	.st4{fill:#98C3F2;}
	.st5{fill:#5588C3;}
	.st6{fill:#74A1D5;}
	.st7{fill:#8BBAEB;}
	.st8{fill:#DEC2D5;}
	.st9{fill:#C5E0FD;}
	.st10{fill:#EDF4FE;}
	.st11{fill:#2C3656;}
</style>
<path class="st0" d="M1200,128.88v493.38l-0.93,1.92C799.82,624.12,400.53,624.06,1.21,624L0,622.08V128.64l0.93-1.92
	c399.25,0.08,798.54,0.16,1197.87,0.24L1200,128.88z"/>
<path class="st1" d="M1200,622.26v325.38l-1.45,1.74c-32.06,9.95-63.66,20.98-94.78,33.1l-1.76-1.4l-2.75-0.09l-22.34-23.7
	l-25.72-17.11c-18.09-15.59-36.12-31.25-54.1-46.99l-2.29-3.35c-1.54,0.37-3-0.32-4.4-2.05c-22-10.22-45.16-18.41-69.49-24.57
	l-4.14-2.98l-2.01,0.67l-65.14-68.48c-8.04-7.59-16.16-14.92-24.34-21.97l-0.62-2.41l-2.83-0.78
	c-9.95-10.63-14.92-15.94-14.92-15.94l-54.13,30.98c-15.47,14.44-30.44,29.46-44.92,45.06c-37.62,26.85-76.11,52.92-115.47,78.22
	l-4.05,0.74c-0.57,2.86-2.8,1.82-4.96,0.66c-24.92-14.45-49.77-28.78-74.56-42.98c-0.81,2.28-1.96,3.42-4.22,4.18
	c-25.81,18.13-53.27,35.82-83.86,46.16l-3.98-0.44c-3.33-2.6-6.46-5.83-9.38-9.69l-5.91-4.2c-38.73-20.01-77.3-40.52-115.72-61.53
	c-2.12-0.09-3.56-0.82-4.31-2.18l-0.89,2.23l-29.06,20.41l-44.69,19.75l-40.86,40.95c-32.26,23.14-64.5,47.06-96.28,71.14l-2.47-0.1
	l-1.91,1.52c-21.5-7.39-42.91-14.92-64.23-22.6L0,967.68v-345.6L1200,622.26z"/>
<path class="st0" d="M672.02,1561.05c2.48,0.01,6.67,1.84,6.72,4.57c10.29,5.27,20.55,11.3,30.49,17.42
	c1.34,0.1,2.78,0.26,3.91,1.07c5.93,4.28,15.23,14.18,20.07,19.9l0.23,2.24c2.77,0.04,4.84,6.87,1.71,7.64
	c-0.73,2.19-3.18,2.7-7.34,1.55c-2.95,7.23-2.82,13.97,0.38,20.21l-1.38,2.02l2.34,0.71c12.31,9.56,24.33-0.45,21.26-15.17
	c1.95-4.01,3.74-8.08,5.37-12.19l1.95-0.95c1.2-1.84,0.38-4.86-1.82-5.58c9.48-16.66,10.1-34.11,7.72-52.36
	c-2.47-1.71-2.66-3.27-0.57-4.69c-2.56-0.72-2.29-2,0.27-2.64l0.92-1.92c144.83-0.02,289.68-0.05,434.55-0.07l1.2,1.92v127.13
	L0,1672.32v-127.68l0.92-1.92l659.52,0.02l2.25,0.69c1.05,2.73,1.89,5.5,2.53,8.32C667.94,1554.7,670.2,1557.8,672.02,1561.05z"/>
<path class="st3" d="M65.39,1227.88l3.19,0.04c28.16,21.99,56.62,43.64,85.38,64.95c0,0-0.15,0.73-0.44,2.2l2.09,1.81
	c1.09-1.87,2.89-1.56,5.43,0.93c15.91,14.3,31.47,28.93,46.68,43.9c2.54,0.94,3.96,2.35,4.26,4.23l2.25,1.82
	c1.46-2.35,3.56-1.67,3.56,1.05l2.22,1.81c0.44-0.36,0.9-0.69,1.4-0.91c0.88-0.39,11.58,3.65,12.63,4.49
	c0.67,0.54,0.87,1.46,0.98,2.3l2.25,1.81c0.51-1.82,1.27-1.77,1.54,0.1l2.32,1.78c0.22-0.87,0.5-0.84,0.81,0.03l1.02,0.99
	c1.33-2.28,4.37-1.43,4.57,1.12l4.03,2.74l1.99-0.66c12.67,8.49,19.01,12.74,19.01,12.74l0.02,2.36l2.2,1.82
	c2.3-2.04,5.89-0.06,4.51,2.91c1,0.52,2.01,1.15,3.08,2.03c0.59-2.62,2.87-3.14,4.5-0.99c0.58-0.64,1.29-1.28,2.13-1.9
	c-0.23-2.8,4.26-5.32,6.48-3.06l2.18-1.78c-0.79-2.61,1.06-3.35,2.64-1.07l2.21-1.77c0.18-2.63,0.78-2.85,2.65-0.98
	c0.59-0.68,1.33-1.28,2.22-1.82c-1.36-2.56,3.87-4.41,5.31-2.03c0.68-0.56,1.43-1.2,2.27-1.92c0.13-3.28,6.83-7.13,9.45-4.81
	c0.57-0.69,1.29-1.32,2.18-1.88c-1.02-2.64,2.06-3.45,3.49-1.09l2.21-1.79c-0.46-2.57,3.03-4.28,4.53-1.94l2.2-1.9
	c0.01-2.71,0.74-2.99,2.58-0.99l2.34-1.89c-1.37-2.54,3.86-4.44,5.34-2.05l2.21-1.81c-1.4-2.51,3.06-4.23,4.59-1.94
	c0.58-0.68,1.29-1.31,2.15-1.89c0.18-2.61,0.75-2.82,2.63-0.98l2.23-1.89c-0.96-2.99,8.1-7.01,10.19-4.83
	c0.65-0.69,1.42-1.32,2.31-1.89c-0.29-2.66,4.03-4.53,5.39-1.96c0.64-0.66,1.37-1.29,2.21-1.89c-0.51-2.58,1.07-3.16,2.63-0.97
	c1.25-1,2.64-1.95,4.17-2.87c0.47-2.9,7.96-7.26,10.21-4.82c0.59-0.7,1.34-1.33,2.25-1.9c-0.39-2.54,0.55-2.59,1.8-0.38l2.76-2.24
	c-1.15-1.53-0.65-2.09,1.02-1.18l1.93-2.04c-1.69-3.25,4.06-10.16,7.54-8.57c1.23-1.58,5.05-0.85,6.1,0.95
	c1.74-2.67,8.89,1.17,9.17,3.87l2.31,1.88c1.42-2.37,3.48-1.72,3.46,1l2.28,1.79c0.17-0.87,0.45-0.83,0.82,0.04l1.13,1.03
	c1.71-2.67,9.03,1.25,9.31,3.87l2.19,1.78c0.23-0.87,0.5-0.84,0.82,0.03l1.03,0.98c1.71-2.09,3.28-1.63,3.62,1.04l2.21,1.79
	c0.17-0.87,0.45-0.84,0.82,0.03l1.15,1.02c0.81-2.64,2.89-1.7,2.58,0.99l2.12,1.85c1.43-2.25,2.27-1.6,1.77,1.01l2.18,1.83
	c1.94-1.82,4.05-0.56,3.59,2.01l2.16,1.93c0.48-0.58,1.26-1.38,1.76-1.15c2.9,1.34,8.21,5.06,11.01,7.07
	c3.52,1.44,5.26,3.31,5.2,5.62c0.43,1.09,1.17,1.4,2.22,1.82c2.51-1.12,8.84,1.72,7.45,4.91c2.87,2.01,6.08,2.66,8.75-0.02
	c-0.39-1.91,0.36-2.34,1.74-0.93l2.15-1.91c0.08-2.96,2.25-4.15,4.5-2.03l2.15-1.85c-0.77-2.88,1.34-3.74,3.7-1.92l2.15-1.88
	c0.18-2.6,0.75-2.82,2.63-0.98l2.2-1.9c-0.19-0.75-0.46-1.85,0.02-2.21c2.35-1.73,16.32-9.61,18.71-10.34l2.12,1.02
	c0.56-0.69,1.28-1.33,2.15-1.91c-1.15-2.5,1.02-3.19,2.58-0.98c1.24-1.04,2.61-1.99,4.11-2.88c-0.4-2.75,0.77-3.09,2.61-1.05
	l2.18-1.84l0.77-2.15c4.33-1.92,8.39-4.38,12.18-7.38l2.23,0.9c0.46-0.7,1.18-1.3,2.15-1.8c-0.27-2.73,1.9-2.68,2.6-0.08
	c2.49-0.21,4.56,1.29,4.81,3.82l2.24,1.81l2.31-0.93c22.01,14.4,43.85,28.98,65.53,43.75l0.07,2.38l2.16,1.84l2.01-0.92l14.01,10.11
	c3.38,1.03,4.37,2.44,2.99,4.24c2,0.01,1.32,1.1,0,2.19c-1.1,3.59-6.77,6.11-10.35,6.54c-1.21,0.99-2.64,2.02-4.29,3.08l-3.32,5.42
	c-5.74,7.98-7.66,11.83,0.5,20.32c-0.6,6-2.43,11.89-5.51,17.68c-1.37,16.99-9.87,24.56-25.3,29.06l-0.63,1.08
	c0.73,1.67,0.5,2.91-0.69,3.73c-0.69,1.26-2.21,2.4-4.55,3.4c-1.61,3.09-3.81,4.82-6.58,5.2c-10.37,1.04-20.81,1.19-31.31,0.46
	l-48.79,6.36c-8.94-0.66-17.38-1.14-26.23,0.73c-0.75-2.33-1.24-2.47-1.48-0.43c-22.26-1.06-44.59-1.64-66.98-1.74
	c-6.34-1.94-12.33-2.08-18.8-0.67c-4.5-0.64-8.94-0.22-13.33,1.28c-19.07-0.95-38.11-1.62-57.1-2.03
	c-18.69,1.38-37.35,1.8-55.99,1.26c-6.06-2.25-9.81-1.51-15.63,0.83c-9.25,0.29-18.51,0.88-27.77,1.75
	c-3.3-1.74-6.99-2.15-11.06-1.22c-12.69-1.96-23.66-0.5-36.01,1.7c-15.68-2.29-31.64-2.49-47.88-0.6
	c-19.22-1.78-38.57-2.13-58.04-1.04l-19.65-1.12c-0.04-0.74-0.16-1.42-0.53-1.92c-0.11-0.15,2.23,1.82-1.26,2.02
	c-28.28,1.57-57.83,1.44-86.11-0.65L0,1478.4v-224.64l0.67-2.18c20.87-9.12,41.96-17.61,63.27-25.48L65.39,1227.88z"/>
<path class="st3" d="M1104.77,1233.75c1.54,0.75,2.93,1.63,4.18,2.65c0.08-0.86,0.32-0.81,0.72,0.02c2,0.94,4,1.88,6.02,2.83
	c1.42-2.44,4.34-1.57,4.47,1.17l2.27,1.68c1.79-2.23,3.87-1.74,4.34,1.11c1.78,0.93,3.53,1.83,5.26,2.72
	c1.3-2.6,3.75-1.57,4.37,1.12c1.88,0.8,3.62,1.71,5.23,2.73c0.58-1.8,1.32-1.74,1.6,0.13c2.68,1.23,5.35,2.47,8,3.7
	c0.6-0.76,1.14-0.71,1.6,0.14c1.8,0.86,3.5,1.78,5.11,2.75c0.1-2.55,1.06-2.37,1.62,0.13c2.35,1.11,4.66,2.06,6.94,2.87
	c1.42-2.42,3.05-1.61,3.58,1.06c2.05,1.08,4.1,2,6.13,2.78c0.52-1.81,1.29-1.76,1.55,0.11c14.58,4.39,21.88,6.59,21.88,6.59l0.37,1
	v214.59c-0.5,1.69-2.15,2.39-4.94,2.1c-5.98,1.91-12.23,1.74-18.77-0.51l-7.64,1.75c-7.06-1.3-14.24-1.63-21.53-0.99
	c-5.2-1.79-10.4-3.6-15.6-5.43l-0.57-2.22c-2.76-0.48-2.1-3.56,0.65-3.69c-2.17-1.07-4.1-2.94-5.78-5.61
	c-12.69-9.61-27.58-15.08-44.68-16.4l-38.74-2.92c-13.9-5.78-28.05-10.69-42.46-14.71c-25.87,2.94-51.77,6.46-77.7,10.56l-36.2-3.1
	l-1.65-1.86c-0.96-0.57-2.05-0.83-3.26-0.78c-0.71,2.94-8.81,2.14-9.29-0.77c-0.88,0.22-1.91,0.13-2.34-0.73
	c-0.09,0.75-0.34,1.87-0.87,1.92c-6.11,0.48-25.59,0.87-30.93-0.16l-1.38-1.93c-1.68,0.49-1.69,0.12-0.04-1.11l0.28-2.99
	l13.72-12.19l64.35-67.56l2.33,0.32c0.27-1.1,0.76-1.91,1.46-2.46l57.78-17.79c5.77-2.04,10.9-5.42,15.72-9.12l2.71,0.36l2.9-4.71
	c5.97-5.78,13.81-12.6,21.27-15.59c0.59-0.9,1.44-1.71,2.57-2.42c1.11-4.91,8.29-11.85,13.42-11.74l2.06-1.97
	c-2.17-2,3.4-6.56,5.62-4.76l2.05-1.99c-0.25-2.89,1.55-5.37,5.37-7.43l18.17-11.62l2.2,0.87l4.04-2.9
	c-1.65-2.64,4.83-8.96,7.57-7.6l1.98-2.07l-0.64-2.11c4.59-4.85,9.19-9.7,13.79-14.56l2.33,0.33c1.14-1.44,2.32-2.58,3.54-3.44
	C1103.02,1231.31,1103.9,1231.36,1104.77,1233.75z"/>
<path class="st4" d="M1200,1131.08v68.35l-1.46,1.41l-93.44-47.08l-98.96,16.16c0,0-0.94-0.49-2.83-1.48l-0.59,2.03
	c-22.7,3.46-45.38,6.81-68.05,10.04l-1.63-1.71c-2.16,1.89-3.37,1.87-3.63-0.04l-8.9,0.01c-0.61,2.55-1.55,2.33-2.56-0.06
	c-0.97-0.63-2.35-0.93-4.15-0.91c-0.7,2.52-1.59,2.27-2.53-0.14c-1.85-0.46-3.6-0.93-5.24-1.4c-0.92,2.62-1.72,2.39-2.62-0.12
	c-0.93,0.25-2.52,0.06-3.11-0.94c-0.67,0.39-1.36,0.75-2.08,0.99c-0.68,0.22-1.35,0.41-1.99,0.35
	c-27.73-2.57-62.83-19.04-87.84-31.86l-0.23-2.22l-2.73,0.84l-7.43-2.84c-42.35,22.16-84.4,44.61-126.16,67.35l-155.88,37.22
	c-1.95-0.26-3.91-0.52-5.86-0.77c-0.49,2.57-1.16,2.61-2.02,0.14c-1.18,0.52-2.27,1.03-3.27,1.54c-0.4,1.82-1.15,1.84-1.62,0.03
	c-0.86-0.03-1.6,0.28-2.23,0.93c-0.13,2.82-3.58,3-4.41,0.38c-1.08,0.57-2.18,1.04-3.31,1.42c-0.24,1.8-0.95,1.8-1.68,0.08
	c-1.48,0.13-2.09,0.25-3.07,1c-0.2,2.81-3.66,2.92-4.45,0.29c-0.21,0.92-1.25,1.13-2.12,0.98c-1.26,2.75-2.44,2.79-3.81,0.07
	c-0.92,0.11-1.8-0.4-2.07-1.24l-0.72-0.01c-2.08-1.24-4.08-2.52-6.01-3.83c-0.01,0.83-0.25,0.79-0.71-0.01
	c-0.84-0.54-1.57-1.13-2.18-1.78c-0.35,0.67-1.07,1.59-1.49,1.38c-29.8-15.16-60.19-31.61-89.48-47.64l-1.09-1.94l-1.99,0.17
	l-43.94-24.32c-3.03-1.28-4.09-2.92-3.2-4.92l0.54-1.59c2.96-1.03,6.44-1.15,10.44-0.34c52.4-1.9,104.72-9.79,156.33-23.28
	c6.05-5.71,12.11-11.49,18.17-17.34c5.25-4.16,11.54-5.39,18.89-3.7c25.49,0.29,50.93-0.14,76.33-1.29
	c33.64,2.21,67.38,4.7,101.22,7.48c24.82,0.66,49.47,0.56,73.96-0.28c70.17-8.35,138.9-14.28,209.25-9.78
	c25.35,4.64,50.81,8.56,76.39,11.75c43.9,1.2,88.12,1.1,131.88,0.55L1200,1131.08z"/>
<path class="st5" d="M326.47,1041.26c1.56-0.87,3.33-1.45,5.31-1.73c54.83,1.3,109.9,8.9,163.4,21.07l21.4,18.44
	c28.91-0.53,57.7-0.01,86.35,1.56c35.11-2.33,70.54-4.96,106.3-7.87c20.84-0.33,41.51-0.3,62,0.08
	c71.71,7.15,145.76,13.24,218.55,9.73c27.07-4.77,54.48-8.37,81.82-10.76l127.22-0.35l1.17,1.92v29.79l-0.93,1.92
	c-399.25-0.03-798.54-0.07-1197.87-0.1L0,1103.04v-56.64c1.06-1.81,3.1-2.89,6.12-3.22c11.28-6.07,22.18-7.41,35.07-8.11
	c25.42-1.39,52.32-1.77,77.87-0.9c6.96,0.24,13.86,3.21,19.86,6.55c11.77,7.38,24.3,13.36,37.61,17.94l148.54-19.16L326.47,1041.26z
	"/>
<path class="st6" d="M477.9,965.63c0.19-0.42,0.4-0.76,0.66-0.81c2-0.36,9.86,1.45,12.38,2.07c0.28,0.07,0.52,0.33,0.75,0.64
	c1.03-2.69,7.77-1.89,8.31,1.22c0.57,0.74,2.38,1.19,4.59,1.57c3.88,0.18,7.26,0.85,10.14,2.02l1.07-1.73l155.77,34.46l126.06,60.64
	c2.38-0.14,4.35-1.15,5.91-3.03c0.11-1.86,0.85-1.75,1.11,0.17c2.47,1.08,4.98,0.42,7.54-1.96c0.37-2.8,3-3.53,4.62-1.16
	c1.25-0.96,2.63-1.84,4.15-2.66c0.19-1.78,0.89-1.79,1.63-0.13c2.17-1.41,4.5-2.66,7.01-3.75c0.26-1.87,1.03-1.92,1.54-0.1
	c1.58-1.04,3.29-1.97,5.14-2.81c0.1-0.84,0.35-0.82,0.72-0.01c4.62-2.3,9.39-4.52,14.34-6.67c0.21-0.88,0.55-0.94,1.02-0.16
	c21.5-7.84,45.49-12.76,68.68-15.11c4.34-0.44,9.58-0.97,13.18,0.32c2.37-0.05,4.3,0.37,5.8,1.28c-0.18-2.97,7.79-2.46,8.24,0.4
	c1.53,0.46,2.95,0.92,4.28,1.39c0.29-2.85,2.91-2.51,3.46,0.18c1.49-0.29,2.58-0.03,3.26,0.79l0.91-1.81c0,0,14.1,1.95,42.31,5.86
	l0.86,2.06l5.81-1.04l96.51,15.12c30.74-15.02,61.56-29.76,92.47-44.22l1.88,1.24v63.45l-127.62,0.33
	c-8.22,0.02-54.23,6.17-65.16,7.75c-6.57,0.95-12.78,2.98-19.51,3.14l-35.03,0.8c-24.36,0.55-47.89,0.27-72.32-1.54l-62.68-4.65
	l-45.84-4.44l-44.17-0.42c-17.57-0.17-34.32,1.18-51.77,2.72l-32.66,2.89l-40.33,2.59l-27.91-1.5l-59.32-0.06l-21.29-18.65
	l-34.51-7.23l-58.67-9.18l-53.88-4l-20.87-0.63c-2.72-1.62-0.27-3.06,2.3-4.19c13.04-6.29,25.94-12.82,38.72-19.59l4.85-0.66
	c-0.06-2.99,2.23-3.5,3.85-1.14c1.61-0.98,3.28-1.93,5.02-2.84c0-0.88,0.25-0.85,0.71,0c1.21-1.05,2.6-1.99,4.16-2.81
	c0.46-0.83,0.99-0.87,1.57-0.12c2.23-1.47,4.58-2.76,7.05-3.87c0-0.86,0.25-0.83,0.71-0.01c1.5-1.09,3.18-2.05,5.05-2.87
	c0.08-0.85,0.32-0.82,0.71-0.01c2.23-1.36,4.53-2.61,6.91-3.75c0.1-0.87,0.34-0.85,0.71-0.01c2.29-1.3,4.61-2.58,6.96-3.83
	c-0.01-0.89,0.24-0.85,0.71-0.01c2.43-1.16,4.8-2.44,7.11-3.86c-0.17-1.96,0.73-1.99,1.53-0.11c3.93-2.17,7.88-4.35,11.85-6.54
	c0.44-0.88,0.93-0.91,1.48-0.1c0.67-0.65,1.46-1.25,2.37-1.79c0.28-1.83,1.01-1.88,1.56-0.12c1.92-1.36,3.95-2.61,6.1-3.74
	c-0.25-2.54,0.73-2.49,1.63-0.09c4.9-2.6,9.78-5.14,14.64-7.63c0.09-0.9,0.33-0.88,0.71-0.01c0.62-0.68,1.37-1.29,2.25-1.83
	c0.12-2.77,1.87-3.35,3.53-1.1c1.54-1.07,3.23-2.03,5.06-2.86C475.9,963.19,476.44,963.14,477.9,965.63z"/>
<path class="st7" d="M1200,1103.14v27.94l-35.28,0.34l-11.78-0.01l-30.29,0.17c-5.32,0.03-10.35-0.15-15.8-0.25l-40.33-0.79
	l-20.99-2.93l-25.99-3.53l-28.16-5.12c-8.04-1.46-76.93-1.99-88.03-1.27l-20.92,1.35l-55.49,4.39c-13.16,1.04-25.67,2.06-38.78,4.36
	c-3.71,0.65-7.84,0.9-11.64,0.96l-48.08,0.73c-21.7,0.33-42.43-2.75-64.02-4.08l-15.39-0.95l-17.37-1.28
	c-15.46-1.14-30.31-2.8-45.68-1.37c-19.02,1.76-37.39,1.07-56.45,0.89c-4.13-0.04-9.65-1.47-13.33,0.41
	c-8.79,4.49-19.53,19.68-23.21,20.55l-18.87,4.42c-14.39,3.38-28.24,6.63-42.77,8.87c-7.99,1.24-15.66,2.18-23.53,4.39l-31.49,3.03
	l-40.07,2.63c-3.88,0.25-7.66-1.69-11.07,0.01l-0.94,1.8l-146.54-21.51c0,0-10.17,4.46-30.51,13.38c-7,6.46-19.56,12.92-29.16,13.35
	c-27.83,1.23-58.76,0.19-86.49-2.24c-9.71-0.85-16.65-3.51-25.11-7.37c-2.7-0.41-4.86-1.35-6.45-2.82v-58.56L1200,1103.14z"/>
<path class="st8" d="M636.81,1466.59c0.87-1.74,1.57-1.56,1.66,0.36c1.27,1.96-0.18,3.9-4.35,5.81c-0.95,1.42-2.11,2.39-3.49,2.93
	c1.48,2.97,4.55,5.56,9.21,7.79l-0.53,2.32c0.47-0.08,0.47,0.32,0.01,1.2c-0.37,1.93-0.55,2.89-0.55,2.89
	c9.25,2.9,16.46,8.04,21.6,15.42c4.28,13.69,9,27.3,14.16,40.82c1.7,3.9,1.5,6.56-0.59,7.99c2.92,0.41,0.9,7.19-1.93,6.91
	c-0.94-0.13-2.67-0.09-3.32-1.37c-4.73-9.26-5.04-2.17-7.05-15.02L0,1544.64v-66.24c5.73-0.77,11.43,1.13,17.52,1.19l20.87,0.22
	c6.66,0.07,12.61,0.18,19.22-0.38c-3.42,0.29,35.35-0.52,31.5-0.65l8.79,0.3c5.68,0.19,11.35,1.38,17.34,0.6
	c7.72-1.02,15.22,0.4,22.89,0.07c5.36-0.23,9.58-0.87,15.37-0.18l10.12,1.2c5.15,0.61,10.66-0.4,15.79-0.55l19-0.58
	c4.41-0.13,6.98-0.12,11.17,1.18c3.28,1.02,9.29,0.99,12.54-0.03c11.52-3.61,16.33-1.31,29.1-0.93c3.64,0.11,7.02-1.57,10.48,0.87
	c2.55,1.8,13.63-0.81,17.59-1.43c4.35-0.68,9.47,1.19,13.4-0.8c4.06-2.06,6.7-1.86,10.92-0.46c4.59,1.52,10.13-0.76,14.81,0.52
	c2.63,0.72,4.61,0.46,7.18,0.02c4.16-0.71,25.41,0.53,28.53-0.39c6.82-2.03,12.78-0.13,19.11-0.49c4.96-0.28,8.83-0.84,14.06,0.23
	c8.33,1.7,17.37-0.07,26.05,0.95c2.98,0.35,7.42,0.9,9.85-0.54c3.52-2.08,6.49,0.11,9.48-0.41c5.77-1.01,10.21-1.57,15.9,0.24
	c5.63,1.79,27.97,0.9,35.27,0.8c-1.89,0.03,42.02,1.03,34.67,1.96l11.99-1.52c5.06-0.64,11.15,1.42,16.26,0.53
	c3.84-0.67,7.01-1.02,11.09-1.55l21.95-2.82c7.98-1.03,15.99-2.64,24.07-1.79c5.8,0.61,10.6,1.08,16.39-0.02
	c4.03-0.76,7.99,0.66,10.54-4.21C631.78,1467.7,635.01,1467.11,636.81,1466.59z"/>
<path class="st0" d="M325.2,1166.99c2.01,2.26,4.93,3.71,7.95,5.37l36.46,19.99c2.01,1.1,4.12,1.66,4.72,3.71l0.94,2.13
	c-16.75,8.61-33.67,16.98-50.76,25.12l-1.87-1.22l0.27,2.01l-38.67,19.29l-2-1.11l0.01,2.1l-43.31,19.99
	c-41.64-17.98-83.19-36.29-124.64-54.93l-45.88,19.25l-3.02-0.81c-2.1,0.12-4.41,0.86-6.83,1.85L0,1253.76v-92.16
	c4.81-1.61,16.02,5.71,22.59,6.95c13.51,2.56,26.74,2.08,40.39,2.97c18.46,1.19,36.49,0.6,54.91,0.6
	c10.87-1.92,20.41-5.57,28.26-13.03c10.44-5.25,20.39-9.9,31.3-13.65L325.2,1166.99z"/>
<path class="st0" d="M282.13,975.57l1.4-1.46c12.86,6.06,25.73,12.11,38.59,18.17l0.21,2.22l1.6-1.38
	c15.83,7.4,31.81,14.48,47.94,21.24l0.47,2.46c-14.12,8.72-29.72,14.96-44.71,23.04c-0.76,0.41-1.06,0.93-1.15,1.41l-121.9,15.87
	l-28.46,3.35c-9.73-4.66-20.44-6.97-29.52-12.78c-8.98-5.74-17.41-11.25-28.76-11.68c-17.23-0.65-34.38-0.6-51.81,0.41
	c-14.98,0.87-29.68-0.5-44.48,2.76c-7.6,1.67-14,6.99-21.55,7.21v-78.72c3.56-0.15,6.93,1.54,10.62,2.91l46.96,17.46
	c3.31,1.23,6.77,1.95,9.62,2.63l2.67-1.03l44.7,16.94L232.88,957l6.61-2.04c13.93,5.95,27.66,12.12,41.18,18.53L282.13,975.57z"/>
<path class="st8" d="M1200,1485.63v59.11l-436.67,0.07l-1.56-1.8c3.58-12.1,3.45-23.65-0.39-34.64l0.85-2.2
	c3.2-1.21,4.79-1.82,4.79-1.82c34.16,2.67,68.29,4.03,102.39,4.08l53.22-4.2l68.25,10.34l8.57,0.33c15.12-4,29.94-8.93,44.47-14.81
	l35.68-2.22c17.04-2.07,35.98-4.99,48.69-17.44l2.65-0.11l8.36,2.8c4.54,1.52,5.73,3.46,10.23,2.84c4.15-0.57,9.28,0.26,13.82,0.04
	c2.59-0.12,4.64,2.03,7.64,0.47c1.99-1.04,5.26-1.54,7.55-0.91C1194.25,1489.84,1188.9,1484.98,1200,1485.63z"/>
<path class="st0" d="M1200,1199.43v69.69l-1.01,0.83c0,0-7.08-2.16-21.24-6.49l-1.55-0.11c-1.63-0.59-3.68-1.52-6.13-2.78
	c-1.23-0.16-2.41-0.76-3.58-1.06c-2.39-0.86-4.7-1.82-6.94-2.87l-1.62-0.13c-1.81-0.89-3.51-1.8-5.11-2.75
	c-0.53-0.01-1.08-0.07-1.6-0.14c-2.71-1.28-5.38-2.52-8-3.7c-0.51-0.12-1.08-0.05-1.6-0.13c-1.77-0.96-3.51-1.87-5.23-2.73
	c-1.49-0.07-2.91-0.88-4.37-1.12c-1.83-0.85-3.59-1.76-5.26-2.72c-1.45-0.37-2.92-0.64-4.34-1.11c-0.89-0.46-1.64-1.02-2.27-1.68
	c-1.53-0.22-2.97-0.81-4.47-1.17c-2.12-1-4.12-1.94-6.02-2.83c-0.23-0.05-0.48-0.01-0.72-0.02c-1.46-0.89-2.85-1.77-4.18-2.65
	l-1.89,0.12c-0.95,1.36-1.69,1.64-1.72-0.18c-0.57,0.49-1.29,0.86-2.05,0.62c-8.4-2.61-17.81-7.62-25.33-12.34
	c-1.15-0.72-8.45-5.71-8.77-6.14c-0.5-0.67-0.54-1.52-0.48-2.33c-2.64,1.01-5.7-1.48-6.59-3.96l-2.97-0.21
	c-16.77-12.64-33.78-24.81-51.04-36.52c-1.98-1.45-2.82-2.83-0.62-4.38l102.13-16.67L1200,1199.43z"/>
<path class="st0" d="M1200,947.64v62.26l-74.91,35.49c-6.63,3.14-12.14,6.59-19.16,9.34l-102.59-15.93l0.58-2.17
	c17.4-10.47,34.44-21.48,51.12-33.01l2.14-0.33c0.25-2.28,3.85-3.58,6.01-3.81c-0.06-0.77,0.13-1.48,0.75-1.98
	c2.43-1.95,6.42-4.38,9.21-6c3.3-1.92,22.42-11.11,26.33-11.48l2.54,1.06l67.36-24.78C1179.63,952.52,1189.91,950.53,1200,947.64z"
	/>
<path class="st8" d="M1200,1269.12v1.92c0,0.36-26.27-6.45-22.24-7.58C1185.42,1264,1192.31,1268.53,1200,1269.12z"/>
<path class="st2" d="M824.68,768.05l1.14,1.75c0,0-1.14,12.77-3.42,38.31l24.8,16.65c7.33,10.33,16.46,24.11,20.32,36.2l14.06,71.58
	l17.04,19.92l10.27,53.24c6.44,4.51,12.65,9.33,18.61,14.44l0.66,3.32c2.05,1.27,3.04,2.78,2.96,4.53
	c-26.63,1.22-54.12,6.51-78.77,15.45c-0.34,0.01-0.68,0.12-1.02,0.16c-4.89,2.16-9.67,4.39-14.34,6.67
	c-0.24,0.01-0.48,0.03-0.72,0.01c-1.62,0.94-3.33,1.87-5.14,2.81l-1.54,0.1c-2.4,1.1-4.74,2.35-7.01,3.75
	c-0.47,0.16-1.13,0.12-1.63,0.13c-1.31,0.89-2.69,1.77-4.15,2.66c-1.54,0.37-3.05,0.9-4.62,1.16c-2.12,1.64-5.06,3.61-7.54,1.96
	l-1.11-0.17l-1.67,1.15l-62.58-46.44c-10.26-15.47-11.35-27.08-5.23-44.79c3.17-9.22,5.32-18.61,6.44-28.16
	c-0.42-17.39-2.16-34.72-5.22-51.99l21.62-54.15c-10.95-4.87-22.25-9.38-33.9-13.54c-7.54,8.85-16.09,18.01-25.65,27.5
	c-7.44,4.36-15.09,8.38-22.93,12.06l-33.46,27.83c-3.21,15.16-8.35,25.9-21.8,34.46l-2.02-0.25l-28.83-17.83l0.05-2.23
	c9.02-7.36,19.4-13.03,29.62-19.4c6.9-4.3,12.99-8.37,19.75-13.07l68.97-48c3.46-2.41,37.89-41.06,45.09-45.18l56.03-32.07
	C813.89,755.97,820.23,760.96,824.68,768.05z"/>
<path class="st9" d="M803.54,1062.69c0.35,1.66,0.02,3.32-1.49,3.79c-1.39,0.43-3.39,1.83-5.24,0.95l-72.76-34.67l-53.08-25.87
	l-156.24-34.54c-2-0.44-2.38-1.06-0.49-2.06c-3.08-0.41-2.73-3.54,0.18-4.42c-0.16-1.1-0.08-2.61,0.83-3.22l-1.74-2.67l2.98-20
	l-14.75-36.06c1.48-12.58,3.12-25.15,4.91-37.7l2.19-2.21c2.79-1.36,4.11,0.07,6.98,1.72l66.19,38.23c2.29,1.32,4.09,2.64,6.34,2.36
	l30.35,18.76c19.23-18.06,12.22-9.18,20.7-33.95l32.44-27.23c7.09-5.95,17.19-7.14,24.28-13.11c10.02-8.44,17.05-19.31,26.5-28.22
	l36.98,14.15l-22.46,55.91l2.12,14.61c7.77,53.55,0,41.94-7.01,83.33c-0.77,4.56-0.58,7.19,1.53,11.48l6.91,14.11L803.54,1062.69z"
	/>
<path class="st9" d="M916.78,860.23l2.1,1.54l3.88,38.22c6.41,2.73,12.56,5.91,18.45,9.54l42.34,45.88l71.73,43.67
	c2.39,1.16,3.02,2.57,1.88,4.22c-0.24,1.23-1.16,2.56-2.61,3.49l-42.06,26.95c-3.19,2.04-5.85,4.3-9.17,5.07l-44.07-6.1
	c-0.93-0.6-2.01-0.86-3.26-0.79l-3.46-0.18c-1.38-0.39-2.8-0.85-4.28-1.39l-8.24-0.4c-1.38-0.85-3.41-1.29-6.1-1.31
	c-3.17-0.42-4.18-1.24-3.05-2.45l-2.69-2.71c-6.09-6.25-13.57-10.79-20.8-16.74l-10.41-53.39l-17.09-20l-14.21-71.88
	c-0.53-2.66-15.55-32.94-21.18-36.5c-8.05-5.1-15.84-9.93-23.6-15.98l2.93-34.26c0.21-2.47-0.64-5.02,0.86-6.67
	c3.03,0.96,5.13,4.38,7.85,6.47c11.8,9.04,21.18,19.3,31.41,30.08L916.78,860.23z"/>
<path class="st2" d="M281.45,836.29l1.96,0.98c-1.5,9.55-2.47,19.1-2.92,28.64l11.23,27.24l-7.87,46.54
	c7.7,9.91,4.28,21.68,0.85,33.28l-2.57,2.6c-13.86-6.53-28.69-11.46-42.88-18.81c-6.16,1.85-10.42,4.26-16.15,6.65l-108.88,45.41
	L67.2,990.68c0.99-1.33,2.38-2.43,4.08-3.69l61-45.4l32.42-23.41l41.07-41.09l44.77-19.81l26.51-18.56
	C278.48,837.4,279.84,836.5,281.45,836.29z"/>
<path class="st2" d="M508.84,864.01l-5.26,39.58l14.93,36.27c-0.83,8.02-2.93,15.29-3.26,22.8c-0.49,0.82-0.77,1.9-0.83,3.22
	c-0.14,1.41-0.52,3-0.18,4.42c-0.2,0.55-0.41,0.99-0.69,1.03c-3.27,0.57-10.52-1.07-13.54-2.57l-8.31-1.22
	c-0.22-0.34-0.45-0.63-0.74-0.7c-2.51-0.62-10.45-2.36-12.45-2.01c-0.24,0.04-0.43,0.38-0.61,0.8l-1.62,0.14
	c-1.66,0.89-3.35,1.84-5.06,2.86c-1.18,0.35-2.33,0.83-3.53,1.1c-0.65,0.59-1.4,1.2-2.25,1.83c-0.22-0.01-0.51-0.08-0.71,0.01
	c-4.96,2.45-9.84,4.99-14.64,7.63l-1.63,0.09l-6.1,3.74c-0.49,0.12-1.06,0.07-1.56,0.12l-2.37,1.79c-0.49,0-0.99,0.08-1.48,0.1
	c-3.92,2.18-7.87,4.36-11.85,6.54c-0.48,0.02-1.08-0.05-1.53,0.11c-2.23,1.43-4.6,2.72-7.11,3.86c-0.23,0.02-0.49-0.06-0.71,0.01
	c-2.28,1.21-4.61,2.49-6.96,3.83c-0.23,0.05-0.49-0.06-0.71,0.01c-2.33,1.11-4.63,2.36-6.91,3.75l-0.71,0.01
	c-1.66,0.88-3.35,1.84-5.05,2.87c-0.23,0.05-0.48-0.02-0.71,0.01c-2.34,1.09-4.69,2.38-7.05,3.87c-0.5,0.09-1.07,0.12-1.57,0.12
	l-4.16,2.81c-0.23,0.03-0.48-0.06-0.71,0c-1.62,0.93-3.29,1.87-5.02,2.84c-1.15,0.46-2.8,0.49-3.85,1.14
	c-3.27-2-7.14-2.88-10.96-4.61l-39.04-17.7c-1.89-1.33-1.42-3.13,1.41-5.4l74.94-67.47c10.46-5.86,15.69-8.79,15.69-8.79l2.38,1.06
	c15.16-6.34,31.59-11.24,45.8-20.52l41.12-26.87L508.84,864.01z"/>
<path class="st9" d="M416.76,913.9c-5.17,2.16-11.92,5.9-16.91,9.25l-73.64,66.29c-1.84,1.65-3.42,3.14-3.88,5.06l-40.2-18.93
	c1.81-8.06,4.05-16.32,4.78-24.93c-0.37-3.83-3.93-6.96-4.95-10.84l7.9-46.84l-10.75-24.88c-2.76-6.39,2.89-24.18,2.33-31.79
	c1.94-0.25,4.31-0.42,6.18,1.14c3.84,3.21,8.06,4.7,12.46,7.02l73.38,38.73l25.83,13.45c5.42,2.82,9.91,5.67,13.42,10.79
	C414.21,909.6,417.28,911,416.76,913.9z"/>
<path class="st2" d="M994.8,889.83l1.53,1.48c3.5,14.02,6.43,28.23,8.79,42.64l30.45,19.75c6.99,13.03,14.42,25.76,22.29,38.17
	c4.81,2.21,6.59,4.75,5.33,7.61c-0.88,2.54-3.42,3.73-6.01,3.81c-2.02-2.56-5.08-3.79-8.18-5.68l-66.67-40.75l-41.38-44.91
	c-5.21-5.65-13.84-6.13-19.76-11.07l-4.4-40.65c13.12,2.98,25.82,7.68,39.09,11.81c10.35,3.22,20.31,6.33,30.03,11
	C989.42,884.98,993.22,886.49,994.8,889.83z"/>
<path class="st9" d="M1102.02,981.07l-16.46,6.54c-6.68,2.65-12.78,5.88-18.41,10.35c-1.29,1.03-2.65,1.56-3.95,1.52
	c-3.56-7.07-4.91-1.34-11.16-12.56l-17.76-31.87l-30.82-19.64l-8.65-45.59c2.42,0.38,4.07,2.49,6.17,4.31l51.37,44.5l23.85,15.7
	c4.39,2.89,7.16,7.4,10.79,11.16L1102.02,981.07z"/>
<path class="st1" d="M669.14,1493.5c1.13,6.02,2.4,11.86,8.63,15.03c3.4,8.58,7.47,16.74,12.23,24.48l32.35-28.41l4.49-1.39
	l3.16-2.07c5.8-0.52,27.65,0,31,3.36c0.48,0.49,0.88,1.06,1.24,1.67c6.69,9.21,3.53,28.16,1.1,38.63c-0.2,0.85,0.01,1.83-0.27,2.64
	c1.01,1.69,0.69,2.7-0.97,3.05c-9.38,0.24-18.78,0.2-28.2-0.14l-1.33-1.94c-1.77-0.73-2.5-2.42-2.18-5.08l-26.48,16.5
	c-1.96,0.9-4.19,0.85-6.69-0.17c-0.57,0.72-1.27,1.44-2.21,1.63c-0.99,0.2-17.97-4.4-19.47-5.11l-1.58-2.05
	c-0.1-9.83-9.48-27.07-11.65-35.97c-1.33-5.45-2.08-11.01-6.05-15.5c-9.89-11.19-26.27-9.66-16.92-15.65
	c0.12-0.64,0.31-1.19,0.99-1.28c2.78-2.09,6.41-2.44,10.89-1.06c2.18,0.27,16.63,2.27,17.78,3.33
	C670.75,1489.64,671.97,1492.72,669.14,1493.5z"/>
<path class="st7" d="M757.73,1610.08c-1.96,0.09-2.06-0.81-1.91-2.44c-2.75,4.08-7.27,4.25-13.57,0.51l-7.08-0.18l-1.74-1.72
	c-0.57-0.44-1.77-0.58-2.48-1.43c-6.76-8.11-14.44-14.76-21.73-21.78c-2.92-1.47-5.56-3.39-7.94-5.75
	c-7.68-3.65-15.2-7.54-22.56-11.67c-2.4-0.92-5.72-1.95-6.72-4.57l1.93-6.91c7.81,0.31,15,4.62,23.26,5.53
	c2.44,0.31,9.36,1.29,11.22,2.58c0.73,0.5,0.92,1.53,1.06,2.43l3.05-0.56l12.08,8.18l1.82-16.95l2.07-2.89
	c-2.34-2.32,1.47-6.15,4.06-4.03l24.67,0.43c2.42,0.04,4.35,0.61,5.82-1.4c-0.65,1.88,2,2.69,2.46,4.28
	c1.17,4.13,0.22,8.59,0.82,12.83c2,14.08-1.76,27.23-8.44,39.47C757.06,1605.56,760.56,1609.39,757.73,1610.08z"/>
<path class="st6" d="M757.73,1610.08c0.1,4.04-2.38,7.21-4.62,10.76c-2.58,4.07,2.1,13.14-5,19.79c-5.38,5.05-19.52,4.24-21.3-2.95
	c1.78-3.41,3.08-7.1,3.9-11.06c3.13-3.54,3.02-6.82,2.58-11.34l1.87-1.38c-0.06-2.67-1.47-5-1.71-7.64
	c13.06-1.83,12.89,3.42,18.59,2.82c1.44-0.15,1.83-3.23,3.72-3.81C758.21,1604.5,757.71,1608.75,757.73,1610.08z"/>
<path class="st8" d="M735.15,1613.9c0.08,3.22,0.6,6.53-0.29,10.03c-5.52,5.26-1.51,12.18-8.05,13.75
	c-0.87-3.52-3.66-7.23-3.37-11.32c-0.56,7.79,3.02-19.61,2.86-12.82C729.3,1613.31,732.36,1614.43,735.15,1613.9z"/>
<path class="st6" d="M709.23,1583.05c-2.19,0.21-4.58-0.51-6.78-1.84l-20.89-12.59c-1.42-0.86-2.65-1.48-2.82-2.99
	c0.76-0.26,1.81-0.38,3,0.19l19.97,9.53C705.74,1577.28,706.74,1580.65,709.23,1583.05z"/>
<path class="st9" d="M808.15,1142.47l0.48,2.06c-19.68,15.07-39.18,30.44-58.49,46.09c-10.34,5.4-16.18,18.29-16.51,29.47
	l11.4,48.97l-4.02,35.86l-2.04,0.91l-0.65,1.94c-4.07,0.46-7.93,1.67-11.58,3.63c0.73,3.8,0.06,7.82-2.03,12.07
	c1.29,3.12,2.18,6.34,2.68,9.65c4.38-0.23,6.96,1.11,7.72,4.02c3.01,1.5,1.89,6.28-1.38,6.68l-0.91,3.22
	c-7.18,7.01-14.24,14.15-21.19,21.41l-3.3,0.35c-1.71,1.78-4.08,4.09-5.64,1.18l-2.56,1.04c-5.46-0.24-28.63-15.59-34.08-19.61
	c-5.75-4.25-22.57-17.81-26.45-22.93c-1.72-2.26-3.01-4.7-3.86-7.42c-2.22-11.14-7.18-20.37-17.23-25.83
	c-9.24,5.98-18.66,11.37-28.26,16.17l-2.6,0.08l-2.15,1.8c-5.05,2.89-9.68,7.63-15.18,8.64c-0.51,0.68-1.23,1.29-2.18,1.84
	c-0.93,0.04-1.73,0.9-2.61,1.05c-1.32,0.93-2.69,1.89-4.11,2.88l-2.58,0.98c-0.61,0.65-1.33,1.28-2.15,1.91l-20.85,11.53
	c-0.62,0.62-1.36,1.25-2.2,1.9c-0.88,0.28-1.7,0.82-2.63,0.98c-0.62,0.63-1.34,1.26-2.15,1.88c-1.34,0.39-2.5,1.24-3.7,1.92
	c-0.47,0.71-1.19,1.33-2.15,1.85c-1.63,0.37-2.92,1.54-4.5,2.03c-0.61,0.64-1.33,1.28-2.15,1.91c-0.62,0.16-1.14,0.72-1.74,0.93
	c-1.4,1.72-4.95,2.82-5.75,0.53l-1.88-1.38c-1.65-12.07-3.21-24.15-4.67-36.24c4.14-13.76,8.72-27.41,13.75-40.94
	c1.16-8.36-3.57-24.86-6.01-33.2c1.31-1.17,3.24-0.57,5.48-1.11l155.53-37.1l48.18-26.17l78.4-41.43
	C801.86,1139.36,804.94,1140.98,808.15,1142.47z"/>
<path class="st10" d="M282.23,1242.27c4.33,5.87,5.8,16.07,6.44,23.6c-0.78,3.99-2.3,7.92-4.56,11.78l7.79,48.92l-11.31,27.6
	c0.38,9.11,1.18,18.28,2.41,27.51l-1.71,2.53c0.42,1.6-1.44,1.38-2.02,0.03c-1.06-1.5-3.04-1.89-4.51-2.91l-2.2-1.82l-13.55-9.49
	c-2.57-1.8-5.63-2.64-7.46-4.94l-4.03-2.74c-1.57-0.04-3.12-0.58-4.57-1.12l-1.02-0.99c-0.24-0.08-0.56-0.04-0.81-0.03l-2.32-1.78
	l-1.54-0.1c-0.9-0.49-1.65-1.1-2.25-1.81c-1.48-0.61-3.38-0.66-5.1-1.61c-3.38-1.86-6.57-3.32-9.91-4.28
	c-0.91-0.48-1.65-1.08-2.22-1.81c-1.21-0.23-2.38-0.7-3.56-1.05l-2.25-1.82c-4.6-1.4-8.18-4.66-11.79-8.26
	c-6.21-6.19-39.43-40.32-44.57-40.8l-2.09-1.81c-2.09-2.18-5.59-3.42-8-5.53c-6.17-5.41-12.47-9.58-19.01-14.62l-61.13-47.04
	l48.92-20.51l124.44,55.22L282.23,1242.27z"/>
<path class="st10" d="M466.39,1244.26l2.18,1.78c0.22,0,0.49-0.06,0.71,0.01c2.02,1.29,4.02,2.57,6.01,3.83
	c0.22,0.05,0.49,0.03,0.72,0.01c0.58,0.61,1.26,1.02,2.07,1.24c1.19,0.15,2.63,0.01,3.81-0.07c0.8-0.03,1.5-0.36,2.12-0.98
	l4.45-0.29c0.52-0.86,1.54-1.2,3.07-1c0.54,0.04,1.13-0.16,1.68-0.08c1.09-0.52,2.19-0.99,3.31-1.42l4.41-0.38
	c0.25-0.98,1.31-1.14,2.23-0.93c0.53,0.04,1.09-0.09,1.62-0.03c0.95-0.65,2.04-1.16,3.27-1.54c0.58,0.01,1.47-0.05,2.02-0.14
	c1.05,0,1.7,0.06,2.31,0.45c1.56,0.99,6.6,30.58,5.47,33.75l-13.38,37.76c-1.51,4.26,5.05,33.53,4.4,39.81
	c-0.57,0.99-1.57,0.82-3-0.51c-1.73-2.31-5.82-2.47-7.45-4.91c-0.99-0.28-1.99-0.77-2.22-1.82l-17.96-11.53
	c-0.86-0.55-1.58-1.19-2.16-1.93c-1.32-0.43-2.48-1.21-3.59-2.01l-2.18-1.83c-0.64-0.24-1.14-0.94-1.77-1.01
	c-0.85-0.53-1.55-1.15-2.12-1.85l-2.58-0.99l-1.15-1.02c-0.24-0.09-0.57-0.03-0.82-0.03c-0.89-0.47-1.63-1.07-2.21-1.79
	c-1.24-0.17-2.47-0.54-3.62-1.04l-1.03-0.98c-0.24-0.08-0.56-0.04-0.82-0.03c-0.91-0.45-1.64-1.05-2.19-1.78
	c-3.4-0.55-6.07-2.87-9.31-3.87l-1.13-1.03c-0.23-0.09-0.57-0.04-0.82-0.04c-0.91-0.49-1.67-1.09-2.28-1.79
	c-1.18-0.22-2.31-0.67-3.46-1l-2.31-1.88c-3.33-0.61-5.97-2.92-9.17-3.87c-1.4-1.44-3.26-2.06-5.61-1.87l-0.36-1.09
	c-0.44,0.61-1.18,1.49-1.66,1.28c-17.71-7.72-31.55-20.33-44.51-34.78l-48.27-43.84c-1.81-1.85-3.1-3.56-0.53-5.13l48.26-23.53
	c1.55-0.75,3.04-1.06,3.43-2.5c1.67-0.19,2.92,0.54,4.72,1.5L466.39,1244.26z"/>
<path class="st9" d="M322.64,1222.08c-0.06,2.09,1.64,3.61,3.41,5.22l45.75,41.49c10.1,9.16,18.02,20.61,29.74,27l16.06,8.76
	c2.74,0.47,2.39,1.38-0.13,2c-3.09,2.25-5.39,5.43-7.54,8.57l-1.93,2.04c-0.24,0.44-0.83,0.72-1.02,1.18l-2.76,2.24l-1.8,0.38
	l-2.25,1.9c-3.55,1.28-6.54,3.86-10.21,4.82c-1.32,0.94-2.71,1.9-4.17,2.87c-0.88,0.14-1.7,0.92-2.63,0.97
	c-0.59,0.64-1.33,1.27-2.21,1.89c-1.85,0.49-3.5,1.58-5.39,1.96l-2.31,1.89l-10.19,4.83l-2.23,1.89c-0.88,0.28-1.7,0.81-2.63,0.98
	c-0.62,0.64-1.33,1.27-2.15,1.89l-4.59,1.94c-0.55,0.66-1.29,1.26-2.21,1.81l-5.34,2.05l-2.34,1.89c-0.9,0.17-1.73,0.69-2.58,0.99
	l-2.2,1.9c-1.52,0.62-2.92,1.55-4.53,1.94c-0.52,0.65-1.26,1.24-2.21,1.79l-3.49,1.09l-2.18,1.88c-3.34,1.2-6.23,3.32-9.45,4.81
	c-0.52,0.71-1.27,1.35-2.27,1.92l-5.31,2.03c-0.63,0.59-1.37,1.19-2.22,1.82c-0.89,0.27-1.73,0.78-2.65,0.98
	c-0.46,0.63-1.2,1.22-2.21,1.77c-0.95,0.1-1.76,0.89-2.64,1.07c-0.43,0.68-1.16,1.27-2.18,1.78c-2.34,0.55-4.27,2.65-6.48,3.06
	c-0.55,0.69-1.26,1.33-2.13,1.9c-1.44,0.57-2.94,0.92-4.5,0.99c-1.48-0.35-2.43-0.99-1.06-2.06c-3.41-41.34-6.65-19.04,8.75-57.89
	l-7.84-48.7c0.13-3.86,5.07-7.47,4.55-11.6c-1.04-8.13-2.92-16.01-4.53-23.74l5.73-3.03L322.64,1222.08z"/>
<path class="st1" d="M671.76,1389.3c1.19,0.69,1.82,2.04,1.89,4.04L675,1395l23.16-5.7l1.8,1.53l3.1-0.38l27.45,16.37
	c-0.34-2.23,0.33-3.61,2.01-4.15c0.64-0.57,1.29-1.12,2.02-1.54c0.7-0.41,1.39-0.78,2.11-0.87c8.26-0.98,19.01-2.12,26.26,1.42
	c0.77,0.1,1.94,0.28,2.05,0.84c1.24,6.27,3.2,18.9,3.06,24.94c-0.11,4.65-0.6,13.46-4.92,15.33c1.72,1,0.53,2.45-1.06,2.75
	c-0.07,0.77-0.19,1.94-0.72,2.07c-7.78,1.92-25.08,4.32-32.06,2.3c-1.11-0.32-1.89-1.36-2.57-2.3l-3.28-0.81
	c-11.39-9.62-22.61-19.46-33.67-29.53c-4.06,11.13-9.75,20.94-17.07,29.44c-3,4.44-2.98,5.97-2.7,11.03
	c4.3,5.84-4.52,9.29-10.2,8.21l-10.38,2c-4.66,1.48-8.3,1.14-10.93-1.03c-0.51-0.01-1.16-0.51-1.66-0.36
	c-5.46-9.66,8.8-6.7,17.18-14.8c4.88-4.71,6.17-11.71,7.19-18.03c0.6-3.75,5.72-12.15,6.22-17.98c-3.14-1.51-3.94-4.35-4.88-7.16
	c-1.92-5.7-0.66-10.09,3.59-14.13C668.01,1392.68,668.75,1389.22,671.76,1389.3z"/>
<path class="st10" d="M702.7,1369.98c1.65,3.82-8.03,7.99-11.31,8.85l-2.03-1.09c-1.59,0.97-2.58,0.88-2.97-0.25
	c-0.55-1.6-2.61-1.61-4.03-2.63l-14.97-10.8c-1-0.52-1.72-1.13-2.16-1.84l-25.58-17.52l-33.86-21.97c-3.03-1.97-5.51-4.26-8.47-5.7
	c-0.91-0.5-1.66-1.1-2.24-1.81c-2.06-0.57-3.94-1.83-4.81-3.82c0.08-2.32,2.58-2.94,4.55-4.13l24.48-14.75
	c4.38,4.19,9.58,7.72,12.77,12.62c3.88,5.97,4.06,13.65,7.4,19.71c2.61,4.73,7.67,7.78,11.62,11.19l11.41,9.83
	c5.42,4.67,10.73,9.2,17.24,12.45c6.01,3,11.33,6.98,17.44,9.44L702.7,1369.98z"/>
<path class="st5" d="M708.34,1368.8l1.42,1.74c-1.44,3.36-4.34,5.33-7.3,7.22c-3.29,2.11-19.58,10.04-22.23,10.72
	c-1.57,0.4-2.65,0.63-4.07-0.66c-1.76-0.23-1.73-0.92-0.11-1.59c3.32-2.37,6.63-4.78,10.35-6.54c0.19-1.19,1.18-1.84,2.97-1.94
	c4.63-2.18,9.94-3.88,13.34-7.76C704.57,1369.51,706.41,1368.9,708.34,1368.8z"/>
<path class="st8" d="M508.89,1356.03c1.91,0.71,3.88,0.06,5.75-0.53c-0.21,2.24-2.57,2.51-4.32,2.73c-2.72,0.34-3.27-1.17-4.43-2.71
	C506.92,1355.5,507.92,1355.67,508.89,1356.03z"/>
<path class="st8" d="M423.57,1307.51c-1.98-0.59-4.04-1-6.1-0.95l0.13-2C419.28,1305.37,423.9,1304.09,423.57,1307.51z"/>
<path class="st8" d="M251.57,1365.07c-1.76-0.09-4.09-0.65-4.03-2.74C249.4,1362.38,251.46,1362.91,251.57,1365.07z"/>
<path class="st8" d="M565.54,1324.79c0.19,2.26-2.44,2.24-4.11,2.88C561.31,1325.46,563.77,1325.09,565.54,1324.79z"/>
<path class="st8" d="M389.98,1327.69c0.05,2.2-2.38,2.58-4.17,2.87C385.59,1328.11,388.22,1328.15,389.98,1327.69z"/>
<path class="st8" d="M676.05,1386.22c0.07,0.53,0.11,1.06,0.11,1.59c0.34,2.91-2.48,3.77-4.4,1.49
	C671.54,1386.46,674.69,1387.19,676.05,1386.22z"/>
<path class="st9" d="M1003.31,1168.43c0.05,1.08,0.66,2.08,1.81,2.88l16.95,11.75l23.66,16.79c4.41,3.13,8.71,6.1,12.21,9.7
	c1.5,2.1,0.41,3.2-1.59,4.38l-73.77,46.25l-41.53,44.98c-5.83,3.61-11.82,6.97-17.95,10.08l-4.05,39.83l-2.09,1.54l-12.08,12.95
	L885.17,1390l-19.43,20.11c-7.41,7.67-13.95,15.92-22.32,22.58c-2.66,2.11-5.1,4.2-7.14,6.34c-2,2.71-9.45,2.7-11.71,0.66
	c-0.76,0-1.91-0.11-2.01-0.63c-0.67-3.64-3.98-29.9-3.28-31.31c8.92-6.48,17.71-13.11,26.35-19.88
	c6.67-10.82,13.35-22.05,18.28-33.78c5-25.26,9.51-50.62,13.56-76.09l17.62-19.59l10.59-56.27c8.12-6.67,15.86-13.73,23.21-21.17
	l4.16-2.17l25.96-3.72L1003.31,1168.43z"/>
<path class="st11" d="M1131.6,1476.64l-0.92,1.92c-141.43-0.45-282.51-0.25-423.25,0.6l-75.86-0.91c-0.95-0.71-1.53-1.39-0.94-2.54
	c0.27-5.35,5.72-5.35,7.84-8.75c6.71,0.2,13.29-1.33,20.26-2.76c2.68-0.55,5.56,0.42,8.16-0.76c2.13-0.97,2.63-3.8,3.09-5.67
	c-0.05-0.76,0.02-1.93,0.54-2.05c14.81-3.26,31.74-6.18,46.8-8.37c3.58-1.25,6.7-1.16,9.37,0.28c7.43,1.16,15.08,1.36,22.87,0.04
	l12.48-2.12c0.55-1.05,1.65-1.52,3.31-1.42c0.63-2.46,1.71-2.46,2.65-0.04c7.68-0.77,15.43-1.19,23.23-1.24
	c0.4-2.57,1.46-2.3,2.55-0.06c5.07-0.97,10.61-1.29,16.6-0.97c0.59-2.52,4.72-2.91,5.39-0.16c6.75-0.51,13.6-1.02,20.55-1.51
	l33.18,0.17c0.81,0.52,1.35,0.69,2.34,0.73l9.29,0.77c1.42-0.26,2.51,0,3.26,0.78c6.9-0.59,33.66,3.67,38.26,3l73.08-10.61
	c10.69-1.55,41.8,14.3,48.06,15.03c16.04,1.88,31.91,0.84,47.79,4.47c10.06,2.3,19.76,4.21,28.5,9.83
	C1125.04,1467.5,1130.15,1471.25,1131.6,1476.64z"/>
<path class="st5" d="M630.63,1475.7c0.08,0.33,0.46,0.64,1.15,0.65l54.94,0.57c10.87,0.11,21.38,0.62,32.24,0.04
	c4.64-0.25,8.91,0.09,13.52-0.03l15.62-0.4l383.49,0.1l-0.65,3.69c-19.89,24.21-81.57,19.77-86.96,21.74l-33.62,12.29
	c-6.49,2.37-12.69,3.19-19.73,2.12l-68.03-10.33l-50.95,4.05c-9.85,0.78-19.03,0.65-28.84,0.18l-42.16-2.02
	c-13.19-0.63-25.79-2.07-38.41-2.19c-11.36-3.26-23.58-3.6-35.4-2.96c-1.02,0.68-1.63,0.66-1.83-0.05c-1.48-0.56-2.9-1.05-4.28-1.45
	c-0.81,0.43-1.64,0.82-2.5,1.08c-0.84,0.25-1.66,0.47-2.45,0.41c-14.33-1.16-31.08-4.64-45.06-7.92l-1.57-1.79
	c-0.13-1.58-0.41-4-2.44-4.69c-2.88-0.98-6.04,0.01-9.02-0.79c-5.98-1.6-11.63-2.27-17.37-2.28l-1,0.08
	c-1.85-3.08-8.32-2.99-9.84-9.21C629.37,1476.13,630.46,1475.76,630.63,1475.7z"/>
<path class="st10" d="M1064.53,1213.5c1.47,1.32,0.97,2.76-1.51,4.33c-5.13,3.14-8.96,7.73-11.49,13.77
	c-4.88,12.15-11.41,22.97-19.6,32.46c-9.03,6.26-18.15,12.41-27.34,18.43l-7.22,40.75l-2.75,4.35c-5.96,4.55-11.55,8.71-19.89,11.27
	l-57.77,17.74l4.29-42.33c5.96-5.07,14.41-5.98,19.59-11.6l40.55-43.98l58.77-36.96c4.72-2.97,8.8-5.92,13.66-8.54
	c1.8-0.97,3.43-2.03,4.13-3.64C1060.71,1209.73,1062.61,1211.74,1064.53,1213.5z"/>
<path class="st9" d="M1101.16,1233.7c0.78,1.06,0.17,2.27-1.82,3.62l-15.48,16.35l-1.98,2.07l-7.57,7.6l-4.04,2.9l-17.55,11.15
	c-3.23,2.05-5.89,4.5-8.2,7.03l-2.05,1.99l-5.62,4.76l-2.06,1.97c-4.82,3.5-8.87,7.9-13.42,11.74l-2.57,2.42
	c-8.05,6.89-15.91,14.01-24.16,20.3l8.43-46.12c9.32-8.49,22.36-12.49,30.73-21.98c9.84-11.16,17.11-37.95,26.95-42.48
	c1.36-0.63,2.99-2.37,3.79-3.51c1.22,0.67,2.97,1.08,4.38,2.3c8.05,6.99,17.35,11.54,27.37,15.12
	C1098.25,1231.63,1100.07,1232.27,1101.16,1233.7z"/>
<path class="st8" d="M836.29,1439.02l0.04,1.11c-0.09,2.88-19.27,1.69-20.55,1.51c-4.86-3.18,7.63-5.85,8.8-1.96
	C828.09,1439.51,833.05,1441.15,836.29,1439.02z"/>
<path class="st8" d="M1151.22,1253.62c-1.02-0.12-9.6-1.77-8-3.7C1145.17,1250.36,1152.21,1251.35,1151.22,1253.62z"/>
<path class="st8" d="M1166.5,1259.51c-2.48-0.32-6.65,0.23-6.94-2.87C1160.43,1256.71,1168.31,1257.5,1166.5,1259.51z"/>
<path class="st8" d="M1176.21,1263.34c-2.2-0.16-5.91-0.03-6.13-2.78C1171.03,1260.7,1177.81,1261.56,1176.21,1263.34z"/>
<path class="st8" d="M1115.69,1239.26c-1.56-0.37-7.46-0.68-6.02-2.83C1111.8,1236.89,1115.49,1236.55,1115.69,1239.26z"/>
<path class="st8" d="M1157.94,1256.51c-1.95-0.16-5.2-0.22-5.11-2.75C1154.86,1253.81,1157.87,1254.02,1157.94,1256.51z"/>
<path class="st8" d="M1141.62,1249.79c-1.95-0.32-5.13-0.26-5.23-2.73C1138.46,1247.16,1141.55,1247.2,1141.62,1249.79z"/>
<path class="st8" d="M1132.02,1245.94c-1.98-0.32-5.09-0.25-5.26-2.72C1128.65,1243.7,1131.99,1243.52,1132.02,1245.94z"/>
<path class="st8" d="M1108.95,1236.4c-1.74-0.13-4.24-0.52-4.18-2.65C1106.58,1233.64,1109.04,1234.23,1108.95,1236.4z"/>
<path class="st8" d="M1074.31,1263.33c-0.07,2.13-2.15,2.85-4.04,2.9C1070.48,1264.19,1072.44,1263.44,1074.31,1263.33z"/>
<path class="st10" d="M900.29,1175.21c0.84,0.53,1.88,0.84,3.11,0.94c0.79-0.19,1.79,0.24,2.62,0.12c1.82,0.48,3.57,0.95,5.24,1.4
	c0.84-0.08,1.7,0.13,2.53,0.14c1.78-0.24,3.17,0.06,4.15,0.91c0.84-0.07,1.72,0.09,2.56,0.06l8.9-0.01l3.63,0.04
	c-7.01,9.33-16.56,16.27-25.82,24.34l-10.49,56.16l-17.57,19.48l-11.09,66.21c-2.97,17.73-9.44,21.8-16.56,37.46
	c-5.63,12.37-20.15,16.87-30.62,26.01l3.68,31.23c-2.17,0.11-10.78-0.01-8.8,1.96c-1.63-0.22-3.88,0.73-5.39,0.16
	c-6.31-0.36-11.84-0.04-16.6,0.97c-0.74,0-1.88,0.32-2.55,0.06c-7.71,0.04-15.46,0.46-23.23,1.24c-0.72-0.15-1.87,0.45-2.65,0.04
	c-1.22,1.3-3.36,0.52-2.25-1.33c1.93-6.15,3.67-12.28,2.74-19.2l-2.93-21.91c-0.66-1.22-0.21-2.74,1.34-4.57
	c0.69-17.29,1.36-34.17-8.08-49.74l1.09-2.41l-1.52-1.64c0.27-5.23-1.51-10.26-5.34-15.07l-0.43-3.02
	c1.26-7.79-1.07-16.44-9.9-17.46l-1.1-1.97l4.17-36.59l-10.91-46.09c-1.61-6.79,0.12-10.79,2.64-16.75
	c2.63-6.22,4.45-11.05,10.6-14.86c4.78-2.96,9.09-7.33,13.74-10.96l48.94-38.11l43.5,20.14
	C867.07,1169.74,883.91,1172.84,900.29,1175.21z"/>
<path class="st9" d="M929.41,1178.76c-2.33,1.81-6.57,1.8-8.9,0.01C923.17,1177.33,926.74,1177.34,929.41,1178.76z"/>
<path class="st9" d="M475.3,1249.87c-2.33-0.51-5.76-1.1-6.01-3.83C471.57,1246.7,475.03,1247.13,475.3,1249.87z"/>
<path class="st9" d="M911.26,1177.66c-0.97,0.09-2.13,0.4-3.45,0.31c-0.75-0.05-2.2-0.28-1.78-1.71
	C907.83,1176.01,911.27,1175.05,911.26,1177.66z"/>
<path class="st9" d="M917.95,1178.71c-1.37,0.12-3.5,0.66-4.15-0.91c0.68-0.64,1.59-0.92,2.48-0.93
	C917.3,1176.86,918.59,1177.51,917.95,1178.71z"/>
<path class="st0" d="M940.01,1029.95c-13.14-0.64-16.63-2.55-33.49,1.3c-5.31,1.21-10.55,1.55-15.69,2.61l-13.62,2.81
	c-5.49,1.13-21.54,6.67-24.86,6.78c-0.48-1.8,1.26-1.58,2.72-2.08c22.81-7.73,50.88-12.87,75.18-14.41c-0.32-1.87-1.7-2.26-2.09-3.5
	c0.81,0.83,2.58,0.96,3.52,2.36C934.61,1030.18,941,1026.36,940.01,1029.95z"/>
<path class="st0" d="M851.33,1043.61c-0.01,1.15-12.51,6.64-14.34,6.67c-0.55-1.36,1.19-2.14,2.63-2.4
	C844.08,1047.09,847.22,1044,851.33,1043.61z"/>
<path class="st0" d="M464.73,971.56c0.55,1.76-1.85,1.71-3.23,2.35l-11.41,5.27c-0.22-1.55,1.13-1.62,2.51-2.23L464.73,971.56z"/>
<path class="st0" d="M514.24,970.29l0.49,2.06c0.62,0.14-18.11-1.55-14.73-3.59C504.7,969.45,509.41,970.96,514.24,970.29z"/>
<path class="st0" d="M491.69,967.54c-1.9-0.28-3.9,0.27-6.17-0.58c-2.62-0.98-5.21-1.53-7.62-1.33
	C472.62,961.45,496.7,966.72,491.69,967.54z"/>
<path class="st0" d="M436.96,985.04c1.48,1.48-10.23,6.47-11.85,6.54C423.63,990.11,435.39,985.12,436.96,985.04z"/>
<path class="st0" d="M812.19,1060.9c-0.88,2.51-6.23,4.89-7.54,1.96C807.35,1063.47,809.58,1061.33,812.19,1060.9z"/>
<path class="st0" d="M423.59,991.7c-0.69,2.93-4.41,3.62-7.11,3.86C417.08,992.68,421.12,992.57,423.59,991.7z"/>
<path class="st0" d="M415.77,995.56c0.95,2.25-5.47,3.52-6.96,3.83C409.09,996.27,413.21,996.34,415.77,995.56z"/>
<path class="st0" d="M394.7,1006.04c1.71,1.55-6.08,3.7-7.05,3.87C388.26,1006.96,392.02,1006.3,394.7,1006.04z"/>
<path class="st0" d="M829.6,1053.21c-0.45,3.05-4.48,2.91-7.01,3.75C822.94,1053.84,826.98,1053.38,829.6,1053.21z"/>
<path class="st0" d="M408.09,999.4c1.59,1.57-6.4,3.75-6.91,3.75C401.47,1000.07,405.57,1000.19,408.09,999.4z"/>
<path class="st0" d="M448.47,979.28c-0.4,2.69-3.77,3.2-6.1,3.74C442.76,980.33,446.09,979.42,448.47,979.28z"/>
<path class="st0" d="M476.28,965.77c0.12,2.52-3.18,2.31-5.06,2.86C471.19,966.09,474.21,965.94,476.28,965.77z"/>
<path class="st0" d="M836.27,1050.3c0.1,2.54-3.21,2.68-5.14,2.81C831.28,1050.61,834.15,1050.16,836.27,1050.3z"/>
<path class="st0" d="M400.47,1003.16c0.14,2.49-3.15,2.42-5.05,2.87C395.36,1003.48,398.4,1003.17,400.47,1003.16z"/>
<path class="st0" d="M381.21,1012.84c0.2,2.63-3.21,2.1-5.02,2.84C376.07,1013.19,379.32,1013.33,381.21,1012.84z"/>
<path class="st0" d="M386.08,1010.03c0.06,2.14-2.4,2.56-4.16,2.81C381.76,1010.63,384.24,1010.04,386.08,1010.03z"/>
<path class="st0" d="M952.54,1031.74c-0.62-0.03-1.76,0.33-2.52,0.3c-0.74-0.03-2.27-0.34-1.76-1.69c0.8,0.04,2.16-0.46,3.31-0.18
	C952.11,1030.3,953.03,1030.74,952.54,1031.74z"/>
<path class="st0" d="M820.97,1057.09c0.13,2.35-2.45,2.25-4.15,2.66C816.75,1057.58,819.17,1057.12,820.97,1057.09z"/>
<path class="st8" d="M720.73,1501.72c1.51,0.47,2.94,0.95,4.28,1.45c0.59-0.1,1.23,0.08,1.83,0.05l-37.75,33.15
	c-4.8-9-9.13-17.41-12.76-26.7c-4.05-1.88-6.27-5.33-7.7-9.54c-0.98-2.41-1.26-5.02,0.51-6.62c1.11-0.17,2.33-0.21,3.9,0.12
	C689.12,1497.03,704.83,1500.54,720.73,1501.72z"/>
<path class="st6" d="M732.56,1548.41c-1.62,0.66-3.15,2.59-4.06,4.03l-1.66,3.06c-5.19,2.79-10.16,5.92-14.93,9.38l-2.43-0.21
	c-2.05-1.01-4.51-0.94-7.25-2.37l-5.03-2.64c5.72-0.1,9.91-4.37,14.78-7.34l19.7-12.04
	C732.87,1543.33,732.25,1545.94,732.56,1548.41z"/>
<path class="st0" d="M728.5,1552.44c-0.31,7.52-1.1,14.92-2.53,23.5c-5.96-4.56-10.75-8.44-16.49-11.27
	C710.52,1562.5,725.62,1553.83,728.5,1552.44z"/>
<path class="st6" d="M757.27,1344.98c3.02,7.79,7.92,14.96,8.5,23.96l0.87,13.51c0.29,4.49-1.17,8.89-0.51,13.44
	c0.43,2.93-1.58,4.48-3.23,5.8c-10.1-0.49-20.34-0.34-30.38,0.98c-1.95,3.79-6.77-2.77-4.19-5.1l-2.11-3.07l-1.54-14.75
	c-3.79,2.36-7.8,4.66-12.03,6.92l-2.26-0.35c-0.58,3.27-7.25,5.38-10.44,4.51l-24.24,5.99c-3.3,0.82-5.44-5.19-3.97-7.52
	c1.55-0.21,2.92-1.06,4.4-1.49c4.19-1.2,8.17-3.08,12.22-5.53c4.38-2.65,17.93-6.08,19.96-13.48c8.36-7.07,16.34-17.91,25.39-24.98
	c0.96-1.53,2.68-1.93,5.15-1.21c0,0,1.97-0.35,5.92-1.04C750.18,1337.13,754.28,1340.08,757.27,1344.98z"/>
<path class="st11" d="M738.97,1305.82c7.39,0.02,12.61,5.56,13.16,13.41c0.21,3.02-1.08,7.28,0.78,9.89
	c3.52,4.93,6.32,10.22,4.35,15.86c-3.99,0.88-5.17-5.99-8.72-3.38c-4.71,3.47-9.65,3.36-14.81,2.22c0.68-1.9,1.59-4.63,1.38-6.68
	c-1.99-1.69-2.62-4.38-1.89-8.06c-1.11-4.23-2.59-8.43-4.42-12.62c-1.44-1.62-2.13-3.31-2.07-5.07
	C726.81,1307.16,736.14,1305.81,738.97,1305.82z"/>
<path class="st1" d="M735.12,1337.14c-2.83-1.73-5.89-2.04-9.91-2.23c0.75-4.55-1.53-8-2.74-11.36c3.1-5.03,1.83-10.98,4.27-12.16
	c2.53,1.52,4.58,4.67,4.94,8.04c0.27,2.53,2.43,3.87,2.95,5.8C735.71,1329.15,734.73,1333.38,735.12,1337.14z"/>
<path class="st3" d="M726.69,1447.62l-56.71,10.14c-6.86-5.95,4.95-16.3,5.57-17.09c6.07-7.71,8.47-17.47,13.65-26.44l32.94,29.31
	C723.87,1445.09,725.98,1445.69,726.69,1447.62z"/>
<path class="st11" d="M710.41,1386.33c3.39,0.52,6.69,1.93,9.91,4.24c3.74,1.76,6.41,4.1,8.02,7c1.36,1.54,1.66,4.81,4.19,5.1
	c-0.22,2.2,0.48,4.52-0.88,7.06l-31.69-18.9C702.84,1388.97,707.06,1387.29,710.41,1386.33z"/>
<path class="st8" d="M791.23,1442.84c0.17,0.84-1.13,0.94-2.11,0.95l-9.55,0.17c-4.08,0.07-8.09,1.8-11.58,0.12
	c0.88-2.44,4.32-0.82,6.74-1.11C780.51,1442.27,786.26,1440.62,791.23,1442.84z"/>
<path class="st8" d="M810.38,1441.8c0.21,0.77-1.06,1.08-2.04,1.07l-14.56-0.1C791.11,1439.83,807.53,1440.73,810.38,1441.8z"/>
<path class="st6" d="M725.01,1503.17c-0.77,0.13-2.32,0.34-3.24,0.1c-0.57-0.14-1.54-0.56-1.03-1.55c0.79,0.06,2.23-0.59,3.34-0.2
	C724.6,1501.7,725.67,1502.13,725.01,1503.17z"/>
<path class="st10" d="M728.34,1397.57c-4.42-1.66-7.87-5.13-12.5-7.32c-2.21-1.04-4.38-2.04-5.44-3.92c0.78-1.06,2.14-2.21,3.8-2.78
	c4.49-1.55,7.13-4.69,11.86-7.59C727.28,1383.73,727.98,1390.63,728.34,1397.57z"/>
<g>
</g>
<g>
</g>
<g>
</g>
<g>
</g>
<g>
</g>
<g>
</g>
<g>
</g>
<g>
</g>
<g>
</g>
<g>
</g>
<g>
</g>
<g>
</g>
<g>
</g>
<g>
</g>
<g>
</g>
</svg>
