<?xml version='1.0' encoding='UTF-8'?>
<svg xmlns="http://www.w3.org/2000/svg" id="Layer_1" viewBox="0 129.9 1200 1540.7" xml:space="preserve" width="1200" height="1800">
<style type="text/css">
      .cls-1 {
        fill: #272b38;
      }

      .cls-2 {
        fill: #326c6f;
      }

      .cls-3 {
        fill: #538279;
      }

      .cls-4 {
        fill: #b16a4a;
      }

      .cls-5 {
        fill: #5b8e89;
      }

      .cls-6 {
        fill: #d36438;
      }

      .cls-7 {
        fill: #e58946;
      }

      .cls-8 {
        fill: #eb9f50;
      }

      .cls-9 {
        fill: #e4a663;
      }

      .cls-10 {
        fill: #b1b9a0;
      }

      .cls-11 {
        fill: #f1b96e;
      }

      .cls-12 {
        fill: #efc590;
      }

      .cls-13 {
        fill: #f4cd97;
      }

      .cls-14 {
        fill: #f6d599;
      }

      .cls-15 {
        fill: #f9f2db;
      }

      .cls-16 {
        fill: #ffffff;
      }

    </style>
<path class="cls-12" d="M1200,128.9v348.17l-8.33,0.84c-120.05-3.75-240.77-2.88-360.86,1.96c-1.57,0.68-3.07,0.73-4.5,0.17l-2.03-0.14  l-15.25-56.22l12.53,53.76l-1.61,1.55c-8.96,4.33-22.11,5.2-31.53,1.99c-1.25-4.52-1.88-6.79-1.88-6.79  c1.86-39.46,2.65-78.73,2.09-118.18c-0.03-2.3,0.68-4.54,1.42-6.7c0.58,0.67,0.8,1.46,0.01,1.92c0.42,0.66,0.78,0.71,1.07,0.14  l-1.08-2.05l-2.01-0.91l-1.4-16.34c-10.75-1.63-13.18-0.16-7.29,4.4c0.18,2.32-0.67,5.96-2.55,7.05  c-16.08,46.02-32.09,92.02-48.06,138.02l-2.04,0.54l-4.72,1.33c-50.39,2.78-100.77,6.1-151.15,9.95l-43.91,1.7l-401.14,0.38  c-34.99-0.4-70-0.84-104.98-2.21c-3.48-0.14-6.95-0.56-10.42-1.01c-3.48-0.45-6.94-1.04-10.39-1.67V128.64l0.93-1.92  c399.25,0.09,798.54,0.18,1197.87,0.26L1200,128.9z" />
<polygon class="cls-16" points="0,128.64 0,0 1200,0 1200,128.9 " />
<path class="cls-16" d="M604.92,1671.59l0.67-1.92c56.94,0.06,113.89,0.11,170.86,0.17l1.18,1.92c0.1-0.74,0.27-1.79,0.82-1.92  c2.39-0.56,11.73-0.79,12.44,1.88l0.66-1.92c29.81-0.07,59.63-0.14,89.45-0.21l1.17,1.92c0.84-2.81,7.04-3.03,7.89-0.1l1.5-1.92  c102.42,0.15,204.83,0.3,307.26,0.44l1.19,1.92V1800H0v-127.68l0.92-1.92c199.97-0.32,399.97-0.63,599.99-0.95l1.21,1.92  C602.38,1668.41,603.81,1669.34,604.92,1671.59z" />
<path class="cls-9" d="M726.72,482.09c-2.41,10.06-5.27,19.99-8.51,29.81c-14.49,43.95-30.29,87.74-47.95,130.46l-2.95,0.74  c-13.2-4-27.03-5.01-41.49-3.03c-70.22,1.65-141.62,1.46-213.61,0.56c-47.4,2.12-95.07,3.88-143.01,5.28l-49.25-0.43  c-17.61,2.03-35,2.03-52.17-0.01l-4.84,1.14c-0.22,2.16-1.13,3.21-2.74,3.15l-2.03,0.84c-3.37-2.21-4.75-0.42-4.15,5.36l-1.88,1.62  c-0.04,1.86-0.77,1.86-1.23,0.02c-0.55,0.32-1.29,0.36-2.23,0.13c-7.25,1.93-14.9,2.17-22.96,0.73  c-29.23-3.06-57.84-5.64-85.85-7.76l-1.24-2.02c-1.37-0.43-2.81-0.87-4.33-1.33c-0.25,0.73-0.62,1.79-1.23,1.84  c-2.59,0.21-17.85-0.75-20.1-1.36l-1.24-2.01c-1.8-0.54-3.56-0.99-5.27-1.35c-0.64,3.16-6.03,2.78-6.46-0.32v-153.6  c52.17,2.01,104.54,3.13,157.52,3.07l359.74-0.4C586.17,493.15,658.8,482.62,726.72,482.09z" />
<path class="cls-13" d="M1197.01,675.03c1.04-0.67,2.78-0.48,2.99,0.81v235.23l-5.21,2.17c-15.02,1.46-29.97,3.2-44.84,5.23l-2.84-0.81  l-1.93-0.85c-0.2-16.88-0.52-33.75-0.95-50.62l-6.7,0.06l-0.42,53.12l-1.92,1.14l-0.6,2.03l-65.67,9.52l-1.42-1.73l-1.92-0.66  c0.2-28.63,0.05-57.18-0.45-85.65c-2.68-0.35-5.31-0.27-7.87,0.23l-0.22,87.63l-1.92,1.17l-0.67,1.92c0,0-35.92,0.03-107.76,0.09  l-1.18-1.92l-2.03-0.15c-15.21-56.35-30.43-112.71-45.65-169.08l1.55-1.64c5.84-1.88,8.76-2.82,8.76-2.82  c53.78-3.99,107.03-11.27,159.76-21.86c-56.91-7.58-114.36-8.16-171.61-7.88l-5.51-1.11c-3.26,0.52-3.87-2.56-1.11-3.97l0.33-2  c28.22-4.73,56.44-9.47,84.67-14.2l1.46,1.7c0.63-0.48,1.43-0.94,2.39-1.36c0.02-0.74,0.07-1.81,0.6-2  c2.25-0.8,11.47-2.02,12.39,0.57c0.26-1.01,1.34-1.06,2.26-0.88c-0.34-2.8,2.83-2.75,3.5-0.09c0.56-0.56,1.35-1.04,2.36-1.45  c0.02-0.74,0.07-1.81,0.61-2c2.26-0.79,11.48-2,12.41,0.59c0.83-0.57,1.93-1.06,3.31-1.46c0-0.75,0.09-1.87,0.63-2.01  c3.08-0.8,10.05-1.46,13.44-1.63c3.21-1.04,5.4-0.66,6.57,1.14c0.68-0.51,1.48-0.95,2.41-1.34l1.1-1.87  c1.15-0.32,11.25-1.85,11.72-1.49c0.62,0.47,0.94,1.16,1.13,1.89c0.92-0.54,2.03-1.01,3.32-1.42c1.02-2.09,9.35-3.45,11.58-3.2  c1.23,0.14,1.88,0.35,2.4,1.81c0.64-0.91,1.72-1.2,3.24-0.86c-0.37-2.79,2.78-2.78,3.46-0.12c1.41-0.61,2.83-1.1,4.26-1.47  c-0.72-2.71,11.83-3.58,12.43-3.24c0.72,0.42,1.26,0.96,1.54,1.77c0.75-0.84,2.14-1.12,4.19-0.83c-0.43-2.78,2.71-2.84,3.44-0.19  c1.01-0.48,2.13-0.93,3.37-1.35c0.01-3.06,8.34-3.23,9.16-0.46c0.28-1.06,1.37-1.02,2.31-0.83c-0.22-2.84,3.67-2.89,4.37-0.23  c1.1-0.5,2.22-0.95,3.35-1.36c0.97-2.17,3.63-3.06,7.98-2.67c3.44-1.01,5.77-0.58,6.97,1.28c0.41-0.92,1.48-1.22,3.23-0.88  c0.28-2.78,3.72-2.8,4.41-0.12c0.86-0.55,1.98-1.02,3.34-1.42c1.17-2.7,6.97-3.24,8.23-0.42c0.62-0.94,1.7-1.23,3.24-0.87  c0.22-2.81,3.64-2.87,4.38-0.23c1.5-0.52,2.94-0.97,4.3-1.37c0.16-2.8,9.78-3.34,12.19-3.05c1.41-0.39,2.2,0.23,2.78,1.67  c1.13-1.09,2.83-1.4,5.11-0.93C1190.78,672.94,1196.2,672.38,1197.01,675.03z" />
<path class="cls-9" d="M1200,477.07v161.5l-4.16,1.13c-25.64-2.2-51.23-4.51-76.75-6.93c-15.19,0.32-30.47,0.25-45.85-0.22  c-40.38,2.92-80.93,4.06-121.66,3.42c-26.99,1.31-54.15,1.93-81.1-1.2c-1.74-0.2-3.29-1.1-4.75-2c-3.07,0.38-6.02-6.9-2.08-7.51  l-1.47-2.36c-2.69-0.65-4.77-7.94-1.97-9.28c0.06-0.96-0.24-1.71-0.9-2.26c-1.86-0.36-1.88-1.1-0.06-1.59  c0.12-0.91-0.19-1.65-0.92-2.23l-2.08-0.4c-3.49-14.24-6.99-28.48-10.49-42.73l1.59-1.57l-1.47-2.35c-2.69-0.45-2.65-1.57-0.12-2.5  c0.14-0.93-0.15-1.69-0.88-2.27l-2.08-0.41c-6.03-24.55-12.05-49.11-18.08-73.67l1.59-1.58c1.19-1.45,2.62-2.02,5.21-2.15  c70.35-3.37,140.08-3.68,210.6-4.19C1095.11,473.34,1147.67,474.19,1200,477.07z" />
<path class="cls-5" d="M575,1585.76c1.66,2.38,3.35,4.82,4.29,7.59c8.22,24.06,16.14,49.03,22.89,73.54c0.38,1.38,0.24,2.9-0.06,4.47  L0,1672.32v-86.4l0.92-1.92c190.93-0.05,381.89-0.1,572.87-0.16L575,1585.76z" />
<path class="cls-1" d="M217.97,951.46c-3.71-0.59-0.58-8.13,1.47-8.95c3.92-1.57,23.63-1.8,27.07,0.1c0.99,0.55,2.35,21.56,1.63,22.43  c-2.5,0.4-1.12,0.54,4.15,0.43c56,9.66,111.6,21.78,167.12,33.91c1.85,0.4,3.64,1.05,5.44,1.72c1.81,0.68,3.57,1.49,5.32,2.33  c12.48,1.36,24.79,3.77,36.93,7.23l3.05,2.42l6.15,2.55l-0.13,1.09l-0.66,1.92c-31.38,0.07-62.77,0.07-94.16,0.01l-1.17-1.77  l-0.3,1.28c-21.37,0.71-42.9,0.93-64.6,0.64l-1.16-1.92c-11.3,1.39-22.72,0.98-34.03,0.02c-0.8,2.94-6.51,2.98-7.25-0.02  c-1.68,1.2-5.53,1.32-7.14,0l-0.81,1.89l-16.63,0.09l-2.39,1.7c2.14,0.32,2.68,2.68,1.64,7.08c0.07,3.15,2.76,4.67,8.05,4.56  l1.67,1.83l3.5,0.61c24.41,13.01,48.49,27.33,71.08,43.45c0.89,0.63,1.58,1.55,2.3,2.49c0.72,0.94,1.32,1.97,1.89,3.02  c-15.96,1.58-23.94,2.38-23.94,2.38c-96.01,0.92-192.04,0.82-288.05,0.53c-8.03-0.02-16.03-0.88-24.01-1.74v-54.72l0.67-1.92  l217.5-0.1c0.97-1.35,1.07-3.19,0.3-5.52c-72.38-0.59-144.81-0.95-217.29-1.1L0,1019.52V900.48c0.01-0.75,0.24-1.91,0.71-1.91  c33.9,0.08,69,1.29,102.71,2.87l1,2.09l0.33,49.95l0.73,0.65l111.23,3.06C216.4,954.52,216.82,952.6,217.97,951.46z" />
<path class="cls-4" d="M552.04,1521.55c-1.28,3.14-10.17,3.8-11.32,0.35c-1.63,0.44-3.39,0.88-5.29,1.32  c-3.32,1.04-6.71,2.1-10.21,2.32c-32.63,0.83-65.07,3.77-97.55,6.77c-16.76,1.55-34.75,3.44-50.22,9.22  c11.72,2.96,23.76,4.35,35.82,4.93l150.15,1.99l1.16,1.93l1.61,0.71c3.41,11.02,6.85,22.03,10.32,33.03l-1.52,1.64l-575,0.16v-89.28  c2.41-0.61,4.83-1.17,7.28-1.59c2.44-0.42,4.87-0.82,7.31-0.92c78.02-3.14,157.57,0.57,235.23,8.01c6.28,0.6,10.1,6.06,6.21,11.49  c16.88,1.87,33.93,2.25,50.94,2.19l228.57-1.51l7.39,0.66C546.24,1515.65,553.91,1517.44,552.04,1521.55z" />
<path class="cls-6" d="M151.76,1423.35c0.4-2.92,6.94-2.63,7.44,0.19c1.28-0.46,2.57-0.89,3.88-1.18c1.31-0.29,2.59-0.57,3.87-0.55  c29.71,0.47,59.48,1.02,89.07,4.09c9.36,1.05,10.81,2.09,2.32,5.64c-31.1,2.94-62.19,5.84-93.29,8.7l-5.76-1l-0.66,2.06  c-7.85,0.45-10.48,7.29-0.94,8.5l1.47,2.25c6.39-0.58,12.92,0.03,19.61,1.85c18.59,1.87,27.88,2.8,27.88,2.8  c109.05,0.68,218.06,0.82,327.02,0.43l1.19,1.92c1.28,1.15,2.56,2.41,3.24,4.02c7.06,16.78,13.27,35.88,18.9,53.29  c0.57,1.75,0.66,3.43-0.1,5.16c-0.15,3-4.2,2.72-4.87,0.01c-3.76-4.59-11.65-5.38-18.68-5.33l-210.69,1.44  c-23.12,0.16-45.83,0.4-68.46-2.32c-0.93-3.21,2.56-6.26,1.69-7.48c-0.97-1.36-4.3-3.65-6.76-3.88  c-82.82-7.77-166.12-11.11-249.14-7.35v-72c2.28-0.55,4.56-1.06,6.87-1.43c2.3-0.37,4.59-0.73,6.88-0.79  c41.39-1.09,82.84-1.94,124.24-1.27c2.29,0.04,4.58,0.4,6.89,0.77C147.19,1422.29,149.48,1422.8,151.76,1423.35z" />
<path class="cls-6" d="M1200,1382.29v99l-7.57,1.05c-67.93-1.81-135.4,1.31-203.16,5.76c-5.33,0.35-10.46,1.98-15.35,3.92l-2.53-1.03  c-1.37,2.39-4.18,2.62-8.44,0.69c-4.62-1.08-6.95-3.01-6.98-5.79c-5.72-6.54-10.1-0.26-12.52,5.72c-3.31,9.73-5.98,19.64-8.01,29.71  l-2.3,1.13l-0.72,1.9c-47.71-1.26-95.42-2.52-143.15-3.78l-1.13-1.95l-1.91-0.92c0.29-19.71,0.58-39.44,0.87-59.17l1.94-1.13  l6.08-1.4c50.9-1.1,101.76-3.64,152.63-6.3c4.12-0.22,8.23,0.29,12.31,0.87c1.67-1.37,5.83-2.87,6.68-0.15l1.48-1.99  c11.53-1.17,23.77-10.1,8.23-18.4l-0.32-2.43c-0.24-1.04-0.43-2.07-0.49-3.12c-0.05-1.03-0.09-2.04,0.17-2.95  c2.53-8.98,9.15-32.07,14.35-37.97c0.69-0.78,1.48-1.47,2.3-2.14l1.19-1.72c68.36,0.05,136.75,0.27,205.17,0.66L1200,1382.29z" />
<path class="cls-13" d="M6.46,644.48c1.91,0.36,3.67,0.81,5.27,1.35l22.57,1.52c1.55,0.42,2.99,0.87,4.33,1.33l31.54,2.48  c26.52,2.09,52.39,6.08,78.5,6.56l2.23-0.13l1.23-0.02l1.92,0.67c0.1,70.37,0.19,140.74,0.29,211.13l-1.92,1.19  c-0.73,0.46-1.47,0.89-2.25,1.2c-4.36,1.72-32.66-0.51-38.46-2c-2.61-0.67-3.06-0.85-3.88-3.1l-0.4-49.96  C72.2,815.97,36.78,815.73,1.17,816L0,814.08V644.16C2.13,644.49,4.3,644.8,6.46,644.48z" />
<path class="cls-5" d="M918.54,1584.6l1.19-1.84c186.06,1.05,279.09,1.58,279.09,1.58l1.17,1.92v85.58l-309.95-0.45  c-0.71-0.22-1.74-0.7-1.65-1.18c0.58-3.13,7.86-28.02,8.84-29.19l2.34-1.1l0.63-1.98c19.75-0.72,39.49-2.24,59.22-4.57  c16.38-2.29,20.5-4.88,12.34-7.76c-19.88-5.62-40.16-9.28-60.85-10.99l-1.08-2.07c-0.39-1.31-0.81-2.74-0.49-4.11  c0.91-3.91,5.82-20.79,7.45-22.47C917.3,1585.46,917.91,1585.02,918.54,1584.6z" />
<path class="cls-2" d="M336,1083.63c1.78-4.42,9.69,2.86,8.61,6.15c-1.35,4.14-34.07,7.76-40.45,7.68l-55.71,0.62  c-0.73,6.73-0.96,13.72-0.71,20.96l-1.93,1.37l-6.91,1.13c-66.38-0.99-132.72,0.06-199.02,3.17c61.33,3.03,124.49,3.85,189.48,2.44  c5.51,0.02,10.98,0.86,16.41,1.72l1.92,0.9l-0.23,47.49c-0.72,2.35-0.9,2.46-3.4,3.17c-3.14,0.89-15.1,0.9-18.39,0.14  c-2-0.47-3-0.8-3.5-2.84l-0.95-24.73l-59.71,0.2l-1.15-1.92c-0.51,3-8.73,2.89-9.51,0.03l-0.88,1.92l-44.89,0.04l-0.58,48.04  c-1.71,1.6-2.57,2.4-2.57,2.4l-100.74,0.14L0,1201.92V1084.8C111.99,1083.71,224.17,1086.09,336,1083.63z" />
<path class="cls-8" d="M1200,638.57v35.35c-0.39,0.92-1.39,1.3-2.99,1.11l-5.49,0.71c-2.02-0.4-3.72-0.09-5.11,0.93l-14.96,1.38  c-1.26,0.43-2.69,0.89-4.3,1.37l-4.38,0.23c-1.33-0.02-2.41,0.27-3.24,0.87c-2.75,0.06-5.47,0.57-8.23,0.42  c-1.17,0.44-2.29,0.91-3.34,1.42l-4.41,0.12c-1.32-0.04-2.39,0.26-3.23,0.88l-14.95,1.39c-1.16,0.47-2.28,0.92-3.35,1.36l-4.37,0.23  c-0.94-0.1-1.71,0.17-2.31,0.83l-9.16,0.46c-1.16,0.45-2.29,0.9-3.37,1.35l-3.44,0.19c-1.58-0.18-2.98,0.1-4.19,0.83l-13.97,1.47  c-1.48,0.43-2.9,0.92-4.26,1.47l-3.46,0.12c-1.3-0.1-2.38,0.19-3.24,0.86c-4.73-0.04-9.24,1.79-13.99,1.4  c-1.15,0.47-2.26,0.94-3.32,1.42c-3.73-0.07-9.93,1.83-13.96,1.47c-0.74,0.42-1.54,0.86-2.41,1.34l-20.64,2.5  c-1.23,0.46-2.33,0.95-3.31,1.46l-13.02,1.41l-2.36,1.45l-3.5,0.09c-0.93-0.08-1.68,0.21-2.26,0.88l-12.99,1.43  c-0.69,0.44-1.49,0.89-2.39,1.36l-86.45,14.5c-0.76-0.74-1.49-1.5-2.11-2.35c-0.6-0.83-1.17-1.66-1.47-2.56  c-2.67-8.24-9.35-29.46-8.63-36.67c0.1-1.04,0.34-2.07,0.61-3.09l-1.48-2.38c-1.86-0.3-1.9-1.08-0.08-1.56  c0.1-0.94-0.23-1.72-0.99-2.36c-1.93,0.08-1.92-0.77-0.07-1.45c0.28-1-0.02-1.75-0.9-2.27c-2.93-0.53-3.16-3.47-0.34-4.38  c-0.41-0.72-0.9-1.5-1.48-2.36c-2.54,0.22-2.48-0.73-0.07-1.57c0.1-0.91-0.23-1.67-0.99-2.28l-2.34-2.05  c-1.27-3.61-5.47-18.96-5.22-21.79c0.1-1.1,0.88-1.98,1.61-2.73c10.4,0.05,20.88,1.05,31.81,1.97c21.65,1.83,43.04-1.32,65.57-0.63  c25.29,0.78,51.25-0.13,76.55-1.58c17.64-1.01,34.04-2.76,51.38-1.55c13.48,0.94,26.75-1.38,39.63,0.9  C1155.27,636.21,1177.75,633.78,1200,638.57z" />
<path class="cls-11" d="M150.79,1220.05c0.35-0.81,0.63-0.71,0.84,0.21l1.92,0.88c0.04,21.69,0.08,43.38,0.12,65.08l-1.92,1.16  c-2.31,1.53-3.46,2.29-3.46,2.29c-22.34-0.08-44.64,0.71-66.89,2.38c-13.13,1.87-14.06,3.3-2.81,4.29c24.03,1.48,47.8,2.28,71.3,2.4  l1.09,1.94l1.93,0.84c0.29,16.65,0.58,33.3,0.87,49.96l-1.9,1.17l-0.68,1.92c-50.01-0.32-100.03-0.65-150.05-0.97L0,1351.68v-131.52  l0.67-1.92c49.64-0.04,99.28-0.07,148.94-0.11L150.79,1220.05z" />
<path class="cls-4" d="M971.39,1490.99c8.01,4.08,17.02,6.25,27.02,6.51c66.68,4.37,133.5,7.22,200.48,8.56l1.11,1.96v78.26  l-137.29-0.15l-144.17-1.51c-0.33-3.1-0.49-4.65-0.49-4.65c4.08-9.45,7.62-19.07,10.61-28.88l2.44-2.33  c9.15-1.46,13.72-2.19,13.72-2.19c53.83-0.08,107.09-1.57,159.77-4.48l11.24-2.23l-26.58-5c-47.27-5.58-94.72-8.82-142.35-9.73  c0,0-1.75-0.73-5.25-2.2c-0.27-0.86-0.5-1.72-0.59-2.6c-0.5-4.7,9.17-29.81,12.71-32.92c0.66-0.58,1.41-1.06,2.19-1.5  C960.03,1488.86,966.18,1491.51,971.39,1490.99z" />
<path class="cls-1" d="M1067.48,930.33l1.92,0.65c0,13.18-0.01,26.36-0.01,39.54l-1.92,1.13c0.75,0.09,1.86,0.31,1.92,0.85  c0.65,5.71,0.85,22.82,0.08,28.32l-1.92,1.39l1.88,1.46c-1.07,4.94-1.25,9.56-0.54,13.86l64.22-0.09c0.5-4.48,0.34-9.28-0.47-14.41  l2.04-0.86l-1.48-3.04c0.68-8.81,0.71-17.63,0.1-26.48l1.89-2.86l-1.92-0.89c0-15.74-0.01-31.49-0.01-47.24l1.92-1.15l0.19-56.05  c4.38-0.3,6.78-0.4,10.88-0.06l0.85,53.25l1.92,0.89c0.03,16.93,0.06,33.87,0.09,50.81l-1.92,1.16c0.75,0.09,1.88,0.34,1.92,0.86  c0.23,3.43,0.82,28.2-0.01,29.41c-0.48,0.7-1.06,1.2-1.92,1.4l1.88,1.32c-1.21,5.12-1.34,9.75-0.39,13.89l50.2,0.13l1.14,1.92v63.98  l-0.66,1.92c-62.66,0.04-125.88-0.1-189.65-0.42l-3.64-1.09c-0.76-0.07-1.91-0.34-1.93-0.87c-0.82-21.12-0.53-43.15,0.16-64.13  l2.09-1.04l47.39-0.45c0.45-4.33,0.5-8.67,0.16-13.03l1.84-2.12l-1.54-2.42c0.37-8.65,0.03-17.29-1.03-25.94l1.88-2.16l-1.92-0.65  c0,0,0.01-12.28,0.02-36.84l1.92-1.13l0.23-90.61c4.5-0.87,7.8-0.43,12.1-0.2L1067.48,930.33z" />
<path class="cls-11" d="M1054.99,1306.59l1.93,1.11l0.28,33.81c2.52,0.61,5.63,1.14,7.89-0.23l0.44-33.56l1.93-1.1l0.66-1.92  c43.55-0.17,87.11-0.33,130.68-0.5l1.19,1.92v76.18l-207.53-0.87l-1.26-2.05c0.61-4.7,2.57-14.3,3.97-18.75  c2.86-9.09,4.26-12.62,14.33-10.39c-3.71-7.57-6.82-15.33-9.35-23.29c-0.2-1.52-0.21-2.96,0.24-4.42c0.86-2.79,6.82-13.51,8.7-16.64  c0.4-0.67,1.09-0.91,1.84-0.94c0.79-0.5,1.59-0.97,2.44-1.31c4.77-1.91,29.68,0.14,36.78,0.91  C1051.93,1304.72,1053.51,1305.68,1054.99,1306.59z" />
<path class="cls-5" d="M152.43,870.57l1.93,0.88l0.44,78.94c2.47-0.48,4.31-0.15,5.53,1.01c1.94-0.75,3.97-1.48,6.08-1.46  c15.23,0.18,30.24,0.15,45.47,0.01c2.12-0.02,4.15,0.75,6.1,1.51c0.38,2.26,1.83,4.54,0.49,7.71l-115.62-3.19l-0.35-53.32L0,900.48  v-86.4l109.34,0.14l0.42,53.32C124.36,869.84,138.45,870.07,152.43,870.57z" />
<path class="cls-6" d="M151.89,1352.66c0.42-2.99,7.3-2.1,7.46,0.72c0.03-0.75,0.3-1.9,0.77-1.88c51.56,2.11,104.26,5.16,155.88,9.34  l11.23,2.46c2.86,0.57,9.69,2.85,9.81,5.53c0.15,3.13-34.26,6.88-40.05,7.38c-37.92,1.82-75.79,4.11-113.61,6.9l24.43,3.52  c1.79,2.26,1.6,3.72-0.58,4.37c-4.63,1.11-9.33,1.86-14.04,2.49c-8.83,1.2-21.13,2.73-29.81,2.32c-1.49-0.07-2.83-0.88-4.06-1.67  c-0.18,2.98-7.49,3.33-8.29,0.55l-0.64,1.93c-49.72,0.7-99.44,1.4-149.18,2.09L0,1396.8v-45.12L151.89,1352.66z" />
<path class="cls-2" d="M1200,1083.43v52.1c-0.16,0.75-0.53,1.85-1.07,1.83c-12.36-0.65-29.85-1.86-41.77-4.06  c-2.99,0.31-4.69-0.5-5.12-2.43l-4.19-1.04c-2.93,0.64-11.34,2.34-12.29-1.42c-2.02,2.4-4.84,2.2-6.46-0.5  c-0.91-0.69-2.3-0.95-4.18-0.79c-0.14,2.88-5,2.49-5.39-0.22c-1.06-0.43-2.5-0.9-4.3-1.43c-2.7,2.57-6.64,3.25-11.82,2.03  l-25.91-4.2l-2.17-2.1c-1.05-0.83-2.76-1.13-5.11-0.92c0.04,2.77-2.14,2.49-2.62-0.13c-1.15,1-2.8,1.12-4.94,0.37  c-3.64,0.74-6.12,0.11-7.46-1.91l-1.13,1.79l-45.89-5.95c-2.76-1.28-3.93-4.39-3.53-9.3c-0.75-6.53-1.58-15.74,1.4-21.29  c22.68-1.31,45.15-0.53,68.5-0.51L1200,1083.43z" />
<path class="cls-11" d="M1200,1215.42v77.69l-0.68,1.92c-43.64-0.32-87.28-0.64-130.93-0.97l-1.15-1.93l-1.91-0.89  c0.09-14.26,0.18-28.52,0.28-42.79l1.93-1.13l4.39-1.94c19.32-1.24,40.36-1.54,59.62,0.28c0.71,0.07,1.4,0.48,2.12,0.91  c0.73,0.44,1.39,0.99,2.03,1.58l1.91,2.31c-0.29,5.94-0.21,11.88,0.22,17.8c0.61,1.37,5.62,1.04,6.15,0.19  c0.5-0.79,1.25-16.52-0.58-18.49l1.02-1.87c-2.45-1.01-2.19-6.91,0.77-6.92l-1.47-2.81c0.71-6.41,0.95-12.85,0.7-19.32l1.91-2.63  l0.85-1.94c17.21-0.32,34.43-0.64,51.66-0.96L1200,1215.42z" />
<path class="cls-14" d="M150.83,1151.3c0.57,1.15,1.11,2.32,1.51,3.53c0.4,1.2,0.78,2.39,0.83,3.58c0.86,18.15,0.68,36.37-0.14,54.51  c-0.05,1.19-0.41,2.38-0.79,3.59c-0.38,1.22-0.89,2.39-1.44,3.55L0,1220.16v-18.24l102.57-0.15l0.59-50.67L150.83,1151.3z" />
<path class="cls-5" d="M1200,1481.29v26.72l-129.79-4.32c-6.35-0.21-107.21-2.79-98.82-12.7c5.43-2.3,10.91-4.22,17.7-4.8  C1059.46,1480.12,1129.7,1479.01,1200,1481.29z" />
<path class="cls-14" d="M1152.04,1130.86l47.96,4.67v79.89l-53.69,1l-1.92-0.66l0.04-83.41  C1145.08,1128.38,1149,1129.64,1152.04,1130.86z" />
<path class="cls-11" d="M151.03,1394.68c0.75,0.07,1.87,0.28,1.94,0.82c0.54,4.4,1.36,23.01,0.68,26.67l-1.89,1.18  c-50.56-1.3-101.18,0.22-151.76,1.29v-27.84L151.03,1394.68z" />
<path class="cls-10" d="M1200,911.07v58.39l-0.85,1.94c-16.92,0.34-33.84,0.68-50.77,1.01l-1.19-1.9l-0.09-52.86  C1164.62,914.65,1182.23,911.68,1200,911.07z" />
<path class="cls-7" d="M1067.24,1292.13l132.76,0.98v12.99l-132.53,0.5c-1.41,1.28-3.46,1.58-6.17,0.9c-2.86,0.81-4.96,0.5-6.31-0.92  c-14.69-0.3-29.43-1.95-44.04-1.66c-1.15,2.38-2.08,2.74-3,0.06c-4.45,3.5-14.82,3.59-18.26-1.42c-3.03,1.01-7.32-7.11-3.93-8.44  c0.05-0.75,0.22-1.87,0.76-1.96c4.94-0.81,21.85-1.84,26.55-1.32l1.47,1.85c1.63-2.55,2.97-2.73,4.05-0.56  c1.54-0.83,3.16-1.56,4.93-1.68c5.74-0.38,25.43-1.21,29.23,0.08c0.87,0.29,1.69,0.71,2.5,1.16c0.06-0.74,0.17-1.78,0.72-1.96  C1057.92,1290.13,1066.75,1289.54,1067.24,1292.13z" />
<path class="cls-2" d="M0,1030.08v-10.56l219.77,0.85c1.19,3.08,1.54,6.62,0.24,9.61L0,1030.08z" />
<path class="cls-5" d="M1200,969.46v32.67l-0.89,1.92c-16.92,0.02-33.85,0.03-50.78,0.05l-1.15-1.92l0.01-31.67L1200,969.46z" />
<path class="cls-13" d="M1200,1002.13v17.32l-53.45-0.14c-1.73-5.91,0.62-11.96,0.62-17.12L1200,1002.13z" />
<path class="cls-1" d="M790.06,349.33c3.66,42.61-1.64,87.75-1.63,131.66l1.92,0.67c0.01,51.31,0.02,102.66,0.03,154.03l-1.92,3.51  l1.92,0.67c-0.02,41.35-0.04,82.71-0.06,124.07l-1.92,1.17l1.92,0.66c0.18,55.37,0.37,110.74,0.55,166.13l-1.92,1.18  c1.27,2.7,1.9,4.04,1.9,4.04c-0.97,16.19-1.1,32.37-0.39,48.54l-1.47,4.22c3.31,0.93,3.23,10.83,0.18,12.08l1.91,0.68l-0.97,121.52  c36.22,6.89,72.04,15.44,107.46,25.66c10.53,2.45,21.39,3.37,32.19,3.39l4.18,1.85l-1.77,2.3c-26.51,1.64-53.15-0.52-79.92-6.46  l-88.33-16.55c-35.05-7.77-70.13-11.19-105.24-10.26l-3-1.56c-0.14-2.25,1.27-3.76,4.23-4.51c17.84-5.27,36.37-6.48,55.59-3.62  c15.78,1.82,31.43,3.6,46.94,5.34l-18.67-22.71l-218.6-18.6l-24.88,82.64l-2.17,0.58c1.57,1.31,1.4,3.52-0.5,6.62  c-0.08,2.11-0.86,3.39-2.34,3.85c1.41,3.78-4.94,3.91-3.6-0.14c-1.53-2.48-1.31-8.35,1.83-9.28l-1.63-1.21l26.27-82.28  c-3.62-0.91-7.46-1.64-11.54-2.18c-5.95-0.38-7.4-9.6-1.74-7.31l4.07-0.35c1.26-3.13,10.6-2.63,12.58-0.31  c1.5-2.56,3.67-2.72,6.51-0.48l3.58-0.45l3.1-2.28c60.63-6.51,121.07-13.36,181.33-20.55c19-8.49,33.35-24.22,44.09-41.74l3.14-1.13  l-0.42-2.6c1.71-2.76,3.5-5.04,5.37-6.85c-0.32-2.74,0.65-5.48,2.89-8.21c6.15-14.93,7.78-30.93,4.88-48.02l1.78-2.69  c-2.52-0.93-2.54-1.64-0.11-2.76l-1.92-0.67c0.01-55.06,0.01-110.13,0.02-165.21l1.92-1.18c-0.75,0.01-1.91-0.2-1.92-0.67  c-0.63-50.04-0.62-101.74,0.01-151.8l1.92-1.19l-1.92-2.6l0.04-114.8l0-11.87l1.92-1.18l-1.92-0.68l0.79-125.79  c-0.03-2.89,0.63-5.19,1.96-6.9l-1.77,0.05c0.87,1.46,0.8,3.65-0.22,6.57c-14.49,42.54-29.09,84.98-43.8,127.32l-2.26,1.15l1.6,1.25  c-13.37,39.05-26.74,78.12-40.11,117.19l-2.19,0.48l0.48,4.42c-17.85,50.62-35.69,101.21-53.52,151.77l-2.2,0.47l1.59,1.27  c-16.8,48.33-33.6,96.67-50.4,145.02l-2.2,0.49c-0.11,0.84-0.39,0.85-0.81,0.08c-1.78,1.64-2.09,1.41-1.8-0.95  c0.21-2.09,0.45-4.17,0.83-6.23c0.37-2.04,0.78-4.07,1.41-6.02c13.29-40.98,26.93-81.87,40.82-122.64  c1.44-3.88,3.71-7.38,5.96-10.84c0.85-5.03,1.72-10.08,3.38-14.92c9.87-28.88,19.9-57.79,30.12-86.55c0.85-2.39,1.96-4.68,3.1-6.98  c1.14-2.3,2.41-4.53,3.72-6.75c18.64-53.12,37.6-106.81,56.47-160.27l51.14-144.94c-1.84-1.32-5.07-4.38-3.58-6.79  c4.49-1.1,9.13-0.29,14.12-0.4L790.06,349.33z" />
<path class="cls-1" d="M826.32,480.05l18.57,75.66c1.16,0.1,1.1,1.35,0.88,2.27l0.12,2.5c0.56,0.47,1.05,1.25,1.47,2.35l10.97,44.71  c1.09,0.19,1.17,1.26,0.92,2.23c0.06,0.53-0.04,1.08,0.06,1.59c1.06,0.21,1.07,1.28,0.9,2.26c0.42,3,1.86,6.21,1.97,9.28  c0.63,0.51,1.12,1.3,1.47,2.36c-0.97,2.73,1.87,5.17,2.08,7.51c0.81,9.07,4.45,17.59,5.95,26.58c1.05,0.2,1.32,1.31,0.99,2.28  l0.07,1.57c0.62,0.53,1.12,1.32,1.48,2.36c-0.08,1.47,0.12,2.94,0.34,4.38c1.15,0.21,1.33,1.28,0.9,2.27  c0.08,0.48-0.05,0.99,0.07,1.45c1.03,0.32,1.31,1.37,0.99,2.36l0.08,1.56c0.58,0.45,1.07,1.24,1.48,2.38  c3.37,14.96,6.79,30.15,11.59,44.68c0.39,1.17-0.1,3.11,1.11,3.97l2.19,2.47c1.8,9.51,4.31,18.85,7.53,28.02l-1.1,3.17l46.13,170.86  l2.12,0.67c4.86,21.33,7.29,31.99,7.29,31.99l-1.56,1.8l0.88,1.17c2.69,0.6,3.15,3.05,0.92,4.64l0.93,0.93l2.07,1.85  c1.72,7.99,4.04,15.83,6.96,23.52l-1.36,2.45l2.07,0.43c3.5,15.28,6.99,30.57,10.49,45.86l-1.62,1.54l1.41,2.36  c0.7,0.77,1.37,1.57,1.93,2.43c0.55,0.85,1.07,1.68,1.32,2.58c3.85,13.69,7.66,27.47,11.03,41.29c1.12,4.61,2.12,9.24,3.03,13.9  c0.14,0.74,0.07,1.52-0.06,2.31c5.29-1.15,13.36-0.58,19.16,0.6c2.98,0.61,10.6,2.28,11.34,5.25c1.7,6.79-20.18,7.01-24.17,6.48  l-1.95-1.77l-1.59,1.59c1.57,0.54,2.37,1.99,2.39,4.37c1.36,3.33,6.73,17.29,1.57,18.7c-3.09,0.84-5.73-5.65-6.29-8.2l-2.58-11.59  c-6.97-1.26-13.69-0.95-20.17,0.93c-5.15,8.67-10.53,17.17-16.14,25.51l-3.59,0.92c-2.28,1.86-3.37,0.95-1.94-1.61l0.33-3.75  c4.95-7.08,9.22-14.65,12.33-22.73l2.9-2.38c-0.26-1.69,1.17-2.28,2.74-1.95c15.79-2.26,32.03-3.92,48.01-3.98  c0.66-0.86,0.66-1.18,0-0.96c-1.3,0.79-5.78,1.57-6.49-0.28c-1.24-0.91-1.79-0.96-3.29-0.6c-0.32,1.86-1.12,1.82-1.57,0  c-1.2-0.5-1.48-0.36-2.36,0.57c-1.15,1.17-2.51,1.92-4.14,2.08c-9.27,0.92-18.61,1.76-27.9,2.38c-0.74,0.05-1.5-0.13-2.25-0.38  c-0.54,1.31-2.84,2.38-3.82,1.13c-2.17,4.79-13.3,0.52-7.17-3.95c10-1.68,19.83-3.68,29.5-5.99l-35.42-111.37l1.48-1.7l-2.23-0.8  c-2.32-8.11-4.64-16.22-6.96-24.33l1.47-1.86l-2.15-0.59c-7.21-26.58-10.82-39.87-10.82-39.87l1.56-1.6l-2.15-0.67  c-14.21-55.93-28.42-111.85-42.63-167.78l1.57-1.62l-1.67-1.41c-2.67-9.56-5.18-19.25-7.51-29.07l0.7-3.94  c-2.85-0.5-3.71-2.34-1.06-3.85l-2.3-2.11c-6.43-29.51-13.73-58.84-21.9-87.97l1.22-3.05l-2.02-0.19  c-12.32-50.27-24.64-100.56-36.97-150.85l1.58-1.61l-11.1-47.93c-6.09-26.3-14.86-51.68-17.38-79.3L826.32,480.05z" />
<path class="cls-1" d="M322.66,431.4l1.8,1.67c0.06,2.01,2.47,2.38,7.22,1.11c4.69-1.78,9.26-2.28,13.74-1.52  c19.17-3.77,46.68,23.77,58.01,37.89c-17.51-7.94-30.86-18.87-47.23-25.18c-28.01-10.8-30.23,20.46-58.06,1.63  c5.47-2.37,10.39-0.83,14.79-5.96c-38.89-18.65-34.91-5.86-74.95-1.03c16.37-7.55,33.73-16.24,51.86-18.58  C301.98,419.88,311.8,429.49,322.66,431.4z" />
<path class="cls-15" d="M345.42,432.66c-7.32,1.44-14.41,4.99-22.61,3.73c-0.42-1.52-0.28-3.54-0.15-4.99  C329.89,431.65,338.92,427.91,345.42,432.66z" />
<path class="cls-5" d="M777.39,1583.07c0.75,0.19,1.88,0.49,1.94,1.07c0.59,6.24,0.74,16.78,0.34,23.03l-1.9,1.4l-2.5,2.04l-47.51,2.5  c-7.71-0.84-69.65,8.3-69.94,12.5c-0.41,5.96,108.19,12,118.59,12.32l1.3,1.98c0.75,0.2,1.88,0.54,1.92,1.13  c0.24,3.41,0.45,27.91-0.08,29.32c-0.28,0.73-1.17,1.1-1.92,1.4l-172.7-0.17l-1.58-0.76c-8.49-28-16.84-56.05-25.05-84.13l1.52-1.66  l0.67-1.92l168.16-0.37l27.27-1.52L777.39,1583.07z" />
<path class="cls-5" d="M890.91,1640.87c0.67,0.4,1.65,1.02,1.54,1.61c-1.08,5.63-5.78,23.63-8.05,28.2l-2.23,0.82l-91.28,0.22  c-0.55-0.49-1.07-1-1.48-1.59c-1.83-2.62-1.68-21.39-1.28-26.01l1.86-3.47l0.67-1.92c33.02,0.07,66.05,0.15,99.08,0.22  L890.91,1640.87z" />
<path class="cls-1" d="M567.45,1550.56l2.45,2.18c3.27,9.85,6.92,19.58,10.95,29.18l-1.04,3.12l25.11,86.55l-2.79-0.22  c-8.08-28.79-18.72-57.03-27.13-85.6l-10.41-35.38C564.81,1547.65,566.96,1547.9,567.45,1550.56z" />
<path class="cls-1" d="M789.99,1640.65c0.27,10.36-0.43,20.81,0.89,31.08l-13.26,0.04l0.09-31.85c0.14-0.73,0.37-1.75,0.95-1.87  C780.76,1637.63,789.69,1638,789.99,1640.65z" />
<path class="cls-1" d="M899.58,1639.95l-9.53,31.46l-7.89,0.1l8.75-30.63C891.07,1637.87,898.55,1637.2,899.58,1639.95z" />
<path class="cls-8" d="M670.25,642.36c-13.4,38.17-26.39,77.28-40.32,115.19l-1.3,1.81c-10.77-0.98-21.54-1.97-32.31-2.95l-0.95-2.01  c-0.94-0.39-2.37-0.87-4.27-1.46c0.15,2.87-13.03,1.04-13.78,0.61c-0.67-0.39-0.93-1.26-1.14-2.04c-0.61-0.62-1.38-0.89-2.31-0.82  c-0.8,2.92-3.3,2.2-4.37-0.24c-1.07-0.37-2.19-0.82-3.35-1.35c-0.11,0.49-0.27,0.94-0.58,1.23c-0.87,0.82-13.45,0.38-13.37-2.72  c-0.79-0.74-1.19-0.82-2.3-0.79c-1.2,2.47-9.15,0.69-11.69-0.17l-1.35-1.93c-0.67-0.51-1.44-0.77-2.31-0.76  c-1.26,2.49-2.5,2.36-3.45-0.21l-2.41-1.34c-1.39,3.59-11.6,1.53-13-1.48c-0.88-0.66-1.94-0.95-3.2-0.86  c0.2,2.81-2.96,2.61-3.49-0.09l-2.38-1.44c-1.17,2.82-5.44,2.5-6.31-0.42c-0.75-0.69-1.2-0.82-2.25-0.9  c0.11,2.81-3.02,2.51-3.45-0.2l-2.41-1.35c-1.04,3.52-10.87,1.28-12.02-1.49c-0.65-0.53-1.42-0.8-2.29-0.81  c0.1,2.81-3.01,2.5-3.42-0.22l-2.41-1.34c-1.07,2.91-6.35,2.44-7.24-0.46c-0.74-0.69-1.25-0.8-2.26-0.87  c-1.15,2.34-1.69,2.31-2.52-0.17l-2.36-1.4c-1,3.43-10.22,1.45-11.09-1.46c-0.79-0.59-1.25-0.81-2.27-0.83  c-1.07,2.39-1.63,2.37-2.53-0.09l-2.37-1.45c-1.58,2.74-5.07,2.44-6.3-0.44c-0.63-0.6-1.39-0.88-2.3-0.84  c0.11,2.81-3.01,2.51-3.43-0.2c-1.04-0.46-2.15-0.92-3.33-1.4c-0.47,3.53-9.5,1.28-10.17-1.37c-0.78-0.68-1.85-0.98-3.21-0.89  c0.09,2.81-3.01,2.49-3.41-0.22c-1.1-0.4-2.21-0.86-3.34-1.38c-0.87,3.36-9.54,1.5-10.15-1.43c-0.57-1-1.33-1.27-2.27-0.82  c-0.69,2.59-2.81,2.38-3.67-0.11c-1.78,0.85-3.26,0.51-3.66-1.6c-1.39,3.02-7.29,2.63-8.62-0.37c-0.65-0.54-1.42-0.8-2.3-0.79  c0.12,2.81-3.01,2.52-3.45-0.19c-1.08-0.42-2.18-0.88-3.32-1.41c-1.04,3.37-10.17,1.4-11.1-1.45c-1.06-0.42-2.17-0.88-3.35-1.37  l-1.27,1.8c-2.79,0.26-11.99-0.41-12.7-3.22c-0.62-0.62-1.38-0.9-2.29-0.85c-0.8,2.91-3.3,2.2-4.38-0.24  c-1.03-0.39-2.15-0.85-3.35-1.36c-1.44,3.52-11.54,1.53-13.03-1.4c-0.94-0.41-2.36-0.9-4.26-1.47l-1.27,1.8  c-2.79,0.26-11.99-0.41-12.7-3.22c-0.62-0.61-1.38-0.89-2.3-0.84c0.08,2.85-3.04,2.46-3.43-0.21c-1.36-0.44-2.79-0.9-4.3-1.37  c-0.18,0.75-0.54,1.44-1.24,1.81c-0.66,0.35-14.06-0.46-13.72-3.2c-0.96-0.51-2.06-1.01-3.3-1.48c-1.36,2.29-3.33,1.99-5.67,1.6  c-4.49-0.27-12.16-1-14.98-4.08c-1.05-0.41-2.16-0.87-3.34-1.38c-1.52,3.43-11.39,1.32-13-1.47c-1.12-0.56-2.51-0.85-4.17-0.86  c0.13,2.81-3,2.53-3.45-0.17c-1.15-0.37-2.26-0.86-3.32-1.46c-0.2,2.9-6.74,2.54-7.31-0.33c-0.86-0.68-1.94-0.97-3.23-0.87  c-0.85,2.94-3.82,2.25-4.72-0.56c-2.67-0.32-2.45-1.69,0.14-2.28c1.01-3.04,5.49-3.53,6.42-0.28c0.78-0.99,2.93-1.07,4.21-0.8  c0.05-3.21,4.27-3.46,5.46-0.75c1.63,0.15,3.02-0.14,4.18-0.89c1.06-1.8,3.35-2.38,6.88-1.74c2.34-0.79,4.09-0.59,5.24,0.59  l2.24-0.08c1.46-3.19,8.52-3.24,10.17-0.18c3.04-0.36,6.08-0.81,9.11-1.35c0.08-0.73,0.21-1.78,0.77-1.94  c1.99-0.58,10.86-0.98,11.32,1.63c1.37,0.16,2.46-0.08,3.28-0.71l0.82-1.95c15.14-0.54,30.24-0.81,45.29-0.8  c2.21-0.22,4.01,0.12,5.4,1.01c0.76-0.49,0.85-0.93,0.14-1.33c-2.06,0.81-6.18,0.91-7.53-0.89l-2.3-0.04  c-0.07,0.7-0.16,1.25-0.31,1.27c-3.05,0.38-10.49,0.9-11.73-1.57c-2.14-0.49-4.22-0.93-6.25-1.33c-1.34,3.24-8.72,2.83-10.15-0.21  l-2.26-0.06c-4.97,2.18-12.27,1.66-16.9-1.17c-0.92-0.61-2.32-0.9-4.2-0.87c0.34,2.9-5.92,2.65-6.33-0.13  c-1.26-0.47-3.01-0.94-5.26-1.42c-0.76,0.92-1.68,1.66-2.86,1.96c-2.44,0.61-16.49-0.83-19.87-1.44l-2.73-2.03  c-2.44-0.5-4.83-0.96-7.18-1.37c-0.85,2.95-5.71,2.89-6.34-0.18c-0.99,0.03-2.05-0.03-3.19-0.19c-3.42,2.24-10.11,1.79-13.1-1.04  c-1.5-0.91-3.53-1.22-6.07-0.92c-1.02,2.27-5.48,2.14-5.48-0.74c-1.45,0.26-2.53,0-3.25-0.79c-0.14,0.74-0.42,1.8-0.99,1.86  c-1.96,0.2-16.63-0.75-18.45-1.25l-1.26-2.01l-1.07-0.4c0.28-1.98-0.03-3.76-0.92-5.35c-2.79-0.15-3.05-3.19-0.23-3.87  c0.4-1.61,0.52-4.58,2.27-4.94c1.53-0.32,4.47-1.61,6.16-1.17c10.65,2.77,28.41,1.29,39.49,0.44c14.17-1.08,28.16-0.4,42.77-0.1  c35.35,0.74,70.4-3.47,106.14-2.69c6.08,0.13,10.36-0.22,16.5-0.81c41.94-4.02,110.84-0.24,155.72-0.91l96.54-1.43  C641.24,637.93,655.63,635.08,670.25,642.36z" />
<path class="cls-1" d="M512.57,537.32c1.64-1.05,5.56-0.96,4.04,1.22c-0.3,0.04-0.61,0.2-0.91,0.21c-0.57,0.51-1.35,0.99-2.35,1.44  c-1.55,0.15-3.02,0.66-4.46,1.24c-0.06,1.05-1.12,1.24-2.07,1.08c-55.99,22.53-51.03,19.01-93.4,61.09  c9.93,5.84,18.96,8.3,30.09,11.45c-26.66,5.26-53.41,16.38-77.61-2.77c-7.58-6-13.15-9.94-23.02-6.33c-0.23,1.11-1.29,0.96-2.28,0.8  c-3.07-0.49-4.96,0.78-4.25-0.92c0.2-0.49,1.02-0.77,1.49-0.92l6.96-4.25l1.73,1.39c2.84-4.59,9.81-3.89,14.62-3.28  c7.13,2.92,13.52,2.98,19.17,0.19c2.55-2.53,5.09-3.78,7.62-3.74c5.5-5.46,12.54-10.44,17.18-17.2l1.96-2.08  c1.32-0.32,1.91-2.91,2.79-3.74l0.95-1.12c5.22-6.6,9.7-14.25,18.64-16.87c24.51-7.17,49.31-12.63,74.28-15.67  c0.45-1.36,2.2-1.56,3.32-0.89C508.77,537.16,510.82,537.47,512.57,537.32z" />
<path class="cls-3" d="M160.19,649.75c-0.3,1.19,0.35,2.63,0.23,3.87c1.34,1.53,1.53,4.84-0.1,6.06l1.92,0.91  c0.02,77.62,0.05,155.26,0.07,232.92l-1.92,1.19l1.92,0.88c-0.02,18.22-0.04,36.44-0.06,54.68l-1.92,1.14  c-1.36,0.69-6.55,2.02-7.45-0.27l-0.46-80.57l-0.29-212.99c0-2.68-0.59-6.59,1.39-9.03C154.82,646.95,158.5,648.1,160.19,649.75z" />
<path class="cls-1" d="M370.46,591.21l-1.51,1.84c-6.11,0.78-12,2.74-17.67,5.85c0,0-0.92-0.31-2.75-0.92  c-2.34,2.18-4.74,2.74-4.58-0.97c-12.69-5.6-26.74-5.65-40.43-6.71c-6.51,0.36-13.03,0.37-19.55,0.03  c-6.54,1.65-14.11,0.13-20.7,1.11c-1.66,0.07-1.61-1.52-0.05-1.98C311.67,578.53,325.85,564.09,370.46,591.21z" />
<path class="cls-1" d="M281.94,518.75c1.27,0.35,2.4,0.79,3.39,1.33l4.39,0.21c1.95-0.35,3.35-0.05,4.18,0.89  c2.76,0.47,6.15-0.39,8.81,2.47l-29.69,0.73c-12.64,0.31-25.33,5.39-34.04,14.57c4.16,3.28,8.84,2.52,8.81,6.32  c-0.39,0.83-1.16,1.36-2.31,1.59c-5.91,0.17-11.78,0.36-17.69,0.02c-1.07-0.35-1.88-0.89-2.41-1.59  c-7.16-1.53-11.98-8.53-19.64-8.04c-0.94-0.34-1.73-0.82-2.38-1.44l-3.49-0.23c-0.94,0.4-1.93,0.31-2.25-0.76  c-14.48-2.17-27.36,1.71-43.3,5.25c22.3-14.16,48.26-15.05,72.73-6.22c9.76-5.06,17.72-10.78,27.23-12.6  c0.26-1.1,1.24-1.33,2.25-0.88l2.51-0.2c0.6-0.77,1.71-1.25,3.32-1.46L281.94,518.75z" />
<path class="cls-15" d="M370.46,591.21c5.84,0.59,12.61,1.15,17.49,4.02c-17.33,17.21-21.38-0.27-41.4,6.83  c-3.26-2.09-1.43-3.74,1.98-4.08C355.48,595.42,362.71,590.43,370.46,591.21z" />
<path class="cls-4" d="M303.52,590.29c-5.99,1.81-13.53,1.74-19.55,0.03C290.54,588.67,296.98,589.79,303.52,590.29z" />
<path class="cls-12" d="M348.53,597.98c-1.25,1.02-2.18,2.42-1.98,4.08c-2.89,1.03-5.54,2.79-8.7,2.86c1.01-3.6,6.13-3.88,6.09-7.91  C345.14,597.53,347.22,598.46,348.53,597.98z" />
<path class="cls-4" d="M516.61,538.54c-0.3-1.46-2.77-1.33-4.04-1.22c-1.01-1.38,4.78-1.36,6.24-0.84  C519.58,536.74,518.03,538.37,516.61,538.54z" />
<path class="cls-11" d="M11.73,645.83c-1.78-0.12-5.17,1.31-5.27-1.35C8.27,644.21,11.72,643.16,11.73,645.83z" />
<path class="cls-4" d="M293.89,521.18c-1.35-0.23-3.42,0.7-4.18-0.89c0.86,0.04,1.57-1.23,2.59-1.07  C293.39,519.38,294.43,519.91,293.89,521.18z" />
<path class="cls-11" d="M38.63,648.68l-2.54,0.3c-0.71,0.08-2.26-0.26-1.8-1.63c0.83,0.06,2.13-0.58,3.34-0.22  C38.18,647.29,39.11,647.66,38.63,648.68z" />
<path class="cls-10" d="M1055.1,933.05l-0.03,38.62l-0.61,1.94c-32.38,0.87-64.77,1.75-97.17,2.62l-1.22-1.89l-0.93-0.93  c-0.52-1.5-0.78-3.06-0.92-4.64l-0.88-1.17l-7.85-34.46L1055.1,933.05z" />
<path class="cls-8" d="M899.37,762.28c-2.96-10.95-7.74-22.35-8.61-33.67c62.09-2.06,124.57-0.33,188.66,8.58  C1018.6,751.61,959.02,756.16,899.37,762.28z" />
<path class="cls-10" d="M1135.18,920.52l0.01,49.27c-0.68,0.59-1.39,1.14-2.15,1.57c-0.76,0.43-1.49,0.83-2.25,0.91  c-18.47,1.96-39.97,1.84-58.6,1.16l-4.71-1.79l0.02-41.31L1135.18,920.52z" />
<path class="cls-9" d="M1191.52,675.74c-1.64,1.2-3.13,0.75-5.11,0.93c-0.55-1.64,1.32-2.06,2.52-1.86  C1189.78,674.96,1191.28,674.66,1191.52,675.74z" />
<path class="cls-9" d="M1171.44,678.05c0.5,1.02-0.48,1.35-1,1.51c-1.18,0.35-2.47-0.19-3.29-0.14c-0.46-1.37,0.99-1.67,1.73-1.7  C1169.93,677.7,1170.76,678.12,1171.44,678.05z" />
<path class="cls-9" d="M1081.2,691.49c0.49,1-0.47,1.35-1.01,1.5c-1.17,0.31-2.39-0.06-3.25-0.03c-0.63-1.39,0.93-1.77,1.68-1.8  C1079.67,691.13,1080.44,691.57,1081.2,691.49z" />
<path class="cls-9" d="M1099.36,689.19c-0.69,1.62-2.84,0.69-4.19,0.83c-0.51-1.23,0.69-1.67,1.66-1.83  C1097.84,688.03,1098.52,689.24,1099.36,689.19z" />
<path class="cls-7" d="M426.66,1644.8c-62.84,5.45-125.71,5-187.93-0.54c-11.21-1-22.19-1.67-31.43-8.46  c5.49-5.45,12.77-6.74,20.32-7.83c68.64-9.97,138.95-9.51,207.58,0.45c8.05,1.17,15.83,2.59,21.86,8.56  C447.96,1642.53,437.8,1643.83,426.66,1644.8z" />
<path class="cls-14" d="M544.38,1002.33c0.18,0.98,0.32,1.95,0.33,2.93c0.01,0.96,0.01,1.89-0.26,2.73  c-5.92,18.87-12.03,38.28-19.22,56.69c-0.72,1.83-2.15,3.2-3.72,4.34c-3.91,0.84-8.69-0.01-12.58,0.31  c-1.25,0.17-2.61,0.28-4.07,0.35c-1.48,0.21-1.75,1.75-1.56,3.01c0.53,3.49,13.02,3.21,17.44,4.63l-27.25,85.34l-4.23,1.48  c-13.66-0.39-27.25-0.73-40.78-1.02l-2.05-1.29c-0.67,0.49-1.35,0.58-2.02,0.16c-5.74-14.47-11.58-28.56-17.5-42.28  c-13.35-1.89-26.79-2.72-40.32-2.51c0.83,0.77,1.18,1.75,1.47,2.81c0.76,2.79,2.42,9.2,0.02,10.66c0.47,0.69,0.94,1.48,1.41,2.35  c0.46-0.09,0.91-0.12,1.31,0c1.23,0.38,5.9,22.14,6.39,24.97l-1.56,1.79c0.96,1.72,0.63,2.75-0.97,3.09  c-3.53-0.05-6.87,0.18-10.02,0.7l2.32,1.71c1.16,2.64,6.33,17.72,5.78,18.92c-0.24,0.51-0.58,0.97-0.94,1.42l2.6,2.14  c3.45,11.01,10,20.63,16.53,30.04l0.02,3.41l-0.93,1.92c-82.85-0.36-165.72-0.71-248.6-1.07l-1.19-1.93l-1.92-0.9  c0.04-22.26,0.07-44.53,0.11-66.8l1.92-1.16l62.97-0.21l0.78,27.46c7.13,0.57,14.06,0.61,21.42-0.13l0.24-49.53  c-2.96-0.42-2.79-7.81,0.05-8.46l0.14-24.23l50.15-0.45c16.07-0.14,31.63-1.61,47.41-6.66c-1.78-2.67-4.93-5.5-7.49-5.44  c-24.58-18.74-52.24-33.58-78.77-49.57c2.12-1.56,3.18-2.34,3.18-2.34c36.44-2.32,73.02-3.28,109.75-2.89  c7.63-0.21,61.84-2.13,62.62-5.18c0.1-0.37-0.21-0.85-0.64-1.36c-3.92-0.68-7.88-1.22-11.89-1.61l-1.13,1.91  c-12.48-0.08-24.97-0.16-37.46-0.25l-1.39-1.93c-2.84,0.16-2.73-2.83-0.1-3.54l95.99-0.16l0.54-0.77c-2.2-0.91-4.38-1.87-6.55-2.87  c-13.57-1.84-26.65-7.11-39.98-9.65l0.65-1.93c37.45-0.36,74.91-0.73,112.38-1.09L544.38,1002.33z" />
<path class="cls-10" d="M569.46,932.18c0.18,1.16,0.31,2.32,0.31,3.48c-0.01,1.15-0.03,2.27-0.34,3.3  c-6.36,20.62-14.51,40.96-22.77,60.79l-2.28,2.57l-114.21,1.11c-61.27-11.7-121.57-27.49-183.9-36.96l-0.68-22.61  c-8.38-0.95-17.22-0.58-25.32,0.23c-1.43,1.75-2.63,5.36-2.29,7.37c-18.82,1.41-38.95,1.57-57.64-0.06l0.06-56.69l1.04-1.98  l9.96,0.16c2.57-0.9,4.66-0.92,6.24-0.05c3.59-2.09,6.97-2.53,8.81,1.8l0.63,35.9c127.03,0.04,254.09-0.05,381.19-0.27  L569.46,932.18z" />
<path class="cls-10" d="M380.28,1020.43l39.98,0.26c3.99,0.49,7.95,1.03,11.89,1.61c2.37,0.43,6.05-0.98,5.85,2.73  c-53.19,10.24-135.73,2.89-180.76,9.02c-3.15,0.43-8.72-0.69-10.69-2.62c-2.02-1.98-0.08-8.34-0.66-10.85  c-0.05-0.5-0.04-0.96,0.18-1.28c0.59-0.85,18.58-0.77,20.45,0.23c10.28-0.58,20.65-0.45,31.1,0.37c25.19-1.12,50.48-1.31,76.3-1.24  C376.16,1018.66,378.28,1019.42,380.28,1020.43z" />
<path class="cls-12" d="M265.71,1016.9c2.08,1.32,5.01,1.13,7.14,0c2.36,0.37,4.88,0.2,7.25,0.02c11.31,0.95,22.74,1.37,34.03-0.02  l66.05-0.01l0.1,3.54c-15.91-0.1-31.77,0.64-48.59,0.56l-85.81-0.4c-0.21-0.88-0.43-3.37,1.02-3.39L265.71,1016.9z" />
<path class="cls-9" d="M314.13,1016.9c-10.39,2.8-23.62,2.76-34.03,0.02C291.42,1016.03,302.81,1016.9,314.13,1016.9z" />
<path class="cls-9" d="M476.17,1016.73c-1.61-2.05-5.04-1.05-6.01-3.64c3.76,0.51,7.06,2.27,11.38,3.3  C480.17,1018.02,477.01,1017.61,476.17,1016.73z" />
<path class="cls-9" d="M272.85,1016.9c0.23,2-2.2,1.76-3.57,1.76c-1.37,0-3.8,0.24-3.57-1.75  C268.14,1016.86,270.42,1016.52,272.85,1016.9z" />
<path class="cls-7" d="M778.62,1518.62c0.53-3,8.75-2.87,9.53,0l144.99,3.83c0.74-2.88,7.9-2.46,8.52,0.46  c54.61,2.97,127.62,2.79,180.63,16.6c-11.15,4.84-21.48,4.86-32.77,5.48c-53.03,2.91-105.71,2.58-158.43,3.75  c-0.67,2.98-9.28,3.15-10.28,0.23l-1.17,1.93c-42.83,0.21-85.66,0.43-128.49,0.64l-1.19-1.91c-0.89,3.08-11.24,2.95-12.4,0.01  l-0.67,1.92c-69.59-0.43-138.92-0.14-207.98,0.86l-1.46-1.85l-2.86-0.17l-126.86-1.43c-21.99-0.25-43.32-0.42-65.58-6.87  c11.26-6.45,22.92-7.45,34.74-9.1c42.86-5.97,85.69-8.16,128.54-9.77c1.75-0.49,3.51-0.93,5.29-1.32c3.79,0.57,7.57-0.14,11.32-0.35  c1.34-0.07,3.33,0.29,4.87-0.01c0.63-2.4,1.83-2.16,3.59,0.74c4.25-0.65,8.51-1.27,12.79-1.73c4.27-0.47,8.54-0.92,12.81-1.06  c55.59-1.8,111.22-2.59,166.84-2.74c4.28-0.01,8.56,0.29,12.84,0.61C770.06,1517.67,774.34,1518.12,778.62,1518.62z" />
<path class="cls-6" d="M540.72,1521.9c-0.08,2.83-3.51,1.25-5.29,1.32C535.52,1520.64,538.93,1521.63,540.72,1521.9z" />
<path class="cls-11" d="M410.95,1221.21l2.49,0.13c3.1,3.29,6.48,6.28,10.14,8.96l-0.07,2.5l5.89,2.8  c13.01,11.94,19.52,17.91,19.52,17.91l-0.46,2.18c-4.97,8.57-13.69,16.09-22.34,21l-0.73,3.4c-13.11,12.82-26.5,26.54-32.08,44.47  l-2.63,2.28l1.43,2.07c-0.24,2.66-2.35,9.97-4.48,11.24l0.58,1.81c3.28-0.67,5.12,0.06,5.51,2.19l1.18,0.58  c-3.34,14.97-6.75,29.99-10.22,45.06c5.27,1.72,12.22,1.57,17.89,0.42c8.34,1.01,16.83,0.94,25.03-0.97  c6.54-15.91,12.14-32.17,16.82-48.76l1.95-2.13c2.58-1.24,5.23-2.46,8.09-2.85c13.55-1.85,28.57-3.42,41.89-1.21  c3.19,4.8,4.79,7.19,4.79,7.19c11.75,36.13,22.75,72.48,33,109.07c0.82,2.79,1.07,5.63,0.75,8.52l-305.27,0.15  c-24.35,0.01-47.54-1.7-70.44-7.15c-3.07,0.03-2.11-11.28-1.17-12.21c0.32-0.31,0.78-0.48,1.29-0.61  c35.72-6.28,68.14-4.11,104.29-10.52c-34.94-4.45-69.7-4.29-104.38-5.18c-0.75-0.09-1.85-0.33-1.92-0.88  c-0.63-5.26-0.61-21.95,0.12-27.13l1.93-1.4c16.41-1.08,33.08-1.38,49.34-5.45l-38.77-5.59c54.61-8.89,112.64-2.79,166.38-14.78  c-14.4-5.67-28.31-6.99-42.79-7.77l-134.12-7.17l-1.92-0.88c0-17.11,0.01-34.22,0.01-51.34l1.92-1.14l1.9-2.11  c10.8,0.23,20.87-1.13,30.22-4.1c-10.04-1.9-20.21-3.02-30.51-3.38l-1.7-2.25l-1.91-0.91c0.31-22,0.62-44.01,0.93-66.02l1.94-1.12  L410.95,1221.21z" />
<path class="cls-1" d="M499.02,1330.76c2.21,0.45,2.82,1.64,1.97,3.71l2.17,0.56c11.91,39.88,23.93,79.64,36.06,119.27  c1.53,1.86,1.89,3.56,1.1,5.08l2.27,0.8c6.46,20.14,12.91,40.28,19.37,60.42l-1.48,1.69c-1.25,0.05-2.66-0.92-3.59-0.74  c-5.82-21.33-16-41.74-22.04-62.48c-12.13-41.63-22.6-84.32-38.53-124.78c-2.95,0.23-2.84-2.73-0.2-3.41  C497.15,1328.43,497.81,1328.4,499.02,1330.76z" />
<polygon class="cls-3" points="159.32,1394.13 159.19,1423.55 151.76,1423.35 151.03,1394.68 " />
<path class="cls-3" d="M159.28,1439.25l-0.12,12.82c-2.54-0.61-5.4-0.68-7.43-2.24c-2.55-1.95-2.76-5.63-0.45-7.75  C153.4,1440.13,156.52,1439.73,159.28,1439.25z" />
<path class="cls-11" d="M966.63,1382.26c-0.06,0.79-0.36,1.89-0.94,1.91c-41.5,0.43-84.45,1.26-126.34,5.64  c-6.31,0.66-42.2,4.46-43.75,10.57c-0.2,0.79,2.98,3.01,4.1,3.17c47.4,6.5,95,11.7,142.79,15.61c9.14,0.32,17.62,2.2,25.43,5.64  l1.01,3.33c-0.65,3.87-4.98,20.01-7.1,21.54c-0.53,0.38-1.13,0.66-1.76,0.91c-56.66,5.19-114.04,5.71-171.02,6.83l-1.92-0.66  c-0.39-27.19-0.33-54.33,0.19-81.41l1.76-1.24c26.45-6.41,52.7-14.13,78.77-23.15l14.78-7.33l4.47-0.65  c-0.37-0.77-0.36-1.5,0.12-2.17l7.37-0.66l1.02-1.85c17.37,1.15,34.7,2.59,52,4.3c6.7,12.39,13.44,24.98,20.2,37.76L966.63,1382.26z  " />
<path class="cls-1" d="M887.09,1342.97c-13.56,8.58-28.58,14.42-44.64,18.75l-53.73,14.46l0.33,81.23l-0.9,61.22l-9.53,0l-1.78-2.65  c2.28-19.34-6.04-34.1-20.82-45.98l-0.57-3.11l-4.54-2.66c-8.48-10.01-17.32-19.69-26.54-29.03  c-64.23-8.94-128.22-18.28-191.97-28.02c-3.3-1.35-6.45-2.67-3.01-6.21l183.97-11.02c2.12-0.99,3.91-3.13,4.18-5.5  c-16.89,1.23-33.73,1.07-50.54-0.51c0,0-1.21-0.83-3.62-2.49l4.27-1.43c35.71-1.58,71.24-4.88,106.61-9.88  c35.03-7.75,69.31-17.49,102.84-29.23C880.05,1340.15,887.11,1338.9,887.09,1342.97z" />
<path class="cls-1" d="M1010.95,1304.93c-1.64,7.49-8.69,13.72-9.61,21.86l10.76,24.54c-2.4,2.9-7.92-0.8-10.47,0.2  c-6.89,8.62-5.31,20.94-9.15,29.89c-6.39,14.89-12.2,30.47-16.33,46.18c0.62,0.6,1.27,1.32,1.33,2.23  c0.08,1.05-7.52,17.92-8.46,19.34l-2.27,1.25c-2.23,0.02-4.68,2.01-6.68,0.15c3.47-8.17,5.28-17.48,7.85-25.78l0.14-4.32  c5.13-11.43,9.8-23.01,14.02-34.72l1.83-1.49l-1.56-1.3l12.07-31.21c-13.28-2.28-26.63-3.82-40.06-4.62  c6.23,12.11,12.97,24.16,20.22,36.18l-1.1,1.94c3.15-0.18,3.12,7.89,1.05,8.63c-1.7,0.61-7.71-7.85-8.26-9.44l0.37-2.18  l-19.88-38.14l-52.17-3.98c-10.45,0.43-20.99,0.13-31.64-0.9l-2.56-2.21c-0.86-0.56-1.25-0.63-2.29-0.59  c-0.48,3.12-3.66,2.02-3.61-0.92l-1.65-1.68c-7.3-2.45-57.21-20.49-58.08-23.51c-1.21-4.16-0.13-5.02,5.49-4.23l38.88,2.01  c53.74,5.17,106.38,11.99,157.92,20.47c-0.97-3.45-0.49-5.6,1.44-6.46c-0.52-1.87,0.09-3.84,1.85-5.9l4.42-9.76l3.21-1.45  L1010.95,1304.93z" />
<path class="cls-1" d="M955.98,1485.89c-5.96,11.63-10.77,24.37-14.31,37.02l-8.52-0.46c2.45-8.26,7.56-40.2,15.91-40.74  C953.38,1481.43,956.83,1480.84,955.98,1485.89z" />
<path class="cls-9" d="M966.75,1450.43c1.56-7.93,7.49-15.55,9.4-22.83c4.23,2.52,11.9,7.08,9.21,13.24  C982.59,1447.19,972.89,1450.38,966.75,1450.43z" />
<path class="cls-7" d="M901.41,1612.58c1.26-2.44,7.43-2.67,8.43,0c8.75,1.17,68.78,7.26,68.48,16.1  c-0.3,8.82-71.36,10.49-78.73,11.28l-8.68,0.93l-100.92-0.23l-12.28-0.74c-0.72-0.04-143.85-6.25-119.68-16.53  c27.79-11.82,88.59-13.37,119.74-14.82c0.07-0.74,0.19-1.78,0.75-1.96c2.06-0.64,10.99-1.22,11.59,1.38  c1.41-0.56,2.84-1.08,4.3-1.46c1.45-0.38,2.88-0.73,4.32-0.79c30.92-1.22,63.63,0.6,94.38,4.04c1.41,0.16,2.79,0.6,4.18,1.07  C898.7,1611.32,900.06,1611.93,901.41,1612.58z" />
<path class="cls-1" d="M931.1,1548.75c-2.23,12.52-8.9,23.75-12.56,35.86c-2.82,9.32-5.03,18.77-8.71,27.97  c-2.53,0.27-5.04,0.37-8.43,0c-0.35-0.72-0.67-1.44-0.85-2.2c-0.18-0.73-0.32-1.43-0.19-2.07c1.49-7.37,3.63-17.28,8.88-22.29  c-0.31-1.8-0.51-3.67-0.06-5.46c1.58-6.22,6.88-25.66,9.68-29.45c0.57-0.77,1.25-1.47,1.95-2.14L931.1,1548.75z" />
<path class="cls-7" d="M245.8,1120.4l-0.05,8.46c-54.63,0.68-109.09,1.17-164.12-0.65c-17.07-0.57-34,1.43-50.66-4.36  C103.71,1118.51,174.67,1118.8,245.8,1120.4z" />
<path class="cls-10" d="M160.34,1151.27l-0.11,68.86c-0.4,2.98-7.86,2.95-8.6,0.13c-0.28,0-0.56-0.21-0.84-0.21  c1.06-22.81,1.59-46,0.04-68.75L160.34,1151.27z" />
<path class="cls-7" d="M151.76,1287.38c1.65-1.6,7.11-2.04,7.51,0.8c12.65,2.47,25.16-0.28,37.76,5.75  c-11.67,6.23-25.35,4.73-37.66,6.08c-0.68,3.06-7.14,3.58-8.38,0.67l-32.92-0.7c-17.97-0.38-35.88,0.76-54.28-5.08  C88,1284.31,127.93,1290.39,151.76,1287.38z" />
<path class="cls-4" d="M160.23,1220.13l-0.96,68.05c-2.21-0.43-4.91,0.95-7.51-0.8l-0.13-67.12L160.23,1220.13z" />
<path class="cls-3" d="M159.37,1300.02l-0.01,53.36c-2.35-0.13-5.38-0.71-7.46-0.72l-0.9-51.97  C153.06,1300.73,156.3,1300.35,159.37,1300.02z" />
<path class="cls-14" d="M1055.77,1002.2c0.18,5.43,0.65,10.97-0.23,17.06l-50.02,0.48l0.53,64.1c0.08,9.25-0.03,18.52,1.24,28.54  l47.91,6.22l1.92,0.65c0.21,31.95,0.42,63.9,0.63,95.87l-1.91,1.18l-0.12,1.29c0,0-9.95,0.57-29.86,1.71l-2.94-1.06  c-4.78-5.82-9.28-14.07-12.34-20.98c-0.47-1.06-0.28-2.06,0.44-3.01l-0.83-1.05c-1.99-0.31-3.07-4.09-2.91-6.07  c-1.47,0.57-2.13-0.76-0.94-1.86c-2.07-0.59-1.6-4.26-0.55-5.18c-1.08-0.61-1.08-1.86,0.02-2.41l-1.44-1.53l10.43-25.23l-56.9,10.44  l-1.49-1.68c-1.92-0.18-3.62-0.84-5.07-2c8.14-7.46,11.13-18.89,18.46-27.84c5.84-3.79,15.7-1.02,22.49-2.02  c3.4,7.4,1.67,15.46,7.48,21.09c2.52-8.7-4.25-14.57-3.63-21.86c-0.16-0.83,0.37-1.36,1.59-1.59c6.01-0.81,19.16,1.82,24.78-4.36  c-8.62-5.27-20.12-4.54-30.39-5.16c-3.93-21.71-10.81-42.47-16.01-63.58c-0.53-0.67-1-1.46-1.41-2.36l-10.95-47.83l0.67-1.92  c30.05,0.01,60.11,0.02,90.18,0.04L1055.77,1002.2z" />
<path class="cls-5" d="M1055.08,971.67c-0.01,9.73,2.68,20.47,0.69,30.53l-92.02-0.04c-2.08-9.1-7.24-18.19-7.67-27.82L1055.08,971.67  z" />
<path class="cls-5" d="M1135.19,969.79c0,10.81,1.4,21.66-0.51,32.38l-0.89,1.92c-21.69,0.01-43.38,0.02-65.08,0.03l-1.15-1.92  l-0.08-30.56C1090.04,970.84,1112.95,972.9,1135.19,969.79z" />
<path class="cls-13" d="M1134.67,1002.17c-0.88,4.95,2.37,11.25,0.21,17.18l-68.11,0.1c-1.37-6.27,0.8-11.82,0.78-17.25  L1134.67,1002.17z" />
<path class="cls-3" d="M1067.47,1306.61l-0.47,36.41c-3.65,1.39-7.86,1.3-11.7-0.09l-0.31-36.34  C1058.96,1305.43,1063.59,1305.09,1067.47,1306.61z" />
<path class="cls-14" d="M1070.23,1120.27c2.21-0.4,3.91-0.1,5.11,0.92c13.36,0.84,26.82,6.22,39.89,4.27c1.72,0.34,3.15,0.82,4.3,1.43  l5.39,0.22c1.88-0.47,3.27-0.21,4.18,0.79c2.16,0.05,4.32,0.17,6.46,0.5l1.92,0.66c-0.02,28.74-0.04,57.48-0.06,86.23l-1.92,1.16  l-0.88,1.92c-21.98-0.01-43.97-0.02-65.96-0.03l-1.14-1.92l-1.92-0.67c0.04-31.47,0.07-62.95,0.11-94.44l1.92-1.17L1070.23,1120.27z  " />
<path class="cls-3" d="M1067.61,1120.14l-0.11,96.27c0.74,0.23,1.83,0.59,1.87,1.18c0.27,3.72-0.13,11.89-0.63,15.67  c0.5,3.11-0.22,5.04-2.15,5.79c-0.7,2.78-8.7,2.85-9.69,0.27c-3.8-5.92-4.1-16.7-1.06-23.02l-0.64-97.7  C1059.36,1119.14,1063.99,1117.47,1067.61,1120.14z" />
<path class="cls-3" d="M1152.04,1130.86c-1.59-0.15-3.64-0.82-5.69,0.32l-0.04,85.23c0,8.25,0.44,16.79-1.14,24.76  c-2.16,2.28-7.74,1.83-9.33-0.93c-0.75-0.19-1.84-0.48-1.94-1.09c-0.47-2.97-0.77-18.53-0.31-21.27l1.9-1.43l0.07-88.05  C1140.9,1129.24,1148.04,1127.29,1152.04,1130.86z" />
<path class="cls-3" d="M1075.34,1121.19c-1.76-0.11-3.73,0.61-5.11-0.92c0.51-1.17,2.18-0.93,3.5-0.98  C1074.56,1119.25,1075.9,1119.9,1075.34,1121.19z" />
<path class="cls-3" d="M1119.53,1126.89c-1.47-0.06-4.43,0.76-4.3-1.43l2.59-0.39C1118.57,1124.96,1120.16,1125.46,1119.53,1126.89z" />
<path class="cls-3" d="M1129.1,1127.9c-1.37-0.03-3.31,0.55-4.18-0.79c0.82,0.03,1.54-1.36,2.58-1.18  C1128.58,1126.11,1129.63,1126.6,1129.1,1127.9z" />
<path class="cls-9" d="M1066.59,1239.06l0.92-1.9c22.4,0.38,44.81,0.77,67.22,1.15l1.11,1.94c3.12,0.05,6.32,0.21,9.33,0.93  c-0.44,2.21-0.11,4.69-0.77,6.92c-0.91,2.92-8.07,3.28-8.71,0.06c-22.6-3.44-45.35-0.79-68.16-0.84c-0.55,3-8.8,2.85-9.6-0.02  c-2.22,1.73-5.99,1.41-8.47,0.36c-2.17-0.92-6.48-3.8-4-5.97c0.19-3.16,9.78-5,11.44-2.36  C1059.59,1238.87,1063.76,1239.01,1066.59,1239.06z" />
<path class="cls-3" d="M1067.53,1247.32l-0.29,44.82l-11.99,0.57l-1.91-0.91c0.2-13.61,0.4-27.23,0.6-40.86l1.94-1.12  c-1.55-1.29-0.87-2.13,2.05-2.52L1067.53,1247.32z" />
<path class="cls-3" d="M1144.4,1248.09c4.18,5.11,0.87,14.22,1.56,21.05c-1.66,2.47-7.88,2.54-9.88,0.59  c-1-6.96-0.36-14.85-0.39-21.58C1138.54,1248.59,1141.53,1248.06,1144.4,1248.09z" />
<path class="cls-2" d="M963,1263.99c3.52,0.09,6.5,2.38,8.95,6.88l13.9,21.37l-0.09,2.9c0.36,3.02,2.52,5.77,3.93,8.44  c4.19,2.97,7.52,10.35,9.22,15.39l-0.44,3.14c-0.55,2.62,1.17,5.29,0.8,8.74l-73.51-11.06c-43.25-6.5-86.21-10.77-131.14-11.95  c7.49,6.48,60.35,24.48,60.55,25.25c0.2,0.77-0.21,1.7-0.7,2.41c-4.84,0.6-9.73,1.2-14.61,0.96c-60.38-3.91-120.83-7.28-181.35-8.11  c-48.79-0.67-96.24,1.25-144.89,3.28c-4.88,0.2-9.76-0.29-14.6-0.88c-0.95,0.07-1.93,0.13-2.88,0.11  c-7.8,1.95-15.94,2.73-24.43,2.34c-26.9,2.02-53.71,4.61-80.45,7.76l-3.64-0.82c0.08-4.66,1.94-8.94,3.06-13.31l3.12-1.79  c19.67-4.26,39.81-7.64,59.85-10.27c11.16-1.46,22.4-2.88,33.65-3.39c1.12-0.05,2.26,0.19,3.41,0.46c1.17,0.27,2.31,0.68,3.44,1.13  c2.42-0.36,4.8-0.86,7.13-1.48c0.05-0.75,0.24-1.9,0.77-1.96c3.27-0.4,25.86-1.59,26.92-0.69c0.34,0.29,0.54,0.74,0.71,1.25  c2.37-0.41,4.77-0.85,7.19-1.34c0.29-3.11,10.13-3.08,11.09-0.24c3.17,0.24,6.18-0.04,9.03-0.83l9.13-1.72  c69.66-4.64,139.69-3.54,209.42-1.32c-20.8-5.38-31.19-8.08-31.19-8.08l-3.05-2.62c-0.8-0.63-1.18-0.88-2.24-0.9  c-0.66,2.64-1.8,2.52-2.54-0.08c-1.11-0.58-2.2-1.08-3.29-1.5c-0.53,3.35-8.76,1.27-9.19-1.43c-1.15-0.71-1.9-0.8-3.18-0.89  c-0.98,2.49-1.86,2.43-2.51-0.16c-0.97-0.35-1.75-0.83-2.35-1.47c-0.15,2.87-5.02,2.47-5.42-0.29c-1.03-0.83-1.61-0.88-3.18-0.92  c-0.81,1.82-1.84,1.77-2.55-0.07c-1.11-0.57-2.21-1.06-3.3-1.47c-1.06,2.93-6.36,2.47-7.25-0.44c-0.62-0.63-1.39-0.91-2.31-0.83  c-1.02,2.46-1.71,2.44-2.53-0.09c-1-0.66-2.38-0.97-4.15-0.92c0.2,2.81-2.96,2.6-3.48-0.1c-1.07-0.35-2.5-0.84-4.29-1.45l-0.7,0.69  c-70.6-5.45-143.61-8.11-215-6.48c-11.32,0.26-22.87,0.58-33.77,2.86l-1.92-1.32c7.08-6.95,14.42-14.3,22.34-21  c5.26-0.52,10.56-0.92,15.85-0.64c47.33,2.57,94.37,5.03,141.79,6.21c118.63,0.7,236.4,0.97,353.33,0.82L963,1263.99z" />
<path class="cls-11" d="M1018.71,1217.27l2.07-0.35c4.58,7.25,9.53,14.3,14.85,21.15c8.51,6.44,12.77,9.66,12.77,9.66l-1.29,2.54  c-13.25,11.6-22.19,26.99-30.63,42.11l-1.94,1.32l-28.78,1.43c-8.48-9.77-12.77-23.04-22.76-31.14c-1.98,1.01-9.15-8.13-9.05-9.18  c0.08-0.79,8.41-11.6,9.54-12.65l3.5-1.69c-0.56-0.5-1.34-1.33-1.07-1.81c2.62-4.76,12.3-18.79,15.91-22.54l2.37-0.03l2.49-1.84  c9.75,0.34,19.51,0.67,29.27,1.01L1018.71,1217.27z" />
<path class="cls-11" d="M1055.88,1249.82l-0.63,42.89c-12.19,0.58-24.54,1.22-36.65,0.44l-0.88-2.16  c5.33-9.95,23.03-41.23,34.04-42.83C1053.12,1247.96,1056.13,1248.19,1055.88,1249.82z" />
<path class="cls-1" d="M1010.19,1193.2l0.83,1.05c3.51,9.3,9.88,16.99,14.83,25.05l2.41,0.28c3.71,8.6,9.2,15.19,16.45,19.76  l0.74,2.35c2.43,4.33,7.49,5.6,12.47,5.61l-2.05,2.52c-13.55-2.5-31.25,33.4-37.29,43.33c-1.11,0.15-2.8,0.5-4.05,0.56  c6.99-17.25,18.31-32.06,32.55-46.01c-8.04-2.94-13.14-7.62-17.65-14.37l-10.74-16.05c-3.88-2.04-6.62-5.75-8.22-11.14l-5.62-14.34  l0.79-3.51c-1.47-1.51,0.16-2.42,1.63-1.15C1009.12,1188.49,1010.06,1190.91,1010.19,1193.2z" />
<path class="cls-11" d="M1007.95,1305c-4.01,5.32-4.76,12.63-9.48,17.11c-3.52-5.87-5.6-12.48-8.78-18.53  C995.3,1306.2,1001.84,1305.12,1007.95,1305z" />
<path class="cls-13" d="M391.52,716.09c0.66-0.82,1.9-0.17,2.27,0.82c3.43,0.21,6.67,1.66,10.15,1.43c1.08,0.39,2.2,0.85,3.34,1.38  l3.41,0.22c1.53-0.33,2.6-0.03,3.21,0.89c3.49-0.18,6.67,1.78,10.17,1.37c1.24,0.4,2.35,0.87,3.33,1.4l3.43,0.2  c0.95-0.27,1.94-0.19,2.3,0.84c2.1,0.14,4.19,0.41,6.3,0.44l2.37,1.45c0.84-0.01,1.69,0.05,2.53,0.09c0.9-0.25,1.88-0.07,2.27,0.83  c3.76,0.16,7.3,1.75,11.09,1.46l2.36,1.4c0.84,0,1.68,0.1,2.52,0.17c0.91-0.27,1.9-0.03,2.26,0.87c2.42,0.08,4.81,0.53,7.24,0.46  l2.41,1.34l3.42,0.22c0.91-0.24,1.88-0.12,2.29,0.81c4.09-0.06,7.92,1.87,12.02,1.49l2.41,1.35l3.45,0.2  c0.94-0.29,1.91-0.08,2.25,0.9c2.1,0.17,4.2,0.45,6.31,0.42c0.9,0.4,1.7,0.88,2.38,1.44l3.49,0.09c1.46-0.29,2.53,0,3.2,0.86  c4.39,0.2,8.6,1.94,13,1.48l2.41,1.34c1.13-0.15,2.33,0.23,3.45,0.21c0.9-0.23,1.87-0.14,2.31,0.76c4.36-0.16,8.75,1.68,13.05,2.1  c0.91-0.14,1.91-0.18,2.3,0.79l13.95,1.5c1.2,0.44,2.32,0.9,3.35,1.35c1.42-0.1,2.96,0.26,4.37,0.24c0.95-0.24,1.93-0.22,2.31,0.82  l14.92,1.43c1.62,0.42,3.04,0.91,4.27,1.46l34.56,3.16c-17.52,47.68-31.92,97.39-49.01,145.73c0.42,2.67-1.04,2.65-2.02,0.25  c-0.07,0.75-0.4,1.88-0.87,1.84c-33.47-3.04-67.98-7.37-101.12-11.7l-1-1.87l-0.4-36.05c-3.85,0.01-7.54-0.36-11.07-1.09  c-1.01-4.22-1.52-8.65-1.52-13.3c-5.79,0-11.52-0.41-17.2-1.24c-0.9-2.66-1.25-1.17-1.06,4.45c0.11,7.41-8.91,6.22-14.35,4.64  c-0.83-3.77-1.59-3.82-2.27-0.17c-5.1,0.94-37.99,2.07-40.14,0.41l-1.13-1.91l-0.77-74.77c1.59-1.6,1.78-3.19,0.57-4.79l-0.56-50.83  l1.83-1.18C389.03,716.08,390.36,715.74,391.52,716.09z" />
<path class="cls-13" d="M777.67,764.2l-0.02,167.06c-5.47,0.28-10.98,0.55-16.43-0.09c-53.93-7.43-107.87-15.01-161.73-23  c-5.43-0.81-10.71-2.41-15.94-4.02l51.01-146.77c4.78-0.53,9.6-0.95,14.41-0.67c40.47,3.09,80.99,5.15,121.55,6.18L777.67,764.2z" />
<path class="cls-14" d="M952.24,1002.21l36.56,114.94l-32.85,6.21c1.58,2.84,5.58,1.59,7.91,1.86c2.39-0.52,2.46,0.06,1.08,1.99  c-3.46,10.26-9.14,20.15-15.55,28.86c-0.22,0.46-0.47,0.9-0.78,1.28c-0.59,0.71-11.21-0.14-13.05-0.54l-1.6-1.76  c-15.42,0.44-29.58-1.17-45.15-5.44c-33.35-9.14-66.02-18.3-100.61-23.67l0.99-123.99l0.67-1.92c53.73,0.09,107.47,0.17,161.22,0.26  L952.24,1002.21z" />
<path class="cls-13" d="M889.89,763.07l43.21,170.08l-0.67,1.92c-47.43-0.03-94.86-0.05-142.31-0.08l-1.17-1.92L788.4,765.1l0.63-1.93  c0,0,33.22-0.66,99.65-1.99L889.89,763.07z" />
<path class="cls-8" d="M689.8,600.73c1.89-0.41,3.2,0.8,3.93,3.62l30.42,3.13c14.34-1.05,28.72-1.84,43.17-2.37  c5.5,0.01,8.96,1.82,10.36,5.43l-0.02,153.66c-47.7-0.02-95.65-2.5-143.11-6.81L689.8,600.73z" />
<path class="cls-10" d="M777.75,934.02c1.16,23.51,4.36,39.81-9.55,58.92l-1.9,1.45c-18.59,2.33-37.22,4.86-55.89,7.59l-0.67,1.92  c-53.16,0.03-106.33,0.06-159.5,0.09l-1.19-1.92l-1.51-1.49c8.14-22.59,16.21-45.21,24.21-67.87l2.2-0.45l1.2-1.76  c67.35,0.05,134.67,0.8,201.94,2.23L777.75,934.02z" />
<path class="cls-14" d="M655.7,1122.51c0.07,2.91-5.75,3.63-6.76,0.94c-1.62,2.11-4.04,2.95-7.27,2.51  c-12.82-0.61-25.63-0.99-38.43-1.16l-17.18,37.59l-2.22,0.24l-1.19,1.91c-27.79-0.33-55.59-0.66-83.38-0.98l-1.14-1.93l25.38-85.28  l221.62,18.86l22.02,27.27C738.2,1119.63,677.2,1107.37,655.7,1122.51z" />
<path class="cls-15" d="M933.95,1155.05c5.18-0.8,10.22,1.11,15.44,1.02c0.34,0.71,1.06,1.58,1.94,1.61c1.83,0.08,5.25-0.53,5.07,2  c1.11,2.77-1.63,3.37-2.95,0.89c-1.35-0.36-2.44-0.1-3.25,0.8c-5.2,1.85-10.46,3.52-15.9,4.5c-47.54,8.61-98.08,13.32-146.31,16.95  c-67.91,5.11-136.1,6.41-204.15,3.85c-44.03-1.65-89.69-4.15-133.03-10.11c-3.5-0.48-4.67-6.83-2.16-8.38l0.18-1.27  c13.76,0.44,27.73,1.44,41.9,3.01l0.96,2.01c0.47,0.65,1.15,1.15,1.89,1.04c0.66-0.1,1.24-0.85,1.71-0.9l5.07-0.88  c24.86,0.69,49.71,1.52,74.55,2.47l4.98,1.28l3.36-1.89c15.4,1.44,30.69,1.33,45.88-0.32l17.15-47.61c0.53-0.76,1.42-1.33,2.65-1.69  l6.76-0.94C721.3,1113.37,885.2,1165.81,933.95,1155.05z" />
<path class="cls-8" d="M857.36,631.65c6.19,25.26,19.25,69.44,22.98,93.14c-1.56,0.94-1.21,2.22,1.06,3.85  c4,11.15,5.6,23.06,8.49,34.43L788.4,765.1l0.06-125.91c0.68-6.22,8.89-7.26,14.27-7.91c16.02-0.06,32.02-0.09,48.01-0.09  C853.67,630.12,855.88,630.27,857.36,631.65z" />
<path class="cls-14" d="M710.41,1001.97c17.1-1.93,34.34-2.43,51.71-1.51l1.14,1.93l-13.36,19.1c-5.22,7.45-10.97,11.02-17.89,16.03  c-6.92,5.01-8.76,9.42-23.36,11.01c-44.67,4.86-132.14,14.48-177.04,19.56c-2.61,0.83-6.66,1.09-6.88-2.08l22.14-63.5l2.19-0.45  L710.41,1001.97z" />
<path class="cls-9" d="M777.73,480.1l-0.05,130.44c-7.23-4.97-17.5-3.85-27.07-2.98c-35.6,3.26-18.85,1.84-50.32-0.72l-7.02-0.57  c-1.39-0.11-2.17-3.64-3.47-5.54l40.71-118.92c0.58-0.59,1.18-1.14,1.86-1.58c0.66-0.43,1.3-0.83,1.96-0.91  c13.01-1.64,26.22-1.51,39.31-1.2c0.67,0.02,1.35,0.33,2.05,0.67C776.41,479.14,777.08,479.6,777.73,480.1z" />
<path class="cls-9" d="M819.96,479l37.41,152.65c-16.21,6.1-58.79-5.39-68.91,7.54l-0.03-158.2C798.97,481.1,809.51,480.38,819.96,479  z" />
<path class="cls-10" d="M933.1,933.15l11.42,42.07c-13.75,2.57-27.72,3.9-41.9,3.99c-35.96,2.54-71.79,6.2-107.51,10.97l-6.12-0.31  c-2.38-18.83,0.03-38.08-0.04-56.8L933.1,933.15z" />
<path class="cls-5" d="M944.52,975.22l7.72,26.99l-163.07-0.26c0.03-3.6,0.26-8.6-0.18-12.08  C840.32,981.48,892.52,977.06,944.52,975.22z" />
<path class="cls-5" d="M777.65,931.26c0,0.91,0.06,1.85,0.11,2.76l-203.8-1.76c-0.24-5.48,1.18-11.01,4.28-16.6  c0.76-4.56,2.26-8.37,4.5-11.43c0.27,0.01,0.55-0.11,0.81-0.08C648.37,912.39,712.89,923.57,777.65,931.26z" />
<path class="cls-12" d="M778.56,346.73l-0.84,133.37c-15.78-0.2-31.64-0.82-47.22,1.72l46.28-135.04  C776.88,345.09,778.28,344.86,778.56,346.73z" />
<path class="cls-6" d="M583.84,1162.63c2.84,2.59-0.45,11.37-3.95,12.33c-28.27,0.03-56.43-0.51-84.6-2.87  c-0.51-3.81,1.81-7.02,2.84-10.46L583.84,1162.63z" />
<path class="cls-2" d="M580.93,903.28c0.64-0.08,1.25,0.6,1.8,0.95c-2.93,9.22-5.55,18.96-8.78,28.03l-24.9,69.81l-22.66,64.54  c0.26,1.68,3.92,1.63,5.21,1.49c-3.02,2.27-6.64,0.19-10.08,0.93c9.5-21.52,15.16-44.92,22.87-66.7  c8.16-23.05,18.18-46.28,25.08-70.14l-1.4-1.92c4.97-8.15,8.03-16.49,9.16-25.05l1.68-1.68L580.93,903.28z" />
<path class="cls-14" d="M778.14,1098.77c2,8.5,2.1,17.32,0.6,26.73c-12.54-7.34-20.34-18.43-29.18-29.13L778.14,1098.77z" />
<path class="cls-6" d="M493.51,1162.67c-0.83,2.7-0.2,6.57-1.83,9.28l-43.04-3.75c-2.96-0.37-4.26-4.24-2.19-6.36  C462.14,1162.01,477.98,1160.76,493.51,1162.67z" />
<path class="cls-5" d="M768.2,992.94c0.24,4.22-2.82,6.41-4.94,9.45l-52.85-0.42C728.62,995.97,748.79,994.61,768.2,992.94z" />
<path class="cls-2" d="M508.94,1069.34c1.18,1.14-5.6,1.56-4.07,0.35c0.43-0.35,0.84-1.12,1.58-1.26  C507.39,1068.24,508.25,1068.99,508.94,1069.34z" />
<path class="cls-13" d="M1005.9,1119.44c1.15-0.51,2.63-0.5,3.29,0.6l6.49,0.28c0.64,0.28,0.63,0.6,0,0.96  c-15.69,2.81-31.92,3.91-48.01,3.98c-1.87,0.16-1.86-0.61,0.01-1.17c11.29-2.24,22.85-2.88,34.3-4.08c0.46-0.99,1.5-1.29,2.36-0.57  C1004.75,1119.22,1005.45,1119.58,1005.9,1119.44z" />
<path class="cls-12" d="M880.34,724.79c0.16,1.01,0.71,2.88,1.06,3.85c-6.89-0.52-13.42,1.68-21.02,0.15  C867.37,726.08,873.85,725.6,880.34,724.79z" />
<path class="cls-4" d="M777.56,1549.63c0.75,0.2,1.87,0.54,1.91,1.13c0.48,6.2,0.87,25.49-0.16,30.92l-1.93,1.39l-28.71,1.6  l-168.87,0.37c-3.29-11.36-10.06-22.56-12.36-34.48l18.58-0.85L777.56,1549.63z" />
<path class="cls-1" d="M789.96,1549.63c0.75,0.19,1.83,0.49,1.93,1.1c1.06,6.42,0.82,24.91,0.28,31.84l-1.91,1.42  c0.75,0.21,1.85,0.52,1.91,1.11c0.41,4.17,0.29,12.8-0.11,17.03c0.6,3.1-0.05,5.06-1.96,5.87l-12.34,0.58l-0.38-25.5l0.18-33.43  L789.96,1549.63z" />
<path class="cls-13" d="M162.42,659.37l20.7,1.4c0.91,0.63,1.99,0.89,3.25,0.79c1.43,0.52,4.22-0.22,5.48,0.74  c2.42-0.38,4.44-0.08,6.07,0.92c4.39,0,8.79,0.25,13.1,1.04c0.93-0.13,2-0.07,3.19,0.19c2.07,0.35,4.26,0.26,6.34,0.18  c2.49,0.39,4.89,0.85,7.18,1.37c8.51,0.21,16.92,1.84,25.46,1.52c1.97,0.37,3.72,0.84,5.26,1.42l6.33,0.13  c1.85-0.3,3.25-0.01,4.2,0.87c5.67-0.06,11.29,0.35,16.9,1.17c0.51-0.19,1.27-0.17,2.26,0.06c3.31,0.11,6.83,0.6,10.15,0.21  c2.22,0.35,4.3,0.79,6.25,1.33l12.05,0.3l2.3,0.04c2.33-0.23,5.45,0.65,7.53,0.89c1.84,0.24,1.74,0.95-0.14,1.33l-51.51,1.73  c-0.66,0.91-1.76,1.15-3.28,0.71l-12.09,0.31c-2.99,0.48-6.02,0.93-9.11,1.35c-3.25-0.12-6.98-0.16-10.17,0.18  c-0.54,0.14-1.3,0.28-2.24,0.08c-3.13,1.89-8.04,1.33-12.12,1.15c-0.76,0.93-2.16,1.23-4.18,0.89c-1.54,0.37-4.03-0.02-5.46,0.75  c-1.54-0.2-2.88,0.07-4.21,0.8c-2.06-0.61-4.35,0.23-6.42,0.28c-0.49,0.85-0.76,1.55-0.14,2.28c1.55,0.1,3.16,0.67,4.72,0.56  c1.51-0.34,2.59-0.05,3.23,0.87l7.31,0.33c1.04,0.5,2.14,0.99,3.32,1.46l3.45,0.17c1.79-0.23,3.18,0.05,4.17,0.86  c4.41-0.08,8.59,1.77,13,1.47c1.26,0.39,2.37,0.85,3.34,1.38c6.92,0.53,13.7,2.57,20.65,2.48c1.31,0.36,2.41,0.85,3.3,1.48  l14.96,1.39c1.57,0.43,3,0.89,4.3,1.37l3.43,0.21c0.95-0.26,1.93-0.2,2.3,0.84l13.97,1.42c1.31,0.29,2.73,0.78,4.26,1.47  c4.4,0.09,8.59,1.82,13.03,1.4c1.14,0.37,2.25,0.82,3.35,1.36c1.42-0.1,2.96,0.24,4.38,0.24c0.95-0.27,1.94-0.2,2.29,0.85  l13.97,1.42c1.29,0.39,2.41,0.85,3.35,1.37c3.76,0.09,7.31,1.69,11.1,1.45c1.08,0.37,2.19,0.84,3.32,1.41l3.45,0.19  c0.92-0.22,1.88-0.15,2.3,0.79c2.87,0.13,5.75,0.55,8.62,0.37c0.56-0.01,1.05,0.04,1.28,0.31c1.79,2.1,0.22,48.08-0.34,54.89  l0.88,3.08c0.4,25.58,0.1,51.06-0.88,76.45l-2.09,1.02l-50.58,0.63l-0.47,42.73c-0.28,0.78-0.85,2.31-1.11,2.39  c-7.13,2.25-35.66,2.14-43.63,0.63c-7.67-1.45-3.58-7.25,2.46-6.84c-34.08-26.74-75.09-27.75-107.68,2.03l-4.37,1.15  c-4.34,3.36-11.67,1.42-17.25,1.87l-0.07-235.02C160.46,657.11,161.33,657.05,162.42,659.37z" />
<path class="cls-5" d="M387.85,715.98l0.66,52.88c7.37,1,13.86-0.94,21.07,1.24c-7.4,4.02-14.57,0.11-21.78,2.37l0.9,75.72l38.15-0.2  c2.03-12.58-2.18-24.83,2.29-37.33c4.59,12.74-0.22,25.34,2.28,37.32c3.54,0.5,7.15,0.46,10.76-0.05c1.9-7.41-1.26-15.24,1.97-23.3  c4.64,4.14,0.49,9.54,2.61,14.17l18.19,0.73l0.54,13.95c4.18,0.46,7.95-0.5,11.91,0.52l0.42,38.43l101.06,11.1  c2.08,10.44-6.85,19.67-9.44,28.65l-384.28,0.42l-0.34-33.48c-0.02-1.91,0.33-4.93-1.61-5.63c-1.3-0.47-4.09-0.92-5.59-0.65  c40.18-34.35,73.3-33.07,115.84-3.17c-3.72,3.89-7.31,0.01-9.16,4.73c15.51,1.05,30.29,0.91,45.72,0.2l0.51-45.98l53.34-0.42  l0.31-76.44c-6.47-0.59-12.31,1.35-18.33-2.02c6.29-2.11,11.68,0.17,18.02-1.21l0.29-54.13  C385.7,714.28,387.29,714.25,387.85,715.98z" />
<path class="cls-9" d="M259.4,678.01c-1.23,3.25-6.09,1.46-9.11,1.35C251.69,676.15,256.36,678.09,259.4,678.01z" />
<path class="cls-11" d="M326.27,675.26l0.14-1.33c1.14-1.03,5.7-0.72,5.29,0.63C331.24,676.06,328.54,675.18,326.27,675.26z" />
<path class="cls-11" d="M227.73,666c-2.43-0.06-6.48,1.66-7.18-1.37C222.96,664.52,227.14,662.92,227.73,666z" />
<path class="cls-9" d="M205.49,683.49l-0.14,2.28c-0.91-0.06-5.34-0.24-5.35-1.05C199.99,682.27,203.45,683.55,205.49,683.49z" />
<path class="cls-9" d="M162.42,659.37l-2.09,0.31c0-2.02-0.1-4.05,0.1-6.06C163.29,653.57,162.1,657.34,162.42,659.37z" />
<path class="cls-11" d="M304.54,672.7c-2.1-0.05-5.82,1.55-6.25-1.33C300.39,671.12,304.22,669.85,304.54,672.7z" />
<path class="cls-9" d="M197.92,663.23c-2.36,0-4.09,0.58-6.07-0.92c0.57-1.19,2.25-0.81,3.52-0.95  C196.41,661.24,198.45,661.5,197.92,663.23z" />
<path class="cls-11" d="M258.45,668.93c-1.79-0.04-5.15,1.11-5.26-1.42c0.86-0.03,2.33-0.48,3.45-0.37  C257.41,667.22,259.05,667.43,258.45,668.93z" />
<path class="cls-9" d="M225.76,680.77c0.59,1.27-0.58,1.72-1.61,1.94c-0.89,0.19-1.87-1.04-2.56-1.05  C222.3,680.19,224.39,680.71,225.76,680.77z" />
<path class="cls-9" d="M595.37,754.4l-2.46,0.19c-0.71,0.05-2.28-0.3-1.8-1.64c0.85,0.08,2.14-0.55,3.37-0.22  C595.02,752.87,595.95,753.39,595.37,754.4z" />
<path class="cls-9" d="M216.12,682.41c-1.53,0.83-2.27,1.38-4.21,0.8c-0.56-1.17,0.92-1.69,1.72-1.66  C214.5,681.59,216.02,681.33,216.12,682.41z" />
<path class="cls-11" d="M268.98,669.92c-1.37,0.01-3.47,0.67-4.2-0.87c0.82,0.02,1.57-1.27,2.56-1.04  C268.33,668.25,269.61,668.65,268.98,669.92z" />
<path class="cls-9" d="M315.04,703.54c-0.6-0.01-1.72,0.26-2.45,0.16c-0.73-0.09-2.3-0.31-1.81-1.63c0.78,0.08,2.32-0.52,3.34-0.24  C314.68,701.99,315.62,702.54,315.04,703.54z" />
<path class="cls-9" d="M291.09,699.6c-0.68-0.04-1.61,0.32-2.52,0.26c-0.73-0.05-2.26-0.3-1.78-1.63c0.78,0.07,2.18-0.55,3.34-0.21  C290.66,698.17,291.57,698.59,291.09,699.6z" />
<path class="cls-9" d="M231.55,690.03c-1.36,0.02-3.51,0.79-4.17-0.86c0.84,0.04,1.51-1.15,2.51-0.97  C230.86,688.38,232.06,688.8,231.55,690.03z" />
<path class="cls-1" d="M446.45,1161.83c0.84,1.98,1.59,4.32,2.19,6.36c0.41,1.4-0.67,3.15,0.37,4.79c0.64,1,1.89,1.89,4.03,2.12  c166.39,18.31,332.56,13.51,497.15-13.74c0.5-1.19,2.23-1.26,3.25-0.8c0.57-0.53,2.35-0.19,2.95-0.89l61.56-11.41l-12.15,29.42  c-0.66,0.86-0.67,1.67-0.02,2.41c0.07,1.77,1.09,3.46,0.55,5.18c0.16,1.94-1.23,2.05-2.02,0.29c-1.66,1.95-2.15,1.61-1.98-0.89  l-0.38-1.97c-10.9-0.16-21.8,0.85-32.69,3.02c-44.93,8.23-90.56,15.15-136.89,20.77c-9.84,1.76-19.48,1.89-28.93,0.41  c-2.66,0.65-5.33,1.27-8.02,1.73c-2.69,0.47-5.37,0.91-8.07,1.06c-83.78,4.57-170.42,3.28-254-2.53  c-43.36-3.02-87.62-8.82-130.24-17.36c-1.94-0.39-3.84-1.07-5.73-1.77c-1.91-0.7-3.76-1.54-5.6-2.42  c-1.9-7.46-5.81-14.45-7.15-22.05c1.77-0.42,3.65-0.82,5.46-0.41c17.84,4.04,37.57,7.97,54.62,8.39c-1.48-1.78-2.21-3.54-2.2-5.29  c-2.39-0.81-3.12-2.8-0.98-4.46c-2.19-2.73-3.28-4.09-3.28-4.09c-3.84-11.67-8.06-23.34-13.57-34.34c-0.95-1.9-14.99-1.78-17.56-1.4  c4.87,11.77,9.29,23.76,13.11,35.92c0.32,1.01,0.36,2.12,0.39,3.26c0.03,1.15-0.08,2.31-0.23,3.46c2.02,0.08,2.97,2.58,1.49,3.99  c-3.57,3.4-8.98-4.61-6.93-7.76l-2.79-3.67c-2.97-12.42-7.71-24.33-13.56-35.67c-0.61-1.19-6.4-1.04-7.08,0.18l10.27,38.56  l-1.56,1.59c1.73,0.44,2.1,2.12,0.77,3.16c-3.36,2.64-8.28-2.04-5.38-5.2l-6.14-26.75l-1.41-2.35c-0.09-3.41-0.98-7.22-2.14-11.07  c-1.08-3.57-6.96,0.17-9.96-4.75c17.66,0.94,35.07,0.11,51.89,3.4L446.45,1161.83z" />
<path class="cls-15" d="M803.46,1206.9c-0.5,0.9-1.04,1.78-1.68,2.57c-0.63,0.77-1.26,1.5-2.04,2  c-26.66,17.06-66.76,30.38-97.86,36.39c-0.91,0.18-1.88,0.09-2.87-0.03c-1.01-0.12-2.01-0.38-3-0.67l-2.09,1.43  c-2.94-0.22-5.77,0.13-8.5,1.06c-0.79,0.57-1.6,1.11-2.47,1.52c-0.86,0.41-1.69,0.79-2.53,0.85c-6.89,0.47-13.74,0.64-20.64,0.74  c-74.65,1.12-150.61-3.98-225.22-16.19c-1.88-0.31-3.72-0.93-5.57-1.56c-1.86-0.63-3.67-1.4-5.47-2.21  c-4.01-3.67-9.24-6.75-12.57-11.59c-7.72-11.24-15.77-22.36-19.14-35.59c52.61,10.62,105.49,17.81,159.74,20.78  C635.5,1210.99,719.89,1211.8,803.46,1206.9z" />
<path class="cls-15" d="M395.65,1159.77c0.31,1.33,1.53,2.81,2.27,4.2c0.8,1.5,2.31-0.66,2.34-2.16l1.22-1.78  c4.18,1.25,8.07,1.2,11.67-0.15l1.83,0.95l4.61,7.57c1.25-0.85,1.17-2.74,0.83-3.8c0.92-2.49,2.25-2.21,3.99,0.84  c1.02-2.17,15.92-1.83,16.63-1.34c0.77,0.53,1.25,1.27,1.5,2.16c2.61,1.42,4.94,4.54,4.19,8.03c-21.56-2.48-42.23-4.86-62.06-10.72  C385.73,1158.11,392.51,1164.01,395.65,1159.77z" />
<path class="cls-12" d="M432.14,1022.3c-3.97-0.71-9.81,2.15-11.89-1.61C424.14,1020.71,430.35,1018.92,432.14,1022.3z" />
<path class="cls-6" d="M755.44,1466.89c19.12,17.18,24.82,25.52,23.18,51.74c-72.78,0.02-145.43,0.99-218.12,3.66l-20.17-62.9  l5.9-1.35c33.44-0.89,66.89-0.11,100.35,2.34c35.34,3.4,70.18,5.07,104.52,5.01L755.44,1466.89z" />
<path class="cls-4" d="M920.82,1548.97c-3.63,12.45-7.05,25.07-11.58,37.05l-1.2,1.66c-38.84-0.37-77.72-0.95-116.64-1.75l-1.14-1.94  l-0.3-34.36L920.82,1548.97z" />
<path class="cls-15" d="M677.51,1280.94c1.56,0.41,2.99,0.9,4.29,1.45l3.48,0.1c1.83-0.3,3.22,0,4.15,0.92  c0.82-0.03,1.73,0.19,2.53,0.09c0.93-0.36,1.93-0.12,2.31,0.83c2.42,0.09,4.82,0.53,7.25,0.44c1.28,0.4,2.38,0.89,3.3,1.47  c0.85-0.06,1.71,0.08,2.55,0.07c1.12-0.21,2.75-0.18,3.18,0.92l5.42,0.29l2.35,1.47c0.84-0.01,1.68,0.09,2.51,0.16  c1.08-0.16,2.49-0.03,3.18,0.89c3.15-0.03,6.02,1.64,9.19,1.43c1.14,0.34,2.23,0.83,3.29,1.5l2.54,0.08c0.93-0.3,1.95-0.08,2.24,0.9  c14.95,3.21,30.17,6.15,45.45,13.11c-76.97-3.27-153.21-3.17-229.75,0.62c-2.69,0.73-5.7,1.01-9.03,0.83l-11.09,0.24  c-2.33,0.47-4.73,0.92-7.19,1.34l-28.39,1.4c-2.23,0.61-4.61,1.11-7.13,1.48c-34.85,1.32-69.08,8.44-103.47,13.86  c5.27-20.64,20.62-35.6,35.44-50.15C445.23,1267.36,702.7,1277.5,677.51,1280.94z" />
<path class="cls-1" d="M685.41,1249.66c3.47-1.36,7.33-1.6,10.64,0.13l10.43-1.18c80.02,0.43,159.79-4,239.64-8.46  c6.95-0.39,13.92-0.1,20.87,0.32c-3.43,4.86-6.16,9.69-11.63,14.46c4.07,2.46,4.95,6.88,7.64,9.06l-285.61-0.24  c-76.75-0.07-153.07-1.55-228.93-8.07l-24.94-22.88c64.27,10.86,128.85,17.8,194.63,17.55  C641.25,1250.26,663.09,1251.9,685.41,1249.66z" />
<path class="cls-2" d="M317.77,1270.02c-2.62,1.44-4.51,2.25-8.15,3.13c3.9,13.87,14.79,20.17,29.97,18.85  c-17.57,7.43-37.29-1.87-47.71-18c-17.14,10.05-36.78,14.46-56.52,11.84c9.45-4.13,18.56-6.4,26.14-12.42  c-4.26-3.24-9.64-2.09-11.92-6.14c3.13-3.58,7.93-5.32,14.42-5.23l44.93,0.34C312.61,1263.12,324.2,1266.82,317.77,1270.02z" />
<path class="cls-1" d="M317.77,1270.02c0.21-1.23,0.36-2.91-0.72-3.52l-3.85-2.17l-51.33-0.39c-4.58-0.03-9.34,0.75-12.29,3.33  c-0.01-5.94,7.31-5.26,14.18-6.23c-3.06-7.21-11.82-5.7-19.72-9.26c38.25-11.03,40.16,14.65,54.69-0.04  c10.9-11.02,27.43-16.82,43.09-12.25c-9.87,9.55-22.98-3.13-33.35,20.03c4.85,4.12,10.54,5.37,16.25,7.12  C323.47,1270.77,319.73,1268.95,317.77,1270.02z" />
<path class="cls-1" d="M446.36,1338.34c-5.05,17.39-10.12,35.11-17.69,52.13c-15.59,3.08-30.34,0.71-46.64,2.08l11.69-48.41  c-1.28-2.87,2.76-4.55,3.69-1.22c0.3,0.98,0.76,1.81,1.37,2.49l-10.19,41.84c3.89,0.51,7.75,0.8,11.59,0.88  c4.37-12.07,7.99-24.37,10.87-36.9l2.75-2.59c0.71-1.74,1.44-1.53,1.37,0.37c2.57,4.77,0.91,13.65-3.27,17.04l-0.76,1.01  c1.93,1.84,2.05,4.63,0.34,8.37l-3.72,11.91c5.98,0.64,11.97,0.41,17.95-0.67c5.01-13.95,9.58-28.04,13.71-42.26l3.32-5.25  C443.14,1336.3,444.72,1335.95,446.36,1338.34z" />
<path class="cls-15" d="M496.14,1330.87c0.27,1.05-0.2,2.4,0.2,3.41c-16.65,0.88-33.43,2.05-49.98,4.06  c-1.13,0.14-2.61,0.57-3.61,0.79l-1.25,2.03l-23.27,1.85l-1.55-1.8c-0.37,2.55-1.28,2.41-1.99-0.04c0.41,2.87-5.06,2.8-5.56,0.07  c-1.04,0.97-2.43,1.21-4.16,0.73c-0.42,2.68-1.52,2.66-2.45,0.13c-1.29,1.23-3.02,2.45-4.11,0.83c-0.35,0.9-0.68,0.9-0.99-0.01  c-1.27-0.71-2.49,0.76-3.69,1.22c-2.72-0.59-5.49-0.19-8.94-0.29c-0.47-1.73,1.17-3.49,2.84-3.7  C423.52,1335.52,460.01,1330.28,496.14,1330.87z" />
<path class="cls-11" d="M583.58,1334.47l2.88,2.75c5.73,13.42,11.75,26.68,18.07,39.79c13.28,0.05,26.59,0.24,39.93,0.57l3.73,1.7  c1.25-3.36,11.17-1.16,14.14,0.02l1.03,2.14c18.08,3.08,36.57,1.6,56.39,1.04c0.58,2.84-2.37,8.26-5.97,9.31l-184.96,11.13  c3.82,3.28,8.35,3.48,13.21,4.17l183.26,26.3c10.73,11.36,21.17,21.75,30.15,33.5c-18.18,2.07-36.45,0.22-55.71-1.11  c-53.47-3.7-106.25-7.2-159.41-6.39c-3.46-3.45-4.46-9.05-6.11-14.53l-33.23-110.38c1.33-0.57,2.67-1.11,4.06-1.5  c1.37-0.39,2.73-0.77,4.1-0.83c22.04-1.02,44.22-0.52,66.26,0.19c1.36,0.04,2.72,0.39,4.1,0.76  C580.88,1333.44,582.24,1333.94,583.58,1334.47z" />
<path class="cls-15" d="M854.47,1335.51c1.13,0.08,2.36,1.3,3.61,0.92c0.9-0.34,1.88-0.44,2.29,0.59c11.4,1.45,23.14,0.37,34.2,3.11  c-1.43,2.56-5.37,1.49-7.49,2.83c-4.75-2.07-9.86-0.18-15.28,1.48c-33.3,10.21-65.34,22.56-100.23,28.06  c-36.08,5.69-72.23,7.68-108.21,8.93c-4.52-0.77-10.39-2.52-15.17-2.16l-2.31-0.62l-16.04-40.52c-14.73-0.94-29.59-1.51-44.59-1.7  l-1.68-1.97c-27.42-0.77-55.18-1.63-82.59-0.01c-1.35-0.68-2.1-2.16-1.97-3.71C617.17,1321.73,736.17,1327.58,854.47,1335.51z" />
<path class="cls-6" d="M966.63,1382.26c3.6,2.63,4.82,7.05,7.58,10.69l-0.74-7.71c0.34-3.07,9.27-3.78,10.43-0.98  c-4.45,13.81-9,28.06-15.98,40.53c-54-9.22-115.22-9.64-168.04-19.24c-2.72-0.49-5.67-2.83-6.1-4.6  C789.68,1383.99,952.75,1381.95,966.63,1382.26z" />
<path class="cls-11" d="M721.21,1391.08c0.6-4.34,4.64-7.32,8.97-7.91l46.85-6.45c0.82,3.8,0.71,7.71-0.04,12.16L721.21,1391.08z" />
<path class="cls-11" d="M983.9,1384.26l-10.43,0.98l-23.11-40.09c16.3,0,30.86,2.92,46.72,5.01L983.9,1384.26z" />
<path class="cls-5" d="M909.24,1586.02c-3.25,8.6-6.05,17.61-7.84,26.55c-36.79-3.97-73.65-6.35-111.3-4.59l0.16-24L909.24,1586.02z" />
<path class="cls-11" d="M1055.84,1216.3c0.05,7.63,0.19,15.52,1.06,23.02l-11.44,2.36c-10.15-3.5-14.65-14.33-19.6-22.39  C1024.29,1214.53,1052.79,1216.53,1055.84,1216.3z" />
<path class="cls-3" d="M1006.34,1185.27c0.58,0.42,0.74,1.27,0.94,1.86l-1.63,1.15c-2.81,1.43-4.25-1.23-1.34-2.72  C1004.94,1185.72,1005.71,1185.23,1006.34,1185.27z" />
<polygon class="cls-11" points="1135.49,1216.45 1135.84,1240.24 1066.59,1239.06 1067.5,1216.41 " />
<path class="cls-3" d="M556.98,1307.69c-1.11,3.85-6.27,0.77-9.03,0.83C550.42,1306.46,553.96,1307.84,556.98,1307.69z" />
<path class="cls-3" d="M501.27,1311.49c-0.3,3.38-4.7,1.39-7.13,1.48C494.83,1310.13,498.89,1311.61,501.27,1311.49z" />
<path class="cls-3" d="M536.86,1308.75c-0.64,3.02-4.78,1.22-7.19,1.34C530.34,1307.29,534.5,1308.8,536.86,1308.75z" />
<path class="cls-5" d="M681.8,1282.39c-0.64-0.02-1.69,0.23-2.49,0.18c-0.72-0.04-2.27-0.31-1.8-1.63l2.54-0.35  C680.81,1280.49,682.45,1280.97,681.8,1282.39z" />
<path class="cls-5" d="M689.43,1283.41c-1.36,0.05-3.45,0.54-4.15-0.92c0.86-0.31,1.58-1.1,2.54-1.01  C688.91,1281.57,689.98,1282.19,689.43,1283.41z" />
<path class="cls-2" d="M1002.35,1184.67l0.05,2.85c-5.58,8.95-10.72,18.19-15.42,27.72l-2.78,0.84l-17.2,24.38  c-89.74,7.22-180.62,10.31-270.94,9.32c-4.2-0.91-4.16-1.32-0.05-2.62c37.26-7.83,75.56-19.86,107.46-40.26  c51.19-3,101.74-12.5,152.58-20.84C957.83,1185.77,1016.13,1174.74,1002.35,1184.67z" />
<path class="cls-14" d="M1004.32,1185.56c-0.46,1.25,0.98,2,1.34,2.72c3.56,9.99,7.22,20.27,13.05,28.99l-34.52-1.19  c7.02-9.95,9.97-22.71,18.16-31.42C1003.09,1184.7,1003.65,1185.39,1004.32,1185.56z" />
<path class="cls-1" d="M648.93,1123.45l-18.48,51.3c-17.06,2.84-33.94,0.19-50.56,0.21c1.32-4.02,3.3-8.24,3.95-12.33l18.13-39.66  C617.86,1121.72,633.96,1125.54,648.93,1123.45z" />
<path class="cls-1" d="M761.07,1172.29l-90.02,1.7c-4.94-7.49-5.02-16.84-0.85-23.94l86.21,0.88c4.77,0.05,7.09,5.63,8.54,8.67  C766.43,1162.72,766.61,1170.63,761.07,1172.29z" />
<path class="cls-13" d="M441.55,1161.79l-1.22,1.76c-5.1-0.79-10.14-0.73-15.12,0.19l-0.81,1.69l-3.99-0.84  c-4.94-15.35-9.97-30.33-16.33-44.96c8.02,0.97,16.33-1.33,22.07,2.55C432.63,1135.07,437.56,1148.58,441.55,1161.79z" />
<path class="cls-12" d="M414.97,1160.82c-3.88,3.71-9.66,1.52-14.71,0.99l-11.2-42.03c2.35-0.71,9.71-2.11,11.17,0.67  C406.97,1133.28,412.13,1147.09,414.97,1160.82z" />
<path class="cls-9" d="M441.55,1161.79c0.44,1.46,1.29,2.85,0.98,4.46c-5.98-1.14-12.29,0.4-18.13-0.82  C417.94,1159.27,439.48,1161.37,441.55,1161.79z" />
<path class="cls-3" d="M696,1247.16c-0.06,0.45-2.2,1.14-1.9,1.34l1.95,1.28c-3.53-0.04-7.11-0.49-10.64-0.13  C687.89,1247.12,692.54,1247.89,696,1247.16z" />
<path class="cls-11" d="M442.75,1339.13c-3.95,16.3-9.65,32.36-15.75,48.72c-7.2,2.11-14.61,2.29-21.62,1  c2.04-8.35,5.26-14.68,5.76-21.82l0.76-1.01c1.62-5.59,2.61-11.3,3.27-17.04c-0.57-2.08,0.41-5.91,1.51-7.79L442.75,1339.13z" />
<path class="cls-11" d="M414.68,1341.17c2.22,1.07,0.72,6.09-0.88,7.47c-4.07,13.43-6.13,27.39-12.47,40.81  c-4.85,0.88-9.52,0.11-15.19-0.26l11.27-46.27c0.22,0.12,0.73,0.04,0.99,0.01c0.93,1.09,2.3,0.81,4.11-0.83l2.45-0.13  c1.52,0.24,2.91,0,4.16-0.73L414.68,1341.17z" />
<path class="cls-4" d="M416.68,1341.21c0.76,2.74-1.25,5.55-1.51,7.79l-1.37-0.37c0.73-2.42,1.24-4.97,0.88-7.47L416.68,1341.21z" />
<path class="cls-12" d="M409.12,1341.24c-0.35,0.67-0.58,1.93-1.64,1.91c-1.03-0.02-1.86-0.48-2.51-1.18  C405.81,1340.64,407.77,1341.26,409.12,1341.24z" />
<path class="cls-12" d="M402.51,1342.1c0,1.25-1.08,1.73-2.12,2.47c-1.34,0.96-2.35,0.12-1.99-1.64  C399.79,1342.76,401.13,1342.17,402.51,1342.1z" />
<path class="cls-2" d="M648.19,1379.28c-14.6,1.11-28.85-0.92-44.58-0.82c-6.77-14.94-15.56-28.77-20.04-43.99l47.41,1.33  L648.19,1379.28z" />
<path class="cls-1" d="M671.17,1344.95c3.22-3.35,7.73-4.87,13.53-4.55c25.74,1.59,51.3,1.21,76.67-1.14  c5.48,0.49,6.56,5.49,5.44,9.72c-0.89,3.39-2.56,8.59-7.39,8.56l-82.53-0.51C671.45,1356.99,670.26,1348.8,671.17,1344.95z" />
<path class="cls-2" d="M761.37,1339.26c-0.71,6.02-58.11,3.56-64.56,3.17c-9.18-0.56-17.35-0.36-25.65,2.52  c0.65-2.32,2.51-7.03,5.71-6.92C705.38,1338.97,733.65,1336.77,761.37,1339.26z" />
<g>
</g>
<g>
</g>
<g>
</g>
<g>
</g>
<g>
</g>
<g>
</g>
<g>
</g>
<g>
</g>
<g>
</g>
<g>
</g>
<g>
</g>
<g>
</g>
<g>
</g>
<g>
</g>
<g>
</g>
</svg>