<?xml version='1.0' encoding='UTF-8'?>
<svg xmlns="http://www.w3.org/2000/svg" id="Layer_1" viewBox="0 0 1200 1543" xml:space="preserve" width="1200" height="1800">
<style type="text/css">
      .cls-1 {
        fill: #49362d;
      }

      .cls-2 {
        fill: #364753;
      }

      .cls-3 {
        fill: #644739;
      }

      .cls-4 {
        fill: #327781;
      }

      .cls-5 {
        fill: #975f37;
      }

      .cls-6 {
        fill: #bb5142;
      }

      .cls-7 {
        fill: #718390;
      }

      .cls-8 {
        fill: #549ba1;
      }

      .cls-9 {
        fill: #d29033;
      }

      .cls-10 {
        fill: #c6967d;
      }

      .cls-11 {
        fill: #e2a944;
      }

      .cls-12 {
        fill: #8ec0c1;
      }

      .cls-13 {
        fill: #b6cacc;
      }

      .cls-14 {
        fill: #d6e0de;
      }

      .cls-15 {
        fill: #f6f2e4;
      }

      .cls-16 {
        fill: #f4f7f4;
      }

    </style>
<path class="cls-15" d="M1027.27,0c1.01,2.89,0.23,5.98-2.34,9.27c-7.57,14.9-3.04,28.59,3.33,42.69c-8.57,2.84-16.72,6.64-24.45,11.38  l-3.63-0.7l-3.07,0.24c-7.17-8.01-19.6-6.18-29.15-4.45l-2-2.3l-2.88-0.56l-3.47-15.19l-1.91,8.47c-0.59,3.93-2.3,5.59-5.15,4.97  c-1.16,5.84-7.79,1.17-10.84-2.07c-17.31-23.97-49.13-30.89-68.97-5.22c-6.38-2.46-12.43-0.75-18.14,5.13  c-10.12,1.74-20.3,3.58-30.54,5.53c-12.73-2.05-22.2,1.01-28.39,9.16c-8.35-1.8-19.62-1.89-21.69,7.54l115.88-0.13l1.61,2.68  l2.39,1.5l-7.31,30.55c-1.01,8.8-3.73,16.34-8.17,22.63c0.92,0.57,2.28,1.42,2.13,2.22c-0.6,3.18-6.74,23.58-8.06,24.61  c-3.54,2.77-5.85-1.6-6.63-5.14c-1.06-9.53-4.5-17.83-10.3-24.9l-6.53-21.69l-13.21,45.94c-1.53,3.59-3.25,3.05-6.23,1.6  l-3.62-13.06l-5.75,24.29c-1.18,3.66-3.34,2.68-6.05,0.49l-10.81-39.46l-11.25,45.9c-0.99,2.82-3.46,1.92-5.88,0.42l-14.93-55.29  c-4.49,21.28-9.78,42.39-15.86,63.3c-3.93,10.22-8.52,6.91-11.9-0.88c-3.45,8.34-7.22,10.74-11.3,7.2l-12.03-43.51  c-3.86,20.22-9.47,39.72-16.82,58.52c-4.72-0.1-8.32,2.36-10.8,7.37c-5.01,2.5-8.41-1.35-10.22-11.55l-9.25-34.25  c-3.71,18.79-9.1,37.1-16.16,54.93c-4.3,4.68-7.57,1.66-9.8-9.05c-1.23,3.47-3.07,5.17-5.54,5.1c-3.21,3.05-11.62,1.71-13.49-2.28  c-3.98-1.87-6.29-6.13-6.92-12.8c-0.66,5.19-2.73,8.44-6.21,9.76c-0.31,0.99-0.78,2.32-1.64,2.43c-1.04,0.13-19.95-3.04-20.56-3.89  l-1.46-2.73c-1.56-0.59-3.06-0.93-4.5-1.01l-4.07,2.44c-51-9.57-101.8-19.98-152.38-31.23l-2.92-3.36l-2.92-0.21L413,139.65  l-8.16,24.21l-3.16,0.99c-0.46,0.98-1.17,2.42-2,2.36c-5.1-0.32-16.87-2.46-21.84-3.88c-3.88,0.1-6.45-1.26-7.71-4.09l-2.9-0.42  l-8.51-28.63l-6.4,25.81c-1.58,2.51-2.87,3.52-5.49,2.03c-3.43-1.95-9.76-19.12-10.83-23.74l3.04-3.84l-7.55-19.01l2.11-2.89  l0.94-2.68l288.63-0.13c-7.48-13.02-24.05-12.8-37.17-10.64l-3.39-0.28c-8.49-14.92-22.23-18.3-38.23-14.17  c-20.95-28.43-58.85-46.58-85.66-14.92c-4.41,1.63-9.33,1.85-14.77,0.66c-6.7,1.07-12.03,5.16-15.98,12.28  c-14.87-4.6-25.43-2.65-34.8,10.33l-2.84-0.65c-17.94-11.38-38.75-12.42-56.34,0.14l-4.39-0.2l-2.93-0.34l-22.57-68.47l-6.3,19.41  c-1.85,9.91-5.15,18.91-9.9,27c-2.63,4.2-9.24-0.42-10.91-4.46c9.88-20.42,5.74-41.79-9.25-58.32l1.7-3.09H1027.27z" />
<path class="cls-16" d="M105.87,1079.52l2.84,2.96l0.75,22.65l-9.28,69.38c1.83,11,15.53,24.24,24.38,30.63  c0.19,0.13-0.08,0.61-0.36,0.81c27.27-16.38,61.66-12.01,90.83-4.82l1.34,3.01c2.1-1.19,4.58-1.12,7.43,0.2  c6.01,4.34,12,8.5,17.98,12.5c72.34-10.28,143.24,10.73,201.18,54.93c71.9-20.32,152.48-10.04,214.28,33.12  c0.98,0.68,1.73,1.71,2.48,2.79c0.77,1.1,1.37,2.32,1.94,3.56c6.35,1.56,15.94,4.92,16.23,12.03l6.38,2.48  c8.66,7.83,16.48,15.85,23.45,24.06c62.98-27.86,142.08-10.78,189.55,38.67c59.69-21.86,124.79-26.32,187.42-17.05  c33.35,4.93,77.56,14.88,108.2,28.47c2.78,1.23,5.02,3.34,7.1,5.51v44.05c-6.52-0.24-9.77-0.36-9.77-0.36  c-92.67-31.89-192.59-48.84-289.25-26.82c27.58,6.95,54.87,15.69,81.88,26.2l4.14,3.41l15.05,4.36l45.95,22.44  c0.8,2.21-0.51,3.66-2.37,5c-78.23-21.3-158.46-42.66-240.61-60.22c-87.38-18.67-177.24-28.08-266.26-17.28l144.92,41.56  c1.01,1.94,0.25,3.6-1.19,5.18l-143.1-22.31l-16.64-3.81c-27.5-9.61-55.63-15.83-84.41-18.65l43.98,24.18  c0.95,4.14,0.62,5.78-4.46,5.29c-27.44-3.25-54.88-6.14-82.31-8.68l-4.3-1.9l-3.11,1.12c-16.36-14.55-31.61-30.28-45.73-47.18  l0.67-3.17c0.48-0.95,1-1.86,1.66-2.66c0.63-0.76,1.26-1.45,2.04-1.8c36.66-16.24,88.14-10.83,121.1,11.34  c5.69-7.93,22.75-24.04,31.9-26.56c4.83,0.53,4.91,0.22,0.22-0.94c-66.97-60.05-155.11-89.89-244.45-86.64  c-5.57-0.33-15.64-1.74-19.51-4.9c-0.75,1.39-2.17,2.26-4.29,2.59c-76.41-23.13-153.28-45.75-230.61-67.87l-0.84-3.03v-97.77  c0.83-0.59,1.68-1.13,2.6-1.5c9.04-3.65,47.6,13.16,54.86,21.98c3.21-10.14,12.9-19.7,21.15-26.69  C85.97,1087.34,96.79,1078.36,105.87,1079.52z" />
<path class="cls-8" d="M986.99,1451.87c1.76-0.51,3.54-0.97,5.34-1.23c1.77-0.26,3.53-0.47,5.24-0.3  c39.43,3.7,79.06,13.49,116.86,25.08l84.1,28.07c0.85,0.68,1.34,1.78,1.48,3.32v36.06H735.38l-15.16-2.56  c-74.8-21.77-148.68-42.66-221.64-62.66c-2.62-5.75,0.69-6.84,9.26-5.4c26.47,0.77,52.92,2.05,79.37,3.44  c108.57,5.71,214.18,18.79,321.79,32.39c-66.82-19.91-138.68-35.84-207.53-50.48c-14.06,0.02-28.13,0.97-42.21,2.85l-221.24-2.39  c-46.04,1.7-91.74,2.12-137.09,1.25c-4.49,0.23-6.6-1.14-6.34-4.11l-292.64-0.72l-1.66-2.68v-16.07l0.91-2.69  c0,0,66.34-0.47,199.02-1.41l6.31,2.63c-0.67-3.22,0.59-3.32,3.77-0.3l0.88-2.7c60.26-0.74,120.28-2.15,180.07-4.21  c30.57,0.67,60.84,5.05,91.15,8.4l-55.31-30.42c29.26,0.32,55.88,6.73,82.88,15.24c11.72,3.69,23.16,6.74,35.58,8.68l138.24,21.61  l-112.84-32.58l-45.18-12.66c92.84-13.26,180.53-4.64,270.68,13.65c51.75,10.5,101.71,22.37,152.69,36.05l98.39,26.4L986.99,1451.87  z" />
<path class="cls-4" d="M735.38,1542.86H0.29v-91.07l308.38,0.76c-3.52,4.37-9.32,0.61-13.18,3.23c8.25,2.09,16.3-0.03,24.91,0.4  c31.48,1.57,62.01,1.79,93.54-0.15c23.37-1.43,45.02-0.1,68.5,0.11l175.13,1.62c15.19,0.14,29.46-4.69,44.2-2.83  c16.48,2.07,165.44,37.64,186,43.91l45.8,13.97c-45.77-3.63-89.77-9.1-135.25-15.3c-34.97-4.76-68-9.12-103.22-11.86  c-65.9-5.13-130.28-9.2-197.39-11.03l125.24,34.9C661.25,1520.2,699.03,1529.3,735.38,1542.86z" />
<path class="cls-8" d="M1200,1049.28v174.02l-6.01,0.47c-41.54-17.31-86.08-22.7-129.47-8.66c-49.94-45.04-118.79-66.87-183.77-43.57  c-45.2-38.67-102.45-58.33-161.56-45.44c-3.43-0.2-18.39-7.98-20.76-11.52l-2.76-1.04c-1.54-21.37-3.08-42.74-4.62-64.12l2.56-1.79  l0.94-2.68c78.11,0.25,156,0.5,233.69,0.75c0.67,2.07,3.07,2.08,7.2,0.02l262.91,0.86L1200,1049.28z" />
<path class="cls-12" d="M948.14,931.92c0.25-1.19,0.67-1.17,1.25-0.03c5.01,6.64-2.2,18.73-6.48,25.36c-1.92,4.87-4.65,7.2-8.2,6.99  l-4.59,3.08l-25.66,2.32c-10.89,0.63-20.49,3.82-28.82,9.58c14.52,6.61,28.99,13.31,43.4,20.12c3.49,14.43,7.41,28.71,11.79,42.84  c12.53-17.61,19.04-38.16,19.51-61.64c13.86-10.8,26.12-23.09,36.02-37.62c10.49-4.06,21.17-7.13,32.04-9.19  c1.67-3.55,5.74-4.84,12.21-3.89l167.74,0.37l1.64,2.68v116.38l-311.91-1.02l-194.49-0.63l-3.1-4.48  c-1.75-12.09-4.1-24.09-7.06-35.99c-0.62-2.96,1.32-4.77,5.82-5.42c1.95-25.5,2.62-51.01,2.03-76.51l1.58-3.89  c-0.02-3.3,2.69-4.8,8.14-4.5l98.25,2.51c1.51,1.63,1.14,3.49,0.24,5.47l-31.08,3.78c58.55,0.15,117.25,0.58,176.11,1.26  L948.14,931.92z" />
<path class="cls-6" d="M1027.27,0H1200v159.28c-3.68,8.37-8.61,16.02-14.78,22.97l-5.31,10.53c2.59,3.11-7.51,16.46-9.44,17.23  c-2.84,1.13-3.71-0.22-5.05-2.79c-2.95-28.44-5.23-57.23-6.84-86.36l-1.22,15.03c-1.52,1.83-3.46,1.71-5.56,0.7l-13.8-22.27  c19.16,30.47,24.17,59.9,19.08,95.89l-2.8,3.98l-1.57,2.86c-9.23-0.9-17.3,0.89-24.2,5.4l-3.17-1.04l-2.94,0.11  c-11.12-21.07-20.94-42.65-29-65.08c2.26,5.82,2.96,11.33,2.09,16.51c-4.56,0.55-8.87-1.32-12.93-5.58  c21.57,19.99,34.17,48.59,42.01,76.59l-0.92,4.92c-2.37,2.29-6.11,2.8-11.24,1.52c0,0-5.14,0.74-15.41,2.22  c-3.06,2.14-6.19,3.17-9.37,3.1c0.65,2.96-2.52,3.2-9.51,0.72c2.35,1.2,2.93,2.24,1.44,4.76c1.2,0.24,2.77,1.06,2.55,1.97  c-4.99,10.16-4.4,16.72,0.94,26.73l-1.24,3.27c1.27,2.58,1.29,4.36,0.04,5.32c-2.09,2.33-4.73,4.39-7.91,6.16  c-4.6,3.87-5.4,9.26-2.4,16.17c2.33,11.61-15.78,17.48-21.38,8.79c-2.09-0.15-3.52-1.87-4.28-5.17c-1.74,4.79-12.92,3.96-17.68,3.15  c-22.75-3.89-32.57-26.49-24.03-46.97c-44.14-2.97-53.53-60.04-13.79-77.86c-3.44-19.02,9.85-31.73,27.67-33.99  c1.25-6.24,4.58-11.29,9.49-15.29c-3.8-4.69-5.97-10.42-6.38-16.44c-13.67-3.16-25.12-10.99-30.95-24.02  c-1.9-1.61-3.35-3.39-4.34-5.35l-1-2.68c0.58-9.23,1.61-18.44,3.09-27.65l3.27-1c-3.39-3.52,4.56-14.69,8.98-13.7  c7.69-5.61,15.92-10.17,26.39-11.39C1014.42,34.69,1016.4,15.24,1027.27,0z" />
<path class="cls-4" d="M1005.87,1284.64c2.3,1.57,2.23,2.76,0.19,4.43c6.19,0.52,15.77,4.41,7.64,9.56  c-37.77,3.77-75.83,5.57-114.2,5.39l248.8,9.07l-64.14-18.9c-1.68-3.35-1.21-5.21,1.42-5.57c38.05,6,75.8,12.12,113.27,18.36  l1.16,2.9v95.51c-100.34-38.07-197.71-50.44-303.14-14.55c-48.92-49.03-124.81-66.01-189.31-38.69l-29.66-28.89l0.89-2.69  l133.76-1.8c-5.86-3.99-13.34-4.65-20.31-4.39l-2.14-2.56c-4.63-1.89-14.5-10.5-15.75-15.22c-0.24-0.9,1.28-1.95,2.37-2.6  c4.43-2,6.65-3,6.65-3l95.14-0.87l4.35-1.37c0.24-1.24,0.71-1.29,1.42-0.22c0.48-2.29,4.81-5.08,6.93-5.2  c36.37-2.04,73.17-2.45,109.54-0.48L1005.87,1284.64z" />
<path class="cls-11" d="M269.42,0c0.41,2.53,2.53,4.1,4.28,6.37c12.29,15.9,15.46,37.3,5.58,54.8c2.32,3.07,6.02,3.56,8.59,4.7  l4.07,0.55c9.69,11.07,17.4,24.82,16.66,39.94c-0.35,7.15-2.27,19.86-9.38,22.22c0.86,2.41,0.11,3.6-1.12,5.33  c-9.46,13.17-30.2,17.89-44.99,18.73c8.48,8.6,16.12,16.87,12.88,29.93c42.02,4.03,62.18,52.81,34.32,85.2  c-4.18,4.86-14.53,14.18-20.36,10.05l-3.58-0.3c-8.58-8.4-19.29-13.54-32.12-15.44c-2.02-3.03-0.05-6.29,5.9-9.77  c16.03-15.93,11.94-35.34-8.19-44.32c2.27-11.26-0.49-19.17-8.28-23.74c-7.76-2.23-15.13-5.9-22.13-11.02  c1.53-16.18-3-31.34-19.53-37.5c-14.46-5.39-28.95-2.43-39.62,8.87c-3.31,0.63-5.82-1.87-7.52-7.5c-3.62-4.51-8.56-7.62-14.83-9.32  c-5.28-3.45-7.92-7.6-7.92-12.46l-0.77-2.85l47.43-39.81l-54.45,37.01l-2.83-1.31c-3.13,0.66-6.68-0.02-10.67-2.05  c-4.9,0.2-8.46-0.87-10.68-3.19c-3.43-1.78-1.43-11.29,2.6-11.08l1.98-2.42c6.82-0.28,12.63-3.66,17.42-10.14  c14.52,3.36,25.29,5.39,33.45-10.57c6.47-12.65,5.5-29.76-9.31-35.58c-5.73-9.01-13.11-13.54-22.12-13.58  c-1.55-5.62-4.4-9.51-8.54-11.67C101.05,7.1,91.73,4.27,98.03,0H269.42z" />
<path class="cls-4" d="M236.02,1265.64c2.59,0.27,2.54,1.32,0,2.1l0.48,2.91c-35.57,23.58-70.57,47.96-105.01,73.13l74.79,80.37  c3.9,3.2,5.23,6.47,4.01,9.8l-3.77,0.3l-5.5-1.81c-28.93-27.06-57.49-54.57-85.66-82.53L2.4,1318.92l-2.12-2.4v-119.2l213.28,62.11  C220.76,1261.53,229.22,1266.51,236.02,1265.64z" />
<path class="cls-16" d="M1200,1223.31v7.2l-1.34,2.63l-86.62-3.22c16.44,5.96,32.46,12.85,48.04,20.65c4.75,5.77,3.83,6.95-4.6,5.84  c-64.24-16.04-129.56-31.91-195.28-35.86c-25.91-1.55-50.99,0.55-75.16,8.36c-4.9,0.58-16.05,0.95-18.74-2.99  c-1.6,2.16-2.93,2.41-4.64,0.42l-34.3-46.89c-21.05-2.94-42.19-4.67-63.41-5.21l-3.11-2.23c-2.73,2.71-5.21,0.79-7.43-5.74  c-5.38-7.94-12.11-13.12-20.18-15.55c-23.02-2.37-39.92-7.46-37.38-34.46l2.57-1.66c7.12,2.1,13.83,5.11,21.08,8.96  c60.62-12.58,115.4,5.65,161.71,45.6c63.42-23.95,135.04-1.84,183.8,43.58C1112.96,1196.8,1155.52,1205.07,1200,1223.31z" />
<path class="cls-8" d="M1200,1230.51v79.38l-79.3-12.96c-12.72-2.08-24.35-5.15-37.32-5.76l86.14,25.38l-305.07-11.23  c-6.41-0.24-11.72-0.99-18.04-1.63l37.61-1.65c26.5-1.16,52.06-1.67,78.4-2.35c17.95-0.46,35.21-1.03,53.73-4.14  c-8.84-6.11-17.7-2.78-26.66-6.51c1.5-1.92,17.76-0.48,16.39-4.41c5.14-1.83,7.72-2.75,7.72-2.75l50.63-1.75l-15.49-3.29  c-7.05,0.32-13.29-0.71-18.72-3.09l-6.96-1.54c-13.78-10.77-28.44-20.03-43.97-27.78c-11.63-2.15-23.42-3.55-35.38-4.21L896,1270.6  c5.17,0.2,8.78,1.65,10.84,4.34c5,2.91-0.71,5.45-4.31,6.09l-15.79,3.42c0.13,2.24-0.7,3.61-2.47,4.11  c-0.4-0.17-0.99,0.31-1.42,0.22c-4.1,2.54-19.84,2.83-17.82-4.4c-0.64-0.21-1.24-0.46-1.67-0.89c-3-2.92,15.18-24.84,18.84-27.88  c-6.46-8.65-12.45-17.78-17.98-27.4l2.09-2.28l17.69,0.37c8.05,0.17,30.57-17.94,130.55-2.69c50.18,7.66,97.95,19.09,148.01,31.86  c-16.36-11.97-45.47-18.25-63.36-28.69L1200,1230.51z" />
<path class="cls-2" d="M206.53,1434.25l-206.24,1.47v-119.2c2.67-0.74,5.24,0.22,8.43,1.11l108.04,30.05l79.95,77.59  C200.21,1428.68,203.62,1431.13,206.53,1434.25z" />
<path class="cls-11" d="M17.55,536.77c0.84-4.92,9.01-3.33,12.88-1.93c9.95,3.6,14.49,13.56,11.93,23.62c3.47-1.32,5.53-0.63,6.18,2.06  c1.77-4.1,6.75-1.59,9.98,0.11c5.73,3.01,9.89,8.36,11.89,14.48c1.31-1,2.85-1.28,4.63-0.82c0.72-6.86,13.1-7.52,18.99-6.66  c3.95,0.58,11.57,2.29,11.34,6.4c0,0,1.97,2.04,5.9,6.11c6.99,1.2,7.21,14.17,6.27,20.42c16.88-2.68,27.59,8.88,29.65,24.51  c17.22-4.26,35.42,5.85,36.39,24.42c10.16,1.19,16.91,7.17,22.39,15.48c2.84,4.3,9.09,15.3,3.3,18.15  c-2.19,1.19-4.51,2.42-7.04,2.58c-32.37,2.04-67.17,1.51-98.82-1.26c-3.27,2.97-13.36-0.13-17.83-1.77  c-6.76-2.48-11.58-4.69-15.77-11.13c-7.75-11.75-16.6-22.37-26.55-31.86c-13.21-7.23-27.19-12.79-41.93-16.66l-1.05-2.92v-93.75  l1.8-2.56C8.24,525.9,13.4,530.23,17.55,536.77z" />
<path class="cls-12" d="M123.02,842.12l0.29,4c-14.55,16.13-22.98,34.01-25.29,53.65c3.1,0.25,5.7,1.41,7.77,3.49  c-7.43,25.93-10.06,51.92-8.71,78.92l-2.33,4.79l-1.28,2.66c-30.52-0.4-61.05-0.8-91.59-1.21l-1.59-2.7V841.07  c0.11-1.06,0.49-2.66,1.23-2.68c40-1.13,81.21-0.81,121.01,0.63L123.02,842.12z" />
<path class="cls-2" d="M92.78,92.03c-0.79,3.26-1.5,7.96-2.6,11.08l1.51,3.74c-2.48,5.48-3.7,10.57-3.67,15.29l19.39-14.17l4.12,0.37  l81.61-55.63c2.66-1.81,4.9-3.76,8.28-3.94l-79.29,66.54l-0.68,3.99c-15.52,9.16-29.33,19.94-41.43,32.36  c-9.68,17.69-17.56,36.43-23.63,56.22l-4.02,2.39c1.57,2.77,1.64,6.44,0.19,11.03c0.77,7.45-0.3,14.06-3.21,19.84l2.58,1.18  c-3.82,40.2-7.64,80.42-11.46,120.64l-2.82,1.37l2.43,2.26c-1.5,12.58-3.01,25.16-4.51,37.74l-2.89,1.62L34,409.9  c-2.24,22.43-4.43,44.93-6.57,67.5l-2.97,7.4c4.11,1.16,3.11,10.2-1.08,10.62c1.02,0.27,2.52,0.81,2.48,1.56  c-0.31,7.11-3.36,32.22-5.39,38.23l-2.92,1.55c-1,0.2-2.03,1.2-3.24,0.99c-1.82-0.31-4.6-11.42-14.03-11.41V401.79  c1.18-20.34,3.86-40.34,8.04-60l2.3-2.86l-1.72-0.54c2.26-19.1,5.37-38.3,9.33-57.58c-8.03-32.57-14.01-65.46-17.95-98.66v-17.41  c3.24,4.12,4.86,6.19,4.86,6.19l19.1,67.79c5.51-33.32,10.59-66.42,11.89-99.99l3.03-4.9l-2.58-1.4c0.6-11.86,2.38-23.41,5.35-34.65  c-1.01-0.4-2.53-1.05-2.49-1.86c0.3-5.48,4.19-43.61,5.92-45.1c3.24-2.78,8.67,0.31,5.59,4.06c0.89,7.3,1.22,14.67,0.98,22.13  c2.06,7.52,2.77,15.54,2.14,24.05l-2.66,1.99l2.71,4.95c-0.23,14.32,0.19,28.62,1.28,42.91c7.28-15.16,13.61-30.91,18.63-47.01  l4.13-4.86c-1.74-2.62-0.1-8.46,3.57-7.97l-1.98-2.19l24.97-58.37c2.08-0.74,3.8,0.04,5.21,1.73l-14.21,58.9L92.78,92.03z" />
<path class="cls-7" d="M1036.44,615.92c2.29-1.83,5.42-2.09,9.37-0.77c10.88-0.62,20.97,1.19,30.26,5.41  c7.73-0.27,12.97,1.36,13.35,9.96l13.74,2.24c1.68,0.63,2.28,2.24,1.8,4.84l3.91,1.5c20.95-8.83,39.43-5.41,59.4,2.19l1.06,2.95  c2.36,2.65,0.06,5.2-6.91,7.67l-18.79,8.29c2.45,10.96,5.15,22.11,8.12,33.43c15.04-5.69,30.24-10.87,45.59-15.55l2.67,1.95v37.04  c-3.86,7.02-9,15.09-15.58,19.95c-7.45,1.45-15.2,1.09-23.27-1.07c-0.23,5.5-4.71,21.34-8.81,23.96  c-7.38,0.04-14.34,0.66-20.86,1.86l-1.23,2.67c-49.73-0.19-74.6-0.28-74.6-0.28l-1.58-2.68l-0.33-3.51  c4.21-5.71,25.83-23.78,32.25-24.16c1.73-0.1,3.21-0.15,4.22,1.51l2.24-3.05c5.42,0.44,10.5-0.1,15.26-1.61l17.4-15.47l-70.94-1.48  l-1.54-2.71c-2.49-0.46-4.06-2.68-4.71-6.66l-2.76-5.72c0,0-2.76-3.48-8.29-10.44c-2.25-2.41-0.47-4.52,5.33-6.34  c0.36-3.06,2.36-5.74,6.02-8.02c3.97-5.93,8.97-10.31,14.98-13.13l-38.33-0.24l-1.56-2.69l-1.39-1.2  c-0.7-5.54-2.14-10.89-4.32-16.05c5.39-2.33,9.15-5.64,11.3-9.93c3.36-1.76,4.55-3.96,3.57-6.58c-2.67-3.1-3.08-5.66-1.24-7.68  C1031.81,612.31,1034.48,612.65,1036.44,615.92z" />
<path class="cls-13" d="M1200,1449.44v57.36l-81.42-27.21c-43.08-14.39-87.07-23.19-131.59-27.73c-17.36-6.4-34.88-12.17-53.17-17.63  c-14.14-4.22-27.6-6.83-42.42-12.49c72.58-18.35,145.78-14.31,217.81,1.39C1140.73,1430,1170.14,1439.73,1200,1449.44z" />
<path class="cls-9" d="M98.03,0c-1.14,7.87,14.82-0.12,17.42,17.98c11.65-2.4,15.83,6.1,21.84,12.54  c4.22,4.53,10.89,4.71,13.15,12.66c4.41,15.49-1.4,34.71-17.62,40.83c-6.48,2.45-13.54-1-19.75-2.32  c-5.16,7.19-12.06,11.95-20.29,10.34l14.79-61.3L81.76,91.06l-1.79,2.6c-9.1-2.68-17.94-6.2-26.52-10.57  c-1.39-9.2-2.21-18.6-2.48-28.22c-0.92-0.61-1.99-3.56-3.94-2.52l-5.09,45.42c-1.68,15.32-6.33,29.05-25.17,25.28  c-5.21,5.08-10.36,7.16-15.47,6.23l-1.02-2.04V0H98.03z" />
<path class="cls-8" d="M94.75,986.96c1.57,2.87,3.1,5.85,3.65,9.1c2.89,17.18,5.76,34.78,8.15,51.88c1.18,8.41,1.99,18.57,1.8,27.03  l-2.49,4.54c-19.55,8.93-36.2,22.93-47.72,42.61c-18.15-12.52-37.39-20.45-57.87-22.57V985.71L94.75,986.96z" />
<path class="cls-13" d="M1200,872.05v60.85l-164.53-0.35c-6.1-0.01-12.12-0.24-17.07,1.19c-2.66-4.58-3.94-10.13-3.85-16.66  l-3.61-16.53l1.62-4.38l1.26-2.67l97.13,1.02c-29.28-2.56-58.23-6.3-86.84-11.21c-6.02-3.79-3.98-9.61,1.84-12.32  c57.7,0.25,115.17-0.22,172.41-1.4L1200,872.05z" />
<path class="cls-5" d="M1200,496.38v89.08c-1.59,2.15-4.38,3.24-8.38,3.29c-5.88,2.4-10.48,6.72-13.82,12.97  c-14.26-4.36-20.4,1.51-27.2,13.18c-9.58-2.91-15.09-2.3-20.22,7.25c-5.52-1.31-10.41-0.62-14.67,2.07  c-2.7,3.23-5.31,4.48-7.83,3.77l-3.63-1.21l-7.17-11.25l-27.48-30.8l-5.12-3.65c-4.11-0.63-6.7-2.24-7.76-4.8  c0.54-2.95,2.94-4,7.23-3.14l6.22,1.34c2.02-14.61,16.82-23.72,29.86-15.25c3.67-2.68,7.65-4.49,11.95-5.43  c1.22-14.05,13-22.76,26.52-23.15c-0.18-6.15,1.57-9.88,5.23-11.17c-2.45-3.63,3.8-7.52,7.2-7.61c0.73-3.21,3.4-4.96,8-5.24  c7.93-1.42,15.86-0.14,23.79,3.83c0.69-5.59,1.67-8.28,6.04-11.87C1191.76,496.1,1197.74,492,1200,496.38z" />
<path class="cls-7" d="M103.42,684.43l10.96,1.02c17.13,5.15,34.19,10.43,51.16,15.86l4.75,3.04l5.04,1.6  c2.51,1.81,29.77,31.15,30.05,33.38c0.49,3.9,0.17,5.81-4.58,5.83c-23.23,0.66-46.56,0.61-69.77-0.29  c-1.26-0.05-2.52-0.46-3.79-0.91c-1.31-0.46-2.56-1.1-3.79-1.78l-2.81-0.92c-16.96-18.47-32.98-37.76-48.05-57.88  c-7.65,4.31-15.71,8.72-24.2,13.22c-6.6,1.25-30.88-8.67-37.89-11.89c-3.76-1.73-9.39-4.32-10.21-8.37v-56.25  c6.12,0.74,37.46,12.47,42.07,15.6c14.9,10.13,22.46,27.37,34.67,39.97C84.45,681.26,95.28,681.55,103.42,684.43z" />
<path class="cls-14" d="M1054.08,761.5l77.41,0.29l0.41-0.91c22.04-1.45,44.24-2.23,66.5-1.74l1.59,2.68v33.1l-1.26,2.66  c-39.35-0.33-79.18-1.15-119.48-2.46c-27.38,1.01-54.46-0.08-81.25-3.27c-1.43,2.26-3.99,2.64-7.69,1.15  c-6.11-4.98-11.4-11.17-15.87-18.58c-4.26-3.6-6.66-7.37-7.2-11.3c-0.31-2.99,1.82-4.27,6.37-3.83l78.84-0.46L1054.08,761.5z" />
<path class="cls-13" d="M1200,794.91v22.29l-0.92,2.81l-91.57,11.02c-4.03,1.53-7.18,1.46-9.45-0.22l-4.84,2.34  c-17.2-0.42-33.4,4.41-48.6,14.49l-3.75-1.16c-0.66,0.95-1.54,1.29-2.65,1.31c-1.76,0.03-20.44-1.73-21.37-2.29  c-1.09-0.66-1.46-2.09-1.66-3.4l-2.38-1.91c0.73-11.52,4.78-23.82,14.3-31.06c-8.16-6.27-17.48-10.92-27.94-13.93l-1.17-3.36  c0.52-0.93,2.07-1.38,3.71-1.25c22.47,1.74,44.35,2.09,67.03,1.81c17.78-0.22,34.46,1.11,52.22,1.37L1200,794.91z" />
<path class="cls-13" d="M95.45,801.81c0.15-1.02,0.4-2.48,1.19-2.66c3.94-0.94,15.91-0.44,18.86,2.92c1.06-0.67,2.13-1.29,3.27-1.73  c1.1-0.43,2.18-0.81,3.26-0.83c12.78-0.14,26.44-0.14,38.76,2.89l0.1,4.13c-9.46,13.6-20.62,25.51-33.48,35.73l-4.4-0.14  c-2.92-1.44-6.34-1.57-10.37-1.55L0.29,841.07v-38.84l1.22-2.68c28.48-0.13,57-0.25,85.56-0.38L95.45,801.81z" />
<path class="cls-4" d="M123.45,742.17l-1.23,2.69l-86.86,0.47c-5.11-0.19-10.13-1.06-15.07-2.6c2.4,1.73,1.27,2.13-1.5,2.84  c-1.01,0.26-18.64-4.61-18.5-7.63v-61.61c2.68-0.07,4.6,2.24,7.15,3.73c9.64,5.65,20.65,7.63,30.68,12.14  c15.58,7.01,16.14-6.83,35.57-10.91c15.85,20.21,31.81,38.84,48.4,57.81C123.01,740.17,123.05,741.41,123.45,742.17z" />
<path class="cls-5" d="M1200,200.96v148.37c-1.53,3.7-6.91,4.29-9.1,0.88c-2.91,5.61-15.76-1.7-17.31-6.22l-2.67-1.55  c-3.35-36.12-5.15-72.47-5.38-109.05l2.84-3.22l15.67-25.77C1188.2,201.33,1196.22,196.11,1200,200.96z" />
<path class="cls-9" d="M1200,585.46v64.65c-0.32,0.99-0.85,2.38-1.66,2.41c-2.78,0.1-24.43-4.21-27.65-5.29l-1.36-2.99  c-18.99-3.63-25.11-14.96-62.86-1.48c-2.32,0.16-0.88-3.97-1.51-5.16c-3.2-2.91-1.76-9.22,2.93-9.64  c5.51-6.64,12.83-11.64,21.63-7.77c1.51-5.56,5.04-8.14,8.59-9.07c4.37-1.15,8.27-0.51,11.81,1.85  c3.88-11.54,14.12-19.3,27.08-13.25C1180.57,589.81,1189.75,584.14,1200,585.46z" />
<path class="cls-7" d="M20.28,742.73c15.68,3.76,31.25,8,46.72,12.71l2.87,3.77c8.36-0.59,18.93,8.67,24.77,14.62l0.17,3.34  c3.34-0.97,4.16,0.71,3.44,3.83c2.92,2.21,18.43,16.23,18.8,18.05c0.22,1.09-0.7,2.17-1.57,3.01l-20.05-0.25  c-25.47-9.58-54.17-18.38-82.38-24.66c-4.52-1.27-8.7-3.43-12.78-5.72v-33.48C-3.16,735.2,25.8,745.72,20.28,742.73z" />
<path class="cls-7" d="M1200,817.21v10.5c-1.76,4.84-16.03,14.4-20.7,15.32c-18.28,2.26-36.53,4.82-54.75,7.69l-9.95,13.46  c-7.35,0.12-14.58,0.5-21.71,1.14c-0.24,4.32-9.43,4.58-9.37,0c-1.81-1.41-4.86-1.21-6.69-0.02c-1.29,3.59-2.84,3.59-4.14,0.01  c-3.99,0.47-4.78-3.36-1.76-5.76c-2.19-2.33-1.08-5.27,3.33-8.85c6.15-6.88,15.78-16.13,23.82-19.89c2.97-1.44,6.24-2.1,10.13-2.57  L1200,817.21z" />
<path class="cls-14" d="M1064.78,865.04c3.78-2.67,6.41-2.58,7.9,0.27c1.35-0.07,2.78-0.02,4.14-0.01c1.86-1.26,4.84-1.37,6.69,0.02  c3.19,0.78,6.19,0.28,9.37,0l3.38-0.85c9.95-0.24,19.83-0.36,29.66-0.38c24.05-0.11,48.06,0.03,72.03,0.42l2.04,1.92v5.62  l-49.64,1.34l-123.91,0.2c-2.01,0-2.54,2.44-3.05,3.3s-0.19,3.64,1.54,3.92l27.91,4.59l95.02,10.7c4.43,0.5,9.52-2.28,12.81,2.35  c-27.52-1.45-53.71-1.39-81.16-1.65l-66.95-0.63c-2.93-0.08-3.97-2.42-3.1-7.02l1.86-23.33l2.54-1.79c0.02-1.04,0.3-2.63,0.95-2.66  c12.16-0.55,28.3-0.05,40.49,0.8C1060.4,861.36,1063.56,862.31,1064.78,865.04z" />
<path class="cls-9" d="M0.29,164.73v-17.41l0.98-3.14l21.32-3.2c4.86-2.09,9.4-4.87,13.6-8.34l2.98,1.18l-3.4,47.72l-10.64,69.02  C15.05,221.02,9.88,192.7,0.29,164.73z" />
<path class="cls-4" d="M1200,650.11v29.93l-31.25,10.16c-6.47,2.1-12.33,3.53-18.95,8.01c-0.86-4.25-0.95-7.27-2.04-11.04l-8.04-27.81  c5.69-3.97,29.02-11.62,29.6-15.13L1200,650.11z" />
<path class="cls-4" d="M1200,827.71v38.72c-1.29,1.25-3.14,0.45-5.32,0.44l-67.01-0.09c-12.08-0.02-23.45-2.46-34.79-1.47  c-0.22-1.23,1.15-1.53,2.61-1.51l15.82,0.22l12.05-15.58c17.28-3.85,34.63-5.13,52.39-7.29  C1183.11,840.27,1193.85,829.7,1200,827.71z" />
<path class="cls-9" d="M10.63,338.92c-3.52,5.89-7.24,0.05-8.54-5.52c0.2-5.29-0.4-10.18-1.8-14.66V182.14l20.6,98.69L10.63,338.92z" />
<path class="cls-4" d="M95.45,801.81l-95.16,0.43v-30.8c26.84,6.05,53.45,13.19,80.27,21.54C86.24,794.74,90.57,799.64,95.45,801.81z" />
<path class="cls-4" d="M1200,717.08v44.73l-68.51-0.02c-2.1-5.19,14.54-0.13,19.36-3.73c3.74-2.79,3.38-9.83,5.81-13.56  c2.51-3.85,2.48-7.23,0.16-11.86l20.34,2.94C1188.98,737.27,1189.91,721.34,1200,717.08z" />
<path class="cls-9" d="M1200,429.38v67c-7.8,0.98-13.69,7.2-17.27,14.05l-2.74-1.1c-1.29-23.61-2.59-47.23-3.88-70.86l2.59-1.76  c1.03-3.31,7-6.66,10.52-5.43C1189.19,427.21,1198.4,425.6,1200,429.38z" />
<path class="cls-11" d="M39.18,133.82l-10.22,7.14c-7.8,5.45-19.66,3-28.67,6.35v-20.09c6.42,2,11.75-5.18,16.14-6.78  c7,0.44,13.62,1.97,18.35-6.01c2.68-4.51,6.94-8.79,5.62-15.4c-0.13-0.67,1.12-1.51,1.54-1.28L39.18,133.82z" />
<path class="cls-4" d="M1200,349.32v80.06l-10.78,1.89c-1.04-0.14-2.61-0.51-2.65-1.25c-0.56-9.32-0.06-23.01,0.65-32.39  c-0.79-4.79,0.16-7.86,2.86-9.2l-2.55-4.35l0.94-29.54l2.43-4.35C1193.91,349.66,1196.94,349.26,1200,349.32z" />
<path class="cls-10" d="M10.63,338.92c-3.7,20.96-5.31,42.4-10.34,62.86v-83.04c4.59,0.39,0.82,10.4,5.07,17.83  C6.77,338.48,8.78,338.99,10.63,338.92z" />
<path class="cls-6" d="M1200,174.36v26.6c-23.64,2.53-19.42,22.23-31.62,29.2c-2.8-1.78-2.59-3.68-1.14-6.27  c7.95-15.77,17-30.93,27.16-45.46C1190.88,175.34,1197.31,170.8,1200,174.36z" />
<path class="cls-5" d="M1200,159.28v15.08c-1.5,0.8-4.76,2.3-5.59,4.07c-3.18,3.88-6.86,8.64-11.02,14.28l-3.47,0.08  c0.03-13.46,7.3-15.21,14.2-27.05C1195.8,162.85,1196.59,159.3,1200,159.28z" />
<path class="cls-13" d="M937.73,112.5l2.86,1.73c-3.53,10.3-6.09,20.51-7.65,30.63c3.47,0.73,3.78,1.77,4.12,5.13  c0.2,1.98-4.12,16.99-7.67,16.25l0.31,3.02c-8.98,6.75-9,15.9-3.46,25.06c-8.28,9.23-12.43,19.61-9.2,32.06l-2.04,2.83l1.2,3.78  l-8.64,19.2c3.24,2.71,3.83,3.93,0.79,7.42c4.09,7.55-0.08,17.48-9.51,18.47c-26.08,13.1-18.38,52.98,10.55,56.57  c2.66,3.2,3.14,7.73,1.46,13.59l3.23,9.7c-24.44,18.83-11.35,54.26,18.65,54.26l2.4,2.49c4.94-2.69,9.46-1.69,10.35,4.3  c14.73,0.75,27.86,5.01,39.39,12.77l-0.68,3.17c-0.8,3.84-10.62,5.35-14.51,5.72c-12.06,1.14-24.54-4.54-30.01-15.31l-13.72,1.18  c-2.96,8.52-12.54,5.55-14.67-2.29l-4.22-2.77c-5.1,5.28-11.44,8.9-18.92,6.53c3.47,16.57-9.26,25.63-11.82,5.53  c-6.75,2.93-13.95,1.5-19.09-3.76c-19.33,9.52-36.67-12.93-43.35-28.28c-21.31,2.4-42.05,9.3-53.96,28.11  c-10.32,10.41-16.79,10.97-29.81,4.09c-8.08-6.11-16.51-11.18-25.29-15.23c-13.63-0.58-11.06-11.07-3.01-18.38l-8.83-4.09  c-10.25-1.5-20.1-4.06-29.56-7.66C639.36,347.3,604.14,334.9,558,340.87c-5.32,0.69-10.23,1.77-14.12,4.94  c-4.61-0.32-9.18-1.92-13.71-4.8c-1.9-3.17-2.33-7.36-1.29-12.56c-2.66-3.9-3.82-7.52-3.47-10.84c12.76-15.2,2.8-33.34-12.9-41.87  c0.2-5.02-1.01-9.31-3.63-12.87c-2.78-1.61-4.02-3.54-3.74-5.77c-3.36-1.76,1.04-18.75,2.16-20.25c1.93-2.58,2.84-2.91,5.95-0.75  l7.79,28.12c3.94-13.85,7.38-27.84,10.34-41.97c2.7-8.38,4.03-8.28,7.95-0.84c2.82,11.86,6.19,23.54,10.11,35.04l12.35-47.93  c1.84-1.47,3.71-0.93,5.59,0.44l8.7,28.51l6.94-28.15l3.76-5.62c0.32-1.87,1.13-3.78,2.14-5.66c1.1,2.87,2.01,4.74,2.36,6.67  l3.52,3.96l5.53,20.81c1.56-5.46,4.38-12.71,9.58-5.91l1.72-12.73l3.31-1.94c2.63-6.88,4.97-13.63,6-21.62  c2.54,9.66,3.89,17.1,7.13,24.65l3.4,1.9l1.93,13.77l4.88-12.13l3.29-1.26c1.43-3.92,3.87-7.46,5.15-12.24  c3.34,6.04,4.67,11.21,6.26,17.58c3.58-5.78,6.34-12.01,8.12-19.17l11.83-47.71c5.22,18.36,9.06,37.18,15.92,55.77  c4.66-2.75,4.63-6.79,8.23-8.59c1.32-0.66,3.82,0.91,4.67-0.15c4.07-5.07,15.57-57.4,18.21-67.38l15.06,54.47  c4.6-3.49,4.58-8.33,8.41-12.25c3.36,3.53,3.03,7.6,7.73,10.96c7.66-26.42,14.01-52.32,20.09-78.65l17.85,65.94l14.14-57.66  l13.9,51.12l8.57-36.43l6.75,24.32c5.45-19.71,11.67-37.63,16.13-58.68l9.62,32.07l3.66,4.5c5.5,6.76,4.05,16.55,8.7,25.33  l7.84-26.27c2.44-5.48,6.08-8.19,10.92-8.14l28.45,3.91l2.32,3l1.16-0.89c-0.04-5.88,6.4-37.89,9.18-39.97  c1.61-1.21,2.42-1.26,4.08,0.08C937.57,91.57,938.84,107.98,937.73,112.5z" />
<path class="cls-14" d="M333.59,108.56c-5.88,0.24-9.45-9.31-4.95-13.48c-1.12-2.77-2.05-5.06,0.93-6.81  c20.33-14.86,40.6-15.72,63.24-1.37c6.53-13.19,21.04-16.35,34.39-10.33c10.54-21.73,25.92-8.24,30.04-13.14  c6.27-7.45,13.83-13.27,23.4-15.44c28.63-6.48,47.72,9.11,64.48,30.4c15.58-5.37,31.69-0.25,38.59,14.36  c15.87-2.81,36.45-3.31,43.67,15.7L333.59,108.56z" />
<path class="cls-14" d="M586.79,203.71c-2.46,14.35-6.14,28.33-10.6,43.27l-11.71-38.37l-14.63,57.04  c-6.36-15.78-9.79-31.5-14.48-48.64c-4.44,18.51-7.92,37.22-14.44,56.84l-10.59-38.19l-5.21,21.45c-2.02,3.43-3.9,1.3-5.79-1.31  c-7.39-21.2-29.82-27.6-49.63-19.77l-3.41-1.49c-3.88,0.74-8.15-11.52-8.83-15.13c-0.48-2.57-0.04-5.12,1.07-7.42  c-4.77-11.55-8.84-23.36-12.22-35.43l1.1-4.98l130.14,27.56C567.84,201.3,577.1,203.37,586.79,203.71z" />
<path class="cls-12" d="M329.56,88.27c0.83,2.53,0.7,5.47,3.01,8.17l-3.73,2.04c0.11,4.09,3.4,7.25,4.74,10.07  c1.49,8.29,6.28,15.31,9.24,24.64c-1.22,1.13-3.31,0.35-4.85,1.35c3.99,7.67,5.8,15.23,11.26,22.69l9.44-38.06l11.44,40.06  l3.12,1.64c1.79,7.03,3.55,14.06,5.27,21.11l-2.14,2.52l-1.99,2.53c-9.76,0.17-19.41-0.61-28.94-2.36l-5.39,1.65  c-7.83,6.5-13.86,7.51-18.08,3.05c3.8-16.7,2.58-28.16-10.63-39.64c-7.6-2.78-14.47-13.75-12.13-21.17  c13.16-24.03,5.79-43.95-11.36-62.7c4.15-18.65,9.96-37.08,16.38-54.99L329.56,88.27z" />
<path class="cls-14" d="M952.56,53.8c5.42,2.17,0.64,16.95-1.53,21.48l-3.09,1.24l-1.2,2.57c-12.72,0.07-25.45,0.05-38.17-0.06  l-1.91-2.69l-2.9-0.4l-4.63-15.98l-4.32,14.35l-3.31,2.11l-122.24,0.14c3.49-12.23,14.38-16.72,25.65-12.32  c6.63-14.14,20.83-7.83,30.67-10.03c7.97-1.78,16.92-3.66,24.76-3.92c5.9-0.2,12.33-12.81,21.76-5.81  c11.26-17.2,31.93-20.95,49.86-12.98C939.37,39.24,943.65,56.04,952.56,53.8z" />
<path class="cls-12" d="M965.96,56.12l2.96,0.77l4.35,16.95l-2.13,2.46c5.18,3.98,10.53,27.19,8.54,31.96  c-0.38,0.91-0.92,1.75-1.51,2.57l-2.32,3.33c-24.51,5.59-32.01,26.69-33.26,49.08c-2.31,6.22-9.68,8.12-13.19,3.01l5.53-18.44  c-13.62,1.14,5.13-28.87,2.81-35.3c1.07-10.8,3.27-21.57,6.6-32.31l3.62-3.66c1.79-7.47,5.5-14.86,4.62-22.72  c4.66-6.92,3.1-15.62,7.25-24.64L965.96,56.12z" />
<path class="cls-12" d="M427.43,171.57c4.71,13,7.74,26.72,13.68,40.04l-1.41,6.2l6.6,16.73c1.65,3.67-5.25,10.92-8.39,13.28  c-5.26,3.96-7.43,3.24-9.66-2.79c2.71-16.98-4.52-26.96-19.35-34.45c-1.06-8.35-7.01-14.21-13.65-18.87l-0.15-3.14  c-0.99-0.29-1.89-0.83-2.27-1.85c-0.37-1.01,4.93-18.82,5.75-20.77l3.08-1.1l11.23-33.32L427.43,171.57z" />
<path class="cls-12" d="M906.66,76.34l2.98,0.88c4.83,17.03,8.76,34.15,11.79,51.38l-1.33,1.27l-16.35-2.13  c-6.61-0.86-13.87-3.92-20.01-0.64c-1.99,1.07-2.67,4.79-5.33,4l13.09-54.68c2.26-9.44,6.23-18.27,6.92-28.49L906.66,76.34z" />
<path class="cls-14" d="M401.68,164.85l-6.56,23.72c-4.58,2.86-15.59,0.28-18.73-4.06l-6.26-25.27L401.68,164.85z" />
<path class="cls-14" d="M1000.18,62.64c-2.67,4.07-6.98,9.16-8.98,13.7c0,3.77-17.43,3.23-18.22,2.64c-0.91-0.67-1.46-1.64-1.85-2.68  l-5.17-20.18C976.33,53.76,993.77,51.88,1000.18,62.64z" />
<path class="cls-14" d="M614.95,208.91c-2.2,5.76-0.18,13.99-4.81,20.25c-2.04-0.52-2.3-3.9-3.97-6.89c-2.65,4.69-3.24,9.98-6.5,14.57  c-3.22-11.25-6.45-21.54-8.37-32.12L614.95,208.91z" />
<path class="cls-14" d="M641.58,214.23c-2.3,6.33-4.22,13.48-8.35,19.22c-4.86-6.95-2.59-15.56-5.14-21.51  C632.63,212.51,637.22,212.77,641.58,214.23z" />
<path class="cls-1" d="M355.11,719.14c1.78,1.78,1.63,3.34-0.77,3.89l-26.62-0.26c-69.04,65.82-78.25,165.6-27.23,245.94  c0.99-5.06,3.85-7.66,8.08-3.69c9.67,13.21,20.31,27.31,34.25,35.58c4.15-12.86,11.23-9.64,13.2,1.86  c36.59-26.96,58.91-67.41,74.19-109.31c0,0,1.53-1.29,4.58-3.86c1.06,0.12,2.65,0.51,2.67,1.25c0.93,42.33-0.36,85.36-2.53,127.4  c2.57-4,9.47-9.09,11.05-2.41c0.48,2.04-3.31,29.22-4.16,33.87l-2.68,3.41c-0.83,1.12-1.7,2.2-2.69,3.15  c-0.96,0.92-1.93,1.79-3.05,2.32c-19.79,9.53-41.48,17.78-62.63,23.27c-0.72,13.14-1.48,26.23-2.27,39.26l-2.71,1.67l1.45,4.18  c-0.95,7.16-3.86,19.13-6.26,25.87c-0.16,0.45,7.38,2.44,8.77,2.74c15.15,0.47,25.88,6.56,36.23,17.02c4.07,2,6.25,4.51,6.54,7.54  c5.87-1.96,8.55,16.93,7.35,18.44c-1.6,2.02-3.69,1.74-5.65,0.09c-2.89-9.25-7.68-14.57-14.39-15.94c4.72,4.18,7.95,8.75,9.68,13.71  c-4.59,7.33-10.3,4.42-17.14-8.72c-15.07-11.72-7.65-0.32,0.66,4.99c3.38,3.2,4.64,5.52-0.12,8.31  c-34.17,0.65-68.29,0.41-102.33-0.73c-6.45-0.9-13.76-1.92-19.45-5.24c-3.12-1.82-8.58-5.43-4.67-8.5l-3.23-0.89  c-7.37-20.02-15.28-39.38-23.76-58.09l-33.54,44.88c-1.96,3.75,1.5,6.03,10.39,6.84c5.74,2.21,12.55,6.67,15.36,11.53  c23.88,9.42,12.51,28.81-7.76,9.56c-1.93,0.06-3.42,1.45-4.46,4.16l-3.12-0.12l-26.17-5.33c-22.53-4.59-45.39,0.15-66.16,9.51  l-8.35-7.71c-7.21-6.65-19.64-17.28-18.07-28.45l8.51-60.4c1.62-11.49,0.2-21.84-0.28-32.24c-0.61-13.32-0.71-26.43-3.44-40.47  c-3.41-17.56-6.05-34.85-7.68-52.08c-1.02-10.79-0.33-21.92-0.17-33.4c0.23-17.14,3.58-33.15,9.28-49.73l-9.19-2.07  c0.3-22.34,15.63-43.28,28.35-59.64c18.36-12.86,24.88-23.97,37.77-39.73c-0.21-2.4-0.31-3.6-0.31-3.6l11.43-8.95  c1.99-3.16,4.23-4.86,6.72-5.09l1.34-3.88c9.12-7.59,18.42-14.71,27.92-21.36l3.66-0.31l2.89-4.93  c41.89-28.37,89.54-41.5,138.77-37.8L355.11,719.14z" />
<path class="cls-2" d="M632.54,1165.31l3.47,0.81c4.25,7.6,13.47,15.39,22.33,16.3c22.75,2.34,48.2,2.02,71.24,1.12  c0.6-0.02-1.35-2.06-2.05-2.6c-15.92-9.65-8.62-19.44,7.06-11.9c4.33-12.48,18.72-1.04,22.43,6.87c0.46-2.45,0.83-4.06,3.83-3.9  c4.99-0.87,10.34-1.23,16.07-0.62l52.31,5.56l34.33,47.52c0.73,1.02,2.2,1.05,2.75,1.44c1.98,7.99,14.52,20.01,18.29,30.09  c-5.14,6.86-19.07,22.16-19.56,28.36c-2.82,2.06-4.23,3.08-4.23,3.08c-29.32,0.75-58.52,1.23-87.58,1.43  c2.57,1.31,3.73,3.02,3.49,5.12c-0.68,6.22,11.85,11.18,13.38,17.81c-6.58,3.35-14.13,4.46-22.66,3.33  c-32.95-0.83-65.54-1.23-97.75-1.2l-8.02-2.72c-64.7-46.55-141.78-57.42-219.14-36.99c-42.93-30.48-87.04-51.32-139.06-56.22  c-21-1.98-41.06-0.01-61.97,1.43c-6.56-1.71-14.32-11.96-21.63-13.76c-0.96-0.24-2,0.42-2.75,0.01c-0.43-0.23-0.67-0.92-0.75-1.57  c2.09-2.89,3.72-7.95,8.55-6.53c4.66,1.37,15.37,13.65,17.18,7.01c2-7.33-12.36-11.48-10.39-14.08c0.61-0.85,1.26-1.66,2.03-2.34  c4.33-3.79,27.25-6.16,32.75-1.94c4.86,12.37,35.82,12.08,48.52,12.04l79.15-0.25c-3.95-6.47-10.81-8.33-13.69-14.57  c-1.49-3.23,4.79-4.26,7.3-2.99c7.18,3.62,10.35,10.16,14.02,16.64c0.74,1.3,4.35,0.51,4.93-0.4c2.18-3.42-10.15-11.25-11.41-15.81  c13.48-5.55,17.19,9.5,22.15,17.68c-0.22-5.73-1.13-13.69-4.92-18.76l1.09-2.74c23.53-1.34,47.08-2.56,70.64-3.66l1.74,2.45  l3.72,2.09c9.41,23.87,28.75,29.41,52.33,29.77c12.37,0.19,31.97,0.02,43.86-2c0.33-0.06-3.28-4.35-4.21-4.75  c-6.01-3.82-25.65-16.54-8.23-17.18c12.1-0.44,24.03,9.77,25.49,21.75c6.15,1.34,5.41-1.94-2.21-9.82  c-9.28-7.3-13.77-15.53,1.66-12.79c-0.56-3.04,0.26-5.12,3.42-5.59c-4.76-1.37-9.39-2.95-14-4.99c-0.83-0.37-0.46-2.26,0.11-3.42  c-0.08-1.03,0.03-2.64,0.68-2.74c9.77-1.57,23.48-2.39,33.48-2.74C626.88,1162.23,630.35,1162.84,632.54,1165.31z" />
<path class="cls-2" d="M236.02,1267.73c1.08-1.56,2.28-0.96,3.67-0.07c34.73,35.71,69.45,71.41,104.16,107.11l-0.79,3.03  c10.77,11.07,34.85,40.63,48.17,49.23c0.19,1.3-0.28,3.43-2.76,3.48l-178.18,3.43c-2.9-4.86-6.87-9.03-11.21-13.7L127.11,1343  c11.29-8.85,22.54-16.44,34.43-24.54L236.02,1267.73z" />
<path class="cls-13" d="M343.06,1377.8l-107.04-110.07v-2.1c8.02-1.04,15.25,2.59,24.08,2.44c43.84-0.77,86.33,4.43,127.73,19.82  c43.21,15.39,82.49,38.27,117.2,70.47c-14.84,7.54-26.21,16.86-36.9,28.59C429.44,1363.75,382.6,1360.25,343.06,1377.8z" />
<path class="cls-12" d="M790.1,1311.83c10.38-0.77,21.63,0.58,30.25,9.52l-142.46,1.92c-4.84-3.97-11.11-8.35-16.23-12.03l63,0.31  C747.06,1311.66,768.56,1313.41,790.1,1311.83z" />
<path class="cls-13" d="M649.68,1357.74c-39.77-15.9-79.82-23.15-122.13-8.59c-17.21-20.4-35.87-37.69-57.01-55.18  c39.96-2.03,76.92,6.49,112.37,20.88C607.37,1325.71,629.56,1338.53,649.68,1357.74z" />
<path class="cls-8" d="M368.74,1479.25c-9.45,1.76-17.8,0.97-27.16,0.46c-40.81-2.19-80.73-2.73-121.57-1.98  c-7.79,0.14-15.98-0.69-21.43-8.63l100.09-3.42C299.04,1465.68,364.63,1476.76,368.74,1479.25z" />
<path class="cls-1" d="M703.06,795.35l3.56,0.02l9.78,8.6c11.38,6.34,24.1,9.5,38.15,9.49c2.61,3.28,3.68,7.85,3.19,13.71  c14.29-7.9,35.84-18.29,52.49-17.02c3.09,0.24,3.92,2.19,1.44,4.09l-1.23,4.39c-10.36,7.36-19.67,15.81-27.95,25.34l-4.31,1.32  c3.34,1.4-5.72,11.96-6.46,12.11c-4.09,0.84-4.77-0.75-6.19-4.09l-9.67,12.61c-4.74,6.02-12.27,15.3-14.57,4.85l-14.42,15.48  l-6.18,1.61l0.58,2.88l-27.11,19.16c-0.16,2.95,0.19,5.87,1.05,8.77l-2.34,2.66c1.59,29.17,2.04,58.19-1.88,88.59  c-2.39-1.57-1.92-5.34-5.47-5.54c3.26,14.87,7.04,28.87,8.08,43.25l4.83,66.95c0.78,10.84,0.1,25.22,13.03,29.03  c19.45,5.74,28.71,0.93,40.34,17.27c1.67,2.35,4.68,3.38,5.26,6.94c0.33,2.04,2.49,3.35,3.79,4.18l-1.84,6.79  c-0.81,2.99,1.93,6.45-0.38,9.29c-2.64-9.6-8.21-22.13-19.35-21.9c-1.68,0.03-2.21,2.59-2.04,3.5c0.75,3.89,9.6,8.65,13.14,14.39  c-4.19,2.17-8.27,0.6-9.98-3.59c-4.01-9.82-15.84-13.99-19.25-10.3c-2.84,3.07,10.31,6.96,13.22,15.94  c-24.13,0.25-47.54,0.98-71.55-0.45c-13.74-0.81-24.48-8.71-30.29-20.37l-3.48-1.02l-7.6-13.98c0,0-1.09,1.03-3.28,3.08  c-5.6-3.77-9.65-9.54-12.18-17.31c-0.82,1.31-3.11,3.08-4.26,2.85c-5.22-1.07-11.72-22.73-13.38-28.7  c-7.62,11.33-12.25-9.86-12.43-17.16l-2.55-1.47l6.34-65.6c28.53-46.2,46.77-104.55,28.2-157.73c-5.07-6.35-9.38-13.1-12.95-20.28  c-1.1,0.1-2.46-0.03-2.86-0.93c-5.57-12.54-17.28-39.98-16.74-52.52c0.07-1.66,1.2-3.08,2.21-4.33c1.11-1.66,2.54-2.08,3.58-0.45  c16.25,33.12,44.32,63.6,81.73,71.22c-0.98-3.29-0.59-5.96,1.16-8c5.32,0.63,10.72,1.89,16.18,3.79  c-1.59-9.37-2.34-18.91-2.25-28.62c-10.78-22.12-15.16-44.61-13.15-67.48c0.56-3.3,1.14-6.05,4.83-6.76  c1.39-1.25,2.25-3.71,2.59-7.39c3.86-0.95,6,1.81,6.41,8.27c4.19,13.93,11.2,28.65,23.42,37.08L703.06,795.35z" />
<path class="cls-13" d="M887.67,1084.54c0.39,7.01-2.44,22.21-10.77,19.9c-2.48-0.69-5.65-3.84-4.63-7.34  C874.25,1090.37,880.35,1084.36,887.67,1084.54z" />
<path class="cls-13" d="M926.34,1081.15c-1.88,3.23-6.1,2-7.69,0.43c-6.44-6.36,3.61-16.62,9.39-21.35  C929.74,1067.3,930.08,1074.7,926.34,1081.15z" />
<path class="cls-13" d="M898.54,1130.84c-1.46,3.49-5,4.62-8.05,3.42c-1.97-0.77-3.87-3.94-2.95-7.13c1.58-5.48,5.47-9.99,11.27-11.82  C900.91,1120.47,900.68,1125.75,898.54,1130.84z" />
<path class="cls-13" d="M901.18,756.59c1.36-3.18,3.1-3.99,5.22-2.45c4.77,10.61,10.43,20.82,16.98,30.63  c-0.25,3.32,1.66,4.82,5.73,4.49l2.58,3.77c41.65,33.93,58.05,104.62,35.24,154.07c-4.81,10.43-24.5,40.82-35.17,42.29  c-6.75,0.93-7.11-25.54,2.97-25.13c4.66-5.25,7.38-11.15,11.06-17.57c3.1-5.39,2.14-10.08,3.62-14.78  c-1.04-6.35-1.46-6.34-1.25,0.03l-161.75-0.33l-60.52-1.05c5.44-2.29,10.4-0.77,15.71-1.41l58.5-7.08l-98.12-2.53  c-3.58-0.09-6.52,0.8-9.08,1.82c-0.21-3.92-2.56-8.43-0.85-12.84l28.67-20.64l6.29-2.38l219.25,4.02  c-0.53-7.13-2.59-14.17-6.17-21.14l1.72-3.04c-5.81-5.31-8.12-12.2-6.99-19.97c-4.19-0.05-7.38-8.45-3.91-10.98  c-8.97-17.24-13.46-25.87-13.46-25.87c-6.61,10.21-10.28,21.88-12.89,33.66l-3.35,2.77c-5.02,3.03-10.93,4.6-17.75,4.72  c-7.28,2.47-14.21,3.24-20.8,2.33l-6.92,1.64c-25.74-2.27-51.44-3.98-77.09-5.14l-0.43-3.19c8.91-12.69,21.51-21.48,33.49-31.06  c0.25-3.13,2.69-4.82,7.31-5.09c12.98-0.45,25.76-1.84,38.35-4.18l9.35-6.76c-1.89-1.22-1.42-2.98,1.42-5.28  c-3.97-1.31-4.2-4.64-0.56-6.62c-2.91-3.01,0.08-4.95,3.3-6.18l22.13,0.21c-0.91-4.81-2.87-9.64-5.87-14.48l1.08-3.87  c-5.03-1.01-6.52-14.2-2.62-17.09c-3.5-4.08-0.16-5.05,4.38-3.66C894.12,747.05,897.87,752.17,901.18,756.59z" />
<path class="cls-6" d="M933.43,739.04l4.3-0.92c10.18,5.94,19.68,12.87,28.49,20.77l1.03,4.23c7.6,5.93,14.08,16.23,19.66,23.82  c4.06,5.52,6.8,3.07,11.1,4.91c7.99,3.42,31.34,10.46,32.52,18.5c-7.38,4.78-11.7,11.24-13.21,19.75l-2.13,12.01  c-0.38,1.1-0.85,1.12-1.4,0.09c-0.71,1.88-1.53,1.96-2,0.29c-0.32-1.14,8.06,21.09,2.06,21.55c1.05,9.29-3.17,25.14-1.3,32.14  c3.29,12.35,6.27,24.74,5.84,37.56c-2.17,7.03-8.82,1.39-24.9,10.11c-1.76,0.95-4.96-0.19-6.28,1.87  c-9.23,14.48-20.98,25.85-34.71,36.12c-2.1,22.83-4.95,48.32-22.54,65.36c-6.4-14.75-8.73-30.34-12.95-46.38l-45.45-20.02  c3.62-10.62,29.76-13.68,38.39-14.43l24.74-2.13c-5.11,5.75-7.27,15.43-3.02,23.21c50.68-40.63,53.71-106.01,24.3-160.58  c-14.94-27.73-27.85-33.01-27.31-32.13c-0.43-0.7,0.29-2.5-0.58-3.42c-7.92,0.61-16.42,1.5-22.72-3.66  c5.92,0.78,11.04,3.47,16.94,0.08c-7.63-10.21-12.83-19.82-16.71-30.98c-0.48-1.37-3.44-0.49-4.42-0.18l-1.91-2.27  c-0.27-8.84-2.32-17.63-6.15-26.4c0.78-5.65,5.62-5.92,10.36-4.99c4.4,0.86,24.35,10.24,29.23,12.87L933.43,739.04z" />
<path class="cls-6" d="M949.39,931.89l-1.25,0.03c-3.97-9.46-16.49-2.62-20.61-6.19c5.14-11.52,13.69-20.86,24.28-27.2  C953.31,910.67,952.63,921.59,949.39,931.89z" />
<path class="cls-11" d="M1045.85,324.44c3.3,2.36,3.19,29,2.21,30.17c-1.5,1.79-2.3,2.43-4.86,2.17c4.25,5.46,6.02,11.1,5.47,18.41  c0.65,13.38,0.7,26.82,0.63,40.2c-0.01,1.31-0.43,2.62-0.88,3.97c-0.45,1.37-1.08,2.68-1.76,3.97c-2.42,7.27-15.09,4.67-21.38,2.75  c-3.56,7.71-8.45,11.35-14.67,10.92l-0.7-1.84c-1.17-0.25-1.17-0.67-0.07-1.26l-1.4-2.7l-2.81-0.35l-19.94-92.97  c-0.68,17.97-11.51,1.57-16.22-6.22c16.67,21.49,23.52,41.93,25.89,69.22c-0.83,5.13-4.82,5.77-9.13,3.96  c7.93,2.93,10.51,6.33,7.76,10.21l1.24,2.81c3.97,0.31,3.44,2.65,0.13,4.06c0.15,6.06-8.9,3.95-13.11,2.41  c-13.27-6.04-27.33-9.61-42.18-10.72l-4.93,1.1c-13.34,1.53-26.27-5.27-32.81-17.55c-7.43-13.96-4.19-30.25,9.66-39.71  c-9.88-12.97,3.65-19.49-6.61-21.35c-18.12-3.27-27.89-21.31-24.24-38.88c2.58-12.44,10.71-21.46,23.28-23.43  c3.27-4.31,2.02-10.32,3.94-14.16c0.03-4.47,1.14-5.34,5.41-7.38c6.92-0.83,10.76-3.61,11.53-8.34l-10.62-10.48l0.34-4.2  c-3.54-12.61-1.76-26.15,9.09-35.17c-4.43-4.8-5.42-11.05-3.56-16.84c1.24-3.86,4.74-8.4,8.86-10.96c2.49-0.8,8.48,1.34,10.07-2  c3.27-6.85-2.75-44.15,38.69-53.41c-0.05-3.68,5.08-5.62,7.68-3.16c3.56,0.02,5.86,2.15,7.5,5.55c5.93,12.3,17.12,19.19,30.36,21.34  c0.17,8.18,2.63,13.99,8.08,19.73c-7.39,3.86-10.52,10.07-11.65,17.93c-8.88-0.24-17.48,3.1-22.25,9.31  c-5.41,7.06-6.86,15.58-4,23.96c-8.65,1.84-14.79,6.51-19.53,13.47c-10.46,15.37-8.13,36.35,5.71,49.61  c7.24,6.94,17.75,7.98,28.17,9.7c-8.57,15.98-4.73,34.7,10.48,43.38C1027.28,326.54,1036.84,325.46,1045.85,324.44z" />
<path class="cls-2" d="M1179.91,192.78c3.59-4.87,8.68-8.86,12.32-14.41c0.92-1.04,1.79-1.21,2.17,0.05  c-6.71,14.23-14.27,28.44-22.38,42.44c-2.23,3.85-3.41,5.37-3.64,9.3c-0.36,6.11-0.43,12.16-0.12,19.09l3.54,80.14  c0.23,5.22,2.03,10.24,1.79,14.6l2.5,5.01c0.69,13.25,1.19,26.4,1.49,39.44l-1.62,2.59c1.07,0.22,2.65,0.59,2.77,1.41  c1.04,7.46,3.52,36.1,2.53,42.16l-2.56,2.12l4.03,73.71c-4.46,8.53-5.31-8.89-31.79,1.41c-1.05-0.12-2.64-0.5-2.67-1.25  c-0.68-16.32-1.18-39.76,0.28-55.7c-0.81-4.1,0.09-6.58,2.72-7.42l-2.67-0.94c0.21-16.26,0.43-32.53,0.64-48.79l2.7-1.55l-2.68-1.56  c-0.04-16.58-0.08-33.18-0.12-49.78l2.67-1.97l-2.67-2.69c1.97-19.76,0.06-35.27-12.84-51.17c-0.66-2.29-0.92-4.68-0.78-7.16  l-49.24-17.32c-3.7-0.01-5.95-1.12-6.73-3.35c-1.44-3.38-15.41-6.4-14.2-8.84c1.1-2.23,26.24,4.84,22.27,3.36  c7.43-0.31,15.06,1.11,22.87,4.26l16.82,3.79l-5.44-12.29l1.78-2.6c-7.29-17.66-11.91-37.22-22.08-54.2  c-10.01-16.71-26.29-28.81-37.31-44.59c9.88,2.69,18.41,17.22,30.17,21.53l-14.03-56.06c7.59,12.63,10.46,26.7,15.74,40.37  l11.92,30.88l17.27,34.6l2.81-0.28l22,49.82l1.41-54.86l2.72-1.9c0.4-18.32,3.37-37.43,0-56.25c-2.9-16.15-30.77-62.06-36.48-81.32  l36.95,59.6l4.05-52.95l7.57,110.84c0.33,4.88,2.59,9.09,1.52,14.98C1172.91,203.61,1175.96,198.15,1179.91,192.78z" />
<path class="cls-5" d="M1151.81,342.87l-2.12,2.35c-6.25-0.38-11.94,2.88-17.07,9.78l-3.5-1.16c-2.08,5.93-15.72,9.72-20.36,5.36  c-0.46,1.16-0.88,1.07-1.24-0.18l-2.8-0.41l-4.94-27.11c-3.28,3.1-5.8,2.75-7.2-1.69l-10.79-36.66c-2.44-3.99-3.86-8.74-5.51-13.7  c-2.77-8.29,3.44-12.08,3.26-18.27c2.53-0.17,5.34,0,8.31,1.05l48.42,17.11c3.47,1.23,1.08,6.41,2.4,8.47  C1156.07,315.08,1151.73,310.61,1151.81,342.87z" />
<path class="cls-7" d="M1050.13,329.61c4.09,1.5,5.34,6.47,1.52,9.07l2.77,1.02c1.78,22.84,3.57,45.7,5.35,68.56l-2.55,1.8  c3.54,0.57,3.33,1.83-0.1,2.75c1.06,0.03,2.68,0.26,2.77,1c2.4,18.4,3.75,39.2,4.9,57.87c1.5,6.18,1.05,11.42-1.36,15.73  c1.53,5.62-13.18,6.87-15.53,2.92l-2.55-4.92c-0.58-5.51-1.77-28.79-0.24-31.75c0.46-0.89,1.08-1.7,1.75-2.48l-2.7-2.78  c-0.06-7.7-0.11-15.41-0.17-23.11l2.66-1.95c-0.14-18.49,0.19-37.06-1.13-56.18c-0.38-5.58-12.13-16.04-10.24-23.37  c5.03,3.01,5.23,8.9,10.31,11.09l0.25-30.44C1047.82,324.41,1049.76,327.87,1050.13,329.61z" />
<path class="cls-5" d="M1081.83,298.48c1,0.74,1.87,1.53,2.32,2.51c2.73,6.01,14.41,49.22,13.03,56.22l-2.85,1.8  c-3.65,4.77-14.07,0.48-19.05-1.96c-6.65-3.26-13.3-8.51-16.22-15.45c-2.9,0.26-7.08,0.58-7.4-2.94c-0.24-3.03-0.87-6.07-1.52-9.07  c5.23,1.69,15.6,2.71,18.48-4.08c2.37-5.58-5.94-13.78,1.95-21.42C1073.24,301.52,1077.22,297.96,1081.83,298.48z" />
<path class="cls-5" d="M1154.26,214.19l-0.97,44.29c-0.16,7.18-0.08,14.01-1.92,21.27c-3.86-5-4.62-10.88-7.17-16.54l-18.88-41.81  C1138.17,212.09,1140.1,215.86,1154.26,214.19z" />
<path class="cls-2" d="M1107.52,359.03c-1.76,3.49-9.2,4.55-11.64,1.39c-1.93,1.34-2.71,0.64-1.56-1.4c0.87-6.1-1.3-12.16-2.74-18.61  c-3.21-14.35-5.71-28.36-9.75-41.93c-0.49-1.64,0.27-3.65-0.04-5.32c7.03,11.48,9.56,25.8,14.45,38.98  c4.54-4.69-2.51-19.6,2.32-22.25L1107.52,359.03z" />
<path class="cls-5" d="M1123.63,248.88c2.23,5.42,6.26,10.48,6.92,18.23c-15.28-2.89-29.53-6.39-42.95-11.39  C1096.36,246.33,1111.97,246.91,1123.63,248.88z" />
<path class="cls-15" d="M991.2,76.34c-5.83,13.24,0.67,27.03-5.37,31.33c-2.34,1.66-5.03,2.57-7.68,3.16  c-1.16-11.71-4.11-23.16-7.03-34.53L991.2,76.34z" />
<path class="cls-12" d="M1005.87,1284.64c-37.6,0.32-75.19-1.32-113.32,1.15c-3.09,0.2-5.4,4-8.28,2.76c0.23-1.74-0.67-3.07-3.1-4.61  c3.13-3.52,29.5-5.07,25.67-9.01l4.94-1.77c37.71-0.29,75.45-0.56,113.2-0.81l5.03,1.4c15.43-1.27,31.17,1.57,46.57,7.5  c-5.19,4.32-10.51,1-15.82,1.46C1042.01,1284.35,1023.93,1284.48,1005.87,1284.64z" />
<path class="cls-12" d="M865.03,1284.38c4.77,4.49,11.59,3.58,17.82,4.4c-0.03,2.21-1.7,2.9-4.15,3.12  c-36.14,3.31-66.82,0.13-101.98,2.11c-3.82-1.01-6.75-4.25-9.01-7.85l72.06-0.72C848.66,1285.36,856.94,1285.27,865.03,1284.38z" />
<path class="cls-8" d="M1175.87,1317.26c-1.41,1.06-3.05,0.81-5.44,0.25C1171.19,1315.96,1172.71,1316.07,1175.87,1317.26z" />
<path class="cls-10" d="M376.38,184.51c6.03,0.66,12.84,2.4,18.73,4.06c1.56,0.44,16.24,10.65,15.84,20.67  c30.5,14.23,15.93,36.19,21.31,38.31c3.2,1.26,9.89-9.21,14.05-13.01c20.7-9.16,45.22-4.28,54.28,17.6c1.4,3.37,1.87,3.84,4.55,4.96  c6.78,2.84,10.61,9.27,9.38,17.42c11.21,4.91,18.09,15.22,19.54,27.08c0.88,7.19-3.98,13.3-7.12,18.66  c10.2,10.94,0.38,16.17,4.75,18.59c3.92,2.17,9.5,3.45,12.2,6.96c7.34-1.31,10.55,19.94,2.65,20.01l-2.02,2.29  c-11.29,0.46-22.1,3.95-32.42,10.48c-18.44,10.3-36.68,20.66-54.72,31.06c-8.03,12.84-24.83,12.58-12.89-4.37  c-3.16-0.62-5.55,2.33-7.16,8.88c-2.14,3.4-3.48,4.7-7.25,2.2c-1.35,1.31-3.19,1.81-5.52,1.5l-8.82,8.81l-3.09-0.74  c-0.41,3.94-5.98,4.71-8.09,1.51c-0.89,2.77-3.69,3.05-8.39,0.83c-4.6,2.45-8.05,2.62-10.35,0.49c-1.42,2.28-4.32,1.84-8.7-1.32  c-3.65,3.23-6.93,2.28-9.82-2.84c-2.47-1.71-3.75-4.83-3.84-9.38c-1.98,16.09-4.38,32.09-7.23,48.01c0.31,2.18,0.63,4.03,3.1,3.56  l1.34,3.08l2.81-1.56c33.98,10.66,38.93,28.14,2.27,41.55l-7.62,5.6c0.55,6.66-3.84,12.08-13.16,16.27  c-5.53,6.57-11.83,12.17-18.92,16.79l-2.94-1.05c-4.44,3.22-13.06,6.18-17.49,2.75c-3.68-3.13-8.42-4.87-14.2-5.23  c-5.02-1.58-7.72-5.75-8.09-12.5c-3.49-5.57-9.25-8.77-17.26-9.61l-1.38-2.68c-1.29-16.33-13.24-19.79-27.11-14.33  c-2.17-5.11-4.99-8-8.46-8.66c-6.01,3.31-7.85,2.32-11.86-2.96c-8.21-1.16-16.58-1-25.09,0.46c-2.25-4.93-5.02-9.51-8.31-13.72  l-5.88-3.84c-4.17-0.55-7.09-1.99-8.77-4.33l-2.91,0.24c-4.18-6.98-9.6-11.28-16.28-12.92c-6.46,0.95-9.79-0.55-9.99-4.52  c4.55-20.15-23.97-31.63-38.91-20.8l-3.11-0.9l-2.43-1.66c4.24-24.51,8.47-49.04,12.71-73.57l2.91-1.11l3.6,0.47  c15.91,31.9,51,38.2,76.2,11.78c17.72,8.04,35.81,9.13,41.7-12.8c4.65-2.45,10.28-2.5,16.87-0.15c23.52,1.21,39.29-14.93,29.82-38  c6.47-12.05,6.78-25.69-0.31-37.53l0.89-3.56c9.45-2.6,17.53-9.31,22.8-17.85c11.84-19.17,9.98-41.28-4.71-58.71  c-8.54-10.14-21.23-15.2-35.4-16.35c6.37-22.55-13.09-26.25-12.06-32.88c0.27-1.76,2.7-2.96,4.88-2.88  c17.85,0.64,32.89-7.32,43.76-20.58l7.1,15.47c17.99,7.1,24.07,27.3,17.92,44.76c5.6,5.79,13.54-11.49,30.11-5.76  C362.07,185.71,369.32,183.74,376.38,184.51z" />
<path class="cls-9" d="M122.14,115.31c3.44,3.13,6.4,9.29,11.08,11.12c8.53,2.53,14.73,6.56,16.96,17.11  c9.5-11.4,23.13-15.2,37.28-12c18.88,4.26,30.54,21.5,25.77,40.45c5.98-0.21,8.98,6.28,12.93,7.33c7.33,1.95,14.3,2.86,17.29,11.49  c1.65,4.76,2.37,10.01,0.44,16.15c13.07,3.81,20.58,16.17,18.27,29.64c-1.75,10.27-8.85,17.9-17.96,23.35  c13.18,1.89,27.84,6.46,35.74,17.86c8.41,12.14,9.66,28.73,1.9,41.2c4.89,9.71,4.21,18.95-1.94,28.1  c-6.24,9.27-17.52,13.08-28.96,12.58c-5.44-0.24-10.47-2.68-15.76-1.97l-4.39,9.85c-5.63,12.64-26.38,12.93-39.31,4.45  c-8.91,11.08-20.66,16.28-34.52,16.76c-25.62,0.9-33.45-13.7-45.79-31.21c-3.69-4.21-0.86-16.93,1.72-21.82l61.24-56.27  l-52.62,42.03c-5.49,0.65-7.09-3.91-4.81-13.68l14.46-87.56l-18.06,78.82c-2.17,10.44-3.27,13.87-9.35,5.47  c-2.47-3.4-7.56-24.29-8.38-29.83l1.41-5.54l-1.03-1.34c-3.63-0.06-4.83-8.86-2.02-10.63c-2.76-2.54-4.27-2.58-4.54-0.12  c1.99,2.23,3.1,4.84,3.69,7.74c4.12,20.27,8.32,40.92,11.16,61.14c-0.25,14.48-3.02,28.51-8.32,42.11l-3.03,1.5  c-5.86,6.54-19.53,5.58-28.21,4.7c-8.67-0.87-22.18-2.66-26.83-9.99l11.71-123.18c6.04-16.31,21.28-21.58,37.51-22.14  c-5.33-1.71-10.41-3.98-15.24-6.79c-6.29,4.89-16.89,6.52-19.25-1.93c8.92-18.79,12.72-41.42,24.6-58.92  C87.69,135.57,108.13,127.07,122.14,115.31z" />
<path class="cls-9" d="M111.53,108.35c-9.02,6.15-16.98,13.89-28.19,19.48c1.22-9.3,4.16-17.17,6.84-24.71  C97.75,102.43,105.5,103.57,111.53,108.35z" />
<path class="cls-2" d="M1030.01,1273.76c-40.9,3.38-82.11,1.25-123.17,1.17c-5.49-0.01-11.7-1.91-18.46-2.64l54.62-34.98  c12.51,3.26,26.62-0.01,38.15,5.09C999.18,1250.38,1014.16,1263.31,1030.01,1273.76z" />
<path class="cls-7" d="M163.69,567.81c3.71,0.9,7.49,0.53,11.32-1.09l9.7-0.44c3.95-0.13,5.82,1.24,5.61,4.13  c3.22,1.62,5.44,4.71,6.66,9.29c-8.38,9-9.75,17.7-4.12,26.1c-1.22,3.61-1.01,4.35,0.26,7.65c3.09-0.02,5.88,1.92,8.38,5.82  c8.76,7.06,15.88,14.78,19.47,25.62l24.26-6.97l2.59,2.04c1.38,1.14,2.06,2.58,0.73,3.59l64.43,33.86c6.45,0.61,8.89,2.52,7.32,5.72  l-7.92,1.81c-28.93,1.22-58.28,2.17-87.28,1.13c-5.38-0.19-10.64-1.53-15.8-2.96c1.6-10.15-14.78-35.26-28.16-29.31  c-0.11-6.97-1.17-13.06-5.4-17.94c-8.07-9.31-20.87-11.2-32.21-6.87c1.05-9.6-2.03-16.76-7.97-21.66  c-5.88-4.85-13.25-5.35-21.79-3.22c3.39-9.14,1.03-16.5-2.47-24c-2.42-2.99-4.99-5.75-7.72-8.29c5.7-8.51,12.3-16.18,19.79-23.02  c3.37-1.29,5.81-3.52,7.31-6.69c5.27-3.55,14.44,2.8,19.24,6.41c4.12,3.09,11.3,11.64,13.87,15.95L163.69,567.81z" />
<path class="cls-15" d="M468.91,677.97l3.23-2.28c13.06,0.55,25.92,2.33,38.6,5.34l2.23,3.49l-1.12,3.79l-19.1,15.05l-4.03-0.34  l-3.04,1.03c-73.53-1.37-150.1,0.36-226.48,3.54c-28.02-1.39-55.91-1.79-83.67-1.2l-5.23-2.03c-22.52-5.64-45-12.18-66.86-19.92  c3.74-0.9,8.65-1.76,13.42-1.38c31.31,2.54,62.03-0.67,92.45,0.05c36.94,0.88,73.99,0.08,111.01,0.02c-0.07-0.63-0.08-1.24,0.1-1.79  c0.87-2.59,48.38-1.33,54.23-0.98c3.29,1.29,5.36,1.22,6.23-0.22c-0.39-0.65-0.73-1.31-0.88-2.01c-1.5-6.75,19.86-2.6,23.87-1.79  C425.2,673.97,448.28,671.71,468.91,677.97z" />
<path class="cls-2" d="M111.18,357.59l-13.19,76.34l2.42,1.7c-4.73,26.62-9.47,53.25-14.21,79.88l-2.92,1.13  c3.65,2.72,2.18,11.06-2.3,12.16l2.38,1.54c-3.32,14.09-5.82,28.3-7.5,42.64c-1.54-1.47-1.82-1.03-0.82,1.31l-5.95,8.39  c-0.64-12.21-9.16-21.39-20.55-22.15l-0.86-5.31c3.83-11.93,6.78-24.08,8.84-36.46l3.55-4.13c-3.78-1.49-2.59-10.1,1.71-9.83  l-0.42-7.87c5.27-21.76,10.46-43.46,15.58-65.11l2.53-3.27l-1.15-3.07c3.44-16.88,7.09-33.83,10.96-50.85l3.42-5.01  c1.01-7.99,12.95-29.83,7.13-55.1c-4.42-19.22-7.35-38.47-10.64-57.39c1.25-4.38,2.4-3.19,4.54,0.12c1.33,3.16,1.21,7.31,2.02,10.63  l1.03,1.34c3.19,13.06,6.14,26.4,11.33,39.34c10.13-41.99,17.48-82.41,29.84-122.99c-2.41,33.33-9.85,63.98-14.19,96.27  c-1.78,13.23-5.41,25.67-5.17,38.61l64.51-51.53c5.51-4.4,10.43-8.48,16.97-11.59c-11.66,12.55-23.3,23.62-35.92,35.14l-49.53,45.24  C112.65,344.83,112.27,351.3,111.18,357.59z" />
<path class="cls-4" d="M124.96,539.28c1.43-5.05,7.38-1.62,5.69,2.85l2.06,8.26c-7.34-7.06-21.19,17.11-27.36,22.66  c3.66,2.53,4.73,4.52,5.92,7.08c-9.81-10.76-23.69-13.38-36.23-5.85c-0.48-0.03-1.22,0.13-1.54-0.13  c-1.77-1.46,6.12-40.05,7.48-45.35l2.83-2.29C97.73,530.1,111.44,534.36,124.96,539.28z" />
<path class="cls-4" d="M60.08,514.61c-3.1,15.45-5.67,31.28-11.53,45.9c-3.49-0.23-6.82,0.88-10.75,1.82  c3.92-6.59,3.47-14.57-1.4-20.4c-4.31-5.17-11.97-6.57-18.84-5.17l5.83-41.35c0.13-1.2,0.74-2.73,1.71-2.66  c3.26,0.23,29.29,16.23,33.86,19.24L60.08,514.61z" />
<path class="cls-9" d="M79.47,428.53c-5.52,25.43-9.81,51.41-17.69,76.25l-2.37,1.73l-30.59-17.32c-2.97-0.72-4.43-2.18-4.37-4.39  c0.71-26.41,5.1-52.71,8.22-78.87l2.63-2.31c15.88,1.23,26.72,8.48,33.01,23.13C74.47,424.65,78.18,425.24,79.47,428.53z" />
<path class="cls-10" d="M92.71,369.6c-2.51,19.95-8.99,39.34-13.23,58.92c-4.2-0.85-8.41,0.77-13.23,1.19  c-7.89-19.01-15.38-21.06-33.56-23.78l4.97-41.62C55.45,372.1,73.8,374.3,92.71,369.6z" />
<path class="cls-9" d="M78.19,99.03c-5.62,21.61-15.77,42.43-24.14,62.98c-3.07-21.22-2.43-39.93-2.62-58.97l1.39-2.49  c2.51-0.77,21.79-4.65,22.88-4.24C76.95,96.77,77.7,97.85,78.19,99.03z" />
<path class="cls-11" d="M49.36,241.13c0.87-9.19-1.02-22.36,3.02-30.87c9.5,3.79,7.56,6.07,18.94-1.24l9.83,5.06  c4.1,2.11,8.91,1.98,12.17,6.11c-6.59,3.41-23.2,0.67-30.93,8.22L49.36,241.13z" />
<path class="cls-11" d="M81.76,91.06c-1.04,2.44-0.94,6.36-3.57,7.97c-7.35-0.78-23.29,5.3-26.75,4.01l-0.47-48.17  c3.97,2.66-0.74,20.14,2.94,25.52l14.68,6.49C73.19,88.91,77.4,91.14,81.76,91.06z" />
<path class="cls-7" d="M61.79,504.78c-0.91,2.88-1.09,6.77-1.71,9.83c-2.39,0.48-4.27-1.36-6.56-2.72l-22.66-13.48  c-2.56-1.52-4.81-3.41-7.47-3c0.45-3.18,0.99-7.48,1.08-10.62c1.77,0.3,3.66,0.91,5.64,2.04L61.79,504.78z" />
<path class="cls-14" d="M874.75,569.42c4.24,2.07,0.89,9.15-2.39,11.67c-5.95-0.58-11.82-0.24-17.61,1.02  c-13.8,5.32-27.71,9.1-41.72,11.36c-14.28-5.18-28.59-8.53-42.92-10.07c-14,3.3-27.74,8.81-41.23,16.53c0,0-2.36,0.01-7.09,0.03  l-4.43,0.06c-11.05-4.52-23.08-0.52-32.61,5.8l-3.09-1.08l-2.45,1.45c-17.47-1.62-34.9-1.32-52.3,0.91  c-2.4-0.03-4.64-0.59-6.73-1.67l-1.35,2.85c-7.38-0.65-14.73-0.63-22.06,0.06c-8.75-7.2-18.92-9.36-29.96-7.33l-2.63-2.29  c-5.49,2.35-11.5,3.71-18.04,4.09l-10.66,3.4c-2.78,4.45-12.33,5.41-17.79,5.82c-19.52-18.7-39.81-11.06-60.58,0.24l-3.01-2.01  c-1.56,0.45-3.45,0.94-5.06,0.76c-9.59-1.11-21.57-3.64-30.95-5.7l-3.58,1.56c-14.18-5.91-26.46-2.35-38.97,4.62  c0,0-4.04,1.02-12.13,3.07c-12.37-0.77-23.89,1.36-34.56,6.38c24.13,1.23,48.3,1.34,72.48,0.33l112.65,0.27l1.61,2.68  c2.77,0.17,2.93,1.47,2.45,3.96l64.6,0.64c68.04,3.34,135.52,3.48,202.41,0.43l2.29,2.49l4.37-1.41c49.55,0.83,98.54,1,146.98,0.5  l1.61,2.67c3.36-4.52,11.43-2.3,8.78,3.82c-7.98,5.62-15.13,11.75-21.45,18.38l94.05-0.56l1.62,2.67l47.07,0.29  c-4.1,6.45-10.94,5.73-14.46,10.64c-3.9,5.44-8.2,10.04-13.73,13.13c-6.5,3.28-13.46,5.91-20.89,7.88l-12.84,7.54  c-16.45-6.97-33.92-8.18-49.74,0.93c-5.4,5.14-10.82,6.6-16.24,4.37c-17.04-10.02-35.35-15.45-54.51-6.34l-4.06-1.11  c-4.28-0.01-5.2-8.29-4.12-11.91c-2.4,0.97-3.86-0.36-4.45-2.84c0.21-6.69,0.44-13.36,0.67-20.03c-6.01-1.84-12.4-1.22-19.17,1.83  l-2.42-2.02l-1.49,2.74c-2.46,1.4-37.52,6.92-41.36,6.74c-2.23-0.1-4.83-0.32-6.88-1.2c-21.69-16.62-47.63-13.37-72.93-9.03  l-3.32-2.22l-3.3-0.57c-8.23-8.87-23.33-6.73-27.99,4.88l-3.25,1.41c-3.9,8.15-13.42,6.59-19.62,0.55  c-16.19-7.88-30.77-4.64-36.94,13.17l-2.92,1.1c-1.47,3.42-4.82,5-10.04,4.74c0,0-8.18-0.35-24.55-1.05  c-27.82-5.83-55.59-10.97-82.01,3.54l-4.86-0.45c-17.31-5.61-27.17-4.21-44.06-6.55l-4.78-1.13c-17.24-12.61-38.11-11.17-56.72-2.48  c0,0-2.03,0.01-6.09,0.03c-12.94-15.24-30.77-18.45-49.19-12.09l-4.84-0.75l-0.89,1.55c-14.66-6.14-29.32-13.08-43.97-20.84  c-16.04-7.51-34.09-7.15-50.5-1.01l-4.11-1.27l-28.44,8.27c-8.57-23.38-15.07-19.02-26.25-34.78L193,610.2  c27.4-0.92,54.84-1.44,82.31-1.56c-4.38-4.29-9.38-7.82-15-10.58c-3.87-1.93-4.93-4.05-3.2-6.38c-3.7-1.49-3.88-2.86-0.6-5.13  c0.09-1.05,0.41-2.64,1.13-2.7c11.94-1.03,28.69-1.4,40.67-0.91l1.99,2.63l1.25-2.67l108.06,0.33c-7.77-5.99-17.37-9.91-28.79-11.76  c-7.41-1.55-9.53-4.39-6.37-8.51l49.27-1.75l4.64,2.52c1.73-0.9,3.79-0.98,6.16-0.24c68.53,3.43,138.43,5.21,209.71,5.32  l228.85-2.04L874.75,569.42z" />
<path class="cls-10" d="M1029.74,534.65c0.28,2.65-1.11,5.12-4.17,7.4c-2.4,5.66-5.53,8.38-9.37,8.17c-5.42-2.27-9.47-2.2-12.14,0.2  c8.42,13.71,17.3,27.31,26.66,40.81l-0.48,4.55c0.66,1.9,0.19,3.99-1.41,6.26l9.27,10.42c1.14,1.48,0.03,2.6-1.67,3.48  c-1.47-0.53-3.63,0.7-5.21,0.43c-2.29,4.42-16.17,3.58-15.78-2.87c3.64-6.03,3.86-9.43,0.64-10.18  c-21.79-3.14-43.98-3.52-66.56-1.13c-10.19-2.02-4.16-10.53,2.7-13.06c0,0,0.31-1.4,0.92-4.2c-1.76-2.29-2.26-5.1-1.52-8.44  c-9.52-7.62-18.75-15.76-27.69-24.39l-5.87-2.73c-8.82,0.05-11.7-1.51-8.64-4.71c1.26-3.53,4.6-4.7,10.03-3.53  c3.1-8.09,9.1-13.3,18.07-12.56c6.82-14.41,21.29-18.34,35.9-13.23c1.92-6.06,4.99-11.28,9.23-15.64l2.98,1.22l1.54-1.37  c-1.81-3.41-0.22-4.27,2.47-1.48l9.22-2.33c7.08,8.49,15.4,16.01,24.96,22.55C1027.98,522.19,1036.18,530.3,1029.74,534.65z" />
<path class="cls-15" d="M871.62,708.84c46.43-1.09,92.91-1.57,139.45-1.44l1.59,2.68l5.18-2.56c11.09,0.26,22.19,0.53,33.3,0.79  l1.51,2.72l79.24,1.66c-7.69,6.8-13.88,13.52-21.66,19.54c-5.6,4.33-14.07,1.68-20,3.12c-16.67-6.07-32.25-1.49-44.52,11.05  c-5.56,2.03-11.63,1.66-18.19-1.12c-8.71-0.88-17.51,0.28-26.4,3.49c-16.82-19.5-43.48-25.6-64.86-9.89l-2.81,0.16l-31.31-13.79  c-1.78-0.78-6.98,0.52-6.42,2.34c2.06,6.74,9.22,22.7,5.49,29c-0.56,0.18-1.08,1.34-1.82,1.11c-0.64-0.2-1.17-0.49-1.68-1.21  l-8.93-12.64c-0.65-0.91-1.51-1.62-2.03-1.04c-0.54,0.59-0.79,1.61-1.16,2.11c-1.11,2.77-2.75,3.12-5.29,1.82  c-23.3-12.79-34.95-19.19-34.95-19.19c-0.55-1.22-0.28-2.6,0.81-4.15c-1.32-6.15,6.54-11.16,11.73-13.36  C858.91,702.66,867.67,704.71,871.62,708.84z" />
<path class="cls-12" d="M953.15,584.91c0.27,1.31,1.64,2.39,1.73,3.96c0.27,4.49-9.57,3.33-7.92,10.97  c17.07-2.48,33.63-1.26,50.83-1.25c8.64,0.01,17.55-0.01,24.6,5.03l-4.79,11.66c4.78,1.5,9.29,0.35,13.62,1.07  c2.03,5.32,5,5.18,3.95,12.11c-0.24,1.57-3.71,2.15-4.39,4.24c-1.73,5.25-5.4,7.06-11.37,8.53c3.92,6.06,6.6,11.26,3.9,16.56  l-102.47,0.61c8.64-10.15,17.92-16.24,27.65-23.84c-2.91-0.95-5.63-1.09-8.18-1.08c-3.88-1.9-2.35-4.64,4.6-8.22  c0.87-1.76,0.58-3.94-0.87-6.56c-5.8-10.01-16.23-38.33,2.96-40.23C951.98,577.99,952.7,580.69,953.15,584.91z" />
<path class="cls-16" d="M1090.21,735.35c-13.21,3.21-26.87,16.52-36.13,26.15l-76.3,0.45c-3.94,0.02-7.55-0.18-10.53,1.17  c-10.85-8.46-21.32-18.58-33.83-24.09c0.32-2.27,2.29-3.31,4.41-4.58c21.63-12.98,47.96-8.08,63.89,12.05  c29.82-12.05,35.18,5.32,44.66-4.07c11.31-11.2,26.74-15.55,41.84-10.22C1089.81,732.79,1090.41,734.23,1090.21,735.35z" />
<path class="cls-16" d="M1036.87,688.2c0.28,2.59-0.75,2.6-1.56,0.02l-1.58,1.39c-3.71,8.21-12.87,16.84-21.08,20.46l-56.4,0.12  l-80.27,0.92c-2.32,0.03-4.03-0.36-4.36-2.28c-3.76-4.46,2-7.09,6.67-5.57c-1.58-0.26-0.98-0.67,1.81-1.23  c-2.04-2.82,0.38-6.9,3.82-6.91c39.73-18.81,58.35,11.42,66.57,5.26c17.1-12.84,38.16-15.14,57.73-5.5  c10.43-8.85,21.94-11.65,33.99-13.02L1036.87,688.2z" />
<path class="cls-6" d="M1107.89,627.97c-1.54,2.6-1.84,6.78-2.93,9.64c-3.02-5.66-14.77-1.19-18.04-5.89c-1.3-1.87,0.2-6.07-2.04-6.89  c-1.32-0.48-4-1.85-5.72-1.56c-5.5,0.91-8.83-3.16-13.07-3.95c-10.12-1.9-20.5-0.08-29.65-3.39c0.28-4.48-11.66-10.46-10.18-14.93  c0.52-1.57,2.21-4.44,3.98-5.22c0.53-3.5,3.94-4.86,10.25-4.09c2.55-7.71,7.04-13.44,13.46-17.18l2.78,1.76  c14.57,2.22,14.7,7.37,23.84,17.28l16.69,18.09C1101.92,616.68,1104.99,622.21,1107.89,627.97z" />
<path class="cls-12" d="M1052.63,711.03l-39.99-0.95c6.32-7.51,13.36-14.39,21.08-20.46l1.58-1.39l1.56-0.02  C1044.58,688.08,1051.69,704.13,1052.63,711.03z" />
<path class="cls-9" d="M1151.27,447.47l-0.33,64.37c-0.56,3.61-5.46,5.03-7.2,7.61l-3.18,1.08c-11.93-7.31-21.74-0.92-31.07,6.8  l-2.05-1.07c-11.45-18.44-37.47-17.81-41.43,5.31c-3.86,2.19-8.58,3.31-14.15,3.34c-2.64,2.58-5.4,4.76-8.29,6.54l-4.8-3.98  c-4.75,0.47-7.76-0.47-9.04-2.82c2.81-13.66-30.03-26.76-32.09-37.13c-3.18,0.33-5.55,0.72-7.99,0.53  c-1.16-6.06,15.22-9.92,17.52-4.57c2.3-5.01,13.9,0.77,15.83,4.89c1.47-0.39,2.87-0.28,4.18,0.35l16.53-9.15l4.18,0.77  c4.84-1.02,11.03,0.1,15.53-2.92c4.67-11.79,20.23-16.02,32.29-16.06c4.4-3.76,7.86-4.69,10.4-2.8l1.6-3.07  c3.66-1.51,13.2-2.31,17.11-2.38c0.18-6.09,6.8-10.83,11.83-13.73C1140.73,447.02,1148.37,442.68,1151.27,447.47z" />
<path class="cls-11" d="M1143.75,519.45c-2.21,3.46-1.73,8.88-3.11,13.95c-14.35-0.61-26.48,8.5-26.08,23.71  c-6.12,0.08-11.14,0.99-13.88,6.02c-5.95-5.51-14.1-6.09-20.71-1.15c-5.1,3.81-6.93,9.87-7.68,16.56  c-4.94-3.02-10.33-3.32-15.55-2.27c-7.31,2.5-11.82,9.96-13.52,17.97c-4.74,0.34-9.16-0.13-12.96,1.54  c-7.62-13.64-15.26-22.76-24.79-37.06c-1.77-2.65-6.33-8.4-2.64-11.24c4.32-3.33,11.09-0.31,16.35,0.65  c2.14-5.76,5.83-10.38,10.58-13.48c4.8,0.2,12.2-2.2,14.27,5.26c6.99-15.05,19.25-3.7,20.36-11.39  c1.56-10.79,10.74-18.13,21.84-17.97c9.8,0.14,18.14,5.63,23.41,14.87C1118.08,513.79,1132.66,511.31,1143.75,519.45z" />
<path class="cls-14" d="M488.71,703.02c1.52,4.09-9.28,12.33-12.95,13.59c-37,10.48-81.21,8.89-119.21,5.29l-1.44-2.75l-29.48-0.04  c-42.89-0.06-79.88,18.8-114.09,40.09c-5.27,1.33-10.66,1.89-16.18,1.68c-33.23,1.01-70.04,0.83-103.95,0.3  c-7.51-0.12-14.42-0.53-21.55-1.97c-16.47-5.67-34.26-8.17-49.59-16.47l103.16-0.56c26.57-0.14,53.31,1.79,80.99,0.12l-34.15-37.94  c22.18-3.28,44.96-0.3,68.33,0.32c27.69,0.74,54.09-0.32,81.73-1.97c26.77-1.59,52.16-1.63,78.97-1.65l79.98-0.08  C482.92,700.97,486.16,701.07,488.71,703.02z" />
<path class="cls-16" d="M1098.07,830.81c-4.76,7.61-23.52,20.66-27.16,28.74c0.8,3.8-2.7,5.28-6.13,5.49l-50.91-1.01l-2.57-22.87  c1.11,0.01,1.69,1.07,2.51,1.03l2.55,1.55c1.17,11.94,15.9,10.46,21.6,2.43l2.93,0.31C1063.32,835.79,1070.23,828.36,1098.07,830.81  z" />
<path class="cls-14" d="M1040.88,846.49c-2.32,4.47-7.89,7.86-13.41,8.62c-4.6,0.63-8.24-1.29-10.89-3.9  c-2.4-2.38-3.28-5.51-2.78-9.01c0.4-0.02,1.04-0.26,1.4-0.09C1021.86,845.37,1035.93,841.62,1040.88,846.49z" />
<path class="cls-2" d="M160.79,802.39c-15.03,0.75-30.2-0.14-45.29-0.33c-1.09-5.13-14.94-11.94-17.23-21.06c0.99-0.53,2-1,3.05-1.3  c1.05-0.29,2.03-0.56,2.9-0.36c7.38,1.64,14.58,3.45,21.76,5.85c4.07,1.36,33.42,12.06,34.59,13.51  C161.34,799.65,161.11,801.12,160.79,802.39z" />
<path class="cls-12" d="M1190.9,350.2c1.02,12.71-0.57,25.51-0.82,38.23c-1.28,4.31-11.11,5.58-14.12,2.59  c-0.94-15.62-3.24-31.33-2.37-47.04C1179.95,345.29,1182.77,349.86,1190.9,350.2z" />
<path class="cls-13" d="M211.54,759.19c-11.7,7.28-20.75,18.93-32.92,25.55l-2.7,0.35c-13.35-7.93-28.15-12.72-44.41-14.37  c-11.57,2.28-23.12,4.86-34.66,7.74l-2.03-1.29c-8.07-5.09-15.56-14.73-24.95-17.97c-0.08-0.44,0.59-1.17,1.49-1.13  c21.57,0.96,42.43-0.02,64.14,0.02l58.9,0.11C200.53,758.21,206.46,757.06,211.54,759.19z" />
<path class="cls-4" d="M178.63,784.74c-2.77,8.34-12.72,11.4-17.83,17.65c-2.67-3.24-7.82-3.13-12.1-5.13  c-16.41-7.66-33.16-13.52-50.42-16.27c-1.8-0.33-2.93-2.38-3.44-3.83c47.34-13.13,25.48-10.02,63.16-3.96  C160.43,773.61,179.55,782.27,178.63,784.74z" />
<path class="cls-4" d="M1070.91,859.55l1.76,5.76c-2.67,0.14-5.47,1.25-7.9-0.27C1066.42,862.8,1068.27,860.57,1070.91,859.55z" />
<path class="cls-4" d="M1083.51,865.33c-2.12-0.52-4.54-0.02-6.69-0.02c0.06-1.74,2.11-1.56,3.35-1.56  C1081.43,863.73,1083.48,863.56,1083.51,865.33z" />
<path class="cls-13" d="M1190.08,388.44l-0.86,42.84c-3.09,2.65-6.3,5.5-10.52,5.43l-2.74-45.69  C1180.5,389.47,1185.38,389.33,1190.08,388.44z" />
<path class="cls-14" d="M984.18,434.94c3.55-0.93,11.7-0.45,13.63,2.96c3.85,0.4,4.93,3.16,1.75,5.67l2.88,1.14  c2.36,15.47,4.73,30.94,7.09,46.42l-2.35,2.34c-6.07-0.18-12.75,0.95-17.52,4.57c-1.04-0.08-1.81,0.87-2.47,1.48l-1.54,1.37  c-5.79,3.4-7.82,9.97-9.29,18.43c-8.28-3.65-18.19-5.1-26.7-0.69c-5.18,2.69-7.57,8.08-10.79,12.73  c-9.16-1.28-15.83,3.82-16.79,13.13c-5.36-1.76-9.03-0.58-12.65,0.16c-0.31,2.32-5.93,5.79-8.59,7.36c-1,0.59-2.15,0.83-3.29,1  c-1.82,3.87-6.35,4.69-13.61,2.44c-9.69,0.7-19.23,2.61-28.64,5.75c-9.82-1.13-19.69-1.22-29.62-0.28  c-8.65-3.08-17.37-5.23-26.15-6.45c-12.42,2.08-24.89,4.22-37.39,6.41c-16.55-1.69-33.1-3.11-49.64-4.26  c-9.05,1.5-17.92,3.65-26.61,6.45c-18.37-4.25-35.14-6.05-54.3-2.85c-15.51-3.56-30.66-3.5-45.46,0.17c-12.44,0.1-24.84-0.9-37.22-3  c-15.54,3.43-28.75,3.95-44.4,0.69c-4.6,0.71-7.97,0.04-10.1-2.03c-5.42,1.74-13.48-7-13.5-13.06c-2.27,0.67-3.43,0.7-5.66,0.1  c-1.01-0.27-16.28-8.01-17.02-8.62l-8.45-12.65c-12.47-6.69-13.66-13.17-3.57-19.43l6.13-8.23c9.28-5.86,17.58-13.15,24.91-21.86  c-5.55-1.89-10.2-4.6-13.94-8.13c-0.34-14.11,0.12-28.16,1.39-42.13c23.52-20.31,52.03-33.82,81.65-42.88  c-2.96-4.45-6.75-12.6,0.17-13.33c3.35-6.15,1.74-14.29-2.65-20.01c-0.47-2.15,0.38-4.48,3.33-5.26  c32.74-8.76,68.45-4.45,95.23,17.55c9.53,7.83,15.34,18.59,22.61,28.21c14.28,6.73,29.29,3.29,40.95,13.7  c-5.37,4.79-9.45,8.3-7.64,14.9c15.52,0.38,20.31,10.23,36.41,18.23c15.06,7.48,22.03-3.65,31.92-16.14  c3.7-4.67,9.79-6.3,14.55-9.31c5.75-3.64,11.4-5.23,18.08-6.4l17.08-2.97c-0.06,8.72,6.1,13.09,10.99,18.58  c4.53,5.09,6.97,9.49,14.28,11.63c5.63,1.65,11.14,0.86,16.19-2.16c5.3,6.72,13.04,7.88,20.68,2.92c3.06,7.95-1.29,12.88,4.81,12.81  c4.8-0.05,0.45-14.18,2.41-18.02c8.33,4.47,15.18,0.71,20.21-5.94c14.03,5.04,4.3,10.16,14.79,10.77c2.56,0.15,2.15-4.07,3.86-4.65  c5.46-1.86,11.67-0.78,17.54-2.03c1.54,6.84,4.82,9.38,9.89,12C966.87,441.91,971.69,436.51,984.18,434.94z" />
<path class="cls-14" d="M742.01,362.1c-2.46-8.75-3.61-10.66-8.37-18.99c-2.92,4.06-5.24,8.12-5.91,13.8  c-5.85-1.2-9.54,2.11-13.7,6.65c-2.58-4.19-3.9-7.83-6.81-11.48l-5.74,9.72c-5.44-1.68-6.11-6.83-8.6-11.03  c-2.89-4.88-7.53-10.39-8.27-15.85c-2.82-20.91-5.77-4.56-12.22-26.79l48.22,0.36l17.44,1.61l16.16-0.52  c8.14-0.26,15.79,0.32,24.05,0.99l16.01,1.29c-1.35,5.4-1.39,10.45-3.75,15.07c0.27-0.53-7.99,12.68-8.09,12.76  c-1.7,1.36-4.7-11.99-16.85-11.5c-6.21,0.25-11.44,4.38-14,10.61L742.01,362.1z" />
<path class="cls-15" d="M947.94,76.52c-2.89,12.07-5.44,24.51-10.22,35.97c-2.64-7.29-2.32-15.1-5.71-23.12l-9.94,42.71  c-1.01-0.39-1.39-1.44-1.99-2.21l-13.44-53.54L947.94,76.52z" />
<path class="cls-10" d="M995.34,421.91c5.26,0.88,6.79,13.28,2.47,15.99c-4.19,0.03-10.53,0.72-13.63-2.96  c-7.3-8.69-28.46-12.16-40.47-13.47c-1.35-1.88-1.23-5.76-3.16-6.01c-1.91-0.25-3.74-0.95-5.43-0.76  c2.51-6.16,20.14-2.03,25.64,0.33C975.72,413.93,983.61,427.33,995.34,421.91z" />
<path class="cls-12" d="M908.35,259.62c1.26-2.91-2.3-4.75-3.83-6.75c2.46-7.88,7.16-16.3,10.48-23.65c3.15,5.23,8.83,9.57,13.76,14.26  C924.16,258.17,919.62,248.12,908.35,259.62z" />
<path class="cls-3" d="M669.67,753.92c-8.86,22.78,1.19,47.5,9.97,70.33c4.2,10.92-1.96,25.02,5.23,35.78  c-9.07-0.3-12.7-3.04-19.7-5.38c-0.85,3.06,0.97,5.76,2.74,9.75c-38.01-4.03-71.76-37.38-88.06-71.61  c-0.65-1.37-1.25-2.27-2.26-2.57l-2.8-1.22c-6.5-25.78,1.76-60.84,16.9-82.79c-37.9-6.36-76.93,2.95-104.92,29.89  c-41.36,39.82-46.7,97.75-49.17,151.56l-2.8,1.63c-6.5,14.67-11.48,29.71-19.17,44.58c-14.97,28.96-35.02,54.14-60.85,73.32  c-1.81-4.77-2.39-8.92-4.56-13.07c-4.08,2.1-4.4,6.72-6.31,11.68c-15.36-11.11-27.92-24.96-39-41.43  c-2.94,4.59-0.94,9.75-1.37,14.68c-13.57-21.98-23.98-44.1-31.23-68.7c-20.07-68.05,2.8-142.16,54.3-189.87l27.13,0  c0.9,0,1.54-0.79,1.36-1.35l57.52,2.77c19.97,0.96,39-1.37,57.76-6.21c9.13-2.35,12.19-8.31,18.31-12.68  c8.06-5.74,15.63-13.69,24.25-18.5c18.72-10.44,39.97-14.36,61.35-10.45c19.91,3.65,42.17,9.39,60.1,3.66l2.47,2.16  c-0.83,14.37,10.32,27.54,25.34,24.86c-43.95-32.27,13.62-56.75,28.3-16.06c-13.06,17.31-19.21,36.77-18.24,58.4  C671.9,749.88,671.04,752.16,669.67,753.92z" />
<path class="cls-5" d="M577.6,790.22c2.92,31.06,16.93,50.72,17.38,57.77c0.74,0.99,1.44,1.99,1.96,3.09  c4.34,9.03-0.96,44.88-3.3,56.51c-14.69,73.12-59.47,117.63-114.44,159.44c-9.85,13.41-18.65,27.43-26.4,42.06l-2.98-1.46  c-3.8,1.33-4.82-0.62-1.55-3l-2.91-4.68c-0.08-6.9-0.42-13.51-1.02-19.85c-2.86,3.35-4.75,2.66-7.18-0.8  c-0.68-0.97-1.01-22.52-0.61-23.63l2.61-2.84c-0.33-12.78,3.26-25.22,4.41-39c-6.29,3.48-8.49,9.39-11.94,14.95l2.58-44.47l0.58-95  l1.24-17.53c1.68-23.76,3.05-46.95,9.79-69.66c21.38-72.05,74.76-110.33,150.77-98.27c-15.59,21.65-22.76,46.33-20.38,71.59  L577.6,790.22z" />
<path class="cls-16" d="M448.27,1104.63c0.06,1.11,0.94,2.15,1.55,3c1.69,1.21,2.53,1.82,2.53,1.82c2.57-3.46,5.79-5.64,7.89-0.62  c1.98,15.03,5.24,30.14,11.87,43.81c2.08-4.29,4.16-4.7,7.57-1.25c0.82,0.83,7.6,19.53,8.18,21.77l-1.83,2.73l-73.47,3.95  c-15.19-8.07-17.34-19.18-36.6-20.97c-6.18-0.57-12.25-1.69-17.22-5.67c2.52-10.92,3.7-21.13,7.09-30.71  c0.86-0.45,1.74-0.86,2.66-1.09c0.89-0.22,1.72-0.4,2.4-0.18c8.25,2.67,16.64,6,23.94,10.57c7.72-7.6,41.82-30.38,50.77-28.24  C446.51,1103.79,447.4,1104.19,448.27,1104.63z" />
<path class="cls-8" d="M439.16,1052.82l0.71,27.59c3.15-1.79,4.18-5.21,7.62-7.9c-0.08,11.5,0.23,21.7,0.77,32.12  c-19.46,5.5-36.54,16.73-53.2,29.58c-9.99-4.61-19.29-8.95-29.27-11.71l0.19-9.46c0.23-11.17,2.55-21.66,3.07-33.08  C393.72,1072.81,416.42,1062.91,439.16,1052.82z" />
<path class="cls-16" d="M266.5,1186.26c-11.61,0.06-23.54,1.4-34.78,4.27c-1.99-0.46-4.59-0.86-6.35-2.73  c-9.33-9.91-21.04-6.1-22.54-11.64c-0.51-1.89-0.14-4.07,1.14-5.8l36.9-49.39L266.5,1186.26z" />
<path class="cls-3" d="M575.93,1093.07l1.41,10.09c-4.15,19.92-5.43,39.52-3.84,58.78c5.06,2.71,7.59,4.07,7.59,4.07  c3.76-0.31,6.05,0.67,6.89,2.95c1.64,3.65,27.52,7.17,27.28,13.53c-5.72-0.67-9.64-3.69-15.31-2.07  c7.58,6.57,20.55,15.92,22.75,25.96c-12.42,2.26-0.17-4.74-17.79-17.82c-4.28-3.18-10.37-3.82-15.56-3.5  c8.06,7.29,15.23,13.51,18.27,22.64c-4.51,0.72-7.51,1.03-11.05,0.12c-1.05-14.64-14.95-23.57-28.53-20.83  c7.07,8.26,16.86,9.52,22.16,20.48c-5.39,1.84-10.98,1.16-16.85,1.55c-42.13,2.86-72.93,5.16-87.32-33.13l-9.39-24.99  c-3.15,2.59-2.05,5.33-4.46,8.93c-8.15-16.59-12.9-34.6-14.83-53.09l-6.38,10.28c-1.84-3.04-1.4-6.35-1.13-9.39  c2.44-0.58,3.2-3.16,4.06-5.7c2.79-8.34,8.37-14.59,13.41-21.66c3.88-5.44,6.19-12.12,11.46-16.43l35.31-28.94  c56.15-46.02,85.48-115.17,80.92-186.9c0.61-3.34,15.7,20.1,15.32,19.08c19.33,50.96,0.5,115.11-28.12,159.86L575.93,1093.07z" />
<path class="cls-16" d="M632.54,1165.31l-44.56,3.65c-5.68,0.46-12.43-0.4-16.63-5.45c-5.72-6.88,3.44-58.39,4.58-70.45l8.23,19.49  c3.27-4.01,0.99-8.4,4.91-11.77c2.43,13.54,6.67,25.37,13.14,36.45c2.51-2.95,1.53-5.75,3.26-8.4c4.23,8.22,6.94,16.34,12.71,22.87  l2.11-7.1C626.17,1151.01,629.12,1158.44,632.54,1165.31z" />
<path class="cls-3" d="M866.68,798.21c-13.01,19.87-34.9,7.17-55.01,16.02c0.52-0.83-0.29-1.51-1.45-1.43  c-23.94,1.72-34.97,7.65-55.7,19.21l0.15-15.99l-20.21-2.14c-12.37-1.31-23.77-9.38-31.41-18.53c-4.6-3.35-1.73-11.49,3.9-9.19  c6.35,7.54,14.42,14.91,24.76,15.26c-6.78-7.03-12.06-15.28-16.62-23.88c-2.61,0.71-3.92,1.07-3.92,1.07  c-11.89-8.64-14.27-26.71-13.97-40.86c-3.54,1.64-5.66,1.23-6.35-1.25c2.6-50.82,67.11-93.25,112.79-65.77  c-2.12,4.5-3.3,9.13-3.52,13.86c9.48,23.14,11.69,45.63,11.04,70.46c2.25,20.89,10.38,35.02,30.82,42.39  c11.07,3.99,12.34,3.6,22.1-0.35C865.06,796.7,865.97,797.3,866.68,798.21z" />
<path class="cls-5" d="M854.42,660.17l1.63,0.94c-1.81,12.13,5.37,19.03,21.57,20.71l2.18,1.41c3.19,3.12,2.77,7.74,4.12,11.91  c-0.83,2.42-1.72,5.44-3.82,6.91l-1.41,1.34c-5.96,0.03-11.91,0.77-17.86,2.2c-7.98,6.75-16.71,12.76-26.19,18.01  c-32.72,27.28-11.16,78.75,30.27,67.97l3.19,1.37c0.3,2.05-0.34,3.63-1.42,5.28l-10.17,5.25c-28.09-3.24-47.21-20.39-48.09-49.98  c-0.96-32.11,1.21-33.53-9.73-63.86c-2.32-6.44-2.03-11.68,3.23-18.15c-8.01-1.73-14.65-5.73-22.71-6.64  c-38.73-4.36-85.09,31.81-85.99,72.64c3.23-2.89,3.32-7.06,7.46-8.78c-2.32,17.41-0.43,34.46,10.69,48.23l2.75-7.13  c6.55,13.16,13.64,25.37,24.76,34.64c-14.03,1.34-25.77-5.39-34.17-17.41c-1.69,3.08-1.03,5.82-1.65,8.33  c-13.93-5.69-27.62-33.49-28.38-48.11c-2.58,3.43-1.48,6.61-3.24,9.53c-1.47-0.84-1.23-2.15-1.77-2.84  c-0.53-27.05,1.51-43.36,18.45-65.81c-3.75-14.71-29.45-24.11-37.07-13.85c-1.8,2.42-2.55,5.83-1.92,9.26  c2.18,11.7,11.15,20.34,23.29,20.17c-7.51,4.61-17.48,5.89-25.76,0.92c-9.07-5.45-13.69-16.65-12.25-26.87  c1.16-8.23,7.8-16.3,15.67-19.36c11.8-4.6,23.62-0.06,32.47,7.89c4.22,0.19,7.79-3.25,11.34-3.34l3.28-2.86l27.33-4.94l3.93,2.08  c24.8-3.58,52.27-9.41,73.93,7.02c3.85,2.92,9.81,3.18,14.58,2.37L854.42,660.17z" />
<path class="cls-14" d="M862.63,851.99c1.54,1.19,2.06,2.55,0.47,3.59l-13.02,6.66l89.21,0.4l2.5,2.69  c2.99,8.34,7.59,16.45,7.96,26.92l-135.33-2.22l-76.23-1.31l-17.49-0.85c8.4-6.04,14.52-15.33,22.34-22.72  c1.47,3.08,0.47,6.32,1.48,9.13c8.93-8.7,15.89-18.08,22.73-28.07l2.13,10.28c2.52-4.62,6.24-7.52,8.83-11.2  c1.04,0.66,2.29,1.15,4.15,1.25C809.57,848.01,836.5,847.53,862.63,851.99z" />
<path class="cls-1" d="M880.1,702.04c-0.43,7.36-4.27-2.19-8.48,6.8c-3.03,1.24-5.79-0.13-9.43-2.06c-1.7-0.73-1.88,3.37-1.51,5.45  c-7.27,1.08-10.66,6.93-14.56,11.15l0.52,3.52c-6.94,9.24-8.01,21.27-5.6,32.32l-2,3l3.3,1.39c4.19,9.05,12.19,20.94,23.33,20.42  l1.87,2.29c0.19,2.2,0.24,4.43,0.56,6.62c-9.27,5.24-19.37,4.19-29.62-0.5c-12.28-5.63-20.45-18.38-22.17-30.42  c-2.07-14.43,3.35-27.27,12.99-37.22c6.73-6.95,15.52-9.92,23.15-15.56C860.71,703.12,870.27,698.73,880.1,702.04z" />
<path class="cls-16" d="M901.18,844.95c2.11,1.67,3.16,2.5,3.16,2.5c4.24-3.25,7.72-4.02,10.44-2.29c5.83-0.44,11.62-1.29,17.38-2.56  l2.63,2.75c2.39,6.7,4.63,13.39,6.99,19.97l-100.22-0.45c3.48-5.48,19.29-8.55,21.07-12.89  C875.11,848.12,888.08,845.59,901.18,844.95z" />
<path class="cls-16" d="M885.55,744.91c0.81,5.35,0.92,11.96,2.62,17.09l-3.85,1.59c-12.48,0.39-25.02,0.66-37.61,0.82l-7.67-2.19  c-3.68-13.1-2.12-28.89,7.07-38.84c2.11,7.49,12.83,5.15,31.96,19.06C880.39,744.12,883.24,745.33,885.55,744.91z" />
<path class="cls-14" d="M888.17,761.99c3.24,6.7,6.97,13.15,9.48,21.14l-24.35-0.6c-3.92-0.1-4.44,2.28-5.76,3.77  c-12.25,3.87-25.75-14.31-28.5-24.09C855.33,760.95,871.85,761.1,888.17,761.99z" />
<path class="cls-6" d="M930.88,834.38c0.35,3.03-7.56,9.07-10.24,10.25c-2.04,0.9-3.64,1.46-5.86,0.53l-11.93,6.04  c-1.12-2.64-2.04-4.59-1.68-6.26c3-14,6.88-28.25,16.11-40.98C921.35,807.93,934.77,832.43,930.88,834.38z" />
<path class="cls-14" d="M930.88,834.38l3.91,10.98c-8.04-0.95-13.23,5.22-20.01-0.2C920.49,842.27,924.89,836.92,930.88,834.38z" />
<path class="cls-6" d="M925.58,797.79c-4.84,0.66-9.42,1-13.58-0.29c4.85-1.32,9.03,0.2,13.66-2.35  C926.99,795.29,926.93,797.3,925.58,797.79z" />
<path class="cls-7" d="M1008.43,431.2l1.4,2.7c0.11,0.4,0.02,0.85,0.07,1.26c3.96-0.14,3.84,2.42,0.44,3.84  c4.12,0.69,4.82,7.16,0.75,8.4c-3.41,0.01-10.03-0.64-11.53-3.82c-0.29-1.88-1.65-3.85-1.75-5.67c-0.29-5.4-0.54-10.9-2.47-15.99  c-0.42-1.1,0.08-2.83-0.13-4.06l-1.24-2.81c-0.61-2.07-1.78-4.11-4.3-5.37c-8.83-4.44-16.89-9.46-24.96-15.02  c-5.03-3.46-11.05-4.85-14.7-9.8c8.36,1.43,37.82,20.54,41.61,18.08c0.73-0.47,1.41-2.55,1.02-3.9  c-3.03-10.58-3.41-21.15-5.87-31.82c-3.11-13.52-22.75-32.52-24.92-48.04c9.45,7.07,12.41,17.54,21.21,25.99  c0.13-13.43-1.88-27.74-4.26-42.15c-0.73-4.42-2.16-8.62-0.51-12.29L1008.43,431.2z" />
<path class="cls-13" d="M1046.65,423.33l0.21,27.84l-1.26,1.37c-10.78-4.1-21.89-7.69-33.31-10.77l-1.95-2.78l-0.44-3.84  c8.45,0.97,9.77-7.69,14.55-12.1C1032.26,425.98,1039.71,426.1,1046.65,423.33z" />
<path class="cls-13" d="M1151.94,396.18l-0.67,51.29c-10.96,0.44-19.1,7.82-26.44,15.63l-2.78-0.49c-2.97-19.57-5.94-39.14-8.92-58.72  l2.41-1.96l2.29-2.71c10.47-1.9,20.95-3.78,31.45-5.65L1151.94,396.18z" />
<path class="cls-12" d="M1151.81,342.87l0.13,53.31c-11.52-0.13-25.27,6.02-36.4,5.75c-5.89-2.61-7.55-17.52-2.65-21.59l1.28-2.77  c11.59-0.94,16.39-10.77,12.89-21.39l2.05-2.34C1138.42,349.75,1137.02,339.88,1151.81,342.87z" />
<path class="cls-7" d="M1107.52,359.03c0.41,0.03,0.84,0.2,1.24,0.18c4.38,4.03,6.24,15.62,4.13,21.14  c-0.37,7.21,0.32,14.75,2.65,21.59l9.29,61.17c-3.69,3.92-9.64,3.41-18.71,5.45l-2.11-2.59c-2.38-17.48-4.39-35.13-6.05-52.93  l1.68-5.95c-4.22-0.04-3.62-8.02-1.3-10.62l-2.55-3.69c-0.15-9.49-0.87-18.95-2.16-28.37l2.26-3.96  C1099.69,359.41,1103.57,358.71,1107.52,359.03z" />
<path class="cls-11" d="M1112.89,380.34c-2.47-6.69-3.39-14.04-4.13-21.14c6.96-0.46,13.9-2.53,20.36-5.36  c1.74,4.88,2.57,10.84,0.42,16.25C1126.76,377.09,1119.57,380.11,1112.89,380.34z" />
<path class="cls-13" d="M1099.63,407.08c3.89,20.2,3.88,41.01,6.49,61.47c-3.91,0.88-7.13,5.63-11.83,5.74  c-17.77,0.4-18.92,5.1-30.86,13.12l-6.31-74.6c-0.01-0.62,0.03-1.12,0.24-1.21c6.53-2.88,32.56-7.02,39.98-6.9L1099.63,407.08z" />
<path class="cls-11" d="M1094.32,359.02c0.54,0.02,1.4,0.9,1.56,1.4c1.2,11.45,3.1,24.63,2.45,36.03c1.03,4.62-6.51,6.87-10.42,7.34  c-6.02,0.72-10.92-0.56-16.41-2.75c-2.23,6.11-8.31,12.45-14.28,9.01l-5.57-71.38c2.7-0.06,5.24,0.31,8.89,0.93  C1067.21,352.21,1080.66,358.42,1094.32,359.02z" />
<path class="cls-14" d="M1046.86,451.17c0.1,13.01,1.62,26.1,1.04,39.15c-6.75,3.8-13.97,6.94-20.76,11.64  c-2.09,1.45-3.83-2.81-4.13-3.61l-2.28-2.06c-3.61-14.33-7.16-28.8-10.65-43.39l1-5.51c0.13-2.82-0.43-5.6-0.75-8.4  C1017.54,438.65,1039.78,447.69,1046.86,451.17z" />
<path class="cls-12" d="M1099.63,407.08l-42.51,5.72l0.1-2.75c9.69-0.65,10.28-9.26,12.94-11.44c2.78-2.29,12.41,8.86,28.16-2.15  C1100.35,399.22,1099.03,403.96,1099.63,407.08z" />
<path class="cls-13" d="M546.54,365.82c-2.5,4.59-0.78,9.35,4.05,12.75c-1.53,4.59-5.86,2.64-8.35,4.03c-9.35,5.24-18.93,8-29.04,11.29  c-4.01,1.31-42.18,24.15-46.54,29.82l-0.94,40.26l16.41,7.54c-4.78,4.37-9.71,8.42-13.15,13.13c-3.88,5.32-8.91,7.23-13.94,10.75  c-3.67,2.57-5.04,8.71-9.99,11.3c-1.77,0.92-4.59,5.25-2.68,6.64c3.85,2.8,7.62,4.08,10.36,7.88c13.41,18.6-3.04,4.29,24.56,20.02  c3.03-0.8,4.34-2.87,7.66-2.79c-4.68,9.07,3.45,11.67,9.46,17.61c4.12,1.45,2,3.88-1.69,5.34l-63.47,0.29l-0.9,2.06l-54.71,1.94  c15.93,8.01,30.45,4.71,42.83,20.26l-116.17-0.35c-1.12,0.04-1.9-0.44-2.62-1.23c-1.75-1.92-11.55-15.75-11.5-17.32  c0.07-2.29,0.56-3.46,2.66-4.56c11.76-4.45,23.18-9.45,34.24-15c3.96-3.5,9.44-5.74,13.23-10.52c13.24-16.7,21.15-10.3,19.36-22.19  c5.33-7.01,14.2-9.79,22.56-13.64c4.91-2.26,13.93-10,9.91-15.6c-6.49-9.07-18.71-10.85-27.49-15.66c-1.01-0.4-2.51-1.04-2.48-1.85  c0.29-7.12,3.62-37.66,5.77-41.92l3.33-1.5c0.94-0.27,2.22-1.28,3.06-0.76c0.91,0.56,1.03,1.59,1.44,3.26  c1.83,0.31,3.44-2.47,4.94-2.84l9.09,4.49c2.39,0.43,2.78,2.16,1.19,5.17l6.9,3.2c4.51,0.52,7.55,2.19,9.12,5  c2.97-1.39,8.89-0.06,9.59,3.56l2.61-2.06l14.14,4.68l3.24-26.14c-3.76-1.91-4.6-3.85-2.53-5.8c6.99-0.79,4.65-8.87,10.79-13.7  c1.24-0.98,3.93,0.42,5.7-0.12c4.47-1.39,2.25-7.77,7.57-8.87l-12.23,21.61c2.9,2.01,7.81-0.25,9.49-2.72  c6.18-9.08,15.03-11.5,24.13-16.17C493.31,387.24,529.9,361.06,546.54,365.82z" />
<path class="cls-9" d="M169.19,472.82c4.2,1.67,5.09,6.03,2.68,13.08c9.42,4.88,8.8,14.87,3.69,22.7  c14.5-0.02,27.66,8.11,30.57,22.95c12.82-1.39,17.19,7.36,21.1,17.49c6.56,0.28,14.32,5.86,6.76,10.72  c-16.92-2.05-33.56-1.39-49.93,1.99c-6.98,4.81-13.77,6.83-20.38,6.05c-8.4-5.67-8.05-18.3-33.03-25.69c-1.74-1-2.95-3.55-5.69-2.85  c-13.65-5.21-26.98-11.64-39.98-19.27l-1.71-3.37l14.71-82.71c11.3-10.28,34.15-7.35,43.35,8.82c2.66,4.67,2.26,9.61,0.88,15.16  c7.71-1.49,15.01-0.17,19.7,5.89C164.26,466.83,167.72,469.68,169.19,472.82z" />
<path class="cls-11" d="M305.6,550.21l-1.6,3.21c-13.49,4.96-27.67,7.68-42.53,8.16c-6.74,1.96-12.98,2.22-18.7,0.77l-0.71,3.02  c-8.93,5.98-28.6,7.84-39.3,6.49c-1.42,3.4-2.9,3.36-4.06-0.2c-0.77-1.35-1.83-1.75-3.17-1.22c-1.08,3.6-4.15,3.76-5.22-0.04  c-6.3-2.85-14.17-1.19-21.31,0c-3.35,0.56-3.79-1.57-5.32-2.6c10.96-1.85,15.37-10.25,30.86-10.76c9.26-0.31,18.4-2.34,27.75-0.75  c4.36,0.74,8.64,1.72,12.78,0.46c-1.48-5.36-6.99-4.26-9.74-5.53c-2.86-4.87-3.62-10.99-8.69-14.8c-3.79-2.84-8.07-2.57-12.61-0.76  c-1.71-18.15-16.78-26.11-34.42-24.09c2.49-4.04,5.69-6.61,6.64-11.13c1.28-6.09-1.43-11.28-7.6-12.82  c1.4-5.21,2.51-10.55,0.53-14.81c11.68-0.26,21.75,7.78,23.58,20.09c4.89-3.89,10.27-0.75,14.82-1.76  c6.59-1.46,11.62-1.36,15.35,6.24c3.57-2.71,6.89-3.78,10.01-2.14c3.04,1.6,4.54,4.56,5.23,8.8c7.53-4.77,14.22-4.25,20.95-0.53  c6.02,3.33,7.18,11.02,8.44,17.59c10.18,0.81,18.93,5.2,19.46,16.13C287.48,546.49,308.42,540.52,305.6,550.21z" />
<path class="cls-12" d="M323.09,547.46c-2.74,6.37-9.88,7.77-16.78,10.64l-17.81,7.41c1,7.56,12.83,13.19,11.8,20.07l-43.8,0.98  c-1.16,0.26-2-0.14-2.88-0.84c-0.53-0.42-7.42-7.19-7.95-7.81c-3.43-3.99-8.45-12.21-2.92-15.55c12.75-3.35,26.06-4.29,39.78-5.68  c8.39-0.85,15.56-4.6,23.06-6.46C311.34,548.78,317.26,547.42,323.09,547.46z" />
<path class="cls-14" d="M430.07,416.35c0.09,2.42,5.16,2.62,5.19,4.11c0.2,10.6-2.79,20.61-3.51,31.3c-7.69-1.15-12.9-4.6-19.14-6.09  l-2.68-1.14c-0.32-1.7-0.33-16.04,0.03-16.79c0.46-0.97,1.64-1.43,2.68-1.82l7.5-7.23c1.8-1.73,2.75-3.81,5.18-3.66  C426.92,415.13,428.64,415.37,430.07,416.35z" />
<path class="cls-7" d="M367.29,424.58c-1.69,4.52-2.41,9.19-3.05,14.63l-3.57,30.64c-1.71-0.94-4.44,0.14-5.55-1.9  c-0.92-1.7-1.94-3.43-1.43-5.85c5.66-26.85,6.31-58.1,14.92-86.63c2.07,13.48-2.57,25.3-2.56,38.45  C366.05,417.39,368.39,421.62,367.29,424.58z" />
<path class="cls-7" d="M322.39,449.6c-0.24,3.48-4.5,1.38-5.9,0.78c-2.31-0.99-3.33-4.04-2.83-7.03c2.88-17.35,4.16-34.21,6.11-51.51  c0.51-4.49,2.59-9,7.32-10.19L322.39,449.6z" />
<path class="cls-7" d="M241.64,412.09c-2.52-0.77-7.78-1.35-8.02-3.66c0.09-10.53,2.7-20.11,3.85-30.46c2.89-0.13,4.73,0.69,7.79,1.75  L241.64,412.09z" />
<path class="cls-14" d="M404.54,427.42c3.57,2.33,1.87,12.62-1.53,14.69c-6.59-1.06-12.67-2.88-17.74-6.4  c-1.9-1.32,0.34-5.51,0.54-6.98l9.34-2.98C398.15,424.8,401.69,428.11,404.54,427.42z" />
<path class="cls-7" d="M264.08,421.49c-0.26,2.46-6.77,0.37-6.56-1.35l4.58-37.83c3.43,1.42,4.91,3.87,4.61,7.42  C265.09,400.11,265.3,409.85,264.08,421.49z" />
<path class="cls-12" d="M412.64,425.91l-0.04,19.76c-3.97-0.95-7.7-0.55-9.59-3.56c-0.54-4.96,0.79-9.8,1.53-14.69  C407.72,426.66,410.44,426.06,412.64,425.91z" />
<path class="cls-3" d="M93.74,257.23c-1.5-0.3-3.03-0.36-4.54-0.12c-1.46-8.4-4.41-16.43-4.5-25.85  C89.74,239.9,90.27,248.97,93.74,257.23z" />
<path class="cls-12" d="M347.28,661.54l5.89,0.1l25.57,14.7l2.11,3.8c0.42,0.49,0.78,0.82,0.84,1.27c0.2,1.43-1.02,1.62-2.5,1.62  l-58.9,0.1c-1.56-2.82-5.67-1.83-8.75-3.45l-68.96-36.23c2.7-1.42,4.91-1.26,5.22-3.48c18.47-7.64,38.61-8.68,57.33,0.62  L347.28,661.54z" />
<path class="cls-12" d="M195.54,570.45c1.33-0.92,2.67-0.21,3.17,1.22c1.22,0.13,2.91-0.19,4.06,0.2c12.68,1.26,25.16,4.56,37.45,9.89  l15.7,7.09l1.2,2.83c5.43,7.09,17.64,8.07,23.31,20.1l-81.95,0.19c-2.3,0.01-4.36,0.09-5.36,1.49c-1.53-0.67-5.68-0.8-4.99-3.51  c0.41-1.59,2.58-2.36,2.22-3.7c-0.74-2.74-10.95-10.02,4.39-26.81c-2.52-3.24-4.72-5.88-4.42-9.02  C191.75,571.06,194.07,569.69,195.54,570.45z" />
<path class="cls-16" d="M468.91,677.97c-2.29,1.34-5.49,0.83-8.54,0.4c-18.85-2.67-36.89-1.91-55.69,0.59  c-5.42,0.72-20.64-6.09-23.81,1.18c-11.93-4.66-22.26-12.97-33.58-18.6c20.3-8.25,39.64-7.48,55.21,10.6  c2.96,0.63,7.22-1.42,9.97-2.58C431.71,661.46,454.45,663.57,468.91,677.97z" />
<path class="cls-7" d="M124.96,539.28c-6.93,1.78-34.92-9.71-43.99-10.49c0.97-3.78,1.63-8.38,2.3-12.16  c13.65,3.98,24.72,14.78,40.74,21.08C125.01,538.11,125.9,538.56,124.96,539.28z" />
<path class="cls-13" d="M909.44,544.64c-0.39,0.54,0.47,1.87,1.22,1.76c11.27-1.67,18.01,5.42,24.87,12.84  c3.88,4.2,8.93,6.84,12.52,11.78c1.66,2.29,6.49,2.16,6.46,6.24c-0.02,2.63-1.88,5.2-1.36,7.65c-1.79-1.8-3.39-4.21-5.77-3.79  c-2.49,0.44-5.74,1.69-7.15,4.49c-6.05,12.05,4.41,24.17,7.67,36.28c2.11,7.85-8.04,6.17-7.59,11.6l-84.41,0.34  c-23.5,0.09-45.98,0.01-68.55-2.1c-2.1-0.85-2.5-1.78-1.54-3.55l-93.39-1.56l-1.58-2.71c-3.99-5.07,4.58-12.82,8.89-16.2  c5.27-4.13,15.3-9.77,22.04-7.75c10.02-4.07,20.34-8.62,30.31-13.83c24.92-13.03,39.15,0.66,62.58,4.94  c15.89-1.05,39.29-16.49,56.86-12.17c2.27-3.36,2.45-6.81,3.21-9.48c-1.94-3.43,2.75-7.14,5.68-8.88c4.87-2.89,8.11-4.06,13.78-3.45  c0.37-2.27,1.49-3.63,3.36-4.09C899.07,547.53,904.5,545.65,909.44,544.64z" />
<path class="cls-16" d="M721.79,599.96l-10.33,4.19c-9.44,3.83-17.52,10.58-20.6,19.76l-1.26,2.6c-57.49-1.74-114.82-1.64-171.97,0.31  l-2.03-2.6l-110.91-0.27c-27.87-0.07-54.61,2.1-83.43-0.7c11.22-10.31,25.89-11.09,39.2-11.23c22.03-0.22,25.1-18.93,57.63-6.71  c6.07,2.42,12.22,4.56,18.46,6.43c5.87-0.01,11.72-0.51,17.55-1.49c4.94-1,9.7-3.45,14.47-6.27c16.37-9.69,36.22-8.02,50.01,5.7  c6.2-0.46,11.24-3.84,16.9-3.48c4.5-1.87,10.21-2.26,17.14-1.18c3.69-2.5,7.54-4.6,11.55-6.31c11.96-2.1,23.37-1.74,33.2,7.22  c7.28-2.46,16.26,0.56,22.8-0.52c6.24,1.02,11.74,4,16.5,8.95c7.6-5.48,15.62-8.42,24.07-8.83c7.67,1.54,14.64,1.27,20.91-0.81  C692.72,596.5,710.5,591.02,721.79,599.96z" />
<path class="cls-15" d="M897.57,553c-0.47,1.72,0.3,3.93-0.76,5.24c-4.07,5.03-7.7-4.83-22.06,11.18l-214.27,1.94  c-48.92,0.44-95.89,0.18-144.56-1.83l-80.53-3.33c-3-0.12-5.49-0.18-7.04-2.48c-0.65-1.54-2.82-1.71-3.74-4.72l68.25-0.27  c1.17,0,1.52-2.57,1.55-2.7c10.67-3.12,29.57,4.15,39.01,1.31c27.23-8.17,33.95,5.65,58.08-0.86c20.89-5.64,30.05,2.72,46.12,0.74  c11.37-1.4,22.07-2.76,33.37,0.03c5.92,1.46,13.76,4.81,19.92,2.09c33.89-14.98,54.89,6.06,88.29-3.95  c37.47-11.23,32.79,7.72,60.63,1.97c6-1.24,12.3,2.46,18.18,0.66c10.28-3.15,20.12-6.82,31.03-4.65  C892.14,553.99,895.02,554.06,897.57,553z" />
<path class="cls-15" d="M690.86,623.91l98.01,1.64c0.59,2.74-1.05,4.27-1.51,6.18c-2.06-0.19-4.38,1.15-6.96,1.2l-63.29,1.1  c-33.41,0.58-66.14-0.77-99.55-1.63l-34.95-0.9l-98.83-0.98c9.11-6.02,18.76,0.16,28-3.25c1.43,0.54,2.84,0.45,3.52-0.32  c0.55-0.63,0.21-1.93,0.31-2.73l37.8-1.6l128.2,0.63L690.86,623.91z" />
<path class="cls-10" d="M242.77,562.36c0.06,17.94,12.48,14.08,13.75,24.2c0.21,1.7,0.16,3.45,0.6,5.13  c-6.59-0.81-12.02-5.46-18.76-7.75l-35.59-12.07c4.49-1.09,26.86-4.33,29.55-5.28C236.31,565.17,239.24,563.28,242.77,562.36z" />
<path class="cls-2" d="M879.79,683.23c-0.57,1.41-3.05,1.43-4.82,0.86l-11.3-3.63c-4.35-1.4-8.02-4.4-9.46-7.32  c-2.26-4.58-0.57-8.88,0.2-12.97c1.03-0.18,22.54-8.86,24.86,0.87c0.24,0.99-2.51,2.43-1.66,3.72c0.8,1.21,2.61,0.92,2.96,1.74  c0.3,0.7,0.21,1.48-0.3,1.68c-0.66,0.26-1.86,0.34-2.76,0.82l2.16,5.99C876.94,677.63,877.59,681.07,879.79,683.23z" />
<path class="cls-15" d="M681.65,604.74c0.6,9.86-20.95-0.42-31.54,5.37l-13.68,7.48l-9.99-7.86c-2.18-1.71-5.56-1.73-6.26-4.31  C642.63,601.72,658.6,601.32,681.65,604.74z" />
<path class="cls-1" d="M728.43,657.2c-11.61,1.68-22.86,5.41-34.54,5.72c2.23-7.43,8.08-13.5,15.6-14.19  C717.08,648.03,725.38,650.31,728.43,657.2z" />
<path class="cls-15" d="M454.1,610.26c-10.05,8.4-28.23,3.9-36-4.94C426.99,603.98,445.55,605.83,454.1,610.26z" />
<path class="cls-15" d="M564.18,598.72c-10.53,14.14-16.55,8.26-28.7,7.49C534.99,598.42,568.24,598.01,564.18,598.72z" />
<path class="cls-12" d="M1011.09,447.4c5.75,16.39,8.12,33.96,11.93,50.96c-5.32-0.75-10.39-4.72-15.83-4.89l-7.63-49.89  C1002.37,442.83,1009.78,443.68,1011.09,447.4z" />
<path class="cls-6" d="M845.75,786.53c-11.09-0.47-20.52-9.39-22.9-20.34C833.63,765.63,843.81,773.45,845.75,786.53z" />
<path class="cls-14" d="M458.87,461.39c-7.49-1.51-13.02-3.8-19.56-6.18l1.89-32.42c3.99,7.95,10.7,12.11,20.64,9.38L458.87,461.39z" />
<g>
</g>
<g>
</g>
<g>
</g>
<g>
</g>
<g>
</g>
<g>
</g>
<g>
</g>
<g>
</g>
<g>
</g>
<g>
</g>
<g>
</g>
<g>
</g>
<g>
</g>
<g>
</g>
<g>
</g>
</svg>