<?xml version="1.0" encoding="iso-8859-1"?>
<!-- Generator: Adobe Illustrator 30.2.1, SVG Export Plug-In . SVG Version: 9.03 Build 0)  -->
<svg version="1.1" id="Layer_1" xmlns="http://www.w3.org/2000/svg" xmlns:xlink="http://www.w3.org/1999/xlink" x="0px" y="0px"
	 viewBox="0 0 1200 1543" style="enable-background:new 0 0 1200 1543;" xml:space="preserve">
<style type="text/css">
	.st0{fill:#F35578;}
	.st1{fill:#F7F2EF;}
	.st2{fill:#189E7F;}
	.st3{fill:#F28D4B;}
	.st4{fill:#F4BB73;}
	.st5{fill:#1EB3C2;}
	.st6{fill:#F37C64;}
	.st7{fill:#45C0CB;}
	.st8{fill:#F3D1AE;}
	.st9{fill:#04655D;}
	.st10{fill:#AE1B5A;}
	.st11{fill:#26B1B2;}
	.st12{fill:#974942;}
	.st13{fill:#7A1A1C;}
	.st14{fill:#F09F5F;}
	.st15{fill:#C38649;}
</style>
<path class="st0" d="M0,119.2V0h1200v160.81c-4.5,1.43-6.76,2.14-6.76,2.14c-41.32-5.89-82.37-6.87-123.14-2.92
	c14.88,3.09,29.83,5.93,44.85,8.52c1.86,0.38,4.67,1.55,4.53,3.01c-0.8,8.48-24.1,8.05-30.64,6.7l-6.24,2.63
	c-44.39-0.38-86.97,12.46-124.29,36.48c-5.41,2.36-4.89-0.73-3.31-6.3c1.19-4.2,13.61-20.33,17.45-24.14l5.07-1.89l-0.36-3.83
	c3.04-6.22,9.43-16.3,15.43-19.23l-1.22-2.85l27.58-37.76l-34.46-3.29c-6.1-4.1-1.08-6.94,4.24-9.19
	c16.81-5.4,33.58-10.86,50.31-16.39l38.55-40.7c-41.82,5.57-80.93,23.96-114.16,49.59c-39.35,30.35-65.3,87.8-75.91,135.31
	c-2.83,8.35-3.79,7.92-8.5,1.21C840.87,154.11,742.1,110.6,653.27,126.2c24.07,14.59,49.15,26.72,75.22,36.37
	c13.54,2.56,26.8,6.08,39.79,10.54c5.01,1.96,10.02,4.01,5.59,9.05l-29.96,5.09l33.37,22.08c18.69,10.14,39.2,16.93,61.53,20.38
	c2.59,1.63,1.99,3.37,0.73,5.82c-1.04,2.02-39.87,4.27-45.2,2.73l-5.96,1.39c-65.95-13.47-133.08,12.55-182.83,55.72
	c-3.3,2.86-23.75,21.46-21.75,22.84c1.77,1.22,38.02-1.42,43.02-2.69c5.7-1.45,10.46-2.66,14.73-7.12
	c10.09-10.61,20.76-20.82,32-30.63c3.68-1.06,3.91,1.04,3.7,4.78c-5,9.88-10.49,19.49-16.48,28.84c17.47,0.04,34.65-1.11,51.53-3.44
	c13.82-9.62,26.9-20.59,39.23-32.9c2.92-1.09,3.82,0.74,4.7,3.5l-12.54,24.99l80.24-6.18c2.51,2.95,3.49,4.28-0.71,6.12
	c-54.41,17.81-108.61,50.95-133.54,104.07l-4.29,2.22c-6.7,0.67-10.05,1.01-10.05,1.01c-92.87-18.28-188.89-35.82-281.01-28.88
	c-4.65,2.24-9.39-0.84-5.8-5.41c0.82-2.96,1.24-4.45,1.24-4.45c-7.02-0.21-10.15-2.29-9.38-6.25c-0.76-3.06,1.17-4.69,5.78-4.88
	c7.71,0.96,15.38,1.41,23,1.35c3.98-5.46,8.57-9.27,13.76-11.43l2.36-5c10.31-6.54,19.62-13.77,27.92-21.69l-30.79-15.27
	c-2.03-4.24-1.74-6.11,3.37-6.04c19.41,0.04,38.62,0.15,57.61,0.33c6.72-1.2,50.01-24.71,51.38-27.28c0.24-0.46-0.02-1.05-0.6-1.3
	c-8.53-3.73-29.16-4.86-39.22-5.15c-57.92-1.71-114.54,22.69-153.34,65.67l-5.75,2.5l-3.83,2.07c-15.9-2.54-31.76-5.31-47.56-8.33
	l-2.98-2.93l-4.61-2.91c-32.46-63.69-100.58-111.64-172.28-118.08c-0.96-0.09-1.71,0.03-1.65,0.09
	c12.28,13.44,25.16,26.5,38.41,38.38c18.63,6.43,37.3,13.45,56.01,21.07c5.48,3.31,4.69,4.83-1.2,6.49
	c-12.88-1.95-25.55-2.55-38.02-1.81l10.42,11.47c7.78,14.31,18.18,25.07,31.19,32.29l1.26,3.5c3.12,2.54-0.42,10.33-4.13,10.66
	l-5.5,1.09c-60.05-5.36-120.4-4.75-180.57-0.5c0,0-3.6-0.67-10.8-2.02V139.29c0.04-1.07,0.32-2.69,1.06-2.76
	c67.1-6.6,140.42-10.83,208.72,0.24l4.61,2.48c-2,2.18-3.01,3.26-3.01,3.26l-23.56,1.03c-23.97,2.44-43.77,21.94-43.5,46.74
	l-1.51,1.29c157.67,1.18,313.61,1.68,467.83,1.53c-30.77-5.69-61.81-9.59-93.12-11.68c-23.54-2.23-44.82-6.15-63.79-18.93
	c-10.88-4.68-16.4-3.44-27.61,0.05c-6.42-14.82-15.02-26-31.7-29.32c-12.69-2.53-22.65,0.24-33.84,6.42
	c-2.19,0.93-3.6,0.16-4.3-2.18c-11.39-62.05-86.27-86.16-125.86-34.18l-4.33,1.4l-2.33,2.12c-37.2-5.12-74.84-9.79-112.9-14.02
	c-20.51-1.83-40.78-1.4-60.8,1.28c16.87,3.71,33.53,8.18,49.96,13.43c10.82,2.76,14.5,6.38,11.04,10.84l-109.35,3.5L0,119.2z"/>
<path class="st1" d="M35.5,1096.6l1.01,5.46c-6.91,50.77-9.9,101.74-8.99,152.91c-0.02,3.63-1.05,7.16-2.15,10.6
	c5.41,6.34,11.58,8.7,19.73,9.76c10.96,1.42,22.05,0.78,33.04-0.05c25.92-1.96,54.05-5.4,79.54-9.91
	c-11.79-8.83-26.83-11.9-41.26-9.58l-3.21-2.1c-0.99-2.11-1.93-4.24-2.68-6.44c-0.74-2.18-1.43-4.35-1.75-6.57
	c-5.81-41.3-7.97-85.97-7.23-127.69c0.04-2.24,0.49-4.47,0.98-6.72c0.49-2.27,1.17-4.49,1.91-6.7c0.95-0.59,1.93-1.14,2.96-1.51
	c0.99-0.35,1.96-0.64,2.9-0.57c10.32,0.84,21.46,3.65,31.52,6.29c17.82,4.68,34.99,11.22,52.17,17.84
	c18.54,7.14,36.84,15.2,54.92,23.27l4.31,4.2c1.55,0.61,3.07,1.26,4.49,2.09c1.4,0.82,2.76,1.65,3.83,2.75
	c11.67,12.06,23.16,25.51,33.61,38.65c0.95,1.2,1.6,2.64,2.23,4.13c0.64,1.5,1.11,3.08,1.52,4.69l12.1,10.05
	c16.69,17.65,34.18,34.44,52.46,50.38l1.9,3.85c15.04,10.18,30.29,19.98,45.75,29.42l2.85,4.24l-1.31,3.05
	c-38.72,4.65-77.26,10.9-115.62,18.77c-4.01,0.8-26.27,7.6-22.9,13.4c3.93,6.75,22.63,13.31,30.15,15.4
	c58.27,16.21,119.11,29.7,179.4,33.84c3.44-2.02,6.08-2.21,7.93-0.57c6.91,10.92,12.9,22.6,17.97,35.04
	c1.51,4.45,2.49,9.48-0.63,13.36l0.07,2.95l-60.85,29.9c-3.26,2.25-5.34,5.56-6.22,9.94c8.69,3.42,18.1,4.23,28.22,2.43l36.09-4.1
	c12.62-2.31,20.14,1.39,22.58,11.09c3.9,17.98,9.68,34.95,17.33,50.9c3.09,2.27,4.97,4.51,5.61,6.72c1.17,0.4,1.15,0.87,0,1.41H0
	v-441.96c0.15-1.07,0.41-2.67,1.2-2.84c6.53-1.43,19.79-3.03,26.45-3.19C31.56,1093.56,34.17,1094.14,35.5,1096.6z"/>
<path class="st1" d="M1145.16,1364.96l2.87-1.46c14.67,7.13,33.84,11.31,48.72,2.75l3.25,0.95v175.66H557.88
	c0.43-2.04,1.82-4.11,4.16-6.19c7.02-15.08,14.26-30,21.73-44.77c7.16-5.55,15.83-7.64,26-6.28c16.17,1.86,32.31,3.52,48.43,4.99
	c5.36,0.53,8.2-1.27,8.54-5.4c-3.75,0.67-3.96-1.71-1.08-3.78l-4.23-0.87c-15.74-12.72-32.05-24.8-48.93-36.24l-0.77-4.41
	l-2.91-2.73c1.63-10.9,6.72-20.69,15.26-29.37c-3.61-3.19,4.88-11.35,9.15-10.86l7.5-1.06c82.85,5.73,166.16,5.69,249.06,2.72
	c23.14-0.83,45.57-8.45,64.09-21.86c18.41-16.48,38.93-28.21,61.56-35.19l3.8,1.97c0.68-0.81,1.39-1.57,2.21-2.19
	c10.25-7.72,59.88,0.81,73.65,5.04c0,0,16.47,5.06,49.4,15.19L1145.16,1364.96z"/>
<path class="st2" d="M281.48,328.39c1.59,0.76,3.11,1.64,4.41,2.83c3.08,2.82,7.89,22.44,9.16,28.04
	c3.37,14.84,6.18,31.59,3.61,46.54l1.44,4.15c-2.7,14.96-5.35,29.84-7.96,44.64c5.77,1.72,10.85,5.4,15.23,11.02
	c6.7,9.13,13.76,17.92,21.2,26.36l0.06,3.62l22.74,39.92l-1.57,2.68c1.07,0.52,2.1,1.08,3.02,1.8c0.89,0.69,1.71,1.39,2.2,2.26
	c14.63,25.91,24.58,60.98,21.35,90.38c1.21,4.63,1.17,8.5-0.12,11.6l2.34,4.51c0.21,5.4-1.72,28.37-4.2,31.15
	c-0.62,0.7-1.37,1.27-2.16,1.82c0.5,0.96,0.94,1.94,1.21,2.96c2.83,10.7-16.72,52.03-23.47,62.96
	c-3.12,5.06-20.06,29.93-24.04,27.79c-4.46-2.4-8.13-31.76-8.83-38.9c-0.85-8.6-0.15-17.06,3.25-24.99l14.74-30.86
	c-7.11,6.68-14.53,12.85-22.27,18.52c-0.8,0.18-1.56,0.26-2.14-0.02c-2.63-1.26-4.96-15.17-2.18-17.6l-3.12-2.34
	c-2.45-7.89-8.35-29.35-7.33-36.85c0.49-3.58,1.57-9.26,5.94-7.56l0.66-5.19c13.98-18.39,14.29-21.85,0.93-10.38
	c-4.51,3.75-8.15,4.43-10.93,2.03l-2.95-2.03c-5.13-14.82-7.07-29.39-5.83-43.7l16.51-24.97c-5.58,6.17-11.9,9.89-18.95,11.16
	c-3.06-9.16-7.96-35.3-4.33-43.31c0.47-1.04,1.12-2.01,1.81-2.95l-2.66-1.6c-1.08-13.17-0.37-31.44,3.22-43.97
	c-2.33-2.15-2.38-5.47-0.13-9.96c-1.59,2.67-3.45,3.41-5.59,2.22c-10.43,8.98-21.04,17.83-31.85,26.56l-4.39,0.12
	c0.65,0.81,1.45,2.22,0.96,2.66c-12.58,11.22-35.44,30.39-49.54,38.6c-4.47,2.6-19.97,11.42-21.99,4.59
	c1.53-7.12,2.91-14.29,4.14-21.51c-6.96,13.44-14.35,26.62-22.17,39.54c-16.53,10.65-33.95,20.14-52.26,28.47
	c-2.77,1.04-4.08-0.53-5.22-3.06l0.75-20.06c-5.5,12.59-11.73,24.71-18.68,36.37l-4.76,2.83l-18.66,2.56
	c0.21,1.03,0.38,2.64-0.31,2.92c-3.67,1.51-31.39,11.32-33.06,10.81c-5.11-1.57-5.23-9.66-0.01-10.8c-0.25-1.16-0.46-2.32-0.48-3.49
	c-0.12-7.8,16.03-35.75,21.17-44.4c11.69-19.63,34.38-51.76,53.42-63.85c2.8-1.78,5.79-2.69,8.99-3.54c0.36-1.1,0.76-2.17,1.33-3.15
	c0.55-0.95,1.1-1.83,1.88-2.38c34.1-23.97,78.03-32.47,118.88-35.46c-25.53-4.62-50.85-10.24-75.94-16.88
	c-4.9-1.29-4.39-3.21-2.68-7.05l16.96-11.7l-33.7,12.28l-63.71-11.61c-4.06-2.79-3.63-4.55-0.49-8.32
	c7.1-7.97,15.02-15.05,23.77-21.26c-11.55,6.89-23.1,13.8-34.66,20.73c-13.66,1.6-27.37-0.45-41.13-6.16
	c-5.41-0.18-9.52-1.56-12.35-4.14v-18.75c0.49-1.02,1.02-2,1.69-2.87c5.62-7.28,46.52-20.57,57.82-23.56
	c65.77-17.4,117.2-2.48,171.05,36.53l2.64,4.83c1.89-0.24,4.09-0.01,5.75,0.98c4.78,5.02,9.88,9.63,15.29,13.85
	c-3.51-5.41-7.56-10.46-12.14-15.15l1.4-2.71l-5.08-2.91c-11.83-14.99-23.72-29.8-35.7-44.42l-0.27-3.15c2.2-1.63,5-2.32,8.39-2.07
	l21.4,1.28l-17.38-6.59l-1.8-3.64c-2.28,3.57-12.69-1.09-12.07-5.17c-27.33-11.71-20.52-23.71-49.67-49.96
	c17.38-2.3,32.44,1.37,48.55,2.04c-83.87-36.33-37.46,0.08-104.45-67.22c58.12,5.01,112.95,30.74,150.98,73.1
	C259.92,291.89,272.3,311.04,281.48,328.39z"/>
<path class="st3" d="M1200,344.71V525c-5.23,0.45-10.67,0.03-16.32-1.26c-29.75-1.86-59.07-5.67-87.99-11.43
	c-11.25-6.58-22.77-10.67-34.57-12.27c-6.12,0.95-11.77,3.54-16.93,7.77c-3.17,0.76-3.87-0.59-4.52-3.73
	c0.4-15.26-11.48-21.59-23.95-26.27l-4.64-5.11c-1.18-0.92-2.32-1.88-3.32-2.97c-0.98-1.06-1.91-2.13-2.54-3.35
	c-8.21-15.92-16.4-32.12-24.34-48.18c-0.61-1.23-0.94-2.6-1.22-4.01c-0.29-1.45-0.4-2.93-0.46-4.42c0.52-0.85,1.08-1.67,1.76-2.36
	c5.43-5.49,55.61-7.6,66.15-6.97l9.26,2.12l3.86-1.72l27.74,8.98c-2.71-8.03-0.8-19.96,9.14-13.29c3.83,8.73,8.5,16.64,14.04,23.72
	c7.02,5.09,53.56,36.26,56.54,34.79c2.36-1.16-17.84-43.21-20.57-48.36c-8.2-15.45-17.75-30.18-29.06-43.54l-2.29-6.7
	c0.41-0.9,0.85-1.78,1.44-2.54c7.72-9.99,63.71-11.44,78.17-11.73L1200,344.71z"/>
<path class="st0" d="M1200,180.65v164.07c-28.64,0.96-57.73,0.32-84.22,11.73l-6.26-2.8c-41.45-43.62-98.72-62.47-157.08-67.32
	c-9.13-3.43-7.35-5.09,0.78-8.35c21.09-3.19,41.77-7.7,62.06-13.52c-7.65-7.07-15.82-13.58-24.53-19.55
	c-1.38-3.39-1.96-5.1,1.75-5.9l17.01,3.32c31.29,11.25,57.14,12.27,86.77-5.62l-22.6-18.63c-0.79-3.08-1.08-5.2,2.34-5.53
	c19.23,5.4,38.51,9.37,57.82,11.9c7.62,1.06,47.47-8.39,49.5-11.12c0.35-0.47,0.27-1.17-0.14-1.81
	c-5.23-8.06-32.74-17.89-42.85-20.32l-3.4-3.47c0.89-0.9,1.82-1.75,2.85-2.45c5.9-3.97,49.98-8.75,56.78-6.33
	C1197.76,179.4,1198.89,180,1200,180.65z"/>
<path class="st4" d="M151.05,681.59c-0.24,3.7-0.52,7.48-1.84,10.97c-10.83,28.57-21.85,57.25-33.16,85.63
	c-0.66,1.66-1.73,3.17-2.83,4.69c-1.11,1.53-2.37,2.95-3.69,4.34c-0.77,1.06-1.53,1.06-2.28-0.02c-0.73-0.56-1.23-0.68-1.75,0.18
	c1.79,1.67,6.96,11.7,5.92,13.17c-0.73,1.04-1.87,1.49-3.09,1.62l2.14,2.02c-7.2,20.94-14.39,41.89-21.6,62.84l-3.05,0.62
	l-1.61,2.64c-10.48-0.24-20.96-0.47-31.46-0.71l-1.87-2.72l-2.35-2.91c-4.42-23.99-6.71-48.38-6.86-73.19
	c5.11-7.81,39.49,13.24,45.49,17.62c0.62,0.57,1.67,1.01,1.98,0.52c1.73-2.72-10.39-16.27-14.18-16.93
	c-8.41-2.86-10.69-5.99-6.85-9.38l27.26-2.23c-9.58-5.37-20.64-6.61-33.16-3.73c-2.28-0.94-2.62-2.87-2.25-5.22l23-26.2
	c-15.02-0.12-26.96,8.6-35.35,20.53c-2.74,1.84-3.82,0.92-5.79-1.68c-5.07-11.42-15.56-23.77-28.57-23.5
	c7.3,7.08,14.25,14.47,20.86,22.18c3.85,4.98,5.8,7.61-0.86,9.79c-10.63-1.39-20.63-0.11-29.98,3.84L0,775.45V681.7l0.92-2.68
	c49.49-0.03,99-0.07,148.51-0.1L151.05,681.59z"/>
<path class="st3" d="M1200,527.68v125.77c-4.89-0.11-7.33-0.17-7.33-0.17c-37.99-18.51-77.26-32.73-117.82-42.65l-6.27-3.8
	l-2.95-0.15c-10.38-25.85-20.76-51.7-31.15-77.57l1.89-2.48c6.54-3.84,14.31-5.34,23.3-4.49c77.26,0.51,115.89,0.77,115.89,0.77
	C1184.38,523.02,1192.52,524.61,1200,527.68z"/>
<path class="st4" d="M1200,685.41v181.98l-1.26,2.66c-21.38-0.24-42.78-0.47-64.18-0.71l-1.57-2.7c-1.05,0.05-2.61,0.01-2.84-0.72
	c-1.28-4.07-2.74-13.88-3.16-18.42c-1.67-4.37-1.28-7.41,1.15-9.14l0.13-1.85c8.83-2.5,15.01-7.03,18.55-13.6
	c-0.49-3.14-0.58-6.12-0.3-8.93c-7.73-6.83-14.58-14.52-20.52-23.06c-5.11-4.33-8.49-9.06-10.14-14.19l-4.42-6.67
	c-6.89-27.74-13.78-55.47-20.66-83.17l2.21-2.2l5.18-1.44c32.25-0.02,64.48,0.13,96.69,0.45L1200,685.41z"/>
<path class="st3" d="M101.85,487.52l-7.61,2.88c-30.87,0.81-61.72,1.61-92.55,2.42L0,490.18v-97.77
	c17.07-0.73,33.26,11.73,51.6,8.13c15.59-5.14,27.01-22.66,45.97-23.03c-11.77,11.07-24.91,17.62-33.8,31.14l64.48,11.94l42.58-15.7
	c-5.83,10.28-17.1,14.03-25.57,21.18c33.19,10.24,67.38,14.53,101.4,22.08C196.1,449.51,143.82,456.89,101.85,487.52z"/>
<path class="st3" d="M18.74,602.79c-0.96,2.31-0.9,6.21-1.19,8.52l34.56-11.46c26.08-3.61,52.4-2.82,78.94,2.37
	c21.03,2.31,12.89,9.23-1.19,11.25l47.81,2.31l1.46,2.75l1.94,2.22c-8.97,20.15-17.94,40.3-26.92,60.46l-3.1,0.38L0,681.7V600
	c0.25-1.04,0.71-2.29,1.67-2.48C7.04,596.44,21.22,594.81,18.74,602.79z"/>
<path class="st5" d="M1200,934.71v215.45l-3.86,2.09c-12.15-3.25-23.97-7.51-35.46-12.76l-2.27-3.65c-2.08-5.96-3.11-8.93-3.11-8.93
	c0.36-67.91-7.77-134.18-16.36-199.24l2.46-1.92l4.14-2.66c17.1,1.64,34.04,4.43,50.82,8.38L1200,934.71z"/>
<path class="st6" d="M226.09,104.66l0.93,3.51c-4.24,9.33-7.34,19.11-9.29,29.33l-3.33,1.74c-42.09-6.28-84.2-9-127.43-6L0,139.29
	V119.2l112.2-3.59c-24.62-12.22-50.12-14.25-76.89-23.12c35.52-5.23,71.61-3.99,107.98,0.94L226.09,104.66z"/>
<path class="st6" d="M1200,653.44v31.96c-35.67,0.61-71.46,1.89-107.01-0.71l-2.93-0.38c-7.85-25.05-15.7-50.1-23.56-75.16
	l2.08-2.33C1115.02,614.15,1156.98,635.61,1200,653.44z"/>
<path class="st3" d="M196.88,329.55c1.9-3.36,3.79-1.89,3.83,1.61c2.31,0.79,3.49,1.92,1.76,3.92
	c13.59,16.77,29.46,31.84,41.04,50.47c0.76,6.12-6.11,4.3-10.3,3.03c-28.46-17.87-57.11-37.93-91.71-43.74
	c-49.39-8.29-98.33,6.49-141.5,28.81v-45.54C65.58,324.02,131.65,320.77,196.88,329.55z"/>
<path class="st4" d="M18.74,602.79C16,596.42,6.28,601.26,0,600V490.18l101.85-2.66C62.9,515.94,36.86,559.11,18.74,602.79z"/>
<path class="st5" d="M68.49,924.28c1.01,0.33,2.5,1.04,2.36,1.76c-5.01,27.66-11.26,59.3-18.33,86.43
	c-0.12,5.04-1.63,7.86-4.53,8.47l-2.12,2.91c-14.54,1.5-29.09,3-43.64,4.5L0,1025.89V925.45l1.19-2.7
	c21.88-0.37,43.77-0.74,65.67-1.12L68.49,924.28z"/>
<path class="st1" d="M1200,1230.54v116.04l-4.07-0.15c-13.22-9-27.59-16.37-43.11-22.1l-1.37-3.8l-2.59-1.42
	c1.82-28.01,3.64-56.02,5.46-84.05l2.78-1.44c0.05-1.05,0.26-2.63,1.01-2.76c7.76-1.34,32.49-3.55,39.76-2.87L1200,1230.54z"/>
<path class="st7" d="M1200,867.39v67.31c-19.62-2.71-38.87-9.37-58.59-8.97l-2.78-0.52c-2.69-18.86-5.37-37.73-8.06-56.6l2.43-1.95
	L1200,867.39z"/>
<path class="st0" d="M50.89,866.87c-1.27,3.84-9.2,4.05-10.76,0.34l-2.66-1.28L38.53,797c-3.3,0.2-6.4,1.36-9.3,3.47
	c-8.32,7.41-17.19,13.6-26.63,18.56L0,816.96v-8.04c3.85-9.62,10.49-17.76,19.9-24.4l-8.72-2.21c-5.1,0.04-8.83-1.36-11.18-4.2
	v-2.68c10.7-7.21,22.22-5.9,35.88-5.5c-8.36-13.29-19.59-20.94-28.82-32.47c17.83-2.25,31.67,11.35,38.12,27.66
	c10.03-15.99,25.57-24.51,43.52-22.23l-27.51,31.18c16.07-1.31,30.65-4.46,40.04,8.79l-34.44,2.5c12.35,4.02,26.46,14.4,25.36,28.74
	c-17.39-8.64-29.98-21.59-48.78-22.27C45.68,818.5,46.37,843.39,50.89,866.87z"/>
<path class="st7" d="M1200,1167.86v62.68l-42.91,3.09l-2.66-1.29c0.46-24.58,0.91-49.16,1.37-73.76l2.71-1.55
	c2.83-3.09,7.22-3.42,13.16-0.98l26.38,8.71L1200,1167.86z"/>
<path class="st6" d="M1200,160.81v19.84c-21.22,0.64-42.81,2.55-63.06,7.1l-2.04,2.33c0,0-14.89-2.94-44.67-8.82l-1.39-3.01
	c9.44,0.18,20.88-2.24,29.35-6.12c-20.69-5.61-40.2-5.09-59.87-13.34C1106.42,149.79,1153.18,157.18,1200,160.81z"/>
<path class="st1" d="M1200,525v2.68c-25.49-3.72-51.08-2.03-77.68-1.9c-29.34,0.14-57.81-3.03-85.95,0.85l-4.67-4.26
	c-4.04-7.59-21.01-41.31-21.02-46.28c0-1.13,0.18-2.25,0.41-3.38c15.16,7.63,31.76,9.64,31.28,33.8
	c23.06-21.02,39.15-0.14,58.36,4.54C1132.76,518.84,1167.58,516.21,1200,525z"/>
<path class="st4" d="M40.14,867.21c-0.64,0.74-1.31,1.44-2.09,1.99c-3.07,2.19-27.74,1.73-33.54,1.2L0,867.86v-50.89
	c14.56-3.22,23.94-22.43,41.26-23.42L40.14,867.21z"/>
<path class="st7" d="M44.18,1037.88l2.52,1.29c-2.77,18.75-5.54,37.5-8.31,56.26l-2.88,1.18L0,1100.89v-58.93
	c0.5-0.84,1.03-1.65,1.69-2.34c4.27-4.4,30.79-5.37,38.15-4.67L44.18,1037.88z"/>
<path class="st8" d="M1200,1346.58v20.62c-14.64,11.62-41.71,5.49-54.84-2.24c-1.29-7.11-0.84-14.57,1.35-22.38
	c0.02-8.18,1.67-15.53,4.93-22.05C1167.43,1329.66,1186.06,1332.74,1200,1346.58z"/>
<path class="st7" d="M50.89,866.87l34.94,0.79l1.9,2.81c-0.45,4.12-3.92,16.62-8.53,16.16l-7.28,2.43
	c-22.8,0.5-45.52,1.51-68.16,3.03L0,890.62v-22.77c13.39-0.59,26.81,0.77,40.14-0.65C43.45,866.86,47.6,866.79,50.89,866.87z"/>
<path class="st7" d="M73.71,905.23c3.51,4.22-0.46,16.74-5.21,19.05L0,925.45v-24.11l3.58-1.26c21.01,2.37,42.1,3.35,63.27,2.94
	L73.71,905.23z"/>
<path class="st5" d="M79.2,886.63l1.61,2.82l-4.1,14.42l-3.01,1.36c-24.58,2.07-49.35-0.09-73.71-3.89v-10.71
	C26.37,888.32,52.7,885.33,79.2,886.63z"/>
<path class="st8" d="M666.73,1485.21c13.14,18.29-62.53-5.43-78.97,6.58c-10.16,7.42-15.81,44.44-29.88,51.07h-6.1v-1.41
	c3.58-2.24,6.13-5.2,7.64-8.86c7.01-17.68,13.73-35.43,20.18-53.26c10.11-2.92,20.65-3.06,31.61-0.4l37.45,6.88
	C648.67,1485.8,654.69,1485.6,666.73,1485.21z"/>
<path class="st1" d="M1200,1150.15v17.71c-14.29-2.32-26.86-11.33-41.49-10.82c-4.01-4.73-3.93-16.37-0.09-21.21
	C1172.36,1140.54,1185.34,1148.23,1200,1150.15z"/>
<path class="st1" d="M47.99,1020.95c3.57,3.02,0.47,15.43-3.81,16.93c-14.8-1-29.95-0.14-44.18,4.08v-16.07L47.99,1020.95z"/>
<path class="st4" d="M0,808.93v-30.8c8.9,0.68,17.21,2.31,27.03,6.03C15.18,789.6,8.32,799.71,0,808.93z"/>
<path class="st9" d="M992.59,161.98l-5.21,3.74c-13.88,3.13-27.72,7.34-40.17,14.31l28.57,2.19l1.74,2.82
	c-7.98,9.44-16.21,19.96-22.75,31.78c42.67-28.46,85.92-39.47,134.07-38.57l48.11,9.49c18.74,3.7,36.91,11.57,53.21,26.14
	c-63.32,21.37-57.86,13.3-116.28,0.9l28,23.08c-61.61,26.87-50.16,14.32-111.13,3.35c9.5,9.44,21.53,13.32,28.78,24.53
	c-22.66,10.07-46.46,8.71-71.97,16.63c13.96,3.96,27.6,3.49,42.72,6.35c48.17,9.12,92.8,31.43,125.52,67.73
	c26.48,29.38,44.59,66.56,56.55,104.11c-23.03-12.13-41.68-23.73-61.34-37.08c-8.93-6.06-10.61-18.32-17.25-27.09
	c-7.66,2.33-3.27,9.27-1.46,16.9c-12.57-1.63-23.93-7.72-35.9-10.72c-10.09-0.43-15.92-8.25-21.14-16.05l-20.38-33.74l2.77,20.76
	c-0.81,3.55-1.48,4.42-5.22,4.08c-10.15-0.92-32.5-15.84-41.49-22.32c-21.77-17.7-43.57-35.3-65.42-52.81
	c-2.51,1.67-5.68,0.14-9.52-4.59l4.79,17.62l-2.52,1.9l2.8,8.86c-0.3,23.5-4.82,46.68-10.96,69.31c-1.25,4.06-3.11,3.63-6.44,2.45
	l-9.09-13.11c5.6,13.13,8.44,26.48,8.51,40.05l-3.06,2.28c0.91,1.24,1.93,2.65,1.83,4.15c-0.38,5.76-8.37,24.95-11.41,30.9
	l-3.75,2.41l-2.64,1.01l-19.31-23.31c9.25,19.49,13.88,29.24,13.88,29.24l-0.15,5.33c5.16-0.36,8.01,10.15,2.83,11.78
	c0.79,3.34,1.18,5.01,1.18,5.01c-4.64,9.84-8.56,19.91-11.78,30.22l-3.1,2.28l-2.73,1.09l-21.2-20.37
	c7.05,11.15,12.11,22.72,15.18,34.71c-3.04,16.88-6.26,33.88-9.67,51.01c-2.72,7.63-7.33,4.92-13.84-8.15
	c-17.81-28.14-28.32-71.36-29.09-104.55c-0.02-0.98,0.33-1.98,0.74-3c0.42-1.07,1.02-2.06,1.66-3.04c-3.1-2.71-3.42-7-0.98-12.87
	l7.43-21.37l3.24-1.68l-2.01-2.96c7.46-43.94,29.42-79.87,59.33-113.51l0.37-4.02l26.56-26.49c3.68-0.11,3.34-0.63-1-1.55
	c-25.42-20.56-53.13-36.35-83.13-47.37l-4.14-3.88l45.78-5.49c-65.78-15.1-49.89-13.41-103.8-47.14l38.31-6.31
	c-17.43-10.36-37.65-10.1-56.25-17.17c-24.95-9.47-47.16-24.17-73.53-36.96c93.96-21.34,203.12,28.22,238.68,116.56
	c7.78-32.47,15.56-59.95,32.25-85.88c12.47-19.38,22.11-36.88,41.22-52.72c35.31-29.29,79.92-49.66,128.09-55.35l-44.6,46.91
	c-17.76,9-40.45,9.26-57.68,20.53l41.41,3.95L992.59,161.98z"/>
<path class="st9" d="M422.9,350.82l-5.42,3.1c-15.5,1.4-31.14,3.38-46,7.99c5.36-0.49,8.32,0.8,8.88,3.87
	c3.61,4.65,10.14,1.45,14.99,6.44c-2.75,1.14-4.94,3.03-6.85,4.26l-1.61,3.16c-12.12,8.69-24.22,17.48-36.31,26.4
	c78.98-29.19,183.14-13.19,237.7,54.53c0.55,0.68,0.77,1.64,0.98,2.66c0.22,1.05,0.25,2.13,0.23,3.23l4.43,1.41
	c1.23,1.01,14.36,17.87,14.45,19.06c0.27,3.68,0.38,5.65-3.99,5.52c-21.77-1.15-43.26-3.96-64.47-8.43
	c-7.01-3.84-13.04-9.26-18.12-16.25l0.59-3.02l-2.59-3c-3.35,1.76-3.72,0.98-1.89-2.28l-4.33-1.27
	c-12.11-14.52-13.12-14.28-3.03,0.72l-1.39,3.27c3.57,0.11,3.42,1.34,0.05,2.43l1.12,1.56c3.94-0.62,10.59,13.84,7.55,16.06
	c-3.08,2.26-23.27-1.13-28.69-2.07c-10.79-1.86-31.38-6.07-39.68-12.68c-1.25-0.99-1.66-2.76-2.02-4.34l-4.03,0.5l-15.3-13.19
	l6.53,9.11c3.94,4.5,4.94,8.44,2.97,11.8l-1.63,2.46c-21.24-3.24-42.5-6.49-63.76-9.74l-1.18-2.89l-5.04,1.91l-25.8-4.13l24.42,6.69
	l0.83,3l4.84-1.4c42.47,12.93,94.37,44.15,110.11,87.82c0.23,0.65,0.09,1.44-0.09,2.28c-0.2,0.89-0.57,1.74-0.99,2.58
	c1.23-0.02,1.35,0.4,0.42,1.24l4.4,4.6c12.31,30.36,30.47,82.87,29.89,115c-0.02,0.99-0.37,1.98-0.8,2.99
	c-0.45,1.06-1.07,2.04-1.74,3c4.83,3.2-1.46,20.51-6.9,16.94c-0.94-0.62-13.72-15.5-14.73-17.11l0.39-3.63l-5.5-2.37
	c-5.4-5.15-13.45-14.17-18.06-20.09c-1.25-1.61-1.68-3.68-1.98-5.65c-4.39-1.63-6.73-13.8-2.15-16.04
	c-2.53-8.7-3.39-18.01-2.58-27.93L453.44,633l-3.56,1.96l-4.42-0.11c-13.28-9.18-24.91-19.66-34.89-31.44
	c-5.92-13.29-8.58-27.85-7.98-43.68l-6.76,16.47c-3.49,3.36-4.4,2.49-8.1-1.08c-8.79-8.48-18.48-22.89-22.35-34.25l-4.5-2.42
	c-9.36-13.4-19.45-26.23-30.28-38.48l-1.97-4.37c-14.15-11.86-20.15-31.52-38.61-40.1c3.8-18.09,2.97-33.99,8.64-49.7
	c0.16-14.55,22.97-61.96,34-67.19c1-0.47,2.09-0.78,3.19-1.04c49.99-58.75,131.39-85.05,207.38-63.42
	c-79.67,44.49-35.32,28.8-121.38,31.44l37,18.35C446.77,334.46,434.6,342.29,422.9,350.82z"/>
<path class="st2" d="M794.33,238.26c34.38,8.45,64.49,31.96,92.88,51.95c-12.96,13.11-21.08,21.6-31.54,31.37
	c-23,30.09-47.46,58.95-73.37,86.58c-2.92,2.84-4.49,1.79-6.96-0.44l-2.91-15.02c-3.75,8.93-6.36,18.21-7.81,27.84l-3.2,2.28
	c1.72,0.89,2.03,1.53,1.85,3.05c-0.77,6.47-35.61,36.12-39.98,36.34c-2.28,0.11-3.55-0.07-4.87-2.2l-7.3-25.22l-1.29,20.2
	c0.32,8.21-1.92,14.23-6.72,18.08c0.64,0.82,1.43,2.25,0.93,2.67c-5.46,4.67-43.03,35.58-45.93,35.84c-2.9,0.36-4.39,0.42-5.15-2.54
	c-0.44-1.73,3.03-28.48,3.85-32.24c0.21-5.8,2.18-9.39,5.9-10.78l-0.64-5.45c2.55-8.43,15.91-46.43,20.56-49.51
	c0.84-0.55,1.78-0.95,2.74-1.31c8.74-15.71,17.45-32.95,30.44-45.52c31.49-30.45,66.62-51.29,109.92-64.35l-86.66,6.83l15.43-30.75
	c-52.41,45.43-24.92,33.71-98.14,38.37c6.02-13.52,14.99-22.37,19.41-35.56c-49.88,44.72-21.92,38.56-99.58,42.47
	C629.04,258.92,715.25,218.83,794.33,238.26z"/>
<path class="st1" d="M214.39,139.25c3.72-11.5,4.88-24.81,11.7-34.58c21.19-30.38,56.74-41.07,90.27-25.35
	c23.11,10.83,37.54,33.09,42.54,58.89c12.59-8.65,26.81-11.26,41.91-5.93c11.39,4.02,22.26,12.81,26.18,28.45
	c21.45-12.68,35.66,7.16,51.74,11.2c49.69,12.49,101.39,7.15,151.58,23.86l-243.18-0.17c-82.51-0.06-163.97-0.26-245.34-2.23
	c-1.6-21.81,9.28-34.5,23.43-45.06C180.89,136.61,197.37,142.94,214.39,139.25z"/>
<path class="st4" d="M685.37,409.75c-9.83,17.67-14.74,37.85-22.67,56.27c-3.41,1.12-6.91,2.19-10.53,2.24
	c-17.31,0.22-34.79,0.37-52.11,0.38c-3.62,0-7.14-1.08-10.55-2.19c-53.19-70.18-164.97-92.31-254.51-51.1
	c16.84-15.31,35.52-27.29,53.5-38.87c0.34,1.08,0.92,2.16,1.41,3.07c0.95,1.77,2.53-0.23,3.95-0.28l40.31-1.38
	C518.67,374.98,602.19,395.88,685.37,409.75z"/>
<path class="st6" d="M335.85,337.58c-17.01,20-28.35,43.75-37.19,68.22c-2.68-25.39-4.71-53.82-17.18-77.41L335.85,337.58z"/>
<path class="st10" d="M992.59,161.98c-5.75,7.78-8.55,15.34-15.07,23.06l-40.48-3.1C954.84,172.02,973.28,165.41,992.59,161.98z"/>
<path class="st2" d="M422.9,350.82c-4.58,3.34-7.2,10.64-12.68,13.85c-10.34,3.13-20.96-4.97-29.86,1.11
	c-5.81-1.68-12.17-0.28-19.06-3.73C380.99,355.3,402.28,352.23,422.9,350.82z"/>
<path class="st6" d="M213.08,324.06c4.93,6.58-7.28,13.51-12.38,7.1c-1.48,0.03-2.63-1.4-3.83-1.61c0.63-3.82,2.66-7.12,4.13-10.66
	L213.08,324.06z"/>
<path class="st8" d="M795.64,1296.32l9.02-1.21c68.13,4.19,136.01,11.52,203.63,21.99c0,0,5.76,1.7,17.28,5.11
	c2.42,6.65-0.53,17.36-6.36,21.32c-51.98,9.49-59.93,55.87-133.88,57.94c-83.99,2.36-169.05,3.92-252.12-4.52l-0.99-1.86
	c1.65-3.43,3.52-6.82,5.63-10.17c-1.66-4.14-4.2-5.82-7.62-5.05c-15.97,4.52-31.13,11.44-45.48,20.76
	c-13.48,6.34-23.59,10.69-37.74,3.19l-47-34.81c-3.61-1.15-9.18-1.11-7.9,4.04l-2.2,2.35c1.55,2.96,2.11,5.56,1.7,7.8
	c-3.8,2.2-8.15,4.24-13.71,3.59c-53.29-6.17-105.36-15.45-157.14-29.28c-143-38.19,65.73-51.09,93.2-58.2
	c4.83,0.13,7.25,0.19,7.25,0.19c90.23,44.36,190.13,55.63,284.94,17.13l58.23-27.19c0,0,2.23,0.06,6.68,0.17l3.46-1.14
	c3.66,5.67,3.87,12.77,0.65,21.32c-2.88,7.59,7.03,8.08,12.86,6.91l4.57-19.19L795.64,1296.32z"/>
<path class="st11" d="M208.91,1001.66l3.51,3.03c79.48,152.97,246.74,261.14,421.26,215.45
	c108.97-28.53,208.95-106.52,282.03-190.24l4.35-2.52l2.47-1.61c4.36,0.91,20.63,5.8,17.54,10.98c-0.06,1.38-0.17,2.75-0.47,4.08
	c-0.29,1.29-0.62,2.53-1.27,3.58c-27.67,44.59-82.82,95.44-124.7,127.15c-76.79,58.14-148.35,99.96-246.63,106.23
	c-90.3,5.76-179.28-16.95-254.25-65.34l-13.85-11.07c-14.46-17.74-29.68-35.84-45.68-52.3l-5.59-4.62
	c-11.67-21.3-23.34-42.59-35-63.88l1.58-2.69l-3.43-1.41c0,0-1.44-4.37-4.31-13.11l-3.6-2.45c-5.39-16.77-10.77-33.54-16.16-50.31
	l2.07-2.33c-1.93-5.06,13.56-8.1,17.76-8.5L208.91,1001.66z"/>
<path class="st12" d="M139.51,830.77l2.07,4.27c0.18,1.96-3.64,30.25-4.72,31.41c-0.81,0.87-1.72,1.45-2.94,1.55l1.43,2.67
	c-1.79,5.73-2.97,11.66-3.56,17.8l-2.93,0.85c2.63,4.05,1.64,17-3.17,18.98c3.9,2.06,0.68,15.26-3.64,15.82
	c0.72,9.4-0.27,18.94-2.97,28.61c-3.48,23.66-6.39,47.36-8.7,71.11l-2.04,4.66l2.61,1.54c0.57,3.17,0.44,16.44-3.78,16.01l1.84,4.82
	c-1.72,14.68-2.32,29.43-1.82,44.24l-2.75,4.45c-1.15,51.56,1.61,103.02,8.77,154.12c4.09,0.59,3.37,6.14,2.09,9.37
	c-2.96,7.48-15.94,9.67-23.07,10.59c-13.83,1.79-49.41,2.04-61.68-3.37c-2.23-0.98-4.17-2.39-5.18-4.71
	c-3.33-55.83,1.92-113.42,10.13-168.97l8.68-58.72c0.75-5.05,2.74-11.88,3.81-16.93l20.5-96.66c1.24-5.86,4-12.76,5.21-19.05
	c0.93-4.79,3.13-14.34,5.49-18.6c3.01-5.43,4.63-13.15,6.63-18.97l22.5-65.48c3.52-2.58,7.78-1.2,12.8,4.14l18.72,21.14
	L139.51,830.77z"/>
<path class="st10" d="M956.43,1048.77c0.45,0.87,0.85,1.74,1.08,2.67c1.08,4.35-13.05,35.58-16.44,42.09l-4.07,3.12
	c-0.59,4.14-4.01,14.27-8.91,13.61l-0.5,4.79c-8.57,12.35-16.39,25.19-23.48,38.52l-4.47,2.08c-0.57,3.16-1.17,6.46-2.9,9.22
	c-20.97,33.44-59.86,74.82-91.28,98.8c-2.6,1.99-5.83,2.93-8.94,3.82l-2.63,5.63c-5.93,6.22-14.92,14.5-22.82,16.51
	c-27.45,10.79-52.44,26.47-81.37,36.19c-45.27,15.21-93.71,19.78-141.18,15.23c-48.51-4.64-91.17-23.12-134.54-41.72
	c-19.04-8.17-33.2-21.2-48.6-33.65l5.06,0.41c86.09,38.53,177.43,53.02,269.17,28.28c132.37-35.7,231.66-140.6,306.33-250.9
	l3.83-2.63C954.27,1037.42,961.76,1044.38,956.43,1048.77z"/>
<path class="st0" d="M949.75,1040.83c-133.54,207.2-336.81,342.76-584.39,224.84c-24.39-19.72-46.66-39.97-66.47-64.28
	c79.2,45.72,106.88,61.33,199.4,71.95c89.27,10.25,176.53-10.4,251.4-60.57c38.13-25.55,77.05-51.56,109.99-83.48
	c29.92-28.99,59.01-58.28,80.39-92.53C942.67,1034.09,950.7,1036.57,949.75,1040.83z"/>
<path class="st6" d="M637.84,1384.93c-6.81,11.38-15.33,21.66-25.56,30.85c-5.15,5.02-9.09,10.44-11.81,16.26
	c2.85,1.04,4.09,2.56,3.73,4.57c3-3.34,6.8-0.45,7.51,3.3c16.32,16.15,39.48,23.81,53.93,41.52l-1.38,2.98
	c-16.76,0.05-33.52-2.92-50.29-8.93c-10.75-3.32-21.47-4.21-32.15-2.67l-21.16,57.04c-5.63,17.05-14.02,8.25-19.04-3.23
	c-5.11-18.74-11.14-37.05-18.08-54.92c-8.95-3.71-18.65-4.22-29.1-1.52l-38.87,7.15c-4.65,0.23-9.73-0.2-13.63-2.94
	c-3.61-5.31,1.1-10.54,6.91-13.38l60.09-29.41c2.85-7.4,1.67-15.01-3.53-22.83c-5.92-10.79-11.09-21.92-15.51-33.37
	c-0.97-3.36-1.02-7.17,1.92-8.59c3.67-1.79,8.42-1.31,11.56,1.04l44.27,33.16c12.27,9.19,29.53,1.18,41.96-6.15
	C597.1,1390.45,642.51,1364.25,637.84,1384.93z"/>
<path class="st6" d="M330.93,1404.76c1.29,3.01,5.17,4.69,11.65,5.04c4.81,2.39,7.59,2.46,8.36,0.21
	c15.03,6.66,26.48,18.33,32.15,32.42c0.41,2.53-0.19,3.47-1.81,2.82c-12.99,25.28-49.05,32.61-67.14,8.44
	c4.83,6,8.64,13.41,9.42,21.19c1.02,10.21,1.12,11.77-8.32,16.46c-14.52,7.22-26.25,2.2-34.51-10.97
	c4.22,14.72-11.92,22.29-23.77,16.35c-5.61,13.22-21.7,12.28-28.69,0.7c-2.2-1.06-3.68-2.4-4.45-4.02
	c9.55-11.89,28.72-48.64,42.92-53.5C278.68,1416.19,305.32,1402.68,330.93,1404.76z"/>
<path class="st7" d="M214.21,1077.91l39,71.19c-45.32-18.25-100.1-45.2-148.77-49.53c0.4-17.88-0.89-36,2.73-53.51
	c1.1-0.46,2.2-0.86,3.35-1.08c1.1-0.21,2.16-0.37,3.15-0.17c17.7,3.59,35.3,11.46,51.26,19.78c14.06,6.19,29.17,9.7,44.5,10.48
	L214.21,1077.91z"/>
<path class="st0" d="M381.28,1445.25c4.29,3.34-3.71,16.73-8.7,14.18c0.48,2.43-0.43,3.39-1.93,4.76
	c-12.1,11.07-28.05,8.73-42.3,6.62c-1.35-0.2,2.09,4.54,3.51,5.57c14.38,10.47,36.36,3.66,46.7-9.61l3.52-0.18
	c-0.61-3.51,4.04-6.78,6.98-4.25c-0.41,8.65,0.79,18.27-3.31,25.52c2.07,6.26-6.54,13.61-11.43,17.55
	c-16.38,13.19-41.54,16.19-58.66,3.52c-7.31,8.86-22.1,10.2-32.27,4.54c-4.08,2.21-8.39,3.59-12.92,4.16
	c-12.43,0.43-24.92,0.38-37.46-0.14c-5.86,1.25-14.69,0.86-18.67-1.44c-5.39-3.12,1.09-8.26,2.86-10.77l2.42-1.94
	c9.21,6.07,12.34,1.69,3.14-4.29l-0.3-2.97c0.73-1.08,0.83-2.33,1.36-2.68c5.06,0.57,8.2,5.75,12.55,8.89
	c3.87,2.8,15.57,0.76,16.99-3.97c2.12-7.02-7.36-10.29-10.98-16.22c8.13-2.64,11.22,7.93,16.28,12.57
	c4.05,3.72,18.37,0.03,19.49-5.48c3.19-15.78-12.17-25.53-25.81-26.94c34.42-12.42,24.78,49.59,68.63,23.01
	c3.26-27.67-21.95-48.41-50.01-47.12c23.29-10.37,37.99,7.02,52.66,20.96C340.77,1475.4,369.3,1462.81,381.28,1445.25z"/>
<path class="st8" d="M76.47,1426.35c0.37-1,1.12-2.45,1.85-2.3c22.28,4.72,47.42,11.02,69.37,17.4c6.49,1.88,12.09,3.63,17.95,7.26
	c6.21,1.56,8.5-3.81,13.46-7.59c0.52-3.48,2.7-5.88,5.42-7.91c1.3,0.22,2.62,0.29,3.92,0.06c9.49-18.78,22.53-39.01,36.7-54.79
	c0.52-0.57,1.36-0.87,2.27-1.17c0.94-0.31,1.94-0.44,2.95-0.52c5.05,0.88,11.71,0.26,14.65,4.93c9.16,14.51-36.94,44.73-46.27,56.96
	c11.25,3.5,22.54-0.73,31.37,9.11c-27.05,9.79-149.82,25.36-165.83,1.97c3.41-7.1,10.6-5.86,16.15-8.82
	C80.93,1435.25,76.87,1431.06,76.47,1426.35z"/>
<path class="st6" d="M174.36,1439.18c-9.34-10.31-17.13-23.05-23.7-36.51c-11.88-24.33-26.88-45.67-40.12-69.46
	c-5.17-9.3,9.46-20.66,17.13-22.08c10.97-2.03,21.7,0.86,26.64,12.67C162.45,1361.08,170.79,1397.75,174.36,1439.18z"/>
<path class="st6" d="M184.53,1433.22c1.59,4.12-2.24,5.49-5.42,7.91c-1.15-37.94-11.42-75.87-13.04-115.6
	c-0.44-10.78,11.81-16.13,21.82-14.08C226.09,1319.27,177.67,1415.48,184.53,1433.22z"/>
<path class="st8" d="M233,1517.51c29.12-6.19,38.17,2.27,49.62-7.56c11.06,7.05,23.16,5.12,32.94-3.35
	c24.26,15.49,55.72,6.85,70.18-18.73c0.95,8.25,35.74,6.64,35.79,16.71C421.67,1526.61,251.07,1529.84,233,1517.51z"/>
<path class="st6" d="M165.65,1448.72l-89.18-22.36c-7.67-1.92-16.78-7.26-18.06-13.47c-1.56-7.58-4.49-21.29,5.11-22.85
	C83.3,1386.81,149.26,1435.37,165.65,1448.72z"/>
<path class="st6" d="M232.97,1238.49c-3.4-0.62-7.16-3.03-8.05-6.43c-5.83-3.01-11.18-6.97-16.06-11.88
	c-6.05,6.59-12.7,12.73-19.93,18.41c-0.47,4.76-9.43,2.42-4.1-2.43c-0.87-11.3,9.91-20.37,10.24-31.95
	c-9.8-6.8-22.07-4.11-30.79-11.6c11.86-7.27,24.76-2.55,36.75-2.15l3.84-3.66c2.24-9.66,4.09-19.46,5.57-29.42
	c9.75,6.32,5.29,22.65,9.34,35.09l34.17,0.1c-8.44,9.15-20.63,8.56-31.26,14.42l19,30.75
	C238.75,1239.8,235.59,1238.25,232.97,1238.49z"/>
<path class="st0" d="M665.65,1481.44c0.78,0.96,0.54,2.7,1.08,3.78c-9.82,12.54-62.03-11.51-85.49-3.98
	c-4.76,9.44-18.32,64.74-29.45,60.21c-16.54-6.73-17.02-52.27-30.03-65.26c-23.35-4.97-70.1,12.48-79.81-1.79
	c18.43,4.79,67.7-17,83.53-4.49c8.35,11.01,12.09,69.81,29.81,67.65l24.72-67.55C607.2,1464.62,646.64,1487.08,665.65,1481.44z"/>
<path class="st6" d="M230.37,1376.8c-17.06,17.7-28.01,39.85-41.92,56.48c4.15-26.48,13.62-51.69,19.81-78.4
	c1.77-7.64,5.32-13.82,13.48-13.41c6.18,0.31,11.89,4.88,12.2,12.92C234.19,1360.81,235.41,1371.57,230.37,1376.8z"/>
<path class="st8" d="M25.37,1265.57c14.7,7.39,76.1,10.64,86.52-1.77c1.93-2.3,1.7-7.42,1.32-10.12
	c16.79-3.79,37.45,0.33,50.62,13.51c-21.21,6.05-42.18,5.08-63.31,8.12C85.31,1277.5,26.57,1285.75,25.37,1265.57z"/>
<path class="st8" d="M224.92,1232.06c3.61,0.03,6.89,3.26,8.05,6.43c-16.53,1.51-33.5,4.03-50.7,4.11
	c-0.64-2.39,0.02-6.41,2.56-6.44c-0.85,1.34-1.69,3.2,0.54,3.19c0.92,0,2.84-0.27,3.57-0.76
	C196.64,1228.72,214.46,1226.49,224.92,1232.06z"/>
<path class="st0" d="M508.95,1431.61c0.88-16.93-11.3-32.22-17.34-48.4c-0.96-2.57-0.96-5.27-1.7-7.8l20.92,40.19
	C514.4,1422.46,514.31,1428.99,508.95,1431.61z"/>
<path class="st3" d="M389.06,1462.35c-2.46,1.24-4.13,3.72-6.98,4.25c-3.74-0.04-9.71-3.04-9.49-7.17c4.2-3.35,7.19-9.46,8.7-14.18
	c0.35-1.1,0.78-2.19,1.81-2.82C385.89,1449.37,389.41,1455,389.06,1462.35z"/>
<path class="st4" d="M350.94,1410.01c0.65,0.53,1.25,1.75,2.01,1.79c1.71,0.08,0.25,4.19-0.82,3.79
	c-11.56-4.27-23.12-6.17-35.53-7.47c5.15-4.27,11.09,1.06,14.34-3.35C338.22,1405.36,344.33,1407.08,350.94,1410.01z"/>
<path class="st3" d="M201.02,1190.46c6.41-10.35,1.49-24.17,9.41-33.07C210.29,1167.95,212.75,1190.84,201.02,1190.46z"/>
<path class="st6" d="M217.19,1505.29c1.49-3.57,1.7-7.81,5.26-9.21c4.09,1.16,10.86,7.27,7.62,11.41
	C226.78,1511.71,220.74,1506.27,217.19,1505.29z"/>
<path class="st6" d="M164.83,1440.24c-31.06-23.15-63.01-43.16-91.36-68.44c-10.72-9.56-2.82-26.33,7.06-31.28
	c13.87-6.95,24.86,1.4,32.34,13.33C130.74,1382.36,152.23,1407.33,164.83,1440.24z"/>
<path class="st13" d="M1119.45,801.12c5.49,6.55,7.75,18.97,9.22,27.73c1.93,4.4,1.76,7.58-0.53,9.52l4.86,28.28l8.42,59.08
	l10.82,87.38c5.11,41.26,4,81.99,6.19,122.71c0.36,6.75,0.22,14.46,0.09,21.21l-1.42,76.6l-5.65,86.9
	c-0.96,14.85-3.01,30.12-6.28,44.43c-6.86-4.04-16.03-4.27-24.12-7.29c-32.4-12.12-68.01-20.31-101.83-14.14
	c2.52-7,4.29-14.22,6.36-21.32l-0.29-5.45c6.42-30.31,13.35-60.48,20.8-90.52l2.85-4.67l-0.99-3.82
	c4.76-24.44,8.44-49.09,11.03-73.93l3.05-6.96c-4.09-4.21-2.46-16.56,2.41-19.8c-0.69-4.04-1.27-8.16-0.86-12.26
	c5.63-55.72,11.13-111.28,7.18-167.42c-0.02-4.12,1.03-8.16,2.13-12.1c-1.04,0.05-2.65-0.12-2.72-0.77
	c-1.53-14.37-2.35-32.64-2.38-47.11c-1.18-5.06-0.45-8.31,2.19-9.75l-2.75-2.19c0.49-7.85,0.13-15.62-1.07-23.31
	c-2.02-6.17-21.66,21.39-22.47,24.16l-4.24,1.51l-0.58,3.88c-13.27,18.72-26.74,37.41-40.42,56.05l-5.92,4.35l1.23,3.1
	c-4.29,6.5-8.55,13.11-10,20.92c-4.13,26.37-8.56,52.5-13.28,78.41c27.03,10.89,9.83,29.24-10.4,14.16l-3.63,0.05
	c1.3-4.65-4.24-6.08-6.68-7.94c-2.6-1.98-7.53-1.9-9.68-4.06c-4.99-5.88-14.49-5.48-20.01-9.38l-3.79,0.62l-10.03-6.18
	c-4.86-1.29-8.26-3.49-10.2-6.61l-3.28,1.73c-6.51-4-12.9-7.4-19.89-9.78c-7.53,0.03-16.25-4.32-14.36-13.72
	c2.54-12.66,17.6-4.79,23.59-0.6c28.96-18.1,58.24-35.3,87.84-51.61c2.65-3.64,5.69-5.48,9.11-5.52l1.14-3.88
	c15.69-18.82,30.27-38.5,43.73-59.03c1.52-2.12,3.86-3.49,6.08-4.78c-1.77-3.88,3.51-10.54,7.68-9.93
	c-2.68-3.56,4.37-11.83,8.19-13.01l-0.69-3.27c9.15-8.26,14.93-17.86,17.33-28.79l-0.22-28.6l2.66-1.94l3.93-1.52
	c17.25,3.41,33.62,8.77,49.11,16.06L1119.45,801.12z"/>
<path class="st8" d="M1048.58,1383.9c0.26,4.69,0.39,7.04,0.39,7.04c-10.14,25.02-22.32,49.07-36.52,72.13
	c16.31-21.92,31.62-44.04,45.92-66.39c16.29-0.52,28.22,10.89,29.18,27.08c0.68,0.79,1.52,2.19,1.03,2.64
	c-28.64,26.26-60.59,52.05-91.94,74.95c1.53,2.44-0.64,3.81-2.61,1.62c-6.64,7.08-16.97,2.54-11.53-6.29
	c0,0,8.19-36.45,24.56-109.36l2.97-0.97C1019.01,1375.22,1039.51,1372.87,1048.58,1383.9z"/>
<path class="st8" d="M1105.08,1459.98l-2.27,3.78c-37.56,17.04-75.57,32.44-114.02,46.23c-2.01-3.16-0.25-5.52,5.3-7.07
	c-1.51-3.38-0.38-3.62,2.55-1.58c25.7-19.2,51.66-38.04,77.88-56.52c6.06-5.24,12.58-8.26,19.57-9.05
	C1102.15,1441.93,1106.65,1450.62,1105.08,1459.98z"/>
<path class="st6" d="M885.38,1492.37c-0.12,6.8-9.5,12.8-15.29,16.26c-20.67,12.36-48.57,1.59-67.29-9.88l-1.63-3.96
	c-2.72-2.27-5.93-4.47-7.31-7.2c-1.54-3.03-0.84-9.24,3.32-9.8c8.5-1.14,13.24,7.81,22.4,10.48c-1.95-8.21-10.77-12.39-14.59-19.83
	c-2.37-4.62,0.07-11.26,3.84-13.1c14.74-7.17,18.84,26.57,28.68,30.86c-0.99-11.82-29.71-49.04-8-51.73
	c6.83-0.85,11.47,3.94,12.53,10.9l7.74,50.91c4.27-15.91-8.88-57.51,2.63-65.81c3.78-2.72,8.89-2.51,12.54-0.04
	c13.02,8.83-7.01,42.71-4.76,59.05c6.59-12.16,11.83-62.65,30.31-45.24c10.92,10.3-15.91,31.44-20.15,48.6
	c8.21-3.59,23.75-37.87,33.35-29.4C910.43,1469.38,892.53,1484.8,885.38,1492.37z"/>
<path class="st14" d="M957.72,1483.86c-0.94,3.54-3.5,3.3-4.9-0.11l-0.84-3.72C953.99,1474.17,963.02,1479.98,957.72,1483.86z"/>
<path class="st14" d="M965.71,1482.44l-3.79-0.39c-7.49-13.82-15.68-27.05-24.59-39.68l-2.14-5.23c0.06-2.12-0.69-4.5-0.32-6.58
	c0.87-3.42,1.62-3.47,4.39-1.75c6.35,3.96,25.11,42.22,28.24,51.08L965.71,1482.44z"/>
<path class="st14" d="M1094.08,1435.78c-33.84,19.42-63.41,46.72-97.45,65.57l90.91-77.59
	C1090.6,1427.16,1092.24,1431.62,1094.08,1435.78z"/>
<path class="st14" d="M963.02,1489.23c-4.05,2.88-8.23-1.46-5.3-5.37C961.93,1481.66,965.18,1484.94,963.02,1489.23z"/>
<path class="st14" d="M1010.02,1386.35l-26.74,115.4c2.24,3.92,10.44,2.08,13.35-0.4c-2.06,1.14-5.26,3.37-6.91,7.44l115.36-48.82
	c-1.52,9.07-3.92,17.89-12.52,22.74c-4.97,2.5-10.61,4.16-16.93,4.95c-23.51,7.92-47.3,14.97-71.37,21.17l0.23,2.29l34.56,0.08
	c2.41,2.2,1.14,4.46-1.83,5.54c-10.05,2.23-20.31,3.2-30.77,2.92c-3.84,1.74-7.25,2.36-10.22,1.86c-1.35,0.65-3.49,2.7-5.03,2.72
	l-4.82-1.74c-6.31-7.73-12.51-15.58-18.57-23.54l-0.18-2.08c-4.36-0.47-8.3-4.37-4.59-7.67c0.92-2.16,2.22-3.9,3.9-5.21l2.69-1.38
	l-20.64-82l2.2-2.21c4.54-0.9,8.79,0.96,13.09,2.35l2.85,0.78l13.8,82.18c0.29,1.02,3.17-18.41,3.51-20.98
	c2.65-19.61,5.47-40.66,7.34-60.23c0.61-6.43-0.75-12.82-2.52-18.96l1.99-2.72L1010.02,1386.35z"/>
<path class="st8" d="M770.4,1515c-22.7,11.8-49.23,8.95-71.34,0.33l15.97,0.03l-21.44-9.89c-2.53-1.17-2.96-5.61-2.6-7.62
	c1.03-5.84,18.9,4.65,13.71-1.8c-3.55-4.41-7.24-6.58-10.04-11.11c-1.4-2.27,0.37-9.97,4.53-8.85c12.25,3.3,16.03,17.65,25.35,25.69
	c-0.94-9.95-24.86-32.87-11.19-39.17c14.23-6.56,17.99,27.3,18.43,35.05l4.87-30.98c0.64-4.07,7.05-1.79,9.25-0.38
	c9.88,6.33-2.58,29.21-5.41,40.44c9.45-7.33,11.29-30.82,19.29-23.58c7.39,6.69-7.08,22.49-13.04,28.73
	C755.12,1513.09,762.79,1508.48,770.4,1515z"/>
<path class="st8" d="M991.25,1380.86c2.13,7.12,4.36,15.78,2.87,24.26c-5.3,30.23-4.9,60.43-13.7,91.84l-16.15-96.18
	c-0.22-6.04,4.43-13.34,8.14-16.97C977.61,1378.74,985.24,1379.1,991.25,1380.86z"/>
<path class="st8" d="M1092.56,1482.72c-3.18,4.33-6.45,10.94-11.82,13.62c0.05,2.2-25.87,7.43-24.62,7.04
	c6.44-2.01,15.23-3.93,22-5.34c0.82-0.17,1.71-0.02,2.61,0.23c5.14,2.57,12.33,3.26,16.74,7.93c2.71,2.87-2.98,7.53-6.51,8.29
	c-10.47,2.24-92.04,18.26-94.75,7.06c10.19-9.72,28.29-0.83,42.79-8.54l-48.22-1.21l76.37-24.32
	C1075.87,1484.7,1084.15,1482.03,1092.56,1482.72z"/>
<path class="st8" d="M965.71,1482.44c0.26,0.59,0.9,1.02,1.21,1.58c0.14,1.65,0.2,3.15,0.82,3.8c1.62,1.69,0.53,3.4-1.59,2.81
	c-0.81-0.23-2.11-0.99-3.14-1.4c-1.21-2.14-3.06-4.29-5.3-5.37c-0.48-1.24-0.39-2.7-1.51-3.2c-1.58-0.71-2.91-0.7-4.23-0.63
	c-9.88-12.26-17.26-27.04-16.78-42.89C950.14,1447.92,953.58,1468.49,965.71,1482.44z"/>
<path class="st8" d="M957.72,1483.86c0.91,2.36,2.95,4.42,5.3,5.37c0.89,1.57,1.76,5.58,4.29,4.79c1.1-0.34,2.29-2.99,3.07-1.28
	c0.3,0.65,0.78,2.44,1.71,3.84c0.4,0.6-2.18-0.45-2.57,0.63l21.66,27.06c-19.55,0.35-41.19-0.84-58.96-11.69
	c2.73-9.05,11.96-10.08,19.65-11.65c2.01-5.61,2.11-12.03,0.95-17.17C954.28,1483.98,956.32,1483.19,957.72,1483.86z"/>
<path class="st8" d="M951.18,1398.44l24.19,96.11c-4.5-2.83-4.23-8.41-8.45-10.52c-0.51-0.25-0.83-1.14-1.21-1.58
	c-1.6-3.61-25.87-58.09-30.83-51.89C937.05,1418.29,938.37,1400.96,951.18,1398.44z"/>
<path class="st8" d="M801.16,1494.79c34.48,19.04,54.99,28.53,84.22-2.42c38.73,16.37-35.22,33.38-82.99,14.72
	c-2.91-1.14-5.86-3.68-6.03-6.08C796.17,1498.32,800.56,1497.66,801.16,1494.79z"/>
<path class="st14" d="M1080.74,1496.34l-0.01,1.93c-23.58,10.37-50.59,11.99-76.51,11.87L1080.74,1496.34z"/>
<path class="st0" d="M633.21,1396.95c-2.26,3.75-7.71,6.4-9.15,10.86c-7.59,8.28-13.23,17.33-16.91,27.14l-2.95,1.66
	c-2.12-0.97-5.31-1.19-6.21-3.68c-0.82-2.26,0.74-5.55,2.68-7.66l37.16-40.34C636.95,1388.89,635.43,1393.27,633.21,1396.95z"/>
<path class="st8" d="M611.71,1439.91c-2.33-0.79-5.18-2.23-7.51-3.3c1.18-11.64,10.65-21.73,19.86-28.8
	C620.4,1419.18,609.75,1427.64,611.71,1439.91z"/>
<path class="st4" d="M853.29,628.18c2.21-3.77,8.59-4.43,10.39-0.19c3.23-0.34,6.21,0.68,4.05,4.33c3.12,1.51,4.01,3.21,2.66,5.1
	l9.17,12.64l47.37,96.94c-0.73,2.72-1.01,2.96-3.65,4.12c-3.13,1.37-59.31-7.43-67.76-8.87l-1.23-2.86
	c-3.02,3.8-14.1,1.7-15.86-2.73l-4.6,1.1c-19.24-1.72-38.51-3.65-57.81-5.78c-4.75,0.06-5.72-1.68-5.87-5.47l61.4-78.52
	l-108.22,76.55c-2.05,0.98-4.4,1.69-6.68,1.45c-2.24,3.83-6.61,5.56-13.11,5.18c-45.79-0.57-89.95,1.22-135.47,10.06
	c-4.12,0.8-24.42,5.06-23.7,8.42c1.33,6.16,17.98,14.91,23.62,17.81c27.01,13.92,56.05,24.39,84.46,34.22l0.78,3.04l6.47-0.02
	c53.72,12.43,106.83,23.13,159.33,32.1c3.23-0.81,5.64-0.24,7.23,1.72c3.49,7.43,1.89,22.36-4.07,28.15l-0.93,2.68
	c0,0-121.94,0.42-365.81,1.25l-1.66-2.67l-7.07-2.51c-33.11-24.32-76.18-46.93-116.49-27.58c-18.97,9.41-38.58,15.82-58.82,19.25
	c-6.28,1.19-10.29-0.12-12.03-3.93l-0.74-17.56c-0.9,6.94-2.06,13.83-3.48,20.67c-23.61,10.03-47.81,12.23-73.03,8.94
	c-1.08-0.1-2.15-0.25-3.16-0.58c-4.8-1.55-30.41-32.57-35.66-39.42l-1.7-5.63l-1.56-3.17c14.56-44.6,29.28-89.16,44.17-133.66
	l3.05-0.7l5.69-1.43c38.8,1.93,77.32,2.26,115.54,1c0.83,5.18,2.75,10.33,3.03,16.15l31.09-27.19
	c-23.29,54.8-29.48,39.25-16.44,103.21c24.89-24.99,39.35-58.46,46.05-92.03l1.27-2.67c37.34,0.39,74.71,0.79,112.11,1.18l4.72,2.73
	c5.23,6.21,11.7,11.55,16.74,20.15c1.69-5.51,3.99-11.19,4.5-16.36l5.71-2.43c34.9-0.79,68.9,3.16,102.01,11.85
	c69.33-34.62,146.3-56.25,222.7-68.76c1.8-0.3,3.68-0.2,5.58-0.07C849.47,627.48,851.38,627.8,853.29,628.18z"/>
<path class="st12" d="M281.49,469.93c-4.91,13.32-10.71,26.34-17.4,39.05l-4.24,2.41l-1.12,6.02
	c-15.27,33.77-30.19,67.69-44.76,101.74l-3.79,4.77c-0.15,5.21-0.23,7.81-0.23,7.81l-17.76,44.32l-4.9,5.96l-45.66,137.54
	c-0.94,0.54-2.39,1.32-3,0.78c-7.54-6.59-19.16-18.07-25.46-25.66c-3.5-2.35-4.71-4.84-3.62-7.45
	c14.31-34.96,26.11-71.03,41.51-105.62l28.08-63.06c0.02-1.75,0.11-3.48,0.38-5.19c0.27-1.68,0.57-3.33,1.25-4.8
	c16.56-36.23,39.49-72.28,62.17-105.05c0.92-1.33,2.18-2.43,3.48-3.53c1.32-1.12,2.75-2.09,4.23-3.02l-0.49-3.93
	c8.28-10.56,16.82-20.83,25.63-30.82c2.3-2.2,4.72-6.71,8.86-6.49C285.11,460.76,281.55,465.56,281.49,469.93z"/>
<path class="st4" d="M250.64,496.93c-26.64,38.91-52.36,78.6-71.51,121.6l-63.61-3.07c8.29-4.39,17.79-4.86,28.17-8.47
	c-30.37-5.31-61.08-8.13-91.58-7.14c7.23-3.99,20.04-2.17,24.12-10.63l21.2-43.95l-1.35,34.51c17.76-11.91,39.73-16.48,54.22-30.06
	l23.7-43.99c4.62,9.27-0.88,18.63-3.06,29.54c12.11-2.2,22.15-9.18,31.48-16.66l37.12-29.75
	C243.54,489.05,252.87,492.02,250.64,496.93z"/>
<path class="st4" d="M280.93,515.49c-0.18,14.68,0.81,29.81,3.68,44.77c11.24-5.62,17.65-14.84,28.5-20.98l-25.23,38.06
	c-2.7,14.99,5.42,29.89,6.78,43.96c4.54-0.68,10.25,9.79,3.81,10.34l-4.01,1.42c-25.48-2.16-51.03-4.27-76.67-6.31l-7.62-2.83
	c14.88-37.98,30.52-76.13,49.68-112.54C264.14,507.1,277.91,510.54,280.93,515.49z"/>
<path class="st3" d="M298.47,631.64c1.79-4.84,9.08-1.3,5.53,3.2c-8.37,10.23,0.91,24.25,4.51,46.75c-0.13,1.46-0.95,2.83-3.21,2.94
	c-39.82,1.91-78.95,0-118.03-2.52c6.46-19.46,15.34-38.82,22.89-58.09C239.74,624.11,269.03,629.01,298.47,631.64z"/>
<path class="st4" d="M365.38,540.87c8.43,12.12,17.46,23.99,27.25,36.09l12-29.25c3.73,58.92-0.56,50.4,45.26,87.24
	c2.59-1.9,12.68,0.12,12.75,3.87c-0.21,5.42,1.55,10.69,2.15,16.04c0.05,5.73-5.99,4.72-10.22,2.91
	c-20.98-11.46-49.25-11.4-73.13-11.3l-5.17-2.22c-5.55-10.86-0.04-24.09-2.29-36.8c-4.3-24.41-12.5-48.33-24.18-69.24
	C352.56,533.44,361.81,537.54,365.38,540.87z"/>
<path class="st3" d="M464.78,654.86c9.15,8.57,17.54,18.6,25.54,28.11l-118.09-1.24c2.38-11.93,3.05-25.44,4.02-37.48
	c22.26-2.49,46.82,1.09,69.1,5.84C451.05,651.3,457.98,659.97,464.78,654.86z"/>
<path class="st3" d="M280.93,515.49c-7.04-1.35-13.91-3.78-21.08-4.11c7.22-13.72,12.55-28.76,21.64-41.46L280.93,515.49z"/>
<path class="st3" d="M365.38,540.87l-15.58-2.66l-20.66-36.99l-0.51-5.61C343.27,507.87,354.15,524.72,365.38,540.87z"/>
<path class="st14" d="M275.78,462.19c-5.02,13.02-17.05,22.94-25.14,34.75c-2.76-3.97-8.87-3.24-11.09-8.06
	C251.2,479.53,262.02,468.3,275.78,462.19z"/>
<path class="st15" d="M202.46,335.09c-0.92-1.13-1.5-2.5-1.76-3.92c2.84-0.06,6.16,1.83,8.57-0.82c1.46-1.61,3.19-3.87,3.8-6.28
	c9.71,4.16,20.13,6.77,30.74,12.9C229.62,338.14,216.07,335.85,202.46,335.09z"/>
<path class="st14" d="M304,634.85c-0.18-2.6-3.32-3.01-5.53-3.2c2.07-4.07-3.5-7.09-3.81-10.34c10.28-2.44,17.43-11.68,28.19-16.45
	C316.96,615.96,311.19,626.06,304,634.85z"/>
<path class="st15" d="M233.21,388.59c3.11-2.18,7.46-0.35,10.3-3.03c4.33,6.97,14.43,12.63,14.61,23.14
	C247.53,404.43,241.53,393.82,233.21,388.59z"/>
<path class="st13" d="M905.5,302.49c3.92,3.29,7.8,6.57,11.07,10.53c21.37,25.95,42.26,57.93,59.85,86.71
	c0.86,1.41,1.33,3.08,1.8,4.78c0.48,1.71,0.76,3.48,0.99,5.26c11.47,19.98,22.31,41.9,31.88,62.93
	c7.92,17.39,18.21,36.31,25.28,53.92l32.21,80.2l24.41,77.88l22.87,92.04l-2.66,1.26c-39.08-32.8-58.63-49.2-58.63-49.2l0.5-3.08
	l-2.96-5.36c-2.46-11.03-5.28-21.99-8.46-32.88l2.18-3.25l-3.55-5.44c-5.6-25-12.67-49.61-21.22-73.83c0,0,0.31-2.14,0.94-6.41
	c-1.08-1.29-2.11-2.61-2.99-4.02c-0.85-1.38-1.65-2.76-2.13-4.25c-5.73-17.58-11.35-35.38-16.86-53.04
	c-0.97-3.12-0.89-6.46-0.78-9.7l-2.92-2.63c-8.19-20.28-16.45-40.6-24.79-60.98l-0.6-7.42c-1.18-0.83-2.33-1.7-3.34-2.7
	c-4.29-4.24-17.02-29.63-17.9-35.64c-0.21-1.41-0.23-2.85-0.2-4.29l-3.43-2.76c-14.82-28.67-30.02-57.2-45.61-85.6l-2.21-8.1
	c-0.29-7.52-6.19-15.2-4.81-23.55C898.76,294.77,901.5,300.37,905.5,302.49z"/>
<path class="st0" d="M1056.38,402.57c-25.85,2-52.09-0.28-77.17,7.21c-21.7-37.78-48.01-72.2-73.71-107.28
	c40.71,21.59,62.36,58.02,109.73,73.31l-4.73-35.43l26.26,43.52C1041.88,392.36,1047.86,398.22,1056.38,402.57z"/>
<path class="st13" d="M107.26,787.19c0.76-0.09,1.52-0.07,2.28,0.02l32.09,32.33c14.22,14.33,25.9,31.69,40.52,45.63
	c1.17,0.38,1.15,0.83,0,1.34l4.98,2.2c13.42,13.11,28.99,23.71,46.71,31.78l1.6,4.02c2.04,1.7,1.66,3.06-0.97,3.45l-3.66,1.16
	l-17.43-10.8l36.32,36.91c0,0,0.75,2.07,2.26,6.22c0.95-0.52,2.4-1.26,3-0.72c7.59,6.82,15.23,16.18,21.17,23.57
	c8.41-3.07,16.92-6.02,25.54-8.84l5.11,0.81c0.23-2.96,3.43-3.83,9.61-2.61l5.03-1.16c-1.5-3.6,12.21-6.24,14.62-6.07
	c18.62,1.33,6.36,26.7-9.22,20.48c-2.03,2.31-5.28,3.67-9.76,4.06l-17.51,7.14l-3.47-1.92c-7.81,5.66-21.4,9.73-30.96,8.35
	l-2.9,3.64l-23.35,6.64l-4.46-1.12c-0.06,1.29-0.48,2.43-1.35,3.39c-0.73,0.81-18.43,5.56-20.89,5.99l-3.27-1.42
	c-6.01,3.11-14.38,2.15-20.14,6.65c1.07,4.71-11.66,7.2-15.35,7.11c-3.07-0.07-5.49-0.59-7.81-2.69
	c-12.14-11.05,5.85-20.18,15.8-21.88c0.87-3.78,3.63-3.49,4.42,0.24l2.43-2.64c12.28-2.39,24.42-6,36.42-10.84
	c-5.05-12.68-10.99-25.26-17.83-37.74l0.83-4.93c-3.35-0.63-4.18-2.46-5.09-5.53c-4.56-8.63-9.84-22.53-9.93-32.14
	c-2,1.1-4.44,1.03-6.55,0.08c-3.83-0.41-3.97-4.48,0.01-5.11l-2.1-2.3c0.02-7.95-4.56-14.72-13.74-20.33l0.85-2.93l-5.62-2.16
	c-7.82-10.32-16.2-20.14-25.11-29.45l-0.89-4.28c-10.48-9.15-18.22-25.87-31.17-28.6c2.48-5.85-6.01-9.42-2.83-14.8
	C105.9,786.61,106.5,786.61,107.26,787.19z"/>
<path class="st14" d="M991.19,685.8l6.26,1.83c18.87,10.99,37.5,22.25,55.87,33.8l1.74,4.3l60.79,51.01
	c11.94,10.02,22.02,25.29,30.66,37.25l-3.16,0.83c-6.59-3.67-13.53-6.65-20.83-8.93l-3.08-4.77
	c-16.25-11.18-36.36-12.36-54.47-18.65l-7.8,0.23c-26.11-6.86-52.11-13.82-77.99-20.87l-3.09-2.69c-5.42-3.98-8.12-5.97-8.12-5.97
	c-27.46-36.53-57.1-71.14-88.93-103.84l-8.66-11.92c-0.78-1.59-2.78-2.7-2.66-5.1c7.05-1.67,14.62-0.51,22.71,3.5
	c32.86,14.4,65.31,29.66,97.37,45.78L991.19,685.8z"/>
<path class="st12" d="M1146.52,813.99c2.92,2.72,3.27,6.04,2.94,9.32c-0.83,8.28-14.48,13.78-21.32,15.07l-8.69-37.25
	C1127.25,806.49,1139.14,807.13,1146.52,813.99z"/>
<path class="st3" d="M517.92,459.45c0.5,0.69,1.18,1.83,1.89,2.28l2.59,3c6.84,5.48,10.59,15.02,20.06,17.21
	c21.26,4.92,41.84,5.85,64.95,8.11l-17.9-23.62c24.35-1.25,48.85-1.69,73.19-0.42c-5.72,13.28-4.26,30.12-7.49,44.42l47.89-37.38
	c2.2-3.43,5.72-4.99,10.56-4.69c23.98,0.77,47.95,1.83,71.91,3.16l3.09,2.42c1.65,43.31,11.19,84.75,37.26,122.14
	c12.22-76.73,18.87-38.15-11.67-102.22l33.35,32.39l5.12-1.94c45.02-2.55,91.29-4.35,136.38-0.34c1.72,0.15,3.41,0.71,5.12,1.31
	c1.72,0.6,3.38,1.4,5.02,2.25c9.04,23.4,16.01,46.92,22.75,71.01l-7.14,2.21c-49-2.56-96.89,10.1-143.38,24.2
	c0,0-2.45-0.19-7.35-0.58l-2.29-2.07l6.7-31.76c-4.72-10.82-6.93-1.82-8.17,5.02l-3.02,30.4c-0.28,1.05-1.64,1.78-4.06,2.19
	C771.87,642,692.63,662,619.59,698.72c-36.3-11.35-72.63-10.27-108.03-11.96c-0.31-44.29-17.92-84.54-31.76-125.58
	c2.56-0.76,2.37-1.16-0.42-1.24c-15.22-45.14-67.12-78.49-113.87-91.29c-4.95-3.36,0.76-7.62,5.59-7.47l66.57,10.17
	c-0.14-4.55,5.34-10.83,9.82-8.22c20.33,12.99,45.7,15.2,69.3,17.64c-2.02-7.06-5.44-9.76-6.46-14.61l-1.12-1.56l-0.05-2.43
	C508.89,457.59,515.13,455.79,517.92,459.45z"/>
<path class="st1" d="M970.94,456.52c11.44,22.97,19.08,47.14,28.31,71.03c-49.89-4.73-101.72-2.73-151.64-1.28
	c1.79-13.23,9.97-24.6,13.7-37.5c2.84-5.79,14.68-5.59,20.96-5.2c8.4,0.52,16.46,2.88,23.74,7.11c2.95-24.74,21.34-38.2,45.72-39.01
	C958.24,451.46,966.76,451.21,970.94,456.52z"/>
<path class="st6" d="M970.94,456.52c-16-3.89-33.02-3.17-47.1,6.67c-10.34,7.23-13.98,18.23-15.8,31.97
	c-15.13-10.31-31.05-10.75-46.74-6.4c0.94-3.25-1.22-8.84-2.83-11.78c-2.69-5.55,2.93-11.87,8.22-12.26
	c4.4-12.34,10.84-24.5,13.33-37.46c2.89-1.97,5.89-3.96,9.32-4.83c17.78-4.52,36.74-7.29,54.87-9.41l5.29,0.86
	C956.65,427.74,964.01,442.61,970.94,456.52z"/>
<path class="st0" d="M949.5,413.89c-23.24,4.2-46.45,8-69.48,13.38c3.57-18.62-8.73-35.41-11.41-55.62l18.12,26.15
	c7.52-27.35,12.54-53.89,11.52-80.37C918.04,347.78,932.95,381.82,949.5,413.89z"/>
<path class="st4" d="M761.41,422.81l3.41-1.29l25.03,8.63c5.55,1.44,8.38,4.07,8.51,7.89c-3.14,12.28-10.17,23.37-9.69,35.93
	c-25.2,2.67-64.11-7.73-85.56-0.9c6.42-15.16,3.13-32.6,7.09-51.1l11.13,38.46C734.14,451.01,758.99,434.41,761.41,422.81z"/>
<path class="st0" d="M798.35,438.04c-10.18-8.18-25-8.83-36.94-15.23c2.62-12.56,4.5-26.21,12.42-37.99l4.36,23.58
	c29.5-28.01,51.49-62.54,77.48-86.82c-15.75,27.77-40.59,50.98-48.89,83.49L798.35,438.04z"/>
<path class="st14" d="M866.69,464.73c-1.59,4.46-7.93,6.87-8.22,12.26c-8.1-14.82-16.31-30.46-20.45-46.89L866.69,464.73z"/>
<path class="st1" d="M479.81,561.18l-0.42-1.24c15.54-5.43,32.32-6.3,49.99-4.43c6.03-16.85,21.61-24.86,39.23-17.57
	c3.87-21.79,19.76-31.06,36.75-33.13c21.31-2.6,31.4,18.69,43.17,26.65c15.37,2.8,35.09,1.76,42.25,19.95
	c33.71-1.69,68.75,3.51,101.53,12.08l-238.97,0.09C527.75,563.58,504.11,563.52,479.81,561.18z"/>
<path class="st3" d="M462.63,638.83c-4.32-0.8-9.23-1.05-12.75-3.87c4.32-11.24,5.8-23.25,12.11-35.7
	C463.09,612.48,463.14,625.69,462.63,638.83z"/>
<path class="st15" d="M371.11,461.18c-2.33,2.22-5.31,4.05-5.59,7.47l-50.92-13.94C334.14,454.04,352.69,458.37,371.11,461.18z"/>
<path class="st6" d="M447.5,463.13c-4.22,1.62-5.98,6.48-9.82,8.22c-3.91-11.85-14.34-20.6-20.84-32.89
	C427.88,444.67,436.66,456.2,447.5,463.13z"/>
<path class="st14" d="M517.92,459.45c-3.21-0.66-5.62,2.18-8.75,2.72c-4.19-9.33-12.03-16.21-14.76-27.06
	C502.82,443.12,511.41,450.44,517.92,459.45z"/>
<path class="st1" d="M899.63,1155.65l2.04-1.97l107.65,54.45c11.95,4.44,24.23,7.77,36.84,10l2.76,3.47
	c-7.39,33.6-13.67,67.55-23.35,100.63c-76.49-10.68-152.78-21.12-229.93-25.9l-3.01-2.59c-1.35-9.72-0.06-18.46,3.88-26.24
	C836.56,1235.43,871.94,1198.44,899.63,1155.65z"/>
<path class="st13" d="M795.64,1296.32l-5.27,22.16c-4.25,3.49-13.07,0.23-18.06-1.28c-1.67-11.42,7.74-24.38-1.25-27.56
	c8.16-7.08,16.72-15.15,25.45-22.14C795.94,1277.1,794.18,1286.88,795.64,1296.32z"/>
<path class="st6" d="M234.42,993.7l3.35-0.11c50.2,64.46,106.45,133.19,182.35,171.06c15.44,7.7,31.95,13.91,49.24,15.03l3.4,2.78
	c47.23,2.72,92.18,2.88,138.82-6.47c108.35-21.72,201.01-82.42,279.82-158.6l4.64-2.18c9.15,2.06,16.45,6.83,24.01,12.17
	c-65.92,81.88-157.1,149.4-256.38,186.13c-99.02,36.64-211.23,20.03-298.96-36.53c-66.95-43.16-121.05-104.65-155.81-175.33
	C216.93,997.51,226.3,997.14,234.42,993.7z"/>
<path class="st5" d="M183.75,932.43c1.05,0.15,2.62,0.59,2.62,1.34c-0.01,17.5-1.14,38.08-2.66,55.56
	c-0.06,0.71-1.28,1.16-2.29,1.51c-0.32,8.14-17.1,2.32-16.43,14.46c0.29,5.17,4.63,8.72,10.86,7.04c3.49-0.94,10.15-1.87,12.92-4.04
	l17.7,55.08l-2.51,2.26c-27.75-9.64-55.34-19.98-82.79-31.03c-6.03-0.73-10.31-2.77-12.84-6.11c1.81-34.98,5.86-70.23,13.72-104.38
	l1.26-2.53c19.73,2.66,39.47,5.32,59.22,7.98L183.75,932.43z"/>
<path class="st1" d="M206.47,1063.39c7.23,1.16,5.02,9.56,7.74,14.52c-17.23-0.29-34.09-3.72-50.43-10.91
	c-18.07-9.98-36.98-16.71-56.6-20.94c0.96-4.65,0.92-12.83,1.16-17.55C135.18,1033.37,185.8,1060.07,206.47,1063.39z"/>
<path class="st7" d="M183.75,932.43l-61.69-8.31l3.64-15.82l4.84-2.46c16.56-0.28,33-1.98,49.32-5.09l5.11,1.97
	c0.71,0.54,1.38,1.11,1.88,1.81C188.39,906.64,187.7,929.73,183.75,932.43z"/>
<path class="st7" d="M171.14,866.66c7.55,7.79,19.52,12.64,14.99,25.57l-2.47,1.71c-16.52-0.47-33.17-1.18-49.95-2.14l-4.85-2.48
	c2.33-6.83,0.51-15.29,5.05-21.32l1.11-2.72c0,0,10.33-0.37,30.99-1.11L171.14,866.66z"/>
<path class="st5" d="M186.13,892.23c-0.54,1.53,0.31,3.53-0.01,5.11c3.53,1.6,2.39,4.54-1.16,5.39c-19.68,2.71-39.4,6.92-59.27,5.57
	c1.42-6.18,1.03-12.74,3.17-18.98C148.04,888.13,166.99,891.76,186.13,892.23z"/>
<path class="st4" d="M171.14,866.66L133.91,868l5.59-37.23C151.88,840.74,160,855.17,171.14,866.66z"/>
<path class="st5" d="M1072.88,925.29c3.22,63.93,1.65,128.5-8.46,191.79c-6.52,2.25-13.75,3.07-21.68,2.45
	c-17.5,2.02-34.45,6.7-50.87,14.04c-25.67,6.97-43.4-14.35-55.83-33.56l0.96-3.36c5.82-15.79,14.86-31.51,19.43-47.88
	c1.02-2.67,2.95-3.43,5.21-2.25l6.47,3.38c3.26,1.7,6.48,2.94,9.88,2.07c2.54-0.65,4.92-4.81,2.79-8.11
	c-2.77-4.28-9.66-4.43-12.68-8.53l12.36-76.27c2.14-13.18,6.41-17.73,12.05-26.95l4.6-2.21c23.79-0.28,47.51-2.6,71.16-6.94
	L1072.88,925.29z"/>
<path class="st7" d="M1062.01,1136.88c-1.11,28.53-7.05,57.26-13.09,84.71c-14.7-3.92-29.75-5.37-43.99-12.58l-105.3-53.36
	c9.66-14.93,16.87-32.16,28.45-45.39l4.51,1.99c19.55,28.74,36.68,38.16,69.48,28.61c15.18-7.06,30.69-10.82,46.51-11.27
	C1055.87,1129.78,1060.34,1132.21,1062.01,1136.88z"/>
<path class="st1" d="M937,1096.65c14.33,21.2,31.25,45.68,63.63,31.02c20.65-9.35,41.46-12.59,63.79-10.59
	c-1,6.26-2.16,13.52-2.41,19.8c-40.69-24.1-82.78,53.61-133.93-26.62C931.45,1106.41,931.9,1098.67,937,1096.65z"/>
<path class="st8" d="M555.99,1436.7l-3.47,75.85c-4.13-25.18-0.4-49.15,0.43-75.46c-23.01,0.92-42.12,12.02-65.28,17.56
	c19.24-10.94,42.23-15.36,64.42-20.57c-9.25-17.74-25.23-28.24-35.85-44.32c16.12,12.27,26.43,29.01,40.05,42.33
	c2.31-1.82,4.82-3.6,4.79-2.23c-0.04,1.7-1.04,0.49-4.03,4.2c19.11,7.63,39.94,11.89,57.94,23.38
	C594.56,1451.38,576.82,1441,555.99,1436.7z"/>
<path class="st8" d="M573.27,1420.38c6.95-7.07,15.58-13.3,25.85-17.9C591.35,1409.22,583.62,1415.06,573.27,1420.38z"/>
<path class="st8" d="M604.15,1397.9c5.74-1.95-1.83,3.43-1.65,3.25c-1.79,1.77-3.54,0.41-2.23-0.72
	C601.93,1399,602.68,1398.4,604.15,1397.9z"/>
<path class="st8" d="M571.55,1421.57c-2.37,3.72-5.41,5.79-9.3,6.97C564.4,1425.72,565.37,1424.54,571.55,1421.57z"/>
<path class="st6" d="M372.59,1459.43c3.54,1.85,7.49,3.6,9.49,7.17c-9.99,13.71-28.49,21.55-44.85,15.44
	c-7.13-2.66-13.6-6.85-11.04-14.81C343.59,1473.83,359.41,1469.94,372.59,1459.43z"/>
<path class="st1" d="M224.92,1232.06c-13.13-0.11-24.62-1-35.99,6.53c4.37-7.93,12.29-14.35,19.6-20.76
	C216.17,1221.34,220.73,1226.61,224.92,1232.06z"/>
<path class="st14" d="M896.05,1015.21c-42.46,43.68-93.06,83.07-147.5,113.1c-83.28,45.94-183.17,69.05-275.78,54.15l3.38-2.75
	c9.2-2.1,22.06-3.3,31.21-1.63l5.54-3.3c0,0,14.6-2.67,43.8-8.01c8.56-3.21,17.21-5.15,25.97-5.82l5.01-3.6
	c17.32-3.74,34.14-9.12,50.45-16.12l6.02-0.28l2.35-2.99c18.66-5.78,36.57-14.03,53.73-24.75l9.7-1.43l6.19-5.44
	c27.42-12.17,53.5-26.75,78.23-43.75l4.18-0.89l1.93-4.49c7.48-3.01,13.29-7.48,17.43-13.39l3.07-0.52
	c17.41-10.14,33.79-22.94,48.79-36.63l3.11,0.49C881.09,1003.28,888.51,1013.52,896.05,1015.21z"/>
<path class="st7" d="M1030.01,868.01c-14.33,23.84-32.01,47.22-50.95,67.7l-5.21,1.37c-43.94-10.97-91.21-17.83-135.54-5.34
	l-5.29-1.07c-3.83-3.1-2.13-13.56-1.28-18.77c-0.1-5.52,1.54-8.59,4.93-9.2l3.77-2.41c9.76-0.13,22.89-0.84,31.76-4.99
	c2.97-1.39-28.87-7.21-31-3.64l-2.86-2.24l-2.44-1.89l2.55-18.06l2.66-1.48l0.93-2.68c62.1,0.01,124.21,0.01,186.33,0.02
	L1030.01,868.01z"/>
<path class="st5" d="M979.06,935.71c-4.1,4.44-7.84,8.99-14.31,12.23c-28.44,14.22-54.92,31-82.06,47.33
	c-6.42-1.66-11.94-7.2-17.9-6.03c-4.44,1.17-4.61,8.03-2.34,11.51c1.92,2.95,8.2,1.76,10.42,6.41c-1.35,2.92-51.43,44.34-51.9,36.14
	c-0.7-1.09-1.36-2.21-1.83-3.39c-0.47-1.18-0.92-2.31-0.89-3.41c1.02-34.47,6.42-68.9,12.59-102.64l2.17-3.19
	C875.94,915.43,935.85,923.77,979.06,935.71z"/>
<path class="st12" d="M976.1,759.14c29.51,8.18,59.88,13.27,88.87,23.33l0.25,29.66c0.11,12.46-11.4,23.85-19.34,32.94
	c-7.35,4.02-20.33,5.57-28.25,2.83c-1.92,4.14-7.31,3.41-9.17-0.52l-3.74-1.44l-42.75-84.19
	C960.81,753.24,971.13,755.73,976.1,759.14z"/>
<path class="st4" d="M1008.47,847.39c2.96-0.08,6.25,1.03,9.17,0.52c5.86,2.8,12.1,5,18.71,6.61l1.35,3.57
	c-2.2,3.4-5.12,7.05-7.68,9.93l-188.9-0.02c-1.13-0.76-2.38-1.63-2.72-2.92c-0.58-2.19,1.52-17.11,2.4-20.02l2.99-2.51
	c3.43-0.84,6.95-1.6,10.5-1.35c47.94,3.37,95.69,6.65,143.83,3.78C998.12,844.97,1001.57,845.78,1008.47,847.39z"/>
<path class="st7" d="M1069.97,867.66l2.91,57.63c-26.91,1.77-53.3,10.26-80.36,6.83c13.74-22.49,31.5-42.54,46.92-64.28l3.78-2.7
	c0,0,8.27-0.05,24.82-0.14L1069.97,867.66z"/>
<path class="st5" d="M918.22,1010.16c-12.23-2.35-20.99-7.23-32.25-13.51l82.64-46.52L918.22,1010.16z"/>
<path class="st5" d="M939.61,1020.92c-7.7-1.31-11.76-5.08-18.09-8.08c13.92-17.74,28.06-35.58,46.13-52.19L939.61,1020.92z"/>
<path class="st4" d="M1069.97,867.66l-30.53,0.18c6.59-9.3,21.33-36.07,29-26.91C1071,849.24,1069.54,859.22,1069.97,867.66z"/>
<path class="st14" d="M1045.89,845.08c-1.35,4.93-5.5,8.84-8.19,13.01c-6.81-3.84-17.15-2.22-20.05-10.18
	C1026.98,846.26,1036.39,845.01,1045.89,845.08z"/>
<path class="st5" d="M963.73,1033.79c-6.9-2.9-13.4-5.54-20.98-9.91c10.48-22.94,21.73-45.27,34.84-66.58
	C974.63,985.07,964.39,1007.86,963.73,1033.79z"/>
<path class="st14" d="M1058.36,1396.68c1.32,4.36-1.42,8.52-4.22,12.44l-62.25,87.41c1.85-11.57,9.87-20.55,15.85-30.93
	c15.46-26.84,31.35-52.96,40.83-81.71C1051.9,1387.95,1056.74,1391.34,1058.36,1396.68z"/>
<path class="st7" d="M453.79,867.91l368.4-1.26l2.15,2.75l-1.47,17.44c0.15,3.87-1.24,6.02-4.15,6.46c-3.69-2.73-5.54-4.1-5.54-4.1
	c-36.65-3.91-73.44-3.97-110.38-0.18c-40.59-0.03-81.18-0.92-121.75-2.67c-10.03-1.25-72.3,5.22-73.72,9.03
	c-1.59,4.27,83.1,11.16,90.53,8.37c28.47-1.44,56.94-2.46,85.42-3.04c42.02,2.37,84.02,3.2,126,2.48l7.99,2.04
	c2.89,1.35,3.72,4.21,2.49,8.56c-0.34,4.67-1.32,13.91-5.46,15.69c-0.97,0.7-1.96,1.35-3.03,1.84c-1.03,0.48-2.04,0.91-3.05,0.96
	c-43.63,2.14-88.04,3.95-130.68-6.79c-36.11-8.11-71.03-1.78-106.1,6.07c-54.2,8.36-103.48,2.82-157.99-6.36
	c-40.02-4.76-79.17,3.06-117.99,12.58l-5.97-1.36c-0.63,0.84-1.64,2.01-2.38,1.72c-5.15-1.97-33.85-19.28-36.85-22.84
	c-0.27-0.32-0.26-0.88-0.17-1.5c-3.04,1.71-10.94-3.64-10.12-7.22l-3.04-1.2c-1.23,2.04-1.9,1.49-1.48-0.87
	c-18.86-11.07-41.49-20.51-53.3-38c16.49,0.19,32.94-0.31,49.35-1.5c70,0.39,139.98,0.77,209.94,1.16L453.79,867.91z"/>
<path class="st15" d="M838.42,736.65l2.51,1.55c-3.94,33-7.88,66.01-11.83,99.04l-2.85,1.28c-10.78,3.12-21.07-2.2-32.46-4.03
	c-47.87-7.71-94.63-16.53-140.57-29.76l1.84-5.06c19.89-24.75,41.46-48.08,64.7-69.98c-2.55,0.11-3.44-0.98-3.12-3.7l128.48-91.03
	l-73.44,93.92C794.88,731.02,816.75,733.22,838.42,736.65z"/>
<path class="st15" d="M976.1,759.14c-3.71,1.88-7.8-1.68-12.45-0.03l44.82,88.28c-54.8,1.42-110.44,2.67-164.68-4.84l-2.54-1.52
	c3.4-33.42,6.8-66.86,10.21-100.31l2.83-1.34l70.55,9.23l-54.45-111.2C909.51,673.4,943.01,717.28,976.1,759.14z"/>
<path class="st6" d="M1022,598.57c7.9,28.24,19.79,56.11,23.83,85.68c0.09,0.63,0.11,1.24-0.05,1.79
	c-0.47,1.54-27.97,1.78-31.84,1.8c-8.18,1.25-15.76,0.58-22.75-2.03c-37.79-14.25-81.73-45.5-123.46-53.49
	c0.03-1.51-4.77-1.84-4.05-4.33c-3.82-0.21-3.28-3.18,0.45-3.59C915.71,608.81,967.05,594.1,1022,598.57z"/>
<path class="st12" d="M716.64,725.98c2.37,1.83,5.69,0.49,10.31,1.49c-26.04,24.28-51.42,49.72-73.72,77.24
	c-10.84-3.12-143.94-49.6-104.08-61.34c41.41-12.2,83.77-14.51,127.12-14.73C690.28,728.58,704.36,730.02,716.64,725.98z"/>
<path class="st0" d="M453.79,867.91c-90.54,0.31-181.33,1.42-271.64-1.4v-1.34c48.36,1.1,28.55,0.46,71.21-10.44
	c1.15-14.95,5.36-28.17,3.27-43c-14.01,2.83-22.89,12.7-34,19.48c1.52-11.33,12.61-16.79,21.25-23.35l-25.47-3.94
	c8.28-7.09,18.45-6.65,27.67-8.83l-18.12-14.69c12.99-1,21.82,6.55,30.73,14.14c5.61-8.24,12.87-15.73,22.86-15.72l-10.88,16.04
	c11.14-1,21.26-3.28,28.77,4.97c-9.12,1.19-17.61,1.17-25.32,7.44c11.14,2.62,21.39,8.31,21.85,20.33l-35.69-16.43l1.81,43.06
	c38.14,3.95,75.61-35.18,116.01-25.17C405.45,835.83,433.51,849.68,453.79,867.91z"/>
<path class="st13" d="M854.29,739.38l-10.5,103.16c-0.88,8.6-3.06,16.76-2.67,25.45c0.26,5.8-2.07,15.81-2.78,21.43
	c4.06,1.28,2.44,12.67-1.67,13.28c-3.24,7.71-2.68,19.36-3.65,27.97c-4.21,37.49-12.79,75.37-12.04,112.64
	c-3.39,10.15-14.99,12.78-22.43,18.4c-3.37-1.33-3.4-7.18,0.67-7.59c-2.65-4.01-1.42-14.95,2.84-17.48l-2.56-1.23
	c3.98-34.86,7.96-69.73,11.95-104.61l2.85-1.31c0.9-7.92,3.88-15.92,2.97-24.26c-4.66-0.83-1.55-9.71,1.45-11.92
	c2.88-8.44,1.31-17.99,3.47-26.65c2.32-9.28,2.95-18.73,4.07-28.15l12.17-101.86C843.34,737.43,849.38,738.74,854.29,739.38z"/>
<path class="st13" d="M864.13,624.4l-0.45,3.59c-3.38,0.38-7.05-0.38-10.39,0.19c4.93-0.66-0.33-58.81,16.02-42.37
	c1.27,1.28,2.34,3.86,1.71,6.74L864.13,624.4z"/>
<path class="st4" d="M1045.83,684.24c1.89,13.85,9.44,27.21,9.24,41.49c-18.86-15.82-45.23-23.28-63.88-39.93L1045.83,684.24z"/>
<path class="st5" d="M814.29,929.48l-12.24,107.15l-3.66,2.32c-21.07-0.59-41.71,3.04-61.92,10.87
	c-19.23,4.57-33.95,5.13-52.33-4.14l-40.22-23.32c-41.28-22.01-68.31-25.27-114.43-17.77c-40.48,9.64-80.8,19.56-120.95,29.76
	l-5.25-1.38c-1.28-0.09-2.54-0.23-3.76-0.55c-1.19-0.31-2.33-0.64-3.24-1.28c-22.88-16.18-48.68-36.32-67.05-57.4
	c-0.73-0.84-1.16-1.95-1.57-3.11c-0.42-1.19-0.66-2.45-0.85-3.72c6.92-4.01,15.83-2.02,15.96-11.32c0.05-3.49-3.14-7.39-7.57-6.35
	l-13.79,3.26c-11.2,5.06-23.81-5.63-31.96-12.96l0.01-3.13c62.61-14.67,89.85-20.5,155.26-9.74c146.56,24.1,142.53-24.49,246.3-1.16
	C731.71,934.66,773.36,930.14,814.29,929.48z"/>
<path class="st10" d="M326.83,966.91c21.67,25.55,49.48,46.2,76.47,66.06c6.29,0.66,12.06,3.48,17.32,8.44l-0.27,3.3l5.87,1.65
	c19.08,15.14,39.64,28.07,61.67,38.79c0,0,1.17,1.65,3.5,4.94l8.01,1.26l27.62,13.53c36.45,14.05,74.09,24.78,112.92,32.2l4.22,3.85
	c-19.38,9.16-40.31,16.62-61.49,20l-10.11,0.72c-22.17-2.25-57.76-17.51-78.55-27.15c-68.85-31.95-149.89-91.03-195.99-151.6
	c-0.65-0.86-1.01-1.95-1.33-3.09c-0.34-1.17-0.49-2.4-0.6-3.64C306.08,974.34,315.88,965.84,326.83,966.91z"/>
<path class="st15" d="M296.09,976.19c64.45,82.37,183.1,166.08,286.58,184.77c-23.41,9.64-50.08,14.54-75.31,17.13l-9.26-1.17
	c-90.83-42.07-174.95-104.71-231.86-187.68l-1.11-4.69C275.57,981.33,285.44,978.15,296.09,976.19z"/>
<path class="st10" d="M265.13,984.54c58.5,84.2,148.33,152.77,242.23,193.54c-11.56,1.18-22.87,4.43-34.59,4.39
	c-62.67-0.25-155.4-85.37-192.39-131.48l-45.95-57.29C244.36,989.49,254.89,987.68,265.13,984.54z"/>
<path class="st5" d="M207.69,934.93c5.94,14.9,15.15,28.13,21.51,44.47c-15.22,2.54-28.76,12.49-43.36,11.68l-1.77-0.33
	c0.36-18.1,1.09-36.29,2.18-54.58l2.73-1.43C192.81,930.18,203.78,930.54,207.69,934.93z"/>
<path class="st5" d="M238.53,934.82c11.07,11.37,22.48,21.07,32.82,33.63l-38.66,9.89l-17.25-40.93c-0.4-2.8,1.27-4.19,5.02-4.16
	C226.95,932.33,232.98,932.85,238.53,934.82z"/>
<path class="st5" d="M273.06,935.82l3.57-1.12c7.81,2.9,24.88,11.86,30.28,17.77l-0.11,3.8c-9.55,4.12-19.94,6.94-31.01,10.4
	l-23.82-25.21c-3.79-5.38,15.08-7.92,17.69-7.45C271.02,934.26,272.09,934.81,273.06,935.82z"/>
<path class="st7" d="M234.48,907.97c3.25-1.95,11.9,4.98,13.16,8.27c1.47,0.36,2.88,1.22,4.23,2.57c0.78-0.54,1.48-0.91,1.87-0.71
	c4.1,2.14,18.99,11.17,20.41,14.54l-1.08,3.17c-6.8,2.54-15.98,0.74-21.09,5.64c-15.88-16.81-33.58-32.05-48.66-50.86
	C215.37,894.54,223.87,902.99,234.48,907.97z"/>
<path class="st7" d="M238.53,934.82c-7.62,2.51-15.97-0.91-23.09,2.59c-7.4-13.61-14.12-27.14-17.59-42.98
	C212.9,907.88,225.52,921.47,238.53,934.82z"/>
<path class="st10" d="M236.92,905.39l3.04,1.2l10.12,7.22c-0.95-0.15-0.95-0.15,0,0l39.4,22.62c10.58,6.08,18.92,19.16,31.94,16.08
	c-4.2,3.01-10.08,1.81-14.63,3.77c-8.56-10-22.2-14.05-33.74-20.45c-4.8-7.93-14.52-10.65-21.19-17.01
	c-1.32-1.34-2.73-2.19-4.23-2.57c-5.16-1.16-8.71-6.18-13.16-8.27c0.18-1.18,0.46-2.36,0.97-3.45L236.92,905.39z"/>
<path class="st12" d="M192.67,897.27c-0.22,11.58-0.52,23.2-0.89,34.86l-2.79,2.62l-3.15,56.34l-4.42-0.24l2.33-58.41
	c0.39-9.86,1.88-19.79,1.22-29.7c-0.12-1.79,0.8-3.67,1.16-5.39c0.91-0.86,1.89-2.24,3.26-2.27
	C190.61,895.05,192.22,896.13,192.67,897.27z"/>
<path class="st7" d="M207.69,934.93c-6.23-0.27-12.48-0.7-18.7-0.18c0.7-12.58-0.96-26.13,3.68-37.49L207.69,934.93z"/>
<path class="st7" d="M799.22,1054.11c-0.78,2.32,0.45,5.27-0.67,7.59c-27.01,20.36-57.14,37.55-88.61,50.08l-9.61,2.07
	c-38.84-16.38-77.15-31.85-119.81-32.39c-27.73-0.35-55.2,4.69-82.46,9.94l-6.67-1.3c-24.62-13.4-50.06-25.93-71.04-45.38
	c1.15-0.96,2.33-1.87,3.6-2.63c1.24-0.74,2.47-1.44,3.79-1.79c27.96-7.36,56.01-14.49,84.1-21.35
	c49.48-10.91,79.01-12.24,123.62,10.71l43.32,24.78c20.28,9.58,36.39,12.07,58.46,6.27c16.14-5.46,41.01-13.32,57.95-9.57
	C796.87,1051.51,798.12,1052.87,799.22,1054.11z"/>
<path class="st1" d="M709.94,1111.78c-20.89,8.32-45.19,27.35-65.78,29.17c-68.66-17.89-88.89-16.08-152.77-50.85
	c87.45-18.05,122.39-16.59,204.45,19.35C700.74,1111.6,705.35,1112.48,709.94,1111.78z"/>
<path class="st5" d="M836.67,902.7l1.67-13.28c13.03-2.33,28.18-2.11,40.61,6.29C864.54,901.33,849.94,904.02,836.67,902.7z"/>
<path class="st5" d="M818.72,893.3c1.31,3.92-1.86,8.18-1.45,11.92c-44.24,4.17-88.49-1.57-134.01-1.84
	c-59.57-0.36-122.61,11.42-185.86-7.81c58.26-19.03,118.29-9.82,176.72-8.75c47.77,0.87,94.59-8.41,142.74,0.3
	C819.16,887.54,818.16,891.65,818.72,893.3z"/>
<path class="st1" d="M802.06,1036.63c-0.67,5.87-0.93,11.78-2.84,17.48c-17.44-1.47-34.88-0.39-52.19,6.17
	c-79.55,30.16-100.15-59.24-201.77-44.81c-42.95,6.1-83.51,20.16-124.9,29.25c-4.43-4.11-12.07-8.09-17.04-11.74l109.25-27.34
	c73.31-18.35,107.14-2.39,163.48,32.48C726.95,1069.64,747.06,1030.12,802.06,1036.63z"/>
<path class="st13" d="M251.87,918.81c-1.73,0.06-2.8-2.25-4.23-2.57C250.05,915.41,250.63,917.64,251.87,918.81z"/>
<g>
</g>
<g>
</g>
<g>
</g>
<g>
</g>
<g>
</g>
<g>
</g>
<g>
</g>
<g>
</g>
<g>
</g>
<g>
</g>
<g>
</g>
<g>
</g>
<g>
</g>
<g>
</g>
<g>
</g>
</svg>
