<?xml version='1.0' encoding='UTF-8'?>
<svg xmlns="http://www.w3.org/2000/svg" id="Layer_1" viewBox="0 0 1200 1543" xml:space="preserve" width="1200" height="1800">
<style type="text/css">
      .cls-1 {
        fill: #32566a;
      }

      .cls-2 {
        fill: #356883;
      }

      .cls-3 {
        fill: #20787a;
      }

      .cls-4 {
        fill: #9e5d54;
      }

      .cls-5 {
        fill: #1e9b96;
      }

      .cls-6 {
        fill: #5c849a;
      }

      .cls-7 {
        fill: #4395be;
      }

      .cls-8 {
        fill: #e57560;
      }

      .cls-9 {
        fill: #90aab8;
      }

      .cls-10 {
        fill: #dca76a;
      }

      .cls-11 {
        fill: #dda587;
      }

      .cls-12 {
        fill: #9ec3d5;
      }

      .cls-13 {
        fill: #a2c6c0;
      }

      .cls-14 {
        fill: #e8b6a0;
      }

      .cls-15 {
        fill: #f0d4b9;
      }

      .cls-16 {
        fill: #ebe2d2;
      }

    </style>
<path class="cls-12" d="M0,70.98V0h1200v1132.7l-0.92,2.68c-50.17,0.15-100.37,0.3-150.59,0.44l-3.62-2.67  c-3.45,1.53-7.61-3.55-6.92-6.94c-3.28-1.16-6.04-3.48-8.26-6.97c0,0-3.13-2.15-9.38-6.46c-3.1-0.47-4.81-1.87-5.13-4.2l1.99-3.41  c6.73-3.32,13.51-6.51,20.35-9.58c0.07-3.7,2.01-7.1,5.83-10.22c0,0,4.16-6.58,12.48-19.74c1.5-5.83,4.07-10.12,7.7-12.89  c-1.5-2.99,1.02-6.03,3.93-6.88c0.16-0.7,0.23-1.36,0.03-1.93c-1.24-3.37-32.57-12.12-37.81-12.45c-0.25,1.24-0.66,1.22-1.22,0.04  c-5.29,0.6-10.59,1.14-15.9,1.47c-5.31,0.33-10.61,0.66-15.89,0.53c-79.38-1.98-158.72-5.46-238-9.9c-5.28-0.3-10.53-1.03-15.8-1.78  c-5.27-0.75-10.51-1.69-15.74-2.69l0.15-3.06c5.87-1.46,11.61-3.21,17.24-5.26c-1.95-2.14-2.3-4.16,0.11-5.92  c8.05-0.23,15.64-1.73,22.76-4.48c-5.05-0.65-13.51-1.82-8.4-7.55l27.81-3.44c-12.16-1.68-17.18-9.17-1-9.64l13.3-0.43  c-1.35-5.33,16.09-16.09,16.37-7.04c4.14,2,0.56,6.79-1.57,6.79l-0.97,2.41c0.46,2.82,0.77,5.74,0.91,8.75  c-7.23,5.62-0.16,7.61,2.5,1.15c16.13-2.46,32.35-4.44,48.65-5.95c3.99-4.66,10.15-6.87,18.5-6.61l-0.44-2.45l0.84-2.81l28.2-3.77  c-0.06-1.95,0.39-3.54,1.36-4.76c13.26-3.31,27.02-4.62,41.27-3.92c-1.4-0.64-2.99-1.73-3.01-3.2c-0.06-4.43,15.23-5.56,19.03-4.59  l0.78-2.83l38.03-5.93c1.14-11.77-8.23-19.53-17.81-24.36l-0.43-3.22c-0.98-0.99-0.11-2.15,2.62-3.47l0.42-3.1  c7.11-3.76,12-10.94,13.89-18.67l3.07-2.63c-0.78-1.48,0-2.85,2.34-4.13c-2.04-0.65-2.85-2.73-2.43-6.23l-3.71,2.16  c-13.29-3.05-26.71-5.07-40.25-6.06l-63.85,6.01l-1.84-2.51c-3.81,5.42-14.31-5.78-8.72-8.93c-1.04-0.01-2.62-0.25-2.67-0.92  c-0.59-7.37-1.14-38.13,0.22-43.69l2.71-6.52c-2.34-1.48-4.51-3.83-6.51-7.05c-15.44-9.23-32.68-14.8-51.71-16.72  c-33.38-4.61-66.73-8.23-100.05-10.85l-1.53-2.94c-4.4-2.2-4.22-10.91-0.1-13.37c-0.02-1.05,0.27-2.67,0.93-2.68  c79.78-1.14,162.2-1.4,242.02-0.78l1.66,2.67l3.59-2.68l164.38,0.08c-5.73-1.68-12.13-5.11-19.2-10.29  c-10.39-2.22-20.6-4.62-30.62-7.2l-1.82-2.36l-2.61-1.68l-0.1-9.01l-19.66-1.24l-2.88-2.74c-1.04-0.03-2.6-0.15-2.78-0.89  c-1.25-4.93-3.32-18.44,1.77-20.41l104.49-0.37c-12.27-4.47-25.24-7.38-38.89-8.74c-13.21-5.13-26.61-9.66-40.18-13.59  c-9.69-1.56-19.46-1.75-29.32-0.58c-3.25-9.39-4.52-19.25-3.8-29.58l2.79-2.78c-0.51-1.6-0.36-3.46,0.45-5.58l-1.55-1.44  c-4,2.31-7.87-3.22-3.72-5.66c-4.1-0.52-3.94-9.78-0.02-10.66c-4.13-1.39-7.26-4.76-9.4-10.13c-3.39,3.74-6.88,7.18-10.46,10.31  c4.48,0.01,3.76,10.02-0.08,10.7c0.41,3.56-1.58,6.53-5.99,8.91l1.64,4.36c1.03,0.34,2.54,0.84,2.6,1.66  c0.23,3.2-0.77,22.91-2.42,23.97c-10.95,7-45.46-5.17-56.99-10.92l-14.66-2.98c-28.11-0.8-56.25-1.09-84.42-0.87  c0,0-46.08-5.58-138.23-16.74l-5.96-2.17c-1.16-0.38-2.42-0.9-3.07-2c-1-1.7-1.43-18.64,2.24-19.61c0.83-3.52,3.98-5.62,9.44-6.29  l8.12-1.07c0.38-2.42,1.54-3.95,3.48-4.58l-2.56-1.83c-0.62-11.56-0.63-23.1-0.03-34.64l-9.44-3.1c-5.57-1.35-8.6-3.79-9.08-7.32  l-2.68-1.23c-0.08-24.04-0.15-48.1-0.23-72.16l2.67-1.61c-1.15-1.46-0.91-3.18,0.72-5.18c-34.11-14.33-68.39-29.98-101.47-46.41  c-1.74,4.98-9.23,0.99-5.25-2.87l-2.61-1.63c-0.13,1.23-0.55,1.16-1.23-0.02l-3.62-1.69c-0.12-13.09-0.54-26.11-1.25-39.06  l-3.04-3.39c-1.98,1.66-2.62,0.88-1.24-1.4l-3.11-1.53c-0.1-4.73-0.67-9.36-1.69-13.87c-3.7,0.31-4.77,4.48-3.21,12.51l-2.65,1.83  c-0.71,4.4-9.59,4.38-11.03,0.47l-2.56-1.89c2.74-17.38-6.92-17.76-3.97,0.45l-2.79,1.93c-1.23,3.48-10.98,6.34-13.51,3.01  c-1.8,7.4-18.77-2.24-18.61-8.26l-2.66-3.5l-0.19-22.72c-3.15-0.11-4.94-1.26-5.38-3.45c-2.07,1.57-2.76,0.77-1.43-1.53l-2.71-1.07  l-0.4-12.35c-4.08-1.04-5.62,2.86-4.6,11.72l-2.74,1.7c-0.97,4.86-8.56,3.55-9.67-0.7l-2.7-2.21c1.42-8.68,0.02-11.95-4.21-9.79  l-0.51,10.7l-2.76,1.69c-1.22,2.11-4.1,3.35-8.61,3.71c0.97,3.55,0.2,5.67-2.3,6.38c-0.48,0.94-1.37,2.28-2.1,2.07  c-19.42-5.67-46.09-16.68-64.16-25.93c-0.31-0.16-0.41-0.71-0.45-1.38l-2.71-1.14l-0.61-36.47c-3.53-0.88-5.65-2.67-6.36-5.36  c-1.24-0.41-2.1-1.2-2.82-2.25c-0.67-0.98,2.83-1.69,2.82,2.25l2.9,2.83l0.35,32.57c2.24,3.26,4.23,6.51,5.98,9.75l0.9-0.8  c24.33,11.32,48.18,23.64,71.56,36.97l0.12,3.11c3.37,1.85,3.57,3.37,0.17,5.41l2.67,2.53c-0.18,49.96-0.36,99.92-0.55,149.86  l-2.68,1.62c-1.83,4.4-11.87,1.73-11.95-2.79l-2.68-0.92c-0.06-35.61-0.12-71.23-0.18-106.85l2.68-1.63  c-2.39-1.4-2.34-3.33,0.16-5.8c-4.19-1.25-6.41-3.18-6.66-5.77c-25.84-12.68-51.18-26.34-76.04-40.99  c-40.75-25.42-83.25-40.39-127.43-54.79c0,0-1.43-1.56-4.3-4.67l-2.74-2.74l-0.59-25.56c-5.17-1.49-7.66-3.65-7.47-6.48l-2.71-1.42  l-0.25-13.47c-5.83-2.84-7.89,1.25-6.18,12.28l-2.57,2.59c-0.96,4.57-6.71,4.38-8.36,0.28l-2.76-2.07l-0.17-11.74  c-5.5-2.88-7.55,1.16-6.16,12.11l-2.71,1.76c-1.26,2.04-4.09,3.4-8.5,4.07c-0.12,4.81-1.29,7.94-3.51,9.39  c-0.44,3.9-6.91,1-8.13-1.25l-2.7-1.17c-0.41-12.19-0.43-24.26-0.05-36.22c-5-1.32-8.08-3.64-9.24-6.94  c-2.33-1.77-2.21-4.36,0.36-7.77c2.45-2.58,3.22-5.39,2.33-8.41l-29.21-14.65c-35.08-21.36-70.03-42.63-104.83-63.82l0-3.14  c-1.34-1.24-2.24-2.6-2.7-4.07l-0.32-65.59c-4.4-2.18-8.83-4.67-13.29-7.44l0.51-3.21l-2.43-3.66c0.2-6.78,0.4-13.45,0.59-20.02  c-3.58,0.29-7.37,0.79-11.35,1.5l-0.24,20.24l-2.7,1.88c-0.11,5.15-9.99,3.84-12.1-0.01l-2.67-1.19l-0.12-19.58  c-3.99,0.07-7.73-0.22-11.21-0.88c1.62,4.37,1.44,19.61-2.09,23.09C11.83,73.84,1.43,74.81,0,70.98z" />
<path class="cls-7" d="M1200,1290.06v252.8H346.88l1.83-4.15c7.93-5.6,18.63-11.88,27.27-16.41c23.34-12.23,37.85-13.15,62.83-11.59  c-8.45-1.34-17.01-1.96-25.67-1.84c-8.44,0.4-11.62-1.83-9.53-6.71l27.37-6.94l-57.39-9.58c-1.32-1.79-1.13-3.69,0.05-5.57  l52.4-8.91c3.66-1.9,4.14-6.01,1.42-12.33c2.29-2.29,3.43-3.44,3.43-3.44l58.69-0.8l1.53-1c-15.2-1.3-30.4-2.6-45.61-3.9  c-2.34-3.9-0.19-6.7,6.45-8.41c18.77-3.69,37.51-7.37,56.21-11.03c6.01-2.88,8.15-5.3,4.77-11.65l1.45-2.84l2.82-3.48  c16.73-2.15,33.57-2.87,50.53-2.15c44.05-4.48,88.25-6.39,132.61-5.74l7.94,1.73l2.96-0.06l1.21-2.7  c31.57-0.43,63.16-0.86,94.76-1.29l1.65,2.66l2.95,0.03l5.81-1.81c48.48-2.16,97.38-3.23,145.97-1.15c1.92,0.08,3.83,0.63,5.78,1.2  c1.95,0.56,3.84,1.32,5.72,2.14c4.42,2.08,2.53,5.39-1.6,6.68c-0.53,2.79,1.35,4.07,5.66,3.82l2.27-1.86  c17.72-0.31,35.43-0.86,53.12-1.67c0.23-5.28-1.19-10.78-4.25-16.5c-1.54-7.41-0.05-9.25,6.95-10.59c-3.54,0.35-5.94-0.59-7.2-2.81  c-10.84-0.16-21.67-0.38-32.51-0.64c-2.54-0.16-8.07-0.94-8.34-3.67c-0.71-6.97,27.8-6.9,33.16-6.31c0.62-0.18,1.1-0.45,1.16-0.81  c1.62-9.66-14.32-36.42-21.29-44.12c-8.91-9.86-20.02-17.22-32.51-21.8l-2.96-3.84l1.59-3.33c6.7-2.71,13.1-6.04,19.18-9.98  l3.64,0.94l7.56-2.49c28.25,0.22,56.4-0.3,84.48-1.56c-1.96-0.28-0.92-2,0.47-3.18c3.74-3.18,18.46-1.42,17.17,5.26l97.57,0.69  L1200,1290.06z" />
<path class="cls-9" d="M511.79,794.25l2.04,3.73c-4.06,13.2-6.67,26.51-7.83,39.93c4.6-0.39,9.23-0.81,13.9-1.25l1.34,2.81  c1.19,2.15,2.43,4.44,2.61,6.94c1.4,19.08,2.88,43.99,1.14,62.61c8.06-1.39,12.09-2.08,12.09-2.08l0.53-69.62l2.69-1.58  c0.27-0.72,0.58-1.39,1.08-1.87c1.52-1.48,24.75-5.5,28.83-5.2l2.48,2.81l1.78,0.13c0.79,20.27,0.81,40.87,0.07,61.79  c0.68,1.35,1.62,2.68,2.82,3.99c1.35-2.98,3.86-2.93,6.61-2.76c0.37-2.56,0.89-4.28,4.02-4.2c8.21,0,16.54,0.94,24.98,2.8  c8.57,0.99,22.28,2.62,26.53,10.52c-5.14,2.69-10.38,5.29-15.96,6.93c-30.27,8.93-60.59,17.83-90.88,26.71  c-5.58,1.64-11.39,2.29-17.17,2.81c-1.99-0.26-4.1-1.35-6.34-3.28c-4.22-0.7-7.87-1.91-10.94-3.64c-0.64,4.05-12.8,0.14-14.37-1.39  c-3.03-11.52-7.86-9.5-12.6-0.18l25.17,4.3c4.17,1.27,6.49,3.12,6.96,5.53l-0.1,2.83c-46.95,14.52-93.91,29.03-140.88,43.56  l-2.35-2.08c-0.74,0.85-1.55,1-2.6,0.79c-2.79-0.56-11.75-4.87-14.45-6.78l-3.21,1.96l-17.67-4.57c-2.05-9.67-5.74-12.98-11.06-9.93  c-2.39,4.79-5.3,7.76-8.72,8.91c4.38,1.38,8.64,3.14,12.79,5.3c9.38-1.81,20.49-0.24,27.62,5.85l1.32,1.03l-0.11,2.83  c-38.97,11.74-77.94,23.47-116.93,35.22l-2.32-2.1c-0.76,3.16-3.13,3.13-7.12-0.09l0.39,1.39l-0.15,2.83  c0,0-40.18,11.49-120.53,34.48l-2.3-2.13l-2.79-0.53c-2.39-6.09-8.04-9.33-16.94-9.73l-0.41-1.88c-2.06,3.95-13.83-0.24-16.07-2.5  c-2.58-16.38-12.03-16.79-18.42-1.87c-5.65-0.79-4.42,1.13,3.7,5.78c5.33,2.57,11.38,3.06,18.15,1.48  c3.72-0.05,19.37,5.41,20.73,6.94c0.89,1.01,1.14,2.37,1.25,3.67c-1.18,1.17-2.39,2.29-3.71,3.25c-1.32,0.96-2.61,1.88-4.04,2.37  c-21.92,7.56-44.31,13.69-66.9,18.89c-1.48,0.34-3.06,0.26-4.69,0.16c-1.63-0.1-3.26-0.38-4.88-0.73V917.41  c3.41-3.9,12.25-4.89,16.26-1.54l3.23,1.69c7.42,25.91,27.35,61.78,57.36,63.91c39.65,2.81,66.44-52.96,75.24-85.22l3.1-1.35  l1.62-2.83c7.92-0.93,15.83-1.83,23.76-2.69l2.21,2.45l2.67,0.95c-0.38,32.52-0.63,65.03-0.76,97.53l5.03,1.72  c3.94-0.04,6.77,0.94,8.47,2.92l0.73-2.94c3.55-0.48,6.84-1.59,9.87-3.34l-0.38-103.46l1.56-3.35c6.52-0.47,13.1-0.71,19.73-0.72  c50.73-7.22,101.15-14.79,151.27-22.7c0.38-2.06,1.52-3.31,3.41-3.75l3.98-2.98l18.31-2.77c-15.53-22.83,4.2-25.94,11.69-2.92  c6.9,1.37,14.08,1.24,21.54-0.4l45.48-7.73l2.04,2.61c5.06-7.23,8.02-15.7,8.86-25.43l3.04-0.5c-0.56-10.44,2.3-18.57,8.56-24.42  l2.69,1.55C513.25,790.77,513.75,792.09,511.79,794.25z" />
<path class="cls-13" d="M13.9,458.44l2.84,1.36c-0.46,5.9-0.16,11.68,0.9,17.34l65.32,11.24c3.22-4.84,5.36-10.31,6.43-16.39l3.2-1.81  l3.39,0.01c4.18,5.63,8.62,4.1,13.31-4.57c4.96-1.49,6.28,1.98,3.96,10.42c0.24,6.37,5.21,6.84,4.71-0.23l2.58-1.69  c0.24-1.01,0.94-0.97,1.51-0.08c1.26,0.19,1.26,0.58,0.07,1.16c2.26,2.5,2.89,6.34,1.87,11.52l1.27,7.24l58.41,9.64  c2.67-4.97,4.66-10.4,5.99-16.3l3.27-1.19c4.57-4.12,13.21,4.25,12.12,9.57c1.04,0.03,2.59,0.28,2.66,0.99  c0.73,7.33-0.26,17.96-2.05,24.95c-0.48,4.79-0.08,9.29,1.21,13.5c-1.02,47.06-2.04,93.9-3.06,140.54l-2.71,1.58  c0.25,3.51-1.07,3.47-2.96,0.52l-1.92,2.64l-11.45,0.39c5.95,40.53-21.2,84.02-58.26,100.13c-49.95,21.71-96.16-13.39-124.38-53.09  L0,720.54V445.98c0.66-4.67,9.77-4.34,12.03-0.05C11.67,450.23,12.3,454.4,13.9,458.44z" />
<path class="cls-1" d="M224.74,1024.36l2.68,0.9c-0.37,14.48-0.07,28.65,0.9,42.53l27.3-7.9c6.74-0.19,10.3,6.1,5.91,10.37  c3.55,1.5,3.45,2.78-0.25,3.72l-0.18,2.93l-33.3,12.77l0.63,56.64l58.7-23.1l2.47,1.91l3.06-0.05l5.63,9.7l14.8-30.07l-37.07-13.16  l-3.91-4.23c-4.45,0.49-10.54-7.76-5.82-10.49c5.08,0.46,10.2,1.04,15.08,2.59c52.03,16.55,101.14,32.18,154.76,43.57  c177.06,37.62,356.96,33.48,536.43,18.43l7.63,1.09c3.08,2.7,0.38,9.39-3.72,9.22c-2.28,0.9-4.57,1.75-6.92,2.4  c-2.33,0.65-4.65,1.26-7,1.5c-125.77,12.94-262.3,15.55-388.12,3.16c-85.56-8.42-171.24-24.01-252.49-52.28  c-6.49,12.55-12.67,25.3-18.55,38.26l9.1,18.92l-1.58,2.89l-2.81,2.46l-21.43-0.15l-2.72-2.57c-24.35-1.1-48.04-1.16-71.07-0.17  c7.46,4.77,15.76,7.73,24.09,10.54c254.77,85.88,533.13,66.28,796.58,30.75l6.81,0.79c4.79,2.05-0.98,11.53-5.18,11.8  c-3.19,1.19-6.39,2.33-9.65,3.27c-3.25,0.94-6.49,1.87-9.79,2.35c-192.8,28.4-406.2,41.23-598.51,11.35  c-61.04-9.48-130.32-23.89-187.93-45.97c-12.94-6.15-15.71-7.23-8.32-3.26l12.8,33.84l-0.45,5.22l0.33,2.82  c0,0-76.99,37.56-230.98,112.67L0,1340.62v-104.46l1.42-3.39l138.65-51.8c-17.11-33.31-35.04-69.04-46.82-104.66  c-1.66-5.01-3.06-10.1-3.4-15.38c-2.05,0.3-3.16-0.82-3.33-3.36c-3.08-0.25-5.13-1.44-6.16-3.55c-1.49,0.38-3.28-0.06-5.36-1.34  c-3.89-0.38-3.74-2.66-0.12-3.97c7.75,1.23,17.52,3.47,20.15,12.14l3.23,4.4c14.01,38.5,29.91,76.4,49.52,112.49l71.9-28.11  c0.25-18.4,0.01-36.96-0.72-55.67l-0.96-0.76l-43.39,13.32c-9.95,0.49-12.82-13.06-6.08-18.96l50.42-16.69  c0.44-12.42,0.32-24.76-0.35-37.02c-1.74-3.24-1.93-5.97-0.58-8.2L94.66,998.99L224.74,1024.36z" />
<path class="cls-5" d="M308.11,1309.64l-2.85,4.1c-21.03,9.26-36.49,26.76-45.36,47.74l-4.08,2.88c-0.74,2.35-2.64,3.26-5.68,2.73  c1.57,1.28,2.62,2.6,3.01,4.66c0.98,5.17-12.72,27.75-16.53,33.4l-3.52,1.3l-2.57,2.88c-7.98-0.64-15.76,0.03-23.32,2.01  c0.71,9.66,2.07,19.31,4.07,28.95l-2.24,18.12c1.65,16.16,1.17,31.81-1.44,46.94c0.91,3.73,0.89,6.86-0.04,9.39  c3.87,0.08,3.64,3.12,0.03,4.03c0.6,0.32,1.14,0.68,1.5,1.17c0.84,1.14-2.84,11.65-4.26,13.56c3.8,2.45,4.07,7.28,0.08,9.38H0  v-54.91l1-3.05l14.92-2.45c-0.47-7.7,1.13-14.23,4.79-19.6l48.94-5.3l0.19-48.71l1.56-3.71c28-1.37,55.99-3.25,83.96-5.64  l0.37-44.61l1.24-3.57c10.41-1.73,21.04-2.25,31.89-1.55l-19.73-1.42c-3.84-0.61-3.1-3.11-0.82-5.94l29.3-2.49  c0.56-10.6,0.8-21.32,0.74-32.17c0.71-3.93,3.9-4.82,9.58-2.66c4.89-0.55,9.38-3.03,13.45-7.45c13.63-5.76,27.37-11.28,41.2-16.57  l3.88,0.78c5.01,1.15,9.58,4.01,13.72,8.59c16.5,9.95,24.74,14.93,24.74,14.93L308.11,1309.64z" />
<path class="cls-13" d="M201.17,246.74c1.05,0.09,2.62,0.38,2.71,1.12c0.96,7.89,2.19,33.5,1.12,40.63l-2.62,2  c0.73,1.47,1.41,2.96,1.91,4.5c0.5,1.53,0.96,3.03,1.02,4.54c1.75,43.01,3.35,90.03-1.97,132.65c-0.18,1.48-0.77,2.91-1.41,4.36  c-0.64,1.47-1.46,2.86-2.34,4.23c-4.32,5.88-11.47-0.64-7.98-7.73c-0.15-11.21-10.43-13.39-14.7-3.68l-2.71,1.84  c-0.34,3.72-1.62,4.09-3.91,1.14l-2.68-0.91l-0.88-136.47l0.93-0.1c-10.61-3.51-21.39-6.59-32.33-9.23l-0.08,133.45l-2.68,1.63  c0.87,3.52-2.51,9.95-6.53,8.01c-1.14,4.25-2.51,3.99-5.39,1.01l-2.97-0.21c-5.67-5.7-13.97-5.18-17.02,2.92l-3.04,0.11  c-2.27,5.22-8.79-2.16-5.23-5.52l-1.14-2.89c15.58-15.56-8.06-34.45-17.1-13.58l-3.04,0.39l-2.78-2.41  c1.96-8.06,1.27-10.88-2.06-8.46l-2.78-1.24l-2.69-0.91l-1.05-137.21c-11.55-4.2-23.38-8.02-35.51-11.47  c-0.21,52.32,0.29,104.91,1.5,157.75l-2.64,2.57c4.01,2.9,0.59,9.44-4.16,8.11c-2.16,1.45-5.13,1.2-8.91-0.76l-4.1-0.1  c-2.42,1.22-4.38,1.11-5.9-0.33V164.73l1.88-2.13c66.24,27.01,132.5,54.02,198.77,81.03L201.17,246.74z" />
<path class="cls-2" d="M261.4,1272.39c4.05,1.53,7.19,5.16,5.07,9.43c-12.54,8.19-28.79,9.73-42.79,17.53  c-6.43,3.58-9.76,12.32-22.62,6.43l-0.41,36.53l-33.64,2.86c12.9,2.88,25.78,0.13,39.28,5.06c-16.41,4.14-32.03,0.96-47.85,2.71  l-0.41,48.93c-29.05,3.62-56.86,4.07-85.49,5.01l-0.19,53.08l-50.96,5.21c-3.04,6.08-1.49,12.71-3.59,18.93  c-5.82,2.89-12.21,2.06-17.8,3.84v-147.32l233.3-113.81c6.27,5.96,11.39,13.29,15.35,21.99  C254.58,1256.27,258.83,1264.13,261.4,1272.39z" />
<path class="cls-9" d="M1200,1132.7v157.36l-99.62-0.77c-1.02-0.01-2.43-1.22-3.56-1.39c-4.83-0.72,3.65-2.61,2.08-3.55  c-6.11-1.02-14.94-4.5-14.45,2.04c-28.52,2.4-62.2,3.19-93.29,2.25l0.39-3.45c5.16-5.73,10.81-10.38,16.93-13.95  c0.44-4.52,2.59-8.81,6.46-12.88c7.47-14.53,11.2-21.8,11.2-21.8c1.68-7.1,4.68-12.61,9.01-16.54c1.33-3.93,4.65-7.41,5.18-11.8  c-1.5-1.58-1.85-2.91-0.09-4.07c-11.95-3.84-24.25-6.11-36.91-6.8c-0.81,0.72-1.65,1.4-2.58,1.91c-4.62,2.56-37.18,0.21-44.95-0.82  l-5.13-2.89c-5.44-2.17,5.18-13.64,8.01-16.03l2.93,0.19l4.56-2.68c13.84,0.53,27.67,0.38,41.48-0.45  c-1.32-2.11-1.53-3.22,0.19-4.98c3.81-3.92,24.19-2.7,28.6,2.42c3.15,1.06,20.98,0.86,22.49,0.06c1.92-1.02-10.74-32.81-14.24-36.07  l0.16-4.86L1200,1132.7z" />
<path class="cls-4" d="M198.14,677.75l2.68,0.94c0.02,104.85,0.03,209.72,0.05,314.61l-2.68,1.66c-5.03,1.32-10.47-0.41-16.35-2.92  l0.93-100.2c-0.67-0.84-1.29-1.69-1.75-2.63c-1.5-3.04-0.93-25.44-0.48-30.9l2.39-5.29c-1.35-0.2-2.15-0.84-1.96-2.04  c1.49-9.19,2.02-14.73,1.89-24.11c-2.84-15.36-1.31-31.44,0.41-46.93c0.07-0.63,0.66-1.21,1.39-1.77l-1.18-2.05l4.13-53.62  c-0.15,1.2-1.1,1.88-2.86,2.05c-5.91,9.92-10.4,19-9.05,31.09c2.82,23.12,1.07,46.78-1.16,70.01c-0.17,1.8-1.56,3.31-2.82,4.68  c-0.44,3.6-1.39,6.3-2.83,8.09c-1.64,18.49-5.15,36.74-10.51,54.76l-3.18,1.74c-6.69,27.62-33.18,88.32-74.2,89.35  c-34.75,0.87-57.4-40.08-64.73-68.38l-2.82-0.2C7.15,895.14,2.67,874.29,0,853.12V720.54c14.97,20.22,31.27,39.77,53.08,52.3  c33.44,19.22,69.47,14.81,97.09-10.73c23.4-21.65,36.68-49.8,31.68-83.55C188.02,677.15,192.86,677.67,198.14,677.75z" />
<path class="cls-6" d="M0,1236.16v-150c28.32-6.34,57.02-13.9,84.21-23.96c1.68-2.02,2.47-1.39,1.36,1.04  c1.36,1.15,2.38,0.8,3.09-0.92c-1.93-1.71-1.26-2.45,1.18-1.4c16.99,40.64,30.85,82.24,54.52,121.29L0,1236.16z" />
<path class="cls-14" d="M514.37,1415.76c17.04,27.33-48.08,17.28-68.88,31.65l43.37,2.95c1.73,0.12,3.41,0.67,4.62,1.5  c1.02,0.7,1.28,2.92-0.12,3.65c-0.96,0.5-2.63,1.87-4.36,1.89l-58.98,0.68c0.42,4.57,2.6,8.16,1.61,11.13  c-1.03,3.07-4.75,4.96-8.34,5.54l-50.12,8.11l71.46,11.93l-41.27,10.19c15.86,3.08,30.55-0.49,45.1,5.33  c-13.54,7.25-27.85,0.6-41.51,3.05c-22.58,4.04-40.93,18.67-60.09,29.5h-1.36l-2.97-0.78c-1.96-6.21-3.37-12.49-4.23-18.84  c3.51-2.97,5.59-6.28,6.26-9.92c-10.72-4.95-12.53-11.02-1.58-17.33c-1.06-5.25-3.09-10.41-6.08-15.48  c-1.36-5.58,0.86-10.51,6.66-14.78c-14.15-11.43-16.4-17.67-0.86-28.35c-2.21-3.91-2.17-6.54,0.09-7.91l0.69-2.75l105.64-9.32  c-9.95-1.82-27.22-7.41-6.97-11.78c12.76-1.22,25.54-1.19,38.35,0.09c-1.62-2.25-2.12-3.37,0.33-4.98  c4.01-2.63,33.61,1.29,34.96,5.37c0.97,2.95-3.69,6.07-6.69,6.4C511.86,1412.54,513.45,1412.69,514.37,1415.76z" />
<path class="cls-11" d="M233.11,1406.44l2.02,2.12l-12.46,30.65l118.25-12.24l1.89,2.5c0.42,3.19,4.1,7.63,1.71,9.75l-8.32,7.35  c-7.13,6.3,6.19,12.28,10.71,19.11c-0.6,3.66-6.54,5.8-7.44,8.36c-2.59,7.41,6.3,12.86,6.1,22.25c-0.06,2.94-8.08,4.59-7.43,8.93  c0.48,3.17,8.71,4.38,9.04,7.79c0.43,4.52-2.56,8.01-6.59,10.95l4.94,18.9h-31.9l-1.17-2.73c2.5-5.13,1.36-11.13-3.43-18l1.76-3.41  l0.62-3.42c3.06,0.16,4.6-4.34,1.69-5.53c-6.34,0.43-9.67-1.51-9.96-5.81c4.54-7.96,4.11-11.65-6.06-8.73  c-7.88,4.88-11.57,4.04-11.05-2.52c-3.07-2.43-3.76-4.52-2.05-6.27l-3.24-1.43c-0.9-6.29-3.27-11.25-7.12-14.9l-46.78,7.57  l-1.33,16.23l-2.79,1.69c-1.34,4.46-1.12,9.05,0.67,13.77c-0.75,2.08-14.34,10.53-15.8,5.34c-6.11-8.24,0.26-17.8-0.12-26.34  c-0.69-15.72-2.64-28.55,0.68-43.38c2.57-11.49-6.25-23.84-2.89-35.23C213.82,1404.83,224.3,1407.43,233.11,1406.44z" />
<path class="cls-9" d="M48.28,135.17c5.15-0.52,10.43,1.37,15.84,5.66c4.39,1.54,7.05,4.13,8,7.78l134.04,81.61l-1.87,2.14  c-67.62-27.19-135.26-54.38-202.93-81.59L0,147.32v-36.16l3.63-2.05c15.31,5.05,29.73,12.45,43.25,22.21L48.28,135.17z" />
<path class="cls-6" d="M206.17,230.21c8.33,5.07,1.54,2.44-2.69,16.18c-0.1,2.62-1.18,2.75-2.31,0.35L0,164.73v-17.41L206.17,230.21z" />
<path class="cls-11" d="M40.21,68.22c1.12-5.02,10.19-4.02,12.15,0.21l2.33,3.58c1.13,20.67,0.2,40.93-2.81,60.8l-3.6,2.36  C32.2,126.48,18.06,113.91,0,111.16V70.98l12.02-1.33c2.26-4.33,12.81-4.79,16.09-1.43C31.95,67.47,36.12,69.79,40.21,68.22z" />
<path class="cls-2" d="M283.95,1486.45c0.89,2.52,7.15,3.7,3.84,10.4c7.65-3.86,14.08-8.3,19.74-3.03c3.79,3.53-2.3,8.78-1.92,11.9  c2.25,1.77,7.25,0.45,9.75,2.13c1.99,1.34,2.29,4.17,1.1,7.43c-0.82,2.26-4.09,1.86-5.69,3.43c0.84,6.75-7.5,8.72-12.83,5.76  c-7.87-10.59-14.24-12.4-19.13-5.46c-1.3,5.29-3.61,7.66-6.93,7.11c-3.52-4.73-7.39-6.68-11.59-5.86  c-3.97,5.81-8.01,7.92-12.11,6.35c-11.4-10.84-23.37,3.88-11.8,13.32l-0.59,2.92h-30.89c-0.98-2.74,1.13-6.78-0.08-9.38l3.4-1.31  c17.94,15.04,25.33-16.52,2.29-11.11l-2.93-2.32l-0.03-4.03c5.35,0.91,8.36-4.92,13.91-6c-2.13-3.5-2.51-5.29-2.63-7.98  c-0.1-2.36,1.21-4.48,3.84-5.13c1.65-6.32,10.03,0.05,12.76,3.95l33.13-7.69c4.78-5.27,9.51-7.72,14.17-7.36L283.95,1486.45z" />
<path class="cls-4" d="M310.77,1518.72c2.31,9.47,10.74,15.72,2.84,24.14H235.8c-3.84-2.7-6.8-7.13-6.96-11.5  c-0.2-5.35,3.91-9.02,7.87-10.81c5.79-2.63,9.99,2.38,14.83,4.95c3.5-2.61,6.08-8.59,10.39-8.39c4.91,0.23,8.02,2.51,11.82,7.85  c2.09-6.77,4.11-11.41,8.46-12.55C297.01,1508.52,295.97,1533.18,310.77,1518.72z" />
<path class="cls-2" d="M18.92,417.71c2.51,1.41,3.44,4.61,2.79,9.58c0.54,6.26,4.42,10.52,11.62,12.77l-0.04,3.07  c4.94,2.75-0.52,8.34-3.6,10.89c-3.03,2.51-13.25,8.26-15.79,4.42c-4.35-1.8-5.86-6.75-4.11-13.16L0,445.98v-29.46  C5.9,412.2,12.89,414.14,18.92,417.71z" />
<path class="cls-13" d="M16.26,915.87c-5.39,0.83-10.79,1.56-16.26,1.54v-64.29L16.26,915.87z" />
<path class="cls-15" d="M492.54,425l0.18,109.4c-1.3,3.56-6.04,3.34-7.46-0.33c-5.95,0.78-15.01-0.66-20.32-3.82l-2.7-1.19  l-1.28-74.63c-3.11,0-4.97-1.04-5.6-3.11c-2.05,1.93-4.81,1.9-8.3-0.09c-0.87,23.1-1.3,46.34-1.31,69.71l-2.7,1.56  c-1.49,0.98-3.13,1.8-4.95,1.81c-8.64,0.03-24.53-5.03-31.63-9.22c-0.91-25.86-1.37-51.8-1.4-77.79c-4.27,0.24-6.66-0.85-7.15-3.26  c-1.45,2.15-4.61,2.18-9.5,0.1l-1.06,79.93l-2.7,1.58c0.27,2.55-0.75,2.5-1.63,0c-2.39,2.02-5.85,2.33-8.24,0.24  c-1.11,0.96-0.99,2.48,0.33,4.56c-0.56,18.66-0.43,37.31,0.4,55.97c-1.98,1.2-4.16,2.33-6.54,3.38l2.76,1.44  c-0.88,5.55-0.77,10.57,0.34,15.06c11.35-0.65,22.57-3.44,33.65-8.36c4.23,1.27,5.99,5.32,5.3,12.15  c9.85,2.34,20.41-0.54,29.63-4.55c3.49,0.46,5.05,3.63,4.68,9.51c3.57,1.76,8.52,0.9,14.83-2.57c6.68-1.26,10.78-0.84,11.29,7.14  c6.36-0.39,12.68-1.65,18.97-3.79l2.33,2.29l2.68,0.92c0.16,39.47,0.21,78.96,0.16,118.46l-2.55,2.53c0.25,1.42,0.48,3-0.25,4.22  c-5.37,8.93-26.56,15.76-36.76,16.76c-17.44,1.71-36.42-3.14-49.83-14.58c-0.69-26.75-0.84-53.57-0.46-80.47  c-5.36-1.38-10.86-1.97-16.5-1.77l-1.3,55.51c-1.21,2.14-2.51,3.64-4.84,2.66c0.06,25.14,2.31,50,6.76,74.58  c-0.12,5.91-1.43,5.79-6.97,4.89c-2.46,2.21-4.65,0.72-6.58-4.48c-12.29,2.17-13.25-11.46-4.34-17.37c1.93-3.32,1.8-7.2-0.41-11.61  c6.82-11.66,4.69-18.94-6.41-21.82c-2.03-2.28-2.38-5.65-1.05-10.13l-0.93-4.05c-7.42-2.15-13.75-6.3-19-12.47  c-2.27-0.07-3.65-0.99-4.12-2.76l-1.79-0.24c-1.1-42.54-1.41-85.27-0.95-128.2l2.68-1.63c-2.33-1.04-2.27-3.22,0.17-6.54  c0.07-2.68,1.12-5.8,3.14-9.36c-0.85-3.23-2.01-6.35-3.47-9.35c-2.06-1.97-1.45-4.77,1.84-8.39c-0.9-3.15-1.37-6.12-1.39-8.94  l-2.68-0.94c0.05-53.23,0.11-106.47,0.16-159.72l2.68-1.64l1.75-2.23c49.88,17.32,99.76,34.65,149.66,51.98L492.54,425z" />
<path class="cls-16" d="M612.19,423.3c3.53,0.26,3.82,1.74,0.86,3.82c0.59,2.61,1.47,5.02,2.65,7.22  c-0.41,102.45-0.83,204.81-1.24,307.09l-2.69,1.64c-4.68,1.91-12.83-7.31-10.44-11.73c-2.21-5.44-3.23-11.29-3.06-17.55  c-4.57,0.31-7.51-0.66-8.83-2.9c0.25,2.59-0.79,2.59-1.56,0c-4.63-1.66-3.22-9.05-2.39-13.17c-4.52,1.13-7.26,0.35-8.23-2.33  c-1.12,1.42-2.28,2.77-3.48,4.06c2.69-0.09,2.68,1.04,0.01,1.9c0.48,5.03,0.29,9.64-0.57,13.83c-0.84,2.49-1.91,2.31-2.3-0.32  c-3.53-1.75-7.05-2.12-10.57-1.11l0.07,54.52c5.04-0.79,8.29,0.12,9.76,2.74c1.01-3.63,2.74-3.02,3.03,0.64l1.78,0.43  c0.02,19.25,0.12,38.52,0.32,57.81l-2.62,1.57c-11.03-0.99-21.44,3.56-32.39,4.26c-3.84,0.05-3.77-3.03-0.15-4.09  c-0.01-2.35,2.06-3.43,6.23-3.25l0.18-116.23c-3.11,0.52-4.96-0.33-5.56-2.52l-2.71-1.09l-0.79-25.27l-12.74-0.58  c0.86,3.35,0.02,5.28-2.51,5.77c2.48,3.66,0.25,10.3-1.47,14.36c-2.27,5.38-9.52,19.08-15.77,16.65c-1.05,0.01-2.66-0.27-2.68-0.92  c-0.91-33.61-1.32-70.71-0.17-104.35c-0.93-5.26-0.04-8.7,2.66-10.33l0.23-3.02c2.3-0.81,3.96-2.49,5-5.06  c-2.99-0.54-3.35-2.31-3.35-5c0.6-18.14-0.08-36.02-2.03-53.63l0.56-154.01l1.01-1.53c35.14,12.05,70.27,24.91,105.39,38.58  L612.19,423.3z" />
<path class="cls-10" d="M1063.52,1052.76c-4.29,15.6-14.2,31.73-26,42.84l-8.46,3.54c-41.3,4.12-82.72,8.26-124.27,12.41l-40.95,1.4  c-4.44,0.56-8.89,1.06-13.35,1.35c-4.46,0.29-8.9,0.57-13.32,0.41c-61.91-2.21-123.79-6.05-185.57-10.54  c-4.39-0.32-8.74-1.08-13.12-1.85c-4.37-0.77-8.71-1.74-13.03-2.76c-29.04-2.99-57.78-7.68-86.24-14.08  c-5.08-4.04-8.71-9.58-10.91-16.63c-7.58-8.92-14.09-18.71-19.54-29.35l0.69-3.27c-2.48-1.09-3.92-3.54-4.31-7.36  c-2.47-3.81-2.91-6.97-1.32-9.48c4.69,0.13,9.41,0.4,13.95,1.62c49.34,13.28,95.1,25.36,145.92,32.92  c130.52,19.41,262.23,13.14,392.8-2.05L1063.52,1052.76z" />
<path class="cls-10" d="M622.79,433.85c0.39,0.07,0.83,0.04,1.23,0.02l2.61,1.63c0.48,2.39,3.06,2.81,5.25,2.87  c16.4,7.66,32.58,15.61,48.55,23.86l-0.06,2.32l1.23,1.63c3.89-0.68,4.15,3.75,0.53,5.05l2.69,2.55  c0.24,77.21,0.48,154.41,0.72,231.6l-2.67,1.66l-1.41,2.67c-4.57-0.48-5.38,2.77-2.44,9.76l-2.5,2.41l1.62,2.39  c0.85,23.49-0.33,46.83-3.54,70.01c0,0-1.23,1.29-3.7,3.86l-2.66-4.7c1.23-18.34,1.85-36.7,1.85-55.07  c-12.09,16.65-27.91,25.78-47.59,15.68c-3.9-2-12.25-6.49-10.72-10.98l1.28-315.95c3.5-1.96,4.1,0.66,4.79,3.67  C620.49,430.86,621.38,431.34,622.79,433.85z" />
<path class="cls-10" d="M670.9,798.14c9.85-4.31,9.86,16.22,4,20.06c-0.2,4.2-10.62,5.16-12.07,1.34c-2.66-2.92-1.59-15.45-0.05-19.16  C664.51,796.21,668.74,792.54,670.9,798.14z" />
<path class="cls-16" d="M1033.84,653.43c4.85-4.59,18.27-4.36,25.2-3.45l3.91,2.63c-0.48,10.11,0.09,18.68,2.21,30.59  c26.06-6.22,44.64,5.33,66.96,12.73c15.77,5.22,33.98,1.07,48.4,14.71l-113.57,0.29l1.93,18.61c-0.12,1.04-0.45,2.61-1.19,2.68  c-6.98,0.69-32.23,1.18-38.36,0.01l-1.93-2.68l-2.49-2.16c0.96-4.64,1.3-9.28,1.04-13.94l-291.13,0.18l-1.66-2.68l-2.67-1.26  c0.2-20.91,0.39-41.82,0.59-62.74l2.69-1.57c46.67,2.77,92.3,9.66,139.31,15.7c34.43,4.42,85.32-6.35,113.54,7.98  c14.43,7.33,30.16,9.83,46.03,8.26L1033.84,653.43z" />
<path class="cls-15" d="M732.64,489.96l0.24,75c-1.59,2.55-4.08,2.62-7.47,0.2c-1.54,2.06-9.88,0.73-10.44-1.7l-2.69-0.86l-0.66-50.01  l-4.01-1.43l-1.85,50.8l-2.75,1.86c2.01,1,2.27,2.15,0.59,3.49c0.3,12.22-0.06,24.42-1.1,36.59l-2.16,1.47  c-0.26,1.61-1.45,3.03-3.54,4.27c-2.09,8.93,1.32,10.84,10.24,5.73c9.38-2.98,13.79-1.13,13.24,5.55l10.7,0.17l1.97,2.67  c0.51,7.22-0.71,14.53,0.82,21.61l-0.62,65.57l2.69,1.46c0.68,4.2,1.36,16.19-2.52,17.8c1.05,0.13,2.62,0.47,2.67,1.21  c0.29,3.82,0.86,32.69-0.11,34.08c-0.68,0.98-1.49,1.66-2.68,1.93c-0.01,4.45-0.4,8.91,0.1,13.37c3.98,0.61,3.52,6.17,0.45,8.03  c3.67,0.31,3.57,1.56,0.03,2.68c3.93-0.11,1.46,17.6,0.72,18.91c-0.62,1.11-0.94,1.63-1.84,2.48c-1.51,1.43-36.06,5.99-40.96,6.38  l-1.95-2.43l-2.69-1.21l-1-105.25c-1.87-0.5-2.93-1.63-3.2-3.37l-0.74-235.8l1.78-2.2c16.05,5.95,32.11,11.91,48.17,17.87  L732.64,489.96z" />
<path class="cls-9" d="M893.1,818.37c-1.14,6.53-5.48,11.15-13.03,13.87c-27.52,11.36-55.8,20.45-84.84,27.26l-2.36-2.06l-3.68,1.22  c-3.55-3.15-4.05-2.73-1.51,1.25l-0.1,2.83c-17.65,5.27-35.3,10.55-52.95,15.83l-2.28-2.11c-1.05,3.56-3.55,0.52-4.58-2.01  c-7.74,0.2-13.97-4.27-18.66-10.33c-5.12,7.88-12.09,7.25-19.39,3.56l-1.79-0.11c-1.04-16.17-1.32-32.55-0.86-49.12l2.68-1.57  l42.04-6.05l1.98-19.29c1.1-1.08,1.09-1.97-0.03-2.68c-1.09-2.11-0.18-5.64-0.45-8.03C757.13,784.83,893.25,788.65,893.1,818.37z" />
<path class="cls-6" d="M1027.39,729.55l41.49-0.01c7.9,0,16.05,1.45,24.59,0.85c1.47,5.29,0.78,9.37,0.66,13.82l-1,2.97  c-7.29,0.77-14.32,1.53-21.27,4.18c-8.92-8.47-15.88-6.73-24.93,0.22c-7.59-7.18-14.2-7.6-19.81-1.26  c-6.91,0.89-14.07,0.37-21.48-1.57c-5.52,6.9-12.92,11.65-22.2,14.25c0,0-1.88,1.22-5.63,3.66l-244.6,0.79l0.12-37.23l0.93-2.68  c0,0,97.16-0.22,291.48-0.66L1027.39,729.55z" />
<path class="cls-2" d="M991.3,917.05c2.67,6.39-8.73,9.05-13.88,9.99l-148.86,15.95c-3.81,9.07-7.13,18.53-9.96,28.37l-3.14,0.99  c-5.3-3.53-6.78,2.09-15.26,5.1c3.35,1.99,7.14-0.07,9.45,4.17c-12.14,0.89-22.47-0.04-33.45,2.1l21.98,6.13  c-14.06,3.91-27.21,4.03-40.31,5.75c5.14,2.39,11.54,0.52,13.99,5.3c-8.92,6.19-18.3,5.51-27.36,6.45c0.56,1.56,2.22,0.87,4.75,2.3  c-4.5,7.43-14.84,5.55-22.13,9.51c-0.17,1.05-0.64,2.62-1.39,2.6c-21.12-0.4-46.66-1.56-67.57-3.89c-4.94,0.63-7.91-0.43-8.92-3.2  l-0.82-3.05c41.5-25.82,86.67-48.79,130.85-69.16c9.48,2.12,14.79,0.14,15.94-5.93c8.2-6.78,17.08-12.77,26.64-17.97l3.02,1.28  l3.81-2.39c50.55,5.75,100.66,5,150.33-2.26c5.51-2.39,10.48-2.93,14.89-1.62L991.3,917.05z" />
<path class="cls-1" d="M732.36,876.45l3.61,3.39c5.4,15.83,12,31.18,19.79,46.06l-0.75,4.95l-4.28-0.95  c-3.34-4.12-5.84-8.72-8.33-13.36c-4.53-8.41-13.94-29.47-15.68-38.28c-0.14-0.69,0.25-1.49,0.78-2.31  c-2.59-0.24-2.4-1.26,0.28-1.52L732.36,876.45z" />
<path class="cls-1" d="M857.07,879.65c5.28,2.13,11.08,3.17,17.41,3.13c29.53,8.84,60.07,12.61,91.04,10.03  c1.14-0.1,2.23-0.83,3.3-1.74c10.43,0.15,20.76-0.97,30.97-3.35c4.96-2.06,9.58-2.95,13.85-2.67c-0.08,1.68-0.83,3.32-2.34,4.13  c-0.71,0.96-1.45,1.87-2.32,2.65c-0.86,0.77-1.68,1.49-2.61,1.75c-66.24,18.35-130,1.42-194.27-15.95l-2.98,2.29  c1.49,9.58,1.31,19.3-0.55,29.16c4.77-2.8,8.45-3.18,11.03-1.13c4.22-0.28,10.08,9.99,5.28,11.91l-24.93,15.37  c-4,2.46-4.09,9.88-7.31,9.89l-14.82,0.04c0,0-125.03,62.6-128.56,69.53c-1.04,0.62-2.1,1.2-3.23,1.61  c-1.09,0.4-2.15,0.76-3.18,0.73c-19.76-0.58-40.4-1.4-59.92-4.35c-1.02-0.15-1.98-0.74-2.98-1.37c-1.01-0.64-1.93-1.45-2.81-2.3  l-0.16-2.83l90.15-37.18c-9.69-21.75-19.12-44.13-23.16-67.66c-3.89,0.93-5.49-1.67-2.36-4.42c2.83-2.64,6.44-1.05,5.27,2.98  c2.82,2.58,4.23,3.87,4.23,3.87c6.22,21.38,14.12,42.04,23.68,61.97l48.16-20.51c0.22-18.74-0.27-38.81-1.49-60.22  c0,0,0.88-1.86,2.65-5.59c-2.66-0.57-2.32-1.8,0.45-2.19c3.65,2.98,5.47,7.55,5.44,13.71c-0.41,16.98-0.19,33.92,0.66,50.81  c8.66-2.16,15.82-5.75,21.48-10.77l2.86-0.13c0.97-1.76,2.73-2.18,5.28-1.27c3.32-0.83,36.9-15.23,38.58-16.63  c1.81-1.52,3.09-13.85,3.6-18.76c0.81-7.79,1.21-15.59,1.43-23.42c-0.28-4.36,2.35-4.73,6.37-4.62c14.59,3.77,29.2,7.31,43.85,10.59  L857.07,879.65z" />
<path class="cls-8" d="M545.32,1007.01c0.85-3.21,3-3.17,6.43,0.14c1.02-1.89,3.22-1.53,6.59,1.07c1.17-2.49,14.3-2.86,16.44-2.18  c1.49,0.48,2.13,0.98,2.35,2.96c23.64,4.29,48.11,4.3,72.11,5.68l77.87,4.49c100.31,5.78,200.87,10.52,301.33,12.36  c4.07,1,4.56,11.38,0.53,12.74c-0.95,2.6-2.59,3.16-4.89,3.84c-5.51,1.64-24.09,3.54-29.76,3.1c-12.89-7.36-29.57-14.5-43.81-7.34  l-3.8-0.56c-0.14,1.05-0.57,2.64-1.32,2.64c-23.23,0.17-50.78-0.26-73.88-2.09c-4.55,0.09-8.14,0.05-11.83-3.01  c-2.53,1.22-5.62,0.89-9.25-1c-9.84-0.19-14.76-0.28-14.76-0.28c-4.27,1.59-7.85,1.49-10.73-0.31l-3.22,3.07  c-13.43,0.35-26.85-0.18-40.25-1.6l-3.37-2.78c-2.26,0.84-4.86,0.29-7.81-1.67c-10.52-0.71-21.24-0.03-32.16,2.04l-1.44-2.73  l-1.42,2.59c0,0-33.62-2.19-100.87-6.58l-4.58-2.98c-2.43,1.82-5.15,0.34-8.18-4.44c-11.24-0.2-22.43,0.09-33.57,0.88l-2.95-1.89  c-1.8,2.36-7.12,3.28-9.13,1.48l-5.64,1.94c-17.85-3.89-35.45-8.78-52.8-14.66c-3.14-1.4-3.36-3.13-0.86-5.11  C526.26,1006.58,535.79,1006.65,545.32,1007.01z" />
<path class="cls-6" d="M727.49,875.96c9.75,17.93,13.97,39.59,27.51,54.9c-2.68,9.67-17.8,8.71-26.31,15.3  c-5.01-24.05,3-47.73-4.13-68.92c-1.18-0.52-1.18-1.05,0-1.57C725.14,874.07,726.81,874.5,727.49,875.96z" />
<path class="cls-6" d="M892.85,869.5c0.05,2.23-1.39,3.49-4.31,3.78c1.36,3.05,0.72,4.92-1.93,5.59c-5.6,3.87-19.02,4.17-25.93,2.64  c-1.38-0.31-2.6-0.81-3.61-1.86c-16.8-0.75-32.74-9.48-50.66-11.28c0.12,15.44-1.19,31.05-4.72,46.27l-40.19,17.32  c-2.12,0.91-5.04-0.47-6.51-1.12c-7.7-18.07-18.28-35.11-22.64-54.41l55.33-16.54c1.22,0.78,2.94-0.04,5.18-2.46  c20.69-6.82,91.25-21.34,100.23-39.07L892.85,869.5z" />
<path class="cls-7" d="M970.73,953.4c-10.13-0.24-20.13,1.87-29.99,6.33c-10.83,1.86-21.92,2.15-33.25,0.89  c4.91,1.57,7.01,3.64,2.05,7.26l-37.76,0.64c-1.26,1.31-3.48,2.11-6.65,2.39l-3.16,2.85c-15.08,3.08-30.13,6.44-45.14,10.07  l-3.89-2.28c-4.79-3.15,3.11-4.82,2.54-9.2l10.3-31.76l142.3-15.16c9.2-0.98,17.89-1.3,23.23-8.39  c11.68,5.75,23.23,14.56,20.63,29.97L970.73,953.4z" />
<path class="cls-8" d="M1011.29,889.18c-0.58,9.07-7.95,20.8-17.38,24.4c-40.25,15.38-125.02,9.77-169.03,6.27  c-0.5-4.41-3.82-8-5.28-11.91c-0.69,0.16-1.35,0.25-1.89,0.04c-3.09-1.18-9.41-23.63-8.59-28.06c0.17-1.45-1.07-4.38,0.84-5.27  c0.94-0.44,3.07,0.55,4.62,0.95C879.3,892.33,946.61,911.17,1011.29,889.18z" />
<path class="cls-11" d="M629.84,1028.61c4.01,1.95,7.81,4.67,11.4,8.16l87.95,11.91c2.5-3.02,4.01-6.88,4.53-11.59l2.99-1.51  c11.79,0.77,31.34-8.23,41.41,2.35c3.03,3.29,1.41,11.38-1.22,14.38c18.6,0.29,37.09,0.12,55.46-0.5l-8.21-9.42l0.81-3.14  c9.7-2.99,24.46-5.24,34.73,1.6l4.93,1.82c2.54,3.94,5.72,7.15,9.53,9.64l75.82-3.95c-2.89-1.15-3.97-2.83-3.25-5.04  c11.96-10.05,34.53-3.55,48.15,5.38c12.52-0.85,23.29-1.68,34.11-4.41l1.44-3.04l15.32-0.95l-15.22-5.61l-0.86-3.17  c7.7-1.93,51.59,9.33,37.78,14.38c-3.78,1.78-7.67,3.5-11.82,4.14c-54.26,8.33-114.29,11.64-169.29,13.4  c-103.18,3.3-207.36-2.67-307.51-28.91c-12-3.7-3.14-9.29,4.18-9.72l2.13-1.61c11.58-4.14,24.4,0.09,37.25-1.41L629.84,1028.61z" />
<path class="cls-1" d="M576.02,1024.65c2.7-1.5,6.39-0.5,9.13-1.48c-0.15,5.36-6.56,1.62-11.41,7.21  c155.75,42.51,334.34,35.26,493.71,15.5c-0.23,2.89-1.48,5.61-3.93,6.88c-188.28,25.03-377.82,25.87-559.71-33.37  c-4,1.28-8.49-8.13-5.39-10.78l0.9-1.59c22.97,6.46,46.13,13.06,69.47,19.8C571.04,1025.69,573.45,1024.96,576.02,1024.65z" />
<path class="cls-9" d="M223.6,291.98c6.25,0.16,12.63,2.04,19.12,5.65l18.87,6.3l3.41,3.88c3.54-3.4,12.47,0.52,13.26,5.16  c27.17,11.62,56.94,17.36,83.86,31.17c42.51,21.81,84.17,44.58,123.9,69.27l-1.76,2.23c-48.58-16.86-97.18-33.73-145.78-50.59  l-0.67-3.07c-8.06,0.31-16.08-2.08-24.08-7.16c-32.05-17.89-63.56-36.73-94.53-56.52l-4.08-5.28c-2.47-0.81-2.26-1.78,0.33-2.3  L223.6,291.98z" />
<path class="cls-4" d="M1037.94,1126.22c2.57,1.47,5.2,4.21,6.92,6.94c8.38,13.31,14.81,27.41,17.47,43.99  c-10.41-1.84-22.36,3.22-29.36-2.02c-6.14-4.64-16.19-3.14-24.8-1.6c4.31,3.86,8.59,0.35,11.88,4.13  c-20.51,3.63-39.51,1.95-58.41,2.06l-0.88-4.24l11.99-21.73l3.72-2.01c1.1-2.94,2.48-6.45,3.72-9.22c-1.35-1.74-2.47-3.7-3.34-5.87  c-5.07-3.68-7.3-7.4-6.71-11.15l1.25-2.67c21.04,0.23,42.09,0.45,63.16,0.68L1037.94,1126.22z" />
<path class="cls-1" d="M1094.13,744.21c7.44-1.93,12.77,3.88,19.84,4.43c10.48,0.81,16.9,2.69,23.25,9.4  c3.01,3.18,14.59,1.06,13.38,8.71l-172.81-0.09c3.23-8.03,9.02-8.31,16.59-10.8c5.11-1.68,7.76-10.28,11.58-9.72l16.84,2.47  c5.01,0.73,6.93-7.13,13.24-5.57c3.84,0.96,7.43,1.56,10.84,6.51c7.47-8.79,18.56-8.97,25.39-0.44  C1079.73,744.53,1087.39,745.96,1094.13,744.21z" />
<path class="cls-9" d="M485.26,534.06c2.35,0.27,5.17-0.38,7.46,0.33c3.96,1.23,7.78,2.66,11.95,2.79c8.98,0.26,1.53,36.07,5.38,58.63  c-6.75,3.74-20.6,0.64-26.36-4.31l-2.95-2c2.16-13.33,2.49-27.17,0.03-40.44c-3.21-0.06-3.63-4.99-0.06-5.06  C475.67,539.85,477.3,532.35,485.26,534.06z" />
<path class="cls-15" d="M56.33,68.29c3.75,4.01,9.15,5.45,15.44,8.17l0.36,72.15c-7.27-4.43-16.15-9.28-23.84-13.44  c7.55-20.66,1.41-44.41,4.07-66.73C52.3,64.61,55.3,64.66,56.33,68.29z" />
<path class="cls-1" d="M1037.52,1095.6c-6.41,6.04-13.61,10.6-22.35,12.99l-2.66,3.08c-15.9,0.47-31.18,3.02-45.84,7.64l-3.69-1.16  c-3.67,0.96-8.67-0.2-11.92-2.52l-1.33,2.64c-28.11-0.87-56.22-1.74-84.35-2.6l-1.53-2.73L1037.52,1095.6z" />
<path class="cls-6" d="M486.04,413.42c2.71,0.94,5.95,1.99,8.46,3.69c3.29,2.23-1.96,5.32-1.96,7.88l-152.07-52.82  c-5.81,2.99-8.15-8.64-2.63-10.19L486.04,413.42z" />
<path class="cls-9" d="M499.63,361.55l5.58-0.79c6.49,1.73,32.88,10.85,35.59,14.41c0.61,0.8,1.07,1.72,1.5,2.66  c3.27-0.94,8.01,1.55,8.2,5.13c5.73,3.37,11.33,9.83,18.61,8.26c2.62,0.16,5.23,1.63,7.82,4.42l15.81,8.07  c3.24,1.83,3.99,3.85,2.25,6.07l-2.07,2.11c-28.82-10.19-57.61-20.5-86.38-30.92l-1.49-3.21l-72.58-39.28  c-1.83-1.5-2.02-2.19,0.45-2.17L499.63,361.55z" />
<path class="cls-13" d="M714.96,563.46c5.52,0.63,12.58-0.2,17.91,1.5c6.54,3.43,11.9,6.21,21.71,8.27c-2.62,9.51,0.28,28.92-0.6,38.6  c-0.68,0.98-1.51,2.04-2.71,2.33c-1.06,0.26-18.69-5.02-21.04-6.02l-1.73-2.91c-2.14-2.17-3.54-2.28-4.2-0.33  c-0.1,2.66-1.34,2.74-2.44,0.25l-1.79-0.61c-0.73-11.44-1.04-23.01-0.91-34.71l-2.53-1.98c-0.48,12.6-0.78,25.05-0.89,37.36  c0,0-1.09,0.05-3.26,0.16c-1.82-3.25-2.73-4.88-2.73-4.88l-0.23-31.21l-2.54-0.29l0.24,34.45l-2.66,1.94  c-0.12,3.84-3.26,3.65-4.21-0.01c3.33-13.95,2.2-28.32,2.67-41.55C704.12,560.39,714.68,559.09,714.96,563.46z" />
<path class="cls-8" d="M865.12,970.91c5.59-3.17,16.98-1.73,17.92,5.53c1.52,0.87,2.75,1.36,3.99,1.84c1.64,0.63,0.24,2.39-0.66,2.6  l-3.75,0.91c-6.06,1.47-14.26-0.64-15.71,6.15l-49.13,5.49c-1.25,2.73-3.31,5.74-6.02,4.46c-1.61-0.76-5.43-1.66-4.92-4.78  c0.28-1.72,4.97-2.01,4.7-4.45c-0.19-1.7-3.27-3.01-2.6-4.89c0.41-1.13,2.97-1.1,3.96-2.23  C831.41,980.04,847.59,971.35,865.12,970.91z" />
<path class="cls-4" d="M970.73,953.4c-5.63,0.87-12.13,2.35-17.52,4.62c5.64,2.62,11.95,0.39,16.1,4.4  c-2.91,3.01-75.11-0.62-49.23,9.08l-37.04,4.95c-5.63-3.21-10.66-5.71-17.92-5.53c1.95-2.43,6.93-1.3,3.92-2.95  c-1.18-0.65-2.64-0.22-3.77-2.01l45.79-0.78c-6.07-3.61-12.51-2.61-18.39-4.58c15.8-6.07,30.86,0.63,45.59-2.98  C948.79,955.03,959.38,948.49,970.73,953.4z" />
<path class="cls-2" d="M1015.17,1108.59c9.53,1.25,18.94,9.39,22.77,17.63l-67.82-0.73c-3.68,1.73-9.22-3.27-7.15-7.33  C977.73,1110.19,997.74,1111.29,1015.17,1108.59z" />
<path class="cls-8" d="M1011.21,878.83c2.83,3.7,0.08,5-3.39,6.61c-3.79,1.76-13.56,4.65-15.5,1.16c-8.78,0.56-17.68-0.26-26.71-2.44  l-22.85-1.42c-1.62,2.17-4.62,2.63-9,1.39l-7.06,0.09c-3.81,3.78-14.47,3.92-20.28,3.57c-1.67,0.33-2.91-0.07-3.7-1.19  c-6.03,1.08-8.68-9.17-1.15-8.17l58.81-5.86C977.58,870.84,994.85,876.6,1011.21,878.83z" />
<path class="cls-14" d="M235.61,278.53c2.24-3.58,9.63-3.78,11.8-0.07c2.93-0.17,5.38,0.82,8.36-0.28c-0.19-4.77,8.24-3.68,9.64,0.2  c0.61,0.03,1.18,0.12,1.59,0.42c1.18,0.87,1.38,25.95,0.71,27.15c-0.58,1.02-1.63,1.54-2.7,1.87c-14.01-4.44-28.51-8.71-41.41-15.84  c0.43-3.26-0.98-8.41,1.63-11.26C227.07,278.72,232.45,278.19,235.61,278.53z" />
<path class="cls-11" d="M721.85,605.15c0.76,0.07,1.72-0.3,2.44-0.25c0.41-3.82,3.53-3.39,4.2,0.33c8.26,0.65,16.81,5.78,25.49,6.59  c-1.2,13.36,0.82,1.98-21.04,11.94c-3.72,0.06-10.48-0.17-14.74,0.46c-1.68-2.23,0.89-8.22-1.97-7.72L707.6,618  c-3.57,0.62-7.57,3.07-11.03,2.83c-3.57-0.25-2-6.69-2.45-9.34c-0.68-3.99,2.42-6.13,6.22-6.12l4.21,0.01  c1.58-2.85,5.79-1.86,7.92-0.02c7.49-10.52-1.19-25.51,4.15-37.51l1.79,0.38c0.97,11.02,1.33,22.27,1.08,33.74  C719.5,601.98,720.28,603.04,721.85,605.15z" />
<path class="cls-10" d="M613.64,388.32l1.24,1.4c3.69,3.34,4.14,19.36,2.64,23.75c-0.48,1.42-1.83,2.33-3.07,3.08  c-4.26,3.68-14.57,0.12-15.7-5.38l-2.7-1.29c-0.11,1.22-0.47,1.13-1.06-0.08c-6.26-9.16-20.86-8.26-25.88-18.56  c4.25-0.92,8.83-3.26,13.51-3.01c1.54-3.69,7.49-4.16,9.32-0.48c3.71-0.3,7.33,0.21,11.03-0.47  C603.88,382.56,612.33,384.14,613.64,388.32z" />
<path class="cls-6" d="M594.99,409.79c0.32,0.11,0.72,0.07,1.06,0.08l2.7,1.29c4.92,2.53,10.25,4.39,15.7,5.38  c4.66,0.85,2.41,9.16-2.25,6.76l-106.96-40.13c0.01-1.79-0.41-3.61-0.17-5.41L594.99,409.79z" />
<path class="cls-6" d="M732.64,489.96l-50.5-18.73l-0.53-5.05l-1.23-1.63c-13.72-12.42-34.6-14.02-48.49-26.18l104.02,44.59  C737.57,484.59,734.07,489.25,732.64,489.96z" />
<path class="cls-14" d="M530.4,351.76c1.12-4.68,8.55-3.98,10.45,0.01l1.43,1.53c4.47,5.14,5.08,19.75,0.02,24.54  c-13.2-6.24-28.87-11.07-42.67-16.29c0.41-2.44-1.59-7.78,1-8.94c2.5-1.12,7.23-1.54,9.91-1.15c1.15-3.47,9.23-4.3,10.18-0.39  C523.99,350.99,526.86,352.97,530.4,351.76z" />
<path class="cls-15" d="M203.48,246.39c3.84,1.29,7.93,3.02,11.43,5.76l0.56,38.58c0.01,0.75-0.35,1.54-0.33,2.3  c-1.46,3.97-12.55,1.59-12.76-2.53l-1.21-43.75L203.48,246.39z" />
<path class="cls-11" d="M886.61,878.87c3.17-7.15,8.71-1.38,10.01,4.49c2.52,1.61,4.58,3.43,6.17,5.46  c10.3-1.29,20.88-1.22,31.73,0.23l24.51,2.86c0.29-2.23,2.04-3.14,5.24-2.71l2.48-1.09l2.52-2.2c7.57,1.72,15.36,1.25,23.04,0.7  c6.72,1.56,18.23-1.08,18.89-7.77c3.16,0.43,2.56,3.52,2.43,6.23c-45.33,13.32-91.99,12.46-138.52,0.61  c-6.53-1.66-15.68,0.13-18.04-6.01C866.58,880.08,877.04,878.5,886.61,878.87z" />
<path class="cls-10" d="M56.33,68.29l-3.98,0.15c-3.7,0.14-8.62-1.57-12.15-0.21L40.5,43.3c5.33-0.82,10.22-1.35,15.79-0.15  C57.43,51.9,56.92,60.17,56.33,68.29z" />
<path class="cls-15" d="M267.47,278.2c3.08,1.89,6.98,2.48,10.19,5.18l0.61,29.6c-4.09-1.75-9.17-3.87-13.26-5.16l0.4-29.44  C266,277.14,266.69,277.08,267.47,278.2z" />
<path class="cls-10" d="M28.11,68.22c-5.4,1.05-10.57,0.82-16.09,1.43c0.07-8.06-0.54-16.07,0.4-24.6c5.61-0.73,10.7-0.86,15.79,0.16  L28.11,68.22z" />
<path class="cls-16" d="M432.93,336.31c0.02,0.71-0.45,1.46-0.45,2.17c-14.41-7.8-6.49-11.69-9.23-45.15  c2.28,1.12,7.16,1.67,8.77,4.47L432.93,336.31z" />
<path class="cls-8" d="M1058.14,639.94c0,2.18,2.15,4.21,3.72,5.66l1.55,1.44c1.27,0.52,3.02,1.7,2.5,3.09  c-0.51,1.35-1.97,1.84-2.95,2.49c-9.74,0.22-19.45-0.4-29.11,0.82c-3.61,0.46-5.66-5.01-3.09-6.54c2.49-1.49,4.94-4.91,7.43-6.73  l2.17-2.77l15.31,0.2L1058.14,639.94z" />
<path class="cls-14" d="M622.79,433.85c-1.85-0.32-4.23,0.28-6.46-0.95c-1.57-0.87-1.11-4.43-3.28-5.78c0-1.19-1.26-2.51-0.86-3.82  c2.38-1.65,1.89-4.35,2.25-6.76c1.35-8.87,0.43-17.87,0.43-26.83C628.05,384.97,617.14,426.05,622.79,433.85z" />
<path class="cls-10" d="M267.47,278.2c-0.68,0.06-1.39,0.07-2.06,0.18c-2.99,0.49-6.73-1.26-9.64-0.2c-0.23-5.75-0.72-11.57,0.5-17.66  c3.76-0.81,7.32-0.82,10.87,0.1L267.47,278.2z" />
<path class="cls-15" d="M550.51,382.97c-2.86-1.28-6.99-1.93-8.2-5.13c0.98-8.14,0.18-16.36-0.02-24.54c1.8,0.23,7.53-0.1,7.9,2.97  C551.3,365.44,550.45,374.36,550.51,382.97z" />
<path class="cls-13" d="M1058.12,629.27l0.02,10.66c-6.58,1.23-13.33-0.25-19.96,0.22c-0.34-3.49,0.76-7.24,0.08-10.7  C1040.11,624.76,1054.5,625.6,1058.12,629.27z" />
<path class="cls-10" d="M247.41,278.46c-4.05,0.23-7.77,0.5-11.8,0.07l0.32-16.71c3.89-0.7,7.42-0.83,10.89,0.28  C247.84,267.84,247.07,273.16,247.41,278.46z" />
<path class="cls-4" d="M1028.98,1044.27l-0.53-12.74c0.39,0.01,0.84,0.06,1.22-0.04l25.84,9.52  C1046.98,1044.67,1037.51,1042.12,1028.98,1044.27z" />
<path class="cls-8" d="M1058.12,629.27l-19.85,0.19c-1.34-6.84,8.3-7.35,9.71-16.61L1058.12,629.27z" />
<path class="cls-6" d="M423.25,293.34c-2.79-1.37-8.89,1.41-10.42-1c-2.18-3.4-0.11-8.21-0.68-11.77c-0.83-5.23,4.24-4.99,9.97-3.85  C423.22,282.16,422.8,287.79,423.25,293.34z" />
<path class="cls-6" d="M392.65,293.2c-3.63-2.48-2.47-13.38-0.68-16.4c7.86-2,9.8,0.37,9.72,6.57  C401.6,290.34,401.53,296.14,392.65,293.2z" />
<path class="cls-4" d="M540.85,351.77c-3.23,0.35-7.31-1.08-10.45-0.01l0.56-15.27c3.07-1.17,6.52-1.27,9.45-0.24L540.85,351.77z" />
<path class="cls-4" d="M520.73,351.07c-3.38,0.08-6.62,0.92-10.18,0.39l0.7-14.71c5.13-0.91,9.66-1.53,9.38,2.72  C520.37,343.54,520.77,347.3,520.73,351.07z" />
<path class="cls-13" d="M613.64,388.32c-3.38-0.35-7.22-1.69-10.66-1.06l-0.2-11.42c-0.05-3,1.18-6.02,7.48-5.83  C613.93,375.29,611.82,382.48,613.64,388.32z" />
<path class="cls-13" d="M591.94,387.73c-3.19,0.26-6.08,0.65-9.32,0.48c0.69-5.03-2.28-14.51,1.94-17.22c6.1-2.09,8.33,1.96,7.69,5.99  C591.71,380.45,592.32,384.14,591.94,387.73z" />
<path class="cls-4" d="M892.85,869.5c-0.02,3.33,5.44,9.25,8.72,8.93c-0.99,1.29-2.5,2.51-1.81,3.82c0.93,1.78,1.82,3.11,2.97,4.35  c3.55-0.27,3.45,1.07,0.08,2.23c-15.62-2.38-4.79-12.9-16.19-9.95c0.7-2.33-1.82-5.62,0-7.38  C888.17,869.97,890.98,870.07,892.85,869.5z" />
<path class="cls-3" d="M1030.02,1382.21c-1.37,0.87-2.77,1.7-4.25,2.34c-1.46,0.63-2.9,1.23-4.37,1.4  c-41.77,4.84-89.3,5.11-131.55,4.86c-4.83,0.03-7.57-3.66-10.12-7.19c-63.84-2.15-127.6-3.61-191.21-1.27  c-5.51-1.43-14.17-4.26-9.02-11.09c-20.47-1.86-41.01-2.63-61.6-2.3l-209.45,0.6c-0.99,3.5-2.52,5.6-6.28,6.03  c-1.84,0.62-37.5,0.93-38.95-0.38c-2.42-2.18-1.46-5.97,1.71-6.47c-35.93-0.62-71.77-1.19-107.52-1.69l-1.57-2.7  c9.86-25.26,26.85-44.73,52.29-54.72l1.01-2.65l288.21,7.93c115.54,4.07,230.48-4.71,345.48-14.03c7.97-0.65,15.96-0.35,23.93,0.13  c33.5,10.66,54.56,38.12,60.11,73.37c-13.44-0.24-25.06-1.31-36.32,3.3C1004.85,1381,1017.77,1378.12,1030.02,1382.21z" />
<path class="cls-4" d="M255.82,1364.35l122.56,1.86l-15.79,6.36l39.22,0.39c1.24,0.01,3.87-1.52,3.59-2.12l-1.85-3.94l188.23-0.53  c32.31-0.09,62.69-0.61,95.04,2.63c-0.45,3.83-3.69,3.2-5.04,3.85c-2.53,1.23-1.26,4.2,0.51,4.42c2.18,0.28,4.21,2.47,6.39,2.42  l82.97-1.58l109.75,2.88c1.75,2.57,4.05,7.31,8.45,7.15c46.8-1.77,94.19,0.14,140.15-5.93c4.84-0.64,13.53,0.2,14.92,4.27  c-4.15,2.63-9.37-0.18-11.7,2.45c-4.59,5.19,9.64,20.18,2.3,25.52c-19.01,2.74-37.97,0.43-56.41,1.17  c-6.53-0.36-10.79-0.74-3.46-5.73c19.29-1.26,19.75-1.92,1.4-1.99l-1.99-2.79c-54.22-3.52-108.89-0.54-163.28-0.37l-2.95-0.03  l-97.61,1.33l-2.96,0.06c-44.9,0.23-89.49,2.07-134.84,6.3c-20.5,1.91-40.36-1.95-59.06,3.35c-4.68-0.74-10.82-0.38-15.74-3.75  c5.05-4.1,10.57,0.22,15.61-5.25c-11.85-2.93-23.22-5.11-34.09-3.48c4.32,1.97,9.38,0.26,12.7,3.67  c-20.03,3.45-39.82-3.15-59.24,3.53l30.9,8.23l-121.69,10.75l-124.64,12.9l14.93-35.93c4.45-10.7,13.67-20.66,17.27-32.77  c1.44-4.84-5.03-4.85-8.55-7.86C246.57,1364.24,251.51,1364.29,255.82,1364.35z" />
<path class="cls-1" d="M1008.48,1271.24c-5.18,5.72-10.36,13.25-17.32,17.41c-7.41,4.42-16.16,9.99-24.42,12.37  c-130.01,14.52-261.76,19.67-393.4,16.01l-265.23-7.38c-15.95-6.57-29.46-15.63-41.65-27.81c-2.41-2.41-3.18-6.79-5.07-9.43  c5.76-0.25,11.58-0.42,17.3,0.48c85.82,13.51,167.82,26.4,255.01,30.02c155.31,6.44,310.86-9.54,464.53-31.82L1008.48,1271.24z" />
<path class="cls-6" d="M979.14,1415.63c-4.27,0.17-9.21,1.36-13.48-1.83c5.07-1.87,10.29-3.74,9.42-8.68  c8.38,0.54,17.37-0.35,26.49,3.68c-9.66,4.54-18.63,1.29-28.17,4.5C974.77,1415.4,977.46,1414.52,979.14,1415.63z" />
<path class="cls-11" d="M493.05,730.01c2.38-3.67,5.21-7.23,8.47-10.7l3.5,0.17c9.79-6.82,15.87-18.9,17.23-31.01  c7.98-3.93,6.84,12.74,1.34,14.47c-1.04,4.98-2.85,9.67-5.44,14.09l1.61,22.66c1.16,8.95-0.62,16.44-5.34,22.49l1.28,1.81  l-2.83,13.39c0.34,5.68-0.43,10.46-2.29,14.33c-12.63,6.34-4.38,23.97-11.25,22.86l-3.57,0.95c-0.33,9.5-3.1,17.83-8.32,24.98  c-7.27-0.56-68.65,14.93-71.25,6.88c-2.76-4.52-4.19-13.73-12.7-15.06c-1.57,6.77,4.28,11.54,7.21,18.75  c-9.18,1.58-17.89,3.17-26.29,3.62l-2.98-2.01c0.28-9.15,0.18-18.27-0.32-27.33l2.05-2.8c-3.23-1.73-3.83-5.55-1.81-11.46  c9.15-3.12,14.12-13.13,2.21-16.4l-0.64-2.89c1.02-0.18,3.62,0.05,3.76-1.23c0.12-1.08,0.8-3.69,0.45-5.02  c-6.18-23.83-4.99-47.1-6.47-71.1c-0.75-12.18-13.19-22.37-10.27-35.53c6.82,10.82,8.14,22.97,14.86,32.28l1.24-59.83  c8.28,0.35,14.97,0.21,21.95,2.09l-0.16,81.6C433.64,754.43,472.81,753.36,493.05,730.01z" />
<path class="cls-8" d="M201.1,677.23c2.68-4.75,10.7-2.23,12.47,2.67l0.65,83.53c0,0-0.89,0.84-2.66,2.51  c4.07,0.97,4.45,10.03,0.14,10.83l1.51,2.75c-0.02,14.69,0.15,29.42,0.5,44.18c6.34,1.12,13.19,0.35,20.57-2.33  c10.68,3.02,21.02,2.98,31.01-0.12c4.87,1.45,9.1,0.92,12.7-1.61l18.46,6.39c8.12-7.17,15.65-7.91,22.95,0.69  c2.63,1.51,5.24-0.43,7.81-5.82c17.61-7.57,39.23-7.09,55.94,1.67c3.11,10.46-0.64,21.43,1.25,32.15c0.26,1.5-0.3,3.54-1.01,4.95  c-0.62,1.24-2.82,1.98-4.93,2.29l-106.51,15.69c-20.35,3-39.31,8.11-60.86,5.97l0.47,106.27c-3.84,3.53-8.96,3.92-13.36,5.07  l-0.05-317.2C199.11,677.76,200.14,677.11,201.1,677.23z" />
<path class="cls-6" d="M95.02,1060.85l122.99-35.19c8.25,12.57,1.26,31.02,3.89,47.19l-52.55,17.22c-3.32,2.06-1.52,12.53,2.58,14.47  l49.58-15.23l1.42,61.91l-76.08,29.75C125.29,1142.04,107.52,1102.1,95.02,1060.85z" />
<path class="cls-6" d="M519.83,1004.55c-3.07,3.08-7.5,4.06-13.29,2.96c-4.26-1.35-6.96-0.98-8.11,1.1l5.39,10.78  c2.64,5.28,5.26,10.67,5.63,16.84c0.32,1.02,0.6,2.63-0.06,2.95c-25.19,11.88-52.07,22.67-77.91,32.76  c-26.47-24.58-50.32-49.58-70.24-79.98c-1.27-1.93-1.95-3.77-1.18-6.12l143.33-44.31c0.02-2.58,1.11-2.5,1.63,0.11  c6.56,18.41,12,41.32,16.18,61.66C521.27,1003.61,520.64,1004.06,519.83,1004.55z" />
<path class="cls-6" d="M577.14,1009c-6.04-1.09-12.72,1.06-18.79-0.78c-11.16-6.2-19.83-19.67-26.75-30.69  c-5.95-9.47-14.06-23.6-16.76-34.24c-0.23-0.92,0.12-2,0.65-3.11c40.77-13.57,82.39-25.8,124.01-36.45  c2.45,1.19,2.84,1.33,1.74-0.89l2.72-1.5c9.72,22.17,14.13,46.21,27.48,68.77L577.14,1009z" />
<path class="cls-6" d="M346.6,988.67l1.49,0.33c3.16,57.87,4.74,86.81,4.74,86.81l-1.63,1c-26.86-0.07-54.04-1.16-81.54-3.28  c-4.13,0.38-6.84-0.71-8.13-3.28c-0.77-2.09-0.96-6.64-3.31-8.33l-33.36,9.65l-0.12-47.22l119.35-35.95  C344.85,985.31,345.98,985.62,346.6,988.67z" />
<path class="cls-1" d="M360.05,985.84c17.02,32.13,44.51,58.87,72.09,83.83l77.31-33.44c7.68,8.07,10.2,21.39,19.79,29.66  c4.52,3.9,4.52,16.29,13.6,18.01l82.61,15.65c-2.7,0.5-5.4,0.94-8.11,1.2c-2.7,0.26-5.39,0.48-8.05,0.33  c-64.41-3.56-128.88-7.18-193.13-13.17c0,0-5.27-1.47-15.82-4.42l1.1-3.87c7.39-3.75,14.96-7.09,22.7-10.02  c-27.08-22.56-49.36-50.22-69.49-78.88c-2.3-1.37-4-3.04-5.08-5c-3.04,3.08-10.79-2.2-6.54-5.87  C348.47,981.13,355.35,981.75,360.05,985.84z" />
<path class="cls-10" d="M540.99,709.64l2.67,0.95c-0.28,39.8-0.56,79.62-0.83,119.44l-2.69,1.61l0.15,4.09l-0.56,73.23  c-5.69,2.52-10.77,3.58-16.82,1.07c0.45-24.12-2.19-47.44-1.68-70.56c-1.04-0.15-2.59-0.5-2.65-1.25  c-0.63-7.81-0.45-32.19,0.88-39.43l2.72-1.87l-1.24-1.67c5-10.24,7.5-22.29,1.34-32.57l1.36-3.16c-2.6-3-3.62-6.39-3.06-10.17  c0.75-13.41,1.08-26.81,0.99-40.2l2.01-6.19c-0.62-4.48,5.02-11.78-1.34-14.47c0.46-4.13-1.84-8.41,3.55-8.48  c4.22-0.06,7.55,0.07,14.29,0.45L540.99,709.64z" />
<path class="cls-8" d="M587.88,710.89c1.09,3.39,2.13,6.9,3.11,10.53l-2.77,1.63c1.2,1.08,2.04,2.4,2.11,4.02  c1.24,30.71,1.89,64.56,0.42,94.94l-2.69,1.56c3.44,2.38,3.23,4.15-0.7,5.33c2.34,9.54,3.02,19.59,2.02,30.14  c1.32,10.3,0.86,20.03-1.39,29.2c2.47,0.43,2.59,1.58,0.01,2.16c-1.38,3.22-1.13,6.35-3.53,6.67c-2.81,0.37-4.92,0.27-7.1,0.28  l-2.06-7.16c0.68-62.8,0.09-125.93-1.51-188.86c0.21-0.99,0.01-1.52-0.01-1.9c0.45-1.59,1.82-3.77,3.48-4.06  c4-0.16,7.44-0.79,10.27,1.07C587.65,701.83,587.28,706.41,587.88,710.89z" />
<path class="cls-13" d="M182.93,853c0.95,12.98-0.04,25.84-0.16,38.82l-27.58,3.08l13.69-56.5l1.41,0.57  c0.14,7.88,0.85,25.11,10.68,13.33L182.93,853z" />
<path class="cls-4" d="M577.36,897.37c-2.02,0.01-3.52,0.19-4-0.54c-0.44-0.66-1.51-2.15-1.49-3.62l0.82-61.73l0.52-59.81l-1.51-0.91  c-0.37-17.91-0.13-36.74,0.36-54.66c0.01-0.31,0.51-0.61,1.16-0.91c0-5.38-0.3-9.66,0.57-13.83c4.83,35.98,2.61,73.5,3.58,111.67  C578.1,841.91,580.2,869.51,577.36,897.37z" />
<path class="cls-2" d="M74.88,1048.71c0.18,1.28-0.19,2.7,0.12,3.97c2.02,1.24,3.81,1.68,5.36,1.34c2.6,0.1,4.93-0.03,7.24,1.15  c2.75,1.42,1.4,3.73,2.25,5.75l-1.18,1.4c-0.19,2.68-1.46,3.06-3.09,0.92c-0.45-0.34-0.85-0.78-1.36-1.04  c-33.82-17.98-25.78,2.42-47.02-13.53c-9.71-7.29-25.67-4.48-36.02-13.13l37.9,7.02c2.04-6.76,6.2-12.73,12.6-11.61  c5.86,1.02,8.88,6.9,8.94,13.74C65.3,1046.24,70.3,1047.99,74.88,1048.71z" />
<path class="cls-2" d="M343.01,979.85c0.44,2.01,4.06,5.71,6.54,5.87c1.17,0.38,1.15,0.83,0,1.34c-0.62,2.18-1.11,3.66-2.96,1.61  c-0.68,0.31-1.78-0.18-2.5-0.26l-1.32-1.03c-6.79,0.74-15.45-5.91-21.75-3.9c-9.22,2.94-11.3-2.98-17.67-4.4l-69.53-15.53l70,10.29  c2.84-5.17,5.43-11.49,11.62-10.41c5.47,0.95,7.44,5.48,8.17,12.05C330.85,976.29,337.16,978.48,343.01,979.85z" />
<path class="cls-2" d="M641.6,896.91c0.3,1.7,1.7,2.92,2.36,4.42l-1.18,42.4c3.46,2.94,6.27,8.32,5.22,12.87  c-0.69,2.99-1.33,10.28-6.18,9.27c-15.23-3.15,5.44-34.36-2.31-62.15c-15.35-7.74-34.25-9.82-51.52-13.32  c0.14-0.33,0.07-1.06-0.01-2.16l1.83-2.48l22.87,2.79c5.67-9.38,15.79-8.83,18.23,2.44C637.81,891.11,641.37,893.08,641.6,896.91z" />
<path class="cls-16" d="M515.47,796.44c2.92-1.38,5.15-1.22,6.71,0.48l-0.95,42.55c-6.07-0.9-12.36,2.51-18.36,0.53  c0.1-16.56,6.44-30.73,8.92-45.75C513.53,791.04,515.47,793.51,515.47,796.44z" />
<path class="cls-2" d="M498.21,933.26c1.7,1.55,3.96,2.36,6.77,2.44l0.22,1.61c1.98,0.81,2.83,1.46,1.03,2.86  c0.31,0.91-0.15,1.36-1.22,1.47c-0.47-0.17-1.19,0.13-1.63-0.11c-9.53-5.11-20.45-4.34-30.33-6.66l-79.67-18.67l76.97,13.22  c1.64-4.92,4-8.47,8.4-8.04c4.34,0.42,6.31,3.71,6.83,8.89L498.21,933.26z" />
<path class="cls-1" d="M515.49,940.18c8.41,25.86,23.19,49.21,42.86,68.04c-2.12-0.64-4.45,0.02-6.59-1.07l-5.7-2.74  c-15.72-17.63-27.56-40.42-36.35-62.08l-4.5-5.03c-2.12-2.04-7.49,0.13-6.99-4.05C503.98,934.63,512.13,934.43,515.49,940.18z" />
<path class="cls-6" d="M518.21,763.47c1.48,4.3,1.24,9.43-0.71,15.37l-0.19,7.3c1.18,3.65,1.03,6.77-0.43,9.36  c0.27,0.74-0.2,1.05-1.41,0.94l-3.68-2.19c-0.28-0.9-0.68-1.76-1.22-2.53c-1.29-10.39,0.85-20.65,3.84-29.54  c1.23-2.24,2.47-2.75,3.72-1.52C521.7,760.73,521.55,762.16,518.21,763.47z" />
<path class="cls-14" d="M499.32,814.58c-3.35,8.45-3.72,21.99-11.9,25.93C497.99,819.18,488.02,802.17,499.32,814.58z" />
<path class="cls-14" d="M62.27,629.62l-41.34-2.16l0.47-117.87c14.25,1.13,27.63,2.69,41.21,5.93L62.27,629.62z" />
<path class="cls-14" d="M169.7,635.57c-12.89,0.2-24.61-0.57-37.2-1.78l0.3-106.73c12.08-0.27,23.67,2.27,36.42,4.85L169.7,635.57z" />
<path class="cls-8" d="M36.28,442.96l3.34,0.22c2.48,11.98,6.48,15.94,12,11.87l3.38,0.1c2.06-4,7.65-0.94,7.87,3.16  c10.91,2.45,16.36,3.67,16.36,3.67c2.92-1.01,4.87-3.27,5.85-6.79c7.39-4.14,14.14,11.34,7.51,14.98  c-1.7,6.96-3.39,14.05-7.65,21.26L15.8,479.68c-3.4-7.04-0.92-14.5-1.91-21.24c8.16-3.12,18.44-6.02,19.39-15.31  C34,440.46,35.27,440.39,36.28,442.96z" />
<path class="cls-8" d="M179.53,470.18c0.91-0.56,1.94-0.91,3-0.59c0.99,0.3,13.44,14.14,10.39,16.51  c-2.49,6.44-3.39,13.42-7.31,20.53l-62.35-10.29c-2.79-6.92-2.12-14.22-1.15-21.15c2.95-3.1,13.09-3.44,15.72,0.11  c5.13,2.91,5.93,3.31,12.47,0.93c6.7,10.14,11.55,9.62,14.56-1.56c2.5-1.53,5.2-2.59,8.1-3.16  C171.97,467.01,178.19,466.23,179.53,470.18z" />
<path class="cls-2" d="M63.47,398.86c1.42-1.67,7.3-3.64,8.09-0.99c1.42,4.77-1.19,8.89-0.47,13.1c4.14-0.89,6.39,13.11,2.58,14.93  l-1.77,2.5c-18.56-3.9-23.6,9.13-15.29,24.04L55,455.15c-1.69,2.57-4.47,4.26-7.54,4.4c-7.81,0.36-7.34-12.01-11.18-16.58  c-0.21-3.2,2.33-6.27,7.63-9.21c3.5-4.66,3.62-10.36,0.37-17.09c-0.87-3.32-1.02-5.82,2.63-6.85c-8.09-7.86-2.18-20.73,9.83-12.75  C58.9,401.09,61.14,401.69,63.47,398.86z" />
<path class="cls-2" d="M92.37,427.04c1.78,2,2.2,5.6,5.23,5.52l1.88,2.4c-7.15,16.82,14.33,26.69,22.76,11.54l3-0.68  c0.62-3.01,4.86-5.32,7.37-2.95c0.11-4.75,7.25-4.06,7.79,0.23c7.16-0.37,13.08,2.51,6.82,9.88c-1.82,2.14-5.38,4.34-7.93,2.43  l-3.34,0.61c-11.16-5.15-16.23,5.06-13.12,14.51l-2.17,2.13c0.78,0.56,0.73,1.05-0.13,1.46c0.38,3.28-0.24,10.76-5.25,9.29  c-7.61-2.24-3.96-11.3-3.05-17.03c-3.62,3.59-5.17,8.27-9.04,9.55c-4.9,1.63-7.79-2.01-10.61-5.75c1.26-5.16-1.44-11.58-5.05-14.51  c-2.3,7.87-6.43,10.06-13.06,8.78c-3.82-0.73-9.19-2.01-11.61-6.13l1.33-3.11c13.66-4.71,15.17-14.45,7.53-26.08l1.94-3.23  C77.28,422.31,88.77,423.67,92.37,427.04z" />
<path class="cls-2" d="M222.35,460.67c5.9-0.74,7.34,12.97,0,10.71c-0.38,3.56-1.62,3.43-2.71,0.04l-6.7,1.16  c5.48,0.98,6.32,15.25,1.33,17.35c4.35,4.13-7.07,11.4-9.22,5.73c-3.83-3.5-6.86-8.62-12.12-9.57l-13.4-15.92  c-0.94-1.95-0.31-3.76,1.89-5.44c2.4-5.67,6.03-7.39,10.9-5.15c6.84-1.76,13.74-1.25,20.69,1.55  C216.71,459.97,219.82,459.82,222.35,460.67z" />
<path class="cls-4" d="M139.31,455.4c8.57-1.6,6.22,20.53-1.47,19.89c-5.27,0.5-10.51,1-15.72-0.11c0.05-0.35,0.03-0.82-0.07-1.16  l-1.38-1.37c-1.9-6.2-2.5-12.62,2.5-18.01C126.32,451.25,135.17,450.66,139.31,455.4z" />
<path class="cls-5" d="M1035.16,1220.02c-6.17,18.18-13.85,37.05-26.67,51.21c-139.62,22.61-280.62,36.77-423.22,35.66  c-109.29-0.85-217.46-14.4-323.87-34.51c-10.62-14.15-20.08-29.81-28.09-45.57c-6.51-12.81-10.52-27.12-16.76-43.11  c106.34,38.28,216.85,57.72,329.26,63.85C710.52,1256.54,873.27,1244.82,1035.16,1220.02z" />
<path class="cls-8" d="M976.46,1151.73c-3.73,9.95-10.27,18.36-14.83,27.99c-2.69,5.69-9.88,9.22-10.95,15.84l-1.02,2.65  c-91.49-2.94-183-5.89-274.52-8.83l-1.56-2.73c-0.38,1.14-0.76,1.07-1.14-0.13c-3.95,0.06-4.12-2.55-1.66-5.08l-4.77-0.04  c-14.4-8.35-32.12-7.95-47.76-3.57l-3.37-1.75c-0.11,3.72-3.77,5.24-7.03,4.06c-11.05,1.35-22.32,1.27-33.8-0.23l2.79,2.51  c-3.57,0.53-7.14,1-10.72,1.28c-3.58,0.28-7.14,0.55-10.68,0.39c-74.58-3.25-149.18-6.76-223.59-12.93c0,0-6.99-1.53-20.96-4.58  l-10.44-21.72c6.07-13.93,12.19-27.63,21.02-40.58C531.66,1173.99,759.75,1171.1,976.46,1151.73z" />
<path class="cls-5" d="M310.89,1166.58c88.21,8.35,177.32,11.57,265.95,15.84c0.08-0.63,0.2-1.24,0.49-1.76  c0.66-1.2,26.22,0.29,27.13,1.31c0.42,0.47,0.63,1.12,0.79,1.83c0.62-0.64,1.22-0.73,1.79-0.12c6.93,7.5,11.44,9.38,21.87,11.11  c14.42,2.39,33.82,3.18,44.67-8.15l277.1,8.91c17.5,0.56,35.08,2.81,52.65,1.8c6.09,0.1,21.4,0.4,15.26,8.91l-101.31,12.85  c-6.08-1.49-11.95-3.91-17.61-7.25c-13.29-4.84-41.71-2.54-55.68,0.23c4.15,3.56,4.17,4.87-1.01,7.01l-108-5.07l-4.61-2.9  c-2.34,1.18-4.98,0.25-7.91-2.79l-41.54-1.12c-0.64,1.75-1.72,2.87-3.26,3.35l-1.33,2.63c-32.52-1.22-65.05-2.44-97.59-3.66  l-1.5-2.74c-1.83-0.11-2.88-1.59-3.16-4.46l-42.65-1.49c-1.68,3.37-3.9,4.9-6.66,4.58l-2.68,2.51  c-33.84-2.22-67.68-4.43-101.51-6.65l-1.45-2.78c-1.75-0.42-2.92-1.85-3.52-4.29l-53.14-2.57c-5.35,4.33-10.95,8.33-16.81,12  c-38.41-8.7-76.83-17.87-114.07-30.83c-4.96-1.88-4.82-3.48-1.99-6.82c0,0,18.1,0.11,54.31,0.32  C291.98,1165.96,302.83,1165.81,310.89,1166.58z" />
<path class="cls-7" d="M283.93,1166.31l-55.75,2.43c39.37,14.34,77.84,22.62,117.27,32.44l16.07-12.25l54.15,2.64  c3.42,0.17,3.67,4.82,3.48,6.93l0.79,2.94c0,0-1.6,3.46-4.81,10.39l96.57,12.7c0,0,3.01-5.52,9.04-16.56l4.05-2.55  c0.87-2.07,3.65-5.1,5.72-6.94l44.42,1.21c2.29,0.06,2.82,5.7,2.32,7.1l0.94,3.25c-3.15,5.44-5.56,11.22-7.22,17.34  c38.98,0.74,78.02,1.15,117.14,1.21l-5.35-8.96c-3.4-2.98-5.09-6-5.09-9.07c0.07-1.81-0.31-3.72,0.51-6.11l45.01,1.35  c2.32,0.93,5.56,3.88,7.19,5.32l4.77,2.14l12.44,13.79l103.18-7.7c-3.61-1.82-5.87-4.24-6.78-7.26c-0.02-0.91-0.46-2.02-0.02-2.98  c1.48-3.22,43.93-2.19,50.14-1.51c7.89,0.86,14.21,6.56,22.12,8.97l102.94-13.08c-4.78-3.55-11.16-4.16-15.84-6.14  c0.29-3.54,45.58,1.21,39.57,8.01c-0.6,0.68-2.46,1.93-2.57,2.86c-246.22,36.89-543.6,56.08-783.36-22.59  c-18.2-5.97-36.66-9.35-52.79-22.38C232.46,1161.93,258.62,1163.09,283.93,1166.31z" />
<path class="cls-10" d="M351.21,1076.81c1.16,0.42,1.12,0.88-0.05,1.35l-0.94,2.67l-42.91-0.49c33.92,10.01,68.15,19.52,102.66,28.53  c7.55-3.31,15.29-6.04,23.2-8.19c20.61-0.16,40.99,1.6,61.14,5.26c4.41,2.53,6.97,5.84,0.88,6.39l-2.33,3.65l-13.92,6.67  c45.5,8.93,91.49,15.13,137.95,18.58l14.23-17.58l3.44-0.89c-2.69-3.25,2.36-5.42,5.48-6.24c2.68-0.7,39.25,0.26,42.9,0.99  c4.65,0.93,10.4,3.48,5.61,7.62c1.4,3.44-7.75,18.43-9.73,19.8c-5.71,1.31-3.26,0.97,5.23-0.27c48.69,0.77,97.36,0.7,146-0.23  c-2.68-0.51-5.55-8.66-3.79-11.56c-7.15-2.36-2.21-6.61,3.62-8.15c15.72-0.07,31.45,0.85,47.2,2.77c6.49,8.76,9.74,13.14,9.74,13.14  c25.36-1.63,50.68-3.85,75.97-6.67c-3.61-5.26-7.7-10.19-12.27-14.78l0.52-3.56c3.53,0.11,9.35-1.83,11.92,2.52  c1.81,3.07,5.31,4.58,7.15,7.33c4.28,6.42,13.16,10.05,10.05,17.02c-249.08,23.29-477.35,21.34-713.89-65.68  c-2.58,2.56-5.19,0.46-5.01-2.85c-0.03-1.15,0.67-2.58,0.25-3.72L351.21,1076.81z" />
<path class="cls-6" d="M266.29,1076.82c-0.09,4.12,4.59,7.02,5.82,10.49l4.21,3.41l11.66,22.74c3.01,4.41,3.55,8.29,1.61,11.64  l-63.96,25.17l-0.53-62.59l36.18-13.72C263.02,1074.19,265.06,1075.63,266.29,1076.82z" />
<path class="cls-8" d="M289.58,1125.11c-3.84-13.55-12.83-24.68-17.48-37.8l45.04,15.99l-18.74,37.18L289.58,1125.11z" />
<path class="cls-6" d="M80.36,1054.02c0.02,1.87-1.78,1.3-2.77,0.76c-0.89-0.49-2.31-0.98-2.59-2.1  C77.01,1051.44,78.8,1053.96,80.36,1054.02z" />
<path class="cls-4" d="M204.83,1533.48c-2.39-5.13,1.22-9.49,2.76-14.73c6.35-0.77,13.8-2.53,17.8,2.83  c4.07,5.45,2.4,12.74-3.37,16.45C215.85,1542,211,1536.13,204.83,1533.48z" />
<path class="cls-14" d="M63.47,398.86c0.02,2.56-1.44,6.15-3.01,8.13c-2.31-3.76-4.01-7.03-6.47-8.73c-1.77-1.23-7.39-1.92-7.92,1.18  c-0.63,3.71,1.97,6.96,0.85,10.37l-2,2.31c-6.86-2.73-13.27-3.1-19.23-1.13l-2.61-1.39l-2.41-164.21l41.72,12.82L63.47,398.86z" />
<path class="cls-14" d="M170.29,432.35c2.41,0.91,2.06,1.84-0.54,1.64c-3.73,1.42-12.82,1.93-15.62-1.51c-2.28,2.48-4.7,0.77-6.36-1.49  c-2.4-0.97-4.72-3.09-6.95-6.35c-3.9-0.61-6.66-1.92-8.27-3.93l0.09-138.67c12.9,2.41,24.18,6.82,36.75,11.27L170.29,432.35z" />
<path class="cls-4" d="M199.6,440.78c1.93-1.59,3.94-0.71,6.03,2.64c9.18-4.25,18.89-1.41,20.09,9.4c0.29,2.59-0.4,7.49-3.38,7.86  c-6.64,5.06-11.63,3.21-18.99,0.4c-4.04-1.54-11.42,3.93-16.05-0.76c-2.58,4.55-4.29,7.55-7.77,9.87c-1.88,0.63-4.81-0.2-6.57,1.33  l-3.1,0.42c-2.53-4.41-3.84-9.28-3.95-14.62c-3.5,0.41-6.8,0.16-10.06-1.32c-4.56-2.06-9.33-11.39-8.65-15.66  c0.48-3.05,3.26-10.54,6.92-7.84c5.06-0.19,11.2-1.82,15.62,1.51c1.26,1.22,2.74,0.29,4.45-2.78c-0.61-6.3,5.82-11.22,11.29-10.49  c6.39,0.86,9.63,6.65,8.7,13.34c-0.34,2.47-2.43,4.89,0.5,5.88C195.82,440.33,198.31,440.1,199.6,440.78z" />
<path class="cls-4" d="M46.91,409.81c-1.67,5.06,1.9,10.69,2.5,16.25c0.97,8.95-7.41,12.09-13.14,16.9c-1,0-2,0.06-2.99,0.17  c-4.78-2.92-10.48-4.5-12.31-8.45c-2.7-5.85-2.18-11.99-2.06-16.97c1.9-2,3.97-5.26,4.16-8.11  C29.48,404.18,39.05,408.23,46.91,409.81z" />
<path class="cls-4" d="M120.63,429.73c4.84-0.21,11,14.86,4.62,16.09c-2.51,10.08-13.94,12.84-22.03,9.08  c-8.25-3.84-9.4-14.36-5.62-22.34c2.69-5.67,5.77-9.93,11.59-9.42C113.71,423.53,119.17,424.96,120.63,429.73z" />
<path class="cls-4" d="M73.66,425.89c1.37,7.95,8.61,12.32,4.43,21.08c-2.79,5.85-8.01,9.72-15.22,11.34  c-2.79-0.66-4.97-2.79-7.87-3.16c-3.98-7.49-7.2-16.19-3.01-23.53C56.51,423.67,65.32,424.98,73.66,425.89z" />
<path class="cls-4" d="M92.37,427.04c-6.31,0.74-12.44-0.47-18.71-1.15l-2.58-14.93c2.4-6.33,6.3-11.92,12.72-12.16  c7.91-0.29,13.1,3.84,14.94,10.65C100.6,416.32,96.66,421.6,92.37,427.04z" />
<path class="cls-4" d="M147.77,430.99c4.7,3.16-1.4,15.19-7.35,12.1c-2.3-0.04-5.6-1.37-7.79-0.23c-5.06,2.01-9.59-11.43-6.61-14.14  c2.59-2.1,3.39-6.66,6.53-8.01C139.71,419.26,146.84,423.63,147.77,430.99z" />
<path class="cls-2" d="M174.2,431.21c0.71,7.29,8.59,9.89,13.49,11.64c-0.76,9.01-6.69,6.48-12.17,4.7  c-5.44-1.77-3.78-8.53-5.77-13.56c-0.17-0.44,0.54-1.15,0.54-1.64C171.55,431.84,172.87,431.49,174.2,431.21z" />
<path class="cls-3" d="M132.62,442.87c-2.29,1.39-4.37,3.57-7.37,2.95c1.34-5.41-0.79-11.22-4.62-16.09  c1.81-0.26,3.62-0.53,5.39-1.01C126.95,434.03,128.93,438.93,132.62,442.87z" />
<path class="cls-13" d="M184.74,724.53c0.63-0.04,1.24-0.02,1.78,0.19c2.46,0.96-2.41,46.02-3.1,52.33c-0.04,0.32-0.61,0.59-1.34,0.83  l1.16,2.34l-4.05,51.53c9.03,1.69,1.17,28.59-5.17,24.75c-4.13-2.5-4.61-21.21-2.31-26.19c0.94-22.52,4.67-44.95,1.81-68.54  C171.92,748.5,173,731.36,184.74,724.53z" />
<path class="cls-2" d="M184.66,778.15c-0.72,14.63-2.37,30.96,0.44,45.25c2.08,10.6-2.9,19.64-2.17,29.59  c-2.53,1.83-5.62,7.46-9.52,4.47c-5.57-4.29-4.17-12.91-4.53-19.07c0.68-2.8,0.7-6.05,2.83-8.09c-0.32,7.76-0.11,16.19,2.79,25.15  c7.21-4,11.44-18.65,2.5-22.59c-0.41-17.01,4.14-36.25,5.07-54.99C182.87,774.39,184.04,774.66,184.66,778.15z" />
<path class="cls-9" d="M109.65,967.15c-5.85,4.4-11.36-2.85-14.08-5.88c-4.42-4.93,1.44-27.09,1.76-27.37  c1.98-1.7,7.48,2.02,12.76,2.15C111.1,944.85,110.39,956.59,109.65,967.15z" />
<path class="cls-13" d="M71.04,893.22c-0.7,5.44-5.46,11.31-8.03,16.43c-6.01-7.62-4.99-17.6-7.1-24.73  c-1.64-5.54-6.36-10.94-7.53-17.18c-0.95-5.04,4.06-9.73,7.17-14.65c8.22,9.54,7.76,19.75,1.45,31.52  c8.91-2.67,4.26-11.83,10.02-18.35C67.84,875.66,68.48,884.31,71.04,893.22z" />
<path class="cls-9" d="M114.65,909.45c3.47,1.42-2.77,21.18-4.56,22.02c-2.65,1.25-8.58-1.15-10.75-2.91  c-3.78-3.07,4.48-21.28,5.56-22.47C106.7,904.13,112.19,908.44,114.65,909.45z" />
<path class="cls-9" d="M86.91,979.18c-6.7-12.55-17.42-32.18-4.61-38.43C90.33,953.72,93.5,965.06,86.91,979.18z" />
<path class="cls-9" d="M83.24,978.5c-5.1,0.24-11.4,1.36-15-2.26c-2.8-2.81-3.42-9.18-7.28-14.49c2.42-4.63,8.17-4.31,12.86-7.91  L83.24,978.5z" />
<path class="cls-13" d="M83.45,907.52c-4.28-3.05-7.97-10.46-6.68-15.1l6.62-23.68C89.27,890.83,96.2,889.2,83.45,907.52z" />
<path class="cls-9" d="M113.23,963.39c-2.87-9.77,0.45-17.75,0.67-26.88c5.6-0.75,9.66-2.46,14.54-3.68  C129.41,945.48,122.32,954.8,113.23,963.39z" />
<path class="cls-13" d="M123.88,876.5c-0.85,2.82-5.41,0.88-6.86-0.29c-1.62-1.3-2.18-3.72-1.59-6.51l5.7-26.86  c2.69,2.03,5.18,3.43,7.87,6.36C127.49,858.22,126.79,866.91,123.88,876.5z" />
<path class="cls-9" d="M101.25,902.1c-0.13,7.49-3.6,15.8-6.98,23.37c-12.26-7.62-6.24-20.31-0.72-31.79  C95.5,894.36,101.31,898.36,101.25,902.1z" />
<path class="cls-1" d="M184.66,778.15l-2.57-0.27l2.65-53.35c0.24-4.88,1.82-12.35,4.59-16.86  C192.78,732.34,185.78,755.24,184.66,778.15z" />
<path class="cls-9" d="M54.81,948.17c1.45,9.12,6.08,15.39,8.62,25.46c-11.25-2.6-19.38-12.81-23.08-24.47  C45.27,947.15,48.72,948.66,54.81,948.17z" />
<path class="cls-9" d="M39.78,920.44c12.26-5.97,12.56,23.63,12.86,23.17c-1.46,2.26-9.99,1.81-12.05-0.73  C36.83,938.25,37.43,925.37,39.78,920.44z" />
<path class="cls-13" d="M51.19,888.41c-0.14,2.8-6.1,5.45-8.38,5.87c-2.87,0.54-8.23-16.4-6.45-19.75c1.29-2.43,4.99-4.5,8.9-6.75  C47.71,873.88,51.58,880.77,51.19,888.41z" />
<path class="cls-9" d="M129.3,910.36c3.44-0.08,0.9,16.99-2.95,19.02c-3.24,1.71-6.68,3.81-11.51,2.44c2.08-6.87,1.2-14.56,4.77-20.34  C121.06,909.14,127.15,910.41,129.3,910.36z" />
<path class="cls-13" d="M140.33,851.29c-0.6-1.14-0.22,34.08-13.11,27.78c-0.12-8.17,2.93-19.92,4.88-27.45  C132.64,849.54,139.43,849.59,140.33,851.29z" />
<path class="cls-13" d="M121.56,882.93c2.09,2.97-2.16,19.6-4.71,20.82c-2.61,1.25-7.12-0.82-8.87-2.57  c-3.13-3.14,5.13-20.71,4.88-20.46C115.41,878.27,120.16,880.94,121.56,882.93z" />
<path class="cls-13" d="M103.31,861.1c-7.98-6.82-9.55-17.29-1.83-27.35c-5.25,0.02-3.83,5.49-8.1,7.98  c-2.46-9.99-6.57-18.98-5.5-29.01c4.54,2.21,9.16,4.48,11.56,7.19c3.19,3.59,0.58,9.26,1.7,12.02c4.88,1.49,5.96,7.73,10.86,10.24  L103.31,861.1z" />
<path class="cls-13" d="M57.77,843.39c-10.37-9.67-7.62-17.99-3.32-32.01l9.97,17.98C64.08,834.26,59.47,839.01,57.77,843.39z" />
<path class="cls-13" d="M58.91,908.79c1.46,4.81-2.85,7.64-6.37,8.63c-4.88,1.38-8.97-16.68-7.99-18.87c1.16-2.6,7.1-5.74,9.57-5.08  C55.96,898.22,57.31,903.54,58.91,908.79z" />
<path class="cls-13" d="M109.96,835.45c-3.08-4.31-6.1-10.01-6.55-13.75c-0.42-3.45,4.36-10.58,7.87-11.02  c4.26,0.61,7.11,8.44,6.09,11.96C116.13,826.96,114.99,833.19,109.96,835.45z" />
<path class="cls-13" d="M108.25,873.22c4.63,3.65-2.05,20.1-4.41,25.1c-3.07-2.56-6.49-5.05-7.38-7.46  c-1.61-4.36,5.33-19.37,5.48-19.56C104.14,868.49,106.75,872.04,108.25,873.22z" />
<path class="cls-13" d="M92.75,885.44c-6.81-9.96-5.14-22.06,0.95-31.56C103.11,863.19,100.75,873.63,92.75,885.44z" />
<path class="cls-9" d="M56.63,943.02c-1.92-6.58-5.67-13.89-4.72-20.72c0.33-2.35,5.72-3.68,7.33-4.63  c2.57-1.51,6.76,14.84,5.78,17.11C63.93,937.28,61.85,939.67,56.63,943.02z" />
<path class="cls-9" d="M35.25,939.51c-12.18-8.08-9.2-21.8-6.91-32.35C40.04,915.28,36.12,928.43,35.25,939.51z" />
<path class="cls-13" d="M113.64,871.36c-4.49,0.45-6.31-2.83-7.46-4.75c-2.05-3.41,0.78-7.56,2.84-10.24  c6.09-7.92,2.41-18.43,9.51-25.06C121.9,846.23,112.99,856.69,113.64,871.36z" />
<path class="cls-13" d="M46.06,860.3c-2.5-6.98-6.28-11.64-6.48-16.75c-0.14-3.55,6.03-7.33,8.66-9.73c1.42,6.86,6.58,10.57,5.83,14.96  C53.37,852.89,48.43,857.73,46.06,860.3z" />
<path class="cls-13" d="M32.84,789.95c3.38,9.29,4.91,19.92-3.17,27.77c-3.4-4.68-1.92-10.25-5.54-13.5  c-1.78,10.36,8.16,16.68-1.41,23.19c-2.83-5.66-5.87-14.94-4.26-21.82c0.56-2.41,6.03-1.51,6.16-4.03c0.13-2.44,0.98-4.98,0.75-7.31  c2.98,0.87,3.66-2.95,5.6-4.79C32.12,788.78,32.61,788.6,32.84,789.95z" />
<path class="cls-13" d="M45.26,829.16c1.13,3.73-5,7.47-6.4,9.13c-8.54-10.93-6.81-19.2-0.37-31.49L45.26,829.16z" />
<path class="cls-13" d="M137.11,902.65c-1.22-8.42-1.42-24.78,10.16-25.87C148.48,884.62,149.92,899.2,137.11,902.65z" />
<path class="cls-13" d="M66.38,823.58c-7.59-4.18-11.8-20.25-4.83-25.32C72.86,798.74,69.86,812.5,66.38,823.58z" />
<path class="cls-13" d="M42.71,864.24c-0.14,3.03-5.41,6.02-7.53,6.11c-2.49,0.1-6.95-15.52-6.38-17.48c0.72-2.46,5.07-3.54,8.37-6.1  C38.7,852.22,43.03,857.39,42.71,864.24z" />
<path class="cls-9" d="M72.87,899.15c9.45,5.64-1.15,20.51-4.44,30.03C60.82,918.75,64.17,908.8,72.87,899.15z" />
<path class="cls-13" d="M134.5,882.61c1.95,1.04-0.72,17.02-2.97,19.66c-1.62,1.9-8.57,3.08-9.29,0.57c0.03-6.81,1.6-14.18,3.78-19.28  C127.38,882.27,132.97,881.79,134.5,882.61z" />
<path class="cls-13" d="M86.55,863.4c-1.74-11.34-8.02-23.11-1.61-36.1C90.84,838.67,95.11,851.36,86.55,863.4z" />
<path class="cls-13" d="M101.34,815.93l-6.33-24.15c9.74-3.83,9.5,2.47,12.45,9.17C109.97,806.64,107.86,811.51,101.34,815.93z" />
<path class="cls-13" d="M47.29,823.15c-4.86-11.72-9.83-21.11-4.24-31.52C52.99,800.42,53.09,812.49,47.29,823.15z" />
<path class="cls-9" d="M74,944.39c-2.68-4.48-3.49-7.26-5.11-11.18c4.32-6.39,6.57-13.34,9.26-19.97  C85.27,923.81,80.23,935.45,74,944.39z" />
<path class="cls-13" d="M28.9,848.61c-4.37-2.58-9.05-17.79-2.75-21.43c5.89-3.39,5.93,5.58,7.88,8.6  C36.94,840.29,36.58,845.31,28.9,848.61z" />
<path class="cls-13" d="M127.07,844.04c-6.97-7.18-7.99-17.37-5.23-26.78c3.44,3.08,9.14,6.52,9.46,10.24  C131.77,832.82,130.7,840.56,127.07,844.04z" />
<path class="cls-13" d="M144.8,805.65c2.74,2.04-0.78,18.42-1.47,19.01c-2.26,1.93-6.95,1.18-7.86-0.7c-1.55-3.19,0.22-15.24,2-17.78  C138.63,804.52,143.24,804.49,144.8,805.65z" />
<path class="cls-13" d="M141.73,829.08c3.86,0.54-0.4,16.84-0.89,17.23c-1.53,1.23-6.38,1.25-8.69-0.06  c-1.28-0.73,1.61-16.68,2.32-17.55C135.68,827.23,139.82,828.82,141.73,829.08z" />
<path class="cls-9" d="M90.74,950.18c-4.85-6.25-11.3-19.14-4.64-25.25C96.74,927.08,94.18,938.45,90.74,950.18z" />
<path class="cls-13" d="M139.81,876.27c0.82-8.42-0.07-18.9,6.63-28.15C150.38,856.2,152.44,872.43,139.81,876.27z" />
<path class="cls-13" d="M81.06,829.58c-2.65-13.23-1.31-27.38,1.53-41.14C85.5,802.04,86.47,816.17,81.06,829.58z" />
<path class="cls-13" d="M64.77,863.08c-12.82-21.57-0.94-13.74,1.27-33.27C69.31,840.85,67.5,851.2,64.77,863.08z" />
<path class="cls-9" d="M59.64,954.63c-5.88-5.84,3.43-14.68,7.63-16.74c2.32,4.36,4.97,9.76,3.33,12.76  C69.13,953.36,62.9,957.87,59.64,954.63z" />
<path class="cls-13" d="M130.76,820.05c-6.95-1.7-8.49-16.58-3.48-20.78C135.68,799.3,135.88,811.85,130.76,820.05z" />
<path class="cls-13" d="M44.78,915.42c-7.3,0.36-14.81-11.67-11.11-18.2C41.45,895.2,44.41,906.7,44.78,915.42z" />
<path class="cls-13" d="M97.67,813.6c-11.72-1.33-11.78-14.66-8.45-24.65C95.64,796.93,94.62,805.14,97.67,813.6z" />
<path class="cls-6" d="M32.84,789.95c-0.67,0.13-1.34-0.05-1.87-0.48c1.47-1.53,2.92-2.31,3.23-3.69c0.44-1.99-0.31-5.61-2.28-5.9  c-1.78-0.26-4.21,0.72-6.75,0.97c-4.41,0.42-3.32-2.83-1.41-4.88c3.43-3.69-2.45-2.86,10.02-4c-11.48,4.7,2.31,2.49,1.45,4.06  c-1.84,3.35,0.03,7.99,3.34-1.96c2.83-1.72,4.71,3.69,4.54,5.96c-0.21,2.77-2.1,5.96-5.45,6.73c1.62,0.1,2.22,3.14,1.98,6.05  C38.84,802.42,35.68,783.39,32.84,789.95z" />
<path class="cls-6" d="M20.49,767.49c-1.08-3.3-4.54,4.74-5.83,1.4c-2.43-6.29,9.42-6.99,6.17-14.2c3.34,4.77,5.38,4.34,6.47,7.15  c1.2,3.07-0.93,3.91-4.4,4.99c3.72,1.33,3.77,2.12,2.1,3.4c-1.23,0.94-2.7,2.79-3.09,1.62L20.49,767.49z" />
<path class="cls-13" d="M36.29,894.26c-8.75-3.69-12.98-14.22-9.1-20.34C35.17,876.95,36.69,887.33,36.29,894.26z" />
<path class="cls-6" d="M10.55,801.82c7.39-3.26,5.47-1.71,3.92-3.64c-0.85-1.06,4.97-0.86-4.19,0.54c-1.71,0.26,1.19-14.36-0.51-3.69  c5.71-3.34,7.19-3.47,7.99-1.31c1.43,3.88,3.88,4.42,1.62,6.07C16.19,802.13,15.01,805.74,10.55,801.82z" />
<path class="cls-6" d="M25.38,794.25c-3.31-0.97-4.13-2.68-3.42-5.28c1.07-3.94,3.59-6.06,7.69-3.1  C24.84,787.82,25.05,790.92,25.38,794.25z" />
<path class="cls-13" d="M70.41,861.57c-3.27-31.56,6.21-39.78,6.55-72.46C76.96,811.94,80.66,836.58,70.41,861.57z" />
<path class="cls-1" d="M85.57,1063.25c1.01-0.37,2.04-0.68,3.09-0.92c3.37,17.54-3.58,36.35,2.24,52.55  c9.44,26.29,13.14,78.76-4.48,77.76c-4.11-0.23-7.63-5.02-8.98-9.9c-6.1-22.13-0.87-45.94,6.33-68.12  C88.85,1099,84.62,1080.36,85.57,1063.25z" />
<path class="cls-8" d="M283.95,1486.45c-7.17-1.51-10.34,7.11-14.9,8.04c-11.78,2.39-23.56,6.18-34.18,7.53  c-3.58-2.74-7.21-7.64-12.19-6.4l1.29-20.17l50.75-8.21C280.76,1470.94,282.21,1481.49,283.95,1486.45z" />
<path class="cls-3" d="M340.07,707.11c7.48-1.58,9.52,4.79,14.14,8.83c3.01,2.63,9.53,1.58,11.56,5.56c1.96,3.83,0.68,8.56-0.3,12.48  c4.58,2.01,10.46,3.64,11.95,7.75c2.3,6.36-0.97,10.52-3.18,15.86c-0.94,2.27,7.02,9.58-3.79,17.46c-2.61,1.9-1.55,5.99-0.9,8.07  c0.97,3.13,5.05,1.34,7.77,1.83c3.02,1.78,2.6,5.94,5.59,6.87c5.89,1.22,10.28,3.6,10.19,9.84c-0.07,5.55-3.26,8.91-9.82,10.68  c0.57,3.27-0.94,7.5-0.13,10.23c-5.16,4.39-8.68-2.11-13.04-2.9c-13.01-2.35-27.56-0.92-39.54,1.78  c-3.47,1.94-5.54,12.33-12.69,7.47c-3.07-2.08-4.92-5.93-9.15-5.92c-4.53,0.01-7.92,3.08-11.8,6.04l-19.66-7.16  c-2.91,5.88-9.61,0.89-13.02,2.3c-9.66,3.98-19.27,1.94-27.98,0.03c-6.74-1.47-17.94,7.68-24.86,0.5  c-0.7-16.07-1.48-32.42,0.29-47.92c0.63-1.98,2.45-3.27,5.45-3.85c7.07-10.18,16.3-4.22,10.3,5.92c-24.97,1.89,2.25,27.95,2.26,4.04  l1.16-2.86c4.66-1.86,9.35-3.4,14.07-4.61c0.73-4.03,8.94-3.42,9.61,0.49l2.46,1.85c-3.8,9.99-2.72,16.35,3.23,19.09  c6.33-1.14,11.03-0.23,14.1,2.71c2,8.76,5.93,11.2,11.8,7.35c6.57-10.98,10.62-11.88,12.14-2.71c3.51,6.43,8.75,5.46,15.71-2.91  c11.39,4.55,22.24-0.12,14.25-12.36c-4.42-0.23-8.92-0.22-13.52,0.04c-1.96-3.42-4.58-5.64-7.84-6.65  c-2.89,0.23-4.71-0.68-5.45-2.75c-1.86-0.8-2.66-2.6-2.4-5.38c-13.07-5.69-9.17-19.97-2.89-29.64c-6.43-9.76-10.68-18.15,0.02-27.13  c-5.23-11.05-0.47-17.03,10.12-20.38c10.36-24.66,28.75-12.92,31.61,8.76L340.07,707.11z" />
<path class="cls-9" d="M443.05,522.48c2.98,2.57,4.34,6.38,4.1,11.41c-1.55,5.26,0.47,7.14,6.06,5.62  c-1.73-27.94-1.68-55.78,0.15-83.52l2-4.68c2.13,0.42,8.2-1.25,8.26,2.06l1.33,76.88c2.46,0.66,3.64,1.24,1.51,3.17  c0.55,0,1,0.04,1.08,0.24c2.01,4.87,0.96,45.06,0.42,53.08c-0.02,0.34-0.72,0.63-1.6,0.91c-1.28,2.11-8.26,2.71-9.72,0.27  c-0.86,0.46-1.72,0.84-2.63,0.98c-1.89,0.29-33.32-5.51-37.64-6.65c-1.74-0.46-3.03-1.89-4.18-3.19l-4.48,2.28  c-11.44-0.35-22.88-0.04-34.31,0.93l-4.42-2.5c-0.31-3.23,4.37-2.74,4.39-5.22l0.43-54.58c0.01-1.42-5.86-0.41-6.29-1.53  c-0.75-1.96,1.04-2.69,2.91-2.5c1.46,0.15,2.69,0,4.37-0.07c2.29,0.53,3.32,1.04,1.59,2.86c3.13,6.08,4.27,7.01,3.44,2.77  c3.44-2.02,5.11,0.42,5.03,7.32l0.31,43.68l1.94,3.22c1.61-2.17,4.45-2.97,8.51-2.39c0.95-13.81,1.21-27.95,0.76-42.41l2.67-1.95  l-2.69-1.2c-0.36-30.7-0.72-61.41-1.08-92.12l2.66-1.63c2.25,0.75,8.23-1.02,9.81,2.18l0.91,78.46  C420.69,518.37,431.93,520.43,443.05,522.48z" />
<path class="cls-2" d="M255.64,507.84c2.36,11.65-2.67,17.63-14.73,17.15c-3.41-1.23-4.87-10.07-1.25-11.61  c-2.33-2.74-1.83-3.95,1.66-4.59c1.04-0.92,2.36-1.19,3.93-0.8C251.1,503.96,254.56,503.91,255.64,507.84z" />
<path class="cls-2" d="M275.79,539.68l2.23,2.02c-1.42,28.73,32.77,1.1,2.75-3.43l-1.2-2.74c-3.99-1.13-2.59-5.01,1.48-3.71  c1.05-2.96,9.06-5.05,10.65-1.88c1.54-3.85,10.56-0.35,10.8,3.15c1.85,0.81,3.45,2.55,4.81,5.22c6.73,1.93,13.37,10.28,3.35,9.74  c-0.72,2.27-3.02,3.01-6.9,2.23c-8.52,2.09-6.33,16.16,3.47,14.19l2.18,1.93l3.27,1c1.87,4.81,5.22,5.43,9.4,2.56  c5.22-8.36,12.69-5.99,18.1,0.54c0.53,1.09,2.11,2.34,1.59,3.31l-1.75,3.22c-0.58,3.19-3.43,4.35-8.55,3.46  c2.93,12.75-11.03,12.04-18.51,5.53c-0.95,10.14-9.22,12.01-16.27,5.56c-3.97,1.75-9-0.17-8.83-4.69l-1.06,1.67  c-4.39-0.35-8.74-2.69-13.05-7c-4.52-0.22-8.71-1.23-12.57-3.01c-5.43,2.28-10.36,2.78-13.44-3.09c-3.9,1.29-7.83,0.23-10.78-2.53  c-5.1,4.8-8.72,5.51-10.86,2.15c-4.93,4.54-8-4.46-5.89-9.34c-10.88,0.42-17.86-5.97-10.75-15.83c-0.96-5.11-2.45-14.5,4.84-13.25  c-0.06-5.6,5.28-5.31,7.84,0.05c-3.24,16.71,18.42,16.94,14.11,0.46c-7.05-6.09-4.11-12.84,4.66-12.18l1.7,0.84  c-0.55,6.73,1.33,10.75,5.67,12.05c6.72-1.38,9.84,0.05,9.35,4.3c-9.67,13.76,9.9,22.45,11.42,6.58  C264.74,541.3,267.88,534.3,275.79,539.68z" />
<path class="cls-11" d="M412.19,579.06c2.97,5.88,9.4,8.67,19.28,8.36c8.1,0.26,16.17,0.82,24.21,1.7l0.81,1.51  c4.84-1.1,9.79-2.13,14.84-3.11c2.17,0.86,3.97,1.9,5.41,3.13c2.09,0.21,3.17,1.82,3.22,4.84c10.86,0.69,16.3,1.04,16.3,1.04  c6.28,1.31,8.8,3.77,7.55,7.38c-1.41,3.56-8.23,7.9-11.04,4.2c-7.7,1.22-16.31,5.5-24.15,4.17c2.84-22.86-30.18,14.05-26-14.95  c-10.27,5.43-22.36,7.5-34.05,5.52l-1-12.64c-13.44,3.49-24.6,10.9-38.12,8.4c-2.32-5.86,0.1-12.92-0.46-18.82  C383.24,579.31,397.92,577.43,412.19,579.06z" />
<path class="cls-12" d="M503.8,603.91c0.14-1.14,0.49-1.12,1.02-0.02l0.19,115.6c-3.47,3.23-6.3,9.89-11.96,10.53l-0.29-121.91  C496.29,607.55,499.79,603.71,503.8,603.91z" />
<path class="cls-6" d="M397.92,434.01l1.12,94.96c-1.41,3.56-3.86,3.58-5.18-0.05l-1.54-1.3c-1.33,3.25-2.74,3.6-5.39,1.28  c-3.24-0.41-4.23-8.49-1.34-9.07c-1.18-1.24-2.29-2.73-0.93-4.2l1.13-85.68L397.92,434.01z" />
<path class="cls-6" d="M455.36,451.3c-1.49,30.04-0.17,60.03,0.24,90.76c-4.54,0.23-7.26,0.47-12.32-0.37  c2.92-7.22-0.29-13.58-0.23-19.22l0.86-74.54C448.6,448.18,452.3,450.7,455.36,451.3z" />
<path class="cls-4" d="M324.67,544.02c2.5,0.44,5.1,1.84,7.81,4.21c3.88,0.21,6.34,1.4,7.38,3.57c4.16,0.21,6.38,6.33,6.12,9.79  c-0.29,3.76-2.86,6.44-5.79,8.92c-4.56,0.76-7.59-3.79-12.23-3.69c-2.6,4.83-6.4,7.76-11.03,7.48c-4.19-0.25-6.09-3.99-7.5-7.9  c-1.18-1.81-0.96-3.9,0.66-6.28l0.47-3.75c-1.29-3.52-1.25-6.3,0.12-8.31c8.88-7.37-8.2-2.06-8.16-14.95  c-3.85-1.53,1.58-10.99,5.37-9.69c-0.12-3.53,3.44-3.52,6.53-3.31c13.06,0.9,13.46,13.04,8.76,22.55L324.67,544.02z" />
<path class="cls-6" d="M455.32,659.33l2.68,1.23c0.11,25.2,0.23,50.4,0.34,75.62l-2.67,1.62c-3.13,0.34-9.63,1.7-10.58-0.84  l0.17-78.51C449.16,657.11,452.17,659.35,455.32,659.33z" />
<path class="cls-9" d="M455.68,737.8l-0.36-78.47c2.43-0.02,8.81-1.64,8.82,1.23l0.09,77.36C460.17,738.25,458.05,737.91,455.68,737.8  z" />
<path class="cls-6" d="M485.26,534.06c0.19,5.12-3.93,0.69-4.37,1.93c-0.67,1.92,1,6.53-0.19,8.01c-3.17,2.87-2.78,9.59,0.06,5.06  c6.49,12.15,0.71,28.19,2.92,42.44c-0.9,3.86-6.69,2.97-6.96-0.84c-6.8-0.82-13.45-0.63-20.25-0.02c-3.53-0.63-3.3-1.87,0.15-2.71  c2.91,1.04,6.79-0.17,9.72-0.27c0.23-2.39,1.19-3.99,1.61-1.74c0.7-17.91,0.53-35.04-0.53-51.39l-0.98-1.1  c-0.3-0.96-1.49-2.03-1.51-3.17C471.84,530.18,479.44,530.18,485.26,534.06z" />
<path class="cls-8" d="M340.3,534.47c2.68,1.64,4.17,5.61,4.1,8.55c-0.08,3.56-3.78,5.24-4.55,8.78c-6.41,0.42-12.48-1.41-15.19-7.78  c-1.74-4.72,0.4-11.57,6.19-12.62C333.3,530.95,339.79,531.58,340.3,534.47z" />
<path class="cls-6" d="M383.04,515.62c1.44,0.43,1.68,2.29,0,2.68c-1.93,3.61-4.29,3.77-6.66,0.42c-0.72-0.84-1.23-1.82-1.59-2.86  C377.54,515.76,380.28,515.62,383.04,515.62z" />
<path class="cls-9" d="M385.59,519.82c-2.15,1.97-3.26,1.31-2.56-1.52v-2.68h1.63C384.85,516.84,386.07,518.32,385.59,519.82z" />
<path class="cls-4" d="M601.33,731.34c3.22,4.69,6.12,8.02,10.44,11.73c8.38,7.2,19.1,14.77,31.39,12.15  c13.63-2.9,22.57-14.51,29.14-24.94c2.17,24.77-1.58,46.1-1.4,67.85c-9.2-2.64-4.93,14.31-8.07,21.4l1.7,3.53  c-6.35,29.46-31.62,52.19-53.25,20.28c-2.95-4.36-8.47-12.71-5.86-17.2c-3.41-2.11-2.62-4.91,1.42-4.9c3.52-1.03,5.85,2.08,7,9.34  c6.82-1.75,6.57,3.63,5.83,8.76c8.06-0.77,8.12-10.97,0.12-9.85l-10.94-9.97c-0.67-2.82-1.49-3.7-2.48-2.64  c-4.66,0.37-6.69-3.57-6.11-11.82l-2.45-3.43c-6.46-23.63-7.18-48.87-7.43-73.25l-2.15-5.34c0.34-3.64-0.28-7.37-0.34-12.16l1.56,0  l2.86,1.26C595.71,718.44,598.72,724.84,601.33,731.34z" />
<path class="cls-4" d="M685.75,870.61c1.51,5.85-6.53,7.7-10.38,3.26c-5.2-5.98-3.92-44.78-3.1-54.02l2.64-1.65  c-0.25-7.57,4.74-17.08-4-20.06c6.51-24.27,3.71-51.15,5.61-76.27c3.4-5.79,7.12,1.58,6.92,6.45c-1.97,14.3-1.38,28.1,1.76,41.39  c0.55,29.27,0.84,58.59,0.88,87.96C687.62,863.08,687.51,867.39,685.75,870.61z" />
<path class="cls-6" d="M538.92,636.94c-6.14,1.47-11.15,0.65-16.4-1.28l0.33-66.37c5.46-0.05,10.6,1.51,16.23,3.31L538.92,636.94z" />
<path class="cls-9" d="M540.14,831.64l0.85-122c1.08-0.01,8.24-1.08,8.24,1.5l-0.19,118.87C546.31,832.08,542.69,831.19,540.14,831.64  z" />
<path class="cls-6" d="M571.44,639.79c-4.66,1.45-9,0.99-14.07-0.28l0.19-62.64c4.36-1.4,9.41-0.16,13.52,2.36L571.44,639.79z" />
<path class="cls-6" d="M571.91,493.86c-5.28,0.97-9.64-0.94-14.61-3.02l0.52-61.6c4.85,0.08,9.14,1.7,13.93,3.8L571.91,493.86z" />
<path class="cls-6" d="M534.23,419.32c1.71,0.08,2.54,0.61,2.47,1.6l-0.56,59.7l2.28,3.18c-5.03,2.86-10.8,0.88-15.67-2.11l0.41-66.73  C528.36,415.22,531.09,417.7,534.23,419.32z" />
<path class="cls-6" d="M570.92,714.86c0.52,0.07,1.14,0.41,1.14,0.92c0.25,17.82,0.25,36.55-0.36,54.35c-0.01,0.31-0.67,0.6-1.52,0.88  c-3.84-0.82-7.95,1.02-12.44-0.3l-0.08-59.39C562.56,710.15,570.55,708.95,570.92,714.86z" />
<path class="cls-6" d="M595.71,441.56l1.33,9.7c-0.73,15.19-0.68,30.38,0.13,45.59l-2.59,4.88c-2.45-0.57-7.48-0.67-8.38-2.85  L586,437.88C591.07,438.14,593.39,439.61,595.71,441.56z" />
<path class="cls-6" d="M595.77,582.71l1.22,9.73c-0.96,15.19-0.95,30.39,0.03,45.61l-2.52,4.91c-3.41,0.23-5.8,0.42-8.74-0.85  l0.19-61.38C589.67,580.34,592.73,581.72,595.77,582.71z" />
<path class="cls-9" d="M594.49,642.96c-0.57-20.03-2.34-40.69,1.28-60.25c9.82,16.05,0.52,38.92,5.12,58.68  C598.98,643.25,595.84,643.23,594.49,642.96z" />
<path class="cls-9" d="M538.42,483.8c-0.76,0.17-1.56,0.15-2.3,0.25c-1.07,0.15-2.57-1.27-2.55-3.15l0.66-61.57  c1.37,0.71,4.99-0.32,4.96,1.67C538.89,442.25,540.31,463.17,538.42,483.8z" />
<path class="cls-9" d="M594.58,501.72c-0.25-20.02-2.21-40.59,1.13-60.16c9.76,15.08,0.65,36.68,5.09,55.2  c-0.44,1.77-1.04,4.36-1.93,5.04C597.75,502.65,595.84,502,594.58,501.72z" />
<path class="cls-14" d="M483.69,591.49c8.79,1.07,17.5,3.56,26.36,4.31c0.34,1.97,2.7,3.91-0.35,5.71c-1.31,0.77-3.11,1.63-4.87,2.37  c-0.27,0.11-0.72,0.04-1.02,0.02c-5.38-6.42-17.03-6.36-26.35-5.54c-1.3-2.07-0.27-5.13-0.72-7.72L483.69,591.49z" />
<path class="cls-9" d="M601.33,731.34c-4.38-6.37-11.29-12.16-11.89-20.45c3.44-0.01,7.05-0.68,10.99,0.04  C602.06,717.84,601.23,724.64,601.33,731.34z" />
<polygon class="cls-13" points="573.21,715.18 573.21,771.65 570.18,771.01 570.92,714.86 " />
<path class="cls-4" d="M577.26,695.39c-0.05,0.9-0.17,1.78-0.65,2.75c-0.45,0.9-1.64,1.39-2.83,1.31c0.05-1.09-0.69-3.11,0.38-4.03  C574.87,694.8,576.54,695.53,577.26,695.39z" />
<path class="cls-4" d="M351.16,1078.16c0.18-3.89,2.04-3.62,3.6-0.11c1.79-0.86,3.73-1.75,5.76-1.64c6.34,0.34,34.26,3.06,37.31,5  c0.91,0.58,1.72,1.3,2.5,2.07c75.11,8.69,150.6,10.47,225.12,16.07c78.95,5.93,158.66,10.93,238.39,13.39l87.22,2.69  c5.17,6.43,11.85,11.88,16.07,20.29c-27.63,4.65-54.34,4.96-81.03,7.03l-9.86-13.17c-7.21,1.67-57.72-9.14-49.96,3.09l-1.07,2.62  c0,0-45.06-2.54-135.17-7.61l-1.47-2.77c-0.12-2.82-2.4-4.86-5.77-4.95l-41.49-1.11c-2.38-0.06-5.27,2.48-6.73,3.68l-2.68,2.29  c-45.1-3.13-90.19-6.44-135.28-9.92l-1.41-2.79c9.93-8.14-56.69-8.3-60.91-9.04c-8.29,0.24-16.18,6.88-24.46,8.21  c-21.53-4.71-42.26-10.11-63.42-17.45c-17-5.89-35.95-7.83-53.12-16.55L351.16,1078.16z" />
<path class="cls-8" d="M999.63,1080.53c-94.76,17.49-189.99,13.28-281.62,4.52c-42.82-4.09-83.93-10.41-123.51-24.27  C729.79,1090.78,866.76,1094.85,999.63,1080.53z" />
<path class="cls-8" d="M682.87,707.03c1.51,0.08,5.84-0.06,5.86,1.74l1.03,108.09l-0.04,50.8c1.7,1.17,1.17,2.09-1.57,2.75  c0.12,3.57-1.1,3.5-2.4,0.2c-7.09-17.62,1.45-93.52-4.7-106.55c-5.06-10.72,4.98-44.13-4.54-42.19c0.24-3.16-2.26-7.11-1.58-11.53  C675.38,707.46,680.06,706.88,682.87,707.03z" />
<path class="cls-12" d="M1027.39,729.55l-294.07,0.66l-0.17-19.26l295.37-0.18C1029.66,717.78,1027.81,723.66,1027.39,729.55z" />
<path class="cls-6" d="M714.1,705.76c-0.12,3.42-10.07,3.92-10.22,1.21c-1.1-19.63-0.26-38.58-0.31-57.75  c2.88-0.79,9.64-0.77,10.27,1.7C714.86,669.32,714.78,686.77,714.1,705.76z" />
<path class="cls-6" d="M733.78,791.52c0.07-0.66,0.16-2.05-0.03-2.68c17.35,0.31,101.83,3.08,106,23.61  c3.84,18.88-58.85,30.26-73.01,31.38c11.13-5.6,72.61-13.54,70.61-30.17C835.1,794.87,749.42,791.37,733.78,791.52z" />
<path class="cls-6" d="M714.96,563.46c-3.95-0.45-8,1.15-11.96,0.37l1.98-55.74c1.8,0.1,9.13,1.13,9.18,4.25L714.96,563.46z" />
<path class="cls-2" d="M792.87,857.45c-6.52,27.41,10.01,24.9,1.11,39.04c-1.21,1.92-4.75,0.91-5.87-0.84  c-7.51-11.74,6.26-13.97-0.42-35.73c-16.62-7.03-37.58-4.44-57.93-9.01l36.92,0.2C774.55,851.14,756.51,840.12,792.87,857.45z" />
<path class="cls-2" d="M727.78,874.43l-0.28,1.52c-0.82-0.39-2.19,0.2-2.94-0.3c-0.5,0.92-1.23,1.65-2.29,1.82  c-8.87,1.42-17.3-0.8-25.64-3.65c-4.07,0.04-6.9-1.1-8.47-3.42c0.34-1.01,0.84-1.96,1.57-2.75c3.76-0.64,9.17,2.5,12.6-0.12  C713.25,853.83,707.64,866.66,727.78,874.43z" />
<path class="cls-9" d="M674.9,818.2c0.74,22.4-5.3,67.82,10.85,52.41l2.4-0.2c7.71-0.64,14.39,2.6,21.91,4.61  c4.74,1.27,10.31-2.11,14.5,0.64c0.11,0.49-0.16,1.1,0,1.57c-0.06,0.73-0.45,1.46-0.45,2.19l-0.59,2.62  c-24.68,6.91-49.49,13.59-74.41,20.03l-2.24-2.18c-1.42-1.43-3.81-1.7-5.27-2.98c-3.43-3.03-8.37-1.98-13.06-3.84  c-0.54-4.7-2.1-7.93-6.36-8.43c-3.96-0.47-5.71,3.94-7.95,6.8l-26.25-3.2c-1.37-19.27-1.86-38.72-0.64-59.35  c0.95-2.77,3.85-3.94,8.71-3.52c4.6-2.08,7.73-1.82,9.36,0.77c4.11,8.58,8.03,18.05,15.42,24.42c9.48,8.17,21.59,6.87,29.01-2.53  c6.8-8.61,9.84-18.51,12.98-28.5L674.9,818.2z" />
<path class="cls-6" d="M724.1,879.42c-0.11,22.24,2.84,44.09,1.34,67.66l-51.84,22.08c-12.7-22.54-18.33-46.31-26.74-69.26  L724.1,879.42z" />
<polygon class="cls-6" points="819.59,907.94 805.31,913.09 809.11,879.91 " />
<path class="cls-1" d="M736.71,1035.59c-0.9,5.34-2.13,10.83-5.43,16.09l-90.77-12.34c-4.99-1.32-7.74-8.02-10.66-10.72  L736.71,1035.59z" />
<path class="cls-1" d="M946.72,1043.31c3.51,2.02,7.23,3.59,10.84,7.34l-83.97,4.22c-6.16-2.44-10.04-9.88-13.9-14.02L946.72,1043.31z  " />
<path class="cls-1" d="M824.96,1039.25l13.56,15.56c-21.65,1.31-41.76,0.02-62.98-0.89c0.4-5.92,1.33-10.95,2.57-15.98  C793.05,1038.2,810.09,1041.4,824.96,1039.25z" />
<path class="cls-6" d="M551.75,1007.16c-1.52-0.77-4.78,0.37-6.43-0.14l-21.61-0.33l-0.33-1.98l-2.25-1.65  c-5.14-21-10.1-41.96-14.89-62.89c-0.4-0.94-0.83-1.86-1.03-2.86c3.74-0.13,6.72,2.73,8.3,6.93  C522.41,968.05,535.94,988.11,551.75,1007.16z" />
<path class="cls-11" d="M519.83,1004.55c0.3-4.09,1.86-3.16,3.55,0.15c7.22,2.62,15.04-0.6,21.95,2.31l-29.67,1.85  c20.68,6.86,40.23,13.42,60.36,15.78c-2.16,1.2-4.52,5.73-7.92,4.72l-69.66-20.75C493.75,999.25,498.27,1006.85,519.83,1004.55z" />
<path class="cls-15" d="M480.71,544c-1.02,1.27,0.16,3.68,0.06,5.06c-0.89,12.94,2.09,26.09-1.79,40.46  c-5.2-15.21-0.1-29.57-2.8-44.61l-2.55,44.32c-4.6-15.13-1.36-29.98-1.72-44.47C475.7,544.07,477.96,544.11,480.71,544z" />
<path class="cls-6" d="M712.47,605.37c-2.3,1.77-5.46,1.32-7.92,0.02l-0.33-37.83c-0.02-2.01,7.78-1.4,7.93,0.6  C713.1,580.99,712.21,593.17,712.47,605.37z" />
<path class="cls-14" d="M728.49,605.24l-4.2-0.33c-0.81-12.15-3.65-26.86,1.41-39.4C734.93,578.47,726.35,592.66,728.49,605.24z" />
<path class="cls-15" d="M721.85,605.15c-1.42-0.14-3,0.26-4.66-0.32l-0.57-36.97c0.61-1.36,2.02-1.07,3.09-0.94  c1.68,0.2,1.98,1.73,1.99,3.58L721.85,605.15z" />
<path class="cls-1" d="M926.7,884.21c4.75-1.47,30.19,3.08,31.9,5.76c0.34,0.53,0.42,1.21,0.44,1.94  c-18.69,0.37-37.59-0.24-56.24-3.09l-0.08-2.23C910.31,885.95,919.06,883.43,926.7,884.21z" />
<path class="cls-1" d="M992.32,886.6c-7.66,4.6-16.99,3.42-25.56,1.5c-1.67,2.08-4.86,2.28-9.56,0.61c-4.26-0.6-13.73-1.95-14.44-5.97  C958.74,878.5,976.13,882.85,992.32,886.6z" />
<path class="cls-10" d="M942.76,882.73l24,5.37c0.52,2.24-0.52,3.67-2,3.69l-5.72,0.11l-32.34-7.69  C930.87,882.02,937.74,881.61,942.76,882.73z" />
<path class="cls-16" d="M523.64,759.51c-1.85-0.14-3.68,0.24-5.52,1.15c-0.64,1.24-2.5,1.53-3.72,1.52  c4.81-14.31,1.91-30.26,1.14-45.56c2.17-5.17,4.5-10.26,8.04-13.67C526.14,721.63,522.04,740.5,523.64,759.51z" />
<path class="cls-15" d="M456.52,771.79c4.76,5.7,8.64,13.85,0.66,19.31c-3.83-11.74-5.41-23.92-8.02-36.32  C456.94,758.14,452.01,766.39,456.52,771.79z" />
<path class="cls-15" d="M459.88,819.9c-6.83-5.93-5.37-12.46-2.37-21.71c2.67,2.11,6.22,4.96,6.12,8.08  C463.49,810.7,461.88,816.66,459.88,819.9z" />
<path class="cls-15" d="M467.26,768.01c2.13-0.82,2.9,4.73,3.94,6.35c1.67,2.62-1.95,4.39-4.32,5.38c-3.06,1.28-4.32-2.31-4.74-4.21  C461.57,773.02,463.14,769.59,467.26,768.01z" />
<path class="cls-15" d="M463.22,754.6c0.63-1.99,5.09-0.74,5.98,0.66c0.91,1.44,0.97,3.04-0.18,6.36c-0.68,1.97-2.44,2.35-3.55-0.67  C464.95,759.54,462.26,757.66,463.22,754.6z" />
<path class="cls-11" d="M239.9,765.94c4.52-3.59,10.45,7.59,5.04,9.47c-1.09,5.37-9,4.87-12.26,6.22c-1.05,3.3,0.4,10.02-3.4,12.23  c-4.4,2.56-8.75,1.88-11.8-1.02c-3.37-3.19-3.92-7.83-2.05-11.69c1.98-4.09,6.87-4.61,11.86-4.43c-0.63-2.87-0.53-5.69-2.45-8.78  c-3.47,5.74-7.34,9.56-13.14,8.83c0.38-3.37-0.11-7.42-0.14-10.83c0.52-5.31,3.65-5.5,8.3-4.26c5.47,2.99,11.61,3.37,18.42,1.13  C239.08,762.76,239.67,764.68,239.9,765.94z" />
<path class="cls-1" d="M523.38,1004.7c-0.9-0.33-2.59-0.26-3.55-0.15l-14.81-62.91c0.36-0.52,0.78-1.01,1.22-1.47  C514.83,960.41,516.15,983.49,523.38,1004.7z" />
<path class="cls-1" d="M349.55,987.05c2.9,13.71,4.19,27.84,3.87,42.38c2.1,16.44,2.54,32.65,1.33,48.62  c-1.01-0.21-2.57,0.12-3.6,0.11l0.05-1.35l-4.61-88.14C347.54,988.07,348.41,987.28,349.55,987.05z" />
<path class="cls-6" d="M400.33,1083.48c-15.19-1.76-30.57-2.32-45.57-5.43c-3.29-30.17-5.2-60.66-5.2-91v-1.34  c4.06,0.25,5.73,1.11,8.56,5.16c20.35,29.07,42.66,56.24,70.87,79.39C419.08,1075.29,408.79,1077.7,400.33,1083.48z" />
<path class="cls-4" d="M523.64,759.51c6.75,11.62,3.48,25.76-1.46,37.41c-2.27,1.08-4.54,0.81-6.71-0.48  c-0.64-1.13,1.02-0.7,1.41-0.94c3.22-11.27,4.83-16.9,4.83-16.9l-0.52-6.44c-1.39-2.92-2.38-5.82-2.97-8.69  c0.27-0.84-0.27-1.94-0.09-2.81c0.53-1.01,0.51-2.78,1.07-3.63c0.46-0.71,1.96-2.33,2.63-0.75  C522.33,757.48,523.03,758.46,523.64,759.51z" />
<path class="cls-9" d="M600.25,805.07c1,5.52,1.58,11.04,1.75,16.56c-1.83,4.03-12.18,6.49-13.95,1.94l0.47-64.81  c0.09-12.03-1.46-23.26-0.3-35.71c2.4-0.35,4.82,2.98,4.77,6.1C592.56,755.01,595.57,780.13,600.25,805.07z" />
<path class="cls-16" d="M606.36,816.89c3.32,0.4,4.02,3.21,0.47,4.36c-0.56,1.61-1.11,3.22-1.42,4.9l-18.07,2.75  c0.08-1.34,0.69-3.35,0.7-5.33c3.62-0.2,7.77,0.3,11.32-1.39c0.42-6.24-0.74-11.86,0.88-17.11  C600.94,808.76,603.63,814.6,606.36,816.89z" />
<path class="cls-16" d="M516.88,795.5c-4.39-9.32-1.79-22.21,1.33-32.03C527.63,767.84,525.62,790.22,516.88,795.5z" />
<path class="cls-11" d="M239.67,513.38c0.58,3.79,1.72,7.74,1.25,11.61c-1.67,2.42-5.2,3.46-7.12,5.94c6.15,3.96,7.43,10.03,4.9,15.13  c-2.71,5.46-8.42,7.67-13.67,4.85c-11.9-6.38,0.52-19.82-10.73-14.25c-1.13,3.1-5.52,1.31-7.16-0.66  c-2.33-2.8-3.43-20.91,3.15-20.28l8.55-0.2C224.52,507.47,234.03,504.37,239.67,513.38z" />
<path class="cls-11" d="M274.69,514.34c2.39,0.66,3.6,3.16,3.65,7.48c2.61,3.77,3.51,7.11,2.72,10.01c-1.32,0.65-0.99,2.7-1.48,3.71  c1.14,3.14-0.73,4.32-3.79,4.15c-2.25,1-4.87,0.5-7.31,1.94c4.35,5.09,4.49,11.41,0.16,15.59c-3.97,3.84-10.89,3.42-14.64-1.35  c-3.42-4.35-1.28-10.26,1.98-16.28c-5.84,1.49-10.35,1.8-13.51-2.07c-2.84-3.47-2.09-8.14-1.55-12.52  c2.59-3.75,7.93-3.76,11.36-4.98c1.4-2.99-0.37-9.5,3.37-12.17c0.11-1.8,1.67-3.18,4.69-4.14l-0.64-78.67l2.67-1.63  c1.91-9.52,12.69-2.67,14.7,3.99l0.32,85.32L274.69,514.34z" />
<path class="cls-6" d="M262.57,681.79l2.66,1.27c-0.36,30.27-0.72,60.56-1.08,90.85l-2.7,1.58c0.68,3.95-5.96,4.13-6.91,0.41  l-9.61-0.49c0.36-3.11-2.39-8.21-5.04-9.47l-2.68-1.24l0.12-82.19c1.75-6.31,15.77-5.09,21.94-3.85L262.57,681.79z" />
<path class="cls-4" d="M261.45,775.49c2.14-3.15,9.66-0.52,10.1,3.03l3.15,0.75c9.41-9.29,20.8-5.16,21.49,7.81  c0.23-3.83,0.6-8.67,5.21-7.51c6.46-0.9,11.79,1.2,14.49,7.34c4.37,0.15,11.08-3.26,14.62,0.54c4.31,4.62,3.84,11.11,0.32,15.34  c-4.41,5.31-10.42,2.43-16.08,0.76c-3.16,3.31-6.37,8.22-11.5,7.52c-6.42-0.87-7.46-4.36-9.12-12.25  c-2.96,7.58-5.67,11.44-12.14,12.5c-7.47,1.23-8.35-7.89-10.87-12.15c-5.13-0.37-13.65,2.93-17.45-3.8  c-3.5-6.2,0.11-12.45,0.85-19.48L261.45,775.49z" />
<path class="cls-6" d="M262.36,423.4l0.62,80.21c0.03,3.5-5.32,4.32-7.33,4.23c-5.84-2.37-9.43,6.64-14.31,0.95l-2.69-1.21l-0.85-88.5  c1.22-3.48,2.15-4.57,6.17-3.67C248.61,415.53,261.7,418.46,262.36,423.4z" />
<path class="cls-8" d="M287.86,586.9c5.52,2.73-3.01,21.77-5.85,22.29c-9.23,1.67-37.38-4.29-48.3-6.7  c-9.71-2.14-10.13-3.45-10.3-13.21c-1.29-6.11-0.39-10.84,2.7-14.19c4.7-0.17,8.41-2.7,10.31-7.54c2.71,5.73,7.45,6.86,12.46,4.92  c1.24,2.21,2.61,4.08,4.04,4.75c2.61,1.23,5.75-0.78,8.4-2.25c2.98,4.35,10.76,2.58,14.11,4.44  C279.95,581.92,282.04,586.45,287.86,586.9z" />
<path class="cls-11" d="M271.55,778.52c-3.55-0.23-6.85-1.74-10.1-3.03l1.11-93.7c3.11-5.38,12.63-3.71,14.62,2.69l0.11,89.84  C276.73,778.13,275.19,781.07,271.55,778.52z" />
<path class="cls-11" d="M307.87,523.4l-5.37,9.69c-3.84-0.16-7.11-2.35-10.8-3.15c-4.38-1.29-5.95-11.15-1.61-13.18  c-2.72-4.72,2.77-7.32,7.35-7.73C305.81,508.28,314.33,517.02,307.87,523.4z" />
<path class="cls-4" d="M222.35,471.39c2.3-2.12,4.25-0.6,5.75,1.62c6.47,9.63,2.96,22.46-9.72,20.9c-2.99-0.37-4.68-0.61-4.11-3.97  c0.52-5.73,0.61-12.07-1.33-17.35l6.7-1.16L222.35,471.39z" />
<path class="cls-4" d="M290.1,516.76c-0.12,4.45,1,8.79,1.61,13.18c-3.47,1.22-6.96,2.65-10.65,1.88c-5.56-7.44-6.34-11.19-6.36-17.49  C275.89,510.13,289.44,512.61,290.1,516.76z" />
<path class="cls-3" d="M154.13,432.49c-5.39,4.92-5.05,9.72-2.42,15.17c3.66,7.62,9.34,7.75,16.86,6.6  c0.29,5.45,0.38,12.97,4.4,17.24c0.68,4.1-5.15,3.5-6.5,5.29c-2.18,3.25-1.93,9.72-7.68,9.62c-3.71-0.06-6.68-3.55-8.91-8.1  c-2.59,1.39-4.99,2.63-7.16,2.37c-2.88-0.34-4.66-2.6-4.87-5.4c3.71-5.57,6.44-14.2,1.47-19.89c3.14-2.72,8.09-4.38,8.86-8.77  c-4.22-0.65-7.43-0.51-7.75-3.53c4.19-2.6,8.01-6.82,7.35-12.1C150.14,429.46,152.53,431.28,154.13,432.49z" />
<path class="cls-14" d="M219.64,471.43c-1.78,1.68-4.42,1.63-6.7,1.16C214.61,470.73,217.39,471.49,219.64,471.43z" />
<path class="cls-3" d="M866.15,1269.37c-154.02,17.2-360.82,18.36-512.76-24.49c204.85,40.24,416.33,39.14,623.99,2.68  C941.3,1260.2,903.78,1265.16,866.15,1269.37z" />
<path class="cls-4" d="M607.85,1180.14c3.56,0.37,3.31,1.59-0.13,2.45c0.65,2.71-0.17,3.11-2.47,1.21l-28.41-1.37  c-46.74-11.56-96.93-11.9-145-28.57C490.48,1165.6,548.64,1176.12,607.85,1180.14z" />
<path class="cls-6" d="M670.78,1181.43c-0.52,5.12-14.38,10.25-19.2,8.91c-3.08-0.86-5.05-2.05-3.35-5.12l2-1.85l-13.53-0.66  l0.91,2.66c-2.08,7.3-14.91,3.4-19.61-0.69c-2.67-2.32-6.14-5.53-3.12-8.59C632.49,1170.16,656.07,1170,670.78,1181.43z" />
<path class="cls-7" d="M614.88,1176.08c4.31,9.29,13.44,12.52,22.73,9.28c0.89-3.9,9.27-3.49,10.62-0.14  c7.5,7.32,14.06-1.33,22.55-3.79c1.15,1.12,1.11,3.64,1.66,5.08c-8.6,12.01-32.79,10.91-46.34,7.71  c-6.74-1.59-17.28-4.2-18.39-11.63l0.13-2.45C609.67,1177.61,612.24,1176.96,614.88,1176.08z" />
<path class="cls-1" d="M607.72,1182.58c16.05,13.81,46.81,15.05,64.73,3.92l1.14,0.13c-2.33,17.17-51.74,12.64-63.19,4.56  c-3.18-1.54-2.81-5.94-5.15-7.41C605.7,1183.36,606.99,1182.01,607.72,1182.58z" />
<path class="cls-1" d="M677.67,1210.57c6.83,4.68,10.75,13.27,15.24,20.74l-125.74-0.88c2.99-9.11,5.38-17.74,10.08-23.63  L677.67,1210.57z" />
<path class="cls-1" d="M524.79,1205.43c-3.11,7.4-6.98,14.43-11.84,21.98l-102.26-13.45c3.09-6.5,4.29-11.92,8.46-15.45  L524.79,1205.43z" />
<path class="cls-1" d="M843.99,1212.1c4.69,1.97,9.02,5.05,13.12,9.47l-110.94,8.28c-5.86-6.41-11.74-12.42-15.8-18.72l113.97,5.36  C844.8,1214.33,844.02,1213.24,843.99,1212.1z" />
<path class="cls-1" d="M495.21,1112.34l139.38,10.42c-3.77,7.38-10.74,14.57-17.06,20.89c-50.17-3.59-97.89-10.26-147.74-18.84  C478.26,1119.91,486.41,1115.15,495.21,1112.34z" />
<path class="cls-1" d="M826.28,1132.88c2.71,3.53,4.35,8.06,4.86,13.21c-52.46,2.4-104.14,2.4-156.56,1  c4.46-8.36,9.31-15.07,13.99-21.96L826.28,1132.88z" />
<path class="cls-6" d="M87.68,1130.01c11.8,0.54,12.63,54.83-1.62,61C73.82,1182.21,74.79,1129.42,87.68,1130.01z" />
<path class="cls-13" d="M392.32,527.61l1.54,1.3c1.73-0.04,3.46-0.14,5.18,0.05l0.09,46.4c-3.75,1.18-9.23,0.7-12.03,0.35l-1.79-0.62  c-0.28-14.71-0.45-29.49-0.45-44.23c0-1.18,0.84-1.78,2.08-1.97C388.53,527.86,390.43,527.35,392.32,527.61z" />
<path class="cls-15" d="M383.04,518.3c0.71,0.72,1.6,1.21,2.56,1.52c-0.94,3,1.33,6.28,1.34,9.07l0.16,46.82  c-0.8-0.1-2.96,0.53-3.84-0.32l-0.59-54.49c-4.23,18.33,3.74,37.75-4.25,57.61c-4.88-20.32-0.9-40.53-2.04-59.78  C378.59,518.46,380.81,518.29,383.04,518.3z" />
<path class="cls-15" d="M429.96,579.11l-7.8-0.81l0.09-55.55c2.07-1.25,4.63,0.25,6.06,0.59c2.53,0.61,1.88,4.45,1.87,7L429.96,579.11  z" />
<path class="cls-14" d="M456.64,587.91l-0.15,2.71c-2.98,0.26-54.19,1.7-44.29-11.56C427.14,580.76,442.86,582.99,456.64,587.91z" />
<path class="cls-13" d="M406.45,528.69c2.75-0.06,4.19,50.59-1.31,49.15C400.53,572.2,399.2,528.86,406.45,528.69z" />
<path class="cls-15" d="M413.61,578.28c-4.38-20.04-3.22-40.26-0.24-60.42C416.44,538.47,416.13,557.62,413.61,578.28z" />
<path class="cls-13" d="M466.35,587.64l0.1-54.23c5.88-9.72,3.07,53.03,3.09,53.63C468.19,587.32,467.23,587.61,466.35,587.64z" />
<path class="cls-15" d="M418.68,579.48c-3.12-20.63-0.73-39.81-0.45-59.89C422.28,539.83,421.5,559.63,418.68,579.48z" />
<path class="cls-15" d="M433.85,580.73c-2.05-19.51-2.23-38.33,0.08-58.21C436.1,542.11,436.27,560.63,433.85,580.73z" />
<path class="cls-4" d="M275.79,539.68c0.6-2,1.77-3.42,3.79-4.15c5.6,0.25,11.37,0.61,14.29,5.58c2.57,4.37,2.34,10.56-2.06,14.02  c-4.34,3.41-10.76,2.4-14.16-1.64C274.43,549.68,274.38,544.38,275.79,539.68z" />
<path class="cls-11" d="M310.66,548.05c3.57,5.7,3.65,13.24-1.25,18.35c-3.14,2.13-10.55-0.07-12.07-3.08  c-1.97-3.89-1.92-9.47,0.61-12.86C300.91,546.51,306.22,547.58,310.66,548.05z" />
<path class="cls-6" d="M638.46,851.61l-10.42-29.16l25.92-0.09C656.14,836.32,648.14,844.83,638.46,851.61z" />
<path class="cls-6" d="M606.83,821.26l-0.47-4.36c-0.38-3.05-1.27-3.88,0.51-5.56c2.41,8.12,10.92,10.48,14.73,16.86  c5.41-5.7,7.62,6.4,6.13,9.43c-1.33,2.7-8.83,5.45-10.66,4.67c-0.77-3.77,2.48-14.95-2.91-7.67  C609.17,831.98,611.25,825.01,606.83,821.26z" />
<path class="cls-10" d="M523.24,711.17c0.53,2.66,1.01,5.43-0.23,8.14C521.91,717.39,521.71,715.05,523.24,711.17z" />
<path class="cls-14" d="M215.14,293.03c40.5,21.62,78.81,53.73,122.7,68.96c-0.31,3.81-1.14,8.14,2.63,10.19l-0.17,162.29  c-2.7,1-9.2-1.37-11.56,0.07c-2.24,1.36-1.17,7.28-4.07,9.48c-10.84,4,3.93-8.5-3.37-18.21c-3-3.99-8.83-3.18-13.43-2.41  c0.17-4.4-1.16-9.49-5.18-10.98c-5.01-1.85-10.54-0.31-12.59,4.34l-15.4-2.42l-0.3-87.18c-0.01-1.69-5.46-4.45-5.65-6.07  c-0.2-1.71-4.75,3.01-6.38,2.3c-6.49-2.79-13.23-4.28-21.9-5.95l0.88,91.33c0.02,1.65-0.82,3.25-1.66,4.59  c-3.97-0.02-6.88-3.45-10.97-2.8c-3.3,0.53-5.17,5.05-8.61,7.27c-2.28,1.47-10.09-0.77-12.47,1.62c-1.86,1.87,0.17,7.56-0.79,11.16  c-0.69,2.59,4.67,4.97,7.48,6.04c-4.42,3.71-2.81,8.02-2.2,12.86c0.4,3.24-5.83,6.88-1.59,10.87c3.02,2.85,7.62,3.14,13.1,1.95  c-0.22,3.21-1.41,5.15-1.44,7.49c-0.03,2.44,1.34,4.46,3.94,5.26c-0.47,7.49-0.23,14.93,0.86,23.46  c18.13,3.25,35.49,6.56,54.19,8.43c3.94-6.48,6.04-13.34,6.7-20.08c3.07,0.23,5.73,6.19,9.69,0.09c1.83,3.48,3.27,4.73,5.13,5.34  c3.19,1.05,5.63-0.18,6.64-2.5c1.18-2.72,0.32-5.34,0.44-9.63c5.03,3.57,10.76,9.87,17.94,7.02c3.58-1.42,0.99-6.96-2.25-9.59  c5.06-0.05,9.78,0.85,14.56-0.59l0.06,130.07c-7.98,7.92-2.03-17.27-18.27-21.11c-8.19-1.94-9.03,7.59-13.15,12.41  c-2.8,3.27-9.25,2.65-11.1,7.06c-1.91,4.56-0.15,8.84,2.35,13.37c-3.78,2.93-8.5,5.3-7.77,11.7c0.47,4.1,4.97,9.45,7,14.08  c-4.43,8.32-10.27,17.08-2.5,25.26c1.1,1.16,3.99,1.68,4.59,2.93c0.71,1.46,1.18,5.49,0.19,6.76c-2.37,2.67-3.69,8.64-1.36,12.96  c-11.14,1.82-2.19-14.16-14.13-15.57c-4.81-0.57-8.71,2.77-10.73,7.73c-2.19-2.15-2.93-4.22-3.64-6.16  c2.19-0.85,3.16-2.79,3.16-5.72l-0.21-89.54c-3.86-3.11-8.18-0.9-11.93-1.47c-7.14-1.07-14.46-1.37-22.55-0.89l-0.12,85.04  c-4.13-1.97-10.5,2.46-14.29,1.03c-4.96-1.88-9.58-5.56-14.05-1.03l-0.68-87.27c-3.6-1.14-6.74-1.05-9.78-1.44l3.95-181.56  c2.71,0.61,8.32-2.79,9.22-5.73c6.02,2.72,12.08,1.8,14.11-4.71c1.84-5.89-1.17-10.25-6.03-13.83c4.98-4.01,0.37-7.71,0-10.71  c-0.58-4.6,3.26-10.51-2.56-14.37c-3.99-2.65-9.26-3.73-14.02,1.25l-6.18-6.77c6.49-48.71,4.16-100.22,2.78-150.28L215.14,293.03z" />
<path class="cls-8" d="M648.23,1185.22c-4.26-0.03-7.48,0.5-10.62,0.14c-6.2-0.71-11.66,0.51-16.99-3.3  c13.68-3.06,27.56-2.61,40.05,2.16C656.1,1186.77,651.94,1185.46,648.23,1185.22z" />
<g>
</g>
<g>
</g>
<g>
</g>
<g>
</g>
<g>
</g>
<g>
</g>
<g>
</g>
<g>
</g>
<g>
</g>
<g>
</g>
<g>
</g>
<g>
</g>
<g>
</g>
<g>
</g>
<g>
</g>
</svg>