<?xml version='1.0' encoding='UTF-8'?>
<svg xmlns="http://www.w3.org/2000/svg" id="Layer_1" viewBox="0 0 1200 1200" xml:space="preserve" width="1200" height="1800">
<style type="text/css">
      .cls-1 {
        fill: #0f2e36;
      }

      .cls-2 {
        fill: #523118;
      }

      .cls-3 {
        fill: #1d4b57;
      }

      .cls-4 {
        fill: #3a4950;
      }

      .cls-5 {
        fill: #236876;
      }

      .cls-6 {
        fill: #8c6240;
      }

      .cls-7 {
        fill: #437b84;
      }

      .cls-8 {
        fill: #606e9b;
      }

      .cls-9 {
        fill: #598a99;
      }

      .cls-10 {
        fill: #7c9eb7;
      }

      .cls-11 {
        fill: #c09656;
      }

      .cls-12 {
        fill: #9898ca;
      }

      .cls-13 {
        fill: #9b9ac7;
      }

      .cls-14 {
        fill: #8eacc1;
      }

      .cls-15 {
        fill: #fc9b61;
      }

      .cls-16 {
        fill: #9fb7ce;
      }

      .cls-17 {
        fill: #deb063;
      }

      .cls-18 {
        fill: #c5b7dd;
      }

      .cls-19 {
        fill: #edb98d;
      }

      .cls-20 {
        fill: #fdb968;
      }

      .cls-21 {
        fill: #d5c8e5;
      }

      .cls-22 {
        fill: #fdd07d;
      }

      .cls-23 {
        fill: #dfdbf1;
      }

      .cls-24 {
        fill: #f6efd6;
      }

    </style>
<path class="cls-5" d="M1198.81,46.94l-28.3,3.18c-85.17,5.65-170.4,10.22-255.71,13.7c-293.53,12.18-587.03,24.78-880.5,37.8  l-28.39-0.04c-0.99,3.13-4.52,3.3-5.91,0.37V1.17c399.35-0.71,799.02-0.91,1199.02-0.59C1199.7,16.18,1199.62,31.64,1198.81,46.94z" />
<path class="cls-9" d="M1198.81,46.94c0.27-1.04,0.67-1.05,1.17-0.07v100.87l-1.17,2.32c-150.91-2.96-301.96-6.02-453.14-9.16  l-6.4-2.37l-2.14,2.26c-8.16-1.4-16.28-1.65-24.37-0.76l-2.68-1.76l-15.18,1.92l-184.31-5L7.22,104.02l-1.31-2.43  C402.08,79.99,801.4,69.89,1198.81,46.94z" />
<path class="cls-12" d="M5.91,101.59l504.78,31.27l199.39,5.42c0.13,0.89,0.27,2.13-0.36,2.53c-4.86,3.11-19.16,4.34-25.09,4.57  l0.56,2.42c-31.04,19.54-62.08,39.09-93.13,58.64l-2.46-1.22l-3.26,2.01l-45.25-4.77L1.61,236.62L0,234.38V101.95  C1.94,101.49,3.93,101.46,5.91,101.59z" />
<path class="cls-21" d="M630.49,257.7c2.5,2.89,2.57,6.8,0.22,11.72l2.98,1.44c3.81,16.26,10.91,30.25,21.3,41.97l0.33,3.21  c2.38-0.17,5.59,1.36,7.73,2.6c8.84,5.11,25.57,16.82,33.28,23.54l-0.21,2.72c-0.07,0.93-0.35,2.33-1,2.38  c-15.57,1.21-34.61,1.87-50.23,1.6c-5.19-0.09-10.36-0.79-15.49-1.85l-1.93,2.35c-12.6-2.18-25.16-4.45-37.67-6.82  c-2.84,0.82-4.93,0.46-6.25-1.07l-6.52,5.76c-2.46,2.16-4.56,2.39-6.29,0.69c-4.97,0.72-10.11,0.7-15.41-0.07l-24.27,1.08  L1.47,349.22L0,346.88v-58.59l1-2.4c194.47-9.67,388.97-19.34,583.5-29.01l1.58,2.27l1.1,0.29c0.83-2.11,1.85-2.64,3.05-1.59  l2.97-2.35c11.96-0.04,23.92-0.09,35.89-0.13L630.49,257.7z" />
<path class="cls-21" d="M1199.98,229.18v116.49l-0.81,2.34c-49.18,0.05-98.36,0.1-147.56,0.15l-1.43-2.34l-17.97,0  c-0.24,0.92-0.66,2.3-1.37,2.34c-11.31,0.65-28.25,0.93-39.34-0.02c-3.66,0.73-5.98-0.05-6.94-2.35l-8.59,0.03  c-0.61,3.61-6.21,3.01-7.85,0.01l-22.62,0c-0.93,3.12-2.16,3.15-3.14-0.02c-1.07-0.4-1.63-0.42-2.72,0.02l-0.8,2.35  c-48.43,0.31-96.86,0.62-145.31,0.92l-1.45-2.33l-2.47-1.08l-2.03-20.37c-9.48-13.43-19.71-26.19-30.69-38.28  c-10.01-4.09-20.7-6.68-32.07-7.77c-9.63-2.58-22.99-12.83-21-24.11c0.17-0.97,1.67-1.48,2.78-1.86l1.02-2.06  c163.49-8.3,327.07-16.42,490.76-24.35L1199.98,229.18z" />
<path class="cls-18" d="M589.6,205.21c-1.55,4.45-2.32,6.68-2.32,6.68l-18.22,23.03l33.23-28.77l2.59,0.86  c3.54-2.11,6.54-1.44,6.8,2.92l-0.32,3.63c-7.95,9.89-13.84,21.1-17.68,33.64c-1.72,5.17-4.25,9.14-7.6,11.94L0,288.28v-53.91  l541.16-34.26L589.6,205.21z" />
<path class="cls-15" d="M189.93,378.65l-0.35,2.46L31,412.32l355.24-0.06l17.96,2.34c2.32-4.76,10.56-1.87,5.88,3.6l-119.24,21.08  l169.1,0.55l1.44,2.35l1.49,1.98c0,0-8.03,11.8-24.08,35.4l-2.72-0.17c-0.12,0.5-0.39,1.23-0.8,1.23  c-43.49,0.54-88.54,0.48-131.75-0.14l-1.17-1.17l-0.33,1.18c-4.98-0.81-9.95-1.2-14.91-1.18c-2.29,3.04-7.97,2.17-9.24-1.41  c-52.23-6.46-104.58-11.23-157.04-14.3L0.81,462.9L0,461.72v-85.55l0.82-2.34c64.15-0.15,128.28-0.05,192.39,0.32  C196.22,376.61,195.13,378.11,189.93,378.65z" />
<path class="cls-12" d="M1199.98,147.75v64.1l-1,2.27l-236.65-18.78l-69.12,11.51l-10.72-0.6l-1.66,1.98  c-24.96-6.79-49.92-13.58-74.89-20.37l-0.74-2.63l-3.95-2.05c-8.08-13.22-19.07-24.59-32.45-32.49c-1.16,2.23-2.53,3.22-4.12,2.98  c-9.1-2.89-17.55-6.88-25.35-11.95l-0.05-3.19L1199.98,147.75z" />
<path class="cls-3" d="M1199.98,447.64v64.17l-1.12,2.34c-146.26,0.05-292.54,0.1-438.85,0.16l-1.46-2.34l-0.6-3.89  c1.9-5.48,10.29-26.33,13.19-29.55c0.93-1.04,2.38-1.38,3.7-1.6c0.94-1.13,1.94-1.91,2.99-2.34l50.77,0.03l223.57-29.16l146.39-0.15  L1199.98,447.64z" />
<path class="cls-23" d="M1199.98,511.8v32.54l-7.77,1.88c-52.07,3.47-104.44,6.39-156.68,6.83c-2.61,0.02-5.22-0.33-7.85-0.71  c-2.64-0.38-5.25-0.93-7.86-1.53c-2.64-1.71-2.24-4.03-1.75-6.78c-0.36,3.25-1.79,5.56-4.31,6.95c-0.81,3.35-10.58,2.92-13.91,2.38  l-1.62-2.34c-3.3-0.86-3.44-2.45-0.24-3.76l-0.58-1.17l-2.4-0.85l-1.07-15.54c-2.03-2.08-5.16-1.93-5.45,1.51l1.06,18.71l-2.25,1.75  l-0.77,2.36l-158.91,2.88c-10.85,3.05-21.84,5.18-32.98,6.39l-0.89,2.31c-15.71-0.65-31.43-1.31-47.15-1.96l-1.28-2.4l-1.85-4  c1.15-8.67,6.33-40.65,12.83-44.4c0.69-0.4,1.46-0.67,2.25-0.89L1199.98,511.8z" />
<path class="cls-19" d="M570.72,347.92l0.26,2.57c-18.51,10.96-37.02,21.92-55.55,32.89l-2.4-1.3c-5.26,0.94-10.56,1.78-15.91,1.75  c-76.96-0.55-153.91-0.91-230.88-1.04l-23.84-2.99l-5.01,2.22c-7.88,0.44-40.7,1.06-45.16-1.56c-0.83-0.49-1.58-1.12-2.3-1.79  c0.52-1.14,2.21-0.64,3.48-2.45L0,376.17v-29.3l531.02-0.28C544.96,346.58,558.7,343.42,570.72,347.92z" />
<path class="cls-3" d="M277.87,477.89c3.18,0.36,5.96,0.85,9.24,1.41c5.42-0.07,10.86,0.49,16.29,1.69l131.4-0.38l0.81,1.23l1.02,3.35  c-4.97,7.98-9.66,16.08-14.1,24.32l-3.07,1.5c-1.2,2.16-1.95,3.09-2.55,0.69l-3.26,0.25l-1.12,2.34  c-137.01,0.05-274.04,0.11-411.09,0.16L0,512.11v-48.05c0.07-0.66,0.14-1.17,0.21-1.17c59.05-0.24,118.55-0.46,178.81,4.33  C211.92,471.22,244.87,474.78,277.87,477.89z" />
<path class="cls-19" d="M939.65,345.85c0.74-0.82,1.85-0.55,2.72-0.02c1,0.2,2.16-0.23,3.14,0.02l22.62,0  c2.24-0.51,5.62,0.16,7.85-0.01c2.9-0.47,5.76-0.48,8.59-0.03l47.65,0.02l17.97,0l149.8-0.15v36.37l-0.83,2.34  c-66.39-0.37-132.79-0.73-199.2-1.1l-1.43-2.35l-18.4,2.34c-61.55-0.01-122.94-0.02-184.14-0.02l-1.44-2.34l-2.15-3.3  c-0.05-9.15-0.8-18.26-2.25-27.32l1.96-3.48L939.65,345.85z" />
<path class="cls-15" d="M869.38,414.51l17.82-2.3c104.03,0.18,207.8,0.37,311.33,0.56l1.45,2.35v32.53l-147.64,0.14L828.7,476.94  l-53.88-0.02l-1.3-2.42l6.1-17.76c1.5-4.68,3.71-6.56,6.63-5.64c-0.01-1.02,0.47-2,1.46-2.33l172.93,1.1l-97.54-31.7  C858.29,413.11,866.52,409.54,869.38,414.51z" />
<path class="cls-1" d="M429.91,1143.63l6.22,0.16c15.27,4.29,30.38,8.88,45.32,13.78l2.44,2.31l8.57,0  c34.88,9.91,69.72,19.8,104.49,29.68l0.72,2.64c7.82,0.23,17.77,0.92,22.25,7.81H262.14c-0.81-1.19-1.7-2.54-1.61-4.02  c0.36-6.67,7.82-27.36,10.74-34.52l3.18-2.79l1.94-2.57c44.3-4.89,88.69-9.73,133.16-14.53l11.08,1.08  C421.47,1139.12,429.51,1140.14,429.91,1143.63z" />
<path class="cls-18" d="M1199.98,211.85v17.33l-493.36,24.14c-0.92-0.42-1.89-1.12-1.82-2.05c0.65-8.86,1.35-15.13,10.35-18.82  c3.94-1.61,14.51-3.97,16.09,0.69c20.12,0.18,40.25,0.67,60.37,1.46c20.12-1,40.23-1.86,60.33-2.57c0.8-0.57,1.62-1.09,2.51-1.47  c0.88-0.38,1.71-0.73,2.49-0.67c19.21,1.41,38.37,3.23,57.55,5.08c16.49,1.08,30.75,0.78,47.17,0c5.17-0.24,13.96,0.17,5.28,0.09  l-0.5-1.61c-27.16-8.13-54.23-16.41-81.21-24.83l-2.75-2.37l79.79-13.25L1199.98,211.85z" />
<path class="cls-18" d="M905.75,1143.69c12.25-0.32,24.54,1.1,36.86,4.25l2.03,2.75c0.87,0.49,1.7,1.01,2.43,1.65  c4.15,3.68,12.96,34.52,14.7,42.25l-0.79,5.41H619.91c-7.1-2.81-14.82-5.69-22.25-7.81l0.44-2.44c0,0,86.78-14.03,260.35-42.08  l1.8,2.08l1.42,2.03l-16.69,22.96l44.37-31.15l2.5,1.11C895.81,1142.62,903.09,1139.11,905.75,1143.69z" />
<path class="cls-23" d="M413.66,511.95c1.23-0.52,4.48-0.81,4.6,0.46c0.59,6.11-15.03,29.65-19.71,35.73l-3.82,1.84l-5.15,1.92  c-25.9,0.23-53.44-1.4-78.99-4.56c-0.29-0.04-0.52-0.49-0.74-1.06c-3.11,3.51-10.63,4.68-10.24-1.34c-1.91-1.8-2.47-4.45-1.66-7.93  c-0.52,4.41-2.18,7.51-5,9.31c-2.98,3.11-10.99,2.75-13.96-0.29c-1.06-0.02-1.07-0.36-0.15-1l-1.25-1.27  c-1.87,0.45-3.31-0.66-4.33-3.32c0.33,2.52-0.44,4.04-2.31,4.59l-0.87,2.32c-24.9-0.66-49.89-1.33-74.97-2  c-1.83-1.65-3.15-1.69-3.98-0.11c-5.5,0.7-10.21-0.2-14.14-2.72l-1.44,0.67c-6.28-6.64-11.49-6.96-15.63-0.96  c-3.84,1.16-7.75-0.21-11.72-4.12l-57.24-3.17c0,0-6.44-0.16-19.32-0.47l-1.39-2.25c-2.05-0.25-2.64-1.16-2.47-3  c-0.41,1.91-1.13,2.85-3.31,2.89c-0.8,3.46-11.58,2.79-15.01,2.24l-1.58-2.35l-2.53,0.37c-1.71-4.41-3.24-4.85-4.6-1.34  c-0.27,0.91-0.73,2.28-1.44,2.3c-12.62,0.37-26.29-0.77-38.63-2.02L0,529.69v-17.58L413.66,511.95z" />
<path class="cls-3" d="M1199.98,588.28v1.56l-1.79,4.97l-64.43,61.64l-39.71,3.13l-1.87-2.22c-0.34,1.02-0.73,1-1.15-0.02  c-1.9-2.07-3.68-4.61-5.33-7.63l-3.24-2.76c-2.74-1.02-4.17-2.63-4.29-4.82l-2.66-1.94c-0.43-7.08-1.44-14.04-3.02-20.87  c0.19,7.07,0.87,14.13,2.06,21.16l-2.3,1.75c0.35,2.17-0.9,3.93-3.73,5.3c0,0-1.71,2.27-5.12,6.82c-0.19,2.79-1.23,4.57-3.11,5.34  l-0.65,2.39c-34.69,2.36-69.39,4.71-104.1,7.07l-1.58-2.24c-0.58-0.7-1.32-1.88-0.91-2.3c4.1-4.25,19.75-17.96,24.3-20.49l5.8-1.93  c-0.35-2.2,0.53-2.32,1.37-0.19c0.86-2.86,6.01-5.63,9.05-4.76c0.11-1.96,0.48-3.23,2.31-2c-0.16-2.83,1.09-3.09,3.6-2.42  c0.69-2.29,1.51-2.64,2.46-1.06c1.02-2.92,7.97-8.21,10.57-5.79c0.2-3.84,4.54-6.9,8.05-5.11c2.82-3.4,9.22-10.68,13.29-7.91  c6.8-8.02,17.59-14.11,27.77-16.65l0.67-2.39c45.36-2.63,90.73-5.26,136.11-7.88L1199.98,588.28z" />
<polygon class="cls-20" points="1199.98,382.03 1199.98,415.11 869.38,414.51 869.58,412.03 979.66,383.4 998.52,380.92 " />
<path class="cls-10" d="M1198.81,696.23c0.21-1.06,0.61-1.09,1.17-0.14v84.42c-0.15,0.91-0.47,2.25-1.14,2.3  c-4.64,0.38-24.88-0.14-28.96-1.09l-1.62-2.41c-1.69-2.94-1.99-6.7-0.91-11.3c-0.55,4.93-2.22,8.65-5,11.18l-1.21,2.28  c-20.68-1.1-41.37-2.2-62.06-3.3l-1.28-2.42l-2.13-5.94c-0.4-21.54-1.45-43.07-3.15-64.58c-0.49-3.22,0.34-6.21,2.12-8.93l0.81-2.34  c33.98-0.03,67.97-0.06,101.96-0.08L1198.81,696.23z" />
<path class="cls-10" d="M119.34,696.08c1.16-3.67,12.98-2.81,14.04,0.82c0.57,0.8,1.1,1.62,1.49,2.51c2.03,4.71-2.84,36.24-4.37,43.76  l-2.88,4.55c-0.83,2.78-1.8,3.85-3.93,5.46c-8.47,6.41-36.34,8.3-47.23,7.65l-2.84-2.24c-1.95,4.96-7.05,0.62-9.54-2.73  c-2.29-8.67-4.85-17.17-7.7-25.49c2.39,9.42,3.27,18.75,2.66,28c-1.05,2.84-2.19,4.23-4.89,2.24l-1.23,2.43  c-17.13,1.09-34.26,2.18-51.38,3.28L0,764.06v-67.97l0.81-2.34c37.19-0.01,74.42-0.01,111.71-0.02L119.34,696.08z" />
<path class="cls-2" d="M1066.46,897.66c3.04-0.64,3.13,0.3,0.87,2.3c0.72,1.07,1.24,2.4,0.41,3.55c1.43,1.46,2.79,3.07,3.45,5.03  c1.85,5.44,7.03,23.12,6.58,27.3c-0.11,1.06-0.38,2.1-0.69,3.13l2.79,1.32c1.95,10.52,4.07,20.91,6.36,31.18  c2.14,3.49,3.21,5.24,3.21,5.24l10.94,55.72c2.25,0.77,3.27,3.05,3.06,6.84c2.3,2.39,3.4,5.79,3.3,10.21  c6.33,23.93,6.97,49.59,7.55,74.89c0.52,22.48,0.81,45.12-2.07,67.44c3.16,1.31,3.17,6.82-0.23,8.2h-25.34l-2.43-1.18  c-0.37-1.82-1.65-18.6-1.31-19.52c0.33-0.9,1.33-1.41,2.23-1.83c-4.54-15.52-5.04-33.19-5.2-49.54c-0.04-3.79,0.94-7.5,1.97-11.12  c-1.25-3.67-2.42-7.41-2.73-11.29c-1.5-18.7-3-37.43-4.48-56.13c-0.3-3.83,0.27-7.67,0.93-11.44l-2.47-0.76  c-2.88-21.72-5.75-43.46-8.63-65.2l2.14-1.69c-1.36-0.95-2.21-2.24-2.86-3.74c-1.16-2.69-2.67-17.24-2.74-21.12l1.8-4.37l-2.43-0.48  c0,0-1.74-13.35-5.22-40.04l2.15-1.68c-0.31-1.17-1.22-2.26-2.75-3.27l-7.21-61.1c1.26-1.59,2.93-1.27,4.78-0.55l15.5,59.18  L1066.46,897.66z" />
<path class="cls-2" d="M29.36,822.74l2.6,0.75c2.07,8.32,4.15,16.65,6.22,24.99l-1.86,2.21l2.88,1.93  c8.17,33.54,12.26,50.31,12.26,50.31l-1.95,1.9L52.2,906c8.75,36.21,13.13,54.31,13.13,54.31l-1.95,1.92  c1.04,1.74,2.04,3.5,2.88,5.33c0.83,1.82,1.64,3.62,2.08,5.51c5.25,22.65,9.55,45.58,12.85,68.6c0.27,1.91,0.16,3.88,0.04,5.87  c-0.12,2-0.42,4-0.77,5.99c3.59-0.78,4.93,10.57,1.54,11.84l2.52,1.08l13.66,97.51c-0.06,1.48-0.64,2.97-1.74,4.47  c1.67,0.39,2.19,1.84,1.59,4.35l1.12,2.51c3.59,6.37,2.81,18.27-0.5,24.73h-15.1l-2.55-4.95c-6.51-31.83-13.33-63.6-20.45-95.31  c-5.14-10.44-9.34-21.09-12.6-31.93l2.17-2.35c-0.25-1.56-0.11-3.2,0.41-4.93l-10.64-99l2.18-1.67l-2.44-0.82  c-1.85-17.64-3.71-35.28-5.57-52.93l2.19-1.62l-2.44-0.83c-1.8-16.99-3.61-33.98-5.41-50.98l2.18-1.64l-2.55-2.19  c-0.04-7.86-0.89-15.59-2.54-23.21l1.48-2.91C25.63,818.7,30.25,818.53,29.36,822.74z" />
<path class="cls-2" d="M931.31,915.43l3.43,1.28c5.01,11.71,10.93,22.88,17.77,33.5l0.01,3.62l3.01,1.93  c1.36,2.12,11.33,23.86,11.49,25.24c0.14,1.25-0.53,2.42-1.2,3.44c2.22,2.86,4.41,5.82,5.79,9.2c5.99,14.73,11.92,29.66,17.65,44.49  c1.31,3.4,1.79,7.05,2.16,10.66c3.77-0.23,7.68,8.56,4.32,10.51l4.43,5.93c7.26,18.67,14.55,37.28,21.87,55.81l-0.07,3.86l3.69,2.85  c5.54,13.73,10.44,27.66,14.69,41.77c0.92,0.23,2.3,0.59,2.37,1.3c0.32,3.02,1.34,26.29,0.58,27.43c-0.58,0.86-1.27,1.48-2.31,1.74  h-21.12l-2.78-0.83c-8.03-22.77-12.04-34.15-12.04-34.15l1.64-2.38c-7.09-9.13-11.91-21.78-12.02-33.34l-2.57-2.72  c-6.59-18.03-13.18-36.12-19.79-54.27l-0.49-7.14c-2.48,0.24-4.07-1.69-4.77-5.81c-1.97-3.43-2.03-6.16-0.19-8.2l-2.58-3.34  c-8.29-22.17-16.1-44.51-23.44-67.03l0-4.21c-5.63-4.66-9.25-15.4-7.87-22.64l-3.34-2.46c-3.79-10.9-7.58-21.8-11.37-32.7l1.65-2.38  l-2.47-0.03l-13.54-42.07c0.89-1.74,2.52-2.05,4.42-1.93l24.3,40.67L931.31,915.43z" />
<path class="cls-4" d="M70.28,532.19l1.6,2.02c0.22,11.55-0.15,23.19-1.11,34.94l24.66,0.26l7.57-20.9c1.47-3.06,3.12-2.09,5.4-0.16  l5.07,15.46c1.71-3.39,6.19-12.01,9.97-7.76c0.96,4.39,0.78,9.06-0.55,14l74.99,2.86c6.55,1.18,12.88,3.11,18.99,5.78l1.09,2.88  c2.41-0.35,4.91-0.58,7.27,0.11c9.41,2.73,20.85,7.19,27.89,13.66l-0.82,2.34c-83.61-0.01-167.23-0.02-250.87-0.03L0,595.31v-33.98  l2.05-1.73l12.14,4.59c-5.17-13.49-3.99-17.45,3.55-11.86l6.29,6.28l-1.41-20.27c1.71-2.69,2.98-3.92,5.45-1.35l14.37,22.43  c-0.98-8.31-1.87-16.7-2.66-25.16l1.02-3.26c-0.63-3.54-0.61-7.47-0.74-11.73l7.87,12.7l2.8,1.87c1.97,6.34,4.39,12.53,7.24,18.56  c1.81-5.97,3.08-12.08,3.81-18.32l2.73-2c0.92-4.97,4.61-9.92,5.3-15.47L70.28,532.19z" />
<path class="cls-16" d="M253.12,595.34c0.24-0.92,0.6-2.26,1.33-2.36c4.08-0.58,12.23-0.38,16.59-0.19c4.59-0.9,7.65-0.16,9.17,2.24  c0.24-0.91,0.55-2.1,1.35-2.34c0.95-0.29,17.42-0.24,18.9,0l1.68,2.34l0.81-2.34c16.97,0.14,33.95,0.28,50.93,0.41l1.37,2.35  c0.14,0.91,0.07,2.35-0.5,2.43c-68.8,10.06-139.73,19.51-209.17,28.22c-8.3,2.17-16.15,2.44-23.55,0.81  c-3.11,0.79-6.61-0.42-10.5-3.66L11.4,616.14l-8.02-2.93c-1.23,2.13-2.55,1.98-3.38-0.32v-17.58L253.12,595.34z" />
<path class="cls-1" d="M1199.98,589.84v0.78c0.12,35.36-0.27,70.56-1.17,105.61l-104.19,0.09l-2.44-3.44  c-2.07-12.17-2.07-24.01,0.02-35.52l40.56-2.92L1199.98,589.84z" />
<path class="cls-2" d="M158.2,914.06l0.87,3.72c-7.29,37.71-14.16,75.55-20.58,113.54c3.42,0.72,3.57,6.47-0.04,6.92l1.93,3.81  l-0.47,23.31l-2.43,3.57l2.31,0.9c-1.2,33.63-2.4,67.27-3.6,100.92l-2.39,1.34l2.19,3.07l-1.24,21.8l-2.15,3.04h-15.84l-1.7-3.19  c-5.09-47.75-9.63-95.98-7.91-144.08c0,0,1-2.08,3.01-6.25c-0.5-9.77-0.94-20.64,1.2-30.24c-0.28-3.33,0.73-5.27,3.04-5.8  c4.06-12.1,7.02-24.36,8.9-36.79l2.22-2.44c7.01-19.41,13.5-39.05,19.49-58.91l2.66-0.61c-0.25-1.2-0.45-2.4-0.49-3.61  c-0.21-6.19,10.86-37.83,14.59-44c5.08-8.42,6.04-8.1,6.22,1.65C166.61,882.29,163.35,898.4,158.2,914.06z" />
<path class="cls-2" d="M268.49,919.82l2,1.63c-5.25,20.37-10.5,40.74-15.75,61.13l-2.62,0.77c0.86,0.34,2.11,0.97,2,1.62  c-1.09,6.32-4.34,19.25-6.6,25.08c-0.56,2.93-0.96,4.83-3.99,5.97l2.02,1.61c-5.59,22.65-11.19,45.3-16.79,67.97l-2.61,0.8  l0.66,3.79c-5.54,22.74-11.19,45.52-16.95,68.34l-3.63,6.45l1.82,2.74c-3.69,9.87-6.65,19.92-8.87,30.13l-2.44,2.17h-18.57  l-2.36-0.73c-0.39-14.97-0.78-29.93-1.18-44.91l2.31-1.45l1.88-10.66c6.98-20.1,14.03-40.12,21.13-60.04l2.61-2.86  c-0.84-0.39-2.05-1.15-1.87-1.78c4.26-14.77,10.2-31.41,15.61-45.92c0.96-5.17,3.16-9.23,6.62-12.18c-0.83-0.4-2.03-1.13-1.86-1.77  c1.95-7.64,9.04-29.32,12.54-35.7l2.77-0.83c-0.14-1.41-0.24-2.82-0.17-4.22c0.07-1.38,0.15-2.73,0.57-3.96  c5.4-15.9,11.32-32.47,18.24-47.74c0.54-1.18,1.39-2.23,2.29-3.28c0.91-1.06,1.96-2.01,3.04-2.93c-0.79-0.48-1.92-1.33-1.69-1.94  c1.34-3.56,12.18-29.3,13.7-29.92c3.01-1.24,4.23-1.55,4.91,1.83c0.57,2.82-3.93,23.75-5.47,27.4  C271.14,917.91,269.79,918.94,268.49,919.82z" />
<path class="cls-17" d="M1177.98,996.09c0.97,0.36,0.91,0.75-0.09,1.17c-2.64,12.08-4.57,24.26-5.79,36.52  c3.02,1.23,2.79,3.61-0.39,4.29c-1.39,3.49-2.13,7.15-2.24,11c3.27,0.73,2.95,2.52-0.18,3.49c-1.15,3.22-1.87,6.59-2.15,10.1  c3.25,0.88,2.85,2.77-0.25,3.84c-1.29,3.23-2.01,6.63-2.16,10.22c3,1,2.99,1.58-0.07,2.36c-1.58,3.44-2.34,7.11-2.28,11.01  c3.13,0.19,2.95,1.32-0.02,2.24c-2.04,8.49-3.59,17.07-4.63,25.75c2.24,0.41,2.14,1.47-0.09,2.05c-1.49,3.67-2.23,7.61-2.24,11.81  c2.3,0.73,2.26,1.77-0.09,2.31c-4.02,17.42-6.86,35.1-9.22,52.81c2.28,0.59,2.32,1.6,0.05,2.3c-2.14,2.32-2.3,5.46-2.35,8.53  c3.12,0.2,2.95,1.26-0.03,2.11H1112c0.45-2.61-0.36-5.61,0.23-8.2c3.02-26.76,9.02-55.07,15.98-81.17l2.6-0.86  c0.66-7.44,1.32-14.88,2.8-22.22c3.6-17.93,7.85-37,14.78-53.71c-0.38-1.13-0.71-2.26-0.87-3.42c-0.16-1.13-0.29-2.23-0.06-3.25  c4.52-20.71,13.16-42.84,22.88-61.67c0.47-0.92,1.27-1.68,2.11-2.45c0.86-0.79,1.83-1.45,2.83-2.08l2.28-4.68  c-1.07-0.43-1.06-0.82,0.05-1.17l1.18-1.14c-1.01-0.36-0.99-0.75,0.03-1.17l1.06-1.22c-0.98-0.36-0.94-0.75,0.05-1.17  c1.45-2.76,3.05-5.36,4.81-7.81l1.38,0.77C1184.35,961,1181.63,978.58,1177.98,996.09z" />
<path class="cls-6" d="M1013.75,897.45c2.95-1.74,4.77,1.66,2.32,3.96c1.32,1.37,2.65,2.86,3.21,4.72  c1.86,6.12,8.79,31.87,8.18,35.69c-0.16,1-0.48,1.97-0.84,2.94l2.57,0.64c0.22,6.94,2.88,11.95,7.98,15.03l0.74,5.17  c2.46,4.48,2.61,7.67,0.48,9.6l2.6,4.4c2.52,18.92,5.92,37.71,10.21,56.37c0.79,2.54,0.19,4.96-1.26,7.18  c1.51,2.84,3.07,5.75,3.67,8.93c3.48,18.36,6.82,36.91,9.87,55.34c0.25,1.53,0.17,3.13,0.05,4.75c-0.12,1.64-0.4,3.26-0.73,4.88  l2.44,0.38c0,0,3.22,18.72,9.65,56.16l-2.08,1.75c4.71,5.63,5.91,17.76,3.51,24.65h-35.32l-0.64-30.47  c-3.1-12.47-4.47-25.4-4.1-38.78c-0.44-4.49-0.6-7.53,1.83-11.52c-3.75-3.14-3.9-14.06-0.72-17.66l-0.07-2.34l-2.37-0.72  c-0.51-16.13-1.02-32.27-1.53-48.41l2.3-1.46c-3.44,0.26-3.29-3.55-0.03-4.35l-2.47-4.8c-2.05-20.05-5.33-39.88-9.85-59.48  l0.97-2.71c-0.91,0.1-2.22,0.16-2.52-0.49c-1.64-3.55-6.08-23.6-6.6-28.08l1.89-2.19c-6.75-12.6-10.51-28.51-10.42-42.81  c-3.44,0.48-4.1-2.81-1.15-4.43C1005.22,895.73,1012.81,893.66,1013.75,897.45z" />
<path class="cls-18" d="M1199.98,564.66v23.62l-138.33,8.01c-7.33,2.08-15.01,2.53-23.05,1.35l-1.55-2.41  c-2.32-1.24-2.87-4.14-1.67-8.7c-1.28,5.16-3.45,8.1-6.5,8.84c-2.56,3.81-11.58,3.96-13.94-0.09c-3.03-9.38-1.78-22.21,3.35-30.63  l0.82-2.34c59.8,0,119.61,0,179.43,0L1199.98,564.66z" />
<path class="cls-1" d="M3.38,613.21l8.15,2.94l105.25,75.21c2.5,1.07,3.35,2.64,2.56,4.71L0,696.09v-83.2  C1.13,612.88,2.25,613.13,3.38,613.21z" />
<path class="cls-5" d="M27.8,1060.77l3.2,3.16c11.38,37.3,14.89,74.47,16.25,113.22l-2.01,3.86l-1.17,2.45  c-14.05,1.16-28.11,2.33-42.17,3.49l-1.9-2.19v-125.39c0.29-0.9,0.72-2.19,1.47-2.27c3.24-0.35,21.72,0.55,24.76,1.25L27.8,1060.77z  " />
<path class="cls-11" d="M50.11,1065.46c0.41,12.26,9.91,22.57,12.96,34.68c8.38,33.31,14.02,66.66,20.47,99.86H46.73  c-3.72-5.21-4.48-13.37-1.49-18.98c-7.03-77.99,2.19-40.76-17.44-120.24l-2.7-1.14L9.87,997.94c2.78-4.38,6.05-2.13,9.81,6.76  c8.35,19.99,18.32,38.85,29.91,56.59L50.11,1065.46z" />
<path class="cls-13" d="M1199.98,1095.7V1200h-3.52c-15.47-1.65-30.81-3.93-46.03-7.25c-0.78-0.17-1.5-0.71-2.24-1.3  c-0.76-0.6-1.42-1.32-2.05-2.08c0.09-0.75-0.08-1.54-0.05-2.3c2.36-17.72,5.2-35.39,9.22-52.81c0.1-0.72,0.16-1.59,0.09-2.31  c-0.05-4.23,0.69-8.16,2.24-11.81c-0.05-0.56-0.01-1.52,0.09-2.05c0.79-5.44,1.6-10.88,2.44-16.32l1.15-0.36l1.74-2.63  c11.74-1.73,23.48-3.46,35.21-5.2L1199.98,1095.7z" />
<path class="cls-14" d="M42.06,959.86l10.8,100.58c0.28,2.59-1.14,4.2-2.75,5.01c-17.12-18.69-23.34-46.66-38.29-69.43l15.99,64.75  l-27.8-1.4v-104.3c0.1-0.9,0.48-2.27,1.05-2.24c10.53,0.55,27.2,2.13,37.33,4.24C40.61,957.04,41.66,957.44,42.06,959.86z" />
<path class="cls-17" d="M170.16,973.97c0.93,0.22,2.3,0.6,2.37,1.32c0.99,9.92,1.92,31.73,0.81,41.09l-2.1,7.71l2.44,3.8  c0.8,7.76,0.74,15.5-0.17,23.2l1.85,2.06c-0.5,5.72-0.33,11.46,0.52,17.23l-2.31,1.71l1.55,4.03c1.42,21.48,2.65,43,3.71,64.58  l-1.9,12.21l1.23,47.08h-32.49c-0.89-0.31-2.19-0.78-2.24-1.52c-0.25-3.86,1.02-23.06,1.91-26.49l2.46-1.52l-2.26-1.01  c2.9-32.76,5.8-65.52,8.7-98.29l2.46-1.21c-0.9-0.18-2.22-0.55-2.26-1.22c-0.31-6.2,1.17-26.41,2.48-32.41l2.47-1.5l-2.23-1.29  c1.81-19.54,3.63-39.09,5.45-58.64l2.46-1.18c-0.88-0.34-2.21-0.88-2.19-1.58c0.08-3.09,1.89-26.58,2.95-27.46  c1.7-1.42,3.13-0.4,4.76,0.95c1.02,0.84,1.84,23.62,1.8,26.5L170.16,973.97z" />
<path class="cls-23" d="M54.14,760.61c2.96,1.03,2.61,2.02-0.49,2.21c1.06,18.6,3.33,37,7.88,55.18l-1.73,3.52l-3.04,2.06  c-8.13-0.11-16.24,0.33-24.34,1.32l-3.06-2.17c-0.25-0.24-0.55-0.6-0.99-0.79c-0.55-0.23-1.06,0.42-1.41,0.79  c-0.17,0.93-0.45,2.32-1.16,2.45c-3.12,0.56-23.64,2.31-24.89,1.31C0.48,826.15,0.22,825.6,0,825v-60.94L54.14,760.61z" />
<path class="cls-24" d="M1199.98,797.95v76.4l-0.44,2.44c-14.94,2.24-29.88,4.48-44.83,6.72l-1.73-2.11l-0.93-4.65  c2-22.18,4.33-44.9,8.79-66.83c0.3-1.47,0.91-2.87,1.58-4.28c0.67-1.43,1.51-2.78,2.39-4.12l1.45-2.5  c10.6-1.08,21.21-2.16,31.81-3.23L1199.98,797.95z" />
<path class="cls-11" d="M1199.98,544.35v20.31H1018.3c-3.02-3.09-2.08-11.47,1.52-13.84C1079.97,550.75,1139.91,546.73,1199.98,544.35  z" />
<path class="cls-6" d="M84.38,866.27c5.61,13.03,7.84,27.68,6.21,41.77l2.47,0.75c2.51,18.49,5.01,36.99,7.52,55.49l-2.14,1.69  c0.77,1.18,1.49,2.38,2.06,3.64c0.56,1.24,1.09,2.47,1.28,3.75c3.59,24.22,6.78,48.74,8.37,73.12  c-5.95,50.54,4.64,102.35,6.6,153.52H98.64c-0.42-8.25,0.42-16.48,0.5-24.73c-2.74-2.97-0.44-7.6,1.46-10.62  c-1.03-0.72-1.01-1.41,0.08-2.05c-0.54-7.58-0.12-15.29,2.26-22.58c-3.23-0.89-3.26-3.68,0.1-4.38c-0.43-8.36,0.03-16.78,2.26-24.9  c-3.37,0.16-3.11-2.55,0.07-3.22c1.54-14.07,0.39-27.39-3.46-39.95c-1.06-0.3-1.03-0.65,0.03-1.05l-1.68-1.98  c0.84-4.16,0.68-8.42-0.48-12.78l2.12-1.67l-2.68-2.27l-11.12-79.8c-0.2-0.97,0.47-1.8,2.02-2.48l-2.51-1.05  c-2.56-18.63-5.12-37.26-7.68-55.89l2.13-1.68l-2.45-0.77c-1.45-12.55-2.9-25.1-4.35-37.65l2.13-1.96  C79.13,863.68,82.63,863.19,84.38,866.27z" />
<path class="cls-23" d="M1199.98,874.35v50.46c-1.58,3.26-7.11,3.96-9.29,0.99c-0.43,1.02-0.85,1.02-1.25-0.02l-1.85,2.56  c-26.58,2.91-39.87,4.36-39.87,4.36l-1.63-2.18l-2.21-1.11c2.2-15.65,4.39-31.31,6.59-46.96l2.51-1.05L1199.98,874.35z" />
<path class="cls-24" d="M36.24,904.49l5.82,55.37L0,955.08v-52.73c0.16-0.91,0.54-2.27,1.18-2.28c3.76-0.07,31.97,1.29,33.5,1.98  C35.55,902.44,35.92,903.55,36.24,904.49z" />
<path class="cls-16" d="M1199.98,1033.6v62.1l-38.66,5.71c-0.45-2.65-0.11-5.68,1.04-9.07l0.02-2.24c-0.17-3.96,0.59-7.63,2.28-11.01  c0.01-0.78,0.1-1.58,0.07-2.36c0.1-3.66,0.82-7.06,2.16-10.22c-0.16-1.25,0.29-2.58,0.25-3.84c0.23-3.61,0.94-6.97,2.15-10.1  c-0.16-1.13,0.27-2.35,0.18-3.49c-0.01-3.92,0.74-7.59,2.24-11c-0.06-1.39,0.12-2.93,0.39-4.29l1.34-2.35  c8.27-0.05,16.55-0.11,24.83-0.16L1199.98,1033.6z" />
<path class="cls-13" d="M30.56,851.04l5.67,53.45L0,902.34v-53.91C9.18,844.91,22.11,846.01,30.56,851.04z" />
<path class="cls-8" d="M1199.98,956.22v77.38l-27.88,0.18c1.22-12.27,3.15-24.45,5.79-36.52c0.03-0.38-0.01-0.81,0.09-1.17  l6.11-35.34l1.83-3.33C1187.09,953.5,1198.72,951.81,1199.98,956.22z" />
<polygon class="cls-7" points="0,1.17 0,0 1199.98,0 1199.98,46.88 1198.81,46.94 1198.66,1.16 " />
<path class="cls-11" d="M40.8,530.99c2.3,13,4.26,25.91,6.01,39.89c-7.5-11.67-13.73-23.2-21.96-34.4l1.98,28.53  c-5.14-4.53-8.38-9.95-14.72-14.11l7.06,17.67L0,561.33v-31.64L40.8,530.99z" />
<path class="cls-1" d="M238.95,1162.39c0.85,0.33,2.08,1.02,1.91,1.57c-2.67,8.83-7.67,22.12-11.58,30.4  c-0.58,3.39-2.13,5.27-4.66,5.64h-27.89c0.09-12.2,7.45-23.64,9.49-35.03l1.52-2.47c9.77-0.77,19.54-1.54,29.31-2.31L238.95,1162.39  z" />
<path class="cls-18" d="M1006.68,1162.64l13.18,37.36h-21.31c-1.04-1.04-2.05-2.11-2.92-3.27c-4.07-5.38-13.49-27.64-14.45-34.26  c-0.21-1.45-0.26-2.92-0.26-4.4l2.78-1.91c6.84,1.8,13.76,3.17,20.73,4.09L1006.68,1162.64z" />
<path class="cls-1" d="M45.24,1181.02c0.57,6.32,1.27,12.64,1.49,18.98H0v-15.23L45.24,1181.02z" />
<path class="cls-18" d="M26.96,822.74c3.37,8.8,2.61,18.85,3.61,28.3c-10.1-1.51-20.35-2.38-30.56-2.6V825L26.96,822.74z" />
<path class="cls-18" d="M1199.98,780.51v17.43l-35.18,3.58c-2.62-2.24-0.75-18.03,0.52-19.92c0.73-1.09,1.68-1.86,2.94-2.28  L1199.98,780.51z" />
<path class="cls-4" d="M277.87,477.89c-52.27-1.87-104.09-12.99-157.31-13.24L0,464.06v-2.34l116,0.75  C170.9,462.82,224.68,471.88,277.87,477.89z" />
<path class="cls-1" d="M147.81,1170.47l-2.13,29.53h-13.08c-0.86-9.32,0.86-18.64,1.19-27.92  C136.87,1168.55,144.06,1167.6,147.81,1170.47z" />
<path class="cls-9" d="M1199.98,924.81v31.41c-4.73-0.71-9.36,0.67-14.06,1.2l-1.26-0.55c1.13-5.21,1.54-10.16,1.22-14.87  c1.46-5.56,3.07-10.96,4.81-16.2C1193.76,925.24,1196.85,924.74,1199.98,924.81z" />
<path class="cls-18" d="M1196.46,1200h-52.7l0.03-2.11c-0.24-2.57,0.28-6.91,2.35-8.53C1162.85,1193.38,1180.11,1195.12,1196.46,1200z" />
<path class="cls-18" d="M1085.15,1177.48l1.51,22.52h-10.36c-1.56-8.02-2.13-16.64-3.51-24.65  C1075.54,1173.05,1083.21,1174.52,1085.15,1177.48z" />
<polygon class="cls-3" points="1199.98,696.09 1198.81,696.23 1199.98,590.62 " />
<path class="cls-21" d="M739.27,138.53c6.96,6.81,17.75,8.88,26.76,13.49c0.21-3.37-1.96-4.59-1.36-6.31  c18.31,9.5,30.92,22.9,40.52,39.52c1.42,1.79,0.64,2.29-1.18,0.77c-7.26,2.65-14.84,3.8-22.72,3.45l-1.75-2.26  c-6.21-3.5-12.16-7.46-17.87-11.87l-0.07-3.02l-5.85-1.71l-20.47-15.38l-49.62-7.31l-1.03-2.53l25.45-7.1  C720.83,135.28,729.5,138.34,739.27,138.53z" />
<path class="cls-1" d="M684.63,145.38l51.65,7.78c9.06,6.38,17.25,12.64,25.32,19.15l-3.06,2.27c-10.38-0.02-20.25,3.22-29.44,7.91  l-3.81-0.65c-0.39,0.86-0.99,2.13-1.72,2.1c-7.86-0.35-19.17-2.7-25.96-6.59c-1.09,2.8-6.81,3.55-8.57,0.86l-4.43,2.9  c-12.52,2.04-24.82,5-36.91,8.88l-8.74,13.69l-2.84,0.04l-1.69,3.57c-18.79,11.05-30.07,30.43-40.55,48.88l-3.64,1.68  c-2.46,2.06-5.39,7.72-4.16,1.3c8.11-16.43,11.58-36.06,25.6-49.21l0.98-4.14c16.09-14.94,6.23-7.42-4.01,1.06l-3.77,0.16  l-50.29,43.54c10.67-15.75,23.37-30.58,35.01-45.34L684.63,145.38z" />
<path class="cls-9" d="M561.65,369.47l-2.49,4.83c-16.28,18.1-32.32,36.45-48.13,55.03l-8.36,6.66c0.52,3.03-3.66,8.63-6.92,7.28  l-2.69,5.94c-9.63,10.43-18.9,21.12-27.83,32.06l-3.03,1.54l-6.14,12.71c-12.03,16.97-24.04,33.9-36.03,50.8l-2.73-0.21  c-0.9-0.17-2.23-0.52-2.28-1.18c-0.37-5.61,0.65-20.5,1.61-26.09c0.45-2.64,1.22-6.98,2.83-7.83c3.56-10.51,11.76-19.04,16.14-29.17  c-2.77-1.44-2.65-1.96,0.45-2.46l25.31-37.2l0.08-4.31c8.24-14.3,29.19-44.24,42.68-52.57c2.9-1.79,5.48-2.75,8.91-3.22l57.69-34.15  l12.81-6.45l-0.45,4.67c-2.65,4.62-15.18,21.71-18.86,22.89C563.4,369.29,562.53,369.4,561.65,369.47z" />
<path class="cls-5" d="M677.53,198.02c7.81,7.91,14.84,19.72,17.49,30.54c0.77,0.55,1.91,1.37,1.74,2.07  c-0.66,2.7-6.64,19.06-8.05,19.75c-0.49,0.24-1.1,0.25-1.73,0.19l1.36,2.94c-3.85,7.18-7.1,14.59-9.73,22.23l-2.71,1.68l-0.01,3.9  c-6.32,9.9-11.37,20.46-15.15,31.66l-3.36,2.15c0.77,1.45,0.09,1.76-2.06,0.91c-13.45-9.52-19.19-31.14-24.61-46.62l2.11-7.16  c12.69-18.88,23.48-38.93,34.22-58.96l5.47-5.21c-1.32-3.06,0.32-3.81,2.53-1.3C677.13,194.25,677.95,194.83,677.53,198.02z" />
<path class="cls-5" d="M629.38,347.02l8.99,1.23l0.22,1.86c3.05,2.03,5.63,4.59,6.88,8.16l9.12,45.4l-2.03,1.81l-1.52,1.95  c-14.2-4.92-28.39-9.84-42.59-14.77L607.9,390c-1.11,0.25-2.22,0.44-3.34,0.47c-5.5,0.14-37.19-14.12-40.96-18.3  c-0.74-0.82-1.36-1.75-1.95-2.71c8.11-8.36,15.25-18.74,21.88-28C593.28,336.56,613.96,347.51,629.38,347.02z" />
<path class="cls-19" d="M706.5,355.08c0.91,0.08,2.27,0.31,2.38,0.96c0.66,4.22,0.78,13.44,0.58,17.91c0.92,4,0.23,6.61-2.09,7.81  c-5.14,1.41-10.81,1.52-17.02,0.33l-14.97,0.48l-3.98-1.81c-3.32-0.86-4.98-1.29-4.98-1.29c-9.65-9.62-18.93-19.41-27.83-29.37  c-2.84-1.76-6.76-0.65-9.2-3.09l66.72-2.13C700.63,342.36,710.4,349.51,706.5,355.08z" />
<path class="cls-18" d="M633.66,221.54l1.6,3.11c-1.31,9.66-1.97,19.4-1.98,29.22c0,0-0.93,1.28-2.8,3.83l-40.25,0.14  c11.71-20.74,24.54-43.4,45.89-54.13c2.66-1.28,3.02-0.71,4,1.55C641.58,208.58,636.18,218.61,633.66,221.54z" />
<path class="cls-1" d="M657.37,315.12l1.53-2.08l65.53,13.49l6.63,3.76c0.39-1.01,0.8-1.01,1.23-0.03c3.88-0.5,4.47,2.62,1.36,4.93  l-1.51,3.59c-8.91,3.85-16.46,9.17-22.64,15.95l-2.98,0.35c-0.19-5.87-6.33-7.3-10.4-10.18l-40.8-28.86  C655.76,315.74,656.75,315,657.37,315.12z" />
<path class="cls-12" d="M672.49,198.1c-13.04,24.15-26.04,49.15-41.79,71.32c-1.05-3-0.68-8.6-0.22-11.72  c1.77-12.04-0.27-24.6,3.18-36.15l1.97-3.6c6.72-4.96,25.87-18.43,32.67-20.49C669.68,197.03,671.17,197.59,672.49,198.1z" />
<path class="cls-24" d="M725.29,181.83l3.4-0.42c3.54,2.52,7.07,4.88,10.57,7.09c1.96-0.02,3.22,1.63,3.79,4.95  c7.12,0.45,9.4,2.36,6.82,5.73c1.4,1.86,0.85,2.65-0.93,3.69l20.44,1.08l1.57,2.43c8.36-1.34,18.96,9.08,24.55,15.23l0.01,2.98  l-4.48,2.5c-13.79,1.23-27.49,3.18-41.11,5.83l-18.69,0.21c-6.06-0.76-13.86-0.01-19.32,3.48c-4.77,3.04-3.37,11.53-5.29,16.7  c-2.56,6.88,5.25,18.43,12.49,21.58c12.57,5.48,27.92,3.01,39.22,10.3c12,10.78,20.88,26.61,31.33,39.17l2.44,22.41  c1.21,11.16,3.4,22.92,2.44,34.1l2.24,1.26l-5.13,59.51c-0.64,4.44-2.44,7.58-5.4,9.43c-6.96,6.31-6.67,18.38-11.43,25.82  c-6.95,10.89-10.07,23.81-16.28,35.05c-8.2,14.85-11.08,32.06-13.23,49.3c0.49,0.85,0.94,1.72,1.24,2.63  c1.01,3.06-1.1,21.87-1.92,26.74c-0.31,1.82-1.39,3.38-2.49,4.82c3.95-0.12,0.36,13.87-0.23,14.39c-1.79,1.57-2.99,0.92-4.94-0.18  c-0.66-0.38-3.1-13.99,0.09-14.21l-2.6-1.7c0,0-0.79-11.58-2.38-34.75l-2.07-1.76l3.67-20.78c-8.28,18.41-12.42,27.61-12.42,27.61  l-3.92,3.97c-2.63,8.59-4.53,17.38-5.7,26.37l-2.71,0.94l0.93,5.04c-4.52,20.47-9.86,40.72-16.03,60.73  c-4.32,6.3-5.91,5.86-5.82-1.91l2.5-41.96c0.62-5.18,2.04-10.19,4.26-15l-1.84-3.46c0.23-13.45,2.58-26.32,7.05-38.63  c-0.03-5.41-0.05-8.11-0.05-8.11c10.49-31.99,23.17-63.28,35.84-94.46c0.48-1.19,1.27-2.27,2.09-3.35c0.84-1.1,1.8-2.11,2.8-3.09  l-0.29-3.65c7.96-8.94,15.23-18.36,21.81-28.26l4.36-77.99l-31.75-41.37l-1.3-5.53c-1.02-0.27-1.04-0.71-0.1-1.29l3.62-0.81  c7.02,3.16,13.8,6.77,20.34,10.83c-3.17-4.97-7.13-8.49-11.87-10.56c-6.06-0.46-11.67-1.76-16.81-3.92  c-0.47,3.72-12.26,0.2-13.6-0.92c-8.93-11.18-17.99-22.21-27.21-33.09l-0.88-4.02l8.04-22l-0.41-2.54l30.86-20.3l-0.25-1.73  l-5.62-2.16c-7.46-7.2-14.92-14.4-22.4-21.62l0.41-2.86L725.29,181.83z" />
<path class="cls-24" d="M968.12,345.85c-7.16,1.63-15.46,1.82-22.62,0C952.37,343.65,961.26,343.63,968.12,345.85z" />
<path class="cls-24" d="M1050.18,345.82c-5.56,1.8-12.4,1.8-17.97,0C1037.51,343.65,1044.86,343.66,1050.18,345.82z" />
<path class="cls-24" d="M984.56,345.8c-2.6,0-5.97,2.75-8.59,0.03C978.03,343.68,982.44,343.76,984.56,345.8z" />
<path class="cls-13" d="M611.68,209.93c-2.23-1.09-4.32-2.54-6.8-2.92c7.82-6.77,16.09-13.75,26.72-18.41  C625.58,196.85,618.59,203.46,611.68,209.93z" />
<path class="cls-22" d="M513.04,382.08c-22.28,13.19-37.18,38.79-51.67,60.09l-196.78-0.64l145.88-25.78  c-1.86-1.89-3.97-0.5-6.27-1.15c-16.75-2.18-33.36-5.28-49.81-9.3l-81.49-15.78c-11.15-1.39-21.31-4.63-30.49-9.72  C332.6,382.89,423.35,378.21,513.04,382.08z" />
<path class="cls-20" d="M189.93,378.65c16.95,1.79,35.16,0.54,52.47,1.14c52.47,14.14,108.71,19.9,161.8,34.81L6.71,414.66  L189.93,378.65z" />
<path class="cls-1" d="M302.34,479.3l1.17,1.17l132.55-1.09c-0.26,0.77-0.12,1.71-0.45,2.46l-135.36-0.3l-13.14-2.23  C291.7,475.97,297.12,480.8,302.34,479.3z" />
<path class="cls-6" d="M882.48,206.26c28.44,7.74,57.13,14.98,83.96,27.2c-5.19,0.5-10.46,1-15.66,0.39  c-54.05-7.86-108.11-15.99-162.06-24.58c-5.22-0.83-10.23-2.63-15.18-4.43c-0.39-0.84-0.86-2.15-0.33-2.55  c8.53-6.41,20.64-13.36,30.81-16.28l1.18-0.77L882.48,206.26z" />
<path class="cls-18" d="M794.63,563.31l18.73-1.75c39.76-0.15,79.46,0.41,119.1,1.69l6.24,1.74c0.94-0.1,2.36-0.22,2.67,0.42  c1.41,2.96,10.77,25.89,10.41,27.31c-0.25,1-0.7,1.82-1.59,2.41l-0.81,2.34c-137.2,0.21-205.8,0.31-205.8,0.31l-1.44-2.34  c0.16-11.52,1.75-22.81,3.17-34.19L794.63,563.31z" />
<path class="cls-11" d="M987.3,551.68c3.75,1.22,4.96,11.66,0.81,12.86c-0.24,0.92-0.63,2.3-1.35,2.36  c-8.61,0.69-23.26,1.02-31.69,0.29c-3.37,0.71-5.67-0.05-6.9-2.28c-0.44,3.73-7,1.15-9.48,0.09c-48.07-1.53-96.43,0.3-144.07-1.68  c11.36-1.19,21.75-8.55,34.03-8.78L987.3,551.68z" />
<path class="cls-6" d="M997.41,546.09l0.58,1.17c-0.19,1.25,0.3,2.52,0.24,3.76c3.3,3.17,3.54,9.54,0.26,12.79  c-0.76,9.56-0.3,19.37,1.36,29.42l-2.17,1.88c3.12,4.81,4.46,10.71,4.01,17.7c0.21,6.34,0.04,14.45-2.19,20  c-0.49,1.57-2.01,2.34-3.6,2.42c-0.74,0.01-1.31,0-1.33-0.12c-1.79-9.95-4.1-28.6-3.56-38.39l2.25-1.53l-2.43-1.61  c1.1-9.62-0.09-18.43-3.58-26.41l0.86-2.65c0.57-4.31-0.56-8.59-0.81-12.86l-1.14-19.64c-0.2-3.45,1.63-5.87,4.69-5.98  c2.11-0.08,5.36,1.16,5.55,4.03L997.41,546.09z" />
<path class="cls-4" d="M1019.82,550.82c-0.23,4.42-0.8,9.49-1.52,13.84c-1.67,10.15-2.6,20.37-3.35,30.63l2.09,2.9  c-1.43,8.29-2.22,16.61-2.39,24.97l-2.12,2.79c-3.2,2.11-6.31,5.17-10.57,5.79c-1.17-11.77-1.63-26.18,4.56-36.5  c-0.48-0.78-0.91-1.58-1.2-2.43c-0.95-2.79,2.13-19.58,3.23-23.93l2.82-4.09c-3.54-2.31-1.72-12.85,2.39-13.83  c2.01-8.13,4.38-16.17,7.78-25.22C1022.18,534.52,1020.26,542.49,1019.82,550.82z" />
<path class="cls-11" d="M1013.76,550.99c-1.01,4.08-1.98,9.58-2.39,13.83c-1.13,3.68-13.28,3.56-12.88-1  c-0.19-4.26-0.46-8.52-0.26-12.79L1013.76,550.99z" />
<path class="cls-5" d="M419.47,511.01l-2.17,35.1c2.94,2.34,2.2,4.51-1.51,4.73l-2.69,12.73c-13.41,37.59-27.64,74.85-42.68,111.78  c0,0-1.9,2.23-5.69,6.7l-2.09-1.51c5.53-28.19,11.06-56.4,16.59-84.62l2.72-1.67l-1.68-3.65c1.85-13.5,5.47-26.44,10.85-38.84  l3.62-1.79c7.09-12.31,16.44-23.61,22.4-37.34c-1.04-0.96-2.6-0.51-3.48-0.68C415.32,510.66,417.47,510.76,419.47,511.01z" />
<path class="cls-22" d="M998.52,380.92l-129.14,33.59c-2.26,0-4.91-0.18-6.91,0.98l113.21,36.81l-189.43-1.2  c-0.53-3.08,2.79-6.4,3.08-9.73l5.21-60.48L998.52,380.92z" />
<path class="cls-10" d="M692.47,1104.66l10.71-0.34c23.52,4.5,47.01,9,70.45,13.49l0.94,2.57c0.32,0.92,0.53,1.67,0.33,1.79  c-3.15,2.02-4.25-1.11,3.12-0.56l89.2,14.91l1.01,2.54c1.62,3.49-4.14,11.42-7.99,10.69l-262.59,42.44l-113.78-32.32l0.18-2.48  c46.99-12.67,93.99-25.34,140.99-38.02l2,1.89l8.67-4.62c18.29-4.64,36.56-9.28,54.8-13.91L692.47,1104.66z" />
<path class="cls-24" d="M664.44,1083.98c0.44,1.17,0.3,2.19-0.83,2.63c-75.34,19.16-150.76,38.34-226.26,57.54l-7.44-0.53l-9.29-0.99  l-11.53-0.96c-21.36-6.31-42.68-12.6-63.97-18.89l-0.69-2.65c-0.13-0.9-0.1-2.32,0.46-2.43c10.91-2.22,26.71-4.59,37.72-5.33  c3.89-0.26,7.02-0.11,10.94,0.82c1.42-5.71,11.53,3.19,10.86,2.91c-1.65-0.7-3.93-2.35-2.29-3.74l0.55-2.42  c72.89-8.39,145.87-16.77,218.92-25.15c2.62-0.05,4.79,0.49,6.52,1.6l3.78-2.8c5.32-1.09,27.34-3.32,30.63-1.26  C663.22,1082.8,663.84,1083.37,664.44,1083.98z" />
<path class="cls-9" d="M671.32,1082.68c0.53,0.76,1.2,2.02,0.73,2.48c-9.73,9.4-22.66,20.71-33.31,29.03  c-3.79,2.96-7.14,5.2-11.68,7.07l-143.17,38.61c-18.07-5.13-36.58-9.43-53.97-16.24l234.53-59.65  C663.37,1080.61,670.09,1079.51,671.32,1082.68z" />
<path class="cls-5" d="M344.43,1120.15l76.19,22.49l-146.17,16.02c-0.27-1.41-0.49-2.83-0.54-4.25c-0.36-9.57,7.47-32.33,11.09-42.68  c0.44-1.26,1.19-2.42,1.99-3.57c0.81-1.18,1.77-2.26,2.77-3.31c0.24-0.88,0.84-2.17,1.39-2.04c14.13,3.25,34.46,8.34,47.73,13.35  C342.5,1116.42,344.35,1117.75,344.43,1120.15z" />
<path class="cls-2" d="M773.53,204.83c64.63,8.5,128.93,20.91,192.91,28.62c1.61,0.73,4.15-0.1,5.31,2.12  c-39.14,7.59-80.85-2.32-119.81-3.54c-12.92,0.24-25.75-1.06-38.5-3.88c-6.75,0.1-12.72-1.09-17.92-3.55  c-7.99-5.98-14.93-15.83-24.56-18.21C768.63,203.08,771.57,201.22,773.53,204.83z" />
<path class="cls-19" d="M795.53,224.6c18.8-0.29,38.04,5.28,56.41,7.43c-40.26,6.54-80.36,6.18-120.7,1.11  C752.58,231.27,774.03,224.93,795.53,224.6z" />
<path class="cls-16" d="M941.86,1137.71l-4.16,2.53c-10.63,1.6-21.28,2.75-31.95,3.44l-13.9,1.01c0.65-3.82,2.96-6.89,6.93-9.22  l31.84-23.65c2.46-1.97,3.81-0.99,5.79,0.73c0.9,0.79,6.64,20.32,7.19,22.85L941.86,1137.71z" />
<path class="cls-13" d="M941.86,1137.71c3.59-0.92,6.05,11.25,2.78,12.98l-38.89-7C917.19,1140.33,929.69,1138.03,941.86,1137.71z" />
<path class="cls-17" d="M942.15,1073.67l4.06,4.17c7.92,17.16,15.71,34.28,23.39,51.36l-0.3,3.1c1.4-0.05,2.39,0.25,2.97,0.89  l10.09,22.4l-1.45,2.48c6.22,13.79,12.32,27.86,17.64,41.94h-37.56c-5.19-16.52-9.3-33.6-16.34-49.31l-2.78-12.98l-8.01-25.44  c-14.6,11.44-29.64,20.56-42.01,32.43l-57.58,40.43l25.98-35.38c2.41-3.28,5.39-7.59,7.99-10.69c1.38-3.43,2.88-6.87,5.12-9.84  c9.78-12.99,19.81-26.03,29.88-38.79c2.32-2.93,5.31-5.23,8.31-7.43c-1.36-7.49,11.62-11.77,18.1-12.48  C933.66,1070.08,940.92,1069.35,942.15,1073.67z" />
<path class="cls-11" d="M177.01,542.5l4.14,1.74c2.54,3.75,5.5,6.92,8.87,9.52l-0.1-9.3c1.01-1.98,3.53-1.29,5.43-0.36l7.94,19.19  l7.63-16.84c1.93-0.97,3.37,0.15,4.41,2.01l-0.36,15.08l7.7-8.52c2.43-1.51,4.02-1.79,5.03,0.95c0.79,2.14-2.86,17.45-6.12,18.33  c3.44,2.27,0.24,8.2-3.61,7.3c-6.86-2.36-14.82-6.21-22.43-6.49l-75.3-2.78c0.08-5.48,2.62-10.35,1.39-16  c-4.26,3.85-5.81,8.76-8.99,13.86l-6.85-22.41l-8.7,24.02l-29.19-0.31c0.4-13.51,2.78-26.49,2.39-39.28  c5.69-0.64,11.63,2.22,17.5,0.04c1.48-3.2,1.22-6.4,2.47-4.05c0.26,0.49-0.48,4.32,0.13,4.36l57.65,3.18c3.7,0.2,5.95,5.4,9.49,4.93  c2.81-0.37,3.92-4.43,7.38-5.35C168.37,534.36,174.73,539.23,177.01,542.5z" />
<path class="cls-18" d="M394.74,549.97c-7.5,13.03-9.87,29.38-12.8,44.28c-1.24,4.35-11.92,4.37-13.91,0.85l-8.21-1.7l-24.49-13.1  c0,0-8.57-0.16-25.72-0.49l-4.8-2.12l-2.07-1.73c3.54-16,2.74-16.89-2.41-2.67c-2.32,3.25-3.76,4.86-5.45,1.21  c-1.73-3.74,0.43-21.97,1.84-26.75l2.89-2.84c3.98,4.33,8.81-0.56,12.12,0.08C338.55,550.16,367.47,547.34,394.74,549.97z" />
<path class="cls-18" d="M270.97,545c0.85,0.75,1.66,1.52,2.34,2.4c4.19,5.4,6.93,22.14,5.4,29.16l-1.17,2.3  c-18.22-0.73-36.44-1.46-54.68-2.18l-1.3-2.4c0.57-6.34,3.34-11.94,4.38-19.04c-5.62,4.55-8.91,10.36-13.52,15.81l0.58-24  l-9.93,22.47l-10.53-26.1c-1.58,5.62,0.62,10.11-0.34,15.62c-6.48-4.89-11.01-10.56-15.2-16.54L270.97,545z" />
<path class="cls-11" d="M299.63,544.92c-1.76,9.7-3.36,19.51-2.9,30.66c4.54-9.75,7.95-19.27,13.6-28.53l-5.5,30.65l1.92,2.38  l-2.28,13.06l-2.32,1.9l-21.93,0c-3.35-4.43-3.99-13.52-1.5-18.47c-2.22-10.61-4.59-21.22-7.75-31.56  c-0.41-1.34-0.04-4.44-0.03-6.29c0.01-1.29,3.51-0.98,4.59,0.61c0.71,1.04,1.28,2.58,2.08,4.42l1.25,1.27  c0.12,0.31,0.06,0.68,0.15,1l3.26,2.5l5.48,13.81l2.53-14.69l2.69-1.33c1.87-7.76,4.09-15.25,8.06-22.5  C300.08,531.46,300.81,538.44,299.63,544.92z" />
<path class="cls-11" d="M64.51,532.08c-1.62,8.75-2.22,17.61-6.46,27.35c-3.04-9.65-8.42-18.05-10.13-27.46L64.51,532.08z" />
<path class="cls-18" d="M292.97,546.3c-1.71,7.09-1.26,14.66-5.18,22.46c-3.01-7.85-6.51-15.1-8.78-22.75  C283.65,545.47,288.33,545.83,292.97,546.3z" />
<path class="cls-1" d="M1060.31,659.69c1.44-0.09,2.04,0.29,2.44,1.57c1.32,4.35,1.93,27.33,1.87,33.17l-2.24,1.84  c-0.1,0.94-0.47,2.34-1.13,2.34c-113.89,0.38-231.81-0.73-345.59-2.11l-0.82-1.57c0.05-3.54,1.26-3.97,3.55-1.28  c10.87-3.01,21.94-5.11,33.2-6.3c66.95-13.93,134.23-18.82,200.82-22.66l1.58,2.23L1060.31,659.69z" />
<path class="cls-7" d="M970.54,640.97c3.15-1.48,11.11-2.5,12.63,1.22l-29.19,24.72l-110.49,8.17  c-42.73,3.16-83.59,15.87-125.1,18.56l-0.22-2.47l134.28-59.98l99.14,6.45l-16.22-27.91c0.51-2.89,0.81-4.36,3.82-3.54  C945.35,607.88,966.11,634.08,970.54,640.97z" />
<path class="cls-2" d="M1094.62,696.32c0.28,26.55,4.5,52.96,3.17,79.45c1.78,3.41-7.16,11.17-10.48,9.36  c0.49,3.57-8.3,3.54-9.02,0.13c-0.56,0.77-1.54,1.61-2.13,1.23c-2.75-1.81-10.06-7.95-8.5-11.02c-3.34-1.17-3.2-5.56,0.04-6.76  l1.08-16.6c6.57-31.37,13.13-62.65,19.66-93.83l2.59-0.92l1.15,0.02C1091.55,670.37,1094.48,683.34,1094.62,696.32z" />
<path class="cls-6" d="M1078.18,642.14c5.49,1.71,14.25,8.55,12.86,15.21l-23.34,111.35l-2.42-0.91  c-1.72-23.31-3.43-46.63-5.15-69.96l2.23-1.57l-2.06-36.57c-0.46-8.08,5.2-13.8,11.96-17.45  C1073.36,639.31,1077.64,638.46,1078.18,642.14z" />
<path class="cls-4" d="M986.55,595.45c2.63,1.04,3.94,4.11,3.93,9.21c1.49,7.49,4.41,23.09,4.07,30.27c-0.04,0.95-0.21,1.65-0.96,2.3  c-2.45,2.45-5.47,4.85-9.05,4.76c-4.47-14.84-7.91-31.42-7.12-46.78c-0.94-0.05-2.34-0.13-2.58-0.81  c-0.61-1.77-4.4-17.52-4.01-18.38c0.99-2.53,1.73-3.94,4.34-2.79c1.79,0.79,10.97,16.02,12.12,18.95L986.55,595.45z" />
<path class="cls-23" d="M977.42,595.23c3.35,15.35,5.75,31.06,7.12,46.78c-0.45-0.01-0.94,0.27-1.37,0.19l-3.09-2.08  c-6.96-13.76-13.8-27.57-20.52-41.43l1.46-3.42C964.59,592.06,973.71,592.28,977.42,595.23z" />
<path class="cls-23" d="M1028.89,595.38c0.79,0.52,1.94,1.27,1.81,2c-0.55,3.25-3.15,10.38-4.47,13.71c-0.75,4.16-2.63,7.41-5.65,9.75  c-2.01,1.57-5.83,3.64-8.05,5.11c-1.18-10.22,1.67-20.47,2.41-30.67C1019.57,595.87,1024.24,595.59,1028.89,595.38z" />
<path class="cls-4" d="M1037.05,595.24c1.52,1.65,1.68,3.95,0.46,6.9c0.25,4.58-0.96,8.18-3.64,10.8c-4.23,2.29-8.57,6.76-13.29,7.91  l8.3-25.47l10.03-22.55L1037.05,595.24z" />
<path class="cls-23" d="M1061.64,596.29c-9.11,5.82-18.29,11.53-27.77,16.65c1.13-5.9,0.6-12.26,3.17-17.7L1061.64,596.29z" />
<path class="cls-23" d="M993.26,595.21l2.65,40.03c-0.41,1.03-1.62,1.3-2.31,2l-7.04-41.79C987.88,592.47,991.71,592.35,993.26,595.21z  " />
<path class="cls-23" d="M1006.52,595.26c-1.84,12.11-3.7,24.3-4.56,36.5c-0.8,0.12-1.51,1.22-2.46,1.06  c1.12-12.49-0.57-25.18-1.82-37.7C999.56,592.15,1004.8,592.15,1006.52,595.26z" />
<path class="cls-11" d="M1078.18,642.14c-1.72-0.54-4.12,0.92-5.91,0.1c0-9.78-4.99-20.22,0.02-31.33  C1077.08,620.88,1076.52,632.05,1078.18,642.14z" />
<path class="cls-11" d="M1168.25,779.32c-1.93,7.34-2,14.85-3.45,22.2c-5.22,26.37-8.08,53.23-11.82,79.87l-6.9,49.13  c0.87,1.57,1.7,3.27,1.68,5.1c-0.11,8.02-1.73,20.34-6.26,26.5l1.13,6.83c-2.64,20.53-4.78,41.07-6.43,61.62l-1.75,3.19  c1.3,4.15,1.95,6.23,1.95,6.23c-1.55,23.29-3.41,46.55-5.6,69.77l-18.58,82.03c-0.72-39.64,1.31-79.15-3.25-119.29  c-1.32-11.62-5.69-21.94-5.53-33.24c-1.51-1.42-1.47-3.48,0.14-6.16l4.48-65.22l2.43-1.24l-2.06-3.05  c0.13-6.64,4.57-21.49,7.49-27.65l3.19-1.8l-0.76-4.77c3.61-14.51,7.48-28.82,11.63-42.91l2.1-1.58l-0.3-4.31  c6.86-24.78,13.96-49.5,21.31-74.17l2.39-3.63c-0.48-0.48-0.92-0.99-1.25-1.56c-0.78-1.35,4.15-17.18,5.37-20.06l2.74-1.95  c1.23-8.23,3.93-17.08,8.66-25.27C1169.59,762.69,1170.24,771.75,1168.25,779.32z" />
<path class="cls-18" d="M1162.34,779.2c-1.23,8.2-5.2,15.73-6.86,23.57l-1.47,2.54c-21.16,2.52-42.32,5.03-63.49,7.55l-1.67-2.16  c-0.91-0.06-2.26-0.23-2.4-0.89c-0.51-2.4-1.73-20.82-1.38-22.89l2.24-1.8l10.48-9.36L1162.34,779.2z" />
<path class="cls-3" d="M122.04,626.93l6.09,1.27l20.51,13.71l2.18,3.87l2.14,1.61c-0.87,6.28-1.75,12.57-2.62,18.86l-2.55,1.29  l-0.72,2.61c-9.57,4.02-10.7,16.48-11.32,25.59l-2.38,1.17l-14.04-0.82L3.38,613.21l108.87,7.86  C115.82,622.76,119.25,625.11,122.04,626.93z" />
<path class="cls-2" d="M159.58,696.9l1.53,4.05l-3.27,29.21l-2.79,3.38l2.21,1.11l-8.14,56.8c-1.81,4.64-7.09,11.56-12.33,10.23  c-0.67,3.46-6.29,2.33-6.44-1.02c-4.7,1.22-8.58-7.59-9.26-11.88c-0.33-2.11,3.02-35.12,3.72-36.83l2.8-4.22  c1.77-16.93,5.39-33.79,5.76-50.82c0.21-9.76,2.45-26.89,14.42-29.36c0.74-1.91,2.93-2.93,6.58-3.07c3.41,1.63,5.55,5.19,6.4,10.66  C162.61,681.19,165.47,693.37,159.58,696.9z" />
<path class="cls-23" d="M130.35,800.65c3.11,3.46,1.19,12.69-2.57,15.22c-5.77,4.25-17.12,4.86-23.74,2.21  c-0.19,0.59-0.4,1.16-0.71,1.67c-0.61,1-13.36,1.4-15.63,1.17l-2.15-1.9l-2.51-0.61c-3.82-19.32-7.64-38.65-11.47-57.98l2.03-1.83  c19.75-0.81,40.2,0.27,54-10.87l-4.16,39.79C122.92,792.6,127.91,797.21,130.35,800.65z" />
<path class="cls-6" d="M73.61,758.59l11.95,60.42c0.94,0.11,2.29,0.28,2.51,1c1.39,4.55,4.09,24.07,4.12,28.94l-2.08,2l-2.58-0.11  c-10.96-26.48-21.93-53.01-32.92-79.57l-0.96-8.45l0.49-2.21c8.06-2.8-1.66-26.77-0.14-35.4C67.12,731.6,58.45,759.21,73.61,758.59z  " />
<path class="cls-24" d="M1079.99,811.91c0.78,1.98,1.5,3.98,2.06,6.03c0.55,2.03,1.06,4.05,1.24,6.1c1.97,22.25,3.84,45.94,0.7,67.86  c-0.01,1.06-0.35,2.41-1.26,2.54c-6.14-0.11-11,0.71-16.27,3.23l-16.8-64.13l7.71,65.36c-13.27,0.92-26.51,2.58-39.71,4.96  l-1.61-2.44l-2.32-3.96l-0.59-2.93c5.3-8.71,5.26-18.62-0.11-29.73l1.77-2.33c-5.97-12.74-10.46-26.07-13.45-39.99l1.89-1.95  l0.81-2.45c24.75-2.77,49.5-5.55,74.27-8.33L1079.99,811.91z" />
<path class="cls-6" d="M1087.3,785.13l1.55,25.57l2.4,0.96l4.32,75.86c-0.59,1.76-1.27,3.58-2.04,5.47c0.91-0.05,2.31,0.09,2.38,0.66  c1.24,10.3,1.99,24.72,1.93,35.09c1.01,4.1,0.37,6.68-1.92,7.76c0.92,0.21,2.31,0.56,2.39,1.26c0.91,7.71,1.4,20.63,1.09,28.39  l-2.28,1.78l2.4,0.97c1.04,20.66,2.08,41.33,3.12,62.01l-2.27,1.53c-7.1-19.55-10.91-40.4-14.15-60.96  c-0.17-10.32-0.69-20.69-1.55-31.12l2.38-1.92l-2.25-4.06c-1.14-13.58-1.91-27.05-2.32-40.4l1.49-2.08  c-0.7-26.62-1.74-53.37-4-79.98l-2.59-3.41l-1.02-19.47l1.91-3.78L1087.3,785.13z" />
<path class="cls-8" d="M1075.64,1037.96c-0.07,0.94-0.17,2.33-0.87,2.57c-3.82,1.29-12.51,2.85-16.71,3.37  c-3.82,1.58-6.53,1.33-8.14-0.75c-3.09-22.65-10.69-45.06-11.55-67.95l1.78-2.73c8.03-0.54,15.93-1.73,23.69-3.55l2.83,1.39  L1075.64,1037.96z" />
<path class="cls-16" d="M1075.64,1037.96c3.44,26.02,5.57,52.22,6.28,78.85c-5.57,0.73-11.24,1.64-17.02,2.75l-2.13-2.51  c-4.22-24.58-9.47-49.1-12.85-73.91L1075.64,1037.96z" />
<path class="cls-21" d="M1057.38,898.89l5.5,42.2c-0.02,0.92-0.15,2.29-0.81,2.44c-6.51,1.5-26.88,3.59-33.53,3.4l-1.93-2.16  c-3.77-14.37-8.2-28.7-10.55-43.35C1021.64,902.61,1057.7,892.43,1057.38,898.89z" />
<path class="cls-10" d="M1062.88,941.09c1.21,9.32,2.58,19.98,3.8,29.22c-8.74,3.91-18.92,2.84-28.31,4.89  c-0.14-3.63-3.98-8.64-2.93-13.72c-7.61-2.54-7.06-9.97-8.83-16.72L1062.88,941.09z" />
<path class="cls-13" d="M1081.92,1116.82c0.54,20.2,1.87,40.52,3.23,60.66c-4.22,0.32-8.43-0.59-12.36-2.13l-10.02-58.29  C1069.41,1118.34,1076.57,1112.02,1081.92,1116.82z" />
<path class="cls-21" d="M1084,891.89c0.4,15.34,3.76,31,3.08,46.54c-0.99,3.02-9.25,4.13-9.99,0.55c-3.49-11.64-6.98-23.42-9.34-35.46  c0.81-1.27,0.26-2.34-0.41-3.55c-0.53-0.6-0.56-1.6-0.87-2.3C1068.32,890.83,1077.66,893.05,1084,891.89z" />
<path class="cls-8" d="M1110.51,966.65l-4.6,66.78c-0.19,2.76-2.42,3.32-2.45,5.84c-2.89,0.4-2.94-4.32-3.06-6.84l-3.24-64.5  C1097.18,964.12,1109.12,963.27,1110.51,966.65z" />
<path class="cls-9" d="M1087.07,938.43c-0.49,11.15,3.93,23.34-0.84,33.05c-6.86-8.86-5.98-21.9-9.15-32.5  C1080.44,939.04,1083.72,937.89,1087.07,938.43z" />
<path class="cls-14" d="M90.13,965.55l11.78,84.54l-2.39,1.11c-5.39-1.99-11.2,0.74-16,3.19l-3.06-0.89  c-4.02-30.79-9.75-61-17.07-91.29c0.36-0.87,0.89-2.15,1.63-2.16c4.08-0.03,12.12,1.27,16.37,2.04  C86.02,961.83,88.93,962.98,90.13,965.55z" />
<path class="cls-13" d="M65.78,855.53c2.18,0.76,4.05,2.39,5.6,4.9c3.02,1.64,5.03,3.68,6.03,6.12l4.66,40.39  c-0.17,0.91-0.55,2.26-1.2,2.27c-6.04,0.13-20.35-0.53-25.99-1.67c-2.86,0.42-4.65-0.48-5.37-2.69l-13.19-54.15l2.32-1.91  l19.42,1.82C62.08,850.7,64.65,852.35,65.78,855.53z" />
<polygon class="cls-24" points="82.07,906.93 90.13,965.55 63.39,962.22 49.51,904.83 " />
<path class="cls-5" d="M101.95,1066.53c-0.03,0.26-0.08,0.79-0.03,1.05c3.82,12.59,4.98,25.9,3.46,39.95l-0.07,3.22  c-2.22,8.09-2.69,16.56-2.26,24.9c-0.13,1.44,0.05,2.94-0.1,4.38c-2.37,7.26-2.8,15-2.26,22.58c-0.07,0.67-0.1,1.37-0.08,2.05  c-0.91,3.7-2.3,4.96-4.17,3.76l-14.43-103.05c1.66-2.45,5.12-3.03,10.4-1.74C97.31,1062.99,100.49,1063.96,101.95,1066.53z" />
<path class="cls-18" d="M59.79,821.53c0.92-0.05,2.33,0,2.49,0.63c0.9,3.44,5.86,29.74,5.51,31.29c-0.22,0.95-1.16,1.57-2.01,2.08  c-8.79-4.67-19.71-2.52-29.46-4.84l-6.96-27.95C39.48,822.28,49.74,820.27,59.79,821.53z" />
<path class="cls-16" d="M101.91,1050.1c0.74,5.34,2.52,11.65,0.04,16.43l-19.94-1.17l-1.54-11.84  C85.91,1049.93,97.06,1045.49,101.91,1050.1z" />
<path class="cls-4" d="M100.61,1164.65c0.15,3.59-1.43,7.06-1.46,10.62c-3.71-0.29-2.34-4.26-2.71-6.86L100.61,1164.65z" />
<path class="cls-24" d="M969.39,824.86c1.14,1.46,2.24,2.95,3.19,4.53c0.95,1.57,1.87,3.12,2.44,4.79  c6.33,18.48,12.16,37.19,17.16,56.08c4.18,2.06,8.36,4.22,12.56,6.48l0.76,2.56l1.15,4.43l-0.72,2.48  c-24.03,3.73-48.06,7.46-72.11,11.19l-2.51-1.98l-25.42-42.55l14.01,43.51l-0.73,2.48c-23.07,3.41-46.2,6.76-69.37,10.07l-10.6-0.75  l-1.37,2.07c-76.94-19.5-153.89-39.01-230.85-58.52l-0.82-2.63l0.83-2.46c120.21-14.64,240.44-29.29,360.69-43.94L969.39,824.86z" />
<path class="cls-16" d="M839.2,928.18l10.85,0.57c26.91,7.32,53.75,14.71,80.51,22.18l2.4,3c2.56,7.35,5.2,15.4,7.87,22.64l-0.09,3.02  c3.05,9.45-2.36,11.38-16.22,5.79c-2.91,0.21-4.85-0.58-5.84-2.37l-5.85-0.45c-3.4-0.45-5.34-1.8-5.83-4.05l-27.62-5.02  c-84.6-22.82-169.14-45.63-253.63-68.42l-18.78-7.49c-2.21,2.23-3.17,1.69-3.39-1.3l-2.11-2.09l0.38-17.16  c-0.16-4.75,1.26-7.39,4.28-7.91L839.2,928.18z" />
<path class="cls-8" d="M966.85,1051.15c-1.81,2.62-4.93,3.78-9.38,3.5c-20.29-6.63-40.41-13.93-60.36-21.91l-1.17-2.95  c-3.05,0.13-2.85-2.11-1.76-4.38c-7.8,0.54-15.49-0.4-23.08-2.81c-4.4-0.49-6.97-2.27-7.7-5.33c-10.17-3.14-19.99-7.11-29.46-11.89  l-0.48-2.85l0.54-2.53c26.08-5.97,52.17-11.95,78.29-17.94l6.4,0.94c6.51-1.49,12.91,2.89,20.55,3.66  c1.12-3.35-1.07-7.85,1.59-10.11C949.94,1001.21,959.8,1025.88,966.85,1051.15z" />
<path class="cls-8" d="M1024.29,977.3c5.15,21.93,11.18,44.07,11.36,66.99l-0.56,2.26c-14.03,1.73-28.06,3.13-42.1,4.19l-1.58-1.95  c-9.49-20.98-17.96-42.67-25.59-64.35c-0.01-0.93,0.15-2.35,0.79-2.46c15.13-2.57,33.51-4.79,48.82-5.96  C1019.85,974.65,1022.81,975.08,1024.29,977.3z" />
<path class="cls-23" d="M1006.65,903.73c3.65,14.12,7.13,28.8,10.42,42.81l-0.8,2.45c-20.69,2.34-41.39,4.67-62.1,7.01l-1.64-2.17  c-9.84-10.84-13.87-26.12-21.21-38.4L1006.65,903.73z" />
<path class="cls-10" d="M966.85,1051.15c1.05,3.75,3.35,10.37,4.96,14.01c-3.04,3.93-7.68,6.35-13.94,7.25  c-5.86,2.64-11.1,3.06-15.71,1.25c-11.65-2.66-23.72-0.18-30.6,9.34c-4.79,3.98-11.62,6.36-17.63,4.04l-2.43-3.88  c-0.69-5.2-1.33-26.97,0.79-29.95c0.49-0.68,1.1-1.28,1.75-1.84c-3.02-5.49-1.61-16.43,1.91-21.57l58.33,22  C958.47,1053.38,963.06,1050.83,966.85,1051.15z" />
<path class="cls-16" d="M1035.68,1048.64l1.6,50.58l0.07,2.34c0.61,5.41,0.47,12.11,0.72,17.66c0.31,7.55-11.1,7.6-16.11,5.69  c-9.1-21.67-19.14-43.21-26.23-65.61c-0.23-0.88-0.38-2.28,0.16-2.47c9.89-3.35,23.45-6.82,33.69-9  C1032.45,1046.39,1034.49,1046.65,1035.68,1048.64z" />
<path class="cls-10" d="M1017.07,946.54l7.22,30.76l-58.48,7.14c-3.63-10.32-10.49-19.91-13.29-30.61L1017.07,946.54z" />
<path class="cls-16" d="M994.66,1129.3c0,0.91-0.1,2.29-0.74,2.45c-3.73,0.94-12.7,1.84-16.77,1.98c-3.75,1.22-6.36,0.74-7.84-1.43  c-8.8-19.54-19.94-38.43-27.15-58.63c9.96-1.65,20.31-4.84,29.66-8.5C980.93,1085.88,987.36,1107.86,994.66,1129.3z" />
<polygon class="cls-23" points="919.9,916.39 932.96,953.93 839.2,928.18 " />
<path class="cls-13" d="M994.66,1129.3c3.79,11.13,8.08,22.16,12.02,33.34c-8.77,0.11-17.11-3.31-25.77-4.58l-11.61-25.77  L994.66,1129.3z" />
<path class="cls-13" d="M1040.34,1169.53c-8.07-13.91-12.19-29.87-18.38-44.62c5.19-3.29,13.32,0.51,16.11-5.69L1040.34,1169.53z" />
<path class="cls-10" d="M1035.65,1044.29l0.03,4.35l-39.95,10.67c-0.96-3.04-2.99-7.56-4.32-10.51L1035.65,1044.29z" />
<path class="cls-6" d="M278.72,576.56c1.27,6.06,1.65,12.33,1.5,18.47l-27.1,0.31c-11.56-4.76-23.28-9.67-35.16-13.76  c1.12-1.95,3.39-4.85,3.61-7.3L278.72,576.56z" />
<path class="cls-16" d="M413.46,1001.91c1.14,2.9-0.59,3.53-2.99,4.08c0.09,8.69-0.2,17.24-0.87,25.67  c-10.86,8.42-21.97,16.57-33.34,24.44c-5.33,3.64-8.07,8.11-8.25,13.39c10.56,10.69,20.47,22.06,29.73,34.11l129.67-51.49l6.61-0.1  l1.54-1.95c28.79,10.05,57.61,20.11,86.48,30.19l5.6,4.44c2.31-0.17,2.53,0.67,0.49,1.71l-225.99,25.98  c-1.03,1.24-2.79,0.87-5.27-1.1l-102.35-78.91l-26.96,64.27l-2.7,0.39l-1.38,2.05c-12.2-3.36-24.4-6.72-36.61-10.07l-0.71-2.62  l17.38-70.37l1.67-2.54c28.08-6.59,56.29-12.96,84.66-19.12l13.5-0.66l1.34-2.2c22.55,2.64,45.1,5.29,67.66,7.94L413.46,1001.91z" />
<path class="cls-5" d="M264.84,1097.03c-5.43,22.62-14.26,45.2-25.88,65.36l-32.73,2.58c4.77-26.58,13.47-52.5,19.92-78.59  L264.84,1097.03z" />
<path class="cls-16" d="M393.55,1113.21l-49.12,6.94l-54.67-15.3l-1.36-3.38c1.02-5.39,6.03-25.08,8.59-28.44  c1.29-1.7,2.26-2.5,4.42-2.24l91.77,39.7L393.55,1113.21z" />
<path class="cls-23" d="M364.73,682.06c2.27,1.96,1.57,5.17-2.1,9.61c0.86,0.29,2.12,0.95,1.97,1.5  c-4.75,17.28-11.58,36.66-20.06,52.32c1.42,1.79,1.18,4.73-0.73,8.81l-3.95,46.24l-2.45,1.17l-0.9,2.41  c-19.88,1.4-39.77,2.8-59.67,4.2l-1.55-2.24c-1.9-1.67-2.71-4.52-2.44-8.56c-1.65-3.02-2.04-5.63-1.16-7.82l-1.72-2.09l6.77-18.11  c-3.54,5.11-6.43,10.59-8.66,16.47l-3.01,1.05l-1.28,2.47c-7.6,2.59-12.6,8.78-15.01,18.58l-2.82,0.68  c-4.55,2.22-9.77,3.04-15.67,2.46l-15.71,1.32l-4.73-1.87c-0.22-1.68-0.38-3.37-0.37-5.05c0.01-1.66,0.05-3.3,0.42-4.86  c4.46-18.71,10.15-37.86,15.95-56.23c0.5-1.57,1.32-3.05,2.17-4.53c0.87-1.51,1.88-2.93,2.93-4.33l1.15-2.05  c8.08,0.08,16.17,0.45,24.29,1.13l66.44-36.73l8.92-2.23c-0.99-0.1-1.48-0.47-1.45-1.1l-12.24-6.03  c-20.48-14.88-41.15-29.58-62.84-42.65l-94.88,4.26c-1.49-0.21-2.82-0.54-3.21-2.2c-2.92-1.34-3.68-4.85-2.3-10.54  c-0.15,3.9-1.48,6.66-4,8.28c-10.15-5.29-19.16-12.6-28.77-18.85l233.22-31.47c3.03-2.69,7.29-2.81,12.78-0.36  c4.65-0.47,9.36,0.44,13.91-0.85L364.73,682.06z" />
<path class="cls-6" d="M368.04,595.1c-4.21,0.43-8.55,0.39-12.78,0.36l-53.11-0.43c-0.32-5.88,1.65-11.64,2.67-17.34  c10.18-0.57,20.42-0.68,31.09,0.37L368.04,595.1z" />
<path class="cls-13" d="M176.95,812.32c1.57,1.62,2.66,4.05,3.29,7.3c2.56,3.1,3.95,6.19,4.15,9.27l0.74,5.11  c-4.17,17.89-9.48,38.41-14.95,55.9c-2.23,7.15-4.6,14.51-7.93,21.23c-0.32,0.65-0.96,1.16-1.66,1.66c-0.73,0.53-1.55,0.92-2.4,1.28  c3.37-17.45,5.63-35.33,8.34-55.19c-7.66,17.26-13.22,35.08-18.88,52.83l-1.47,2.24c-5.56-0.41-11.12-0.82-16.68-1.23l-1.44-2.46  c-0.92-0.18-2.28-0.64-2.24-1.29c1.63-27.32,4-57.58,7.38-84.75c-0.43-4.73,0.61-7.62,3.11-8.68c0.17-0.93,0.45-2.31,1.17-2.44  c8.22-1.49,29.52-3.41,37.59-2.98L176.95,812.32z" />
<path class="cls-5" d="M156.71,1069.96l-8.9,100.51c-4.65,0.76-9.31,1.48-14.02,1.61l3.68-103.16c0.16-0.9,0.49-2.22,1.15-2.28  c1.88-0.19,15.87,0.45,16.57,0.9C156.04,1068.08,156.46,1069.02,156.71,1069.96z" />
<path class="cls-6" d="M192.14,831.96l0.09,7.34c-6.11,23.69-12.39,47.25-18.86,70.68l-2.43,2.94c0.18,5.07,0.27,7.6,0.27,7.6  l-12.57,45.51l-3.88,6.61c0.34,1.27,0.64,2.55,0.77,3.85c0.12,1.28,0.22,2.53-0.03,3.69c-3.32,15.05-7.79,30.53-12.65,45.16  c-0.37,1.11-1.07,2.11-1.81,3.12c-0.75,1.03-1.64,1.96-2.56,2.86c1.64-39.65,12.25-78.62,19.72-117.25  c13.1-25.29,16.2-56.88,26.19-85.18C186.72,826.67,191.63,828.84,192.14,831.96z" />
<path class="cls-6" d="M136.79,801.67c3.8,3.13,3.4,10.91-0.48,13.86l-8.24,94.72l1.33,2.69c-1.24,17.64-1.87,35.35-1.9,53.13  l-1.98,5.15c1.2,13.54-5.89,27.42-11.11,39.23l-1.9-4.58c-0.15-5.82,0.17-32.83,1.78-35.55c0.46-0.78,1.05-1.47,1.68-2.14  l-2.27-1.22c1.15-18.73,2.31-37.47,3.46-56.22l2.43-1.25l-2.26-1.01c2.67-30.45,5.34-60.91,8.01-91.38l2.46-1.21  c0.43-4.93,1.86-10.27,2.57-15.22L136.79,801.67z" />
<path class="cls-14" d="M165.07,973.73l-5.67,61.11c-1.61,3.36-10.36,4.97-14.39,5.39c-3.48,1.12-5.66,0.46-6.56-2  c0.31-2.25-0.05-4.64,0.04-6.92c6.07-18.8,12.11-38.84,16.29-58.67C157.24,969.1,163.42,969.7,165.07,973.73z" />
<path class="cls-14" d="M115.96,968.16c-0.86,13.99,0.07,28.43-1.56,42.28l-4.24,36.04c-5.57-26.41-8.06-53.62-11.71-80.51  c1.28-2.37,4.48-2.76,9.59-1.16C112.39,964.52,115.03,965.63,115.96,968.16z" />
<path class="cls-24" d="M147.66,911.7l-17.36,54.37c-0.87,2.74-2.24,4.44-4.79,5.15c-1.77-20.03,0.78-40.6,2.55-60.97L147.66,911.7z" />
<path class="cls-16" d="M159.39,1034.84l-2.69,35.13l-19.24-1.04c0.36-10.2-0.42-20.52,0.98-30.69  C145.62,1038.89,152.27,1035.36,159.39,1034.84z" />
<path class="cls-16" d="M911.55,1083.01c-13.83,19.13-28.17,38.09-43.31,56.06l-97.2-16.25c0.35-2.17,2.84-1.12,3.54-2.43l0.16-2.48  c39.05-10.91,78.11-21.82,117.17-32.73l2.01,1.87C899.69,1085.44,905.68,1084.21,911.55,1083.01z" />
<path class="cls-24" d="M324.85,922.88c0.86-3.35,5.2-2.72,5.61,0.61l29.26-0.4l148.7,9.93c4.84,0.3,8.82,1.81,11.94,4.54  c0.7,1.43,1.36,2.87,1.86,4.36c0.5,1.48,0.96,2.93,1.08,4.41c1.57,19.19,2.94,39.13,2.9,58.36c0,1.49-0.36,2.99-0.75,4.5  c-0.39,1.53-0.96,3.02-1.57,4.49l-1.05,2.25c-36.07-3.84-72.15-7.69-108.23-11.54l-1.16-2.48l-70.11-8.22l-14.28,0.74  c0,0-25.27-2.86-75.81-8.59l-1.14-2.49l16.37-63.53c0.24-1.12,0.59-1.64,1.5-2.27c1.86-1.28,40,1.88,45.05,2.45  C318.81,919.83,321.73,920.67,324.85,922.88z" />
<path class="cls-13" d="M324.85,922.88l-56.36-3.07c2.73-10.59,5.36-21.21,6.7-33.21l-14.85,32.43l-2.26,2.2  c-12.05-0.81-24.1-1.62-36.16-2.43l-1.56-2.45c-0.82-0.39-2-1.03-1.91-1.7c0.25-1.74,5.51-17.85,6.33-19.18l2.74-0.82  c1.02-1.97,3.11-3.33,6.25-4.09l4.22-4.12l13.48-30.25l2.81-0.6c2.16-1.6,4.69-1.04,7.57,1.69c23.15,18.65,44.27,39.48,63.36,62.49  L324.85,922.88z" />
<path class="cls-24" d="M260.33,919.04c-9.22,20.14-16.59,41.15-23.97,62.14l-1.61,2.19c-11.77-1.17-23.54-2.35-35.31-3.52l-1.15-2.47  l-0.08-4.61c4.67-16.55,10.93-32.93,17.14-49.05c0.52-1.34,1.31-2.57,2.14-3.81c0.85-1.25,1.83-2.42,2.84-3.56L260.33,919.04z" />
<path class="cls-16" d="M202.56,1079.35l-2.81,1.78c-7.92-2.74-15.95-4.93-24.1-6.57l-2.08-2.47c0.05-6.64-2.19-14.68-0.06-21  c-0.09-4.94,0.68-9.67,2.31-14.2c0.56-4.23,2.16-6.53,4.8-6.91l2.7-3.12c12.07-2.14,23.97-4.94,35.69-8.38l3.91,0.98L202.56,1079.35  z" />
<path class="cls-14" d="M236.37,981.18l-13.45,38.29c-13.32,5.64-28.26,6.68-42.29,10.52l-1.97-1.5  c5.66-16.84,11.33-33.69,16.99-50.54l2.66-0.56L236.37,981.18z" />
<polygon class="cls-14" points="343.35,993.69 243.52,1016.01 252.12,983.35 " />
<path class="cls-5" d="M202.56,1079.35c-8.35,24.56-15.26,49.8-25.63,73.56c-0.7-26.89-3.59-53.86-3.36-80.82  C183.62,1072.35,192.74,1077.42,202.56,1079.35z" />
<path class="cls-8" d="M1175.37,958.58c0.88-0.03,0.85,0.77-0.1,2.38c-12.08,23.16-21.61,47.18-26.89,72.87  c-1.06,3.67-12.63,3.55-13.93-0.07c1.4-24.03,2.4-48.08,7.05-71.64l1.43-2.51c10.18-1.06,20.35-2.13,30.53-3.19L1175.37,958.58z" />
<path class="cls-9" d="M1189.43,925.78c0.3,9.52-4.47,17.22-9.51,24.62c-0.1,0.36,0.08,0.82-0.05,1.17l-1.06,1.22l-0.03,1.17  l-1.18,1.14c-0.06,0.34-0.15,0.85-0.05,1.17c-0.3,1.24-0.86,2.61-2.18,2.3l-33.87,3.54c2.02-10.23,3.14-21.32,4.58-31.61  L1189.43,925.78z" />
<path class="cls-16" d="M1148.38,1033.83c-5.23,25.41-11.85,50.62-17.58,75.93c-1.29-25.05,2.18-50.76,3.65-76L1148.38,1033.83z" />
<path class="cls-19" d="M1185.92,957.42c-1.96,12.98-4.57,25.99-7.94,38.67l7.15-52.57c-1.99,2.22-2.53,5.54-5.2,6.88  c2.29-8.55,8.03-15.87,9.51-24.62c0.41-0.04,0.85,0.09,1.25,0.02L1185.92,957.42z" />
<path class="cls-19" d="M1155.31,1134.26c-2.51,17.64-5.18,35.49-9.22,52.81C1146.69,1169.52,1149.91,1150.67,1155.31,1134.26z" />
<path class="cls-19" d="M1172.1,1033.79c-1.31-11.64,2.73-24.81,5.79-36.52C1176.99,1009.52,1174.47,1021.71,1172.1,1033.79z" />
<path class="cls-19" d="M1162.36,1092.34c-0.03,3.04,0.02,6.18-1.04,9.07c-2,5.44-0.27,11.65-3.59,16.68  C1157.14,1109.81,1158.88,1099.85,1162.36,1092.34z" />
<path class="cls-19" d="M1157.64,1120.14c0.39,4.05-1.03,7.98-2.24,11.81C1155.04,1127.93,1153.44,1122.03,1157.64,1120.14z" />
<path class="cls-19" d="M1166.9,1066.51c0.46,3.55-0.99,6.9-2.16,10.22C1164.6,1073.21,1163.16,1068.13,1166.9,1066.51z" />
<path class="cls-19" d="M1169.3,1052.57c0.51,3.51-0.48,7-2.15,10.1C1167.05,1059.24,1165.53,1053.92,1169.3,1052.57z" />
<path class="cls-19" d="M1164.66,1079.09c-0.06,3.69-0.24,7.9-2.28,11.01C1160.54,1086.85,1161.1,1080.69,1164.66,1079.09z" />
<path class="cls-19" d="M1171.72,1038.08c0.17,3.73,0.01,7.91-2.24,11C1167.82,1045.93,1168.29,1039.6,1171.72,1038.08z" />
<path class="cls-19" d="M1146.14,1189.37c-0.36,2.92-0.67,6.04-2.35,8.53c-1.43-1.32-1.38-3.14-0.79-4.9  C1143.61,1191.22,1143.61,1188.76,1146.14,1189.37z" />
<path class="cls-19" d="M1175.27,960.96l0.1-2.38l2.18-2.3C1178.22,958.48,1176.04,959.49,1175.27,960.96z" />
<path class="cls-2" d="M1014.82,862.46c3.58,12.99,9.21,23.6-1.07,35c-2.85,0.03-5.47,1.27-8.25,1.85  c-5.66-0.93-9.16-5.32-15.12-7.82c-6.56-22.93-13.53-44.84-20.99-66.62l-3.4-2.88c-3.76-15.9-8.34-31.49-13.74-46.77  c-0.59-4.19-0.69-13.12,4.77-12.31c3.87,3.49,5.8,5.24,5.8,5.24l30.68,55.57C1001.41,836.22,1008.51,849.14,1014.82,862.46z" />
<path class="cls-24" d="M209.85,915.56l-0.33,6.77l-17.56,48.61c0,0-1.49,1.74-4.46,5.21l-1.29,2.2c-4.91-0.62-9.83-1.23-14.75-1.85  l-1.31-2.53l-2.01-29.53l-3.08,29.29c-3.38-0.77-6.83-1.06-10.29-1.09c4.29-20.32,10.65-40.02,16.17-59.72  c1.68-0.86,3.49-1.67,5.41-1.67c5.72,0.02,27.65,0.98,30.97,2.64C208.22,914.34,209.05,914.93,209.85,915.56z" />
<path class="cls-11" d="M227.51,894.66l-7.16,21.7c-6.72,20.38-15.17,40.56-22.05,61.03l-17.68,52.6l-7.11,21.1  c-1.65-8.7-2.07-18-2.27-27.01c4.66-15.27,9.04-30.66,13.13-46.17l3.14-1.77c7.67-19.94,13.78-41.17,22.35-60.59  c-0.79-0.47-1.93-1.28-1.72-1.9c0.93-2.84,8.97-21.14,10.45-21.75c0.51-0.21,1.11-0.18,1.74-0.08  C221.44,887.94,226.89,891.71,227.51,894.66z" />
<path class="cls-14" d="M187.51,976.15c-5.94,15.44-6.74,34.41-16.26,47.94l-1.09-50.11L187.51,976.15z" />
<path class="cls-2" d="M90.11,850.95c3.41-0.41,3.74,3.54,0.58,4.72c2.89,3-2.5,11.03-6.31,10.59c-2.21,0.12-4.76,0.91-6.97,0.28  c-4.5-1.28-10.69-5.65-11.63-11.02l-5.99-34c-3.43-19.48-10.26-40.16-6.14-58.7L90.11,850.95z" />
<path class="cls-13" d="M127.78,815.87l-8.21,93.6c-0.3,0.9-0.75,2.23-1.48,2.27c-4.99,0.29-15.28-0.31-20.31-1  c-3.85,0.58-6.25-0.32-7.19-2.7c-1.89-13.9-4.05-27.93-6.21-41.77c1.95-3.63,4.75-6.76,6.31-10.59c0.21-2.31,2.54-3,7-2.08  c1.86-11.17,3.16-22.62,3.9-34.36l2.46-1.16C111.92,816.87,119.85,816.69,127.78,815.87z" />
<polygon class="cls-24" points="119.58,909.47 115.96,968.16 98.45,965.97 90.59,908.04 " />
<path class="cls-4" d="M105.38,1107.52c-1.72-13.13,1.28-26.97-3.46-39.95C109.27,1078.43,105.69,1094.17,105.38,1107.52z" />
<path class="cls-4" d="M105.31,1110.74l-2.26,24.9C101.37,1127.95,101.74,1117.66,105.31,1110.74z" />
<path class="cls-4" d="M102.95,1140.03l-2.26,22.58C98.76,1155.75,99.12,1145.93,102.95,1140.03z" />
<path class="cls-5" d="M779.54,187.2l24.47-1.19l-30.48,18.83c-0.86-0.11-2.91,0.39-2.56,1.56l-28.76-1.52  c2.59-3.95,5.73-3.49,7.68-5.68l-0.65-2.71c7.05-4.34,8.82-8.77,5.33-13.26l1.13-2.68c1.11-2.83,2.93-2.26,5.36-1.48  C767.5,181.18,773.67,183.89,779.54,187.2z" />
<path class="cls-9" d="M761.6,172.31c6.02,4.85,13.61,8.29,17.93,14.89c-8.46,0.41-15.49-6.43-23.85-6.66c-0.93,2.38-3.54,2.38-7.85,0  c-3.75-0.55-6.67,2.83-6.39,6.53l-2.17,1.44c-5.42,1.48-10.02-4.11-13.98-6.67C736.73,175.65,748.76,171.62,761.6,172.31z" />
<path class="cls-21" d="M689.04,178.2c0.58,0.75,1.43,1.86,1.07,2.48c-1.38,2.33-11.73,16.18-13.38,16.44  c-0.54,0.08-1.12-0.08-1.71-0.33c-0.96,0.19-1.67,0.93-2.53,1.3c-13.87,6-25.44,16.36-38.83,23.44c-1.18-6.52,8.25-14.4,2.46-17.83  l10.4-15.62C660.66,183.52,674.77,179.7,689.04,178.2z" />
<path class="cls-16" d="M697.62,177.34l27.6,26.64l-2.89,2.28c-13.86,0.71-27.37-0.61-40.52-3.96l-4.28-4.29l-2.5-1.22l14.02-18.59  C692.79,177.52,693.66,176.7,697.62,177.34z" />
<path class="cls-4" d="M443.72,546.49c-3.51,10.66-7.2,21.28-11.08,31.86l-10.89,40.8l13.67-14.72l2.88,0.34  c0.11,1.67,0.18,3.34,0.07,5c-0.11,1.65-0.23,3.27-0.72,4.76c-10.95,33.21-24.31,65.87-38.45,97.75l-3.19,3.85  c-4.95-1.25-9.07-10.29-9.33-15.37c-2.87-0.05-2.08-2.32-1.25-4.43l-1.24-2.99c2.6-8.61,3.98-17.47,4.12-26.59l2.86-5.69l0.22-3.76  c6.69-9.05,13.88-17.65,21.58-25.8l0.4-68.53l2.41-12.09c0.61-1.43,1.41-3.12,1.51-4.73l44.9-63.3l1.95,1.68  c-5.93,20.43-11.86,40.87-17.79,61.32L443.72,546.49z" />
<path class="cls-12" d="M547.34,417.4c0.23,2.96,0.42,6.02-0.41,8.9c-4.27,14.7-9.93,31.26-18.41,43.67l1.07,4.02  c-3.72,14.08-5.46,28.48-5.22,43.19l-2.53,5.26l2.29,1.43c0.15,1.76-0.08,16.61-0.69,17.23c-0.83,0.84-2.16,2.16-3.05,2.15  c-0.75-0.01-5.88-12.71-2.48-13.7c-0.77-0.63-1.5-1.3-2.1-2.06c-0.59-0.75-1.14-1.46-1.3-2.24c-3.57-17.75-4.14-35.57-2.22-53.57  c-8.85,20.76-15.53,41.71-20.05,62.85l-0.71,18.86l-2.84,4.62c0.89,0.24,2.22,0.74,2.17,1.38c-0.28,3.6-3.53,30.46-4.76,31.48  c-1.65,1.37-3.26,0.51-4.77-0.95c-0.85-0.69-2.41-20.39-1.48-21.58c0.3-0.38,0.73-0.66,1.2-0.9l-2.66-2.36  c-2.33-11.21-3.25-22.49-2.76-33.83c4.09-25.63,10-50.75,17.73-75.36l-1.5-0.76c0.08-3.79,1.37-7.73,3.89-11.82  c2.18-2.09,3.53-5.87,6.92-7.28l6.91-5.37c11.86-4.99,23.72-9.94,35.59-14.85L547.34,417.4z" />
<path class="cls-4" d="M607.9,390c1.77,1.42,1.22,2.14-0.9,1.23c-2.08,2.23-4.15,3.97-6.85,5.35c-8.68,4.45-21.19,9.85-30.37,13.34  c-1.9,0.72-3.97,0.64-5.96,0.46c0.18,3.84-10.21,7.76-13.78,8.44l-2.7-1.43l-44.68,18.59c18.36-23.19,38.42-45.31,58.98-66.52  C576.61,376.88,592.02,384.5,607.9,390z" />
<path class="cls-21" d="M493.35,455.86c-8.91,24.89-18.14,49.66-27.68,74.31c-2.91,13.17-5.21,26.47-6.89,39.93  c0,0-1.15,1.32-3.44,3.95c-4.22,4.99-9.4,4.22-10.08-3.41c0.77-4.92,0.45-9.25-0.96-12.98c-3.13,0.05-3.04-1.07-0.15-2.19  c-0.92-1.41-0.95-3.19-0.21-4.69c-1.47-0.28-1.55-1.71-0.22-4.29l18.48-63.68c9.93-14,21.04-27.56,33.55-39.54  C497.42,447.43,493.6,451.34,493.35,455.86z" />
<path class="cls-9" d="M728.66,288.59c4.37,0.77,5.94,2.25,4.72,4.46c-0.05,0.42,0.19,0.89,0.1,1.29c2.04,8.62,3.02,17.48,2.94,26.56  c0.46,5.29-0.92,8.41-4.15,9.35c-0.4-0.04-0.84,0.11-1.23,0.03l-6.15-3.3c-15.78-15.56-31.66-30.95-47.63-46.17l-1.38-3.41  c1.51-9.66,7.83-17.95,11.08-26.85c11.16,9.88,18.7,23.5,29.33,35.21C720.46,286.73,724.73,288.34,728.66,288.59z" />
<path class="cls-4" d="M675.89,277.41c18.61,17.34,38.4,33.91,55.16,52.88l-73.68-15.17C662.49,302.2,667.33,288.14,675.89,277.41z" />
<path class="cls-9" d="M725.22,203.99c1.24,0.54,2.96,0.38,3.8,2.23l-34,22.34c-6.41-9.68-12.37-20.08-17.49-30.54  C691.37,204.79,709.21,203.53,725.22,203.99z" />
<path class="cls-1" d="M652.56,405.49c0.91-0.24,2.27-0.6,2.7-0.01c2.89,3.87,7.15,11.73,9.42,16.22c2.9,3.34,3.64,6.17,2.22,8.5  c1.01,0.93,2.13,1.98,2.31,3.3c0.72,5.33-3.31,27.17-4.82,33.6l-2.58,2.96c-2.71,6.61-10.9,13.15-16.8,17.52  c-2.58,3.28-5.08,4.39-7.5,3.35c-0.87-1.11-1.7-2.23-2.39-3.45c-0.67-1.18-1.3-2.37-1.62-3.62c-2.88-11.2-5.58-22.68-8.05-33.98  c-0.28-1.27-0.29-2.6-0.26-3.94c0.03-1.38,0.22-2.76,0.45-4.14l-2.91,0.14c-9.61-6.43-20.43-11.33-32.46-14.72l-0.71-3.02  c-2.05,1.11-2.62,0.41-1.23-1.43c-0.73-0.56-1.76-1.51-1.48-2.1c2.34-4.93,11.84-21.8,14.98-25.29l5.15-4.13l0.9-1.23L652.56,405.49  z" />
<path class="cls-3" d="M671.39,380.76l5.08,1.57c4.76,5.79,9.78,11.32,15.05,16.6l0.34,3.26l-0.5,4.37  c-3.13,4.75-17.92,22.88-22,23.57c-0.8,0.14-1.63,0.12-2.47,0.06l-14.34-24.7l-10.41-51.78c-0.52-1.71-2.9-2.4-3.57-3.6  C651.06,357.84,659.87,371.08,671.39,380.76z" />
<path class="cls-3" d="M733.64,335.19l2.35,0.79l0.74,87.74c-1.16,1.6-2.83,1.76-4.72,1.34l-24.98-37.63l0.78-3.06  c-3.13-0.44-3.22-1.05-0.45-2.61l-0.86-26.69C711.9,345.55,724.08,340.94,733.64,335.19z" />
<path class="cls-22" d="M707.36,381.77c0.03,0.86,0.45,1.74,0.45,2.61c1.09,2.55,0.19,4.96-2.71,7.24  c-3.12,3.8-8.69,10.47-13.24,10.58c-7.93-5.84-13.08-15.22-20.47-21.43C683.25,379.26,695.72,379.18,707.36,381.77z" />
<path class="cls-5" d="M740.67,451.14c-3.16,0.09-4.94-2.46-5.34-7.64l-2.1-12.56l-25.3,35.59l-2.72-0.22  c-0.43,1.76-1.18,2.49-2.26,2.17l-6.46,9.2c-11.4,10.59-22.78,21.16-34.15,31.72l-2.62-0.76c-0.91-0.16-2.25-0.51-2.28-1.18  c-0.21-4.12,0.91-30.58,1.82-33.1l2.56-4.31c0.72-13.26,5.31-26.42,5.09-39.86c9.6-8.03,17.18-18.37,24.96-28  c4.86-6.01,11.59-11.11,15.95-17.81l26.59,40.05l-0.77-89.23c-0.01-1.73-0.4-3.45-1.36-4.93c4.59-11.29-1.21-24.01,1.21-35.92  l35.43,46.05l-4.55,79.56C758.56,431.41,747.59,440.89,740.67,451.14z" />
<path class="cls-23" d="M714.95,595.23c2.16,3.87,2.95,8.47,2.38,13.79l1,9.87l3.65-22.41l2.59-1.32c3.23-3.1,9.43-3,12.49,0.28  l2.39,14.85c1.03-5.61,2.63-10.2,2.69-14.84l208.05-0.32c1.08-0.47,2.18-0.58,3.31-0.26c7.23,2.05,16.99,35.36,18.49,43.2l-1.45,2.9  c-12.03-10.37-20.83-24.14-34-33.87l19.29,33.2l-102.87-6.86l-134.58,60.21c-1.32,0.09-2.44,0.6-3.55,1.28  c1.23,1.58-0.72,2.06-2.12,1.82c-1.53-0.26,0.51-0.72,1.97-0.36c46.74,13.46,93.27,27.65,139.6,42.55l98.11-5.17l1.53,2.27  c0.85-0.41,2.18-0.7,2.48-0.1c2.81,5.52,9.53,19.73,5.07,24.9c-1.67,1.94-2.79,1.9-4.49-0.16c-0.02,1.03-0.58,1.85-1.68,2.46  c-243.73,16.23-365.59,24.34-365.59,24.34l-1.61-2.24c-0.5-1.02-0.95-2.05-1.23-3.13c-0.28-1.03-0.49-2.06-0.42-3.06  c0.72-10.39,2.49-23.6,7.52-32.33c-0.78-0.47-1.86-1.39-1.59-1.9c5.4-10.21,13.29-22.98,19.8-32.56c2.17-3.99,5.13-7.35,8.88-10.09  c-3.03-1.85,0.59-6.05,3.53-4.51l0.48-4.27c13.36-12.3,26.28-24.99,38.77-38.07c9.65-15.93,18.32-32.43,26.01-49.52  c0,0,1.64-1.18,4.93-3.55c-3.45,20.1-2.81,40.92-4.89,62.53c9.54-23.12,11.94-46.82,19.05-69.43  C710.55,592.26,713.22,592.2,714.95,595.23z" />
<path class="cls-9" d="M740.67,451.14c-13.24,36.4-30.14,71.78-40.68,109.02l-5.17,16.56l-33.33,71.21c-3.57,1.04-4.32,0.57-4.36-3.38  c-0.09-9.86,6.87-26.23,11.84-34.99c0.08-5.14,0.12-7.71,0.12-7.71c12.54-30.64,22.21-61.81,29.01-93.52  c0.39-14.71,2.76-28.72,7.1-42.03l28.75-40.5C738.01,435.3,735.95,444.19,740.67,451.14z" />
<path class="cls-3" d="M694.78,602.25c-11.13,17.01-16.42,37.69-29.06,54.48c-11.71,15.54-29.45,26.02-41.13,40.93  c-3.29-1.23-4.69-4.6-4.21-10.1c-0.63-8.11,0.35-15.72,2.93-22.84c9.03-17.52,23.28-33.64,36.63-48.43c1.23-1.36,2.7-2.51,4.22-3.63  c1.53-1.14,3.16-2.13,4.82-3.08c-4.13,12.53-7.62,25.71-10.21,38.66l41.22-88.06C696.31,573.15,697.08,588.8,694.78,602.25z" />
<path class="cls-5" d="M732.08,558.98c0.65,5.46,0.03,10.99-1.85,16.59l-2.71,15.96l-2.95,3.62l-6.23,38.32  c-2.45-13.11-4.23-25.63-3.39-38.25c-3.93-7.57-0.25-19.08,2.4-27.2c5.8-16.94,14.19-32.08,21.69-48.4L732.08,558.98z" />
<path class="cls-3" d="M733.39,293.05l-4.72-4.46c6.59,0.42,17.54-0.55,23.06,4.83c12.44,12.13,21.8,27.07,31.16,41.1  c1.88,10.13,1.76,21.59,1.95,31.43c-8.98-20.64-15.57-40.59-26.32-59.18C750.84,301.03,741.42,297.16,733.39,293.05z" />
<path class="cls-3" d="M724.98,522.86c10.3-28.66,18.55-58.55,36.59-82.39l-11.87,46.74C741.07,498.73,735.8,511.35,724.98,522.86z" />
<polygon class="cls-3" points="780.31,436.73 766.85,468.89 773.81,406.33 " />
<path class="cls-11" d="M755.69,180.53c1.94,3.44,4.96,6.81,2.25,10.75c-1.84,2.69-5.52,5.07-8.05,7.9c-0.27-4.24-6.07-2.1-8.25-3.94  c-1.42-1.19-1.92-4.39-2.36-6.75c-0.86-4.58,1.28-7.99,4.75-9.74C748.44,176.54,751.84,180.43,755.69,180.53z" />
<path class="cls-18" d="M737.06,595.44c-4.17,0.15-8.34,0.13-12.49-0.28c1.94-11.95,3.5-24.06,7.52-36.17  C738.36,569.31,735.12,583.36,737.06,595.44z" />
<path class="cls-3" d="M782.92,407.68c-7.04-14.7-11.11-30.7-8.91-47.15C783.08,375.93,786.82,388.71,782.92,407.68z" />
<path class="cls-18" d="M717.35,568.03c-0.03,8.68-1.79,17.93-2.4,27.2c-1.99,0.24-4,0.29-6,0.12  C711.8,586.27,710.47,574.55,717.35,568.03z" />
<path class="cls-6" d="M948.18,564.9l3.2,1.82c2.28,3.97,10.88,21.78,11.1,25.08c0.08,1.28-0.7,2.45-1.45,3.46  c4.13,16.45,17.42,29.79,22.14,46.93c-4.01-0.8-9.3,1.64-12.63-1.22c-5.94-15.94-6.86-35.21-20.35-45.84l-11.49-30.14  C941.7,562.33,945.59,564.92,948.18,564.9z" />
<path class="cls-18" d="M988.11,564.54c6.85,7.56,4.46,20.34,5.15,30.67c-2.2,0.52-4.47,0.57-6.7,0.25  c-4.32-6.73-7.65-14.59-13.79-21.55l4.66,21.33c-5.43,0.72-10.95,0.42-16.4,0.03c-2.69-10.71-9.15-19.93-12.84-30.36L988.11,564.54z  " />
<path class="cls-18" d="M1011.37,564.82c-0.99,10.26-3.31,20.29-4.85,30.44c-2.94,0.3-5.92,0.38-8.83-0.14l-2.29-23.05  c-0.31-3.07-0.31-7.09,3.1-8.24C1002.57,565.44,1007.06,564.48,1011.37,564.82z" />
<path class="cls-1" d="M391.17,661.03l-2.53,6.15c-7.7,8.27-15.41,16.55-23.13,24.83l-2.88-0.35c0.99-2.95,1.5-6.53,2.1-9.61  c19.94-41.93,32.76-87.94,51.05-131.22l-0.47,81.72C405.52,641.26,399.29,652.31,391.17,661.03z" />
<path class="cls-16" d="M895.94,1029.8c0.03,7.31-1.13,14.5-1.91,21.57l-1.56,2.84c-63.07,16.67-126.23,33.37-189.49,50.1l-10.51,0.35  l-65.42,16.6l44.27-38.58l0.19-2.47c31.2-8.15,62.49-16.32,93.86-24.51l12.75-0.91c5.36-2.98,8.04-4.47,8.04-4.47  c33.19-7.37,66.18-15.54,98.95-24.51l9.06-0.38C895.89,1025.95,895.93,1028.4,895.94,1029.8z" />
<path class="cls-8" d="M894.03,1051.37c-1.3,11.79-0.31,23.87-0.11,35.68l-119.34,33.34l-82.11-15.72L894.03,1051.37z" />
<path class="cls-23" d="M778.13,1054.79l-106.8,27.89l-6.88,1.3c-11.67-0.53-24.24,1.03-36.33,2.42c-0.3-0.49-0.15-1.26-0.49-1.71  c-4.73-3.1-11.42-8.77-11.14-14.43c-0.16-0.89-0.23-2.28,0.34-2.45c11.96-3.69,26.94-4.6,39.42-5.13c0.55-1.51,2.13-1.49,4.73,0.08  c0.88-0.8,1.79-1.55,2.78-2.18c0.96-0.6,1.91-1.15,2.94-1.43c16.32-4.38,32.99-8.63,49.61-11.33l1.33-2.21  c19.79,2.23,39.59,4.46,59.39,6.69L778.13,1054.79z" />
<path class="cls-11" d="M402.12,1112.38c1.15,0.88,1.95,3.17,3.35,4.07c-4.25-0.14-7.98-3.8-11.92-3.24l-93.81-40.58  c-5.14,10.98-6.44,21.99-9.98,32.22c-6.1,17.66-10.77,35.79-15.31,53.81c-3.47,13.76-9.92,27.14-12.31,41.34h-37.52l14.33-37.61  c8.34-21.9,16.91-43.89,25.88-65.36l28.6-68.44L402.12,1112.38z" />
<path class="cls-10" d="M714.83,694.92l347.54,1.34l5.33,72.43c0.16,2.23-0.05,4.53-0.04,6.76l-3.15,1.91  c-15.02-4.56-29.5-10.94-43.43-19.14l-1.68-3.27l-8.75-1.45c-11.95-7.71-24.54-13.06-37.78-16.06c-4.47,0.62-8.17,0.13-11.1-1.46  l-2.64-0.21c-1.3-3.97-3.36-7.34-6.17-10.13c2.46,4.49,2.78,7.95,0.96,10.39l-99.98,5.19l-142.72-44.32  C712.53,694.82,713.97,695.44,714.83,694.92z" />
<path class="cls-18" d="M1067.66,775.46l10.63,9.8c1.26,8.83,0.95,17.8,1.71,26.65l-76.74,8.6l-2.56-0.33  c-5.44-18.3-11.3-36.42-17.6-54.37c-2.28-2.23-2.98-4.37-2.08-6.39c0-0.92,0.13-2.3,0.78-2.45c10.82-2.48,26.75-3.6,37.61-2.01  C1035.72,761.62,1050.66,773.52,1067.66,775.46z" />
<path class="cls-24" d="M1155.48,802.77c-5.88,27.85-15.11,55.18-23.39,82.11l-2.14,2.65l-32.95,4.27c-0.53,1.63-1.65,1.83-3.46,1.17  l-4.69-82.28L1155.48,802.77z" />
<path class="cls-21" d="M1132.09,884.88c-4.92,16.01-6.81,33.3-12.97,49.26l-2.59,2.62c-2.05,0.72-18.69,1.98-19.67,1.21  c-0.43-0.34-0.7-0.88-0.93-1.48l-2.4-43.52c0.77-0.58,1.24-2.62,2.51-3.24L1132.09,884.88z" />
<path class="cls-10" d="M1119.12,934.15c-3.8,9.85-7.89,21.99-8.61,32.5l-13.36,1.28l-1.21-31.43L1119.12,934.15z" />
<path class="cls-6" d="M157.11,648.04c3.21,0.26,3.03,1.47-0.02,2.43c1.58,1.71,1.57,4.26-0.05,7.66c0.18,3.28-0.71,5.39-2.67,6.34  c-0.61,1.18-0.66,3.15-1.72,3.31c-1.87,0.28-3.44-0.53-4.86-0.24l3.02-21.76c0.65-4.68,1.9-9.8,2.93-14.64  C160.18,636.06,155.19,642.41,157.11,648.04z" />
<path class="cls-23" d="M199.28,734.49c0.16,1.75,0.26,3.5,0.21,5.24c-0.06,1.72-0.14,3.43-0.55,5.04  c-4.92,19.44-10.35,39.39-16.61,58.44c-0.53,1.62-1.4,3.14-2.3,4.67c-0.91,1.55-1.97,3-3.08,4.43l-40.65,3.22  c0.4-4.6,0.75-9.28,0.48-13.86c3.52-3.02,9.56-6.62,10.33-12.06l7.92-56.08l3.11-2.76c12.61-0.49,25.22-0.07,37.81,1.27  L199.28,734.49z" />
<path class="cls-10" d="M220.22,696.41l1.53,0.91c3.09,0.55,2.78,1.66-0.28,2.24c-0.87,2.31-3.28,4.01-7.23,5.11  c-2.19,2.32-4.34,3.44-6.45,3.35c-1.33,7.8-3.05,15.51-5.18,23.13l-3.33,3.35c-14.76-0.27-29.74-3.2-44.24-0.95  c1.71-12.12,1.69-24.67,4.54-36.64c0.86-3.34,5.67-4.23,7.02-0.81l4.99-2.75c15.01,0.64,30.02,1.01,45.01,1.11L220.22,696.41z" />
<path class="cls-3" d="M186.42,671.28c0.65,0.66,1.53,1.73,1.17,2.29c-2.94,4.56-9.96,13.3-13.74,17.21  c-1.79,2.88-4.04,4.23-7.25,5.32l-7.02,0.81c2.86-12.02-0.8-21.33-5.21-32.43c-0.6-4.39,0.89-10.11,2.72-13.99  c0.5-0.83,1.2-1.34,2-0.98c6.58,3.01,21.32,13.95,27.28,18.87L186.42,671.28z" />
<path class="cls-18" d="M104.05,818.08l-3.53,37.97l-9.83-0.37l-0.58-4.72l-4.55-31.94C91.53,817.31,98.01,819.01,104.05,818.08z" />
<path class="cls-6" d="M961.77,735.98l2.79,0.66c1.41,5.63,3.34,11.04,5.79,16.23c4.5,0.37,8.07,1.88,10.72,4.52l-0.05,2.03  c2.74,2.82,4.92,5.8,6.25,10.04l15.99,51.05l11.56,41.94c-21.79-30.92-38.1-66.57-57.8-99.57c-3.4-0.07-3.41-1.65-0.03-2.22  c9.45-0.98-2.06-21.61-3.06-24.63l-4.91-14.9C956.67,722.72,959.18,730.03,961.77,735.98z" />
<path class="cls-18" d="M956.98,760.67c-0.52,0.41-0.27,1.7,0.03,2.22c-3.17,4.36-3.61,10.42-1.25,15.83  c6.59,15.06,8.56,31.37,13.62,46.14l-363.24,44.25c-3.66,8.36-1.25,18.17-2.55,27.17c-3.25,3.97-10.27,4.88-14.19,1.62l-2.58-1.71  c-2.91-10.7-4.63-21.45-5.16-32.25c2.73-11.49,3.44-22.95,2.14-34.38c-4.4-14.09-3.81-28.44,1.76-43.06l2.53-1.26L956.98,760.67z" />
<path class="cls-8" d="M907.02,978.52l-1.02,2.26c-48.19-4.41-96.51-8.82-144.95-13.25l-13.51-3.59c-1.43,3.55-13.06,1.67-13.75-2.04  l-9.87-2.95l-90.98-45c-9.93-3.99-18.58-9.45-25.95-16.38L907.02,978.52z" />
<path class="cls-10" d="M603.6,896.28c1.26-0.15,2.39,0.74,3.39,1.3c41.53,23.12,85.75,41.35,126.8,64.32l-1.03,2.26  c-44.66-4.26-89.34-8.52-134.02-12.78l-1.2-2.47c-0.82-1.07-1.59-2.16-2.22-3.33c-3.19-5.91-8.33-37.34-7.06-43.82  c0.26-1.31,0.68-2.58,1.15-3.85C594.17,897.6,598.87,896.84,603.6,896.28z" />
<path class="cls-12" d="M907.02,978.52c3.97,0.36,8.32,2.8,11.68,4.5l-85.23,19.53c-1.65-0.13-3.28-0.31-4.89-0.64  c-1.58-0.33-3.13-0.69-4.57-1.31c-24.46-10.58-49.1-21.39-72.87-33.25l-3.6-3.41L907.02,978.52z" />
<path class="cls-24" d="M863.4,1017.29c9.54,4.7,20.63,4.98,30.78,8.14c-37.56,12.18-77.38,19.27-116.05,29.37l-61.83-6.97l-1.09-0.42  c-10.32-5.73-17.54-8.62-29.36-10.21c-25.42-1.72-50.9-4.77-74.41-15.96c-0.66-0.31-1.17-0.95-1.7-1.64  c-0.56-0.72-0.99-1.54-1.39-2.38l-1.82-2.33c-3.98-18.76-7.26-37.67-9.82-56.74l2.1-1.75c0.19-0.9,0.77-2.22,1.33-2.1  c69.42,15.19,140.51,31.91,210.36,48.41C828.75,1006.1,846.4,1010.96,863.4,1017.29z" />
<path class="cls-18" d="M733.79,961.89l13.75,2.04c28.29,13.36,57.89,24.81,85.93,38.61l29.94,14.74l-264.61-60.89  c-3.57-1.12-4.24-5.27-1.25-7.49L733.79,961.89z" />
<path class="cls-14" d="M523.9,1013.68c1.06,0.11,2.28,0.57,2.4,1.53c1.88,15,1.51,19.06-13.09,25.59  c-14.03,4.59-27.71,9.99-41.03,16.21c17.74-0.57,35-4.81,51.76-9.75c5.98-0.32,9.34,1.27,10.07,4.75l-137.47,54.59  c-7.81-12.18-17.45-22.52-28.13-32.52c-14.81-13.86,30.22-33.52,39.66-44.08c0.46-8.15-1.12-16.24,0.24-24.61  c0.47-2.11,4.23-1.84,5.15-3.48L523.9,1013.68z" />
<path class="cls-2" d="M543.63,847.49l1.75,2.04c-2.38,6.47-4.76,12.95-7.14,19.43l-2.76,0.73c-0.33,2.1-1.93,3.8-4.79,5.1l-2.9,3.35  l11.5,157.85c12.62,6.37,26.57,12.23,41.85,17.58l3.62,3.46c9.26,0.25,17.87,2.38,25.84,6.39c4.11,1.49,6.07,3.77,5.89,6.84  c4.44,3.87,7.71,9.81,11.14,14.43l-93.61-32.68c-5.99-2.09-8.61-3.8-16.12-0.89c-16.85,6.53-36.34,7.22-53.75,9.19  c12.41-13.63,54.97-19.21,59.55-29.57c2.19-4.95,0.18-12.56,0.21-17.06c0.16-25.39-1.84-50.83-3.53-76.12  c-0.92-0.05-2.29-0.24-2.41-0.9c-0.9-4.91-2.55-25.45-2-29.9l2.22-1.86c-1.32-2.96-2.66-6.01-3.05-9.25  c-2.07-17.16-3.99-34.53-5.64-51.74c-0.15-1.57,0.02-3.18,0.23-4.8c0.21-1.65,0.59-3.27,1.02-4.89l3.5-0.15  c7.7,6.3,16.72,10.77,26.81,11.06L543.63,847.49z" />
<path class="cls-18" d="M523.9,789.03c2.55,3.52,2.58,8.16,0.09,13.92l-10.35,29.27l-2.9,2c2.65,23.54,5.86,47.05,7.44,70.68  l-0.58,2.41c-52.76,5.23-105.73,10.47-158.91,15.74l-28.22,0.44l-5.61-0.61c-15.55-17.24-51.19-58.16-70.57-67.28l-1.73-1.91  c0,0,6.68-15.75,20.03-47.25l2.71-0.38l62.12-4.37c1.27,3.28,1.91,4.93,1.91,4.93c-1.59,18.34-3.34,36.64-5.23,54.89  c5.22-6.34,11.06-12.18,17.52-17.52l3.62-0.14c2.81-5.02,6.36-7.98,10.67-8.87l2.13,2.66l-6.51,44.13l26.14-18.92l2.75,0.9  l1.53,2.74l-5.25,13.21l37.89-17.08l46.42-70.36c0.75-1.56,1.93-1.77,3.65-1.27l3.46-1.87c14.13,0.43,28.25-0.32,42.35-2.27  L523.9,789.03z" />
<path class="cls-7" d="M330.28,694.67c-4.24,0.14-8.66-0.25-13.26-1.19c-24.2-7.04-48.47-13.39-72.8-19.05  c-4.32,0.84-7.22,0.13-8.7-2.15l-4.77-0.71l-1.39,2.33c-13.74-0.09-27.49-0.18-41.24-0.27l-1.7-2.36l-29.33-20.8  c-0.17-0.77,0.28-1.69,0.02-2.43l98.79-4.43C281.23,658.93,306.32,677.12,330.28,694.67z" />
<path class="cls-6" d="M265.07,787.01c1.35-3.25,7.32-0.63,6.61,2.69c4.02,5.28,4.36,10.74,3.6,16.38l-21,49.54l-12.36,28.49  c-2.77,6.37-7.61,10.44-14.4,10.56c-3.19,0.06-5.05-2.74-7.19-2.83c-5.16,0.19-6.3-10.02-5.5-14.3l15.77-38.36l2.69-0.38l-1.75-1.88  c3.81-9.2,7.72-18.35,11.73-27.46l2.7-0.71C250.52,797.93,253.69,787.57,265.07,787.01z" />
<path class="cls-10" d="M331.74,695.77l-74.93,41.2l-25.87-1.32l-1.75-2.31c4.63-10.12,4.55-19.22-0.22-27.3l0.62-2.85  c-3.28-2.17-3.29-5.24,0.36-6.87l1.07-2.35c28.76-0.16,57.59-0.32,86.5-0.46L331.74,695.77z" />
<path class="cls-1" d="M386.68,700.74l1.12,3.69c-16.15,49.9-32.44,99.84-48.86,149.8c-0.93,2.74-2.54,5.17-4.85,7.29  c-1.7-18.87,1.58-39.44,3.32-59.82l4.08-47.75c0.26-3.09,2.23-6.02,3.05-8.47c9.37-15.97,22.94-33.09,35.74-46.64  c1.38-2.64,3.1-3.48,5.15-2.53C386.64,697.43,386.76,699.16,386.68,700.74z" />
<path class="cls-6" d="M221.47,699.55c1.36-3.51,8.08,0.16,8.12,3.64c9.07,9.61,4.77,21.03,1.35,32.46  c-7.63,25.54-15.09,50.1-21.09,75c2.43,2.08,0.76,7.42-2.36,8.26c3.29,2.68-0.07,7.92-3.72,5.92l-2.31-0.89  c1.14-33.77,2.31-67.63,3.52-101.59l2.8-14.34C210.08,702.84,217.3,700.43,221.47,699.55z" />
<path class="cls-1" d="M330.28,694.67c0.49,0.36,1.05,0.63,1.45,1.1l-101.79,0.55c-0.94-1.12-1.64-2.41-1.75-3.89  c-0.3-4.29,3.66-17.47,7.31-20.15c4.82-0.05,9.91-0.75,15.21,0.69L330.28,694.67z" />
<path class="cls-7" d="M385.43,696.31l-40.89,49.17l18.09-53.82l28.54-30.63C389.71,672.5,390.49,685.91,385.43,696.31z" />
<path class="cls-18" d="M245.96,808.74l-12.68,30.05l-3.23,0.69c-6.94-6.24-14.16-12.09-21.64-17.53l-0.91-3.03  c0.43-2.6,0.51-5.31,2.36-8.26C221.8,809.41,233.99,808.11,245.96,808.74z" />
<path class="cls-11" d="M271.69,789.7l-6.61-2.69c4.3-9.88,8.23-20.26,17.35-26.02L271.69,789.7z" />
<path class="cls-2" d="M203.79,824.84c2.2,4.23-8.81,10.55-11.64,7.13c-2.8-0.56-6.03-1.61-7.75-3.08  c-4.34-3.71-9.16-11.31-7.44-16.57c8.58-26.18,15.37-52.04,22.33-77.82c2.51-9.3,4.92-18.34,8.51-26.48L203.79,824.84z" />
<path class="cls-13" d="M233.28,838.79l-15.81,38.19c-2.09,5.05,0.78,10.04,2.84,14.85l-10.46,23.73  c-12.97-0.55-26.08-0.79-38.91-2.64c7.47-26.68,12.26-54.51,21.2-80.95c4.01-1.65,8.39-3.38,11.64-7.13c1.31-1.5,3.2-2.79,3.72-5.92  C217.39,823.19,223.9,833.09,233.28,838.79z" />
<path class="cls-10" d="M518.18,904.9l2.19,32.66c-4.02,0.65-7.48-1.89-12.14-2.2l-177.76-11.87L518.18,904.9z" />
<path class="cls-3" d="M396.01,716.11l2.78,0.38l4.43,13.59c2.14,3.02,2.92,5.72,2.34,8.12l1.77,1.74  c-15.34,32.18-30.7,64.42-46.09,96.72l-6.02,7.18c-6.78,6.12-13.15,13.14-21.14,17.67l52.59-160.78  C390.39,705.04,393.35,711.05,396.01,716.11z" />
<path class="cls-7" d="M444.97,595.48l2.44,1.65c1.32,4.16,3.92,16.01,0.1,18.14L447.08,628c-6.83,30.74-13.64,61.41-20.43,92.01  l-2.6,0.88c0.35,0.55,0.26,1.08,0.13,1.68c-0.44,2.08-13.37,14.71-15.77,16.2l-2.84-0.55c-5.95-5.74-6.02-15.38-9.56-22.1  c14.44-36.88,30.64-73.7,42.3-111.35C434.65,602.04,440.92,593.45,444.97,595.48z" />
<path class="cls-1" d="M443.72,546.49c-0.39,1.34,0.16,2.94,0.22,4.29c-0.71,1.39-0.76,3.39,0.21,4.69l0.15,2.19  c1.16,4.33,1.54,9.28,1.13,14.87c1.69,4.85,2.28,10.21,1.76,16.06c0.79,3.6,0.05,5.9-2.22,6.89c-2.67,1.84-5.6,5.85-6.66,9.28  l-21.71,23.38C425.81,600.14,429.11,569.91,443.72,546.49z" />
<path class="cls-4" d="M568.38,543.52l2.85,5.78l1.97,21.69l23.28,5.65c1.9,0.92,3.47,2.09,4.72,3.49c0.86,0.36,2.1,1.06,1.95,1.7  c-3.88,15.77-9.34,34.73-14.68,50.06c-1.15,4.52-3.18,8.66-6.09,12.43c1.75,3.09-2.7,7.2-5.6,5.16l-12.88,8.65  c-5.66,2.2-7.15-2.06-4.46-12.79l3.92-14.85l-2.23-1.07l6.18-49.68l-11.72,10.43c-4.18,4.49-7.96,5.88-11.34,4.16  c-3-0.13-3.01-1.02-0.63-2.77l-4.6-4.59c-8.52-16.23-16.72-32.53-24.59-48.89l0.03-3.44c-4.82-1.94-0.01-9.33,3.46-5.1  c1.03,4.14,2.56,8.01,3.12,13.13l0.81-20.23c2.46-5.57,6.49-10.36,12.09-14.36l2.82,0.59c0.99,0.08,1.97,0.21,2.9,0.5  c4.65,1.43,27.23,26.65,28.4,31.46C568.27,541.56,568.34,542.53,568.38,543.52z" />
<path class="cls-3" d="M481.04,567.41c-1.39,3.27-4.51,8-7.98,8.96l-0.59,2.75c-0.72,0.8-13.74,11.56-14.6,11.96  c-1.31,0.61-2.09,0.75-3.49-0.41l-2.21-1.71c-0.62-3.34-0.97-14.79,3.15-14.91c4.36-14.76,3.27-31.02,8.62-46.12  c8.78-24.76,18.38-48.92,29.39-72.07l-14.75,71.47C475.85,540.68,479.53,554.58,481.04,567.41z" />
<path class="cls-5" d="M498.83,549.71c0.92-0.14,2.34-0.19,2.54,0.43c4.36,13.64,9.61,32.06,12.31,45.97c1.74,3.57,1.6,6.06-0.42,7.48  c0.96,0.6,0.86,0.97-0.26,1.1l-1.3,3.11c-6.87,2.99-13.74,5.97-20.61,8.95l-2.46-1.49c-0.94,0.12-2.37,0.25-2.68-0.39  c-4.18-8.69-9.27-21.49-12.26-30.64c-2.17-3.37-2.37-5.99-0.62-7.86c1.13-3.69,3.79-8.01,7.98-8.96l2.77,23.51l4.88-32.93  C490.35,554.07,494.29,547.92,498.83,549.71z" />
<path class="cls-3" d="M517.9,529.54c-2.94,0.35-3.5,2.49-3.46,5.1c-0.51,2.18-2.2,4.13-5.06,5.84l-7.89,9.89l-2.66-0.65  c-3.38,2.7-6.4,6.05-10.14,8.28c1.62-10.96-0.37-23.5,3.32-35.01c7.93-24.74,16.36-48.92,25.68-73.52  C512.97,477.4,511.37,503.17,517.9,529.54z" />
<path class="cls-7" d="M563.82,410.39c3.18-1.16,3.96,1.4,1.29,3.28l2.07,1.54c-3.81,17.86-7.62,35.73-11.43,53.61l-2.58,0.88  c-6.51,3.24-17.95,3.05-24.66,0.27c6.59-17.41,13.28-34.83,18.83-52.57C552.32,415.33,559.14,412.92,563.82,410.39z" />
<path class="cls-3" d="M553.17,469.7c2.3-2.83,6.46-0.34,7.02,2.78c3.12-0.28,3.11,0.84,0.31,2.17c-1.79,5.6-5.04,10.89-9.74,15.89  l-9.93,15.73l-4.09,2.38l-14.91,13.78c0.71-17.75,0.49-36.09,6.68-52.47C536.65,468.98,544.98,469.28,553.17,469.7z" />
<path class="cls-6" d="M588.34,422.75c-0.44,0.8-1.12,1.92-1.82,1.81c-2.03-0.33-18.69-6.89-20.71-8.09l-0.7-2.79l-1.29-3.28  c13.79-7.44,28.59-13.1,43.17-19.16L588.34,422.75z" />
<path class="cls-23" d="M455.33,574.04c-1.57,5.32-0.33,11.44-0.94,16.63c0.9,0.11,2.27,0.49,2.24,1.06  c-0.28,4.68-3.05,37.69-4.64,38.84c-1.84,1.33-3.11,0.69-4.8-0.78l0.31-14.51c0.49-6.47-2.42-13.34-2.53-19.79l-0.67-37.83  c5.35-1.23-0.68,13.4,2.85,16.22C448.9,575.29,452.91,573.68,455.33,574.04z" />
<path class="cls-4" d="M444.15,555.47c-1.11,0.17-1.16-1.14-1.19-1.83c-0.05-1.01-0.26-2.66,0.98-2.86  C444.01,552.34,444.05,553.91,444.15,555.47z" />
<path class="cls-9" d="M589.57,424.18c11.76,6.58,28.52,7.41,36.08,17.6l-1.27,6.41c-10.03,18.09-19.56,36.39-28.58,54.91l-2.72,2.16  l-4.83-1.96c0,0-8.55-7.94-25.65-23.82l-2.09-4.81l-0.31-2.17l0.01-3.05c9.53-12.25,17.2-26,23-41.26  C584.77,424.49,586.89,423.15,589.57,424.18z" />
<path class="cls-9" d="M637.38,492.24c0.88,0.3,2.16,0.91,2.05,1.57c-1.88,11.63-5.33,25.3-8.25,36.86  c-1.27,6.85-2.74,13.04-6.64,18.91l-0.14,3.8c-3.18,5.24-15.43,23.16-19.34,26.12c-1.03,0.78-2.53,0.7-3.86,0.63l-30.18-7.26  l-2.64-29.35l2.25-1.02l27.26,29.25l-6.99-64.86l2.18-1.64l3.3-3c12.35-3.23,24.56-6.97,36.63-11.21L637.38,492.24z" />
<path class="cls-5" d="M625.65,441.78c4.67,16.15,8.09,32.72,11.87,49.14c1.07,0.46,1,0.91-0.14,1.33  c-14.88,4-29.12,10.53-44.31,13.01C603.03,483.74,612.86,461.46,625.65,441.78z" />
<path class="cls-5" d="M593.08,505.25l7.92,73.46l-32.62-35.19c-9.81-12.15-19.93-24.56-31.63-34.86  c6.82-11.87,14.37-24.06,23.76-34.01C571.9,484.2,583.49,493.89,593.08,505.25z" />
<path class="cls-6" d="M659.72,508.64c2.85,1.37,2.18,2.53-0.98,2.13l-2.04,5.86c-9.83,11.16-19.66,22.31-29.49,33.47l-2.67-0.51  l12.84-57.34c0.08-0.38,0.22-0.96,0.14-1.33l24.3-20.87L659.72,508.64z" />
<path class="cls-4" d="M588.34,422.75c0.48,0.35,0.71,1.14,1.23,1.43c-8.97,6.41-13.91,36.44-29.37,48.31  c-2.55,0.06-4.77-2.18-7.02-2.78l11.94-56.03L588.34,422.75z" />
<path class="cls-9" d="M702.96,468.48l0.78,0.73c-7.21,20.38-15.47,40.43-24.77,60.13l-2.71,0.34c-4.08,6.91-9.63,12.9-16.64,17.97  l-2.82-0.63c-2.78-11.22-1.69-25.25,1.95-36.27c0.42-0.48,0.67-1.58,0.98-2.13L702.96,468.48z" />
<path class="cls-24" d="M668.98,609.56c-15.87,17.76-30.98,36.42-45.67,55.15c-0.09,4.01-8.32,14.36-11.19,15.46  c-4,1.54-5.75,1.75-4.8-2.35c0.81-3.47,12.02-22.3,14.67-23.93c0.82-0.51,1.73-0.88,2.67-1.21l1-5.69l35.1-52.13l11.89-59.17  l3.61-6.01l26.7-61.21c0.62-0.58,1.77-1.49,2.26-2.17c-3.51,19.4-2.87,39.57-8,59.38C689.74,554.59,678.16,581.73,668.98,609.56z" />
<path class="cls-1" d="M656.8,547.03l2.13,2.92c-0.21,7.09-0.97,14.13-2.28,21.1c-7.37,12.33-15.16,24.36-23.35,36.08  c-7.74,12.15-9.71,26.25-7.24,40.43l-1.41,5.12c-5.92,8.81-10.9,18.47-16.48,28.29c5.18-5.72,10.76-10.68,15.13-16.25  c0.74,11.02-2.58,22.92,1.28,32.94l-3.53,4.51l-5.77,5.66c-13.66,7.26-27.21,14.84-39.54,24.23l-5.43,1.32l-0.78,2.67l-12.74,7.2  l-2.56-1.37l-1.6-2.02l34.07-67.02c1.09-9.81,1.09-19.63,0.02-29.47c-1.25,1.61-2.38,2.13-4.35,0.95l18.83-64.19  c9.13-8.98,14.98-21.06,23.34-30.55l34.21-38.82C658.74,522.84,657.79,534.97,656.8,547.03z" />
<path class="cls-6" d="M593.97,746.72c-2.13,12.59-4.57,25.8-5.87,38.52c-1,9.77-7.66,23.08-4.64,32.85  c4.89,15.86,4.16,26.56,0.97,42.91c-2.27,11.6,3.79,25.42,4.98,36.9c1.77,17.09,4.92,34.11,8.13,51c0.45,2.37,0.87,5.12,1.25,7.49  l9.55,60.83c-2.73,2.68-4.49,0.38-6.14-2.36c-13.81-57.1-24.98-114.98-33.52-173.65c-4.9-1.52-8.48-4.15-10.74-7.88  c-0.89-0.2-2.21-0.72-2.11-1.28c0.93-5.55,8.7-43.18,10.27-44.86l2.36-0.89c-0.83-0.44-2.05-1.08-1.99-1.82  c0.26-3.48,4.32-21.9,5.59-24.85l2.65-1.12l0.52-3.06c0.54-0.78,15.17-9.72,16.1-9.84C592.27,745.46,593.19,746.11,593.97,746.72z" />
<path class="cls-2" d="M621.06,702.16l-27.08,44.56L574.7,758.5c-0.9,0.04-2.16,0.06-2.49-0.61c-0.65-1.34-3.85-20.21-3.94-22.48  l2.02-2.03C585.41,720.95,603.59,711.29,621.06,702.16z" />
<path class="cls-6" d="M535.47,869.69c0.92,0.04,2.31,0.24,2.41,0.89c1.11,6.76,1.65,17.57,1.75,24.52c1.07,4.09,0.48,6.82-1.76,8.21  c0.93,0.2,2.33,0.56,2.4,1.26c1.15,10.88,1.81,25.8,1.62,36.74l-2.27,1.81c0.67,1.47,1.29,2.96,1.76,4.5  c0.46,1.51,0.87,3.01,0.97,4.53c1.2,18.14,2.16,36.51,2.95,54.68c0.14,3.16-0.67,6.27-1.5,9.29l2.41,1.84  c-1.54,6.87,2.57,11.7,12.34,14.49l0.34,2.83c5.78-0.03,11.53,0.58,17.24,1.83l1.59,2.65l12.08-0.16l54.51,10.14  c2.24,0.6,4.3,1.59,6.35,2.66c3.57,1.86,11.56,6.32,10.3,10.36c-1.38,0.29-3.32,0.04-4.73-0.08l-15.64,0.71  c-18.64-1.97-37.25-4.09-55.84-6.36c-16.56-4.37-32.08-12.45-47.7-19.44l-11.71-160.72C528.31,873.44,531.55,870.49,535.47,869.69z" />
<path class="cls-16" d="M715.2,1047.4c0.37,0.02,0.72,0.36,1.09,0.42c-17.49,6.41-36.74,11.09-55.33,14.94  c-4.97-4.15-11.78-9.83-19-11.17l-64.24-11.84c0.44-1.34,1.26-2.35,2.4-3.15c2.99-2.12,17.13-2.23,21.61-2.06  c35.19,6.03,70.86,9.45,106.99,10.26L715.2,1047.4z" />
<path class="cls-16" d="M656.24,1062.68l-39.76,7.58c-8.5-7.4-20.78-10.34-31.72-13.23C608.22,1055.91,632.37,1060.6,656.24,1062.68z" />
<path class="cls-23" d="M1019.41,754.96l-38.39,4.46c-2.98-3.06-8.61-3.41-11.99-4.71c-4.17-5.37-4.75-12.96-7.26-18.72  C982.27,730.77,999.71,746.92,1019.41,754.96z" />
<path class="cls-1" d="M230.75,671.57c3.11,3.14-0.03,11.65-1.69,15.83c-1.25,5.49-3.66,8.42-7.25,8.79  c-0.09,0.92-0.77,0.69-1.59,0.22c-17.57,2.38-36.14-2.33-53.62-0.32l19.82-24.81L230.75,671.57z" />
<path class="cls-11" d="M235.52,672.29c-1.91,7.99-4.45,15.91-5.56,24.04c-0.31,2.27-0.4,4.57-0.36,6.87l-8.12-3.64l0.28-2.24  c-0.96-0.3-0.91-0.68,0.06-1.12c5.2-6.79,7.21-16.23,8.94-24.62c0.69-1.05,1.28-2.04,1.68-2.73c0.78-1.34,2.4-1.12,2.53-0.06  C235.13,670.11,235.77,671.25,235.52,672.29z" />
<path class="cls-2" d="M608.34,1017.22c55.96,26.75,87.16,7.7,106.86,30.19c-29.54-1.21-59.43-1.33-89.01-7.03  c-16.96-3.27-32.43-5.81-48.47-0.61c-6.54-1.21-12.9-1.35-18.83-4.48l0.5-2.66l26.18-9.17c1.21-1.02,2.51-1.89,3.88-2.61l-2.24-5  c-0.82-21.56-3.77-42.89-8.84-63.98c0,0,0.44-1.79,1.33-5.37l-2.57-0.92c0,0-2.83-14.58-8.49-43.74l2.04-1.81l-2.5-0.61  c-4.09-21.42-8.18-42.85-12.28-64.28l2.04-1.81c4.15,2.36,8.66,3.51,12.74,6.93c10.04,56.89,18.18,113.32,32.22,168.95  C604.34,1014.93,604.63,1015.44,608.34,1017.22z" />
<path class="cls-6" d="M554.23,741.88l0.93,3.53c-4.15,13.25-6.94,26.88-8.36,40.89l-2.9,2.35l1.49,3.82  c-4.03,11.27-5.54,22.25-4.54,32.94c3.83,7.02,5.64,14.12,5.45,21.32l-2.67,0.78c-13.12,0.27-23.04-4.94-32.89-13.28  c3.37-15.22,12.83-29.21,13.16-45.18l-1.18-3.68c3.88-10.77,7.6-21.87,7.05-33.45l2.13-3c-0.95,0.24-2.34,0.13-2.41-0.54  c-1.95-17.81-3.83-35.77-5.1-53.66c12.78-12.44,25.91-24.62,39.39-36.55l12.99-8.67c1.98-1.81,3.55-3.16,5.6-5.16l7.22-7  c-1.04,12.17,1.64,24.6-0.68,36.22L554.23,741.88z" />
<path class="cls-18" d="M568.45,786.29l-10.51,47.04l12.74,66.7c-0.02,0.92-0.18,2.32-0.83,2.44c-3.35,0.6-28.71,3.72-30.03,3  c-0.92-0.5-1.6-1.14-1.95-2.16l-2.4-33.62l8.16-22.2c3.37-9.17-6.78-18.43-5.98-28.41c0.85-10.46,3.98-20.7,6.24-30.44l2.14-2.83  c6.51-0.8,13.05-1.32,19.62-1.56L568.45,786.29z" />
<path class="cls-4" d="M474.64,790.99l-48.65,73.42l-43.02,19.56c1.76-8.09,5.35-13.69,7.44-20.22c-3.31-1.11-1.39-6.46,1.93-6.03  l4.71-7.23c27.08-23.65,54.11-47.26,81.11-70.84l2.62,0.83C482.37,784.78,479.18,790.43,474.64,790.99z" />
<path class="cls-23" d="M531.89,748.91c1.43,14.1-2.97,25.98-8,40.12c-16.51,0.55-33.37,4.67-49.25,1.95  c2.21-3.33,4.13-7.06,6.13-10.52l-1.35-2.41c6.5-6.6,13.07-13.11,19.69-19.53c-0.16-0.91-0.27-2.3,0.34-2.54  c6.44-2.55,16.64-5.25,23.5-6.89C526.94,747.1,529.92,747.04,531.89,748.91z" />
<path class="cls-1" d="M576.77,649.48l-50.31,45.86l5.43,53.57l-32.78,9.62c-1.38,3.38-17.71,8.44-20.87,8.37  c-3.02-0.06-3.35-0.22-4.32-3.3c-0.82-2.6,5.8-25.06,7.69-28.97l-0.91,0.16l-8.45,10.46l-60.39,52.37  c-3.44,10.47-6.34,21.1-8.69,31.89l-3.59,4.7c1.55,8.53-2.04,16.81-7.24,23.51l-1.93,6.03l-32.03,23.19l7.49-50.7  c-3.92,3.09-7.71,4.99-10.63,7.63l50.34-105.63l18.48-17.33c3.79-1.96,3.6,2.81,3.26,5.9c-1.28,3.55-1.25,6.19,0.09,7.94  c13.3-12.53,29.73-23.35,46.5-30.61c0.89-2.73,2.45-4.6,4.66-5.61c3.76-2.69,11.86-7.08,16.06-5.74c1.31-2.1,2.91-3.79,4.8-5.09  l18.25-7.75l5.86-10.47l2.85-0.22c3.1-0.91,3.49,0.63,3.34,3.41l15.68-7.66l15.1-33.91l2.83-0.6c-1.07,8.62-1.48,17.59-3.37,26.9  L576.77,649.48z" />
<path class="cls-4" d="M473.07,576.37l15.57,38.89c0.91,0.59,0.79,0.99-0.3,1.21l-3.31,5.16l-22.27,17.29  c0.26,10.73-0.28,21.55-1.26,32.16c-1.69,18.2-8.23,27.84-19.01,42.01c-4.17,7.97-9.2,15.18-15.09,21.63  c-7.61,3.81,0.43-9.94-3.36-13.84l23.46-105.61l2.19,15.48l4.7-40.08C461.01,586.51,465.6,578.93,473.07,576.37z" />
<path class="cls-9" d="M543.6,591.55c0.28,0.67,0.74,2.07,0.63,2.77c0.89,0.25,2.22,0.8,2.14,1.44c-2.58,20.84-6.56,43.15-11.97,63.42  c-1.63,5.58-4.3,8.93-8.02,10.06l-7.27,12.44c-8.66,4.26-16.95,6.75-24.49,11.09l-1.02-3.94c3.94-8.62,8.29-17.04,13.06-25.24  l3.78-56.03l2.55-2.86c0.02-0.35,0.35-0.77,0.26-1.1c-0.21-0.88-0.46-2.24,0.12-2.57c4.52-2.54,22.84-9.89,27.78-11.02L543.6,591.55  z" />
<path class="cls-5" d="M563.35,630.48l-16.08,36.19l-22.3,10.91c1.31-3.23,3.81-6.14,1.41-8.35c3.65-6.25,7.73-13.28,9-21.02  l8.84-53.9c10.22-3.44,16.06-13.69,26.1-20.02L563.35,630.48z" />
<path class="cls-7" d="M514.44,534.64c9.43,19.14,20.79,37.3,29.16,56.92l-30.34,12.04l-14.43-53.88  C504.05,544.83,507.17,536.33,514.44,534.64z" />
<path class="cls-3" d="M513,604.69l-4.14,59.62c-5.03,9.9-10.82,18.63-14.23,28.46c-6.64,3.82-14.61,7.05-20.72,11.35l-2.14-1.46  c4.46-27.07,8.92-54.16,13.38-81.27l3.18-4.91l0.3-1.21L513,604.69z" />
<path class="cls-3" d="M624.66,652.68c-8.28-40.35,11.81-49.44,29.81-82.42c1.6-7.48,1.74-16.01,2.33-23.22l19.46-17.35l-13.39,66.12  L624.66,652.68z" />
<path class="cls-23" d="M570.31,733.38l4.4,25.12l-6.25,27.8c-8.17,1.06-16.53,0.44-24.56,2.34c3.56-15.34,3.2-32.7,10.33-46.76  C559.73,739.45,564.57,734.75,570.31,733.38z" />
<path class="cls-24" d="M579.7,946.5c4.76,24.53,10.71,49.36,9.75,74.34l-0.35,1.45c-14.62-0.49-29.34-1.72-44.16-3.7l-1.14-2.47  c-2.44-24.23-3.1-48.67-4.18-73c0.08-0.9,0.4-2.27,0.99-2.27c7.37,0.01,31.72,1.43,37.91,3.19L579.7,946.5z" />
<polygon class="cls-10" points="570.68,900.03 579.7,946.5 539.63,943.13 537.87,903.31 " />
<path class="cls-14" d="M589.46,1020.84c-0.1,2.52-0.17,3.79-3.41,4.93l-27.15,9.51l-11.59-6.11c-5.66-2.98-2.97-7.84-3.5-13.05  L589.46,1020.84z" />
<path class="cls-10" d="M488.34,616.48l-14.43,87.64c-15.07,10.58-30.7,20.84-46.5,30.61c28.3-55.19,31.34-25.98,33.4-96.81  C469.62,630.1,479,622.84,488.34,616.48z" />
<path class="cls-24" d="M499.11,758.53c0.33,8.69-13.84,12.74-18.34,21.94l-88.44,77.24c2.49-7.79,5.03-15.67,7.24-23.51l3.7-5.53  c31.3-20.67,51.66-50.27,68.59-83.03l8.83-10.86c0.99-0.86,0.48-2.41,2.1-2.44L476,765.1L499.11,758.53z" />
<path class="cls-19" d="M399.58,834.2c3.41-12.06,5.45-25.57,10.35-37.83l70.77-61.58C453.22,783.02,446.18,801.39,399.58,834.2z" />
<g>
</g>
<g>
</g>
<g>
</g>
<g>
</g>
<g>
</g>
<g>
</g>
<g>
</g>
<g>
</g>
<g>
</g>
<g>
</g>
<g>
</g>
<g>
</g>
<g>
</g>
<g>
</g>
<g>
</g>
</svg>