<?xml version='1.0' encoding='UTF-8'?>
<svg xmlns="http://www.w3.org/2000/svg" id="Layer_1" data-name="Layer 1" width="1200" height="1800" viewBox="0 0 1200 1800">
  <defs>
    <style>
      .cls-1 {
        fill: #a14325;
      }

      .cls-2 {
        fill: #dc6e29;
      }

      .cls-3 {
        fill: #3e2318;
      }

      .cls-4 {
        fill: #4f2727;
      }

      .cls-5 {
        fill: #fbb85d;
      }

      .cls-6 {
        fill: #f0913a;
      }

      .cls-7 {
        fill: #16141a;
      }

      .cls-8 {
        fill: #6a2f26;
      }

      .cls-9 {
        fill: #1d181b;
      }

      .cls-10 {
        fill: #121218;
      }
    </style>
  </defs>
  <path class="cls-4" d="M0,170V0h1200v193.67l-186.17,13.14-17.99-26.27-30.49-1.25,9.17-10.85-28.34-3.88c-7.37-6.44-17.71-15.25-23.32-18.44-35.62,30.56-20.17,7.35-51.23,13.03-4.43-13.55-22.55-29.59-38.54-18.96-3.51,2.34-11.05,7.77-14.72,6.74-4.28-1.21-7.01-10.52-9.72-16.17-2,.06-7.76,2.8-9.26,1.2l-7.88-8.39c-11.71.53-28.88-.88-42.03-6.69l-30.42,19.04c-5.89,1.74-17.88-12.41-17.8-16.55l6.83-3.5c1.08-.55,3.57-3.57,2.52-4.14l-5.95-3.27-9.7-5.37c-2.14-1.18-7.35,4.01-9.67,4.76l-13.16,4.25c-4.5,1.45-8.79-11.86-17.9-14.91-7.59-2.54-9.9,9.02-25.87,13.94-3.54,1.09-9.86-5.61-12.87-5.71l-14.58,8.08c-3.66,2.03-9.3-6.46-12.52-13.19l-29.76,6.03c-12.19,2.47-19.69,5.56-29.59-8.04l-3.43,15.38c-12.55,1.89-25.16,9.12-32.96,18.35l-15.1-11.83c-14.33,3.77-30.51,3.68-44.33-1.83l-35.48-14.14-36.53,7.3c-5.36,1.07-14.15,11.27-19.65,10.73-27.03-2.67-20.5-26.19-35.4-4.69l-26.6,5.4c-3.99-4.11-8.44-9.18-11.54-9.18-14.06-.03-4.07,9.5-30.33,13.59l-19.31,3.01c-3.2.5-10.52-4.39-13.75-4.18-3.87.25-6.79,7.3-9.17,13.25l-15.81,10.51c-5.61,9.33-14.52,17.51-25.49,11.95l-9.8-18.6-9.25,19.83c-9.67-4.51-20.28-8.69-25.48-3.92l-6.3,21.47-22.65-1.6c.23-.15-1.02-6.81-2.38-5.87l-5.24,3.63c-3.46-.12-9.18-.27-12.38-.68-.48-3.75-5.37-9.28-9.06-9.74-4.96-.61-11.68,2.67-11.7,7.08-3.55-.46-8.87-.69-12.65-.91.28-1.63-3.39-8.05-5.56-6.92l-8.66,4.53-13.05-.27Z" />
  <path class="cls-5" d="M1200,514.12v140.37l-47.38,2.89-6.83-7.15c-1.19-8.05-4.11-20.13-8.24-27.08l-41.05-6.71c-.85-.14-2.44-.52-3.3-.6-1.77-2.79-3.9-6.49-6.42-7.45s-9.51.56-12.87,1.59c-11.83,3.65-21.12-.47-32.05-1.73-49.62-5.72-98.47-3.4-148.83.15-7.77.55-13.17,7.23-14.88,13.72l-9.04,34.28c-.76,2.9-1.68,9.15-3.8,8.72l-8.64-1.78c-3.36-5.81-14.24-16.78-21.3-17.16-34.99-1.89-70.88-7.94-103.86,2.66-11.21,3.6-19,24.94-38.76,15.33l-10.49,25.28c-25.88,13.15-49.49,14.99-69.08,20.83,2.27.12-59.98,6.66-62.27,13.19.1-2.91-.43-9.72-3.34-10.11l-10.78-1.46c-123.95-16.82-85.77-30.71-116.14-63.94-2.76-3.02-15.23-6.73-17.22-3.44-9.6,15.87-8.78,24.7-19.04,24.92s-6.73-9.25-22.3-14.23c-1.87-.6-4.46,3.15-5.62,4.66-13.09-4.19-4.85-25.2-19.61-44.18l-89.07-4.49c-43.35-2.19-91.3-.51-134.17,4.5l-11.18,34.29c-35.44-.87-68.76-1.14-102.45.01v-86.67l92.29-4.78c3.17-.16,9.69-4.84,11.66-6.02,2.47-1.48.38-10.86-2.63-11.11-34.02-2.79-68.91-4.42-101.32-4.75v-16.67l136.72-1.7,293.03-1.27c19.37-.08,37.21-.59,55.67.48l107.52,6.22c13.67.79,26.89,7.39,41.25-6.8l-75.99-9.29c-2.21-6.82,20.86-1.83,45.73-1.6l479.02,4.48,26.67.64,90.38,2.95ZM640,521.67c0-.92-.75-1.67-1.67-1.67s-1.67.75-1.67,1.67.75,1.67,1.67,1.67,1.67-.75,1.67-1.67ZM137.07,544.21c-17.96,12.33-15.28-10.86-21.07,8.13-.78,2.55,8.04,6.72,10.52,6.04l13.26-3.63c2.81-.77-.25-11.89-2.71-10.54Z" />
  <path class="cls-2" d="M1200,312.39v83.73l-323.14,21.52c-8.07.54-13.33-.06-17.46,4.4l41.99,2.71,116.18,13.65,34.84,3.79c-7.5,7.19-14.62,1.31-22.29,1.34l-193.75.82-446.64-4.31c18.85,4.57,37.93,5.69,57.21,9.16l-109.79-4.18-299.9-15.57-37.25-2.77v-66.67l212.51,1.38c2.48.02,7.49-4.44,8.13-6.23,3.5-9.82-18.24,5.19-31.44-10.37-21.37-.43-40.38,3.61-62.75,7.2,1.56-4.46,5.85-10.66,9.26-14.3-9.16-9.55-17.12-19.96-22.38-34.54,32.23-3.08,108.51,6.39,132.7,3.72,17.85-1.97,27.64-.24,44.63,1.9,52.46,6.6,105.85,6.75,158.7,6.15,12.54-.14,26.92-4.62,40.31-4.13l115.04,4.28c36.4,1.35,70.61,1.21,107.35,7.55-41.69,8.66-78.86,13.5-118.98,17.89l-43.47,5.21,203.93,1.45c121.98.87,241.48-9.64,361.46-25.62l15.15-2.02,69.84-7.14Z" />
  <path class="cls-1" d="M13.05,170.27c4.26,1.28,9.44,2.11,14.22,2.39,3.78.22,9.1.45,12.65.91l20.75,2.66c3.2.41,8.92.56,12.38.68,1.05.54,5.53,2.09,7.62,2.24l22.65,1.6,218.2,21.12c-16.51,4.49-31.35,7.62-46.64,9.18l-105.74,10.73c284.97,39.4,572.16,44.29,859.28,19.1,12.8-1.12,24.03-4.34,34.99-6.84l-149.7-8.4c-2.5-.14-7.31-2.87-8.95-4.18-1.19-.95,2.22-6.57,4.06-6.71l105-7.93,186.17-13.14v118.71l-69.84,7.14-15.15,2.02c-119.98,15.97-239.48,26.48-361.46,25.62l-203.93-1.45,43.47-5.21c40.13-4.38,77.29-9.22,118.98-17.89-36.75-6.34-70.96-6.2-107.35-7.55l-115.04-4.28c-13.39-.5-27.77,3.99-40.31,4.13-52.85.59-106.25.44-158.7-6.15-16.99-2.14-26.78-3.87-44.63-1.9-24.19,2.67-100.47-6.8-132.7-3.72,5.25,14.57,13.22,24.99,22.38,34.54-3.41,3.64-7.71,9.84-9.26,14.3,22.36-3.59,41.38-7.63,62.75-7.2,13.19,15.56,34.94.55,31.44,10.37-.64,1.79-5.65,6.25-8.13,6.23l-212.51-1.38v-190l13.05.27Z" />
  <path class="cls-8" d="M1093.19,615.84c-7.9-.79-27.52-3-28.58,11.56,7.91,2.09,19.65,12.9,20.83,21.09l-10.49,7.29c-5.06,3.52,18.98,18.18,30.25,28.16,1.82,1.62,4.84,8.77,6.91,8l11.13-4.13c7.72,4.81,18.65,6.31,27.52,3.12l20.37-7.33-16.05-10.39c-3.7-2.4-3.81-11.55-2.47-15.85l47.38-2.89v99.55l-33.31,2.21c-22.51-.6-16.37-22.3-55.89-.37-.61-14.47-.78-36.88-13.39-41.48-17.24-6.29-17.74,32.77-17.92,39.11-8.53,4.32-18.62,5.55-28.84,3.13l-20.94-4.95c-6.78,7.01-10.42,10.33-16.93,14.44-4.17,2.63-14.08-5.01-18.98-4.92-17.44.32-42.93-2.06-57.45,2.17-12.83,5.2-23.61,9.15-35.66,5.7l-18.45,3.53c-7.82-.34-6.03,1.24.8,3.21,25.84,21.83,27.45-14.47,46.87,1.85l-9.05,7.02,12.73,2.75c.26,2.29,1.33,7.58,2.12,11.39l27.12,2.78-14.42,14.17c27.3,9.72,45.97-3.8,64.41,6.12l-25.81,22.51c20.43,3.98,34.96,5.62,51.84,6.66-.4,6.53-.59,14.9-.33,21.45l-22.47-3.75c-1.52-.25-6.94-6.69-7.35-5.2l-2.41,8.89-18.55-.95c-.13-12.32-5.12-18.2-15.78-23.21-24.67-11.59-54.99-16.3-76.03,4.51-13.2,13.05-39.48,25.35-43.89,19.05-3.41-4.87-8.5-12.63-12.4-14.98l-9.92-5.98c29.06-4.82,46.18,4.28,70.85-9.77-10.73-2.78-20.55-3.68-28.94-3.77-1.33-1.9-3.59-9.74-6.37-10.98l-12.34-5.53,58.33-2.44c-7.64-14.18-17.8-23.04-29.59-29.49l9.48-5.04-31.99-5.95,8.51-5.02c1.66-.98,3.09-6.89,1.55-8.04-2.06-1.53-7.2-.45-10.36.68l-19.4,6.94c-4.02,1.44-9.6,7.2-12.2,10.26-7.2.91-13.37-4.03-17.32-10.69l-46.41-2.68c8.82,7.98,14.71,14.13,21.36,22.93,31.63,6.39,21.73-6.87,42.47-5.16l4.44.31c1.48.1,5.46,2.71,4.35,3.68s-5.53,4.04-6.99,4.2l-26.96,3.01c-6.83,8.85-14.05,16.17-21.23,19.53,3.77,3.62,9.58,9.65,8.78,12.96s-6.07,8.11-9.33,9.06c-9.49,2.76-25.95,12.34-33.66,19.92l-14.04-2.43c-1.42-.25-3.11,4.64-3.45,5.9l-5.23,4.04c-8.42.64-17.88,4.92-24.35,13.87,13.9,11.37,43.18,11.95,57.75,11,1.28-.08,3.84.36,5.12.4l24.55.75c3.31.1,9.77-.75,13.02-.43,17.38,1.73,51.26-.98,70.12-5.78,15.43-3.93,30.52,1.65,46.72,2.48,9.46.49,24.75-.28,32.51.06l7.65.33c5.89.26,17.26.2,23.44-.35-.29,16.11,7.49,2.49,9.95,21.46.36,2.75-9.36,1.22-11.9.14l-12.48-5.29c-6.63-2.81-2.74,21.6-29.87,17l-37.19-16.33c-9.14-4.01-21.79-4.3-32.06-3.34l-3.95,3.27-9.64.63-7.99.56c-1.72.12-2.95,4.07-2.82,5.69l-2.4-.04c-3.95,1.26-9.38,6.56-10.3,10.43l-19.02,9.57-30.22.74c-9.23.23-35.01-7.47-38.55-.42l-7.22,14.39c-14.56-11.77-26.94-25.57-38.68-41.2-21.19-28.23-20.62-3.11-38.05-29.61l-4.27,7.96c-.17.31-21.59-1.24-28.7,9.53l-13.5,20.46c-3.43,5.21-2.43,19.26-1.63,25.49l2.42,18.73c-2.76,8.41-2.22,13.26-1.73,21.23l1.86,29.96c.29,4.67-6.55,12.34-11.03,12.44-6.55.15-14.52-9.1-10.76-15.33,5.9-9.78,4.51-15.7-.51-24.65l.88-6.46c.9-1.46,2.54-4.8,2.55-6.67.1-13.55.97-40.2,1.87-55.6-2.29,4.38-13.9,16.54-19.81,13.51l-20.59-10.57c-3.48-1.79-23.58-14.21-19.9-20.42l7.61-17c2.9-6.47,4.29-14.53,2.34-20.01l-32.53,49.53c-18.28,7.3-46.02,50.29-65.56,56.84l-17.8,5.97c-.42.62-3.87-6.39-2.12-7.14l9.25-4c-13.16.08-29.18.91-33.75-10.98,10.16-4.99,26.01-5.59,37.5-5.56l16.33-9.42-26.56,1.07c-14.4.58-27.69,1.03-40.6,3.85-18.33-18.91-42.54-32.16-71.53-31.97-13.52.09-28.32,8.14-41.03,11.81l-24.29,7.01,7.59,6.86-4.36,9.8c-7.25-1.68-10.6-9.47-9.96-17.15,11.46-16.91,16.37-36.05,17.68-56.16.44-6.68,6.26-17.26.75-23.61.24-7.6-.07-20.09-.66-27.14l40.01.97-16.31,24c35.89,9.84,59.67,2.11,87.82,7.16,2.42.44-25.09,20.73-32.38,33.89,11.12,13.92,59.98,14.5,79.17,10.78s39.82,8.51,58.73-7.71l-20.04-3.67c1.45-11.28-2.8-27.6-15.69-26.41l-6.55.61c-1.22.11-1.93-3.46-1.95-4.67-.03-1.82,4.85-3.53,6.91-3.34,20,1.8,66.95.7,87.95-8.37l-25.09-10.01c3.68-9.01,46.6-18.26,28.29-23.05l-11.12-2.91c-1.55-.4-7.31,2.86-8.26,1.63l-7.06-9.12-52.89,17.64c-12.6,4.2-18.14,8.34-26.31,20.36-7.83,3.56-61.54,7.29-61.84-12.54,17.68-.08,29.31,5.32,44.79-3.86l-25.47-20.56-22.7-23.16,4.48-9.63c-11.05-3.25-18.28-4.84-21.41-10.76,29.96-10.03,51.87-.77,74.16-1.17l33.01-.59,28.79-.57c22.64-.45,44.31-.24,65.98,1.23,4.84.33,12.91,2.65,16.88,1.47l11.33-3.35c3.09-.91,8.7,10.34,7.78,13.94l-9.87,38.51c7.13-6.97,12.18-11.85,21.75-17.49,9.16,27.73-3.84,68.55,7.33,78.88l2.15-66.55c.1-3.08,7.07-9.28,9.26-8.01l10.79,6.22c-.06,1.31.23-5.34.56-9.15l1.06-12.15-8.92-8.87c-2.61-2.6-.94-14.56,1.21-16.23,27.8-.87,86.65,4.37,107.4,16.68l3.02,17.95c-1.99,4.27-2.77,4.93-1.38,5.53l11.02,4.73c-14.75.88-32.04,3.17-46.24,1.06-12.91-5.33-28.63-15.66-40.31-1.78l9.09,6.17c2.27,1.54-4.41,6.58-8.5,10.21l34.09,5.4-12.25,15.88c28.68,7.26,58.41,10.01,87.69,1.06-23.73-5.21-14.67-19.68-23.19-21.33l-17.06-3.32c-.27-1.1,7.46-7.45,9.97-6.58l9.56,3.35,31.95-1.26c1.46-.06,3.47-7.65,2.26-8.46-1.82-1.22-4.44-2.88-7.51-4.45l-24.81-12.64c-5.98-3.05-9.63-8.6-8.1-15.14,42.16-13.79,17.44-2.6,56.28-10.12,36.55-7.08,45.45,13.14,86.97-7.8l-59.32-3.2c-6.13-.33-18.28-5.37-23.61-7.12,1.44-10.73-1.15-16.99-9.52-21.59,36.8-15.16,46.42-12.3,74.51-41.64-2.17-4.62-4.04-8.94-5.34-11.18l8.64,1.78c2.12.44,3.03-5.82,3.8-8.72l9.04-34.28c1.71-6.49,7.12-13.17,14.88-13.72,50.36-3.55,99.2-5.86,148.83-.15,10.93,1.26,20.22,5.38,32.05,1.73,3.36-1.04,10.35-2.55,12.87-1.59s4.65,4.66,6.42,7.45ZM406.84,786.7l-12.82,1.44,11.52,5.06c1.93.84-2.53,4.85-4.63,7.61l38.87,6.56c3.52.59,15.4-1.75,14.25-4.99l-4.54-12.89c-.56-1.59-.78-5.8-1.05-7.46-.36-2.21-5.02-5.55-6.98-4.45s-3.36,7.34-2.41,8.1l-5.81.5c-4.85-7.26-11.47-15.61-17.03-22.14l-21.74,12.37c-8.63-4.08-14.93-8.86-23.66-2.95l36.02,13.24ZM573.33,811.67c0-.92-.75-1.67-1.67-1.67s-1.67.75-1.67,1.67.75,1.67,1.67,1.67,1.67-.75,1.67-1.67ZM603.33,875c0-.92-.75-1.67-1.67-1.67s-1.67.75-1.67,1.67.75,1.67,1.67,1.67,1.67-.75,1.67-1.67Z" />
  <path class="cls-6" d="M1200,396.12v118.01l-90.38-2.95-26.67-.64-479.02-4.48c-24.87-.23-47.94-5.22-45.73,1.6l75.99,9.29c-14.35,14.19-27.58,7.59-41.25,6.8l-107.52-6.22c-18.46-1.07-36.3-.57-55.67-.48l-293.03,1.27-136.72,1.7v-93.33l37.25,2.77,299.9,15.57,109.79,4.18c-19.28-3.48-38.35-4.59-57.21-9.16l446.64,4.31,193.75-.82c7.67-.03,14.8,5.85,22.29-1.34l-34.84-3.79-116.18-13.65-41.99-2.71c4.12-4.45,9.38-3.86,17.46-4.4l323.14-21.52ZM460.83,448.86c-8.64-.85-9.14-.9-1.45-.13,3.74.32,5.05.43,1.45.13Z" />
  <path class="cls-8" d="M356.48,659.87c-1.22,3.45-3.15,14.39.05,16.77l33.34,24.78c12.29,9.13-9.66,24.15-20.25,24.93-10.04.74-23.08,2.76-30.53,3.96-11.52-8.62-10.52,11.9-17.53,8.97l-10.06-4.2c-2.89-1.21-7.37,7.57-4.95,9.59l8.84,7.42c3.21,2.69,6.29,5.48,8.24,7.48-2.81,6.41-13.75,7.46-20.01,3.3-17.22-11.46-31.78-9.1-50.72-7.92l-29.25,1.83c-.03,3.97-1.95-37.29-16.14-42.2-17.2-5.95-15.64,36.76-15.81,41.49l-19.96-1.6c-4.9-.39-15.16,4.11-20.49,6.34-36.91-9.94-32.28-12.96-66.51,1.79-1.2-15.49-70.57-1.66-84.74-9.25v-103.33c33.7-1.16,67.01-.88,102.45-.01l11.18-34.29c42.86-5.01,90.81-6.69,134.17-4.5l89.07,4.49c14.76,18.98,6.51,39.99,19.61,44.18Z" />
  <path class="cls-3" d="M1113.71,1080.72l1.91,7.87c.48,1.99-4.94,4.86-6.21,5.53l-10.17.4c-3.02.12-4.48,7.14-7.41,12.04-4.59,7.68-20.69,6.73-32.4,5.73,16.46,17.6,41.66,17.91,63.23,16.91,9.29,4.97,22.55,8.21,34.54,7.51l4.7,7.84c1.28,2.15-2.95,4.23-8.79,8.64,23.8,5.76,29.17-2.86,46.9,4.06v86.06c-6.92-1.33-13.62-4.56-21.25-8.07l-25.39-11.67c-5.43-2.5-13.13-11.37-19.69-12.6l-4.24-.8c-6-5.08-13.3-10.2-21.4-14.92l-98.92-57.67c-26.62-15.52-53.09-29.04-75.91-47.26,10.09,2.98,20.36,8.93,31.67,13.29,32.42,12.5,24.77,14.03,35.89,16.37,1.15.24,2.32-3.33,1.47-4.15l-5.17-4.96,5-4.69c2.38-2.23,25.49,11.21,40.79-3.76l-7.18-12.35c-5.27-5.78,72.87,10.83,35.84-3.18l-7.58-5.16c-1.01-.69.62-4.86,1.81-4.72l7.04.83c38.81,4.6,25.4-3.46,40.92,2.88Z" />
  <path class="cls-3" d="M106.53,1060.66l4.81,32.45,48.92,1.24c-5.98,4.62-7.9,11.51-4.97,19.25l-4.84,11.4,13.31,18.84,25.26-13.01c3.98-2.05,10.71-2.39,13.99-.46-27.74,24.67-85.01,45.24-113.61,72.09L0,1246.67v-73.33c29.84-1.85,20.2-19.77,26.25-20.14l14.1-.85c2.98-.18,12.44-.36,12-3.1l-1.34-8.27,8.3-.3.64,3.95c.18,1.08,4.79,1.85,5.92,1.54l14.2-3.85c1.83.04,5.05.16,6.73,0,3.57-.34,10.06-1.88,13.55-3.1l6.12-2.13c9.14.39,17.69-1.49,26.39-8.22-10.07-8.79-21.42-9.86-33.72-8.81l-8.88-5.16c20.74-36.41-14.74-19.76-10.54-60.88l2.45-4.23c.6-1.04,3.89,1.55,4.04,2.75l1.16,9.1,19.16-.95Z" />
  <path class="cls-10" d="M79.72,1054c-4.19,41.13,31.28,24.47,10.54,60.88l8.88,5.16,7.32,17.03-6.12,2.13c.24-2.03-5.71-5.1-8.91-5.51-2.72-.35-4.49,5.62-4.64,8.61-1.67.16-4.9.04-6.73,0-.7-2.29-6.14-7.09-8.91-6.05l-11.85,4.42-8.3.3-13.22-4c-14.03-4.24-25.06-4.34-37.79,3.02v-113.33c26.67-3.08,67.57,38.07,79.72,27.33Z" />
  <path class="cls-3" d="M1200,872.39v80.39l-15.79-6.77-3.43,14.34-1.54-33.32c-.21-4.43-7.23-11.38-10.95-10.78-3.11.5-7.98,7.24-8.04,10.45l-.89,49.2-9.68-13.45,1.93,25.99c.28,3.72-3.48,10.52-6.33,12.6-14.68,1.57-19.85,8.4-31.37,21.03v-103c25.07-3.56,32.23-24.59,33.51-45.05l19.06-2.78,33.52,1.15Z" />
  <path class="cls-9" d="M46.7,822.4l-3.45,3.08c-.88.79,2.01,4.95,3.14,4.6l10.44-3.24,17.05,2.24c8.52,4.48,20.5,8.7,29.21,7.96-6.68,17.68,5.08,70.5-6.23,66.8-6.87-5.04-10.17-16.12-11.9-25.82-20.1,1.05-65.76-1.87-84.96-4.69v-66.67l6.34,1.81c1.77.51,3.49-2.47,4.79-4.37,13.59,3.67,29.77,5.16,35.57,18.29Z" />
  <path class="cls-4" d="M191.71,756.05l-.99,27.2c-1.42,31.56,3.23,61.17-7.99,92.83-6.6-31.44,3.68-85.05-9.39-109.06-.05-1.16-.19-4.03-.16-5.32.05-1.92-6.5-3.42-7.23-1.65l-2.77,6.79c-13.88,11.67-.52,31.52-13.34,33.41l-12.58-3.19c5.28-17.12-23.76-23.17-31.46-22.45-4.32.4-7.73,9.97-10.16,15.05l-9.62-7.5c-2.71-2.11-10.16,1.24-12.58,2.37l9.96,5.64c-29.53-1.55-15.64-16.54-51.67-14.15v-9.15s-20.35,6.85-20.35,6.85l15.38.1-4.98,16.38-21.77-3.53v-33.33c14.17,7.59,83.54-6.24,84.74,9.25,34.23-14.75,29.6-11.73,66.51-1.79,5.33-2.23,15.6-6.73,20.49-6.34l19.96,1.6Z" />
  <path class="cls-9" d="M1200,1091.34v43.7l-9.9-2.52c-2.65-.67-1.31-7.17-1.66-10.99l-25.84,1.91-5.4,13.25c-11.99.71-25.25-2.53-34.54-7.51l-1.97-10.85c-.5-2.75,6.13-6.41,8.75-8.38l-20.02-15.86c1.27-.67,6.69-3.54,6.21-5.53l-1.91-7.87,25.61,10.45c13.13-3.3,32.86-13.88,42.63-8.95l18.05,9.12Z" />
  <path class="cls-3" d="M137.27,797.07l-10.91,8.31-19.16,2.01c6.85,13.27,7.57,16.18,5.53,25.53l-9.64,4.12c-8.72.74-20.7-3.48-29.21-7.96,1.06-13.92,12.18-5.53,27.42-14.34,1.78-1.03-2.63-5.51-4.51-8.82-11.89-20.95-31.66,10.52-55.19-7.05-9.57-7.15-22.44-7.4-34.8-5.67l4.33,10.92c-1.3,1.9-3.02,4.87-4.79,4.37l-6.34-1.81v-20l21.77,3.53,4.98-16.38-15.38-.1,20.35-6.85v9.15c36.04-2.39,22.15,12.6,51.68,14.15l-9.96-5.64c2.42-1.14,9.88-4.48,12.58-2.37l9.62,7.5c2.44-5.08,5.84-14.65,10.16-15.05,7.7-.71,36.74,5.33,31.46,22.45Z" />
  <path class="cls-3" d="M1200,754.04v52.89l-35.46-.67c-1.4-.03-8.01-3.92-7.07-5.03l5.05-5.99c-16.32-.55-33.94-3.83-50.85-8.71l.03-9.13,24.29-4.39c1.77-.32,7.3,3.35,6.27,4.51l-5.4,6.05,25.15-4.15-9.87-8.29c7.19-6.45,11.02-9.89,14.55-14.87l33.31-2.21Z" />
  <path class="cls-4" d="M1200,806.93v33.36l-29.77-4.62c-5.17-.8-15.53.22-20.44.33.37-6.01-2.59-17.8-4.39-25.56-1.14-4.66-14.45-3.03-18.15-.68-4.85-2.41-10.94-4.98-15.68-6.13l.1-17.1c16.9,4.88,34.53,8.16,50.85,8.71l-5.05,5.99c-.94,1.11,5.67,5.01,7.07,5.03l35.46.67ZM1117.95,794.72l3.72,5.46c.74,1.09,5.74-.89,5.24-2.06-.56-1.31-1.71-3.66-2.34-4.8s-7.43.22-6.62,1.4Z" />
  <path class="cls-6" d="M0,563.33v-26.67c32.4.33,67.29,1.96,101.32,4.75,3.02.25,5.11,9.63,2.63,11.11-1.97,1.18-8.49,5.86-11.66,6.02l-92.29,4.78Z" />
  <path class="cls-4" d="M96.86,903.84c4.7,3.44,4.95,13.6.57,19.27-26.22-33.66-59.32-31.24-97.43-23.11v-26.67c19.2,2.82,64.86,5.73,84.96,4.69,1.73,9.69,5.02,20.78,11.9,25.82Z" />
  <path class="cls-9" d="M1200,840.29v32.1l-33.52-1.15-19.06,2.78,2.37-38.02c4.91-.11,15.27-1.13,20.44-.33l29.77,4.62Z" />
  <path class="cls-9" d="M76.25,1039.83c4.12-.23,13.21,2.62,16.37,5.22l14.21,11.7-.31,3.92-19.16.95-1.16-9.1c-.15-1.2-3.44-3.79-4.04-2.75l-2.45,4.23c-12.15,10.74-53.05-30.41-79.72-27.33v-13.33c12.98-1.54,25.01,3.28,37.06,11.9l2.35-5.53c.44-1.04,3.85-1.13,4.43-.17l3.68,6.1c2.87,4.77,6.45,15.41,11.17,15.15l17.56-.96Z" />
  <path class="cls-9" d="M51.01,1140.97l1.34,8.27c.44,2.74-9.02,2.92-12,3.1l-14.1.85c-6.05.37,3.59,18.29-26.25,20.14v-33.33c12.72-7.36,23.76-7.26,37.79-3.02l13.22,4Z" />
  <path class="cls-10" d="M1200,1135.04v22.2c-17.72-6.92-23.1,1.7-46.9-4.06,5.85-4.4,10.08-6.49,8.79-8.64l-4.7-7.84,5.4-13.25,25.84-1.91c.35,3.82-.99,10.31,1.66,10.99l9.9,2.52Z" />
  <path class="cls-8" d="M1013.83,206.82l-105,7.93c-1.84.14-5.25,5.76-4.06,6.71,1.63,1.31,6.45,4.04,8.95,4.18l149.7,8.4c-10.96,2.51-22.19,5.72-34.99,6.84-287.12,25.19-574.3,20.31-859.28-19.1l105.74-10.73c15.3-1.55,30.14-4.69,46.64-9.18l-218.2-21.12,6.3-21.47c5.19-4.77,15.81-.59,25.48,3.92l9.25-19.83,9.8,18.6c10.96,5.56,19.87-2.62,25.49-11.95l15.81-10.51c2.38-5.95,5.3-13,9.17-13.25,3.23-.21,10.55,4.68,13.75,4.18l19.31-3.01c26.27-4.09,16.28-13.62,30.33-13.59,3.11,0,7.56,5.07,11.54,9.18l26.6-5.4c14.9-21.5,8.37,2.02,35.4,4.69,5.5.54,14.29-9.66,19.65-10.73l36.53-7.3,35.48,14.14c13.81,5.5,30,5.6,44.33,1.83l15.1,11.83c7.8-9.23,20.41-16.46,32.96-18.35l3.43-15.38c9.9,13.6,17.4,10.5,29.59,8.04l29.76-6.03c3.23,6.73,8.87,15.21,12.52,13.19l14.58-8.08c3.01.1,9.33,6.8,12.87,5.71,15.97-4.92,18.27-16.48,25.87-13.94,9.1,3.04,13.39,16.36,17.9,14.91l13.16-4.25c2.33-.75,7.54-5.95,9.67-4.76l9.7,5.37,5.95,3.27c1.05.58-1.44,3.59-2.52,4.14l-6.83,3.5c-.08,4.14,11.91,18.3,17.8,16.55l30.42-19.04c13.14,5.8,30.32,7.22,42.03,6.69l7.88,8.39c1.5,1.6,7.25-1.15,9.26-1.2,2.71,5.65,5.44,14.96,9.72,16.17,3.67,1.04,11.21-4.4,14.72-6.74,16-10.63,34.11,5.41,38.54,18.96,31.06-5.69,15.61,17.52,51.23-13.03,5.61,3.18,15.94,12,23.32,18.44l28.34,3.88-9.17,10.85,30.49,1.25,17.99,26.27Z" />
  <path class="cls-1" d="M550.91,723.46c-.12,3.59,2.66,11.9,6.25,12.6,38.06,7.42,74.26,8.75,110.47-4.73-7.78-8.46-18.88-19.21-26.66-19.62l-27.78-1.45c19.6-5.84,43.2-7.68,69.08-20.83l10.49-25.28c19.75,9.61,27.55-11.73,38.76-15.33,32.99-10.6,68.87-4.55,103.86-2.66,7.06.38,17.94,11.35,21.3,17.16,1.29,2.24,3.17,6.57,5.34,11.18-28.09,29.34-37.71,26.48-74.51,41.64,8.37,4.61,10.96,10.87,9.52,21.59,5.34,1.75,17.48,6.79,23.61,7.12l59.32,3.2c-41.53,20.94-50.42.71-86.97,7.8-38.84,7.53-14.12-3.66-56.28,10.12-2.37.77-6.74,2.6-9.27,3.6-20.75-12.31-79.61-17.55-107.4-16.68-2.15,1.67-3.82,13.63-1.21,16.23l8.92,8.87-1.06,12.15c-.33,3.8-.62,10.46-.56,9.15l-10.79-6.22c-2.2-1.27-9.16,4.93-9.26,8.01l-2.15,66.55c-11.18-10.33,1.82-51.14-7.33-78.88-9.57,5.65-14.63,10.52-21.75,17.49l9.87-38.51c.92-3.59-4.68-14.85-7.78-13.94l-11.33,3.35c-3.97,1.17-12.04-1.14-16.88-1.47-21.67-1.47-43.34-1.68-65.98-1.23l-28.79.57-33.01.59c-22.29.4-44.2-8.87-74.16,1.17l-9.27-.08c-2.21-.02-7.05,1.95-7.96,2.7l-5.87.15c-1.95-2-5.03-4.78-8.24-7.48l-8.84-7.42c-2.42-2.03,2.07-10.8,4.95-9.59l10.06,4.2c7.01,2.93,6.01-17.59,17.53-8.97,7.45-1.2,20.49-3.21,30.53-3.96,10.59-.78,32.54-15.8,20.25-24.93l-33.34-24.78c-3.2-2.38-1.27-13.32-.05-16.77,1.16-1.52,3.75-5.26,5.62-4.66,15.58,4.97,11.68,14.46,22.3,14.23s9.44-9.05,19.04-24.92c1.98-3.28,14.45.42,17.22,3.44,30.37,33.22-7.81,47.12,116.14,63.94l10.78,1.46c2.91.39,3.44,7.2,3.34,10.11Z" />
  <path class="cls-4" d="M1093.19,615.84c.86.09,2.45.46,3.3.6l.07,5.18c.08,5.37,28.37-6.24,39.92,14.49,3.28,5.89,6.29,10.97,9.3,14.12l6.83,7.15c-1.34,4.29-1.23,13.45,2.47,15.85l16.05,10.39-20.37,7.33c-8.87,3.19-19.8,1.69-27.52-3.12l-11.13,4.13c-2.08.77-5.09-6.39-6.91-8-11.27-9.98-35.31-24.65-30.25-28.16l10.49-7.29c-1.18-8.19-12.92-19-20.83-21.09,1.05-14.57,20.68-12.35,28.58-11.56Z" />
  <path class="cls-2" d="M550.91,723.46c2.29-6.53,64.54-13.07,62.27-13.19l27.78,1.45c7.79.41,18.89,11.15,26.66,19.62-36.21,13.48-72.4,12.15-110.47,4.73-3.59-.7-6.37-9.01-6.25-12.6Z" />
  <path class="cls-8" d="M1145.78,650.23c-3.01-3.15-6.03-8.23-9.3-14.12-11.54-20.74-39.84-9.12-39.92-14.49l-.07-5.18,41.05,6.71c4.13,6.94,7.05,19.03,8.24,27.08Z" />
  <path class="cls-6" d="M137.07,544.21c2.46-1.35,5.52,9.77,2.71,10.54l-13.26,3.63c-2.47.68-11.29-3.49-10.52-6.04,5.79-18.99,3.11,4.2,21.07-8.13Z" />
  <path class="cls-4" d="M780.67,934.16l-7.55,4.75c11.88,3.06,24.14,6.22,35.54,4.7-.51,2.35.8,7.12,1.49,9.43-9.17,7.33-22.47,8.26-37.91,12.53,28.93,8.38,58.53,12.66,87.76,11.41l7.17-.31c8.03,1.68,16.69-2.09,19.49-9.9,7.86-.56,17.04.08,22.91,3.88-5.64,10.33-7.29,21.79-3.39,32.83-14.27.49-26.05.38-44.98,10.42l55.92,15.02c4.36,4.01,10.76,9.5,14.94,11.58l26.93,13.46-22.78,8.09,8.44,5.23c1.55.96-1.96,4.11-4.6,8.56l18.36-.24,2.98,8.1c.89,2.41,7.94,2.77,11.14,3.98l12.01,11.45,22.77-1.46c-1.03-16.73-8.81-24.05-25.41-27.72l8.65-4.38c5.4,2.03,19.2-.51,22.11,4.6,3.56,6.24,9.41,13.05,13.66,12.57l-6.83,7.9c-1.3,1.51,6.52,3.27,7.95,2.02l3.53-3.06,4.69.45,7.18,12.35c-15.3,14.97-38.42,1.53-40.79,3.76l-5,4.69,5.17,4.96c.85.82-.32,4.39-1.47,4.15-11.12-2.34-3.47-3.87-35.89-16.37-11.31-4.36-21.58-10.31-31.67-13.29-28.43-8.4-51.57-34.1-69.81-36.8-4.44-5.8-10.03-10.74-17.66-16.2l-67.4-48.21c-1.47-1.05-8.73-3.06-10.43-2.26-2.26,1.07-3.77,3.44-5.66,6.39l-10.8-3.77c11.87,24.59,22.14,18.13,42.32,47.26-8.08.66-15.19-5.62-21.28-12.84l-22.57-26.72c-7.32-8.66-12.47-18.96-25.35-18.08-16.19,1.11-18.21-10.21-22.63-21.89l-12.35-32.61-25.27,10.36c-29.34,12.03-15.15-1.87-54.24,5.78-.8-6.22-1.81-20.28,1.63-25.49l13.5-20.46c7.1-10.77,28.53-9.22,28.7-9.53l4.27-7.96c17.43,26.5,16.85,1.39,38.05,29.61,11.74,15.63,24.12,29.43,38.68,41.2l7.22-14.39c3.54-7.04,29.32.65,38.55.42Z" />
  <path class="cls-4" d="M402.8,950.13c4.57,11.88,20.59,11.06,33.75,10.98l-9.25,4c-1.75.76,1.7,7.76,2.12,7.14l17.8-5.97c-3.19,14.12-61.73,46.72-68.44,59.55l-8.6,4.3c-1.1.16-3.59.55-4.78.88-1.65.46-2.37,4.43-2.21,5.59-52.71,31.91-104.15,67.7-160.17,93.78-3.28-1.93-10.01-1.59-13.99.46l-25.26,13.01-13.31-18.84,4.84-11.4c-2.93-7.74-1.01-14.63,4.97-19.25.8.02,2.46-.23,3.31-.34,10.81,1.68,24.9-2.71,31.81-7.96-3.45-7.46-4-12.47-3.42-18.74,11.64-8.19,30-2.73,43.29-9.56,34.31-17.62,41.36-5.77,41.73-21.35,4.5-1.87,12.52-5.61,17.54-8.5,3.21-1.85.24-12.99-1.91-16.04s-7.78-4.92-12.36-5.61c.95-4.03-5.43-12.81-10.22-13.21l-33.43-2.8,5.63-16.22c22.61,13.34,68.97.14,68.97.14l.62,7.69,26.68.73-3.97-8.09c-.66-1.34,5.97-.3,7.62.27,17.38,6,33.5,3.31,51.1-3.38-6.45-13.28-7.29-18.29-3.55-27.87l13.1,6.61ZM173.05,1103.8c-1.78-5.14-13.47-5.01-13.22-.01.18,3.53,14.37,3.33,13.22.01ZM183.33,1106.67v6.67h16.67v-6.67h-16.67Z" />
  <path class="cls-3" d="M363.67,777.18l22.7,23.16,25.47,20.56c-15.48,9.18-27.11,3.78-44.79,3.86.3,19.83,54.01,16.11,61.84,12.54,8.17-12.02,13.7-16.16,26.31-20.36l52.89-17.64,7.06,9.12c.95,1.23,6.71-2.03,8.26-1.63l11.12,2.91c18.3,4.78-24.62,14.03-28.29,23.05l25.09,10.01c-21,9.07-67.95,10.17-87.95,8.37-2.07-.19-6.94,1.52-6.91,3.34.02,1.21.72,4.78,1.95,4.67l6.55-.61c12.89-1.19,17.13,15.13,15.69,26.41l20.04,3.67c-18.9,16.23-39.48,3.98-58.73,7.71s-68.05,3.14-79.17-10.78c7.28-13.16,34.8-33.46,32.38-33.89-28.14-5.06-51.93,2.67-87.82-7.16l16.31-24-40.01-.97c-.33-3.94-5.74-10.92-9.35-12.52-4.13-1.83-13.76,5.66-13.99,10.17l-16.71-4.38-.21-26.07,11.93-7.28c3.1-1.89,12.01,7.33,16.02,6.8,11.25-1.48,31.6-4.06,44.27.6l-4.99,11.61c15.94-1.69,26.76,2.11,39.41,12.35,6.58,5.32,21.96-4.47,19.72-12.25l-9.63-.7,5.39-9.35c.78-1.35-2.38-3.95-5.52-7.91,6.12-1.75,17.13-3.93,23.68-3.41Z" />
  <path class="cls-9" d="M389.47,940.07l.24,3.45c-3.74,9.58-2.91,14.59,3.55,27.87-17.6,6.69-33.72,9.38-51.1,3.38-1.65-.57-8.27-1.62-7.62-.27l3.97,8.09-26.68-.73-.62-7.69s-46.36,13.2-68.97-.14l-5.63,16.22c-.86,2.48-4.48,6.52-6.12,8.5l11.37,3.81-2.43,13.99-13.45-.31-.95-49.56,22.96-2.36c2.83-.29,11.43-4.2,10.84-6.94l-2.96-13.78,4.36-9.8c6.82-2.83,13.98-7.74,16.7-13.88,12.72-3.67,27.51-11.72,41.03-11.81,28.99-.19,53.2,13.06,71.53,31.97Z" />
  <path class="cls-3" d="M829.71,850.9c-8.81,1.46-19.93,17.49-31.99,11.89-9.2-4.27-14.76-14.93-17.31-22.91,3.27-.95,8.54-5.76,9.33-9.06s-5.02-9.34-8.78-12.96c7.17-3.36,14.4-10.68,21.23-19.53l26.96-3.01c1.47-.16,5.88-3.23,6.99-4.2s-2.87-3.58-4.35-3.68l-4.44-.31-.1-4.4c2.6-3.06,8.18-8.82,12.2-10.26l19.4-6.94c3.16-1.13,8.3-2.21,10.36-.68,1.54,1.15.11,7.06-1.55,8.04l-8.51,5.02,31.99,5.95-9.48,5.04c11.79,6.46,21.95,15.31,29.59,29.49l-58.33,2.44,12.34,5.53c2.77,1.24,5.04,9.08,6.37,10.98,8.39.09,18.21.99,28.94,3.77-24.67,14.05-41.79,4.96-70.85,9.77Z" />
  <path class="cls-3" d="M1006.29,872.47l12.2,5.95c-13.08,6.66-24.91,10.08-37.93,11.24-6.18.55-17.55.61-23.44.35l-1.83-6.88c-.34-1.28-5.27.6-5.39,1.92l-.42,4.63c-7.76-.34-23.05.43-32.51-.06-16.2-.83-31.29-6.41-46.72-2.48-18.86,4.8-52.74,7.51-70.12,5.78l3.72-7.81c8.88.8,23.85.72,31.91-1.77,4.23-1.31,12.21-14.3,7.92-15.4l-10.48-2.71c-1.67-.43,1.92-4.86,3.3-5.92l3.13-2.41c3.9,2.35,8.99,10.11,12.4,14.98,4.41,6.3,30.7-6,43.89-19.05,21.04-20.8,51.36-16.09,76.03-4.51,10.67,5.01,15.65,10.89,15.78,23.21l18.55.95Z" />
  <path class="cls-9" d="M936.26,922.97l9.59,23.15,12.75-3.97c2.05-.64,6.66-1.83,8.65-2.29,1.87-.43,4.68,4.98,3.69,5.46l-30.03,13.13c-1.79.78-8.79-3.74-8.84-5.7-.06-2.45,2.06-5.39,4.9-10.64l-17.39-15-4.73,18.44-46.34,5.48-2.34,15.85-33,3.17c-9.58.92-20.93-9.97-23.03-17.01-.69-2.31-2-7.08-1.49-9.43l2.22-10.19,19.02-9.57c2.85,1.05,8.49,2.99,8.84.4l1.45-10.83,2.4.04,8.52,2.25c2.06.55,2.1-7.75,2.3-8.51l9.64-.63,3.95-3.27c10.27-.96,22.92-.67,32.06,3.34l37.19,16.33Z" />
  <path class="cls-4" d="M1038.52,872.52c1.16,29.63,3.41,46.68,21.95,68.03-.01,6.43-1.91,13.49-6.35,17.26l-10.23-.4c-6.16-5.69-12.85-9.16-22.37-13-10.16-1.45-43.58-16.89-45.77.58-1.19-.19-3.63.16-4.8.32.99-.47-1.82-5.89-3.69-5.46-1.98.46-6.6,1.66-8.65,2.29l-12.75,3.97-9.59-23.15c27.13,4.6,23.24-19.81,29.87-17l12.48,5.29c2.54,1.07,12.26,2.61,11.9-.14-2.47-18.96-10.25-5.34-9.95-21.46,13.02-1.16,24.85-4.58,37.93-11.24l-12.2-5.95,2.41-8.89c.4-1.49,5.83,4.95,7.35,5.2l22.47,3.75Z" />
  <path class="cls-4" d="M1079.49,753.52l-.54,19.34c-4.61.7-8.52,5.31-13.63,9.01-10.39,7.53-25.17,12.59-38.61,17.77l14.2,14.67-18.77,3.97c-4.68.99-10.47-8.66-13.77-13.27-2.41-3.37-12.55-6.23-15.96-8.85-9.49-7.3-17.06-11.31-30.79-11.56,8.13-6.31,15.4-11.92,20.17-17.85-35.16,15.5-50.94-2.92-48.21,20.71l-12.73-2.75,9.05-7.02c-19.43-16.32-21.03,19.98-46.87-1.85-6.82-1.97-8.62-3.55-.8-3.21l18.45-3.53c12.05,3.45,22.83-.5,35.66-5.7,14.52-4.23,40.01-1.85,57.45-2.17,4.9-.09,14.81,7.56,18.98,4.92,6.51-4.1,10.15-7.42,16.93-14.44l20.94,4.95c10.22,2.42,20.31,1.19,28.84-3.13Z" />
  <path class="cls-4" d="M323.64,759.56l5.87-.15,3.16,3.33c.83.88,4.05.09,4.19-1.1l.6-4.93,9.27.08c3.13,5.92,10.36,7.52,21.41,10.76l-4.48,9.63c-6.55-.52-17.56,1.66-23.68,3.41,3.14,3.97,6.3,6.56,5.52,7.91l-5.39,9.35,9.63.7c2.24,7.79-13.14,17.58-19.72,12.25-12.65-10.24-23.47-14.04-39.41-12.35l4.99-11.61c-12.67-4.66-33.02-2.08-44.27-.6-4.02.53-12.93-8.69-16.02-6.8l-11.93,7.28.25-29.95,29.25-1.83c18.95-1.18,33.5-3.54,50.72,7.92,6.26,4.16,17.2,3.11,20.01-3.3Z" />
  <path class="cls-3" d="M727.42,769.58c2.53-1,6.9-2.82,9.27-3.6-1.52,6.54,2.12,12.1,8.1,15.14l24.81,12.64c3.08,1.57,5.7,3.23,7.51,4.45,1.21.81-.8,8.4-2.26,8.46l-31.95,1.26-9.56-3.35c-2.51-.88-10.24,5.48-9.97,6.58l17.06,3.32c8.52,1.66-.54,16.12,23.19,21.33-29.28,8.95-59.01,6.2-87.69-1.06l12.25-15.88-34.09-5.4c4.1-3.63,10.78-8.67,8.5-10.21l-9.09-6.17c11.68-13.88,27.4-3.55,40.31,1.78,14.2,2.1,31.49-.18,46.24-1.06l-11.02-4.73c-1.39-.6-.61-1.26,1.38-5.53l-3.02-17.95Z" />
  <path class="cls-9" d="M780.41,839.89c2.55,7.98,8.11,18.64,17.31,22.91,12.06,5.6,23.18-10.43,31.99-11.89l9.92,5.98-3.13,2.41c-1.39,1.07-4.97,5.49-3.3,5.92l10.48,2.71c4.28,1.11-3.69,14.1-7.92,15.4-8.06,2.49-23.03,2.57-31.91,1.77l-3.72,7.81c-3.25-.32-9.71.53-13.02.43-.06-1.88-.59-5.97-2.56-6.38-1.31-.27-6.22-.67-7.7-.6l-11.12.54c-1.92.09-3.04,3.68-3.17,5.69-1.28-.04-3.84-.49-5.12-.4-8.11-15.24-38.15-18.8-33.4-24.86l5.23-4.04,15.43,3.04,2.05-6.52c7.7-7.59,24.17-17.17,33.66-19.92Z" />
  <path class="cls-4" d="M1166.69,756.26c-3.53,4.98-7.36,8.42-14.55,14.87l9.87,8.29-25.15,4.15,5.4-6.05c1.04-1.16-4.49-4.83-6.27-4.51l-24.29,4.39-.9-21.51c39.51-21.93,33.38-.23,55.89.37Z" />
  <path class="cls-3" d="M245.89,926.44c-.64,7.68,2.71,15.47,9.96,17.15l2.96,13.78c.59,2.74-8.01,6.65-10.84,6.94l-22.96,2.36-.45-33.38,21.33-6.86Z" />
  <path class="cls-4" d="M827.24,782.74l.1,4.4c-20.74-1.71-10.84,11.55-42.47,5.16-6.65-8.8-12.54-14.96-21.36-22.93l46.41,2.68c3.95,6.66,10.12,11.6,17.32,10.69Z" />
  <path class="cls-3" d="M406.84,786.7c6.46,2.37,20.2,1.62,26.4-.52l5.81-.5,10.45,3.81,4.54,12.89c1.14,3.24-10.73,5.59-14.25,4.99l-38.87-6.56c2.1-2.77,6.56-6.77,4.63-7.61l-11.52-5.06,12.82-1.44Z" />
  <path class="cls-3" d="M724.03,867.32c-4.74,6.06,25.29,9.63,33.4,24.86-14.56.95-43.85.37-57.75-11,6.46-8.95,15.93-13.22,24.35-13.87Z" />
  <path class="cls-4" d="M433.25,786.18c-6.2,2.15-19.95,2.9-26.4.52l-36.02-13.24c8.73-5.91,15.03-1.13,23.66,2.95l21.74-12.37c5.56,6.53,12.17,14.88,17.03,22.14Z" />
  <path class="cls-3" d="M402.8,950.13l-13.1-6.61-.24-3.45c12.91-2.82,26.2-3.27,40.6-3.85l26.56-1.07-16.33,9.42c-11.49-.03-27.34.57-37.5,5.56Z" />
  <path class="cls-3" d="M276.9,919.91c-2.72,6.13-9.89,11.04-16.7,13.88l-7.59-6.86,24.29-7.01Z" />
  <path class="cls-4" d="M156.86,872.9l4.81,15.14c3.92,12.31,13.22,17.69,25.93,22.26,2.5,10.66,2.06,27.32-.27,41.05l-17.48-10.01c-1.46-.52-6.02,3.31-7.55,2.33l-7.83-4.98c-21.4-13.62-3.75-25.28-15.6-25.73l-11.89-.46c.56-7.91,1.41-19.03,2.65-26.47,1.75-10.51,18.22-13.44,27.24-13.12Z" />
  <path class="cls-9" d="M149.85,800.26c7.62,2.22,14.14,50.72-5.98,49.41l-10.7-1.13c-2.42-.26-3.48-4.21-6.16-8.47l-7.01,9.93c-4.84.27-8.44-11.72-7.27-17.08,2.04-9.35,1.31-12.27-5.53-25.53l19.16-2.01,10.91-8.31,12.58,3.19Z" />
  <path class="cls-7" d="M189.44,1013.02c-5.24-.26-11.92,2.47-15.23,6.88-3.8,5.06-3.57,12.99-1.84,20.68-1.23,5.49-1.54,7.67,1.83,3.29l14.05-3.18c2.79-.63,5.35,7.38,5.45,9.43-2.07,4.33-4.71,12.83-4.58,16.54l-5.91,3.18-19.36-2.41-12.69-6.48c-3.2-2.47-8.35-6.57-11.95-7.59-.63-.18-1.81-.15-2.73-.18l-.41-10.5,9.84-6.13c2.47-1.53-1.94-9.31-3.1-13.08-1.5-4.85,12.59-3.51,16.92-6.12,4.58-2.75,12.46-8.77,18.38-8.93l8.87-.24c1.44-.04,2.1,3.78,2.45,4.82Z" />
  <path class="cls-3" d="M189.44,1013.02c11.46,3.14,24.33,2.94,36.53,3.22l13.45.31c5.1,2.38,15.18,5.45,20.68,4.3l-.23,3-3.18,5.86c-1.92.09-5.22.29-6.97.24l-8.95-.28c-2.82-4.08-11.91-7.68-16-5.95l.55,7.37c.1,1.39-3.43,1.74-4.78,1.95-1.77-1.33-7.29-2.83-8.03-2.43-4.8,8.34-11.76,15.74-18.82,19.52-.1-2.05-2.66-10.06-5.45-9.43l-14.05,3.18c-3.37,4.38-3.05,2.2-1.83-3.29-1.74-7.69-1.96-15.62,1.84-20.68,3.31-4.41,9.99-7.14,15.23-6.88Z" />
  <path class="cls-3" d="M143.87,849.67c1.28,2.92,6.64,7,11.1,9.98,2.83,1.89.88,10.05,1.89,13.25-9.02-.31-25.48,2.61-27.24,13.12l-4.4-5.65-7.33,16.29c-2.93-13.01-2.4-34.78,2.1-46.66l7.01-9.93c2.68,4.26,3.73,8.21,6.16,8.47l10.7,1.13Z" />
  <path class="cls-3" d="M136.07,1042.69l.41,10.5-5.18,10.89c-3.69,7.75-15.47-16.62-24.47-7.33l-14.21-11.7c-3.16-2.6-12.25-5.45-16.37-5.22,1.08-4.31,4.66-11.81,7.92-14.62,10.22-8.8,32.77,19.84,51.9,17.48Z" />
  <path class="cls-3" d="M1059.61,1046.85c-6.58.71-13.59,3.07-19.4,6.31l-3.54.17c.26-4.08.84-7.78,2.25-15.84.06-.03-6.01,3.33-9.85,5.46-15.34-7.62-27.31,1.62-37.01,12.89-2.88,2.78-8.78-7.53-10.9-12.65-2.19-5.32-17.95,1.75-19.04,11.71l28.44,10.68-8.65,4.38c16.6,3.67,24.38,10.99,25.41,27.72l-22.77,1.46-12.01-11.45c-3.19-1.21-10.25-1.57-11.14-3.98l-2.98-8.1-18.36.24c2.64-4.44,6.15-7.6,4.6-8.56l-8.44-5.23,22.78-8.09-26.93-13.46c-4.17-2.09-10.58-7.57-14.94-11.58l-55.92-15.02c18.93-10.04,30.71-9.93,44.98-10.42l27.58,22.99c11.61-4.66,27.73-11.09,36.91-8.06,51.5,16.97,28.07-1.91,50.93-5.56,3.26-.52,8.7,3.06,14.66,6.73,11.85-9.92,23.22-23.82,31.97-38.97l-14.12-22.78c4.44-3.77,6.34-10.84,6.35-17.26l16.25,4.4-.66,100.13-16.46,1.77Z" />
  <path class="cls-3" d="M1078.95,772.85l-.65,128.95c-.01,2.64-1.73,7.18-2.92,8.23s-5.47,1.9-5.74,1.53l-3.34-39.25-4.74-49.96c-.31-3.25-7.45-7.99-10.25-7.84s-10.43,3.35-10.6,6.15l-1.85,30.4c-16.88-1.05-31.41-2.68-51.84-6.66l25.81-22.51c-18.44-9.91-37.11,3.6-64.41-6.12l14.42-14.17-27.12-2.78c-.79-3.81-1.85-9.1-2.12-11.39-2.73-23.63,13.05-5.21,48.21-20.71-4.78,5.93-12.04,11.54-20.17,17.85,13.74.26,21.3,4.26,30.79,11.56,3.41,2.62,13.55,5.48,15.96,8.85,3.29,4.6,9.08,14.26,13.77,13.27l18.77-3.97-14.2-14.67c13.43-5.18,28.22-10.24,38.61-17.77,5.11-3.7,9.02-8.31,13.63-9.01Z" />
  <path class="cls-9" d="M1036.67,1053.33l-.47,7.36c-.07,1.15-1.57.2-2.54-.3l-6.23-3.19c-2.34.15-4.26,10.04-2.85,13.57l4.74,11.82c-.87.05-2.25.06-2.99.14-4.25.48-10.1-6.32-13.66-12.57-2.91-5.11-16.71-2.57-22.11-4.6l-28.44-10.68c1.09-9.97,16.85-17.03,19.04-11.71,2.11,5.12,8.01,15.43,10.9,12.65,9.7-11.27,21.67-20.51,37.01-12.89,3.84-2.13,9.91-5.49,9.85-5.46-1.41,8.06-1.99,11.76-2.25,15.84Z" />
  <path class="cls-10" d="M1110.8,755.89l.9,21.51-.03,9.13-.1,17.1-.38,63.76c-.04,6.3,4.7,16.96,8.98,24.48,8.29-35.06-.29-49.16,7.08-82.1,3.71-2.36,17.01-3.98,18.15.68,1.8,7.76,4.76,19.55,4.39,25.56l-2.37,38.02c-1.28,20.46-8.44,41.49-33.51,45.05v103c11.52-12.62,16.69-19.46,31.37-21.03,2.85-2.08,6.61-8.88,6.33-12.6l-1.93-25.99,9.68,13.45.89-49.2c.06-3.21,4.93-9.95,8.04-10.45,3.72-.6,10.74,6.35,10.95,10.78l1.54,33.32,3.43-14.34,15.79,6.77v138.56l-18.05-9.12c-9.77-4.94-29.5,5.65-42.63,8.95l-25.61-10.45c-15.52-6.34-2.11,1.72-40.92-2.88l-7.04-.83c-1.19-.14-2.81,4.04-1.81,4.72l7.58,5.16c37.03,14.01-41.12-2.6-35.84,3.18l-4.69-.45c-.4-1.91-.99-5.34-1.66-7.01l-4.74-11.82c-1.42-3.54.5-13.43,2.85-13.57l6.23,3.19c.97.49,2.47,1.45,2.54.3l.47-7.36,3.54-.17,12.08,20.01,12.14-9.08-4.83-17.24,16.46-1.77.66-100.13-16.25-4.4c-18.54-21.35-20.79-38.4-21.95-68.03-.26-6.55-.06-14.92.33-21.45l1.85-30.4c.17-2.8,7.8-6,10.6-6.15s9.95,4.59,10.25,7.84l4.74,49.96,3.34,39.25c.27.37,4.55-.48,5.74-1.53s2.91-5.59,2.92-8.23l.65-128.95.54-19.34c.18-6.34.68-45.4,17.92-39.11,12.61,4.6,12.79,27.02,13.39,41.48Z" />
  <path class="cls-3" d="M1127.25,809.76c-7.37,32.94,1.21,47.04-7.08,82.1-4.28-7.52-9.02-18.18-8.98-24.48l.38-63.76c4.74,1.15,10.83,3.72,15.68,6.13Z" />
  <path class="cls-9" d="M1059.61,1046.85l4.83,17.24-12.14,9.08-12.08-20.01c5.81-3.23,12.82-5.6,19.4-6.31Z" />
  <path class="cls-10" d="M1109.41,1094.11l20.02,15.86c-2.61,1.97-9.24,5.62-8.75,8.38l1.97,10.85c-21.57,1.01-46.77.69-63.23-16.91,11.71,1,27.81,1.95,32.4-5.73,2.93-4.9,4.39-11.92,7.41-12.04l10.17-.4Z" />
  <path class="cls-10" d="M136.48,1053.18c.92.04,2.1,0,2.73.18.72,9.06,3.56,21.15,6.45,28.94,9.46,3.81,13.73,6.52,17.9,11.71-.84.11-2.51.36-3.31.34l-48.92-1.24-4.81-32.45.31-3.92c9.01-9.29,20.79,15.08,24.47,7.33l5.18-10.89Z" />
  <path class="cls-9" d="M106.47,1137.08l-7.32-17.03c12.3-1.05,23.64.02,33.72,8.81-8.7,6.74-17.25,8.61-26.39,8.22Z" />
  <path class="cls-4" d="M73.88,829.08l-17.05-2.24-10.12-4.44c-5.8-13.12-21.98-14.62-35.57-18.29l-4.33-10.92c12.35-1.73,25.23-1.48,34.8,5.67,23.52,17.57,43.3-13.89,55.19,7.05,1.88,3.32,6.29,7.8,4.51,8.82-15.24,8.82-26.36.42-27.42,14.34Z" />
  <path class="cls-10" d="M970.94,945.32c1.17-.16,3.61-.51,4.8-.32,9.43,1.49,29.21,2.92,37.1,8.28l23.45,15.94,7.59-11.8,10.23.4,14.12,22.78c-8.75,15.15-20.12,29.05-31.97,38.97-5.96-3.67-11.4-7.25-14.66-6.73-22.86,3.65.57,22.53-50.93,5.56-9.18-3.03-25.31,3.4-36.91,8.06l-27.58-22.99c-3.9-11.03-2.26-22.5,3.39-32.83,3.52-1,5.83-1.92,11.92-5.41l-34.23-4.85-.6,6.38c-2.8,7.82-11.46,11.58-19.49,9.9l.05-3.7c.02-1.53-1.27-4.57-1.04-6.1l2.34-15.85,46.34-5.48,4.73-18.44,17.39,15c-2.85,5.25-4.96,8.19-4.9,10.64.05,1.96,7.05,6.48,8.84,5.7l30.03-13.13Z" />
  <path class="cls-3" d="M866.19,966.88c-.23,1.53,1.06,4.56,1.04,6.1l-7.23,4.01c-29.22,1.25-58.83-3.03-87.76-11.41,15.45-4.27,28.75-5.21,37.91-12.53,2.1,7.04,13.45,17.93,23.03,17.01l33-3.17Z" />
  <path class="cls-10" d="M276.97,1036.4c-.37,15.58-7.42,3.72-41.73,21.35-13.29,6.83-31.65,1.38-43.29,9.56l-2.83-.66c-.14-3.7,2.5-12.2,4.58-16.54,7.06-3.78,14.01-11.18,18.82-19.52.73-.4,6.26,1.1,8.03,2.43,1.52,1.14,2.5,5.49,4.39,5.29l8.27-.86,3.71,6.57c.69,1.23,5.85.9,5.22.6l-1.36-14.98,8.95.28c.18,2.15,2.17,9.28,3.64,10.91,1.57-1.45,3.32-8.93,3.34-11.14l3.18-5.86c5.82,3.62,11.62,7.99,17.1,12.56Z" />
  <path class="cls-10" d="M280.24,1006.26c-.4-.07-5.16,1.94-4.46,3.15l4.22,7.26-19.91,4.17c-5.5,1.15-15.58-1.92-20.68-4.3l2.43-13.99-11.37-3.81c1.63-1.97,5.25-6.02,6.12-8.5l33.43,2.8c4.79.4,11.16,9.18,10.22,13.21Z" />
  <path class="cls-3" d="M151.16,1060.95c.71,14,18.15,22.02,30.16,17.71l1.88-8.82,5.91-3.18,2.83.66c-.58,6.28-.03,11.29,3.42,18.74-6.91,5.25-21,9.63-31.81,7.96-4.17-5.19-8.45-7.9-17.9-11.71-2.88-7.79-5.72-19.87-6.45-28.94,3.6,1.02,8.76,5.11,11.95,7.59Z" />
  <path class="cls-9" d="M276.97,1036.4c-5.49-4.57-11.29-8.94-17.1-12.56l.23-3,19.91-4.17-4.22-7.26c-.7-1.21,4.06-3.22,4.46-3.15,4.59.69,10.22,2.56,12.36,5.61s5.11,14.19,1.91,16.04c-5.02,2.89-13.05,6.63-17.54,8.5Z" />
  <path class="cls-9" d="M1043.89,957.41l-7.59,11.8-23.45-15.94c-7.89-5.36-27.67-6.79-37.1-8.28,2.19-17.47,35.61-2.03,45.77-.58,9.52,3.84,16.22,7.31,22.37,13Z" />
  <path class="cls-10" d="M1200,1368.11v431.89h-547.09l.52-16.4-.27-3.82-.14-16.45c3.74-4.57,2.48-10.43,1.79-18.06-1.96-21.64,1.07-51.85-7.61-45.77-.13-1.54-.24-4.48-.31-6.17l-.36-3.79,3.46-12.88c.94-.63,3.25-2.11,3.33-3.33,29.44-6.73,38.82-28.62,60.77-14.91l-9.57,7.06c-18.2,13.42,22.71-4.11,23.28,4.31l.99,14.71,35.33-5.77c-2.28-26.39,16.11-17.51,24.61-29.9-3.45-7.54-16.55-19.35-24.34-17.4l-31.29,7.84c-9.85,2.47-16.5,5.31-26.93.76-18.85-8.23-18.86,16.21-27.51,12.63l-11-4.56c-3.48-1.44-9.16-9.73-8.01-13.27s6.72-5,14.23-8.25l-11.59-7.87c15.81,2.26,29.86-4.07,37.02-18.75l-15.33-9.32c1.85-6.35,5.85-15.58,9.64-18.74s15.7,2.68,20.72,2.33c10.43-.73,25.27.33,35.4,4.07,15.89,5.87,31.86-3.23,45.46,12.48l-17.28,5.16c5.89,11.39,36.15,22.4,29.13,31.53l-6.49,8.45c-1.87,2.43-1.12,9.62,1.65,10.62l13.73,4.95c.31,8.41.67,23.2,3.72,32.11,1.04,3.06,12.97-4.68,11.06-7.25-1.53-2.06-6.82-7.02-6.29-9.58l2.55-12.28c.55-2.64-6.17-4.11-12.43-6.51,6.63-21.07,21.09-33.68,21.05-41.45s-17.25,4.21-15.85-.95l2.08-7.71c.64-2.38-.47-8.05-2.84-8.87l-13.48-4.64c-27.14-9.35,38.08,2.07,49.35-18.18l3.77-6.77c.72-1.3,5.89.95,5.45,2.37l-2.22,7.29c-1.03,3.39-1.36,10.84,1.51,11.89,19.29,7.06,18.14-16.54,53.77,7.25,15.19-3.53,27.83,14.07,34.32,9.33,7.35-5.37,22.22-22.81,21.99-41.03-.06-5.05-10.01-9.82-13.72-7.71-4.39,2.49-13.45,5.58-15.61,2.73l-10.08-13.22-40.21,9.92.56-24.97c.21-9.33,1.92-13.9,7.94-20.86,6.35-7.36,12.57-16.76,19.45-19.62,7.93-3.29,21.04-2.37,25.73,2.12-2.22,5.18-7,10.42-6.46,13.21l2.13,10.92-19.36-.84c-2.23,1.66.32,15.51,4.49,15.26,8.15-.48,31.62-7.83,39.12-16.77l8.14,16.37,36.91-2.92,3.57-37.75-8.62-5.43c-1.65-1.04-.51-7.36,1.37-7.84,32.89-8.33,30.85-14.12,46.49-1.11,2.17,1.8,9.73-2.73,9.44-5.5l-1.29-12.03-1.65-15.46c-.66-.48-5.06-3.31-4.96-3.5,6.02-11.2,16.03,11.51,36.11-8.13l9.41-9.21c5.67-5.55-10.14-13.97.87-26.35,2.12-2.39,11.86,3.07,13.5,5.83l5.93,23.5c23.4.11,38.16-18.54,32.83-39.86l-17.91,20-12.78-32.12c-1.18-2.95-7.07-10.38-9.86-9.02-11.84,5.77-7.75,25.31-21.25,23.02l4.28-23.42c13.66-1.49,18.55-15.5,23.91-23.85,3.14-3.7,16.25-9.32,19.23-5.47l15.77,20.38c9.58,12.39,28.81,16.83,43.08,21.26ZM1157.04,1420c0-2.05-1.66-3.71-3.71-3.71s-3.71,1.66-3.71,3.71,1.66,3.71,3.71,3.71,3.71-1.66,3.71-3.71ZM1084.35,1533.95c9.6,8.34,33.12,9.26,44.26-9.47l-36.49-21,2.96-20.89c.49-3.18-13.3-4.49-14.88-1.53-6.63,12.43,3.97,11.81-2.48,28.55-14.73-5.36-23.01-7.79-37.13-7.09-5.13.25-13.3,14.07-9.32,17.06,12.78,3.58,34-.04,47.73-2.63,3.36.23,3.92,13.5,5.35,17ZM1043.71,1546.67c0-2.05-1.66-3.71-3.71-3.71s-3.71,1.66-3.71,3.71,1.66,3.71,3.71,3.71,3.71-1.66,3.71-3.71ZM1060.89,1565.23c-.46-4.37-10.09-7.57-14.17-4.53-3.13,2.33-7.73,9.74-6.19,13.3,1.29,2.97,6.78,7.17,10.35,8.91,2.36,1.15,11.88.2,11.61-2.4l-1.61-15.29ZM1076.38,1590.54l-17.22,1.7,10.31,5.87c2.2,1.25,6.54-5.42,6.91-7.57ZM914.44,1615.23l-25.41-14.28c-18.73-10.52-38.16.05-41.21,3.79-2.24,2.73-2.77,10.97-.34,12.92,44.19,10.3,36.47-.41,64.6,5.85,1.42.32,3.63-7.58,2.37-8.29ZM1085.31,1652.94c2.26-4.93,3.59-20.91-1.68-22.06-4.36-.96-14.16.8-17.79,2.45s-8,13.12-4.5,15.12,11.21-2,13.76-.7l10.21,5.19ZM814.11,1702.09l-21.06-24.82-12.17,26.68,33.23-1.86ZM663.71,1723.33c0-2.05-1.66-3.71-3.71-3.71s-3.71,1.66-3.71,3.71,1.66,3.71,3.71,3.71,3.71-1.66,3.71-3.71Z" />
  <path class="cls-10" d="M563.33,1556.67c1.1,10.24,1.53,21.49.97,33.24l-1.75,36.76-12.17,165.77,9.69,7.56H0v-393.33l32.55-13.27c-.1-4.73-1.15-8.85.24-10.29,36.95-38.16,13.64-2.35,18.61-6.53l-7.76,6.52,18.74,21.87,21.43,8.77c5.37,2.2,13.52,14.16,9.87,17.25-10.97,2.5-18.94,4.63-20.07,15.19-.8,7.47,3.4,13.95,11.56,19.19,21.35,13.72,27.54-7.1,42.24-.82,3.13,11.46,8.71,27.13,17.76,33.76,5.01,3.67,20.69-.35,25.03-4.95,3.11-3.3,10.01-9.68,13.7-8.76,3.16.78,7.49,5.92,10.58,6.94s14.54-4.77,13.62-8.05l-4.99-17.87c7.92,2.14,55.45,24.7,54.01,36.69-1.37,11.39-5.46,23.03-9.57,32.33l-31.6,6.35-10.31-23.33c-7.66,10.74-11.13,13.93-20.52,18.4-10.67,18.15,11.55,19.53,19.66,34.87l-21.45,13.28,30.76,16.87c3.26,1.79,7.5,6.55,12.13,12.13l19.38-10.47c-5.22-3.1-11.73-7.12-12.37-10.81-.64-3.68,4.19-11.1,7.34-13.12,9.14-5.85,21.3,5.79,25.57,9.84,1.84,1.74-1.2,9.84-3.67,10.3l-10.47,1.92c-12.61,2.31,12.39,14.7,14.15,24.37,39.76-.59,50.85,32.89,58.04,27.42l6.93-5.27c5.78-4.4,14.88-9.58,18.24-10.42l-4.46,20.39c19.22-2.71,38.41,5.07,41.11,20.32-3.92,2.14-12.14,4.77-11.9,7.67l.86,10.41c.46,5.51,1.27,15.38,2.43,15.02,11.03-3.43,20.88-3,28.44-1.61,5.59-8.93,13-15.37,27.05-17.36.66-6.5.64-20.01.53-30.47,8.31,3.83,16.18,5.31,21.83,2.76,10.85-4.9,10.91-15.03,12.64-24.27,2.53-3.89,11.89-8.24,11.26-12.58l-2.66-18.3c-.97-6.68,7.4-20.49,10.74-25.44,7.02,6.34,11.73,10.74,15.48,13.69,7.33,5.77,20.44-10.85,34.97-5.54,1.08-2,2.26-10.02,4.94-10.52l12.49-2.31,2.28-15.5c.32-2.17-.09-6.42,1.13-6.47l4.79-.17ZM13.33,1443.33h-6.67v16.67h6.67v-16.67ZM38.68,1460.07c0,.38.58-6.27.75-8.42.16-2.02-5.4-2.8-7.43-2.69s-6.91,5.28-4.99,6.1l11.67,5.01ZM61.79,1483.29l18.07-10.13c-5.01-2.65-11.7-3.28-12.17-6.08l-2.47-14.8c-4.72-7.02-23.01,38.67-16.46,43.72,1.72,1.33,11.63,1.23,11.84-.94l1.18-11.77ZM161.61,1588.98l12.79-16.87-16.89-10.66c13.03-37.02-22.19-29.6-22.55-57.9l-23.68,11.19c-6.67,3.15-21.5,1.72-31.99,2.73,4.02,38.58,37.67-2.62,47.73,39.06,3.07,2.49,12.88,3.38,13.11,6.9l1.12,17.69c.36,5.75,16.95,12.37,20.37,7.86ZM186.95,1514.83h-7.24c1.68,12.39,5.55,12.39,7.24,0ZM157.13,1607.93l-7.18-.88c-2.22-.27-8.88,3.1-7.99,4.94l3.5,7.23c1.23,2.55,18.26-10.49,11.67-11.29ZM530.5,1634.75c14.72-8.02,11.31-19.75,5.2-29.12l-5.2,29.12ZM173.71,1613.33c0-2.05-1.66-3.71-3.71-3.71s-3.71,1.66-3.71,3.71,1.66,3.71,3.71,3.71,3.71-1.66,3.71-3.71ZM505.33,1632.43c2.26.18-1.36-9-3.32-7.91l-5.35,2.99c-1.46.81,6.52,4.74,8.67,4.91ZM271.81,1643.13c-3.4-10.18-22.98-9.08-31.03-4.6-10.45,5.82-19.9,15.4-15.89,29.67,26.06-20.9,51.63-10.96,46.92-25.07ZM504.66,1642.53l-24.43-2.38c.34,2.66,2.22,10.46,4.65,9.97s8.58-3.76,10.96-3.03l9.98,3.07c1.35.42.63-7.46-1.15-7.63ZM508.38,1736.86l23.98-13.23-4.24-21.27c-.25-1.26-3.23-4.2-3.96-5.3s.11-3.75,1.4-3.63l8.48.77,3.28,7.49c.84,1.91,8.66,2.5,8.9.68l3.01-30.74-13.66-11.95c-14.98,9.33-24.03,5.49-40.42-1.75-.53,10.61,3.74,21.1,6.92,26.94-6.12,9.02-12.06,19.12-14.86,28.53l-19.51-4.07-20.76,13.61c1.42,4.44,4.97,12.3,7.57,15.39s14.03,1.89,17.83.08l26.3-12.5,9.73,10.97ZM346.74,1684.74c-1.93.42,2.78,6.49,4.71,5.73l5.18-2.05c1.33-.52-.6-5.68-1.92-5.39l-7.96,1.71ZM442.62,1721.6c-1.66-4.89-12.56-6.28-12.63-1.57-.05,3.51,12.75,4.02,12.63,1.57Z" />
  <path class="cls-7" d="M142.05,1255.87c-3.9,10.69,22.29,20.82,14.83,22.38-1.82.38-9.12.99-10.05,2.6l-12.72,22.08c-5.79,10.05-12.44,18.32-22.56,17.27-2.97-.31-9.64,5.52-8.26,7.47s4.54,6.7,4.16,6.15c31.22-20.53,3.98,7.4,31.44-17.83,1.9-1.75,7.43,5.02,10.11,6.02l41.7,15.42c-8.33,13.45-16.92.05-23.52,1.61-19.59,4.62-33.43,5.28-55.61,2l8.47,15.46,1.01,8.85c.47,4.15,32.22,13.65,39.25,5.79,11.05-12.35,23.5-14.6,38.4-5.47,21.23,13.01,108.77-23.48,114.23,3.42-7.14,16.27-3.99,29.24,3.36,42.94-6.31,6.39-16.92,18.41-15.98,25.93,1.43,11.33,8.35,19.68,16.69,23.39,10.15,4.51,23.18.63,27.99-8.95.13-4.22-9.39-4.5-16.33-2.08l-6.17-21.69c3.02-4.27,15.54-2.91,21.34-.5l3.59-9.51c.73-1.93,5.88-3.17,7.6-1.94l6.72,4.78c.95.67,1.92,1.79,1.01,2.54l-9.1,7.41,25.71,6.09,19.91-19.69c15.08-14.91-29.03-45.28-25.69-52.32,4.88-10.28,21.71-2.06,44.08-7.51,14.54-3.54,28.72-5.99,40.2,3.19-10.83,2.01-20.4,2.55-24.19,6.61-5.46,5.83-6.24,16.93,1.2,22.35,2.48-8.02,16.53-21.83,22.36-14.46,4.85,6.13,11.8,17.17,17.8,17.11,1.51-.02,5.74-5.78,6.41-7.13.89-1.81,5.54.75,6.67,2.43s-.66,7.03-.71,10.84c-.09,6.66,19.74,5.42,23.64-.73l-9.46-11.05c26.42-7.04,32.83,16.19,45.58,30.27,7.71,8.51,17.12,19.8,15.45,31.15-.72,4.86,5.84,17.84,1.73,17.27l-8.73-1.2c-1.55-.21-1.59,6.12-2.06,8.35l-19.02,8.97c9.08,4.16,26.86,7.13,27.57,14.62,1.27,13.59,1.3,28.27,1.37,40.37-1.03,1.62-2.58,4.92-3.48,6.82l3.83,2.66.94,3.45-1.42,6.81-4.79.17c-1.22.04-.81,4.29-1.13,6.47l-2.28,15.5-12.49,2.31c-2.69.5-3.86,8.52-4.94,10.52-14.53-5.31-27.64,11.31-34.97,5.54-3.75-2.95-8.46-7.35-15.48-13.69-3.34,4.95-11.71,18.77-10.74,25.44l2.66,18.3c.63,4.34-8.74,8.68-11.26,12.58-1.73,9.24-1.79,19.37-12.64,24.27-5.65,2.55-13.52,1.07-21.83-2.76.1,10.45.13,23.97-.53,30.47-14.05,1.99-21.46,8.43-27.05,17.36-7.56-1.39-17.41-1.81-28.44,1.61-1.16.36-1.97-9.51-2.43-15.02l-.86-10.41c-.24-2.9,7.98-5.53,11.9-7.67-2.7-15.25-21.9-23.03-41.11-20.32l4.46-20.39c-3.36.85-12.46,6.03-18.24,10.42l-6.93,5.27c-7.19,5.47-18.28-28.01-58.04-27.42-1.76-9.67-26.76-22.06-14.15-24.37l10.47-1.92c2.47-.45,5.51-8.55,3.67-10.3-4.28-4.05-16.43-15.68-25.57-9.84-3.15,2.01-7.98,9.43-7.34,13.12.64,3.68,7.15,7.7,12.37,10.81l-19.38,10.47c-4.63-5.58-8.88-10.34-12.13-12.13l-30.76-16.87,21.45-13.28c-8.11-15.35-30.33-16.73-19.66-34.87,9.39-4.48,12.86-7.66,20.52-18.4l10.31,23.33,31.6-6.35c4.11-9.29,8.2-20.93,9.57-32.33,1.44-11.99-46.09-34.55-54.01-36.69l4.99,17.87c.92,3.29-10.38,9.11-13.62,8.05s-7.42-6.16-10.58-6.94c-3.69-.91-10.58,5.47-13.7,8.76-4.34,4.6-20.02,8.62-25.03,4.95-9.05-6.63-14.62-22.3-17.76-33.76-14.7-6.28-20.89,14.54-42.24.82-8.16-5.24-12.35-11.72-11.56-19.19,1.13-10.56,9.1-12.69,20.07-15.19,3.65-3.09-4.5-15.05-9.87-17.25l-21.43-8.77-18.74-21.87,7.76-6.52c-4.97,4.18,18.35-31.63-18.61,6.53-1.39,1.44-.34,5.56-.24,10.29l-32.55,13.27v-46.67c2.5-.68,8.95-3.35,12.13-5.84l91.19-71.33c5.58-4.37,15.59-9.29,19.87-12.99,6.52-5.64,12.52-10.71,18.86-13.96ZM306.32,1505.75c.49,20.93,6.38,21.18,18.74,22.48,10.76,1.14,9.52-10.37,15.15-18.53,3.77-5.46,11.45-11.83,9.47-16.87-2.52-6.39-8.25-11.76-14.69-14.31l-27.15-10.73c-4.06,8.44-6.29,18.51-8.21,29.21l-29.87,7.38c-1.34,5.23,9.71,20.68,14.66,17.12l21.9-15.75ZM279.16,1606.69l11.45-14.41c1.87-2.36,9.18-.3,13.69.43,1.76-12.58,6.35-28.25,11.02-42.06l-10.76-3.42c-2.31-.73,2.22-8.16,3.78-11.85,1.33-3.14-8.36-8.26-10.59-5.4-2.94,3.78-6.86,10.93-10.17,10.36l-15.08-2.59c-2.18-.37-7.6,3.05-7.93,5.22s1.17,6.54,2.24,8.55,9.29-1.68,11.13-.68c19.85,10.77-5,47.85,1.21,55.85Z" />
  <path class="cls-7" d="M1025.98,1225.54l134.82,103.49c13.54,10.39,25.35,21.47,39.2,28.08v11c-14.27-4.43-33.5-8.87-43.08-21.26l-15.77-20.38c-2.98-3.85-16.09,1.77-19.23,5.47-5.36,8.35-10.25,22.35-23.91,23.85l-4.28,23.42c13.5,2.28,9.4-17.25,21.25-23.02,2.79-1.36,8.68,6.07,9.86,9.02l12.78,32.12,17.91-20c5.33,21.31-9.43,39.97-32.83,39.86l-5.93-23.5c-1.65-2.76-11.38-8.22-13.5-5.83-11.01,12.38,4.81,20.8-.87,26.35l-9.41,9.21c-20.07,19.64-30.08-3.07-36.11,8.13-.1.18,4.3,3.02,4.96,3.5l1.65,15.46,1.29,12.03c.3,2.77-7.27,7.3-9.44,5.5-15.64-13-13.6-7.22-46.49,1.11-1.88.48-3.02,6.8-1.37,7.84l8.62,5.43-3.57,37.75-36.91,2.92-8.14-16.37c-7.5,8.94-30.98,16.28-39.12,16.77-4.17.25-6.72-13.6-4.49-15.26l19.36.84-2.13-10.92c-.54-2.79,4.24-8.03,6.46-13.21-4.69-4.49-17.8-5.41-25.73-2.12-6.88,2.86-13.1,12.26-19.45,19.62-6.01,6.96-7.73,11.53-7.94,20.86l-.56,24.97,40.21-9.92,10.08,13.22c2.17,2.84,11.22-.24,15.61-2.73,3.71-2.11,13.66,2.66,13.72,7.71.22,18.22-14.64,35.67-21.99,41.03-6.49,4.74-19.12-12.87-34.32-9.33-35.63-23.79-34.48-.19-53.77-7.25-2.87-1.05-2.55-8.5-1.51-11.89l2.22-7.29c.43-1.42-4.73-3.67-5.45-2.37l-3.77,6.77c-11.27,20.25-76.49,8.83-49.35,18.18l13.48,4.64c2.37.82,3.48,6.49,2.84,8.87l-2.08,7.71c-1.4,5.16,15.82-6.48,15.85.95s-14.43,20.38-21.05,41.45c6.26,2.4,12.98,3.87,12.43,6.51l-2.55,12.28c-.53,2.56,4.76,7.52,6.29,9.58,1.91,2.57-10.02,10.31-11.06,7.25-3.04-8.9-3.41-23.7-3.72-32.11l-13.73-4.95c-2.77-1-3.52-8.19-1.65-10.62l6.49-8.45c7.02-9.13-23.24-20.14-29.13-31.53l17.28-5.16c-13.6-15.71-29.57-6.61-45.46-12.48-10.13-3.74-24.96-4.8-35.4-4.07-5.03.35-16.94-5.49-20.72-2.33s-7.78,12.39-9.64,18.74l15.33,9.32c-7.16,14.68-21.21,21.02-37.02,18.75l11.59,7.87c-7.51,3.25-13.08,4.71-14.23,8.25s4.53,11.83,8.01,13.27l11,4.56c8.64,3.58,8.65-20.86,27.51-12.63,10.43,4.55,17.08,1.71,26.93-.76l31.29-7.84c7.79-1.95,20.9,9.86,24.34,17.4-8.49,12.39-26.88,3.5-24.61,29.9l-35.33,5.77-.99-14.71c-.57-8.42-41.47,9.1-23.28-4.31l9.57-7.06c-21.95-13.7-31.33,8.18-60.77,14.91.11-1.66.15-5.01,0-6.67l-1.44-16.22c-.78-8.8-1.59-17.15-5.23-23.78l-.64-7.59c-.15-1.72-3.87-2.88-5.28-3.04l-.68-6.52c-.15-1.48.42-4.48.27-5.95,9.38-10.03,10.95-25.85,7.52-40.69l-5.88-25.41c2.27-3.24,6.15-9.49,7.47-13.18l5.85-16.32,30.06-4.05-12.26,11.68,15.46-6.41,12.58,7.84c5.75,3.58,22.47-18.37,27.33-17.47l17.5,3.26,11.34-10.98,17.6,26.98c-5.63,6.35-11.87,13.95-11.07,18.84.85,5.23,6.97,15.89,8.94,16.29,19.37-27.84,20.11-9.77,41.14-37.96l7.33-23.32-26.18-6.79c-2.44-4.24,37.11-21.05,38.92-15.89l4.54,12.92c.09.25,21.54,9.06,24.8,2.62,9.04-17.87-11.53-21.79-.48-40.36,2.48-4.16,15.51-8.04,18.25-3.84l13.19,20.23c-7.66,7.74-14.02,18-11.95,23.87,23.8,10.01,15.74-39.83,46.46-26.92l23.32,9.79c4.35-28.83-24.49-14.63-26.56-33.21-.3-2.67,4.17-8.75,6.77-8.08l11.95,3.11c4.59,1.19,12.24,2.51,15.94,2.35s7.05-10.37,10.55-12.04c23.12-11.07,8.68-19.01,31.81-57.53,3.67-4.11,15.31-11.11,16.49-16.38,1.58-7.03-.81-16.5-5.25-18.02-3.97-1.36-14.83-3.84-17.05-.5s-4.98,10.81-6.17,15.6l-3,12.05c-.64,2.58-10.49,1.69-11.43,4.18-2.18,5.75-4.61,19.42-8.68,23.97-4.06,4.55-21.45,5.26-25.17.43s-2.58-21.02-1.09-23.43l18.19.54-13.82-18.84c-4.94,7.71-33.36,0-32.57,2.36-23.86-71.85.73-36.6-4.26-75.04-2.97-22.89,31.97,25.25,71.01-1.46l-3.1,24.06c32.25-28.13,61.73.41,60.43-28.19-.89-19.55-6.73-23.7-26.25-34.75l15.15-3.95ZM1113.64,1326.4c8.31-20.46-26.41-25.98-37.08-26.42-2.79,7.52-3.33,17.05-3.15,26.21l40.23.21ZM930.85,1326.35c2.18-1.46,4.86-6.05,5.65-8.52s-7.03-7.14-8.97-5.43c-5.22,4.62-7.78,6.84-7.69,15.02.01,1.33,3.89,3.71,5,2.97l6.01-4.04ZM957.12,1439.93c0-2.07-1.68-3.75-3.75-3.75s-3.75,1.68-3.75,3.75,1.68,3.75,3.75,3.75,3.75-1.68,3.75-3.75ZM709.78,1537.55c2.01,3.99,11.17,10.25,15.07,8.14s6.82-13.12,5.09-17.2-12.45-4.93-16.59-2.98c-4.36,2.06-7.78,3.69-6.93,5.37l3.36,6.67ZM759.68,1555.86c-5.44-3.74-18.36-9.67-27.91-7.25l21.56,16.98c1.4,1.11,7.86,2.17,7.8.38s.02-9.11-1.45-10.12Z" />
  <path class="cls-1" d="M535.35,896.92c-16.56,19.88-33.07,40.84-46.1,62.94l-5.5,6.41c-1.13,1.06-3.2,3.02-4.34,3.95-12.4,10.11-34.73,31.85-46.99,43.71l-26.38,25.53c-16.91,16.37-35.15,34.06-52.75,47.81l-126.85,99.14c-29.66,23.18-59.03,44.25-84.4,69.46-6.34,3.26-12.33,8.32-18.86,13.96-4.28,3.7-14.29,8.63-19.87,12.99l-91.19,71.33c-3.18,2.49-9.63,5.16-12.13,5.84v-40c2.4.09,10.27-1.22,12.93-3.12l111-78.93c6.72-4.78,13.53-11.12,19.41-14.6,20.99-12.44,40.25-26.97,60.99-42.62,56.94-42.95,115.99-81.15,168.88-126.68,5.04-2.09,9.83-6.17,12.96-10.85l3.22-2.67c43.34-34.57,85.24-71.34,119.83-118.13,1.94-2.63,3.4-10.62,3.57-12.97l32.53-49.53c1.94,5.48.55,13.54-2.34,20.01l-7.61,17Z" />
  <path class="cls-1" d="M762.26,993.25l43.54,40.82c12.13,11.37,26.49,19.89,38.25,29.62,52.05,43.09,107.89,80.89,163.3,122.14,37.69,28.06,74.12,54.91,112.73,78.44,14.34,12.96,62.72,48.23,79.93,54.72v38.14c-13.85-6.61-25.66-17.69-39.2-28.08l-134.82-103.49-48.3-40.29-153.91-121.96-9.79-7.46c-2.58-3.9-8.9-7.91-13.54-10.06-1.79-2.31-4.88-6.46-6.66-9.03-20.19-29.13-30.45-22.67-42.32-47.26l10.8,3.77Z" />
  <path class="cls-7" d="M143.33,1223.35c-5.87,3.48-12.69,9.82-19.41,14.6l-111,78.93c-2.66,1.89-10.53,3.21-12.93,3.12v-73.33l89.4-44.2c18.04,7.45,45.81-28.15,48.37-12.7l2.05,12.36,3.52,21.22Z" />
  <path class="cls-7" d="M1129.43,1210.17l4.24.8c2.88,8.17,11.9,17.89,19.69,12.6l25.39,11.67c7.63,3.51,14.33,6.74,21.25,8.07v75.67c-17.21-6.49-65.59-41.76-79.93-54.72,2.58-15.24-49.19-27.46-41.88-51.12.74-2.4-1.36-11.46-3.18-9.93l-6.95,5.86c-2.53,2.13-8.95,4.35-12.1,4.23-3.15-.12-7.41-8.03-5.25-10.32,5.33-5.66,22.67-15.12,30.32-13.36,13.94,3.2,20.03,30.9,48.4,20.55Z" />
  <path class="cls-7" d="M1084.35,1533.95c-1.43-3.5-1.98-16.77-5.35-17-13.73,2.58-34.96,6.21-47.73,2.63-3.99-3,4.19-16.81,9.32-17.06,14.12-.7,22.4,1.72,37.13,7.09,6.46-16.73-4.14-16.11,2.48-28.55,1.58-2.96,15.37-1.65,14.88,1.53l-2.96,20.89,36.49,21c-11.14,18.73-34.66,17.81-44.26,9.47Z" />
  <path class="cls-7" d="M914.44,1615.23c1.26.71-.95,8.6-2.37,8.29-28.13-6.26-20.4,4.45-64.6-5.85-2.43-1.96-1.9-10.19.34-12.92,3.06-3.74,22.49-14.31,41.21-3.79l25.41,14.28Z" />
  <path class="cls-7" d="M1085.31,1652.94l-10.21-5.19c-2.55-1.3-10.25,2.71-13.76.7s.86-13.47,4.5-15.12,13.43-3.41,17.79-2.45c5.27,1.15,3.94,17.13,1.68,22.06Z" />
  <polygon class="cls-7" points="814.11 1702.09 780.88 1703.95 793.05 1677.27 814.11 1702.09" />
  <path class="cls-7" d="M1060.89,1565.23l1.61,15.29c.27,2.6-9.25,3.55-11.61,2.4-3.58-1.74-9.07-5.95-10.35-8.91-1.54-3.56,3.06-10.97,6.19-13.3,4.07-3.04,13.71.15,14.17,4.53Z" />
  <path class="cls-7" d="M508.38,1736.86l-9.73-10.97-26.3,12.5c-3.8,1.81-15.24,3.01-17.83-.08s-6.15-10.95-7.57-15.39l20.76-13.61,19.51,4.07c2.8-9.41,8.74-19.51,14.86-28.53-3.19-5.84-7.45-16.33-6.92-26.94,16.39,7.24,25.44,11.08,40.42,1.75l13.66,11.95-3.01,30.74c-.24,1.82-8.06,1.22-8.9-.68l-3.28-7.49-8.48-.77c-1.29-.12-2.1,2.57-1.4,3.63s3.71,4.04,3.96,5.3l4.24,21.27-23.98,13.23Z" />
  <path class="cls-7" d="M161.61,1588.98c-3.42,4.51-20-2.11-20.37-7.86l-1.12-17.69c-.22-3.52-10.03-4.41-13.11-6.9-10.06-41.67-43.71-.48-47.73-39.06,10.49-1.01,25.32.42,31.99-2.73l23.68-11.19c.37,28.3,35.58,20.88,22.55,57.9l16.89,10.66-12.79,16.87Z" />
  <path class="cls-7" d="M271.81,1643.13c4.71,14.11-20.87,4.17-46.92,25.07-4.01-14.27,5.44-23.85,15.89-29.67,8.05-4.48,27.63-5.58,31.03,4.6Z" />
  <path class="cls-7" d="M61.79,1483.29l-1.18,11.77c-.22,2.17-10.12,2.26-11.84.94-6.55-5.04,11.73-50.74,16.46-43.72l2.47,14.8c.47,2.8,7.16,3.43,12.17,6.08l-18.07,10.13Z" />
  <path class="cls-7" d="M157.13,1607.93c6.59.81-10.43,13.84-11.67,11.29l-3.5-7.23c-.89-1.84,5.76-5.21,7.99-4.94l7.18.88Z" />
  <path class="cls-3" d="M793.78,1036.74c1.78,2.56,4.87,6.72,6.66,9.03,4.26,10.85,4.27,24.48-1.13,35.21l-18.3-12.01-6.84,16.11-23.22-30.23c-10.19,9.87-24.21,5.04-31.67,8.19-10.62,4.47-16.69,21.39-30.22,21.3l-9.8-.07c-1.68-.01-3.08,5.71-4.45,8.7-69.9-7.83-35.45,55.12-83.4,40.4l-7.03-14.21-17.61-14.9c-10.97,1.66-26.75,3.79-35.37-1.06-2.42-2.76-4.47-10.38-7.08-9.83-2.99.62-9.89,2.03-9.94,2.06l-.39,14.01c-.07,2.47-7.31,4.18-11.05,4.86,1.6-5.87,3.77-8.83,2.1-9.13l-7.25-1.27c-1.63-.29.61,4.41,2.26,8.99,1.85,5.15-7.4,12.93-13.47,15.43l7.11,10.64-9.73,22.91c-12.56-2.52-18.42-9.09-25.23-17.16-3.97-4.7-21.01-9.09-16.03-16.55l13.14-3.48c1.88-.5-.17-6.88-.33-10.23-.85-17.61-33.08-26.75-8.3-22.79l10.39,1.66c-2.44-7.33-11.36-30.26-18.94-26.39-2.15,1.1-6.16,5.6-6.84,8.24l-7.24,27.77c-12.65-1.44-19.31.82-29.2,6.19-3.78-1.75-11.57-12.87-13.9-17.3l16.19-4.32c-28-28.21-23.84,12.36-44.36-.21,17.6-13.76,35.84-31.45,52.75-47.81l26.38-25.53c12.26-11.86,34.59-33.61,46.99-43.71l2.78,8.83c.55,1.75,8.57.08,8.21-1.74l-1.54-7.83c-.35-1.79-2.66-2.15-5.12-3.2l5.5-6.41,2.98,3.09c2.34,2.42,13.59-9.31,18.22-5.86l8.54,6.35,12.47,3.3c-.54,5.5-2.48,15.21,1.07,15.4l13.77.74c2.19.12,4.39,7.85,6.35,6.85l9.59-4.88c9.29-4.73,20.29-7.16,28.09-1.72,5.02,8.95,6.41,14.87.51,24.65-3.76,6.24,4.21,15.48,10.76,15.33,4.48-.1,11.32-7.77,11.03-12.44l-1.86-29.96c-.5-7.98-1.04-12.82,1.73-21.23l-2.42-18.73c39.09-7.66,24.9,6.25,54.24-5.78l25.27-10.36,12.35,32.61c4.42,11.68,6.44,22.99,22.63,21.89,12.88-.88,18.03,9.42,25.35,18.08l22.57,26.72c6.09,7.21,13.2,13.49,21.28,12.84ZM609.85,1122.95l.68-28.83-13.16-1.32c-1.86,7.54-4.31,22.14-4.39,30.81-.04,4.77,16.75,4,16.86-.66Z" />
  <path class="cls-4" d="M593.78,970l-5.36-.02c-1.21,0-2.51,3.83-1.44,4.4l4.25,2.29-.88,6.46c-7.81-5.44-18.81-3-28.09,1.72l-9.59,4.88c-1.96,1-4.16-6.73-6.35-6.85l-13.77-.74c-3.55-.19-1.61-9.9-1.07-15.4l-12.47-3.3-8.54-6.35c-4.62-3.44-15.87,8.29-18.22,5.86l-2.98-3.09c13.03-22.1,29.54-43.05,46.1-62.94-3.68,6.21,16.42,18.63,19.9,20.42l20.59,10.57c5.9,3.03,17.52-9.12,19.81-13.51-.9,15.4-1.77,42.04-1.87,55.6Z" />
  <path class="cls-3" d="M512.78,909.44c-.16,2.35-1.62,10.34-3.57,12.97-34.59,46.79-76.5,83.56-119.83,118.13-2.93-5.06-6.66-10.14-10.6-14.7,6.72-12.83,65.25-45.43,68.44-59.55,19.55-6.55,47.28-49.54,65.56-56.84Z" />
  <path class="cls-9" d="M813.98,1055.83c1.04,1.63-.55,7.11,1.47,7.18l8.32.29,153.91,121.96,48.3,40.29-15.15,3.95c19.51,11.06,25.36,15.2,26.25,34.75,1.3,28.6-28.18.06-60.43,28.19l3.1-24.06c-39.04,26.71-73.98-21.44-71.01,1.46,4.99,38.45-19.59,3.2,4.26,75.04-.79-2.37,27.63,5.35,32.57-2.36l13.82,18.84-18.19-.54c-1.49,2.41-2.62,18.62,1.09,23.43s21.11,4.11,25.17-.43c4.06-4.55,6.5-18.22,8.68-23.97.94-2.49,10.79-1.6,11.43-4.18l3-12.05c1.19-4.79,3.95-12.26,6.17-15.6s13.09-.85,17.05.5c4.44,1.52,6.83,10.99,5.25,18.02-1.18,5.27-12.82,12.27-16.49,16.38-23.13,38.52-8.69,46.46-31.81,57.53-3.51,1.68-6.85,11.88-10.55,12.04s-11.35-1.15-15.94-2.35l-11.95-3.11c-2.6-.68-7.07,5.41-6.77,8.08,2.07,18.58,30.91,4.38,26.56,33.21l-23.32-9.79c-30.73-12.9-22.67,36.94-46.46,26.92-2.07-5.87,4.29-16.13,11.95-23.87l-13.19-20.23c-2.74-4.2-15.77-.33-18.25,3.84-11.06,18.57,9.52,22.49.48,40.36-3.26,6.44-24.71-2.37-24.8-2.62l-4.54-12.92c-1.82-5.17-41.36,11.64-38.92,15.89l26.18,6.79-7.33,23.32c-21.03,28.2-21.77,10.12-41.14,37.96-1.97-.4-8.1-11.06-8.94-16.29-.79-4.89,5.44-12.49,11.07-18.84l-17.6-26.98-11.34,10.98-17.5-3.26c-4.86-.91-21.58,21.05-27.33,17.47l-12.58-7.84-15.46,6.41,12.26-11.68-30.06,4.05-5.85,16.32c-1.32,3.68-5.2,9.94-7.47,13.18l5.88,25.41c3.43,14.85,1.87,30.66-7.52,40.69l-.42-3.92-.03-6.05c-.06-10.41-.04-21.48-2.65-30.54-.5-29.22-4.94-59.51-7.36-96.32l-1.93-29.48-52.86-.57c-2.7,30.94-4.63,60.18-5.07,89.97l-6.54,10.27c-.07-12.1-.09-26.78-1.37-40.37-.7-7.49-18.49-10.46-27.57-14.62l19.02-8.97c.47-2.23.51-8.56,2.06-8.35l8.73,1.2c4.11.56-2.45-12.42-1.73-17.27,1.67-11.35-7.74-22.64-15.45-31.15-12.75-14.08-19.16-37.31-45.58-30.27l9.46,11.05c-3.91,6.14-23.73,7.38-23.64.73.05-3.8,1.84-9.17.71-10.84s-5.78-4.24-6.67-2.43c-.67,1.36-4.89,7.12-6.41,7.13-6,.06-12.94-10.98-17.8-17.11-5.83-7.37-19.87,6.44-22.36,14.46-7.43-5.42-6.66-16.52-1.2-22.35,3.8-4.05,13.37-4.6,24.19-6.61-11.48-9.18-25.66-6.74-40.2-3.19-22.37,5.45-39.2-2.77-44.08,7.51-3.34,7.04,40.77,37.41,25.69,52.32l-19.91,19.69-25.71-6.09,9.1-7.41c.91-.74-.06-1.86-1.01-2.54l-6.72-4.78c-1.72-1.22-6.87.02-7.6,1.94l-3.59,9.51c-5.8-2.41-18.32-3.77-21.34.5l6.17,21.69c6.94-2.42,16.46-2.14,16.33,2.08-4.81,9.58-17.83,13.47-27.99,8.95-8.34-3.71-15.26-12.06-16.69-23.39-.95-7.52,9.67-19.54,15.98-25.93-7.35-13.7-10.5-26.67-3.36-42.94-5.46-26.9-93.01,9.59-114.23-3.42-14.9-9.13-27.35-6.89-38.4,5.47-7.03,7.86-38.78-1.64-39.25-5.79l-1.01-8.85-8.47-15.46c22.18,3.28,36.02,2.62,55.61-2,6.6-1.56,15.2,11.84,23.52-1.61l-41.7-15.42c-2.68-.99-8.21-7.76-10.11-6.02-27.46,25.23-.22-2.7-31.44,17.83.39.55-2.79-4.22-4.16-6.15s5.29-7.78,8.26-7.47c10.12,1.06,16.77-7.22,22.56-17.27l12.72-22.08c.93-1.61,8.23-2.22,10.05-2.6,7.45-1.56-18.74-11.69-14.83-22.38,25.37-25.22,54.74-46.28,84.4-69.46l126.85-99.14c20.52,12.57,16.36-28,44.36.21l-16.19,4.32c2.33,4.43,10.13,15.55,13.9,17.3,9.88-5.37,16.54-7.62,29.2-6.19l7.24-27.77c.69-2.63,4.69-7.14,6.84-8.24,7.58-3.86,16.5,19.06,18.94,26.39l-10.39-1.66c-24.77-3.96,7.45,5.18,8.3,22.79.16,3.35,2.22,9.73.33,10.23l-13.14,3.48c-4.98,7.46,12.05,11.85,16.03,16.55,6.82,8.07,12.67,14.64,25.23,17.16l9.73-22.91-7.11-10.64c6.07-2.5,15.32-10.28,13.47-15.43-1.65-4.58-3.89-9.28-2.26-8.99l7.25,1.27c1.67.29-.5,3.26-2.1,9.13,3.74-.67,10.99-2.38,11.05-4.86l.39-14.01s6.95-1.43,9.94-2.06c2.61-.55,4.67,7.08,7.08,9.83,8.62,4.85,24.39,2.72,35.37,1.06l17.61,14.9,7.03,14.21c47.95,14.72,13.49-48.23,83.4-40.4,1.37-2.98,2.77-8.71,4.45-8.7l9.8.07c13.53.09,19.61-16.82,30.22-21.3,7.46-3.14,21.48,1.68,31.67-8.19l23.22,30.23,6.84-16.11,18.3,12.01c5.39-10.74,5.39-24.37,1.13-35.21,4.64,2.15,10.96,6.16,13.54,10.06ZM519.14,1142.46l24.81-3.8-12.57-13.85-14.76,7.65c-5.78,2.99-12.13,5.6-13.23,9.6-1.72,6.26.35,13.97,6.1,17.7l9.64-17.3ZM617.39,1232.85c.29-12.5-2.25-25.94-5.1-39.7l-24.46.98-5.27,82.01c-.23,3.59,1.88,13.41,4.76,13.99l12.03,2.38c4.19.83,13.03-.53,16.85-2.12,10.36-4.31.4-23.48,1.18-57.54ZM500.61,1371.18l-27.37-8.99c2.77,14.53,15.88,19.36,27.37,8.99ZM803.49,1461.39c-2.05.44,2.73,6.63,4.61,5.75,1.26-.59,3.81-1.56,5.21-2.06,1.32-.47-.59-5.67-1.94-5.38l-7.88,1.69Z" />
  <path class="cls-10" d="M306.32,1505.75l-21.9,15.75c-4.95,3.56-16-11.89-14.66-17.12l29.87-7.38c1.92-10.7,4.14-20.76,8.21-29.21l27.15,10.73c6.44,2.54,12.17,7.92,14.69,14.31,1.98,5.03-5.7,11.4-9.47,16.87-5.63,8.16-4.39,19.67-15.15,18.53-12.36-1.31-18.25-1.55-18.74-22.48Z" />
  <path class="cls-10" d="M279.16,1606.69c-6.21-8,18.65-45.09-1.21-55.85-1.84-1-10.1,2.61-11.13.68s-2.58-6.37-2.24-8.55,5.75-5.6,7.93-5.22l15.08,2.59c3.31.57,7.23-6.58,10.17-10.36,2.23-2.86,11.91,2.26,10.59,5.4-1.56,3.69-6.09,11.12-3.78,11.85l10.76,3.42c-4.67,13.81-9.26,29.48-11.02,42.06-4.51-.73-11.82-2.78-13.69-.43l-11.45,14.41Z" />
  <path class="cls-10" d="M1113.64,1326.4l-40.23-.21c-.18-9.16.36-18.69,3.15-26.21,10.67.44,45.39,5.96,37.08,26.42Z" />
  <path class="cls-9" d="M709.78,1537.55l-3.36-6.67c-.85-1.68,2.57-3.31,6.93-5.37,4.14-1.95,14.86-1.11,16.59,2.98s-1.2,15.09-5.09,17.2-13.05-4.15-15.07-8.14Z" />
  <path class="cls-9" d="M759.68,1555.86c1.47,1.01,1.4,8.33,1.45,10.12s-6.4.72-7.8-.38l-21.56-16.98c9.55-2.43,22.47,3.5,27.91,7.25Z" />
  <path class="cls-9" d="M930.85,1326.35l-6.01,4.04c-1.11.74-4.99-1.63-5-2.97-.09-8.19,2.47-10.41,7.69-15.02,1.94-1.72,9.77,2.95,8.97,5.43s-3.48,7.06-5.65,8.52Z" />
  <path class="cls-9" d="M933.21,1090.32c22.81,18.22,49.29,31.74,75.91,47.26l98.92,57.67c8.1,4.72,15.4,9.84,21.4,14.92-28.37,10.35-34.46-17.34-48.4-20.55-7.66-1.76-24.99,7.7-30.32,13.36-2.16,2.29,2.1,10.21,5.25,10.32,3.15.12,9.57-2.1,12.1-4.23l6.95-5.86c1.81-1.53,3.92,7.53,3.18,9.93-7.31,23.65,44.47,35.88,41.88,51.12-38.6-23.54-75.04-50.39-112.73-78.44-55.41-41.25-111.25-79.04-163.3-122.14,1.78-3.96,13.9-10.97,19.36-10.16,18.23,2.7,41.38,28.4,69.81,36.8Z" />
  <path class="cls-9" d="M1153.36,1223.57c-7.79,5.29-16.81-4.43-19.69-12.6,6.56,1.23,14.25,10.1,19.69,12.6Z" />
  <path class="cls-9" d="M378.78,1025.84c3.95,4.56,7.67,9.63,10.6,14.7l-3.22,2.67c-6.32.87-11.93,4.83-12.96,10.85-52.89,45.54-111.95,83.74-168.88,126.68-20.74,15.64-39.99,30.17-60.99,42.62l-3.52-21.22-2.05-12.36c-2.56-15.45-30.33,20.15-48.37,12.7,28.6-26.85,85.87-47.43,113.61-72.09,56.03-26.08,107.46-61.87,160.17-93.78,1.72-.32,4.64-1.37,6.3-1.78,1.1-.28.69-4.22.69-4.68l8.6-4.3Z" />
  <path class="cls-3" d="M863.4,1053.53c-5.46-.81-17.58,6.19-19.36,10.16-11.76-9.73-26.11-18.25-38.25-29.62l-43.54-40.82c1.89-2.94,3.39-5.32,5.66-6.39,1.69-.8,8.95,1.2,10.43,2.26l67.4,48.21c7.63,5.46,13.22,10.4,17.66,16.2Z" />
  <path class="cls-1" d="M640.06,1609.52l.68,6.52c2.4,22.94,1.32,55.59,9.26,60.63l-3.46,12.88.36,3.79c.07,1.69.17,4.63.31,6.17l3.42,40.06,2.39,23.77.14,16.45c.13,1.16.3,2.83.27,3.82l-.52,16.4h-92.83l-9.69-7.56,12.17-165.77,10.2,1.16c1.81.21-3.54,8.52-2.43,9.95,3.8,4.85,14.99,13.02,21.14,13.42,2.91.19,9.71-6.43,11.79-4.38,1.66,1.64,6.58,6.53,8.73,7.81,4.67,2.8,14.53-6.87,17.23-11.58,6.75-11.79-4.54-30.67,3.39-32.14l7.45-1.39Z" />
  <path class="cls-9" d="M646.67,1626.67l-.11,33.53c0,1.67.61,6.31,1.86,6.34l4.91.13c.15,1.66.11,5,0,6.67-.08,1.23-2.4,2.7-3.33,3.33-7.94-5.04-6.85-37.69-9.26-60.63,1.42.16,5.14,1.32,5.28,3.04l.64,7.59Z" />
  <path class="cls-2" d="M637.23,1563.06c.18,10.38-1.49,21.95,2.65,30.54l.03,6.05c-2.23,1.5-2.03,2.83.42,3.92.16,1.47-.42,4.47-.27,5.95l-7.45,1.39c-7.92,1.47,3.36,20.35-3.39,32.14-2.7,4.71-12.56,14.38-17.23,11.58-2.15-1.29-7.07-6.18-8.73-7.81-2.08-2.05-8.88,4.57-11.79,4.38-6.15-.4-17.34-8.57-21.14-13.42-1.12-1.43,4.23-9.75,2.43-9.95l-10.2-1.16,1.75-36.76c.56-11.75.13-23-.97-33.24l1.42-6.81c2.99-6.44,5.14-15.67,5.25-23.19.44-29.79,2.37-59.04,5.07-89.97l52.86.57,1.93,29.48c2.42,36.81,6.85,67.1,7.36,96.32ZM623.71,1590c0-2.05-1.66-3.71-3.71-3.71s-3.71,1.66-3.71,3.71,1.66,3.71,3.71,3.71,3.71-1.66,3.71-3.71Z" />
  <path class="cls-2" d="M609.85,1122.95c-.11,4.66-16.91,5.43-16.86.66.08-8.67,2.53-23.27,4.39-30.81l13.16,1.32-.68,28.83Z" />
  <path class="cls-2" d="M617.39,1232.85c-.78,34.06,9.18,53.24-1.18,57.54-3.83,1.59-12.66,2.95-16.85,2.12l-12.03-2.38c-2.89-.57-4.99-10.39-4.76-13.99l5.27-82.01,24.46-.98c2.85,13.76,5.39,27.19,5.1,39.7Z" />
  <path class="cls-3" d="M519.14,1142.46l-9.64,17.3c-5.76-3.74-7.82-11.44-6.1-17.7,1.1-3.99,7.45-6.61,13.23-9.6l14.76-7.65,12.57,13.85-24.81,3.8Z" />
  <path class="cls-7" d="M500.61,1371.18c-11.49,10.36-24.6,5.54-27.37-8.99l27.37,8.99Z" />
  <path class="cls-10" d="M183.21,1069.84l-1.88,8.82c-12.02,4.31-29.46-3.71-30.16-17.71l12.69,6.48,19.36,2.41Z" />
  <path class="cls-9" d="M240.77,1029.66l1.36,14.98c.63.3-4.53.63-5.22-.6l-3.71-6.57h0l-8.27.86c-1.9.2-2.87-4.15-4.39-5.29,1.34-.21,4.88-.56,4.78-1.95l-.55-7.37c4.09-1.73,13.18,1.87,16,5.95Z" />
  <path class="cls-10" d="M223.66,756.77l-.25,29.95.21,26.07c.25,31.37-.45,61.67.98,95.19,7.5-6.25,11.72-13.19,12.2-22.56l3.52-68.25c.23-4.51,9.86-12,13.99-10.17,3.61,1.6,9.02,8.58,9.35,12.52.59,7.05.9,19.54.66,27.14l-.75,23.61c-1.31,20.11-6.22,39.25-17.68,56.16l-21.33,6.86.45,33.38.95,49.56c-12.19-.28-25.07-.08-36.53-3.22-.35-1.04-1.01-4.86-2.45-4.82l-8.87.24c-5.92.16-13.8,6.18-18.38,8.93-4.34,2.6-18.42,1.26-16.92,6.12,1.16,3.77,5.57,11.54,3.1,13.08l-9.84,6.13c-19.13,2.36-41.68-26.28-51.9-17.48-3.26,2.81-6.85,10.31-7.92,14.62l-17.56.96c-4.73.26-8.3-10.38-11.17-15.15l-3.68-6.1c-.58-.96-3.98-.88-4.43.17l-2.35,5.53c-12.05-8.62-24.08-13.44-37.06-11.9v-113.33c38.11-8.13,71.2-10.55,97.43,23.11,4.38-5.66,4.13-15.82-.57-19.27,11.31,3.71-.45-49.12,6.23-66.8l9.64-4.12c-1.17,5.35,2.43,17.35,7.27,17.08-4.5,11.89-5.03,33.65-2.1,46.66l7.33-16.29,4.4,5.65c-1.24,7.44-2.09,18.56-2.65,26.47l11.89.46c11.85.46-5.81,12.12,15.6,25.73l7.83,4.98c1.53.97,6.1-2.85,7.55-2.33l17.48,10.01c2.33-13.73,2.77-30.39.27-41.05-12.7-4.57-22.01-9.95-25.93-22.26l-4.81-15.14c-1.02-3.2.93-11.36-1.89-13.25-4.46-2.98-9.82-7.06-11.1-9.98,20.12,1.32,13.6-47.19,5.98-49.41,12.82-1.89-.54-21.74,13.34-33.41l10.15.18c13.07,24.01,2.79,77.62,9.39,109.06,11.22-31.66,6.57-61.28,7.99-92.83l.99-27.2c.17-4.72-1.39-47.44,15.81-41.49,14.19,4.91,16.1,46.17,16.14,42.2ZM185.51,1001.01c0-1.22-.99-2.21-2.21-2.21s-2.21.99-2.21,2.21.99,2.21,2.21,2.21,2.21-.99,2.21-2.21Z" />
  <path class="cls-4" d="M240.32,817.17l-3.52,68.25c-.48,9.37-4.7,16.3-12.2,22.56-1.44-33.53-.73-63.83-.98-95.19l16.71,4.38Z" />
</svg>