<?xml version="1.0" encoding="iso-8859-1"?>
<!-- Generator: Adobe Illustrator 30.2.1, SVG Export Plug-In . SVG Version: 9.03 Build 0)  -->
<svg version="1.1" id="Layer_1" xmlns="http://www.w3.org/2000/svg" xmlns:xlink="http://www.w3.org/1999/xlink" x="0px" y="0px"
	 viewBox="0 0 1200 1543" style="enable-background:new 0 0 1200 1543;" xml:space="preserve">
<style type="text/css">
	.st0{fill:#F9F0E6;}
	.st1{fill:#781F49;}
	.st2{fill:#372F39;}
	.st3{fill:#FAC065;}
	.st4{fill:#CE7255;}
	.st5{fill:#F9CE87;}
	.st6{fill:#F891B5;}
	.st7{fill:#F51983;}
	.st8{fill:#0F9EBB;}
	.st9{fill:#F9B60F;}
	.st10{fill:#EA4490;}
	.st11{fill:#5DCCDE;}
	.st12{fill:#F3BF8F;}
	.st13{fill:#98D8E1;}
	.st14{fill:#7D94B9;}
	.st15{fill:#E5A538;}
</style>
<path class="st0" d="M0,875.89V0h1200v452.73l-5.34,4.49c-29.17,10.95-56.58,25.38-82.22,43.29l-3.66,0.43l-2.41,1.74
	c-9.32-5.34-17.64,0.42-13.99,10.9l-0.93,3.37l-1.47,4.92c-26.35,24.9-42.7,60-44.1,96.28l-2.73,4.35
	c-3.37,2.84-11.62,2.23-14.47-1.15c-4.1,3.52-7.59-3.73-3.94-6.66l-0.39-3.71c13.34-17.66,6.48-41.45-8.71-55.71
	c-2.26-2.93-2.95-4.04-0.19-6.51c94.46-47.44,27.96-176.12-66.39-149.37c-7.68,0.84-6.89-3.78,2.37-13.86
	c45.2-68.65-13.66-148.33-90.24-112.77c-4.3,0.57-6.54,0.85-5.3-3.37c45.16-59.32,20.95-131.4-49.5-154.58
	c-69.24-22.78-152.91,13.39-155.69,91.91c-0.24,2.97-1.73,3.87-4.47,2.68c-52.78-29.53-116.28,5.26-122.46,64.35l-2.96,3.57
	l-3.81,0.95c-20.55-11.29-47.12-10.74-61.02,10.23c-2.82,2.77-3.9,3.81-6.51,0.78c-19.35-48.03-74.55-63.49-120.13-42.92
	c-41.13,18.56-64.67,63.1-41.26,104.67c0.99,2.45,0.23,3.86-2.34,4.19c-29.24-1.28-50.45,18.25-48.64,47.92
	c-0.23,2.45-1.56,3.34-3.95,2.72c-37.91-15.28-80.31,12.73-92.87,49.18c-15.92,46.19,12.46,88.2,58.02,99.69l2.72,3.59l-0.81,3.67
	c-18.72,12.78-19.63,37.99-6.45,55.27c2.36,6.07-2.28,7.13-13.92,3.18C97.6,608.17,49,710.3,128.14,751.2c2.08,1.24,2.43,2.8,1,4.7
	c-49.5,62.06,53.48,130.35,105.82,84.24c3.3-1,3.86,0.49,4.75,3.71c-8.77,28.6,19.32,40.9,37.66,19.21c3.1-2.14,6.8-4.12,7.48,0.65
	c8.91,0.37,2.11,15.27-3.63,9.4l-1.59,2.74c-2.38-0.14-4.13,2.71-5.26,8.54c1.23,4.8-0.37,9.41-4.8,13.83
	c13.4,4.25,12.04,13.41-1.46,14.7c-3.61,2.3-3.12,5.97,1.46,11.02c0.09,0.99-4.88,17.75-5.42,19.12c-0.18,0.45-0.81,0.73-1.57,0.95
	c0.23,2.52,1.08,4.33,2.53,5.44c2.43,1.02,2.31,2.16-0.29,2.63c1.15,0.16,1.25,0.66,0.37,1.49c-0.39,0.51-0.75,0.9-1.04,0.85
	c-10.74-1.83,1.31-1.34,2.13,0.21c1.31,2.46-1.94,4.75-4.38,4.79c-0.05,2.06-0.26,4.34-1.22,6.19
	c-1.62,3.13-20.89,21.21-22.82,21.52c-0.68,0.11-1.4,0-2.13-0.18c-0.49,1.59-1.38,2.97-2.68,4.13c2.06-0.05,1.19,1.41-0.06,2.77
	c1.44,3.32-1.29,5.17-4.1,2.75l-17.1,17.31c-4.69,3.84-8.24,4.35-10.65,1.53c-3.54-0.7-4.53-3.82-2.99-9.37
	c3.49-8.3,6.42-16.74,8.79-25.34c5.39-10.96,10.36-26.67-0.89-35.51l-0.92-3.76c-1.47,1.23-2.74,1.77-3.54,0.17
	c-4.04,3.78-5.85,9.34-5.43,16.69c0,0-0.98,0.65-2.95,1.95c0.79,4.07-0.36,8.4-3.47,12.98l-23.4,42.81
	c-5.95,14.48-9.51,29.97-12.83,45.42l-3.47,3.37l-5.04,1.12c-16.62-5.17-33.68-7.7-51.17-7.58c-0.97-8.3-1.75-16.66-2.35-25.07
	c41.25-65.35-20.09-143.29-87.77-154.21L0,875.89z"/>
<path class="st1" d="M970.88,1058.14c-7.07-13.12-16.02-35.21-11.82-50.07c0.09-0.32,0.65-0.5,1.33-0.65
	c-0.63-4.72,4.57-13.36,9.58-10.76c0.98-0.58,1.96-0.68,2.93-0.17l3.39,15.34c1.76,2.32,3.86,4.33,6.31,6.04l3.54,1.8
	c3.45,13.11,8.67,25.39,15.66,36.84c4.15,9.68,7.19,19.74,9.12,30.16l-1.84,3.28c6.78,7.25,9.38,22.91,8.84,32.78
	c-4.52,12.02-1.34,18.51,4.13,29.4c2.65,5.28,5.46,10.51,8.35,15.71c9.61,17.29,19.71,34.41,29.86,51.53l0.55,6.16
	c1.04-0.3,2.42-0.69,3.1-0.03c1.87,1.8,14.1,22.92,15.62,26.25l-1.31,3.04c4.02,3.29,6.04,4.94,6.04,4.94l23.1,37.51l2.01,7.56
	c4.61,1.19,10.56,5.68,7.7,10.5c6.57,6.2,12.06,13.7,16.47,22.51c6.46,8.4,11.83,17.39,16.13,26.95
	c9.29,6.99,15.28,15.48,17.98,25.47l4.16,1.34c8.16,16.22,16.79,32.14,25.91,47.76l2.3,6.92v96.61h-73.77
	c-1.66-1.54-3.28-3.12-4.75-4.82c-1.46-1.69-2.89-3.38-3.97-5.26c-25.53-44.56-51.21-91.7-71.46-138.85c-0.86-2-1.34-4.16-1.8-6.36
	c-0.46-2.21-0.73-4.47-0.94-6.74l-3.28-0.93c-1.87-5.87-4.52-11.31-7.93-16.33l0.72-3.18c-2.2-2.6-4.4-5.31-5.67-8.5
	c-19.5-48.9-39.68-97.88-60.91-145.82c-2.34-5.29-6.62-13.27-11.38-16.52c-31.99-18.68-62.01-41.58-86.13-69.8l-10.84-8.29
	l-0.62-3.98c-0.91,0.58-2.33,1.43-2.95,0.92c-3.99-3.26-26.07-23.1-27.4-25.73c-7.31-14.48,6.04-15.2,16.64-10.1
	c11.62,7.25,22.93,14.94,33.93,23.04c-15.87-18.13-32.12-35.96-48.75-53.5c-15.52-19.99-7.46-34.26,14.8-18.01
	c11.57,9.67,22.63,19.92,33.19,30.74l-38.46-42.67c0,0-0.84-2.29-2.52-6.86l2.31-1.73c9.35,5.46,11.32,2.44,5.89-9.06l2.51-2.28
	c12.05,3.43,25.04,14.54,30.98,25.55l4.3,0.31l19.41,20.12c-5.36-7.14-11.16-13.91-17.4-20.32l0.08-3.95l-2.79,0.87
	c-6.36-7.33-12.73-14.66-19.09-22l0.78-3.19c-0.12-4.91,3.06-3.66,6.46-2.01c7.21,6.95,10.29,7.26,9.25,0.92
	c-1.63-3.21-2-5.97-1.1-8.27c4.58,1.63,6.87,2.45,6.87,2.45c29.18,26.03,57.47,53,84.88,80.92
	C968.1,1060.83,968.7,1058.99,970.88,1058.14z"/>
<path class="st2" d="M751.33,1086.25l4.33,0.79c9.45,12.85,17.3,26.69,23.54,41.52l-0.76,4.42l2.96,0.46
	c5.41,12.92,11.29,25.66,17.62,38.23c8.35,15.73,12.76,19.54,13.24,11.43c-1.69-18.04,1.37-34.55,9.18-49.54l3.68-0.53
	c-2.61-4.9,7.85-9.1,10.49-4.26l2.24,2.23c-3.91,8.78-3.89,15.78,0.04,21l2.53,3.09l-0.02,17.62c4.78,34.83,0.96,68.21-11.94,101.72
	c8.33,31.32,18.49,62.09,30.47,92.31c-8.24-25.04-6.47-57.14,0.12-82.99c2.63-10.3,7.18-23.69,16.47-29.65
	c3.37-2.16,9.95-5.31,11.62-0.49c3.02,0.91,6.06,2.02,9.13,3.35c4.42-1.27,8.86-2.07,13.33-2.39c2.33-2.45,1.87-5.85-1.37-10.2
	c3.1-5.54,13.65-3.12,19.24-1.5c36.7,10.59,54.61,73.25,51.07,107.48c3.52,15.67,10.69,30.22,21.52,43.65
	c3.94,4.84,8.17,24.97,4.82,29.28c-0.83,1.07-1.92,1.75-3.24,2.09l-3.69,1.5c-8.32-3.73-16.91-6.58-25.76-8.54l-2.5-3.01
	c-1.87,2.09-2.78,2.05-2.7-0.86c-2.85,1.51-9.33,1.5-9.26-2.7l-2.56,1.68c-4.81-1.39-20.04-8.44-15.15-14.03
	c-8.87-2.91-10.66-7.31-5.37-13.19c-0.71-5.08,0.16-8.64,2.62-10.67c-3.99-2.67-2.61-10.67,0.31-14.68
	c-0.99-3.34,0.05-10.06,3.11-11.93c0.83-7.38,2.94-10.06,6.34-8.04c4.94-3.24,8.09-7.58,9.45-13.01c2.14-5.4,1.11-9.04-3.1-10.93
	l-3.25-1.05c-3.14-9.02-11-12.89-20.01-14.04l-1.66-2.97c-3.2-1.18-4.18-2.93-2.96-5.27l-3.2-0.32
	c-6.1-12.55-15.22-24.21-30.78-20.46c-0.74,3.69-2.28,5.26-4.61,4.71l0.37,4.6c-5.71,9.88-10.33,20.42-13.13,31.5l-3.43,3.03
	c-1.5,1.17-3.02,0.99-4.55-0.53c-3.3,9.08,0.73,16.93,5.86,24.28c2.28-3.13,3.75-1.68,2.77,1.85c2.43,0.5,3.37,0.96,1.09,2.57
	c3.11,1.95,5.38,4.78,6.81,8.51c15.42,15.42,20.32,53.72-5.34,60.07c2.43,3.65,2.51,6.1,0.24,7.32l6.19,9.55l-1.04,2.89
	c3.58,2.65,4.46,4.78,2.64,6.39c2.12,2.39,4.28,4.88,5.5,7.87c12.2,29.98,24.32,60.3,35.82,90.42l0.04,4.98H816.74l-3.39-2.52
	c-2.16-9.57-3.73-19.22-4.71-28.93l-4.58-11.57l0.9-2.17l-2.48-1.86c1.66-4.11,2.05-8.55,1.15-13.33l-3.15-3.66
	c-2.18-11.23-4.83-22.35-7.95-33.38l1.74-4.54l-3.22-2.33l-15.15-73.03l2.3-2.1c-3.41-3.07-5.2-7.39-5.34-12.96l-0.97-13.88
	l-3.12-1.21c-0.82-6.82-2.17-13.49-4.06-20.01l1.53-2.89l-1.11-1.34c-2.67-0.21-2.89-1.32-0.47-2.5c-2.3-1.48-4.08-3.7-5.34-6.68
	l-6.69-7.31c-0.99-1.54-0.93-2.85,0.16-3.93c-5.44-1.46-14.13-10.33-12.2-15.75l-6.1-3.6c-17.67-25-32.07-52.31-45.85-79.68
	c-0.43-0.86-0.48-1.93-0.52-3.05c-0.03-1.15,0.12-2.3,0.32-3.45l-3.25-0.6c-1.59-1.23-12.35-26.51-12.24-28.88
	c0.32-6.5,3.76-9.57,10.26-8.39c3.62,0.65,7.39,1.67,5.14,5.55c5.98,4.95,10.94,11.31,14.86,19.09l10.91,14.57
	c-4.35-9.25-8.71-18.53-12.66-27.97c-0.57-1.35-0.74-2.88-0.9-4.45c-0.16-1.59-0.12-3.19-0.03-4.8c-2.36-1.09-3.54-1.63-3.54-1.63
	c-4.44-11.06-8.89-22.11-13.33-33.17l1.76-2.8c-7.03-2.34-0.38-19.94,5.82-12.38c2.07-1.75,4.37-0.46,6.9,3.89
	c1.91,0.39,3.55,1.22,4.91,2.48l11.59,20.34l-6.43-14.85c-4.2-6.01-6.71-12.06-7.54-18.16c-4.47-0.94-3.8-9.2,1.29-6.99
	c1.16-3.81,13.8,3.35,15.75,5.03c-0.31,2.62,1.21,3.03,4.57,1.23l0.92,1.6l2.94-0.22l25.63,46.17
	c-6.46-18.71-13.04-37.37-19.75-55.98l1.98-3.07c2.71-1.06,5.58,0.33,8.61,4.15C745.98,1087.9,747.37,1088.3,751.33,1086.25z"/>
<path class="st3" d="M1200,782.11v414.85c-1.94-1.07-3.85-2.18-5.64-3.46c-1.78-1.27-3.53-2.55-4.95-4.11
	c-20.14-22.1-38.88-45.42-57.48-68.82c-14.91-18.76-29.52-37.75-43.94-56.89c6.22-42.37-4.73-79.09-17.68-117.97
	c-3.2-23.35-4.8-35.03-4.8-35.03c-14.81,4-15.1,18.01-13.95,30.9l5.4,34c0.31,18.72-12.62,4.08-18.97-3.15
	c-13.52-17.79-27.71-34.7-42.57-50.75l-0.28-3.01c-7.47,5.26-13.64-10.95-9.14-15.83c-0.35-1.9,0.76-3.1,3.32-3.6
	c-4.45-4.6-2.57-9.86,0.15-14.89c2.3-4.26,22.13-25.76,26.15-28.28c5.37-3.36,11.63-4.05,17.85-3.35c3.41-3.69,5.87-7.78,7.4-12.25
	c4.31-1.07,6.47-1.61,6.47-1.61c-0.31-3.12,0.25-5.9,1.69-8.34c40.3-29.3,93.85-49.29,143.92-50.74c1.15-0.03,2.32,0.3,3.51,0.7
	C1197.68,780.89,1198.85,781.47,1200,782.11z"/>
<path class="st4" d="M918.79,882.86l3.2,0.19c4.88,7,11.53,14.7,20.25,16c-2.02-3.29-4.96-8.13,0.5-8.67
	c2.5-2.88,3.56-2.53,3.87,1.25c4-0.66,8.61,4.76,6.89,8.53c2.37,0.45,2.96,2.55,1.77,6.33c8.67,8.93,16.48,18.6,23.41,29.01
	l1.51-1.98c-1.77-0.64,1.49-5.49,2.39-6.34c1.89-1.79,5.51,0.85,6.65,2.94l2.87-10.42l3.04-1.02c9.53,2.11,41.23,54.08,58.44,64.48
	c5.65-15.39-22.99-69.43,14.54-75.78c2.83,71.03,30.47,67.94,22.26,155.45c35.9,46.09,70.6,92.32,109.62,134.14v166.51l-2.91,0.48
	l-37.92-55.74c-0.86-0.79-9.35,19.11-9.73,21.25c-0.76,4.19,0.98,30.01,2,33.03c0.93,2.77,19.17,9.59,23.14,10.37l1.31,3.19
	c4.38,2.98-3.93,14.91-8.24,14.18c-17.32-24.19-36.53-48.23-50.57-74.93l1.29-2.79c15.28-4.27,13.52-6.03-5.27-5.28l-3.71-2.43
	c-11.48-16-21.18-33.26-31.14-50.01l-0.05-3.24c6.38-8.02,11.06-17.52,14.02-28.49c3.55-3.98,7.44-1.49,11.67,7.46
	c4.09,5.51,9.16,10.7,15.63,13.26l-26.82-41.61l1.63-2.12l-4.51-4.48c-17.05-28.63-35.1-56.61-54.14-83.92
	c-6.33-6.84-13.87-12.28-22.64-16.3l-3.94-5.4c-3.95-12.89-4.35-24.81-12.55-37.1c-6.83-10.24-9.53-23.83-13.93-34.97
	c-1.3-0.09-2.65-0.67-3.37-1.8c-0.54-6.28-1.66-12.38-3.37-18.3c-2.44,0.42-4.41,0.05-5.9-1.11c-20.5,14.55-0.55,48.03,0.91,61.48
	l-4.71-2.84c-21.45-24.92-42.84-52.52-60.75-80.19c-5.89-9.1,8.89-17.3,18.12-8.95c1.57,1.42,2.11,2.21,1.07,4.59l4.67,2.1
	c6.79,9.78,14.6,18.86,23.53,26.72c-6.84-11.22-14.26-22.05-22.25-32.51l-1.03-6.6l-4.13-1.94c-3.88-7.64-8.3-14.94-13.28-21.9
	l-0.23-4.55c-7.57-2.56-6.86-15.03-0.5-18.95c8.9-5.48,23.14,9.94,25.82,17.79c5.49,7.92,5.49,7.92,0,0
	c-1.31-3.7-2.78-7.4-4.39-11.11l-14.18-18.97C915.23,895.19,908.57,883.71,918.79,882.86z"/>
<path class="st5" d="M1200,452.73v329.38c-52.78,2.01-106.22,18.67-149.08,50.21c-1.69,1.24,0.04,7.34-1.53,8.69
	c-1.23,1.05-3.82-0.03-6.63,0.83c-0.11,6.26-6.23,9.09-7.93,14.33c-12.22-3.9-20.29,2.37-27.14,11.66
	c-6.24,8.46-17.9,14.81-18.46,26.05c-0.09,1.78,4.08,4.73,2.97,6.5c-1.23,1.97-4.27,2.2-6.18,2.45c-4.38,0.33-8.24-10.47-9.25-14.65
	c-1.18-4.91-1.59-9.47,0.4-14.3l-0.59-3.29c-1.14,0.23-2.8,0.13-3.01-0.75c-1.89-12.82-4.75-25.36-8.58-37.62
	c-7.72-5.65,6.74-17.63,12.3-21.05l3.04,0.52c5.32-6.13,10.06,0.97,9.77,6.83c2.41,0.88,3.94,3.09,4.61,6.62
	c2.24,3.78,10.54,14.8,12.5,7.89c3-2.46,6.69-3.15,7.01,1.1c3.05-0.12,5.11,2.97,6.18,9.25c3.76,8.7,6.26,5.34,2.3-2.05l0.87-0.96
	c-3.29-4.79-5.62-9.96-6.99-15.51c-3.84-0.41-3.77-1.82-0.36-3.62l1.41-3.63l11.79-3.8l-0.4-4.26c3.64-6.28,2.4-8.62-3.7-7.03
	c-4.6-1.98-7.55-13.02-3.51-16.23l3.65-3.48c23.81-5.45,43.51-20.6,58.41-39.58l4.73-1.76l2.67-3.24l15.21-2.9
	c-3.06-2.37-6.57-4.43-10.53-6.18l-0.4-3.23l-1.72-4.24c9.1-39.04-8.39-82.13-47.89-95.51l-2.77-3.69
	c-0.22-39.12,18.78-79.93,48.31-105.55l2.56-1.27c9.46,3.35,16.13-3.18,12.77-12.52l2-2.23
	C1136.75,480.73,1166.86,462.59,1200,452.73z"/>
<path class="st6" d="M150.03,1064.85l2.1,2.18c0.3,11.2-0.68,24.52-8.52,34.06c-42.28,51.4-87.43,100.84-136.64,145.59L0,1250.89
	v-375c43.28,5.14,83.48,36.76,100.36,77.07c11.6,27.7,9.43,56.74-6.39,80.92c1.3,7.98,1.89,14.8,1.16,22.93
	C114.62,1055.08,132.5,1058.68,150.03,1064.85z"/>
<path class="st4" d="M201.12,1015.43l1.72,0.81c-0.42,5.13-1.93,10.21-4.54,15.24c3.2,2.5,2.62,4.51-1.4,4.99
	c-0.36,2.93-2.33,5.5-5.93,7.73c3.57,6.44,2.24,13.13-3.98,20.07c-0.43,3.8-1.64,6.55-3.64,8.23l0.16,3.27
	c-3.19,1.87-13.04,7.77-5.21,8.82l1.16,3.07c1.19-1.52,3.36-1.86,6.5-1.02c4.18-5.21,7.87-6.28,11.07-3.22
	c1.12,0.7,1.56,1.51,0.95,2.48c-4.14,3.72-5.87,7.38-5.17,11.01c4.36,0.85,6.48,5.57,3.93,9.28c1.92,0.72,3.31,1.45,4.17,2.17
	l14.78-9.17l2.61,1.48c4.29-1.28,8.75-0.67,13.37,1.85c6.24-5.1,13.38-8.87,21.44-11.29c2.26-4.47,6.47-7.69,12.62-9.64
	c0.41-6.72,16.7-11.6,21.06-10.85c4.42,0.75,5.49,2.35,4.8,6.56c-4.88,5.31-8.9,10.96-12.06,16.96c-0.6,1.37-1.26,2.72-2.07,3.95
	c-0.81,1.23-1.59,2.42-2.65,3.22c-17.78,13.41-35.29,24.69-54.83,35.38c-1.18,0.65-2.6,0.88-4.07,1.13c-1.48,0.25-2.99,0.3-4.51,0.3
	c-0.83,3.17-3.59,5.36-8.29,6.56c-1.61,0.97-3.1,2.14-4.24,3.69c-20.3,27.56-40.26,55.65-58.85,84.47c-2,2.9-4.82,5.11-7.6,7.23
	l0.78,3.79c-9.37,11.11-17.08,22.97-23.13,35.6l-3.29,1.81l-0.47,3.99c-11.16,13.75-21.23,28.02-30.2,42.8
	c0.29,2.87-0.47,4.88-2.3,6.01c-1.74,1.47-3.65,2.87-5.73,4.2l-25.22,34.78l-3.81,0.79l1.27,2.66
	c-12.42,14.95-24.84,29.9-37.26,44.87L0,1420.98v-159.38c15.42-19.04,32.03-37.1,49.86-54.18c14.85-15.54,29.22-31.51,43.58-47.5
	c18.27-20.34,36.91-41.46,53.07-62.85c1.87-2.47,3.04-5.42,3.76-8.4c2.1-39.88,15.13-76.18,36.11-108.74l7.98-17.22l2.3-1.32
	c-0.73-3.1,0.39-6.6,3.36-10.52c0.74-4.58,2.44-7.72,5.1-9.42c15.12,8.38,11.06,26.95,4.36,40.03
	C208.38,994.04,197.33,1003.81,201.12,1015.43z"/>
<path class="st7" d="M655.01,1189.49c2.4,2.64,3.61,3.96,3.61,3.96l6.72,46.13c0.59-14.2-0.37-28.33-2.88-42.39l2.16-3.95
	c-4.03-1.33-2.1-9.04-0.23-11.96c5.08-7.92,16.94-0.12,14.49,6.85c0.97,1.8,1.9,3.62,2.64,5.52c0.73,1.88,1.43,3.74,1.72,5.65
	c3.02,19.83,5.18,39.87,6.82,59.83c3.42-13.51,24.46-36.5,27.44-10.29c-4.45,7.07-5.04,14.65-5.63,22.74l-3.07,2.25l2.24,2.85
	l-1.35,26.37c0.08,5.87-1.72,9.42-5.4,10.65l1.74,2.71c-3.14,5.73-5.78,11.67-7.92,17.8l-3.11,2.01c3.78,1.6-1.38,9.83-5.04,8.34
	c-1.03,12.29,2.57,24.69,6.43,36.39l-1.06,1.19c4.57,5.19,8.88,16.4,10.5,23.54c0.65,2.85,1.04,5.44,0.13,8.34
	c1.03-0.22,2.64-0.4,2.92,0.27c4.23,10.22,9.35,25.48,12.17,36.19l-1.93,2.68l3.56,1.85c10.78,28.46,21.56,56.93,32.34,85.4
	l-1.93,2.46H672.4l-2.87-0.7l-16.17-83.43c-3.3-1.07-8.7-5.46-3.47-5.4c-1.9-2.18-2.15-5.49-0.75-9.95c0,0-0.52-6.47-1.55-19.4
	c-2.31-3.83-2.99-7.06-2.06-9.69l-2.51-4.44c0.5-17.78-3.76-35.22-10.73-51.41c-11.14-21.07-19.08-43.03-23.85-65.88l2.19-4.22
	c-1.98-2.46-2.81-4.63-3.53-7.51c-2.71-10.79-5.56-40.69-4.08-51.35c1.05-7.56,11.03-5.36,14.78,0.72
	c1.32,2.14,4.02,11.02,0.06,11.32l2.91,2.2c3.2,19.29,3.6,19.54,1.2,0.76l2.86-1.43c-3.29-1.43-3.09-2.41,0.49-2.85
	c0.84-0.51,0.76-0.79-0.01-1.34l-2.9-1.41c-2.55-8.2-7.03-62.09,12.2-46.08c2.32,1.93,4.92,6.73,1.65,8.75
	c2.26,4.37,3.94,4.31,5.06-0.18c-1.23-0.06-2.6-0.51-2.83-1.62c-1.43-7.11-4.99-30.36,9.09-25.11
	C651.88,1174.78,659.75,1186.04,655.01,1189.49z"/>
<path class="st8" d="M1043.31,1380.83c23.88,56.34,53.08,108.84,82.93,162.03h-75.57l-2.64-3.36c0.39-10.9,0.14-21.78-0.74-32.63
	l-3.26-1.21c-4.78-9.74-7.72-19.82-8.82-30.24l2.79-2.29c-2.67-2-2.51-4-1.89-6.99c-5.82-1.18-11.34-3.28-16.55-6.31
	c0,0-0.5,1.32-1.51,3.97l3.16,3.75c2.09,7.87,7.33,29.03,7.37,35.88c0.02,3.27-0.23,3.75-2.62,5.55c-1.34,1-27.24,8.5-30.8,9.27
	l-2.65-2l-3.35-0.6l-4.91,12.37c0.75,4.39,0.45,13.91-4.64,14.84h-52.84c-13.49-34.53-29.87-68.13-41.36-103.27l2.3-1.12
	c28.88,10.42,61.19,2.46,79.8-22.46l2.18-0.71c11.23,1.02,21.38,6.31,31.95,10.05c1.85,0,3.69,1.02,5.5,3.05
	c2.51-10.89,5.36-21.67,8.52-32.35c2.28-6.52,5.2-8.94,8.75-7.25l-0.09-3.12C1027.94,1382.43,1040.3,1374.84,1043.31,1380.83z"/>
<path class="st4" d="M480.6,1179.73c4.38-0.4,10.04,9.49,5.45,12.32l2.62,1.62c0.1,11.16-1.17,22.05-3.83,32.92
	c2.21,0.94,3.37,3.01,3.46,6.19l2.22,4.58c3.63,3.08,5.73,6.25,6.29,9.52c9.23,5.43,20.39,10.62,30.38,3.53
	c5.08,0.38,3.85,2.46,1.52,5.82c3.57,0.1,3.42,1.32,0.06,2.43c-0.79,0.59-0.73,1.21,0.06,1.87c2.58,0.53,2.58,1.6,0.01,2.15
	c0.12,0.74,0.17,1.34-0.06,1.48c-2.91,1.74-3.1-1.18-0.3,0.01c0.39,0.16,0.6,0.75,0.76,1.46c3.9-0.01,3.51,3.04-0.11,3.88
	c0.1,1.81-1.13,4.46-2.69,5.66c4.2,1.48,1.19,9.16-2.86,8.1c-4.27,1.12-7.6-2.17-10-9.88c-8.03,0.83-16.14-0.14-24.31-2.93
	c-5.84-0.09-10.71,0.11-3.28,3.24c2.08,7.7,2.55,15.62,1.43,23.77c3.79-1.38,4.33,1.75,1.56,4.05c2.2,2.87,2.06,3.81-1.76,4.21
	c-0.45,2.8,1.11,4.24,4.69,4.31l1.67,2.76c-2.4,9.37-3,18.45-1.8,27.23c4.31-1.62,6.42-6.12,6.33-13.48
	c3.02-8.4,6.53-7.68,13.07-3.79c4.38,0.04,5.41,3.87,3.09,11.49c1.95-3,11.79-3.07,13.26-0.22l1.43,1.12
	c-0.26,6.25,0.25,12.54,1.55,18.88c1.04-0.05,2.59-0.03,2.84,0.71c0.66,1.91,3.39,16.43,3.01,17.22c-0.51,1.05-1.2,1.86-2.31,2.33
	c0.34,3.94-5.03,5.16-6.28,1.13c-3.68,0.34-6.38-2.63-8.08-8.92c-4.59,14.1-9.08,28.2-13.47,42.28l-2.55,3.03l0.7,7.43
	c-4.11,10.67-6.66,21.59-7.63,32.76l-2.54,2.71c0.5,4.57-0.74,9.26-3.73,14.08c-6.21,22.2-12.7,44.3-19.48,66.3
	c6.26,1.62,9.17,4.21,8.74,7.76H371.57c2.35-8.53,3.52-12.79,3.52-12.79c35.84-69.25,70.7-139.18,98.03-212.32
	c-7.71-24.2-11.56-36.3-11.56-36.3l-2.52-11.52c-1.59-25.09,3.81-52.04,8.8-76.35c0.19-0.92,1.15-1.23,2.23-1.25
	C470.01,1186.68,472.96,1171.59,480.6,1179.73z"/>
<path class="st8" d="M182.66,1497.79c0.86,0.6,2.08,1.62,1.8,2.32c-2,4.96-8.17,16.47-11.2,20.94l-3.27,0.43l0.82,3.65l-8.84,9.29
	c-1.28,3.66-2.86,6.47-4.75,8.44H0v-2.68l2.16-7.99c14.3-16.22,26.85-33.57,37.65-52.04c6.78-7.69,14.65-14.17,23.62-19.45
	c6.95-14.35,14.93-28.1,23.95-41.27l4.95-2.83c1.44-0.95,2.99-1.24,4.51-0.46c37.35,19.23,62.68,42.27,85.72,77.27
	C183.52,1494.85,183.68,1496.2,182.66,1497.79z"/>
<path class="st9" d="M672.4,1542.86H479.74c-2.86-3.5-7.37-2.98-11.88-6.74c11.35-27.17,12.51-57.44,26.35-81.4
	c-0.06-4.25,11.05-6.78,13.2-3.14c1.36,2.41,1.87,2.44,1.51,0.09c-0.8-3.56,0.16-3.92,2.52-1.21c3.91-1.87,5.74,1.46,7.29,4.7
	c16.87,55.29,96.79,54.17,108.26-2.83l2.62-2.21c-5.2-3.85-1.86-13.58,0.55-19.05c2.52-5.74,9.16-16.77,15.4-16.78
	c10.66,11.95,5.19,42.01,4.19,38.95c0.53,1.63,5.71,2.85,6.03,4.53L672.4,1542.86z"/>
<path class="st7" d="M272.34,1441.6c-5.3,7.54-11.13,14.74-17.47,21.6c7.63-1.31,11.45,0.29,11.46,4.82
	c-5.87,1.82-13.63,19.87-10.58,23.83c0.51,0.67,8.87-2.21,8.26-5.32c9.51-3.84,20.02-4.93,22.21,7.86c3.25-0.07,6.01,1,7.64,3.91
	l7.23-11.77c3.64-5.99,7.15-7.01,10.52-3.08c-0.07,3.12,8.8,4.57,9.23,4.24c0.88-0.67,0.1-15.08-0.05-17.56
	c0.34-3.2,2.59-4.05,5.57-3.15c-2.09-4.92-2.32-9.16-0.7-12.71c0.02-1.17,0.33-1.12,0.91,0.01l1.79-2.98
	c6.37,1.51,11.64,1.16,15.81-1.05c-5.39-3.95-7.15-7.98-5.28-12.1c-0.74-5.91,3.8-4.22,7.11-1.02c8.04,7.77,18.64,62.46,17.37,74.79
	c-0.12,1.12-1.97,1.11-3.3,0.25l-3.56,3.7l-27.52,7.22l-4.44,18.55l-3.02,1.21h-130l-2.94-1.24c0.07-7.39-2.29-12.33-7.07-14.81
	c-6.83,0.16-10.67-1.61-11.52-5.33l12.67-23.69c0.51-4.25,2.08-2.97,4.63-0.48c3.34-0.9,6.09-2.35,8.24-4.35l3.16-0.78
	c-1.27-3.16,0.55-4.58,3.6-2.78c-0.37-2.32,0.69-4.69,3.19-7.12c2.47-7.57,5.96-14.45,10.46-20.64l-8.3-10.98l1.04-3.07l-1.09-4.4
	c3.8-8.15,8.82-15.32,15.07-21.51c4.92,3.87,10.12,7.28,15.61,10.23c10.72,2.77,21.62,4.95,32.69,6.52L272.34,1441.6z"/>
<path class="st10" d="M373.5,1379.62l3.19,1.14c13.86,25.13,44.21,20.51,62.03,1.84l3.39,0.86c-2.33,9.44-3.5,14.17-3.5,14.17
	c-21.28,45.49-45.04,89.76-68.99,133.87c-1.13,2.09-2.64,3.99-4.17,5.89c-1.54,1.92-3.22,3.71-4.95,5.48h-5.68
	c-4.86-4.17-2.05-21.75,0.87-26.76c1.12-1.92,2.37-2.84,4.37-3.93c4.91,4.47-11.02-87.24-21.18-74.02
	c-2.11-0.01-3.48-2.22-4.12-6.62l-3.5,1.19c-8.25-5.04-17-8.41-26.25-10.12l-2.13-2.79c-4.14-4.04,2.39-13.06,5.94-16.62
	c1.94-1.94,4.06-3.62,6.48-4.94l55.8-20.62L373.5,1379.62z"/>
<path class="st11" d="M776.79,1436.69c0.52-0.64,1-0.62,1.45,0.08c2.04-4.2,14.61-0.08,16.03,4.13c2.86,13.78,7.94,27.37,9.37,41.58
	c0.95,5.08,0.56,9.72-1.16,13.93c-4.16,0.58-4.83,3.97-2.03,10.18c2.13,2.59,2.32,6.02,0.59,10.31c0.94,4.21,0.39,7.13-1.67,8.75
	c3.52,1.82-0.43,12.84-2.06,16.2l-3.1,1.02h-41.09l-33.97-89.7l3.65-2.22c16.66,1.73,32.65-4.27,45.91-14.13l4.28,0.1
	C772.96,1432.8,775.76,1432.73,776.79,1436.69z"/>
<path class="st7" d="M69.43,1406.28c1.92,0.92,3.35,2.89,4.29,5.91c4.81,4.05,6.56,7.87,5.26,11.45c0.79,0.7,1.88,1.91,1.49,2.53
	c-5.24,8.42-19.38,30.16-25.69,36.36c-5.68,4.26-12.05,7.38-19.1,9.35c-2.21,8.92-7.23,16.91-15.06,23.94
	c-1.51,3.54-3.5,5.48-5.97,5.83c-1.73,1.46-4.01,1.68-6.82,0.65c0.2,2.17-0.21,3.49-2.67,4.2c-0.9,3.83-5.07,2.68-5.16-1.17v-8.04
	l1.61-3.72c0.4-16.89,2.43-52.99,12.52-66.36c9.15-12.13,37.79-21.67,52.69-23.12L69.43,1406.28z"/>
<path class="st12" d="M470.07,1192.33l-8.72,55.81c-3.76,24.05,8.45,46.09,13.62,69.83c-27.52,78.86-66.04,151.59-103.4,224.89
	H360.5c28.07-52.67,57.29-104.89,81.61-159.41c-1.08-0.41-1.03-0.84,0.08-1.3c-0.05-1.02,0.3-1.61,1.05-1.76l0.41-6.12
	c9.31-19.22,18.14-38.99,25.98-58.87c0.51-1.3-11.32-7.88-14.09-7.69l-1.54-3.35c-2.23,0.04-4.95-1.47-6.7-2.93l-1.48-1.21
	c1.53-9.84,2.83-19.7,3.92-29.57c-1.76-5.03-0.81-8.17,2.84-9.44c-3.52-4.27-10.45-13.2-2.58-15.56l-0.28-4.72
	c7.91-13.96,11.27-29.81,13.2-45.6l3.13-3.62C466.72,1187.93,469.72,1188.57,470.07,1192.33z"/>
<path class="st6" d="M86.62,1381.87c4.32,2.27,0.83,16.49-1.61,19.68c-2.91,3.8-11.72,8.75-15.58,4.73
	c-19.68,4.38-52.06,10.49-57.36,31.02c-2.44,9.48-13.56,58.25-6.94,60.35c-2.31-0.73-3.75-0.09-5.14-0.33v-76.34l39.07-47.04
	c4.48-1.76,9.14-3.45,13.99-5.07c7.84,8.79,18.49,12.21,31.95,10.25L86.62,1381.87z"/>
<path class="st4" d="M1038,1473.12c-1.08,11.56,5.77,23.18,9.29,33.75c0.45,5.37,2.04,30.94-0.09,34.27
	c-0.64,0.99-1.72,1.46-2.83,1.72h-64.75c2.32-4.92,0.67-10.83,4.64-14.84c1.71-4.4,3.35-8.76,4.91-13.07l3.36,1.3l33.83-10.19
	c-2.7-15.34-6.86-28.43-8.31-42.26c3.5-4.11,15.57,2.81,19.28,5.86L1038,1473.12z"/>
<path class="st2" d="M1200,1363.48v19.28l-3.44,1.42l-18.85-4.84l-1.83-3.29c-8.82-2.65-20.2-5.77-26.77-12.49
	c-3.9-41.15-5.4-31.86,9.93-60.78L1200,1363.48z"/>
<path class="st12" d="M196.65,961.39c0.26,7.1-27.19,52.74-27.04,52.36c-7.03,18.25-12.38,39.33-14.97,58.73
	c-1.81,13.52-1.95,22.29-11.03,33.18C98.24,1160.12,50.7,1212.59,0,1261.61v-10.71c51.59-49.42,101.49-101.44,146.54-157.72
	c5.2-9.27,0.22-19.88,3.49-28.33c14.49-68.1,18.52-48.32,43.16-104.59C195.54,957.31,196.5,957.62,196.65,961.39z"/>
<path class="st11" d="M92.33,1416.59c-8.84,14.18-19.12,28.84-26.81,45.68c-9.83,7.66-21.13,12.5-28.38,27.28
	c-9.19,18.73-26.33,33.13-37.15,50.63v-17.41l3.62-10.43l3.38-0.35c-0.45-4.67,3.15-9.14,7.66-10.32
	c2.09-10.09,17.24-17.07,18.99-31.22c6.89-4,14.32-5.07,19.16-9.69l26.18-37.11l-0.88-3.08c1.91-2.26,3.99-4.21,6.24-5.86
	C83.37,1408.81,93.14,1411.96,92.33,1416.59z"/>
<path class="st8" d="M1200,1382.75v63.49c-14.6-15.59-20.23-39.08-32.36-56.02c2.54-4.89,6.86-8.81,8.24-14.18
	C1183.74,1378.42,1192.32,1379.08,1200,1382.75z"/>
<path class="st4" d="M360.06,1512.17c-4.04,9.38-5.82,19.95-5.24,30.69h-33.3l4.92-21.87L360.06,1512.17z"/>
<path class="st4" d="M191.52,1542.86h-34.3c-2.22-10.11,8.89-14.11,12.78-21.38c4.37,2.95,11.72,1.07,16.1,4.55
	C190.34,1529.41,190.51,1538.04,191.52,1542.86z"/>
<path class="st4" d="M804.96,1497.67c7.18,13.55,7.8,30.14,11.78,45.19H794.2l5.17-17.22c-0.18-2.18,1.47-4.13,4.94-5.85
	c1.25-3.37,1.04-6.95-0.63-10.72C799.99,1503.89,793.94,1494.34,804.96,1497.67z"/>
<path class="st3" d="M1050.66,1542.86h-6.3l2.92-35.98C1051.08,1518.29,1050.82,1530.68,1050.66,1542.86z"/>
<path class="st6" d="M5.16,1506.53c3.9-0.88,4.51,0.94,1.84,5.46c-2.42,3.4-3.51,8.05-7,10.78v-17.41L5.16,1506.53z"/>
<path class="st11" d="M1024.75,614.7c1.32,1.79,0.88,5.98,3.94,6.66c5.04,1.48,5.19,11.33,5.18,16.34
	c-0.01,7.14-1.39,13.82-4.46,20.28c12.29,3.29,23.02,15.02,26.76,26.98c3.3,10.55-3.66,32.54-7.4,43.28
	c-2.75,7.88-5.03,13.37-9.88,20.3c-4.95,7.07-10.17,12.78-18.38,14.83c-2.21,5.59-3.31,8.39-3.31,8.39
	c8.7,8.04,3.56,10.34-4.63,12.54l-2.52,1.8c-2.08,3.13-5.87,4.1-11.37,2.93l-8.21-1.07c0.33,5.66-0.11,10.7-2.34,15.98
	c-1.8,4.27-3.05,7.18-7.81,7.78c-4.65,6.13-11.31,7.97-16.26,16.23c6.82,0.43,9.63,33.98,12.51,42.67
	c1.76,5.18-7.05,8.88-11.68,8.79c-1.04-0.02-18.1-6.65-19.39-7.49l-1.27-3.04l-2.12-2.67c1.17-1.84,0.52-3.52-1.96-5.05
	c-9.16,5.7-11.41-10.27-9.69-17.54c-3.91-3.85-5.21-7.27-3.92-10.27l-0.78-4.52c21.85-47.64-13.57-96.01-64.95-94.92
	c-6.71-0.97-6.29-2.13-2.94-7.22c57.48-54.95-26.77-131.82-77.79-73.88c-3.53,1.45-6.11-1.15-7.75-7.81
	c-5.72-10.66-12.49-16.53-24.93-16.94c-5.93,1.37-9.36,0.31-10.29-3.18c2.45-21.5-3.26-43.08-17.65-59.44l-0.51-4.48l-0.29-4.42
	c13.65-21.65,14.79-47.29-0.28-68.53c-17.22-24.27-43.61-28.82-71.21-22.48c-7.53-25.18-22.37-43.78-48.25-51.35
	c-24.71-7.23-53.69-4.62-76.09,8.37c-7.33,1.43-8.25,0.1-3.82-6.32c7.92-10.33,15.4-20.95,22.46-31.86l4.92-3.01
	c-0.69-4.43,0.23-7.43,2.77-9.02l-1.41-4.89c6.59-27.87-0.51-56.23-18.01-78.69l-0.61-5.08c-0.86-1.34-1.48-2.84-1.36-4.46
	c1.09-14.62,25.21-40.28,37.65-47.95c20.69-12.75,51.29-14.31,69.77,2.19c18.88-26.57,55.34-31.91,85.72-24.71
	c40.82,9.68,70.14,41,76.37,82.61c16.51-11.75,35.4-2.15,44.08,14.46c26.9-13.24,54.76-0.64,70.67,23.29
	c23.28,35.03,12.82,82.35-18.87,108.48c29.14-9.69,60.05-11.91,80.66,16.3c15.59,21.34,14.69,46.35,0.04,67.58
	c27.62,13.54,37.05,48.34,16.25,72.11c7.99,0.01,15.57,1.99,22.4,6.06C1017.36,602.49,1026.55,608.93,1024.75,614.7z"/>
<path class="st10" d="M520.82,277.34c3.48-0.12,3.45,0.65,0.48,2.4c3.81,4.1,5.55,9.77,5.21,17.01
	c-0.48,26.57,5.54,49.31,22.22,70.97l0.43,4.61c-0.44,1.58,0.65,3.91,0.69,5.87c0.03,1.34-2.61,1.67-3.46,3.14l-4.24,2.26
	c-67.45-8.66-115.58,54.01-87.29,116.52l-0.74,4.83l-4.37,0.84c-43.65-24.92-98.42-11.95-114.21,38.74
	c-6.94-0.46-13.84-0.55-20.71-0.29l-2.69-2.22c-6.23,0.32-12.37,1.83-18.42,4.53l-3.47-0.45c-12.38-33.54-53.08-30.12-59.61,5.33
	c1.44,12.14-5.75,14.47-16.14,13.44c-3.76-0.37-13.89-2.32-13.46-6.52c-29.97-8.47-55.36-24.3-64.39-55.58
	c-9.46-32.8,2.4-65.85,27.79-85.96c20.72-16.41,45.06-23.87,70.52-12.64c-1.33-16.19,2.98-29.4,13.24-38.9
	c10.23-9.47,23.33-13.48,38.51-12.03c-16.38-26.67-13.41-57.19,5.57-81.21c20.5-25.94,52.01-38.92,85.41-36.8
	c33.55,2.13,62.31,21.77,74.43,54.38C467.4,264.04,496.72,263.36,520.82,277.34z"/>
<path class="st7" d="M454.12,504.94c3.52-1.39,3.87-0.25,1.3,2.44l1.32,1.59l4.62,1.28c13.12,16.21,30.83,24.54,49.61,32.05
	l-1.11,4.78c-16.95,22.57-6.48,50.05,17.87,61.51l1.37,3.48c3.5,2.59,0.43,8.22-3.01,9.51l-3.64,2.11
	c-39.07-5.31-80.31,23.44-64.16,65.41c0.82,3.87,1.09,5.25-2.81,6.04c-71.29-8.33-115.61,72.3-73.02,129.29l0.41,4.79
	c2.05,3.17-0.23,4.99-6.81,5.45c1.27,14.29-7.27,20.71-17.94,27.57c-10.43,2.74-15.95,11.44-20.6,20.52c0.03,0.65,0,1.29-0.22,1.84
	c-0.57,1.43-16.54,10.16-19.94,9.67c-0.68,4.54-2.03,8.47-4.04,11.8l-1.69,0.72c4.6,11.84-0.36,16.81-14.89,14.91
	c3.76,4.71,2.61,7.19-2.27,10.9c-0.43-1.62-0.75-1.22-0.97,1.2c0.47,0.65,0.81,1.22,0.64,1.51c-2.43,4.33-13.23,15.41-17.57,17.6
	c-3.25,1.64-8.77,3.57-9.99-0.75c-0.37,1.05-1.22,0.8-1.76-0.12c0.06-0.87,0.15-1.76,0.29-2.63c-2.46,0.04-2.7-2.36-0.04-2.79
	c-1.04-6.3,0.15-12.8,3.58-19.51l-0.08-2.89l10.09-16.37c0.9-3.96-2.46-8.3-5.12-10.91c0.35-4.3,3.08-21.54,6.04-23.38
	c0.47-0.29,1.04-0.42,1.64-0.5c2.14-0.16,4.31-2.23,5.15-3.83c1.09-2.09-1.5-3.81-1.51-5.57c-10.09-9.5,0.35-20.31,10.89-24.17
	c-4.1-3.77-7.26-8.3-9.48-13.58c-5.34-2.17-7.35-4.98-6.02-8.42c18.91-15.65,0.1-3.07-6.46,5.57c-4.5,3.13-7.5,3.04-8.58-2.91
	c-16.9,0.27-36.07-9.23-37.15-27.92c-42.94,8.99-66.2-42.79-27.49-65.83c-9.46-19.66-5.04-41.79,15.66-51.94
	c-34.25-43.87,9.57-106.94,62.66-90.04c-1.44-20.1,11.13-42.88,33.25-42.45c6.81-1.53,13.76-0.91,22.14,0.69
	c6.24-24.79,25.1-42.26,49.43-49.31C408.84,486.11,431.73,493.73,454.12,504.94z"/>
<path class="st13" d="M1024.75,614.7c-9.35-12.65-22.04-20.1-40.63-18.18c11.48-13.19,17.79-25.91,13.46-42.19
	c-3.68-13.79-13.21-26.58-28.99-32.17c17.31-18.48,17.84-43.02,5.62-62.95c-12.25-19.98-35.55-29.68-59.47-24.7
	c-9.39,1.96-18.34,8.05-28.81,4.8c41.06-27.91,48.54-86.38,14.51-120.21c-16.94-16.84-41.39-21.06-60.39-9.51
	c-4.19-9.72-10.96-15.88-17.64-18.77c-10.18-4.4-18.2-1.6-27.22,5.26c-5.35-47.98-40.37-81.21-86.93-86.91
	c-27.54-3.37-54.34,4.11-72.73,26.44c-22.86-16.79-53.6-14.8-75.74,2.8c-14.7,11.68-25.37,27.85-30.65,45.23
	c-3.28,2.53-6.49-0.63-7.84-3.92c-0.16-0.75-0.52-1.64-0.48-2.4c1.65-29.55,17.95-55.1,42.18-69.59
	c26.94-16.11,57.96-15.54,85.5,0.39c-0.92-29.83,11.24-53.53,32.62-72.56c39.29-34.97,97.22-39,144.17-15.91
	c27.43,13.49,46.94,37.09,53.4,64.09c7.85,32.8-1.39,63.08-21.89,88.17c29.18-14.66,64.17-15.57,88.45,6.99
	c34,31.58,31.92,85.34-0.58,119.01c54.5-17.35,110.59,16.47,118.39,72.13c4.99,35.55-14.44,67.42-47.72,81.37
	C1035,568.21,1041.1,596.4,1024.75,614.7z"/>
<path class="st6" d="M312.14,542.01c-20.55,4.6-34.41,24.23-29.48,46.67c-24.97-10.21-50.1-1.88-65,18.52
	c-15.21,20.82-14.88,49.82,3.3,68.16c-10.61,4.04-17.81,11.72-20.76,20.32c-3.84,11.16-1.49,21.62,4.96,31.55
	c-17.97,7.53-26.21,26.52-19,43.34c7.53,17.57,27.41,23.77,44.73,17.24c-2.37,20.62,19.07,31.08,37.3,29.58
	c-1.97,15.42,10.18-6.45,21.52-11.95c4.11,7.6-2.68,10.28-8.57,14.54c16.74,8.86-3.55,0.54,21.75,21.11
	c-6.89-0.28-11.71,3.84-15.68,6.77c-6.25,4.62-2.41,9.41-2.36,15.85c-8.17-3.48-16.72,22.88-40.03,9.47
	c-11.35-6.53-9.76-17.52-7.41-31.89c-38.12,34.03-100.42,11.94-119.12-29.56c-9.08-20.14-6.87-42.3,9.85-57.96
	c-20.88-9.25-35.65-26.08-40.52-44.89c-6.11-23.6,0.02-45.2,14.93-62.61c22.68-26.49,57.95-36.4,90.92-25.06
	c-17.62-21.05-14.31-50.1,7.57-62.87c8.24,2.33,18.66,7.56,27.01,0.78c-2.21-17.81,9.46-33.99,25.61-38.11
	c16.46-4.2,32.93,6.05,37.83,23.23C299.63,542.82,306.14,538.9,312.14,542.01z"/>
<path class="st7" d="M235.71,986.94c2.44,0.25,2.5,1.68,0.21,4.3c-1.52,1.31-2.48,1.25-2.88-0.17c0.02-0.93-0.23-1.95,0.25-3.09
	C233.61,987.19,234.88,987.12,235.71,986.94z"/>
<path class="st7" d="M337.75,962.99c-11.79,10.26-22.82,21.28-33.08,33.07l-3.96-1.18c-1.49-3.87-3.91-6.5-7.28-7.88l-1.47-1.29
	c-2.42-0.55-3.24-1.5-2.48-2.85l1.37-5.38c8.67-9.55,43.74-44.21,58.03-38.63c9.7,3.79,3.98,13.48-0.52,19.22
	C346.29,960.72,340.47,966.28,337.75,962.99z"/>
<path class="st7" d="M304.2,953.48l-7.63,5.63c-5.32,7.49-11.53,13.31-18.63,17.45c-1.05,5.47-3.43,10.73-7.15,15.76l1.82,1.48
	l10.75-9.25l3.13,0.9c2.15-0.97,3.75-1.68,5.48,0.26l1.47,1.29c6.03,2.54,9.52,9.94,10.38,16.01c10.13-8.41,19.67-17.59,28.62-27.54
	c10.1-14.27,32.56-3.12,22.4,10.38c-15.41,20.49-34.5,42.01-53.2,59.51c-1.93,1.81-4.28,2.8-6.89,3.17
	c-1.41,3.31-2.97,6.8-4.67,10.47c-0.46,4.73-1.7,8.89-3.73,12.49l-15.78,2.26c-15.09,10.4-31.09,19.36-47.98,26.88l-4.27,0.03
	c-1.83,1.25-15.13,9.91-17.89,9.88c-2.49-0.03-2.86-2.47-3.67-4.36c2.15-1.43,3.79-3.1,4.93-5c2.7-11.89,2.16-15.6-1.6-11.15
	c-1.91,4.14-4.33,6.43-7.26,6.86c-3.62-1.65-5.76,1.75-9.27,3.59c3.84-6.76,10.72-10.23,13.49-17.07l-1.37-2.83
	c6.99-5.9-3.88-1.74-7.64,0.95c-2.69,3.67-5.54,5.71-8.55,6.11c-2.58-1.25-5.69,0.89-6.4-4.29c-0.73-5.32,2.79-4.83,10.29-10.86
	c0.5-2.21,2.03-3,4.57-2.38c-1.89-5.43,1.12-10.23,9.02-14.41c3.75-4.07,3.05-9.46-2.1-16.16l2.06-3.08
	c0.52-1.65,1.06-3.29,1.4-4.99c1.94-2.62,5.11-2.8,9.51-0.54c0.98-13.6,8-25.05,21.07-34.36c1.25-0.71,2.77-2.47,4.1-2.75
	c0.53-1.56,1.18-2.54,2.94-2.6l1.62-3.45c19.29-16.2,37.77-33.19,55.47-50.95l3.13-1.76c-1.55-1.89-1-2.53,0.32-3.97
	c10.77-11.79,39.17-8.37,18.98,15.39C312.99,949.36,307.8,954.71,304.2,953.48z"/>
<path class="st13" d="M1043.15,622.51c44.39,12.95,63.96,59.65,52.38,103.44c3,3.8-2.92,13.34-6.95,15.55
	c-16.82,22.5-38.83,39.76-66.8,44.82c-0.12,4.55-10.91,3.56-11.73-0.22c-0.03-1.32-0.58-3.33,0.14-4.3c1.84-2.51,11.7,0,8.58-4.12
	c-0.84-1.11-1.8-3.36-3.02-3.52c-1.62-0.21-2.65,2.61-4.32,2.62l-6.3,0.03c-2.9,0.02-5.3-3.64-1.52-5.19
	c3.35-1.37,6.95,2.89,9.33,0.86c3.05-2.59,4.53-6.33,5.27-10.31c3.24-4.73,10.91-1.49,10.77-6.7c12.7-11.67,16.55-23.41,19.9-38.37
	c2.69-12,10.19-22.14,2.69-36.19c-4.73-8.86-12-18.64-26.55-21.2c8.15-12.28,7.01-25.68,3.69-38.36
	C1033.51,620.81,1038.47,621.15,1043.15,622.51z"/>
<path class="st10" d="M281.21,873.11l-5.52,22.88c11.16,7.65,1.61,19.96-4.18,28.18c-2.97,6.72-3.96,15.22-6.44,22.49
	c-2.34,1.39-2.55-0.35-2.49-2.64c-2.11-6.36,3.08-11.65,4.86-18.43c-1.41-3.59-6.68-7-3.69-12.22c2.2-3.84,7.02-3.9,13.21-5.17
	c-0.1-5.95-6.33-6.17-12.42-9.17c4.38-5.61,9.56-8,7.65-14.09c-1.79,0.76-2.64,2.53-4.7,3.03c-1.33,0.32-2.25-1.47-1.23-2.69
	c0.9-1.07,0.4-3.8,1.87-3.48c0.85,0.19,4.32,2.16,4.72,0.56l1.71-6.98C275.17,872.88,278.99,873.28,281.21,873.11z"/>
<path class="st11" d="M967,174.85c7.1-2.76,14.59,0.15,16.75,6.71c2.06,6.27,0.03,13.97-7.71,16.57
	c-5.17,1.74-12.43,0.16-15.35-6.04C957.91,186.23,959.39,177.81,967,174.85z"/>
<path class="st6" d="M296.13,935.08c-17.35,20.66-38.57,40.01-60.21,56.16c-0.24-1.42-0.23-2.86-0.21-4.3
	c12.64-16.22,25.64-16.33,23.2-30.71c3.36-0.06,4.91,0.57,6.31-0.71l-10.29-1.62c1.02-2.68,3.32-3.82,4.99-3.46
	c2,0.43,2.69,3.29,5.26,3.13c-0.3-0.49,0.17-0.95,1.4-1.37c11.28,0.74,21.16-9.13,26.92-18.37
	C295.95,931.08,296.71,931.44,296.13,935.08z"/>
<path class="st11" d="M1108.79,500.94c2.53,5.76,2.11,12.77-2.71,16.17c-3.18,2.24-11.48,3.47-14.62-0.15
	c-4.53-5.22-2.77-13.78,1.14-16.72C1097.87,496.29,1103.67,498.06,1108.79,500.94z"/>
<path class="st10" d="M182.29,262.26c5.52-2.92,12.1-1.03,14.85,4.17c2.41,4.56,1.26,11.52-4.97,14.46
	c-3.92,1.85-10.08,1.26-13.26-3.57C175.99,272.91,176.13,265.52,182.29,262.26z"/>
<path class="st6" d="M196.73,905.91c-1.9,0.39-8.24-0.27-8.2-2.69c0.16-10.76,28.52-24.06,28.05-16.94l-20.94,26.13
	C193.91,910.15,196.29,910.24,196.73,905.91z"/>
<path class="st10" d="M198.3,1031.49c-3.34-5.55,2.56-10.29,2.82-16.05c11.08-1.45,17.78-13.2,27.76-18.84
	c-8.32,12.02-20.79,19.82-17.97,37.68C205.25,1033.57,202.47,1031.53,198.3,1031.49z"/>
<path class="st10" d="M416.53,162.99c4.83-1.15,8.48,2.19,9.21,5.37c1.08,4.7-1.26,8.94-5.93,9.88c-3.58,0.72-7.63-0.91-8.9-5.34
	C409.95,169.55,411.31,164.23,416.53,162.99z"/>
<path class="st11" d="M987.01,258.03c4.87-1.33,8.48,1.61,9.48,4.86c1.34,4.32-1.28,8.58-4.24,9.48c-4.68,1.42-8.46-0.58-9.78-3.34
	C980.34,264.55,981.92,259.42,987.01,258.03z"/>
<path class="st9" d="M503.66,165.91c4.5-1.02,8.01,2.11,8.57,5.28c0.79,4.47-1.63,8.45-5.45,9.11c-4.17,0.72-7.61-0.92-8.77-4.89
	C496.86,171.5,498.29,167.12,503.66,165.91z"/>
<path class="st7" d="M205.11,941.44c-0.61,7.72-4.16,14.86-8.45,19.94c-1.12-0.47-2.28-0.84-3.46-1.13
	c1.49-8.8-0.01-18.15,7.23-21.02C203.35,938.08,203.48,940.54,205.11,941.44z"/>
<path class="st10" d="M203.74,341.39c4.02-1.73,8.01,0.46,9.2,3.2c1.6,3.66-0.03,7.85-2.94,9.24c-3.65,1.75-7.53,0.93-9.06-2.13
	C199.29,348.42,199.41,343.25,203.74,341.39z"/>
<path class="st6" d="M265.07,946.66c-0.28,0.83,0.17,1.92,0.04,2.79c-1.75,1.73-3.57-0.14-3.71-1.7c-0.09-1.02,1.53-2.69,1.18-3.74
	C263.7,944.57,264.62,945.47,265.07,946.66z"/>
<path class="st5" d="M842.4,926.74l4.82-2.33c20.33-0.04,40.54,1.3,60.63,4.02l4.05,3.64c7.31,8.61,12.24,18.75,17.64,28.39
	c3.13,5.58,2.04,15.31-4.92,10.3c-2.28-3.42-7.32-4.09-9.93-5.48c-3.27-1.75-10.2,4.02-6.66,8.97
	c20.34,28.47,40.52,57.54,62.87,83.91c0.34,3.1,2.32,6.94-1.14,9.68c-18.79-16.33-34.36-33.73-51.45-50.83
	c-13.28-13.29-27.38-24.73-40.96-36.72l-3.27,0.7c-9.62-9.93-23.96-7.55-10.5,5.57l-0.83,3.09l21.11,24.31
	c1.87,3.67-3.59,6.44-6.39,3.84c-9.98-8.81-20.22-17.74-30.98-25.55l-1.41,1.19c-12.82-8.31-25.61-3.67-9.45,8.55l0.15,3.34
	c18.68,21.21,39.03,41.1,56.99,65.58c-13.96-4.83-58.62-62.78-68.57-49.42c-10.18,13.68,51.25,57.95,59.93,80.47
	c-4.85,2.53-47.12-38.58-55.18-28.71c-2.04,2.5-1.41,6.7,1.36,9.25l26.99,24.98l2.04,3.56c0.07,3.76-1.43,23.76-2.65,25.2
	c-1.62,1.91-14.05-0.12-15.44-3.02c-2.5-0.22-4.37-1.71-5.61-4.45c-3.3,0.06-8.16,1.23-10.49,4.26l-3.74,1.92
	c-13.05-1.7-26.15-1.58-39.3,0.36l-3.66-2.32c-8.26-15.98-15.34-34.48-27.11-46.73c-1.92-1.06-3.03-3.04-3.32-5.93
	c-4.9-9.02-17.74-15.64-12.19-2.29l-1.85,2.77c4.53,19.14,22.32,53.6,23.92,75.65l-34.72-62.54c-3.56,0.28-6.12-0.62-7.68-2.69
	c5.43-13.67-23.95-27.49-13.06-7.95l-0.5,2.79c-2.74,0.99-0.5,5.15-1.29,6.99c1.74,4.41-7.37,9.34-9.46,4.18l-3.6-2.52
	c-3.66-8.74-7.32-23.67-8.11-33.18c-0.42-5.04,0.77-26.52,2.97-29.49c0.83-1.12,1.89-1.9,3.22-2.34l3.4-5.52
	c20.69-4.61,40.99-10.71,60.88-18.31c10.64-2.55,17.73-7.96,21.28-16.22l2.75-1.18c-2.84-2.57-1.15-3.92,1.76-1.39l3.28-5.4
	c10.9-9.35,21.47-18.96,31.7-28.83c9.58-3.57,15.3-9.16,17.16-16.77l2.57-2.57c-2.72-2.82-1.2-2.98,2.25-2.58
	c0.44-3.9,4.55-7.33,8.37-5.4C841.55,925.53,842,925.94,842.4,926.74z"/>
<path class="st3" d="M1032.82,1360.38l0.7,2.99c-6.4,7.48-8.13,16.29-9.1,25.43c-10.34,6.4-9.96,30.51-16.13,43.98
	c-3.31-1.55-5.87-4.22-6.64-7.42c9.35-35.62-29.2-44.58-25.78-84.6c1.97-23.07-6.35-41.75-15.2-61.9
	c-9.61-21.88-28.51-38.45-52.44-34.49l-1.47,2.97l-9.63,2.56c-3.55,2.71-6.88,3.94-9.98,3.71c-30.64-1.6-31.57,73.34-30.63,92.66
	c0.48,9.89,9.43,19.1,2.46,29.54c-10.09-34.03-26.42-66.08-33.13-101.5c24.03-73.12,9.32-73.82,12.06-122.31
	c-4.35-1.79-0.42-10.31,3.07-12.21c0.77-0.52,0.82-1.02,0.15-1.5c-3.64-1.36-3.55-3.85,0.11-5.07c4.17-0.83,8.22,0.71,13.94,1.63
	c0.46-9.58,0.15-18.53,2.1-27.37c4.46,4.13,10.97,7.32,15.61,12.72c23.5,27.33,51.19,47.97,82.23,66.31
	c6.55,3.87,12.02,14.35,14.92,21.64C990.46,1259.54,1016.1,1308.69,1032.82,1360.38z"/>
<path class="st3" d="M1094.31,1200.04l-2.32,2.74c-13,0.84-22.32,10.48-27.72,21.69l-3.45,1.05
	c-81.86-137.6-29.06-61.5-51.73-135.58c9.77,6.09,22.14,10.87,29.47,21.11C1059.14,1139.82,1077.72,1169.71,1094.31,1200.04z"/>
<path class="st2" d="M1094.31,1200.04c-3-5.48,32.05,49.13,31.61,49.13c-14.27-3.69-23.38-13.54-30.26-27.1
	c-6.78,13.07-7.03,26.06-17.44,32.71l-17.4-29.25C1067.21,1211.2,1078.2,1199.91,1094.31,1200.04z"/>
<path class="st7" d="M877.33,980.27c3.98,3.47,6.29,15.01,0.19,15.53c-5.58,0.47-9.86-9.79-14.8-6.17
	c-3.7-4.26-11.8-11.73-4.81-16.26C864.58,969.04,872.87,976.33,877.33,980.27z"/>
<path class="st7" d="M846.46,992.23c-0.37,4.69,5.04,9.62,2.39,14.82c-1.86,3.67-9.84,0.39-13.1-1.74
	c-5.4-3.53-14.06-10.42-8.9-16.45C832.14,982.68,841.59,988.7,846.46,992.23z"/>
<path class="st2" d="M1043.31,1380.83c-7.27-0.62-12.96,4.3-18.88,7.97c-6.07-4.73,3.37-24.68,8.4-28.41
	C1037.98,1365.5,1040.36,1373.87,1043.31,1380.83z"/>
<path class="st3" d="M877.44,1017.78l6.39-3.84c9.09,10.48,20.55,20.6,26.25,35.2C896.76,1040.02,888.25,1027.32,877.44,1017.78z"/>
<path class="st10" d="M938.79,1123.94c9.63-2.91,14.25,5.99,23.79,9.17c-2.57-15.77-8.03-32.34,2.1-46.41
	c-7.38,26.79-2.27,48.66,17.92,65.43C967.85,1141.31,957.56,1129.08,938.79,1123.94z"/>
<path class="st0" d="M1117.06,1315.29c-1.62-3.07-5.47-7.39-7.7-10.5c8.2,0.36,16.26,0.38,24.97-0.78
	C1130.96,1311.66,1124.02,1314.94,1117.06,1315.29z"/>
<path class="st7" d="M982.61,1017.87c-12.41,2.01-9.44-16.63-12.63-21.21c2.13-1.51,6.85-3.14,8.41,0.19
	C981.54,1003.59,980.1,1011.53,982.61,1017.87z"/>
<path class="st5" d="M619.09,1096.07c1.96,1.91,1.46,4.53-1.52,7.86l1.85,4.28c-1.01,3.22-0.14,6.04,2.62,8.45
	c18.87-5.05,38.35-8.42,57.94-7.86c0.9,0.03,1.79,0.48,2.73,0.99c0.96,0.52,1.83,1.2,2.68,1.93l15.12,37.61
	c-0.83,0.7-1.68,1.41-2.7,1.82c-2.53,1.03-7.31,2.83-9.48,1.75c-1.52-2.76-7.38-3.56-9.83-2.82c-3.01,0.91-3.65,6.43-2,9.91
	l11.93,25.23c-0.94,3.27-7.26,6.27-9.54,2.93c-1.08-2.07-4.2-4.83-5.44-6.48c-1.83-2.44-6.43-0.83-6.98,1.48
	c-0.74,3.05-2.29,6.81-1.84,10.11c-2.05,4.78-7.74-0.38-9.61-3.75c-1.42-6.03-6.72-17.49-13.11-13.48
	c-4.81,6.03-1.04,16.9-0.56,23.9c-1.57,3.48-3.25,3.53-5.06,0.18c-0.38-2.48-2.11-4.75-3.05-6.28c-1.24-2.02-5.01-2.68-6.94-1.63
	c-6.45,3.5-2.02,39.3-0.97,46.66c0.75,0.23,0.68,0.7,0.01,1.34l-0.49,2.85c-2.75,2.77-5.51,1.96-6.97-1.52
	c-0.29-3.29-1.78-7.84-2.79-11.09c-0.8-2.56-9.31-4.96-9.42-0.61c-0.51,19.86,3.05,39.48,4.99,58.52l-3.98,0.09
	c-11.01-9.01-25.28-12.71-39.26-9.95l-3.48-1.95l-1.4-4.2l4.9-21.16l3.4-2.94l1.26-3.98c-3.07-2.16-2.09-4.53,1.29-5.28
	c3.01-8.1,4.87-16.38,5.56-24.87l2.93-2.3c2.92-9.38,3.94-18.5,3.06-27.36c-2.7,1.33-4.73,1.11-6.09-0.65
	c-4.18-5-2.54-17.53,4.25-20.92l5.5-5.59c-2.71-7.04-3.05-10.85,5.2-12.78c1.26-6.87,3.83-10.32,10.31-12.92
	c0.46-4.01,0.81-8,1.06-11.95c-4.2,0.82-4.65-2.42-2.36-5.22l1.27-1.54c-2.63-2.37-1.26-4.47,4.11-6.29
	C605.69,1100.33,614.71,1086.93,619.09,1096.07z"/>
<path class="st4" d="M925.51,1293.63c0.29,1.86-1.06,4.01-4.04,6.44c2.75,4.3,6.47,8.4,11.17,12.29c1.33,1.73,0.7,3.44-1.9,5.14
	c0.26,3.63-1.03,3.65-2.29,0.25c-5.05,0.28-5.92,9.25-4.46,13.89c3.41,4.45,4.68,8.82,3.81,13.11c-8.42,4.29-17.99,5.71-28.69,4.25
	c4.08,3.45,9.59,4.7,14.72,3.29l2.34,2.05c3.29,0.17,3.19,2.21,2.24,4.96c-3.39,4.98-4.12,9.03-2.22,12.16
	c6.62-2.79,12.71-6.67,18.27-11.63l3.13,1.04c1.03,4.89-0.12,9.8-0.31,14.68c-8.77,3.62-14.99,21.07-0.24,21.68l2.99,2.18
	c3.05,7.35,11.01,8.64,17.71,12.35c1.97,6.18-6.54,12.67-11.49,16.14c-14.68,10.29-34.37,11.51-51.05,5.69
	c-6.98-2.43-14.77-5.46-17.59-12.83c-0.53-3.63-5.32-6.76-1.47-9.7c2.03-1.55,7.64-1.22,10.44-4.69c6.65-8.25,8.14-29.73,2.48-38.61
	c-5.25-8.24-10.8-14.63-13.16-22.9l1.15-1.15c5.59,1.39,8.84-1.21,9.76-7.81c11.21-12.59,11.49-26.52,4.56-41.31
	c1.12-7.2-0.36-12.87-4.45-17.03c1.5-2.43,1.05-6.56,3.98-7.2C910.58,1266.05,918.59,1280.51,925.51,1293.63z"/>
<path class="st0" d="M694.84,1001.92c0.86,4.18-0.06,8.71-2.75,13.59c-0.91,5.52-3.05,10.25-6.43,14.18
	c-6.04,29.06-5.06,33.96,5.53,67.53c2.58,0.49,2.6,1.55,0.04,2.13c-2.92-0.08-5.3,1.5-5.47,3.76c-0.23,3.06-1.33,6.18-0.35,8.62
	c-24.67-1.58-49.18,3.23-73.46,10.63c-2.53,0.77-3.1-3.83-2.8-5.85c0.28-1.92,1.43-2.84,3.95-1.7c1.4,0.64,2.95,2.65,7.72,0.86
	c-8.24,0.34-2.5-5.92-4.43-8.51c-3.88-5.2,1.04-5.93,2.71-11.08c1.88-3.32,7.71-2.64,10.35-0.42c0.64-1.11,0.63-2.05-0.02-2.8
	c-5.62-1.9-0.43-10.1,3.68-4.71c0.91-5.08,0.84-9.98-0.21-14.7c-6.64-5.15-8.3-9.69-4.95-13.63c-0.81-5.6,9.13-8.95,13.94-10
	c13.49,3.68,17.98-14.13,12.26-23.7l0.9-3.14c-4.68-4.23-3.23-7.08,4.36-8.56c4.48-3.64,9.4-5.73,14.77-6.27
	c-0.68-4.2-0.66-8.18,0.06-11.92C680.2,995.8,692.73,995.78,694.84,1001.92z"/>
<path class="st9" d="M778.2,1363.44l16.07,77.46l-16.03-4.13c-0.38-0.72-0.98-0.76-1.45-0.08c-1.05,0.11-2.91-0.51-3.81,0.21
	c-3.18,0.97-17.83-4.4-19.47-7.45c-7.94-14.7-6.68-37.46,7.43-47.95c1.75-4.44,3.88-8.64,6.39-12.6
	C764.12,1363.97,776.19,1357.06,778.2,1363.44z"/>
<path class="st3" d="M688.42,1185.21c6.72,14.2,15.04,27.54,22.2,42.36c8.3,17.17,18.62,32.79,29.96,47.42l-3.26,1.94
	c-8.25-2.03-16.89-3.19-25.27-1.22l-3.24-1.87c1.55-8.07,0.22-16.19,5.56-24.36c1.19-1.82,1.27-6.34,0.01-7.73
	c-8.98-9.9-24.47,15.77-25.36,34.13c-2.42-30.14-5.71-58.85-10.13-87.74C682.27,1187.45,684.9,1184.5,688.42,1185.21z"/>
<path class="st3" d="M825.14,1133.02c-16.99,22.13-5.23,52.64-13.1,57c-9.16,5.07-31.82-53.61-33.6-57.05
	C793.54,1131.46,810.76,1129.41,825.14,1133.02z"/>
<path class="st9" d="M740.58,1274.99l12.2,15.75c0.52,6.84-1.04,9.1-4.67,6.78l-0.64,2.06c2.59,6.33,1.03,15.76-5.61,8.82
	c-2.64-0.29-4.49-2.33-5.53-6.14c-6.15,9.42-13.4,17.78-21.75,25.07l-3.43-1.13c-4.65,3.9-6.16-3.51-2.5-7.29
	c-3.14-0.64-5.14-1.75-4.33-5.21c5.28-12.69,1.97-26.69,4.5-39.87C719.21,1270.49,730.11,1272.23,740.58,1274.99z"/>
<path class="st10" d="M875.91,1344.86c-0.25-0.88-0.88-1.66-1.09-2.57c0.36-2.16,2.41-3.27,6.17-3.34
	c0.89-0.86,6.48-18.13,6.01-19.09c-0.24-0.49-10.12-2.71-10.65-2.54c-1.27,2.66-2.29,4.66-5.63,3.37c-3.81-0.53-3.67-2.79,0-4.01
	c2.74-13.43,8.95-27.39,16.19-39.13c10.92,0.31,5.07,12.97,7.64,18.45c6.59,14.09,6.31,29.33-6.27,41.03
	c-1.68,1.56-0.43,7-3.37,8.07C882,1346.18,878.72,1346.76,875.91,1344.86z"/>
<path class="st9" d="M764.65,1308.66c0.05,0.84,0.36,1.66,0.47,2.5l1.11,1.34c4.17,7.32,3.21,16.47,5.65,24.11
	c1.17,7.78,1.2,15.48,0.11,23.1c-8.76,16.86-29.19-1.48-15.96-14.07c-3.24-0.83-4.8-2.46-4.65-4.89c-4.03-1.05-4.46-4.99-0.05-5.37
	c0.91-1.06,1.02-2.48,0.34-4.25c-2.69-0.38-2.82-1.39-0.35-2.52c-0.02-3.56,1.04-5.38,3.47-7.82c-4.96-6.17-7.02-11.97-7.07-19.68
	c-1.49-1.08-1.69-2.58-0.03-3.55c4.74-2.78,7.73,5.49,8.8,9.06C760.49,1304.58,763.16,1303.64,764.65,1308.66z"/>
<path class="st8" d="M928.47,1298.9c12.97,1.9,20.49,5.2,24.93,18.06c0.96,0.39,2.3,1,2.29,1.83c-0.03,2.46-5.34,20.77-6.84,21.68
	c-0.5,0.3-1.13,0.4-1.79,0.44c-4.36,1.67-1.93,8.49-6.34,8.04c-2.62,0.14-4.03-2.2-4.24-7.02c-1.18-3.85-4.54-6.03-10.07-6.55
	c-4.81-3.87-4.36-16.35,2.05-17.63c0.66-0.25,1.7,0.11,2.29-0.25c0.66-2.09,1.18-3.85,1.57-5.28c-3.33-3.69-6.94-7.18-10.82-10.47
	C921.22,1297.6,926.57,1294.47,928.47,1298.9z"/>
<path class="st14" d="M928.45,1317.74c-0.8,4.28-5.32,7.85-3.86,12.05c1.5,4.34,6.96,3.84,10.31,5.38
	c4.54,2.09,4.77,10.01,5.81,13.77c0.84,3.03-0.13,9.83-3.11,11.93c-7.15,5.02-14.84,12.66-23.39,13.72
	c-6.08-9.01,3.35-13.08,1.97-20.26l0.32-3.07c3.53-2.6,7.3-4.77,11.32-6.52c-6.73-9.84-7.42-21.52-3.07-33.64L928.45,1317.74z"/>
<path class="st8" d="M967,1414.45c0.25,0.85,0.38,1.62,0.08,2.15c-11.58,19.93-43.66,29.12-65.36,25.43
	c-6.94-1.18-15.15-2.58-18.95-8.83c-3.29-3.42-4.48-7.83-5.15-12.44c24.65,20.22,63.59,18.51,80.12-9.01
	C960.15,1413.09,965.14,1411.27,967,1414.45z"/>
<path class="st3" d="M700.51,1149.33c5.52,13.73,11.74,27.18,18.27,40.84c-1.64,3.23-1.92,5.99-2.83,8.55
	c-1.26-1.08-0.99-3.14,0.1-5.68c-10.98-12.72-19.95-26-27.72-40.15C692.32,1149.88,695.61,1146.82,700.51,1149.33z"/>
<path class="st15" d="M778.2,1363.44c-6.6-0.09-8.54,1.39-10.87,5.46c-1.8,9.22-18.28,11.85-16.07-0.25
	c-5.03-2.52-6.61-7.59-4.75-15.2c-0.15-6.02,1.48-10.25,4.87-12.7c2.51,1.19,9.44,2.71,7.08,6.12c-3.25,4.7-7.2,8.68-2.73,12.51
	c4.52,3.87,5.53,6.58,10.77,3.69c5.64-3.12,2.47-14.1,5.39-26.46C774.69,1345.4,776.31,1354.36,778.2,1363.44z"/>
<path class="st12" d="M691.22,1099.34l-0.04-2.13c3.6,0.7,6.46-2.45,9.46-4.18c13.49,18.87,19.97,42.75,29.6,65.86l-29.99-52.66
	C695.73,1107.29,694.25,1101.51,691.22,1099.34z"/>
<path class="st7" d="M874.82,1342.29c-0.97-0.05-1.81-1.66-2.77-1.85c-3.72-2.58-4.79-12.65-0.43-14.44l-0.97-2.91
	c-2.72-0.31-2.6-1.57,0.08-2.4c4.12-4.01,2.96-7.68,7.36-5.54c6.01,2.92,11.04-0.14,11.59,4.95c0.37,3.47-6.89,20.86-6.41,20.45
	C881.02,1342.49,877.62,1342.22,874.82,1342.29z"/>
<path class="st15" d="M752.78,1290.73c4.19,5.41,11.4,9.83,11.87,17.93c-3.16-3.52-7.27,2.03-9.28,0.57
	c-3.18-2.3-1.52-7.72-7.21-11.02c1.04,8.27,4.62,15.35,9.85,22.71c-2.11,3.08-4.47,5.45-6.7,7.69l-2.84-1.12
	c-0.59-0.73-8.88-15.69-8.61-16.59c0.33-1.08,1.09-1.87,1.99-2.51c2.89,0.47,4.99-0.34,5.48-3.26c1.33-8.02-9.78-6.16,1.2-8.53
	c7.64-1.65-7.08-5.73-9.38-6.19L752.78,1290.73z"/>
<path class="st8" d="M723.17,1093.91c-7.86,1.6-13.73-5.32-21.24-7.86c-2.57-0.87-4.07-5.84-4.97-7.99c-0.92-2.2,1.14-6.24,4.1-6.95
	c5.91-1.42,10.47,3.05,13.69,6.55c4.35,4.73,4.07,9.18,3.2,15.41c2.76,0.42,2.47-2.09,3.28-2.77
	C722.39,1089.34,723.36,1094.26,723.17,1093.91z"/>
<path class="st4" d="M969.7,1415.31c-19.07,27.46-53.04,35.06-84.29,24.28c-0.64-1.95-2.13-4.48-2.64-6.39
	c28.15,16.92,64.79,7.44,84.23-18.75C967.85,1414.37,968.91,1415.24,969.7,1415.31z"/>
<path class="st8" d="M751.33,1086.25c-0.41,1.31-0.93,4.68-2.47,5.08c-6.58-1.92-10.52-6.69-14.88-10.53
	c-0.75-3.17-5.74-9.43,0.3-12.06C743.15,1064.86,753.44,1079.5,751.33,1086.25z"/>
<path class="st8" d="M908.23,1244.37c4.13,0.15,6.26,4.33,5.57,8.42c-0.67,3.97-4.75,5.98-9.2,4.13
	c-5.82,4.81-14.46,3.03-17.45-3.31C893.05,1247.21,900.43,1245.66,908.23,1244.37z"/>
<path class="st14" d="M804.96,1497.67c-10.89,5.18,0.82-0.68,2.84,17.67c0.66,5.95-2.87,8.33-8.44,10.3
	c-1.34-5.44-1.75-11.48,0.98-14.95c-5.17-4.11-4-14.44-2.53-19.43c4.74,10.15,6.24-4.88,5.82-8.78
	C804.09,1486.93,805.81,1492.67,804.96,1497.67z"/>
<path class="st14" d="M937.29,1375.55c-0.25,6.45,2.32,12.85-4.25,17.33c4.11,2.89,5.92,3.91,7,6.53
	c-3.75-1.78-9.05-0.32-12.72-3.21c-3.17-2.5-1.44-11.49,0.79-15.05C930.02,1378.07,933.53,1369.79,937.29,1375.55z"/>
<path class="st4" d="M870.73,1316.69c-0.26,1.28,0.09,2.71,0,4.01c-0.06,0.78-0.17,1.62-0.08,2.4l0.97,2.91l0.43,14.44
	c-10.85-2.11-12.06-25.86-6.15-27.34C867.64,1312.67,869.25,1315.31,870.73,1316.69z"/>
<path class="st4" d="M947.05,1340.9l6.35-23.94c1.9-0.21,5.41-1.3,6.17,0.73C961.71,1323.42,957.02,1343.39,947.05,1340.9z"/>
<path class="st8" d="M841.23,1133.21c0.09,1.69-0.06,3.39-0.11,5.07c0.69,0.58,0.64,1.08-0.15,1.5c0.43,4.22-2.85,8.26-3.07,12.21
	c-10.57,2.12-3.15-18.48-2.28-23.24c1.47-0.03,2.48-1.03,3.55,0.3C840.38,1130.55,841.15,1131.69,841.23,1133.21z"/>
<path class="st4" d="M793.28,1267.72c-6.31-4.69-7.12-12.85-11.04-18.4c2.13-16.37,2.97-32.17,14.84-42.47
	C785.15,1226.94,780.6,1247.59,793.28,1267.72z"/>
<path class="st14" d="M928.47,1298.9c-0.96-0.14-2.8,0.54-3.95,0.82c-0.84,0.21-1.57,2.01-0.65,2.71l3.99,3.07
	c3.69,2.84,4.76,3.21,7.22,6.12c3.31,3.92-0.24,2.93-4.35,5.88c1.45-11.54-17.19-12.41-9.92-20.65c1.04-1.18,2.95-1.98,4.69-3.22
	C926.3,1295.12,930.32,1295.9,928.47,1298.9z"/>
<path class="st14" d="M976.56,870.61l4.76,0.86c-7.12,11.79,0.52,21.4,4.67,31.38c2.28,5.49,0.3,13.87,9.14,15.83
	c-1.39,5.11-4.19,17.86-5.86,15.78l-4.16-5.16c-0.59-0.73-4.43,1.98-4.93,4.23c-2.63,1.95-4.51-0.18-2.5-2.66
	c-0.26-1.67,0.05-3.46,0.93-5.39c-2.84-0.47-4.48-1.93-4.93-4.4l-3.06,0.66c-4.25-8.34-9.64-14.58-16.18-18.7l-0.95-2.86
	c-2.46-2.71-5-5.39-6.89-8.53l-2.27-2.01c-0.64-6.43-1.62-12.87-2.92-19.32l2.8-1.43C964.11,873.07,962.25,883.32,976.56,870.61z"/>
<path class="st0" d="M933.36,867.72c4.05,1.8,1.83,15.26-2.44,16.18c-2.95,2.29-8.94,0.51-12.14-1.04
	c-12.81,11.08,25.93,34.87,18.43,48.03c-5.97-1.46-17.03-23.82-26.27-13.99c-2.63,2.8-1.98,11.71,0.94,15.15
	c-22.82-5.57-46.24-3.37-69.5-5.33c-1.06-0.17-0.91-1.05-0.04-1.66c-2.63-4.08,2.79-8.96,7.09-7.93l3.73-2.69l19.77-0.23
	c4.72-4.94,9.94-8.16,15.65-9.67c1.83-7.34,5.66-14.37,12.73-17.83c-1.66-7.27-0.87-13.91,2.39-19.91c-1.7-2.65-3.57-6.76-2.39-9.88
	c-1.33-5.37,10.17-13.4,15.06-11.68c2.75-0.35,4.64,1.75,5.68,6.3C929.46,851.77,935.09,861.55,933.36,867.72z"/>
<path class="st3" d="M924.61,970.75c5.07-0.25,5-6.03,4.92-10.3c8.67,15.48,23.07,27.67,29.7,47.47
	C945.2,998.01,933.93,984.74,924.61,970.75z"/>
<path class="st3" d="M973.69,921.07c2.97,2.09,5.64,6.1,4,9.79c0.75,0.89,1.39,2.13,2.5,2.66c3.19,9.64,13.88,15.93,13.93,27.26
	c-13.78-19.04-25.29-36.64-40.73-52.43c-2.03-2.08,0.37-6.33,0.1-8.18C964.11,901.23,966.42,913.86,973.69,921.07z"/>
<path class="st5" d="M944.22,868.87c-1.08,7.92,4.79,14.71,2.38,22.77c-1.29-0.34-2.53-1.07-3.87-1.25
	c-1.91,5.01-13.51-2.45-11.81-6.47l2.44-16.18c-1.27-3.75,3.35-7.32,6.78-6.58c2.32-0.02,4.89-3.5,5.43,0.77
	C945.88,864.34,944.54,866.56,944.22,868.87z"/>
<path class="st5" d="M937.22,930.9c2.56,0.63,4.91,4.94,9.15,4.76c6.92,14.9,20.59,26.21,26.1,44.03
	C971.57,977.2,933.72,937.04,937.22,930.9z"/>
<path class="st14" d="M930.93,883.91c3.94,2.15,7.12,5.82,11.81,6.47c-2.01,4.13,2.8,6.34,3.6,12.38
	c-11.95-0.41-22.05-10.55-27.55-19.9C921.82,880.24,927.47,882.02,930.93,883.91z"/>
<path class="st1" d="M1007.57,1030.11c12.23-1.59,19.15,8.78,30.83,14.62c-3.96-16.6-5.81-36.5,6.52-50.7
	c-12.41,28.69-8.23,52.7,11.94,74C1042.61,1052.35,1030.67,1037.47,1007.57,1030.11z"/>
<path class="st12" d="M1010.05,786.1c3.82-0.41,7.98,0.91,11.73,0.22l2.65,13.78c5.86-1.39,7.95-0.33,9.32,2.89
	c1.04,2.45-2.48,4.4-2.17,8.38c0.38,4.93,3.16,1.67,2.93,0.81c-0.34-1.24,2.42-5.33,2.88-3.02c0.41,2.1-1.69,2.89-0.62,6.55
	c-7.08,0.9-14.01,2.14-20.58,5.54c-2.59,3.75-4.91,0.99-6.45-2.7c-7.49,2.72-6.37-3.7-5.41-9.03c-4.1,4.14-8.27,7.49-12.51,10.06
	l-1.74-1.05c-3.25-0.94-3.16-3.91-4.03-5.26c-1.25-1.92-4.12-2.32-5.74-1.57c5.87-7.74,9.59-15.94,6.33-27.31
	C995.6,786.53,1002.45,786.91,1010.05,786.1z"/>
<path class="st11" d="M1016.2,821.26c-0.23,1.08,0.45,2.6,0.36,3.62c1.93,3.84,3.95,11.38-2.36,9.27c-1.33-0.48-4.79-0.79-5.71,1.66
	c-0.4,1.06,2.2,1.55,1.8,5.2c-10.65-3.85-19.17-11.53-20.21-22.47c4.09-1.77,16.23-18.85,16.96-9.05c0.16,2.15-0.72,4.5-1.17,7.47
	c3.27,0.41,2.93-1.95,3.39-2.79c0.64-1.17,3.63-1.96,4.32-0.44c0.83,1.83-1.15,3.54-0.83,5.08
	C1013.05,820.29,1014.8,820.94,1016.2,821.26z"/>
<path class="st0" d="M1088.58,741.5c1.1-5.25,4.78-10.84,6.95-15.55l19.94,10.42L1088.58,741.5z"/>
<path class="st12" d="M1014.2,834.15c3.39-1.77,0.33-6.55,2.36-9.27c4.35,3.14,7.46,11.23,9.47,15.56
	c-3.26,3.92,3.37,3.56,2.34,6.36c-0.6,1.65-2.73,4.43-4.59,4.53C1018.53,851.6,1015.65,836.07,1014.2,834.15z"/>
<path class="st11" d="M1074.08,564.91c4.77-1.92,8.92,0.47,9.98,4.04c1.11,3.72-0.14,7.99-3.73,9.53c-3.59,1.54-7.83,0.25-9.22-2.86
	C1069.43,571.88,1069.69,566.68,1074.08,564.91z"/>
<path class="st0" d="M439.49,921.83c1.58,2.1,2.03,5.06,1.37,8.86c7.88,20.24,22.86,48.93,48.87,44.68l3.12,2.14l4-0.99
	c7.66,4.6,15.58,8.6,23.77,12c5.5-2.33,9.93-0.37,13.31,5.86c2.38-8.4,5.45-10.01,12.55-4.22c4.68-9.27,20.38-15.15,29.09-9.99
	c2.48-3.39,5.81-2.02,9.04-0.69c-3.3-5.21,0.14-10.34,5.97-8.69c1.86-3.56,5.09-2.59,3.98,1.52c1,0.68,1.98,0.76,2.94,0.12
	c0.86-3.48,2.1-3.17,2.72,0.33c2.18-0.72,2.09,0.38,1.43,2.37c-0.06,0.19,0.11-3.58,1.97-2.85c4.72-5.96,5.59,0.83,6.13,5.72
	c1.45,13.27-2.82,20.66-15.43,25.63c-3.33,7.73-8.37,14.25-15.1,19.56c-2,5.3,1.59,35.51,10.03,37.88l0.14,5.36
	c12.95,2.5,6.92,19.09-4.56,18.7c-2.13,12.12-3.52,24.39-4.16,36.8c-0.5,5.51-2.54,8.35-6.1,8.53c2.14,4.43-8.33,6.79-10.13,6.34
	c-0.41-0.1-0.71-0.66-0.98-1.35l-2.94-1.17c0.36-5.17,1.16-10.3,2.41-15.41c0.5-7.88-10.22-5-14.03-0.2c2.17,1.5,1.75,2.5-0.84,2.02
	c-3.17,6.27-6.45,8.64-9.85,7.11c-3.67,1.49-5.11-1.21-4.33-8.09c-2.14-1.08-3.4-2.47-3.79-4.17c-5.77,3.65-9.95,8.9-12.55,15.74
	c-6.79,17.84-13.69,35.63-20.68,53.37c-2.98,6.58-6.58,9.05-10.81,7.39c0.15-4.28-4.16-8.31-5.45-12.32
	c-2.21-0.49-3.32-0.74-3.32-0.74c-8.9-8.79-11.74-5.41-8.53,10.16l-2.72,2.55c-2.17,19.16-5.71,37.68-16.04,53.94
	c-5.11,7.25-8.93,1.33-12.43-4.53c-7.39-8.44-15.45-10.52-26.27-11.12c-9.54-0.53-26.64-0.87-34.34,4.43
	c-2.19,7.37-6.19,12.13-11.98,14.27c1.34,5.64-1.94,10.92-7.52,11.63c-0.64,0.84-1.69,2.01-2.4,1.7
	c-6.29-2.75-26.63-14.37-31.68-18.5l-0.35-3.3l-0.9-3.86c7.05-18.48,16.97-34.61,29.74-48.39c29.67-10.35,58.51-22.5,86.51-36.46
	l65.42-38.1c5.94-9.4-2.99-6.74-8.97-4.49c-4.96,2.39-35.27,16.88-38.15,12.88c-1.41-1.96-1.86-3.25-0.47-5.47l71.41-46.91
	c5.35-13.2-3.31-13.57-25.98-1.11c-10.28,2.98-14.46,0.86-5.02-7.36c11.06-6.77,22.04-13.63,32.93-20.58l4.64-0.91
	c-1.19-2.14-0.2-3.94,2.97-5.41l-1.7-0.7c-1.32-3.79-4.98-5-10.96-3.63c-4.09,2.66-7.5,3.17-10.23,1.55
	c-2.62,4.29-7.32,6.51-14.09,6.66c-0.85,2.91-3.66,3.42-6.34,1.85c0.92,3.42-2.18,4.93-5.28,5.42c-14.36,2.25-4.87-10.62,3.26-12.47
	c0.94-3.13,3.88-5.36,8.8-6.69c18.98-16.72-18.77-7.45-25.42-1.6c0.35,1,0.69,2.61,0.04,2.95c-30.91,15.75-63.94,30.79-96.31,43.44
	c-4.28,0.91-16.71,3.28-19.11-0.42c-0.93-1.44,8.52-20.08,10-20.92l3.94-0.58c-0.43-3.32,1.38-6.62,5.45-9.9
	c1.69-3.74,3.94-5.84,6.75-6.29c-0.73-3.84-0.22-7.64,1.52-11.39c0.61-3.98,1.22-6,3.74-8.94c-2.57-1.24-3.89-4.35-3.96-9.32
	c-1.93-1.97-3.3-4.17-4.1-6.6c-5.67,2.56-8.76,7.94-9.27,16.12l-3.35,1.15l-0.53,3.48c-13.68,16.96-27.31,33.87-40.89,50.72
	c-7.15,12.69-12.76,26.1-16.82,40.22c-6.03,31.33-26.7,60-46.61,84.66l-4.61,1.91l-4.77,1.13c-8.95-2.66-18.1-4.42-27.46-5.3
	c-9.06-13.27-16.57-31.74-19.1-47.67l1.65-4.65c24.63-12.46,47.05-26.87,68.13-43.98c3.73-7.26,9.12-13.82,16.16-19.66
	c0,0,1.49-0.17,4.48-0.5c-2.27-3.5,5.63-10.36,9.09-8.09c11.12-10.41,21.48-21.49,31.09-33.26c1.64-1.87,2.23-4.28,1.3-6.58
	l-2.17,1.73c-7.8,0.29-15.03,4.3-21.7,12.03l-15.42,11.13l-4.93,0.35c-5.16,7.39-8.37,3.5-2.69-2.84
	c21.39-19.18,39.46-42.11,57.92-64.24c2.37-2.84,0.98-9.78-1.03-11.44c-13.82-11.42-36,32.75-47.83,30.15
	c-0.05-1.12-0.04-2.22,0.15-3.3c0.18-1.04,0.39-2.02,0.92-2.76c8.87-12.57,21.32-23.87,32.87-33.96
	c27.02-15.27,15.69-49.18-48.26,19.88c0.98,1.53-0.02,2.39-3.01,2.58l-17.36,14.22c-2.31-2.77,1.35-5.01,1.66-7.35
	c8.51-14.29,19.89-29.12,33.42-38.84c5.8-6.51,19.35-14.5,14.65-24.61c-3.98-4.66-18.43,1.1-22.72,6.21
	c-0.83-0.5-1.71-0.92-2.63-1.25c-4.94-1.61,1.83-4.48,3.58-7.8c-1.23-0.91-3.41-2.3-3.23-3.82c0.89-7.55,14.31-0.08,16.22-4.85
	c1.39-3.48-0.56-8.05-2.96-11.66c0.8-1.07,3.21-1.36,4.11-1.51c1.72-0.29,2.87-3.69,0.83-4.22c-1.27-0.33-2.17-2.24-4.94-0.46
	c3.54-5.66,4.58-1.07,5.93-1.26c2.15-0.3,0.72-4.09,0.41-6.94c10.46,2.19,15.3-7.25,24.06-8.53c1.73-3.57,8.68-15.99,12.35-15.92
	c2.88,0.05,4.89,0.56,5.11,3.6c-8.95,34.83,37.34,71.47,62.78,40.44c6.74,2.32,13.43,4.91,20.05,7.78L439.49,921.83z"/>
<path class="st6" d="M211.4,1138.22c4.11,17.48,8.58,34.43,18.73,50.2c10.91,0.58,21.22,2.54,30.96,6.29l-2.51,6.72
	c-24.13,36.86-52.3,71.3-80.26,105.43c-3.18,3.88-8.73,10.24-12.26,4.48c-3.92,1.24-6.75-2.46-3.12-5.27l-2.5-2.96
	c1.06-22.53-4.28-48.81-26.45-59.38l-1.55-3.56c19.22-31.88,41.97-61.99,63.82-92.67C200.62,1141.37,206.27,1140.82,211.4,1138.22z"
	/>
<path class="st7" d="M148.63,1288.36l1.04,3.82c-2.49,4.87-3.91,9.93-4.26,15.16c3.89-1.12,6.41-0.26,7.57,2.56
	c4.84,1.23,5.43,13.8,2.25,17.56c0.23,0.92,0.42,1.84,0.43,2.76c0.04,5.25-24.67,32.81-30.32,38.52l-4.75,1.59
	c-4.7,4.54-13.31,1.95-19.27-0.35c-5.78-2.23-13.18-5.38-14.06-11.95c-3.96,0.41-7.1-2.33-9.44-8.23
	c-2.42-4.04-7.13-11.97-3.98-15.62c-3.68-9.59,8.17-18.11,12.64-25.86c5.82-10.1,12.08-20.07,20.32-26.95l2.08-2.34
	c11.35,1.07,18.62-9.98,21.69-19.56c1.98-2.26,3.25-3.26,5.64-1.29c1.17,0.97,14.1,25.11,14.18,26.77L148.63,1288.36z"/>
<path class="st2" d="M132.43,1240.17c25.66,9.88,32.41,39.55,30.5,65.91c0.02,4.19-6.18,5.35-7.48,1.27l-1.73-0.76
	c-0.26-6.65-1.96-12.73-5.09-18.23c-2.87-10.74-10.65-19.04-14.96-29.95c-3.68,13.69-13.95,25.93-26.87,22.95
	C110.53,1265.86,124.2,1253.81,132.43,1240.17z"/>
<path class="st2" d="M73.83,1334.17c3.06,7.98,7.01,17.9,13.41,23.85c2.83,2.85,3.75,18.71,2.39,21.47
	c-0.6,1.21-1.83,1.87-3.01,2.38c-12.73-0.72-26.99,2.04-33.97-10.96c-4.88,3.92-9.05,4.79-13.58,3.03l24.14-33.28
	C66.19,1336.55,67.76,1332.56,73.83,1334.17z"/>
<path class="st10" d="M297.43,1051.37c1.31,2.36,0.7,5.67-1.82,9.91c-0.83,5.82,0.69,10.08,4.56,12.79
	c-7.11,6.33-13.16,14.1-20.63,20.17c-3.35-6.94,6.32-11.6,10.44-19.55c-7.05-4.06-18.33,0.11-21.46,7.47
	c-1.85,4.35-11.87,3.68-13.44,10.72c-5.95,4.05-17.02,4.78-21.86,13.01l-14.92-5.22c16.03-10.98,35.16-15.98,51.05-29.24
	c4.55-1.46,16.45,2.4,16.81-5.5c0.39-8.78,3.28-12.64,8.58-17.39c-0.39,1.02-0.77,2.15-1.68,3.31c-0.96,1.22,1.51,1.72,2.28,1.13
	L297.43,1051.37z"/>
<path class="st10" d="M196.9,1036.47c0.66,6.41,7.01,10.02,5.12,16.32c-1.62,5.42-7.73,7.53-12.29,12.02
	c-2.28,2.24,3.38,6.29,1.48,7.26c-2.87,1.47-5.75,0.38-7.85,0.43c-1.72-7.26,3.23-12.31,7-18.67c2.06-3.48-3.48-9.02-1.8-10.94
	C190.72,1040.4,194.25,1037.78,196.9,1036.47z"/>
<path class="st10" d="M196.74,1106.18c-1.33-3.09-2.83-6.1-3.93-9.28c2.93-5.76,6.72-13.74,13.46-10.91
	C205.02,1095.73,206.18,1108.95,196.74,1106.18z"/>
<path class="st10" d="M197.02,1083.42c-10.55,0.97-6.29,9.71-17.56,4.24c4.77-8.39,12.28-13.55,22.76-12.66
	C202.87,1079.05,198.11,1080.72,197.02,1083.42z"/>
<path class="st1" d="M610.64,1288.33c4.84,47.59,37.88,71.78,34.9,125.96c-10.45,11.9-16.96,20.07-15.94,35.83l-2.54,1.66
	c-7.86-1.34-24.18-6.08-28.77-12.57c-3.74-5.3-4.93-11.8-5.52-18.14c-1.76-18.95,5.33-30.01,16.33-44.79c1.7,3.03,1.9,2.91,0.6-0.33
	c4.9-5.33,14.37-15.98,11.38-23.7c-1.88-4.88-4.83-3.14-5.54,1.33c-3.74,2.7-5.45,2.24-6.07-2.5c1.47-10.09,0.19-13.87-3.85-11.34
	c-8.66-1.37-17.12-1.11-25.4,0.77c-7.5-3.53-1.36-9.9,4.92-11.51l-4.14-2.8c-4.43,4.69-14.46-0.94-15.66-6.75
	c-2.35,1.66-4.58,0.26-6.71-4.2c-2.73,9.32-9.35,15.59-18.38,18.83l-1.89,2.97c-2.84,5.1-3.94,10.48-4.87,16.43l-3,0.57
	c-4.97-4.79-5.46-15.37-2.97-20c-2.28-1.78-1.33-3.09,2.85-3.91l-0.53-3.4c12.38-14.75,22.97-31.32,30.71-48.98l3.35-1.22
	C580.65,1272.16,597.94,1276.66,610.64,1288.33z"/>
<path class="st4" d="M741.85,1308.39c2.08,7.46,8.89,12.46,9.46,20.22c0.06,0.76,0.05,1.83,0.35,2.52c0.67,1.73,0.56,3.15-0.34,4.25
	c-1.07,1.73,0.39,3.69,0.05,5.37c-8.03,39.52,5.16,15.96,2.11,32.68c2.6,2,11.99-1.3,13.85-4.53
	c-1.48,27.81-25.52,12.49-11.65,59.16c6.17,4.98,13.02,3.78,17.3,8.85c-15.51,12.31-34.1,19.44-53.84,16.25l-13.16-39.14
	c1.05-7.13,0.28-13.75-2.34-19.87c-3.02-3.53-4.04-6.65-3.06-9.38c1.66-2.41,3.5-4.78,5.51-7.12c3.32-8.2,8.11-15.75,14.37-22.64
	c6-10.49,3.72-19.06-8.94-18.84l-2.01-2.42c-4-0.31-2.27-7.71,1.64-7.56c11.48-5.9,16.2-18.53,25.14-29.34
	C738.91,1301.16,740.87,1304.89,741.85,1308.39z"/>
<path class="st14" d="M700.58,1384.77c-2.58,2.13-4.58-1.66-2.85-3.98c-0.78-0.12-1.43-0.29-1.58-0.67
	c-0.82-2.03-4.6-13.43-3.91-14.33c0.42-0.54,1.06-0.91,1.76-1.23c5.85-2.54,9.55-4.3,14.48-9.03c3.15-3.02,3.04-8.45-0.57-6.86
	c-5.68,0.15-8.52,0.23-8.52,0.23c-2.59,2.45-4.92,3.28-6.97,2.48c-4.28,2.23-3.7-3.74-2.44-6.84l5.04-8.34
	c1.46-4.25,12.21-6.38,14.49-2.46c5.96-1.01,10.09,0.03,13.89,3.9c11.05,11.23-10.57,30.52-11.1,31.87
	C709.81,1375.75,707.58,1384.76,700.58,1384.77z"/>
<path class="st12" d="M664.63,1193.24c2.57,19.01,6.2,39.51,1.33,60.92c-6.27-21.99-6.01-43.75-10.94-64.67
	C658.82,1189.14,660.95,1193.01,664.63,1193.24z"/>
<path class="st15" d="M711.14,1326.2l-1.64,7.56l-14.49,2.46c0.88-7.24,6.61-16.06,9.29-22.51c1.43,1.11,3.03,2.24,5.08,2.67
	c1.9,0.4,3.24-3.24,5.66-2.01C713.3,1319.36,705.38,1323.56,711.14,1326.2z"/>
<path class="st9" d="M700.58,1384.77c7.05,8.41,11.81,19.89,5.39,29.24c-3.55-10.55-8.19-20.8-10.63-31.88
	c-0.38-3.49-0.39-3.69,2.39-1.34C698.23,1382.25,699.61,1383.62,700.58,1384.77z"/>
<path class="st12" d="M641.34,1199.92c1.14,16.74,3.7,33.4,2.48,51.47c-4.98-17.01-4.94-34.34-7.54-51.3
	C637.96,1199.85,639.65,1199.79,641.34,1199.92z"/>
<path class="st12" d="M624.84,1243.03c-1.44,8.36,4.28,17.03,2.31,28.03c-6.21-8.56-8.41-19.67-9.28-29.55
	C620.3,1241.27,622.58,1242.25,624.84,1243.03z"/>
<path class="st4" d="M692.41,1351.4c4.09,0.42,5.91,12.16,1.59,13.17c-0.02,5.66,1.83,10.8,3.73,16.22
	c-0.75,0.53-1.54,0.99-2.39,1.34c-2.81-12.73-12.62-25.58-5.37-37.58C688.7,1347.3,691.73,1349.6,692.41,1351.4z"/>
<path class="st2" d="M1038,1473.12c-6.38-3.6-12.74-7.92-19.95-9.33c-0.25-2.34-3.69-4.75-1.5-8.18c6.96,2.69,13.49,7.16,20.51,8.21
	l3.39-38.68C1045.23,1442,1039.45,1457.64,1038,1473.12z"/>
<path class="st2" d="M992.53,1516.24c-5.36,1.61-4.53,8-8.26,11.77c7.2-20.02-5.62-42.3,0.46-57.26
	C987.45,1486.9,984.72,1503.92,992.53,1516.24z"/>
<path class="st7" d="M554.44,1147.95l1.7,0.55c-2.26,12.99-5.36,26.16-9.3,39.51c1.79-3.2,4.24-4.7,7.36-4.51
	c-1.78-0.47-3.6-1.37-4.41-3.12c-0.93-2.01,10.96-40.73,12.53-42.29c5-4.97,11.73-3.43,13.1,3.26c4.14,1.28,4.14,14.69-0.89,14.54
	l0.84,6.22c-3.81,15.86-7.47,31.67-10.97,47.44l-2.28,2.51c0.97,1.74,1.54,3.16,1.72,4.25c7.4-5.07,15.77-1.16,14.02,8.33
	l-4.51,14.32c0.42,1.82-0.83,3.63-1.29,5.28l-1.26,3.98c-2.14,9.23-3.6,19.39-6.9,28.3c-6.07,16.35-22.7,42.01-33.54,53.61
	c-7.54,4.73-18.71,3.87-13.72-7.64c9.2-4.21,18.21-13.94,15.97-24.27c-7.4,2.66-11.65,1.63-12.76-3.09
	c-4.11-2.21-0.77-12.13,3.73-11.85c1.07-2.66,2.54-5.21,2.86-8.1c1.53-1.72,2.14-3.47,2.69-5.66l0.11-3.88
	c-1.6-0.82-1.82-1.8-0.39-2.95l-0.01-2.15c-2.38-0.2-2.48-1.15-0.06-1.87l-0.06-2.43c0.21-2.26,0.78-4.08,1.71-5.48l-7.54-3.77
	c-3-5.74-7.23-10.08-12.7-13.02c-1.63-4.96-5.07-4.18-10.31,2.36c9.42,4.67,4.88,18.15-3.07,10.56
	c-7.86-5.1-12.27-11.76-11.98-20.28l3.22-16.78c7.94-21.34,15.79-42.67,23.55-63.97l2.7-0.73c9.04-7.26,18.23-0.1,11.98,10.82
	c3.09,3.12,2.32,8.03-1.41,10.24c1.25,3.48,0.84,7.49-1.25,12.04c0.55-4.64,2.41-7.16,5.58-7.57l0.16-7.59
	c4.29-14.16,10.03-30.69,18.68-42.35l0.84-2.02c2.27-2.66,8.12-6.19,11.51-4.59c3.97,1.88,1.6,13.65,0.1,17.88
	C556.71,1137.03,554.7,1142.35,554.44,1147.95z"/>
<path class="st6" d="M527.77,1375.42l2.86,2.27c1.08,11.86,5.94,23.74,16.34,30.27l0.79,3.54c4.56-0.46,4.3,8.64,4.09,12.33
	c-1.08,18.55-19.12,26.43-36.1,27.37l-2.76-2.18l-3.27-2.62c-2.59-11.51-4.6-23.04-6.04-34.6c3.99-17.26,8.86-34.25,15.6-51.79
	C522.91,1365.78,523.98,1371.31,527.77,1375.42z"/>
<path class="st9" d="M512.93,1308.31c2.75,0.43,2.57,1.84-0.11,2.82l-1.34,2.73c3.42,1.53,2.34,3.21-1.24,2.51
	c-0.61,1.11-0.64,1.78,0,2.9c3.54,0.58,3.77,1.37,0.94,3.5c-3.12,3.2-7.49-1.76-8.75,0.28c-4.02,6.52-1.1,14.91-6.88,18.4
	c-14.23,8.58-3.36-29.74-4.72-29.52c-3.62-0.17-5.74-0.48-6-2.68c-0.18-1.5,0.98-2.77,2.4-3.51c2.68-1.72,3.27-3.12,1.76-4.21
	c-1.15-0.91-0.68-3.12-1.56-4.05c-0.3-4.19,2.01-8.37,6.91-12.54c3.74-14.75,15.5-14.06,22.65-2.54
	C513.96,1291.22,512.7,1298.86,512.93,1308.31z"/>
<path class="st7" d="M539.49,1379.19c-3.25,0.98-5.97-1.6-5.45-4.9l-3.54-20.25c2.78-7.79,0.35-15.19,7.86-17.01
	c-0.47-2.93,3.56-4.19,6.18-4.34c9.63-0.56,11.91,3.26,10.96,12.13c4.65,11.01,1.38,17.7-7.56,24.7
	C546.09,1375.39,543.27,1378.61,539.49,1379.19z"/>
<path class="st10" d="M530.39,1330.13c-0.84,0.89-2.28,2.83-2.85,3.91c-4.27,0.35-12.42-1.76-11.56,4.51
	c0.41,2.98,4.29,6.27,0.85,8.01c-18.03,9.14,0.79-16.19-5.64-23.78c-0.74-0.88-0.46-2.52-0.94-3.5c-0.64-1.03-0.65-1.85,0-2.9
	l1.24-2.51l1.34-2.73c0.15-0.91,0.1-1.9,0.11-2.82c-1.39-5.5,1.45-12,6.94-13.19c4.49,2.79,8.02,1.58,15.32-0.37
	c3.19,11.77-5,24.88-16.72,29.48c-1.79,2.54,1.2,9.09,4.22,6.82C524.68,1329.56,527.96,1330.39,530.39,1330.13z"/>
<path class="st15" d="M523.59,1283.27c-1.71,4.28-3.02,7.32-3.73,11.85c-0.72,4.58-6.86,8.16-6.94,13.19
	c-7.93-20.05,6.59-23.25-0.44-27.77c-4.4-2.83-6.09-6.26-11.08-3.15c-2.84,1.77-3.38,7.26-5.04,9.27l-8.95,10.81
	c-5.61-5.91,0.23-15.02-4.05-23.11c-0.7-1.33-2.6,1.83-3.4,1.15c-1.45-1.23-2.06-3.22-1.48-4.06c7.63-11.09,27.97,5.91,35.22-1.94
	C517.94,1272.72,518.06,1280.66,523.59,1283.27z"/>
<path class="st10" d="M528.72,1256.23c-0.11-4.85,3.72-5.37-11.18,1.81c4.81-2.32-20.46-1.35-20.72-11.16
	c1.51-0.14,3.69,0.45,5.18-0.8c1.16-0.97,0.69-4.31-0.5-5.24c-1.09-0.85-2.56-0.91-5.44-3.98c3.49-5,8-7.61,14-12.4
	c-0.65,9.59,5.32,8.63,9.17,12.36c2.92,2.84,3.23,9.23,9.76,10.07c1.75,0.22,5.89,3.63,4.55,4.98
	C531.98,1253.45,530.22,1254.96,528.72,1256.23z"/>
<path class="st12" d="M530.09,1115.55c-0.59,5.21-2.85,10.39-6.81,15.53c-1.91,6.26-4.9,10.94-8.97,14.03l-29.46,81.48l1.21-34.54
	C502.82,1187.13,511.26,1113.39,530.09,1115.55z"/>
<path class="st10" d="M512.99,1449.02c1.36,2.25,0.58,2.97-1.56,1.44c-0.65,0.6-1.82,0.52-2.52,1.21c0.08,2.59-0.93,2.52-1.51-0.09
	l-13.2,3.14c-1.27-14.22,6.18-28.66,9.47-42.91C509.21,1423.22,510.29,1436.55,512.99,1449.02z"/>
<path class="st1" d="M539.49,1379.19c1.1,2.64,3.03,7.67,0.5,9.81c3.3-0.3,9.47,7.62,11.04,10.64c2.77,5.34,2.38,9.42-3.27,11.87
	c-13.34-7.01-19.16-21.29-19.99-36.09c2.01,0.38,4.43-1.15,6.28-1.13C536.27,1374.92,538.57,1377.18,539.49,1379.19z"/>
<path class="st1" d="M480.6,1179.73c-9.63-2.78-4.07,10.35-10.53,12.6l-4.03-0.63c0.63-5.6-3-13.48,0.08-18.78
	C470.91,1169.55,478.91,1174.5,480.6,1179.73z"/>
<path class="st15" d="M487.23,1305.73c0.57-1.21,0.51-3.25,1.76-4.21c1.07,0.43,2.8,0.09,4.32,0.79c1.31,0.61,0.83,3.34-0.16,3.39
	C491.36,1305.82,488.65,1305.76,487.23,1305.73z"/>
<path class="st10" d="M528.85,1262.68c0.48,0.46,1.03,1.02,1.09,1.83c0.03,0.4-0.69,0.77-0.69,1.12l-3.52-0.01
	c-0.88,0-1.41-2.48-0.04-2.62L528.85,1262.68z"/>
<path class="st10" d="M526.45,1275.17c0.23-2.14,0.5-4.69,2.69-5.66c1.24,1.12,0.98,2.69,0.29,3.83
	C528.68,1274.56,527.73,1275.23,526.45,1275.17z"/>
<path class="st2" d="M90.99,1397.57c3.23-2.86,11.03-2.55,11.94,2.18c1.42,0.05,2.83,0.16,4.2,0.45c1.32,0.29,2.6,0.63,3.7,1.26
	c29.22,16.65,68.4,53.47,88.71,80.42c1.62,2.16,2.2,4.91,2.75,7.51c-1.13,0.65-2.02,2.71-3.6,2.78l-2.8,0.06
	c-21.95-29.22-54.37-64.93-86.98-82.33c-4.61-2.46-13.24-6.61-17.05-1.61c34.57,18.12,75.19,48.09,94.61,82.67
	c0.48,0.85,0.67,1.87,0.8,2.93c0.14,1.12,0.1,2.26,0,3.41l-4.63,0.48c-16.61-33.61-54.78-67.44-90.32-81.2
	c-2.36-0.92-4.58-3.76-7.99-1.88C74.88,1415.01,85.76,1398.52,90.99,1397.57z"/>
<path class="st4" d="M629.59,1450.12c1.42,22.15-23.36,42.28-42.53,47.17c-26.08,6.65-48.05-5.55-63.76-25.4
	c-5.66-7.16-5.02-17.18-11.88-21.43l1.56-1.44c9.91-1.98,22.19-4.02,30.81-11.07c6.83-5.58,5.95-19.03,3.96-26.45
	c-0.63-2.37,2.71-5.49,2.74-7.81c-3.24-5.49-8.13-9.31-10.51-14.69c0.62-1.79,1.64-3.47,3.07-5.04c1.02-7.89,3.4-16.47,11.46-19.65
	c2.25-4.85,5.55-9.14,9.92-12.88l-1.68-29.95l2.58-2.06c4.44,2.52,9.01,6.49,14.2,6.24c-6.78-6.89-16.45-11.2-15.36-22.28
	c6.2,12.08,16.95,20.74,29.37,27.42c-5.91,1.61-14.32-0.03-14.45,7.71c9.94-4.16,18.22-1.81,25.97-1.35
	c3.84-2.62,7.23,0.32,7.31,3.07c0.15,5.57-0.67,8.65,0.03,13.7l2.68-5.79c1.26-2.72,4.67-1.26,6.18,0.07
	c11.55,10.23-13.01,33.19-10.55,30.02c-4.97,6.39-10.53,17.36-14.34,23.7c-1.98,10.6-1.87,26.61,3.56,34.96
	C606.56,1447.08,620.61,1444.72,629.59,1450.12z"/>
<path class="st4" d="M606.89,1494.76c-20.92,18.13-54.09,14.89-74.51-4.15C556.23,1506.38,580.55,1508.75,606.89,1494.76z"/>
<path class="st4" d="M507.4,1451.57l1.51,0.09c1.9,9.28,5.68,17.04,11.55,26.73C512.79,1472.24,508.48,1461.41,507.4,1451.57z"/>
<path class="st4" d="M608.22,1494.13c4.16-4.62,8.59-7.96,14.11-12.5C619.14,1486.75,614.74,1491.47,608.22,1494.13z"/>
<path class="st4" d="M532.1,1490.59c-4.75-2.55-8.21-5.84-10.73-10.47C525.99,1482.73,528.77,1486.36,532.1,1490.59z"/>
<path class="st4" d="M382.63,1027.27c3.92,3.37-1.39,7.68-3.24,2.5c-2.01-0.14-3.85,0.88-5.5,3.07c1.17,0.83,1.12,1.57-0.15,2.24
	c0.73,0.51,0.65,0.98-0.16,1.4c-0.12,1.2-0.5,1.21-1.12,0.12l-2.8,1.59c1.17,1.65,1.15,3.91-0.06,6.79
	c2.62,0.77,4.01,2.08,4.17,3.92c-5.08,5.33-7.2,14.29-12.55,20.55c16.88,1.51,29.87-5.27,43.87-11.89l70.12-33.12
	c1.99-1.64,4.92-3.88,7.35-2.9l3.71,7.71c3.42,0.25,5.28,1.41,5.56,3.48c-0.78,4.03-5.04,5.65-9.38,9.68
	c3.75,1.62,8.51-0.64,11.4-2.63c2.89-0.7,4.69,1.72,5.42,7.24c-3.57-14.17,5.82-9.76,14.06-4.63c0.75-2.82,20.11-6.74,20.71-4.91
	c0.2,0.62,0.21,1.29,0.16,1.99c-11.33,12.01-29.15,15.59-41.27,28.45c9.54,0.28,34.41-20.51,39.13-7.16
	c1.05,2.98,0.23,8.96-3.99,11.73l-71.43,46.76c16.45,2.09,45.9-23.14,51.11-12.75c1.75,3.48,0.19,7.73-3.71,9.99l-64.33,37.34
	c-27.5,15.97-57.43,24.26-86.47,36.41c-15.06,12.81-20.85,33.91-30.2,49.98c-0.89,9.71-6.63,21.73-14.02,28.1l1.73,2.56
	c-5.52,7.08-9.88,14.52-13.09,22.33c0.53,3.23-0.03,5.61-1.69,7.15l1.14,2.86l-14.52,18.61c8.26,6.47,6.93,17.82,5.12,26.94
	l8.21,2.69c3.07,1.67,3.98,4.77,2.73,9.3c-2.97,1.93-4.22,4.11-3.74,6.56l0.76,3.48c-11.28,11.14-15.62,41.48,3.12,46.2l1.56,2.77
	c0.87,0.65,1.61,1.45,1.88,2.53c0.67,2.67-10.88,10.24-13.47,11.75l0.47,2.96l2.61,1.18c6.41-3.47,11.08,6.27,4.38,7.77
	c-0.34,3.22-5.67,6.97-8.37,4.31c-4.15-1.6-8.69-0.84-13.62,2.29c-8.59,0-6.67-6.49-1.88-10.95c-17.23-5.32-35.89-1.01-49.45-18
	c-5.92,9.58-11.23,15.7-14.22,23.98l-5.71-2.94c-19.91-24.35-45.68-42.84-72.07-59.57c0,0-1.19-1.81-3.58-5.42l-1.52-2.39
	l96.74-121.67c28.61-41.14,57.05-82.38,85.32-123.73c3.51-38.7,23.34-72.5,50.49-99.15l11.74-15.6l2.24-0.57
	c0.46-1.12,0.86-1.04,1.2,0.18C378.31,1013.14,383.52,1022.98,382.63,1027.27z"/>
<path class="st8" d="M121.97,1379.11c0.39-4.19,4.81-3.3,5.35,0.53c30.13,18.87,60.07,39.76,81.36,67.94l10.98,14.53
	c-10.13,7.78-7.76,21.78-17.37,27.28c-28.64-34.89-60.1-66.22-99.36-89.64l-1.21-2.89C104.8,1390.89,114.66,1374.46,121.97,1379.11z
	"/>
<path class="st9" d="M302.89,1419.81c10.66,0.13,21.83,6.47,31.87,11.72c2.68,5.37,1.38,11.24-3.92,17.59
	c-0.59,3-2.02,4.73-4.28,5.17c-0.27,0.07-0.63,0.03-0.91-0.01c-1.68,3.73-3.23,3.19-5.03-0.07c-2.48,1.88-3.8-0.07-3.97-5.85
	l-6.82,20.08c-0.78,2.46-2.68,3.25-5.69,2.37c3.48,1.27,2.83,3.91-0.93,3.93c-2.77,6.41-16.63,6.82-20.75,1.14
	c-11.13,6.66-14.88,0.05-12.48-11.23c1.65-7.75,9.44-19.29,17.86-14.37c2.69-1.36,5.1-4.6,8.37-4.31c1.9-2.46,4.8-4.03,8.7-4.7
	l-3.26-9.03l-9.19,5.73l-3.23-0.93c-1.63,0.44-5.54-2.07-4.54-3.37c5.88-4.51,13.49-7.01,15.65-13.87
	C300.57,1416.2,301.86,1416.41,302.89,1419.81z"/>
<path class="st10" d="M272.34,1441.6c-0.6,2.84-3.34,7.66,0.21,8.93c5.35-2.84,13.81-6.41,15.29-0.26
	c-11.52,0.77-18.39,14.66-14.83,26.11c4.12-1.47,6.59-1.74,9.45-0.51c1.93,2.24,4.6,3.5,8.01,3.77c0.84,3.86,2.34,4.7,4.49,2.51
	l4.5,0.03c0.01-3.92,1.26-6.4,3.75-7.44l0.93-3.93c4.1-3.43,6.9,0,9.37,3.91c4.01,11.92,4.97,9.61,2.91-6.93l4.21-13.57
	c1.67-0.29,3.36-0.17,5.03,0.07c12.93,43.75-9.61-12.6-1.59,36.43c-5.88,0.02-12.08-2.98-17.53-7.9l-13.88,22.57
	c-1.05-2.7-0.67-5.94-2.15-7.17c-1.72-1.43-4.03-1.11-7.28-1.09c-0.1-5.05-1.2-10.96-6.8-10.38c-4.2,0.43-19.58,0.68-5.55,6.33
	c-8.81,0.11-10.62-1.72-17.13,4.59c-2.22-13.01,0-24.37,11.66-31.93l-17.02,0.3C257.24,1457.84,263.11,1446.83,272.34,1441.6z"/>
<path class="st8" d="M198.69,1492.18c-0.68,2.56-2.44,4.69-4.65,5.64c-2.5,1.07-4.85,1.19-6.76-0.51
	c-22.28-36.95-58.34-67.71-98.73-87.92C97.72,1377.49,195.74,1479.28,198.69,1492.18z"/>
<path class="st4" d="M338.88,1438.15c0.93,4.35,5.69,8.28,7.71,11.95c-3.3,8.86-12.92,2.33-20.03,4.18
	c0.64-8.67,9.34-14.24,8.2-22.76C337.2,1432.8,338.31,1435.46,338.88,1438.15z"/>
<path class="st6" d="M357.46,1260.32l3.26,0.54c1.87,11.29,3.27,22.7,4.21,34.21l-1.83,2.85c-5.44,8.36-3.43,21.52,5.37,26.73
	c4.49-1.22,7.67,6.83,5.14,10.54c6.01-0.38,9.8,13.32,11.02,18.8c1.62,7.27,2.28,16.65-2.7,22.8c-2.19,2.71-5.69,6.33-8.42,2.84
	l-52.75,19.1c-9.99,3.62-15.26,11.42-17.86,21.09l-2.55-0.03c-11.74-0.15-15.61-9.58-16.79-21.52c-1.31-13.26,3.7-20.63,11.35-30.93
	l-0.58-3.1c4.61-2.04,6-5.13,3.38-9.8c8.49-3.43,12.59-10.74,12.31-21.93l3.29-1.2c-1.16-3.7-0.5-7.96,1.96-12.77
	c1.57-6.76,1.23-13.68-1.02-20.78l1.46-2.5c9.49-3.39,2.23-14.08-1.88-20.1c-3.12-2-4.72-4.27-4.8-6.83
	c4.28-9.54,8.66-18.88,14.02-28.1L357.46,1260.32z"/>
<path class="st4" d="M419.13,1272.46l3.2,0.67c1.25,9.34,0.05,18.98-3.59,28.93c0.47,5.17,0.72,10.3,0.73,15.4l-2.87,2.38
	c6.14,4.71,7.53,8.23,4.17,10.56c-0.07,2.28-4.78,3.5-4.57,3.29c1.14-1.13,4.15-2.14,5.44-1.04c3.81,1.61,4.7,5.91,2.67,12.92
	c-0.48,3.35,1.17,4.95,4.97,4.81l2.64,3.73c0.37,7.57,0.83,14.14,1.38,19.69c5.89,1.09,8.78,3.37,8.68,6.85l0.21,1.52
	c-0.02,0.39,0.07,0.95-0.08,1.3c-11.53,8.16-21.12,18.42-35.71,17.53c-13.93-0.85-29.03-7.4-32.89-21.36
	c16.42-5.94,8.71-31.76,0.1-44.43c-1.59-3.57,1.06-4.51,4.45-4.77c1.54-4.37,4.65-8.52,8.73-10.94c1.08-6.23,5.52-12.63,11.66-14.77
	c0.01-12.44,0.75-24.84,2.2-37.2l2.52-1.83c-1.2-6.62,13.21-9.13,10.87-0.39C418.34,1266.83,420.05,1267.92,419.13,1272.46z"/>
<path class="st4" d="M120.58,1370.33c2.01,3.06,0.47,4.92-2.92,5.04l-0.85,1.62c-8.7,3.46-15.81,9.94-21.31,19.44l-4.51,1.14
	c-1.3,6.18-11.46,12.62-6.65,17.13c1.07,4.26-3.4,6.16-5.36,8.94c-2.81-6.46-10.47-9.8-9.55-17.37c5.13-1.14,12.2-3.27,13.86-7.08
	c2.51-5.78,2.41-11.94,3.32-17.33c1.35-7.93-0.16-15.86,0.63-23.84C96.7,1366.81,108.55,1371.03,120.58,1370.33z"/>
<path class="st4" d="M14.65,1501.67c-0.91,4.38-5.29,7-7.66,10.32c-0.2-1.94-0.81-3.8-1.84-5.46c0.22-2.32-0.96-6.34,2.1-6.76
	C9.78,1499.42,12.56,1500.54,14.65,1501.67z"/>
<path class="st1" d="M450,1245.65c-5.76,9.06,16.32,19.82,0.99,18.47c4.69,13.06-2.59,24.81-3.69,37.31
	c3.11,2.38,0.26,5.84-3.26,4.26c-2.29-2.2-3.26-5.5-2.92-9.9c-1.8-4.42-2.01-8.25-0.62-11.49c-3.23-0.42-4.71-3.93-4.43-10.54
	c-2.03-5.67-13.15-5.52-16.94-1.3c-2.94-3.9-6.03-6.08-11.83-4.26c1.12-3.21,3.95-2.82,5.48-5.65c-3.94-1.32-6.6,1.69-9.61,3.12
	c-0.19,4.1-3.97,5.06-6.98,2.73c-1.41,3.22-3.34,3.27-5.92,1.23c1.31-2.71-9.21-2.54-9.4-2c-3.88,10.9-7.31,22.03-10.13,33.25
	l-3.88,4.67c-3.71-0.53-6.52-4.5-3.76-7.63c-5-12.46-0.1-27.98-5.64-37.59c0.89-4.23,12.34-11.32,1.49-10.1
	c3.71-5.71,13.38-4.93,12.81-11.52c4.34-15.43,22.47-9.65,33.83-11.03c15.12-1.84,31.65,3.46,38.47,18.98
	C446.22,1246.67,448.66,1243.83,450,1245.65z"/>
<path class="st6" d="M443.23,1380.39l-1.26,0.24c-2.88-2.84-7.19-2.58-11.06-5.15c-0.86-8.7-1.93-17.02-1.64-25.12l-0.47-3.79
	l10.7-19.37l3.71-1.11l0.21-1.83c5.25-4.46,7.82-10.77,7.71-18.95l2.86-0.97c5.96,2.19,15.25,3.75,18.12,11.25
	C462.29,1337.57,455.1,1360.48,443.23,1380.39z"/>
<path class="st4" d="M454,1304.36c-1.44,8.89-1.42,20.6-10.78,21.74c-4.1-1.09-4.55-6.71-0.56-8.21
	c-3.89-2.72-2.92-10.22,1.37-12.21l3.26-4.26c1.29-0.67,2.88-1.24,4.42-0.68C453.11,1301.26,453.7,1302.92,454,1304.36z"/>
<path class="st15" d="M718.95,560.94c16.85,17.26,24.08,41.96,20.44,65.49c17.91-4.62,33.52,6.05,38.25,25.77
	c10.51-15.66,25.72-22.21,43.17-22.18c25.82,0.04,46.87,13.03,55.04,36.36c8.29,23.67,3.29,46.65-19.07,64.73
	c28.6,0.3,51.59,8.94,65.87,29.81c15.47,22.6,16.07,48.67,3.9,72.41c0.76,3.72-5.86,13.47-10.16,11.92
	c-4.96,3.7-10.97,7.13-15.06,11.68c-2.26,4.96-15.96,8.74-19.84,4.55c-2.1,5.02-18.93,4.71-19.05-1.51l-2.78-0.96
	c-10.65-30.66-29.05-17.28-43.04,3.35l-7.5,5.85l-53.62,16.67c-8.19,3.09-15.9,7.4-22.41,13.32l-4.26,0.37l-2.89-0.05
	c-1.59-4.9-3.36-8.36-5.31-10.4c-2.24-0.8-2.98-3.06-2.21-6.77c-2.16-4-2.03-6.56,0.39-7.69c9.21-1.17,18.05-3.48,26.51-6.91
	c11.33-7.33,22.54-14.28,33.63-20.86c-12.91-2.78-20.02-12.27-26.09-22.87c-12.47,8.27-25.06,10.83-37.75,7.7
	c-3.46-2.99-7.23-5.32-11.33-6.98c-47.24-0.06-71.27-56.95-47.74-95.48c1.21-6.13-3.93-7.63-15.41-4.51
	c-4.91-1.39-9.7-3.15-14.39-5.28c-24.73,1.14-40.39,26.45-26.27,48.6c-2.63,5.9-8.53,7.27-17.69,4.13
	c-16.86-0.8-25.45,8.96-24.25,25.94c-0.23,2.07-1.4,2.98-3.49,2.76c-38.96-10.19-63.71,31.94-36.75,61.81
	c1.01,3.27-0.33,3.96-3.61,4.88c-43.03,6.75-39.9,56.9-0.36,67.92c6.83,2.91,9.54,6.59,8.13,11.05l-2.45,3.29
	c-7.64,2.31-24.17,4.7-29.51-1.49l-3.95,1.81c-4.59-0.39-12.86-4.98-17.07-7.49c-6.37-3.79-17.1-10.42-17.86-17.6
	c-7.55-3.14-10.99-12.76-13.36-20.32c-5.19-16.52-3.15-32.62,5.37-47.65c-15.31,1.71-52.65-8.63-59.84-22.39
	c-0.73-1.39-0.69-2.96-0.41-4.47c-22.34-26.48-26.02-64.36-9.57-94.42c16.39-29.96,47.87-46.77,83.72-41.86
	c-10.93-23.84-3.43-49.08,18.83-62.37c14.29-8.53,33.52-12.27,50.24-9l3.66-1.91c12.51,4.47,23.86,10.58,34.04,18.34
	c-1.52-7.77-2.46-15.59-2.82-23.47l2.82-2.52l-2.23-4.17c7.24-56.59,62.66-86.27,116.09-73.07c9.44,2.33,38.95,14.39,41.08,23.39
	C718.92,559.06,718.96,559.99,718.95,560.94z"/>
<path class="st14" d="M546.39,381.34c-8.24,14.21-17.8,26.17-28.59,41.07c22.19-13.84,44.2-16.7,68.53-13.63
	c30.35,3.84,55.74,23.54,61.9,54.9c28.1-9.14,55.72-0.34,72.32,22.74c16.47,22.9,14.46,51.26-1.61,74.51
	c-24.2-24.79-61.46-31.74-94.39-22.53c-35.09,9.82-57.55,38.38-60.79,73.61c-1.78,3.37-5.51,4.98-11.19,4.82
	c-6.79,0.91-20.79,2.07-23.49-4.77c-12.54-4.84-22.77-15.28-27.34-26.3c-6.29-15.16-2.43-28.34,7.51-42.59
	c-22.72-5.79-38.77-17.63-52.52-34.21l-1.32-1.59c-0.5-0.61-0.56-2.04-1.3-2.44c-14.64-30.57-14.12-64.46,6.4-91.82
	C480.84,386.01,512.88,377.44,546.39,381.34z"/>
<path class="st14" d="M529.14,283.65c21.12,25.74,29.09,56.35,20.02,88.67c-33.59-45.74-19.8-54.05-27.86-92.59
	C523.76,280.76,527.33,281.46,529.14,283.65z"/>
<path class="st13" d="M926.54,833.33l7.12,10.18c-2.37,6.65-0.96,17.71,6.48,17.63c-1.62,2.75-4.14,4.83-6.78,6.58
	c-4.63-4.67-3.61-15.04-12.76-12.84l-4.22-9.63C919.96,841.99,922.22,835.88,926.54,833.33z"/>
<path class="st10" d="M451.1,924.06c-1.35,3.95-11.45,1.83-11.61-2.24c-7.33-1.41-13.71-5.46-21.17-8.76
	c-11.92,20.58-41.08,12.67-56.6-4.3c-8.36-9.15-11.5-24.43-9.16-39.69c-10.24,1.09-8.07,11.95-15.05,13.72
	c-4.63,0.5,9.14-19.62,14.43-21.08c12.82-3.55,24.6-15.78,20.93-29.38c4.95-0.91,8.26-0.37,10-3.09
	c15.63,18.52,40.19,25.52,65.82,23.98C431.81,875.77,435.32,902.19,451.1,924.06z"/>
<path class="st10" d="M563.77,612.02c-0.94,10.21,2.91,21.74,3.26,32.4c-13.09-9.67-25.89-19.89-40.95-22.84
	c-0.37-3.57,2.41-6.16,3.01-9.51C540.15,616.35,552.56,614.71,563.77,612.02z"/>
<path class="st4" d="M270.78,992.32c0.7-5.35,4.03-11.52,5.21-17.33c12.74-5.35,14.57-19.51,28.21-21.51
	C292.83,966.23,283.02,980.45,270.78,992.32z"/>
<path class="st4" d="M291.96,985.71c-1.83-0.01-3.66-0.05-5.48-0.26c0.83-0.54,2.33-1.85,3.01-2.58
	C290.72,983.42,291.38,984.56,291.96,985.71z"/>
<path class="st4" d="M303.81,1003.02c-6.49-1.76-3.19-12.15-10.38-16.01c4.52-0.17,6.24,4.91,10.64,6.91
	c9.74-11.99,20.96-23.73,33.68-30.92C326.25,976.1,313.74,988.72,303.81,1003.02z"/>
<path class="st3" d="M862.44,859.97c-1.13,1.8-1.69,2.7-1.69,2.7l3.06,13.5c0.9,7.29,1.28,14.09-3.75,19.99
	c2.2,2.93,1.72,6.59-1.43,10.98c-1.85,5.28-4.91,8.62-9.17,10.02c-1.86,2.86-5.66,4.62-7.09,7.93c-0.14,1.06-0.58,1.21-1.31,0.43
	c-2.82,1.83-5.06,4.53-8.37,5.4l-3.83,1.29c-15.3-2.83-42.82-3.19-56.85,3.37c-0.26,0.12,2.4,1.15,3.51,1.52
	c16.74,5.48,35.13,2.02,50.98-4.76l3.96,1.17c1.66,16.43-15.61,16.96-23.63,25.95c-7.47,8.38-22.2,22.5-31.07,27.63l-1.42-3.19
	c0.64-14.14-15.16-0.07-1.91,1.79l1.57,2.79c0.02,10.35-13.27,16.62-23.96,20.21l-45.96,15.43c-6.13,2.06-13.43,0.04-18.39,5.59
	c1.92-9.23,4.66-19.32,9.18-27.77c-0.27-2.02-0.52-4.22,0.34-6.13c10.96-24.38,38.41-47.21,60.78-60.95
	c-9.59-5.97-27.08-21.1-28.74-32.54l1.62-3.75c10.09-10.18,21.97-15.44,34.73-19.21l40.77-12.05c13.3-3.93,18.88-22.45,31.99-28.26
	C848.12,833.81,861.81,848.56,862.44,859.97z"/>
<path class="st15" d="M832.68,930.9c-1.09,0.28-1.44,2.11-2.25,2.58c-20.62,9.55-44.91,13.49-66.46,1.52
	C786.97,928.26,812.79,923.98,832.68,930.9z"/>
<path class="st9" d="M775.73,987.06c-0.5,0.29-1.76,0.67-1.76,1.39c-3.35-0.23-7.61-0.33-8.73-3.72c-1.1-3.33-0.86-7.41,3.03-9.16
	c2.84-1.28,7.14-0.1,8.61,3.49C777.82,981.32,777.37,984.43,775.73,987.06z"/>
<path class="st9" d="M720.63,888.1c4.71,2.47-0.06,10.35-2.45,13.88c-6.51,9.59-16.22,11.72-27.15,10.14
	c7.21,11.47,10.84,26.48,2.2,38.06c6.01,5.97-1.67,14.95-8.04,8.05l-8.62,2.59c8.2,11.15,5.01,19.05-8.38,17.75l3.71,16.37
	c-3.35,7.7-7.88,14.4-13.59,20.12c-5.47,1.73-7.1,2.87-3.29,7.9c3.61,3.42,5.57,13.55,3.72,17.71c-10.55,23.68-7.7,1.5-30.82,19.12
	c-3.44,4.35-1.85,8.8,4.78,13.35c1.51,4.75,1.64,9.74,0.38,14.99c-1.32-0.44-2.41,0.16-2.97,0.93c-0.95,1.34-0.72,2.57-0.72,3.78
	c1.95-0.16,2,2.38,0.02,2.8c-2.8,1.96-7.1,0.89-10.35,0.42c-5.49-0.79-4.97-1.11-7.18,3.44c-1.87,3.85-3.44,4.01,1.48,9.78
	c-4.92,0.84-8.58,0.25-9.32,3.56l-1.27,1.54c1.44,1.15,1.28,4.04,2.36,5.22c-1.47,2.31-1.43,5.03,0.12,8.15l-8.33,8.47
	c-2.27,5.12-5.37,9.03-9.31,11.71c1.1,6.71-12.56,17.51-13.09,7.93c1.52-4.53,0.53-9.89,0.89-14.54c-1.72-1.22-2.8-2.69-3.23-4.4
	c1.82-2.57,2.6-4.73,2.34-6.48c8.02-13.11,2.01-31.61,8.21-46.9c2.12-2.32,8.6-1.02,9.59-4.28c0.92-3.04,3.15-8.14-0.76-10.32
	c-0.95-0.53-2.77,0.57-3.38,0.87c-1.21,0.59-3.48,0.31-2.74-1.69l2.15-5.81c-10.96-0.25-11.79-37.29-10.95-39.94
	c1.55-4.88,6.8-5.37,10.21-10.01c2.12-2.89,3.09-10.12,7.74-12.23c3.34-1.52,11.43-5.19,11.58-9.14
	c0.46-12.35,2.76-20.14-2.59-18.73c-0.46,3.06-2.28,3.44-3.4,0.48l-2.72-0.33c-0.5,1.9-2.46,1.82-2.94-0.12
	c-0.68-1.36-3.18-0.75-3.98-1.52c-3.4,0.65-6.84-1.29-10.34-5.82c-1.41-3.63-6.57-7.58-7.89-5.81
	c-11.19,15.06-27.51,20.54-43.17,7.34c-5.01-4.22-13.56-16.19-7.24-20.97c-1.87-5.22-9.86-9.21-15.56-11.61
	c-17.37-7.11-28.07-20.94-25.71-39.95c2.06-16.59,16.18-29.09,35.91-30.32c-13.78-14.66-17.27-34.09-7.21-49.68
	c10.08-15.61,27.26-22.15,46.53-16.15c-1.44-11.36,1.02-18.98,8.15-24.42c15.97-12.19,30.17,2.44,33.44-6.53
	c0.38-1.06-15.46-21.95,4.14-39.79c27.57-25.08,30.15-0.94,45.55-6.95c3.43-1.34,10.61-0.41,11.55,3.49
	c1.05,4.36-0.52,6.72-3.23,11.88c-14.22,27.04-2.8,66.9,27.73,81.92c9.15,4.5,19.59-0.94,30.7,9.22c9.4,8.59,30.71-1.75,40.95-7.89
	c6.38,17.19,16.22,24.84,35.45,26.17c-37.17,12.16-28.49,25.93-72.25,31.27C722.22,879.06,721.13,882.75,720.63,888.1z"/>
<path class="st3" d="M605.16,1119.62c3.76,3.07,1.94,6.36,1.88,10.14c-0.09,6.07-4.17,4.23-8.02,7.89c-1.76,1.68-1.7,6.53-2.9,8.18
	c-1.84,2.53-5.18,1.71-8.22,2.76c2.47,4.58,4.95,8.61,2.07,11.19c-3.14,2.81-5.63,6.34-8.65,7.5c-3.06,4.84-0.87,11.64-2.48,16.49
	c3.46,2.07-0.71,11.45-3.98,12.24c4.28,1.86-3.84,15.94-6.18,17.94c-3.98,3.4-7.55,4.2-6.52-1.91c3.49-18.81,6.35-38.11,12.4-56.16
	c8.14,8.32,19.58-28.37,28.92-28.47c-1.61-2.06-2.73-3.66-2.79-5.98C600.62,1119.11,603.34,1119.86,605.16,1119.62z"/>
<path class="st10" d="M581.87,1211.78c-0.66,9.29-4.77,18.97-8.5,27.17c-1.3-5.66,6.99-16.56,1.63-19.9
	c-2.99-1.86-6.02-4.45-9.15-0.99c-3.68,4.07-3.46,10.74-8.96,13.23c-0.2-7.84,4.04-12.76,5.25-19.25
	c2.82,9.49,12.7-15.86,12.7-16.03c0.3-2.38,0.84-2.74,2.91-2.41C584.42,1194.67,584.4,1206.88,581.87,1211.78z"/>
<path class="st4" d="M581.87,1211.78c0.42-5.9-1.06-17-7.02-15.77c0.06-4.68,2.52-7.86,3.98-12.24c1.71-0.83,7.55-3.65,8.57-0.6
	C590.68,1192.97,586.27,1203.51,581.87,1211.78z"/>
<path class="st0" d="M927.81,1344.74c-2.97,3.65-7.01,7.82-11.64,9.59c-8.26,3.15-18.55,0.12-23.63-9.34
	C905.09,1347.33,916.21,1346.47,927.81,1344.74z"/>
<path class="st5" d="M728.84,898.55c4.49,15.95,17.25,27.4,32.72,36.6c-29.68,15.43-51.59,38.5-66.72,66.76
	c-5.92-2.26-12.27-2.52-19.51-4.24c1.65,6.61,2.49,11.18,0.01,14.86c-7.89-5.44-11.97,7.55-21.98,5.1l1.67,5.33l-6.35-5.76
	c11.33-3.16,14.48-12.71,20.72-22.67l-5.07-20.42l9.23,1.98c2.61,0.56,6.03-3.62,4.87-6.35c-1.1-2.59-2.76-4.9-5.23-9.39
	c2.22-3.62,9.21-2.96,12.5-5.56c1.31,1.22,2.54,3.22,3.42,3.41c1.64,0.36,3.34-1.06,3.71-2.6c0.28-1.18-1.04-3.65-2.04-5.62
	c8.52-13.24,5.19-28.49-6.17-41.08c10.12,0.54,17.37,2.71,25.18-2.28c5.27-3.37,10.12-10.85,10.83-18.54
	C723.53,881.97,729.36,900.43,728.84,898.55z"/>
<path class="st5" d="M627.93,1059.8c0.52,6.96,6.12,11.95,7.4,18.7c2.07-0.9-1.78-3.95,3.69-4.33c-2.35,3.47-1.66,13.42-5.93,13.97
	c-4.75-3.89-0.76-9.56-0.33-13.96c-2.26-2.9-8.41-3.42-9.05-6.85C622.72,1062.03,622.48,1061.05,627.93,1059.8z"/>
<path class="st5" d="M683.62,1002.41c1.85-2.75,4.74,5.13,3.69,6.5C685.74,1010.95,683.25,1002.96,683.62,1002.41z"/>
<path class="st4" d="M891.34,1312.18c0.81-1.73,2.29-0.39,2.78,0.16c0.6,0.67,1.04,1.98,0.58,3.47c-0.37,1.19-1.87,0.32-2.59-0.28
	C891.56,1315.06,890.51,1313.96,891.34,1312.18z"/>
<path class="st15" d="M751.32,1335.38c0.69-1.12-0.24-3.03,0.34-4.25c0.32,0.75,1.15,1.29,0.93,2.17
	C752.39,1334.1,752.58,1335.85,751.32,1335.38z"/>
<path class="st4" d="M977.69,930.86c-2.36-2.8-4.45-6.01-4-9.79c1.67,1.66,6.94,0.43,7.47,3.97
	C981.51,927.41,980.26,930.09,977.69,930.86z"/>
<path class="st13" d="M901.32,856.94c3.29,2.19,3.09,6.93,4.89,9.95c-4.15,7.26-3.69,15.12-0.29,20.99
	c-10.83,2.82-14.08,13.48-15.45,20.57c-9.18-3.94-10.85,8.58-18.72,8.61l-22.3,0.09c4.25-6.53,8.68-13.35,10.61-21
	c4.11-7.01,8.54-13.85,13.29-20.53l4.94-12.22l3.2-1.92C888.01,860.95,894.98,858.46,901.32,856.94z"/>
<path class="st12" d="M372.34,1016.54c-22.25,35.4-33.13,30.35-49.27,70.41c-6.02,14.95-13.55,28.43-12.71,45.57l-85.69,124.67
	l-97.36,122.46c-1.69,0.13-3.67-0.91-5.35-0.53c-3.63,0.79-5.23,0-4.31-3.74c0.12-2.2,1.7-3.5,2.92-5.04
	c11.48-14.44,25.43-27.09,34.64-42.86c0.68-3.59,2.95-6.71,6.79-9.37c1-2.98,2.35-5.23,4.05-6.75c4.42,0.61,7.19-2.47,10.19-6.17
	c29.44-36.32,58.54-72.42,84.83-110.45c14.01-20.26,32.73-39.37,42.11-64.11c8.69-22.92,11.6-50.86,29.26-71.36
	c13.07-15.18,26.74-29.34,38.09-45.52C374.09,1013.07,374.44,1013.61,372.34,1016.54z"/>
<path class="st5" d="M521.95,945.53c-0.12,11.89,8.66,21.6,19.81,24.54c11.98,3.16,23.59-2.38,29.13-13.52
	c3.26,0.33,5.58,0.27,8.31-1.81c-0.54,8.51,6.98,10.9,11.37,16.06c-0.32,2.33-3.79,2.06-4.75,3.92c-0.75,1.45,3.57,5.1,0.57,7.05
	c-2.22,1.44-5.92-1.64-7.7-1.18c-1.67,0.43-6.37,16.33-6.38,5.98c0-1.69,0.94-2.7,0.66-6.2c-34.46,2.12-17.56,22.31-33.14,8.09
	c-3.8,4.07-2.11,8.4-7.23,11.47c-0.66-3.76-2.82-6.05-3.77-7.77c-2.53-4.62-5.9-0.07-9.11-1.15c-9.68-3.28-18.12-9.27-26.88-13.5
	c-6.6-1.97-1.93-12.71,1.41-16.92l-6.12-9.89c0,0,0.62-1.12,1.85-3.37C500.68,949.56,511.46,947.97,521.95,945.53z"/>
<path class="st12" d="M451.1,924.06c11.18,10.69,23.53,20.08,38.88,23.27c0.65,5.31,5.93,8.21,7.21,13.81
	c-4.42,5.11-5.75,10.79-4.35,16.37c-19.8,4.3-33.41-6.43-43.24-23.71c-5.88-10.32-15.12-20.02-10.12-31.98L451.1,924.06z"/>
<path class="st7" d="M341.65,1026.14c1.51,5.36-2.19,10.09-7.78,9.22c-4.69,12.52-14.54,22.19-24.62,30.62l-9.09,8.09
	c-7.18,1.46-6.47-4.46-7.21-9.94c-0.7-5.14,2.06-8.28,4.48-12.76c9.36-7.19,19.59-13.43,28.73-21.87
	C330.44,1025.54,338.61,1023.38,341.65,1026.14z"/>
<path class="st15" d="M574.55,1130.47c8.84-0.29-3.19,5.84,0.88,10.88c-3.2-1.48-5.84-4.92-10.29-4.45l-13.23,42.57
	c1.77,1.37,3.78,1.63,4.73,1.81c1.96,0.37,2.88,3.06,1.03,4.14c-1.56,0.91-4.23,0.78-6.25,0.85l-11.38,17.37l14.4-55.69
	c-0.7-5.09,4.08-17.78,9.01-12.49C567.56,1135.19,570.57,1132.4,574.55,1130.47z"/>
<path class="st4" d="M538.2,1127.82l1.33,3.41l-6.56,17.77c-1.12,4.58-3.34,6.89-6.69,6.93c-0.15-3.05,1.62-8.07-1.59-9.93
	c-2.81-1.63-7.2-0.56-10.39-0.89c3.73-10.32,8.59-20.53,15.78-29.57c2.87,0.33,6.02,0.72,6.51,4.26
	C536.88,1121.91,535.41,1125.46,538.2,1127.82z"/>
<path class="st15" d="M491.82,1032.72c-2.39-0.39-6,0.5-7.92-2.17c-1.16-1.61-2.7-4.02-2.52-7.27c-2.21,0.11-4.41,0.31-6.19,1.15
	c5.47-8.97,23.69-12.62,33.03-9.35C511.95,1025.98,499.42,1029.73,491.82,1032.72z"/>
<path class="st12" d="M548.05,1120.71c-6.74,16.26-12.02,33.48-18.84,49.94c-4.32,2.99-3.89-3.88-1.32-5.47
	c0.22-0.14-0.79,4.58-3.01,1c1.08-2.77-0.48-7.46,1.41-10.24c5.96-8.75,7.21-18.94,11.92-28.12L548.05,1120.71z"/>
<path class="st15" d="M514.28,1031.27c2.99-1.11,4.92,0.27,5.78,4.13l14.69-3.52l2.41,2.18c-0.44,2.71-1.19,3.53-2.97,5.41
	c-6.87-3.06-13.68,0.85-20.21,5.4c-5.32,0.39-7.92-5.39-13.26-5.58c-0.16,4.67,3.53,9.66-1.2,11.49c-5.14-2.61-2.81-8.02-5.68-11.01
	C500.03,1035.51,507.24,1033.59,514.28,1031.27z"/>
<path class="st4" d="M309.26,1065.99c9.66-8.6,17.65-20.7,22.86-33c2.2-0.76,5.95,0.24,7.63-1.33c1.27-1.18,2.01-3.36,1.91-5.51
	C349.67,1033.44,315.02,1062.59,309.26,1065.99z"/>
<path class="st9" d="M385.96,1032.7c-2.82,6.95-7.12,10.86-12.2,16.19c-2.56-0.36-5.99-0.37-6.84-3.57
	c-0.64-2.42,1.45-4.81,2.73-7.15c0.25-1.46,1.51-2.34,2.8-1.59l1.12-0.12c0.79-0.47,0.84-0.93,0.16-1.4
	c0.09-0.74,0.19-1.49,0.15-2.24c1.75-2.78,3.58-3.8,5.5-3.07c0.6-0.24,1.83,0.2,2.49-0.3c0.66-0.5,0.8-1.41,0.75-2.2
	C387.57,1023.24,387.35,1028.4,385.96,1032.7z"/>
<path class="st4" d="M563.45,1135.46c-3.86,0.25-7.96,8.44-9.01,12.49c-3.67-7.22,3.26-12.98,4.69-20.81l1.54-8.37
	c0.48-2.63-2.4-4.22-5.23-3.32c-1.8,0.58-3.54,2.99-6.56,3.23c0.37-5.55,13.84-8.68,16.77-4.27
	C565.62,1121.29,561.79,1128.97,563.45,1135.46z"/>
<path class="st15" d="M391.22,1012.37c0.44,7.84-2.52,13.58-5.27,20.33c0.52-3.29-0.79-4.59-3.33-5.43
	c-4.15-2.53-4.12-8.75-9.1-10.56c-1.4-3.87,0.38-5.68,4.3-4.39c1.19-2.36,3.89-2.42,8.1-0.19L391.22,1012.37z"/>
<path class="st9" d="M537.16,1034.06l-18.66,4.47c-1.87-2.66-1.4-5.67-4.23-7.25c4.33-1.43,8.07-4.72,12.81-4.51
	C532.93,1027.02,538.31,1026.99,537.16,1034.06z"/>
<path class="st9" d="M391.22,1012.37c-3.19,5.21-8.4,1.03-13.4-0.05c-1.2-0.21-2.31-0.84-2.51-2.09
	c-0.32-1.97,5.86-11.94,7.85-13.78C390.64,999.06,390.75,1003.99,391.22,1012.37z"/>
<path class="st1" d="M383.17,996.45c1.65,6.47-5.56,9.68-5.34,15.87c-1.36,1.55-3.12,2.7-4.3,4.39c-0.37-0.13-0.82-0.07-1.2-0.18
	c-0.67-0.89-1.25-1.84-1.79-2.81C374.23,1005.95,372.83,992.84,383.17,996.45z"/>
<path class="st5" d="M603.6,972.28c-0.46,1.72,0.22,3.17-0.4,3.99c-0.73,0.95-4,2.46-4.72,1.5c-0.74-0.98,3.06-4.05,1.72-5.01
	C601.32,972.9,602.51,972.57,603.6,972.28z"/>
<path class="st4" d="M162.94,1306.08c-0.14,1.98,2.56,3.68,3.12,5.27c2.09,8.11-6.69,12.39-10.84,16.12l-2.25-17.56
	c-0.87-3.18-0.75-3.31,2.48-2.56C158,1307.33,160.48,1306.73,162.94,1306.08z"/>
<path class="st0" d="M132.12,1340.33c-4.02,7.28-11.39,10.21-18.56,10.11c-6.86-0.1-13.64-4.05-17.83-10.66
	C107.65,1341.35,118.85,1341.29,132.12,1340.33z"/>
<path class="st14" d="M155.45,1307.35c-0.4,1.2-1.23,2.22-2.48,2.56c-3.44-0.73-6.73,0.31-11.15,0.35c0.96-7.7,3.18-15.38,6.81-21.9
	C155.99,1289.85,156.04,1299.58,155.45,1307.35z"/>
<path class="st10" d="M565.35,1319.43l1.6,32.7c-2.32,4.82-10.28,8.18-9.76,14.63c-17.17,0.46-4.7,20.8-17.19,22.24
	c-1.45-3.3-3.65-6.53-0.5-9.81c16.66-24.41,17.63-18.75,13.58-33.07c-1.58-5.58,3.26-9.79-5.57-10.73c-3.74-0.4-4.75,0.58-9.14,1.65
	c-4.96-9.88,13.02-1.19,18.88-26.81C561.18,1312.37,562.38,1317.22,565.35,1319.43z"/>
<path class="st0" d="M745.86,1375.87c-3.17,5.85-9.76,9.44-16.55,9.03c-5.49-0.33-12.94-3.08-14.9-9.75
	C725.27,1376.82,734.27,1376.8,745.86,1375.87z"/>
<path class="st8" d="M694,1364.57c0.01-3.93-1.32-9.38-1.59-13.17c2.15-1.96,3.12-4.43,7.23-5.31c2.26-0.49,4.36-1.81,5.81,1.66
	c3.76-6.73,7.37,0.5,8.08,3.16C714.9,1356.08,697.96,1369.71,694,1364.57z"/>
<path class="st3" d="M529.2,1170.64c-3.77,8.15-4.5,17.15-9.82,26.32c-0.29-11.21,1.22-21.87,5.49-30.79
	c1.19,0.28,2.06-1.58,3.54-2.06C530.64,1163.4,526.79,1169.29,529.2,1170.64z"/>
<path class="st10" d="M549.48,1348.96c0.82-0.98,2.3-0.15,2.3,0.41c0,0.88,0.14,1.81-0.01,2.63c-0.14,0.74-1.47,1.08-2.01,0.67
	C548.79,1351.95,548.64,1349.97,549.48,1348.96z"/>
<path class="st0" d="M555.26,1381.13c12.46,0.72,23.16,1.14,35.37-1c-2.37,6.83-9.63,10.43-15.56,11.06
	C567.13,1392.03,559.79,1388.87,555.26,1381.13z"/>
<path class="st9" d="M361.71,1123.96c-2.03,2.28-2.67,6.22-2.43,8.44c1.59,14.96,15.72-5.76,25.1-3.38
	c6.93,2.41,12.94,15.08,3.78,17.57c-4.09,5.53-10.76,6.96-16.74,10.24c-2.34-0.25-4.84-1.4-7.52-3.47c0.56-3.64-1.51-4.06-6.23-1.27
	c4.77,6.1-9.61,10.27-13.85,7.76c-5.69-4.59-14.36-6.16-20.66-3.13c-6.72-19.29,8.29-31.09,22.19-40.11
	c2.59-1.49,4.37-1.31,5.35,0.55C353.9,1107.47,364.18,1118.09,361.71,1123.96z"/>
<path class="st15" d="M313.29,1331.3c-3.69,7.9,0.81,22.15-13.79,23.77c4.6,7.68-2.07,8.84-4.61,12.26
	c-1.38-0.8-4.32-0.98-4.05-3.22c0.25-2.09,4.94-2.27,5.86-4.3c2.96-6.52-5.88-7.41-12.31-8.29c2.42-11.27,4.56-24.3-6.15-29.14
	l17.71-22.01c5.53-5.2,10.02,3.68,11.26,9.54c-1.37,9.84,0.36,16.04,5.2,18.62L313.29,1331.3z"/>
<path class="st10" d="M309.01,1268.32c9.53,4.22,13.58,15.49,14.88,25.5c-17.93,7.26,5.2,3.65-10.6,37.48
	c-16.99-1.02,0.29-27.04-17.34-30.94C290.88,1288.33,304.43,1278.52,309.01,1268.32z"/>
<path class="st7" d="M240.27,1410.72c-2.65,2.53-1.49,8.35-4.13,9.61c-2.46,1.16-7,0.24-10.38-1.36l21.92-37.05
	c8.96,4.76,4.06,9.94,3.74,16.77C251.16,1403.88,245.74,1405.49,240.27,1410.72z"/>
<path class="st15" d="M371.42,1156.83c-6.57,3.61-6.31,11.49-15.13,12.06c-4.77,0.31-12.29-3.6-12.47-9.04
	c4.07-2.21,8.2-3.31,13.49-4.22c-3.55-3.74-6.11-7.26-11.28-5.83c4.73-5.06,8.42-9.38,12.95-6.03c-1.86,1.56-3.55,1.7-5,2.3
	c-2.17,0.89-1.08,3.77,0.24,3.7c2.62-0.13,4.4-0.64,6.33-1.61l3.77-1.9c1.07-0.54,3.27-1.52,3.38,0.82
	c0.07,1.38-2.24,3.29-1.54,5.08c0.55,1.43,3.04,1.24,3.86,1.65C371.04,1154.32,373.06,1155.42,371.42,1156.83z"/>
<path class="st15" d="M361.71,1123.96l-6.8-9.31c-2.88,2.7,0.11,6.02-2.57,9.54c-2.77-3.4-3.63-6.8-6.99-7.59
	c8.38-5.44,16.16-14.24,24.97-20.16C370.45,1106.34,367.42,1117.54,361.71,1123.96z"/>
<path class="st15" d="M412.72,1125.27c2.33,0.41,3.65,5.27,2.3,7.19c-5.74-0.93-6.65-3.07-10.13,1.84
	c-2.59,3.66-8.75,4.8-3.58,10.67c-4.41,1.67-8.6,1.18-13.16,1.62c4.96-6.7-0.53-10.68-3.78-17.57
	C392.88,1131.18,404.13,1127.81,412.72,1125.27z"/>
<path class="st15" d="M296.21,1445.96c0.98-0.92,0.64-6.43-1.23-6.16c-2.56,0.38-6.67,4.05-5.76-2.78
	c4.31-2.88,9.14-6.77,13.76-8.98l5.63,15.59C304.31,1443.62,300.83,1446.38,296.21,1445.96z"/>
<path class="st0" d="M281.12,1359.68c-1.87,4.79-7.1,7.46-11.62,8.42c-4.93,1.05-12.82,1.63-13.46-5.3
	C263.12,1357.32,271.78,1360.58,281.12,1359.68z"/>
<path class="st1" d="M415.02,1132.46c-0.29-2.15-1.46-4.54-2.3-7.19c-2.31-15.27-8.6-30.06-6.98-45.77
	c5.5,21.33,6.01,41.6,15.49,61.32C416.04,1140.44,418.51,1134.76,415.02,1132.46z"/>
<path class="st15" d="M379.39,1029.78c-1.46,1.43-3.36,2.86-5.5,3.07c-0.09-1.8,1.25-3.14,2.48-4.88
	C377.55,1026.3,379.74,1027.33,379.39,1029.78z"/>
<path class="st11" d="M117.66,1375.38c1.73,0.46,3.1,2.59,4.31,3.74c-9,2.04-13.44,13.24-19.04,20.64l-11.94-2.18
	C100.35,1387.21,107.69,1372.71,117.66,1375.38z"/>
<path class="st15" d="M320.63,1454.2c4.32,4.33-1.34,9.79-1.7,14.94c-0.45,6.38,5.53,15.52-4.44,16.74
	c-1.35-6.85-3.96-14.31-10.35-15.08c8.24-3.55,7.99-37.57,16.5-21.76C321.39,1450.42,318,1451.58,320.63,1454.2z"/>
<path class="st15" d="M303.21,1474.73c-0.65,2.73-0.08,5.96-1.51,8.69c-1.43,2.72-6.08,0.27-7.82,1.94
	c-1.38,1.32-1.19,4.86-3.13,6.08c-2.57,1.62-4.21-0.2-4.09-2.35c0.08-1.47,3.3-5.44,2.51-6.92c-1.25-2.3-7.54-1.73-6.71-6.3
	C289.52,1478.92,296.06,1476.41,303.21,1474.73z"/>
<path class="st10" d="M403.17,1265.67c1.67,16.32-4.28,14.63-1.64,40.98c-7.11,1.28-12,7.59-12.2,14.65
	c-5.72,2.73-9.22,6.85-9.06,13.94c-1.49-0.5-1.63-2.33-3.02-2.19c-1.41,0.14-2.47,1.52-3.64,2.13c-2.31-3.4-2.27-7.51-5.14-10.54
	c-3.84-0.21-3.57-3.35,0.12-4.21c1.34-2.59,4.01-1.83,8.02,2.29c0.83-0.49,10.62-14.89,10.82-15.83c0.75-3.48-2.9-14.74-4.25-18.69
	c0,0,0.39-1.66,1.16-4.97c7.47,0.41,11.11-1.74,10.94-6.48c-1.41-3.7-1.11-6.49,0.91-8.37
	C398.18,1266.78,400.95,1266.72,403.17,1265.67z"/>
<path class="st4" d="M363.09,1297.92c1,2.49,3.41,4.61,3.76,7.63c4.32,0.49,5.59,13.07,1.73,14.89l-0.12,4.21
	c-6.76,2.38-9.35-6.21-10.21-10.8C356.89,1306.57,356.25,1298.84,363.09,1297.92z"/>
<path class="st15" d="M440.5,1284.29c0.29,1.79-0.09,3.48-1.14,5.07c-0.29,9.71-3.72,15-10.28,15.88l1.32,13.21l9.74-3l2.52,2.45
	c-0.11,2.74,0.3,5.49,0.56,8.21c-4.68,7.88-8.01,17.02-13.94,24.26c-4.47,2.92-7.77,8.11-14.17,6.19c0.65-3.13,2.64-4.81,7.81-5.58
	c-3.48-6.33,1.54-12.29-1.28-18.35c-2.7,0.36-3.12-0.72-0.88-2.25c0.49-5.3-6.78-6.16-8.06-12.95c1.89-2.93,4.92,1.35,4.67-0.83
	l-1.26-10.77c-1.32-11.25,8.53-22.2,3.03-33.38c-0.54-7.85,9.53-5.9,15.75-4.08C440.63,1270.06,438.17,1278.89,440.5,1284.29z"/>
<path class="st0" d="M420.76,1330.39c0.14,0.6,0.6,1.67,0.88,2.25c-4.83,4.27-9.82,8.07-16.52,7.64
	c-6.14-0.39-12.36-3.53-15.12-9.73C400.94,1331.08,410.92,1332.22,420.76,1330.39z"/>
<path class="st7" d="M396.18,1268.4c1.05,4.55,3.29,10.24,0.31,14.07c-2.9,3.71-8.49,2.09-14.33,4.12
	c5.58-6.36,8.01,23.41,8.32,21.95c0.88-4.27-12.8,17.67-13.02,17.72c-2.75,0.62-5.41-5.16-8.87-5.82l-1.73-14.89
	c3.11-13.31,6.78-26.49,12.35-39.69c6.2-0.9,11.29-1.04,16.86-3.62c-2.62,2.83-3.55,3.21-4.24,4.47c-0.63,1.17,0.14,1.52,1.26,1.55
	C394.2,1268.3,395.09,1268.46,396.18,1268.4z"/>
<path class="st9" d="M440.5,1284.29c2.89,6.71,4.35,14,3.54,21.4c-0.45,4.06-1.2,8.11-1.37,12.21c-4.89-0.19-8.23,4.3-14.82,2.99
	l-1.9-20.54C439.12,1309.67,432.62,1285.79,440.5,1284.29z"/>
<path class="st12" d="M862.44,859.97c4.69,2.76,13.22,1.99,19.05,1.51c-2.63,12.99-11.38,26.34-21.43,34.67
	c2.84-11.29,1.63-23.58-2.75-34.37C858.49,860.29,861.38,859.48,862.44,859.97z"/>
<g>
</g>
<g>
</g>
<g>
</g>
<g>
</g>
<g>
</g>
<g>
</g>
<g>
</g>
<g>
</g>
<g>
</g>
<g>
</g>
<g>
</g>
<g>
</g>
<g>
</g>
<g>
</g>
<g>
</g>
</svg>
