<?xml version='1.0' encoding='UTF-8'?>
<svg xmlns="http://www.w3.org/2000/svg" version="1.1" id="Layer_1" x="0px" y="0px" viewBox="0 0 1200 1800" style="enable-background:new 0 0 1200 1800;" xml:space="preserve">
<style type="text/css">
	.st0{fill:#FEE89E;}
	.st1{fill:#FEFBF2;}
	.st3{fill:#255636;}
	.st6{fill:#B8C09A;}
	.st7{fill:#7FA38F;}
	.st8{fill:#87A427;}
	.st9{fill:#BFBC2F;}
	.st12{fill:#FDB220;}
	.st13{fill:#E62936;}
	.st14{fill:#216D91;}
</style>
<path class="st0" d="M1200,724.95v152.46l-3.55,1.77c-35.43,6.81-69.81,15.16-103.15,25.07c-15.93,4.19-32.52,5.24-48.69,2.86  c-17.66-4.24-35.3-5.24-52.94-3.02c-66.39,10.65-126.74,26.5-189.8,43.83c-33.22,12.51-65.92,25.84-98.11,39.99  c-14.17,4.54-21.25,6.81-21.25,6.81c-48.25-15.04-97.41-26.75-147.2-34.97c-34.83-5.75-69.53-3.8-103.85,1.62  c-10.77,0.67-21.59-0.35-32.44-3.07l-1.69-2.21c-2.51-1-1.47-2.44,0.73-3.46c24.34-8.19,49.4-14.21,75.19-18.07  c-12.98-2.31-26.05-4.26-39.21-5.87c-32.17-7.26-64.51-11.17-97.02-11.73l-46.1,4.39l-4.7-0.61c-1.58,2.31-3.4,2.09-3.01-0.92  l-0.96-0.89l-1.5,1.76c-20.99-9.81-42.39-19.11-64.2-27.92c-10.75-3.11-21.44-6.16-32.08-9.15c-11.37,0.63-22.58,4.13-33.63,10.49  c-7.53,4.46-15.09,7.93-22.7,10.41c-13.48-4.46-27.18-8.87-41.09-13.21c-29.1-10.35-56.87-4.8-85.36,1.46c0,0-0.56-0.63-1.68-1.9  V762.24l0.88-1.91c35.86,0.71,71.97,0.42,108.33-0.86c21.58,1.32,43.01,4,64.3,8.04c5.73-2.8,11.76-4.39,18.11-4.77  c32.09-1.05,64.23-1.38,96.43-1c4.25,0.25,7.79,1.68,10.63,4.29l2.19-0.12c3.28,6.03,7.06,11.47,11.33,16.33  c4.7,0.88,6.35,3.03,4.93,6.43c-1.05,5.76-4.15,17.47-11.09,15.75c0.18,1.52-0.36,2.49-1.63,2.91l1.9,1.49c0,0,0.17,10.14,0.5,30.41  l-0.88,0.44c15.46,0.16,30.92-0.06,46.38-0.64c0.71-10.02,1.01-20.17,0.89-30.46l1.93-1.11c-1.53-0.05-2.2-1.25-2.03-3.6  c-5.52,1.21-8.53-2.08-9.03-9.89c-2.74-8.45-1.38-12.06,4.09-10.81c3.98-2.68,7.15-6.51,9.5-11.51l1.34,0.14  c2.21-1.41,3.38-3.51,3.9-6.01c-2-0.55-1.11-2.41,0.89-1.59l3.84-6.48c14.39,2.05,29.2,2.68,44.42,1.9  c37.92,1.87,75.81,2.66,113.65,2.37l9.02-2.61c43.76-28.94,98.58-35.89,149.23-22.88c16.03,6.59,32.33,12.04,48.91,16.34  c16.7-0.14,33.36-0.84,50-2.11l1.23,1.85l2.12,2.21c1.01,9.08,3.7,18.04,8.84,25.64l-0.19,2.97l1.83,1.06  c6.71,13.76,16.92,25.74,26.9,37.36c9.67,9.75,18.44,20.25,26.28,31.53l-0.29,2.82c0.44-0.21,0.88-0.37,1.31-0.37  c1.24,0,5.24,8.32,5.5,10.21c2.88,1.69,0.8,5.27-2.03,5.6c0.45,3.22,0.66,6.56,0.62,10.01c4.49,0.23,8.88,0.4,13.17,0.52  c0.28-3.71-0.24-7.18-1.54-10.4c-0.81-0.27-0.77-0.56,0.06-0.88c-0.88-2.25-0.71-3.56,0.51-3.95c-0.8-2.22-0.53-3.1,0.8-2.65  c1.12-2.72,2.36-5.54,3.71-8.48l2.79-0.58l-0.47-2.23c2.33-4.64,5.43-8.01,9.28-10.12l-0.75-1.96  c26.43-25.93,59.77-59.44,56.95-99.67l1.51-3.1l4.26-1.77l17.05-0.3c78.35-5.2,156.88-9.43,235.59-12.67L1200,724.95z" />
<path class="st1" d="M733.46,258.21l1,3.43c-10.01,41.73,14.81,79.32,41.13,109.78c15.03,15.98,29.44,31.96,43.21,47.94l-0.57,2.27  l3,0.84l4.58,8.62c1.98,2.02,2.9,3.93,2.75,5.73c2.58,0.05,2.49,0.95,0.25,2.15c1.13,0.38,1.29,1.78,0.48,4.2  c-2.1,3.68-2.62,8.18-1.55,13.53c5.93,1.2,12.12,1.59,18.58,1.16c-0.23-3.42-0.21-7.1,0.06-11.03c-2.5-3.64-3.43-6.93-2.8-9.86  c-0.06-0.88,0.5-1.17,1.29-0.99c0.02-1.87,0.91-1.9,1.76-0.18l1-1.05c-0.34-0.36-0.66-0.74-0.89-1.16  c-0.51-0.89,4.4-9.26,5.53-10.68l2.22-0.53l0.08-2.33c3.88-3.79,7.21-8.15,9.98-13.09c0.87-0.73,2.21-1.09,3.32-0.98l0.58-3.35  c9.57-9.03,18.64-18.52,27.19-28.47l2.92-0.64l1.94-2.05l0.72-3.94c17.56-21.76,34.41-45.85,38.19-74.21l2.29-3.34  c1.03-3.82,0.65-7.8,0.03-11.65c-3.26,0.51-3.54-7.57-0.95-8.44c0.54-0.4,0.5-0.76-0.1-1.08c-3.33,1.19-3.84-4.85-0.85-5.75  c-1.12-6.51,2.18-6.89,7.21-4.13c7.3,0.73,14.73,0.45,22.29-0.83l7.32,1.86c25.78-0.34,51.6,0.11,77.47,1.33  c18.69-1.05,37.37-1.94,56.05-2.67c26.24,0.35,52.19,0.46,77.87,0.32c3.55-0.3,7.12-0.17,10.69,0.38l1.27,1.82v312.64  c-1.37,0.53-2.76,1.02-4.18,1.37c-1.4,0.34-2.8,0.65-4.2,0.69c-18.91,0.59-40.97,0.32-59.5-0.83l-1.33-1.95l-2.28-1.07  c-4.8-13.29-18.65-21.92-32.24-23.8l-2.88-2.05c0.39,2.88-5.18,2.8-5.71,0.07c-1.54,1.78-3.35,3.09-4.75,0.77  c-12.5,5.11-24.87,10.57-30.14,24.03l-2.49,1.15l-1.46,1.9c-134.67-1.55-269.68-11.89-404.36-24.49  c-34.29-2.49-68.46-4.94-102.51-7.33l-1.41-1.79c-2.49-1.74-1.28-4.98,1.83-3.79l1.01-2.01c-0.87-0.21-0.83-0.53,0.03-0.96l0.98-0.9  c0.7-3.92,1.05-5.88,1.05-5.88c28.97-50.22,43.85-106.83,28.62-163.87c-11.05-41.38-36.31-78.87-70.9-104.08l-2.87-4.35  c1.26-5.45,9.83-3,9.14,3.28c3.12,2.31,6.93,2.53,11.43,0.65l5.77,1.24c17.8-1.6,35.73-1.48,53.79,0.35l24.38-3.51  c9.89,1.98,19.85,2.71,29.89,2.19c6.63,1.69,12.01,0.87,18.55-0.22c12.17,0.1,24.48,0.21,36.52,1.23  c11.08-0.46,22.15-0.79,33.21-0.99C727.07,256.79,730.57,256.58,733.46,258.21z" />
<path class="st3" d="M541.54,1272.69c1.45-0.87,4.02-2.04,5.91-2.66c7.11-2.35,14.4-4.67,21.64-6.65  c9.38-0.68,16.76,5.54,18.95,14.53c7.77-18.02,27.91-15.28,32.03,3.22c4.74,0.87,10.26,6.32,5.85,9.95c0.38,0.71,0.3,1.33-0.01,2.03  c-0.62,1.41-26.09,7.52-29.65,7.84l-1.32,2.11l-26.72,7.77l-1.83-1.47l-0.96,0.78l-1.36,1.89l-47,11.42l-1.57-1.59l-0.96,0.71  c-0.65,2.52-2.85,2.62-3.84,0.25l-0.96,0.8c-1.5,2.62-8.75,3.88-11.22,2.14l-0.48,2.05c-32.02,6.32-64.04,11.56-96.63,15.73  c5.72,4.21,11.65,8.06,17.79,11.55c13.2,2.28,26.47,4.17,39.8,5.67c8.73,1.8,20.76,5.31,27.94,10.26c3.57,7.01,8.53,12.84,14.9,17.5  c3.68-3.86,7.66-6.84,11.92-8.92l5.08-0.01c6.39,3.58,12.71,4.67,18.95,3.27c13.69-8.91,29.25-7.15,35.41,9.33  c3.29-5.48,7.96-9.75,14.01-12.83l6.88-8.46c17.4-17.88,37.85-15.26,44.24,9.69c5.27-2.49,10.62-4.84,16.08-6.89  c68.52-25.82,136.54-52.4,202.74-82.73l2.07,1.18c1.87-2.6,4.98-4.3,9.34-5.08c29.63-14.02,61.64-23.99,93.13-33.72  c50.22-15.51,99.09-28.26,151.71-35.33c24.81-3.33,53.66-7.06,78.52-6.25c2.78,0.09,5.46,0.9,8.05,1.85v171.82l-0.87,1.93  c-26.4-0.08-52.92,0.41-79.54,1.48c-4.96,1.3-9.58,1.38-13.86,0.24c-5.55,1.34-11.37,1.69-17.45,1.06  c-66.42,2.66-133.48,12.45-199.79,22.22c-4.61,0.68-9.28,0.7-13.93,0.58c-2.34,1.21-4.74,2.41-7.36,2.88  c-45.84,8.27-90.76,16.45-135.78,25.48c4.86,3.75,7.87,8.16,9.05,13.21c-1.92,2.51-1.62,3.85,0.93,3.99  c49.32,2.85,97.88,4.58,145.68,5.16l37.27,1.42c6.98,1.37,10.27,5.55,12.93,11.85c5.64,3.17,12.14,5.04,19.5,5.62  c5.65,0.28,12.39,0.91,15.17,6.38l0.25,8.3c72.83-18.44,150.83-35.95,226.34-34.98l1.46,1.88v153.78l-1.41,1.58  c-39.04-11.65-78.07-23.51-117.1-35.56l-0.61-1.96l-1.22,1.63c-69.07-22.13-137.87-43.74-206.41-64.84l-0.53-2.17l-2.01-1.02  c-0.52,2.56-1.28,2.46-1.92-0.04l-0.96-0.76c-0.22,0.72-0.77,1.77-1.22,1.63c-116.65-35.53-232.14-73.61-346.73-111.65l-0.49-2.19  c-2.26-1.25-4.86-2.2-7.81-2.86l-1.23,1.62c-97.27-31.71-145.91-47.56-145.91-47.56l-0.53-2.19c-1.51-0.82-3.16-1.44-4.94-1.86  c-3.15,2.53-11.88-0.98-13.38-4.52l0.19-2.02c-7.68-7.23-16.38-13.23-26.12-17.99l-0.88-2.33l-14.67-6.8  c-93.31-51.7-194.41-89.04-298.73-111.75L0,1201.92v-19.2l1.1-2.04c51.43,8.25,102.48,19.25,153.17,33.02  c84.01,22.88,167.85,45.79,251.51,68.76c13.3-0.83,26.65-0.98,30.98,14.73c2.16-10.47,15.87-5.83,23.12-3.05  c1.86,0.71,3.68,1.61,5.42,2.63c2.88-9.99,9.68-21.31,21.76-16.78c5.45,4.18,11.14,7.24,17.07,9.2c2.05-3.91,4.9-5.89,8.66-8.13  c5.63-8.63,16.09-15.21,25.8-8.58C538.59,1272.48,539.57,1272.55,541.54,1272.69z" />
<path class="st1" d="M1200,128.56v132.58c-2.53,0.28-5.13,0.13-7.86-0.99c2.66,1.08-26.08,1.26-31.31,0.55  c-4.33-0.59-7.57-0.34-11.87-0.01c-12.32,0.96-24.77,0.78-37.09-0.12c-2.94-0.22-4.81,0.43-7.57,0.69  c-6.85,0.65-13.76-0.74-20.83,0.52c-6.49,1.16-13.16-0.42-19.84,0.35c-3.19,0.37-6.18,1.11-9.5,1.08l-21.13-0.22  c-4.15-0.04-8.27-0.63-12.53-0.84l-14.16-0.69c-3.94-0.19-6.99,0.05-10.61,0.04l-11.57-0.01c-4.65-0.01-8.52,1.46-13.07-1.16  c-2.96-1.7-22.04,4.54-28.4-1.62c-2.23,1.09-1.31,3.39-2.84,4.35l-2.4-0.28c-11.16-38.66-47.35-61.37-86.41-65.21l-10.06-2.74  c-0.55,2.74-1.76,2.57-2.78,0.03c-1.72,2.22-8.23,3.12-9.71,0.16c-2.11,1.82-6.31,3.97-7.64,0.69c-8.02,2.62-16.15,4.38-24.39,5.26  c-26.06,9.31-50.26,28.41-60.14,54.91l-2.83,2.35c-1.94,1.4-5.08,0.33-7.12,1.53c-4.98,2.93-22.93,0.31-34.08,1.82  c-3.79,0.51-5.48-0.24-9.13-0.86c-3.35-0.58-8.11,0.72-12.06,0.55l-17.29-0.74c-4.27-0.18-9.15,2.3-13.69,1.02  c-7.34-2.07-14.43,0.57-21.63-0.85l-8.8-1.74c-10.91-2.15-22.17,5.06-37.87,2.66c-9.07-1.39-17.87-0.65-26.92-0.94  c-16.38-0.54-15.65,2.79-24.04-0.26c-4.29,1.36-9.37,2.61-12.96-1.46c-0.96-1.08,0.09-4.02-1.61-4.87  c-2.05-1.03-4.16,0.17-5.96,0.53l-5.09-1.05c-34.97-21.5-75.95-32.14-115.93-36.1c-3.31-0.58-6.49-1.36-9.54-2.33l-1.69,1.91  c-5.48-0.59-10.95-0.86-16.41-0.79l-2.96-1.35l-2.41,1.42c-7.47-0.8-14.96-0.81-22.49-0.01l-2.12-1.89  c-2.58,1.96-6.04,2.6-10.39,1.9c-4.29,0.75-7.22,0.11-8.81-1.93c-6.72,2.47-13.93,3.6-21.62,3.38l-1.49-1.82  c-10.58,2.34-21.24,4.27-31.99,5.81l-4.39-0.95l-0.87,1.01c-32.79,8.65-66.07,21.56-93.01,44.26l-5.09,1.67  c-2.44,0.37-3.12-0.99-2.03-4.09c-21.69-0.54-43.49-0.63-65.4-0.27c-15.05,1.41-30.16,1.53-45.32,0.37  c-10.53,1.91-20.12,1.28-30.47,0.53L0,262.08V128.64L1200,128.56z" />
<path class="st0" d="M1050.3,572.15l1.27,2.4c-4.83,21.39,10.67,40.12,24.79,54.55l0.76,3.55c2.75,1.81,5.02,4.44,6.8,7.87  c3.03,0.77,6.01,0.97,8.94,0.62c2.45-3.39,5.2-6.21,8.27-8.47c2.92-5.06,6.6-9.82,11.03-14.28c2.42-4.4,5.45-7.61,9.09-9.64  c-1.34-2.39-0.59-3.08,1.83-1.94c-0.36-0.56,0.04-1.22,1.2-1.98L1124,602c5.31-7.69,6.93-17.34,5.33-26.47l1.45-2.47l22.6,0.45  c15.77,0.32,31.24,0.64,46.62,0.27v151.17c-5.24,1.03-10.52,0.45-16.4,0.73l-87.97,4.19l-74.18,4.51l-56.82,3.43  c-8.16,0.49-15.91,0.64-23.62,0.28l-2.3-2.01c-5.12-30.24-32.06-50.78-61.67-54l-2.51-2.15c-0.13,2.2-1.76,1.46-2.8-0.19  c-2.07,2.54-5.58,1.38-7.4-0.42c-1.83,1.95-4.47,2.74-5.94-0.36l-2.83,1.91c-13.64,0.3-26.44,5.63-38.11,12.34l-3.33-0.29  l-0.62,1.59c-17.65,13.43-28.46,32.69-27.62,55.2l-1.79,2.85l-41.06,2.31c-5.87,0.33-11.16,0.31-17.17-1.64l-22.28-7.26  c-11.94-3.89-21.67-9.74-34.51-10.85c-9.93-0.86-19.71-3.21-29.84-2.98l-23.79,0.52l-12.05,2.14c-20.4,3.62-28.91,5.84-47.42,15.02  l-9.56,4.74c-9.31,4.61-7.48,6.8-20.47,9.32c-1.23,0.24-18.56-0.92-25.35-0.22c-4.33,0.45-30.65,0.1-36.91-0.1l-26.1-0.84  l-19.41-0.94c-12.39-0.6-24.49-0.42-37.02-0.59c-4.66-0.06-8.97,0.14-13.23-2.06c-2.09,1.92-1.93,4.41-4.13,5.07  c-0.76-0.26-1.35-0.49-1.33-0.63c0.57-3.79,7.88-14.37,11.04-16.84c0.08-1.01,0.19-2.01,0.43-2.97c0.24-0.95,0.48-1.87,0.97-2.62  c6.84-10.54,14.17-20.81,22.12-30.52c35.31-35.06,68.92-72.68,100.82-112.86c2.01-2.48,4.53-4.46,7.07-6.35l2.07-1.97l-1.19-1.64  c7.3-10.37,14.59-20.74,21.89-31.12l2.23,0.17l0.9-1.07c-1.21-5.16,4.63-14.13,9.77-15.31c3.68-0.55,7.41,0.53,11.44,0.76l15.3,0.85  c4.98,0.28,9.57,0.34,14.46,0.85l10.55,1.1c3.93,0.41,7.85,0.5,11.72,0.64c8.72,0.32,16.97,1.64,25.73,2.14l14.86,0.86l76.81,6.74  l23.89,2.08c6.1,0.53,11.78,0.81,17.9,1.44l16.32,1.68l79.83,5.53l23.42,0.78l14.48,0.9l59.24,3.02l24.98,0.88l22.94,0.88  L1050.3,572.15z" />
<path class="st6" d="M1200,877.41v41.79c-5.42,3.56-8.12,5.34-8.12,5.34c-60.15,22.1-120.29,37.19-180.43,51.79  c-62.93,15.28-126.16,29.48-193.76,32.88l-59.37,3.69c-60.94,7.26-122.74,13.28-185.4,18.06c-25.24,2.76-50.25,7.69-74.5,15.25  c-21.76,1.49-43.71,3.23-65.83,5.22c-15.53,0.68-31.4-0.05-46.05-5.65l-62.86-24.04c-28.5-10.44-58.48-15.43-88.78-17.31  c-1.84-2.07-3.66-3.98-5.46-5.74c-3.81,1.3-5.97,1.37-9.8-0.18c-9.81,7.44-17.99,1.76-20.89-8.94c-1.75-2.49-4.3-4.03-7.68-4.61  c-2.94-2.37-6.47-3.97-10.58-4.81c-10.35,2.79-20.77,4.39-31.25,4.82c-19.45-3.75-39.09-7.39-58.92-10.91  c-16.43-2.33-32.41-2.12-47.95,0.62c-12.59-3.12-25.53-4.92-38.58-5.01L0,967.68v-76.8c4.23,0.14,8.38-1.28,12.88-2.26  c14.28-3.11,28.07-5.46,42.89-5.41c23.6,3.13,45.99,9.43,67.85,18.41c3.28,1.35,5.67,1.42,8.89-0.33c13-7.05,26.21-13.42,40.23-18.1  c16.76-5.59,26.57,5.16,44.35,7.75c20.36,7.63,39.68,16.35,59.02,26.13c2.18,1.1,4.15,1.75,6.14,1.86l0.96,0.89  c0.83,0.71,2.12,0.46,3.01,0.92l6.48,1.05c32.55,14.79,67.79,25.85,102.5,32.04l2.13,2.27c25.45,3.96,19.43,5.47,47.2,1.72  c19.49-2.63,38.51-4.81,58.09-3.16c13.67,1.16,26.45,1.97,40.12,4.3c47.54,8.13,93.54,19.46,139.9,33.9  c13.62-3.42,25.61-8.83,38.48-14.3l48.66-20.7c15.81-6.73,31.13-12.14,47.8-16.46l62.3-16.12l38.22-9.01  c26.09-6.15,51.75-11.05,78.26-14.8c33.99-4.81,52.04,13.3,99.89,0l40.85-11.35C1158.08,884.3,1178.85,880.17,1200,877.41z" />
<path class="st3" d="M550.91,1671.35L0,1671.36v-266.88l1.1-2.01c73.16,15.66,144.48,41.02,213.1,67.09  c62.31,32.34,123.49,64.91,183.55,101.04c52.41,31.52,103.88,64.26,153.96,98.68L550.91,1671.35z" />
<path class="st7" d="M1200,919.2v155.96c-0.38,3.54-6.22,2.84-8.9,0.95c-3.08-4.9-6.34-6.17-9.77-3.83  c-6.03,8.69-11.67,10.28-16.94,4.79l-1.8,0.95c-3.67,4.22-6.55,4.8-8.64,1.75c-2.41-13.6-15.75-23.15-26.46-10.9  c-7.26-1.11-11.78,2.65-15.49,8.49c-2.7,0.58-5.26-1.24-7.68-5.44c-2.67-1.65-5.29-0.28-6.43,2.46c-0.16,5.16-0.93,11.19-7.45,9.56  c-0.48,2.5-2.39,2.46-5.71-0.13c-3.53-5.63-7.92-10.06-13.19-13.29c-4.11-0.85-7.93,0.65-11.46,4.49l-2.14-0.79l-1.04,1.05  c-5.22-2.27-10.63-4.17-16.22-5.7c-0.27,0.89-0.59,0.85-0.96-0.04l-2.03-1.04c-0.45,0.81-0.81,0.76-1.07-0.13  c-3.17-1.73-5.62-4.67-7.33-8.81c-2.08,3.05-5.64,3.47-10.69,1.27c-0.39,1.48-1.88,1.03-3,0.19c-0.39,0.89-0.77,0.89-1.13-0.02  c-6.59-4.66-14.12-7.59-22.59-8.78c-1.96-3.29-1.08-6.87,2.63-10.74c-3.23-8.03-6.21-6.17-4.1,1.93  c-4.21,4.17-10.92,6.94-11.19-1.29c-4.91,1.87-7.33,0.53-11.53-2.04c-4.4,2.15-8.76,1.59-13.1-1.68  c-7.23,0.89-13.63,0.38-20.16-3.12c-3.82-2.75-8.32-3.51-13.52-2.29c-0.88,0.72-2.09,0.63-3.08,0.04c-0.34,0.86-0.66,0.85-0.96-0.02  c-16.45-3.5-33.13-6.1-50.03-7.79c-0.47,2.56-1.22,2.4-1.8-0.1c-17.97-0.51-26.96-0.77-26.96-0.77l-1.06-0.99  c-0.29,2.69-1.34,2.32-2.05-0.06l-3.01,1.21c-63.98-0.1-126.19,17.73-184.11,37.85l-1.68-1.47l-4.13,2.71  c-19.72,7.49-39.55,14.77-59.49,21.84c-5.16-4.26-9.58-4.41-13.26-0.46c-2.28,2.74-4.7,5.33-7.26,7.75c-2.72-1.34-5.4-2.2-8.05-2.59  c-4.91,8.49-9.87,9.08-14.87,1.78c-3.23,0.48-5.7-0.05-7.4-1.6c-4.77-8.56-11.61-10.37-19.14-4.17c-3.5-0.35-6.29,1.89-8.37,6.72  c-2.29,0.64-4.35-0.62-6.17-3.79c-8.67-6.85-15.59-2.27-20.75,13.75c-2.05,1.93-5.18,1.83-9.42-0.3c-5.28,1.83-7.25,6.79-5.9,14.88  c-0.67,0.68-1.45,0.63-2.31,0.04l-2.19-0.06c-7.06-10.97-15.99-2.01-15.06,8.26l-1.88,1.28c-0.11,0.79-0.42,1.71-1.12,1.84  c-10.69,2.04-21.71,3.99-32.51,5.49l-2.73-2.32c-4.57-11.14-22.22-25.87-29.97-9.69c-2.62,1.6-5.13-0.1-7.51-5.1  c-5.05-5.54-10.96-10.16-17.73-13.84c-3.23,0.36-6.06,2.18-8.47,5.45c-2.31-0.33-3.47-0.5-3.47-0.5  c-7.43-11.75-20.49-19.45-32.74-9.51c-5,1.01-11.59-3.52-14.66-7.68c-6.05-2.99-12.17-5.89-18.35-8.69l-3.75-5.44l-5.45,6.03  c-4.08,3.83-7.87,1.58-11.37-6.75c-0.36-0.03-1.64,1.29-2.11,1.77c-8.09,8.36-8.74,7.7-12.64-3.46c-5.53-8.6-14.62-16.57-21.63-4.45  c-5.18,4.43-8.09,5.21-13.86,0.51c-0.19-7.82-3.84-15.13-7.8-21.72c-2.55,3.61-5.6,5.91-9.15,6.9c-6.94-0.64-11.91,3.27-14.91,11.74  c-1.36,1.38-2.63,0.77-4.05-0.41c-7.28-12.87-14.76-9.4-24.61-1.34c-4.18,0.22-5.87-2.55-3.35-5.83c0,0-0.97-0.7-2.92-2.09  c-0.86-4.4-4.27-16.37-7.46-19.05c-0.9-0.76-3.47,0.45-4.3,1.27c-2.31,2.47-4.91,4.31-7.81,5.52c-12.45-8.22-20.17,7.55-24.39,17.59  l-2.38,1.49c-1.47,1.05-3.35,0.89-5.63-0.48c-4.2-0.29-7.63-1.69-10.28-4.19c-6.08-14.6-21.51-12.71-29.21-0.41  c-14.88-3.7-19.95,8.93-22.08,21.43c-3.91,8.89-8.27,4.75-10.91-3.16l-3.93-6.43c-2.59,0.85-4.34,0.51-5.25-1.01V967.68  c13.5,0.13,27.24,1.05,40.63,4.76c4.31,1.19,6.71-1.26,10.32-1.52c9.16-0.64,18.41-0.14,27.71,0.27  c19.22,0.85,37.47,5.08,56.08,9.43c22.54,5.27,24.93,1.18,44.93-2.39c2.2-0.39,4.35,2.04,6.43,1.79c3.06-0.37,4.29,2.87,6.23,3.36  c9.87,2.47,7.74,7.01,12.06,13.58c1.97,2.99,8.07,3.76,11.01,2.04c3.17-1.86,2.99-3.91,9.11-0.78c2.89-1.05,5.41-2.75,7.83,0.22  c0.91,1.11,1.89,3.4,3.17,4.27c47.45,2.93,72.16,10.28,115.26,27.07l36.44,14.2c28.33,11.04,65.45,3.04,94.56,1.32l16.24-0.96  c33.49-10.51,67.44-15.55,102.52-17.64c26.35-1.57,51.6-3.7,77.76-6.73l62.75-7.28c19.63-2.28,38.2-3.29,57.94-4.32  c38.82-2.01,76.76-5.53,114.96-12.77l42.09-7.98l54.94-13.17l63.46-16.1l35.04-9.1C1140.59,941.19,1170.64,931.23,1200,919.2z" />
<path class="st8" d="M1080.88,1581.97l71.68,21.64l47.44,14.3v53.93l-301.43-0.41c-18.29-3.89-36.4-9.94-54.26-16.12  c-68.65-22.11-136.55-47.3-203.7-75.58c-181.01-85.95-362.6-166.36-552.53-235.81c-27.29-8.99-55.03-17.26-83.21-24.82L0,1316.16  v-29.76c1.41-2.34,4.21-2.84,8.4-1.48c42.04,11.57,83.74,25.03,125.08,40.39c73.31,22.2,145.22,46.78,215.72,73.76  c72.04,29.23,144.03,58.32,217.67,81.43c137.2,39.68,274.87,83.68,411.11,128.41c35.59,11.32,72.45,23,108.62,32.32  c0.63,0.16,2.56,0.62,2.48,0.53c-3.41-3.72-4.35-6.82-4.84-11.92c-0.64-9.46-0.8-18.89-0.47-28.29c-2.29-5.91-3.89-11.96-4.79-18.14  L1080.88,1581.97z" />
<path class="st9" d="M345.61,1345.19c4.48,1.3,8.77,3.54,13.38,4.52c1.87,0.42,3.52,1.05,4.94,1.86l147.67,48.14  c2.93,0.67,5.53,1.62,7.81,2.86l52.47,17.55l85.81,28.17c5.5,2.57,11,3.59,16.55,5.35l17.95,5.68l175.65,55.46l0.96,0.76  c0.57-0.15,1.4,0.23,1.92,0.04l2.01,1.02l40.71,12.38l167.44,53c-0.14,13.79,5.73,10.33,4.9,26.06c-0.5,9.52-0.8,18.96,1.69,28.12  c0.94,3.46,4.77,5.12,6.39,8.06c-2.81-0.12-5.32-0.43-7.76-1.13l-55.14-15.76l-53.56-16.58l-155.03-50.43l-169.88-52.71  l-86.19-25.26l-49.74-16.46l-60.57-21.97l-107.48-43.03l-42.66-16.24c-49.82-18.97-100.47-33.81-151.21-50.37l-21.77-7.11  l-85.44-29.44L9.68,1287.2c-3.32-0.92-6.73-1.12-9.68-0.8v-23.04c1.29-0.34,2.58-0.64,3.89-0.8c1.3-0.16,2.58-0.31,3.81-0.13  c30.08,4.38,60.61,10.8,90.81,17.66c76.46,17.37,152.77,35.38,228,57.6C333.07,1339.64,339.36,1342.42,345.61,1345.19z" />
<path class="st8" d="M898.57,1671.43l-253.39,0.05l-7.47-1.76c-61.64-32.84-123.3-64.88-184.97-96.1  c-69.75-39.57-140.71-78.95-212.88-118.14c-75.38-39.51-150.48-75.86-231.87-101.98c0,0-2.66-1.57-7.99-4.7v-32.64  c14.95,2.82,29.52,7.32,44.49,12.03L78.88,1339c13.21,4.16,25.62,8.05,38.69,13.21l153.28,60.53l74.63,31.09l39.74,17l13.47,6.01  l89.31,39.87l25.73,11.94c3.77,1.75,7.38,3.05,11.22,4.84l51.12,23.76l53.61,25.29c22.25,10.49,43.93,19.69,66.86,28.33l46.7,17.62  l94.9,32.66c19.36,6.66,37.86,12.97,57.6,18.14C897.18,1669.68,898.19,1670.38,898.57,1671.43z" />
<path class="st3" d="M131.52,1084.8l1.16,0.59c22.76,6.09,45.83,14.21,69.19,24.37c85.72,38.63,172.14,78.37,255.2,128.52  c24.13,9.25,48.57,18.15,73.31,26.71c5.41,1.4,9.13,3.97,11.16,7.71c-0.49,0.69-1.24,1.17-1.94,1.73c-1.27,1.03-1.75-1.24-2.72-1.61  c-8.94-3.48-16.84,1.06-21.81,8.53c-2,3-7.06,3.52-8.45,7.73c-2.1,6.35-15.07-4-17.49-5.75c-5.63-4.08-12.37-2.88-16.46,2.43  c-4.55,5.91-5.33,12.9-6.81,14c0.75-0.56-11.35-7.6-23.96-7.09c-2.51,0.1-2.56,6.54-4.77,7.17c-0.67,0.19-1.89-0.88-2.16-1.98  c-2.36-9.68-11.37-15.2-21.25-13.63c-2.69,0.43-5.76,0.78-8.39,0.09l-33.54-8.83l-139.55-38.79l-71.27-19.22  c-50.39-13.59-100.66-24.71-151.91-34.08c-3.5-0.64-6.19-1.08-9.07-0.67v-95.04c4.68-2.67,10.24-3.47,15.39-1.95  c0.99-0.66,2-1.19,3.04-1.29c36.36-3.51,76.44-4.91,111.77-1.62L131.52,1084.8z" />
<path class="st0" d="M142.06,568.24l4.59,3.85c36.34,46.22,75.31,91.46,114.09,132.99c15.92,18.8,26.98,36.21,38.27,57.87  l-0.34,3.08l-9.61-2.19c-5.53-1.26-40.65-0.31-48.69-0.15l-45.96,0.87c-16.78,0.32-17.08,5.51-21.62,4.8  c-36.38-5.71-54.88-9.94-93.14-7.26c-20.37,1.43-40.07,0.58-60.4,0.35L0,762.24v-192l3.6-1.33c45.4-1.9,90.7-2.7,135.92-2.42  L142.06,568.24z" />
<path class="st1" d="M144.01,267.74c0.37,1.82,0.55,2.73,0.55,2.73c-32.9,30.06-56.75,74.1-61.79,119.19  c-7.26,64.98,24.5,122.72,58.96,174.88l0.34,3.69l-79.18,0.64l-33.48,0.86c-10.06,0.26-19.75,0.35-29.4,0.5V262.08  c3.34,1.12,6.71,0.41,10.3,0.52c2.67,0.08,5.02,1.61,8.14,0.86c9.35-2.25,18.99-2.01,28.47-0.55c4.72,0.72,9.08-0.53,13.45-0.73  l14.46-0.67c7.98-0.37,15.15,0.18,23.15,0.04l30.65-0.54c4.56-0.08,8.77,0.51,13.13,0.76c0.82,0.05,2.11-1.72,2.95-0.84  C146.87,263.17,141.49,265.57,144.01,267.74z" />
<path class="st3" d="M645.18,1671.48l-94.27-0.13c-1.82-2.6-5.05-3.66-7.85-5.56l-22.14-15.1l-31.77-21.03l-14.35-8.8l-23.89-15.4  l-54.15-33.2l-45.71-27.02l-25.34-14.27l-15.38-8.41l-19.29-10.62l-10.83-5.52l-58.31-30.01c-3.47-1.78-6.2-4.31-9.82-5.66  l-48.93-18.31l-34.59-11.73c-33.11-11.23-66-21.31-99.86-30.2c-7.56-1.98-14.51-2.95-21.8-5.35c-2.37-0.78-4.77-0.91-6.88-0.67  v-55.68c41.6,13.93,83.18,27.9,123.13,46.97l42.89,20.48c53.04,25.33,104.28,52.76,155.46,81.47l21.55,12.09l24.14,13.56  l86.48,48.54l34.52,17.35l72.23,37.54L645.18,1671.48z" />
<path class="st3" d="M874.56,1412.93c10.61,1.42,21.49,6.98,17.44,19.22l9.78,1.14l92.42,0.03c4.5-0.45,8.95-1.25,13.35-2.4  c5.22,1.01,10.41,2.04,15.57,3.08c31.03-5.45,61.44-10.18,93.76-11.3c26.7-0.93,55.49-0.8,81.98-0.28l1.15,1.92v39.8l-41.01,1.22  c-39.9,1.19-109.25,14.68-149.07,24.6l-39.2,9.77c-0.98-4.35-0.81-7.35-0.58-11.24c-12.15-6.83-3.52-1.34-18.12-5.01  c-4.89-1.23-14.6-1.05-16.95-6.58c-2.93-6.89-6.58-10.01-14.63-10.27l-33.41-1.04l-56.6-1.2c-30.09-0.64-59.41-1.48-89.27-3.98  c-1.99-0.17-3.49-1.32-3.91-2.71c-0.87-2.89,6.87-2.25-6.91-14.48c-0.88-0.78-1.64-1.49-1.01-2.11c0.37-0.36,0.8-1.48,1.64-1.6  c11.18-1.64,21.78-4.51,32.94-6.58l19.55-3.63C814.08,1423.6,844.05,1416.59,874.56,1412.93z" />
<path class="st3" d="M1200,1075.15v84.47c-5.14,1.08-7.71,1.62-7.71,1.62c-51.13-3.03-102.55-0.54-153.64,5.2  c0,0-3.15-0.32-9.45-0.96c-6.27,1.08-6.53-2.92-4.97-7.92c-2.94-3.8-7.05-6.82-12.35-9.05c-6.22-7.33-11.39-15.63-15.52-24.92  c0,0-3.78-1.4-11.33-4.19l-0.9-1.9c-3.98,1.22-6.25,0.55-6.81-1.99c-0.37,0.46-0.71,0.4-1.01-0.13l-0.65,1.13  c-15.09-3.51-30.39-6.96-45.9-10.37l-0.86-2.02c-1.93,2.76-6.59,1.27-7.31-1.93l-3.92-0.99c-1.57,2.81-5.11,2.2-5.66-0.97  l-0.98-0.73c-0.68,2.67-1.93,2.36-2.88-0.22l-0.96-0.25c-2.92,2.42-9.3,1.2-11.44-1.85l-2.96-0.74c-0.12,0.87-0.45,0.81-0.96-0.02  l-0.96-0.28c-0.02,2.9-5.53,2.04-5.68-0.74l-3.92-0.79l-0.82,1.85c-36.19-4.34-73.13-5.77-110.84-4.3c0,0-2.16-0.53-6.49-1.59  c-3-3.7,2.55-3.89,5.61-3.64c77.21-9.74,158.91-16.69,236.31-6.16c2.06,0.8,3.13,2.37,2.8,4.63c-4.45,7.2-7.63,14.69-9.54,22.47  c28.51-0.67,57.32-0.7,86.44-0.08l47.42-1.82l-9.53-3.36l-1.36-2.49c-0.24,0.41-0.6,0.56-1.06,0.44  c-10.16-2.83-20.39-6.24-30.09-10.45l-0.44-2.3c-2.27-1.41-1.9-3.16,0.73-3.9c0.38-1.28,2.45-1.53,3.67-2.27  c3.39-2.03-0.7-6.7,4.08-10.91c1.81-1.59,4.16-1.92,6.41-0.86c2.7,1.27,3.45,3.94,5.86,6.73c3.48-6.28,9.07-11.16,16.4-9.37  c5.02-7.1,13.82-7.64,20.7-2.67c5.17,3.74,6.52,9.7,8.68,15.95c3.27-1.81,4.68-4.38,7.41-5.24c2.63-0.83,4.04,2.75,5.96,3.33  c5.74,1.74,9.18-12.6,17.53-8.96c2.98,1.3,4.23,5.27,7.13,6.15L1200,1075.15z" />
<path class="st8" d="M1200,1184.09v29.52c-43.9,0.02-91.43,5.82-135.2,14.43c-54.24,10.66-157.06,42.31-205.56,64.09  c-3.27,0.58-3.61-3.07-1.34-5.3c6.86-0.72,12.58-3.36,17.18-7.93c4.93-1.88,5.8-3.13,2.61-3.76c-6.32-0.11-14.47-0.95-10.11-9.13  c10.65-1.02,6.43-3.25-0.84-0.94c-3,8.18-7.7,9.29-12.64,1.79c-4.72-0.75-9.59-0.66-14.62,0.24c-3.1,0.1-4.15-2.71-4.43-5.43  c-5.64-1.17-4.95-4.45,2.06-9.84l12.74,0.21l1.15-4.79c7.87-4.15,16.16-7.16,24.87-9.01c7.47-2.26,14.72-5.9,20.73-10.17  c-0.12-0.75-0.18-1.93,0.32-2.08c60.38-19,130.28-33.57,193.24-40.53c2.95-1.11,5.38-1.05,7.3,0.17c3.52-1.83,7.67-2.52,12.44-2.05  c26.67-2.66,54.3-2.31,81.58-1.64c1.42,0.03,2.83,0.39,4.27,0.76C1197.19,1183.05,1198.6,1183.55,1200,1184.09z" />
<path class="st9" d="M1200,1159.63v24.46c-22.85-0.67-45.69-1.14-69.08-0.16c-11.61,0.49-22.45,2.34-33.46,1.7l-4-1.12  c-94.8,6.01-192.62,24.82-284.42,54.49l-4.78,0.31c-0.51,3.13-5.13,3.58-7.46,1.86l-0.96,0.86c0.12,2.04-1.35,2.12-1.92,0.15  l-1.92,0.83c0.12,1.66-2.84,2.19-3.84,0.93c0.11,2.69-0.86,3.19-2.8,1.24c0.41,1.2-0.78,2.01-1.84,2.62l-84.41,27.55  c-32.81,10.85-65.92,20.35-99.33,28.5c-2.33,0.01-3.98-0.09-3.53-2.88l29.66-9.87l2.42-2.81c24.57-8.69,36.85-13.04,36.85-13.04  c0.82-0.12,1.6,0.62,2.22,1.28c1.19-2.01,3.49-3.37,6.93-4.06l5.73-3.68l2.37,0.57c0.45-2.52,0.84-2.58,2-0.28  c0.27,0.64,0.57,0.45,1.01,0.04c4.35-4.33,9.76-7.46,16.24-9.38c20.95-8.73,41.61-16.87,61.99-24.42l1.51,0.34  c0.83-2.26,6.71-4.56,8.72-3.1c1.14-0.94,2.31-1.84,3.54-2.63c1.22-0.78,2.43-1.55,3.74-2.03c35.91-13.08,70.97-24.91,107.5-35.96  c1.67-0.5,6.46-1.73,7.93-1.8l1.88,1.29c1.93-0.21,3.61-0.79,5.05-1.74c0.68-2.59,8.03-4.86,9.36-2.09l1.01-0.79  c0.25-2.56,1.14-2.46,1.92-0.04l2.96-1.09c0.32-2.64,1.43-2.51,2.72-0.21c1.41-0.09,2.72-0.41,3.92-0.96  c0.1-0.91,0.43-0.9,0.96-0.08c1.43-0.17,2.71-0.66,3.84-1.47c0.5-1.88,1.34-1.87,1.92-0.04c0.42,0.49,0.69,0.24,0.96-0.29  c-0.36-3.04,5.12-4.21,5.76-1.07l3.84-1.44c0.26-2.55,1.14-2.46,1.92-0.04l3.92-1.14c0.79-2.78,8.06-4.49,9.52-1.73  c1.36,0.34,2.39,0.03,3.09-0.95c0.92-2.45,1.49-2.49,2.67-0.17l2.96-0.95c0.52-2.8,3.9-3.11,4.72-0.3l3.84-0.81  c0.79-2.64,1.67-2.72,2.88-0.22l2.94-0.68c0.57-2.22,2.95-3.41,7.15-3.58c2.45-1.1,4.16-0.83,5.15,0.81  c-0.01-0.76,0.09-1.91,0.61-2.01c6.7-1.29,25.16-4.18,31.24-3.68c0,0,1.29,0.28,3.88,0.85c32.41-3.34,64.55-6.5,97.76-7.33  C1151.9,1157.54,1175.78,1158.72,1200,1159.63z" />
<path class="st3" d="M318.8,1322.84c5.08,1.54,9.14,4.96,14.06,7.92c2.48,1.49,21.15,12.64,12.74,14.43  c-88.29-25.63-177.08-48.67-267.59-67.47c-26.38-5.48-51.98-11.18-78.02-14.36v-35.52c3.91-0.77,5.86-1.15,5.86-1.15  c60.04,9.77,121.16,26.88,179.34,46.08C230.45,1287.69,275.27,1304.21,318.8,1322.84z" />
<path class="st8" d="M318.8,1322.84c-21.18-6.42-41.72-15.13-63.3-23.19c-61.25-22.88-133.21-46.79-196.98-60.29  c-19.88-4.21-38.9-9.15-58.52-11.52v-25.92c73.69,14.24,145.26,37.68,214.45,67.81c31.14,13.56,61.2,28.14,90.62,44.63  C310.15,1317.22,314.55,1319.69,318.8,1322.84z" />
<path class="st3" d="M87.29,1064.65c1.79-0.25,2.09-0.31,0.89-0.19c8.29-8.83,30.2-7.81,33.75,5.43c13.24-6.95,26.6-6.44,31.9,9.11  c1.12,3.29,2.36,7.12-1.98,7.55c-0.14,0.72-0.34,1.71-0.93,1.87c-2.61,0.69-12.59-0.83-14.52-2.75l-1.13-0.54  c-0.26,1.69-3.07,0.94-3.75-0.32l-33.66-1.57c-32.59-1.52-66.2,2.46-97.86,4.45v-17.28l5.92-1.3c3.75,5.01,6.55,10.4,8.8,16.43  c8.61-9.06,0.43-12.73,13.12-25.59c3.79-3.84,9.25-2.77,13.64-1.96c3.89-5.23,8-10.35,15.01-10.2c6.16,0.13,12.38,2.16,15.08,8.64  C74.62,1063.71,78.95,1059.44,87.29,1064.65z" />
<path class="st8" d="M1200,1385.42v22.42c-33.24-2.74-66.45-4.03-100.14-4.88l-33.48-0.84c4.9-3.09,10.11-3.06,15.32-4.74  l16.01-5.14c2.95-0.95,6.32-0.84,8.03-3.18c9.46-2.05,19.65-2.94,29.97-3.04L1200,1385.42z" />
<path class="st3" d="M242.98,220.79c2.98,0.88,1.97,2.16-0.32,3.58c-56.75,18.15-102.43,63.8-120.59,121.75  c-35.7,113.93,41.88,221.88,108.11,308.35c15.65,19.03,30.6,37.95,44.86,56.75c2.38,0.44,4.82,0.48,7.32,0.11l1.84,1.84  c0.09-0.75,0.32-1.86,0.85-1.92c2.37-0.27,13.7-0.43,15.84,0.02c1.36,0.14,2.81,0.79,4.36,1.93l0.99-1.96  c1.56-0.3,13.19-0.91,13.81-0.6c0.74,0.38,1.14,1.11,1.42,1.86l1.99-1.95l16.8,0.58l2.18,1.67c0.37-3.21,8.63-2.66,9.87-0.21  l9.57,0.61c0.17-0.83,0.47-0.8,0.88,0.01l1.9,1.14c-3.55,10.27-6.99,20.6-10.34,30.99l-1.79,1.7l0.54,4.13c0,0-2.39,9.51-7.17,28.53  c2.45,1.12,4.54-0.58,6.27-5.09l14.76-25.12l3.45-1.73c-0.36-3.11,1.5-3.72,3.09-1.04c-1.31,1.98-10.7,15.77-9.71,17.47  c-0.54,0.16-0.66,1.19-0.89,1.59c-0.1,2.1-1.74,5.18-3.9,6.01c-5.15,7.21-7.48,14.56-14.54,12.42c0.58,6.1,1.87,11.41,3.43,17.12  c1.02,1.57,4.66,0.16,6.16,0.95c1.49,0.79,1.1,3.79,1.08,5.18c-0.71,0.54-1.45,1.04-2.23,1.42c-0.77,0.38-1.52,0.72-2.28,0.77  c-14.02,0.97-30.12,0.77-43.97-0.55l-2.24-1.77c0.02-1.14-1.36-3.66-0.03-4.44c1.59-0.95,4.85,0.32,6.09-0.94  c2.21-5.52,3.98-10.77,5.68-16.77c-3.8-0.29-6.38-1.55-8.21-4.45l-9.26-14.7c-17.96-28.51-14.66-32.82-43.39-64.12l-27.21-29.65  c-30.71-33.46-58.59-68.45-86.01-104.03c-6.5-8.43-11.4-18.78-17.69-28.11c-12.36-18.35-21.86-37.73-29.95-58.33  c-8.89-22.62-13.89-45.6-14.55-69.95c-1.37-50.96,22.27-101.34,57.25-137.31c2.39-2.46,5.65-3.98,6.87-6.8  c23.85-19.83,50.48-34.8,81.13-42.47L242.98,220.79z" />
<path class="st12" d="M871.71,679.73c1.26,0.48,2.88,2.1,3.52,3.33c0.1,0.19-3.21-2.52-0.72-3.14  c24.46,1.76,49.22,15.59,60.58,38.78c3.15,6.43,4.88,13.11,5.9,19.39c2.33,14.39-0.73,29.08-7.94,42.6  c-9.39,17.62-21.15,33.92-35.3,47.87l-14.47,14.26c-2.01,2.52-8.65,4.3-11.2,2.46c-2.3-1.66-3.39-2.77-1.46-5.75  c7.77-18.85,15.51-38.09,19.58-57.99c-6.16,0.03-12.3-0.22-18.41-0.74l-6.81,60.05c-1.42,6.08-7.52,5.87-9.69-0.35  c-6.69-19.17-10.44-47.92-12.36-68.52c-2.82-30.23-2.08-64.31,12.29-91.6l3.15-1.43C862.81,679.08,867.3,678.48,871.71,679.73z" />
<path class="st13" d="M858.37,678.96c-17.94,27.38-16.36,79.06-11.32,110.67c2.89,18.14,5.58,35.29,10.8,52.82  c0.33,1.09,4.17,0.86,5.13,0.1c0.41-10.63,2.5-21.47,3.67-32.24l3.98-36.53c1.37-12.56,1.48-43.77,0.55-56.15  c-0.92-12.4-2.77-24.37-7.28-35.9c-2.05-1.72-0.15-2.57,1.85-1.64c-0.87,2.79,1.16,4.81,2.01,7.25c8.27,23.97,6.15,66.29,4.26,91.92  l20.9,0.43c-5.01,21.84-12.71,42.25-21.7,63.33c4.29,1.54,8.35,0.88,12.07-0.19c-3.45,3.41-5.02,8.96-8.82,12.35  c-1.79,1.38-4.22,1.71-7.27,0.98c-5.99-0.11-11.86-0.11-17.63,0c-3.68-4.72-6.52-10.23-10.83-14.92l-11.5-12.48  c-9.47-10.28-24.15-27.72-30.41-39.79c-0.98-1.89-2.47-3.56-1.98-5.58l1.18-1.92c7.64-1.21,15.35-1.92,23.11-2.15  c-3.48-16.69-3.99-34.1-3.1-50.87l-15.76,0.73c-2.35-0.52-2.96-1.05-3.01-3.5c-0.21-9.98,10.5-25.4,16.84-32.75  C827.56,685,842,678.52,858.37,678.96z" />
<path class="st0" d="M572.95,845.71l2.41,0.15c17.18,17.3,48.01,28.34,72.11,21.82l13.32-1.47c5.19-1.9,10.54-2.73,16.07-2.51  c8.6-13.61-2.03-33.27-12.16-43.61l0.69-2.24c1.46,0.26,3.44,0.7,4.94-0.43c6.65-5.01,10.62,4.07,15.06,5.26  c2.89,0.77,3.6,2.53,5.38,4.53l12.98,14.6c1.63,1.83,3.35,4.06,4.27,6.32l3.87,9.47c3.14,7.66,4.19,14.73,2.56,22.72l-3.55,17.44  l-20.12-7.59c-4.96-1.87-10.17,0.17-14.96,1.64l-21.44,6.57l-50.86,15.21c-11.48,3.43-12.81,0.15-22.15-11.08  C568.6,887.16,563.5,863.05,572.95,845.71z" />
<path class="st1" d="M665.38,817.85c2.89,3.91,7.95,8.03,9.89,12.67c3.43,8.23,7.26,16.07,7.02,24.78c-0.07,2.6-2.62,6.16-3.5,9.01  c-0.58,1.88-5.71,1.94-7.82,1.45c-3.28-0.76-6.81,1.79-9.82,2.32c-6.12,1.07-12.15,0.68-18.07,2.57c-9.8,3.14-29.97-0.71-38.43-4.82  c-6.82-3.31-14.74-4.94-20.64-9.69c-4.19-3.37-8.51-6.25-11.06-10.45c0.51-12.06,15.99-27.47,26.87-33.65  C621.22,799.91,646,803.9,665.38,817.85z" />
<path class="st12" d="M814.1,692.92c0.53,0.92,0.28,2.31-0.63,3.38c-7.63,9.04-12.46,19.43-14.64,31.01l20.16-0.93  c-2.91,17.4-1.37,38.44,2.95,54.68l-17.25,1.05c-3.5,0.21-6.67,1.43-9.85,1.27c-6.47-8.19-10.04-20.03-10.77-30.82  C782.43,728.28,793.55,705.01,814.1,692.92z" />
<path class="st8" d="M355.12,807.46L354.75,837c-0.02,1.48-0.5,3.87-2.54,3.95c-15.73,0.57-31.01,1.21-47.18,0.02  c-0.91-9.13-0.76-25.31-0.63-33.64c5.02-0.48,10.1,0.09,15.54,0.47C331.88,808.62,343.6,808.2,355.12,807.46z" />
<path class="st13" d="M866.61,871.71c0.63-0.01,2.46-0.53,2.71,0.22c0.95,3.91,0.8,7.7-0.15,11.49c-5.54,0.37-10.59,0.8-15.98,0.1  c-0.11-2.49-1.36-12.48,1.16-11.94l1.39-1.68c1.53-0.03,2.32-1.69,2.37-4.98c-0.81-0.21-0.71-0.52,0.13-0.92  c4.67-1.3,5.3,1.3,4.35,5.45C864.67,869.42,866.01,870.18,866.61,871.71z" />
<path class="st9" d="M874.47,855.17c-2.61,2.33-2.13,8.54-6.51,9.06c-3.63,0.95-6.27,0.59-9.73-0.23c0.02,0.31-0.02,0.62-0.13,0.92  c0.56,1.99-0.2,2.46-1.73,1.07c-4.16-1.72-4.51-6.89-6.81-9.84c1.28-2.48,3.14-2.36,5.85-2.08  C861.97,854.74,868.51,853.44,874.47,855.17z" />
<path class="st13" d="M500.31,254.61c25.53,17.33,46.07,41.38,60.4,68.89c25.75,49.45,27.58,103.21,9.11,155.27  c-6.78,19.12-15.78,36.69-25.41,54.01l-0.98,0.9c-0.1,0.29-0.02,0.66-0.03,0.96l-1.01,2.01c-1.38,0.6-1.2,2.81-1.83,3.79  c-3.81,4.65-7.27,9.83-9.77,15.31l-0.9,1.07l-22.93,32.59l-2.07,1.97c-19.19,26.41-40.33,51.13-62.94,75.11l-21.52,22.82  c-7.66,8.12-15.99,15.13-23.1,23.87c-8.84,10.86-16.37,22.19-23.85,33.51c-1.12,0-2.24,0.29-3.09,1.04  c-1.09,2.32-15.24,1.9-16.56,1.25c-0.71-0.35-1.03-1.21-1.29-1.97c-0.44-2.09,0.26-4.17,1.07-6.49l6.49-18.51  c1.1-3.13,2.82-5.81,2.67-8.82l2.37-2.1l15.92-0.07l31.46-40.89c63.82-83.39,133.29-182.81,119.85-294.75  c-41.11-2.27-61.67-3.41-61.67-3.41c-6.25-41.75-18.01-83.5-45.92-116.27c-15.05-17.67-33.63-30.8-55.55-38.07  c-0.35-0.89-0.14-1.72,0.5-2.49c11.69-0.16,34.52,3.3,47.37,6.22C446.33,228.01,475.49,237.76,500.31,254.61z" />
<path class="st7" d="M939.82,263.05c0.38,1.67-0.38,4.17,0.85,5.75c0.7,0.12,0.65,0.66,0.1,1.08c0.7,2.63,0.07,5.88,0.95,8.44  c0.63,3.82,1.01,7.84-0.03,11.65c-2.7,31.27-22.02,57.94-41.2,81.49l-1.94,2.05c-3.66,5.04-8.48,9.13-12.62,14.23  c-5.56,6.86-12.36,12.17-18.08,18.23c-2.72,2-4.58,1.91-5.59-0.27l-0.93-2.29c17.82-20.02,34.08-41.42,46.14-66.23  c1.55-3.19-2.22-17.16-3.68-21.1c-10.05,29.4-23.61,56.95-40.68,82.67c-1.63,2.8-3.62,4.93-5.96,6.39c0.14,3.98-9.77,4.06-9.5,0.01  l-1.59-1.39c8.02-25.04,16.37-51.57,21.57-77.87c5.54-28.01,7.58-54.83,2.16-82.39l1.72-1.59c-1-5.34-2.57-10.48-4.71-15.41  c-0.9-0.21-0.89-0.53-0.02-0.96l-2.86-5.75c-0.9-0.29-0.91-0.61-0.03-0.96c-2.64-5.83-5.82-11.64-10.47-16.1  c-0.9,0.17-1.21-0.18-0.94-1.06l-1.03-0.98c-1.73,0.94-3.79,0.26-6.16-2.07c-2.5-0.16-4.87-0.96-4.34-3.81  c39.02,1.85,76.5,18.18,93.96,55.63C936.99,254.87,937.4,259.37,939.82,263.05z" />
<path class="st8" d="M820.83,195.69c2.43,2.45-0.86,3.01-3.05,3.31c0,0-3.22,1.59-9.65,4.78c-1.81,2.03-3.67,2.83-5.59,2.38  c-8.32-6.93-21.33,4.56-26.58,11.51L773.8,218l0.19,1.28c-15.66,16.37-27.01,32.98-27.8,56.7c-1.07,32.24,20.41,66.31,38.29,92.09  l26.23,35.08c1.75,1.03,3.82,1.39,6.22,1.09c3.54-0.12,7.17-0.26,10.89-0.42l1.34,2.03c2.16-2.65,8.34-2.49,10.84-0.22  c1.3-1.21,6.79-3.19,7.67-0.45c3.01,1.29,6.4,1.17,9.5-0.01c1.15-2.32,4.24-1.73,5.1,0.55c1.81-0.05,4.07-0.78,5.59,0.27  c-4.73,5.01-7.14,12.81-13.38,16.41l-33.63,0.84l-2.64-1.59l-12.73-14.7c-16.16-18.66-34-34.96-48.09-55.33  c-9.5-13.74-18.05-27.14-22.84-43.35c-4.79-16.21-6.2-34-1.09-50.04c6.77-21.28,22.88-38.58,42.55-49.56  C790.12,200.78,805.4,196.79,820.83,195.69z" />
<path class="st12" d="M1130.79,573.05c2.56,10.97,0.5,23.08-6.51,31.77c-1.14,0.71-1.54,1.37-1.2,1.98  c-0.49,0.81-1.39,1.23-1.83,1.94c-1.26,1.64-2.77,2.21-4.51,1.69c-4.67,7.4-9.86,14.41-15.58,21.03c-2.06,1.22-4.05,1.87-5.95,1.96  c-0.38,2.56-1.42,2.41-2.79,0.25c-2.2-0.49-2.91-2.34-2.14-5.54l7.16-32.34c2.49-15.43,3.46-33.15-4.56-47.1l0.52-2.57  C1107.34,545.97,1127.17,557.59,1130.79,573.05z" />
<path class="st8" d="M1082.93,546.97l0.2,2.32c-8.09,5.02-11.83,11.03-12.91,20.52c-2.41,21.2,3.21,45.45,15.26,62.85  c2.22,0.87,2.05,2.29,0,3.37c-3.08,1.61-6.31-1.41-8.37-3.39c-7.49-7.74-14.98-15.52-20.78-25.25  c-6.23-10.44-10.06-23.61-6.03-35.24C1055.14,558.18,1068.59,548.35,1082.93,546.97z" />
<path class="st13" d="M1093.38,546.13c10.52,13.56,8.57,42.39,3.95,58.73c-1.25,4.43-1.71,8.49-2.67,12.95  c-1.17,5.44-3.52,10.43-2.26,15.86c-1.76,3.93-7.35,2.18-6.7-2.11c-2.75,0.19-2.62-2.04,0-2.69c-1.13-15.52-1.69-23.29-1.69-23.29  c-0.56,0.13-1.31-0.72-1.42-1.11c-3.61-13.14-3.43-27.8-0.18-41.04l4.4-5.89c0.13-3.52,0.42-6.96,0.87-10.33  c-0.86-0.33-0.87-0.67-0.01-1.03L1093.38,546.13z" />
<path class="st7" d="M1087.68,546.2c0.08,0.31-0.13,0.76,0.01,1.03c-4.48,14.21-6.73,21.32-6.73,21.32  c-0.86,9-1.05,17.96-0.58,26.89c2.72,10.95,4.49,22.09,5.32,33.44v2.69c0.38,0.57,0.47,0.88-0.22,1.1c-0.6,0.01-2.52,0.47-3.15-0.54  c-10.54-16.76-18.18-47.37-13.09-67.07c3.06-11.85,5.57-11.27,13.69-18.09C1084.5,546.82,1085.96,546.22,1087.68,546.2z" />
<path class="st8" d="M854.49,422.38c-1.3,4.43-5.11,8.06-6.85,12.37l-1,1.05c-0.58,0.09-1.16,0.2-1.76,0.18  c-1.97-0.28-3.08,0.11-3.34,1.17c-2.38,0.44-4.06,0.07-5.04-1.1c-2.3,2.22-5.85,1.51-7.93,0.78c-5.34-3.28-6.42-10.67-10.34-15.19  c6.04-0.96,12.3-0.7,18.9-0.87l15.42-0.38C853.99,420.35,854.61,421.42,854.49,422.38z" />
<path class="st8" d="M843.59,436.97c4.22,10.84,6.17,3.94,3.8,22.15c-7.64,1.01-14.34,0.85-21.54-0.07  c0.11-5.38-1.05-10.37,0.4-15.1c0.54-1.75,3.65-2.8,2.57-4.97c0.84-3.74,5.28-1.62,3.73,2.21c1.11,0.55,1.68-1.06,1.71-4.82  c3.46-1.46,5.37,0.31,5.76,5.3c-0.67-4.76,0.48-6.65,3.44-5.68L843.59,436.97z" />
<path class="st3" d="M896.6,1228.07c-1.4,1.46,5.35-0.23,5.82,2.19c0.21,1.08,0.07,2.4-0.94,2.81c-4.02,1.6-2.97-2.53-7.03-2.21  c-1.79,0.14-2.24,2.69-3.78,3.43c-19.72,9.46-20.76,5.54-38.31,14.09c-0.35,1.56-0.27,4.18-1.23,5.26  c-0.8,0.9-11.47-0.16-13.44-0.06c-1.58,0.91-2.7,4.3-5.47,4.88c1.23,1.93,2.48,0.72,4.23,0.16c0.67,2.09,0.22,4.55,1.83,6.57  c5.37,0.14,12.35-2.18,16.97,0.19c1.52,1.75,4.51,6.64,7.22,3.88c1.28-1.3,1.23-4.68,3.26-5.81c4.31-2.4,10.88-1.11,10.58,0.34  c-0.11,0.56-0.42,1.71-1.03,2.38c-1.75,1.95-4.71,0.33-7.07,1.4c-1.14,9.82,10.55,1.24,14.19,9.26c-1.88,2.34-5.21,2.41-7.2,4.42  c-10.78,10.87-19.82,2.94-15.97,10.89l-31.48,14.14l-98.46,41.24l-43.82,16.8c-15.69,6.01-31.26,10.78-46.41,18.05  c-5.48,2.63-0.04-9.63-13.06-18.1c-10.24-6.66-22.82-1.57-31,8.55c-3.29,4.07-5.67,8.55-10.91,10.95c-5.32,2.44-7.84,6.94-11.37,13  c-2.44-6.04-4.34-11.66-9.47-14.8c-7.77-4.76-15.8-2.36-23.25,1.96c-4.28,2.48-11.81,2.12-15.88-0.24  c-5.86-3.39-11.82-3.66-16.12,1.91c-1.54,1.99-3.61,4.09-5.91,5.41c-2.92-1.69-4.54-4.47-7.23-6.24  c-9.67-6.35-4.32-12.86-16.44-16.38l-19.8-5.75l-28.5-3.69c-19.69-2.55-10.69-3.32-22.17-8.19c-2.93-1.24-4.25-5.16-7.85-5.53  c-0.96-0.1-2.26-0.15-2.46-0.72c-0.13-0.37-0.43-1.98,0.15-2.15c6.92-2.04,13.92-1.87,20.99-2.96l22.56-3.49l28.75-4.71l28.42-5.43  c5.13,0.14,10.15,1.4,15.05,3.78c3.56,4.17,10.51,3.89,15.73,3.17c5.62,1.43,11.04,3.74,16.27,6.93c1.64,0.65,12.86,4.61,13.56,4.49  c27.56-4.68,53.98-14.92,79.89-25.06c22.95-9.11,45.68-18.48,68.21-28.09l2.02,1.23c3.77-3.11,8.33-5.04,13.68-5.78  c-0.54-2.48,0.09-2.68,1.8-0.87l2.29-2.5c12.61-4.3,25.02-8.96,37.24-14c2.16-0.8,3.98-0.79,5.47,0c0.09-1.92,0.88-2.22,2.22-0.83  l1.16-2.26c36.08-11.99,72.2-23.88,108.36-35.66l1.71,1.46c0.22-0.45,0.54-0.51,0.96-0.2c-0.18-0.82,0.07-1.47,0.52-2.14  C885.04,1228.89,896.1,1225.43,896.6,1228.07z" />
<path class="st8" d="M135.27,1085.12l1.13,0.54l15.45,0.88l1.21-1.82c26.71,0.7,60.71,5.9,87.12,12.83  c1.12,0.29,2.17,0.88,3.22,1.49c1.07,0.62,2.07,1.36,3.04,2.14c47.93,10.52,95.44,23.86,141.79,40.15  c64.53,22.68,125.04,52.86,184.02,82.75c21.92,11.11,44.28,22.72,65.79,34.34c2.62,0.56,4.31,1.65,5.05,3.26  c9.2,3.26,17.82,7.6,25.84,13c-0.02,0.95-0.57,1.54-1.54,1.84c-3.67,0.64-7.71,1.8-11.39,3.66c-9.94,5-20.08,7.58-30.1,10.91  c-1.18-12.05-6.75-3.28-8.84-12.16c-1.53-6.47-5.99-10.51-11.84-11.12c-13.26-1.4-13.7,12.87-18.76,13.92  c-0.27-6.97-3.67-12.04-9.09-14.87c-6.63-3.45-11.77-0.81-18.33,1.58l-6.82,2.48c-1.73,0.63-5.48,0.29-6.71,3.14  c-1.26,0.01-3.14-0.82-4-1.36c-10.42-6.49-22.7-9.68-34.82-14.05l-43.66-15.74c-6.9-2.49-12.26-5.72-18.53-9.59  c-30.76-19.02-61.89-36.26-94.62-51.99l-68.74-33.05l-43.07-20.33l-34.58-15.36c-15.64-6.95-53.6-21.02-70.22-25.94  c-0.74-0.22-1.41-0.1-1.69-0.55c-0.22-0.35-0.19-0.88-0.1-1.28C132.71,1084.86,134.06,1085.55,135.27,1085.12z" />
<path class="st8" d="M785.36,1245.16c1.19-0.43,2.05-0.35,2.42,0.84c0.94,2.98-8.31,16.06-13.39,14.48  c0.84,3.76,0.03,6.35-2.42,7.75c-0.72,0.24-1.51,0.57-2.22,0.83c-1.81-0.08-2.14-0.28-1.01-0.6c-4.9-0.39-13,0.29-15.76,5.01  c-5.69,2.03-11.31,4.31-16.84,6.86l-8.23,1.52c-0.72,1.77-1.77,3.01-3.16,3.72c-0.38,0.46-1.38,0.55-1.8,0.87  c-5.37,0.76-9.93,2.68-13.68,5.78l-23.51,10.02l-43.51,17.62c-26.53,10.74-55.25,21.39-83.23,26.13c-5.51-3-9.48-1.96-16.87-5.84  l-7.41-3.9c-3.1-1.63-4.51-2.03-8.11-1.2c-3.29,0.76-7.26-1.29-10.91-0.66c-6.93-9.48-17.2-3.76-17.18-8.63  c3.68-0.7,7.34-2.63,11.22-2.14l0.96-0.8c1.25-0.36,2.56-0.37,3.84-0.25l0.96-0.71l45.28-11.26c1.78-0.44,3.26-0.58,4.64-0.47  l0.96-0.78l15.72-4.55c4.76-1.38,9.55-3.43,14.14-3.86c0.76,0.42,2.12,1.31,3.64,0.92l39.32-10.01l59.32-18.36L785.36,1245.16z" />
<path class="st12" d="M369.74,215.13c0.33,1.54,2.01,1.46,3.56,2.01c61.91,21.75,92.25,92.04,98.37,153.56  c12.17,0.12,23.94,0.72,36.15,1.57c8.78,0.61,17.24,0.33,25.84,2.04c5.58,35.33,0.85,70.68-8.87,104.3  c-8.98,31.02-22.62,59.79-38.63,88.06c-15.73,27.79-33.76,53.12-52.76,78.64l-19.34,25.98l-32.01,41.6  c-6.88,0.22-13.08-0.3-19.27,0.31c-0.29,0.03-0.59,0.01-0.88-0.01l-9.57-0.61c-3.26,0.69-6.68-0.29-9.87,0.21l-2.2-0.17  c29.57-120.47,58.18-245.44,47.9-369.24c-3.51-42.35-11.08-91.28-38.59-124.6l-0.89-3.88C354.55,213.12,362.38,215.23,369.74,215.13  z" />
<path class="st13" d="M348.68,214.89c7.55,8.26,13.72,17.02,18.69,27.59c16.04,34.1,22.43,84.67,24.11,122.42  c0.91,20.39,1.42,40.08,0.22,60.45l-0.79,13.42c-5.07,86.31-26.21,187.57-48.6,271.08c-0.39,1.46-0.49,2.28,0.13,2.94  c-7.03,1.11-14.05-0.59-20.96-0.29l-2.02-0.62c-18.21-129.39-36.19-267.21-22.93-403.53c2.78-28.54,8.36-66.03,21.68-91.43  c0.29-0.56,0.84-0.99,1.43-1.42c0.61-0.44,1.3-0.78,2.02-1.09C330.6,214.42,339.85,212.57,348.68,214.89z" />
<path class="st14" d="M302.47,214.38c0.72,0.61,1.38,1.87,0.87,2.24c-23.33,12.45-38.27,34.82-49.26,58.38  c-30.4,65.18-28.86,149.51-15.1,219.11c14.52,73.45,39.29,141.04,64.07,207.99c0.49,3.62,1.37,6.55,2.65,8.8l-0.43,2.3l-21.05-0.03  c-2.97-2.14-5.25-5.37-6.87-9.66c-69.41-113.63-158.53-259.62-97.14-396.26c19.45-43.3,51.61-81.19,99.15-91.31L302.47,214.38z" />
<path class="st14" d="M321.66,214.41c-17.16,31.84-22.69,81.56-25.3,118.36c-5.85,82.42-1.24,172.56,8.84,254.69l7.79,63.44  l8.49,61.6l-16.22,0.7c-0.45-0.86-2.47-1.65-2.55-3.05c-0.39-6.79-3.52-12.14-5.76-18.31l-10.49-28.88l-12.89-36.98l-12.68-39.3  c-9.45-29.29-16.85-58.13-23.04-88.42c-8.74-42.74-12.3-85.48-8.86-128.99c1.99-25.22,6.77-49.09,14.65-72.96  c9.49-28.74,28.43-64.8,55.91-79.55c1.28-0.69,2.69-1.11,2.92-2.38L321.66,214.41z" />
<path class="st3" d="M279.36,215.94c-0.1,0.57-0.91,1.2-1.82,1.13c-3.23-0.23-5.2,1.53-7.92,2.69  c-12.66,5.41-25.34,10.78-35.93,19.61c-14.43,12.03-22.27,18.67-32.83,34.51c-24.48,36.71-37.99,78.83-38.85,122.88  c-1.53,7.04-0.55,13.51-0.11,20.51c3.17,50.87,18.03,99.46,39.49,145.76c13.72,29.6,28.8,57.71,45.4,85.77l22.95,38.81  c5.12,8.67,11.09,16.51,14.47,25.55c-2.89,0-7.37,1.02-10.3-0.46l-4.47-5.75c-5.75-7.4-10.74-14.27-16.82-21.56  c-22.27-26.72-42.73-53.8-62.7-82.28c-19.95-28.46-39.98-61.11-54.19-92.8c-21.28-47.45-31.92-99.55-19.34-150.88  c5.56-22.72,14.21-43.75,27.55-62.7c16.54-23.48,26.43-34.21,50.32-50.44l8.78-5.96c11.37-7.72,24.15-12.5,36.91-17.69  c0.89-0.36,2.44,0.5,2.87-0.56c0.15-0.36,0.62-0.75,0.17-1.29C254.89,217.81,267.18,216.76,279.36,215.94z" />
<path class="st7" d="M828.47,195l-0.26,3.86c-8.72,13.03-13.1,27.53-15.38,43.06c-8.06,54.75,4.69,110.63,18.25,162.74l-1.92,1.16  c-3.46-0.65-8.29,1.92-12.23-1.61c-20.06-34.61-38.7-75.83-41.42-116.12c-1.93-28.58,5.13-58.54,23.57-80.8l3.46-1.12  c3.62-4.19,9.45-7.17,14.66-9c1.66-0.58,3.16-0.01,3.63-1.48C823.39,195.51,825.7,194.7,828.47,195z" />
<path class="st3" d="M838.18,194.84c2.65,0.36,2.47,1.21,0.05,2.03l0.05,2.07c-3.92,5.96-4.99,14.49-5.72,21.6  c-3.84,37.59-1.99,75.38,2.4,113.3c2.17,18.59,3.82,37.28,4.95,56.08c3.02,0.57,2.86,9.44-0.04,10.26  c-0.99,1.63-0.96,2.42,0.29,4.23c1.83,0.33,1.72,1.04-0.16,1.21c-3.63,0.16-7.2,0.91-10.84,0.22c0.18-3.05-1.22-5.69-2.08-9.01  c-13.65-52.64-25.92-114.12-13.73-167.94c2.87-12.65,8.08-23.6,15.12-33.88C831.62,195.35,834.99,193.82,838.18,194.84z" />
<path class="st9" d="M840.96,194.81c6.68,4.35,1.53-1.25,10.5,5.88l1.03,0.98c0.3,0.33,0.72,0.67,0.94,1.06  c4.68,4.41,7.84,10.33,10.47,16.1c-0.04,0.28-0.06,0.69,0.03,0.96l2.86,5.75c-0.05,0.29-0.04,0.68,0.02,0.96  c2.16,4.92,3.73,10.06,4.71,15.41l2.64,19.29c3.81,27.81-4.02,67.77-12.05,94.99l-14.45,48.96c-2.37,0.78-5.2,0.34-7.67,0.45  l0.16-1.21c-0.77-0.38-0.69-0.66,0.19-0.84c1.86-1.65,3.48-3.48,4.85-5.49c2.58-10.66,5.56-21.25,8.95-31.78  c2.4-30.37,1.45-62.21-2.59-91.9c0.26-3.92-0.41-7.42-2-10.52l-1.94-0.99c-0.03-20.82-2.85-41.09-8.44-60.79  c-1.61-2.06-1.93-3.81-0.97-5.22l-0.05-2.03C838.97,195.1,840.11,194.77,840.96,194.81z" />
<path class="st8" d="M1092.4,633.68c0.84-0.19,1.94-0.24,2.79-0.25c3.76-1.54,5.64-2.31,5.64-2.31l0.28,1.55  c-9.79,17.52-6.95,2.45-7.74,21.26c-2.23,0.01-5.95,0.57-8.46-0.53c-1.5-0.66-0.92-5.49,0.67-6.03c2.94-1,5.8-1.05,6.93-3.76  l-8.11-0.99c-4.36-0.53-4.66-7.25-7.29-9.98l5.81,1.73c0.86,0.26,2.06,0.02,2.53-0.55c0.21-0.25,0.03-0.71,0.02-1.16  c-0.01-0.36,0.22-0.74,0.22-1.1C1087.37,633.79,1089.77,634.29,1092.4,633.68z" />
<path class="st13" d="M1121.25,608.74c-5.52,8.84-12.15,17.22-20.12,23.92c-1.28-1.56-1.71,1.5-4.26,1.78  c-0.63,0.07-1.16-0.99-1.67-1.02c0.84-1.89,3.41-1.19,5.25-2.53c2.52-5.95,7.07-10.06,10.74-15.1c6.09-8.37,8.71-18.21,12.61-27.43  c1.41,7-4.59,13.63-5.43,20.34C1118.74,609.5,1120.59,608.94,1121.25,608.74z" />
<path class="st8" d="M834.97,1023.3c0.76,0.51,1.19,1.3,1.29,2.38c57.03,12.26,114.68,25.48,172.93,39.64  c9.11-0.24,13.03,2.59,11.74,8.48c25.38,6.86,51.11,13.48,77.19,19.85l22.08,6.92c-0.4-0.28-0.04-0.43,1.09-0.43  c6.21,2.19,12.66,3.71,19.42,7.41l-21.26,0.91c-9.53,0.41-18.59,0.1-28.04,0.95c-12.15,1.09-24.1-0.81-36.3-0.43l-13.52,0.42  l-43.17,0.28c-6.87,0.05,6.42-22.29,7.39-24.06c0.48-0.87,0.15-2.35-0.43-2.55c-0.56-0.19-1.56-0.92-2.53-1l-43.52-3.52  c-47.94-3.87-95.59-0.29-143.44,5.05l-46.99,5.25c-2.33,0.26-5.18-0.97-5.75,1.72c0.25,2.05-1.03,3.11-3.84,3.19  c-15.78,1.29-32.42,3.84-48.5,6.46c-1.24,0.2-2.54,0.03-3.86-0.26c-14.66,3.35-29.1,6.85-43.32,10.53c-1.59,0.5-2.9-0.24-4.02-1.48  l-2,0.85c0.11,0.75,0.15,1.91-0.35,2.07c-4.59,1.5-31.59,8.79-34.25,8.47l-1.8-1.81l-2.03,0.83l-2.98,2.63  c-8.46,2.61-20.62,4.67-29.46,4.51c-0.62-0.01-1.23-0.52-1.84-1.17c-0.52,1.13-2.03,1.25-3.21,0.92c-1.03,1.75-7,2.5-8.73,0.94  l-3.42,2.31l-13.39,1.62c24.91,3.69,48.68,5.16,73.75-1.01l86.87-17.45l2.22,0.87l2.99-2.17c64.46-13.82,136.02-14.28,199.38,1.34  l1.22,1.89c1.65-0.52,3.47-0.12,5.46,1.18c15.87,4.8,32.3,5.47,49.29,2.02c2.17-0.2,4.44-0.31,6.82-0.33  c3.47-0.3,6.56,1.98,9.94,2.82c3.59,0.89,4.16,2.35,5.72,5.33l5.93,11.31c6.16,11.75,6.23,8.68,16.91,15.68  c8.77,5.75-2.89,9.76,6.57,12.83c-1.7,1.59-4.31,0.84-6.88,1.17l-28.85,3.68l-2.08-0.87l-1.82-5.96  c-9.63-13.19-16.66-6.99-20.03,5.92c-2.91,1.1-4.08-0.07-4.81-2.92c1.48-8.42-4.05-16.87-13.24-14.75l-1.05-0.79  c-2.22-0.02-4.46-0.6-6.71-1.74c-2.1,1.77-2.79,1.33-2.01-1.3c-2.86-3.89-6.96-6.24-12.3-7.03  c-62.56-16.29-129.88-26.71-195.06-18.92c-56.79,6.78-106.37,27.41-156.54,48.77c-5.26,2.23-10.7,3.8-16.31,4.72  c-4.78-2.62-10.16-3.07-15.58-3.01c-14.66,0.17-27.82,3.89-41.39,7.98c-4.51-1.21-8.89-2.32-13.12-3.33  c-0.37,0.66-1.05,1.6-1.55,1.43c-9.64-3.36-20.06-8.49-29.15-12.96l1.08-2.08c-3.45-1.34-1.24-3.95,1.36-5.36  c18.32-8.73,36.09-18.04,53.32-27.92c3.27-0.3,5.73-1.56,7.36-3.78c23.16-10,46.59-20.35,67.42-34.41  c12.42-5.39,18.63-8.08,18.63-8.08l6.01-5.84c9.36-5.32,18.76-10.33,28.19-15.06l2.06-2.17l43.28-14.19  C734.58,1031.89,788.16,1022.03,834.97,1023.3z" />
<path class="st3" d="M440.52,1126.92c0.9-1.56,2.7-2.23,5.42-2.01l14.15-3.32c-1.12-1.32-1.27-2.7-0.44-4.16  c2.32,0.68-3.44-11.9,5.94-16.35c3.14-1.49,6.51,0.94,9.27,1.95c3.52-4.95,6-16.6,13.06-18.9c5.65-1.85,12.36,2.73,14.58,8.14  c6.9-12.39,7.95-6.29,10.3-8.35c2.9-2.54,6.53-4.02,10.31-3.23c7.45,1.57,7.59,6.72,11.44,9.71c8.08-2.81,8.31,4.86,11.25,5.12  c2.78,0.25,4.41-6,7.54-7.19c2.97-1.13,5.46,1.35,8.33,2.83c2.87-3.88,5.55-7.61,9.5-10.07c3.87-2.41,8.09-0.48,11.39,2.66  c21.45-8.46,42.4-15.92,63.6-22.87c1.28,5.87-9.45,6.68-15.01,10.9c-4.44,3.37-9.55,5-14.17,7.9c-2.54,1.6-4.14,5.35-6.93,6.26  c-7.6,2.46-14.6,5.21-21.04,9.91c-6.2,4.52-12.73,7.89-19.68,11.33c-14.77,7.32-28.84,14.95-44.4,20.75  c-1.33,2.66-3.64,2.97-6.18,3.6c-5.38,1.34-9.76,4.67-14.4,7.38l-11.52,6.74c-9.11,5.32-18.53,9.47-28.15,13.86  c-1.93,0.88-3.35,1.99-2.89,3.98c-0.15,0.86-0.45,0.83-0.88,0.01l-2.13-0.73l-3.14,1.12c-39.81-14.69-59.72-22.03-59.72-22.03  l-0.42-2.2l-2.96-0.95l-3.7,0.17c-43.03-12.73-85.93-24.43-128.7-35.07l-1.92-0.78c-0.18,0.86-0.5,0.82-0.96,0l-0.96-0.96  c0.06,1.48-2.69,0.68-3.84,0l-3.84-0.96c-0.42,0.32-1.14,0.34-2.19,0.06c-26.83-7.34-54.98-11.28-83.04-13.65l-11.56-0.98  c1.68-2.92,1.43-4.99-0.57-8.15c-2.57-4.06-5.51-10.42-11.21-10.93c-7.09-0.64-13.91,2.8-20.41,5.45c0.19-5.99-2.97-9.95-8.51-11.09  c-21.75-4.45-22.25,8.23-23.85,2.82c1.92-8.27,7.23-15.7,13.85-21.72c3.52-3.21,9.33-1.59,12.85,0.91  c4.62-2.25,7.68-8.61,12.89-6.85c2.24,0.76,8.64,15.83,8.51,20.62c0.23,0.69,3.46,0.13,3.64,0.82c0.64,2.4-2.75,3.26-1.73,4.73  c0.24,0.34,1.28,1.34,2.01,0.84l9.13-6.31c6.23-4.31,15.11,2.05,18.26,9.56c8.65-19.31,15.1-11.53,18.78-13.94  c2.86-1.87,4.25-5.38,7.72-7.1c2.3,2.15,11.18,20.74,8.56,23.69c1.93,0.45,4.87,2.5,7.07,1.93c9.78-6.01,8.71-14.09,18.72-8.25  c13.79,8.05,10.48,17.5,14.11,18.3c2.36,0.52,5.02-7.09,9.96-8.05c2.19,3.65,3.82,7.21,6.1,9.86c4.44-2.32,6.32-6.49,10.01-9.82  l5.22,7.64c5.38,3.42,12.57,3.62,17.43,7.68c2.62,2.19,3.37,5.39,7.73,6.05c1.2,0.18,2.38,2.51,3.91,2.19  c1.34-0.28,2.93-0.93,4-2.04c4.45-4.62,19.05-4.13,25.15,3.05l7.82,9.2c2.89-2.99,5.28-6.27,9.36-6.34  c1.99-0.04,3.28,1.82,4.87,2.68c8.04,4.31,15.09,10.29,18.81,18.18c2.59-4.77,7.15-10.27,12.92-9.11  c6.75,1.35,13.26,6.67,17.55,11.63c2.18,2.53,2,5.95,4.9,7.85C415.12,1131.98,435.17,1126.11,440.52,1126.92z" />
<path class="st8" d="M837.02,1023.35c1.62,0.22,2.05,0.55,1.26,0.99c0,0,8.92,0.26,26.76,0.77c0.59,0,1.21,0.17,1.8,0.1  c16.94,1.65,33.62,4.25,50.03,7.79c0.31,0.05,0.65,0.03,0.96,0.02c1.18,0.24,2.19,0.56,3.04,0.94c0.08-0.74,0.35-0.7,0.78,0.01  c1.95,0.27,3.61,0.81,4.97,1.63c0.62-2.61,1.73-2.35,2.67,0.15c1.86-0.44,3.19-0.09,4,1.05l1.29-1.55  c8.4,2.74,17.03,4.95,25.88,6.61c11.49,3.05,22.67,6.8,33.56,11.25c7.02,1.27,15.01,3.05,20.46,7.88c0.32,0.1,0.8,0.05,1.13,0.02  l5.83,1.85l2.5-0.64c4.58,1.7,8.81,3.75,12.68,6.14c0.34,0.05,0.72,0.12,1.07,0.13l2.03,1.04c0.29,0.08,0.66,0.07,0.96,0.04  l1.66,0.91c5.71,0.79,10.57,2.62,14.6,5.48c0.86-0.23,1.73-0.43,2.61-0.49c4.43-0.33,24.69,7.23,28.55,10.27  c0.67,0.53,1.17,1.28,1.61,2.1l12.72,5.67l18.87,6.64c0.27,0.47-0.41,0.84-1.11,1.23c-14.24-5.1-28.81-6.48-43.43-10.56  l-50.02-13.96c-2.58-0.72-6.57,0.08-7.67-2.53c-0.51-1.22,1.42-3.81-0.22-4.95c-3.14-2.19-6.99-1.29-10.51-2.29  c-19.32-5.46-38.14-9.89-57.82-14.18l-73.87-16.11l-38.63-9.26c-1.46-0.35-2.77-0.43-3.05-1.8c-0.16-0.78-0.15-1.63,0.02-2.43  L837.02,1023.35z" />
<path class="st3" d="M1014.47,1060.99l-36.12-11.7l-18.41-5.58l-26.66-6.91c-0.92-0.91-2.25-1.27-4-1.05  c-0.88-0.18-1.78-0.11-2.67-0.15c-1.5-0.82-3.16-1.36-4.97-1.63c-0.25,0-0.52,0.03-0.78-0.01c-0.83-0.31-0.8-0.64,0.04-0.98  c7.03-6.13,14.13,1.06,19.24,3.54c7.01,3.42,12.56-3.51,19.02,2.15c4.21,3.69,7.31-3.63,12.12,1.2c3.46,3.48,7.71-1.64,9.75,1.37  c0.75,1.11,0.34,2.48,0.42,4.79c2.38-0.84,4.98-1.56,7.48-3.14c-2.18-3.75-1.67-7.03,2.01-9.68c2.19,2.25,4.58,4.56,5.41,7.69  c0.64,2.42-4.64,5.82-3.74,8.65c0.23,0.72,0.81,2.61,1.98,2.42C999.99,1051.14,1012.33,1054.71,1014.47,1060.99z" />
<path class="st3" d="M1090.43,1083.93c-0.36,1.22,0.1,2.76-0.73,3.9c-10.49-4.68-21.73-8.25-32.77-11.88  c-2.21-0.83-1.88-1.41,1-1.74l5.96-4.51c2.78-2.11,7.89-1.94,10.9,0.3C1084.54,1077.27,1086.1,1086.41,1090.43,1083.93z" />
<path class="st3" d="M459.65,1117.43c0.98,2.04,3.63,3.13,5.03,5.05l-17.68,4.16c-2.37,0.56-4.49,0.58-6.48,0.28  c-0.2-4.59,0.34-9.79,3.64-13.6c2.48-2.87,5.94-3.48,9.76-2.08C456.28,1112.1,458.29,1114.58,459.65,1117.43z" />
<path class="st8" d="M976.32,1115.39c0.44,0.51,0.63,0.69,1.01,0.13c2.37,0.31,4.33,2.21,6.81,1.99c-3.8,2.85-28.8,4.55-35.65,4.51  c-4.01-0.02-25.53-4.04-25.93-7.38c2.66-1.31,4.01-7.66,6.35-10.51C932.36,1104.14,970.38,1113.31,976.32,1115.39z" />
<path class="st8" d="M1097.46,1185.62c-5.9,2.29-12.52,2.06-19.17,3.12l-49.79,7.9c-35.3,5.6-69.46,13.96-103.74,23.55l-28.15,7.88  l-12.44,3.5c-0.25-0.42-0.57-0.35-0.96,0.2l-111.22,36.46c0.84-2.81,0.67-5.8,0.35-8.95c2.38-1.38,5.38-0.82,7.21-2.53  c0.42-0.4,8.67-11.29,5.83-11.59c0.94-0.31,1.76-1.02,2.8-1.24c4.45,0.28,9.13-0.36,14.03-1.9c0.12-1.59,0.17-2.14,2.07-2.72  c84.15-29.54,185.05-48.92,274.76-55.63l14.42-1.08c1.4-0.1,2.62,0.27,3.45,1.01C1097.36,1184.02,1097.55,1184.85,1097.46,1185.62z" />
<path class="st3" d="M941.73,1147.93c0.62,0.51,1.22,1.06,2.01,1.3c2.18,0.87,4.42,1.45,6.71,1.74c3.95-3.29,9.36-1.11,12.71,2.63  c7.22,8.08,0.65,9.67,4.79,15.16c2.53-4.83,2.62-10.82,7.37-13.85c2.13-0.89,6.7-0.02,9,0.92c6.07,2.48,8.36,8.75,9.15,14.51  l-12.3,2.77l-2.94,0.68c-0.94-0.12-1.95,0.12-2.88,0.22c-1.13,0.43-2.41,0.7-3.84,0.81c-1.57-0.04-3.16,0.24-4.72,0.3l-2.96,0.95  c-0.87,0.22-1.79,0.06-2.67,0.17c-0.65,1.18-1.89,1.3-3.09,0.95c-2.98,0.41-6.45,1.58-9.52,1.73l-3.92,1.14l-1.92,0.04l-3.84,1.44  c-1.95-0.11-3.92,0.53-5.76,1.07c-0.18,0.56-0.5,0.66-0.96,0.29c-0.62,0.13-1.31-0.13-1.92,0.04c-1.1,0.84-2.38,1.33-3.84,1.47  c-0.28-0.07-0.67,0.03-0.96,0.08c-1.11,0.55-2.42,0.87-3.92,0.96c-0.89-0.02-1.83,0.18-2.72,0.21l-2.96,1.09l-1.92,0.04l-1.01,0.79  c-3.11,0.49-6.17,2.07-9.36,2.09c-1.37,1-3.06,1.59-5.05,1.74c-2.96,1.45-6.44,1.58-10.06,2.57  c-40.21,10.97-75.99,24.8-114.52,38.57l-1.88-1.83c2.4-18.37-21.74-37.62-34.39-20.41c13.46-0.44,19.86,11.44,22.63,22.87  c2.71-1.86,7.43-1.04,4.92,2.47c-0.1,0.75-0.74,0.97-1.59,1.31l-32.06,12.85c-15.74,6.31-31.19,12.1-46.09,19.3  c-0.36,0.52-0.69,0.51-1.01-0.04c-0.66,0.1-1.32,0.24-2,0.28l-2.05,0.31c-8.77-4.74-17.81-9.09-27.11-13.07l-1.63-2.91l-2.15,1.08  c-39.68-19.72-79.34-39.09-118.99-58.12l-0.41-2.34c2.14-2.34,5.57-2.94,10.29-1.81l7.72,1.52c3.43-2.92,6.96-3.77,10.59-2.56  c-1.56-12.55,15.14-20.65,24.55-12.55c3.75-6.66,8.86-10.83,10.54-0.3c11.17-8.99,20.9-7.18,24.88,7.4l8.05-2.63  c3.96-1,7.6,0.69,10.92,5.05c8.25-5.5,16.95-8.82,26.09-9.97c3.53,1.16,5.3,1.74,5.3,1.74c10.34-13.58,24.71-6.28,27.06,9.04  c7.68-2.38,15.93-3.74,19.97,4.82c6.97-10.54,21.01-10.48,28.67-0.59c0,0,2.83,0.16,8.48,0.49c3.93-9.21,10.35-4.99,12.21,3.01  c6.89-0.24,13.69-0.11,20.4,0.4c-1.15-12.85-0.18-29.23,14.62-33.77c10.05-3.09,18.41,1.98,23.08,10.8c3.61-2.12,6.85-2.28,9.7-0.47  c-0.01-11.93,7.65-17.7,18.21-20.67c4.24-7.05,9.24-3.09,13.61,1.51c7.16-10.91,22.69-11.47,29.48-0.07  c8.93-8.27,12.98-11.76,25.05-7.23C925.64,1141.11,936.93,1139.48,941.73,1147.93z" />
<path class="st3" d="M773.91,1232.54c-2.51,1.84-5.58,3.17-8.72,3.1c-0.3-0.54-0.64-1.09-1.11-1.44c-1.29-0.96-2.62,1.25-4.11,0.93  c-4.27-0.93-1.04-16.15-16.98-22.44c-3.25-1.28-6.28,0.54-9.86-1.6c2.35-0.98,3.38-3.75,5.11-5.24c6.58-5.7,15.6-4.88,22.81-0.66  C771.01,1211.03,774.37,1221.57,773.91,1232.54z" />
<path class="st8" d="M682.45,1269.35c-5.14,4.12-8.52,6.04-15.03,7.17c2.1-3.46-26.25-11.27-24.3-14.84c-0.16-3.37,5.13-8.79,8.54-8  c8.08,4,16.87,6.91,24.88,12.03C678.67,1267.06,681.5,1267.13,682.45,1269.35z" />
<path class="st0" d="M342.39,776.7c-8.08-0.35-15.64-0.96-23.24,0.88c-1.97-7.35-5.79-26.32-10.05-30.41l41.12,0.18l-6.03,21.98  C343.58,771.56,344.01,773.9,342.39,776.7z" />
<path class="st6" d="M370.4,747.75c-7.57,11.05-12.29,22.39-20.39,33.42c-1.04,1.42-5.48,0.78-6.13-0.86  c2.07-11.19,4.71-22.93,8.67-33.3L370.4,747.75z" />
<path class="st6" d="M316.9,778.51c0.21,1.47-1.08,2.52-1.87,2.96c-4.07,2.27-9.66-9.01-11.73-12.6l-12.46-21.62  c5.72-0.35,10.95-0.33,17.12,0.09C312.15,757.44,315.34,767.67,316.9,778.51z" />
<path class="st0" d="M343.74,801.96l-12.61,0.21c-0.68-5.35-0.81-10.45,0-15.88c3.43-0.28,6.13-0.08,9.63,0.02  C342.68,791.21,343.72,796.17,343.74,801.96z" />
<path class="st13" d="M895.6,764.58c-0.72-2.91-0.24-6.22,0.28-8.96c1.45-7.67,0.48-14.56,0.07-22.11  c-0.64-11.71-2.67-22.98-8.22-33.35c-1.53-2.86-4.15-5.22-3.82-8.88C898.66,708.95,899.8,741.72,895.6,764.58z" />
<path class="st14" d="M862.28,405.7c-1.67,0.05-3.58,0.2-5.1-0.55c-0.23-3.01,2.75-4.71,4.34-7.42l23.1-39.31  c2.83-4.81,4.64-9.82,7.01-14.93c6.79-14.66,11.13-29.43,14.5-45.79c2.85,7.22-2.49,14.27,0.34,20.95  c1.74,4.09,2.64,6.91,2.41,11.54c-0.13,2.61,2,4.4,0.38,7.77c-5.91,12.27-12.5,23.96-20.79,34.89l-15.02,19.78  C869.91,397.28,864.78,400.59,862.28,405.7z" />
<path class="st8" d="M802.54,206.17c-5.99,6.94-11.39,14.69-15.16,23.41c-17.08,39.51-10.64,75.4,3.11,114.96  c7.27,20.9,18,39.8,26.44,59.69l-2.45,0.17c-2.11-4.12-4.99-7.56-8.66-10.35c-34.39-47.45-70.4-120.7-32.07-174.67  c0.82,0.39,0.84-0.07,0.05-1.38C775.48,210.96,800.73,193.61,802.54,206.17z" />
<path class="st13" d="M816.93,404.22c-0.19,2.82-3.02,1.71-5,1.59c-2.51-0.16-3.24-2.45-4.73-4.42l-24.29-32.24l-8.11-12.18  l-9.53-15.33c-8.26-13.29-14.16-27.14-18.24-42.25c-7.35-27.19-0.1-55.05,19.94-74.73c2.35-2.31,4.14-5.26,6.83-6.66  c0.67-0.07,1.59-0.37,1.9,0.68c0.19,0.66-32.91,38.86-5.91,105.84c8.48,21.04,19.52,43.92,32.67,62.35  c2.47,3.46,4.43,6.03,7.94,8.59C813.29,397.54,814.38,401.94,816.93,404.22z" />
<path class="st8" d="M769.76,1269.06l-14.84,5.55c-10.11,3.78-20,8.84-30.16,10.95c1.18-10.82,6.3-1.59,19.56-11.22  c1.9-1.38,5.89-0.3,7.24-2.14c5.14-7.04,12.09-5.08,15.7-4.88l1.94,0.1C769.69,1267.45,769.98,1268.27,769.76,1269.06z" />
<path class="st9" d="M248.64,1101.12l3.84,0.96h3.84l0.96,0.96c0.29,0.07,0.66-0.02,0.96,0l1.92,0.78  c7.25,0.98,14.52,2.36,22.16,4.24l46.83,11.52c21.83,5.37,42.43,12.54,63.4,19.13l2.96,0.95l41.39,15.07  c7.59,2.76,14.5,6.18,21.89,8.03l2.13,0.73c0.28,0.08,0.59-0.04,0.88-0.01c0.43,1.8,2.23,2.04,3.96,2.77l25.66,10.84  c13.07,3.6,25.87,8.59,38.41,14.97l0.25,2.21l30.18,14.86l22.87,10.58l68.51,33.94c-2.89,2.66-5.37,5.65-8.54,8  c-2.6,0.15-4.92-0.97-7.38-2.33l-8.74-4.86l-55.59-28.7l-53.63-26.82l-49.26-23.11c-73.39-34.43-146.51-54.03-222.06-74.69  L248.64,1101.12z" />
<path class="st8" d="M849.57,263.87c2.22,8.99,2.71,18.38,1.45,28.17c-1.97,31.66-5.01,63-9.11,94.01l-2,3.86  c-0.51,0.28-0.82-0.48-0.83-1.12c0.53-7.36-1.93-14.05-2.66-21.23l-3.38-33.53c-3.26-32.38-6.5-69.44-3.56-101.77  c0.59-6.46,2.49-33.88,8.74-35.39C846.65,205.56,849.33,251.39,849.57,263.87z" />
<path class="st8" d="M840.35,403.56c-1.75,0.03-1.82-2.36-0.48-3.39l0.04-10.26c0.06-17.05,4.34-34.07,5.84-52  c2.09-25.06,4.32-49.43,3.83-74.04c1.4,0.06,2.69,1.2,2.95,3.1l2.68,20.07l0.9,12.57c1.46,20.37,1.25,40.44,0.86,60.71  c-0.13,6.73-2.93,11.49-4.56,17.79l-5.14,19.8C846.37,401.33,843.69,403.9,840.35,403.56z" />
<path class="st3" d="M941.73,1147.93c-6.33-5.2-14.55-5.39-20.64,0.78c-1.6,1.62-5.73-0.08-7.62-0.77  c-10.54-3.88-11.07,6.42-19.95,9.2c-2.26-6.01-7.4-8.36-12.89-8.85c-6.15-0.55-10.72,3.08-14.44,8.24  c-3.43,1.33-4.8-5.28-10.08-5.29c-1.71,0-2.19,2.91-3.65,3.6c-4.51,2.15-9.68,2.85-13.23,7.04c-4.17,4.92-4.23,11.19-4.17,18.05  c-1.32-2.52-3.42-6.1-6.31-5.53c-1.65,0.33-5.39,3.1-6.62,1.07c-3.73-6.13-8.86-11.28-16.25-10.91  c-7.11,0.35-13.85,4.35-16.45,11.88c-2.38,6.89-1.64,14.56-2.55,22.13c-7.52,0.69-14.92,0.14-22.11,0.05  c-2.47-2.08-2.28-6.46-4.71-7.66c-3.64-1.79-4.85,3.69-6.05,5.92c-2.26-2.21-6.84-1.67-9.94-1.74c-4.53-4.72-11.11-9.21-17.87-6.48  c-4.5,1.82-8,3.57-9.56,9.06c-3.06-2.45-3.1-5.43-5.54-6.97c-6.11-3.87-13.47,1.28-16,0c-1.2-0.61-2.62-8.7-5.66-12.13  c-2.87-3.24-7.26-4.44-11.5-3.02c-3.35,1.12-7.05,3.01-8.09,8c-7.42-9.1-23.55,3.14-32.57,7.09l-6.67-6.05  c-4.49,0.26-8.2,2.58-12.56,3.65c-2.34-2.47-2.85-5.96-4.27-8.99c-2.26-4.84-8.17-5.24-12.57-3.12c-3.11,1.5-5.2,4.03-8.58,4.87  c-1.67-2.15-0.6-5.55-2.24-6.81c-2.15-2.67-4.95,8.87-8.15,6.27c-5.39-4.37-10.87-3.77-16.42-0.13c-5.28,3.46-6.56,8.32-4.2,15.01  c-4.41-2.97-7.49-3.82-10.45-0.97c-2.57,2.46-4.53,1.28-7.35,0.59c-4.47-1.09-9.47-1.01-13.73-0.73l-38.66-17.18  c-0.12-0.96,0.9-1.05,1.34-0.92l2.69,0.78c5.18,1.5,9.36,2.53,14.41,0.21c9.59-4.4,42.43-10.4,51.86-3.51  c10.76-2.09,21.54-7.33,31.89-11.57l36.13-14.81c68.05-27.88,139.54-36.16,212.35-25.6c26.15,3.79,51.09,8.59,76.58,15  C925.28,1138.34,941.84,1139.68,941.73,1147.93z" />
<path class="st8" d="M718.98,1113.6c-1.28,1.07-3.37,1.63-5.49,2.03l-45.56,8.67l-24.35,5.12c-15.21,3.2-30,5.84-45.58,7.02  c-10.46,0.79-20.52-0.66-30.84-2.27c-8.35-1.3-16.34-0.82-25.01-2.76c10.3-2.38,20.54-2.95,30.8-4.14  c-0.35,0.47-0.13,1.01,0.19,1.16c0.35,0.16,1.24,0.98,1.92,0.79c5.51-1.54,10.69-1.19,16.36-1.19c11.97,0.01,23.4-2.44,34.91-5.5  l36.38-9.68l40.98-11.49c4.69-1.31,7.69,0.34,9.98,4.16C715.39,1108.35,718.51,1110.36,718.98,1113.6z" />
<g>
</g>
<g>
</g>
<g>
</g>
<g>
</g>
<g>
</g>
<g>
</g>
<g>
</g>
<g>
</g>
<g>
</g>
<g>
</g>
<g>
</g>
<g>
</g>
<g>
</g>
<g>
</g>
<g>
</g>
</svg>