<?xml version="1.0" encoding="iso-8859-1"?>
<!-- Generator: Adobe Illustrator 30.2.1, SVG Export Plug-In . SVG Version: 9.03 Build 0)  -->
<svg version="1.1" id="Layer_1" xmlns="http://www.w3.org/2000/svg" xmlns:xlink="http://www.w3.org/1999/xlink" x="0px" y="0px"
	 viewBox="0 129.6 1200 1541.1" style="enable-background:new 0 129.6 1200 1541.1;" xml:space="preserve">
<style type="text/css">
	.st0{fill:#D6EEE8;}
	.st1{fill:#FFFFFF;}
	.st2{fill:#98D9CA;}
	.st3{fill:#187E88;}
	.st4{fill:#3D8559;}
	.st5{fill:#D9A567;}
	.st6{fill:#0D7D7C;}
	.st7{fill:#27C1AA;}
	.st8{fill:#055F6B;}
	.st9{fill:#6FA762;}
	.st10{fill:#ED4141;}
	.st11{fill:#14A082;}
	.st12{fill:#0B4B62;}
	.st13{fill:#C21924;}
	.st14{fill:#05936B;}
	.st15{fill:#E37F6B;}
</style>
<path class="st0" d="M1200,128.75v529.63l-2.17,2.41c-24.39,5.1-34.53,28.36-37.51,50.92c-1.12,4.21-1.99,3.82-5.23,1.73
	c-10.22-11.81-25.14-18.41-40.44-12.88c-25.86,9.35-25.38,44.23-19.54,66.39c0.38,4.09-0.53,4.19-4.17,4.07
	c-13.64-4.66-28.92-4.66-39.4,6.37c-14.65,15.43-5.72,35.75,2.74,52.08c1.41,3.94-1.61,5.48-9.06,4.62
	c-32.83,3.07-37.77,32.92-21.88,57.55c0.94,2.73,1.26,4.53-1.82,4.89c-12.11,1.13-23.89,3.66-34.88,8.95
	c-19.86,9.56-30.11,24.55-40.32,43.14c-1.66,2.85-3.45,3.77-5.37,2.76l-2,0.34c-15.12-27.58-30.25-55.17-45.37-82.76l1.12-1.95
	c-0.65-0.61-1.26-1.35-1.82-2.22c-2.58,0-6.43-6.68-3.92-8.39c-1.32-1.89-2.58-3.89-3.78-5.99c-0.88-0.03-0.85-0.27-0.02-0.72
	c-0.66-0.49-1.27-1.23-1.82-2.22c-2.87,0.16-4.25-3.4-2.06-5.47c-0.67-0.51-1.27-1.24-1.81-2.19c-2.65-0.27-3.29-1.84-1.09-3.54
	l-1.8-2.25c-2.39,0.95-2.72,0.11-0.94-1.71l-2.81-5.01c-0.84,0-0.83-0.29-0.07-0.82c-1.41-1.58-3.14-5.91-0.95-6.65l1.38-2.07
	c6.11-0.84,11.45-4.28,14.38-9.75l2.42-0.58c-0.62-2.65,1.52-3.56,3.72-2.11l1.17-2.2c8.4-1.85,17.75-4.64,22.31-12.55l2.4-0.53
	c-2.05-3.82,3.49-5.67,6.7-3.75l0.62-2.23c9.51-1.93,15.67-6.55,18.48-13.85l2.02-1.05c0.76-2.77,4.53-2.56,7.02-2.18
	c-0.29-2.51,0.18-2.62,1.71-0.66c0.4-0.57,0.74-0.54,1.02,0.1l0.98-2.46c8.97-3.65,18.3-9.03,21.56-18.72l2.34-1.18
	c-1.74-1.88-0.26-3.22,2.01-2.86c0.38-1.88,1.2-1.95,1.85-0.14l3.12-1.6c0.11-1.78,0.82-1.82,1.65-0.2l1.07-0.98
	c-0.08-2.92,2.03-3.55,3.55-1.03c0.54-0.6,1.32-1.16,2.33-1.7c-0.1-2.72,1.99-3.49,3.53-1.18c0.59-0.66,1.33-1.29,2.22-1.88
	l0.52-2.38c9.31-4.78,11.97-13.93,12.09-23.76c17.34-5.03,40.85-17.01,41.17-37.56l1.66-1.68c-2.26-3.09,1.04-3.46,4.05-3.7
	l0.39-2.24c11.09-5.42,29.86-15.94,34.13-28.04c1.67-4.74-1.71-7.78-5.71-9.69l-0.15-2.13l-0.16-2.17l21.08-13.43
	c5.67-2.87,24.35-20.18,18.64-27.03c-7.81-9.37-56.3,2.38-67.65,6.98l-3.45-1.02l-2.99,2.18c-31.77,11.31-63.13,23.68-94.08,37.08
	l-3.71,0.22c-0.57,0.96-2.13,1.1-2.23-0.27c-2.72-1.85-2.8-5.74,0.05-7.5c-2.81-0.57-2.54-3.1,0.18-3.7
	c-0.41-0.76-0.61-1.66-0.07-2.28c9.71-11.14,23.07-27.45,19.14-43.12l1.01-1.82c-3.02-1.7-1.43-3.03,0.89-4.64l0.19-3
	c11.16-11.85,20.79-26.62,18.43-43.55l1.51-2.63c-2.53,0.15-3.8-3.15-1.98-4.83l-1.21-2.18c5.95-12.03,10.77-24.49,14.43-37.37
	c1.82-5.67,1.21-10.34-1.83-14.02l0.2-2.09l-1.77-1.99c3.72-11.97,6.97-24.09,9.76-36.38c0.56-5.01,0.93-14.31-5.56-13.8
	c-11.71,0.92-25.54,11.79-34.64,19.08c-54.62,43.73-97.52,108.31-135.83,167.32c-1.76,2.67-4.16,4.84-6.53,6.95
	c-1.79,4.77-3.67,9.53-6.19,13.96c-16.21,28.48-32.54,56.97-48.95,85.34c-1.26,2.18-2.74,4.23-4.25,6.26
	c-1.52,2.04-3.15,4.01-4.81,5.94c-0.06,2.04-1.88,1.61-2.13-0.27l-3.21-0.54c-3.69-2.57-9.97-7.87-10.99-11.92
	c-1.12-0.82-1.74-1.83-1.86-3.02c-2.7-0.4-5.56-6.02-4.08-8.59l-2.1-1.44c-6.33-12.27-13.29-24.21-20.85-35.82l-1.05-4.65
	l-3.09-0.75c-8.28-9.86-20.81-14.57-32.85-17.32c-2.8-0.64-4.43-0.97-7.36-0.7c-0.43,0.04-0.83,0.46-1.21,0.99
	c-9.33,0.07-18.15,1.69-26.46,4.87l-0.85,2.26c-8.37,4.1-16.7,8.33-25,12.68c0,0-4.01,0.47-12.02,1.41l-1.53-1.42l-1.19,1.75
	l-66.66-11.26c-14.85-2.44-30.01-4.13-45.02-1.98c35.69,5.4,71.58,11.48,105.43,24.48c0.97,0.37,1.83,1.04,2.71,1.73
	c0.89,0.7,1.69,1.51,2.47,2.35l3.16,0.36c13.31,13.32,24,28.75,32.07,46.27l-0.39,3.16c1.04,1.2,1.98,2.54,2.83,4.03
	c0.85,0.08,0.83,0.33,0.01,0.73c0.63,0.62,1.28,1.37,1.95,2.23c2.47-0.39,2.69-0.06,1.15,1.91l3.69,4.64
	c2.54-0.38,2.71,0.01,0.91,1.85c0.7,0.54,1.34,1.26,1.93,2.16c2.49-0.5,2.66-0.16,0.93,1.72c1.05,1.17,2.02,2.49,2.91,3.96
	c1.91-0.31,2.38,0.49,1.09,1.96l2.54,2.59c1.78-0.51,1.97,0.18,0.41,1.27l2.25,2.52c1.79-0.57,2.09,0.13,0.59,1.28l2.63,2.95
	c0.21-0.83,0.53-0.78,0.93,0.05c1.98,2.48,2.97,3.72,2.97,3.72l9.92,36.33c11.51,46.33,37.43,85.17,77.96,111.29l2.66,4.17
	l1.86,1.62c-0.26,10.44,1.68,24.16,11.55,29.83c5.98,3.44,7.22,3.03,1.97-2.29c-4.36-13.87,5.54-6.93,10.08-0.23
	c5.12,5.05,4.98,4.19-0.43-2.57c-3.08-3.95-2.84-13.19,3.39-10.3l1.15-0.74c3.66,1.55,7.72,2.08,12.15,1.59l1.01,2.03l9.02,0.01
	c-0.84-3.7,5.97-4.04,8.92-3.1c12.81,13.19,26.94,24.38,42.39,33.57l1.01,2.23c0.98,0.55,1.75,1.18,2.32,1.9l2.26-1.06
	c5.32,2.72,10.25,5.94,14.79,9.66c0.67-0.36,1.77-0.78,2.09-0.35c9.73,13.16,20.18,28.48,28.96,42.34c2.85,2.93,3.8,5.45,2.86,7.58
	c-6.73,28.14,1.28,57.28,12.4,83.59c1.96,5.2,1.19,6.33-4.32,5.64c-15.49-2.61-31.37-3.77-46.96-1.49
	c-53.92,7.88-74.19,52.47-93.52,97.91c-3.06,3.35-4.02,0.03-4.2-3.68l1.24-7.48c14.14-34.74-5.95-75.45-47.01-70.01
	c-4.05-0.56-4.8-0.81-3.58-5.26c9.47-26.29,13.71-64.59-12.83-82.24c-13.91-9.25-23.22-5.35-35.6,3.73c-3.06,1.47-3.5,0.5-4.42-2.32
	l-0.45-15.85c-3.13-29.97-21.7-38.48-49.66-28.93c-2.94,0.18-3.97,0.24-3.93-2.76c5.32-16.91,7.46-32.59,2.4-49.78
	c-8.69-29.53-33.67-26.57-57.18-20.45c-2.06-0.17-3.48-0.67-3.39-2.88c3.39-20.04-4.63-43.99-27.57-44.99l-1.85-1.89l-2.53-1.73
	c-5.16-16.01-14.14-33.15-30.03-40.26l-2.62,20.69c-1.1,1.26-2.48,1.17-3.97,0.46l-10.42-16.18c-7.85-7.93-21.07-9.29-30.29-2.85
	l-2.41-0.55l-2.01,0.96c-6.32-1.89-13.1-2.21-20.33-0.94c-1.98-0.46-3.29-1.18-2.87-3.27c4.13-11.23,7.64-21.75,5.24-33.78
	c-1.41-7.05-9.86-14.02-17.19-13.52l-1.37-1.79l0.49-2.93c14.8-13.45,13.9-34.38,6.49-51.56c-0.14-5.45,8.01-0.62,10.91,1.26
	c10.19,8.79,18.71,19.31,25.57,31.58c2.86,3.28,5.45,5.19,9.9,3.19c12.29-5.53,13.25-38.37,9.6-49.94c0.53-2.13,0.91-3.14,3.18-2.81
	c1.86,0.27,20.19,11.13,23.2,13.14c4.67,3.12,10.7,7.25,13.84,11.91c1.17,1.73,1.46,3.21,1.48,5.27c-1.2,8.15-0.75,15.76,1.36,22.84
	c3.27-5.04,4.96-10.82,5.09-17.36c1.75-2.64,2.68-3.38,4.94-0.67c3.89,6.18,8.3,11.93,13.24,17.26c0.36-7.69-3.09-14.69-10.35-20.99
	c0.43-3.05,3.16-4.58,8.18-4.57c1.78-0.35,4.95-1.4,5.64-3.18c0.87-2.24-24.4-1.69-26.68,0.55c-11.87-10.99-25.34-19.92-40.43-26.79
	c-8.93-5.9-16.57-13.52-22.93-22.87c-3.46-2.57-6.45-5.33-8.98-8.28l1.21-1.32c22.61-3.94,27.61-22.52,20.78-42.53
	c-3.47-10.15-9.93-24.47-15-33.96c-11.94-22.34-39.62-22.64-56.21-5.25c-3.56,1.56-4.56,1.63-4.52-2.69
	c3.72-15.84,3.38-31-1.05-45.46c-8.36-15.41-37.97-42.83-55.87-29.19c0.45,4.4,1.32,8.84,2.61,13.32c-0.86,2.85-1.62,3.79-4.5,2.32
	c-16.83-16.37-46.98-8.73-44.92,17.03c4.49,9.9,11.66,18.39,21.5,25.45c8.5,8.84,14.95,19.49,8.61,31.73
	c-1.75,3.38-7.51,10.95-11.31,9.6c-2.61,0.02-5.37-1.03-8.27-3.13c-8.74-1.88-17.8-1.29-27.18,1.77c-3.89,1.21-6.28,0.62-7.17-1.8
	c2.78-17.7-19.94-15.21-30.7-9.85l-3.16-0.44c-1.25-12.94-3.69-25.26-10.15-36.84l0.52-3.2c1.97-3.66,5.1-6.76,9.39-9.31
	c1.7-1.44,8.21-7,7.16-7.67c-5.08-3.25-20.01-5.18-26.47-5.51c-13.43-0.7-26.94,1.66-39.3,6.95l-3.86-0.36
	c-6.88,3.44-7.73-3.09-4.77-8.07c-0.53-0.6-1.09-1.61-0.67-2.04c10.51-10.69,22.3-21.86,35.37-29.24l4.82,1.08
	c2.72-1.16,5.85-1.16,9.39,0c13.98,2.69,63.12-9.84,70.79-20.1c0.21-0.28,0.31-0.6,0.22-0.86c-6.7-0.26-12.81-1.91-18.32-4.97
	l0.1-2.4l1.26-2.42c51-12.83,109.36-24.52,162.31-20.26c11.05,0.89,22.41,2.64,32.23,7.84l1.42,3.17l1.93,2.09
	c1.07,13.35-0.76,26.71-6.75,38.73c-1.34,12.29,2.46,19.87,15.02,21.72c38.16,5.63,28.89-31.68,21.16-56.14
	c-0.29-2.18,0.48-2.41,2.32-2.5c7.02-0.32,19.7,15.18,22.45,21.72l10.22,21.11c5.44,7.5,6.28,7.71,11.24-0.97
	c9.56-16.74,9.92-35.28-0.71-51.69c-0.94-3.28-1.29-5.1,2.26-4.41c14.63,5.87,32.99,14.41,44.66,25.08
	c1.57,1.43,2.24,3.47,2.51,5.52c-0.79,8.68-0.02,16.87,2.31,24.56c2.87-3.68,4.54-7.99,5.01-12.94c1.7-2.96,2.62-3.32,5.34-0.93
	c3.72,4.56,7.52,9.01,11.42,13.35c-0.28-6.94-3.43-13.07-9.45-18.41c-0.6-1.97,0.17-2.74,2.08-3.48c1.69,0.01,13.82-1.61,13.83-2.88
	c0.02-2.99-23.86-4.2-27.21-3.49c-17.59-11.95-35.61-23.73-56.06-30.15l-3.55-3.07l0.78-2.97c14.64-10.96,14.63-24.22,13.46-40.74
	c-0.49-6.96-4.3-32.55-7.16-37.72c-7-12.65-26.67-14.65-39.05-9.55c-2.93-0.01-4-0.91-3.22-2.68c22.29-26.54,4.46-65.35-22.36-80.75
	c-5.11,5.93-6.83,13.33-5.16,22.2c-1.32,12.3-6.08,14.49-8.58-0.19c-3.54-13.01-15.18-30.29-29.96-30.1
	c-12.15,0.16-10.57,15.13-6.18,22.82l13.94,25.42c6.39,14.26,4.1,26.78-9.67,35.48c-58.56,30.43-113.85,66.75-168.69,103.42
	c0,0-3.55,1.6-10.66,4.8l-0.8-2.07c1.89-3.8,3.32-7.8,4.3-12l2.23-0.39c-0.26-4.02,0.47-8.2,2.19-12.55
	c-1.95,2.37-3.87,3.35-5.75,2.94l-1.76,3.28c-24.09,13.38-46.9,29.86-52.47,58.6l-2.59,2.73l-1.34,2.66
	c-10.36,8.81-20.68,17.74-30.96,26.76l-5.23,2.37c-0.65,0.38-1.7,0.87-2.05,0.47c-4.15-4.72-11.35-14.04-14.48-19.3
	c-1.93-1.72-2.53-3.58-1.78-5.57c-2.75,0.13-2.57-2.13,0.05-2.75c0.92-3.05,2.27-5.66,4.04-7.85c-0.84-0.02-0.79-0.27,0.01-0.71
	c0.49-0.79,1.11-1.75,1.85-2.14l0.89-4.35c16.4-21.97,36.05-41.13,57.97-57.56l4.33-0.89c0.46-2.9,2.86-4.85,7.19-5.83l18.63-5.69
	c1.03,0.64,2.43,0.78,4.22,0.41l2.37-1.38c23.73,4.08,49.42-11.54,64-29.46c1.44-1.77,7.87-10.18,6.54-11.3
	c-4.72-3.98-29.7-0.66-36.11,1.07c-17.2,4.66-34.83,15.01-40.2,32.91l-2.38,1.64l-1.12,2.64c-9.34,3.14-18,7.36-25.97,12.64
	l-2.78-0.1l-2.11,3.14c-19.14,11.96-35.82,27.2-50.03,45.7l-3.63,1.11l-1.81-2.93c0.36-15.03-2.04-30.46-9.16-43.84
	c-2.16-4.06-10.46-16.71-14.07-18.09c-0.73-0.28-1.83,3.89-2.1,4.94c-1.94,15.33-2,30.93-0.17,46.8c0,0-0.68,1.11-2.05,3.32
	l1.49,2.33c2.55-0.18,2.47,0.79,0.05,1.61c-0.11,1,0.24,1.75,1.05,2.27c2.88-0.16,3.79,3.19,1.14,4.39c0.53,0.61,1.07,1.38,1.61,2.3
	c1.87,0.22,1.9,1,0.12,1.67l-3.04,1c-9.75-3.3-19.91-5.99-30.29-5.22l-2.74-1.65c-1.86,0.04-1.84-0.83-0.04-1.46
	c0.38-1.26,0.8-2.4,1.24-3.43l-1.85-1.85c1.58-16.57,1.19-32.96-1.19-49.17l1.36-2.34c-0.97-0.42-1.28-1.48-0.92-3.19
	c-2.54,0.2-2.47-0.76-0.06-1.59c-0.66-1.05-1.17-2.46-1.52-4.23c-1.8-0.29-1.78-1-0.04-1.68l-0.89-2.2
	c-2.2-0.81-4.98-8.28-2.32-9.46c-13.48-36.81-20.21-55.21-20.21-55.21l0.04-3.03c-0.6-0.62-1.16-1.37-1.7-2.27
	c-0.63-1.17-1.28-2.44-1.96-3.82c-2.93,0.45-4.66-5.97-2.14-7.36l-1.71-2.23c-2.45-3.47-4.03-7.72-4.73-12.75
	c-6.42-16.14-13.34-32.09-20.75-47.86c-2.28-4.04-2.83-7.75-1.64-11.14c-0.02-2.68,0.41-2.36,1.7-0.17l2.12,0.01
	c8.19,17.9,16.38,35.82,24.57,53.73l-1.27,1.85l1.82,2.27c2.61,0.07,7.71,7.47,4.83,9.26l1.89,2.19l4.06,2.85
	c30.88,46.53,82.8,74.91,136.69,85.91c3.22,2.59,4.19,1.73,2.9-2.59c8.1-62.81-9.82-126.86-60.69-167.27l-47.59-38.07l0.3-2.22
	c-0.71-2.22,0.16-1.88,1.81-0.63c1.78-2.32,5.73-0.17,4.77,2.69l1.07,1.1c5.03,0.97,9.75,2.83,14.05,5.61
	c39.39,23.08,78.05,46.04,115.96,68.9c39.55,21.07,84.73,14.72,126.53,4.73c3.95,0.77,4.4,0.37,1.34-1.19
	c-20.39-38.91-47.66-77.45-88.73-95.81l-3.17-3.4c-2.26-1.22-1.74-1.99,0.78-1.65c1.16-2.39,1.64-2.39,2.82,0.06l2.37,1.39
	c0.35-2.15,1.84-2.01,3.6-1.67c55.72,13.16,119.41,20.54,166.96-19.67l-24.68-14.92l-0.21-2.37l0.92-1.92
	c255.27-0.12,510.57-0.25,765.9-0.37L1200,128.75z"/>
<path class="st1" d="M0,128.64V0h1200v128.75l-768.03,0.38l-0.92,1.92c-143.26-0.16-286.54-0.32-429.84-0.48L0,128.64z"/>
<path class="st1" d="M24.89,1671.74l0.88-1.92c20.38-0.01,40.76-0.02,61.15-0.03l1.15,1.92l1.16-1.9c30.33-0.11,60.67-0.2,91-0.28
	l1.18,1.92c2.67-2.48,10.86-3.07,12.53,0.3l3.53-1.93c49.65-0.09,99.29-0.18,148.9-0.27l1.19,1.92l5.1-1.92
	c48.81-0.01,97.57-0.01,146.28-0.02l1.18,1.92l21.25-1.9c27.9,0.02,55.69,0.04,83.39,0.06l1.82,1.92
	c-0.45-2.77,11.78-2.1,12.31-1.68c0.65,0.51,1.1,1.11,1.27,1.94l1.17-1.92c39.53-0.12,79.07-0.25,118.6-0.37l1.18,1.92
	c0.75-2.67,2.71-2.38,3.15,0.32l2.13-1.78c22.08-0.16,44.18-0.19,66.28-0.12l1.15,1.92l0.87-1.92c0,0,16.02-0.07,48.05-0.2
	l1.15,1.92l10.76,0c4.73-2.56,12.66-2.62,17.26,0.21c1.85-2.94,8.51-2.44,10.38,0.33c0.79-0.52,1.21-1.18,1.27-1.98
	c0.57-0.38,13.16-0.94,13.78-0.63c0.75,0.37,1.17,1.1,1.45,1.86l2.95-2.07c5.78-0.72,30.92-1.95,34.09,0.85
	c0.49,0.43,0.9,0.96,1.29,1.52c0.24-2.13,1.73-1.44,2.16,0.4c0.65-2.83,8.75-2.39,11.8-2.13c2.5-0.56,4.23,0.05,5.18,1.83
	c1.16-3.14,6.19-2.79,7.78,0.02l1.94-1.76l12.65-0.52l1.82,1.93c8.76-2.73,19.22-2.21,27.97,0.61l0.88-1.93
	c15.12-0.1,30.25-0.19,45.39-0.29l5.38,1.89c4.4-3.01,13.69-2.58,18.27,0.05c1.2-3.15,4.85-2.34,6.61,0
	c-0.53-2.83,4.25-3.03,4.98-0.38c1.08-2.26,7.03-2.37,7.55,0.35c0.1-0.73,0.27-1.77,0.84-1.92c2.08-0.53,11.02-0.67,11.49,1.95
	l0.9-1.92c22.71,0.04,45.42,0.08,68.15,0.12l1.16,1.92V1800H0v-127.68c1.13-2.83,5.36-3.85,6.77-0.88l2.57-1.65l13.1,0.05
	L24.89,1671.74z"/>
<path class="st2" d="M1200,658.38v243.19l-2.5,1.5c-10.08-1.84-17.45-0.24-25.01,6.4l-13.15,13.51l-2.53-0.31
	c-0.75,0.01-1.9-0.16-1.93-0.62c-0.29-5.25-1.39-41.38,0.09-42.94c13-3.61,26.61-18.86,27.17-32.42c0.2-4.77-1.1-5.84-5.78-4.27
	l-2.2-1.32c-0.42,0.14-1.02,0.25-1.32-0.06c-1.83-1.88-0.15-12.16,0.51-14.94c0.84-6.75-0.58-9.34-4.27-7.77l-1.66-1.45l-1.36-0.15
	c-1.67-5.6-3.14-11.44-4.41-17.51c-7.69-22.15-28.08-11.94-26.6,8.51c0.13,7.6-0.62,14.91-2.26,21.93c-1.7,0.37-2.55,0.56-2.55,0.56
	c-5.15-3.36-6.51,1.14-4.06,13.5c0.02,6.3-2,6.06-7.34,4.73c-0.09,2.77-0.91,4.42-2.45,4.95l-2.79,1.3
	c-50.05-9.74-69.73,37.59-53.81,78.79c1.09,3.61-1.45,5.66-7.62,6.14c-32.61,11.07-19.52,44.54-8.33,67.99
	c0.95,2.52-0.52,3.29-2.92,3.97c-14.57,1.27-27.22,4.61-33.33,19.2c-13.08,31.25-1.44,62.85,14.04,90.84
	c1.71,4.45,0.96,4.89-3.4,4.94c-31.33-9.34-68.6-9.46-67.72,32.15l3.48,24.98c-0.42,2.17-1.07,3.54-3.42,3.06
	c-29.25-8.6-60.74,3.25-77.84,28.35c-26.92,39.51-21.68,86.36,2.88,125.66c1.36,3.09-0.46,3.3-3.64,3.32
	c-30.83-7.84-55.71-3.63-68.1,28.12l-7.37,27.39c-1.31,1.81-2.48,2.8-4.37,1.3c-13.63-13.96-29.93-22.18-49.68-20.28
	c-35.93,3.46-16.86,61.51-7.39,81.29l-1.23,1.93c4.06,3.34,0.02,7.93-5.51,7.09c-11.53-5.57-19.68-3.87-26.44,7.12
	c-3.64,1.86-6.95-2.65-3.2-4.5l-1.92-0.67l0.45-113.19c12.24-18.82,25.08-37.34,39.25-54.71c8.46-4.44,17.4-8.08,26.83-10.93
	c4.61-2.52,6.96-4.35,2.2-8.49c-7.96-6.93-24.77,8.87-29.71,15.05c-9.51,13.63-19.77,26.72-30.79,39.26
	c-2.62,3.06-5.14,5.83-7.73,2.26l0.04-43.32c10.76-17.24,22.09-34.2,33.99-50.88c9.4-3.91,19.27-6.78,29.63-8.62
	c7.92-3.85,3.38-11.36-2.71-11.42c-18.9-0.19-36.51,23.89-45.05,38.65c-2.33,3.16-9.92,13.32-13.79,11.9
	c-0.68-0.25-1.04-1.4-1.3-2.81c-2.04-21.6-1.18-43.49,0.5-65.07c17.68-1.85,33.1-4.23,48.63-13.4c4.47-2.64,8.14-9.44,8.6-14.55
	c1.59-17.43-17.83-12.13-26.94-6.39c-5.2,0.89-4.76-5.21-4.02-8.88c9.36-21.08-15.86-29.47-27.3-12.46
	c-1.61,1.37-3.04,1.36-4.6-0.07c-18.48-18.48-35.32-4.47-27.82,18.82c-3.82,3.44-8.67,2.73-14.56-2.13
	c-24.09-1.41-16.83,28.61,2.54,32.64c10.33,2.54,20.81,4.25,31.44,5.12c4.69,1.93,6.93,6.25,6.72,12.96
	c1.17,19.32,1.51,38.62,1,57.91c-1.56,5.46-5.06,1.8-7.8-1.42l-25.09-31.18c-5.71-8.51-29.51-25.3-37.51-13.85
	c-2.37,3.39,0.31,7.44,3.75,8.95c10.09,1.37,20.16,2.94,30.22,4.71c11.09,18.09,22.9,35.71,36.67,51.89
	c0.89,14.19,1.46,28.45,0.02,42.62c-0.59,3.12-2.11,2.75-4.68,1.47c-11.84-18.29-25.58-34.62-41.21-49
	c-5.53-4.12-18.24-10.47-22.26-2.05c-1.4,2.93-1.17,3.86,1.76,4.99c17.13,3.45,29.27,8.75,40.06,23.47
	c9.33,12.74,18.25,26.22,26.34,39.8l0.69,110.71l-1.91,1.19l-1.47,2.07c-9.66,1.2-13.91,9.47-16.6,17.91
	c-1.51,1.68-2.5,1.21-4.14-0.31l-10.34-11.5c-2.34-2.32-2.72-4.28-1.14-5.86l-0.53-3.65c28.11-62.7,4.84-132.41-70.01-139.75
	c-3.27-0.8-5.46-1.44-3.92-4.66c45.17-96.28-32.54-218.42-141.72-202.12l-1.54-2.68c-1.05-11.67-5.54-20.83-13.49-27.48
	c-2.64-0.71-4.29-2-4.95-3.86c-2.37,1.08-3.6,0.72-3.68-1.08c-1.24-1.48-1.68-3.72-1.3-6.73c-2.55,0.16-2.46-0.81-0.03-1.61
	c-1.38-3.21-1.83-6.23-1.35-9.07c1.2-0.42,2.36,0.01,3.48,1.31c0.08-0.84,0.34-0.81,0.75,0c3.6,2.98,8.89,3.92,12.84,1.08
	c0.12-0.9,0.39-0.9,0.82-0.07l3.82-2.11l0.59-2.68c9-6,10.84-14.29,10.43-24.41l-2.4-21.67c2.13-5.05,4.71-1.85,7.26,1.47
	c8.24,14.07,12.42,29.81,12.56,47.21c1.86,11,2.82,16.09,15,9.65c18.82-9.94,25.58-31.78,22.31-51.9l1.46-2.64
	c0.79-0.02,1.57-0.01,2.32,0.14c0.73,0.14,1.42,0.3,1.92,0.69c15.83,12.12,31.04,33.2,41.01,50.47c2.57,4.45,2.39,7.23-0.09,11.65
	c-6.35,5.52-8.77,11.34-7.26,17.47c2.97-4.1,6.54-6.37,10.73-6.82c3.4,6.13,6.33,12.55,8.8,19.26c2.7-7.12,2.49-14.61-0.63-22.47
	c0.11-1.88,1.43-2.36,3.26-2.36c5.3,2.66,18.14,5.58,7.26-2.07c-5.66-3.98-11.49-5.78-18.14-7.43l-5.4-13.59
	c-9.43-16.55-21.04-31.7-34.83-45.44l-0.43-3.48l1.96-2.38c15.76-3.74,22.98-13.83,28.47-28.13l9.27-36.42
	c3.19-26.18-15.74-39.25-39.5-43.1c-2.25-1.4-1.47-2.48,0.29-4.35c16.52-9.43,32.95-25.14,27.9-45.9l1.29-2.63
	c13.6-0.67,25.02,8.2,29.47,21.43c2.9,8.62,3.09,17.56,1.63,26.7l22.42-4.25c18.11-3.43,32.58,8.43,38.3,25.73
	c5.53,16.7,3.06,33.9-2.9,52.01c10.35-3.63,21.05-6.34,31.78-3.16c23.28,6.91,22.99,31.67,22.86,50.79
	c9.56-6.52,18.23-12.9,29.06-9.55c16.95,5.24,27.35,21.14,30.37,38.45c3.18,18.28-2.04,34.89-7.53,53.8
	c14.86-1.6,28.75,0.32,39.32,9.51c9.98,8.69,15.31,21.21,16.83,35.23c1.46,13.38-6.09,24.4-6.06,38.99
	c10.48-21.68,17.78-42.76,31.77-61.56c29.1-39.12,68.75-45.68,115.28-36.96c-11.69-27.76-19.76-53.6-15.27-81.82
	c0.46-2.92-0.23-5.99,3.12-6.19l3.13,1.05c9.26,11.34,22.01,20.17,34.34,27.25l-2.38-14.41c0.68-2.61,1.1-3.77,3.99-2.56
	c6.38,5.43,13.18,9.6,20.42,12.52c-1.9-8.74-7.21-17.78-12.42-25.66l-0.2-3.53l-5.62-7.16l-21.79-39.45c0,0-0.41-2.07-1.24-6.21
	c2.97-2.35,5.94-6.36,7.82-10.2c14.28-29.25,40.56-44.55,74.06-46.52c-7.78-13.65-13.05-26.33-8.82-40.08
	c5.1-16.59,22.06-24.17,39.55-22.21c-6.55-13.43-13.55-26.3-11.34-40.63c1.72-11.17,9.73-18.96,17.78-22.61
	c11.25-5.11,21.34-3.07,33.56,0.67c-1.79-14.26-5.68-27.16-2.92-40.53c3.19-15.42,13.01-28.42,27.18-31.67
	c15.77-3.62,29.67,3.54,40.24,16.35C1161.78,686.79,1171.65,663.63,1200,658.38z"/>
<path class="st3" d="M431.97,129.12l28.64,17.31c-69.44,56.97-156.19,21.09-174.31,21.32l-2.37-1.39c-0.82-0.11-2.05,0.3-2.82-0.06
	c-1.15,0.2-1.44,0.74-0.78,1.65c19.91,7.9,36.22,20.25,51.27,36.35c17.63,18.83,31.59,40.72,43.69,65
	c-45.85,10.63-89.01,18.17-131.85-4l-76.8-45.94c-17.65-10.56-34.73-20.68-52.3-30.26l-1.07-1.1c-1.24-1.27-3.46-1.73-4.77-2.69
	c-0.8-0.56-1.4-0.32-1.81,0.63l46.51,37.16c55.59,45.11,71.5,105.3,62.79,175.74c-57.3-10.19-115.01-42.29-144.96-91.51
	c-0.63-0.62-1.27-1.35-1.89-2.19c-1.06-3.4-4.03-5.77-4.83-9.26c-0.61-0.61-1.21-1.36-1.82-2.27l-25.42-55.59
	c-1.18-0.76-1.74-0.7-1.7,0.17c6.61,24.66,24.31,47.29,27.12,71.75c0.59,0.62,1.16,1.37,1.71,2.23l2.14,7.36
	c7.56,21.49,15.5,42.93,23.83,64.33c0.76,3.13,2.68,6.1,2.32,9.46c0.59,0.37,0.88,1.1,0.89,2.2c-0.05,0.55,0.12,1.13,0.04,1.68
	c0.38,1.49,0.89,2.91,1.52,4.23l0.06,1.59c-0.18,1.31,0.13,2.37,0.92,3.19c4.22,14.27,2.17,39.99,1.68,53.36
	c-0.42,1.22-0.84,2.36-1.24,3.43c0.05,0.43,0.12,1.03,0.04,1.46c0.29,1.09,0.54,2.18,0.65,3.29c0.12,1.09,0.21,2.15,0.03,3.16
	c-3.57,19.74-7.52,39.57-13.53,58.73c-0.46,1.73-1.01,3.13-1.92,3.42c-4.55,1.43-45.79-35.89-52.72-42.77
	c-0.72-0.72-1.22-1.68-1.73-2.66c-0.51-1-0.9-2.05-1.25-3.13c-3.69-1.9-6.49-4.94-8.41-9.14C10.94,465.59,3.89,454.48,0,443.52
	V128.64L431.97,129.12z"/>
<path class="st4" d="M156.37,465.56c0.73,1.91-0.14,4.07-2.63,6.5c0,0-1.09,2.76-3.27,8.27c0.47,2.22,0.21,4.02-0.78,5.4
	c1.05,1.25,0.7,3.19-1.06,5.83l-0.05,2.75l-0.44,3.37c-12.11,25.39-24.18,51.53-30.26,78.99c13.29-19.5,27.86-37.94,43.71-55.35
	c0,0,1.77-0.87,5.3-2.62c11.58-11.4,24.81-21.94,37.53-31.79c2.69,1.24,6.81,4.31,7.69,7.17c-6.79-2.31-34.55,25.22-39.52,30.2
	l-1,3.72c-10.79,9.86-20.03,20.92-27.72,33.18c7.56-11.76,17.26-21.89,29.65-28.99c1.24,1.03,2.47,0.67,3.83,0.16
	c22.52-10.77,49.95-11.64,73.56-1.57c-6.3,7.13-13.13,12.71-20.47,17.46l-1.48,3.24c-23.98,18.03-51.98,27.29-81.47,18.4
	c-4.38-0.48-8.74,1.43-12.12,4.05c-10.68,8.28-22.94,29.33-28.42,42.02C80.53,677.18,69.38,742.64,67.5,809.12l-1.3,4.14
	c1.26,3.39,1.89,5.09,1.89,5.09c-2.89,41.36,1.4,81.37,7.46,121.03c4.21-24.91,9.03-49.89,14.45-74.93
	c3.49-14.31,8.28-28.08,14.38-41.31l2.27-2.24l-1.07-2.37c5.56-8.32,10.18-17.01,13.86-26.08c1.62-12.56,3.92-25.4,11.9-35.7
	l42.63-48.38c2.05,0.01,2.28,0.18,3.55,1.88c0.53,0.71-0.53,16.86-0.83,17.69l-2.05,2.64l0.57,2.67
	c-3.93,9.38-11.66,24.11-18.75,31.15c-0.03,0.03,0.25-0.32,0.66-0.35c0.79-0.06,1.52,0.54,2.15,1.11
	c6.29-3.6,25.16-11.89,31.43-10.56c0.79,0.17,1.55,0.47,2.31,0.8c4.12-0.7,16.55-0.5,19.17,2.52c1.88,2.17,2.43,3.1-0.1,5.07
	l-31.84,23.24c-14.27,9.37-32.98,20.87-50.26,15.77c-4.61,7.04-8.51,14.51-11.7,22.4l-2.19,1.34l-0.4,4.8
	c-11.3,22.08-17.1,46.36-21.95,70.54c0,0-0.92,1.33-2.75,4c-0.44,1.09-0.96,2.18-1.57,3.28c2.85,0.24,2.55,2.86-0.12,3.45
	c0.28,0.94,0.15,1.93-0.83,2.32c3.04,0.28,2.49,8.61-0.35,9.2l-1.56,2.32c0.47,1.17,0.9,2.35,1.19,3.57
	c0.29,1.2,0.55,2.38,0.52,3.55c-0.41,17.44-2.35,35.49-4.25,52.87c-0.13,1.16-0.55,2.3-0.98,3.45c-0.44,1.16-1.01,2.28-1.62,3.38
	c-0.4,1.15-0.92,2.88-1.57,5.19c2.93-0.34,2.74,6.83-0.07,7.34l-0.06,2.25c2.72,1.91,1.45,9.47-1.18,11.14
	c-0.69,0.86-0.96,1.95-0.83,3.26l1.48,0.28c16.84-35.66,45.39-66.61,80.64-85.93c0.56-0.3,1.28-0.33,2.04-0.35
	c0.78-0.02,1.57,0.09,2.35,0.24l0.91-2.35c2.28-0.19,4.43-0.71,6.44-1.55c2.04-14.6,16.41-22.78,28.75-28.41
	c18.71-7.29,37.78-13.37,57.22-18.25c2.66,0.45,3.6,0.68,3.03,3.46c-0.64,3.09-11.63,18.11-14.51,20.26l-4.39,1.88l0.03,2.11
	l-26.1,12.33c6.78,1.55,13.16,4.77,19.13,9.66c3.26,0.87,5.58,2.25,6.95,4.12c5.13,1.46,19.07,11.86,19.1,16.88
	c0.01,1.61-0.15,2.46-2.11,2.65c-21.42,1.96-42.38,0.82-62.88-3.41c-5.86-1.84-15.34-4.84-17.13-10.77l-1.91,1.26
	c-7.66-2.43-15.99,1.84-22.41,6.06c-30.59,20.11-57.3,58.87-73.56,91.14c-7.18,23.94-14.26,48.08-21.24,72.41l1.06,2.34
	c-1.74,8.12-3.81,16.14-6.21,24.07l-2.56,0.72c-3.05,10.41-5.95,20.85-8.71,31.3l2.08-2.47c0.86-2.48,2.14-3.77,3.84-3.88l2.02-1.63
	c16.96-31.75,40.87-62.01,68.46-85.94c10.44-9.05,26.93-22.67,39.24-28.09c6.97-3.07,7.63-2.88,3.13,3.39
	c-41.81,30.18-76.89,67.08-102.2,112.14l-4.07,3.11l0.62,2.14c-3.66,3.23-6.33,7-8.03,11.32l-2.08,0.71
	c-9.38,10.94-12.88,23.9-15.78,38.11c-8.94,43.83-8.62,87.33,2.34,131.6c6.93-42.97,18.39-87.21,52.15-117.27
	c-1.65-25.09,17.67-39.34,37.05-50.73c12.35-6.38,24.51-13.07,36.48-20.08c1.56-0.6,2.14,0.02,2.85,1.27
	c1.81,3.17-2.61,16.15-7.33,16.94l0.84,0.97c-8.26,8.91-16.78,17.68-25.56,26.33l32.85,2.68l1.24,2.03
	c1.73,0.41,3.24,1.43,4.54,3.06c2.66,1.14,14.86,8.49,11.63,12.3c-0.4,0.47-1.02,0.76-1.71,0.99c-15.95,2.43-31.44,7.17-46.46,14.22
	c-12.29,4.27-27.19,5.94-38.62-1.06c-20.54,22.24-35.08,48.5-40.99,78.34c-5.52,27.88-9.21,56.11-11.26,84.46
	c6.5-32.07,15.9-61.28,40.1-84.58c25.76-24.81,56.8-42.66,91.5-51.65c3-0.86,3.71,0.29,4.42,2.74l-26,66.22
	c-14.48,30.38-37.76,55.98-67.17,72.76L45.6,1437.3c-5.53,3.49-6.7,7.4-7.59,13.47l-2.67,72.66c0.49,25.88,0.43,51.75-0.18,77.6
	c0,0,4.2-7.81,12.61-23.43l3.17-2.11c51-68.07,119.28-122.63,196.16-158.77c6.36-2.99,28.32-12.5,34.03-11.14
	c5.14,1.22,5.12,2.14,0.52,4.86c-81.79,33.95-154.86,87.43-210.38,156.39l-0.43,3.09l-0.7,3.45c-23.6,26.1-39.93,60.32-43.2,95.5
	l-2.05,2.9c-6.05,0-12.11,0.52-18.12-0.3c-1.65-1.79-2.47-2.68-2.47-2.68C3.51,1656.4,2.08,1644.15,0,1632v-32.64l3.01,1.17
	c6.63,14.68,10.81,30.33,12.54,46.95c4.28-9.5,6.12-20.36,6.3-30.87l-0.46-130.14c-2.47-23.2-10.39-49.1-21.39-69.51v-27.84
	c0.72-0.25,1.85-0.51,2.11-0.04c5.34,9.71,10.95,21.73,15.43,31.94c2.09,4.75,3.95,9.03,4.71,14.16l1.6,2.29
	c-0.97,1.22,0.8,13.32,0.84,12.68c2.67-36.47-1.01-73.08-9.11-108.51c-1.24-13.76-4.02-27.04-8.34-39.83
	c-2.79-5.03-5.21-10.17-7.25-15.42v-52.8l2.76,1.15c3.88,10.94,6.37,22.35,7.49,34.23c2.28-39.15,12.99-77.32,24.08-114.76
	c0.23-0.77,0.73-1.47,1.27-2.18c0.55-0.73,1.2-1.38,1.88-2l-0.26-4.36c6.11-17.45,12.14-38.68,0.73-55.25l0.23-2.82
	c1.07-1.3,2.44-1.13,4.11,0.5c-5.14-33.77-14.17-66.03-27.56-97.51C10.56,980.77,5.7,970.92,0,962.88v-3.84
	c0.78,0.12,1.55,0.28,2.27,0.56c0.69,0.27,1.34,0.56,1.79,1.03c29.48,31.01,40.08,85.74,47.38,126.6l2.83-6.5
	c0.21-3.07,1.14-5.2,2.79-6.4c0.87-4.61,2.33-9.06,4.39-13.33c7.14-27.01,9.61-54.72,7.41-83.14l1.85-2.24
	c-0.44-1.19-0.88-2.32-1.34-3.37l-1.98-1.44c-4.86-37.18-8.81-74.88-11.84-113.1l-10.63-22.04c-14.17-5.07-31.36-16.85-39.55-29.66
	l-0.45-3.75l-2.34-0.47L0,795.84v-72l3.41-0.12c16.46,9.72,35.02,26.61,44.05,43.54c2.75,5.16,7.73,17.04,7.19,22.59
	c-0.11,1.17-0.92,2.12-1.7,2.93c0.52,0.68,1.05,1.47,1.59,2.36c0.82,0.11,0.84,0.4,0.11,0.87c1.36,1.4,2.56,0.13,3.61-3.82
	l-1.83-1.06c1.42-14.97,2.83-29.96,4.25-44.94l2.02-0.96l1.32-2.42c-2.07-1.21-2.7-3.99-1.87-8.34c-0.73-3.96-0.07-6.57,1.96-7.85
	c-0.96-5.21-1.16-13.76,3.99-16.11c-0.4-2.88-0.18-5.66,0.34-8.5c2.48-13.5,6.12-27.58,9.97-40.7l1.57-2.5
	c-0.58-1.3,0.11-3,1.68-3.11c-1-0.87-0.88-2.22,0.35-4.05c1.75-9.61,4.74-19,8.96-28.15c12.65-43.7,26.88-87.4,45.23-128.92
	c2.04-7.47,1.11-15.71-4.01-21.72l0.26-2.51l-0.12-1.67c-0.56-0.65-1.09-1.42-1.61-2.3c-0.2-1.51-0.73-2.93-1.14-4.39
	c-1.05-0.18-1.4-1.37-1.05-2.27l-0.05-1.61c-0.58-0.5-1.08-1.28-1.49-2.33c1.18-18.91-5.79-39.53,3.25-58.51
	C151.25,414.39,157.65,440.65,156.37,465.56z"/>
<path class="st5" d="M1147.98,1234.45l2.58,0.65c2.22,4.27,3.32,8.92,3.3,13.94c0.93,1.08,1.84,2.18,2.62,3.36
	c0.78,1.17,1.53,2.33,2.01,3.59c10.51,27.24,20.27,56.93,26.55,85.43c0.29,1.32,0.29,2.7,0.27,4.1c-0.02,1.42-0.19,2.83-0.39,4.24
	c0.65,0.69,1.26,1.4,1.76,2.18c0.49,0.76,0.93,1.51,1.11,2.32c7.34,33.52,6.17,70.51-3.6,103.37c2.66-6.91,6.38-12.91,11.16-18.02
	c1.68-1.39,3.07-1.67,4.64,0.13v22.16l-2.41,4.69c-27.8,25.4-46.15,59.59-55.33,95.89l-3.02,4.33c-2.57-1.17-3.96-3.88-4.15-8.13
	c-1.63-14.96-2.4-29.96-2.31-45c-1.89,0.15-2.73-1.03-2.52-3.56c-0.43-2.91-1.12-8.83,1.3-10.39c-0.48-1.05-0.93-2.16-1.36-3.34
	l-2.06-2.57c-2.38-33.74-4.28-71.78-2.75-105.49c0.02-0.48,0.3-0.96,0.64-1.44c0.36-0.52,0.83-0.96,1.33-1.38
	c0.49-3.07,0.93-6.11,1.33-9.12c-3.02-0.65-2.8-9.59,0.11-10.44l-1.21-0.44c1.64-22.51,4.2-44.97,7.68-67.4l1.63-0.96
	c0.56-0.79,0.81-1.29,0.77-2.31c-0.52-0.44-0.97-0.91-1.18-1.47c-0.78-2.03,2.39-10.98,3.37-13.69l-0.57-1.3
	c2.39-7.85,1.83-6.13-1.7,5.17c-4.47,24.31-7.8,48.81-10.01,73.5c0,0-0.78,1.71-2.35,5.12c1.13,5.3,1.63,10.64,0.32,15.93
	c-3.13,46.28,0.45,91.53,4.26,137.54c0.3,3.59-0.1,7.18-0.59,10.74c1.58,2.27,2.37,3.41,2.37,3.41c0.76,12.87,3.26,25.22,5.87,37.75
	c0.28,1.37-0.15,2.74-0.7,4c1.14,0.11,1.59,0.48,1.77,1.53c0.33,1.95-0.45,10.64-3.07,10.71c-0.46,1.31-0.92,2.74-1.37,4.3
	c3.15,0.31,2.46,5.65-0.55,5.49c-2.41,5.08-5.74-0.73-6.99-4.06c-1.05-12.82-2.55-25.57-4.49-38.25c-1.83-0.77-1.82-1.8,0.01-2.58
	c-0.52-2.63-1.06-5.32-1.6-8.06c-2.89,0.47-2.94-5.82-0.19-6.37c0.13-1.31-0.11-2.4-0.73-3.25c-1.62-1.13-2.39-3.14-2.32-6.01
	c-2.12-4.65-2.64-8.96-1.54-12.94c-0.92-0.54-0.98-1.16-0.18-1.86c-0.69-0.7-1.2-1.8-1.52-3.3l-2.41-2.41
	c-2.13-9.79-6.36-18.95-11.49-27.52l0.15-3.43l-0.74-0.95c-0.85-0.08-0.84-0.39-0.08-0.89l-3.88-4.89c-1.9-0.2-1.9-1.06-0.11-1.78
	l-1.04-1.07c-2.51,0.08-2.87-0.45-1.9-2.76l-0.93-1.07c-0.91,0.03-0.9-0.23-0.09-0.77l-2.77-3.22c-0.81,0.28-0.86,0.03-0.24-0.68
	l-10.24-12.84c-0.86,0.19-0.87-0.03-0.11-0.61l-6.81-7.79c-1.73,1.83-2.16,1.35-1.75-1.09l-0.88-0.88
	c-2.34,1.76-5.38-3.84-3.23-5.65l-1.62-3.01c-0.17-5.59-0.06-24.9,1.38-29.04c0.4-1.14,1.38-1.92,2.35-2.56
	c-0.32-0.98-0.6-1.97-0.74-2.98c-0.14-0.98-0.23-1.95-0.06-2.86c9.94-52.8,36.65-111.96,75.93-149.29c0.66-0.63,1.53-1.05,2.44-1.46
	C1146,1234.99,1146.98,1234.7,1147.98,1234.45z"/>
<path class="st2" d="M132.45,470.34c7.48,7.18,8.41,19.34,4.12,28.83c-18.03,39.87-30.64,80.49-42.95,122.29
	c-3.52,11.94-9.77,22.31-11.96,34.23c-1.24,2.38-2.38,1.71-1.97-0.89c-2.68,0.12-2.53-1.3-0.02-2l1.77-2.1l-1.83-1.85
	c1.88-11.15,0.76-21.5-3.37-31.03l0.64-2.44l-1.46-2.66c2.65-14.28-0.63-34.73-10.97-45.29c-0.27-0.27-5.09,4.13-5.79,4.87
	c-5.68,8.52-9.08,18.36-10.21,29.54l-2.26,0.94c0.08,5.91-0.55,11.75-1.87,17.54c-4.8,23.21-0.49,40.24,12.63,58.69l-0.88,2.57
	l2.65,1.31c3.3,14.24,5.1,28.81,5.39,43.73l-0.09,16.19l-1.32,2.42l-4.44,46.97c-1.13,4.93-2.33,6.21-3.61,3.82
	c-0.06-0.26-0.12-0.6-0.11-0.87c-0.51-0.69-1.04-1.48-1.59-2.36C51.47,763.46,25.29,739.54,0,723.84V481.92
	c2.33-2.29,5.7-2.9,10.1-1.82c6.12-0.02,11.4,1.44,15.83,4.39c16.45,17.23,34.83,31.92,55.28,47.26
	c6.9-22.6,10.74-45.01,15.18-67.29C108.99,462.84,120.7,466.31,132.45,470.34z"/>
<path class="st3" d="M1167.44,816.88c2.71,0.67,4.69,2.83,5.95,6.48c-0.63,5.09-1.06,10.19-1.27,15.3c0.03,1.36,0.72,2.17,2.05,2.45
	c2.3-0.7,4.82-1.7,7.06-1.01c8.64,2.66-3,35.35-25.01,40.09l0.59,42.49l1.87,1.2c-2.62,40.18-2.47,80.96,0.44,122.35
	c10.57-14.07,21.27-27.66,32.1-40.77c-4.92-9.53-4.69-21.87-0.32-31.67c1.7-3.83,4.67-10.31,9.1-10.03v44.05l-1.72,4.97
	l-39.24,46.02l-0.14,68.9c12.13-16.61,24.53-33.03,37.2-49.26l3.9-2.36v11.43c-0.28,1.23-0.59,2.46-1.03,3.63
	c-0.43,1.16-0.86,2.29-1.51,3.28c-11.58,17.61-25.13,34.42-38.73,50.49c0.77,32.68,0.03,65.31-2.21,97.88c0,0-0.89,2.09-2.66,6.26
	c-1.81-4.81-3.23-10.34-5.88-14.6l-1.92-0.64l-0.25-41.23c-28.1-45.9-55.53-92.22-82.28-138.94c-2.34-4.96-9.56-23.71-5.12-27.17
	c1.99-1.56,10.96,12.05,12.6,14.83c24.19,43.73,48.92,87.32,74.19,130.77l-1.4-108.1c-15.79-27.81-32.34-56.6-60.91-72.15
	c-5.88-3.76-14.36-13.76-14.1-20.96c0.19-5.25,3.65-4.34,7.62-2.72c0.11-5.65-0.4-11.41-1.52-17.31
	c0.04-22.58,24.92-16.56,30.41,0.33c4.9-3.91,5.58,0.42,5.81,4.67c1.5,4.84,3.63,9.48,6.39,13.92c1.44,9.89-0.57,19.8-6.03,29.72
	l33.41,48.92l0.08-133.97c1.24-11.73,0.74-23.21-1.49-34.44c-6.86-2.07-13.21-6.32-18.32-11.31c-3.84-3.75-9.88-9.98-8.7-15.29
	c0.24-1.92-0.39-4.75,1.09-6.26c1.36-1.39,3.95-0.02,6.29,0.5c2.45-3.72-4.53-17.86,2.93-20.85c1.49-0.6,2.85,1.53,5.06,1.86
	c2.11-11.1-1.93-41.64,14.1-43.37C1164.7,783.24,1164.88,806.82,1167.44,816.88z"/>
<path class="st6" d="M1200,1461.92v209.95l-70.2-0.12c-0.55-0.92-1.07-1.85-1.46-2.83c-0.38-0.97-0.74-1.91-0.8-2.88
	c-1.4-21.6-0.73-45.73,3.07-67.03c0.17-0.95,0.63-1.85,1.12-2.77c0.5-0.93,1.13-1.8,1.79-2.65c0.34-1.81,0.81-3.63,0.55-5.49
	c0.42-1.56,0.88-2.99,1.37-4.3l1.3-12.24c-0.04-2.56,0.79-4.13,2.49-4.71C1148.45,1526.74,1168.68,1488.77,1200,1461.92z"/>
<path class="st7" d="M4.93,802.27c10.64,14.29,23.52,25.58,41.15,31.99l11.33,23.08c1.59,27.17,3.67,52.44,7.97,79.82
	c1.5,9.52,3.74,26.32,4,35.1c0.48,1,0.93,2.12,1.34,3.37c0.78,25.18,2.22,75.09-13.66,98.71l-2.18-2.45
	c0.01-7.05,0.02-10.58,0.02-10.58c8.09-49.93-11.81-100.73-52.82-131.03L0,926.4V802.56C1.46,800,3.19,799.9,4.93,802.27z"/>
<path class="st7" d="M1200,1338.12c-3.31,6.41-7.92,10.91-13.82,13.5l-1.25-1.85c-7.26-34.38-18.7-67.77-31.07-100.73
	c4.39-34.46,2.37-69.03,3.15-104.8c15.75-18.22,29.29-37.36,42.99-56.74V1338.12z"/>
<path class="st7" d="M1200,901.57v62.19c-10.75,10.99-13.45,27.1-7.04,41.83l-35.31,45.67c-3.66-32.15-3.5-62.66-2.23-94.03
	l1.39-34.55C1171.02,910.18,1174.5,896.58,1200,901.57z"/>
<path class="st8" d="M0,1599.36v-182.4c11.01,4.85,23.49,62.77,23.51,72.21l0.26,127.46c0.03,13.28-3.68,26.05-8.52,38.16
	C10.21,1635,10.19,1614.5,0,1599.36z"/>
<path class="st8" d="M37.48,1150.03c-11.34,41.34-26.62,87.57-25.28,132.29c-7.05-16.68-4.32-34.71-12.2-48.73v-151.68
	c0.7-0.02,1.4,0,2.07,0.15c4.95,1.07,15.27,17.86,18.2,23.07c5.68,10.1,14.5,28.72,17.22,39.68L37.48,1150.03z"/>
<path class="st9" d="M57.06,1074.34c0.81,6.7-4.89,14.52-6.35,21.11C44.32,1049.9,31.09,991.73,0,959.04V926.4
	c35.91,25.17,58.45,66.49,58.56,111.29C58.59,1050.56,55.5,1062.16,57.06,1074.34z"/>
<path class="st7" d="M1200,1007.8v68.27c-13.3,20.33-30.64,36.88-43.03,58.96l0.14-76.91L1200,1007.8z"/>
<path class="st9" d="M38.18,1087.6l-4.56-2.34c-10.41-10.88-21.01-21.59-31.78-32.14l-1.84-4.8v-85.44
	c2.45-0.07,4.63,2.79,6.17,5.69c20.13,37.72,32.23,79.71,38.18,121.93C40.47,1090.24,39.93,1088.37,38.18,1087.6z"/>
<path class="st7" d="M38.18,1087.6c14.31,17.08,6.8,43.68-0.7,62.43c-9.52-23.92-18.28-51.11-37.48-68.11v-33.6
	C12.24,1061.8,26.4,1073.55,38.18,1087.6z"/>
<path class="st8" d="M22.25,1435.18c-0.98-2.68-0.98-4.55-0.01-5.63c-0.67-0.67-0.77-1.58-0.07-2.2l-1.99-3.49
	c-0.64-26.1-4.28-53.12-18.65-75.5L0,1343.04v-56.64c9.56,10.45,13.58,26.17,15.4,41.17c2.81,23.15,9.53,44.95,10.96,68.09
	c1.36,21.99,0.27,42.91,0.08,65.26C22.31,1452.21,20.84,1443.04,22.25,1435.18z"/>
<path class="st9" d="M1200,1338.12v101.65c-9.52,0.84-12.99,23.75-20.15,25.3c13.39-38.38,13.11-77.22,5.07-115.29
	C1192.26,1349.91,1193.11,1340.2,1200,1338.12z"/>
<path class="st9" d="M22.17,1427.35c-0.46,0.85-0.44,1.58,0.07,2.2c0.51,1.83,0.34,3.79,0.01,5.63L0,1389.12v-46.08
	C17.78,1366.47,21.72,1397.9,22.17,1427.35z"/>
<path class="st0" d="M25.94,484.49C17.35,483.06,8.7,481.1,0,481.92v-38.4C8.96,456.71,16.47,471.17,25.94,484.49z"/>
<path class="st8" d="M6.77,1671.44c-2.12-0.29-4.61,1.01-6.77,0.88V1632C6.39,1643.16,3.8,1658.27,6.77,1671.44z"/>
<path class="st2" d="M4.93,802.27c-1.63,0.23-3.28,0.32-4.93,0.29v-6.72C3.43,796.1,3.39,800.19,4.93,802.27z"/>
<path class="st10" d="M542.29,860.38c7.05,23.99-11.25,40.64-29.94,51.17c28.01,2.99,47.82,22.4,41.14,48.45l-7.93,30.92
	c-4.42,17.22-15.79,29.23-32.95,32.38l-2.18,1.49c-9.96-4.26-19.09-9.97-27.39-17.12c11.79-18.35,19.71-36.98,21.61-58.94
	c2.03-23.47-3.05-46-13.04-67.22l3.18-5.61c-7.61,6.28-16.7,9.96-27.29,11.05c-7.49,2.37-11.39,5.04-14.56,12.71
	c-14.68,35.52-20.96,61.68-14.69,100.22c0.57,3.52,5.46,9.84,9.46,9.21c22.75-9.13,39.8,0.26,56.09,15.6l0.28,2.61
	c5.21,25.04-5.6,53-31.9,59.62c-15.81-0.68-2.44-44.27-24.82-64.99c0.22,17.46,10.07,37.61-10.51,50.36l-3.82,2.11
	c-0.25-0.01-0.58-0.01-0.82,0.07c-3.85,2.88-9.31,1.93-12.84-1.08c-0.22-0.08-0.52,0.06-0.75,0c-2.96-1.48-4.22-0.89-3.79,1.77
	l1.66,5.99l0.03,1.61c0.15,2.68,0.29,5.45,0.19,8.04c1.83,0.35,1.77,1.11-0.09,1.41l-1.06,2.29c2.87-0.33,2.64,5.05-0.1,5.43
	c-0.42,1.05-1,1.82-1.74,2.31c1.82,0.39,1.71,1.12-0.16,1.44c-2.53,3.81-4.89,7.67-7.08,11.57l-2.2-0.75l-0.91,2.3
	c-5.68,3.37-17.01,7.56-23.47,6.51c-2.2-10.14-6.2-19.72-12.01-28.72c0.14-0.7,0.25-1.39,0.21-1.34c-3.59,4.2-6.93,8.03-11.9,10.71
	l-1.08,93.41c0.65,4.51,4.38,9.52,8.18,11.97c14.46,2.81,29.2,5.69,42.72,11.86c2.38,1.09,4.78,2.27,7.01,3.64
	c4.68,2.89,7.35,5.06,10.36,9.77c3.02-1.74,8.53,2.81,5.71,5.63c0.7,0.57,1.35,1.28,1.95,2.12c2.72-0.02,3.01,0.71,1.04,2.6
	c0.59,0.68,1.2,1.45,1.81,2.33c2.67-0.94,3.37,2.15,0.97,3.49c1.2,1.04,1.54,2.74,1.01,5.11c1.86,0.33,1.89,1.11,0.05,1.56
	c1.51,1.99,1.5,5.06,0.02,7.06c2.63,0.66,2.52,1.78-0.09,2.5c0.36,1.92,0.04,3.33-0.98,4.23c2.84,0.31,2.47,2.91-0.22,3.42
	c-0.92,2.72-2.16,5.08-3.72,7.08c0.83,0.03,0.77,0.26-0.05,0.66l-2.82,3.14c2.17,1.38,1.59,2.12-0.9,1.6l-7,6.85
	c1.24,2.23,0.38,2.62-1.61,1.02c-0.52,0.75-1.23,1.4-2.15,1.95c0.36,1.78-0.35,2.2-1.68,0.93c-0.44,0.72-1.14,1.33-2.12,1.83
	c0.07,2.73-2.09,3.46-3.55,1.08c-0.32,1.09-1.39,1.42-3.21,0.99c-0.64,2.86-3.97,2.43-4.7-0.13c-2.07-0.24-3.63-6.78-3.92-9.01
	c2.71-11.48-1.58-22.47-6.09-32.99c-0.68-1.64-0.82-3.22-0.41-4.75c-1.51,0.4-2.93-0.65-4.26-3.16c2.98,13.8,5.18,29.08-6.36,39.61
	c1.45,2.11-0.68,4-2.93,3.37l-4.55,4.89c0.76,2.43-0.03,2.63-2.06,1.19c-1.19,0.98-2.54,1.91-4.05,2.76
	c-1.38,4.2-8.87,3.82-12.88,3.35c-31.64-3.68-29.25-35.91-16.14-56.41l2.32-0.46l1.8-2.17c-0.89-0.11-0.83-0.39,0.04-0.83l0.93-0.92
	c-0.83-0.21-0.78-0.54,0.04-0.96c6.35-10.96,8.66-22.12,6.93-33.47c-5.73-14.85-13.76-28.67-24.07-41.45l-99.02,17.9
	c-16.36,4.67-31.92,11.76-46.69,21.28c3.91,0.44,5.73,1.76,5.47,3.98c-0.21,3.01-3.94,3.32-4.55,0.33l-3.37,1.33
	c0.19,1.91-10.96,3.44-11.72,3.2c-1-0.32-1.78-0.97-2.36-1.85l-38.88-3.18l29.5-28.83l2.92-2.48c10.04-3.44,19.53-8.17,28.47-14.19
	l2.84,0.66c0.73-0.94,1.48-1.84,2.33-2.66c0.83-0.8,1.66-1.58,2.62-2.09c24.33-13.16,49.06-25.84,74.87-35.88
	c21.59-7.45,42.87-15.53,63.83-24.25c2.04-2.32,4.18-3.47,6.41-3.45l0.67-2.59c17.11-10.75,8.04-29.87,1.11-44.07l-7.27-12.79
	c-13.27-40.41,37.39-28.2,43.73,0.62c7.35,0.23,14.28,2.07,20.78,5.55c2.6-13.7,8.54-26.16,17.81-37.39l3.97-7.26l2.57-1.03
	c3.86-4.15,3.18-8.27,2.1-13.71c-2.1-10.59-6.64-21.31-11.37-30.93l-61.81-14.75c-24.2-4.85-51.31-8.83-75.89-4.9
	c0.89,1.91,1.29,3.12-1.09,3.93c-1.13,0.74-2.36,1.35-3.73,1.43c-3.13,0.19-22.94-0.62-24.58-1.26c-1.21-0.47-2.35-1.12-3.47-1.77
	c-9.64-0.31-17.44-11.55-25.58-11.84l-4.25-0.15c-0.63-0.02-0.89-1.66-0.14-2.63c0.7-0.9,2.14-0.52,3.3-1.06l26.67-12.54l4.61-2.28
	l18.87-2.6c55.66-13.04,113.22-20.66,169.98-19.8c13.41-1.11,15.95-4.6,14.98-17.33c-3.4-13.85-3.21-27.15,0.56-39.87
	c1.7-3.57,5.04-10.06,9.3-9.07c11.03-9.36,29.55-5.94,36.32,4.97l8.88,14.3l3.01-24.24C527.07,823.55,536.98,842.32,542.29,860.38z"
	/>
<path class="st2" d="M369.82,705.96c3.37-1.37,3.14,3.86,2.76,6.38c3.14,0.35,3.66,6.44,0.77,7.5l0.13,2.27
	c2.88,0.03,2.82,4.74,0.13,5.37c0.88,0.48,1.17,1.55,0.88,3.22c2.46,0.83,2.45,1.47,0.07,2.55c0.6,1.36,1.1,2.78,1.49,4.25
	c1.8,0.24,1.8,0.95,0.08,1.67l0.26,2.1c1.87,0.17,1.87,1.01,0.06,1.58c1.7,6.11,4.19,11.63,7.46,16.58l2.57,0.36
	c7.67,10.1,21.52,10.85,32.68,6.69l2.32,1.14c9.45-1.39,19,6.98,20.69,16.02c2.25,12.04-1.61,22.94-5.96,34.42
	c8.58,0.18,17.74-2.63,23.81,1.9c-23.62,20.06,2.29,55.78-12.64,65.03c-7.3,4.53-18.21,2.96-26.92,3.12
	c-46.22,0.85-90.71,5.51-135.65,15.8c-14.68,3.36-28.73,6.1-43.1,7c6.68-6.94,12.72-14.48,17.93-24.25
	c-23.75,7.87-84.63,18.47-86.24,46.56c-3.06,2.18-6.62,1.39-9.14,2.66l-1.87-4.2c-0.07-38.47-15.81-75.82-44.4-101.76l-1.87-4.2
	c1.27-9.11,8.33-17,13.27-25.3c27.31,7.45,62.26-26.15,83.17-40.07c-7.51-4.9-13.79-2.24-19.52-4.97l1.85-2.11
	c15.8-7.43,32.13-14.74,48.6-20.8c8.4-3.09,16.93-6.17,25.65-8.26c0.81-0.19,1.7-0.11,2.61,0c0.94,0.11,1.86,0.36,2.78,0.64
	c1.13-0.83,2.58-1.04,3.96-1.13c0.22-1.83,0.93-1.84,1.66-0.09c1.09-0.62,2.19-1.1,3.3-1.45c0.28-1.8,0.99-1.79,1.68-0.05l4.86-1.31
	c0.26-1.86,1.04-1.88,1.68-0.08c0.55-0.82,1.57-1.14,3.08-0.94c0.22-1.84,0.93-1.84,1.66-0.09c0.7-0.48,1.49-0.94,2.39-1.38
	c0.65-2.7,2.39-2.8,3.46-0.27l25.27-6.57c0.6-2.67,1.68-2.73,2.58-0.15c0.72-1.01,2.1-1.35,4.12-1.03
	c-0.45-2.78,2.69-2.85,3.44-0.21l2.35-1.47c-0.17-2.55,0.8-2.46,1.61-0.04l5.11-1.13c0.84-2.51,1.5-2.53,2.54-0.08
	c0.84-0.99,2.23-1.3,4.15-0.92c0.16-0.75,0.37-1.66,1.02-1.95c0.64-0.28,12.6-0.61,13.96-0.43L369.82,705.96z"/>
<path class="st2" d="M316.56,601.73l0.4,2.19c-40.65,33.45-79.83,69.76-117.53,108.93c-6.38,6.46-13.19,13.28-21.11,17.82
	c-0.44,0.25-1.03,0.26-1.66,0.24c-0.67-0.02-1.33-0.16-1.99-0.35l1-21.28l-40.43,45.75c-9.15,10.35-11.86,22.15-13.41,35.06
	c-1.44,11.94-11.15,20.79-15.16,30.8l-1.46,1.68c-12.75-2.4-25.49-4.81-38.24-7.21l-0.75-2.1c0.02-65.02,11.17-129.87,35.75-190.51
	c6.58-16.23,14.5-29.98,25.24-43.14c6.54-8.01,13.39-13.9,25.34-10.88c32.68,8.27,51.67-3.52,77.91-20.5
	c6.27,12.09,11.27,24.45,10.64,39.09c9.87-2.6,17.45-6.95,25.62-3.64c6.84,2.77,12.25,8.03,8.6,15.48
	C290.44,598.07,303.54,589.62,316.56,601.73z"/>
<path class="st10" d="M421.47,767.64c-13.06,5.57-29.7,4.31-37.57-8.19c-3.25-4.97-5.74-10.49-7.46-16.58
	c-0.1-0.42-0.03-1.17-0.06-1.58l-0.26-2.1c0.03-0.55-0.15-1.13-0.08-1.67c-0.43-1.46-0.93-2.88-1.49-4.25
	c0.19-0.79-0.33-1.79-0.07-2.55c-0.01-1.26-0.31-2.34-0.88-3.22l-0.13-5.37c-0.37-0.62-0.38-1.53-0.13-2.27
	c-0.15-2.33-0.23-5.17-0.77-7.5l0.13-3.44c-1.14-2.55-1.03-3.92,0.33-4.11l-1.7-1.62c-1.25-10.28-6.24-19.36-14.99-27.25
	c-9.02-8.73-17.4-17.96-25.12-27.69c0,0-0.5,0.99-1.5,2.99c-23.81,11.94-47.42,25.21-70.84,39.81l-18.12,13.21
	c-23.7,19.41-47.98,38.04-72.82,55.88l-8.67,5.03c-2.25,0.66-4.02,3.75-7.42,0.62c12.42-9.24,15.13-23.73,22.79-35.2
	c15.32-8.4,25.8-22.07,38.16-34.85c25.16-26.03,51.53-49,78.9-72.59l24.83-21.39c8.03-6.92,14.46-13.08,10.66-26.34
	c-5.56-19.44-42.55-28.71-28.63-55.12c4.46-8.46,13.32-12.14,21.86-13.14c9.14-1.07,16.39,4.76,24.74,10.13
	c0.89-5.86-6.08-14.29-0.58-17.92c12.23-8.06,26.05,1.05,36.43,8.28c30.15,21,26.21,39.66,22,72.09
	c10.82-10.11,21.44-16.33,35.81-14c11.2,1.82,21.95,9.72,26.81,22.1c5.16,13.14,13.37,25.95,15.75,39.41
	c3.27,18.47-6.2,33.98-25.26,35.73c12.64,5.3,17.01,19.74,27.54,26.53c14.79,9.53,32.1,15.03,44.33,29.48
	c9.87-3.22,19.54-3.51,28.85-0.14c-2.16,6.84-8.87,6.19-15.4,7.58c7.33,8.09,14.57,15.48,10.43,25.89
	c-7.47-5.74-11.46-13.91-17.24-21.33c-1.1,8.43-1.59,17.17-7.69,21.65c-6.39-8.74-1.33-19.75-3.16-29.09
	c-9.23-12.26-25.12-17.76-37.91-25.99c5.19,15.6,2.4,54.73-14.94,54.35c-11.86-0.26-16.72-32.14-41.31-40.04
	C439.14,731.59,438,754.46,421.47,767.64z"/>
<path class="st10" d="M541.59,436.92c-4.06,0.48-2.45,1.98-0.47,1.37C541.39,438.2,541.51,437.63,541.59,436.92
	c22.25,6.29,40.61,17.85,60.21,31.47c9.69-0.36,20.86-1.13,30.17,4.95c-4.93,4.7-11.59,4.19-18.52,5.27
	c7.08,6.92,12.42,14.09,9.88,23.2c-7.19-4.54-9.41-11.74-15.99-17.01c-1.16,6.65-2.2,12.55-7.36,17.28
	c-8.26-10.3-0.34-27.75-6.25-32.1c-13.8-10.14-28.09-19.16-45.25-25.13c15.08,21.07,11.87,45.97-3.55,64.15
	c-15.27-3.41-13.17-38.1-40.69-49.98c4.51,14.56,8.76,27.71,7.06,41.92c-1.55,12.94-10.89,18.64-23.87,18.13
	c-6.71-0.27-15.48-1.57-19.06-6.88c-3.92-5.81-5.45-14.98-2.38-20.94c6.73-13.06,5.54-24.48,5.52-37.16
	c-1.88-3.28-2.9-7.15-3.06-11.61c-3.09-8.7-8.52-16.3-16.29-22.8c-6.45-7.45-11.7-16.1-15.15-25.51c1.15,3.05,0.22,4.59-3.62,5.16
	c-56.52,17.78-112.28,38.2-165.36,64.07l-7.97,2.18l-0.96,2.02c-3.34,0.72-18.38,3.95-19.27-0.71c-0.9-4.67,12.09-16.88,16.01-20.28
	l3.23-0.23c57.6-38.38,114.74-76.79,176.79-108.99c11.33-5.88,16.56-17.21,12.43-29.37c-4.66-13.74-28.87-40.64-15.39-52.83
	c6.37-5.76,18.23-1.14,23.89,3.95c10.46,9.43,15.2,20.76,17.63,35c6.94-13.52-4.03-22.42,9.4-33.32
	c26.91,12.16,48.71,57.18,23.37,84.07c17.87-8.14,42.64-1.84,45.58,16.79l4.74,29.99C560.66,411.39,557.11,425.92,541.59,436.92z"/>
<path class="st7" d="M750.48,690.12c0.74-1.18,2.15-0.21,2.35,0.99c4.8,3.95,9.98,7.93,14.2,12.45c0.9,0.67,1.54,1.7,1.93,3.09
	c0.84-0.31,1.07-0.01,0.73,0.85l4.27,2.42c1.97-2.27,3.46-1.47,2.66,1.41l2.14,1.79c1.85-2.24,3.2-1.58,2.79,1.2l2.99,2.87
	c-0.52,5.54-3.45,10.3-8.79,14.28c0.43,1.95-0.34,2.4-1.79,1.02l-2.15,1.95c0.39,1.91-0.36,2.34-1.74,0.94l-2.09,1.98
	c1.69,1.92-4.51,7.35-6.35,8.62l-2.22-0.09l-1.85,2.12l1.51,1.59c0.39,9.22,4.54,17.5,12.47,24.86l13.49,13.55l-0.5,2.17
	c2.82-1.58,8.22,5.8,7.48,8.42c0.72,1.79,1.7,3.46,2.93,5.01c1.96-0.02,2.06,0.85,0.24,1.68l1.36,6.39
	c-0.62,33.41,2.83,67.31,7.54,100.15c-1.17,5.16-8.81,3.24-10.1-0.63c-3.13,1.73-8.07-1.42-7.69-5c-2,1.3-4.65,0.6-5.61-1.77
	l-2.7,0.84l-11.34-5.05l-1.26-2.41c-65.72-44.61-74.18-82.61-93.51-155.49l2.4-2.03c24.93-1.31,46.85-17.26,49.98-42.94
	c1.23-3.34,2.36-6.17,6.2-4.1c0.53-3.14,5.61-3.53,6.54-0.46l2.4-1.36C740.88,688.76,748.81,687.23,750.48,690.12z"/>
<path class="st11" d="M832.34,835.82c-0.4-2.15,0.26-3.1,2.46-2.72l1.38-1.99c8.22-0.16,15.67-3.01,18.4-11.4
	c2.23,0.15,3.42-0.5,3.58-1.95c0.88-0.56,11.45-0.67,11.48,2.16c1.06,0.55,1.64,1.93,1.75,4.13l1.4,2.43
	c0.05,0.26,0.08,0.56,0.07,0.82l2.81,5.01l0.94,1.71l1.8,2.25c0.27,1.17,1.07,2.29,1.09,3.54l1.81,2.19
	c0.37,1.87,1.67,3.55,2.06,5.47l1.82,2.22c0.01,0.24-0.03,0.49,0.02,0.72c1.2,2.01,2.46,4,3.78,5.99c1.12,2.89,3.28,5.32,3.92,8.39
	l1.82,2.22l46.25,84.36c9.65,17.6,20.28,34.9,28.65,52.82c-1.71-0.75-3.39-1.53-5.01-2.45c-1.6-0.91-3.18-1.83-4.58-2.97
	c-36.72-29.87-69.67-64.33-102.18-98.63l32.09,57.87l-1.11,1.95c-6.31-1.18-11.16-6.03-17.05-8.6l-2.32-1.9
	c-10.57-1.53-44.89-34.47-44.61-34.48c-1.95,0.11-5.81,0.49-7.71,1.78l-9.02-0.01c-4.87-0.6-10,0.1-14.31-2.89
	c-2.75,0.01-2.48-2.2,0.17-2.67l4.31,2.25c1.62,0.85,3.65-0.39,3.99-1.59c-0.67,2.36-10.69-79.81-7.11-106.58l2.75,0.97
	c5.14,10.03,10.01,18.79,18.42,26.45c2.16,1.97,4.73,2.57,7.57,2.3C827.43,833.91,830.24,834.18,832.34,835.82z"/>
<path class="st11" d="M1007.94,451.14l-2.39,3.11c-17.4,7.93-33.1,19.19-47.9,31.3c-37.86,30.99-70.64,68.61-101.39,106.27
	c-1.29,1.28-2.79,1.17-4.49-0.31c-0.47,2.58-1.57,4.13-3.31,4.66c-2.08,0.63-4.5,0.2-7.26-1.27c-3.64,0.05-6.25-0.81-7.83-2.58
	c30.84-50.51,65.14-99.67,106.29-143.07c12.57-13.25,56.64-57.72,75.01-51.65C1025.28,409.59,1007.89,441.24,1007.94,451.14z"/>
<path class="st3" d="M1058.82,667.12c3.99,18.55-25.17,38.36-41.55,40.14c1.46,11.38-4.58,21.14-13.88,25.25l-2.22,1.88
	c-1.18,0.36-2.32,0.92-3.53,1.18l-2.33,1.7c-1.21,0.22-2.42,0.53-3.55,1.03l-1.07,0.98c-0.51,0.07-1.15,0.27-1.65,0.2l-3.12,1.6
	c-0.61-0.03-1.24,0.13-1.85,0.14l-2.79,0.26c-17.78-8.57-37.06-12.82-57.82-12.73l-47.64-2.07c-3.18-0.94-4.49-2-2.28-4.94
	c14.07-21.47,21.11-32.21,21.11-32.21l3.93-3.09c47.84-9.11,99.15-17.87,149.4-20.62c1.78-0.1,3.59,0.1,5.41,0.32
	C1055.21,666.34,1057.02,666.71,1058.82,667.12z"/>
<path class="st12" d="M905.39,656.6c3.64,0.63,4.98,10.83,0.84,12.31c1.51,1.7,1.15,4.27-1.07,7.72c-0.87,3.86-2.66,6.56-5.37,8.09
	c1.59,0.61,1.18,1.17-1.22,1.69c-7.08,12.89-15.11,24.88-24.91,38.27c29.69,2.47,87.69-0.86,110.4,16.52
	c-0.01,1.25-1.36,2.08-2.01,2.86l-3.1,0.41c-8.01-4.43-17.06-5.97-26.03-7.2c-26.76-3.66-54.27-6.34-81.42-7.11
	c-2.23,4.84-5.28,8.63-9.16,11.36l-0.13,2l-8.35,12.25l-3.28,1.89c2.43,1.65,0.69,4.49-2.14,3.59l-0.9,3.68
	c-7.31,7.7-14.52,15.31-21.65,22.84l7.05,5.59l0.2,2.62c3.27,3.22,1.02,6.13-2.43,2.96l-2.58,0.12l-7.72-7.71
	c-6.08,4.23-9.12,6.35-9.12,6.35c8.27,9.34,16.78,19.42,22.81,30.37c0.38,0.68,0.52,1.5,0.63,2.35c0.12,0.88,0.1,1.77,0.04,2.68
	c-0.38,1.28-1.03,2.61-2.46,2.72l-2.98-0.9l-23.91-34.1c-2.94-0.13-6.4-0.17-10.37-0.11l-2.12-2.17c-0.13,0.84-0.45,0.82-0.95,0.05
	c-2.98-2.1-4.99-6.08-7.48-8.42c0.15-1.15,0.33-2.3,0.64-3.41c0.31-1.08,0.64-2.14,1.19-3.06c15.62-26.23,31.12-52.24,46.98-77.34
	l1.79-5.53c-3.09,0.24-8.07,0.07-5.62-3.76c0.4-0.84,0.84-1.66,1.37-2.4c0.53-0.73,1.05-1.42,1.72-1.86
	c21.71-14.36,45.26-28.94,70.05-36.63L905.39,656.6z"/>
<path class="st8" d="M655.65,643.16c3.16,0.44,2.35,2.13,0.33,3.99c2.78,0.09,2.37,2.36-0.26,2.76c-1.57,2.97-1.62,6.19-0.14,9.66
	l2.13,0.16c2.61,4.51,6.1,6.71,11.42,5.55c0.06-2.09,1.84-3.66,5.34-4.71c1.29-1.98,2.72-2.94,4.32-2.87l0.42-3.09
	c-1.62-4.47-0.85-6.96,2.29-7.46c1.43-2.28,2.62-1.62,2.21,1.01l2.22,0.13c2.04,2.82,4.55,5.22,7.51,7.19l-0.26,2.25
	c3.53,2.07,6.58,5.2,9.14,9.41c8.1,8.58,17.08,16.18,26.93,22.81l1.21,3.27c-4.03,0.85-4.37,4.45-5.1,8.28
	c-4.97,26-28.19,40.05-53.47,40.8c-0.31,0.01-0.63-0.01-0.93-0.05l-2.63-2.95l-0.59-1.28l-2.25-2.52l-0.41-1.27l-2.54-2.59
	c-0.33-0.67-0.8-1.27-1.09-1.96l-2.91-3.96c-0.25-0.58-0.76-1.11-0.93-1.72l-1.93-2.16c-0.23-0.63-0.72-1.19-0.91-1.85l-3.69-4.64
	c-0.49-0.46-0.86-1.3-1.15-1.91l-1.95-2.23l-0.01-0.73c-0.88-1.3-1.82-2.65-2.83-4.03c-14.01-23.97-14.69-30.81-34.84-49.79
	c-2-2.42,2.52-6.41,5.15-6.93c0.75-0.99,1.71-1.31,2.87-1.4c10.56-0.79,19.2-1.64,29.01-6.19
	C650.8,641.22,653.59,641.55,655.65,643.16z"/>
<path class="st12" d="M848.46,596.18c3.48-0.88,5.87,6.53,3.33,8.74c2.79-0.21,3.4,4.45,2.27,6.57c3.13,2.81,3.41,11.88,1.26,15.39
	c1.34,1.26,1.96,2.66,1.84,4.22c2.65,2.71,2.41,9.14-0.19,11.85l-1.32,2.42c3.09,1.12,2.07,3.88-0.12,5.62
	c2.66-0.16,3.96,1.91,1.72,3.78c2.64,0.71,2.18,1.88-0.28,2.58c-0.81,1.08-0.81,2.22-0.02,3.42c2.67,0.84,2.63,2.05,0.27,3.62
	c2.72,1.97,1.91,8.22,1.2,11.52c-23.09,14.13-45.79,28.86-68.11,44.17c-4.12,0.13-6.53-2.86-8.76-5.74
	c-0.93-0.11-1.74-1.29-2.79-1.2c-0.95-0.49-1.66-1.09-2.14-1.79c-0.79-0.64-1.61-1.26-2.66-1.41c-1.6-0.54-3.03-1.35-4.27-2.42
	c-0.13-0.32-0.56-0.53-0.73-0.85c-1.34-0.6-1.37-2.69,0.21-2.82c20.95-37.21,41.83-74.86,64.2-111.51
	C838.68,592.17,844.12,592.88,848.46,596.18z"/>
<path class="st7" d="M1007.94,451.14c13.54,6.53-8.22,46.33-11.59,55.65c-0.65,1.36-1.98,1.99-3.97,1.9
	c-44.64,28.44-88.9,59.34-132.79,92.7c0,0-2.6,1.17-7.81,3.52c-0.7-2.77-1.68-6.34-3.33-8.74c0.41-1.77,0.45-3.49,1.63-5.58
	c0.83-1.47,2.97-4.21,3.77,1.19C887.64,549.35,954.84,472.9,1007.94,451.14z"/>
<path class="st13" d="M471.53,454.09c-31.77-22.52-159.06-0.89-197.22,11.67c-3.09,2.86-11.05,2.47-14.23-0.18
	c20.99-12.02,44.32-20.4,67.31-30.56c35.28-15.59,71.65-25.8,108.97-38.71c-12.31-18.83-0.25-36.12,7.07-55.38
	c3.78,10.45-13.52,30-6.39,48.67C453.14,431.7,471.49,421.77,471.53,454.09z"/>
<path class="st3" d="M1091.54,621.32c3.1,1.13,6.27,3.64,7.39,5.88c5.87,11.65-21.89,30.54-36.06,36.22
	c-3.56,1.35-7.38,1.62-11.46,0.82l-9.5-0.08c-44.27,4.54-88.65,11.32-133.15,20.32c-2.97,0.73-5.96,0.8-8.97,0.24l6.44-15.81
	c5.87-3.49,8.8-5.23,8.8-5.23c30.03-10.62,60.7-19.22,91.43-27.54c1.61-0.44,3.3-0.56,5.02-0.69c1.72-0.13,3.45-0.12,5.19-0.07
	c1.24-3.43,8.69-5.63,11.32-2.93c0.59-0.58,1.36-1.06,2.33-1.46c-0.06-0.76,0-1.93,0.51-2.05c19.23-4.3,40.18-8.04,59.64-9.87
	L1091.54,621.32z"/>
<path class="st12" d="M969.61,1004.2c6.57,8.67,12.13,19.79,15.93,31.35c-10.47,0.33-16.78-8.77-26.05-13.8l3.49,21.07
	c-14.12-10.25-30.74-19.4-40.24-33.29l-33.91-49.57l-33.52-60.22c-2.49-4.39-8.01-6.93-7.21-13.03
	C886.38,928.66,926.23,968.9,969.61,1004.2z"/>
<path class="st7" d="M998.33,511.63c3.77,19.54-6.99,35.45-20.13,49.19l-2.67,2.35c-18.57,7.89-36.74,16.68-54.49,26.35
	l-63.74,38.39l-1.99-1.04c-1.07-4.95-0.91-10.32-1.26-15.39l3.2-4.33c39.34-33.94,83.53-63.34,126.38-91.82
	C987.57,513,994.34,509.15,998.33,511.63z"/>
<path class="st8" d="M1060.01,584.65c7.01,1.65,0.52,7.62-4.12,8.98l-3.06,2.75c-9.08,15-18.87,29.84-35.79,36.66l-0.37,2.35
	c-37.21,10-74.32,20.15-110.44,33.52c1.52-3.72-0.21-8.52-0.84-12.31c0.21-0.78,0.46-1.54,0.82-2.24c0.35-0.67,0.72-1.3,1.24-1.71
	c5.23-4.17,11.57-7.52,17.53-10.57c3.01-1.54,6.04-3.02,9.16-4.31l1.38-2.35c6.37-2.48,12.35-5.78,17.91-9.9l2.72,0.57
	c0.65-0.99,1.68-1.64,3.07-1.95C992.26,609.74,1025.27,594.34,1060.01,584.65z"/>
<path class="st3" d="M919.61,790.05c-4.29,9.73-15.68,13.23-25.88,15.28c-6.27-2.33-12.23-5.78-17.86-10.37l-12.41-7.4l26.66,17.64
	l-0.11,2.23c-3.26,7.39-10.13,11.84-18.18,12.4c-0.71,2.54-1.28,2.56-2.19,0.08c-4.12-0.17-8.43-0.7-13.21-0.04
	c-3.44,10.79-11.59,12.85-21.63,13.22c-7.16-12.91-16.21-24.89-26.68-36.09c5.13-2.14,8.5-4.78,12.3-8.22
	c4.33,3.42,7.07,6.96,10.31,10.16c1.61-0.19,2.42-0.28,2.42-0.28c5.55,7.69,12.24,13.58,20.06,17.66
	c-5.38-6.87-11.97-12.76-19.77-17.66c0,0-0.09-0.89-0.27-2.68c-3.42-2.82-7.06-5.13-10.71-8.85c10.07-7.96,17.56-17.34,26.01-25.88
	c1.07-0.13,2.13-0.23,3.19-0.19c1.05,0.04,2.07,0.08,2.98,0.41c20.49,7.36,40.94,14.84,60.61,24.24c0.86,0.41,1.59,1.13,2.34,1.87
	C918.33,788.33,918.98,789.18,919.61,790.05z"/>
<path class="st12" d="M1091.54,621.32c-3.48-1.26-9.49,0.02-13.34,0.74l-47.88,8.93l-2.33,1.46c-3.87,0.56-7.55,1.92-11.32,2.93
	c-7.59-6.61,8.68-0.48,27.22-28.41c3.96-5.97,6.27-13.21,13.39-16.28c1.51-0.65,3.34-1.21,3.67-2.76c0.23-1.1-0.3-2.34-0.94-3.29
	c20.44-5.7,41.05-13.52,63.38-10.49c3.86,0.52,8.92,1.27,9.91,4.73C1138.06,595.53,1102.59,614.26,1091.54,621.32z"/>
<path class="st14" d="M261.25,422.3c0.89-0.16,2.01-0.06,2.29,0.7c1,2.74,1.44,6.02,1.28,8.91c-1.93,4.28-2.33,10.66-5.73,14.46
	c-6.95,5.82-13.55,12.22-17.86,20.19c6.96,2.4,12.89-0.55,18.85-0.99c4.69-0.35,9.54,0.1,14.23,0.18c5.72,5.24,14.68,4.18,22.93,6.4
	c-10.3,10.17-23.29,13.83-36.34,18.02c-16.26,5.22-32.7,8.79-48.78,3.9c-3.34-1.01-7.33-4.01-7.69-7.17
	C211.89,451.73,231.19,440.15,261.25,422.3z"/>
<path class="st7" d="M957.22,612.67l-1.93,1.51c-11.5-0.13-22.75,2.3-33.75,7.29c-21.8,8.92-42.98,19.05-63.54,30.39l-2.48-0.89
	c-0.16-1.86,0.16-3.75,0.12-5.62l1.32-2.42c-0.32-3.94-0.07-7.91,0.19-11.85c1.21-2.28,3.45-3.84,6.71-4.66
	c33.56-22.91,69.56-42.06,106.75-59.78c0.98-0.46,2.08-0.68,3.2-0.88c1.14-0.2,2.31-0.28,3.48-0.32
	C985.63,574.81,966.2,607.25,957.22,612.67z"/>
<path class="st3" d="M982.06,744.06c-3.01,11.91-13.76,17.99-24.88,22.36c-0.35-0.56-0.69-0.59-1.02-0.1
	c-0.43,0.46-1.24,0.35-1.71,0.66l-3.56,0.36c-21.85-10.25-45.44-16.66-69.2-20.94c16.26,4.22,32.41,8.85,48.44,13.88
	c7.04,1.56,12.8,4.52,17.3,8.88c-0.41,10.2-11.95,14.08-21.12,17.14l-3.23-0.16c-22.42-8.8-45.31-17.32-68.66-25.56l-3.81-2.91
	c5.49-10.15,13.35-19.08,20.12-29.1c24.6-0.87,47.75,3.3,71.98,5.69C956.76,735.64,970.56,736.93,982.06,744.06z"/>
<path class="st4" d="M247.78,406.94c-5.58,1.78-7.95-2.02-5.77-6.52c6.73-31.63,55.15-45.71,82.03-36.62
	C313.13,389.02,274.55,414.6,247.78,406.94z"/>
<path class="st7" d="M957.04,616.38c-0.12,2.48,0.05,4.99-0.05,7.5c1.03,0.67,0.75,1.41-0.84,2.22
	c-7.07,4.29-13.87,9.85-22.01,11.67c-17.88,10.09-36.41,18.57-55.58,25.46c-6.71,0.36-13.2,1.09-19.45,2.19l-1.89-1.03
	c0.29-0.97-0.79-2.55-0.27-3.62c-1.05-0.97-1.06-2.51,0.02-3.42c-0.21-0.84,0.34-1.78,0.28-2.58l0.73-2.3
	c16.89-7.81,33.65-16.07,50.29-24.78c8.72-4.4,38.98-17.46,47.75-13.39C956.72,614.61,956.94,615.55,957.04,616.38z"/>
<path class="st11" d="M702.84,649.95c2.11,2.34-2.37,6.37-5.01,6.72c-0.14,3.06-2.84,3.4-4.67,1.08c-3.33-2.74-7.62-5.43-9.47-9.58
	l0.64-2c8.84-3.78,4.04-11.68-2.36-3.35l-2.22-0.53l-2,1.81c-6.96-0.75-13.01-0.79-19.87,0.12c-0.9,0.12-1.64-0.33-2.22-1.05
	c-3.09,1.04-7.18,0.1-10.52,1.63c-9.69,4.43-19.52,6.06-29.71,4.97c-2.88,0.42-3.3-1.29-0.96-2.94c8.84-5.08,9.12-6.05,0.86-2.89
	l-1.89-1.59c-2.69,1.01-3.57-1.41-0.9-2.72c13.85,2.34,27.1-11.63,39.39-14.93l8.97-3.36c6.98-1.2,11.56,6.01,6.3,10.9
	c5.56-1.88,9.07-6.26,10.55-13.16c10.75-1.77,13.03,1.22,12.85,11.55c2.05-0.43,3.89-2,5.52-4.69c6.42,0.02,21.35,12.76,7.79,13.64
	l-0.19,4.79C704.47,646.85,704.18,648.71,702.84,649.95z"/>
<path class="st12" d="M612.53,639.62c-0.35,1.02,0.83,1.87,0.9,2.72c2.72,0.28,2.8,2.62,1.03,4.48c0.48,0.88,0.22,2.14,0.96,2.94
	c-0.7,3.02-3.51,4.44-5.15,6.93c-39.05-15.69-78.62-22.25-122.45-27.98c23.66-6.87,47.38-2.16,69.8,1.63L612.53,639.62z"/>
<path class="st3" d="M996.35,506.8c1.07,1.46,1.64,3.09,1.98,4.83c-7.74,1.69-14.45,5.41-21.48,10.2
	c-42.14,28.69-84.12,57.27-122.8,89.65c-1.78-1.66-1.7-4.32-2.27-6.57c25.53-19.31,50.41-39.22,77.88-57.2l51.66-33.8
	C986.37,510.61,990.11,505.25,996.35,506.8z"/>
<path class="st11" d="M722.89,637.59c9.81,12.79,17.11,27.29,24.01,41.92c0.89,10.23-11.26,6.18-13.42-1.45
	c-1.32-0.74-2.24-1.72-2.77-2.96c-1.23,0.94-2.61,0.51-4.13-1.28c-1.6,0.71-3.17,1.12-4.73,1.24c-3.81,2.43-8.68-5.19-8.49-8.82
	c-2.46-1.19-2.92-6.74-0.89-8.48c2.36-1.37,1.82-2.94-1.62-4.71c-2.13-1.65-2.57-3.31-1.34-4.98c-1.19-3.1-0.71-8.63,2.22-10.53
	C712.21,637.23,722.32,635.81,722.89,637.59z"/>
<path class="st8" d="M1062.88,663.42c-1.67,0.67-3.07,2.31-4.05,3.7c-42.92,2.08-85.76,7.7-128.49,15.26
	c-11.15,1.97-20.99,4.38-31.76,4.04c0.3-0.55,0.99-1.13,1.22-1.69c26.1-5.12,51.67-10.36,78.73-14.22
	C1007.01,666.44,1035.98,659.34,1062.88,663.42z"/>
<path class="st3" d="M978.19,560.81c-0.48,1.5-0.7,3.07-0.89,4.64c-32.98,16.61-66.79,31.56-97.41,53.1
	c-7.51,5.28-14.46,10.2-22.74,12.54c-1.01-0.35-2.06-0.86-2.52-1.99c-0.3-0.73,0.27-1.59,0.68-2.23l47.13-28.71
	C926.7,583.38,952.12,570.31,978.19,560.81z"/>
<path class="st11" d="M212.14,415.6c1.8-1.54,5.66,0,5.61,2.46c-26.79,20.28-42.94,35.85-63.2,62.8L152.7,483
	c0,0.22,0.04,0.5-0.01,0.71c-0.91,1.78-1.91,2.45-2.99,2.02c-3.64-6.2,1.88-15,6.67-20.17C173.38,447.22,189.02,426.12,212.14,415.6
	z"/>
<path class="st7" d="M722.89,637.59c-3.75,0.15-7.04,2.79-11.51,1.6c-0.27,3.62,0.1,6.64-1.87,8.88c1.84,3.29-5.36,4.93-6.66,1.88
	c-1.55-4.01-1.16-9.17-0.47-13.36c15.48,4-5.2-9.65-5.43-9.51c-1.26,2.85-2.96,4.91-4.72,5.31c-7.21,1.65-1.18-10.09-6.24-12.23
	c-1.62-0.69-5.92-1.65-7.03,0.19c-1.3,7.17-6.66,15.29-15.33,13.69c2.29-4.66,5.6-4.66,3.57-7.71c-2.41-3.62-4.12-5.66-8.37-3.87
	c-2.25,0.94-4.75,1.64-6.91,2.22C672.7,612.92,706.28,615.93,722.89,637.59z"/>
<path class="st12" d="M780.68,904.43l2.17,1.03c-0.16,0.63,0.98,0.88,3.43,0.74c2.3,1.94,5.03,3.6,7.69,5l-0.17,2.67
	c-8.78,2.47,0.87,14.94,8.04,19.29c-8.97,1.5-13.89-7.25-19.83-13.34c-2.97,6.14,3.89,8.26,6.29,13.98
	c-19.46-0.91-23.7-20.14-22.92-35.99C770.36,899.2,775.77,902.13,780.68,904.43z"/>
<path class="st14" d="M697.83,656.67c2.01-1.1,4.58-0.78,5.89,1.21c1.43,0.64,2.07,2.06,1.93,4.27c2.78,0.58,5.35,1.94,7.71,4.09
	c3.43,2.39,4.37,7.36,8.49,8.82c1.42-0.14,2.54,0.81,3.34,2.84l1.94,0.87c1-1.68,2.2-2.91,3.58-3.67c7.32,0,3.72,7.98,11.78,8.57
	c2.83,0.2,2.51-2.41,4.41-4.16c1.31,2.78,3.83,5.52,4.08,8.59c1.06,1.24,1.31,2.24-0.49,2.03c-3.74,0.2-7.34,1.47-11.09,1.3
	c-0.6,0.51-1.4,0.97-2.4,1.36c-2.11-0.18-4.43,0.01-6.54,0.46c-14.1-10.4-28.17-19.88-37.29-35.49
	C694.75,657.56,696.28,657.06,697.83,656.67z"/>
<path class="st3" d="M957.22,612.67l-0.18,3.7c-21.29-6.66-78.25,30.99-99.8,38.38c-0.27-1.33-1.6-2.4-1.72-3.78
	C878,639.6,932.35,608.57,957.22,612.67z"/>
<path class="st8" d="M954.44,766.98c-1.68,1.12-4.87,2.81-7.02,2.18c-27.14-12.41-56.68-16.72-86.23-27.29
	C890.45,744.1,930.55,754.67,954.44,766.98z"/>
<path class="st8" d="M926.31,786.3c-2.24,0.75-5.67,1.41-6.7,3.75c-22.37-11.55-47.31-20.02-71.15-28.79
	c0.77-0.78,1.59-2.58,2.14-3.59c19.41,4.39,37.67,13.29,56.53,20.89C913.9,781.29,921.39,781.46,926.31,786.3z"/>
<path class="st2" d="M172.6,524.27c-0.18,1.98,0.36,3.78,0.54,6.31c0.16,2.12,1.8,2.05,4.23,1.76c-9.29,4.44-18.96,13.09-25.4,20.57
	c-4.13,4.8-4.53,11.35-12.19,11.34C148.34,548.07,160.42,536.49,172.6,524.27z"/>
<path class="st12" d="M893.72,805.34c-1.21,0.48-2.3,1.92-3.72,2.11l-50.55-33.53C859.22,782.21,877.65,792.55,893.72,805.34z"/>
<path class="st14" d="M242.01,400.42c0.44,1.54,1.86,3.27,1.75,5.25c-0.14,2.41,2.65-0.56,4.02,1.27
	c-9.17,4.08-21.66,5.17-30.03,11.12c-2.06-0.27-4.13-0.95-5.61-2.46C220.18,407.97,231.92,405.27,242.01,400.42z"/>
<path class="st6" d="M68.29,323.35c0.54,0.63,1.11,1.39,1.7,2.27c7.62,19.09,15.3,38.25,20.18,58.24
	c-11.2-18.69-18.36-43.22-23.83-64.33C67.69,320.32,68.28,321.81,68.29,323.35z"/>
<path class="st4" d="M264.82,431.92c-2.48-2.4-2.23-6.51-3.57-9.62c2.09-1.99,3.79-5.09,8.12-6.54
	C269.06,421.39,267.07,426.91,264.82,431.92z"/>
<path class="st2" d="M281.11,166.3l-0.78,1.65c-4-0.42-8.05-1.14-11.66-3.41C273.35,163.93,277.47,164.6,281.11,166.3z"/>
<path class="st2" d="M37.06,238.01l-1.7,0.17c-0.81-3.02-4.51-6.14-3.04-10.57C35.07,230.62,35.5,234.59,37.06,238.01z"/>
<path class="st2" d="M108.5,185.32c-0.56,0.15-1.8-0.23-1.81,0.63c-2.3-1.83-6.77-1.71-7.24-5.92
	C102.84,181.72,106.77,182.39,108.5,185.32z"/>
<path class="st7" d="M817.14,916.76c-3.27,2.22-5.81,0.39-9.02-0.01C810.68,915.22,814.59,915.23,817.14,916.76z"/>
<path class="st9" d="M152.69,483.71c-0.75,2.83-1.81,5.89-4.04,7.85c0.04-2.02,0.83-3.74,1.06-5.83
	C149.81,484.65,151.89,483.97,152.69,483.71z"/>
<path class="st7" d="M871.83,819.85c-0.28,2.27,0.51,4.44,0.95,6.65c-2.65-0.84-2.67-4.15-3.14-6.57
	C870.36,819.96,871.11,819.9,871.83,819.85z"/>
<path class="st7" d="M888.97,856.41c-2.75-0.3-3.31-3.62-3.78-5.99C888.04,850.72,888.1,854.19,888.97,856.41z"/>
<path class="st3" d="M654.75,720.01c-2.49,0.09-2.11-3.16-3.69-4.64C652.87,716.39,654.18,718,654.75,720.01z"/>
<path class="st7" d="M875.66,832.32c-2.1-0.7-2.89-2.91-2.81-5.01C875.19,827.54,875.38,830.34,875.66,832.32z"/>
<path class="st6" d="M94.94,401.43c-1.37,0.59-1.88-0.87-1.87-1.62c0.01-1.1,0.22-1.81,0.34-2.61
	C95.59,397.03,94.89,399.94,94.94,401.43z"/>
<path class="st3" d="M647.95,710.51c-2.58,0.35-2-2.61-2.83-4.03C647.27,706.36,647.92,708.68,647.95,710.51z"/>
<path class="st11" d="M657.65,1474.75l-2.13,1.37c-23.84-8.24-36.59,3.6-38.35,27.57c-0.48,2.62-2.26,3.36-4.75,3.47
	c-7.06-0.42-13.94-0.08-20.63,1.03c-25.31,15.7-21.14,49.35-2.83,69.22c0.26,6.91-7.16,3.03-10.75,0.98
	c-19.69-18.24-52.89-15.91-43.78,18.11c0.04,1.89-0.31,3.28-2.27,3.49c-42.41-0.9-38.74,46.77-10.43,65.83
	c1.14,1.7,0.38,2.9-1.3,3.92l-20.3,1.72l-152.56,0.02l1.86-3.12c40.71-34.29,71.38-76.98,97.75-122.79
	c25.39-40.4,54.96-79.21,94.35-106.94c5.98-1.65,6.46-2.02,1.45-1.1c-78.18-18.71-160.02-10.07-233.97,19.48l-5.51,0.29
	c-4.47-0.54-2.55-11.51-1.73-15.22l1.69-5.02c0.07-0.89,0.17-1.76,0.4-2.6c0.22-0.82,0.45-1.61,0.91-2.2
	c16.75-21.71,35.86-41.71,58.92-56.78c-20.19-2.21-40.41-3.13-60.64-2.75l-2.5-1.14l-2.36-2.63
	c-8.11-49.71-44.59-100.39-100.48-92.52c-2.33,0.28-3.23-0.78-2.76-3.12c3.11-18.58,1.88-37.32-5.46-54.75l0.41-3.93l0-1.33
	c3.73-1.02,7.36-2.21,10.9-3.58c0.11-0.77,0.31-1.92,0.88-2.04c31.93-6.59,81.57-0.5,112.97,7.41c7.57,1.91,32.62,8.94,32.83,18.45
	l-4.81,11.64c-0.07,0.29,0.04,0.67-0.04,0.96l-0.93,0.92c-0.04,0.26-0.07,0.57-0.04,0.83c-0.52,0.85-1.12,1.58-1.8,2.17
	c-4.56,10.22-19.46,34.19-0.68,48.83c8.06,6.28,18.16,7.94,27.37,4.68c1.31-0.91,2.66-1.83,4.05-2.76c0.66-0.41,1.31-0.94,2.06-1.19
	l4.55-4.89c0.36-1.24,1.86-2.7,2.93-3.37c0.81-1.09,1.74-1.86,2.77-2.29c4.41-2.93,12.15,0.3,15.14,4.24
	c-0.11,4.47,0.93,7.25,3.12,8.35c1.22-0.41,3.41,0.39,4.7,0.13c1.35,0.19,2.42-0.14,3.21-0.99c1.19-0.32,2.34-0.83,3.55-1.08
	l2.12-1.83c0.54-0.3,1.04-0.82,1.68-0.93l2.15-1.95c0.58-0.14,1-0.81,1.61-1.02l7-6.85l0.9-1.6l2.82-3.14
	c0.05-0.21-0.04-0.47,0.05-0.66c1.58-2.11,2.82-4.47,3.72-7.08l0.22-3.42c0.81-0.91,1.13-2.32,0.98-4.23l0.09-2.5
	c1.39-2.03,1.51-5.07-0.02-7.06l-0.05-1.56c0.42-2.22,0.08-3.92-1.01-5.11l-0.97-3.49c-0.61-0.67-1.22-1.45-1.81-2.33
	c-0.19-0.92-0.72-1.74-1.04-2.6l-1.95-2.12c-0.63-2.75-3.7-3.87-5.71-5.63c-4.67-3.8-5.39-6.69-2.17-8.68
	c26.11,9.32,49.49,29.17,62.78,53.6c-1.02,6.78-3.09,13.41-6.23,19.9c-1.76,4.39-0.92,5.5,2.53,3.35
	c7.07-10.91,12.81-8.26,17.23,7.94c2.99,7.23,3.8-0.64,3.17-4.72c-1.59-5.01-3.23-9.93-4.93-14.77c3.09-1.95,6.87-2.75,11.36-2.4
	c0.59-0.04,3.35-0.64,2.99-1.18c-3.79-5.56-15.84-6.03-21.95-6.26c-8.06-15.77-19.66-28.64-33.63-39.41l-1.36-3.52l-2.14-1.87
	c-0.04,0.87-0.29,0.82-0.73-0.03c-1.64-1.04-3.33-1.99-5.06-2.83c-0.52,0.76-0.83,0.68-0.94-0.23c-2.79-1.64-4.72-3.55-5.78-5.73
	c2.46-4.7,5.62-9.1,9.47-13.21c-0.73-0.53-0.66-0.91,0.21-1.17c1.71-2.06,2.71-4.63,3-7.7c-3.01-0.25-2.95-5.22,0.03-5.47
	c-1.32-7.29-1.43-14.48-0.33-21.58c-2.44-1.08-2.41-1.73,0.1-2.62c2.56-13.04,1.88-27.49-6.46-38.39c-0.92-0.04-1.04-0.36-0.35-0.98
	l-2.62-3c-0.84,0.1-0.89-0.17-0.22-0.77c-2.82-3.19-5.95-6.06-9.38-8.63c-0.1,0.81-0.38,0.76-0.8-0.02l-4.17-2.8
	c-0.59,1.85-1.37,1.79-1.63-0.14c-2.22-1.1-4.57-1.97-7.07-2.6c-0.54,1.81-1.36,1.77-1.67-0.08l-9.58-1.14c0,0-0.38-0.8-1.13-2.4
	l7.63-11.4l0.16-1.44l1.74-2.31l0.1-5.43c0.24-0.86,0.6-0.88,1.08-0.09c0.8-3.33,2.42-4.62,4.86-3.84
	c14.07,2.73,18.15,18.64,20.62,32.64c20.92-3.99,41.63-2.35,61.27,5.08c79.79,30.22,117.09,123.12,80.69,200.6
	c15.13,2.56,29.77,5.5,43.34,12.83C677.83,1368.95,678.2,1427.85,657.65,1474.75z"/>
<path class="st9" d="M879.3,1472.58c1.44,1.6,2.94,3.28,3.71,5.32c13.78,36.04,27.15,70.77,51.9,101.23
	c5.86,6.28,10.68,13.01,14.46,20.19c-2.07,4.38-1.59,9.43,1.44,15.13c8.31,18.87,17.28,37.39,26.9,55.57l-1.46,1.71l-16.98,0.3
	c-0.96-0.77-1.58-2.04-1.85-3.8l-1.94-1.05c-4.18-19.36-29.9-12.54-34.5,3.37l-2.19,0.78l-16.5,0.76c-0.84-0.16-0.8-0.42,0.05-0.77
	c0.48-0.44,0.62-0.63,0.05-0.98l-2.24-0.22c-2.1-2.48-8.47-12-4.75-13.87c-1.12-1.12-1.12-2.62,0.46-3.11
	c0.24-3.02,5.02-6.78,7.25-3.87l2.34-1.8c0.32-2.79,2.87-3.51,4.47-1.15c0.55-0.59,1.31-1.15,2.29-1.66
	c0.39-2.54,5.82-4.33,7.36-2.09c0.53-0.64,1.27-1.24,2.21-1.81l0.09-2.15c12.33-4.62,27.73-25.52,12.33-35.25
	c-22.1-13.96-41.13,18.83-42.7,37.55c-1.17,2.19-1.88,3.1-4.04,1.76c-4-2.5-10.04-17.91-10.47-23.12
	c18.71-13.29,30.81-38.16,17.35-59.26c-5.6-8.78-17.52-10.74-24.35-2.35c-12.74,15.63-10.65,36.36-2.22,53.65
	c0.37,1.92-0.81,2.69-3.54,2.31c-9.76-9.89-46.23-28.81-55.37-11.45c-3.46,6.58-2.63,13.22,2.13,18.88
	c12.95,15.4,43.11,19.99,62.18,16.7c5.49,3.26,16.85,23.34,19.2,30.03l-0.44,3.73c-5.76,0.1-11.51,0.23-17.26-0.21l-10.76,0
	l-50.08,0.2l-1.91-1.86c-5.45-43.98-49.62-28.29-64.71,0.61l-2.94,1.24l-3.15-0.32l-1.62-1.83c5.48-26.48,11.73-95.91-30.41-93.42
	c-31.5,1.86-34.4,51.93-27.5,75.05l-1.33,3.14c0.78,5.02-0.36,7.24-4.31,2.74l-2.95-0.91c-8.59-13.13-19.36-23.59-33.82-29.77
	l-0.87-1.33l-1.85,1.53c-27.76-7.56-40.88,19.61-28.79,42.51l-1.04,2.42l-106.45-0.08l21.09-3.64
	c-20.51-16.44-32.42-41.31-14.32-61.23c6.68-7.35,15.69-9.42,25.98-8.3c-2.14-8.37-3.38-20.25,2.63-26.69
	c9.48-10.15,23.88-6.9,34.67-1.29c6.19,3.21,10.2,9.84,18.03,9.06c-19.57-21.53-23.26-51.89-1.07-70.68
	c7.28-6.16,18.68-1.91,27.71-3.82c2.33-8.09,2.22-17,7.08-23.83c8.57-12.04,22.67-10.26,35.7-6.27c2.4,6.7,9.42,10.27,13.97,17.63
	c2.75-11.42,8.76-19.27,19.73-19.96c1.2-3,6.09-1.13,7.36,1.14c0,0.65,0.28,1.53,0.46,3.14c0.05,0.43,0.38,0.01,1.69-0.13
	c16.02-25.2,32.02,3.99,33-12.72l-0.33-2.17c8.3-7.55,17.11-14.76,28.85-12.35c15.01,3.08,28.79,16.38,38.38,27.7
	c12.55-32.81,58.34-40.65,71.99-4.97C875.85,1470.91,878.04,1471.09,879.3,1472.58z"/>
<path class="st12" d="M347.57,1671.46l-153.62,0.28c0.48-1.42,1-2.83,1.65-4.18c0.64-1.33,1.29-2.63,2.16-3.77
	c73.49-95.36,173.78-174.12,289.46-210.14c-40.6,7.72-80.57,26.52-116.76,47.67c-72.62,42.45-134.12,102.28-185.84,167.81l-3.2,2.3
	l-93.34,0.26c-0.23-0.97-0.41-1.95-0.46-2.93c-0.04-0.96-0.06-1.89,0.19-2.74c2.46-8.45,6.16-17.02,9.83-25.03
	c12.74-27.84,30.71-53.57,48.5-77.84c1.14-2.93,2.7-5.21,4.68-6.84l4.83-3.36c48.74-14.06,89.02-45.19,121.18-83.65l2.71-1.39
	c6.88-4.18,13.98-8.03,21.32-11.53l2.63,0.89c15.87-7.08,31.95-11.99,49.25-16.89c63.91-18.08,130.17-19.89,194.69-3.51
	c-49.4,32.94-82.53,82.33-111.93,131.35C411.81,1607.73,383.32,1643.2,347.57,1671.46z"/>
<path class="st9" d="M1045.39,1474.52c0.35,1.08,0.92,1.67,2.01,2c0.99,0.35,1.96,0.74,2.86,1.25c0.87,0.49,1.7,1.02,2.36,1.7
	c17.87,18.81,35.63,50.98,43.65,75.66c0.29,0.9,0.33,1.88,0.34,2.89c0.01,1.04-0.13,2.07-0.3,3.11c0.72,0.62,1.42,1.27,2,2.01
	c0.56,0.71,1.07,1.43,1.36,2.22c4.05,11.4,6.05,25.46,7.64,37.52c2.74,20.77,3.57,42.51,4.29,63.46c0.03,0.81-0.23,1.64-0.52,2.5
	c-0.29,0.87-0.7,1.7-1.15,2.52l-4.98,0.38l-2.35-0.81c-15.06-28.6-30.1-57.4-45.1-86.4c-15.89-29.57-35.28-57.61-60.5-80.01
	c36.36,40.7,64.18,87.13,86.22,136.77l14.39,25.27c0,0,0.25,1.72,0.74,5.17c-6.09,0.43-12.19-0.09-18.27-0.05l-6.17-2.06
	c-53.62-38.37-100.92-87.53-122.31-150.95c-4.32-13.52-8.81-26.38-13.48-38.57c-1.76-1.35-2.48-2.83-2.16-4.42l-2.74-3.37
	c-7.23-17.24-14.27-34.56-21.12-51.95c-1.43-3.48-1.03-5.88,1.21-7.19c0.6-0.48,1.22-0.93,1.89-1.26
	c6.78-3.32,37.71,5.96,46.32,8.79c32.57,10.71,57.15,25.8,82.05,49.5c0.51,0.49,0.83,1.19,1.15,1.92
	C1045.01,1472.89,1045.22,1473.7,1045.39,1474.52z"/>
<path class="st6" d="M935.93,1475.69c5.36,2.85,6.12,8.86,7.85,14.23c9.06,28.15,19.17,56.57,35.32,81.6
	c26.24,40.67,62.16,72.69,100.96,100.17l-51.65,0.33c-0.54-0.15-0.55-0.4-0.08-0.76l-2.2-0.84c-3.71,0.48-11.72-2.93-12.47-6.79
	l-2.85-0.65c-7.38-7.59-15.41-14.52-24.07-20.78c-1.13-1.33-2.05-3.13-2.78-5.39l-2.01,0.66c-11.07-12-22.14-24.01-33.22-36.02
	l0.64-2.14c-33.07-35.86-55.61-80.32-70.07-126.74c-0.74,0.14-1.9,0.24-2.09-0.26c-1.07-2.71-7.72-23-7.56-24.26
	c0.1-2.56,0.44-3.3,3.07-3.57c6.46-0.66,22.31,6.23,28.69,9.29c9.04,4.34,23.67,12.17,31.48,18.04
	C934.28,1472.88,935.15,1474.12,935.93,1475.69z"/>
<path class="st8" d="M150.82,1556.32c-0.38,5.28-4.24,9.45-7.78,14.33c-22.54,31.05-44.26,64.49-54.96,101.06l-63.18,0.03
	c0.88-33.8,22.19-78.47,45.95-101.84c2.09-1.93,4.55-3.13,7.39-3.32c22.49-2.87,44.84-6.48,67.05-10.83L150.82,1556.32z"/>
<path class="st14" d="M741.11,1671.4l-120.94,0.38c-0.35-0.61-0.67-1.24-0.86-1.9c-1.97-6.75,13.51-33.38,19.02-39.57
	c-2.21-2.74-2.23-4.5-0.05-5.26c16.54,4.01,28.15,17.96,37.65,32.01c0.8,0.75,1.69,1.07,2.7,0.94l2.74,5.57
	c-1.27-3-1.65-6.08-1.12-9.24c-4.13-20.26-6.49-42.02,2.82-60.85c6.23-12.6,17.85-20.82,31.44-19.09
	C754.25,1579.42,746.02,1644.69,741.11,1671.4z"/>
<path class="st15" d="M921.78,1640.75l-2.21,1.81c-2.38,0.93-4.78,1.97-7.36,2.09l-2.29,1.66c-1.49,0.38-2.95,0.9-4.47,1.15
	c-0.61,0.59-1.39,1.19-2.34,1.8c-2.95,0.3-4.45,3.25-7.25,3.87c-1.08,0.75-1.23,1.78-0.46,3.11c0.51,5.35,4.83,9.24,6.99,14.09
	c0.51,0.32,0.48,0.65-0.05,0.98l-0.05,0.77c-3.41,0.16-6.93-0.39-10.38-0.33c-4.94-11.23-10.78-22.44-19.42-32.17
	c-23.14,6.31-73.97-8.09-67.04-33.75c6.66-24.66,45.47-7.29,61.12,7.6c-9.05-18.43-10.91-36.91-0.67-53.24
	c3.89-6.2,9.84-10.26,16.28-9.51c7.07,0.83,11.99,4.6,15.59,11.66c10.34,20.31,0.36,45.06-19.19,57.75
	c2.42,8.45,5.45,14.97,10.74,22.17c3.17-19.25,13.8-44.85,35.81-43.69c7.6,0.4,13.99,4.53,16.21,10.47
	C946.86,1623.9,930.85,1636.81,921.78,1640.75z"/>
<path class="st11" d="M193.95,1671.75l-12.53-0.3c23.58-33.67,52.57-63.49,82.77-92.11c52.22-49.5,112.49-89.78,179.74-115.45
	c20.33-7.76,40.33-13.33,62.29-13.86C375.58,1486.09,275.92,1566.61,193.95,1671.75z"/>
<path class="st8" d="M1119.52,1531.02c0.94,0.57,1.18,1.65,0.73,3.25l0.19,6.37c0.47,2.64,1.01,5.32,1.6,8.06
	c0.08,0.85-0.03,1.72-0.01,2.58l1.97,13.38c-1.34,35.99-2.86,71.32-4.57,106.01l-1.97,1.05c-2.58-0.01-5.03,0.4-7.55-0.35
	c-1.86-36-1.98-75.32-13.61-110.23c0.62-1.46,1.69-2.84,3.2-4.16c3.03-9.5,5.24-19.38,6.62-29.62c3.71-4.21,5.34-6.1,5.25-12.11
	c0.78-2.48,1.41-4.29,4.28-3.18C1116.64,1518.57,1120.27,1524.36,1119.52,1531.02z"/>
<path class="st14" d="M813.82,1671.74l-69.56-0.02c11.16-20.05,37.04-42.09,58.57-25.57
	C810.27,1651.85,814.13,1661.9,813.82,1671.74z"/>
<path class="st14" d="M1104.94,1671.74c-2.15,0.16-4.46-0.15-6.61,0c-8.35-14.82-17.37-28.99-24.46-45.09
	c-22.46-50.99-53.3-93.88-92.05-136.44c35.77,25.11,61.12,61.98,80.99,100.29L1104.94,1671.74z"/>
<path class="st11" d="M638.27,1625.06c-0.33,1.76,1.4,3.21,2.19,5.35c-9.4,12.04-16.91,26.67-20.3,41.37l-13.58-0.26
	c-6.93-15.52-9.51-33.1,6.72-44.1C621.8,1621.67,630.23,1623.11,638.27,1625.06z"/>
<path class="st5" d="M949.37,1599.32l34.58,37.5l2.42,4.1c-2.79,4.04-5.49,8.09-8.1,12.15l7,16.66l-1.23,2.02
	c-2.44-0.3-5.31-0.07-7.78-0.02C975.22,1666.08,934.05,1597.17,949.37,1599.32z"/>
<path class="st9" d="M1133.52,1593.59c-4.89,25.74-5.41,52.04-3.72,78.16l-12.33-0.03l2.11-46.49c1.14-25.05,3.25-49.42,2.45-73.94
	c5.05,11.32,4.69,24.66,6.19,37.11c0.19,1.57,1.82,3.23,2.09,4.48C1130.56,1594.03,1132.59,1593.72,1133.52,1593.59z"/>
<path class="st9" d="M1013.66,1663.64c-0.85,1.72-2.69,2.84-5.52,3.36c-2.43,1.94-4.99,3.41-7.7,4.42
	c-5.37-0.18-10.94,1.02-16.41,0.34l-7.49-17.72c-1.85-4.36,12.03-13.44,7.41-17.21C992.86,1646.48,1006.19,1652.74,1013.66,1663.64z
	"/>
<path class="st15" d="M957.42,1668.22c0.89,1.3,1.56,3.2-0.3,3.4c-12.27-2.28-25.68-0.88-38.33-0.3c1.8-7.87,8.89-15.1,17.02-17.13
	c5.66-1.41,10.99-0.93,15.38,2.29C954.74,1659.08,957.55,1663.43,957.42,1668.22z"/>
<path class="st5" d="M1013.66,1663.64c4.17,2.27,8.7,3.88,12.47,6.79l2.2,0.84c0.27,0.32,0.46,0.39,0.08,0.76
	c-9.33,0.06-18.7-0.3-27.97-0.61C1003.31,1666.93,1008.32,1663.81,1013.66,1663.64z"/>
<path class="st5" d="M874.66,1671.54c-3.32,1.34-7.44,1.34-10.76,0C866.75,1669.61,871.81,1669.6,874.66,1671.54z"/>
<path class="st7" d="M1116.42,853.39c5.94,11.82,15.23,20.43,28.31,25.34c4.42,12.01,2.14,23.4,2.13,35.71l-0.08,140.22
	l-37.73-55.29c17.03-36.2-0.31-27.49-0.27-48.48c-3.3,1.5-0.83,4.03-2.92,5.63c-3.7-7.3-9.68-20.12-19.5-18.38
	c-16.51,2.94-6.79,14.88-7.69,33.76c-2.97-2.7-6.41-3.08-8.27-3.31c2.07,19.72,19.57,23.67,31.26,33.81
	c18.24,15.81,32.28,40.47,43.91,61.01l1.63,115.49c-23.2-36.98-43.12-74.95-64.49-113.15c-7.39-13.2-13.87-26.27-24.18-38.28
	c0.91,16.78,9.07,31.01,17.23,44.61l72.03,120.09l0.18,42.28c-43.15,39.79-69.74,99.29-80.46,157.54c-2.9,3.13-4.41-2.87-4.56-5.84
	l-0.97-138.08c2.32-4.84,5.62-9.18,9.89-13.01c1.57-2.32,3.03-4.64,4.38-6.96c1.6-3.85,2.9-7.83,3.91-11.92
	c-0.66,4.63-2.33,8.59-5.01,11.87c0.79,2.94-8.11,13.5-9.79,13.98c-1.88,0.53-2.84-0.24-3.77-1.88l-1.56-79.96l0.32-2.02
	c13.24-9.25,12.66-30.13,5.64-42.95c-7.15-13.05-20.64-5.18-18.76,8.27c-6.15,15.29-5.55,28.25,11.68,35.16l0.74,1.78l1.88,83.72
	c-0.68,2.1-1.17,2.75-3.44,2.61c-9.14-0.53-24.09-14.59-29.7-21.7c-9.13-11.57-12.34-20.44-12.96-34.73l-1.44-5.65l-2.26,0.09
	c-2.73-3.79-6.36-7.44-10.82-9.11c-1.89-0.71-9.97-1.58-10.79-0.52c-1.31,1.69,1.57,14.85,2.74,17.59
	c3.38,7.9,9.8,14.07,18.42,15.66l1.44,2.15c1.84-1.87,4.02-1.33,6.53,1.61c7.81,13.17,17.77,24.05,29.89,32.63l10.18,4.53l0.85,1.87
	l0.16,139.03c0.45,9.98,1.42,19.92,2.93,29.8l-1.51,3.69l-4.52-1.27c-18.9-13.64-39.12-25.11-60.68-34.41c0,0-0.99-1.21-2.98-3.64
	c-1.36-0.18-1.13-2.1-0.9-3.17c-2.21,0.68-2.26-2.14-0.32-2.74l-2.12-1.34c-1.34,5.48-3.12,7.26-5.33,5.33
	c-3.76,0.21-5.65,0.32-5.65,0.32c-26.23-7.89-53.07-14.27-80.51-15.61c-2.66-1.84-2.8-1.53-0.42,0.93
	c4.58,14,9.82,27.78,15.71,41.33c0,0-0.26,1.24-0.78,3.72c-2.15,10.32,20.38,47.73,22.65,62.51
	c-20.97-11.14-39.25-26.35-64.87-29.53l8.23,26.43l-7.81,2.03c-5.25-19.99-26.19-29.03-45.64-21.36
	c-11.64,4.59-19.84,15.96-24.69,27.58c-11.16-15.57-38.65-38.98-54.59-26.74l-12.72,9.77c-9.84-21.21-30.97-81.29,9.42-85.24
	c19.41-1.9,36.78,6.83,51.04,21.86l7.38-27.49c8.98-33.48,42.59-39.83,73.28-29.98c-25.73-39.57-31.31-88.29-4.63-127.76
	c18.21-26.94,50.37-39.7,81.98-29.91l-3.4-23.86c-1.83-12.85,2.4-29.33,14.63-36.12c17.96-9.99,37.79-5.29,57.64-0.01
	c-5.59-13.39-13.15-24.47-16.86-37.83c-5.67-20.4-6.63-42.62,3.52-61.52c6.64-12.38,20.72-15.42,34.88-16.48
	c-5.34-12.79-10.75-23.53-12.83-36.02c-3.19-19.15,8.61-35.02,28.85-37.07c-8.71-27.31-11.01-57.97,13.99-76.15
	C1085.51,850.98,1101.84,849.57,1116.42,853.39z"/>
<path class="st15" d="M698.7,1473.57c-2.48,0.77-4.97-1.29-7.36-1.14l-0.55-111.31c-6.92-13.35-16.6-23.94-24.23-36.36
	c-19.46-31.67-48.55-19.38-44.46-31.85c1.39-4.23,4.6-7.09,10.02-6.65c22.77,1.82,44.2,40,58.39,57.25
	c1.74-15.37,0.78-29.33,0.32-43.58c-14.06-16.27-25.29-32.85-36.09-51.22l-27.66-3.78c-5.25-0.72-8.54-4.74-7.71-9.82
	c0.63-3.85,4.83-7.2,9.43-7.11c27.83,0.5,42.05,35.94,61.58,53.91c-0.13-11.25,1.4-65.49-3.49-69.47
	c-6.34-5.16-33.88,1.46-49.44-16.63c-4.54-5.28-5.05-14.19-2.21-19.45c2.94-5.45,10.77-9.09,17.02-6.27
	c3.71,1.67,6.92,6.27,11.39,2.92c-3.33-9.66-3.7-21.87,6.12-27.06c9.03-4.77,18.84,1.59,25.5,8.43
	c5.92-5.29,10.81-11.63,17.48-10.77c6.61,0.86,14.53,4.07,15.9,10.93c1.45,7.22-4.17,13.73-1.6,20.32
	c9.06-3.3,19.09-10.56,26.65-3.42c8.48,8,2.71,22.79-7,28.33c-14.34,8.17-30.01,11.46-46.92,11.81
	c-0.11,22.24-2.26,43.84,0.38,65.91c9.87-7.34,14.5-17.27,21.2-26.25c5.95-12.91,37.83-35.36,44.82-20.23
	c6.6,14.27-20.14,10.3-33.58,18.31l-33.36,48.96l-0.03,44.73c13.22-12.81,22.33-26.33,32.45-40.24
	c7.45-10.24,26.21-27.37,35.53-18.27c13.29,12.97-23.79,14.69-30.16,22.68c-13.67,17.17-25.6,34.37-38.07,53.17L698.7,1473.57z"/>
<path class="st13" d="M512.61,1023.3c15.61,18.65,34.92,35.34,41.84,61.27c9.05,1.08,17.55,5.47,24.56,12.68
	c-4.39,5.61-9.32,1.83-16.59-0.49c3.28,9.79,5.15,19.64-1.43,27.6l-8.86-22.02c-4.86,1.43-6.96,5.43-11.04,8.8
	c-7.92-17.56,14.13-19.34,6.59-31.56c-11.92-19.32-25.57-39.04-43.61-52.28c-17.32-12.72-25.42-26.14-55.2-16.53
	c-6.25,2.02-11.98-6.56-13-12.43c-6.04-34.83,1.06-69.78,16.29-101.56c11.8-24.61,44.67,2.6,52.73-51.08
	c4.57,13.39-4.26,24.84-11.56,35.8c20.36,40.14,18.42,89.74-8.87,126.08C495.22,1012.47,502.22,1021.45,512.61,1023.3z"/>
<path class="st8" d="M1174.17,841.1c-5.4,3.07-0.96-7.76-3.79-10.26c4.77-7.13-1.8-9.51-2.93-13.96
	C1183.4,810.7,1168.74,838.3,1174.17,841.1z"/>
<path class="st15" d="M418.62,1073.37c-2.79-0.68-3.34,0.75-2.64,2.91c0.54,1.64,0.48,3.18,0.51,4.85
	c-2.54-2.94-2.41-7.6-4.94-12.09C415,1069.09,417.41,1071.05,418.62,1073.37z"/>
<path class="st15" d="M432.21,1074.45c-2.56,4.28-10.67,3.25-12.84-1.08C423.65,1074.97,427.78,1075.9,432.21,1074.45z"/>
<path class="st15" d="M417.83,1089.48c1.94,0.76,0.59,2.52-1.11,1.31c-1.67-2.32-1.6-5.6-0.19-8.04
	C418.36,1084.32,417.44,1087.21,417.83,1089.48z"/>
<path class="st4" d="M421.5,1090.56c-2.57-0.02-2.68,3.17-4.86,3.84c-1.22-0.26-1.36-1.71-0.02-2.2l0.09-1.41
	c0.31-0.27,1.2-0.81,1.11-1.31C419.25,1088.87,420.35,1090.33,421.5,1090.56z"/>
<path class="st8" d="M96.1,215.52c-14.19-12.85-26.56-25.04-38.66-39.04C72.76,186.83,86.19,200.51,96.1,215.52z"/>
<path class="st8" d="M142.65,278.26c-12.55-16.04-25.22-32.98-37.26-51.46C119.47,242.27,132.59,258.59,142.65,278.26z"/>
<path class="st8" d="M156.09,299.92c-3.72-2.67-5.1-6.18-6.1-10.08C153.45,291.95,155.45,295.57,156.09,299.92z"/>
<path class="st8" d="M148.42,287.14c-3.18-1.96-5.19-4.68-5.29-8.42C146.18,280.81,148.27,283.68,148.42,287.14z"/>
<path class="st8" d="M101.67,222c-2.7-1.08-4.76-3.16-5.63-5.97C99.09,216.68,100.92,219.05,101.67,222z"/>
<path class="st8" d="M102.23,222.87c0.6-1.11,3.68,2.33,3.32,3.11c-0.81,1.74-1.83,0.51-2.05,0.12
	C103.14,225.44,101.25,224.68,102.23,222.87z"/>
<path class="st8" d="M185.28,1213.41c0.35-0.83,0.67-0.82,0.96,0.04c1.95-0.24,3.17,0.14,3.64,1.16
	c8.32,18.66,10.91,38.29,6.44,60.39c59.64-9.63,96.51,44.99,104.21,96.57c-2.88,1.51-4.32,2.26-4.32,2.26
	c-55.37,1-107.81,20.8-153.34,52.64c-40.18,28.09-69.12,63.62-82.41,111.11l-3.1,3.97l-1.41,2.36c2.85,0.89,1.43,8.09-1.47,8.2
	l-1.38,2.39c2.62,0.73,2.48,1.85-0.15,2.52c0.08,1.12,0.16,2.62-0.89,3.19c2.99,2.14,2.12,8.61-1.13,10.18
	c0.32,0.89,0.26,1.96-0.16,3.21c2.62-0.05,2.58,0.91,0.16,1.88c-5.31,10.81-10.33,21.76-18.19,32.42
	c2.8-30.34-0.31-58.11,0.76-87.26l2.58-69.98c0.25-6.91,3.52-11.98,9.14-15.4c19.81-12.06,39.09-23.38,58.24-36.77
	c21.09-18.09,38.65-40.13,48.74-66.14l22.74-58.63c-37.91,9.44-70.94,29.02-96.57,55.26c-27.75,28.41-31.31,62.62-40.79,99
	c1.35-34.95,5.15-68.18,11.71-101.77c6.13-31.35,20.02-58.89,42.88-81.91c32.18,14.89,53.28-12.32,86.28-13.4
	c-4.09-8.59-13.04-7.37-15.21-14.49c3.51,0.29,10.6-2.02,14.08-1.35c0.88-0.56,2.01-1,3.37-1.33
	C182.26,1213.94,183.78,1213.73,185.28,1213.41z"/>
<path class="st9" d="M303.45,1437.04l-1.34,4.84c-5.92,7.74-11.9,15.44-17.93,23.11l-4.63,2.94
	c-32.85,42.44-76.49,74.31-128.72,88.4c-26.23,7.08-53.46,8.32-79.98,13.58c-1.03-0.14-1.7-1.04-1.61-1.82
	c0.09-0.83-0.07-1.69,0.67-2.62c57.41-71.15,131.6-124.45,214.81-158.36c-23.98,2.15-43.45,15.1-63.15,25.28
	c-65.37,33.78-120.72,81.29-165.05,139.94c-1.55,2.05-3.5,3.06-5.57,3.16c-0.19-0.57,0.08-1.34-0.16-1.88l0.16-3.21
	c0.51-3.39,1.13-6.75,1.13-10.18c0.46-0.81,0.75-1.87,0.89-3.19l0.15-2.52c0.43-0.87,0.89-1.67,1.38-2.39l1.47-8.2l1.41-2.36
	c9.19-34.6,28.01-68.25,54.81-92.92c32.11-29.57,69.93-50.22,110.86-64.76c25.17-8.94,51.47-10.26,77.49-12.31
	c21.97-1.3,43.85-0.81,68.9,2.72C341.36,1391.21,322.22,1412.8,303.45,1437.04z"/>
<path class="st2" d="M273.48,940.73c0.58-0.4,1.18-0.76,1.82-1c4.78-1.8,33.64,8.06,40.46,10.45
	c35.98,12.59,70.52,29.48,103.85,47.63l1.93,3.29c-7.82,18.19-20.89,24.81-22.62,49.03c-8.14-5.54-15.36-6.76-23.72-6.55
	c-5.22-16.13-19-30.47-35.99-26.06c-8.99,2.33-8.28,16.47-4.34,23.07c11.29,18.9,27.1,46.86,3.32,59.48l-2.86-2.67
	c-10.95-30.9-38.03-51.79-65.45-67.81l-2.04-3.38l-2.84-2.95c-10.86-40.55-49.09-58.1-88.7-52.94c-2.34,0.24-3.12-1.05-3.48-3.15
	l3.73-21.64l2.13-1.05c22.04,16.87,52.97,12.23,81.02,12.39c-4.35-8.8-12.93-11.44-17.99-17.73
	C252.19,939.47,263,939.09,273.48,940.73z"/>
<path class="st7" d="M178.67,944.48l-4.16,24.12c45.33-4.96,81.06,11.86,93.32,57.61l-1.61,1.53c-10.47-3.05-20.95-6.09-31.43-9.14
	l-0.81-2.23c-0.92-1.41-0.38-2.88,1.64-4.42c-68.97,11.84-136.13,35.15-171.84,100.11l-4.23,3.3c0.27-7.89,2.69-16.31,5.05-24.38
	l13.33-45.59C85.59,1019.18,151.19,930.75,178.67,944.48z"/>
<path class="st8" d="M188.12,1168.39c-10.88,5.66-21.35,14.17-34.23,16.02c2.88-4.44,6.04-11.01,5.95-17.1
	c-27.22,18.8-74.93,29.85-73.36,70.46c-37.92,35.97-45.04,76.94-53.67,127.3c-4.96-26.29-10.64-50.79-11-77
	c-0.24-17.35,5.06-96.82,24.32-103.5l1.43,4.35c-1.06,17-1.74,33.77-2.05,50.3c8.09-22.42,23.18-41.25,39.41-58.39l54.21-56.61
	l-0.87-2.06c1.45-2.86,8.46-11.96,11.44-8.67c8.5-6.85,21.19-8.67,31.98-8.67c4.51,18.59,6.93,39.6,7.8,58.8L188.12,1168.39z"/>
<path class="st9" d="M233.99,1016.36l-2.28,3.13c-26.79,12.96-43.26,38.06-57.65,63.23l-11.16,16.21
	c-3.51,5.95-7.91,10.8-13.22,14.55c-4.37,1.65-7.79,6.96-10.57,10.73c-20.02,22.18-49.38,40.75-78.79,47.12
	c-0.7,0.15-1.48,0.02-2.28-0.14c-0.83-0.16-1.63-0.46-2.43-0.8c32.02-54.59,56.89-80.67,109.02-119.72
	c-46.24,25.02-83.43,66.47-109.43,110.9c-1.92,3.27-2.45,8.16-6.17,5.84l-1.19-3.88c0.8-7.14,2.13-14.17,3.99-21.08
	c4.84-8.2,3.56-18.62,7.71-27.12c45.31-76.49,99.29-89.64,182.77-106.74L233.99,1016.36z"/>
<path class="st7" d="M164.25,935.88c-58.91,29.55-81.75,85.45-85.53,88.76c-0.66,0.58-0.87-0.12-1.02-0.9
	c-0.09-0.47,0.34-1.45,0.04-2.11c-0.36-1.51-0.09-2.6,0.83-3.26c-0.2-3.76,0.82-7.4,1.18-11.14c-0.19-0.5-0.17-1.24,0.06-2.25
	l0.07-7.34c0.46-1.71,0.98-3.44,1.57-5.19c2.15-22.23,4.71-44.48,5.14-66.82l1.56-2.32l0.35-9.2c0.6-0.63,0.87-1.4,0.83-2.32
	l0.12-3.45c0.49-1.1,1.02-2.19,1.57-3.28c5.3-26.95,11.75-55.44,25.11-79.34C148.18,853.05,165.36,893.83,164.25,935.88z"/>
<path class="st13" d="M373.05,704.79c0.28,2.25-0.79,2.64-3.23,1.17l-16.39,0.5c-1.71-0.17-3.09,0.14-4.15,0.92
	c-0.83-0.12-1.71,0.15-2.54,0.08l-5.11,1.13l-1.61,0.04c-0.48,0.52-1.26,1.01-2.35,1.47l-3.44,0.21c-1.62-0.19-3,0.15-4.12,1.03
	c-0.84,0.06-1.74,0.04-2.58,0.15l-25.27,6.57c-1.14,0.19-2.32,0.16-3.46,0.27c-0.67,0.49-1.47,0.95-2.39,1.38
	c-0.54-0.06-1.12,0.12-1.66,0.09c-1.14,0.04-2.17,0.35-3.08,0.94l-1.68,0.08l-4.86,1.31c-0.55-0.04-1.14,0.12-1.68,0.05
	c-1.05,0.49-2.15,0.97-3.3,1.45c-0.54-0.07-1.12,0.13-1.66,0.09l-3.96,1.13c-29.75,7-53.5,19.52-81.49,30.52
	c-11.42,2.43-22.41,6.45-33.74,9.76c19.97-18.45,44.28-31.8,65.23-50c20.65-17.94,42.41-32.94,66.56-45.69l38.34-20.24
	c-3.59-13.5-6.7-27.98-0.96-41.26c2.88,13.7-2.98,27.21,4.02,38.63C342.2,662.47,376.69,686.07,373.05,704.79z"/>
<path class="st7" d="M106.66,820.89c-8.32,20.77-15.15,41.65-19.26,64.22l-12.15,66.73l-7.82-59.08
	c-3.54-26.73-1.22-53.31-1.21-79.49L106.66,820.89z"/>
<path class="st7" d="M139.12,1124.22c-33.94,46.03-86.72,77.15-96.04,132.31l1.29-44.11c0.27-9.37,0.59-18.93,1.76-27.84
	c0.72-5.5,6.03-10.48,9.49-14.17C88.68,1163.72,114.25,1145.98,139.12,1124.22z"/>
<path class="st2" d="M68.11,710.49l-2.41-0.83c-1.46-8.54-2.2-17.26-2.21-26.18l1.54-2.01l-1.44-2.02
	c3.41-6.38,7.33-12.49,11.76-18.34l2.35-0.57c0.61-2.15,1.38-2.74,2.3-1.75C76.05,675.95,73.02,693.71,68.11,710.49z"/>
<path class="st11" d="M65.02,681.47c2.36,9.71-0.87,20.47,3.09,29.02c-1.56,5.32-3.96,10.57-3.99,16.11
	c-5.56-13.97-1.48-31.08-8.04-45.04C55.73,678.6,64.39,678.62,65.02,681.47z"/>
<path class="st12" d="M49.05,1167.42c-0.89,4.27-4.92,9.05-9.34,11.12c3.59-12.86,6.06-25.78,12.14-36.08
	C51.87,1150.81,50.76,1159.22,49.05,1167.42z"/>
<path class="st7" d="M58.27,792.18c-1.52,16.05,0.09,32.36-1.77,49.46c-8.22-7.6,2.93-25.75-1.84-45.64
	C57.18,796.07,56.36,792.92,58.27,792.18z"/>
<path class="st9" d="M81.67,655.68c-0.24,1.28-0.2,2.69-1.68,3.11c-0.75,0.42-1.95,0.86-2.3,1.75c-2.89-1.56-1.22-6.34,2.01-5.75
	L81.67,655.68z"/>
<path class="st11" d="M81.44,992.46c-0.17,1.77,1.29,5.41-1.57,5.19c0.01-0.9-0.35-2.23-0.24-3.43
	C79.7,993.45,79.97,991.89,81.44,992.46z"/>
<path class="st2" d="M166.9,518.7c-20.54,20.24-36.08,43.79-54.43,68.66c8.4-32.59,19.87-64.68,36.12-93.05L166.9,518.7z"/>
<path class="st6" d="M984.93,1382.48c2.81,2.1,4.37,0.19,4.67-5.7c1.87-0.97,2.26-0.26,2.78,1.71l0.32,2.74
	c-0.16,1.37,0.15,2.43,0.9,3.17c23.6,11.92,47.93,21.88,68.18,39.31c1.73-0.87,2.94,0.09,3.63,2.88l3.23,5.65l0.88,0.88
	c0.59,0.35,1.25,0.59,1.75,1.09l6.81,7.79c0.07,0.18,0.01,0.44,0.11,0.61l10.24,12.84c0.13,0.19,0.16,0.46,0.24,0.68l2.77,3.22
	c0.06,0.23-0.03,0.57,0.09,0.77l0.93,1.07c0.89,0.72,1.49,1.71,1.9,2.76l1.04,1.07c0.16,0.56-0.01,1.2,0.11,1.78l3.88,4.89
	c0.04,0.29,0.08,0.6,0.08,0.89l0.74,0.95c6.32,10.05,11.83,21.66,13.75,33.36c0.4,1.15,0.9,2.25,1.52,3.3
	c0.02,0.61,0.09,1.26,0.18,1.86c-5.25,3.81-0.12,10.62-6.44,13.95c-4.19,2.24-2.69,35.73-12.9,35.13
	c-10.46-31.39-26.54-60.28-48.91-84.61c-1.04-0.27-1.74-0.96-2.01-2c-20.8-19.39-44.59-38.08-71.65-47.59
	c-20.27-7.12-40.05-13.76-60.45-13.76c-5.12-16.05-13.99-30.75-17.55-47.88C926.83,1366.02,956.04,1373.81,984.93,1382.48z"/>
<path class="st3" d="M1075.17,1228.05c0.43-0.81,0.75-0.82,1.09,0.05c-1.26,8.16-9.33,12.28-12.42,20.34l1,136.88
	c0.02,2.63,0.85,6.12,2.67,6.67c-2.06,11.21-0.74,23.3-2.11,34.61c-2.35,0.53-2.54-1.95-3.63-2.88c-1.26-11.56-3.34-22.8-3.36-35.32
	l-0.14-137.87c-28.06-7.42-35.07-38.82-45.52-39.97c-1.64-1.17-1.19-3.2,1.32-6.1l-1.84-18.23l1.79-1.53
	c4.03,6.18,2.49,12.35,4.94,20.09c5.67,17.91,21.39,34.18,40.7,40.59l-1.92-85.54c-6.58-2.3-12.38-7.03-14.7-12.8
	c-3.58-8.89,0.11-14.99,2.11-22.91c1.31-5.16-0.09-11.16,4.69-15.15c3.84-3.21,8.77-2.22,13.89-0.01
	c4.68,2.01,18.75,35.71-1.78,50.05l1.6,82C1069.34,1237,1072.79,1232.73,1075.17,1228.05z"/>
<path class="st3" d="M1128.79,1365.97l-0.11,10.44c-0.48,3.05-0.92,6.09-1.33,9.12c-1.16,29.95,1.38,83.22,2.84,110.87
	c0.5,1.14,0.96,2.25,1.36,3.34c0.72,3.44,0.08,10.22,1.22,13.95l0.54,11.78c-1.04,2.1-2.32,2.72-4.11,0.92
	c-7.16-54.25-8.47-109.73-3.99-164.21l1.33-0.27C1127.22,1363.28,1127.97,1364.63,1128.79,1365.97z"/>
<path class="st4" d="M1137.66,1294.86c0.16,0.92,0.21,1.91-0.77,2.31l-8.1,68.8c-0.84,0.15-2.05,0.39-2.45-0.59
	c-0.42-1.03-0.45-2.26-1.12-3.19c2.17-26.37,4.65-53.22,12.36-78.62c0.25-2.27,1-3.56,2.26-3.87
	C1138.79,1284.59,1137.95,1289.92,1137.66,1294.86z"/>
<path class="st4" d="M1139.23,1566.84c-0.42,1.82-0.14,4.45-2.49,4.71c-4.69-14.53-5.54-30.01-7.54-45.15
	c5.7-1.37,0.6-8.79,3.57-12.7C1138.19,1531.41,1132.01,1550.87,1139.23,1566.84z"/>
<path class="st9" d="M1139.85,1279.71c-0.54,1.28-1.79,2.31-2.26,3.87c0.67-8.15,3.38-16.64,6.6-25.66
	C1144.62,1265.91,1142.56,1273.28,1139.85,1279.71z"/>
<path class="st4" d="M1128.69,1376.42c-0.03,3.04,1.97,7.74-1.33,9.12C1127.47,1382.5,1125.32,1377.73,1128.69,1376.42z"/>
<path class="st9" d="M1122.04,1548.7c-3.29-0.69-1.52-5.35-1.6-8.06C1123.95,1541.21,1121.77,1545.96,1122.04,1548.7z"/>
<path class="st4" d="M1088.42,1455.45c-4.16-3.47-7.51-8.17-10.24-12.84C1082.92,1445.35,1085.46,1450.88,1088.42,1455.45z"/>
<path class="st9" d="M1135.44,1583.8c-0.08,0.72,0.44,2.33,0.13,3.24c-0.17,0.51-0.48,1.6-1.5,1.06c-0.11-0.81-0.52-2.21-0.22-3.34
	C1133.99,1584.22,1134.45,1583.33,1135.44,1583.8z"/>
<path class="st4" d="M1078.07,1442c-2.92-1.58-5.26-4.88-6.81-7.79C1073.71,1436.61,1076.81,1438.79,1078.07,1442z"/>
<path class="st4" d="M1099.38,1471.69c-1.73-1.25-3.43-2.74-3.88-4.89C1097.7,1467.48,1099.04,1469.46,1099.38,1471.69z"/>
<path class="st4" d="M76.9,615.38c7.13,9.43,5.08,23.46,4.56,35.33c-0.43,0.91-1.02,1.61-1.77,2.1l0.02,2
	c-1.1,1.74-1.77,3.7-2.01,5.75c-3.13,7.88-10.89,12.79-12.66,20.93l-8.94,0.1C50.42,669.53,41.3,660.89,41,646.06
	c-0.31-15.11,1.05-29.41,5.2-43.28l2.44,2.51c2.24,10.2,6.94,19.61,12.42,28.45l12.33-17.11C73.39,616.63,74.56,616.21,76.9,615.38z
	"/>
<path class="st13" d="M76.9,615.38c-5.46,6.4-9.99,13.77-15.78,22.07c-7.18-11.22-12.86-22.41-14.91-34.67
	c3.99-13.35,2.77-29.93,18.63-36.98C77.47,578.44,80.37,598.32,76.9,615.38z"/>
<path class="st11" d="M233.99,1016.36l33.85,9.85c30.06,16.98,60.57,40.62,70.35,73.86c-3.04,3.92-7.1,6.65-12.11,8.48l-54.31,19.84
	c-29.4,10.74-56.36,25.82-83.65,40c-2.75-20.46-2.83-41.07-7.43-62.33c-10.77,1.08-21.15,3.69-31.01,7.42
	c10.4-13.85,20.36-26.93,29.32-42.6C192.07,1048,210.47,1026.32,233.99,1016.36z"/>
<path class="st13" d="M404.28,1114.48c1.51,0.72,2.14,2.3,1.89,4.75l0.03,2.09l-11.1,4.99c11.42,21.83,15.64,46.2,8.76,70.23
	c-1.72,6.02-4.01,13.69-8.51,17.81c10.08,2.78,20.26,5.4,30.53,7.88l3.26,2.62l3.55-0.06c4.22,2.35,8.09,5.24,11.61,8.67
	c0.28,0.11,0.64,0.17,0.94,0.23c1.89,0.85,3.57,1.8,5.06,2.83c0.21,0.08,0.5,0.03,0.73,0.03c0.94,0.45,1.66,1.07,2.14,1.87
	c14.58,11.36,28.18,24.2,35.94,41.53c9.62-0.91,18.31,1.16,24.16,8.25c-4.92,4.1-10.83,1.92-16.17,3.46
	c4.28,7.99,8.6,17.46,3.27,25.19c-6.73-2.74-6.75-19.08-12.19-18.96c-3.69,0.08-4.36,5.96-8.34,7.22
	c-13.28,4.22,5.77-21.88,1.85-26.13c-12.94-23.05-35.61-41.22-60.16-51.59c-2.64,4.45,1.72,4.58,1.85,7.18
	c-16.08-14.15-37.6-19.42-59.5-22.98c-4.69-1.21-10.83-9.89-10.76-15.29l1.17-93.58c12.98-7.01,18.74-19.29,21.53-34.84
	c5.56,9.27-2.8,18.35-6.16,26.51c4.67,8.38,11.19,17.1,11.26,27.75C390.39,1121.6,396.59,1116.72,404.28,1114.48z"/>
<path class="st13" d="M342.66,1245.17l3.05-12.25c-10.34-20.96-108.32-27.51-122.89-25.8l-22.03,2.59
	c-4.45,1.74-9.87,3.78-14.55,3.75c-0.31,0.04-0.66-0.1-0.96-0.04c-2.52-2.08-5.99-0.71-9.06-4.33c16.84-8.26,31.6-19.51,49.92-22.83
	l100.82-18.22C343.68,1196.05,365.35,1213.96,342.66,1245.17z"/>
<path class="st13" d="M421.55,1001.1c-37.46-21.21-105.61-53.73-148.06-60.37c0.35-1.82-1.11-3.44-1.87-5.46
	c29.79-4.05,57.96-0.63,86.61,6.24l55.35,13.28C416.18,958.51,435.11,1001.84,421.55,1001.1z"/>
<path class="st13" d="M412.43,950.29c-34.4-17.26-71.94-21.09-109.58-22.62c37.42-5.6,74.12,0.4,110.45,3.17
	C411.49,939.07,411.94,944.79,412.43,950.29z"/>
<path class="st13" d="M230.27,1180.48c20.64-14.61,76.73-20.31,89.36-33.6c4.41,6.32,2.81,11.59,4.82,17.36
	C292.08,1163.39,262.24,1173.7,230.27,1180.48z"/>
<path class="st3" d="M390.75,1254.9c4.72,9.6,9.54,20.04,9.28,31.38c-0.13,5.43-3.13,11.45,1.13,15.36
	c-7.15,2.41,5.71-9.67-18.26-12.59c7.4-10.13,6.38-20.94,4.81-32.7C388.01,1254.49,389.01,1253.94,390.75,1254.9z"/>
<path class="st9" d="M390.75,1254.9c-4.97,3.06,7.18,20.66-7.85,34.16c-0.93,0.84-1.69,1.6-2.77,2.29
	c8.97-11.7,8.28-26.74,3.63-41.56C387.93,1248.41,389.43,1252.23,390.75,1254.9z"/>
<path class="st4" d="M413.56,1103.67c-0.5,4.38-4.69,7.25-6.15,12.08l9.23,2.86c-0.48,3.08-9.43,3.45-10.47,0.63
	c-1.32,0.21-1.99-0.57-1.97-1.41l0.07-3.35C408.41,1111.77,409.88,1106.69,413.56,1103.67z"/>
<path class="st3" d="M435.96,1264.49c0.08-2.34,0.06-4.71-0.02-7.06c2.14-0.43,1.92,2.08,1.92,3.53
	C437.85,1262.39,438.09,1264.92,435.96,1264.49z"/>
<path class="st3" d="M434.68,1274.65c-0.17,2.69-0.56,6.78-3.72,7.08C432.08,1279.37,432.02,1275.5,434.68,1274.65z"/>
<path class="st9" d="M377.2,1294.72c-0.67,2.33-2.17,4.1-4.55,4.89C373.48,1297.48,374.99,1295.49,377.2,1294.72z"/>
<path class="st3" d="M427.18,1287.13c-1.6,2.83-3.89,5.76-7,6.85C421.76,1291.22,424.22,1288.34,427.18,1287.13z"/>
<path class="st3" d="M435.89,1255.87c-1.37-1.4-0.55-3.45-1.01-5.11c1.27-0.59,2.06,0.67,2.01,1.58
	C436.81,1253.65,437.07,1255.35,435.89,1255.87z"/>
<path class="st3" d="M434.89,1271.22c0.09-1.39-0.51-3.44,0.98-4.23c0.69,0.75,1,1.73,1.04,2.58
	C436.97,1270.73,436.02,1271.81,434.89,1271.22z"/>
<path class="st9" d="M370.6,1300.81c0.26,2.61-2.39,2.18-4.05,2.76C366.53,1301.5,368.84,1301.02,370.6,1300.81z"/>
<path class="st10" d="M327.53,711.5c-7.44,3.87-16.73,5.14-25.27,6.57C309.39,713.84,319.03,712.63,327.53,711.5z"/>
<path class="st15" d="M373.05,704.79c-0.48,2.47,1.15,5.4-0.46,7.55c-0.57-2.47,0.14-6.04-2.76-6.38
	C370.65,705.07,371.91,705,373.05,704.79z"/>
<path class="st15" d="M383.9,759.45c-5.18-3.18-6.03-10.76-7.46-16.58C380.3,747.34,380.53,754.09,383.9,759.45z"/>
<path class="st10" d="M289.98,720.84c-1.07,1.41-3.28,2.32-4.86,1.31C286.17,720.61,288.39,719.62,289.98,720.84z"/>
<path class="st15" d="M346.74,707.46c-1.39,1.21-3.47,2.41-5.11,1.13C342.97,707.26,345.1,706.13,346.74,707.46z"/>
<path class="st10" d="M334.23,710.32c-0.72,1.47-2.76,0.93-4.12,1.03c-0.63-1.17,0.41-1.96,1.58-2.05
	C332.6,709.22,333.36,710.04,334.23,710.32z"/>
<path class="st15" d="M376.05,737.51c-0.98,0.51-1.39-0.5-1.54-1.06c-0.2-0.76-0.12-2.48,0.05-3.19c1.37-0.65,1.78,0.95,1.79,1.69
	C376.36,735.84,376.15,736.76,376.05,737.51z"/>
<path class="st15" d="M353.43,706.46c-1.1,1.16-2.67,1.14-4.15,0.92c-0.58-1.19,0.62-1.97,1.6-1.86
	C351.77,705.63,353.26,705.39,353.43,706.46z"/>
<path class="st13" d="M400.49,699.08c4.45,4.47,10.52,2.75,13.65,8.5c-12.14-3.83-23.68-8.11-34.93-15.15
	c6.68-33.07-9.46-40.75-20.1-69.3c-4.27-11.45-9.19-21.28-18.92-29.07l18.18-33.14c2.68,2.29,1.48,4.07,2.03,6.37
	c44.16,12.66,81.95,66.73,71.34,112.12c18,1.82,37.5,1.71,51.55,14.54c-18.37-4.81-33.68-12.07-52.68-11.26
	C422.85,690.91,412.49,695.69,400.49,699.08z"/>
<path class="st13" d="M541.59,436.92c8.95,9.15-27.11-6.32-32.47-2.99l-14.04,20.45c-10.67-6-13.32-17.4-20.4-25.68
	c-30.43-35.6,8.83-42.98-19.14-102.47c6.04-8.11,12-15.29,18.98-21.79c13.64,12.76,17.32,30.03,23.24,46.48l5.45-4.9
	c1.61-1.45,3.72,0.22,5.43,1.4c-4.07,1.72-6.9,4.11-9.7,7.87c14.35,19.97,23.9,51.6,9.69,75.04
	C520.85,431.61,531.09,433.95,541.59,436.92z"/>
<path class="st8" d="M784.52,790.18c-9.01-8.44-31.82-29.47-26.98-42.16l1.85-2.12c2-3.58,5.92-5.49,8.56-8.53l2.09-1.98
	c0.63-0.15,1.14-0.73,1.74-0.94l2.15-1.95c0.63-0.22,1.24-0.66,1.79-1.02l6.19-6.24c15.22-9.71,30.4-19.43,45.55-29.15l2.01,0.99
	c1.68,4.21,7.01-0.31,7.49,3.02c1.05,7.32-15.98,27.51-22.31,39.68C805.38,757.62,794.87,773.85,784.52,790.18z"/>
<path class="st11" d="M934.14,637.76c-9.49,6.02-19.87,11.91-28.75,18.84c-27.05,9-51.84,25.08-75.89,40.48l-53.75,34.4
	c2.84-6.07,9.62-10.68,5.8-17.14c3.09,0.37,4.63,3.21,8.25,4.06c21.88-16.01,44.38-29.58,67.26-43.6c0.51-3.92-0.81-7.15,0.17-10.41
	c3.54-2.75,7.88-1.99,12.56-2.01C889.92,662.32,916.43,641.73,934.14,637.76z"/>
<path class="st3" d="M832.34,835.82c-5.35,0.38-11.33,2.86-16.3-0.92c-10.1-7.68-14.9-19.22-20.87-29.62
	c0.07-0.52-0.16-1.16-0.24-1.68c-1.47-0.94-2.56-3.5-1.98-5.07c4.26,0.72,8.38-0.06,13.42,0.25L832.34,835.82z"/>
<path class="st4" d="M786.29,906.2c-4.93,2.26,1.89,8.49-2.18,12.99c-3.59-4.54-1.87-10.17-3.43-14.77
	C783.41,904.49,784.43,904.64,786.29,906.2z"/>
<path class="st11" d="M773.95,709.93c-0.9,0.07-1.89,0.3-2.95-0.24c-0.66-0.33-0.98-1.37-1.32-2.19
	C771.48,707.53,773.47,708.01,773.95,709.93z"/>
<path class="st11" d="M794.93,803.61c-2.7,0.14-2.86-3.06-2.93-5.01c0.31,0.03,0.64-0.1,0.95-0.05
	C793.72,800.18,794.66,801.79,794.93,803.61z"/>
<path class="st8" d="M1016.84,710.77c-40-8.4-87.43,0.49-128.37-4.09c34.42-5.68,67.74-4.32,101.03-5.06
	C998.61,704.83,1009.21,701.43,1016.84,710.77z"/>
<path class="st8" d="M830.73,798.95c0.78,1.02,1.97-0.12,2.59-0.89c0.43-0.53,0.06-1.44-0.15-2.08c8.4,6.91,19.3,12.71,24.26,23.23
	C844.78,817.89,838.36,806.49,830.73,798.95z"/>
<path class="st12" d="M668.31,646.94c0.16,1.41,0.23,2.12,0.23,2.12c7.07,5.24,5.49,11.86-2.97,13.71c2.2-0.02,3.38,0.81,3.55,2.5
	c-5.08,2.43-11.61-0.13-13.55-5.71c-1.12-3.06-2.12-6.94,0.14-9.66l0.26-2.76C656.22,642.12,668.72,641.41,668.31,646.94z"/>
<path class="st0" d="M678.78,657.71c-1.62,4.81-5.13,5.41-9.66,7.57c-2.78-0.56-6.68-0.08-7.78-3.37c2.9-0.88,5.36-1.19,7.43-2.33
	c1.85-1.02,3.57-3.95,1.5-6.09l-3.46-3.58c-0.99-1.02,0.05-2.44,1.5-2.98c1.71-2.26,9.56,1.94,10.46,3.53
	C679.72,652.15,679.16,655.78,678.78,657.71z"/>
<path class="st4" d="M679.75,642.29c2.67-0.12,4.02,3.31,1.74,4.88c-1.66,3.62-1.58,7.17-2.71,10.54
	c1.63-7.56-6.34-8.11-10.47-10.76c-3.41-2.2-6.54-3.75-12.33,0.21l-0.33-3.99C663.13,640.66,671.96,641.91,679.75,642.29z"/>
<path class="st7" d="M683.69,648.17l-2.21-1.01c-0.62-1.61-1.39-3.18-1.74-4.88c2.76-2.46,6.32-7.79,10.42-3.74
	c1.67,1.65,0.84,5.48-0.97,6.78C687.53,646.51,685.94,648.13,683.69,648.17z"/>
<path class="st2" d="M655.57,659.57c-0.57-1.63-2.62-2.64-2.6-4.55c0.03-2.44,0.09-4.54,2.74-5.11
	C656.1,653.12,655.79,656.35,655.57,659.57z"/>
<path class="st6" d="M712.47,657.76c-0.38,0.74-0.69,0.66-0.94-0.18c-2.1-1.43-4.37-0.98-6.83,1.34l-0.97-1.05
	c-2.16,0.58-4.19,0.42-5.89-1.21c0.61-2.78,3.51-4.29,5.01-6.72c1.81-0.52,5.15-0.16,6.66-1.88c1.75,3.11,4.36,5.6,7.75,7.29
	C716.88,657.94,714.08,658.33,712.47,657.76z"/>
<path class="st7" d="M614.46,646.82c-0.77-1.43-0.88-2.9-1.03-4.48c3.44-0.3,6.29-3.4,10.94-1.52
	C623.79,643.85,617.56,648.71,614.46,646.82z"/>
<path class="st7" d="M656.68,633.23c2.36-0.98,3.47,1.65,4.4,2.69c1.5,1.68,1.29,4.22-0.52,4.34c-3.03,0.2-5.23,0.92-5.73-0.71
	C654.2,637.5,654.28,634.22,656.68,633.23z"/>
<path class="st7" d="M645.51,631.31c1.81-1,2.91,1.88,3.14,3.03c0.24,1.19,0.35,3.91-1.31,4.56c-1.84,0.72-2.72-1.73-3.33-2.74
	C643.25,634.91,643.29,632.53,645.51,631.31z"/>
<path class="st7" d="M730.7,675.1c-0.11,1.55-0.59,3.3-1.57,4.54c-1.26,1.59-3.12,1.12-4.76,0.05c-1.35-0.88-2.22-2.91-2.53-4.63
	c0.78-1.94,2.37-2.87,4.38-3.12C728.34,671.67,729.38,674.05,730.7,675.1z"/>
<path class="st7" d="M711.52,657.58c0.3-0.01,0.66,0.08,0.94,0.18c0.99,2.72,1.14,5.61,0.89,8.48c-3.61,1.05-5.92-1.24-7.71-4.09
	C702.4,658.53,710.09,654,711.52,657.58z"/>
<path class="st7" d="M723.9,653.28c1.84-1.15,4.1-0.78,6.04,0.41c1.47,0.9,1.52,2.9-0.04,4.73c-1.36,1.6-3.76,1.71-5.46,0.18
	C723.34,657.61,721.83,654.58,723.9,653.28z"/>
<path class="st11" d="M711.52,657.58c-1.47,0.04-3.06-0.12-4.63,0.82c-1.02,0.61-1.34,2.31-1.25,3.75c-0.79-1.25-2.8-2.09-1.93-4.27
	c2.43-0.65,4.36-2,6.65-4.21C711.68,655.01,711.34,656.37,711.52,657.58z"/>
<path class="st10" d="M416.65,1118.61c0.39-0.02,1.22,0.06,1.67,0.08c2.59,0.67,4.94,1.53,7.07,2.6c0.49,0.13,1.12,0.15,1.63,0.14
	c1.57,0.77,2.96,1.71,4.17,2.8c0.24,0.04,0.59-0.09,0.8,0.02c3.44,2.55,6.57,5.43,9.38,8.63c0.09,0.25,0.16,0.51,0.22,0.77l2.62,3
	c0.13,0.31,0.17,0.7,0.35,0.98c8.33,10.9,9.02,25.33,6.46,38.39c-0.04,0.88-0.1,1.74-0.1,2.62c-1.09,7.1-0.98,14.3,0.33,21.58
	c-0.18,1.65-0.24,3.82-0.03,5.47c-0.28,3.07-1.28,5.64-3,7.7c-0.15,0.36-0.03,0.84-0.21,1.17c-3.89,6.78-10.86,12-18.85,10.33
	c-11.57-2.31-23.02-5.06-35.16-9.95c16.06-27.51,14.64-62.3-2.05-89.28l14.25-6.41L416.65,1118.61z"/>
<path class="st8" d="M303.49,1457.28c-7.79,3.48-15.33,9.02-23.95,10.64l23.91-30.88C304.79,1443.87,301.06,1450.96,303.49,1457.28z
	"/>
<path class="st4" d="M447.99,1214.54l-7.65,13.46c0.01,2.76,3.49,3.26,3.96,5.48c-5.29-2.14-10.13-6.02-15.17-8.61
	C436.29,1222.06,443.09,1221.15,447.99,1214.54z"/>
<path class="st4" d="M451,1176.01c0.65-13.45,0.91-26.74-6.46-38.39C453.68,1146.93,455.52,1163.91,451,1176.01z"/>
<path class="st4" d="M450.9,1178.63c0.02,7.19,1.1,14.56,0.33,21.58C449.05,1193.6,447.52,1184.66,450.9,1178.63z"/>
<path class="st4" d="M200.79,1209.71c-2.13,3.88-7.86,1.68-10.91,4.91c-1.32,0.08-2.66-0.24-3.64-1.16
	C190.99,1211.95,195.84,1210.29,200.79,1209.71z"/>
<path class="st4" d="M441.36,1132.88c-3.36-2.45-7.07-5.19-9.38-8.63C435.74,1126.12,439.97,1128.83,441.36,1132.88z"/>
<path class="st4" d="M448.2,1213.37c1.07-2.54,1.34-5.45,3-7.7C451.51,1208.07,451.28,1213.17,448.2,1213.37z"/>
<path class="st4" d="M425.38,1121.29c-2.39-0.64-6.15,0.05-7.07-2.6C420.78,1118.82,425,1118.26,425.38,1121.29z"/>
<path class="st4" d="M450.3,1236.54c-1.82-0.69-5.1-0.41-5.06-2.83C447.21,1234.1,450.49,1233.94,450.3,1236.54z"/>
<path class="st4" d="M431.18,1124.23c-1.74-0.32-4.15-0.69-4.17-2.8C428.92,1121.38,431.27,1121.99,431.18,1124.23z"/>
<path class="st4" d="M675.92,1657.07c0.93,0.01,2.37,1.22,2.97,0.66c0.99-0.92,0.98-2.52,1.34-3.4c0.79,3.89,4.21,7.98,2.85,13.06
	C678.49,1665.49,678,1660.14,675.92,1657.07z"/>
<path class="st3" d="M992.38,1378.49c-0.5-0.14-0.93-0.26-1.31-0.25c-2.47,0.07-0.55,4.8-2.85,5.61c-1.59,0.56-3.04,0.27-3.28-1.37
	c0.75,0.23,1.81,0.52,2.43,0.02c0.69-0.56,0.92-1.72,0.94-2.94l0.57-35.59c-20.4-12.1-16.89-35.69-4.71-53.29
	c10.84,3.13,15.16,14.51,17.34,23c3.28,12.73-3.09,19.12-8.41,28.2C988.64,1353.43,991.09,1367.39,992.38,1378.49z"/>
<path class="st6" d="M1014.02,1184.69l1.87,20.16l-3.14,5.69c-17.23-1.9-26.74-20.33-23.96-36.48
	C999.89,1169.56,1009.03,1177.04,1014.02,1184.69z"/>
<path class="st11" d="M1076.27,1228.1l-1.09-0.05c4.35-8.56,3.65-18.17,6.59-28.46C1083.89,1209.4,1081.99,1220.62,1076.27,1228.1z"
	/>
<path class="st10" d="M330.61,660.17c-24.42,9.13-45.14,22.89-69.41,34.12c21.14-18.17,45.83-30.08,69.67-42.88
	c1.08-0.58,2.96,2.97,2.76,3.95C333.34,656.79,332.39,657.86,330.61,660.17z"/>
<path class="st6" d="M990.34,1371.87c0.65,1.59,0.69,3.26-0.06,4.85C989.43,1375.68,989.41,1374.34,990.34,1371.87z"/>
<g>
</g>
<g>
</g>
<g>
</g>
<g>
</g>
<g>
</g>
<g>
</g>
<g>
</g>
<g>
</g>
<g>
</g>
<g>
</g>
<g>
</g>
<g>
</g>
<g>
</g>
<g>
</g>
<g>
</g>
</svg>
