<?xml version="1.0" encoding="iso-8859-1"?>
<!-- Generator: Adobe Illustrator 30.2.1, SVG Export Plug-In . SVG Version: 9.03 Build 0)  -->
<svg version="1.1" id="Layer_1" xmlns="http://www.w3.org/2000/svg" xmlns:xlink="http://www.w3.org/1999/xlink" x="0px" y="0px"
	 viewBox="0 0 1200 1543" style="enable-background:new 0 0 1200 1543;" xml:space="preserve">
<style type="text/css">
	.st0{fill:#DCE4F5;}
	.st1{fill:#A5C4F9;}
	.st2{fill:#E0B5E1;}
	.st3{fill:#E7BFD4;}
	.st4{fill:#EEC8C7;}
	.st5{fill:#3076DE;}
	.st6{fill:#FCCCC5;}
	.st7{fill:#555561;}
	.st8{fill:#D4DCEE;}
	.st9{fill:#72A0E3;}
	.st10{fill:#F8ECDE;}
	.st11{fill:#C5C5D8;}
	.st12{fill:#224EF5;}
	.st13{fill:#E9D4D3;}
	.st14{fill:#CFCEDA;}
	.st15{fill:#9493A0;}
</style>
<path class="st0" d="M602.45,920.28c4.11,3.14,4.03,10.42-0.3,13.33c-2,1.5-2.25,2.73-0.77,3.71c0.79,1.18,1.53,2.38,2.08,3.67
	c0.55,1.26,1.06,2.49,1.15,3.75c1.9,26.53,0.71,53.76-0.45,80.18l-1.73,3.83l-4.3,2.38c0,0-12.38,0.47-37.14,1.41l0.92,5.75
	l212.52,23.28l269.89-20.27c-21.97-1.07-43.53-4.06-64.67-8.98l-3.24-2.5l-23.43-1.26l-2.27-2.44l-2.68-1.24
	c0-29.03,0.01-58.06,0.01-87.11l2.68-1.6l0.42-0.68c82.42,0.02,165.02,0.15,247.81,0.37l0.91,1.79v192.9
	c-7.59,2.28-15.61,2.4-24.07,0.38c-35.46-7.01-71.07-13.27-106.83-18.76c-35.32-1.59-70.61-3.37-105.88-5.35l-4.59,2.05l-21.25-1.11
	c-19.76,1.25-39.37,1.91-58.82,1.99l-1.21,3.1c3.32,2.96,0.32,13.73-4,15.12l-83.73,12.99c-10.48,4.41-21.15,8.21-32.01,11.42
	c-27.67,2.17-55.35,2.81-83.06,1.91c-23.67-6.26-47.18-13.15-70.52-20.67c-61.57-5.94-124.47-7.26-186.64-8.03
	c-15.64-11.3-33.79-15.69-52.88-15.7c-4.5-1.57-4.89-3.69-3.53-8.04l-17.37,0.43l-2.01-2.63c2.5-4.1,7.05-6.4,13.65-6.89
	c35.01-5.16,70.17-8.67,105.47-10.53l3.71-2.22c12.23-0.11,24.43,0.16,36.6,0.82c0.26-2.67,2.86-3.87,7.82-3.58
	c-19.28-1.37-38.59-3.11-57.42-6.98l-2.66,1.75c-33.34-5.86-67.18-8.64-101.54-8.31c-46.78,0.32-94.24,0.35-140.59-10.92
	c-0.82,0.93-2.38,1.71-2.95,0.99c-6.43-8.15,19.85-21.43,26.24-23.3l107.5-7.3l1.79,2.56c4.69-2.07,7.04-3.11,7.04-3.11
	c27.64-0.57,55.21-2.02,82.72-4.36l14.45,0.61l4.62-1.77c12.26-0.45,24.57-0.19,36.93,0.77l1.05-2.75l19.35-1.25
	c-56.41-3-113.84-4.53-172.39-5.34c-5.7-0.08-11.28-0.42-16.72-2.33l-2.68,0.74c-0.1,0.66-0.25,1.29-0.58,1.79
	c-0.46,0.7-15.55,1.94-15.4-1.66c-3.54-3.13,3.42-12.81,7.86-13.36l2.64-2.76c11.6-2.19,23.17-4.61,34.72-7.27l69.72-4.32
	c4.77-0.61,8.75,0.04,11.95,1.96c0.29-2.48,2.2-3.53,5.7-3.14c-24.99-5.57-50.39-8.02-76.18-7.35c-29.04,0.5-58.07,0.72-87.09,0.69
	l-3.11-1.82l-0.43,1.72c-29.04-3.59-58.16-4.86-87.35-3.8c-6.93,0.32-8.84,1.91-5.72,4.74c12.18,0.41,54.13,2.96,61.12,12.18
	c0.76,1.01,0.68,2.46,0.55,3.77c-4.56,3.12-42.8,7.35-44.53,5.91c-0.49-0.41-0.8-1.02-1.06-1.7c-3.08,0.76-6.25,1.06-9.51,0.9
	l-0.88,1.93l-98.34,1.4l10.86,2.11l1.44,2.99c7.67,0.6,15.29,1.28,22.87,2.04l1.23,1.79c10.06-0.53,51.71,3.07,55.73,11.1
	c1.92,3.84-3.73,6.22-6.25,7.25c11.46,3.46,4.45,13.07-3.95,12.61l-9.35,4.03c-29.5,2.7-58.99,5.18-88.47,7.44l17.49,1.83l1.27,2.83
	c3.8,0.99,16.48,6.71,18.3,9.37c1.78,2.61,2.23,3.83-0.49,6.27l-51.98,17.47c24.91,3.07,49.94,5.12,75.1,6.14
	c25.32,2.3,50.53,10.2,68.94,27.96l-0.35,3.59l-0.67,3c-6.34,1.69-12.47,3.7-18.39,6.03l8.26,3.8c5.43,0.9,9.21,2.97,11.32,6.21
	c3.01-3.46,13.45-1.34,15.79,2.44l4.16-2.46c21.79,1.14,43.59,2.29,65.39,3.43l1.44,2.76c0.96-0.63,1.94-1.21,2.99-1.63
	c1.01-0.41,1.98-0.78,2.94-0.75c27.9,0.81,58.83,2.62,85.59,10.66c0.92,0.27,1.72,0.96,2.55,1.7c0.85,0.76,1.58,1.66,2.27,2.6
	c-1.1,3.3-4.37,4.6-9.82,3.91c-8.03-0.67-15.92-0.26-23.68,1.23c-21.94,15.8-46.27,27.61-73.01,35.43
	c-63.32,0.27-126.65,0.53-189.99,0.77c-25,8.32-49.87,16.59-74.59,24.82l-2.35-2.04V920.09c0.14-0.75,0.28-1.34,0.42-1.34
	c200.3-0.44,400.96-0.5,600.99,0.01C601.82,918.76,602.14,919.42,602.45,920.28z"/>
<path class="st1" d="M855.64,287.64c3.19,1.5,6.48,3.06,9.05,5.52c18.71,17.93,37.3,35.67,56.29,53.32
	c19.67,18.28,41.96,35.24,63.73,51.45c3.51,2.21,4.75,4.8,3.71,7.78l5.7,3.15c19.63,21.16,40.77,40.72,63.42,58.69
	c16.37,17.4,34.66,32.68,54.88,45.85c0,0,0.51,1.63,1.53,4.88l-1.27,3.42c-122.78,47.25-244.89,95.97-366.33,146.16
	c-53.51,29.66-106.26,61.4-158.25,95.22l-37.8,20.52c0.11,2.87-2.2,4.71-6.91,5.55c30.57,4.87,61.14,11.16,91.02,19.39
	c1.26,0.35,2.43,1.05,3.61,1.79c1.21,0.77,2.32,1.69,3.41,2.65c-0.06,1.09-0.16,2.17-0.44,3.21c-1.28,4.76-22.12,26.01-26.85,27.17
	c-1.04,0.26-2.13,0.33-3.23,0.35c-4.77,0.42-7.16,0.64-7.16,0.64c-57.42-18.76-109.92-30.87-169.41-27.39
	c-86.36,5.05-176.76,15.49-262.45,35.48c-55.53-6.13-111.48-4.2-166.64,4.19L0.1,855.8v-17.41c1.02-1.04,2.07-2.03,3.24-2.86
	c1.14-0.81,2.27-1.56,3.51-1.96c41.84-13.17,92.68-15.35,136.47-15.67c27.78,1.39,55.56,1.91,83.32,1.54
	c61.04-8.09,121.34-15.96,180.91-23.62l3.87,2.2l2.14-2.89c9.96,0.65,19.89,1.06,29.78,1.23c12.68-20.65,27.4-39.85,44.16-57.6
	c2.45-26.86,24.76-51.26,43.87-69.44c11.76-14.66,21.6-30.57,29.52-47.71c10.4-11.6,15.57-24.08,15.52-37.42L382.9,692.04
	c-2.16-0.59-2.85-2.36-3.11-4.55l107.55-92.72l-25.94,7.05c-2.89,0.22-3.99-1.48-4.52-4.14l19.46-66.52
	c1.18-16.73,0.99-33.52-0.58-50.37c-64.81,41.26-129.71,82.4-194.72,123.43c-20.83,14.14-42.61,26.08-65.34,35.82
	c-2.18,3.69-5.67,1.3-4.08-2.62l2.58-4.08c52.43-45.61,78.65-68.42,78.65-68.42c24.47-19.2,48.36-39.05,71.67-59.56
	c21.16-23.18,41.56-47.05,61.2-71.6c2.18-2.86,4.06-2.32,6.73-1.23l18.55,19.8c3.22,1.21,23.07,3.31,24.54,2.69
	c11.74-4.9,27.5-13.46,38.46-20.14c-8.6,3.06-12.94,1.59-13.02-4.42c-0.34-25.75,3.78-50.47,12.34-74.17l3.99-4l5.49,1.57
	c69.5,47.11,104.25,70.66,104.25,70.66c6.34,3.33,9.31,7.26,8.92,11.8l0.23,2.92c-25.37,12.99-49.44,26.18-70.22,47.59
	c56.12,10.1,112.24,21.72,166.86,38.32c25.16-32.55,52.13-63.35,80.91-92.39c10.6-13.1,20.62-26.53,30.06-40.28l-70.12,40.44
	c-5.36-0.33-5.64-4.26-0.83-11.8c23.18-44.66,48.13-88.28,74.83-130.86l3.85-3.36C852.53,282.86,855.51,283.47,855.64,287.64z"/>
<path class="st2" d="M0.1,115.18V0h1199.77v115.02l-1.29,2.68c-398.89,0.05-797.82,0.11-1196.79,0.16L0.1,115.18z"/>
<path class="st3" d="M1199.87,172.56v114.2l-1.32,2.63c-34.81-2.27-69.96-2.47-105.44-0.62c-69.71-1.11-139.44-2.55-209.21-4.32
	c-6.04,7.93-15.57,7.95-23.79,3.27c-1.45,0.33-2.94,0.3-4.47-0.09c-1.04-0.24-2.97-1.23-4.05-0.73c-2.59,3.78-5.24,4.9-7.94,3.38
	l-7.12,2.23c-21.64-8.25-45.12-11.68-70.45-10.28c-31.46,0.84-62.97,1.25-94.54,1.21c-215.55-3.9-428.94-5.35-650.73-2.97
	c-6.95,0.07-13.85-0.85-20.71-1.91v-9.38l1.27-2.69l673.76-5.4L1.55,207.71l-1.45-2.8v-30.8l1.29-2.68
	c398.89-0.52,797.82-1.03,1196.79-1.55L1199.87,172.56z"/>
<path class="st4" d="M843.64,290.28l-1.82,4.55l-22.37,16.61c-21.61,23.98-46.52,42.34-79.72,45.02l-13.09,19.1
	c-5.08,7.2-13.61,10.06-22.03,9.07c-15.66,14.24-31.67,28.07-48.04,41.49c-6.48,6.25-13.33,9.65-20.57,10.21
	c-3.68-4.9-9.13-8.96-15.1-12.65c-36.17-22.37-69.13-48.18-103.57-71.38l-3.75,3.89c-31.75,16.75-62.65,34.97-92.7,54.65
	c-18.06,15.26-37.63,26.96-58.71,35.1l-29.45-7.77l-15.7,8.92l-3.73-0.98c-3.43-5.48-7.35-7.09-13.43-8.62
	c-3.04-0.76-6.12-1.36-9.23-1.83c-9.22-1.39-18.52-2.09-27.85-2.57c-20.81-0.23-41.41-1.16-61.79-2.77
	c-4.06,3.08-7.47,3.73-10.24,1.96c-1.89-6.69-6.35-7.34-13.36-1.97c-4.14-2.57-8.45-4.04-12.94-4.4c-27.27,1.46-55.79,2.04-83.5-0.4
	c-3.18,5.46-12.16,8.53-16.7,2.77c-1.91,4.35-5.32,4.83-9.36,2.9c-10.61,1.66-44.31,4.43-52.29-0.56c-0.91-0.57-1.72-1.28-2.51-2.05
	V375l0.63-2.77l333.53-37.36L1.65,321.49l-1.55-2.74v-40.18c54.99-2.29,109.82-2.65,165.62-2.17c47.94,0.42,94.1-0.46,141.87,0.13
	l113.67,1.39c31.26,0.38,61.33-0.71,92.58-0.08l118.43,2.38c39.86,0.8,77.63,0.93,117-0.46c22.47-0.79,44.94,0.54,67.08,3.27
	C825.18,284.12,833.59,291.32,843.64,290.28z"/>
<path class="st5" d="M1199.87,487.04v269.28c-5.07,1.05-7.61,1.57-7.61,1.57c-34.14-7.21-68.24-10.38-102.31-9.5l-11.53,1.6
	c-42.65,9.95-85.02,17.33-129.04,11.21c-49.48-7.75-99.23-10.81-149.23-9.19l-20.69,1.99c-53.26,10.76-106.02,14.76-159.78,5
	c-1.13-0.21-2.21-0.78-3.29-1.4c-1.12-0.64-2.15-1.45-3.15-2.3l0.02-2.97l336.21-156.81c2.18,0.62,2.91,2.39,3.14,4.61l-98.38,99.83
	l318.04-200.1l22.34-10.89C1193.8,485.14,1197.68,483.8,1199.87,487.04z"/>
<polygon class="st6" points="1199.87,115.02 1199.87,172.56 0.1,174.11 0.1,115.18 "/>
<path class="st5" d="M74.83,516.87l2.7-1.21c19.47,16.93,38.94,33.86,58.43,50.8l-0.54,3.08l3-0.92
	c24.59,21.91,49.19,43.81,73.78,65.72l-0.57,3.08c1.15,1.03,2.55,2.34,4.08,2.62l6.09,2.46c33.78,29.63,71.43,53.54,112.98,71.73
	c23.54,16.37,43.62,36.96,60.23,61.78l1.24,5.95l-0.34,2.81l-112.59,24.05c-88.78-28.69-189.61-22.35-276.34,10.76l-6.87,0.05
	V483.48l2.23-1.94C27.38,491.67,51.55,503.45,74.83,516.87z"/>
<path class="st4" d="M1199.87,286.75v120.63l-1.27,2.67l-110.95-1.09c-19.69,1.57-39.25,1.19-58.68-1.16
	c-12.25,5.61-29.45,6-40.55-2.08c-7.27-9.36-17.68-13.6-27.06-21.53l-42.13-35.66c-22.46-19.02-43.52-39.93-63.6-60.88
	c6.13-9.27,11.56,10.04,27.65-5.62c68.76,3.54,137.06,0.76,205.96,3.98c13.56,0.64,26.55-2.19,40.64-1.69L1199.87,286.75z"/>
<path class="st7" d="M347.16,1114.61l3.66,2.32c13.84,3.44,27.87,6.43,42.1,8.99c3.73,0.61,6.22,2.11,7.45,4.49
	c3.88-0.43,4.19,3.9,0.55,5.13c1.61,1.72,3.46,2.48,5.53,2.29l168.54,7.65c3.55,0.49,6.99,1.52,10.32,3.08l3.14-1.87
	c9.32,4.03,18.88,7.13,28.69,9.29l2.21,2.81l8.46,1.48c60.01-0.46,120.73-1.5,182.19-3.14c30.99-6.32,61.99-9.94,93-10.85
	c4.66-0.33,7.39-4.25,9.1-7.66l-3.3-0.21c-8.46-8.47-18.32-15.38-28.29-21.96l-0.51-3.57l4.14-2.7c21.54-1.37,43.1-2.05,64.66-2.04
	c61.77,7.42,123.86,17.84,186.28,31.23c2.38,0.64,4.14,2.39,5.52,4.37c-3.13,5.11-15.96,6.4-19.68,1.57
	c-10.47,1.17-20.93,1.18-31.39,0.05l-88.12-16.33c-15.97-0.91-31.87-2.38-47.69-4.42c-0.45,14.73-0.54,29.53-0.26,44.42l-2.67,1.58
	l-1.1,2.9l-46.36,7.57l-50.09,41.72c2.44,7,7.03,13.34,12.84,17.93l0.39,3.51c3.82,4.38,9.02,7.7,15.59,9.97l0.48,3.23l28.77,1.94
	c0,0,95.79,15.49,287.37,46.47l1.21,2.91v7.76c-1.36,3.93-7.53,5.3-10.52,2.47c-15.04-0.91-30-3.53-44.87-7.88
	c-37.48-7.69-75.06-14.77-112.73-21.26l-7.3-2.85c-4.5,1.14-6.75,1.72-6.75,1.72c-62.55-12.71-123.62-17.91-187.29-5.05
	c-10.8,2.83-21.43,3.95-31.88,3.35c-1.96,1.54-3.35,1.56-5.02-0.34l-3.45,2.48c-11.78,0.58-23.5,1.86-35.16,3.84l-3.67-1.97
	c0,1.07-0.22,2.69-0.96,2.8c-27.42,3.78-58.54,7.41-86.15,9.22c-5.2,1.52-8.68,0.99-10.43-1.58l-1.21-2.56l91.49-89.38
	c-1.32-3.34-3.38-5.59-6.18-6.74l-2.67-1.56l0.16-30.47l-37.32,0.28c0,0-2.4-0.8-7.21-2.4c-0.3,1.85-1.57,2.82-3.82,2.9
	c0.33,8.77-0.13,17.37-1.38,25.8c-9.99,1.35-20.17,1.72-30.55,1.09c-2.61,0.13-4.11-1.33-4.63-3.81l-0.78-23.54
	c-1.94-0.27-3.76,0.01-5.44,0.85c-0.17,1.04-0.56,2.6-1.3,2.63c-9.36,0.39-20.94-0.74-30.06-2.25c-0.5-7-3.35-10.18-8.53-9.55
	l-1.66-2.9c-4.17,0.44-8.69-0.63-13.58-3.2c-15.24-2.48-30.76-3.2-46.55-2.16l-2.76-2.8c-0.17,1.05-0.65,2.62-1.4,2.6
	c-23.33-0.48-48.99-2.18-72.4-4.11c-8.29,0.06-16.17-1.35-23.96-4.04l-3.78,2.41l-24.8-2.22l-3.55-2.64
	c-1.13,3.57-5.13,2.15-7.72,0.49c-4.95-4.63-10.58-7.34-16.9-8.14c-15.47,1.34-41.92-7.23-51.49-19.23
	c-2.44-3.05-1.85-8.96,2.63-8.94C338.69,1102.04,351.16,1109.99,347.16,1114.61z"/>
<path class="st0" d="M1199.87,1135.71v145.89l-1.29,2.52l-173.55-24.03c-38.41-1.84-76.9-2.15-115.46-0.95l-27.04-1.75l-18.86-9.39
	c1.35-1.69,2.26-2.34,2.79-3.82c2.52-1.6,5.15-3.12,7.91-4.55c12.97-13.55,24.68-28.3,35.11-44.23
	c8.35-13.13,22.93-17.56,37.82-19.58l187.22-26.91c21.25-5.26,42.63-10.04,64.15-14.31L1199.87,1135.71z"/>
<path class="st6" d="M313.29,446.1l-2.53,4.51c-21.76,16.32-42.25,34.45-61.47,54.4c-26.94,24.32-52.23,37.05-84.94,50.61
	l-24.11,14.01l-4.83-0.09l-60.58-52.68C50.9,503.45,26.36,491.22,1.2,480.16l-1.1-3.38v-48.21c16.96,1.73,33.77,2.75,51.94,1.09
	c0.24-3.23-1.71-3.18-2.18-4.05c-1.04-1.89,0.94-3.86,1.96-3.6c1.96,0.51,3.83,1.35,3.27,2.85c-0.27,0.73-1.25,2.48-0.97,3.11
	c1.77,0.67,4.06,1.75,5.46,1.68c1.79-0.1,2.05-2.96,3.31-5.25c4.25,1.07,4.42,5.73,8.95,4.19c2.67-0.91,6.06-1.97,8.35-5.44
	c23.08,1.21,47.16,1.85,71.16,0.77c9.37-0.42,18.26-2.77,26.1,4.13c3.09-3.03,7.05-4.89,10.79-4.02c2.1,0.49,2.13,4.62,5.76,7.66
	c8.4-8.12,15.39-3,22.7-2.5C231.61,430.22,321.3,427.55,313.29,446.1z"/>
<path class="st5" d="M245.09,1430.25c0.25-0.63,0.55-1.21,1.01-1.59c1.22-1.03,29.95,5.49,31.14,6.56c0.87,0.78,1.14,1.93,1.22,3.05
	c2.85,0.18,2.58,2.18-0.28,2.49c-1.11,1.8-4.67,3.33-6.28,1.68c-13.58,5.45-13.5,6.39,0.25,2.84c0.3-2.37,4.48-3.69,6.52-2.67
	c-0.09-2.98,2.13-3.93,3.9-1.5c3.32-7.14,13.43-2.95,10.06,5.78c-23.93,29.43-45.01,62.32-64.67,94.79l-3.35,1.17H2.81
	c-1.55-1.1-1.48-2.96,0.2-5.57L86.65,1397c0,0,1.54-0.82,4.61-2.47l152.66,33.38L245.09,1430.25z"/>
<path class="st8" d="M605.05,850.35c-0.06,1.12-0.16,2.22-0.45,3.28c-1.23,4.51-17.73,20.46-22.66,24.35
	c-1.63,1.29-3.8,1.64-5.8,1.94l-5.02,2.68c-189.85,0-379.63-0.01-569.35-0.01l-1.67-2.68v-20.09c3.06-2.08,6.46-3.01,10.07-3.57
	c50.89-7.94,104.5-7.14,155.63-1.95c84.28-21.12,173.84-31.44,259.25-36.67c62.91-3.85,113.73,10.35,174.52,28.36
	c1.01,0.3,1.91,1,2.85,1.75C603.37,848.5,604.23,849.41,605.05,850.35z"/>
<polygon class="st6" points="0.1,269.2 0.1,204.91 738.45,263.44 "/>
<path class="st9" d="M1199.87,756.32v18.87l-3.88,1.83c-27.18,0.87-54.33,2.73-81.45,5.58c-61.28,13.95-121.36,10.87-182.35,3.2
	c-39.99-3.29-80.42-0.13-120.2,6.98l-7.26-1.41c-2.78,2.53-6.24,3.14-10.38,1.84l-5.18,0.81c0.86,3.16-1.14,5.39-6,6.68
	c-10.39,2.31-20.63,4.99-30.71,8.05c-0.11,2.59-1.34,2.68-2.5,0.3c-1.79-1.66-2.08-1.69-4.02-0.1c-0.47,3.96-3.94,3.13-5.15-0.24
	c-2.12-1-4.31-1.96-6.91-0.82l-1.42,2.59c-24.28-1.59-48.58-3.21-72.88-4.86l-5.88-3.05c1.25,4.5-8.08,11.48-12.28,10.42
	c-35.76-8.5-70.6-18.46-107.72-21.97c7.03-4.36,11.55-5.15,16.59-7.41c19.69-10.7,39.66-21.43,60.4-30.08l2.56,1.78
	c43.21,6.83,88.18,10.32,132.63,1.41c124.21-24.9,195.67,14.55,280.75,0.98c28.17-4.49,53.59-13.62,82.24-12.76
	C1140.03,745.86,1169.83,751.97,1199.87,756.32z"/>
<path class="st1" d="M378.91,1161.05c3.11-7.39,16.46,0.91,8.11,5.61c-0.31,6.23-0.61,12.34-0.9,18.33
	c5.71,0.64,10.59,1.63,15.79,4.26l4.46-1.1c21.1,1.8,42.23,3.71,63.4,5.74l8.26,3.29c3.6-3.87,13.53-2.02,18.93-0.98
	c5.99,0.09,9.65,2.01,10.96,5.75c-1.06,1.73-5.74,4.93-7.03,1.88c-28.02,4.53-55.76,10.15-83.22,16.86
	c-2.44,1.97-4.37,2.2-5.56-0.17c-15.26,6.61-31.33,11.93-48.23,15.94c-3.91,3.38-15.72,4.6-20.31,1.83c-1.99-1.2-1.95-2.9-0.99-1.01
	c1.06,2.09,1.37,2.97-1.29,3.84c-17.99,2.91-36.01,4.55-54.07,4.93c-34.22-4.73-68.26-9.32-102.11-13.78
	c-0.98-1.29-1.51-2.84-1.59-4.66c-21.57,7.73-43.48,12.31-65.73,13.74c-0.15,1.29-0.42,2.69-1.34,3.68
	c-1.42,1.53-38.38,10.04-40.43,9.67c-1.76-2.24-3.31-2.63-4.67-1.15l-53.73,1.21c-3.85-3.44-5.18-0.97-3.98,7.42
	c-0.55,6.26-8.5,14.86-13.54,10.14v-46.88l76.57-25.41l189.74-0.71c26.52-10.3,50.87-17.15,72.33-35.16
	c11-3.88,23.98,0.24,34.8-2.84C374.76,1157.31,377.25,1157.23,378.91,1161.05z"/>
<path class="st8" d="M1199.87,806.06v75.19l-0.94,2.68c-75.78,0.1-151.61,0.21-227.51,0.31l-5.65-2.67
	c-1.75-0.48-3.48-1.02-5.12-1.73c-1.63-0.71-3.21-1.44-4.55-2.48c-21.46-16.72-41.79-35.41-61.35-54.15l-2.69-4.69
	c0.9-1.51,1.93-3.2,3.57-3.87c14.44-5.91,42.11-5.15,57.98-4.14c33.1,4.19,66.23,6.34,99.37,6.46
	c46.78-2.83,93.63-7.18,140.55-13.06C1193.52,803.92,1195.64,804.63,1199.87,806.06z"/>
<path class="st6" d="M1199.87,407.39v79.65l-5.24,1.94c-22.85,11.61-47.27,20.15-71.48,28.5c-1.4,0.48-2.91,0.67-4.45,0.81
	c-1.57,0.14-3.16,0.1-4.75,0.01c-9.57-8.68-20.72-15.23-31.55-23.24c-11.04-8.18-18.85-18.96-29.51-28.02
	c-22.78-19.34-46.51-38.18-64.47-61.31c14.72,2.98,25.44,6.14,40.29-0.51c23,3.99,39.15,0.88,60.84,1.09L1199.87,407.39z"/>
<path class="st5" d="M1199.87,1450.94v79.8l-0.79,1.58l-196.24-65.75l-2.84-2.19c4.35-24.12,8.64-48.22,12.89-72.29l3.07-1.27
	l158.34,36.76c1.54,0.47,20.89,16.44,23.27,18.9C1198.87,1447.8,1199.37,1449.12,1199.87,1450.94z"/>
<path class="st5" d="M898.71,1434.44l7.57,0.03c3.14,0.53,36.65,11.92,37.8,13.57c1.26,1.81,1.72,3.16,0.84,5.32l-96.66,87.35
	l-6.38,2.15h-2.21l-8.69-2.27l-137.87-76.91c-4.96-5.58,2.51-12.54,7.58-15.79l1.11-2.61c34.34,2.33,68.74,4.69,103.19,7.08
	l9.23,3.28c4.39-4.67,12.71-2.32,17.34,1.55l1.43-2.87c1.14-0.74,19.08-8.83,20.12-8.5c1.1,0.34,1.91,1.11,2.54,2.06
	c11.25-6.45,24.03-10.42,36.47-14.09c0.96-0.28,2.04-0.22,3.15-0.11C896.44,1433.8,897.58,1434.09,898.71,1434.44z"/>
<path class="st1" d="M1199.87,775.18v30.88c-103.41,8.76-125.83,20.71-234.01,8.3c-25.67-2.94-51.96-2.95-73.8,4.15l-1.4,2.6
	c-29.36-1.87-58.74-3.74-88.12-5.61l-1.42-2.77c-3.73-1.14-3.24-12.28-2.55-15.72c0.87-4.33,1.77-4.74,6.16-5.65
	c147.01-27.2,165.57,14.8,293.71-8.88C1132.66,776.14,1166.04,775.52,1199.87,775.18z"/>
<path class="st0" d="M576.13,879.92l0.1,3.74l-11.82,12.8c1.32,1.83,1.36,3.06-0.54,4.73l-0.42,1.43
	c-187.47,0.37-374.94,0.54-562.41,0.51l-0.94-1.79v-21.43L576.13,879.92z"/>
<polygon class="st6" points="0.1,375 0.1,318.75 369.59,333.61 "/>
<path class="st9" d="M396.24,781.97c3.05-1.89,15.64,11.14,16.01,12.65c0.28,1.17-0.28,2.37-0.84,3.42L295.52,813
	c-21.8,2.81-42.23,6.51-62.63,8.6c-30.39,3.12-59.5-1.28-89.56-1.01c-48.87,0.44-97.22,3.41-143.23,17.81v-18.75
	c78.65-35.14,203.76-42.6,283.51-13.4L396.24,781.97z"/>
<path class="st5" d="M368.22,1455.93c0.95-0.79,2.58-0.33,3.01,0.97c0.58-3.95,7.51-2.93,7.96,1.03l1.72-2.39l68.94,13.75
	c5.66,3.66,12.92,8.73,12.93,15.96c-49.02,15.76-96.98,34.16-143.88,55.21l-10.89,2.4h-16.64l-2.6-1.39
	c1.9-32.53,3.8-65.06,5.7-97.61l2.77-1.44c0.36-0.65,0.84-0.72,1.46-0.27l0.75-1.67c22.45,3.47,45.03,7.65,67.74,12.53
	L368.22,1455.93z"/>
<path class="st5" d="M1199.87,1534.42v8.44H986.38l-2.39-1.72l14.04-71.6c0,0,0.97-1.02,2.92-3.05
	c65.39,21.26,132.74,43.32,197.92,65.76C1199.53,1532.48,1199.74,1533.54,1199.87,1534.42z"/>
<path class="st5" d="M667.19,1542.86H523.65l-5.52-2.28l-45.7-52.64c-4.68-6.1,15.14-12.19,18.86-11.64
	c54.11,10.45,108.6,18.61,163.58,22.67c4.83,7.61,16.22,33.67,13.68,41.16C668.22,1541.09,667.73,1541.98,667.19,1542.86z"/>
<path class="st8" d="M360.24,1378.24l5.48-1.29c26.62,5.36,51.85,15.36,75.68,29.99l3.3,4.8l-5.82,0.05
	c-22.44-11.14-45.77-21.91-70.72-25.49c30.74,24.25,59.52,50.79,87.83,77.76l50.38-17.95l6.52,0.52c1.79-3.57,7.03-3.13,6.87,1.3
	l0.16,2.82l-42.13,17.01l49.93,9.29c17.3,2.92,116.93,19.49,121.7,14.65c1.47-1.49-10.75-35.15-12.79-39.85
	c-2.81-3.55-3.86-6.99-3.17-10.33c0.88-0.65,1.78-1.25,2.75-1.69c5-2.27,44.32,1.08,48.56,4.38c0.84,0.65,1.56,1.45,2.24,2.29
	c-2.81,2.51-6.83,3.1-12.07,1.76l11.44,5.98c2.96-3.04,6.21-5.46,9.76-7.28c0.7-4.16,4.93-3.01,4.55,0.95
	c-0.48,4.86-5.38,6.96-7.69,12.66l146.67,82.3h-9.28l-10.47-2.74l-129.67-71.89c-8.23,12.08-16.73,23.71-25.52,34.9
	c4.26,10.93,7.63,22.34,10.05,33.83c0.18,0.87-0.05,1.84-0.33,2.87c-0.28,1.05-0.74,2.05-1.25,3.04h-6.02
	c-2.28-14.42-6.6-28.15-13.49-41.75c-55.2-3.07-108.44-11.9-162.46-22.16c-6.15,1.55-11.88,2.97-17.84,6.04l50.25,57.88h-8.18
	l-5.52-2.16l-44.93-50.36l0.73-0.65c-45.09,15-89.44,31.91-133.04,50.75l-11.44,2.42h-13.26c48.47-24.48,99.85-42.02,153.36-58.73
	c-3.28-4.89-7.81-9.7-12.48-12.37l-69.69-13.83c-3.94-0.46-4.06-4.15-0.39-5.5l1.68-2.42l53.95,9.54
	c-29.04-26.6-58.36-52.99-90.06-76.45l-42.58-5.73l-1.58-2.92c-2.54,2.66-3.57,2.27-4.3-1.32l-1.78,2.36
	c-36.93-7.97-73.87-15.94-110.83-23.92l-1.01-2.96c8.97-0.59,13.46-0.89,13.46-0.89c50.56,8.32,101.15,16.87,151.59,25.97
	C351.85,1374.48,356.09,1376.36,360.24,1378.24z"/>
<path class="st5" d="M980.46,1542.86H851.15l-1.11-2.61c33.07-30.33,66.42-60.3,100.04-89.92c14.79,3.92,29.47,8.35,44.04,13.27
	c3.38,2.28,5.04,4.07,2.86,9.01c-3.13,22.13-7.65,43.9-13.54,65.29L980.46,1542.86z"/>
<path class="st5" d="M830.39,1542.86H673.21c-2.37-13.45-6.54-26.31-10.94-39.89l27.19-38.26L830.39,1542.86z"/>
<path class="st5" d="M0.1,1532.14V1380.8c1.39-6.49,9.42-6.4,14.43-3.63l68.17,15.77l2.72,2.92
	c-22.24,42.04-46.78,83.48-73.35,123.04c-1.64,2.44-3.59,4.68-5.59,6.89C4.46,1528,2.3,1530.09,0.1,1532.14z"/>
<path class="st8" d="M1199.87,1387.43v3.99l-2.08,2.1l-84.73-30.71c25.32,21.35,51.24,41.67,77.75,60.97
	c4.22,1.04,7.24,2.75,9.06,5.14v22.03c-9.94-5.24-16.93-14.08-26.7-20.98l-158.7-36.74c-2.57,23.18-6.53,45.74-12.4,70.52
	l197.81,66.99v3.68l-198.9-65.92l-14.58,74.36h-5.93c5.89-24.96,10.82-49.94,14.72-76.11l-44.48-14.06l-99.55,90.17h-9.27
	l101.93-92.11l-45.1-16.31c-1.19-3.85,6.03-5.98,7.89-2.57l6.37-0.59l35.31,12.5c15-14.86,35.28-34.1,53.32-49.74
	c-0.64-4.36,11.91-9.48,14.86-6.3l8.28-0.85l141.08,32.09l-72.24-58.28l0.43-3.09c-1.82-4.85,10.67-9.87,13.57-6.27l6.37,0.42
	c26.35,12.05,53.41,22.4,81.18,31.04C1195.14,1382.8,1196.71,1384.34,1199.87,1387.43z"/>
<path class="st1" d="M1199.87,1281.6v27.11l-317.35-51.31c31.51-1.46,123.49-3.04,152.46,1.03L1199.87,1281.6z"/>
<path class="st5" d="M515.47,1542.86H321.28c46.28-22.19,95.1-38.87,144.69-55.49L515.47,1542.86z"/>
<path class="st0" d="M1199.87,881.25v20.09c-0.77,1.05-0.77,1.94,0,2.68v4.17c-9.25,1.58-18.55,1.83-27.91,1.82
	c-60.18-0.08-120.41-0.38-180.53-1.31l-13.74-1.66c-1.74-1.85-1.16-4.75,1.74-8.7L965.6,884.9l0.17-3.33L1199.87,881.25z"/>
<path class="st0" d="M1199.87,912.2v7.84c-0.94,1.75-0.94,3.22,0,4.41v9.46c0.31,1.37,0.11,1.87-0.92,1.87
	c-81.55,0.11-164.39,0.08-248.22-0.95c-2.98-2.96-3.86-7.52-2.65-13.66c-0.41-4.61,0.94-7.34,4.07-8.2l0.93-2.68
	c80.93-0.36,164.17-0.58,245.13-0.1C1199.1,910.19,1199.6,911.09,1199.87,912.2z"/>
<path class="st10" d="M1199.87,1133.04v2.68l-64.86,15.85L966.86,1176c-15.11,2.2-32.79,2.79-45.44,10.85
	c-10.79,5.09-42.31,65.29-54.98,57.35c-7.87-4.93-12.74-13.04-16.83-21.93l52.68-43.63l48.46-8.05l5.22-2.66
	c34.74-6.09,69.71-11.11,104.92-15.07c19.89-3.67,39.89-6.19,60-7.56c6.63,0.56,13.15-0.33,19.68-1.57l0.63-2.84l14.55-0.02
	c-0.15-1.01-0.28-2.44,0.42-2.8c2.59-1.33,27.9-5.27,32.32-5.72c2.94-0.3,7.41-0.68,10.22-0.5
	C1199.13,1131.85,1199.51,1132.37,1199.87,1133.04z"/>
<path class="st11" d="M610.9,843.71c2.79,3.18-2.03,7.97-5.85,6.64c-129.8-37.37-132.29-34.91-261.25-23.26
	c-60.4,5.46-118.43,13.85-177.8,29.85c-56.19-6.49-110.74-4.28-165.9,2.88v-4.02c56.15-11.15,113.53-12,171.58-6.01
	c56.08-14,110.97-21.3,168.5-26.68C470.46,810.95,476.79,803.08,610.9,843.71z"/>
<path class="st5" d="M1199.87,1316.48v70.95c-30.94-11.81-64.4-20.31-92.28-36.09c-0.28-1.02-0.52-2.64,0.16-2.94
	c19.57-8.66,41.69-17.06,61.92-24.53c6.34-3.39,12.9-5.03,19.69-4.92C1192.69,1317.62,1196.33,1316.88,1199.87,1316.48z"/>
<path class="st8" d="M100.43,1328.33c0.65-1.04,1.18-0.98,1.59,0.18c6.42,1.58,8.13,9.38-0.33,11.17
	c-27.03,10.02-53.27,21.95-79.34,34.16c21.27,4.91,42.48,9.32,63.63,13.23l32.73-49.39l3.1,0.17c2.27-1.07,3.55-1.47,2.93,1.22
	l1.49,1c-8.55,16.6-17.94,33.11-28.17,49.55c48.3,11.83,97.05,23.02,146.24,33.55l1,2.97c3.85,0.86,3.47,3.23-0.2,4.13L89.8,1396.96
	l-86.99,145.9H0.1v-10.71c29.38-43.97,56.83-89.68,83.53-136.23L8.2,1377.97c-3.06-0.23-5.7,2.53-8.1,2.83v-9.38
	c5.78-4.44,12.74-7.51,20.89-9.2c26.52-11.3,39.78-16.95,39.78-16.95c9.83-6.07,20-10.28,30.49-12.64
	c-2.49-1.62-2.79-3.61-0.11-5.33c-0.52-1.24,0.02-1.6,1.45-1.23C94.83,1322.89,99.94,1324.56,100.43,1328.33z"/>
<path class="st0" d="M602.52,911.85c3.92,0.05,3.71,4.54-0.06,5.39c-0.14,0.85-0.28,1.52-0.42,1.52
	c-197.86,1.14-403.08,0.9-601-0.01c-0.32,0-0.63-0.59-0.95-1.34v-6.7l0.42-0.67c200.08,0.1,400.19-0.2,600.33-0.88L602.52,911.85z"
	/>
<path class="st1" d="M1199.87,1130.54v2.5l-44.1,7.81l-14.54,0.05c-58.7-13.11-117.7-23.51-177.01-31.19l-1.12-2.9
	c38.91,0.18,79.5-1.14,118.83,4.17C1122.34,1116.43,1159.97,1128.55,1199.87,1130.54z"/>
<path class="st5" d="M91.26,1332.64c-26.66,14.28-59.55,30.83-91.16,38.79v-53.57l1.66-2.44c29.43,4.77,58.88,9.55,88.33,14.32
	L91.26,1332.64z"/>
<path class="st5" d="M285.84,1542.86h-55.48c0.1-1.44,0.25-2.87,0.58-4.26c0.32-1.36,0.66-2.68,1.33-3.78
	c15.91-26.15,32.64-51.95,51.6-76.03c3.01-3.73,4.65-3.05,7.3-0.17l-2.6,82.7L285.84,1542.86z"/>
<path class="st1" d="M37.28,1291.21l-10.2-6.86l-5.55-3.99l-2.88-3.02l2.74-3.69c21.78-3.97,43.82-6.46,66.11-7.45
	c3.45,0.63,4.47,1.88,2.7,4.67c-11.11,11.33-21.54,22.94-31.27,34.84L37.28,1291.21z"/>
<path class="st1" d="M18.65,1277.34l2.88,3.02l5.55,3.99l10.2,6.86l16.95,11.67c3.25,0.88,5.45,2.25,6.58,4.12
	c10.58,6.3,20.69,13.07,30.34,20.31c0.71,1.15,1.54,4.4,0.11,5.33L0.1,1317.86v-41.52C2.43,1270.9,17.17,1271.49,18.65,1277.34z"/>
<path class="st0" d="M300.21,1374.43l2.63,1.34l-2.43,58.69l77.33,15.03l1.06,2.93l0.39,5.5l-7.96-1.03
	c-0.79-0.93-1.8-1.25-3.01-0.97l-69.52-13.79c-0.56-0.65-0.96-0.36-1.46,0.27l-5.87,100.45h-5.54l2.69-85.57
	c-22.85,27.82-40.03,56.94-58.17,85.57h-5.75c1.84-7.99,65.95-102.33,66.01-97.31c-0.03-2.57,0.68-5.2-1.91-5.06
	c-2.06,0.11-4.44-0.16-6.15,0.63c-1.79-0.22-2.96-1.53-4.1-2.84l-33.37-8.02l0.2-4.13l6.16-1.46c12.34,2.35,24.53,4.03,36.58,5.06
	l5.08-55.28l2.81-1.33C297.32,1373.41,299.03,1373.88,300.21,1374.43z"/>
<path class="st1" d="M602.62,906.43c3.92,0.08,3.68,4.58-0.09,5.42L0.1,910.71v-1.34c-0.26-1.14-0.04-2.01,0.92-2.01
	c186.28-0.93,377.59-1.21,565.7-1.05l2.58,1.41l1.06-1.56c8.56,0.94,17.1,1.02,25.62,0.23
	C595.63,901.92,601.77,902.38,602.62,906.43z"/>
<path class="st1" d="M563.88,901.18c3.39-1.62,4.01,0.1,1.42,2.85c0.18,1.55-0.16,1.85-1.28,1.85L1.78,907.36
	c-0.99-0.1-1.48-0.85-1.68-2v-4.02L563.88,901.18z"/>
<path class="st5" d="M1199.87,1391.41v37.5c-5.74,0.19-10.92-2.68-16.08-6.59c-28.42-21.56-55.85-43.26-83.94-67.16L1199.87,1391.41
	z"/>
<path class="st1" d="M602.47,917.23c2.55,0.9,2.54,2.17-0.02,3.04l-283.72,0.16L0.1,920.09v-2.68L602.47,917.23z"/>
<path class="st0" d="M565.3,904.03c3.9-2.21,5.8-0.4,3.99,3.69l-424.37,0.99L0.1,909.38v-4.02L565.3,904.03z"/>
<path class="st1" d="M977.69,907.03c73.12-0.74,147.91-0.17,222.18,1.15v4.02l-247.72,0.76c-4.6-0.19-5.41-3.15-1.55-5.66
	c0.27-1.04,0.67-2.59,1.47-2.69c2.35-0.29,22.74-0.93,23.71-0.24C976.74,905.05,977.41,905.86,977.69,907.03z"/>
<path class="st1" d="M1199.87,933.9v3.73l-151.54-0.86l-97.6-0.62c-1.17-0.38-1.15-0.83,0-1.34c43.31-3.2,86.84,0.29,131.26-0.04
	L1199.87,933.9z"/>
<polygon class="st1" points="1199.87,901.34 1199.87,904.02 982.45,902.73 "/>
<polygon class="st1" points="1199.87,920.04 1199.87,924.44 1055.24,922.05 "/>
<path class="st0" d="M74.83,516.87L0.1,483.48v-6.7l56.37,26.7C64.14,507.12,69.06,511.86,74.83,516.87z"/>
<path class="st12" d="M950.6,907.3c-0.15,2.01,0.38,4,1.55,5.66c-2.11,6.95-1.42,14.63-1.42,21.86v1.34l-0.01,89.95l-0.77,2.58
	c-69.16,4.6-138.35,9.11-207.55,13.51l-1.81-2.57l-2.69-0.9c-0.36-43.88-0.73-87.77-1.09-131.66l2.66-1.65
	c0.19-1.2,0.61-1.19,1.24-0.09l3.65-2.64c68.23,0.64,136.44,1.28,204.62,1.93L950.6,907.3z"/>
<path class="st7" d="M263.92,973.17c1.47-0.89,2.94-1.6,4.42-1.64c45.58-1.23,91-0.84,136.49,1.85c4.14,0.24,20.18,1.89,21.46,5.19
	c0.32,0.82-0.98,1.97-1.96,2.72l-78.43,4.76c-14.29,0.87-26.96,7.65-40.6,7.63l-3.33,2.63c-12.38-1.6-23.66-0.19-33.85,4.24
	c6.32,4.89,16.89,8.74,24.89,8.73c54.27-1.25,109.58-1.51,164.15,2.52c9.94-0.01,19.16,2.01,27.66,6.05
	c-13.8,0.89-27.69,1.09-41.55,1c-31.66-2.35-63.39-3.34-95.19-2.98c-1.92,4.56-3.98,8.56-9.02,9.84L230.49,1033
	c-4.06,1.91-32.7,15.05-23.99,19.76c27.06,6.03,54.64,9.9,82.45,10.64c62.99-1.18,125.59,1.71,187.96,13.29
	c3.13-2.78,14.79-1.6,19.12-0.4c3.52,0.24,5.14,1.74,4.87,4.51c-13.11,1.3-27.24,3.47-40.31,1.4l-15.77,0.44
	c-45.05-4.73-90.22-7.06-135.52-6.99l-5.22-1.72c-0.94,2.73-4.15,3.52-9.61,2.35c-32.09,12.33-58.62,36.95-81,64.12l-7.24,4.62
	c-6.24-0.33-11.12-1.39-15.79-2.44l-2.53-2.55c0.61-5.67,1.28-11.17,2-16.49c-8.93-10.41-27.38-20.21-42.93-24.32
	c-35.97-9.5-73.52-3.47-110.97-12.75l62.52-21.02c-6.26-5.62-14.14-6.87-18.13-12.71c0.35-3.73,10.05-5.43,11-1.46l0.78-1.75
	c18.84-1.81,37.75-3.28,56.71-4.39c2.93-1.01,5.56-2.96,7.89-5.84c-0.14-1.12,0.75-2.01,2.68-2.68c1.27-3.47,6.95-3.61,8.01-7.87
	l-6.81-2.89c-1.18-0.5,0.93-4.77,2.31-5.67c0.99-0.64,2.47,2.38,4.81-2.56c-16.37-8.04-35.81-7.65-53.85-11.97l0.35-2.03
	c21.81-0.84,43.64-1.68,65.5-2.53l3.87-1.68c-2.58-0.04-2.55-1.04-0.02-1.85c-0.08-1.74,1.1-2.78,3.53-3.12
	c15.51-0.2,30.4-2.26,44.67-6.17c-15.53-12.71-41.2-9.7-61.67-15.94c5.29-3.74,11.82-5.29,19.61-4.63
	c23.86-0.39,47.66,0.81,71.39,3.58L263.92,973.17z"/>
<path class="st5" d="M739.47,905.42l1.11,134.22c-0.66,0.71-1.35,1.38-2.14,1.9c-4.07,2.69-37.06-1-44.33-2.3l-4.19-3.01l-2.68-0.93
	l0.04-134.1l-39.64,0.16c-1.16,43.32-1.89,86.73-2.2,130.24l-1.27,0.92c-0.22,1.03-0.69,2.55-1.44,2.56
	c-7.17,0.04-32.43-1.75-38.59-3.5l-1.7-2.84c-0.54-30.49,1.56-61.14-1.05-91.42c-3.55-1.86-3.09-3.22,0.77-3.71
	c0.43-4.43,0.41-8.88,0.3-13.33c-0.02-1.01,0.01-2.04,0.02-3.04l0.06-5.39l0.09-5.42c-1.04-0.12-2.58-0.4-2.69-1.14
	c-0.51-3.52-0.62-18.34,0.74-20.86l59.4-55.12l2.99,0.89c1.85,0.7,3.67,1.46,5.4,2.39c1.72,0.93,3.42,1.84,4.8,3.09
	c21.05,19.02,41.37,38.78,60.63,59.62c1.26,1.37,2.2,3.04,3.15,4.76C737.97,901.76,738.75,903.58,739.47,905.42z"/>
<path class="st1" d="M877.21,1112.84c0.47-3.56,1.75-3.38,2.78,0.02c10.06,6.79,25.05,16.5,32.1,25.74
	c-1.05,3.7-3.99,4.11-7.41,4.57c-31.95,2.78-63.46,7.42-94.54,13.93c-60.87,1.63-121.84,2.67-182.9,3.14l-7.9-1.47
	c-11.5-0.2-23.16-7.33-34.03-10.23l-9.93-3.05l-168.96-7.68c-3.09,0.44-4.92-0.32-5.49-2.29l-0.55-5.13
	c-3.53-3.67-9.45-5.98-17.76-6.93c-12.8-0.93-24.61-3.88-35.45-8.86c-2.55-4.19-5.86-6.51-10.82-6.79
	c-10.05,0.19-0.51-16.58,5.13-8.18l32.98-0.82c-6.85,3.28-12.83,1.76-11.51,8.46c20.78,0.03,38.2,3.5,54.93,15.78
	c57.26-0.59,113.17,3.28,169.74,5.83c28.66,1.29,50,14.02,76.73,20.73c28.1,7.06,60.31,0.26,89.35,0.31
	c13.21,0.02,24.68-10.05,37.45-12.02l82.9-12.78C875.51,1120.17,875.55,1116.4,877.21,1112.84z"/>
<path class="st7" d="M976.42,1029.81c32.22,6.97,66.12,8.12,101.25,11.67l-303.32,22.75l-213.64-23.39
	c-2.46-0.83-2.47-8.15,0.29-8.31l24.69-1.33c44.37,5.87,88.84,9.88,133.43,12.03c78.11-3.23,156.17-8.13,234.19-14.7L976.42,1029.81
	z"/>
<path class="st13" d="M460.58,1082.21c-30.69,9.13-87.11,4.79-119.12,17.42c-2.1,0.05-4.29-0.05-6.2,2.02
	c-1.65,1.78,0.03,4.05,1.07,6.16c0.02,1.48-2.65,5.34-0.66,7.22c35.41,27.85,45.13,12.16,61.03,21.89
	c4.34,2.66,7.38,6.92,13.11,6.71c3.83-0.06,3.78,3,0.16,4.07l-2.19,2.96c-9.39,0.39-18.21,2.51-26.45,6.35
	c0.47,2.13,0.06,3.42-2.43,4.04c-1.68-0.03-3.76-0.18-5.38,0.28c-31.53-10.42-63.45-10.86-96.32-12.58l-2.75-2.37
	c1.26-13.8,7.02-26.26,17.28-37.4c6.41-9.4,9.61-20.38,9.66-31.82l2.67-3.23C356.03,1073.27,409.37,1074.12,460.58,1082.21z"/>
<path class="st14" d="M304.08,1073.93c0.92,41.9-28.53,44.4-26.86,74.81l-70.99-3.72c13.62-17.03,29-33.06,45.98-47.7
	c9.92-8.56,22.72-12.95,32.95-20.43C291.9,1071.97,297.35,1074.02,304.08,1073.93z"/>
<path class="st10" d="M976.42,1029.81c-84.23,3.83-167.99,14.63-253.21,16.06c-54.42,0.92-107.63-11.85-162.22-13.34
	c13.02-3.42,27.61-5.05,41.44-3.79l41.73,3.78c0.97-2.59,2.15-2.48,2.51,0.27c1.52-2.06,2.75-1.73,3.09,0.8
	c0.19-1.03,0.62-2.57,1.36-2.59c5.92-0.16,32.48,1.05,37.04,2.43l1.75,2.8c16.93,1.11,33.82,4.49,50.66,3.41l210.13-13.53
	C959.1,1025.57,968.38,1029.04,976.42,1029.81z"/>
<path class="st1" d="M602.15,933.61c-0.11,1.17-0.86,2.57-0.77,3.71l-481.19-0.34c-14.81-0.01-27.85-0.83-42.59-1.74L602.15,933.61z
	"/>
<path class="st5" d="M451.29,1070.24c8.02,1.39,16.01,2.8,23.98,4.25l1.63,2.2c-23.66-2.16-47.75-3.11-71.91-7.06
	c-58.6-9.58-142.43,5.58-198.5-16.87c29.98,1.86,59.79,8.46,90.43,8.37C330.19,1061.03,424.44,1060.69,451.29,1070.24z"/>
<path class="st5" d="M297.44,1007.04l15.99-0.13l2.68-0.74c41.89,0.64,83.6,0.68,126.16,2.42l113.64,4.65l-71.08,4.6
	c-61.15-8.99-124.26-8.69-187.27-6.07c-9.65,0.4-26.3-3.78-29.44-11.23l3.81-1.49l12.67,3.81
	C290.03,1003,294.31,1004.39,297.44,1007.04z"/>
<path class="st5" d="M963.09,1106.81l73.03,12.06l119.64,21.97l-15.18,2.87c-30.96-11.39-66.42-16.53-101.21-21.08l-88.65-11.59
	c-23.62-3.09-48.57,1.98-70.73,1.82l-2.78-0.02c-0.82-3.02-4.21-1.28-4.37-7.25C903.35,1110.97,933.99,1102,963.09,1106.81z"/>
<path class="st4" d="M443.28,1018.86c-33.94,5.89-69.57,4.54-104.21,6.86c2.22-4.21,5.9-7.31,7.2-13.1
	C376.51,1015.91,416.95,1009.65,443.28,1018.86z"/>
<path class="st5" d="M424.34,981.3c-0.23-5.55-10.26-3.54-15.29-5.38c-48.83-5.37-96.93-1.11-145.13-2.74
	c-3.76-0.53-3.75-2.1-0.26-3.5c58.57,1.43,120.71-7.89,183.82,10.04L424.34,981.3z"/>
<path class="st1" d="M186.24,992.5c1.18,1.77,0.18,2.86-3,3.27l0.39,1.81l0.02,1.85c-1.28,1.31-3.07,1.97-5.34,1.98
	c-29.56,1.82-59.05,1.96-88.48,0.43l-40.21-7.38L186.24,992.5z"/>
<path class="st1" d="M263.66,969.67l0.26,3.5c-31.24-1.06-62.92-5.75-93.76-0.83c-1.37-0.42-10.37,0.08-6.71-3.35
	C175.86,957.39,261.27,969.62,263.66,969.67z"/>
<path class="st1" d="M159.44,1036.61c-0.4,0.84-1.56,2.74-2.68,2.68c-2.21,2.82-4.83,4.77-7.86,5.85l-54.12,3.7l-3.39,2.44
	c-3.42,0.27-7.8,1.58-11,1.46l-45.67-5.01C77.53,1043.69,119.12,1042.85,159.44,1036.61z"/>
<path class="st1" d="M500.9,1080.8c-7.24-3.71-16.07-2.3-23.99-4.12c-8.75-2-17.3-3.48-25.61-6.44l88.92,6.65L500.9,1080.8z"/>
<path class="st5" d="M183.64,999.42c0.09,9.94-59.34,1.66-69.72,6.23c-7.71,0.12-16.41-2.41-24.1-3.82L183.64,999.42z"/>
<path class="st8" d="M305.3,993.69l-7.86,13.36c-10.42,0.08-19.49-2.98-29.33-6.49C264.38,991.68,295.49,993.67,305.3,993.69z"/>
<path class="st1" d="M190.43,1142.59c-8.42-1.9-17.34-5.05-26.69-11.1l26.17-7.94C194.06,1128.38,190.38,1136.8,190.43,1142.59z"/>
<path class="st5" d="M231.83,988.28c-11.22,11.23-32.36,3.7-48.2,9.29c-2.24-0.02-4.93-2.05-6.9-3.41c3.84-0.34,7.14,0.44,9.51-1.67
	L231.83,988.28z"/>
<path class="st10" d="M411.41,798.04c-4.01-6.1-10.67-10.31-15.17-16.06c-15.1-19.27-29.94-39.82-49.12-56.04
	c-13.32-11.27-29.77-16.76-45.01-25.08c-31.45-17.19-62.33-34.98-86.41-60.8c89.25-51.37,173.84-108.46,262.82-164.7
	c-0.8,21.69,4.63,43.69-1.05,62.73l-18.38,61.56c13-2.96,25.29-8.07,37.88-9.63L380.84,690.12L578.26,580.1
	c5.59,20.13-9.49,31.69-16.97,46.28c-11.52,22.46-21.1,41.21-41.28,57.36c-3.14,2.51-35.18,44.25-29.41,55.94
	c-16.76,18.76-33.2,37.1-45.7,58.66C433.41,800.89,422.09,796.66,411.41,798.04z"/>
<path class="st10" d="M517.33,352.3c-13.96,40.02-10.61,39.45-13.93,81.79c9.65-1.07,15.3-3.92,22.48-3.48
	c-16.25,11.03-32.69,17.92-49.75,26.94c-7.81-1.23-19.27,0.49-26.64-3.05l-19.81-21c-16.96,17.32-31.03,38.4-47.14,56.96
	c-28.22,32.51-67.56,57.33-101.12,88.07c-22.91,20.99-45.41,41.42-69.81,58.9l-76.21-67.88c64.05-41.38,61.45-17.84,126.71-80.06
	c16.73-15.95,30.63-32.32,51.18-43.39c5.92-3.19,12.45-7.74,19.15-10.5l30.58,7.89c21.39-7.56,37.83-22.09,56.34-34.86
	C450.72,386.99,483.9,369.1,517.33,352.3z"/>
<path class="st10" d="M851.58,286.91c-25.82,47.97-56.56,92.44-80.59,144.5l79.48-45.84c-6.86,16.68-19.63,27.86-29.17,41.8
	c-8.71,12.72-19.79,20.74-29.85,32.15l-24.31,27.58c-11.69,13.26-19.98,28.44-33.98,40.48c-56.76-16.46-113.8-28.31-173.29-39.49
	c14.87-10.46,25.48-24.31,39.77-32.05L636,436.33c25.16-13.63,44.68-35.57,67.64-54.08c23.11,0.54,19.81-11.94,34.98-28.11
	c26.3-3.42,49.61-13.4,67.21-33.2c11.41-12.83,24.33-21.18,37.81-30.66C845.9,288.69,849.09,288.06,851.58,286.91z"/>
<path class="st10" d="M613.25,755.3l-62.97,28.3c60.3-37.47,122.15-78.01,186.44-113.93c34.44-19.24,314.43-125.42,377.21-151.39
	c25.81-10.68,53.96-19.43,80.69-29.31L835.98,714.63l115.4-117.03L613.25,755.3z"/>
<path class="st15" d="M740.71,905.33l-1.24,0.09c-23.73-26.43-49.73-51.78-76.42-75.22l-1.75,0.7c-2.5-2.84-5.16-5.44-7.98-7.8
	l-77.47,78.92l18.42,1.58l1.7,2.8c-8.19,3.46-17.81,1.3-26.68,1.33c-0.88-1.64-2.35-2.84-3.99-3.69c-0.1-1.12-0.93-1.92-1.42-2.85
	l-2.87-5.46c5.93-4.83,10.1-10.82,15.13-15.8c9.77-9.68,20.05-18.99,28.92-29.57c1.63-1.95,4.5-4.64,5.85-6.64
	c11.12-9,21.08-19.95,30.52-30.73c3.35-3.83,8.58-6.94,12.28-10.42l6.28,2.48l87.61,87.36C750.5,897.52,746.22,904.12,740.71,905.33
	z"/>
<path class="st11" d="M1024.45,1286.96l0.01,4.78c-14.04,16.87-29.3,32.67-45.76,47.4l-14.82,17.04l-4.91,2.16l-2.29,4.14
	l-12.88,8.23c-26.93,23.56-53.25,47.65-78.95,72.26l-9.19,4.92c-7.71,1.83-15.54,8.7-24.09,9.31c-4.9-3.22-7.35-4.83-7.35-4.83
	c-25.26-34.7-48.42-70.8-69.48-108.31c-2.59-4.2-1.46-5.52,2.29-6.96l65.65,30.69c-14.85-22.54-34.85-40.92-56.05-57.13
	l-11.02-10.96c-3.29-2.44-4.75-5.34-4.38-8.71c13.96-1.49,28.29-5.58,42.28-4.35c1.74,1.56,3.41,1.67,5.02,0.34
	c30.87-7.01,63.63-10.75,97.26-13.39C938.28,1270.25,982.18,1280.97,1024.45,1286.96z"/>
<path class="st13" d="M653.7,1301.42l97.54-10.44c7.89,8.61,16.13,17.87,26.27,24.94c19.91,15.55,38,34.6,52.58,58.42l-75.31-35.35
	c25.11,40.8,47.5,82.89,76.79,118.2c-5.67-1.12-11.55-1.15-17.34-1.55l-10.24-3.48c-12.06-10-24.77-18.92-38.11-26.74
	c-12.36-5.05-25.28-8.36-38.76-9.93c-12.47-15.47-18.71-23.21-18.71-23.21c-6.29,1.99-13.36-0.28-19.13-3.07
	c-4.89-2.36-15.06-8.26-14.58-13.65l-5.47-1.23c-12.88-12.71-27.19-22.76-42.95-30.16l-2.23-3.49l-3.11,0.18
	c-7.33-5.67-16.15-9.41-26.45-11.22c-15.44-8.25-29.97-18.33-43.57-30.24c-2.07-2.21-1.22-4.06,0.72-6.09l74.96-14.8l3.94,1.95
	l4.54,0.97l17.38,15.5L653.7,1301.42z"/>
<path class="st4" d="M1189.35,1318.94l-81.76,32.39c-4.61,1.83-9.83,3.08-13.57,6.27c-0.37,2.54-1.59,2.5-2.6,0.13
	c-27.81,8.05-56.19,7.73-84.53,2.88l-32.21,1.14c-6.9,1.18-12.14,0.05-15.71-3.41c20.42-28.81,49.73-46.76,65.48-71.39
	C1079.87,1294.81,1135.78,1305.25,1189.35,1318.94z"/>
<path class="st5" d="M644.16,1171.88l2.7,1.48l0.42,29.06l40.17,0.14l0.61-32.09l2.7-1.88c15.43-0.66,30.71-0.9,47.22-0.68
	l-0.18,34.82l0.98,2.78c-47.75,46.43-71.62,69.64-71.62,69.64l-3.02-0.8l-2.73,1.11c-20.52-19.08-40.84-38.35-60.98-57.82
	c-1.08-2.27-1.99-19.87,1.95-20.51c-1.04-0.13-2.59-0.46-2.67-1.22c-0.61-5.65-0.78-29.19,0.21-34.2l2.69-1.93
	c2.42,0.52,6.19,0.01,8.47,1.54c2.93,1.96,3.05,5.99,3.31,9.35L644.16,1171.88z"/>
<path class="st14" d="M441.94,1146.08l12.09,3.21c70.67,36.39,106,54.59,106,54.59l0.21,3.12l3.02-0.69
	c10.65,11.4,21.31,22.8,31.97,34.21l-0.62,3.25c-0.03,1.08-0.11,2.72-0.87,2.96c-23.27,7.28-51.11,13.13-74.38,3.05
	c-13.2-2.76-26.56-3.94-40.08-3.54c-8.68-0.63-10.89-2.42-13.91-10.21c-1.21-3.12-2.1-7.16,1.91-8.01l1.42-2.3
	c12.27-4.12,25.07-6.65,38.38-7.59c-1.27-4.87-0.59-8.67,2.02-11.42c-3.41-0.37-3.55-1.28-0.59-3.15l-0.58-1.59
	c-9.29-4-19.84-3.87-29.9-4.77l-8.92-3.18l-56.94-41.4c-2.27-1.25-3.19-2.23-2.2-4.91l-0.16-4.07
	C420.55,1143.25,431.27,1145.48,441.94,1146.08z"/>
<path class="st4" d="M1120.9,1145.28c-55.07,11.78-113.38,15.87-170.14,25.3l-0.19-49.52c17.84,4.89,36.34,2.45,55.08,5.94
	l84.2,15.68L1120.9,1145.28z"/>
<path class="st13" d="M539.7,1151.64l3.64,1.7c6.57,11.68,14.4,22.54,23.47,32.57c3.83,4.61,4.62,8.44,2.36,11.48
	c2.07,3.35-4.85,11.5-8.93,9.61l-118.3-60.92L539.7,1151.64z"/>
<path class="st15" d="M575.52,1198.47l-0.76,3.3l77.6,79.58c2.94-0.31,5.65-2.63,8.15-6.97l3.62-0.02l73.66-71.63
	c1.95-2.23,4.16-1.59,5.41,0.64c0.96,1.71,2.2,2.89,4.43,6.28l-93.94,91.77c-7.75-6.33-16.43-13.34-23.16-20.95
	c-2.22-0.64-4.55-1.35-6.3-2.93c-6.04-5.46-26.71-24.97-28.72-30.21c-0.44-1.14-0.7-2.34-0.91-3.56L560.24,1207l8.93-9.61
	C571.7,1193.87,574.37,1194.24,575.52,1198.47z"/>
<path class="st14" d="M602.61,1159.8l-0.23,37.36c-7.52,4.22-18.83,4.61-26.85,1.32c-2.01-0.79-4.21-0.82-6.34-1.08
	c-4.79-17.06-19.84-22.09-29.47-45.75C561.01,1152.85,584.3,1147.68,602.61,1159.8z"/>
<path class="st5" d="M912.09,1138.6c1.02,1.55,1.14,6.5-0.73,6.88c-1.86,0.38-6.36,3.55-8.38,3.43c-30.43-1.78-57.83,6.94-87.81,9.6
	c-52.21,4.63-103.74,1.16-156.04,3.02c-13.94,0.5-28.78,3.85-39.8-2.76l190.57-3.49l53.73-10.88
	C880.13,1141.06,896.42,1143.61,912.09,1138.6z"/>
<path class="st15" d="M690.76,1168.59l-0.44,36.65l-45.68,0l-0.48-33.36c-0.04-2.46-0.54-3.9,2.15-3.55
	c1.64,0.21,4.18-0.29,6.01,0.46l0.77,26.91l30.86,0.17l0.35-26.74C685.81,1167.71,689.03,1168.67,690.76,1168.59z"/>
<path class="st5" d="M585.3,1148.54c-16.61-3.93-184.35-7.49-184.72-9.39c-0.25-1.3,0.45-2.5,0.33-3.63l174.67,8.16
	C579.99,1143.9,582.55,1147.81,585.3,1148.54z"/>
<path class="st15" d="M798.53,1286.98c-3.05,8.07,5.6,18.65-5.93,25.77l0.91-26.11c0.74-0.45,1.62-1.23,2.58-1.11
	C797.05,1285.65,797.85,1286.34,798.53,1286.98z"/>
<path class="st8" d="M271.9,1442.45c3.72-0.47,3.67,1.57,0.25,2.84c-76.55,31.26-152.18,64.84-233.71,92.31
	C113.81,1504.85,192.26,1471.72,271.9,1442.45z"/>
<path class="st8" d="M282.57,1441.11c-1.09,0.51-2.88,1.13-3.9,1.5c-2.58,0.36-2.83-0.66-0.49-1.85l0.28-2.49
	c0.89-0.46,2.22-0.95,2.98-0.51C282.81,1438.55,282.4,1440.09,282.57,1441.11z"/>
<path class="st0" d="M278.18,1440.76l0.49,1.85c-1.56,1.75-4.49,1.85-6.52,2.67l-0.25-2.84
	C273.95,1441.69,275.83,1440.15,278.18,1440.76z"/>
<path class="st7" d="M733.89,807.87c1.72-1.28,5.37-0.54,6.91,0.82c1.38-0.67,3.65,0.51,5.15,0.24c0.32-2.16,3.45-1.93,4.02,0.1
	c0.8-0.04,1.72-0.44,2.5-0.3c5.78-1.8,12.06-1.95,18.84-0.44c8.02-0.61,15.13,0.56,21.33,3.51l2.64,1.67
	c2.14,10.88,1.07,20.51-3.23,28.88c2.36,3.91,4.71,4.84,7.05,2.79c-0.91-6.4-3.37-24.69-0.98-29.82c0.59-1.27,1.78-2.03,3-2.61
	l90.94,5.79c24.51,21.1,48.21,43.36,73.72,63.05c5.69,4.39,10.23,11.6,17.16,15.91c-1.52,4.52-3.74,6.29-5.24,9.55l-27.09,0.27
	l-209.89-1.98l6.14-9.89l-93.15-92.87L733.89,807.87z"/>
<path class="st15" d="M804.72,791.35c-6.27,4.69-2.59,13.66-3.61,21.37c-1.3,9.82-1.41,22.6,0.53,32.72
	c-0.46,2.59-5.79,5.12-7.98,2.41c-3.78-4.69-7.58-2.57-2.18-9.16c3.66-6.72,0.73-18.51,1.14-26.89c-1.11-0.22-2.56-0.78-2.55-1.69
	c1.08-5.84,1.56-10.69-0.91-16.11C791.47,787.4,799.01,792.41,804.72,791.35z"/>
<path class="st1" d="M792.63,811.8c-13.38-0.26-27.03-0.71-40.17-3.08c9.09-10.48,26.24-5.21,36.71-14.73
	C796.43,795.07,792.94,805.61,792.63,811.8z"/>
<path class="st1" d="M740.79,808.69c-2.59,1.26-4.72-0.67-6.91-0.82c0.17-2.15,2.64-1.77,4.63-1.72
	C739.57,806.18,741.44,806.91,740.79,808.69z"/>
<path class="st1" d="M749.95,809.03c-1.32,0.07-2.72-0.34-4.02-0.1c-0.11-0.93-0.23-2.51,0.7-2.64c1.27-0.17,2.79-0.42,3.29,0.64
	C750.21,807.52,749.85,808.47,749.95,809.03z"/>
<path class="st10" d="M409.97,1147.7l68.05,49.49c-25.4-2.28-50.98-3.77-76.11-7.93c-10.78-1.61-17.96-11.9-14.89-22.6
	c-0.13-1.4,0.53-4.7-0.83-5.18c-2.43-0.86-5.14-0.4-7.28-0.43c0.2-1.29-0.83-4.94,0.42-6.02
	C389.09,1149.43,399.56,1149.03,409.97,1147.7z"/>
<path class="st5" d="M508.5,1203.55c-0.24,1.53-1.88,2.62-4.93,3.27c-3.01,2.94-4.52,4.41-4.52,4.41l-40.45,10.48
	c-8.05,3.24-16.22,5.72-24.52,7.47c-3.44,3.37-19.58,1.71-14.96-5.14l5.38-3.22c24.86-7.95,50.33-13.61,76.39-16.98
	c2.38-0.51,5.05-0.26,7.03-1.88c0.37,0.16,1.43,0.19,1.63-0.11c0.26-0.38,0.78,0,0.21,0.67
	C509.51,1202.82,508.51,1203.1,508.5,1203.55z"/>
<path class="st0" d="M401.91,1189.26c-6.21-1.03-12.79,0.03-19.25-2.59c0.75-7.25,1.84-14.06,4.35-20.01
	C387.98,1177.07,393.15,1183.82,401.91,1189.26z"/>
<path class="st3" d="M674.7,1375.57c10.61,8.58,19.99,16.65,34.55,14.41l18.95,23.22c51.53,6.66,51.1,20.94,86.03,42.46
	l-113.53-7.76c-1.44-0.17-2.78-1.21-4.55-0.95c-2.61,3.4-8.23,4.2-9.12-0.46c-17.11-3.71-35.65-4.37-53.56-4.98l-8.76,2.49
	c-33.56,0.99-67.04,2.78-100.44,5.36l-4.51-1.43c-1.97-1.24-4.88-0.5-6.87-1.3l-5.97-0.05c-20.67-10.57-41.34-21.15-62.01-31.73
	l-0.21-3.11c-27.46-14.65-53.55-29.25-84.46-33.5c-2.13-4.8,4.67-5.99,8.51-6.57c12.36,2.14,24.75,3.43,37.16,3.86
	c4.09-1.73,7.97-2.32,11.66-1.77c3.65,0.6,7.39,1.25,10.7,2.94c24.03,12.31,47.92,24.44,72.12,36.39c3.33,1.65,6.13,4.16,8.82,6.7
	l2.91-4.11c21.72-11.94,42.18-26.1,61.39-42.48l5.31-0.53c29.5,2.72,59.96,2.27,89.68,0.87L674.7,1375.57z"/>
<path class="st3" d="M1091.42,1357.74l-0.14,2.94c-22.03,8.82-44.09,17.65-66.17,26.49l-8.64,0.57l-14.86,6.3l-7.6,5.95
	c-27.39,10.91-54.87,21.46-82.45,31.63l-4.94,0.26l-7.89,2.57c-14.36,4.67-28.5,10-43.05,13.45l62.38-58.22
	c13.02-12.15,25.33-23.99,40.93-31.32c19.26,2.77,40.48-3.1,60.53,1.04C1044.69,1364.58,1067.59,1359.02,1091.42,1357.74z"/>
<path class="st5" d="M141.93,1341.13c12.85-0.57,25.82,0.92,38.91,4.47l1.45,2.99l113.61,24.52l-5.53,60.27
	c-16.04-2.67-31.1-4.13-45.09-7.26l-151.86-33.95l31.31-53.12l2.35-1.99l13.56,1.17L141.93,1341.13z"/>
<path class="st4" d="M263.79,1302.04l7.42,2.87c18.78,16.05,39.58,29.47,61.41,40.96c8.85-4.24,17.98-7.12,27.41-8.63
	c15.65,2.01,43.57,22.28,56.25,32.66l1.3,3.87c-22.07,14.13-44.53-8.02-57.33,4.47c-59.88-8.24-119.12-22.18-177.95-29.65
	l-40.36-7.46l1.36-3.49l26.6-7.89l64.84-35.54l27.7,4.86L263.79,1302.04z"/>
<path class="st5" d="M378.8,1452.42l-81.17-15.63l2.58-62.36l45.31,6.32c34.4,25.37,65.4,53,96.5,82.85L378.8,1452.42z"/>
<path class="st5" d="M633.46,1441.5c11.13,14.6,13.25,35.4,20.13,54.06c-64.31-3.94-124.38-15-184.98-26.99l51.15-20.65
	C557.51,1444.94,595.66,1440.23,633.46,1441.5z"/>
<path class="st5" d="M444.7,1411.74l68.18,34.89l-57.9,20.63c-30.64-30.22-61.21-57.59-96.58-85.24
	C388.95,1384.89,417.87,1398.01,444.7,1411.74z"/>
<path class="st5" d="M684.09,1462.69l-23.59,33l-16.72-52.74C659.94,1446.88,670.54,1455.9,684.09,1462.69z"/>
<path class="st5" d="M687.02,1446.48c2.98,0.19,6.14,0.89,9.12,0.46c-1.88,4.05-5.32,7.6-8.57,10.92l-23.3-12.18
	C671.93,1444.83,679.35,1445.98,687.02,1446.48z"/>
<path class="st5" d="M1091.42,1357.74c0.8-0.32,1.77-0.15,2.6-0.13l82.84,66.83l-160.4-36.7L1091.42,1357.74z"/>
<path class="st5" d="M1001.6,1394.04c-14.22,19.87-35.63,34.18-52.73,52.79l-42.27-14.96
	C937.53,1417.82,970.28,1407.31,1001.6,1394.04z"/>
<polygon class="st5" points="997.35,1462.02 955.78,1448.53 1007.54,1399.81 "/>
<path class="st1" d="M419.13,1224.04c2.04,6.33,10.08,2.11,14.96,5.14c6.39-2.67,10.8-2.15,13.26,1.53
	c3.92,0.15,3.59,4.65-0.19,5.41l-0.56,3.46c-5.96,1.47-11.88,2.9-17.76,4.28c-1.55,3.03-3.31,5.55-5.27,7.56l-156.02,27.56
	c-9.62-1.38-19.14-3.5-28.59-6.35l-54.52,28.92c1.12,4.72,0.02,7.65-3.3,8.79l-33.26,8.2l-4.54-2.05c1.4-3.28,2.11-4.92,2.11-4.92
	l-14.41,9.05c-3.03,4.18-7.94,6.74-14.73,7.69c-5.19,2.43-9.56,2.48-13.11,0.15l-1.52-2.74c0.05-20.15,1.01-40.33,3.73-60.34
	l2.5-1.48l178.51-17.86c25.17-1.19,50.08-3.68,74.74-7.48l1-1.59c17.56-4.81,35.99-10.38,52.09-15.9
	C421.81,1220.01,423.43,1220.99,419.13,1224.04z"/>
<path class="st5" d="M447.16,1236.13c6.23,0.34,3.68,13.76-2.68,10.85l-1.2,2.87c-9.42-0.01-15.36,3.49-17.83,10.51l-4.58,3.21
	l-156.88,29.98c-8.87-1.34-17.68-3.14-26.42-5.39l-50.2,25.88c-1.84,4.33-5.24,6.67-9.45,8.36c-18.26,6.21-37.42,11.53-56.1,15.44
	l-34.94,52.73l-72.31-15.68c29.93-14.76,60.02-28.2,91.59-39.69c-2.1-2.36-4.02-4.02-4.13-6.69c0.06-1.17,0.47-1.12,1.17-0.04
	c9.55-1.33,18.81-4.7,27.84-7.84l9.86-5.75l2.45,1.63c13.02-1.59,25.61-6.06,38.92-9.09c0.08-3.15-0.99-4.91-0.5-7.48l56.79-30.15
	l26.92,6.84l158.54-28C424.17,1235.98,440.04,1241.8,447.16,1236.13z"/>
<path class="st1" d="M112.88,1249.57c-7.91,4.38-4.29,14.28-11.69,14.09c0.48-8.83-3.43,1.08-7.51,1.71l-68.67,4.91l156.02-40.65
	c-1.6,10.23-5.65,17.29-5.87,26.75l-51.26,5.19L112.88,1249.57z"/>
<path class="st1" d="M100.43,1328.33c-2.15-0.73-5.81-0.92-7.83-2.26c-3.92-1.42-33.17-18.62-33.65-20.55
	c-0.57-2.31,28.07-31.85,31.86-35.26c2.29-2.06,11.54-10.2,14.04-3.29c-2.08,40.24-3.11,60.35-3.11,60.35L100.43,1328.33z"/>
<path class="st1" d="M277.68,1245.94l-98.91,9.88c-0.68-8.25,1.72-15.99,5.72-23.16C216.29,1235.95,246.22,1239.38,277.68,1245.94z"
	/>
<path class="st1" d="M12.38,1269.59l2.49-15.33c18.85,1.46,36.12-0.2,55.34-0.2L12.38,1269.59z"/>
<path class="st7" d="M444.47,1246.98c3.07,0.47,3.86,3.1,2.39,7.89c-7.34,3.96-14.78,7.78-22.3,11.46
	c1.19,8.62-8.58,9.97-14.67,7.36l-1,2.93c-14.22,2.91-28.45,5.76-42.7,8.55l-3.32-1.99l-0.72,2.86
	c-31.05,5.91-62.12,11.83-93.21,17.75l-5.15-1.75l-28.53-5.32l-62.12,34.39c-9.01,4.99-21.24,5.38-31.21,10.02
	c-5.5-1.02-11.8,0.24-17.2-2.08c-0.95-0.41-1.8-1.22-2.93-1.22c7.22-8.01,65.9-14.69,62.14-25.05l53.15-27.45l25.57,5.74
	l160.16-30.62C424.96,1248.93,434.26,1248.42,444.47,1246.98z"/>
<path class="st0" d="M37.28,1291.21c-3.67-1.14-8.41-3-10.2-6.86C31.61,1284.36,34.39,1288.59,37.28,1291.21z"/>
<path class="st0" d="M27.08,1284.35c-2.77-0.01-4.38-1.83-5.55-3.99C24.8,1280.38,25.93,1281.87,27.08,1284.35z"/>
<path class="st0" d="M500.9,1203.84c-27.57,5.87-54.59,13.27-81.77,20.2c1.1-4.46-3.39,0.53-6.11-0.21
	c-2.21,8.42,2.9,16.37-1.15,25.34c-4.47-7.96-1.3-15.84-2.43-24.36l-46.49,13.26c4.07,2.25,9.18-2.51,12.36,1.79l-268.07,26.82
	c-4.11,21.11-4.27,41.67-4.04,61.8c-0.37,0.05-0.8,0.08-1.17,0.04c-0.51-0.07-1.1-0.01-1.59-0.18c-1.45-5.84,3.34-60.56,2.11-60.84
	c-10.95-2.52-31.95,28.37-41.61,37.67l31.67,20.9c-0.52,0.36-1.01,0.77-1.45,1.23c-18.46-11.14-38.04-21.77-53.87-36.09
	c7.77,2.4,12.96,8.99,21.21,12.22l31.51-34.88c-26.68,3.64-51.85,1.93-71.35,8.79c-6.45-1.34-12.16-3.45-18.55-1v-4.02
	c4.07,0.48,7.62-3.87,9.73-6.61c2.35-3.05,0.36-10.27,1.27-13.35l8.22-27.63c1.73,9.52-3.27,17.78-3.34,27.39l56.2-1.26
	c-0.61-5.22-4.82-8.49-4.21-13.94c5.09,4.38,5.16,10.3,8.85,15.6l40.11-10.37l-94.98-20.17c35.06,1.33,67.81,16.61,102.83,16.4
	c29.07-0.17,56.58-19.38,87.63-15.49c-7.83,4.36-18.75,0.53-27.11,7.26l32.66,3.95c-1.72-4.05-5.67-4.95-4.12-5.68
	c1.57-0.75,5.3,1.77,5.12,5.42l71.58,9.98c17.24,2.4,33.66-3.37,51.7-4.91c-9.46-4.57-17.32-10.78-27.43-12.5l-106.26-18.13
	l-34.24-2.96c19.26-3.68,36.94,0.44,55.55,3.57l86.07,14.47c12.42,2.09,22.49,12.59,35.21,13.93c18.79-1.9,37.11-9.93,55.2-15.07
	c-28.38-16.41-59.51-11.62-90.91-16.68c18.12-2.7,80.13,1.33,93.54,15.32l-0.39-26.91c6,8.14,3.29,17.09,5.4,26.2
	C442.6,1210.48,472.16,1206.4,500.9,1203.84z"/>
<path class="st7" d="M663.05,830.19l-60.61,56.05l0.17,20.19c-2.03,0.16-4.67-0.87-6.65-0.04l-26.36-1.85l83.56-85.12
	C658.51,821.53,660.33,827.21,663.05,830.19z"/>
<path class="st7" d="M927.15,930.91c-37.77,2.97-74.9,2.84-113.16,1.85C851.05,929.97,888.43,929.26,927.15,930.91z"/>
<path class="st7" d="M925.92,966l-117.34,2.91C847.14,966.12,885.75,964.09,925.92,966z"/>
<path class="st7" d="M890.63,915.9c-38.99,2.39-80.19,2.78-119.91-0.18L890.63,915.9z"/>
<path class="st9" d="M156.77,1039.29c-1.47,4.47-4.62,7.15-9.9,7.57l-55.47,4.42c-0.51-2,0.29-4.44,3.1-4.59l54.2-2.93
	C152.23,1043.56,153.67,1039.11,156.77,1039.29z"/>
<path class="st15" d="M689.92,1036.23l-40.15-2.63c-1.38-1.46-2.41-1.73-3.09-0.8c-0.66-0.3-1.78-0.21-2.51-0.27l0.61-133.83
	l45.35-0.18L689.92,1036.23z"/>
<path class="st7" d="M636.12,958.85c-7.39,1.06-13.95,0.37-21.73,0.14l-0.38-34.21c7.5-1.09,14.34-0.88,21.99-0.48L636.12,958.85z"
	/>
<path class="st5" d="M400.37,1130.4c-19.5-9.35-46.31-4.49-53.21-15.79C348.19,1117.14,408.63,1123.01,400.37,1130.4z"/>
<path class="st7" d="M649.77,1033.6c-1.15-0.08-2.06-0.34-3.09-0.8l2.84-131.13L649.77,1033.6z"/>
<path class="st11" d="M467.27,1228.01c-3.19,27.57,26.53,6.82,63.51,22.96c8.48,1.23,20.58,2.96,29.21,0.93l34.61-8.14
	c11.63,12.45,24.53,23.84,35.93,36.71l-79.59,15.71c13.15,9,24.84,20.82,39.18,28.61c11.44,6.21,27.58,5.43,33.93,15.88
	c0.6,0.85,1.32,2.3,0.8,2.71c-10.51,8.42-24.53,18.08-35.9,25.4c-3.72,3.74-7.09,5.03-10.11,3.87
	c-23.09,16.34-44.84,37.48-69.62,47.12c-2.23-1.71-4.01-3.27-5.3-5.76c-5.61-10.78-8.31-27.61-9.86-39.75
	c-1.33-10.38-2.59-25.19,0.43-34.93c-2.01-1.36-24.48-9.72-27.54-10.32c-3.88-0.75-20.91,0.42-24.01,1.63l-17.66,18.2l-3.73,1.41
	c-16.79-15.87-32.28-32.82-46.47-50.87c-5.41-4.4-9.73-9.14-12.96-14.23l0.76-1.99l47.03-9.49l5.21,0.75
	c17.13,11.34,34.8,21.82,53.01,31.43c1.33-25.51,2.11-48.88-8.75-72.69l1.51-3.84C460.28,1224.64,465.57,1224.07,467.27,1228.01z"/>
<path class="st4" d="M674.7,1375.57c-2.9,1.5-103.43,4.08-95.87-2.9l45.21-31.99C643.34,1345.97,658.92,1362.82,674.7,1375.57z"/>
<path class="st7" d="M602.37,1197.15l0.33,19.41l61.42,57.8c-3.38,3.28-5.77,8.98-11.94,10.65l-81.84-83.93
	c1.39-1.6,3.58-2.46,5.16-2.62C584.45,1197.56,593.41,1197.35,602.37,1197.15z"/>
<path class="st7" d="M509.09,1206.7c0.62,4.08,0.76,8.41-0.45,13.22c-13.94,3.21-28.11,3.87-41.37,8.1c-1.82,0.58-4.9-0.48-6.4,1.33
	c-2.33,2.81-11.11,4.94-13.53,1.37c-4.15,0.3-9.15-1.46-13.26-1.53c20.38-12.65,46.55-13.74,69.48-22.36
	C505.5,1205.42,508.39,1203.98,509.09,1206.7z"/>
<path class="st1" d="M508.5,1203.55c0,1.04,0.43,2.11,0.59,3.15c-1.69,0.38-3.87-0.49-5.52,0.13
	C504.84,1205.22,506.31,1203.46,508.5,1203.55z"/>
<path class="st13" d="M362.86,1283.18c5.06,7.24,12.64,11,17.6,18.92c10.36,16.54,29.46,29.04,41.57,46.22l19.83-20.01
	c35.04-5.27,22.52-1.02,57.47,9.78c-7.41,7.59-3.2,13.58-3.26,21.01c-0.19,22.27,4.58,41.16,13.14,60.7
	c-31.42-13.13-61.97-29.21-91.64-46.03c-19.02-10.78-34.46-29.07-57.78-33.89c-9.23,0.36-18.17,6.38-27.64,8.5
	c-25.3-12.61-47.65-28.06-68.36-46.33L362.86,1283.18z"/>
<path class="st13" d="M460.88,1229.34c14.75,42.8,9.93,32.43,9.89,81.59c-21.08-13.99-43.32-22.48-60.87-37.25
	c3.23-0.65,6.5-2.29,9.81-2.11c3.59,0.2,1.04-6.09,3.08-7.52c6.88-4.8,15.15-6.27,22.02-10.43l-0.33-6.64
	c3.93-2.26,3.94-6.86,2.68-10.85l0.19-5.41C451.69,1230.4,456.54,1227.7,460.88,1229.34z"/>
<path class="st0" d="M143.34,1316.5c-3.36,2.39-8.58,2.83-12.31,4.12c2.67-4.23,9.29-10.09,14.67-11.88
	c14.82-4.91,19.33-20.62,30.34-27.52c17.47-10.95,40.27-14.19,58.45-26.31c-13.63,17.02-39.56,15.19-54.74,27.88
	C167.3,1293.44,155.94,1306.4,143.34,1316.5z"/>
<path class="st0" d="M153.13,1291.99c-7.68-6.52-15.31-13.63-21.8-22.33C138.88,1276.59,147.37,1282.07,153.13,1291.99z"/>
<polygon class="st7" points="684.5,944.9 653.54,944.95 653.63,908.72 684.1,908.74 "/>
<g>
</g>
<g>
</g>
<g>
</g>
<g>
</g>
<g>
</g>
<g>
</g>
<g>
</g>
<g>
</g>
<g>
</g>
<g>
</g>
<g>
</g>
<g>
</g>
<g>
</g>
<g>
</g>
<g>
</g>
</svg>
