<?xml version='1.0' encoding='UTF-8'?>
<svg xmlns="http://www.w3.org/2000/svg" id="Layer_1" viewBox="0 131.6 1200 1538.0" xml:space="preserve" width="1200" height="1800">
<style type="text/css">
      .cls-1 {
        fill: #2c4b4e;
      }

      .cls-2 {
        fill: #3a6563;
      }

      .cls-3 {
        fill: #4f6948;
      }

      .cls-4 {
        fill: #4a8180;
      }

      .cls-5 {
        fill: #8f714c;
      }

      .cls-6 {
        fill: #778d4d;
      }

      .cls-7 {
        fill: #5e9089;
      }

      .cls-8 {
        fill: #8e9c67;
      }

      .cls-9 {
        fill: #7caea1;
      }

      .cls-10 {
        fill: #acb485;
      }

      .cls-11 {
        fill: #d9ab65;
      }

      .cls-12 {
        fill: #dabf65;
      }

      .cls-13 {
        fill: #cac48c;
      }

      .cls-14 {
        fill: #edd692;
      }

      .cls-15 {
        fill: #faecc6;
      }

      .cls-16 {
        fill: #ffffff;
      }

    </style>
<path class="cls-16" d="M0,128.64V0h1200v128.9l-0.66,1.92c0,0-37.46,0.05-112.39,0.16l-1.18-1.92c0,0.75-0.18,1.9-0.65,1.92  c-10.69,0.58-25.05,0.73-35.65,0.04c-2.35,0.51-3.75-0.13-4.22-1.92l-0.67,1.92c-33.63-0.01-67.27-0.03-100.91-0.04l-1.17-1.92  l-0.07,1.28c-13.05,0.76-26.36,0.98-39.93,0.65l-1.12-1.92l-0.91,1.92c-90.13-0.03-180.28-0.06-270.44-0.09l-1.19-1.92l-0.89,1.92  c-24.31,0-48.63,0-72.96,0l-1.15-1.92l-0.92,1.92c-137.82,0.05-275.66,0.1-413.52,0.15l-1.2-1.92l-0.89,1.92  c-23.55-0.01-47.11-0.03-70.68-0.04l-1.16-1.92l-0.9,1.91c-21.14-0.15-42.29-0.29-63.44-0.44L0,128.64z" />
<path class="cls-16" d="M1042.58,1671.42l5.6-1.59c13.82,0.08,27.58,0.3,41.29,0.64l2.77,1.26l0.63-1.92  c14.21-0.1,28.42-0.19,42.64-0.29l1.15,1.91l0.66-1.91c10.95,0.1,21.91,0.2,32.86,0.3l1.11,1.93c0.09-0.75,0.34-1.86,0.88-1.92  c4.71-0.47,22.56-0.68,26.7,0.11l1.12,1.92V1800H0v-127.68l0.86-1.93c17.16-0.19,34.32-0.38,51.49-0.57l1.16,1.91l0.66-1.92  c28.83,0,57.67,0,86.52,0l1.16,1.92l0.66-1.92c26.03,0,52.06,0.01,78.09,0.01l1.16,1.92l0.88-1.92c17.84,0,35.68,0,53.53-0.01  l1.14,1.92l0.67-1.92c0,0,79.58,0,238.73,0.01l2.64,1.92l0.67-1.92c0,0,57.26-0.01,171.79-0.03l1.19,1.92l3.56-1.92  c67.32,0.01,134.61,0.03,201.87,0.04l1.19,1.92l0.88-1.92c16.27,0,32.56,0,48.84,0.01l1.13,1.92l0.66-1.92  c30.08-0.11,60.17-0.23,90.26-0.34L1042.58,1671.42z" />
<path class="cls-1" d="M138.2,129.14l1.93,0.65c1.3,126.46,1.96,189.69,1.96,189.69l-1.91,1.2c2.84,1.38,3.05,9.37,0.01,10.56  l1.92,0.66c0.08,28.82,0.15,57.64,0.23,86.46l-1.92,1.17l1.92,2.14c0.02,19.29,0.04,38.58,0.05,57.88l-1.92,1.16  c1.62,3.45,1.21,7.38,0.69,11.02l1.93,0.87c0.19,21.22,0.37,42.46,0.56,63.71c0,0-0.63,1.13-1.89,3.38  c-0.09,1.05,0.36,1.04,1.35-0.03l0.05-2.97c8.61-8.35,15.47-17.7,20.57-28.07l2.49-1.45l1.02-3.75c5.2-6.39,9.55-13.36,13.05-20.89  l2.8-1.21c2.3-8.74,5.77-17.23,10.42-25.46c0,0,3.81-9.37,11.42-28.12c1.72-7.26,4.45-13.83,8.17-19.73l-0.93-3.85  c3.33-10.45,5.87-21.09,7.61-31.89l2.26-3.23l1.35-2.39c-2.81-0.59-2.73-3.16,0.12-3.53l-1.53-2.21c2.15-6.88,3.64-13.86,4.46-20.95  l1.87-1.84l-0.08-7.49c2.88-15.26,5.27-30.57,7.17-45.92l1.5-2.32l-1.85-0.84l12.81-135.5c5.63-5.21,9.73,0.66,11.01,6.84  l-2.52,91.7l-1.95,1.12c0.26,2.14,0.48,4.28,0.56,6.42c0.08,2.14,0.14,4.26-0.09,6.34c-6.23,56.29-14.38,112.74-27.58,167.78  l-2.64,5.9l-1.04,0.96c0.8,0.65,0.75,1.29-0.17,1.71l-1.39,2.36c1.84,0.5,1.82,1.27-0.04,1.69c0.05,0.86-0.18,1.82-1.06,2.1  l0.31,3.68c-7.75,31.29-20.96,61.8-37.01,89.71l-2.75,2.44l-1.81,7.41c-9.25,17.2-13.88,25.8-13.88,25.8l-2.36,0.33  c0.94,0.61,1,1.71,0.79,2.75l-20.62,42.13l1.63,121.74l-1.9,1.21c0.83,0.63,1.02,1.72,0.56,3.29c0.74,0.08,1.81,0.25,1.94,0.8  c0.28,1.26,0.55,14.68,0.3,15.91l-1.89,1.38c0.74,0,1.89,0.18,1.92,0.65c0.58,9.57,0.4,21.6,0,31.24c0.68,3.88,0.04,6.36-1.92,7.45  c0.42,2.27,1.14,4.55,2.16,6.82l4.41,123.81c8.88-14.5,20.01-31.89,38.35-35.51c2.12-0.05,2.65,0.93,1.67,2.88  c-13.95,18.01-19.08,39.75-21.95,61.9c6.7-12.48,14.63-25.77,25.86-34.7c4.61-3.67,11.07-8.74,9.19-0.24  c-4.45,8.91-8.57,17.96-12.36,27.14l-2.79,2.31l1.1,2.98c-0.83,5.39-3.81,14.52-8.41,17.37c-2.22,3.15-5.85,4.98-10.87,5.48  l-26.07,5.39l-3.26-1.14l-5.28-0.67c-14.63-7.47-29.63-14.12-45.01-19.96c4.59-22.29,15.9-42.92,28.7-61.56  c-18.69,12.56-37.85,30.07-43.06,52.38c-3.68,6.82-10.46,2.4-9.49-2.43c7.44-37.16,21.86-72.88,40.6-105.71  c-27.79,26.37-50.1,65.54-51.78,104.24l-1.1,3.4c0,0-16.63-1.74-49.89-5.21L0,965.76v-57.6l2.73,0.73  c3.89,8.33,6.32,17.21,7.29,26.64c0.92-15.16,1.14-30.51,0.23-45.71C8.98,868.55,4.68,849.12,0,828.48v-8.64  c0.68,0.03,1.36,0.09,1.99,0.27c0.63,0.18,1.2,0.36,1.51,0.74c22.71,27.99,27.09,66.12,30.91,100.8l1.92-8.34l2.16-1.17  c0.64-1.22,1.15-2.63,1.51-4.24c-3.13-0.63-2.91-6.79,0.15-7.38c-0.07-0.9-0.03-1.94,0.11-3.11L38.51,894l1.08-19.79l1.85-3.31  c1.19-2.43,1.45-5.12,0.75-8.06c-1.98-1.05-2.21-8.87-1.73-10.91c0.27-1.18,0.57-1.78,2.05-2.1c0.49-2.45,0.93-4.86,1.32-7.22  l-1.91-0.7c0.46-24.24,0.91-48.49,1.37-72.74l1.94-1.13c-1.83-2.07-1.87-2.92,0.79-3.68c-0.29-0.95-0.24-2.03,0.14-3.24  c-0.74-0.23-1.81-0.57-1.88-1.18c-0.32-2.94,0.15-18.46,0.74-21.13l1.97-1.32c-0.3-1.79-0.06-3.21,0.71-4.29L45.81,732  c0.38-11.84,0.75-23.68,1.13-35.53l1.96-1.34l-1.88-1.56c2.8-95.44,5.6-190.89,8.4-286.34l1.95-1.14c-0.47-0.72-0.9-1.46-1.21-2.25  c-1.13-2.88,0.26-31.76,0.89-37.26c0.19-1.62,0.91-3.08,1.78-4.44c0.65-0.94,0.84-2.03,0.57-3.29c-0.74-0.22-1.82-0.56-1.88-1.15  c-0.31-3.02,0.08-18.88,0.68-21.5l1.96-1.31l-1.9-0.72c1.75-67.97,3.49-135.96,5.24-203.96l1.95-1.13L138.2,129.14z" />
<path class="cls-1" d="M1085.77,129.06l1.94,0.88c1.9,93.89,3.8,187.8,5.71,281.72l-1.9,1.23c0.58,4.01,1.12,8.03,1.51,12.06  c0.39,4.03,0.78,8.05,0.85,12.08c1.3,76.58,2.43,153.19,3.53,229.77c0.12,8.09-0.49,16.17-1.18,24.23c0.91,2.61,0.89,5.4,0.12,8.06  c0.75,0.09,1.84,0.29,1.93,0.84c0.45,2.91,0.28,9.24,0.14,12.45c0.73,3.73,0.12,6.2-1.84,7.41l0.87,2.67  c-0.62,6.02-0.46,12,0.5,17.94l1.66,3.99c0.28,13.67,0.53,27.27,0.76,40.79l-1.24,1.96l1.93,0.64l1.91,121.75  c11.32,22.01,19.55,45.48,25.59,69.45l0.36,9.83l2.12,0.67l3.62,16.19c1.05-33.99,3.27-68.06,8.31-101.72  c0.23-1.54,0.77-3.04,1.33-4.55c0.56-1.52,1.26-2.99,2-4.45c1.26-2.51,2.46-1.26,3.6,3.77c2.92-0.42,2.93,6.75,0.13,7.33  c0.4,0.69,0.4,1.62,0.13,2.27c2.89,0.2,3.55,6.49,0.2,6.33c0.99,2.04,1.2,4.77,0.81,7.09c3.15,2.24,3.97,10.81,0.73,13.16  c-0.21,3.14,0.05,6.15,0.78,9.02l1.36,1.76c0.78,9.9,1.35,19.88,1.73,29.95c3.94-18.22,8.22-36.35,12.83-54.4  c1.11-6.72,3.61-12.37,7.51-16.94c2.16-13.36,8.35-27.19,14.98-39.06c5.56-9.95,8.84-13.4,6.91-0.8  c-8.81,34.22-14.44,68.84-19.73,103.68c-0.38,2.48-1.47,4.78-2.58,7c0.14,14.31-1.05,28.58-3.18,42.9l6.05-20.7l2.16-0.58  l-0.62-4.69c2.16-8.11,12.05-35.72,17.67-39.69c0.68-0.48,1.45-0.86,2.23-1.2v171.09l-0.66,1.92  c-62.27,0.31-124.54,0.62-186.83,0.93l-1.2-1.91c-1.19-1.3-2.36-1.94-3.52-1.92l-236.95,0.13l-1.84-1.92l-1.62-2.24  c3.71-11.03,9.5-21.27,17.35-30.7l2.64-0.65l1.6-1.76c17.35,2.25,34.93,3.59,52.76,4.02l10.9-1.45  c26.01-8.35,53.31-10.56,79.96-3.62c16.38,5.64,33.17,8.78,49.17,1.2c10.31-6.69,20.81-9.47,31.49-8.34  c8.34,3.92,16.26,8.77,23.75,14.54l29.74-25.62c-7.4-14.63-20.1-25.47-34.06-33.63l-1.56-3.14l-1.9-1.81  c0.48-44.6,0.72-66.89,0.72-66.89l2.04-10.85c-0.66-2.85-1.26-5.75-1.14-8.69c1.65-38.76,3.29-77.45,2.81-116.29  c0,0,0.7-2.86,2.09-8.59c-0.75-0.22-1.86-0.58-1.89-1.17c-0.36-7.11-0.07-17.79,0.59-24.87c-0.5-3.1,0.19-5.32,2.08-6.68l-1.91-0.95  l4.47-288.23c-4.97-7.57-9.7-15.28-14.18-23.14c-2.5-3.79-3.01-7.15-1.53-10.08c-0.92-0.14-1.55-0.8-1.91-2l-2.95-2.22  c-2.15-4.1-10.23-22.46-9.49-25.39c0.17-0.66,0.46-1.28,0.78-1.9c-0.63-0.46-1.16-1.22-1.59-2.29c-0.81-0.07-0.8-0.35-0.06-0.82  c-0.54-0.12-0.56-0.44-0.18-0.91l-2.98-3.27c-6.05-16.78-13.61-39.15-15.57-56.66c-0.07-0.66,0.14-1.36,0.38-2.08  c0.26-0.75,0.64-1.45,1.06-2.15c-0.59-0.98-1.15-1.97-1.59-3.01c-0.43-1.02-0.83-2.03-0.96-3.07c-3.54-28.84-6.72-57.86-6.99-86.95  c-0.13-4.11,1.2-4.27,4.49-3.31c4.87,1.42,7.22,21.65,7.29,26.53c2.77,23.29,6.7,46.38,11.78,69.28l-0.51,5.07  c2.61,1.13,2.55,1.88-0.06,2.81c1,0.1,1.04,1.27,0.97,2.2c2.68,0.43,2.67,1.55,0.14,2.52c0.43,0.73,0.89,1.52,1.38,2.38l3.03,4.65  c4.8,16.74,10.08,33.3,15.83,49.67l-0.28,2.9c0.56,0.65,1.16,1.38,1.81,2.2c2.84-0.37,4.64,4,2.03,5.46l1.83,2.15  c2.61-0.93,3.23,1.15,1.03,2.67l1.84,2.18c2.98-0.55,3.52,1.64,1.22,3.59l0.85,1.09c3.19-0.88,4.51,0.97,2.74,3.75  c1.09,0.73,1.99,0.71,2.7-0.06l-1.28-0.3c-0.64-18.49-0.72-37.09-0.25-55.79l1.93-1.14c1.45-2.86,1.42-6.19,0.03-9.04  c-2.89-3.54-2.78-10.37,0.05-13.93c0.81-9.06,1.06-18.15,0.75-27.29l-1.91-0.91c0.24-20.01,0.48-40.04,0.72-60.07l1.93-1.13  c-0.04-14.54,0.22-29.07,0.79-43.58l-1.91-0.68c0.35-36.9,0.7-73.82,1.06-110.73l1.93-1.15L1085.77,129.06z" />
<path class="cls-1" d="M407.93,959.11c0.39,1.24,0.75,2.49,0.97,3.76c0.22,1.25,0.41,2.49,0.36,3.73  c-0.45,11.05-1.06,22.25-1.86,33.28c-0.09,1.22-0.43,2.42-0.82,3.62c-0.39,1.22-0.9,2.4-1.46,3.57l-0.55,2.03l-16.83,2.63  l-1.66-1.68c-1.08,0.64-2.18,1.17-3.28,1.6c-0.04,0.84-0.32,0.8-0.79,0.02l-3.49,2.19c-21.53,3.55-42.37,10.02-62.52,19.42  l-4.02-0.51l0.06,2.03c-28.65,10.87-57.32,21.75-86,32.63l-3.1-0.88l0.1,2.03l-139.4,56.69c11.37,3.8,22.34,8.44,32.92,13.92  c7.48,2.81,15.79,3.23,23.73,1.89c36.44-8.53,74.39-12.95,111.1-2.69c21.24,7.65,42.69,12.11,65.11,7.82l19.04-0.43l2.25,1.44  c1.01-4.13,10.54-1.47,14.02-0.39l5.46,2.28l2.68-0.25c7.37,4.48,27.57,17.35,30.79,24.38c0.61,1.33,0.91,2.2-0.12,3.64l-3.59,1.92  l-291.99-0.04c17.87,7.6,33.81,17.63,47.81,30.09l6.83,8.14c3.43,3.47,5.08,7.13,4.96,10.98l-0.66,1.92  c-50.91,0.28-101.83,0.55-152.75,0.83L0,1228.8v-185.28l3.69-1.25c54.24-1.31,107.62-11.84,159.79-26.48  c3.48-1.55,4.62-0.62,5.83,2.08l-4.57,23.43c14.2-2.2,27.69-7.77,39.86-15.37c23.21-17.87,52.38-25.28,80.66-30.77  c9.25-0.01,17.41-2.01,24.47-6c5.27-6.55,9.72-13.95,13.34-22.19l3.24-1.21c0.09-0.77,0.22-1.89,0.8-2.07  c2-0.61,18.69-3.31,20.23-3.14l3.02,1.47l1.65-2.14c8,0.22,15.95-0.09,23.83-0.93l2.26,1.34c0.98-3.05,11.33-2.59,12.39,0.39  c0.46-1.23,2.3-1.39,3.25-0.57c-1.07-2.82,12.07-3.09,12.73-2.83C407.2,957.56,407.59,958.38,407.93,959.11z" />
<path class="cls-4" d="M146.93,1273.85l1.91,0.91c-0.26,22.84-0.53,45.69-0.79,68.56l-1.94,1.76c2.29,1.22,1.93,2.46-1.09,3.72  l-0.54,2.16c-18.39,4.4-36.12,10.68-53.19,18.83c-10.94,5.99-23.96,15.57-18.91,29.55l-1.13,2.3c2.83,21.11,36.66,31.53,55.22,36.03  c66.41,16.12,135.98,17.9,203.71,11.26l1.01,2.95c-0.95,4.21,0.59,8.47,4.47,10.53c52.1,27.73,131.57,31.3,190.22,31.1  c64.32-0.22,156.19-5.46,213.54-36.51c9.75-5.28,19.16-11.77,25.64-20.84l2.87-0.9c2.81,0.31,2.77,3.85,0.12,4.53  c0.4,1.63,0.1,2.71-0.9,3.23c2.92,4.6-3.92,12.1-7.49,15.62c-6.82,6.73-15.59,11.71-24.23,15.81  c-23.66,11.22-50.18,17.07-75.61,22.07l-2-1.59c-0.96,0.52-2.06,0.99-3.31,1.42c-0.71,2.1-3.05,2.99-7.01,2.67  c-3.41,1.04-5.73,0.64-6.97-1.2c-0.6,0.89-1.69,1.15-3.25,0.8c-0.7,2.48-4.92,3.82-5.56,0.71c-0.55,0.74-1.47,0.83-2.11,0.26  c-0.9,3.5-9.4,3.96-11.18,1.03c-0.46,0.96-1.55,1.24-3.26,0.84c0.5,2.88-5.75,2.98-6.3,0.23c-1.59,0.52-3.34,0.97-5.27,1.36  c0.03,0.74-0.1,1.9-0.57,1.95c-9.01,0.95-21.38,1.48-30.44,1.32l-1.22-1.87c-4.7,1.04-9.61,1.34-14.74,0.9l-0.88,1.92  c-17.44,0.01-34.89,0.02-52.34,0.02l-1.14-1.92c-3.64,0.41-6.95,0.1-9.92-0.91c-0.12,0.74-0.4,1.85-0.94,1.88  c-6.65,0.34-24.73-0.12-30.93-1.32l-1.31-1.98c-1.87-0.44-3.62-0.89-5.26-1.36c-1.01,2.95-6.31,2.54-7.3-0.32  c-1.54,0.46-2.61,0.21-3.22-0.76c-2.48,2.94-9.34,2.38-11.15-1.06c-0.63,0.68-1.62,0.54-2.14-0.23c-0.28,3.02-4.5,2.21-4.64-0.66  c-1.41,0.24-3.49,0.47-4.17-0.85c-0.18,0.72-0.49,1.79-1.03,1.82c-2.89,0.14-11.32-0.42-11.99-3.28c-0.9-0.37-1.68-0.83-2.36-1.39  l-1.38,1.72l-12.51-2.07l-1.01-2.11c-0.97-0.35-1.76-0.8-2.38-1.37c-0.89,2.85-8.1,1.46-8.23-1.45l-2.47-1.28  c-0.08,0.89-0.43,0.96-1.03,0.27c-0.86,0.28-1.73,0.52-2.61,0.62c-4.16,0.49-27.87-7.91-30.92-10.87c-0.63-0.61-1.18-1.32-1.69-2.06  c-1.74,1.59-3.74,0.94-6.01-1.95c-4.63-7.4-6.95-11.1-6.95-11.1c-14.48,0.1-29.81,0.98-46,2.64c0,0-1.07-0.64-3.22-1.91l-0.91,1.91  c-19.53-0.25-39.07-0.51-58.62-0.76l-1.12-1.93l-3.54,1.17c-9.52-1.52-19.1-2.49-28.75-2.9l-3.06-2.21l-1.26,1.8  c-1.44,0.06-14.36-1.14-15.01-1.52c-0.68-0.39-0.94-1.27-1.14-2.05l-1.52,1.73l-12.06-3.41c-2.45-0.07-4.35-0.41-5.68-1.02  c-0.49,17.98-0.92,35.92-1.31,53.83l-1.3,2.23l1.91,0.7c-0.76,52.98-1.53,105.98-2.29,158.98l-1.94,1.15H53.52l-1.94-0.61  c-1.95-59.97-3.89-119.94-5.84-179.93l1.88-1.25l-2.02-2.06l-3.43-67.51c-3.08,0.18-6.41,0.78-8.87,2.85  c-6.19,9.15-13.99,16.11-23.39,20.86c-3.68,2.36-6.98,2.92-9.92,1.68v-117.12l0.66-1.92l97.28,0.02c0.39-0.86-0.06-1.45-1.36-1.79  c-31.73-0.01-63.52,0.25-95.38,0.8L0,1323.84v-50.88l0.68-1.92l131.69,0.59C137.67,1271.03,142.53,1271.77,146.93,1273.85z" />
<path class="cls-6" d="M1200,128.9v290.12l-2.04,2.76c-8.61,3.5-17.46,6.21-26.53,8.11l-3.15-1.5l-1.73,2.13  c-8.45,1.32-16.91,1.6-25.38,0.82l-1.66-2.24c-0.74,0.33-1.49,0.62-2.26,0.78c-4.21,0.9-20.29-4.59-25.61-6.42  c-5.73-1.97-11.89-4.13-17.23-6.97c-0.61-0.32-1.1-0.89-1.58-1.5c-0.51-0.64-0.91-1.35-1.28-2.1l-5.75-283.83L1200,128.9z" />
<path class="cls-4" d="M1200,1122.24v130.7c-2.55,3.16-5.03,0.23-7.08-2.31l-13.95-26.68c-1.26,9.04-0.78,18.15,1.42,27.33  c-1.33,0.88-1.47,2.16-1.09,3.54l1.99,0.43l10.72,88.47c-0.97,1.35-2.3,1.28-3.85,0.98c-1.35-0.26-10.2-23.47-10.67-25.43l-0.43-6  c-3.41-2.96-5.58-7.03-6.51-12.22c-5.75-20.96-10.15-42.23-13.2-63.8l-5.61,75.13c-2.86,2.03-4.01,1.62-4.68-2.66  c-5.98-32.5-10.96-65.65-9.9-98.71l1.25-4.16l0.17-1.28c9.25-0.25,18.64-0.93,28.17-2.02l-0.13-1.83  c-9.76-0.52-19.52-1.03-29.29-1.54c-0.17,0.84-0.42,0.79-0.76-0.06l-1.61-2.12c1.77-12.18,1.36-11.62-1.24,1.7  c-2.62,0.77-4.86,1.49-6.72,2.17c-1.98,3.92-12.86,3.05-14.59-0.85c-0.39-0.71-0.74-1.43-0.98-2.19  c-0.63-2.07,2.25-27.64,3.06-32.03c0.28-1.5,1.08-2.8,2.01-3.98c0.09-0.75,0.33-1.87,0.86-1.92c5.67-0.47,25.29-0.94,30.13,0.04  l1.39,1.92c2.48,1.51,5.37,1.19,8.09,0.58l2.93-1.76c3.29,0.27,29.03,1.13,30.23-0.74c0.12-0.19-1.6-1.07-2.08-1.15  c-22.76,0.3-45.53,0.39-68.32,0.27c-1.89-2.97-3.2-3.31-3.94-1.04c-27.54,1.95-55.15,2.43-82.81,1.42c0,0-2.26-0.64-6.79-1.93  l-1.99-1.35c-3.04-9.38-7.66-18.35-13.86-26.91c-1.95-4.06-1.63-6.41,0.96-7.06L1200,1122.24z" />
<path class="cls-2" d="M65.47,129.09l-5.28,205.81c-0.63,1.03-1.4,2.03-2.52,2.54c-5.87,2.65-23.51,4.15-30.51,4.17  c-6.33,0.02-19.59-0.83-24.86-3.73c-1.11-0.61-1.77-1.74-2.3-2.85v-206.4L65.47,129.09z" />
<path class="cls-3" d="M141.29,1003.36c-1.29,0.87-2.59,1.7-3.96,2.4c-1.36,0.7-2.72,1.37-4.15,1.75  c-39.99,10.7-82.95,16.87-124.02,22.28c-1.48,0.19-3,0.1-4.54-0.02c-1.55-0.11-3.08-0.36-4.62-0.65v-63.36  c17.73,0.35,35.04,2.78,54.2,6.07c-3.21-32.96,30.96-95.81,59.56-113.14c-21.41,35.95-36.34,72.73-44.72,112.7  c-0.51,2.44,1.93,3.86,3.45,3.89c4.63,0.09,1.03-14.83,20.42-33.77c9.67-9.44,18.51-20.26,32.51-24.79  c-15.38,20.05-25.98,41.55-33.04,65.3C110.37,987.71,126.01,994.96,141.29,1003.36z" />
<path class="cls-6" d="M326.32,965.76c-9.84,12.53-7.92,28.49-30.5,30.04c-20.87,1.43-65.46,13.87-81.06,25.5  c-15.3,11.41-32.83,19.68-52.43,22.36l5.26-27.01c-56,15.34-111.03,27.63-167.59,26.87v-14.4c47.37-6.57,95.61-13.16,141.29-25.76  c12.97-3.58,27.32-4.44,40.2-9.73l2.9-2.89c9.1-0.43,17.29-2.53,24.59-6.28l2.26,0.47c0.06-2.01,0.82-2.14,1.69-0.33l1.89-2.08  c21.38-3.71,42.68-7.97,63.9-12.8l2.55,1.54l2.61-2.36c13.09-3.14,26.3-4.89,39.65-5.26L326.32,965.76z" />
<path class="cls-15" d="M1200,419.01v247.18l-1.74,2.36c-9.98,2.56-17.74,9.55-23.39,17.96l-2.81,0.79l-1.93-0.64  c-1.25-85.67-2.51-171.36-3.76-257.05l1.9-1.21C1179.2,427.13,1189.71,422.58,1200,419.01z" />
<path class="cls-9" d="M47.62,1489.94l5.9,181.79L0,1672.32v-188.16c0.44-3.57,4.37-2.27,5.71,1.04l0.26,129.91  c0.33,1.07,20.51,5.4,19.78-2.1l0.12-127.87c0.62-2.09,0.67-2.2,2.68-2.94C31.13,1481.26,47.01,1485.73,47.62,1489.94z" />
<path class="cls-9" d="M1200,1465.87v205.98l-28.71-0.12l-1.92-0.68c0.16-68.28,0.31-136.57,0.47-204.86l1.92-1.18  c0.11-0.74,0.37-1.84,0.92-1.89c4.82-0.46,21.31-0.03,25.98,0.8L1200,1465.87z" />
<path class="cls-4" d="M148.01,1267.23l-0.67,1.92c-48.71-0.01-97.44-0.02-146.17-0.03L0,1267.2v-38.4l154.6-0.84  c2.11-2.61,3.42-0.16,3.35,2.82c-4.07,8.89-6.95,18.07-8.64,27.54C149.9,1262.01,149.47,1264.98,148.01,1267.23z" />
<path class="cls-7" d="M47.62,1489.94c-6.01-2.38-11.53-5.61-19.82-5.98l-0.1,128.61c0,2.88-2.67,5.27-4.16,6.41  c-0.67,0.51-20.04,0.41-19.37-3.87L3.8,1485.16c0-1.53-3.28-0.94-3.8-1v-38.4c33.76-10.44,22.46-27.5,44.21-27.35L47.62,1489.94z" />
<path class="cls-8" d="M1200,749.59v201.56c-8.78,14.1-14.74,29.73-19.28,45.57l-2.37-0.13c-3.12-6.51-4.01-13.68-2.67-21.5  c3.31-39.66,13.29-78.06,22.04-118.41c-8.45,15.56-15.68,31.64-21.62,47.59l-1.94-0.61c-1.56-48.12-2.54-96.13-2.95-144.02  l1.91-1.17l0.99-2.37l15.92-6.78C1194.47,747.26,1197.79,747.34,1200,749.59z" />
<path class="cls-8" d="M2.92,742.11c1.64-0.02,2.85,1.09,3.64,3.35c1.63,2.69,3.15,4.01,4.54,3.96c0,0,3.61,0.21,10.83,0.64  c3.83,0.44,6.1,1.93,6.81,4.46l2.36-0.99c3.47,0.99,13.59,10.61,14.13,14.49l-1.4,74.58c-0.4,2.47-0.84,4.88-1.32,7.22  c-0.5,4.19,0.59,8.88-0.32,13.01c0.75,3.02,0.5,5.71-0.75,8.06c0.36,8.81-0.84,17.73-1.18,26.51l-0.11,3.11  c-0.2,2.27-0.45,5.06-0.15,7.38c-0.23,1.44-0.74,2.85-1.51,4.24c-0.97,5.44-1.93,11.72-5.55,16.85  C30.26,892.92,23.73,844.83,0,819.84v-77.76C0.1,739.33,2.29,739.48,2.92,742.11z" />
<path class="cls-9" d="M1200,1262.13v135.81c-2.03,2.33-5.27,2.53-9.72,0.61l-15.88-6.12l-1.07-2.31l-1.89-3.87  c-0.81-18.83-0.59-37.64,0.65-56.4c-0.04-6.7,1.62-12.23,4.97-16.57l13.12,31.28l-10.87-89.73c-1.08-5.01,0.6-5.63,5.13-4.3  C1189.1,1251.89,1198.62,1257.48,1200,1262.13z" />
<path class="cls-8" d="M60.19,334.91l-0.76,23.96c0.27,1.11,0.48,2.7-0.57,3.29c0.7,14.68-1.04,29.32-1.47,43.94  c-1.2,1.42-2.23,1.34-3.77,1.12c-8.22-1.13-23.4-12.1-25.84-20.29l-3.06-0.55c-7.21-6-11.28-23.54-12.35-32.71  c-3.12-0.02-5.69-0.64-7.72-1.86c-1.32,2.77-3.75,2.36-4.64-0.44v-16.32C20.33,342.7,39.53,339.66,60.19,334.91z" />
<path class="cls-12" d="M1200,666.19v83.39c-9.93-0.21-17.74,5.96-26.87,8.89l-1.93-0.86c-0.35-23.04-0.69-46.08-1.04-69.13l1.9-1.18  C1178.64,676.9,1187.6,668.57,1200,666.19z" />
<path class="cls-13" d="M1200,1397.93v67.94l-28.24-0.86c-0.74-0.1-1.76-0.29-1.91-0.88c-0.7-2.77,0.03-23.41,0.44-27.39l1.94-1.35  c-0.59-2.62-1.09-5.82,0.62-8.08l-1.91-1.15c0.15-11.55,0.29-23.1,0.44-34.66l1.94-1.38  C1182.43,1392.53,1190.39,1398.53,1200,1397.93z" />
<path class="cls-15" d="M4.64,351.8l1.92,0.92C6.27,462.55,5.98,572.39,5.7,682.25l-1.92,1.19c-1.79,2.15-3.11,1.84-3.77-0.88v-331.2  C1.51,351.35,3.12,352,4.64,351.8z" />
<path class="cls-9" d="M148.01,1267.23c0.84-3.05,8.35-2.33,11.23-1.78c2.25,0.43,7.51,1.56,7.35,4.46  c-0.25,4.39-14.35,6.25-18.28,5.89l-1.38-1.95c-15.64-0.56-30.83-0.18-47.14-0.28L0,1272.96v-5.76L148.01,1267.23z" />
<path class="cls-8" d="M0,908.16v-79.68c14.67,36.7,13.58,80.2,11.51,120.26C6.25,934.7,7.58,919.28,0,908.16z" />
<path class="cls-9" d="M0,1328.64v-4.8l94.96-1.11c2.07-0.02,3.72,1.1,4.69,1.76c0.78,0.54,0.29,4.11-1.17,4.11L0,1328.64z" />
<path class="cls-7" d="M1200,1252.94v9.18c-3.25-2.19-21.79-16.32-20.7-7.31c-1.18-3-6.51-33.32,0.41-34.22l12.15,24.13  C1193.76,1248.5,1195.65,1252.88,1200,1252.94z" />
<path class="cls-12" d="M3.77,683.44c0.49,0.79,0.94,1.59,1.28,2.44c0.33,0.83,0.63,1.64,0.65,2.44c0.45,16.16,0.88,33.03-0.42,49.12  c-0.06,0.79-0.44,1.57-0.85,2.37c-0.41,0.81-0.95,1.56-1.52,2.3L0,742.08v-59.52C1.28,682.75,2.54,683.06,3.77,683.44z" />
<path class="cls-15" d="M628.84,128.99l1.59,4.11c-4.03,53.28,27.48,102.44,75.42,124.73l2.77,3.39l2.25,2.07  c1.37,7.54,2.32,15.14,2.85,22.78c-50.6,35.07-36.09,111.2,24.71,122.99c0.21,37.5,27.65,62.88,63.46,68.19l12.21,6.41  c3.24,0.74,5.44,2.1,6.6,4.08c2.7,20.42,3.62,41.04,2.76,61.83l-1.44,117.03c1.1,6.29,0.36,8.9-4.15,8.09l-21.79-35.09  c7.27,17.07,14.79,34.01,22.55,50.83l0.28,3.41c0.67,0.53,1.22,1.34,1.63,2.41l1.92,0.88c-0.01,19-0.02,38.01-0.04,57.03l-1.92,1.14  c-0.63,22.2-0.87,44.42-0.74,66.66l1.91,0.68c0,0-0.26,32.88-0.77,98.64l-1.93,1.15c0.38,3.32,0.3,6.85-0.76,10.01  c3.85-0.01,2.53,8-0.34,9.42l-0.68,2.92l-14.4,10.62c-28.06-1.47-52.32,16.09-55.27,44.84c-6.26,1.07-12.53,1.79-18.83,2.16  c-6.82-0.26-13.55-2.32-20.2-6.2l-46.71-21.96c-6.54-3.38-7.19-5.63-1.95-6.75c29.75-12,59.25-25.25,87.97-39.18  c3.48-1.69,13.52-8.07,14.45-11.57c0.34-1.28-10.77,1.53-13.02,2.12c-29.21,8.82-58.22,18.18-87.03,28.08  c-6.83,2.04-13.73,3.53-20.98,4.17c-20.03,1.78-42.92,3.11-62.94,2c-1.89-0.1-16.15-8.49-17.8-11.07l0.85-2.18  c1.42-2.93,2.14-4.39,2.14-4.39c27.58-23.11,50.84-47.84,65.87-80.86c13.66-30,12.77-55.76,9.02-86.82  c-0.45-4.09,0.51-6.53,2.89-7.32l1.91-2.21c-2.69-3.13,4.63-10.2,7.76-7.83c1.59-1.7,3.52-3.18,5.81-4.45  c-4.09,0.6-7.66,2.45-10.72,5.54l-15.95,13.83c-5.96,4.16-10.98,7.47-18.08,2.7c-2.13-1.44-5.85-6.36-3.47-8.52  c-0.43-0.93-0.87-1.97-0.58-2.93c3.08-10.33,25.87-21.89,36.27-23.72l2.63,1.36c0.26-1.04,1.29-0.95,2.25-0.85  c0.08-2.73,2.35-3.04,3.68-0.66c0.85-0.05,1.59-0.33,2.21-0.83c0.8-2.64,4.12-2.49,5.55-0.3c0.56-2.87,3.57-2.19,4.48,0.27  l2.41,1.34c1.68-3.17,4.68-2.46,8.98,2.12c38.47,6.02,77.35,10.3,116.35,9.44c-34.72-13.93-70.13-25.97-106.25-36.11  c0,0-1.71-1.26-5.14-3.77c-2.06-0.97-3.39-2.88-3.97-5.73c-17.91-29.7-59.28-41.33-92.5-41.45c-11.29,1.21-22.53,1.83-33.72,1.86  c3.5,1.89,3.9,4.04,1.21,6.45l-14.84,2.56c1.61,1.86,1.09,3.25-0.01,5.2c3.67,2.69,2.04,5.28-4.88,7.78  c0.41,2.75-1.27,4.73-5.04,5.96c1.09,1.93,1.42,3.72,1,5.39l-6.69,13.26l-2.57,1.3l-2.67,4.16c0.87,0.26,0.83,0.54-0.07,0.81  l-1.01,1.94c2.57,0.39,2.41,1.18-0.11,1.73c-0.97,1.7-1.89,3.39-2.76,5.07c1.93,0.15,1.81,1.09-0.12,1.64  c-0.99,1.68-1.88,3.39-2.68,5.11c0.84,0.26,0.8,0.54-0.06,0.83l-0.92,0.98c2.7,0.53,2.48,2.05-0.18,2.68  c-1.01,1.64-1.87,3.36-2.59,5.17c1.72,0.81,3.12,0.62,4.31-1.25c15.26-9.41,31.2-17.15,47.84-23.22l3.21,0.11  c2.45-0.75,4.78,0.42,6.98,3.49c3.07,3.04,9.02,9.92,6.42,13.8c0.07,1.09,0.08,2.31-0.57,3.25c-5.44,7.82-29.82,16.9-39.04,14.53  c-1.11-0.28-1.9-1.22-2.56-2.09c-0.92,0.92-1.91,1.47-2.97,1.66l-23.5-2.13c-50.81,38.08-85.19,99.17-92.04,163.1l-2.45,5.27  l-1.34,1.74c-4.64-0.44-9.18-1.27-13.64-2.48c-3.6-8.65-9.7-15.27-18.39-18.93l-1.07-2.52l-1.93-0.65l-1.99-209.81  c19.59-43.01,35.89-87.15,48.9-132.42c-11.65,32.74-26.4,63.85-44.26,93.31c-1.84,2.65-3.08,2.34-5.11,0.63l-1.24-222.23l1.91-1.19  l1.09-2.78c7.08-5.05,13.7-10.7,19.88-16.96c21.09,10.83,42.73,9.17,63.31-1.86c24.74-13.25,33.81-35.12,36.83-62.05  c58.33-18.93,75.53-89.76,26.74-129.61l-1.26-3.5l1.28-3.92c17.69-17.77,28.4-41.33,30.17-66.33l2.11-3.5L628.84,128.99z" />
<path class="cls-2" d="M553.84,128.99c-1.03,27.93-12.93,54.39-33.56,73.75c-0.65,3.49-3.17,6.38-7.57,8.67  c-5.22,3.87-22.51,14.65-28.19,15.18c-1.06,0.1-2.04-0.45-2.9-1.03c-0.41,0.64-0.85,1.26-1.38,1.78c-0.5,0.49-1,0.93-1.59,1.14  c-19.13,6.83-47.7,3.98-66.09-3.68c-15.35,41.16-53.84,66.48-97.8,64.42c-8.68-0.41-36.4-4.42-41.58-9.89  c-0.55-0.58-1.01-1.26-1.44-1.96l-2.05,1.16c-4.75-3.84-9.65-7.39-14.69-10.66l-0.6-2.16l2.58-91.86c0.12-4.41-2.92-8.84-7.35-7.87  L236.9,302.38c-1.95,4.35-7.41,9.23-12.27,8.86c-0.2,0.73-0.43,1.45-0.78,2.11c-3.86,7.24-30.37,14.38-39.11,15.4  c-8.94,1.04-37.77-0.01-43.31-6.22c-0.49-0.55-0.89-1.19-1.25-1.85l-1.98-191.54L553.84,128.99z" />
<path class="cls-2" d="M942.51,129.07l1.93,0.63c1.39,70.94,2.78,141.89,4.17,212.86l-1.9,1.22l1.94,2c0.3,8.34,0.56,16.69,0.78,25.03  l-1.88,1.46l0.04,4.23l1.94,1.08c0.26,12.47,0.53,24.94,0.79,37.42l-1.89,1.44c-0.2,1.85,0.03,3.61,0.69,5.27l1.93,0.85  c0,0,0.16,15.86,0.48,47.57l-1.91,1.15l1.96,1.46c3.11,111.57,6.21,223.15,9.31,334.75l-1.86,1.92l1.95,0.82  c0.79,21.77,1.58,43.55,2.37,65.34l-1.83,2.61l1.96,0.8l3.24,75l10.28,54.24l-1.67,1.5c0.15,3.37-7.24,2.5-9.95,1.67  c-5.96-26.08-15.89-50.99-34.15-71.04c7.45,19.92,12.67,40.37,15.68,61.36c1.56,6.39-0.06,9.33-4.85,8.8  c-15.29,1.22-30.41,3.65-45.39,7.29l-3.69-1.33l-1.41-6.31c0.86-19.61,1.5-39.2,1.91-58.76l1.06-3.09  c-3.03-1.76-3.38-11.93,0.25-13.09c-0.38-2.78-0.91-6.75,0.73-8.98l-1.92-0.89c0.04-20.35,0.08-40.7,0.12-61.06l1.92-1.14  l-1.91-0.94l3.38-310.7c-5.12-7.45-9.95-15.14-14.38-23.03c-8.33-14.83-16.63-29.67-24.7-44.64c-0.53-0.99-0.82-2.11-1.1-3.26  c-0.28-1.17-0.44-2.36-0.55-3.57c-0.72,0.22-1.82,0.46-2.1-0.01c-3.8-6.4-8.24-17.64-8.84-24.95c-0.87-0.76-1.71-1.54-2.45-2.42  c-4.79-5.66-13.99-30.24-16.18-38.55c-0.84-3.2-1.06-6.45-1.25-9.75c-0.92-1.26-1.81-2.53-2.57-3.88c-0.76-1.33-1.48-2.67-1.95-4.08  c-8.57-26.27-16.38-55.33-21-82.55c-0.25-1.47-0.23-2.99-0.18-4.52c0.05-1.55,0.25-3.09,0.49-4.63c-0.94-0.25-0.92-1.29-0.85-2.18  c-2.73,0.32-2.71-1.86-0.12-2.61c-0.53-1.03-1-2.13-1.4-3.31c-2.86-0.9-4.06-6.78-1.75-8.71l-2.74-6.55l-10.9-88.54  c0.39-4.91,2.71-9.33,7.99-6.37c4.05,28.46,9.08,56.73,15.08,84.82c3.11,10.4,5.01,20.87,5.7,31.4c0.83,0.71,1.17,1.05,0.08,1.62  c0.51,1.05,0.96,2.16,1.37,3.34c2.56,0.37,2.42,1.29,0.16,2.51c0.03,1.15,0.16,1.41,0.97,2.2c1.52,2.42,3.02,4.91,3.81,7.68  c13.97,48.77,27.98,96.33,53.73,140.63c4.81,7.18,8.48,14.72,11,22.61l2.71,0.77c3.47,6.89,7.5,13.42,12.11,19.57  c-0.27-8.1-0.41-16.16-0.25-24.26c0.01-0.49,0.36-0.99,0.75-1.53c0.39-0.54,0.89-1.01,1.42-1.45c-2.5-0.56-2.31-1.4,0.19-1.85  c-0.69-0.51-0.6-1.57,0.04-2.09l-1.92-0.68c0.12-46.62,0.24-93.25,0.36-139.89l1.92-1.18c1.35-2.97,0.92-6.15-0.01-9.15  c-2.55-0.4-2.79-2.68-0.28-3.63c-0.76-5.13-1.43-10.29-1.38-15.48c0.51-54.17,1.18-108.4,1.88-162.54l1.34-7.74L942.51,129.07z" />
<path class="cls-6" d="M901.39,129.08c-0.57,61.94,0.59,124.09-1.84,185.76c-0.64,0.6-1.31,1.17-2.04,1.62  c-0.72,0.44-1.41,0.85-2.13,0.95c-26.32,3.77-57.85-0.25-80.98-13.97c0,0-1.01-1.28-3.02-3.83c-10-37.67-17.23-76.06-22.11-115.36  c-3.29-0.99-5.07,2.99-4.69,6.08l11.68,94.51l-4.05-2.33l-12.08-14.92c-20.47,3.64-49.9,5.92-69.11-3.31  c-0.52-0.25-0.93-0.71-1.33-1.23c-0.43-0.56-0.76-1.19-1.06-1.85c-52.63-23.31-85.41-74.41-79.78-132.22L901.39,129.08z" />
<path class="cls-6" d="M1045.26,129.11l-1.07,112.57c-0.58,14.5-0.84,29.03-0.79,43.58l-0.74,62.11l-0.12,9.16l-1.05,0.61  c-0.34,0.63-0.7,1.24-1.17,1.76c-2.69,3.03-26.65,6.65-32.39,7.16l-3.57-1.35c-7.27-23.49-8.79-47.99-12.95-72.63  c-1.63-9.69-0.08-20.5-8.18-28.14c-0.36,33.32,4.54,64.83,7.62,96.23c0.46,2.77-2.73,3.18-3.79,0.63c-0.6,2.53-0.98,2.35-1.85-0.12  l-2.38-1.37l-2.28,1.77c-11.62-2.66-22.57-7.56-32.85-14.71l-0.97-2.57l-4.21-214.71L1045.26,129.11z" />
<path class="cls-13" d="M820.5,1301.51l1.92,0.67l0.22,146.79c7.87-3.04,15.77-5.87,23.72-8.5l-0.24-93.41l1.92-1.18  c2.11-1.24,3-0.3,3.69,1.81c0.77,10.33,4.67,12.46,14.12,14.01c9.57,1.57,19.65,1.39,25.77-7.3c4.18-0.52,5.51,2.63,3.98,9.46  l1.05,2.22l0.98,1.11c-0.36,13.18-0.13,26.31,0.71,39.4c2.69,4.94,2.58,13.26,1.78,19.02c-0.22,1.57-1.2,2.9-2.17,4.11  c-0.45,2.27-0.28,3.8,0.49,4.58c0.78-3.67,8.27-2.15,10.48-0.03c2.62,0.5,5,0.26,7.15-0.72l1.1-1.91c4.22,0.06,8.45,0.11,12.67,0.17  l1.31,1.94c3.07,0.32,4.88,3.04,2.01,4.92c-0.48,0.58-0.98,1.14-1.56,1.59c-4.23,3.3-25.83,2.84-32.06,1.67  c1.02,8.72,1.28,19.33,0.7,28.26l-1.71,3.66c2.84,0.99,2.9,4.24,0.1,5.38l1.91,0.67c-0.15,12.55-0.3,25.1-0.45,37.66l-1.93,1.11  l-0.96,2.72c-9.55,7.85-17.02,17.74-22.41,29.67c-5.04,0.43-10.12-0.12-15.23-1.65l-1.14-2.04c-1.04-0.52-2.13-1.02-3.28-1.5  c-0.45,3.46-6.48,2.19-6.58-1.17c-0.75-0.08-1.87-0.31-1.93-0.84c-0.38-3.77-0.86-22.91-0.17-25.71l1.91-1.39  c-2.71-1.16-2.7-3.56,0.01-4.72l-1.91-0.68l0.4-37.1c0.73-2.06,1.57-3.26,3.96-2.66c5.2,1.11,36.71,6.32,37.9,4.44  c0.1-0.16-0.12-2.36-0.46-2.69c-13.66-1.22-27.22-2.88-40.69-4.98c-1.8-5.64-2.41-11.7-1.83-18.16c-0.96-0.57-19.94,3.57-20.3,7.7  c0.12,3.71-0.97,6.38-3.28,8.01c-0.25,14.07-0.56,28.09-0.93,42.08l-1.26,2.79l-0.86,1.93c-51.3,0.82-102.71,0.98-154.23,0.5  c-2.95,0.78-2.7,2.26-0.14,3.5l154-0.78l1.19,1.91c0.75,0.09,1.87,0.34,1.92,0.88c0.46,5.59,0.44,15.84-0.09,21.38  c0.58,2.95-0.07,4.81-1.94,5.59l-2.93,2.98c-43.43,12.19-64.69,47.31-54.64,91.56c0.77,3.16-1.28,3.61-4.27,4.08  c-22.79,2.21-45.79,9.1-61.8,26.24l-3.18,1.13l-173.65,0.03l-3.3-1.62c-21.48-32.4-61.19-44.26-98.07-34.38  c-9.33-16.24-20.84-30.95-38.51-38.38l-1.98-2.88c-2.55,0.08-3.03-0.87-1.12-2.71l-1.91-1.19c0.16-33.59,0.33-67.19,0.49-100.78  l1.93-1.17l1.03-0.27c0.94,0.36,1.76,0.79,2.47,1.28l8.23,1.45l2.38,1.37l14.9,2.47l2.36,1.39l13.02,1.46  c1.11,0.97,2.5,1.25,4.17,0.85c1.22,0.11,3.4,0.81,4.64,0.66c0.71,0.67,1.42,0.74,2.14,0.23c3.67,0.75,7.42,0.96,11.15,1.06  c1.15,0.81,1.36,0.81,3.22,0.76c2.43-0.01,4.87,0.46,7.3,0.32c1.82,0.49,3.58,0.95,5.26,1.36l33.18,1.41c3.01,1,6.32,1.3,9.92,0.91  l54.36-0.03c5.08,0.38,9.99,0.08,14.74-0.9l32.23-1.4c1.74-0.36,3.49-0.81,5.27-1.36l6.3-0.23c1.32,0.15,2.41-0.13,3.26-0.84  c3.71-0.26,7.54-0.11,11.18-1.03c0.92,0.44,1.35,0.35,2.11-0.26c1.66,0.41,3.83-1.28,5.56-0.71c1.24,0.17,2.32-0.1,3.25-0.8  l13.98-1.47c1.12-0.5,2.22-0.98,3.31-1.42c27.48-4.95,101.33-20.58,109.33-51.92c0.8-0.85,1.1-1.93,0.9-3.23l-0.12-4.53  c-2.55-2.85-2.25-6.72,0.9-11.62l-1.73-1.9c0.52-5.94-0.06-12.26-3.16-17.48c-4.9-8.26-19.13-16.06-27.66-20.69  c-4.58-1.43-8.12-3.61-10.62-6.53c-3.91-1.89-2.12-3.69,1.25-5.12c5.99-0.98,12.03-1.09,18.13-0.34  c19.31,2.99,38.91,3.77,58.78,2.37c4.18-2.31,8.49-4.08,12.94-5.3c0.23-17.5,0.29-35.01,0.2-52.53  C816.49,1310.22,817.67,1305.36,820.5,1301.51z" />
<path class="cls-9" d="M1034.73,1233.74l1.36,4.2c1.74,30.89,3.48,62.12,2.66,93.12c-0.04,1.4-0.38,2.79-0.75,4.2  c-0.37,1.42-0.88,2.8-1.42,4.17l-2.57,1.31c-8.8-3.64-17.27-8.02-25.41-13.15l-1.14,0.42l-0.74,13.32  c-1.21,1.99-1.95,4.57-2.23,7.73c3.24,5.64,3.17,14.9,0,20.58c0.77,11.34,0.97,22.7,0.59,34.08c3.36,0.35,3.42,9.82,0.01,10.12  l0.15,15.72c2.82,0.41,2.94,3.06,0.12,3.85c1.89,1.74,2.46,6.44-0.28,7.46l1.85,2.36l-1.08,17.52c-0.88,5.25,0.51,8.42,4.19,9.51  l0.59,2.06c3.68-0.42,7.35-0.87,11.01-1.37l1.51-1.72c0.66-0.22,13.08-2.23,13.78-2.14c1.12,0.14,1.65,0.41,2.08,1.77l1.61-1.99  c5.76,0.08,38.09-5.69,39.09-10.24c0.95-4.34-34.94-12.02-39.94-11.83l-0.98-1.99c-0.84,0.12-0.84-0.12-0.1-0.68  c-2.68-0.73-2.39-2.69,0.3-3.15c0.16-0.83,0.61-1.85,1.32-1.81c10.79,0.47,38.68,5,46.14,12.23c2.46,2.39,3.28,3.59,3.73,7.23  c1.68,13.9-38.61,19.76-48.52,20.81l2.83,192.74l-1.9,1.22l-92.1,0.35l-1.91-0.72l3.85-188.61l-52.7-1.26l-1.1-1.95  c0.02-1.74,0.03-3.66-0.1-5.38l2.51-1.27c16.58-0.09,33.22-0.3,49.9-0.61l5.09,1.5l2-2.07c7.7,0.41,15.39,0.49,23.05,0.24l0.2-31.31  l1.93-1.39l-0.72-1.12c1.07-1.33,1.55-2.9,1.45-4.71l-1.92-0.66c-0.09-32.63-0.19-65.28-0.28-97.92l1.92-1.18l-1.91-3.32  c0.6-12.04,0.16-24.03-1.32-35.95c-5.01-3.52-10.26-6.68-15.76-9.48c-0.22,2.81-1.34,3.82-3.36,3.03l-1.66-3.29  c0.45-23.11,2.54-50.84,6.6-73.55c1.09-6.08,5.21-27.28,8.36-30.85c1.58-1.79,2.61-1.59,4.36-0.2l0.12,78.53l3.27-9.58  c4.45-22.19,7.4-44.63,8.87-67.32c1.19-5.45,2.49-5.48,5.04-0.69c0,0,1.04,6.88,3.11,20.63c0.7,22.29,3.64,44.06,8.82,65.32  c1.79-27.08,2.07-54.01,0.83-80.81c-0.14-3.05,1.13-16.18,4.88-15.61c0.57,0.09,1.06,0.7,1.53,1.47  c2.31,12.61,6.09,24.49,11.36,35.65l3.99,15.96C1032.49,1226.77,1033.8,1230.25,1034.73,1233.74z" />
<path class="cls-4" d="M1089.63,1207.01c1.35,3.02,0.93,6.4-1.26,10.15c-10.49,21.83-20.05,43.99-28.67,66.47l7.82-9.05  c11.82-17.85,22.81-36.25,32.97-55.17c0,0,1.18-0.65,3.55-1.95c1.24,2.63,1.86,3.95,1.86,3.95l-0.68,24.55l4.88-38.33l1.11-2.18  c2.56-1.52,16.8-1.85,18.78,1.53c0.71,0.32,1.77,0.81,1.72,1.39c-0.46,6.01-2.1,16.27-3.52,22.13l-2.11,1.06  c2.43,1.5,1.29,4.18-1.21,4.71c-0.35,1.22-0.86,2.31-1.54,3.27c1.46,2.79,1.29,5.97-0.5,9.54c-5.95,14.31-11.7,28.69-17.24,43.13  c-4.09,21.39-5.36,43.22-3.82,65.48c0.75,6.11-0.1,11.43-2.56,15.94l0.94,4.36c-0.59,31.45-1.37,62.89-2.34,94.3l-1.36,4.27  l1.88,1.88c-1.38,64.06-2.77,128.11-4.15,192.15l-1.95,1.14c-16.54,0.11-33.16,0.89-49.66-0.3l-2.87-195.77  c11.43-1.34,48.07-5.79,48.55-18.98c0.46-12.52-40.04-16.92-49.27-17.66c-2.74,0.54-2.88-1.67-0.45-2.75  c-1.7-2.74-2.54-4.11-2.54-4.11c-1.43-26.86-1.8-53.78-1.12-80.74l1.64-4.54c-2.99-1.17-2.87-6.25,0.06-7.43  c1.35-35.05-1.22-70.46-1.85-105.7l-1.12-3.05c0.61-7.24,0.14-14.46-1.4-21.67l1.68-2.1l0.88-1.92c17.9,0.03,35.8,0.05,53.72,0.08  L1089.63,1207.01z" />
<path class="cls-9" d="M898.15,1518.67l1.93,0.65c0.49,50.4,0.97,100.82,1.46,151.24l-1.91,1.2l-206.62-0.04  c15.57-19.69,42.36-27.53,67.78-29.55c-10.19-53.38,11.15-81.34,59.02-96.44c0.61-0.49,1.23-0.95,1.91-1.3  c2.19-1.11,18.84-1.41,22.85-1.26c1.45,0.05,2.76,0.8,3.97,1.54c1.87,0.58,4.38,1.65,6.58,1.17c1.25,0.42,2.34,0.92,3.28,1.5  c4.87,0.3,9.46,2.5,15.41,2.25C879.95,1537.39,886.46,1525.22,898.15,1518.67z" />
<path class="cls-7" d="M1138.4,1206.85c0.09,35.91,4.23,71.27,11.33,106.54l6.75-90.56c6.69,31.33,8.83,62.44,20.57,90.43  c-6.46,24.4-3.4,51.13-3.73,76.84l-0.47,37.19c-1.65,2.42-1.19,5.39-0.62,8.08l-0.47,29.63l-0.47,206.73l-34.64-0.31  c-0.93-7.51-1.86-15.04-1.92-22.61c-0.39-48.96-0.66-97.97-0.8-146.93c-0.02-7.55,0.68-15.08,1.48-22.58l-1.4-5.97  c-1.12-32.09-1.16-64.2-0.1-96.33l1.17-6.04l-1.93-0.63c-0.61-45.25-1.72-90.38-3.34-135.4c-1.67-0.91-2.91-2.04-3.74-3.38  l3.91-24.58C1131.4,1204.43,1137.03,1204.19,1138.4,1206.85z" />
<path class="cls-9" d="M340.94,1582.83c1.25,2.53,1.88,3.79,1.88,3.79c-0.42,12.82-0.61,25.6,0.24,38.4  c0.77,11.58,2.78,14.43,14.44,15.27c13,0.94,16.23-3.24,17.26-15.9l-0.12-19.77c-0.65-4.8,0.3-8.18,2.86-10.13  c18.04,6.84,32.4,21.52,41.14,39.76c38.59-11.68,80.3,3.94,100.73,37.49l-242.04-0.01l-1.9-0.94c0.65-25.33,1.31-50.68,1.96-76.03  l1.95-1.11c1.63-2.52,4.45,0.56,5.17,2.57c12.43-10.79,37.1-16.88,53.53-15.3L340.94,1582.83z" />
<path class="cls-7" d="M279.47,1464.03c0.48,1.37,0.92,2.75,1.23,4.16c0.3,1.4,0.58,2.78,0.57,4.15c-0.2,22.02-0.65,44.17-1.22,66.19  c-0.07,2.82-0.91,5.56-1.77,8.23l-1.95,2.05c-12.18-1.03-23.88-0.63-35.11,1.22c10.36,0.55,20.76,0.3,31.2-0.77  c3.26-0.35,5.26,0.57,6.01,2.76l1.93,0.61c0.29,13.28,0.59,26.55,0.88,39.84l-1.89,1.18l-2.01,78.08l-55.55,0.01l-1.93-0.64  c-0.48-38.58-0.95-77.16-1.43-115.76l1.91-1.2l-1.93-0.63c-0.49-29.69-0.99-59.39-1.48-89.09l1.9-1.19L279.47,1464.03z" />
<path class="cls-9" d="M165.29,1517.51l2.8-0.49c5.04,2.34,13.62,7.93,14.98,13.26c0.83,0.15,1.64,0.33,2.4,0.64  c0.74,0.3,1.45,0.6,1.92,1.11c6.23,6.71,11.99,13.96,17.3,21.41c4.38-0.73,9.11-1.11,14.19-1.14l1.46,1.85l1.45,117.6l-79.92-0.02  l2.32-160.83l2.09-1.76c3.56,0.04,14.89,2.97,17.32,5.16C164.65,1515.25,164.98,1516,165.29,1517.51z" />
<polygon class="cls-7" points="950.48,1671.77 899.63,1671.76 898.15,1518.67 898.62,1479.23 954.59,1480.57 " />
<path class="cls-9" d="M1135.42,1479.3c1.44,63.85,1.21,128.07,1.24,192.12l-44.42,0.3l4.21-195.18c2.03-1.72,3.77-0.78,5.82,0.4  c10.91,7.23,16.36,10.85,16.36,10.85s3.75-2.87,11.25-8.61C1132.36,1477.48,1134.2,1477.51,1135.42,1479.3z" />
<path class="cls-5" d="M271.74,277.36c2.25,4.58,3.12,9.64,2.62,15.19c-0.38,31.97,0.34,63.78,1.64,95.69  c0.09,2.13-0.58,4.2-1.26,6.19l1.46,4.38c-0.45,15.49-0.6,30.93-0.45,46.31l-1.25,2.14l1.94,1.49  c1.38,125.56,2.76,251.11,4.14,376.68l-1.91,1.22l1.75,0.86c0.54,23.81,0.93,47.67,1.16,71.55l-1.9,1.18c0.47,3,0.91,6.05,1.32,9.13  c2.62,0.78,3.07,5.79,0.25,6.56l1.92,0.89c0.01,17.76,0.01,35.52,0.02,53.29l-1.92,1.16c-18.87,2.8-50.97,12.19-68.33,13.34  l-0.86-3.54c1.4-26.29,2.52-52.58,3.37-78.87l1.33-3.41l-1.88-2.59c0.39-25.02,0.78-50.04,1.16-75.04l1.94-1.14l-1.87-2.27  c2.9-119.15,5.09-237.75,6.59-355.8c0.65-2.96,1.32-5.89,2.02-8.8c-0.59-0.23-0.6-0.55-0.08-0.96  c14.12-61.79,22.65-123.68,29.76-186.46C261.28,267.26,265.12,274.64,271.74,277.36z" />
<path class="cls-15" d="M217.99,820l-2.69,0.72c-9.25-6.93-19.18-11.7-29.78-14.28l-1.87-2.08l-1.93-0.9  c-0.69-79.71-1.39-159.54-2.08-239.49l1.86-7.15c16.28-30.26,30.4-62.5,39.46-95.83c0.61-0.61,0.96-1.31,1.06-2.1  c-0.04-0.55,0.11-1.14,0.04-1.69c0.39-0.9,0.86-1.69,1.39-2.36c0.07-0.55,0.02-1.18,0.17-1.71c0.38-0.38,0.74-0.41,1.12,0  l-1.15,99.01L217.99,820z" />
<path class="cls-15" d="M57.38,406.1L48.9,695.13c-0.32,0.68-0.89,1.67-1.41,1.55c-1.82-0.42-17.12-5.38-17.86-5.97  c-0.83-0.67-1.04-1.23-1.27-2.45l-1.92-0.66c-0.9-100.16-1.11-200-0.61-299.51l1.92-1.16C36.17,395.86,45.09,403.95,57.38,406.1z" />
<path class="cls-8" d="M163.22,841.86c0.66,0.14,1.31,0.32,1.9,0.61c5.65,2.76,11.47,28.63,12.55,35.74c3.2,0.39,5.1,1.43,5.69,3.1  l2.09-1.3c5.71,1.87,26.95,11.99,30.34,15.75l0.99,3c-0.44,28.58-0.23,57.51-3.84,85.83c-0.43,0.03-1.39,0.01-1.69,0.33l-2.4,0.43  c-6.53-3.37-13.18-6.56-19.94-9.58l-0.11-2.5c3.54-11.44,9.83-21.49,14.7-33.27c-19.17,12.28-28.84,31.3-38.21,50.11  c4.41-29.38,6.57-52.46,24.97-75.17c-21.28,6.44-31.14,23.87-41.07,42.16l-4.93-138.26c1.86-3.62,4.04,0.34,3.12,3.23l8.12,7.36  C159.85,832.92,162.42,837.06,163.22,841.86z" />
<path class="cls-11" d="M183.64,804.35l1.92,0.67c-0.1,25.04-0.19,50.09-0.29,75.14l-1.92,1.15c-1.93-0.65-6.9,0.25-7.59-2.87  c-2.22-13-5.46-25.69-12.54-36.58l-1.45-4.7c0.53-16.92,0.88-33.8,1.06-50.62l1.29-2.31l-1.91-0.69l1.43-181.48  c0,0-0.06-3.91-0.19-11.73l18.04-33.53L183.64,804.35z" />
<path class="cls-12" d="M223.51,383.11c-0.2,1.15-0.15,2.37-0.12,3.53l-1.35,2.39c-1.09,13.3-5.5,26.2-8.94,38.97  c-3.94-0.91-5.91-1.36-5.91-1.36c-7.3,3.82-14.79,6.54-22.46,8.17l-1.36-1.91l-1.99-0.99l-2.31-34.28  c-0.96-2.04-8.34-2.77-9.62-1.96c-4.78,3.02-3.29,27.24-2.78,33.19l-1.81,1.38c-1.74,2.4-4.73,2.46-8.96,0.17l-14.32-8.31  l-1.17-2.59l-0.24-88.29c0.17-0.74,0.52-1.82,1.05-1.82c2.5,0.02,20.65,1.97,21.37,2.83c8.71,26.1,30.94,45.41,58.45,48.7  L223.51,383.11z" />
<path class="cls-15" d="M164.11,784.23c-0.44,0.71-0.96,1.49-1.76,1.73c-0.83,0.26-15.53-3.98-16.72-4.53l-1.39-1.91l-0.34-18.08  c0.24-1.21,0.05-2.31-0.56-3.29l-1.66-123.59l21.76-44.23c4.11,1.81,2.14,7.04,2.11,11.77L164.11,784.23z" />
<path class="cls-6" d="M228.32,358.12c0.55,8.31-3.41,16.88-4.8,24.99c-28.27-2.17-53.87-22.08-62.1-49.65l-21.23-2.23l-0.01-10.56  c28.68,11.27,59.17,8.57,84.46-9.43c2.52,0.21,3.68,2.63,3.46,7.26L228.32,358.12z" />
<path class="cls-15" d="M164.86,430.26c2.59,5.59,3.56,11.84,2.9,18.76c-0.69,24.23-0.72,48.44-0.09,72.64l-1.45,5.51  c-3.62,12.41-14.61,22.4-23.11,32.49c-0.21,1.35-0.85,1.36-1.35,0.03l-0.6-67.96c0.51-3.67,0.9-7.56-0.69-11.02l-0.06-61.17  C148.97,422.79,155.47,430.87,164.86,430.26z" />
<path class="cls-11" d="M183.36,432.91c2.28,4.07,3.05,8.78,2.32,14.13c-0.61,15.75-0.95,31.5-1.02,47.25l-1.56,7.02  c-4.76,9.01-9.55,19.12-16.87,25.84c-3.19-32.18,1.65-64.77-1.36-96.9c-0.53-5.69-2.82-35.47,4.6-36.54  c3.06-0.44,11.25-0.14,11.53,4L183.36,432.91z" />
<path class="cls-12" d="M48.9,695.13l-1.21,38.05c-0.64,1.3-0.87,2.73-0.71,4.29l-0.83,23.64c0.04,0.88-0.01,1.96-0.14,3.24  c0.37,1.23-0.77,2.57-0.79,3.68c-5.7-4.15-9.72-10.57-16.49-13.5l-1.79-1.45c-0.28-21.2-0.44-42.42-0.49-63.65l1.91-1.17  L48.9,695.13z" />
<path class="cls-15" d="M213.1,428.01c-6.88,25.53-17.66,49.91-30.01,73.31c-1.63-22.33,1.79-45.8,0.27-68.41  C197.13,433.25,207.5,418.12,213.1,428.01z" />
<path class="cls-12" d="M164.11,784.23c-0.15,19.26,1.3,38.81-0.89,57.64c-4.64-7.13-11.04-13.33-17.64-18.84  c-0.45-0.38,0.33-2.9,0.07-3.36c-0.26-0.44-0.26-1.2-1.4-0.81l0-39.33C151.2,779.17,157.17,783.74,164.11,784.23z" />
<path class="cls-5" d="M236.9,302.38c-1.75,18.72-3.64,37.85-8.59,55.74c-5.12-8.54,0.66-37.75-3.68-46.87  C228.72,308.34,232.62,305.06,236.9,302.38z" />
<path class="cls-3" d="M188.78,973.28c6.49,5.4,16.08,5.49,22.45,11.65c-6.97,7.53-20.32,5.06-29.75,8.7  C184.92,987.23,186.67,980.12,188.78,973.28z" />
<path class="cls-12" d="M141.17,491.72c-0.03-3.49-0.69-7.14-0.69-11.02C143.56,482.81,142.33,488.55,141.17,491.72z" />
<path class="cls-2" d="M41.44,870.9c-0.13-3.11,0.13-5.23,0.75-8.06C43.56,864.97,44.63,870.2,41.44,870.9z" />
<path class="cls-2" d="M43.83,842.6c-0.05,2.42,1.78,6.57-1.32,7.22C42.8,847.42,40.64,843.37,43.83,842.6z" />
<path class="cls-2" d="M40.01,907.9c0.11,0.85,0.54,2.21,0.25,3.39c-0.14,0.56-0.79,1.36-1.76,0.86  C38.75,910.72,37.55,907.69,40.01,907.9z" />
<path class="cls-8" d="M47.69,733.18c-0.04,1.38,1,3.54-0.71,4.29c0.03-0.76-1.32-1.55-1.02-2.54  C46.22,734.11,46.42,732.6,47.69,733.18z" />
<path class="cls-14" d="M733.46,1021.33l-0.28,2.25c-4.91,4.62-9.37,9.8-13.37,15.54c-22.79,4.93-37.75,20.13-44.45,41.9l111.68,0.06  l1.18,1.92c2.64,1.09,2.02,2.85-0.85,2.89c-6.37,10.86-17.09,21.16-18.37,33.58l2.63,1.58c4.93,11.74,14.55,20.53,24.46,28.15  l0.8,3.02c2.75,2.7,4.06,4.09-0.22,5.98c-27.85-0.37-55.71,0.66-83.57,3.08c-3.07,0.33-17.76,3.37-18.28,6.49  c-0.41,2.45,20.78,7.03,23.58,7.15l0.44,1.32c0.69,0.55,1.45,0.76,2.29,0.63l3.72-0.8c29.69,2.27,59.41,3.21,89.14,2.84l3.63,1.16  c2.91,1.27,3.78,6.29,1.19,8.25l0.13,3.24c0.76,0.07,1.91,0.34,1.93,0.87c0.87,21.59,1.15,45.09,0.8,66.7l-1.91,1.18  c-0.14,11.7,0.1,23.36,0.73,34.99c2.89-0.4,2.77,5.79-0.01,6.23c-3.96,21.79-0.16,44.73-1.89,69.25  c-5.32-1.41-10.46,4.83-15.25,5.18c-10.37,0.77-20.72,1.3-30.87,0.67c-5.22-0.32-52.77-8.12-46.83,0.44l-3.77,0.17  c-59.91-16.77-122.08-23.96-184.22-23.47l-3.58-1.15c-1.84-1.69-1.39-4.23,1.35-7.62c-1.48-1.07-2.12-2.87-1.93-5.4  c-4.73-16.09-34.01-21.95-48.54-24.79c-17.15-3.35-34.71-4.75-51.94-6.1l-0.89-2c-1.65,0.65-3.52,0.58-5.09-0.2l-0.91,1.91  c-15.95-0.24-31.91-0.48-47.87-0.73l-1.11-1.94l-1.92-0.67l0.34-109.97c0.5-1.84,0.94-3.18,3.19-3.39  c34.55-7.07,67.24-20.79,89.21-49.57c5.13-0.59,5.8-1.27,1.99-2.01c0.95-5.13,3.02-10.12,6.2-14.96c0.85-3.59,2.36-6.12,4.53-7.6  l-2.19-1.43c-2.12-6.99-5.58-13.39-10.38-19.22l0.49-2.62c-3.55-0.46-7.19-6.32-5.96-9.55c-0.02-0.75,0.16-1.91,0.62-1.93  c29.85-1.24,61.94-1.34,91.04-1.32c3.66-8.43,6.63-17.08,8.92-25.97c0.32-4.71,1.68-8.66,4.07-11.83c1.09-1.37,2.96-2.02,5.6-1.96  c20.49-13,51.24-15.48,66.31,6.54c5.85-2.7,12.42-3.56,19.7-2.56c0.7-22.45,24.73-35.3,44.83-33.86c0.23-0.71,0.74-1.74,1.2-1.63  c6.86,1.7,20.68,5.68,26.76,8.55C733.2,1018.92,733.41,1019.82,733.46,1021.33z" />
<path class="cls-7" d="M1011.31,1123.18c-2.34,9.31,14.77,21.02,14.89,35.32c0.01,0.75-0.19,1.91-0.66,1.92  c-43.32,0.83-88.06,0.69-131.24-1.01c-0.91-0.2-10.23,0.73-9.74,0.75c43.5,2.02,87.11,2.31,130.65,1.59  c4.01,0.02,7.97,0.84,11.88,1.68c0.51-0.01,0.98,0.02,1.33,0.25c1.38,0.9,5.27,28.68,5.51,32.4c1.04,2.87,0.69,4.84-1.06,5.9  c0.01,1.58-1.31,2.37-3.95,2.39c2.82,0.06,4.48,0.91,4.97,2.55c0.99,8.93,3.59,18.21,0.84,26.82c-7.93-6.88-6.48-20.39-11.53-30.04  c-5.3-10.14-6.93-20.4-9.6-32.59c-4.18,10.93-2.24,21.67-2.16,32.79c0.16,23.78,1.08,46.73-2.31,70.95  c-12.42-28.72-8.01-67.32-15.49-96.97c-4.44,31.07-2.76,61.78-16.45,90.57l-0.13-89.37c-13.38,31.17-13.14,78.23-15.75,108.55  l1.89,1.17c-0.31,11.21-0.62,22.43-0.94,33.65l-1.96,1.35l1.9,0.93c-0.51,20.68-1.03,41.36-1.54,62.06l-1.95,1.09  c-0.44,3.38-0.88,6.75-1.3,10.12c0.75,0.2,1.86,0.54,1.91,1.13c0.58,6.97,0.79,25.15-0.22,31.68l-1.93,1.38  c-0.05,0.75-0.18,1.81-0.75,1.97c-1.51,0.42-22.01,1.74-23.12,1.39l-2.16-1.79l-15.09-0.2c-2.11,1.05-4.5,1.29-7.15,0.72  c-2.9,1.32-7.55-1.05-10.48,0.03c-1.33-0.16-1.49-1.69-0.49-4.58c0.58-7.68,0.42-15.42,0.39-23.13c-0.76-16.73-1.03-33.49-0.8-50.28  c-0.76-0.19-1.9-0.51-1.94-1.09c-0.74-10-0.96-23.03-0.58-33.04c-0.71-3.49-0.11-5.78,1.8-6.87c0.15-9.44-0.17-18.82-0.94-28.15  c-2.9-1.38-3.08-5.97-0.19-7.38c-2.89-1.22-3.11-5.97,0.13-6.69c-0.66-0.73-0.7-2.29-0.03-3.17l-1.93-1.06  c-0.06-5.48-0.12-10.97-0.18-16.46l1.9-1.37c-1.84-7.35-1.31-14.96-0.78-22.43c-0.75-0.08-1.86-0.29-1.93-0.84  c-0.6-4.45-0.94-20.93-0.31-25.16l1.9-1.41c-0.55-1.63-1.06-3.38-1.51-5.23l-2.33,1.01c-8.85-2.03-17.52-4.56-26.02-7.59l-0.57-2.6  l0.81-2.06c32.55-0.73,65.06-1.5,97.54-2.32c-37.55-0.64-75.43-0.77-113.66-0.38l-1.17-1.92c-1.5,0.21-3.09,0.37-4.54-0.16  c-4.09-1.48-18.64-7.56-20.62-9.73c-0.54-0.6-0.99-1.28-1.42-1.99c-0.81-0.45-1.72-1.09-2.18-1.82c-1.42,2.23-3.28,1.18-3.65-1.14  c-5.52-3.51-11.21-6.84-17.08-9.99c0,0-0.38-1.02-1.13-3.06c-11.5-8.6-23.31-19.16-27.9-32.74l238.82-0.13  c1.93,0,3.1,0.23,3.46,1.43C1011.5,1121.5,1011.5,1122.43,1011.31,1123.18z" />
<path class="cls-5" d="M1168.27,428.38l3.79,258.91l1.07,71.18l0.53,52.78l2.44,93.03c-9.81,26.31-13.51,54.01-21.19,82.4  c-2.35-14.85-1.58-28.94-2.24-42.77c-0.69-2.71-0.95-5.72-0.78-9.02c0.26-4.34-0.47-8.81-0.73-13.16c0.38-2.45-0.13-4.77-0.81-7.09  c0.84-1.63-0.55-4.66-0.2-6.33l-0.13-2.27l-0.13-7.33c-1.01-4.16-2.21-5.42-3.6-3.77c-6.77,41.72-9.2,83.72-10.22,125.76l-7.15-31.9  c0.23-13.97,0.79-27.97,1.69-41.99l2.1-155.45l1.94-1.14l-1.9-1.2c0.6-30.63,1.2-61.27,1.8-91.9l1.94-1.12  c-1.21-2.39-1.82-3.58-1.82-3.58c2.01-26.11,3.26-51.53-5.31-76.91c-8.46-26.25-15.12-52.9-19.99-79.97  c-0.09-3.17,1.06-3.47,3.69-2.79l22.95,55.62l1.55-158.12l1.93-1.16C1148.02,430.89,1159.69,429.36,1168.27,428.38z" />
<path class="cls-3" d="M975.33,1009.72c0.61-3.21,4.26-1.98,4.67,1.09l2.91-0.82c8.45,2.77,17.09,4.84,25.93,6.2l1.97,2.42  c1.69-1.91,3.1-1.42,3.73,0.9c1.85,0.37,3.85,1.43,6.01,3.16l9.61,2.83l0.96,2.58c15.77,9.06,29.85,20.11,38.07,37.52l-32.27,27.46  l-14.94-10.65c-26.57-18.93-35.5,19.46-80.94,5.05c-27.5-8.72-54.98-8.86-82.36-0.37c-14.66,4.54-28.68,3.21-43.74,1.65l-27.56-2.86  c0.51-0.86,0.64-1.93,0.85-2.89c2.24-3.92,3.37-5.88,3.37-5.88c15.34-15.24,31.98-28.73,49.91-40.44l3.42-0.79  c0.85-1.83,5.82-3.96,8-4.67c0.79-0.26,1.64-0.19,2.46-0.09c-0.15-2.57,4.65-4,6.99-3.85l0.94-2.11c1.56-0.82,21.06-7.67,22.15-7.27  c0.76,0.28,1.31,0.85,1.72,1.53c0.41-2,2.35-2.99,5.81-2.97c17.37-2.73,34.2-8.26,52.58-7.87c-1.69-27.04-10.54-50.18-18.9-75.79  c21.8,21.28,34.83,49.32,39.86,77.54L975.33,1009.72z" />
<path class="cls-15" d="M1139.49,429.09l-1.66,169.22l-26.88-65.66c4.41,37.16,18.72,69.29,25.49,104.8  c3.68,19.28,0.43,39.26,0.05,58.54l-1.93,2.07c-16.68,2.02-27.75,16.67-33.77,31.25l-2.55,1.24l-1.18-0.69  c0.69-3.59,0.53-6.95-0.48-10.08l-0.23-20.7c0.76-2.65,0.79-5.44-0.12-8.06c-3.1-92.65-2.84-185.5-4.71-278.14  C1106.86,420.95,1123.1,425.27,1139.49,429.09z" />
<path class="cls-15" d="M1023.36,459.84c2.49,11.87,11.27,21.22,17.51,32.72l-4.37,289.68l-1.06,2.45c-5.18,3.54-9.13,8.5-11.84,14.88  c-4.81,1.21-9.81,1.49-15.02,0.84l-1.45-1.83c-2.64-12.94-3.71-26.17-3.22-39.68c-0.86-78.58-1.46-157.25-1.81-236.01  c-0.65-17.17,0.41-34.08,3.17-50.7l0.75-2.27c6.36-1.67,10.84-4.8,13.46-9.4l1.97-0.69  C1021.39,458.36,1022.72,458.64,1023.36,459.84z" />
<path class="cls-11" d="M990.85,360.15c2.15,21.9,11,43.14,17.11,64.15c-0.4,0.45-0.34,0.75,0.18,0.91c0.02,0.25,0.14,0.58,0.06,0.82  c1.08,0.38,1.11,1.89-0.17,2.17l0.96,2.66c-2.58,12.7-3.16,25.76-1.74,39.19l-1.98,2.14c-2.17,53-1.3,106.44-0.48,160.17  c0.86,55.86-0.25,111.1,2.33,166.22l1.99,2.39c-0.5,8.06-0.59,16.11-0.28,24.14l-1.57,2.63l-0.42,2.76  c-6.84,7.79-13.45,15.81-19.81,24.07l-2.84,0l-1.93-0.87c-0.21-17.66-0.43-35.32-0.64-52.99l1.91-1.17l-1.49-17.88  c-2.1-89.48-1.93-179.07-0.83-268.58c0.07-5.96,0.47-11.92,0.87-17.88c0.4-5.96,0.95-11.91,1.54-17.86l-1.91-0.92  c0.51-34.5,1.04-69.23,1.59-104.2c-0.22-4.89,1.03-8.71,3.75-11.44L990.85,360.15z" />
<path class="cls-8" d="M1035.73,814.96c-1.05,44.53,0.62,89.55-3.76,133.57l-2.23,11.22c-5.43,19.06-9.94,38.31-13.53,57.75  l-1.67,2.02c-1.42,0.54-2.54-0.61-3.73-0.9c-1.29-3.66-1.94-5.49-1.94-5.49c1.54-30.92,1.36-61.78-0.53-92.59  c-5.37,26.63-8.76,53.57-10.15,80.82c-0.96,6.87-2.28,7.19-5,0.93c-2.39-27.95-7.42-55.2-15.08-81.74l3.75,89.01l-1.87,1.25  c-1.15-0.55-3.39-1.18-4.67-1.09l-10.51-55.54l-3.29-76c0.19-1.35,0.68-2.43,1.46-3.24c7.87-3.31,13.99-7.89,18.36-13.75  c0.23-3.1,1.19-5.3,2.86-6.62c8.8-7.54,13.46-19.84,23.07-26.83l1.26-3.21c5.84-4.32,16.92-9.28,24.03-10.75L1035.73,814.96z" />
<path class="cls-8" d="M1134.65,790.23l-1.81,123.65c-0.38,25.66,0.52,50.65-3.91,74.93c-6.08-27.1-15.07-53.82-27.76-78.74  l-2.04-122.92c0.66-0.52,1.34-1.01,2.07-1.38c4.13-2.07,27.94-0.01,31.65,2.74C1133.51,789,1134.09,789.6,1134.65,790.23z" />
<path class="cls-12" d="M1136.49,696l-1.85,94.23c-11.68-2.78-23.53-3.76-35.52-3.09c-0.25-15.37-2.5-31.18-1.18-46.74  c-0.66-2.92-0.94-5.98-0.85-8.96c0.01-0.31,0.51-0.6,1.14-0.88C1104.75,713.49,1117.7,696.83,1136.49,696z" />
<path class="cls-12" d="M1041.49,357.13c0.56,0.07,1.02,0.18,1.09,0.41c0.57,1.79,0.22,8.56,0.04,11.02c-0.15,2.05-0.31,4.09-0.71,6.1  c0.11,4.52-0.03,9.39-0.05,13.93c1.45,2.64,1.48,6.41-0.03,9.04l-0.4,57.23c0.23,1.71-1.73,1.23-2.7,0.06  c-0.59-1.47-1.44-2.82-2.74-3.75l-0.85-1.09c-0.23-1.26-0.53-2.49-1.22-3.59c-0.68-0.55-1.29-1.28-1.84-2.18l-1.03-2.67  c-0.68-0.46-1.29-1.18-1.83-2.15c-0.45-1.9-1.44-3.61-2.03-5.46c-0.67-0.59-1.28-1.33-1.81-2.2c-7.01-18.79-14.37-37.6-18.58-57.22  c-0.52-0.69-0.98-1.49-1.38-2.38l-0.14-2.52c-0.08-1.12-0.19-1.43-0.97-2.2c-0.18-0.87,0.32-1.97,0.06-2.81  C1016.83,362.52,1029.57,361.39,1041.49,357.13z" />
<path class="cls-3" d="M1103.78,976.23c1.73,1.08,2.8,3.22,3.2,6.43l5.41,11.15c3.74,24.66,10.15,48.54,11.98,74.31l-12.99-22.8  c-24.25-42.58-35.12-92.12-56.41-137.38C1079.33,926.04,1089.42,952.67,1103.78,976.23z" />
<path class="cls-2" d="M1031.11,1028.09c-5.33-3.06-14.32-2.1-16.57-8.57c4.36-23.89,7.91-48.75,17.43-70.98L1031.11,1028.09z" />
<path class="cls-12" d="M1036.5,782.24l-0.77,32.72c-9.76,2.27-20.13,6.72-28.47,12.78c-1.65-9.63,0.31-19.54-0.14-29.16  c5.03-0.5,10.24,0.95,15.35-0.41C1025.62,791.44,1029.79,784.2,1036.5,782.24z" />
<path class="cls-12" d="M1009.79,428.33c2.82,10.16,7.85,19.64,11.66,29.51c1.14,0.64,1.37,1.66-0.01,2  c-0.04,6.98-9.9,9.61-16.17,12.35c0.59-14.38-3.01-30.6,2.76-43.99C1008,426.49,1009.33,426.75,1009.79,428.33z" />
<path class="cls-6" d="M1175.69,975.1c-0.59,7.04,1.43,16.55,5.03,21.63l-13.02,45.39L1175.69,975.1z" />
<path class="cls-8" d="M1104.93,939.23c1.8,13.88,4.82,27.67,5.11,41.66c0.94,0.42,0.86,1.42,0.74,2.33l1.6,10.58  c-4.16-3.52-8.88-11.37-8.6-17.57c0.55-12.38-0.05-24.67-0.42-37.03C1103.75,937.83,1104.49,937.88,1104.93,939.23z" />
<path class="cls-3" d="M1044.19,241.68c-0.14,14.57,1.63,29.48-0.79,43.58C1043.57,270.83,1040.49,255.27,1044.19,241.68z" />
<path class="cls-3" d="M1041.91,374.66l-0.42-17.53c-0.08-3.45,1.14-6.96,1.17-9.76C1043.57,356.19,1045.14,366.53,1041.91,374.66z" />
<path class="cls-10" d="M1098.24,730.56c0.37,3.22-0.02,6.64-0.29,9.84c-3.71-5.77-1.29-13.75-1.37-20.61  C1099.93,721.62,1097.82,726.93,1098.24,730.56z" />
<path class="cls-3" d="M1149.9,898.72c-2.07-0.53-0.96-3.99-3.6-3.77c0.52-3.22-0.86-6.9,2.28-10.52  C1149.07,889.76,1149.82,894.1,1149.9,898.72z" />
<path class="cls-3" d="M1152.68,943.91c-3.78-1.37-0.94-6.27-0.78-9.02C1154.21,937.26,1152.54,940.91,1152.68,943.91z" />
<path class="cls-3" d="M1041.83,397.63l0.03-9.04C1044.64,389.86,1044.69,396.43,1041.83,397.63z" />
<path class="cls-10" d="M1096.35,699.09c-0.03-2.75-0.03-5.44-0.12-8.06C1097.96,693.13,1097.92,696.88,1096.35,699.09z" />
<path class="cls-3" d="M1151.17,921.73c-0.13-2.19-2.22-4.35-0.81-7.09C1153.17,915.32,1152.38,919.82,1151.17,921.73z" />
<path class="cls-7" d="M390.59,1176.88c-0.01,0.76-0.05,1.51-0.22,2.23c-2.3,9.72-38.19,30.4-48.14,35.98l-4.11,0.08  c0.48,3.6-8.95,5.33-10.49,2.43l-2.33,1.59l-1.48,2.51c-2.23,1.19-15.18,6.59-16.65,6.56c-1.04-0.03-1.93-0.6-2.7-1.26  c-0.62,0.59-1.37,1.15-2.25,1.68c-0.8,2.95-2.13,3.12-4.48,1.33l-0.74,2.29c-3.99,0.97-7.76,2.45-11.3,4.45l-2.5,86.1l-1.95,1.11  l1.11,2.06c-2.62,4.24-4.2,8.76-4.74,13.55c-1.83,1.59-2.74,2.38-2.74,2.38l-56.91,0.89l-1.19-1.9l-1.93-0.62l-1.88-77.91  c-4.97-1.68-6.01,0.94-3.12,7.86c1.25,13.68-3.04,24.43-14.68,32.18c-1.65,5.34-8.86,7.94-11.68,3.12  c-1.34,0.49-2.74,0.28-4.22-0.64c-2.81,7.96-7.32,15.24-13.54,21.83l-2.41,0.25l0.93,2.22c-2.88,5.19-9.1,15.54-15.18,16.86  c-1.26,0.27-2,0.25-2.96-0.98l0.82-71.23c5.67,0.2,13.16-0.46,18.33-4.04c-5.02-3.72-11.84-2.58-17.25-2.58  c-4.27-20.86,13.18-37.64,6.59-39.27c-18.22-30.88-37.61-34.46-67.5-51.12L390.59,1176.88z" />
<path class="cls-11" d="M373.41,337.02c1.23,3.95,1.85,5.92,1.85,5.92c-1.06,23.53-1.11,47.04-0.14,70.55l-1.43,6.01l1.26,224.09  c24.24-35.5,36.31-74.64,53.47-113.39c-10.36,53.2-32.14,101.69-53.09,151.67l2.08,210l1.94,2.11c0.22,21.71,0.45,43.43,0.67,65.14  l-1.91,1.17c-8.9,2.95-18.58,0.31-27.74,1.73l-3.26-0.57c-3.71-5.31-7.31-10.7-10.79-16.17l0.37-2.47l-1.82-3.87  c0.52-20.13,1.04-40.26,1.56-60.39l1.95-1.09l-0.8-19.35c1.76-135.34,3.28-270.69,4.56-406.04l1.37-19.32l-1.92-0.9  c0,0,0.09-19.25,0.27-57.74l1.93-2.52l0.84-2.92c10.64-7.91,16.2-20.18,21.24-32.03C367.93,334.55,372.49,333.77,373.41,337.02z" />
<path class="cls-12" d="M492.54,995.72l3.7,0.82c3.06,3.83,5.72,7.93,8,12.3c25.05-11.69,50.6,1.73,57.14,28.14l2.34,2.83  c2.22,0.9,3.42,2.19,3.6,3.88c-1.65,13.4-5.9,27.15-11.93,39.15l-92.73,1.91l-4.21-1.99c-17.8-20.43-41.38-34.9-67.68-41.43  l-3.71-2.84l-1.65-1.87c-0.39-7.7-2.06-15.36-5.01-22.99l1.58-1.97c0.25-0.01,0.54-0.06,0.79-0.02c1.11-0.56,2.2-1.09,3.28-1.6  l19.04-2.98l1.86,1.19l-1.13,21.13c7.17,4.66,14.71,3.37,20.66-2.55l8.86-11.25l2.33,0.14l1-1.05c-0.79-0.33-0.74-0.6,0.11-0.83  c3.84-5.9,8.58-10.62,14.23-14.15l1.95,1.32l4.42-2.56c10.58-1.49,21.16-2.98,31.74-4.48L492.54,995.72z" />
<path class="cls-3" d="M222.92,1066.54l2.65-0.06c9.11,5.54,18.47,10.69,28.07,15.48l0.59,2.78l2.68-0.11  c7.35,5.25,14.6,10.65,21.75,16.2l-0.26,2.21c3.82,3.84,7.9,7.42,12.25,10.76c15.4,7.45,29.84,16.15,43.31,26.1  c3.24,2.29,4.51,4.73,3.81,7.33c-8.09,1.89-16.81-0.01-25.24,1.34c-18.64,3-35.27,0.39-52.62-5.53  c-36.04-12.31-74.32-10.31-110.82-1.7c-37.42,8.83-38.5-9.32-72.09-15.44L222.92,1066.54z" />
<path class="cls-10" d="M480.7,1117.57c-1.17,7.52-6.35,14.25-9.61,21.77c8.44,0.8,16.46,0.13,24.77,2.21  c-9.18,3.8-17.78,0.21-26.86,2.12c-24.9,31.26-53.15,41.64-91.5,50.27l-0.34,111.8l-3.22,1.94c-10.92,0.8-21.78,2.12-32.59,3.97  l-3.49-1.53c0.59-29.45,0.24-59.22-1.05-89.29l1.32-5.64c19.02-10.5,38.49-21.49,52.47-38.29c-6.67-13.23-22.77-18.5-33.35-27.76  l-6.07-2.55c-12.4-8.67-24.75-17.3-37.06-25.89l-1.07-2.29c-0.01-0.75,0.19-1.92,0.66-1.92c55.14-0.9,111.02-1.17,165.85-0.81  L480.7,1117.57z" />
<path class="cls-6" d="M311.96,1032.76c8.49,0.49,17.52,0.29,27.08-0.59c10.05-0.03,38.59,0.01,45.8,4.53c0.8,0.5,1.53,1.12,2.24,1.78  c30.1,6.57,56.09,22.57,75.59,46.26c2.33,2.83,3.86,6.58,5.96,9.55l-3.73,1.48c-35.51,3.02-70.35,1.49-103.91-8.48  c-11.93-2.49-23.55-2.74-33.46,5.19c-8.09,4.17-17.19,3.8-25.72,1.3c-12.22-5.39-24.62-8.67-37.21-9.85  c-3.69,1.06-7.15,1.33-10.36,0.8c-9.52-7.2-23.21-10.14-31.31-18.2L311.96,1032.76z" />
<path class="cls-4" d="M532.8,746.14c0.55,2.58-0.37,4.91-2.77,7.01c-19.47,19.24-36.99,36.92-52.23,60.63  c-27.48,42.77-41.16,88.34-46.13,138.61c-0.33,3.36,2.26,4.34,5.12,3.8l28.79-10.09l1.95,1.35l1.41,1.58  c-8.48,19.61-16.98,39.24-25.49,58.91l-4.65,5.91c-0.11,0.25,0,0.58-0.11,0.83l-1,1.05l-8.83,11.29c-6.02,7.7-16.96,9.67-24.93,3.24  l1.18-23.19c0.79-15.68,1.43-32.12,2.81-47.96l-1.27-0.18c0.49-14.43,1.55-29.08,3.17-43.92l2.01-0.96  c5.8-66.86,39.39-128.17,93.25-170.41L532.8,746.14z" />
<path class="cls-10" d="M336.69,942.82c5.14,5.33,7.91,14.04,13.69,19.21l-24.06,3.73c-14.9-1.41-29.93,3.25-45.06,5.5l-0.02-55.34  c0.59-0.44,1.19-0.85,1.85-1.14c8.71-3.85,40.36,11.84,47.42,19.59C333.87,936.52,335.94,939.34,336.69,942.82z" />
<path class="cls-12" d="M411.83,914.04l-3.91,45.06l-14.18,1.01c-1.3-0.79-2.32-0.53-3.25,0.57l-12.39-0.39l-0.71-68.43  c9.29,3.59,17.36,10.34,20.62,20.16L411.83,914.04z" />
<path class="cls-10" d="M382,1011.66c1.51,9.27,6.97,17.12,5.07,26.82c-23.15-5.06-47.22-5.33-70.95-3.09  c-2.19,0.21-3.58-1.27-4.17-2.64C334.09,1024.36,357.44,1013.02,382,1011.66z" />
<path class="cls-6" d="M313.04,1118.38c14.87,10.28,30.98,19.15,44.2,30.73c-6.35,0.66-13.15-3.37-19.47-1.89  c-14.23-20.66-54.48-27.35-59.37-44.18c3.08-1.53,6.7-1.02,10.85,1.55l22.32,11.17L313.04,1118.38z" />
<path class="cls-6" d="M427.03,1306.48c1.62,0.76,3.42,0.83,5.09,0.2c20.44,1.64,108.86,6.66,103.3,38.28  c-2.35,7.52-11.44,11.34-18.41,14.25c-28.21,11.81-62.12,13.82-92.31,14.72c-0.49,2.8-1.76,4.76-3.81,5.88  c-45.91,3.91-92.15,7.52-138.7,10.84c13.7,2.77,27.66,5.34,41.7,5.29l3.52,1.8c15.21,2,30.47,4.23,45.77,6.71  c13.82,1.22,26.5,4.96,38.03,11.22l-0.24,2.34c-0.25,1.23-0.67,2.44-1.6,3.31c-6.31,5.86-28.72,11.6-37.8,13.49  c-66.5,13.8-132.03,14.35-198.86,5.68c-27.32-3.54-61.46-10.41-85.54-23.89c-4.3-2.41-12.22-7.23-14.98-11.03  c-0.77-1.06-0.89-2.61-0.96-3.93c-14.3-31.69,53.94-46.87,73.77-52.84l1.39-2.04c6.27-0.08,12.18-0.95,17.75-2.63l2.03,0.89  l1.91-1.79l13.17-0.96l2.03,1.73c0.13-0.77,0.36-1.91,0.94-2.01c6.5-1.18,24.91-3.28,30.99-2.85l1.58,1.78l58.96-0.92  c-0.12-6.01,3.19-11.37,5.5-16.06l1.57-2.12c7.78-2.4,15.5-5.05,23.15-7.97l2.28,1.5l3.34-2.55c4.37-1.27,21.22-4.85,24.22-3.76  c0.71,0.26,1.38,0.64,2.03,1.06c12.98-1.34,26.25-4.57,39.3-4.37L427.03,1306.48z" />
<path class="cls-1" d="M410.98,1418.02c1.02-1.59,1.7-1.11,1.12,0.76c3.5,1.07,1.24,5.75-0.27,8.11  c-5.92,9.24-22.68,13.51-32.97,15.95c-13.71,2.77-27.41,5.05-41.11,6.85c12.46,10.01,30.01,16.4,45.99,19.31  c99.22,18.11,196.3,18.38,294.88-2.19c30.25-6.31,66.73-18.42,87.24-42.25l2.95-0.91c-0.48,3.85-1,7.71-0.9,11.62  c-19.85,32.77-97.99,49.03-134.55,53.57c-79.63,9.89-223.91,13.23-295.82-23.12c-6.92-3.5-9.87-7.45-7.95-15.63  c-33.22,5.62-65.77,4.78-99.18,3.46c-41.08-1.62-81.02-5.74-119.83-18.67c-12.1-4.03-45.18-17.05-39.33-33.22  c21.23,25.82,88.47,36.12,120.98,39.19c56.8,5.36,113.5,5.54,169.35-5.88C379.16,1431.36,396.89,1427.53,410.98,1418.02z" />
<path class="cls-13" d="M341.65,1476.34l1.91,1.83c-0.23,34.5-0.46,69-0.69,103.49l-1.93,1.17c-20.02,0.03-40.04,2.39-56.28,15.07  c-2.69-1.56-3.44-3.48-5.31-4.24l-0.92-41.63c-2.82-0.4-2.9-4.43-0.14-5.27c-0.73-27.32,0.9-55.17,1.19-82.73  c16.4,0.21,33.84-4.07,50.49-2.58C332.25,1466.51,335.91,1474.03,341.65,1476.34z" />
<path class="cls-13" d="M218.82,1463.24l1.51,90.91l-16.56,0.79c-6.84-8.6-13.34-17.17-20.7-24.66l-1.9-3.87  c0.12-21.99,0.25-43.98,0.37-65.96l1.93-1.14C195.25,1460.49,207.27,1460.38,218.82,1463.24z" />
<path class="cls-13" d="M166.04,1457.54l1.91,0.92c-0.24,19.3-0.49,38.61-0.73,57.92l-1.93,1.13c-6.1-3.93-14.29-6.25-21.12-6.61  c0.27-18.6-1.06-37.77,1.26-56.99C152.79,1452.16,159.68,1456.89,166.04,1457.54z" />
<path class="cls-10" d="M183.46,1459.3l-0.4,70.98c-4.82-4.91-12-9.04-17.78-12.77l0.75-59.97L183.46,1459.3z" />
<path class="cls-9" d="M134.32,1305.01l-91.81,0.37c-1.19,0-2.52-0.74-3.27-1.07c-0.63-0.27-0.59-1.89-0.06-2.28  c0.61-0.46,1.97-1.32,3.21-1.33l91.74-0.98c1.22-0.01,2.44,1.52,3.11,1.65c0.85,0.16,1.34,1.83,0.38,2.31  C136.82,1304.08,135.64,1305,134.32,1305.01z" />
<path class="cls-13" d="M166.18,1345.03c-5.77,4.73-14.6,1.8-21.16,3.77c0.17-1.24,1.08-2.46,1.09-3.72  c8.98-2.6,12.92-10.8,17.22-18.1c3.07-1.87,4.18,0.78,4.85,3.7C168.91,1333.86,167.96,1342.42,166.18,1345.03z" />
<path class="cls-9" d="M1156.97,1163.43c-2.62,0.63-5.73,1-8.09-0.58l-32.38-0.04c-0.57,2.77-6.74,2.43-7.73,0.08  c-1.02,2.79-2.62,2.73-3.58-0.04c-9.05,0.86-18.14,1.04-27.25,0.54c-0.03,1.91-0.96,1.85-1.65,0c-3.58,0.13-7.19,0.13-10.84,0.01  c-0.2,0.75-0.52,1.87-1.09,1.92c-5.93,0.49-16.29,0.48-22.22-0.01l-1.37-1.92c-3.64,0.14-7.25,0.14-10.83-0.01  c-0.01,2.77-2.18,2.65-2.87,0.06c-49.36,1.08-98.5,0.98-150.02-2.13c12.17-6.68,25.87-2.56,38.83-2.59l110.31-0.23  c29.44-0.06,59.18,1.48,88.85-1.05l1.59-3.1c0.32-0.62,2.01-0.6,2.32,0.09c0.26,0.58,0.59,3.89,1.24,3.88l68.15-0.43  C1189.42,1157.89,1208.78,1166.38,1156.97,1163.43z" />
<path class="cls-9" d="M1112.41,1201.01c4.83,1.16,9.89,1.71,14.59,0.85c0.77-0.85,2.16-1.18,4.19-0.99c1.78-2.17,3.64-3.65,5.37-0.75  l0.76,0.06c9.75,0.54,19.51,1.06,29.29,1.54c13.65,6.23-27.97,5.12-28.21,5.13c-2.91,0.17-5.57,0.47-8.42,0.11  c-5.85-0.74-11.77-0.38-17.84-0.23l-7.93,62.28c-2.18-17.78-0.32-34.63-0.18-51.56c-1.05-1.39-1.07-3.3-0.06-5.73l-0.24-3  c-4.16-0.33-8.32-0.27-12.49,0.17l-1.61-1.89l-55.74-0.08c-1.97,0-6.5-0.1-7.44-2.26c-0.33-2.56,4.62-2.64,6.42-2.67l2.84-1.33  c17.95-0.49,35.95-0.86,54.01-1.12l5.77,1.51c2.03-2.32,5.31-3.2,9.86-2.64C1109.08,1197.82,1111.44,1198.69,1112.41,1201.01z" />
<path class="cls-7" d="M1116.51,1162.81c-0.07,12.85-2.27,25.52-4.09,38.2c-5.38-1.29-11.36-0.43-16.92,0.04l-1.43-2.46  c3.79-9.86,7.73-19.66,11.82-29.4c0.09-2.98,1.06-5.08,2.89-6.3C1111.32,1162.26,1113.96,1162.81,1116.51,1162.81z" />
<path class="cls-7" d="M1136.57,1200.12l-9.56,1.74c-0.35-1.14,0.07-1.58,0.82-1.44c0.86,0.16,2.48,0.29,3.49,0.22  c3.13-6.02,0.84-13.56,5.9-19.27C1138.42,1188.04,1137.49,1194.37,1136.57,1200.12z" />
<path class="cls-7" d="M1166.61,1201.72c-9.82-0.72-20.67,2.43-29.29-1.54C1147.08,1200.96,1157.91,1197.75,1166.61,1201.72z" />
<path class="cls-7" d="M1156.97,1163.43c-2.07,1.51-7.06,2.34-8.09-0.58C1151.85,1162.85,1154.33,1163.28,1156.97,1163.43z" />
<path class="cls-11" d="M27.76,386.93l-0.42,108.88l1.03,192.46l0.37,66.26c-5.92-2.56-12.23-4.56-18.91-2.88  c-3.08-2.46-6.15-6.07-6.9-9.54c2.07-19.24,0.8-39.1,0.85-58.68L4.64,351.8c2.9-0.37,6.07-1.13,9.44,0.23  C15.41,364.89,19,377.63,27.76,386.93z" />
<path class="cls-9" d="M1172.86,1427.3l-0.62,8.08C1170.76,1433.3,1169.88,1428.28,1172.86,1427.3z" />
<path class="cls-11" d="M825.59,401.32c5.51,17.28,12.62,34.15,19.88,50.72c0.19,9.51,0.35,19.07,0.48,28.66l-1.97,2.04  c2.68,7.8,2.77,18.14-0.05,25.89c-0.26,1.65-0.07,3.07,0.57,4.26l1.93,0.89c1.48,105.02,2.96,210.07,4.44,315.13l-1.9,1.22  c0.4,4.33,0.83,8.66,1.3,12.99l1.93,0.64c0.11,13.33,0.22,26.66,0.33,39.99l-1.91,1.16l0.03,2.3c0.54,0.51,1.06,1.04,1.46,1.64  c1.68,2.5,1.92,26.24,0.75,29.93c-0.21,0.66-0.67,1.24-1.19,1.81l1.97,1.7c-0.43,4.7-0.37,9.27,0.17,13.72  c9.47-5.15,25.92-11.77,36.71-10.53c1.21,0.14,2.18,1.03,3.04,1.84l1.03,0.61l0.22,7.29c-0.86,4.1-0.18,8.91-0.25,13.09l-0.82,1.55  c0.88,10.14-0.29,19.89-3.49,29.25l0.76,10.95c0.25,3.95-0.96,10.61-5.64,8.34l-1.43-1.95c-1.1-8.63-2.4-16.98-3.91-25.04  c-2.35,13.85-3.67,27.84-3.96,41.97c-1.82,4.47-2.9,4.82-4.96,0.23c-3.04-12.17-8-23.18-14.89-33.05c2.8,11.19,5.2,22.44,7.21,33.78  c1.43,5.12,1.08,9.44-1.04,12.96c-1.15,2.44-4.63,3.4-6.99,3.85l-2.43-2.26c-2.54-10.75-8.54-20.24-15.81-28.41l9.33,33.81  l-1.55,1.61c-20.68,14.02-38.74,29.76-56.7,47.11l-116.35-0.06c11.86-26.87,18.27-37.31,47.01-45.45  c5.01-5.08,7.79-13.38,14.57-16.17l2.27-0.61c13.68,4.17,27.48,8.12,41.42,11.86l-27.61-17.34l0.06-2.23  c-1.03-2.14,0.24-3.55,3.83-4.23c8.23-0.06,12.35-0.1,12.35-0.1c10.33-17.42,31.13-24.04,50.55-22.97c2.07,1.5,2.33,1.42,0.79-0.26  c0.21-13.26-0.02-26.51-0.7-39.75l1.47-3.9c-0.4-2.92,1.53-6.52,0.34-9.42c0.86-3.25,1.15-6.64,0.76-10.01l0.78-100.47  c-0.13-22.23,0.12-44.45,0.74-66.66l0.04-59.05c-0.42-0.76-0.96-1.57-1.63-2.41c-11.39-22.69-22.5-45.66-30.62-70.35l31.68,50.95  c1.01-63.04,2.53-124.95,0.73-186.69c-0.53-1.12-1.01-2.26-1.37-3.43c-0.35-1.16-0.67-2.31-0.7-3.46  c-0.71-23.73,0.96-49.57,4.17-73.09c0.15-1.11,0.6-2.18,1.07-3.26C824.34,403.38,824.95,402.34,825.59,401.32z" />
<path class="cls-2" d="M660.55,731.55c-1.85,0.14-3.68,0.7-5.55,0.3c-0.45,0.79-1.37,0.82-2.21,0.83c-1.18,0.05-2.48,0.71-3.68,0.66  c-0.89-0.07-1.64,0.22-2.25,0.85c-15.18,3.31-31.24,11.28-38.32,25.3l-1.55,1.81c-6.19-1.27-12.19-1.18-17.99,0.26  c16.92,13.18,17.41,36.23,12.37,55.65c-14.92,57.5-81.63,102.17-130.23,130.45l-3.61-0.21l-29.01,10.25c-1.79,0.63-4.79,1-6.29-0.05  c-1.17-0.81-2.64-3.3-2.46-5.56c5.13-62.36,28.45-122.21,69.01-169.83c11.25-13.21,25.43-22.87,34.01-36.11  c15.87,1.44,31.1-4.25,42.17-15.69c1.05-1.5,2.94-2.32,5.68-2.46c12.19-6.67,25.37-10.52,39.54-11.57c1.16-0.97,2.42-1.38,3.79-1.23  l1.8-1.73c9.59,1.3,20.57,2.9,28.72,8.49C657.38,723.94,663.04,728.17,660.55,731.55z" />
<path class="cls-12" d="M796.26,284.85c0.79,2.66,1.45,5.91,1.75,8.71c0.52,1.12,0.99,2.22,1.4,3.31l0.12,2.61  c-0.02,0.83,0.26,1.56,0.85,2.18c5.73,33.77,14.79,67,25.2,99.66c-3.84,27.53-5.73,57.65-4.89,86.39  c-8.04-0.91-14.67-7.68-22.5-9.71c-34.88-5.23-61.85-32-61.02-67.94c-27.7-4.42-48.97-25.79-54.4-51.1  c-6.32-29.46,4.84-56.68,29.42-73.73l-3.58-24.03c22.58,10,47.94,8.48,72.15,4.74C786.65,272.2,791.78,278.45,796.26,284.85z" />
<path class="cls-12" d="M373.69,419.5c-2.57-27.4-0.47-54.99-0.27-82.48l1.08-2.06c12.68-2.34,25.04-8.43,33.51-18.37  c48.95,1.13,78.49-41.66,72-87.9l1.61-3.13c12.97-4.26,28.67-13.44,38.66-22.81c23.68,18.73,36.13,45.36,30.3,75.82  c-5.34,27.91-27.49,49.61-54.43,58.35c-1.52,23.07-11.08,46.65-31.13,59.15c-21.82,13.6-47.16,18.44-70.11,5.34  C387.82,408.94,381.74,415.42,373.69,419.5z" />
<path class="cls-5" d="M656.75,745.93c-2.21,1.24-4.14,2.72-5.81,4.45c-3.34,1.69-6.15,4.41-7.76,7.83l-1.91,2.21  c-5.39,20.46,14.4,46.42-14.3,103.7c-15.6,31.14-40.11,53.63-65.63,75.69c-0.62,2.21-2.62,3.82-6,4.85  c-1.78,1.95-3.55,2.89-5.29,2.8l-0.74,1.97l-9.79,2.98c-0.46,0.78-0.95,1.53-1.54,2.19c-0.59,0.65-1.15,1.27-1.84,1.58  c-16.42,7.43-33.69,12.29-51.52,14.85l-25.03,27.74l-4.61,2.24c-6.99,2.18-9.73,9.9-16.17,12.83l28.72-66.39  c50-27.2,129.97-83.39,134.44-145.43c1.18-16.42-2.47-32.17-17.16-40.56c8.01-4.87,15.92-2.47,23.72-1.97  C620.47,787.52,643.35,740.58,656.75,745.93z" />
<path class="cls-1" d="M728.7,1002.35c0.7-0.25,1.42-0.44,2.16-0.48c1.48-0.1,15.95,7.38,17.7,8.77l1.03,2.37l36.92,23.11  c-18.43-2.36-35.59-9.21-53.05-14.79l-29.7-9.49c-2.8,0.07-5.56-0.18-8.25-0.75l-34.4-12.77c-15.22-5.67-30.61-8.91-46.92-10  c-38.84-2.6-77.19,2.8-115.52,8.46c0,0-2.05-0.36-6.14-1.07l-37.56,5.3l28.65-31.75c19.86-3,38.53-8.1,55.89-16.85  c3.69-1.01,7.24-2.21,10.66-3.58l-0.13-1.37c2-4.3,7.5-6.05,11.29-7.64c3.37,5.76,11.34,7.08,17.36,11.44  c23.27-0.54,46.66,0.46,70.12-3.14c22.73-3.49,86.14-31.08,117.49-34.59c-4.4,9.22-12.33,14.11-21.1,18.09  c-29.13,13.24-57.08,27.45-87.88,38.54C682.8,981.07,704.9,993.7,728.7,1002.35z" />
<path class="cls-2" d="M681.38,704.84c1.22,2.61-3.69,4.84-5.34,2.6l-2.45,0.75c-9.22-5.54-19.92-11.87-31.04-8.77l-2.17-1.27  c-0.57,0.7-1.54,1.38-2.21,0.96c-9.19-8.39-16.06-10.96-18.86,3.65c-1,2.53-2.12,4.57-4.9,3.14l-3.16,0.56  c-12.99-6.36-26.13-7.99-40.2-4.86c-7.58,1.69-8.99,2.41-7.7,10.14l-1.8,1.41c-19.18,7.41-37.31,17.23-55.22,27.77  c-0.4-1.38-0.17-2.42-0.14-3.4c0.69-1.98,1.55-3.7,2.59-5.17c0.24-0.85,0.06-1.81,0.18-2.68l0.92-0.98  c0.07-0.26,0.03-0.56,0.06-0.83c0.77-1.86,1.66-3.57,2.68-5.11c0.15-0.52,0.02-1.11,0.12-1.64c0.85-1.81,1.76-3.5,2.76-5.07  c0.16-0.54,0.06-1.17,0.11-1.73l1.01-1.94c0.09-0.24,0.09-0.56,0.07-0.81c0.72-1.62,1.61-3.01,2.67-4.16  c1.99-5.52,5.35-10.51,7.98-16.28c-1.19-1.97-2.73-3.34-0.66-5.51c0.92-0.96,6.87-1.52,3.24-4.08c1.78-2.83,6.1-2.86,8.53-5.51  c-1.91-0.89-3.29-0.39-4.54-1.06c-1.53-0.82,2.39-2.8,3.3-4.13c-2.21-2.01-5.79,0.89-7.96-2.84l23.9-4.12  c-3.08-3.73-7.72-2.81-10.27-7.53c9.37,1.94,16.75,1.77,25.55,0.58c34.78-4.67,70.99,4.11,98.2,25.84  C674.29,688.9,679.3,696.15,681.38,704.84z" />
<path class="cls-1" d="M640.39,698.15l1.91,1.77c-3.58,11.85,13.92,12.05,21.86,11.39c3.53-0.3,9.96-1.16,11.88-3.86l5.34-2.6  c39.19,13.53,80.48,22.43,119.13,41.54c-40.91,1.76-83.56-2.79-124.53-9.24c-2.79-0.44-3.84-5.56-8.53-3.98l-2.41-1.34  c-1.48,0.34-3.02-0.39-4.48-0.27c-5.34-11.72-23.61-14.93-36.58-16.34c-0.52,0.63-1.16,0.79-1.94,0.79  c-0.68,0.01-9.58-8.29-7.61-10.1c5.12-2.76,2.9-10.64,7.89-14.06C629.86,686.69,634,694.93,640.39,698.15z" />
<path class="cls-12" d="M817.88,941.82c2.05,14.77,0.66,29.96,1.08,45.99c-21.48-1.7-41.02,4.81-52.24,22.37  c-6.61,0.26-13.42-1.13-17.13,2.83c-7.12-2.08-13.99-8.15-20.89-10.66c4.39-3.69,10.41-2.75,17.62-3.21  c1.92-29.07,27.86-47.11,55.99-45.56L817.88,941.82z" />
<path class="cls-5" d="M614.43,705.9l9.55,9.3c-2.92,7.58-18.05,0.25-40.18,13.41c-2.85,1.69-5.92,2.29-8.82,1.84  c-2.25-6.94-7.49-13.06-13.4-17.29c-0.17-2.75-1.5-8.85,1.5-10.79C579.95,694.96,598.62,697.63,614.43,705.9z" />
<path class="cls-14" d="M820.49,755.27c-0.01,22.29,1.38,44.87-0.74,66.66C819.93,799.76,816.71,776.56,820.49,755.27z" />
<path class="cls-14" d="M818.22,932.4c-1.46-3.56,0.73-6.97,0.76-10.01C820.05,925.27,821.32,930.69,818.22,932.4z" />
<path class="cls-13" d="M508.79,732.36c-0.51,1.82-0.38,4.83-2.59,5.17C506.26,735.56,506.31,732.31,508.79,732.36z" />
<path class="cls-13" d="M512.63,722.76c-0.54,1.86-0.33,4.89-2.68,5.11C510.19,725.93,510.14,722.7,512.63,722.76z" />
<path class="cls-13" d="M515.51,716.05c-0.54,1.86-0.33,5.02-2.76,5.07C513.11,719.21,513.02,715.96,515.51,716.05z" />
<path class="cls-13" d="M519.37,707.41c-0.58,1.61-0.4,4.12-2.67,4.16C516.56,709.7,517.15,707.32,519.37,707.41z" />
<path class="cls-14" d="M656.75,745.93c-1.21,2.14-3.63,3.35-5.81,4.45C650.43,747.3,654.59,747.29,656.75,745.93z" />
<path class="cls-6" d="M481.62,225.55c2.59,23.08-0.27,48.24-15.39,66.48c-14.74,17.79-34.88,26.95-57.54,26.18  c-6.91,10.12-25.26,17.83-35.28,18.8c-1.61,0.16-5.41-1.02-6.3,1.26c-5.05,12.88-11.78,25.84-23.31,33.33l-1.25,3.05  c-14.97,9.11-35.04,13.44-51.09,5.54c-1.15,3.91-3.66,7.34-7.51,10.29c-3.13,3.46-6.2,4.78-9.22,3.94  c-4.54-37.88-0.42-78.75-3-117.07c57.66,23.67,114.71,5.44,140.13-54C434.5,230.97,458.98,232.99,481.62,225.55z" />
<path class="cls-15" d="M856.41,477c13.96,24.46,26.44,49.96,42.46,73.85l-3.21,312.29l-1.53,2.22c-23.24,6.75-33.46,32.53-38.11,54.16  c-1.36,2.22-2.65,3.65-4.37,1.07c-0.62-11.14,0.27-22.29-1.02-33.37l-0.03-2.3l-0.34-41.79c-0.42-4.32-0.85-8.66-1.3-12.99  l-4.47-317.24c-0.82-1.03-1.01-2.45-0.57-4.26c-0.17-8.51-0.29-17.37,0.05-25.89l0.67-2.09c0.9-0.63,9.45-5.26,9.99-5.09  C855.4,475.8,855.96,476.35,856.41,477z" />
<path class="cls-15" d="M983.63,477.34c-1.7,107.25-1.39,214.84-0.1,322.2l-1.76,2.21c-7.03,1.79-13.69,4.59-19.96,8.38l-2.78-0.72  l-9.41-338.12l3.9-0.63c8.61,2.9,17.6,4.4,26.67,4.71L983.63,477.34z" />
<path class="cls-12" d="M899.55,314.84c-0.05,1.18,0.62,2.41,0.28,3.63c1.07,2.74,1.39,6.47,0.01,9.15l-0.37,141.74  c-0.63,0.5-0.68,1.57-0.04,2.09l-0.19,1.85c-0.63,3.08-12.54,8.73-14.9,8.54l-1.83-1.64c-32.37-52.09-54.63-111.21-68.54-170.92  c-1-0.09-1.07-1.26-0.97-2.2c-0.02-0.83-0.22-1.68-0.16-2.51c-0.48-1.17-0.94-2.29-1.37-3.34c0.01-0.49,0.05-1.14-0.08-1.62  C839.39,315.41,867.6,320.11,899.55,314.84z" />
<path class="cls-12" d="M982.83,359.29l2.38,1.37l1.85,0.12c-3.66,15.96-2.09,32.29-2.36,49.19l-1.07,67.37  c-11.69-0.03-23.09-1.88-34.01-6.06l-0.5-49.57c-0.79-1.34-1.01-3.1-0.69-5.27l-0.84-39.94l-0.04-4.23l-0.84-28.49  C958.65,349.42,969.08,358.83,982.83,359.29z" />
<path class="cls-12" d="M895.66,863.14l-0.13,63.1c-0.44,1.93-1.1,2.29-1.98,1.08c-14.35,0.14-28.3,3.51-41.53,12.04  c-1.37-6.68-0.03-12.75-0.37-18.76c1.93,0.01,3-1.97,3.38-4.25C858.55,894.97,873.9,866.24,895.66,863.14z" />
<path class="cls-12" d="M983.53,799.54l0.67,55.03c0.17,13.92-8.24,13.87-22.67,23.61l-2.5-68.77  C966.92,805.37,974.67,800.6,983.53,799.54z" />
<path class="cls-8" d="M894.56,948.31c-0.4,22.73,0.56,45.54-1.56,68.16c-0.27,2.82-4.12,2.56-5.81,2.97  c-3.5-3.37-3.91-13.03-3.55-18.1l1.73-2.93c7.28-2.99,1.33-15.17,3.36-21.49c2.4-7.46,6.08-12.96,3.91-21.96  C892.21,953.18,892.21,948.05,894.56,948.31z" />
<path class="cls-15" d="M899.23,473.3c-1.06,10.26,0.31,21.09-0.06,32.21c-8.1-8.05-11.66-17.25-16.67-25.31  C888.58,479.46,893.47,475.21,899.23,473.3z" />
<path class="cls-12" d="M856.41,477c-4.49,1.21-7.72,5.08-12.43,5.74c0.41-10.28-1.77-21.12,1.49-30.7L856.41,477z" />
<path class="cls-8" d="M895.53,926.23c-0.01,3.32-0.08,5.88-0.73,8.98c-1.98-2.02-0.74-5.26-1.25-7.9  C894.13,926.8,894.81,926.45,895.53,926.23z" />
<path class="cls-6" d="M899.83,327.62c0.01-3.03-0.84-6.12-0.01-9.15C902.54,319.88,902.53,326.19,899.83,327.62z" />
<path class="cls-6" d="M949.12,421.7c-1.64,0.44-1.59-1.59-1.74-2.68c-0.13-0.93,0.96-1.81,1.06-2.59  C950.3,417.57,949.11,419.98,949.12,421.7z" />
<path class="cls-6" d="M947.6,376.5c-0.55-0.66-1.2-1.49-1.03-2.44c0.12-0.68,0.6-1.27,0.99-1.79  C948.88,373.05,948.96,375.73,947.6,376.5z" />
<path class="cls-6" d="M725.65,1377.05c11.56,3.66,23.12,11.32,32.79,18.41c9.67,7.1,11.71,17.49,10.37,28.19  c-17.53,27.18-72.57,42.15-104.16,48.02c-90.78,16.85-185.66,17.24-276.31,0.21c-20.04-3.76-39.77-10.05-55.66-23.19  c17.25-3.87,81.05-7.4,79.42-29.91c-0.06-0.75,0.05-1.92,0.52-1.96c24.41-2.42,50.31-4.12,75.02-5.54  c7.71-0.96,15.31-0.85,22.91,0.23l4.08-0.98c16.32,2.69,32.78,4.23,49.39,4.62c-41.23-11.54-82.8-21.77-124.71-30.68  c-4.74-0.83-5.38-2-2.87-4.93c22.5-2.04,46.03-4.38,67.98-10.92c9.86-2.94,21.59-6.93,27.38-15.68l2.28-0.34  C595.33,1350.22,667.05,1358.52,725.65,1377.05z" />
<path class="cls-10" d="M815.11,1165.27c1.25-0.19,2.51,0.57,3.65,1.14l2.18,1.82c8.91,3.79,18.03,7.36,26.58,11.88l0.29,2.58  c-7,3-6.3,3.5,2.11,1.5l1.63,1.47l0.45,2.29c-1.91,7.05-2.36,14.5-1.35,22.34l-1.91,1.27l1.28,1.19  c0.53,43.87,0.51,87.86-0.07,131.97l-1.93,1.17l0.25,96.39l-20.52,6.42c-5.22,1.63-8.18,4.6-8.3,11.18  c-4.69-3.59-2.29-7.91,1.36-11.06l-0.33-147.29l0.01-6.23c-0.62-11.64-0.86-23.3-0.73-34.99l-0.83-68.75  c-0.12-1.13-0.16-2.21-0.13-3.24c-0.34-2.74-0.98-5.5-1.19-8.25c-1.12-1.5-1.9-3.34-2.35-5.52c-0.45-0.23-0.83-0.49-0.98-0.84  c-0.82-1.99-2.56-6.83-1.31-8.12C812.62,1163.34,813.76,1163.9,815.11,1165.27z" />
<path class="cls-14" d="M895.67,1279.78c-0.13,2.41,0.12,4.96,0.19,7.38c0.76,9.34,1.07,18.72,0.94,28.15l0.72,41  c0.43,3.72,0.13,6.98-0.88,9.77c-4.85-1.26,0.82-5.93-3.66-10.99c-8.67,16.27-37.4,6.59-38.65,4.87c-7.02-9.63-1.96-10.73-6.3-14.08  l0.71-134.33c4.45-3.67,7.47,4.01,7.68,8.42c-3.4,25.25,12.71,50.87,37.57,57.47L895.67,1279.78z" />
<path class="cls-10" d="M376.88,1488.65l-0.5,103.13l-2.61,1.38c-10.04-3.7-20.26-6.48-30.69-8.35l-2.14-1.98l0.71-106.49  C353.2,1480.98,364.76,1485.49,376.88,1488.65z" />
<path class="cls-7" d="M933.16,1438.67c0.87-2.17,2.95-2.95,6.23-2.34l15.13,0.98l1.81,1.79c0.75,0.21,1.87,0.55,1.91,1.14  c0.43,6.29,0.83,26.49-0.28,31.86l-1.93,1.38c-18.95,1.88-38.34,0.41-57.5,0.38c-0.8-10.74,0.21-21.42-0.07-33  C910.73,1441.07,921.96,1440.86,933.16,1438.67z" />
<path class="cls-10" d="M848.37,1512.05c-8.5,2.5-19.98,1.69-28.4-1.23c-0.07-14.82-0.66-29.73,0.33-45.04  c0.11-1.64,3.12-2.46,2.94-3.91c-1.42-11.24,12.1-10.69,24.08-14.12c1.31,6.7-0.7,13.01,1.37,19.38l42.23,4.61  c-0.69,2.63-0.67,4.34,0.82,6.43c-14.81,0.34-28.38-2.26-42.94-4.99L848.37,1512.05z" />
<path class="cls-7" d="M376.38,1591.78c0.14,0.8,1.3,1.86,1.12,2.71c-2.76,13.19,1.92,27.98-3.16,41.3  c-3.65,9.58-28.2,7.92-31.95-0.72c-2.98-17.85-1.56-35.37-1.44-52.24C353.45,1582.81,364.47,1589.36,376.38,1591.78z" />
<path class="cls-14" d="M819.97,1510.82c9.47-0.13,18.94,0.67,28.4,1.23c-0.02,1.51-0.01,3.22-0.01,4.72l-3.03,1.81l-22.34,1.16  l-3.06-1.86l-155.51,0.74c-1.42,0.01-4.36-3.14-3.87-4.25c0.49-1.11,2.31-3.04,4.39-3.03l94.36,0.29L819.97,1510.82z" />
<path class="cls-10" d="M848.37,1516.77l0.18,27.94c-9.52,1.1-19.15,0.93-28.73,1.02l0.12-27.85  C829.41,1517.83,838.85,1516.19,848.37,1516.77z" />
<path class="cls-10" d="M957.17,1432.18c0.47-0.91,1.16-1.57,2.09-1.99c1.02-0.47,20.4,0.8,22.43,1.22l2.25,1.71  c0.57,0.77,3,2.05,2.53,3.26c-0.34,0.89-2.59,1.56-3.26,2.57l-2.2,1.21c-7.4-1.52-15-1.31-22.79,0.64l-1.89-1.7  c-7.43,0.82-15.69-1.89-23.18-0.43c-0.01-1.85-1.44-3.21-2.01-4.92L957.17,1432.18z" />
<path class="cls-10" d="M897.94,1429.72c-0.12,1.53,0.32,3.08,0.49,4.58c-7.2,4.1-16.01,0.05-22.37,6.75  c-3.11,3.27-12.59-0.39-17.76-2.59C868.6,1432.98,900.02,1437.49,897.94,1429.72z" />
<path class="cls-10" d="M898.32,1406.59c-4.02-12.5-0.46-26.9-1.68-40.51c-0.31-3.46,0.94-6.7,0.88-9.77  C899.74,1372.66,898.25,1389.76,898.32,1406.59z" />
<path class="cls-10" d="M571.34,1504.44c-2.99,3.65-10.34,1.81-14.74,0.9C561.04,1503.45,566.46,1504.65,571.34,1504.44z" />
<path class="cls-10" d="M502.25,1505.36c-2.82,1.03-8.67,2.53-9.92-0.91C495.66,1504.59,499.42,1503.47,502.25,1505.36z" />
<path class="cls-10" d="M916.06,1433.55c-0.66,2.85-5.24,2.12-7.15,0.72C911.52,1433.08,913.17,1433.51,916.06,1433.55z" />
<path class="cls-10" d="M459.15,1503.04c-1.83-0.08-5.27,1.48-5.26-1.36C455.67,1501.57,459.02,1500.46,459.15,1503.04z" />
<path class="cls-10" d="M608.84,1501.68c-0.01,2.85-3.45,1.28-5.27,1.36C603.69,1500.49,607.06,1501.75,608.84,1501.68z" />
<path class="cls-10" d="M425.44,1498.65c-0.14,1.08-1.63,0.85-2.55,0.95c-0.92,0.1-2.1-0.61-1.62-1.79  C422.92,1497.98,424.1,1497.62,425.44,1498.65z" />
<path class="cls-13" d="M1036.52,1346.87c2.16,29.57-2.71,60.44,2.02,89.38c-0.59,0.49-1.2,0.94-1.87,1.28  c-3.16,1.59-22.87-0.85-27.83-1.82l-3.48-2.29c0.33-0.91-0.24-2.89-0.12-3.85l-0.15-15.72c0.54-2.88,0.45-7.23-0.01-10.12  c0.37-11.39,0.17-22.75-0.59-34.08c0.18-6.74,0.26-13.87,0-20.58c0.51-3.04,1.12-6.05,1.85-9.04c1.29-0.39,23.15,3.65,26.52,4.57  C1034.28,1344.99,1035.47,1345.86,1036.52,1346.87z" />
<path class="cls-13" d="M983.64,1333.36l0.29,99.76c-8.8,1.13-18.04-1.47-26.76-0.94l0.24-34.19c0.48-3.37,0.92-6.74,1.3-10.12  l1.59-64.08c1.77-1.93,4.4-1.87,7.91,0.16l14.52,7.04L983.64,1333.36z" />
<path class="cls-7" d="M1004.44,1592.43c-3.34,6.28-17.79,6.69-20.49,0.05l0.06-88.66l21.13,9.5L1004.44,1592.43z" />
<path class="cls-13" d="M1038.68,1442.15c-0.02,0.22,0.1,0.45,0.1,0.68c3.49,6.84,2.48,16.65,1.58,24.23l-1.36,1.82  c-5.51,0.09-11.4,3.25-17.36,2.09c-3.61,0.53-7.28,0.98-11.01,1.37c-10-1.53-6.09-9.63-5.55-31.45c0.23-0.75,0.61-1.86,1.19-1.88  c5.03-0.18,27.53,0.09,31.07,1.17L1038.68,1442.15z" />
<path class="cls-13" d="M983.2,1438.95l-0.22,34.43c-9.24,1.51-18.29-0.76-26.95,0.09l0.3-34.38  C965.32,1438.1,974.57,1435.22,983.2,1438.95z" />
<path class="cls-10" d="M983.64,1333.36c-8.07-2.59-15.07-8.75-23.34-9.56l1.01-36.17c1.42-1.24,1.25-3.23,1.89-6.25  c6.19,4.26,13.22,6.55,18.87,11.86C984.65,1306.69,983.6,1320.16,983.64,1333.36z" />
<path class="cls-4" d="M1039.01,1468.88c0.47-8.68-0.2-17.37-0.22-26.06c5.94,0.22,43.18,6.57,42.81,13.9  C1081.28,1463.11,1048.23,1468.73,1039.01,1468.88z" />
<path class="cls-13" d="M983.7,1501.98c-9.95-1.86-18.04-2.76-27.6-2.36l0.12-18.23c9.49-0.44,18.05-1.74,27.27-0.63  C984.09,1487.79,984.11,1494.36,983.7,1501.98z" />
<path class="cls-10" d="M1036.58,1339.44c-0.09,2.35-0.23,5.09-0.06,7.43c-9.66-0.74-19.44-2.62-29.8-5.24  c-2.15,2.5,0.31,5.99-2.24,7.45c0.7-7.97-0.27-16.53,1.74-24.7C1017.64,1329.38,1025.95,1337.03,1036.58,1339.44z" />
<path class="cls-13" d="M1005.72,1508.11c-3.4-9.74,0.03-18.74-1.15-29.2c10.04-0.21,19.37-3.04,30.38-0.44  C1020.93,1485.04,1013.14,1493.84,1005.72,1508.11z" />
<path class="cls-10" d="M1038.54,1436.25l0.45,2.75l-0.3,3.15l-33.6-1.26c0.05-2.11-0.87-5.28,0.28-7.46  C1016.41,1434.47,1027.47,1436.35,1038.54,1436.25z" />
<path class="cls-10" d="M1005.08,1403.73c-1.77-11.12-0.9-22.74-0.59-34.08C1007.57,1380.12,1006.33,1392.69,1005.08,1403.73z" />
<path class="cls-10" d="M1005.24,1429.57c-2.29-4.58-1.06-10.9-0.15-15.72C1006.82,1418.63,1006.58,1424.7,1005.24,1429.57z" />
<path class="cls-10" d="M1021.65,1470.97c-1.36,3.14-8.08,1.82-11.01,1.37C1012.51,1469.61,1018.2,1470.3,1021.65,1470.97z" />
<path class="cls-13" d="M1135.09,1370.96c0.74,36.11-0.48,72.41,0.32,108.34c-6.41,1.08-10.85,6.39-16.83,10.2  c-7.7-4.63-14.31-10.33-22.13-12.96c0.74-34.31-0.06-68.78,2.76-102.93l2.35-1.6c10.47-0.34,20.92-1.33,31.35-2.98L1135.09,1370.96z  " />
<path class="cls-9" d="M1135.09,1370.96c-12.12-0.35-23.72,4.8-35.88,2.66c2.02-24.48-1.78-49.53,2.71-74.28  c3.89-21.4,17.34-38.98,21.39-59.82l1.54-3.27c-0.24-1.64,0.97-3.19,1.21-4.71c3.08-0.22,6.19,1.63,6.27,5.43L1135.09,1370.96z" />
<path class="cls-7" d="M1104.04,1217.46c-15.66,23.68-25.12,51.28-47.45,72.09c1.97-14.96,10.37-26.53,15.05-40.07  c5.23-15.12,14.43-27.65,17.99-42.47c5.16,0.01,10.32-1.13,16.09,0.13C1106.34,1210.58,1105.88,1214.67,1104.04,1217.46z" />
<path class="cls-10" d="M278.28,1546.76l0.14,5.27c-14.1-3.42-29.24,4.57-43.91-2.18C249.13,1543.6,264.33,1547.95,278.28,1546.76z" />
<path class="cls-15" d="M343.51,432.76c-0.7,148.13-1.31,296.6-5.14,444.7l-1.25,1.8c-5.02-0.21-9.91-0.96-14.65-2.26  c-5.24-22.15-18.76-42.08-41.74-47.91l-2.08-2.45l-4.17-379.38l3.72-0.89c21.57,6.31,44.45,1.87,61.55-12.87L343.51,432.76z" />
<path class="cls-12" d="M343.51,432.76c-19.51,17.88-43.91,22.59-69.02,14.49c-0.19-17.66-1.95-35.35,0.24-52.83  c6.5-3.49,12.24-8.26,16.22-15.77c18.55,7.2,36.89,3.32,52.84-7.05L343.51,432.76z" />
<path class="cls-12" d="M338.38,877.47l-1.69,65.35c-15.17-15.71-33.56-25.4-55.45-26.9c0-2.19-0.47-4.32-0.25-6.56  c-0.37-3.03-0.81-6.07-1.32-9.13l-1-73.59c23.66,4.86,40.2,24.64,45.05,49.25L338.38,877.47z" />
<path class="cls-12" d="M217.99,820l-1.22,78.78c-8.32-5.95-24.49-14.45-33.42-17.45l0.29-76.97  C197.48,805.1,206.48,813.93,217.99,820z" />
<path class="cls-10" d="M280.98,909.36c-3.16-1.36-1.28-6.1-1.32-9.13C282.66,901.56,281.27,906.38,280.98,909.36z" />
<path class="cls-15" d="M703.76,1011.85c-18.5,3.45-43.13,9.87-42.68,35.94c-8.86-0.67-15.61-0.62-22.36,2.07  c-13.42-18.73-39.51-20.11-58.73-9.64c-4.82,2.63-7.56,4.88-12.67,3.47c-6.42-1.77-8.35-6.15-10.44-12.82  c-6.9-22.03-33.4-30.62-53.28-19.41c-3.98-6.27-6.29-12-11.06-15.73c43.98-6.2,88.58-13.64,133.85-8.14  C653.19,990.83,678.36,1003.73,703.76,1011.85z" />
<path class="cls-7" d="M468.63,1094.3c4.92,6.95,10.94,14.66,12.07,23.27l-56.88,0.31l-110.78,0.5c-11.8-4.28-22.22-12.88-34.64-15.34  l-24.17-18.3c25.95-12.46,51.05,21.86,76.64,3.47c16.62-11.94,50.21,4.4,68.81,5.43C422.95,1094.92,445.96,1095.6,468.63,1094.3z" />
<path class="cls-1" d="M535.43,1344.97c-0.44,2.52-0.47,5.14-1.35,7.62c-8.49,20.89-77.05,27.3-98.87,28.97  c48.66,11.19,96.22,20.88,144.31,36.73c-23.35-3.01-47.15-0.98-68.97-6.78l-11.84-1.16l-68.85-18.29c-2.14-1.21-3.13-3.58-2.97-7.09  c-0.25-2.17-1.43-3.71-3.53-4.61l-1.79,6.04c2.91,4.38-2.76,7.23-6.81,8.36l-75.62,4.26l-11.73-1.27  c-20.91,1.16-42.08-5.56-64.12-7.59l150.38-11.38c2.77-0.21,5.09,0.08,7.37-1.11c1.5-0.79,1.03-3.49,1.7-5.67  C450.88,1372.4,516.52,1366.78,535.43,1344.97z" />
<path class="cls-9" d="M543.51,1227.01c-0.4,0.59-1.19,1.07-2.36,1.46c-32.42,1.69-65.04,2.1-97.42-0.69  c-1.15,0.25-2.79,0.47-3.26-0.77c-6.09-0.43-39.24-4.5-36.31-13.82c0.63-2.01,3.76-5.22,7.1-5.85  c49.59-9.42,102.49-9.26,152.15-0.17c5.25,0.96,13.3,5.44,11.7,9.61C566.57,1224.99,554.01,1225.11,543.51,1227.01z" />
<path class="cls-9" d="M815.11,1165.27l-2.12,0.32c-0.27,2.89-5.6,1.56-5.47-1.21c-1.03-0.57-2.13-1.07-3.3-1.5l-5.08,1.36  c-20.89-1.34-41.79-1.27-62.72,0.2c-3.87-0.48-32.24,0.1-32.54,3.06c-0.27,2.66,36.68,7.51,40.95,5.95l69.26-0.8l1.18,1.91  c1.11,0,2.16,0.48,2.53,1.18c0.8,1.53-0.27,3.11-0.18,4.33c-32.33,1.11-64.39,1.18-96.5-3.19c-0.85,0.43-1.94,0.31-2.29-0.63  c-3.64-0.24-31.41-3.68-24.91-10.5c11.72-12.31,102.1-8.16,103.34-9.62c0.79-0.93,0.31-2.52-0.37-3.9  C802.57,1156.47,811.45,1158.35,815.11,1165.27z" />
<path class="cls-15" d="M739.94,1120.82c-34.78,3.81-69.78,1.71-104.24,0.1C670.43,1117.61,704.34,1117.2,739.94,1120.82z" />
<path class="cls-15" d="M730.58,1233.01c-8.98,7.52-22.08,4.52-32.74,3.62c-18.31-1.56-36.55,2.6-55.31-2.62L730.58,1233.01z" />
<path class="cls-15" d="M534.89,1123.46c-13.54,3.41-27.45,1.05-41.33,1.28C506.08,1119.3,521.04,1119.95,534.89,1123.46z" />
<path class="cls-13" d="M820.5,1295.28c-3.85-10.7-0.59-23.49-0.73-34.99C821.95,1271.56,820.51,1283.59,820.5,1295.28z" />
<path class="cls-10" d="M432.13,1306.69c-1.11,1.42-4.09,1.3-5.09-0.2C428.85,1306.51,430.39,1306.55,432.13,1306.69z" />
<path class="cls-13" d="M859.03,1185.75l2.39,1.44c-0.31-2.85,1.62-2.73,2.59-0.41c8.7,5.8,19.94,4.51,28.92,9.18  c0.52,1.72,1.02,3.46,1.51,5.23l0.34,27.41c-0.93,7.56-0.67,15.04,0.78,22.43l0.21,18.89c-0.68,0.97-0.47,2.19,0.03,3.17  c-0.61,1.83-0.02,4.72-0.13,6.69c-25.14-4.86-44.23-31.68-41.3-57.37c0.62-5.42-0.96-9.58-5.63-10.86  c0.05-8.98-1.86-22.36,2.82-25.9C851.91,1182.33,857.62,1183.08,859.03,1185.75z" />
<path class="cls-4" d="M1108.77,1162.89c-0.42,13.19-10.78,24.7-13.28,38.16c-20.72,1.75-41.73,0.53-62.62,0.94l-5.79-38.55l2.87-0.06  l10.83,0.01l24.68,0.01l10.84-0.01c0.54,0.06,1.11-0.09,1.65,0c9.12,0.5,18.21,0.32,27.25-0.54  C1106.37,1162.87,1107.59,1163.18,1108.77,1162.89z" />
<path class="cls-9" d="M864.01,1186.78l-2.59,0.41c-1.01-0.31-1.81-0.79-2.39-1.44c-2.34,0.36-5.18-0.67-7.46-0.1  c-4.28,1.55-9.82,2.4-14-0.31c3.93-2.73,8.11-2.16,9.97-5.24l114.11-0.2c2.05,0,3.51,2.23,3.4,3.34  C964.61,1187.55,882.97,1183.77,864.01,1186.78z" />
<path class="cls-10" d="M896.8,1315.31c-2.47-8.92-0.67-18.74-0.94-28.15C900.02,1295.36,896.64,1306.1,896.8,1315.31z" />
<path class="cls-10" d="M895.56,1251.03c-3.61-6.17-1.9-15.36-0.78-22.43C894.87,1236,895.47,1243.42,895.56,1251.03z" />
<path class="cls-10" d="M958.7,1387.88c-0.08,3.34,1.97,8.44-1.3,10.12C957.43,1394.65,955.58,1389.67,958.7,1387.88z" />
<path class="cls-10" d="M894.44,1201.19c-2.54-0.07-1.57-3.43-1.51-5.23C895.68,1197.39,894.4,1198.35,894.44,1201.19z" />
<path class="cls-2" d="M1010.81,1018.61c-10.26-2.49-21.51-3.39-30.81-7.81l-4.27-101.35c14.15,31.1,14.51,63.63,20.04,96.76  c3.49-32.84,3.76-64.66,13.39-95.73C1014.44,947.48,1010.48,982.92,1010.81,1018.61z" />
<path class="cls-6" d="M885.37,998.4c0.54,7.02,0.55,14.11,1.82,21.03c-6.33,1.52-17.84,6.84-24.82,7.85  c0.2-18.21-6.43-35.18-9.65-54.86c11,12.18,16.36,27.39,21.12,43.66c2.19-18.4,0.03-35.69,6.99-53.57  C883.49,975.03,884.48,986.79,885.37,998.4z" />
<path class="cls-4" d="M855.38,1031.14c-1.99,3.53-7.07,4.36-10.46,4.75l-11.65-42.24C844.1,1004.26,852.78,1016.62,855.38,1031.14z" />
<path class="cls-14" d="M338.13,1215.17c3.41,28.16,0.76,57.21,1.88,86.54c0.13,3.41,0.35,6.61-2.15,8.39  c-9.98,1.03-19.73,3.59-29.59,5.25l-0.55-3.03c7.19-15.82,4.66-37.29,2.27-54.25c-1.41-10-5.04-17.62-12.14-25.1l-0.09-2.97  c1.46-0.53,2.97-0.97,4.48-1.33l2.25-1.68c7.25-1.72,13.71-5.65,20.83-7.8c0.38-0.7,1.15-1.23,2.33-1.59  C330.88,1216.89,335.1,1216.83,338.13,1215.17z" />
<path class="cls-13" d="M297.75,1229.99c16.73,18.18,13.38,26.06,15.89,48.6c1.48,13.24,1.23,25.24-5.38,36.76  c-9.26,1.56-17.64,7.85-27,8.59l2.57-88.42C288.57,1232.42,293.3,1231.63,297.75,1229.99z" />
<path class="cls-13" d="M216.8,1340.92l-33.51,3.08l-1.92-0.66c0.07-12.22,0.13-24.45,0.2-36.67l1.93-1.12  c1.76,0.61,4.57,0.42,6.77,0.24c1.83-0.15,2.21-3.77,3.78-4.9c13.34-8.86,17.48-23.44,11.72-38.87c2.13-2.16,6.13-2.02,9.34-1.12  L216.8,1340.92z" />
<path class="cls-9" d="M183.5,1305.54l-0.21,38.45c-5.37,0.49-11.7,1.58-17.11,1.03c-2.07-5.89,3.33-15.44-2.85-18.05  c4.66-7.91,12.53-13.16,14.32-23.39C178.76,1301.94,182.99,1304.03,183.5,1305.54z" />
<path class="cls-13" d="M394.07,1132.73c-11.76-2.54-24.53,5.4-34.93-3.69c35-2.97,69.9-3.14,105.31,0.37  C440.88,1135.78,417.78,1129.07,394.07,1132.73z" />
<path class="cls-13" d="M448.5,1148.35c-13.96,3.13-28.95,2.66-43.75,0.96C418.23,1144.19,434.18,1145.46,448.5,1148.35z" />
<path class="cls-13" d="M510.55,1411.51l-98.45,7.26c-0.3-0.34-0.8-0.45-1.12-0.76c-12.42-12.06-67.91-13.32-83.56-20.27l85.99-4.79  c5.33-0.3,6.92-3.4,8.16-6.57c0.42-2.14,1.02-4.15,1.79-6.04c2.25-0.59,3.64-0.87,4.49,1.27c0.94,2.36,1.35,4.32,1.38,8.28  L510.55,1411.51z" />
<path class="cls-1" d="M384.3,1353.77c-6.82-2.32-13.3-1.15-19.64-5.63l77.41-15.38L384.3,1353.77z" />
<path class="cls-7" d="M1105.19,1162.85c-8.04,3.09-18.53,2.01-27.25,0.54C1086.73,1161.64,1096.09,1162.73,1105.19,1162.85z" />
<path class="cls-7" d="M1076.3,1163.39c-3.13,3.16-7.69,0.01-10.84,0.01C1068.68,1161.99,1073.07,1161.99,1076.3,1163.39z" />
<path class="cls-7" d="M1040.78,1163.38c-3.13,0-7.7,3.17-10.83-0.01C1033.17,1161.99,1037.56,1161.99,1040.78,1163.38z" />
<path class="cls-14" d="M850.26,843.12c-3.38-2.76-1.23-8.71-1.3-12.99C852.28,832.96,850.22,838.82,850.26,843.12z" />
<path class="cls-13" d="M844.5,512.89c-1.2,0.56-1.66-0.86-1.71-1.75c-0.06-0.96,0.6-1.82,1.14-2.51  C845.47,509.48,844.48,511.52,844.5,512.89z" />
<path class="cls-13" d="M550.06,947.46c1.25,0.38,2.78,0.65,3.13,3.09c-4.76,1.37-9.18,2.01-13.66,1.86  C542.69,950.82,546.05,947.46,550.06,947.46z" />
<path class="cls-5" d="M676.03,707.44c0.89,0.56,1.83,2.7,1.2,3.51c2.14-2.77-15.91,7.87-34.3-1.23c-3.98-1.97-2.4-7.07-2.55-11.57  C652.32,693.36,665.32,700.79,676.03,707.44z" />
<path class="cls-15" d="M626.09,696.76c1.84-0.94,3.77,0.71,4.63,1.66c1.51,1.67,0.37,3.87-1.13,4.48c-1.84,0.74-3.59,0.27-4.53-0.77  C623.7,700.62,623.72,697.97,626.09,696.76z" />
<path class="cls-14" d="M804.22,1162.87c1.35,0.36,2.45,0.86,3.3,1.5l5.47,1.21c1.46,3.14,4.38,5.63,2.28,8.96l-67.46,0.79  c-16.34,0.19-33.13-0.37-48.46-7.74c12.2-7.01,25.26-4.63,38-5.12C760.01,1161.62,782.24,1160.06,804.22,1162.87z" />
<path class="cls-8" d="M423.36,1380.36c0.93,2.68-0.3,4.92-1.79,6.04C421.44,1383.61,420.44,1381.13,423.36,1380.36z" />
<path class="cls-14" d="M510.75,1224.32l-53.17,0.21c-16.74,0.07-33.68-1.51-49.34-9.14c2.42-4.56,8.18-6.63,13.59-6.97  c20.95-1.32,136.84-9.56,147.74,8.47C550.62,1224.83,530.34,1224.25,510.75,1224.32z" />
<g>
</g>
<g>
</g>
<g>
</g>
<g>
</g>
<g>
</g>
<g>
</g>
<g>
</g>
<g>
</g>
<g>
</g>
<g>
</g>
<g>
</g>
<g>
</g>
<g>
</g>
<g>
</g>
<g>
</g>
</svg>