<?xml version='1.0' encoding='UTF-8'?>
<svg xmlns="http://www.w3.org/2000/svg" id="Layer_1" viewBox="0 0 1200 1800" xml:space="preserve" width="1200" height="1800">
<style type="text/css">
      .cls-1 {
        fill: #03102f;
      }

      .cls-2 {
        fill: #051618;
      }

      .cls-3 {
        fill: #021b3a;
      }

      .cls-4 {
        fill: #012e23;
      }

      .cls-5 {
        fill: #0437a2;
      }

      .cls-6 {
        fill: #0045b8;
      }

      .cls-7 {
        fill: #0348ba;
      }

      .cls-8 {
        fill: #0a722e;
      }

      .cls-9 {
        fill: #e14b02;
      }

      .cls-10 {
        fill: #2b8be9;
      }

      .cls-11 {
        fill: #2f91eb;
      }

      .cls-12 {
        fill: #8bb60c;
      }

      .cls-13 {
        fill: #9c9d9e;
      }

      .cls-14 {
        fill: #77c2fa;
      }

      .cls-15 {
        fill: #fbb801;
      }

      .cls-16 {
        fill: #f8fafb;
      }

    </style>
<path class="cls-6" d="M367.86,1362.88c1.87-1.09,3.93-0.57,6.18,1.54c3.19-0.35,6.65-2.24,10.37-5.66c5.52-0.22,9.01-2.43,10.46-6.64  c5.76-6.11,13.79-7.05,24.08-2.82l7.7,0.59c1.68,6.12,14.92,8.02,12.65,1.69c-12.62,0.69-11.45-10.7-0.11-11.69  c1.82-6.84,6.58-10.89,11.73-15.2c6.97-5.83,19.39-15.43,28.33-15.47c4.01-0.02,12.35,0.94,11.94,5.72l-1.9,3.09  c-14.38,4.75-31.63,13.04-25.75,30.65l-1.52,2.35l0.09,2.89c-4.95,3.05-9.12,6.79-12.5,11.23l-2.79,0.28  c-0.84,3.03-1.65,2.91-2.67-0.08c-1.05-1.46-2.23-1.47-3.52-0.04l-1.66,2.63c-13.58,1.33-37.51,17.62-24.33,31.92  c13.08,14.19,35.61-2.83,38.92-18.16l2.82-1.5l1.64-2.81c5.37-1.14,10.53-2.76,15.5-4.85l0.61-2.61  c8.77-5.41,18.03-10.1,27.79-14.07c2.81-1.88,5.24-4.14,7.29-6.79c6.72-2.61,13.48-3.7,20.3-3.29l13.54-9.11l4.02,0.09  c2.14-3.15,12.03-0.81,10.83,3.66c1.48,1.91,1.12,3.1-0.82,4.25c-9.03,4.27-16.95,9.49-23.76,15.68c0.49,1.88,1.25,3.88,2.3,6  c1.43,1.32,2.45,3.18,3.07,5.55c3.66,2.12,7.52,0.78,11.57-4.04l2.53,0.93l6.03-1.2c79.61,2.59,159.18-3.57,237.74-16.81  l121.72-21.55c5.91-1.25,11.69-2.91,17.37-4.98c3.95-1.44,10.7-4.19,13.87-6.54c2.09-1.54-9.15-12.38-10.84-13.3  c-0.48-4.05,0.17-5.65,5.59-5.72c44.94-7.74,89.69-16.92,133.49-29.64c39.62-11.51,74.08-25.84,111.78-41.96  c3.32-1.42,6.91-2.02,10.47-2.5V1800H0v-582.42l4.64,0.77c61.15,31.71,126.22,54.94,193.63,69.54l4.87,2.24  c-0.42,5.75,4.04,9.41,13.4,10.97c42.74,8.74,85.78,15.29,129.11,19.65c5.32,3.7-0.72,6.72-4.9,8.26l-28.98,11.98  c-7.43,3.83-13.34,6.95-2.61,10.87c17.5,6.4,38.69,7.89,57.14,8.81L367.86,1362.88z" />
<path class="cls-11" d="M0,351.56V0h1199.98v351.52l-0.81,2.34c-30.09,0.01-60.19,0.02-90.3,0.04l-1.42-2.34l-2.92-1.28  c-7.72-18.67-30.61-20.62-48.28-18.74c-2.45-0.01-4.28-0.34-4.63-2.92c-7.17-63.78-112.02-71.94-132.95-13.77l-3.56-0.01  c-20.38-6.27-48.17-3.21-57.18,18.94c-13.68,0.49-27.25,2.26-40.71,5.32c-8.86,1.63-15.57,5.62-20.12,11.98l-2.58,0.41l-1.13,2.34  c-263.94,0.03-527.91,0.06-791.92,0.08L0,351.56z" />
<path class="cls-14" d="M794.52,351.48c1.44,0.26,2.3,1.34,2.58,3.22l307.59-0.03c0.54-1.35,1.46-2.39,2.76-3.12l92.53-0.04v41.93  l-2.78,2.21c-35.88-1.78-78.61,8.37-87.21,48.71c-1.84,2.97-2.95,2.2-5.81,0.19c-29.88-28.56-77.09,4.8-73.02,41.92  c-0.06,3.25-0.44,5.47-3.76,4.72c-16.52-5.78-34.07-6.35-48.54,4.5l-3.82-0.04l-2.98,0.18c-38.29-11.78-77.88-21.13-117.98-16.08  c-39.52,4.98-74.16,21.35-108.59,40.24c-3.97,2.1-8.06,3.38-12.25,3.82c-3.08-3.74-5.06-8.47-5.95-14.21  c-45.55-110.75-215.11-102.34-252.45,11.89l-3.58,3.41c-0.36,1.06-0.78,1.09-1.25,0.07l-14.1-6.65  c-16.4-10.35-33.61-18.73-51.64-25.16c-0.41,1-0.8,0.95-1.17-0.09l-39.91-10.13c-35.94-6.95-73.82-2.7-108.91,6.68l-2.63,3.1  l-12.68,3.65c-4.58,2.5-8.92,3.46-13.02,2.86l-2.81-1.79c4.17-24.14,1.41-19.06-6.54-0.77l-10.2,8.07c-1.46,2.55-3.19,3.9-5.18,4.06  c-1.55,3.75-11.23,5.8-13.49,2.37c-3-0.53-4.76-3.39-5.27-8.59l-0.97-7.96c-1.83-3.65-2.22-8.13-1.16-13.43  c-0.02-9.02-2.57-17.57-7.66-25.63c-0.19-5.83-0.48-11.61-0.88-17.36c-1.08-3.42-2.73-2.32-4.95,3.31  c-1.09,6.33-1.93,10.52-5.17,16.28c-2.39,4.26-6.75,11.89-11.51,12.03l-2.63,2.2c-7.29,0.61-14.52,1.61-21.69,3l-1.94-3.4  c-5.43-31.63-29.81-46.82-57.96-27.81c-2.69,1.14-3.91,1.36-5.22-1.24c-2.51-31.36-35-34.74-57.44-19.9L0,421.88v-70.31  L794.52,351.48z" />
<path class="cls-2" d="M181.5,494.65l1.16,7.93c-3.61,23.53-5.41,35.29-5.41,35.29l-2.53,1.01c2.85,2.08,1.06,4.72-2.27,4.8l1.27,4.94  c-3.02,19.8-4.53,39.76-4.52,59.88c0,0-0.87,1.5-2.61,4.51l1.3,4.35c0.22,53.19,0.33,79.79,0.33,79.79c0,0.13,2.18,0.98,2.18,0.85  c-0.22-25.08,3.31-53.74,8.64-78.36c0.25-1.15,0.87-2.23,1.53-3.34c0.66-1.12,1.48-2.14,2.33-3.14l-2.1-1.32l9.37-39.51l-1.03-12.22  c-0.65-3.5,0.32-5.37,2.92-5.61c-2.58-2.87-1.48-11.68,2.32-13.09c-0.87-0.27-2.13-0.74-2.13-1.42c-0.02-4.53,1.84-14.84,5.47-17.5  c-3.47-2.13-0.29-12.48,3.48-13.68c1.77-6.94,9.58-9.12,13.59-13.64c4.59-5.18,3.04-15.69,11.13-17.54  c5.24,7.09-2.61,14.59,0.01,21.6l2.59,0.15c2.09,2.85,7.94,14.71,2.41,15.13c0.84,0.44,2.1,1.13,1.99,1.83  c-1.5,9.72-4.59,23.76-7.39,33.12c-0.11,4-1.42,6.27-3.92,6.82c1.94,2.4,1.74,5.44-0.62,9.12c-1.92,4.92-5.23,13.13-9.93,14.71  l0.52,2.75c-4.82,8.47-7.62,18.06-8.41,28.75l-2.72,1.18l0.77,6.22c-5.39,20.98-8.68,42.52-8.95,64.21  c6.24-26.16,17.86-48.93,34.87-68.31c2.4-1.51,3.78-0.4,5.09,1.84l-13.03,73.93l3.12-0.68c12.29-24.84,25.65-49.08,40.07-72.72  c3.19-4,4.34-1.89,6.08,2.61c0.22,21.79-2.59,43.17-8.42,64.12l37.29-6.7l-6.03-9.56c-2.83-5.1-3.96-8.79,3.45-9.96  c44.3-2.45,88.86-5.23,132.04-16.07l8.12,0.28c4.41,0.64,6.84,10.94,1.93,11.62l-0.35,3.5c-10.71,7.71-22.82,12.78-36.31,15.2  l-3.1-1.61l-6.24,3.98c-18.25,4.29-36.83,6.93-55.45,8.94c-1.14,0.12-2.33-0.13-3.56-0.4c-1.24-0.27-2.45-0.71-3.64-1.19  c-15.11,3.21-22.66,4.81-22.66,4.81c1.99,18.31-18.02,24.4-32.24,28.28l-25.22,4.91l3.26,12l-1.67,2.61  c-0.2,0.92-0.51,2.3-1.22,2.41c-5.05,0.79-15.58,1.24-20.75,1.03c-3.74,0.95-6.17,0.29-7.29-1.98l-2.94-0.85  c-0.81-6.61-4.78-8.35-11.93-5.21c1.57,4.09,1.07,6.5-1.53,7.23c0.03,0.91,0.02,2.24-0.62,2.48c-2.31,0.86-8.04,1.49-10.87,1.78  c-4.18,1.54-7.1,1.23-8.76-0.94c-1.06,3.65-6.26,3.57-7.86,0.37c-4.33,2.06-6.5,3.09-6.5,3.09l-36.97,4.79l-7.08-1.1l-0.91,2.53  c-3.23,0.5-6.11,0.84-8.65,1.03c-2.4,31.15-10.05,62.62-26.72,89.36l-4.62,2.73c0.92,2.16,0.14,2.71-1.64,1.21  c-3.42,2.99-12.85,6.08-16.19,2.78l-1.43-3.59c0.74-26.19,4.09-52.17,10.07-77.95l-73.84,1.7L0,765.23v-45.7l5.54-2.73l22.72-2.76  c-5-7.13-19.61-42.73-12.19-48.6c8.16-6.45,35.02,17.24,40.96,23.39c5.06,7.2,10.79,13.67,17.19,19.4  c-4.73-29.9-9.44-59.76-14.15-89.59l0.53-4.92c-3.96-1.09-4.03-12.62-3.46-16.45l2.21-2.05c2.22,1.38,4.54,2.84,6.08,5.01  c26.45,37.22,45.02,84.11,55.83,128.13c1.3,3.98,7.94,4.61,9.61,1.06l-17.06-114.64l2.11-1.75l-2.64-2.17  c-0.49-8.6-1.37-17.14-2.65-25.63c-15.03-7.91-17.45-36.14-17.77-51.98c-0.81-3.29-0.11-5.22,2.1-5.79  c-4.26-2.75-2.37-13.68-0.97-18.46c1.43-4.88,3.84-9.86,8.05-12.87c-2.17-8.51,1.29-29.66,11.65-15.14l3.16,14.34  c4.14,3.55,7.37,7.52,9.68,11.92l2.21,30.02l-2.23,1.84l1.76,3.02c1.65,21.49,3.76,42.98,6.32,64.48l-1.2,6.54  c2.22,3.41,3.33,5.12,3.33,5.12c3.12,23.64,6.77,47.19,10.95,70.66c0.34-22.42,0.53-44.87,0.54-67.36  c-0.21-3.18,0.88-6.02,2.88-8.49l-2.25-1.26l5.35-62.9l-5.22-6.37l0.88-2.63c-0.72-0.53-1.4-1.09-1.96-1.75  c-5.38-6.34-2.06-53.8-0.37-64.37l2.63-3.95c22.36-28.26,6.44-19.39,19.43-37.46c9,4.95,2.95,16.5,5.65,23.53  C177.74,462.41,185.66,467.53,181.5,494.65z" />
<path class="cls-8" d="M1199.98,393.45v49.93l-2.2,3.78c-26.17,14.55-40.5,41.87-50.42,69.09c-1.18,3.15-3.34,2.48-6.23,1.16  c-32.64-21.58-69.23-14.85-79.75,25.73c-1.19,2.51-3.11,2.02-5.48,0.77c-17.13-14.87-43.81-14.47-47.89,11.45  c-1.27,3.97-5.05,4.06-11.34,0.25c-13.92-4.42-23.22,2.36-26.96,15.85c-1.18,2.43-2.12,3.37-4.61,2.22  c-8.48-12.3-19.04-18.51-31.68-18.62c-3.81,2.5-7.77,4.65-11.87,6.45c-18.27-2.89-30.85,3.84-25.32,24.17  c-0.06,2.34-1.71,2.96-4.01,2.94c-6.88-2.77-12.61-2.65-17.18,0.36c-4.02,6.61-10.38,9.63-19.08,9.06l-3.65,4.3  c-1.05,7.1-3.5,9.87-7.36,8.31c-1.1,2.35-5.86,2.67-7.07-0.14l-31.91,1.43c-3.4,0.2-5.66-0.65-6.76-2.54l0.47-2.75  c5.19-1.02,10.53-1.27,16.02-0.75c-0.79-2.02-0.43-3.53,1.08-4.5c-1.64-1.15-1.67-2.08-1.45-3.69c1.24-8.74,13.68-17.9,22.16-19.26  l0.11-12.12c-0.42-4.89,0.89-7.65,3.94-8.3l-1.22-2.96c10.92-21.58,39.18-30.03,57.91-12.64c14.14-20.31,38.1-24.06,60.43-16.52  c1.97-9.83,5.67-19.11,11.12-27.82l3.08-0.92c-0.36-1.12,0.37-1.62,2.19-1.49c15.43-12.35,33.09-14.14,54.13-5.97  c-2.86-20.23,4.95-34.93,19.32-46.83c17.97-14.88,41.54-16.56,59.37,2.05C1116.02,400.27,1163.15,391.38,1199.98,393.45z" />
<path class="cls-4" d="M1199.98,443.37v133.52l-3.05,0.55l-11.66-13.73c-16.78-16.14-32.97-14.09-50.18,0.44  c-21.92-14.78-55.96-13.41-66.47,13.75c-0.65,5.04-2.43,7.89-5.33,8.57c-18.52-7.5-41.84-1.44-36.76,22.16  c-3.09,1.01-6.6,1.55-10.53,1.63c-0.37,3.11-1.45,2.98-2.34,0c-24.21-0.74-48.45-0.75-72.66,0.01c-0.38,3.11-1.46,2.97-2.34-0.01  c-25.47-0.62-50.96-0.83-76.42,0.29l-1.07,2.36l-13.86,1.8l-2.25-1.78c-3.12-0.23-3.04-1.3-0.1-2.31c6.19-0.28,0.89-7.02,9.03-14.04  c3.63-3.13,9.53-0.41,12.74-2.23c4.52-2.56,6.29-8.98,10.92-9.79c5.99-1.05,10.71,1.01,16.75,2.07c-2.91-8.76-2.32-17.22,2.85-22.67  c5.49-5.79,13.81-5.63,21.82-4.7c6.12,0.71,9.29-6.32,15.33-6.73c13.88-0.92,23.65,9.04,32.48,20.25  c2.51-8.96,6.46-16.21,13.23-19.05c8.34-3.51,16.45-1.8,25.34,3.42c1.42-16,12.23-26.67,28.33-25.56  c9.68,0.66,16.97,5.86,25.39,11.72c5.03-18.29,15.05-33.8,32.52-38.76c18.47-5.24,35.38,1.93,53.2,12.3  C1155.12,486.59,1171.77,457.11,1199.98,443.37z" />
<path class="cls-12" d="M862.24,610.56c25.32-1.12,51.07-0.89,76.42-0.29l2.34,0.01c24.08-0.75,48.55-0.75,72.66-0.01l2.34,0l7.71-0.46  l0.79-1.88c58.1,0.03,116.11,0.06,174.04,0.09l1.44,2.34v83.94c0.1,0.97-0.21,2.33-0.89,2.3c-17.05-0.53-34.35-1.49-51.35-2.75  l-2.89-2.13l-3.45-0.55c-9.49-11.61-24.44-14.71-37.88-8.24l-3.35-0.97c-1.78-0.61-2.74-2.73-2.88-6.35  c-8.91-2.79-18.55-3.09-28.91-0.92l-2.02-2.24l-1.65-0.29c-1.13-4.02-1.31-8.54-0.53-13.55c-1.23-16.12-24.72-8.52-33.94-3.61  l-2.51-1.2l-3.84-0.59c-28.83-26.42-72.36-29.19-100.08-0.07c-4.44,1.66-9.38,1.25-14.81-1.22c-41.65-0.52-83.07-3.15-124.25-7.88  l-5.19-2.17l0.31-3.48c10.94-7.29,22.91-13,35.9-17.14l5.55-0.17c-0.19-0.9-0.38-2.24,0.22-2.56c2.43-1.29,20.48-7.23,22.33-6.66  c0.46,0.14,0.83,0.56,1.18,1.06C849.15,611.54,857.76,610.57,862.24,610.56z" />
<path class="cls-7" d="M886.11,680.87c3.41-1.73,9.51-2.23,10.16,2.25l2.86,1.05c1.62,4.2,6.24,12.27,10.25,14.18l72.67-0.42  l1.42,2.34c2.14-2.65,4.77-3.2,5.63,0.57l3.13,0.98c1.96,5.26,4.19,10.36,6.68,15.31c15.78,2.61,31.71,3.71,47.8,3.29l3.48,2.52  c2.01-1.27,3.57-2.04,4.22,0.55c3.64,0.57,7.4,7.98,5.24,11.13l-0.61,2.8c-28.57,15.96,12.21,29.29,26.77,32.97  c20.9,5.28,68.53,15.08,67.58-18.57l2.19-1.96l1.32-2.37c13.76-0.29,27.52-0.59,41.29-0.88l1.77,2.31v96.15  c-0.15,0.96-0.62,2.27-1.36,2.24c-23.08-0.8-62.9-2.72-82.91-13.18c-19.01-9.93-9.74-25.77,6.4-31.7l-34.33-4.98  c-25.53-4.13-64.87-11.7-61.2-45.32l-27.79-1.18c-15.52-0.55-49.15-4.63-30.91-26.84c-26,0.6-92.29-3.1-93.6-38.84  c-0.58-2.25-0.09-3.83,2.06-5.04C877.52,677.02,886.02,677.04,886.11,680.87z" />
<path class="cls-4" d="M94.96,527.47c0.46,13.44,2.27,51.38,17.35,56.39c2.84,9.18,2.24,19.98,3.61,29.17  c-4.19,5.23-14.6,2.92-20.86,1.5c-11.69-21.78-24.56-42.77-38.63-62.95c-0.19,13.19,0.75,26.45,4.09,39.23l-1.17,4.41  c0.49,5.63-0.03,12.73,1.25,18.5l-1.05,2.35c-19.38,0.11-38.76,0.22-58.15,0.32L0,614.06V467.58l2.14-1.77  c5.19,2.91,9.46,7.07,12.83,12.48c35.88-24.21,75.03,7.43,75.24,46.92C92.22,525.33,93.8,526.08,94.96,527.47z" />
<path class="cls-8" d="M150.17,469.86c-1.55,23.38-5.36,47.07-0.31,70.07l-1.23,2.5c-8.3,4.02-18.71,8.32-22.11-3.3l-1.96-29.53  c-0.45-6.71-7.56-8.78-9.78-13.18c-2.94-5.83-0.06-14.9-7.23-18.73c-5.03,4.39-3.32,13.18-3.52,19.45  c-9.13,8.01-9.46,18.72-9.06,30.34c-2.09,0.24-4.23,1.01-7,0.85c-0.17-19.67-7.27-37.77-23.44-48.72  c-15.97-10.81-34.87-9.64-49.81,2.01c-4.98-5.68-8.48-12.49-14.7-14.04v-45.7c11.38-6.54,22.89-11.82,36.39-9.65  c15.96,2.56,25.74,13.79,26.33,30.83c13.4-8.3,28.07-13.78,41.47-6.86c13.86,7.15,19.16,22.16,22.51,37.24  C134.55,470.93,142.44,469.17,150.17,469.86z" />
<path class="cls-8" d="M1199.98,576.89v33.47l-183.98-0.1c1.87-1.8,5.21-0.5,8.36-0.99c-1.06-7.77-1.4-16.4,4.86-21.67  c9.91-8.34,23.02-8.1,35.31-2.82c1.83-13.3,10.43-24.32,23.02-29.08c16.33-6.18,33.09-3.87,47.41,6.46  c15.92-15.89,35.83-16.16,51.32-0.77C1191.19,566.26,1194.49,572.87,1199.98,576.89z" />
<path class="cls-6" d="M66.67,847.39c-1.1,0.8-2.23,1.56-3.43,2.17c-1.18,0.6-2.34,1.17-3.56,1.41c-16.92,3.28-34.85,6.63-51.95,8.36  c-1.24,0.13-2.52-0.09-3.82-0.35c-1.33-0.26-2.62-0.69-3.91-1.17v-92.58l77.87-1.79C72.81,791.59,67.53,819.26,66.67,847.39z" />
<path class="cls-12" d="M60.6,613.72c7.13,32.15,10.97,65.18,16.75,99.13c-13.73-6.55-16.45-19.58-26.69-26.34  c-8.93-9.63-19.65-18.01-33.44-19.61c-2.29,17.33,6.18,32.52,14.68,48.78c-10.6,1.9-21.46,3.26-31.9,3.84V614.06L60.6,613.72z" />
<path class="cls-2" d="M1199.98,694.3v54.64l-44.38,0.95c-1.7,0.64-3.41,1.24-5.16,1.66c-1.74,0.43-3.46,0.83-5.18,0.86  c-20.91,0.35-42.16,0.21-62.83-1.56c-2.48-0.21-5.39-1.24-7.73-2.16c-5.31-2.08-15.58-8.11-15.03-14.05  c-1.93-3.24-4-7.49-5.24-11.13l1.07-2.35l99.89-0.53c-1.69-8.65-6.11-17.45-10.8-25.22l0.25-3.68L1199.98,694.3z" />
<path class="cls-7" d="M553.07,1223.95c3.54,1.23,1.85,4-0.48,6.25c-7.94,3.75-16.61,5.84-26.02,6.27c9.38,5.95,23.67,8.57,32.48,0.43  c5.41-8.31,12.96-15.46,23.09-11.15c2.37-0.28,3.55-0.42,3.55-0.42c7.5,7.43,15.15,14.66,22.96,21.7c3.54,1.17,5.72,3.04,6.56,5.6  c1.55,0.51,2.77,0.92,3.64,2.42c0.61-0.36,1.22-0.64,1.84-0.65c1.19-0.02,20.3,7.02,22.33,8.07l1.47,3.04l3.17-1.38l15.91,3.39  l1.97,2.86l3.54-1.5c3.47,0.35,17.18,3.49,20.4,4.69c1.23,0.46,2.05,1.61,2.78,2.64c1.11-3.74,6.89-1.07,9.47,0.57  c4.68,2.98,8.34,7.93,0.31,9.73c-10.49,2.34-35,2.86-46.06,1.79c-3.67,0.4-6.93-1.16-10.19-2.74c-1.34,0.52-2.69,1-4.07,1.31  c-1.36,0.3-2.7,0.56-4.02,0.49c-25.07-1.38-53.92-6.68-78.35-12.78l-7.2-4.06l-3.04,1.64c-12.8-5.29-25.85-9.6-39.16-12.93  c11.48,5.27,31.98,18.17,13.37,29.17l-22.13,7.33c12.62,1.03,25.35,1.45,38.18,1.26c7.68,0.96,19.6,3.55,11.84,13  c-11.52,6.32-23.18,17.49-4.28,24.14l0.13,2.63c-30.12,20.59-4.64,4.71-37.91,14.69c-1.04,6.98-19.05,11.42-31,18.06  c-7.29,4.05,7.3,3.7-21.77,10.7c-1.59-2.4-3.04-5.03-4.35-7.89c-2.86-2.09-4.6-4.39-5.21-6.88c2.91-6.31,9.79-10.11,15.2-14.4  c2.68-0.47,5.46,0.77,8.34,3.71c19.15,12.25,56.32-37.42,22.03-37.36l-1.19-2.45c-7.89-4.71-17.98-4.74-24.95,1.49  c-8.86,7.92-22.55,12.57-25.24,25.92c-3.54-0.71-5.92,0.87-7.56,2.26c-1.74,1.48-1.11,3.33,1.01,4.29c1.38,0.62,4.75-0.52,6.59,1.02  c4.37,3.68-1.68,7.56-4.75,7.96c-4.75,0.62-8.65-2.12-10.66-6.16c-12.54,1.32-17.55-5.95-25.86-1.12c-2.73,1.59-4.66,5.16-5.79,9.08  c-17.09-1.27-12.82,14.88-26.1,3.19c-1.74-2.1-0.65-4.3,3.26-6.58c17.07-9.22,34.83-17.2,53.27-23.95  c23.98-11.43,11.76-17.13-6.93-20.06l-1.47-2.48l-1.41-3.11c4.25-12.51,1.34-21.39-7.33-30.6c-8.26-6.71-15.84-14.05-22.74-22.03  l1.02-2.72c-1.24-1.94-0.49-2.44,1.3-0.96l3.68-1.32c22.11,6.78,62.05,4.08,58.7-26.85l1.95-2.29l4.37-1.13  c31.15,0.88,62.27,2.03,93.35,3.46L553.07,1223.95z" />
<path class="cls-3" d="M552.15,1270.5l7.72,4.16c14.64,12.88,32.46,21.46,51.09,26.86l3.39,3.37l2-1.87  c6.01,3.69,11.86,4.64,17.56,2.87l2.26,1.71c1.85-3.18,5.18-4.47,9.98-3.88c9.35,0.99,18.32,0.34,26.9-1.94  c-9.85-2.67-18.83-6.95-26.97-12.84l-0.3-3.4c19.23,1.11,39.08,0.08,59.52-1.66c-2.58-5.33-8.77-7.36-13.05-7.68  c-2.73-1.03-2.73-3.69,0-7.97c-6.7,0.51-11.11-7.36-5.3-11.11c2.01-1.3,3.6-0.81,4.42,1.49l3.22-0.48  c5.71,3.53,11.72,6.49,18.04,8.88l1.05,3.08l5.4-0.07c12.72,5.61,26.17,9.29,39.78,12.02c29.32,4.28,58.49,9.28,87.53,15.01  c2.49,0.46,7.19,3.07,7.54,4.79c0.62,3.04-28.74,6.32-34.21,6.91c-41.67,4.49-83.72,1.36-125.26-2.89  c9.72,3.72,19.63,6.99,29.74,9.81c15.38,5.79,16.56,10.99,0.35,12.61c-25.02-0.6-49.94-2.24-74.77-4.9  c18.66,8.21,38.34,14.51,59.02,18.9c9.65,3.07,25.66,8.59,6.73,15.17c-25.97,2.17-52.04,1.14-77.92-1.55  c-22.85-2.38-50.69-5.72-72.66-11.65c-2.63-0.71-4.93-2.22-7.09-3.83c-2.44-2.48-7.75-2.24-10.83-3.66  c-5.58-2.58-12.44-5.11-12.5-10.75c-0.13-13.16,17.96-16.25,17.07-20.91c-2.16-11.3-44.92-2.2-55.82-8.34  c3.27-6.23,31.5-7.25,32.63-16.73c1.36-11.39-22.68-18.94-27.89-23.59C520.08,1255.15,535.09,1266.51,552.15,1270.5z" />
<path class="cls-16" d="M462,1351.03c-4-8.14-1.82-18.93,5.47-24.56c7.38-5.69,15.24-8.85,23.71-11.54c5.65,0.51,11.21,0.09,14.48,3.61  c10.59,11.41-8.83,40.19-29.52,40.69C470.97,1359.37,465.09,1353.72,462,1351.03z" />
<path class="cls-16" d="M440.62,1365.32c0.35-1.92,2.96-1.85,3.52,0.04c1.46-0.04,2.1,0.13,2.67,0.08c5.64,2.31,10.99,8.63,9.56,14.78  c-3.05,13.12-12.85,23.68-25.04,26.8c-6.58,1.69-12.75-0.81-17.56-4.79c-3.66-3.03-6.98-9.07-4.75-15.1  C413.84,1374.06,427.49,1367.12,440.62,1365.32z" />
<path class="cls-16" d="M564.55,1403.23c-2.9,4.09-7.34,6.16-11.67,5.72c-4.43-0.45-7.93-3.71-8.39-8.27  c-0.43-4.27,1.99-8.49,5.7-11.25c4.21-3.12,10.12-3.47,13.75-0.33C567.96,1392.6,567.9,1398.5,564.55,1403.23z" />
<path class="cls-16" d="M552.75,1368.78c-3.52,2.93-6.67,6.35-10.09,6.66c-5.85,0.54-8.24-4.29-7.08-9.1  c-4.54-4.93,6.06-12.45,11.92-11.79C554.57,1355.35,558.01,1364.81,552.75,1368.78z" />
<path class="cls-16" d="M486.84,1395.69c-2.23,2.4-4.83,3.61-7.19,3.84c-2.9,0.29-5.22-1.43-5.62-3.66c-0.62-3.43,0.45-6.29,2.66-8.66  c2.56-2.75,6.66-3.95,10.07-1.77C489.72,1387.35,490.01,1392.28,486.84,1395.69z" />
<path class="cls-16" d="M472.73,303.17l-367.4-0.07c-7.97-15.53,36.88-25.14,48.51-21.79c1.01-10.85,7.16-19.1,16.81-23.71  c13.97-6.68,29.47-6.45,44.07,0.69c2.19-16.85,11.19-29.87,25.31-38.21c23.43-11.97,51.63-12.32,74.64,0.53  c14.64,8.17,24.85,20.41,27.51,37.25c21.13-8.47,59.73-2.14,65.81,22.78C417.2,279.86,478.45,284.8,472.73,303.17z" />
<path class="cls-16" d="M1107.45,351.55c0.09,2.24,0.61,3.59-0.5,5.46l-311.69,0.03c-1.07-2.18-1.13-4-0.74-5.56  c3.97-15.98,48.38-20.14,62.14-19.28c7.1-22.88,41.34-26.66,61.04-18.92c10.24-39.87,69.07-48.72,103.94-30.91  c18.55,9.47,30.32,26.28,32.3,47.08C1074.23,326.74,1100.72,329.68,1107.45,351.55z" />
<path class="cls-16" d="M780.47,1033.62l2.06,1.98c-1.97,4.24-2.12,7.95-0.46,11.13c20.13-17.05,39.48-35.05,58.07-54.01  c10.85-9.72,30.93-21.23,43.94-9.47c5.78,5.22,6.7,12.08,3.88,19.11c-1.32,3.28-4.95,10.38-8.74,8.11c0.09,5.39-8.49,6-13,5.57  l-1.44,2.94l-12.83,2.82c-1.63,2.61-7.79,7.07-10.59,4.76l-1.55,3.34c-9.42,4.87-17.54,11.95-24.12,20.22l-4.45,2.04l1,2.56  c-3.28,3.11-6.15,6.51-8.62,10.2l-2.65,0.33c0.94,0.61,0.78,0.98-0.39,1.13l0.4,2.76c-4.49,6.6-8.93,13.27-13.32,20.01  c-3,3.14-4.98,5.2-8.41,1.4c-1.76-5.61-3.93-10.73-6.51-15.35l-28.46,15.26c-5.06,0.38-6.49-3.35-4.28-11.2  c4.96-16.03,9.33-32.16,13.1-48.41c1.19-19.36-22.53,4.06-27.79,9.27c-21.64,24.07-43.54,47.85-65.7,71.36  c-18.49,17.1-26.81,12.72-36.62-8.94c-2.69-0.61-4.72-0.19-6.69,1.82l-12.55,20.64c-6.77,6.98-9.89,1.68-13.3-4.88  c-4.88-15.8-10.49-31.32-16.84-46.56c-4.07-7.55-12.64-16.8-18.61-5.67l-5.07,37.15c-3.12,8.85-7.68,10.94-15.48,5.08l-17.04-23.01  c-5.52-6.64-8.02-2.76-7.48,11.64c-2.57,10.04-8.95,9.45-15.99,3.57c-7.46-9.29-15.21-18.29-23.24-27  c-1.03,8.26-1.52,16.67-1.5,25.22c-3.81,6.49-10.74-0.02-14.35-4.33c-9.8-16.2-22.08-30.71-36.84-43.54  c-5.74-9.81-11.69-19.44-17.86-28.89c-3.15-1.99-4.92-4.28-5.3-6.87l-4.84-0.47l-9.75-8.94c-8.08-4.88-7.45-1.57,1.89,9.94  l-1.35,2.33l3.51,1.6c7.31,10.93,27.82,55.22,20.08,65.85c-6.04,8.29-21.67-16.35-23.54-20.9l1.02-2.43  c-3.1,0.73-4.25-2.19-2.24-4.46c-2.83-0.83-8.09-7.43-4.85-9.63l-2.8-1.42c-3.25-7.38-7.22-14.4-11.92-21.05l1.08-2.98l-4.2-3.03  c-7-12.99-15.85-24.89-26-35.58l-1.6-4.99c-1.63,1.62-2.34,0.96-1.29-1.16l-4.71-1.71c-23-25.02-56.07-35.21-89.42-33.03  c-14.24-0.83-27.23-12.87-25.08-27.73c5.19-35.86,54.91-19.42,71.84-1.39l54.86,47.45c8.87,8.84,18.88,13.5,30.02,13.97  c8.49-3.18,14.74-1.42,18.74,5.28c2.7-1.15,3.29-0.94,2.39,1.89c7.38,4.35,14.31,9.44,20.79,15.26l1.25,3.56l2.84-0.08  c3.45,3.47,7.32,6.43,11.62,8.89l0.01,2.91c4.58,1.51,8.98,3.8,13.21,6.85l0.69,2.63l2.35-0.82c2.64,2.39,5.7,4.29,8.87,5.87  c33.11,16.55,24.43-1.88,13.17-22.81l1.41-2.5c-3.83-0.51-2.64-4.1,0.14-5.82c2.66-6.99,14.36-4.7,19.92-1.3  c8.13,4.96,18.36,18.19,21.19,27.15c3.21-1.08,4.72,0.86,3.16,3.78c3.62,2.03,6.67,4.96,9.15,8.77c3.8,2.54,6.23,5.39,7.3,8.55  l1.21-1.12c9.14,4.8,13.27,4.81,17.42-5.31c3.66-23.69,19.23-54.47,40.71-22.32c6.7,16.74,12.28,33.91,16.73,51.51  c2.6,8.38,5.96,10.7,10.07,6.98c9.61-16.49,17.91-19.26,24.91-8.29c4.07,20.62,9.08,25.96,15.01,16.01  c4.73-12.96,11.51-24.17,20.35-33.63l2.71,0.99c9.16-8.68,18.48-17.23,27.95-25.66l30.23-33.6c0,0,1.64-0.65,4.91-1.96  c1.67-3.41,9.3-7.97,11.84-3.51c9.88,2.62,15.89,3.58,24.14-3.95c22.81-23.69,44.79-48.2,65.91-73.53  c15.25-21.37,70-49.59,85.27-15.78c11.18,24.76-12.56,40.88-34.11,45.01c-35.87,0.53-64.77,12.2-84.49,44.68l16.96-0.29  c13.02,1.08,19.82,2.07,4.88,11.55c-10.03,0.67-19.83,0.84-29.4,0.5c-6.34,11.88-10.98,24.31-13.91,37.27L780.47,1033.62z" />
<path class="cls-1" d="M381.85,1063.91l-0.36,2.79c-4.73,1.35-22.58,11.89-21.68,17.02c1.66,9.54,21.99,20.26,30.6,23.3l0.97,2.94  c2.94,0.75,5.81,2.21,8.62,4.4c15.76,6.83,33.33,8.82,50.23,10.45l2.02,2.48c2.27,0.42,4.47,0.28,6.59-0.41  c11.5,3.17,23.4,4.68,35.31,5.05l4.11,2.42l2.85-0.84c7.93,5.58,17.96,8.48,27.07,4.02l2.81,1.15c5.04-1.26,7.56-1.89,7.56-1.89  c82.76,4.73,167.1,2.59,247.19-20.34l4.01,0.32c2.2-1.8,5.47-2.13,9.81-0.97c3.47-0.83,6.15-0.44,8.01,1.15  c2.07,1.3,3.08,3.64,3.04,7.01c-0.33,0.69-0.53,1.33-0.33,1.77c0.4,0.87,12.59-0.79,15.24-1.3l3.89,1.55l1.32,0.95  c-1.46,3.99-2.34,8.06-2.63,12.21l19.07,15.35l-0.14,2.89l-0.48,2.54l-51.42,13c18.09-1.22,36.11-2.92,54.06-5.09l4.12,0.87  c7.92,2.16,0.38,6.86-4.2,9.28c-15.85,4.73-32.08,7.9-48.68,9.49c-5.49,1.91-10.48,4.79-14.97,8.63l-7.47,2.73l-0.15,2.72  c-11.64,2.13-10.64,6.97,0.94,8.29l1.45,2.37l2.24,1.28c2.01,7.77,6.01,14.91,11.99,21.43l-1,2.75c4.61-0.67,5.57,9.33,3.09,11.65  c-7.41,6.94-43.56,11.36-54.83,11.36l-3.71-2.02l-5.27-0.76c-11.61-7.01-28.57-11.69-38.37,0.49l-3.02,0.19  c-1.31,0.1-3.42,0.1-4.08,1.17c-0.94,1.55-0.6,3.78,0.21,4.61c1.33,1.35,4,1.09,6.65,1.33c1.95,3.94-2.69,6.69-1.9,10.48  c-9.29-0.71-17.89-3.6-26.72-5.82c-0.58-0.84-1.16-1.72-1.38-2.73c-0.73-3.21-2.23-10.7,0.15-12.47l1.14-2.67l12.92-5.98l2.63,1.43  c2.6-0.38,4.47-1.83,5.63-4.34c-0.06-0.85-0.07-1.68,0.06-2.5c0.85-4.99,20.31-21.35,26.81-22.51l1.08-2.77  c11.67-1.01,22.18-4.21,31.52-9.6c-2.88-3.53-7.17-4.99-12.87-4.4l-2.14-2.25l-1.72-2.43c2.4-9.25-2.94-17.43-8.14-24.65l0.82-2.88  l0.99-2.97c12.1-3.3,24.35-6.19,36.75-8.68c26.5-7.07,14.45-12.88-4.52-10.58c-38.62,7.57-77.89,15.22-117.52,17.11  c0,0-2.82-0.68-8.46-2.03c-20.77,1.29-41.51,2.62-62.21,4.01l-4.45-1.61c-1.43,0.68-2.82,0.3-4.18-1.14  c-4.78-0.43-9.34-1.68-13.66-3.73c-5.53,0.98-11.39,0.23-17.59-2.24c0,0-8.61-1.4-25.83-4.2c-5.75,0.47-10.81-0.4-15.18-2.63  l-6.86,0.46l-50.64-14.62c0.83,2.92,0.53,5.31-0.89,7.19l-1.51,2.14l-16.02-2.65c-44.94-0.98,6.83,14.2,19.63,12.96l1.44,2.5  c6.42,4.86,13.07,9.65,19.95,14.37c1.03,3.11,1.19,4.6-2.44,5.45c-17.34-1.5-22.86,2.25-16.56,11.26l6.83,8.09l-0.88,3.07  c-23.71,1.95-48.81-1.1-72.59-4.19c-2.18-0.28-4.33-0.89-6.47-1.54c-2.16-0.66-4.28-1.49-6.37-2.36c-2.14-1.6-1.93-4.67,0.62-9.21  c-0.55-5.28-3.6-10.22-9.14-14.83l0.44-3.16c5.89-1.42,12.16-1.36,18.81,0.19l17.39,1.05l-43.74-11.34l-0.77-2.62  c-7.78-4.31-13.79-18.96-13.03-27.69c0.33-3.81,1.56-10.84,6.15-10.01c7.4-0.43,14.99,0.58,22.77,3.04  c10.58,1.02,20.87,3.1,30.86,6.22c1.19-2,3.42-2.57,6.68-1.69c-39.7-15.63-71.67-47.69-12.25-65.41l2.02,1.81  C380.51,1060.48,381.6,1062.54,381.85,1063.91z" />
<path class="cls-16" d="M255.13,1027.4c0.8,3.27-1.91,3.54-3.17,0.54l-2.98,2.9c-33.98,6.45-69.56,14.35-100.27,30.91  c-108.85,58.67,56.36,103.1,105.3,111.79l2.66,3.03c3.49-0.35,7.05-0.62,10.52-0.01c25.26,4.48,50.41,8.7,75.72,12.87  c3.49,0.58,6.73,2.12,9.89,3.65c28.41,3.6,56.87,5.97,85.43,8.1l6.15-1.11c34.24,1.52,68.47,3.12,102.71,4.81l6.05,1.56  c1.11-1.92,2.04-1.94,2.22,0.32c3.13-0.48,6.35-0.67,9.47,0c1.2-3.6,5.33-3.8,6.77-0.31l2.91-2.22c18.33-0.49,36.64,0.02,54.94,1.53  c18.69,3.04,20.24,11.83,1.05,16.25c-8.47,1.95-40.34,5.47-47.66,2.89l-1.52-1.23l-11.24,2.3c-6.34,1.46-12.02,0.79-17.02-2.01  c-33.96-1.17-68.09-0.42-101.93-4.03c-0.09,0.91-0.48,2.29-1.05,2.25c-28.24-2.25-58.75-5.49-86.93-9.27  c-4.91,0.32-8.34-0.83-10.31-3.46l-3.69,1.95c-76.25-11.46-159.49-26.19-229.59-59.91c-20.87-10.04-52.26-25.99-51.44-52.35  c0.29-9.37,3.58-15.89,11.64-20.95c-0.15-1.34-0.07-2.72,0.67-3.89c2.84-4.52,18.79-13.41,24.31-16.27  c58.02-30.03,133.21-39.21,197.49-45.38c4.57,2.39,0.73,5.86-3.13,7.54C284.33,1022.16,269.66,1024.56,255.13,1027.4z" />
<path class="cls-1" d="M635.24,794.59c0.87,0.65,1.8,1.95,1.26,2.57c-3.81,3.6-7.34,7.38-10.59,11.35c-0.42,3.03-2.3,5.68-5.64,7.93  c-9.42,13.29-14.14,19.93-14.14,19.93l-4.83,3.52l-1.51,3.08c-18.37,7.88-34.09,23.23-40.31,42.42l-2.87,1.69  c4.05,2.67-4.17,14.39-8.12,12.96l-5.1-1.53c-23.41-20.86-53.3-32.37-83.9-37.72l-11.62-3.65l-2.16,2.15  c-2.37-1.26-15.97,0.67-15.26,3.13c5.96,20.59,33.76,36.27,51.82,45.08c2.12,1.78,1.23,3.41-0.58,5.32  c-12.57,2.01-14.87,5.98-6.91,11.94c9.69,6.4,20.69,10.33,32.99,11.78c4.23,2.37,2.59,5.57-4.95,9.6c-2.47,2.42-2.61,5.65-0.44,9.68  c2.08,3.33,3.75,6.66,5.01,9.99l2.24,1.88c-1.03,18.4-2.06,36.81-3.09,55.22l-2.42,1.26c-15.5-18.6-22.25-33.65-41.11-25.85  l-1.7,3.29l-10.17,5.48c-3.82,3.64-7.77,5.82-11.84,6.53c-3.93,4.89-11.05,4.07-16.13,1.29c-4.88-3.71-10.96-6.4-14.47-11.72  c-4.48-2.74,0.69-13.44,5.01-12.65c0.06-0.97,0.34-1.94,1.19-2.47c4.13-2.53,21.05-11.73,24.68-11.6l2.32,2.04  c1.79,0.26,2.68,1.49,2.65,3.7c13.32,14.63,25.68-19.02,3.95-9.78l-2.14-1.92c-3.69,2.72-7.84,4.89-12.46,6.52l-17.34,10.35  c0,0-1.34-0.12-4.02-0.36c-0.49,5.87-13.85,3.54-18.15,1.98l-7.73-4.61c-1.12-0.3-1.62-1.17-2.39-1.89  c-6.34-3.43-8.29-13.28-3.17-18.46c0.99-1,1.67-1.33,3.33-0.74l1.01-2.57c1.49-0.97,30.08-9.83,31.73-9.72  c0.95,0.07,1.69,0.98,2.31,1.75c1.89-0.35,3.59,0.59,5.12,2.82c24.87,10.18,19.4-32.25-1.48-12.64c-0.79,2.92-2.21,4.55-4.26,4.92  l-2.05,2.47c-10.37,2.94-20.64,6.15-30.8,9.62l-1.51-1.21c-0.8,4.73-8.39,2.7-12.05,1.57c-9.07-2.8-26.24-14.11-21.1-25.16  c1.4-3.02,3.59-5.71,5.97-2.46l0.91-2.27c2.02,0.57,1.78-0.14-0.7-2.12c-0.29,0.99-1.04,2.23-1.83,2.04  c-8.87-2.15-40.8-15.46-30.22-27.68c1.83-2.12,5.09-3.39,6.06-0.19c5.29-2.3,10.9-1.85,16.48-1.08l77.8,9.82  c13.88-4.64,1.63-8.38-7.81-9.22c0,0-26.9-1.14-80.7-3.42l-3.19-1.67c-2.7,4.5-11.82-0.38-15.9-2.57  c-10.22-5.49-30.48-21.89-8.88-26.95c3.15-0.74,7.81-1.52,8.18,2.25c4.65,0.05,9.37,0.14,13.92,1.21  c33.39,8.8,67.07,16.6,100.89,23.35c1.36,0.27,6.41-2.59,7.55-3.6c3.67-3.28-6.58-6.16-8.73-6.68  c-35.64-7.81-71.61-13.22-107.89-16.24l-1.96-2.54l-2.94,1.74c-8.24-2.15-27.16-9.38-23.48-20.41c3.21-9.64,27.55-9.98,35.37-5.42  c1.57-2.03,3.86-1.82,6.87,0.65c8.15,5.97,16.05,12.27,23.7,18.89c10.32,7.98,10.8,4.52,1.43-10.39l1.09-2.5l1.56-2.05l50.48,11.45  c-9.1-6.74-18.23-13.6-26.66-21.22c-13.76-12.44-36.76-36.72-0.59-35.03c22.9,4.4,45.4,10.34,67.51,17.8l2.72,2.88l2.32-0.86  l29.14,36.02c2.63,2.53,5.57,3.48,4.68-1.06l-10.74-20.88l1.3-2.58c0.8-0.39,1.61-0.74,2.46-0.93c5.78-1.32,37.09,14.99,44.21,19.22  l2.68,3.95c1.64,0.8,1.52,2.74-0.34,5.82l1.63,2.08c-8.01,16.74,2.13,5.46,7.43-2.31c5.68-12.35,12.79-23.34,21.33-32.95  c4.67-1.75,6.53,0.95,5.58,8.08c9.9-10.21,18.76-21.27,26.57-33.19c4-4.71,9.14-8.62,15.22-10.18  C618.46,789.98,631.03,789.01,635.24,794.59z" />
<path class="cls-15" d="M623.43,609.38c12.94,1.41,25.96,2.12,39.06,2.14c0.5,1.68,1.89,2.52,4.17,2.53  c-2.38,1.49-5.49,2.21-9.34,2.17l-1.43,2.54l-11.25,1.34c-9.61,1.3-7.89,3.23,5.17,5.78c20.39,2.38,40.74,4.95,61.05,7.7  c6.55,0.91,8.32,3.18,5.33,6.81l-38.75,5.02c15.84,3.18,31.96,5.3,48.16,5.1l5.47,2.18c5.96,5.25-5.29,8.79-10.13,10.13  c-19.39,2.7-38.83,5.04-58.32,7.02l32.43,7.11c1.26,1.66,0.63,3.26-0.64,4.87l-62.43,9.97l11.64,1.48  c12.63,4.15,6.76,7.73-4.52,10.92c-17.4,4.91-38.79,5.37-56.6,2.57c-6.06-0.95-22.47-3.77-25.51-7.95  c-3.85-5.29,14.52-7.94,17.93-8.18l-66.38-9.48c-1.29-1.5-0.98-3.16-0.12-4.88l31.08-7.21c-20.74-1.19-41.18-3.71-61.34-7.57  c-5.94-1.74-8.21-4.18-6.83-7.32l6.11-2.33c16.66-0.18,33.25-2.07,49.52-5.66l-39.61-4.85c-2.22-2.07-2.46-3.75-0.72-5.04  l12.79-3.35c21.26-1.78,42.3-4.69,63.13-8.73c-5.29-1.75-11.31-2.72-18.06-2.89c-7.22-0.64-9.64-3.04-7.27-7.2  c14.48-1.92,29.09-2.83,43.84-2.72c1.86-0.13,3.5-0.71,4.92-1.77c0.1-0.92,0.39-2.29,1.04-2.35c8.13-0.7,20.11-0.58,28.32-0.17  C619.49,606.28,622.19,607.04,623.43,609.38z" />
<path class="cls-16" d="M1133.29,1085.34c6.15,4.62,8.29,9.04,7.98,16.63c-1.02,25.49-38.4,43.28-59.46,52.2  c-89.45,37.87-192.93,55.5-290.04,59.92c-1.89,0.09-3.81-0.21-5.75-0.52c-1.95-0.31-3.87-0.8-5.78-1.33  c-3.65,0.14-11.73-1.5-12.64-4.92c-1.93-7.17,7.11-6.17,10.41-8.47l7.97-3.16l94.92-9.62c54.48-7.56,120.23-20.51,169.42-45.78  c110.54-56.8-64.22-102.45-110.25-108.95l-1.2-2.56c-18.28-2.12-36.41-5.19-54.38-9.21l-0.86-2.58c-3.07-1.21-2.14-2.74,0.99-2.28  c-0.6-3.06,1.65-4.5,4.15-2.61l3.22-2.15c69.46,7.68,152.82,17.27,214.73,51.83c6.63,3.7,22.7,13.62,26.26,19.64  C1133.66,1082.6,1133.5,1084.06,1133.29,1085.34z" />
<path class="cls-7" d="M352.86,1209.44l2.64,1.36c3.38,7.98,7.9,15.53,13.55,22.64l-1.14,2.83c-1.76,0.48-3.52,0.92-5.31,1.18  c-1.77,0.26-3.52,0.47-5.25,0.35c-33.92-2.3-70.29-8.62-103.58-15.75c-1.72-0.37-3.37-1.08-5.04-1.82c-1.68-0.75-3.29-1.65-4.88-2.6  c-19.29-3.35-38.49-7.13-57.63-11.34l-6.78-3.69l-3.54,0.47c-19.62-5.06-39.42-11.19-58.54-18.25  c-10.23-3.78-20.55-7.66-30.33-12.53c-0.98-0.49-1.81-1.29-2.64-2.15c-0.85-0.87-1.58-1.86-2.28-2.89l-2.34-1.15  c-0.23,1.03-0.54,0.96-0.92-0.09c-32.2-17.17-46.71-50.54-16.39-78.78c4.15-3.86,12.05-11.19,17.33-9.05  c-13.48,13.58-12.04,33.97,2.49,47.03C132.93,1170.76,287.57,1202.48,352.86,1209.44z" />
<path class="cls-7" d="M1106.31,1172.05c-0.15,1.05-0.48,1.02-0.97,0.01c-1.95,1.19-4.01,2.33-6.17,3.42  c-0.33,1.13-0.72,1.16-1.17,0.07l-2.3,1.16l-2.33,3.13c-11.85,4.7-23.93,8.58-36.26,11.65l-3.51-1.86l-1.33,1.05  c-0.22,1.04-0.59,1.02-1.1,0.02c-5,2.42-10.47,3.75-16.41,3.98c-22.21,5.95-44.49,11.67-66.83,17.15c-0.17,1.07-0.57,1.04-1.17,0.05  l-3.48,1.15c-1.06,0.85-2.15,1.65-3.32,2.31c-1.15,0.65-2.28,1.26-3.48,1.51c-8.43,1.76-16.94,3.14-25.44,4.51  c-38.09,4.53-75.88,10.32-113.63,16.25c-1,0.16-2.04,0.05-3.1-0.1c-1.1-0.16-2.18-0.48-3.25-0.84c-1.08,0.16-2.1,0.53-3.12,0.96  c-4.27,1.78-11.44,4.33-14.44,0.08c-3.81-6.19-14.48-17.09-13.24-25.46c95.19-3.59,190.36-18.63,280.11-52.09  c24.06-8.97,46.67-18.62,65.94-34.79c12.1-10.16,17.7-27.18,7.01-40.01c5.02-2.24,11.87,5.53,15.14,9.54  C1176.05,1128.65,1137.83,1161.15,1106.31,1172.05z" />
<path class="cls-2" d="M1027.73,653.82l-2.42,4.48c-15,10.41-28.2,23.49-37.57,39.23l-4.27,2.75l-74.92,0.18  c-6.36-4.4-10.08-10.69-12.29-17.34l1.06-2.35l70.64-0.59c-19.35-25.27-54.83-18-77.07-0.17l-4.78,0.85  c-3.09-0.69-6.61-0.03-9.75-0.62c-1.21,0.39-2.43,0.73-3.67,0.91c-1.21,0.18-2.4,0.33-3.53,0.16c-26.61-3.99-52.2-9.72-78.26-16.23  c-3.95-0.99-9.15-3.56-11.82-6.65c-2.01-2.33-4.96-6.27-1.22-7.94c-4.41-0.56-2.95-9.74,1.7-8.6c42.84,5.1,85.87,5.95,129.62,7.71  c4.63,0.19,9.57,4.8,13.75,1.3c11.24-9.43,22.81-18.65,38.27-20.43C985.24,627.72,1011.71,636.46,1027.73,653.82z" />
<path class="cls-2" d="M712.33,785.24l2.81,2.23c1.58,5.46,2.66,11.01,3.23,16.67c10.37,0.49,21.04-0.52,30.58-4.9l-2.84-15l2.41-1.44  c-1.96-3.24,0.52-6.21,4.06-6.06c-0.01-0.92,0.25-2.33,0.82-2.34c47.08-0.62,96.41-0.57,143.79,0.43c7.68-0.15,15.37,0.23,22.7,2.41  c4.19,2.54,0.48,5.3-2.54,7.53c-49.32,16.59-98.88,32.68-148.7,48.27l-2.08-1.8c-3.3,2.05-6.85-3.38-8.21-6.24  c-3.22,2.06-7.45,2.79-12.69,2.2c-5.05,1.49-9.46,1.61-13.23,0.37c-3.05-0.39-7.68-3.74-5.99-7.04c7.34-5.19,6.51-5.39-2.5-0.6  c-2.23,1.98-5.41,3.03-9.56,3.15c-19.28,6.82-38.28,14.35-57,22.59l-2.29-1.8l0.26-3.59c9.79-7.48,20.15-14.17,31.09-20.07  c-10.56-1.49-20.29-7.22-25.03-16.93c-8.71-0.31-17.24,0.7-25.59,3.03c-3.67,2.22-6.98,2.95-9.91,2.2  c-1.14-6.63,6.86-8.28,9.34-13.92c2.54-1.71,5.97-2.21,10.31-1.5c10.96-2.59,21.32-7.47,31.09-14.65c5.47-2.66,11.7-4,17.8-3.02  C700.37,776.36,710.95,779.16,712.33,785.24z" />
<path class="cls-6" d="M783.97,609.31c7.29,1.19,14.64,2.16,22.03,2.88c0,0,0.08,0.92,0.24,2.77c4.92-0.46,14.31,0.88,15.07,6.14  c-13.79,7.62-30.72,9.82-41.76,20.79c-1.97,1.96-2.02,5.92-1.7,8.6l-0.68,2.38c-14.88,0.7-29.76,1.39-44.64,2.09l-1.49-2.28  c-21.7,1.01-44.14-2.39-67.1-7.89l52.99-6.87c-20.85-8.27-64.59-3.78-83.91-15.61c7.56-5.42,16.45-5.04,24.28-6.11  c9.83-0.24,11.08-1.59,3.75-4.06l0.48-1.85l33.37-1l1.09-2.34c0,0,28.85,0.01,86.55,0.02L783.97,609.31z" />
<path class="cls-6" d="M585.97,609.6c3.33,7.6-41.96,2.51-48.78,7.12c10.8,4.98,21.54,0.67,32.12,7.52  c-24.55,10.14-59.83,5.85-83.06,14.57l53.79,6.49c-23.04,6.42-46.31,9.17-68.72,8.84c-0.12,0.91-0.43,2.27-1.08,2.33  c-5.18,0.44-27.45,0.53-31.7-0.46l-1.66-2.37c1.32-4.37-1.25-8.24-1.93-11.62c-2.19-0.67-3.91-2.56-5.18-5.66  c-6.76-5.74-14.09-10.86-21.99-15.35l0.16-2.91l1.17-2.63c8.24-3.87,16.8-5.92,25.66-6.16l0.81-2.34  c49.65,0.1,99.31,0.19,148.97,0.29L585.97,609.6z" />
<path class="cls-3" d="M385.52,1251.34c11.85,19.07,42.68,25.45,30.46,58.46l-1.45,2.28c-11.46,0.83-50.57,1.13-58.13-6.14  c-3.51-3.38-2.81-7.42,0.11-11.01c4.74-4.92,9.08-9.78,13.02-14.61c-20.2-1.75-40.68-3.84-60.84-7.26  c-7.24-1.23-14.44-2.52-21.58-4.2c-5.66-1.33-18.87-4.55-22.57-8.87c-6.11-7.15,6.79-15.83,13.23-16.58  c3.83-1.1,5.75-1.65,5.75-1.65c31.91,5.9,63.97,8.49,96.19,7.77L385.52,1251.34z" />
<path class="cls-16" d="M919.89,777.24l-167.32-0.5l-3.85,0.04c-18.1-14.25-39.02-19.88-60.95-24.68c-0.23,0.88-0.62,2.15-1.3,2.2  c-3.1,0.22-13.11-0.69-13.59-4.04l-2.49,0.83c-5.53-2.41-11.72-2.18-18.57,0.72l-2.62-1.97l-4.53,2.88l-16.47,3.07  c-8.62,3.05-17.27,4.92-25.95,5.62c-1.76,1.72-4.09,3.11-7,4.16c2.2,2.04,2.57,3.8,1.12,5.28l0.13,2.89  c-6.28,3.78-12.48,7.52-18.61,11.21c1.65,1.72,0.83,2.43-1.34,1.27l-1.21,1.32c-0.95,4.64-3.37,9.06-7.27,13.26  c-10.13,19.22-20.16,38.49-30.1,57.8l-3.9,1.57c0.8-1.79-0.11-4.03,0.34-5.82l-1.41-3.97c10.12-39.75,25.79-84.31,64.9-103.96  c49.31-24.77,110.16-5.39,157.48,14.55c13.3,3.95,27.34,5.79,42.11,5.54c38.12-0.57,75.74,0.95,112.86,4.56  C915.98,771.61,919.15,773.67,919.89,777.24z" />
<path class="cls-16" d="M811.05,1236.66c43.38-10.5,97.7-11.76,152.23-23.63l3.48-1.15c0.38,0,0.79-0.02,1.17-0.05  c16.46-5.15,33-7.19,49.62-6.14c12.77,3.27,12.25,14.63,2.03,17.6c-62.01,17.99-139.28,31.46-203.79,32.17  C803.57,1255.6,794.97,1238.66,811.05,1236.66z" />
<path class="cls-16" d="M363.32,847.63c3.22,4.22,6.83,11.83,8.49,16.97c-4.81,10.9-28.24-19.98-41.58-23.62  c-11.4-3.27-23.08-5.44-35.03-6.5c-16.4-3.55-34.44-14.55-26.99-33.82c9.58-24.78,37.91-13.33,53.29-1.61  c16.63,12.68,30.17,29.78,42.86,46.09L363.32,847.63z" />
<path class="cls-16" d="M243.84,1217.62c41.59,8.64,82.58,15.76,124.07,18.64c0.16-0.94,0.57-2.18,1.32-2.22  c6.05-0.32,21.45,5.37,21.62,12.41c0.07,2.78-1.15,4.79-4.03,3.93c-0.57,0.59-1.17,0.65-1.3,0.96  c-36.54,3.98-72.33-3.69-107.73-7.93l-4.18,1.54c-20.27-3.14-40.01-8.18-59.24-15.1c-3.9-1.77-8.89-4.4-7.11-9.38  C210.36,1211.77,236.55,1215.13,243.84,1217.62z" />
<path class="cls-16" d="M1105.24,1026.56c-66.29-16.13-131.83-26.28-199.2-31.8c-3.17-0.26-2.57-3.64-2.28-5.03  c0.51-2.53,2.28-3.61,5.88-3.39c88.68,5.51,175.93,20.32,263.14,45.07C1150.2,1035.08,1128.04,1032.11,1105.24,1026.56z" />
<path class="cls-7" d="M766.57,831.25l0.43,4.78c-13.39,30.58-20.13,65.59-9.38,98l-0.8,4.73c-0.04,1.73-0.11,3.59-1.03,5.11  c-4.28,7.11-10.86,16.59-17.66,20.62c-2.49,2.47-10.6-7.94-11.16-9.82c1.78-9.85,3.86-19.66,6.24-29.42  c-11.85,2.27-15.03-4.27-13.68-14.94l18.2-60.38c-1.75-0.17-2.56-0.73-2.87-2.73c-1.11,1.44-1.38-0.32-1.07-2.25  c0.22-1.42,19.62-16.77,22.01-18.4c3.63-0.97,4.48-1.49,2.55-1.55C762.31,825.46,763.3,828.46,766.57,831.25z" />
<path class="cls-6" d="M328.22,682.06l-0.64,2.87l-7.64,2.7l56.69,3.69c6.03-0.15,10.97,1.42,14.83,4.71c7.48,1.37,0.96,5.66-3.19,7.7  c-25.89,5.48-52.16,8.41-78.8,8.8c1.56,2.55,2.1,5.29,1.12,8.15c-4,11.74-39.82,15.36-50.89,15.77c-4.93,1.22-8.27,0.63-10.02-1.75  c-1.44-5.15-3.58-10.22-4.28-16.45c15.17-3.36,64.73-7.4,57.27-33.57C311.58,682.81,319.9,682.93,328.22,682.06z" />
<path class="cls-16" d="M1051.16,1190.71l1.1-0.02l1.33-1.05c14.67-1.73,27.91-8.97,42.1-12.92l2.3-1.16c0.33,0.08,0.86,0.06,1.17-0.07  l6.17-3.42c0.3-0.09,0.66,0.05,0.97-0.01c12.27-5.39,24.03-11.78,35.27-19.17c21.07-10.71,30.59,1.03,11.99,16.46  c-20.6,17.1-78.05,45.54-104.54,37.78C1036.59,1203.47,1040.56,1192.96,1051.16,1190.71z" />
<path class="cls-16" d="M757.9,969.15l-0.72,3.29c-7.09,7.17-14.98,12.32-23.66,15.45c0.17,3.48-5.63,4.75-8.43,3.56  c-9.05-3.86,6.08-22.45,10.18-26.97l2.88,0.02c6.51-9.02,12.36-17.9,18.68-25.73l0.28-4.15c7.09-9.91,37.26-50.76,49.45-28.34  c1.98,3.63,1.82,7.59,0.67,11.47c-4.36,14.63-33.71,41.06-46.29,51.44L757.9,969.15z" />
<path class="cls-6" d="M361.12,1024.38c4.14,8.35,11.47,15.8,13.64,25.45c-0.25,3.51-3.62,3.03-4.55-0.01  c-21.63-1.04-41.79,3.44-61.78,11.81l-3.58-1.13c-2.04-2.99-0.81-6.04,3.69-9.15c8.96-6.03,18.2-11.59,27.73-16.69  c-0.55-1.19-1.5-1.65-2.83-1.52c-30.66,3.07-61.15,6.86-90.58,16.52l-8.33,0.23c-1.84-3.18,0.17-6.03,6.03-8.56l11.4-5.12  c-2.32-4.35-2.32-7.11,0-8.28l3.17-0.54c31.48-7.14,64.59-8.75,96.84-6.81C355.78,1020.77,358.73,1021.17,361.12,1024.38z" />
<path class="cls-16" d="M78.83,1166.02c0.61,0.07,0.76,0.09,0.92,0.09l2.34,1.15c31.51,16.02,64.74,24.47,97.34,35.33  c13.69,3.5,6.4,15.62-4.6,14.72c-23.62-1.94-50.2-10.57-71.88-20.15c-13.68-6.05-38.75-18.06-49.08-27.94  c-2.87-2.75-2.74-3.1-1.26-6.28C56.12,1155.37,73.93,1161.26,78.83,1166.02z" />
<path class="cls-7" d="M125.39,747.76c3.51,2.14,3.32,10.59,0.28,13.12c0.89,3.57,1.79,7.23,1.66,10.93c-0.62,17.91-1.48,36-2.5,53.9  c-0.21,3.7-1.34,7.26-2.51,10.75c0.93,0.56,0.81,0.95-0.29,1.15c-0.1,0.95-0.3,2.36-1,2.53c-8.08,1.87-21.18,3.93-29.38,4.53  c-3.47,1.27-5.85,0.84-7.15-1.27c18.59-26.97,26.02-59.93,29.46-93.11C117.63,748.16,121.69,748.48,125.39,747.76z" />
<path class="cls-7" d="M884.73,973.67c2.49-2.51,5.9,0.33,5.62,3.39c4.93-0.7,7.09,6.66,7.91,10.95c1.46,7.68-1.17,22.05-9.5,24.1  c-1.19,1.15-2.57,2.09-4.15,2.61c-2.05,2.41-7.1-1.14-5.39-4.25c6.42-5.51,10.36-14.85,6.3-21.81c-4.56-7.8-14.63-9.63-23.48-6.62  c-26.62,9.08-54.09,52.3-79.93,66.79c-6.87-3.33-2.01-10.4-1.63-15.22l2.22-3.77c15.59-10.5,29.98-22.71,43.18-36.64l6.9-4.73  c8.25-9.8,23.23-17.92,36.4-18.83C874.18,969.3,882.53,968.76,884.73,973.67z" />
<path class="cls-16" d="M88.73,1022.92c-21.99,4.74-42.23,11.14-63.45,10.43c67.76-22,135.56-33.3,204.04-42.05  c5.82-0.74,10.84-0.72,12.53,6.73C189.75,1002.41,140.21,1011.83,88.73,1022.92z" />
<path class="cls-16" d="M485.07,832.11l11.23,21.58c1.19,2.28,0.8,6.56-1.22,7.15c-2.21,0.64-5.28-0.53-6.99-2.64l-29.73-36.73  c-6.18-5.96-12.24-14.71-16.82-22.23c-4.36-7.17-15.24-26,0.68-27.27c3.95-0.31,9.43,2.2,11.75,5.35  c11.7,15.92,21.12,30.99,30.42,48.43c0.46,0.86,0.58,1.91,0.7,3C485.19,829.85,485.15,830.98,485.07,832.11z" />
<path class="cls-16" d="M468.96,748.88c-13.85-6.56-58.95-50.64-36.59-65.5c11.86-4.12,21.69,3.96,26.06,15.18  C461.98,714.45,466.76,729.45,468.96,748.88z" />
<path class="cls-6" d="M317.52,869.57c-2.67-2.89,0.51-4.74,3.77-4.5c16.76,1.52,113.59,11.89,120.8,21.25  c1.67,2.17,0.32,5.92-1.82,6.79c-1.81,0.73-5.42,3.88-8.45,3.3C393.31,888.97,355.26,879.49,317.52,869.57z" />
<path class="cls-16" d="M826.6,880.56c1.67-21.25,14.46-43.24,30.95-53.79c7.67-4.9,17.28-2.24,21.48,3.39c4.62,6.2,1.5,15.28-5.75,20  L826.6,880.56z" />
<path class="cls-2" d="M145.39,761.65l2.27,1.24c-1.57,23.37-3.14,46.74-4.71,70.12l-2.43,1.24c0.22,1.04-0.12,1.17-0.98,0.46  l-0.75,2.43c-1.62,0.44-14,1.87-14.63,1.49c-0.87-0.52-1.5-1.18-1.83-2.17c0.2-25.22,1.75-50.42,3.34-75.59  c1-3.1,16.54-2.79,18-1.92C144.63,759.53,145.06,760.64,145.39,761.65z" />
<path class="cls-16" d="M1004.58,908.13c-4.25,23.3-49.29,12.31-68.5,9.3c16.35-11.47,46.03-30.16,62.65-21.09  C1001.86,898.05,1005.63,902.37,1004.58,908.13z" />
<path class="cls-16" d="M527,788.5c-9.62-13.53-45.73-56.32-24.6-64.85C529.62,712.66,531.61,770.48,527,788.5z" />
<path class="cls-5" d="M249.69,734.67l2.67,0.85c4.14,14.42,9.6,34.48-0.38,47.68c-2.87,3.79-7.91,9.54-11.93,5.21  c-6.08-6.55-17.29-37.25-20.43-47.31l0.7-4.16c-1.02-0.22-0.95-0.49,0.11-0.82L249.69,734.67z" />
<path class="cls-11" d="M397.11,670.72c1.51,1.35,1.26,2.75-0.75,4.2c4.95,4.62,7.9,11.34,3.59,17.38c-2.15,3.01-5.35,6.73-8.5,3.72  c-24.15-5.02-49.13-3.55-74.87-6.21c0.6-6.48,7.44-5.36,11.63-7.75C351.37,679.64,374.56,676.69,397.11,670.72z" />
<path class="cls-2" d="M160.81,760.58l1.59,0.2c3.11,21.77,5.57,43.84,7.38,66.19l-2.19,1.63c1.17,0.85,2.15,1.9,2.6,3.3  c0.8,2.49,0.35,17.91-0.11,21.47l-2.25,3.15c-4.09,5.27-9.55-3.37-11.34-7.94c-3.23,0.97-5.2-13.05-4.91-14.52l2.03-1.99  c-0.69-1.38-1.34-2.77-1.83-4.21c-0.49-1.42-0.95-2.82-1.05-4.25c-1.34-18.02-2.47-36.82-2.19-54.85c0.02-1.38,0.39-2.77,0.8-4.17  c0.41-1.42,0.99-2.8,1.62-4.15C153.2,758.24,159.25,757.34,160.81,760.58z" />
<path class="cls-6" d="M331.53,902.41c-1.68-2.3,0.24-4.71,2.59-5.56c31.21,1.1,62.68-0.71,93.82,4.03c4,0.61,6.98,5.16,6.18,7.6  c-1.05,3.21-4.98,5.41-8.87,4.97C393.63,909.91,362.74,904.19,331.53,902.41z" />
<path class="cls-5" d="M204.03,737.29c1.43-2.03,2.22-1.45,1.13,0.86l2.46,0.23c4.12,17.33,8.25,34.66,12.37,52l-1.96,1.89  c-2.65,0.67-5.68-0.01-9.08-2.07c-4.21-0.26-7.11-1.57-8.7-3.93c-2.82,0.58-3.02,0.33-2.05-2.34l-3.57-3.38  c-2.7-6.18-12.94-33.18-11.86-37.43c0.22-0.87,0.59-1.69,1.01-2.51L204.03,737.29z" />
<path class="cls-16" d="M355.35,779.73c-17.21-2.29-31.41-16.91-35.61-32.68c-1.61-6.04,2.65-12.31,6.8-13.84  c5.4-1.99,9.85,1.65,12.86,6.77C345.01,752.41,350.32,764.67,355.35,779.73z" />
<path class="cls-2" d="M179.19,759.2c2.82,2.32,4.5,5.97,5.05,10.97c2.19,3.81,2.85,7.29,1.98,10.43c2.67,1.38,5.73,7.73,2.51,9.67  l2.76,2.36c1.32,3.44,7.11,23.11,6.42,24.6c-0.3,0.64-0.73,1.22-1.19,1.78c-1.46,2.68-7.4,5.57-10.34,3.79  c-0.22,1.04-0.61,1.03-1.16,0.04c-1.03-0.86-2.02-1.75-2.88-2.75c-0.86-1-1.68-1.97-2.12-3.08c-6.43-16.05-11.59-32.11-15.73-48.89  c-0.29-1.16-0.19-2.43-0.08-3.74c0.11-1.32,0.39-2.62,0.71-3.91C165.74,756.67,177.58,755.76,179.19,759.2z" />
<path class="cls-16" d="M980.64,775.18c6.47,7.59-1.29,22.33-12.93,25.73c-5.85,1.71-13.41,0.99-16.59-5.08  c-5.28-10.08,4.36-21.36,14.61-24.27C971.39,769.96,977.02,770.94,980.64,775.18z" />
<path class="cls-16" d="M283.35,980.83c3.59,0.31,3.68,8.35,0.27,9.17c2.08,3.72-3.09,6.55-6.29,7.96  c-11.96,5.26-30.11-4.13-31.11-17.5c-1.25-16.62,19.74-17.04,30.71-9.48C279.85,972.97,286.2,977.52,283.35,980.83z" />
<path class="cls-16" d="M324.57,991.5c4.6-3.06,13.02,5.75,14.91,10.28c7.8,18.65-18.77,24.91-30.85,12.12  c-6.39-6.77-9.8-21.3,2.06-22.57C312.52,988.02,324.09,986.61,324.57,991.5z" />
<path class="cls-6" d="M165.11,760.47c4.73,21.34,11.38,42.34,20.1,62.37c-2.18,5.31-12.77,8.84-17.64,5.76l-6.77-68.02  c-0.79-0.76-0.6-1.15,0.53-1.2C163.03,756.32,165.33,757,165.11,760.47z" />
<path class="cls-6" d="M150.94,760.44c-0.43,23.58,1.1,47.15,2.66,71.64c0.75,3.63-11.51,5.52-13.08,2.17l4.88-72.6  C140.23,757.06,149.81,752.59,150.94,760.44z" />
<path class="cls-16" d="M952.56,835.64c-3.47,8.68-17.69,18.5-25.41,10.11c-7.46-8.11,3.03-21.94,11.64-24.89  c4.85-1.66,9.02-1.32,12.12,1.73C953.94,825.57,954.83,829.97,952.56,835.64z" />
<path class="cls-9" d="M738.03,1258.69c-0.99,2.26-3.2,3.48-6.61,3.67c0,0-3.66,1.71-10.97,5.14c-2.17,2.35-4.42,3.21-6.77,2.59  c-7.33-3.58-15.64-5.99-22.31-11.48C702.01,1242.6,723.39,1248.02,738.03,1258.69z" />
<path class="cls-16" d="M796.96,844.1c11.35,10.58-17.43,25.54-26.32,30.16c-1.15-11.99,3.6-25.71,13.7-31.62  C788.65,840.12,794.1,841.44,796.96,844.1z" />
<path class="cls-5" d="M357.32,932.64c-3.45,0.07-3.09-3.76,0.21-4.4c19.38-2.26,61.82-10.93,78.21-6.39  c1.64,0.45,1.52,2.69-0.06,3.06c-1.27,0.3-2.53,1.55-3.97,1.66L357.32,932.64z" />
<path class="cls-5" d="M139.53,834.71l2.29,1.55c-0.12,8.82-1.39,38.5-15.66,34.11c-8.39-2.59-7.04-23.18-6.47-31.04l2.34-1.7  c0-0.38,0.29-0.77,0.29-1.15L139.53,834.71z" />
<path class="cls-7" d="M328.04,979.62c0.38,0.43,0.88,0.76,1.29,1.16c2.61,3.25-1.54,8.9-4.75,10.73c-3.76-1.94-10.05,0.82-13.87-0.17  l-3.99,1.56c-6.84-0.69-13.71-0.86-20.61-0.52l-2.47-2.39l-0.27-9.17l0.73-2.36c13.3-0.38,26.6-0.73,39.9-1.03L328.04,979.62z" />
<path class="cls-16" d="M938.21,958.73c-3.67,3.02-7.92,4.45-12.57,2.97c-3.38-1.08-6.14-4.36-5.63-9.38c0.34-3.4,2.59-7.09,6.5-9.39  c4.68-2.75,11.04-2.5,14.67,1.82C944.46,948.65,942.9,954.86,938.21,958.73z" />
<path class="cls-16" d="M487.34,794.28c5.91-2.9,12.18-0.35,14.84,4.46c2.64,4.77,1.32,11.49-3.8,14.11  c-4.82,2.47-11.22,1.12-13.98-2.94C481.2,805.21,481.64,797.07,487.34,794.28z" />
<path class="cls-16" d="M385.28,719.42c6.22-2.86,12.05-0.69,14.69,4.6c2.32,4.67,1.43,11.32-5.28,14.09  c-3.59,1.48-9.95,1.01-12.92-4.31C379.74,730.19,379.92,721.89,385.28,719.42z" />
<path class="cls-16" d="M830.24,724.32c-2.9,3.35-6.65,5.41-10.41,5.16c-3.95-0.26-7.81-3.16-8.26-7.3c-0.44-3.98,2.01-8.06,5.23-10.72  c4.1-3.38,9.68-3.87,13.26-0.9C834.21,714.02,834.02,719.96,830.24,724.32z" />
<path class="cls-16" d="M863.88,706.49c-2.24,3.54-5.79,5.53-8.76,6.26c-3.73,0.91-7.15-1.63-8.16-4.15  c-1.53-3.84-0.28-8.05,1.79-11.04c2.87-4.16,7.88-6.6,12.58-4.4C865.68,695.19,867.02,701.52,863.88,706.49z" />
<path class="cls-16" d="M412.57,743.96c5.41-2.88,11.33-0.83,13.79,4.03c2.2,4.35,1.15,10.43-3.57,12.69  c-4.68,2.24-10.61,1.41-13.56-3.22C406.69,753.45,407.18,746.83,412.57,743.96z" />
<path class="cls-16" d="M726.93,710.19c-1.9,4.02-5.49,6.48-8.21,6.99c-4.45,0.83-7.91-1.45-9.01-4.66c-1.35-3.96,0.19-7.72,2.54-10.85  c2.77-3.68,7.25-5.33,11.14-3.84C727.92,699.56,729.26,705.27,726.93,710.19z" />
<path class="cls-16" d="M890.35,977.05c-2.05-0.18-3.87-2.62-5.62-3.39c-3.84-0.76-2.26-7.26-0.92-10.15  c8.11-17.56,31.8-6.24,17.32,10.35C898.78,976.55,893.05,980.48,890.35,977.05z" />
<path class="cls-16" d="M561.91,739.59c-1.85,3.28-4.58,5.25-6.52,6.28c-3.6,1.91-7.05,0.73-8.27-1.42c-2.13-3.75-0.78-7.83,0.36-10.86  c1.8-4.8,5.9-6.4,10.82-5.56C562.92,728.81,564.71,734.64,561.91,739.59z" />
<path class="cls-4" d="M218.04,792.27c1.04,0.19,1.03,0.56,0.05,1.09l1.03,1.17c1.03,0.2,0.99,0.6,0.02,1.17  c3.13,7.55-3.49,10.41-9.33,12.58c-4.72-1.64-8.95-11.19-8.02-15.99c-3.8-0.26-4.42-3.88-1.53-6.03  C206.5,786.77,213.14,788.29,218.04,792.27z" />
<path class="cls-16" d="M268.64,875.25c-2.2,2.63-4.76,4.18-6.92,4.59c-3.84,0.72-6.34-0.95-6.84-4.15c-0.53-3.38,0.65-6.15,2.85-8.75  c2.67-3.17,7.04-4.65,10.62-2.45C271.67,866.52,271.56,871.75,268.64,875.25z" />
<path class="cls-5" d="M418.87,947.82c3.26,0.26,3.75,3.61,0.62,4.91l-35.05,10.53c-3.42-0.03-3.24-3.87,0.06-4.56  C396.02,955.79,406.63,948.09,418.87,947.82z" />
<path class="cls-16" d="M375.09,764.93c4.27-1.68,8.75-1.08,10.07,3.39c1.01,3.41-1.12,7.33-4.95,9.46c-2.73,1.52-7.22,1.07-8.62-2.39  C369.82,771.01,369.83,767,375.09,764.93z" />
<path class="cls-16" d="M965.97,880.46c-1.95,2.38-4.5,3.39-6.59,4.35c-3.97,1.83-5.43-0.49-6.24-3.46c-0.96-3.51,0.45-6.3,2.69-8.74  c2.42-2.64,6.76-3.96,9.82-2.46C969.51,872.05,968.61,877.21,965.97,880.46z" />
<path class="cls-7" d="M220.43,736.13c0.09,0.2-0.12,0.57-0.11,0.82c-2.58,3.29-12.41,4.61-15.16,1.21c-0.09-0.4-0.67-0.94-1.13-0.86  c1.05-3.14-3.05-8.88,1.32-9.46c2.89-0.38,8.14-2.61,10.34-1.08C218.24,728.54,218.89,733.26,220.43,736.13z" />
<path class="cls-5" d="M82.85,844.61c2.86,4.59-6.44,13.97-10.5,16.49c-8.36,6.75-11.7-9.82-5.69-13.71  C72.07,846.48,77.32,844.46,82.85,844.61z" />
<path class="cls-7" d="M198.21,783.93c1.08,0.3,1.6,1.51,2.05,2.34c0.93,1.73,0.47,4.41,1.53,6.03c-3.08,3.99-11.64,3.32-13.07-2.02  c-0.37-2.79-3.4-6.41-2.51-9.67C188.12,776.79,196.54,780.5,198.21,783.93z" />
<path class="cls-16" d="M355.34,962.94c-1.39,4.37-6.76,3.45-9.6,1.28c-1.93-1.47-5.25-4.41-3.33-7.98c1.38-2.56,6.11-1.59,8.47-0.39  C352.85,956.87,356.56,959.08,355.34,962.94z" />
<path class="cls-15" d="M733.25,523.83c1.07,0.17,1.12,0.57,0.2,1.19c-2.38,2.8-3.57,4.2-3.57,4.2  c-32.11,12.17-61.19,28.87-87.23,50.1l-5.21,1.76c-0.11,0.92-0.46,2.32-1.11,2.33c-19.03,0.53-43,0.82-61.8-0.59  c-3.98,0.74-6.41-0.07-7.28-2.41l-5.55-1.81c-26.39-20.21-55.27-36.63-86.64-49.26c0,0-1.27-1.47-3.8-4.41  c17.79-57.5,70.45-96.16,130.52-96.53C661.85,428.01,723.53,465.18,733.25,523.83z" />
<path class="cls-6" d="M403.12,493.09l1.17,0.09c18.31,6.6,35.87,15.16,52.68,25.69l13.05,6.12c0.37,0.12,0.86-0.14,1.25-0.07  c33.61,16.14,68.19,29.83,95.99,55.48l-1.89,2.36c-14.94,2.74-29.61,3.23-44,1.48c-11.64-4.62-24.14-6.47-37.48-5.57  c-7.97-4.89-16.06-8.12-24.26-9.69c-11.09,2.97-24.59,2.76-32.16-7.22c-10.73-7.72-16.07-7.47-28.03-1.39  c-13.1-2.88-24.38-2.22-37.43,0l-2.42-2.6l-3.43-1.16c-17.99-28.14-51.91-33.98-79.15-15.03l-2.34,0.5  c-9.43-15.03-22.24-26.44-41.02-25.37l-2.69-2.17c1.19-5.32-3.17-10.39-5-15.29c8.85-4.62,18.69-7.12,28.33-9.61  c26.95-9.22,53.02-8.76,80.88-6.39C357.85,485.18,380.97,487.94,403.12,493.09z" />
<path class="cls-8" d="M187.74,511.2l2.84,1.22c-0.29,8.68,1.26,11.52,4.65,8.51l2.51,1.58l-3.34,18.92l-1.6,2.16  c0,0-5.59-0.72-16.77-2.16l-1.32-2.53l6.78-44.24C184.99,499.54,185.1,505.79,187.74,511.2z" />
<path class="cls-5" d="M975.05,495.66c-0.59,0.47-1.09,1.85-2.19,1.49c-4.54,0.19-6.81,0.28-6.81,0.28  c-36.1-11.42-73.63-18.74-111.44-14.28c-40.7,4.8-75.19,22.35-110.38,40.97c-4.17,2.47-7.76,2.77-10.78,0.88l-0.2-1.19  c20.22-6.78,37.75-19.49,58.15-27.74C862.48,467.35,903.41,474.93,975.05,495.66z" />
<path class="cls-5" d="M403.12,493.09c-50.88-3.74-97.9-16.64-148.83-3.45C302.33,472.78,356.69,472.15,403.12,493.09z" />
<path class="cls-6" d="M201.23,508.83l-3.48,13.68c-2.32,0.43-5.49,3.59-7.47,0.97c-2.77-3.68-0.83-8.79-2.54-12.28L201.23,508.83z" />
<path class="cls-5" d="M470.02,524.99c-22.76-7.39-43.79-21.48-65.73-31.81C427.8,494.91,448.17,514.21,470.02,524.99z" />
<path class="cls-12" d="M234.25,586.91l2.16,1.36l-3.31,21.77c2.75,0.88,5.85,1,9.31,0.35l1.35,2.31l0.81-2.35  c43.71-0.09,87.43-0.18,131.15-0.28l1.44,2.34c-0.57-3.62,13.42-3.31,13.79-2.64c-0.4,1.75,0.18,2.54,1.63,2.83  c2.99-2.51,14.87,1.2,15.35,5.49c9.47,8.3,24.46,11.4,27.01,23.92c-46.41,12.85-94.53,15.6-143.86,18.33  c1.31,7.81,7.18,11.29,9.67,18.76l-44.19,7.94c5.04-23.52,12.57-46.45,9.17-70.74c-16.99,25.03-27.6,50.68-41.64,75.23  c-1.97,1.62-4.91,2.04-7.52,0.88l13.59-77.11c-23.55,22.34-29.75,51.98-39.84,82.85c-1.68-28.8,2.69-58.25,10.18-85.34l2.07-2.35  l12.47,0.35c3.21-9.83,7.7-18.75,13.48-26.78l2.2-0.5C233.22,580.2,237.95,584.13,234.25,586.91z" />
<path class="cls-8" d="M359.59,557.76c1.83,0.46,3.01,1.2,3.54,2.21l3.86,18.86c9.56,0.17,19.88,3.4,26.11,11  c2.45,2.99,6.55,8.72,2.89,11.53c1.51,0.68,2.05,2.23,1.64,4.63l13.64-0.3c5.29-0.77,8.82,0.36,10.59,3.39  c-0.04,0.6-0.14,1.16-0.44,1.56c-0.74,0.98-21.1,1.33-24.43,1.36c-2.63-0.74-4.11-0.54-4.43,0.61c-4.56-1.63-10.51-0.2-15.42-0.19  l-2.2-1.77c1.03-17.95-17.42-20.51-29.86-11.56c-1.6,0.63-2.76,0.18-3.46-1.37c-3.73-22.34-21.81-21.49-39.26-14.06  c-3.72,0.85-4.16-0.47-4.74-3.77c3.16-7.38,3.6-14.2,1.32-20.48c-4.19-3.17-10.1-3.74-17.74-1.72c-6.59-3.12-12.37-3.7-17.36-1.76  l-2.86,2.34c-4.36,9.44-9.59,12.94-15.69,10.52l-15.2-8.09c-3.58-0.78-6.4-2.24-8.45-4.38l9.32-41.77  c18.72-1.77,35.58,7.56,44.17,25.77c15.12-10.1,31.4-15.3,49.24-10.46C338.18,533.59,351.7,543.89,359.59,557.76z" />
<path class="cls-4" d="M377.16,612.42l-133.4,0.28l-2.3-1.39c1.42-7.73,0.42-14.51-2.99-20.35c-2.51-0.81-3.92-2.16-4.21-4.05  c0.27-2.41-2.41-2.34-3.55-3.37l-2.44,1.04c-4.76-2.17-10.03-2.86-15.82-2.06l-1.35-2.38c3.58-7.69,8.68-15.46,10.55-23.83  c8.63-1.01,24.48,12.1,28.35,11.41c5.24-0.93,5.61-11.4,15.14-15.01c6.21-2.35,10.63,2.11,16.31,2.64  c6.23,0.59,14.24-4.11,19.04,2.16c5.13,6.69,1.07,15.49-0.92,24.46c7-1.68,13.3-4.78,20.23-5.42c13.47-1.24,22.56,7.5,23.72,21.22  c7.49-5.95,15.7-7.43,23.59-4.8C374.94,595.57,378.16,603.94,377.16,612.42z" />
<path class="cls-12" d="M115.92,613.04l17.22,115.72c0.69,4.63-5.79,5.64-8.13,5.21c-3.08-0.57-5.52-2.36-6.43-6.42  c-10.76-48.34-32.24-91.67-59.23-132.33c-4.67-15.02-5.85-32.43-5.07-50.37c17.02,20.99,28.73,44.46,42.13,67.97  C103.04,614.13,109.66,613.8,115.92,613.04z" />
<path class="cls-4" d="M149.86,539.93c2.08,2.66,4.59,4.96,6.54,8.48l-5.31,64.67c-3.47,4.19-14.02,3.96-17.7,0.08  c-4.78-24.63-5.23-49.11-6.88-74.04l8.08,6.08C140.1,543.24,144.7,540.26,149.86,539.93z" />
<path class="cls-8" d="M192.09,554.52c-2.01,6.2,1.67,13.25,0.19,19.46l-9.36,39.18c-3.91,3.99-12.47,3.91-16.33-0.14  c1.52-23.11,0.3-47.18,5.86-69.33l2.6-0.87c4.44,5.45,9.6,8.62,15.5,9.5L192.09,554.52z" />
<path class="cls-12" d="M182.92,613.16c-6.64,27.78-9.03,56.87-10.81,85.89c-1.77,0.59-3.84,0.71-5.78,0.03  c-0.65-28.88-1.59-57.63,0.27-86.06C172.01,613.54,177.5,613.61,182.92,613.16z" />
<path class="cls-12" d="M151.1,613.09c-2.43,29.62,1.34,59.22-2.07,90.88c-8.92-31.11-9.93-61.39-15.63-90.8  C139.28,613.39,145.23,613.75,151.1,613.09z" />
<path class="cls-5" d="M175.93,740.97c1.77,1.04,2.66,1.55,2.66,1.55c0.85,1.33,3.84,15.96,0.6,16.67l-14.08,1.27  c-1.21-0.52-2.49-0.83-3.78-1.1l-2.68-0.42c-1.01-7.35-6.29-9.85-5.41-0.59l-2.3,2.07l-3.03-2.01c-1.38-0.92-2.58,1.67-2.52,3.22  c-6.49-1.44-13.15-0.09-19.73-0.77c-0.64-4.35-0.21-8.74-0.28-13.12C142.06,744.51,159.04,742.92,175.93,740.97z" />
<path class="cls-8" d="M230.7,583.54c-5.95,8.77-9.37,18.99-14.35,28.98c-5.48,0.89-10.78,0.19-15.86,0.31  c3.05-11.02,2.42-25.53,10.61-32.68C217.94,580.43,225.46,578.78,230.7,583.54z" />
<path class="cls-11" d="M183.78,740.61c3.38,14.91,9.85,28.81,14.43,43.33l-12-3.33c-3.72-6.46-5.7-14.01-7.02-21.4l-3.26-18.23  C178.29,740.7,181.58,740.97,183.78,740.61z" />
<path class="cls-4" d="M194.41,541.43c-0.77,4.38-0.93,8.81-2.32,13.09c-8.62,1.29-13.4-5.69-19.64-10.82  c0.43-1.71,1.71-3.29,2.27-4.8L194.41,541.43z" />
<path class="cls-6" d="M972.86,497.15c-5.07,10.35-11.58,19.31-12.23,32.86c-24.25-11.12-48.38-5.07-62.05,15.96  c-10.09-10.13-21.78-12.86-34.5-8.8c-8.97,2.86-18.32,10.76-22.54,20.85l-1.65,2.33c-6.02,0.47-12.04-0.27-18.06-2.23  c-7.22,1.74-14.21,2.12-20.98,1.15c-6.58-3.66-12.68-4.38-18.29-2.16c-11.03,10.06-22.27,18.38-37.91,11.87  c-6.96,0.29-13.58,2.86-19.85,7.7c-9.04,1.95-18.41,3.03-28.11,3.24c-18.18,6.73-38.14,7.02-57.17,3.56l-2.09-2.4  c26.71-26.6,62.05-40.52,96.01-56.05c13.14-2.74,24.45-10.67,37.02-17.08C841.89,471.53,896.9,472.42,972.86,497.15z" />
<path class="cls-2" d="M567.26,580.39l70.18,0.67c14.28,0.14,33.84,5.3,47.49-0.3c11.46-4.7,21.08-3.83,33.54-4.56  c8.34-0.49,16.9-13.19,29.61-8.79c19.86,6.88,28.71-12.44,36.87-13.96c7.67-1.42,13.14,3.38,19.83,4.29c7.37,1,15.06-4.46,23.4-0.54  c3.94,1.85,9.42,0.61,13.34,0.81c-2.66,6.38-1.22,14.65-1.46,22.29c-11.85,2.01-20.93,9.53-23.3,21.07l-1.12,2.34  c-139.38-0.01-278.78-0.02-418.21-0.03l-1.45-2.34c-2.54-13.64-16.39-20.54-30.58-20.16c-3.22-7.26-2.09-16.88-5.82-23.44  c7.75,1.38,15.76-3.02,23.77-1.91l16.54,2.3c12.77-8.56,24.37-4.62,33.16,6.12c4.32,3.8,16.94,5.02,22.41,3.2  c13.03-4.35,22.04,8.59,30.55,9.17c11.72,0.8,21.03-1.54,32.21,3.9C531.85,587.16,552.85,580.26,567.26,580.39z" />
<path class="cls-16" d="M816.78,601.39c0.81,1.9,1.61,4.22,2,6.42c-6.79,1.55-13.7-1.39-19.57,1.58c-0.08,0.59-0.21,1.15-0.53,1.56  c-0.45,0.59-12.73-0.47-14.7-1.64l-89.06-0.02l-31.28,0.92c-0.36,0.75-0.73,1.33-1.11,1.34c-12.59,0.29-26.64-0.68-39.09-2.18  l-37.46,0.22l-151.21-0.3l-12.17,1.36l-0.72-1.57c-8.83-2.12-18.1-0.25-28.15-0.88l2.28-6.84L816.78,601.39z" />
<path class="cls-4" d="M799.21,609.39l38.67,1.1c-10.18,3.17-21.81,0.02-31.63,4.47c-6.76-4.05-16.24-0.71-22.27-5.65L799.21,609.39z" />
<path class="cls-8" d="M938.66,610.27l-76.42,0.29C887.31,608.4,913.39,608.96,938.66,610.27z" />
<path class="cls-8" d="M1013.66,610.27L941,610.28C964.99,608.77,989.67,608.78,1013.66,610.27z" />
<path class="cls-13" d="M1144.85,691.73c6.75,8.89,10.41,20.47,14.71,31.22l-105.13,0.56c-1.43,0.01-2.82-0.47-4.22-0.55l1.41-4.85  c6.33-7.79,37.63-36.25,45.81-36.44c0.91-0.02,1.82,0.12,2.74,0.3C1116.81,673.25,1133.41,676.67,1144.85,691.73z" />
<path class="cls-13" d="M1066.35,672.47c0.22,1.65,0.2,3.35-0.54,4.87c-2.66,5.53-17.01,20.89-22.21,25.21  c-17.43,0.7-34.88,0.85-52.36,0.45l-2.15-2.14l-5.63-0.57c10.58-19.41,25.84-34.29,44.26-46.46c8.44-5.58,25.15-9.56,33.07-5.47  C1070.36,653.28,1064.66,664.84,1066.35,672.47z" />
<path class="cls-2" d="M1100.16,681.97c-19.17,10.05-35.07,25.42-49.96,40.99c-17.26-1.01-34.94,0.66-52.4-3.85  c-4.88-5.53-5.03-12.68-8.7-18.25l53.42-0.21c8.7-9.46,17.14-18.13,23.83-28.18c6.94-0.18,28.92-4.15,32.85,1.86  C1100.77,676.72,1100.14,679.53,1100.16,681.97z" />
<path class="cls-13" d="M1155.6,749.89c1.46,13.25-6.03,25.93-21.39,27.44c-39.84,3.92-102.33-17.12-84.84-35.17  c2.91-3.01,6.11-5.97,10.3-7.52c8.02,8.45,15.35,13.72,27.9,14.42C1110.52,750.33,1133.15,750.37,1155.6,749.89z" />
<path class="cls-13" d="M896.27,683.13l-10.16-2.25c26.73-22.62,65.02-29.64,87.16,1.62L896.27,683.13z" />
<path class="cls-9" d="M629.29,1162.5l-0.72,2.47l-19.1,2.94l27.61,0.16c24.03,6.82,47.86,8.19,71.47,4.11  c4.76-2.28,9.26-3.12,13.5-2.54c6.76,9.43,12.98,18.36,9.04,29.96l-0.91,2.41l-62.5,4.39c-10.58,3.04-6.45,8.34,2.11,10.08  c13.93,1.26,27.91,1.18,41.92-0.24l1.78,2.38c-9.21,7.85-19.17,15.67-26.88,25.01c-0.88,2.42-2.92,4.49-5.63,4.34  c-5.57,2.2-10.73,6.12-16.69,7.23c-1.64,4.08-13.41,3.31-17.54,2.45l-2.15-2.32c-0.93,3.56-5.64,2.78-7.17-0.31  c-1.57,1.49-3.98,1.12-4.64-1.05c-3.64,3.2-11.31,1.68-14.94-1.22c-0.02,1.01-0.91,0.98-2.65-0.11  c-17.46-5.79-20.56-19.88-33.06-26.87c-2.4-0.78-2.68-1.48-0.82-2.09c8.33-0.3,61.42-1.34,60.39-10.04  c-1.13-9.58-56.26-6.3-70.11-7.17l-0.7-2.99c8.4-11.94,2.25-23.05-4.99-33.62c-3.49,1.67-5.96-2.2-3.3-4.93  C582.88,1160.96,606.59,1163.12,629.29,1162.5z" />
<path class="cls-9" d="M645.78,1285.55c8.35,7.99,21.68,12.35,33.53,14.99c-11.83,10.44-30.35,2.54-43.14,7.06l-1.77-2.02  c6.48-16.51-20.45-19.87-17.79-1.99l-2.26,1.31c-22.97-6.09-45.36-16.85-62.2-34.39C582.98,1277.72,614.12,1283.72,645.78,1285.55z" />
<path class="cls-16" d="M478.79,1264.35c-3.25,11.6-21.24,39.69-34.18,27.29C432.08,1279.65,466.61,1263.48,478.79,1264.35z" />
<path class="cls-16" d="M636.17,1307.6c-12.17,4.3-11.42,0.05-21.82-2.71c-0.41-5.7-0.4-11.55,5.24-14.16  c4.95-2.29,10.83-1.97,15.39,2.37C638.84,1296.76,638.18,1302.22,636.17,1307.6z" />
<path class="cls-10" d="M777.85,650.5c0.78,6.67,6.95,10.33,13.71,12.35c28,8.35,56.51,12.14,84.79,17.41  c-0.38,41.61,66.46,41.13,96.26,41.6c-3.71,6.22-8.21,8.4-7.89,13.53c1,16.43,50.64,12.63,64.57,14.66  c-8.61,46.35,69.88,43.94,100.31,51.58c-7.63,4.51-18.35,6.19-21.54,15.65c-8.56,25.42,78.95,26.61,91.92,27.81v379.49  c-81.81,40.76-168.96,61.87-260.55,77.3c5.06,5.26,13.37,9.7,11.8,17.13c-12.91,8.57-28.73,12.04-43.97,14.74l-80.81,14.32  c-90.47,16.03-182.44,26.52-273.69,20.72c-0.35-3.33,0.92-7.06-1.68-10.18c-1.9-2.28-6.91-2.37-9.64-0.17  c-1.92,1.55-4.87,3.89-5.85,7.92c-2.12-0.83-4.28-2.21-4.7-4.2c-1.9-8.83,24.15-15.92,26.99-21.73  c51.55,10.58,104.2,19.03,157.39,14.71c2.01-0.16,3.28-1.04,4.74-1.76c15-7.26-57.64-16.3-73.8-29.35c-12.51-10.1,76,9.43,88.8-0.97  c-16.86-9.56-35.41-9.07-51.15-20.68c55.33,6.01,111.87,10.68,169.14-1.09c-45.22-13.26-97.37-10.72-139.32-31.2  c5.89-6.1,15.39-10.57,24.34-11.39c18.67-1.72,38.07-2.29,56.23-10.31c2.53-1.12,0.67-8.33-0.78-10.67l17.57-1.04  c-3.71,0.9-7.58,6.43-6.39,9.31c1.22,2.94,6.94,7.3,11.77,7.16c67.58-1.91,135.84-14.64,201.35-31.71c4.05-1.05,7.35-5.24,7.16-7.81  c-0.89-12.33-46.5-2.76-57.01-1.78c27.42-7.74,55.17-20.57,83.24-21.12c-1.52,2.79-4.3,3.45-5.63,4.87c-2,2.14-2.49,6.28-0.24,7.53  c27.87,15.49,124.99-36.52,115.28-50.07c-7.24-10.1-33.38,14.64-54.26,19.01c16.89-9.68,34.36-18.35,44.62-36.18  c10.92-18.97,0.47-40.65-17.64-50.53c-38.75-46.53-185.1-69.92-244.53-73.24c8.73-10.71,10.77-24.56,1.59-35.05  c4.04-0.81,7.66-2.97,10.07-5.89c2.78-3.37,4.52-8.21,1.16-11.91c-4.01-4.42-9.51-1.84-12.57,0.93c-4.12,3.72-4.42,8.62-4.28,13.49  c-42.52-12.45-68.65,43.05-104.26,59.95c1.15-14.68,8.3-28.4,15.21-41.81l30.88-1.15c1.58-0.06,2.6-1.6,3.41-2.02  c14.96-7.76-30.26-3.57-29.92-4.73c45.83-67.69,77.56-35.7,109.94-57.17c11.03-7.31,16-19.88,11.74-31.84  c-4.44-12.47-17.58-17.64-31.55-15.82c-45.38,5.92-74.9,66.42-116.03,103.46c-8.55,7.7-18.4,10.35-26.37,2.79  c3.39-0.53,6.78-2.7,11.44-1.41c0.27-5.37,0.22-10.11-1.32-14.77c8.47-11.15,60.33-47.22,45.02-63.95  c-12.59-13.75-37.38,22.77-46.09,33.56c-13.39-35.13-5.76-73.7,9.74-107.51l144.72-46.35c4.31-1.38,9-3.96,8.59-7.66  c-9.25-5.72-21.16-5.04-32.85-6.08c-40.37-3.6-80.31,0.47-120.73-4.85c-21.81-2.87-69.36-35.7-134.12-27.64  c-64.94,8.08-84.73,63.89-97.78,115.67c-16.21-7.94-31.86-17.55-49.34-22.23c-9.59-18.42-19.9-36.91-32.92-53.31  c-2.94-3.71-9.02-5.43-12.09-4.03c-15.11,6.85,18.82,40.38,18.3,46.7c-13.73-1.9-77.83-27.77-86.37-15.26  c-7.96,11.67,43.06,48.01,54.57,55.88l-63.23-14.45c-14.03-18.42-59.63-78.16-87.63-53.68c-6.34,5.54-9.26,15.87-3.78,24.52  c13.24,20.91,44.82,10.34,58.32,22.51c0.83,0.23-31.59-3.79-33.41,7.09c-1.71,10.2,22.35,16.81,24.47,17l-3.77,4.5  c-4.46-1.17-15.05,0.19-15.98,6.47c5.03,9,20.38,20.37,32.58,20.8c0.38,2.24-0.8,4.25-2.59,5.56c-2.08-0.12-4.94,1.68-5.41,3.33  c-2.87,10.03,22.93,21.21,31.41,22.5l-0.21,4.4c-4.26,0.35-6.19,8.55-3.14,12.08c6.66,7.7,19.19,16.78,30.32,13.97l-0.06,4.56  c-4.67,6.19-5.56,13.38-0.16,19.2c-14.66-13.79-15.98,12.27-52.54-19.39l-51.37-44.48c-12.12-10.49-25.65-18.64-41.27-20.38  c-14.76-1.65-26.73,5.54-28.06,20.25c-1.14,12.58,10.37,24.83,25.78,24.09c35.55-1.7,67.54,9.87,91.22,37.07l-44.68,1.21  c-6.6-10.57-23.99-18.28-32.54-7.55c-6.37,7.99,1.98,17.78,8.02,20.92c9.02,4.69,18.53,4.06,24.79-4.2  c9.11,0.28,18.28-0.94,27.07,1.34c-5.82,3.59-7.04,10.27-3.56,16.54c3.06,5.51,7.91,9.09,13.62,10.47  c5.38,1.3,11.92,0.58,15.51-4.49c3.3-4.65,2.52-10.18-1.1-14.69c-2.18-2.72-6.59-5.59-10.6-7.66c-0.1-4.19,3.58-6.9,4.75-10.73  c12.78,12.75,23.88,27.64,31.8,43.6c-23.6-5.33-83.15-0.88-105.99,3.02c14.05-8.51,33.61-1.15,48.38-12.67  c-57.91,3.22-184.82,24.27-223.73,63.45c-16.72,8.22-32.15,24.69-31.6,44.18c0.6,21.45,17.89,30.32,30.65,43.66  c-8.5-0.42-16.41-9.78-25.82-0.25c35.13,25.56,78.37,43.79,120.95,49.19c2.52,0.32,6.24-1.82,8.23-1.84  c1.69-0.01,3.32-3.35,1.94-5.24c-1.01-1.39-2.31-4.49-4.71-5.29c21.66,4.13,43.67,8.56,64.41,15.03  c-10.03-0.87-20.51-2.42-30.47,1.24c-24.92,9.15,65.52,24.68,64.42,24.55l-10.97,9.01c-18.71,15.37,102.14,25.98,108.3,25.88  l-15.87,17.06c-17.13,18.42,46.77,13.72,56.73,14.44c7.68,0.55,22.44,3.41,24.15,11c4.3,13.84-62.95,26.82-72.27,42.08  c-8.3,1.18-66.39-5.05-67.08-14.57c-0.69-9.52,38.45-19.19,45.65-24.94c-12.35-4.08-161.61-14.07-144.33-32.22  c-74.04-16.62-137.05-37.49-202.1-73.58V857.81c22.39-2.2,44.49-6.68,66.67-10.42c-0.13,4.31-1.76,8.78,1.4,13.97  c6.44-4.44,11.91-10.35,14.79-16.75c0.42-0.49,1.27-0.68,1.64-1.21l37.54-5.78l0.1,23.57c0.01,3.57,2.48,6.44,5.16,7.07  c11.62,2.72,11.95-26.69,12.24-33.55l0.98-0.46l13.08-2.17l2.87,16.51c1.72,9.91,1.49,21.21,9.09,30.46  c4.54-7.13,2.58-15.51,2.25-22.52c-0.42-8.77,0.74-18.16-0.23-27.92c6.09-1.08,12.04-3.12,17.64-5.76c0.32-0.15,0.81,0.06,1.16-0.04  c1.53,7.53,7.38,15.2,14.92,17.77c3.2-8.42-3.16-15.12-4.58-21.56c-2.17-9.83-6.66-18.86-7.99-28.74c3.66,2.87,8.61,1.65,13.07,2.02  c3.33,4.99,5.43,10.59,8.02,15.99c2.52,5.26,4.33,12.5,12.26,13.77c2.69-8.83-0.38-18.32-2.93-26.36c-0.09-0.36,0-0.8-0.02-1.17  c-0.03-0.62-0.34-1.21-1.03-1.17l-0.05-1.09l-12.88-54.12c5.06-0.32,10.07-1.45,15.16-1.21c7.71,16.54,11.56,34.89,22.47,51.58  c19.72-12.39,11.25-38.27,6.9-53.85c8.46-0.42,76.05-3.3,55.07-24.3c5.62-0.29,98.09-3.76,86.7-14.35c4.01-1.07,7.75-5.49,8.14-8.88  c0.63-5.34-2.63-8.19-6.52-12.15l4.04-4.26c14.15-3.74,29.41-6.94,39.76-17.08l34.45,0.5c8.65,12.88,59.54,7.56,78.38,15.12  l-41.55,9.44l72.34,10.32c-4.95,7.89-15.32,1.91-22.26,8.96c28.61,10.78,62.73,10.54,91.22,0.64c-7.74-6.65-17.13-0.69-23.91-8.23  l69.57-11.09l-41.43-8.94c12.51-8.17,79.79-3.75,77.38-17.69L777.85,650.5z" />
<path class="cls-5" d="M394.85,1016.93c13.72,6.88,15.84,24.27,26.33,35.86c10.8,11.95,24.32,20.43,31.82,36.63  c2.16,4.66,7.62,9.71,12.25,12.09c5.86,2.97-4.08-42.14,10.62-24.49l19.1,22.94c2.47,2.96,6.3,5.33,9.41,3.82  c6.65-3.23,0.87-18.3,6.4-21.62c2.89-1.74,6.59,0.9,8.74,3.85l15.26,20.93c1.99,2.73,5.15,4.77,8.14,3.95  c3.14-0.86,4.56-4.39,4.99-7.79l4.2-33c0.6-4.72,3.41-8.81,7.71-9.46c25.57-3.84,29.07,84.86,43.12,61.42l10.92-18.22  c2.13-3.56,6.03-4.42,9.81-3.52c3.1,0.74,7.42,16.32,12.8,18.38c5.26,2.01,10.07,0.21,14.35-2.92  c27.84-20.34,83.79-102.29,101.5-94.38c11.99,5.36-13.35,53.13-10.62,67.8l32.94-17.67l7.29,19.43  c9.49-6.14,10.81-18.29,18.67-24.59c10.64,4.95,30.64,15.84,23.19,30.79c-1.4,2.81-5.02,8.19-8.07,5.53l-2.53,1.11  c-7.15-4.69-26.56-0.58-22.63,10.13l-0.8,2.85c-77.52,26.15-177.62,27.02-258.77,21.91l-1.19-2.96c5.76-16.7-38.32-26.24-30.07-3.86  l-1.47,2.48c-15.23-0.11-31.73-2.17-46.01-7.07c0.04-2.49,1.23-3,3.51-2.89c-10.28-5.25-51.1-25.7-60.43-18.77  c-0.96,2.39-2.27,3.84-3.94,4.34c-12.67-5.26-28.7-12.12-33.82-26.1c2.63-10.73,15.48-15.57,24.29-19.96  c6.54,7.31,9.18,21.6,21.13,22.16c1.68-24.69-11.43-46.02-22.19-66.27C384.32,1016.24,390.17,1014.3,394.85,1016.93z" />
<path class="cls-9" d="M668.86,876.71l2.08,1.63c1.06,20.68,20.1,20.56,31.91,6.92l2.67,0.86c0.65,0.82,1.26,1.65,1.74,2.56  c0.46,0.89,0.9,1.73,0.95,2.58c2.2,36.54,2.96,71.14-8.52,106.28c-5.91,18.08-13.99,38.44-26.84,52.51  c-15.05,9.33-18.78,41.12-28.75,40.35c-11.13-0.85-6.33-24.21-16.51-28.05c-9.3-3.51-13.66,20.17-23.13,16.52  c-13.03-5.02-14.22-73.55-38.97-73.43c-21.79,0.1-13.91,40.16-29.75,43.99c-5.56,1.34-8.37-2.29-12.02-4.2l-1.8-2.27  c2.56-12.85,6.7-24.87,12.42-36.08c-0.4-0.4-0.75-0.82-0.94-1.31c-0.73-1.9,13.31-33.15,18.51-35.64  c4.24-2.03,12.01-2.81,11.74,2.85c3.95-0.1,4.99,4.47,1.16,5.72c0.39,0.35,0.53,0.8,0.56,1.32c0.21,3.26,0.91,13.92,3.72,15.67  c7.31,4.54,15.49-18.31,15.52-23.32l2.59-0.61c0.93-3.19,0.51-5.45-1.26-6.78c0.56-10.78-5.45-20.24-12.87-27.6l0.01-3.26  c-4.29-3.02-3.27-8.74-1.53-13.2c1.63-4.17,5.42-10.31,9.66-7.64c1.32-2.93,4.34-3.15,9.08-0.66c10.2,7.25,17.07,7.02,20.61-0.69  c3.32-9.15,7.4-17.88,12.22-26.18c4.78-6.42,9.07-4.83,12.88,4.77c7.41-3.93,13.94-9.41,19.6-16.43  C659.09,869.07,668.53,871.43,668.86,876.71z" />
<path class="cls-7" d="M841.35,1026.55c3.34,0.25,3.3,2.14,0.48,3.78c29.51,5.02,58.03,13.3,85.54,24.84  c90.56,48.76-32.71,93.32-78.21,104.1l-2.13-1.87l-19.77-15.75c-4.52-3.6,0.59-10.98,2.15-15.64l0.65-2.57  c17.71-4.72,36.93-9.9,52.54-19.97c26.06-16.8,10.94-32.05-11.72-40.69c-18.26-5.96-37.06-9.44-56.41-10.45  c-1.15,3.03-1.91,2.8-3.24-0.16C818.71,1041.55,829.54,1031.86,841.35,1026.55z" />
<path class="cls-1" d="M738.14,964.49l-12.29,17.02c-1.36,1.88-2.29,6.53-0.69,7.45c1.82,1.05,5.84,0.17,8.36-1.08  c0.82,0.15,2.58-0.36,2.43,0.95c-22.12,24.16-36.57,44.79-63.08,61.22c34.46-59.57,37.34-96.05,32.66-163.93l-0.44-3.77  c6.78-13.36,15.43-25.08,25.97-35.16l3.82,0.01c1.32,0.22,3.04-0.02,4.45,0.77c1.8,1,0.28,3.29-0.27,5.15l-17.36,58.17  c-1.19,3.98,0.33,9.38,2.75,11.01c3.11,2.09,7.49,0.77,12-0.06l-7.39,31.78L738.14,964.49z" />
<path class="cls-7" d="M570.58,960.98c3.42,2.4-3.81,11.52-6.91,11.81c-17.74-10.94-20.9,24.5-29.31,34.1  c-3.28,6.67-10.68,17.58-16.86,21.66c-4.39,2.9-6.57,4.09-10.2-0.62c-1.11-0.84-2.24-2.67-3.16-3.78l3.27-58.35l5.52-0.29  l21.11,7.65c11.04-6.61,20.49-15.39,27.92-25.93l3.73-1.18c-2.43-1.99,0.93-6.45,2.62-8.33c6.51-3.52,8.58,8.93,7.19,14.3  C575.12,955.36,574.24,961.26,570.58,960.98z" />
<path class="cls-6" d="M814.48,1052.31c15.47,1.91,36.84,10.36,48.86,20.41c26.95,22.51-25.16,43.72-42.16,49.84  c-4.31,2.61-7.84,3.08-10.57,1.41c-3.19-0.75-3.6-4.13-3.04-7.01c-0.2-3.4,4.23-5.8,6.77-3.32l3.32-4.38  c27.98-13.85,11.96-36.63-12.66-40.96c-1.92-0.59-3.26-1.6-4.02-3.05c1.82-5.43,7.14-8.66,10.27-13.09  C812.24,1052.33,813.51,1051.91,814.48,1052.31z" />
<path class="cls-5" d="M370.21,1049.81c1.38-0.45,3.14,0.28,4.55,0.01c0.63,2.79,5.37,6.13,4.85,9.63  c-10.93,3.51-31.46,9.72-32.67,24.06c-1.57,18.51,35.41,32.41,48.96,39.82c-4.21,3.32-8.85,1.69-12.74,1.41  c-45.2-13.61-109.25-46.52-26.84-72.8C361.12,1050.42,365.06,1049.18,370.21,1049.81z" />
<path class="cls-1" d="M814.34,1113.63c-1.65-2.23-1.06-9.39,1.36-10.94c3.68-2.54,6.59-6.4,7.23-10.16  c2.3-13.49-18.71-19.03-22.35-26.16c0.23-0.21,0.28-0.81,0.39-1.13c13.15,1.97,30.16,8.35,33.55,22.59  C837.6,1100.82,824.13,1108.77,814.34,1113.63z" />
<path class="cls-5" d="M851.94,1021.79c6.77-2.02,36.13-1.55,40.26,1.8c0.66,0.54,1.22,1.19,1.76,1.89  c3.21,1.47,3.44,7.16,2.73,10.32c-0.83,0.51-1.67,0.98-2.56,1.3c-0.87,0.31-1.69,0.58-2.48,0.5c-16.6-1.69-33.67-3.74-49.82-7.26  c-0.38-1.2-0.25-2.56-0.48-3.78C844.62,1025.08,847.48,1021.21,851.94,1021.79z" />
<path class="cls-11" d="M866.21,1016.03c5.22-0.39,10.42-0.83,15.61-1.31l1.79,2.27l55.23,11.79l-3.85,1.87  c-6.17,0.07-36.84-1.1-39.42-3.32c-0.62-0.53-1.13-1.18-1.61-1.86c-13.94-2.54-28.06-1.88-42.02-3.68  C855.15,1017.3,861.63,1017.93,866.21,1016.03z" />
<path class="cls-7" d="M394.85,1016.93c-5.11-0.58-9.18,4.08-14.06,2.86c-2.73-5.13-9.04-9.97-9.58-16.69  C382.13,1000.97,387.41,1013.2,394.85,1016.93z" />
<path class="cls-10" d="M412.56,986.98c3.03,0.11,3.05,1.36,1.17,3.53c-2.12,4.15-5.42,7.84-5.01,12.65  c-8.24-4.88-15.07-12.2-22.04-18.82C394.18,986.38,404.77,990.38,412.56,986.98z" />
<path class="cls-6" d="M463.02,998.3l-0.14,5.82c-8.57,2.85-15.06,9.96-23.17,14.11c-3.41,0.3-3.61-3.59-0.4-4.63  C446.02,1006.75,454.59,1001.78,463.02,998.3z" />
<path class="cls-10" d="M439.31,1013.59l0.4,4.63c-0.68,2.13-1.67,4.12-2.63,6.14c-5.71-1.28-9.53-6.15-13.9-9.48  C428.61,1014.98,433.96,1014.49,439.31,1013.59z" />
<path class="cls-10" d="M884.61,1014.71l-0.99,2.28c-5.56-0.49-12.28,2.45-17.4-0.96c4.09-1.7,9.25-3.29,13-5.57L884.61,1014.71z" />
<path class="cls-7" d="M938.85,1028.78c32.08,4.76,153.88,32.99,150,75.57c-4.46,48.9-167.82,80.01-208.58,84.14l-102.26,10.36  c7.85-5.49,15.32-13.28,25.69-14.35c4.6-0.47,58.65-6.49,49.62-15.79l1.1-2.58c35.78-6.68,73.06-13.86,107.04-27.96  c103.66-43.02-1.95-89.2-57.69-98.49l-1.35-2.6c-0.97-1.22-2.17-1.59-3.6-1.09c-0.47,3.09-1.53,2.83-2.12-0.22  c-2.97-2.62-2.5-6.6-2.73-10.32C908.66,1028.15,924.6,1026.67,938.85,1028.78z" />
<path class="cls-16" d="M896.69,1035.79l2.12,0.22c1.37-0.81,2.86-0.28,3.6,1.09c27.71,4.4,102.64,26.61,105.3,60.41  c3.42,43.4-123.12,65.68-154.4,71.22c-25.76,4.56-52.15,7.18-78.92,7.04l72.64-18.37c26.49-6.7,111.79-32.46,110.39-66.83  c-0.39-9.65-7.17-17.86-15.88-24.1c-39.72-28.43-97.19-28.16-99.7-36.13C860.27,1030.12,878.41,1033.94,896.69,1035.79z" />
<path class="cls-16" d="M336.26,1034.66c-1.68,1.7-3.77,2.91-6.28,3.65c-24.07,5.53-49.49,11.99-71.21,24.25  c-72.39,40.87,37.54,80.17,73.24,87.05l4.4,3.57l64.73,16.78c-18.81-0.3-38.07-0.6-56.41-4.06c-1.05,0.41-2.11,0.78-3.21,1  c-1.06,0.21-2.09,0.39-3.07,0.25c-17.87-2.58-35.74-5.59-53.41-9.31c0,0-1.75-1.24-5.25-3.71l-2.23,1.84  c-30.11-7.26-131.82-38-88.45-82.66c10.11-10.41,29.35-20.88,43.23-25.12l2.19,1.72c32.97-11.08,67.56-17.17,102.88-19.03  c1.66-0.09,1.17,2.83,0.53,2.59C337.5,1033.29,336.6,1034.39,336.26,1034.66z" />
<path class="cls-7" d="M336.26,1034.66c0.28,6.29-29.84,15.07-31.42,25.84l-0.28,2.67c-31.83,19.28-0.23,41.26,23.07,49.25l1.89,3.06  c-8.98,12.33-0.48,25.53,6.88,37.69c-25.01-6.48-103.27-26.52-104-61.78C231.73,1058.22,311.16,1039.38,336.26,1034.66z" />
<path class="cls-7" d="M544.78,1160.03c5.96,1.74,14.41-1.85,17.84,4.88c0.76,1.49,1.92,3.95,3.3,4.93  c6.49,7.91,7.77,20.05,0.19,27.65c-4.15,3.28-8.47,6.27-12.96,8.95c-38.39,0.17-76.69-2.4-114.92-5.26  c-3.15-6.3-13.75-12.31-10.35-20.32c3.06-7.21,15.54-2.6,22.66-4.89c-5.99-7.12-17.4-8.35-19.22-17.04l4.58-1.96  c13.19,0.1,26.31,0.43,39.36,0.98c5.44,14.06,30.17,14.76,43.3,14.99c4.99,0.08,41.01-0.71,26.33-10.08L544.78,1160.03z" />
<path class="cls-16" d="M722.05,1169.63c-24.59,12.09-53.46,7.6-79.95,1.59c-14.61-3.32-29.91,2.81-44.45-4.19l31.63-4.54  c40.39-1.11,80.08-8.41,120.46-16.46c8.16-1.63,20.44-3.67,26.17,1.8C788.09,1159.45,734.51,1163.5,722.05,1169.63z" />
<path class="cls-16" d="M370.21,1049.81c-12.32,4.05-48.88,14.82-51.37,30.23c-3.49,21.63,55.82,36.27,64.32,44.69  c-17.86-1.31-36.33-4.06-53.63-9.26c-14.45-4.35-29.95-13.16-38.67-25.7c-7-10.07,3.13-25.05,13.99-29.29  C326.12,1052.21,352.08,1043.39,370.21,1049.81z" />
<path class="cls-16" d="M829.41,1125.99c-7.96,1.93-16.58,2.56-25.21,2.15c1.54-2.53,4.08-3.36,6.41-4.17  c13.08-4.57,58.56-21.6,58.37-38.01c-0.19-15.74-41.68-28.33-54.5-33.65c15.29-4.3,82.36,6.67,84.15,32.24  C900.24,1107.56,845.94,1121.99,829.41,1125.99z" />
<path class="cls-16" d="M427.79,1143.99c3.44-1.25,7.45-0.95,12.03,0.9c12.64,1.12,24.47,4.16,35.49,9.1  c2.57-3.81,6.72-3.51,10.87-3.03c19.73-0.92,39.67,3.55,58.6,9.07c33.18,19.42-71.71,21.43-70.6-0.51  c-13.81-0.04-29,0.83-42.85-0.59c-8.02-0.82-42.36-3.94-41.26-13.41C391.28,1135.02,429.81,1144.76,427.79,1143.99z" />
<path class="cls-6" d="M344.72,1165.89c3.27,4.13,7.49,8.26,10.01,12.08c3.46,5.25-1.11,9.91-1.93,15.11  c-32.3-4.09-64.44-9.01-96.13-16.51c-2.13-3.35,2.52-8.27,5.2-10.69c4.18-3.78,7.83-5.29,13.01-6.89c1.43-2.99,3.06-4.61,4.91-4.88  C300.86,1159.65,323.24,1161.85,344.72,1165.89z" />
<path class="cls-16" d="M731.09,1199.59c6.66-0.47,17.21,0.61,17.06,7.36c-8.67,9.45-23.48,8.05-34.66,11.66  c-10-0.59-54.05,6.42-54.39-7.59c-0.08-3.32,4.13-6.66,8.31-6.95L731.09,1199.59z" />
<path class="cls-16" d="M452.24,1127.29c-11.31-0.59-55.96-5.54-60.86-17.32c-0.35-22.39,56.54,8.58,66.79,12.54  c1,1.76-1.03,4.42-2.13,4.24C454.64,1126.52,453.45,1127.35,452.24,1127.29z" />
<path class="cls-16" d="M530.97,1138.69c-11.26,6.58-23.29,2.75-32.73-4.34c-1.69-3.42-2.74-8.33-1.54-11.29  c4.01-9.85,22.91-8.6,33.53,2.34C534.17,1129.46,533.3,1134.39,530.97,1138.69z" />
<path class="cls-6" d="M486.18,1150.96c-4.61,0.22-8.15,3.93-10.93,5.18c-15.19-8.03-32.54-6.4-47.46-12.16  c-0.78-3.23-2.77-6.23-1.37-10.28L486.18,1150.96z" />
<path class="cls-16" d="M815.7,1102.69c0.96,3.78,0.79,7.63-1.36,10.94c-2.28,1.13-4.3,2.45-6.77,3.32  c-5.77,2.04-12.18,1.12-17.82-0.18c-3.12-3.41-3.45-8.93,0.84-12.25C797.69,1099.05,808.69,1097.35,815.7,1102.69z" />
<path class="cls-7" d="M251.96,1027.94c-0.39,3.1,3.17,5.91,1.85,9.5c-6.58,4.7-16.18,5.52-19.29,12.45  c-17.16,5.76-55.85,23.64-53.48,47.28c3.05,30.44,73.89,50.42,98.74,56.95c-3.45,14.39-9.71,0.51-23.12,22.46  c-38.58-9.13-107.49-24.1-136.5-53.07c-12.51-12.49-13.65-29.1-1.73-42.18C147.17,1049.84,211.98,1034.78,251.96,1027.94z" />
<path class="cls-1" d="M571.61,1206.45c-2.23-0.14-4.55,0.08-6.77,0.31c-3.13-0.66-6.33-0.47-9.47,0c-0.72-0.11-1.49-0.32-2.22-0.32  c1.76-6.88,11.05-7.53,14.29-14.56c3.36-7.29,0.05-15.03-1.51-22.05C578.23,1178.55,581.24,1194.44,571.61,1206.45z" />
<path class="cls-7" d="M564.84,1206.76c-3.16,0.33-6.32,0.47-9.47,0C558.08,1205.38,562.18,1205.07,564.84,1206.76z" />
<path class="cls-10" d="M447.87,857.13c43.39,14.57,83.48,39.47,106.8,79.95l5.24,4.76c3.03,0.87,4.96,2.27,5.78,4.19  c-8.13,11.63-17.91,22.39-31.51,29.33c-9.48-2.91-18.29-6.02-26.77-9.58c-5.32-2.23-8.43-11.31-8.89-15.57  c-0.56-5.24,6.4-8.44,10.71-10.95c-15.23-3.62-34.18-5.56-41.27-19.62c-2.76-6.38,9.33-6.99,14.32-9.67  c-21.85-10.58-45.42-23.51-54.02-47.59C430.52,855.49,441.82,856.54,447.87,857.13z" />
<path class="cls-16" d="M419.48,952.73c0.1-1.58-0.89-3.34-0.62-4.91c1.2-6.95,5.84-11.71,11.86-12.35c6.48-0.69,12.33,3.38,12.92,9.75  c0.59,6.39-3.02,12.08-8.64,13.91C428.65,961.19,422.3,958.77,419.48,952.73z" />
<path class="cls-16" d="M441.92,978.48c-3.05-3.8,0.85-6.47,4.46-8c3.8-0.38,7.11-4.62,11.79-1.68c2.59,1.63,5.09,4.57,4.56,9.03  c-0.36,3.06-2.26,6.57-5.8,8.56c-3.52,1.98-7.24,2.46-10.62,0.9C442.88,985.69,441.52,982.28,441.92,978.48z" />
<path class="cls-5" d="M446.38,970.48c-1.71,2.54-3.32,5.15-4.46,8c-10.61,1.03-18.08,9.64-28.2,12.03c-0.82-0.99-1.2-2.25-1.17-3.53  C423.81,981.43,433.7,971.74,446.38,970.48z" />
<path class="cls-5" d="M694.91,609.29l-31.84,1.84c0.34,2.82,1.93,1.43,4.56,2.33c-0.73,4.41-6.81,2.27-10.31,2.75  c2.02-2.29,5.73,0.24,8.39-1.7c-14.45-3.91-29.52,0.4-42.28-5.14L694.91,609.29z" />
<path class="cls-7" d="M672.87,750.26c1.93,3.12,4.02,4.37,7.37,5.92c8.41,3.89,29.21,8.78,7.3-1.03c-1.06-0.66-0.42-1.86,0.22-3.05  c22.17-0.8,47.04,10.99,64.8,24.63c-0.91,2.32-2.93,3.88-4.06,6.06l-1.32,2.76c-10.86,3.76-21.7,4.74-32.54,2.94l-2.33-3.26  c-38.13-24.32-43.3,16.83-77.08,9.35c-41.82-9.26-36.36,20.31-66.59,44.7c-2.81-4.36,0.42-7.6-1.39-11.39  c-13.86,8.4-18.01,38.41-36.72,47.39c-1.37-5.71,1.6-10.83,3.53-15.13c14.83-20.95,22.03-51.73,41.26-72.63l1.21-1.32  c0.4-0.44,1.03-0.76,1.34-1.27c3.19-2.82,5.15-2.87,5.87-0.13c8-3.12,16.64-5.03,25.93-5.73c10.15-0.9,18.64-4.34,25.47-10.32  c-0.9-3.49,1.9-5.81,8.4-6.96l-1-1.31c1.95-3.59,4.17-7.14,6.64-10.65C656.61,749.11,666.4,743.11,672.87,750.26z" />
<path class="cls-16" d="M650.1,845.99c1.03,2.85-0.53,5.06-3.6,4.84c-2.44,5.14-5.44,7.54-9.01,7.22c-0.65,1.08-1.33,2.13-2.14,3.07  c-0.81,0.93-1.59,1.83-2.56,2.36c-10.32,5.64-36.75,19.89-46.9,19.77c-1.24-0.01-2.48-0.2-3.71-0.43c-1.43,3.56-7.6,6.53-10.17,3.24  c-0.85,4.69-13.51,5.03-15.38,1.02c4.69-19.99,24.39-40.01,44.69-47.19l5.04-3.89c9.08-1.87,38.5-2.68,45.57,1.73  C655.55,839.99,653.55,844.79,650.1,845.99z" />
<path class="cls-9" d="M655.09,843.88c1.26,3.31-3.52,5.66-4.99,2.11c1.32-0.71,2.02-5.3,0.67-6.45  c-15.77-2.44-34.02-5.12-49.47,0.34c6.78-11.28,13.52-23.7,24.6-31.37c9.85-6.82,25.7-8.18,36.66-7.07  c6.99,11.49,16.46,17.26,31.04,16.31C680.61,828.64,665.42,832.75,655.09,843.88z" />
<path class="cls-16" d="M548.5,900.04c0.8-0.43,1.76-0.81,2.53-0.4c0.87,0.46,10.89,14.86,8.02,16.72c4.74,0.31,9.28,10.18,6.85,14.09  c4.52,3.03,5.32,5.44,2.41,7.26c1.14,4.13-1.13,6.19-2.62,8.33c-6.18,0.32-12.41-6.04-16.15-12  c-28.76-45.83-58.21-54.17-101.67-76.9C484.52,860.74,521.8,874.39,548.5,900.04z" />
<path class="cls-5" d="M572,886.05l2.37,1.37c-1.18,5.88-0.17,9.99,3.05,12.34c3.28,1.53,3.6,7.17,0.16,8.69  c-1.22,1.86-3.47,3.08-6.73,3.67l-9.49,5.68l-2.32-1.45l-10.55-16.32c2.66-3.67,7.01-8.26,8.12-12.96  C561.57,887.17,567.12,887.61,572,886.05z" />
<path class="cls-10" d="M1099.17,1175.49c0.86-2.55,3.83-2.77,6.17-3.42C1105.28,1174.91,1101.33,1174.63,1099.17,1175.49z" />
<path class="cls-7" d="M723.95,819.93c1.15-1.96,2.69-1.78,2.5,0.6c2.02,2.55,5.42,3.68,5.99,7.04l-1.37,2.97  c-22.8,8.76-50.08,19.93-59.31,44.43l-2.9,1.74l-7.38-3.4c-3.7-1.7-16.12,19.39-27.24,19.65l-4.58-9.7  c-12.54,5.28-13.56,39.64-26.8,37.07c-7.84-1.52-13.89-8.12-21.62-7.24c-4.3,2.77-8-2.29-3.66-4.65c0.04-2.87-0.37-5.82-0.16-8.69  c-4.08-3.22,0.93-14.09,4.75-16.96c19.32-6.16,37.9-14.38,55.31-24.77c2.46,0.63,2.93,2.65,1.42,6.05c1.81-4.9,3.85-9.48,7.59-13.26  c0.58-1.84,1.94-3.95,3.6-4.84c1.91,0.13,3.34-1.72,4.99-2.11C667.06,841.07,711.33,816.92,723.95,819.93z" />
<path class="cls-16" d="M758.36,825c11.19-4.64-29.56,26.61-23.49,22.2c-13.2,9.59-20.69,24.92-29.35,38.92l-8.94,7.16  c-6.18,4.95-14.16,5.65-20.43,1.16c-4.98-3.57-8.85-11.1-7.3-17.73c6.06-25.94,41.23-41.31,63.58-49.14  C740.57,824.72,750.39,824.08,758.36,825z" />
<path class="cls-9" d="M748.51,782.8c-0.6,5.78,2.84,10.97,2.91,17.72c-10.68,5.76-23.16,6.44-35.35,5.97  c0.08-8.37-2.69-14.52-3.74-21.25C723.55,789.85,737.58,785.57,748.51,782.8z" />
<path class="cls-9" d="M726.45,820.53l-2.5-0.6c-0.64-9.94,82.97-25.3,92.21-22.29C784.12,803.19,755.47,809.38,726.45,820.53z" />
<path class="cls-4" d="M421.87,609.09l12.89,0.22c-9.2-0.02-17.9,7.3-26.83,8.8l-15.35-5.49  C382.09,608.38,423.69,609.12,421.87,609.09z" />
<path class="cls-6" d="M602.25,761.41c12.66-0.48,25.31-1.19,37.97-2.13c1.67-0.25,2.62,0.97,3.35,2.52c-2.17,3.4-5.96,3.84-8.4,6.96  l-2.14,2.58l-20.67,4.06c-4.13,1.31-7.08,0.72-8.86-1.77c-2.21,2.12-6.1-0.35-7.12-2.8c-1.5-2.5-5.28-4.71-2.78-6.88  C595.79,762.05,599.76,760.5,602.25,761.41z" />
<path class="cls-10" d="M649.19,749.84c1.91,5.27-3.09,7.96-5.63,11.96c-13.92-1.26-28.23,4.39-41.31-0.39  C617.27,755.73,633.04,751.42,649.19,749.84z" />
<path class="cls-11" d="M687.77,752.1c4.39,5.04,12.66,4.88,16.26,11.4c-5.55,0.92-37.33-5.72-31.16-13.24L687.77,752.1z" />
<path class="cls-10" d="M603.49,773.64c0.04,2.32,0.07,3.48,0.07,3.48c-6.42,2.9-13.02,5.46-19.8,7.69l-5.87,0.13  c4.17-6.94,12.45-8.98,18.48-14.1C598.68,769.95,601.88,772.35,603.49,773.64z" />
<path class="cls-8" d="M243.76,612.7c-4.35,0.01-8.77,1.26-13.34-0.64l3.83-25.15C246.42,588.47,243.99,601.92,243.76,612.7z" />
<path class="cls-16" d="M719.28,1112.81c0.51,6.52-7.81,10.8-12.47,12.4c-5.2,1.79-15.35,2.38-18.48-4.17  c-3.99-8.35,4.27-14.58,10.76-17.24C707.01,1100.54,718.53,1103.28,719.28,1112.81z" />
<path class="cls-16" d="M769.52,1113.71c-1.83,8.59-11.86,7.74-18.25,5.88c-5.66-1.65-15.17-5.1-14.07-12.94  c1.18-8.39,11.62-8.79,18.07-7.57C761.98,1100.35,771.41,1104.83,769.52,1113.71z" />
<path class="cls-16" d="M658.43,997.05c-5.54,8-19.63,13-25.64,4.04c-5.93-8.84,3.36-19.42,12.04-22.02c5.49-1.65,10.94-0.71,14.09,3.1  C662.29,986.26,662.04,991.84,658.43,997.05z" />
<path class="cls-3" d="M573.11,933.94c10.89,10.29,18.13,22.89,14.11,37.64l-1.63-0.4c-0.38-5.18-4.97-3.4-5.18,0.83  c1.99,8.48,0.12,17.04-10.52,16.05c-5.01-0.47-6.24-3.73-3.63-7.4l0.98-1.27c11.98,3.87,7.7-12.79,3.34-18.42  c2.91-7.88,5.74-19.48-2.28-23.27c-0.58-2.1-1.11-4.41-2.41-7.26C568.77,927.4,572.3,930.52,573.11,933.94z" />
<path class="cls-5" d="M587.22,971.58c-2.42,8.88-4.96,24.54-15.89,26.44c-8.19,1.42-7.94-13.68-6.49-19.51  c3.2-1.56,4.09-0.22,1.42,2.15c-1.42,5.94,3.7,5.51,8.23,4.34c10.81-2.78-4.35-18.21,10.87-19.46  C588.22,965.31,586.76,969.47,587.22,971.58z" />
<path class="cls-16" d="M685.31,1006.24c5.55,5.32-12.86,17.55-19.43,14.36C664.18,1012.47,679.92,1001.08,685.31,1006.24z" />
<path class="cls-16" d="M660.22,1032.2c-5.67,8.43-15.09,12.69-23.97,15.08C638.52,1037.63,650.65,1025.95,660.22,1032.2z" />
<path class="cls-16" d="M662.86,886.03c-0.84,2.97-5.36,6.51-9.3,6.18c-2.72-0.22-3.64-2.84-2.81-5.38c1.56-4.76,9.43-4.17,10.6-4.34  C663.07,882.24,663.37,884.24,662.86,886.03z" />
<path class="cls-16" d="M538.61,958.66c-6.3,1.03-16.53-3.18-17.54-10.49c0.97-4.04,8.08-3.03,11.06-0.88  C535.2,949.51,539.24,951.77,538.61,958.66z" />
<path class="cls-11" d="M635.16,768.77c5.58,10.24-44.36,15.88-51.4,16.04c3.44-7.86,14.9-3.89,19.74-11.17  C614.02,774.08,624.62,769.62,635.16,768.77z" />
<g>
</g>
<g>
</g>
<g>
</g>
<g>
</g>
<g>
</g>
<g>
</g>
<g>
</g>
<g>
</g>
<g>
</g>
<g>
</g>
<g>
</g>
<g>
</g>
<g>
</g>
<g>
</g>
<g>
</g>
</svg>