<?xml version='1.0' encoding='UTF-8'?>
<svg xmlns="http://www.w3.org/2000/svg" version="1.1" id="Layer_1" x="0px" y="0px" viewBox="0 0 1200 1800" style="enable-background:new 0 0 1200 1800;" xml:space="preserve">
<style type="text/css">
	.st0{fill:#30739E;}
	.st1{fill:#5BABD1;}
	.st2{fill:#134366;}
	.st3{fill:#FFFFFF;}
	.st4{fill:#85BA60;}
	.st5{fill:#56925C;}
	.st6{fill:#BFE192;}
	.st7{fill:#0A2234;}
	.st8{fill:#FCADD4;}
	.st9{fill:#D855A4;}
</style>
<path class="st0" d="M560.43,588.45l1.92,1.96l-1.97,24.32c0.11,4.4,0.53,9.28,1.93,13.52c7.87,23.73,17.97,46.8,28.14,69.79  c0,0,0.26,2.27,0.77,6.81c0.66,1.3,0.85,2.5-0.43,3.13c-32.54,15.17-75.57,40.41-67.38,81.66l-1.17,2.21l1.28,5.32  c-4.69,24.31,6.56,46.04,25.37,61.36c31.12,25.34,65.4,39.12,101.2,52.66c1.87,3.27,2.43,7.33,1.66,12.17  c0.29,3.06,2.73,4.81,7.31,5.23c4.32,4.83,7.88,10.44,10.69,16.83c2.04,2.95,4.47,5.69,8.31,5.79c10.47-1.33,21.21-2.16,31.72-0.25  l2.55,2.48l3.3-0.57c17.95,2.12,35.56,5.33,52.84,9.63c2.39,2.71,1.69,5.94-2.08,9.68l-9.55,10.7c10.27-4.64,20.49-9.44,30.65-14.41  c64.9-21.26,129.27-43.52,193.1-66.78c7.05-1.74,14.54-2.03,18.21,5.47c-9.55,21.09-18.59,42.31-27.1,63.66l-0.14,2.57  c3.89,2.6,4.54,6.41,1.93,11.43l-6.09,16.59c7.35-5.41,18.21-8.78,22.54,1.78l1.36,1.95c0,0-0.97,4.77-2.9,14.3  c0.53,2.39,0.05,4.06-1.46,5c-1.83,14.59-2.46,26.79,0.47,41.39c5.52,16.17,6.85,32.96,7.91,49.61  c17.19-10.24,34.31-9.44,53.42-8.47l1.4,1.08l0.67-1.92c49.33,0.16,98.68,0.32,148.03,0.47l1.17,1.92v61.7l-0.78,1.97  c-120.06,5.28-250.45,20.11-363.81,73.24l-3.78,0.47c-4.59,3.67-9.97,6.4-16.13,8.21c-18.51,9.26-27.77,13.89-27.77,13.89  c-6.58,4.46-13.12,7.98-19.65,10.54l-1.17,1.76c-15.93-2.48-31.88-4.96-47.82-7.45l-0.84-2.07l0.32-2.86  c13.71-8.74,26.98-18.03,39.82-27.86l-5.91-0.73c-3.92,0.8-7.05,0.45-9.4-1.04l-94.27,10.29c-2.51-2.03-2.83-3.27,0.5-5.32  c36.66-25.24,70.88-55.35,98.27-89.05c1.07-1.32,13.8-17.72,12.45-18.3c-2.07-0.88-24.17,3.62-28.99,4.68  c-31.43,6.93-57.99,20.19-83.95,38.4c0,0-1.23-0.08-3.68-0.23c0.97-3.73,1.45-5.6,1.45-5.6c25.47-38.51,48.15-83.83,45.94-130.52  c0,0-0.57-0.67-1.71-2.01c-1.59,2.05-4.26,3.22-8,3.51c-23.19,9.47-44.77,22.04-64.73,37.71c-0.79-0.32-1.28-0.94-1.54-1.79  c-2.74-0.62-2.85-1.89-0.26-2.98l-0.01-1.04l-1.92-1.19c-0.2-3.4,0-6.73,0.61-10l-2.16-1.01c1.08-4.42-3.78-4.27-6.52-2.35  c-2.11,0.56-4.09,0.9-4.49-1.62l-2.08-4.02c-1.54-20.44-4.98-43.64-17.27-60.06c-0.96,2.31-3.08,3.93-6.35,4.85  c-20.94,11.85-37.44,30.18-53.1,48.1l-2.87,0.42c-2.2,1.77-3.04,0.67-1.79-1.84l-2.92-3.07c-1.28,1.36-1.84,0.81-0.86-0.86  c-1.88-0.93-3.58-1.88-5.1-2.85c-1.87-0.17-1.92-0.94-0.15-1.63c-0.63,0.01-0.75-0.62-0.84-1.23l-2.24-1.18  c-4.8-12.65-24.11-50.61-35.47-55.71c-3.08-1.38-4.8,0.1-7.12,2.56c-19.45,20.67-33.35,49.07-44.64,74.96  c-1.9,3.84-3.08,6.05-5.6,2.38c-14.06-21.74-30.06-44.42-50.18-60.21c-1.74-1.36-8.36-6.55-10.36-5.65  c-0.86,1.91-2.07,3.05-3.61,3.43l-0.89,1.14c2.68,0.09,2.66,1.76,0.13,2.72l0.75,3.39c-5.81,28.33-4.51,57.99-1.3,86.61  c-0.88,4.04-1.82,4.71-4.94,1.61c-8.8-12.33-18.53-23.64-29.19-33.95l-1.03-3.17c-8.07-7.11-16.46-13.89-25.16-20.34  c0,0-4.38-2.7-13.13-8.1c-0.61,1.45-1.21,3.36-0.97,4.95c3.86,25.32,9.26,50.51,15.62,74.55c0,0-0.22,0.67-0.67,2  c-0.15,0.85-0.42,0.83-0.79,0.02l-2.81-0.29c-21.06-16.11-44.43-31.07-68.8-41.55l-1.91,1.43  c21.52,71.85,62.86,142.36,131.04,179.09c2.36,0.75,14.53,5.08,14.08,7.67c-0.29,1.62-0.78,2.63-2.44,3.22  c-71-25.38-151.01-37.79-227.71-28.11l-3.62-1.22l-1.25,2.02c-2.15-0.18-4.21,0.37-6.18,1.65c2.25,2.97,4.62,5.81,7.12,8.53  c0,0,8.77,6.38,26.32,19.13l11.51,6.92c1.36-1.25,1.88-0.65,0.87,0.93c0.17,2.96-2.01,4.39-6.53,4.29l-152.19,4.22l-1.24-1.89  l-1.11-0.17l-0.1-154.2c-0.04-0.63-0.38-1.31-1.02-2.04v-26.88c0.64-0.82,0.95-1.37,0.95-1.63l0.07-423.78l1.02-0.68  c7.71-0.71,11.57-1.07,11.57-1.07c178.99,15.32,369.71,6.45,531.77-70.57C550.27,591.28,555.28,589.18,560.43,588.45z" />
<path class="st1" d="M1200,128.92v14.12l-0.73,1.98c-98.04,6.62-203.09,18.34-296.19,60.33c-24.19,10.91-50.79,30.77-55.78,58.18  l-2.27,2.39c-0.45-0.13-0.88-0.21-1.26-0.1c-2.09,0.58-14.55,15.47-16.05,18.51c-6.95,14.05,2.3,33.17,12.42,43.46  c25.03,25.43,56.2,42.28,88.59,56.7l2.57,3.22c2.5-1.85,4.92,0.42,3.79,3.13l1.75,3.48l-0.74,254.37l-1.92,1.19l-0.83,1.94  c-25.82,0.51-52.33,1.24-79.54,2.18l-5.25-0.92l-4.67,1.62c-84.52,7.79-171.79,20.19-249.7,51.43l-3-1.27  c-9.61-23.32-20.49-45.51-28.87-69.96c-7.6-22.16-1.69-26.47-1.93-46.45l2.96-4.17c23.39-16.6,48.8-38.57,57.53-66.53  c4.7-15.06,3.29-27.26,0.27-42.38l-1.68-2.47c-0.21-59-66.38-96.64-115.68-116.41c-116.44-46.7-245.63-63.34-369.41-64.18  l-2.04-2.25c-0.75,2.45-1.57,2.2-1.82-0.34l-4.34-2.57l-25.67-24.29c-0.38-1.55,0.34-2.71,1.6-3.66l180.32-1.26  c20.53-0.68,41.02-1.57,61.49-2.66l4.48,0.88c5.17-1.76,7.76-2.64,7.76-2.64c31-2.42,62.01-5.46,92.57-10.59  c8.21-1.38,14.14-12.32,8.43-19.3l0.74-1.97l-1.7-1.26c-6.62-36.88-45.13-57.97-76.39-73.45l-32.33-14.84l-1.71-2.9l0.92-1.92  c0,0,284.02-0.09,852.06-0.28L1200,128.92z" />
<path class="st2" d="M831.63,1245.92l2.16-0.34c33.96,11.13,71.75,17.56,107.79,22.61c46.16,6.46,99.22,10.2,145.7,11.61  c38.3,1.17,75.43-0.59,111.49-2.34l1.23,1.87v58.1l-4.59,2.08c-30.24,6.57-60.03,13.8-89.39,21.68l-1.36,1.6  c-10.21-3.76-20.56-6.28-31.06-7.54c-7.12,2.07-13.77,5.89-19.96,11.46c-15.08,8.69-30.67,16.92-46.78,24.69  c-38.98,21.34-83.12,48.82-96.43,93.45l-2.75,2.98c-5.39,15.97-9.08,30.81-6.41,47.69c10.79,68.13,97.96,108.49,154.23,133.69  l-0.61,2.26l-0.93,1.92c-272.23-0.01-544.49-0.03-816.78-0.04l-1.21-1.92c0.55-3.35,2.77-6.07,6.67-8.16  c33.16-22.48,65.69-53.97,67.81-96.45c0.8-2.73,3.47-3.49,7.99-2.26c6.55,0,8.99-3.16,11.36-8.9c5.14-14.08,10.84-27.92,17.11-41.52  l2.11-2.22c6.35,6.08,11.53,13.32,15.53,21.73c3.25,7.73,7.39,14.37,12.4,19.93c4.94-2.15,9.63-4.97,14.09-8.46  c2.21-1.13,5.08-1.44,6.15,1.17c1.14,4.62,8.97,23.06,14.14,21.1c19.98-7.57,43.76-35.32,56.7-52.44  c15.77-20.86,27.3-42.2,26.66-68.91c1.13-3.91,2.17-5.38,5.76-2.52c9.36,6.21,18.93,12.07,28.73,17.56  c29.13,16.32,60.46,28.59,90.42,40.26c4.16-6.66,5.91-14.64,5.24-23.94c-0.58-22.4-4.35-44.4-11.3-65.99  c-0.72-2.99-0.03-5.26,2.19-7.38c0.51-0.49,11.07-7.16,11.95-7.58c4.16-1.99,7.97-2.53,12.7-2.48c39.46,2.78,80.43,3.02,119.61,1.65  c15.48-0.54,34.2-1.74,49.07-5.68c3.35-0.88,10.96-2.93,5.4-6.25c-23.41-16.8-47.96-31.73-73.64-44.77  c-2.12-2.4-3.37-6.36,0.19-7.49l0.47-2.09c21.5-5.63,42.13-13.31,61.91-23.03l2.18,0.35c1.06-2.03,3.25-3.55,6.55-4.55  c4.96-2.58,8.16-6.1,9.61-10.54l-3.3,0.35c-14.8-3.79-29.69-7.26-44.69-10.43l-5.7-2.9c1.04-1.89,2.84-3.09,5.06-4.39  C792.02,1263.08,811.18,1252.64,831.63,1245.92z" />
<path class="st4" d="M848.59,653.07c7.24,4.38,14.96,7.76,22.83,10.94c26.2,10.59,57.24,21.84,84.81,29.48  c66.37,15.92,132.73,29.39,199.08,40.42c13.51,2,27.34,1.27,40.56-2.18l4.14,0.84v340.47l-0.68,1.91l-111.78-1.09l-10.4-1.33  l-1.06-2.07l-2.49-1.46c-20.33-27-34.63-58.22-44.39-90.45l-6.33-15.27c-0.94-5.58-2.72-10.68-5.33-15.28  c-2.22-0.44-3.8-1.26-4.75-2.45c-1.76-2.41-1.55-5.55,0.63-9.43l25.35-64.52l2.71-1.66l-1.12-2.29c2.98-5.23,5.53-10.64,7.66-16.24  l-30.48,7.05c-49.59,13.77-98.2,28.05-145.83,42.83c-30.84,11.05-55.89,11.68-87.33,4.94c-51.17-10.96-104.73-24.52-148.18-54.33  c-4.64,2.15-11.1,2.04-16.07,0.81c-29.2-7.24-56.02-20.35-80.36-38.01c-7.28-5.28-16.88-13.57-17.53-22.86  c-3.5-7.65-1.91-17.46,0.19-25.46c2.66-10.17,7.6-18.17,14.99-25.64c14-14.13,31.2-24.53,49.32-32.85c1.96-0.9,3.6-1.52,4.48-3.05  c9.71-2.02,18.39-7.01,28.38-10.35C692.77,670.01,772.37,658.49,848.59,653.07z" />
<path class="st5" d="M130.56,289.72l1.82,0.34l2.26,5.68l12.26,116.81c1.65,10.35,4.35,21.37,7.76,31.22  c0.89,2.56,1.53,3.46,3.89,4.84c28.48,16.7,64.95,31.67,96.1,41.55c61.43,19.49,126.4,36.65,190.21,43.12l2.6-2.02  c40.99,14.27,92.9,25.32,133.59,5.97c3.02-2.43,6.16-3.63,9.42-3.6l0.32,3.09c-22.36,25.83-60.11,42.92-92.51,54.58  c-109.09,39.29-230.56,53.6-344.88,50.84c-48.87-3.93-97.84-5.89-146.91-5.89l-4.39-1.77l-1.06-0.17L0.95,424.19  c0.01-0.48-0.31-1.08-0.95-1.79v-3.84c-0.02-0.85,0.48-1.41,1.5-1.67c43.33,8.41,87.13,16.48,131.4,24.2L1.24,362.02L0,359.04v-4.8  c0.62-0.77,0.95-1.41,0.98-1.92c-0.12-17.62-0.07-35.24,0.17-52.88l1.73-0.98l4.16-2.11c27.91-3.13,55.81-6.5,83.68-10.11  c9.85-0.64,26.94-1.73,36.02,0.9L130.56,289.72z" />
<path class="st6" d="M1200,143.04v265.97c-0.8,0.44-1.62,0.84-2.47,1.11c-0.85,0.27-1.67,0.53-2.45,0.47  c-89.56-6.55-199.28-23.28-279.9-63.79c-22.1-11.1-51.26-28.78-63.72-50.53c-2.49-4.34-4.18-7.9-4.11-13.11  c-2.61-1.05-3.93-3.79-3.96-8.22c-1.23-4.35-0.68-7.36,1.65-9.01c3.19-28.6,29.5-48.39,54.14-60.77  c32.57-16.37,66.8-26.76,102.34-35.06c46.92-10.96,93.67-18.79,141.78-22.58L1200,143.04z" />
<path class="st5" d="M1106.02,1361.19c5.54-0.83,11.19,0.12,16.95,2.85c23.32,12.81,48.28,22.13,73.63,30.29  c0,0,1.14,1.07,3.41,3.21v274.26c-1.6,0.28-3.22-0.3-4.8-0.3c-29.46-4.12-58.4-14.48-86.28-24.86l-27.35-11.67l-33.48,4.82  c-52.61-24.06-122.01-57.61-140.31-117.04c-3.48-11.3-5.18-23.87-0.11-34.91c4.45-18.82,14.5-34.95,28.4-48.68  c14.01-13.85,28.5-25.17,45.4-35.39c18.56-11.23,37.17-21.17,56.75-30.5c27.67-13.18,25.79-24.69,47.77-18.09L1106.02,1361.19z" />
<path class="st0" d="M1200,450.22v222.82c-4.29,0.2-8.62,0.32-12.88-0.31c-79.65-11.71-159.35-23.25-240.17-21.13  c-4.3-0.09-8.55-0.85-12.76-1.73l0.4-233.03c0.02-9.41,0.03-17.47,0.52-26.01l1.5-1.47c81.85,34.29,174.77,50.31,262.45,58.83  L1200,450.22z" />
<path class="st5" d="M1200,1170.24v109.09l-48.09,2.15c-46.75,2.09-92.62-0.47-139.15-4.33l-27.85-2.31  c-49.31-4.08-97.68-12.47-145.53-24.96c-3.34-0.87-6.12-1.66-7.76-3.96c88.43-45.07,213.16-66.59,311.99-72.38L1200,1170.24z" />
<path class="st6" d="M934.2,649.87c89.2-1.84,177.96,7.45,265.8,23.17v59.54c-15.81,4.68-32.05,5.66-48.84,2.6l-83.46-15.22  l-52.82-10.78c-32.56-6.64-64.21-13.97-95.37-25.4l-45.61-16.74c-1.9-0.7-29.43-11.33-25.31-13.97c18.94-1.35,37.8-2.21,57.19-2.61  L934.2,649.87z" />
<path class="st2" d="M453.12,222.79c0.28,2.14-1.09,3.42-4.1,3.85c-26.88,4.21-53.85,7.65-80.9,10.33  c-6.76,2.66-12.02,6.82-15.78,12.48c-0.68,3.25-1.98,5.49-3.9,6.71c-24.75,2.32-49.26,3.64-74.95,3.81l-171.99,1.15l27.31,25.83  c0.95,0.9,1.38,1.92,1.76,2.77c-40.91-7.52-85.14,7.29-127.68,8.74c-1.36,2.4-1.74,2.9-2.88,0.1v-7.68c0.6-0.78,0.94-1.44,1.02-1.96  l0.02-55.77l1.03-0.66l0.78-1.88l119.02,6.91c109.55,5.74,221.82-0.56,326.18-15.98C450.27,221.29,451.96,221.71,453.12,222.79z" />
<path class="st7" d="M1200,409.01v24.8c-1.14,0.43-2.29,0.82-3.47,1.07c-1.17,0.25-2.33,0.48-3.46,0.41  c-81.43-4.89-180-21.62-255.15-53.5c-1.04-0.44-1.97-1.17-2.91-1.92c-0.94-0.76-1.79-1.62-2.62-2.52l-2.98,0.79  c-27.5-12.78-59.57-29.6-75.72-56.36c-5.07-8.4-11.63-26.5-8.61-36.05c0.36-1.13,1.34-1.9,2.27-2.56  c5.35,15.21,16.24,27.3,29.3,37.51C951.56,379.22,1106.88,402.77,1200,409.01z" />
<path class="st7" d="M1031.13,1072.38c0.04-0.74,0.15-1.85,0.68-1.98c1.46-0.35,12.63-1.28,13.23-1c0.74,0.36,1.16,1.08,1.46,1.82  c0.07-0.75,0.26-1.86,0.8-1.94c3.04-0.44,23.97-1.19,25.98-0.67l2.8,1.85l11.59,1.49l112.33,1.09v13.69l-2.55,2.1l-13.81,0.68  l-156.87-0.41c-1.61,4.54-4.45,8.15-8.1,11.2c9.46,2.51,19.36,3.64,29.7,3.4c2.58,0.92,4.1,2.23,1.77,4.34l-28.78,0.5  c-12.56,0.22-27.91,12.61-28.34,8c-0.9-9.62-0.36-18.93-1.91-28.31c-1.18-7.13-3.75-13.56-5.29-20.65  c-3.17-14.6-4.16-29.59,1.12-43.15l2.02,0.18l9.24,36.79c2.09,5.48,5.42,12.13,11.8,13.03l16.56-3.08L1031.13,1072.38z" />
<path class="st7" d="M0,418.56v-2.88c0.62-0.88,0.94-1.38,0.97-1.51l0.01-41.71c-0.01-0.54-0.34-1.17-0.98-1.9v-11.52l127.05,76.12  c4.32,2.59,8.15,4.52,11.41,8.6c-19.5-2.5-37.2-6.08-56.09-9.64L0,418.56z" />
<path class="st2" d="M1200,433.81v16.42l-49.15-5.4c-47.45-5.22-142.79-25.25-186.35-42.41l-29.4-11.58  c-1.19-0.81-2.32-2.5-3.79-3.13c-1.91-1.67-1.91-9.91,1.07-10.36C1008.9,410.73,1116.76,428.81,1200,433.81z" />
<path class="st4" d="M1200,1337.43v60.1c-26.48-9.18-47.72-15.37-73-29.48c-6.96-3.89-13.84-4.72-20.98-6.86  c0.9-0.78,1.85-1.72,3.49-2.22C1139.43,1349.81,1169.48,1342.52,1200,1337.43z" />
<path class="st8" d="M600.06,1059.92c7.51,0.67,4.71-3.62,11.43-0.57c2.67,1.22,0.87,3.96,1.74,5.53  c-1.33,22.02-5.18,43.64-11.55,64.88c2.81-3.63,5.84-7.58,9.09-11.85c3.35,1.53,6.65,0.29,9.89-3.72  c8.24-3.92,9.59-22.63-2.71-14.44c-1.39,0.7-3.76,0.56-4.59-0.75c-0.82-1.3-0.6-14.3-0.28-16.82l1.71-2.09  c1.77,0.31,2.64-1.24,4.15-2.33c16.61-12.01,50.69-35.77,70.12-37.1c2.1,0.74,2.36,3.21,1.96,5.15  c-9.36,44.85-32.31,85.03-58.54,122.13c-5.55,3.92-5.17-2.65-2.45-6.56c7.24-11.34,35.83-61.56,28.94-72.07  c-1.78-2.71-2.88,3.6-2.45,4.35c-12.53,31.04-25.52,61.55-39.65,91.48l-0.71,4.45l-23.97,33.74l49.04-45.18l2.15,0.63  c9.76-4.88,18.11-11.91,28.16-17.64c27.76-15.83,58.67-24.36,90.49-27.18c2.57,7.05-35.37,46.87-40.66,52.02l-6.87,6.69  c-20.67,20.14-42.31,37.77-67.05,54.13l61.19-6.22c11.81-1.2,23.08-1.97,34.41-2.28c-1.75,1.85-3.88,3-6.43,3.11  c-38.51,4.84-77.15,10.47-115.92,16.89l-2.17,2.78c-26.89,19.43-56.59,37.8-89.44,44.06c-9.12-1.54-17.28-6.25-24.98-11.06  c-3.86,2.46-7.69,5.05-11.51,7.78c-2.62,1.45-5.58,1.98-6.55-1.57c-4.24-21.14-12.63-39.86-23.32-57.96l1.04-2.12l3.16-0.95  c0,0,8.09,3.89,24.27,11.67l-18.44-10.82l-0.56-2.52c-2.54-1.59-2.68-3.59-2.86-6.4c-0.48-15.56-0.72-23.33-0.72-23.33l-3.35,21.32  c0,0-0.85,1.4-2.54,4.21c-3.11,1.88-8.17-0.56-11.36-2.28c-1.57,1.5-3.79,1.93-6.66,1.3c-12.22,1.87-24.38,3.9-36.47,6.1  c-19.31-21.61-33.21-53.36-32.78-82.51c-0.19,0.86-0.54,0.48-1.06-1.14c-2.65-1.17-1.99-3.39,1.98-6.64  c1.73-14.89,4.62-29.54,8.69-43.95l2.11-20.36c1.08-3.14,2.02-4.77,4.88-2.6c22.78,20.28,42.2,43.71,58.27,70.3  c0.99-6.32,3.73-12.34,8.22-18.06c4.59-9.36,10.15-20.83,9.26-31l-8.78,6.16c-1.7-0.36-2.44-1.08-1.07-1.91  c-1.88-0.35-2.55-2.52-1.99-6.52c-1.25-4.36-6.06-4.86-8.12-0.79l-2.4,0.57c-0.23,3.94-1.45,5.31-3.66,4.11  c-0.57,2.54-2.82,2.9-6.76,1.07c-2.75-2.53-5.34-5.21-7.78-8.06c-2.66-1.01-5.33-1.88-8.03-2.61c-0.95,1.28-1.36,1.05-1.41-0.44  c-0.19-3.21-0.33-6.47,0.28-9.65c3.01-15.58,6.23-31.23,9.5-46.76c0.58-2.75,2.6-4.43,5.46-3.52c2.9,0.91,16.3,22.78,18.69,26.89  c6.34,10.88,12.43,21.99,15.23,34.3c6.41-13.13,14.74-25.63,25-37.49c4.11-6.26,8.84-11.56,14.21-15.88  c5.79,2.25,7.69,4.63,10.06,9.99c0.32-1.09,1.03-2.04,2.15-2.82c14.39-17.08,41.15-46.24,62.31-53.36c2.2,1.45,4.29,5.97,4.99,8.55  c5.22,19.24,9.85,38.04,9.99,58.21C597.08,1061.26,598.53,1060.36,600.06,1059.92z" />
<path class="st9" d="M285.94,1109.73l0.79-0.02c0.87-0.19,1.61,0.47,2.23,1.98c1.85,0.39,1.9,1.2,0.12,1.83l0.87,1.09  c3.88,0.67,4.93,6.65,4.72,10.3l2.34,2.73c5.38,12.41,10.95,24.75,16.73,37.04c-7.93-21.21-13.29-42.35-16.06-63.42  c-2.55-0.44-2.51-2.09-0.06-2.94c0.75-3.21,0.7-6.54,0.08-9.76c-1.76-0.49-1.76-1.3-0.01-1.76l0.62-4.88  c-3.85,0.35-1.07-9.48,1.6-9.95c2.32-0.4,5.57,1.59,2.72,3.31l1.25,1.37c10.34,38.14,27.46,75.58,50.22,108.3  c4.84,6.96,17.26-10.1,18.9-14.67c-1-3.01-0.59-4.9,1.21-5.67c-1.96-2.27-2.55-8.23,0.17-9.72c0.38,0.04,1.18-0.3,1.47-0.03  c0.66,0.6,0.39,1.79,0.37,2.85c-0.34,21.1,16.81,63.06,32.6,79.18l26.91-5.33c5.57-1.1,10.51-1.47,15.62-0.42  c4.15,1.81,8.1,4.09,11.83,6.83l0.58,2.28l12.12,22.51c4.83,8.97,9.89,28.5,12.4,38.61c7.76-1.37,13.1-11.35,17.21-8.7  c7.46,4.82,15.56,9.11,23.55,10.61c16.95-3.36,31.23-8.89,45.78-16.88c14.88-8.17,28.81-16.65,42.44-26.73  c0.98-0.72,1.55-2.91,3.03-3.17c16.32-2.84,32.2-5.5,48.73-7.81l39.42-5.51c11.91-1.67,23.45-2.6,34.6-4.85  c5.87-1.19,12.93-1.34,19.04,0.54c-10.82,12.93-32.86,21.59-43.86,31.96c-2.7,3.52-8.24,6.7-12.48,9.05  c-18.07,9.99-35.14,18.19-54.1,26.32c-0.78,0.34-1.7,0.39-2.64,0.43c-0.96,0.05-1.93-0.03-2.89-0.15l-2.83,2.59  c-22.81,6.78-48.9,9.51-72.61,8.14l30.95,13.65l0.26,2.21c5.59,2.33,17.82,8.15,21.22,12.94l0.06,2.68  c9.4,7.27,10.39,15.86,6.85,26.66l-2.15,1.32c-0.77,2.7-3.85,1.71-3.74-1.06l-7.82-5.78c-0.93,1.71-3.69-0.2-3.91-1.79  c-14.73-8.03-29.92-15.91-45.56-23.64l-39.85-25.26c1.53,4.44,3.03,11-2.58,12.9c-8.44,1.81-16.09,5.99-22.97,12.56l-3.42,0.52  c-0.88,0.64-1.95,1.36-2.94,1.12c-15.33-3.69-33.4-20.06-41.77-33l-1.87,1.39l-12.3-1.7c-2.95-0.14-4.36-1.27-4.24-3.39l-2.67-0.47  c-19.64,6.74-37.8,10.28-59.24,9.59c-26.36-0.85-53.18-7.5-78.32-15.97l-0.78,1.06c-7.32-3-14.66-5.94-22.02-8.82  c-1.09,0.9-2.48,0.93-4.17,0.08c-2.65,3.43-3.62,7.73-2.89,12.9c-0.34,1.72-1.64,2.19-3.35,2.18l-30.97-8.23l-0.87-2.22  c-0.86,0.28-1.72,0.51-2.6,0.61c-0.86,0.1-1.68,0.17-2.42-0.04c-19.89-5.59-41.2-16.97-59.24-27.14c-0.67-0.38-1.2-1-1.75-1.66  c-0.56-0.68-1.02-1.44-1.44-2.23c-0.33-0.18-0.63-0.65-0.87-0.93l-11.51-6.92c-4.02-2.29-31-21.01-29.96-23.6  c0.19-0.47,0.59-0.85,1.06-1.2c0.25-1.5,0.88-2,2.17-1.37c-0.92-2.46-0.68-4.18,0.72-5.15c13.01-2.96,26.61-2.51,40.37-3.41  c47.07-3.09,114.88,6.2,160.05,20.76l32.1,10.35c-3.48-5.4-9.4-5.26-14.16-7.78c-24.08-12.77-44.26-29.86-62.5-50.32  c-28.28-31.73-48.41-69.02-62.13-109.19c-2.5-7.31-4.92-13.95-5.11-21.06c2.01-1.61,3.41-0.48,4.2,3.38  c10.65,19.58,22.16,38.66,34.53,57.23c-0.65-10.39,18.46-17.35,27.09-19.91C281.2,1108.41,283.77,1108.32,285.94,1109.73z" />
<path class="st2" d="M229.64,1299.6c0.82,1.8-0.18,3.22-2.99,4.26c-38.88,11.38-76.51,27.18-110.07,49.59  c-0.33,0.22-0.93,1.03-0.81,1.26c1.84,3.54,29.96,10.12,35.31,11.2c36.01,7.3,74.3,12.67,111.94,15.62c2.58,2.13,2.21,5.59,0.59,8.3  c-11.22,17.09-21.87,34.5-31.94,52.22c0.63-0.26,1.33-0.49,2.01-0.34c5.34,1.12,24.06,14.23,29.17,18.39l1.17,3.03  c1.01,2.5-1.55,3.23-3.72,3.51c-42.05,5.45-88.69,0-128.44-14.67c-13.4-6.63-27.3-10.91-41.7-12.85  c-23.04-1.61-48.16-3.49-70.44-9.98c-8.45-2.46-8.45-10.82-4.68-17.2l22.71-28.43c0,0,0.67-1.56,2.02-4.68l-35.71-4.06l-1.18-2.07  c-1.21-1.27-1.68-2.98-1.7-4.71l1.04-92.23l153.34-4.25c2.81-0.08,5.26-0.86,6.61-2.37C184.06,1280.83,205.62,1293.23,229.64,1299.6  z" />
<path class="st7" d="M1041.48,869.94c-4.08,2.45-8.86,3.88-14.35,4.3c-56.32,18.48-112.73,36.32-169.24,53.51l-24.35,4.35  c-1.12,4.36-2.54,8.59-4.26,12.7c-19.5,3.66-39.35,3.15-59.54-1.53c-19.11-4.33-38.23-6.85-57.35-7.55  c-0.8,5.27-0.46,10.4,1.02,15.41l-1.09,2.32c-10.54-2.42-21.91-1.95-32.55-0.43c-11.97,1.72-15.13-16.45-20.38-21.94  c-2.33-2.44-9.64-0.29-9.57-8.11l0.09-9.79l-34.68-13.74c-25.34-10.04-49.2-23.4-69.66-41.22c-13.17-11.48-22.24-25.55-24.65-42.51  c-1.19-8.37,0.65-16.03,1.3-23.86c4.26,9.32,12.14,16.45,20.65,22.83c21.96,16.46,47,27.18,73.21,35.01  c6.91,2.07,13.08,2.84,20.5,0.47c24.39,16.54,50.3,27.91,78.46,36.17c28.21,8.27,55.7,15.95,84.68,20.8  c12.88,2.16,25.07,2.91,37.81,0.52c12.45-2.34,24.03-5.3,36.2-8.97l86.21-26.04c29.97-9.05,59.31-17.42,90.52-23.46  C1049.05,857.43,1044.04,863.37,1041.48,869.94z" />
<path class="st2" d="M560.43,588.45c-27.91,17.3-71.18,33.06-103.79,43.11c-63.81,19.67-129.56,31.52-196.41,37.73  c-86.25,8.02-172.49,3.54-258.19-2.9l0.08-31.91c116.42-4.27,165.48,23.17,365.38-10.72c42.66-7.23,83.66-17.63,124.33-32.14  c27.24-9.72,52.9-21.3,76.77-37.39c8.68-5.85,16.85-12.02,21.91-20.6l0.99-3.73c13.71-14.2,23.99-31.88,27.32-51.49l2.39-3.04  c10.83,22.03,2.43,50.88-12.82,70.02C594.93,562.27,578.65,577.15,560.43,588.45z" />
<path class="st2" d="M1041.48,869.94l-22.27,57.13c-2.49,6.38-5.53,12.15-6.42,18.48l-0.23,3.47  c-6.63,17.24-13.41,34.42-20.33,51.54l-2.29,2.65c-3.18,0.71-4.55-4.87-7.36-5.08c-3.69-0.27-9.26,1.8-12.6,3.46  c-2.29,1.15-1.56,6.17-5.65,5.37c0.04-7.17,10.05-26.13,8.76-29.63c-0.35-0.93-2.36-1.37-2.97-2.51c-1.85-3.42,0.95-6.82,2.26-10.15  c7.65-19.53,15.1-38.49,24.76-57.54c-4.35-5.33-10.73-5.49-16.53-3.4l-74.08,26.72l-117.2,39.43  c-12.62,4.25-22.53,12.78-35.84,16.06c1.77-8.02,12.65-13.06,15.17-21.38c-6.28-2.59-12.66-3.35-19.12-4.26  c-12.87-1.82-25.11-4.07-37.2-6.85c-2.82-5.89-2.9-12.55-0.9-19.1c9.36-0.81,17.89-0.17,27.04,1.56  c18.55,3.51,36.62,6.52,55.43,8.68c11.62,1.33,22.76,1.16,34.37-1.16l3.56-12.97l25.61-4.57l31.72-9.2l88.08-28.46l38.33-12.73  C1024.29,872.61,1032.8,870.81,1041.48,869.94z" />
<path class="st8" d="M374.23,1164.6c-0.09,2.24,1.56,6.01,0.11,8.35c-2.38,3.83-12.89,17.18-18.21,15.99  c-1.68-0.38-2.98-2.04-4.31-3.87c-16.41-22.64-27.94-47.72-38.46-73.7c-4.9-12.1-9.66-23.57-10.71-36.09  c2.02-0.86,1.77-1.83-0.75-2.9c-2.3,0.55-4.01-0.03-5.14-1.74l-17.21-33.85c0.34-1.57,1.55-2.24,3.1-2.54c0,0,9.47,7.47,28.4,22.41  c13.59,9.6,21.98,25.29,33.58,38c-3.61-24.34-5.04-71.87,2.14-92.5c2.87-1.54,3.87,1.3,4.36,3.93  c-0.1,38.86,0.56,79.53,12.03,116.58c2.19-13.41,2.91-26.94,2.16-40.6c-3.06-26.8-7.72-53.3-13.96-79.5  c-0.27-3.84-0.5-7.31,3.84-5.53c8.11,3.33,23.31,20.49,29.64,27.78c9.26,10.67,26.17,32.23,29.52,45.57  c0.78,3.1-2.68,21.22-4.7,22.01c-0.99,0.38-2.03-0.03-2.84-0.59c-5.85-5.82-12.27-10.36-19.26-13.61  C370.09,1101.29,366.56,1136.59,374.23,1164.6z" />
<path class="st3" d="M506.74,1037.72l0.84,1.23l0.15,1.63c1.56,0.9,3.26,1.85,5.1,2.85c0.19,0.34,0.64,0.54,0.86,0.86l2.92,3.07  c0.41,0.78,1.02,1.42,1.79,1.84c-0.11,0.89,0.39,2.33,0.05,3.29c-0.25,0.72-1.41,1.68-2.25,1.58c-0.93-0.11-2.95-1.89-2.87-3.04  c0.18-2.75-5.73-9.19-8.05-6.53c-11.17,12.83-20.6,26.83-30.86,40.44c-3.77,5-4.07,10.75-9.12,15.97  c0.23-18.08-21.21-48.62-31.2-63.28c-0.72-1.05-1.57-1.83-2.6-1.85c-0.97-0.02-1.8,1.07-2.04,2.39  c-3.5,19.02-7.23,37.56-11.65,55.97c0.56,1.34,0.88,3.07,0.96,5.18l1.54,2.59l2.85,0.98c5.52,6.81,10.78,13.77,15.77,20.88  c0.4-1.59,1.23-2.01,2.97-1.48c0.35-2.76,1.56-4.06,3.63-3.9c3.01-4.24,6.41-8.24,10.21-11.99l2.2,0.42  c-3.2,3.27,8.68-6.74,9.98-6.46c1.03,0.22,2.57,2.24,2.35,3.98c-1.71,13.66-7.34,26.76-15.02,38.44c-3.71,5.63-3.71,9.96-1.61,17.09  c-18.95-27.22-37.42-57.5-64.22-78.3c-1.59,10.44-1.14,20.6-4.2,30.52c-3.71,12.02-5.43,23.79-6.94,36.24  c-0.32,2.66-4.66,3.5-3.9,6.55c0.75,3.01-0.04,6.68-0.17,9.72c-1.8-0.62-3.23-2.54-3.67-4.98c-3.31-18.2-2.51-36.54,1.97-54.64  c1.53-6.2,9.74-26.52,14.22-28.52c4.23-1.89,17.86,11.34,22.47,14.78c0.21-7.26,5.18-15.46,2.79-22.32  c-4.22-12.11-12.9-21.73-20.09-32.14c-11.14-14.64-23.05-27.99-39.2-39.29c0.56,9.78,4.4,18,5.87,27.22l7,43.87  c2.47,15.46,3.07,29.98,0.33,45.45c-0.75,4.24,0.88,9.09-3.41,12.78c-5.18-12.76-6.96-25.34-8.79-38.57  c-3.75-27.06-5.22-53.78-4.44-81.1c0.06-2.26-1.2-3.98-2.5-4.97c0.28-0.8-0.34-1.9-0.13-2.72l0.89-1.14  c0.35-1.79,1.12-3.9,2.33-4.85c5.2-4.09,24.39,16.23,29.1,20.59c13.43,14.41,24.41,29.44,35.18,47.53  c4.36-13.18,9.92-24.14,16.53-35.55c9.06-15.63,17.08-31.41,29.93-44.04c2.08-1.78,4.09-3.75,6.46-3.8  C476.9,977.98,504.88,1026.28,506.74,1037.72z" />
<path class="st5" d="M1076.08,1070.47l-29.59,0.76c-1.72-0.83-3.31-2.24-4.79-4.23c-9.74-8.24-32.74-13.81-10.63,3.17l0.05,2.22  l-18.38,3.78c-9.68,1.99-15.59-9.85-17.74-18.69l-8.06-33.03c-1.49-6.11,0.85-15.18,2.99-21.25c6.88-19.47,13.93-39.16,22.85-57.65  c10.22-2.72,9.41,12.2,12.67,19.06c4.77,10.05,7.88,19.69,11.29,30.3C1045.61,1022.55,1060.5,1046.73,1076.08,1070.47z" />
<path class="st3" d="M718.24,1270.81l49.83,7.76c18.15,2.83,36.12,7.68,53.68,12.99c0.25,0.45,0.44,0.89,0.38,1.31  c-0.3,2.38-14.16,8.47-16.65,9.25l-2.02-1.19c-0.31,0.67-0.66,1.32-1.11,1.89c-3.22,4.1-22.9,7.35-29.08,8.17  c-42.29,2.91-83.69,1.02-125.24-1.03c-1.99-0.51-2.91-1.44-1.92-3.51c22.31-9.56,44.64-18.82,65.35-32.49  C713.54,1272.6,715.92,1270.45,718.24,1270.81z" />
<path class="st3" d="M643.4,1178.79l-55.03,50.74c-1.7,1.56-1.41,5.29-5.16,3.71l4.99-7.57l26.4-37.01  c-0.33-7.3,6.38-15.6,9.49-22.92l20.19-47.51c3.56-8.37,8.19-15.96,10.38-24.97c0.47-1.93-0.28-5.01,1.59-5.43  c1.2-0.27,4.63-1.12,4.89,0.78c2.74,19.59-15.39,48.95-25.14,66.49c-2.48,4.46-5.78,8.4-6.63,13.94  c26.43-37.21,50.21-77.84,59.67-122.98c0.42-2,0.12-3.79,0.03-5.39c0.89-0.06,2.24-0.22,2.87,0.54c0.52,0.63,1.09,2.03,1.15,3.32  c0.67,15.95-2.12,31.05-6.37,46.49C677.84,1123.32,661.84,1151.67,643.4,1178.79z" />
<path class="st8" d="M285.94,1109.73c-11.19,2.86-16.98,6.2-27.75,11.36c-8.84,4.23-2.84,15.47-5.93,13.07  c-5.14-3.99-32.24-51.13-37.36-60.62c-0.92-1.7-0.62-3.99-2.47-4.22c-0.02-0.91-0.42-2.18-0.01-3.12  C214.49,1061.34,281.81,1102.86,285.94,1109.73z" />
<path class="st3" d="M311.04,1056.66l-30.04-21.22l17.76,34.9l6.58,1.81c13.03,16.22,25.76,31.98,36.89,50.18  c-7.58-5.05-10.56-13.35-16.33-19.67c-6.68-7.33-12.32-15.03-18.36-22.85c-1.46-1.89-2.63-4.28-4.89-4.53  c-0.34-0.38-0.38-1.53-0.89-1.78c-3.3-1.6-3.58,9.17-3.42,8.42l-0.62,4.88c0.17,0.47,0.04,1.26,0.01,1.76  c0.63,3.23,0.67,6.55-0.08,9.76c0.01,0.87,0.33,2.13,0.06,2.94c0.49,6.6,0.46,13.21-0.08,19.84c0.06,2.72-0.92,3.99-2.93,3.81  c-1.26-3.58-3.75-6.6-4.72-10.3l-0.87-1.09c-0.11-0.6-0.06-1.22-0.12-1.83c-1.28-3.06-2.46-6.24-3.53-9.56  c-5.07-22.38-9.57-44.87-13.5-67.49c0,0,0.27-2.14,0.82-6.43C277.57,1024.06,307.46,1051.56,311.04,1056.66z" />
<path class="st3" d="M614.54,1076.08l0.01,1.04c0.01,0.99,0.12,2,0.26,2.98c0.81,5.85-0.28,11.75-0.08,18.03  c3.08,1.35,6.59-4.54,11.6-1.73c4.35,2.45,1.1,14.48,1.89,12.93c-1.18,2.33-12.17,11.56-13.47,11.65c-1.09,0.07-2.12-0.81-3.38-1.72  c-3.55,5.75-6.94,11.53-11.91,16.72c-0.32-9.3,2.91-16.97,5.09-25.27c3.26-12.45,5.86-24.64,6.06-37.43  c0.05-3.38,0.25-6.41,2.62-8.39C615.11,1068.3,614.5,1072.19,614.54,1076.08z" />
<path class="st3" d="M600.06,1059.92c0.07,2.47-3.4,5.2-5.96,4.82c-1.24-20.04-3.64-39.47-9.78-58.49c-1.21-3.76-3.43-6.8-3.61-10.4  c2.53-0.85,5.18,3.45,6.33,5.84C595.79,1019.95,599.5,1040.04,600.06,1059.92z" />
<path class="st8" d="M288.97,1111.69c-0.73,0.32-2.17-1.21-2.23-1.98c-0.56-6.51-5.61-18.45-7.26-25.38  c-4.15-17.43-7.12-33.8-8.59-51.14c-0.16-1.87,0.83-4.1,1.86-4.99c-0.47,3.38,0.03,6.74,0.83,10.46l6.57,30.34  c1.43,6.59,8.1,28.13,5.62,33.06C288.15,1105.15,288.61,1108.44,288.97,1111.69z" />
<path class="st7" d="M120.9,1236.5c0.36,3.42,3.83,4.84,6.51,6.97l22.39,17.83c-7.77-3.4-33.33-19.38-33.44-27.66  C118.52,1231.46,121.97,1233.59,120.9,1236.5z" />
<path class="st4" d="M621.19,475.37c-2.9,22.56-14.66,42.47-30.7,58.26c-13.47,9.5-27.95,14.2-44.82,15.25  c-17.49,1.1-34.2-0.34-51.62-3.24c-16.15-2.69-31.8-5.54-46.34-12.79c-1.9,3.53-4.55,2.56-7.42,2.32  c-42.23-3.57-147.31-28.8-187.46-43.63l-39.46-14.57c-18.98-7.01-36.66-15.17-53.93-25.58c-4.7-2.83-5.63-3.17-7.13-8.88  c-2.54-9.67-6.23-19.17-7.31-29.74l-6.84-67.08c-1.94-18.99-4.89-37.18-5.78-55.62c7.54,1.38,15.53,0.37,24.17,0.52  c111.82,1.86,241.19,21.26,345.18,62.99c19.89,7.98,37.89,17.32,56.14,28.4c21.81,13.25,44.35,32.31,55.61,56.04  C618.73,449.1,622.78,463.03,621.19,475.37z" />
<path class="st4" d="M345.81,129.2c36.79,17.06,96.32,39.64,110.49,82.68c1.11,3.37,2.54,6.45,1.64,9.77  c-0.12,2.75-1.8,2.6-2.82,0.13c-2.71,0.38-5.47,0.13-8.15-0.44c-128.6-28.68-256.01-58.55-382.23-89.61  c-0.4-0.91-0.22-1.75,0.44-2.55L345.81,129.2z" />
<path class="st0" d="M845.04,265.92c-0.61,5.44,0.51,12.13,2.31,17.23c-7.38,46.78,48.36,78.18,85.04,94.18  c-0.42,3.46,0.32,7.12-1.07,10.36c-29.77-12.84-68.72-33.29-91.37-57.31c-14.26-15.12-25.35-39.21-6.94-56.15  C833.48,273.8,845.24,259.43,845.04,265.92z" />
<path class="st0" d="M457.94,221.65c3.97,3.52,4.63,11.87,1.02,16.5c-2.42,3.11-7.15,6.29-11.25,7.01  c-33.2,5.82-66.23,7.89-99.27,10.99c0.69-6.63,4.22-12.74,10.5-16.19c3.13-1.72,6.52-4.77,10.21-5.16l34.11-3.61l33.78-4.55  c5.72-0.77,11.66-1.06,16.1-3.87c-0.71-0.95-0.05-1.29,2-1C455.94,221.42,457.08,221.93,457.94,221.65z" />
<path class="st7" d="M271.88,1294.88c24.35,10.86,50.15,19.03,76.6,23.34c0.38-0.75,0.7-0.73,0.96,0.07c2.96,0,5.59,0.48,7.9,1.44  c0.66-2.53,6.11-2.23,6.38,0.28c7.09,0.59,14.2,0.6,21.33,0.04l1.78-1.31c15.73-1.33,30.93-4.57,45.62-9.73l2.48,0.48  c5.65,2.88,12.54,1.4,18.41,3.7l6.81,9.6l-1.26,1.8c12.52,17.78,25.49,32.19,44.44,43.59c25.61,15.42,72.86,32.25,103.05,28.22  c7.32-0.97,14.82-3.47,19.08-9.78l2.46-0.38c0.63-3.15,3.24-7,6.51-7.78l-0.94-2.15c4.84-10-3.22-20.91-10.29-27.67  c-8.75-8.4-13.68-8.83-21.28-15.62l3.28-1.54c14.44,2.43,28.94,4.32,43.51,5.66l3.07,2.08l1.12,0.05c0.67-0.46,1.35-0.88,2.09-1.19  c2.43-1.02,20.04-0.72,24.31-0.44c1.52,0.1,2.89,0.85,4.17,1.63l1.12-0.04l4.87-2.13c16.41-1.61,32.72-3.78,48.92-6.49l2.68,0.79  c-0.18,1.61-0.54,4.14,0.54,5.62c1.54,2.1,56.64,28.92,75.38,46.29c13.87,12.85-68.63,14.66-72.61,14.8  c-28.16,1.01-55.61,0.16-83.83-1.1c-9.63-0.43-18.91-2.15-28.25-0.39c-4.94,0.93-8.32,6.06-12.98,7.62  c-3.24,1.09-4.67,3.37-3.84,6.73l8.81,35.49c3.45,13.89,4.34,51.14-3.19,56.27c-1.38,0.94-3.15,0.3-4.7-0.34l-34.8-14.31  c-29.56-12.15-57.27-25.99-84.75-44.84c-0.76,11.1-0.84,21.25-4.11,31.41c-5.84,18.1-16,32.61-27.72,47.31  c-14.33,17.99-29.73,34.5-49.92,45.92c-2.32,1.31-5.72,2.46-7.77,0.45c-6.24-6.14-9.62-14.05-12.06-22.31  c-5.54-0.37-11.27,8.93-18.66,9.33c-5.48-2.83-6.74-8.28-9.4-13.1c-5.42-9.83-10.65-19.25-17.92-29.1  c-7.54,15.49-12.27,30.37-18.51,45.23c-3.04,7.24-9.84,9.7-18.37,6.99c-1.15,36.06-22.46,62.03-48.11,84.22  c-9.23,7.98-19.89,13.62-28.28,21.8l-47.87,0.15c-0.53-1.57-0.36-2.79,1.05-3.47c48.87-22.78,115.86-62.85,120.65-122.38  c2.64-32.88-17.06-61.28-43.76-79.02l-2.04-3.59c-10.8-6.71-20.56-15.62-33.8-20.78c9.58-18.78,19.56-35.59,31.34-52.84  c1.27-1.86,2.03-4.57,0.75-6.42c-32.8-2.47-64.82-6.2-96.98-12.25c-7.01-1.32-51.81-10.36-51.52-15.91c0.04-0.8,0.53-2.3,1.63-3  c9.8-6.2,19-12.31,29.43-17.67c25.67-13.19,51.89-23.73,79.64-31.62c2.22-0.63,3.61-2.05,5.14-3.03l33.42,8.88  c-0.6-5.09-0.04-14.62,4.37-15.38C268.68,1292.88,270.85,1293.89,271.88,1294.88z" />
<path class="st7" d="M907.68,1487.83c-2.77,11.7-1.14,23.85,2.33,35.71c16.04,54.83,89.31,92.68,138.41,114.4l33.5-4.98  c36.54,17.3,74.71,28.29,113.27,38.53l-140.3-0.02c-0.53-0.73-1.27-1.61-2.47-2.12c-15.98-6.85-31.3-13.39-46.8-21.49  c-26.73-13.97-51.72-30.35-73.1-51.59C903.55,1567.46,886.84,1525.06,907.68,1487.83z" />
<path class="st6" d="M805.6,1306.66c-1.01-1.79-1.97-3.65-2.12-5.73l13.18-6.03c1.99-0.91,3.8-2.11,5.1-3.33  c1.1,0.33,1.79,1.04,1.35,1.85c-0.51,0.92-0.49,2.03-1.26,2.92C817.72,1301.17,811.62,1305.66,805.6,1306.66z" />
<path class="st5" d="M65.18,129.19c0.18,0.89,1.13,1.49,2.3,1.77l43.92,10.45l109.77,26.27l196.62,45c13.1,3,25.25,5.12,37.33,9.11  c-0.61,0.27-1.44,0.65-2,1l-54.66,7.47l-32.94,3.22c-83.59,8.17-167.16,10.44-251.16,5.55L2.07,232.49l0.04-103.63L65.18,129.19z" />
<path class="st5" d="M264.03,1463.13c14.59,9.07,27.27,20.98,36.51,36.38c21.64,36.04,10.43,74.45-15.34,104.69  c-24.72,29-59.56,48.59-93.58,64.76c-1.56,0.74-2.67,1.58-3.5,2.63l-186.16-0.1l-0.05-281.17c0-6.63,0.14-11.91,0.98-17.6  l38.81,4.42c0.56,3.54-1.46,6.42-3.54,9.02l-21.64,27.03c-1.94,2.42-2.83,6.64-1.62,9.23c0.88,1.86,3.25,4.52,6.36,5.19  c20.06,4.31,40.39,8.34,61.15,9.08c13.64,0.49,25.02,2.9,37.44,8.33c45.95,20.08,88.33,23.81,138.19,20  C260.45,1464.83,262.52,1464.18,264.03,1463.13z" />
<path class="st4" d="M1046.49,1071.23l-15.36,1.16c-4.93-2.66-10.29-6.17-10.89-12.61  C1019.44,1051.18,1048.48,1065.17,1046.49,1071.23z" />
<path class="st3" d="M572.71,1207.07c6.8-31.28-0.91-57.91-12.29-87.22c-1.87-4.82-4.76-7.79-7.89-11.58  c-1.36-1.64,3.1-4.39,5.1-3.54c13.01,5.52,1.82,9,14.26,23.6c-1.34-7.09-2.36-13.55-4.42-19.79c-0.38-1.15-2.33-4.83-0.53-4.56  c9.29,3.85,12.81,30.06,11.65,39.31c-0.65,5.19,1.29,8.97,2.03,13.76c3.44,22.28,0.2,45.66-10.36,66.74  C568.65,1218.09,571.53,1212.51,572.71,1207.07z" />
<path class="st3" d="M507.71,1116.42c1.57,0.66,2.48,2.24,2.73,4.75c2.77,4.06,3.53,7.56,2.27,10.53  c0.89,4.73-1.17,10.96-1.73,15.69c-0.2,1.26-4.79,1.49-5.44,0.32c-2.74-17.75-8.68-44.15-20.9-57.8  C492.37,1081.71,505.93,1112.85,507.71,1116.42z" />
<path class="st9" d="M472.22,1237.61c-1.9,2.24-10.95-0.87-9.48-4.2c1.84-12.7,3.45-25.39,6.8-38.27c0.56-2.15-1.74-4.35-1-6.29  c2.34-0.59,3.72-2.68,6.42-1.73C468.67,1201.89,469.81,1223.51,472.22,1237.61z" />
<path class="st3" d="M462.74,1233.4c2.94,2.4,6.45,2.48,9.48,4.2c9.41,5.37,25.28,13.17,31.75,21.8  c-15.73-6.8-23.37-13.67-40.18-19.17c-4.8-1.57-8.86-5.82-12.41-9.11C454.36,1231.73,459.92,1231.1,462.74,1233.4z" />
<path class="st8" d="M612.41,1368.02c-0.65,0.52-1.31,0.95-2,1.03c-12.12,1.37-31.72,0.91-43.6-1.58c-2.47-2.61-5.5-4.53-9.08-5.76  l-0.02-2.47l-2.92-0.19l-16.11-12.53c-3.26-1.92-4.72-4.22-4.38-6.9c-0.46-0.67-0.92-0.81-1.4-0.27  c-2.71,4.95-4.72,10.27-6.05,15.95l-1.86,1.1c-0.21,0.45-0.44,0.86-0.79,1.13c-1.27,0.98-24.31-8.38-27.35-10.42  c-0.35-0.23,0.45-1.5,1.18-2.02c6.35-5.98,13.78-11.07,22.33-14.47c2.17-0.86,5.06,0.54,5.78-2.47c1.62-6.76-3.46-8.51,0.52-11.24  c18.16,10.03,31.18,21.21,49.72,30.39l32.82,16.24C611.13,1364.48,612.07,1366.35,612.41,1368.02z" />
<path class="st6" d="M498.04,1345.09c0.58,4.7,22.82,10.31,26.96,11.31l1.82-1.51c6.52,1.98,13.14,3.55,19.85,4.71  c3.73,0.42,7.41,0.31,11.05-0.35c2.51,2.64,8.09,2.28,9.71,7.08c15.57,0.38,30.08,2.49,44.99,1.7c1.6-0.09,2.65,1.15,3.91,1.79  l7.82,5.78l3.74,1.06c1.9-1.07,5.53-0.17,6.53,1.84c-1.83,2.72-3.14,6.64-6.51,7.78l-2.26,0.65c-4.41-5.81-9.28-10.74-14.6-14.79  l-0.48-2.12l-3.84,0.65c-0.02,0.75-0.11,1.86-0.64,2c-2.92,0.78-11.39,2.06-12.8-0.58c-7.39,1.27-23.2,0.31-30.5-1.95l-1.15-2.08  c-1.11,2.34-1.8,2.33-2.91,0l-4.9-1.02c-1.22,2.61-3.73,2.08-3.69-0.92l-2.06-0.94c-0.05,1.43-0.73,2.25-2.1,1.91  c-30.3-7.85-65.96-17.82-87.11-42.46c-1.69-3.81-5.32-6.82-5.55-11.4c2.68,1.05,2.7,1.36,4.7,4.01  C467.83,1330.2,482.47,1341.52,498.04,1345.09z" />
<path class="st8" d="M294.69,1124.91c2.61-5.99-0.34-13.58,3.01-23.64c2.56,2.74,2.31,6.41,3.12,10.21  c4.02,18.85,9.42,36.9,15.56,55.07c3.08,9.12,9.14,16.28,10.29,26.41C314.08,1170.77,302.94,1148.26,294.69,1124.91z" />
<path class="st8" d="M434.91,1309.51c-3.01-0.63-5.65,0.71-8.68,1.91c-13.36,5.29-27.19,8.52-41.19,8.65  c-7.22,0.41-14.32,0.4-21.33-0.04c-2.06-0.38-4.29-0.08-6.38-0.28c-2.28-0.96-4.91-1.44-7.9-1.44c-0.28,0.02-0.69,0.02-0.96-0.07  c-17.89-3.22-34.65-7.34-51.88-13.3c-1.13-0.39-1.85-0.87-1.92-2.27c40.36,11.88,86.47,21.78,128.21,8.32  C427.77,1309.4,430.58,1307.3,434.91,1309.51z" />
<path class="st6" d="M294.68,1302.65c25.01,10.98,31.71,8.02,53.8,15.58c-14.91-0.04-67.39-14.39-76.6-23.34  c2.48-1.17,5.5,0.17,8.24,1.37L294.68,1302.65z" />
<path class="st8" d="M634.41,1378.49c-2.37,0.29-5.01,0.2-6.53-1.84c2.26-15.13,5.14-16.62-4.7-27.98c3.29,3.16,7.46,5.64,10.1,9.87  C637.34,1365.04,638.49,1372.42,634.41,1378.49z" />
<path class="st8" d="M486.72,1058.48c-7.4,8.33-13.55,16.9-19.86,25.3c-1.9-12.13-8.04-10.55-7.53-21.16l3.76-78.31  c0.11-2.38,5.05-1.26,6.33,0c13.14,13.11,26.98,39.93,32.9,58.17C497.66,1048.47,491.91,1052.64,486.72,1058.48z" />
<path class="st6" d="M441.78,1104.19c0.82-0.07,1.38,0.27,1.93,0.82c0.63,0.63,0.43,16.21-1.81,17.28c-1.04,0.95-1,3.27-2.9,3.47  c-1.66,0.18-1.83-1.46-2.75-2.86c-4.94-7.53-11.6-13.43-15.94-20.99c-1.8-1.67-2.77-5.6-1.09-7.32c4.24-2.51,10.58,0.7,12.99,5.2  C434.4,1103.88,437.62,1104.71,441.78,1104.19z" />
<path class="st6" d="M457.95,1106.82c-1.07,1.09-10.11,11.97-12.42,11.57l-1.79-1.18c0.71-4.67,0.74-9.24,0.06-13.72l1.64-3.42  c1.19-2.88,3.18-5.38,6.42-5.26c3.26,0.12,6.09,2.76,6.09,6.34L457.95,1106.82z" />
<path class="st5" d="M548.08,1365.16l2.06,0.94c0.98,0.92,2.67,0.33,3.69,0.92l4.9,1.02c0.85-0.11,2.06-0.11,2.91,0  c1.97,0.52,2.1,1.74,1.23,3.45c-5.98,6.4-6.57,8.8-1.74,7.2c10.81-1.97,21.54-4.18,32.17-6.62l13.43-1.41l3.84-0.65  c7.14,1.48,10.81,11.4,17.34,16.26c-12.75,23.75-68.95,8.21-89.66,0.35c-16.59-6.3-32.19-13.23-46.37-23.79  c-13.91-10.36-26.2-22.85-33-38.22c2.75,0.17,4.03,2.76,6.14,4.66c8.1,7.28,17.17,13.24,27.21,17.67  C502.13,1351.32,540.34,1366.18,548.08,1365.16z" />
<path class="st3" d="M532.91,1339.35c0.55-1.76,1.28-1.58,1.4,0.27c6.43,7.61,16.43,12.29,23.41,19.62  c-2.13,6.75-26.63-1.38-32.72-2.84c-1.04-1.64,5.93-18.32,5.6-18.04C531.21,1337.83,532.19,1338.89,532.91,1339.35z" />
<path class="st4" d="M593.29,1372.06c0.09,0.62-0.67,1.55-1.7,1.81c-5.45,1.41-33.57,9.25-35.47,6.11  c-2.46-4.08,5.57-5.7,5.51-11.95L593.29,1372.06z" />
<g>
</g>
<g>
</g>
<g>
</g>
<g>
</g>
<g>
</g>
<g>
</g>
<g>
</g>
<g>
</g>
<g>
</g>
<g>
</g>
<g>
</g>
<g>
</g>
<g>
</g>
<g>
</g>
<g>
</g>
</svg>