<?xml version="1.0" encoding="iso-8859-1"?>
<!-- Generator: Adobe Illustrator 30.2.1, SVG Export Plug-In . SVG Version: 9.03 Build 0)  -->
<svg version="1.1" id="Layer_1" xmlns="http://www.w3.org/2000/svg" xmlns:xlink="http://www.w3.org/1999/xlink" x="0px" y="0px"
	 viewBox="0 0 1200 1543" style="enable-background:new 0 0 1200 1543;" xml:space="preserve">
<style type="text/css">
	.st0{fill:#323A42;}
	.st1{fill:#59758E;}
	.st2{fill:#D3D9DD;}
	.st3{fill:#7893A6;}
	.st4{fill:#234E4F;}
	.st5{fill:#808E99;}
	.st6{fill:#D9E9F1;}
	.st7{fill:#849DAE;}
	.st8{fill:#4D5761;}
	.st9{fill:#C4CED4;}
	.st10{fill:#B7997E;}
	.st11{fill:#B7C3CC;}
	.st12{fill:#667C8D;}
	.st13{fill:#EDE7E0;}
	.st14{fill:#A5B5C0;}
	.st15{fill:#98A6B0;}
</style>
<path class="st0" d="M1154.46,0l2.7,0.86c0.99,40.84,1.98,81.75,2.97,122.72l-2.47,8.69c4.05,2.74,4.05,9.68,0.03,12.45
	c4.36,12.25,3.45,27.4,0.72,40.21l1.81,0.59c0,0,0.12,6.39,0.37,19.18c1.97,2.27,4.58,3.02,7.81,2.24c1.64,2.86,2.46,4.3,2.46,4.3
	l24.81,15.29c0,0,1.44,1.84,4.32,5.52v25.29l-2.26,1.87c-12.01-6.4-24-11.99-35.98-16.77c1.09,30.2,1.69,60.57,1.38,91.09
	l32.88,20.17l3.99,5.2v25.84l-1.99,2.01l-33.28-16.16l0.13,72.44l-2.67,1.62l-3.42,0.03c-5.56-4.96-11.01-9.99-16.37-15.08
	c-4.86-0.84-18.48,0.46-23.89,1.39c-1.04,0.18-13.43,14.98-13.77,15.98c-0.37,1.09,0.12,21.99,0.61,23.04
	c0.49,1.06,16.33,15.12,17.44,15.48c1.12,0.37,22.38-1.49,23.44-2.02l13.16-16.05l3.26,0.3l2.7,0.86l5.81,253.36
	c0,0,0.85,1.7,2.55,5.11l24.35,16.52l1.95,4.17v22.24l-2.44,1.9l-25.35-9.93c5.5,230.7,10.06,460.11,13.7,688.24
	c6.55,29.28,11.24,58.83,14.09,88.65v4.02H985.42c-0.99-0.35-2.41-1.17-2.2-1.79c15.13-44.17,31.83-89.47,48.38-133.08l2.68-1.48
	l1.4-2.47l136.17,24.91c3.44,0.13-37.87-50.26-41.94-54.41c-19.8-20.21-44.55-27.7-70.97-33.75l-1.11-3.06l-2.69-1.55l-0.46-48.79
	c-0.33-2.39,0.1-3.88,2.64-4.59c-0.83-0.49-1.48-1-1.53-1.55c-0.4-4.92-0.46-13.29-0.09-18.21c0.04-0.52,0.72-1,1.58-1.45
	c-2.18,0.17-2.49-1.78-2.7-3.63c-0.68-103.56-1.35-206.55-1.99-308.98l2.67-1.98l1.27-2.82l28.09-2.88
	c1.73-1.12,25.31-30.18,25.91-32.15c0.62-2.01-2.15-40.05-3.09-41.93l-31.2-26.27c-6.38,0.83-12.81,1.23-19.28,1.2l-3.11-2.43
	l-2.69-1.2l-0.82-82.05l-37.16,1.59c0,0-1.5-0.94-4.5-2.82c-5.78,3.95-19.2,3.84-24.24-1.16l-5.96,1.97
	c-7.84-0.26-38.05-3-42.49-6.2c-0.91-0.65-1.71-1.46-2.48-2.31c-1.28,0.43-2.57,0.81-3.88,1c-1.27,0.18-2.51,0.29-3.7,0.08
	c-11.24-2.01-25.21-5.31-33.95-12.14c-0.57,0.5-1.16,0.96-1.81,1.3c-1.16,0.59-21.87-7.11-24.26-8.57l-1.93-3.14l-2.2,2.22
	c-5.19-2.64-10.38-5.2-15.6-7.68l-0.93-2.86c-4.63-0.24-2.71-3.79-0.79-6.87c2.24-3.58,13.77-15.44,15.46-6.71
	c0.51-0.96,1.29-2.38,2.09-2.27c7.14,0.96,20.63,4.05,27.48,6.26l1.28,3.04c1.87-3.47,4.94-2.72,5.09,1.22
	c0.63-1.1,1.71-1.93,3-1.93c24.19,7.47,49.07,13.9,74.63,19.3l20.4,1.96c36.84-0.51,73.6-2.92,110.26-7.24
	c-11.91-12.73-32.58-14.84-49.14-16.09l-2.42-2.64l-2.69-1.22l-0.98-94.73l-33.12,11.06l-6.26-0.55l-1.55,3.37l-19.03,5.92
	l-3.41-1.29c0.08,4.43-10.9,6.68-14.74,6.9l-2.45-1.94c-2.16,0.51-3.35-0.35-2.64-2.41l6.23-14.95c0.37-3.66,1.41-6.65,3.1-8.96
	c3.9-2.91,7.91-5.78,12.4-7.72c29.41-12.69,58.75-25.39,87.95-38.38c6.69-2.98,16.36-8.14,21.64-13.07
	c20.64-19.26-36.7-8.17-43.5-5.46l-2.31-2.23c-1.05,0.02-2.67-0.24-2.69-0.88c-1.31-36.12-1.97-75.15-1.4-111.43
	c-0.86-5.93-0.03-11.4,2.47-16.4c-2.28-4.76,3.41-14.07,8.26-16.46c22.72,11.72,34.26-29.15,26.91-44.93l1.45-2.89l0.09-3.55
	c20.58-23.2-19.73-32.04-36.45-34.22l-1.42-2.79l-2.69-0.9l-1.21-125.08c-10.11,1.01-20.19,2.98-30.23,5.92l-4.65-1.71l-0.93,2.93
	c-2.26,0.77-22.28,5.32-23.42,4.97c-1.11-0.34-1.85-1.25-2.41-2.23l-0.49,2.79c-15.64,2.43-31.27,4.86-46.91,7.29l-1.98-2.4
	c-0.71,4.33-8.27,3.53-10.76,0.47c-3.88,0.7-3.54-1.02-1.22-3.8c0,0,9.39-6.3,28.17-18.91c5.21-3.42,7.84-7.57,7.88-12.45
	c4.47-2.35,6.71-3.52,6.71-3.52c46.4-4.99,92.44-8.16,138.13-9.54c3.4-2.95-8.34-9.11-11.26-10.1c-12.56-4.24-25.5-7.64-38.67-9.63
	l-5.44-3.42l-2.69-0.9c-0.35-41.56-0.7-83.13-1.04-124.7l2.66-1.64H1154.46z"/>
<path class="st1" d="M515.49,1408.24l2.79,1.32c3.15,41.68,7.75,84.21,13.79,127.6l-0.98,5.7H0v-50.89
	c2.31-24.84,5.22-50.83,14.3-74.24l3.21-0.82l3.36-3.59l190.87-46.87c0,0,5.26-0.79,15.78-2.36c95.5,13.3,191.07,27.05,286.71,41.27
	L515.49,1408.24z"/>
<path class="st0" d="M1004.7,1249.67c3.62,0.64,4.08,11.73,1.09,13.6l2.55,2.05l-1.56,14l-2.45,2c0.53,2.36,0,4.87-1.58,7.54
	l-10.67,42.55l-3.3,2.13l-5.38,3.79c-19.39,3.18-36.74,9.88-52.04,20.1c-3.31,4.51-7.06,7.73-11.25,9.67l0.19,4.97
	c-5.93,10.37-10.9,21.31-14.07,32.85l-3.62,3.45l-3.76,2.77c-22.84,0.45-42.03,12.46-59.65,25.92
	c-28.52,20.54-56.53,41.91-84.02,64.1c-3.71,5.04-7.99,9.09-12.81,12.13c0.44,1.84,0.56,3.72,0.04,5.56
	c-1.22,4.33-6.01,15.98-8.15,20.08c-0.89,1.69-2.33,2.93-3.91,3.95H531.1c-4.98-34.45-10.51-68.75-13.25-104.09l-2.36-30.53
	l0.44-2.91c35.2-9.87,70.64-20.37,106.32-31.49c4.69-1.68,9.29-2.88,14.1-1.08c4.63-1.17,4.95,3.04,5.17,7l-0.01,77.06l-2.68,6.01
	l2.66,2.86c0,0,0.24,6.57,0.73,19.71c4.37,1.93,5.48,4.07,3.32,6.44l3.95,3.02c3.53-2.43,9.08,4.33,10.39,7.84
	c2.24,0.27,4.24-0.1,6.01-1.1c0.16-1.2,0.58-1.18,1.24-0.06c1.78-2,2.88-1.48,2.58,1.15c2.68,3.11,4.04,3.54,4.07,1.3l3.95-2.53
	l16.06-17.44c-0.6-3.86,0.23-6.04,2.5-6.54c0.73-4.98,0.38-9.6-1.05-13.86c-2.69,0.8-3.14-0.38-2.73-2.7
	c-3.67-0.15-3.53-1.91-0.2-3.46c-1.92-1.88-1.38-3.06,1.3-2.86l-2.17-1.83l59.63-155.8l32.26-52.34l4.08-1.51
	c0.01-1.05,0.35-2.66,1-2.65c70.82,0.92,143.72,3.42,214.12,6.82L1004.7,1249.67z"/>
<path class="st2" d="M620.09,0l1.34,0.24l-0.34,45.53c0,0,0.18,1.03,0.53,3.08c-20.17,8.13-38.89,18.66-56.17,31.59
	c-6.53,6.22-13.36,12.05-20.49,17.5l-0.71,3.32c-2.09,1.05-11.01,7.24-10.17,8.53c3.08,4.74,48.79-4.52,55.94-7.84
	c3.52,2.3,3.08,6.74-1.33,13.32c-0.18,0.38-0.3,0.72-0.18,0.88c1.99,2.67,25.27-4.24,29.79-5.97l4.4,1.26l2.68,1.23
	c-0.05,25.99-0.11,51.98-0.16,77.99l-2.68,1.58l-0.85,2.98c-15.22,3.9-30.44,7.81-45.67,11.71l-2.57-2.11l-3.41-2.96
	c-6.33-18.9-11.29-37.99-15.54-57.08l-13.4,58.99l-2.97,0.98c-1.57,2.99-3.55,2.64-6.26,1.16l-63.94-29.76
	c-8.02-3.14-14.13-7.64-18.34-13.51l-0.69-107.09c1.89-4.16,3.32-4.57,7.79-2.52c21.19,10.55,43.02,18.62,65.49,24.21
	C498,64.24,473.84,51.18,449.72,38.06c-0.87-11.99-1.22-24.03-1.04-36.12L451.34,0H620.09z"/>
<polygon class="st3" points="1200,769.97 1200,1538.84 1183.25,1450.43 1180.81,1288.21 1169.44,757.64 "/>
<path class="st4" d="M904.02,0c6.59,2.03-7.08,14.78-10.26,17.11l-3.21-0.56l-2.04,4.68C874.17,31.18,867,36.15,867,36.15l-3.1-1.11
	l-1.36,4.01c-2.03,2.74-29.91,14.21-32.84,13.35c-2.85-0.84-2.03-6.14-1.6-8.55c0,0-1.43,0.18-4.29,0.55
	c-0.29,1.17-0.62,2.32-1.12,3.39c-2.77,5.99-33.18,27.59-39.75,28.32c-1.17,0.13-2.36,0.07-3.56-0.03
	c0.06,3.47-12.69,5.9-14.54,5.04c-7.06-3.28-1.89-22.63,0.6-28.27c-5.83,3.37-12.25,6.98-18.97,8.03
	c-3.94,0.62-11.47,1.45-12.87-2.77l-1.21,3.22l-26.11,21.12l-3.17-0.86c0.25,1.27-0.04,2.42-0.43,3.61
	c-0.37,1.13-17.48,11.67-19.98,12.99l-3.57-0.33l-0.79,2.95c-4.87,2.92-20.91,10.38-25.95,11.08c-9.34,1.3-8.47-2.58-6.26-9.87
	l-19.71,10.84l-3.7-1.39c-11.65,4.3-24.15,7.91-36.7,8.23c-1.28-6.45,2.85-9.69,5.11-15.54c-16.29,5.59-49.45,13.7-62.78,6.37
	c5.85-5.38,10.97-10.09,16.63-12.56l10.01-7.2l37.53-14.26c24.03-6.93,48.01-13.24,71.94-18.92L789.9,2.49L802.23,0H904.02z"/>
<path class="st3" d="M1200,384.73v363c-8.93-4.75-16.99-11.47-25.93-17.09c-4.57-2.87-5.74-6.45-5.83-11.79l-1.71-98.84
	l-3.89-152.31l-2.72-1.45c-0.18-6.74-0.32-13.47-0.41-20.2l2.67-1.41l-0.36-78.45L1200,384.73z"/>
<path class="st1" d="M1034.29,1406.51c0.12,1.01,0.06,1.94-0.53,3.54l-48.34,132.8h-18.81c-1.06-0.04-2.68-0.3-2.76-1.04
	c-2.59-24.44-5.26-53.82-5.63-78.23c-0.89-2.18-0.57-3.94,0.98-5.29l-2.37-1.43c-9.38-19.09-30.69-41.41-52.23-45.77l-1.99-2.75
	c3.33-14.58,9.94-28.67,17.5-41.26c2.86-2.9,6.67-3.19,11.44-0.85l102.14,37.2L1034.29,1406.51z"/>
<path class="st5" d="M981.7,0l2.71,1.12l1.21,43.97c3.13,0.58,4.42,2.07,3.86,4.47c1.24,2.82,0.6,4.11-2.39,4.82
	c-0.27,2.39-1.41,2.41-2.35,0.16c-0.66-0.48-1.21-0.28-1.69,0.46c1.89,5.26,2.29,11.25,1.22,17.97c1.27,6.86,0.86,12.88-1.24,18.09
	c0.7,0.08,1.35,0.23,1.79,0.62c1.29,1.12,1.22,29.16,0.9,33.14l-2.68,1.92c0.11,1.03,0.03,2.65-0.62,2.76
	c-11.79,2.04-27.97,3.66-39.94,4.27c-4.62,1.39-7.61,0.81-8.97-1.73l-2.68-0.93c-0.01-43.15-0.02-86.31-0.02-129.48L933.48,0H981.7z
	"/>
<path class="st2" d="M375,0l2.68,0.91c0,0,0.14,39.06,0.42,117.19l-2.67,2.5c3.26-0.17,3.14,6.05,2.28,8.39
	c-1.8,4.86-9.51,13.61-14.49,10.28c0.21,1.06,0.49,2.67-0.21,3.09c-6.62,4-19.29,10.24-26.49,13.06l-2.93-1.54l-2.68-0.92
	c-0.04-50.43-0.07-100.88-0.11-151.33L333.48,0H375z"/>
<path class="st6" d="M622.77,0l2.67,0.93c-0.44,13.98-0.35,27.65,0.24,41.03l50.15-19.88l3.2,0.58l1.86-3.18
	c6.98-2.45,13.76-5.4,20.36-8.83l3.46,1.46l1.27-3.16c8.58-2.72,17.01-5.7,25.28-8.95h70.98L668.28,58.87
	c-8.2,3.6-15.71,5.05-24.29,6.69c-34.81,6.64-67.21,18.47-99.02,32.38c15.82-22.61,47.71-40.21,74.85-50.6L620.09,0H622.77z"/>
<path class="st0" d="M959.2,1458.3c0.69,1.21,1.52,2.85,1.67,4.95l5.73,79.61h-93.16c-1.02-0.17-2.54-0.65-2.5-1.32
	c0.61-10.02,4.33-34.91,7.13-44.25l2.9-1.13l-0.05-2.95c25.21-12.2,50.43-24.41,75.66-36.62L959.2,1458.3z"/>
<path class="st3" d="M1200,53.57v178.47c-10.37-5.78-20.71-11.93-30.99-19c-0.92-0.63-0.47-3.92-1.88-4.07
	c-0.88-0.09-1.61,1.19-2.73,2.15l-5.19-4.09c-4.72-3.72-0.31-14.97-0.8-22.11c2.63-10.52,5.98-20.89,10.07-31.12l3.32-15.98
	l-5.87,5.55c-3.81,3.85-6.55,4.3-8.24,1.35c0.07-4.01,0.06-8.47-0.03-12.45c4.24-12.51,9.09-24.87,14.54-37.07
	c-1.66,0.67-3.4,0.04-5.22-1.88c0,0,6.89-24.22,20.67-72.65c1.18-4.82,2.83-4.87,6.45-3.07C1195.79,18.45,1199.74,49.16,1200,53.57z
	"/>
<path class="st2" d="M933.48,0l0.02,132.03c-0.01,1.05-0.15,2.63-0.9,2.79c-7.91,1.78-31.66,4.64-39.49,4.39l-2.23-2.45l-2.68-1.23
	c-0.17-38.46-0.24-76.94-0.21-115.45l2.55-3.54l11.49-11.66c1.44-1.46,1.84-3.66,1.98-4.89H933.48z"/>
<path class="st5" d="M53.57,0c1.06,0.11,2.65,0.49,2.68,1.23c0.83,21.78,0.91,47.08,0,68.88c0.73,4.9-0.16,9.13-2.68,12.7
	c1.28,0.67,1.25,2.14-0.11,4.39c1.05,0.28,2.64,0.77,2.67,1.57c0.84,18.96,0,39.63-1.19,58.41l-1.11,5.19
	c-4.56,6-25.75,30.19-30.88,31.07c-0.96,0.16-1.94,0.15-2.94,0.09l-2.68-1.23C16.5,61.86,16.09,1.64,16.09,1.64L18.75,0H53.57z"/>
<path class="st1" d="M880.97,1496.16l-7.52,46.7h-143.1c2.73-10.32,6.77-20.3,12.03-29.58l4.88-3.6
	c44.03-5.82,87.96-11.15,131.8-15.99L880.97,1496.16z"/>
<path class="st7" d="M333.48,0l0.11,153.88c4.07,1.23,2.25,10.06,0.99,13.62c2.99,2.33,1.72,8.15-2.26,8.97l-4.76-0.66
	c-5.35-3.89-18.82-16.04-21.95-21.21c-0.86-1.42-0.68-3.25-0.5-4.88c-2.72-5.76-3.75-12.07-3.08-18.94l-1.06-0.46
	c-4.97,4.13-8.74,4.59-11.29,1.37c-3.48,2.32-6.9-1.77-3.36-4.55l0.19-3.5c10.85-5.06,16.28-7.6,16.28-7.6
	c0.23-8.61-0.08-17.23-0.95-25.87l1.98-2.95c-1.25-0.39-1.22-0.88,0-1.47l-2.58-5.36c0.47-26.29,0.93-52.58,1.4-78.87L305.36,0
	H333.48z"/>
<path class="st3" d="M1200,257.33V358.9c-13.35-6.95-25.7-15.42-39.02-24.16c-0.06-15.99-1.39-30.99-0.63-46.69
	c0.66-13.71-2.25-37-1-50.74L1200,257.33z"/>
<path class="st2" d="M18.75,0L20,99.09l0.01,84.45c-0.26,5.23-8.2,11.8-12.69,15.19c-2.26,2.18-4.19,3.84-7.31,2.16V0H18.75z"/>
<path class="st5" d="M1045.98,0l1.07,127.25c-1.82,1.05-3.79,2.03-5.93,2.11c-5.56,0.19-25.16-0.29-28.65-1.96
	c-1-0.48-1.93-1.13-2.84-1.81l-2.69-1.51c-0.08-7.2-0.15-14.4-0.23-21.61l2.66-1.95c-2.58-0.33-2.36-1.34,0.34-1.53
	c1.28-1.99,3.63-2.86,7.06-2.6c6.03-4.1,11.44-9.14,16.23-15.1c-2.37-6.12-2.23-13.72-1.14-20.13c-4.72-3.06-9.15-6.72-13.31-10.97
	c-4.22-0.83-7.12-2.39-8.69-4.68c-1.05-0.12-2.62-0.46-2.68-1.2c-0.46-6.18-1.18-38.28-0.03-42.32l2.68-1.96H1045.98z"/>
<path class="st2" d="M1154.46,0H1200v53.57l-8.79-36.52c-5.69,25.62-12.81,50.23-22.44,75.84c4.14,1,4.55-3.74,8.99-4.2
	c-6.1,15.3-11.52,30.51-20.09,43.58L1154.46,0z"/>
<path class="st2" d="M305.36,0l-1.52,85.77c-2.12-0.14-4.01-0.85-5.73-2.06c-16.68-11.77-52.22-58.78-61.24-78.1
	c-0.35-0.74-0.36-1.65-0.33-2.6C236.57,2,236.79,1,237.05,0H305.36z"/>
<path class="st3" d="M20.23,1131.99l3.01,3.44c-0.22,29.29-0.09,58.47,0.38,87.53c-0.22,5.5-0.5,10.81-0.84,15.91l0.64,3.87
	c-3.69,8.09-13.51,26.14-19.68,31.64c-1.06,0.94-2.36,1.06-3.74,0.62v-152.68l1.55-4.18c2.18-2.34,22.61-19.84,24.05-20.52
	c9.79-4.58,6.26,3.48,3.04,10.71c-3.43,7.71-8.26,14.79-13.21,21.6C17.79,1129.48,19.39,1130.17,20.23,1131.99z"/>
<path class="st2" d="M116.52,0l0.26,3.49c-13.81,29.23-35.75,56.44-58.58,79.09l-4.63,0.23l0-82.81H116.52z"/>
<path class="st3" d="M20.13,1331.56l2.75,1.38c0.78,11.01,1.23,22.01,1.35,33c3.29,2.48,1.56,8.85-2.56,9.81l2.01,2.39
	c-0.74,9.3-1.43,18.57-2.07,27.79c4.02,2.77-0.24,9.31-4.11,10.96c-1.73,4.63-4.33,9.12-5.48,14.87L0,1491.96v-174.11
	c4.29-5.53,15.37,5.99,12.83,10.71l2.82,1.34C18.12,1329.7,19.62,1330.25,20.13,1331.56z"/>
<path class="st7" d="M53.87,1296.73c-0.43-4.09,7.37-11.14,9.98-7.47c2.3,3.24-4.95,20.07-10.47,20.46c-1.93,4-4.25,1.68-5.96-1.73
	c-2.77,1.49-24.5,16.92-25.46,18.16c-0.51,0.65,15.24,0.05,15.79-3.13c4.04-8.59,8.05-11.16,12.01-7.7
	c5.45,2.57-0.95,12.33-5.73,11.83c-4.8,6.92-13.79,7.59-21.8,6.9l-2.09-2.47c-13.24,1.95-4.87-9.58-20.13-13.7v-32.14
	c4.78-13.99,27.13-16.92,37.89-9.39c5.33,3.73,15.37,12.99,13.85,19.82L53.87,1296.73z"/>
<path class="st8" d="M679.02,0l-0.07,1.34c3.71,6.08,3.86,15.26,0.07,21.31c-1.04,1.39-2.8,2.52-4.94,3.35l-51.73,20.13L622.77,0
	H679.02z"/>
<path class="st3" d="M20.06,360.17l1.79,0.1c0,0,0.75,23.29,2.26,69.87l-2.54,4.85c0.08,0.96,0.12,1.92-0.02,2.85
	C20.88,442.32,5.92,456.97,0,456.7V354.91c6.4-6.46,25.45-13.87,14.1,2.6C17.39,356.98,19.38,357.87,20.06,360.17z"/>
<path class="st3" d="M18.87,930.93c2.91-0.04,4.51,2.07,4.82,6.34c0.21,11.8,0.37,23.55,0.47,35.25c0.29,0.93,0.53,1.86,0.59,2.8
	c0.32,4.95-17.15,30.04-21.91,31.43c-0.91,0.26-1.86,0.36-2.83,0.4v-75l1.57-4.2c6.52-6.18,12.14-13.15,16.87-20.92
	c2.44-1.34,3.86,0.13,5.28,2.38C23.78,917.2,22.16,924.37,18.87,930.93z"/>
<path class="st3" d="M18.64,513.06l3.07,2.19c0.73,15.83,1.77,31.62,3.11,47.36l-1.77,4.13c0.45,4.93-1.81,9.62-6.79,14.07
	l-11.7,12.9L0,594.64v-75l0.94-2.8l15.13-5.66L18.64,513.06z"/>
<path class="st3" d="M20.1,258.48l2.68,1.19l0.18,35.62c1.3,3.35,1.22,6.1-0.24,8.25l-0.25,3.95c-5.77,6.47-11.91,12.57-18.4,18.3
	L0,325.45v-44.2c2.06-16.3,5.77-32.26,9.78-48.19c2.28-3.78,3.49-2.57,6.34,0.62L20.1,258.48z"/>
<path class="st2" d="M1009.82,0l0.03,45.48l-1.46,2.68c-5.79-0.6-11.21-0.17-16.24,1.29c0.2,3.81-1.53,3.81-2.67,0.12
	c-1.4-1.16-6.3-1.49-6.38-4.16L981.7,0H1009.82z"/>
<path class="st3" d="M18.66,661.56l3.23,1.94c0.56,13.29,1.46,26.48,2.71,39.57l-1.6,2.98c0.41,4.66-2.1,8.96-7.54,12.89
	l-11.28,9.72L0,728.57v-58.93c1.21-3.25,4.45-5.34,9.72-6.28C13.06,661.01,16.04,660.41,18.66,661.56z"/>
<path class="st9" d="M20.23,206.33l1.79,0.11c1.01,16.48,1.26,33.3,0.76,50.48l-2.68,1.57c-4.13-7.93-4.65-17.31-7.28-26.92
	C8.56,248.23,5.84,265.31,0,281.25v-73.66l1.15-3.07C1.92,203.87,19.66,202.98,20.23,206.33z"/>
<path class="st2" d="M704.46,0c4.3,1.72,4.58,10.37,0.23,12.11c-8.36,3.27-16.68,8.82-25.67,10.54c-0.23-7.1-0.43-14.22-0.07-21.31
	L680.36,0H704.46z"/>
<path class="st3" d="M0,811.61v-22.77c1.51-3.41,4.56-6.13,9.15-8.16l19.31-14.71c2.59-0.26,3.64,1.4,4.32,3.78L3.1,811.85L0,811.61
	z"/>
<path class="st8" d="M53.87,1296.73c-0.63,1.29-1.57,3.78-3.82,3.12c-1.4-2.62,1.2-8.24-1.56-10.51
	c-4.79-3.93-8.63-10.69-14.53-13.26c-5.87-2.56-16.57-1.92-22.58-0.05c-4.87,1.52-6.09,9.57-11.37,9.69v-6.7
	c5.05-10.84,19.81-12.24,30.7-10.74c6.23,0.86,20.43,12.34,24.36,17.55C56.78,1288.1,56.46,1294.86,53.87,1296.73z"/>
<path class="st7" d="M731.25,0c4.48,2.94-27.37,12.43-26.55,12.11c0.5-4.03-0.04-8.07-0.23-12.11H731.25z"/>
<path class="st10" d="M297.44,622.7c3.12-3.75,14.06-0.97,16.1,3.16l9.8,3.78l0.96-1.78c2.75-2.99,6.97-3.12,12.66-0.37
	c5.53,1.65,16.66,5.84,17.93,11.17c1.45-1.52,2.07-1.55,3.53-0.76c2.73,1.48,11.08,9.84,11.25,13.16l3.78,0.15
	c7.02,7.8,18.44,22.02,18.51,32.83c0.01,2.02-0.1,3.26-2.22,4.49c-2.12,3.47-4.16,1.58-5.84-1.5c-3.96-1.1-7.08-0.02-9.34,3.24
	l0.81,13.75c-3.6,9.29,2.17,6.73,6.25,1.17c1.34-4.38,4.26-12.93,7.83-6.41l3.1,0.69c1.14,8.08,0.8,16.32-1.02,24.7l1.4-0.92
	c17.38,7.8,33.39,18,48.05,30.6c5.06,2.46,10.45,4.13,16.15,4.99l0.84,3.06c1.8-3.17,9.17-2.77,9.26,1.34l4.8-1.99
	c44.67,2.67,94.47,12.26,138.07,24.71c1.82,0.52,3.53,1.47,5.26,2.45c1.74,0.98,3.38,2.14,4.99,3.35
	c5.87-1.26,12.03,0.18,18.49,4.31l42.08,20.82l3.29,4.2c0.54-0.93,1.44-1.33,2.55-1.02c1.4,0.39,22.79,14.13,24.64,15.59l0.79,2.98
	c7.66,4.07,19.16,10.89,21.67,17.32c0.81-0.68,2.15-1.59,2.7-1.13c10.21,8.57,25.85,22.87,34.56,32.4c3.87,3.05,5.9,6.4,6.75,11.27
	c1.23,0.47,2.43,0.99,3.53,1.67c1.09,0.67,2.14,1.31,2.81,2.21c14.5,19.44,28.91,39.07,39.71,60.87l2.33,10.55
	c1.18,0.91,2.32,1.86,3.31,2.93c0.96,1.05,1.86,2.12,2.45,3.33c14.36,29.54,24.26,67.84,23.92,100.61
	c-2.45,12.3-2.32,23.81,0.38,34.51c3.17,3.47,5.58,7.2,7.25,11.2l3.47-0.81c6.96,5.87,14.65,10.06,23.07,12.57l1.87,3.03
	c4.83-1.71,21.12,7.28,14.69,12.06l-1.05,1.48c-4.09,0.26-8.24,0.53-12.45,0.82c0.95,5.06-2.69,6.55-10.91,4.47
	c-0.18,3.78-1.22,6.79-5.44,7.05c1.28,3.51-0.15,6.68-4.19,6.38c2.24,3.98,1.45,6.06-2.58,8.39c1.57,3.17,2.34,5.88-0.71,8.33
	c1.98,3.29,1.92,5.77-0.19,7.42l-4.24,0.29c-12.21-7.82-23.58-16.6-34.1-26.33l-7.55-2.38c-3.93,0.72-6.95,0.31-9.05-1.24l1.17-3.67
	c18.7-9.89,23.98-25.76,26.72-46.21c10.74-80.23-30.56-162.63-87.7-217.28c-62.11-59.4-157.5-105.8-244.43-102.73
	c81.72,23.03,170.75,68.03,231.82,128.05c40.1,39.41,71.49,89.19,74.44,146.02c0.56,10.75-2.05,55.89-10.27,60.65
	c-7.43,4.3-53.4-8.59-63.74-12.64c-53.67-21.05-87.56-67.72-118.1-114.91c0.57,86.82,77.43,145.45,156.15,163.96
	c0,0,1.52,1.4,4.57,4.19l-2.98,2.5c-73.46,0.82-147,0.85-220.63,0.1l-1.62-2.68c-3.7-0.56-6.04-2.32-7.04-5.3
	c1.25,2.74,1.7,4.61-1.89,5.11c-0.08,1.03-0.25,2.52-1.02,2.73c-1.77,0.49-17.14,1.29-18.63,0.95l-1.99-2.58
	c-2.58-0.77-4.31-2.09-5.19-3.95l-1.4,3.04c-2.03,3.59-8.27,3.4-9.72-0.6c-9.69-2.76-9.78-13.89-7.36-22.35
	c5.01-17.52,23.57-32.66,42.31-28.18c1.52-3.9,7.39-2.97,9.37,0.18c7.25-0.2,14.6,0.45,22.03,1.97c27.55,7.29,55.57,13.63,84.06,19
	l-20.21-13.43l-0.15-3.31c-48.73-38.13-83.75-106.34-54.9-166.64c24.69-51.61,77.74-54.8,126.33-36.26
	c-73.29-48.07-154.92-3.88-159.1,83.63c-0.82,3.25-2.84,3.46-5.76,2.62l-8.74-12.76c-2.05,1.06-3.41,0.04-5.2-1.42
	c-7.42-6.06-15.93-23.29-18.34-32.74l-2.97-1.8c-0.36-5.37-1.2-10.67-2.5-15.89c-2.41-0.65-3.89-2.8-4.45-6.44
	c-23.73-27.74-48.15-55.26-73.24-82.54c17.89,40.22,46.18,71.67,75.74,101.92l0.72,4.69c0.44,7.67-1.56,15.34-6,23.01l-41.44,91.87
	c-0.39,2.9-1.65,4.88-3.79,5.93l-6.31,19.66l-3.1,0.29l-1.3,8.54c-9.93,20.6-18.76,41.39-26.47,62.36c0.46,3.05-0.11,5.25-1.7,6.58
	c-0.25,2.99-2.08,5.94-5.49,8.85c-7.43,17.1-12.67,21.02-30.72,25c-11.59,2.55-23.31,4.61-35.19,5.06l-3.36-2.6
	c-3.77-1.84-5.94-1.53-6.5,0.92l-2.13,3.22c-3.8,1.67-20.67,2.18-23.32-1.74c-2.75-1.32-4.28-1.11-6.91,0.22
	c-2.04,5.34-18.57,2.27-17.46-3.87c-6.35-2.68-4.72-15.91-3.34-22.1c1.44-6.45,4.36-12.65,8.68-17.68
	c3.96-4.61,13.28-13.04,18.81-8.94l2.13-3.05c6.26,0.11,12.31,0.5,18.16,1.18c2.05-2.32,3.96-6.22,5.38-9.86
	c2.56-6.52,4.7-13.19,6.7-19.93c8.25-27.81,15.78-57.17,19.77-85.59l2.85-1.55l-2.3-3.34l5.06-29.36c1.6-14.56,2.5-31.09-9.62-41.6
	c-16.78-12.68-32.62-26.41-47.51-41.2l-2.86,0.78c-7.08-7.64-14.09-15.49-21.01-23.53c-6.13-12.43-12.41-28.75-3.21-41.42
	c3.39-1.55,5.78-4.79,7.15-9.7c2.78-7.14,5.86-8.99,9.24-5.57c8.44-8.05,14.49-17.37,18.13-27.98l3.28-2.2
	c0.77-1.06,2.16-2.06,3.12-1.42c4.03,2.67,10.39,13.83,12.67,18.55l-0.08,3.12l2.25-0.61c3.01-6.93,6.78-13.49,11.32-19.69
	c3.69-1.1,6.03-4.08,7.02-8.94l3.39-1.77l3.15-1.79c4.15-9.57,6.21-19.26,6.2-29.09l2.29-2.7c-2.87-1-1.77-3.03,3.29-6.08
	l-0.57-2.88c1.36-0.16,1.43-1.51,0.21-4.06c1.52-2.99,2.47-6.11,2.85-9.37c-0.84-3.52-0.42-6.19,1.25-8.01
	c-2.75,0.12-3.12-1.02-2.92-3.32c-8.21-4.8-17.34-5.2-27.38-1.19c0,0-0.25,1.46-0.76,4.37c-0.52,3.8-3.86,5.18-10.02,4.16
	c-9.49-1.81-19.02-3.77-28.59-5.87l-1.44-2.58c-4.57-0.26-7.16,0.72-7.77,2.92c-4.59,3.33-10.44,4.64-17.56,3.93
	c-6.88,3.27-14.06,6.1-21.52,8.48c-12.66,6.03-24.33,13.51-35.03,22.44c-1.15-0.36-1.93-1.17-2.41-2.33
	c-2.53-0.28-3.54-2.27-3.04-5.98c-4.22-3-4.73-8.03-1.53-15.09c-2.86-3.72-1.1-5.53,1.91-8.54l-1.65-3.13
	c7.31-24.4,17.23-47.56,43.29-56.6c5.51-1.91,14.86-5.1,18.85-0.42l3.85,0.15c8.28,9.63,18.13,15.9,29.54,18.83
	c5.43,0.22,10.34,1.31,14.74,3.27c0.97-3.13,2.1-1.99,3.77,0.19c2.47-5.75,1.79-12-2.05-18.76c-4.99-8.18-8.09-17.34-9.31-27.46
	c-1.48-4.19-7.41-12.11-3.7-2.19c2.76,4.49,4.07,8.97,3.94,13.46c-5.69,0.81-11.55,1.16-17.6,1.06c-7.49,2.38-14.74,3.81-21.77,4.29
	l-3.58,2.01c-27.33-4.69-52.43,12-65.24,35.47l-3.76,1.41c-7.4,8-11.85,18.53-15.5,28.74c2.13,1.42,3.12,2.98,2.99,4.69
	c-2.35,10.17-2.08,20.96,1.13,30.85c-6.44,31.04,3.57,62.34,16.36,90.44c1.86,9.9-4.02,5.03-9.16-0.27
	c-10.26-10.56-30.46-40.28-33.81-54.18l-0.38-9.18l-2.55-4.5c-3.81-48,2.3-94.92,21.54-139.38c3.71-13.46,7.47-26.66,13.72-39.21
	c0.33-0.66,1.05-1.14,1.83-1.63c0.81-0.51,1.72-0.88,2.65-1.2l2.84,1.81c-1.45,11.88-0.79,23.17,1.97,33.86
	c1.6,4.75,3.92,8.02,6.95,9.82c-0.16-3.16,1.49-6.84,5.17-5.45c4.26-7.72,10.96-13.31,20.1-16.79c2.73-3,5.39-4.13,7.98-3.38
	l0.67-3.18c7.88-1.81,14.04-5.45,18.45-10.93c-5.26-20.88-16.12-42.87-29.67-59.7c-2.73,3.48-5.39,4.54-7.97,3.17
	c-3.06-0.04,2.87-11.82,3.65-12.67c1.15-1.25,4.88-3.57,6.1-2.83c16.77,17.46,29.98,37.62,39.64,60.49
	C291.29,621.78,294.11,622.3,297.44,622.7z"/>
<path class="st6" d="M869.13,1197.57l3.54-0.78c22.91,19.03,61.42,15.44,51.72-21.27l1.89-2.31c2.13-3.21,6.2-2.97,6.86,1.11
	l3.33-1.4c17.58,6.9,33.44,16.22,47.59,27.95l1.72,5.53c1.51-0.15,2.86,0.21,4.13,1.01c3.04,1.93,15.38,28.91,16.66,33.95
	c0.58,2.29,0.7,7.4-1.87,8.31c-6.62,1.3-12.96-1.12-20.56-1.33l-196.71-5.23l-3.71,2.57l-185.24-5.48
	c-11.97-0.39-23.83,1.69-34.96,6.04l-151.29,58.52c62.93,11.24,124.78,27.01,186.69,43.09c9.82,3.06,35.46,12.45,39.37,21.9
	c0.37,0.9-0.95,2.17-1.93,2.99c-17.93,4.45-35.16,10.81-53.56,16.11l-67.3,19.38l-276.07-40.22c-10.15-2.46-18.66-1.03-28.37,1.35
	l-91.56,22.37L17.51,1416.9l4.11-10.96l0.69-6.14c6.4-11.5,13.73-22.23,21.99-32.19c-0.79-2,0.03-4.09,2.46-6.28l46.18-71.35
	c13.36-21.17,37.47-33.41,60.77-40.63l4.14,1.27c-0.34-2.57,2.06-3.71,7.19-3.41c1.45-2.17,3.13-3.39,5.03-3.67
	c6.07,1.26,12.28,0.1,18.61-3.46l3.24,1.24c1.15-3.33,2.71-4.19,5.14-1.11l3.56-3.31l42.96-11.67c3.23-2.16,6.03-2.6,8.41-1.31
	c3.88-4.34,13.27-5.69,18.35-2.91c2.83-4.59,15.04-8.58,18.83-4.82c5.15,3.7,11.39,4.07,17.46,3.87c0.46-4.57,4.4-3.07,6.91-0.22
	c8.46-0.28,17.17,0.7,25.45-1.48c0.91-4.66,3.41-3.09,6.5-0.92c14.31-0.08,33.95-3.51,48.03-7.73
	c18.09-5.43,11.87-19.24,26.72-28.58c1.99-1.98,4.86-2.05,8.61-0.21c0,0,17.4-3.38,52.2-10.14l6.66,0.97
	c2.05-2.02,5.07-2.55,9.04-1.6c6.48-1.23,11.8-0.4,15.95,2.48c3.38,0.25,6.36,0.14,9.72,0.6c0.72-3.44,2.92-3.14,6.59,0.91
	l21.63-1.1c1.21-3.67,4.18-3.61,8.93,0.19l200.93,0.71c8.75,0.03,16.64-1.34,24.31-0.62c3.62-2.31,8.28-3.33,13.95-3.06l11.59-3.54
	l3.82,1.18c7.25-3.58,17.66-0.53,22.73,4.96C846.82,1183.58,858.34,1189.82,869.13,1197.57z"/>
<path class="st10" d="M263.14,1039.39c3.61-1.01,3.85,0.98,0.65,2.73l2.25,5.55c-2.58,37.5-5.81,75.12-9.69,112.87
	c-1.89,14.17-5.17,27.94-9.83,41.33c1.15-1.6,3.73,1.72,4.86,3.23c3.28,4.35,6.85,16.91,0.63,18.82c-2.33,1.31-5.1,3.37-8.45,4.08
	c-16.1,3.41-30.88,9.98-46.48,12.21c-1.88-0.51-3.56,0.04-5.14,1.11c-5.45,3.4-12.94,5.29-19.67,6.12
	c-0.93,0.11-2.12-2.12-2.83-1.56c-0.7,0.55-1.03,1.85-1.72,2.6c-2.78,2.99-6.95,1.01-9.85,2.14c-5,1.5-7.6-4.9-8.93-9.17
	c-7.2-23.18,13.88-42.51,35.51-46.27c8.41,0.66,15.89-0.43,22.44-3.26c3.95-3.2,10.3-38.36,11.14-43.16
	c7.41-42.29,14.42-84.72,15.11-127.77c0,0,0.93-2.35,2.8-7.06c0.28-1.15,1.29-2.64,2-2.29c4.41,2.13,20.69,19.03,23.32,23.32
	C262.13,1036.39,262.8,1037.74,263.14,1039.39z"/>
<path class="st6" d="M274.22,339.84c-13.28,2.78-26.04,3.83-39.31,5.2l-30.09-23.66l-3.41-39.5l24.15-29.28l37.03-4.16l30.7,23.48
	l3.56,37.92L274.22,339.84z"/>
<path class="st9" d="M375.1,212.65l2.68,0.93c-0.08,42.47-0.15,84.95-0.23,127.43l-2.68,1.62c-1.17,0.03-2.33,0-3.46-0.21
	c-5.93-1.11-35.42-26.84-37.56-32.57c-0.4-1.06-0.62-2.19-0.8-3.33l-2.66-5.44c0.23-59.47,0.35-89.21,0.35-89.21l2.68-1.61
	c5.97-1.79,12.53-1.95,19.68-0.47l17.03,0.26L375.1,212.65z"/>
<path class="st6" d="M122.2,1049.94l-27.23,2.38c-5.68-6.52-15.3-10.86-19.49-18.74c-3.85-7.41-0.1-17.91-1.89-26.28l18.04-19.45
	l26.41-1.27c25.17,24.18,18.29,7.29,21.29,43.24L122.2,1049.94z"/>
<path class="st9" d="M374.92,372.19c1.06,0.13,2.65,0.54,2.66,1.29c0.47,30.3,0.04,63.25-1.2,93.55l-2.7,1.59l-5.85-2.06
	c-7.21-6.45-33.22-33-34.48-40.15c-0.19-1.09-0.2-2.21-0.16-3.34l-2.63-7.27c0.11-16.21,0.22-32.41,0.33-48.61l2.69-1.55
	c3.91-0.47,8.16,0.72,12.76,3.56c4.96,1.89,9.9,3.08,14.83,3.57c-2.59-4.89-3.52-8.6,3.09-8.91
	C365.78,363.79,377.9,369.05,374.92,372.19z"/>
<path class="st11" d="M373.86,531.72c1.05,0.13,2.61,0.47,2.68,1.23c1.02,11.93-0.17,25.73-1.59,37.56
	c-0.11,0.93-0.04,1.82,0.15,2.73c4.25,2.11,2.24,10.95-0.03,14.7c-1.7,2.82-29.34,23.72-32.3,24.43l-2.58-1.58
	c-3.75,1.92-10.5-7.34-7.96-10.67c-0.78-1.21-1.21-2.56-1.3-4.06l-0.15-82.51l2.68-1.62c6.71,0.92,13.23,3.54,19.54,7.85
	C361.23,522.53,368.19,526.51,373.86,531.72z"/>
<path class="st5" d="M54.8,1116.86l2.68,0.88l0.69,51.03l-1.67,8.46c0.16,1.22,0.27,2.44,0.2,3.65c-0.07,1.18-0.15,2.31-0.6,3.26
	c-8.28,17.35-17,34.72-27.49,50.86c-0.57,0.88-1.52,1.53-2.53,2.2c-1.02,0.68-2.15,1.2-3.3,1.67c-0.64-2.33-3.2-4.86-2.57-7.96
	c1.44-7,0.3-13.39,0.31-20.32l0.02-50.77c0-9.71,0.78-18.75-0.31-27.82l2.03-3.54c10.03-2.88,19.53-6.9,28.52-12.05L54.8,1116.86z"
	/>
<path class="st6" d="M143.42,496.28c-15.06,19.96-12.96,20.58-38.65,19.74c-8.13-2.06-12.59-11.55-19.86-15.48
	c-0.52-9.33-1.03-17.18-0.44-25.94l15.69-17.39c27.91-0.96,20.19-5.82,41.76,15.15C144.12,479.13,144.25,489.18,143.42,496.28z"/>
<path class="st5" d="M53.33,199.76c1.05,0.12,2.65,0.49,2.68,1.23c0.88,21.81,0.03,45.82-1.08,66.65c0.62,0.88,1.54,2.24,1.08,2.89
	c-5.13,7.16-23.76,29.91-30.12,33.74l-3.15-0.74c-1.19-2.57-2.44-5.41-2.46-8.87l-0.17-36.19l0.13-52.15
	c0.29-0.75,0.62-1.47,1.07-2.1c1.02-1.42,24.3-5.69,28.4-6.1L53.33,199.76z"/>
<path class="st7" d="M333.42,210.28l-0.38,96.26c-8.33-3.63-24.41-18.73-27.16-26.92c-0.42-1.24-0.65-2.54-0.84-3.85l-2.64-6.64
	c0.06-19.93,0.13-39.85,0.21-59.77l2.68-1.57l2.31-2l13.73,5.04C321.11,202.5,332.21,203.55,333.42,210.28z"/>
<path class="st9" d="M305.31,207.79l-0.26,67.98c-1.24-0.45-2.45-0.94-3.56-1.59c-1.09-0.64-2.13-1.27-2.86-2.16
	c-20.06-24.55-37.93-51.75-50.67-80.82c-1.69-5.63,0.89-5.09,6.21-3.53c0,0,6.57,3.77,19.71,11.32c-4.98-4.84-6.58-9.62-4.8-14.32
	l3.12,0.24c10.07,6.55,20.4,12.69,30.96,18.41L305.31,207.79z"/>
<path class="st5" d="M55.28,352.08c1.34,1.36,1.58,3.26,0.71,5.7l-0.12,32.39l-2.7,7.6l-0.55,5.14
	c-3.98,6.23-22.95,30.81-28.18,31.89c-0.93,0.19-1.9,0.21-2.87,0.18c0-4.64-0.4-9.41-1.29-14.6l-0.22-60.22l2.93-3.88
	c21.39-9.18,32.08-13.76,32.08-13.76C63.66,342.93,62.68,349.05,55.28,352.08z"/>
<path class="st7" d="M333.45,511.93l0.15,85.37c0,1.5-0.65,2.39-1.38,2.82c-1,0.01-1.98-0.04-2.93-0.26
	c-5.17-1.21-21.02-22.27-24.52-28.22l-0.41-5.32c-1.86-5.04-2.66-10.29-2.4-15.75c-4.26,1.13-7.51,0.32-9.75-2.44
	c-3.75,0.56-9.51-6.7-6.59-9.69c-2.75-4.63,1.85-5.31,6-5.16l10.21,0.8c-0.32-4.96,0.84-8.04,3.48-9.25l2.88-2.19
	c2.78,0.39,15.79,1.79,15.5-0.44c-4.24-7.13-8-14.5-11.27-22.1c-0.42-1.74-0.82-4.18,0.43-5.17c2.72-2.14,17.25,10.44,19.99,13.34
	L333.45,511.93z"/>
<path class="st2" d="M54.92,267.65c-0.82-0.32-1.33-1.15-1.75-2.54l0.15-65.35c0.67-1.48,1.46-3.04,2.86-3.95
	c3.16-2.06,28.74-15.09,30.43-15.3c3.54-0.45,4.01,0.84,4.51,4.14l-6.48,10.36l18.67-12.19c7.12-1.45,7.09,3.8-0.1,15.75
	c-10.04,21.9-26,46.32-41.39,64.87c-0.81,0.97-1.93,1.69-3.09,2.4C57.54,266.58,56.24,267.14,54.92,267.65z"/>
<path class="st6" d="M92.51,786.25c-25.35,3.06-15.08,4.39-34.12-10.14c-1.05-6.9-1.22-13.05-1.12-19.72l11.92-13.48
	c6.37-1.4,12.07-1.41,19.17-1.95c17.47,16.65,13.34,4.9,15.66,31.13L92.51,786.25z"/>
<path class="st2" d="M54.94,147.19c-0.61,0.5-1.54-0.41-1.69-1.39l0.21-58.6c-0.19-0.78-0.27-1.45,0.02-1.76
	c2.6-2.7,24.75-10.9,26.86-8.36c1.29,1.55,0.88,3.69-0.07,5.36c9.87-2.51,18.55-9.55,26.36-16.19c2.98-1.24,3.82,0.59,4.63,3.46
	c0.65,2.29-21.68,35.93-24.92,40.53c-7.46,11.98-15.85,23.32-25.1,33.98c-0.68,0.79-1.71,1.29-2.8,1.8
	C57.33,146.54,56.15,146.89,54.94,147.19z"/>
<path class="st6" d="M156.43,66.78c-4.64,2.37-13.29,3.07-17.84,1.48c-4.93-1.72-10.98-7.65-13.4-12.25
	c-2.47-4.69-2.32-13.16-0.93-17.87c1.7-5.75,8.28-8.7,11.14-13.64c7.1-0.7,12.43-1.38,19.44-0.96c3.32,4.67,10.44,6.75,12.6,12.1
	c1.81,4.49,2.55,12.74,0.74,17.67C166.51,57.84,161.2,64.34,156.43,66.78z"/>
<path class="st2" d="M303.84,87.24c2.89,9.3,1.18,19.82,1.07,30.06c-6.62,3.94-13.27,5.45-18.58,9.86c-1.24,0.4-2.61,0.78-3.75,0.25
	c-3.6-1.67-12.96-15.43-15.79-19.59c-4.09-6.02-22.69-35.67-22.25-40.38c0.36-3.72,2.35-3.39,5.52-1.49
	c7.4,5.78,15.24,10.83,23.52,15.17c-0.98-3.31-0.62-6.74,3.54-6.65C281.71,74.58,298.96,84.31,303.84,87.24z"/>
<path class="st0" d="M383.33,589.54c-2.7,9.42-4.06,14.12-4.06,14.12c-8.65,10.33-15.67,21.37-21.09,33.13l-3.3,1.87
	c-9.93-4.66-19.5-10.75-30.59-10.8c-1.95,2.08-2.81,1.64-2.58-1.33c-0.73-0.85-1.41-1.86-1.32-3.04
	c0.08-1.06,14.73-11.79,16.74-13.01l3.06,0.32c2.58-1.64,6.32-3.11,9.26-5.48l22.85-18.36c3.79-3.05,1.45-10.09,2.79-13.71
	c-0.56-3.26,0.4-7.77,1.27-11.13c1.19-4.59,6.58-22.03,11.77-17.14c6.34,5.99,0.87,34.4-1.95,42.81L383.33,589.54z"/>
<path class="st12" d="M153.76,370.26c-6.42,0.27-12.1,0.69-17.99,0.25l-11.92-11.19c-1.54-6.16-1.43-12.46-0.88-18.96
	c3.59-4.41,7.39-7.84,11.53-11.74c6.34-1.29,12.78-1.53,19.09-0.18l11.84,11.23c1.05,5.79,1.22,11.65,0.7,17.58
	C162.18,361.85,158.51,365.84,153.76,370.26z"/>
<path class="st0" d="M297.44,622.7c-1.36,0.35-5.56-0.76-5.06,1.4c0.49,2.14,2.21,4.32-0.29,4.99
	c-15.65-22.54-19.7-47.15-43.25-66.15c-5.54,2.33-8.04,8.16-9.23,13.19l1.1,3.21c-11.75,18.18-18.39,37.77-14.63,59.41
	c-2.9,10.81-2.78,20.98,0.36,30.49l-1.56,3.15c-0.25,0.69-0.24,2.01-1.62,2.79c-16.62-18.59-8.3-30.19-10.13-48.27l-1.66-2.73
	l4.81-18.11c7.44-14.57,14.87-28.91,22.29-43c-2.28-14.6-5.3-29.15-9.06-43.63c0.59-2.91,1.42-4.53,4.39-3.83
	c8.49,1.99,24.36,33.49,19.76,43.55c16.9,16.68,29.06,37.58,38.45,59.25C294.94,618.49,297.52,619.6,297.44,622.7z"/>
<path class="st12" d="M101.93,1215.95c-6.28,1.39-12.37,1.67-18.41,1.11l-12.51-12.02c-1.09-6.39-0.9-12.21-0.48-18.68
	c4.4-3.22,6.69-9.06,11.93-11.17c4.65-1.87,13.58-3.13,17.36-0.04l12.56,10.25c0.89,6.67,1.11,12.59,0.5,18.89L101.93,1215.95z"/>
<path class="st3" d="M56.51,1177.23l-1.38-12.02l-0.33-48.35l1.75-4.75c11.48-10.29,22.18-21.39,32.08-33.3
	c4.91-2.9,7.45-4.04,6.95,1.91c-6.24,32.2-19.64,62.24-33.7,91.61c-0.48,0.99-1.36,1.81-2.29,2.65
	C58.67,1175.83,57.61,1176.55,56.51,1177.23z"/>
<path class="st2" d="M375.5,165.01c3.41,13.81,3.29,30.38-0.5,44.09c-1.01,0.21-2.03,0.37-3.03,0.35
	c-6.47-0.15-31.79-21.69-37.81-27.73l-1.83-5.24c0.95-2.95,0.65-6.23,2.26-8.97c0.87-1.58,1.94-3.08,3.52-4.01
	c4.11-2.41,16.47-8.03,20.98-9.51c1.74-0.57,3.58-0.37,5.33,0.04c2.05-4.71,10.28-6.45,12.54-0.88
	C377.93,155.57,379.32,164.91,375.5,165.01z"/>
<path class="st5" d="M23.05,566.75c-4.02-14.07-1.55-38.28-4.4-53.68c-0.46-0.94-1.03-2.44-0.45-2.89
	c3.04-2.37,22.7-14.94,24.92-14.67c6.85,0.83-1.48,12.68-4.1,16.25l10.24-4.38c8-2.19,16.82,2.26,12.95,10.65
	c-4.08,8.84-28.91,45.59-36,48.08C25.19,566.45,24.13,566.62,23.05,566.75z"/>
<path class="st12" d="M265.12,1004.36c0.79,1.02,2.25,2.92,2.46,4.01c0.34,1.81-1,27.92-1.65,29.24c-0.49,0.99-1.7,1.44-2.78,1.79
	c-7.04-2.54-21.04-25.43-27.2-25.46l-2.67-3.08c0,0-0.94-8.69-2.82-26.07c-2.06-4.04-2.42-7.62-1.07-10.73
	c-1.45-9,0.44-12.28,5.67-9.83c0,0,3.31,5.67,9.94,17.01c0.39-2.98,2.61-6.33,5.78-4.24c1.27,0.84,15.03,22.61,15.55,25.62
	L265.12,1004.36z"/>
<path class="st7" d="M333.58,365.64l-0.39,57.43l-4.34-1.47c-5.6-5.94-22.14-25.16-24.74-31.49c-0.6-1.46-0.12-3.17,0.34-4.7
	c-1.85-5.73-4.9-16.3,0.83-19.6c2.27-1.91,5.66-2.22,10.15-0.96c-2.06-5.05-4.7-10.19-7.93-15.42c0.39-2.47,2.4-3.06,4.82-2.74
	l21.27,15.65L333.58,365.64z"/>
<path class="st5" d="M53.86,658.69c4.63-3.07,7.08,3.34,5.06,7.14l-0.4,5.19c-4.67,7.35-25.75,34.11-32.62,35.06
	c-0.95,0.13-1.92,0.08-2.9-0.02c-0.84-1.38-1.38-3.34-1.58-5.62l-0.92-10.68c-0.84-9.74,0.78-19.08-1.84-28.19
	c-0.39-1.01-0.97-2.52-0.37-3.07c1.94-1.76,17.59-13.63,18.75-13.68c2.47-0.11,3.58,1.4,3.98,3.81l-2.49,12.33l12.6-3.84
	L53.86,658.69z"/>
<path class="st5" d="M53.78,919.99c1.18,0.51,1.16,0.96-0.06,1.35l-0.12,6c-3.64,8.31-20.64,41.04-26.4,44.06
	c-0.95,0.5-1.98,0.83-3.04,1.11c-0.9,0.52-2.61-0.06-2.63-1.52l-0.49-33.48c-0.04-2.59-2.36-4.62-2.16-6.59
	c2.29-6.62,7.04-11.96,14.24-16.03c2.19-2.86,4.59-4.32,7.21-4.39c-1.41-3.5,0.6-3.93,2.69-0.97
	C47.4,906.98,55.64,915.56,53.78,919.99z"/>
<path class="st8" d="M53.72,921.35c0.19-0.36-0.06-0.96,0.06-1.35c0.27-1.33,1.03-1.73,2.28-1.2l2.18-1.7
	c8.88,0.32,17.78-0.03,26.69-1.05c5.51-6.79,10.75-12.74,15.71-17.86c0.49-4.47,0.64-17.55-0.24-21.78
	c-1.09-5.23-16.07-19.84-19.95-20.94c-1.19-0.34-23.67,0.39-24.8,0.89c-1.14,0.5-17.09,16.49-17.52,17.66
	c-0.46,1.25,0.82,24.98,1.24,26.56c3.23,2.07,4.51,4.21,3.84,6.41c3.56,0.46,3.26,1.73-0.19,2.55l-2.69,0.97
	c-3.67,1.33-8.09-3.94-9.87-7.07c-3.32-5.85-2.86-26.23-1.72-33.04c0.27-1.63,21.45-22.77,23.15-23.5
	c1.8-0.77,31.02-0.83,33.79,0.19c2.35,0.87,22.35,17.95,23.34,19.75c1.9,3.45,2.58,30,1.54,34.95
	c-0.34,1.62-21.06,23.34-22.71,24.13c-1.83,0.88-26.41,1.7-29.42,1.05C54.94,926.22,52.49,925.33,53.72,921.35z"/>
<path class="st5" d="M122.68,290.81c-5.17,1.08-10.02,1.49-14.82,0.42c-3.45-3.03-6.37-5.9-9.49-9.17
	c-1.03-5.03-0.92-9.95,0.03-15.01c2.75-3.26,5.54-5.93,8.7-8.86c4.69-1.19,9.39-1.01,14.31-0.39c3.7,3.11,7.06,6.15,10.16,9.83
	c0.72,4.48,0.83,8.67,0.36,13.2C129.38,284.5,126.2,287.2,122.68,290.81z"/>
<path class="st5" d="M163.43,587.68c-5.48,1.2-10.32,1.37-15.27,0.67l-9.34-9.14c-0.93-4.94-1.04-9.69-0.21-14.6
	c2.82-3.56,5.64-6.72,9.15-9.51c4.75-0.71,9.15-0.83,13.94-0.26c3.89,2.9,7.19,6.09,10.37,9.71c0.57,4.65,1.03,8.94,0.2,13.5
	L163.43,587.68z"/>
<path class="st9" d="M53.18,397.77l0.12-38.9c0.01-2.84,0.39-5.25,1.99-6.8c3.98-3.37,8.96-5.8,14.96-7.28
	c6.44-3.91,12.94-6.04,19.51-6.39c2.94,2.37-12.59,28.67-15.98,34.17c-4.44,7.21-9.16,14.2-14.13,21.05
	c-0.69,0.95-1.75,1.65-2.86,2.36C55.66,396.71,54.43,397.26,53.18,397.77z"/>
<path class="st6" d="M200.96,420.22c8.43-3.66,17.2,0.43,19.87,8.85c2.12,6.68-0.82,15.25-8.16,18.3c-7.48,3.1-16.01,0.36-19.4-7.57
	C190.42,433.13,192.58,423.86,200.96,420.22z"/>
<path class="st11" d="M305.32,524.83l-0.7,11.73c-5.66,1.12-18.43-3.11-18.99,1.88l-4.83-2.19c-5.77-7.23-22.19-32.1-22.12-39.91
	c0.03-3.75,0.53-4.47,4.01-2.46c12.08,10.11,25.05,18.84,38.9,26.18L305.32,524.83z"/>
<path class="st6" d="M145.88,1099.32c8.67-2.16,15.78,3.22,17.6,10.22c2.09,8.01-2.44,15.54-9.54,17.53
	c-8.14,2.29-15.44-1.72-17.82-8.78C133.53,1110.58,137.08,1101.51,145.88,1099.32z"/>
<path class="st6" d="M164.77,974.82c6.95-2.91,13.29,0.28,15.73,6.34c2.32,5.76-0.22,12.58-5.99,15.1
	c-5.83,2.54-12.53,0.33-15.18-4.52C155.94,985.57,157.79,977.75,164.77,974.82z"/>
<path class="st5" d="M44.03,1327.13c0.2,1.27,0.34,2.54,0.29,3.8c-0.05,1.22-0.14,2.4-0.57,3.43
	c-4.52,10.88-10.61,24.43-19.52,31.58c-2.55-2.56-2.65-6.4-2.86-10.51l-1.24-23.87c4.08-0.6,12.23-0.22,16.56-1.11
	C39.62,1329.85,41.11,1325.76,44.03,1327.13z"/>
<path class="st5" d="M44.3,1367.61c0.28,2.68-1.65,4.78-3.23,7.29l-19.45,31.03c-2.55-3.91-2.29-25.14,0.06-30.18l1.61-2.67
	c6.19-2.04,12.25-4.48,18.17-7.33L44.3,1367.61z"/>
<path class="st11" d="M53.38,1309.72c3.65,2.94,0.54,8.69-3.62,5.59c-13.38,1.49,0.3,17.95-36.66,12.57
	c13.87-7.71,25.31-15.38,35.99-24.88C50.26,1307.81,50.52,1309.89,53.38,1309.72z"/>
<path class="st12" d="M321.72,626.52c0.94,0.08,2.13,0.14,2.58,1.33c1.57,4.1,37.14,23.1,33.49,46.87c-3.52-4.5-5.28-9.5-8.19-14.39
	c-7.83-13.11-19.41-22.9-32.2-31.06c-1.74-1.11-3.17-1.97-3.85-3.41C313.91,621.85,321.34,622.66,321.72,626.52z"/>
<path class="st9" d="M305.29,365.81l-0.83,19.6l-3.44-0.57c-4.67-5.23-21.3-27.82-19.77-33.63c0.62-2.34,1.17-2.73,3.59-2.38
	c1.17,0.17,17.83,11.96,19.33,13.46L305.29,365.81z"/>
<path class="st2" d="M305.12,149.73c-3.96,0.99-10.71-6.45-13.32-9.86c-3.47-3.08-4.18-5.8-2.11-8.16c4.48,1.17,8.68-4.2,14.93-5.77
	L305.12,149.73z"/>
<path class="st3" d="M58.92,665.83c-3.1-1.53-0.9-5.97-5.06-7.14l1.73-4.83c3.01-3.25,17.66-17.54,19.99-18.63
	c3.72-1.73,4.18-0.13,5.06,3.72c0.9,3.91-14.68,23.04-18.32,26.76L58.92,665.83z"/>
<path class="st9" d="M304.36,566.32c-5.95-1.06-14.26-12.28-12.15-18.19c3.72,0.61,7.3-0.41,12.34-0.25
	C304.91,554.21,305.19,560.4,304.36,566.32z"/>
<path class="st13" d="M209.12,782.31l2.74,1.22c0.18,7.59,1.48,14.96,3.89,22.1c1.35,1.64,3.05,3.09,5.13,4.34l5.38,15.36
	c2.79-3.39,4.09-2.57,6.45,0.59c3.17,9.2,6.74,18.21,10.73,27.04c2.05,0.07,3.62,1.35,4.73,3.84
	c13.02-22.03,45.44-64.01,74.21-41.41c3.09,2.43,6.04,5.15,2.32,8.14c-1.72,8.28-5.61,16.1-11.5,22.87l-14.09,16.2
	c-0.3-3.55,2.71-5.47,1.74-9.6c-3.83,5.78-6.62,11.52-9.17,18.51c-0.98-0.22-1.14-1.27-2.19-1.78c-4.86,7.3-6.12,16.27-2.76,24.96
	c2,5.18,3.2,11.42,6.64,15.64c2.27,2.79,5.64,4.12,7.48,7.56c2.9,5.45,8.11,8.91,10.44,14.2c1.25-1.62,1.81-2.65,2.67-2.59
	c1.21,0.09,1.59,1.46,2.48,2.39c14.06,14.86,30.14,26.81,45.87,39.62c22.43,18.27,8.25,55.24,6.05,77.13
	c-2.9,1.48-6.45,0.12-10.65-4.08c0.76,3.37-0.09,6.02-3.71,5.47c-3.4-0.52-16.15-11.64-16.39-16.19c-1.87,0.05-2.76,2.25-2.67,6.62
	c-3.76,2.04-7.38-0.02-10.85-6.19l-3.14,0.93c-3.58-2.22-6.79-5.14-9.63-8.76c1.55,19.38-13.08,1.75-19.34-6.13
	c-1.36,3.08-3.23,4.82-6.19,2.58L273.87,1008c-5.42,3.67-7.3,2.29-8.75-3.64c-3.83-9.74-13.6-17.2-16.68-26.88l-1.57,10.94
	c-5.93-8.14-11.29-15.61-14.56-24.29c-2.38,4.18,0.83,8.86-2.93,9.91l-3.09-0.22l-9.72-19.91c-2.07,0.85-3.99,0.99-5.91-0.48
	l-4.26-11.42c-2.3,1.99-4.42,1.51-6.06-0.96l-7.2-22.85c-5.46,6.63-7.36,1.12-7.76-5.68l-1.05-12.47c-0.76,1.16-3.33,2.19-4.62,1.91
	c-5.2-1.12-7.35-38.05-5.8-45.12c-3.33,1.11-4.74-0.26-4.63-3.73c2.31-11.42,3.47-17.13,3.47-17.13
	c-5.32-2.97-1.73-17.06,0.41-21.98l2.79-1.13c6.78,22.32,24.59,50.58,42.59,68.35c-13.53-28.49-25.32-63.96-18.23-95.07
	c-3.53-11.13-3.6-22.09-0.7-32.74c-1.74-0.26-2.39,1.08-4.59,0.33c2.58-9.12,10.12-29.31,19.3-31.97l0.84,4.45
	c-8.05,16.66-8.53,35.17-8.45,53.28C206.71,780.91,207.83,781.84,209.12,782.31z"/>
<path class="st5" d="M451.34,0l0.39,36.72l59.84,31.42c6.78,3.56,13.5,6.58,18.73,13.11c-28.96-2.76-51.7-17.03-78.73-27.32
	l0.7,109.65c8.67,6.48,17.83,10.82,27.63,15.35l53.05,24.56c1.93,0.89,3.57,1.37,5.18,1.29c4.43-0.52,7.17,5.18,4.14,8.39
	c-0.32,4.6-12.92,9.51-14.55,3.96l-7.07,0.11c-21.76-8.06-43.38-16.21-64.85-24.45l0.02,55.49l-2.68,4.64
	c0.42,0.99,1.05,2.47,0.47,3.03c-6.72,6.54-17.19,13.48-24.96,18.6l-1.06,2.93c-2.63,0.36-13.18,6.28-13.01,7.82
	c0.35,3.22,32.66,4.19,37.41,3.71l1.76,2.78l2.69,0.9l1.4,108.9c0.49,4.74-0.35,8.85-2.52,12.34c1.05-0.02,2.67,0.26,2.68,0.91
	c1.11,44.66,0.97,90.71,0.7,135.37c1.28,5.35,0.71,9.97-1.71,13.87c3.67,4.91,4.71,18.13,0.38,22.69l1.73,1.89
	c0.02,12.62,0.24,25.35,0.64,38.2l-1.76,3.95c2.65,0.32,2.64,1.36,0.09,2.37c1.9,0.62,2.39,2.1,1.48,4.45l0.55,43.9l-2.61,5.88
	l2.69,1.16l0.44,42.4c1.12,3.96,0.69,6.84-1.3,8.66c1.47,2.13,1.87,4.77,1.22,7.93l0.23,12.07l-2.82,2.27
	c-6.46-2.18-13.86-2.02-19.94-6.88c-14.13-11.28-28.99-21.78-44.9-29.62c-0.57,0.94-1.19,1.63-1.11,2.18
	c0.2,1.22-3.61,1.62-3.55,0.69c0.68-10.95,4.1-22.43,0.98-29.48c-3.64-2.31-3.41-8.14,0.3-10.25c-0.8-15.27-10.11-26.78-20.07-37.47
	c-1.52-2.96-0.96-6.73,1.7-11.3c4.25-16.71,8.24-33.45,11.97-50.22c0.03-7.58,9.63-24.88,2.21-44.47l-10.44,28.18
	c-0.82-0.05-1.35-1.31-1.34-2.65l0.11-38.88l1.3-1.96c-2.33-4.1-2.55-9.43,3.06-8.47c19.79,9.64,41.69,13.16,63.43,9.55
	c-24.08-15.8-45.27-35.46-65.42-55.89c-0.72-0.73-1.16-1.77-1.59-2.85c-0.45-1.11-0.73-2.29-0.96-3.49l1.24-96.43l3.39-2.31
	c12.16,2.33,24.4,3.34,36.71,3.02c-13.01-7.78-25.59-16.23-37.73-25.36l-2.42-4.91l0.23-129.99c-3.74-0.72-3.65-2.31-0.1-3.55
	c-0.41-14.69-0.32-29.43,0.5-44.09l2.7-1.02c1.04,5.56,21.84,3.03,23.81,1.68c0.76-0.52,12.59-12.21,13.12-12.96
	c-0.43-0.26-0.79-0.67-0.78-1.2c0.08-3.15-0.09-17.18-0.63-17.95c-4.83-6.88-16.68-15.19-25.62-13.13
	c-4.66,0.82-8.88,0.88-12.67,0.18L375,0H451.34z"/>
<path class="st6" d="M1048.44,306.56c8.03,0.32,47.82,7.33,46.46,25.55c-0.37,5.01-4.47,12.14-8.68,15.01l-1.38,4.06
	c-42.52,19.63-85.99,34.55-131.1,47.97c-16.07,6.85-30.16,17.3-42.28,31.36c-16.13,13.73-43.12,30.24-64.71,26.89
	c-17.27-12.01-39.62-4.74-57,4.03c-18.21,12.97-35.88,20.2-58.17,14.97c-20.37,3.27-40.09,10.83-59.16,22.69
	c-4.36,2.36-7.59,2.31-9.69-0.15l-1.59-2.99c7.28-8.74,14.21-17.68,20.78-26.83l2.86-1.44l0.88-3.08
	c5.88-3.14,11.07-7.39,15.58-12.76l3.19,0.73l1.94-5.12c8.51-6.09,16.33-12.94,23.43-20.54l3.98-0.79l1.11-2.64
	c6.82-5.16,36.47-27.23,41.39-27.57c1.05-0.07,2.11,0.04,3.17,0.21l1.66-4.05c13.82-7.97,27.64-15.93,41.46-23.9l2.72,1.52
	l1.41-3.66c11.5-5.57,22.99-11.15,34.49-16.72l2.93,1.56l1.17-3.52c7.4-3.35,14.85-6.59,22.34-9.72l3.39,1.45l0.93-3.17
	c1.47-1.45,36.86-14.33,38.85-13.79c1.15,0.31,2.07,0.84,2.72,1.88c0.61-0.93,1.27-1.83,2.05-2.59c3.9-3.8,34.87-10.49,42.74-11.76
	l5.97,1.24c1.4-3.27,4.78-4.8,10.14-4.59l12.54-1.19l2.71,2.5c8.81-4.77,22.51-4.46,32.89-3.89c0.99,0.05,1.97,0.47,2.96,0.95
	C1046.56,305.18,1047.52,305.85,1048.44,306.56z"/>
<path class="st4" d="M1049.62,411.4c-2.24,10.72-16.76,21.52-26.77,24.92c-4.01,1.36-11.37,3.85-12.79-1.11
	c-2.74,0.35-4.29-1.2-4.65-4.65c-8.59,16.43-12.88,24.65-12.88,24.65c-2.27,4.55-5.38,6.93-9.34,7.14
	c-4.73,10.77-16.06,3.81-20.11-4.77l-4.01-0.51c-6.83,5.93-14.08,11.45-21.72,16.57l-3.8-1.17c-0.19,2.19-1.87,3.76-5.03,4.72
	c-7.28,15.15-21.05,31.69-35.04,41.01l-2.89,0.05l-1.46,3.5c-7.22,3.76-14.53,7.38-21.94,10.85l-3.15-1.62
	c0.12,4.17-4.81,3.56-8.02,2.2c-3.55-1.51-5-3.57-5.39-7.44c-0.2-1.99,8.17-25.84,9.11-26.91l2.72-1.85
	c-1.19-0.35-1.19-0.83-0.07-1.43c-0.6-4-3.18-4.18-7.73-0.52l-2.85,0.24c-0.35,1.23-0.92,2.54-2.06,2.9
	c-8.68,2.75-19.51,5.35-28.35,4.04c-4.01,9.58-30.33,37.53-39.28,36.93c-0.92-0.06-1.82-0.3-2.73-0.59l-1.21,3.48
	c-1.54,1.31-10.73,3.73-13.37,4.39c-35.64,8.93-24.48-14.86-13.19-34.16c-2.49,1.59-13.63,8.66-15.66,7.79
	c-1.07-0.46-1.81-1.33-2.34-2.35c-1.52,5.45-8.21,1.21-7.22-4.44l-11.05,5.48c-4.31,2.77-7.93,3.08-10.86,0.91l-0.85,2.94
	c-2.85,1.06-19.13,4.83-20.7,3.86c-0.53-0.33-0.91-0.9-1.24-1.55c-0.09,1.05-0.35,2.6-1.11,2.73c-9.44,1.59-48.84-0.08-50.64-11.63
	c-1.33-8.59,26.86-20.56,30.45-19.21l2.37,2.19c4.56-0.95,9.02-2.01,13.66-4.65c12.8-7.28,25.94-13.1,39.86-17.85
	c28.52-9.72,27.6,11.86,69.64-15.8c10.32-6.79,23.28-9.14,34.86-12.03c10.25-2.55,17.78,1.93,26.34,6.01
	c12.86,6.14,48.5-14.03,60.29-24.13c13.39-11.47,24.85-26.48,41.86-32.65c12.17-4.41,24.41-6.44,36.39-11.91
	c7.5-3.42,16.21-3.86,24.05-6.96l50.8-20.04c9.05-3.57,18.08-6.62,25.73-11.84c8.19,13.07,1.55,37.14-8.99,48.03
	c-5.62,5.8-12.78,6.3-19.13,2.07C1053.43,401.48,1052.77,407.44,1049.62,411.4z"/>
<path class="st5" d="M984.43,754.07l2.69,0.92c1.14,158.14,1.71,237.21,1.71,237.21l-2.67,1.68l2.68,0.94
	c-0.12,69.97-0.25,139.95-0.38,209.94l-2.68,1.64c-11.03-13.64-37.32-24.91-52.65-32.08l-2.68-0.92
	c-0.07-60.21-0.14-120.42-0.2-180.65l2.68-1.64c-4.11-1.11-4.05-6.89-0.05-8.13c-3.53-4.43-4.11-15.99-0.02-20.09l-2.68-0.94
	c0,0,0.21-70.93,0.63-212.78l2.68-1.63C950.24,750.98,967.5,751.86,984.43,754.07z"/>
<path class="st4" d="M957.59,163.45c0.86,0.82,1.75,1.35,3.54,2.13c-1.8,11.35-40.89,33.94-39.62,31.9
	c-0.24,0.38,0.95,0.95,1.26,1.13l-1.38,3.34c-7.4,2.13-14.32,5.22-20.74,9.25c-2.99,3.31-6.01,4.7-9.06,4.16l-0.86,2.87
	c-7.71,4.52-15.61,8.72-23.69,12.59l-3.16-1.78c-2.38,5.29-12.63,5.89-18.36,6c-12.1,0.24-19.24-0.88-9.11-12.31
	c-5.37,2.06-9.22,1.92-11.54-0.43c-6.93,2.11-14.48,2.55-22.65,1.33c-8.14,1.08-15.68,0.59-22.63-1.48c-1.46,2.72-4.79,3.64-10,2.76
	c-5.8,2.41-11.12,7.17-15.98,14.29c-6.05,7.79-13.07,13.33-21.05,16.62c-0.81,3.9-9.9,8.91-13.81,10.44
	c-9.1,3.56-11.47,2.94-10.85-7.73l-3.15-1.3c-2.36,5.35-11.37,11.16-16.85,13.98c-3.01,2.51-5.6,2.75-7.78,0.73
	c-0.61,1.5-1.49,2.89-2.92,3.73c-8.99,5.34-45.28,7.11-47.62-8.96c-2.77,2.4-5.09,2.77-6.95,1.13l-1,3.23
	c-12.52,3.21-19.99,7.62-27.54,18.24l-3.45-0.19c-1.01,1.87-3.38,3.31-5.45,3.11c0.45,3.72-1.61,4.19-4.21,1.59l-1.37,3.28
	c-19.16,6.55-46.42,8.91-30.76-19.2c-4.18,0.53-8.4,1.99-12.66,4.37l-3.41-1.17c-1.62,2.82-4.69,4.19-9.2,4.1
	c-12.65,10.36-31.51,16.83-47.83,13.31c-4.72-1.02-7.86-2.46-9.93-7.06l-10.1,2.7l-1.96-2.36c-7.05-0.7-37.82,1.91-43.79-6.98
	c5.62-4.09,12.18-9.37,18.7-10.25c3.89-2.56,8.94-3.59,15.15-3.09c18.35-6.95,37-11.31,55.94-13.08c14.99,2.75,28.88,0.78,41.66-5.9
	c17.99-11.81,36.96-20.36,56.91-25.64c11.26-0.65,16.89-0.98,16.89-0.98c13.35,2.68,26.06,1.65,38.14-3.09
	c28.53-16.1,59.65-26.47,92.28-30.85c59.34-7.89,118.38-16.79,177.14-26.69C934.67,162.46,946.28,161.87,957.59,163.45z"/>
<path class="st6" d="M1009.63,125.58c12.36,0.12,25.12,0.27,37.42,1.67c14.6,1.67,29.19,5.32,43.54,9.98
	c5.31,1.72,18.36,8.9,14.92,14.13c-0.59,0.9-2.44,1.93-4.13,2l-83.19,3.74c-20.9,0.94-40.62,3.97-60.59,6.36
	c-21.37,2.56-42.43,5.31-64.5,8.95l-84.08,13.84c-18.21,3-35.1,4.96-53.44,7.07c-32.98,3.81-65.43,12.28-94.25,28.42
	c-37.23,20.85-41.53-8.24-94.27,19.62c-10.67,5.64-19.93,11.66-30.75,16.58c-21.68,9.84-27.79-2.43-59.96,6.81
	c-10.17,2.92-20.3,5.36-30.18,8.8c-6.37,2.22-12,0.26-17.51,1c0.82-2.31,2.85-4.69,5.32-6.62l19.18-15.01
	c1.85-5.02,5.84-8.77,11.95-11.26c13.41-8.21,40.17-19.97,55.26-24.24c2.48-0.7,4.81-0.52,7.37-0.29
	c4.75,1.29,10.39-3.41,14.55-3.96l3.06-3.2l23.93-6.75l4.2,1.63l49.09-12.59c0.85-0.92,1.74-1.8,2.74-2.53
	c4.85-3.54,38.26-9.94,47.23-11.53c2.33-0.41,4.69,0.23,6.92,0.86c0.29-1.21,0.72-2.49,1.78-3.25c0.98-0.7,17.91-3.72,20.42-3.83
	l3.04,2.07l1.2-3.04c8.19-1.97,16.39-3.94,24.58-5.91l2.45,2.17l1.02-2.94c14.49-2.95,28.97-5.9,43.46-8.85l2.09,2.31l0.64-2.86
	c4.86-1.33,40.24-8.99,42.36-8.57c1.09,0.22,1.83,1.28,2.43,2.24l0.73-2.85c3.97-1.03,34.25-6.72,36.03-6.31
	c1.09,0.25,1.8,1.32,2.39,2.3c3.1-4.56,12.36-5.65,18.11-6.33c3.65-1.4,6.55-0.94,8.71,1.37l42.61-4.74l49.53-5.3
	C989.53,121.76,1002.7,121.24,1009.63,125.58z"/>
<path class="st4" d="M975.04,606.97c4.05,6.61-8.82,24.58-6.69,26.32l1,3.28c-4.41,8.7-23.15,34.32-31.52,37.69
	c-1.73,0.7-2.74,0.9-4.44-0.65c-0.1,2.24-1.43,3.71-4,4.4c-6.66,8.29-15.55,16.51-25.95,19.71c-3.74,1.15-10.67,3.25-11.36-1.67
	l-3.23-0.14c-2.48-5.68-3.04-11.75-1.65-18.23l-9.35,7.4c-7.57,2.35-10.38,3.33-13.12,11.38c-0.86,3.68-2.47,6.24-4.82,7.69
	c-8.92-2.03-3.42,0.74-12.77,7.83c-1.99,1.51-2.33,3.88-1.91,5.76l-0.5,2.81c-6.1,4.43-11.58,9.57-16.44,15.41l-3.2-0.41l-1.65,4.52
	c-5.15,5.67-22.44,17.02-30.19,15.13c-1.07-9.27-1.95-18.67-2.65-28.2l-9.2,9.45l-2.98-1.04c-0.36,1.11-0.77,2.19-1.34,3.19
	c-2.95,5.19-34.03,24.8-39.93,25.01c-1.15,0.04-2.31-0.11-3.46-0.31c-0.79,5.34-10.69,4.36-10.93-0.78
	c2.58-7.99,5.95-15.69,10.11-23.09c-8.53,4.07-14.51,3.41-17.97-1.97c-4.65,3.4-8.19,3.96-10.63,1.68
	c-3.63,4.65-17.04,7.47-21.46,3.19c-2.16,4.98-20.49,2.19-23.8-0.14c-3.73-2.62-3.81-2.93-1.82-7.01
	c1.4-2.87,13.48-12.11,16.48-7.94l1.96-3.26c45.83-23.2,93.72-44.24,143.69-63.1c52.38-17.15,103.47-35.76,153.26-55.82
	L975.04,606.97z"/>
<path class="st5" d="M1055.26,947.01l0.23,37.63l1.8,276.96c-0.5,3.73-2.41,3.37-3.18-0.23c-1.91,1.81-2.64,1.08-1.46-1.38
	l-9.05-7.93c-2.06,3.62-5.4,1.06-4.11-2.51c-3.67-2.18-10.13-2.15-13.82-0.15c-0.85,3.61-5.31,3.69-7.99,1.59l-3.6,3.85
	c3.15,2.74-0.46,7.25-3.9,5.11c-0.75,1.22-1.62,1.52-2.64,0.69c-1.85-85.95-2.42-175.07-1.57-261.31l2.68-1.66l-2.63-2.99
	c0.37-23.93,0.74-47.87,1.11-71.8l2.7-1.56l2.65-1.28l29.68,25.12C1047.63,943.88,1052,944.5,1055.26,947.01z"/>
<path class="st6" d="M975.04,606.97l-82.87,31.96c-16.79,6.48-32.84,11.59-50,17.12c-40.64,13.08-79.33,28.25-117.59,47.16
	l-45.46,22.47c-1.97,0.97-3.95,0.92-5.45,1.56c-3.97-1.43-2.04-5.72-0.59-8.79c1.78-3.76,6.19-11.92,10.06-11.37l1.87-4.5
	l17.21-17.44c0,0,1.04,0.26,3.13,0.79l0.93-4c7.45-6.29,15.26-12.06,23.45-17.31l4.1,0.86l3.22-4.62
	c6.24-3.96,33.55-19.23,38.36-18.76c1.01,0.1,2.01,0.38,3,0.72l1.29-3.38c14.7-5.75,29.39-11.51,44.08-17.26l2.45,1.92l1.6-3.59
	c22.23-9.5,33.35-14.24,33.35-14.24l2.86,1.69c0.68-3.05,2.93-4.86,6.74-5.43c5.45-2.41,15.05-6.21,20.15-3.92l0.9-3.18
	c12.95-4.81,25.91-9.61,38.87-14.4l2.76,1.84c15.23-10.05,34.06-16.6,52.15-18.95l1.23-3.33c6.72-2.54,13.43-5.08,20.16-7.62
	l2.73,1.83l3.04-3.95l33.6-11.42l4.87,0.71c-1.21,0.59,49.4-13.88,53-0.63c2.53,9.29-21.13,20.65-29.73,24.78
	C1041.65,580.02,1008.57,594.04,975.04,606.97z"/>
<path class="st6" d="M1057.82,1337.74l21.72,5.71c14.32,3.76,27.64,9.22,39.1,18.24c8.57,6.02,15.53,12.74,22.06,20.9
	c12.95,16.19,25.4,32.26,36.82,50.13l-143.24-26.21l-102.46-37.34c-4.16-1.51-8.03-2.28-11.72-2.08
	c5.06-8.44,11.59-15.02,22.08-19.58c14.88-6.47,30.78-11.06,46.59-13.97c1.91-3.17,5.48-4.6,10.72-4.3c4.63-1.29,7.6-0.54,8.92,2.26
	c0.87-0.64,1.76-1.23,2.72-1.67c4.98-2.24,40.47,2.01,44.57,5.54C1056.51,1336.04,1057.18,1336.87,1057.82,1337.74z"/>
<path class="st14" d="M845.24,717.74c6.68,0.69,12.43,7.24,18.73,8.32l2.53,1.23c0.14,24.82,0.16,49.66,0.05,74.52l-2.68,1.58
	l-2.63,1.48c-15.38-9.78-28.61,14.33-4.89,14.86c2.64-2.18,5.13-2.65,7.47-1.41l1.97,3.5c1.35,24.92,1.65,51.13,0.54,76.26
	c-0.11,2.57-1.24,4.96-2.38,7.22l1.08,1.46c-2.16,5.54-2.47,11.06-0.93,16.54c1.79,2.35,2.14,4.43,1.04,6.25l1.47,3.16l-0.38,192.09
	l-2.68,1.57c-24.93-17.66-1.82-30.8-13.98-83.59c-5.56-24.14-13.13-47.12-23.32-69l-2.73-11.7c-0.44-74.41-0.75-148.7-0.92-222.87
	l2.5-3.65C825,735.63,840.97,717.3,845.24,717.74z"/>
<path class="st5" d="M1048.44,306.56c-12.71-0.5-26.05,0.21-38.77,1.06l-2.68-1.19c-0.36-9.66-0.12-18.99,0.7-27.97l-20.6-8.52
	l-0.15,39.37l-2.67,1.59c-16.8,4.47-34.35,7.29-50.76,13.12l-2.68-0.93c0-41.09,0.01-82.2,0.01-123.31l2.68-1.63l49.38-7.68
	c1.1-0.18,2.67,0.09,2.69,0.87c0.51,19.55,0.84,40.77-0.03,59.4l21.23,10.08l0.18-74.42l2.68-1.6c12.14-2.58,24.22-6.36,37.52-7.81
	L1048.44,306.56z"/>
<path class="st5" d="M1051.23,540.12c-13.17,6.41-27.87,9.5-41.51,14.65l-2.69-1.16l-0.37-36.97c-0.05-1.14-15.69-10.81-18.61-9.85
	l0.22,54.66l-2.67,2.45c-17.21,6.51-34.79,12.52-52.15,18.95l-2.68-1.24c0.02-35.83,0.05-71.67,0.07-107.53l2.68-1.61
	c7.93-3.41,14.22-9.02,20.19-15.42c3.38-3.63,10.32-3.88,12.5,0.15c1.91,3.55,4.12,6.66,7.17,7.53c3.53,1.01,6.75-1.1,9.79-2.39
	l2.74,1.4c0.56,7.17,0.68,14.18,0.35,21.02c6.52,4.04,13.27,7.62,20.25,10.74l0.83-58.76l2.7-1.54c15.31,2.2,30.8-12.77,39.56-23.8
	L1051.23,540.12z"/>
<path class="st14" d="M933.5,747.54l-0.64,215.35l-2.51,2.43c-6.91,0.1-13.76,1.01-20.53,2.71c-7.24-1.27,2.16,7.1,5.26,8.75
	c0,0,5.93,2.07,17.79,6.21c-0.27,2.54,0.05,5.55,0.05,8.13c-1.05,2.69-3.54,3.18-7.48,1.47c-10.55,0.9-21.08,1.69-31.59,2.36
	l-1.97-2.46l-2.68-1.23c-0.07-19.44-0.13-38.89-0.2-58.34l2.66-4.66l-1.1-2.83c3.73-5.05,3.65-12.04,0.38-17.4l0.83-2.88l-2.67-4.86
	c0.06-54.08,0.13-108.14,0.19-162.18l2.68-1.63C905.61,740.59,919.53,744.66,933.5,747.54z"/>
<path class="st6" d="M1055.26,947.01c-4.4,0.45-9.18,0.73-13.91,0.58l-31.52-26.28c-3.68,1.77-4.61-1.95-5.22-5.39
	c-0.66-1.91-2.46-38.31-2.04-40.34c0.75-3.61,3-9.59,7.14-7.88c-0.18-1.83,0.54-3.95,1.44-5.51c1.2-2.08,19.34-21.45,21.14-22.55
	c1.52-0.93,16.66-2.39,19.4-2.38l2.15,2.47c7.32-0.77,14.7-0.2,23.01-1.23l33.21,27.43l3.24,44.6l-27.33,33.3L1055.26,947.01z"/>
<path class="st9" d="M933.53,198.15l-0.01,125.87l-42.5,15.09l-2.67-0.94c0.18-40.08,0.37-80.18,0.55-120.3l2.69-2.5
	c10.34-10.16,17.55-11.84,31.18-16.75C925.94,197.48,930.21,198.67,933.53,198.15z"/>
<path class="st14" d="M1008.67,755.23l2.68,1.24l0.2,105.76l-1.85,5.47c-1.46,1.43-3.25,5.09-4.54,7.11l2.03,40.02
	c0.14,2.75,1.35,4.85,2.63,6.47l-1.18,76.35c-3.24,1.1-7.02,0.72-11.35-1.15c-4.74,0.38-8.45-0.5-11.14-2.63l-1.73-239.81
	C992.24,755.1,1000.76,754.82,1008.67,755.23z"/>
<path class="st6" d="M933.37,701.63c1.14-0.65,2.3-1.26,3.52-1.7c5.49-1.97,40.35-1.22,45.45,1.15c1.18,0.55,2.29,1.27,3.37,2.04
	c4.93-3.88,19.22-3.13,22.99,2.06l4.23-2.01c11.85,1.25,23.73,1.29,35.63,0.13l4.02,2.46c11.29-0.57,50.7,4.75,55.5,20.79
	c-36.64,3.81-72.16,7.75-108.99,7.92c-23.95,0.11-46.22-5.76-68.8-12.23l-34.44-9.85c-1.11-0.69-2.09-1.85-1.61-2.95
	c3.86-8.98,28.18-10.66,37.02-10.54L933.37,701.63z"/>
<path class="st7" d="M891.97,736.47l-0.2,168.67l-3.19,1.03c-6.3-6.67-15.89-6.83-21.5,0.53l-3.13-1.4
	c-1.56-28.41,1.51-58.53-0.13-86.97c-1.68-1.61-2.04-3.96-1.08-7.03c-1-3.51-0.62-6.15,1.13-7.9l0.09-77.33
	C873.9,727.77,882.45,733.6,891.97,736.47z"/>
<path class="st5" d="M1053.84,839.72l-20.29,2.14l-23.85,25.84c-0.74-0.82-0.82-2.07-0.83-3.85l-0.21-108.62
	c14.38,0.75,28.73-1.34,44.38-1.41L1053.84,839.72z"/>
<path class="st5" d="M1052.59,705.77c-14.89,0.76-29.08,2.24-43.88-0.59l-2.67-1.26c0.12-27.37,0.48-54.71,1.11-82.01l2.4-1.58
	c13.33-4.95,26.69-9.68,42.02-14.07L1052.59,705.77z"/>
<path class="st6" d="M1162.19,444.64c0.03,5.6,0.3,16.85,0.46,23.07l-15.35,18.07c-8.44,1.29-16.34,1.75-25.19,2.15l-19.39-16.67
	l-0.66-25.28l15.48-17.35c8.62-1.21,17.05-1.79,25.78-1.42C1150.5,434.66,1156.95,437.74,1162.19,444.64z"/>
<path class="st5" d="M985.55,628.33l2.68,1.23c0.05,23.98,0.1,47.96,0.15,71.96l-2.68,1.6c-17.39-1.43-34.92-1-52.34-1.49
	c-1.04-0.28-2.59-0.7-2.68-1.5c-0.39-3.55-0.6-19.63,0.03-22.8c-0.25-1.62,0.65-2.86,2.68-3.7c14.32-6.6,26.64-28.35,34.96-40.33
	C973.5,631.1,980.69,630.98,985.55,628.33z"/>
<path class="st5" d="M1057.31,1282.81l0.51,54.93c-15.93-4.18-32.77-5.54-49.4-6.25c-1.03-0.01-2.6-0.23-2.68-0.91
	c-1-9-1.06-33.37,0.09-42.22l2.68-1.57c-3.84-2.82-4.36-6.4,1-3.93c2.33,1.07,14.49,11.15,14.03,12.89
	c-0.3,1.13-1.27,1.39-1.85,0.67c3.09,2.16,7.28,1.92,9.77,0.14c1.78-3.73,4.22-3.93,6.18-0.2c1.86,0.23,3.31-0.22,4.36-1.35
	c-0.94-4.98,7.03-13.55,12.08-12.05C1054.91,1280.28,1056.25,1280.22,1057.31,1282.81z"/>
<path class="st9" d="M1009.66,184.8l-0.2,80.12c-8.97-3.63-17.12-7.68-25.87-12.76l-0.69-61.68L1009.66,184.8z"/>
<path class="st11" d="M1009.54,620.33l-0.84,84.85c-7.16-1.37-15.65-1.45-22.99-2.06l-0.16-74.79
	C993.12,624.22,1001.7,623.25,1009.54,620.33z"/>
<path class="st12" d="M1113.52,272.07c-6.2,0.97-11.75,1.14-17.76,0.68c-4.74-3.65-8.67-7.76-12.96-12.07
	c-0.81-6.47-1.02-12.69-0.07-19.07l11.48-11.49c6.05-0.93,12.01-0.88,18.28-0.33l12.31,11.75c0.67,6.14,0.46,11.94,0.26,18.29
	L1113.52,272.07z"/>
<path class="st12" d="M1133.43,1295.01c-5.99,1.63-11.71,1.41-17.61,1.09c-5.06-3.5-8.91-7.77-13.26-12.21
	c-0.69-6.14-0.58-11.96-0.35-18.32l11.2-11.65c6.3-1.45,12.75-1.28,19.01,0.22l11.93,11.05c1.15,5.68,0.95,11.48,0.51,17.4
	C1141.52,1287.09,1137.74,1290.49,1133.43,1295.01z"/>
<path class="st12" d="M1134.25,690.45c-6.34,1.05-12.38,1.41-18.6,0.76l-11.69-11.34c-1.35-6.35-1.45-12.73-0.27-19.12l11.06-11
	c5.85-1.39,11.59-1.39,17.42-0.56c4.57,3.64,8.76,7.12,12.74,11.4c0.78,6,1.27,11.68,0.53,17.44L1134.25,690.45z"/>
<path class="st5" d="M1111.17,1077.39c-5.07,1.67-9.92,1.51-14.89,1.35c-4.06-2.79-7.23-6.07-10.4-9.87
	c-0.8-4.8-0.77-9.23-0.17-14.23c5.61-7.55,12.25-13.15,22.56-9.4c4.34,1.58,6.42,6.09,10.36,8.41c1.25,4.92,1.48,9.66,0.62,14.68
	L1111.17,1077.39z"/>
<path class="st5" d="M1095.23,47.45c-5.35,1.21-10.31,1.22-15.38,0.32l-8.85-8.36c-0.71-4.96-1.13-9.67-0.26-14.56l9.41-9.25
	c4.54-0.79,8.8-0.87,13.3-0.12l9.83,9c0.62,4.8,0.86,9.22,0.03,13.85L1095.23,47.45z"/>
<path class="st6" d="M1056.65,1502.84c-4.42-0.76-6.08-5.87-10.09-7.59c-0.27-4.96-2.42-10.31-0.1-15.13
	c4.21-8.73,14.93-12.39,21.09-9.41c8.47,4.09,14.05,13.28,10.47,21.45C1074.25,1500.75,1066.73,1504.56,1056.65,1502.84z"/>
<path class="st7" d="M892.1,696.06c3.62-0.57,2.44,10.7,1.56,12.79c-0.58,1.4-1.15,2.21-2.89,2.33l-30.85-7.03
	c-2.48-0.75,6.3-16.64,7.81-18.59c13.29-2.45,11.46-6.71,23.32-13.67C889.62,681.17,887.32,689.25,892.1,696.06z"/>
<path class="st11" d="M933.4,673.62l-0.04,28.01c-8.16-0.23-34.73,0.7-37.51,10.78c-1.37-0.39-3.8-0.93-5.09-1.22l1.33-15.13
	c11.97,2.48,27.23-9.22,34.26-18.65C928.61,674.38,930.96,674.75,933.4,673.62z"/>
<path class="st2" d="M1158.42,184.93c-0.92-13.38-0.95-26.82-0.72-40.21c5.03,0.17,14.1-11.45,17.95-14.25
	C1173.77,150.58,1167.3,168.63,1158.42,184.93z"/>
<path class="st6" d="M1128.98,773.79c7.11-2.36,13.3,1.99,14.73,7.75c1.57,6.34-1.33,12.61-7.82,14.56c-5.6,1.69-12.24-1.1-14.17-7
	C1119.81,783.28,1121.97,776.11,1128.98,773.79z"/>
<path class="st6" d="M1132.96,943.79c6.99-3.12,13.62,0.2,15.95,6.39c2.03,5.38-0.24,12.16-5.4,14.57
	c-6.11,2.86-13.21,0.74-15.87-4.83C1125.02,954.44,1126.31,946.76,1132.96,943.79z"/>
<path class="st6" d="M1159.78,1308.09c7.52-1.64,12.71,3.28,13.59,9.16c0.98,6.58-2.43,12.45-8.91,13.64
	c-6.11,1.12-12.05-2.31-13.45-8.62C1149.69,1316.32,1152.38,1309.71,1159.78,1308.09z"/>
<path class="st6" d="M1128.95,1108.37c7.17-2.09,12.85,2.67,14.23,8.22c1.61,6.53-1.78,12.17-8.06,13.86
	c-5.82,1.57-12.12-1.48-13.73-6.62C1119.33,1117.25,1121.75,1110.46,1128.95,1108.37z"/>
<path class="st7" d="M1057.28,1261.59c0.05,7.06,0.96,14.16,0.03,21.21c-1.07-0.02-2.15,0.04-3.22,0.15
	c-1.03-0.13-2.55-0.4-2.68-1.15c-0.33-1.98-0.39-17.75,0-18.6c0.45-0.98,1.63-1.45,2.68-1.85L1057.28,1261.59z"/>
<path class="st6" d="M416.55,1466.73c-29.03,1.73-21.53,7.14-43.03-14.38c-1.68-6.54-3.26-17.94-0.7-24.29
	c2.6-6.46,9.82-14.01,15.31-17.5c6.68-4.25,16.4-0.53,23.86-2.79l18.63,16.28l0.96,24.82L416.55,1466.73z"/>
<path class="st14" d="M120.82,1474.58c-20.89,1.29-11.55,2.28-25.45-8.64c-1.76-10.57-2.03-19.17,8.84-25.29
	c7.35-4.14,19.24-0.67,24.67,8.27c2.48,4.09,2.22,11.33,0.33,15.51C127.38,1468.46,123.39,1470.12,120.82,1474.58z"/>
<path class="st7" d="M214.22,1407.08c7.28-2.93,14.52,0.67,16.96,6.86c2.62,6.66,0.01,14.39-7.1,17.23
	c-5.96,2.38-13.41,0.14-16.37-6.61C205.12,1418.63,206.26,1410.29,214.22,1407.08z"/>
<path class="st6" d="M163.78,1412.3c-9.84,8.47-31.82,11.93-33.86,6.38c-2.9-7.88,18.32-13.92,28.12-13.73
	C161.08,1405.01,166.99,1409.54,163.78,1412.3z"/>
<path class="st1" d="M787.43,1243.11l-33.92,54.97l-59.89,156.5c-1.46,2.43-4.51,0.42-6.23-1.31c-3.52,3.13-9.83-3.02-7.01-6.69
	c-0.68-1.37-1.68-1.89-3-1.57c-0.12,4.02-6.65,3.78-7.42,0.02c-11.54-1.09-18.37-0.28-24.64,10.49c2.88,3.3-0.09,5.83-3.79,3.93
	c0.45,3.84-0.44,4.96-2.69,3.36l0.01-77.99c0-4.55,0.49-9.38-2.49-12.08c-0.56-9.27-29.34-19.34-38.21-22.32l-106.71-27.02
	l-88.81-17.83l158.38-61.24c13.73-5.31,24.21-7.21,39.23-6.77L787.43,1243.11z"/>
<path class="st6" d="M902.61,1408.35c9.51-0.04,19.23,5.27,26.49,11.55c6.7,5.78,33.43,30.23,30.09,38.39l-78.23,37.86
	l-108.43,12.67c-10.65,1.25-20.4,2.6-30.17,4.44c7.27-12.83,19.22-21.78,31.5-30.92l60.55-45.09
	C857.63,1419.98,874.34,1408.48,902.61,1408.35z"/>
<path class="st15" d="M1008.65,997.66l0.29,257.09c0,2.63-0.77,4.37,1.23,5.19c4.01,3.47-2.37,8.31-4.38,3.34
	c0.14-4.63,0.31-9.24-1.09-13.6c-0.89-2.76,0.57-6.38-1.22-9.93c-5.65-11.17-9.94-23.75-17.7-33.35l0.38-212.51
	C994.05,992.65,1001.64,993.83,1008.65,997.66z"/>
<path class="st11" d="M1025.67,1249.39c3.95-1.99,9.97-2.05,13.82,0.15c1.43,0.47,2.65,2.23,4.11,2.51l9.05,7.93
	c0.22,0.58,1.08,0.91,1.46,1.38l0,21.6c-4.35,3.42-8.19,8.19-12.08,12.05c-0.62,1.94-2.55,1.74-4.36,1.35
	c-2-0.26-4.17,0.31-6.18,0.2c-2.82,1.95-7.04,2.01-9.77-0.14c5.34,4.04-24.62-21.07-13.19-9.63c-4.21,2.1-6.84-1.64-4.19-5.47
	c-1.03-6.04,1.28-12.02,1.46-18.04c2.2,0.36,3.79-1.33,4.38-3.34c1.41-1.63,2.92-3.18,3.9-5.11l3.6-3.85
	C1020.07,1249.48,1022.9,1249.21,1025.67,1249.39z"/>
<path class="st14" d="M677.38,1445.02c1.47-0.82,2.62,0.06,3,1.57c1.87,2.67,4.15,5.1,7.01,6.69c2.49,1.03,4.13,2.42,4.93,4.17
	c-0.45,0.87,0.63,2.47,0.2,3.46c0.37,2.37,0.55,4.81-0.14,7.13c-2.43,8.22-6.75,20-10.19,27.86c-0.97,2.22-2.65,3.98-4.44,5.56
	c-2.53,3.22-5.67,5.81-8.02,1.23c-0.9-0.13-1.7-0.94-2.58-1.15c-2.91-1.31-5.19-4.11-6.84-8.4c-7.46-9.79-14.09-19.93-19.89-30.44
	l1.11-3.23c1.64-0.9,2.94-2.27,3.79-3.93c6.12-10.72,13.39-11.55,24.64-10.49L677.38,1445.02z"/>
<path class="st7" d="M1008.52,1286.79l-0.09,44.7c-5.72-0.24-13.86,0.97-19.64,2.04l11.39-45.39c0.73-2.91,2.42-5.22,4.16-6.82
	C1004.54,1283.67,1006.83,1285.1,1008.52,1286.79z"/>
<path class="st5" d="M667.14,1501.53c-0.38-0.09-0.85,0.1-1.24,0.06c-1.2,1.32-3.2,1.69-6.01,1.1c-4.56-0.61-6.86-5.03-10.39-7.84
	c-1.67-0.43-2.88-1.74-3.95-3.02c-0.11-2.55-5.34-3.32-5.8-5.72c-1.49-7.81-0.91-15.82-0.91-23.3l2.69-3.36
	c-0.2,2.13,1.15,3.79,2.53,5.76l16.11,22.96C663.22,1492.54,666.13,1496.75,667.14,1501.53z"/>
<path class="st6" d="M932.57,1291.91c6.62-1.67,12.73,2.6,14.11,8.04c1.7,6.66-1.85,12.69-7.63,14.45
	c-6.43,1.95-12.76-1.07-14.51-6.91C922.51,1300.73,925.28,1293.74,932.57,1291.91z"/>
<path class="st6" d="M760.75,1415.29c7.08-1.33,12.32,4.59,13.2,9.31c1.36,7.33-3.34,12.51-8.73,13.66
	c-7.15,1.52-12.58-2.73-13.81-8.68C750.07,1423.16,753.23,1416.7,760.75,1415.29z"/>
<path class="st5" d="M695.25,1463.6c1.5,4.2,1.85,8.82,1.05,13.86c-0.31,2.39,1.4,6.21-0.65,8.47l-10.71,11.87
	c-2.37,2.62-4.31,3.66-7.19,3.65c3.9-13.79,9.01-27.4,14.78-40.55C694.27,1460.66,694.68,1462.64,695.25,1463.6z"/>
<path class="st1" d="M677.74,1501.45c-1.17,4.13-4.3,7.38-5.13,12.75c-3.03-4.22-2.59-7.85-2.89-11.53
	C672.44,1503.06,675.07,1501.44,677.74,1501.45z"/>
<path class="st1" d="M696.3,1477.46c-2.6-3.98-0.74-9.23-1.05-13.86C699.56,1465.58,698.58,1473.56,696.3,1477.46z"/>
<path class="st5" d="M693.62,1454.59c-0.37,0.98-0.82,1.93-1.3,2.86c-2.46-0.01-4.27-1.88-4.93-4.17
	C689.52,1453.4,691.58,1453.98,693.62,1454.59z"/>
<path class="st1" d="M665.9,1501.59c0.95,1.89-1.08,2.27-2.33,2.63c-1.6,0.46-2.5-1.37-3.68-1.53
	C661.12,1500.76,663.92,1501.39,665.9,1501.59z"/>
<path class="st9" d="M532.76,281.09c0.34,1.09,0.63,2.19,0.74,3.31c0.1,1.1,0.18,2.14-0.15,3c-7.8,19.89-18.5,37.19-31.49,54.05
	c3.77-1.85,7.59-2.67,11.45-2.44c2.87-2.33,4.38-2.55,7.67-0.76l10.56-10.2c5.83-1.02,6.53,3.64,2.11,13.99
	c-7.06,25.54-21.95,56.03-38.45,76.74c-0.63,0.79-1.59,1.34-2.61,1.88c-1.04,0.55-2.18,0.94-3.34,1.28
	c-1.52-0.52-2.74-1.93-3.65-4.24c-10.01,1.7-18.09-0.39-24.25-6.26c-1.31,3.74-3.73,7.01-6.03,2.48l-1.57-122.13
	c4.31-0.62,9.19-3.3,14.05-3.1c0.78,3.53,3.23,6.2,6.8,6.89c17.03,3.29,33.71-1.53,46.92-12.2
	C524.58,280.89,530.05,282.72,532.76,281.09z"/>
<path class="st2" d="M527.72,217.12c-25.12,11.33-52.84,18.77-74.59,35.79l-0.02-65.4C478.26,199.88,503.33,207.41,527.72,217.12z"
	/>
<path class="st11" d="M375.5,165.01c0.24-4.26-1.23-8.71-1.32-13.56c-3.88,2-7.2,1.87-9.77,2.58c-4.52-2.02-3.22-10.94-1.19-14.76
	c3.38-1.66,7.38-5.32,11.07-7.62c1.21-3.02,1.15-8.02,1.14-11.05c2.05-4.14,24.08-2.93,25.52-1.68l15.64,13.58
	c-0.09,7.73-0.61,14.04,0.84,21.06c-5.14,4.67-9.42,9.03-14.1,14.33c-7.72,1.64-15.78,2.99-23.79,1.55L375.5,165.01z"/>
<path class="st11" d="M457.49,687.39l-0.61-49.94c-0.02-1.85,0.81-3.18,1.19-4.3l1.93-2.29c14.56-4.87,28.22-11.54,40.97-20
	l6.82-1.57c3.23,1.27-9.32,25.03-11.76,29.58c-5.84,10.87-25.43,43.11-35,47.41C459.91,686.79,458.71,687.11,457.49,687.39z"/>
<path class="st3" d="M573.46,204.84c-10.42,2.67-20.46,6.9-31.18,8.32c-1.17-2.9-2.45-5.76-4.14-8.39l16.37-72.05l8.84,37.88
	C566.12,182.5,571.16,193.38,573.46,204.84z"/>
<path class="st11" d="M457.98,630.79c-2.86-14.33-0.97-29.43-0.62-44.03c2.96-5.05,9.32-5.76,8.56,1.97c-0.05,0.5,5.4-1.68,6.6-2.53
	c7.28-5.87,11.79-5.76,13.53,0.31l8.24-6.74c4.98,1.04,5.65,2.56,2.65,7.18c-4.68,11.45-24.17,33.24-33.68,42.22L457.98,630.79z"/>
<path class="st11" d="M369.67,651.05c-2.51,0.66-11.55-10.88-14.78-12.4c4.83-19.59,21.1-28.69,28.44-49.12
	C383.27,604.25,376.82,637.43,369.67,651.05z"/>
<path class="st6" d="M416.93,52.73c6.67-2.09,12.82,1.33,14.67,7.45c1.77,5.84-1.09,12.33-6.74,14.31
	c-6.18,2.16-12.78-0.06-15.17-6.47C407.58,62.37,410.13,54.86,416.93,52.73z"/>
<path class="st14" d="M467.23,763.23c-3.52-0.57-5.95-0.23-9.26-1.34c0.67-5.71-1.35-18.02,1.36-22.27
	c7.94-1.29,15.55-4.48,22.83-9.58c3.16,0.1,4.57,0.45,4.71,3.73c0.19,4.25-12.31,24.29-15.85,28.47L467.23,763.23z"/>
<path class="st0" d="M389.74,688.52c0.18,3.46-0.03,6.73-0.3,10.25c-6.32-1.56-0.86,9.87-13.38,13.96c-1.93,0.63-3.4-1.03-4.24-1.78
	c-1.76-1.57,0.62-3.87,0.8-5.7c0.42-4.16-1.61-10.61-0.6-15.67c0.45-2.27,5.76-3.14,4.13-8.22c2.39,1.41,3.06,1.79,4.5,3.14
	c1.12,1.05,2.69-0.48,4.28-0.71C386.6,685.75,387.22,688.7,389.74,688.52z"/>
<path class="st8" d="M679.12,97.85l2.68,1.22c0.1,26.12,0.2,52.24,0.3,78.38l-2.67,1.61c-18.63,5.45-37.98,8.34-56.89,13.19
	l0.17-80.8c9.29-3.43,17.49-9.99,27.84-14.62l-3.8,13.12C658.05,109.66,670.21,100.11,679.12,97.85z"/>
<path class="st6" d="M522.63,170.88c-9.93,1.06-17.69,1.66-26.84,1.48l-19.15-17.36c1.43-8.28-2.5-17.92,1.15-25.78
	c2.85-6.14,10.1-13.64,15.89-17.14c7.57-4.58,17.29-0.44,26.2-2.52c4.67,6.78,13.35,9.2,17.15,16.28
	c2.41,6.78,2.14,17.89,0.92,25.52C535.76,158.96,526.52,163.32,522.63,170.88z"/>
<path class="st2" d="M779.38,76.08l2.68,1.24c0.04,26.28,0.07,52.56,0.11,78.86l-2.68,1.61l-46.57,9.48l-2.67-0.94
	c-0.22-35.69,0.28-71.23,1.49-106.61l1.86-1.61c5.22-1.05,11.2,5.88,36.6-11.52c-2.98,11.01-9.53,23.56-4.41,32.44
	C771.01,78.04,774.96,76,779.38,76.08z"/>
<path class="st7" d="M824.92,148.59l-45.43,9.19l-0.11-81.7c16.08-8.99,30.81-19.16,44.43-31.67l2.69,1.21
	c0.72,67.57,1.08,101.35,1.08,101.35L824.92,148.59z"/>
<path class="st2" d="M863.9,35.04l2.68,1.24c0.05,34.6,0.11,69.21,0.16,103.83l-2.68,1.62l-39.16,6.86L823.81,44.4
	c2.63-2.42,3.37-7.56,7.92-9.15l-1.68,15.55C842,45.38,854.09,41.85,863.9,35.04z"/>
<path class="st7" d="M890.89,136.78c-8.41,0.94-18.27,3.45-26.82,4.95L863.9,35.04l26.65-18.49L890.89,136.78z"/>
<path class="st7" d="M732.91,167.26l-28.24,6.78L703,167.6c-0.4-28.02-0.98-55.81-1.71-83.39l1.82-2.62l21.31-17.48
	c3.06-2.51,5.63-5.29,9.18-6L732.91,167.26z"/>
<path class="st2" d="M703.1,81.58c1.28,2.1,1.04,5.04,1.16,8.2c1.08,28.57,0.93,56.44,0.41,84.27c-7.63,1.83-17.84,2.85-25.24,5.01
	l-0.31-81.21C685.82,91.1,695.81,87.56,703.1,81.58z"/>
<path class="st11" d="M1009.71,98.97c-1.05-0.27-2.63-0.7-2.7-1.5c-0.36-4.04-1.08-31.29-0.41-33.37c0.11-0.36,0.56-0.44,0.94-0.39
	c-5.93-1.13-11.78-2.9-17.54-5.29l-2.9-4.03c-0.36-1.98,0.59-3.91,2.39-4.82c0.59,0.48,2,0.14,2.67-0.12l2.94-1.3l11.48,4.36
	c-0.06-3.8,1.04-6.15,3.27-7.03c12.61,0.03,11.57,5.6,24.24,14.6c-0.24,7.82-0.69,14.18,1.3,21.76
	C1025.33,92.06,1023.35,101.47,1009.71,98.97z"/>
<path class="st6" d="M987.09,54.39c6.99,2.94,14.34,5.06,22.16,7.76l0.46,36.83l-0.34,1.53c-0.72,3.77-10.37,3.04-13.16,1.93
	c-2.83-1.13-10.99-8.68-13.18-11.37c-1.66-11.84-2.19-24.29,0.02-36.05c0.04-1.25,0.64-1.34,1.69-0.46
	C985.45,54.29,986.35,54.08,987.09,54.39z"/>
<path class="st2" d="M1009.36,100.5l0.27,25.08c-8.59-0.08-18.04,0.25-26.6,1.16l-0.01-35.68c2.6-0.72,4.3,1.12,6.62,2.67
	C1000.12,100.71,990.35,100.13,1009.36,100.5z"/>
<path class="st5" d="M363.22,139.27c2.55,4.46,0.28,9.88,1.19,14.76c-9.3,5.51-19.5,10.22-29.83,13.48
	c-3.03-4.01-0.99-9.06-0.99-13.62L363.22,139.27z"/>
<path class="st4" d="M237.05,0c7.02,14.7,16.88,27.81,27.06,41.34c12.21,16.25,24.68,31.7,39.73,44.43c-0.01,0.43-0.13,1.06,0,1.47
	c-9.98-1.89-19.01-6.73-28.91-10.9l3.58,9.68c-12.68-4.47-21.47-12.02-32.75-19.83c10.19,18.71,25.92,48.64,40.58,60.96
	c-0.18,2.01,2.78,3.18,3.36,4.55c3.14,7.5,10.72,11.9,15.44,18.03c7.84,10.19,17.82,18.3,27.2,26.75
	c13.18,11.87,26.96,24.02,42.67,32.62l0.1,3.55c-13.98,0.33-27.89,0.17-41.68-2.37c-2.89-0.53-5.42-3.27-9.36-2.7
	c0.15,2.57,1.81,3.89,0.73,7.36l-19.48-7.15c-11.7-7.42-24.26-12.95-36.11-21.86c2.76,7.68,8.15,12.21,12.09,19.03
	c-11.78-4.28-22.02-10.3-32.25-17.61c14,33.02,34.3,61.47,56.01,88.42c8.79,10.91,18.06,20.82,28,30.78
	c13.04,13.07,26.34,25.68,41.82,36.1c15.88,10.69,30.8,23.21,48.82,31.68c-17.86,3.8-32.88-0.49-48.77-2.13
	c-3.36-3.58-8.65-3.67-13.23-6.77c0.16,5.22,3.17,6.69,3.93,11.45c-11.3-2.38-23.19-4.72-32.04-11.23l-24.08-17.72l11.95,20.47
	c-5.48-1.32-11.71-0.65-16.16-2.59c-8.01-3.5-14.68-10.17-22.21-15.59c3.39,14.62,15.12,23.88,21.37,35.2
	c7.72,13.95,19.88,24.75,28.74,37.66c11.65,16.98,25.98,31.03,40.49,45.55c22.98,23,45.72,45.61,75.21,63.57
	c-24.93,5.58-50.24,2.66-73.52-9.46c0.51,2.76,2.24,5.32,3.27,8.8c-1.56,0.56-3.45,0.71-4.79,0.2c-14.07-5.38-27.66-11.71-40.4-19.8
	c-6.63-4.21-12.2-10.51-19.67-15.95c3.33,10.07,9.33,19.21,14.93,29.88c-7.99,0.32-16.62,0.44-23.4-1.02
	c-16.64-7.66-31.43-17.96-45.66-30.63c6.71,16.87,16.27,30.57,25.96,44.24c2.02,2.85,5.2,6.81,6.59,9.69
	c3.23,6.7,8.05,12.18,12.15,18.19c8.19,12.01,17.02,24.09,27.86,33.8l7.96,10.67c-2.53,4.82-17.97,12.24-18.47,15.73l-8.18-0.66
	c-5.35-0.43-10.63-2.41-16.1-3.16c-1.91-0.26-4.69-1.77-7.1-2.48c-11.4-24.17-20.7-40.72-39.03-60.14
	c1.86-16.61-7.05-32.53-19.62-43.1l9.22,40.36c1.35,5.89-0.34,10.7-3.92,15.43c-6.58,11.38-13.26,22.12-18.23,34.31
	c-2.66,6.52-2.53,14.08-5.63,19.84c-5.75,10.69-9.97,21.77-13.09,34.16c-2.24,8.89-5.61,17.18-8.89,25.84
	c-11.44,30.23-16.63,61.36-15.94,93.83c0.24,11.19,1.22,21.71,0.72,32.1c-0.31,6.44-4.61,12.75-3.25,20.71l3.94,0.05
	c-3.48,7.56-3.89,14.52-5.06,22.28c2.84-2.43,2.89-5.69,6.21-7.66c-3.2,17.79-1.7,34.99,2.78,52.45c2.52-3.35,4.49-6.96,7.86-9.99
	c-1.81,10.17-0.98,19.91,0.9,29.58c1.89-4.02,0.77-7.78,3.88-10.78l10.15,32.22c1.85-2.45,0.82-5.1,3.08-7.27l7.14,19.15l1.75-8.32
	l14.05,28.77c5.71,11.7,6.69,26.6,6.56,39.88c-0.51,50.48-9.61,114.5-21.68,164.57c-1.26,5.21-2.18,11.93-5.85,15.71
	c-3.73,3.85-11.59,3.07-16.81,3.11c-17.95,0.16-33.71,9.29-39.43,26.09c-3.43,10.07-1.85,20.48,5.7,27.21
	c-27.27,10.65-46.65,16.04-63.69,42.38L49,1362.81c-1.21,1.87-3.02,4.28-4.69,4.8c-7.73,2.4-14.52,7.59-22.62,8.14
	c1.32-2.84,1-7.07,2.56-9.81c7.17-12.59,14.11-25.49,19.79-38.81c1.66-3.9,6.39-7.01,5.73-11.83c2.53-0.28,2.64-3.92,3.62-5.59
	c3.74-6.34,7.02-12.96,9.24-19.96c-4,2.5-5.84,5.7-8.75,6.98l-0.88-9.5c-6.38-4.05-10.87-10.08-16.91-14.7
	c-3.85-2.94-9.95-0.8-14.57-1.29c-15.84-1.68-14.07,6.36-21.51,7.77V1275c10.17-10.07,14.76-24.57,22.78-36.13
	c13.46-19.39,23.39-40.64,33.73-61.64c15.41-31.28,30.02-63.62,37.25-100.02c-13.28,14.16-24.38,28.83-38.96,39.65
	c-9.99,7.42-23.1,11.09-34.57,15.13c-3.19,1.12-7.02,0.74-11.37,1.94c9.79-11.81,16.88-23.74,21.58-36.89
	c-11.03,9.13-19.53,18.69-30.44,25.29v-115.18c9.63-10.05,17.97-22.12,24.15-34.63c11.8-15.66,20.36-33.78,29.57-51.17
	c3.06,3.46,5.88,3.25,10.66,3.08l22.35-0.79l21.4-22.68c0.89-11.35-0.54-21.17-1.39-33c-31.36-25.05-9.68-17.85-53.98-18.69
	L31.14,871.2c-0.37,8.16-0.05,16.26,0.03,24.7c0.09,8.35,6.36,10.2,9.15,14.6c-2.25,6.26-19.32,15.35-21.45,20.42l2.34-23.27
	c-6.48,9.23-12.04,18.96-21.2,24.49V811.61l31.11-44.14c-11.36,6.96-19.5,16.91-31.11,21.37v-60.27c8.36-6.57,17.11-13.72,23-22.51
	c14.34-10.81,25.73-25.72,35.92-40.23c6.55-9.33,16.7-17.17,19.84-30.06c-8.48,8.02-16.16,16.16-24.9,22.92
	c-5.15,3.17-12.91,3.81-19.35,6.46l4.23-18.55l-20.09,14.96c-5.36,3.99-12.41,5.86-18.66,8.08v-75c8.24-8.75,16.98-17.56,23.05-27.9
	c15-14.9,27.04-33.83,38.18-52.25c-7-12.24-15.76,0.26-29.09,2.28c4.44-6.47,9.26-11.94,11.86-19.86l-25.35,16.14l-9.27,3.58
	c-3.27,1.26-6.35,2.86-9.37,3V456.7c7.63-6.75,15.22-13.75,21.58-21.71c12.27-10.75,21.74-24.36,31.6-37.21
	c13.8-17.99,25.75-37.42,35.29-58.89c-10.93,5.97-21.62,11.05-33.19,13.19c0.06-0.73-0.46-1.83-0.15-3c0.31-1.16,2-0.14,2.76-0.5
	c1.78-0.85,0.72-2.51-0.64-3.5c-0.8-0.58-1.7,0.05-3.16,0.9c-10.94,6.38-22.57,10.1-34.03,14.2l-9.73,0.32
	c0.49-4.95,4.15-6.89,5.79-11.4c-6.39,2-10.32,6.76-16.12,5.81v-29.46c8.68-5.92,15.16-14.95,22.72-21.9l9.44-8.68l22.75-27.21
	c21.1-25.23,39.02-53.74,52.38-84.17c-11.25,6.86-18.42,14.09-29.98,17.27l12.39-18.82c-12.84,6.42-24.04,13.44-36.38,17.83
	c-10.42,3.71-22.4,3.78-33.1,6.56C13.8,208,6.43,205.51,0,207.59v-6.7c7.46-4.81,13.18-11.94,20.01-17.36
	c13.22-10.5,23.46-24,34.93-36.34c11.62-12.5,21.61-26.09,30.88-41.19l23.98-39.03c-10.3,9.54-21.61,16.77-34.62,20.72
	c0.33-3.94,2.97-5.46,3.83-9.58L53.46,87.2c-1.09-0.05-2.68-0.27-2.2-1.43c0.47-1.11,2.23-1.96,2.31-2.97
	c10.94-8.15,19.25-19.36,28.14-30.51C95.05,35.58,107.4,18.74,116.52,0H237.05z"/>
<path class="st6" d="M1009.85,45.48c0,3.46,0.08,6.47-0.27,11.24c-6.3-3.17-12.44-3.74-17.43-7.28c0.16-2.01,1.62-4,4.32-4
	L1009.85,45.48z"/>
<path class="st8" d="M680.1,271.94l2.68,0.92l0.99,190.26l1.01,4.58c0.36,8.16-18.8,22.14-22.05,31.26
	c-5.03,1.04-32.7,9.34-30.1,16.97c3.75,11,48.88,8.99,49.04,8.95l2.69,1.22c0.53,58.86,1.01,117.62,1.42,176.27l-2.64,4.71
	c-2.64,6.99-9.09,10.29-9.47,20.16c-5.65,2.39-11.39,5.56-15.96,11.51c7.73,3.6,16.72,3.82,25.1,3.58l2.7,1.51
	c0.25,15.57,0.5,31.15,0.75,46.74l-2.65,1.99c3.76,7.55,3.7,20.68,0.6,28.5c-21.71-8.23-41.63-22.61-63.86-29.32l-2.67-1.63
	c0.26-187.45,0.39-281.17,0.39-281.17l2.67-1.64l-2.21-9.64c-0.69-15.32-0.36-32.89,2.34-47.7l-2.25-3.54l-0.03-22.76l2.66-3.33
	l-2.62-7.06l0.55-61.36c1.57-1.16,1.59-2.9,0.05-5.23c0.23-25.59,0.46-51.04,0.68-76.33l2.7-2.51c2.34-0.92,6.71-5.99,9.13-2.47
	c2.91,4.25,3.79,9.27,10.1,10.14C654.57,277.25,668.03,276.11,680.1,271.94z"/>
<path class="st12" d="M814.18,1167.9c-9.66,4.77-18.62,6.43-29.36,5.42c-19.61-6-39.21-11.22-58.51-20.51
	c-60.8-29.3-109.78-86.23-104.51-157.9c16.19,28.14,33.98,53.4,55.6,76.7c35.45,38.19,75.13,55.24,127.33,59.14
	c18.09-46.66,7.33-101.42-17.69-143.16c-20.53-34.26-47.26-62.88-79.02-87.16c-44.64-34.12-93.24-61.04-145.08-82.61
	c-23.24-9.62-46.21-15.43-70.43-20.58c86.34-13.75,186.74,36.28,250.33,89.67c51.25,43.03,86.92,100.92,99.9,166.59
	c5.53,27.97,5.3,55.16-1.52,82.45C837.46,1151.07,827.22,1161.2,814.18,1167.9z"/>
<path class="st7" d="M825.1,735.55l1.15,238.22c-12.79-27.47-30.04-51.48-48.38-75.3l-2.6-6l1.5-153.57
	c0.3-1.31,0.86-2.47,1.66-3.49c4.88-3.57,8.01-9.84,14.05-12.84c2.86,10.75,1.84,20.73,2.18,31.15c6.47-1,12.15-4.84,17.47-8.72
	L825.1,735.55z"/>
<path class="st15" d="M517.06,962.95c4.07,12.77,3.02,25.95-3.14,39.55l-13.81,34.24c-5.82,10.33-6.73,20.21-2.74,29.62
	c5.24-16.34,9.93-15.94,13.23,1.54l5.29,11.93c1.71-14.23,7.93-13.73,11.35-0.53c1-12.57,7.14-11.58,18.41,2.97l11.61,9.54
	c1.05-5.92,5.32-6.42,12.79-1.51c-13.87-26.69-16.32-51.27-14.6-80.86c0.21-3.62,1.84-14.2,6.36-13.45
	c0.71,0.12,1.27,1.15,1.78,2.45c-0.75,17.11,3.09,32.38,7.2,48.67c0.78,3.11,7.86,23.13,9.41,23.53c0.53,0.14,1.19-0.28,1.9-0.84
	c3.45,3.66,6.32,8.06,8.62,13.2c2.63,6.03,6.44,9.89,11.41,11.56c10.01,9.28,20.71,17.71,32.1,25.31c1.43,1.2,0.63,2.56-0.82,3.83
	l-2.39,1.75c-24.94-0.21-49.61-1.26-74-3.18c-2.78,1.06-6.52-0.37-9.37-0.18c-3.84-0.24-6.44-1.2-7.8-2.88
	c-6.39-3.13-12.97-6.45-19.72-9.95c-2.05,2.61-4.31,3.25-6.76,1.9l-16.41-15.4c-0.24,4.42-1.27,5.77-6.01,4.66l-8.68-9.88
	c-3.05,3.71-7.24,2.97-12.57-2.22c-5.74,0.22-9.27-1.33-10.58-4.63c-0.11-2.13,0.24-4.57,1.32-6.98l25.98-57.63
	c8.57-19,17.51-37.06,23.93-56.2c-1.83-4.66-2.33-14.19,1.23-17.64C513.68,950.9,516.4,956.81,517.06,962.95z"/>
<path class="st15" d="M932.92,991.11l0.21,183.21c-1.98-0.63-4.84-0.23-6.86-1.11l-3.58-0.91c-3.7-6.31-8.64-11.91-15.05-15.55
	l-1.01-3.53c0.43-5.8-11.07-7.94-14.69-12.06l-2.68-1.62c-0.02-48.48-0.04-96.96-0.06-145.44l2.68-1.62l8.08-0.97
	c8.54-1.02,16.96,0.59,25.43-1.57C928.29,990.56,930.66,990.97,932.92,991.11z"/>
<path class="st13" d="M351.99,748.65l3.13-1.17c10.67,9.1,15.74,18.9-1.66,24.17c6.31-0.92,17.68,0.67,17.58,7.75l2.3,1.96
	c-0.1,3.94-3.47,18.34-8.63,15.72c0.65,1.25,0.27,3.06-0.51,4.21c-2.21,3.27-18.04,12.29-19.68,5.64l-2.76,2.37
	c-12.12-3.3-23.65-8.47-34.59-15.52c-6.12-2.18-12.27-0.49-18.43,5.1c-15.84,13.04-29.32,28.52-40.42,46.43l-4.05,0.97l-3.22-3.58
	c-2.77-17.18-4.71-34.16-5.82-50.96c-5.41,6.43-11.55,11.71-11.57-0.88c0-3.11,0.66-10.64,3.99-11.08c2.2,0.18,3.6-1.36,5.46-2.98
	c14.63-12.69,31.43-21.72,51.04-26.01c-2.23-2.3-5.05,0.88-7.06-1.86c9.68-0.37,18.32-0.8,27.07-1.66c0.55-3.57,4.86-3.3,7.77-2.92
	c2.7-0.62,5.54,1.59,7.66,1.47c10.19-0.58,12.7,5.9,15.87,2.1C340.34,750.78,346.89,751.04,351.99,748.65z"/>
<path class="st4" d="M368.34,1048.66l-1.35,13.43c0.28-2.82-24.92,116.12-33.35,103.5l-2.19,0.49
	c-6.61-5.44-12.93-11.39-18.94-17.84l3.12,16.83l-2.28,2.38c-20.69,5.74-30.07,28.46-24.15,48.72l-18.83,4.82l-2.26-1.71
	c0,0,13.21-40.59,39.63-121.76l3.05-0.73c1.68-9.3,5.83-30.33,10.83-37.52c1.66-2.38,2.78-3.63,4.9-1.98
	c0.64-5.68,2.1-10.85,4.39-15.51l3.94-0.05c-0.13-4.22,0.78-6.85,2.75-7.88c6.2,4.73,11.53,10.28,18.54,14.68
	c-0.72-3.29-2.92-5.72-2.63-10.08L368.34,1048.66z"/>
<path class="st7" d="M891.88,992.48l0.06,148.68c-11.05-1.44-19.86-8.74-28.4-14.8l0.13-56.38l0.26-138.92
	c0-1.11,0.5-1.92,1.21-1.52l3.17-0.93c6.34,4.72,14.23,4.61,20.05-0.88l3.3,0.51L891.88,992.48z"/>
<path class="st14" d="M777.86,898.47c-5.83-7.57-14.59-14.64-22.03-21.69l-21.98-20.85l-2.47-3c-0.31-29.32-0.43-58.66-0.37-88.02
	l2.68-1.63c16.06-7.58,30.44-17.41,44.73-27.88c0.92-0.27,1.04,1.34,1.03,2.6l-0.84,97.66L777.86,898.47z"/>
<path class="st12" d="M781.37,1083.99c-31.93-9.34-88.33-49.78-95.3-80.72c-0.8-3.56,0.13-7.19,1.86-9.4
	c2.06-2.64,6.01-2.89,9.97-2.75c11.33,1.79,19.73,8.53,29.03,15.38C749.48,1027.57,768.92,1052.48,781.37,1083.99z"/>
<path class="st4" d="M457.81,1115.61c5.86,5.14,10.69,11.64,14.47,19.51l12.34,17.1l1.71,6.36c4,0.72,6.2,12.5,1.4,13.17
	c-17.9,5.14-36.55,7.71-55.38,11.75c-4.33,0.93-8.55-1.54-12.08-2.38c-2.11-4.06-0.97-8.48,0.9-12.96
	c9.23-22.02,17.82-43.8,28.56-64.53C454.36,1103.49,458.7,1110.91,457.81,1115.61z"/>
<path class="st7" d="M733.69,763.3l0.17,92.64c4.27,4.05-25.33-17.38-21.67-17.32c1.05-2.92,4.51-3.38,10.37-1.4l-19.21-20.05
	l0.6-3.23l-2.65-5.33c0.08-22.62,0.18-45.25,0.28-67.89l2.69-1.59c4.25-0.49,8.45-5,13.28-4.82c0.56,1.05,0.07,4.87,1.46,4.97
	c6.86,0.52,12.33-2.61,19.32-4.31c-4.32,10.31-10.6,17.91-13.51,28.92C727.62,764.1,731.32,764.03,733.69,763.3z"/>
<path class="st0" d="M906.63,1153.22c8.73,4.09,15.17,11.57,19.64,19.99c2.26,4.24,2.15,11.06,2.05,15.99
	c-0.22,11.51-8.72,19.1-19.03,21.02c-15.97,2.98-28.54-4.31-40.17-12.66l-3.6-10.06c0.89-0.01,3.54,0.55,3.59-0.65
	c-1.12-3.41-2.93-5.86-2.17-9.37c1.79,0.6,3.66,1.75,4.7,0.41c-1.22-3.13-3.3-6.08-1.77-8.54c2.17,0.63,4.48,2.61,4.71,1.34
	c0.22-1.21-0.3-2.61-0.56-3.62l-0.67-2.54c-0.28-1.06,0.52-1.47,1.78-1.43c0.64,0.02,1.53,1.24,2.51,1.36
	c2.49-0.4,1.14-5.23,2.8-6.47c2.81-2.11,6.65,0.27,10.37,0.7c0.8-2.14-1.35-2.88-1.02-5.97
	C894.65,1153.37,902.06,1151.08,906.63,1153.22z"/>
<path class="st15" d="M344.53,806.92l2.8,1.4c0.39,6.2-0.78,32.13-5,35.48c-0.39,0.31-1.11,0.2-1.92-0.02
	c-5.88-2.9-8.04-17.57-15.7-20.25c-0.32-2.17-1.45-4.4-3.82-5.92c-32.49-20.88-57.92,22.38-73.26,44.8
	c-1.72-3.08-3.37-6.32-4.17-9.44c-2.28-2.85-3.85-6.7,0.84-6.68c14.09-18.85,29.68-45.21,53.5-55.48
	C309.71,785.64,322.91,805.08,344.53,806.92z"/>
<path class="st13" d="M258.13,646.78c-3.85,3.25-4.92,0.06-4.22-3.8c-2.84-2.53-5.8-5.3-3.58-9.37c-3.02-5.28-3.71-10.44-2.08-15.47
	c7.11-3.65-1.83-36.27-2.89-34.76c-9.35,13.42-16.93,37.22-8.9,52.59c1.68,10.59,0.99,22.53-6.41,30.98
	c-1.77,1.67-2.06,5.22-5.17,5.45c-8.99-19.9,1.21-23.5-2.17-43.25c-2.88-16.82,8.31-40.23,16.9-53.01c1.52-2.26,6.18-3.29,8.17-8.45
	c14.18,18.24,23.79,38.84,31.74,60.5C283.71,639.6,264.55,643.86,258.13,646.78z"/>
<path class="st12" d="M286.89,682.85c1.29-0.03,1.73,0.57,1.32,1.79c3.73,0.5,3.56,2.41-0.01,3.4c0.84,3.48,0.34,3.84-2.71,1.98
	c-19.36-0.1-36.39,9.72-47.17,26.96c-5.94,9.5-9.61,24.14-13.32,33.19c-4.78,7.66-8.89,14.63-11.91,23.75
	c-0.15,4.1-1.47,6.89-3.97,8.39c-1.42,0.47-2.07,2.18-4.9,2.8c-0.45-24.07-0.6-42.02,10.08-63.36
	C227.73,694.92,256.05,675.83,286.89,682.85z"/>
<path class="st12" d="M511.59,945.25c0.8,6.58,0.75,11.74-1.23,17.64l-34.42-36.78c-23.15-24.74-37.93-56.62-54.07-87.23L504,930.25
	C508.95,934.8,510.9,939.52,511.59,945.25z"/>
<path class="st12" d="M458.9,939.78c-28.8,1.8-71.13-5.3-91.69-30.37c-1.26-2.45-2.84-4.75-2.04-6.77c1.07-2.7,4.02-3.57,7.28-4.22
	c14.67,0.43,28.38,5.52,41.13,12.58C429.05,919.49,443.34,927.99,458.9,939.78z"/>
<path class="st0" d="M225,750.17c-0.4,0.98-1.8,4.05-1.04,4.92l2.19,2.49c-1.1,4.38-2.44,7.95-2.85,12.9
	c1.18,0.74,2.14-0.15,3.8-0.04l0.56,9.34c0.32,5.34-2.42,10.7-0.98,17.16c3.96-4.01,6.83-8.52,11.94-10.94
	c-2.62,20.47,0.7,4.13,0.82,21.6c0.09,13.47,3.16,26.08,4.85,38.68c-0.55,1.7-1.3,4.88-0.84,6.68
	c-4.18-0.42-13.58-23.84-13.59-28.22c-3.31,3.59-0.63,6.99-2.76,11.05l-9.13-26.06c-7.39,3.39-8.81-26.35-8.83-27.42
	C208.93,772.97,216.58,753.78,225,750.17z"/>
<path class="st15" d="M258.13,646.78c-7.71,8.99-14.02,6.85-28.08,20.17c10.79-32.12-1.35-37.13-0.25-45.56
	c2.02-15.55,6.62-30.85,16.51-44.12c5.16,11.62,6.42,22.94,7.74,34.25c0.46,3.96-4,6.85-4.28,10.43
	c-0.31,4.08,4.95,15.54,3.88,11.32c0.2,0.79-1.59,1.83-1.55,2.92c0.11,3.06,4.69,4.2,4.44,7l-0.24,2.65
	C256.24,646.65,257.3,647.01,258.13,646.78z"/>
<path class="st0" d="M539.86,1119.23c2.61-0.2,6.32,0.91,7.8,2.88c-37.68,2.51-44.52,36.01-39.58,43.51l4.63,7.02
	c-8.36-0.62-16.82,1.31-24.99-0.89c0.61-4.49-1.32-8.69-1.4-13.17c-6.66-14.82,9.55-31.19,22.62-36.75
	C517.11,1118.36,532.51,1114.66,539.86,1119.23z"/>
<path class="st12" d="M633.42,1123.71c1.63-4.94,6.84,0.04,9.35,2.8l32.09,21.32c-17.63-2.73-33.4-5.42-49.72-9.46l-54.47-13.46
	c-4.83-1.19-9.09-3.24-13.64-2.64c6.55-2.51,13.96-0.08,21.58-0.56C597.49,1120.54,615.46,1123.58,633.42,1123.71z"/>
<path class="st0" d="M383.05,748.78c-2.75,6.75-7.67,12.33-14.76,16.76c0.4,3.62,4.41,8.67,8.1,6.11l2.91,1.45l-3.29,6.08
	c-1.3,3.47-3.37,3.56-4.96,0.21c-5.03-5.12-12.43-6.25-20.33-4.58c-38.65,8.15-61.69-18.96-48.66-16.81
	c-1.74-0.29,24.52,28.84,61.48,5.49c-2.85-6.47-6.37-11.9-11.54-14.84c-1.26-2.98-4.04-4.63-4.66-8.56
	c7.48,5.96,17.05-8.07,34.27,3.24C383.46,744.55,382.5,747.51,383.05,748.78z"/>
<path class="st12" d="M662.43,949.2c1.71,6.34-22.43,23.03-46.15,12.7c-2.08-0.91-3.74-2.73-4.27-3.97c-0.79-1.86,0.25-4.9,2.1-6.69
	C632.21,933.79,660.31,941.31,662.43,949.2z"/>
<path class="st12" d="M432.47,1043.86c12.09,5.34-5.5,46.4-17.75,43.99c-1.37-0.27-2.78-2.23-3.51-4.56
	C404.35,1061.32,424.12,1040.17,432.47,1043.86z"/>
<path class="st3" d="M703.95,813.94l23.91,24.76c-5.87,3.06-10.67-0.78-15.67-0.08c-2.99,0.42-31.66-18.94-27.97-17.55
	c-1.23-9.41-1.01-19.03-0.6-28.5c0.37-1.1,1.31-2.46,2.1-2.17c1.14,0.43,15.11,15.85,16.32,17.81L703.95,813.94z"/>
<path class="st13" d="M337.39,712.46c-1.97-1.39-3.63-3.15-4.99-5.28c-2.52-8.74-6.5-15.84-11.95-21.31
	c-7.79-1.94-15.97-1.45-24.54,1.46c-3.83,0.15-6.4-0.75-7.71-2.68c-0.52-0.54-0.97-1.13-1.32-1.79c14.84-6.26,21.13-8.68,38.08-6.54
	c-3.85-8.89-8.03-14.58-6.67-23.2c17.08,12.35,9.05,24.11,16.33,34.04c4.75,6.48,9.62,21.07,5.87,25.06
	C339.72,713.04,338.22,712,337.39,712.46z"/>
<path class="st0" d="M364.37,812.78c-1.3,4.52-3.37,8.73-5.73,13.05c-0.93-0.48-1.23-1.17-2.1-1.45l-15.86,24.78
	c-0.6-1.92,0.9-4.34-0.27-5.37c3.03-1.38,4.81-33.14,4.13-36.85c7.08,0.61,15.32-4.67,20.19-9.85
	C370.77,792.42,370.05,812.58,364.37,812.78z"/>
<path class="st12" d="M608.28,980.03c4.13,17.57-9.79,34.27-15,31.83c-5.37-2.52-8.12-26.03,9.55-36.62
	C605.38,973.7,607.81,978.03,608.28,980.03z"/>
<path class="st0" d="M337.39,712.46c-1.27,0.7-2.52-0.32-3.77-0.19c-8.64-2.26-17.35-4.63-26.16-7.13
	c-4.75-3.37-8.93-7.45-12.53-12.23c-3.61-1.11-5.85-2.74-6.73-4.87l0.01-3.4c11.83,2.77,31.39-12.2,39.97,6.58
	C331.46,698.41,334.78,705.45,337.39,712.46z"/>
<path class="st12" d="M406.15,1106.35c6.67,1.43-0.06,30.31-15.28,32.34C382,1131.04,395.27,1104.03,406.15,1106.35z"/>
<path class="st6" d="M554.71,852.82c6.56-3.12,13.41,0.25,15.81,6.25c2.13,5.34-0.36,12.26-5.5,14.64
	c-6.26,2.91-13.02,1.09-15.86-5.23C546.87,863.4,548.03,856,554.71,852.82z"/>
<path class="st12" d="M416.5,1006.52c-2.7,3.02-6.23,0.19-7.46-2.55c-6.27-13.92,2.63-31.03,7.96-30.27
	C422.19,974.44,428.32,993.29,416.5,1006.52z"/>
<path class="st12" d="M464.59,998.66c4.96,15.35-13.82,33.82-18.82,29.73C438.89,1022.75,452.34,998.65,464.59,998.66z"/>
<path class="st12" d="M462.95,957.7c4.37,11.64-2.44,25.33-13.76,29.34C439.69,971.61,460.16,950.27,462.95,957.7z"/>
<path class="st13" d="M383.05,748.78c2.33,5.45,1.88,11.68-1.58,17.76c0.43,3.11,1.72,2.33,1.97-1.52c1.31,1.14,1.66,2.67,2.66,6.08
	c-3.3-0.87-4.69,0.53-6.8,2c-1.42,0.99-3.73,1.79-5.12,2.04c-2.61,0.49-9-5.2-8.55-9.74c0.43-4.35,8.54-5.12,13.34-14.1
	C379.92,749.53,381.52,748.76,383.05,748.78z"/>
<path class="st12" d="M333.64,1165.59c-5.53,4.79-13.86,0.09-20.29,1.87l-5.08-27.4L333.64,1165.59z"/>
<path class="st13" d="M288.2,688.04c15.19-0.11,11.2,18.79,33.18,17.65c-1.89,0.1,14.44,3.12,12.23,6.58
	c-21.58,2.25-34.18-7.95-48.13-22.25C286.32,689.27,287.24,688.62,288.2,688.04z"/>
<path class="st12" d="M290.57,725.64c-11.29-1.96-22.77-1.83-33.43,2.71c-4.2,1.79-7.12,5.63-11.96,6.41
	c8.4-21.84,37.45-18.01,54.62-8.64C296.83,727.36,293.85,726.21,290.57,725.64z"/>
<path class="st12" d="M323.44,872.41c8.02-3.93,17.48,19.55,10.57,25.2C324.16,893.43,319.08,881.43,323.44,872.41z"/>
<path class="st12" d="M376.01,779.19c3.24,16.96-7.35,27.77-6.84,40.4c-2.08-3.2-1.98-6.38-4.79-6.81c0.17-0.6,3.67-16.04,0.35-15.7
	c4.11-4.37,5.05-12.32,6.32-17.68C372.68,779.06,374.35,779,376.01,779.19z"/>
<path class="st0" d="M559.59,1173.24c-2.65-0.01-6.16-0.33-8.93-0.19c0.65-1.76-0.35-3.24-1.06-5.36
	c-3.85-11.34,1.91-25.01,14.06-27.42c0.5,2.85-2.35,4.2-4.02,5.91C551.8,1154.2,551.61,1166.17,559.59,1173.24z"/>
<path class="st0" d="M345.51,1217.43c-1.64,0.56-4.8,0.47-6.5,0.92c-3.32-6.54-6.67-12.66-3.97-20.42
	c1.87-5.38,5.48-12.68,13.13-13.93c1.5-0.12-0.2,3.32-1.11,4.09C337.36,1196.26,337.33,1208.83,345.51,1217.43z"/>
<path class="st5" d="M457.81,1115.61c-2.07-4.05-6.35-7.51-8.09-11.97c3.3-6.38,3.37-15.34,9.4-19.94l2.78,1.88l0.74,20.27
	C463.02,1111.72,461.4,1114.97,457.81,1115.61z"/>
<path class="st0" d="M313.56,1219.83l-6.91,0.22c0.19-1.01,0.58-2.04-0.15-3.72c-4.18-9.72-3.35-25.16,8.99-28.07
	C307.22,1199.23,306.9,1210.06,313.56,1219.83z"/>
<path class="st0" d="M529.03,1174.15l-6.59-0.91c-4.88-8.63-3.7-30.68,9.09-29.67C522.43,1152.62,522.08,1164.52,529.03,1174.15z"/>
<path class="st9" d="M311.94,744.35c-1.69,2.42-4.99,2.65-7.77,2.92c-1.2-7.55-43.14-5.61-51.28-3.8
	c5.82-4.67,28.12-4.64,36.56-3.17C295.58,741.37,311.04,741.37,311.94,744.35z"/>
<path class="st13" d="M642.77,1126.51c-3.11,0.43-6.37-2.78-9.35-2.8c-0.28-1.05-0.96-2.09-2.24-2.96
	c-10.49-7.03-20.34-14.14-29.47-22.9c-0.57-0.55-0.9-1.33-1.54-1.57c-0.5-0.19-1.07,0.65-2.13,1.7
	c-6.58-8.14-12.06-16.72-16.56-26.92l-2.33,7.16l-10.12-28.03c-6.4-17.71-8.07-35.6-8.12-53.89l-2.8,13.53
	c-3.87,30.3,3.08,60.82,19.37,86.85l-17.65-8.16c0.85,4.73,4.68,6.6,5.02,11.77c-12.59-8.18-23.8-17.2-32.94-29.05l-3.87,16.25
	c-4-5.43-4.47-11.39-6.8-16.99c-2.94,5.99-2.63,11.76-3.32,18.44c-6.11-10.49-11.49-20.7-13.04-34l-7.89,19.52
	c-1.55-7.12-6.52-15.68-4.61-22.75c8.8-32.56,28.13-56.6,24.69-88.78c6.57,11.18,13.17,22.15,21.83,32.91
	c0.71-0.86,0.78-2.36,1.85-3.29l11.47,16.74c2.12-22.24,6.99-42.57,17.86-61.43c17.2-29.85,47.57-47.38,82.18-46.44
	c34.82,0.94,54.02,13.11,81.72,32c-26.37-9.39-50.38-18.98-79.08-17.36c-24.96,1.41-46.13,14.65-59.43,35.63
	c-10.79,17.02-15.25,36.28-15.03,56.88c0.29,27.16,9.99,52.11,25.21,74.38c9.66,14.13,21.37,25.69,33.69,37.51
	C641.27,1122.33,642.56,1124.22,642.77,1126.51z"/>
<path class="st13" d="M310.78,1096.8L270.36,1221c-6,1.54-12.22,2.34-18.35,2.91c1.32-7.99,0.73-16.54-7.73-21.59
	c6.11-21.22,10.19-41.72,11.94-63.88l7.58-96.32c0.94-0.54,2.4-1.33,2.98-0.79c10.95,10.05,41.18,39.97,44.75,50.87
	C312,1093.67,311.36,1095.33,310.78,1096.8z"/>
<path class="st11" d="M225.5,1296.39c-7.15,2.64-30.27,12.89-34.44,5.18c-1.25-2.31-1.5-6.4,1.28-8.5
	c48.16-36.53,73.34-14.58,66.56-9.45C249.39,1290.82,236.97,1292.15,225.5,1296.39z"/>
<path class="st11" d="M279.51,1297.12c0.89,4.42-21.33,10.84-23.65,6.3C252.49,1296.83,278.07,1290.03,279.51,1297.12z"/>
<path class="st0" d="M197.08,1240.2c-1.52,0.22-3.42,1.76-5.14,1.11c0.43-1.83-0.85-3.08-1.79-5.18
	c-4.12-9.26-1.37-22.37,10.35-25.3C192.48,1220.87,191.06,1230.39,197.08,1240.2z"/>
<path class="st15" d="M337.59,1033.86c-0.67,4.89,1.24,9.89-1.01,14.65c-2-1.69-1.86-4.2-4.48-5.35
	c-1.61,7.31-2.38,13.89-4.56,20.33l-2.43-5.83c-4.65,11.74-8.1,23.28-11.55,35.51c-0.51,1.81-1.57,3.07-2.78,3.64
	c-4.94-10.87-12.32-19.66-21.08-28.51l-25.91-26.17l-0.65-2.73l1.98-35.04c2.17,0.61,2.75,2.81,5.32,3.86l-0.56-11.3
	c5.43,9.94,12.3,16.72,18.56,25.37c2.26-3.38-0.54-5.91,1.35-9.9c4.96,8.44,11.87,15.08,19.3,22l-0.92-15.5l12.88,14.12
	c1.78-1.05,2.39-2.09,3.55-2.48c2.75,3.69,5.1,6.92,8.01,9.57c2.08-3.82,0.43-6.98-0.66-11.43
	C335.49,1029.09,335.75,1032.45,337.59,1033.86z"/>
<path class="st14" d="M56.06,918.8c-0.71,0.49-1.47,0.9-2.28,1.2c-3.38-3.76-6.5-7.69-10.77-10.46l0.19-2.55l0.73-3.84
	c7.64-7.05,14.51-14.85,20.62-23.38c3.44-2.08,5.37-3.02,6.17,1.05c0.87,4.41-8.18,29.57-10.84,35.13L56.06,918.8z"/>
<path class="st7" d="M56.06,918.8c4.39-13.13,10.26-25.9,12.59-39.72c-8.69,9.93-15.29,21.05-25.46,27.91
	c-1.54-1.64-6.31-3.13-6.46-6.16l-1.35-27.89l19.29-18.96l27.55-1.29c5.28,7.18,16.15,11.54,19.74,19.65
	c3.43,8.26-0.13,18.77,1.62,27.3c-6.85,6.26-11.56,11.91-17.37,18.6C80.99,918.67,58.22,921.98,56.06,918.8z"/>
<path class="st9" d="M779.58,222.16l2.68,0.93c-0.04,56.45-0.08,112.93-0.12,169.43l-2.68,3.61c-13.48,7.77-25.73,18.01-38.98,26.86
	c-2.4,1.6-4.01,3.57-6.68,3.14l-2.68-0.92l-0.04-131.08c0.59-2.14,2.27-2.78,4.47-2.71l30.57,8.08c-11.66-4.2-23.13-8.82-34.4-13.86
	c-0.89-1.02-2.29-24.74-1.74-26.98c0.35-1.42,1.26-2.11,2.58-2.85c10.65-9.74,20.76-19.69,30.68-30.98
	C766.86,220.7,775.16,222.68,779.58,222.16z"/>
<path class="st7" d="M824.86,222.31l2.7,1.48c0.1,7.41,0.21,14.81,0.31,22.23l-2.65,1.94l1.2,2.83l-14.52,18.87
	c-1.63,7.5-1.24,15.32,1.19,23.44l13.24,14.14l-0.66,3.21l2.67,1.6c-0.01,18.42-0.2,36.85-0.57,55.27l-2.48,2.41l-45.84,26.42
	l0.12-173.98C794.5,220.39,809.95,220.67,824.86,222.31z"/>
<path class="st7" d="M732.54,255.82l1.01,28.31c5.25,2.67,39.51,13.76,40.41,16.83c1.95,6.65-35.41-6.93-40.46-7.14l0.29,132.32
	c-7.6,10.59-19.49,17.86-29.35,26.44l-2.68-0.94c0.09-63.56,0.19-127.15,0.28-190.77l2.68-3.64c2.26-1.06,2.52-5.45,5.83-5.09
	l0.01,13.82C718.36,265.52,726.19,257.33,732.54,255.82z"/>
<path class="st9" d="M704.44,452.58c-6.19,5.39-11.27,12.94-19.65,15.11c-2.08-0.16-3.67-1.34-3.68-4.42l-1-191.33
	c8.94-3.09,16.12-10.72,24.63-14.71L704.44,452.58z"/>
<path class="st7" d="M891.59,215.37l-0.57,123.74c-7.87,3.42-19.16,8.04-26.9,11.79c-1.04,0.01-2.63-0.22-2.69-0.88
	c-0.52-6.02-1.4-39.3-0.25-42.97c0.43-1.39,1.19-2.75,2.51-3.44c-3.26-1.42-2.11-3.6-0.1-6.01c10.29-7.94,9.09-31.13-1.35-38.67
	l1.54-2.94l-2.67-3.81c0.02-7.07,0.04-14.14,0.07-21.21l2.68-1.92C874.43,225.98,883.73,217.43,891.59,215.37z"/>
<path class="st9" d="M863.69,303.61l0.43,47.29l-38.83,18.82l0.38-59.28l2.03-1.88c6.18,1.15,22.34,1.5,27.35-1.68
	C858.54,301.97,861.42,300.88,863.69,303.61z"/>
<path class="st9" d="M1009.68,307.62c-7.75,0.52-17.95,1.3-25.4,3.28l-0.11-45c9.32,3.69,17.4,6.86,25.47,11.14L1009.68,307.62z"/>
<path class="st7" d="M862.36,495.54l0.07,1.43l-1.99,3.37l-32.3,9.37l0.76,111.87l-2.66,2.51l-47.83,18.73l-2.67-1.26
	c0,0,0.31-33.52,0.92-100.56l2.7-2.45c16.91-8.6,30.09-21.99,40.8-38.47c10.83,0.77,21.82-2.8,31.61-4.81l3.25-0.59
	C861.34,490.4,863.79,490.69,862.36,495.54z"/>
<path class="st11" d="M779.36,538.54l-0.96,104.27c-15.37,6.02-29.7,15.39-44.57,22.67l-2.68-0.93
	c-0.15-96.82-0.23-145.23-0.23-145.23l2.68-1.64c8-0.81,13.67-6.74,22.02-10.69c-0.53,11.25-16.44,27.58-12.34,34.9
	C748.2,550.66,774.35,541.09,779.36,538.54z"/>
<path class="st7" d="M733.6,517.68l0.24,147.79c-10.36,5.07-19.13,13.82-28.48,20.45c-2.36,2.04-3.77,1.5-3.8-1.58l0.24-163.08
	l2.68-1.64c11.05-2.55,20.7-9.48,31.97-14.24c-0.8,4.38-5.55,6.31-7.86,10.35C729.16,517.46,732.3,517.58,733.6,517.68z"/>
<path class="st11" d="M862.43,496.97c0.1,2.11-0.26,4.25-1.21,6.61l-7.33,18.18c-1.26,3.11-0.74,7.31,2.23,8.6
	c1.85,0.8,5.66,1.49,7.9,0.61l2.68,1.24c0.01,24.4,0.02,48.81,0.03,73.24l-2.68,2.48l-37.81,16.15l-0.79-116.38L862.43,496.97z"/>
<path class="st11" d="M933.53,472.47l-0.07,110.38l-42.52,15.74c-1.06-0.11-2.65-0.48-2.68-1.23c-0.93-21.65-1.03-46.47-0.31-68.17
	c-0.91-5.05-0.04-8.7,2.63-10.94c0.5-2.23,2.53-3.17,4.61-4.93c11.69-9.9,23.57-21.06,29.71-35.13
	C927.37,472.53,929.68,474.13,933.53,472.47z"/>
<path class="st11" d="M704.47,519.63l-0.24,164.67c0,1.44-0.01,2.64,1.12,1.63c-2.34,1.66-20.21,21.8-22.21,21.15l-0.53-73.62
	l-0.93-108.58L704.47,519.63z"/>
<path class="st7" d="M890.57,518.24l0.37,80.35c-8.35,3.09-18.84,5.91-26.89,9.35l-0.03-76.96
	C877.38,525.71,879.82,522.48,890.57,518.24z"/>
<path class="st11" d="M1010.06,435.2l-0.91,64.95c-9.3-4.43-17.21-8.66-24.95-14.04l-1.01-23.76
	c11.52-12.13,17.58-26.08,22.98-42.29C1007.18,425.68,1007.55,430.59,1010.06,435.2z"/>
<path class="st11" d="M862.36,495.54c0.36-5.85-6.31,3.94-10.58-0.28c4.14-2.91,8.41-6.74,13.9-7.59
	C865.43,492.35,862.23,492.67,862.36,495.54z"/>
<path class="st15" d="M932.86,962.88c-0.02,6.7,0.74,13.38,0.02,20.09c-4.29,2.17-8.22,0.41-12.66-1.01
	c-13-4.16-17.6-14.11-16.37-15.98c1.34-2.05,3.69-0.26,5.64-0.61C917.72,963.9,925.07,961.75,932.86,962.88z"/>
<path class="st6" d="M951.08,1121.98c6.72-3.28,13.59-0.35,16.07,5.88c2.18,5.48,0.29,12.13-5.55,14.96
	c-5.7,2.76-12.63,1.29-15.72-5.25C943.64,1132.83,944.47,1125.21,951.08,1121.98z"/>
<path class="st6" d="M956.15,817.71c7.09-2.5,13.41,1.13,15.16,7.49c1.52,5.52-1.16,12.21-6.69,14.14c-6.29,2.2-12.8-0.2-15.2-6.62
	C947.5,827.58,949.39,820.09,956.15,817.71z"/>
<path class="st9" d="M863.87,229.05l-0.08,26.94l-2.42,1.62c-6.34-5.85-12.95-8.84-19.83-8.96l-14.91,2.06l-1.4-2.75l-0.36-25.65
	c4.8-0.71,10.17-2.7,16.55-2.57c-1.53,5.18-6.67,6.46-7.59,12.3C844.45,233.32,854.62,231.74,863.87,229.05z"/>
<path class="st3" d="M590.63,289.12c7.52,4.23-8.32,11.53-5.45,3.11C586.16,290.1,588.34,289.07,590.63,289.12z"/>
<path class="st14" d="M704.26,739.14l-0.32,74.8c-5.61-5.81-11.85-11.18-16.49-18.84c-0.9-1.48-2.6-2.36-3.85-2.53l-0.8-50.24
	C690,742.13,697.13,739.96,704.26,739.14z"/>
<path class="st7" d="M1039.49,1249.54c-4.61-0.02-9.22,0.16-13.82-0.15C1021.86,1246,1041.94,1245.24,1039.49,1249.54z"/>
<path class="st7" d="M1052.64,1259.98c-4.12-0.68-6.95-4.5-9.05-7.93C1047.89,1252.5,1051.18,1256,1052.64,1259.98z"/>
<path class="st11" d="M1009.73,554.78l-24.12,9.12l-0.25-62.35c8.97,3.62,16.11,8.25,23.97,13.15L1009.73,554.78z"/>
<path class="st6" d="M891.77,905.14c3.51,2.25,7.56,14.94-0.11,23.11c-7.89,8.4-17.96,8.42-26.52,1.3
	c-6.4-5.33-5.94-19.2-1.19-24.25c3.09-0.84,3.95-4.38,6.68-5.29C883.53,895.73,886.09,901.49,891.77,905.14z"/>
<path class="st6" d="M863.87,803.39c1.95,4.88,2.19,10.13-0.05,14.93c-2.99,1.83-5.73,4.19-8.73,4.46
	c-4.75,0.42-15.39-6.39-14.9-10.63c0.88-7.56,9.18-12.68,13.63-12.78C857.51,799.28,860.7,801.29,863.87,803.39z"/>
<path class="st15" d="M901.37,967.04c-1.47,4.04-2.12,6.23-1.46,9.4c-3.86,0.35-2.35-2.71-2.74-4.87
	C896.76,969.28,897.83,966.55,901.37,967.04z"/>
<path class="st7" d="M1031.47,1296.56c0.79,1.2-0.41,2.1-1.15,2.37c-0.77,0.28-1.91,0.21-3.04,0.3c-3.03,0.24-5.82,0.04-5.58-2.81
	C1024.96,1296.41,1028.22,1296.38,1031.47,1296.56z"/>
<path class="st7" d="M1042.01,1295.01c-0.19,0.77,0.18,2.21-0.8,2.76c-1.5,0.85-2.62-1.1-3.56-1.42
	C1038.53,1294.83,1040.46,1294.99,1042.01,1295.01z"/>
<path class="st6" d="M642.36,1291.31c-7.54,5.36-36.35,10.55-38.18,2.77c-0.47-2.01-0.09-4.88,2.26-6.13
	C615.49,1283.17,642.83,1274.6,642.36,1291.31z"/>
<path class="st6" d="M570.51,1250.48c7.08-2.05,13.14,2.67,14.46,7.96c1.67,6.72-1.61,12.72-7.72,14.49
	c-6,1.74-12.53-1.59-14.25-6.99C560.99,1259.63,563.37,1252.54,570.51,1250.48z"/>
<path class="st5" d="M669.96,1445.04c-5.02,4.49-11.59-3.45-18.27,4.9c-1.9,2.37-4.09,4.31-6.37,5.59
	C647.89,1443.99,660.9,1441.24,669.96,1445.04z"/>
<path class="st6" d="M492.78,519.81c-7.2,2.99-8.69-12.02-8.67-17.57c0.05-10.27,0.09-10.55,6.16-18.76
	c2.89-3.91,13.63-14.97,17.13-9.43c1.74-3.61,13.89-3.16,16.98-2.03c3.81,1.39,15.17,12.22,17.07,16.1
	c2.81,5.76,3.42,17.35,1.41,23.42c-1.08,3.25-11.38,16.36-14.09,18c-3.54,2.14-19.89,3.1-23.78,1.99
	C502.53,530.82,490.83,522.97,492.78,519.81z"/>
<path class="st11" d="M543.86,671.22c-7.78,7.32-16.88,7.4-24.76,0.34c-7.84-7.03-7.76-17.92-0.23-25.53
	c7.32-7.4,17.24-7.61,24.72-0.33c4.13,4.03,6.28,6.93,6.14,13.25C549.62,664.61,547.88,667.44,543.86,671.22z"/>
<path class="st11" d="M620.87,449.95c0.99,19.05,0.98,38.3-0.12,57.35c-1.22-0.77-2.41-1.57-3.48-2.52
	c-1.04-0.93-2.04-1.85-2.69-2.97c-8.5-14.57-19.54-34.15-24.88-49.83c-4.74-13.92,2.06-10.46,10.12-4.94
	c-0.14-9.01,4.58-8.43,14.16,1.75C617.21,445.72,620.87,445.01,620.87,449.95z"/>
<path class="st6" d="M567.77,566.07c6.55-2.81,13.12,0.26,15.25,5.66c2.35,5.93,0.05,12.85-5.75,15.26
	c-5.56,2.31-12.14,0.63-14.9-4.73C559.57,576.83,561,568.98,567.77,566.07z"/>
<path class="st6" d="M538.44,358.34c7.04-2.73,13.01,1.69,14.88,7.55c1.84,5.78-1.53,12.22-6.65,14.08
	c-6.53,2.37-12.93-0.49-15.35-6.51C529.16,368.1,531.71,360.94,538.44,358.34z"/>
<path class="st11" d="M489.23,421.92c0.39,3.8-1.42,7.63-5.43,11.49l-8.54,6.43c6.12-2.73,10.91-2.51,14.38,0.65
	c2.21-2.88,15.09-10.72,17.92-10.77c4.03-0.08,5.15,3.41,3.22,6.55l6.21-3.97c4.57-4.5,13.21-12.81,12.16-1.67
	c-0.78,8.23-12.85,32.98-17.63,41l-4.11,2.4c-6.43-0.13-19.39,15.45-20.04,18.15c-0.99,4.06-1.65,24.48,5.41,27.62
	c0.15,1.1,0.25,2.19,0.16,3.27c-0.54,6.72-26.32,38.4-32.76,40.42c-1.03,0.32-2.11,0.47-3.21,0.57c0.32-4.04-0.94-8.8-0.96-13.82
	l-0.71-136.34c3.8,1.64,2.89-7.34,6.02-7.36c1.81-0.01,1.8,3.3,2.61,4.02C476.44,421.58,489.92,407.51,489.23,421.92z"/>
<path class="st9" d="M622.62,267.83l-1.37,152.49c-1.24-0.48-2.44-1.01-3.55-1.7c-1.07-0.67-2.09-1.36-2.8-2.27
	c-17.94-23-30.34-51.57-40.42-78.79c-1.22-4.43,0.45-4.97,4.26-5.28l10.64,8.78c3.2-4.03,6.14-3.28,8.07,1.16
	c5.04,0.4,9.89,1.71,14.57,3.93c-7.37-8.64-33.6-39.66-31.93-49.58c0.16-0.94,0.49-1.85,0.88-2.76c1.42-0.47,2.71-1.35,4.21-1.59
	c0,2.43,2.92,0.96,4.12,0.46c1.45-0.6,0.63-2.8,1.34-3.57C608.84,269.27,598.61,277.25,622.62,267.83z"/>
<path class="st3" d="M539.86,1119.23c-10.47,0.8-21.25,0.93-31.14,5.65c-13.82,6.59-22.63,19.06-22.39,33.7
	c-10.94-13.15-20.75-27.77-28.52-42.97c3.09-6.8,2.19-14.79,1.79-22.71l-0.47-9.19c11.06,3.54,9.71-1.43,19.08,8.01l2.27-7.26
	l13.26,15.09l1.34-9.56l21,20.07c1.35-1.41,0.38-2.98,1.43-5.86C521.63,1108.62,542.47,1115.15,539.86,1119.23z"/>
<path class="st10" d="M317.92,686.91c5.19,0.7,6.66,6.67,5.48,10.98c-1.25,4.55-7.05,6.21-12.15,4.23
	c-4.49-1.74-8.72-8.35-8.02-13.72c0.4-3.03,6.96-3.49,9.58-3.28c-0.45,3.52-1.4,6.93,0.05,10.88
	C316.1,695.05,317.49,692.7,317.92,686.91z"/>
<path class="st12" d="M283.37,1117.64c-10.13-3.68-12.61-14.59-11.84-24.1C281.64,1096.96,286.24,1107.46,283.37,1117.64z"/>
<path class="st6" d="M863.79,255.99c0.65,3.06,6.04,5.41,7.05,8.55c2.56,7.93,2.11,17.46,1.54,25.77
	c-1.14,5.41-8.15,7.91-8.68,13.29c-3.87,0.29-5.02,4.91-8.69,6.35c-3.75,1.47-25.4,3.73-29.33,0.48l-15.07-16.06
	c-1.14-8.09-5.08-20.95-0.31-27.12l14.93-19.31c8.29,0.8,18.73-4.9,25.64-0.39L863.79,255.99z"/>
<path class="st3" d="M580.97,293.81c7.58,21.11,22.01,38.64,38.56,56.2c-4.57,2.51-22.36-9.65-23.1-3.07
	c-1.38-3.01-1.49-5.46-4.21-6.84l2.02,8.44l-18.38-15.16c10.77,31.66,25.45,61.31,45.39,86.94c-0.09,9.86,1.14,19.82-0.38,29.62
	c-0.94-0.16-2.17-1.15-2.99-0.96c-1.34,0.33-1.43,2.02-2.41,3.83c-5.21-2.55-8.48-7.4-13.24-10.82l0.48,8.52
	c-5.86,0.04-8.47-4.89-13.69-7.18c9.26,22.99,20.19,43.62,31.73,63.95l0.3,126.43l-0.69,158.03c-40.18-12.12-81.32-20.64-123.6-25.1
	c-10.54-1.11-19.9-1.87-29.52-3.42c6.04-9.85,13.61-18.82,17.63-31.38c-4.81,1.26-23.11,15.45-25.53,7.77
	c-0.91-2.88-1.36-5.94-1.4-9.65l-0.43-42.57c20.86-21.47,36.99-47.55,49.18-77.34c-15.26,11.41-31.09,18.99-48.6,23.11
	c0.06-0.66,0.04-1.69-0.09-2.37c14.52-15.04,28.82-30.27,39.08-49.57c-5.19,2.84-7.77,7.67-13.4,9.4l-1.44-7.33
	c-6.87,4.86-13.42,8.35-21.49,9.96c-0.34-3.71,2.76-4.78,4.1-7.9c-3.02,0.53-5.06,1.92-7.48,1.4c0.18-7.52-0.98-15.1-0.38-22.69
	c13.86-12.87,26.4-27.78,35.81-44.25l12.3,8.67c5.83,4.11,14.53-1.31,22.45-1.04c3.25-6.3,10.69-9.73,12.79-16.69
	c1.73-5.75,1.27-16.67-1.61-22.17c-3.16-6.03-10.82-9.6-15.29-14.2l-16.01-0.33c7.24-15.52,15.95-30.07,20.21-48.26
	c-6.08,6.6-11.97,12.29-21.28,15.11c0.28-4.22,2.69-6.42,3.56-9.37c-7.67,3.7-14.06,6.65-20.21,11.33
	c-6.91-5.68-11.28,1.32-18.73-0.47c0.94-6.95,8.3-7.02,11.06-11.05c2.39-3.5,4.72-6.41,7.2-9.41c21.48-26.01,36.1-58.41,45.5-93.26
	l-17.49,16.9c0.01-2.69,2.08-4.7,0.44-6.82c-2.02,1.47-1.25,3.36-2.6,5.5c-2.38-7.55-12.58,2.67-20.08,0.43
	c16.7-19.07,29.83-40.19,37.77-63.6c5.72-3.44,12.25-5.04,19.53-8.58c0.93,7.82-8.66,17.92-5.03,23.19c0.76,1.1,2.94,1.67,4.97,2.1
	C562.44,299.98,571.79,296.87,580.97,293.81z"/>
<g>
</g>
<g>
</g>
<g>
</g>
<g>
</g>
<g>
</g>
<g>
</g>
<g>
</g>
<g>
</g>
<g>
</g>
<g>
</g>
<g>
</g>
<g>
</g>
<g>
</g>
<g>
</g>
<g>
</g>
</svg>
