<?xml version='1.0' encoding='UTF-8'?>
<svg xmlns="http://www.w3.org/2000/svg" id="Layer_1" viewBox="0 0 1200 1543" xml:space="preserve" width="1200" height="1800">
<style type="text/css">
      .cls-1 {
        fill: #383633;
      }

      .cls-2 {
        fill: #64372b;
      }

      .cls-3 {
        fill: #864824;
      }

      .cls-4 {
        fill: #a55328;
      }

      .cls-5 {
        fill: #687390;
      }

      .cls-6 {
        fill: #757b8e;
      }

      .cls-7 {
        fill: #8890ab;
      }

      .cls-8 {
        fill: #b3958a;
      }

      .cls-9 {
        fill: #dea178;
      }

      .cls-10 {
        fill: #e1a573;
      }

      .cls-11 {
        fill: #baafc4;
      }

      .cls-12 {
        fill: #e5ad6c;
      }

      .cls-13 {
        fill: #cdb19f;
      }

      .cls-14 {
        fill: #eab468;
      }

      .cls-15 {
        fill: #f2e1cb;
      }

      .cls-16 {
        fill: #fbe9d1;
      }

    </style>
<path class="cls-3" d="M318.75,0c1.16,2.93,2.33,5.97,2.43,9.16c0.76,24.23,1.45,48.62,1.93,72.86c0.03,1.51-0.34,3.04-0.74,4.59  c-0.41,1.58-1,3.1-1.65,4.62l1.93,5.56c1.4,46.6,2.7,93.23,3.89,139.88l-1.29,5.69c3.11,2,2.85,8.43-0.92,9.22l2.63,2.89  c0.61,23.25,1.12,46.52,1.54,69.79l-2.61,3.53l-0.11,3.29c-21.27,20.49-35.53,61.06-25.87,89.49l-1.28,2.77l0.82,4.55  c-9.05,19.83-17.37,41.39-17.2,63.49c0.4,52.89,36.02,59.03,42.81,7.95l3.19-1.07l2.71,0.84c2.26,66.49,4.52,133,6.78,199.51  l-2.62,1.73l2.92,9.82c2.28,92.37,4.55,184.62,6.82,276.74l-2.64,1.72l2.69,2.33c0.5,10.63,0.24,21.15-0.79,31.57l-2.88,1.43  l-26.14,0.01l-1.89-2.68c-2.46-1.73-3.34-5.15-2.61-10.25c-1.35-3.18-1.34-5.73,0.01-7.66c-4.03-2.34-8.03-3.33-12.02-2.98  c-3.34,3.19-5.95,3.68-7.81,1.47l-2.24,3.37c-4.3,2.22-6.57,4.85-7.12,9.6c-2.03,17.45-5.76,62.2,20.58,62.25  c14.31,0.03,12.38-18.7,11.19-28.5c-0.77-1.75-0.63-2.46,0.44-3.52c3.79-3.76,23.88,0.66,29.13,2.27l1.34,2.73l2.5,4.27  c0.16,15.09,0.73,30.17,1.72,45.24l-1.41,6.68c3.36,0.67,2,16.38,1,17.27c-35.93,9.25-56.19,31.2-60.86,67.94  c1.42,8.81-0.33,15.68-5.24,20.61l2.95,19.71l-2.3,3.23c3.3,1.81,4.42,3.3,0.53,5.07c4.03,3.36,4.62,7.55,1.63,11.87  c3.21,1.7,4.24,2.48,0.64,4.4l2.92,2.2l11.58,112.73c3.79,7.96,60.05,10.95,70.8,9.69l1.52,2.64c2.95,2.31,6.37,11.76,3.01,14.77  l3.29,3.99c3.28,14.49,7.2,28.82,11.78,43l-1.49,5.04c-3.84,0.53-7.75,0.97-11.61,0.39c-12.93-2.42-25.88-4.79-38.92-6.5  c-40.76-5.34-77.15-5.96-117.93-6.47c-3.9-0.05-7.69-1.07-11.4-2.2l-1.86-7.07c-1-42.57,0.35-85.16,4.06-127.75l14.41-198.18  c2.77-49.25-1.76-98.77-13.64-146.65c-22.86-76.66-36.04-156.08-27.61-236.11l22.2-191.37c5.38-61.06,4.78-122.6-2.61-183.46  l-20.38-159.55c-6.13-59.56,0.71-120.24,17.75-177.55c0.42-1.43,1.25-2.75,2.12-4.08c0.88-1.35,1.92-2.6,3.01-3.82H318.75z" />
<path class="cls-1" d="M206.25,0c-19.21,63.3-27.72,127.61-19.15,194.24l18.52,144.04c9.61,74.76,9.03,147.58,0.12,222.36  l-17.81,149.42c-9.19,77.15-0.15,151.31,21.25,225.78c16.81,58.5,22.73,116.24,18.27,177.02l-11.71,159.47  c-4.05,55.08-7.64,109.04-6.92,163.28c-2.84,1.43-5.79,2.84-8.97,3.23c-39.47,4.93-78.42,10.23-117.18,19.17l-4.86-0.69  c-2.51-4.22-2.63-9.33-0.37-15.34c4.26-15.4,8.06-30.9,11.41-46.49l3.23-3.95c-3.99-1.4-1.27-7.98,1.89-9.56l4.5-1.49  c22.01-0.03,44.06-0.47,66.13-1.59c6.16-0.31,17.03-4.45,22.01-8.32l11.79-109.89c-43.36,8.78-92.69,12.36-135.71,0.11  c-1.11-0.32-2.13-1-3.15-1.75c-1.05-0.77-1.99-1.69-2.89-2.66c-3.67-0.48-3.48-2.1-0.56-4.28l8.07-0.79  c44.51,10.34,91.14,9.68,135.49-1.18c0.24-0.06,1.01-4.68,0.8-4.94c-44.82,9.02-95.56,12.04-139.78-1.87  c-1.09-0.34-2.08-1.05-3.07-1.82c-1.02-0.79-1.92-1.73-2.79-2.72c-4.01,0.09-4.33-2.88-1.21-5.35l7.43-0.51  c47.64,15.28,92.72,9.95,140.68,1.86c0.84-0.14,1.92-16.23,0.6-16.07c-45.49,8.57-98.16,11.48-143.41,0.14  c-1.33-0.33-2.57-0.99-3.81-1.72c-1.28-0.75-2.45-1.67-3.6-2.64c-7.74-1.28-2.8-10.71,3.7-10.33c1.72-4.09,4.04-2.92,5.12,0.98  l2.01-2.32c15.77-4.11,31.87-6.38,48.3-6.8l3.07-69.65l2.75-1.47l1.73-2.92c16.01-1.02,32.93,0.3,47.34,8.36  c-8.44-4.53-17.31-8.03-26.61-10.5c0.66-5.91,0.9-11.77,0.72-17.56c-1.46-2.09-5.17-11.67-3.65-13.16c0.75-0.73,1.61-1.19,2.67-1.34  l-2.28-1.89l1.37-17.21c-0.03-9.37-4.57-17.31-13.64-23.79l0.58-1.88c1.89-2.31,5.02-3.51,9.39-3.62  c7.25-3.23,14.43-4.99,21.53-5.27c1.37,5.27,2.15,10.86,2.32,16.77c3.06,12.27,20.07,12.47,24.3,0.78  c1.98-5.47,2.3-43.63,0.82-49.61c-4.4-17.78-30.8-9.95-26.25,8.74l-2.62,1.64l-2.86,2.77c-9.93,0.32-19.71,2.45-28.94,6.2  c-2.66,0.63-4.04-0.8-5.07-3.17l2.04-99.56l2.71-1.55l-2.66-1c2.49-112.12,5.01-224.05,7.55-335.77l3.03-1.78l-2.67-5.17  c0.75-25.54,1.78-51,3.1-76.39c0.84-33.94-2.84-53.82-23.4-82.03c-7.24-9.94-23.32-31.93-32.17-38.4  c-2.41-1.76-6.61,23.59-5.53,27.31l-2.63,3.21l-1.71,14.19c-6.3,9.69-10.99,8.21-14.38-2.75c-5.31-17.15,0.26-41.76,8.6-56.91  c-13.18-10.67-26.58-21.14-40.19-31.43l-2.58-4.73c-0.85,0.72-1.82,1.24-2.95,1.27C12.43,326.81-0.17,314.96,0,312.05v-22.77  c1.74,0.13,3.47,0.32,5.15,0.7c1.68,0.38,3.31,0.76,4.72,1.54c47.8,26.24,95.25,59.74,132.04,99.42  c1.16,2.47,20.27,30.91,21.57,27.64c2.86-7.17-0.9-32.51-2.92-40.88c-3.43-14.24-9.29-28-18.54-39.41l-0.34-4.48  c-5.6-0.96-7.81-3.22-6.62-6.78l-2.05-4.45c0.83-11.67,1.64-24.14,0.9-35.83c-0.11-1.66-22.88,18.75-24.46,22.15l-5.14,2.03  c-6.06,5.3-19.49-2.99-10.72-10.18c2.63-5.96,5.89-11.53,9.77-16.72l-1.85-2.29l33.11-66.95l2.36-140.31l2.74-3.53  c-4.6,0.15-2.92-5.26-0.1-7.56l-1.81-3.72c-0.7-17.08-0.94-35.02,0.27-52.22c0.19-2.66,1.36-5.12,2.56-7.46H206.25z" />
<path class="cls-13" d="M1200,234.8v265.02l-2.13,4.06c-40.27,19.26-93.23,22.95-128.55-8.39c-22.81,48.65-91.46,64.41-135.85,38.26  c-10.82,16.27-32.79,23.49-52.02,23.12c-3.05,27.91-29.16,43.62-55.82,38.9c-5.57,21.04-27.63,29.4-47.46,23.44l-2.23,17.12  l-3.3,2.42l-1.67,2.58c-6.47-0.39-12.95-0.77-19.43-1.16l-1.72-2.79c-3.77,3.66-11.84,3.91-15.88,0.58  c-11.19-0.43-11.62-16.38-10.66-25.12c0.52-4.73,1.7-15.45,6.84-15.59l3.29-4.14c3.78-36.01,36.11-48.71,67.15-30.67  c5.22-14.7-3.55-27.46-13.63-37.62C747.77,465.6,829.94,420.1,874.48,464c-53.94-93.53,76.83-139.85,119.98-54.54  c4.77-46.31,38.67-79.38,86.51-70.87c-52.35-79.45,41.76-151.12,116.75-108.03L1200,234.8z" />
<path class="cls-16" d="M465.86,1263.88c1.24-0.65,2.49-1.24,3.8-1.65c7.38-2.33,49.52,2.06,56.13,5.94c1.19,0.7,2.28,1.57,3.35,2.48  c1.54-0.39,3.09-0.72,4.65-0.87c1.55-0.15,3.06-0.28,4.48,0c22.88,4.5,46.32,9.41,68.65,16.1c1.39,0.42,2.67,1.24,3.96,2.11  c1.31,0.88,2.51,1.92,3.68,3.01l1.7-2.27c89.97,28.14,179.85,56.56,269.63,85.25l0.88,2.74c0.79,1.34,1.52,2.69,2.08,4.12  c0.55,1.39,1.03,2.78,1.18,4.19c4.47,43.67,4.25,107.59-5.94,150.03c-0.71,2.94-2.59,5.44-4.38,7.81h-34.79l-2.48-1.6l9.54-68.31  c-3.75,20.38-8.05,40.55-12.89,60.51c-5.77,12.68-11.95,9.17-17.25-1.46c-10.23-30.69-19.26-61.85-27.11-93.48  c5.84,28.81,12.15,57.48,18.92,86l-0.54,4.98l-0.6,1.68c-18.19-4.24-36.5-9.32-54.95-15.24l-3.63-3.86l-4.01-4.64  c-16.07-33.34-32.71-66.41-49.91-99.21c7.79,31.69,21.52,61.44,36.24,90.42c0,0,0.14,2.25,0.41,6.75l-1.72,2.25l-240.97-78.49  c-35.38-9.57-69.53-17.41-105.14-25.57c-4.79-1.1-9.3-3.1-13.7-5.24c-0.59-4.75-4.08-9.57-3.01-14.77l3-2.78  c13.27-0.57,27.24-2.08,38.64-9.42l12.5-107.36l2.85-1.3c0.31-1.03,0.79-2.56,1.62-2.63c5.3-0.45,28.74,0.01,33.32,1.05  L465.86,1263.88z" />
<path class="cls-16" d="M685.53,1157.3l27.03-1.89c157.11,6.11,317.77,17.65,470.53,56.95c2.92,0.75,5.74,1.88,8.57,3.05  c2.84,1.18,5.6,2.54,8.34,3.96v114.75c-8.34-1.35-16.67-2.87-24.77-5.32c-124.95-37.75-249.85-75.3-378.02-101.1l-7.45,0.4  c52.21,34.85,108.1,63.61,164.88,90.09c3.67,1.84,6.73,4.69,9.71,7.48c0.34,1.22,0.63,2.43,0.73,3.67  c0.49,5.92-10.75,36.04-15.03,40.05c-0.91,0.85-1.95,1.56-3.02,2.23l-1.68,2.27c-16.92-5.43-33.84-10.87-50.77-16.3l-1.5-3.29  c-2.41-1.25-3.93-4-4.57-8.22c0.18,2.25,0.09,3.53-2.47,4.28l-1.78,2.21l-194.2-69.4c-25.12-7.86-50.52-14.56-76.21-20.1l-4.3-2.51  c-5.49-4.7-7.06-17-3.11-23.13l3.56-2.62c5.8-0.03,25.12-2.23,28.08-6.24l8.28-68.57l2.85-1.25c-2.4-1.1-1.95-2.17,0.49-2.94  c-3.19-2.53-2.91-4.82,0.84-6.43c-2.87-1.37-2.36-1.92,0.44-2.94c-3.83-2.03-3-11.41,1.54-12.03l4.43-0.29  c8.67,6.81,17.6,13.22,26.78,19.23L685.53,1157.3z" />
<path class="cls-14" d="M1200,499.82v231.43l-3.27,1.11c-2.27-3.65-3.3-8.08-3.06-13.29c-3.49,10.83-6.9,13.16-10.22,7.01l6.48-22.76  c-3.53,2.47-6.82,2.64-9.88,0.5c1.1-10.5,4.26-20.69,9.48-30.59c-4.64,3.74-8.92,5.42-12.65-0.55c-8.54,6.65-8.2-1.42-7.21-8.53  l3.97-15.97c-7.25,3.96-8.42-1.3-7.31-7.49c-2.32-0.41-4.21-1.37-5.67-2.88l-5.46-30.01c-4.69,20.4-7.04,30.61-7.04,30.61  c-3.77,6.8-7.86,1.66-9.91-3.96c-1.07,9.13,1.13,18.16,3.34,26.98c0.46,6.75-3.42,7.6-8.63,4.68c0.86,7.65-3.38,10.71-10.51,7.72  c4.84,7.69,7.13,15.67,6.87,23.97c-2.8,3.57-2.44,8.03,1.09,13.38c-0.52,3.71-1.03,5.48-4.96,3.56c-3.46-3.65-7.19-6.91-11.19-9.78  c0.96,5.4,1.4,10.3-3.28,14.07c4.23,3.76,5.3,6.83,3.22,9.22l-1.06,2.91c-16.29,2.95-32.58,5.91-48.88,8.88l-2.41-2.28l-2.27-1.84  l3.2-11.38c-15.97,3.34-17.24-3.23-3.81-19.71c3.37-4.93,3.31-6.85-0.17-5.77c-6.94-2.39-7.76-8.55-2.44-18.48  c-0.88-11.19-2.96-13.19-6.24-5.98c-5.04,3.02-8.7-0.61-6.67-5.84c-2.23-0.11-4.09-0.95-5.57-2.52c-0.87-8.21,1.46-16.32,6.99-24.32  c-7.26,4.79-10.44,1.98-10.94-6.04c-5.72,4.46-7.48,0.95-7.54-5.08c1.54-10.14,2.44-20.3,2.69-30.48  c-6.42,16.94-11.19,8.45-12.27-5.16l-6.11-19.86l-5.69,27.94c-1.22,3.41-3.44,3.47-6.67,2.31c1,5.73,0.45,10.66-1.64,14.77  c-1.71,0.38-3.39-0.07-5.04-1.34l2.92,24.6c-3.99,3.12-7.82,0.22-11.47-8.7c1.3,7.38,0.92,14.04-1.14,20  c-2.45,0.81-4.92,0.43-7.41-1.14c3.5,5.89,10.33,22.3,7.5,28.38c-2.17,4.66-14.05,1.16-13.72-4.27c-2.37,0.16-3.55,0.24-3.55,0.24  c-4.08,5.24-9.64,3.43-10.96-3.02c0,0-1.78-0.28-5.34-0.84c-0.65-9.34-0.4-18.79,0.75-28.35c-2.18,4.33-6.38,6.24-8.51,1.31  c-0.13-11.17-0.99-23.46-4.79-34.05c-0.22-0.62-4.56,11.49-2.22,12.23c-0.21,4.78-3.57,8.87-8.57,8.85  c1.79,7.15,1.78,13.96-0.01,20.42c-1.38,1.24-3.14,1.27-5.31,0.1l4.76,24.06c-3.91,7.56-8.93-0.13-11.17-5.27l1.47,12.14  c-2.55,3.75-5,3.24-8.13,0.46c3.02,4.65,12.65,23.82,5.97,27.53c-2.49,1.38-5.73-0.46-7.81-2.13l5.42,17.08  c-2.06,3.68-4.44,4.06-7.15,1.25c-0.34,4.73-2.29,7.61-7.18,8.46l9.37,19.09c0.96,7.13-4.9,6.04-10.1,3.84  c1.55,4.22,0.96,6.98-1.77,8.29l-0.78,2.72c-17.16,0.85-34.32,1.7-51.49,2.54l-1.72-2.6l-2.79-5.01  c-0.49-7.82-1.31-25.01,0.47-31.75c0.82-3.08,1.3-4.27,4.51-4.72c5.67,1.75,8.96,0.57,9.85-3.54l-11.56-3.69  c-21.03-12.36-42.03-24.7-63-37.03l-0.03-3.12l-2.66-1.97l0.42-38.65c0,0-0.7-1.32-2.11-3.95c1.91-7.36,2.1-14.9,3.31-23.13  c11.47,3.94,21.12,3.86,31.36-1c8.31-3.95,14-11.43,16.42-22.23c28.59,6.58,53.31-10.61,55.37-38.09  c21.71,0.69,40.98-6.94,53.96-22.8c44.75,25.35,115.5,9.85,135.28-40.58C1103.69,525.72,1160.91,520,1200,499.82z" />
<path class="cls-16" d="M388.67,1450.38l6.27-0.49c45.44,9.37,90.01,22.24,133.7,38.63l144.59,51.27l0.63,3.07H0v-61.61l3.17-2.85  c21.53-8.09,43.93-16.39,66.42-21.81c1.25-0.3,2.6-0.22,3.99-0.1c1.42,0.12,2.82,0.44,4.21,0.82  c43.07-10.15,86.67-19.48,131.02-21.72C269.12,1432.55,329.56,1438.02,388.67,1450.38z" />
<path class="cls-3" d="M66.65,407.14l2.7,0.85c2.08,72.42,3.13,108.63,3.13,108.63l-2.63,1.7l2.94,9.81l8.57,320.56  c0.76,3.09-0.08,5-2.53,5.73c-4.08,2.23-13.55,0.94-18.26-0.48c-3.36-3.9-5.16-3.88-5.4,0.07c1.54,3.09,1.44,5.44-0.29,7.06  c17.82-4.56,25.66-0.42,23.54,12.42c-3.43,5.32-5.08,11.21-4.97,17.67c-24.89,2.87-32.41,27.92-29.58,49.43l-2.23,2.02  c2.78,1.13,3.11,2.1,1.01,2.92c2.92,1.58,2.97,1.95,0.26,3.9c2.88,0.9,2.94,1.99,0.09,2.97l2.94,2.07  c2.41,17.47,4.23,34.74,5.47,51.83c10.8,3.07,21.88,3.47,33.04,3.43l2.56,2.79c3.67,3.08,6.35,14.97,2.79,18.54l3,1.88  c1.09,7.07,2.18,14.15,3.28,21.23l-2.36,2.29l-7.81-0.35c-25.25-9.13-50.74-17.58-76.46-25.36c-3.88-0.89-7.01-3.07-9.47-6.2v-22.77  c0.6-3.32,1.75-4.9,3.47-4.73c2.29-35.71,3.71-71.42,4.25-107.13l1.84-4.47l-2.67-0.97c1.26-96.31,2.53-192.72,3.79-289.22  c0.45-2.68,1.37-5.08,2.77-7.19l-2.64-1.3c0,0,0.77-8.39,2.32-25.18c-2.53-1.67-2.23-9.08,1.52-9.9l2.87,0.64l9.27,43.35  c1.79,4.44,5.87,4.4,6.96-0.28c5.13-22.13-2.29-42.41-12.18-62.06l0.87-4.27c-2.39-7.11-1.46-11.65,2.77-13.61  c-1.49-7.82-4.03-15.24-7.62-22.26c-3.18-3.5-4.22-6.71-3.13-9.63l-2.41-3.61c0.36-50.95,0.9-101.9,1.64-152.85l2.7-1.59  c16.31,9.57,29.96,23.43,44.98,35.46c-8.63,20.67-14.55,43.89-5.65,64.33C65.53,423.6,63.46,413.69,66.65,407.14z" />
<path class="cls-9" d="M1092.86,0l-1.85,5.25c-36.22,32.37-53.18,81.49-37.42,128.41l-0.96,5.53l-5.84-1.08  c-24.51-17.96-54.13-27.16-84.29-29.18l-5.11-2.97c-1.26-1.22-1.97-2.79-2.15-4.72c-7.33-0.59-14.97-1.83-21.19-6.04  c-11.71,3.56-24.63,3.87-35.96-1.21l-12.45,12.71c-11,2.08-37.53,4.95-47.76,0.39c-8.05-3.59-5.02-7.73,1.62-10.59l3.39-3.21  c17.26-7.61,34.53-15.22,51.81-22.83c-20.04,8.07-40.48,14-61.3,17.79l-3.18-1.22l-2.72-1.62l-23.3,2.12  c-29.68,6.01-59.36,11.45-89.04,16.31l-2.48-2.56l-1.7-2.27c21.68-32.62,43.66-65.04,65.95-97.28L780.8,0H1092.86z" />
<path class="cls-16" d="M1200,1461.07v81.79h-159.55l1.19-4.65c15.18-11.41,30.41-22.76,45.68-34.04l-55.57,36.32l-8.53,2.38h-43.24  l0.14-4.14c12.79-24.36,27.09-47.97,42.89-70.81c-17.14,23.14-33.17,47.05-48.07,71.75c0,0-1.8,1.07-5.41,3.21h-24.47  c-1.11-4.02-1.66-6.04-1.66-6.04l11.13-54.42l-16.31,59.6l-3.01,0.85h-45.18c-0.15-1.75-0.24-3.5-0.13-5.24  c0.11-1.73,0.22-3.41,0.76-4.94c15.88-44.65,36.57-93.07,55.75-135.61l3.08-0.42l13.58,1.98c74.57,19.63,149.25,38.85,224.03,57.67  L1200,1461.07z" />
<path class="cls-16" d="M93.74,1056.46l4.39-0.98l17.95,7.98l2.5,3.68c1.04,0.29,2.57,0.73,2.66,1.54c0.32,2.94,0.37,18.33-0.22,20.96  c0.2,1.67-0.71,3.27-2.73,4.8l2.6,2.15l-2.22,23.69c-14.22,4.66-26.44,9.17-37.64,19.54c-19.73,18.26-22.29,35.46-23.72,60.68  c-0.08,1.49-1.05,2.69-2.14,3.67c0.27,2.37-3.42,3.59-4.42,4.63c-1.55,1.62,0.64,4.03,0.71,5.7c4.16,5.22,5.03,12.93,2.1,18.94  c0.28,1.66,0.83,3.82,1.21,5.35c3.68,2.48,4.35,10.16,1.28,13.32c0.34,1.35,0.41,2.9,0.56,4.28l2.94,2.18l12.48,111.82  c0,0,4.23,2.2,12.69,6.6c4.51,0.64,7.58,2.3,9.21,4.98c0.74,3.37-1.54,6.42-1.89,9.56l-4.35,1.93c-27.73,2.92-55.42,6.18-83.05,9.78  L0,1402.23v-377.68C30.84,1035.96,63.23,1043.29,93.74,1056.46z" />
<path class="cls-11" d="M1200,1334.12v75.56l-8.25-0.37c-70.23-17.65-138.81-42.94-205.66-70.86c-2.47-1.03-4.78-2.46-7.1-3.91  c-2.33-1.46-4.55-3.08-6.74-4.76c-0.96-6.04-0.29-12.55,1.99-19.53l-6.34,13.32l-3.55,2.1c-65.13-30.16-129.78-62.62-191.59-105.94  C918.94,1250.63,1060.46,1287.69,1200,1334.12z" />
<path class="cls-13" d="M1092.86,0H1200v137.1l-4.02,2.49c-42.7-1.43-78.54,28.39-91.04,68.31c-3.49,5.59-4.47,6.29-7.96-0.03  c-10.06-23.61-22.91-46.65-42.5-63.7l-1.84-4.99C1033.72,86.48,1051.25,36.21,1092.86,0z" />
<path class="cls-5" d="M1200,911.88v228.72c-0.19,1.04-0.67,2.6-1.41,2.59c-18.21-0.46-39.49-2.09-57.66-4.06  c-5.57,0.57-9.05-0.57-10.46-3.42l-2.68-0.94c0.06-63.32,0.12-126.66,0.19-190l2.68-1.65l1.25-2.79l10.46-0.19l-37.59-49.63  l1.18-2.88c-3.07-6.27,5.33-13.18,10.59-7.05c-3.21-7.35-5.19-14.8-5.94-22.35c1.66-4.55,5.37-4.4,11.14,0.44l-2.38-8.72  c-9.52-19.56-8.52-26.49,2.99-20.78c0.31-4.52,0.66-8.55,6.05-8.59l-1.16-21.85c0.93-1.76,2.43-2.15,4.31-1.69  c-1.25-7.15,2.37-14.04,7.87-5.69l6.94-34.31c1.84-1.52,3.71-0.94,5.6,0.4l8.48,31.98c2.53-6.09,5.43-7.57,8.68-4.42  c1.28,11.33,0.74,22.75-1.61,34.27c5.29-3.48,6.17,1.11,6.45,6.02c4.89-4.05,7.65-1.29,6.53,4.83c-2.57,5.02-4.38,10.07-5.44,15.14  c3.73,3.21,4.94,6.65,3.62,10.32c3.64-6.07,7.08-7.6,10.31-4.59c0.57,7.83,0.02,15.61-1.65,23.34c2.13,1.13,4.44,2.5,6.92,4.1  c-0.02,6.32-1.94,12.37-5.76,18.15c5.97,0.77,9.25,3.31,9.85,7.62C1197.61,907.84,1198.15,910.4,1200,911.88z" />
<path class="cls-11" d="M968.21,1132.8l0.1-1.79c20.12-1.06,40.6-1.35,61.43-0.88l1.57,2.68l1.32-2.64c32.09,0.94,64.2,1.88,96.31,2.81  l1.53,2.72l69.53,4.9v78.76c-169.55-43.61-340.68-57.48-514.47-62.07c-0.05-1.05,0.02-2.66,0.75-2.84  c3.86-0.99,30.2-5.49,31.77-4.44c0.52,0.35,0.88,0.94,1.18,1.61l0.56-2.77c18.88-2.47,37.76-4.93,56.64-7.4l1.93,2.45  c0.02-1.06,0.27-2.68,1-2.77c23.17-2.78,50.44-5.35,73.71-6.19c4.81-1.32,7.9-0.69,9.29,1.91l0.82-2.71c0,0,34.43-1.32,103.3-3.96  L968.21,1132.8z" />
<path class="cls-11" d="M736.63,1505.41c0.99-0.36,2.52-0.77,2.94-0.13c4.06,6.32,15.44,27.96,17.52,34.62l-1.51,2.95h-81.72  l-140.38-49.78c-47.81-16.95-95.75-32.44-144.82-42.7c-4.14-17.47-11.37-34.21-13.57-52.02c49.77,8.81,98.7,20.98,147.52,36.97  L736.63,1505.41z" />
<path class="cls-7" d="M1200,731.25v180.63c-4.37,0.92-4.8,7.26-10.82,6.64c3.64-3.56,7.09-7.6,7.65-11.99  c0.7-5.52-5.99-6.83-12.37-7.65c2.75-6.25,6.84-11.78,7.74-19.45c-2.19-1.63-5.09-0.79-7.94-1.61c0.87-9.02,3.37-17.81,2.2-27.45  l-13.78,16.84c-3.81-7.28,7.42-12.04,2.95-17.42c-8.72-5.38,2.64-15.08,2.87-23.64c0.39-3.17-5,4.91-6.3,2.5  c-0.83-1.54-1.05-3.59-1.52-9.32c-13.88,22.79,1.33-23.43-4.56-34.67l-6.22,13.02l-10.8-40.71l-8.27,41.19  c-3.89-2.17-3.42-6.75-6.12-9.02c-1.88,5.18,2.42,17.2-5,9.15l2.03,31.83c-2.9-1.35-2.26-6.42-5.22-7.34  c-1.91,3.44-0.73,7.95-2.64,9.59c-1.78,1.53-5.22-3.34-9.52-3.29c3.32,11.09,9.6,21.1,10.6,33.26c-4.49,0.39-6.93-3.55-11.43-5.68  c-1.84,10.25,6.29,17.93,6.05,27.54c-5.43,0.71-6.54-5.51-8.87-3.36c-2.05,1.89-3.78,4.72-4.73,6.81l-4.24-1.11l-15.36-18.49  l-0.29-4.42c-0.69-2.9,1.67-5.1,7.09-6.62c-4.5-6.57-4.07-14.28,1.3-23.13c-6.9,3.35-13.9,6.19-21,8.52c0,0-0.88-0.97-2.65-2.91  c2.96-6.89,7.01-13.55,12.14-19.98c0.48-4.04,0.37-8.23-0.33-12.56c9.44-12.85,8.41-17.16-3.11-12.94  c-7.17-0.85-2.26-16.58,3.65-15.79l2.66-1.54l12.2,7.18l-5.77-9.8c-3.18-5.58-2.31-11.26,2.6-17.03  c-1.89-11.46-0.15-15.41,11.67-8.56c-5.97-9.22-8.52-17.08,5.25-16.3l2.42-3.93c-1.75-4.5-5.8-6.58-7.12-11.13  c8.68-1.57,3.48-9.97,4.39-16.98c7.07,2.7,11.23,9.18,17.16,13.75l-7.25-17.5c1.02,0.37,1.23,2.24,4.9,2.56  c3.21-10.44-6.02-19.88-8.64-30.72c3.86,0.12,5.78,3.12,7.65,3.73c3.51,1.15,5.27-0.16,5.01-3.09c-0.28-3.16,0.41-5.2,0.49-9.65  c2.22,2.68,3.82,6.89,8.89,5.59c-3.61-14.12-6.78-26.87-1.97-39.02c3.46,6.07,3.06,10.6,7.48,14.6c2.3-16.6,6.49-30.91,10.5-45.32  l7.33,42.13c3.52,1.48,6.16-3.9,6.75-7.68l-1.24,18.07c5.41-1.83,6.49-6.46,8-10.18c2.3,12.62-5.58,22.57-4.85,35.96  c5.27-1.75,4.09-8.18,7.52-10.99c1.7,3.68-0.56,7.53,1.37,10.87c2.37,4.11,11.32-7.14,14.85-5.86  c-5.41,10.92-10.56,22.33-13.63,35.6c5.36,0.94,7.5-5.17,12.77-6.17l-8.97,31.51c4.71-3.59,3.83-10.83,8.33-13.49  C1199.73,719.81,1193.76,728.97,1200,731.25z" />
<path class="cls-9" d="M478.13,0l2.69,1.22c0.2,30.26,0.39,60.54,0.59,90.82l-2.67,1.62c-3.7,4.06-4.12,5.87-1.26,5.45l1.27,2.69  c2.65,0.3,2.55,1.62,0.01,2.65c-0.6,0.87-1.24,1.69-2.01,2.38c-6.51,5.89-53.97,6.9-65.59,6.68l-5.15-2.52l-3.45-4.88l-3.83-23.92  l-2.24,2.09c-0.87,1.72-2.4,3.04-4.59,3.94c-5.56,11.33-16.26,11.32-27.2,8.73c-4.51,4.49-8.06,7.19-13.58,2.02  c3.83,9.65,1.19,11.99-8.51,9.12c-6.31-1.87-19.68-10.88-21.89-16.87c-0.84-30.37-3.13-60.88-1.97-91.23H478.13z" />
<path class="cls-3" d="M573.22,0c1.18,3.42,2.34,6.94,2.44,10.58c0.64,22.75,1.12,45.75,1.29,68.51c0.01,1.76-0.34,3.52-0.74,5.3  c-0.4,1.81-1,3.57-1.64,5.33l1.87,3.63c0.69,26.71,1.57,53.48,2.64,80.32l-1.92,7.47c-0.66,1.18-1.36,2.33-2.2,3.37  c-0.81,1.01-1.63,1.97-2.64,2.62c-21.35,13.84-42.99,27.4-65.16,39.9c0,0-2.57,0.32-7.7,0.97c-2.78-4.96-3.6-10.62-2.45-16.96  c3.91-34.47,6.65-68.88,8.21-103.23l-2.2-25.69c-5.59-25.55-9.38-51.4-11.39-77.53L494.2,0H573.22z" />
<path class="cls-9" d="M775.45,0c0.46,0.46,0.86,0.93,1.08,1.48c1.08,2.8-34.34,41.81-38.68,45.67c-1.03,1.82-2.29,1.62-4.29,0.84  c-18.03,17.47-36.65,34.61-55.71,51.01c-0.91,0.78-2.07,1.27-3.28,1.75c-1.24,0.49-2.55,0.8-3.88,1.07  c-10.83-8.81-27.45-10.32-40.78-7.4c-15.14,7.72-16.58-10.57-13.28-21.67c-4.78-0.89-9.77-0.03-14.98,2.59  c-4.26,1.12-8.55,0.38-12.9-2.2l-4.86,8.34c-1.79,9.81-4.9,12.55-9.32,8.23c-0.78-29.87-2.3-59.86-1.35-89.71H775.45z" />
<path class="cls-3" d="M58.93,0l2.71,1.18c0.86,36.23,1.68,72.49,2.47,108.76l-2.58,2.55c0.94,3.5,0.17,7.44-2.33,11.83  c-0.58,5.79-2.48,9.85-5.7,12.19c-1.76,19.64-3.56,39.34-5.37,59.08c-0.03,15.29,4.41,23.56,10.38,2.78l2.94-1.52  c1.06,0.08,2.67,0.42,2.71,1.16c1.72,29.82,2.66,62.34,2.68,92.22l-2.63,1.68c-1.22,0.18-2.43,0.31-3.64,0.25  c-6.13-0.32-32.15-15.92-39.29-20.61l-4.26-5.36l-2.21-4.97c-0.17-27.56-3.89-54.96-11.14-82.2l1.85-5.09l1.93-1.2  c4.47,1.71,7.71,5.85,9.72,12.42c2.82-7.63,2.47-16.08-1.04-25.34l2.46-2.96c-1.85-7.46-2.78-11.19-2.78-11.19  c0.59-46.68,0.65-93.32,0.18-139.93L17.41,0H58.93z" />
<path class="cls-16" d="M1200,1409.68v36.8l-11.58-1.11c-70.71-17.34-140.69-37.42-209.93-60.21c0,0-7.02-3.19-21.07-9.57  c-0.48-0.94-0.91-1.9-1.16-2.9c-1.18-4.69,8.99-32.37,11.88-38.95l4.11-3.97C1046.47,1360.97,1122.13,1389.01,1200,1409.68z" />
<path class="cls-9" d="M140.63,0c0.61,21.08-1.3,42.37-1.02,63.4c-0.72,4.91-11.96,13.45-14.92,7.97c-2.92,1.91-3.59,1.58-3.83-1.89  c-4.31-0.96-6.52,0.58-10.12,3.28c-4.29,3.22-8.2,6.93-12.07,10.66c-7.3,9.08-15.59,16.43-24.87,22.06  c-0.63,4.49-8.48,10.43-12.27,7L58.93,0H140.63z" />
<path class="cls-11" d="M92.05,1391.54c-2.54,22.58-12.55,43.84-14.26,65.78c-26.44,6.23-51.85,16.01-77.79,23.93v-79.02  C30.5,1396.95,61.07,1392.37,92.05,1391.54z" />
<path class="cls-1" d="M494.2,0c0.86,54.05,17.4,73.64,13.04,132.55c-2.39,32.37-8.45,64.04-7.78,95.43l-0.94,3.52l-15.08,9.39  l-3.62-0.93l-2.69-0.9c-0.35-44.32-0.69-88.64-1.04-132.97l2.67-1.64c-0.01-0.87-0.1-1.78-0.01-2.65c-3.64-1.47-3.74-6.65-0.01-8.13  L478.13,0H494.2z" />
<path class="cls-11" d="M1200,1446.48v14.58c-84.15-18.92-167.54-40.88-250.49-64.4l-1.83-2.54l6.77-17.72l2.96-0.82  C1037.61,1401.46,1118.28,1425.87,1200,1446.48z" />
<path class="cls-11" d="M141.68,333.82c20.16,22.01,28.59,60.5,23.72,90.68c-16.48-11.83-20.54-28.91-33.45-41.07  C92.53,346.29,47.37,314.09,0,289.29v-9.38l5.99,0.76c39.18,25.68,82.74,48.24,130.4,50.41L141.68,333.82z" />
<path class="cls-3" d="M972.25,1329.78c-4.83,15.31-11.37,30.18-14.83,45.82c-1.28,5.77-5.51,15.42-7.9,21.07l-30.75,72.68  c-10.48,24.77-20.52,48.63-28.72,73.51H879.7c12.04-53.98,11.04-111.06,7.06-166.15l-2.82-2.82l-0.18-20.35l2.28-3.19  c-0.61-3.66-0.17-8.32,2.1-12.5c2.21,5.19,5.05,11.28,4.94,16.45l2.7,2.88l2.52,20.48l-2.44,3.18l2.02,4.18  c3.67,29.95,3.37,60.6,2.54,90.85c13.65-25.28,25.43-51.73,35.34-79.36l3.1-3.67c-1.98-3.13-1.47-7.23,1.51-12.3  c1.05-5.36,3.26-8.33,6.65-8.93c7.08-14.78,12.5-30.29,17.33-45.95c3.12-10.12,9.75-20.15,15.07-30.56  C978.23,1307.25,975.63,1319.05,972.25,1329.78z" />
<path class="cls-7" d="M13.46,588.07l-3.9,297.38c-1.13,3.91-9.27,2.48-9.56-1.52V561.16c1.05-4.4,10.72-3.1,13.18-0.25L10,586.13  C10.71,586.81,11.87,587.46,13.46,588.07z" />
<path class="cls-16" d="M17.02,266.17c15.79,8.38,30.97,18.18,47.19,25.72c3.08-1.5,11.14,2.47,12.17,5.67  c2.72-1.27,6.85,0.51,6.53,3.88c1.46-1.41,3.35-1.98,5.67-1.69l4.89-9.47c2.92-5.2,6.22-7.28,9.88-6.24  c-3.3,6.64-4.23,15.48-11.15,21.52c3.48,4.72,8.21,4.22,12.1,5.38c1.66-0.34,3.41-0.52,5.02,0.09c4.8,1.8,18.46,8.92,22.88,11.8  c1.46,0.95,2.21,2.66,2.85,4.21c2.14,2.1,4.56,4.54,6.62,6.78C91.36,333.89,41.84,308.02,0,279.91v-22.77  c1.67-3.39,14.25,3.73,15.91,5.41L17.02,266.17z" />
<path class="cls-9" d="M17.41,0c3.56,52.19,0.43,104.53,1.17,156.82c-6.24,0.14-15.82-6.65-18.58-12.17V0H17.41z" />
<path class="cls-12" d="M16.4,325.52l-1.92,158.05C8.45,485.48,1.44,477.23,0,471.43V312.05C6.4,314.97,10.67,322.16,16.4,325.52z" />
<path class="cls-3" d="M844.91,1542.86h-27.73c-3.48-0.84-7.77-11.28-4.08-13.36c-9.53-36.18-19.13-73.07-24.18-111.41  c12.97,16.72,28.97,119.7,42.24,121.3c10.5,1.27,13.69-73.8,26.49-87.72L844.91,1542.86z" />
<path class="cls-3" d="M753.91,1512.09l4.13,2.95c3.77,8.29,7.48,16.61,11.12,24.98l-1.68,2.84h-11.91l-18.95-37.45  c-17.71-35.01-35.92-72.23-42.21-112.24C717.34,1433.75,736.54,1472.7,753.91,1512.09z" />
<path class="cls-1" d="M22.46,529.07c10.3,20.62,19.26,41.46,14.42,64.98c-0.86,4.18-2.64,7.69-6.72,7.55  c-3.72-0.13-5.81-3.7-6.62-7.56l-8.87-42.33c-2.54-2.7-4.11-6.62-4.72-11.75c-4.32-7.88-7.64-15.99-9.94-24.32v-17.41  c3.1-1.33,6.03-0.02,8.8,3.92C16.73,510.04,21.28,519.02,22.46,529.07z" />
<path class="cls-1" d="M780.8,0l-68.12,101.27c-2.65,6.06-20.78,6.66-17.08-2.83c8.95-12.01,17.26-24.44,24.94-37.31L733.56,48  l41.89-48H780.8z" />
<path class="cls-10" d="M5.52,173.9c5,30.91,15.27,60.37,11.49,92.27L0,257.14v-92.41C4.51,162.03,10.35,171.8,5.52,173.9z" />
<path class="cls-11" d="M813.09,1529.5c1.17,4.45,3.89,8.6,4.08,13.36h-49.69l-13.57-30.77L813.09,1529.5z" />
<path class="cls-16" d="M9.56,885.45c-0.49,37.38,0.59,75-3.85,112.65L0,1001.79V883.93L9.56,885.45z" />
<path class="cls-3" d="M979.98,1542.86h-10.44c21.9-31.88,39.74-68.11,69.38-96.17C1020,1480.68,996.95,1509.75,979.98,1542.86z" />
<path class="cls-3" d="M945.07,1542.86h-9.85l25.83-94.39C959.84,1482.56,950.18,1512.27,945.07,1542.86z" />
<path class="cls-3" d="M1040.45,1542.86h-17.23l81.79-53.46C1087.52,1512.83,1060.73,1524.11,1040.45,1542.86z" />
<path class="cls-12" d="M14.67,551.69l-1.21,36.38c-3.89,1.46-3.28,6.3-7.99,8.66c2.75-12.33,2.46-23.4,6.51-35.26L0,561.16v-45.54  C6.36,526.7,15.1,538.75,14.67,551.69z" />
<path class="cls-11" d="M18.59,156.82c0.15,10.5,9,22.65-2.01,33.11c-3.75-5.84-4.86-14.44-11.05-16.03c-0.57-3.52-2.68-7.16-5.52-9.17  v-20.09C6.65,147.7,12.89,152.23,18.59,156.82z" />
<path class="cls-11" d="M25.22,515.46l-2.77,13.61c-5.7-11.41-12.1-24.25-22.45-30.85v-14.73c1.34-0.42,2.85-0.85,4.12-0.29  C11.43,486.43,24.82,506.68,25.22,515.46z" />
<path class="cls-15" d="M14.47,483.57c6.85,9.4,13.07,20.48,10.75,31.89C18.29,503.61,11.4,491.32,0,483.48v-12.05  C4.68,475.46,9.52,480.38,14.47,483.57z" />
<path class="cls-1" d="M839.49,96.47l-7.97,5.81c-53.94,16.46-108.11,32.18-162.51,47.16l-63.59,55.74l-6.69,3.82l-1.63,3.16  c-4.06,1.13-18.78,7.98-20.14,10.84c-2.15,4.5,53.7,3.2,57.88-2.42l73.83-24.14c2.91-1.32,5.09-1.1,6.55,0.67l0.2-2.83l107.38-28.96  c4.06,3.15,3.57,4.84-2.42,7.26c-68.7,31.27-141.33,52.28-214.35,70.67c-2,0.5-4.11,0.57-6.25,0.64c-2.15,0.07-4.31-0.06-6.47-0.24  c-0.98,2.97-5.11,4.7-8.04,4.12c-0.24,1.21-0.7,1.25-1.36,0.18c-2.43,1.18-4.21,1.08-5.33-0.3l-1.5,0.4l-2.99,3.55  c-21.36,3.18-41.41,9.2-60.16,18.05l-12.38,8.78c12.76,79.62,8.65,160.93-3.26,240.15l-0.24,23.45  c4.55,45.35,10.46,90.64,17.73,135.87c6.01,44.03,3.58,87.56-4.61,131.12c-9.99,61.54,1.98,120.49,17.24,179.26  c8.53,38.19,11.79,77.66,10,117.11c-3.68,50.23-5.9,100.62-6.65,151.17c-0.17,4.79-1.34,9.47-2.61,14.07  c-20.75-4.25-42.21-6.1-63.28-6.76c-4.12-1.23-2.73-13.59,1.4-14.38l-1.25-5.7c4.18-67.94,6.02-135.04,5.53-201.31l2.69-1.58  l-2.65-2.06l1.21-92.86l-17.34-0.1l-2.51-2.62c0.89,3.5-13.2,2.56-14.3,2c-3.67-1.86-6.27-9.99-0.85-10.14l5.05-2.75l30.32-0.44  c0.63-10.87,0.76-21.75,0.41-32.65l2.75-5.72c-1.11-3.93-2.22-7.94-2.22-12.05c-0.01-13.9,0.19-27.98,0.65-41.86  c0.07-2,0.48-3.99,0.94-5.98c0.47-2.02,1.13-4.01,1.84-5.98l-2.67-0.93c0.14-15.72,0.28-31.44,0.42-47.17l2.69-1.55l-2.6-4.72  c2.73-35.98,4.08-66.95-7.82-101.67c-7.83-22.84-20.67-43.16-36.14-61.5c-20.99-22.81-40.42-46.92-58.28-72.32  c-1.6-3.14-0.03-4.15,4.74-3.04c8.09,7.68,16.46,15.09,25.09,22.25l0.01,3.94c1.34,0.48,2.65,1.01,3.88,1.69  c1.19,0.66,2.32,1.34,3.23,2.25c25.5,25.57,50.04,51.91,74.58,78.37c0.85,0.92,1.75,1.41,1.79,1.31  c3.74-10.94-0.46-27.97-7.64-36.87l0.32-3.79c-1.26-0.23-1.37-0.73-0.34-1.48l-2.69-3.97c4.66-21.53-3.55-41.65-19.21-56.71  l-43.05-31.3l0.3-3.1c0.84-4.98,4.75-2.49,8.09-0.28c4.71,4.19,9.89,7.06,15.54,8.61c1.87-1.89,3.18-1.45,5.15-0.26  c-2.22-3.78-2.51-6.86-0.9-9.24c-0.65-4.3,4.9-6.37,7.78-2.86l3.64,2.62c4.93,12.03,13.01,26.73,22.37,35.86  c0.88-21.87,1.53-43.85,1.96-65.93l1.81-4.55c-3.99,0.51-3.79-7.17,0.06-7.85c-2.66-1.36-2.83-5.53-0.03-6.84l-2.42-1.72  c-4.28-42.26-25.51-84.83-46.31-121.65l-33.27,29.07c-35.64,29.49-61.59,67.32-64.81,114.69l-3.19,5.19  c4.02,2.12,2.9,14.82-1.35,16.02c-4.57,12.47-6.61,40.73-26.22,38.96c-7.21-0.65-12.89-6.87-16.3-14.96  c-13.9-32.86-1.93-67.7,12.9-98.91c-0.26-2.48,1.2-4.52,4.37-6.12l3.1-3.28c16.51-28.05,38.44-53.47,64.36-73.69  c50.49-39.38,104.97-72.37,159.74-105.06c39.3-24.82,76.88-52.89,108.15-87.47l7.54-4.52l4.99-2.74  c28.3-6.56,56.39-14.02,84.27-22.4c17.14-6.28,34.61-11.34,52.4-15.18c-0.1-1.08-0.22-2.67,0.53-3.05  c8.3-4.2,30.41-12.46,39.39-14.6l2.75,1.78c31.18-5.58,59.56-19.5,92.55-27.85C896.16,73.99,867.69,85.68,839.49,96.47z" />
<path class="cls-14" d="M386.97,489.91c0.8-0.72,1.98-1.79,2.73-1.43c4.6,2.2,12.19,7.57,16.58,10.67c5.17,2.16,7.79,4.9,7.85,8.24  l43.46,31.57c9.75,7.09,16.13,20.89,20.65,32.11c4.03,9.99-0.01,21.64,0.55,31.39c-1.23,2.07-2.57,2.15-4.23,0.63  c-20.91-17.67-43-33.17-66.29-46.5l-3.63,0.59c3.3,2.18,2.17,4.19-1.67,3.8c-8.35-9.53-20.93-16.03-29-26.78  c41.59,64.8,86.18,83.5,103.09,161.55c5.77,26.65,1.16,55.23,0.91,82.29c-0.47,0.96-1.07,2.12-2.05,2.28  c-2.18,0.37-21.25-4.08-21.67-7.62c-2.21,1.76-2.73-0.2-3.03-2.54l-1.99,2.18c-21.35-6.82-42.71-13.64-64.07-20.47l-0.71-3.04  c-1.47-1.07-2.05-2.51-0.92-4.02c-11.09,5.81-8.61-6.26-7.03-13.86c-2.46,7.3-11.97,12.59-12.25,2.03  c2.36-7.49,4.22-15.08,5.58-22.76c-2.79,4.07-5.14,4.36-7.91,0.03l0.41-13.78c-1.85,3.11-3.93,2.46-6.68,0.24l-5.19-28.23  c-4.1,13.04-7.32,26.25-7.21,40.09c-1.21,2.53-3.18,2.21-5.63,1.14l-2.5-9.38l-6.87-202.09l1.35-16.02  c1.55-2.53,4.55-2.12,9.01,1.23c4.8-0.59,9.58-2.84,14.33-6.75C363.67,483.18,375.02,487.58,386.97,489.91z" />
<path class="cls-5" d="M384.45,748.84l1.88,2.42c-3.47,5.41-5.42,11.05-5.86,16.9c16.34-15.9,12.01,2.21,7.26,13.12  c3.91-1.51,6.48,1.54,7.7,9.15c6.75,1.23,9.29,3.73,7.63,7.52c-4.24,6.82-8.79,13.43-13.65,19.83l2.95,0.36  c14.36-7.15,10.82,10.54,7.79,19.56c13.46-5.18,13.42,1.16,10.97,11.58c0.47,2.26,1.6,4.33,3.38,6.21  c1.28,9.14-7.71,24.77-12.36,32.64l11.83-4.7l2.53,1.96c6.93,2.28,2.41,14.51-2.96,18.02c5.16,9.65,1.05,15.49-6.48,21.97  c0.71,2.6,3.77,2.65,9.17,0.14c8.71,10.13,5.8,25.84-4.06,34.1l20.64,18.27c-0.64,10.49-4.44,20.43-11.38,29.83  c4.58,1.31,16.76,6.94,13.18,13.04c-0.58,0.98-1.98,1.2-3.18,1.33c-0.48,0.95-1.4,2.31-2.1,2.07c-25.34-8.61-54-19.04-78.61-29.49  c-4.81-0.87-7.65-2.89-8.5-6.05l-7.1-288.29l5.46,9.3c1.09-35.38,6.24-25.62,9.55-57.74l8.31,45.21l6.81-8.87l-0.69,23.23  c4.94-2.37,3.92-8.09,7.88-11.5c1.81,12.62-3.24,23.35-6.25,36.32c7.2,0.96,6.58-7.71,11.34-12.75c4.25,6.99-1.03,13.88,0.41,20.84  c3.52-1.13,5.11-2.38,6.34-3.38c1.87-1.52,6.05-0.97,3.74,2.24C386.88,744.8,385.42,746.43,384.45,748.84z" />
<path class="cls-16" d="M431.44,1022.1l2.84-1.73c5.46,3.24,11.16,5.88,17.08,7.92l1.41,2.91c6.56-0.43,17.72,4.28,21.47,9.7  l-0.83,108.12c-0.26,34.27-2.92,67.29-6.15,100.47l-4.48,2.18l-27.4-0.59l-4.23-2.76c-3.46-1.4-3.74-3.98-0.13-5.49  c-4.02-0.61-3.4-4.22,0.28-5.45c-1.05-0.8-2.18-1.74-2.44-3.03c-0.61-3.01,1.98-17.7,5.15-19.51c-1.73-2.7-3-4.59-6.01-7.35  c3.4-37.02-19.12-73.18-55.79-82.37l-2.77-3.33c-1.15-0.21-2.62-0.82-2.59-1.78c3.31-10.92,1.71-18.22-4.8-21.89l-0.74-2.99  l-2.54-2.22c1.51-13.43-0.06-25.76-4.7-37.01l0.95-3.3l1.53-3.41c8.77-0.59,14.73-3.18,10.82-12.53l-66.39-4.31  c-6.16-4.47-3.23-10.39,3.3-13c2.67-1.07,8.47-1.61,8.92,1.96l29.21-0.01l-0.19-32.65L431.44,1022.1z" />
<path class="cls-16" d="M733.56,48c-13.52,15.49-22.19,36.04-37.16,53.58c6.38,3,10.76-0.13,16.28-0.31  c25.03-0.8,85.53-19.51,117.72-18.46c1.01,0.85-0.12,3.24-0.19,4.2l-42.67,15.87c-37.09,8.89-74.12,17.47-111.08,25.72  c-10.74,3.61-20.93,8.48-30.57,14.6c-38.24,44.66-88.58,79.55-139.69,109.8c-44.81,26.52-87.97,53.59-128.86,85.25  c-27.14,21.01-49.74,44.57-66.83,73.98c-2.95,5.08-7.4,9.02-11.88,11.12c-13.9-16.61,4.18-81.43,27.25-95.55l1.66-3.09  c13.37-8.73,27.33-16.68,41.88-23.87c6.94-5.15,14.17-8.56,21.69-10.24c-0.04-5.07,10.12-7.24,14.6-7.92  c-0.37-3.36,2.7-5.37,5.43-2.87c-0.31-3.67,7.61-7.77,10.73-6.32c0.58-3.2,2.37-5.25,5.37-2.77c-0.37-3.84,7.14-6.98,10.79-6.8  l2.41-3.76c12.17-5.87,23.79-12.73,34.87-20.59l4.51,0.39c6.15-3.65,13.44-8.88,19.64-11.98c27.02-13.52,51.69-31.66,77.69-46.85  l3.88-5.49c29.71-21.37,57.44-45.23,83.19-71.59c0,0,2.16-0.74,6.48-2.22C691.3,83.51,711.54,63.76,733.56,48z" />
<path class="cls-6" d="M428.43,1257.81c3.94-0.01,4.3,3.4,0.65,4.91l-12.88,110.58c-13.82,8.47-29.09,9.84-44.12,10.29  c-15.05,0.44-62.83,0.49-74.61-11.19l-12.22-116.06l3.85-0.78c44.97,12.27,86.84,9.23,131.97,1.53  C423.6,1256.66,426.03,1256.79,428.43,1257.81z" />
<path class="cls-10" d="M396.49,84.28c1.76,4.12,3.45,8.34,4.12,12.8c4.61,37.01,10.37,73.81,17.28,110.42l-0.3,6.8l3.07,3.85  c2.58,15.89,5.24,31.78,7.99,47.67l-1.4,4.9c-1.48,0.53-3.14,3.4-5.37,2.77c-4.46-4.03-6.69-6.04-6.69-6.04  c-22.42-42.07-45.52-83.75-69.31-125.03l66.94,134.73l-1.67,2.65c-1.51,0.56-3.39,3.15-5.43,2.87c-1.87-0.11-3.74-0.27-5.56-0.63  c-1.81-0.35-3.58-0.71-5.18-1.44c-20.71-9.47-41.95-19.54-61.75-30.73c-1.53-0.87-2.88-2.09-4.22-3.36  c-1.36-1.28-2.57-2.71-3.75-4.18c-4.6-49.9-3.13-100.78-4.52-151.12c44.07,31.21,25.39,6.99,26.72,5.45  c2.8-3.25,6.71,1.75,8.82,2.59c2.77,1.11,5.8-5.63,9.02-4.94C393.63,100.42,383.24,83.41,396.49,84.28z" />
<path class="cls-6" d="M361.31,1095.13c14.25,3.36,8.27,18.1,8.12,26.66c2.3,2.34,0.34,4.4-2.19,5.37c0.32,5.1-14.8,4.3-18.53,3.41  l-1.77-2.75l-2.71,3.21c-32.5,6.62-53.75,37.16-52.17,69.75l-2.46,3.4c3.44-1.45,2.86,11.45,2.48,12.02  c-0.5,0.76-2.2-0.51,1.71-0.02c44.54,5.54,88.91,9.04,132.98-2.19l7.25,0.86c-0.12,7.55-2.33,15.22-2.7,22.54  c-1.79,1.78-3.8,3.6-6.33,4.16c-45.65,10.12-91.11,9.68-136.34-2.26c-2.53-0.67-4.54-2.27-6.19-4.27  c-0.79-7.58-2.87-15.75-2.99-23.86c3.11-2.64,5.27-5.99,5.03-11.05c-1.81-38.66,23.86-70.87,61.79-78.15  c0-6.64-0.75-10.77,0.62-15.7c-0.74-5.97,3.16-14.56,9.51-11.07C356.78,1090.87,360.75,1090.85,361.31,1095.13z" />
<path class="cls-10" d="M391.11,290.59c-20.43,14.22-43.89,24.14-65.23,37.2l-1.56-76.22c1.28-0.08,2.55-0.1,3.8,0.05  c1.22,0.15,2.4,0.31,3.38,0.82c18.8,9.83,38.13,20.17,55.66,32.1c0.91,0.62,1.57,1.6,2.25,2.64  C390.1,288.24,390.63,289.4,391.11,290.59z" />
<path class="cls-7" d="M310.61,1003.39c3.65,5.18,2.83,11.56,2.6,17.91c-2.84,0-5.78,0.01-8.21,0.61c-3.4,0.85-5.61,3.51-4.19,7.96  l65.68,3.8c6.37,0.37,5.07,10.88,2.98,13.79c-3.15,4.39-9.25,2.63-14.44,5.13c-2.96,0.42-6.11-0.41-9.45-2.52  c-0.43,1.17-0.93,1.15-1.48-0.01c-10.57-0.08-23.23-7.93-30.91-1.48c1.76,6.72,1.46,13.62-5.05,17.61  c-27,16.56-23.29-37.96-21.64-51.34l2.79-2.2c1.42-3.15,9.87-10.63,13.18-11.54C305.78,1000.22,307.98,1001.27,310.61,1003.39z" />
<path class="cls-6" d="M431.02,1242.84c-0.09,1.72,0.61,3.84,0.13,5.49c3.69,1.2,2.56,4.2-1.18,4.11c-1.79,1.98-3.93,3.51-6.55,4.12  c-45.03,10.57-87.31,9.45-132.21-0.75c-2.65-0.6-4.9-1.63-6.6-3.86c-0.64-3.95-1.21-7.89-1.63-11.87c2.42-0.89,4.83-0.87,7.31-0.34  c47.12,10.07,89.44,12.43,136.98,2.07L431.02,1242.84z" />
<path class="cls-1" d="M290.77,1001.88c3,1.98,2.09,9.48-1.48,10.79c-0.58,14.99-6.46,61.67,15.4,52.37c6.37-2.71,8.28-9.83,8.5-16.45  c4.05,7.73,5.46,20.81-1.52,27.39c-6.45,6.08-15.09,3.97-21.71-0.22c-15.93-10.08-12.03-38.19-11.26-60.31  C278.98,1007.41,284.62,1003.36,290.77,1001.88z" />
<path class="cls-1" d="M405.71,282.68c-2.91,5.03-10.86,5.32-14.6,7.92c-20.7-14.98-44.23-26.59-66.79-39.02  c-0.06-2.97,0.11-6.58,0.92-9.22C351.37,257.29,378.46,269.97,405.71,282.68z" />
<path class="cls-1" d="M431.3,1237.38l-0.28,5.45c-48.67,10.62-100.27,11.82-148.04-2.76l-0.53-5.07  C329.96,1249.81,383.23,1250.12,431.3,1237.38z" />
<path class="cls-1" d="M429.97,1252.44c3.96,1.51,2.81,6.67-1.54,5.38c-46.77,11.19-96.9,11.83-143.18-1.47  c-0.15-1.42-0.41-2.98-0.64-4.4C331.75,1264.75,382.82,1265.37,429.97,1252.44z" />
<path class="cls-15" d="M356.41,1095.18c-4.99,2.49-8.1,6.03-9.51,11.07c-3.76-18.16-1.92-37.44-2.81-56.18l1.48,0.01  c3.39-0.77,7.16,3.8,9.04,6.7c4.22,6.49,4.35,27.8,4.17,36.39C358.76,1094.11,357.45,1094.76,356.41,1095.18z" />
<path class="cls-15" d="M310.61,1003.39c-10.65-3.23-13.68,9.12-21.32,9.28c0.14-3.65,0.02-7.31,1.48-10.79  c3.96-0.96,6.16-5.62,11.2-4.38C306.02,998.49,308.18,999.94,310.61,1003.39z" />
<path class="cls-7" d="M129.95,578.6c-1.15,5.46-0.56,10.22-0.67,14.9l-7.25,323.64c-1.25,3.98-7.87,2.68-8.46-1.17l-2.13-0.62  c-5.46-12.31-14.26-21.41-27.42-25.32l-1.04-3.47c-4.01-0.48-4.94-9.05-5-12.8c-0.06-3.41-0.16-12.01,3.87-11.36  c-1.14-2.42-2.14-5.08-3.01-7.98l-8.99-336.1c2.4-0.84,4.23,0.49,5.49,4l0.14-29.72c5.43-4.51,7.71,2.61,8.86,7.64l7.48-53.89  c1.77-1.33,3.67-1.15,5.55,0.02l7.07,49.99c0.6-4.2,4.76-8.64,7.59-3.97l-1.61,22.21c3.16-5.57,6.11-6.32,8.84-2.24  c0.38,13.09-2.05,25.98-4.6,38.73c3.45-8.5,10.9-25.54,13.39-6.77c1.26,9.49,0.76,21.49-1.71,30.71  C128.4,575.67,129.61,576.86,129.95,578.6z" />
<path class="cls-6" d="M93.95,1381.98c-8.24-0.59-16.76-5.29-24.38-9.68l-12.94-115.9c46.75,13.35,96.92,11.67,144.86,0.9  l-12.3,114.5c-6.54,6.49-15.31,7.25-24.23,9.75C141.06,1383.17,117.4,1383.67,93.95,1381.98z" />
<path class="cls-10" d="M103.36,284.04c-16,12-7.45,21.92-20.45,17.4c-1.64-0.54-2.44-1.32-2.41-2.34l6.68-53.98l-7.19,45.59  c0,0-1.21,2.28-3.62,6.85c-4.56-0.25-8.91-2.5-12.17-5.67l-2.76-95.06c-0.57-1.07-1.09-2.16-1.43-3.3c-0.33-1.13-0.64-2.2-0.49-3.19  c6.63-44.04,27.51-84.13,62.26-111.6c1.22-0.96,2.71-0.75,4.08-0.04c0.15-4.8,9.59-9.49,13.85-7.77l-2.44,144.82L103.36,284.04z" />
<path class="cls-12" d="M129.95,578.6c-2.38-0.48-4.38,0.69-7.74-1.28c7.49-13.31,3.94-27.12,1.98-40.37  c-4.83,9.12-6.51,18.1-14.11,23.71c3.11-17.08,7.16-32.37,6.48-50.07c-3.36,4.16-4.16,9.03-8.21,12.82  c-1.7-10.99,0.54-20.91,1.35-32.07c-3.21,3.89-2.25,8.92-6.88,12.88l-8.24-58.34l-9.29,66.97c-4.64-7.45-2.14-14.82-7.51-20.44  l0.31,40l-8.24-14.09l-3.2-111.17c-0.34-11.76,1-23.45,6.45-36.29C154.35,457.63,129.74,465.35,129.95,578.6z" />
<path class="cls-16" d="M116.44,1124.91l-3.27,74.16c-18.91,0.78-36.08,1.87-52.86,6.08c-5.41-4.95-3.14-17.75-1.7-24.97  c4.67-23.37,27.46-54.34,52.63-56.99C113.38,1122.96,114.83,1122.89,116.44,1124.91z" />
<path class="cls-6" d="M53.58,1233.44c-1.07-6.28-1.8-12.58-2.1-18.94c50.17,11.56,103.8,12.02,154.58,0.71  c0.01,7.15-0.59,13.67-2.84,21.44C154.34,1249.07,101.23,1248.89,53.58,1233.44z" />
<path class="cls-7" d="M124.67,1043.02c-0.15,1.59-0.73,3.01-1.72,4.26c-1.4,3.3-2.06,3.3-3.49,0.01c-3.55,3.93-11.88-4.09-8.24-8.16  c-1.14-4.34,1.49-8.05,7.91-11.13c14.26-5.6,29.47-8.25,45.62-7.95l-3.27-2.85c-3.67-0.83-6.11-2.4-7.3-4.74  c-0.28-6.48-0.19-13.77,4.72-18.61c4.56-4.51,11.74-5.76,18.48-2.79c5.39,2.38,9.09,8.87,9.04,16.12l-0.29,37.38  c-0.06,7.71-3.27,14.31-9.35,16.9c-6.91,2.95-14.15,1.23-18.3-3.59c-4.85-5.64-3.75-13.53-4.03-22.09  C143.66,1037.92,134.63,1044.05,124.67,1043.02z" />
<path class="cls-16" d="M122.04,917.14l-2.09,102.4c12.61-5.29,22.71-6.87,34.22-7.09c5.45-0.1,14.32,4.02,13.91,10.11  c-20.38,2.09-46.43-0.38-56.86,16.57c-0.42,0.54-0.86,1.06-1.39,1.48c-0.79,0.64-17.1-5.57-18.67-6.69l-1.34-2.86  c-0.94-6.09-2.99-12.24-2.79-18.54l1.81-2.67c0,0,4.91-1.54,14.74-4.63l5.91-49.85l2.89-1.63c-2.69-0.64-2.41-2.02,0.31-2.83  c-3.68-0.72-3.46-2.7,0.03-3.98c-2.07-0.97-1.67-1.88,1.19-2.72c-3.98-1.94-2.07-8.84,1.14-10.9l-3.04-1.14  c0.78-4.82,0.78-9.85-0.02-15.09l1.59-1.1L122.04,917.14z" />
<path class="cls-6" d="M138.63,1087.78c-0.99,14.93,8.33,7.82,1.9,30.79c43.25,5.99,71.8,52.51,59.24,93.09  c1.46-41.39-16.68-81.66-59.42-86.46c-6.2-0.7-16.42-1.46-23.93-0.3c-36.72,5.66-61.38,43.93-56.13,80.24  c-1.64-0.64-3.37-0.91-5.12-0.98c-4.65-40.3,21.03-76.85,61.77-85.29c-1.43-9.34,1.26-16.84,1.34-24.43l1.67-4.09  c4.82-1.35,9.57-2.25,14.25-2.71C134.99,1083.85,137.75,1084.07,138.63,1087.78z" />
<path class="cls-6" d="M56.07,1252.11c-1.09-4.39-1.44-8.83-1.28-13.32c46.98,14.77,98.75,14.53,148.03,2.83  c0.52,2.19,0.61,8.71-1.99,10.79C153.1,1264.63,103.21,1264.28,56.07,1252.11z" />
<path class="cls-10" d="M135.06,327.04c-10.52-4.67-21.31-9.62-30.75-16.09c9.09-11.53,20.13-21.05,32.41-30.87  C136.14,296.63,137.64,311.97,135.06,327.04z" />
<path class="cls-10" d="M136.64,271.81c-3.06,3.29-20.22,12.37-23.76,10.86c-0.58-0.25-1.04-0.76-1.46-1.36  c8.19-19.42,16.36-38.76,26.05-57.93C137.94,240.3,137.64,256,136.64,271.81z" />
<path class="cls-5" d="M124.67,1043.02l10.66,9.65c8.36,7.57,4.07,23.59,3.31,35.12l-4.43-0.13l-2.94-1.84  c0.72-10.79-0.51-20.72-3.68-29.81c-3.27-2.89-4.82-5.8-4.65-8.72c-0.3-0.92-0.39-1.78-0.59-3.32  C122.22,1042.86,123.34,1041.31,124.67,1043.02z" />
<path class="cls-15" d="M136.64,271.81c-8.49,11.06-21.02,17.83-31.85,27.05c-1.27-8.56,4.11-12.31,6.62-17.54L136.64,271.81z" />
<path class="cls-3" d="M139.71,70.95c-4.35,3.13-9.34,5.12-13.85,7.77c-3.31-1.03-3.71-2.32-1.57-5.07c-3.96,0.04-3.59-2.45,0.39-2.28  c5.94-0.46,9.77-5.53,14.92-7.97L139.71,70.95z" />
<path class="cls-12" d="M806.33,251.82l3.03,4.33c2.29,22.82,12.69,43.75,26.24,61.99c4.08,6.76,2.94,7-4.18,7.64  c-92.76-12.87-162.6,94.36-86.02,162.29c9.7,5.82,11.82,10.17,6.36,13.05l-18.6,7.87l-3.35-1.3c-1.81-1.09-2.31-2.57-0.86-4.06  c8.42-6.36,10.22-9.52,5.42-9.48c-26.61-3.22-53.34-5.57-80.17-7.04c-7.38,2.9-13.79,3-19.25,0.29  c-5.69-15.63-36.16-20.59-41.29-0.93c-4.4,0.99-7.92,0.5-10.58-1.46l-2.7-0.88c0,0-1.7-76-5.1-228l2.64-1.71  c2.69-2.96,5.97-1.63,9.87,3.98c2.75-0.1,5.62-1.24,8.59-3.4c30.87-1.31,61.84-2.7,92.91-4.19c31.4,1.54,62.7,1.33,93.92-0.63  c7.5-3.02,14.72-3.78,21.65-2.28L806.33,251.82z" />
<path class="cls-14" d="M729.8,507.67l-0.89,3.8c-31.59,22.38-31.94,60.65,0.72,81.99l0.48,3.79c-5.29,12.96-8.07,32.97,3.82,40.71  c-0.72,2.82-3.72,4.2-9.01,4.14l-0.12,40.97l-2.68,1.58c0.53,0.92,1.16,2.43,0.57,2.89c-13.99,11.09-32.9,25.33-47.9,34.62  c-3.89,2.41-7.12,4.06-11.73,5.17c0.57,4.46,3.78,5.96,9.63,4.49l2.34,2.53c1.05,0.13,2.61,0.49,2.66,1.24  c0.49,7.33,0.84,36.34-0.56,42.13l-2.7,1.91l-1.07,2.75c-27.37,1.69-54.75,3.38-82.13,5.07l-1.77-2.57l-2.7-0.88  c-2.11-99.09-4.21-198.19-6.32-297.31l2.64-1.71c2.95-1.4,6.05-1.43,9.45-0.35c1.22-6.99,6.29-10.98,11.14-13.07  c5.45-2.36,32.83,1.92,32.45,13.22c4.58,5.94,15.35-2.17,19.77,0.02c5.59,2.77,92.67,0.86,84.47,12.1  C737.55,500.08,731.01,503.32,729.8,507.67z" />
<path class="cls-10" d="M957.39,105.95c-0.81,3.99-5.09,3.72-6.29-0.25c-5.94-1.28-11.4-0.73-16.37,1.64l-3.99,3.39  C865,122.64,807.6,177.83,808.84,247.21l-2.5,4.61c-8.2-6.13-17.09,1.19-24.57,1.1c-23.21-0.29-43.87,3.41-66.29,1.45  c-38.1-3.34-76.4,3.65-115.41,2.51c-4.13-0.12-7.79,5.08-12.41,4.29c-3.33-0.57-4.73-6.75-9.75-6.77c-2.51-0.75-2.46-1.83,0.08-2.39  c-0.12-2.44,3.51-4.47,5.91-4.06l1.36-0.18c3.6,0.37,6.13-1.22,8.04-4.12c78.52-19.39,156.16-41.22,231.77-76.17L715.22,197.1  c-0.57-0.38-1.16-0.7-1.77-0.78c-1.42-0.18-2.87-0.11-4.34-0.01c-35.21,2.5-69.83,7.65-104.57,13.31l-5.8-0.63  c4.58-6.85,12.01-11.72,18.73-17.62l50.38-44.29c55.46-18.4,117.29-29.81,171.65-50.61c-19.22,14.31,37.93,9.12,43.72,8.87  l14.53-14.84c11.46,6.69,24.57,5,36.64,2.14C953.31,103.17,961.09,93.11,957.39,105.95z" />
<path class="cls-9" d="M951.1,105.7c0.49,5.3-14.65,5.6-16.37,1.64C936.54,102.21,947.58,102.4,951.1,105.7z" />
<path class="cls-4" d="M749.81,637.39c1.05,0.14,2.61,0.52,2.65,1.26c0.24,4.69-0.1,39.23-0.87,41.15c-0.41,1.01-1.65,1.5-2.72,1.9  c-2.2,3.85-20.03,6.57-23.48,5.61c-1.42-0.39-2.45-1.47-3.27-2.63l0.13-44.98l11.69-1.71C739.15,637.21,744.52,637.08,749.81,637.39  z" />
<path class="cls-1" d="M772.63,638.75c1.51,0.09,4.76,1.69,4.74,3.97l-0.38,40.6c-1.65,3.66-10.46,1.11-11.19-2.39  c-4.29,4-12.26,4.28-16.93,0.77l0.94-44.31L772.63,638.75z" />
<path class="cls-15" d="M957.39,105.95c34.49,1.48,67.83,11.56,95.24,33.23c23.16,18.31,37.62,45.33,48.56,71.82  c13.21-46.29,52.52-77.09,98.81-73.9v97.69c-28.88-15.76-63.47-20.34-92.99-4.19c-19.63,10.74-32.79,29.05-36.82,48.1  c-5.12,24.24,1.66,46.46,17.64,63.95c-22.98-5.08-46.75-2.82-64.46,12.39c-19.31,16.59-24.96,40.01-27.28,66.89  c-9.19-33.93-40.09-55.7-75.93-54.73c-20.07,0.54-37.63,10.61-47.48,25.98c-11.36,17.72-10.55,38.23-2.2,56.88  c3.17,7.08,8.74,13.22,7.68,22.29c-18.65-25.15-55.16-30.77-80.54-12.51c-23.09,16.61-24.07,48.07-4.67,67.84  c10.42,10.62,15.55,25.42,8.71,38.89c-14.67-9.51-32.22-13.34-47.4-5.06c-22.08,12.04-12.94,39.59-24.16,35.73  c-15.17-11.82-28.53-24.77-27.85-44.64c0.63-18.56,11.97-35.13,27.55-44.95c7.21-3.68,13.97-6.88,24.02-10.05  c-44.28-28.85-57.05-83.32-28.22-127.43c23.93-36.63,65.7-52.72,110.83-46.5c-17.28-22.37-28.62-45.64-30.1-71.86  c-4.14-73.23,56.59-133.45,128.4-144.48c5.19-0.8,11.51,0.41,16.37-1.64C952.9,106.12,955.51,105.87,957.39,105.95z" />
<path class="cls-3" d="M577.07,248.05c0.66,0.27,0.74,0.69,0.28,1.27c2.72,0.15,3.01,1.31,0.65,2.68c0.08,0.78-0.1,1.6-0.08,2.39  l5.16,230.59l6.38,299.9l2.7,0.88c0.96,49.04,1.92,98.1,2.87,147.16l-2.65,1.68c2.44,0.25,3.23,2.17,2.38,5.74  c16.61,0.5,33.33,0.58,50.15,0.23l1.98,2.67l2.68,0.94c-0.09,50.06-0.18,100.12-0.26,150.2l-2.68,1.64l-3.44,0.35  c-7.61-10.46-16.92-21.1-30.27-23.5l-0.95-1.68c-1.26,0.46-6.06-1.32-6.53-2.45c-0.66-1.59-1.08-8.13-0.47-10.25  c7.58-2.58,5.9-3.26-5.03-2.03c-1.06,4.6-1.61,9.43-1.65,14.49c-31.11,8.09-40.84,30.45-40.51,59.63l-3.16,1.23  c3.45,1.52,3.86,5.25-0.04,6.47l0.91,2.79c3.74,0.57,3.94,2.56,0.51,4.04c1.88,0.82,2.25,1.63,1.1,2.44  c3.56,1.82,3.67,4.91,0.23,6.96c2.9,1.42,3.29,2.57,1.19,3.46l2.85,6.15c2,21.76,4.25,43.48,6.74,65.16  c11.51,3.91,23.45,5.4,35.62,5.36l2.71,2.78c0.46,7.75,1.35,15.56,3.11,23.13l3.03,1.89c2.87,17.47,4.31,26.21,4.31,26.21  l-2.33,2.34c-27.87-8.78-56.8-14.49-85.42-20.35c-0.55-49.28,2.31-98.23,5.68-148.39c10.98-163.46-50.61-176.84-22.31-340.13  c17.05-98.42-26.61-204.72-15.53-276.07c11.86-76.45,13.23-150.56,2.18-228.21C521.39,256.1,545.76,256.46,577.07,248.05z" />
<path class="cls-11" d="M886.04,1350.34c1.46,8.73,0.09,17.69,0.72,26.36l-272.21-85.71l-5.01-30.45  c36.88,5.77,72.33,16.36,108.16,29.25L886.04,1350.34z" />
<path class="cls-11" d="M467.26,1249.5l-1.4,14.38l-36.78-1.16c0.19-1.6-0.61-3.32-0.65-4.91c1.51-1.47,1.02-3.57,1.54-5.38l1.18-4.11  C443.21,1248.67,455.29,1247.83,467.26,1249.5z" />
<path class="cls-4" d="M719.52,942.82l2.68,0.94c-0.1,68.73-0.2,137.47-0.3,206.22l-2.68,1.65l-33.7,5.67  c-12.07-5.89-21.65-15.76-33-22.9c-3.52-0.15-3.47-1.04-0.32-2.6c-2.98-0.79-4.38-2.97-2.73-5.78l-1.57-1.28  c0.26-9-1.04-17.83-3.89-26.5l2.61-2.2l0.27-152.77l1.21-2.69c23.27-0.14,46.55-0.28,69.84-0.42L719.52,942.82z" />
<path class="cls-7" d="M649.21,1158.74l-8.71,72.12c-10.91,5-22.8,7.02-34.06,6.56c-13.54-0.55-27.27-0.2-40.42-6.87  c-2.47-24.68-7.21-48.55-7.5-72.57l3.49-0.79c27.59,5.79,56.01,5,83.75,0.68L649.21,1158.74z" />
<path class="cls-7" d="M561.52,1132.94l6.87-1.58c25.48,3.9,51.54,3.97,76.9-0.86l6.92,1.3c-0.15,0.81,0.54,1.8,0.32,2.6  c-1.05,3.92-0.97,8.01-1.54,12.03c-0.91,0.92-1.84,1.69-2.9,1.92c-26,5.64-63.47,5.22-89.21-1.46c-1.04-0.27-1.97-0.97-2.88-1.78  c-0.32-1.32-0.35-2.7-0.51-4.04l-0.91-2.79c0.37-2.01-0.62-4.52,0.04-6.47C556.33,1127.35,560.12,1129.29,561.52,1132.94z" />
<path class="cls-11" d="M947.03,1371.61c-2.85,5.96-6.1,14.91-8.17,21.22c-0.28,1-0.94,2.46-1.59,2.34  c-4.81-0.91-37.69-9.65-39.81-11.11l-1.6-3.23c-0.48-8.77-2.98-17.59-2.78-26.55L947.03,1371.61z" />
<path class="cls-7" d="M650.54,1149.37c-0.18,2.16-0.4,4.31-0.84,6.43c-0.76,0.89-1.56,1.62-2.47,1.83  c-21.58,4.97-66.71,5.79-87.6-0.97c-0.9-0.29-1.63-1.14-2.3-2.15c-0.3-2.31-0.4-4.64-0.23-6.96c29.83,5,60.4,6.34,90.51,0.88  L650.54,1149.37z" />
<path class="cls-1" d="M650.98,1146.43c-0.14,0.98-0.36,1.96-0.44,2.94c-31.06,4.63-62.99,6.38-93.44-1.82  c-0.44-0.76-0.9-1.57-1.1-2.44C586.98,1152.65,619.71,1152.43,650.98,1146.43z" />
<path class="cls-1" d="M649.7,1155.8c-0.2,0.97-0.37,1.96-0.49,2.94c-30.33,4.82-60.52,5.43-90.69-0.77  c-0.01-1.16-1.04-2.31-1.19-3.46C587.32,1162.62,619.2,1161.04,649.7,1155.8z" />
<path class="cls-16" d="M1005.83,765.61l1.4,2.47L860.75,934.91c-88.81,1.23-177.71,2.02-266.7,2.36l-1.68-2.67l-2.92-149.72  l84.98-5.24l2.68,1.21l0.32,37.26l92.52-3.91l1.72,2.61l2.52-5.96l43.21-39.38c5.95-1.39,17.48-2.75,22.13,0.72l53.98-2.67  l0.74-2.73c17.4-1,34.81-2,52.22-3.01l1.72,2.58c1.54-0.78,3.09-1.5,4.7-2.04c1.59-0.53,3.17-1,4.77-1.1  C973.35,762.2,991.07,761.12,1005.83,765.61z" />
<path class="cls-5" d="M1061.86,737.75c1.96,0.65,2.55,1.73,1.49,3.35c17.78-7.3,10,19.84,7.3,28.98c-5.25,9.35-3.04,10.25,6.61,2.68  c6.78-2.13,12.03,1.25,5.91,5.46c-2.67,3.65-3.9,8.26-5.48,13.37c5.47-0.82,11.05-2.74,14.75-0.01c0.48,9.27-10.44,13.38-6.72,21.02  c3.93,9.65-9.65,17.23-12.86,27.55c8.63-1.4,16-9.73,25.28-9.42c-2.31,10.8-11.14,19.2-0.83,26.05c-3.11,4.08-7.65,3.92-11.23,6.84  c-5.72-2.05-9.46-6.49-13-11.24c-20.54-26.82-41.72-53.1-63.55-78.85l-3.71-7.92c-18.98-0.39-38.53-0.35-57.63,0.75l-2.56-2.81  c-2.25-10.26-3.03-22.46,10.49-17.02c-6.55-10.94-9.5-23.4,7.64-17.88c-1.75-2.68-3.39-5.45-4.54-8.44  c-2.13-5.52-5.52-16.07-0.18-19.71c1.62-2.68,2.92-2.19,5.31-1.1c-1.71-12.67,6.8-9.58,11.8-0.95l-10.9-16l1.44-3.38  c-1.33-2.23-0.48-2.81,1.64-1.22c3.73,1.42,6.69,5.17,11.73,3.23c-0.43-11.81-4.94-22.98-12.1-32.32c5.52-0.66,8.27,4.04,12.85,4.31  c1.77-7.89-2.39-15.41,0.75-23.27c5.88,3.17,5.88,9.59,10.72,14.28l-4.81-36.2c2.39,3.79,4.62,8.06,8.53,10.96l-0.53-20.22  c3.24,1.68,3.52,4.59,6.6,5.62l8.67-42.7c1.62,17.44,10.64,30.24,10.49,46.83c5.6-4.72,4.37-10.43,8.28-14.95  c8.3,7.34-9.39,61.43,6.12,35c1.14,4.87,0.54,9.55,2.66,13.97l10.7-6.01c-0.92,10.77-10.65,17.67-9.03,28.54  c1.28,1.47,6.44,0.67,6.76,2.13c0.26,1.18-2.01,4.17-1.11,6.1c5.72,0.57,4.12-6.46,10.02-11.13c-0.92,7.12,5.23,14.43,2.94,20.73  c-1.6,3.84-3.6,7.51-2.71,11.38c0.88,3.8,5.65,1.72,9.42,1.49c-1.52,11.44-10.62,16.89-13.86,26.98c5.01,1.34,10.06-2.82,14.67,0.1  L1061.86,737.75z" />
<path class="cls-7" d="M968.34,677.85l-1.64,1.22l0.52,3.04c-3.91,4.69-5.71,10.41-5.39,17.18l-2.77,1.21  c-0.93,12.92,2.74,22.7,12.28,33.5l-17.01-4.74c-2.44,7.02,3.03,12.67,6.19,20.2c-4.29,1.93-8.29-2.45-13.61-1.55  c0.79,6.16,1.74,12.47,1.29,18.45l-54.69,3.15c0.42-7.25-4.32-13.31,2.62-10.82c1.93,0.69,4.07,1.78,7.68,1.58l-12.1-24.65  c3.38-0.2,7.25,0.13,8.07-2.59c0.79-2.6,0.95-5.22,1.14-8.29l7.11,5.44l-7.51-23.24c4.36-0.71,6.01,4.11,11.14,4.88  c2.72-11.12-6.17-19.46-9.83-30.59c4.69-1.7,5.67,4.02,10.56,4.9c-0.32-7.7-3.73-14.2,0.22-20.35c3.5,5.09,3.82,11.14,9.67,14.88  c-2.23-12.93-6.13-24.54-6.06-37.73c4.08,2.45,3.99,6.55,6.56,11.26c3.25-9.01-1.45-16.18-0.11-24.59c3.89,4.16,6.08,0.75,7.49-1.13  c2.49-3.32-0.87-5.91-0.74-7.73c5.88-5.84,3.91-17.3,6.37-24.92c2.34,18.2,8.86,34.42,7.45,52.95c6.14-4.68,3.83-10.76,7.09-14.87  c3.71,13.78-0.27,25.53-0.17,39.06c3.56,0.89,3.79-3.79,5.68-5.9c0.74,4.4-0.71,12.48,5.11,11.38c1.88-0.36,3.35-3.25,4.58-3.92  C967.34,673.52,967.14,677.39,968.34,677.85z" />
<path class="cls-1" d="M772.95,719.26c0.22-1.04,0.75-2.59,1.49-2.54c19.09,1.1,42.03,3.29,60.94,6.12c5.79,0.87,10.7,2.07,16.2,4.32  c1.68,2.09,1.44,7.21-0.72,7.02l-10.8-0.94c-1.15,12.82-0.8,26.41-0.53,38.94c-6.68,0.33-13.7,1.38-21.24,1.69l-46.62,42.93  l-2.67-1.25l0.19-85.97l-92.34,7.31l-1.81-2.54c-3.86,0.31-8.65,0.44-12.67,0.04c-1.66-1.17-0.85-5.94,0.7-7.06l9.06-3.35  c33.05-2.43,66.06-4.86,99.03-7.29L772.95,719.26z" />
<path class="cls-13" d="M776.98,683.32l74.59,43.84l-78.62-7.9c-1.05,0.07-2.62,0.05-2.85-0.68c-2.03-6.28-6.34-28.81-6.58-35.27  l2.28-2.38C769.4,680.89,773.6,682.5,776.98,683.32z" />
<path class="cls-8" d="M1114.2,728.24c0.94,2.42,2.73,5.27-0.07,6.14c-3.01,0.94-6.04,0.46-10,0.81c-0.44,5.94,5.16,10.38,6.5,16.54  c-5.88,1.42-8.06-4.83-15.03-4.01c4.55,8.77,1.07,13.23-3.12,17.5c1.31,10.94,9.68,17.52,13.39,26.34l-22.7-13.35  c2.08-12.17-16.79,7.51-21.82,5.28c7.39-8.31,15.6-44.28,6.79-41.38c-8.16,2.68-7.4,7.41-8.13,1.63c-0.25-1.95,1.52-4.85,1.84-5.99  L1114.2,728.24z" />
<path class="cls-7" d="M112.38,953.72l-6.43,54.19c-6.4,2.19-12.86,4.92-18.92,4.61c-12.36-0.64-24.92,0.76-37.45-4.64l-6.57-55.46  l2.68-0.82c21.09,4.8,42.82,3.56,64.13,1.05L112.38,953.72z" />
<path class="cls-6" d="M81.85,862.4c-3,8.06-0.32,15.97,1.14,24.16c2.04,3.22,1.28,5.02-2.54,5.55c1.08,0.49,0.94,0.87-0.3,1.16  l-2.41,2.33c-17.42-0.68-29.58,13.5-29.45,30.38l-2.59,2.04c2.63,0.39,2.83,1.61,2.32,3.76c17.88,5.33,42.77,2.32,61.16-0.08  l5.86,1.59c1.05,3.35-1.24,7.53-1.14,10.9c-0.8,0.77-1.62,1.38-2.5,1.48c-15.26,1.7-54.06,3.41-67.44-1.27  c-0.87-0.31-1.61-1-2.31-1.8c-1.95-3.68-2.3-49.21,30.17-52.82c-3.13-14.61,8.81-16.03,3.92-24.6c-4.77-8.37-18.72,2.01-20.86-4.13  c-0.85-7.45,12.1-6.85,17.56-5.69C76.44,856.22,82.46,857.64,81.85,862.4z" />
<path class="cls-11" d="M111.22,1039.13c1.06,3.64,4.62,6.24,8.24,8.16c4.43,3.88,3.32,15.98-0.87,19.86  c-8.64-2.7-16.62-7.14-24.85-10.69l-3.92-25.41C97.42,1031.6,103.98,1037.39,111.22,1039.13z" />
<path class="cls-7" d="M112.72,946.92c-0.17,1.29,0.23,2.67-0.03,3.98c-0.67,0.8-1.37,1.47-2.18,1.65  c-14.04,3.23-52.48,3.81-65.6-1.15c-0.79-0.3-1.41-1.06-1.98-1.96c-0.64-1.24-0.87-2.56-0.26-3.9l3.09-0.83  c21.17,3.37,42.64,2.47,63.95,1.08L112.72,946.92z" />
<path class="cls-15" d="M78.84,854.42c1.76,0.88,2.97,2.3,4.33,4.17c1.22,1.69-0.25,2.53-1.33,3.8c-8.05-6.02-18.93-7.81-26.96-1.33  c-1.06-3.04-3.19-5.86-2.03-8.92c1.39-3.66,3.38-5.77,7.07-1.99C64.65,854.99,73,851.51,78.84,854.42z" />
<path class="cls-5" d="M112.68,950.89c-0.18,0.92-0.2,1.89-0.31,2.83c-23.4,2.59-46.27,4.27-69.37-1.31c-0.11-0.9,0.25-2.15-0.09-2.97  C65.94,955.6,89.24,953.87,112.68,950.89z" />
<path class="cls-5" d="M113.9,944.2c0.03,1.01-1.07,1.83-1.19,2.72c-23.45,1.6-46.8,2.54-70.05-1.38c-0.42-0.93-0.53-2.02-1.01-2.92  C65.33,947.51,89.81,945.64,113.9,944.2z" />
<path class="cls-1" d="M122.95,1047.28c15.15,12.14,8.44,20.99,11.26,40.38c-2.17,5.69-11.22,2.48-15.91,6.79l0.29-27.3  c0.07-6.62,1.16-13.24,0.87-19.86C120.62,1047.18,121.78,1047.16,122.95,1047.28z" />
<path class="cls-2" d="M1130.66,943.12l-0.19,192.59l-99.16-2.9l-2.68-1.23l-0.6-94.81c-19.06-0.2-38.08-0.14-57.07,0.15l-0.07,94.27  l-2.68,1.6l-105.86,4.05l-2.68-0.94c-0.04-64.25-0.07-128.51-0.11-192.78l2.68-1.65l-1.39-2.47l138.78-156.88  c1.73-1.99,3.61-1.41,5.77-0.39l126.34,158.42L1130.66,943.12z" />
<path class="cls-1" d="M1086.08,863.62c6.44,7.37,14.06,16.33,19.89,24.02l40.96,54.08c-6.07,2.57-10.9,0.77-16.27,1.4l-127.94-160.44  l-140.48,158.8l-1.18,2.7c-27.07,0.42-54.16,0.85-81.25,1.27l-1.63-2.65c0.07,0.63,0.08,1.24-0.1,1.79  c-0.81,2.42-45.33,1.29-50.56,0.91c-4.4,0.86-7.07-0.03-7.99-2.68l-72.64,0.44l-54.54,0.29c-0.65-4.36,0.08-6.29,0.03-8.94  l267.13-1.86l146.33-167.13C1034.59,795.85,1058.26,831.75,1086.08,863.62z" />
<path class="cls-4" d="M862.24,941.48l0.11,195.37l-84,7.05l-2.68-1.24c-0.09-69.55-0.13-104.33-0.13-104.33l2.68-1.62l1.46-2.71  l19.6-0.41l0.18-58.14l-17.29-0.54l-3.93-2.62c-1.04-0.12-2.59-0.43-2.68-1.18c-0.3-2.55-0.57-25.19-0.04-26.4  c0.44-1.01,1.62-1.51,2.68-1.91L862.24,941.48z" />
<path class="cls-3" d="M778.18,942.8l0.05,29.5l-1.12,2.7c-5.65-0.28-10.65,0.09-14.99,1.13l0.13,57.4l14.18,0.45l1.79,2.74  l0.14,107.2l-59.13,7.73l0.3-208.81L778.18,942.8z" />
<polygon class="cls-1" points="1031.31,1132.81 968.21,1132.8 968.29,1033.96 1030.98,1034.11 " />
<path class="cls-10" d="M478.76,104.45l1.06,135.51c-13.41,7.96-26.91,18.87-41.78,23.95c-1.01,0.23-2.61,0.35-2.81-0.29  c-2.29-7.13-9.09-33.85-9.21-40.21l2.26-2.14c-1.14-1.86-2.22-3.74-3.13-5.7c-0.91-1.95-1.78-3.88-2.26-5.9  c-6.68-28.39-12.86-57.11-17.53-85.89c-0.33-2.05-0.24-4.17-0.13-6.32c0.11-2.16,0.42-4.32,0.79-6.47  C430.51,110.15,455.27,110.99,478.76,104.45z" />
<path class="cls-3" d="M406.01,110.99c5.67,37.1,13.9,73.72,22.27,110.28c-3.29,4.1-8.96-3.08-10.68-6.98  c-9.81-42.76-16.44-86.31-21.11-130.01c-0.65-6.11-0.76-12.69,0.82-19.1C401.57,81.11,403.73,96.02,406.01,110.99z" />
<path class="cls-10" d="M478.73,93.67c0.02,2.71,0.28,5.42,0.01,8.13c-1.73,0.01-4.28,0.03-5.38-1.49c-1.24-1.71-0.06-4.19,0.94-5.56  C475.3,93.41,477.2,93.4,478.73,93.67z" />
<path class="cls-10" d="M670.69,101.83c-30.49,27.11-58.73,58.96-93.54,79.3c-3.51-30.06-1.78-60.94-2.58-91.42  c11.28-2.49-1.05,1.48,11.46-17.34c3.31-4.99,7.4,1.38,11.29,1.09c7.2-0.52,14.73-7.18,22.47-2.28c-1.94,7.28-4.53,20.95,4.01,23.12  C637.91,84.8,676.17,94.51,670.69,101.83z" />
<path class="cls-1" d="M125.86,78.72c-11.43,6.72-19.01,16.14-27.26,26.65c-21.37,27.22-33.68,57.59-37.16,91.47  c-0.53,5.17-4.04,15.77-9.17,16.74c-15.18,0.7-0.58-68.04,1.22-77.08l2.71,1.74c-0.35,5.48,0.09,10.85,1.32,16.11  c12.94-31.42,36.1-56.81,61.12-79.21l5.65-1.48C125.47,75.06,125.95,76.92,125.86,78.72z" />
<path class="cls-11" d="M124.69,71.37c-0.45,1.02-1.09,1.45-0.39,2.28c-27.69,24.77-53.39,51.01-66.38,87.61  c-5.41-8.05-4.18-16.56-4.42-24.77c1.61-8.09,3.58-16.83,8.03-24.01c4.33-0.87,8.08-5.63,12.27-7c8.11-3.73,15.17-8.73,21.19-14.99  c3.39-4.7,18.54-23.65,24.01-22.11c0.67,0.19,1.27,0.61,1.85,1.09C122.28,69.76,123.56,70.46,124.69,71.37z" />
<path class="cls-16" d="M120.86,69.48c-21.42,9.89-21.01,32.2-47.06,36.01C79,101.25,117.09,54.99,120.86,69.48z" />
<path class="cls-16" d="M938.86,1392.83c-10.68,32.58-24.03,64.66-41.89,96.44c2.65-37.93,0.83-72.82-1.11-108.44L938.86,1392.83z" />
<path class="cls-3" d="M82.91,301.44c-2.45-0.85-5.36-1.17-6.53-3.88c4.17-31.25,8.39-62.55,18.5-92.94L82.91,301.44z" />
<path class="cls-12" d="M479.61,456.66c-2.23,2.29-2.22,4.57,0.03,6.84l-0.06,7.85l-1.71,2.63c-6.64,0.07-10.65,4.83-13.15,10.56  c-2.38,2.34-13.26,7.47-16.18,5.31l-2.82-0.23l-5.93-23.65l3.18,20.6c-1.6,8.26-6.05,5.71-13.35-7.66l-17.16-27.66l31.03,52.2  l-1.48,2.75c2.33,3.96,3.48,9.47,5.79,14.49c-4.02-2.01-7.29-3.12-10.04-4.99l-3.44-0.71c-21.44-14.12-43.18-27.76-65.22-40.93  c0,0,5.61,3.99,16.83,11.98l1.03,3.84c-10.92,3.93-23.74-5.02-33.87-10.81c-4.52,3.43-8.14,6.66-12.36,7.26  c-4.01,0.57-7.1-3.47-11.14-4.11c6.55-77.92,44.98-102.83,101.78-152.9C447.82,351.51,484.09,436.32,479.61,456.66z" />
<path class="cls-7" d="M454.25,772.72c3.55,2.43,5.52,6.51,5.92,12.24c5.13-7.82,7.09-2.02,7.5,4.77c-0.73,7.33-0.89,14.57-0.5,21.73  c4.51-2.55,7.06-1.85,7.64,2.11l-1.92,12.83c2.14-1.35,3.37-1.08,4.64,1.3c-0.2,21.96-0.19,43.94-1.2,65.87l-2.96,7.07  c-10.79,10.32-21.03,21.14-30.71,32.46l-4.86,2.03c-1.18,3.07,0.5,8.68,3.44,8c4.26-0.98,7.9,0.18,11.72,0.13l2.68,1.24  c-0.06,28.36-0.11,56.73-0.17,85.11l-2.68,1.59c-7.83-0.76-14.25-6.45-21.33-9.11c1.77-3.5-0.51-8-3.56-8.99  c-2.25-0.73-6.83-1.33-9.77-4.74c4.63-9.42,12.5-19.1,12.41-29.49l-23.41-20.07c13.51-6.77,13.43-20.11,8.46-31.37  c-4.16,3.05-5.94,3.01-9.78,2.75c-1.8-0.12,1.28-4.29-4.07-5.51c5.04-1.63,7.43-5.1,10.3-8.63c3.26-4-0.41-8.44-1.5-13.77  c6.96-4.54,7.3-9.66,5.99-16.88l-2.88-0.95c-4.01-11.36-1.09-15.61,8.77-12.75c-3.6-8.01-10.89-32.09,4.99-24.88  c-3.84-11.73-2.28-16.89,4.69-15.49l-0.8-7.11c-5.6-12.09-4.52-17.05,3.25-14.87c0.16-3.84,1.36-6.71,3.61-8.61  c-1.62-4.09-0.38-8.06,4.28-8c-3.39-4.48-1.71-9.53,4.35-8.73l1.49-12.41l2.97-1.43C452.51,770.59,453.53,771.61,454.25,772.72z" />
<path class="cls-16" d="M715.22,197.1l-74.13,24.33c-22.39,7.35-46.7,10.95-69.99,2.84c8.19-6.97,18.27-13.32,27.64-15.28  c38.1-7.96,76.45-13.61,115.94-15.67C715.58,193.93,715.16,196.4,715.22,197.1z" />
<path class="cls-4" d="M474.24,1040.91c-7.4-2.45-14.93-5.45-21.47-9.7l0.18-87.94c7.17-0.09,15.68-0.93,22.56,0.28L474.24,1040.91z" />
<path class="cls-11" d="M480.02,339.01c10.79,17.02,20.74,34.45,17.77,56.02c-8.13-20.49-46.81-50.88-59.36-72.85  c6.93-5.13,13.32-8.39,18.28-12.78c3.44,1.56,6.41,4.66,8.9,9.3C472.83,324.59,477.63,331.36,480.02,339.01z" />
<path class="cls-14" d="M479.58,471.35c-0.2,25.8,0.62,51.47-0.66,78.33c-12.71-14.88-24.23-29.28-29.12-46.33  c-4.63,0.09-4.8-11.87-1.25-13.5c3.94-3.28,9.48-3.93,14.22-7.01C465.8,475.11,471.75,470.78,479.58,471.35z" />
<path class="cls-11" d="M479.11,603.94c10.88,12.21,14,29.88,8.34,47.15c-25.64-32.86-57.43-59.21-84.49-90.1  c0.14-1.27,1.68-2.53,1.67-3.8c1.93-1.81,4.39-1.33,7.38,1.43l32.14,30.77c8.59,9.68,18.24,15.05,28.97,16.1  C475.2,603.64,477.2,603.12,479.11,603.94z" />
<path class="cls-11" d="M787.54,102.88c-45.69,17-93.69,31.64-141.65,40.32c12.41-14.49,32.29-18.45,52.94-22.13  C728.82,115.74,757.81,103.67,787.54,102.88z" />
<path class="cls-3" d="M448.54,489.86c1.03,4.11,0.07,9.39,1.25,13.5c-2.81,0.27-5.21,1.81-7.78,2.86l-55.49-93.34  c23,23.3,35.84,51.85,54.11,77.73c-1.45-20.22-7.9-37.45-6.22-57.09L448.54,489.86z" />
<path class="cls-16" d="M478.78,602.46c0.03,0.49,0.28,0.99,0.34,1.48c-14.89,22.05-61.87-43.21-74.49-46.75  C404.45,540.25,472.77,600.72,478.78,602.46z" />
<path class="cls-16" d="M437.79,935.13c10.66-14.89,25.76-27.5,38.53-41.56c-0.61,13.36,1.14,26.85-0.87,41.03L437.79,935.13z" />
<path class="cls-8" d="M477.97,778.06l-0.45,49.64c-5.73-0.12-3.19,7.43-9.21,11.18l4.07-27.22c-15.02,11.96-4.27-19.68-8.43-28.88  l-4.82,11.76c-1.34-7.94-2.86-14.9-4.88-21.83L477.97,778.06z" />
<path class="cls-10" d="M480.02,339.01c-6.36-10.03-18.87-17.73-23.31-29.6c7.13-6.32,14.07-13.2,23.21-18.35L480.02,339.01z" />
<path class="cls-2" d="M437.76,515.73c-9.4,3.38-14.23-10.68-23.63-8.33l-27.16-17.49c-10.67-6.87-22.18-13.76-30.08-25.35  C386.83,478.83,411.9,498.17,437.76,515.73z" />
<path class="cls-12" d="M593.3,243.65c0.56,2.33-0.24,4.1-2.89,4.65c-1.6,0.34-3.88,1.47-5.15-0.53  C587.96,246.77,590.5,244.34,593.3,243.65z" />
<path class="cls-14" d="M479.61,456.66c-0.39,1.77,0.05,4.95,0.03,6.84c-2.19,0.61-3.67-1.34-3.81-3.6  C475.72,458.08,477.61,456.41,479.61,456.66z" />
<path class="cls-12" d="M583.9,247.94c-1.74,1.7-3.42,3.66-5.91,4.06c-0.09-0.91-0.45-1.79-0.65-2.68l1.22-1.68  C580.4,247.16,582.82,245.77,583.9,247.94z" />
<path class="cls-8" d="M451.22,770.17c-1.18,5.68-0.68,12.41-2.95,18.13c-1.11,0.02-1.97-1.1-2.46-1.49  c-0.81-0.64-2.48-0.47-2.48,0.38c-0.01,1.71,0.36,3.37,1.59,5.09c-0.3,5.02-6.06,1.35-4.8,5.51c0.13,0.43,4.18,15.45,2.51,15.24  l-4.06-10.83l-1.54,9.22c-0.42,2.54-3.7-0.34-7.73-0.54c3.3,8.64,7.34,16.81,4.54,25.07l-4.71-2.63c-5.58-3.11,6.14,18.19-1.7,16.3  c-1.54-0.37-3.72-1.46-6.21-2.71c-2.88,8.69,1.4,17.27,4.73,26.79c-3.67,2.01-7.4-0.14-12.42-0.22c2.08,4.53,2.29,8.25,2.96,11.92  c-6.45,2.01-12.22,6.39-20.12,6.08c8.12-10.35,14.14-23.71,15.78-35.3c-4.83-3.6-4.75-10.19-1.18-16.55  c-7.58-3.43-10.8,2.31-17.78,4.92c6.44-9.33,7.72-17.23,6.29-26.86c-3.58,2.96-9.37,4.94-13.65,0.87  c5.07-9.08,12.14-15.1,15.85-24.07c-3.91-0.18-7.17-0.48-8.77-2.96c-1.71-2.64-1.8-5.74-2.19-9.58c-2.96,2.72-4.59,7.19-8.73,8.03  l8.66-25.94c-6.06,0.69-6.41,7.85-12.38,7.07c-2.45-8.18,3.43-15.44,6.17-22.26L451.22,770.17z" />
<path class="cls-1" d="M369.43,1121.79c38.93,7.36,63.72,45.12,60.89,84.88c1.31,1.26,4.1,2.78,4.78,3.75  c1.14,1.63-1.07,3.05-1.09,4.43c-46.06,12.88-96.19,10.68-144.22,3.42c-1.42-5.27,0.19-9.67-0.19-14.1l5.73-3.18  c9.13-1.52,45.08-5.8,51.02-3.25c1.07,0.46,2.07,1.09,3.04,1.78c0.88-0.67,1.78-1.3,2.75-1.77c0.95-0.46,1.87-0.87,2.77-0.87  c12.58-0.04,61.16,0.64,68.49,6.39c0.07,0.05-1.03-0.64-1.14-1.27c4.59-32.54-21.66-65.31-53.06-71.87l-1.96-2.97  C366.33,1124.9,368.08,1122.99,369.43,1121.79z" />
<path class="cls-2" d="M355.02,1052.59c9.09,11.91,5.62,27.85,6.29,42.54c-1.44-0.34-3.51-0.64-4.9,0.05l-1.46-30.34  c-0.31-6.48-6.44-9.95-9.38-14.76C348.57,1047.27,352.71,1049.56,355.02,1052.59z" />
<path class="cls-1" d="M421.88,273.49c-2.71,3.13-6.87,4.88-10.73,6.32l-83.67-168.67C366.02,162.41,390.19,220.79,421.88,273.49z" />
<path class="cls-1" d="M428.28,221.27l9.76,42.64c-1.86,3.48-7.14,5.48-10.79,6.8c-5.57-18.24-5.43-38-9.66-56.42L428.28,221.27z" />
<path class="cls-16" d="M367.24,1127.16c31.35,3.36,65.41,42.22,57.1,78.02c-23-4.88-50.43-5.53-74.96-5.66l-2.72-1.14  c-0.78-22.95-1.57-45.9-2.35-68.87l2.62-1.69C353.73,1128.05,362.08,1128.85,367.24,1127.16z" />
<path class="cls-3" d="M346.94,1127.82l2.45,71.7c-20.1-0.1-39.86,3.09-59.8,4.65C286.38,1167.48,310.21,1133.57,346.94,1127.82z" />
<path class="cls-1" d="M113.57,915.97c1.27,5.32-0.23,11.87,1.47,17.32c-22.39,4.67-45.71,5.37-68.72,0.88  c-1.81-0.99-0.48-4.74-0.62-6.15c0.96-1.41,2.17-2.59,3.79-3.18c3.45-1.26,21.94-1.44,26.72-1.08l4.21,2.45l3.16-2.8  c8.46,0.58,16.75,1.25,24.87,2c-0.55-4.07-0.91-8.07-1.1-11.99l-3.05-1.88c-4.11-9.05-12.09-15.76-22.2-16.69l-1.67-2.74  c0.63-1.94,1.25-3.93,2.54-5.55C96.36,894.1,108.14,900.64,113.57,915.97z" />
<polygon class="cls-4" points="771.67,816.81 674.57,820.91 674.43,779.64 675.03,734.36 771.94,726.69 " />
<path class="cls-16" d="M765.8,680.93l7.15,38.33l-109.89,8.09l59.06-42.67c8.99,0.14,17.85-2.07,26.75-2.97  C754.46,681.14,760.18,681,765.8,680.93z" />
<path class="cls-12" d="M602.56,1027.22l0-2.99c7.83-3.47,9.8-6.73,5.9-9.79l0.69-3.1l-8-2.82c-4.26-1.34-6.79-3.52-7.61-6.54  l0.15-28.22l25.9-0.49l-0.41,62.2l-13.09-0.15C601.72,1035.27,602.91,1031.38,602.56,1027.22z" />
<path class="cls-7" d="M579.71,998.78c-0.63,2.82-3.02,4.98-7.15,6.5c9.55,2.13,19.24,3.17,29.08,3.11l7.51,2.95  c2.86,2.92,6.11,5.63,2.88,9.41c-2.12,2.48-6.3,4.95-9.47,6.47c-6.48-3.62-12.48-10.26-20.14-8.17l-1.8,1.9  c-2.19,22.43-18.87,20.74-21.16-2.31c0,0,0.62-9.19,1.86-27.57c2.41-4.91,7.74-8.16,12.72-5.21  C578.28,988.36,579.87,994.08,579.71,998.78z" />
<path class="cls-6" d="M611.96,1071.2c1.7,2.37,1.46,2.81-1.47,2.72l-2.44,2.29c-25.56-1.81-47.35,20.13-44.57,46.07l-2.42,2.93  c3.89,0.91,2.9,5.62,0.46,7.74c-2.29-0.41-4.54-1.13-6.9-1.13c5.77-17.03-4.98-46.38,41.9-62.31c-0.41-5.29-2.14-17.18,5.13-15.63  c4.55,0.97,10.62-4.4,10.98,4.4c0.07,1.79-4.42,0.28-5.72,1.63c-0.68,0.7,0.44,3.78,2.47,4.05c0.92,0.12,2.89-0.92,2.87,1.69  c-0.01,1.98-4.43-0.06-5.29,1.18C605.94,1068.29,611.02,1066.22,611.96,1071.2z" />
<path class="cls-2" d="M646.61,1096.03c-0.02,9.84,4.98,20.04,2.85,29.99c-2.29,3.23-3.61,2.87-3.75-1.07l-2.43-2.71  c1.3-20.04-11.43-39.57-30.98-45.12l-1.82-3.21c-0.09-1.14,0.39-2.26,1.47-2.72C627.71,1072.12,636.1,1085.74,646.61,1096.03z" />
<path class="cls-15" d="M579.71,998.78c3.31,4.79,9.55,1.56,13.82,3.2c5.98,2.3,11.39,5.06,15.61,9.36  C603.6,1010.64,545.99,1011.57,579.71,998.78z" />
<path class="cls-1" d="M582.42,1019.05c-1.45,5.4-0.52,19.01-11.39,19.35c-17.22,0.55-13.98-38.64-9.71-47.34  c1.85,11.55-6.95,47.61,10.81,42.84C584.21,1030.66,575.33,1013.35,582.42,1019.05z" />
<path class="cls-1" d="M597.32,1121.69c0.9-0.66,1.83-1.28,2.82-1.73c7.54-3.42,33.27,0.73,41.48,5.07c0.32-3.85,2.75-3.68,4.1-0.08  c1.23,0.37,2.35,1.28,3.75,1.07c1.68,1.28,3.17,3.41,2.73,5.78c-29.88,6.71-60.56,6.49-90.68,1.14c-1.79-2.37-0.19-5.27-0.46-7.74  l3.87-3.24c5.2-1.35,26.91-4.11,30.23-2.08C595.94,1120.38,596.64,1121.01,597.32,1121.69z" />
<path class="cls-12" d="M966.7,679.07c3.28,8.99,13.24,14.15,13.6,25.25c-6.83-1.72-8.17-9.07-13.2-11.73  c-0.99,3.59-0.05,5.36,0.11,8.25c0.08,1.4-1.59,3.29-3.76,1.6c-1.01-0.79-2.46-1.86-4.4-1.94  C959.56,693.46,959.53,684.41,966.7,679.07z" />
<path class="cls-3" d="M80.14,893.27c3.41,2.18,4.31,12.92,0.28,14.69c3.83-0.93,3.23,15.71,2.68,16.43c-0.7,0.92-1.52,1.57-2.68,1.82  c-11.59,0.8-23.19,0.08-34.72,1.81c-0.72-7.12,2.86-21.06,8.94-26.02C62.5,895.6,70.16,891.3,80.14,893.27z" />
<path class="cls-7" d="M107.36,913.42c-0.48,0.96-1.21,2.39-2.02,2.32c-2.39-0.2-22.66-4-23.58-4.78c-0.89-0.76-1.21-1.89-1.33-3  c0-4.9-1.05-9.8-0.28-14.69c0.06-0.39,0.17-0.79,0.3-1.16C92.61,892.07,104.7,901.57,107.36,913.42z" />
<polygon class="cls-3" points="938.14,1035.55 899.35,1035.91 899.08,972.9 937.9,973.22 " />
<path class="cls-1" d="M1018.16,908.01c-12.33,1.19-23.08,0.35-35.15,0.17l-0.15-59.05l34.81,0.68L1018.16,908.01z" />
<polygon class="cls-1" points="1095.22,1033.9 1061.04,1034.42 1060.82,974.92 1094.79,975.46 " />
<path class="cls-12" d="M778.22,972.3c8.63-0.18,16.1-0.08,23.91,0.74l-0.05,63.17l-23.87,0.5l-18.76-0.59l-0.02-63.42L778.22,972.3z" />
<path class="cls-15" d="M107.36,913.42c4.15,3.48,3.93,9.94,3.65,15.39c-10.59-0.88-20.47-3.29-30.58-2.59v-18.25L107.36,913.42z" />
<path class="cls-3" d="M610.49,1073.92c23.17,4.99,38.08,28.26,35.22,51.04c-1.23-0.37-2.81,0.3-4.1,0.08l-9.3-3.62  c-10.31-7.57-21.21-13.74-32.68-18.5l0.32,16.86l-2.64,1.92c-12.17-0.24-24.26,1.89-36.26,3.52c-1.58-14.27,1.43-27.5,12.38-38.56  C581.45,1078.55,597.08,1071.03,610.49,1073.92z" />
<path class="cls-15" d="M641.61,1125.03c-14.59-2.56-29.47-3.05-44.3-3.34l-0.45-23.45C613.84,1105.38,628.07,1114.93,641.61,1125.03z  " />
<g>
</g>
<g>
</g>
<g>
</g>
<g>
</g>
<g>
</g>
<g>
</g>
<g>
</g>
<g>
</g>
<g>
</g>
<g>
</g>
<g>
</g>
<g>
</g>
<g>
</g>
<g>
</g>
<g>
</g>
</svg>