<?xml version='1.0' encoding='UTF-8'?>
<svg xmlns="http://www.w3.org/2000/svg" id="Layer_1" viewBox="0 0 1200 1543" xml:space="preserve" width="1200" height="1800">
<style type="text/css">
      .cls-1 {
        fill: #060514;
      }

      .cls-2 {
        fill: #0a0d47;
      }

      .cls-3 {
        fill: #171530;
      }

      .cls-4 {
        fill: #362975;
      }

      .cls-5 {
        fill: #7825fe;
      }

      .cls-6 {
        fill: #4747f8;
      }

      .cls-7 {
        fill: #934cfd;
      }

      .cls-8 {
        fill: #8b6ae2;
      }

      .cls-9 {
        fill: #9f5dfa;
      }

      .cls-10 {
        fill: #b075fa;
      }

      .cls-11 {
        fill: #c58beb;
      }

      .cls-12 {
        fill: #8facfc;
      }

      .cls-13 {
        fill: #d6a6e8;
      }

      .cls-14 {
        fill: #b3c8fa;
      }

      .cls-15 {
        fill: #f6ced7;
      }

      .cls-16 {
        fill: #d2defb;
      }

    </style>
<path class="cls-5" d="M0,116.52V0h1200v132.61l-1,2.8l-609.65,63.18c-194.28-27.04-388.71-53.4-583.29-79.08L0,116.52z" />
<path class="cls-7" d="M1200,132.61v207.98l-1.04,2.78c0,0-110.21,9.62-330.64,28.85l-1.89-2.52l-21.97,0.04  c-103.04-5.96-206.48-7.81-310.33-5.56l-20.7-0.94c-81.08,5.4-162.3,6.52-243.64,3.37c-35.93,0.69-70.77,1.94-104.5,3.77  c-18.13-1.49-36.25-1.83-54.37-1.03l-1.11,2.61c0,0-36.13-2.52-108.38-7.55L0,361.61V300l53.39-0.24  c290.74,7.24,581.45,13.29,872.14,18.14c-248.59-12.07-497.11-25.49-745.55-40.28c-23.8,2.18-39.04,1.07-34.26-7.64l508.22-20.66  l-266.56-16.17l-1.5-2.77c-5.22-5.71,8.82-6.98,13.54-7.4c4.62-0.41,9.27-0.51,13.93-0.58l-55.85-1.35  c-3.63-0.9-3.55-2.59-2.22-5.57l126.21-12.87L1.61,191.56L0,188.84v-72.32c15.56,0.56,31.18,2.92,46.93,5.08l542.42,74.32  L1200,132.61z" />
<path class="cls-16" d="M530.61,869l2.65,4.12c0.08,28.17,11.42,54.31,33.1,72.56c-0.65,20.44,5.18,39.54,12.45,58.37l-1.25,4.43  c-1.27,0.88-2.57,1.72-3.95,2.37c-1.36,0.64-2.7,1.24-4.09,1.44c-14.04,1.98-28.3,2.69-42.45,3.34c-32.65,0.7-65.33,1.17-97.99,1.37  c-1.41,0.01-2.83-0.35-4.27-0.75c-1.47-0.41-2.9-0.99-4.31-1.62c-1.03-0.62-1.9-1.57-1.69-2.69c5.4-27.84,9.02-56.87,7.71-85.22  c-5.1-8.14-12.52-6.57-15.27,2.65c-2.41,24.78-4.04,49.6-4.89,74.48c1.61,4.22,1.46,7.58-0.44,10.06l-2.66,2.57  c-13.95-0.27-27.89,0.23-41.83,1.47l-2.74-2.57c-0.5-1.8-1.77-1.78-3.8,0.04c-1.98,3.11-5.84,4.48-11.58,4.12  c-3.42,1.39-6.11,1.22-8.07-0.5c-2.95,0.61-2.03-4.89-0.4-6.54c-1.1-0.76-0.68-7.88,0.06-7.3c1.2,0.93-0.57,6.46-1.77,7.3  c1.14,1.86,0.93,6.79-1.36,7.65l-1.52,3.24c-11.56,2.83-14.46,9.42-0.57,10.3l1.11,2.92c1.4,2.37,0.72,7.92-1.72,9.22  c-1.04,3.39-4.05,5.16-9.04,5.3c-6.07,1.38-16.78,3.54-21.57,0.31l-2.31-0.73c-1.37-3.49-2.35-3.23-2.93,0.76l-0.57,2.77  c-16.56,2.08-33.12,4.17-49.69,6.26l-1.91-2.46c-1.65,1.39-3.11,1.95-4.37,1.7c-0.96,1.26-2.08,2.5-3.61,3.04  c-3.43,1.21-17.14,4.19-20.83,4.56c-1.63,0.16-3.17-0.61-4.55-1.37c-2.68,0.68-3.03-1.34-0.42-2.34l0.29-3.16  c4.51-2.49,8.49-8.21,8.62-13.48c0.9-35.01,1.64-70.01-0.52-104.83c-0.2-3.22-8.35-9.65-11.12-9.76c-2.83-0.12-10.8,7.1-10.94,10.48  c-1.43,34.58-0.48,69.42,0.67,104.07c0.18,5.33,3.79,11.34,8.78,13.4l0.64,3.11c0.67,0.11,1.3,0.28,1.77,0.65  c0.65,0.52,1.07,15.61-2.26,15.3c-2.25,9.26-21.21,19.7-30.1,20.69l-4.34-1.65c-4.94-15.24-5.7-32.59-5.71-48.65l-0.16-3.38  c5.09-4.35,8.19-10.2,7.99-17.01l-6.82-92.2c-5.18-20.13-22.28-17.61-22.47,4.45l8,91.63c0.9,6.14,5.03,10.53,10.41,13.26l0.53,3.27  c0.71,0.01,1.26,0.04,1.27,0.13c1.99,15.99,3.95,33,4.84,49.07c0.04,0.74-1.04,1.32-2.02,1.75l-3.85,3.23l-19.02,2.86  c-6.77,2.39-13.11,3.11-19.02,2.16l-1.83,0.09c-7-16-14.37-32.24-22.12-48.7c5.41,13.27,10.57,26.78,14.59,40.56  c0.29,0.99,0.2,2.11,0.08,3.26c-0.12,1.19-0.43,2.36-0.79,3.52c-3.84,3.56-8.65,4.28-13.72,4.6c-30.63,2.33-61.14,5.62-91.52,9.87  L0,1120.98V883.93c1.01-1.82,2.9-2.25,3.09,0.09l2.69,1.42c-0.29,18.38,3.62,12.21,1.72-1.05l1.59-2.52  c-0.63-7.99,2.86-9.97,7.71-3.12c2.03,2.77,1.84,4.05-0.57,3.84c-0.2,1.01-1.02,0.82-1.55-0.05c-2.51,2.83,0.84,17.9,1.55,17.32  c1.38-1.1,1.99-13.82,1.86-16.47c0.08-1.1,0.87-1.54,2.14-1.54c0.53-2.31,0.93-4.74,1.19-7.3l0.09-1.44  c1.69-1.66,4.16-1.63,7.44,0.09c136.42,5.29,275.38,4.67,412.81-1.46l10.69,1.16l3.32,0.64c0.9,8.63,5.11,8.05,12.63-1.75l3.41-0.17  l3.29-2.83c17.94-0.8,35.88-1.6,53.81-2.4L530.61,869z" />
<path class="cls-11" d="M1200,508.58v118.34l-1.19,2.69c-41.18,0.16-84.37,1.26-129.55,3.28c-135.02-1.18-271.66-2.85-407.1-9.84  c-5.47-0.28-10.93-0.98-16.39-1.7c-5.46-0.72-10.9-1.65-16.33-2.64l3.11-5.25c21.95-15.14,42.58-34,56.04-56.86  c-4.25-2.61-5.81-5.88-4.68-9.84c-10.77,10.26-24.2-2.9-11.55-11.12l0.78-2.73l162.76-9.37l-216.38-5.53  c-0.9-1.84-2.75-1.88-5.54-0.14l-41.96-1.07l-1.58-2.72c-2.11-1.27-3.37-3.98-3.76-8.11c-1.57,2.03-2.45,4.46-2.62,7.31l-2.83,1.12  l-6.64,1.67c-21.36-2.24-42.74-3.11-64.16-2.63l-3.28-1.59c-0.25,4.02-5.17,3.84-6.07-0.05c-10.01,0.78-20.05,1.4-30.09,1.05  c-140.33-4.94-280.64-9.83-421.03-13.44C19.9,498.84,9.92,497.32,0,495.54v-5.36c4.77-3.61,10.93-4.95,18.48-4.03  c112.7-0.53,225.38-0.41,338.05,0.34l47.49-1.66c33.73,2.84,66.56,0.05,99.1-3.26c0,0,25.48,0.5,76.45,1.5  c2,3.18,2.65,3.08,0.59,0.18c9.35,0.54,17.44,0.05,26.36-2.64l591.93,25.22L1200,508.58z" />
<path class="cls-9" d="M866.44,369.7c-0.15,2.52-1.96,3.63-5.42,3.33l337.3-1.28l1.68,2.67v17.95l-1.01,2.79l-509.56,51.6l508.88-4  l1.69,2.67v16.84l-4.59,1.92c-54.14-1.67-105.56-1.29-159.8,1.35l-83.39-0.23c-184.38,3.48-365.7,3.77-543.98,0.86  c-40.29,2.41-60.43,3.61-60.43,3.61c-8.19,2.41-16.16,2.69-23.92,0.85c-106.41-2.77-213.86-6.95-322.34-12.54L0,455.36v-22.77  l30.11-2.2c251.38-3.91,502.77-8.07,754.17-12.45l27.62,0.57l-27.76-0.72l-671.74-45.67l-1.49-2.79  c15.42-5.76,33.75-0.72,50.78-1.49l65.4-2.98c44.88-2.04,88.98-0.3,134.65,0.63c49.59,1.01,97.57-0.91,146.7-4.75  c9.48-0.74,18.34,0.92,27.25,0.74c57.96-1.21,115.63-0.26,175.48,0.42C763.11,362.49,816.13,362.93,866.44,369.7z" />
<path class="cls-8" d="M1200,935.43v371l-3.07,2.35c-57.97-4.41-118.13-3.98-175.1,1.32c-2.94,2.26-5.63,3.04-8.07,2.33  c-0.77-1.19-1.95-1.71-3.53-1.57c-1.29-0.81-2.68-1.79-3.2-3.29c-6.75-19.56,13.46-60.35,26.83-75.21  c-10.72-65.67-11.75-133.32,0.3-198.88c-9.98-11.89-20.61-28.77-23.27-44.31l1.78-4.61l0.77-2.73l113.91-6.55  c3.29-0.82,6.54-1.45,9.75-1.88l2.22-2.48c7.66,2.04,8.57-0.54,7.75-7.52l2.98-2.31l-2.46-13.15c-1.51-6-0.54-9.91,2.92-11.71  C1165.32,930.93,1184.94,930.9,1200,935.43z" />
<path class="cls-2" d="M836.74,1512.08l-5.77,2.38c-25.84-1.08-51.87,2.6-75.87,12.46l-6.23-0.23l-5.06-3.94  c-9.6-17.42-21.55-33.73-35.86-47.51c13.28,16.75,24.07,34.68,32.36,53.78l-0.6,3.11l-0.1,3.26c-4.22,3.21-8.78,5.7-13.69,7.47  h-408.8l-6.18-2.01c-8.28-13.75-12.64-33.26-13.33-49.29c-0.76-17.57,5.36-20.36,22.11-23.85c1.91-1.67,3.91-2.89,5.99-3.67  l1.91-2.57c4.98-0.96,20.21-1.86,25.07-1.17c4.41,0.63,12.83,1.95,11.6,7.38l2.26,1.88c-1.04,8,5.35,15.12,12.23,18.29l0.26,2.95  l1.99,2.17l-7.54,17.86l5.49-8.95c1.75-5.64,4.5-9.87,8.24-12.69c7.3-9.54,14.5-19.19,21.58-28.95l3.69-0.43  c1.61-1.28,3.86-1.72,6.73-1.32c8.72-3.46,17.45-4.75,26.2-3.86c2.53,2.26,4.56,2.25,6.07-0.02l38.22-1.19c0,0-2.16-0.99-6.49-2.97  c-3.97-1.23,6.62-16.64,7.55-17.26c0.91-0.61,2.17-0.41,3.28-0.2c11.6-1.22,23.24-2.25,34.91-2.33c99.34,0.37,198.67-0.89,298-3.8  c3.88,0.16,10.55,67.61,11.37,76.7c0.12,1.37-0.11,2.77-0.38,4.2C837.7,1509.23,837.24,1510.66,836.74,1512.08z" />
<path class="cls-6" d="M389.85,1368.79c-0.92,24.34-5.16,58.09-16.11,80.01c-0.6,1.21-1.58,2.23-2.65,3.2l-0.83,2.71l-121.46,4.65  c24.25-0.86,48.34-0.02,72.25,2.52l4.65,2.16c-2.33,12.21-20.4,2.61-25.46,18.57c-1.48,4.68,3.87,53.72,16.87,60.25H0v-104.46  l5.77-2.44c51.55-5.97,102.82-13.73,153.83-23.29l-9.28-2.88c-4.41,0.16-7.59-0.89-9.53-3.13c-14.05,0.02-28.87-2.47-40.12-11.52  l0.09-3.6c14.05-4.85,28.92-7.46,44.6-7.84c77.85-6.61,155.95-11.72,233.83-16.67c1.74-0.11,3.51,0.14,5.3,0.44  C386.31,1367.77,388.08,1368.25,389.85,1368.79z" />
<path class="cls-6" d="M1200,1306.44v236.42h-145.39l-0.22-3.01c8.33-13.78,18.54-26.37,30.64-37.77  c-14.01,10.63-25.65,24.18-36.29,38.15l-5.26,2.63h-52.99c-0.36-1.58-0.66-3.16-0.77-4.76c-0.1-1.57-0.18-3.11,0.15-4.55  c9.14-40.02,25.78-78.11,43.84-114.78c-22.57,37.56-37.35,78.81-50.74,120.23l-2.89,3.87h-40.79l-2.16-4.24  c0.69-11.94,2.79-23.56,6.29-34.86l26.04-13.2c24.92-14.34,37.92-25.57,39.43-54.53l-0.6-117.29c0,0,0.89-1.19,2.67-3.56l1.58-1.42  c-1.84-1.81-1.14-2.5,1.23-1.31c8.8-9.37,20.61-5.48,32.11-6.7C1079.76,1302.14,1165.45,1302.36,1200,1306.44z" />
<path class="cls-9" d="M385.88,230.37l321.31,19.49l-562.64,22.85c308.57,19.6,615.85,33.66,922.83,49.89  C710.63,317.89,355.63,310.47,0,300v-92.41l1.43-2.6c127.63,7.54,255.28,15.07,382.95,22.61L385.88,230.37z" />
<path class="cls-14" d="M31.11,1221.25l8.65,0.55c17.39,5.18,34.6,10.79,51.62,16.83l3.57,2.78c3.72-2.33,9.39,4.69,6.94,8.07  l2.21,1.76l-19.86,55.16l2.08-0.14c4.59-13.98,10.36-27.37,17.32-40.17l3.41-3.26l4.39,1.65c6.68,11.66,12.51,23.76,17.47,36.28  l2.9,0.42c-4.71-14.87-11.02-29.08-18.93-42.62l0.36-5.08c-4.05-2.35-2.13-7.27,2.41-6.86l2.95-1.63c4.88,2.62,10,4.51,15.36,5.67  l2.68,2.85l3.68,1.99c6.77,13.61,13.8,33.56,11.76,48.3c5.18-0.3,10.52-0.12,16.03,0.55l-0.43-39.29l2.66-1.97  c1.75-3.33,8.08-2.11,8.88,1.43c0.79,0.56,1.53,1.16,2.15,1.87c4.79,5.55,1.41,31.53,0,39.69c3.35-0.19,5.4,0.85,6.15,3.13  c0.62-2.27,1.82-2.78,3.85-1.92c-1.1-8.88-1.95-17.87-2.54-26.98c-4.42-1.43-1.56-11.52,2.65-12.05c8.02-6.18,10.91,1.65,9.42,9.54  l2.54,1.77l-2.42,28.19c0.6,1.27,2.01,1.7,4.23,1.28c-0.7-12.12-0.12-23.89,1.73-35.31l2.03-1.4c0.6-3.9,5.76-3.67,6.64,0.15  l2.49,1.54l-4.88,35.95c0.95,0.33,1.88,0.35,2.8,0.07l6.06-33.8l2.98-1.45l1.93-2.4c6.13-0.01,18.91,2.57,23.35,6.5  c5.37,0.13,11.43,11.45,13.23,16.52c0.59,1.67,0.78,3.43,0.26,5.15l1.86,2.53l-1.3,13.05l8.65-0.11  c-4.04-10.07-2.73-20.87,3.92-32.39l2.97-0.68c1.66-0.84,3.48-1.71,5.39-1.59c6.65,0.41,18.02,1.96,24.46,3.44l4.64,3.23  c1.57-2.46,4.79-2.72,9.66-0.77c2.84-0.35,4.68,0.47,5.54,2.47c2.1-3.3,3.9-2.65,3.66,1.21c1.5-3.39,5.04-3.01,5.37,0.8l3.98-2.11  l19.32,2.51l3.46,2.76c1.64-3.9,6.94-1.63,8.31,1.51c1.29-3.75,2.61-3.7,3.8,0.02c2.48-2.51,5.59-1.85,7.57,0.83  c2.9-1.76,8.5-1.15,9.98,2.47c0.98-3.6,2.57-3.3,2.93,0.46c1.53-3.22,6.43-2.84,6.27,1.2c1.68-3.34,6.78-2.64,7.02,1.36  c1.95-3.46,9.24-2.43,10.47,1.59c1.79-3.49,10.06-1,10.8,2.46c2.84-5.06,15.63-0.91,17.12,4.31c2.42-3.02,9.88-0.98,10.93,2.6  c2.75-5.31,17.13,1.71,18.62,6.4c3.58-3.08,11.24,1,13.68,4.36c2.52-2.05,4.67-0.83,6.44,3.68c3.36-4.46,13.93,5.84,10.87,9.67  c1.51,2.1,1.45,2.62,0.21,4.32c-3.74,5.11-25.04,7.92-31.58,8.67c-28.92,3.32-59.13,3.57-88.28,3.4  c-82.59-2.11-168.68-3.42-253.01,0.45c-7.72,0.35-91.65,6.08-93.69,11.69c-0.18,0.5,8.43,3.17,9.9,3.63  c17.9,1.69,33.47,7.55,46.72,17.59l0.21,3.97c9.94,10.29,26.47,10.88,40.02,15.12c-5.92,2.71-8.88,4.07-8.88,4.07  c-40.65,4.63-81.44,7.43-122.38,8.4c0,0-3.18-0.72-9.53-2.16v-207.59c2.92-2.07,6.41-1.91,10.46,0.5  C17.15,1212.16,27.57,1215.73,31.11,1221.25z" />
<path class="cls-10" d="M1200,462.28v46.31l-594.88-25.34c-7.47,3.03-14.2,3.61-24.27,2.12c9.43,1.4-87.66-0.21-76.62-1.19l-46.35,4.12  c-20.86,1.85-40.42-1.44-61.34-0.64l-39.97,1.53l-90.07-0.4c-33.77-0.15-66.24-1.02-99.79-0.69L51.06,489.2  c-17.28,0.17-33.98-1.5-51.05,0.98v-34.82l266.3,11.6c5.89,0.26,59.29,1.43,57.86,1.05c11.42,3.02,14.44,0.13,23.34-0.87  c28.4-3.2,57.37-4.04,86.05-3.61l100.46,1.52c115.85,1.75,231.52,1.49,347.88-1.19c50.49-1.16,99.13-1.86,148.26-0.98  c15.32,0.27,30.95-1.88,46.03-1.93l70.3-0.25C1164.76,460.63,1182.55,458.86,1200,462.28z" />
<path class="cls-13" d="M1200,626.92v56.13c-3.52,4.27-14.94,4.61-18.15-0.08l-2.89-0.39l-2.83-9.21c-3.73,7.05-5.78,5.55-8.76-1.01  c-1.45-8.18-3.7-15.7-6.74-22.57c-3.55,12.42-6.18,25.07-7.89,37.95c-4.28,3.37-7.58,0.14-9.92-9.69  c-8.21,20.41-20.48,14.13-26.06-4.68c-1.36,4.43-3.48,7.65-6.33,9.66c-3.52,4.3-14.18,4.53-17.46-0.09l-3.48-2.24  c-1.25-5.04-3.03-9.82-5.34-14.34l-5.62,21.36c-3.39,2.95-6.19,1.4-8.4-4.65c-3.32,4.16-12.76,4.46-15.97,0.1  c-3.97-1.25-6.34,3.07-5.78,6.69c-9.43,4.56-14.79-6.51-16.96-14.5c-1.17,3.4-6.3,17.05-11.42,12.39c-0.74-0.68-0.3-2.22,0.14-3.37  c-2.75-2.2-4.65-1.97-5.69,0.7c-5.86,0.24-11.73,0.56-17.59,0.94l-2.92-2.97c-2.69,0.15-5.38,0.5-8.06,1.03l-4.22,2.09  c-10.95-1.44-22.09-1.77-33.04-0.11l-4.22-1.96c-0.18,1.28-0.69,1.32-1.5,0.24l-8.2,1.38c-73.48-0.83-147-1.12-220.55-0.86  c0,0-5.44-0.97-16.32-2.92l-3.83-0.26c-13.83-13.7-35.78-16.38-54.3-13.22c-38.05,13.09-73.23,10.78-109.23-7.19l-2.88-4.08  c3.3-2.76,4.96-4.14,4.96-4.14c31.04-8.43,62.5-17.01,90.42-33.48l6.48-0.84c136.74,7.32,274.8,9.54,411.19,11.79  c31.92,0.53,63.08-2.35,94.08-2.75L1200,626.92z" />
<path class="cls-4" d="M514.52,659.24c4.28,1.22,3.15,9.52-1.64,7.95l0.45,3.24l-12.2,11.71l11.08,30.75  c16.27,42.88-36.59,53.54-68.71,57.53c-22.53,1.15-44.81,3.22-66.83,6.21c0.3,2.54-1.17,4.95-4.42,7.23l18.98,0.56l4.84,2.62  l3.54,0.05c3.74,3.04,13.14,13.54,10.13,17.87c-4.16,0.75-8.32,1.43-12.5,1.92c-4.17,0.48-8.34,0.92-12.51,0.97  c-37.52,0.5-75.12-0.35-112.63-1.25c-89.96-3.42-178.86-6.98-266.72-10.7L0,794.2v-57.59c3.59-15.85,13.93-14.47,19.91-0.4  c3.24-4,7.34-3.56,10.1,0.71c6.77-7.83,11.65-3.63,13.89,4.91c9.72-8.99,20.51-4.95,26.1,5.26c4.87-2.47,10.44-1.06,16.7,4.23  c7.97,1.02,15.81,3.61,23.52,7.78c14.01-0.93,27.37,0.7,40.08,4.88c10.16-2.6,18.57-1.35,25.23,3.77  c9.71-5.97,15.93-6.51,24.74,1.06c10.44-0.81,23.81-1.07,30.55,8.03c0.12-0.63,0.52-0.86,1.15-0.86c22.28-0.04,42.6,3.08,64.43,7.71  c1.11-8.18,2.34-16.49,3.71-24.91c3.94-31.96,10.2-42.97,40.84-56.34c19.61-8.56,41.72-15.43,62.13-21.54l1.4-4.02  c6.21-4.36,11.98-9.25,17.32-14.68l4.3-0.5l-0.67-3c4.85-4.12,9.96-7.31,15.31-9.56c-0.98-4.21,2.49-6.33,10.42-6.36  c-3.17-4.28-3.59-7.31-1.28-9.08l3.18-1.58c7.56,2.52,29.12,14.88,30.13,22.7c0.4,3.09-0.26,4.62-3.3,6.01  c-9.85,1.89-11.35,4.5-4.5,7.83c10.02,0.24,20.01-2.84,29.97-9.25C509.67,656.76,512.73,656.71,514.52,659.24z" />
<path class="cls-10" d="M110.92,369.34l734.33,49.92C560.62,425.84,281.32,428.68,0,432.59v-70.98L110.92,369.34z" />
<path class="cls-15" d="M403.07,680.9c-27.15,15.91-86.86,23.87-94.78,51.79c-1.3,4.57-13.45,59.86-6.3,54.22  c-1.86,1.46-58.35-12.7-71.78-7.7c-7.85-8.47-17.66-8.59-29.5-7.74c-4.31,0.31-8.27-7.06-12.54-5.86  c-4.36,1.23-7.52,0.97-12.65,7.04c-6.3-13.14-21.55-3.44-28.55-6.69c-12.88-5.98-21.94-2.97-36.1-4.07  c-6.46-0.5-15.93-8.78-22.93-7.76c-4.82,0.7-10.47-9.44-18.36-4.71c-3.84-3.74-8.04-9.71-13.8-10.16c-5.01-0.4-7.84,4.25-13.32,6.34  c-1.81-4.5-2.19-6.9-3.94-9.29c-1.66-2.26-4-0.57-5.46,1.64c-1.19,1.8-1.51,4.08-2.98,6.78c-1.72-3.33-1.09-6.96-4.96-8.76  c-1.91-0.89-4.01,4.76-6.91,3.69c-2.67-4.42-4.04-11.74-9.18-11.85c-4.05-0.09-5.46,6.51-9.02,8.8v-56.25l1.28-2.68  c133.35,0.18,266.73,0.36,400.13,0.54L403.07,680.9z" />
<path class="cls-13" d="M306.59,611.91l3.51-0.6c11.67,5.48,22.99,11.51,33.98,18.09c5.59,5.96,11.83,10.92,18.74,14.9l62.32,14.43  l0.95,2.96c-7.44,7.23-14.19,14.04-23.01,19.21L0,680.36V606.7c13.49-2.97,27.23-2.67,40.95-2.18c85.16,2.33,170.3,4.24,255.44,5.73  L306.59,611.91z" />
<path class="cls-10" d="M481.1,511.79c3.58,7.52,3.77,19.98,0.75,27.73l-2.6,1.79c-6.14-1.46-12.42-1.23-18.85,0.71  c-6.35-0.54-8.19-5.43-5.53-14.68c-5.2,8.38-10.7,16.56-16.5,24.55c-26.82,13.12-23.88-13.67-20.82-30.6  c-4.23,9.6-7.9,19.46-11,29.59l-3.43,0.83c-3.13,3.58-7.68,5.08-13.65,4.49c-6.66,1.23-11.94,0.26-15.84-2.91  c-3.01,0.08-4.82-1.83-5.43-5.71l-4.94-25.7c-0.7,9.9-0.04,19.75,2,29.57l-2.34,2.78c-2.2,4.73-14.72,6.3-17.47,1.62  c-2.36,1.75-6.67,3.76-7.98,0.05c-12.59,5.29-29.23,6.44-42.29,2.41l-2.72-1.47c-0.07-18.27-3.94-15.8-4.55,0.36l-2.72,1.4  c-1.13,0.89-2.29,1.72-3.54,2.39c-1.23,0.65-2.44,1.26-3.71,1.46c-25.44,4.02-51.72,4.2-76.51,1.7c-7.55,1.73-11.33,2.6-11.33,2.6  c-44.85-2.82-89.75-3.2-134.71-1.14L1.91,565.2L0,562.5v-66.96C160.36,502.29,321.42,502.59,481.1,511.79z" />
<path class="cls-12" d="M452.45,872.91c-141.1,8.5-285.96,8.5-419.52,2.55c-3.82-0.17-3.06,2.04-11.42-2.35  c-1.04-2.47-1.07-1.99-0.09,1.44c3.45,1.85,2.04,6.72,2.17,10.97c-0.92-2.43-1.68-2.74-3.36-3.67c-4.22,1.87-4.71-9.02-3.38-12.77  c-0.96-0.38-1.72-0.79-1.82-1.33c-0.7-3.7,3.03-17.94,0.71-1.82c-0.48,3.47-2.12,6.32-5.82,4.96c-2.76,3.53-6.32,3.09-8.58-0.57  c-0.92,0.45-1.33,0.01-1.34-1.12v-33.48c-0.1-3.85,3.07-3.86,4.29-0.27c1.63-3.94,5.27-2.59,4.06,1.49  c2.73-2.43,4.28-1.02,4.37,2.49c2.34-0.45,4.71-1.76,7.11-3.92c5.01-3.57,10.97-4.17,16.96-4.53c40.07-4.63,80.26-7.58,120.56-8.82  c0,0,2.39,2.28,7.17,6.83c2.83,1.48,3.64,4.98,0.39,6.63c1.4,3.87,2.83,7.98,2.35,12.16c4.18-0.68,5.76-4.1,4.74-10.26l2.25-12.41  l2.8-1.3c7.55-2.1,11.32-3.15,11.32-3.15c83.67-0.33,166.56,0.66,248.68,2.98l3.56,2.75c-1.41-3.84-1.97-8.05,3.21-6.52  c4.11,1.21,5.76,14.76,5.67,18.86c-2.15,8.27-2.17,16.2-0.08,23.81C452,866.25,453.02,869.71,452.45,872.91z" />
<path class="cls-4" d="M1181.85,682.98c2.95,0.51,4.13,2.97,3.52,7.39c5.05-0.83,8.33,2.85,9.82,11.03  c2.63,13.34,4.23,26.87,4.8,40.57v18.35c-7.17,1.62-14.4,3.09-21.75,3.59c-54.61,3.74-109.04,7.85-163.62,12.14  c-7.34,0.58-14.72,0.1-22.04-0.48l-5.86-1.55c-25.69-21.65-57.95-32.71-91.13-35.82l-5.17-3.13l-1.7-3.76  c0.73-5.02,7.46-25.66,11.51-26.93c2.23-0.7,5.44,2.12,6.67,4.16l4.05-14.11c7.07-17.87,12.77-2.7,14.79,7.85  c3.06-1.27,5.68-1.89,7.89,0.99l5.39-16.55l3.85-2.39c0.48,0.03,1.03-0.15,1.5-0.24l4.2,0.76c4.62,7.53,7.58,15.85,8.89,24.95  l9.15-17.25c4.55-3.92,8.35-1.28,11.39,7.91l1.25,0.96l3.54-14.62l3.07-2.74c0.18-1.64,2.33-3.02,2.59-4.49  c0.32-1.88,1.92-1.68,2.9-0.27l2.57,3.73l3.75,1.47c2.54,5.76,4.39,11.78,5.56,18.07c5.06-4.88,8.29-11.3,9.7-19.26  c3.37-1.66,5.77-1.31,7.2,1.04c5.84,7.66,8.78-18.4,11.88-13.56c5.54,8.63,2.33,15.8,14.97,18.33c-3.65-4.92,0.17-4.37,1.51-6.98  c2.25-4.4,4.39-3.11,5.66,1l3.23,1.41l4.8,15.62c2.53-3.91,4.17-8.74,4.91-14.5l3.03-2.63c1.51-0.02,2.53-1.41,3.25,0.2  c0.69,1.52,0.64,3.15,2.6,4.17c3.59-9.37,2.95-18.96,8.6-28.18c3.84,8.51,6.09,16.13,8.39,23.68l3.32,1.83  c1.33,6.46,3.19,12.72,5.56,18.8l5.48-19.43l3.1-1.11c0.34-4,3.64-10.82,5.66-14.29c6.68,5.28,4.94,13.78,10.46,17.71  c3.49,2.48,9.24,1.67,9.87-1.8c0.5-2.77,3.21-6.71,5.2-9.9c5.9,0.44,5.03,9.28,8.23,13.86c3.36-15.55,3.65-31.23,10.89-45.86  c6.65,11.29,6.66,22.77,10.73,33.53c2.34-2.9,2.19-6.32,6.11-8.39L1181.85,682.98z" />
<path class="cls-16" d="M1148.8,833.06l2.61,1.68c-0.74,4.54-1,9.07-0.78,13.6c-0.06-5.94,1.57-8.87,4.87-8.8  c0.27-1.05,0.72-2.64,1.54-2.7c12.09-0.9,28.86-1.09,40.97-0.47l1.99,2.66v85.57c-5.23,1.4-7.85,2.11-7.85,2.11  c-40.49-3.02-81.36-5.01-121.71,0.63c6.7,1.36,13.67,8.63,6.61,13.5l-31.92,6.5l21.88,8.55c8.25,6.41,2.35,10.68-5.28,13.39  c-17.35-0.27-34.71-0.99-52.06-2.15c-1.04-0.28-2.57-0.7-2.69-1.53c-1.13-8.26-0.57-21.69,2.52-29.3l-2.65-1.3  c0.7-30.77,1.4-61.56,2.1-92.35l2.71-1.54l0.91-2.69c41.26-0.4,82.54-0.8,123.82-1.21l1.66,2.66c3.08,0.41,4.14,3.23,3.18,8.48  l0.87,5.05c1.09,5.09,2.64,36.34,0.76,38.73c-0.74,0.94-2.14,1.17-3.39,1.35c-1.82,0.55-1.72,7.86,0.43,7.71  c-0.15-2.94,0.82-4.38,2.91-4.33c3.44,1.69,4.19,1.41,2.27-0.83c4.95-4.92,4.96-6.14,0.04-3.65l-1.57-0.97  c-0.41-12.96-0.35-25.76,0.19-38.39c-0.71-0.11-1.35-0.3-1.75-0.71c-1.06-1.09-1.6-20.27,2.87-20.35  C1147.09,829.06,1148.37,829.37,1148.8,833.06z" />
<path class="cls-2" d="M1010.22,1310.87c0.6-1.42,2.92-2.23,3.44-3.29c5.59-11.41,1.1,4.4,0.09,4.87l-1.23,1.31l-1.58,1.42  l0.31,101.86c0.05,15.18,2.43,33.82-6.62,46.99c-13.89,20.22-37.21,31.37-59.31,41.37c-3.74,12.17-4.37,25.1-6.03,37.47h-9.8  l-2.43-1.92l4.06-28.25l-24.81,4.11l-2.36-2.31l-1.28-5.83c5.07-45.33,11.87-90.47,20.4-135.42l2.67-5.34l1.7-2.51  c6.11,0.2,10.02-4.35,12.1-9.68l16.26-71.69l2.96-0.97l4.35-0.95c15.8,8.02,27.7,21.66,38.68,35.18  C1004.56,1314.28,1007.37,1312.14,1010.22,1310.87z" />
<polygon class="cls-10" points="1200,392.37 1200,445.43 631.63,449.9 " />
<path class="cls-11" d="M306.59,611.91C204.71,613.38,102.23,607.29,0,606.7v-44.2l42.61,0.41c49.88,0.48,96.52-4.02,147.19,1.24  c10.3-5.25,21.55-1.23,32.48-1.03c21.49,0.39,42.68-1.09,62.89-4.52l2.64,3.47c0.07,16.98,5.76,33.54,18.06,45.53L306.59,611.91z" />
<path class="cls-5" d="M385.88,230.37L0,207.59v-18.75l525.06,12.1l-170.43,17.3c24.05,1.22,45.53-0.26,68.69,2.41  c20.84,2.41,44.18-4.85,66.18,3.31C475.22,229.34,386.09,219.65,385.88,230.37z" />
<path class="cls-14" d="M409.72,804.95c2.19-4.34,4.83-1.45,6.88,1.86c6.49-0.33,10.72,1.9,12.71,6.67c6.74-1,12.5,6.79,11.29,12.9  l-171.28-3.36c-31.6-0.62-61.8-0.66-92.27,0.78c-3.99,0.65-7.23,2.36-9.71,5.13l-2.82,0.05c-1.26,0.58-2.73,1.12-4.23,0.47  c-1.34-0.59-2.47-2.71-3.74-5.08c-45.06,1.82-94.52,6.47-136.71,11.14c-1.22,0.07-2.94-0.34-2.96-1.28c1.44-30.2-2.3-10.6-1.24,4.18  l-2.91,1.03c-1.6-0.39-3.12-1.38-4.37-2.49c-1.11-2.05-2.46-2.55-4.06-1.49L0,835.71V794.2c32.04-0.69,63.47,0.91,96.61,2.62  C201.49,802.22,305.41,806.25,409.72,804.95z" />
<path class="cls-14" d="M134.28,1192.13l-1.22,2.68l-59.22,0.24c-2.31-0.27-4.54-1.15-6.7-2.65c-4.69-1.02-9.2-3.68-13.51-7.99  c2.01,2.03,3.61,3.69,2.43,6.7c0.09,0.63,0.13,1.24-0.03,1.79c-0.71,2.43-44.72,3.01-50.09,2.86c-3.23,0.83-5.21,0.01-5.93-2.45  v-72.32c37.1-7.92,75.36-7.31,112.7-13.23c1.31,1.91,2.56,3.85,3.64,5.88c1.07,2.02,2.09,4.04,2.74,6.17  C126.19,1143.02,133.6,1168.09,134.28,1192.13z" />
<path class="cls-12" d="M1200,796.47v42.56l-44.5,0.51c-3.12,0.02-4.06-3.25-2.83-9.8c-0.71,1.88-2,2.99-3.87,3.32  c-1.24-0.38-2.82-0.38-3.94-1.1l-3.45,1.74c0.1,3.07-1.02,5.13-3.35,6.18l-126.39,1.23l-2.61-5.18c0.05-11.96-0.77-23.94-3.09-35.7  l1.52-5.57c1.93-0.85,3.88-1.65,5.88-2.25c1.99-0.6,3.96-1.18,5.96-1.32c55.67-3.85,113.12-1.66,168.8,2  c1.99,0.13,3.97,0.67,5.96,1.24C1196.1,794.91,1198.06,795.67,1200,796.47z" />
<polygon class="cls-10" points="1200,340.59 1200,374.42 813.84,375.86 866.44,369.7 " />
<path class="cls-14" d="M1200,760.31v36.16c-64.12-3.8-128.43-7.13-192.51-1.81l-3-0.68c-2.96-5.92-7.12-11.02-12.48-15.31l0.57-3.1  C1061.55,768.47,1130.72,762.9,1200,760.31z" />
<path class="cls-14" d="M1200,924.6v10.83c-16.53-0.23-33.07-0.3-49.49,0.81l-0.99,2.75c-4.11,0.94-15.97,2.27-17.79-1.48l-1.96,2.8  c-6.22-0.45-32.98,2.07-35.25,7.64c-1.7,4.17,28.64,15.02,33.08,15.69l1.38,3.31c3.27-3.86,10.62,2.12,8.11,6.46  c-2.06,3.15-5.18,4.3-9.57,4.55l-114.86,6.6c-4.68-1.52-7.52-14.76-2.98-17.44c-0.2-9.69,63.31,10.28,58.17-8.05l-32.37-12.51  l42.22-8.59c-0.77-9.21-10.28-6.86-17.13-11.81C1107.32,918.13,1154.13,921.18,1200,924.6z" />
<path class="cls-4" d="M847.46,1513.38l2.76,0.99c1.29,17.59,1.94,26.38,1.94,26.38l-2.53,2.11h-10.02  c-4.73-8.76-5.75-21.19-2.87-30.78c-3.62-27.25-5.54-54.88-10.78-83.29c-111.05,4.27-221.39,5.58-331.89,4.21  c-5.46,0.81-10.07-7.73-3.25-10.09c6.84,3.3,14.32,5.09,21.07,0.73l2.79,1.35c6.57-1.22,13.21-2.44,19.91-2.51  c93.27-0.94,186.63-1.8,279.88,0.21c10.39,3.64,10.57,2.72,6.24-5.72c-6.51-36.99-17.35-73.12-32.56-107.46  c-2.65-6.18-0.51-6.43,6.43-0.75c20.81,34.95,32.36,74.54,40.34,114.17c0.66-0.38,1.91-0.28,3.75,0.3  c11.03-0.59,14.56,1.61,10.59,6.6l-12.27,1.06c6.42,25.76,10.39,51.79,11.9,78.09L847.46,1513.38z" />
<path class="cls-12" d="M0,1438.39v-21.43c46.93-2.74,94.61-2.72,140.79-10.31c8.05-1.32,18.38,2.58,27.1,6.69  C111.65,1426.26,55.67,1432.18,0,1438.39z" />
<path class="cls-6" d="M836.74,1512.08c1.36,10.22,2.12,20.49,2.87,30.78h-82.67c-4.93-1.06-10.96-12.15-8.07-16.18  C776.52,1514.16,806.52,1510.09,836.74,1512.08z" />
<path class="cls-12" d="M78.81,1217.15l-4.41,2.93c-14.46,1.28-28.89,1.67-43.28,1.16c-10.54-3.57-20.28-9.36-31.11-11.87v-16.07  l56.06-2.2l4.26,0.46c7.09,6.43,13.42,13.52,18.98,21.27L78.81,1217.15z" />
<path class="cls-4" d="M878.52,1375.52c1.6-3.36,2.33-3.38,4.08-0.13c1.99,6.6,2.99,9.9,2.99,9.9c0.27,41.52,1.09,82.99,2.46,124.4  l-1.31,5.11l2.87,2.51l0.49,22.5l-2.17,3.04h-13.45c-4.43-1.96-3.18-12.01,1.27-13.39c1.42-5.63,1.19-10.7-0.68-15.2  c0,0,0.22-8.98,0.67-26.95c-3.72-42.1-11.32-83.64-22.79-124.61c-0.62-5.08,1.54-4.85,6.48,0.7c6.78,16.73,12.16,33.91,16.13,51.54  l0.28-37.85L878.52,1375.52z" />
<path class="cls-6" d="M929.49,1542.86h-29.92c-0.86-0.44-1.56-0.91-1.74-1.54c-0.68-2.41,2.19-20.84,3.16-24.39l2.96-2.43l30.37-5.23  L929.49,1542.86z" />
<path class="cls-4" d="M925.73,1367.91c-7.75,48.75-17.7,97.51-21.78,146.59c-0.77,9.25-4.26,18.81-4.38,28.36h-4.9l-2.07-3.76  l2.87-21.19l2.7-3.25l-2.5-1.33c7.67-48.19,15.33-96.4,23-144.61l2.9-1.18C923.05,1363.9,924.66,1364.18,925.73,1367.91z" />
<path class="cls-6" d="M875.75,1529.46c-0.61,4.44-1.53,8.85-1.27,13.39h-24.86l-2.17-29.48c0.18-1.03,0.59-2.59,1.32-2.61  c3-0.09,25.88,0.98,26.97,1.78C876.93,1517.83,876.93,1523.47,875.75,1529.46z" />
<path class="cls-4" d="M748.87,1526.68l8.07,16.18h-9.89c-4.2-0.63-6.85-6.75-7.35-10.73c-11.33-27.02-31.33-49.41-47.16-75.39  C715.96,1476.88,735.79,1500.45,748.87,1526.68z" />
<path class="cls-15" d="M1200,683.06v58.91c-4.07-16.48-3.21-34.09-11.58-50.23c-3.38,1.74-2.55,5.14-4.56,7.48  c-1.83-5.61-0.58-11.16-2.01-16.23C1187.88,683.68,1193.94,683.14,1200,683.06z" />
<path class="cls-6" d="M898.17,1514.66c0.18,9.46-1.95,18.86-3.51,28.2h-6.74c-2.02-9.23-0.27-18.79-1.19-28.05  C888.66,1511.36,896.3,1511.08,898.17,1514.66z" />
<path class="cls-6" d="M747.05,1542.86h-21.13c3.38-4.76,8.97-7.5,13.79-10.73C744.02,1533.76,745.12,1538.94,747.05,1542.86z" />
<path class="cls-14" d="M1.34,870.32c4,1.73,7.32,4.01,9.95,6.84l-1.66,1.66c-0.16,5.34-1.82,10.35-6.54,5.19  c-0.69,0.5-2.29-0.43-3.09-0.09v-2.68c1.24-1.16,1.24-3.39,0-6.7v-5.36C0.49,869.52,0.94,869.9,1.34,870.32z" />
<path class="cls-8" d="M0,881.25v-6.7c1.3,0.84,0.96,2.47,1.77,4.19C2.54,880.38,2.97,881.73,0,881.25z" />
<path class="cls-5" d="M539.35,223.21c-15.7,5.43-32.98,3.84-49.6,1.48C505.88,218.3,522.57,222.13,539.35,223.21z" />
<path class="cls-1" d="M918.79,929.2l-0.05,2.95c-22.86,9.97-45.72,19.94-68.6,29.91l-2.53-1.82c-0.34,0.88-0.73,1.72-1.25,2.47  c-8.26,11.62-76.4,10.16-91.95,6.39c-17.49-2.63-34.84-5.81-52.07-9.52c-0.4,13.49,0.67,26.97,3.2,40.43l-2.25,4.56  c4.34,4.27,3.64,14.64-1.02,18.5c0.58,0.85,1.11,1.73,1.48,2.67c1.63,4.22-4.3,27.68-6.39,33.6l-3.77,4.06  c-7.72,12.88-22.66,24.18-35.37,32.54c-0.74,0.48-1.71,0.62-2.75,0.74c-1.07,0.12-2.16,0.06-3.25-0.05l-3.17-3.4  c-0.14-20.74-1.76-41.24-4.87-61.51l1.48-4.32c-1.15-0.18-2.43-0.43-3.16-1.34c-0.83-1.02-3.33-17.97,0.12-18.88  c-3.95-4.57-5.55-10.52-4.81-17.86l-0.11-16.18l-7.15-1.33c2.09,9.83,3.76,19.71,5.16,29.67c0.11,0.8-0.24,1.69-0.62,2.64  c-0.39,0.96-0.95,1.85-1.56,2.71c4.62,4.54,4.19,16.8-0.05,21.56c1.18,0.93,2.21,2.08,2.56,3.58c0.58,2.46-2.45,21.88-3.4,25.7  l-2.95,3.14l-3.4-2.06c-4.42-13.42-10.59-28.48-22.54-36.28c1.67,16.45,0.03,31.93-4.9,46.44l-3.63,0.89l-2.9-2.88  c-1.95-10.82-4.83-21.43-8.62-31.82l1.76-3.73c-5.41-4.68-9.74-15.95-7.88-22.91c-7.18-19.96-15-39.23-13.48-61.78  c-23.62-18.91-34.19-47.9-33.47-77.7l-2.7-2.69c-0.34-16.81-13.27-27.77-27.97-33.58l-1.65-3.54c-6.5-3.86-12.09-9.09-16.79-15.69  l-3.97,13.18l-3.15,1.11l2.05,2.55c-0.45,10.03,0.09,20.1,1.64,30.2c0.22,6.14-1.87,9.83-6.26,11.08  c-2.45,3.76-8.02,9.87-12.2,10.66c-5.83,1.09-5.1-6.9-7.16-9.37c-6.53-7.84-8.92-17.16-6.57-28.21c3.5-9.11-4.11-32.93-5.29-18.32  c-2.06-4.76-5.95-8.13-8.69-11.35c-5.31,6.79-4.57-4.71-8.3-4.46l-6.21-1.18c-2.5,3.16-3.78-5.73-7.68-4.44  c-3.15-6.81-9.02-12.22-13.67-17.92c-4.33-1.73-8.47-4.12-12.4-7.18c-3.34-0.32-5.67-1.39-6.99-3.23  c26.44-13.32,78.68,1.19,123.92-26.64c24.69-15.19,4-45.16-2.58-69.03l14.89-13.77l4.19,2.54c11.42,22.93,25.85,45.05,45.11,62.21  c16.11,14.35,32.92,22.18,53.3,28.47c-5.13,16.13-11.23,31.95-18.31,47.45c-24.77,50.9-9.2,88.35,24.29,130.49  c0.37,0.47,9.2-4.59,10.52-5.48c8.26-5.56,13.61-13.86,16.2-23.43c1.27-3.32,1.89-4.32,5.4-3.76c15.4,2.42,37.94,24.13,46.85,36.45  c7.83-9.14,11.86-20.42,12.09-33.84c1.25-24.69,0.49-49.26-2.27-73.7c1.81-2.07,3.24-3.58,5.46-1.68l11.61,26.79  c9.36,17.09,18.12,23.6,37.35,25.65c46.61,4.98,94.45-3.12,129.5-37.05c2.58-2.2,4.32-1.62,5.25,1.66  c4.54,25.26,11.14,49.86,19.81,73.81L918.79,929.2z" />
<path class="cls-4" d="M122.76,1109.02l2.9,0.54c7.01,27.17,14.03,54.35,21.04,81.54l-2.19,2.23l3.04,1.16  c1.29,5.98,2.41,11.98,3.38,18.02l-2.33,2.27l3.09,2.31c0.66,14.57,3.51,27.98,8.57,40.25c1.67-13.3,2.39-26.69,2.16-40.17l2.97-2.5  c-3.5-0.63-2.8-18.45-2.21-19.28c0.74-1.03,1.76-1.65,2.98-1.97l-1.76-5.7c2.55-27.1,1.89-54.23-1.98-81.4c0,0,0.74-1.86,2.22-5.57  l-4.09-50.95c-0.09-3.61,1.07-3.31,2.52-0.01c2.4,16.05,4.31,32.41,5.71,48.65c1.06,0.02,2.69,0.27,2.77,1  c3.22,27.61,6.35,59.28,7.49,86.97c1.12,3.69,0.42,6.03-2.08,7.01c4.55,3.95,6.07,15.77,1.85,20.24c2.9,5.77,4.19,12.44,3.87,19.99  l2.39,18.08c7.28-11.54,12.27-23.59,14.98-36.16l2.79-2.26c-1.03-0.04-2.03-0.34-2.65-1.21c-0.59-0.83-0.75-19.14,3.06-18.92  l-2.68-0.93c-0.02-36-0.02-72.03,0-108.07l2.65-4.81l0.49-15.96c0.51-3.75,2.5-3.39,3.58,0.16l0.42,2.34l2.68,1.23l0.25,79.53  c5.81-26.56,12.98-52.86,20.88-78.89c0.44-1.46,1.28-2.81,2.16-4.17c0.88-1.38,1.93-2.67,3.02-3.92c0.66-0.69,1.48-2.05,2.62-2.68  c0.53-0.29,1.28,0.19,1.75,0.98l-0.09,8.83c-12.25,38.93-18.02,79.43-22.95,119.83c0,0-1.23,2.68-3.69,8.05  c1.01,0.26,2.48,0.72,2.52,1.48c0.18,4.03-0.76,16.03-4.77,17.04l2.33,2.9c-0.6,2.83-2.81,22.23-0.97,22.3  c0.43,0.02,7.2-3.43,7.56-3.67l3.73-20.67l3.09-0.81c-2.62-3.97-0.71-15.76,4.13-17.31c-0.3-1.39-0.54-2.78-0.61-4.18  c-0.06-1.37-0.1-2.71,0.24-3.92c9.08-31.87,18.9-64,33.57-93.75c-0.4-0.19-0.82-0.38-1.12-0.72c-2.55-2.87-13.55-16.38-11.63-18.9  c1.47-1.93,5.34-0.98,7.09,0.72c4.2,4.6,8.32,9.06,12.35,13.36c1.31-0.33,1.71,0.13,1.21,1.38l16.84,27.91  c6.35,11.51,3.45,27.82-6.9,8.93c-3.37-8.21-7.39-16.06-12.05-23.55c-11.72,27.34-20.16,56.37-26.08,85.6l-3.99,7.21  c3.78,3.19,0.04,14.99-3.99,17.12c1.08,0.6,1.91,1.44,2.36,2.6c0.36,0.93-3.84,17.38-4.61,19.52l-2.79,1.97  c3.23,1.54,3.19,2.13-0.29,2.87c2.17,0.52,3.86,2.09,5.05,4.72l8.76,8.8l-1.36,2.72c2.61-0.32,3,0.85,0.83,2.43  c0.98,3.44,0.04,4.62-3.54,4.22l-2.89,0.96l-7.7-6.96l-2.59,16.04l-2.98,1.67l-6.62,36.92c-1,1.89-7.17,1.43-8.08-0.61l5.24-38.61  c-2.38-3.23-2.42-7.57-0.11-13.03c-1.1,5.52-3.28,9.81-6.53,12.88c-2.1,11.94-0.36,24.91-1.14,37.88c-0.39,2.52-8.98,1.78-9.68-0.76  l2.72-31.65c0.45-3.81,0.59-7.4-2.05-10.51c1.44-22.22,0.06-22.55-4.16-1.01l-3.21,1.99c-0.8,3.35-2.41,8.38-2.65,12.05  c-0.48,8.97-0.09,17.9,1.18,26.79l-2.5,2.11c-2.88-0.33-5.71,0.38-9.25-1.12c3.17-15.22,3.68-29.24,0.95-43.56l-3.23-3.05  l-2.91-36.62c-0.6,11.32-0.64,22.65-0.12,33.99l-2.61,4.25l0.48,44.08c-6.84-0.01-13.14-0.85-20.45-1.93  c0.88-18.75-7.25-35.27-13.73-51.73c-3.6,0.37-10.85-18.26-10.76-20c0.05-1.09,0.97-1.97,1.8-2.73c-3.36-3.68-1.74-9.8,3.53-6.61  c2.97-1.72,5.74-0.17,8.31,4.66l-2.57-11.04l2.03-3.2l-2.65-0.65c-1.6-6.4-3.03-12.87-4.29-19.4l2.23-2.4  c-5.96-28.39-13.15-56.76-21.58-84.38c-11.87-38.91-26.65-77.33-53.58-110.83C78.82,1005.35,119.22,1095.3,122.76,1109.02z" />
<path class="cls-4" d="M358.71,1015.39l2.03,3.07l-5.15,19.64c-3.1,9.31-2.39,16.83,2.13,22.56c6.14-12.98,12.2-26.03,18.18-39.15  c2.76-2.69,7.03-6.24,7.71-0.41c-4.76,11.86-9.24,23.79-13.44,35.8l-3.29,2.59c2.63,1.31,2.84,4.02,0.65,8.11  c-6.92,9.07-2.33,30.76,3.05,39.25c0.27,0.43,0.62,0.7,0.87,0.6c1.17-0.45,14.94-15.38,17.33-18.03c3.86-8.03,9.05-12.6,15.56-13.7  c0.97-6.07,1.35-12.2,1.13-18.38l2.79-2.05c-1.04-0.2-2.58-0.66-2.58-1.41c-0.01-4.02,1.51-34,2.62-35.38  c0.74-0.93,1.6-1.57,2.82-1.76c0.4-3.45,1.47-3.17,2.72,0c1.03,0.32,2.54,0.79,2.63,1.63c0.28,2.87-0.4,29.03-1.01,30.43l-2.77,2.72  l1.56,6.09c-0.2,30.29-2.14,60.86-4.13,91.18c-0.13,2.04-0.6,4.07-1.11,6.1c-0.52,2.06-1.21,4.08-1.96,6.08l2.55,3.75  c-1.21,11.93-1.4,23.84-0.57,35.75l-2.09,3.92l1.83,3.03c-1.52,7.7-1.99,15.5-1.42,23.42l-2.67,2.55l2.67,1.24  c-0.11,21.72-0.23,43.45-0.34,65.19l-2.69,1.57c-1.79-0.93-4.45,0.06-6.27-1.2c-0.69-1.59-1.22-3.18-1.19-4.76  c0.59-27.99,1.7-56.29,3.05-84.27c0.08-1.56,0.6-3.11,1.24-4.64c-0.6-0.04-1.07-0.09-1.07-0.14c-0.17-14.97-0.35-31.74,0.53-46.61  l2.33-1.48l-2.29-1.35c0.82-22.97,1.91-45.96,3.27-68.94l-7.57,5.92c2.24,17.95,3.91,36.06,4.4,54.15c0.04,1.5-0.34,3.02-0.76,4.56  c-0.42,1.56-1.03,3.08-1.7,4.57l2.32,1.53l-0.54,46.95l-1.08,0.91c0.59,0.16,1.05,0.31,1.05,0.46c-0.41,23.22-1.28,46.84-2.3,70.2  c-0.32,7.24-0.66,14.43-1.11,21.64l-1.53,0.85c-5.78-0.28-12.24-1.13-17.54-3.3c-0.92-0.43-1.67-0.89-1.8-1.49  c-0.88-4.04-5.44-28.34-5.01-29.79c1.96-6.6,9.26,3.98,10.23,8.49l-3-35.68l2.54-1.8l-2.89-2.56c-0.2-7.21-1.16-14.3-2.88-21.27  l1.69-3.36c-3.39-1.5-4.84-9.54-1.2-11.64c-3.27-8.92-4.97-18.54-5.11-28.85l-3.75-25.72c-1.42-1.58-3.24-2.77-5.46-3.56  c-0.16-2.48-1.95-3.06-5.38-1.73c-3.77-1.95-3.14-4.93,1.91-8.92c1.07-3.71,2.98-5.67,5.72-5.88c-2-1.22-1.73-3.14,0.81-5.75  c0.52-2.08-0.67-3.67-3.57-4.78c-0.81-3.76-2.12-4.31-3.92-1.63c0.01,5.61-1.4,8.57-4.23,8.88c5.91,5.09-3.67,25.63-8.61,14.54  c-0.44-0.98-0.46-18.42,3.27-18.03l-1.2-4.49c3.2-11.36,5.85-21.61,7.96-30.74c-3.73-6.03-6.02-3.73-6.88,6.9l-2.14,24.98l-2.96,3.1  c3.91,1.17,2.67,12.28,1.73,15.92c-2.26,8.75-6.45,12.06-9.57,0.85c-1.36-4.88-3.16-14.49,1.2-16.9l0.92-4.1  c-0.64-0.07-1.25-0.2-1.72-0.52c-1.59-1.07,4.59-34.01,5.4-37.87c-0.05-5.47,1.4-8.74,4.35-9.81c-0.96-0.5-2.4-1.31-2.27-2.11  c1.66-10.25,5.67-30.92,9.11-40.05c0.03-3.17,1.38-5.05,4.03-5.66c1.49-6.56,5.54-14.09,8.48-21.25  C362.87,1002.11,360.13,1008.48,358.71,1015.39z" />
<path class="cls-14" d="M293.24,1051.47c1.04-0.28,1.96-0.11,2.76,0.61c0.64,0.57,3.52,15.05,3.6,16.76l-2.24,2.37l-1.06,2.94  c-10.69,1.04-17.88,5.52-21.58,13.42l-2.88,1.06c-8.36,0.94-9.47-11.47-18.25-13.25c4.49,6.64,10.08,11.55,14.02,18.91  c-15.87,33.11-25.34,67.51-35.66,101.73c-3.84,3.16-14.56,2.8-17.61-1.28c5.61-46.06,11.64-92.75,26.73-136.71L293.24,1051.47z" />
<path class="cls-14" d="M585.44,1031.39l-0.72,2.74l-134.95,10.75c-11.13,1.1-22.23,3.14-32.57,7.53l-4.51-0.88l1.15-34.78  c-0.24-3.62,4.85-5.78,6.65-2.12c52.36-2.22,105.46,1.55,157.07-6.15C580.31,1016.12,583.4,1023.46,585.44,1031.39z" />
<path class="cls-4" d="M298.48,1051.44l3.28,1.23c2.12,18.23,4.92,20.38,8.4,6.45c2.97-2.34,4.99-2.21,4.57,1.64l2.77,3.88  l0.83,36.96c3.93,8.98,6.6,9.98,8.01,3.02c-4.03,0.37-5.38-2.33-4.05-8.1c-2.71-8.2-1.85-16.45,2.57-24.74  c-0.06-3.58,0.92-6.04,2.96-7.37c-4.72,0.03-2.3-13.42-1.29-16.9l2.54-1.67c-0.44-3.15,1.92-6.23,1.72-9.22  c-4.51-2.25-3-14.11,0.98-16.46c-0.03-2.43-0.05-5.57,1.36-7.65c1.03-2.41,1.6-2.41,1.7,0c0.87,1.39-0.18,4.96,0.4,6.54l1.83,3.5  c-1.54,12.73-2.59,25.53-3.13,38.41l-3.15,2.56c2.13,2.86,2.87,6.8,2.22,11.82c2.23,11.85,2.98,21.04,1.54,33.01  c-0.16,1.32-0.95,1.92-2.46,1.96c-0.24,8.93,0.74,17.68,2.95,26.26c7.25,16.14,15.22,34.8,18.89,52.18c0.62,2.92,0.18,5.92-0.4,8.82  c4.35,0.53,6.88,9.73,2.87,11.96l3,2.64l5.16,21.84l-2.04,3.49c1.59,1.65,3.07,3.48,3.77,5.69c2.36,7.47,9.89,44.45,8.86,49.81  c-0.23,1.18-0.75,2.3-1.36,3.4c-2.89,0.96-5.73-1.52-8.31-1.51l-2.19-3.15c-2.88-16.56-5.99-33.15-9.33-49.74l0.92-7.19l-3-1.02  l-2.54-16.63c-1.82-9.17-4.97-10.34-9.44-3.52c-3.84,1.46-6.26,1.57-4.99-2.88c-2.95-2.63-1.55-11.03,2.55-11.83l-2.23-2.5  c3.49-10.24,4.04-20.19,1.66-29.84c-6.87,8.06-12.68,17.06-17.45,26.99l-4.83,3.84c3.48,3.65-2.71,13.55-7.59,14.36l0.53,4.24  c-5.17,10.49-9.51,21.34-13.02,32.56l-3.76,2.2c0.06,10.63-4.38,23.7-10.77,32.2c-3.06,12.09-13.25,23.26-1.81,35.22  c-7.58,1.05-11.33,1.52-18.26-0.23c3.9-4.92,1.64-13.34,3.97-17.39l-1.78-13.91l2.72-2.59c-0.61-1.96,0.38-3.09,2.99-3.38  l8.51-25.66l3.76-2.79c-2.86-3.33,0.03-9.14,3.71-10.77c-2.47-2.75-0.7-4.66,2.66-5.19l-1.38-3.46c3.46-6.15,6.5-12.47,9.11-18.98  l3.22-1.62c-2.24-3.04,3.51-12.85,7.02-13.33l0.49-5.01c8.08-13.46,18.52-27.77,28.79-39.47c0.63-0.71-6.57-14.91-7.7-17.05  c-6.52,2.77-9-1.35-7.45-12.37c-0.57-8.26-1.34-5.17-2.3,9.27c-9.61,9.15-15.51,0.6-13.92-10.92l-3.3-18.59l2.48-2.35  c-4.63-8.42-6.39-21.81-4.17-31.17l-4.12-19.74c-3.86-18.48-12.11-35.28-20.57-52.86C286.54,1014.27,290.22,1033.97,298.48,1051.44z  " />
<path class="cls-3" d="M207.3,1063.62c-1.71-0.24-2.75,0.11-3.58-0.16c-8.42-2.79-11.9-10.17-12.32-18.93  c-1.6-33.05-1.42-65.62-0.89-98.56c0.12-7.7,5.94-13.54,12.5-15.29c1.18-10.08-3.3-19.1,0.68-29.21l2.59,29.31  c6.31,1.59,12.35,6.84,12.63,14.37c1.28,33.44,1.54,66.67,0.12,100.14C218.67,1053.9,214.24,1060.4,207.3,1063.62z" />
<path class="cls-3" d="M163.08,1049.8c-1.3-0.26-2.08,0.22-2.52,0.01c-8.02-3.8-13.04-8.97-13.84-18.12l-7.69-88.8  c-0.91-10.48,2-17.94,11.74-22.8c-1.83-3.46-2.43-7.69-1.36-7.9c2.7-0.53,1.84,1.4,2.06,2.08c0.23,0.69-0.16,4.39-0.07,5.71  c7.73,2.47,14.66,7.52,15.37,16.97l6.74,90.14C174.26,1037.31,170.41,1043.83,163.08,1049.8z" />
<path class="cls-14" d="M203.23,1079.42l0.02,113.8c-1,2.87-3.49,3.99-7.46,3.34c-5.35,0.31-15.44,0.45-18.82-3.12l-8.18-94.99  C182.22,1095.35,193.52,1089.08,203.23,1079.42z" />
<path class="cls-14" d="M164.65,1100.76c2.5,31.16,7.27,61.71,1.52,92.66c-5.24,3.54-16.3,3.22-21.65-0.09l-21.76-84.31  C135.97,1104.27,150.67,1102.71,164.65,1100.76z" />
<path class="cls-14" d="M405.93,1013.92c2.82-2.85,5.04-1.05,5.2,2.83l-2.85,38.55l-0.92,2.79c-12.75,1.29-25.51,2.58-38.26,3.88  l-2.2-2.47c2.58-14.1,10.42-26.21,14.67-40.36c-9.32,6.47-18.36,48.58-25.13,44.35c-11.71-7.32-0.04-36.87,2.27-48.09  C383.27,1014.48,382.05,1012.85,405.93,1013.92z" />
<path class="cls-12" d="M498.3,829.2c19.52,7.47,32.81,19.41,32.32,39.81l-58.79,2.62c9.16-14.03-2.58-28.19,2.57-43.83  c1.44-3.74,11.13-3.7,14.91-3.03C493.19,825.46,495.19,826.55,498.3,829.2z" />
<path class="cls-3" d="M420.49,1014.63c-2.19,0.09-4.34,2.25-6.65,2.12c-0.81-0.05-1.97,0.28-2.72,0c-1.85-0.7-3.44-1.95-5.2-2.83  c-1.81-5.9-3.03-11.99-2.49-18.94l5.11-65.36c0.49-6.33,5.52-11.11,11.36-10.74c4.48,0.29,10,4.87,9.87,10.83  C429.45,945.46,426.98,1003.11,420.49,1014.63z" />
<path class="cls-14" d="M236.7,1059.74c-11.28,38.37-22.72,76.43-28.64,116.45l-0.35-110.22  C217.09,1062.89,226.88,1060.46,236.7,1059.74z" />
<path class="cls-14" d="M354.9,1015.43l-10.88,47.82c-1.65,3.33-12.13,4.35-13.22,0.26c2.77-14.09,0.26-30.7,4.45-44.47  C341.39,1016.17,348.31,1016.71,354.9,1015.43z" />
<path class="cls-14" d="M329.08,1045.83c0.85,6.05-2.55,12.53-1.25,18.57c-1.57,6.37-13.03,3.34-13.1-3.65  c-4.88-4.19-2.05,10.2-8.67,10.18c-7.39-2.1-4.74-13.47-7.59-19.5C308.75,1049.44,319.31,1049.74,329.08,1045.83z" />
<path class="cls-14" d="M331.79,1020.15c0.08,5.57-1.34,10.83-0.98,16.46c-3.96-0.89-13.01-0.8-13.07-6.55  C317.67,1023.47,327.02,1021.64,331.79,1020.15z" />
<path class="cls-4" d="M20.24,881.85c-1.01,7.89,0.94,16.58-3.92,24.99c-4.85-7.79-4.46-17.34-1.63-24.3  c0.97,0.37,0.97,0.84,0.05,1.39c0.44,0.84,0.88,0.84,1.34,0c-0.93-0.39-0.83-0.84,0.16-1.34c0.27-1.27,0.51-2.54,0.57-3.84  c-5.27-1.72-6.31-9.52,0.05-9.67C17.2,873.68,15.78,879.4,20.24,881.85z" />
<path class="cls-4" d="M21.52,873.11c0.09,0.46-0.14,0.97-0.09,1.44c-3.13-4.73-0.96-14.34,0.67-24.1  C24.41,858.18,20,865.36,21.52,873.11z" />
<path class="cls-2" d="M570.45,514.08l2.38,1.86c-0.77,7.65,0.25,15.48,2.32,22.87l-2.04,2.31l2.73,0.47  c0.55,10.69,4.21,13.75,10.98,9.19c3.98-4.64,8.44-8.27,13.37-10.88l-0.68-3.34c5.3-9.15,23.29-34.45,21.52-9.65  c-8.62,13.36-0.45,14.5,11.2,10.01c5.95-2.3,10.44-6.15,14.98-10.55c9.4-1.27,7.73,8.92,3.14,14.38c2.97,2.22,6.6,0.71,10.89-4.53  c5.23-3.65,8.94-3.83,11.14-0.56c-0.82,2.73-2.91,5.57-2.3,8.19c0.88,3.75,4.45,4.99,7.43,3.89c1.86-0.69,4.13-4.5,8.25-3.48  c2.23,0.55-0.28,6.05,0.43,6.68l6.28,5.51c-15.72,25.1-38.27,46.48-63.02,62.29c-31.29,20-66.95,28.82-101.85,38.47  c-2.71,2.67-10.47,5.48-13.07,2.06c-14.78,2.83-32.42,19.65-44.02,9.53c-2.45-2.14-2.82-6.41,0.37-7.92  c2.04-0.97,6.84-1.1,10.42-4.07c-5.79-11.59-19.81-18.33-31.42-23.09c-3,0.33-9.77-2.11-9.19-5.68l-4.37-0.15  c-11.52-7-28.78-28.4-34.51-40.73c-3.34-7.19-7.9-17.25-3.93-24.42c-2.42-2.75-1.76-3.67,1.78-2.68l4.15,2.66  c11.44,21.64,34.67,45.29,56.19,56.81c7.01,3.75,14.19,5.15,21.7,1.8l3.16,1.48l0.29-3.22c8.8-5.13,12.09-14.94,10.16-24.73  l2.12-2.91l-3.57-3.06l-11.15-33.26c-2.86-6.15-3.15-11.51-0.87-16.08c-1.25-9.18-1.34-18.53-0.75-27.73  c1.58,0.09,4.45,0.16,6.07,0.05c2.65,2.4,4,6.04,4.04,10.92l3.42,12.41l-1.73,3.54l3.81,3.17c3.5,10.46,8.34,20.45,14.73,29.46  l0.3,4.87c3.33,0.17,5.98,2.82,7.97,7.96c2.54,3.05,4.67,3.18,8.41,3.18c22.74-0.02,25.68-24.72,27.31-42.37l2.84-1.47  c-1.02-0.23-2.54-0.7-2.54-1.44c-0.03-2.54,2.03-24.92,2.67-26.05c0.54-0.95,1.77-1.32,2.86-1.61c0.33-3.2,1.44-10.83,5.46-11.11  C570.01,503.05,571.1,511.18,570.45,514.08z" />
<path class="cls-10" d="M672.36,535.64c-16.51,0.95-10.56,12.49-25.25,8.03c-0.71-6.42,8.32-9.27,2.24-16.18  c-9.19,11.06-22.37,16.46-34.72,12.85c-1.74-9.35,8.12-14.48,3.28-23c-8.28,6.83-11.67,15.81-17.72,22.55  c-2.73,2.28-4.6,3.08-7.89,3.73c-4.63,0.91-16.27,1.01-19.2-2.5c-2.54-6.86-4.15-20.33-2.66-27.04l329.83,8.45L672.36,535.64z" />
<path class="cls-10" d="M561.24,514.39l-2.99,29.11l-2.35,2.56c-2.51,0.48-20.1,1.62-21.08,1.11c-1.1-0.58-1.65-1.81-2.08-2.93  c-2.29,2.02-5.79,2.32-10.5,0.91l-6.51,1.26c-5.43-4.93-12.34-6.58-20.72-4.95l-2.13-2.75c-2.59-8.76-5.64-17.64-5.72-26.86  C511.5,510.28,537.42,510.26,561.24,514.39z" />
<path class="cls-4" d="M1009.51,936.3l0.17,30.83c0.04,6.51,1.9,11.55,2.98,17.44c3.2,17.49,11.66,32.81,23.97,48.45  c-11.73,66.65-10.69,133.02-0.29,199.79c-17.76,23.9-31.07,50.29-26.12,78.06c-1.68,3.97-4.24,8.55-9.29,9.4  c-12.42-14.82-25.04-29.95-42.17-37.21c-4.13-7.1-1.93-21.04,4.01-26.73l4.05-11.99c22.16-32.51,36.68-65.27,35.92-105.49l2.9-4.26  c-3.4-1.18-3.41-1.81-0.06-3.12l-2.95-4.51c0.29-39.81-14.03-71.76-36.32-103.29l-11.05-20.16c-3.12-4.22-4.19-8.42-3.2-12.58  c-1.16-0.41-1.13-0.87,0.04-1.35l2.32-3.83c20.47-11.44,37.39-27.53,50.75-48.25L1009.51,936.3z" />
<path class="cls-6" d="M1150.51,936.24c-1.69,8.19,0.36,14.63,1.81,22.45l7.25,39.24c-5.47-11.59-7.85-24.02-9.84-36.46l0.14,33.79  c-3.92-7.43-0.92-14.67-2.4-22.94c-2.77,1.1-2.35,5.16-4.57,2.88c-1.54-1.58-3.55-1.58-5.81-1.79c-1.55-2.83-4.88-5.3-8.11-6.46  l-2.75-1.95c1.6-8.39,2.68-16.79,3.23-25.19l2.26-2.3L1150.51,936.24z" />
<path class="cls-4" d="M1153.68,1025.64c-6.64-7.66-5.95-20.26-3.48-29.65C1155.19,1004.93,1158.25,1016.63,1153.68,1025.64z" />
<path class="cls-6" d="M563.85,1308.62c4.71,0.23,3.73,8.51,2.33,12.17c-9.54,8.25-17.48,17.71-23.82,28.37  c-6.62,15.78-9.69,32.68-9.22,50.7c-1.9,10.4-6.63,23.23-18.47,25.13c-17.79,12.83-34.12-11.34-20.61,8.01l-10.83,17.46  c-1.09,3.58-2.42,3.6-3.59,0.03c-3.65-1.03-5.9-4.18-6.77-9.44c-2.95-11.01-3.12-22.34-0.52-34c-0.22-8.77-7.76-14.4-14.23-19.19  c-1.4,6.16-3.53,8.64-6.39,7.45c-3.13-1.67-5.68-11.53-5.77-15.61c-0.09-4.06,1.69-14.3,5.25-16.2c0.61-5.14,12.75-6.06,14.69-1.52  c2.58,2.04,4.29,5.48,5.12,10.32c5.21,14.84,6.9,15.68,5.05,2.52c0.88-3.53,2.16-6.63,3.85-9.29c-1.06-2.47-1.79-4.18,1-5.78  c-0.91-5.03,11.89-6.91,13.47-2.62c1.88,1.46,3.98,0.91,6.3-1.63l0.39-3.06c10.14-3.21,12.94-7.05,8.37-11.51l0.82-3.11  c-3.11-3.56-5.8-7.79-10.87-9.67c-4.52-5.91-6.81-13.2-6.88-21.84l2.72-1.85c-1.12-5.68-0.1-6.92,5.26-8.44  c6.32-1.79,40.28,0.51,47.9,1.97c3.1,0.59,6.39,1.28,9.25,2.62C562.09,1302.66,563.34,1303.43,563.85,1308.62z" />
<path class="cls-4" d="M424.65,1366.22l2.9,0.53l15.8,62.18l2.51,1.54c5.52,1.82,4.34,16.4-2.28,14.72l-3.05-0.53l-15.79-42.65  c-1.19,6.24-1,12.62-0.52,18.94c0.37,4.87,3.05,26.83,4.55,29.61c0.34,0.62,8.8-2.47,9.66-3.05l3.4,1.64l3.06-1.77  c10.49,1.75,21.21,1.91,32.15,0.48l2.6,2.64c1.19,0,2.4-0.11,3.59-0.03c16.62,1.07,33.22-0.05,49.89,1.87l-22.2,3.1  c0.94,2.37,2.23,2.65,3.31,3.72c0.75,0.74-0.3,2.64-1.92,2c-0.77-0.3-1.69-2.66-2.53-5.69l-59.1,1.86l7.33,19.87  c-5.61-5.8-6.98-15.39-12.32-19.76c-15.33-4.01-25.51,8.04-33.2,2.38c-4.6,3.85-13.57-3.39-7.75-9.11c-0.7-3.35-0.16-6.16,1.61-8.43  l-2.42-13.91c-0.17-19.79-0.9-39.51-2.17-59.15l2.62-1.7c0.36-3.77,2.85-3.54,4.1-0.24c0.83,2.05,1.6,4.12,2.18,6.23  c0.57,2.1,1.11,4.19,1.24,6.3c1.41,23.52,1.28,47.2,0.89,70.68c1.86,3.12,7.9,3.36,7.21-1.45c-6.01-24.92-7.57-50.84-5.31-76.5  c0.09-1,0.61-1.98,1.17-3c0.57-1.04,1.31-1.98,2.09-2.9C419.16,1362.92,422.94,1362.7,424.65,1366.22z" />
<path class="cls-6" d="M404.38,1367.53l3.03,83.04c0.1,2.67-4.06,4.6-1.66,5.82l6.76,3.43c-7.73,9.93-14.74,23-25.27,29.38  c-0.98-0.47-1.82-1.18-2.1-2.28c-0.32-1.29,7.66-24.04,8.37-25.29l3.21-3.05c-2.84-2.41-2.47-3.43,1.26-3.24l-0.99-1.57  c1.5-4.47,0.87-5.11-1.87-1.91c-2.46,5.5-19,5.83-20.98-0.16l-0.44-2.82c9.12-24.67,15.26-50.48,16.71-76.8l4.46,1.67  c2.48,10.14,3.34,11.79,2.57,4.93c-2.28-4.91-2.19-8.47,0.27-10.7C397.86,1363.92,403.51,1363.62,404.38,1367.53z" />
<path class="cls-8" d="M371.09,1451.99c1.42-2.22,2.27-3.03,3.05-0.28c6.76,2.09,14.07,1.48,20.98,0.16c2.69-0.88,3.7,1.07,2.85,3.47  c-0.45,0.89-0.95,2.23-1.26,3.24c-1.78,3.58-3.67,4.44-5.66,2.6l-1.87,2.73l-17.89-0.48c-2.45,2.28-4.78,3.69-6.99,4.24  c-11.42-9.11-25.57-2.55-38.58-3.64c-54.1-4.55-109.19,0.57-163.88-4L371.09,1451.99z" />
<path class="cls-6" d="M391.05,1461.19c1.18,0.57,2.18,1.51,1.86,2.58c-2.74,9.26-5.58,17.84-10.55,26.19l-3.31,0.85  c-8.83-2.89-17.79-13.99-14.76-23.13C367.99,1456.49,376.47,1461.84,391.05,1461.19z" />
<path class="cls-4" d="M387.23,1489.2c-4.45,14.36-13.51,27.42-24.21,39.58l16.02-37.97c3.89-9.21,11.39-18.9,12-29.62  c1.86-0.93,3.72-1.87,5.66-2.6L387.23,1489.2z" />
<path class="cls-12" d="M500.71,1355.5c-2.59,4.14-4.69,4.69-6.3,1.63c-4.59,0.56-9.27,0.45-13.47,2.62c-0.21,4.2-3.67,4.55-5.25,0.8  c-1.48,3.71-3.48,3.83-5.79,0.66c0.41,3.93-2.19,4.32-3.99,0.77c-4.88-0.1-10-0.12-14.69,1.52c-1.53,5.7-11.81,6.87-14.5,1.4  c-1.79,3.22-9.57,4.54-12.08,1.32c-2.13,0.33-4.55,0.43-6.7,0.44c-1.05,3.91-6.91,3.35-9.46,0.63c-1.11,0.43-2.9,0.16-4.1,0.24  c-2.23,0.14-4.46,0-6.67,0.48c-0.96,2.53-2.09,2.38-2.51-0.26l-1.56,0.7c0.65,3.85-2.54,3.68-3.79,0.34  c-87.75,7.97-195.75,10.3-289.07,22.75c-20.05-20.76-40.39-11.59-63.87-25.93c22.94-8.19,45.67-9.22,69.13-11.27  c81.31-7.09,161.7-6,243.4-3.49c20.02,0.61,156.18,4.11,160.86-13.03c3.3,3.79,6.91,6.84,1.54,12.01  C509.48,1352.08,504.62,1353.86,500.71,1355.5z" />
<path class="cls-4" d="M397.71,1368c0.44,6.38,5.61,13.47,0.32,19.86c-5.27-3.76-3.4-10.22-6.7-15.07  c0.98,26.85-6.97,53.99-17.2,78.92c-0.85-0.26-2.15,0.24-3.05,0.28c9.38-26.75,14.97-55.11,18.76-83.21l3.79-0.34l1.56-0.7  C396.01,1367.64,396.92,1368.18,397.71,1368z" />
<path class="cls-4" d="M344.6,1395.17c0.62,5.87,5.44,29.06-3.85,29.19c-10.94,0.16-9.07-18.71-10.8-28.05  C334.96,1395.27,339.03,1395.05,344.6,1395.17z" />
<path class="cls-4" d="M309.91,1419.15c-8.01,0.14-8.75-14.21-5.66-20.84c1.83-3.95,10.29-1.48,13.97-1.87  C318.6,1405.21,318.73,1418.99,309.91,1419.15z" />
<path class="cls-4" d="M345.89,1435.44c19.98-44.81-6.07-8.55,22.41-43.23C362.6,1407.97,358.56,1424.96,345.89,1435.44z" />
<path class="cls-4" d="M308.87,1423.72c0.8,3.58,0.99,7.12-0.13,10.85C307.6,1431.62,307.47,1428.52,308.87,1423.72z" />
<path class="cls-4" d="M419.02,1162.71l2.54,2.23c-2.69,11.74-2.54,22.87,0.46,33.39l-1.37,2.95c1.38,2.71,1.19,6.1-0.56,10.18  c-2.37,25.9,4.91,16.6,4.1-1.77c-1.38-3.64-1.27-6.49,0.32-8.55c3.55-10.53,5.76-21.61,6.61-33.24l2.92-1.48  c-0.52-1.14-1-2.29-1.28-3.49c-2.09-8.71,10.06-49.11,14.93-58.55c1.81-5.5,3.66-7.76,7.54-3.67l-12.94,66.1l-2.94,1.05l2.11,3.04  c-2.2,7.85-3.46,15.82-3.77,23.91l-2.5,2.64c2.78,1.92,2.43,6.39-1.37,6.78l1.91,2.67c0.12,0.98-0.86,18.97-1.61,19.61  c-0.87,0.74-1.86,1.26-2.96,1.57l1.27,7.97c-2.68,21.63-5.48,43.18-8.38,64.64l-2.21,3.63c-3.36-0.89-7.09-0.21-10.47-1.59  l-2.67-1.25c0.13-22.47,0.26-44.95,0.39-67.44l2.69-1.59c-3.27-3.49-4.34-20.69-2.97-24.57c0.56-1.58,1.4-2.9,2.79-3.88  c-0.63-0.08-1.24-0.2-1.77-0.48c-1.8-0.97,0.15-38.18,0.95-40.54l2.76-1.82c-0.62-1.46-1.19-2.94-1.58-4.46  c-0.38-1.51-0.74-2.98-0.67-4.42c1.45-28.2,4.07-56.37,9.17-84.17c1.17-4.86,2.73-5.12,6.09-2.65l-4.78,95.77L419.02,1162.71z" />
<path class="cls-8" d="M490.15,1196.14l1.5,4.77c0,0-4.82,17.39-14.45,52.18l-1.95,1.89l-3.4,1.99c-9.62-1.29-19.17-1.21-28.63,0.24  l-2.61-0.96c0.89,0.73,1.26,1.5,1.32,2.66c0.57,9.69-3.12,29.73-5.3,39.64c0.14,4.83-1.2,7.58-4.01,8.24  c-3.88,0.05-7.29-1.53-10.8-2.46c2.97-25.45,4.42-51.24,9.32-76.23l4.31-3.35c13.88-2.18,27.55-5.78,40.49-11.23  c-1.36-3.63-4.3-6.6-8.83-8.92l0.46-3.41l0.28-2.9l13.06-1.3C482.18,1192.66,487.81,1192.6,490.15,1196.14z" />
<path class="cls-4" d="M479.93,1253.39c1.17,2.12,0.54,4.17-1.31,5.62l1.66,3.61c-3.59,17.13-1.79,24.45,0.43,0.89l2.95-4.21  c1.19-3.46,2.42-3.03,3.5,0.41l2.99,3.88c1,12.21,2.51,24.45,6.29,36.15c0,0-0.39,1.57-1.17,4.7c-1.05,8.09,3.23,15.73,4.16,23.69  c-2.26-0.84-4.69-2.12-6.44-3.68l-1.8-0.62c-2.97-10.75-5.16-21.93-6.55-33.55l-1.91,11.54c0.36,6.95-0.78,13.04-3.42,18.26  c-6.77-1.68-11.21-6.23-18.62-6.4l-2.45-1.42c3.48-17.33,6.96-34.66,10.44-51.99l2.94-1.03c-1.22-2.26,0-3.69,3.65-4.27  c1.4-20.11,9.91-39.21,14.89-58.84c-3.86-1.99-0.34-11.06,4.02-10.82l-0.84-4.27c2.41-6.95,18.78-43.96,22.93-45.92  c5.3-2.5,6.41-1.76,4.93,3.92c-15.71,35.85-28.54,72.71-38.48,110.58L479.93,1253.39z" />
<path class="cls-8" d="M354.89,1234.8c5.32,19.62,8.11,39.82,10.6,60.09c-9,0.02-17.85-1.88-26.76-3.16l-2.49-1.31  c1.52-3.15,0.56-2.98-2.88,0.51c-1.08-0.34-2.58-1.1-3.66-1.21c-3.63-2.35-5.48-6.65-5.53-12.87c-0.79-9.07,0.58-18.14,4.1-27.22  c-0.1-5.41,1.18-9.37,3.86-11.89c0.7-4.47,5.31-6.41,8.7-2.83c-1.21,4.66-0.27,6.35,2.83,5.08  C338.14,1232.84,350.98,1229.6,354.89,1234.8z" />
<path class="cls-8" d="M314.84,1248.3l3.53,1.85c1.85,3.1,2.4,11.4,2.46,15.31c0.11,6.65-0.58,19.38-6.34,22.55  c-11.53-1.34-23.16-2.45-34.49-5.07c2.81-11.1,6.42-21.7,10.77-32.2l2.14-2.44c1.91-0.69,20.2-2.6,20.87-1.77  C314.21,1247.06,314.54,1247.67,314.84,1248.3z" />
<path class="cls-8" d="M471.61,1259.25l-10.93,54.45c-3.89-0.09-7.31-1.27-10.93-2.6l-3.24-4.9c-2.62-12.51-4.7-29.06-4.92-41.81  c-0.04-2.06,0.59-3.83,2.05-5.35C450.79,1254.28,464.37,1254.84,471.61,1259.25z" />
<path class="cls-2" d="M127.09,1214.89c3.37,0.24,4.24,3.59,2.9,6.39l1.19,1.63c1.26,0.2,1.24,0.62,0.05,1.24  c-1.78-0.28-4.24,4.82-3.53,6.61c-4.54,0.97-1.65-0.82-1.52-0.59c0.52,0.9-6.54,17.28-10.52,16.43c-1.11,2.18-2.58,4.24-2.41,6.86  c-0.92,2.83-1.93,5.69-3.04,8.59l-3.14,0.76c-6.55,14.58-12.74,29.19-18.53,44.67c-0.78,2.1-7.71,2.04-7.68,0.09l21.04-58.12  c-0.44-3.19,0.22-8.56,4.27-8.19c-0.33-4.24,1.15-8.59,4.44-13.04c1.65-6.16,4.46-10.55,8.45-13.17  C115.68,1209.22,127,1208.7,127.09,1214.89z" />
<path class="cls-8" d="M380.55,1236.16l5.09,60.42c-3.96-10.88-5.57-22.13-12.82-32.5c1.28,11.05,4.85,21.39,4.78,32.35  c-1,0.09-2.84-0.34-3.8-0.02c-2.45-19.96-7.85-39.24-11.28-58.9C361.9,1230.58,378.78,1230.47,380.55,1236.16z" />
<path class="cls-6" d="M78.81,1217.15l3.27,0.19l11.26,14.38c3.47,4.01,4.02,7.24,1.63,9.68c-21.58-5.49-42.72-13-63.85-20.15  C46.67,1217.94,62.9,1218.16,78.81,1217.15z" />
<path class="cls-4" d="M332.12,1237.74c-0.73,27.54-10.89,20.69-2.43,51.98c-5.23,1.32-10.33-1.13-15.21-1.69  c3.74-13.77,5.77-26.16,0.36-39.72c-5.9-1-5.75-12.62,0.14-13.07c4.2,2.27,9.27,2.15,15.2-0.36L332.12,1237.74z" />
<path class="cls-4" d="M67.14,1192.4c4.13-0.45,22.77,19.18,23.25,20.97c0.31,1.14-0.07,2.26-0.63,3.25  c4.55,1.92,8.17,5.75,10.86,11.48c4.17,4.51,6.02,8.91,5.55,13.18c-1.31,2.17-0.74,7.07-4.27,8.19c-2.21-2.57-4.46-5.88-6.94-8.07  c-2.46-9.6-11.46-16.12-16.15-24.25c-5.89-10.19-14.48-17.7-22.75-26.04c-6.52-6.58-11.64-15.15-19.41-20.82  C48.08,1177.08,59.03,1183.71,67.14,1192.4z" />
<path class="cls-8" d="M411.77,1232.47l-0.41,70.28c-2.14-0.87-4.82-0.22-7.02-1.36l0.36-67.99  C405.57,1229.66,410.02,1228.97,411.77,1232.47z" />
<path class="cls-4" d="M443.65,1259.04c0.48,17.34,4.37,34.65,6.11,52.06c-5.83-2.15-10.84-4.38-17.12-4.31l7.99-50.54  C445.27,1255.25,446.28,1256.18,443.65,1259.04z" />
<path class="cls-4" d="M113.24,1253.48c8.32,15.99,17.37,31.49,22,49.87c-1.78,0.6-6.8,1.09-8.53-1.01  c-6.34-13.5-11.11-27.78-19.65-39.5C108.66,1259.28,108.57,1254.08,113.24,1253.48z" />
<path class="cls-6" d="M492.98,1324.47c-4.81,0.4-9.15-3.24-13.68-4.36c-0.51-14.68,1.79-29.23,5.58-44.76L492.98,1324.47z" />
<path class="cls-8" d="M241.28,1263.07c3.88-2.84,9.49,9.79,10.49,13.15l-1.37,2.66l-25.27-4.1c1.35-7.5,0.97-15.22,4.66-22.58  L241.28,1263.07z" />
<path class="cls-6" d="M179.24,1264.51c-3.03,0.13-5.97-0.64-8.88-1.43c-0.19-17.44-1.67-35.21,2.21-54  C178.42,1228.19,175.86,1246.75,179.24,1264.51z" />
<path class="cls-8" d="M401.18,1206.52c-1.16,31.14-0.46,62.7-3.11,93.67c-0.65-0.45-2.14-0.42-2.93-0.46l3.9-93.14  C399.49,1204,400.56,1203.96,401.18,1206.52z" />
<path class="cls-2" d="M264.84,1284.04c-0.63,6.65,3.19,11.17-0.94,16.5c-4.88-7.14-8.04-14.98-13.5-21.66  c-3.47-4.24-4.87-11.78-9.12-15.8c0.81-1.69,1.89-3.28,3.54-4.22l3.23-0.7c5.14,8.05,10.71,15.63,16.7,22.74L264.84,1284.04z" />
<path class="cls-6" d="M127.7,1230.77l8.96,22.73c-7.54,0.03-14.15-4-21-6.89c3.07-6.04,5.56-12.57,9.87-18.48  C127.12,1228.51,127.42,1230.09,127.7,1230.77z" />
<path class="cls-6" d="M200.93,1277.79c-0.58-2.11,1.32-6-0.9-7.6c-2.12-1.53-5.97-1.07-8.52-1.94c2.46-10.28,3.98-21.07,10.24-30.94  C201.78,1251.77,202.04,1264.83,200.93,1277.79z" />
<path class="cls-4" d="M338.72,1291.73c-1.8-0.26-3.61-0.25-5.37-0.8c4.17-15.19,6.1-31.14,12.71-45.88L338.72,1291.73z" />
<path class="cls-8" d="M215.67,1272.47l-6.64-0.15c1.74-9.86,5.69-19.41,11.61-28.47C220.26,1254.37,216.93,1263.21,215.67,1272.47z" />
<path class="cls-3" d="M527.58,657.18c38.95,16.1,58.64,23.66,101.02,11.04c21.8-6.49,53.31-5.32,69.21,13.71l5.77,2.6  c27.34,31.55,65.71,50.7,107.62,51.59l5.68,2.77c3.11-3.95,12.63-4.93,16.09-1.15c0.77-4.33,14.26-5.11,15.99-1.14l3.24-2.85  c9.42,0.22,18.82,0,28.19-0.66l3.66,2.12c1.14-4.08,4.99-4.12,6.36-0.14c38.13,2.84,73.53,14.63,102.15,40.5  c5.39,4.87,13.19,11.94,14.91,19.09c3.62,15.05,4.54,30.97,4.18,46.45l-2.17,95.19c-16.32,20.72-32.09,43.8-57.41,53.28l-4.11-2.5  l-10.76-19.24l0.42-4.8l-4.16-2.31c-4.17-7.54-7.29-15.21-9.35-23.02c-4.02,1.43-6.31-5.28-5.36-8.51  c-11.53-23.53-16.03-53.02-21.94-80.53c-27.84,28.97-69.24,42.59-110.68,40.12c-15.12-0.9-31.44,1.09-44.12-7.53  c-16.17-11-21.42-30.38-29.22-48.41c1.27,22.86,11.8,100.53-13.86,113.4c-10.32-18.7-28.15-30.71-47.54-38.81  c-3.66,16.93-14.9,29.59-30.91,33.1c-60.29-74.64-39.42-99.59-6.85-179.22c-47.95-8.61-81.55-53.27-100.79-94.13  c1.86-1.72,1.28-5.64,1.64-7.95C518.27,658.52,523.72,655.58,527.58,657.18z" />
<path class="cls-15" d="M942.89,684.33c-3.26,7.81-5.87,15.74-7.54,24.91c-3.29-1.91-3.49-5.31-5.33-5.51  c-2.9-0.31-2.68,3.5-4.79,5.84c-2.97-6.98-2.64-14.87-8.1-22.05c-5.32,8.75-5.89,18.08-9.64,27.76c-2.01-2.76-2.4-6.53-6.63-8.95  c-5.25,9.26-7.6,19.2-10.41,28.73c-1.77-0.13-4.63-0.2-6.36,0.14l-3.19-2.45c-1.79-7.52-3.83-15.63-8.86-21.6l-7.96,19.78  c-3.88,1.83-6.91-0.49-9.11-6.96c-1.02,5.49-3.01,9.7-5.96,12.62L833,737.75l-3.03-0.6c-3.06-12.19-5.33-15.19-6.8-8.99  c-0.66,5.81-2.75,9.38-6.26,10.73c-48.46,0.01-87.99-19.76-119.08-56.96C779.54,683.44,861.69,680.06,942.89,684.33z" />
<path class="cls-15" d="M985.87,684.07c-0.73,6.77-2.71,13.92-5.12,21.65c-7.35-2.47-5.19-8.78-10.87-13.66l-12.97,25.58  c-3.92-11.27-4.01-24.98-12.53-33.55C957.57,681.38,972.47,681.94,985.87,684.07z" />
<path class="cls-15" d="M1020.14,684.38c-7.78-10.22-3.19,17.21-18.53,21.83c-2.7-7.13-3.13-16.58-7.68-23.16  C1002.65,684.92,1013,679.46,1020.14,684.38z" />
<path class="cls-15" d="M1110.42,683.03l-8.02,28.42c-5.34-8.8-6.46-18.76-9.44-28.51C1098.76,683.57,1104.6,683.18,1110.42,683.03z" />
<path class="cls-15" d="M1070.12,683.07c-0.83,8.66-4.05,17.03-7.97,26.16l-8-26.06C1059.46,683.53,1064.8,683.14,1070.12,683.07z" />
<path class="cls-2" d="M295.17,558.31l2.78,1.79c-0.21,10.58,11.08,37.91,23.03,22.9l7.01-16.86c1.62-5.4,4.77-8.81,9.47-10.25  c2.68-0.22,5.54-2.49,7.98-0.05l1.97,2.79c-5.26,18.76-10.96,43.43,5.69,58.1l0.27,3.57c8.07,8.31,14.4,14.05,25.84,18.12  c13.18,4.68,28.18,6.44,42,4.74l2.11,2.33c4.68-2.64,14.05-0.49,17.4,3.65c-3.48,6.18-10.48,8.51-14.64,12.56l-60.34-13.66  c-11.15-2.52-16.93-11.93-25.8-18.48c-10.09-7.45-24.13-9.56-33.35-17.64c-15.64-13.71-22.03-32.85-21.41-53.31  c0.2-6.56,0.26-14.92,5.74-20.1C295.56,544.53,294.95,552.04,295.17,558.31z" />
<path class="cls-13" d="M449.86,633.69c0.97,3.72,3.18,6.41,6.29,10.42c-5.28,2.54-12.78,0.75-15.43,5.03  c-5.95-0.45-11.71-1.91-17.4-3.65c-9.47-2.3-0.76-9.72,4.3-13.22c3.21-2.22,9.7-6.55,13.05-4.25  C443.18,629.02,448.9,630,449.86,633.69z" />
<path class="cls-15" d="M396.04,787.03l-29.36-0.4c3.01-4.18,6.31-8.16,9.96-10C384.33,774.51,391.45,781.41,396.04,787.03z" />
<path class="cls-4" d="M481.84,539.52c2.51,18.35,11.29,34.68,15.59,52.39c-1.7,4.29-5.13,7.99-10.3,11.1l-8.28,8.02l6.94,8.63  l-0.94,3.11c-15.36,7.83-27.08-0.27-41.25-11.48c-18.46-14.61-34.52-29.19-43.96-51.27c-4.04-3.11-0.33-6.71,3.48-8.32  c6.22-11.36,5.93-25.96,15.83-36.65c6.01,4.29-9.2,35.22,6.62,37.54c4.52,0.66,10.06-0.5,12.83-4.77l16.96-26.23  c5.53,6-1.66,12.29,2.54,18.19C466.48,538.08,474.73,535.99,481.84,539.52z" />
<path class="cls-4" d="M373.63,553.28l3,1.12c2.53,9.31,6.59,13.73,12.19,13.27c3.35-4.12,6.36-5.77,9.04-4.97  c2.51,28.48,22.02,48.17,42.81,65.31c-3.11,3.06-24.26,9.83-17.35,17.47c-18.53,3.93-63.43-3.01-69.95-25.19  c2.27-0.44,4.41-1.04,6.4-1.82c3.61-9.79,4.76-20.25,3.47-31.4l-2.74-30.7l2.42-2.16c-1.63-13.18-5.37-27.76-0.04-41.61  C369.52,527,366.63,541.32,373.63,553.28z" />
<path class="cls-11" d="M362.91,554.22c0.31,2.51,11.36,80.83-9.55,66.08c-20.59-14.52-13.97-44.37-7.92-64.45  C351.3,556.24,357.13,555.1,362.91,554.22z" />
<path class="cls-11" d="M337.46,555.89c-10.79,12.29-10.96,30.43-19.41,33.6c-12.04,4.51-22.27-13.59-22.88-31.18  C309.28,558.11,323.39,557.05,337.46,555.89z" />
<path class="cls-11" d="M399.64,560.03c-0.74,0.51-1.16,2.15-1.78,2.68c-2.68,2.27-6.96,9.26-11.91,8c-9.01-2.3-9.04-11.8-12.32-17.42  c9.74,0.57,20.01,0.69,29.49-1.57C401.78,554.16,400.54,557.52,399.64,560.03z" />
<path class="cls-4" d="M8.35,836.93c-0.94-0.83-2.87-1.56-4.06-1.49c1.66-8.64-5-17.75,0.8-27.81  C12.84,813.74,11.93,828.73,8.35,836.93z" />
<path class="cls-4" d="M19.83,835.5c0.6,2.2-1.94,5.41-3.07,6.89c-1.97,2.61-2.87-1.05-4.04-2.97c1.88-8.16-2.56-18.01,3.36-26.32  C24.12,819.16,17.89,828.39,19.83,835.5z" />
<path class="cls-4" d="M167.25,847.77c-1.83-3.84-2.24-7.97-2.35-12.16C171.02,834.18,174.25,847.86,167.25,847.77z" />
<path class="cls-8" d="M177.04,823.8c-0.46,8.05-4.6,15.31-1.23,23.45c5.55-6.64,5.62-1.9,5.59,0.14c-0.06,5.52-3.26,6.09-5.08,6.77  c-5.03,1.88-3.28-2.47-2.13-6.54c-6.35-0.52-1.34,5.68-4.35,9.93c-4.13-2.12-1.21-6.86-2.6-9.78c2.8-3.61,0.31-8.96-2.35-12.16  c-0.06-2.12-1.91-4.43-0.39-6.63C165.22,824.53,176.36,819.03,177.04,823.8z" />
<path class="cls-8" d="M16.86,869.08c-2.23,2.68-2.05,6.78-0.05,9.67c-2.23-0.39-5.35-2.92-6.46,0.07c-0.76,2.05-0.07,4.98,0,7.78  l0.24,8.71c0.1,3.6-2.16,4.8-7.35,3.28L3.1,884.02c1.89-1.38,3.23-0.05,4.23-0.95c1.82-1.64,2.21-6.03,0.43-6.41  c-4.06-0.88-5.81-2.93-6.41-6.33c4.27,0.92,7.18,1.04,7.09-4.43l-0.22-12.9c2.99,1.44,2.73,4.68,4.43,7.27  c3.33,5.07-7.35,3.94-1.16,8.77c7.31-3.83,0.4-11.99,4.11-17.45C18.68,857.57,16.45,863.55,16.86,869.08z" />
<path class="cls-8" d="M1139.9,901.19c-2.26-0.85-2.2-6.12-0.43-7.71c5.05-11.61,2.14-26.73,2.63-40.08  c-0.84-2.48,0.22-2.72,1.63-0.39l1.42,37.85c2.82-1.39,0.3-5.77,2.4-7.49c4.64-1.99,5.46,2.12,4.37,5.13  c-1.31,3.6,0.63,6.19-5.12,7.48c6.22,5.41,0.52,10.76-1.99,15.43c-0.93-5.61-0.85-6.56-0.85-10.53  C1143.98,897.88,1142.98,899.17,1139.9,901.19z" />
<path class="cls-4" d="M1139.48,893.48c-1.58,3.09,0.93,5.89,0.43,7.71c-1.76,5.94,4.79,12.19-4.69,15.25l-8.42-46.8  c7.15,11.16,4.87,23.64,9.92,34.68l1.79-14.91L1139.48,893.48z" />
<path class="cls-4" d="M1155.5,839.55c-3.27,4.6,0.46,10.85-6.34,13.37c-2.9-6.67-0.46-13.62-0.36-19.85  c0.05-3.28,2.69-8.75,5.27-6.18C1157.13,829.94,1153.83,836.05,1155.5,839.55z" />
<path class="cls-4" d="M1144.86,831.96l-1.12,21.06l-1.63,0.39c-5.93-1.67-2.24-8.97-4.04-13.53c-0.16-2.33,0.48-5.28,1.01-8.28  C1139.42,829.6,1142.95,830.73,1144.86,831.96z" />
<path class="cls-14" d="M1090.27,897.32c2.7,1.29,1.11,5.8-1.7,6.56c1.18,0.26,1.12,0.65-0.06,1.15c-5.06,2.65-4.55-2.24-6.16-3.1  c-2.15-1.15-5.52,5.7-8.34,4.37C1071.8,897.75,1083.32,896.35,1090.27,897.32z" />
<path class="cls-8" d="M1092.86,906.7l-1.21-0.82c1.28-7.26,1.67-14.64,1.19-22.14l1.37-1.14c-0.23-3.22-0.15-6.89,2.6-9.52  c-1.48,12.13-2.29,24.87-0.13,35.98c7.01-0.26,1.08,1.65,0.2,1.97c-2.58,0.95,0.4,3.49,2.72,4.31c-1.29,1.4-4.92,1.06-5.34-1.2  L1092.86,906.7z" />
<path class="cls-14" d="M1094.2,882.59c-0.76,8.86-2.57,17.55-1.34,24.11l-2.3,0.17c-1.43-0.09-1.47-2.04-0.2-2.86  c0.54-3.22,1.37-5.89,2.5-8.02c-1.89-2.04-1.89-5.17,0-9.38c-0.45-0.99-1.53-2.4-1.25-3.29  C1091.99,882.11,1093.51,882.59,1094.2,882.59z" />
<path class="cls-8" d="M1092.86,895.98c0,2.95,0.82,6.85-2.5,8.02c-0.24,2.56-1.22,2.47-1.8-0.12c1.13-2.01,1.86-4.24,1.7-6.56  l-0.09-1.34C1090.61,892.43,1091.84,892.58,1092.86,895.98z" />
<path class="cls-4" d="M1092.86,895.98h-2.68c-0.22-3.32,0.31-6.89,2.68-9.38V895.98z" />
<path class="cls-4" d="M1090.56,906.86c-0.64,2.73,0.37,5.46-1.09,8.05c-1.38-3.29-0.18-6.68-0.97-9.88  c-0.09-0.36,0.1-0.78,0.06-1.15l1.8,0.12C1090.27,904.92,1090.77,905.96,1090.56,906.86z" />
<path class="cls-3" d="M946.76,1225.21c5.04-3.29,7.78-3.17,8.23,0.34c3.24-3.7,7.25,1.45,9.2,4.65c5.32,8.73,2.57,17.58-1.43,26.12  c-2.39,9.13-3.59,18.11-4.01,26.73l-15.57,69.7c-1.97,9.2-8.39,16.57-17.45,15.16c-2.1-0.33-3.16-0.28-4.15-0.37  c-3.76,3.6-7.37-2.74-8.91-6.27c-2.1-4.84-2.16-10.28-2.1-15.46c0.06-4.96,0.22-15.43,5.01-17l-2.4-1.67  c1.76-8.89,3.51-17.78,5.27-26.67l3-1.34c-0.41-19.68,3.52-48.07,12.7-65.63C936.51,1228.96,941.65,1220.7,946.76,1225.21z" />
<path class="cls-12" d="M134.28,1192.13l4.71,22.45c-2.75,3.62-8.98,3.82-11.9,0.32c-1.41,0.16-2.89-1.08-4.06-1.64  c-1.66-0.79-2.89,0.63-3.96,1.8l-2.62,2.82c0,0-7.59,0.4-22.78,1.21l-3.9-2.47l-22.63-24.22L134.28,1192.13z" />
<path class="cls-8" d="M1054.91,826.61c-4.01,1.74,2.01,6.58-4.2,8.38c-3.92-5.98-3.71-13.23-8.7-17.73c1.7-0.17,1.66,1.45,4.39,2.28  c1.42-4.34-1.71-8.27-0.99-13.11c8.78,17.71,2.54-5.56,5.4-5.68c1.7,3.83-1.33,8.44,2.85,11.28l1.68-5.7  c2.38,3.12-2.28,7.3,2.91,9.73c1.77-5.18-0.84-9.32,2.1-12.65c1.01,6.81-2.63,15.87-0.85,22.78c0.78,1.27,6.59,3.42,4.62,3.67  c-3.89,0.49-5.06,2.22-6.67,3.31C1054.69,835.05,1056.86,829.69,1054.91,826.61z" />
<path class="cls-8" d="M1131.72,937.51c2.51,9.81-3.52,19.36-2.75,29.44c-12.9-4.64-28.47-7.22-38.82-18.82  C1101.72,937.14,1118.2,938.43,1131.72,937.51z" />
<path class="cls-2" d="M694.87,1213.21c1.58,0.93,3.08,2.07,3.92,3.73c6.59,12.91,6.58,39.25,6.23,54  c-2.44,11.82-3.36,23.36-2.73,34.64c46.09-10.79,94.01-19.33,141.62-7.41c0.76,0.19,1.43,0.79,2.13,1.44  c0.73,0.68,1.34,1.49,1.91,2.34l2.3-2.09l11.98,4.75l1.19,2.74l2.72,2.03l0.16,32.04c-0.68,11.82,2.1,21.77,8.35,29.83  c2.49,0.8,3.78,2.22,3.87,4.27l-0.45,60.52c-7.01-26.07-11.97-53.08-23.37-76.45c13.68,57.46,30.65,115.3,21.04,169.87  c0.63-4.56,0.21-9.13,0.06-14.57l-28.34-1.52c-2.08-28.32-7.66-56.47-13.36-84.93l16.44-1.43c-5.9-1.86-12.1,0.26-17.69-2.77  c-9.46-42.34-20.85-83.89-44.03-119.66c17.58,38.45,29.23,78.2,36.08,121.04c-104.46-3.8-207.42,0.59-310.22-0.65  c35.39-25.79-6.2-57.65,48.74-104.81c2.38-2.73,0.36-8.81,0.43-11.56l-2.33-4.59c-0.7-7.62,8.91-35.78,12.47-43.88l3.32-1.11  c-1.03-2.4-0.01-2.72,1.54-0.49l1.53-2.38c17.35-0.07,34.71-0.03,52.09,0.12l0.92,1.49c2.94,5.93,3.19,12.94,0.75,21.01l-3.6,17.62  c3.44-0.83,6.24-1,8.4-0.51c-1.28-9.36-0.94-18.89,1-28.56c5.57-23.6,9.52-47.42,11.85-71.46l2.7-4.73  c-0.46-4.13,3.74-3.97,7.28-3.28c3.17,0.62,26.78,16.29,29.66,19.58L694.87,1213.21z" />
<path class="cls-2" d="M915.57,1328.8c-2.15,10.89-6.13,32.59,6,38.73l-23.4,147.12c-3.8,0.4-7.64,0.71-11.43,0.14  c-4.6-46.29-2.41-92.9-4.14-139.41c0.42-2.56,2.07-5.06,4.94-7.51c5.4-13.76,7.33-28.46,5.78-44.11l2.65-1.8  c2.44-2.2,6.3-1.8,11.58,1.2C912.48,1323.88,915.16,1325.76,915.57,1328.8z" />
<path class="cls-3" d="M895.98,1321.97c0.2,16.9,1.46,48.23-13.38,53.42c-0.99,0.35-3.02,0.25-4.08,0.13  c-18.81-2.19-14.42-43.69-15.11-68.17l-2.75-4.53c-0.19-15.98,0.48-31.89,2.03-47.73c-0.86-1.12-1.59-2.38-1.61-3.83  c-0.02-1.58,5.85-16.2,7.16-18.48l3.49-1.73c8.58-8.67,22.42-1.63,25.16,9.61c1.27,26.47,1.86,53.03,1.75,79.67L895.98,1321.97z" />
<path class="cls-8" d="M858.41,998.92l3.38,2.04c3.95,8.72,8.53,21.85,11.63,31.13c6.8,20.3,11.07,44.95,2.31,65.66l-3.79,3.22  c1.85,3.32,1.22,7.13-1.9,11.42c-2.24,6.54-5.67,10.7-10.27,12.47l-0.36,1.8c-2.78,0.21-3.2,1.03-1.26,2.49  c2.42,1.13,3.97,3.68,4.65,7.65c17.37,27.03,22.49,59.82,12.9,90.76c-0.22,0.7-0.85,1.29-1.54,1.9c-0.72,0.63-1.56,1.13-2.43,1.6  c-2.9,8.19-6.3,14.76-9.04,24.04c-1.33,13.76-5.83,29.55-10.94,42.5c-0.72,1.83-2.31,3.15-3.81,4.36  c-75.48-19.93-144.91,10.38-147.46,5.93c-7.67-13.41,12.7-36.34-5.61-94.66c-5.34-5.24-6.08-17.51-5.19-24.82l2.58-2.79  c2.04-3.27,1.66-3.33-1.13-0.18c-0.13,1.04-0.46,2.58-1.21,2.67c-6.45,0.71-29.85,0.71-35.9-0.33l-1.9-2.7  c-2.15,0.24-3.22-1.07-3.2-3.93c-0.83-0.52-18.05-0.94-17.94,2.81c-0.68,0.71-1.38,1.39-2.18,1.91c-3.9,2.54-26.86,1.4-31.59-2.27  c-0.54-2.44-0.76-2.98-0.66-1.63c-8.22-1.62-8.37-1-0.44,1.86c4,3.59,4.19,17.52-0.85,20.16c0.98,10.98-5.32,40.63-12.41,47.63  c-0.84,0.83-1.81,1.52-2.81,2.18l-1.26,2.39c-32.38,0.21-64.79,0.18-97.22-0.1l-1.61-2.69c10.16-40.71,21.76-80.14,40.73-119.41  c-12.96,15.03-17.62,34.48-26.48,51.34l-6.1,0.42c-14.27-5.73-28.79-10.95-43.86-14.19l-4.86-3.68l13.49-68.88  c-9.68,22.35-15.57,45.01-18.8,67.44c-2.92,4.27-14.09,1.19-15.02-3.72l4.92-98.6c-6.39,33.08-8.94,65.02-10.4,97.05  c-0.28,4-5.82,3.52-6.48-0.18c0.91-36.9,4.44-73.38,5.63-109.45c13.18-6.41,27.27-8.62,42.82-9.85l129.92-10.29  c3.21,12.46,9.19,25.23,9.76,38.44l2.88,3.81c3.65,26.1,5.3,52.32,4.94,78.65l-3.05,4.69c-3.94,2.12-4.28,2.86-1.01,2.22l0.85,1.81  c2.88,0.68,3.78,3.12,2.7,7.3l-1.15,6.94c0,0,8.15-0.06,24.46-0.17c-5.45-17.7-5.21-36.41-2.93-54.58  c4.12-19.13,5.71-38.06,4.75-56.81l2.04-2.87c0.67-10.8,3.72-21.57,3.79-32.42c0.11-4.74,10.89-5.18,12.19-1  c7.38,22.11,3.01,46.36,6.56,69.22c1.05-0.05,2.68,0.06,2.83,0.78c2.2,10.35,7.12,35.56,6.93,45.16l-7.07,32.36  c10.59,0.64,21.41,0.82,32.44,0.53c-13.04-26.3-9.13-52.77,0.91-79.18l1.67-27.01l3.66-5.87c3.25-13.36,7.15-26.6,8.68-40.33  l3.81-2.72c20.06-2.65,39.81-7.66,59.25-15.01c28.77-5.98,57.95-8.91,87.53-8.76L858.41,998.92z" />
<path class="cls-4" d="M918.79,929.2c3.03,1.1,3.39,6.17,5.36,8.51c2.54,10.58-1.05,22.01-4.28,32.09l1.97,2.62  c-1.16,7.13-0.52,14.28,1.93,21.45l-2.18,2.42l2.96,0.95c4.29,17.82,8.23,35.72,11.8,53.69c-10.51,19.45-22.46,40.38-37.89,55.86  c-2.17,2.61-5.2,3.17-9.1,1.67c-5.06-0.69-15.5-3.05-17.42-7.48c15.73-49.15-3.89-67.41-13.54-102.05  c-4.35-0.12-7.63-12.08-4.03-14.47l-3.02-1.05l-2.29-14.44c-1.89-3.39-2.38-6.29-1.46-8.73L918.79,929.2z" />
<path class="cls-4" d="M629.68,1060.82c7.64,26.8-15.84,73.14-0.06,117.2c-11.1,0.54-20.75,0.54-31.54-0.05  c1.34-6.73,2.5-11.72,1.73-16.96c-0.62-1.38-0.58-2.73,0.17-4.03c3.17-35.49-3.53-58.42-4.77-87.16  c9.58-14.93,4.02-33.61,6.32-52.99C616.74,1026.51,624.96,1044.28,629.68,1060.82z" />
<path class="cls-14" d="M854.38,984.46l4.03,14.47c-31.49,2.06-63.95,0.77-95.06,9.74c-20.98,6.05-39.45,14.69-61.08,14.4  c0.67-6.03,1.21-12.43,1.02-18.5c1.19-8.95,12.65-13.58,20.5-16.47c32.47-11.95,92.92-9.34,128.11-6.33L854.38,984.46z" />
<path class="cls-16" d="M847.61,960.24c5.81,6.23,4.53,16.18,6.77,24.22c-37.53,0.04-125.29-11.36-151.1,20.11  c-0.51-15.98-6.55-31.27-3.07-48.48C741.85,965.58,805.96,978.4,847.61,960.24z" />
<path class="cls-4" d="M693.58,1063.4c-3.12,12.82,0.34,27.88-4.76,40.84c-9.58,24.34-11,48.99,3.63,73.9l-41.01,0.03l7.88-35.62  l-7.12-45.91C667.47,1087.14,680.29,1075.18,693.58,1063.4z" />
<path class="cls-16" d="M642.61,1007.19l-2.68,1.67c-1.8-1.33-3.94-2-6.41-2.01c-0.97-12.67-3.79-25-6.31-37.86  c4.35,0.12,9.48,0.39,12.64,2.97C640.67,984.37,639.88,996.08,642.61,1007.19z" />
<path class="cls-14" d="M498.3,829.2c-7.57-2.9-15.76-1.48-23.91-1.4c2.04-6.2,2.71-12.57,6.67-19.37L498.3,829.2z" />
<path class="cls-14" d="M642.61,1007.19c1.57,6.37,1.01,14.14,3.04,20.22c-4.08,0.19-8.25-0.2-12.19,1c0.04-7.01,0.58-14.62,0.05-21.56  c1.41-0.75,2.81-2.45,4.64-2.24C639.81,1004.79,640.9,1006.82,642.61,1007.19z" />
<path class="cls-14" d="M301.53,1102.37c0.57,9.47,5.18,20.18,3.38,30.96c1.36,2.27,6.57,1.83,8.67,1.3l2.36-26.56  c5.09,8.9,6.46,17.76,4.63,27.44c2.74,0.7,4.59-1.32,7.46-1.31c3.62,6.66,5.28,13.17,8.05,20.74  c-12.48,13.61-20.44,29.93-31.64,43.91l-5,1.84c-17.89-1.85-35.85-2.45-53.88-1.81l-4.68-2.78c5.44-33.42,16.52-66.34,28.73-98.61  c10.62,11.3,12.35,25.26,21.18,37.01c1.11-18.39-16.19-29.47-17.73-44.49l3.49-0.03c5.91,6.32,14.49,8.77,22.89,9.54L301.53,1102.37  z" />
<path class="cls-6" d="M297.42,1212.18c-2.01,8.59-7.49,15.88-10.95,24.06l-1.53,1.94c-17.04,0.88-34.94,1.09-52.18,0.56  c-0.32-0.01-0.63-0.64-0.93-1.44c0.12-8.19,4.3-16.14,5.04-24.09l0.86-2.41c19.29-0.67,38.64-1.1,58.05-1.28L297.42,1212.18z" />
<path class="cls-12" d="M304.43,1198.85c-0.8,4.47-4.31,9.77-7.02,13.33l-60.54,1.04c0.56-6.03,3.08-11.55,3.99-17.12  C262.04,1196.72,283.87,1194.77,304.43,1198.85z" />
<path class="cls-6" d="M202.85,1213.36c-0.39,19.31-12.42,27.2-18.69,49.7c-2.85-17.59-5.22-33.28-5.33-49.36  c0.12-1.04,0.38-2.54,1.15-2.69c2.82-0.55,10.25-0.4,13.57-0.19C198.32,1209.8,201.42,1210.65,202.85,1213.36z" />
<path class="cls-6" d="M283.8,1241.44c0.04,3.79-2.53,7.24-3.71,10.77l-2.77,3.69c-8.04,1.45-21.42,3.78-29.32,2.72  c-1.71-0.23-3.05-0.54-4.01-2.19c-3.73-5.87-11.74-9.07-12.45-16.24c0.08-0.8,0.17-1.43,0.27-1.43c16.08-0.42,34.49-0.71,50.48,0.12  L283.8,1241.44z" />
<path class="cls-8" d="M297.36,1071.21c2.2,10.55,3.52,20.52,4.17,31.17c-11.02-0.74-21.57-3.58-28.48-12.36  c-0.38-0.48-0.75-0.97-1.21-1.38C273.13,1076.98,286.55,1073.32,297.36,1071.21z" />
<path class="cls-8" d="M264.84,1284.04c-9.8-5.1-11.39-18.18-20.02-25.19c-0.35-0.75-0.38-1.73-0.83-2.43  c12-1.94,25.05,0.48,36.1-4.21l-9.83,29.33C269.53,1283.73,266.23,1283.71,264.84,1284.04z" />
<path class="cls-6" d="M165.4,1214.66c-2.08,15.92,1.9,33.41-4.78,50.69c-9.8-16.28-9.27-34.91-12.01-50.58  C151.14,1210.52,163.28,1209.87,165.4,1214.66z" />
<path class="cls-12" d="M203.25,1193.22l-0.4,20.13l-24.03,0.33c-0.04-6.61-1.28-13.62-1.85-20.24  C185.76,1192.72,194.57,1194.93,203.25,1193.22z" />
<path class="cls-12" d="M166.17,1193.42c-1.23,6.64,0.12,14.36-0.77,21.24c-5.56-0.83-11.18,0.05-16.78,0.11  c-1.05-6.03-2.59-15.6-4.1-21.45C151.7,1192.43,158.97,1192.81,166.17,1193.42z" />
<path class="cls-6" d="M227.82,1213.33c-2.64,6.83-1.29,16.71-5.3,23.5c-3.97,0.83-7.84,3.11-11.31,8.28  c-2.46-11.48-0.39-21.6,0.86-31.83C214.64,1208.88,225.56,1208.6,227.82,1213.33z" />
<path class="cls-12" d="M231.95,1196.02c-1.72,5.72-1.94,11.63-4.13,17.31c-5.21-0.78-10.5-0.31-15.74-0.06l2.26-18.52  C220.23,1194.95,226.17,1194.82,231.95,1196.02z" />
<path class="cls-8" d="M286.47,1236.25c-0.73,1.72-1.03,4.04-2.66,5.19l-52.26-1.26c-0.09-0.93,0.28-1.93,0.29-2.87L286.47,1236.25z" />
<path class="cls-6" d="M139,1214.58c1.9,9.04,5.25,18.11,5.2,28.55c-4.03-6.92-6.33-14.92-12.97-18.97c-0.1-0.37,0.13-0.91-0.05-1.24  l-1.19-1.63c-1.86-1.62-3.02-3.9-2.9-6.39C131.05,1214.44,135.02,1214.28,139,1214.58z" />
<path class="cls-14" d="M336,1111.46c-1.33,8.01-1.04,17.67,1.35,26.78c5.65-6.65,3.67-15.45,4.37-22.56c1.64-3.39,3.91-3.29,5.22,0.24  l-0.64,19.63c6.78-4.36,3.59-11.18,5.99-16.14c1.01-4.55,11.26-0.56,10.91,3.28c-2.19,4.44-3.09,9.38-8.53,11.54  c2.89,2.19,3.24-0.97,6.85-1.18c0.92-0.06,1.22,2.66,1.04,3.24c-0.33,1.03,1.19,2.79,2.46,1.66c0.6-0.54,0.45-2.94,2.82-3  c3.51,21,6.7,41.9,7.44,62.4c-0.12,1.03-0.37,2.53-1.13,2.69c-2.68,0.56-9.22,0.28-12.3,0.13c-4.31,0.91-7.08,0.04-8.31-2.59  c-5.21-20.25-12.16-40.39-20.22-60.32c-3.99-9.88-5.01-17.93-1.21-26.94c2.81-2.63,2.8,2.75,2.17,4.8  C334.19,1115.39,333.03,1109.09,336,1111.46z" />
<path class="cls-8" d="M408.27,1055.3c-0.56,7.56,0.59,15.03-1.94,23.4c-8.83-1.67-9.66,4.96-13.04,9.44  c-6.91,9.16-16.2,14.85-23.06,25.62c-16.38-44.71-7.17-33.41-3.34-54.27L408.27,1055.3z" />
<path class="cls-14" d="M380.55,1133.84c3.23-2.93,11.25,0.15,13.2,3.41l-0.22,54.65c-0.02,4.37-0.24,8.27-3.54,10.77  c0.22,3.77-1.83,3.53-2.86,0.06c-3.53,0.09-5.26-2.85-5.8-6.71l-9.67-70.01C376.77,1127.88,376.58,1132.84,380.55,1133.84z" />
<path class="cls-8" d="M402.97,1158.29c-2.09,3.11-4.13,2.61-4.64-1.09c-0.3-21.09-2.19-42.29-4.43-63.77  c3.42-4.8,8.75-7.81,13.04-11.29L402.97,1158.29z" />
<path class="cls-6" d="M376.47,1208.98c3.21,8.5,3.3,18.03,4.07,27.18c-5.88-0.93-13.23-2.64-18.03,1.34  c-1.62-9.31-5.3-18.36-6.11-27.98C360.66,1204.89,372.12,1204.34,376.47,1208.98z" />
<path class="cls-8" d="M393.75,1137.25c-4.78,0.78-8.75-2.29-13.2-3.41c-0.08-5.72-5.74-11.11-6.6-16.97  c3.33-8.54,11.19-15.25,18.01-21.48C394.25,1110.14,393.81,1123.65,393.75,1137.25z" />
<path class="cls-8" d="M344.03,1063.25l-8.03,48.21c-0.22,0.63-1.1,1.27-1.12,2.17c-0.21,7.09-1.94-3.32-2.77-3.31  c4.33-15.17-4.36-31.23-1.3-46.79C335.24,1063.61,339.65,1062.38,344.03,1063.25z" />
<path class="cls-8" d="M346.94,1115.92c-1.75,0.14-3.5,0.07-5.22-0.24c1.41-14.36,0.92-29.18,6.14-43.49c3.95,1.93,5.64,4.75,8.78,7.6  C353.14,1092.19,351.43,1104.57,346.94,1115.92z" />
<path class="cls-14" d="M413.55,1161.17l-1.95,42.85c-0.31,5.72-5.58,5.76-4.64,0.38c-2.65-14.25-0.25-28.9,0.11-43.41L413.55,1161.17z  " />
<path class="cls-6" d="M389.99,1202.67c5.42,8.91,3.19,24.62-0.68,36.07c-6.93-9.41-8.56-27.74-2.18-36.01L389.99,1202.67z" />
<path class="cls-12" d="M375.28,1197.34c0.12,3.41,2.1,8.09,1.2,11.64c-6.67-0.54-13.4-0.02-20.07,0.54  c-0.28-3.28-2.03-8.67-2.87-11.96L375.28,1197.34z" />
<path class="cls-6" d="M411.59,1204.02c-0.41,8.98,0.23,19.28,0.18,28.45c-2.35,0.39-4.69,0.9-7.08,0.93c0.05-9.6-0.95-20.31,2.26-29  c0.57,0.76,1.52,1.16,2.22,1.16C410.4,1205.56,411.17,1204.88,411.59,1204.02z" />
<path class="cls-14" d="M402.97,1158.29l-1.79,48.24l-2.14,0.07l-0.71-49.39C399.92,1157.34,401.47,1157.77,402.97,1158.29z" />
<path class="cls-8" d="M363.2,1122.69c-3.82-0.55-6.99-3.15-10.91-3.28c1.11-2.31,0.45-8.88,2.44-10.95c1.97-2.04,7.79-5.54,8.69-1.59  c-5.99,2.92,2.55,4.39,3.03,6.41C367.84,1119.24,364.68,1119.69,363.2,1122.69z" />
<path class="cls-6" d="M354.89,1234.8c-3.49,0.82-6.65-0.41-11.09,1.44c2.12,1.95,4.12,3.98,2.44,5.32c-2.16,1.72-4.7,1.36-6.64,1.01  c-2.97-0.53-2.15-3.71-0.53-6.86c-3.43-1.17-4,2.69-6.94,2.03c-6.75-1.52-11.82,6.22-18.31-0.91c-0.78,5.34-0.29,8.15,1.03,11.47  c-8.17-0.03-15.94,3.78-24.07,2.45c5.44-13.11,8.45-27.09,16.24-38.99l3.71-2.82c0,0,7.38-0.27,22.15-0.8l2.03,2.61  c4.02,5.06,5.2-5.76,11.86-4.56C354.02,1213.91,352.49,1225.96,354.89,1234.8z" />
<path class="cls-14" d="M337.46,1198.91l-1.69,2.57c-6.48-0.43-12.97-0.86-19.46-1.29l-1.71-2.8c5.85-12.68,13.63-24.8,22.29-36.62  C344.94,1173.23,339.86,1186.15,337.46,1198.91z" />
<path class="cls-8" d="M327.83,1064.4c1.72,8.03-3.96,15.36-4.93,21.46c-0.62,3.89,4.53,9.93,0.63,17.52  c5.63-4.06,2.52-9.53,5.46-14.82c5.03,10.2-0.45,16.77-4.72,27.28c-1.48-4.61-7.46-8.4-8.57-13.86l-0.97-41.22  C318.14,1065.2,322.54,1065.41,327.83,1064.4z" />
<path class="cls-12" d="M337.46,1198.91c-0.75,3.97-1.03,8.05-2.55,11.83l-27.9,1.01c2.48-3.79,5.67-10.22,7.59-14.36L337.46,1198.91z  " />
<path class="cls-8" d="M14.73,883.93h1.34c-0.39,3.58,0.84,7.27-0.67,10.92C13.89,891.2,14.86,887.52,14.73,883.93z" />
<path class="cls-11" d="M558.25,543.5c-1.97,19.22-4.16,47.78-32.59,46.48c-8.83-0.4-9.77-8.44-13.95-13.77l-0.29-3.27  c10.44-7.06,16.7-15.99,18.76-26.79l2.56-1.91C541.1,545.56,549.87,542.78,558.25,543.5z" />
<path class="cls-4" d="M532.75,544.24c1.5,12.97-11.27,23.68-21.03,31.97c-8.47-10.81-14.86-24.08-18.83-37.5  c9.14,0.6,17.62-2.92,23.37,5.5C522.25,540.69,527.92,543.47,532.75,544.24z" />
<path class="cls-11" d="M497.43,591.92c3.6,14.88-2.33,25.64-12.58,30.86l-9.75-12.12C482.33,603.65,489.5,596.67,497.43,591.92z" />
<path class="cls-11" d="M600.19,539.89c-5,5.57-10.38,16.04-20.1,15.53c-6.21-0.32-5.54-10.4-6.98-14.31  C582.16,540.62,591.35,541.89,600.19,539.89z" />
<path class="cls-8" d="M952.07,990.93c32.57,68.79,49.13,59.25,53.51,140.54c-0.16,0.85-0.35,1.52-0.6,1.54  c-12.6,1.36-20.62-2.3-1-0.03c0.61,0.07,1.14,0.75,1.66,1.61c-3.16,64.53-11.16,67.49-42.87,121.74c2.9-11.08,3.54-26.15-7.77-30.76  c-2.26-1.32-5-1.43-8.23-0.34c-16.06,1.85-21.06,52.31-25.33,73.9c-1.28-0.28-2.62-0.71-3.45-1.79c-4.89-6.44-1.26-33.21,1.14-41.45  c5.54-15.34,9.05-30.61,10.54-45.8c-13.11-21.98-26.25-44.03-39.42-66.13c-3.74-5.17-5.4-10.55-4.99-16.15l-0.46-3.28  c3.85-5.07,7.09-10.54,9.72-16.42l3.92-1.29c12.13-18.3,24.05-36.99,35.44-56.5l-12.32-54l3.3-2.7l12.6-1.13  C942.85,990.38,947.71,989.87,952.07,990.93z" />
<path class="cls-14" d="M937.65,963.03c4.67,8.74,10.4,17.27,14.45,26.54l-0.04,1.35c-9.84,4.26-19.8,5.44-30.49,5.36  c-1.89-8.29-5.04-17.6-1.72-26.49C919.68,958.45,930.66,957.09,937.65,963.03z" />
<path class="cls-11" d="M1005.58,1131.46c0.06,1.03,0.11,2.09,0.06,3.12c-18.01-1.54-36.08,2.16-55.91-2.1L1005.58,1131.46z" />
<path class="cls-8" d="M577.31,1259.03c-5.28,13.03-13.13,36.71-13.46,49.59c-7.65-11.26-33.4-8.88-53.07-10.16  c-6.03-0.39-14.58-1.16-15.51,6c-5.35-14.01-6.97-29.73-8.11-44.73l1.22-2.69c29.09-0.25,58.19-0.45,87.31-0.62L577.31,1259.03z" />
<path class="cls-2" d="M479.65,1450.5c-12.56,0-26.54,3.09-37.82-1.35c-2.29-2.44-1.79-3.68,1.75-3.96  c4.13-3.46,2.67-10.36,2.28-14.72c-4.64-2.78-4.38-14.81-3.59-20.12c0.68-4.53,2.13-13.24,7.66-12.06c-0.22-2.8,0.38-3.79,1.82-2.97  c3.61-2.47,0.88-7.14,5.75-11.16C492.71,1408.11,460.66,1412.44,479.65,1450.5z" />
<path class="cls-4" d="M480.94,1359.75c1.72,6.91,5.7,13.13,4.61,21.14l-5.26-13.53c-4.01,12.2,0.44,21.53,2.48,34.1  c-9.03-11.92-12.64-26.22-16.86-39.48c1.21,0.02,2.83-0.42,3.99-0.77c2.72,0.32,3.09,1.7,3.49,3.98c-0.37-2.38-0.43-3.78,2.3-4.64  C477.24,1360.33,479.58,1360.45,480.94,1359.75z" />
<path class="cls-4" d="M451.23,1363.5c-0.73,11.25-6.36,22.19,0.52,31.81c-0.75,0.51-1.18,2.18-1.82,2.97l-3.3-2.38  c-3.11-9.25-6.85-18.27-11.21-27.06l1.31-3.94C442.42,1366.46,445.72,1365.43,451.23,1363.5z" />
<path class="cls-4" d="M500.71,1355.5c-5.62,11.68-7.21,24.38-10.96,37.28c-4.02-13.53,5.06-24.03,4.65-35.65  C496.28,1356.91,498.98,1356.22,500.71,1355.5z" />
<path class="cls-6" d="M436.73,1364.9c4.29,11.25,10.85,21.56,13.2,33.38c-7.46,9.24-5.1,20.66-4.07,32.19  c-1.55-0.59-2.36,2.72-3.26,2.3c-0.98-0.45-1.52-3.18-1.77-4.13l-16.18-62.42C428.37,1365.65,432.88,1363.84,436.73,1364.9z" />
<path class="cls-6" d="M417.95,1366.66c-2.81,26.53-2.16,53.07,4.31,79.61c1.1,4.5,0.1,7.82-3.11,8.84c-2.66,0.84-9.14-0.36-9.03-5.06  c0.64-27.79,0.17-55.34-1.63-82.76C411.56,1366.09,414.73,1366.67,417.95,1366.66z" />
<path class="cls-6" d="M443.58,1445.19c-0.54,0.91-0.36,3.54-1.75,3.96c-4.8,1.43-8.56,4.36-15.34,4.14  c-2.61-19.33-9.2-39.92-2.27-60.38L443.58,1445.19z" />
<path class="cls-4" d="M397.97,1455.35c-1.49-0.6-2.57-1.89-2.85-3.47c5.48-19.2,1.54-39.26,1.95-61.3  c10.74,12.39,0.12,28.25,5.26,41.72c1.26,3.31,6.95,12.78-0.14,11.8C398.38,1446.1,401.12,1452.08,397.97,1455.35z" />
<path class="cls-6" d="M475.69,1360.55c0.49,4.5,0.97,9.13-1.4,14.04c-2.81-4.68-3.87-8.97-4.39-13.38  C471.84,1360.62,473.75,1360.83,475.69,1360.55z" />
<path class="cls-14" d="M494.18,1185.32c-1.44,2.74-3.28,7.88-4.02,10.82c-2.82,0.56-6.48-0.02-9.23,0.85l-42.73,3.17l-3-2.69  c-1.04-9.7,2.32-20.17,4.16-29.59C458.44,1171.27,476.3,1178.04,494.18,1185.32z" />
<path class="cls-6" d="M467.59,1201.18c3.76,4.86,11.65,5.45,11.03,13.97c-15.01,6.88-31.78,10.75-47.46,12.94  c1.48-7.56-0.36-16.27,2.66-23.85l1.3-2.81c10.1-0.91,20.2-1.83,30.3-2.74L467.59,1201.18z" />
<path class="cls-14" d="M434.04,1166.43l-3.87,26.89c-0.55,3.8-1.48,7.67-5.66,7.83c0.39,3.86-2.82,3.71-3.86,0.14  c-6.96-10.62-2.26-25.87-1.63-38.58C423.9,1164.35,428.89,1166.08,434.04,1166.43z" />
<path class="cls-12" d="M480.92,1196.99l-13.33,4.2l-33.77,3.06c0.74-1.85-0.33-5.16,1.37-6.78  C450.47,1197.82,466.49,1193.46,480.92,1196.99z" />
<path class="cls-6" d="M424.51,1201.15c4.79,8.8,2.35,24.94-4.34,35.01c-4.33-11.47-4.56-25.73,0.48-34.87L424.51,1201.15z" />
<path class="cls-10" d="M475.26,1254.98c-0.13,1.8-2.58,3.13-3.65,4.27c-9.31-0.58-18.65-0.94-27.96-0.21  c-0.04-1.29-2.12-2.28-3.02-2.79C450.53,1251.23,464.05,1254.36,475.26,1254.98z" />
<path class="cls-10" d="M580.03,1253.79c3.41,1.77,2.53,4.03-1.18,4.75l-1.54,0.49l-90.15,0.69c-1.18,0.01-2.34-0.35-3.5-0.41  c0.03,3.95-4.35,3.48-5.04-0.3c-0.15-0.97-1.51-2.19-1.27-3.38c0.22-1.09,1.87-1.57,2.58-2.24L580.03,1253.79z" />
<path class="cls-8" d="M483.66,1259.3c-0.53,12.58-3.38,24.83-6.1,37.13c-2.11-13.42-3.16-25.44,1.07-37.42L483.66,1259.3z" />
<path class="cls-6" d="M119.07,1215.06c-3.52,9.04-7.3,18.35-12.89,26.22l-16.41-24.66L119.07,1215.06z" />
<path class="cls-4" d="M884.08,735.21c-11.5,2.24-23.42,0.57-35.09,1.4c0.48-5.94,2.38-11.76,5.38-17.8  c3.91,3.31,4.19,7.44,7.25,11.6c3.75-8.09,4.47-16.5,10.68-24.43C878.98,714.97,882.35,725.27,884.08,735.21z" />
<path class="cls-16" d="M937.65,963.03c-3.44-1.08-6.77-0.16-11.4-0.39c-3.65-0.18-4.82,2.95-6.39,7.16  c0.6-10.77,1.58-21.65,4.28-32.09C930.41,945.19,933.2,954.71,937.65,963.03z" />
<path class="cls-4" d="M833,737.75c-5.45,0.39-10.53,1.14-16.09,1.15c2.67-5.75,2.73-12.4,7.49-19.05  C830,724.19,830.83,731.7,833,737.75z" />
<path class="cls-4" d="M885.27,1127.78c12.26,27.26,30.26,51.77,45.87,78.59c8.36,14.36-22.33,59.46-9.7,92.74l-5.86,29.69  l-19.59-6.83l-0.91-75.31c-0.08-6.5-3.15-11.84-7.47-14.82c-5.07-3.49-10.28-0.81-15.87-0.79c10.59-29.86,7.21-62.91-9.3-89.4  c-2.82-4.52-4.1-8.3-4.28-12.5c-0.06-2.83,1.9-2.93,3.1-0.38c0.27-1.19,0.82-2.22,1.8-2.97c0.78-0.6,17.5-0.47,19.74-0.23  L885.27,1127.78z" />
<path class="cls-4" d="M954.99,1225.56c-1.85-0.03-5.15-0.7-8.23-0.34c7.39,2.46,11.82-44.63,17.11-52.24L954.99,1225.56z" />
<circle class="cls-12" cx="1051.41" cy="814.31" r="3.41" />
<path class="cls-4" d="M630.98,1183.95c1.23,0.07,1.33,0.51,0.34,1.3c1.04,0.16,2.59,0.54,2.64,1.28c0.22,3.51-0.55,27.16-1.86,28.44  c-0.45,0.44-1.1,0.66-1.81,0.82c-1.63,13.37-8.63,25.71-18.25,35.1c5.52,1.44,11.79,1.85,18.82,1.23l2.66,2.66  c2.51,0.96,2.47,2.22-0.11,2.99l-54.54,0.77c0.5-1.53,0.56-3.25,1.18-4.75l2.65-2.65l15.25,0.21c-1.25-15.8-2.15-31.59-2.68-47.38  c1.22-6.54,0.42-13.58,0.85-20.16c-0.05-1.17,0.33-1.21,1.1-0.23C608.47,1183.5,619.74,1184.69,630.98,1183.95z" />
<path class="cls-8" d="M650.95,1185.25c3.24-0.17,3.77,3.31,3.54,5.89c0.52,37.79-15.78,69.66-13.56,105.86  c-5.06,1.56-8.97,2.44-14.23,2.01c3.97-13.96,6.61-27.42,6.69-41.24c0.01-0.99,0.05-2,0.11-2.99c-2.53-2.97-3.6-7.05-3.19-12.24  c-2.38-9.21-2.39-18.13-0.03-26.75l1.04-30.54C634.35,1180.2,647.66,1180.54,650.95,1185.25z" />
<path class="cls-4" d="M691.13,1185.42c0.43-1.12,0.8-1.03,1.13,0.18c0.39,8.94-0.13,18.87,2.61,27.6l-24.85-17.87  c-4.8-3.45-9.85-6.97-15.53-4.2c-2.63-0.45-3.51-3.24-3.54-5.89c0.02-1.17,0.43-1.19,1.17-0.19L691.13,1185.42z" />
<path class="cls-4" d="M863.41,1307.35c-5.59,0.03-10.21-4.01-15.47-5.4c3.55-15.99,10.17-31.34,14.75-46.85  C865.15,1272.29,862.93,1289.98,863.41,1307.35z" />
<polygon class="cls-11" points="692.26,1185.61 691.13,1185.42 690.95,1178.29 830.44,1183.33 " />
<path class="cls-11" d="M859.77,1124.87c0.4,1.34,0.91,2.64,1.49,3.91c-0.95,0.18-2.14,0.41-3.1,0.38l-66.82-2.23L859.77,1124.87z" />
<path class="cls-11" d="M597.2,1183.59c-0.37,0-0.74,0.25-1.1,0.23c-28.82-1.63-57.48-0.3-88.41-4.32  C506.16,1179.86,614.44,1173.6,597.2,1183.59z" />
<path class="cls-11" d="M599.97,1156.98c1.01,1.18,3.32,1.85,2.06,2.76c-0.77,0.55-1.5,0.88-2.22,1.27l-54.82-1.69  C563.82,1155.85,581.86,1158.35,599.97,1156.98z" />
<path class="cls-11" d="M652.12,1185.06c-0.39,0-0.79,0.22-1.17,0.19c-6.52-0.54-13.15-1.03-19.63,0l-0.34-1.3  c-0.66-2.53-0.9-5.75,1.78-5.66l8.84,0.31c2.48,0.09,7.08-0.62,9.5,0.25C652.71,1179.43,651.38,1183.29,652.12,1185.06z" />
<g>
</g>
<g>
</g>
<g>
</g>
<g>
</g>
<g>
</g>
<g>
</g>
<g>
</g>
<g>
</g>
<g>
</g>
<g>
</g>
<g>
</g>
<g>
</g>
<g>
</g>
<g>
</g>
<g>
</g>
</svg>