<?xml version='1.0' encoding='UTF-8'?>
<svg xmlns="http://www.w3.org/2000/svg" id="Layer_1" data-name="Layer 1" width="1200" height="1800" viewBox="0 0 1200 1800">
  <defs>
    <style>
      .cls-1 {
        fill: #5a8dc4;
      }

      .cls-2 {
        fill: #3d6fa6;
      }

      .cls-3 {
        fill: #5f87b1;
      }

      .cls-4 {
        fill: #82b1dc;
      }

      .cls-5 {
        fill: #234b82;
      }

      .cls-6 {
        fill: #0c1321;
      }

      .cls-7 {
        fill: #2f5d98;
      }

      .cls-8 {
        fill: #c2d3e6;
      }

      .cls-9 {
        fill: #dee3e9;
      }

      .cls-10 {
        fill: #f9f3ee;
      }
    </style>
  </defs>
  <path class="cls-10" d="M1200,296.47v297.26l-7.94-17.99-6.14,31.89c-.41,2.13-9.21,3.74-9.95,1.7l-3.01-8.35-5.93-16.51-6.2,22.98-6.83-9.43-11.51,25.46-13.46-31.35-10.8,43.55-13-26.86-9.88,22-9.23-13.22-7.04,36.39-20.85-14.97-3.73,14.75-14.14,2.59c-1.06-4.6-2.6-9.04-5.12-16.37-2.59,5.6-5.51,12.27-6.02,16.69-5.26-1.03-11.76,1.04-14.1,3.38l-17.44-5.92c-15.8-5.37-33.73-12.63-48.06-18.34l-11.88,6.98c-3.2,1.88-10-5.4-13.71-7.77l-29.06-18.53c-21.47-3.33-39.8-7.37-57.7-16.73-7.41-13.98-20.18-6.08-44.78-32.01l-22.68,2.37c-8.68-5.11-17.92-14.31-22.87-23.48-2.06-3.8-6.05-10.98-8.8-13.99l-20.19-21.36-32.7-5.79-17.74-31.83c-3.04-5.45-7.38-9.69-14.41-13.23l-33.88-17.06c-7.11-3.58-15.31-17.87-23.04-19.71-9.63-2.29-27.98.5-33.61,7.22l-17.76,21.22c-24.36,29.1-.81,22.34-30.05,56.96-4.92-3.37-16.57-6.62-23.78-2.12-12.06,7.51-18.9,20.23-27.77,30.17-8.04,9.01-13.78,16.88-20.2,27.16-5.92,9.48-14.61,17.95-19.2,29.24-3.5,8.61-9.77,15.91-16.33,20.06l-20.84-16.84-23.99-5.29c-11.51-2.54-11.31,20.51-29.3,17.19-17.61-3.25-45.37,22.98-69.97,31.01-31.84,1.4-32.88,15.94-79.11,14.09l-5.62-6.8c-3.24,9.25-7.71,17.87-14.09,22.77-5.21-6.31-12.08-16.7-16.05-22.86-3.83,4.87-17.51,17.09-22.83,11.56-3.52-17.12-6.45-32.49-12.11-50.91l-10.04,34.66c-9.83-17.07-.35-22.41-10.85-51.04l-13.32,42.88-10.02-23.82c-3.45,10.99-5.28,19.05-12.33,31.03l-15.03-44.86-11.99,22.76-6.68-49.84-6.95,6.86-4.64-17.23-3.34,14.28c-.72,3.08-4.62,6.12-8.37,6.79v-159.99c7.99.85,17.1,1.9,26.47,2.41l53.54,2.93,124.79,5.69,127.04,4.33c36.4,1.24,70.54,1.87,108.2.19,3.55-9.03-62.46-5.37-65-9.45l85.81-5.94.54-5.71c-9.45-.39-15.13-.31-18.95-2.45-4.15-2.33-6.12-13.08-6.45-19.59-.88-17.13-17.52,19.98-53.02-11.24-9.48-8.34-19.7-14.67-17.18-27.89l52.33,1.07,88.3,1.38,144.84-.32,96.33-1.85,119.13-2.11c17.55-.31,35.7-1.5,53.21-2.84l54.35-4.16c-40.98-8.83-79.25-9.82-119.44-12.76-53.49-3.91-91.62.75-138.96-7.48,36.42-4.14,69.68-6.37,103.52-8.08l78.63-3.98,123.98-4.77,177.97-10.93Z" />
  <path class="cls-4" d="M0,176.66V0h1200v147.71c-63.72,4.02-126.7,8.56-191.15,16.61l81.49,11.3,89.5,11.24c-32.99,3.63-61.5,4.58-93.12,5.51l-216.91,6.41-96.84,3.44c-9.72.34-15.35-5.43-25.56,1.32-12.08,7.99-29.42-3.62-43.53,7.88l52.81,4.15,192.2,16.68c-20.77,3.02-40.45,5.61-60.64,5.8l-245.28,2.35-220.36.9c-2.5.01-5.19-.53-5.95-.87-15.34-6.87,36.94-5.91,37.62-14.72-27.24-6.11-50.81-6.18-77-7.46l-255.3-12.44c35.74-9.43,70.89-6.54,108.7-14.47-22.01-2.92-43.94-5.52-67.16-6.36l-143.84-5.22c-6.63-.24-14.45-1.83-19.69-3.08Z" />
  <path class="cls-7" d="M196.19,1523.25c2.08.01,5.8.21,7.73.02,4.26-.43,11.68-1.86,15.75-1.92l90.95-1.52c-2,9.84-2.92,18.4.89,18.96,5.69.84,11.39,1.18,16.49,1.48l35.38,2.1c11.71.69,22.45-.49,31.47-4.29.56,3.1.5,11.98,2.15,11.16l8.32-4.18c2.06-1.03,6.35-2.58,8.2-3.15,1.39-.43,3.39,5.49,4.76,5.95,2.01.68,8.22-1.65,9.06.31l4.49,10.5c6.45-.07,17.79-4.34,25.99-7.9l25.25,4.8,7.89-5c1.33-.84,6.08,5.01,7.62,5.3l33,6.21c2.85.54,7.44,4,9.24,2.91l6.32-3.81c23.68,31.1,53.66,25.97,74.34,28.58l37,4.66c7.08.89,20.43,17.82,26.03,11.08l6.76-28.42c-7.56,1.15-18.94,2.89-22.69-.65s-6.12-17.38-4.32-19.92c12.18-.38,25.25-1.68,32.98-.8l28.87,3.31c11.41,1.31,20.9,2.13,30.78-4.1l25.43,4.64,14.9-6.92,8.91,24.2,10.74-21.31,27.71-3.8c2.38-.19,5.73,9.02,8.09,8.24l10.83-3.56c12.2-4.01,23.67-14.48,23.27-26.47l186.53,7.75,126.73,3.01v124.04l-13.82,6.19-26.11-9.8-12.09,7.66-15.12-7.26c-4.13-1.98-12.82,4.09-17.4,4.33-1.65.09-5-7.12-5.25-8.75-1.12-7.35-17.5,32.56-29.58,20.98-1.26-1.2-3.79-8.05-4.29-9.72-5.55-18.62-12.41,30.8-25.23,33.4l-28.88-13.81c-11.51-5.51-21.25,1.78-30.62,6.97-12.26,6.78-30.33-7.72-38.41-18.14l-13.94,23.33c-2.19,3.67-3.57,12.37-4.79,18.01l-26.91-12.11c-3.08-1.39-15.47,2.91-17.4.02l-7.74-11.56c-14.14-21.12-4.64,16.97-13.73,15.21-3.64-.7-10.12-2.18-13.89-3.19l-35.67-9.55c-7.03-1.88-20.23,1.91-30.93,3.66l1.34-12.98-29.13-3.22-7.56,7.81c-2.23,2.31-11.49-.5-15.25-.89l-32.11,17.06c-18.57-13.05-3.7,12.78-47.06-.67-15.62-4.85-37.68,1.31-54.13-2.08l-30.93-6.37c-4.73-.97-13.27-3.68-15.07-7.46-2.1-4.41-1.44-15.04-1.98-22.65-2.87-1.59-17.42,5.64-16.55,10.26,1.1,5.85,3.6,23.32-1.57,22.11l-16.98-6.34c-3.76-1.41-9.89,6.36-13.41,9.17l-8.49,6.8c-1.85,1.48,1.7,21.81-7.56,19.42-2.45-.63-6.55-3.75-8.44-6.01-2.02-2.41,5.08-6.71,9.65-11.26-2.13-14.27-18.2.17-58.04-11.27-2.72-.78-10.3,3.15-13.13,3.17-3.4.03-6.92-8.03-9.35-10.77-7.78,2.61-15.36,4.73-22.41.4l-18.83,9.94-7.97-28.98c-2.39-8.7-25.69-15.03-32.27-12.44-2.25,12.19.15,24.24-12.13,34.21l-17.92-40.96c-.37-.85-4.55-1.11-5.36-1.56-1.21-.68-.13,2.85.48,7.28.25,2.93-5.12,7.82-8.22,7.88-18.6.35,1.21-12.14-33.89-21.17-15.57-4.01-28.48-3.49-44.56,1.65l-19.44-20.74-9.02,6.28c-4.35,3.03-10.86-11.48-15.75-10.23-2.44.62-6.28,3.42-8.04,5.26s2.42,9.36,5.32,9.79l39.9,6.01-20.38,15.24-5.05,9.46c1.35-2.53-25.11,6.57-40.86-14.1-11.01-14.45-24.64,6.24-33.64,7.25-16,1.81-42.55.66-58.3,1.03-28.75-17.42-14.8-2.15-27.65-33.33l11.64-3.74c5.25-1.69,4.53-31.64-1.77-26.58l-9.45,7.58c-3.86-8.21-9.23-13.87-16.86-13.26v-43.33l116.76-4.19c31.34-1.12,60.12-4.18,93.15-8.16-18-12.71-33.06-7.13-51.94-12.66l11.46-7.98c8.94,1.76,17.73,2.92,26.75,2.97ZM222.12,1538.27c0-1.17-.95-2.12-2.12-2.12s-2.12.95-2.12,2.12.95,2.12,2.12,2.12,2.12-.95,2.12-2.12ZM412.99,1564.97c-2.14,1.28,8.91,7.31,8.81,4.84l-.31-7.68c-.07-1.84-3.68-.04-8.5,2.84ZM762.71,1568.47c-.24-4.82-.56-10.92-.52-10.05l-14.72,15.36c-2,2.09,1.55,9.93,4.4,10.02,2.84.1,11.6.22,11.47-2.61l-.63-12.73Z" />
  <path class="cls-6" d="M1200,593.73v528.88l-8.15,7.49-7.2-28.84c-.61-2.43-9.17,1.12-10.01,3.79l-6.98,22.16-7.66-23.24-3.58,4.61c-.7.9-4.33,2.64-4.59,1.52l-1.68-7.2c-1.01-4.3-7.57-11.37-11.9-9.67l-9.38,25.35-10.46-41.98-13.75,25.17-10.3-22.56-7.7,13.57-9.56-39.8c-6.27,7.07-13.45,14.64-17.37,17.74l-12.59-13.22c-2.83-2.97-8.64,6.49-12.55,12.74l-7.37-18.4-14.05,4.53c-3.29-1.98-5.83-6.75-8.4-11.89l-11.15-22.36-11.33,7.33-14.41-23.88-9.73,17.23-9.19-20.27c-5.54-1.83-14.03,5.58-18.77,10.65-3.35-9.08-8.93-19.2-14.18-25.37-4.65,9.73-6.8,13.9-11.97,14.92-1.24-5.83-2.96-11.25-5.72-19.17l-8.57,6.05-10.07-33.17-10.79,19.05-16.84-28.17-8.13,9.3c-1.44,1.65-5.11-6.28-6.83-9.36l-8.07,13.46-7-33.72c-2.86,7.09-15.95,16.11-24.66,12.69l-26.8-10.51-6.53-22.26c-23.5-2.76-5.36-19.96-36.5-26l-3.64-20.88,29.86-1.73-33.95-2.63.26-4.09c3.66-3.48,6.4-10.06,8.99-16.82l13.82-11.35,17.9-19.57-3.79-13.76c13.76-10.14,55.75-33.04,65.33-6.82l7.1-31.44,8.73,10.11c1.18-2.18,4.48-10.36,5.91-8.69l7.47,8.71c8.7-6.76,13.1-17.47,16.5-32.51l10.07,20.14c5.23-11.35,8.55-20.38,9.82-30.23l11.8,4.01,7-20.61c3.23,2.96,5.75,10.52,9.79,19.63,5.41-8.9,10.1-18.89,12.86-28.91l12,11.05c4.07-12.03,11.2-19.32,18.77-20.03l2.24,11.46c.26,1.31,7.88,2.07,8.53.91l11.53-20.41,8.12,16.11c5.82-11.04,14.46-19.22,24.91-20.33l10.68,11.36,3.09-26.92c.51-4.42,3.43-11.08,6.02-16.69,2.51,7.34,4.06,11.78,5.12,16.37l5.35,23.25c5.61-12.6,6.63-17.29,8.79-25.84l3.73-14.75,20.85,14.97,7.04-36.39,9.23,13.22,9.88-22,13,26.86,10.8-43.55,13.46,31.35,11.51-25.46,6.83,9.43,6.2-22.98,5.93,16.51,3.01,8.35c.74,2.04,9.54.44,9.95-1.7l6.14-31.89,7.94,17.99Z" />
  <path class="cls-6" d="M184.27,653.74l9.09,53,5.77-9.19c.88-1.41,4.88-4.55,5.92-3.25,1.39,1.73,4.1,6.54,4.49,8.77l1.34,7.69c.21,1.19,3.22,3.2,4.01,2.29,1.19-1.36,3.31-4.89,3.75-6.87l5.89-26.3,12.32,19.81c3.97,6.38,3.41,15.2,1.84,20.11l10.46,21.04c11.35-9.73,16.53-20.9,22.6-38.42l12.79,42.24c6.37-10.9,7.45-15.62,13.25-30.68,14.48,18.14,2.16,32.4,26.05,37.02l12.24,19.05,8.52-19.97,9.71,19.17,10.57-36.6,13.47,42.98,8.46-17.77,13.48,18.54c.42,8.02,1.44,17.03,2.82,23.81,4.87-3.85,7.23-6.8,8-5.53l5.25,8.61,8-8.66c7.38,11.54,17.89,28.91,26.36,38.24l39.93,18.2,9.34,9.08c-72.45,22.79-48.93,27.25-60.81,39.24l-15.23,15.36s-5.38-2.33-6.12-2.65l-16.5,2.89-4.19,21.16c-2.5,3.63-6.27,11.67-7.38,16.08l-12.93-11.75-12.69,35.35-10.28-34.21-10.58,21.36-7.93-23.93-11.05,21.88c-3.38-7.55-8.04-15.17-13.2-14.26l-13.05,48.92-7.99-13.67c-1.33-2.28-6.53-2.95-10.09-2.39l-8.68,24.3-19.58-46.07c-23.93,9.1.49,25.37-21.71,52.85-3.51.91-8.29-.41-15.69-2.41l-12.17,12.11-7.03-20.5-10.87,30.65-10.53,6.43c-12.7-.59-19.43,10.17-24.04,24-6.98-4.95-17.16-11.84-24.56-12.73-8.02,15.75.38,21.72-7.99,45.48l-3.91,4.73c-.8.97-2.86-3.86-3.14-5.08l-6.93-30.22-11.21,52.32-14.07-47.38-9.57,33.15-6.63-37.61c-16,14.56-6.28,19.4-19.49,47.62l-12.6-21.72-6.42,48.36-6.77-10.74-4.23,17.25c-4.97-11.06-6-16.64-12.14-17.71v-546.64c3.75-.67,7.64-3.71,8.37-6.79l3.34-14.28,4.64,17.23,6.95-6.86,6.68,49.84,11.99-22.76,15.03,44.86c7.05-11.98,8.88-20.04,12.33-31.03l10.02,23.82,13.32-42.88c10.49,28.63,1.01,33.97,10.85,51.04l10.04-34.66c5.66,18.42,8.6,33.78,12.11,50.91,5.32,5.53,19.01-6.69,22.83-11.56,3.97,6.16,10.84,16.54,16.05,22.86,6.38-4.89,10.85-13.52,14.09-22.77l5.62,6.8Z" />
  <path class="cls-5" d="M1200,1664.71v135.22h-126.67c9.79-4.92-53.13-4.92-43.33,0h-6.67c-4.16-4.79-15.84-4.79-20,0h-36.67c1.32-3.18-2.84-13.92-6.13-12.07-2.55,1.43-4.71,9.94-4.47,12.07h-19.4c1.89.57-4.32-3.32-5.79-3.32h-151.74c-1.48,0-7.68,3.89-5.79,3.32h-10c-2.8-.98-5.05-.98-6.67,0h-43.33c1.73.66-4.17-3.35-5.96-3.35h-218.08c-1.79,0-7.69,4-5.96,3.35h-13.33c4.53-5.65-42.34-4.22-47.59-4.13l-67.45,1.12c-.88.01-6.28,3.52-4.96,3.01H0v-203.33c7.63-.62,13,5.04,16.86,13.26l9.45-7.58c6.3-5.05,7.03,24.9,1.77,26.58l-11.64,3.74c12.85,31.18-1.1,15.91,27.65,33.33,15.76-.37,42.31.78,58.3-1.03,9-1.02,22.63-21.7,33.64-7.25,15.74,20.66,42.21,11.56,40.86,14.1l5.05-9.46,20.38-15.24-39.9-6.01c-2.91-.44-7.07-7.97-5.32-9.79s5.59-4.63,8.04-5.26c4.89-1.25,11.39,13.26,15.75,10.23l9.02-6.28,19.44,20.74c16.08-5.14,28.98-5.66,44.56-1.65,35.11,9.03,15.3,21.53,33.89,21.17,3.1-.06,8.47-4.95,8.22-7.88-.62-4.43-1.69-7.96-.48-7.28.81.45,4.99.71,5.36,1.56l17.92,40.96c12.28-9.97,9.89-22.02,12.13-34.21,6.58-2.6,29.88,3.74,32.27,12.44l7.97,28.98,18.83-9.94c7.05,4.33,14.63,2.21,22.41-.4,2.43,2.74,5.96,10.8,9.35,10.77,2.83-.02,10.41-3.95,13.13-3.17,39.84,11.44,55.91-3,58.04,11.27-4.57,4.55-11.67,8.86-9.65,11.26,1.89,2.26,5.99,5.37,8.44,6.01,9.26,2.39,5.71-17.94,7.56-19.42l8.49-6.8c3.52-2.82,9.65-10.58,13.41-9.17l16.98,6.34c5.16,1.22,2.67-16.26,1.57-22.11-.87-4.62,13.68-11.85,16.55-10.26.53,7.61-.12,18.23,1.98,22.65,1.8,3.78,10.34,6.49,15.07,7.46l30.93,6.37c16.45,3.39,38.51-2.77,54.13,2.08,43.36,13.45,28.49-12.39,47.06.67l32.11-17.06c3.76.39,13.02,3.2,15.25.89l7.56-7.81,29.13,3.22-1.34,12.98c10.7-1.75,23.9-5.54,30.93-3.66l35.67,9.55c3.77,1.01,10.25,2.48,13.89,3.19,9.09,1.76-.41-36.34,13.73-15.21l7.74,11.56c1.93,2.89,14.32-1.4,17.4-.02l26.91,12.11c1.22-5.64,2.59-14.33,4.79-18.01l13.94-23.33c8.08,10.42,26.16,24.93,38.41,18.14,9.37-5.18,19.11-12.47,30.62-6.97l28.88,13.81c12.81-2.6,19.68-52.02,25.23-33.4.5,1.67,3.03,8.52,4.29,9.72,12.08,11.58,28.46-28.33,29.58-20.98.25,1.63,3.6,8.84,5.25,8.75,4.58-.24,13.28-6.31,17.4-4.33l15.12,7.26,12.09-7.66,26.11,9.8,13.82-6.19Z" />
  <path class="cls-8" d="M1200,147.71v148.76l-177.97,10.93-123.98,4.77-78.63,3.98-8.26-18.93,3.91-11.59c1.03-3.04-7.74-9.27-11.04-7.29-24.63,14.81-30.04-21.32-49.65-22.55-14.71-.92-7.66,28.76-26.93,24.44-35.51-7.96-23.84,4.61-73.94,1.14l-43.68-3.02c-11.77,7.01-26.08,9.29-40.64,2.13l-25.03,29.02c-6.56-1.19-18.64-4.12-23.32-1.65-10.57,5.59-26.38,12.6-38.31,5.72-1.8,3.73-2.72,11.77.6,13l26.59,9.83-3.3,19.33-88.3-1.38-52.33-1.07-233.44-8.6,189.02-23.82c-53.03-7.02-101.87-4.47-153.45-5.79l-143.87-3.68-24.06-1.39v-133.33c5.25,1.24,13.06,2.84,19.69,3.08l143.84,5.22c23.23.84,45.15,3.45,67.16,6.36-37.8,7.94-72.96,5.05-108.7,14.47l255.3,12.44c26.19,1.28,49.76,1.35,77,7.46-.68,8.82-52.97,7.86-37.62,14.72.76.34,3.45.88,5.95.87l220.36-.9,245.28-2.35c20.19-.19,39.88-2.78,60.64-5.8l-192.2-16.68-52.81-4.15c14.11-11.5,31.44.11,43.53-7.88,10.21-6.75,15.84-.98,25.56-1.32l96.84-3.44,216.91-6.41c31.62-.93,60.13-1.88,93.12-5.51l-89.5-11.24-81.49-11.3c64.45-8.05,127.43-12.59,191.15-16.61Z" />
  <path class="cls-1" d="M1082.38,1436.06l-14.06,12.91c7.62,8.76,12.35,18.58,6.45,25.65-5.18,6.2-10.53,17.64-12.93,23.3-8.31-1.91-19.34-1.83-28.5-1.45-18.98.79-38.47.19-59.04-.72l-246.51-10.84-107.28-9.31c-1.83-.16-8.61-2.96-7.21-3.82s5.95-3.52,7.87-3.94l29.54-6.46-46.36-2.24c-39.89-1.93-82.69.59-121.72,2.12l-5.96,14.64c-1.49,3.67-11.49,4.57-16.53,4.42-12.9-.37-25.14,3.91-36.52,4.93-47.09,4.22-92.59,5.21-137.83,4.73l-5.43-12.86-11.4,14.9-9.7,1.21c-.57-9.78-5.14-14.56-14.33-14.2-11.66.45-13.95,4.57-18.37,19.67-13.86-21.72-51.29,5.62-46.63-4.29l4.82-10.27-20.43-14.66-34.25,24.93c.04-8.33,2.11-13.02,5.1-20.79,1.48-5.73-16.09-6.41-21.92-1.27l-17.11-10.04-5.24,9.66c-1.44,2.65,4.45,8.33,6.6,11.88,1.09,1.8-4.6,5.35-6.41,6.01-7.05,2.58-10.15-30.65-21.77-27.86-6.45,1.55-14.55,5.09-17.75,1.52-5-5.59-3.24-11.12.2-19.46,3.34-8.1-12.27-11.09-22.27-12.01l-8.03-21.09-21.49,2.31v-20l87.44-2.01,65.5-2.34,38.03-1.19,45.73-1.98,74.19-4.02c-10.63-3.74-21.88-4.03-34.1-5.48l-153.78-18.34c46.04-4.66,92.4-7.01,140.11-5.29,6.61.24,11.71-.29,18.23-.92,23.95-2.31,46.98-1.44,72.29-1.32l436.03,2c55.85,2.92,107.34-2.52,162.98,5.13l-276.14,15.21c-21.44,1.18-41.28-2.88-62.92,5.21l106.51,4.72,63.34,3.26,74.78,3.69,99.88,2.26,71.84,3.04c39.9,1.69,79.5.02,116.88,7.24l-185.99,19.06c-1.82.19-8.21-.99-9.67-1.28s.42,5.71,2.28,5.86l128.96,10.29ZM666.67,1461.61c0-.92-.75-1.67-1.67-1.67s-1.67.75-1.67,1.67.75,1.67,1.67,1.67,1.67-.75,1.67-1.67Z" />
  <path class="cls-4" d="M569.6,1279.48c6.47,5.11,22.63,3.93,31.02,4.18l157.59,4.7,362.02,13.41c27.74,1.03,53.9,2.24,79.77,4.61v136.48l-117.62-6.8-128.96-10.29c-1.86-.15-3.78-6.15-2.28-5.86s7.85,1.46,9.67,1.28l185.99-19.06c-37.37-7.22-76.98-5.56-116.88-7.24l-71.84-3.04-99.88-2.26-74.78-3.69-63.34-3.26-106.51-4.72c21.63-8.09,41.48-4.02,62.92-5.21l276.14-15.21c-55.64-7.65-107.13-2.22-162.98-5.13l-436.03-2c-25.3-.12-48.33-.99-72.29,1.32-6.52.63-11.62,1.16-18.23.92-47.7-1.73-94.06.63-140.11,5.29l153.78,18.34c12.22,1.46,23.47,1.74,34.1,5.48l-74.19,4.02-45.73,1.98-38.03,1.19-65.5,2.34-87.44,2.01v-116.66c34.95-.05,69.86-4.27,106.37-5.18l26.96-.67c19.51-.48,40.5.13,57.95-6.05,11.39-4.04,16.91-4.24,28.31-.43,19.61,6.55,42.6-.46,62.94.55l40.75,2.03,78.01.86,79.58,3.33-53.16,6.62,66.61,4.08,62.33,2c3.26.1,11.31-3.23,12.96-4.29Z" />
  <path class="cls-8" d="M117.12,1093.64c3.14.46,8.99,2.5,8.7,5.48l-1.51,15.28c-.38,3.8,10.05,7.09,13.56,5.49l12.17-5.55c8.85,7.85,37.14,17.39,47.95,14.26l5.04,10.79c11.05.66,21.58,2.58,31.14,5.2l26.03,7.14c17.74-10.01,70.53,2.18,81.89,17.01l42.15,2.35c1.75.1,5.85,5.28,6,7.01.11,1.2-.94,3.39-2.08,3.39s-6.24-1.07-7.38-.78l-29.92,7.39c-2.51.62-6.45,4.15-7.49,6.3-.79,1.64,5.56,6.16,7.82,6.06l55.19-2.37,49.09-2.08,8.84-19.29c9.51,3.66,30.18,46.3,49.27,23.58,26.17,27.69,11.52,29.21,23.72,45.23l16.16,21.21,16.13,12.73c-1.65,1.06-9.7,4.39-12.96,4.29l-62.33-2-66.61-4.08,53.16-6.62-79.58-3.33-78.01-.86-40.75-2.03c-20.33-1.01-43.32,6-62.94-.55-11.4-3.81-16.92-3.61-28.31.43-17.45,6.19-38.44,5.57-57.95,6.05l-26.96.67c-36.51.9-71.42,5.13-106.37,5.18v-149.99c6.14,1.07,7.16,6.65,12.14,17.71l4.23-17.25,6.77,10.74,6.42-48.36,12.6,21.72c13.21-28.22,3.48-33.06,19.49-47.62l6.63,37.61,9.57-33.15,14.07,47.38,11.21-52.32,6.93,30.22c.28,1.22,2.34,6.04,3.14,5.08l3.91-4.73Z" />
  <path class="cls-8" d="M1200,1159.77v146.61c-25.88-2.36-52.03-3.58-79.77-4.61l-362.02-13.41-157.59-4.7c31.75-36.32,9.98-5.81,35.85-23.49l28.62-19.55c7.08-5.01,10.6-23.02,15.94-30.69,13.26-4.04,16.45,16.28,30.76,11.05,20.93-7.64,39.06-2.86,59.02,1.03,28.78,5.6,59.5-1.22,88.79-1.71,19.03-.32,36.44-.28,53.09-4.99l-5.79-10.69c-1.14-2.11,3.58-8.43,5.68-7.69l19.36,6.83c3.31-29.45,24.45-16.89,54.69-22.7,44.9-8.62,54.05,3.06,93.81-10.26l37.62-12.6,14.11,13.9c11.71-18.02,24.7-19.97,41.61-16.98l26.22,4.64Z" />
  <path class="cls-9" d="M1200,1122.61v37.16l-26.22-4.64c-16.91-2.99-29.91-1.05-41.61,16.98l-14.11-13.9-37.62,12.6c-39.76,13.32-48.9,1.64-93.81,10.26-30.24,5.81-51.38-6.76-54.69,22.7l-19.36-6.83c-2.1-.74-6.82,5.58-5.68,7.69l5.79,10.69c-16.65,4.71-34.05,4.67-53.09,4.99-29.29.49-60.01,7.31-88.79,1.71-19.96-3.88-38.09-8.67-59.02-1.03-14.32,5.23-17.5-15.09-30.76-11.05l9.27-13.31,9.7.53c6.29,1.78,16,2.2,21.89-.09-5.06-18.3,10.65-19.13,17.51-27.02,10.4-11.95,19.93-30.2,34.2-36.6,7.27,6.71,15.22.84,23.82-3.03l40.05-18.01c6.99-3.15,17.32-9.56,25.02-13.64,3.04-1.61,5.87-9.5,9.04-9.09,2.53.33,10.63,4.59,13.09,3.88,10.51-3.02,30.6-13.92,41.68-15.34,15.87-2.03,25.04-5.02,38.75-8.75l48.1-13.1,14.05-4.53,7.37,18.4c3.91-6.25,9.72-15.71,12.55-12.74l12.59,13.22c3.92-3.1,11.1-10.66,17.37-17.74l9.56,39.8,7.7-13.57,10.3,22.56,13.75-25.17,10.46,41.98,9.38-25.35c4.33-1.71,10.89,5.36,11.9,9.67l1.68,7.2c.26,1.12,3.89-.62,4.59-1.52l3.58-4.61,7.66,23.24,6.98-22.16c.84-2.67,9.41-6.22,10.01-3.79l7.2,28.84,8.15-7.49Z" />
  <path class="cls-9" d="M365.8,353.27c-2.53,13.22,7.7,19.55,17.18,27.89,35.5,31.22,52.14-5.89,53.02,11.24.33,6.5,2.29,17.26,6.45,19.59,3.82,2.14,9.51,2.06,18.95,2.45l-.54,5.71-85.81,5.94c2.54,4.08,68.54.42,65,9.45-37.66,1.68-71.8,1.05-108.2-.19l-127.04-4.33-124.79-5.69-53.54-2.93c-9.37-.51-18.48-1.56-26.47-2.41v-110l24.06,1.39,143.87,3.68c51.58,1.32,100.42-1.23,153.45,5.79l-189.02,23.82,233.44,8.6Z" />
  <path class="cls-3" d="M1200,1442.86v97.82l-126.73-3.01-186.53-7.75c-26.12-7.01-64.23-1.81-100.39-11.21,17.51-4.22,34.32-5.31,53.68-6.3l186.67-9.5c2.41-.12,6.43-.06,6.47-1.33l.16-5.12c9.15-.38,20.19-.46,28.5,1.45,2.4-5.66,7.76-17.1,12.93-23.3,5.91-7.07,1.18-16.89-6.45-25.65l14.06-12.91,117.62,6.8ZM1114.98,1477.05l-12.96-19.11c-2.08-3.02-5.18-6.77-7.1-8.78s-10.85,1.06-10.75,3.69l1.04,26.97c6.25-3.08,10.21-6.39,13.27-5.83l16.5,3.06Z" />
  <path class="cls-3" d="M259.27,1493.25l-7.54.93c-2.11.26.13,6.95.36,8.7l-16.56,13.7-10.14-5.01c-2.87-1.42-6.49,7.61-5.73,9.77-4.07.07-11.49,1.49-15.75,1.92l-.42-4.86c-.12-1.34-5-3.34-5.37-2.04l-1.94,6.88c-9.03-.05-17.82-1.21-26.75-2.97-7.7-1.52-18.85,1.42-28.21,2.44l-11.38-8.1c-6.88-4.9-13.58,13.64-32.06,12.04-9.44,5.31-20.49,15.39-31.29,6.53l-1.87-15.02-28.92.99c1.33-3.16,6.04-11.49,9.5-12.57,4.03-1.26,10.69-1.04,21.16-1.81l-12.68-8.64-7.39-12.23c-5.08-8.41-23.37,4.4-26.95,2.38l-11.5-6.47-2.54,10.94c-.42,1.8-2.59,1.95-5.31,2.51v-56.66l9.3,3.72c2.27.91,8.33-5.54,7.19-7.65-2.08-3.83-12.48-1.61-16.49.6v-20l21.49-2.31,8.03,21.09c10,.92,25.61,3.92,22.27,12.01-3.44,8.34-5.2,13.87-.2,19.46,3.2,3.57,11.3.03,17.75-1.52,11.62-2.79,14.73,30.44,21.77,27.86,1.81-.66,7.5-4.21,6.41-6.01-2.15-3.55-8.04-9.23-6.6-11.88l5.24-9.66,17.11,10.04c5.83-5.14,23.4-4.46,21.92,1.27-3,7.77-5.07,12.45-5.1,20.79l34.25-24.93,20.43,14.66-4.82,10.27c-4.66,9.92,32.77-17.43,46.63,4.29,4.42-15.11,6.71-19.22,18.37-19.67,9.19-.36,13.76,4.43,14.33,14.2ZM108.74,1512.78c-.14-3.14-7.95-6.19-12.42-5.71l5.55,8.1c.92,1.34,6.94-.76,6.87-2.39Z" />
  <path class="cls-2" d="M169.43,1520.28l-11.46,7.98c18.89,5.53,33.94-.04,51.94,12.66-33.04,3.99-61.82,7.04-93.15,8.16l-116.76,4.19v-60c2.72-.56,4.89-.7,5.31-2.51l2.54-10.94,11.5,6.47c3.58,2.02,21.87-10.79,26.95-2.38l7.39,12.23,12.68,8.64c-10.48.77-17.13.55-21.16,1.81-3.46,1.08-8.17,9.41-9.5,12.57l28.92-.99,1.87,15.02c10.8,8.87,21.85-1.22,31.29-6.53,18.48,1.59,25.18-16.94,32.06-12.04l11.38,8.1c9.36-1.03,20.51-3.96,28.21-2.44Z" />
  <path class="cls-9" d="M819.41,316.15c-33.84,1.71-67.1,3.94-103.52,8.08,47.34,8.23,85.47,3.57,138.96,7.48,40.19,2.94,78.46,3.93,119.44,12.76l-54.35,4.16c-17.51,1.34-35.66,2.53-53.21,2.84l-119.13,2.11-96.33,1.85-144.84.32,3.3-19.33-26.59-9.83c-3.32-1.23-2.39-9.27-.6-13,11.93,6.88,27.74-.13,38.31-5.72,4.68-2.47,16.76.47,23.32,1.65l25.03-29.02c14.56,7.16,28.87,4.88,40.64-2.13l43.68,3.02c50.1,3.46,38.43-9.11,73.94-1.14,19.26,4.32,12.22-25.36,26.93-24.44,19.61,1.23,25.01,37.36,49.65,22.55,3.3-1.98,12.06,4.25,11.04,7.29l-3.91,11.59,8.26,18.93ZM615.52,295.78c-6.2,1.95-17.03,10.68-20.28,7.67-2-1.85-5.86-9.61-7.39-8.04l-6.18,6.3c-1.01,1.03,2,4.92,4.13,7.24,5.35,5.81,14.33,2.68,22.18-.77l11.12-4.89c1.68-.74-1.41-8.18-3.57-7.5Z" />
  <path class="cls-7" d="M667.52,473.67l-10.57,4.11c10.85,11.8,22.24,26.17,22.67,42.11-1.51.48-6.3,3.92-5.29,5.23l11.59,14.92-2.06,10.16-21.38-23.13c-4.38-4.74-16.78-5.85-22.38-7.23l-9.65-2.38c-3.59-4.56-9.45-11.89-11.19-16.84,2.2-29.6-38.39-14.33-30.34-47.09-3.54-2.62-13.1-4.01-18.76-2.38-4.76,1.37-10.67,9.18-11.27,13.48,7.51,6.65,12.38,12.89,11.08,21.11l-5.19,4.55c-7.14,6.25,13.35,5.8,1.34,34.21-3.08,7.29,11.5,14.13,18.74,14.2l18.52,25.07-14.33-7.33-9.03,20.24c-11.71,3.49-23.99,9.44-30.38,19.2-11.03,2.1-25.17,9.32-28.21,20.6l-2.45,9.09-19.77-1.6c-3.1-.25-10.73,5.24-11.82,8.58-18.79-16.09,33.52-26.53,25.01-55.67l-3.27,7.03c-.5,1.07-3.53,3.47-3.66,2.3l-.73-6.4-6.25-43.69c-30.49,44.3.14,33.67-22.34,70.65l-11.11-6.9c-38.27,12.09-24.17,23.7-41.73,50.46,4.63-1.2,12.79-4.61,22.03-8.97l-9.72,15.89c-2.44,3.98-9.33,8.91-14.42,9.96-4.83.99-11.17-5.56-14.93-10.52l-28.7,7.68.71-10.77c-14.16,9.04-25.39,14.42-39.89,17.79l-6.75,1.57c-1.75.41-2.03-5.55-2-6.56l22.77-17.2c17.01-12.84,16.81-20.1,30.61-19.07,5.01.37,14.92,3.38,17.66-.45,3.02-4.22,5.7-11.92,6.8-16.1,6.56-4.15,12.83-11.45,16.33-20.06,4.6-11.3,13.29-19.77,19.2-29.24,6.42-10.28,12.16-18.15,20.2-27.16,8.87-9.94,15.71-22.66,27.77-30.17,7.21-4.49,18.87-1.25,23.78,2.12,29.24-34.61,5.69-27.86,30.05-56.96l17.76-21.22c5.63-6.72,23.98-9.51,33.61-7.22,7.73,1.84,15.93,16.13,23.04,19.71l33.88,17.06c7.03,3.54,11.38,7.78,14.41,13.23ZM541.4,587.26l12.9-26.08c2.24-4.53,3.74-17.34-.06-19.87l-12.84-8.54-8.25-21.55c-4.44,4.98-7.7,12.55-6.19,16.03l5.5,12.65c-2.15,8.79-5.08,22.6-5.98,29.85,4.9-4.57,7.87-7.33,7.46-6.95l7.47,24.47Z" />
  <path class="cls-3" d="M263.38,639.65l-7.22,7.49,30.94-2.96c9.31-.89,61.04-9.98,65.31,5.03l-22.77,17.2c-18.58,4.24-37.1,10.31-56.45,16.5-14.12,4.51-26.82,6.24-36.33,16.79l-12.32-19.81-5.89,26.3c-.44,1.98-2.57,5.51-3.75,6.87-.79.9-3.8-1.11-4.01-2.29l-1.34-7.69c-.39-2.23-3.1-7.03-4.49-8.77-1.04-1.3-5.03,1.84-5.92,3.25l-5.77,9.19-9.09-53c46.23,1.85,47.27-12.68,79.11-14.09Z" />
  <path class="cls-2" d="M837.28,599.77l17.88,33.71c1.01,1.9,1.18,10.19-.77,9.73l-8.5-2.04c-1.52-.37-6.27-4.33-6.8-2.84l-3.8,10.69c-32.84-8.81-6.94-19.02-29.96-40.9l-25.71-24.42c-4.37-4.15-8.3-9.21-9.8-13.57l22.68-2.37c24.6,25.94,37.37,18.04,44.78,32.01Z" />
  <path class="cls-4" d="M333.35,608.64l-.28,16.96c7.03-.17,17.49.74,22.61.08l23.72-3.06,3.62,7.51c-13.8-1.03-13.61,6.23-30.61,19.07-4.27-15.01-56-5.92-65.31-5.03l-30.94,2.96,7.22-7.49c24.6-8.04,52.36-34.26,69.97-31.01Z" />
  <path class="cls-2" d="M746.95,546.64c-1.55-.04-8.12-1.69-10.19-3.52l-20.92-18.48-1.99,5.52-15.39-14.06-10.49,7.89c-2,1.51-8.3-2.67-8.34-4.11-.43-15.94-11.82-30.31-22.67-42.11l10.57-4.11,17.74,31.83,32.7,5.79,20.19,21.36c2.75,3.01,6.74,10.19,8.8,13.99Z" />
  <path class="cls-3" d="M386.64,596.74l-11.89,7.74,4.65,18.15-23.72,3.06c-5.12.66-15.58-.25-22.61-.08l.28-16.96c17.99,3.31,17.8-19.73,29.3-17.19l23.99,5.29Z" />
  <path class="cls-1" d="M407.48,613.58c-1.1,4.18-3.79,11.89-6.8,16.1-2.74,3.83-12.65.82-17.66.45l-3.62-7.51-4.65-18.15,11.89-7.74,20.84,16.84Z" />
  <path class="cls-2" d="M1054.49,653.78c-2.16,8.55-3.18,13.24-8.79,25.84l-5.35-23.25,14.14-2.59Z" />
  <path class="cls-2" d="M1033.33,1496.47l-.16,5.12c-.04,1.28-4.06,1.21-6.47,1.33l-186.67,9.5c-19.36.99-36.17,2.08-53.68,6.3,36.16,9.4,74.27,4.2,100.39,11.21.39,11.99-11.07,22.46-23.27,26.47l-10.83,3.56c-2.36.78-5.72-8.43-8.09-8.24l-27.71,3.8-10.74,21.31-8.91-24.2-14.9,6.92-25.43-4.64c-9.88,6.23-19.38,5.41-30.78,4.1l-28.87-3.31c-7.73-.89-20.8.42-32.98.8-1.79,2.54.58,16.37,4.32,19.92s15.13,1.81,22.69.65l-6.76,28.42c-5.6,6.74-18.95-10.19-26.03-11.08l-37-4.66c-20.68-2.6-50.66,2.52-74.34-28.58l-6.32,3.81c-1.8,1.09-6.39-2.38-9.24-2.91l-33-6.21c-1.54-.29-6.3-6.14-7.62-5.3l-7.89,5-25.25-4.8c-8.21,3.56-19.55,7.83-25.99,7.9l-4.49-10.5c-.83-1.95-7.04.38-9.06-.31-1.37-.47-3.38-6.38-4.76-5.95-1.85.57-6.14,2.12-8.2,3.15l-8.32,4.18c-1.65.83-1.59-8.05-2.15-11.16-9.02,3.8-19.77,4.98-31.47,4.29l-35.38-2.1c-5.1-.3-10.8-.65-16.49-1.48-3.81-.56-2.88-9.13-.89-18.96l-90.95,1.52c-.76-2.16,2.86-11.19,5.73-9.77l10.14,5.01,16.56-13.7c-.23-1.75-2.46-8.44-.36-8.7l7.54-.93,9.7-1.21,16.82-2.05c45.24.48,90.74-.51,137.83-4.73,11.38-1.02,23.61-5.3,36.52-4.93,5.04.14,15.04-.75,16.53-4.42l5.96-14.64c39.03-1.54,81.84-4.06,121.72-2.12l46.36,2.24-29.54,6.46c-1.92.42-6.47,3.08-7.87,3.94s5.38,3.66,7.21,3.82l107.28,9.31,246.51,10.84c20.57.9,40.06,1.51,59.04.72Z" />
  <path class="cls-2" d="M762.71,1568.47l.63,12.73c.14,2.83-8.62,2.71-11.47,2.61-2.85-.1-6.4-7.93-4.4-10.02l14.72-15.36c-.04-.87.28,5.23.52,10.05Z" />
  <path class="cls-2" d="M487.38,632.56l-5.81,17.74c-.52,1.57,2.09,6.57,3.61,5.86l7.79-3.62c2.38-1.11,9.05-4.29,10.97-2.58l8.17,7.28,17.15,15.26c8.14-5.21,18.52-18.03,15.88-29.11-2.38-9.94-17.25-16.57-26.15-17.81l2.45-9.09c18.63-6.36,17.71,18.68,51.5,2.14,14.64-7.17,14.22,14.04,24.05,16.96,6.15,1.82,27.98-8.6,23.45-14.9,1.52.16,4.55-.63,6.03-.97,11.46,6.11,22.02,15.83,31.07,26.56l-5.54,13.11c-4.84-5.83-14.85-13.54-19.1-11.28-12.84,35.95-29.91-23.18-55.27,8.08l23.51,10.63c10.56,4.78,23.46,5.48,34.09,6.77,6.55,3.62,18.26,11.11,25.84,13.58l18.59,6.06-6.24-14.33c8.2-5.03,16.06-1.09,25.03,1.03,11.97,2.83,20.46,5.59,32.37,12l-22.6-25.7c16.03-5.79,27.62.1,37.44,11.93,6.47,7.8,15.21,9.17,24.69,11.87,17.21,4.89,32.72,12.57,49.9,20.47l16.12-7.02-33.49-28.65c-1.63-1.39-10.45-1.28-9.74.36l4,9.2c-5.09.43-15.7-3.24-18.52-8.09-19.74-33.94-26.11,5.53-58.62-52.2l7.29.76c1.04.11-1.16-2.74-1.15-3.8l.11-7.05,19.1,11.58c3.03-1.74,7.35-5.47,9.19-4.4l8.85,5.18-7.76-11.32-9.16-24.76,19.7-1.84,19.39,26.68c4.01,5.52,7.3,16.63,9.44,24.31l-18.18-8.66c9.2,15.77,21.49,26.61,35.21,36.82l1.27-12.22c30.99,25.36,12.5,29.65,60.94,57.08l1.64-15.76c5.59,2.09,13.11,14.75,12.09,22.67-1.27,9.84-4.59,18.88-9.82,30.23l-10.07-20.14c-3.4,15.05-7.8,25.75-16.5,32.51l-7.47-8.71c-1.44-1.67-4.74,6.51-5.91,8.69l-8.73-10.11-7.1,31.44c-9.58-26.22-51.56-3.32-65.33,6.82-1.08-3.91-10.37-7.19-14.37-6.73l-20.83,2.39-36.46,7.56c-11.55,2.39-25.42,14.07-38.36,13.19-31.61-2.15-64.16-1.65-94.48.44-6.49-.48-19.08-11.19-25.61-8.64-10,3.91-19.45-3.08-28.14-5.16-23.51-5.65-48.71-6.21-71.74-13.74-9.75-3.19-17.25-4.39-26.67-3l-13.48-18.54-8.46,17.77-13.47-42.98-10.57,36.6-9.71-19.17-8.52,19.97-12.24-19.05c-23.89-4.62-11.57-18.88-26.05-37.02-5.81,15.06-6.88,19.78-13.25,30.68l-12.79-42.24c-6.07,17.52-11.25,28.68-22.6,38.42l-10.46-21.04c1.57-4.91,2.13-13.73-1.84-20.11,9.51-10.55,22.21-12.28,36.33-16.79,19.35-6.18,37.87-12.25,56.45-16.5-.03,1.01.25,6.97,2,6.56l6.75-1.57c14.49-3.37,25.72-8.75,39.89-17.79l-.71,10.77,28.7-7.68c3.76,4.96,10.1,11.51,14.93,10.52,5.09-1.05,11.98-5.98,14.42-9.96l9.72-15.89c-9.25,4.36-17.41,7.77-22.03,8.97,17.56-26.76,3.46-38.37,41.73-50.46l11.11,6.9c22.48-36.98-8.15-26.35,22.34-70.65l6.25,43.69.73,6.4c.13,1.17,3.16-1.23,3.66-2.3l3.27-7.03c8.51,29.14-43.8,39.58-25.01,55.67Z" />
  <path class="cls-2" d="M770.55,929.18l26.8,10.51c8.71,3.42,21.8-5.6,24.66-12.69l7,33.72,8.07-13.46c1.73,3.09,5.39,11.01,6.83,9.36l8.13-9.3,16.84,28.17,10.79-19.05,10.07,33.17-13.43,22.55c-3.73-1.56-5.28-1.96-4.75-3.22l4.59-11.06c-52.04,19.8-32.62,36.11-59.41,55.44l-6.22-8.28c-1.28-1.7-7.95,1.72-9.39,3.44l-28.66,34.38,22.73-12.35c-2.38,18.57-22.68,47.91-38.59,52.66l-10.03.36c.96-5.72,3.41-12.93,6.47-19l12.06-23.88-11.11,7.33c-2,1.32-6.87-2.86-9.23-2.37-3.05.63-9.7,8.11-12.63,7.08l-14.4-5.1c33.89-53.46,47.61-22.65,59.29-52.19,2.9-7.34,14.45-13.05,22.49-13.33l-6.6,10.49c-1.24,1.97,4.19,7.73,5.8,6.16l19.34-18.94c-2.81-2.53-6.23-5.7-6.27-5.62-.03.07,1.76-1.98,2.38-2.76.85-1.07,1.76.95,6.3,7.09l19.8-18.29-21.32,10.69,3.17-12.74-33.73,14.11c-10.11,4.23-16.98,7.9-28.42,9.49-9.2,1.28-18.1,16.94-26.17,20.99l-33.92,17c6.82-14.66,16.85-26.66,30.48-41.37l-20.78,7.18c-11.12,1.66-18.57,4.35-26.97,10.42l-7.42-7.44c-1.43-1.43,3.25-7.55,3.69-10.74-13.26,2.76-39.42,3.62-41.25,20.92l-19.02-.92-37.23,15.09c-1.09-5.62-4.8-15.29-6.87-19.99l-26.74,15c3.35-10.56,5.8-15.58,5.45-19.46-1.05-11.69-30.42,3.5-37.14-4.3-5.61-6.52-14.79-13.63-22.77-17.96-2.78-2.35,3.66-12.38,7.9-14.13l31.88-13.17-29.85-18.3-23.4.85c-16.66.61-25.16,22.35-76.99-.93l-16.43,15.29c.97-11.64,1.64-16.76,3.35-23.58,1.1-4.41,4.87-12.45,7.38-16.08,7.43-2.52,46.59-11.29,52.44-11.89l27.61-2.81c12.58-1.28,25.35-7.52,36.06-9.51,11.11-2.06,22.27-2.07,35.03-6.05,22.41-6.99,49.39,1.71,71.69-2.12,26.81-4.61,45,4.35,68.8,12,26.33,8.47,55.65,9.18,81.78,13.41ZM529.55,1013.91l-.87-16.38c-.15-2.74-11.45-.22-12.45,2.81-1.85,5.6,6.28,15.27,13.32,13.58Z" />
  <path class="cls-5" d="M719.79,855.68l33.95,2.63-29.86,1.73,3.64,20.88c31.14,6.03,12.99,23.23,36.5,26l6.53,22.26c-26.14-4.23-55.45-4.94-81.78-13.41-23.8-7.66-41.98-16.61-68.8-12-22.29,3.83-49.27-4.86-71.69,2.12-12.76,3.98-23.93,3.99-35.03,6.05-10.71,1.98-23.48,8.23-36.06,9.51l-27.61,2.81c-5.86.6-45.02,9.37-52.44,11.89l4.19-21.16,16.5-2.89c.74.32,6.14,2.67,6.12,2.65l15.23-15.36c11.88-11.98-11.63-16.45,60.81-39.24,20.06-6.31,43.57-2.58,65.91-2.55l134.07.2c5.66,0,15.13-2.49,19.82-2.12Z" />
  <path class="cls-5" d="M756.97,790.09l3.79,13.76-17.9,19.57-13.82,11.35c-2.6,6.76-5.33,13.33-8.99,16.82l-229.41-.51-39.93-18.2c-8.46-9.33-18.98-26.7-26.36-38.24l-8,8.66-5.25-8.61c-.77-1.27-3.13,1.68-8,5.53-1.38-6.79-2.4-15.8-2.82-23.81,9.42-1.39,16.93-.19,26.67,3,23.02,7.53,48.23,8.1,71.74,13.74,8.69,2.09,18.14,9.07,28.14,5.16,6.54-2.55,19.12,8.16,25.61,8.64,30.33-2.09,62.88-2.6,94.48-.44,12.94.88,26.81-10.8,38.36-13.19l36.46-7.56,20.83-2.39c4-.46,13.3,2.83,14.37,6.73Z" />
  <path class="cls-3" d="M746.57,1123.52c-7.39-1.42-14.4-1.86-23.62-2.03l-6.4-8.08-11.16,7.56c-17.07,3.74-32.77,14.53-41.64,29.84l-7.15-.34c-2.94-2.07-6.79-4.44-10.23-6.37v-5.83c0-1.05-2.38-1.18-2.89-.22l-3,5.71c-14.71,27.95-33.36,23.18-29.47,46.19-7.62,1.69-17.83-2.13-18.88-9.61l4.29-9.8c-1.7.42-3.94,1.06-5.01,1.23-1.39.22-2.82-1.38-4.3-2.39l7.23-15.31c-8.62-8.59-13.22-15.07-14.35-24.13,11.79,2.02,25.01.08,38.39-5.9,10.33-4.61,14.27-20.64,14.61-30.51.43-12.87,15.67-14.49,23.42-28.72,9.85-18.08-44.07,7.34-49.09,12.87l9.66,4.05c2.26.95,2.66,4.94,2.96,7.9l-23.59,2.53,6.93,12.25-20.14.51c-6.88,6.03-13.63,8.8-19.71,5.2l-5.65-3.34c-1.24,4.5-2.65,12.25-5.36,11.62l-8.94-2.11-3.54-5.97,9.3-9.18-13.03-6.98c8.84-13.48,28.35-8.68,42.86-.42l21.9-25.39c-12.32-4.42-18.02-7.38-19.59-15.47l37.23-15.09,19.02.92c1.82-17.3,27.99-18.15,41.25-20.92-.43,3.19-5.11,9.31-3.69,10.74l7.42,7.44c8.4-6.07,15.85-8.76,26.97-10.42l20.78-7.18c-13.63,14.71-23.65,26.71-30.48,41.37l33.92-17c8.07-4.05,16.97-19.71,26.17-20.99,11.44-1.6,18.32-5.27,28.42-9.49l33.73-14.11-3.17,12.74,21.32-10.69-19.8,18.29c-4.54-6.14-5.45-8.17-6.3-7.09-.62.78-2.41,2.82-2.38,2.76.04-.08,3.46,3.09,6.27,5.62l-19.34,18.94c-1.61,1.58-7.04-4.19-5.8-6.16l6.6-10.49c-8.04.29-19.59,5.99-22.49,13.33-11.68,29.53-25.4-1.27-59.29,52.19l14.4,5.1c2.93,1.04,9.58-6.44,12.63-7.08,2.35-.49,7.23,3.69,9.23,2.37l11.11-7.33-12.06,23.88c-3.07,6.07-5.52,13.28-6.47,19ZM600,1144.95c0-.92-.75-1.67-1.67-1.67s-1.67.75-1.67,1.67.75,1.67,1.67,1.67,1.67-.75,1.67-1.67Z" />
  <path class="cls-3" d="M904.02,1002.74l-29.2,43.38c14.52-.55,20.18-9.35,28.22-19.64l5.27,10.1,21.86-23.38c4.75-5.08,13.23-12.49,18.77-10.65l9.19,20.27,9.73-17.23,14.41,23.88,11.33-7.33,11.15,22.36c2.56,5.14,5.11,9.92,8.4,11.89l-48.1,13.1c-13.72,3.74-22.88,6.72-38.75,8.75-11.09,1.42-31.17,12.31-41.68,15.34-2.46.71-10.56-3.55-13.09-3.88-3.17-.41-6,7.48-9.04,9.09-7.71,4.08-18.03,10.49-25.02,13.64-.91-13.17,11.9-11.53,21.91-44.03-19.79,2.97-26.12-8.75-37.28-.6-10.59,7.74-.44,19.44-12.58,30.66l-23.3,21.55c-4.72,4.37-9.73,9.38-12.61,13.45-14.26,6.39-23.8,24.65-34.2,36.6-6.86,7.89-22.57,8.72-17.51,27.02-5.89,2.28-15.6,1.87-21.89.09,10.65-30.08,27.68-24.73,15.37-37.18-4.25-4.29-9.09,12.81-17.94,11.19-4.61-.84-10.68-1.87-14.03-1.62l-3.27-11.42-16.42,22.54-5.76,7.9c-1.18,1.61-6.53-2.54-7.27-2.54l-10.85,7.21c-.5-19.69,8.14-15.17,23.93-42.42,5.03-1.1,11.92-.75,18.45-.09l21.27-17.88,15.66,5.89c3.78,1.42-.33,13.12-1.16,16.16,21.87-19.12,49.28-4.68,38.61-31.74,15.9-4.74,36.21-34.09,38.59-52.66l-22.73,12.35,28.66-34.38c1.43-1.72,8.11-5.14,9.39-3.44l6.22,8.28c26.8-19.33,7.38-35.64,59.41-55.44l-4.59,11.06c-.52,1.26,1.02,1.66,4.75,3.22l13.43-22.55,8.57-6.05c2.76,7.92,4.48,13.35,5.72,19.17Z" />
  <path class="cls-2" d="M930.17,1013.2l-21.86,23.38-5.27-10.1c-8.04,10.29-13.7,19.09-28.22,19.64l29.2-43.38c5.16-1.02,7.32-5.18,11.97-14.92,5.25,6.17,10.84,16.29,14.18,25.37Z" />
  <path class="cls-2" d="M929.35,693.48c-2.76,10.02-7.45,20-12.86,28.91-4.04-9.11-6.56-16.67-9.79-19.63-8.33-7.65-21.62-24.46-30.39-37.2,12.27-7.65,34.3,33.52,33.21,10.56l19.83,17.37Z" />
  <path class="cls-7" d="M389.76,952.23c-1.71,6.82-2.38,11.94-3.35,23.58l16.43-15.29c51.83,23.27,60.34,1.53,76.99.93l23.4-.85,29.85,18.3-31.88,13.17c-4.24,1.75-10.68,11.78-7.9,14.13,7.98,4.34,17.16,11.45,22.77,17.96,6.72,7.8,36.09-7.39,37.14,4.3.35,3.88-2.1,8.9-5.45,19.46l26.74-15c2.07,4.7,5.78,14.37,6.87,19.99,1.57,8.09,7.27,11.05,19.59,15.47l-21.9,25.39c-14.51-8.26-34.02-13.07-42.86.42l-16.45,1.58c5.35,6.86,12.27,12.06,20.18,14.58l3.54,5.97-8.89,25.79-7.36-4.23c-1.13-.65-3.46.82-3.94,2.08-.59,1.54-2.59,6.49-2.91,7.4l-16.07-4.32.33-18.26,11.59,7.41c-1.59-21.58-19.09-26.67-29.57-39.01-10.33-12.16-21.03-20.1-38.93-26.2l3.03,11.13-20.18-14.62,4.61,23.63c1.86,9.53,18.54,21.72,27.93,22.05,1.9-1.64,8.62-8.14,10.27-9.04,25.64,31.65-3.88,29.84,23.14,67.48,2.79-3.25,5.93-9.12,6.47-13.65l17.65-3.8c-2.57,8.73-6.59,16.05-6.65,20.04l-.42,30.13c-19.1,22.72-39.76-19.92-49.27-23.58-2.47-18.96-6.29-.87-28.22-39.43l-15.47-27.2-12.66-18.08c-2.68-3.82-6.78-13.22-10.95-13.31-4.53-.1-12.22.6-16.89.84-14.73.75-18.84-18.68-29.7-19.19,3.03-5.83-76.08-36.87-79.91-37.99l-40.49-11.77c22.2-27.48-2.22-43.75,21.71-52.85l19.58,46.07,8.68-24.3c3.56-.56,8.76.11,10.09,2.39l7.99,13.67,13.05-48.92c5.16-.91,9.82,6.72,13.2,14.26l11.05-21.88,7.93,23.93,10.58-21.36,10.28,34.21,12.69-35.35,12.93,11.75ZM494.54,1081.74c11.62,12.51,39.14,4.54,47.11-9.85,4.65-8.41-.24-24.43-7.05-30.12l-25.72,12.62c-1.85,2.12-4.9,10.57-7.31,9.47l-9.28-4.23c-3.15-1.44-11.01-2.47-13.84-2.21,5.58,6.87,10.55,18.34,16.1,24.32Z" />
  <path class="cls-9" d="M173.72,1036.88c.55,5.34,3.56,15.25,7.08,19.35,52.09-1.88,47.45,9.85,86.85,16.84,7.34,4.07,22.94,9.41,30.44,14.2l17.7,11.32c14.83,9.48,29.85,20.17,47.9,23.25,23.43-3.08,37.22-20.46,41.79-18.44l15.15,6.71,15.47,27.2c21.93,38.56,25.75,20.48,28.22,39.43l-8.84,19.29-49.09,2.08-55.19,2.37c-2.26.1-8.61-4.43-7.82-6.06,1.03-2.15,4.97-5.68,7.49-6.3l29.92-7.39c1.14-.28,6.19.79,7.38.78s2.19-2.19,2.08-3.39c-.15-1.73-4.25-6.91-6-7.01l-42.15-2.35c-11.35-14.83-64.14-27.01-81.89-17.01l-26.03-7.14c-9.57-2.62-20.09-4.55-31.14-5.2l-5.04-10.79c-10.81,3.13-39.09-6.41-47.95-14.26l-12.17,5.55c-3.51,1.6-13.94-1.69-13.56-5.49l1.51-15.28c.29-2.98-5.56-5.02-8.7-5.48,8.38-23.76-.03-29.73,7.99-45.48,7.41.89,17.59,7.78,24.56,12.73,4.61-13.83,11.34-24.59,24.04-24Z" />
  <path class="cls-2" d="M230.02,1010.59l40.49,11.77c3.84,1.12,82.95,32.16,79.91,37.99,5.25,4.66-26.84,12.97-38.45,10.35-6.75-1.53-17.55-4.86-23.08-5.08l-31.92-1.29c4.1,3.3,8.09,7.3,10.67,8.73-39.4-6.99-34.76-18.71-86.85-16.84-3.52-4.1-6.53-14.01-7.08-19.35l10.53-6.43,10.87-30.65,7.03,20.5,12.17-12.11c7.4,2,12.18,3.32,15.69,2.41Z" />
  <polygon class="cls-3" points="285.79 1489.99 268.97 1492.04 280.37 1477.14 285.79 1489.99" />
  <path class="cls-5" d="M568.91,1128.23c2.81-.23,8.16,1.22,11.09,1.72,1.12,9.06,5.72,15.54,14.35,24.13l-7.23,15.31c-4.55-3.11-13.92-1.62-18.48,3.33-3.2,3.47-.51,12.49-1.91,17.05-1.05,3.42-8.12,14.4-5.19,12.92l15.52-12.21-13.3,26.76,5.86,6.75c-.09,3.35-.39,9.85-.7,13.06-.24,2.54-6.66,4.71-8.84,6.49s1.62,9.4,4.45,10.15l10.52,2.78c3.75.99,9.52,1.79,13.35.59,2.89-.9,1.28-7.65-.16-12.65,7.14-17.06,29.22-15.05,31.25-27.28,3.37-.29,9.36-1.38,10.75-4.12,1.11-2.2,1.98-7.67,3.29-9.75l6.32-10.02,10.85-7.21c.74,0,6.09,4.16,7.27,2.54l5.76-7.9,16.42-22.54,3.27,11.42-13.76,17.75c10.96,2.02,17.11,3.19,20.65,9.32l-9.27,13.31c-5.34,7.67-8.86,25.69-15.94,30.69l-28.62,19.55c-25.88,17.68-4.1-12.83-35.85,23.49-8.4-.25-24.55.93-31.02-4.18l-16.13-12.73-16.16-21.21c-12.21-16.03,2.45-17.54-23.72-45.23l.42-30.13c.06-3.98,4.08-11.31,6.65-20.04l-17.65,3.8,1.3-10.91,16.07,4.32c.32-.91,2.33-5.87,2.91-7.4l10.41,29.2c-9.84,7.97-11.02,20.71-.22,28.98l6.89-23.88c9.9-4.83,16.43-11.77,17.19-21.14,2.56-1.63,4.83-3.11,6.54-4.58,1.71-1.47,2.03-8.91-.3-8.84l-10.25.3c-1.32-1.38-5.54-8.72-3.06-9.11,5.39-.86,14.08-2.29,18.41-2.64Z" />
  <path class="cls-2" d="M837.46,1112.41l-40.05,18.01c-8.6,3.87-16.55,9.75-23.82,3.03,2.89-4.06,7.89-9.08,12.61-13.45l23.3-21.55c12.13-11.22,1.99-22.92,12.58-30.66,11.16-8.15,17.49,3.56,37.28.6-10.01,32.5-22.82,30.85-21.91,44.03Z" />
  <path class="cls-4" d="M700,1197.16l-9.7-.53c-3.54-6.13-9.69-7.3-20.65-9.32l13.76-17.75c3.34-.25,9.42.78,14.03,1.62,8.85,1.61,13.69-15.48,17.94-11.19,12.31,12.45-4.72,7.1-15.37,37.18Z" />
  <path class="cls-1" d="M1114.98,1477.05l-16.5-3.06c-3.06-.57-7.02,2.75-13.27,5.83l-1.04-26.97c-.1-2.63,8.83-5.7,10.75-3.69s5.02,5.76,7.1,8.78l12.96,19.11Z" />
  <path class="cls-8" d="M626.44,619.71c-1.48.34-4.51,1.13-6.03.97l-24.78-2.6,6.39-8.17c5.36-6.85-.74,1.01-26.21-7.36-8.73-2.87-21.44,5.12-26.19-6.68,6.39-9.77,18.66-15.72,30.38-19.2,20.11-5.98,52.7,13.92,60.25,21.13,2.77,2.65,3.39,14.11-.02,15.65l-13.79,6.25Z" />
  <path class="cls-8" d="M713.85,530.17c10.76,9.83-5.43,26.25,35.28,33.11,4.1.69,11.15,10.34,10.11,14.22-1.36,5.04-8.89,6.85-13.78,9.32l-28.72,14.5-9.98-14.61c-1.31-1.92-2.63-6.21-3.6-8.11l16.42-14.56c-.12-9.37-11.52-23.35-19.85-30.63l-13.8,6.63-11.59-14.92c-1.01-1.3,3.78-4.75,5.29-5.23.04,1.44,6.34,5.62,8.34,4.11l10.49-7.89,15.39,14.06Z" />
  <path class="cls-8" d="M619.27,500.62c-5.33-2-46.15-15.97-49.3-14.88,1.31-8.22-3.57-14.46-11.08-21.11.6-4.3,6.5-12.11,11.27-13.48,5.66-1.63,15.22-.24,18.76,2.38-8.05,32.76,32.54,17.49,30.34,47.09Z" />
  <path class="cls-7" d="M663.01,556.12c-12.03-3.57-19.3-17.76-24.15-29.65l.9-3.78,23.25,33.43Z" />
  <path class="cls-7" d="M699.26,579.52c-9.57,2.26-27.91-9.43-32.11-19.11l13.51-5.64c7.93,1.27,16.84,16.84,18.6,24.75Z" />
  <path class="cls-8" d="M615.52,295.78c2.16-.68,5.25,6.76,3.57,7.5l-11.12,4.89c-7.85,3.45-16.83,6.58-22.18.77-2.14-2.32-5.14-6.21-4.13-7.24l6.18-6.3c1.54-1.57,5.39,6.19,7.39,8.04,3.26,3.01,14.08-5.72,20.28-7.67Z" />
  <path class="cls-3" d="M518.97,625.57c8.91,1.24,23.78,7.87,26.15,17.81,2.65,11.08-7.74,23.9-15.88,29.11l-17.15-15.26-8.17-7.28c-1.92-1.71-8.59,1.47-10.97,2.58l-7.79,3.62c-1.52.71-4.12-4.29-3.61-5.86l5.81-17.74c1.1-3.34,8.72-8.83,11.82-8.58l19.77,1.6Z" />
  <path class="cls-3" d="M549.62,595.88c4.75,11.8,17.45,3.81,26.19,6.68,25.47,8.37,31.57.51,26.21,7.36l-6.39,8.17,24.78,2.6c4.52,6.3-17.3,16.72-23.45,14.9-9.83-2.91-9.41-24.12-24.05-16.96-33.79,16.54-32.87-8.5-51.5-2.14,3.04-11.28,17.18-18.5,28.21-20.6Z" />
  <path class="cls-3" d="M685.92,540.04l13.8-6.63c8.33,7.29,19.73,21.27,19.85,30.63l-16.42,14.56-3.9.92c-1.77-7.9-10.67-23.48-18.6-24.75l-13.51,5.64-4.14-4.3-23.25-33.43c.17-.72.27-1.94.35-2.85,5.6,1.38,18,2.49,22.38,7.23l21.38,23.13,2.06-10.16Z" />
  <path class="cls-3" d="M619.27,500.62c1.74,4.96,7.6,12.28,11.19,16.84,2.66,3.38,5.36,6.66,8.4,9.01,4.85,11.89,12.12,26.08,24.15,29.65l4.14,4.3c4.2,9.67,22.54,21.37,32.11,19.11.27,1.2.68,3.87,1.07,5.1.57,1.77,4.58,1.91,6.42,2.09l9.98,14.61,28.72-14.5c4.89-2.47,12.42-4.28,13.78-9.32,1.05-3.88-6-13.53-10.11-14.22-40.71-6.86-24.52-23.28-35.28-33.11l1.99-5.52,20.92,18.48c2.07,1.83,8.64,3.48,10.19,3.52,4.95,9.17,14.19,18.37,22.87,23.48,1.5,4.36,5.43,9.42,9.8,13.57l25.71,24.42c23.03,21.88-2.87,32.09,29.96,40.9l3.8-10.69c.53-1.49,5.27,2.48,6.8,2.84l8.5,2.04c1.95.47,1.78-7.83.77-9.73l-17.88-33.71c17.89,9.35,36.23,13.39,57.7,16.73l29.06,18.53c3.71,2.36,10.51,9.64,13.71,7.77l11.88-6.98c14.33,5.72,32.25,12.98,48.06,18.34l17.44,5.92c2.33-2.35,8.83-4.41,14.1-3.38l-3.09,26.92-10.68-11.36c-10.45,1.11-19.09,9.29-24.91,20.33l-8.12-16.11-11.53,20.41c-.65,1.16-8.28.4-8.53-.91l-2.24-11.46c-7.57.71-14.69,8-18.77,20.03l-12-11.05-19.83-17.37c1.09,22.96-20.94-18.2-33.21-10.56,8.77,12.74,22.06,29.54,30.39,37.2l-7,20.61-11.8-4.01c1.02-7.92-6.5-20.58-12.09-22.67l-1.64,15.76c-48.44-27.43-29.95-31.72-60.94-57.08l-1.27,12.22c-13.72-10.21-26.01-21.05-35.21-36.82l18.18,8.66c-2.14-7.68-5.43-18.79-9.44-24.31l-19.39-26.68-19.7,1.84,9.16,24.76,7.76,11.32-8.85-5.18c-1.84-1.08-6.16,2.66-9.19,4.4l-19.1-11.58-.11,7.05c-.02,1.05,2.19,3.91,1.15,3.8l-7.29-.76c32.51,57.73,38.88,18.26,58.62,52.2,2.82,4.85,13.43,8.51,18.52,8.09l-4-9.2c-.71-1.64,8.11-1.76,9.74-.36l33.49,28.65-16.12,7.02c-17.17-7.9-32.69-15.58-49.9-20.47-9.48-2.7-18.22-4.06-24.69-11.87-9.82-11.83-21.41-17.72-37.44-11.93l22.6,25.7c-11.91-6.41-20.4-9.17-32.37-12-8.97-2.12-16.83-6.06-25.03-1.03l6.24,14.33-18.59-6.06c-7.57-2.47-19.29-9.95-25.84-13.58-10.63-1.29-23.53-2-34.09-6.77l-23.51-10.63c25.37-31.26,42.43,27.87,55.27-8.08,4.25-2.26,14.26,5.44,19.1,11.28l5.54-13.11c-9.05-10.73-19.6-20.45-31.07-26.56l13.79-6.25c3.41-1.54,2.79-13,.02-15.65-7.54-7.22-40.14-27.12-60.25-21.13l9.03-20.24,14.33,7.33-18.52-25.07c-7.23-.07-21.82-6.91-18.74-14.2,12.01-28.41-8.48-27.96-1.34-34.21l5.19-4.55c3.15-1.09,43.97,12.88,49.3,14.88Z" />
  <path class="cls-2" d="M541.4,587.26l-7.47-24.47c.42-.38-2.55,2.38-7.46,6.95.9-7.24,3.83-21.05,5.98-29.85l-5.5-12.65c-1.51-3.48,1.75-11.05,6.19-16.03l8.25,21.55,12.84,8.54c3.81,2.53,2.3,15.34.06,19.87l-12.9,26.08Z" />
  <path class="cls-8" d="M746.57,1123.52l10.03-.36c10.67,27.05-16.75,12.62-38.61,31.74.83-3.04,4.93-14.74,1.16-16.16l-15.66-5.89,1.92-11.87,11.16-7.56,6.4,8.08c9.22.16,16.23.61,23.62,2.03Z" />
  <path class="cls-7" d="M529.55,1013.91c-7.05,1.7-15.18-7.98-13.32-13.58,1-3.03,12.3-5.54,12.45-2.81l.87,16.38Z" />
  <path class="cls-7" d="M663.76,1150.82c-15.78,27.25-24.43,22.73-23.93,42.42l-6.32,10.02c-3.05-1.55-7.91-4.35-10.37-6.15,6.59-6.54,12.29-17.5,13.82-26.51,8.53-1.94,14.53-12.21,19.64-20.12l7.15.34Z" />
  <path class="cls-7" d="M646.38,1144.11c-4.38,7.89-7.88,17.45-9.41,26.49-10.28,2.34-14.24,16.45-13.82,26.51-1.69.61-4.98,1.13-5.37,2.78l-1.72,7.34-16.57,17.9c2.7-10.59,4.87-15.46,7.68-21.32,1.55-1.13,5.56-3.78,5.21-5.81l-1.36-8.05c-3.9-23.01,14.76-18.24,29.47-46.19l3-5.71c.51-.96,2.89-.83,2.89.22v5.83Z" />
  <path class="cls-7" d="M705.4,1120.98l-1.92,11.87-21.27,17.88c-6.54-.67-13.42-1.02-18.45.09,8.87-15.31,24.56-26.1,41.64-29.84Z" />
  <path class="cls-2" d="M504.3,1143.02l-1.3,10.91c-.54,4.52-3.68,10.39-6.47,13.65-27.02-37.64,2.49-35.83-23.14-67.48-1.65.9-8.37,7.41-10.27,9.04-9.39-.34-26.07-12.52-27.93-22.05l-4.61-23.63,20.18,14.62-3.03-11.13c17.91,6.1,28.6,14.04,38.93,26.2,10.48,12.34,27.98,17.43,29.57,39.01l-11.59-7.41-.33,18.26Z" />
  <path class="cls-3" d="M420.63,1110.1l-15.15-6.71c-4.56-2.02-18.36,15.36-41.79,18.44-18.05-3.08-33.08-13.77-47.9-23.25l-17.7-11.32c10.61,2.78,26.37,1.71,35.19-1.03,22.28,12.23,31.15,35.87,45.19,22.94,3.08-2.83,1.27-9.88.6-14.99l5.9-4.73c.76-.61.92-1.63-.04-1.87l-5.31-1.33.51-6.71c4.67-.24,12.36-.94,16.89-.84,4.17.09,8.27,9.48,10.95,13.31l12.66,18.08Z" />
  <path class="cls-4" d="M380.12,1079.55l-.51,6.71-26.06-3.18c-4.97-.61-15.61,1.7-20.28,3.16-8.82,2.74-24.58,3.81-35.19,1.03-7.49-4.79-23.09-10.13-30.44-14.2-2.58-1.43-6.57-5.43-10.67-8.73l31.92,1.29c5.53.22,16.33,3.56,23.08,5.08,11.61,2.62,43.69-5.69,38.45-10.35,10.86.52,14.98,19.94,29.7,19.19Z" />
  <path class="cls-2" d="M494.54,1081.74c-5.55-5.97-10.52-17.44-16.1-24.32,2.83-.25,10.68.78,13.84,2.21l9.28,4.23c2.42,1.1,5.46-7.35,7.31-9.47l25.72-12.62c6.82,5.69,11.71,21.71,7.05,30.12-7.97,14.39-35.49,22.36-47.11,9.85Z" />
  <path class="cls-2" d="M563.43,1110.14c-.51,6.2,1.68,12.85,5.48,18.09-4.33.35-13.03,1.77-18.41,2.64-2.48.4,1.73,7.74,3.06,9.11l4.01,13.11c-.75,9.37-7.29,16.31-17.19,21.14l-6.89,23.88c-10.79-8.27-9.61-21.02.22-28.98l-10.41-29.2c.48-1.26,2.81-2.73,3.94-2.08l7.36,4.23,8.89-25.79,8.94,2.11c2.7.64,4.11-7.12,5.36-11.62l5.65,3.34Z" />
  <path class="cls-2" d="M536.21,1094.17l13.03,6.98-9.3,9.18c-7.91-2.52-14.83-7.72-20.18-14.58l16.45-1.58Z" />
  <path class="cls-8" d="M619.94,1089.65l13.05,3.9c-.33,9.87-4.27,25.89-14.61,30.51-13.38,5.97-26.6,7.92-38.39,5.9-2.93-.5-8.29-1.95-11.09-1.72-3.8-5.24-5.98-11.89-5.48-18.09,6.08,3.6,12.83.82,19.71-5.2l20.14-.51-6.93-12.25,23.59-2.53Z" />
  <path class="cls-4" d="M607.17,1203.82c-2.8,5.86-4.97,10.73-7.68,21.32l16.57-17.9,3.42,9.9c-2.03,12.23-24.11,10.22-31.25,27.28,1.43,5,3.05,11.75.16,12.65-3.83,1.2-9.6.4-13.35-.59l-10.52-2.78c-2.84-.75-6.73-8.29-4.45-10.15s8.6-3.95,8.84-6.49c.3-3.21.61-9.71.7-13.06,29.85-2.86,24.57-17.91,37.56-20.18Z" />
  <path class="cls-2" d="M592.13,1180.35c1.05,7.48,11.26,11.31,18.88,9.61l1.36,8.05c.34,2.03-3.66,4.68-5.21,5.81-12.99,2.27-7.71,17.32-37.56,20.18l-5.86-6.75,13.3-26.76c4.86-3.82,9.96-7.49,15.08-10.14Z" />
  <path class="cls-7" d="M587.11,1169.39c1.48,1.01,2.91,2.61,4.3,2.39,1.07-.17,3.31-.82,5.01-1.23l-4.29,9.8c-5.12,2.65-10.22,6.31-15.08,10.14l-15.52,12.21c-2.92,1.47,4.14-9.5,5.19-12.92,1.41-4.57-1.29-13.58,1.91-17.05,4.56-4.95,13.93-6.44,18.48-3.33Z" />
  <path class="cls-2" d="M633.52,1203.26c-1.31,2.08-2.18,7.56-3.29,9.75-1.38,2.75-7.38,3.83-10.75,4.12l-3.42-9.9,1.72-7.34c.39-1.65,3.67-2.17,5.37-2.78,2.45,1.79,7.32,4.6,10.37,6.15Z" />
  <path class="cls-2" d="M623.15,1197.11c-.42-10.05,3.54-24.17,13.82-26.51-1.52,9-7.23,19.97-13.82,26.51Z" />
  <path class="cls-2" d="M656.61,1150.48c-5.11,7.91-11.1,18.19-19.64,20.12,1.53-9.05,5.03-18.6,9.41-26.49,3.44,1.93,7.29,4.3,10.23,6.37Z" />
  <path class="cls-2" d="M632.99,1093.55l-13.05-3.9c-.3-2.96-.71-6.96-2.96-7.9l-9.66-4.05c5.02-5.53,58.94-30.96,49.09-12.87-7.75,14.23-22.98,15.85-23.42,28.72Z" />
  <path class="cls-2" d="M379.62,1086.26l5.31,1.33c.96.24.8,1.27.04,1.87l-5.9,4.73c.67,5.11,2.48,12.16-.6,14.99-14.04,12.93-22.91-10.71-45.19-22.94,4.67-1.45,15.32-3.76,20.28-3.16l26.06,3.18Z" />
</svg>