<?xml version='1.0' encoding='UTF-8'?>
<svg xmlns="http://www.w3.org/2000/svg" id="Layer_1" viewBox="0 0 1200 1543" xml:space="preserve" width="1200" height="1800">
<style type="text/css">
      .cls-1 {
        fill: #25292f;
      }

      .cls-2 {
        fill: #034756;
      }

      .cls-3 {
        fill: #343b44;
      }

      .cls-4 {
        fill: #056d81;
      }

      .cls-5 {
        fill: #296573;
      }

      .cls-6 {
        fill: #53666d;
      }

      .cls-7 {
        fill: #719ea0;
      }

      .cls-8 {
        fill: #8198ac;
      }

      .cls-9 {
        fill: #8ba3b7;
      }

      .cls-10 {
        fill: #a7bfc6;
      }

      .cls-11 {
        fill: #bac8d4;
      }

      .cls-12 {
        fill: #c5dff1;
      }

      .cls-13 {
        fill: #b6e9e5;
      }

      .cls-14 {
        fill: #d0f0ec;
      }

      .cls-15 {
        fill: #e7f1fc;
      }

      .cls-16 {
        fill: #fdfdfe;
      }

    </style>
<path class="cls-13" d="M0,116.52V0h1200v112.08l-0.92,2.68l-159.57,0.47c-5.88-3.22-11.27-4.62-16.16-4.22l-2.19,1.97l-33.93-15.07  c-1.04,1.78-2.14,2.31-4.31,1.4c-3.68,1.97-7.89,3.28-12.61,3.93l-35.43,12.58l-2.71-1.88c-5.27-0.92-10.88-0.36-16.83,1.68  c-7.72-1.07-15.52-1.7-23.46-1.82c-76.06-1.08-152.65-0.26-227.54,0.6c-28.28,0.52-56.52-0.13-84.72-1.94  c-50.15,0.86-99.55,2.01-148.21,3.44c-116.45,1.3-232.78,1.55-349,0.74c-26.39,2.36-52.73,3.34-79.02,2.93L0,116.52z" />
<path class="cls-8" d="M1023.35,111.01c0.5-1.67,1.73-1.49,3.19-0.98c57.57,24.76,114.98,49.9,172.23,75.42l1.23,3.47v301.35  l-2.95,0.08l-26.46-53.64c-11.73,23.22-23.24,46.75-34.55,70.59l-3.1,0.27c-2.53,1.57-10.03-0.66-13.09-1.89  c-1.07-0.43-1.92-1.26-2.72-2.09c-2.13,0.64-4.23-0.59-6.3-3.67c-1.5,3.18-3.33,3.96-5.5,2.32l-2.44,1.82  c-6.06-1.27-12.24-0.68-18.55,1.77l-2.26-2.18c-3.79-0.96-6.78-4.13-8.96-9.5c-2.6,7.58-5.98,10.19-10.13,7.84  c-3.89-8.37-8.03-16.4-12.41-24.09l-35.72,74.72l14.22-0.24l3.5,2.48c-4.29,9.88-9.55,19.4-15.81,28.55  c-4.02,9.02-9.22,16.73-15.58,23.13l-4.2-0.63c-3.28-3.72-15.02-19.42-14.56-22.91c0.35-2.67,5.69-3.48,8.14-3.11l10.22,0.79  c-10.82-21.77-22.47-43.02-34.93-63.75l-0.54-5.01c1.77-3.94,5.07-7.22,9.92-9.85c79.33-80.38-21.61-220.87-122.97-205.63  l-4.47-1.95l-1.67-2.29c0,0,44.19-63.81,132.56-191.44l4.27-1.46c0.87-1.26,2.76-4.78,4.95-3.82L1023.35,111.01z" />
<path class="cls-14" d="M932.17,113.96l-0.21,2.96c-110.7,43.45-221.42,86.92-332.17,130.39l-2.53-1.89  c-102.39-1.46-205.81-2.22-308.72-1.74c-27.95,1.83-55.88,2.88-83.78,3.16c-10.75,3.29-20.46,2.41-29.11-2.64l-2.2,1.79  L18.94,150.34l-17.13-1.46L0,145.98v-29.46c32.1,3.92,54.04-3.68,96.22-2.43c34.75,1.03,68.57-0.26,104.09,0.32  c59.43,0.96,117.63-0.42,177.85-1.15c19.7-0.24,38.96,0.35,57.49-0.11l40.49-1.02c12.36-0.31,26.01-2.34,38.49-1.36  c24.34,1.9,47.11-1.41,70.61-0.92c11.9,0.25,20.31,3.31,31.48,1.27c-6.39,1.17,88.79,0.44,96.04,0.28  c28.38-0.62,184.05-2.65,201,1.42C919.27,114.14,930.28,106.04,932.17,113.96z" />
<path class="cls-9" d="M175.65,244.2c4.05,2.22,8.37,3.85,12.96,4.87c41.19,25.49,82.3,50.93,123.31,76.31l-0.01,3.14l4.92,1.25  c75.29,78.24,150.57,156.47,225.84,234.69l-0.78,3.06l-2.07,1.94c-88.28-45.83-176.58-91.68-264.9-137.53l-0.24-3.14l-3.38,1.23  c-26.66-15.66-54.07-30.03-82.21-43.11c-10.51-4.76-13.73-4.47-9.67,0.87c5.71,52.06,11.56,104.85,24.29,157.22  c0,0-0.4,2.74-1.2,8.21c-4.48-4.32-6.72-6.49-6.72-6.49l-34.75-68.43l-24.44,52.74l-3.1,0.33l-4.26-2.6l-18.86-35.68l-15.34,32.44  l-3.26,0.62l-2.92,0.24l-14.71-26.83L73,499.52l-13.62,26.41l-3.26,0.48c-3.13,2.11-4.81,0.82-3.67-2.76l-3.65-1.54  c-14.29-28.53-28.52-57.1-42.68-85.73c-1.51,4.27-3.55,5.68-6.12,4.24V145.98c6.04,0.86,13.15,0.07,19.94,1.89L175.65,244.2z" />
<path class="cls-2" d="M91.79,526.13l2.8-0.42l54.69,103.93c1.17,2.8-0.33,4.69-3.3,5.29l-27.38-1.44l39.53,66.9l-1.5,2.73  c3.73-0.29,5.1,2.19,2.64,5.17c3.03,3.48,18.85,28.15,18.19,30.71c-0.6,2.32-1.3,3.43-3.85,3.95l-31.63-6.92l53.72,84.84l-1.4,2.8  c4.29,1.66,7.35,5.25,9.2,10.74c4.63,6.59,6.93,13.17,6.91,19.75l-4.44,0.62c-15.34-3.07-30.39-7.43-45.15-13.09l37.64,54.01  l-1.29,2.83c3.71,1.68,6.66,4.25,8.52,7.88c12.39,20.54,25.11,40.85,38.17,60.95c2.42,3.84,1.2,5.04-2.32,6.44l-52.75-26.91  c0,0-1.78-1.91-5.33-5.73l-3.66,0.96c-12.12-8.03-13.38-7.29-3.76,2.22c4.16,2.76,6.64,5.9,7.47,9.43l6.03,0.41  c25.28,12.39,76.71,40.23,93.71,61.04c1.34,1.64,1.69,3.86,1.96,5.92c-0.26,1.06-0.7,2.64-1.51,2.71  c-12.57,0.99-30.07,1.37-42.61,0.77c-4.22,0.78-7.67-0.05-10.37-2.49l-3.09,0.28c-2.32-4.53-5.35-8.25-9.09-11.15l-0.12-2.97  c-2.34-0.34-4.34-2.07-5.99-5.2c-4.19-2.4-6.24-5.01-6.15-7.82l-4.29,0.65c-35.94-18.53-83.55-6.74-105.73,27.32l-4.05,1.58  l-1.17,2.71c-29.76,0.79-59.54,1.57-89.32,2.36L0,1027.23V751.34c1.85-5.65,4.5-10.99,7.96-16c-3.89,1.46-6.54,0.99-7.96-1.41v-44.2  l2.4-9.12l28.59-47.16c-8.65-0.35-17.48,0.36-26.49,2.14L0,633.48v-2.68l3.01-9.03c13.63-22.35,25.74-45.54,36.34-69.55  c0,0,1.72-1.49,5.15-4.46c-1.11-7.21,5.17-17.97,11.61-21.35l17.37-33.67L91.79,526.13z" />
<path class="cls-15" d="M717.71,1428.98c3.69,3.13-3.05,11.75-6.66,13.53c0.66,1.07,0.2,1.5-1.18,1.39  c-3.2,9.12-8.15,17.71-14.82,25.75c-14.6,22.61-27.84,45.97-39.74,70.07l-3.31,3.14H301.12c3.28-3.85,4.92-5.78,4.92-5.78  c23.26-11.78,45.98-24.31,68.37-37.65c9.26-5.52,19.24-13.02,14.67-24.67c-8.27-21.11-16.52-42.16-26.74-62.44  c0,0-0.31-2.78-0.94-8.35l8.79-0.97c110.91,15.33,225.62,21.94,339.15,24.31L717.71,1428.98z" />
<path class="cls-15" d="M981.82,1016.19c2.14-1.5,5.08-1.7,8.84-0.6l14.65-0.5l1.53,2.82l2.11,2.43c-3.61,5.22,4.8,15.47,8.86,16.87  c54.68,18.89,115.59,29.04,173.63,28.91l8.56,2.4v72.46c-5.75-0.32-8.62-0.48-8.62-0.48c-36.96-16.9-74.75-31.36-113.35-43.38  c-39.18-8.04-78.75-13.78-118.71-17.22c-79.2-13.38-158.89-21.82-239.07-25.32c-4.42-0.25-8.7-1.47-12.89-2.81  c-7.24,1.74-10.87,2.62-10.87,2.62c-43.33-1.33-86.64-1.12-129.93,0.62c-3.74,0.07-7.4-0.88-10.97-1.9l-4.3,3.01  c-15.52,1.28-31.04,2.54-46.58,3.78l-2.17-2.51c0.06,1.19-0.32,2.29-1.45,2.79c-96.46,6.82-144.68,10.23-144.68,10.23l-1.83-2.56  l-3.34,2.04c-27.53,2.71-54.58,7.9-81.13,15.57l-7.45-0.31l-4.66-4.6l-8.24-19.07c-4.67-7.19-7.69-14.57-9.06-22.12  c-5.46-0.81-11.08-12.07-10-17.26l54.5-0.98l0.88-2.69c0,0,18.01-0.14,54.02-0.43l1.6,2.67l0.92-2.68  c51.74-0.27,103.49-0.55,155.25-0.82l1.66,2.67c0.08-1.87,1.93-2.49,3.59-2.76c4.1-0.68,15.08-1.57,16.65,2.29l4.06-2.68  c17.13,0.01,34.28,0.03,51.43,0.04l7.43,2.68l0.92-2.68l164.74-0.65c7.01,2.27,3.96,6.48,0.71,10.74l6.7-1  c10.44,1.49,20.95,2.38,31.53,2.66l2.9,2.98l14.99-0.96c25.4,2.94,50.76,5.88,76.06,8.8l1.28,2.84c0.39,2.43,0.23,5.25-0.48,8.47  c8.08,4.88,17.43,7.05,28.05,6.49l32.13-0.52l1.88,2.62l3.58-2.67c14.82,0.19,29.82,0.33,44.23-3.68  c0.27-10.54-1.6-24.67-11.29-30.53l-0.39-3.01c-3.15-0.24-3.82-0.5-1.33-2.81C978.71,1013.32,980.18,1013.51,981.82,1016.19z" />
<path class="cls-16" d="M164.73,1271.28c1.66-0.16,3.32-0.26,4.96-0.16c1.64,0.1,3.23,0.2,4.66,0.73  c23.27,8.66,45.78,19.01,67.99,30.09c1.36,0.68,2.54,1.76,3.73,2.87c1.2,1.12,2.28,2.38,3.31,3.67c3.81,0.37,7.31,1.19,10.79,2.72  c19.62,8.63,47.2,31.79,63.04,46.89c0.85,0.81,1.43,1.93,2.01,3.09c0.59,1.19,1.01,2.46,1.38,3.76c3.62,1.15,4.12,2.48,1.52,4.01  l-4,3.31c-28.23,5.25-55.42,13.6-81.59,25.06c-37.15,12.3-63.1,8.89-100.71-3.26c-43.62-17.72-88.49-29.96-134.6-36.71L0,1354.02  v-72.32c0.31-2,0.67-2.6,2.16-3.7c2.27-1.68,23.14-9.27,26.91-10.36l2.78,1.8l3.6-3.23c8.7-2.24,50.19-10.99,55.19-7.67  c0.76,0.5,1.41,1.15,2.04,1.84c0.88-0.64,1.77-1.24,2.74-1.67c0.94-0.42,1.84-0.79,2.72-0.77c12.18,0.29,57.58,4,64.58,10.8  C163.49,1269.48,164.13,1270.36,164.73,1271.28z" />
<path class="cls-3" d="M234.28,1439.46c1,0.36,2.47,1.11,2.31,1.83c-6.28,29.65-13.96,62.19-22.07,91.44  c-0.37,5.73-2.1,9.11-5.2,10.12H0v-154.02c1.01-0.69,2.04-1.33,3.15-1.8c9.56-4.01,49.93,4.09,62.43,6.75  c42.28,10.59,83.97,23.12,125.07,37.6c12.5,3.48,25.39,5.35,38.36,5.44L234.28,1439.46z" />
<path class="cls-3" d="M999.15,1461.16l3.14,3.59c-0.41,25-4.2,49.88-11.37,74.66l-3.27,3.44H652c14.91-34.83,35.3-68.58,57.87-98.95  c1.48,0.09,2.74,0.61,3.7,1.7c17.61,19.94,26.36,24.96,53.59,29.68c69.08,11.98,139.4,19.99,205.85-6.74  C981.71,1464.2,990.42,1461.74,999.15,1461.16z" />
<path class="cls-1" d="M1157.21,1418.04c2.2,0.9,4.22,2.13,5.75,3.97c10.44,12.51,21.67,42.56,27.23,58.71  c4.64,13.47,8.91,26.34,9.82,40.71v21.43H987.64c4.1-27.28,15.55-54.73,11.5-81.69c0.49-0.94,1.02-1.85,1.68-2.65  c0.64-0.77,1.27-1.49,2.05-1.84c43.29-19.33,101.53-41.76,149.09-41.4c0.86,0.01,1.73,0.44,2.64,0.92  C1155.55,1416.68,1156.39,1417.34,1157.21,1418.04z" />
<path class="cls-1" d="M336.06,1378.14c3.18,0.19,5.01,2.93,5.51,8.24c7.49,3.97,13.93,8.89,19.31,14.78l0.52,2.82  c10.62,22.85,21.78,45.6,30.22,69.93c3.59,10.35-1.15,17.82-9.78,23.77c-25.7,17.72-53.95,30.17-80.73,45.18h-91.8l24.96-103.4  l3.17-3.7c22.45-9.16,42.76-22.46,60.93-39.93c8.22-6.01,23.27-16.97,32.9-18.87C332.91,1376.64,334.58,1377.42,336.06,1378.14z" />
<path class="cls-3" d="M1200,1140.99v69.54c-0.49,1.18-0.98,1.18-1.48,0.01l-6.18-3.47c-15.07-17.38-35.3-29.29-55.91-39.04  c-124.31-58.86-264.63-68.86-398.09-78.1l-3.08-3.32c-0.79,2.47-1.77,2.19-1.67-0.45l-5.66-3.71c-6.65-7.9-14.68-14.23-24.09-19  c-1.14-4-0.59-10.03,3.51-11.66c82,0.2,163.12,12.66,245.01,24.47c47.51,6.85,94.55,8.06,140.5,22.27  C1130.09,1110.03,1164.26,1127.39,1200,1140.99z" />
<path class="cls-15" d="M92.18,1024.8c3.05,1.91,2.68,9.28-1.15,10.16c2.51,2.37,1.96,3.01-1.47,3l0.62,4.5  c-7.07,15.39-15.47,29.99-25.22,43.79l94.7,14.46l1.19,2.89c0.8-0.55,1.63-1.06,2.51-1.4c4.2-1.62,24.94,3.38,28.35,8.07  c-9.52,6.43-20.08,11.46-31.66,15.1c-34.05,15.01-80.32,35.92-106.91,61.01c-19.79,18.68-34.27,53.51-20.42,79.25l-0.88,3.8  L0,1281.7v-254.46L92.18,1024.8z" />
<path class="cls-6" d="M1200,1303.1v218.32c-10.05-35.72-22.01-72.29-42.79-103.39c-3.8-0.86-7.04-4.35-3.95-7.65l-4.09-3.26  c-33.11-67.92-116.34-69.76-181.68-60.48l-4.42-2.07c-2.25-7.43,3.51-20.7,10.67-23.8c3.62-3.64,8.17-6.34,13.65-8.12  c32.25-18.11,66-32.42,101.27-42.93c13.27,8.99,27.86,15.58,43.76,19.76c17.77,8.59,35.09,17.95,51.94,28.08  c-0.13-5.7,10.45-23.31,15.09-16.36C1199.8,1301.73,1199.93,1302.4,1200,1303.1z" />
<path class="cls-6" d="M1200,990.74v77.78c-60.85,2.73-122.99-10.16-181.07-27.87c-5.01-1.53-8.76-7.39-11.39-9.77  c-3.05-2.77-1.77-9.48-0.69-12.97c-0.42-0.89-0.8-1.78-1-2.72c-0.86-3.99,8.81-24.33,11.77-29.21l4.32-2.89  c6.09-5.82,17.9-5.63,26.25-5.31c16.23,0.63,31.73,6.29,43.46,17.78c30.1-0.7,60.52-1.9,91.26-3.62  C1189.08,989.92,1194.77,989.51,1200,990.74z" />
<path class="cls-16" d="M1122.34,1202.09c1.02-0.72,2.07-1.39,3.19-1.88c9.68-4.24,54.5,3.45,67.23,6.45l5.75,3.88  c0.47,0.1,1-0.08,1.48-0.01v73.68c-0.17,1.03-0.68,2.56-1.33,2.5c-7.33-0.73-35.28-4.41-40.58-6.66  c-38.85-24.54-68.79-18.45-107.64-0.23c-21.29,12-43.34,22.18-66.17,30.56l-4-1.68c-3.97-1.41,0.21-9.76,4.17-9.42  c-4.11-2.68,9.22-20.13,10.48-20.65l3.29-0.87l1.62-5.66c9.24-10.68,18.83-21.03,28.77-31.05l7.75-3.38  c0.17-1.03,0.38-2.03,0.76-2.97c4.23-10.46,43.46-27.44,55.55-30.73c6.1-1.66,22.27-5.75,27.06-3.54  C1120.66,1200.85,1121.51,1201.45,1122.34,1202.09z" />
<path class="cls-4" d="M1200,490.27v229.01c-11.05-14.51-20.68-30.16-28.88-46.97c-8.56-13.79-16.32-27.96-23.27-42.5l3.22-2.52  l27.81,2.29l-43.52-87.5l1.68-2.63l-1.17-2.86c2.39-4.35,4.78-8.74,7.18-13.15c-14.35,1.42-21.38,1.41-13.52-14.84l3.4-1.04  l37.42-77.39L1200,490.27z" />
<path class="cls-12" d="M328.12,1368.95c3.71-3.38,12.49,6.34,7.94,9.19c-42.59,13.84-57.97,49.66-101.78,61.32  c-17.7,0.47-34.61-2.07-52.23-7.88c-56.44-18.6-123.74-43.44-182.05-42.74v-34.82c45.13,3.39,87.13,17.57,130.27,33.22  C235.11,1425.27,236.9,1381.97,328.12,1368.95z" />
<path class="cls-14" d="M1200,112.08v76.85l-176.65-77.91c1.77-7.81,9.99,1.56,15.23,1.54L1200,112.08z" />
<path class="cls-16" d="M1200,951.14v23.83c-5.51,4.3-12.39,6.49-20.67,6.56c-31.05,2.81-62.19,3.6-93.42,2.37  c-14.61-10.47-31.76-14.73-49.54-13.16l-3.49-2.39c-0.3-1.58-0.32-3.21,0.41-4.67c6.5-13.05,37.52-24.42,51.5-27.03  c27.93-5.2,86.59-3.41,111.46,9.95C1198.02,947.54,1199.07,949.42,1200,951.14z" />
<path class="cls-4" d="M52.45,523.65l-2.31,2.6l-16.16-1.17l10.87,18.09l-0.35,4.58C30.75,575.74,17.99,606.19,0,630.8V440.62  c3.14-2.07,2.6-6.24,6.4-9.7L52.45,523.65z" />
<path class="cls-12" d="M1200,1284.21v18.9c-9.42-1.9-11.22,8.39-13.55,18.73l-42.82-24.26c-17.96-10.17-38.79-10.9-55.53-25.48  l-64.97,24.37c-17.63,6.61-31.68,20.06-49.4,24.32c-2.85-4.01,1.15-14.02,6.54-12.09c60.58-15.71,106.27-76.45,176.69-31.55  L1200,1284.21z" />
<path class="cls-12" d="M1200,974.97v15.78c-19.2,6.26-39.36,5.6-60.23,6.06l-49.15,1.09c-20.55-18.65-43.16-20.12-68.68-14.8  c-3.17-4.49,5.96-15.5,10.93-14.76c18.76-1.87,36.87,0.71,53.74,13.06C1124.36,980.96,1163.37,983.91,1200,974.97z" />
<path class="cls-4" d="M0,689.73v-56.25c11.76-1.49,23.25-3.47,36.38-3.76L0,689.73z" />
<path class="cls-4" d="M1200,739.15v37.75l-2.75,0.67l-27.77-44.04c0.76-2.75,1.03-2.98,3.74-4.13c1.22-0.52,22.96,5.71,25.61,6.68  L1200,739.15z" />
<path class="cls-4" d="M0,751.34v-17.41l14.01-2.29C8.89,738.72,5.53,745.93,0,751.34z" />
<path class="cls-12" d="M982.92,99.31L847.77,294.5c-0.19,1.23-0.67,1.3-1.42,0.27l-6.26,4.05c-64.01,14.1-126.87,60.66-127.05,131.54  c-0.4,4.23-2.94,3.69-6.71,2.31c-20.39-11.53-47.13-15.09-67.83-3.68l80.73,47.13l0.03,3.12l4.54-0.41  c8.1,5.36,16.51,10.17,25.21,14.42l2.29,3.83c1.35-2.39,2.42-1.71,1.77,1.06l5.57,1.22c11.96,9.71,25.25,17.58,38.76,24.9l3.23,4.78  l0.5,3.67c-6.64,18.51-14.93,36.45-24.88,53.81c2.06-0.18,4.16,0.15,5.26,2.14c1.1,1.98-11.24,25.14-12.58,25.67  c-2.2,0.86-3.5,1.02-5.41-0.73l-27.22-53.03c-9.85,19.1-19.45,38.55-28.78,58.37c4.42-0.11,8.35,0.64,11.79,2.25  c-0.43,8.51-9.42,21.34-15.29,28.02l-3.32,0.58c-9.12-0.84-20.93-6.62-27.02-13.46c-2.95-0.87-5.28-2.57-6.48-5.42  c-8.3-16.7-16.75-33.16-25.38-49.37l-13.04,28.51l-3.25,0.66l-2.24,1.91c-19.53-9.14-39.08-18.28-58.63-27.43l-1.98-3.89  c-3.57,0.39-3.85-0.22-1.43-2.89c-1.29-1.01-2.5-2.22-2.93-3.83c-3.02-11.1,3.46-42.59,6.83-54.46  c10.31-36.27,30.16-69.77,61.13-91.96L440.46,316.29l-0.02-3.14l-0.21-2.83c50.02-21.6,100.1-43.23,150.22-64.88l6.82-0.03  l334.91-131.46l32.75-11.66C971.17,100.06,976.66,98,982.92,99.31z" />
<path class="cls-10" d="M816.79,542.29c9.16,9.47,22.36,33.39,22.26,46.55c-2.79,4.73-0.81,10.54,5.94,17.42l-0.7,5.5  c0.08,1.38,0.1,2.75-0.05,4.1c-0.15,1.33-0.31,2.61-0.83,3.71c-6.93,14.47-14.05,28.85-21.55,43.03l18.49-1.29  c4.97,1.61,6.59,2.71,3,7.97c-15.29,26.28-29.71,53.01-43.27,80.21l22.94-5.85c2.22,0.72,2.91,2.51,2.77,4.82l-53.73,89.77  l30.61-6.71c3.64,1.46,5.33,2.35,2.9,6.33c-12.6,17.5-24.5,35.43-35.72,53.8l-5.35,4.19c-0.07,1.14-0.47,1.14-1.15,0.12l-3.24,2.53  c-6.62-0.79-13.15-1.29-19.57-1.49c1.64,4.88,5.63,8.64,11.96,11.29l0.24,3.62l1.71,2.38l-6.42,11.04c3.93-1.4,7.52-3.36,10.78-5.89  l3.13,0.66c0.97-2.46,2.17-2.38,2.83,0.17c3.18-0.89,9.39,4.72,7.91,7.96c3.55-0.34,3.47,1.03,0.12,2.28l1.11,2.73l-55.02,58.43  c-4.94,1.61-18.17-9.97-20.32-14.19c-3.82-7.51,7.54-7.39,12.44-3.92l-31-70.26c0.05-2.25,1.47-3.46,3.6-4.07l31.78,3.05  l-43.25-80.4l-0.06-3.65c5.46-2.48,11.69-3.03,18.71-1.65c-9.34-24.14-19.26-48.24-29.77-72.29l1.85-2.51  c0.05-2.6,2.29-4.54,6.71-5.81l-0.82-2.17l-18.28-9.31c-30.01-18.11-29-41.56-19.9-73.64c-3.06-1.11-5.04-2.57-5.92-4.38  l-11.22-1.94l-1.46-3.14c-1.19-0.14-1.17-0.55-0.07-1.19l-1.72-3.66c3.3-8.39,7.2-16.51,11.7-24.35l3.67-1.48l16.51-36.08  c11.28,20.16,19.11,42.48,31.64,61.69c6.85,6.06,7.23,15.09-5.03,11.96c4.29,10.82,9.29,21.33,15.01,31.53  c4.19-8.74,8.35-17.62,12.46-26.64l4.59-3.39c4.23-8.89,13.5-16.56,16.92-27.68l-14.58-0.09l32.92-67.96l30.49,59.41l13.34-23.87  c-3.22-1.24-5.49,0.81-7.53-1.17c10.42-20.42,20.8-39.28,28.36-59.39c-3.76-3.99,2.54-12.64,8.2-8.97  c0.91,0.59,8.78,17.27,9.53,19.35L816.79,542.29z" />
<path class="cls-9" d="M662.86,741.79l32.69,77.53c-7.93,0.23-14.85-1.4-21.82-0.13l46.39,86.24l-37.97-3.65l33.59,75.66  c-6.62-0.26-10.56-5.53-16.42-2.97c6.24,6.56,11.56,11.83,17.71,15.76l55.75-59.73l4.2,0.07c3.75,2.31,8.93,10.18,11.32,14.23  c3.64,6.2,9.8,17.44,6.21,23.67c-0.34,3.18-2.4,6.18-6.16,9c3.61-1,5.52-0.08,5.73,2.75c5.05,3.88,0.37,13.73-2.46,18.65  c-7.37,12.84-28.03,26.46-42.58,27.96c-2.52-2.21,1.39-4.56,0.94-8.07l-167.32,0.66c-7.14-1.38-13.49-5.79-18.19-11.33  c-2.85-3.37-8.34-9.99-3.73-13.12l-0.45-3.08c18.52-17.14,48.01-64.18,5.92-71.74l-13.16-7.09c-3.1,2.59-4.36,1.24-2.85-2.47  l-10.7-11.99c-3.45,2.17-6.88-5.82-3.62-7.99c-1.1-4.41,0.06-6.18,3.92-8.35c28.73-10.84,57.89-22.17,76.02-48.93  c16.55-24.42,12.29-51.18,6.91-78.01l2.69-1.56c-1.15-0.35-1.09-0.73,0.1-1.13l3.62-3.84c5.3-2.22,27.38-9.45,31.08-8.27  C661.14,740.81,662.01,741.27,662.86,741.79z" />
<path class="cls-9" d="M895.81,590.86c7.51,7.72,14.59,20.61,18.97,30.69l0.06,5l3.43,0.41c3.82,10.18,8.58,19.61,14.27,28.29  l-0.34,3.29c1.14,3.82-10.64,16.75-13.3,17.88c-1.28,0.54-2.69,0.29-3.97-0.11c-0.51,1.96-1.11,4.06-2.59,5.51  c-9.8,9.62-28.12,20.95-40.35,27.88c-16.31,9.24-33.62,16.65-51.91,21.02c32.53,34.16,67.14,82.82,41.33,131.42  c-12.18,22.93-36.93,39.93-63.41,37.41c-6.75,1.73-26.67,2.33-31.45-1.53c-0.77-0.62-1.43-1.38-2.05-2.19  c11.27-21.27,26.2-40.53,40.65-62.12l-38.73,8.49l57.71-96.19l-29.27,7.59c15.58-31.63,31.59-60.19,48.61-89.88  c-8.7,0.68-16.73,2.07-26.33,1.36c10.21-17.52,18.29-35.71,27.14-53.32c1.74-12.38,9.41-26.46,16.24-37.38  c1.39-2.23,3.73-3.67,5.93-5.01c-0.82-0.64-2-1.64-1.73-2.34c1.86-4.82,9.4-19.08,14.26-12.69l17.1,31.44L895.81,590.86z" />
<path class="cls-4" d="M965.29,511.92c16.55,19.95,24.54,47.48,40.32,71.35c-8.54,0.95-14.4-2-21.37-0.04  c5.97,8.37,10.59,16.78,16.95,23.31c1.92,0.2,3.29,1.74,4.11,4.61c4.34,2.61,6.46,5.48,8.48,10.13c4.72,10.88,1.13,11.7-8.95,11.71  c-5.18,2.64,23.67,35.48,26.57,38.3c-0.66,2.49-0.98,3.73-0.98,3.73c-6.57,1.39-13.7,1.52-21.38,0.39  c4.66,9.56,10.75,18.52,18.27,26.89l0.15,4.63l1.93,2.22l-13.01,28.51c2.86-0.48,5.16,0.12,6.89,1.8c3.34,3.98,6.67,8.16,9.99,12.55  c0.47,1.37,0.3,2.95-0.52,4.74l1.68,2.43l-52.8,90.24l24.33-6.47l2.58,2.07c5.91,5.8,12.25,13.5-0.72,14.76  c-6.69,3.91-12.54,9.32-17.54,16.23c-3.33,4.2-6.55,5.53-9.65,4.01l-3.34-1.49c-12.91-17.08-25.71-34.38-38.41-51.9  c-2.41-3.29-1.26-4.67,1.49-6.63l35.85,8.83l-52.73-84.17c-0.56-5.25,3.23-6.54,11.36-3.86l14.59,3.85L913.35,679l1.58-2.69  c6.25-5.06,11.49-12.22,17.27-17.77l1.3-5.02c30.62-28.68,66.67-91.29,14.06-115.55l-1.72-3.44c-0.84,0.91-2.42,1.61-2.94,0.86  c-5.3-7.67,13.91-20.99,19.54-24.89L965.29,511.92z" />
<path class="cls-5" d="M1082.07,503.66c1-0.22,2.56-0.52,2.93,0.13c3.33,5.85,8.07,18.59,7,24.96l1.96,2.05l-50.76,98.97  c9.36-0.52,18.93-1.36,28.7-2.51c2.11,0.88,2.7,2.67,2.43,4.93l-43.77,74.73l-3.12,0.02c-7.43-10.02-16.35-19.84-22.85-32.26  c8.37-5.92,15.31,1.76,25.19-1.87c-4.76-4.6-48.18-49.81-16.27-42.14c-4.15-21.92-11.24-11.54-12.33-24.14  c8.57-17.73,19.26-34.41,29.81-51.55l-20.6,0.73l40.37-84.46l15.15,30.62l7.79-14.49C1076.05,493.83,1079.25,499.14,1082.07,503.66z  " />
<path class="cls-1" d="M964.09,1003.31c-0.12,1.15-0.56,2.53-1.56,2.67c-16.28,0.95-32.97,3.42-48.61,8.44  c-8.21,2.64-13.63,5.71-19.5,11.61c0.03,2.11-1.12,4.22-3.44,6.32c-1.78,6.13-4.61,9.39-8.48,9.8l-92.32-10.69l1.69-3.01  c15.71-3.84,46.68-13.17,52.26-29.76c-0.26-3.03,0.53-5.13,2.36-6.31c0.61-0.92,1.27-1.8,2.05-2.54  c10.94-10.42,74.44-10.08,89.77-1.13l3.12-3c1.27-3.33,3.1-5.08,5.51-5.24c4.69-0.18,8.76,2.71,12.23,8.67  C963.97,994.15,965.61,998.87,964.09,1003.31z" />
<path class="cls-16" d="M934.85,959.03c3.36,6.9-10.01,10.15-15.63,11.03c-3.46,0.54-6.97,0.66-10.46,0.76  c-16.92-1.29-33.53-0.67-49.82,1.87c-17.03,7.49-35.12,13.08-52.99,4.56c-4.87-0.83-8.35,0.05-10.43,2.62  c-0.26,1.22-0.74,1.34-1.44,0.34c-4.97-0.97-8.41,0.93-13.15,0.87c4.44-4.43,8.47-9.53,13.59-12.63c-0.04-1.42,0.37-2.68,1.2-3.82  c2.29-3.14,27.02-12.7,32.48-14.58c26-8.95,61.74-16.34,88.22-6.79C923.06,945.67,935.84,951.42,934.85,959.03z" />
<path class="cls-12" d="M946.94,980.49c-1.13,4.24-3.76,7.72-5.83,9.59c-4.06,3.66-7.32-1.36-11.4-2.15  c-27.83-5.4-56.82-4.35-83.22,4.47l-2.81,2.73c-12.79-0.51-25.01-3.89-36.66-10.14l-9.61-2.23l-1.87-2.88  c-0.82-3.16,0.79-6.22,3.44-5.22c2.43,0.91,6.52-0.74,8.73,0.28c16.38,7.55,31.35,3.26,46.53-3.38  c23.49-10.26,70.13,5.2,80.63-12.53c3.76-1.96,10.9,7.51,12.57,10.93C949.1,973.38,951.96,979.45,946.94,980.49z" />
<path class="cls-16" d="M964.09,1003.31c1.4-5.01,9.11-0.45,12.19,1.75c3.44,2.46,9.05,7.17,5.55,11.12c-0.94-0.11-2.01,0.5-2.94,0.33  c-1.52,1.39-3.79,2.02-6.8,1.89c-11.76,4.21-23.57,8.3-35.43,12.26c-12.65,1.33-25.23,0.99-37.74-1.01c-2.91,3.19-6.1,0.32-4.5-3.61  C892.6,1011.08,950.86,1002.98,964.09,1003.31z" />
<path class="cls-5" d="M980.61,880.02c15.6-9.06,16-23.56,33.58-23.97c-3.45-3.85-6.59-6.86-5.67-11.03  c0.41-4.02,11.41-8.22,15.45-9.04c4.87-0.98,12.83-2.43,8.91,5.14c-13.49,17.58-26.29,35.67-38.4,54.28  c-5.63,7.65-14.01-7.74-15.35-12.79L980.61,880.02z" />
<path class="cls-7" d="M1132.93,507.57c-1.96,4.04-3.19,8.69-5.48,13.76l20.67-0.76l-11.08,18.88l-4.19-0.86  c-5.77-6.12-13.98-22.62-16.82-30.81l1.09-4.2C1122.46,501.54,1128,505.21,1132.93,507.57z" />
<path class="cls-7" d="M1105.32,502.25c2.75,2.4,2.5,6.04-0.75,10.92l-9.3,15.19l-3.26,0.4l-9.93-25.09  C1089.58,501.77,1098.31,498.52,1105.32,502.25z" />
<path class="cls-5" d="M1032.73,756.76c-2.35-6.63-10.4-9.93-9.47-17.29c0.33-5.61,18.47-10.45,23.06-10.16  c5.4,0.34,5.67,0.52,4.54,5.91c-0.48,2.32-12,18.08-14.48,20.73L1032.73,756.76z" />
<path class="cls-4" d="M943.32,892.25c15.02,7.03,34.31,11.24,31.28,22.49c-0.69,2.57-6.81,4.54-9.12,1.99L943.32,892.25z" />
<path class="cls-4" d="M763.34,895.96c3.67,1.54-6.52,15.48-7.37,15.9c-1.03,0.51-2.18,0.35-3.25,0.05  c-6.11-5.53-17.01-7.18-14.5-18.28C746.54,893.22,755.2,896.86,763.34,895.96z" />
<path class="cls-4" d="M772.67,928.22c-3.06-2.13-6.26-4.56-7.91-7.96l0.87-4.24c5.1-4.02,27.73-18.14,32.45-15.97  c0.65,0.3,1.01,2.53,1.16,3.75c0.21,1.69-20.4,22.19-23.28,24.84L772.67,928.22z" />
<path class="cls-4" d="M1003.12,956.49c-3.89-2.81-6.5-4.61-10.21-9c9.86-4.61,17.75-11.46,28.1-13.91L1003.12,956.49z" />
<path class="cls-8" d="M761.92,920.09c-5.36,5.9-13.66,7.13-20.9,11.7l11.7-19.89C755.93,909.15,765.36,916.61,761.92,920.09z" />
<path class="cls-11" d="M965.29,511.92c-4.45,2.31-26.42,18.9-19.45,22.61l1.72,2.58c-7.68,14.95-14.73,29.84-21.15,44.69  c6.51-1.12,12.24-0.55,17.19,1.71c0.11,3.13-1.02,6.1-3.41,8.89c-2.75,4.95-8.35,13.65-13.55,14.7l-2.61,1.65  c-8.16-2.55-22.41-11.67-28.21-17.89c-6.48-12.06-13.67-23.21-20.09-37.32l-9.26,15.84c-0.51,0.9-1.41,2.16-2.08,1.92  c-6.92-2.46-36.2-18.45-41.8-22.79l-5.79-6.21l-10.89-22.1c-2.52,3.54-4.18,5.92-5.27,8.85c-16.48-8.8-33.64-18.62-47.56-30.89  c-0.96-1.65,0.09-5.14,0.78-4.7c0.72,0.46-0.98,3.33-2.55,3.63c-11.31-4.27-21.49-11.68-32.04-17.84  c-3.39-2.67,3.89-13.09,7.81-11.84l2.56-1.68l12.9,6.51l-3.57-7.31c-2.84-2.81-4.01-5.55-3.51-8.23l-1.68-2.28  c35.7-52.15,71.45-104.34,107.24-156.55l5.34-3.09l1.42-0.27c69.02-13.29,141.26,44.92,156.53,117.63  C1012.26,450.04,998.28,494.78,965.29,511.92z" />
<path class="cls-15" d="M597.26,245.42l-156.82,67.73c-5.94,1.85-11.96,3.58-18.15,4.33c-30.54,3.72-61.15,7.4-91.71,10.99  c-6.2,0.73-12.46,0.45-18.67,0.04L175.65,244.2c10.46,5.73,20.62-0.47,31.65-0.05c29.21,1.1,55.97-3.16,84.49-3.16l155.92-0.01  l136.39,1.68C589.16,242.72,593.64,242.77,597.26,245.42z" />
<path class="cls-4" d="M202.51,553.21c3.58-0.24,3.83,0.3,1.07,2.57l0.4,2.2c-3.33,3.21-8.64,3.95-15.91,2.21  c9.13,14.96,17.61,30.13,25.43,45.51l-0.84,2.33c3.28,1.89,2.41,3.68-1.36,2.96l-1.31,2.6l-11.41-0.74  c3.76,6.31,7.78,12.21,12.05,17.68l0.44,5.47c1.03-0.33,2.58-0.81,3.09-0.17c1.77,2.22,14.05,20.69,14.4,22.09  c1.6,6.3-2.39,6.42-7.57,6.48c-5.24-0.46-10.41-1.37-15.51-2.74l40.11,70.45c0.22,5.51-3.88,6.78-12.32,3.81l-15.8-5.07  c4.92,9.5,10.35,18.71,16.29,27.63c0.3,4.6,0.51,4.79,0.61,0.56c11.54-20.07,23.77-39.67,36.71-58.81l-20.9,2.66  c-2.12-0.91-2.67-2.74-2.35-5.02l37.87-55.63l-20.59,1.04c-2.26-1.63-2.28-2.21-2.35-4.91c-0.06-2.1,17.96-32.4,20.67-36.58  l3.29-0.37c-0.83-0.62-2.05-1.65-1.77-2.34c4.07-9.86,12.44-23.69,20.16-30.81c-0.77-0.75-1.92-1.89-1.6-2.64  c1.06-2.44,10.95-21.13,12.09-21.6c2.18-0.9,3.48-1.09,5.43,0.62l51.62,92.57c0.48,3.49,0.24,4.97-3.58,5.51l-18.38-0.82  l29.45,42.06c0.42,1.27,0.35,2.72-0.22,4.36c0.61-0.24,1.22-0.42,1.83-0.41c0.82,0.01,9.3,12.38,2.18,12.43  c-8.25-1.34-12.65,0.34-13.21,5.02l32.2,42.72c0.88,3.75,1.05,5.49-3.37,5.77c-8.4-1.54-16.8-2.45-25.22-2.71l26.78,40.99l1.74,7.55  c3.91-0.16,3.92,4.26,0.2,5.27c2,3.93,3.8,13.81-0.15,16.15l-2.06,2.28l-12.37-2.46l27.8,40.11l-1.3,2.82  c-1.84,4.92-9.6,1.76-13.3-0.32c-5.54-3.11-9.46-8.33-11.83-14.13c-13.41,1.31-27.73,11.22-37.56,20.93  c-31.39,30.99-45.83,97.02,2.79,118.42c-2.27,7.12-5.21,14.08-8.81,20.89c-0.56,4.9-2.09,8.58-4.58,11.04l-56.51,0.45  c-28.55-30.87-66.61-46.7-101.7-67.36c-0.49-1.76-0.04-3.59,1.36-5.51c-1.51-2.66-1.98-5.03-1.4-7.09l60.38,30.8  c-17.08-23.81-30.25-49.87-46.67-73.44l0.19-3.84c7.09-8.94,13.73-18.24,19.92-27.92l-7.29-9.59l0.43-3.02  c-5.05-9.95-10.07-20.96-16.1-30.49c0.21-3.44,3.07-4.69,8.58-3.76l10.71,1.13c-15.95-19.54-31.28-39.56-46-60.04  c-2.92-3.79-1.62-5.19,1.51-7.42l27.49-1.13c-13.93-13.58-26.36-28.3-37.32-44.16c-0.59-1.37-2.41-3.57-2.64-5.17  c1.28-3.4,4.75-4.44,10.41-3.14l18.16,2.69c-15.39-25.01-23.09-37.51-23.09-37.51c3.49-4.01,8.53-4.75,15.12-2.21  c-13.33-23.28-26.36-46.69-39.1-70.24c1.1-2.06,2.53-3.22,4.29-3.46l15.44-0.1l-26.12-55.2l1.74-2.58l27.63-59.61  C175.67,500.43,187.66,527.39,202.51,553.21z" />
<path class="cls-11" d="M440.44,313.15L631.87,428.4c-47.63,28.04-74.77,98.95-70.6,150.02c-3.14,4.76-15.87-4.58-19.25-7.77  l-0.13-3.14L311.91,328.52C354.55,322.05,397.48,316.82,440.44,313.15z" />
<path class="cls-7" d="M541.89,567.51c6.29,3.26,11.82,9.56,19.38,10.91c0.4,0.98,1.14,1.87,1.43,2.89c1.96,1.47,2.53,2.22-0.01,2.75  l-0.59,7.27c-10.8,21.95-21.59,43.88-32.38,65.82l-3.11,0.26c-1.05,0.48-2.23,1-3.29,0.67c-2.2-0.69-14.66-23.52-14.24-25.2  c0.98-3.99,8.23-3.21,11.61-2.6l-29.66-61.88c0,0-9.71,20.83-29.12,62.49c8.54-2.26,12.03-0.43,10.47,5.51  c-14.74,27.62-22.1,41.43-22.1,41.43c-6.8,9.19-14.14-9.73-15.4-16.25c2.48-2.03,5.7-2.92,9.67-2.65l-30.02-63.03l-29.6,63.65  c7.51-2,11.32-0.48,11.45,4.57l-13.17,23.84l-3.26,0.37l-34.07-48.65c8.95-2.07,16.38,1.06,25.24,0.26l-53.02-95.06l-12.97,23.4  c-6.01,7.02-17.35,15.07-14.75-0.33l-2.75-11.1c-2.62-38.25-8.14-76.05-16.58-113.41l-0.25-6.43c-0.53-4.59,0.77-7.32,3.9-8.19  L541.89,567.51z" />
<path class="cls-8" d="M274.68,428.79c-3.12,10.78,0.35,22.62,2.7,34.61c6.09,31.08,12.43,60.53,12.82,92.15  c0.07,5.74,5.71,13.04,1.13,19.49l13.78-6.78l-18.39,33.15c-3.22,2.02-6.17,0.1-8.87-5.74l-7.81-14.87  c0.55-4.72,4.5-6.16,11.86-4.34c-9.9-21.75-20.23-43.42-31.01-65.01c-10.79,21.6-20.7,43.21-29.74,64.83  c8.48-0.97,10.71-0.32,7.72,8.25c-1.03,2.96-5.53,10.42-8.96,9c-3.77,5.62-6.14,1.58-8.72-2.97c-2.22-10.99-5.25-21.68-9.09-32.07  l1.49-2.71c-0.5-0.78-0.61-1.78-1.07-2.57c-5.5-30.81-13.77-61.53-17.49-93.67l-8.29-71.76c-0.22-1.92-4.65-5.39-2.43-6.77  C183.21,375.5,259.9,421.11,274.68,428.79z" />
<path class="cls-5" d="M133.49,531.35l28.52,60.27c-9.07,1.78-14.73-1.82-22,1.11c15.03,24.55,28.16,48.15,41.35,72.66  c-6.98,1.47-11.38-3.32-17.33-0.16c9.55,13.65,18.77,26.38,26.79,40.06c-12.58,1.01-23.5-4.87-34.19-2.19l-42.89-72.57l33.92,1.79  L91.79,526.13l18.9-39.98C116.85,502.84,126.56,516.7,133.49,531.35z" />
<path class="cls-8" d="M52.45,523.65c1.33,0.77,2.5,1.76,3.67,2.76c-3.77,7.31-8.24,14.49-11.61,21.35l-15.13-24.87  C37.33,521.43,44.89,523.56,52.45,523.65z" />
<path class="cls-6" d="M230.69,1022.11c3.95,5.3,6.5,11.72,10,17.26l0.15,4.54c-12.04,19.2-30.32,28.45-51.13,34.25  c-11.4,4.16-19.47,13.23-25.06,23.93l-3.81,1.52l-101.63-15.52c14.61-15.58,21.14-33.41,30.34-50.12c2.4-0.69,4.72,0.2,6.95,2.68  c35.3,15.45,75.58-4.23,106-23.67c6.32-1.58,11.61-4.48,15.89-8.7C224.28,1010.4,226.92,1017.06,230.69,1022.11z" />
<path class="cls-16" d="M206.25,995.25l-1.52,4.71c-28.86,23.86-71.25,47.06-109.87,38.47c-0.71-0.16-1.36-0.68-2.01-1.28  c-0.7-0.63-1.28-1.4-1.83-2.2c0.48-2.92-0.38-7.43,1.15-10.16C113.65,986.6,168.81,972.86,206.25,995.25z" />
<path class="cls-5" d="M194.29,823.66l-58.26-92.02l39.34,8.96l-16.1-32.31l43.31,46.67l-34.93,1.35  c16.13,24.26,34.04,44.79,51.37,67.04C209.48,825,201.73,820.45,194.29,823.66z" />
<path class="cls-12" d="M218.39,1008.27c-0.01,8.91-9.49,7.81-15.59,11.6c-25.2,15.65-50.73,29.34-80.82,28.75  c-12.4-0.25-24.74-1.26-32.43-10.66c0.53-0.95,0.57-2.23,1.47-3c43.77,9.54,82.86-12.8,115.23-39.71  C211.42,998.34,217.1,1002.26,218.39,1008.27z" />
<path class="cls-5" d="M210.39,854.15c4.06,2.69,6.53,7.7,10.12,12.65c-8.71,10.74-13.67,23.25-23.36,31.72l-43.22-62.02  C173.21,843.55,191.97,849.07,210.39,854.15z" />
<path class="cls-5" d="M183.44,941.16c1.98,1.14,3.79,4.48,4.02,6.4c0.33,2.7-1.78,4.98-3.98,6.2c-9.02-5.31-14.61-13.66-23.02-23.9  C169.17,932.13,176.15,936.95,183.44,941.16z" />
<path class="cls-16" d="M1153.26,1410.39l-5.15,0.95c-53.32-16.59-109.45,3.94-159.09,23.98c-41.84,21.31-78.01,31.48-125.13,31.96  c-46.41,0.47-106.3-3.42-149.49-20.49c-0.72-0.28-1.29-0.97-1.87-1.72c-0.6-0.77-1.06-1.65-1.48-2.56c0.51-5,5.3-8.99,6.66-13.53  l1.88-5.17c14.36-14.72,38.28-30.13,58.64-33.35l5.66-3.79c55.56-20.16,113.75-35.28,172.39-42.87l6.78,0.78  C1032.31,1334.41,1121.37,1335.44,1153.26,1410.39z" />
<path class="cls-3" d="M778.23,1390.46c-23.05,7.83-42.51,22.77-60.52,38.53c-80.81,1.41-161.11-4.49-242.27-11.76  c-38.92-3.48-76.78-5.32-114.05-13.26c-6.59-5.87-13.97-10.77-21.77-15.89l-3.57-9.94c-1.29-3.93-4.66-6.79-7.94-9.19l-1.52-4.01  l1.31-2.52c68.78,10.36,138.13,20.07,208.06,29.12c76.93,4.92,153.88,3.9,230.87-3.06C766.84,1388.48,770.64,1389.14,778.23,1390.46  z" />
<path class="cls-12" d="M1153.26,1410.39c0.9,2.12,3.45,5.35,3.95,7.65c-51.21-1.81-111.53,23.39-158.06,43.12  c-48.42,20.54-96.16,32.69-150.05,27.07c-32.16-3.36-63.36-5.84-94.69-12.82c-19.28-4.3-35.54-14.97-44.54-31.5  c0.36-0.49,0.77-0.94,1.18-1.39c45.19,19.5,122.91,23.63,172.69,21.65c26.95-1.07,50.21-7.45,74.49-18.34  C1014.22,1420.7,1093.85,1386.95,1153.26,1410.39z" />
<path class="cls-7" d="M414.97,863.85c1.55-1.96,2.35-1.36,1.63,1.13l4.07,1.45l25.5,40.56c0.8,7.09-4.4,5.4-9.49,3.01  c-11.51-6.05-23.19-11.66-35.05-16.81c20.06,22.45,40.5,44.57,61.32,66.36c13.92,14.91,26.73,30.72,38.77,47.17  c0.7,0.95,1.02,2.2,1.35,3.5c0.33,1.3,0.47,2.65,0.56,4.01c0.73,2.87-1.61,4.67-4.11,5.6l-157.82,0.83  c-0.38-11.06,5.96-20.14,11.49-31.07c-18.76-6.78-29.11-21.32-31.39-40.69c-5.31-45.13,23.68-92.19,69.39-103.76  C394.93,857.5,403.74,864.51,414.97,863.85z" />
<path class="cls-3" d="M354.58,1067.85c0.1,3.94-1.68,8.01-5.33,12.21c-1.3,4.73-3.46,8.05-6.47,9.97l-2.09,2.91  c-34.69,4.18-70.14,9.34-103.77,19.73c-11.17,3.45-36.87,12.38-43.76,21.56c-1.1,5.83-1.58,11.77-1.45,17.82l-2.92,2.51l-1.15,3.4  c-36.92,16.99-96.08,46.02-94.15,93.38c1.28,3.62,1.01,6.63-0.8,9.04c-20.49-0.81-40.75,6.4-60.83,9.06  c-20.34-32.51,5.16-76.7,29.72-93.63c40.37-27.82,84.64-49.43,130.14-65.54l0.28-2.94c22.74-8.05,45.5-16.1,68.26-24.16l2.41,1.99  C292.4,1074.62,323.22,1070.07,354.58,1067.85z" />
<path class="cls-9" d="M707.35,1051.78c0.43,3.26-1.75,6.08-1.63,10.24c11.79,5.45,21.76,13.46,27.88,24.13l-6.27,1.18l-22.82-3.81  c-38.11-1.93-76.25-0.89-114.42,3.11c0,0-2.05-0.8-6.14-2.39l-2.78-1.54l1.85-11.85l-36.02,1.54l-2.07-2.59  c-3.86-5.14,5.1-14.89,10.65-16.65C605.96,1049.05,656.76,1051.66,707.35,1051.78z" />
<path class="cls-1" d="M262.65,1085.15l-70.94,25.11c-9.84-2.24-20.62-5.1-30.86-6.66c22.99-45.76,47.31-15.16,79.85-64.23  C249.77,1053.7,256.6,1069.29,262.65,1085.15z" />
<path class="cls-7" d="M502.53,1057.4c6.07,2.69-1.25,13.92-6.77,15.07c2.54,3.15-4.08,7-6.65,4.1c-2.9,1.31-5.91,2.59-9.12,2.85  c-42.61,2.43-85.09,6.52-127.44,12.27c0,0-3.26-0.55-9.78-1.66c1.62-8.38,6.27-15.75,11.8-22.17L502.53,1057.4z" />
<path class="cls-3" d="M846.48,992.4c6.62,21.44-43.2,37.18-56.31,39.07c-13.53-1.57-27.98-0.33-41.14-4.64  c19.46-10.2,44.62-20.65,45.04-46.61c0.18,0.02,0.61-0.24,1.44-0.34C816.26,981.57,819.88,993.33,846.48,992.4z" />
<path class="cls-3" d="M894.41,1026.04c1.35,1.34,2.7,2.87,4.5,3.61c16.22,3.44,29.42,2.3,45.32-0.83c1.44-0.28,2.73-0.01,3.93,0.95  c3.66-1.2,4.33,0.02,4.91,3.5c0.76,4.51-4.27,19.75-6.23,24.58l-2.77,1.38c-6.75,0.02-82.13,6.13-61.58-17.06  C887.18,1036.88,887.6,1028.09,894.41,1026.04z" />
<path class="cls-1" d="M944.07,1059.22c-0.29-6.87,11.25-25.14,4.09-29.46c0.06-0.78,0.19-1.54,0.52-2.18  c1.52-2.92,25.65-10.96,29.97-9.64c0.6,0.18,1.09,0.73,1.55,1.38c11.59,3.6,15.08,23.14,14.53,35.41  C977.48,1060.22,960.72,1059.19,944.07,1059.22z" />
<path class="cls-3" d="M555.59,1053.11c-3.56,5.58-8.58,10.32-10.65,16.65c-0.01,1.22-0.39,1.3-1.13,0.3l-3.69,2.37  c-13.58,0.44-27.16,1.35-40.73,2.73l-3.62-2.7c2.35-5.13,7.54-9.24,6.77-15.07L555.59,1053.11z" />
<path class="cls-5" d="M559.49,994.58c0.71-1,1.12-0.86,1.26,0.39c1.84,11.63,13.07,17.38,21.92,24.45l-62.91-0.05  c-2.19-2.7-0.36-5.45,5.49-8.27c4.49-4.66,10.37-8.09,17.62-10.31C548.3,996.99,553.84,994.92,559.49,994.58z" />
<path class="cls-12" d="M978.88,1016.52c0.35,0.98,0.79,1.92,1.33,2.81c-11.19,0.58-22.1,6.1-32.05,10.44  c-15.45,6.75-33.94,6.19-49.25-0.11l36.48-1.58C950.56,1027.41,963.88,1013.75,978.88,1016.52z" />
<path class="cls-4" d="M525.24,1011.1c-0.95,3.32-3.94,5.3-5.49,8.27l-20.23,0.47c-0.78-2.32,1.65-5.16,4.11-5.6l1.72-2.97l17.16-2.1  L525.24,1011.1z" />
<path class="cls-7" d="M1198.52,1210.54c-25.06-5.22-50.44-9.39-76.18-8.45c-0.04-5.06-0.06-7.59-0.06-7.59  c-10.21-14.78-80.49-20.94-94.64-21.98c-57.15-4.24-110.11-4.86-167.13,1.53c-3.01,0.34-5.4,2.66-7.27,4.76  c-3.72,4.18,11.66,8.1,14.64,8.47c22.39,2.64,44.5,6.01,66.34,10.1c4.1,2.82,3.83,3.69,1.63,7.89c-4.32,8.25-39.3,11.48-48.48,12.28  c-54.31,2.53-109.44,3.48-165.4,2.84c-38.75-0.11-77.94,2.74-116.05,5.62c-4.66,0.35-11.49,1.43-15.26,4.18  c-1.22,0.89,20.35,3.91,22.65,4.02c136.11,6.42,274.16,11.23,410.09,1.63c0,0,4.32,0.61,12.95,1.83  c-14.17,12.09-25.44,26.74-38.14,40.09l-6.23,1.33c-66.77-2.02-134.1-0.98-200.68,3.31c-8.99,0.58-24.18,5.57-7.11,6.5  c60.14,3.09,120.82,5.26,182.04,6.5c6.33-0.07,12.43,1.27,18.2,3.88l-4.17,9.42c-4.19,3.01-4.19,8.26-6.54,12.09  c-4.53,7.39-7.94,15.45-10.67,23.8c-62.89,9.24-124.72,25.46-184.84,45.88c-91.57,5.61-184.67,12.98-276.18-0.22l-175.44-25.3  c-23.29-22.15-48.36-41.84-77.22-56.46l3.75-3.1c125.85,5.19,257.08,0.67,384.05-5.8c2.53-0.13,16.87-2.88,15.7-4.62  c-1.19-1.79-11.52-4.36-14.26-4.69c-19.52-2.3-40.08-4.29-60.24-5.29c-71.3-3.53-144.06-2.08-214.22,0.3  c-13.5,0.22-61.9-1.29-70.52-9.93c-7.67-7.69-3.76-10.33,4.66-13.34c22.7-2.93,45.3-6.1,67.82-9.52c5.54-2.01,5.41-4.95,0.36-5.42  c-62.89-5.75-112.91-5.12-175.1,6.08c-9.09,1.64-21.27,7.5-23.74,16.94l-2.92,1.18c-22.79-7.81-48.17-9.96-72.05-10.9  c-15.77-50.67,58.95-90.26,96.1-105.82c0.72-1.04,1.48-2.05,2.36-2.93c0.86-0.85,1.71-1.65,2.71-2.11  c42.54-19.43,99.65-41.23,146.38-43c1.08-0.04,2.18,0.33,3.31,0.74c1.16,0.42,2.26,1.03,3.33,1.69c0.39-1.18,0.88-1.17,1.46-0.03  c9.68,3.93,19.24,7.78,29.7,9.65c0.73,0.39,1.38,0.84,1.75,1.45c5.48,9.27-22.87,21.09-29.43,22.47c-6.88,3.77-5.88,6.16,0.83,9.6  l133.88-1.31c4.59-1.37,4.23-3.64-1.08-6.83c-0.82-2.36,0.4-3.91,2.52-5.13l75.76,2.39l1.53,2.73c1.02,0.5,1.58,1.25,1.57,2.32  c-16.04,16.4-19.62,31.58,6.98,36.64c27.79,1.85,55.63,4.08,83.51,6.69c13.41,0.78,64.43,3.37,70.01-11.34  c2.05-5.39-2.09-9.35-6.1-12.26l-13.49-8.16c-1.58-2.54-1.82-3.76,0.27-5.99c1.51-1.61,18.15-11.08,21.49-12.71l4.27,0.17l3.51-2.78  c53.64-1.02,107.29-2.85,160.95-5.5c13.99-1.69,16.86-3.25,8.61-4.66c-53.78-2.83-107.75-5.03-161.91-6.59l-1.54-2.74l-2.31-2.52  c0.11-8.57-1.9-16.87-6.04-24.91l1.68-3.02c22.42,6.09,239.77,2.9,396.07,76.03C1157.17,1174.72,1182.21,1188.45,1198.52,1210.54z" />
<path class="cls-10" d="M249.38,1308.48c-27.39-13.87-55.58-27.23-84.65-37.2c1.45-11.89,14.77-18.3,28.06-21.19  c56.57-12.33,116.59-11.57,174.12-5.65c3.17,0.33,6.4,3.95,6.41,5.85c0.06,11.66-85.14,8.31-81.03,19.46  c5.06,13.71,73.44,13.21,88.32,12.65c83.56-3.16,166.09-4.66,249.19,4.09c10.18,1.07,19.9,2.11,28.44,8.92  c-8.79,6.36-19.42,6.92-30.47,7.52c-107.09,5.77-213.48,7.8-320.82,7.36C286.61,1310.2,267.94,1306.02,249.38,1308.48z" />
<path class="cls-11" d="M733.6,1086.14l1.67,0.45c3.83,9.77,8.84,19.68,6.67,30.45c2.38,2.78,2.06,6.59-0.95,11.44  c-1.55,5.67-4.44,9.28-8.67,10.82c-7.47,5.82-17.27,10.65-25.64,15.44c8.12,6.64,21.66,9.55,22.29,20.22  c1.67,28.27-99.53,15.33-116.85,13.03c-12.02-1.59-54.71,2.82-60.9-14.95c-2.24-6.43-0.84-12.33,3.2-17.38l9.38-11.74  c-1.14-2.13-0.39-4.16,2.26-6.12c-14.71-5.29-30.14-24.3-29.94-40.18c0.03-2.06,0.13-3.4,2.29-4.68c-3.86-0.85-3.28-4.04,0.11-5.57  c-1.88-2.19-1.13-2.92,1.33-1.31c0.14-0.99,0.41-2.64,1.09-2.73c6.25-0.76,36.48-2.71,40.96-1.72l2.06,2.59  C633.82,1082.13,686.64,1073.39,733.6,1086.14z" />
<path class="cls-10" d="M1122.34,1202.09c-32.47,1.19-61.51,14.69-85.98,35.57c-49,3.22-97.79,6.67-148.51,6.2  c-88.4-0.82-175.46-1.65-263.53-6.37c-13.58-0.73-26.12-0.93-39.05-6.46c7.83-7.64,18.04-7.4,28.27-8.34  c61.25-5.65,121.58-5.04,183.25-5.5c17.78-0.13,135.46,2.29,138.4-16.39c-13.04-7.76-87.83-6.11-85.15-21.29  c0.53-3.02,5.63-7.56,10.47-8.15c68.82-8.33,139.83-5.99,209.1,3.12C1078.22,1175.6,1140.2,1185.84,1122.34,1202.09z" />
<path class="cls-10" d="M998.22,1277.76c-4.04,7.09-10.53,14.18-13.77,21.52c-63.11-4.83-127.11-2.01-191.41-7.18  c-8.41-0.68-16.04,0.12-23.19-5.18c7.22-4.46,15.41-7.02,24.3-7.41C862.29,1276.56,931.09,1272.47,998.22,1277.76z" />
<path class="cls-14" d="M846.35,294.77L735.45,456.69c2.24,4.02-4.07,11.3-8.38,10.71l-7.81,11.84l-86.75-50.64  c25.49-14.61,54.82-10.75,78.14,3.5C709.04,358.04,775.4,308.44,846.35,294.77z" />
<path class="cls-11" d="M625.55,610.72c-4.5,9.83-10.95,18.99-13.65,29.49l-3.32,1.8c-7.74-1.08-20.54-11.79-25.6-17.84l-3.83-1.02  c-7.65-9.99-19.23-26.57-16.47-39.1c-0.14-0.87,0.25-1.9,0.01-2.75L625.55,610.72z" />
<path class="cls-11" d="M700.71,649.79c-5.78,12.13-11.73,24.05-16.12,37.43c-7.81-14.5-14.65-27.78-20.31-41.56  c4.28-1.2,16.23,3.3,10.99-2.23c-1.5-1.58-0.23-5.05-1.58-7.1C683,640.05,692.2,644.51,700.71,649.79z" />
<path class="cls-9" d="M753.07,498.14c-0.44-0.39-1.22-0.85-1.77-1.06c0.07-5.78-1.32-11.09-2.61-17.67l18.55,5  C761.52,488.92,757.24,493.34,753.07,498.14z" />
<path class="cls-5" d="M662.86,741.79c-12.73,2.51-24.85,7.36-37.34,10.84l-2.59-2.06c-3.06-15.19-10.78-28.63-23.15-40.32l0.48-3.51  c0.2-1.93,1.37-3.84,3.51-5.74c-0.9-3.45-0.94-6.41-0.11-8.89l-1.24-4.9c5.15-13.01,11.16-25.62,18.02-37.83l-9.09,0.48  c-6.52-1.36-5.39-9.95,0.61-8.46c7.37,1.69,13.87,5.48,22.42,6.42c-3.57,10.36-5.39,19.62-6.36,29.69  c-4.41,45.87,41.8,47.72,43.55,56.06c0.48,2.3,3.29,5.3-1.11,5.58C667.9,739.31,665.51,741.27,662.86,741.79z" />
<path class="cls-12" d="M866.46,569.38c-7.88,13.49-15.08,28.25-22.18,42.39c-1.65-8.5-14.93-16.69-7.68-23.5  c-2.4-14.99-12.14-30.39-19.82-45.96L866.46,569.38z" />
<path class="cls-7" d="M611.9,640.21c-0.09,0.37,0.11,0.81,0.07,1.19c-1.16,1.01-3.65,5.07-1.73,5.58c4.99,1.09,9.16-1.36,14.24,0.37  c-7.5,15.17-16.19,29.19-20.82,44.76c-2.7,0.38-3.82-0.81-5.38-2.5c-3.2-3.47-18-28.6-17.78-31.45c0.35-4.39,11.06-3.61,14.2-2.91  c-4.17-9.12-8.4-18.28-12.7-27.48l0.98-3.6C592.77,629.37,601.03,637.42,611.9,640.21z" />
<path class="cls-11" d="M688.68,727.79c-4.81-5.53-7.36-10.58-10.87-16.87c8.3-2.3,14.95-5.98,24.28-6.54L688.68,727.79z" />
<path class="cls-7" d="M600.25,706.74c11.36,12.86,26.65,30.48,25.26,45.89l-0.1,1.13l-2.67,3.48  c-54.36,15.08-109.62,68.64-85.92,128.77l-0.94,4.61l3.62,7.99l10.7,11.99c0.52,1.03,2.01,1.82,2.85,2.47l14.53,7.91  c2.96,1.46,3.99,3.39,3.08,5.79l2.38,2.16c-3.2,7.91-6.68,15.72-10.44,23.43c1.2,0.15,1.21,0.57,0.12,1.23  c-4.38,6.92-7.77,14.53-10.18,22.82c3.23-0.17,3.75,4.77,3.29,7.57c-1.28,7.77-9.02,13.09-16.5,9.97  c-21.3-35.85-41.71-72.1-61.25-108.77c5.55-9.44,12.13-18.14,19.73-26.11c-12.62,8.04-22.82,4.52-13-11.47  c8.01-14.45,16.67-28.52,25.98-42.2l-12.2,6.18c-7.96,3.91-12.25,3.11-12.89-2.39l31.77-53.56c-5.25,3.03-13.76,4.71-13.8-3.19  l22.66-44.74c-4.07,1.1-10.97,1.74-10.78-3.8c0.13-3.88,7.99-23.55,13.61-21.29l3.32-2.74c13.17-2.05,38.46,3.94,50.35,10.13  C589.33,693.38,600.22,699.21,600.25,706.74z" />
<path class="cls-10" d="M625.41,753.76c-1.24,13.8,33.97,84.54-67.48,124.46c-8.28,3.26-19.29,4.63-22.06,12.39  C507.22,827.36,566.09,768.63,625.41,753.76z" />
<path class="cls-10" d="M560.75,994.97l-1.26-0.39c-4.43-2.06-5.66-6.48-3.7-13.23c-4.04-8.57,1.5-20.24,6.93-27.77l-0.12-1.23  c2.82-8.15,7.2-15.39,13.16-21.72c-3.44-0.09-5.14-1.38-5.1-3.86l-17.6-13.7c8.99,3.81,20.29,5.28,28.71,10.44  C604.31,937.34,577.77,981.72,560.75,994.97z" />
<path class="cls-10" d="M550.2,910.59c-5.01-2.04-8.53-7.19-10.7-11.99C544.89,900.5,548.67,905.12,550.2,910.59z" />
<path class="cls-10" d="M932.2,658.55c-9.44-7.76-10.42-21.81-17.36-32l-0.54-3.51l8.81-15.23l3.52-0.72  c4.65-7.58,10.97-14.31,15.31-23.05l-20.62,0.57l24.51-50.09c24.14,7.72,36.08,31.1,29.45,56.93  C968.58,617.61,951.49,640.02,932.2,658.55z" />
<path class="cls-12" d="M926.63,607.1c-3.89,6.34-6.58,13.75-11.8,19.45c-7.64-11.2-12.68-23.89-19.03-35.69L926.63,607.1z" />
<path class="cls-2" d="M1117.13,503.59c5.38,12.4,11.39,26.14,19.92,35.86l46.52,93.2l-34.22-2.82c17.99,29.64,34.6,59.47,50.66,89.44  v19.87l-28.61-7.46L1200,776.9v174.23c-29.29-13.35-61.01-15.13-93.72-14.05c-28.39,0.93-56.11,9.35-73.41,31.26  c-4.06,5.14-8.14,8.75-10.93,14.76c-5.33,11.47-11.32,22.66-15.09,34.81c-8.41-1.03-17.56,2.39-25.03-1.73  c-1.83-6.28-10.39-12.69-17.73-12.88c-3.51-8.94-9.6-16.9-17.15-22.82c1.32-9.57-6.97-15.03-12.09-21.46  c-26.12-32.81-102.7-13.4-140.33,9.43c-3.19-14.37-10.21-28.78-21.73-37.97l-0.12-2.28l25.43-27.13  c-12.55,5.88-24.25,11.04-33.34,19.17c-0.95,0.01-1.89-0.06-2.83-0.17c-2.26-3.53-6.14-5.42-9.2-8.19l10.62-15.94  c0.36-0.04,0.8-0.19,1.15-0.12c17.87,3.39,36.72,3.37,55.11-1.11c39.61-13.85,57.73-57.73,43.08-96.84  c-9.99-26.67-27.54-47.31-48.94-68.47c40.29-8.5,71.46-29.03,101.18-53.1l39.8,72.39c-10.31-2.27-18.82-5.7-29.86-6.86l57.28,91.43  l-43.33-10.9c15.9,18.99,27.74,39.01,41.79,57.64c3.33,4.41,4.45,11.1,10.15,16.04c14-19.25,25.77-40.26,41.93-58.74  c-9.57-0.06-16.73,5.66-24.17,7.7l-32.7,8.99l56.9-97.25c4.94-8.45,12.51-15.6,17.1-25.44c-9.39,1.94-18.84,3.71-26.57,8.15  c-2.96,1.16-6.63,0.82-11.44,1.72l15.63-34.24l45.2-77.17l-34.33,3.65L1092,528.75c4.27-8.32,12.24-16.67,13.32-26.51  c2.4-1.89,3.78-4.8,5.98-7.94C1112.59,498.29,1115.86,500.68,1117.13,503.59z" />
<path class="cls-12" d="M727.07,467.41c2.51-3.8,5.93-7.14,8.38-10.71c6.23,4.84,9.18,13.59,12.37,21.55L727.07,467.41z" />
<path class="cls-8" d="M529.11,679.34c2.65,0.91,2.67,2.26,0.05,3.26c-5.83,5.66-7.97,14.59-11.64,22.59  c5.26,1.88,8.04-1.3,13.29-0.41l-25.17,49.69c6.51,3.47,11.03-3.02,18.33-4.56l-36.61,61.71c12.65-0.96,19.59-9.22,30.44-11.65  c-12.74,20.38-27.15,38.05-35.36,59.68c11.26,3.96,15.98-8.09,27.37-8.86c-11.41,10.67-20.58,21.75-29.38,34.73l60.73,106.87  c5.79,0.74,10.65-3.72,13.03-8.1c0.9-1.66,0.72-3.95-0.6-5.03c-1.27-1.03-2.84,1.09-6.48,0.36c6.98-8.15,7.27-20.61,15.59-26.04  c-6.24,12.84-7.95,27.47-3.23,41c-10.63,6.87-22.23,12.09-34.24,16.52c-6.55,2.42-14.83,1.92-21.61,3.14  c-28.61-42.9-73.37-83.26-110.17-125.71c19.32,2.79,33.03,16.24,51.49,21.55l-28.35-45.1l1.4-2.78c5.98,0.15,11.19-1.33,15.63-4.44  c-8.52-2.23-33.4-22.57-31.47-31.15c0.29-1.28,1-2.29,2.04-3.09c0.87-2.52,3.6-3.38,8.19-2.57c-4.14-5.2-7.25-10.54-9.34-16  l-0.2-5.27c-2.27-4.91-2.3-7.57-1.11-12.6c5.06-21.4,31.56-38.65,50.63-46.75c-1.3-6.12-3.3-12.11-5.98-17.99  c15.64-31.29,48.65-38.3,79.38-44.5L529.11,679.34z" />
<path class="cls-5" d="M526.6,657.4c2.6-0.3,2.61,0.77,0.04,1.64c3.64,1.47,8.68,11.25,5.53,14.89c3.97,2.33,1,7.95-3.05,5.41  c-13.94,7.07-55.88,2.78-80.28,43.29c3.08,6.69,6.34,11.99,6.29,19.34c-25.91,10.91-53.29,31.28-52.27,57.71l-32.97-50.45  c11.47-2.9,19.71,1.86,32.1,2.03L371.33,711c-3.2-4.2-4.53-5.47-2.12-10.16c3.49-6.78,23.3,0.77,12.97-6.93  c-1.45-1.08-1.06-3.87-2.26-5.59l14.65-26.54c-4.91-0.79-9.07,0.78-14.07,0.85l34.09-73.3l34.62,73.25  c-5.03,0.22-8.63-1.67-12.62-0.1l9.8,17.25c7.9-16.88,16.17-31.74,25.27-47.44c-4.99,0.28-8.89,2.15-14.08,0.78l33.26-71.22  l34.19,71.29c-5.3,0.35-8.91-1.73-14.12,0.07C517.61,641.33,519.31,651.63,526.6,657.4z" />
<path class="cls-5" d="M286.71,601.41l-22.21,39.31l26.47-1.46l-41.61,61.12l27.42-3.61c-16.08,21.38-27.35,43.85-42.51,66.96  c-8.86-11.7-14.77-24.06-22.04-36.55c11.95,1.31,20.18,7.64,31.84,7.66l-43.92-77.14c11.11,1.68,17.04,5.66,27.24,3.31l-16.3-25  c-1.22-2.41-1.4-4.72-0.55-6.92c-1.02,0.14-1.92-0.18-2.57-0.99c-3.12-3.9-0.8-14.71,3.34-17.1c0.92-0.61,0.67-2.31,1.36-2.96  c-0.06-4.42,1.22-9.02,3.84-13.8c0,0,1.13-0.23,3.4-0.7c2.83-4.6,6.69-8.9,8.51-14.86c-4.02-0.63-8.11,1.51-11.66-0.86l33.92-72.91  l36,74.16c-5.75,0.79-9.6-1.38-14.93,0.14C278.29,586.5,278.94,597.42,286.71,601.41z" />
<path class="cls-5" d="M402.9,821.11c3.23-1.5,3.7-0.22,1.3,2.42c3.03,16.27,18.37,26.17,34.17,33.54  c-5.52,7.03-14.15,7.38-21.76,7.91c-0.41-0.45-1.33-0.62-1.63-1.13l-32.84-47.38L402.9,821.11z" />
<path class="cls-9" d="M219.9,593.53c-2.75,4.47-3.16,10.69-7.23,14.5l-29.23-50.5c7.36-2.09,15.78,4.06,20.15-1.75  C212.64,569.8,210.04,597.46,219.9,593.53z" />
<path class="cls-5" d="M245.66,782.85L235.2,768.2c10.09-6.22,19.88-10.31,31.77-14.32L245.66,782.85z" />
<path class="cls-5" d="M216.65,916.87c-3.53,2.4-11.52-6.41-10.11-10.05c6.28-6.96,17.38-12.43,27.24-11.52  C228.97,903.37,224.41,911.6,216.65,916.87z" />
<path class="cls-8" d="M211.3,610.99c0.28,4.73-1.9,9.11-3.1,14.97c2.62,1.34,4.69-0.66,7.41-0.11c-1.4,4-4.41,6.42-4.54,10.16  c-5.62-8.61-12.15-16.86-17.92-26.18L211.3,610.99z" />
<path class="cls-7" d="M404.2,823.53c-0.16-0.86-1.07-1.57-1.3-2.42c-0.51-5.42-1.68-10.96,0.15-16.15  c5.94,4.39,9.72,11.54,14.32,19.05L404.2,823.53z" />
<path class="cls-1" d="M342.78,1090.03c2.07,1.95,3.05,4.99,2.95,9.14c2.16,3.95,2.54,7.21,1.16,9.78  c-54.19,1.17-107.25,24.31-158.1,45.61c1-6.66-0.42-15.23,2.15-21.74C215.3,1106.74,308.81,1093.51,342.78,1090.03z" />
<path class="cls-8" d="M583.95,1084.22l-44.11,1.85c-4.88-2.04-0.58-15.36,3.97-16.01c0.36,0.04,0.76-0.28,1.13-0.3l41.87-1.78  C585.22,1074.42,583.38,1079.14,583.95,1084.22z" />
<path class="cls-6" d="M489.11,1076.56l0.71,3.14c-8.58,5.88-18.72,8.7-30.42,8.46c-1.95,1.15-3.69,2.72-5.23,4.7l-3.78,1.98  c-9.54-1.55-19.22-0.7-28.67,1.08c-22.38,6.31-44.97,11.42-67.78,15.34l-5.59-2.35l-1.46,0.03c-3.27-5.81-5.4-12.25-4.11-18.92  C391.75,1085.01,441.78,1076.99,489.11,1076.56z" />
<path class="cls-1" d="M543.8,1070.06c-1.28,5.39-4.04,10.41-3.97,16.01c-0.49,0.02-1.44,0.8-1.33,1.31l-3.4,2.8  c-19.76,1.91-39.48,4.26-59.16,7.04c-6.96,1.68-12.49,0.62-16.6-3.16c-0.88,3.82-5.18,2.66-5.18-1.19  c-1.97-14.47,22.64-2.16,34.94-16.3l6.65-4.1C511.89,1072.9,527.9,1068.25,543.8,1070.06z" />
<path class="cls-10" d="M459.36,1094.06c3.39,1.31,4.32,3.04,2.81,5.19l-0.33,3.3c-18.01,4.92-35.87,10.38-53.57,16.37  c-2.31,1.01-12.18,5.56-8.77,8.04c5.85,4.26,65.66,13.32,67.04,10.21c-0.3-2.42,0.11-4.56,1.25-6.42c6.35-3.14,10.98-6.97,13.9-11.5  c-3.38-6.11-8.58-11.46-15.6-16.06l1.18-2.98l3.29-2.28c17.81-2.26,35.61-4.57,53.42-6.92c5.1-0.82,9.97-0.99,14.44,1.92  c0.91,19.07,10.98,35.54,29.7,42.7c2.78,2.98-2.74,6.32-4.31,8.28l-78.62-2.48c2.82,2.89,6.2,3.98,5.86,7.15  c-0.21,1.95-3.15,4.85-6.4,4.88l-132.99,1.3c-4.61,0.05-9.33-5.95-8.67-8.78c2.34-9.99,29.12-7.41,35.06-24.92  c-11.41-2.64-23-3.88-29.69-12.16c35.15-0.76,73.17-23.56,105.83-16.05L459.36,1094.06z" />
<path class="cls-10" d="M462.37,1201.65c-73.65,2.23-145.87,1.12-219.65-5.84c3.93-8.69,13.24-9.7,21.57-10.28  c71.61-5.04,143.11-5.81,214.88-1.64c10.92,0.63,21.45,1.11,29.84,8.4C494.53,1199.47,479.36,1201.14,462.37,1201.65z" />
<path class="cls-10" d="M732.32,1139.31c3.9-6.44,8.11-14.76,9.62-22.26l149.84,5.44c9.11,0.33,17.94,0.32,25.2,6.67  c-14.71,4.93-28.85,5.74-43.86,6.16L732.32,1139.31z" />
<path class="cls-7" d="M538.51,1087.38c0.42,1.85-0.19,3.73-0.11,5.57c-23.85,0.25-47.54,3.88-71.14,7.28  c-0.72,4.13-4.98,2.88-5.1-0.98c-1.11-1.63-2.25-3.28-2.81-5.19C483.16,1099.53,512.13,1087.81,538.51,1087.38z" />
<path class="cls-4" d="M582.98,624.17c6.35,10.1,9.17,23.19,17.39,34.01c-6.71,0.41-11.54-2.18-17.97,0.21  c7.96,12.06,12.98,24.04,21.25,33.72c1.9,2.23,3.45,6.55,2.67,9.62c-0.56,2.21-3.38,4.74-6.07,5  c-17.75-20.09-45.54-24.84-71.09-24.14c0.04-1.09,0.02-2.18-0.05-3.26c2.01-1.02,2.49-3.62,3.05-5.41c-0.35-2.7,0.65-5.2,3-7.5  l2.96-5.59c-5.53,1.47-9.36,0.87-11.49-1.8l-0.04-1.64l36.08-73.34C565.17,599.65,574.89,611.32,582.98,624.17z" />
<path class="cls-8" d="M562.59,952.34c-0.93-9.32,7.09-16.43,8.06-25.59c2.79,0.99,7.12,0.45,9.45,3.89  C572.89,937.74,567.76,945.05,562.59,952.34z" />
<path class="cls-7" d="M532.16,673.93c-1.22-5.25-5.41-9.41-5.53-14.89l16.41-1.26C539.69,663.59,537.01,670.28,532.16,673.93z" />
<path class="cls-11" d="M467.26,1100.23c2.53,5.18,20.72,12.56,16.42,21.78c-4.17,8.93-20.83,6.77-11.99,17.83  c-9.24,0.64-76.6-3.97-75.89-13.81c0.92-12.86,61.46-22.15,66.37-26.78C463.8,1099.26,465.63,1100.46,467.26,1100.23z" />
<g>
</g>
<g>
</g>
<g>
</g>
<g>
</g>
<g>
</g>
<g>
</g>
<g>
</g>
<g>
</g>
<g>
</g>
<g>
</g>
<g>
</g>
<g>
</g>
<g>
</g>
<g>
</g>
<g>
</g>
</svg>