<?xml version='1.0' encoding='UTF-8'?>
<svg xmlns="http://www.w3.org/2000/svg" id="Layer_1" viewBox="0 129.6 1200 1540.8" xml:space="preserve" width="1200" height="1800">
<style type="text/css">
      .cls-1 {
        fill: #202938;
      }

      .cls-2 {
        fill: #3a3a3f;
      }

      .cls-3 {
        fill: #1a5f78;
      }

      .cls-4 {
        fill: #45515e;
      }

      .cls-5 {
        fill: #2b8098;
      }

      .cls-6 {
        fill: #5b9393;
      }

      .cls-7 {
        fill: #4c99c4;
      }

      .cls-8 {
        fill: #1eaae6;
      }

      .cls-9 {
        fill: #38b2e5;
      }

      .cls-10 {
        fill: #959697;
      }

      .cls-11 {
        fill: #57bce4;
      }

      .cls-12 {
        fill: #6dbbda;
      }

      .cls-13 {
        fill: #7fcbe3;
      }

      .cls-14 {
        fill: #a3d9ea;
      }

      .cls-15 {
        fill: #f2f4ee;
      }

      .cls-16 {
        fill: #ffffff;
      }

    </style>
<path class="cls-16" d="M0,128.64V0h1200v128.9l-0.93,1.92c-399.25-0.09-798.54-0.17-1197.87-0.26L0,128.64z" />
<path class="cls-16" d="M295.8,1671.39l1.18-1.92c36.31,0.04,72.61,0.09,108.92,0.13l1.17,1.92l0.92-1.92  c133.78,0.1,267.59,0.2,401.44,0.3l1.86,1.92l0.91-1.92c97.21-0.25,194.48-0.5,291.79-0.74l3.58,1.91l0.68-1.91  c0,0,30.2,0.26,90.61,0.78l1.14,1.93V1800H0v-127.68l0.65-1.92c31.97-0.19,63.95-0.39,95.94-0.58l1.18,1.91l1.18-1.68  c35.71-0.28,71.45-0.35,107.23-0.22l1.18,1.92l3.43-1.93c27.96-0.11,55.9-0.23,83.84-0.34L295.8,1671.39z" />
<path class="cls-5" d="M1200,988.74v254.8c-0.25,1.79-0.8,2.25-1.85,0.67l-7.88,6.74l-48.57,28.89  c-31.31,16.57-55.22,39.11-79.79,62.78c-3.53,3.88-7.41,5.99-11.64,6.32l-5.4,2.89c-34.57,10.94-68.89,22.55-102.89,35.27  c-24.27,9.08-41.52,19.88-60.93,35.92c-10.1,6.79-20.75,13-31.95,18.63c-33.41,16.51-65.62,34.92-97.76,53.64  c-2.25,1.31-4.82,1.96-7.34,2.53c-1.5,1.26-3.56,1.4-6.16,0.42c-5.17,0.22-9.81-0.67-13.91-2.66c9-28.9,10.42-57.48-0.66-86.07  c-21.68-55.95-80.78-89.13-139.31-73.29l-3.98-0.79c-0.68,1.37-2.65,1.35-2.94-0.22c-2.84,0.35-2.81-2.78-0.22-3.54  c-0.94-0.2-1.13-1.23-0.99-2.12c-1.86-0.25-1.88-1.03-0.09-1.67c-0.45-0.7-0.94-1.48-1.46-2.34c-2.87-0.72-3.82-3.87-1.14-5.55  l-0.36-2c0,0,28-15.67,84-47.01l1.96,1.1l13.02-9.18l111.69-60.12l35.88-69.28l6.44-8.25c-1.84-2.55,4.24-7.33,6.56-8.26l62.69-8.28  c1.52,0.76,1.76,2.13,1.39,3.78l-33.12,34.06l65.63-44.41c1.63,0.16,2.39,1.32,2.84,2.83c-20.82,34.12-41.9,68.12-63.25,101.98  l70.14-80.46l2.22,0.38l1.48,1.39l-33.66,74.81c11.56-10.72,21.73-22.19,30.51-34.42c5.87-16.28,10.13-33.31,12.78-51.11l2.32-2.91  l-0.18-2.09l17.64-9.59l37.31-86.07l3.76-3.84c1.12-2.2,3.36-2.61,6.7-1.25l19.66,6.78l1.23,2.15c0.95,0.43,1.72,0.95,2.29,1.57  l1.57-1.61c24.52,9.76,50.81,16.14,77.84,14.48l3.88,1.68c-1.08,3.31-3.38,6.34-6.9,9.06c-35.89,50.16-71.81,100.26-107.77,150.31  l-1.43-0.19l-2.01,3.01c0.87,0.98,0.44,1.47-0.84,1.14c-0.46,1.32-0.33,1.94,0.38,1.86c2.52-4.16,5.55-8.19,9.08-12.09  c35.89-36.9,71.67-73.7,107.36-110.39l2.2,0.5c3.99-1.46,2.84,3.39,2,6.05l-55.17,90.34c-47.75,30.83-94.28,63.54-138.92,98.74  l-43.66,53.18c32.89-19.8,66.7-37.98,100.89-55.44l42.71-48.57c1.6-0.13,2.51,0.89,3.24,2.28l-15.7,30.37l81.72-46.71l70.18-119.93  l-26.3,22.81c-3.01-0.18-4.14-0.76-2.9-4.15c12.57-30.08,23.37-60.74,32.42-91.96l3.1-5.25c-0.81-0.24-0.75-0.52,0.1-0.84l1.88-2.22  c-2.1-1.56-1.8-4.07,0.89-7.53c2.59-3.4,5.81-6.28,9.65-8.66C1190.82,989.32,1197.6,986.65,1200,988.74z" />
<path class="cls-1" d="M799.52,829.55c2.86,0.34,1.58,4.96-1.14,4.79c-1.17,3.15-2.65,6.02-4.45,8.6c1.84,2.09,1.46,3.66-1.23,4.5  c-0.73,2-1.62,3.71-2.67,5.13c0.83,0.02,0.78,0.28-0.02,0.74c-0.5,1.14-1.11,2.18-1.84,3.12c2.13,1.58,1.4,4.15-1.21,4.47  c-0.73,1.93-1.61,3.66-2.63,5.19c2.39,1.29,1.42,4.42-1.2,4.43c-0.75,1.88-1.63,3.62-2.64,5.21c2.42,1.27,1.41,4.42-1.22,4.38  c-0.73,1.92-1.61,3.64-2.63,5.15c1.73,0.56,1.68,1.31-0.12,1.64l-1.12,2.09c-0.02,2.25-0.59,3.84-1.71,4.78  c0.81,0.16,0.77,0.42-0.04,0.77c-1.2,2.12-2.47,4.15-3.81,6.08c0.76,0.45,0.68,0.77-0.21,0.97l-2.4,2.73  c0.47,0.58,1.14,1.46,0.83,1.92c-1.58,2.38-7.18,8.9-9.9,7.76l-2.47,2.48c1.37,2.36-1.91,5.37-4.24,4.22  c-1.82,1.37-3.36,2.98-4.62,4.83c2.05,1.97-0.81,4.6-3.1,3.08l-2.41,2.5c0.47,2.44-0.44,5.56-2.74,6.77c-0.86,1.34-2.2,2.26-4,2.75  c-12.49,14.79-25.56,29.46-39.22,44c-5.58,20.86-10,41.94-13.27,63.22l-2.37,6.16c2.36,1.87,0.85,4.31-1.96,2.92l-2.02,1.97  c1.15,2.73-1.15,4.55-3.6,2.96l-2.11,1.88c1.73,2.55-3.48,7.23-5.64,4.76c-0.41,0.74-1.08,1.39-2.01,1.95l0.62,2.02  c-11.96,10.71-23.92,21.43-35.88,32.15l-2.13-0.67l-2.16-1.82c0.09-9.64,1.5-19.21,4.24-28.7c-27.14,19.35-55.09,39.79-82.47,60.91  c-20.67,15.95-36.22,30.38-49.98,52.27c-26.53,30.35-53.45,60.29-80.76,89.82c-5.04,7.74-7.58,16.7-9.51,25.64l-16.34,80.37  c60.08-45.9,119.75-92.47,179-139.72c0,0,1.42-0.14,4.27-0.42l1.74,1.2c-6.82,38.25-10.23,57.37-10.23,57.37l-2.09,0.79l1.48,3.03  c-4.37,10.19-11.15,19-20.36,26.42c-12.01,10.03-23.21,20.76-33.61,32.19l-2.38,0.07c-1.05,2.39-2.9,4.24-5.53,5.55  c-55.06,52.82-111.34,104.88-168.84,156.17l-33.55,145.59l-2.14,0.72l-88.45,0.36l-1-1.85l15.52-20.12l91.74-260.21l-157.4,120.64  l-56.03,160.43c-0.51,0.62-1.32,0.98-2.41,1.09L0,1672.32v-35.52l1.75-5.16l89.73-109.5l58.58-211.17  c-1.95-0.78-3.66-1.07-5.12-0.87l-3.1,1.44c-19.93,1.72-39.89,3.31-59.86,4.77l-3.3-0.8c-3.8,1.65-3.64-2.56-0.29-4.22  c-5.1-4.05-10.48-4.94-16.85-4.11c-0.55-0.23-7.48-8.49-7.62-9.07c-0.35-1.46-0.46-2.45,0.62-3.68l133.63-79.69l7.54-2.26  c0.37-2.67,1.52-2.51,2.76-0.14l1.74,1.22l-41.5,251.68l184.71-122.83l72.01-261.76l2.94-3.45l-6.26,1.91  c-41.95-0.06-83.85-0.13-125.69-0.19l-1.17-1.92c-0.34-0.68-0.74-1.77-0.31-2.09c15.56-11.44,33.84-22.05,51-30.84l-0.13-2.03  c40.99-17.31,81.98-34.63,122.98-51.94l1.83,1.31l1.76,1.02l-44.98,238.74c22.28-16.43,43.83-33.78,64.66-52.05  c15.74-22.23,30.88-44.84,45.43-67.84c0,0,38.58-69.1,115.74-207.29l5.79-8.25l0.87-2.59c1.93-1.53,12.48-8.15,13.75-7.85  c0.53,0.12,1.03,0.35,1.53,0.61c1.42,3.27,1.2,6.91-0.64,10.91l-13.99,39.66c-21.27,51.34-43.83,102.11-67.69,152.28l64.94-43.89  l39.88-132.86l109.77-83.28L799.52,829.55z" />
<path class="cls-8" d="M1200,128.9v93.28l-2.39,1.12c-16.03-0.98-32.14-2-48.3-3.05c-78.78,1.23-158.33,1.38-235.08-1.87  c-18.65,0.74-37.43,0.9-56.33,0.49c-23.26,2.31-46.14,3.41-68.62,3.3c-10.54-0.64-19.76,1.38-27.66,6.06  c-0.06,1.74-0.55,3.06-1.45,3.94c-2.39,1.8-6.67,0.18-7.31-2.73c-0.73-0.6-1.36-0.88-2.3-0.99c-0.71,2.63-1.83,2.48-2.51-0.12  l-2.37-1.44c-0.81,1.53-2.63,1.42-5.48-0.33l-2.71,0.45c-7.34-4.91-16.11-5.96-24.66-4.76c-20.28,4.47-41.11,4.13-62.22-0.21  c0,0-13.63-1.17-40.89-3.52c-44.19-0.86-87.6-0.51-130.22,1.06c-54.32-1.26-108.53-1.23-162.61,0.11  c-26.03-1.41-52.13-1.16-78.31,0.76c-45.34-1.07-90.74-1.56-136.19-1.46c-30.02-0.07-60.18-0.74-90.49-2.03  c-5.24,0.33-9.2-0.94-11.89-3.82v-84.48L1200,128.9z" />
<path class="cls-9" d="M740.18,226.54c27.22,12.32,45.27,33.72,46.76,64.66l-1.59,3.32c-0.21,0.96,0,1.74,0.61,2.34  c3.23,5.73,3.51,16.53-0.1,22c0.35,2.88-5.03,2.7-5.5-0.02c-3.3-1.07-8.36-8.9-4.86-11.44l-1.74-2.26c-2.53,0.2-3.94-2.89-1.96-4.58  l-1.92-3.01l-3.49-2.27c-15.68-26.81-40.97-47.87-71.01-56.42l-3.08-2.81c-0.77-0.71-1.18-0.84-2.23-0.92l-3.05,1.27  c-10.3-1.51-20.68-1.82-31.13-0.93l-2.8-1.84c-0.97,0.26-1.76,0.73-2.4,1.42c-0.54,2.53-1.76,2.59-2.53,0.09  c-1.22-0.15-2.29,0.13-3.21,0.84c0.49,1.83-1.15,2.06-1.82,0.28c-0.43,0.84-0.35,1.64,0.23,2.38c0.11-0.67,0.24-1.2,0.47-1.25  c3.04-0.6,12.02-1.6,12.65,1.76c1.17,0.86,1.38,0.88,3.19,0.77c-0.01-2.86,3.09-2.47,3.54,0.19c0.77,0.66,1.84,0.96,3.21,0.91  c1.08-2.39,1.64-2.37,2.51,0.11l2.37,1.45c1.02-2.77,3.94-2.52,4.39,0.39c1.66,0.94,3.39,1.77,5.2,2.49  c1.12-0.46,2.38-0.95,3.61-0.66c11.88,2.88,30.72,18.32,39.05,27.46c6.15,6.75,24.84,33.59,22.27,41.73  c-0.2,0.64-0.52,1.24-0.88,1.83c-0.45,3.86-6.17,9.14-9.58,6.12c-0.49,0.68-1.14,0.93-1.94,1.04c-0.63,0.09-10.45-5.84-8.78-7.95  c-3.99-2.33-7.68-5.12-11.05-8.37c-8.76-7.52-18.33-13.4-28.69-17.63c0,0-0.47,0.87-1.41,2.62c-0.13,0.94,0.16,1.7,0.88,2.28  c1.87,0.33,1.89,1.06,0.08,1.56c-0.13,0.93,0.2,1.68,0.97,2.25l2.66,1.93c2.89,7.13,6.34,13.98,10.35,20.57l-0.35,3.34l-3.19,0.08  c-9.4-6.73-20.56-11.37-32.28-11.22c-39.38,2.3-78.99,3.41-118.72,2.47l-59.51,2.33c-143.17,0.71-282.9,0.72-419.2,0.01  c-20.06,0.69-40.12,0.69-60.15-0.01c0,0-1.68-0.79-5.05-2.36V213.12c10.87,2.82,21.12,2.06,31.98,2.23  c19.6,0.29,37.77,2.68,56.74,1.81c9.18-0.42,126.42,0.4,135.15,0.96c18.82,1.21,37.4-0.66,56.44-1.51  c16.13-0.72,31.52,2.14,47.67,0.77c26.58-2.26,133.32,1.01,163.53,0.1l43.92-1.32c45.84-1.38,90.75-0.57,135.91,6.92  c7.24,1.2,17.34-0.1,24.38-0.04C704.47,223.11,723.12,213.88,740.18,226.54z" />
<path class="cls-15" d="M1200,410.76v253.81c-0.37,1.2-0.79,2.44-1.58,3.44c-2.67,3.39-13.95,9.49-18.49,10.62l-0.37,2.5l-15.43,12.13  c-4.01,3.28-7.35,4.01-10.03,2.18c-0.46,0.58-1.15,1.4-1.69,1.23c-2.2-0.69-9.73-4.92-8.88-7.48c-0.9-0.52-1.63-1.15-2.19-1.89  c-0.11,0.87-0.41,0.82-0.86-0.04l-2.99-2.77c-0.82,2.69-2.94,1.58-2.58-0.99l-4.14-2.87c-2.05,1.89-2.54,1.64-2.61-1.06  c-1.56-0.82-2.93-1.76-4.12-2.83c-0.07,0.84-0.32,0.8-0.73-0.02c-1.49-0.83-2.84-1.77-4.06-2.82c-1.29,2.5-2.9,1.54-2.63-1.04  c-0.87-0.51-1.58-1.11-2.12-1.79c-2.9,0.76-5.68-0.64-8.34-4.2c-5.75-7.65-11.68-15.09-17.8-22.32  c-9.9-5.62-19.47-11.77-28.73-18.44c-7.72-8.31-15.93-16.05-24.63-23.21l-1.05-2.93c-0.9-0.48-1.5,0.14-1.81,1.85  c3.05-0.01,3.14,4.38,0.16,4.61c0.43,1.68,0.89,3.43,1.37,5.26c2.7,0.52,3.19,6.79,0.31,7.3c-0.16,0.91,0.08,1.67,0.74,2.28  l1.82,1.13c2.06,9.78,1.83,16.97-4.04,25.98c-8.46,13.6-15.64,27.75-21.53,42.46l-1.65,9.31l25.71-21.59c4.06-2,4.47,0.89,4.75,4.29  c0.21,2.61-0.6,10.38-3.31,10.93c-0.33,0.97-0.8,1.77-1.4,2.37c3.28,1.39,0.14,10.12-2.95,10.33c0.27,0.92-0.12,1.93-1.09,2.09  c2.74,1.42-1.02,9.7-3.94,9.32l-1.81,2.17c0.36,0.33,0.7,0.67,0.97,1.06c0.19,0.27,0.33,0.54,0.34,0.83  c0.03,0.66-5.5,10.74-7.26,10.28c-0.45,0.97-1.04,1.69-1.77,2.18l0.27,3.39l-5.24,9.86c-1.15,4.21-3.08,7.43-5.79,9.66l-0.9,0.97  c1.92,2.21-1.3,5.82-3.64,3.87c-0.41,0.73-1.12,1.34-2.12,1.83c-0.01,2.69-2.03,3.37-3.55,1.1c-0.37,0.63-1.14,1.18-2.29,1.64  l-0.92,2.46l-15.4,6.43c-1.91,1.88-3.73,2.79-5.46,2.73l-2.53,5.62c-9.44,11.42-18.88,22.79-28.3,34.12l-2.82,1.55l-1.92,2.16  c0.3,4.6-9.86,18.3-12.32,9.6l34-59.52l33.17-42.26c-24.55,19.62-49.16,39.15-73.85,58.59c-26.22,16.3-52.53,32.25-78.94,47.87  l-1.98-1.05c-2.47,0.83-2.61,0.11-0.85-1.73l-0.58-2.03c16.12-13.92,32.25-27.85,48.39-41.79l2.13,0.7l1.98-3.08  c7.18-3.37,14.12-7.14,20.89-11.15c12.43-7.36,15.72-14.27,20.16-27.85c5.94-11.49,15.18-20.39,27.71-26.68  c6.35-5.16,11.83-11.24,16.44-18.24c6.73-11.24,14.44-21.6,23.14-31.08c1.73-2.83,1.35-2.9-1.14-0.21  c-15.87,21.23-37.67,41.73-61.49,56.52c-17.27,10.72-37.97,21.81-56.27,30.76l-4.73,0.51c-1.91,1.7-2.42,1.01-1.18-1.2  c0.04-0.89,0.12-1.77,0.34-2.62c1.18-4.72,20.26-26.03,25.19-29.95c0.65-0.52,1.48-0.81,2.36-1.03c-0.23-0.47-0.38-0.87-0.24-1.05  c4.95-6.31,5.85-4.22-0.24,0.26c-0.25,0.19-0.72,0.08-1.25-0.11l0.39,0.99c-15.72,13.41-31.9,26.31-48.55,38.71l-12.81,13.92  l-3.71,1c-1.55,2.48-2.33,3.72-2.33,3.72c-20.44,10.4-39.99,22.16-58.64,35.28l-4.31,1.15c-1.19,2.32-9.53,2.63-10.19-0.19  c-0.83-3.65,0.5-7.36,3.99-11.14c13.24-14.92,28.97-27.43,47.19-37.52c0,0,23.3-17.83,69.91-53.5l3.47-1.05  c1.35-1.74,1.4-2.43,0.16-2.09c-0.8,2.17-4.32,4.41-5.74,2.04l-5.35-0.1c-23.11-7.66-46.54-14.24-70.3-19.75  c-45.64,24.06-91.1,48.92-136.39,74.59c-2.55,1.6-5.05,2.73-8.06,1.87l-2.37-1.9c-2.97-11.2-4.18-37.51,4.3-46.11  c0.75-0.76,1.91-0.91,2.95-1.02c0.94-0.62,1.98-1.07,3.13-1.02c4.06,0.19,14.44,5.92,17.42,8.86c4.06-9.65,15.18-15.46,25.42-17.08  c2.88-18.91,23.53-23.71,39.87-22.43c12.12-32.42,39.18-38.49,69.35-29.02c5.94-10.28,16.97-17.52,28.96-17.52  c4.21-21.77,24.6-29.82,44.14-20.42c-0.11-7.37,1.3-14.22,4.2-20.54l2.86-0.63c-0.79-4.5,6.48-8.43,10.35-10.21  c9.76-4.47,20.48-3.3,29.52,2.36c10.77-54.07,73.25-76.66,117.41-44.42c4.16-6.01,8.63-11.76,16.94-12.36  c-5.23-32.44,19.75-55.71,50.73-52.96c0.33-1.01,0.84-2.21,1.52-3.61c-2.77-1.66-1.42-6.13,1.08-7.52  c-0.36-0.86-0.38-1.88,0.58-2.25c-1.87-0.85-2.33-2.51-1.39-4.99c0.44-3.18,1.83-9.87,4.7-10.9c0.91-2.41,2.12-4.44,3.65-6.1  c-1.75-2.27-0.94-4.45,2.04-4.46c0.46-1.02,1.06-1.75,1.78-2.19c-1.71-2.16,1.55-6.96,4.24-6.51l0.9-3.61  c8.13-9.58,25.13-18.81,37.23-22.05C1184.59,409.56,1194.43,407.04,1200,410.76z" />
<path class="cls-11" d="M698.1,323.58l2.43,0.32c1.43,1.1,12.71,13.51,12.88,14.47c0.43,2.46-3.91,4.57-4.65,1.16  c-0.89-0.53-2.31-0.72-4.28-0.58c0.2,2.54-0.76,2.48-1.6,0.06c-0.64,0.56-1.39,1.12-2.25,1.68l-0.81,2.06  c-5.37,2.78-10.83,5.36-16.37,7.75l-1.59-1.72l-2.35,1.5c0.2,2.54-0.75,2.48-1.58,0.06c-1.35-0.13-2.41,0.18-3.18,0.94  c-0.67,2.64-1.4,2.49-2.54,0.15l-9.9,0.12c-0.19,1.13-1.01,0.5-1.81-0.14l-0.41,0.89c6.81,2.96,7.29,5.15,1.44,6.56  c-0.38,0.98-0.97,1.13-1.77,0.45c-3.53,1.7-7.2,3.13-11.01,4.27c-0.7,2.96-8.88,2.33-9.48-0.58c-3.02-2.07-6.23-2.86-9.65-2.37  l-4.86-1.33c-1,2.78-5.71,1.24-4.74-1.58c-6.13-3.1-3.71,1.97-0.91,5.1c-0.92,2.43-10.6-2.31-12.62-3.47  c-0.97,2.68-2.93,2.49-3.42-0.3c-1.1-0.84-1.47-1.06-3.26-0.99c-0.31,1.86-1.09,1.85-1.68,0.04c-4.3-2.11-6.49-0.28-1.63,2.77  c0.26-0.82,0.47-0.71,0.63,0.21c3.63,2.63,1.24,3.26-2.17,3.39c-2.58-0.84-5.11-1.07-7.59-0.7c-1.49,2.37-3.06,2.37-4.44-0.09  c-5.15-1.37-10.61-1.32-15.75,0c-0.54,1.9-1.36,1.88-1.73-0.07c-3.44,0.04-4.64,0.97-3.61,2.81c6.02,1.01,7.94,2.54,5.77,4.59  c-2-0.04-3.69,0.43-5.07,1.42c-2.83,2.27-6.46,3.63-10.89,4.09c-8.46,2.43-9.55,3.27-3.28,2.51c3.32,0.28,6.12,1.31,3.6,4.89  l-9.54,3.59c-27.71,18.46-60.25,22.59-93.27,21.57l-56.17-1.02c-32.59-1.43-62.29,11.08-87.01,31.71l-4.11,0.88  c-4.68-4.54-10.77-5.25-17.32-5.9c-18.58-1.03-37.33-0.65-56.26,1.13c-69.71,0.11-139.64,0.25-209.8,0.42  c-6.87,0.51-13.03-0.6-18.47-3.33V314.88c21.62,2.13,43.08,0.41,65.2,0.45l63.42,0.11c72.69,0.13,144.83,1.06,217.69,0.37  c53.99-0.51,107.42,1.47,160.99-1.46c24.76-1.36,48.38-1.9,73.29-1.09c25.84,0.84,51.66-1.7,78-2.69  C674.9,309.94,685.84,314.63,698.1,323.58z" />
<path class="cls-9" d="M1200,222.18v99.11c-0.41,2.72-2.34,3.92-5.8,3.61c-36.65-3.54-75.12-4.59-113.68-2.27l-47.38-0.84  c-57.85,1.17-116.78,1.19-176.79,0.06c-7.79-0.83-15.24-1.05-22.34-0.64c-3.84,3.29-14,4.89-10.28-2.36l-0.68-2.01  c1.8-4.3,4.19-7.87,7.16-10.71c-0.8-0.23-0.75-0.5,0.07-0.8l1.13-1.04c-1.8-2.21-1.1-3.39,1.7-2.82l0.82-0.97  c-1.91-0.43-2.19-1.26-1.75-2.95c-5.86,6.63-12.68,10.6-20.45,11.9l-1.31-2c-1-0.34-1.59-1.38-1.88-2.36  c-2.88,0.07-2.98-4.64-0.33-5.37c0.16-0.95-0.1-1.7-0.77-2.25l-2.46-2.85c-4.92-25.04-20.65-46.74-42.91-59.22l-1.95-3.23  c-7.26-13.73,38.36-12.04,45.98-11.88c20.6,0.44,41.04-4.39,61.7-3.18c12.75,0.74,24.26-0.14,37.05-0.59  c16.31-0.57,58.57,2.06,80.7,2.21c53.15,0.37,105.74,0.56,159.05-0.38C1163.46,218.01,1181.63,221.01,1200,222.18z" />
<path class="cls-11" d="M1200,321.28v89.48c-23.54-0.92-43.89,9.52-60.1,26.22c-1.73-0.04-3.37-1.01-4.93-2.89l-4.81-1.57  c-13.44-0.91-27.27-1.37-41.51-1.38c-32.98,2.95-66.27,4.32-99.86,4.12c-43.7-0.37-87.37-0.47-131.02-0.28l-4.5-1.04  c-1.62,1.4-2.44,1.05-2.46-1.06l-2.87-2.6c-5.49-13.79-11.8-27.22-18.93-40.28c-4.42-9.44-8.91-19.38-11.08-29.63  c-0.13-0.6,0.02-1.26,0.2-1.96c0.19-0.73,0.51-1.43,0.86-2.11c0.03-0.88-0.28-1.62-0.93-2.22c-1.74-1.39-2.82-3.7-3.24-6.92  l-5.76-12.27c0,0,0.38-0.9,1.15-2.69c0.34-2.26,10.31-13.85,11.21-13.96c0.84-0.11,1.62,0.14,2.34,0.58  c-0.07,1.38,1.07,3.48,2.48,3.36c0.98-0.08,3.42-0.39,4.37-1.2c4.9-4.12,11.69-1.45,16.76-1.31c48.27,1.3,96.39,1.63,145.56,0.78  l28.96-0.5c14.33-0.25,27.49-0.12,41.66,0.49c29.38,1.26,57.79-2.57,86.1-0.68l36.83,2.46C1191.2,322.55,1195.78,324.16,1200,321.28  z" />
<path class="cls-15" d="M104.53,606.04l2.35,0.98c1.4,7.47,0.98,14.99-1.26,22.56c3.74,2.09,7.48,4.32,10.2,7.72  c30.1-14,62.3,4.81,66.86,37.13c30.07-11.24,60.66,4.57,66.43,36.88c6.8-7.73,16.76-9.32,26.45-7.35  c7.33-19.87,8.84-42.5,6.58-63.37c-3.53-2.17-2.29-14.23,2.74-12.54c3.41,1.14,5.06,31.91,5,37.75l2.99-10.45  c1.92-1.02,3.3-1.64,4.19,0.52c2.06,29.62-3.51,60.37-27.25,80.54l24.51,111.92l9.65,28.26l-1.37,1.93l-1.3,2.38  c-3.43,1.66-12.61,4.47-15.18,1.53c-3.2,1.49-7.89-6.08-4.12-7.83c-1.6-1.66-2.23-4.12-1.87-7.39c-1.03-5.07-4.68-13.62-9.68-7.18  l-2.56-0.86c-1.16,1.35-1.6,0.69-2.05-0.93c-2.94,0.56-4.06-4.91-0.73-4.94c-1.02-1.43-0.92-3.27,0.29-5.52  c0.02-3.65,1.06-5.98,3.12-6.99l-1.37-3.68c1.14-15.89,0.34-31.74-2.39-47.55c-28.92-9.03-57.38-19.46-85.38-31.28l-28.99-9.81  c-24.53,5.97-48.91,12.42-73.15,19.35l-4.18,0.06l-3.54-0.52c-22.42-12.24-44.77-24.61-67.08-37.12L0,727.68V510.72l3.06-1.27  c30.3,7.46,51.89,35.17,51.77,66.32c21.74-4.95,42.2,7.29,50.62,27.43L104.53,606.04z" />
<path class="cls-13" d="M1200,849.18v47.48l-0.67,1.92l-123.35-0.05c-3.06,0.74-6,2.08-8.82,4.02l-2.51-1.15  c-0.4,0.75-1.1,1.36-2.1,1.83l-0.18,2.3c-3.55,1.52-6.82,3.46-9.81,5.82l-2.21-0.42c-7.37,6.36-16.04,10.7-26.03,13.03  c-54.12,12.23-101.51,44.94-146.82,76.76l5.17,1.14c41.93,2.11,83.91,3.56,125.92,4.35c5.9,0.33,11.7,1.58,17.13,3.92l34.82-4.19  l86.56,0.05c5.12,0.32,15.25,1.2,9.71,7.88l0.63,1.93c-9.79,7.3-19.59,14.61-29.39,21.92l-2.05-0.86  c-46.4,3.41-78.34-14.01-83.29-14.55l-2.29-1.57c-9.72-1.29-17.81-8.48-27.59-7.68c-3.23,3.57-6.89,6.72-10.98,9.47l-20.55,18.3  c-6.96,6.97-14.9,11.42-23.82,13.35l-1.41-1.91l-5.45-1.51c-47.17-30.53-101.31-49.58-155.13-64.41  c-18.58-7.29-36.82-15.46-54.7-24.52l-1.67-2.72c-0.75-0.07-1.87-0.28-1.94-0.81c-0.3-2.43-0.72-18.79,0.16-19.75  c0.3-0.33,0.76-0.52,1.26-0.67c-0.07-2.77,0.46-5.09,2.74-6.77l2.41-2.5l3.1-3.08c1.26-1.85,2.8-3.46,4.62-4.83  c1.16-1.7,2.73-2.88,4.24-4.22l2.47-2.48l9.07-9.68l2.4-2.73l0.21-0.97l3.81-6.08c0.04-0.25-0.04-0.53,0.04-0.77  c0.66-1.59,1.31-1.81,1.96-0.66c2.15-0.68,4.68-0.31,7.59,1.11l6.88,0.65c54.34-2.71,108.84-3.02,163.51-0.93  c-0.19-5.7,6.79-11.88,11.96-11.51c1.5-0.5,1.52,0.11,0.07,1.81l0.85,2.04c-1.9,2.34-2.52,4.47-1.84,6.4  c22.61-0.35,45.19-1.98,67.75-4.88c10.18-2.74,20.45-5.18,30.82-7.32c25.76-15.26,57.54-17.75,85.11-3.85  c0.1,0.05-0.89-0.02,0.65-1.67c1.02-1.1,2.64-1.95,3.98-2.65c13.3-2.67,21.51-9.01,31.06-18.55  C1188,850.84,1196.15,844.93,1200,849.18z" />
<path class="cls-7" d="M73.07,767.87l4.31,0.31c8.33,5.86,17.15,9.76,27.52,10.77c25.77,1.8,49.38,6.91,71.47,20.76  c23.91,14.5,48.34,27.65,73.31,39.43l0.97,2.31c2.81,1.29,14.94,8.02,14.79,10.37c-0.03,0.5-0.16,0.99-0.31,1.47  c-0.66,1.37,0.71,3.58,0.73,4.94c0.88,0.61,1.18,1.81,0.88,3.61l1.02,1.34c2.11,0.42,2.12,1.59,1.96,3.43  c3.5-3.15,6.21-3.44,8.13-0.87c0,0,1.39,2.95,4.18,8.86c-0.34,2.92,2.63,5.7,4.12,7.83c1.78,0.54,1.67,1.25-0.16,1.61  c-8.89,3.33-18.26,5.51-28.1,6.56c-22.67,4.61-45.11,10.18-67.29,16.7l-4.32,0.1l-2.37,0.32l-31.63-32.33l16.53,36.83l-1.28,1.84  l-0.63,2.44c-2.51,1.86-12.69,6.85-13.46,2.26l-2.57,0.59l-80.31-53.78c-14.24-8.71-16.46-9.39-6.67-2.03l63.43,61.78l-0.51,2.19  c-1.92,3.1-5.02,4.42-8.38,5.5c-21.06,7.05-41.8,14.91-62.2,23.58l-5.25,0.48c0.74,2.59-3.42,4.68-5.82,4.75l-4.28,2.43  c-6.99,1.35-33.79,5.41-38.53,3.67c-0.82-0.3-1.58-0.73-2.34-1.19V830.4c0.44-0.72,1.41-0.69,2.91,0.08  c3.35-1.45,12.05,4.79,10.57,8.52l0.92,0.82c1.15-0.32,2.41-0.55,3.56-0.11c7.49,2.89,20.27,16.03,26.13,22.06  c0.34,0.6,0.63,0.63,0.87,0.09l-5.53-5.55l-20.16-33.95c0.19-1.61,1.32-2.4,2.84-2.84l69.31,35.85  c-26.24-34.16-55.37-65.53-87.38-94.1c-1.74-1.61-2.93-3.69-4.04-5.76v-27.84C25.06,739.14,48.77,754.35,73.07,767.87z" />
<path class="cls-13" d="M272.8,470.61c-0.03,1.41-0.26,2.82-1.03,4.02c-3.56,5.55-14.83,14.58-20.5,18.81  c-4.79,3.58-13.88,10.21-19.25,11.73c-1.4,0.4-2.85,0.21-4.24-0.19c-0.67,0.59-1.46,1.22-2.36,1.89c0.21,2.9-3.18,3.88-4.41,1.21  c-1.73,0.77-3.45,1.63-5.16,2.57c0.14,2.86-1.99,2.84-3.82,1.06c-0.06,1.9,0.2,2.82,2.14,2.91c0.67-2.8,2.58-2.48,3.72,0.12  l5.89,1.44l0.05,1.33c2.22,2.87-0.96,5.95-3.88,3.78l-2.06,1.9c0.87,2.87-1.79,4.39-3.82,2.14l-2.68,2.56  c1.87,2.22-2.87,5.88-4.7,4.15c-0.39,1.51-0.16,2.17,0.67,2c0.54-2.35,2.48-2.95,3.61-0.55l2.39-1.63c0.06-2.67,1.95-3.26,3.41-0.99  l2.28-1.8c-0.47-2.96,4.3-4.09,5.33-1.36c1.6-0.12,1.64,0.58,0.28,1.48c0.48,0.98,0.57,1.99,0.34,3.05  c-0.39,1.86-8.07,11.4-10.88,11.1l-1.95,2.2c1.83,1.11,1.67,2.58-0.46,4.41c1.67-1.27,3.36-1.61,5.06-1.01  c1.66-1.58,3.73-1.03,6.2,1.65c0.34,2.01-0.32,4.05-1.99,6.1c1.11,3.38-2.95,7.4-6.07,8.53c0.86,0.69-1.5,1.91-1.43,1.8  c0.22-0.39,1.94-1.48,2.51-1.37c0.05-0.34,0.14-0.66,0.33-0.89c2.44-2.97,7.68-9.12,11.29-7.14c2.67-3.41,5.5,2.59,2.07,5.05  c0.8,1.44,0.23,2.96-1.71,4.57c5.88-2.77,10.91-6.92,15.11-12.44l1.64-0.3c1.47,2.28,3.01,3.37,4.61,3.25  c0.98-1.39,2.55-1.46,3.05,0.18c2.73,1.19,2.85,2.9,0.28,4.42c0.55,0.66,1.05,1.44,1.5,2.34c3.03-0.02,4.18,8.01,1.46,9.17  l1.52,2.31c0.85,0.45,1.8,0.97,2.26,1.87c1.01,1.99,5.44,16.83,5.3,18.55c-0.04,0.51-0.42,1-0.89,1.48  c0.02,0.85,0.41,1.53,1.15,2.04c1.53-0.8,2.08,2.49,0.99,3.5c4.56,6.86-3.44,8.36-9.16,7.06l-93.67,1.6l-26.38-1.8  c-10.43,0.48-20.66-0.4-30.7-2.64l-1.52-1.78c-8.12-21.02-27.89-34.09-51.67-27.83C54.08,545.5,31.38,517.18,0,510.72v-50.88  l4.15-1.49c5.85,0.53,11.71,0.63,17.59,0.57c65.65-0.65,130.05-1.34,196.49-3.03c18.06-0.18,36.4,0.29,53.84,2.69  C273.89,461.71,274.13,465.72,272.8,470.61z" />
<path class="cls-10" d="M285.24,1077l133.12,0.2l-2.95,4.07c-71.69,44.06-143.33,88.08-214.92,132.08l-2.02-1.01  c-0.92-0.09-1.84,0.09-2.76,0.14l-7.68,2.3c-61.84,3.04-125.08,6.14-186.74,9.16L0,1222.08v-15.36l0.8-2.39  c38.96-20.48,78.28-40.6,117.97-60.38c36.73-14.31,73.61-28.21,110.65-41.7c6.22-3.53,12.58-5.81,19.09-6.84l1.51-2.97  c10.15-6.44,20.77-11.92,31.87-16.42L285.24,1077z" />
<path class="cls-4" d="M0,1636.8V1416l1.07-3.03c47.94-34.44,96.13-68.3,144.56-101.61l-0.69-1.26c1.29-2.36,5-1.61,7.46-0.38  L93.15,1523.3L0,1636.8z" />
<path class="cls-12" d="M1050.35,910.92c0.63,1.76-0.23,4-2.56,6.73l151.05,0.86l1.16,1.93v68.31c-2.27,1.13-5.9,2.01-7.81,3.83  c-10.17,7.17-20.58,14.06-31.23,20.66l-4.14,0.65c0.4-3-0.15-4.75-3.09-5.1c-2.28-0.27-4.88-0.88-7.38-0.88l-85.65-0.04l-35.37,4.27  c-11.1-5.2-22.21-4.08-34.81-4.1c-31.86-0.06-62.42-3.37-93.81-3.64c-8.21-0.07-15.04,0.3-23.56-3.16  c31.58-22.49,63.95-43.67,99.15-61.36C1002.35,924.76,1023.01,926.16,1050.35,910.92z" />
<path class="cls-4" d="M116.23,978.46l-0.15,3.35c-6.77,11.6-13.02,23.54-18.75,35.81l10.02,2.01  c45.63,16.62,96.39-2.44,137.47-24.32c6.07-4.43,12.44-7.88,19.1-10.36l0.16-2.02l79.96-20.82c1.38,0.82,1.5,2.17,1.26,3.73  l-160.06,72.02l-6.63,0.88c0.28,1.5-0.62,2.88-2.7,4.12c-5.68,12.09-11.07,24.36-16.14,36.8l-2.21,0.29l-1.83,1.38  c-7.03-2.9-13.37-3.66-20.06,0.53c-2.41-1.3-4.31-3.27-5.67-5.91c-4.96,4.95-10,6.48-15.11,4.6c-6.05-4.29-12.3-6.8-18.74-7.52  c-10.96,2.96-20.39,7.98-28.28,15.06l20.6,4.64c3.73,2.9,1.85,4.1-1.68,5.82c-7.73,3.77-18.55,1.24-25.56-3.06  c-3.33,3.06-6.03,4.96-10.29,2.36c-0.49,2.43-1.64,4.33-3.46,5.7l-13.75-0.97c-3.81-0.28-6.79,0.45-8.95,2.17  c-0.64,7.36-3.8,9.83-9.49,7.42c-11.63,8.24-8.73,10.59,8.69,7.05c7.38,0.74,10.27,9.37,8.16,15.85c5.99-0.34,9.67,1.49,11.04,5.49  c8.72,0.52,16.48-1.17,23.26-5.07c12.7-1.68,19.05-2.51,19.05-2.51c-16.64-7.86-3.75-15.02,8.59-10.76  c6.71-1.68,12.28-0.92,16.73,2.3c2.41,7.74,6.21,9.15,11.38,4.23c7.91-0.64,16.76-2.46,18.85-11.25c-5.11-2.56-7.03-7.15-2.64-11.5  c7.47-7.4,19.17-6.34,28.39-3.85c31.86,2.9,23.16-11.64,0.06-9.89c-2.19-2.18-2.41-7.48,0.39-9.02c0.45-8.92,8.03-7.11,14.45-4.29  c3.06-3.57,7.18-7.36,10.44-1.62c8.22-6.12,14.24-2.57,21.48,2.42c4.98-0.48,9.69,1.3,14.13,5.34l3.56,0.33  c5.93-2.07,10.9,0.03,14.9,6.29c1.82,0.98,2.59,2.22,2.33,3.73c-43.27,22.31-96.45,33.14-142.75,56.94L0,1206.72v-161.28l0.91-2.34  c4.83-1.89,9.76-3.39,14.79-4.48c8.03,7.03,16.78,12.33,27.78,11.94c4.34,3.58,2.95,9.25-1.78,11.83l-13.2,4.27l1.6,0.93  c28.55-5.25,56.86-12.76,84.9-22.53c6.38-0.13,6.4-0.36,0.06-0.68c-22.96-10.6-46.36-20.16-70.19-28.67  c-5.91-1.65-10.6-4.48-14.07-8.49l0.64-2.01l48.29-5.86c7.46-8.05,14.38-16.57,20.77-25.54l3.19-0.77c0.78-0.72,1.59-1.4,2.47-1.98  c0.86-0.57,1.71-1.11,2.63-1.37c24.61-6.82,49.33-13.67,74.67-17.23c3.33-0.22,3.79,0.83,3.25,3.55l-65.15,22.63L116.23,978.46z" />
<path class="cls-12" d="M1200,762.26v86.92c-13.03,0.26-20.14,12.77-30.75,19.58c-5.82,3.73-15.57,2.56-20.65,9.51  c-57.7-21.91-74.89,3.4-87.53,4.64c-9.98,0.98-15.77,4.08-23.96,6.15c-3.76,0.95-65.39,7.14-73.16,5.35  c-3.55-1.61-0.31-7.77,1.74-10.16c4.17-4.66,8.75-8.9,13.75-12.7c39.55-30.71,79.74-60.55,120.58-89.51  c4.17-3.74,6.14-4.14,7.39-0.18l-24.82,35.12l50.19-32.14c1.71,0.14,2.39,1.37,2.67,3.03l-21.22,39.5  c18.87-23.69,38.95-46.26,60.24-67.73c0,0,1.7-0.66,5.1-1.97c1.88-0.4,4.08,0.02,6.59,1.29l13.08,1.16L1200,762.26z" />
<path class="cls-6" d="M195.7,1212.47l-140.76,83.94c3.28,3.62,5.99,5.35,7.25,9.32c8.13-2.63,14.86,1.91,20.32,6.27  c-2.58,1.14-3.63,0.96-4.63,1.87c-0.41,0.37-0.33,1.65,0.8,1.63c0.89,2.19-0.35,4-3.74,5.4c-2.54,1.63-9.06,5-11.32,3.04  c-1.8-0.28-3.14-1.72-4-4.3l-3.28-3.73c-4.03-4.61-8.26-3.99-12.7,1.88c-1.51,1.3-2.94,1.34-4.62,0.25  c-8.95-7.43-9.59-7.06-16.58,1.55c-7.82,1.16-14.04-2.8-18.65-11.86c-1.8-1.11-3.07-2.46-3.8-4.06v-81.6L195.7,1212.47z" />
<path class="cls-12" d="M301.86,440.63l-1.69,3.99c-8.54,8.38-16.91,16.84-25.12,25.39l-2.25,0.61c-4.8-1.35,1.38-6.44-1.6-10.49  l-14.48-1.21c-33.15-2.76-66.18,0.25-99.72,0.48l-107.26,0.74c-17.03,0.12-33.15,1.74-49.75-0.3v-26.88  c22.06,2.64,44.11,1.36,66.85,1.31l140.83-0.34c14.15-0.03,26.99,0.48,41.13-1.16C253.49,432.22,304.84,429.59,301.86,440.63z" />
<path class="cls-10" d="M144.94,1310.1c0.22-0.08,1.08,0.27,1.43,0.07c0.37-0.22,1.56,0.87,0.8,1.69L0,1416v-60.48l2.6-2.47  c19.12-9.61,38.27-19.16,57.44-28.64l3.58-0.46c4.99-2.67,11.27-3.9,15.06-8.45C100.54,1312.1,122.83,1311.24,144.94,1310.1z" />
<path class="cls-10" d="M45.14,961.81l1.36,1.62l-19.36,40.69c2.21,0.55,3.43,1.59,3.66,3.11c28.76,14.26,58.45,20.79,89.71,37.88  c-27.63,9.58-55.28,17.31-83.65,23.69c-4.07,0.92-7.88,2.36-11.45-2.68c5.29-3.15,10.9-3.59,16.37-5.82  c2.27-0.93,3.25-6.48,1.09-8.06c-10.11,0.8-20.32-4.54-27.64-11.95L0,1045.44v-78.72C15.17,966.26,30.11,963.46,45.14,961.81z" />
<path class="cls-15" d="M44.96,861.87c-0.28,0.59-0.57,0.54-0.87-0.09c-10.44-6.61-18.91-15.88-29.69-21.95L13.48,839  c-2.8-3.6-6.93-5.81-10.57-8.52L0,829.44v-73.92c38.12,30.35,67.29,67.67,98.37,105.6l-77.74-40.19L44.96,861.87z" />
<path class="cls-11" d="M1200,896.66v23.77l-93.37-0.43l-61.77-0.46c1.27-4.61,3.49-6.18,5.49-8.62c2.96-3.62,8.35-5.44,12.2-7.69  l2.1-1.83c3.89-0.92,6.91-4.81,11.76-4.81L1200,896.66z" />
<path class="cls-7" d="M1200,762.26c-6.93-1.78-15.73,0.6-20.45-4.58l0.54-3.1l8.07-9.17l-33.8,13.31c-2.48-0.55-3.35-1.68-2.61-3.39  c6.59-11.17,11.69-23.06,15.32-35.67c5.11-11.98,12.68-22.48,22.73-31.49c3.08-3.91,5.44-8.59,5.58-13.67  c-3.43,2.51-7.12,4.62-11.05,6.33c-2.46,0.56-4.03,0.62-4.39-2.19c7.01-4.18,13.29-9.46,20.06-14.06V762.26z" />
<path class="cls-4" d="M63.62,1323.95c-20.83,11.14-41.85,22.67-63.62,31.57v-51.84c8.3,0.65,8.25,14.23,19.65,14.72  c3.71,0.16,4.57-5.14,8.15-7.18c4.48-2.57,9.35,3.99,13.62,5.97l8.39-7.15C56.4,1312.1,62.11,1317.72,63.62,1323.95z" />
<path class="cls-15" d="M573.15,1320.01c-0.01,1.91,1.07,3.72,1.14,5.55c0.53,0.6,1.02,1.38,1.46,2.34l0.09,1.67  c0.06,1.1,0.21,1.34,0.99,2.12l0.22,3.54c0.9,0.58,1.87,0.65,2.94,0.22c48.08-15.65,102.82,5.2,131.38,47.35  c23.03,33.99,28.06,74.09,13.91,112.35c6.51,1.26,13.07,0.29,18.72,2.69c5.59-1.55,12.53,5,16.36,9.19  c8.92,9.76,12.46,22.95,11.59,35.98c65.1-68.06,180.41-15.18,179.6,75.93c19.23-1.98,36.69,9.54,42.48,27.98l1.08,0.43  c36.55-20.56,84.28-11.43,111.75,19.98c0.35,0.4,0.48,1.01,0.61,1.66c0.13,0.68,0.13,1.38,0.09,2.09l-296.28,0.76l-2.43-0.95  c-12.37-23.06-42.38-25.43-60.57-6.97c-1.71,0.97-2.69,0.43-2.97-1.55c3.15-45.13-38.98-82.41-82.6-63.35  c-2.83,0.27-2.93-0.73-3.13-3.52c4.37-18.09-8.08-30.15-25.21-33.09c-1.59-0.46-2.05-1.51-1.49-3.11  c9.1-22.01,4.48-45.33-15.5-59.35c-14.76-10.35-30.01-9.41-46.39-3.82c-5.69-16.71-13.91-30.03-30.7-37.23  c-12.09-5.18-25.74-5.54-38.22-1.47l-2.97-1c-0.38-1.17-0.73-2.35-0.95-3.55c-0.21-1.18-0.39-2.34-0.33-3.49  c1.37-26.47,3.04-52.98,5.29-79.39c0,0,0.91-2.21,2.73-6.64c10.75-16.46,54.19-44.21,54.87-61.71l2.22-0.79  c4.11,5.13,7.69,10.79,10.75,16.97L573.15,1320.01z" />
<path class="cls-14" d="M811.29,1671.82l-404.22-0.3l-1.79-1.13l8.55-68.01l79.71-110.25l3.56-34.78l2.02-0.93  c30.8-11.49,65.24,4.48,72.54,38.4c20.02-9.63,40.83-4.33,54.86,10.47c14.24,15.02,16.3,36.22,7.63,55.51  c9.34,1.03,17.3,5.29,22.19,10.87c6.32,7.21,6.92,15.22,4.79,26.16c14.57-6.68,28.83-7.93,43.74-2.64  c28.55,10.12,44.23,37.48,42.01,68.16c10.84-10.86,22.59-15.83,36.61-13.11C794.68,1652.41,807.25,1660.23,811.29,1671.82z" />
<path class="cls-2" d="M505.86,1363.35c-3.99,30.77-3.66,62.13-6.74,93.07l-3.62,36.27l-79.9,110.29l-8.53,68.54l-111.27-0.13  l33.97-147.4l117.07-106.44l39.13-37.76C492.4,1373.59,498.03,1366.8,505.86,1363.35z" />
<polygon class="cls-4" points="207.36,1671.75 97.77,1671.73 154.62,1508.94 317.58,1384.11 223.53,1650.71 " />
<path class="cls-15" d="M1012.83,1013.05l-39.57,91.29l-18.95,10.3c-3.27,4.24-6.88,8.3-10.82,12.16l-2.6,0.07l-79.66,91.36  c4.67-14.53,14.49-23.2,20.31-35.44l48.96-79.39l-82.75,56.01l47.93-48.88l-62.67,8.26c-2.96,1.55-5.15,4.63-7.21,6.48l-5.06,6.56  c-22.68,19.29-45.81,38.31-69.11,56.88c-2.17,1.73-4.76,2.83-7.31,3.86l-10.78,1.04c-39.9-0.16-79.24-0.36-118.03-0.59l-9.36-1.22  l-1.25-2.39c-2.45-0.95-2.79-4.06,0.14-4.55l1.41-2.36c-4-0.41-0.15-10.16,1.22-12.48l2.1-0.53c3.7-6.95,14.12-6.33,20.25-2.71  c5.24-16.03,21.21-23.38,35.68-13.91c8.55-26.13,38.36-35.36,59.96-17.71c3.67-21.83,23.16-31.67,42.43-20.07l0.79-0.33  c2.16-20.2,21.36-30.37,40.22-25.04c1.98-65.37,85.7-83.06,117.65-27.22c7.88-6.5,18.69-15.09,29.32-10.23  C972.45,1053.14,997.68,1018.66,1012.83,1013.05z" />
<path class="cls-6" d="M1179.68,1011.82c-7.24,34.21-22.22,66.06-34.75,100.67l36.26-31.69l-76.68,131.05l-88.04,50.23l19.3-36.9  l-43.46,49.31c-39.15,20.23-72.78,38.05-110.83,61.65l51.23-62.35c44.43-35.07,91.31-68.13,138.95-98.73l54.72-89.83  c1.07-1.75,0.69-4.39-0.3-5.17l1.2-4.08c12.8-16.15,25.02-32.75,36.68-49.81c3.53-4.68,7.55-8.89,11.59-13.1  c0.42-0.44,1.1-0.66,1.83-0.88C1178.12,1011.98,1178.89,1011.88,1179.68,1011.82z" />
<path class="cls-13" d="M744.31,1192.56l-3.23,4.62c-22.59,21.99-45.48,43.7-68.66,65.14l-13.67,9.78l-85.6,47.91  c-5.54-5.16-5.8-14.26-12.42-18.36l10.58-59.36l-1.13-1.68l28.41-37.21c1.75-4.35,3.1-8.87,4.04-13.55l2.26-0.45  c6.43,2.22,12.83,1.65,20.21,1.66C665.24,1191.08,704.92,1191.64,744.31,1192.56z" />
<path class="cls-6" d="M1198.15,1244.21l-2.22,4.67c-48.69,65.39-96.44,130.03-143.25,193.93l-52.48,64.56  c-1.59,0.14-2.48-0.89-3.19-2.28l90.2-151.42c-43.54,26.86-85.95,55.52-128.27,84.26c-4.39,3.95-6.66,4.66-7.75,0.55l92.2-85.73  l6.89-3.79c20.21-13.29,34.87-34.07,55.71-48.28C1135.87,1280.3,1167.31,1262.01,1198.15,1244.21z" />
<path class="cls-15" d="M1192.19,992.57c-4.18,4.86-10.01,10.32-10.54,16.2c-0.54,0.88-1.16,1.62-1.88,2.22  c-0.02,0.27-0.04,0.57-0.1,0.84c-21.18,19.32-33.63,47.72-53.59,68.24l-118.64,121.98c-1.11,0.51-1.24-0.12-0.38-1.86l0.84-1.14  l2.01-3.01l91.38-129.18c7.34-10.38,14.78-22.6,24.71-30l30.81-22.98C1167.73,1005.73,1180.73,998.04,1192.19,992.57z" />
<path class="cls-6" d="M658.76,1272.1c29.01-25.82,56.9-53.95,85.56-79.54c26-23.2,55.3-43.86,81.48-67.3l-40.92,79L658.76,1272.1z" />
<path class="cls-6" d="M954.31,1114.64c-13.82,71.05-8.07,49.03-52.86,99.25l39.43-87.03  C945.2,1121.91,948.34,1117.88,954.31,1114.64z" />
<path class="cls-13" d="M1007.06,1200.18l0.38,1.86c-2.41,2.62-3.01,9.59-8.89,10.08C1000.52,1207.38,1004.45,1203.74,1007.06,1200.18z  " />
<path class="cls-13" d="M847.76,1159.67c-2.85,3.47-6.07,7.1-10.56,8.19c2.88-4.1,6.05-6.89,9.44-9.04L847.76,1159.67z" />
<path class="cls-13" d="M860.74,1220.47c-2.41,3.83-5.47,7.05-9.12,10.23c0.86-3.57,2.61-6.91,5.37-8.65  C858.66,1219.77,859.91,1219.24,860.74,1220.47z" />
<path class="cls-15" d="M860.74,1220.47c-1.59,0.15-2.25,2.38-3.75,1.58l0.95-2.62c0.4-1.11,1.27-1.57,2.7-1.15  C861.57,1218.58,861.15,1219.82,860.74,1220.47z" />
<path class="cls-10" d="M665.15,885.91c-5.27,2.88-10.83,7.33-16.15,9.83l-7.75,5.08c-44.02,21.6-87.82,43.64-131.4,66.14  c-15.91,9.25-32.33,17.4-49.24,24.44l-124.68,52.66l-16.35,7.9l-35.86,9.52c-5.39,0.33-4.03-4.28-1.53-7.39l4.15-5.16  c-25.84-3.65-51.9-5.58-78.18-5.77c-9.2-0.1-18.22-1.04-27.07-2.82l-2.48-1.61l166.52-74.92l-81.21,21.15l-5.45,1.94l-70.04,0.25  c-9.04,1.79-18.12,3.03-27.25,3.72c-8.88-0.94-37.69-5.53-43.22-10.43c-0.65-0.57-1.2-1.25-1.74-1.95l70.47-24.48  c-29.02,3.6-55.96,11.94-83.01,19.06c-1.15,0.24-2.3,0.44-3.46,0.5c-1.15,0.06-2.27,0.11-3.31-0.15  c-13.7-3.35-27.34-7.34-40.57-12.25c-1-0.37-1.9-1.04-2.81-1.73c-0.92-0.7-1.76-1.51-2.57-2.36c24.11-12.51,51.12-18.89,75.83-29.56  c0.45-1.55,0.67-2.33,0.67-2.33c8.38-1.4,16.27-3.75,23.65-7.04l2.3,0.62c4.9,0.9,10.61-3.19,14.09-4.7l1.22-1.84  c5.31-0.97,10.41-2.97,15.29-6.01l2.24,1.19c32.72-11.08,65.45-18.58,99.71-23.36l2.21,0.62l2.4,9.93c1.69,2.12,2.5,4.11,2.44,5.96  l0.5,1.59c-2.35,3.12-6.21,5.06-11.58,5.82L410,906.59c1.68,2.05,2.49,3.05-0.3,4.41c-37.86,11.99-76.81,20.61-115.92,27.79  c26.39-1.8,52.59-3.99,78.6-6.55c15.94-4.29,31.21-10.72,45.81-19.3c17.8-7.56,36.78-12.46,56.92-14.7  c70.61-10.45,139.76-20.77,207.45-30.95c1.94,1.03,2.9,1.57,1.99,3.69c-0.52,1.21-15.47,15.18-16.59,15.38  C666.97,886.54,666.04,886.39,665.15,885.91z" />
<polygon class="cls-4" points="198.46,1212.34 418.36,1077.2 345.14,1343.55 155.93,1469.39 " />
<path class="cls-4" d="M757.63,818.59c3.06,0,7.27-0.58,10.19,0.19l3.81-1.05c5.74,0.61,26.59,3.38,30.3,5.3  c2.59,1.34,1.09,7.91-2.42,6.52l-110.29,83.41l-39.81,133.1l-71.61,48.42c25.61-54.14,49.22-105.17,70.91-158.66  c5.26-17.32,13.36-32.97,16.43-49.91c6.68-4.09,11.83-10.73,18.83-16.9l-68.67,10.45c-58.88,8.96-117.53,14.91-176,27.84  c-22.68,5.01-41.56,21.73-64.67,26.45c-13.37,2.73-27.46,2.82-41.5,3.73c-32.33,2.09-63.18,5.2-94.99,11.18  c-15.98,3-31.18,5.91-47.74,4.88c11.81-4.79,23.76-5.82,35.97-7c53.82-5.22,134.24-21.45,184.82-38.04l-135.54,1.44  c5.07-6.69,14.12-3.38,17.35-9.4l2.58-0.68c10.59,5.53,23.47,3.31,34.31,0.06l-3.82-9.87l1.31-1.95l0.25-2.02l84.92-18.05  l-9.61-2.76l-0.78-2.21l-0.48-1.23c10.73-2.34,21.66-4.52,32.8-6.55l0.32-0.79l1.79-1.22c10.48,3.64,22.38,0.11,32.59-3.12  c-1.01-2.16-0.8-3.56,0.65-4.22c1.96-0.32,3.46,0.59,4.52,2.73l24.96-3.77l1.65,1.69c0.24-1,1.31-1.15,2.23-0.92  c0.83-2.72,2.3-2.85,3.45-0.2c0.71-0.47,1.5-0.93,2.39-1.37c0.44-2.33,2.86-3.11,4.53-1.26l0.56-2.04  c17.26-2.82,34.52-5.64,51.79-8.47l1.44,1.71c1.96-1.93,3.42-0.33,2.06,2l2.16,1.08c0.88,21.7,18.65,31.37,37.69,22.3l8.12-0.43  l-8.37-30.44l1.48-1.85l2.92-1.96l13.16-0.44c4.38-1.1,8.3-1.03,11.76,0.2c2.32-4.28,4.65-0.19,5.51,3.29  c0.61,13.52,2.41,15.62,16.01,17.51c7.98,1.11,16.25,0.76,24.09-1.04l-7.53-20.58l1.33-1.96l1.08-1.93  c5.57-0.07,11.14-0.13,16.71-0.2l1.4,1.9l5.72-2.05c15.15-1.46,34.14-3.06,49.16-2.72C753.87,816.78,755.8,817.7,757.63,818.59z" />
<path class="cls-4" d="M649.01,895.74c-37.12,70.85-77.36,140.36-116.6,210.78c-14.49,26.01-32.59,49.1-48.94,73.87  c-22.15,18.87-43.58,37.14-68.93,55.52l46.07-244.5C521.83,957.4,585.35,925.79,649.01,895.74z" />
<path class="cls-4" d="M625.02,1103.93l0.16,5.66c-5.07,19.07-9.61,38.24-13.63,57.49l-1.78,2.39c-0.88,4.38-3.98,8.34-3.32,13.01  c-0.39,0.89-0.86,1.68-1.41,2.36c-0.41,1.34,0.44,3.28-0.14,4.55c-2.26,4.92-1.79,11.35-5.41,16.08l-28.17,36.81  c-14.66,8.88-26.77,21.39-40.94,32.38l-145.3,112.69l13.95-67.97c2.99-14.56,5.03-31.71,13.33-44.12l72.55-79.86  c13.7-15.08,23.41-34.27,39.37-47.27c23.81-19.41,48.17-37.79,73.36-55.9l32.55-23.4C627.81,1081.19,623.29,1093.4,625.02,1103.93z" />
<path class="cls-12" d="M956.06,1052.25c-11.46-0.62-21.54,4.53-29.43,13.88c-11.24-20.25-28.97-33.13-50.29-34.96  c-35.99-3.08-65.74,23.04-65.36,61.41c-10.17-3.68-20.15-3.15-28.82,2.63c-7.14,4.76-11.56,13.38-11.63,23.64  c-9.63-6.47-19.44-8.99-28.96-4.53c-8.88,4.16-12.6,13.01-14.26,24.55c-11.53-9.39-23.07-13.62-36.45-9.34  c-11.19,3.58-20.65,12.39-23.47,26.68c-7.41-5.01-14.65-7.7-23.16-3.9c-6.26,2.79-10.83,9.39-13.4,18.02  c-7.25-6.75-13.92-4.48-21.08-0.86c4.43-21.97,7.99-44.47,15.25-65.55l37.39-33.5l2.01-1.95c2.1-1.07,3.97-3.16,5.64-4.76l2.11-1.88  c1.19-0.97,2.5-1.87,3.6-2.96l2.02-1.97c1.25-0.42,1.26-2.11,1.96-2.92l2.15-5.48l55.29-64.77l0.01-23.25l1.92-1.4  c29.33,11.34,32.22,19.09,67.62,28.49C854.83,1000.34,921.48,1026.85,956.06,1052.25z" />
<path class="cls-12" d="M936.94,821.82l1.92-2.16c10.86-13.98,21.64-28.41,33.65-41.29c2.55-0.79,5.21-2.05,7.99-3.77  c9.13,1.61,18.24,3.42,27.35,5.43l57.6,0.44l1.15,1.93l-2.02,3.47c-29.46,28.95-58.31,57.86-86.56,86.72  c-3.94,3.97-8.08,7.25-12.41,9.84c-4.27,4.33-11.75,5.89-9.71,13.43c-11.88,0.52-24.08-1.57-35.47-1.53l-53.16,0.2l-63.77,1.72  c-9.5,0.26-20.17,2.16-27.81-3.14c-1.43-1.26-0.42-4.75,0.86-6.22c0-0.52-0.03-1.14,0.12-1.64c0.99-1.67,1.87-3.38,2.63-5.15  c0.16-1.5,0.79-2.94,1.22-4.38l2.64-5.21c0.15-1.53,0.74-2.98,1.2-4.43c1-1.68,1.87-3.41,2.63-5.19c0.12-1.57,0.57-3.04,1.21-4.47  c0.61-1.14,1.22-2.18,1.84-3.12c-0.02-0.22-0.05-0.53,0.02-0.74c1.04-1.6,1.93-3.31,2.67-5.13c0.24-1.43,0.57-3.2,1.23-4.5  c1.82-2.63,3.3-5.5,4.45-8.6l1.14-4.79c0.59-1.18,2.88-3.75,1.47-5.06c-11.28-2.18-22.49-2.89-33.17-5.71  c19.89-17.57,43.73-26.35,65.28-40.16l3.4-1.69l43.54,2.73c3.26,2.05,6.77,6.76,6.07,10.54l-49.94,43.12  c0.08,0.6,0.1,1.11-0.14,1.29c-6.66,5-14.01,9.72-21.01,13.96c-0.65,0.5-0.7,0.83,0,0.96c6.57-5.13,13.59-10.21,20.67-14.69  c0.28-0.18,0.77-0.03,1.32,0.21l69.02-41.43c33.96-20.38,60.02-50.47,94.76-72.34l-40.58,51.68l-34.37,60.18  C932.04,831.27,932.89,824.95,936.94,821.82z" />
<path class="cls-6" d="M178.6,1038.73c34.91,4.64,74.12,1.96,111.47,8.48c-2.73,4.12-6.86,7.22-8.93,13.02  c19-5.13,37.56-8.87,54.79-16.15l-50.7,32.93c-13.36,3.7-25,12.37-36.72,18.41c-4.66-1.49-6.32-7.05-11.41-9.43  c-5.56,2.08-11.14,2.16-14.83-2.42c-2.94-3.64-6.8-0.92-9.72-2.18c-3.28-1.41-6.2-4.84-9.82-5.35c-4.02-0.57-7.45,1.1-11.02,4.51  c-1.95-3.09-1.97-5.52-5.15-3.74c-1.29,0.72-3.44,4.41-5.06,3.93l-8.87-2.6c-1.96-0.58-2.64,4.1-5.4,5.09  c-1.7,3.13-9.72-0.02-9.69-3.28l14.81-34.7C174,1041.39,175.54,1040.11,178.6,1038.73z" />
<path class="cls-2" d="M738.6,937.86l0.51,21.23l0.04,25.29l-59.41,69.62c1.11-23.24,8.85-46.81,13.98-70.26  c11.96-13.16,24.53-25.61,34.91-39.88C731.25,940.27,734.92,937.09,738.6,937.86z" />
<path class="cls-7" d="M798.38,834.34c-0.71,2.98-1.29,7.58-4.45,8.6C795.42,840.05,795.73,836.28,798.38,834.34z" />
<path class="cls-6" d="M776.53,886.89c-0.02,2.11-0.73,4.12-0.86,6.22c-0.26,0.55-1.41,0.7-1.96,0.66  C774.51,891.44,773.61,887.33,776.53,886.89z" />
<path class="cls-6" d="M773.67,894.54c-0.42,2.42-1.02,5.76-3.81,6.08C770.36,898.26,770.96,895,773.67,894.54z" />
<path class="cls-7" d="M792.7,847.45c-0.33,1.98,0.05,5.28-2.67,5.13C790.65,850.78,790.47,847.73,792.7,847.45z" />
<path class="cls-7" d="M786.96,860.9c-0.15,1.96-0.15,5.17-2.63,5.19C784.91,864.26,784.64,861.14,786.96,860.9z" />
<path class="cls-7" d="M783.14,870.51c-0.2,1.98-0.15,5.11-2.64,5.21C781.04,873.87,780.79,870.75,783.14,870.51z" />
<path class="cls-7" d="M779.28,880.1c-0.21,1.96-0.1,5.18-2.63,5.15C777.18,883.43,777,880.36,779.28,880.1z" />
<path class="cls-6" d="M751.48,920.69c-1.26,1.85-3.18,3.39-4.62,4.83C747.35,923.21,749.5,921.78,751.48,920.69z" />
<path class="cls-1" d="M745.66,226.87c0.9,0.38,1.69,0.86,2.37,1.44l2.51,0.12c0.91-0.39,1.77,0.28,2.3,0.99  c2.51,0.58,5.02,1.55,7.31,2.73c25.32,13.03,42.83,37.21,47.31,65.3c1.15,0.23,1.06,1.24,0.77,2.25l0.33,5.37  c1.14,0.71,1.2,1.83-0.24,2.12l0.97,0.7c-0.65,2.04-0.44,3.81,0.63,5.32c1.88,0.08,2.01,0.84,0.25,1.52c0.81,0.28,1.68,0.64,2.1,1.4  c0.71,1.28,0.08,14.54-2.08,16.06c-1.03,0.47-2.18,0.9-3.33,0.64c-3.25-0.76-16.06-8.58-19.45-11l-1.55-2.98  c0.65-7.31,0.25-14.67,0.1-22c-0.81-0.39-1.02-1.17-0.61-2.34c-3.94-41.31-16.97-47.07-45.17-67.98  C742.01,226.68,743.83,226.89,745.66,226.87z" />
<path class="cls-10" d="M724.65,315.01l10.72,6.91c1.47-0.45,2.75-0.02,3.82,1.28l6.57-1.57c2.45-0.23,4.68,4.44,3.75,6.54  c1.42,1.09,1.81,2.94,1.18,5.56c0.27,4.12,1.41,7.88,3.41,11.3c13.19-2.4,24.74,2.91,29.58,15.82c4.6,12.27,13.05,35.01,13.99,47.33  c0.43,5.56,0.4,6.87-4.29,3.22c-6.54-12.23-15.09-22.13-25.66-29.73c-5.47-1.64-10.33-4.02-14.58-7.11  c-4.65-6.74-7.86-14.3-9.63-22.68c-4.2,5.66-7.48,11.77-9.84,18.31l-2.28,1.37c-3.89,10.2-4.56,21.28-2.55,31.95  c4.32,14.91,6.72,29.85,7.2,44.82c-1.96,15.27-9.56,18.72-10.1,1.82c-3.22,14.99-7.17,31.69-14.78,45.15  c-4.33,7.66-7.43,8.12-7.65,0.23c-4.41,12.34-7.87,25-10.19,37.91c-0.6,2.98-1.89,3.09-4.32,2.54l-13.66-24.71  c2.78,21.87,4.56,44.34,0,66.1c-0.69,3.31-4.02,18.73-6.47,18.1c-0.96-0.24-2.1-2-2.8-3.11c-1.53-8.9-3.52-17.67-5.98-26.3  c0.45,14.13-1.1,28.4-5.59,41.85c-0.94,2.81-5.15,15.37-7.41,14.58c-0.74-0.26-1.75-2.02-2.26-3.05c0.29-7.65-0.19-15.23-1.43-22.74  c-2.85,15.11-10.81,37.54-23.15,47.36c-6.53,5.2-6.15-2.09-4.83-7.31l-3.32,12.66c-0.81,6.07-2.45,11.77-4.94,17.1l1.62,2.74  c-1.9,9.27-2.99,18.61-3.28,28.02l-1.73,2.62c1.96,1.22,2.61,3.15,1.93,5.8l-1.75,15.33l-1.94,1.77l-2.17,0.48  c-6.15-14.52-25.92-4.72-24.09,8.56l-1.79,1.5c-0.78,2.15-1.3,4.38-1.57,6.69c-3.26,5.01-8.88-0.55-5.18-3.84  c-1.39-0.95-2.78-2.08-4.17-3.37c-2.82-5.03-4.6-10.59-5.36-16.69c-5.15,11.12-8.21,9.86-8.65-2.85l0.65-13.98  c-4.39,11.62-7.87,13.17-10.44,4.66l-2.12-16.71c-3.95,5.07-11.46,10.12-10.78,0.03c0.46-6.73,5.57-20.24,11.32-23.7l0.21-2.38  c1.11-1.25,9.63-9.39,10.32-9.47c1.85-0.22,2.66,0.69,3.35,2.37l-3.86,14.03c10.73-2.63,16.84-13.14,20.44-22.89  c3.79-4.73,4.7-0.33,5.14,3.99c-0.19,5.67-0.88,11.3-2.06,16.88c8.88-12.13,10.63-27.22,8.32-41.7  c-2.51-10.41-4.23-20.82-5.17-31.23l1.1-4.09l22.19-32.91c1.62-0.49,2.7,0.4,3.59,1.81l-3.18,23.45  c14.59-12.38,24.85-29.91,27.34-49.04c2.79-3.88,5.42,1.04,5.65,4.81c0.69,6.7,0.83,13.42,0.42,20.17  c18.15-24.25,14.45-58.11,6.21-85.86c-6.16-20.72-16.28-43.99-29.95-60.42c-5.51-2.71-6.96-5.26-4.34-7.65  c5.46-1.49,10.97-2.32,16.51-2.51c10.75,23.01,22.95,45.19,36.62,66.53c0.08-11.14,1.9-21.83,5.47-32.09  c1.76-2.43,2.66-3.51,4.61-1.16c2.48,7.26,5.19,14.4,8.11,21.44c4.65-16.04,9.99-31.84,16-47.39c3.59-3.23,5.28-1.27,5.08,5.89  c8.34-17.3,17.18-34.35,26.53-51.13c1.69-3.26,2.99-6.65,1.29-10.21c-6.26-6.69-10.85-14.17-13.78-22.45l1.46-2.16l2.02-0.82  l13.45,7.58c-2.46-8.06-7.21-15.24-14.25-21.54l0.7-2.28l1.95-1.26C718.54,311.18,721.71,312.89,724.65,315.01z" />
<path class="cls-15" d="M785.87,318.87c8.27,4.15,15.86,9.87,24.33,13.34c2.06,7.53,8.14,13.74,7.85,21.88  c0.97,0.24,1.1,1.31,0.93,2.22c6.1,30.01,23.55,49.98,31.83,76.58c-0.31,5.26-6.83,5.49-11.18,3.46l-10.68-6.89l-0.53,2.86  c2.66,4.87,6.94,9.03,12.86,12.47c1.33,1.2,1.23,2.17-0.23,3.37c-0.14,5.57-1.8,9.29-4.98,11.14l1.23,1.34  c1.61-0.09,1.16,1.13-0.03,1.91c1.02,1.58,0.48,2.12-1.09,1.07c-1.1,1.12-2.46,2.01-4.1,2.68c-0.05,1.88-0.81,1.98-1.62,0.26  c-0.44,0.65-1.17,1.23-2.2,1.75c0.04,2.69-3.59,4.15-5.44,2.08c-2.1,2.49-3.42,3.49-5.08,0.18c-1.73,2.08-4.54,1.81-8.42-0.82  c-10.56-9.23-21.43-18.31-34.19-24.44c-29.11-12.02-51.25-24.06-47-60.37c0.54-4.58,1.63-9.07,3.28-13.38  c1.7-8.82,7.87-15.8,12.75-24.72c14.21,54.32,15.47,4.72,52.5,66.2c-2.95-17.14-8.89-34.27-14.41-50.56  c-4.45-13.12-14.7-17.45-28.69-15.76c-4.23-4.42-5.86-13.01-4.02-18.53l2.97-1.33c9.38,2.88,18.87,5.22,28.47,7.04  c0.25-4.03-0.44-8.35-2.09-12.95l1.5-2.1L785.87,318.87z" />
<path class="cls-1" d="M690.08,235.13c0.93-0.26,1.94-0.09,2.23,0.92c33.26,8.25,61.16,31.52,77.59,61.5l1.92,3.01  c0.87,1.43,1.62,2.93,1.96,4.58c0.64,0.55,1.22,1.3,1.74,2.26c-0.16,4.2,4.12,7.82,4.86,11.44c1.12,5.55,3.29,10.91,3.14,17.22  c-12.16-0.86-23-5.72-34-7.88c-1.69-1.1-3.49-4.44-3.75-6.54c-3.05-0.9-2.83-3.75-0.81-5.82c-7.24-31.71-33.66-59.09-64.05-70.36  c-1.86-0.73-3.6-1.56-5.2-2.49c-1.43-0.31-2.94-0.33-4.39-0.39c-0.91-0.38-1.7-0.86-2.37-1.45c-0.84,0-1.67-0.06-2.51-0.11  c-1.13,0.22-2.79,0.24-3.21-0.91l-3.54-0.19c-1.55,0.48-2.62,0.23-3.19-0.77c-3.57-0.29-9.84-0.54-13.12-0.51  c-2.21-0.19-2.36-1.64-0.23-2.38l1.82-0.28c0.53-0.89,1.6-1.17,3.21-0.84c0.78,0.18,1.73-0.22,2.53-0.09  c0.36-0.74,1.16-1.21,2.4-1.42C665.38,233.33,678.11,232.07,690.08,235.13z" />
<path class="cls-14" d="M744.95,315.81c0.45,1.95,0.56,3.79,0.81,5.82c-0.5,3-2.94,2.68-4.95,3.23c-3.95,1.07-3.69-1.8-5.44-2.93  C739.41,321.57,741.52,317.68,744.95,315.81z" />
<path class="cls-7" d="M680.9,245.45c-1.78-0.66-5.29,0.42-5.2-2.49C677.53,243.36,680.54,243.28,680.9,245.45z" />
<path class="cls-13" d="M822.81,470.38l1.02,2.16c-1.37,2.83,0.41,3.24,5.32,1.24c7.92-0.04,15.88,0.83,23.88,2.62  c70.76,0.55,141.48,0,212.16-1.66c17.32-0.15,34.63,0.63,51.89,2.1c2.45,1.22,4.49,2.9,6.14,5.05c5.62,13.72-19.44-4.75-40.92,20.25  c-9.13,10.62-12.05,24.02-8.59,38.1c-9.61-0.02-15.51,5.63-18.17,14.06c-21.95-16.64-49.23-21.53-74.8-10.88  c-22.3,9.29-38.83,29.6-42.41,55.29c-14.64-10.86-30.92-7.76-41.57,4.38l-3.78,1.4c-14.01-1.02-28.04-1.14-42.1-0.37l-107.66-0.58  c-9.92,4.44-11.42,1.3-11.78-8.34c-1.6-2.07-2.16-4.9-1.68-8.51c-2.72-15.3-0.97-19.68,5.24-13.12l2.19,4.08  c-0.2-19.39-3.85-38.48-10.96-57.26c3.09-10.49,7.82-20.44,14.19-29.85l2.61-1.02l2.31-0.99c9.34,4.35,21.35,6.18,29.61-1.14  l2.48,0.21l1.17,0.06c3.04,0.66,3.58,4.03,1.02,5.63c0.93,1.02,1.86,1.15,2.79,0.38c0.77-1.41,1.41-1.44,1.92-0.1  c2.4,1.71,3.93,4.51,4.59,8.4c2.86,7.65,3.58,8.18,2.15,1.59c0.1-2.56,0.57-7.48,4.03-4.72c2.39,6.88,5.16,13.57,8.32,20.06  c-0.82-17.3,6.2-33.93,14.33-48.33C819.32,470.78,821.26,470.84,822.81,470.38z" />
<path class="cls-1" d="M731.38,371.55c-3.02,15.64-3.45,32.69,5.26,46.92c11.9,19.45,40.12,17.58,71.09,47.7  c2.71,2.64,6.87,3.96,9.99,4.38c1.22,2.91-0.49,5.41-2.02,8.19c-7.9,14.33-12,30.12-9.79,46.68c-7.29-7.82-8.93-17.45-12.65-26.42  c-1.41,6.34,1.87,11.36,2.27,18.21c-5.89-6.95-9.17-15.21-11.22-23.66c-0.83-0.45-2.2-0.19-4.09,0.81l-0.62-1.09  c0.14-1.88-0.83-3.79-1.02-5.63c-0.64-0.19-0.61-0.53-0.05-0.99c-0.86-0.17-0.79-0.44,0.1-0.81c-0.33-1.51-0.36-2.91-0.09-4.21  l-1.94-1.18c-0.76-3.03-1.99-13.53,1.9-13.69c-0.32-2.36-0.55-4.78-0.03-7.12l-2.11-0.77c-1.59-5.45-6.73-8.77-11.75-10.89  c0.24-1.9,0.61-0.76-0.54,1.68c-5.96,12.59-12.13,25.23-18.61,37.47l-2.47,2.35c-4.55,10.05-12.56,18.94-14.92,30.77  c6.33,20.98,13.66,41.67,10.52,63.64c-3.51-3.91-3.48-9.52-8.55-12.34c0.46,8.01,2.6,16.11,1.36,23.61  c1.25,6.34-2.03,22.1-5.56,27.15c-1.82,2.61-2.51,2-4.69-0.07c-1.09-11.37-2.03-11.07-2.81,0.9c-0.91,4.31-5.5,24.86-8.88,24.84  c-0.66,0-1.92-1.04-2.65-1.67l-0.28-8.74c-1.76,6.83-3.78,14.11-7.75,20.03c-8.58,12.79-7.13-5.67-5.8-11.97l-5.71,14.54  c-2.51,7.11-5.28,9.25-8.32,6.42c1.63-9.29,0.18-9.99-4.35-2.1c-0.78,2.79-2.04,4.56-3.79,5.33c-0.46,0.95-1.02,1.71-1.7,2.3  c2.1,1.89,1.56,3.88-1.22,4.42c-0.82,2.12-1.69,4.16-2.62,6.11c2.24,2.05,1.31,5.08-1.26,6.35c-0.36,1.33-0.87,2.42-1.53,3.27  c2.7,0.46,2.5,1.95-0.16,2.52c0.49,7.57,0.24,15.05-0.76,22.46c2.67,1.08,2.47,4.62-0.17,5.6c-10.17,14.66-8.55,32.29-4.89,49.03  l2.7,3.21c3.58,15.01,9.17,29.62,17.9,42.42l0.61,4.17l8.82,24.1c-12.03,2.68-26.15,3.14-38.4-1.5c-9.14-3.46-2.84-21.49-9.83-19.82  l-2.46-1.56c-1.17-4.89-3.02-9.47-5.56-13.75c-7.26,6.57-10.41,3.07-9.46-10.51c-0.94-2.11-1.17-4-0.67-5.67l-0.6-2.31  c12.3-23.89,15.38-55.67,4.07-80.59c-1.87-4.06-1.8-7.2,0.18-9.41l-2.67-0.07c2.59,2.12-0.97,6.6-4.05,5.84  c-1.08,1.52-1.67,1-0.98-0.78c-2.71-1.28-3.08-4.68-0.08-5.79l-1.48-2.44c0.6-5.02,0.72-10.06,0.36-15.13  c-2.27,2.92-4.32,4.07-6.2,0.14l1.89-17.47c-0.9,1.46-2.07,1.97-3.49,1.51c1.51-15.07,6.36-29.7,10.71-44.77  c1.84,8.29-1.31,15.23-1.54,23.55c16.46-15.95,24.99-36.09,25.71-58.74c5.4,11.57,4.56,23.01,4.74,35.14  c10.61-21.39,13.11-43.59,10.57-67.31c6.95,12.86,7.99,26.62,11.21,40.2c11.08-30.63,8.26-61.12,3.29-93.62l19.16,34.66  c3.17-18.82,8.36-35.51,15-52.07c1.56,6.35-2.09,11.22,0.25,16.96c11.19-20.17,17.08-41.24,19.75-63.93l3.37,24.24  C746.16,437.23,713.9,401.44,731.38,371.55z" />
<path class="cls-7" d="M1114.52,671.08l2.12,1.79c0.94,0.08,1.74,0.87,2.63,1.04c1.42,0.95,2.77,1.89,4.06,2.82  c0.24,0.01,0.49-0.02,0.73,0.02l4.12,2.83c0.92,0.03,1.74,0.93,2.61,1.06c1.5,0.86,2.88,1.82,4.14,2.87l2.58,0.99l2.99,2.77  c0.27,0.06,0.58,0.03,0.86,0.04l2.19,1.89l10.57,6.25c0.6,0.65,1.23,1.41,1.24,2.33c0.05,5.5-15.51,19.36-20.3,22.74  c-14.6,9.45-28.13,19.94-40.57,31.46c-7,10.96-14.67,21.6-24.63,30.13l-3.25,0.3l-56.39-0.31c-10.71-0.06-28.47-7.85-32.23-4.89  l-3.57,2.81c-0.29,0.22-2.33,0.44-1.9-1.62c5.6-6.01,14.18-8.4,21.78-11.62c0.75-0.39,1.51-0.94,2.29-1.64  c1.17-0.4,2.33-0.88,3.55-1.1l2.12-1.83c1.44-1.06,2.49-2.52,3.64-3.87l0.9-0.97c2.31-8.11,6.55-15.6,10.76-22.92l1.77-2.18  c0.78-4.64,4.43-7.84,5.95-12.17l1.81-2.17l3.94-9.32c0.79-0.52,1.15-1.22,1.09-2.09c0.8-3.4,2.76-6.79,2.95-10.33l1.4-2.37  c-0.02-4.61,2.42-8.96,0.87-14.66l-29.87,25.19c-1.84-21.85,20.32-46.01,28-67.32c1.87-5.19-1.51-10.77-0.75-15.72  c-1.03-0.28-1.1-1.37-0.74-2.28c0-2.17-0.46-5.06-0.31-7.3c-0.54-1.57-1-3.32-1.37-5.26c0.16-1.48,0.22-3.16-0.16-4.61  c0.02-1.78,0.08-2.98,1.81-1.85c12.95,7.64,21.05,21.63,34.06,30.25c9.27,6.15,20.08,9.13,26.69,18.23  C1100.85,656.91,1105.78,665.97,1114.52,671.08z" />
<path class="cls-14" d="M896.76,603.09c-5.37,6.12-4.17,16.21-5.53,24.18c-9.52-5.37-19.53-6.5-29.27-2.58  c-8.36,3.37-12.6,12.59-14.96,21.8c-12.25-0.15-22.98,6.3-29.5,17.87l-19.27-3.85c-24.54-4.91-42.31,12.27-49.66,32.74  c-15.66-1.52-37.95,2.37-39.5,22.48c-10.72,0.38-19.97,6.25-26.85,16.54c-7.04-4.42-13.6-7.2-20.81-9.39  c-0.14-1.87,0.09-3.73,0.17-5.6c1-7.4,1.26-14.88,0.76-22.46c0.22-0.78,0.05-1.72,0.16-2.52c0.51-0.97,1.02-2.06,1.53-3.27  c-0.19-2.2,0.82-4.23,1.26-6.35c0.93-2.03,1.81-4.07,2.62-6.11c0.29-1.51,0.67-2.98,1.22-4.42l1.7-2.3  c0.22-5.76,5.89-11.55,10.92-16.72l-0.92,14.44c6.78-9.08,7.84-19.38,13.47-28.78c1.95,7.64-1.14,14.53-0.52,22.4  c8.68-10.1,10.38-22.42,13.53-35.1c3.18,7.28-0.29,14.25,1.71,21.12c6.59-15.01,8.91-30.28,10.39-45.42  c3.38,7.03,1.58,13.83,4.09,21.59c3.43-9.4,6.37-18.76,7.93-28.19c2.71,1.75,1.42,5.75,2.84,7.45c2.49,2.97,5.83-1.04,8.84-1.02  l105.95,0.57C865.27,602.28,880.8,600.49,896.76,603.09z" />
<path class="cls-12" d="M1139.9,436.98c-1.01,1.83-2.56,4.78-4.24,6.51l-1.78,2.19c-0.82,1.39-1.11,3.14-2.04,4.46  c-1.52,1.66-2.74,3.69-3.65,6.1c-0.8,5.39-3.36,10.41-3.31,15.89c-0.55,0.53-0.74,1.29-0.58,2.25c0.41,2.55-1.06,5.06-1.08,7.52  c-2.53,2.05-4.39-3.01-6.48-3.18c-21.59-1.8-42.9-2.49-64.43-1.8c-66.06,2.1-132.23,1.29-198.66,1.42  c-9.36,0.02-19.88-5.98-28.66-1.02c-1.1,0.62-4.19-2.59-3.95-3.68c0.21-0.94,1.29-2.04,1.77-3.25c1.86-0.55,3.45-1.94,5.44-2.08  l2.2-1.75l1.62-0.26l4.1-2.68l1.09-1.07c0.52-1.18,1.55-2.21,2.81-2.65c-0.4-1.79,0.77-3.09,3.51-3.93  c-1.76-1.66-0.62-7.32,1.05-8.61c-0.41-2.51,0.79-5.1,3.6-7.76c1.19-3.05,2.87-4.93,5.04-5.66c48.76-2.85,99.63,0.53,148.98-0.88  c20.99-0.6,40.83-0.05,61.5-1.67c17.27-1.36,33.72-4.12,51.82-1.36C1123.29,431.21,1135.68,427.66,1139.9,436.98z" />
<path class="cls-14" d="M876.62,715.32l-1.81,2.68c-38.52,29.43-82.47,49.38-125.17,67.99c-16.9,9.16-32.57,20.29-47,33.39l-5.7,2.13  l-19.18,0.22c-10.93-14.72-17.35-32.08-21.22-49.8c12.73-5.87,24.22-13.89,37.15-20.85l106.98-57.62  C826.5,700.73,852.74,705.21,876.62,715.32z" />
<path class="cls-14" d="M1179.55,757.67c-30.39,26.51-46.8,53.92-74.6,82.88l29.22-54.37l-58.99,37.82l31.17-43.99  c-49.2,33.5-94.15,69.63-140.66,104.22l-0.07-1.81l53.99-54.7c15.59-15.8,30.67-31.17,47.01-45.33  c10.04-8.7,16.83-16.58,24.48-28.96c10.82-17.52,56.72-36.29,63.04-57.99c10.09-1.7,16.92-11.5,25.82-16.81  c5.23,2.77,11.69-5.52,17.44-7.08c0.9,17.33-14.83,24.28-22.51,36.47c-9.37,14.86-10.5,33.44-22.26,49.31l43.03-16.95  C1189.84,746.07,1185.27,752.68,1179.55,757.67z" />
<path class="cls-7" d="M996.43,672.12c-10.93,15.06-19.64,31.99-32.65,45.82c-8.4,8.93-21.19,12.5-28.17,22.82  c-15.9,23.49,2.05,24.91-49.5,49.44c-2.67-2.47-3.35-6.65-6.67-8.77l-46.33-2.81c5.89-5.42,10.31-12.64,17.03-17.83l47.65-36.79  c1.62-1.01,2.29-1.02,1.74,0.9c-9.12,11.36-19.38,21.81-27.89,33.6c0.65,1.52-1.47,3.08-2.99,2.7c0.61,0.27,0.55,0.56-0.08,0.88  l0.63,0.72c0.91-2.09,2.12-3.12,3.62-3.09c31.32-18.32,67.27-32.36,92.75-57.94l29.74-29.85  C995.7,670.3,996.36,670.36,996.43,672.12z" />
<path class="cls-11" d="M882.19,715.37c-26.01,19.85-50.25,41.75-77.99,59.95c-18.09,11.87-38.65,23.75-46.57,43.26  c-20.21,0.01-40.47,2.68-60.7,2.92c16.97-13.52,33.62-29.08,53.64-38.06l46.24-20.75c28.21-12.66,53.92-30.88,79.81-47.37  c1.69-0.61,4.22-0.63,5.74-2.04C884.3,713.49,883.54,714.3,882.19,715.37z" />
<path class="cls-14" d="M836.18,833.33l0.85,1.73c-7.42,4.46-13.78,11.25-21.99,14.48c-0.84-0.27-0.83-0.59,0-0.96  C820.67,841.96,829.75,838.87,836.18,833.33z" />
<path class="cls-12" d="M872.81,759.7c-1.7,2.5-4.05,5.74-7.49,7.01c0.1-2.2,1.51-3.98,3.25-4.64l0.08-0.88  c0.15-1.59,2.28-1.78,2.99-2.7L872.81,759.7z" />
<path class="cls-13" d="M899.52,724.89c-0.48-0.47-1.08-0.77-1.74-0.9c3.16-2.44,5.77-7.45,11.2-8.23  C906.44,719.47,902.05,721.74,899.52,724.89z" />
<path class="cls-14" d="M996.43,672.12l-1.14-0.21c-1.39,1.4,2.61-6.47,4.44-5.16C1001.08,667.7,998.38,672.1,996.43,672.12z" />
<path class="cls-14" d="M1033.68,611.71c-2.72,0-1.56-3.42-1.37-5.26C1034.9,606.58,1033.8,609.92,1033.68,611.71z" />
<path class="cls-12" d="M1134.92,683.5c-1.66-0.63-4.25-0.67-4.14-2.87C1132.58,680.91,1134.91,681.34,1134.92,683.5z" />
<path class="cls-12" d="M1128.17,679.58c-1.87-0.06-4.28-0.6-4.12-2.83C1125.81,677.02,1128.17,677.47,1128.17,679.58z" />
<path class="cls-12" d="M1123.33,676.73c-1.84-0.06-4.17-0.65-4.06-2.82C1121.03,674.24,1123.42,674.54,1123.33,676.73z" />
<path class="cls-13" d="M1131.84,450.13c-1.37,1.93-1.25,5.18-3.65,6.1C1128.55,453.82,1129,450.46,1131.84,450.13z" />
<path class="cls-12" d="M620,357.7c-1.53,0.64-0.48,1.97,3.14,3.99c2.11,2.33,3.81,6.14-0.08,6.61c-1.58,0.19-15.15-4.89-17.04-6.71  l0.45-2.26c4.12-0.01,6.84,3.93,11.42,3.05l-3.39-4.68c-1.37-1.89-0.59-3.15,2.03-2.04C617.57,356.1,619.02,356.54,620,357.7z" />
<path class="cls-12" d="M565.43,363.6l0.4,1.61c4.21,0.5,16.32,2.71,10.66,7.75c-0.55,0.49-13.77,2.19-13.97-0.55  c-0.34-2.3,2.83-1.67,5-2.43c-1.35-3.13-5.03-2.23-8.51-3.2C559.07,363.84,563.16,362.62,565.43,363.6z" />
<path class="cls-12" d="M587.36,363.75c3.11-3.56,9.89,3.45,9.76-2.68c3.73-4.26,14.5,7.57,7.01,8.27  c-0.78,0.07-13.59-2.75-15.25-3.31L587.36,363.75z" />
<path class="cls-12" d="M639.25,362.99c-2.45,3.42-14.4,0.78-14.51-3.7C634,361.89,631.72,353.77,639.25,362.99z" />
<path class="cls-12" d="M660.49,351.39c2.9,1.53,6.05,2.52,9.43,2.99c2.73,4.28-5.64,7.84-8.41,4.47c0.46-1.38,2.65-1.54,2.75-2.53  C664.59,352.86,645.96,350.68,660.49,351.39z" />
<path class="cls-12" d="M582.92,363.66c-4.11,3.18-11.68,3.24-15.75,0C570.65,360.72,579.44,360.72,582.92,363.66z" />
<path class="cls-12" d="M672.2,351.41c0.62,4.62-8.56,2.52-9.9,0.12C664.82,349.37,669.43,349.92,672.2,351.41z" />
<path class="cls-12" d="M659.74,359.3c2.43,4.01-9.34,8.43-11.01,4.27C651.04,360.5,656.01,360.16,659.74,359.3z" />
<path class="cls-12" d="M598.12,358.08c0.04,0.91-0.33,1.68-1.01,1.49c-5.14-1.42-0.56-1.34,0.04-0.09c0.14,0.28-0.2,0.79-0.67,1.37  l-3.32-2.17c-3.12-2.04-1.58-2.7,0.82-2.16C596.06,356.99,597.98,355.88,598.12,358.08z" />
<path class="cls-14" d="M708.76,339.52c-0.62,3.37-5.17,3.01-4.28-0.58c0.68-0.69,1.55-1.14,2.49-1.11  C707.85,337.87,709.35,338.34,708.76,339.52z" />
<path class="cls-10" d="M830.22,306.11c-2.08,3.68-3.11,9.83-6.48,12.72c-5.23,3.89-7.83,10.38-13.55,13.38  c-0.71-5.58,0.86-12.09-0.03-17.46c1.2-1.78,3.35-2.97,6.43-3.58l11.59-6.34L830.22,306.11z" />
<path class="cls-15" d="M833.94,300.48l-0.82,0.97c-0.65,0.89-1.18,1.86-1.7,2.82l-1.13,1.04c-0.11,0.23,0.06,0.58-0.07,0.8  c-7.06,2.42-12.38,8.54-20.05,8.63l-0.25-1.52c-1.42-1.31-1.49-5.81,0.52-5.78c8.68,0.98,15.44-7.44,22.85-13.34  C834.96,296.28,833.65,298.59,833.94,300.48z" />
<path class="cls-7" d="M810.44,307.44c-0.89,2.41-1.63,2.3-2.12-0.24c-0.07-0.69,0.28-1.43,0.24-2.12c0.75-0.49,1.39,0.34,1.52,0.84  C810.21,306.41,810.61,307.06,810.44,307.44z" />
<path class="cls-1" d="M850.81,432.88c0.81-0.48,1.95,0.61,2.46,1.06c-1.73,5.18-5.22,9.24-8.63,13.42c-0.19,2.69-0.86,2.9-2.55,0.8  c-0.21,0.84-0.56,0.8-1.03-0.01c-1.41-6.05-20.28-9.39-12.81-21.53C844.15,436.29,841.57,438.31,850.81,432.88z" />
<path class="cls-10" d="M531.64,575.22c-8.54,16.82-28.26,29.79-45.63,36.51c-33.86,13.11-74.45,7.9-99.2-19.98  c-4.25-4.79-8.73-10.09-9.6-16.53c-0.42-0.03-0.79-0.1-0.97-0.33c-2.7-3.37-0.92-3.15,0.17,0.28c0.08,0.25-0.09,0.57-0.34,0.92  c6.11,9.17,8.78,21.82,10.87,32.79c1.67,8.78,5.07,32.24,2.2,39.76c-1.16,3.05-2.03,2.57-4.73,1.01l-7.84-14.31  c1.78,9.34,2.42,18.85,0.92,28.27c-1.01,6.31-2.59,15.67-8.01,18.94c-3.06,5.74-4.95,6.31-5.67,1.7c-2.13-2.98-3.73-6.2-4.8-9.66  c-2.07,10.3-5.17,20.88-12.15,28.99c0.92,2.9-0.3,5.82-3.66,8.75l-5.86,5.55c-26.64,15.05-37.4,43.57-38.27,73.13l-1.98,2.83  c1.99,4.74,2.78,10.05,2.39,15.93c1.23,5.68,1.3,11.01,0.18,16l2.41,2.26c2.53,13.25,6.26,25.79,14.13,36.92  c2.91,4.12,4.05,4.82,8.7,5.2c25.26-2.53,50.55-5.47,75.89-8.82l1.38,1.77l18.69,5.17l-93.47,19.87l-2.36-0.75  c-1.97-4.75-4.5-9.11-7.59-13.06c-3.65,2.37-7.71,4.18-12.17,5.41l-2.66-1.2l-10.14-29.68l-24.78-113.15  c27.26-23.5,28.59-53.57,27.46-80.75c-3.09,6.52-1.71,12.55-7.33,16.46c0.6-14.74-1-28.44-3.66-42.58c-3.8,4.02-0.86,8.3-2.02,11.78  c2.18,4.36-3.09,9.48-5.88,4.56c-1.9-12.59-5.04-24.89-9.41-36.92l0.99-3.45c-4.19-8.73-4.42-19-4.1-28.62  c0.21-6.42,1.66-24.76,4.56-29.42c1.47-2.36,1.74-2.29,3.27-0.2c0.47,0.64,0.82,1.35,1.14,2.1c2.86,14,6.84,27.96,14.75,39.99  c-0.37-6.76-0.33-13.51,0.1-20.26c1.08-3.24,2.3-5.1,4.77-2.29c6.11,14.89,13.99,28.29,23.63,40.19c-1.21-8-1.8-16.02-1.76-24.09  c0.92-2.98,1.47-4.45,3.95-2.48c5.25,9.19,11.56,17.51,18.92,24.95c-1.17-4.54-6.07-28.9-1.2-29.97c0.49-0.11,1.08,0.26,1.7,0.77  c3.62,6.71,7.94,12.91,12.94,18.6c8.94-34.87,6.85-72.29-10.71-104.2c0,0-6.67-0.6-20-1.8c-3.45-1.16-4.83-2.17-2.26-5.35  c9.72-13.79,20.24-26.94,31.54-39.43c22.31,4.06,44.73,7.47,67.46,7.29c4.8,0.25,3.62,2.05,0.81,5.65  c-13.43,9.19-26.49,18.81-39.2,28.86c-13.34,29.67,0.97,64.88,31.06,77.15c52.36,21.36,113.64-21.38,137.18-67.41  c5.9-5.78,5.27,0.75,4.47,7.35c-3.53,23.5-8.95,46.61-16.25,69.33L531.64,575.22z" />
<path class="cls-14" d="M267.83,604.78c3.87,13.6,9.26,26.43,10.41,41.56c2.1-1.73,3.23-3.77,3.89-5.75  c6.96,4.42,0.66,58.29-5.78,65.58c-10.34-2.35-21.01-1.43-28.4,9.9c-2.19-16.46-9.52-28.59-20.93-36.25  c-14.02-9.42-30.97-8.2-45.88-2.82c-1.91-14.24-9.21-28.6-20.94-35.62c-14.32-8.56-30.18-9.03-45.09-1.67  c-2.81-4.51-7.24-6.53-11.65-9.18c1.64-7.76,3.96-17.02,1.07-24.49c6.92-0.99,13.72,3.3,21.15,2.7c14.6-1.19,27.95,1.89,42.23,1.63  l88.92-1.62c2.55-0.05,4.4,1.03,6.9,0.04c2.23-0.88,2.95-2.6,2.22-5.18C266.62,602.61,267.25,603,267.83,604.78z" />
<path class="cls-14" d="M268.52,840.78c-0.83,3.02-7.51,3.54-10.51,3.36c-3.03-0.18-4.91-0.58-7.37-2.69  c-21.26-6.15-74.21-42.96-103.34-53.39c-17-6.09-35.83-4.82-53.33-9.35c-8.24-2.13-14.21-7.13-20.9-10.85  c25.14-8.65,51.1-15.03,77.36-21.29c41.13,11.94,74.42,29.82,115.55,41.75C268.95,806.02,271.57,823.7,268.52,840.78z" />
<path class="cls-1" d="M327.39,888.11l5.25,13.56c-14.21,3.16-28.17,6.33-39.64-1.13c-5.78-3.76-4.8-9.92-7.04-16.51  c-0.16-0.47,0.25-1.12,0.16-1.61c5.71-0.33,11.28-2.44,16.48-3.91c4.76-1.34,10.19-3.57,15.02-5.9  C322.56,876.7,325.32,882.78,327.39,888.11z" />
<path class="cls-2" d="M282,874.59c-4.67,0.06-3.76-6.17-6.89-9.28c-1.6,1.07-6.65,4.88-6.97,3.71c-0.65-2.39-0.22-4.53-0.4-5.84  c-1.54-0.68-1.7-4.15,0.15-4.02c2-0.79,3.81-2.16,5.12-4.75C281.33,858.49,283,866.11,282,874.59z" />
<path class="cls-12" d="M268.52,840.78c-0.77,4.29-0.89,8.96-3.4,12.51c-4.47-4.47-10.84-6.77-14.48-11.84  C256.43,843.13,262.75,841.78,268.52,840.78z" />
<path class="cls-12" d="M267.89,859.16c-0.81,1.24-0.34,2.67-0.15,4.02c-1.38,0.55-1.85-0.93-1.85-1.64l-0.04-3.31  C266.57,858.42,267.28,858.71,267.89,859.16z" />
<path class="cls-6" d="M50.97,957.06c17.04,6.65,34.84,11.84,52.72,15.99c-7.87,8.89-13.45,19.32-23.1,27.96l-49.78,6.23  c-1.56-0.88-4.49,0.15-6.15-2.36l20.49-43.06C46.45,959.06,48.64,958.26,50.97,957.06z" />
<path class="cls-12" d="M153.42,918.75c-7.04,6.14-18.64,5.3-26.62,8.74l-64.24-62.57c-3.99-3.89-8.74-5.72-12.07-10.77  c8.82,2.01,15.86,6.26,23.08,11.1L153.42,918.75z" />
<path class="cls-12" d="M186.26,907.39c-5.27,1.79-12.22,7.5-18.74,6.66l-21.68-47.98L186.26,907.39z" />
<path class="cls-1" d="M250.46,555.67c1.24,1.4,0.58,1.92-1.13,2.07c-2.07,2.17-1.54,5.17-3.95,7.33c-1.49-2.7,0.07-5.88-0.65-9.45  c-6.28,7.5-13.27,14.89-23.51,15.13c4.06-2.12,5.87-6.24,8.47-8.09c1.5-3.28,2.13-5.08-2.07-5.05c-4.54,2.52-7.48,6.08-11.62,8.03  c-0.65,1.35-1.27,1.14-1.08-0.43c2.93-2.14,3.49-6.97,6.07-8.53c1.52-3.37,2.91-6.84,4.18-10.43l2.59-0.77l0.08-3.7  c3.49-6.28,15.48-24.37,20.84-27.69c4.48-2.78,4.73-2.58,4.94,2.58c-1.65,11.95-2.06,23.98-1.24,36.09L250.46,555.67z" />
<path class="cls-14" d="M227.76,545.5c-2.24,3.52-2.52,8.62-6.78,11.2c-0.28-1.72,1.69-4.58,0.04-5.46l-4.26-2.29  C213.72,543.35,230.33,536.53,227.76,545.5z" />
<path class="cls-5" d="M229.68,562.66c0-1.9,0.39-4.91-2.07-5.05c-0.71,0.39,2.96-5.36,3.99-4.21c1.08,1.21-0.23,3.13,0.06,5.05  l4.78-6.44C237.09,557.57,233.51,560.37,229.68,562.66z" />
<path class="cls-14" d="M223.82,517.51l-5.93-2.77c1.68-3.8,11.49-1.54,9.78,2.62C226.76,519.58,224.79,519.74,223.82,517.51z" />
<path class="cls-14" d="M206.68,532.04c2.56-0.32,2.77,0.52,0.67,2c-0.37,1.74-5.07,2.24-5.17,1.89  C201.53,533.66,206.71,532.03,206.68,532.04z" />
<path class="cls-14" d="M212.03,511.7c2.21,0.11,2.78,0.74,2.14,2.91c1.52-0.05-5.04,1.17-5.3-1.63  C208.78,511.98,211.25,511.99,212.03,511.7z" />
<path class="cls-5" d="M214.91,565.22l1.08,0.43c2.32-1.1-4.9,5.66-5.22,3.19C210.49,566.6,215.95,564.47,214.91,565.22z" />
<path class="cls-14" d="M221.01,508.08c3.51,2.71-3.53,6.07-5.16,2.57C215.9,508.13,219.06,508.32,221.01,508.08z" />
<path class="cls-14" d="M224.66,529.18l-0.28-1.48c-4.33-4.14,5.69-4.76,4.09,0.45C227.68,530.72,225.98,531.65,224.66,529.18z" />
<path class="cls-14" d="M252.38,557.93l-3.05-0.18c0.38-0.4,0.27-1.26,1.13-2.07C252.41,551.99,256.24,556.52,252.38,557.93z" />
<path class="cls-10" d="M157.55,1079.94c3.2,1.16,6.24,2.91,9.69,3.28c0.48,2.39-0.28,4.01,0.08,7.78c2.1-2.25,15.07-0.49,19.37,2.93  c2.17,1.72,5.4,7.3-0.22,8.62c-27.95,6.56-27.91-7.4-45.42,3.98c-2.18,1.41-3.88,2.18-2.93,5.39c0.52,1.77,1.96,3.74,5.24,3.76  c-1.6,10.93-9.81,13.99-20.17,14.8c-2.66,0.21-4.72,4.47-8.05,3.07c-3.64-1.53-3.59-4.32-5.27-7.09  c-3.38-5.59-12.24-1.76-16.56-2.42c-4.57-0.7-8.81-2.92-14.48,1.15c6.13,10.05,14.89,3.11,5.71,11.24  c2.05-1.81-15.48-0.06-17.11,0.63c-5.57,6.35-26.61,4.6-25.32,5.83c-0.93-0.88-1.17-4.04-2.49-4.82c-2.32-1.37-8.24,0.59-9.93-2.89  c2.58-4.82,1.11-7.29-1.21-11.64c-3.97-7.47-21.57,5.81-22.58-5.72c0.01,0.15,9.39-8.03,9.05-8.15l5.35,1.85  c2.55-2.25,1.23-8.59,4.85-9.65c7.23-2.12,14.59-1.1,21.71,0.03c1.81-1.79,1.7-4.37,3.2-6.59c2.29,0.5,3.79,2.54,5.82,1.75  c1.43-0.56,3.08-2.64,5.43-3.9c7.1,4.98,19.2,7.93,28.1,1.73l-25.52-5.75c8.21-9.9,18.78-12.93,30.3-17.55  c7.32-2.94,15.88,5.15,23.05,7.85c4.88,1.84,8.75-4.42,13.04-5.27c2.47,1.3,3.04,4.02,5.54,6.08  C142.4,1074.57,150.27,1077.29,157.55,1079.94z" />
<path class="cls-6" d="M263.91,984.95c-31.7,24.1-81.74,42.22-121.94,43.39c-16.26,0.47-31.23-7.81-47.97-8.9  c9.17-14.83,12.8-29.34,22.22-40.97c13.5,4.74,28.21,8.43,43.08,10.29c10.6,1.32,20.37-3.57,31-3.6L263.91,984.95z" />
<path class="cls-3" d="M1200,1671.87l-92.43-0.8c-27.52-33.14-76.29-43.6-114.43-20.35c-4.99-20.05-22.02-32.37-43.44-29.72  c1.62-42.26-24.73-80.17-62.55-97.51c-40.82-18.71-87.01-10.03-117.8,25.17c3.72-22.58-5.64-42.46-25.35-50.83  c38.58-25.89,82.89-45.35,124.71-69.14c19.38-11.03,35.01-28.13,55.62-36.59c41.33-16.96,83.74-31.02,125.94-43.15L952,1440.33  c46.92-32.07,92.43-62.43,141.16-92.92l-94.85,159.22l52.84-65l68.27-92.76c26.13-35.51,50.75-71.36,78.73-104.67  c0.56-0.32,1.26-0.41,1.85-0.67V1671.87z" />
<path class="cls-1" d="M531.64,575.22l1.64,1.32l-10.26,40.09c5.36-6.19,10.47-12.64,15.33-19.34c3.82-1.5,4.95-0.82,3.89,3.37  c-6.16,16.47-10.67,33.16-13.53,50.06l9.67-8.71c1.99-0.65,3.33-0.65,3.87,1.42c0.68,2.58-8.64,17.1-10.93,19.64l-2.4,0.42  c-0.47,0.68-0.96,1.32-1.54,1.87c-3.78,3.55-22.05,5.89-28.35,6.66c-16.44,2-33.21,1.92-49.69,1.01l-1.95,10.83  c-4.05,12.89-8.42,6.61-8.44-2.81c-2.64,10.5-6.62,20.4-11.95,29.69c-3.62,1.08-5.17-1.65-4.65-8.17  c-3.29,6.94-7.29,13.41-11.99,19.41c-1.76,1.92-3.73,1.84-5.91-0.26l-3.26,9.37c-0.15,3.77-0.97,7.06-2.46,9.86l2.28,1.65  c2.35,7.46,5.84,14.41,10.47,20.86l-0.65,2.68l3.75,2.64c15.36,24.35,32.57,47.2,51.63,68.54c2.93,2.85,4.13,5.72,3.61,8.63  c0.22,1.64,2.22,3.91,1.63,5.28c-0.28,0.65-26.04,9.59-36.66,3.28c-3,1.37-5.24-0.86-3.8-3.88l-0.99-0.89  c-4.77,2.56-8.51-6.03-9.75-10.12l-1.7-9.03c-4.24,1.76-8.55,2.93-12.92,3.5l-2.01-0.99c-0.96-9.74-2-19.49-3.12-29.26  c-4.67-8.33-10.64-15.94-17.93-22.8l0.49-2.47l-2.06,0.47l-32.31-42.03c-2.13-2.75-3.17-6.12-2.82-9.59  c4.01-11.71,8.84-23.88,13.63-35.56c0.28-0.69,0.8-1.29,1.36-1.89c0.58-0.63,1.26-1.16,1.97-1.67c0.57-0.95,1.49-1.74,2.74-2.37  c1.17,0.8,2.47-0.32,3.91-3.37c8.73-17.92,8.89-36.71,2.39-56.9c7.31,7.35,9.37,16.87,15.24,24.46c3.21-26.52-3.65-50.56-11.05-74  c-0.95-1.62-0.33-2.08,1.13-0.88c11.52,19.82,29,34.28,52.01,39.15C469.23,622.82,506.74,606.33,531.64,575.22z" />
<path class="cls-15" d="M567.19,736.21c0.23,1.78,1,3.97,2.84,4.61c1.45-3.06,0.83-6.95,3.91-7.47c2.35,3.12,3.76,7.09,4.22,11.91  c2.07,4.28,3,8.37,2.8,12.26l1.56,4.82c-1.4,21.75,2.18,43.44,9.25,64l-0.27,5.03c-0.8,2.56-3.21,4.2-7.24,4.91  c-4.12,1.4-12.56,4.01-14.86-0.25l-2.06-2c-2.94,0.25-2.54-6.95,0.28-7.38l0-0.85c0.37-1.08,0.83-2.18,1.39-3.31  c-3.12-0.66-2.91-11.02-0.02-12.02c-0.78-1.12-1.63-0.74-2.65-0.2c-0.18,1.91-1.5,3.59-3.97,5.03l-4.19,4.83l-2.32-0.21  c-5.95,0.16-3.16-9.64-1.91-13.6c3.7-6.62,5.69-13.23,5.99-19.84l-92.45-45.6l-3.14-3.69l0.13,2.11  c-17.23,9.32-34.48,18.64-51.72,27.96l-1.92-1.14c-4.56-7.97-10.5-15.34-12.09-25.18l2.38-3.92c11.17-9.33,22.39-18.33,33.67-26.98  c5.34-1.71,11.02-1.21,17.04,1.51c17.26-2.73,33.03-0.53,42.4,15.87c14.77-8.39,28.09-6.15,38.21,7.31  c9.8-5.23,17.76-3.52,26.65,2.31l2.54-0.15C563.85,735.44,565.71,735.22,567.19,736.21z" />
<path class="cls-12" d="M430,849.72l0.99,0.89c0.92,1.41,2.28,2.98,3.8,3.88c12.65,2.27-36.85,9.09-32.63,8.58l-70.89,8.67  c-4.23,0.52-11.19,0.88-14-2.39c-10.78-12.54-14.58-28.18-17.62-43.61c2.6-3.04,6.11-5.21,10.51-6.52  c11.81-6.64,17.72-9.96,17.72-9.96c3.98-3.52,8.23-5.76,12.76-6.72l2.24-2.61c13.64-4.27,25.34-12.75,36.69-21.18l3.5-0.21  c7.06,9.19,19.71,18.21,20.41,30.06l1.38,23.37c5.3,1.39,9.74-3.69,15.41-3.42C421.25,837.2,422.59,846.03,430,849.72z" />
<path class="cls-12" d="M464.35,737.2l3.2,4.33c13.86,32,29.06,62.54,45.59,91.6c2.5,4.27,2.64,7.51,0.41,9.71  c-1.27,0.45-2.88,1.82-4.53,1.26l-2.39,1.37c-1.11-0.18-2.35,0.24-3.45,0.2c-0.88-0.06-1.62,0.25-2.23,0.92l-27.69,4.18  c-0.98-2.02-2.55-3.43-3.45-4.84c-15.05-23.59-33.69-35.6-58.99-79.81L464.35,737.2z" />
<path class="cls-7" d="M555.86,819.93c1.49,0.54,2.24,0.81,2.24,0.81c2.4-7.01,10.83-3.19,8.77,3.09l0.75,2.84l-0.28,7.38l-53.79,8.79  c-0.12-9.57-7.08-15.84-11.35-24.39c-13.43-26.9-26.46-53.85-37.86-81.25l97.03,47.86C566.03,793.22,548.85,810.66,555.86,819.93z" />
<path class="cls-1" d="M610.49,826.7l9.31,33.83c-5.37,1.26-9.34-0.6-14.24,2.25c-6.58,3.83-20.81,1.74-27.07-3.89  c-6.75-6.07-7.57-15.07-9.08-22.85c8.04,1.37,15.1-1.73,22.1-4.66l0.99-2.38l8.19-2.25c1.39-1.98,2.84-3.37,4.33-4.16  C607.05,820.49,611.67,824.12,610.49,826.7z" />
<path class="cls-14" d="M620.19,793.02c7.1,5.67-3.39,27.13,10.7,12.97c3.68,5.59,5.61,12.25,7.44,18.52  c-9.06,2.16-18.52,2.05-27.85,2.19l-5.48-4.1l-2.82-0.68c-4.41-8.23-7.47-17.07-9.16-26.51l1.28-2.47c0.09-0.75,0.34-1.88,0.87-1.92  c6.5-0.49,17.12-0.44,23.63,0.08L620.19,793.02z" />
<path class="cls-13" d="M815.02,848.57l0,0.96c-1.87,0.74-3.54,5.2-7.06,2.94C809.9,850.06,813.02,849.56,815.02,848.57z" />
<path class="cls-10" d="M810.44,307.44c-0.82,1.82-0.83,3.89-0.52,5.78c-2.67-0.38-1.39-3.98-1.6-6.02L810.44,307.44z" />
<path class="cls-14" d="M537.65,663.61c-4.6,8.31-8.96,17.38-9.95,27.91c5.51-0.3,6.37-5.91,10.79-7.2c1.9,8.24,0.73,16.51,4.34,24.27  c3.56-4.6,3.51-10.94,9.07-13.93c-0.66,9.95-1.88,18.88,0.05,28.41l5.71-11.83c4.15,7.32,2.23,15.73,7.71,21.39  c1.34-1.48,0.72-2.67,1.62-3.08c0.87,2.2-0.09,4.47,0.2,6.68c-14.81,9.99-10.73-10.64-35.14,0.73  c-5.86-4.93-10.47-12.02-16.31-12.25c-8.79-0.35-15.46,0.48-22.73,5.9c-6.3-15.23-20.67-20.27-36.23-17.33  c-12.93,2.44-13.66-10.29-30.16,5.13c-9.25,8.64-17.89,16.04-27.88,22.57c-1.45-8.97,2.97-17.45,7.1-27.41  c2.14,3.36-0.57,6.12,1.72,8.53c7.6-7.06,9.95-16.96,16.6-25.61l0.62,14.15c7.68-10.72,9.35-23.05,14.34-35.64  c2.8,4.51,1.06,9.89,3.51,15.14c4.12-6.04,3.45-12.92,5.19-18.79c27.74,0.89,56.1,0.87,81.1-7.82  C531.26,662.43,536.66,660.51,537.65,663.61z" />
<path class="cls-4" d="M713.18,311.16c6.41,8.98,16.82,14.77,15.58,28.76c-4.23-6.35-13.06-7.65-17.5-11.7l-3.08-0.31  c-3.9-3.19-15.71-21.41-17.29-26.21c-2.27-6.9,3.68-4.05,7.78-2.05c3.26,1.59,10.95,6.8,13.91,9.15L713.18,311.16z" />
<path class="cls-10" d="M577.87,573.06c4.05,5.76-7.97,21.16-11.05,33.03C566.4,594.3,573.15,584.03,577.87,573.06z" />
<path class="cls-15" d="M616.07,699.91c-0.42,1.84,0.32,3.93,0.08,5.79c-0.19,1.73,0.14,2,0.98,0.78c1.36-1.78,3.38-3.73,4.05-5.84  c1.02-2.08,2.04-2.34,2.67,0.07c0.49,10.09,6.46,19.12,8.08,29.34c2.18,13.81-1.37,51.14-11.73,62.96l-25.88-0.09l-2.55-2  c-2.37-12.57-3.1-27.51,1.32-39.51c-2-1.27-2.21-3.49-0.64-6.66l6.43-15l2.22-0.96c0.75-0.68,0.88-1.18,0.98-2.19  c-2.81,0.05-2.75-3.12-0.07-3.79c-0.13-7.3,2.5-15.53,1.76-22.91c1.2-1.09,2.89-1.27,5.07-0.53  C612.3,698.16,614.71,698.33,616.07,699.91z" />
<path class="cls-1" d="M601.99,722.81l0.07,3.79c0.3,0.93-0.02,1.94-0.98,2.19c-1.65,7.73-7.78,14.54-8.01,22.62  c-0.99,4.92-3.36,7.81-7.12,8.67c-2.96,0.48-4.62-0.37-5-2.56c-3.97-7.46-6.08-15.79-7.02-24.17c-0.83-7.41,1.02-13.44,8.37-16.65  c3.68-1.61,7.71-4.07,12.42-1.96C597.44,715.96,599.27,720.05,601.99,722.81z" />
<path class="cls-14" d="M616.07,699.91c-4.46,0.94-8.18,2.59-12.32,0c-1.15-11.48,2.26-22.07,3.39-33.39  c1.08-1.94,2.52-4.17,5.74-4.16l-2.32,21.18c3.43-1.15,2.68-4.91,6.21-7.03C616.72,684.67,617.77,692.48,616.07,699.91z" />
<path class="cls-1" d="M780.4,376.02c-9.17-9.71-15.86-0.53-21.86-7.57c-1.72-2.02-5.2-6.56-2.74-9.39  c3.35-3.86,12.49-2.84,15.74,0.98C775.54,364.72,778.05,369.79,780.4,376.02z" />
<path class="cls-4" d="M841.05,448.16c0.34-0.02,0.69-0.02,1.03,0.01c1.51,1.53,1.54,3.75,0.09,6.69l1.42,1.12  c-0.98,1.85-1.35,3.21-3.51,3.93c-1.31,1.31-2.24,1.56-2.78,0.74c-10.46,0.93-20.11-2-27.22-10.2c-3.08-3.55-9.29-4.66-9.35-10.61  c6.8,4.01,26.83,25.39,36.33,16.94C838.92,455.11,839.41,450.96,841.05,448.16z" />
<path class="cls-13" d="M836.18,463.61c-0.09,0.94-0.46,1.9-1.2,2.28c-1,0.51-2,0.26-2.91,0.4  C832.23,464.31,834.53,463.98,836.18,463.61z" />
<path class="cls-12" d="M778.5,459.66l0.03,7.12c-1.55,4.63,0.1,10.14,0.03,14.87l0.09,4.21c-0.01,0.27-0.1,0.54-0.1,0.81  c0,0.67-0.52,0.81-1.13,0.93c-8.53,9.42-23.43,7.65-34.4,1.92c6.52-14.42,13.17-28.75,20.99-43.81  C771.11,448.31,777.55,453.1,778.5,459.66z" />
<path class="cls-7" d="M784.32,493.56c-1.12,0.22-1.95,1.23-2.69,1.57c-1.83,0.86-2.15-0.22-2.02-1.85c2.06,0.56,2.86-0.5,2.89-1.29  c0.04-1.31,1.35-3.04,1.72-1.9C784.69,491.57,784.1,492.65,784.32,493.56z" />
<path class="cls-10" d="M661.58,717.29c0.29-7.47-1.29-15.25,0.76-22.46C663.48,701.92,665.15,711.08,661.58,717.29z" />
<path class="cls-7" d="M778.53,466.78c-1.57-1.86-1.49-5.24-0.03-7.12C778.95,462.72,779.62,463.54,778.53,466.78z" />
<path class="cls-10" d="M667.91,676.58c-0.42,2.19,0.19,5.94-2.62,6.11C665.73,680.55,665.31,677.08,667.91,676.58z" />
<path class="cls-7" d="M778.65,485.85c-1.05,0.36-1.06-1.05-1.06-1.59c0-0.85-0.08-2.44,0.97-2.62  C778.55,482.87,780.8,484.68,778.65,485.85z" />
<path class="cls-14" d="M843.58,455.97c-3.03,1.84-3.92,0.66-3.06-1.86c0.72-2.12,1.06-3.71,1.56-5.94c0.87-0.21,1.72-0.49,2.55-0.8  C844.99,450.54,845.02,453.26,843.58,455.97z" />
<path class="cls-15" d="M735,762.5c14.7-20.36,31.62-39.2,53.36-51.28C772.88,731.56,757.48,749.82,735,762.5z" />
<path class="cls-12" d="M1127.6,757.61c5.4-13.67,12.83-27.1,25.51-35.92C1146.42,734.88,1138.35,746.33,1127.6,757.61z" />
<path class="cls-15" d="M724.65,315.01c-3.92-0.04-7.73-2.34-11.46-3.86c-7.54-3.06-12.59-9.97-21.94-12.58  c6.37,10.19,11.57,21.93,20.02,29.64c4.55,20.96,21.1,19.73,12.74,35.7c-10.29,19.67-21.47,38.38-29.93,59.03l-0.72-15.96  c-7.87,17.44-11.85,35.22-18.37,53.73c-4.8-8.78-7-17.34-10.23-26.79c-5.88,11.84-5.55,25.12-6.61,39.2  c-16.51-22.59-27.72-46.66-39.23-70.87l-16.25,3.31c4.62,2.8,8.26,4.91,10.97,9.16c24.36,38.31,50.57,108.12,16.22,148.47  c-1.29-11.46,1.79-21.47-2.51-31.82c-2.61,23.72-15.2,40.97-31.97,55.37l4.05-29.86l-21.86,32.36c-7.77,11.5,20.83,51.21-9.6,83.82  c1.13-10.67,4.99-19.51,2.61-29.06c-4.61,13.47-12.08,24.71-25.68,26.94l4.99-18.15c-4.68,3.57-7.63,8.22-12.25,10.79  c-2.82-0.27-6.24,2.1-8.72-0.11c3.43-6.89,9.67-12.17,11.76-20.98l-14.28,12.86c0.29-20.9,9.85-37.67,14.74-58.27  c-7.78,7.93-11.68,18.1-21.58,25.24l12.06-47.13c6.84-26.72,16.7-53.04,17.97-82.43c-24.1,47.26-76.73,86.09-130.13,74.66  c-37.69-8.07-58.97-48.26-42.87-83.49c12.35-11.68,28.33-19.78,42.48-31.66c-23.71,0.52-46.32-2.35-69.47-7.38  c-11.53,13.42-21.57,26.67-32.22,41.07c8.32,0.54,15.9,0.29,23.54,2.47c19.19,33.38,20.3,72.01,10.76,109.25  c-7.5-6.18-11.5-13.8-15.59-22.08c-1.57,11.77,1.56,21.74,4,34.07c-10.31-7.82-17.2-18.3-23.84-30.03  c-1.05,10.84,1.41,21.35,2.2,33.48c-12.78-13.99-20.34-30.33-28.49-47.74c-2.06,9.64-0.07,18.73-0.47,29.39  c-11.2-14.33-15.69-30.5-19.36-49.04c-5.28,21.83-5.91,37.54-2.33,59c-0.58-0.46-1.21-0.85-1.88-1.17l-0.99-3.5  c-0.21-0.73-0.14-2.05-1.15-2.04c-2.12-7.28-5.65-14.38-6.67-21.9c-0.05-0.4,0.06-0.87-0.11-1.44c-0.14-0.48-0.63-1.43-1.41-0.87  l-1.46-9.17c-0.07-0.42,0.11-0.91,0.01-1.49c-0.11-0.61-0.7-1.52-1.51-0.85c-0.03-1.48-0.18-2.95-0.28-4.42  c-0.03-0.44,0.09-0.97-0.1-1.51c-0.25-0.68-1.1-0.85-1.82-0.74c0.1-13.96-1.58-27.5,1.93-42.42c-10.57,9.51-17.22,20.61-24.63,32.25  c-1.67-4.06-2.8-2.56-5.72-1.5c-3.05,1.11-3.62,3.15-5.26,4.94c-1.67,1.82-5.01,3.02-7.87,4.5c-1.28-3.96,2.86-4.96,3.27-7.91  c1.57,0.5,1.4-1.42,1.95-2.2c3.37-4.83,7.55-9.1,10.53-14.15c0.42-0.41,1.9-0.19,1.89-0.71c0-0.64,0.37-1.8-0.43-2.36  c-1.39-0.98-1.25,1.23-1.74,1.6c-1.65,0.35-3.7,0.68-5.33,1.36c-0.39,0.16-0.97-0.1-1.44,0.17c-0.51,0.29-1.39,0.89-0.84,1.63  c-1.12,0.4-2.23,0.81-3.41,0.99c-0.41,0.06-0.91,0.05-1.46,0.24c-0.47,0.16-1.49,0.58-0.92,1.39c-1.11,0.18-2.57,0.13-3.61,0.55  l-0.67-2c1.86-1,3.1-2.85,4.7-4.15c0.96-0.78,2.53-1.02,2.68-2.56c1.37-0.54,2.66-1.23,3.82-2.14c0.3-0.23,0.96-0.05,1.38-0.28  c0.55-0.3,0.87-0.91,0.68-1.62c1.76-0.7,3.33-1.94,3.88-3.78c1.3-0.38,2.16-0.19,2.64-1.01c-2.08-2.56-5.72-1.25-8.58-1.76  c-1.13-0.2-2.57-0.16-3.72-0.12c-1.24-0.49-2.21-1.51-2.14-2.91c1.14-0.42,2.63-0.74,3.82-1.06c1.83-0.5,4.93-0.23,5.16-2.57  c1.52-0.19,2.96-0.77,4.41-1.21c0.42-0.13,0.95-0.01,1.44-0.29c0.48-0.28,1.47-0.82,0.92-1.6c17.87-7.65,32.5-20.22,45.02-34.36  c8.97-10.14,18.6-21.28,29.05-29.98c22.13-18.43,47.05-32.36,76.57-34.03c52.24-2.96,108.3,8.85,149.46-13.16  c8-4.28,14.52-9.33,24.41-11.51c-5.37-2.53-9.94,0.67-16.35-0.71c8.37-4.86,17.49-7.91,26.57-8.8l14.84-1.47  c-5.16-3.45-10.74-3.24-15.88-5.6l3.95-1.75c0.47,0.2,1.21,0.03,1.73,0.07c5.24,0.34,10.51,0.24,15.75,0  c1.38-0.06,3.09-0.21,4.44,0.09c5.68,1.27,11.31,1.87,18.16,4.09c-1.38-3.9-5.24-5.71-8.41-6.77l-0.63-0.21  c0.71-0.3-5.11-3.46-1.71-2.96c1.4,0.2,2.4,0.22,3.34,0.19l1.68-0.04c0.47,1.2,2.19,0.85,3.26,0.99c1.13,0.14,2.28,0.31,3.42,0.3  c4.08,4.6,11.44,4.13,17.52,7.55c-1.3-4.79-5.26-5.39-7.84-9.22c0.8-1.33,2.72-0.42,3.86,0.03c1.09,1.28,3.5,0.8,4.74,1.58  c4.25,2.68,9.73,3.41,14.51,3.7l9.48,0.58c3.6,0.22,8.65-1.18,11.01-4.27c0.59-0.14,1.2-0.26,1.77-0.45  c2.47-0.81,5.55-0.39,8.03-2.79c-3.44-2.16-7.44-1.63-9.06-4.67c0.52,0.2,1.32-0.13,1.81,0.14c2.95,1.61,6.89,1.25,9.9-0.12  c0.69-0.31,1.8,0,2.54-0.15c1.02-0.2,2.84,0.41,3.18-0.94l1.58-0.06c0.42-0.02,0.9,0.06,1.45-0.09c0.48-0.13,1.49-0.63,0.9-1.42  c6.97-0.52,12.11-7.45,18.78-8.08l1.44-0.14c0.57-0.05,1.37-0.77,0.81-1.55l1.6-0.06c0.86,1.48,2.89,0.66,4.28,0.58  c0.88-0.05,2.46,0.17,3.17-0.94c-4.04-4.71-10.66-9.19-13.83-15.01c-4.59-8.43-9.92-16.75-12.67-25.84  c-0.22-0.73,0.05-2.16-0.97-2.25c-0.07-0.51,0.03-1.06-0.08-1.56c-0.16-0.72,0.13-2.21-0.88-2.28c0.02-1.27-1.32-3.38-0.58-4.15  C686.96,283.32,723.01,309.51,724.65,315.01z" />
<path class="cls-15" d="M362.83,688.27c-4.09,11.25-7.96,22.52-13.38,33.73c-2.22,4.59-2.63,9.4,0.79,13.85l32.83,42.7  c-12.87,9.58-26.99,20.17-42.43,24l-4.21,0.66c-12.51-3-25.05-5.61-37.62-7.83l-1.72-1.56c0.27-27.34,9.5-57.74,31.44-72.02  c6.81-4.43,14.13-9.84,18.32-18.24c5.79-6.63,9.83-14.09,12.13-22.4c1.64-4.49,6.1,3.83,6.12,5.57  C365.11,687.66,363.83,688.45,362.83,688.27z" />
<path class="cls-14" d="M340.64,802.55c-12.4,9.6-26.26,17.77-40.99,23.2c-2.06-10.48-2.67-21.16-2.57-31.92  C311.69,796.06,326.72,797.76,340.64,802.55z" />
<path class="cls-2" d="M369.48,682.53c-1.46,3-2.61,7.07-6.65,5.74c0.66-1.82,0.78-5.24-1.86-7.57  c-1.84,10.68-6.94,17.26-14.12,22.86c5.19-11.99,10.64-23.45,11.03-36.92c4.09,7.64,3.65,14.48,8.75,20.09  c1.45-1.65,0.79-2.79,1.27-3.55C368.24,682.64,368.82,682.42,369.48,682.53z" />
<path class="cls-4" d="M377.2,575.21l-1.13,0.88c-0.61-1.93-4.17-3.88-1.92-6.99C376.08,571.05,376.19,573.47,377.2,575.21z" />
<path class="cls-4" d="M108.46,1097.36c6.98,1.91-9.22,6.52-9.84,5.51c-0.94-1.53,0.23-2.94,0.97-3.58  C100.51,1098.47,106.56,1096.84,108.46,1097.36z" />
<path class="cls-10" d="M593.08,751.42c-0.4,14.22-3.06,27.49,1.23,41.51c3.07,10.03,4.05,20.81,10.71,29.67  c-0.57,7.91-8.15,6.54-13.51,8.79c-8.8-24.35-12.88-47.82-10.54-73.86c2.53,0.48,5.02,1.47,7.48-0.44  C590.1,755.79,590.53,752.55,593.08,751.42z" />
<path class="cls-1" d="M568.99,810.48l0.02,12.02c-0.43,1.22-0.89,2.32-1.39,3.31c0.06,0.26,0.01,0.58,0,0.85  c-2.41-2.85-1.61-9.27-6.7-7.47c-0.78,0.27-1.05,3.1-1.57,3.75c-0.68,0.86-2.12,0.87-2.89-0.36c-0.48-0.77-0.16-2.07-0.61-2.66  c3.11-3.67,5.94-7.83,10.48-9.65C567.26,809.15,568.88,808.78,568.99,810.48z" />
<path class="cls-10" d="M760.6,363.69c0.89-1.44,2.78-0.09,3.77,0.29c0.89,0.34,2.45,1.69,1.11,2.5c-1.38,0.85-2.56,0.73-3.36,0.52  C761.23,366.77,759.56,365.36,760.6,363.69z" />
<g>
</g>
<g>
</g>
<g>
</g>
<g>
</g>
<g>
</g>
<g>
</g>
<g>
</g>
<g>
</g>
<g>
</g>
<g>
</g>
<g>
</g>
<g>
</g>
<g>
</g>
<g>
</g>
<g>
</g>
</svg>