<?xml version='1.0' encoding='UTF-8'?>
<svg xmlns="http://www.w3.org/2000/svg" id="Layer_1" viewBox="0 0 1200 1200" xml:space="preserve" width="1200" height="1800">
<style type="text/css">
      .cls-1 {
        fill: #0e1634;
      }

      .cls-2 {
        fill: #103151;
      }

      .cls-3 {
        fill: #134b6b;
      }

      .cls-4 {
        fill: #106180;
      }

      .cls-5 {
        fill: #7c491d;
      }

      .cls-6 {
        fill: #208591;
      }

      .cls-7 {
        fill: #2d838e;
      }

      .cls-8 {
        fill: #3ba6a5;
      }

      .cls-9 {
        fill: #f37759;
      }

      .cls-10 {
        fill: #d39824;
      }

      .cls-11 {
        fill: #5dbdb4;
      }

      .cls-12 {
        fill: #e1a629;
      }

      .cls-13 {
        fill: #faa56e;
      }

      .cls-14 {
        fill: #91dac4;
      }

      .cls-15 {
        fill: #f5e0b1;
      }

      .cls-16 {
        fill: #faf4ce;
      }

    </style>
<path class="cls-1" d="M1200,850.58V1200H0V944.53l5.84,1.48c156.69,84.83,329.13,143.99,508.26,152.04  c139.94,6.29,273.6-22.21,399.54-80.76c-1.49-4.79,1.71-9.69,3.67-3.4l2.54,1.53c9.86,40.5,64.48,12.75,38.24-19.59l0.41-3  c1.49-0.96,3.22-1.14,5.18-0.54c11.76-5.3,23.78-11.83,35.22-18.44c68.87-39.8,135.08-82.46,198.63-124.46L1200,850.58z" />
<path class="cls-2" d="M1200,726.4v124.18l-75.32,49.19c-51.27,33.48-102.58,65.31-156.89,93.43c-4.24,2.2-5.84,1.77-9.29-0.37  l-2.96,0.98c-14.97-9.42-36.14-0.68-36,17.96l-2.24,2.12c-0.87-0.41-1.04-1.23-1.69-1.25c-1.51-0.03,2.53,5.09-1.23,6.84  c-81.33,37.87-184.42,68.88-275.42,77.79C417.47,1118.99,189.57,1051.3,0,944.53V742.97l1.3-2.23  c66.74,6.51,134.73,13.01,203.97,19.53c-1.75-1.93-2.35-8.26,1.72-8.18c3.54-0.92,6.83,7.48,3.93,9.55l7.55,18.62  c5.88,5.65,9.24,14.21,9.27,22.4c4.47-0.02,7.43,2.99,8.9,9.04c7.87,8.56,14.19,18.34,19.22,28.81l5.72,4.63  c1.67,4.14,4.29,7.51,7.86,10.12c2.31,4.4,5.45,7.98,9.42,10.72c2.14-0.81,2.6-0.08,0.96,1.51l3.79,5.85  c13.05,12.23,26.26,24.26,39.64,36.11c1.03-0.64,1.53-0.36,1.48,0.86c2.6,3.06,5.31,6.13,9,7.89c2.31-2.2,3.32-1.23,2.3,1.73  l5.52,6.16c3.54,1.09,6.21,3.11,8.01,6.06c4.82,1.81,9.43,4.33,13.84,7.55c1.52-1.81,2.45-1.07,1.97,1.3l1.75,2.95  c16.32,9.32,32.67,18.48,49.07,27.48c8.47,2.08,15.96,5.43,22.47,10.07l20.72,6.64c0.39-1,0.78-0.96,1.17,0.07  c2.36,2.16,5.44,3.2,9.25,3.14l3.64,1.25c0.29-1.05,0.68-1.03,1.17,0l10.55,3.73c0.38-1.06,0.77-1.07,1.17-0.01l7.83,2.39l0.53,1.68  c14.02,2.14,28.03,4.3,42.03,6.49c0.16-1.05,0.53-1.05,1.08-0.08c4.05,0.14,6.13,1.24,6.23,3.3l34.9-0.47  c23.38,2.19,46.47,1.63,69.27-1.66l3.88-2.01c89.22-11.89,170.36-51.16,237.87-110.26l4.07-1.6l7.97-6.79  c6.06,2.23,7.19,1.4,3.38-2.5c4.34-5.49,8.91-10.95,13.72-16.37c-1.86-1.34-1.23-2.04,0.94-1.08l1.19-1.26  c-1.69-1.55-1.03-2.17,1.09-1.05c3.89-4.91,8.07-8.93,12.55-12.06c0.52-2.44,1.51-4.71,2.98-6.82c-0.51-0.93-0.17-1.28,0.94-1.09  c3.46-3.64,6.51-7.59,9.17-11.83c-1.02-0.45-0.95-0.79,0.17-1.01c4.6-4.45,8.37-9.67,11.31-15.67c3.55-4.09,6.41-8.91,8.58-14.48  c3.35-4.33,6.32-8.93,8.91-13.82l4.84-4.86c1.33-7.11,3.67-13.94,7.02-20.5c-0.96-0.48-0.93-0.87,0.1-1.17  c0.64-0.3,1.05-0.63,0.5-1.17c0.06-2.93,0.22-5.92,1.23-8.7c13.14-36.2,25.49-70.63,30.59-109.17l2.07-4  c0.91,0.05,2.3,0.34,2.3,0.91c0.02,5.06-0.59,40.83-2.16,42.25c-0.47,0.42-0.91,0.87-1.35,1.33c-2.6-0.11-4.11,2.44-4.54,7.65  c-0.15,3.96-1.15,6.8-3.03,8.52c1.56-0.45,3.11-0.8,4.68-0.82c52.46-0.78,120.35,8.87,170.93,22.96  C1193.66,722.47,1196.88,724.43,1200,726.4z" />
<path class="cls-11" d="M0,120.7V0h1200v98.35l-4.28,0.62c-26.55-4.8-53.31-8.13-80.27-10.01L875.23,77.87  c-89.05-4.8-177.69,3.46-265.67,18.13c-59.73,7.39-119.36,13.75-178.88,19.08c-49.28,9.66-98.01,21.76-146.22,36.29  c-30.74,7.73-63.71,15.78-95.39,17.44c-8.96,0.47-17.27,0.56-26.16-1.38l-1.43,2.03C107.91,154.1,54.33,138.73,0.73,123.35L0,120.7z  " />
<path class="cls-8" d="M1200,98.35v49.77c-2.01,3.01-5.32,4.45-9.94,4.33c-44.79,2.17-89.62,7.57-134.49,16.21  c-52.29,10.36-104.1,21.11-155.42,32.24c-15.43,1.89-30.93,4.57-46.51,8.05l-57.97,6.02c-7.22-1.69-14.24-4.27-21.06-7.73  c-3.1-0.17-6.25-0.44-9.18-1.55c-36.17-13.71-66.96-24.79-105.6-30.86c-43.04-6.76-86.93-6.82-129.99-0.25  c-38.63,5.89-69.58,16.81-105.81,30.21c-2.93,1.08-6.08,1.32-9.18,1.47l-10.44,2.39c-74.28,1.94-160.66-16.01-232.12-36.11  c-1.66-0.47-3.22-1.3-4.8-2.16c-1.59-0.86-3.09-1.87-4.57-2.93c101.82,0.44,199.05-50.78,295.73-57.93  c66.58-4.93,131.55-12.43,197.68-22.69c72.82-11.3,145.38-14.64,219.01-11.29l223.7,10.18C1133.75,87.29,1167.17,90.61,1200,98.35z" />
<path class="cls-6" d="M1200,148.12v172.54c-1.4,1.17-2.82,2.31-4.33,3.3c-1.5,0.98-2.98,1.95-4.58,2.57  c-38.82,14.91-77.85,29.69-117.43,42.38c-28.19,9.04-58.42,18.56-87.47,24.07c-3.55,0.67-7.19,0.32-10.76-0.08  c-0.3,0.99-0.93,0.91-1.89-0.24c-0.84,0.38-2.15,0.84-2.55,0.31c-3.54-4.67-8.16-12.96-11.04-18.26c-3.09-3.54-4.03-6.62-2.83-9.22  c2.33-2.87,5.51-3.45,9.06-3.59c21.42-1.52,42.85-2.8,64.32-3.82c3.15-0.31,30.68-3.37,29.77-4.58c-0.76-1.02-16.46-3.14-20.3-3.66  c-29.82-4.03-59.97-2.65-89.89-0.9c0,0-1.97-0.67-5.9-2.01c-3.56-1.77-5.34-2.65-5.34-2.65c-41.79-57.5-98.15-101-161.34-133.98  l-2.91-3.09l16.3,6.04c27.03-4.12,61.07-4.11,87.82-11.73c7.83-2.23,14.04-1.47,22.07-3.17l122.92-26  c40.27-8.52,80.01-13.49,121.28-19.49C1162.88,150.28,1181.92,152.94,1200,148.12z" />
<path class="cls-6" d="M162.91,167.44c81.51,23.38,166.76,39.9,251.93,38.81l-4.1,4.48c-64.62,32.02-120.87,81.44-161.87,140.73  l-5.09,3.49l-2.49,2.03c-53.62-6.49-107.22-12.99-160.81-19.5l-59.11-4.33c-8.49-0.01-15.61-2.07-21.38-6.18V120.7L162.91,167.44z" />
<path class="cls-4" d="M243.79,354.95c0.71,0.59,1.7,1.55,1.4,2.15c-2.59,5.31-13.46,22.63-17.2,26.82l-2.89,0.17  c-1.78,0.35-3.56,0.65-5.36,0.78c-1.78,0.14-3.53,0.24-5.25,0.03c-49.62-6.17-99.56-12.51-148.5-22.7  c24.6,14.09,50.78,24.93,76.96,35.46l3.53,2.81l-0.37,2.56c-18.48,12.68,13.28,25.04,8.35,2.98l1.73-1.99l4.55-1.35  c14.43,4.28,29.04,7.75,43.82,10.41l3.8,2.75l0.84,0.58c-9.37,17.99-14.86,36.87-20.37,56.45c-6.29,22.31-11.55,45.21-12.74,68.55  c2.75,5.46,2.14,12.55-1.6,17.4c-0.36,3.14-1.5,4.83-3.42,5.07c-54.35-6.81-109.13-12.81-164.33-17.99L0,543.75v-216.8  c27.13,6.81,54.79,5.02,83.26,8.48L243.79,354.95z" />
<path class="cls-4" d="M1200,320.66v200.37c-3.23,1.76-6.54,3.47-10.13,4.33c-52.74,12.71-105.08,26.27-157.12,41.74  c-3.4,1.15-5.58,1.06-6.54-0.27c-1.93-20.6-4.16-41.15-6.67-61.64c0,0-0.59,0.15-1.76,0.45c-7.65-39.81-24.5-76.74-42.33-112.74  C1056.27,375.97,1123.3,349.58,1200,320.66z" />
<path class="cls-3" d="M174.5,558.81c0.97,2.94,1.87,5.96,1.9,9.08c0.44,40.68,1.44,75.01,10.38,115.19  c4.98,22.41,11.01,45.77,21.27,65.58l-1.05,3.43c-1.52,2.81,0.61,5.95-0.93,9.92c-39.9-2.23-78.44-6.73-118.18-10.57L0,742.97  V543.75c55.03,4.65,109.96,8.95,165.08,17.5C169.26,561.9,172.71,562.28,174.5,558.81z" />
<path class="cls-3" d="M1200,521.03V726.4c-61.08-15.82-123.08-25.22-186.53-25.63c1.07-9.19,2.83-15.87,5.54-22.71  c2.5,1.57,0.23,3.41,2.03,4.24l2.2-43.62l-1.11-4.1c6.93-80.86-5.64-163.01-46.63-233.96l-1.96-7.95c0.6-0.07,1.3,0.36,1.89,0.24  c17.97,35.94,34.57,72.5,42.44,112.63l3.24-7.03c-0.85,29.27,4.02,39.9,5.64,67.85c3.48,0.07,2.05-2.98,2.79-3.82  c1.19-1.36,2.21,2.7,3.25,2.41C1088.66,549.48,1143.39,531.42,1200,521.03z" />
<path class="cls-9" d="M958.51,992.83c8.35,8.56,11.98,20.38,6.29,31.27c-5.26,10.07-16.45,15.77-27.88,13.29  c-11.25-2.44-18.66-12.14-19.61-23.48c-0.89-10.63,3.96-18.8,13-23.42C940.02,985.52,949.45,987.23,958.51,992.83z" />
<path class="cls-11" d="M140.68,1039.07c11.35-2.31,20.68,5.71,22.74,15.41c2.39,11.28-4.49,21.57-15.2,23.51  c-10.73,1.94-20.88-4.52-23.08-15.11C122.95,1052.35,128.58,1041.53,140.68,1039.07z" />
<path class="cls-9" d="M1060.28,1065c-4.83,0.39-7.79-3.33-8.21-6.21c-1.61-11.28,12.83-3.92,18.58-19.67  c1.48-4.05,6.28-5.62,10.07-4.13c3.11,1.22,5.18,5.42,3.86,9.77C1081.37,1055.31,1071.87,1064.06,1060.28,1065z" />
<path class="cls-14" d="M1060.55,966.28c6.02-2.14,11.45,1.03,12.93,6.53c1.19,4.42-1.21,10.37-5.81,11.9  c-5.31,1.76-10.78-0.29-12.84-5.55C1053.08,974.69,1054.66,968.38,1060.55,966.28z" />
<path class="cls-16" d="M774.61,207.23c40.85,18.84,76.75,44.69,111.37,74.31c22.37,19.14,39.19,43.36,58.22,65.41  c3.25-0.38,13.7,14.11,13.92,15.73c0.14,1.01-0.44,1.98-0.99,2.82l16.42,27.16c44.16,73.04,59.81,160.77,49.7,246  c-5,42.15-16.58,83.1-33.88,121.88c0.45,0.54,0.24,0.92-0.5,1.17c-0.14,0.35,0.06,0.83-0.1,1.17  c-5.07,15.48-12.66,28.79-22.25,41.77c-1.26,5.51-3.69,9.57-7.31,12.18c-2.81,5.86-6.51,10.99-11.11,15.38  c-0.17,0.24-0.13,0.71-0.17,1.01c-2.63,4.26-5.68,8.21-9.17,11.83c-0.25,0.39-0.62,0.76-0.94,1.09l-2.45,5.98  c-4.7,3.82-9.06,8.12-13.08,12.91c-0.38,0.14-0.75,0.77-1.09,1.05l-1.19,1.26l-0.94,1.08c-3.62,4.76-7.63,9.21-12.01,13.35  c-0.53,3.81-3.25,6.39-8.15,7.72l-4.9,4.6c-68.44,62.89-153.54,104-245.82,113.86c-28.09,3.42-56.48,3.67-85.18,0.75l-19.52,0.1  c0,0-1.9-0.67-5.7-2.02l-1.08,0.08c-14.7-2.15-29.37-4.53-44.01-7.16c0,0-2.13-1.13-6.38-3.4c-0.37-0.05-0.8-0.03-1.17,0.01  l-10.55-3.73c-0.37-0.06-0.8,0-1.17,0c-3.62-1.2-7.33-1.96-11.14-2.27l-1.75-2.11l-1.17-0.07c-9.61-2.04-18.38-5.61-26.3-10.71  c-14.46-4.21-27.51-11.31-40.06-19.29c-7.38-3.47-14.55-7.29-21.71-11.19c-2.55-1.39-4.5-3.42-5.94-5.94  c-0.64-0.41-1.38-0.85-1.97-1.3c-4-3.04-8.22-5.23-12.64-6.58c-2.51-3.15-5.48-5.41-8.92-6.77l-5.8-6.42  c-0.69-0.44-1.75-1.14-2.3-1.73c-3.7-1.73-6.42-4.82-9-7.89c-0.44-0.34-0.98-0.63-1.48-0.86c-14.43-12.5-28.45-25.49-42.03-38.98  l-1.39-2.97c-0.36-0.47-0.58-1.05-0.96-1.51l-4.2-2.59c-4.53-6.31-9.1-12.59-13.69-18.87l-4.18-2.68  c-9.74-15.79-14.61-23.68-14.61-23.68c-3.72-3.41-6.3-7.24-7.74-11.48c-5.2-5.42-8.91-12.16-11.15-20.2  c-5.14-7.56-9.26-15.84-12.36-24.83l-3.93-9.55c-2.39-5.8-5.68-10.83-7.65-16.46c-20.01-57.08-28.36-116.87-24.85-176.82  c0.34-5.75,0.84-11.69,1.6-17.4c1.5-26.24,7.65-52.03,15.09-77.19c5.43-18.34,11.26-36.53,21.06-52.89l-0.91-3.77  c1.34-4.53,7.42-18.81,10.12-22c0.84-1,2.32-1.26,3.63-1.47l18.69-29.14c38.42-59.91,107.36-119.99,171.05-148.7  C530.19,154.27,659.62,154.18,774.61,207.23z" />
<path class="cls-8" d="M198.97,991.17c-4.56-4.47-7.8-10.74-13.39-11.49c-6.69-0.91-10.89,5.09-15.91,8.96  c-4.71,3.64-11.16,1.54-14.81-2.33c-8.88-9.43-13.12-26.89-4.46-36.26c6.16-6.66,15.22-4.83,23.71-2.32  c14.23,4.22,22.4-19.48,31.63-12.75c8.1,5.91-5.24,15.01-1.6,27.05c1.19,3.95,7.66,6.03,11.57,9.48c5.7,5.05,2.51,10.98-1.46,15.76  C210.79,991.43,204.33,996.43,198.97,991.17z" />
<path class="cls-14" d="M1003.03,884.44c15.2-4.24,28.15,4.37,31.26,18.87c2.56,11.91-4.24,26.23-17.39,29.85  c-13.23,3.64-27.11-4.05-30.99-17.58C982.37,903.19,989.02,888.34,1003.03,884.44z" />
<path class="cls-9" d="M1078.31,834.24c12.66-4.22,24.3,3.63,28.08,15.54c3.55,11.17-4.01,23.58-15.28,27.06  c-11.88,3.67-23.82-3.12-28.1-14.79C1058.91,850.88,1065.44,838.53,1078.31,834.24z" />
<path class="cls-14" d="M166.41,885.53c8.03-1.79,14.79,4.08,15.96,10.7c1.3,7.39-3.39,14.26-10.37,15.78  c-7.16,1.56-13.95-3.14-15.76-9.5C154.13,895.07,158.18,887.37,166.41,885.53z" />
<path class="cls-8" d="M1101.78,775.49c5.93-3.12,12.41-0.21,14.92,5.18c2.54,5.45,0.42,11.74-5.43,14.73  c-4.83,2.47-11.12,0.65-14.09-4.07C1093.83,786,1095.44,778.83,1101.78,775.49z" />
<path class="cls-8" d="M103.26,932.54c5.35-2.88,11.43-0.9,13.82,4.26c1.97,4.25,0.88,10.66-4.17,13.24  c-4.42,2.25-9.86,0.97-12.84-3.11C96.9,942.56,97.64,935.57,103.26,932.54z" />
<path class="cls-9" d="M153.52,826.17v1.17c-6.48,11.93-24.3,4.67-19.64-8.96C137.93,806.51,158.24,813.37,153.52,826.17z" />
<path class="cls-9" d="M218.39,1023.52c4.43-0.9,7.52,1.87,8.51,5.24c1.33,4.53-0.94,8.26-4.98,9.3c-4.35,1.11-8.2-1.24-9.27-5.32  C211.55,1028.59,213.64,1024.48,218.39,1023.52z" />
<path class="cls-1" d="M278.86,865.98c-1.24-0.54-3.7-2.56-4.82,0.08c-0.43,1.01,2.67,4.64-2.2,4.54c1.41-8.01-0.75-17.08-8.08-17.65  c-1.57-1.72-0.82-5.94-2.52-7.47c-2.24-2-4.42-2.02-8.31-1.94c4.48-3.67-14.87-34.6-18.89-28.86c0.78-4.86,0.04-6.95-1.34-8.56  c-1.65-1.92-4.82-0.86-7.87-1.06c0.86-9.19,0.72-18.41-6.42-23.3c-1.19,3.21,0.86,4.76-1.66,5.93c0.73-9.51-2.43-17.83-5.82-26.06  C229.18,799.14,251.72,833.81,278.86,865.98z" />
<path class="cls-1" d="M459.38,988.13c-9.79-0.57-18.52-6.11-28.52-4.37c1.06-3.24,3.43-0.44,6.06-1.76  c-4.47-7.83-15.14-4.99-21.79-8.54c-6.26-3.34-12.01-10.53-19.99-9.03c14.25-3.58-35.92-14.25-29.79-23.43  C395.26,960.01,426.88,974.43,459.38,988.13z" />
<path class="cls-1" d="M153.52,826.17c0-4.95-0.92-10.83-5.81-12.36c-5.02-1.58-10.78-0.27-13.03,4.9  c-1.86,4.28-0.53,10.38,4.02,12.54c4.87,2.32,11.6,1.15,14.81-3.9c-2.16,5.82-8.38,8.93-13.82,5.99c-5.68-3.07-9.78-8.41-6.59-15.38  c2.01-4.38,8.77-8.66,13.72-5.95C152.47,815.08,157.74,820.32,153.52,826.17z" />
<path class="cls-14" d="M209.81,120.13c7.7-3.19,14.82,1.36,17.42,8.23c2.36,6.25-0.89,13.8-6.96,16.29  c-7.23,2.97-14.47-0.31-17.58-6.93C199.78,131.52,202.29,123.26,209.81,120.13z" />
<path class="cls-6" d="M292.87,79.28c6.5-2.49,12.24,0.52,14.31,6.47c1.8,5.16-0.5,11.52-6.48,13.91c-4.82,1.93-11.15-0.31-13.4-5.37  C284.91,88.89,286.28,81.8,292.87,79.28z" />
<path class="cls-14" d="M168.6,78.23c5.91-2.25,11.22,0.91,13.14,5.45c2.16,5.13-0.69,10.61-5.08,12.85  c-4.99,2.54-10.76-0.09-12.89-4.17C161.18,87.39,162.79,80.44,168.6,78.23z" />
<path class="cls-14" d="M970.43,124.05c9.24-3,18.31,2.67,21.02,11.09c2.75,8.56-2.18,17.82-11.09,20.72  c-8.36,2.72-17.41-1.59-20.4-9.93C956.84,137.25,960.33,127.34,970.43,124.05z" />
<path class="cls-14" d="M862.41,105.06c6.06-0.91,10.57,3.61,11.02,8.06c0.62,6.1-2.63,10.87-8.34,11.7c-5.1,0.75-9.83-2.68-10.89-7.27  C852.92,111.99,856.11,106.01,862.41,105.06z" />
<path class="cls-4" d="M957.13,365.51c-3.31-5.47-9.58-13-12.93-18.55c41.26-2.39,83.46-4.99,125.38,6.48  C1031.34,364.87,993.53,359.72,957.13,365.51z" />
<path class="cls-14" d="M1017.07,273.76c12.11-1.88,21.69,6.2,23.68,16.41c2.28,11.7-5.37,22.36-16.97,24.16  c-10.43,1.62-21.31-5.31-23.39-16.41C998.44,287.45,1004.89,275.65,1017.07,273.76z" />
<path class="cls-13" d="M1060.76,228.62c5.68-3.11,11.81-0.35,14.57,4.17c3.03,4.97,1.15,11-3.9,14.37  c-4.19,2.79-10.84,0.95-13.71-3.3C1054.74,239.45,1055.34,231.59,1060.76,228.62z" />
<path class="cls-14" d="M1102.77,305.59c3.86-1.77,7.23,0.2,8.28,2.85c1.38,3.48,0.22,7.08-2.6,8.49c-3.24,1.62-6.67,0.59-8.24-2.06  C1098.52,312.02,1098.96,307.34,1102.77,305.59z" />
<path class="cls-14" d="M144.15,277.48c14.41-3.95,28.25,5.25,31.33,18.42c3.26,13.89-4.41,27.6-18.71,31.07  c-12.87,3.12-26.71-4.41-30.56-17.82C122.46,296.06,129.48,281.51,144.15,277.48z" />
<path class="cls-8" d="M96.12,212.79c8.36-1.22,15.16,5.39,16.21,11.82c1.42,8.76-4.12,15.97-12.1,17.11  c-7.86,1.13-14.62-3.98-16.37-11.99C82.3,222.66,87.31,214.07,96.12,212.79z" />
<path class="cls-9" d="M240.67,233.35c2.15-1.48,4.98-0.57,6.04,1.74c0.76,1.65,0.98,4.65-1.76,6.55c-1.56,1.08-4.12,0.54-5.84-1.93  C237.85,237.91,237.96,235.21,240.67,233.35z" />
<path class="cls-6" d="M225.1,384.09c-5.24,8.17-8.88,18.37-12.85,27.24c-1.11,1.88-2.4,3.38-3.88,4.5  c-17.79-1.49-34.78-7.99-52.17-11.8c-1.51,3.52-10.37-0.05-9.71-3.55c-32.32-10.53-63.3-25.05-92.62-43  C111.46,370.66,168.64,375.6,225.1,384.09z" />
<path class="cls-14" d="M146.48,400.48c2.9,0.94,6.75,2.9,9.71,3.55c2.55,5.8,1.74,12.74-3.54,15.36c-6.14,3.05-12.59-0.06-14.17-5.49  C136.58,407.38,140.54,402,146.48,400.48z" />
<path class="cls-3" d="M176.09,541.41c-2.66-17.29,6.57-28.81,1.8-54.75c6.42,3.5-0.48,9.12,2.55,14.05l9.44-36.76  c2.56-9.97,7.18-22.94,9.24-31.04c1.18-4.63,9.98-10.69,9.24-17.07c-0.23-1.94,2.87-3.32,3.88-4.5  C193.66,452.86,182.09,496.41,176.09,541.41z" />
<path class="cls-14" d="M118.32,517.5c3.75-1.21,7.09,1.11,7.92,3.65c1.11,3.4-0.37,7.07-3.99,8.13c-2.67,0.78-5.97-0.15-7.53-3.46  C113.65,523.55,114.4,518.77,118.32,517.5z" />
<path class="cls-14" d="M1074.73,464.71c9.38-3.61,17.8,1.98,20.75,10.62c2.62,7.66-1.73,16.79-9.29,19.57  c-8.67,3.19-17.82-1.15-21.01-8.9C1061.8,477.75,1065.58,468.24,1074.73,464.71z" />
<path class="cls-14" d="M1120.44,395.75c5.27-2.91,11.16-0.47,13.57,4.51c2.09,4.31,0.79,10.28-4.24,12.92  c-4.37,2.29-9.71,0.83-12.53-3.04C1114.03,405.71,1114.95,398.79,1120.44,395.75z" />
<path class="cls-11" d="M1087.9,514.86c3.13-1.5,7.11-0.59,8.48,2.72c1.16,2.79,1.07,6.96-3.12,8.75c-2.29,0.99-6.33,0.6-8.19-2.75  C1083.59,520.9,1084.27,516.59,1087.9,514.86z" />
<path class="cls-9" d="M99.33,648.92c0.48-0.24,0.85-0.7,1.34-0.92c8.01-7.2,20.62-3.03,22.08,7.99c-2.04,14.8,2.82,25.29,13.85,35.15  c9.37,12.98-4.31,27.56-17.97,19.72C97.13,698.51,89.12,671.35,99.33,648.92z" />
<path class="cls-14" d="M73.85,614.92c4.91-1.9,9.25,0.99,10.68,5.19c1.36,3.98-0.43,8.96-5.07,10.56c-3.79,1.31-8.18-0.41-10.11-4.36  C67.48,622.45,68.55,616.97,73.85,614.92z" />
<path class="cls-2" d="M99.33,648.92c-7.3,21.49-2.63,47.06,16.77,59.55c7.12,4.58,13.42,5.56,19.31,0.15  c5.43-4.99,3.99-14.23-1.78-19.76c-23.26-22.33-2.55-34.02-18.23-41.99c-4.97-2.52-10.11-0.87-14.73,1.14  c3.26-5.45,9.89-6.03,15.46-2.94c16.77,9.3-3,23.34,18.16,42.33c5.73,5.14,8.24,12.84,4.39,19.47c-3.59,6.19-11.88,9.11-19.57,5.17  C97.6,700.97,86.21,669.26,99.33,648.92z" />
<path class="cls-13" d="M58.64,658.14c2.02-1.59,5.27-1.2,6.41,0.39c1.2,1.67,0.57,4.85-0.96,6.43c-1.35,1.39-3.87,1.15-5.37,0  C56.96,663.59,56.09,660.14,58.64,658.14z" />
<path class="cls-14" d="M1072.31,648.97c5.55-2.07,11.56,1.25,12.75,5.61c1.48,5.43-0.73,10.98-5.69,12.77  c-4.99,1.81-10.41-0.38-12.48-5.23C1064.87,657.4,1066.37,651.19,1072.31,648.97z" />
<path class="cls-7" d="M1113.32,597.34c5.47-2.86,10.67-0.8,12.74,4.24c1.73,4.21,0.94,9.72-4.26,12.23  c-3.66,1.76-9.38,0.73-11.77-2.9C1107.33,606.78,1108.38,599.92,1113.32,597.34z" />
<path class="cls-5" d="M629.1,294.84c3.46-2.85,5.48-2.67,6.04,0.54c10.23-0.02,20.4,1.42,30.5,4.32l1.15,2.65  c6.27,1.38,13.82,2.05,19.64,4.47c1.7,0.05,3.39,0.16,5.05,0.43c1.64,0.27,3.25,0.58,4.73,1.19c16.01,6.54,33.55,13.99,46.79,24.73  c4.29-1.58,9.83,4.55,11.9,8.11l26.86,19.58c3.61,0.49,6.63,2.56,9.06,6.19c5.07,2.82,9.47,7.03,13.19,12.62  c8.91,8.84,17.07,18.16,24.48,27.96l0.27,2.8c4.17-0.07,10.6,8.21,7.87,11.51l22.23,36.62l3.27,1.98  c4.97,13.02,9.95,26.05,14.92,39.07l-1.69,2.14c4.04,0.77,7.11,10.19,3.48,12.39c2.12,11.87,5.88,23.57,7.27,35.57  c0.72,1.02,1.4,2.07,1.92,3.19c2.47,5.28,3.83,34.69,1.98,40.32c-0.38,1.17-0.92,2.28-1.5,3.38c3.64,1.56,3.02,11.75-0.87,12.47  l-4.08,35.27l1.84,2.54c-4.44,19.79-10.78,39.04-19.03,57.76l-2.93,1.12c2.42,3.21-1.4,10.65-5.48,10.41l-19.81,33.68  c0.14,0.92,0.23,1.84,0.17,2.75c-0.58,7.96-31.4,39.18-39.18,46.42l-4.81,1.59c1.58,3.76-5.79,9.9-9.24,8.03l-30.52,23.51  c-0.17,0.87-0.39,1.73-0.75,2.52c-3.06,6.72-42.65,23.5-52.03,27.01l-4.76-0.44c-1.61,3.06-5.48,6-8.25,2.84  c-0.9,4.23-8.03,5.13-11.52,3.72l-38.54,8.71c-0.52,0.72-1.06,1.4-1.71,1.97c-5.69,4.94-46.4,3.13-56.2,2.22l-4.02-2.54  c-3.99,3.19-11.19,2.7-14.38-1.5c-2.81,3.29-11.46,2.01-12.97-2.1L513,865.95c-0.85,0.41-1.71,0.77-2.6,0.97  c-8.26,1.87-48.96-19.48-58.7-25.04l-2.97-4.16l-3.73,0.55l-13.04-9.11l-0.7-2.92l-2.93,0.86c-4.97-4.13-10.26-7.76-15.85-10.9  l-0.94-2.89c-0.69-8.46-12.72-11.26-17.6-16.69c-1.16-0.45-2.3-0.93-3.37-1.55c-1.04-0.61-2.03-1.22-2.78-2.04  c-11.08-12.27-22.97-25.47-32.77-38.7c-0.67-0.9-1.06-2.02-1.44-3.18c-0.38-1.18-0.61-2.42-0.78-3.67  c-3.86,1.13-9.73-8.57-7.14-11.57c-6.02-10.87-11.51-22.9-18.54-32.73l-3.67-4.11c-3.3-8.37-16.48-44.97-15.31-50.62  c0.2-0.97,0.56-1.9,0.97-2.83c-3.65-0.56-6.25-10.21-3.17-12.38l-3.66-36.63c-0.66-0.66-1.28-1.33-1.76-2.1  c-3.56-5.66,0.92-42.44,2.47-51.38l2.84-4.15c-3.48-1.95-1.58-10.92,2.25-11.53l8.48-35.31l-1.4-2.58  c8.08-17.75,16.15-35.5,24.23-53.25l2.72-0.31c-0.6-3.44,2.89-9.62,6.76-9.1c8.22-9.79,13.82-22.83,22.71-31.92  c1.81-3.46,3.71-6.96,6.43-9.79c11.75-12.28,24.75-25.32,39.5-33.43c3.55-5.31,8.79-9.66,15.71-13.03c3.46-3.52,7.1-5.49,10.93-5.91  c7.27,0.49,12.47-7.09,18.58-9.61c0.65-0.91,1.32-1.8,2.11-2.56c0.77-0.75,1.52-1.47,2.41-1.84c15.29-6.52,30.88-12.68,46.9-17.17  c0.93-0.26,1.97-0.15,3.06-0.02c1.1,0.13,2.18,0.44,3.26,0.78c8.24-5.84,21.69-8.21,31.49-5.85c6.47-0.96,13.52-2.51,20.01-2.76  c1.32-0.65,2.66-1.26,4.04-1.71c7.66-2.46,41.59-1.87,49.12,0.89C626.5,293.46,627.81,294.13,629.1,294.84z" />
<path class="cls-9" d="M384.41,809.69c12.52,0.79,24.12,5.72,34.81,14.79c4.25,2.96,7.38,3.18,12.05,1.76  c6.33,2.67,11.66,8.52,17.47,11.48l-3.82,5.23c-24.83,16.31-45.7,37.89-64.93,60.13c-6.98,6.95-17.52,16.68-27.51,9.95  c-46.76-34.67-88.17-79.6-116.37-136.38C283.84,805.94,331.67,820.25,384.41,809.69z" />
<path class="cls-13" d="M576.78,878.16l-2.07,6.39c-12.74,16.58-23.1,34.84-31.71,53.86c-5.78,17.85-14.35,33.66-25.7,47.42  l-4.01,0.73c-46.83-9.48-91.73-27.56-133-53.81c46.17-0.01,88.35-14.79,122.38-43.2c7.18-7.33,16.82-8.66,26.58-8.67  c9.6,1.5,18.83,1.73,27.69,0.68c1.6-2.66,3.42-4.3,5.47-4.91C567.08,877.28,572.09,877.95,576.78,878.16z" />
<path class="cls-15" d="M687.99,291.88c-8.39,5.57-17.42,6.87-27.23,5.88c-8.57-1.51-17.11-2.31-25.62-2.39  c-1.6-0.35-4.33-0.39-6.04-0.54c3.56-8.01,8.48-15.53,14.75-22.55c12.3-18.93,23.91-38.15,34.82-57.67  c5.2-7.21,13.14-17.42,21.88-18.72c41.52,11.79,81.83,28.33,119.51,54.6C770.67,248.48,725.4,262.01,687.99,291.88z" />
<path class="cls-13" d="M697.03,861.24l0.42,6.39c-9.05,29.37-10.72,60.33-12.16,90.64c-0.62,6.83-2.48,22.36-6.16,27.58  c-1.1,1.56-2.42,2.37-4.15,3.21c-41.18,7.63-83.71,9.77-126.7,3.05c45.56-20.99,75.88-54.34,95.29-97.06l4.6-7.04  c10.47-7.01,21.8-12.67,34-16.99c2.49-2,4.69-4.31,6.61-6.94C691.39,862.68,694.44,862.42,697.03,861.24z" />
<path class="cls-9" d="M454.56,309.28c-0.27,9.45-21.15,31.45-28.94,31.73c-1.31,0.05-2.49-0.29-3.57-1.07  c-2.66-4.63-4.04-10.07-4.15-16.33c-5.9-22.87-12.37-45.58-19.4-68.14c-1.25-6.01-2.42-12.4-2.46-18.54c0-0.6,0.34-1.22,0.74-1.86  c0.42-0.68,0.97-1.28,1.57-1.85c36.26-22.63,78.63-36.64,123.4-44.53C484.7,220.2,460.64,262.08,454.56,309.28z" />
<path class="cls-12" d="M332.95,740.59l2.65-1.45c5.27,5.85,10.27,8.17,14.98,6.96l2.23,1.38c12.71,17.34,27.38,32.84,41.14,49.14  c-59.56,19.71-127.66-1.69-170.28-47.46c-5.33-5.72-5.58-11.87-8.05-17.69l3.27-0.35c9.16,7.25,20.89,7.75,32.09,6.52  c26.45-5.4,52.65-5.53,78.58-0.38L332.95,740.59z" />
<path class="cls-13" d="M936.6,821.59c-22.53,33.22-51.28,62.85-85.22,88.95c20.02-48.36,22.73-97.35,5.19-144.27  c-2.58-11.93,1.76-30.84,9.25-40.41c1.29-1.65,2.23-2.83,4.69-2.73l3.6,1.69c12.3,18.23,25.9,35.52,40.79,51.88  c11.22,12.37,18.88,26.2,22.98,41.49L936.6,821.59z" />
<path class="cls-10" d="M936.6,821.59c-5.9-34.3-48.83-65.67-66.1-98.47c-1.58-5.57-2.96-10.21-7.47-14.65l0.4-2.73  c5.7-15.1,18.14-44.28,20.13-61.41c50.72,35.1,73.8,103.52,61.25,163.97C943.62,814,939.34,817.99,936.6,821.59z" />
<path class="cls-12" d="M819.06,932.92l-1.42-2.95c2.08-6.42,1.88-13.36,0.2-19.88c-10.87-29.29-20.6-57.77-24.08-89.4  c-0.11-1.01,0.18-2.07,0.48-3.17c0.31-1.12,0.78-2.19,1.3-3.24c-1.48-1.58-1.9-3.95-1.25-7.12c-1.17-2.68-1.17-4.87,0.02-6.55  c15.56-16.19,32.46-31.44,43.82-50.76c30.62,51.38,26.78,120.06-4.45,171.07C829.79,927.28,824.14,929.63,819.06,932.92z" />
<path class="cls-13" d="M970.53,421.75c20.97,39.74,33.64,84.77,37.8,132.73c-31.31-54.32-77.53-87.23-135.4-104.67  c-6.27-2.35-13.01-10.51-17.27-16.15c-3.44-3.09-4.66-6.23-3.64-9.41l4.49-1.61c24.64,2,49.3,0.3,74-5.09  c9.13-0.95,27.36-2.66,35.52,0.66C967.96,418.99,969.34,419.89,970.53,421.75z" />
<path class="cls-10" d="M291.73,627.17l2.48,0.93c-0.36,7.39,2.07,12.14,7.31,14.25c3.97,0.06,6.51,1.14,7.6,3.26  c4.23,19.77,12.51,38.31,18.01,57.56c-60.16-5.86-112.57-50.47-135.51-106.16c-2.61-6.33-1.86-11.39-1.94-17l3.97-0.44l16.89,8.27  c27.52,7.52,54.01,17.75,77.74,34.15L291.73,627.17z" />
<path class="cls-10" d="M821.48,360.73c1.48-0.13,2.95-0.21,4.44-0.09c5.88-1.57,12.18-1.5,18.1-0.04c1.07-0.1,2.17-0.04,3.24,0.08  c1.56-0.65,3.33-0.5,4.79,0.31l2.05,0.06l7.33,1.1c2.95,0.18,6.1,1.24,9.06,1.24c1.7-0.34,3.48,0.21,4.89,1.17  c0.69,0.06,1.69,0.44,2.34,0.23c8.51,0.96,16.73,3.56,24.66,7.8c17.47,7.81,62.4,30.18,68.14,49.16  c-37.33-10.77-71.93,11.24-118.51,2.5l-2.88-0.22l-9.29-11.92c-2.61-0.66-5.34-0.55-8.19,0.34l-2.89-2.02  c-12.1-15.01-27.13-27.98-37.94-43.37c2.44-3.48,6.28-5.38,11.53-5.71L821.48,360.73z" />
<path class="cls-9" d="M568.25,277.91c-2.64,7.01-9.67,10.38-16.12,13.31c-6.54,2.97-17.48,7.49-23.72,4.15l-0.9-3.28  c4.54-26.52,8.28-53.1,11.23-79.73c4.47-13.72,6.7-20.58,6.7-20.58c1.3-3.38,2.68-5.68,6.33-6.66c37.18-5.25,76.82-4.28,116.28,4.34  C622.84,209.7,591.15,238.31,568.25,277.91z" />
<path class="cls-13" d="M356.59,379.68c1.91,11.96-5.22,32.27-14.38,40.01c-1.47,1.24-2.48,2.01-4.66,1.31  c-4.06-3.27-7.19-7.8-9.38-13.57c-14.38-20.43-28.19-41.18-41.44-62.26c-3.31-4.95-4.45-9.87-3.42-14.76  c21.37-32.52,54.59-58.63,88.73-81.9C351.25,291.77,346.8,335.56,356.59,379.68z" />
<path class="cls-10" d="M754.56,832.15c6.35,55.9-16.93,110.56-59.41,147.61c-7.12,6.21-11.81,7.74-20.18,9.29  c6.79-12.72,8-27.05,8.62-42.16c1.2-29.44,4.18-58.17,13.43-85.66C716.65,852.32,737.49,845.3,754.56,832.15z" />
<path class="cls-10" d="M296.65,514.19l2.47,1.04c-0.9,4.96-1.39,9.85-1.47,14.69l2.59,3.13c3.46,1.48,5.32,3.46,5.6,5.92  c-2.13,19.16-5.46,38.5-3.55,57.63c-50.99-24.42-83.19-82.43-87.67-138.43c-0.76-9.52,1.87-13.77,4.31-20.99  c3.2,2.12,5.81,5.46,7.85,10.01c10.63,11.41,22.9,21.52,36.81,30.3c7.81,6.42,30.43,25.34,32.62,33.54  C296.47,512.06,296.58,513.12,296.65,514.19z" />
<path class="cls-15" d="M513,865.95c-36.49,42.2-94.72,63.02-150.29,54.67c-3.83-2.98-7.36-4.73-10.24-7.59  c11.33,2.62,21.17-6.04,28.88-14.96c20.2-23.37,41.52-44.3,67.39-60.35C469.65,848.36,490.22,860.57,513,865.95z" />
<path class="cls-12" d="M638.71,876.51c-13.06,53.11-58.29,95.98-110.6,112.1c-4.91,1.11-10.81-1.23-14.82-2.04  c9.12-8.87,15.16-19.01,20.07-31.41c11.09-27.97,24.73-54.07,43.42-77C597.41,879.08,618.67,881.04,638.71,876.51z" />
<path class="cls-12" d="M1009.36,585.74l-5.45-1.25l-16.58-11.27c-26.92-13.96-54.28-26.36-82.07-37.2l-3.94-4.2  c-0.84-0.59-1.64-1.2-2.33-1.93c-0.68-0.71-1.31-1.4-1.58-2.2c-2.24-6.59-4.39-13.23-5.96-20.01l-5.71-2.27  c-4.72,0.06-8.18-1.16-10.38-3.65l-16.5-43.19C924.08,466.89,993.69,521.58,1009.36,585.74z" />
<path class="cls-12" d="M995.97,698.48l-2.41,1.46c-5.41-4.64-10.41-9.88-15-15.7c-23.05-15.34-46.61-31.06-67.79-49.18  c-1.21-1.04-2.22-2.32-3.2-3.64c-1-1.34-1.87-2.79-2.69-4.26l-2.3-1.94c3.04-14.84-1.31-23.41-13.03-25.72l-1.03-2.9  c-0.28-15.64-0.6-31.34-2.39-46.89C945.01,570.15,995.18,636.48,995.97,698.48z" />
<path class="cls-13" d="M305.86,708.9l1.26,0.99l1.45-0.02c11.15,5.19,21.09,16.51,25.93,27.82l-1.55,2.91  c-57.44-16.06-91.16,13.75-117.34-9.11c-15.03-35.37-23.19-74.01-25.66-114.73C215.55,662.36,256.22,696.3,305.86,708.9z" />
<path class="cls-10" d="M398.35,233.22c-0.46,33.99,22.1,66.69,23.71,106.72l1.16,1.17c-1.12,3.63-3.02,7.17-5.71,10.64  c-15.89,13.79-31.24,28.21-45.92,43.23c-18.88-49.71-12.73-107.39,15.66-152.54C390.85,236.7,394.1,235.87,398.35,233.22z" />
<path class="cls-9" d="M847.25,269.48l-2.57,3.33c-8.73,3.13-16.79,7.81-24.22,13.32c-16.49,14.88-34.04,28.24-52.65,40.07  c-4.51,3.27-8.9,4.39-13.18,3.34c-1.63,3.03-8.4,4.84-11.62,3.62c-18.66-9.32-37.31-18.34-56.58-26.35  c37.68-37.12,93.82-52.5,146.47-44.73C839.67,263.08,842.87,266.16,847.25,269.48z" />
<path class="cls-10" d="M551.79,185.11c-8.81,13.85-12.17,30.36-13.3,47.51c-1.44,21.85-5.68,41.99-10.07,62.75l-0.52,2.52l-7.44,4.51  c-20.04,4.93-38.77,12.97-57.74,20.81c2.18-53.61,31.57-104.52,76.07-134.66C543.8,185.16,547.19,185.76,551.79,185.11z" />
<path class="cls-12" d="M337.54,421l1.92,2.31c-0.09,4.45,0.8,8.68,2.65,12.68l-25.54,56.14c-36.27-30.87-56.24-126.77-33.27-161.72  C293.43,363.23,322.51,385.47,337.54,421z" />
<path class="cls-13" d="M281.63,595.66c6.23,8.12,10.21,17.52,11.94,28.18l-1.84,3.34c-22.11-15.3-45.86-27.3-72.53-34.09  c-11.18-2.84-20.12-7.66-29.53-13.07c-0.56-36.03,5.45-72.56,16.63-108.72C214.5,522.33,241.28,566.24,281.63,595.66z" />
<path class="cls-12" d="M700.55,195.9c-12.28,9.21-21.33,19.95-28.6,34.26c-12.03,23.66-25.82,44.94-42.85,64.68  c-19.04-1.57-38.06-1.8-57.14-1.05c19.4-46.52,61.03-82.45,109.32-97.64C688.35,193.92,694.32,194.13,700.55,195.9z" />
<path class="cls-13" d="M298.1,485.33l3.01,10.01c0.79,5.25,1.7,18.02-4.46,18.85c-14.33-19-32.39-34.33-52.39-48.03  c-11.29-7.73-21.07-16.39-25.33-28.97c10.41-30.8,27.44-59.97,47.08-87.1C260.13,400.41,271.49,445.71,298.1,485.33z" />
<path class="cls-13" d="M995.97,698.48c-8.75,31.07-20.47,61.16-38.12,90.54c2.58-51.18-14.68-98.36-48.8-135.22  c-4.47-6.81-6.63-14.66-6.47-23.54l2.3-3.1c23.3,19.42,47.15,37.33,73.19,53.83C985.76,685.86,988.51,695.56,995.97,698.48z" />
<path class="cls-13" d="M1009.36,585.74c6.44,26.39-3.73,55.82-6.13,84.24c-16.23-52.2-47.62-93.78-93.96-120.48  c-2.62-2.5-10.4-13.4-9.04-16.13c0.28-0.56,0.67-1.07,1.09-1.56l56.83,23.97C977.58,563.97,993.98,573.54,1009.36,585.74z" />
<path class="cls-11" d="M904.88,627.16c-0.12,9.09,2.08,17.64,4.17,26.64c-22.89-15.06,2.6-41.91-21.41-44.73  c0.41-3.58,0.94-8.85,0.87-12.47c4.71,1.98,13.71,3.5,15.52,9.73C905.86,612.65,904.96,620.75,904.88,627.16z" />
<path class="cls-11" d="M901.33,531.81c2.19,6.23,6.22,11.38,7.95,17.69c-27.72-15.97-6.81-35.08-30.43-35.36  c-0.67-3.74-2.15-8.89-3.48-12.39c5.48,0.58,13.85,0.67,18.09,4.83C895.81,515.43,898.48,523.71,901.33,531.81z" />
<path class="cls-11" d="M852.02,424.25c5.42,9.77,14.19,16.68,20.91,25.56c-16.14,5.41-27.55-33.01-36.29-27.88  c-1.93-3.18-5.43-8.49-7.87-11.51c4.4-0.14,11.07-3.3,14.19,1.54C845.72,416.25,849.8,420.24,852.02,424.25z" />
<path class="cls-11" d="M305.95,633.24c1.01,3.52,2.36,8.59,3.17,12.38c-4.67-0.06-10.31-0.52-13.84-4.36  c-2.72-2.97-2.93-9.4-3.55-14.08c-1.49-11.28-6.43-20.99-10.1-31.51c15.67,11.43,10.14,7.07,17.87,34.7  C300.24,633,303.51,633.39,305.95,633.24z" />
<path class="cls-11" d="M870.49,723.12c-9.27,12.56-12.91,27.58-13.93,43.15c-13.22-35.37,13.79-33.66,1.39-50.11  c1.51-2.57,4.44-7.64,5.48-10.41C867.06,709.5,874.56,717.55,870.49,723.12z" />
<path class="cls-11" d="M562.4,876.66c-4.54,19.54-28.14-3.51-59.73,12.9c17.89-25.3,41.9-4.34,46.76-15  C553.47,875.52,558.27,876.11,562.4,876.66z" />
<path class="cls-11" d="M345.67,735.91c1.96,3.55,4.83,8.42,7.14,11.57c-9.42,6.28-13.1-5-19.86-6.89  c-3.48-13.1-15.49-20.88-24.38-30.72C332.54,709.51,334.57,742.43,345.67,735.91z" />
<path class="cls-11" d="M754.63,329.54l4.55,0.76c11.4,9.36,24.46,16.74,38.77,20.56l3.29,3.22c-9.56,1.71-16.23,4.64-26.85-3.21  c-5.27-3.9-12.71-9.11-19.48-9.6c-4.8-0.34-8.13-6.23-11.9-8.11C746.45,330.82,750.45,329.35,754.63,329.54z" />
<path class="cls-11" d="M348.87,426.9c-2.28,2.71-3.92,7.23-6.76,9.1c-5.18-1.72-5.9-10.07-4.57-14.99  c11.3-10.09,16.95-26.27,19.05-41.32c2.64,11.91,5.5,20.49-4.99,32.6C348.84,415.45,344.67,423.99,348.87,426.9z" />
<path class="cls-11" d="M308.08,527.44c-0.74,3.07-1.89,8.32-2.25,11.53c-3.91-1.77-10.8-5.21-10.87-10.65  c-0.06-4.39,2.43-10,1.69-14.14c4.68-8.81,1.5-18.99,1.45-28.86C316.06,512.08,292.96,514.99,308.08,527.44z" />
<path class="cls-11" d="M795.55,814.27l-1.35,3.36c-11.91,6.82-19.72,18.51-25.74,30.54l-3.35,1.49  c-7.22-21.88,22.52-30.25,19.97-41.03c2.6-2,6.89-5.58,9.24-8.03C797.08,804.77,797.39,809.64,795.55,814.27z" />
<path class="cls-11" d="M444.14,332.81c-7.79,7.71-17.44,12.64-26.64,18.94c-1.27-4.3,2.78-8.01,4.55-11.81  c14.12-5.27,24.92-17.64,32.5-30.66C453.08,320.75,452.22,324.82,444.14,332.81z" />
<path class="cls-11" d="M643.57,895.04c3.21-7.07,2.72-13.31,12.43-16.98c6.91-2.61,15.74-5.27,21.25-10.27  c2.98-2.7,8.15-1.91,11.52-3.72C690.51,877.82,662.47,875.01,643.57,895.04z" />
<path class="cls-11" d="M411.55,813.31c7.32,2.55,13.63,9.05,19.72,12.93c-6.14,12.75-25.49-14.05-46.86-16.55  C394.05,807.77,401.15,809.68,411.55,813.31z" />
<path class="cls-11" d="M551.95,296.54c-10.49,1.55-21.21,3.32-31.49,5.85c0.48-3.1,4.53-6.53,7.96-7.03  c14.96-2.17,28.66-7.15,39.83-17.46C567.86,287.61,559.56,291.59,551.95,296.54z" />
<path class="cls-11" d="M687.99,291.88c-6.51,5.2-12.18,9.29-21.2,10.46l-31.65-6.97C645.06,289.69,662.78,301.1,687.99,291.88z" />
<path class="cls-15" d="M821.48,360.73c-10.43,0.88-20.8,2.81-30.65,6.32c-4.23,1.51-6.38-4.24-9.06-6.19  C794.66,357.68,808.4,359.41,821.48,360.73z" />
<path class="cls-15" d="M902.4,372.59l-24.66-7.8C887.06,361.83,894.54,369.07,902.4,372.59z" />
<path class="cls-15" d="M844.03,360.6c-6,0.58-12.09,0.53-18.1,0.04C829.94,357.15,839.92,357.24,844.03,360.6z" />
<path class="cls-15" d="M861.44,362.15c-2.49-0.15-5.21,0.56-7.33-1.1C855.97,358.99,859.54,360.85,861.44,362.15z" />
<path class="cls-15" d="M875.39,364.56c-1.62-0.13-3.83,0.26-4.89-1.17c0.74-0.41,1.65-1.36,2.61-0.87  C874.13,363.04,874.91,363.66,875.39,364.56z" />
<path class="cls-15" d="M852.05,360.99c-1.6-0.05-3.2-0.14-4.79-0.31C846.25,359.04,853.68,359.88,852.05,360.99z" />
<path class="cls-13" d="M801.25,354.09c-17.75-3.96-32.89-12.7-46.62-24.55c39.84-14.91,55.52-48.51,92.62-60.06  c42.18,32,78.6,72.55,106.21,120.48C906.93,357.96,854.92,344.48,801.25,354.09z" />
<path class="cls-13" d="M795.55,814.27c2.15,28.93,9.85,56.49,20.83,83.94c4.73,11.83,7.32,23.19,2.68,34.7  c-33.99,21.99-72.04,38.96-111.73,48.93c37.37-36.41,56.48-82.39,57.78-132.18C772.09,835.22,781,821.4,795.55,814.27z" />
<path class="cls-2" d="M1081.8,844.11c6.53-1.88,12.91,3.12,13.97,8.5c1.23,6.25-2.04,12.48-8.24,14.03  c-5.82,1.45-12.14-1.94-13.67-7.71C1072.28,853.03,1074.69,846.16,1081.8,844.11z" />
<path class="cls-9" d="M1062.77,230.08c5.3-1.81,9.6,1,10.46,5.18c0.86,4.22-0.01,8.87-4.6,10.2c-3.79,1.1-8.42-0.63-9.94-4.17  C1056.98,237.32,1057.94,231.73,1062.77,230.08z" />
<path class="cls-16" d="M567.19,304.7l1.26,3.88c-9.22,29.08-7.97,58.42,4.79,86.17l2.69,0.91c5.55,13.45,19.22,23.59,33.14,27.08  l27.73,5.13l0.75-1.62c-8.57-29.59-3.54-60.48,8.89-88.19l3.83-2.79l0.47-4.62c2.28-5.33-1.22-10.17-10.5-14.54  c-2.83-2.8-6.36-7.32-1.6-9.11c13.1,2.12,25.97,5.06,38.37,9.06l-0.6,4.14c-14.34,16.42-24.2,36.98-26.8,58.71  c-2.64,22.1,3.35,39.74,12.45,59.58l2.47-1.13l33.36,23.38c3.91-33.52,19.27-63.09,46.17-83.81c0.58-0.44,1.39-0.6,2.25-0.75  c0.89-0.15,1.82-0.14,2.74-0.09c2.24-2.71,3.5-5.64,3.79-8.79c-1.96-5.26-4.31-10.43-7.03-15.5l1.4-2.49  c11.46,4.66,20.37,14.34,29.74,22.03l-2.25,3.8c-26.02,12.86-44.25,33.7-56.58,59.68l1.69,3.68c-1.43,7.41-2.52,14.85-3.02,22.31  c-0.31,4.58,0.04,9.21,1.26,13.6c1.39,5.03,18.01,30.58,20.64,31.93c15.61-31.21,43.66-50.23,77.17-57.95  c0.64-0.15,1.38,0.08,2.17,0.35c0.81,0.27,1.57,0.69,2.32,1.15c2.15-1.63,3.97-3.43,5.49-5.4c0.61-5.05,0.51-10.16-0.27-15.33  l2.62-1.38c6.93,8.75,11.08,19.19,16.49,28.58l-3.33,2.61c-24.4,2.09-49.44,9.19-67.19,26.89l-7.53,5.1l0.67,2.96  c-10.98,11.37-16.09,23.99-15.31,37.88l8.01,30.31c26.36-25.49,63.37-37.7,99.64-32.08c3.02-0.88,5.81-1.38,8.38-1.51  c7.49,1.35,5.26,11.02,6.82,17.35l-4.27,1.19c-21.76-5.9-45.12-5.34-65.95,3.68l-7.8,1.25l-0.72,3.09  c-11.06,6.57-23.31,14.8-29.32,26.53c-1.9,3.7-7.17,36.53-6.16,39.24c33.12-16.88,72.54-16.67,105.98-0.74  c2.22-1,4.76-1.9,6.01,0.89c6.01,3.99,1.24,10.04,0.58,15.19l-4.5,0.18c-21.26-11.45-45.39-16.16-69.28-11.99l-6.09-0.78l-2.87,3.24  c-10.14,3.76-31.06,13.14-37.28,21.58c0,0-5.11,9.78-15.34,29.34c32.45-0.45,64.28,12.31,87.85,34.56c0.52,0.49,0.8,1.26,1.08,2.08  c0.28,0.85,0.42,1.75,0.51,2.67c5.11,1.08,6.41,2.73,3.91,4.95c3.31,4.98-3.9,8.57-8.04,4.46c-4.01,1.27-11.24-5.13-9.72-9.27  c-6.74-6.11-14.24-11.44-22.53-15.23l-2.9,1.64c-4.57-0.95-15.07-4.47-19.54-6.31c-0.97-0.4-1.49-1.52-1.94-2.51l-1.37-0.73  c0.48,1.35-0.23,1.39-2.14,0.12l-1.97,2.43c-12.73-1.31-24.93-0.37-36.61,2.81c-11.77,8.41-23.25,17.35-34.46,26.81  c29.44,12.91,52.72,36.17,67.14,64.78c0.32,0.63,0.33,1.42,0.32,2.26c-0.01,0.88-0.18,1.76-0.39,2.63c2.21,1.19,3.99,3.06,5.35,5.63  l12.67-1.82l1.95,2.04c-6.8,7.87-16.14,12.46-24.29,18.5l-3.03-2.73c-1.61-6.56-3.69-13.01-6.35-19.23  c-7.87-18.38-18.94-30.12-33.25-43.52l-4.13,0.01c-23.22-18.5-46.55-13.69-72.07-4.73l-12.1,2.7  c22.18,23.08,34.33,54.76,35.53,86.59c0.03,0.73-0.3,1.48-0.67,2.26c-0.39,0.81-0.91,1.56-1.48,2.29c2.06,4.04,4.69,6.7,7.89,7.97  l12.33,2.43l1.11,3.09c-11.08,4.14-22.81,5.28-34.15,7.7l-1.61-4.29c3.74-22.99,1.04-47.18-10.2-67.79l-2.1-7.83l-3.81-1.38  c-14.66-25.43-35.54-30.48-62.55-31.33l-14.46-2.78c9.69,31.15,8.76,63.35-4.47,93.53c-0.29,0.66-0.91,1.18-1.59,1.72  c-0.7,0.56-1.5,0.99-2.33,1.39c0.1,6.36,0.41,9.16,6.01,13.2l-0.32,2.64c-8.26,2.12-17.3-3.34-25.62-5.43l0.02-3.6  c17.36-22,24.09-54.57,17.1-81.74c-4.32-16.77-13-25.9-25.12-37.48l-3.66,0.67c-9.59-6.86-19.09-13.82-28.5-20.89  c-3.87,29.81-19.97,58.13-44.47,75.78c-0.52,0.38-1.27,0.47-2.07,0.53c-0.84,0.07-1.68-0.01-2.54-0.14  c-4.08,6.3-3.35,12.87,2.18,19.7l-1.4,2.59c-9.65-4.34-16.33-13.27-24.19-19.72l2.26-3.77c19.21-10.02,36-25.31,44.74-45.41  l3.55-2.52c-0.94-1.94-1.41-2.91-1.41-2.91c6.13-16.17,9.01-29.05,1.96-45.34c-1.39-3.2-17.21-29.84-18.63-30.95  c-15.72,26.68-41.91,44.26-71.54,52.19c-0.65,0.17-1.4-0.01-2.21-0.22c-0.83-0.22-1.62-0.59-2.4-1.01l-3.31,2.77  c-4.67,0.42-5.94,4.41-3.79,11.97l-2.06,1.79c-5.3-7.46-10.51-15.66-12.96-24.47l2.94-2.47c20.62-1.16,41.43-7.05,56.56-21.7  l5.49-3.15l0.64-3.15c11.97-8.13,19.32-20.98,20.31-35.39c0.19-2.71-4.21-37.53-5.8-36.54c-29.16,18.17-54.3,26.19-89.01,19.59  c-0.7-0.13-1.34-0.63-2-1.18c-0.69-0.57-1.28-1.25-1.84-1.98c-1.48,1.24-3.43,1.32-5.82,0.26c-2.04,4.2-4.29,6.1-6.74,5.69  c-1.62-7.35-1.48-14.62-2.35-22.01c4.93-0.42,10.08,0.61,15.44,3.1c22.63,6.99,44.08,1.5,66.1-4.38l0.7-3.05  c11.74-6.5,20.73-13.52,25.48-26.35c0.62-1.66,8.29-32,6.68-31.75c-24.76,3.91-41.53,4.96-65.86-3.46  c-6.1-2.11-24.35-9.28-26.96-13.88c-0.44-0.77-0.74-1.62-1-2.5c-4.26-0.25-8.02,0.57-11.28,2.44l-2.53-1.1  c1.19-6.94,3.96-13.26,5.75-19.88l4.23,0.6c18.77,15.92,42.78,26.1,67.62,25.07l9.09,1.44l2.56-2.81  c22.28-2.06,32.86-16.56,43.01-34.36l6.73-9.05c-31.56-3.93-60.28-21.98-79.73-46.84c-0.42-0.54-0.57-1.3-0.71-2.12  c-0.14-0.85-0.13-1.73-0.07-2.62l-3.37-1.06c-2.07-3.95-6.31-3.77-12.71,0.53l-2.38-1.57c4.27-7.46,9.29-14.53,14.96-21.16  l3.84,1.77c13.15,21.15,30.43,40.97,54.53,49.41l6.11,4.09l3.55-1.6c14.73,3.39,26.49,4.63,39.64-2.9  c3.78-2.16,26.14-16.16,27.11-17.45c-26.7-15.25-46.01-41.66-54.8-70.93c-0.2-0.67-0.06-1.44,0.11-2.26  c0.18-0.86,0.51-1.68,0.88-2.49c-1.84-1.45-3.35-3.33-4.54-5.64c-4.71-1.36-9.61-1.23-14.69,0.4c-3.48,0.1-6.74,0.12-5.49-4.06  c7.73-9.01,20.54-13.39,30.49-19.53l2.67,3.38c2.51,23.98,10.16,48.28,27.21,65.94l5.01,7.7l3.92,0.11  c12.7,10.15,23.76,16.05,39.92,14.22l31.38-5.47l-0.19-1.75c-19.13-24.59-24.94-55.7-24.23-86.24l2.44-4.03  c-1.87-2.29-1.77-3.22-1.22-5.84c-4.23-3.66-9.49-5.61-15.8-5.86c-3.58-1.49-7.4-4.99-3.54-7.88  C541.68,307.46,554.42,305.7,567.19,304.7z" />
<path class="cls-9" d="M628.42,785.15c5.6,17.45-0.17,38.41-10.28,53.19c-4.94,7.22-18.73,23.63-25.21,28.67l-4.87,1.94  c-7.85-0.47-15.47-0.83-23.24-2.21c-1.12-1.08-2.11-2.41-2.98-4c-9.73-1.19-17.32-5.24-22.77-12.15l0.15-4.3  c14.5-32.03,17.66-66.6,3.59-100.33C586.51,758.41,598.01,740.55,628.42,785.15z" />
<path class="cls-15" d="M627.01,305.1l1.47,2.41c-1.84,4.47-2.45,7.09,2.4,9.03c9.17,2.46,24.64,6.66,19.39,18.72  c-14.05,30.42-20.23,62.36-8.51,96.62c-12.85-4.61-23.35-4.15-36-7.56c-11.84-3.19-29.42-16.5-32.51-29.57  c-10.89-24.3,2.21-48.61,17.6-67.51c2.26-2.77,20.35-20.83,22.47-21.93l4.04-0.7C619.9,305.14,624.32,304.66,627.01,305.1z" />
<path class="cls-9" d="M762.99,694.18c9.56,4.12,16.76,14.82,22.02,23.68c9.68,16.29,12.84,43.77,12.67,62.63l-2,3.55  c-0.62,1.04-1.51,2.49-2.23,3.55c-3.43,1.61-7.04,2.81-10.83,3.62c-6.96,5.5-18.37,13.04-25.59,4.7  c-15.97-31.13-37.87-56.28-72.77-68.87c13.72-7.93,22.67-18.86,34.52-27.12C731.37,691.12,748.92,694.96,762.99,694.18z" />
<path class="cls-15" d="M734.97,341.18l1.63,2.08c-0.64,5.71,2.83,11.09,10.4,16.15c3.6,4.48,7.52,12.38,2.05,16.67  c-28.9,21.11-46.26,51.11-48.82,89.15l-38.17-26.76c-19.47-45.54,10.82-95.29,59.48-102.48l3.97,1.28  C729.18,336.56,732.1,339.14,734.97,341.18z" />
<path class="cls-9" d="M457.21,740.73l-2.36,0.46c-21.08,20.79-51.2,22.09-78.76,16.81l-4.37-3.18c-2.77-4.05-6.24-7.29-8.58-11.75  l-1.1-6.6c-3.93-7.63-9.61-19.71,0.93-23.98c32.11-7.83,59.98-25.45,75.87-55.95l20.34,33.74  C468.83,706.27,463.11,725.13,457.21,740.73z" />
<path class="cls-9" d="M511.29,733.89c5.74,4.47,7.34,11.44,8.79,18.23c4.25,19.86,0.57,40.86-13.18,56.27  c-8.32,9.32-28.17,20.6-40.25,23.92c-1.75,0.48-2.96,0.4-4.8-0.22c-6.85-4.28-15.13-6.74-21.05-12.86  c-0.11-1.71-0.26-3.39-0.45-5.04c-6.52-5.83-10.7-12.6-12.56-20.3l2.26-4.03c26.68-18.16,44.22-47.76,47.19-80.46  C490.14,717.23,499.55,727.89,511.29,733.89z" />
<path class="cls-9" d="M793.33,623.58c10.54,0.19,21.46,7.51,29.67,13.96c6.35,4.99,11.19,10.96,15.41,17.78  c4.82,7.78,14.79,27.32,17.07,35.55c0.5,1.81,0.26,3.41-0.07,5.25c-0.47,0.91-0.88,2.63-1.16,3.66l-3.52,3.61  c-4.51,8.9-12.92,21.04-23.46,13.67c-25.06-24.66-57.97-38.58-93.88-36.83c7.44-11.31,12.78-21.51,17.94-33.2  C763.73,636.31,777.82,627.55,793.33,623.58z" />
<path class="cls-13" d="M405.84,677.22c-11.72,7.95-30.45,6.88-43.98,3.67c-13.93-3.31-31.73-11.23-39.21-23.6  c-0.99-3.91-1.68-9.3-3.1-12.9c0.03-6.33,0.4-12.63,1.11-18.91c1.49-5.11,3.98-7.41,7.47-6.9c33.35,7.19,67.21,1.03,95.05-21.06  l5.47,33.07C431.67,648.85,421.14,668.29,405.84,677.22z" />
<path class="cls-13" d="M394.75,601.23c-35.38,7.33-62.02-17.66-78.56-46.18l-0.86-5.53c0.55-2.34,1.29-6.99,1.08-9.39l1.91-3.37  c2.41-7.18,6.22-18.51,15.48-16.5c29.04,18.96,63.96,26.09,97.46,16.43l-7.8,34.71C420.36,585.15,406.61,594.9,394.75,601.23z" />
<path class="cls-9" d="M378.47,431.04c20.94,26.95,48.71,46.39,85.24,49.75c-22.87,25.72-17.68,41.87-57.04,48.04  c-22.35-2.15-38.1-24.5-47.72-43.15c-3.13-11.23-7.36-21.73-12.69-31.48l0.46-2.99c1.15-1.82,1.41-4.96,3.56-6.05  c1.21-1.65,2.87-3.01,4.99-4.07C360.68,434.86,370.23,424.28,378.47,431.04z" />
<path class="cls-9" d="M867.11,510.72c1.4,5.67,1.88,11.77,0.91,17.79c-2.2,3.03-6.34,4.27-10.22,3.73  c-36.71-5.11-72.75,7.1-98.93,34.77l-8.93-33.7c-4.2-15.85,7.75-30.85,16.67-42.37c31.32-21.87,69.59-5.13,97.36,14.87  L867.11,510.72z" />
<path class="cls-9" d="M877.8,597.63c-0.58,8.45,0.45,15.97-5.19,23.36l-6.43,1.32c-34.64-16.07-74.07-16.32-108.37,2.65l3.73-34.26  c1.86-17.06,20.33-30.46,35.27-38.73c10.16-2.32,22.11,1.39,31.94,4.66c8.45,2.81,14.68,6.92,21.42,12.54  c3.81,3.18,25.92,23.26,26.62,24.95L877.8,597.63z" />
<path class="cls-15" d="M519.3,856.71c-20.17-5.08-39.88-13.63-57.44-24.62c12.5-6.58,26.36-10.15,37.7-19.8  c23.12-19.66,24.65-52.13,11.73-78.4C552.06,754.73,548.09,824.86,519.3,856.71z" />
<path class="cls-9" d="M725.5,337.26c-22.44,4.3-42.51,14.28-54.4,31.82c-14.77,21.79-14.5,45.74-9.04,69.38  c-27.71-37.87-15.4-90.15,14.95-122.43C693.56,321.37,712.03,326.22,725.5,337.26z" />
<path class="cls-10" d="M422,369.16l1.38,4.12c-8.62,30.24-7.42,61.58,15.3,85.4l0.76,4.36c-29.18-6.84-49.21-30.09-64.48-55.27  c13.82-16.13,28.18-32.6,45.82-44.37C424.37,362.74,425.63,368.3,422,369.16z" />
<path class="cls-10" d="M873.2,636.17c-2.61,20.47-8.32,41.6-17.79,59.94c-18.89-38.62-18.47-54.12-62.08-72.54  C820.35,616.38,849.08,622.29,873.2,636.17z" />
<path class="cls-12" d="M765.13,694.06l1.37,0.73c8.51,0.77,16.13,5.13,24.38,7.18c8.32,3.79,15.77,9.1,22.53,15.23  c2.93,3.64,6.41,6.15,9.72,9.27c5.22,0.36,10.64,7.65,9.21,12.71c-10.32,16.16-21.86,32.63-36.68,44.86  c-3.55-42.92-1.15-57.94-32.69-89.86L765.13,694.06z" />
<path class="cls-12" d="M406.68,528.83c-29.33,4.6-59.07-7.33-80.95-27.11c4.74-17.53,11.27-35.1,21-50.51  c8.74,8.93,9.34,24.36,15.84,36.54C372.71,506.76,386.81,521.91,406.68,528.83z" />
<path class="cls-10" d="M516.83,320.96l-0.58,4.24c-20.52,23.22-30.72,54.23-18.87,84.05l-0.79,4.37  c-22.7-18.25-32.49-48.04-34.89-77.03c16.81-10.35,36.04-17.03,55.22-22.32C520.44,313.87,520.18,320.47,516.83,320.96z" />
<path class="cls-12" d="M867.11,510.72c-33.84-22.78-59.15-37.43-100.49-19.78c18.5-23.89,48.57-32.55,78.05-34.6  C854.41,473.25,862.4,491.6,867.11,510.72z" />
<path class="cls-12" d="M642.33,865.06c-17.72,3.78-36.02,4.98-54.27,3.89c26.17-29.7,41.86-37.28,40.36-83.8  C643.99,807.98,647.71,837.78,642.33,865.06z" />
<path class="cls-12" d="M617.36,304.61l-22.62,22.02c-17.83,17.36-27.33,43.43-21.49,68.11c-17.78-25.09-15.37-60.86-6.05-90.05  C583.87,303.39,600.95,301.19,617.36,304.61z" />
<path class="cls-12" d="M874.84,545.86c4.19,17.05,4.15,34.35,2.96,51.77c-35.47-29.3-29.24-37.84-80.99-45.65  C820.3,538.98,849.44,537.93,874.84,545.86z" />
<path class="cls-10" d="M752.7,820.25c-14.68,10.86-30.88,19.96-48.03,26.61c-4.17-1.4-2.36-3.41,0.52-5.58l-0.38-4.23  c12.73-24.07,17.31-52.95,4.84-78.04l0.41-4.24C733.15,767.69,747.16,794.54,752.7,820.25z" />
<path class="cls-10" d="M817.02,413.82c1.27,1.89,0.54,2.45-1.41,1.18l-3.87,1.04c-31.18-12.31-68.52-12.48-89.7,17.3l-3.93,1.46  c8.35-29.44,31.88-49.93,58.83-63.48C791.86,383.56,806.74,397.36,817.02,413.82z" />
<path class="cls-10" d="M394.75,601.23c-25.19,13.17-55.74,13.09-81.54,1.28c-1.71-14.43-0.91-40.03,2.11-52.99  C337.93,583.62,349.25,600.04,394.75,601.23z" />
<path class="cls-12" d="M457.21,740.73c-8.82,23.31-28.05,40.76-50.56,51.7c-13.15-10.78-25.25-23.47-34.93-37.61  c30.28,5.82,59.5,6.63,82.89-16.59c0.33-0.33,2.63,0.53,2.47,0.92C456.92,739.53,457.22,740.22,457.21,740.73z" />
<path class="cls-10" d="M405.84,677.22c-14.48,19.11-41.03,26.58-64.99,27.33c-8.96-14.15-14.1-31.04-18.2-47.26  C347.14,678.25,374.1,685.97,405.84,677.22z" />
<path class="cls-11" d="M529.28,310.88c2.04,9.69,7.39,2.77,19.38,10.41c4.32,2.75,1.27,6.19,1.17,9.18c-2.35,0.56-4.88-0.3-7.58-2.57  c-5.34-1.79-11.02-1.89-17.04-0.31c-4.59-0.07-10.67-1.02-8.38-6.62l0.1-6.68L529.28,310.88z" />
<path class="cls-11" d="M638.64,306.98c-1.22,9.45,11.67,9.07,15.25,18.41c1.78,4.63-2.19,6.77-3.62,9.87  c-1.16-22.55-34.09-8.02-23.26-30.16L638.64,306.98z" />
<path class="cls-11" d="M431.22,356.12c3.96,5.05,11.46-2.5,21.21,1.56c2.9,1.21,2.66,4.78,3.52,7.73c-2.31,1.46-5.33,1.59-9.06,0.4  c-5.89,0.02-11.37,2.12-16.46,6.3c-3.67,1.44-8.62,2.2-8.43-2.95c0.37-1.75-0.92-4.03-1.21-5.75  C424.13,361.19,426.7,356.16,431.22,356.12z" />
<path class="cls-11" d="M747.21,349.29l7.39,15.28c1.12,2.31,0.48,6.37-0.67,8.48c-0.84,1.53-3.13,1.74-4.87,3.02  c3.77-20.32-21.38-20.41-14.08-34.89C738.77,343.87,744.35,345.48,747.21,349.29z" />
<path class="cls-11" d="M828.17,427.76c-1.46,3.32,3.23,15.68-2.02,20.43c-1.5,1.35-3.8,1.31-5.81,1.68l-1.41-2.53  c2.19-7.48,0.54-14.95-4.94-22.43c-1.39-3.6-3.13-9.61,1.62-9.9l1.41-1.18C823.11,415.73,824.56,423.19,828.17,427.76z" />
<path class="cls-11" d="M793.44,787.58c-4.07,5.98-11.95,8.95-16.45,14.17l-11.98,2.08c-6.36,1.1-5.9-3.87-7.99-7.93  C778.8,801.54,773.94,785.11,793.44,787.58z" />
<path class="cls-11" d="M687.75,849.51c3.37-0.43,3.32,2.38,0.22,3.37c-3.36,0.69-8.02,3.19-11.49,4.48  c-8.71-4.87-20.92,0.86-21.33-13.49c2.67-0.9,5.75-0.29,9.26,1.82c5.68,0.64,11.6,0.12,17.76-1.55  C685.3,844.85,689.51,845.98,687.75,849.51z" />
<path class="cls-11" d="M440.81,819.22c-2.54-2.63-8.29-3.05-9.97-7.08c-1.77-4.25-4.67-8.03-5.77-11.91  c-1.49-5.25,0.96-7.64,4.99-10.38C428.69,807.04,450.03,811.86,440.81,819.22z" />
<path class="cls-11" d="M564.82,866.74c-6.75-1.2-13.8-0.69-19.91-4.61c-2.62-1.68-5.05-4.57-6.7-6.57c-2.51-3.05-0.27-6.45,1.01-9.27  C548.93,865.01,567.85,854.47,564.82,866.74z" />
<path class="cls-11" d="M378.47,431.04c-18-1.65-18.36,15.46-28.18,14.12c0.84-6.29,6.74-11.02,9.73-16.22  c3.4-1.27,6.84-3.36,10.06-4.1C375.46,423.59,376.06,427.93,378.47,431.04z" />
<path class="cls-11" d="M362.98,712.48c-10.97,15.3,6.7,19.99,0.17,30.59c-2.42-4.63-8.34-8.43-9.33-14.05  c-0.72-4.09-1.67-8.81-0.41-12.5C354.9,712.09,359.3,713.38,362.98,712.48z" />
<path class="cls-11" d="M854.25,699.78c-2.21,8.19-7.91,15.02-11.65,22.16c-2.71,2.79-11.13,5.36-11.43,0.06  c-0.87-1.92-2.4-3.47-3.91-4.95C848.09,719.51,843.95,698.78,854.25,699.78z" />
<path class="cls-11" d="M328.13,618.57c-11.83,11.19-1.57,19.82-8.58,25.82c-2.55-6.47-2.5-13.12-3.99-19.87  c2.27-1.84,2.78-5.08,4.13-6.55C322.93,614.46,325.75,618.06,328.13,618.57z" />
<path class="cls-15" d="M842.6,721.94c-3.17,6.06-6.62,11.55-10.25,17.24c-2.77-4.1-5.52-9.24-9.21-12.71  c3.47,0.55,7.18-0.88,8.04-4.46C835.08,724.29,838.99,720.3,842.6,721.94z" />
<path class="cls-11" d="M333.79,520.26c-14.13,5.52-10.11,18.87-17.38,19.87c-0.41-4.73,2.72-13.56,3.57-18.53  C325.08,517.92,328.87,517.05,333.79,520.26z" />
<path class="cls-13" d="M705.19,841.28c-0.9,1.62-0.6,3.85-0.52,5.58c-5.7,2.21-10.69,4.79-16.7,6.02l-0.22-3.37  c-0.28-0.87-0.63-2.17-0.07-2.56c1.48-1.03,14.19-7.08,15.02-7.09C703.65,839.85,704.48,840.6,705.19,841.28z" />
<path class="cls-5" d="M628.2,743.21c-93.18,20.14-184.05-40.39-197.52-134.6c-11.15-77.99,39.29-151.45,115.3-173.01  c52.89-15,109.04-1.86,151.2,34.31c39.2,33.62,62.91,86.14,57.02,139.36C746.74,676.71,693.86,729.02,628.2,743.21z" />
<path class="cls-9" d="M710.07,754.76c15.4,27.62,10.25,59.42-4.88,86.51l-17.44,8.23c-11-9.45-12.34,6.85-32.6-5.63  c-1-34.69-12.26-67.49-38.31-92.78C656.95,745.38,668.87,725.86,710.07,754.76z" />
<path class="cls-13" d="M815.61,415c-4.27,11.16,12.98,18.54,4.73,34.87c-35.55,6.44-66.06,27.6-81.36,61.26  c-22.65-34.26-29.84-29.54-20.86-76.33C742.03,399.89,779.43,400.89,815.61,415z" />
<path class="cls-9" d="M516.83,320.96c5.77,11.29,18.6-4.81,33,9.5c-1.05,33.91,4.15,66.61,27.69,93.79  c-39.08,3.38-45.97,17.48-80.93-10.62C481.87,378.53,493.14,347.6,516.83,320.96z" />
<path class="cls-9" d="M455.95,365.42c9.31,31.86,27.79,59.45,58.88,75.8c-35.46,18.21-32.56,31.87-75.38,21.83  C412,433.31,412.32,406.98,422,369.16C431.67,376.4,433.4,357.48,455.95,365.42z" />
<path class="cls-15" d="M813.41,717.19l-22.53-15.23C799.26,704.04,807.83,710.27,813.41,717.19z" />
<path class="cls-14" d="M733.87,535.26c2.52,5.56,4.68,11.2,6.48,16.95c-0.12,0.66,0.12,1.42,0.08,2.09c-0.6,0.53-0.29,0.84,0.37,1.17  c0,0.37,0.12,0.8,0.08,1.17c0.18,3.31,0.91,6.43,2.21,9.38c0.19,0.61,0.28,1.72,0.15,2.34l1.06,5.86c0.61,0.82,0.59,2.52,0.78,3.52  c0.68,14.44-0.37,29.03-2.29,43.36c-0.15,0.6-0.41,1.97-0.94,2.28l-0.94,3.58c-12.69,57.5-65.06,100.07-123.31,108.9  c-46.93,7.11-92.5-4.84-127.79-36.17c-33.67-29.89-53.82-73.06-51.54-119.56c2.51-51.11,33.32-97.09,75.19-121.03  C595.88,411.95,697.83,450.62,733.87,535.26z" />
<path class="cls-15" d="M742.78,621.09l2.29-43.36C747.36,589.56,745.5,610.52,742.78,621.09z" />
<path class="cls-15" d="M740.35,552.21c-2.66-5.25-6.19-10.86-6.48-16.95C736.08,540.46,741.63,545.18,740.35,552.21z" />
<path class="cls-15" d="M744.29,574.22c-1.79-1.52-1.5-3.7-1.06-5.86C744.84,569.8,743.99,572.28,744.29,574.22z" />
<path class="cls-15" d="M743.08,566.02c-2.59-2.29-2.63-6.11-2.21-9.38C742.56,559.44,742.15,562.94,743.08,566.02z" />
<path class="cls-5" d="M590.56,482.24c1.66-3.19,7.23-3.16,8.26,0.23c2.6-2.65,5.36-2.7,6.04,1.17c2.29-2.36,5.38-2.76,9.27-1.22  l16.02,4.76l1.56,2.8c2.92-1.68,7.1-0.19,6.99,3.48c3.4-1,6.08-0.7,6.6,3.17l3.09-0.54c6.56,5.21,13.13,10.43,19.7,15.65l-0.12,2.9  c2.97-0.89,7.02,2.56,4.88,5.49c3.23,0.02,6.76,2.29,4.78,5.61l13.52,25.03c3.53-0.64,4.76,3.16,1.49,4.73  c2.99,1.49,4.83,4.1,2.5,6.96c3.63,1.69,4.32,10.28,4.63,14.57c1.39,3.81,1.01,6.45-1.14,7.92c0.44,2.83-0.02,6.5-0.05,9.34  c2.26,2.47,4.08,6.73-0.08,8c-0.1,9.62-4.35,18.94-7.1,28.28c1,2.9,0.94,6.1-2.47,6.93l0.36,3.14l-9,14.13l-3.22,0.51  c-2.4,3.26-5.76,5.56-7.8,9.2c0.21,3.98-3.31,7.86-7.24,6.93l-0.45,2.82c-1.81,1.74-12.98,10.13-14.18,9.67  c-0.56-0.21-1.08-0.54-1.58-0.89c-3.25,1.79-10.12,3.94-12.92,6.19c-1.31,3.31-3.38,5.86-5.91,2.34l-1.99,3l-16.35,4.15  c-6.55,10.96-13.56,21.4-21.01,31.34l-1.74-0.17c-10.65,1.15-21.2-1.38-31.6-3.65l2.77-3.18c13.71-3.9,25.4-11.75,34.1-23.06  c0,0-0.92-0.76-2.77-2.29c-2.75,2.11-6.68,2.35-11.81,0.72c-4.49,0.24-7.23-0.93-8.23-3.51c-4.36-0.61-8.62-1.97-12.88-3.12  c-3.01,0.92-5.97,1.68-7.04-1.91c-5.71-4.78-13.7-7.44-19.9-11.56c-4.52,0.81-11.98-6.02-12.16-10.16c-3.65-0.02-7.08-2.1-6.17-5.92  c-3.76-5.34-8.65-12.22-13.52-16.68c-4.43-1.92-5.61-4.16-3.54-6.7c-2.9-1.02-4.47-3.04-3.19-5.98l-2.38-1.22  c-1.11-2.39-4.17-11.9-1.25-12.8l-4.14-8.69c-1.07-2.53-0.63-4.29,1.32-5.29c-2.61-2.48-4.97-5.25-0.86-7.03  c-3.18-0.58-2.69-14.52-2.2-15.16c0.61-0.81,1.34-1.37,2.36-1.58c-2.24-5.77-1.77-10.03,1.43-12.78c-1.67-2.78-2.03-4.4,1.19-5.81  c3.48-7.34,6.49-15.8,9.13-23.58c-0.94-3.38-0.08-4.92,2.55-4.63c2.78-0.59,2.76-4.21,3.72-5.98l0.56-3.68l11.77-13.13l3.75-0.6  c0.27-3.58,3.09-6.98,6.88-5.86c0.44-3.08,1.51-5.04,4.82-4.53l1.63-3.35c0.8-0.72,18.46-9.08,19.53-9.11  c0.97-0.03,1.81,0.72,2.52,1.41c0.42-3.4,4.58-5.61,6.51-2.29c1.63-2.77,3.58-5.43,6.07-1.97L590.56,482.24z" />
<path class="cls-10" d="M738.29,604.43c0.25,0.73-0.14,1.69,0.04,2.44c1.43,5.14,0.05,10.98-4.82,4.81l-34.89-26.72l-3.49-22.48  c5.42-3.34,14.82,2.71,19.86,6.25C726.03,576.48,738.09,590.46,738.29,604.43z" />
<path class="cls-10" d="M700.98,496.94c3.82,1.58,4.33,5.66,6.71,8.28c-5.65,3.32-12.19,5.31-19.61,5.97  c-6.88,2.61-13.59,3.76-20.12,3.46l-22.66-18.01c0.34-6.05,10.4-7.8,15.79-8.62C673.88,486.08,691.01,488.3,700.98,496.94z" />
<path class="cls-11" d="M516.37,668.14c3.65,1.88,8.78,7.68,12.16,10.16c-11.35,4.07-24.58,11.65-37.74,10.7  c-11.67-6.28-20.15-20.41-25.51-31.83l4.12-0.06c12.97,8.35,28.04,11.26,43.26,9.22L516.37,668.14z" />
<path class="cls-10" d="M656.41,462.87c2.33,0.36,3.81,1.57,5.83,2.58c0.56,0.71,1.27,1.92,0.85,2.32  c-2.93,2.8-26.53,22.2-28.26,22.71l-3.11-0.5c-9.03-2.03-17.53-6.44-26.85-6.34c-2.29-5.6,6.39-11.59,10.96-14.56  C626.97,461.86,643.87,457.03,656.41,462.87z" />
<path class="cls-10" d="M513.42,468.68l3.07,1.82c2.38,12.34,3.12,24.88,2.2,37.62l-1.79,2.76c-5.47,5.69-10.11,12.27-16.08,17.41  C493.56,508.7,496.72,481.51,513.42,468.68z" />
<path class="cls-10" d="M691.19,693.66c-2.17,0.63-2.44,3.73-6.18,4.07c-2.89-14.56-6.92-28.3-7.94-42.43  c4.12-5.6,7.08-12.74,11.86-17.78c1.3,0.18,2.74,0.43,3.59,1.39C700.79,648.18,703.03,684.89,691.19,693.66z" />
<path class="cls-10" d="M558.88,449.93c3.88-2.76,5.27-1.26,4.65,3.36c-0.82,6.13-6.52,28.77-8.94,33.93l-2.32,2.24l-23.69,11.05  c-0.98-0.84-2.03-1.82-2.25-3.11c-2.31-13.47,15.83-43.41,30.14-47.14C557.19,450.16,558.24,450.24,558.88,449.93z" />
<path class="cls-12" d="M482.8,581.08l-0.16,16.74c-5.94,2.49-13.71-5.8-17.72-10.35c-8.91-10.12-17.09-26.74-12.88-40.25  c-1.04-2.16,1.18-4.1,1.6-5.74c0.77-0.5,2.02-1.18,2.44-0.74c6.16,6.47,22.99,25.75,25.47,32.47L482.8,581.08z" />
<path class="cls-10" d="M486.32,618.83c0.93,4.63,3.74,9.27,3.63,14.02l-3.16,1.92c-18.37-3.86-36.42-18.47-41.25-36.94  c0.06-1.56-0.1-3.19-0.18-4.75l2.13-2.24C462.98,593.29,480.49,603.85,486.32,618.83z" />
<path class="cls-11" d="M646.76,719.83c-2.48,2.34-6.31,4.04-9.83,4.11c6.26-13.3,4.68-27.62,8.9-40.92c5.55-3.05,10.4-9.13,16.21-11.6  c4.14-0.29,4.77,5.36,5.1,8.88C668.32,693.26,659.46,714.74,646.76,719.83z" />
<path class="cls-11" d="M588.4,697.67l0.87,3.32c-8.64,13.07-28.39,25.65-44.07,21.27c-3.89,0.27-8.16-0.28-11.2-2.93l34.35-24.45  L588.4,697.67z" />
<path class="cls-11" d="M738.02,589.53l-3.7-0.94c-10.22-13.35-22.77-25.44-39.33-30.09l-2.35-2.99c-0.19-1.23-0.9-3.63-1.49-4.73  c12.23-3.3,26.9,1.63,41.66,3.6C737.5,565.43,739.54,578.2,738.02,589.53z" />
<path class="cls-11" d="M692.37,488.59l-3.58,1.45c-15.59-4.1-31.81-3.6-46.28,3.96l-3.79-0.54c-2.09-1.09-5.3-1.82-6.99-3.48  l30.53-24.53C673.57,471.12,685.05,478.2,692.37,488.59z" />
<path class="cls-12" d="M627,691.55c0.85,0.87,1.79,1.87,1.83,3.05c0.49,11.71-22.63,35.93-35.57,36.14  c-2.33-0.44-5.48,1.68-7.36-0.89l21.21-33.09C612.16,694.65,622.13,693.12,627,691.55z" />
<path class="cls-11" d="M725.29,534.33l-3.72,0.34c-13.38-9.18-29.1-15.14-45.49-12.75l-3.24-1.78c-1.11-1.81-4.26-3.34-4.88-5.49  c12.7-4.62,26.29-7.53,39.72-9.43C715.19,513.43,722.4,523.55,725.29,534.33z" />
<path class="cls-11" d="M642.11,458l-2.55,2.55c-14.8,1.9-28.11,9.16-37.21,21.06l-3.54,0.87c-2.76,0.47-5.55-0.54-8.26-0.23  c5.11-11.55,12.89-22.76,21.76-33.78C621.94,448.82,638.14,450.5,642.11,458z" />
<path class="cls-11" d="M544.69,454.69l-0.5,3.64c-11.42,11.9-17.96,27.22-18.35,43.72l-2.06,2.98c-1.36,2.32-5.2,4.11-6.88,5.86  c-1.39-13.94,1.36-29.08-3.47-42.21C522.3,461.86,533.79,454.62,544.69,454.69z" />
<path class="cls-11" d="M592.71,446.43l-1.16,3.52c-13.54,8.36-24.74,19.75-29.96,35.02l-2.8,2.19c-2,0.65-4.56,1.38-6.51,2.29  c-2.19-2.25,15.7-48.93,6.6-39.53C568.99,445.06,581.53,445.52,592.71,446.43z" />
<path class="cls-11" d="M483.5,604.86l2.82,13.98c-9.42-12.49-26.59-25.64-40.96-25.75c-0.55-10.8-1.38-23.46,3.73-32.92  c1.18,0.46,2.24,1.17,2.71,2.36c6.67,16.6,12.35,28.92,29.06,38.18L483.5,604.86z" />
<path class="cls-11" d="M484.23,568.3c0.22,3.27-1.39,9.24-1.43,12.78c-4.44-10.78-11.81-18.98-19.63-28.27l-9.53-11.32  c2.59-10.19,7.24-20.24,14.09-28.24c0.93,0.9,1.67,1.99,1.69,3.3c0.26,18.56,0.73,33.35,14.45,47.99L484.23,568.3z" />
<path class="cls-11" d="M493.15,638.83c0.8,2.2,3.23,4.36,3.54,6.7c-12.93-2.66-27.41-2.01-40.4-7.65c-6.98-7.02-7.83-20.13-9.26-29.39  c1.35,0.05,2.66,0.4,3.57,1.41c11.73,12.88,21.27,23.28,39.77,26.1L493.15,638.83z" />
<path class="cls-11" d="M497.1,534.28c0.11,1.7-2.1,3.3-2.55,4.63l-16.64-40.78c6.69-7.29,12.17-15.03,21.75-19.49  C491.36,497.66,490.06,516.44,497.1,534.28z" />
<path class="cls-15" d="M738.02,589.53c2.05,4.3,0.97,10.46,0.27,14.9c-6.79-19.9-22.45-37.51-43.16-41.96  c-1.25-1.68-2.19-4.97-2.5-6.96C712.3,559.79,726.03,573.91,738.02,589.53z" />
<path class="cls-16" d="M452.05,547.22c-0.3,20.54,11.78,42.57,30.6,50.6c-0.02,1.8,0.51,5.3,0.86,7.03c-17.41-9-30.6-25.39-34.41-44.7  C448.26,555.95,449.22,549.99,452.05,547.22z" />
<path class="cls-16" d="M646.76,719.83c12.7-11.99,23.57-33.28,15.27-48.4c1.25-2.59,5.94-4.61,7.24-6.93  C673.09,680.2,664.82,720.9,646.76,719.83z" />
<path class="cls-16" d="M510.21,662.22c2.38,0.74,4.24,4.93,6.17,5.92c-18.13,3.16-35.94-0.29-51.08-10.97  c-1.65-3.52-6.41-6.27-5.61-11.39C472.53,658.79,493.44,669.03,510.21,662.22z" />
<path class="cls-16" d="M698.5,602.3l0.08-8c16.45,10.27,37.77,47.01,23.86,59.7C723.51,632.53,715.98,610.99,698.5,602.3z" />
<path class="cls-16" d="M556.47,450.24c-16.13,12.31-27.86,29.73-27.88,50.26c0.06,2.6-3.95,3.06-4.82,4.53  c-1.13-18.75,7.29-37.38,20.92-50.34C547.64,451.88,552.76,450.69,556.47,450.24z" />
<path class="cls-16" d="M725.29,534.33c0.83,3.1,4.12,5.53,3.41,9.53c-13.73-12.9-33.25-23.63-51.07-18.1  c-1.58-1.65-3.52-3.57-4.78-5.61C691.61,516.09,709.56,523.59,725.29,534.33z" />
<path class="cls-16" d="M692.37,488.59c3.26,0.95,6.69,6.17,8.61,8.35c-17.77-7.36-40.37-11.73-55.67-0.3  c-2.26-0.47-4.59-2.13-6.6-3.17C654.81,483.84,674.41,483.34,692.37,488.59z" />
<path class="cls-16" d="M485.42,562.49c0.97,1.86-1.21,4.29-1.19,5.81c-13.86-14.46-19.87-35.34-16.5-55.05  c2.09-2.44,2.34-6.41,5.88-8.29C468.5,525.46,471.06,547.99,485.42,562.49z" />
<path class="cls-16" d="M489.95,632.86c2.26,1.12,2.41,3.85,3.19,5.98c-19.46-2.66-35.29-14.09-46.12-30.34  c-0.55-3.57-1.63-7.04-1.49-10.66C454.91,615.33,469.93,630.64,489.95,632.86z" />
<path class="cls-16" d="M642.11,458c5.26-0.43,10.4,1.31,14.3,4.87c-18.74-2.86-42.66,4.13-51.56,20.77c-1.95,0.02-4.07-1.51-6.04-1.17  C608.57,468.36,625.01,459.39,642.11,458z" />
<path class="cls-16" d="M691.19,693.66c8.54-18.11,8.7-39.34-2.26-56.14c-0.6-2.55,1.85-4.83,2.47-6.93  C701.08,645.59,708.61,688.57,691.19,693.66z" />
<path class="cls-16" d="M564.86,485.19l-6.07,1.97c4.22-18.03,18.39-31.07,33.92-40.73c3.28-2.04,8.85-0.36,11.75,0.54  C586.18,453.51,569.32,467.17,564.86,485.19z" />
<path class="cls-16" d="M554.3,726.21c-3.24-0.7-7.67-0.28-9.1-3.95c16.91-1.19,35.69-9.31,43.2-24.59c2.51,0.35,5.24-0.91,7.44,0.2  C585.2,712.48,571.12,722.04,554.3,726.21z" />
<path class="cls-16" d="M593.26,730.75c16.09-8.21,31.12-20.99,33.74-39.19c1.52-0.49,4.66-1.34,5.91-2.34  C631.19,705.19,610.69,734.05,593.26,730.75z" />
<path class="cls-15" d="M733.52,611.68c0.91,0.57,3.37,1.95,4.18,1.1c1.49-1.57,0.17-4.37,0.64-5.91c2.32,3.29,0.75,7.89-1.91,10.87  C735.58,614.88,735.12,612.91,733.52,611.68z" />
<path class="cls-16" d="M555.48,691.76c-16.13,10.45-39.87,19.6-57.29,5.39c17.47,3.75,35.88,4.33,50.25-7.3  C550.87,689.33,553.27,691.17,555.48,691.76z" />
<path class="cls-16" d="M596.41,492.24l0.96,3.25c-4.92,11.4-6.32,23.59-4.2,36.59l3.21,1.38c-0.24,3.05,13.55,20.77,13.4,18.62  c-1.29-18.79-1.22-31.26,10.4-47.66c-3.01-2.5-6.98-6.53-2.34-8.68c5.7,1.24,12.07,2.67,16.16,6.94l-0.23,3.35  c-10.07,9.07-14.14,22.39-16.06,35.38l2.58,1.77c0.75,6.38,1.82,12.82,4.68,18.65c3.75-16.59,14.53-29.27,28.43-38.59  c-2.13-3.64-4.17-9.97,1.66-7.53c4.33,2.99,8.45,6.81,10.65,11.69c-1.02,2.48-3.27,4.17-6.74,5.06c-6.22,4.43-12.12,9.31-17.7,14.65  l1.02,2.91c-5.01,8.56-8.61,18.14-6.95,28.18c9.1-14.67,23.81-23.06,40.64-25.83c0.27-2.65,1.48-3.9,3.62-3.75  c2.83,3.81,3.06,7.93,4.45,11.54l-2.06,2.36c-11.03,0.07-21.49,4.49-30.52,10.51l-0.1,2.79c-5.11,4.56-8.61,10.4-10.51,17.53  c13.03-8.18,28.4-11.41,43.46-7.69c1.16-2.31,2.69-3,4.59-2.06c0.95,4.75,0.22,8.21,0.18,11.94l-1.82,2.02  c-7-2.65-13.95-3.89-20.87-3.72l-1.88,2.26c-10.39,0.26-18.81,7.45-25.33,14.92c13.02-1.55,31.09-0.9,41.89,7.86  c1.54,1.25,2.61,2.16,2.44,4.52c-0.99,1.32-1.49,3.81-1.57,4.88l-3.13,0.65c-5.74-2.6-11.24-5.57-16.5-8.93l-2.64,1.78  c-9.29-1.67-18.85,1.05-27.1,5.27c11.65,2.36,27.01,10.71,32.54,21.56c0.91,1.79,1.52,3.08,0.38,5.18l-3.5,4.76l-3.39-1.29  c-8.86-15.43-27.31-22.26-44.18-18.64c11.6,7.72,19.36,19.2,22.48,32.76c2.71-0.35,4.47,0.49,5.28,2.51  c-4.02,2.42-8.79,5.29-12.89,6.67l-2.39-2.45c-0.92-7.93-3.16-15.54-6.71-22.81l-3.28-0.02c-6.54-6.52-14.92-10.81-24.15-11.78  c7.92,11.08,15.29,24.92,10.7,38.93c2.66-0.38,7.87,0.66,6.02,4.32c-3.51,1.09-11.71,1.47-15.37,1.77l-1.42-3.24  c6.1-18.75-5.41-34.31-20.59-44.24c3.82,13.44,2.05,26.34-2.64,39.21c4.21,1.85,6.2,4.15,5.96,6.9c-6.41-0.98-11.98-1.88-17.55-5.08  l-0.4-3.39c4.36-7.63,6.85-16.17,7.47-25.59l-2.71-1.63c-1.03-7.9-3.42-15.25-7.17-22.04c-1.3,14.14-9.68,24.16-19.39,33.5  c-0.78,2.2-1.66,4.29-2.64,6.29c-5.39-1.94-8.14-6.21-11.26-9.64l1.4-2.38c8.74-3.16,15.59-9.68,20.56-19.57  c-0.99-0.41-0.94-0.81,0.1-1.2l1.23-1.27c-1.32-2.83-1.39-6.35-0.22-10.55l-0.66-10.29l1.98-2.48c-2.55-1.78-1.19-8.19,2.28-8.28  l3.22,1.42c27.22,58.89,107.09,13.05,63.79-38.76l-2.87,0.75c-4.89-4.99-10.34-9.11-16.35-12.34l-0.93-2.78  c-6.39-2.63-9.16-11.66-10.98-18.09c-3.12-11-3.27-22.95,0.41-33.82c-5.58-1.88-7.44-4.04-5.57-6.5c-0.64-0.45-0.62-0.87,0.04-1.27  C585.39,491.71,591.24,490.06,596.41,492.24z" />
<path class="cls-11" d="M661.99,658.56c-3.62,4.92-14.57,12.19-19.81,15.34c-2.08,0.17-4.09-0.07-7.49-0.35  c-2.69-16.71-13.3-29.02-27.4-36.47C630.92,631.74,651.64,638.54,661.99,658.56z" />
<path class="cls-11" d="M594.11,688.52c-4.14,0.33-13.31-0.54-18.7-1.36l-9.4-6.42c7.42-15,7.88-30.54,1.05-45.77  C587.94,647.74,602.79,663.68,594.11,688.52z" />
<path class="cls-11" d="M676.09,542.46c2.54,1.75,2.24,4.48,3.5,6.17l-1.99,6.4c-18.7,1.51-34.17,12.11-43.18,29.35  c-4.76-14.68,0.49-26.51,6.85-37.26c4.64-5.6,10.46-7.16,17.41-8.01C664.43,538.4,672.37,537.63,676.09,542.46z" />
<path class="cls-11" d="M666.4,593.85c8.92-2.21,20.96,4.8,21.24,14.27c-1.4,5.8-0.97,11.09-4.13,15.29  c-14.62-10.83-31.21-13.79-50.93-7.69C640.39,604.55,652.86,592.64,666.4,593.85z" />
<path class="cls-11" d="M651.58,513.32l3.47,2.4c-2.33,0.05-1.63,2.19-1.13,3.18c0.72,1.42,1.56,3.22,2.53,5.57  c-16.39,9.57-28.51,25-29.94,44.38c-6.66-8.89-7.68-18.17-8.82-27.44c-0.02-11.83,7.17-18.69,16.93-24.06  C639.55,514.64,646.39,510.94,651.58,513.32z" />
<path class="cls-11" d="M564.92,653.09c-0.05,6.66-3.07,11.65-7.69,16.23c-3.57,3.54-9.96,8.99-14.74,5.93  c-4.17-1.27-7.43-3.2-9.48-6.04c-5.77-11.77,19.02-12.1,20.23-46.36C561.24,631.92,562.88,642.74,564.92,653.09z" />
<path class="cls-11" d="M546,502.76c3.22,0.61,6.4,1.33,9.54,2.14c1.85,16.55,7.54,31.35,20.16,42.75l0.62,3.77  c0.02,3.31-3.72,3.92-5.57,1.33l-6.5,0.95c-5.5-0.46-20.38-7.52-20.55-13.67c-4.14-4.87-4.91-9.13-5.47-15.19  c-0.53-5.8-1.09-15.99,3.06-19.72C542.63,503.01,544.56,502.95,546,502.76z" />
<path class="cls-11" d="M620.19,655.31c3.31,5.28,3.64,9.17,2.49,15.09c-1,5.12-3.46,13.45-8.65,15.06c-1.43-0.1-3.57,1-4.55,1.3  c-1.58-2.21-4.95-1.27-7.93-3.56c3.46-16.58-2.92-30.24-15.27-42.23C600.71,640.38,611.96,646.4,620.19,655.31z" />
<path class="cls-11" d="M662.31,620c6.87,3.66,16.68,11.14,13.84,19.66c-2.89,5.89-5.91,10.71-10.66,14.13  c-8.31-15.29-22.43-23.87-41.51-25.7C636.97,622,649.59,616.48,662.31,620z" />
<path class="cls-11" d="M559.06,557.7c3.32,2.63-2.15,6.13-4.95,3.93c-3.58,3.32-7.55,3.05-12.1,2.43c-5.85,0.11-9.91-1.5-12.2-4.85  c-10.65-5.09-20.35-20.71-15.23-31.84c0.69-0.59,1.44-2.09,2.34-2.5c3.71-2.66,7.89-5.52,11.28-1.27  c4.74,14.45,16.5,24.04,29.62,30.79L559.06,557.7z" />
<path class="cls-11" d="M687.82,576.49c0.08,2.48,0.73,5.37,1.08,7.11c-1.4,1.1-1.91,3-3.4,4.74c-17.78-4.7-34.04-0.42-49.24,11.01  c3.41-9.41,6.69-21.82,15.19-26.32c5.93-8.21,27.76-4.12,34.45,0.4C687.05,574.22,687.45,575.05,687.82,576.49z" />
<path class="cls-11" d="M546.12,611.84c1.32,7.82,1.86,15.88-1.09,23.32l-1.23,1.27c-0.15,0.35,0.03,0.84-0.1,1.2  c-4.58,10.8-20.07,20.2-30.34,12.9c-4.46-0.97-4.05-6.83-6.31-8.46l0.81-3.23c13.68-5.93,24.31-14.63,31.89-26.11l3.15-1.21  C543.51,608.1,545.6,608.67,546.12,611.84z" />
<path class="cls-11" d="M539.35,597.27c3.57-2.04,4.7,2.98,0.96,4.06c2.07,7.81-6.13,17.62-11.89,22.44l-3.22-0.13  c-7.61,5.9-21.89,6.01-28.03-1.22c-1-4.09-3.75-7.03-2.68-10.69l2.49-2.58c13.68-1.13,27.8-2.97,38.78-11.9L539.35,597.27z" />
<path class="cls-11" d="M540.28,583.66c2.19,0.69,2.13,1.65-0.1,2.09c-0.47,4.54-2.99,8.18-7.57,10.94c-4.57,4.55-9.12,6.41-13.65,5.58  c-5.78,1.15-10.47,0.46-15.84-1.7c-4.78-1.92-10.34-4.44-10.92-9.87l0.11-8.26c0.7-3.56,0.9-4.28,4.52-4.3  c13.29,4.68,25.88,8.62,40.1,4.04L540.28,583.66z" />
<path class="cls-11" d="M548.05,568.69c2.95,1.91,0.12,7.16-3.11,5.23c-2.31,5.15-13.37,8.11-17.63,5.09c-6.93,0.74-11.6-0.54-17.2-4.5  c-4.99-3.54-13.39-11.46-12.09-17.67c0.52-1.58-0.05-2.84,0.29-3.53c2.58-4.23,5.53-5.68,8.87-4.34  c10.14,10.47,23.36,17.15,38.05,17.41L548.05,568.69z" />
<path class="cls-16" d="M561.49,495.88l1.66,3.04c-2.74,11.59,1.28,23.16,6.1,33.58l3.32,0.22l9.1,9.44c4.35,2.56,7.34,5.59,8.96,9.09  c-3.19,3.29-11.16,3.6-14.31,0.18c-13.39-12.02-21.84-26.62-22.23-45.34c-2.99,0.09-5.14,0-7.02-0.33c-0.96-0.17-1.37-1.59-1.07-3  C550.26,498.35,556.52,497.68,561.49,495.88z" />
<path class="cls-10" d="M615.21,494.68c0.96,2.94-0.39,5.93-4.04,8.99c-8.82,7.2-13.32,15.48-15.19,26.66l-2.81,1.74  c-5.63-12.68-3.34-27.78,3.24-39.84C603.45,491.21,609.49,492.88,615.21,494.68z" />
<path class="cls-10" d="M651.58,513.32c-15.73,4.38-29.78,11.69-33.87,28.09c-1.81-14.77,5.01-29.11,16.29-38.73  C641.32,504.41,646.28,509.65,651.58,513.32z" />
<path class="cls-16" d="M543.7,540.04c7.58,6.79,16.43,10.86,27.05,12.72c0.04,3.79-9.26,8.31-11.69,4.94  c-14.99-7.62-28.2-17.24-33.32-34.35c-4.01,1.01-6.31,1.77-8.83,1.53c2.83-4.59,7.4-9.04,11.65-11.4l2.65,2.01  C533.94,524.11,538.1,532.29,543.7,540.04z" />
<path class="cls-16" d="M529.8,559.22c7.71,2.09,15.71,3.62,24.31,2.41c2.05,3.31-2.45,8.32-6.06,7.05  c-15.84,0.52-30.91-5.97-42.08-17.81c-2.42-1.22-5.72,2.11-7.66,2.41c2.39-4.9,3.6-9.77,7.18-12.86l3.4,0.8  C514.72,548.47,521.69,554.47,529.8,559.22z" />
<path class="cls-16" d="M539.35,597.27c-12.96,11.69-28.1,12.96-44.86,14.46c-2.63-2.2-0.51-5.44-1.27-7.34  c0.74-5.17,8-4.39,11.61-1.89l14.14-0.24c8.2-3.84,15.77-9.28,21.22-16.51C544.89,585.87,544.22,598.15,539.35,597.27z" />
<path class="cls-16" d="M527.31,579c5.81-1.65,12.03-2.15,17.63-5.09c4.15,2.09-0.53,12.59-4.66,9.74  c-32.41,9.71-41.72-9.14-47.97-1.23c0.06-4.54-0.75-8.65,1.95-11.58l3.25-0.17C505.65,577.72,516.97,578.78,527.31,579z" />
<path class="cls-16" d="M542.91,611.5c-7.08,16.41-21.82,21.87-35.85,30.56c-2.97-2.15-2.67-4.86-4.28-7.03  c1.65-2.66,4.63-4.38,8.95-5.15l13.48-6.24c6.57-6.39,12.56-12.82,15.11-22.31C544.58,600.38,547.29,610.08,542.91,611.5z" />
<path class="cls-14" d="M579.16,492.17c0.38,0.39,0.32,0.9-0.04,1.27l0.29,3.15c-7.75,9.03-11.53,21.44-8.54,33.13l-1.62,2.77  c-8.42-9.52-11.53-23.03-7.76-36.62C567.74,493.62,573.37,492.79,579.16,492.17z" />
<path class="cls-10" d="M684.03,560.17c2.07,5.37,3.61,10.57,3.79,16.33c-11.96-3.56-24.42-9.77-36.37-3.45  C658.79,563.47,672.07,560.06,684.03,560.17z" />
<path class="cls-14" d="M676.09,542.46c-12.02-2.92-23.93-1.13-34.83,4.66c5.4-9.14,13.13-16.88,24.44-19.71  C670.46,531.94,673.84,537.06,676.09,542.46z" />
<path class="cls-10" d="M541.29,505.12c-1.03,12.11-1.94,23.35,2.41,34.91c-7.64-6.84-13.95-15.48-15.13-26.55  C532.1,509.1,536.69,506.51,541.29,505.12z" />
<path class="cls-14" d="M557.86,682.08c-4.55-2.61-12.05-1.73-15.36-6.83c11.63-3.17,17.54-11.53,22.43-22.16  C566.97,663.46,564.82,673.23,557.86,682.08z" />
<path class="cls-14" d="M527.31,579c-11.46,3.25-24.45,0.5-33.06-8.16c0.04-5.66,1.11-10.28,3.77-14.02  C504.73,568.29,513.95,577.32,527.31,579z" />
<path class="cls-10" d="M529.8,559.22c-10.41-2.83-18.17-9.53-24.32-18.79c2.23-5.49,5.21-9.75,9.09-13.05  C514.67,540.36,520.59,550.35,529.8,559.22z" />
<path class="cls-12" d="M629.29,680.57c-5.55,1.88-9.76,5.28-15.27,4.88c5.36-9.84,8.94-18.99,6.17-30.15  C626.51,662.15,629.37,670.63,629.29,680.57z" />
<path class="cls-14" d="M543.7,637.63c-3.57,10.12-10.88,22.22-21.95,21.95c-3.1-3.4-7.5-4.85-8.39-9.05  C525.73,652.38,535.94,647.2,543.7,637.63z" />
<path class="cls-10" d="M525.2,623.64c-6.38,6.2-13.18,9.42-22.43,11.39c-3.2-4.28-4.5-8.09-5.6-12.61  C506.57,625.32,515.84,627.24,525.2,623.64z" />
<path class="cls-12" d="M518.96,602.26c-4.42,2.07-9.53,2.76-14.77,2.44c-3.63-2.6-7.61-1.82-10.98-0.31  c-1.95-4.83-1.07-9.32-1.02-13.71C499.5,597.83,508.95,600.85,518.96,602.26z" />
<path class="cls-12" d="M681.94,628.29c-0.24,3.21-4.36,8.46-5.79,11.38c-1.8-8.27-8.66-13.26-13.84-19.66  C669.18,621.91,675.86,623.66,681.94,628.29z" />
<path class="cls-14" d="M689.09,595.55c-0.04,4.98-0.5,8.64-1.45,12.57c-4.46-7.22-12.24-13.47-21.24-14.27  C672.84,589.6,681.51,594.14,689.09,595.55z" />
<path class="cls-14" d="M615.42,566.23c17.71,13.02,20.66,40.53,4.07,56.74c-11.18,10.93-27.85,14.95-43.24,9.7  c-13.56-4.62-21.92-15.6-27.85-29.1c-5.19-0.62-4.77-10.02-4.23-14.52c4.93-40.95,68.95-44.84,68.74-3.31  c-0.12,22.5-29.43,36.31-40.34,16.24c-8.27-15.21,10.31-27.17,18.03-16.72c5,6.76,1.81,11.21-4.98,13.58  c-0.78,0.27,10.01,1.79,11.36-8.88c1.7-13.44-15.91-18.98-25.57-9.53c-12.36,12.08-4.04,34.03,13.63,36.38  c25.8,3.44,40.28-26.23,29.17-47.62L615.42,566.23z" />
<path class="cls-5" d="M590.64,551.25c0.24-2.43,1.79-2.23,4.63,0.6c8.48,2.46,13.44,9.44,20.15,14.37  c4.86,10.01,6.98,21.05,2.35,32.8c-3.4,8.62-11.52,17.38-22.39,19.69c-11.71,2.49-23.92-1.85-29.02-11.76  c-5.07-9.84-3.44-23.43,5.43-29.92c6.07-4.45,13.01-5.19,19.47-1.75c5.15,2.74,9.3,8.74,7.92,15.72c-0.86,4.32-3.17,7.98-6.6,9.35  c-4.05,1.62-9.13,2.63-11.34-3.21c3.46-0.95,7.53-0.12,8.66-3.29c1.07-3,0.1-6.37-2.05-8.09c-2.07-1.64-5.27-2.63-8.34-1.41  c-6.46,2.57-8.34,9.94-5.2,15.9c2.53,4.81,7.69,9.02,14.18,8.94c10.68-0.14,19.1-8.27,21.35-17.66  c2.48-10.33-1.42-21.16-10.34-27.86c-11.69-8.78-28.12-5.92-40.05,3.04c-10.97,8.23-16.52,24.39-11.05,36.85  c-0.23,2.88-1.64,5.47-2.28,8.28l-3.21-0.34c1.05-3.22-1.46-7.35-2.6-10.17c-0.47-1.16,0.48-3.14-0.96-4.06  c1.88-3.55,1.76-7.68,0.83-11.52c-0.16-0.65,0.2-1.43,0.1-2.09c3.05-2.29,3.98-6.18,4.66-9.74c1.57-1.09,1.98-3.93,3.11-5.23  c2.06-2.37,4.29-4.45,6.06-7.05c0.96-1.4,4.28-2.05,4.95-3.93c3.93-0.98,7.86-3.52,11.69-4.94c1.51-0.56,3.99-1.3,5.57-1.33  C581.08,551.33,585.88,550.96,590.64,551.25z" />
<path class="cls-11" d="M579.12,493.45c0.94,3.47,5.85,2.1,8.02,5.94c-6.01,18.71-2.17,36.78,8.12,52.47c-1.38,0.25-3.3-0.52-4.63-0.6  c-9.18-4.69-15.41-11.99-21.38-18.75C564.64,518.79,569.49,503.43,579.12,493.45z" />
<path class="cls-11" d="M617.84,495.73c-0.63,3.39,1.92,5.32,5.87,8.55c-12.63,16.49-16.33,35.19-9.48,55.1  c-10.21-6.85-16.48-16.97-21.06-27.31c6.32-28.03,9-18.59,22.03-37.4C616.55,495.1,617.23,495.6,617.84,495.73z" />
<g>
</g>
<g>
</g>
<g>
</g>
<g>
</g>
<g>
</g>
<g>
</g>
<g>
</g>
<g>
</g>
<g>
</g>
<g>
</g>
<g>
</g>
<g>
</g>
<g>
</g>
<g>
</g>
<g>
</g>
</svg>