<?xml version='1.0' encoding='UTF-8'?>
<svg xmlns="http://www.w3.org/2000/svg" id="Layer_1" viewBox="0 129.7 1200 1541.1" xml:space="preserve" width="1200" height="1800">
<style type="text/css">
      .cls-1 {
        fill: #110563;
      }

      .cls-2 {
        fill: #13066e;
      }

      .cls-3 {
        fill: #1b078b;
      }

      .cls-4 {
        fill: #2d2c98;
      }

      .cls-5 {
        fill: #302d97;
      }

      .cls-6 {
        fill: #413299;
      }

      .cls-7 {
        fill: #3137b4;
      }

      .cls-8 {
        fill: #3540ca;
      }

      .cls-9 {
        fill: #3e4de8;
      }

      .cls-10 {
        fill: #3e4eec;
      }

      .cls-11 {
        fill: #8599e6;
      }

      .cls-12 {
        fill: #96b1f7;
      }

      .cls-13 {
        fill: #97b3f8;
      }

      .cls-14 {
        fill: #dccae2;
      }

      .cls-15 {
        fill: #e6d3e4;
      }

    </style>
<path class="cls-3" d="M1200,128.9v141.73c-0.72,1.35-1.08,2.02-1.08,2.02c-63.11-2.07-132.27-4.24-195.1,0.57  c-27.76,2.13-56.95,4.61-84.53,10.38c-3.05,0.64-24.71,5.48-23.06,9.58c3.58,8.9,50.51,13.32,60.84,13.55  c33.91,0.14,67.72,1.53,101.43,4.19l12.8,2.68c3.73,1.41,10.14,3.98,6.72,8.87c-3.87,5.53-35.1,7.72-42.58,7.6  c-65.5-0.97-129.7-9.54-194.11-22.69c-41.33-7.14-83.03-11.72-124.93-13.48c-65.24-2.75-132.34-0.02-195.85,4.36  c-34.84,2.4-76.91,5.92-110.73,15.22c-4.78,1.31-12.04,3.42-15.61,6.82c-3.88,3.7,11.11,8.54,13.48,9.29  c14.28,4.5,29.08,7.38,43.84,10.08c46.07,6.84,91.97,13.83,137.7,20.94l9.55,3.03c2.9,1.65,5.59,3.24,3.18,6.85  c-3.92,5.89-37.73,9.7-45.91,10.57c-63.32,4.57-126.71,7.75-190.17,9.54c-77.4,5.57-159.88,12.36-235.67,33.44  c355.34,0.46,711.54,0.92,1068.59,1.37l1.2,1.92v837.04l-1.9,2c-9.37,2.01-23.5,3.34-32.95,2.24c-2.45-0.29-8.51-1.38-8.26-4.22  c-1.67,2.17-4.43,0.19-4.72-2.1c-0.88-0.54-1.64-1.14-2.3-1.8c-4.16-0.68-8.33-1.49-12.29-2.95  c-51.77-22.12-105.99-36.21-160.29-50.29c-4.09-1.06-7.97-2.77-11.79-4.58l-1.92-1.19c0.06-55.75,0.12-111.5,0.17-167.26l1.92-1.18  l0.85-1.92l31.23-0.17c0,0,0.04-5.69,0.12-17.08c-3.77,0.7-6.71,0.06-8.84-1.91c-0.09-10.07-0.1-20.13-0.03-30.2l0.91-1.6  c-4.23,0.65-7.55,0.04-9.97-1.83l-2.31-1.78c-0.7-9.61-0.36-19.15,1.03-28.62l-1.32-3.58c-3.07-3.28-5.01-7-5.82-11.14l3.04-17.03  c-0.59-2.4-1.35-4.77-2.27-7.11c-2.51-0.38-2.01-2.81-0.89-4.73c4.67-7.94,9.35-1.38,9.38,5.15c0.27,0.99,0.6,1.97,1.24,2.78  c1.74,2.22,9.7,2.18,1.94-2.72c-3.42-8.92-18.11-28.21-20.01-7.24c3.98,0.22,8.96,4.9,3.92,6.86c0.38,3.2-4.68,6.2-7.46,7.73  c-5.17,2.84-9.76,5.06-13-1.09c-1.42-0.17-2.6-1.42-3.56-3.75c-1.43-0.25-2.75-0.64-3.97-1.18l-1.22-0.72  c-0.29,0.81-0.59,0.73-0.9-0.14c-7.49-6.08-9.36-13.54,1.14-18.12c-0.72-1.66-0.93-2.44,0.8-3.78c-0.34-0.67-0.77-1.72-0.36-2.07  c3.05-2.6,16.92-12.17,20.23-13.57l2.22,0.82c2.23-1.94,4.76-3.69,7.59-5.25l1.16-2.61c6.82-4.08,13.51-8.36,20.05-12.86  c-0.57-6.49-6.66-13-10.79-17.38c-7.36,4.38-14.55,9.12-21.58,14.22l-2.22-0.8c0.65,1.84-0.72,2.94-4.13,3.3l-2.58,1.48l0.53,1.96  c-19.66,13.4-39.32,26.8-58.98,40.21l-2.05-0.93l0.17,2.1c-5.31,0.92-6.64,3.13-3.97,6.62c-3.05,4.64-7.33,8.51-12.84,11.61  c-1.69,2.04-3.42,2.92-5.19,2.64l-2.29,0.2c-5.76-6.28,2.79,10.38,6.82,7.52l0.74-1.96c5.82-3.42,11.69-6.85,17.61-10.3  c2.24,1.9,4.16,2.65,5.76,2.23c1.8-2.02,3.43-2.53,4.9-1.53l0.64-2.71l13.01-7.89l2.71,0.29c10.36,1.17,10.16,4.33,8.46,13.88  c0.77,2.57,0.54,4.53-0.69,5.89c1.08,2.52,0.47,6.67-2.23,7.81c-0.56,0.99-1.07,2.08-1.52,3.29c1.52,0.33,2.18,1.29,1.64,2.73  l-11.44,41.23c-1.76,1.27-2.63,1.91-2.63,1.91l-127.79-0.06l-1.17-1.82c-3.28-1.56-3.26-8.06-0.09-9.74l3.47-1.93l19.75-0.75  c2.72,1.89,3.41,0.57,2.07-3.96c5.22-80.46-16.63-160.97-67.75-224.19c-7.53-8.5-14.6-17.32-21.21-26.46c-1.91-1.5-3.92-3.16-6.02-5  c-2.95-1.53-4.42-2.3-4.42-2.3c-29.8-38.22-63.89-69.36-111.33-83.18c-34.6-10.07-67.87-7.44-100.61,1.07  c-3.26,0.56-4.89,0.84-4.89,0.84c-36.27-8.96-74.18-8.65-109.37,4.71c-35.53,13.49-60.09,37.62-81.53,67.71l-1.39,3.13  c-52.55,51.96-89.22,118.96-97.73,191.35l-2.04,1.91c-0.32,1.15-0.77,2.28-1.33,3.37c2.87,0.77,3.09,6.43-0.24,6.29  c0.54,2.45,0.25,4.49-0.87,6.12c2.95,0.46,2.61,7.8-0.24,8.35c-0.84,1.31-1.07,3-0.68,5.07l1.92,0.89l-0.05,44.17l26.41,0.19  l1.38,1.93l1.83,2.96c0.44,3.57,1.29,16.13,0.72,18.89c-0.24,1.16-1.05,2.07-1.93,2.84l1.9,0.9c-0.33,63.27-0.56,126.51-0.71,189.72  l-1.79,1.47c-0.44,2.11-2.06,3.22-4.87,3.33c-70.57,10.43-141.57,27.95-211.07,46.8L0,1235.52V128.64l0.93-1.92  c399.25,0.09,798.54,0.17,1197.87,0.26L1200,128.9z" />
<path class="cls-2" d="M1200,1414.97v256.89l-0.93,1.92c0,0-274.17-0.17-822.5-0.5l-1.21-1.92l-0.62-2.79  c40.55-57.27,96.09-106.14,156.29-143.03c6.27-3.99,14.31-8.27,21.75-11.87c37.45-18.1,71.67-32.39,112.34-42.82  c73.62-18.89,154.29-22.14,226.49-24.55l1.21,1.34c0.18-0.76,0.47-1.9,1.05-1.95c3.64-0.36,29.46-1.54,30.91-0.99  c0.75,0.28,1.15,1.12,1.46,1.87c0.54-0.92,1.62-1.21,3.23-0.88c0.29-2.77,3.96-3.07,4.39-0.21c1.09-0.5,2.22-0.94,3.37-1.34  c1.5-1.7,3.92-2.45,7.28-2.24c81.94-13.08,171.16-25.97,254.24-28.8L1200,1414.97z" />
<path class="cls-7" d="M685.47,1364.25c3.72-0.21,7.61,0.84,11.66,3.15c63.02,22.34,126.65,45.93,188,72.99  c7.65,1.75,10.21,4.17,7.69,7.26l-48.83,2.47c-42.99,2.18-85.19,5.32-127.73,12.11c-38.71,6.17-75.59,16.1-112.09,30.18  c-23.32,8.99-45.1,19.73-66.84,31.74c-2.28,1.26-4.05,2.45-6.3,1.4l-3.86,0.3l-19.57-9.16l-2.45-2.94  c-0.75-0.22-1.66-0.94-2.18-1.74l-4.09-0.28c-39.22-15.11-79.83-25.69-120.95-33.62c-49.15-13.85-98.5-27.61-149.61-34.35  c-77.43-10.21-152.35,6.36-225.79,30.63c-1.25,0.48-1.99-0.46-2.53-1.76V1243.2c0.85-0.5,1.72-0.97,2.63-1.31  c0.89-0.34,1.76-0.65,2.63-0.66c43.5-0.76,89.87,3.17,133.91,7.97c73.19,7.99,145.03,22.46,216,39.41  c109.69,15.88,219.95,36.84,325.07,73.02C682.91,1361.75,684.65,1362.63,685.47,1364.25z" />
<path class="cls-10" d="M579.82,1162.42l0.93-1.9c14.63,0.38,29.26,0.75,43.9,1.13l1.09,1.95c1.8-0.73,4.56-0.61,6.15,0.61  c1.11-3.31,9.07-3.03,10.43,0c0.76-3.04,10.38-2.76,11.32,0.18l2.75-1.22c14.29-0.02,29.35,0.5,43.67,2.04  c1.94,0.21,3.71,1.13,5.39,2.07c1.57-2.47,3.16-2.09,3.91,0.68c4.23-0.64,8.5-1.2,12.78-0.97c35.71,1.88,72.19,6.29,107.68,10.94  c41.07,5.38,83.4,11.49,123.83,20.3c2.04,0.44,4.02,1.15,6,1.89c1.99,0.75,3.93,1.63,5.86,2.55  c63.22,13.6,124.66,33.02,184.37,57.82l2.3,1.8c1.79-0.43,3.43,1.72,4.72,2.1c3.44,1.8,0.74,3.43-2.07,4.46  c-60.76,2.41-122.2,6.77-184.33,13.09c-98.84,10.81-194.46,44.98-283.12,82.61l-1.91-0.3c-2.44,0.3-4.7-0.42-7.54-1.36  c-99.43-32.82-185.96-52.22-289.89-66.87c-21.59-3.04-41.66-6.85-62.95-12.07c-94.62-23.23-190.5-36.56-287.68-40.34  c-13.07-0.51-25.04-0.58-37.4-0.41v-7.68c69.24-20.28,139.06-37.23,210.73-48.12c4.54-0.69,8.26-1.4,12.05-2.68  c0.12-0.9,0.41-0.87,0.85-0.01c0.42,0.5,0.68,0.62,1.09,0.06l1.69-1.96c116.84-17.97,237.58-23.62,352.21-22.31L579.82,1162.42z" />
<path class="cls-6" d="M1200,270.63v156.71L708.94,427l-32.4-0.68l-299.24-0.01l-254.2-0.36c2.62-2.83,5.96-3.63,9.27-4.68  c50.74-16.07,149.07-25.94,203.91-30.26l29.5-2.33l49.66-2.27l34.41-1.02l28.06-0.93l51.28-3.01l20.18-1.71  c14.04-1.19,37.13-3.63,49.45-9.37c10.77-5.02-20.06-9.97-22.05-10.26l-60.26-8.73l-34.4-4.87c-18.22-2.58-74.73-11.31-87.79-20.78  c-20.94-15.18,83.45-25.53,88.7-26l37.38-3.39l24.87-1.98l15.47-0.68c32.88-1.44,64.8-2.9,97.82-2.87  c80.49,0.08,135.32,5.3,214.13,20.26c44.39,8.43,88.25,14.47,133.27,16.41c12.15,0.52,23.09,1.3,34.98,0.33  c4.65-0.38,38.22-1.79,36.02-8.47c-2.19-6.66-38.09-8.6-45.57-8.79l-70.95-1.78c-12.8-0.32-58.46-3.87-65.59-14.21  c-10.1-14.67,102.68-22.93,108.87-23.26l20.08-1.07l37.47-1.02c29.33-0.8,58.06-0.61,87.41-0.04l41.64,0.8  C1193.74,270.05,1196.93,271.08,1200,270.63z" />
<path class="cls-1" d="M502.97,1512.02l2.18,1.74c8.98,3.06,17.27,7.82,25.88,11.8c0.6,2.07-1.35,3.27-3.29,4.48  c-27.14,16.89-52.02,35.43-76.17,56.38c-20.38,17.68-38.39,36.84-55.38,57.71c-6.83,8.39-16.17,18.64-20.82,27.24L0,1672.32v-199.68  c1.57,0.24,2.99-0.35,4.81-0.94c27-8.65,53.62-16.13,81.5-22.38c49.6-11.12,99.37-13.87,149.81-6.41  c37.58,5.56,73.66,13.91,109.99,24.49c18.99,5.53,36.7,10.45,56.16,14.07C437.32,1487.99,470.44,1498.71,502.97,1512.02z" />
<path class="cls-8" d="M1200,1264.38v150.59l-54.41,3.39c-50.23,3.13-99.1,10.37-148.96,17.77l-49.47,7.34  c-3.48,0.52-6.77,1.1-9.93,0.69c-1.12,0.47-2.24,0.92-3.37,1.34c-1.46-0.12-2.94,0.22-4.39,0.21c-1.3,0-2.37,0.29-3.23,0.88  l-33.42,1.07c-0.07-1.14-0.78-2.88-2.36-3.34c-6.31-1.86-11.61-4.69-17.82-7.2l-81.05-32.91l-28.84-10.76l-50.49-18.77  c-9.33-3.47-18.71-5.76-26.79-10.41c0.27-1.17,1.34-1.66,2.71-2.21l52.6-21.32c51.05-20.69,121.09-42.48,175.17-52.33  c36.33-6.61,72.14-11.09,109.05-13.69l56.56-3.99l71.35-3.69c1.36-0.07,2.67,0.08,3.4-0.83c0.34-0.42,0.53-1.06,0.58-1.8l5.65,1.64  C1174.6,1269.53,1187.67,1264.64,1200,1264.38z" />
<path class="cls-15" d="M610.32,925.68l2.18,0.88l49.8-0.06l3.06-0.77c0.85-4.26,6.27-3.03,8.61-0.4c-0.49,2.98-0.21,5.27,0.85,6.87  c0.45-0.05,0.89-0.06,1.28,0.07c1.4,0.47,0.88,25.95,0.68,29.21c0.64,3.39,0,5.46-1.91,6.23l-1.01,1.96  c-149.66,0.43-299.64,0.5-449.94,0.19l-1.18-1.92l-29.83-0.21l0.18-46.97c-0.58-2.14-0.35-3.83,0.68-5.07l0.24-8.35  c1.01-1.32,1.18-3.37,0.87-6.12c0.84-1.55-0.08-4.67,0.24-6.29c0.37-1.06,0.81-2.18,1.33-3.37c0.84-17.88,9.85-51.56,16.26-69.16  c18.49-50.79,47.36-91.03,84.89-127.23c25.12-25.05,61.97-46.58,96.52-55.73c36.62-9.69,79.39,6.66,109.07,28.56  C579.75,724.48,612.53,833.81,610.32,925.68z" />
<path class="cls-15" d="M579.79,991.94l1.92,0.67c0,0,0.01,56.21,0.03,168.63l-1.92,1.18l-103.19,0.74l-42.43,1.75  c-65.42,2.7-130.05,8.86-194.89,18.18c-5.48,0.79-9.78,1.68-14.57,1.68c-0.34,0.55-0.7,0.5-1.09-0.06c-0.27,0.02-0.6-0.07-0.85,0.01  c-0.48-3.42,0.34-6.87,0.34-10.78l-0.17-77.98l-0.09-46.73c-0.02-9.38-0.36-18.4-0.14-27.76l0.67-28.84l0.6-2.5  c119.03-0.03,237.24-0.06,354.65-0.11L579.79,991.94z" />
<path class="cls-13" d="M779.06,991.64c0.75,0.19,1.86,0.47,1.94,1.05c0.23,1.77,0.71,16.96,0.29,17.74c-0.39,0.74-1.14,1.13-1.9,1.38  c-0.06,0.46-0.17,0.9-0.4,1.26c-0.97,1.47-13.4,1.55-15.8,1.29c-0.51,5.81-0.2,11.33,0.93,16.57l200.38,0.2l1.19,1.92l-0.18,169.63  c-44.86-9.65-90-16.54-135.94-22.84c-40.36-5.54-80.16-8.96-120.2-11.87l-1.89-0.66c0.09-35.97,0.02-71.95-0.21-107.94l-62.89,0.05  l-0.12,103.68l-1.93,1.13c-3.31-0.05-7.14-0.49-10.43,0c-1.77-1.18-4.17-1.28-6.15-0.61l-45.92-1.18l-0.03-170.48  c2.47-1.27,3.71-1.9,3.71-1.9c64.99,0.18,129.79,0.07,194.39-0.31L779.06,991.64z" />
<path class="cls-9" d="M493.41,621.91c0.85-0.8,2.16-0.97,3.31-0.87c1.56,0.14,18.1,6.56,20.65,7.72l0.93,2.15  c38.57,15.46,70.03,47.68,92.67,82.38c39.87,61.11,56.56,135.61,56.37,208.36c-0.27,3.91-2.11,4.45-4.97,4.87l-50.28,0.03  l-1.77-0.87c-0.66-0.5-1.63-0.38-1.61-2.22c1.02-76.48-21.14-160.48-70.93-219.91c-11.81-14.1-24.25-26.14-39.45-36.66  c-25.09-17.35-54.54-28.84-85.51-28.45c-13.9,0.18-26.79,5.54-39.5,10.4c-26.48,10.14-49.95,25.43-71.27,43.73  c-1.57,1.35-2.9,2.26-4.43,2.6c0.08-1.91,0.98-3.66,2.31-5.56c12.46-17.78,26.8-33.8,44.79-46.23  c26.66-18.43,57.31-27.48,89.59-28.66C454.74,613.97,474.05,617.35,493.41,621.91z" />
<path class="cls-4" d="M709.78,706.31c2.3,1.29,4.68,3.65,5.19,6.21c8.66,6.64,14.09,17.26,18.89,27.13  c20.73,42.62,34.42,98.1,39.12,145.24c0.9,8.99,3.11,32.08,0.73,39.82c-0.56,1.81-1.01,2.67-2.92,3.04l-54.6-0.37l-1.12-1.93  c-0.75-0.09-1.86-0.3-1.92-0.84c-0.72-5.7-0.85-22.63-0.14-28.27l1.91-1.39c-0.52-1.17-0.96-2.3-1.31-3.38l-2.06-4.73  c-5.39-86.21-43.69-179.82-119.46-226.78c-21.98-13.62-39.79-18.81-64.19-25.56c-3.29-0.91-6.62-1.92-9.59-3.58  c-5.01-0.72-22.2-8.37-24.89-9.01c-1.07-3.9,35.07-8.64,38.68-8.98c41.18-3.91,81.03,8.03,115.27,31.07  C672.1,660.64,691.13,684.01,709.78,706.31z" />
<path class="cls-5" d="M674.89,967.71l0.68-1.91c34.24,0.29,68.49,0.58,102.74,0.87l1.16,1.93c-0.27,3.24-0.37,6.51,0.09,9.74  c1.91,1.43,1.92,2.22-0.02,3.64c2.97,0.72,2.43,8.98-0.48,9.67l-74.28,0.38l-14.67,0l-61.87,0.01c-4.34,0-8.57-0.65-12.93-0.25  c-12.24,1.14-23.85,0.12-35.53,0.17l-60.77,0.22l-50.17-0.06l-241.17-0.44c-2.15,0-3.35-0.08-4.3,0.98  c0.18-7.93-1.05-16.38-0.62-24.7l229,0.08l205.62,0.34L674.89,967.71z" />
<path class="cls-12" d="M779.47,968.6l-104.58-0.88l-0.05-35.52c-1.29-2.92-2.79-7.17,0.97-8.73l38.11,0.08l1.14,1.92l56.61,0.39  c5.87-55.17-23.96-174.18-56.7-213.33c-1.06-1.93-0.97-2.62,0.83-1.21c50.55,50.17,82.2,117.66,89.61,188.93  c2.36,22.68,1.6,44.42,1.16,67.5C796.9,967.9,788.22,968.67,779.47,968.6z" />
<path class="cls-14" d="M936.73,922.67l2.09,0.35c4.63,17.99,9.63,35.76,15,53.33c3.74-0.54,6.07,0.14,6.99,2.03  c2.91,0.56,2.82,2.88,0.07,3.63c-1.06,1.43-2.78,2.1-5.14,2l5.53,20.71l1.7,1.11c1.84-2.59,3.84-1.2,2.02,1.41  c2,1.84,1.38,2.66-1.13,1.65c-1.25,1.04-1.55,2.03-0.89,2.97c1.49-2.61,8.35-3,10.43-0.99c1.53-2.45,2.52-1.91,2.78,0.91  c1.22,0.4,8.46-0.85,8.76-1.2c0.88-1.03,1.13-25.56,0.52-26.76c-2.25,0.21-3.7-0.59-4.34-2.4c-3,4.62-6.91-4.4-1.15-3.1  c5.59,0.26,11.29-0.57,17,0.37c0.71,0.12,0.32,2.47-0.55,2.62c-2.51,0.43-3.4-0.62-4.84,0.13c-0.68,0.36-1.05,1.33-1.05,2.49  l0.17,27.78c3.1,0.63,5.63,0.08,9,0.27c0.62,6.87,0.34,13.39,0.12,20.87l-34.12,0.19l-204.2-0.2c-0.26-7.02-0.53-13.61,0.03-20.53  c8.46,1,14.6-0.76,17.88-0.5c0.94-2.7,3.3-2.69,3.86,0.19c4.78,0.3,8.7-0.08,11.75-1.13l-1.7-4.42l-0.06-22.49l-12.37-0.07  l-1.33-1.93c-0.56-1.16-0.55-2.48,0.02-3.64l129.63-0.03l9.82-36.38c0.74-2.75,2.11-5.06,1.95-7.57c0.35-1.36,0.86-2.45,1.52-3.29  c0.3-2.72,0.34-5.7,2.23-7.81c0.06-0.74,0.17-1.78,0.72-1.96C927.39,920.67,936.23,920.08,936.73,922.67z" />
<path class="cls-14" d="M949.35,853.4c0.6-0.46,1.62-1.02,1.97-0.64c3.12,3.33,11.82,14.96,12.39,19.03l-1.87,1.51l-22.1,14.82  l-1.38,3.2l-18,11.83l-3.45,0.33c-4.78,4.07-11.24,6.82-16.37,10.3c-0.46,0.06-0.91,0.08-1.31-0.04  c-0.98-0.3-11.59-15.95-11.51-16.98l1.13-2.12L949.35,853.4z" />
<path class="cls-9" d="M972.32,909.07c3.21,1.47,4.77,4.92,4,8.72l-2.77,13.59c-0.65,3.17,1.52,7.15,3.53,9.38  c4.59,5.1,4.14,9.97,2.77,16.05c-1.57,6.99-1.33,14.98,0.11,21.53c-0.35,0.53-0.71,0.98-0.99,1.26c-0.68,0.66-0.24,1.1,0.13,1.23  c0.87,0.3,1.35,0.46,2,0.62l2.37,1.38c2.41,2.96,0.24,27.4-1.39,28.51c-1.55,1.06-4.12,0.84-5.91,0.45  c-0.86-0.51-1.77-0.84-2.78-0.91c-1.54-1.84-0.86-3.96,2.03-6.35c-0.73-4.55-2.17-9.39-4.33-14.51l-2.69,16.27  c-0.75,2.07-1.74,2.44-3.42,0.96c-0.3-0.66-1.18-1.6-2.02-1.41c-0.48-0.04-0.93-0.12-1.31-0.33c-0.97-0.54-2.8-20-2.57-21.97  l1.79-1.53c-0.09-1.06,0.29-2.61-0.07-3.63l-1.78-2.12c-1.6-15.33-1.05-30.32,1.64-44.97l-0.43-5.35  c-4.53,3.68-10.43,2.48-14.58-1.16c-1.89-1.66-5.21-5.34-2.21-6.94c-1.33-2.92,2.58-5.03,4-2.03c6.69,0.32,1.98,7.54,20.45-6.64  C968.88,906.87,971.54,906.33,972.32,909.07z" />
<path class="cls-14" d="M969.43,868.05c-4.51-0.75-13.73-13.64-13.69-17.32c0.01-0.7,0.14-1.4,0.32-2.1l20.49-14.06  c1.39-0.95,4.28-2.17,5.58-0.35c4.08,5.71,14.66,17.29,8.92,20.48C983.42,858.93,977.14,864.95,969.43,868.05z" />
<path class="cls-9" d="M888.86,894.65c1.91,4.89,10.83,14.04,11.7,19.14c-1.94,1.32-3.56,4.1-6.82,3.78  c-1.5-0.15-2.21-2.06-3.86-2.72c-8.15,3.58-12.4,10.54-18.32,10.5c-2.98,1.07-6.95-5.42-4.53-7.72c1.9-4.35,16.74-11.48,16.2-14.57  c-0.12-0.69-1.69-1.9-1.7-2.63C881.47,896.1,886.7,896.11,888.86,894.65z" />
<path class="cls-8" d="M939.74,888.13c0.1,1.27,1.87,3.76,0.53,5.03c-2.21,2.1-6.31,2.93-6.98,6.47c-0.56,3.01,5.56,7.59,4.5,10.41  c2.08,1.46,4.15,5.1,1.14,6.55c0.55,2.03-0.16,5.23-2.22,6.1l-12.03,0.58c-3.52-8.79,1.95-13.42-1.4-16.35  c-1.69-1.48-6.2,0.61-6.38-3.42C923.98,897.47,932.15,893.22,939.74,888.13z" />
<path class="cls-14" d="M972.32,909.07c-1.31-0.16-3.07,0.74-4.42,0.11c0.2-1.01,0.37-2.18-0.19-3.15c-1.08-1.87-5.12-1.38-5.42-2.5  c-1.15-4.29,1.73-5.8,2.23-11.39c5.37-3.26,10.86,0.47,13.99,5.34c1.55,2.42,4.47,3.4,5.2,7.05c0.75,3.74,3.76,6.61,7.84,7.8  c-1.66,2.96-5.44,3.41-8.48,2.73c-5.58-1.26-4.09-11.2-6.32-12.59C973.18,903.43,972.34,906.27,972.32,909.07z" />
<path class="cls-9" d="M956.06,848.63c3.64,6.89,8.4,13.42,13.37,19.42c-0.71,3.69-3.86,5.98-7.59,5.25  c1.1-3.09-10.13-17.15-12.49-19.9C948.91,849.12,953.92,850.1,956.06,848.63z" />
<path class="cls-14" d="M1058.29,523.97c-0.82-4.76,0.3-10.42-3.81-13.73c-3.59-2.89-8.45-1.82-13.01-2.72  c3.83-2.78,13.61,2.2,16.06-7c0.79-2.98,0.02-5.76,0.66-9.15c3.39,3.76-1.66,13.78,9.34,15.24c3.09,0.41,6.09-0.53,8.75,0.91  c-5.55,0.6-10.8,0.08-15.04,3.72L1058.29,523.97z" />
<path class="cls-14" d="M54.33,535.89c-0.28,2.91-2.09,2.85-2.23-0.06c-2.11-4.87-6.89-5.9-11.88-4.75c0.79-3.48,3.71-1.3,5.89-1.47  c6.15-0.48,6.37-6.48,7.51-11.65c1.37,3.49,0.07,6.79,2.24,9.31c2.32,2.69,5.26,1.96,8.87,2.6  C60.52,531.43,55.57,531.48,54.33,535.89z" />
<path class="cls-14" d="M247.58,643.14c1.3,2.98,3.75,4.33,7.23,3.84c2.15-0.3,2.12,2.4-0.03,2c-2.48-0.46-4.4-0.63-5.82,0.67  c-2.51,2.29-1.26,5.64-2.37,6.3c-2.48,1.47-0.44-3.55-3.98-6.49c-2.94-2.44-6.35,0.68-7.42-0.96c-2.16-3.31,5.79,1.73,9.66-5.46  C245.43,639.77,247.28,639.91,247.58,643.14z" />
<path class="cls-14" d="M1148.11,585.83c2.67,0.32,2.44,1.63-0.14,2.15c-4.54,0.83-4.38,4.76-5.07,8.77c-2.97-1.67-0.51-4.6-1.91-6.63  c-1.87-2.69-5.28-2.14-8.13-3.35c1.73-1.58,4.26-0.72,6.04-1.76c3.7-2.17,2.83-6.62,4.12-9.93  C1143.24,579.76,1143.1,585.35,1148.11,585.83z" />
<path class="cls-14" d="M978.18,233.84c1.64,0.29,2.12,0.92,0.76,1.97c-1.8-0.25-3.49,1.04-4.34,2.13c-3,3.82,0.73,10.65-2.81,6.66  c-0.51-3.44-0.72-7.38-4.02-8.54c-2.68-0.44-2.64-1.54-0.11-2.45c5.81-0.94,2.97-8.27,5.67-10.09  C973.1,228.23,974.08,232.65,978.18,233.84z" />
<path class="cls-14" d="M867.02,917.62c0.64,2.68,3.19,5.28,4.53,7.72c-0.33,0.91-0.67,2.46-1.47,2.67c-2.79,0.73-8.1-8.45-10.1-11.38  c-0.36-1.29,3.29-3.34,4.43-2.26C865.42,915.34,866.34,916.89,867.02,917.62z" />
<path class="cls-14" d="M223.28,259.05c0.59,1.85,2.24,3.61,4.23,4.09c2.65,0.45,2.36,1.77-0.24,2.19c-4.95-0.19-3.27,6.35-6.39,9.39  c0.25-4.26,0.34-8.64-3.69-9.27c-2.68-0.18-2.67-1.55-0.15-2.44c1.05-0.41,1.96-1.09,2.86-1.76l0.92-1.18  c0.1-0.27,0.12-0.74,0.08-1.02C221.05,255.93,223.13,255.97,223.28,259.05z" />
<path class="cls-14" d="M491.72,231.76c-2.04,0.83-3.75,0.81-5.2,1.72c-2.29,1.44-1.21,3.44-2.54,6.28c-1.98-2.35-0.15-4.74-2.22-5.8  l-5.32-2.73c2.29-1.3,3.9,0.04,5.31-1.47c1.4-1.49,0.77-3.3,2.02-5.79c1.58,2.24,0.4,3.84,1.56,5.27  C486.79,231.03,488.79,229.93,491.72,231.76z" />
<path class="cls-14" d="M794.23,517.04c-2.18-1.51-1.19-3.12-2.11-4.07c-1.28-1.32-2.99-0.87-5.1-1.75c2.92-1.87,5.86-2.33,6.91-6.46  c1.57,3.7,3.22,4.97,6.95,6.44C797.69,511.83,795.53,512.84,794.23,517.04z" />
<path class="cls-14" d="M464.49,455.86c2.46,4.85,5.42-0.17,6.85,3.98c-2.45-0.16-4.08-0.07-5.91,1.15c-1.55,1.03-0.72,2.98-3.14,5.45  c-0.38-4.87-2.59-6.27-7.06-7.5c3.19-1.54,5.7-0.13,6.59-3.09C462.01,452.62,464.17,452.64,464.49,455.86z" />
<path class="cls-14" d="M815.16,635.1c-3.5-6.72,1.03-2.2-6.15-6.59c3.14-0.62,5.18-3.21,6.13-5.26c1.73,2.93,4.14,5.33,7.73,5.94  c-1.87,1.19-3.33,0.12-4.73,0.91C816.72,630.9,817.01,632.81,815.16,635.1z" />
<path class="cls-11" d="M947.45,915.81c-1.45-0.07-2.97,1.23-4,2.03c-1.45,2.49-3.84,1.37-4.5-1.27c0.05-2.34-2.02-4.22-1.14-6.55  c0.3,0.03,0.6,0.1,0.9,0.14l1.22,0.72c1-0.63,2.16-1.34,3.12-1.18C946.1,910.22,947.04,913.04,947.45,915.81z" />
<path class="cls-14" d="M61.81,310.05c-1.05-3.2-3.12-4.62-6.45-6.35c4.09-0.63,5.17-2.64,6.53-6.36c0.53,3.34,2.35,4.99,5.45,7.03  C64.58,305.63,62.74,305.94,61.81,310.05z" />
<path class="cls-12" d="M234.04,524.25c-3.46-0.79-6.18,0.06-7.69,4.32c-2.13-3.27-3.48-4.62-7.19-4.95c1.68-2.49,3.39-0.46,4.53-1.65  c1.01-1.05,1.67-2.6,1.87-4.3C231.55,527.55,231.55,518.64,234.04,524.25z" />
<path class="cls-12" d="M788.21,208.44c0.63,2.64,3.23,1.61,4.89,3.94c-4.29,0.87-5.31,4.08-6.48,7.61c-0.35-4-0.97-6.96-5.37-7.58  c1.98-2.33,4.5-1.52,5.05-4C786.85,205.96,787.33,206.1,788.21,208.44z" />
<path class="cls-6" d="M223.28,259.05c-0.75-0.47-1.63-0.39-2.4,0c-0.32-2.42-0.65-4.94,1.07-7.55  C224.05,253.84,223.61,256.62,223.28,259.05z" />
<path class="cls-8" d="M54.33,535.89c-0.77,2.72,1.46,5.74-1.6,7.39c-0.9-2.52-1.17-5.1-0.63-7.45  C52.79,536.28,53.64,536.37,54.33,535.89z" />
<path class="cls-8" d="M247.58,643.14c-0.26-0.57-1.81-0.6-2.74-0.1c0.26-2.16-0.4-4.7,1.61-6.79  C247.95,638.83,247.64,641.02,247.58,643.14z" />
<path class="cls-6" d="M227.26,265.33l0.24-2.19c2.21,0.53,4.91-0.5,7.35,2.19C231.86,265.76,229.63,265.42,227.26,265.33z" />
<path class="cls-6" d="M978.94,235.81c-0.4-0.6-0.68-1.26-0.76-1.97c2.22,0.26,4.84-1,6.71,1.24  C982.83,236.34,980.81,236.08,978.94,235.81z" />
<path class="cls-8" d="M967.66,233.61l0.11,2.45c-2.19,0.1-4.43,0.38-6.86-0.89C963.11,233.4,965.49,233.96,967.66,233.61z" />
<path class="cls-9" d="M715.81,711.31c-0.8-0.48-0.72,0.73-0.83,1.21l-5.19-6.21C712.9,706.44,714,709.52,715.81,711.31z" />
<path class="cls-6" d="M1147.97,587.98l0.14-2.15c2.36,0.22,4.1-0.7,5.86,0.9C1152.24,588.75,1149.93,588.23,1147.97,587.98z" />
<path class="cls-6" d="M217.03,263.01l0.15,2.44c-2.02-0.32-4.49,0.78-6.23-1.56C212.74,262.2,215.07,262.92,217.03,263.01z" />
<path class="cls-6" d="M464.49,455.86c-0.3-0.6-1.78-0.49-2.67-0.01c-0.25-1.79-0.35-3.67,0.98-5.6  C464.78,451.94,464.55,453.98,464.49,455.86z" />
<path class="cls-14" d="M194.03,907.34c0.07-2.4-0.26-4.04,0.87-6.12c1.2,0.64,0.92,2.21,1.04,3.57  C196.03,905.87,195.82,907.87,194.03,907.34z" />
<path class="cls-5" d="M193.79,915.69c-0.05,1.66,0.71,3.9-0.68,5.07c-0.8-0.82-1.39-1.99-1.23-3.42  C191.98,916.49,192.43,915.1,193.79,915.69z" />
<path class="cls-6" d="M788.21,208.44c-0.44,0.06-0.88,0.08-1.92-0.02c-0.32-0.95-0.63-3.65,0.95-4.01  C788.84,204.77,788,207.41,788.21,208.44z" />
<path class="cls-4" d="M705.45,1167.28c-17.27-0.26-34.67-2.62-51.81-2.89l-1.92-0.66l-0.09-93.12c-0.01-1.8,1.09-2.77,2.81-3.09  l50.24-0.01c0,0,0.81,0.85,2.42,2.56l0.28,96.05L705.45,1167.28z" />
<path class="cls-11" d="M709.36,1167.96c-1.27-0.09-2.74-0.66-3.91-0.68l-0.28-97.88l-51.62,0.03l0.1,94.96l-11.32-0.18l0.26-54.47  l-0.14-52.46l66.95,0.14L709.36,1167.96z" />
<path class="cls-11" d="M631.89,1164.22c-2.41,0.35-4.17-0.56-6.15-0.61c0.43-1.31,2.17-1.03,3.53-1.14  C630.18,1162.39,632.29,1162.52,631.89,1164.22z" />
<path class="cls-14" d="M684.21,412.91c-3.84,1.79-2.59,5.68-3.42,8.99c-1.84-3.04-0.57-6.57-3.4-8.75c-2.3-1.78-5.47-0.01-7.96-2.55  c3.39-1.31,5.85,0.42,7.9-1.45c2.21-2.02,3.69-4.45,2.11-8.12c0.55-1.06,2.12-0.98,2.2,0c-0.59,3.29-0.21,5.84,1.66,7.69  c2.14,2.11,4.93,1.66,8.41,1.66C689.93,413.21,686.79,411.71,684.21,412.91z" />
<path class="cls-14" d="M713.6,891.58c0.47,1.18,0.9,2.31,1.31,3.38l0.15,30.51l-39.92-0.08c-0.78,2.93-0.31,4.65-0.31,6.81  c-3.99,0.72,0.81-5.04-4.04-6.88c-2.16-0.81-3.38-0.36-5.74,0.81c-3.44,1.71-8.15,1.17-12.26,1.18l-40.37,0.13  c-1.71,0.01-1.66-1.18-2.11-1.77l48.18-0.24c2.37-0.01,4.49,1.38,6.87,0.04c0.59-36.35-3.32-71.99-11.87-107.12  c-17.99-73.94-61.56-150.69-132.03-184.85c-1.61-0.78-3.04-1.06-3.17-2.6c42.66,6.09,81.47,26.78,112.52,57.22  C681.28,737.57,712.22,823,713.6,891.58z" />
<polygon class="cls-3" points="892.91,1011.8 847.46,1011.98 847.5,981.99 892.55,981.84 " />
<polygon class="cls-3" points="844.07,1011.88 798.68,1011.95 798.7,981.95 843.62,981.88 " />
<path class="cls-3" d="M938.95,916.58c1.58,0.09,2.98,0.89,4.5,1.27c1.3,4.85,6.21,8.75,11.69,8.42c2.19-0.13,3.67-2.31,6.25-2.82  c2.19,5.01,1.1,10.23-0.19,15.45c-2.98,12.02,0.64,27.85-0.4,39.47c-2.9-0.2-5.72,0.39-9.06-0.47l-15.02-55.24  C936.18,920.66,936.98,917.28,938.95,916.58z" />
<path class="cls-4" d="M912.65,978.07l9.18-33.42c1.73-6.31,2.32-12.62,5.92-18.67l0.47,51.91  C922.82,978.43,919.17,978.57,912.65,978.07z" />
<path class="cls-3" d="M973.39,1010.87c-3.79,1.1-7.13,1.16-10.43,0.99c-0.75-0.89-0.45-1.88,0.89-2.97c0.78-0.62,0.92-1.22,1.13-1.65  c1.81-0.59,1.82-2.29,2.05-3.78l3.13-19.85c4.19,6.92,5.73,14.1,7.37,21.3C975.81,1007.31,973.97,1008.62,973.39,1010.87z" />
<path class="cls-5" d="M976.17,1011.78c1.39-0.18,4.29-0.12,4.59-2.21l1.7-11.86c0.84-5.9,0.18-11.03-1.35-16.28  c1.99,0.35,4.07,0.21,6.28,0.85l-0.06,29.95C983.4,1012.65,979.25,1013.62,976.17,1011.78z" />
<path class="cls-5" d="M795,1010.88c-0.03,0.46,0.03,1.09-0.21,1.38c-0.71,0.89-11.01,0.96-11.54-0.26  c-0.18-0.82,0.96-1.11,1.99-1.11L795,1010.88z" />
<path class="cls-11" d="M971.96,982.59c-1.13,0.65-3.65-1.6-3.2-3.38c0.4-1.6,2.61-1.12,3.66-0.46  C973.38,979.35,973.9,981.48,971.96,982.59z" />
<path class="cls-14" d="M934.89,914.02c-0.73,2.53-2.98,3.02-4.85,2.56c-1.28-0.31-2.38-1.67-3-3.52c-0.51-1.49,0.3-3.72,2.71-4.45  C932.49,907.77,935.81,910.84,934.89,914.02z" />
<g>
</g>
<g>
</g>
<g>
</g>
<g>
</g>
<g>
</g>
<g>
</g>
<g>
</g>
<g>
</g>
<g>
</g>
<g>
</g>
<g>
</g>
<g>
</g>
<g>
</g>
<g>
</g>
<g>
</g>
</svg>