<?xml version="1.0" encoding="iso-8859-1"?>
<!-- Generator: Adobe Illustrator 30.2.1, SVG Export Plug-In . SVG Version: 9.03 Build 0)  -->
<svg version="1.1" id="Layer_1" xmlns="http://www.w3.org/2000/svg" xmlns:xlink="http://www.w3.org/1999/xlink" x="0px" y="0px"
	 viewBox="0 129.6 1200 1541.0" style="enable-background:new 0 129.6 1200 1541.0;" xml:space="preserve">
<style type="text/css">
	.st0{fill:#FFFFFF;}
	.st1{fill:#276285;}
	.st2{fill:#092743;}
	.st3{fill:#2D303E;}
	.st4{fill:#164A69;}
	.st5{fill:#64A3C0;}
	.st6{fill:#467B86;}
	.st7{fill:#F6EFDA;}
	.st8{fill:#494549;}
	.st9{fill:#101A2D;}
	.st10{fill:#4A5A6A;}
	.st11{fill:#B47A42;}
	.st12{fill:#715036;}
	.st13{fill:#3A4351;}
	.st14{fill:#A26B39;}
	.st15{fill:#BF9F7F;}
</style>
<path class="st0" d="M0,128.64V0h1200v128.9l-0.66,1.92c-37.79,0.06-75.58,0.12-113.38,0.18l-1.17-1.92l-3.15,1.92l-21.2,0.01
	l-1.38-1.92l-0.67,1.68c-67.48,0.29-135.02,0.38-202.61,0.25l-1.19-1.92c-0.09,0.75-0.33,1.88-0.86,1.92
	c-6.31,0.51-16.56,0.47-22.86,0c-3.17,0.61-5.19-0.03-6.05-1.92c-4.86,2.95-12.75,2.97-17.61,0.02c-0.2,0.75-0.54,1.88-1.12,1.92
	c-7.52,0.49-20.89,0.78-28.13-0.02c-2.72,0.56-4.43-0.09-5.11-1.92l-0.88,1.92c0,0-19.51-0.01-58.52-0.02l-1.14-1.92
	c-2.86,2.86-8.54,2.9-11.41,0.03c-0.1,0.66-0.29,1.9-0.65,1.92c-10.95,0.58-24.27,0.43-35.28-0.01c-3.91,0.68-6.42,0.04-7.54-1.92
	l-0.88,1.92c-21.6,0-43.2,0-64.81,0.01l-1.15-1.92l-0.89,1.92c-21.42,0-42.84,0-64.27,0l-1.16-1.92l-0.64,1.92
	c-12.26,0.07-24.52,0.14-36.79,0.21l-1.15-1.91l-0.9,1.92c-23.02-0.08-46.06-0.15-69.1-0.23l-1.15-1.92l-0.88,1.92
	c-17.88-0.01-35.77-0.03-53.67-0.06l-1.14-1.91c-0.2,0.75-0.52,1.85-1.12,1.92c-3.63,0.45-10.52,0.21-14.36,0.01
	c-3.8,0.7-6.32,0.07-7.56-1.91l-0.92,1.92c-111.22-0.15-222.45-0.29-333.71-0.44L0,128.64z"/>
<path class="st0" d="M68.23,1671.55l0.67-1.92c32.8,0.06,65.62,0.12,98.45,0.18l3.46,1.93l0.89-1.92c18.56,0,37.12,0.01,55.69,0.01
	l1.16,1.92l1.44-1.92c16.63-0.02,33.26-0.03,49.9-0.05l1.15,1.92l1.18-1.92c38.05,0.02,76.11,0.04,114.16,0.06l1.18,1.92l0.66-1.92
	c0,0,30.69,0,92.08,0l1.16,1.92c0.09-0.75,0.33-1.88,0.86-1.92c6.16-0.52,15.97-0.44,22.16-0.03c3.18-0.62,5.2,0.02,6.07,1.91
	l0.89-1.92c0,0,22.68,0,68.04-0.01l1.16,1.92l0.66-1.92c34.51,0.01,69.02,0.02,103.54,0.04l1.16,1.92l0.89-1.92
	c16.94-0.01,33.9-0.02,50.85-0.03l1.16,1.92l0.89-1.92c25.26-0.01,50.52-0.01,75.79-0.02l1.16,1.92l0.07-1.28
	c13.71-0.75,27.67-0.95,41.89-0.61l1.12,1.92c-0.05-0.45-0.06-0.89,0.07-1.28c0.54-1.6,31.95-1.51,33.4-0.65l1.13,1.92
	c0.2-0.75,0.5-1.82,1.12-1.92c6.23-1.02,25.06-0.56,31.87,0.02l1.4,1.92c0.2-0.75,0.51-1.87,1.09-1.92
	c2.23-0.21,19.85-0.62,20.7-0.02c0.69,0.49,1.17,1.07,1.36,1.92c0.2-0.75,0.52-1.87,1.11-1.92c2.46-0.22,21.52-0.54,22.51-0.01
	c0.74,0.4,1.14,1.15,1.39,1.92l6.79-1.92l68.07,0l24.28,0l7.44,1.92l1.1-1.92c0,0,5.11,0.01,15.34,0.04l2.7,1.93
	c0.76-3.09,9.43-2.83,10.52-0.01l0.9-1.92c24.91,0.04,49.82,0.07,74.75,0.11l1.16,1.92V1800H0v-127.68l0.86-1.93
	c20.01-0.24,40.05-0.46,60.12-0.64L68.23,1671.55z"/>
<path class="st1" d="M67.07,379.37l2.64,7.35c13.61,65.75,28.71,131.25,47.59,195.74c0.16,9.24,0.29,9.77,0.39,1.61l27.08-85.14
	l2.19-0.54c-0.48-0.33-0.45-0.64,0.07-0.96l1.5-2.32c-1.83-0.42-1.74-1.13,0.09-1.67c-0.23-0.89,0.13-1.85,1.03-2.09
	c0.1-4.69,0.16-7.04,0.16-7.04c7.23-22.57,16.61-44.35,26.22-65.98c0.45-1.02,1.19-1.91,1.95-2.83c0.77-0.92,1.64-1.76,2.54-2.57
	c2.44-3.02,8.81,0.93,11.7,2.86c1.74,1.16,6.02,4.43,6.66,6.17l-0.74,2.35c-0.25,3.38-0.55,6.8-1.63,10.04
	c-7.85,23.7-15.6,47.32-23.18,71.11c-1.02,3.21-2.72,6.16-4.46,9.03l0.45,3.29c-6.64,26.19-12.22,52.63-16.72,79.32
	c-2.41,3.93-2,3.48,1.24-1.34c23.7-18.57,43.24-41.81,59.47-67.05c0,0,1.5-1.17,4.5-3.52c-0.6-0.47-1.43-1.31-1.16-1.77
	c3.62-6.24,28.54-48.36,31.34-49.18c1.58,1.04,3.11,2.3,4.61,3.78c2.37-2.2,5,1.06,2.06,2.85l-0.08,3.43
	c-7.02,13.06-13.41,26.46-19.18,40.18l-3.08,1.54c-0.18,1.28-0.41,2.55-0.76,3.79c-0.35,1.22-0.71,2.41-1.32,3.45
	c-20.39,34.65-45.12,66.06-72.57,95.03c-13.99,17.57-15.66,43.58-16.82,65.63c-0.07,27.41,0.51,54.47,1.73,81.18
	c53.56-45.99,96.65-109.59,120.59-174.9c6-20.79,12.73-41.49,20.19-62.09c1.44-2.1,2.59-1.49,4.19,0.13l-9.86,58.47
	c6.72-9.73,13.24-19.62,19.57-29.66c0,0,1.33-0.65,3.99-1.94c3.18,0.44,6.09,6.38,2.84,7.89l-1.52,4.73
	c-21.86,36.72-43.74,73.64-61.59,112.55l65.44-22.72l1.72,1.44c0.82,0.59,1.57,1.32,1.84,2.32c0.37,1.41-1.95,14.74-2.62,17.12
	l-2.11,1.83c-1.71,2.2-2.56,3.3-2.56,3.3l-32.81,14.23c-29.49,11.68-50.04,33.33-69.43,57.94c-28.09,35.66-54.57,71.94-52.82,119.25
	l-0.08,99.48l-1.92,1.16c-0.67,2.43-0.86,5.14-0.58,8.13l1.75,1.58c0.18,10.44,0.55,20.9,1.1,31.36l-2,1.45l1.56,5.96
	c-0.4,21.67-0.27,43.34,0.37,65.02c0.29,3.16-0.45,6.15-2.03,8.91c-1.78,2.1-2.67,3.16-2.67,3.16
	c-34.66,10.8-69.45,23.87-94.18,51.75l-3.9,1.67c-0.74,0.24-1.84,0.58-2.22,0.12c-2.72-3.33-7.41-10.61-9.47-14.44
	c-2.24-2.27-2.79-4.28-1.67-6.04l-0.89-1.84l3.52-15.56l-1.04-1.87c1.48-5.12,3.33-9.99,5.56-14.61
	c17.36-10.63,33.25-22.79,43.43-40.66c12.8-22.46,14.21-50.92,13.36-76.16l-22.6,18.21c-13.3,11.4-24.04,25.65-30.98,41.75
	l-3.16,2.65l-1.89-0.74c1.36-34.97,2.72-69.95,4.09-104.93l1.96-1.09l-1.85-3.51l2.13-105.03c2.75-31.08-20.5-54.24-41.4-74.55
	L0,762.24V635.52l2.17-0.44c6.27,11.55,10.45,24.22,12.53,37.99c3.27,19.26,7.38,38.07,12.32,56.42
	c7.63,7.09,16.02,13.43,25.18,19.03c1.98,5.33,2,4.45,0.06-2.65c-1.54-51.54-5.04-103.17-12.03-154.16
	c-3.99-29.11-17.68-59.07-38.64-79.77L0,507.84v-34.56c2.06-1.54,4.6-0.77,7.62,2.29c4.91,5.11,10.39,8.89,16.42,11.33
	c-1.18-33.06-5.88-65.86-14.1-98.38l1.4-2.71c-0.96-1.57,2.23-4.62,3.4-4.82c12.77-2.09,34.22-4.94,46.61-3.59
	C63.39,377.62,65.29,378.35,67.07,379.37z"/>
<path class="st1" d="M1138.36,681.85l1.98,1.08l7.43,139.44c11.35-19.47,24.32-37.74,38.91-54.81c3.7-5.18,8.14-8.72,13.31-10.62
	v54.18l-1.65,5.45c-15.49,21.51-31.93,44.71-38.73,70.71c-2.85,10.88-3.91,22.13-1.49,33.19l-1.2,3.17
	c1.93,10.84,2.67,21.93,2.22,33.27c1.98,36.56,4,73.09,6.07,109.59l-0.99,4.84l-4.13-1.68c-25.29-29.05-60.03-44.31-97.86-48.88
	c-3.38-2.42-3.71-2.02-1.01,1.19c6.35,25.55,16.78,50.56,35.12,69.79c19.76,20.72,43.86,29.53,70.26,38.75c0,0,0.87,1.09,2.62,3.28
	l1.74,3.9c-0.29,11.51,1.21,22.97,3.47,34.24l-1.1,4.15c0.77,0.49,0.71,0.82-0.2,1l-3.89-1.58
	c-29.16-31.88-74.32-40.68-115.93-39.26l-3.92-1.74c-1.47-19.51-1.77-39.1-0.91-58.78c0.7-20.06,0.22-39.53-1.43-58.4l-2.69-6.42
	l1.19-1.9c-1.89-1.69-3.79-3.46-5.09-5.67c-20.38-34.65-41.47-68.79-63.07-102.67l-4.1-8.78c-12.08-38.3-30.42-76.79-60.14-105.18
	l-2.09-4.47c-0.58-0.48-1.39-1.29-1.14-1.77c1.77-3.37,12.24-20.28,14.29-22.15l2.38-0.15l2.03-0.61l36.09,40.77
	c0.53-24.34-1.41-48.31-5.81-71.93c-1.63-2.96-1.89-5.38-0.8-7.26c-1.55,0.27-0.83-1.2-0.04-2.23l-0.27-2.78l7.84-8.97
	c2.76-3.63,5.63-5.13,8.61-4.49c4.22,9.33,6.83,19.35,7.85,30.07c5.31,34.8,9.98,69.43,14.03,103.86c1.44,9.94,3.8,21.49,8.96,30.19
	c12.19,20.56,27.68,39.19,43.47,57.21c3.28,8.96,3.54,7.19,0.82-3.93c0.17-67.87-0.76-135.93-3.73-203.59
	c-0.71-16.12-5.06-32.35-10.79-47.35l0.08-4.86c0.44-0.58,0.9-1.14,1.44-1.59c6.79-5.7,41.09,0.15,50.33,3.56
	c16.16,5.61,32.49,10.65,48.98,15.11L1138.36,681.85z"/>
<path class="st2" d="M1045.66,1386.22l2.92,3.93c7.23,32.63,4.06,67.63-10.52,97.85c1.51,11.53,3.03,23.04,5.6,34.29
	c1.7,7.44,4.42,15.04,9.78,20.43c12.84,8.84,25.52,18.04,38.04,27.59c-3.7-19.47-10.47-38.02-20.33-55.64
	c-19.73-48.42-6.67-102.65,22.86-144.9c-1.05-3.66-3.88-6.64-8.47-8.96l0.27-2.3l-2.36,0.37c-10.72-10.55-21.44-21.1-32.16-31.65
	l-1.68-4.35c-1.77,0.05-3.23-1.13-4.4-3.55c-5.3-4.18-8.82-9.11-10.57-14.77l1.95-1.11l2.38-1.39c0.5-2.83,3.08-2.57,4.41-0.19
	c1.44-0.12,2.82-0.2,4.14-0.23c-0.42-2.48,0.04-2.61,1.74-0.81l4.03-1.98c18.53-1.5,38.97-2.2,57.46-0.55
	c0.66,0.06,1.3,0.46,1.97,0.89c0.68,0.43,1.29,0.98,1.87,1.56c0.8-0.37,1.62-0.7,2.46-0.9c0.82-0.19,1.62-0.36,2.35-0.23
	c27.6,4.67,56.65,20.3,78.24,37.87c0.58,0.47,0.98,1.17,1.38,1.9c0.41,0.76,0.71,1.58,0.97,2.41v60.86
	c-0.75,0.43-1.51,0.82-2.31,1.08c-0.78,0.26-1.54,0.49-2.26,0.42c-22.89-2.09-45.62-7.91-66.16-18.34
	c10.89,43.58-0.89,90.84-23.94,127.29c-5.41,9.82-4.98,21.52-3.71,32.4c2.75,23.71,7.49,47.47,12.52,71.05
	c5.71-9.57,8.92-19.6,9.64-30.08c-4.16-33.76,9.97-65.16,34.92-88.15c6.55-6.04,31.34-24.16,39.22-22.82
	c0.71,0.12,1.4,0.37,2.08,0.66v74.28l-1.29,3.91c-18.23,18.58-40,35.39-65.92,40.97c-13.82,21.93-16.92,47.91-8.85,72.53l-0.74,3.91
	l-10.52,0.01l-3.16-1.76c-11.27-19-30.47-30.82-50.45-39.12c-35.93,11.71-72.01,6.2-106.32-7.81c-0.66-0.27-1.2-0.85-1.77-1.46
	c-0.58-0.62-1.05-1.33-1.5-2.07c-2.38,0.25-3.57,0.38-3.57,0.38c-7.37-5.05-15.05-9.52-23.02-13.39l-1.35-2.26
	c-0.57,0.49-1.49,1.17-1.92,0.86c-2.03-1.5-14.22-12.54-14.66-13.91c-0.97-3,9.57-8.87,11.73-5.31l1.58-1.98
	c6.64-1.41,13.14-3.43,19.48-6.06l2.15,1.43c0.51-0.61,1.04-1.2,1.65-1.68c0.59-0.47,1.17-0.89,1.8-1.04
	c24.77-5.65,53.99-5.35,78.34,2c34.17,10.31,53.52,31.92,74.91,58.77c1.49,2.13,10.27,10.24,10.23,9.1
	c-0.35-11-2.73-23.88-4.86-34.78c-1.48-7.62-3.35-15.15-5.45-22.62c-23.79-24.89-55.76-39.86-90.54-39.48
	c-24.88-2.37-51.82-8.08-73.47-21.09c-0.66-0.4-1.18-1.03-1.7-1.7c-0.54-0.7-0.97-1.48-1.37-2.28c-4.83-1.96-9.2-5.11-13.09-9.47
	l-12.49-10.26l-2.39-4.35c-0.98,0.24-2.09,0.46-2.99,0c-2.37-1.22-16.34-18.31-19.05-21.87l-2.06-4.21c-0.72,0.29-1.81,0.7-2.2,0.26
	c-1.81-2-12.07-15.71-12.18-17.14c-0.11-1.46,0.15-1.87,1.49-2.57c1.35-0.7,12.65-1.34,12.08,2.06l2.29-1.47
	c2.3-0.04,14.48,1.12,15.21,2.04c0.33,0.42,0.58,0.91,0.8,1.42c0.21-0.72,0.6-1.76,1.17-1.75c5.14,0.03,22.14,3.06,27.39,4.52
	l1.07,2.12c0.92-2.44,1.5-2.38,2.05,0.17c0.82-0.28,1.64-0.52,2.48-0.63c0.82-0.11,1.6-0.2,2.3-0.01
	c38.2,10.68,76.12,26.46,103.9,55.79c-0.64-9.37-2.02-18.68-4.13-27.92c-21.16-18.26-36.85-45.12-44.68-71.88
	c-0.19-0.66-0.13-1.4-0.04-2.17c0.1-0.8,0.32-1.59,0.58-2.37c-1.95-0.18-2.91-1.76-2.85-4.76c-1.31-3.7-1.05-6.25,0.77-7.63
	c-0.61-0.83-1.18-1.67-1.63-2.57c-0.44-0.88-0.83-1.76-0.96-2.66c-2.66-19.29-1.36-41.18,1.77-60.37
	c1.06-6.47,7.03-37.59,10.76-38.64c3.62-1.02,22.91,25.5,26.47,30.78c10.64,15.73,19.94,33.72,24.95,52.09
	c0.21,0.77,0.13,1.62,0.04,2.5C1046.18,1384.45,1045.94,1385.34,1045.66,1386.22z"/>
<path class="st3" d="M807.2,129.13c0.5,2.79,0.97,5.64,0.66,8.48c-5.8,52.93-11.38,104.83-4.35,158.14
	c-0.16-20.49,0.22-41.03,2.79-61.39l16.43-104.38l2.08-0.86l29.77,0c0.98,4.12,1.47,6.17,1.47,6.17c-2.5,22.98-4.21,46-5.12,69.08
	l-1.91,6.03l1.93,5.35c-0.89,23.99,1.27,47.54,6.49,70.65c1.38,6.31,4.36,9.89,8.94,10.74l37.01-27.36l2.06,0.86l0.04-2.26
	c2.56-1.41,5.03-2.85,7.41-4.34c0.94,0.96,1.95,0.95,3.03-0.05l1.06-2.78c0,0,4.8-3.74,14.41-11.23l2.91-0.17l0.63-2.53
	c35.7-23.61,74.76-55.9,87.33-98.21c15.19,2.45,30.99-1.83,34.61-18.59l2.18-1.38l25.74-0.02l-1.95,4.97
	c-30.67,43.54-63.03,84.55-97.08,123.04c15.32-2.09,30.37-6.18,44.99-11.24l167.44-66.24l1.8,1.35v23.33
	c-3.03,2.27-6.82,3.52-11.35,3.74l-10.11,2.76c-29.44,11.47-57.19,26.54-83.24,45.22c-3.77,0.11-3.9,0.2-0.41,0.27
	c35.53,21.24,69.98,43.24,103.37,66c0.7,2.8-0.07,4.05-2.3,3.74c-33.33-7.95-65.38-19.63-96.17-35.05
	c-44.15-22.23-88.45-5.32-126.22,22.62l-5.01,1.18l-1.33,3.27c-6.32,4-12.43,8.28-18.34,12.83l-3.49,0.49
	c-0.22,3.09-2.63,5.85-5.81,5.61l-1.34,3.66c-9,6.07-16.87,13.15-23.61,21.23l-2.76,0.8c-0.72,2.82-4.36,9.35-7.74,8.75l-0.61,3.36
	c-16.74,17.95-30.01,40.44-32.74,65.16l-2.1,2.64c0.79,2.24,0.24,4.8-2.49,4.67l1.2,5.49c-4.76,69.13,9.52,139.25,24.64,206.44
	c0,0-0.33,1.33-0.98,4c0.91,1.74-0.87,3.91-2.38,4.71c-11.09,5.91-20.98-15.54-24.44-23.3c-27.4-61.39-42.14-123.92-31.72-192.15
	c8.78-57.46,36.71-104.78,80.82-142.32c-33.9,19.66-59.01,51.96-72.63,88.48c-2.85,5.84-3.96,5.56-5.22-0.66
	c2.03-27.43,8.97-53.92,20.82-79.48c-15.89,18.52-25.06,46.35-28.84,71.99l-7.68,54.39c-2.68,5.15-3.74,5.95-5.94-0.13
	c-25.34-69.38-40.43-142.57-42.4-216.49l-0.51-97.96l1.92-1.16L807.2,129.13z"/>
<path class="st2" d="M1200,204.28v119.24v0.96v124.69l-0.54,2.04c-14.72,2.51-29.45,5.03-44.18,7.54l-1.45-1.7l-2.18-2.3
	c0.19-10.98,1.38-21.77,3.58-32.35c-3.87,4.29-8.38,6.67-13.51,7.12l-0.85-2.07l-2.11-1.04c0.4-8.55,1.22-17.06,2.47-25.54
	c-0.5-4.47-3.3-7.68-6.07-2.5l-9.86,28.85c-1.56,2.3-3.21,4.19-4.82,1.09l-2.38-0.16c-6.87-10.04-8.55-8.01-5.03,6.09
	c0.97,16.05-10.76,27.73-25.11,33.45c-24.23,9.67-37.1-11.67-36.65-33.39l-4.69,4.92l-2.38,0.16c-1.64,5.66-11.67,9.49-17.35,10.5
	c-33.56,5.99-47.07-52.3-22.29-71.31c-1.45-5.17-3.1-10.27-4.95-15.31c-37.88,31.33-67.2-24.47-28.21-45.61
	c-2.26-0.15-3.23-1.12-2.89-2.91c107.39-76.69,123.9-10.93,229.6,9.74l-60.27-39.77c-15.26-10.07-29.68-19.21-46.62-28.42
	C1123.33,235.68,1164.02,207.51,1200,204.28z"/>
<path class="st3" d="M1140.87,427.45l1.58,1.27l-12.14,33.9c7.5-1,14.53-3.08,21.1-6.22l2.43,0.65l46.17-7.88v17.4
	c-3.61,2.08-7.79,3.05-12.54,2.89c-13.89,2.64-20.84,3.97-20.84,3.97c-4.35,1.89-8.57,2.53-12.68,1.9c-0.41,3-5.72,5.24-7.64,2.72
	c-5.96,5.29-15.92,8.72-23.93,8.8l-3.2,3.49c-28.39,13.02-51.8,34.87-69.62,60.28l-4.03,2.49l-0.91,4.92
	c-10.98,17.66-19.46,37.07-23.54,57.52l24.64-1.3l1.48,1.84l2.85-2c17.1,0.09,33.11,6.92,48.21,14.33l48.59,24.57l0.15,2.23
	l3.06-0.67c15.66,7.07,32.78,2.72,46.81-6.05l3.14,0.29v21.32c-0.4,1.19-0.88,2.49-1.93,3.26c-12.34,9.11-41.77,13.93-56.78,10.93
	c-0.54-0.11-1.03-0.48-1.52-0.9c-0.53-0.45-0.98-0.99-1.4-1.56c-35.19-6.88-65.61-27.5-103.44-19.59l-2.47,2.53
	c-21.32,5.45-40.86,17.69-54.86,34.69l-3.35,1.18c-6.25,3.82-11.73,10.47-16.18,16.24c-0.28,1.31-0.93,2.02-1.95,2.13l-1.78,4.72
	c-8.95,10.73-17.42,21.78-25.41,33.16l-2.33,1.25l-15.53,24.07l0.41,2.89c-10.82,13.55-17.39,28.4-19.69,44.55
	c3.3,39.22,8.38,78.31,15.22,117.28c0,0-0.26,2.79-0.79,8.36l-2.11,0.13l-39.28-72.31c-31.01-58.71-3.33-128.38,43.63-169.65
	c-30.12,17.32-47.69,48.86-59.91,80.34c-2.55,3.48-3.76,5.07-4.82,0.96c-1.81-7,2.27-26.9,4.15-34.82
	c7.81-32.81,25.25-60.48,45.5-86.89c3.06-5.84,6.71-11.06,10.94-15.67l1.42-2.57c19.11-13.67,36.94-28.81,53.51-45.42l4.93-2.63
	c0.23-1.62,0.53-3.3,1.46-4.67c3.06-4.48,15.05-20.88,18.12-22.8c0.75-0.47,1.56-0.82,2.39-1.15c0.52-1.59,1.08-3.16,1.76-4.67
	c0.68-1.51,1.36-2.99,2.3-4.28c15.94-21.91,32.35-43.81,51.16-63.28l4.15-2.74l1.4-3.29c13.54-8.61,27.38-16.54,41.54-23.8
	c17.33-10.76,23.71-25.89,29.3-45.31l2.72-2.46c1.9,0.25,2.98-1.29,3.61-3.16l9.09-26.99c0.93-2.75,4.25-5.44,6.25-4.15
	C1148.27,399.74,1138.47,415.15,1140.87,427.45z"/>
<path class="st3" d="M180.78,195.91c0.74,4.95-0.34,10-3.24,15.17c-8.37,18.43-18.72,35.71-31.06,51.83
	c-6.97,11.48-13.64,28.03-2.95,38.67l-0.78,2.1l4.32,2.26c16.8,20.07,36.53,37.71,58.47,51.99l2.74,4c2.4-0.93,5.01,0.16,7.84,3.25
	l8.49,7.05l-0.2,2.36c2.18,0.67,4.4,1.4,6.25,2.78c15,11.2,30.02,22.1,45.2,33.06c0.9,0.65,1.65,1.49,2.39,2.38
	c0.76,0.9,1.41,1.89,2.04,2.9c8.39,8.24,17.1,16.3,26.15,24.18c48.74,41.88,64.26,104.64,41.21,164.75
	c-4.93,12.85-19.22,41.71-33.98,45.22c-1.07,0.25-2.16-0.23-3.11-0.71l-1.51-5.43c0.61-18.42-0.08-36.78-2.07-55.1l0.9-2.81
	c-0.46-1.06-0.93-2.17-1.39-3.33c-3.47-1.05-3.78-6.31-2.39-9.48c-0.11-3.1-2.27-5.27-2.84-7.89l-2.72-3.13
	c-4.08-15.5-11.61-29.76-19.81-43.43l-0.24-4.11l-2.61-0.64c-4.98-11.86-11.87-21.96-20.65-30.3l-0.54-2.62
	c0.39-1.55-1.54-2.06-2.06-2.85c-2.61-1.6-3.92-2.4-3.92-2.4c-12.96-18.61-29.56-34.46-48.16-47.38l-2.39-3.93
	c-3.52-5.8-10.98-9.98-17.62-11.38l-4.47-0.71c-18.41-12.13-38.97-21.09-60.72-25.01l-3.74-2.54c-1.08-0.39-2.19-0.85-3.32-1.38
	c-1.17,2.64-2.59,2.51-3.48-0.18c-1.44,0.28-2.52,0.02-3.25-0.78c-0.09,2.87-5,2.61-5.5-0.14c-0.92,0.8-1.96,1.7-3.17,1.77
	c-4.97,0.31-17.51-1.53-22.87-2.56l-2.93-2.05c-17.17-0.37-34.37,1.18-51.74,3.38c-1.39,0.84-2.5,3.09-4,3.05
	c-0.75,0.17-0.98-0.09-0.7-0.8c-0.68-0.98-1.43-1.09-2.25-0.35c-0.97,2.51-7.63,3.2-8.39,0.3v-17.28c0.28-2.43,1.92-3.39,3.93-1.81
	l1.59-2.08c2.87-0.38,15.24-4.1,16.28-5.62c0.94-1.38-16.9-18.3-20.73-19.45L0,336v-25.92c1.72-1.7,4.11-1.02,7.17,2.04l19.21,17.42
	c4.18,2.8,7.83,5.95,10.95,9.43l0.1,0.78l2.56,0.03c6.28,6.89,15.74,11.17,25.09,9.09l2.11,1.42c1.46-0.35,3.85-0.35,5.02,0.8
	l3.14-1.9c4.66-0.42,24.25-0.59,26.77,1.47c0.52,0.43,0.96,0.95,1.38,1.51l3.69-1.38l28.88,3.66c-6.63-7.48-13.62-14.65-20.94-21.51
	l0.16-2.84c-1.34-0.92-2.65-1.86-3.86-2.92c-1.21-1.04-2.39-2.09-3.34-3.31c-9.45-12.16-18.95-24.86-27.41-37.71
	c-0.85-1.3-1.48-2.74-2.09-4.22c-0.61-1.49-1.09-3.03-1.53-4.59l-2.67-0.57c-5.39-10.46-12.57-19.08-21.56-25.84l-0.97-2.41l-3-0.69
	c-8.94-8.78-19.14-16.17-30.59-22.14l-1.04-2.97l-0.01-2.27l10.92-4.94c2.17-2.06,4.28-3.18,6.32-3.35l2.73-0.58l13.25,7.06
	c2.9,1.1,4.29,2.83,4.17,5.2l2.66-0.21c3.49,4.01,7.03,7.67,10.6,10.99c-0.76-11.79-2.28-23.46-4.57-35.01l0.99-3.65
	c0.38-0.82,0.8-1.73,1.59-2.07c0.84-0.36,16.92-0.65,18.22-0.46l2.05,1.49c3.74,3.2,4.54,11.55,3.32,16.35l2.34,1.1l2.82,14.04
	c1.29,3.01,1.81,6.01,1.57,9l2.04,2.18c1.06,12.28,6.4,23.99,14.59,33.16c10.92-12.42,21.69-25.02,32.3-37.81
	c8.67-10.03,14.69-21.92,19.06-34.35l2.65-2.66l-1.06-3.15c3.02-9.69,6.05-19.43,7.2-29.58c1.71-3.51,2.46-4.96,4.45-1.61
	c2.41,4.06,6.28,28.27,4.57,32.25C181.7,194.56,181.26,195.24,180.78,195.91z"/>
<path class="st2" d="M273.43,1350.69l2.72-1.11c6.86,3.28,18.89,9.6,23.54,15.43c1.82,2.28,2.07,2.72-0.19,4.92
	c-0.91,0.88-22.4,1.84-25.34,1.85l-1.54-1.81l-1.44,2.08c-15.07,4.49-29.85,10.41-44.35,17.76c-16.97,6.85-35.79,12.04-54.08,8.45
	c-2.89,4.23-6.36,8.11-10.4,11.65c-17.62,14.99-33.92,31.11-48.88,48.35c-11.64,22.29-21.66,46.08-30.31,69.91
	c4.47-3.22,8.32-7.01,11.54-11.38c18.66-61.04,66.87-95.93,130.08-98.82c9.33-0.43,31.82-0.8,39.59,2.49
	c2.77,1.17,3.48,1.71,1.24,3.97c-16.78,15.86-33.74,31.45-50.88,46.77c-27.85,25.4-63.37,36.89-100.26,41.82
	c-5.51,1.19-9.6,4.16-13.24,8.37c-15.19,17.53-30.29,35.68-44.31,54.24c6.79-2.31,12.98-6.17,18.57-11.56
	c43.35-25.91,100.7-19.75,140.58,10.58c4.58,3.84,4.14,4.37-0.62,7.01c-21.75,8.35-43.97,14.78-66.66,19.3
	c-34.35,4.97-55.34-3.08-83.06-22.98c-1.56-1.12-19.83,13.01-21.18,16.71c-13.44,18.27-26.13,37.03-38.09,56.3
	c-1.7,3.39-3.86,5.07-6.46,5.04v-17.28l1.69-5.09c9.79-13.4,13.41-33.36-0.46-45.34L0,1584.96v-165.12
	c0.12-1.07,0.59-1.93,1.43-2.58c0.55-1.6,3.24-8.56,5.42-7.35c6.56,3.65,17.87,28.57,21.2,36.86
	c20.48,50.99,15.67,105.96-9.58,153.68c-0.91,2.73-1.12,5.66-0.37,8.47l9.57-13.32c15.97-17.34,28.81-36.62,38.51-57.86
	c10.87-26.98,23.45-53.05,37.74-78.2c-21.77-39.83-12.86-75.07,5.63-113.12c10.75-19.58,20.56-39.65,29.43-60.19
	c1.16-2.31,1.99-1.87,3.86-0.22c6.26,5.54,12.54,25.76,14.21,34.41c6.05,31.21-3.89,63.16-14.96,92.13
	c-0.07,0.31,0.21,0.59,0.41,0.5c3.05-1.46,12.86-11.31,15.94-14.47c3.41-3.5,6.63-7.15,9.39-11.18
	c2.43-39.11,34.83-80.46,70.45-95.56c3.83-1.63,10.15-4.29,8.14,1.13c-10.89,15.73-18.6,33.32-23.96,51.63
	c14.59-1.78,34.63-2.55,48.71,3.44L273.43,1350.69z"/>
<path class="st4" d="M272.62,1369.96c0.4,2.18,0.76,4.37,0.98,6.56c0.22,2.19,0.43,4.37,0.32,6.53
	c-4.8,95.18-17.16,190.78-42.45,282.72l-2.91,5.98l-57.75-0.02l-3.76-1.51c-20.11-23.41-48.11-41.33-79.3-44.03
	c-30.78-2.67-55.72,9.93-78.26,29.7c-2.24,1.34-8.22,4.68-9.49,2.03V1656c17.26-19.43,40.51-73.51,66.18-79.77
	c52.68,41.39,96.57,20.96,151.96,2.47c-38.47-31.3-93.02-38.1-136.52-16.22c-10.15,5.11-16.67,16.21-28.91,15.2
	c14.6-20.35,30.85-37.33,45.54-55.73c5.85-7.33,10.52-10.25,20.64-11.76c77.41-11.56,90.77-39.35,146.9-87.96
	c-74.74-11.67-143.64,16.05-167.49,91.36c-2.9,9.16-13.31,14.58-19.81,21.29c9.16-25.98,19.57-49.35,30.69-73.06
	c8.35-17.78,47.91-46.44,63.01-65.25C214.64,1403.3,250.38,1371.58,272.62,1369.96z"/>
<path class="st2" d="M335.81,129.08l1.98,0.78c4.17,21.12,6.79,42.34,7.87,63.66c-0.1,2.02-0.61,3.21-2.86,3.13l-2.09,0.14
	l-7.46-14.11c3.89,16.39-10.77,33.32-25.79,38.19c-5.27,1.71-23.66,2.81-27.53-0.63c-0.73-0.65-1.18-1.45-1.36-2.42l-0.51-4.18
	c0,0,2.49-10.12,7.46-30.35L272,209.41l-2.22,0.12l-1.48,1.96c-5.71-0.63-11.25-2.24-16.6-4.85c-3.63,47.79-68.36,28.79-60.36-11.84
	l-8.6,2.65l-1.96-1.54c-0.16-11.53-2.02-23.47-5.57-35.64c-1.15,13.83-5.02,24.37-8.36,35.63c-6.71,7.51-19.29,12.99-29.4,9.35
	c-9.24-3.33-20.35-15.51-15.34-25.65c-0.4-3.08,0.49-6.31,2.68-9.7c4.88-9.49,3.8-10.71-3.24-3.66l-2.42-1.11
	c-0.9,1.22-2.55,1.41-3.98,1.1c-0.7,1.93-1.75,1.98-2.62,0.12c-1.02,0.33-1.8,0.88-2.36,1.63c-0.26,1.7-1.43,3.39-3.5,5.07
	c-2.65,7.25-6.75,13.36-12.31,18.35c-2.7,3.03-5.43,4.19-8.2,3.49c-6.94,1.92-14.75,0.2-21.87,1.04c-2.04,1.97-5.8-0.03-5.59-2.85
	c-1.29,1.1-2.51,0.7-3.66-1.18l-4.05,0.78c-3.72,5.01-7.81,9.73-12.28,14.14c-1.07,2.7-2.49,4.47-4.26,5.32
	c-3.32,6.2-11.74,6.81-17.22,10.56c-2.54,0.6-5.38-0.04-8.51-1.9c-4.02-0.42-6.93-1.7-8.74-3.85v-88.32L335.81,129.08z"/>
<path class="st2" d="M34.31,1126.89l-3.23,14.93c0,0-0.76,0.54-2.27,1.63l0.44,3.47c-11.72,26.96-16.05,56.8-18.72,85.94
	c3.76-14.63,8.69-29.02,15.6-42.47c3.51-6.83,9.36-18.08,14.53-23.26c1.22-1.22,2.74-1.97,4.38-2.48
	c13.62-16.89,32.37-28.81,51.7-38.47c15.95-7.97,33.47-11.51,49.05-18.11c1.17-3.27,8.3-3.67,9.45,0.46
	c0.53,1.92-7.96,34.05-9.33,38.79l-2.13,0.67c-4.04,17.09-14.82,33.47-25.03,47.8c-17.73,24.88-40.53,47.58-66.68,63.33l-3.29,0.63
	l-1.6,3.29c-13.87,7.21-26.76,15.77-38.66,25.68l-6.32,27.48L0,1317.12v-74.88l5-41.22c-1.09-7.57-2.76-14.95-5-22.14v-91.2
	c0.95-0.19,1.86-0.08,2.71,0.39c5.05,2.76,8.19,27.61,8.04,33.91l-1.79,2.1c1.91,1.45,2.62,3.58,2.14,6.39l-0.57,12.35
	c-3.15,13.48-3.44,26.64-0.87,39.47l12.58-41.91c0,0,1.19-1.5,3.57-4.51l-1.23-2.18c5.37-8.38,8.22-17.15,8.55-26.31
	c-1.64-16.83-0.63-33.24,3.03-49.23l2.73-1.93c7.34-18.86,20.06-35.63,35.7-48.18l23.39-18.78c0.44,57.73-5.74,91.87-57.4,122.06
	C36.68,1115.45,37.56,1122.75,34.31,1126.89z"/>
<path class="st1" d="M1153.94,475.33c1.79,1.75,2.4,4.52,1.82,8.3c0,0,0.89,3.98,2.66,11.95c1.99,2.56,2.82,4.98,2.49,7.25
	l1.23,2.06l-19.11,46.57c-7.95,20.98-13.28,43.33-12.57,65.86c16.15-26.28,33.67-51.88,54.87-74.37l12.46-30.94l2.21-0.33v46
	l-1.69,5.28c-20.53,26.47-38.61,55.39-48.09,87.75l-3.23,4.5l-41.62-21.08c-18.39-9.32-38.21-19.1-58.18-18.05
	c-1.39-2.67-2.08-4.01-2.08-4.01c0.38-18.28,0.13-36.53-0.74-54.75l1.16-4.22c18.95-28.28,45.31-53.08,76.86-66.26l1.93,0.86
	l0.35,34.63c8.09-13.14,14.45-27.01,19.06-41.61l2.59-2.68L1153.94,475.33z"/>
<path class="st2" d="M1200,128.9v52.05l-158.4,62.88c-19.53,7.75-39.2,13.06-60.79,16.11l40.71-47.92
	c22.6-26.61,43.34-54.78,63.27-82.94L1200,128.9z"/>
<path class="st4" d="M1200,1402.66v73.5c-34.94,11.29-62.31,40.75-72.66,76.22c-4.28,14.66,0.09,29.11-2.53,43.46
	c-1.83,10.02-9.68,18.09-10.97,29.79c-27.99-136.54-11.56-90.34,8.78-153.68c9.42-29.34,12.63-59.3,3.5-89.98
	C1149.5,1394.86,1174.45,1400.49,1200,1402.66z"/>
<path class="st2" d="M1200,1096.18c-1.26,8.03-3.03,15.96-5.31,23.78c-2.25,12.23,0.29,19.22,5.31,30.25v16.17l-2.21,0.26
	c-6.97-9.95-14.46-19.36-22.46-28.22c-3.7-0.84-5.73-2.39-6.1-4.62c-9.51-4.48-19.55-7.34-29.86-11.4
	c-47.33-18.65-69.65-55.39-80.99-104.1c46.91,6.43,75.44,19.12,105.85,53.04c0.77,0.52,1.52,1.06,2.18,1.7
	c0.64,0.62,1.25,1.23,1.6,1.96c6.48,13.62,12.22,27.6,17.61,41.65l-1.61-12.28c-7.91-27-12.44-51.2-5.51-79.52
	c2.66-10.89,10.68-33.71,17.85-41.76c0.96-1.08,2.27-1.7,3.64-2.11V1096.18z"/>
<path class="st2" d="M1049.39,1134.5c45.45-2.47,95.18,8.02,123.74,42.59c0.64-0.65,1.5-0.61,2.58,0.11
	c7.59,9.19,15.19,18.38,22.78,27.56l1.51,4.84v26.82c-2.01,2.46-5.15,1.26-5.63-1.69l-2.3,1.23c-8.59-1.21-17.28-1.83-26.05-1.85
	l-1.53-2.21c-0.88,0.32-1.76,0.6-2.67,0.75c-0.88,0.14-1.74,0.26-2.53,0.1c-40.55-8.33-79.96-31.42-106.4-63.27l-1.48-4.95
	c-0.72,0.3-1.82,0.72-2.2,0.29c-2.78-3.2-19.65-24.74-19.93-26.67c-0.23-1.54,0-1.89,1.39-2.81c1.96-1.3,13.78-2.75,16.7-2.65
	L1049.39,1134.5z"/>
<path class="st5" d="M0,635.52V507.84c24.77,22.11,38.69,55.93,43,89.62c6.58,51.42,10.01,102.04,11.32,154.87
	c-10.26-7.22-19.57-12.81-27.96-20.38C20.15,726.34,12.23,647.97,0,635.52z"/>
<path class="st6" d="M43.04,949.45l-4.16,106.75c-6.69,17.19-3.56,37.37-3.85,55.07c-0.16,9.37-6.51,16.75-9.22,24.58l-2.07,1.05
	c-4.43-4.21-9.12-7.78-14.07-10.72l-0.7-2.11c-0.77-12.42-1.38-27.23-8.95-36.39V917.76c0.57-0.32,1.14-0.6,1.75-0.76
	c7.48-2.01,33.59,22,39.59,28.23L43.04,949.45z"/>
<path class="st4" d="M1200,1671.87l-76.8-0.11c-9.23-26.71-7.5-53.31,8.52-77.92c27.52-6.33,49.01-23.67,68.28-43.39V1671.87z"/>
<path class="st5" d="M1200,756.93c-22.21,20.17-37.21,44.83-53.8,71.85l-7.83-146.93c21.42,4.19,42.88-1,61.64-11.74V756.93z"/>
<path class="st5" d="M43.04,949.45C29.94,937.29,17.2,923.24,0,917.76V835.2c0.59-0.96,0.56-1.92,0-2.88v-70.08
	c14.43,11.77,27.23,27.47,37.71,43.81c7.67,11.96,7.74,26.8,7.45,40.71L43.04,949.45z"/>
<path class="st4" d="M1200,1236.41v105.39c-25.14-20.31-53.21-36.18-85.4-41.05c-15.47-28.26,19.05-57.51,45.97-40.97
	c0.5-3.89,1.42-7.66,2.76-11.32l2.35-0.4l0.15-2.57c7.7-4.84,16.46-6.92,26.28-6.23c0.33-2.24,1.09-3.75,2.26-4.53
	C1196.18,1235.43,1198.15,1235.81,1200,1236.41z"/>
<path class="st6" d="M1200,904.4v76.57c-18.15,27.4-27.76,61.68-21.1,94.66c3.57,17.68,11,33.74,8.01,52.82
	c-5.46-20.27-14.21-38.54-22.68-57.12c-2.91-49.17-8.05-98.53-7.29-147.7c-0.02-1.27,0.38-2.37,1.05-3.42
	c3.16-4.91,20.84-13.21,27-15.06c2.67-0.8,9.65-2.84,11.79-2.41C1198.03,902.99,1199.1,903.48,1200,904.4z"/>
<path class="st2" d="M170.81,1671.74l-102.58-0.19l-7.49-1.66c-17.48-8.11-39.92-17.84-58.05-6.78L0,1662.72v-4.8
	c5.26-0.73,10.56-4.86,15.06-8.74C66.72,1604.56,131.33,1623.41,170.81,1671.74z"/>
<path class="st2" d="M112.43,1287.17l2.39-1.35c2.17,0.63,16.37,6.32,16.98,7c1.33,1.47,1.62,2.2,0.73,4.13l-44.46,34.42
	c-20.79,14.83-46.94,21.79-72.33,19.26c-3.42,7.28-7.91,13.66-13.45,19.14L0,1368.96v-6.72c2.31-3.7,4.84-7.36,7.59-10.98
	l10.8-24.86c5.44-10.25,16.36-27.85,27.11-32.66c1.03-0.46,2.29-0.14,3.4,0.16l1.8-3.17c15.37-7.8,42.79-11.72,59.2-6.08
	L112.43,1287.17z"/>
<path class="st5" d="M1200,506.83v4.85l-13.13,32.37c-22.45,23.96-40.2,50.23-58.27,80c-1.63-28.06,4.84-54.58,15.13-79.54
	l17.18-41.68l2.73,0.01c9.25,8.45,22.91,8.89,33.76,3.25L1200,506.83z"/>
<path class="st5" d="M17.25,222.71c11.97,7.95,26.02,14.27,34.62,25.8c0.93,1.23,1.88,2.58,2.07,4.15
	c1.45,12.03-1.55,27.76-3.96,39.69c-3.57,13.44-6.26,27.01-8.09,40.72c-0.39,3.74-1.87,5.97-4.45,6.68
	c-0.06-0.25-0.03-0.53-0.1-0.78c-2.22-2.95-3.34-4.43-3.34-4.43c-7.68-29.54-18.3-57.89-31.84-85.06L0,241.92v-24.96
	C5.57,217.55,12.33,219.44,17.25,222.71z"/>
<path class="st5" d="M1200,648.79c-16.7,10.8-35.11,15.5-53.02,6.43c9.45-36.3,29.87-68.22,53.02-97.53V648.79z"/>
<path class="st5" d="M1200,904.4c-16.68,1.03-30.63,8.37-43.06,19.24c-10.48-38.49,21.12-83.02,43.06-112.52V904.4z"/>
<path class="st4" d="M48.9,1293.9c-15.57,9-26.15,25.96-32.72,42.05c-4.21,10.29-7.21,21.25-16.17,26.29v-45.12l6.96-29.44
	c12.09-12.11,28.01-18.99,41.81-27.94c0.52,0.66,1,1.34,1.37,2.08c1.7,3.4,1.95,26.74,0.2,30.02
	C49.95,1292.58,49.44,1293.25,48.9,1293.9z"/>
<path class="st5" d="M8.39,384.66c0.31-1.25,1.96-1.01,2.25,0.35c0.28,0.04,0.64,0.54,0.7,0.8c5.39,25.92,16.96,78.01,14.44,103.49
	c-10.32-1-16.95-12.87-25.77-16.02v-88.32C2.8,385,5.61,384.23,8.39,384.66z"/>
<path class="st2" d="M1200,466.57v40.27c-12.34,7.32-28.85,6.86-39.09-4.01c-6.84-7.26-7.64-18.38-6.97-27.5
	C1168.51,470.14,1184.45,467.08,1200,466.57z"/>
<path class="st1" d="M37.33,338.97C25.51,335.02,9.08,313,0,310.08v-68.16C17.6,271,27.33,305.83,37.33,338.97z"/>
<path class="st6" d="M1200,1166.38v12.77l-2.49,1.5c-7.22-1.84-14.51-2.79-21.89-2.84l-2.29-1.72c-2.94-13.8-5.03-28.21-4.1-42.29
	c3.93,1.85,7.73,2.11,11.04,6.49L1200,1166.38z"/>
<path class="st4" d="M68.23,1671.55L0,1672.32v-9.6C18.68,1647.83,49.93,1661.89,68.23,1671.55z"/>
<path class="st4" d="M0,1638.72v-53.76C19.66,1598.75,12.81,1624.77,0,1638.72z"/>
<path class="st4" d="M1200,1179.14v30.45l-26.87-32.51c-0.01-0.31,0.26-0.69,0.2-1C1182.43,1174.99,1191.07,1177.62,1200,1179.14z"
	/>
<path class="st1" d="M3.93,365.87c-1.96-0.66-2.82-2.72-2.58-6.2L0,356.16V336c9.87,4.75,17.48,14.1,25.64,22.54
	C17.68,362.11,11.03,365.42,3.93,365.87z"/>
<path class="st6" d="M1200,1150.21c-14.56-15.87-6.51-35.42,0-54.02V1150.21z"/>
<path class="st4" d="M0,1242.24v-63.36c5.9,3.96,4.44,14.63,6.89,22.08C4.34,1215.21,5.18,1230.06,0,1242.24z"/>
<path class="st7" d="M0,835.2v-2.88c2.13,0.09,5.67,1,6.75-1.17l3.02-6.04c1.21,4.55,2.85,6.61,7.48,8.91
	c-5.18,1.28-6.59,2.96-8.35,7.49c-1.49-2.98-1.07-5.15-3.46-5.82C3.63,835.18,1.79,834.92,0,835.2z"/>
<path class="st5" d="M3.93,365.87c-1.04,0.83-2.45,1.84-3.93,1.81v-11.52C3.58,357.5,3.13,362.48,3.93,365.87z"/>
<path class="st8" d="M358.85,129.06c1.74,2.6,3.48,5.27,4.42,8.27c12.38,39.53,18.86,85.49,21.71,126.81
	c4.54,65.93-1.05,130.46-14.15,194.95c45.89-102.05,56.23-215.41,41.86-324.54c-0.36-2.08,0.42-3.89,1.85-5.45l71.14,0.23
	c0.75,1.41,1.47,2.83,2.05,4.3c0.58,1.47,1.13,2.92,1.39,4.42c14.14,82.96,10.71,173.78-10.76,254.53
	c41.31-78.77,49.22-171.1,44.88-259.44l1.02-4.04l66.32-0.01l1.92,0.67c0.25,84.81,0.5,169.64,0.75,254.48l-1.92,1.19l-2.9,1.89
	c-42.64,1.4-93.9,41.65-112.86,78.53c-1.95,3.8-3.56,7.17,1.33,9.18l1.1,1.92c5.86,0,7.93,12.96,0.18,8.12
	c-8.48-9.33-16.27-19.22-23.37-29.69c-5.63-8.42-12.62-14.99-20.97-19.71c-0.47,7.13-1.02,14.26-1.63,21.4l0.78,9.31
	c1.45,3.94,1.75,7.51,0.88,10.72c0.1,2.41-1.78,2.36-5.61-0.15c1.85,9.61,3.74,19.25,7.59,28.32l-1.02,2.68
	c0.34,1.36,0.09,1.88-0.76,1.56c-0.05,3.47,0.65,6.8,2.1,9.99l-1.06,0.88l-0.87,4.25c-61.04,120.05-85.24,257.2-81.82,391.21
	c3.04,118.93,25.88,230.31,86.79,333.62c23.67,40.15,61.35,85.81,100.6,110.54c15.02,9.46,31.59,16.78,49.39,18l3.05,2.05l1.48,3.15
	l-1.16,17.93l0.01,269.39l-1.92,1.2l-70.09,0.01c-1.19-3.66-2.29-7.38-2.69-11.21c-4.72-44.6-9.39-86.75-18.7-130.83
	c-9.42-44.62-21.91-88.59-37.08-131.53c20.86,87.71,35.67,178.08,30.88,268.41l-1.49,5.19l-93.9-0.01l-1.29-3.53
	c-1.88-41.57-8.35-82.74-18.17-123.23c1.38-33.42,4.84-66.72,10.38-99.91c22.76-143.17-10.64-293.4-95.38-412.73l37.5,101.05
	c34.48,101.87,49.89,211.26,31.11,317.66c-3.94,13.06-4.86,10.61-8.36-2.82c-18.44-78.12-35.47-156.54-51.11-235.27
	c-8.14-35.53-17.18-70.83-27.13-105.88l-0.53-5.98c-0.85-0.17-1.17-1.06-0.97-2.67l-0.86-1.3c-0.54-1.69-1.04-3.39-1.41-5.11
	c-0.37-1.72-0.73-3.42-0.77-5.13c-2.1-84.64,0.55-167.91,13.54-252.43c6.86-45.61,12.74-90.62,18.54-135.86
	c0.37-2.9,1.47-5.64,2.61-8.31c0.5-6.83,2.85-13.89,2.9-21.27c-2.25-1.21-1.95-3.04-1.57-5.25c0.27-4.4,0.84-12.03,3.99-14.61
	c10.03-4.15,18.03-11.92,24.14-22.15c21.81-36.55,27.94-83.51,13.79-124.12c-9.74-27.97-29.16-49.04-50.57-68.21
	c-6.83-6.11-14.07-11.18-17.62-18.96l4.09,0.34c0,0,9.37,4.61,28.1,13.84l2.52,3.2c2.15-0.59,3.83,1.69,4.49,3.5
	c1.24-1.86,3.52-2.44,6.84-1.75c2.72-0.08,5-0.54,6.42-3.01c5.65-9.88,9.08-25.56,9.2-36.93l1.73-2.3l0.06-11.86
	c5.93-36.6,9.36-73.99,4.4-110.9l1.04-5.99c-3.25-0.42-4.37-9.37-1.87-11.43c-0.8-0.16-1.53-0.49-2.05-1.13
	c-0.41-0.5,0.01-11.95,2.28-12.04c0.21-2.14-0.09-3.86-0.88-5.15l-2-3.33c-0.81-7.15-0.6-16.6,0.97-23.5
	c-0.47-0.01-0.92-0.05-1.31-0.23c-0.83-0.36-1.65-6.17-1.38-7.44c-2.41-1.05-2.44-1.69-0.14-2.96c4.74-7.88-6.35-55.66-6.98-67.56
	L358.85,129.06z"/>
<path class="st3" d="M657.42,129.1c1.37,4.4,2.05,6.6,2.05,6.6c1.26,61.92,2.63,125.11,21.47,184.68
	c8.78,27.75,22.26,52.97,39.85,75.99c-15.9-33.33-27.16-66.9-29.93-103.66c-3.81-50.57,1.8-104.24,7.35-155.26
	c0.15-1.41,0.58-2.8,1.03-4.2c0.45-1.41,1.03-2.79,1.65-4.15c3.67,0,7.71-0.03,11.41-0.03c1.91,6.9,2.87,10.34,2.87,10.34
	c9.37,142.09,38.81,283.7,95.58,414.09c16.95,34.44,32.4,69.25,46.35,104.43l5.08,18.15c-11.79,32.01-23.34,63.85-29.32,97.32
	c-6.37,35.61-0.72,70.44,12.82,103.38c28.36,62.92,46.58,126.37,45.91,197.29c-0.55,57.92-11.43,113.39-35.81,166.18
	c-29.69,56.65-47.95,117.58-50.44,181.67c-3.1,79.59,9.05,160.06,21.49,238.59c0,0-0.03,3.73-0.08,11.2l-77.84,0.02
	c-0.71-1.46-1.38-2.93-1.91-4.44c-0.53-1.5-1.04-2.99-1.25-4.51c-13.68-101.22-2.93-202.1,20.56-301.04
	c-40.84,97-60.74,200.26-68.65,304.86l-1.65,5.16l-105.37-0.04l-0.01-268.95c0-8.32,0.45-15.48,1.61-22.72l3.09-2.48
	c46.54-10.7,86.5-49.08,113.78-87.06c65.09-90.61,96.99-206.39,108.29-316.88c15.27-149.26-5.5-304.8-69.8-440.91l-0.91-4.57
	l-1.16-1.76l1.95-6.41c-3.97,4.2-8.28,7.99-12.92,11.37c-3.56,1.91-8.33,3.52-7.29-2.04c20.22-25.43,30.36-58.29,20.74-90.07
	l-0.12-5.4c-14.72,21.38-22.08,32.07-22.08,32.07l-7.63,7.38l-3.05-0.17l-3.32-1.54c-27.69-39.37-67.25-78.69-117.29-84.06
	l-3.19-2.08l-0.76-256.34L657.42,129.1z"/>
<path class="st9" d="M772.84,129.1l0.29,84.73c0.28,79.74,15.91,158.58,44.09,234.62c9.51-55.23,6.18-97.69,45.39-141.07
	c-12.25,32.47-25.84,61.1-25.21,94.67c15.16-43.53,46.21-82.05,90-101.15c-44.65,35.38-77.17,78.11-89.46,133.05
	c-14.91,66.68-4.86,134.74,22.92,196.83c3.27,7.3,10.74,33.72,23.95,36.3c2.93,0.57,3.9-2.7,6.24-3.9l0.56-2.39l10.5-4.26l2.21,0.87
	c-4.31,9.92-10.74,19.19-17.89,28.61c-24.13,31.79-41.05,69.52-41.02,110.63c15.16-40.02,36.68-76.86,77.23-91.91
	c-55.95,40.19-90.32,118.14-54.24,180.87l37.83,69.7l2.02,0.63c2.24,16.81,4.49,33.63,6.74,50.45l-1.75,1.4
	c0.49,2.31,0.96,4.7,1.39,7.15c2.68,1.28,2.66,3.86,0.2,5.38c-0.33,2.63-0.04,4.97,0.89,7.05c2.84,4.09,3.65,12.62,1.06,16.92
	l0.27,5.01c2.84,0.84,2.79,3.16-0.12,3.84c-0.53,7.39-1.35,14.8-2.45,22.22c-4.68,70.71-29.43,141.45-55.49,208.2
	c-46.75,124.6-20.37,257.12,10.74,382.79l0.1,5.4l-43.08-0.03c-12.77-76.18-23.8-152.72-23.76-230.57
	c0.03-64.56,14.11-126.96,42.95-184.62c28.27-56.53,43.59-115.96,43.74-179.38c0.4-175.71-82.02-197.48-56.41-316.1
	c6.3-29.19,16.6-56.64,27.06-85.06c-5.76-23.75-15.68-45.14-26.13-67.4c-19.43-41.38-39.23-82.19-53.24-125.83
	c-13.06-40.67-26.52-80.32-35.67-121.92c-6.99-31.76-13.11-62.67-18.31-94.85c-7.39-45.75-10.47-91.32-14.68-136.88L772.84,129.1z"
	/>
<path class="st2" d="M1059.05,129.1c-2.27,16.68-18.62,25.99-35.94,21.19c-3.48,33.71-62.49,85.45-88.81,99.51
	c-5.69,0.54-11.73-6.81-15.02-11.39c-8.03-11.2-8.72-23.85-5.91-36.98c-4.32,4.2-8.45,8.61-12.4,13.23l-2.29-0.58
	c0.59,2.75-2.39,5.68-4.9,3.84c0.25,4.09-7.27,7.41-10.99,8.87c-15.62,6.15-28.98-0.91-33.78-16.39
	c-0.34-27.24,3.72-54.16,5.57-81.28L1059.05,129.1z"/>
<path class="st9" d="M414.54,129.11c-0.14,12.04,1.81,23.41,3.08,36.15c10.46,104.89-4.95,210.21-50.8,306.86
	c7.41-43.52,15.38-85.41,17.22-129.47c3.01-72.34-4.44-144.83-25.19-213.59L414.54,129.11z"/>
<path class="st9" d="M700.89,129.11c-3.09,35.55-7.74,70.65-8.8,106.99c-2.25,77.37,4.45,104.68,37.38,174.39
	c-17.9-21.12-31.35-43.19-42.44-67.29c-27.23-68.24-28.19-142.2-29.61-214.1L700.89,129.11z"/>
<path class="st9" d="M524.25,129.12c3.82,56.74,2.46,113.26-10.48,169.37c-8.46,36.73-19.31,73.02-40.26,105.66
	c7.11-28.46,13.97-53.73,17.12-81.8c7.17-63.97,6.35-129.9-4.95-193.01L524.25,129.12z"/>
<path class="st9" d="M824.81,129.11l-14.35,90.88c-6.47,35.19-4.99,69.27-4.74,105.52c-11.14-65.04-8.54-132.26,1.48-196.37
	C812.92,129.14,819.08,129.11,824.81,129.11z"/>
<path class="st9" d="M397.56,1671.76l-116.52-0.06c-0.21-3.42-0.4-6.9,0.22-10.29c23.97-105.25,30.24-209.41,19.85-316.72
	c-5.32-54.93-11.66-109.79-18.98-164.42c-3.16-15.75-5.64-31.59-7.46-47.51c-2.59,0.31-2.69-0.6-0.4-1.86
	c-2.87-7-3.44-16.51-1.34-23.78c0.78-1.61,1.01-3.38,0.68-5.31l0.93-0.7c37.87,119.64,50.63,235.82,83.67,358.1
	c11.82-60.78,12.27-121.25,4.35-181.41c-6.13-49.36-18-96.76-33.8-143.77l-42.3-114c41,53.66,69.43,113.46,87.79,177.28
	c29.81,103.62,27.16,169.87,12.5,275.22c-3.41,24.51-6.88,47.48-6.77,72.23C389.8,1586.89,397.6,1629.12,397.56,1671.76z"/>
<path class="st3" d="M916.91,1053.12c0.74,0.42,0.7,0.74-0.11,0.96c0.75,2.1,1.3,4.41,1.66,6.93c2.77,0.85,3.22,8.33,0.32,9.19
	c-0.25,1.3-0.03,2.4,0.64,3.29c3.02,0.41,3.26,8.65,0.43,9.58c0.55,1.17,1.05,2.36,1.42,3.58c0.37,1.22,0.72,2.41,0.75,3.61
	c0.41,16.95-0.15,33.89-1.18,50.81c-6.29,76.3-8.24,153.94-4.01,230.83l-0.8,6.56l1.34,3.39c2.24,26.19,4.87,52.33,7.91,78.42
	l-0.8,3.57l-29.62-4.88l-2-6.29c-5.81-49.09-9.75-98.37-11.83-147.84c-5.81,48.74-5.28,97.88-3.54,146.8l-0.92,5.34
	c-3.43-0.85-7.46-0.37-12.46-0.33l13.27,17.72c3.12,17.43,5.15,35.05,6.08,52.87c4.85,44.69,12.23,86.93,20.08,131.05
	c0.79,4.43,0.89,8.94,0.87,13.43l-34.6,0.02c-17.95-67.65-32.5-136.22-37.44-206.61c-4.88-69.58,6.13-136.79,31.95-201.25
	c19.39-48.41,34.26-98.01,43.87-149.14C912.22,1093.34,910.8,1072.16,916.91,1053.12z"/>
<path class="st3" d="M281.04,1671.7l-52.49,0.05c26.48-98.65,39.58-199.94,44.06-301.8l27.6-2.01
	c-8.15-6.75-17.14-14.38-26.79-17.25c-0.73-2.02-1.47-4.12-1.44-6.3c0.32-23.69,0.68-47.54,1.17-71.13l1.32-3.08l-1.18-7.27
	c-1.09-41.01-1.09-82-0.02-122.98l1.39-7.17c15.44,63.66,18.48,130.6,26.59,196.54C316.32,1451.67,306.66,1552.47,281.04,1671.7z"/>
<path class="st9" d="M748.9,1671.72l-52.9,0.03c4.64-66.62,13.05-133.29,30.5-198.46c12.23-45.66,28.57-89.6,46.82-133.69
	C745.62,1456.5,732.06,1553.08,748.9,1671.72z"/>
<path class="st9" d="M901.48,1500.44l2.67,4.02c4.75,26.67,9.5,53.33,14.24,79.96l-1.69,1.48c-3.28-0.01-7.52,3.25-10.77,4.23
	l15.61,14.13c1.51,2.78,2.96,5.63,3.74,8.71c4.17,16.46,8.39,32.87,12.64,49.31c0.8,3.08,0.88,6.28,0.88,9.44l-34.39-0.02
	c-14.11-65.2-23.23-130.78-27.04-197.35C886.85,1481.28,892.11,1493.03,901.48,1500.44z"/>
<path class="st9" d="M520.54,1671.73l-29.09,0.04c4.55-103.03-12.91-203.2-38.8-303.88C490.94,1465.02,514.16,1569.6,520.54,1671.73
	z"/>
<path class="st4" d="M1112.68,1671.77l-19.14-0.06l-6.99-1.71c-28.83-14.59-63.98-15.89-92.66-0.28l-6.94,1.98l-25.01,0.01
	l-2.01-0.43c-4.08-16.7-8.1-33.43-12.07-50.18l1.6-1.56c34.8,15.69,71.67,21.17,109.64,9.49
	C1081.01,1637.45,1102.11,1651.51,1112.68,1671.77z"/>
<path class="st3" d="M949.47,1619.55l12.48,52.17l-23.15,0.02c-6.96-22.19-12.79-44.65-17.26-67.46
	C931.78,1606.78,939.89,1615.22,949.47,1619.55z"/>
<path class="st2" d="M1093.54,1671.71l-106.58-0.01C1018.26,1650.78,1061.61,1652.41,1093.54,1671.71z"/>
<path class="st5" d="M305.23,690.31c-2.51,33.96-8.32,67.36-13.32,101.77c-8.29,57.02-15.14,113.25-18.74,170.78
	c-2.83,45.17-1.56,89.72-0.44,134.29c1.48,2.46,1.37,7.3,0.21,9.97c0.94,7.91,1.42,15.81,1.34,23.78c-0.83,3.15-2.94,2.36-5.4,1.06
	c-12-10.16-25.98-11.53-40.31-5.65c-7.65,4.97-11.01,4.95-10.07-0.05c11.74-26.85-7.3-74.91-41.09-58.77
	c-5.64,5.22-8.87,5.66-9.68,1.29c-1.76-14.82-6.7-30.6-20.72-37.92l-1.13-2.68c0.68-9.21-2.07-25.87-0.86-34.39
	c-0.29-3.08-0.1-5.79,0.58-8.13l0.07-98.62c0.02-28.53,6.13-55.8,22.68-79.74c18.62-26.95,37.66-55.28,62.11-77.37
	C251.87,710.58,280.18,702.08,305.23,690.31z"/>
<path class="st6" d="M274.28,1130.9c-0.01,0.6,0.26,1.28,0.4,1.86c-0.81,45.46,0.56,91.48-0.2,137.41l-2.81,1.57
	c-12.72-1.58-24.5,2.95-34.5,10.68c-2.63,0.83-2.89-0.26-3.46-2.88c7.05-30.11-7.87-74.35-43.87-47.29
	c-3.5,0.62-6.86-0.36-10.07-2.93c-10.58-8.79-22.07-15.36-34.49-19.7l-1.24-2.15l-1.92-0.88c-0.08-16.69-0.15-33.41-0.23-50.16
	l1.88-8.46l9.81-40.76c-1.83,0.67-5.84,0.68-7.79,0.85c0.64-26.73-1.84-53.53,0.1-79.89c15.91,7.08,22.05,23.39,24.04,42.89
	c11.13-11.24,25.15-12.38,37.46-2.2c17.28,14.28,20.11,38.39,12.09,60.48c15.29-11.05,34.97-11.57,48.94-0.08
	C270.36,1130.87,272.18,1131.69,274.28,1130.9z"/>
<path class="st5" d="M278.46,514.46c9.45,15.51,18.82,32.53,22.78,50.67c-9.65,11.4-14.86,26.04-26.55,37.76l11.1-65.82
	c-23.88,63.57-15.92,68.37-51.89,128.96c-25.21,42.47-53.56,81.22-93.11,113.47l-1.95-59.5c-0.81-24.67,0.56-48.48,6.64-72.4
	c2.89-11.37,9.92-20.4,18.13-28.91c27.28-28.29,48.96-59.22,68.71-92.64c3.67-1.97,7.97-2.93,12.9-2.86
	c13.57-3.59,20.35-5.39,20.35-5.39C269.98,515.31,274.28,514.2,278.46,514.46z"/>
<path class="st5" d="M96.03,382.21l1.66,3.85c-2.11,41.05,12.82,84.3,47.24,108.69l2.02,3.66l-29.32,92.17
	c-20.46-70.78-37.84-140.36-50.57-211.21C76.71,379.58,86.4,381.96,96.03,382.21z"/>
<path class="st7" d="M101.53,382.35c0.98,0.61,2.06,0.87,3.25,0.78c1.14-0.08,2.33,0.36,3.48,0.18c1.11,0.36,2.21,0.82,3.32,1.38
	c24.44,3.53,48.66,14.18,68.94,28.27c-11.4,25.71-22.87,51.42-30.87,78.41c-0.62,0.58-0.97,1.28-1.03,2.09
	c0.04,0.54-0.16,1.13-0.09,1.67c-0.36,0.91-0.86,1.68-1.5,2.32l-0.07,0.96c-37.51-23.96-54.56-72-50.93-116.2L101.53,382.35z"/>
<path class="st7" d="M252.6,478.05c0.22,0.81-1.05,1.37-1.52,0.95c-0.45-0.4-0.22-2.81-2.38-3.3l-30.89,49.51
	c-1.38,1.58-2.62,1.86-4.45,2.09c-9.69,1.21-33.28-5.57-42.37-9.94l-2.11-2.85c8.06-30.23,18.33-60.54,29.27-90.18
	C219.09,438.17,238.88,456.99,252.6,478.05z"/>
<path class="st5" d="M304.08,573.03c0.09,2.77,2.74,7.52,2.39,9.48c0.52,0.91,0.98,2.02,1.39,3.33c3,21.1,4.58,42.08,2.68,63.33
	c-0.57,6.38-2.39,13.77-2.42,19.86l-70.64,24.52C257.35,650.08,279.79,610.71,304.08,573.03z"/>
<path class="st5" d="M217.81,525.22c-17.6,28.21-39.28,54.73-67.27,75.5c3.43-30.47,10.98-58.6,18.34-86.2
	C184.61,520.47,200.92,526.47,217.81,525.22z"/>
<path class="st4" d="M31.68,1144.28l13.35,20.36c-21.86,27.09-31.87,59-37.9,93.48c0.58-33.31,7.37-86.73,21.67-114.68
	C29.64,1140.83,31.76,1141.58,31.68,1144.28z"/>
<path class="st7" d="M278.46,514.46c-14.53,6.81-30.03,11.74-46.15,11.59c8.37-14.17,12.25-31.68,22.35-45.15
	C266.36,487.8,271.75,503.44,278.46,514.46z"/>
<path class="st6" d="M31.68,1144.28l-2.87-0.83c1.48-5.57,1.77-11.81,5.5-16.56C34.05,1132.52,35.01,1139.83,31.68,1144.28z"/>
<path class="st6" d="M145.61,985.66c0,2.7,1.33,5.89-0.58,8.13C145.35,991.56,141.39,986.73,145.61,985.66z"/>
<path class="st6" d="M1049.39,1134.5c-6.43,0.35-11.73,0.86-19.01,2.78l21.03,27.26l1.84,5.14l-1.97,124.86
	c0.56,3.37-0.11,5.47-2.02,6.29c-0.41,0.51-1.24,0.48-1.74,0.81c-1.47,0.28-2.85,0.36-4.14,0.23c-1.41,0.34-2.98,0.05-4.41,0.19
	c-0.67,0.52-1.46,0.98-2.38,1.39c-0.79,7.32,10.26,11.79,13.02,19.43l2.04,4.24c0.45,16.3,0.89,32.59,1.34,48.89l-1.85,2.54
	l1.5,1.58c-2.25,9.26-4.58,11.28-6.97,6.09c-8.36-32.7-26.76-61.14-50.5-86.81c-10.94,33.89-15.03,68.54-10.29,103.02
	c-2.44,3.61-7.02,0.1-9.1-2.65c-3.87-13.14-22.6-19.79-34.68-23.16c-3.54-0.99-4.52-0.85-7.37,1.41l-6.95,7.1
	c-5.17,4.97-8.64-2.09-10.74-6.67c-5.3-68.99-4.18-138.52,0.88-208.07c2.17-29.78,4.23-58.31,2.94-87.31l1.17-2.32
	c13.7-3.78,25.79-6.53,38.32,1.89l16.29,15.01c-3.65-24.26,3.18-47.63,20.17-65.4c9.8-10.26,32.22-24.45,46.56-24.69
	c1.19-0.02,2.26,0.74,3.19,1.42c2.1,4.16,4.29,8.27,4.41,15.17C1050.61,1060.96,1050.65,1097.9,1049.39,1134.5z"/>
<path class="st5" d="M911.07,782.21c25.26,22.09,42.63,53.19,55.58,84.59c4.77,11.58,6.79,23.48,13.11,34.08
	c21.73,36.46,46.93,70.7,65.81,108.1c-45.43,6.69-78.51,47.75-66.41,94.55l-19.64-18.22c-10.72-9.95-26.29-5.99-39.66-2.24
	l-0.43-9.58c-0.89-0.56-1.1-1.66-0.64-3.29c-0.05-2.67-0.42-6.41-0.32-9.19c-0.34-2.4-0.89-4.71-1.66-6.93
	c-0.05-0.3,0.06-0.66,0.11-0.96c0.21-1.27,0.28-2.56,0.12-3.84c-0.49-1.66-0.58-3.33-0.27-5.01c-0.45-5.64-1.16-11.26-1.06-16.92
	c-1.02-1.99-1.32-4.34-0.89-7.05c-0.35-1.55-0.09-3.75-0.2-5.38c-0.42-2.35-0.89-4.73-1.39-7.15l-7.01-52.48
	c-5.41-40.48-13.57-80.6-16.28-122.14C888.7,814.14,901.62,796.86,911.07,782.21z"/>
<path class="st5" d="M1034.92,662.25c7.62,17.97,12.07,36.3,12.88,56.76c2.71,69.37,3.9,137.96,3.4,208.87
	c-17.17-19.4-33.1-38.25-46.34-59.69c-8.45-13.7-10.12-28.9-12.17-44.72c-5.26-41.47-9.41-82.46-18.45-122.82
	C988.39,681.78,1012,667.05,1034.92,662.25z"/>
<path class="st5" d="M958.1,719.12c8.32,14.87,8.11,64.18,8.65,84.57l-40.15-45.54c8.78-13.61,18.12-27.29,29.52-39.12
	C957.2,718.04,957.84,717.51,958.1,719.12z"/>
<path class="st1" d="M1164.49,1231.9l2.1,0.91c-0.22,4.57-0.07,9.08,0.46,13.53l-1.37,1.72c-2.29,3.97-2.57,9.9-3.88,15.12
	c-11.5-7.69-23.31-8.82-34.15-1.65c-9.78,6.48-17.79,17.6-14.41,30.29c0.84,3.14,3.57,5.99,1.35,8.93
	c-21.68-3.28-43.63-0.06-65.34,0.08l2.15-136.3C1078.62,1199.79,1119.81,1222.81,1164.49,1231.9z"/>
<path class="st4" d="M939.92,1579.3l-2.05-0.51c-3.36-17.59-6.72-35.19-10.08-52.79l1.67-1.48c27.29,16.2,56.09,22.47,88.36,23.9
	c29.73,1.32,60.15,17.99,80.37,39.73c6.1,20.04,9.2,41.71,11.07,63.59c-19.37-14.99-30.15-35.71-48.4-50.52
	C1026.91,1573.67,981.36,1569.86,939.92,1579.3z"/>
<path class="st4" d="M1045.66,1386.22c0.87,0.07,0.95,0.91,2.21,2.05l3.26-9.71l1.15-2.88c20.9-12.08,31.35-18.12,31.35-18.12
	l2.18,0.96c3.03,2.98,12.69,7.04,9.52,13.17c-19.31,27.28-30.39,57.11-31.52,90.73c-1.9,56.8,25.38,62.9,30.29,113.76
	c-41.53-40.8-49.24-13.37-57.88-88.5C1051.37,1455.97,1054.14,1419.4,1045.66,1386.22z"/>
<path class="st4" d="M986.96,1414.82c9.19,29.03,22.1,54.96,45.71,75.46c1.99,11.2,5.33,21.47,4.39,33.65
	c-30.88-33.93-69.39-48.34-110.52-59.92c-2.72-5.53-0.08-13.17,2.29-18.82c9.23-22.06,32.66-31.96,55.44-32.28L986.96,1414.82z"/>
<path class="st1" d="M984.88,1402.43c0.48,3.5,1.34,9.05,2.08,12.39c-30.99-0.31-58.47,15.52-60.42,49.19
	c-0.62-0.17-1.42-0.07-2.05-0.17c-3.85-28.32-8.06-56.78-8.45-85.38c3.09,0.71,4.03,4.32,7,6.96c3.23-1.8,6.35-5.56,8.53-7.94
	c5.51-6.01,9.7-2.61,15.5-0.65C988.78,1390.95,968.5,1400.47,984.88,1402.43z"/>
<path class="st9" d="M894.86,1458.96c-6.13-1.01-12.15-0.46-18.3-1.99c-4.05-57.89-2.9-115.63,5.21-173.35
	C885.12,1343.71,888.21,1401.07,894.86,1458.96z"/>
<path class="st3" d="M929.46,1524.52l10.46,54.78c-7.64,1.74-15.11,6.64-23.22,6.61l-15.22-85.47
	C911,1507.98,920.93,1515.93,929.46,1524.52z"/>
<polygon class="st1" points="1085.81,1358.51 1051.13,1378.56 1049.61,1322.89 "/>
<path class="st4" d="M1047.53,1301.65c-0.57,0.38-0.91,1.09-1.65,1.07c-0.86-0.02-2.36,0.28-2.49-0.84
	C1040.67,1302.53,1047.97,1299.22,1047.53,1301.65z"/>
<path class="st5" d="M968.56,314.77c1.97,1.1,4.31,0.43,6.85,3.27c-11.15,4.37-18.05,12.05-19.87,22.37
	c-1.89,10.72,2.03,23.26,12.22,28.25c11.23,5.51,23.18-0.8,32.74-8.46c3.35,6.08,3.93,12.53,5.81,18.85
	c-16.26,17.05-17.26,42.75-1.89,60.31c12.76,14.57,27.16,9.33,39.83,0.04l1.94,0.86c0.4,20.1,0.81,40.22,1.21,60.34l-1.87,2.57
	c-21.37,23.88-40.74,48.74-59.37,74.98l-2-0.34c-10.87-66.3-22.32-133.52-34.35-201.64c-1.89-11.52-3.62-23.06-5.11-34.64
	c-0.21-1.64-0.1-3.34,0.02-5.04c0.12-1.72,0.38-3.42,0.69-5.13C952.4,324.98,961,320.16,968.56,314.77z"/>
<path class="st5" d="M964.19,606.78c-17.39,19.94-38.23,35.36-59.87,50.62c-3.8,2.68-9.17,3.68-13.27,5.78
	c-13.99-55.61-33.11-161.23-24.85-215.93c4.01,2.89,6.94,7.16,8.79,12.83c8.12,20.05,16.48,39.97,25.07,59.73
	c12.01,20.69,26.8,39.63,44.39,56.83c7.04,8.03,13.61,16.46,19.25,25.53c0.36,0.58,0.45,1.34,0.54,2.14
	C964.32,605.12,964.27,605.94,964.19,606.78z"/>
<path class="st5" d="M904.14,371.42c2.52,3.12,3.78,4.68,3.78,4.68c9.44,26.65,20.52,52.68,34.53,77.21
	c20.45,36.4,27.68,76.5,24.69,117.96c-0.17,1.26-0.44,2.31-1.05,2.58c-2.95,1.3-23.82-17.25-27.96-21.07
	c-13.19-12.16-25.19-25.63-34.04-41.33l-35.87-65.73c-0.33-1.08-0.07-2.17,0.47-3.14C869.81,417.42,886.1,389.33,904.14,371.42z"/>
<path class="st1" d="M945.39,331.36c4.91,43.08,13.81,85.25,21.04,128.6l19.72,118.19c-7.21,10.16-14,19.48-21.97,28.62
	c-10.67-18.79-26.5-34.68-41.34-51.19c-35.45-39.46-32.79-65.66-56.65-108.33c0.28-1.84,1.14-3.35,2.49-4.67l35.98,65.97
	c14.24,26.11,36.68,46.1,60.93,64.19c0.81-56.35-3.22-77.24-28.45-125.51c-14.21-24.4-23.42-49.92-33.01-75.81
	c2.52-2.51,3.91-7.6,7.74-8.75l2.26,2.21c8.46,19.24,18.55,37.56,30.28,54.97c-2.25-26.78-4.39-53.51-6.42-80.19l1.58-2.69
	C940.68,334.6,943.52,333.07,945.39,331.36z"/>
<path class="st5" d="M893.78,217.91c1.1,0.42,2.33,0.91,2.93,1.93c4.6,7.7,8.68,37.12,9.94,47.44l-1.21,3.36L866.8,299.2
	c-19.37,2.28-17.65-78.25-17.79-88.81c5.61,7.33,10.51,15.37,19.54,16.59C878.04,228.26,886.69,223.46,893.78,217.91z"/>
<path class="st5" d="M939.59,336.98l7.3,89.45c-14.74-19.57-26.15-41.26-35.01-63.76C918.15,351.84,930.11,345.35,939.59,336.98z"/>
<path class="st5" d="M934.3,249.8c-5.12,5.15-11.59,10.62-18.38,14.19c-0.63,1.35-2.33,1.25-3.03,0.05l-2.09-0.32
	c-4.5-15.81-9-31.62-13.5-47.44l1.37-2.2c6.1-4.78,9.21-13.08,18.39-16.99C909.15,219.43,915.62,237.69,934.3,249.8z"/>
<path class="st4" d="M912.89,264.04c-0.4,4.23-5.45,5.11-7.46,6.6c-4.22-17.64-4.36-37.02-11.66-52.72l4.9-3.84L912.89,264.04z"/>
<path class="st1" d="M1120.48,428.31c-15.91,55.5-29.81,43.51-74.96,74.86l-1.28-63.77c1.82-3.07,5.34-7.15,9.61-8.58
	c-3.16,18.75,8.1,39.35,24.59,37.41c11.98-1.41,24.87-10.46,30.77-21.2c4.77-8.67,0.2-18.54-0.3-27.67
	C1114.41,419.16,1118.03,424.39,1120.48,428.31z"/>
<path class="st5" d="M1153.83,457.05c-7.03,5.32-17.14,5.66-26.87,8.4l13.91-38c6.76,1.46,9.96-5.17,17.32-9.47
	C1156.52,431.75,1152.02,443.9,1153.83,457.05z"/>
<path class="st5" d="M1047.18,616.08l-28.77,1.52c4.81-22.94,14.19-45.22,27.1-64.5C1048.71,573.78,1046.11,595.08,1047.18,616.08z"
	/>
<path class="st5" d="M1146.3,478.05c-3.86,18.53-14.57,34.21-23.48,52.52l-0.45-43.72C1130.19,483.58,1138.33,480.88,1146.3,478.05z
	"/>
<path class="st7" d="M343.69,392.61c1.48,13.06-4.16,28.21-9.06,39.71c-2.58,6.05-10.77,4.14-15.14,4.27
	c-5.04-1.3,6.07-11.67,5.56-11.17l-7.74,8.02L315,433.1c-11.4-5.01-24.13-10.3-34.71-17.38c-19.26-12.88-38.47-26.05-55.88-41.12
	c-0.11-0.76-0.18-1.51-0.12-2.25c0.06-0.71,0.14-1.39,0.46-1.92c13.22-22.2,42.8-52.34,63.97-67.27c0.5-0.36,1.16-0.5,1.86-0.62
	c0.73-0.12,1.48-0.12,2.24-0.08c0.67-0.18,1.35-0.31,2.02-0.32c8.93-0.13,28.18,26.04,32.78,34.11
	C337.03,352.73,344.78,373.54,343.69,392.61z"/>
<path class="st5" d="M269.78,209.53c0.26,1.02,0.47,2.04,0.55,3.07c0.07,1.02,0.13,2.01-0.11,2.92
	c-5.32,20.3-13.15,40.31-20.8,59.73l-2.12,2.3l-4.13,1.05c-33.67-6.93-70.27,0.96-96.31,23.91l-4.1,1.16
	c-4.13-5.17-7.98-9.54-6.54-19.06c1.64-10.86,7.07-21.44,14.09-30.86c13.3-17.83,24.44-36.72,30.46-57.85
	c4.35-0.81,8.16-2.55,13.55-3.99c-5.73,16.57,2.42,31.37,17.67,37.95c9.24,3.99,19.22,5.01,27.45-1.22
	c7.13-5.4,9.63-14.84,10.5-24.68C257.42,206.52,263.16,210.01,269.78,209.53z"/>
<path class="st7" d="M247.29,277.56l1.16,2.72c-2.44,15.17-5.93,30.02-10.45,44.54c-8.42,12.91-17.53,25.3-27.33,37.17l-2.38-0.06
	c-23.98-14.76-47.87-36.11-65.53-58.25C170.14,277.51,210.66,268.77,247.29,277.56z"/>
<path class="st1" d="M278.57,217.81l0.28,2.83c-6.64,18.26-11.96,36.89-15.97,55.9l-2.69,4.73c1.12,0.92,1.88,1.96,1.34,3.28
	c-3.44,9.51-6.35,19.16-8.72,28.93c0,0,8.83-6.83,26.5-20.5l4.68-1.67l-0.15-2.42c7-3.88,13.05-8.56,18.15-14.04l38.72-75.1
	l2.24-0.16c2.93,1.68,2.33,4.91,2.7,7.67c-1.47,5.62-4.02,10.99-7.66,16.11c-7.62,14.57-14.95,30-19.85,45.41
	c8.81-5.13,17.4-10.64,25.75-16.51l3.45,0.14l1.87,11.43l-2.53,3.19c-17.72,9.66-34.3,21.22-49.74,34.7c0,0-1.37,0.23-4.1,0.7
	c-24.21,18.14-52.59,46.06-68.41,72.15c-4.16-3.6-11.07-9.55-16.12-12.66l23.36-30.2c11.35-14.67,9.8-36.52,15.65-54.18
	c7.5-22.64,16.87-45.12,22.49-68.03l20.27-39.21C286.85,186.09,284.23,203.21,278.57,217.81z"/>
<path class="st5" d="M122.12,179.6c-0.84,7.58,3.29,14.78,8.75,19.54c6.12,5.33,14.57,7.31,21.97,3.66l14.02-6.9
	c-4.14,13.99-10.26,26.43-20.24,38.24l-33.51,39.66c-10.09-10.17-16.53-24.9-16.89-38.41l-0.01-4.78
	c5.93-15.97,13.6-33.43,21.99-48.23c0.35-0.62,0.99-1.08,1.67-1.56C120.56,180.32,121.33,179.95,122.12,179.6z"/>
<path class="st1" d="M77.07,277.34l0.59,4.16c-5.18,20.85-7.89,42.2-8.12,64.06c0,0-0.75,1.19-2.24,3.57c1.87,0,1.8,0.76-0.11,1.16
	c-10.93,3.36-22.55-1.77-29.77-10.54c5.53-11.33,4.25-26.13,8.41-39.6c5.33-17.25,6.84-34.11,6.03-51.65
	C63.82,254.05,70.19,266.97,77.07,277.34z"/>
<path class="st5" d="M115.3,330.09c-0.46,4.1-2.23,8.16-5.3,12.19c-1.39,4.36-3.55,7.66-6.48,9.89
	c-10.32-1.71-20.84-0.91-31.29-1.08c-1.9-0.52-3.54-1.18-4.92-1.96c2.25-24.19,1.29-48.68,9.76-71.79
	C89.08,295.46,101.98,312.87,115.3,330.09z"/>
<path class="st1" d="M122.12,179.6c-10.81,17.26-17.62,37.08-25.9,55.78c-4.68-7.36-4.07-16.11-6.73-24.14l0.9-4.44
	c6.93-10.44,13.6-21.05,19.99-31.85c1.71-3.79,4.22-6.35,7.56-7.7c-1.33-1.18-0.19-1.72,1.2-2.13c4.45-1.1,5.94-6.37,11.81-6.97
	C128.44,165.8,126.01,173.39,122.12,179.6z"/>
<path class="st5" d="M58.71,193.08l1.57,3.28c-0.03,4.6-1.79,24.02-4.03,26.25c-0.47,0.47-1.04,0.85-1.63,1.2
	c-5.75-4.78-13.88-7.63-20.15-11.68c0.63-7.87,10.29-12.27,14.48-20.05c1.33-1.97,4.14-1.97,6.07-2.05
	C57,189.97,57.27,192.23,58.71,193.08z"/>
<path class="st7" d="M103.51,352.17c2.79-7.73,6.97-15.42,11.79-22.08c7.14,9.24,18.14,15.33,24.88,27.2
	C128.06,354.45,115.42,354.14,103.51,352.17z"/>
<path class="st1" d="M64.3,195.94c4.08,13.73,4.04,28.31,6.14,43.77c-6.24-4.21-10.33-11.32-15.82-15.88
	c2.66-9.92,2.85-20.48,4.09-30.74C60.43,194.11,62.64,194.65,64.3,195.94z"/>
<path class="st5" d="M115.16,166.23c1.22-0.32,2.73-0.41,2.78,1.03c-10.39,14.25-17.97,30.36-28.45,43.98
	c-1.74-5.27-2.36-10.91-3.32-16.35c20.68-12.56,14.01-23.3,24.02-26.91c0.38-0.84,1.17-1.39,2.36-1.63
	C113.42,166.36,114.29,166.32,115.16,166.23z"/>
<path class="st6" d="M72.22,351.09c-1.71-0.03-3.6,0.49-5.02-0.8l0.11-1.16C69.02,349.43,72.13,348.77,72.22,351.09z"/>
<path class="st1" d="M143.77,1147.99l0.27,59.49l-1.93,1.74c-35.49,1.3-33.68,48.4-28.51,74.27l-1.17,3.68
	c-20.8-4.8-44.51-4.26-63.54,6.74c0.98-11.37,0.33-22.77-0.13-34.16C92,1231.72,122.8,1194.63,143.77,1147.99z"/>
<path class="st4" d="M144.04,1207.48c18.95,2.48,39.64,26.77,45.3,22.89c7.88-5.4,15.45-10.28,25.47-7.89
	c22.66,5.41,24.67,37.79,20.47,59.18c12.3-10,24.76-13.73,39.21-11.48c-0.44,26.82,1.31,53.79-1.05,80.52
	c-17.53-5.22-35.19-8.35-54-2.53c5.91-20.67,13.6-39.99,26.6-57.64c-36.88,14.89-73.14,52.4-76.41,97.49
	c-8.2,12.96-22.24,22.19-33.06,33.37c17.73-44.17,33.28-91.96,4.18-135.61c-21.98,61.8-70.62,100.51-35.05,173.91
	c-18.93,30.77-29.59,64.58-46.61,96.81c-10.69,20.24-29.32,35.99-41.24,57.05c-4.76-9.44-0.52-15.69,3.06-22.97
	c28.68-58.25,22.72-126.89-14.46-179.52c-2.89,4.74-2.74,8.66-6.44,8.78v-50.88c7.12-4.04,9.16-13,15.17-20
	c26.92,2,53.42-4.79,74.9-21.47l41.99-32.6c-7.16-2.22-13.14-6.23-19.62-7.73c-3.96-17.48-5.25-37.02-0.62-54.55
	C115.85,1217.31,128.58,1205.45,144.04,1207.48z"/>
<path class="st5" d="M342.8,196.64c0.12,0.98,0.17,1.97,0.14,2.96l-38.55,74.9c-4.43,8.61-14.13,10.97-20.41,16.82l-3.43,0.48
	c-5.89-3.05-11.95-5.68-18.19-7.88l-2.17-2.65c3.17-22,10.42-42.95,18.39-63.46c11.62,3.69,24.36,4.85,35.96-2.32
	c8.42-5.21,17.1-15.69,17.67-27.22c0.19-3.77-2.94-7.76,1.03-10.15L342.8,196.64z"/>
<path class="st4" d="M25.8,1135.85c-5.92,17.08-10.79,34.05-15.82,53.18c-9.97-24.67,0.86-34.47-1.03-64.96
	C16.05,1125.22,19.48,1132.72,25.8,1135.85z"/>
<path class="st6" d="M1194.37,1234.73c2.63,13.91-12.78-0.03-28.69,13.33c-2.4-5.1-0.03-10.77-1.19-16.16
	C1174.39,1233.92,1184.88,1231.04,1194.37,1234.73z"/>
<path class="st7" d="M34.58,260.15c1.6,0.49,4.22,3.86,5.66,5.37c1.28,1.34-3.73,4.08-4.7,6.43c-0.68,1.64-3.51-3.89-5.06-4.7
	C26.36,265.1,33.22,264.91,34.58,260.15z"/>
<path class="st10" d="M444.62,535.64c4.46,9.18,9.47,18.03,14.67,26.84c-4.79,11.62-10.33,22.87-16.62,33.76
	c-5.92,11.34-10.62,23.42-12.35,36.19l-2.32,3.09c-5.05,17.66-10.43,35.25-16.14,52.77c-39,153.98-37.84,333.18,29.03,479.62
	c25.12,55,69.06,122.87,124.47,149.55c5.07,2.44,19.58,8.84,24.31,8.66c5.37-0.2,17.68-5.54,23.2-8.01
	c42.46-18.99,78.94-62.14,100.53-102.63c51.43-96.45,71.57-201.67,76.5-310.31l1.45-4.44c0.62-1.56,0.84-3.64,0.69-6.23
	c-1.1,0.07-1.65-0.15-1.9-1.17c-0.33-1.39,0.89-27.4,1.62-28.64c0.17-0.29,0.52-0.48,0.91-0.63l-1.27-0.74l0.23-16.34l-1.69-3.31
	c-1.05-19.25-3.8-38.37-8.24-57.36c0,0,0.47-1.65,1.4-4.95c-3.09-13.35-5.2-26.9-6.35-40.64c0,0-2.75-14.4-8.24-43.18
	c-3.3-10.24-5.93-20.62-7.88-31.13l-2.02-4.85c-0.65-32.97-10.3-64.39-27.16-92.48l-2.37-10.46c-1.27-2.31-1.41-4.22-0.42-5.75
	l0.28-2.7c5.85-6.42,10.87-13.58,15.06-21.48l2.71-0.53c33.87,65.14,53.82,136.68,65.47,209.52c7.88,49.26,12.81,98.02,12.14,147.89
	c-1.81,134.34-28.89,275.78-102.56,390.02c-27.58,42.77-77.68,96.54-129.5,104.47c-55.96-1.08-113.97-68.01-143.26-111.72
	c-75.75-113.03-99.77-251.77-98.78-386.09c0.88-118.65,27.25-257.94,84.89-361.84c0.77-0.21,1.38-0.05,1.91,0.54
	c3.14,3.51,6.64,8.7,9,12.79L444.62,535.64z"/>
<path class="st10" d="M591.33,385.45c49.88,1.5,98.35,48.7,123.8,87.68l-0.2,2.94c-5.07,6.09-10.5,11.83-16.29,17.23
	c-3.93,0.04-4.73-3.28-2.41-9.96l-17.99,25.73c-1.63,0.47-2.68-0.45-3.56-1.86l2.51-14.03l-1.15-1.51
	c-2.99-1.42-4.49-2.13-4.49-2.13c-17.54-18.65-38.73-39.43-63.09-48.3c-38.52-14.03-73.87,22.78-97.8,48.16l-3.07,0.44
	c-0.77,1.53-2.14,1.37-4.13-0.48l4.76,17.08c-0.73,1.53-2.13,1.68-3.77,1.37l-24.41-33.71c-0.11,0.94-0.79,1.9-2.03,2.87
	c-2.84,0.38-4.97-2.11-6.02-3.9C466.84,464.34,528.6,383.56,591.33,385.45z"/>
<path class="st9" d="M433.84,435.7l2.33,1.97c12.01,41.09,43.4,74.28,73.77,103.21c4.86,4.98,9.61,10.15,13.44,15.99
	c0.28,0.43,0.32,1.03,0.33,1.68c0.02,0.68-0.09,1.35-0.24,2.03c3.3,2.86,4.9,5.62-0.54,6.88c5.56,12.31,13.98,22.94,25.28,31.89
	c15.37,16.69,27.52,40,23.84,63.22c-1.04,6.54-3.5,17.31-9.65,19.95l-1.97-1.81c1.51-10.91,1.74-21.63,0.68-32.16
	c-7.4,9.16-17.65,14.71-29.29,16.21c-5.16,0.67-13.79,1.65-17.11-2.38l-2.22-1.8c-0.34,0.86-0.64,0.76-0.9-0.19
	c-5.11-4.03-9.53-8.82-13.26-14.35c-0.86,0.12-0.88-0.15-0.17-0.78c-0.84-2-1.77-4.01-2.79-6.04l-2.52-1.77
	c-1.53-7.3-1.52-14.54,0.04-21.73c-2.78,0.55-12.7-1.46-10.75-4.94c3.26-5.81,30.45-12.75,38.2-13.97
	c-0.56-1.54-24.15-15.87-27.61-17.55c-5.32-2.59-9.01-3.3-14.71-3.01c-1.29,0.95-3.01,1.49-2.91-0.41c-2.15-3,1.75-6.57,4.78-4.64
	l0.07-2.01c-0.77,0.08-1.53,0.12-2.28,0.03c-7.8-0.91-30.64-24.43-33.06-33.58c-1.59-5.76-7.63-9.58-9.53-15.24
	c-1.19-3.56-2.69-7.5-1.04-10.87c0.62,0.61,0.87,0.09,0.76-1.56c-3.84-9.86-8.01-20.86-6.56-31c1.81,0.91,2.72,1.36,2.72,1.36
	c5.67,12.62,7.55,15.62,1.59,0.76l1.3-1.97C428.96,464.31,429.23,448.52,433.84,435.7z"/>
<path class="st9" d="M346.19,1040.86c-34.75-75.33-51.29-125.89-37.99-210.7c8.95-57.05,23.09-112.71,38.27-166.68
	c-1.01,67.31-11.19,130.64-19.97,194.58C317.22,925.7,326.49,975,346.19,1040.86z"/>
<path class="st11" d="M478,476.97c-0.54-1.74-0.53-5.52,2.12-6.01l26.4,36.45l-6.39-22.78l7.46,5.22l2.22,0.05
	c6.08,10.94,12.16,21.89,18.24,32.84l-0.99,2.16c0.59,0.6,1.2,1.37,1.81,2.31c2.06-0.02,3.37,1.95,2.84,3.88l2.68,1.17
	c4.21,6.58,19.25,35.28,16.68,41.72c-0.39,0.98-1.02,1.72-1.94,2.25l-3.08-0.03c-6.52-4.46-13.32-8.49-20.39-12.07l-2.19-3.54
	c-7.34-12.11-18.28-21.63-28.91-31.89c-21.74-20.98-55.75-63.31-60.71-93c0.22-0.63,0.52-1.13,0.62-1.89
	c0.1-0.75,0.64-0.01,0.92,0.17l1.5,0.93c17.86,11.08,27.97,35.48,44.61,50.69C482.14,481.26,478.82,479.62,478,476.97z"/>
<path class="st5" d="M349.19,263.86c6.86,41.9,1.93,86.61-5.5,128.75c-3.88-34.12-21.08-73.75-50.86-90.16
	C310.94,288.88,328.52,272.36,349.19,263.86z"/>
<path class="st5" d="M345.63,207.27c1.17,8.9,0.74,17.85,1.03,26.83c0.96,1.08,1.25,2.8,0.88,5.15c0.7,4.18-0.9,9.06-0.22,13.17
	c-11.01,6.56-20.76,15.13-33.97,20.76C323.51,249.74,332.06,226.68,345.63,207.27z"/>
<path class="st12" d="M433.86,477.12l7.86,20.55c-7.5-5.14-10.1-13.42-13.47-20.71C428.95,473.78,431.84,478.01,433.86,477.12z"/>
<path class="st6" d="M319.49,436.59c-2.34,0.07-3.86-1.45-4.49-3.5c4.46-4.68,8.61-10.95,15.45-12.44
	C327.7,427.71,320.76,430.35,319.49,436.59z"/>
<path class="st12" d="M434.05,509.53l0.76-1.56c2.44,6.26,8.36,11.78,10.61,19.77C439.36,523.36,435.52,516.53,434.05,509.53z"/>
<path class="st4" d="M274.56,1101.12c-0.23,2.04,1.1,5.67-1.62,6c-0.4-3.36-0.13-6.61-0.21-9.97c1.26-0.53,1.68,0.77,1.87,1.56
	C274.8,1099.54,274.33,1100.4,274.56,1101.12z"/>
<path class="st1" d="M347.54,239.25c-1.64-1.13-0.82-3.45-0.88-5.15c1.7-0.55,1.99,1.21,1.94,2.55
	C348.58,237.48,347.94,238.5,347.54,239.25z"/>
<path class="st9" d="M746.69,528.15c-5.88,8.15-9.82,18.45-18.05,24.71c0.07,1.09-0.22,2.06-0.82,2.96
	c-0.65,0.99-17.98,11.62-20.12,12.59l-3.02,0.02c0.81,2.11-0.36,2.58-2.18,3.02c4.17,1.45,9.83,4.07,12.64,7.58
	c2.23,2.79,5.93,7.55,1.22,9.46l-2.55-0.04c-4.52-4.05-9.4-7.65-14.66-10.79l-0.25-2.59c-1.47-1.11-2.82-1.18-4.04-0.2l-1.83,2.87
	c-8.6,4.51-16.83,9.66-24.69,15.45l8.94,3.39c4.9,3.47,9.96,6.57,15.16,9.3c5.86,0.9,8.05,2.92,6.55,6.05
	c-5.66,2.12-8.49,3.19-8.49,3.19c13.16,42.76-41.52,72.36-67.61,33.75c-1.12,11.04-1,22.3,0.34,33.79c0.18,1.4-0.84,2.19-2.13,2.78
	c-0.66-0.29-1.3-0.62-1.85-1.05c-0.52-0.4-0.98-0.8-1.23-1.32c-12.84-26.37-3.09-64.16,16.28-84.99
	c9.17-8.34,16.87-17.69,23.09-28.06c-6.24-2.99,0.14-7.51,4.12-9.18c-0.35-0.76-0.77-1.55-1.25-2.37l1.64-3.93
	c6.45-8.69,13.55-16.86,21.31-24.54c27.67-25.85,52.21-52.93,61.21-90.27l3.48-5.89c12.82,32.97,3.3,68.89-20.14,97.88
	c10.33-1.5,14.23-11.81,23.12-16.32C749.28,519.37,748.83,525.18,746.69,528.15z"/>
<path class="st11" d="M747.89,433.85c-6.56,27.9-19.49,53.56-40.25,74.09c-16.76,16.57-32.63,32.89-47.39,50.54
	c0.73,0.74-0.12,1.85-2.57,3.34c0.07,0.56,0.08,1.07-0.15,1.44c-3.5,5.7-15.35,13.85-21.1,17.8l-2.58-0.93
	c-1.01,0.93-2.35,1.14-2.41-0.36l-0.6-3.9l6.48-16.33c5.51-9.4,10.27-19.04,14.27-28.93l2.22-1.49l-1.32-1.54
	c7.1-11.97,14.21-23.93,21.31-35.9l2.23,0l3.47-0.81l-3.08,17.52l23.34-33.6l-3.28,17.82c7.5-5.99,12.79-13.71,18.65-19.47
	C730.25,462.9,735.51,443.46,747.89,433.85z"/>
<path class="st9" d="M849.27,959.34c32.38,82.31,14.78,123.02-15.01,202.46c12.32-52.43,19.89-106.04,18.65-160.32
	C852.57,986.99,847.96,974.42,849.27,959.34z"/>
<path class="st13" d="M914.62,1014.93c-3.18-0.6-1.07-4.76-1.39-7.15C916.38,1008.4,914.47,1012.53,914.62,1014.93z"/>
<path class="st13" d="M915.71,1027.35c-3.09-0.31-2.15-5.12-0.89-7.05C916.46,1022.39,915.75,1024.86,915.71,1027.35z"/>
<path class="st13" d="M917.03,1049.28c-1.37,0.09-1.34-1.44-1.25-2.38c0.08-0.9-0.07-2.31,0.99-2.63
	C916.89,1045.79,919.03,1047.7,917.03,1049.28z"/>
<path class="st13" d="M918.46,1061.01c-3.04-0.53-1.26-4.56-1.66-6.93C920.18,1053.94,918.55,1058.58,918.46,1061.01z"/>
<path class="st7" d="M210.05,901.79l-2.66-8.42l-8.14-3.65c3.08-2.14,6.76-0.92,8.23-3.23c1.77-2.77,0.59-6.04,2.06-9.44
	c2.9,2.98,1.66,6.49,3.01,9.09c1.47,2.84,5.33,1.51,8.16,4.11c-2.35,1.69-5.72,1.26-7.2,2.46
	C210.7,894.96,212.62,898.57,210.05,901.79z"/>
<path class="st7" d="M216.24,651.63c-1.17-5.12-4.94-6.04-7.91-8.33c3.34-1.46,6.37-2.73,7.5-7.35c2.74,4.34,3.41,6.51,8.06,8.08
	C219.71,645.99,218.47,646.99,216.24,651.63z"/>
<path class="st7" d="M945.58,939.53c-1.94-5.22-3.95-5.71-9.41-7.91c5.55-2.79,7.92-3.27,9.22-9.97c1.74,5.29,4.61,7.35,7.23,10.33
	C950.42,933.74,946.53,934.74,945.58,939.53z"/>
<path class="st7" d="M1010.88,481.13c-1.81-2.54-0.09-6.61-2.48-7.77l-7.16-3.47c2.45-1.17,5.11-0.92,7.26-1.46
	c2.84-0.71,0.34-4.57,3.05-6.38c2.28,1.92,1.52,4.6,3,6.08c1.06,1.06,6.02-0.14,5.77,3.09c-0.2,2.52-5.41,0.76-6.48,2.61
	C1012.69,475.79,1013.66,478.59,1010.88,481.13z"/>
<path class="st7" d="M905.88,585.15c-1.86-4.7-2.53-7.45-8.18-9.04c5.31-1.76,5.94-3.78,7.79-8.9c2.72,4.53,2.8,7.78,8.36,8.48
	c-2.37,2.98-4.39,1.48-5.41,3.1C907.24,580.69,908.95,582.73,905.88,585.15z"/>
<path class="st7" d="M283.98,291.32c-10.03,9.36-21.84,18.22-33.39,26.42c0.1-13.72,7.94-25,9.59-36.46
	C268.53,283.54,276.19,287.6,283.98,291.32z"/>
<path class="st9" d="M403.98,808.12c-0.61,0.6-0.9,1.36-0.89,2.25c2.53,1.22,2.4,2.51-0.18,3.47c-0.4,1.87-0.86,3.62-1.38,5.25
	c2.93,0.68,2.61,5.63-0.21,6.32l-0.16,2.25c1.39,1.13,1.78,2.92,1.15,5.36c0.86,4.01,0.3,6.71-1.68,8.1
	c2.19,6.63,2.62,15.77-0.26,22.05c2.77,1.25,3.5,9.04,0.8,10.28c0.75,0.56,0.7,1.58,0.15,2.25c2.99,1.36,3.15,6.72,0.22,8.23
	c0.5,1.64,0.95,3.4,1.36,5.26c2.57,1.29,2.72,2.93,0.2,4.41c-0.08,0.92,0.17,1.7,0.75,2.32l2.2,3.75
	c2.18,16.09,5.69,31.91,10.52,47.47c0,0-0.29,1.42-0.88,4.25l2.31,1.25c8.09,27.83,17.35,56.83,34.35,80.65
	c2.88,2.36,4.36,4.81,4.45,7.37l3.08,1.24c9.01,17.08,20.73,31.38,35.16,42.92l1.22,2.95c2.44,0.72,2.9,4.86,0.26,5.73l1.83,3.04
	l0.99,11.84c1.05,10.2,2.66,9.92,4.82-0.84c0.95-5.17,3.09-8.89,6.42-11.18c0.27-2.6,1.36-2.84,2.99-0.94l1.05-1.04
	c-0.46-5.02,7.19-11.97,9.13-4.02c0.35,1.45,0.35,2.13-1.2,3.1c1.97,2.88,3.02,6.5,3.14,10.86l2.48,8.11
	c2.89,5.43,5.67,10.91,8.34,16.43c1.3-0.45,2.46-0.47,2.95,0.8l13.48,28.24c9.37,17.15,22.84,32.03,40.54,40.86l2.84-103.26
	c-8.36-2.2-10.87,1.73-13.14,9.53c-1.22,2.44-2.53,4.43-5.17,2.73c-2.99-0.97-2.16-10.61,0.83-11.41c-2.73-1.88-0.59-7.3,1.13-9.56
	c2.38-0.8,4.83-1.57,7.36-1.6c9.59-0.11,19.38-0.08,28.97,0.11c2.53,0.05,4.97,0.87,7.33,1.71c2.72,1.12,2.59,6.03,0.08,7.33
	l-2.04,2.03c-6.16-0.29-12.14-0.69-17.93-1.21l1.67,107.37c31.34-15.47,59.16-54.34,54.12-90.25c-0.64-4.28,0.34-6.71,2.93-7.28
	l2.55,0.44c3.37,3.85,3.61,13.85,3.23,18.87c6.47-6.03,10.4-14.51,11.31-23.28l2.06-1.95c-3.65-0.94,1.06-8.57,3.59-7.45
	c7.27,3.21,12.73,11.11,15.24,18.49c0.91-3.91,1.27-7.91,1.1-11.98l1.95-1.82c-0.64-2.45-0.28-2.77,2.09-1.86l0.21-2.19
	c-2.93-0.69-2.65-4.32-0.18-5.49l0.7-3.41c11.37-15.06,21.31-31.27,29.81-48.63c0,0,1.37-0.92,4.12-2.77l-0.49-2.78
	c0.85-2.34,7.63-17.59,8.43-18.2c0.8-0.61,1.7-0.91,2.72-0.88l0.62-4.84c10.03-17.83,16.39-37.37,22.19-56.92
	c0,0,1.04-1.27,3.13-3.82l-0.95-3.54l5.32-19.62c0.94-6.79,2.36-13.41,4.26-19.87l-1.01-2.41c2.11-7.34,3.23-14.93,3.36-22.78
	l2.14-1.65c-1.27-3.21-1.7-8.43,1.11-10.8c0.17-2.55,1.13-2.34,1.62,0.18l-0.63,30.44c0.3,2.38,0.07,4.46-0.69,6.23
	c-3.82,106.33-21.59,208.79-70.43,304.7c-26.6,52.24-72.02,108.77-131.23,122.57c-57.76-12.53-106.54-76.8-133.47-125.4
	c-67.95-122.58-82.98-279.94-65.32-417.29c6.64-51.65,17.39-102.33,37.11-149.79l1,2.84c-1.42,27.32-1.32,54.93,4.8,81.72
	c0.92,6.77-1.07,13.83-3.68,20.01c-11.95,20.31-19.89,41.92-23.83,64.83L403.98,808.12z"/>
<path class="st8" d="M791.62,846.98c-0.43,4.7,1.16,11.56,1.05,17.08l-1.62-0.18c-2.82,2.84-2.27,7.27-1.11,10.8
	c-1.25,8.92-0.48,18.86-4.49,26.83c-0.39,6.03-2.44,8.44-6.13,7.23c-5.85-6.23-9.13-14.19-9.83-23.89
	c-4.03,17.26-7.2,42.27,3.26,57.46c2.03,0.29,3.39,1.03,4.06,2.22c-6.65,22.52-13.81,45.67-25.95,65.57
	c-1.78,3.01-4.44,1.45-6.57-0.57c-4.22-3.98-5.14-14.51-5.18-20l-1.92-0.24c-1.38,2.93-3.16,4.04-5.32,3.35
	c-0.79,0.53-1.65,0.79-2.59,0.71c-7.42-0.66-15.1-24.03-13.78-31.07l-2.04,0.57c-0.43,0.87-1.16,1.53-2.18,1.96
	c1.29,3.1-1.64,11.47-5.63,11.47c-1.25,4.35-3.22,6-5.91,4.95c-2.6,0.59-5.08-0.68-7.44-3.81c-5.72-7.12-8.95-15.79-9.7-26.01
	c-0.92,0.42-1.85,0.43-2.78,0.04c-1.38,1.76-2.42,3.72-3.11,5.89l-2.05,0.68c-0.9,5.55-11.34,9.25-15.07,5.04
	c-1.39-1.57-1.81-2.25-0.16-4.1l-1.74-4.72c-0.44-14.17-2.05-28.23-4.84-42.17l-1.82-1.3l-0.74-14.73
	c-0.19-3.98,0.94-5.98,3.41-5.99c0.54-1.33,1.61-2.28,3.2-2.85c9.43-10.15,16.78-21.91,22.05-35.28
	c-11.17,5.75-23.47,2.33-22.49-11.93c-0.42-0.75-0.81-1.51-1.06-2.31c-2.49-7.86,7.99-38.31,11.86-47.17
	c0.29-0.66,0.86-1.21,1.46-1.78c0.62-0.58,1.33-1.05,2.07-1.5c2.88-3.33,4.64-7.56,5.28-11.88c-2.59-1.87-1.19-3.86,1.42-2.07
	c1.44-3.46,3.28-6.29,5.53-8.48l2.1,1.66l-2.42,41.34c1.51,16.19,12.93,1.67,16.34-5.24c1.68-0.83,3.08-1.1,4.03,0.59
	c-0.06,5.74,2.72,30.45,8.89,31.97c1.32,0.32,4.24-6.29,4.97-8.06c2.45-8.12,4.71-16.3,6.79-24.55c1.68-3.26,2.75-2.68,4.75,0
	c0.74,11.3,4.12,21.17,10.14,29.59c4.78-7.44,8.21-15.82,10.3-25.15c1.85-3.31,2.81-2.69,4.8,0.08c0.86,7.13,3.34,13.31,7.45,18.54
	c2.14-3.73,4.82-6.12,8.04-7.15l1.27,1.29c-0.03,11.73,2.2,22.45,6.67,32.19c3.27-3.08,6.09-6.83,8.48-11.26
	c3.29,0,4.69,2.46,4.21,7.4L791.62,846.98z"/>
<path class="st14" d="M479.96,569.19c2.09,0.37,1.97,1.55-0.07,2.01c-1.96,1.11-4.01,2.47-4.78,4.64c-0.07,0.81-0.34,0.8-0.79,0.06
	l-0.33,1.42c-5.57,4.01-10.37,8.72-14.42,14.13l-2.63,0.64c-0.53,0.93-1.18,1.65-1.94,2.16c1.44,2.05,0.58,4.53-2.19,3.92l0.06,3.39
	c-26.73,43.12-5.78,114.61,44.48,129.32c30.95,4.8,67.58,13.07,90.73,35.73c0.47,0.46,0.75,1.11,1.01,1.8
	c0.28,0.73,0.43,1.5,0.54,2.29l2.09,0.65c0.6,5.62,2.83,10.09,6.67,13.41c2.27,0.59,3.6,1.68,3.99,3.29
	c3.36,2.35-2.21,12.69-4.79,14.11c-4.63,2.56-12.89-6.19-14.01-10.52c-6.71,16.86-17.49,11.58-22.88-2.28
	c-4.24,5.88-9.54,9.64-15.89,11.28l-1.38-1.87c-3.01,2.53-8.02-2.31-10.37-4.8c-3.39-3.6-5.56-7.95-6.67-12.74
	c-5.83,8.49-9.97,3.66-13.5-3.47l-4.17-12.05c-3.03,5.21-6.17,10.47-9.41,15.78l-3.01,0.77l-3.05-1.53
	c-9.59-17.25-21.32-34.23-38.91-44.09l12.22,16.54c4.88,5.43,8.07,11.33,9.56,17.7c4.76,14.31,5.93,42.22-2.39,54.98
	c-8.32,12.78-16.15,6.78-23.77-2.06c0.19,19.21-14.73,36.01-25.02,10.38c-0.75,22.02-17.17,34.07-24.31,6.91
	c0.17-4.47-0.93-9.07,0.53-13.46l0.16-2.25c-0.04-2.01,0.37-4.3,0.21-6.32c0.45-1.84,0.91-3.59,1.38-5.25
	c-0.16-1.13,0.24-2.35,0.18-3.47c-0.24-0.92-0.03-1.88,0.89-2.25c5.44-51.4,32.84-65.84,27.37-91.24
	c-5.85-27.11-6.23-54.2-3.35-81.36c3.19-30.11,18.94-47.56,29.53-72.89c-5.89-8.65-10.92-17.38-12.91-26.99
	C454.42,549.52,465.75,559.94,479.96,569.19z"/>
<path class="st12" d="M728.64,552.86c3.73,5.32,2.48,12.8,6.01,18.58c18,29.49,25.62,61.34,25.96,94.96l1.66,9.93
	c-1.94,16.46-3.08,32.94-3.42,49.46c5.73,14.85,12.72,29.17,20.99,42.97l3.25,12.6c1.91,22.02,10.62,43.02,8.54,65.62l-1.5,15.95
	l-2.89-21.34c-4.23,5.02-4.52,11.15-10.84,12.55c-7.58-9.65-5.88-22.21-7.74-34.74l-7.39,9.13c-6.57-5.92-7.81-13.89-9.81-22.86
	c-4.07,10.33-5.18,20.85-12.2,29.65c-10.36-8.64-10.26-22.1-13.03-34.09c-4.77,12.66-4.37,26.07-13.62,36.9
	c-10.41-7.52-10.35-22.26-11.36-35.33c-3.79,5.06-6.76,13.07-13.92,14.22c-5.14,0.82-6.76-5.79-6.52-9.92l2.44-41.39
	c-3.02,2.78-2.11,7.34-5.75,7.58c-2.33-0.99-2.41-3.24-0.22-6.76c3.02-3.71,5.35-7.74,7.01-12.09l-0.19-2.98
	c3.73-5.37,6.58-11.32,8.5-17.56l2.44-1.6l2.43-3.95c54.27-33.46,61.19-119.35,8.53-156.61l-1.31-3.29
	C711.83,562.11,721.14,558.57,728.64,552.86z"/>
<path class="st9" d="M783.09,781.36c-6.48-18.95-20.72-35.97-26.12-55.27c-0.88-19.89,3.85-40.16,3.65-59.69
	C774.77,702.68,779.72,742.64,783.09,781.36z"/>
<path class="st8" d="M791.35,900.73c0.07-2.04-1.32-4.75,0.69-6.23C793.73,896.09,793.19,902.03,791.35,900.73z"/>
<path class="st9" d="M676.03,491.67l-22.22,37.44l-4.52,1c-37.91-9.58-75.47-7.01-113.17,2.02l-4.42-1.06
	c-1.56-0.6-2.98-1.96-2.84-3.88l-1.81-2.31l-19.47-35.05c27.99-29.47,65.91-70.15,110.71-46.38
	C640.99,455.51,659.25,472.75,676.03,491.67z"/>
<path class="st15" d="M495.36,639.23c1.03,1.89,1.96,3.9,2.79,6.04c0.02,0.26,0.12,0.52,0.17,0.78c3.75,5.46,8.17,10.24,13.26,14.35
	c0.23,0.12,0.65,0.21,0.9,0.19l2.22,1.8c18.63,3.15,35.93-1.86,47.25-18.16c4.7,13.87-0.19,26.08,0.44,38.3l-0.24,3.85
	c-8.44,10.89-16.07,22.27-22.89,34.14c-3.57,2.39-7.75,3.24-12.55,2.56l-0.56,1.56l-3.23,1.6c-60.49-2.8-91.93-69.96-70.13-122.88
	c0.21-0.5,0.73-0.89,1.3-1.3c0.58-0.42,1.24-0.73,1.91-1.01c-2.45-1.78,0.84-4.48,2.99-4.72c0.45-0.93,1.07-1.64,1.84-2.13
	c-1.98-1.91-0.46-3.38,1.9-2.75c0.56-0.85,1.22-1.54,1.97-2.05c-0.65-0.51-0.81-1.14-0.84-1.91c-0.03-0.72,8.63-10.23,10.65-8.66
	c0.19-1.53,1.36-2.4,3.51-2.59c7.5-9.1,37.84,16.12,48,21.9c-15.55,1.37-28.99,6.24-42.75,13.18c3.83,3.47,7.91,1.57,12.57,3.03
	C492.95,623.13,492.79,631.37,495.36,639.23z"/>
<path class="st7" d="M549.12,576.22c0.89,0.12,1.77,0.28,2.6,0.57c0.8,0.28,1.57,0.57,2.16,1.07
	c11.96,10.18,26.45,28.06,34.92,41.38c2.96,6.01,4.04,7.25,3.22,3.74c9.42-14.37,21.37-26.99,33.62-39c0.6-0.59,1.43-0.96,2.3-1.34
	c0.88-0.38,1.8-0.64,2.75-0.86c0.7-0.93,1.76-1.48,3.16-1.67c9.44-3.87,15.37-12.98,23.83-18.31c0.85-1.6,3.06-2.9,3.82-0.96
	c-1.22,1.09-2.57,2.53-3.5,3.52c-1.8,1.92-3.26,4.65,2.64,3.48c-9.45,19.45-17.06,21.09-28.61,36.04
	c-18.54,23.99-23.08,54.54-10.93,81.56l2.63,1.14c6.68,14.81,16.1,30.06,32.98,33.99l1.83,2.34l-3.48,3.2
	c-22.3,9.56-43.7,21-64.21,34.3l-3.44-1.67c-16.4-13.55-34.24-23.83-53.5-30.84c-3.37-0.14-5.96-1.23-7.76-3.27
	c-7.04-5.89,9.68-1.01,12.13-6.05c6.54-13.41,16.3-23.95,24.11-36.06c19.56-30.34,1.9-66.85-22.87-89.02
	c-8.88-7.95-16.19-16.81-19.1-27.76c1.22-0.63,4.86,0.05,4.47-1.28c-0.27-0.92-0.9-3.04-1.42-3.89
	C531.64,565.67,541.68,569.85,549.12,576.22z"/>
<path class="st11" d="M520.26,615.49l-1.44,1.72c-5.75-0.59-9.77,3.67-7.41,9.41l-1.57,1.92c-1.45,8.43,4.83,17.71,13.59,20.02
	c9.09,2.4,17.16-2,22.01-8.68c5.41-7.46,4.63-15.61,0.88-24.86c5.05,3.84,11.02,9.37,11.7,16.09c1.17,11.6-9.47,22.87-18.54,26.46
	c-12.77,5.04-25.17,0.5-33.34-7.91c-8.75-9-9.28-22.94-3.31-33.46c2.39-4.21,5.68-6.99,9.87-6.77
	C518.95,609.76,519.92,610.79,520.26,615.49z"/>
<path class="st7" d="M520.26,615.49c0.27,3.8,5.8,6.57,0.68,11.13c-3.1,2.77-6.53,3.86-11.11,1.92c-0.58-3.58-2.33-6.83,0.72-10.16
	C513.1,615.58,516.26,614.73,520.26,615.49z"/>
<path class="st3" d="M511.58,660.39c-5.93-3.04-11.94-7.7-13.26-14.35C504.72,648.71,506.33,656.15,511.58,660.39z"/>
<path class="st3" d="M498.15,645.27c-2.96-0.05-2.11-3.97-2.79-6.04C498.14,639.4,497.95,643.02,498.15,645.27z"/>
<path class="st3" d="M478.02,576.24c-0.47,1.55-2.54,1.8-3.51,2.59c-2.44-0.77-1.85-1.44-0.18-2.94c0.19-0.1,0.58-0.09,0.79-0.06
	L478.02,576.24z"/>
<path class="st12" d="M653.81,529.11c-1.26,8.94-7.23,16.43-11.6,24.75c-4.51,8.57-7.54,17.29-10.77,25.9
	c1.36,0.89,0.6,1.54-0.75,2.03c-14.28,13.6-27.92,28.2-39.07,44.71c-13.76-19.39-26.02-36.19-42.5-50.28
	c0.7-16.3-10.64-30.4-17.41-45.14C582.29,520.69,602.1,517.89,653.81,529.11z"/>
<path class="st15" d="M694.86,574.87c1.16-1.37,2.77-1.01,4.04,0.2c5.62,4.43,12.94,7.67,17.46,13.43l3.18,1
	c5.85,8.48,14.08,20.52,15.29,30.89c0.2,1.73,0.34,2.99-1.15,4.38c0.52,0.93,0.98,2.05,1.37,3.34c2.72,5.07,2.69,11.63,0,16.75
	c-0.36,1.95-0.81,3.7-1.36,5.27c2.81-0.14,2.54,3.01-0.17,3.48c0.25,0.94,0.1,1.91-0.9,2.25c0.71,0.93,1.23,1.97,1.28,3.16
	c0.29,6.77-8.11,24.5-11.87,30.73c-12.13,20.11-37.3,37.77-61.52,35.41l-1.98-2.23c-20.11-3.57-29.86-20.62-37.44-37.47
	c1.49-13.33-4.26-26.94,1.04-41.52c10.27,18.91,30.55,26.39,48.16,17.13c17.39-9.14,25.35-29.69,17.21-48.32
	c4.95-0.96,8.46,0.25,11.1-3.19c-18.51-3.69-12.67-10.74-35.27-15.41C674.49,587.16,683.8,579.26,694.86,574.87z"/>
<path class="st3" d="M704.68,568.44c15.24,10.59,27.26,23.2,33.05,41.86c15.56,50.16,1.01,93.48-42.69,121.99l-2.67,2.39
	c-17.47,1.86-34.52,4.95-51.17,9.25c-16.21,7.31-31.45,16.53-45.72,27.64c-2.51,1.24-4.56,2.13-5.84-0.87
	c-23.8-23.31-56.25-32.45-89.28-37.32c-47.88-7.06-81.17-86.39-47.54-135.22c2.24-0.32,3.34,0.58,3.19,2.88
	c-13.84,27.72-9.68,58.34,4.69,84.74c14.77,27.12,37.1,36.17,65.46,38.85c24.15,2.28,44.72,20.86,64.65,34.07
	c21.83-13.21,43.55-28.09,67.74-35.79c22.76,4.05,46.98-12.98,59.33-30.39c8.39-11.82,12.07-23.85,14.75-36.67
	c0.72-0.73,0.79-1.22,0.9-2.25l0.17-3.48c0.59-1.76,1.04-3.52,1.36-5.27c-0.17-5.58-0.12-11.18,0-16.75
	c-0.46-1.08-0.92-2.19-1.37-3.34c-1.91-13.3-9-25.63-17.32-36.26c2.62-7.2-9.57-14.59-17.14-15.87
	C699.03,569.52,703.23,569.72,704.68,568.44z"/>
<path class="st11" d="M635.39,652.57c-3.92-3.57,2.61-8.21,6.15-6.81c5.63,4.92,17.17,4.43,22.93,0.77
	c6.48-4.12,11.5-12.65,8.27-19.67c-2.08,0.19-2.71-1.6-1.89-5.37c0,0-2.13-2.12-6.39-6.35c-0.15-1.24-0.59-2.38-0.49-4.24
	c3.94-1.72,8.94-1.75,13.25,0.39c3.22,1.6,5.19,6.26,6.67,10.65c4.17,12.38-2.45,26.03-12.75,32.63
	C659.47,662.03,645.28,661.31,635.39,652.57z"/>
<path class="st14" d="M641.53,645.76c-2.26,2.58-7.02,2.91-6.15,6.81c-5.27-4.66-10.76-9.99-11.16-17.94
	c-0.32-6.41,4.6-14.98,10.47-18.38C632.01,627.87,633.27,638.52,641.53,645.76z"/>
<path class="st7" d="M664.45,615.14c2.84-0.13,5.33,1.87,6.87,3.27c2.79,2.53,0.51,6.04,1.4,8.45c-2.94,1.93-5.95,4.08-9.36,2.31
	c-2.83-1.47-4.52-4.39-4.49-7.6C658.92,618.22,660.9,615.29,664.45,615.14z"/>
<path class="st6" d="M660.25,558.47c0.58-0.02,1.14,0.3,1.7,0.19c0.67-0.13,1.6,0.02,1.43,1.45c-0.1,0.79-1.41,0.46-1.88,0.74
	c-1.24,0.2-2.71,0.27-3.82,0.96C657.4,559.87,659.41,559.48,660.25,558.47z"/>
<path class="st3" d="M698.9,575.07c-1.35,0.03-2.7-0.04-4.04-0.2c-0.52-1.59,0.99-2.02,2.5-1.75
	C698.15,573.26,698.21,574.53,698.9,575.07z"/>
<path class="st12" d="M541.17,920.92l2.12,0.73c1,3.91,2.1,7.86,3.7,11.6c11.54,26.81,19.25,27.86,34.65,2.73
	c1.45-1.53,3.15-1.3,4.43,0.41c4.49,10.6,10.13,20.24,16.93,28.9c9.46,6.99,16.45,2.66,20.97-13.01c1.71-1.16,2.75-1.6,4.17,0.01
	c2,2.27,4.71,15.84,2.73,19.28c2.37,1.97-0.91,6.76-2.48,9.03c-16.7,23.96-40.5-2.94-43.8-22.62c-8.05,20.25-27.51,29.26-39.58,6.81
	c-0.09,12.93,2.16,35.52,11.06,45.4c3.77-4.21,6.53-9.5,8.28-15.86c1.58-2.64,2.85-2.68,5.11-0.63l4.6,12.11
	c3.14,6.9,6.92,11.32,12.01,2.88l6.75-15.66c2.42-1.49,3.57-1.83,4.91,1.05c3.45,10.08,8.54,18.95,15.29,26.63
	c6.13-4.85,10.35-12.27,12.67-22.28c1.4-2.35,3.09-2.45,4.77-0.29c2.51,7.38,6.47,12.71,11.87,16l2.6-13.95l2.13-0.97l3.09,5
	c5.45,18.75,10.71,37.5,15.78,56.23l-0.5,3.03l-0.98,1.91c-4.21,1.04-7.7,3.58-10.47,7.63c-4.08,2.37-6.7-2.89-7.93-6.37l-1.6,1.58
	c-10.1-1.5-17.83,8.51-18.82,17.76l-1.98,1.08c-14.59,0.49-29.05,0.56-43.66-0.22l-2.44-1.02c-4-9.98-13.8-27.05-25.02-14.93
	c-1.74,1.09-3.21,0.93-4.82-0.36c-7.2-7.67-12.25-7.28-20.39-1.01l-2.04-1.06l-1.11-8.09c0.05-48.52-0.91-97.04-2.86-145.54
	c-0.13-5.43,0.47-10.85,1.16-16.23c4.47-1.54,11.24,5.3,14.19,8.9C539.35,910.8,544.2,917.33,541.17,920.92z"/>
<path class="st12" d="M512.68,930.05c0.52,7.97-1,28.65-8.01,33.19c-3.96,2.56-7.64-0.88-10.22-3.94c0.9,8.45,0.12,30.47-7.36,35.54
	c-4.88,3.3-11.13-4.7-13.96-8.44l1.06,7.49l-1.67,1.63c0.69,8.65-1.86,14.85-7.66,18.58l-2.1-1.03c-1.62,1.17-3.47,0.4-5.57-2.32
	c1.53,4.85,8.23,28.26,2.04,30.73c-0.78,0.31-1.69-0.25-2.42-0.81c-17.68-14.26-35.42-66.88-41.11-89.26
	c0.57-1.52,1.98-2.46,4.22-2.82c5.38-4.94,7.96-11.78,7.73-20.53l0.85-25.39c0.98-1.43,2.14-2.23,3.68-1.31
	c7.1,15.27,23.48,44.46,27.24,8.36c0.52-12.2,0.29-24.37-0.68-36.51c1.18-2.25,1.97-3.3,4.25-1.5c4.21,6.17,8.87,11.86,13.98,17.08
	c3.38,2.36,6.45,3.84,8.42-0.33c3.28-6.97,3.32-15.51,3.1-23.16c-0.51-17.83-3.72-35.58-7.09-53.01
	c-2.45,23.77-19.16,51.1-46.16,43.54c-5.83,19.45-19.25,18.58-33.9,9.64l-0.96-2.29c-0.55-7.33-0.02-14.71,0.26-22.05
	c4.21,4.63,6.11,14.78,13.65,13.92c8.86-5.68,7.31-19.23,10.42-28.55c1.35,6.21,5.73,20.2,13.55,18.69
	c9.97-2.73,8.16-18.23,10.9-26.35c3.06,4.59,11.23,15.84,17.33,11.73c11.12-7.48,10.66-22.84,11.84-34.65
	c0.93-9.32-4.37-16.88-2.2-25.01c0.82,0.4,1.61,0.83,2.33,1.37c0.69,0.52,1.34,1.05,1.75,1.72c14.83,24.03,21.41,54.82,26.51,82.3
	c2.92,15.71,5.99,33.8,7.53,49.55c0.68,6.95,1.19,13.89,0.66,20.88c-0.04,0.56-0.39,1.11-0.77,1.69
	C513.73,929.02,513.22,929.54,512.68,930.05z"/>
<path class="st14" d="M415.7,951.4c-4.62-18.17-10.78-36.47-11.84-55.47c-0.94-0.44-0.84-1.42-0.75-2.32c0.04-1.4-0.36-3-0.2-4.41
	c-0.46-1.62-0.92-3.38-1.36-5.26c0.06-2.61-0.04-5.63-0.22-8.23c0.56-0.81,0.48-1.53-0.15-2.25c-0.59-2.78-0.58-7.34-0.8-10.28
	c6.41,1.4,14.06,10.31,24.43,4.91c4.63-2.41,7.53-8.08,9.27-15.34c11.71,5.37,22.27,1.69,30.84-6.98
	c11.75-11.88,14-27.58,16.09-44.96c3.84,17.65,17.55,83.55,2.73,92.24c-11.43-0.32-15.43-13.3-23.1-21.03
	c0.24,13.05,4.66,49.07-6.09,56.41c-8.65,5.9-21.18-19.73-24.02-26.56C428.77,915.16,433.79,951.74,415.7,951.4z"/>
<path class="st3" d="M518.52,1068.43l-1.61,1.75c-9.87-0.56-15.15,8.97-18.34,16.97l-2.3,0.63c-17.06-9.45-28.49-30.23-39.47-47.11
	c8.45-2.53-3.03-32.06-3.56-37.86c3.71,3.79,6.35,8.2,9.52,10.26c1.79-0.5,3.52,0.1,5.21,1.8c3.19-5.67,4.71-12.12,4.55-19.35
	l-2.72-15.84c5.63,5.23,7.97,12.07,15.38,14.57c9.63-11.35,7.72-27.08,6.81-40.87c3.41,3.71,8.98,12.83,12.76,6.97
	c5-7.75,6.86-20.7,7.92-30.3c3.17,10.5,4.55,21.53,4.16,33.09c0.74,33.26,0.88,66.53,0.45,99.78
	C519.64,1064.4,522.52,1067.52,518.52,1068.43z"/>
<path class="st3" d="M623.72,1094.37c1.83-0.51,2.02,0.26,0.28,1.19c3.21,1.37,2.98,7.09,2.73,10.37c2.27,1.22,3.74,3.59,4.42,7.12
	l0.63,5.46c1.92-0.12,2.78,0.6,2.99,2.41c0.28-7.36,1.45-14.6,3.5-21.72c-1.97,0.57-2.13-0.31-0.06-1.02
	c0.16-2.55,2.88-3.71,5.09-2.79c3.55-0.26,7.21-0.41,11-0.46l1.55,2.04c3.25-2.61,7.44,4.02,6.65,7.12
	c0.66,0.35,0.64,0.67-0.05,0.94c-2.86,7.25,1.28,15.01-0.3,23.39c-6.3,33.42-27.89,62.86-58.6,77.62l-1.76-113.39
	C610.01,1093.56,616.72,1094.91,623.72,1094.37z"/>
<path class="st3" d="M536.51,1128.89c-4.85-8.16-2.82-18.86,0.33-27.37l2.66-1.14c-0.62-2.68,2.68-4.14,4.03-1.48
	c12.92-8.2,18.16,3.99,18.85,15.35c-0.15,7.11-0.42,14-0.81,20.67l2.96-4.45c1.09-3.39,2.7-5.54,4.84-6.44
	c2.44-5.29,4.58-10.7,6.43-16.25l2.22,0.02c4.45-1.85,4.25-8.11,7.26-12.07c2.64-3.47,8.47-2.72,13.02-1.96l-2.85,108.1
	C552,1181.86,542.92,1135.43,536.51,1128.89z"/>
<path class="st3" d="M731.87,992.66c2.07-2.13,3.91-4.23,6.21-7.07c1.68,1.39,0.78,2.77,1.04,3.95c0.66,0.7,0.75,1.72,0.29,3.06
	c-2.7,9.48-5.74,22.52-3.7,32.28c0.78,3.75,1.79,4.73,4.52,7.09c-12.25,17.82-19.27,40.23-34.63,54.82l-2.46-0.48
	c-3.18-5.77-6.87-11.74-13.06-14.61l-0.72-2.36l0.02-5.83c6.99-23.92,12.92-48.12,17.8-72.6c0,0,1.07-1.64,3.2-4.93
	c2.15,0.48,3.04,2.86,2.68,7.13c2.07,9.98,11.95,4.14,16.45-0.79L731.87,992.66z"/>
<path class="st11" d="M579.98,1086.82c1.3,3.52-0.9,6.29-1.13,9.56l-1.78,1.73c-1.19,0.24-11.33,1.13-11.91,1
	c-1.19-0.27-1.74-0.59-2.66-1.73l-2.22,0.07l-8.82-9.29l-5.03,9.28l-2.9,1.46c-1.38-0.02-2.68,1.34-4.03,1.48
	c-3.74,4.63-15.22-2.26-16.95-6.89c-0.02-2.18-1.52-4.09-2.78-5.85c-1.44,3.34-3.3,4.93-5.15,6.76l-1.05,1.04
	c-0.71,0.7-1.97,0.7-2.99,0.94l-2.2,1.23l-10.45-1.94l-1.41-2.15c0.09-1.74-0.89-4.04-0.26-5.73c3.91-10.47,10.46-21.17,22.25-19.35
	c1.05-1.4,3.29-1.4,6.74,0.01c4.39-2.33,7.88-5.75,12.85-5.89c4.59-0.14,8.73,5.42,12.14,7.37c4.09-1.86,8.02-7.83,13.74-4.65
	C572.46,1069.98,576.8,1078.17,579.98,1086.82z"/>
<path class="st14" d="M665.43,1063.45c0.39-0.64,1.01-1.54,1.55-1.41c3.05,0.74,11.45,4.28,11.78,7.39
	c1.09-1.55,1.87-1.65,3.15-0.22c4.07-2.73,6.56-2.69,7.45,0.13c8.07,2.93,12.22,10.14,16.24,17.45c0.54,1.55-0.19,3.89,0.18,5.49
	c1.21,0.62,1.22,1.81-0.21,2.19c-0.63,0.7-1.24,1.42-2.09,1.86c-1.83,2.18-4.8,2.47-8.89,0.87c-3.5-1.31-6.77-3.24-9.81-5.79
	c-1.1,0.3-1.65,0.44-1.65,0.44c-1.78,3.74-4.76,6.61-8.49,8.36c0.28,3.61-10.36,7.93-12.13,3.87c-2.77-1.92-3.31-6.04-6.65-7.12
	l-2.32-1.24c-0.72-2.9-1.82-5.61-3.29-8.12l-4.61,7.64l-2.33,0.14c-0.97,1.61-3.38,2.45-5.09,2.79c-2.61,2.25-5.21,0.19-3.57-2.81
	c-0.36-0.61-0.69-1.24-0.9-1.9c-1.21-3.89,6.32-20.67,9.02-24.89l3.28-1.96c2.72,0.8,3.87,2.98,5.7,6.04
	C655.55,1068.12,659.91,1063.06,665.43,1063.45z"/>
<path class="st12" d="M785.45,901.51c0.1,14.77-4.51,29.07-8.63,43.03c-16.94,5.29-14.46-55.44-7.19-65.1
	c4.56,10.21,2.1,21.14,11.26,28.19C783.57,906.93,784.37,903.67,785.45,901.51z"/>
<path class="st12" d="M750.87,1010.11c-4.12,6.75-6.02,15.12-10.65,21.87c-12.24,3.2-5.41-38.32-1.11-42.43
	C742.86,988.61,739.38,1010.76,750.87,1010.11z"/>
<path class="st11" d="M646.04,1066.61c-5.12,9.04-9.32,18.54-11.39,28.76c-1.27,2.58-4.24,2.72-5.67,0.2
	c-1.81,2.32-3.18,2.31-4.98-0.01c0.04-0.38-0.23-0.81-0.28-1.19c-0.37-2.44-0.13-4.89-0.08-7.33
	C623.9,1075.58,634.74,1063.29,646.04,1066.61z"/>
<path class="st6" d="M539.5,1100.38c-4.49,8.78-4.4,18.83-2.99,28.51c-9.11-9.3-13.84-22.36-13.96-35.4
	C528.19,1096.27,532.99,1101.04,539.5,1100.38z"/>
<path class="st10" d="M578.84,1096.38l-0.83,11.41c-3.48,5.38-2.88,13.79-8.64,16.23l-1.6-1.92c0.93-7.95-2.49-15.51-6.17-22.36
	l0.9-2.35C568,1097.15,573.34,1095.54,578.84,1096.38z"/>
<path class="st10" d="M510.59,1096.38c-3.84,8.64-6.7,17.12-8.7,27.8c-4.14-10.42-5.89-20.59-5.36-30.67
	C501.29,1094.27,506.12,1094.52,510.59,1096.38z"/>
<path class="st8" d="M703.48,1096.34c-0.11,7.07-0.02,14.32-3.03,21.39c-2.16-11.47-7.54-19.86-16.7-25.66l-2.15,7.04
	c-0.23,2.9-5.84,3.82-6.96,1.11c1.9-4.44,6.46-6.73,9.66-10.78C689.92,1094.63,696.68,1096.4,703.48,1096.34z"/>
<path class="st12" d="M791.05,863.88c-0.94,3.52-0.6,7.22-1.11,10.8C786.76,873.05,786.96,863.44,791.05,863.88z"/>
<path class="st12" d="M402.92,813.85c0.25,1.81,1.24,5.23-1.38,5.25C401.4,817.29,400.28,813.91,402.92,813.85z"/>
<path class="st12" d="M402.91,889.2c-2.72-0.08-1.4-3.45-1.36-5.26C404.19,883.99,403.12,887.39,402.91,889.2z"/>
<path class="st13" d="M681.6,1099.11c-0.45,11.39-6.06,22.51-15.86,30.17c1.2-8.4,1.5-17.38-3.29-24.25
	c-0.19-0.27-0.08-0.67,0.05-0.94c4.46,0.46,8.19-2.15,12.13-3.87L681.6,1099.11z"/>
<path class="st9" d="M677.5,773.29c-1.39,0.09-0.9,1.37-1.42,2.07c-0.5,4.25-2.45,8.67-5.28,11.88
	c-7.56,16.67-12.71,34.67-14.33,52.76l1.09,7.8c-2.32,12.97-3.11,25.98-2.36,39.02l-1.49,3.24c-3.3,6.19-0.08,15.32-0.85,22.02
	l4.66,37.95c0,0-0.58,1.41-1.73,4.22l1.98,5.25c1.47,23.93,6.62,47.47,14.01,70.28c0.95-22.8,1.51-45.6,1.65-68.39l1.23-3.34
	c-0.03-2.26,3.24-7.05,5.16-6.57l1.48,2.25c-0.39,9.19-0.18,18.41,0.62,27.65l-2.04,1.83c1.02,2.79,1.53,4.19,1.53,4.19
	c-4.66,25.38-4.95,50.21-0.88,74.51c1.1,3.85,0.51,6.36-1.77,7.54l-13.34-5.99c-5.76-21.51-13.74-42.41-18.37-64.26
	c-0.75,0.02-1.87-0.04-2.02-0.57c-0.92-3.24-1.65-9.95-1.97-13.53c-1.22-3.61-0.95-6.14,0.84-7.6c-0.47-0.55-0.92-1.35-1.35-2.39
	c-2.49-1.08-2.59-2.3-0.13-3.56c0.01-0.87-0.26-1.62-0.8-2.23c-2.84-0.74-3.55-7.48-0.48-8.18c-1.08-0.94-1.47-2.83-0.97-4.14
	c-3.11-0.71-2.96-4.31-0.14-5.39c-0.41-2.37-0.88-4.75-1.38-7.16c-0.75-0.16-1.86-0.41-1.97-1c-0.55-3-1.44-18.85-1.04-21.53
	l1.85-1.46l-1.93-1.06c-0.05-5.48-0.1-10.96-0.15-16.45l1.91-1.37c-0.49-0.69-0.95-1.39-1.28-2.15c-2.16-4.91,2.55-38.72,3.89-46.68
	l2.3-4.03l1.67-2.2l-1.23-2.88c0.4-3.95,3.12-20.14,4.54-22.71c0.54-0.97,1.61-1.46,2.6-1.85c-0.23-0.82-0.43-1.65-0.49-2.48
	c-0.3-3.73,7.09-23.22,9.54-27.23l3.59-3.21c-0.2-0.7-0.36-1.39-0.39-2.1c-0.2-4.38,14.7-23.71,18.69-28.17l3.55-1.44
	C685.68,761.43,677.07,765.9,677.5,773.29z"/>
<path class="st3" d="M681.91,1069.21c-1.13-0.05,0.05,1.66-3.15,0.22c0.96-6.48-1.62-12.82-2.41-19.71
	c-2.54-22.37,1.55-44.57,3.52-66.53c1.57-1.05,3.67-0.52,6.31,1.59c4.02,0.66,7.78-0.74,11.27-4.19l2.28,0.66
	c1.97-1.56,3.85-3.57,5.91-4.95c0.4,0.98,0.77,1.98,1,3c0.22,1.01,0.43,2,0.32,2.94c-0.64,5.79-1.6,11.53-2.57,17.27
	c-3.4,20.16-8.58,44.2-14.76,63.41C688.52,1066.41,685.36,1068.56,681.91,1069.21z"/>
<path class="st12" d="M720.24,871.02c-2.87,11.45-18.72,49.41-30.3,47.48c-13.97-2.32-12.55-56.3-2.55-69.57
	c3.26,12.44,3.73,27.53,18.63,28.89C712.1,878.38,714.93,875.01,720.24,871.02z"/>
<path class="st12" d="M756.45,890.75c-1.12,7.19-12.57,42.9-21.54,41.47c-13.77-2.2-12.02-60.98-1.5-75.57
	c1.9,9.26,1.02,18.14,5.34,25.91C741.46,889.33,746.89,891.97,756.45,890.75z"/>
<path class="st3" d="M659.43,958.97c0.89,3.76,3.84,4.39,7.76,3.64c2.58-0.49,4.47-3.44,7.47-4.58c0.36,26.57,0.91,53.3-1.93,80.6
	c-9.87-28.53-16.37-56.86-16.94-84.39C657.72,953.1,658.93,954.67,659.43,958.97z"/>
<path class="st12" d="M653.7,890.06c-2.7-16.56,1.27-33.45,2.76-50.06c1.57,5.34,3.23,10.36,8,11.95
	c6.56,2.18,11.02-0.66,18.08-4.04C681.03,853.69,662.46,892.52,653.7,890.06z"/>
<path class="st9" d="M713.19,964.87c2.74,1.34,1.49,8.29-1.13,9.32c-0.66,0.83-0.81,1.19-0.78,2.3c2.96,1.61,1.4,7.7-0.89,9.5
	c-7.09,27.75-11.18,56.53-21.02,83.36c-2.28-0.42-5.1-0.02-7.45-0.13c2.91-2.81,5.98-5.28,7.07-10.04
	c6.34-27.62,14.17-55.23,16.67-82.87c1.92-3.76,4.79-7.78,5.63-11.47C711.78,963.6,712.93,963.4,713.19,964.87z"/>
<path class="st12" d="M731.87,992.66c-4.32,4.46-11.18,10.41-17.6,6.56c-4.21-2.52-2.86-9.22-3.89-13.24
	c-0.74-2.88,1.1-6.62,0.89-9.5c-0.19-0.89-0.09-1.88,0.78-2.3c-0.14-3.15,0.81-6.19,1.13-9.32c-1.5,0-1.08-1.58,0.27-1.99
	c2.31-4.18-0.06-9.47,3.3-14.24C717.41,964.98,716.7,984.54,731.87,992.66z"/>
<path class="st12" d="M699.74,981.25c-2.92,2.3-6.06,4.71-9.3,5.56c-4.5,1.19-7.16-1.47-10.57-3.61c0.91-10.07-2.6-21.59-0.06-31.73
	c1.55-0.87,1.12-3.31,3.2-5.46C689.13,964.87,683.69,969.21,699.74,981.25z"/>
<path class="st12" d="M659.43,958.97l-3.64-4.73c-0.3-14.11-4.57-27.87-2.93-42.16C657.98,925.03,660.32,942.99,659.43,958.97z"/>
<path class="st12" d="M670.8,787.24c1.76-3.89,2.68-8.39,5.28-11.88C678.17,778.27,674.21,785.99,670.8,787.24z"/>
<path class="st11" d="M695.03,732.29c-1.93,7.46-5.81,15.73-10.75,22.14c-7.73,10.04-16.27,20.09-21.84,31.71
	c-7.93,8.05-22.19,12.23-33.4,9.86c-2.14,4.72-5.37,5.59-10.1,4.12c-1.51-0.47-15.09-9-16.01-9.96l-0.55-2.09
	c-9.21-1-11.29-10.12-12.75-17.36c4.44,1,7.01-2.63,10.73-5.15C646.26,734.48,642.18,741.26,695.03,732.29z"/>
<path class="st9" d="M496.3,782.29l2.83,2.59c2.22,5.15,11.43,29.87,10.52,33.1c-0.19,0.67-0.5,1.31-0.85,1.94l1.85,2.38
	c6.13,22.64,11.96,47.1,13.37,70.65c0.05,0.91-0.18,1.84-0.45,2.8c-0.27,0.97-0.68,1.91-1.12,2.83
	c2.81,56.45,4.12,113.4,2.81,169.85c-0.96,0.65-1.06,2.98-3.08,1.58c-0.95-0.65-2.32-1.38-3.66-1.59c1.2-2.28-2-3.27-3.09-4.65
	c-0.35-44.52,1.65-89.81-2.76-133.74c2.09-18.97-2.65-37.46-5.32-56.69c-4.96-35.79-12.69-72.38-31.24-102.45
	c-8.46-13.72-18.3-26.51-29.05-39.8C471.02,740.54,485,761.72,496.3,782.29z"/>
<path class="st15" d="M602.38,788.07c6.72,0.73,21.26,19.88,25.47,5.58c12.43,4.02,23.38-2.6,34.6-7.51
	c-5.06,10.53-8.82,21.92-12.63,32.92l-1.26,1.86c-6.23-2.43-10.85-7.37-13.87-14.83c-2.24,5.94-10.6,26.91-16.54,28.08
	c-5.01,0.99-15.63-13.91-17.06-18.74c-1.29,5.11-2.94,10.38-4.95,15.8c-6.08,12.71-10.8,9.63-14.15-9.23
	c-7.54,26.29-27.71,16.62-31.76-5.58c-1.08,2.59-4.28,9.9-7.68,8.86c-3.29-1.01-2.33-8.92-0.33-11.19
	c-1.25-1.78-1.43-4.18-0.54-7.19c-0.62-3.72-0.04-6.42,1.75-8.11c7.3,0.18,12.91-7.69,17.49-12.68c3.54,4.81,5.78,14.52,12.25,14.29
	c6.04-0.21,8.07-9.68,10.96-13.95c1.62,6.76,5.27,13.81,12.69,14.16C599.87,796.74,601.49,792.28,602.38,788.07z"/>
<path class="st11" d="M543.43,798.79c0.29,5.18,0.6,10.55-1.21,15.3c-4.92,21.91-20.14,16.73-25.3-0.78
	c-2.08,6.15-4.78,8.36-8.11,6.62c-2.82-12.43-8.85-25.51-12.5-37.64c5.05-6.18,8.1-13.86,12.44-21.64
	c3.76,7.97,4.35,17.41,10.55,23.1c3.97,1.15,5.27-4.82,8.78-7.21C527.77,786.34,534.41,795.18,543.43,798.79z"/>
<path class="st9" d="M474.32,575.89c0.18,0.97,0.25,1.95,0.18,2.94l-9.81,10.58l-1.97,2.05c-0.18,1.06-1.29,1.83-1.9,2.75
	l-1.84,2.13c0.17,2.18-2.23,3.2-2.99,4.72c-1.53-0.33-2.8-1.33-3.19-2.88c0.83-1.21,0.9-2.96,2.19-3.92l1.94-2.16
	C460.79,585.28,467.37,579.42,474.32,575.89z"/>
<path class="st13" d="M590.48,726.69c-14.48-34.13-25.7-57.12,1.93-88.26c0.57,1.51,1.1,3.03,1.48,4.59
	c0.39,1.56,0.77,3.09,0.81,4.63c0.7,24.83,0.77,49.97-2.54,74.56L590.48,726.69z"/>
<path class="st9" d="M590.48,726.69c2.67-28.98,3.33-58.94,1.93-88.26c8.81,8.09,15.4,25.4,15.71,39.35
	C608.51,695.61,600.71,717.14,590.48,726.69z"/>
<path class="st15" d="M615.44,546.55c-0.13,0.55,4.69,6.32-10.77,13.28C603.73,552.36,616.98,539.94,615.44,546.55z"/>
<path class="st15" d="M626.62,559.57c-5.82-1.72,0.86-13.46,5.73-12.9C634.48,549.82,631.56,561.03,626.62,559.57z"/>
<path class="st15" d="M591.64,583.88c-3.57-5.9-4.71-13.35-0.21-19.14C595.8,570.29,594.79,577.41,591.64,583.88z"/>
<path class="st15" d="M606.05,582.3c-4.32-5.43-2.45-13.82,3.64-16.54C611.84,571.52,609.96,577.18,606.05,582.3z"/>
<path class="st15" d="M581.96,555.56c-4.21,0.93-5.21-2.86-6.68-5.17c-1.36-2.15-1.29-6.93,2.34-7.56
	C581.46,543.84,582.56,551.29,581.96,555.56z"/>
<path class="st15" d="M570.06,561.32c-6.04-2.05-11.65-7.66-9.43-14.41C566.35,549.51,567.98,555.85,570.06,561.32z"/>
<path class="st15" d="M556.18,545.4c-4.96-2.02-6.33-11.66-1.59-13.73C558.15,533.92,559.46,542,556.18,545.4z"/>
<path class="st15" d="M612.15,537.83c-3.41-1.09-0.92-11.37,3.32-10.49C619.26,528.12,617.3,539.47,612.15,537.83z"/>
<path class="st15" d="M596.1,555.12c-3.15-4.05-2.8-10.4,0.92-14.12C601.04,544.98,600.49,550.87,596.1,555.12z"/>
<path class="st14" d="M572.7,537.14c-2.54-1.53,0.2-9.08,3.02-8.95c3.11,0.15,2.23,4.02,1.66,5.65
	C576.9,535.23,575.87,539.05,572.7,537.14z"/>
<path class="st14" d="M630.22,538.6c-2.76-0.31-1.28-4.82-0.46-6.07c0.81-1.24,3.39-3.38,5.02-1.79
	C637.1,533.01,634.13,539.04,630.22,538.6z"/>
<path class="st15" d="M590.83,539.05c-5.51-1.14-5.8-8.23-2.65-11.68C591.26,530.82,592.05,534.73,590.83,539.05z"/>
<path class="st15" d="M597.34,526.65c1.46-0.82,3.25,0.06,4.38,0.96c0.8,0.64,0.84,2.43,0.03,3.54c-1,1.36-2.96,0.83-3.97-0.31
	C596.98,529.96,595.38,527.76,597.34,526.65z"/>
<path class="st8" d="M735.05,644.86c0.06,1.83,1.47,5.26-1.36,5.27C733.77,648.35,732.52,644.96,735.05,644.86z"/>
<path class="st14" d="M649.81,819.06c-2.99,8.63-3.39,18.63-5.91,27.44c-0.35,0.87-0.84,1.88-1.67,2.2l-1.4,1.78
	c-4.19-1.21-7.53-3.88-10.02-8.01l-4.05,12.91c-9.12,23.27-21.26,13.02-29.08-3.27c-4.44,14.73-14.86,32.61-29.16,14.3
	c-1.44,4.12-3.41,5.58-5.9,4.4c-0.57,0.67-1.27,1.15-2.14,1.31c-6.58,1.16-16.31-20.55-17.52-26.09
	c-2.53,8.55-7.45,13.96-14.76,16.23c2.88,11.41,9.36,36.67,24.02,35.33l1.74,1.31c3.77-6.03,6.69-12.49,8.75-19.39l1.15-0.8
	c-0.12-1.68,1.99-1.67,2.36-0.12l2.06,0.6c2.5,17.13,19.97,44.82,29.95,14.8l4.96-19.56c2.02-1.65,3.29-2.33,4.61,0.27
	c3.32,11.36,9.34,19.56,18.05,24.6l4.58,0.85c2.98-0.54,5.28-0.07,6.9,1.43l0.18,18.88c-1.23,3.49-6.5,2.39-9.63,1.62
	c-8.98-2.19-14.6-9.74-19.49-17.04c-5.83,24.93-28.2,29.51-41.33,6.81l-8.39,5.54c-4.74,2.48-13,6.78-17.48,3.55
	c-2.15-10.49-9.96-17.29-18.71-22.33c-1.32-26.51-7.81-52.92-13.65-78.66c4.74-0.93,5.57-6.7,8.01-11.33
	c3.48,6.28,5.42,16.81,12.91,17.97c8.02,1.24,7.76-8.85,12.5-12.48c-0.57,2.73,0.04,6.95,0.69,9.95c4.59-3.42,5.13-9.32,8.14-12.95
	c2.28,8.86,5.39,24.44,16.26,24.83c9.98,0.36,11.92-13.67,15.35-21.26c2.04,7.49,2.28,16.24,6.5,23.46
	c8.26-8.77,8.49-19.49,10.95-29.98c3.91,10.09,8.63,19.49,17.77,24.41c8.55-8.42,11.99-19.76,16.18-30.43
	C639.99,808.8,641.78,819.21,649.81,819.06z"/>
<path class="st11" d="M637.49,920.44l1.16,23.99c0.51,2.3,0.97,4.68,1.38,7.16c0.1,1.6-0.36,3.89,0.14,5.39
	c0.56,1.43,0.3,1.9-1.09,1.12l0.08,3.07l-5.84,9.69l-2.45,0.69c-0.34-6.29-2.98-12.93-4.66-19.45c-3.51,6.55-5.48,16.62-13.01,18.35
	c-8.02,1.84-15.2-6.52-18.39-12.75l-10.95-21.44c-5.53,6.63-12.45,20.25-19.88,20.09c-10.87-0.24-20.44-23.83-22.82-35.45
	c9.78-1.14,17.78-4.79,26.23-12.1c6.27,10.14,14.3,19.05,25.5,14.93c9.64-3.55,11.34-14.1,15.3-23.59
	C614.94,913.43,623.93,922.85,637.49,920.44z"/>
<path class="st14" d="M630.87,971.56c2.04-4.53,5.3-9.82,8.2-13.45c0.81,0.65,1.5,1.66,2.06,3.02c-0.2,2.72,0.52,5.46,0.48,8.18
	c0.68,0.42,0.95,1.16,0.8,2.23c0.02,1.15,0.34,2.39,0.13,3.56c0.44,0.69,0.89,1.49,1.35,2.39l3.15,21.7l-3.33,17.88
	c-9.23-2.94-10.95-11.05-15.69-19.36c-3.99,9.45-5.56,20.8-15.23,25.23c-9.29-7.71-12.66-19.39-17.71-29.97
	c-4.9,7.21-5.19,19.32-13.83,22.42c-8.82-0.85-9.87-14.04-14.07-21.9c-4.88,6.08-3.51,15.65-11.73,19.12
	c-11.57-15.9-12.89-36.18-12.41-54.21c6.29,8.98,10.74,19.17,21.28,17.54c10.94-1.7,15.61-13.37,20.8-23.33
	c3.51,14.72,13.17,38.81,31.42,34.64C624.65,985.42,627.99,977.96,630.87,971.56z"/>
<path class="st8" d="M462.77,1013.07c7.3-1.42,7.19-11.19,9.76-17.55c1.07,6.26,1.73,14.1-2.51,19.95
	C467.47,1018.98,464.53,1014.21,462.77,1013.07z"/>
<path class="st10" d="M634.65,1095.37c0.68,1.46,2.05,2.36,3.57,2.81c-0.5,0.37-0.13,0.68,0.06,1.02l-4.29,17.52l-2.2,1.79
	c-2.39-3.96-3.9-8.26-5.05-12.58c-0.27-3.18-0.22-6.33,0.17-9.47l2.08-0.89C630.86,1095.36,632.75,1095.22,634.65,1095.37z"/>
<path class="st9" d="M631.78,1118.51c0.76-6.77,3.67-13.12,6.49-19.31c1.24,10.07-5.12,20.33,1.46,33.83
	C632.19,1130.5,634.58,1123.14,631.78,1118.51z"/>
<path class="st9" d="M655.86,1096.97c-4.08-0.67-9.57,1.7-12.55-1.58l7.44-12.31C653.02,1088.36,654.74,1092.5,655.86,1096.97z"/>
<path class="st14" d="M628.98,1095.57c-0.6,3.42-0.53,7.3-2.25,10.36c-0.89-3.36-3.1-6.59-2.73-10.37
	C625.66,1095.47,627.32,1095.48,628.98,1095.57z"/>
<path class="st9" d="M562.49,1097.38c4.35,7.79,8.92,17.55,6.88,26.64c-1.33,5.93-6.5,12.58-10.34,17.25
	c-0.35-10.47,5.84-35.74-4.72-42.15c-3.39-2.06-7.18-0.18-10.78-0.23l7.58-14.9C554,1089.91,559.85,1092.66,562.49,1097.38z"/>
<path class="st15" d="M642.22,848.7c-1.46,17.61-5.08,35.12-4.91,52.86c-20.01,3.6-24.67-11.8-31.98-27.62
	c-3.12,9.38-5.33,32-15.14,34.72c-13.97,3.88-22.28-19.79-23.98-30.1c-0.76-1.29-1.54-1.25-2.36,0.12
	c-0.59,5.76-4.05,17.16-9.9,20.2c-2.49,0.53-2.66-0.98-1.92-3.11l7.45-16.05c0.71-3.33,1.76-6.31,3.13-8.93
	c3.01-1.39,3.74-5.1,5.81-8.16c3.59,4.55,8.75,12.35,14.63,9.16c9.08-4.91,10.59-16.3,14.87-25.26c3.52,8.68,7.97,20.81,17.87,20.38
	c8.13-0.36,11.08-21.72,14.6-28.58C634.15,843.63,636.85,848.46,642.22,848.7z"/>
<path class="st12" d="M640.03,951.6c-2.95-0.65-1.27-4.78-1.38-7.16C641.87,945.02,639.88,949.18,640.03,951.6z"/>
<path class="st12" d="M641.13,961.13c-0.83,0.55-1.39-0.36-1.62-0.84c-0.38-0.78-0.43-1.49-0.44-2.18c0.32-0.41,0.75-0.73,1.09-1.12
	C641.17,958.36,641.26,959.4,641.13,961.13z"/>
<path class="st11" d="M562.62,870.79c2.79,8.08-11.56,25.92-8.66,28.09c-15.2,7.87-27.39-30.09-28.12-38.32
	c10.96-0.48,12.71-10.89,17.33-19.3C548.23,852.83,550.61,867.38,562.62,870.79z"/>
<g>
</g>
<g>
</g>
<g>
</g>
<g>
</g>
<g>
</g>
<g>
</g>
<g>
</g>
<g>
</g>
<g>
</g>
<g>
</g>
<g>
</g>
<g>
</g>
<g>
</g>
<g>
</g>
<g>
</g>
</svg>
