<?xml version='1.0' encoding='UTF-8'?>
<svg xmlns="http://www.w3.org/2000/svg" id="Layer_1" viewBox="0 129.9 1200 1540.4" xml:space="preserve" width="1200" height="1800">
<style type="text/css">
      .cls-1 {
        fill: #1b1433;
      }

      .cls-2 {
        fill: #1d2b4f;
      }

      .cls-3 {
        fill: #48415c;
      }

      .cls-4 {
        fill: #b12e61;
      }

      .cls-5 {
        fill: #895e55;
      }

      .cls-6 {
        fill: #c44755;
      }

      .cls-7 {
        fill: #3b858c;
      }

      .cls-8 {
        fill: #e23b55;
      }

      .cls-9 {
        fill: #a26f6d;
      }

      .cls-10 {
        fill: #c46e39;
      }

      .cls-11 {
        fill: #df5f4a;
      }

      .cls-12 {
        fill: #5aa1a4;
      }

      .cls-13 {
        fill: #ce936a;
      }

      .cls-14 {
        fill: #f29052;
      }

      .cls-15 {
        fill: #f5ca95;
      }

      .cls-16 {
        fill: #ffffff;
      }

    </style>
<path class="cls-4" d="M1200,128.9v106.39l-0.7,1.91l-113.52-1.87c-9.38-0.24-17.4,4.72-24,10.97c-6.79,8.31-14.59,14.7-23.4,19.17  c-25.35,0.25-50.74,0.17-76.17-0.23c-6.6,2.87-12.15,7.92-16.65,15.15c-5.13,5.83-11.91,9.83-19.81,10.24l-96.68,6.25l-1.29-1.84  l-15.08,0.44l-100.93-7.32c-93.08-0.54-185.84-3.88-278.28-10.03c-29.27-0.48-58.45-1.5-87.54-3.07c-3.79-1.09-7.12-2.63-9.99-4.62  c-0.85-1.84,0.02-3.05,2.6-3.64c-11.65,2.05-23.04,5.89-34.17,11.55c-11.23-5.49-22.73-9.08-34.51-10.78  c-7.9-0.11-7.32,0.72,1.75,2.49l0.83,2.15l-0.75,2.08c-5.57,1.42-11.02,2.04-16.36,1.86c-1.38-1.82-3.46-1.63-6.22,0.57  c-5.72-3.61-12.46-4.86-20.2-3.76c-9.87-2.25-20-3.04-30.41-2.37c-19.23-2.98-38.4-4.04-57.5-3.19l-3.63-1.39l-2.8-1.18  c-9.82-17.18-29.41-21.75-48-24.28c-26.3-3.58-52.66-6.22-79.17-7.69c0,0-2.47-0.82-7.42-2.45V128.64l0.93-1.92  c399.25,0.09,798.54,0.17,1197.87,0.26L1200,128.9z" />
<polygon class="cls-16" points="0,128.64 0,0 1200,0 1200,128.9 " />
<path class="cls-16" d="M411.63,1671.33l6.5-1.91c83.72,0.12,167.34,0.24,250.86,0.37l1.19,1.92c5.54-2.98,14.44-3.15,19.93-0.17  l5.81-1.92c12.55-0.01,25.09-0.02,37.62-0.03l1.14,1.92l5.79-1.91c77.35,0.08,154.62,0.15,231.82,0.23l1.18,1.92l4.97-1.94  c28.41-0.11,56.8-0.21,85.15-0.32l1.17,1.92l4.52-1.9c43.21,0.15,86.39,0.3,129.54,0.44l1.17,1.92V1800H0v-127.68l0.66-1.92  c0,0,66.24-0.2,198.73-0.61l1.18,1.92l7.66-1.92c50.62-0.01,101.16-0.02,151.62-0.03l1.18,1.92l7.11-1.97  c14.12-0.09,28.22-0.19,42.32-0.28L411.63,1671.33z" />
<path class="cls-3" d="M816.95,1340.97c-0.34,1.56-1.76,2.57-4.26,3.03l-3.41,2.54l-0.93,64.17l-1.95,2.5  c-2.42,2.68-4.91,5.36-7.93,7.37c-90.76,54.2-182.7,108.32-276.21,159.94c-2.43,1.34-4.99,2.45-7.57,3.54  c-2.59,1.09-5.22,2.06-7.88,2.99l-1.93-0.86l-1.2-72.3c-98.35,51.67-196.75,103.61-295.21,155.83l-7.88,2L0,1672.32v-69.12  l1.24-2.68c118.81-54.47,237.77-109.01,356.88-163.62l8.7-1.88c-0.15-2.55,0.82-2.46,1.62-0.03c0.64-0.53,1.43-1.01,2.37-1.44  l1.34-2.12c6.49-2.21,12.91-4.69,19.24-7.45l2.14,1.45l2.2,1.44c1.66,5.75,2.42,11.55,2.28,17.42c-4.41,3.71-9.45,6.67-15.14,8.89  c49.56,19.86,99.74,38.33,151.17,52.8c0.81-4.38,2.42-8.83,4.82-13.33c0.74-3.86,2.31-6.7,4.72-8.51c2.42-2.18,4.93-4.33,7.82-5.86  c61.45-32.51,121.68-64.67,181.46-97.32c12.47-5.42,24.4-11.74,35.79-18.97l-59.7-5.52c-15.96-2.33-59.4-12-59.26-32.46  c0.02-2.6,0.13-6.12,3.26-6.04l4.07-0.73c20.26,7.67,40.86,12.93,61.79,15.79c20.22,0.16,40.38-2.26,60.47-7.26l36.99,12.91  L816.95,1340.97z" />
<path class="cls-5" d="M1200,1341.97v140.79l-1.53,3.77l-218.25,182.08c-1.83,1.62-4.08,2.66-6.75,3.13l-238.79-0.24l-0.36-2.1  c154.51-109.42,309.04-218.85,463.58-328.3L1200,1341.97z" />
<path class="cls-3" d="M1200,1205.74v47.86c-2.94,2.71-5.97,5.38-9.4,7.46c-72.98,44.15-144.66,89.25-213.9,134.57l-0.51,1.34  c6.39,2.46,8.68,8.4,7.19,14.92c-5.55,24.32-52,30.6-72.83,25.8l-167.74,106.07c-16.43,33.97-34.37,67.94-53.83,101.89  c-5.05,9.87-11.32,18.56-18.8,26.07l-258.55-0.38c3.11-2.46,6.23-4.89,9.44-7.21c3.2-2.32,6.42-4.61,9.77-6.67  c63.86-39.23,127.77-78.46,191.92-117.23c101.65-61.44,209.25-125.02,310.86-178.56c87.26-52.59,175.39-104.92,264.39-156.98  L1200,1205.74z" />
<path class="cls-5" d="M1200,1253.6v69.71l-19.07,14.17c-157.48,106.28-314.35,213.46-470.61,321.53l-20.2,12.52  c-6.44,0.01-13.41,0.18-19.93,0.17c16.07-24.26,30.61-48.99,43.96-75.33l27.33-53.94L910.1,1435.7  c21.92,3.06,44.31,1.72,61.91-11.12c7.69-5.61,13.17-15.66,7.68-23.1c-1.57-2.13-5.14-2.18-5.32-4.25c-0.2-2.28,1.69-4.09,3.78-5.42  l95.06-60.36C1115.35,1304.69,1156.74,1277.45,1200,1253.6z" />
<path class="cls-2" d="M79.94,647.93c0.32,4.09,1.13,7.9,2.42,11.44l-1.37,6.7c3.1,0.2,2.43,6.5-0.4,6.72l1.92,0.67l-0.28,101.43  c2.37,0.27,3.48,1.18,3.36,2.75c5.13,0.09,10.22,0.89,15.27,2.41l22.73,4.06l1.13,2.23l1.1-1.71l88.28,21.11  c24.55,4.77,49.14,9.17,73.78,13.18l3.94,1.85l2.89-0.88c20.42,2.58,40.91,4.78,61.49,6.6l0.28-40.77l0.58-1.29  c4.99-1.12,10.19-1.39,15.61-0.8c4.44,0.52,6.36-0.61,5.76-3.39c-1.04-2.71-0.84-4.61,0.63-5.71c-0.75,0-1.91-0.21-1.91-0.68  c-0.41-28.48,0.43-57.79,1.26-86.17c4.12-5.86,8.44-3.28,9.93,3.07l-0.33,82.73l-1.92,1.15l1.88,1.16l-0.34,7.46l28.35,0.35  c1.52,1.86,2.27,2.78,2.27,2.78l-0.66,42.93c7.11,1.61,7.18,0.53,7.11-6.42c-0.57-4.13-0.62-8.16-0.13-12.1  c6.04-2.12,15.41-3.07,20.32,0.8c0.49,5.85,0.7,11.74,0.65,17.67l16.11,0.32c5.13,0.55,6.47,1.23,5.02,6.51  c-3.72,13.6-23.51,37.09-33.24,48.36l-3.39,1.32l-0.91,1.92c0,0-124.96,0.4-374.87,1.21l-1.21-1.92L51,887.1  c-15.2-36.87-30.41-73.74-45.62-110.63l1.33-1.82l-2.37-1.04c0,0-1.45-4.43-4.34-13.29v-2.88c0.94-2.94,9.8-1.83,10.35,1.14  c0.67,0.75,1.14,0.9,2.14,0.97c0.42-1.8,1.12-1.71,1.67,0.08c1.12,0.36,2.23,0.83,3.32,1.43c0.27-2.85,4.43-2.34,4.75,0.34  c1.82-1.78,2.2-1.59,1.8,0.91c0.86-0.95,1.69-1.39,2.51-1.34l46.11,11.8l0.17-87.64l1.92-4.45c-1.49-0.47-1.81-2.42-0.97-5.84  c-2.86-0.2-2.46-4.41,0.2-4.82c-0.45-0.96-0.87-1.93-1.17-2.94c-0.29-0.98-0.54-1.94-0.55-2.91c-0.35-32.35-0.66-64.82,0.78-97.16  c-0.15-3.73,2.13-22.39,3.81-21.58c1.13,0.54,2.38,3.57,3.03,5.31l1.85,19.52c0.13,24.33,0.1,48.65-0.11,72.96L79.94,647.93z" />
<path class="cls-11" d="M228.72,1059c3.57,1.75,0.67,7.3-0.86,10.17c-1.18,2.22-2.75,4.21-4.34,6.16  c-36.32,39.52-62.41,92.19-84.57,141.87l-2.5,3.06l-1.81,1.92c-44.5-0.03-88.99-0.07-133.48-0.1L0,1220.16V1032l0.89-1.92  c24.29,0,48.58,0.01,72.88,0.01l1.15,1.92l1.92,1.12c-0.01,11.83-0.02,23.66-0.03,35.49l-1.92,1.4l-3.08,2.05  c-18.92-0.81-37.07,1.15-54.43,5.88c17.9,3.38,36.14,4.72,54.72,4.02l2.97,2.1l1.3,4.17c0.45,25.9,0.92,51.81,1.43,77.74l1.9,0.59  c1.12-26.79,1.42-53.62,0.89-80.48l1.06-2.22l1.21-2.04c3.26,0.55,62.32-4.42,60.07-7.54c-19.31-3.31-38.95-4.35-58.92-3.11  l-3.41-2.01l-1.92-1.12c0.02-11.51,0.05-23.02,0.07-34.54l1.92-1.4c0.07-0.76,0.3-1.9,0.84-1.94c11.19-0.85,24.85-1.08,36.11-0.87  c3.69-0.76,6.05-0.18,7.07,1.75c0-0.75,0.22-1.91,0.68-1.91c34.24-0.25,69.77,0.55,103.77,1.79l1.03,2.07l0.44,24.57L228.72,1059z" />
<path class="cls-4" d="M180.48,1430.69l1.22,1.44l183.93,0.97l1.18,1.93L0,1603.2v-168.96l0.67-1.92  c35.93,0.06,71.88,0.12,107.83,0.19l1.17,1.92l1.7,1.23l-1.69,7.82l19.71-11.97l2.18,0.92c2.57-1.01,5.05-1.69,4.99,1.84l1.23,1.84  l-7.04,14.22c15.8-10.29,23.7-15.43,23.7-15.43l3.89-0.76c2.93-0.98,8.84-1.31,10.32,1.78c3.47-2.75,7.06-4.8,10.78-6.17  L180.48,1430.69z" />
<path class="cls-14" d="M1200,417.75v240.64l-2.29,1.84c-15.31,3.99-30.57,8.29-45.78,12.9l-5.6-0.02c-3.4-4.46-6.42-9.16-8.83-14.23  c-21.47-45.07-42.4-90.41-60.51-136.95l-2.02-8.18l-1.49-0.31c-10.1-25.13-20.33-50.88-30.7-77.25  c9.56-14.12,28.31-22.67,45.15-23.03c33.47-0.72,68.34-0.05,101.81,2.23C1193.25,415.63,1196.66,416.68,1200,417.75z" />
<path class="cls-14" d="M1148.27,905.88l0.93-1.9c16.55,0.37,33.12,0.74,49.68,1.11l1.11,1.95v124.65l-0.68,1.92  c-40.25-0.1-80.48-0.47-120.69-1.1c-3.43,0.15-5.52-0.94-6.26-3.26l-1.92-0.89c0.02-21.69,0.03-43.39,0.05-65.1l1.92-1.15  c2.46-1.43,3.7-2.14,3.7-2.14c24.22,0.57,48.22-0.92,72-4.48c-23.74-2.99-47.65-4.03-71.75-3.12c0,0-1.26-0.69-3.79-2.07l-1.94-1.05  c-0.09-5.48-0.17-10.97-0.26-16.46l1.9-1.38c0.04-1.16-0.24-2.24-0.83-3.23c-2.3-0.92-4.54-2.05-6.72-3.39  c-0.9-0.08-1.57,0.19-2.01,0.79c-0.11,2.63-0.83,2.43-1.77,0.04l-3.99,0.12c-29.58-7.99-62.66-6.49-92.67-1.22l-6.2-0.08  c-0.57,1.54-1.07,3.15-1.49,4.84l-0.5,92.92l-1.93,1.15l-2.41,2.15c-12.09,1.5-24.13,2.3-36.13,2.41  c-17.84-1.43-35.66-2.04-53.46-1.82c-3.34-0.41-10.89-1.66-7.82-5.61l1.93-2.35c2.35,0.24,42.28-5.81,38.93-7.64  c-2.31-1.26-5.47-1.81-8.07-2.26c-53.12-5.47-108.6-6.98-162.77-6.84l-6.31-1.08c-2.52-2.45-1.04-9.93-0.14-13.56  c0.21-3.6,1.5-5.52,3.89-5.77c6.47-1.61,9.7-2.41,9.7-2.41c40.68-0.97,81.35-1.48,122-1.54l4.9,1.03c3.8-2.39,7.22,3.5,8.48,6.92  c2.83-1.21,7.52,6.15,5.69,8.58l3.15,1.74c3.64-4.75,5.41-9,4.17-15.14l1.53-2.14c0.06-0.89,0.42-1.93,1.23-2.03  c5.42,0.69,31.02-2.08,23.66-12.28c-3.96-5.49-22.51-5.18-29.03-4.91l-1.54-1.84l-2.14-0.63l-5.57-10.43  c-1.45-2.36-1.26-4,0.59-4.92l1.84-2.06c11.05,0.86,21.78,0.23,32.19-1.92l-6.77-26.98l1.5-1.84c3.61-0.62,7.22-1.21,10.85-1.65  c3.63-0.44,7.25-0.86,10.88-0.99c68.76-2.55,138.64-3.59,207.42-2c3.63,0.08,7.25,0.44,10.87,0.83  C1141.05,904.77,1144.67,905.31,1148.27,905.88z" />
<path class="cls-8" d="M136.46,1220.27l1.5,1.49l-16.13,44.15l21.35-27.49c3.57-0.23,4.34,0.86,2.69,4.98  c-13.52,38.45-25.3,77.41-35.32,116.87l27.28-41.27c1.56-0.41,2.66,0.42,3.61,1.69l-29.61,113.1l-2.15,0.64L0,1434.24v-214.08  L136.46,1220.27z" />
<path class="cls-11" d="M1200,235.29v86.43l-0.66,1.92c-64.31,0.33-128.63,0.65-192.96,0.98l-1.19-1.91  c-2.88,0.87-2.41-12.38-2.11-13.06c0.32-0.71,1.16-1.06,1.9-1.36c0.21-1.27-0.08-2.27-0.85-3.02c-0.54,0.85-1.52,1.33-2.95,1.44  c-1.65,4.69-1.76,9.68-0.35,14.98l-1.67,1.59c0.01,2.56-0.86,2.48-1.71,0.09c-8.46,2.52-17.38,3.37-26.76,2.55  c-52.68-2.02-105.73-3.09-159.16-3.21c-51.37,1.08-102.74,1.31-154.12,0.7c-10.19,0.41-9.53-1.54,1.98-5.85  c50.08-8.82,100.38-16.08,150.89-21.8l17.51-0.73l97.82-6.33c21.55-1.39,23.59-25.64,38.16-25.49l71.09,0.76  c15.4,0.16,25.74-30.99,50.94-30.57L1200,235.29z" />
<path class="cls-14" d="M216.93,475.34c1.06,1.96,0.78,3.83,0.32,5.87c-4.81,21.42-10.45,43.03-19.22,63.11  c0.61,0.29,1.07,0.53,1.04,0.64c-7.17,25.88-16.23,53.22-25.33,78.51c-0.08,0.22-0.58,0.28-1.2,0.31l-1.5,2.31  c1.21-0.05,1.46,0.7,0.76,2.27c9.68-26.85,18.58-54,26.68-81.44l2.55-4.56l-0.45-2.43c6.79-19.67,12.45-39.65,16.96-59.93l1.61-1.98  c0.5-2.89,7.4-2.89,8.13-0.02l1.92,0.67c0,52.83,0,105.68,0,158.53l-1.92,1.18l-0.67,2.31c-20.91,8.06-41.82,16.11-62.74,24.17  l-1.77-1.38l-1.92-1.08c-1.16,3.14-3,4.78-5.49,4.92c-0.56,0.66-1.14,1.29-1.81,1.82c-0.63,0.5-1.27,0.95-1.99,1.18  c-16.3,5.27-49.6,8.72-66.2,5.01c-1.61-0.36-2.92-1.47-4.12-2.56c0-2.12,0.64-4.68,0.4-6.72c0.03-3.68,0.98-6.36,2.87-8.04  c26.91-50.21,54.23-103.26,76.5-157.71c0.23-1.27,0.65-1.64,1.27-1.12c0.9-3.59,8.46-21.09,11.34-22.89  c0.27-0.17,0.61-0.21,0.98-0.21l1.41-1.95c13.46-0.24,26.93-0.48,40.4-0.72L216.93,475.34z" />
<path class="cls-14" d="M170.83,475.33c1.81-0.19,1.45,0.15,0.15,1.33c0.31,0.7,0.51,1.35,0.3,1.82c-2.93,6.55-7.06,13.86-10.8,19.76  c0.67,0.87,0.55,1.22-0.13,2.08c-22.45,54.38-48.92,107.06-77.32,158.57l-1.59-0.82l-1.51-10.14c-1.96-33.06,3.29-66.77-2.72-101.78  c-6.16,42.18-1.53,83.37-3.24,123.88c-0.55,0.48-1.12,0.93-1.75,1.26c-0.61,0.32-1.18,0.61-1.74,0.59  c-6.96-0.24-13.79-1.48-20.57-2.98c-14.96-3.3-32.49-8.8-47.18-13.54L0,652.8V475.2l0.67-1.92c56.32,0.04,112.65,0.08,168.98,0.13  L170.83,475.33z" />
<path class="cls-6" d="M1200,321.72v96.03c-36.23-1.53-72.47-3.44-108.98-2.79c-18.57,0.33-34.91,7.23-46.55,21.38  c8.48,16.6,12.13,33.16,18.69,48.97l11.8,28.44c0.03,2.87-1.54,2.42-2.83,0.18c-1.01-1.18-1.98-2.39-2.84-3.67  c-0.85-1.27-1.68-2.54-2.24-3.92c-9.02-22.26-17.68-44.85-25.9-67.34l-0.43,1.85c-2.08,2.59-13.3,5.84-17.08,6.5  c-5.33,0.94-14.89,2.11-18.42-2.02l-1.92-0.67c-0.01-40.26-0.02-80.52-0.03-120.79l1.92-1.17L1200,321.72z" />
<path class="cls-1" d="M1200,1186.31v19.43l-161.71,95.28l-103.74,62.31l-33.98,18.26c-166.89,89.65-327.23,192.02-488.94,289.74  l-50.59,0.34c4.93-3.87,9.9-7.75,15.31-10.94c40.33-23.8,80.76-47.6,121.74-70.19l8.73-3.5c57.93-32.89,116.98-64.6,174.32-99.45  c41.86-25.44,85.19-48.27,125.27-74.39c2.03-3.62,5.2-6.33,9.51-8.14c25.98-13.3,51.15-27.91,75.5-43.83l5.08-1.48l0.8-2.08  l23.31-2.58c11.03-2.26,20.66-6.58,22.19-19.04l2.09-1.62l4.3-4.21c25.42-14.16,50.41-29.07,74.98-44.74l173.86-100.23L1200,1186.31  z" />
<path class="cls-11" d="M137.39,266l2.44,0.61c2,4.49,4.24,8.73,6.72,12.71c39.41-5.83,87.42-5.5,125.5,7.51  c7.89,2.7,15.92,6.19,21.93,12.02c36.21,2.29,72.65,6.35,109.34,12.19l31.26,6.92c4.59,0.96,4.01,2.54-1.74,4.74  c-17.91,0.51-35.83,0.28-53.74-0.69l-140.79,0.71l-1.19-1.91l-1.34-0.13c-1.02-4.55-1.22-9.46-0.62-14.72  c0.49-4.13-0.9-5.88-4.18-5.25c-0.49,6.37-0.75,12.93-0.78,19.69l-1.95,1.33l-4.61,1.08c-39.54,0.27-79.11,0.7-118.69,1.29  l-9.11-2.01l-0.69,1.91c-31.33-0.47-62.67-0.94-94.02-1.42L0,320.64V230.4c32.75,2.33,65.61,4.19,98.17,10.14  C115.17,243.65,130.06,251.1,137.39,266z" />
<path class="cls-11" d="M204.21,384.86c0.83,0.05,1.66,0.47,1.49,1.01c-0.83,2.66-2.49,6.87-3.98,8.67l0.7,0.45  c-9.3,26.59-19.17,52.98-29.62,79.18c0,0-0.65,0.39-1.96,1.16L0,475.2v-90.24l0.67-1.92c67.44-0.03,134.89-0.06,202.35-0.1  L204.21,384.86z" />
<path class="cls-3" d="M1200,1133.59v52.72l-174.88,100.82c-27.23,15.7-52.62,34.36-80.24,47.28c-1.65-1.38-2.52-3.59-2.62-6.63  c-1.59-2.58-1.97-4.8-1.16-6.68l-5.9-7.44l0.72-2.13c-1.01-2.55,0.55-4.73,4.67-6.55c18.55-7.42,34.93-25.74,29.67-46.87l1.25-2.4  l-0.34-2l69.07-37.94l-20.02-6.71l-0.73-2.27c-2.96-1.35-2.23-4.23,1-3.88l1.12-2.63l44.8-20.88c2.16-1.67,4.17-3.48,6.02-5.43  l1.7-1.73c10.98,3.6,21.97,6.13,32.96,7.59l1.51,1.69c1.44-0.77,2.84-1.65,4.2-2.66l-0.29-2.01c0,0,28.52-14.82,85.56-44.45  L1200,1133.59z" />
<path class="cls-2" d="M1200,1482.76v67.71l-1.35,3.78c-42.69,38.17-86.47,77.32-129.19,115.52l-4.69,1.61l-91.3,0.34L1200,1482.76z" />
<path class="cls-2" d="M1200,1323.31v18.66L734.68,1671.5l-44.57,0.04C858.84,1553.89,1028.48,1436.75,1200,1323.31z" />
<path class="cls-13" d="M1200,1051.9v81.7l-87.19,45.3c-1.19,0.95-2.59,1.83-4.2,2.66c-9.34,2.08-25.81-6.59-36.17-7.56  c-1.49-3.64-2.23-5.46-2.23-5.46c-0.38-18.67-0.08-37.4,0.51-56.06c0.03-0.93,0.31-1.86,0.63-2.8c0.32-0.97,0.77-1.89,1.25-2.81  l0.91-2.48c41.56-17.93,83.12-35.87,124.67-53.8L1200,1051.9z" />
<path class="cls-4" d="M95.84,322.08c13.7,2.47,27.95,13.99,31.82,27.29c23.67-1.07,51.71,0.65,75.37,3.3  c3.19,0.36,6.23,1.51,9.19,2.7l1.73,2.47c-1.67,8.66-4.11,17.11-7.3,25.38l-2.44,1.64L0,384.96v-64.32L95.84,322.08z" />
<polygon class="cls-5" points="1200,1671.86 1064.77,1671.4 1200,1550.48 " />
<path class="cls-14" d="M45.07,904.43l0.48,2.64c-5.54,17.4-13.61,35.29-21.76,51.8c-2.52,5.11-7.69,6.81-12.94,7.46l5.33,4.33  l51.39-5.07l1.32,1.8c0.79-0.56,1.6-1,2.43-1.31c0.51-2.58,2.32-2.09,3.37,0.05c2.42,0.55,2.77,2.92,1.06,7.13l1.92,0.88  c0.01,18.83,0.06,37.68,0.13,56.52l-1.92,1.16c-0.11,0.88-0.43,0.92-0.95,0.18L0,1032V904.32l0.89-1.92  c14.34,0.04,28.69,0.07,43.04,0.11L45.07,904.43z" />
<path class="cls-11" d="M1200,1031.69v20.21l-127.42,54.98c-1.05-4.64-1.92-9.34-2.1-14.11c-0.79-20.99-0.87-42.79,1.88-63.52  c5.82,1.89,11.65,1.67,18.32,1.71L1200,1031.69z" />
<path class="cls-15" d="M1200,776.13v130.92l-51.73-1.16l-2-0.61l1.23-17.22c1-5.65-0.32-9.49-3.96-11.51  c-1.35,0.09-2.75,0.05-4.22-0.11c-0.09,0.75-0.33,1.86-0.88,1.92c-4.51,0.45-13.11,0.3-17.69-0.08c-3.15,0.59-5.16-0.05-6.02-1.95  c-10.38-0.49-20.76-0.97-31.16-1.44c-0.59,2.98-8.75,2.58-9.4-0.31c-3.93-0.6-4.77-3.1-1.21-5.22c15.4-0.49,30.81-0.69,46.22-0.62  l1.36-0.61c0.08-0.75,0.3-1.86,0.84-1.93c4.48-0.6,20.98-0.89,25.25-0.25l1.41,1.91l1.09-1.05c-0.9-0.21-1.65-0.74-1.75-1.69  c-0.64-6.22,13.54-6.28,17.82-5.88l-16.34-1.52c-4.57-0.55-3.07-11.55,0.4-12.63l3-1.97l24.37-1.52c-1.03-2.41-2.48-4.56-4.36-6.45  l0.81-2.01c-2.55-0.98-6.07-7.11-3.89-9.46l-2.54-1.78c-3.31-7.94-7.13-15.65-11.47-23.12l0.66-3.1c-1.7-1.45-1.69-3.51,0.03-6.18  l5.41-10.98l2.34-0.81l1.64-1.99c11.18-0.48,22.36-0.97,33.53-1.45L1200,776.13z" />
<path class="cls-8" d="M74.75,680.68l-0.16,94.57l-50.55-12.94l0.04-1.93c7.13-10.61,14.13-21.19,21.01-31.73  c-0.82-0.84-0.39-1.76,0.12-2.69c7.7-12.9,15.17-26.03,22.42-39.4C69.33,682.82,71.7,680.86,74.75,680.68z" />
<path class="cls-8" d="M73.98,670.02l-0.2,4.82l-0.46,3.59c-8.51,12.81-16.31,26.07-23.4,39.8l-1.93,0.72l-1.8,2.18  c0.98,0.98,0.65,2.59-0.98,4.83c-0.15,1.3-0.58,1.81-1.28,1.54c-4.49,11.29-12.34,22.57-19.63,32.56c-0.45,0.62-1.21,1.01-2.06,1.35  l-4.75-0.34c-1.15-0.5-2.26-0.97-3.32-1.43c-0.54,0.08-1.12-0.12-1.67-0.08c-0.86,0.18-1.85-0.11-2.14-0.97L0,757.44V652.8  C23.73,657.6,48.36,670.04,73.98,670.02z" />
<path class="cls-15" d="M6.71,774.65l46.32,112.34c1.96,1.1,2.08,3.08,0.38,5.92l-6.12,11.05l-2.22,0.48L0,904.32v-129.6  C1.88,772.15,4.78,772.12,6.71,774.65z" />
<path class="cls-8" d="M1200,658.39v117.74l-36.38,1.57c-1.26-2.05-1.06-4.28,0.58-6.7c1.89-4.76,4.79-11.97,8.93-14.4l2.66-4.16  c-0.88-0.13-0.82-0.41,0.07-0.82l0.96-0.98c-1.89-0.43-1.8-1.3,0.13-1.76c1.03-1.66,1.94-3.35,2.74-5.07  c-1.81-0.5-1.72-1.27,0.14-1.64l2.61-4.19c-2.52-1.77-1.71-4.1,1.25-4.4l2.61-4.23c-2.38-1.18-2.31-1.82,0.27-2.36  c1.06-1.24,1.31-1.54,0.94-3.16c-3.36-1.74-7.27-1.34-10.81-0.3c-0.88,2.63-6.72,3.08-7.38,0.13l-1.18-0.67  c-3.35-9.23-7.52-18.15-12.52-26.76l0.99-1.2l-0.77-1c-0.65-0.06-1.26-0.18-1.77-0.49c-1.42-0.86-7.8-14.76-8.44-17.34l0.67-3.09  C1163.64,666.6,1181.95,662.58,1200,658.39z" />
<path class="cls-6" d="M6.71,774.65c-2.23,0.18-4.48,0.2-6.71,0.07v-14.4C5.37,762.52,4.91,770.28,6.71,774.65z" />
<path class="cls-6" d="M998.29,351.52l1.91,0.68c-0.27,31.99-0.54,63.98-0.81,95.98l-1.93,1.15c-1.29,1.94-2.19,4.03-2.69,6.27  l-2.03,1.22c0.07,1.31,0,2.69-0.19,4.14c2.69,0.99,2.52,2.99-0.25,3.62c-0.48,2.7-1.43,2.67-2.42,0.15l-1.61-2.92  c-0.05-6.6,0.42-13.05,1.41-19.35c-21.49-0.58-32.23-0.87-32.23-0.87l-2.29-2.04l-1.43-1.56c6.9-16.36,14.33-32.47,22.29-48.32  c5.73-12.6,11.35-25.25,16.88-37.94C995.09,349.26,997.59,347.29,998.29,351.52z" />
<path class="cls-6" d="M272.46,272.2c0.84-0.65,1.8-1.34,2.88-1.3c7.55,0.26,23.95,12.16,28.61,18.14  c4.05-8.69,17.93-18.24,27.58-19.64c1.72-0.25,2.99-0.42,4.43,1.03c4.43-1.08,8.33,2.94,12.79,3.21  c35.24,2.12,70.01,0.88,105.01,3.88c25.61,2.19,49.97,3.63,75.39,4.39l71.81,2.16c37.08,1.11,73.8,0.68,110.89,2.17  c11.97,0.48,120.54,8.51,115.94,8.81c-57.27,9.29-116.43,12.98-177.1,26.35c79.6,2.17,158.22-2.36,237.9,0.01  c36.87,1.09,73.47,3.86,108.87,1.98c0.79,0.93,1.15,2.62,1.09,5.08c2.47,0.81,2.79,7.17-0.03,7.62l-2.37,9.28  c-6.91,14.67-13.61,29.44-20.11,44.3c-5.18,9.81-9.93,19.84-14.24,30.08l-1.76,0.71c-7.48,0.97-15.16,0.75-23.06-0.67  c-30.19-0.69-60.09-1.42-89.69-2.18c-17.57,1.21-35.23,0.47-52.98-2.22c-56.2-2.62-112.3-5.28-168.31-7.99  c-13.87-0.39-27.83,0.78-41.45,3.09c1.97,1.4,3.23,2.79,0.84,4.45l-3.31,1.33c-17.5-2.28-40.44-6.58-56.13-14.48  c-5.22-2.63-19.64-10-22.44-13.99c-0.36-0.51-0.49-1.18-0.55-1.89c-1.05-0.41-1.29,0.24-0.71,1.96c1.68-0.97,2.4,0.45,0.9,1.7  l1.82,2.16c2.68-1.61,4.71,1.75,2.11,3.65l-3.06,1.15l-10.4-1.66c-18.98-0.55-37.91-1.9-56.81-4.03  c-40.57-0.41-81.23-0.59-121.98-0.53c-4.01-0.21-21.38-1.16-23.62-2.83c-0.73-0.54-0.99-1.47-1.17-2.31l0.67-1.92l123.23-0.4  c-55.68-10.07-114.33-19.23-172.27-24.25l-4.45-1.5l-1.92-1.12c-0.03-11.24-0.06-22.49-0.08-33.74l1.92-1.41l139.91-0.71  c20.1-0.1,39.01,2.48,59.97,0.31c-25.29-5.84-49.06-11.19-73.83-13.47l-70.04-6.44c-24.36-23.7-116.23-26.96-148.04-18.85  l-7.7-15.65c20.32-3.52,40.67,1.19,61.27,2.67c10.18,0.73,17.96-1.33,28.16,1.9c6.48,2.05,16.91-2.29,22.36,4.57  c2.03-1.49,3.37-2.68,4.57-2.45c1.07,0.2,2.36,2.32,3.67,2.1L272.46,272.2z" />
<path class="cls-3" d="M335.96,270.42c-13.01,2.2-23.68,9.08-31.84,20.13c-10.51-8.83-19.95-16-31.66-18.36  c-5.28-1.06-10.81-3.57-17.71-2.46c17.42-10.11,34.17,0.93,49.63,6.76c14.05-5.31,29.47-16.3,45.17-9.61  C344.64,267.67,339.34,267.46,335.96,270.42z" />
<path class="cls-2" d="M506.81,1587.04c-48.59,27.59-96.93,57-145.78,84.63l-160.46,0.04l304.96-161.26L506.81,1587.04z" />
<path class="cls-1" d="M590.19,533.5c0.91-1.24,2.43-1.17,3.27,0.1c1.36-3,6.02-2.88,7.34,0.09c2.1-0.38,3.8-0.07,5.1,0.93  c0.5-3.36,8.8-1.39,9.25,1.31c1.21,0.73,2.36,0.94,4.25,0.66c0.54-2.61,3.15-2.53,3.68,0.16c3.09-0.43,3.91,4.07,2.1,6.3  c-5.02-0.23-9.63,0.16-13.83,1.16l-1.23,2.08c-6.43,2.34-7.84,8.72-4.56,14.17c37.48,43.32,69.63,91.59,100.16,140.33  c43.65,69.68,86.36,144.79,123.88,214.95l-1.13,1.93c0.68,0.58,1.31,1.35,1.89,2.31c2.67-0.18,2.79,0.5,0.97,2.49  c1.03,1.22,1.97,2.59,2.8,4.1c2.56-0.49,3.09,1,1.03,2.64c0.65,0.39,1.22,1.13,1.7,2.23c1.69-0.19,2.38,1.15,1.28,2.46l3.07,2.16  c4.63,7.91,9.1,15.91,13.4,24l2.92,0.63c4.92,4.56,8.98,15.28,10.81,21.76l-1.48,2.55c-1.89-2.85-5.84-4.99-8.48-6.92l-3.23-1.39  c-5.39-7.08-11.26-13.75-17.63-20.01l-0.64-3.5c-4.58-1.69-11.95-8.9-14.66-13.08c0,0,0.16-0.77,0.49-2.3  c-1.4-0.79-2.79-1.62-4.09-2.55c-1.29-0.93-2.57-1.85-3.61-2.99c-19.83-21.67-39.85-43.55-56.74-67.55l-1.8-4.49  c-0.72-0.54-1.37-1.23-1.95-2.08l-2.07,0.41l-35.29-48.66c5.59,24.9,9.47,50.03,11.63,75.38c1.08,6.56,0.47,12.51-1.82,17.85  c1.24,6.81,1.15,13.81-0.01,20.63c3.37,3.57,2.77,13.31-0.17,17.11c2.83,1.6,1.6,6.09-0.86,7.61c3.31,0.35,2.03,8.04-0.53,9.35  c-0.39,1.23-0.83,2.36-1.3,3.4c2.79,1.14,2.52,3.43-0.2,4.41c0.26,1.82-0.03,3.21-0.85,4.17c3.05,0.76,1.67,10.57-1.29,11.18  c-2.9,5.81-2.63,12.86-3.76,19.33l0.92,2.07c-0.96,8.09-2.37,18.46-7.47,24.83c0.47,0.77,0.72,1.52-0.15,1.92  c-0.88,1.96-1.84,3.64-2.87,5.04c1.79,0.39,1.61,2.07-0.24,2.43l-3.41,10.25l-1.16,0.52l-0.03,1.02l1.16,2.24  c-1.29,5.06-2.86,10.02-4.72,14.87l-2.37,0.77c0.16,1.53,0.29,3.15-0.28,4.61c-1.95,4.97-10.37,24.71-12.86,26.91  c-0.62,0.55-1.33,1-2.06,1.42l0.94,2.43l-6.44,11.8l-2.24,1l1.34,1.73c-2.76,3.53-5.15,7.23-7.14,11.1l-2.03,0.62  c-0.62,3.19-3.8,9.14-7.45,9.63c-0.08,1.47-0.25,3.01-1.03,4.29c-2,3.29-9.84,14.57-12.13,15.9c-0.68,0.4-1.43,0.68-2.19,0.94  c-0.55,0.84-1.2,1.53-1.95,2.06c1.99,1.9,0.48,3.38-1.88,2.73l-1.93,2.06c-1.43,3.47-2.14,5.21-2.14,5.21  c-13.9,16.33-28.68,31.81-44.34,46.44l-5.29,2c-0.75,1.27-1.53,2.51-2.43,3.66c-0.89,1.14-1.79,2.25-2.86,3.14  c-27.66,23.03-59.41,41.86-90.58,59.67l2.89,86.02l-1.88,1.23c1.89,1.37,2.89,3.68,2.99,6.93c1.81,3.78,2.05,6.9,0.71,9.37  l2.43,1.42c2.41,7.45,6.54,14.19,11.57,20.15l21.3,5.55c27.5,5.43,54.74,11.27,81.71,17.52l2.99,2.19c4.06-2.05,5.93,4.59-0.25,5.79  l-63.79-1.05l-1.12-1.94c-4.27-1.01-8.92-0.97-13.93,0.14c-29.45-2.73-68.61-9.74-95.64-21.58c-1.9-0.83-3.33-2.44-4.69-3.95  c-1.03-3.03,2.88-5.05,5.67-5.82l1.36-1.96c8.57-0.58,15.23-6.67,16.7-15.1l1.87-1.21l-1.73-5.93c-0.33-26.86-2.11-53.63-5.33-80.32  l-45.47,19.62l-0.22,27.82l11.72,46.05c0,0-0.01,2.67-0.02,8.01c2.7-0.56,3.09,1.68,0.7,2.96c2.96,0.15,3.25,3.78,0.4,4.45  c0.49,0.67,0.97,1.45,1.43,2.35c2.66,0.17,3.36,3.04,1.32,4.74l2.4,1.53c0.9,5.48,2.53,10.51,4.9,15.1l93.64,2.38  c3.48-0.27,5.97,0.44,7.47,2.11c7.04,0.43,34.99,3.94,39.4,7.68c2.79,2.38,2.78,3.72,0.55,6.54c-12.05,6.78-20.94,15.84-26.66,27.2  l-2.55,2.57c-1.69,7.77-5.61,15.15-9.12,23.35c-53.67-13.77-104.25-33.4-155.5-54.03c6.42-4.76,12.6-5.48,17.41-9.87  c0.12-6.39-1.96-12.51-2.83-18.15l-1.75-2.84c-6.33-27.2-13.2-54.3-20.58-81.31l-0.24-5.15c-34.9,13.54-72.4,20.3-109.33,26.24  l-37.45,41.33c-5.47,1.71-3.75-3.89-2.1-7.24l3.99-7.89c-5.19,8.24-25.89,34.37-34.61,35.19c-0.74,0.07-1.49,0.01-2.24-0.09  c-0.57,0.68-1.28,1.33-2.1,1.95c0.17,2.57-4.2,7.23-6.62,5.08c-4.3,1.82-7.16,5.99-11.8,5.23l-1.04-0.75  c3.11-6.29,6.82-12.52,11.12-18.68l-17.29,17.43l-3.11,0.22c-9.21,8.01-20.47,14.49-32.15,21.07l10.36-20.95  c-0.21-2.15,0.84-4.3,3.17-6.44c-2.4,3.32-5.12,4.86-8.16,4.6l-24.77,15.04l2.87-13.04l30.07-114.87l-33.06,50.01  c9.33-44.88,24.22-86.62,38.71-130.88l-29.76,38.58l20.82-57c16.75-45.84,42.48-88.25,70.43-129.02  c7.47-10.9,22.07-19.85,21.84-32.25c0.83-2.05,3.36-4.6,5.51-2.91l1.57-3.7c5.11-6.25,10.14-12.57,15.11-18.96l3.35-0.48l3.12-5.2  c9.89-9.31,19.71-18.64,29.46-27.99l2.94-1.22c-0.23-1.72,0.22-2.32,1.34-1.79l1.47-2.9c15.09-12.73,30.29-25.41,45.62-38.02  l5.62-2.57l0.57-2.51c4.78-2.25,9.19-5.04,13.22-8.38l2.56,0.13c-1.53-2.89,3.36-4.08,5.66-4.29l2.28-3.22  c18.53-11.04,37.35-21.52,56.45-31.44c5.34-3.06,10.38-4.05,15.11-2.96l-2.91,3.79c-35.56,26.99-69.75,55.62-102.57,85.88  l-7.71,5.28c1.13,1.14-3.25,4.3-3.06,4.11c1.28-1.33,3.11-3.18,4.79-3.11c-0.4-1.71,0.98-2.67,1.94-1c0.43-0.82,1.25-1.67,2.17-1.85  c0.3-0.93,0.66-1.8,1.24-2.5c1.12-1.35,2.34-2.37,3.69-3.46c19.63-15.89,47.4-31.49,69.83-43.59  c40.18-21.68,84.33-41.26,129.53-47.71l2.65,0.89c0.27-0.92,1.32-0.89,2.21-0.83c0.24-1.83,0.96-1.84,1.68-0.08  c0.91-0.5,2-0.99,3.27-1.46c0.1-2.53,0.72-2.46,1.73-0.16c6.79-2.77,14.85,0.36,21.2,3.56c26.75,13.47,31.06,42.52,26.31,69.62  c12.69-13.34,23.43-28.2,32.23-44.6c2.6-2.54,3.16-1.18,4.03,2.38c-2.41,11.32-5.98,22.32-10.7,32.99  c13.59-17.35,24.11-37.06,33.91-56.82c1.62-3,2.75-2.79,4.87-1l-4.1,27.85c9.88-19.49,16.11-40.53,22.1-61.5  c1.21-2.69,2.38-2.36,4.39-0.78l-0.89,28.54c5.51-18.87,10.38-38.09,11.76-57.8c1.26-4.01,3.1-2.68,4.95,0.64  c1.53,10.99,2.3,16.48,2.3,16.48c0.52-13.19,0.68-26.4,0.5-39.62c0.26-1.29,0.6-2.33,1.18-2.49c4.72-1.32,8.47,12.19,9.3,15.78  c-0.33-16.53-3.94-32.47-13.45-46.05l-23.09-34.16l-0.08-3.78c-0.71-0.42-1.32-1.14-1.82-2.18c-0.83-0.36-1.64-0.74-2.39-1.23  c-2.97-1.98-11.77-14.56-14.4-18.64c-0.93-1.45-1.3-3.16-1.53-4.85c-0.34-0.99-0.96-1.6-1.89-2.03l-2.77-0.77l-9.8-11.55l0.06-2.94  c-0.74-0.45-1.36-1.15-1.86-2.12l-2.18,0.43c0,0-8.73-9.86-26.19-29.57l0.5-2.33l-1.9-2.12l-2.53-1.02  c-14.88-16.17-30.97-33.94-42.04-53.11c-0.4-0.69-0.55-1.53-0.68-2.41c-0.14-0.9-0.14-1.82-0.1-2.75  c-9.51-9.36-12.38-30.99-10.41-43.92c0.77-5.05,3.09-15.45,8.74-15.49l1.9-2.08c-1.29-2.58,1.52-4.76,3.71-2.88l2.12-1.87  c0.03-0.84,0.28-0.82,0.73-0.02c1.11-1.1,2.5-1.99,4.16-2.66c0.59-2.69,2.26-2.85,3.43-0.39c1.87-1.73,4.63-1.99,7.07-1.87  C584.81,530.81,589.52,530.82,590.19,533.5z" />
<path class="cls-13" d="M652.95,1317.98c-10.82,24.58,46.84,35.93,61.56,37.25l59.72,5.34c-13.56,10.68-27.95,15.31-41.82,22.82  l-103.2,55.88c-28.68,15.53-56.67,31.32-85.63,44.89c5.81-26.71,43.5-31.53,22.84-36.28l-33.58-7.72c0.19-0.66,0.41-1.2,0.74-1.27  c3.82-0.9,12.94-1.08,16.72-0.11l63.08,1.01c1.23,0.02,2.73,0.25,3.63-0.31c0.46-0.29,0.21-1.75-0.24-2.2l-1.31-1.3  c-4.85-2.26-7.91-11.84-8-17.15c-0.1-5.59,2.87-10.24,8.7-10.6c0.19-2.76,1.82-2.76,2.82-0.17c2.75-0.87,3.77-1.76,3.07-2.67  l-2.31,0.86c-4.92-2.56-10.53-2.9-15.97-3.02l-1.59-1.95c-1.93-0.39-3.71-0.84-5.35-1.34c-0.42,1.84-1.2,1.83-1.57-0.02l-18.57-1.68  c-25.69-4.25-51.54-6.86-77.55-7.81l-3.7-1.28c-1.5-5.38-3.51-10.55-3.71-16.29c2.03-2.39,5.04-3.95,9.01-4.68  c46.27-21.66,92.45-43.57,138.53-65.75l1.9,1.22l2.14-0.37l8.59,8.21C654.71,1314.42,655.05,1316.59,652.95,1317.98z" />
<path class="cls-8" d="M393.52,1425.45c-7.94,1.65-14.51,7.32-22.72,8.12c-0.72,0.43-1.51,0.91-2.37,1.44l-1.62,0.03l-186.97-0.98  c-0.65-1.42,0.37-2.37,0.64-3.35c2.39-1.01,3.83-4.5,6.62-5.08l2.1-1.95c17.49-10.9,29.63-26.44,41.07-45.27  c0.89,9.56-6.79,15.47-8.31,24.87l38.94-42.58c37.36-5.9,73.27-13.39,110.69-25.91C378.68,1365.07,388.78,1394.81,393.52,1425.45z" />
<path class="cls-5" d="M830.07,1275.67c1.91-1.72,2.51-1.05,1.46,1.27c1.78-0.06,2.41,1.27,1.88,3.99c27.14,1.87,59.5,7.18,85.23,21.3  c8.85,4.86,16.98,10.19,22.46,18.88c2.6,3.71,4.14,8.19,3.78,13.31c-1.85,26.37-33.84,22.64-48.39,25.34  c-1.47,0.5-2.94-0.2-4.4-2.12c-23.15-5.36-46.6-10.09-70.37-14.2l-4.77-2.47l-37.69-13.32c-62.91,13.24-68.87,8.41-126.31-9.66  c-0.82-6.32-8.17-9.37-11.76-14.35c-2.51-0.21-3.74-2.36-3.68-6.44c-0.44-2.91-1.04-10.1,2.01-10.9l3.46,1.23  c45.85,48.28,143.43,42.76,183.73-10.22L830.07,1275.67z" />
<path class="cls-2" d="M816.95,1340.97c24.25,2.4,47.88,9.94,72.5,13.67c3.45,0.52,5.59,2.65,7.03,5.12  c-27.21,21.49-61.31,34.69-90.09,53.44l0.93-67.19C808.9,1343.37,813.98,1340.67,816.95,1340.97z" />
<path class="cls-5" d="M967.56,1409.86c-7.38,11.78-23.89,13.88-37.32,14.26C935.33,1418.69,964.76,1395.52,967.56,1409.86z" />
<path class="cls-8" d="M398.23,638.22l1.41-1.46c53.38,24.71,107.08,49.28,161.08,73.72l12.78,4l3.33,2.76  c0.88-1.42,1.58-0.53,2.14,0.86l3.07,0.38c14.51,14.34,28.36,33.59,28.34,54.64l-1.72,1.56l-0.67,1.92  c-73.57-0.02-147.14-0.04-220.73-0.06l-1.19-1.92l0.35-83.75c0.01-1.55-0.96-3.19-1.62-3.83c-0.77-0.73-2.8-0.79-3.66-0.11  c-0.87,0.69-1.36,2.2-1.38,3.98l-0.7,83.6l-0.65,1.92c-28.15,0.08-56.31,0.16-84.48,0.24l-1.16-1.92l-1.93-0.86  c-0.31-22.03-0.62-44.06-0.92-66.11l1.9-1.17l1.28-1.89c7.78,2.23,10.75-0.17,8.91-7.2c-6.78,0.14-9.92-2.62-9.42-8.28  c0.83-0.78-0.09-17.26-1.26-13.43l-0.42,18.03c0,0-0.53,0.63-1.59,1.89c-17.64,0.81-35.22,0.7-52.76-0.32l-1-2.13l0.81-61.41  l1.94-1.13c2.56-2.28,6.01-3.68,10.35-4.2c20.99-8.43,41.75-14.9,64.86-15.11c29.51-0.27,58.69,12.42,84.45,24.55L398.23,638.22z" />
<path class="cls-7" d="M430.02,885.77l2.79-1.71c6.36,2.05,12.71,3.14,19.07,3.29c2.15,0.47,3.26,1,2.61,3.16  c-0.41,1.35-10.61,9.9-12.47,10.72l-2.34-0.65c-26.13,6.08-48.71,25.99-73.84,37.61c-1.25,0.74-2.71,0.45-4.37-0.87  c-19.54-0.15-39.19,0.58-58.95,2.19c-11.08-2.77-14.19,0.01-12.56,11.08c0.75,0.2,1.88,0.53,1.92,1.11  c0.55,8.39,0.61,20.49,0.03,28.83c0.63,3.23-0.01,5.29-1.91,6.19c-0.09,3.97-0.16,7.9-0.22,11.8  c-11.42,11.96-22.98,23.93-35.53,34.42c-3.15,1.07-6.69,1.12-10.64,0.15c-2.14-0.2-4.2,0.04-6.18,0.72l-1.04,17.95l-2.17,4.32  c-1.76,1.23-3.1,3.39-5.51,2.91l-0.49-26.83l-103.55-1.11l-1.94-0.85l-1.26-64.01l-40.54,1.52l-1.21-1.88  c-0.73,2.58-3.56,1.88-5.06,0.29c-0.79,0.64-2.5,0.03-3.37-0.05l-2.43,1.31l-53.93,5.32c-2.57-3.75-6.46-4.56-8.39-8.67  c7.64,0.62,13.36-0.76,16.1-7.28c7.44-17.68,16.7-34.55,22.41-52.34c1.88-5.86,7.49-10.87,7.96-17.45L430.02,885.77z" />
<path class="cls-15" d="M608.66,774.68c1.05,0.34,2.19,0.77,2.82,1.73c1.73,2.63,2.91,9.86,3.39,13.3c1.13,8.2,0.4,28.81-3.44,35.77  c-0.56,1-1.62,1.57-2.63,2.01c0.23,0.92-0.17,1.91-1.1,2.14c2.28,1.65,1.54,4.1-1.21,4.4c-0.39,1.01-0.95,1.75-1.69,2.22l1.54,1.68  c-4.17,17.68-38.45,44.7-52.95,55.92l-5.22,0.94c-0.57-0.01-1.16,0.21-1.73,0.16c-1.04,0.54-2.13,1.03-3.27,1.46  c-0.55-0.07-1.13,0.12-1.68,0.08c-0.87-0.06-1.61,0.22-2.21,0.83c-68.07,10.1-151.49,55.48-206.94,96.37l-2.17,1.85  c-0.53,0.05-1.47,0.74-1.94,1c-1.47,1.43-2.23,0.99-1.73-1c34.57-34.84,73.92-65.5,113.19-94.95c4.63-3.47,8.54-6.19,13.99-11.62  c-8.6,2.01-16.61-3.22-23.65-3.2c12.58-17.07,28.66-32.15,35.97-53.45c-7.7-2.05-14.93-0.34-22.36-1.07l-0.33-19.51  c-5.97-0.99-11.73-0.92-17.57,0.08c0.53,6.32,1.62,13.08,0.17,18.93c-2.9,1.46-7.56,1.43-10.4-0.34l0.82-44.96l-30.26-0.14  c-1.07-3.93-0.02-7.36,0-10.7L608.66,774.68z" />
<path class="cls-12" d="M291.8,706.63l0.95,68.14l1.9,0.92c0,0-0.3,14.66-0.9,43.97l-1.94,1.11c-30.23-4.27-60.28-8.71-90.47-15.98  l-76.63-18.46c-2.25-1.46-4.07-10.5-0.99-11.51l-1.92-0.89c0.03-21.71,0.05-43.43,0.08-65.15l1.92-1.15  c2.19-0.59,4.38-1.14,6.6-1.55c2.22-0.41,4.42-0.8,6.64-0.87c49.26-1.58,98.7-1.1,147.94,0.15L291.8,706.63z" />
<path class="cls-8" d="M154.71,667.33c2.17,0.57,2.26,1.43,1.5,3.28c-0.53,3.62-3.54,10.86-5.11,14.46c-0.12,0.27-0.67,0.34-1.34,0.36  c1.11,1.61,0.72,3.09-1.15,3.79c0.65,1.9-0.31,4.3-2.63,4.01l-1.04,1.97l-31.6,1.31c-3.11,8.38,2.32,9.79,9.44,9.23l1.04,1.88  l-0.08,67.19l-2.28,2c-12-0.07-23.95,0.2-35.86,0.81c-1.31-0.64-5.22,0.13-5.21-2.84l0.21-102.01  C105.36,676.89,130.55,674,154.71,667.33z" />
<path class="cls-15" d="M379.04,774.52c0.82,2.57,2.61,8.3-0.17,10.33c-6.63,1.58-13.79-0.11-20.72,0.71l-0.05,42.68  c-23.01-0.66-44.66-4.42-66.29-7.47l0.94-46L379.04,774.52z" />
<path class="cls-5" d="M80.99,666.07c-0.72-6.05-0.68-12.06-1.05-18.13c2.44,2.62,0.33,6.66,2.59,9.99  C111.37,606,135,552.68,160.36,500.32c-12.82,38.56-31.87,75.54-51.12,112.09L80.99,666.07z" />
<path class="cls-15" d="M123.72,774.81c0,3.58,1.69,7.7,0.99,11.51c-10.33-2.49-30.12-4.27-39.13-8.7  C97.52,773.33,110.96,775.43,123.72,774.81z" />
<path class="cls-3" d="M73.78,674.85c1.52,0.57,2.17,0.39,2,1.5c-0.29,1.94-1.03,3.13-1.03,4.33c-12.44,12.78-16.89,32.58-29.54,45.28  c0.02-1.67,0.42-3.26,0.98-4.83c0.49-0.88,1.09-1.6,1.8-2.18C56.95,704.42,62.99,687.4,73.78,674.85z" />
<path class="cls-3" d="M45.09,728.65c-1.76,2.4-2.34,1.58-1.16-1.16c0.42-0.71,0.73-0.98,1.28-1.54  C45.2,726.76,45.39,727.9,45.09,728.65z" />
<path class="cls-15" d="M439.35,815.22c2.04,0.39,1.94,15.19-0.14,15.84c-1.99,0.62-6.09,1.16-8.54,0.45  c-2.19-0.63-1.7-15.61,0.09-16.13C433.55,814.59,436.73,814.72,439.35,815.22z" />
<path class="cls-4" d="M43.93,727.49c0.27,0.42,0.45,1.56,1.16,1.16c-5.1,12.47-13.37,22.86-21.05,33.66  c-0.62-0.16-1.26-0.68-1.8-0.91C28.82,749.87,37.1,739.09,43.93,727.49z" />
<path class="cls-14" d="M124.69,1031.06l-44.02,1.06c-0.5,0.74-0.8,0.63-0.9-0.29c-0.77-1.17-1.57-2.43-1.68-3.86  c-0.28-3.82-0.48-18.46,0.64-20.69c0.34-0.68,0.79-1.29,1.28-1.9c0.46-6.56,0.9-13.12,1.32-19.69c-2.93,0.33-2.7-6.81,0.12-7.28  c-0.52-2.29-1.04-4.66-1.56-7.11c-1.92,0.01-1.95-0.87-0.14-1.66c-2.81,0-2.68-3.19,0.01-3.81l43.79-1.64L124.69,1031.06z" />
<path class="cls-8" d="M81.64,1083.88c-0.31,2.61-1.13,2.5-2.03,0.05c-1.32,2.59-3.54,3.02-4.54,0.15c-21.5-1.5-42.87,1.7-64.34-6.25  c20.98-8.43,43.18-6.78,64.16-7.8c1.11-2.46,4.43-3.67,5.69-0.85c22.47,0.77,43.93-2.3,66.18,4.11  C143.33,1081.91,93.47,1082.62,81.64,1083.88z" />
<path class="cls-3" d="M79.61,1083.93c0.57,0.05,1.01,0.1,1.01,0.17c0.64,27.23,0.36,55.28-0.93,82.48c-0.18,1.07-3.49,2.51-3.56,1.25  c-1.66-28.16-0.89-55.93-1.06-83.74C76.32,1084.16,77.59,1083.96,79.61,1083.93z" />
<path class="cls-3" d="M79.77,1031.83c0.3,0,0.6,0.29,0.9,0.29l-0.08,37.05c-1.64-0.06-3.3,1.08-5.69,0.85l0.03-38.01l0.95-0.18  C75.88,1029.02,79.12,1029.14,79.77,1031.83z" />
<path class="cls-5" d="M81.64,1083.88c-1.37,27.74,2.53,56.25-1.95,82.7l-0.08-82.65C80.03,1083.92,80.55,1083.99,81.64,1083.88z" />
<path class="cls-6" d="M168.68,1435.93c-3.43-0.56-7.36,0.41-10.32-1.78c9.14-7.95,16.57-18.89,27.94-25.94L168.68,1435.93z" />
<path class="cls-6" d="M136.56,1434.27l-4.99-1.84c4.82-2.93,8.15-9,14.63-11.57C143.22,1425.81,140.61,1431.07,136.56,1434.27z" />
<path class="cls-5" d="M1074.96,513.75c22.34,53.84,45.6,107.06,71.36,159.36c3.37,6.84,5.58,14.35,9.54,20.92l0.77,1  c2.7,10.36,11.89,18.11,12.71,28.62c-0.34,2.49-1.02,2.37-2.08,0.15l-2.72-2.21c-7.26-15.29-15.13-30.31-23.62-45.05l0.63-3.48  c-5.26-7.53-9.55-15.83-12.88-24.91c-22.5-43.65-40.56-88.39-57.89-132.44l1.36-1.78L1074.96,513.75z" />
<path class="cls-11" d="M854.34,1020.47c1.27,6.66,31.53,3.16,34.6,3.45c34.39,3.19,30.15,2.59,65.22-0.57l1.92,0.68  c-0.29,43.81-0.58,87.63-0.87,131.45l-1.93,1.16l-0.57,2.24c-16.45,7.52-32.96,14.96-49.51,22.32l-1.83-1.28l-1.92-0.89  c-0.01-22.26-0.03-44.52-0.04-66.81l1.92-2.54l-1.96-1.1c-0.09-3.55-2.54-7.53-5.93-8.83c-33.81-12.96-71.53-9.49-106.28-2.61  c-4.46,0.88-9.92,4.92-11.09,9.45l-2.01,1.53c1.62,1.31,1.86,2.61,2.1,4.42c0.74,5.62,0.44,17.67,0.09,23.7l-1.63,3.11  c0.5,18.09,0.41,36.2-0.26,54.35c0.99,2.24-0.36,2.71-2.92,2.2c-37.89-16.2-88.39-7.85-115.12,24.99l-3.47,1.26l-3.04,1.78  c-20.71-0.94-41.43-1.89-62.14-2.83l-1.07-1.97c19-15.82,35.09-35.46,51.78-53.64l1.93-2.06c0.19-1.05,1.28-1.81,1.88-2.73  l1.95-2.06c4.93-7.18,9.74-14.51,15.35-21.13l3.54-1.64c13.22,0.67,26.49-0.96,39.39-3.84c-11.05-2-22.28-2.68-33.7-2.06l-1.78-2.09  c0.46-5.23,6.18-8.95,7.83-13.44l1.96-2.11l65.18-6.09c0.66,0.02,3.93-1.27,3.79-1.41c-4.26-4.24-52.61-4.92-61.75-4.2l-1.45-1.42  c5.11-10.99,9.4-22.47,15.2-32.93c6.05-1.33,9.07-1.99,9.07-1.99c44.73-0.36,89.61-1.8,133.97-7.43c-21.3-3.46-42.79-5.3-64.47-5.54  c0,0-1.1-0.75-3.3-2.24c-2.36-1.68-5.35-1.34-7.98-0.56c-19.37,3.05-40.11,2.54-59.38-1.09c-1.57-0.54,0.3-5.22,2.04-4.78l1.76-3.22  c-0.1-2.34,0.26-4.17,1.08-5.47c-1.64-0.56-0.4-3.76,0.85-4.8c0.25-1.13,0.61-1.18,1.13-0.13c0.55-0.55,1.12-1.07,1.76-1.47  c3.21-2.02,31.94-1.56,38.24-1.25l3.87,1.72c1.3,0.27,2.35,0.06,3.16-0.64l1.05-1.94c4.85-0.09,9.71-0.18,14.57-0.27l1.39,1.89  c2.28,0.74,4.9,0.28,7.01-0.62c0.51-1.72,1.31-1.7,1.72,0.07c3.43,1.95,7.52,1.64,10.74-0.89c0.55-3.03,5.63-3.1,6.63-0.3  c10.46,5.93,28.17,5.58,37.22-3.03c0.83-2.73,3.25-3.14,4.85-0.74c2.65,1.36,4.61,1.08,5.86-0.84  C850.87,1018.06,853.44,1018.08,854.34,1020.47z" />
<path class="cls-12" d="M1169.19,823.67c0.81,3,3.8,6.11,3.89,9.46l-0.69,1.91l-206.49-1.84c-10.35,0.5-32.45,2.23-10.5,10.31  l192.69-0.34l1.18,1.92l-1.61,10.59l32.28,3.02c-10.97,5.93-30.84-2.15-30.79,8.11l-1.09,1.05l-27.51,0.27  c-13.37,0.97-26.84,1.19-40.42,0.66c-16.31,0.77-32.62,1.55-48.93,2.35c13.35,2.22,26.95,2.71,40.78,1.47c0,0,0.74,0.66,2.21,1.97  l9.4,0.31c10.38,0.49,20.77,0.97,31.16,1.44l24.59,0.12l4.22,0.11c10.45-4.37,3.71,23.98,4.73,29.34  c-83.31-1.86-167.39-0.61-250.87,2.3l-0.64,1.23c-1.37,0-13.95-1.86-14.57-2.29c-0.63-0.43-1.04-1.08-1.38-1.75l-10.98-80.14  l1.74-1.41l0.67-1.92c96.01-0.38,192.56-0.55,289.66-0.51C1161.9,821.39,1164.33,822.15,1169.19,823.67z" />
<path class="cls-5" d="M958.08,924.43c7.31,0.17,14.66,1.26,22.05,3.28l36.62,5.7c0,0,1.22,0.89,3.67,2.67l1.92,0.91  c0.03,88,0.05,176.03,0.08,264.09l-1.92,1.84c-0.9,1.08-1.04,2.51-1,3.88l-1.42,1.57c-21.68-6.37-43.21-13.1-64.59-20.18  c-1.28-9.77-1.96-19.69-2.05-29.76l1.84-1.81l0.88-133.29l0.52-94.23c0.01-1.43,0.74-2.63,0.85-3.93  C955.62,923.98,957.25,924.77,958.08,924.43z" />
<path class="cls-2" d="M1071.44,928.17c1.06,0.73,1.16,2.03,0.83,3.23l0.3,18.9c3.05,0.91,2.79,10.71-0.16,11.81l-0.05,67.14  c-0.02,25.76-0.21,51.74,0.22,77.62c0.37,22.39-1.69,44.97-0.15,67.12c0.32,4.62-4.45,6.92-8.13,8.62l-43.8,20.32l-0.08-266.85  l3.02-2.56c11.39-2.14,22.73-4.59,33.72-8.29l3.78,0.37c0.48-0.2,1.31,0.14,1.77-0.04c0.42-0.71,1.24-0.75,2.01-0.79  c1.53-0.6,3.34-0.31,5.25-0.33C1071.59,924.44,1071.31,926.71,1071.44,928.17z" />
<path class="cls-11" d="M686.51,551.87l4,6.53c19.7,46.33,40.41,92.2,62.14,137.63c2.1,4.59,3.5,9.46,4.81,14.33l2.8,2.86  c9.32,17.93,17.48,36.74,25.53,55.35c0.5,1.16,0.78,2.41,1.04,3.69c0.26,1.3,0.39,2.62,0.49,3.94l2.45,0.85  c24.7,50.22,49.31,100.45,73.84,150.7c1.19,4.73,2.87,9.15,5.04,13.24c0.67,6.16,5.95,10.14,7.12,15.98  c2.97,0.07,4.83,6.62,1.81,7.75l0.88,1.09c3.71,1.61,5.31,9,2.99,12.22c1.43,6.06,1.14,16-5.71,17.28  c-1.84,0.53-2.14-1.07-0.34-1.78l-2.35-2.39c-1.68-8.06-3.54-16.13-6.98-23.66l-32.97-62.11l1.15-1.92  c-0.96-1.25-1.9-2.61-2.81-4.09c-2.55-1.17-4.56-3.58-6.02-7.22c-2.25-3-3.11-5.71-2.58-8.13l-1.78-0.44  c-53.32-109.77-106.41-217.15-169.94-325.08c-1.95-3.4-5.23-10.06-2.29-13c1.46-1.45,3.73-1.35,6.8,0.3  c2.55,0.04,4.12,0.87,4.74,2.48l2.3,0.32c6.74,5.68,13.27-5.33,15.1-11.13l2.14-0.74c2.09-1.13,3.75,0.09,4.96,3.64  C686.16,542.81,688.77,550.15,686.51,551.87z" />
<path class="cls-15" d="M828.3,776.65c3.04,1.58,0.77,8.05-0.3,11c-0.73,2.02-1.87,3.84-3.27,5.46l0.88,1.99l2.25,1.66  c0.71,8.1,0.4,16.19-0.94,24.28c13.74-0.54,27.47-0.26,41.21,0.83l3.44,1.95l11.23,81.95c5.45-1.07,10.21,2.19,14.6,2.41l7.82,29.88  c-11.71,5.08-24.58,1.79-36.59,2.92c-5.49-1.17-4.39-7.54-6.78-12.43L787.3,776.19l1.14-1.91c12.82,0.14,25.64,0.28,38.47,0.43  L828.3,776.65z" />
<path class="cls-15" d="M854.34,1020.47c-0.96,0.21-2.83,0.4-3.78,0.21c-1.07,2.39-4.13,2.73-5.86,0.84  c-1.39,0.24-3.47,0.71-4.85,0.74c-1.3,0.9-2.7,1.84-4.3,2.06c-5.58,0.78-27.2,3.24-30.62,2.07c-0.8-0.27-1.55-0.67-2.3-1.11  c-2.21,0.16-4.42-0.08-6.63,0.3c-2.51,2.41-8.13,3.21-10.74,0.89c-0.46,0.05-1.3,0.12-1.72-0.07c-1.6,1.08-4.98,1.34-7.01,0.62  l-17,0.31c-0.38,0.97-1.43,1.19-3.16,0.64c-14.51,0.97-29.54-0.63-43.87,1c-0.48,0.02-0.81-0.58-0.99-1.79  c2.09-8.99,4.96-17.8,6.55-26.9c52.27-1.79,105.42,0.22,157.85,4.99c8.39,0.76,16.51,0.46,23.83,5.59  C884.98,1018.67,869.12,1017.23,854.34,1020.47z" />
<path class="cls-15" d="M836.91,953.16c7.41,8.05,15.61,15.63,21.5,24.89c-45.21,2.48-90.94,0.3-136.6,2.92l1.29-11.18  c0.57-1.1,0.85-2.49,0.85-4.17c-0.14-1.44,0.45-2.96,0.2-4.41c0.43-1.2,0.86-2.34,1.3-3.4c-0.62-2.2,0.96-6.8,0.53-9.35l0.75-1.89  c0,0,35.44,1.5,106.31,4.5L836.91,953.16z" />
<path class="cls-13" d="M1060.94,925.61c-12.47,5.3-27.04,7.76-40.52,10.48c-20.74-4.27-42.5-5.23-62.34-11.66  C975.7,917.18,1043.55,915.29,1060.94,925.61z" />
<path class="cls-15" d="M1072.41,962.11l0.16-11.81c26.91,1.25,55.07-2.26,83.87,5.03C1128.09,963.67,1099.53,960.29,1072.41,962.11z" />
<path class="cls-3" d="M822.85,884c2.44,5.04,6.58,9.86,8.6,15.35c0.85,1.39,1.78,2.75,2.81,4.09l31.63,59.31  c5.34,10.01,7.52,20.21,9.52,30.76c-0.28,2.4-1.87,2.19-2.81,0.04l-5.69-8.58c-1.37-8.94-6.41-17.6-12.25-24.93l-9.27-18.44  c-2.96-4.88-5.29-10.01-6.99-15.39c-2.54-0.22-2.46-1.2-0.49-2.75c-2.9-5.08-5.66-10.26-8.28-15.53l-2.99-2.18L819.49,888l0.41-3.61  C819.69,881.51,821.41,881.84,822.85,884z" />
<path class="cls-15" d="M881.44,978.02c-0.96-4.05-1.64-8.2-2.99-12.22l-0.88-1.09c-0.16-2.68-1.29-5.13-1.81-7.75  c7.01-0.41,33.24-1.39,33.43,9.22C909.4,978.25,890.24,977.17,881.44,978.02z" />
<path class="cls-2" d="M1004.13,305.28c1.39,0.42,1.17,1.77,0.85,3.02l0.21,14.42l0.03,122.63c2.94,0.37,2.81,7,0,7.61  c1.11,1.84,1.36,4.19,0.75,7.04c3.28,0.07,3.09,5.26,0.13,6.35l0.96,6.24l-1.1,0.57c0.15,1.49-0.36,2.44-1.53,2.85  c0.84-0.1,1.3,0.14,1.37,0.86c0.69,6.73,1.29,16.94,0.6,23.57l-1.92,1.39c1.27,1.16,1.12,3.65,0.68,5.27l1.92,0.65  c0.29,39.28,0.59,78.58,0.88,117.87l-1.91,1.19l3.48,1.18c4.43-0.85,8.11-0.25,11.06,1.8c0.86-0.3,1.14-0.01,0.85,0.85  c1.39,1.16,1.95,3.23,1.82,5.02c3.94,2.48-2.61,8.77-5.43,4.93l-4.3,1.38c-1.36,2.29-5.47,3.13-6.58,0.28  c-2.36,10.36-2.9,21.14-1.61,32.35c0.29,2.11-0.15,3.48-1.33,4.12l-0.67,1.92c-37.33-0.03-74.66-0.06-112-0.09l-1.17-1.92  c-1.32,1.23-1.74,0.68-1.09-1.01c-1.74-0.68-2.29-1.72-1.96-3.44c2.42-10.78,3.63-21.47,3.63-32.07l-37.11-0.84c0,0-1.3-0.67-3.91-2  c-0.85-0.36-1.59-1.1-2.06-1.94c-1.87-0.22-1.9-0.99-0.11-1.64c-1.49-5.03-1.53-10.26-0.13-15.71c-2.91-4.77,7.06-6.83,7.96-2.38  c1.68-0.33,2.02,1.05,1.73,2.58c1.31,0.74,2.07,2.09,2.28,4.05l63.35-0.29c1.5-0.36,1.4-29.83,0.16-30.74  c-4.1,1.08-14.19-6.02-10.26-9.28c2.95-2.45,26.08-2.31,28.57,0.05c3.44,3.26-4.08,9.65-8.06,9.21  c-0.18,10.18-0.24,20.38-0.17,30.59c10.28,0.22,20.51,0.49,30.68,0.83l2.13,1.24c0.76-2.66,1.94-2.65,2.64,0.04l3.14-1.59  c7.93,0.75,16.01,1.34,23.93-0.06l0.03-171.36c0.02-1.46,0.43-2.95,1.92-3.52l0.83-97.81c-1.99-0.8-2.59-3.07-1.83-6.82l2.04-8.62  c0.03-2.39-0.48-5.29,0.03-7.62c-0.56-1.62-0.6-4.04,0.63-5.17c-0.74-4.13-3.11-16.86,1.87-18.66  C1002.23,304.18,1003.07,304.79,1004.13,305.28z" />
<path class="cls-5" d="M999.16,323.28c0.39,2.17-0.22,3.28-0.63,5.17c-1.69-0.99-1.04-3.4-1.09-5.08L999.16,323.28z" />
<path class="cls-3" d="M203.31,394.79c0.15,1.26,0.26,2.52,0.23,3.78c-0.03,1.25-0.08,2.47-0.42,3.59  c-7.04,22.7-15.92,44.9-24.77,66.94c-0.44,1.09-1.15,2.08-1.89,3.08c-0.74,1.01-1.59,1.94-2.48,2.85c-0.76,1.44-1.9,3.27-3,1.62  l-0.15-1.33l30.88-80.79C202.35,392.02,202.89,392.3,203.31,394.79z" />
<path class="cls-10" d="M173.95,476.1l-12.32,23.1l-1.14-0.96c3.27-7.29,6.14-14.91,10.5-21.58l3-1.62  C174.78,475.35,174.75,475.7,173.95,476.1z" />
<path class="cls-14" d="M1072.13,513.93l23.95,59.73c13.74,34.27,32.2,65.72,45.47,99.41c0.63,2.78-5.4,4.68-8.01,5.48  c-2.75,1.69-4.37,1.5-7.27,1c-0.06,0.75-0.28,1.89-0.81,1.94c-23.17,2.09-53.73,0.74-77.05-1.02l-1.08-1.96  c-1.59,0.26-2.34-0.2-2.24-1.38c-4.72-23.21-9.44-46.89-14.01-70.34c-1.48-7.57-2.99-15.62-4.29-22.84  c-0.16-0.88-0.38-2.48-0.29-3.29c0.03-0.3,0.36-0.57,0.76-0.83c-0.4-0.05-0.94-0.16-1.03-0.49c-3.19-11.38-5.16-26.13-6.6-37.98  c-0.03-0.23,0.32-0.51,0.78-0.8l-1.28-2.05c0,0-4.34-24.06-13.03-72.17c0.04-1.91,0.43-4.54-0.13-6.35  c0.56-2.64,0.32-4.99-0.75-7.04l0-7.61c12.8,2,24.71,0.58,36.68-7.53C1052.94,463.8,1062.17,489.09,1072.13,513.93z" />
<path class="cls-2" d="M237.12,320.8l0.09,36.27c0.75,0.09,1.87,0.34,1.92,0.88c0.46,5.59,0.43,15.83-0.1,21.37  c0.58,2.95-0.07,4.81-1.95,5.58c3.17,0.7,2.45,6.12-0.03,7.66l1.92,0.65c0.1,27.24,0.21,54.48,0.31,81.73l-1.92,1.16l1.92,0.66  c0.3,50.93,0.61,101.86,0.91,152.81l-1.91,1.19l-0.84,63.45l51.58-0.03l0.35-19.26c0.12-1.24,4.25-1.47,4.99-0.37  c1.27,5.76-1.05,14.07,0.97,19.95c3.04,1.22,8.98-0.42,8.75,3.87c-0.12,2.31,0.42,7.94-2.4,8.5c-2.67,0.53-6.54-0.25-9.89-0.25  c-56.78,0.03-112.59-1.41-167.99,0.99c-4.3,0.19-9.99,0.23-11.96-2.47c-1.72-2.35-1.94-10.37,1.38-10.51l32.74-1.4  c1.52-3.02,3.5-1.52,4.87,0.9l0.66-1.92c24.61-0.01,49.23-0.02,73.85-0.03l1.16,1.92c0.76-0.82,1.12-1.84,1.09-3.07l-1.93-0.88  c-0.1-16.66-0.19-33.32-0.29-49.99l1.91-1.78l-0.01-160.38c-0.45,0.05-0.89,0.07-1.28-0.06c-1.65-0.53-1.28-30.82-1.06-34.43  c-0.66-3.15-0.04-5.07,1.85-5.76c-0.49-0.56-0.95-1.14-1.29-1.78c-1.36-2.53-0.43-20.01,0.13-24.28l2.03-3.58  c-0.88-7.68-0.92-15.58-0.12-23.2c-0.76-0.09-1.9-0.38-1.91-0.91c-0.42-16.42-0.31-35.42,0.57-51.83c-0.51-3.43,0.16-6.27,2.01-8.52  c-2.54-0.46-2.41-1.14,0.03-1.94l0.53-21.24c0.06-2.28,4.07-1.79,5.62-1.43C239.35,300.22,235.63,315.23,237.12,320.8z" />
<path class="cls-6" d="M228.25,321.72c-0.01,0.4-0.02,0.89-0.03,1.94c-3.14,4.71-5.73,9.73-7.75,15.06c0,0-0.74,0.16-2.22,0.47  c1.52,1.43,0.42,6.99-0.28,9.25c-0.64,3.23-2.01,9.55-5.74,6.93c-28.05-2.44-55.94-4.14-85.31-4.49c-5.8-15-17.67-22.14-31.08-28.8  C139.89,322.75,184.17,319.64,228.25,321.72z" />
<path class="cls-5" d="M210.19,384.84c-1.69,2.85-3.23,5.88-4.6,9.07l-2.28,0.88l-1.6-0.25l2.5-9.68c2.53-9.82,7.54-19.23,8.02-29.49  c5.25-3.11,4.02-10.8,6.02-16.18c1.46-2.68,1.73-2.84,3.7-0.52c2.55,3.02-7.72,39.44-9.73,45.28L210.19,384.84z" />
<path class="cls-13" d="M953.28,1156.64l1.34,30.37l64.87,19.8l25.54,8.54l-73.53,40.38l-2.38-0.81  c-12.18-21.06-38.89-34.31-62.34-37.88l-1.29-1.94l-2.38-1.37c-1.25,2.67-2.77,2.48-3.48-0.33c-1.86-0.4-1.92-1.2-0.08-1.77  l-1.34-3.2c1.12-8.45,1.54-16.94,1.25-25.48l1.91-3.03L953.28,1156.64z" />
<path class="cls-5" d="M899.64,1213.4c1.15,0.08,2.31,0.5,3.48,0.33l2.38,1.37c17.52-0.19,58.69,19.87,66.02,40.63  c6.6,18.69-6.42,38.61-22.49,47.19c-5.5,2.94-10.12,4.17-13.1,8.62c-1.82,1.11-3.88,0.32-6.19-2.39c-2.3-2.08-7.29-7.35-6.35-10.13  l-0.02-2.38l18.34-12.25c6.63-5.06,14.54-11.53,11.93-20.79l1.35-1.95l-3.47-2.73c-6.79-10.69-18.52-18.2-30.98-20.27l-3.7-2.14  c-3.57,0.16-7.32-0.87-11.24-3.1c-21.68-6.93-55.8-7.33-78.65-5.48c-2.37,1.04-4.53,1.38-6.47,1.03l-2.36,0.14  c-2.59-1.86-12.9-11.54-11.16-14.46c2.39-4.01,40.83-5.17,48.5-5.14C870.15,1209.55,885.4,1210.44,899.64,1213.4z" />
<path class="cls-10" d="M923.39,1299.02c4.23,3.88,7.25,9.91,12.54,12.52c1.84,2.95,3.18,6.72,5.17,9.56  c-26.31-26.42-69.41-35.57-109.02-38.53c-1.24-1.87-0.19-3.79-0.55-5.64c0.81-0.47,1.64-0.89,2.5-1.19  c0.84-0.29,1.66-0.54,2.48-0.53c25.62,0.22,60.72,7.82,83.36,19.85c0.72,0.38,1.32,1.01,1.92,1.68  C922.4,1297.43,922.91,1298.21,923.39,1299.02z" />
<path class="cls-5" d="M1112.81,1178.89c0.1,2.56-2.45,2.27-4.2,2.66C1108.55,1179.1,1111.33,1179.66,1112.81,1178.89z" />
<path class="cls-7" d="M79.73,969.65c0,0.55,0.1,1.11,0.14,1.66c0.52,2.32,1.04,4.69,1.56,7.11l-0.12,7.28  c-0.44,6.56-0.88,13.12-1.32,19.69c-0.02,8.8,0.49,17.66-0.23,26.45l-3.89,0l-0.13-58.57C75.18,969.64,77.29,965.29,79.73,969.65z" />
<path class="cls-3" d="M79.74,965.84l-0.01,3.81c-0.63-0.24-2.31-0.01-2.57,0.72c-0.27,0.76-1.43,1.92-1.42,2.9  c-1.04-2.21-0.69-4.75-1.06-7.13C76.41,964.74,78.22,965.9,79.74,965.84z" />
<path class="cls-2" d="M1167.25,723.81c0.61-0.16,1.45-0.19,2.08-0.15c2.45,0.18,4.94-0.43,7.38-0.13c3.44-1.11,7.6-1.5,10.81,0.3  c0.72,1.26,0.11,2.25-0.94,3.16c-0.01,0.77-0.34,1.59-0.27,2.36c-0.68,1.65-1.55,3.06-2.61,4.23c-0.33,1.47-1.18,2.86-1.25,4.4  c-0.7,1.64-1.57,3.04-2.61,4.19l-0.14,1.64c-0.78,1.91-1.7,3.6-2.74,5.07c-0.18,0.54-0.04,1.19-0.13,1.76l-0.96,0.98  c-0.07,0.25-0.08,0.56-0.07,0.82c-0.74,1.63-1.63,3.02-2.66,4.16c-2.96,7.22-7.13,13.87-9.51,21.1c-2.01,6.1-6.52,11.56-7.78,17.97  l-0.92,1.92c-109.36-0.19-218.73-0.38-328.12-0.56l-1.19-1.92c-1.4,0-2.45-0.19-4.35-1.35c5.75-4.55,6.17-10.98,7.04-17.1  c-0.39-0.74-0.74-1.49-0.97-2.28c-1.05-3.61,4.25-30.25,5.79-30.48c5.34-0.8,33.9-3.43,36.57-2.21c0.68,0.31,1.3,0.73,1.9,1.19  c9.2-1.36,18.42-2.6,27.71-3.16c69.46-4.13,138.86-8.5,208.31-12.96c9.28-0.6,18.59-0.43,27.89-0.19l0.91-1.02  c4.74,0.62,9.36,0.45,13.86-0.5c2.16-1.85,5.16-2.5,9.01-1.97C1162.5,722.17,1165.15,722.42,1167.25,723.81z" />
<path class="cls-7" d="M1155.84,795.66c4.29,9.5,10.63,17.96,13.35,28c-25.84-1.49-51.46-0.49-78.01-0.42l-219.61,0.58  c-15,0.04-30.76-2.43-46.7-0.77c0.82-10.88,2.65-18.73,0.75-27.96L1155.84,795.66z" />
<path class="cls-7" d="M1173.08,833.13c2.44,2.91,5.57,5.92,5.98,10.75c-10.4-0.42-20.12,1.19-29.79,1.21l-193.98,0.33  c-3.26,0.01-6.39-2.35-8.37-3.33c-1.85-0.92-4.03-6.43-1.08-7.61c9.44-3.79,19.95-3.22,30.63-3.12L1173.08,833.13z" />
<path class="cls-13" d="M1120.55,868.12c2.13,5.3-58.43-3.51-46.37,6.45c-16.21-0.54-34.99,3.46-51.54-4.57  C1056.33,866.31,1088.66,868.43,1120.55,868.12z" />
<path class="cls-13" d="M1114.74,876.32c-10.46-0.05-21.73,2.07-31.16-1.44C1094.01,875.22,1105.51,872.51,1114.74,876.32z" />
<path class="cls-13" d="M1143.54,876.55c0.98,1.26-5.31,1.09-4.22-0.11C1140.9,875.17,1142.03,875.2,1143.54,876.55z" />
<path class="cls-5" d="M1187.52,723.84c-3.62,0.01-7.22,0.15-10.81-0.3C1178.77,720.93,1186.15,720.45,1187.52,723.84z" />
<path class="cls-6" d="M1179.69,743.81c-0.17,1.98-0.19,5.14-2.74,5.07C1177.54,747.08,1177.32,743.83,1179.69,743.81z" />
<path class="cls-6" d="M1175.79,752.43c0.11,1.86-0.45,4.29-2.66,4.16C1173.77,755.03,1173.45,752.45,1175.79,752.43z" />
<path class="cls-6" d="M1182.44,737.99c-0.04,0.94,0.09,1.9-0.4,2.91c-0.37,0.77-1.17,1.37-2.22,1.27  C1179.98,740.49,1180.44,738.15,1182.44,737.99z" />
<path class="cls-6" d="M1186.3,729.36c0.17,1.88-0.38,4.29-2.61,4.23C1184.07,731.91,1184.18,729.48,1186.3,729.36z" />
<path class="cls-11" d="M290.04,385.14c19.75,5.9,69.91,2.73,85.84,3.04l34.79,0.69c16.3,0.32,29.91-0.99,45.53,1.83  c17,3.08,34.99-0.17,50.89,4.66l4.28,0.81c0,0,8.64,5.84,25.93,17.53c4.24,3.8,4.31,5.52,0.22,5.14  c-17.95-1.3-35.93-1.57-53.92-1.21c11.56,3.47,23.32,6.14,35.29,8.02c6.22,2.33,6.54,3.1,0.14,5.78  c-15.62,5.21-30.7,10.79-45.24,16.73c8.95-1.87,17.87-4.14,26.76-6.83c3.6-0.04,6.36,0.56,3.76,4.13  c-10.42,9.51-20.29,19.53-29.61,30.04l-2.41,0.91l-2.64,1.92c-77.05-0.1-154.08-0.19-231.09-0.29l-1.19-1.92l-0.31-83.55  c1.31-3.1,4.28-4.99,8.89-5.69c9.59-0.26,19.09-0.83,28.51-1.7c0.09-0.74,0.29-1.84,0.83-1.92c1.51-0.24,12.84-0.36,13.42-0.03  C289.42,383.63,289.79,384.38,290.04,385.14z" />
<path class="cls-15" d="M585.38,414.93l3.12-1.14c19.95,4.71,45.03,17.57,60.65,30.83c5.6,4.76,15.97,14.89,18.44,21.57  c0.39,1.07-0.01,2.29-0.39,3.39c0.69,0.31,1.36,0.65,1.95,1.09c6.11,4.58,12.28,35.48,13.04,44.29c0.4,4.61,1.34,16.96-0.8,20.11  c-0.41,0.61-0.93,1.14-1.49,1.65c-0.4,3.04-5.77,15.76-14.07,15.47c-2.45-0.08-4.63-1.59-5.47-3.93l-1.75-1.9  c1.21-20.01-8.09-49.26-27.27-58.41c-2.09-1-12.31-3.87-13.43-3.03c-2.19,1.64-4.38,13.56-4.44,16.88  c-0.14,8.73,2.83,17.38,7.87,24.46l-0.35,2.7l0.99,2.08c0.28-0.83,0.57-0.81,0.87,0.04c2.99,1.79,3.9,4.54,0.21,5.65  c-1.09-0.24-2.65,0.2-3.68-0.16c-1.4,0.27-3.49,0.58-4.25-0.66c-3.14,0.07-6.09-1.57-9.25-1.31c-1.24-0.87-2.81-0.96-5.1-0.93  c-2.44-0.17-4.9-0.31-7.34-0.09c-1.01-0.98-2.1-1.01-3.27-0.1l-5.37,0.2c-2.57,0.05-4.99,0.16-7.07,1.87  c-1.12,0.22-2.3,0.29-3.43,0.39l-4.16,2.66c-0.23,0.04-0.49,0.03-0.73,0.02c-0.47,0.77-1.18,1.39-2.12,1.87  c-1.22,0.84-2.59,1.92-3.71,2.88l-1.9,2.08c-13.5,14.65-5.67,46.37,1.67,59.41c-2.24,3.45-7.04-1.87-8.91-4.21  c-33.28-41.66-41.83-112.08-3.79-153.39c-14.47,5.74-27.88,13.72-40.24,23.95c-1.88,0.74-2.29,0.1-2.81-1.49  c-1.36-4.12,6.14-12.13,9.18-15.04c-15.89,8.65-31,18.56-45.34,29.73c0,0-1.36,0.15-4.07,0.45c-2.44-2.81,1.38-8.03,4.89-8.45  c9.98-12.15,20.22-23.84,32.36-33.67c-14.86,1.2-25.33,10.2-39.03,6.55l21.2-8.3c12.05-4.72,23.36-9.16,36.09-12.68  c-18.31-3.2-34.71-6.24-50.45-12.44c23.51-0.31,44.62-0.86,67.52,1.46c-12.26-6.36-22.43-14.14-32.89-21.96  c-0.14-1.48-1.22-2.58-2.11-3.65c-0.74-0.44-1.35-1.16-1.82-2.16c-0.41-0.45-0.49-1.29-0.9-1.7c-1.09-1.66-1.41-2.39,0.71-1.96  C537.41,408.68,544.22,407.03,585.38,414.93z" />
<path class="cls-11" d="M960.03,420.45c0.29,0.58,0.53,1.16,0.56,1.75c0.08,1.34-5.98,13.78-7.34,16.05l-2.77,1.57  c-5.57,1.48-11.52,1.88-17.86,1.18l-15.28,1.07c-33.31,5.86-65.66,15.7-97.07,29.51l-151.24-0.1l-1.83-1.92  c-13.64-27.69-53.01-47.13-81.82-54.64c-0.17-2.44-2.5-2.93-5.61-5.55c20.84-4.01,40.66-4.82,62.07-3.11  c54.19,4.32,108.17,2.86,162.5,8.08c11.23,1.08,20.42,3.11,32.02,1.81c13.45-1.51,27.32,1.06,41.21,0.71  C905.59,416.15,932.75,416.37,960.03,420.45z" />
<path class="cls-4" d="M290.04,385.14l-15.59,0.04c-12,1.1-24.08,1.65-36.25,1.66l-1.11-1.93l0.13-27.83  c45.25,2,90.14,9.62,135.42,16.56l63.29,11.03L290.04,385.14z" />
<path class="cls-3" d="M857.98,387.17c0.95,0.4,1.69,0.95,2.21,1.67c7.04,13.01,30.26-13.32,51.9-5.22  c-19.18,3.43-34.13,8.03-44.98,24.28c-10.21-14.71-23.95-20.75-39.55-26.72C839.31,378.8,848.33,384.97,857.98,387.17z" />
<path class="cls-5" d="M976.03,389.67l-20.87,49.88c0.63,0.42,1.52,1.19,1.29,1.67c-5.51,11.79-12.68,25.26-19.17,36.58  c-1.22,3.81-2.97,5.77-5.24,5.86l-1.33-3.1c4.4-13.43,10.04-26.4,16.9-38.91l2.86-1.82c2.55-6.21,6.5-13.13,9.55-19.38  C965.11,410.02,969.18,398.42,976.03,389.67z" />
<path class="cls-5" d="M932.05,483.66c2.55,0.8,2.52,1.63-0.09,2.28c-1.7,2.32-2.58,1.67-1.9-1.12  C928.98,482.24,930.09,481.69,932.05,483.66z" />
<path class="cls-5" d="M998.51,336.08l-0.21,15.44c-6.52-4.79-13.17,26.52-22.26,38.15C983.38,372.09,989.99,352.6,998.51,336.08z" />
<path class="cls-13" d="M502.96,385.89c-0.58,0.48-0.67,1.25-0.71,1.96c-0.96-0.96-3.38-2.99-2.94-4.34  C499.9,381.7,503.78,386.44,502.96,385.89z" />
<path class="cls-9" d="M317.66,1282l4.15-104.82c-7.38,47.59-21.32,90.08-43.1,132.7c3.58-44.76,6.12-88.09,7.11-133.4  c-11.07,49.97-26.31,97.32-47.92,143.89c2-38.42,9.96-74.71,14.39-112.13c-15.95,50.75-31.72,91.6-51.94,140.16  c3.82-50.62,13.98-98.04,23.14-147.9c-22.1,49.3-38.3,98.51-56.14,150.66c1.3-59.87,15.82-185.02,50.4-230.96  c12.23-16.25,29.67-27.73,46.45-39.37c86.88-60.27,176.75-116.13,267.62-169.5c10.05-5.91,21.16-6.97,31.3-2.84  c50.03,20.39-15.2,149.16-42.54,178.56c4.38-24.86,9.65-47.85,5.7-72.55c-4.13,41.5-18.63,81.44-42.62,117.47  c2.82-28.27,7.19-55.08-0.17-82.69c1.61,45.4-20.19,90.06-44.46,127.81c1.29-30.43,3.16-58.23-1.82-88.1  c-6.93,42.39-18.1,83.13-40.84,120.1c4.16-30.17,7.49-58.97,4.74-89.26c-5.65,42.11-15.18,83.45-38.05,121.34  c1.99-30.97,6.6-60.2,5.6-91.65C357.29,1196.43,340.99,1239.87,317.66,1282z" />
<path class="cls-9" d="M563.37,604.87c12.23,21.73,29.34,40.22,45.35,59.28l1.9,2.12l27.87,31.47l1.86,2.12  c4.12,5.15,9.1,9.57,12.51,15.26c0.91,0.38,1.62,1.06,1.89,2.03c6.67,7.79,12.57,16.24,18.32,24.72l1.82,2.18  c27.05,44.15,39.71,44.3,38.6,98.8c-3.6-9.79-3.75-20.89-10.59-29.96c-0.17,19.88,1.01,38.6-2.38,58.29  c-2.94-12.13-0.62-23.99-5.23-36.06c-1.31,25.32-8.68,49.73-16.15,74.43l1.38-44c-7.46,25.84-14.33,50.15-28.05,73.51l5.74-39.06  c-12.12,25.03-25.05,47.89-41.94,68.62c3.85-16.5,12.51-29.22,14.08-45.89c-10.61,18.5-21.36,35.77-37.11,50.74  c1-13.15,3.21-23.93,1.5-35.75c-3.58-24.71-22.45-41.78-46.58-42.94c14.8-7.99,53.36-43.27,56.64-58.54l1.69-2.22  c0.23-1.51,0.77-2.95,1.21-4.4c0.66-0.68,1.04-1.15,1.1-2.14c5.47-16.89,7.23-36.78-0.13-52.8l-1.69-11.94  c-2.36-16.67-15.86-32.48-28-44.65c-0.91-0.8-1.69-1.91-2.04-2.94c-4.27-2.79-7.99-6.64-11.16-11.56  c-26.31-27.79-50.32-57.99-65.52-93.65c-5.48-12.86-14.01-36.34-14.11-49.91c-0.01-1.81,0.51-3.53,1.3-5.15  c-0.91-0.76-1.9-1.64-2.16-2.81c-1.28-5.87,0.63-25.59,1.52-32.55l1.94-2.89c0.97-1.64,1.24-3.68,0.82-6.12  c-2.59-1.05-2.76-2.52,0.08-3.4c0.25-7.15-1.26-17.31-10.76-12.68l-1.19,2.79c-9.88,7.26-20.05,14.08-30.5,20.45  c-1.31,0.12-3.34,0.31-4.15-0.32c-0.37-0.29-0.14-1.39,0.2-2.73c1.29-5.04,17.51-27.75,21.9-29.28c0.72-0.25,1.49-0.37,2.27-0.46  c18.42-12.41,35.09-27.28,57.46-35.78c-5.35,6.67-13.56,11.31-16.22,21.24c15.17-10.88,30.01-23.78,49.6-26.73  c-45.6,38.27-34.73,112.38-4.34,153.22C556.7,600.59,559.63,604.06,563.37,604.87z" />
<path class="cls-8" d="M586.62,1219.11l66.26,3.02l-0.41,3.79c-11.71,16.49-15.84,37.02-11.78,56.79l-1.16,3.59  c-0.18,5.08-1.01,12.08,1.67,17.34l-129.92,61.98c-6.78,3.23-12.9,5.93-19.52,7.23l-2.97-88.35  C523.46,1265.27,556.51,1244.18,586.62,1219.11z" />
<path class="cls-11" d="M611.36,544.21c3.14-1.09,6.7-1.39,10.66-0.9c6.94-2.1,16.44,1.91,20.45,7.98  c16.55,25.06,31.28,49.82,46.1,75.9c48.45,85.31,90.48,170.53,132.06,255.51c0.31,0.63-0.09,1.21-0.74,1.69  c3.66,7.37,6.45,15.9,9.72,23.55c2.62,5.27,5.39,10.45,8.28,15.53c0.31,0.82,0.45,1.88,0.49,2.75c3.45,6.35,3.38,8.91-0.22,7.66  c-0.33-0.79-1.45-1.38-1.28-2.46l-1.7-2.23c-0.26-0.86-0.97-1.72-1.03-2.64l-2.8-4.1c-0.15-0.83-0.93-1.6-0.97-2.49l-1.89-2.31  l-26.37-47.53c-49.78-89.72-130.51-232.01-196.83-306.82c-3.04-3.42-4.31-8.89-2.57-12.78  C604.03,547.61,607.61,544.22,611.36,544.21z" />
<path class="cls-15" d="M754.57,858.13l1.95,2.08c20.54,27.29,43.16,52.54,66.23,77.58c2.77,3.28-1.05,4.63-4.23,4.8L728,942.77  l-1.17-1.92c-0.11-5.7,0.6-11.42,0.17-17.11c1.14-6.8,1.24-13.83,0.01-20.63c1.43-34.05-7.04-66.62-13.28-101.28L754.57,858.13z" />
<path class="cls-8" d="M461.63,1389.29l-3.14,2.86c-11.93,4.44-23.82,8.75-35.67,12.93l-2.25-0.54c-4.16-17.54-9.38-35.52-13.59-53.78  l0.2-29.51l49.3-21.11C458.69,1330.62,462.92,1359.8,461.63,1389.29z" />
<path class="cls-3" d="M595.27,1399.91l-3.6,1.25c-21.14,0.86-42.24,2.24-63.31,4.17c27.59,2.49,55.28,2.83,83.05,1.03  c0,0,1.58,0.62,4.75,1.87c-4.64,2.38-7.43,6.88-6.65,12.51c0.81,5.82,3.92,10.27,5.96,15.24c-15.51-1.04-30.27-7.24-46.38-10.25  c-20.57-3.85-40.62-7.17-60.55-13.39c-6.07-6.4-10.84-15.18-13.07-23.19C528.85,1388.96,562.63,1392.98,595.27,1399.91z" />
<path class="cls-2" d="M648.83,545.48c0.66,4.6,2.29,9.45,5.13,14.11c24.15,39.65,45.9,80.01,67.45,121.38l43.06,82.65L822.85,884  l-2.95,0.38L762.54,768.9c-15.95-32.12-32.16-62.95-49.78-94.19c-23.35-41.4-44.77-83.22-71.84-122.31  c-6.6-9.53-19.58-8.22-29.55-8.19c-1.45-4.15,11.52,0.23,12.86-2.93c0.62-1.45-1.33-3.33-1.14-4.54c0.3-1.88,0.86-3.72-0.21-5.65  l2.43-1.01c8.97,2.68,16.86,6.9,23.67,12.67L648.83,545.48z" />
<path class="cls-15" d="M765,1048.48c2.56-0.81,5.83-1.17,7.98,0.56c24.74,2.62,51.29-0.09,77.3,8.47  c-52.51,7.3-102.57,8.38-152.57,8.73c3-5.4,3.41-12.26,5.94-17.88l0.99-1.02c0.31-0.83,0.64-0.81,0.99,0.03  C725.41,1048,745.2,1048.52,765,1048.48z" />
<path class="cls-14" d="M302.53,941.68c-0.32,1.64-1.55,2.32-3.67,2.04l44.17,7.45l0.81,2.08c-16.39,15.5-35.25,28.81-52.71,43.49  c-1.97-2.1-1.55-6.95-1.12-10.01l-0.04-36.13c-0.21-2.31-0.73-10.19,1.1-11.31C292.7,938.29,305.77,937.62,302.53,941.68z" />
<path class="cls-3" d="M436.04,1413.38c31.18,12.98,66.18,19.42,100.45,24.41c4.92,0.72,11.21-3.32,13.81,0.98  c-5.84-0.09-12.42,1.51-17.46,1.38l-102.97-2.61c-2.85-6.43-3.73-12.48-5.43-18.5l0.64-1.96c0.67-0.58,9.47-5.1,9.98-4.69  C435.42,1412.68,435.73,1413.02,436.04,1413.38z" />
<path class="cls-14" d="M836.91,953.16l-110.94-4.7c-0.46-2.7,0.91-5.09,0.86-7.61l91.61-0.18c2.11,0,4.8-1.13,4.31-2.89L836.91,953.16  z" />
<path class="cls-15" d="M674.78,1114.42c1.63-5.53,5.3-9.99,7.74-15.23c-1.03-2.29,80.22-0.18,63.73,7.49  c-1.03,0.48-2.44,1.29-4.07,1.44L674.78,1114.42z" />
<path class="cls-15" d="M354.36,940.7c0.6-4.12,9.31-1.76,5.82,1.78c-4.34,4.81-10.99,7.74-16.35,10.76l-50.56-8.52  c1.13-3.37,5.98-3.14,9.25-3.04l3.71-1.87c4.04-0.44,19.78-1.32,22.13-0.16c0.67,0.33,1.28,0.77,1.87,1.25  C338.14,939.03,346.4,939.27,354.36,940.7z" />
<path class="cls-14" d="M666.95,1127.86c13.4,1.45,28.02-2.44,42.12,4.77c-17.06,3.9-34.29,6.38-49.57,4.86  C662.04,1134.49,663.02,1129.44,666.95,1127.86z" />
<path class="cls-10" d="M441.71,1407.57c-3.39,2.43-10.89,2.38-15.14,1.87c-2.83,0.56-4.59-0.08-5.29-1.94l-0.7-2.96  c13.8-4.95,26.84-11.58,41.05-15.24C461.18,1399.58,452.45,1407.6,441.71,1407.57z" />
<path class="cls-13" d="M365.84,938.2c-0.29,2.83-4.19,2.67-5.66,4.29c-0.19-2.66-3.78-1.8-5.82-1.78c-7.95-1.42-16.24-1.66-24.13,0.2  c-9.17,0.08-18.42,1.05-27.71,0.78c-1.4-3.04-9.88-2.59-11.74-0.71c0.94,3.92-0.82,7.24-0.82,9.62c-1.84-3.38-1.31-7.84-0.39-12.38  l66.53-3.21C360.21,934.81,363.5,935.13,365.84,938.2z" />
<path class="cls-11" d="M254.26,1032.94c-7.58,6.33-11.71,17.32-20.03,23.15l1.39-24.06C241.82,1030.38,248.3,1031.3,254.26,1032.94z" />
<path class="cls-5" d="M441.71,1407.57c-1.33,1.77-3.61,4.84-5.67,5.82c-4.3,1.55-7.13,5.61-11.61,5.66  c-0.44-1.57-1.36-3.04-1.32-4.74c-0.48-0.68-0.96-1.46-1.43-2.35c0.01-1.42-0.06-3.04-0.4-4.45L441.71,1407.57z" />
<path class="cls-6" d="M854.65,960.05c-6.34-7.96-12.45-16.62-16.48-26.16c3.21-1.52,0.35-4.78,0.22-7.66  C845.17,936.36,851.99,948.57,854.65,960.05z" />
<path class="cls-3" d="M568.03,1453.33c-7.28,2.97-14.8,2.51-22.64,1.04C553.18,1453.2,559.96,1452.36,568.03,1453.33z" />
<path class="cls-14" d="M727,923.75c-0.52-6.87-0.28-13.75,0.01-20.63C729.74,908.66,729.77,918.24,727,923.75z" />
<path class="cls-13" d="M326.49,995.53c0.49,0.47,1.09,0.78,1.73,1c-2.95,3.56-6.98,6.67-10.89,9.06  C319,1000.28,323.63,998.41,326.49,995.53z" />
<path class="cls-14" d="M710.51,1033.92c0.03-0.16,2.67,7.16-2.84,8.69c-1.19-1.37-1-3.37,0.59-6.01c0.09-0.8,0.03-1.65,0.24-2.43  C709.18,1032.28,709.65,1031.91,710.51,1033.92z" />
<path class="cls-13" d="M291.13,996.74c-0.49,0.42-0.85,1.28-1.34,1.79c-1.31-3.54-1.64-8.43,0.22-11.8  C290.02,989.81,291.69,993.41,291.13,996.74z" />
<path class="cls-10" d="M708.25,1036.59c-0.23,1.94-0.09,4.12-0.59,6.01c-0.42,1.61-2.25,2.91-2.04,4.78l-0.99-0.03h-0.96  C705.53,1043.91,705.23,1039.07,708.25,1036.59z" />
<path class="cls-13" d="M584.82,533.69c-2.08,1.39-4.67,1.4-7.07,1.87C578.34,532.85,582.84,532.04,584.82,533.69z" />
<path class="cls-13" d="M605.9,534.61c-1.78,0.14-3.71,0.47-5.1-0.93c0.51-1.16,2.18-0.9,3.49-0.96  C605.12,532.69,606.45,533.33,605.9,534.61z" />
<path class="cls-10" d="M711.36,1029.12l-0.85,4.8l-2.02,0.24C709.01,1032.2,708.82,1029.41,711.36,1029.12z" />
<path class="cls-13" d="M574.31,535.95c-0.16,2-2.48,2.35-4.16,2.66c-0.12-1.06,0.48-1.86,1.26-2.26  C572.42,535.83,573.38,536.03,574.31,535.95z" />
<path class="cls-6" d="M834.16,926.56c-2.17,0.03-2.49-2.34-2.8-4.1C833.58,922.34,834.03,924.72,834.16,926.56z" />
<path class="cls-2" d="M619.41,536.58c-0.07,1.12-1.58,1-2.59,1.1c-0.83,0.09-2.17-0.54-1.66-1.76  C616.7,535.89,618.12,535.42,619.41,536.58z" />
<path class="cls-9" d="M723.1,969.79c0.15-1.33-0.96-3.53,0.85-4.17c0.08,0.81,1.21,1.54,0.98,2.51  C724.7,969.08,724.35,970.31,723.1,969.79z" />
<path class="cls-1" d="M596.84,1399.93c1.7,0.51,3.48,0.96,5.35,1.34c6.74,0.1,14.18,0.37,19.86,4.11c0.46,1.09-0.56,1.98-3.07,2.67  c-0.92-0.14-1.9,0.16-2.82,0.17c-33.79,0.19-68.02,4.16-102.47-3.61c28.1-2.57,55.24-5.08,81.58-4.7L596.84,1399.93z" />
<path class="cls-3" d="M602.19,1401.28c-1.77-0.03-5.5,1.53-5.35-1.34C598.64,1399.96,602.05,1398.72,602.19,1401.28z" />
<path class="cls-3" d="M618.98,1408.06c0.07-1.58,2.14-1.64,3.07-2.67c2.97-0.22,2.19,1.94,0.63,2.3  C621,1408.07,620.14,1408.24,618.98,1408.06z" />
<path class="cls-10" d="M859.1,1206.79c0.09-0.74,0.41-1.86,0.88-1.83c10.13,0.65,24.17,2.17,34.04,4.07c3.23-0.24,5.08,0.63,5.53,2.6  c-0.12,0.56,0.17,1.2,0.08,1.77c-30.21-2.15-60.5-3.83-91.73,2.09c3.33,5.63,9.14,8.91,12.57,13.48c3.31,0.6,6.78,7.58,8.13,10.96  c1.72,2.61,1.72,4.6,0,5.99c0.63,1.07,1.18,2.15,1.65,3.22c2.55-0.18,2.47,0.79,0.05,1.6c-0.06,0.9,0.25,1.66,0.93,2.29  c1.92-0.3,2.02,0.63,0.26,1.61c0.74,0.12,1.8,0.34,1.9,0.89c0.42,2.52,0.45,10.77-2.25,11.44c-0.59,0.61-0.87,1.37-0.85,2.29  c2.7,1.25,2.34,5.22-0.23,6.41c-35.43,57.27-150.55,62.59-190.55,10.64c-5.53-22.44-0.98-45.65,13.35-64.17  c14.01-18.1,34.65-30.66,57.36-33.97c21.85-3.19,42.21-3.91,63.28,6.65l1.14-55.47l1.52,2.03c2.12,17.36,2.28,34.83,0.5,52.42  c1.94-0.39,4.1,0.25,6.5,1.9l17.86,11.21c14.18-1.44,28.38-2.4,42.62-2.86C849.69,1203.26,854.84,1204.18,859.1,1206.79z" />
<path class="cls-3" d="M955,1261.65c6.72,17.04-18.61,27.5-31.61,37.37c-28.2-15.01-60.01-21.12-91.86-22.08l-1.46-1.27  c-0.21-1.95,0.17-4.54,0.23-6.41c-0.22-0.91-0.04-1.89,0.85-2.29l0.35-12.33c3.96-0.94,5.94-1.41,5.94-1.41  c29.28,0.99,58.03,5.02,86.96,9.14c1.08,0.15,0.64-9.94-0.18-11.65l1.36-1.73c1.98-2.02,4.87-1.91,8.68,0.33  C941.61,1252.86,948.52,1256.97,955,1261.65z" />
<path class="cls-3" d="M913.9,1317.56c-0.52,0.67-1.07,1.32-1.71,1.86c-3.62,3.08-32.57,8.21-39.64,9.21l-4.58-0.92l-0.78,1.42  c-2.07-0.59-4.14-0.75-6.2-0.48l-0.32,1.24c-13.75-2.9-27.75-5.88-42.02-8.94c-2.83-0.01-5.23-0.55-7.22-1.63  c-19.57-5.6,8.58-12.8,14.39-27.15c10.85,8.25,22.81,5.14,35.45,5.87C880.61,1299.15,897.16,1309.43,913.9,1317.56z" />
<path class="cls-2" d="M913.9,1317.56c6.83,3.32,13.01,10.18,16.33,17.92c-6.49,3.63-13.69,3.83-20.09,3.24  c-2.65,0.88-5.42,1.1-8.2,0.91c-7.24-0.5-26.87-3.6-32.03-7.13c-0.84-0.58-1.61-1.27-2.35-1.99c-3.26-1.36-3.14-2.37,0.41-2.81  C883.24,1324.04,898.83,1322.28,913.9,1317.56z" />
<path class="cls-10" d="M860.99,1328.65c2.28-0.49,5.66-0.4,6.57,1.87c14.34,4.09,28.43,6.88,42.58,8.2  c-6.76,5.48-18.57,1.32-27.95-0.48c-8.23-1.58-76.53-11.39-70.77-18.93C808.3,1314.81,861.64,1328.83,860.99,1328.65z" />
<path class="cls-14" d="M472.28,476.41c-2.01,2.44-3.66,5.92-4.89,8.45c-9.03,8.89-16.75,19.85-23.44,32.1  c13.91-5.65,22.71-16.53,34.91-22.55c9.41-4.61,11.09,5.56,10.76,12.68c-0.4,0.95,0.21,2.39-0.08,3.4c0.52,2.42,0.24,4.45-0.82,6.12  c0.14,12.67-2.66,25.58-1.3,38.25l-2.79,3.42c-34.37,16.95-63.87,43.98-82.85,77.34l-3.57,2.57l-34.54-14.79  c-28.98-12.41-58.91-12.77-89.03-4.15c-12.72,3.64-23.97,10.2-36.37,11.5l-0.92-154.65L472.28,476.41z" />
<path class="cls-15" d="M487.44,554.88c5.19,48.27,30.91,92.29,62.73,128.62c9.35,10.67,19.32,20.06,26.76,31.66  c1.23,0.64,1.44,1.9-0.1,2.07c-20.39-4.42-38.62-14.69-58.08-23.64l-120.51-55.38C416.56,603.04,451.14,571.27,487.44,554.88z" />
<path class="cls-14" d="M363.58,921.41c4.14,10.04-73.06,4.39-74.48,3.39C274.31,914.38,360.63,914.24,363.58,921.41z" />
<path class="cls-8" d="M227.29,638.38l0.31,52.65c0.23,1.19,0.14,2.71-1.09,3.07l-75.67,0.03c-4.15-1.22-3.07-3.63,0.12-5.56  c-1.19-0.36-1.04-0.98,0.17-1.3l-0.21-1.93c2.39-5.45,4.29-11.07,5.71-16.84c1.21-3.71,3.04-5.39,5.5-5.03L227.29,638.38z" />
<path class="cls-11" d="M210.19,384.84c1.23-2.07,4.03-2.69,8.39-1.85c3.97-0.72,6.6-0.05,7.88,1.99c0.43,7.58,0.83,15.3,1.19,23.15  c-0.23,9.62-0.98,20.26-0.86,29.64c0.13,1.53-0.77,2.21-2.69,2.05l-1.34,17.88l-2.03,1.19c0.4,4.75-0.57,11.39-2.39,15.8  c-0.15,0.35-0.72,0.53-1.42,0.66l-42.98,0.76c0.08-0.32-0.09-0.75,0.03-1.06c10.23-26.54,21.48-52.98,29.33-80.24  C204.37,391.13,206.64,384.81,210.19,384.84z" />
<path class="cls-3" d="M201.04,542.36c-8.2,29.38-17.48,58.75-28.71,87.77c-2.69-0.36-1.51-2.7-1.28-4.05l1.5-2.31l25.49-79.47  C199.91,540.28,200.91,539.63,201.04,542.36z" />
<path class="cls-5" d="M219.16,478.03c-3.31,22.05-12.2,43.14-18.12,64.34c-1.69-1.94-1.4,2.01-3,1.96  c7.28-22.69,14.95-45.55,18.9-68.98c0.93-5.51,3.34-10.87,3.81-16.46c2.58,0.29,3.52,2.54,2.84,6.72  C223.41,468.98,222.28,477.12,219.16,478.03z" />
<path class="cls-6" d="M226.8,437.77l0.49,40.24l-8.13,0.02c0.96-6.37,4.17-13.28,1.58-19.15l1.39-16.41c0.13-1.48-0.21-3.46,0.7-4.14  C223.98,437.48,225.62,437.89,226.8,437.77z" />
<path class="cls-5" d="M162.12,663.49c-6.12,6.56-5.95,16.57-11,23.79c-0.73,0.25-1.19-0.37-1.38-1.84  c0.88-6.36,5.72-11.51,4.95-18.11c8.2-10.46,10.09-24.38,16.17-37.62C172.09,642.6,162.66,652.01,162.12,663.49z" />
<polygon class="cls-2" points="282.39,750.45 250.55,750.27 250.68,717.04 282.09,717.16 " />
<polygon class="cls-2" points="201.71,750.49 170.67,750.26 170.11,717.19 201.64,717.23 " />
<path class="cls-2" d="M161.61,749.88l-30.37,0.76l-0.51-33.55l30.29-0.25C162.12,727.48,161.83,737.76,161.61,749.88z" />
<polygon class="cls-3" points="241.12,750.23 211.28,750.6 211.23,717.72 240.85,717.13 " />
<path class="cls-5" d="M150.84,694.14l-4.87-0.9c0.47-1.58,0.83-3.58,2.63-4.01c1.37-1.8,2.16-2.02,2.36-0.65  C150.12,690.4,149.34,692.51,150.84,694.14z" />
<path class="cls-3" d="M81.32,985.7c-0.1,6.55,2.23,14.2-1.32,19.69C80.02,998.86,77.9,991.11,81.32,985.7z" />
<path class="cls-3" d="M81.44,978.41c-3.25-0.3-1.4-4.67-1.56-7.11C82.86,971.67,81.48,976.02,81.44,978.41z" />
<path class="cls-8" d="M1167.25,723.81c-5.47,1.4-11.3,1.42-16.98,1.22c-3.91,1.17-9.86,1.23-13.9,0.51c-0.25-0.04-0.43-0.47-0.59-1  l-2.4-3.94l-4.26-35.5c-1.06-1.87-2.02-3.73-2.87-5.56l15.29-6.48C1148.35,690.33,1161.99,705.72,1167.25,723.81z" />
<path class="cls-3" d="M859.25,1121.47l1.92,0.66c-0.1,55.66-0.15,83.5-0.15,83.5l-1.92,1.16c-19.3-2.31-38.62,0.77-58.37,1.96  c-8.77-3.92-15.85-11.75-25.49-14.15c0.18-19.32,1.57-37.29-0.59-55.27c-1.24-10.34,0.11-20.85-0.57-31.22l2.69-0.6  c24.58,11.69,53.63,12.29,80.43,12.13L859.25,1121.47z" />
<path class="cls-2" d="M901.34,1109.67l0.04,70.24c0.01,10.53,0.33,21.73-1.82,31.72l-40.45-4.84l0.15-85.32l3.25-2.14  c12.16-1.01,24.14-4.1,35-9.74L901.34,1109.67z" />
<path class="cls-9" d="M901.34,1109.67c-12.61,7.29-27.29,11.05-42.08,11.8c-21.38,1.1-66.53-1.22-85.18-13.35  c-0.37-5.65,6.2-11.2,12.61-12.85c33.3-8.55,70.61-8.4,103.32,1.07C898.22,1098.73,901.33,1103.38,901.34,1109.67z" />
<path class="cls-14" d="M839.86,1022.26c1.84,10.41-38.49,11.72-37.22,3.03C815.06,1024.39,827.42,1022.49,839.86,1022.26z" />
<path class="cls-14" d="M796.01,1025.58c-0.04,2.51-2.78,3.09-4.55,3.48c-2.92,0.65-5.74,0.45-6.19-2.59  C788.83,1026.1,792.46,1026.19,796.01,1025.58z" />
<path class="cls-14" d="M850.57,1020.68c0.24,1.96,0.15,3.86-2.46,3.76c-1.48-0.06-2.79-1.28-3.4-2.92  C846.7,1021.17,848.37,1020.24,850.57,1020.68z" />
<path class="cls-14" d="M772.99,1049.05c-2.35-0.25-5.83-0.57-7.98-0.56C766.92,1046.76,772.13,1046.09,772.99,1049.05z" />
<path class="cls-14" d="M783.54,1026.41c1.84,2.61-7.94,2.17-7.01,0.62C778.69,1027,781.1,1025.31,783.54,1026.41z" />
<path class="cls-7" d="M1120.01,857.92c12.61,7.66-69.25,8.9-69.08,0.74c0.14-6.35,58.71-3.12,66.6-2.84  C1119.13,855.88,1119.37,857.53,1120.01,857.92z" />
<path class="cls-7" d="M975.11,875.54c-8.64,1.69-19.55,1.71-28.37,0.15c-3.64-0.71-2.88-12.41,0.74-13.22  c8.04-1.79,18.12-1.76,26.72-0.42C978.38,862.69,978.38,873.38,975.11,875.54z" />
<path class="cls-14" d="M950.48,439.83c-6.06,14.74-15.77,28.6-18.44,43.83c-0.62,0.28-1.62,0.49-1.99,1.15c0.5,0.38,0.87,0.7,0.82,0.8  c-16.6,31.24-34.2,63.89-52.57,96.57c-5.26,9.35-10.57,18.64-16.16,27.8c-1.4,2.3-3.06,4.44-4.79,6.54  c0.08,1.75-0.64,2.27-1.95,1.07c-4.39-0.71-6.38-0.98-7.96,2.38c-1.37,5.41-1.32,10.65,0.13,15.71l0.11,1.64l2.06,1.94  c13.79,0.39,27.57-0.35,41.99,1.47c4.04,12.8-3.5,24.85-2.64,36.89c-1.06,5.48-2.41,10.99-4.04,16.52c1.79,0.58,1.75,1.38-0.09,1.79  c-0.48,2.53-1.4,4.18-2.77,4.96c-3.17,1.56-7.01,1.35-11.51-0.63c-14-5.37-28.37-8.05-43.11-8.04l-2.77-1.82l-2.89-2.98  c-20.48-60.36-69.68-115.5-132.2-132.85l-3.22-2.7c-2.08-5.22-2.38-11.85-6.6-15.16c2.93-22.44-2.55-46.52-12.7-67.14l153.02,0.14  C862.99,453.19,905.4,435.09,950.48,439.83z" />
<path class="cls-14" d="M989.89,464.72l1.15,0.46c-2.95,23.92-6.36,48.26-10.22,72.07c-0.04,0.22-0.4,0.39-0.85,0.55l0.58,1.26  c-4.44,28.78-8.9,57.55-13.37,86.31l-1.37,0.45c-11.19,0.23-22.37,0.53-34.72-0.02l0.03-34.17c4.46-0.94,8.78-1.44,9.04-6.63  c-8.79-0.84-17.76-1.44-26.49-0.06c1.2,5.7,5.97,5.71,10.9,6.57c1.56,11.31,1.17,22.82-0.01,34.33l-67.27,0.31  c-0.45-2.36-0.45-4.22-0.15-5.98c-0.94-1.21-0.85-2.75,0.94-2.83C883,573.34,907.2,529.57,930.67,486l1.29-0.06  c0.33-0.61-0.03-1.6,0.09-2.28l23.12-44.11c11.83,0.78,23.52-1.34,35.86,2C990.33,449.64,990.88,457.44,989.89,464.72z" />
<path class="cls-15" d="M824.82,690.39l-3.02,1.92c-20.39,5.58-40.65,11.61-60.77,18.08l-3.58-0.04  c-25.13-51.61-49.52-104.72-70.94-158.49C749.04,565.09,807.69,630.2,824.82,690.39z" />
<path class="cls-8" d="M882.2,700.88c1.15,0.39,0.48,5.32,0.17,7.17c-1.23,7.21-5.21,24.88-7.88,31.2c-0.07,2.3-1.04,3.5-2.89,3.61  c-12.21,0.51-24.3,2.5-37.43,2.3c-2.79,10.89-4.39,21-5.86,31.48l-41-0.45c-10.48-21.43-19.38-44.33-29.85-65.84  c21.99-8.17,44.33-15.39,67.37-19.96C852.66,689.11,859.79,696.94,882.2,700.88z" />
<path class="cls-14" d="M660.37,548.25c-3.7,0.35-8.01-1.55-11.54-2.78c-6.94-8.31-16.56-10-25.96-14.38  c-0.25-0.11-0.61,0.03-0.87-0.04l-0.99-2.08c-9.88-12.32-13.27-31.47-3.98-45.57C647.15,481.01,663.18,523.21,660.37,548.25z" />
<path class="cls-2" d="M834.25,903.45c-2.58,0.3-2.2-2.45-2.81-4.09C833.93,899.14,833.46,901.96,834.25,903.45z" />
<path class="cls-6" d="M837.9,923.47c-4.77-3.05-6.03-10.27-8.28-15.53C833.79,911.8,835.88,918.11,837.9,923.47z" />
<path class="cls-12" d="M1004.02,678.72c0.29-1.97,1.31-1.86,2.08,0.04c5.3-1.5,10.96-1.84,17-1.02c6.84-0.8,13.32-0.48,19.44,0.97  c0.4-2.96,3.58-2.89,4.79-0.22l49.24,1.81l29.7-0.77c2.39-0.06,4.52,3.01,4.86,5.85l4.67,39.15l-2.23,0.38  c-5.71-3.21-11.95-5.78-18.71-7.71c-3.51-2.83-2.1-4.76,4.24-5.79l-1.8-2.29c-0.09-4.72,0.14-9.27,0.67-13.65  c-7.74,0.17-15.52,0.39-23.31,0.66l-0.35,10l-1.96,1.25c-1.25,5.19-6,8.46-10.85,4.51c-3.16,0.61-5.63,0.37-7.38-0.72l-2.12-1.18  c0.01-4.63-0.26-9.23-0.8-13.8c-1.78-0.2-2.96-0.95-3.52-2.26c-6.65-1.45-13.7-1.63-20.3,0.14c1.13,1.3,1.28,3.16,0.46,5.57  l0.06,9.85c0,0-0.72,0.5-2.17,1.51l-0.92,2.01c-2.61,0.79-10.14,0.7-12.9,0.12c-3.04-0.63-8.99-1.97-7.65-5.71l-1.98-1.18  c0.29-3.46,0.1-6.86-0.57-10.2c-7.67-1.78-15.04-1.53-22.09,0.74l-2.17-1.03c-0.78,0.9-1.05,1.96-0.8,3.19  c3.04,0.62,2.87,9.5-0.01,10.3l0.97,1.93c0.84-3.03,10.52-2.62,11.45,0.33c5.24,3.07-2.28,6.38-6.43,3.5  c-13.97,3.27-28.43,4.08-43.39,2.42c-9.01,1.81-17.92,2.34-26.72,1.57c-3.32-0.92-9.83-3.94-7.28-7.69l-1.83-2.62l-0.11-12.63  l-22.44,0.01c-0.01,3-0.85,4.92-2.51,5.75c-1.1,3.84-2.03,7.76-2.79,11.75c-13.23,5.51-15.88-7.8-10.58-17.7  c-0.05-0.59,0.09-1.2,0.09-1.79c1.26-5.21,2.67-10.34,4.23-15.41l0.9-0.1L1004.02,678.72z" />
<path class="cls-14" d="M1007.07,476.31l1.08,0.11c4.25,20.87,8.12,42.25,11.19,63.34c0.03,0.23-0.32,0.51-0.78,0.81  c0.58,0.4,1.05,0.82,1.15,1.31c2.2,11.52,4.58,24.65,6.2,36.2c0.08,0.54-0.17,1.12-0.51,1.72c1.7,0.29,2.02,4.18,0.14,4.63  c0.51,0.64,0.95,1.45,1.32,2.43c2.04,7.19,3.6,14.59,4.66,22.21l11.37,55.93c1.62,5.04,1.5,9.62-0.36,13.72  c-12,1.24-24.46,1.28-36.44,0.04c-0.5-0.43-0.89-0.86-0.91-1.31c-0.37-7.32-0.73-16.89-0.37-24.1c0.19-3.79,0.63-7.58,2.14-11.1  c2.06,0.18,4.57-1.04,6.58-0.28c1.15-0.67,2.59-1.13,4.3-1.38c2.76-0.26,5.14-1.75,5.43-4.93c0.01-1.95-0.6-3.63-1.82-5.02  c-0.2-0.33-0.68-0.51-0.85-0.85c-3.25-2.07-7.26-2.7-12.02-1.88l-2.51-1.11l-0.9-119.72c0.37-1.8,0.57-3.82-0.68-5.27l-0.06-25.82  C1004.71,473.71,1006.11,474.65,1007.07,476.31z" />
<path class="cls-14" d="M997.47,449.33l-0.03,176.7c-10.01,1.57-19.69,0.89-28.99-0.18l-1.24-0.35c4.4-28.67,8.83-57.34,13.28-86.02  l0.86-0.54l-0.29-3.32c3.57-22.59,6.81-45.22,9.71-67.9l1.55-3.15c0.1-1.19,0.27-2.42,0.25-3.62l0.19-4.14  C992.93,453.52,993.71,449.45,997.47,449.33z" />
<path class="cls-5" d="M981.34,538.94l-12.9,86.91c-0.86-0.1-1.78-0.05-2.64-0.04l14.17-88.02  C980.69,536.28,981.15,536.67,981.34,538.94z" />
<path class="cls-6" d="M1020.4,540.56c-0.12,2.57-1.05,2.43-1.83,0.01l-11.49-64.26c-1.72-0.5-2.26-1.83-1.12-3.17l0.15-6.81  C1014.29,489.46,1016.05,515.62,1020.4,540.56z" />
<path class="cls-3" d="M1006.96,642.25c-2.54,11.71,0.02,24.32-0.86,36.51c-0.68-0.07-1.39-0.04-2.08-0.04  C1005.99,666.44,1000.65,652.06,1006.96,642.25z" />
<path class="cls-7" d="M890.19,678.63c-3.09,4.88-0.82,11.61-5.13,15.51c0.6-5.6,1.1-11.68,4.04-16.52L890.19,678.63z" />
<path class="cls-5" d="M847.44,619.97c0.47,5.21-0.23,10.5,0.13,15.71C843.78,632.07,845.54,624.01,847.44,619.97z" />
<path class="cls-3" d="M1020.6,629.79c-4.58-3.03-11.74,1.95-14.54-2.98C1011.12,627.68,1018.09,624.78,1020.6,629.79z" />
<path class="cls-6" d="M1005.96,459.99c-1.28-2.27-0.74-4.5-0.75-7.04C1008.2,451.17,1007.16,461.41,1005.96,459.99z" />
<path class="cls-5" d="M1005.16,507.09c-0.52-1.51-0.68-3.4-0.68-5.27c1.28-0.52,1.64,1.09,1.65,1.8  C1006.13,504.88,1006.33,506.62,1005.16,507.09z" />
<path class="cls-3" d="M1023.26,635.66c-1.31-1.32-1.41-3.28-1.82-5.02c1.36,0,1.7,1.05,2.36,2.12  C1024.57,633.98,1023.49,634.74,1023.26,635.66z" />
<path class="cls-3" d="M1017.83,640.59c-1,1.13-2.06,2.22-4.3,1.38c-0.48-1.34,1.04-1.67,1.78-1.67  C1016.08,640.29,1017.26,640.43,1017.83,640.59z" />
<path class="cls-5" d="M1027.25,579.82l20.08,98.68c-1.38-0.05-3.39,0.07-4.79,0.22c-1.55-30.83-13.5-60.9-15.68-91.86  c-0.39-0.69-0.83-1.5-1.32-2.43c-0.18-1.45,0.35-3.21-0.14-4.63C1025.57,577.23,1026.5,577.39,1027.25,579.82z" />
<path class="cls-9" d="M1020.4,540.56l6.85,39.26l-1.85-0.02c-4.38-12.72-4.49-26.14-6.83-39.23L1020.4,540.56z" />
<path class="cls-4" d="M228.21,323.66l-0.67,61.26c-0.27,0.85-0.63,0.86-1.07,0.05l-16.28-0.14c-0.78-1.34,16.25-51.75,8.05-45.65  C220.38,333.45,222.72,326.06,228.21,323.66z" />
<path class="cls-6" d="M274.45,385.17c-6.6,5.71-18.22-2.89-37.4,7.39l0.03-7.66L274.45,385.17z" />
<path class="cls-6" d="M227.66,408.12c-2.62-7.26-0.28-15.4-1.19-23.15l1.07-0.05C227.46,392.43,227.86,400.03,227.66,408.12z" />
<path class="cls-2" d="M916.84,1236.51c4.29,1.3,10.67,8.28,8.74,12.47c2.07,4.26,0.93,10.24,1.5,15.9  c-32.07-7.06-63.77-7.35-95.58-10.25c0.01-0.53-0.2-1.08-0.26-1.61c-0.94-0.29-1.21-1.36-0.93-2.29l-0.05-1.6  c-0.62-1.01-1.17-2.09-1.65-3.22c-1.19-6.24-5.63-11.2-8.13-16.95c1.42-1.71,4.36-2.97,7.22-2.99  C854.78,1225.79,894.88,1222.98,916.84,1236.51z" />
<path class="cls-10" d="M955,1261.65c-10.67-2.22-18.44-11.87-29.42-12.67c-2.07-4.27-5.93-8.76-8.74-12.47  C930.61,1236.26,949.67,1248.13,955,1261.65z" />
<path class="cls-7" d="M898.34,701.87c2.06,0.97,2.8,3.52,2.22,7.64l23.28-0.06l1.39,1.92c5.89,10.93,22.75,4.83,33.92,4.21  c6.32-0.35,32.17,2.69,42.85-2.28c1.2-0.56,3.99,1.41,5.47,1.09c1.16-0.25,1.98-0.76,1.58-2.81l0.48-1.26  c3.62-0.05,7.27-0.4,10.94-1.04c1.21-1.43,2.47-2.03,3.78-1.79c5.87,5.65,15.02,4.14,21.47,3.57l1.78-2.03  c8.16,0.72,16.31,0.94,24.44,0.67l2.17,1.52c4.15-0.99,7.31-3.03,11.78,1.32c2.91-1.85,3.83-4.5,6.45-5.11  c2.04,1.34,4.23,2.18,6.56,2.51l18.88-0.54l1.32,2.04c-0.11,2.08-2.33,1.65-3.32,1.8c-2.4,0.38-0.25,2.31,0.53,2.61l4.07,1.55  c5.79,2.2,11.2,2,15.41,7.14c1.79,0.83,1.64,1.7-0.29,2.01c-87.84,6.77-175.88,12.61-263.9,16.31l10.6-41.99  c0.44-1.75,1.32-4.05,2.77-4.96c0.53,6.13-4.04,9.05,0.98,15.31c1.48,1.85,7.79,3.08,8.53,0.59  C895.7,707.7,894.45,702.99,898.34,701.87z" />
<path class="cls-5" d="M1150.28,725.03c-3.62,3.62-9.87,1.14-14.78,1.52c-0.02-0.66,0.36-1.36,0.29-2.01L1150.28,725.03z" />
<path class="cls-3" d="M335.33,442.23c-0.94-0.35-1.73-0.84-2.37-1.47l-5.77-0.22c-4.72,0.43-8.55-0.51-2.41-3.4  c13.83-4.37,24.51,6.18,36.47,9.2c12.16,3.07,28.82-6.59,39.52,6.3c-15.22-5.48-28.03-2.56-40.4,6.14  C351.9,451.43,344.99,441.38,335.33,442.23z" />
<path class="cls-6" d="M324.78,437.14c-0.07,0.82-1.48,1.04-1.87,1.71c-0.74,1.27,1.4,1.58,2,1.47c0.56-0.11,1.35,0.2,2.28,0.23  c-2.44,0.22-5.25,1.33-7.7-0.63C321.05,437.83,323.11,437.66,324.78,437.14z" />
<path class="cls-13" d="M489.63,507.1l-2.15-9.23c-0.87-3.73-4.88-4.32-8.61-3.45c3.51-1.73,6.83-4.35,9.31,0.39  C490.17,498.61,491.49,503.51,489.63,507.1z" />
<path class="cls-13" d="M488.73,516.62c-0.02-2.09-0.61-4.35,0.82-6.12c1.26,0.51,0.96,2.24,1.11,3.57  C490.79,515.13,490.49,517.14,488.73,516.62z" />
<path class="cls-9" d="M354.36,940.7l-24.13,0.2C336.59,937.33,347.66,937.79,354.36,940.7z" />
<path class="cls-5" d="M797.97,1295.1c-1.09,0.39-2.01-0.05-2.76-1.33c-18.84-1.71-37.14-8.56-52.3-19.96  c-7.22-5.43-15.63-12.22-18.23-21.04c0.13-5.04-2.62-11.04,3.38-15.74c8.72,29.47,49.85,38.31,75.62,43.31  c3.21,0.62,5.86,0.88,7.94-2.49c1.03-1.67,2.31-4.29-0.41-6.26c1.24-5.06,1.63-7.61,0.63-12.84c-1.62-3.22-1.89-5.91-0.82-8.06  c-2.83-1.52-5.08-4.13-6.74-7.82c0,0-2.94-3.12-8.83-9.37c-2.63-1.18-4.07-2.8-4.32-4.88l-5.08-1.71  c-4.54-4.74-9.76-7.66-15.66-8.75l-1.32-1.91c-6.69-6.94-18.27-6.97-27.82-8.42l-3.01,1.55c-14.04-1.52-27.82,2.42-40.32,8.57  l-5.6,1.1l-1.12,2.91c-10.85,6.57-21.45,14.37-27.87,25.58l-2.88,1.34c-0.94,1.43-1.85,2.79-2.73,4.07c0.86,0,0.81,0.21-0.05,0.59  c-0.88,2.32-1.53,2.7-2.72,0.34c3.01-16.54,11.11-29.84,24.8-40.64c40.72-32.11,105-22.58,132.64,21.32  C825.66,1255.66,819.53,1285.45,797.97,1295.1z" />
<path class="cls-5" d="M745.93,1311.32c-2.46-0.97-4.78-2.5-6.95-4.56l-11.5-6.16l-1.75-3.56c-1.64-0.29-3.38-1.18-5.22-2.67  c-10.43,0.75-20.56,4.06-30.37,9.93l-3.64-0.6c-13.33-2.99-25.78-11.27-29.58-25.04c17.36-9.33,36.29-13.88,55.3-16.8  c10.42,25.68,37.13,36.87,62.26,43.57C764.41,1308.23,755.3,1311.12,745.93,1311.32z" />
<path class="cls-3" d="M769.06,1216.25c8.76-0.47,15.24,7.12,22.06,12.37l-1.63,1.67c-2.27-0.08-12.2,0.08-13.23,1.07  c-1.22,1.18-1.19,13.85,1.09,15.55l31.33,1.73l2.33,2.05c2.76,6,6.12,17.04,0.2,20.9l-14.24-1.64c-0.96-1.07-1.73-1.52-3.21-0.89  c-16.57-3.76-32.83-10.42-45.67-22.08c-4.21-3.82-8.08-10.04-4.89-15.2c4-6.47,11.29-10.47,17.88-12.81l2.32-1.56  C765.29,1217.14,767.12,1216.36,769.06,1216.25z" />
<path class="cls-8" d="M692.3,1219.05l6.4-1.45l31.99,2.35c3.44,1.2,4.35,1.83,1.76,5c-8.69,5.92-17.89,12.48-20.57,24.43  l-56.26,14.01c-2.05-1.89-0.37-8.71,2.02-9.85l0.05-0.59c0.88-1.42,1.79-2.78,2.73-4.07  C667.15,1235.29,679.98,1226.37,692.3,1219.05z" />
<path class="cls-3" d="M797.97,1295.1c-5.83,2.61-11.01,6.21-17.9,8.74c-19.31-7.99-56-26.98-55.4-51.07  c16.55,22.39,42.37,36.46,70.58,39.09C797.09,1292.04,797.81,1294,797.97,1295.1z" />
<path class="cls-9" d="M725.73,1297.03c5.62,4.56-1.23,14.41-6.84,15.84c-10.86-1.06-23.16-3.43-32.4-9.18  C695.41,1300.61,721.63,1284.19,725.73,1297.03z" />
<path class="cls-11" d="M741.23,1207.83c-0.86,5.93-3.65,13.63-8.77,17.11c0.1-0.71,0.23-1.67-0.12-2.15c-0.8-1.1-2.19-0.95-3.48-1.05  l-36.56-2.7C706.76,1210.45,723.86,1205.18,741.23,1207.83z" />
<path class="cls-3" d="M745.93,1311.32c-9.72,0.21-18.16,2.42-27.04,1.56c3.53-5.46,9.07-8.86,6.84-15.84  C732.25,1302.3,742.75,1304.16,745.93,1311.32z" />
<path class="cls-6" d="M657.66,1253.54c-0.29,3.45-2.45,6.35-2.02,9.85c-3.91-0.05-1.21-6.71-0.7-9.51  C655.83,1253.67,656.74,1253.57,657.66,1253.54z" />
<path class="cls-5" d="M867.97,1327.71c-0.66,0.81-1.03,1.88-0.41,2.81l-6.57-1.87C862.71,1326.62,865.72,1328.25,867.97,1327.71z" />
<path class="cls-6" d="M931.96,485.93l-39.67,74.16c-10.71,20.02-20.9,39.52-34.22,57.24c-0.27-0.24-0.51-0.51-0.71-0.81  c17.06-30.44,33.21-61.04,50.4-91.79l22.31-39.91C930.44,485.52,931.18,485.86,931.96,485.93z" />
<path class="cls-2" d="M636.1,525.01c-6.28,1.36-9.54-3.48-10.58-7.49c-1.25-4.79-1.2-10.64,3.85-12.86  c4.91-2.15,10.75,1.96,12.11,6.3C643.02,515.91,642.23,523.68,636.1,525.01z" />
<path class="cls-10" d="M992.3,464.57c-2.07,25.1-7.32,49.85-10.96,74.37l-1.37-1.15l9.92-73.07L992.3,464.57z" />
<path class="cls-2" d="M975.21,709.31c0.68,0.8,0.18,1.83-0.96,1.95l-26.49-0.02c-1.38-5.74-0.53-11.02,0.34-16.86l27.03-0.13  C976.71,699.49,975.35,704.47,975.21,709.31z" />
<path class="cls-2" d="M1067.66,693.97c1.36-0.01,4.77-0.44,5.18,1c1.61,5.78,0.3,11.11,1.26,16.23c-9.24,2.21-19.21-0.96-28.39-0.16  c1.2-5.64-1.27-11.72,1.65-16.93C1053.96,692.32,1061,692.51,1067.66,693.97z" />
<path class="cls-2" d="M1024.24,707.48c-2.16,6.19-9.82,4.25-15.2,4.09l-11.45-0.33c-1.12-0.15-1.5-0.99-0.97-1.93l0.01-10.3  c-0.39-1.07-0.47-2.7,0.8-3.19c7.28-4.24,17.59-2.66,26.11-1.38C1024.75,699.5,1023.94,703.34,1024.24,707.48z" />
<path class="cls-2" d="M925.22,711.36l-26.51,0.08l-0.38-9.57c-0.09-2.35,0.26-4.72,0.49-7.67l26.47-0.02  C925.74,700.32,925.39,705.83,925.22,711.36z" />
<path class="cls-2" d="M1119.09,711.43c-8.98-1.13-27.03,3.75-26.76-4.02l0.46-13.23c8.79-0.49,17.21-0.51,26.14,0.04  C1119.7,700.44,1119.38,705.97,1119.09,711.43z" />
<path class="cls-7" d="M1067.66,693.97l-20.3,0.14C1052.47,690.67,1062.37,691.05,1067.66,693.97z" />
<path class="cls-10" d="M992.55,460.95l-0.92-1.74c-0.43-0.83,0.74-1.74,1.11-2.39C993.96,455.7,993.83,461.99,992.55,460.95z" />
<path class="cls-2" d="M791.12,1228.63c8.71,4.03,15.92,13.42,19.89,22.06l-35.49-1.96c-2.54-5.99-2.47-13.08-0.7-19.56  C780.52,1229.13,786.29,1227.57,791.12,1228.63z" />
<path class="cls-6" d="M660.44,1248.88c-0.73,1.48-0.2,4.51-2.73,4.07C657.86,1251.11,658.31,1248.91,660.44,1248.88z" />
<g>
</g>
<g>
</g>
<g>
</g>
<g>
</g>
<g>
</g>
<g>
</g>
<g>
</g>
<g>
</g>
<g>
</g>
<g>
</g>
<g>
</g>
<g>
</g>
<g>
</g>
<g>
</g>
<g>
</g>
</svg>