<?xml version='1.0' encoding='UTF-8'?>
<svg xmlns="http://www.w3.org/2000/svg" id="Layer_1" viewBox="0 0 1200 1543" xml:space="preserve" width="1200" height="1800">
<style type="text/css">
      .cls-1 {
        fill: #0d1a23;
      }

      .cls-2 {
        fill: #062636;
      }

      .cls-3 {
        fill: #212b35;
      }

      .cls-4 {
        fill: #2b333e;
      }

      .cls-5 {
        fill: #164a5e;
      }

      .cls-6 {
        fill: #3d454e;
      }

      .cls-7 {
        fill: #1b677e;
      }

      .cls-8 {
        fill: #0e8187;
      }

      .cls-9 {
        fill: #82563f;
      }

      .cls-10 {
        fill: #5d656f;
      }

      .cls-11 {
        fill: #549097;
      }

      .cls-12 {
        fill: #61a3aa;
      }

      .cls-13 {
        fill: #80b4b9;
      }

      .cls-14 {
        fill: #ecba7e;
      }

      .cls-15 {
        fill: #a3d1d1;
      }

      .cls-16 {
        fill: #f1f1e7;
      }

    </style>
<path class="cls-6" d="M1116.96,0c1.12,0.48,2.73,1.47,2.49,2.21c-7.24,22.38-41.17,44.36-62.3,51.06  c-10.19,11.59-24.24,19.35-38.9,23.78c-11.63,3.52-37.93,7.05-48.89,2.07c-0.78-0.35-1.25-0.97-1.44-1.81  c-1.23,28.4-21.11,55.37-44.57,71.13c-30.5,20.49-68.09,22.16-101.34,8.81c-30.6,40.81-97.08,38.92-124.03-4.8  c-41.33,9.65-69.37-31.54-59.71-69.8c-19.82-1.79-31.93-15.58-30.95-35.68c-26.9,24.06-65.56,30.59-99.38,16.94  c-12.38-4.99-27.69-13.96-33.71-25.66c-11.92,17.3-34.07,30.23-54.37,36.49c-45.35,14-96.78-0.95-128.99-35.49  c-3.5,18.46,4.46,34.23,16.61,47.9c25.05,28.18,55.52,45.2,93.53,48.4l4.57,3c1.13,7.02-8.65,14.12-14.31,18.12  c-6.39,4.53-13.56,7.96-21.05,10.22c-7.34,2.21-16.72,4.94-23.2,0.44l-4.5-0.44c-27.55-23.92-66.19-34.19-100.53-19.12  c-3.47,1.37-4.53-1.08-5.66-4.47c-11.25-46.22-56.48-71.82-102.49-69.07C98,76.4,65.74,97.72,68.42,136.55  c-0.12,2.49-1.44,3.44-3.91,2.92c-20.59-7.22-40.37-6.48-60.57,1.35L0,139.29V0H1116.96z" />
<path class="cls-4" d="M1116.96,0H1200v133.88c-3.03,6.57-13.18,11.25-20.06,14.29c-12.29,5.44-28.13,9.21-41.08,5.62  c0.6,0.45,0.76,1.02,0.68,1.74c-2.39,23.17-35.82,46.53-58.27,39.86c-25.01,92.41-141.28,128.46-220.28,78.16l-2.56-4.57l-2.76,0.45  c-10.34,6.81-20.5,13.93-30.48,21.35l-2.88-1.41l-3.56,4.79c-71.27,35.4-166.16,13.41-203.09-60.13c-7.53-15-14.1-34.5-12.35-50.86  c-8.95,5.39-22.51,6.25-33.22,6.47c-32.35,0.66-53.17-9.15-77.85-28.82c-3.29-2.62-10.62-9.67-9.83-13.41  c-7.12-6.71-11.95-15.16-14.47-25.36l-1.78-0.17c-12.19,7.56-25.14,12.07-38.85,13.53c-0.35,3.08-18.77,6.28-19.74,5.83  c-1-0.46-1.53-1.63-1.97-2.68c-40.1-2.12-78.54-21.06-103.19-53.53c-14.26-18.78-17.13-28.32-13.33-51.95  C308.72,56.37,334,69.8,362.84,75.24c41.59,7.85,82.6-6.68,111.34-39.05c33.8,41.24,101.95,43.2,136.15,2.93  c-0.53,8-0.9,16.94,2.84,25.13c5.05,11.05,16.31,15.13,28.52,15.89c-6.87,23.96,0.05,49.9,20.26,64.01  c10.66,7.44,24.17,7.74,37.08,6.11c8.9,12.57,19.76,22.87,34.29,28.39c31.91,12.14,66.34,3.15,87.83-23.65  c6.6,1.29,11.91,3.39,18.04,4.92c30.2,7.52,61.53,2.15,86.34-16.3c22.59-16.8,36.93-39.35,41.13-67.98  c30.11,8.67,68.78-1.58,89.05-24.58c14.51-5.33,27.72-12.03,39.47-21.94C1100.61,24.56,1117.82,6.16,1116.96,0z" />
<path class="cls-15" d="M1200,757.53v304.57c-3.44,1.95-7.07,0.28-10.9-5.02c-6.51-10.92-13.05-16.83-25.61-19.32  c-3.5-19.4-14.4-33.17-35.37-30.02c-3.5-1.1-4.79-3.78-4.97-7.28c-0.89-16.94,8.32-39.58,16.84-53.68l-1.6-1.24  c-6.81,17.52-13.01,35.48-17.97,53.74c-4.22,4.44-14.46,2.5-15.36-3.92c-4.18-30.04,5.37-84.9,22.23-110.09  c0.39-0.58,1.93,0.32,2.68,1.35c2.27-0.29,3.78,1.38,4.53,5c3.49,3.35,7.54,6.49,12.16,9.4c4.9,11.5,6.14,12.06,3.71,1.67  c-1.4-4.35-2.18-8.62-2.34-12.79c5.39-3.6,11.3-1.87,17.72,5.2c-2.62-11.06-10.92-17.33-24.88-18.79c-2.05-2.13-0.84-3.68,1.53-5.27  l18.9-3.39c-7.14-4.84-16.01-4.59-23.26-0.05c-2.57,1.1-4.64,1.35-5.71-1.34c-5.46-26.82-33.44-47.32-60.75-38.55  c-6.36-3.07-1.78-7.68,3.88-8.08c1.2-2.8,3.36-4.05,6.32-4.24c0.01-3.65,3.48-5.28,10.41-4.91c4.57-3.84,8.08-5.51,14.26-5.82  c-11.17-7.04-23.44-4.95-34.46,1.29c-11.76,10.15-12.8-0.17-6.01-9.13c3.47-0.27,11.5-14.74,10.57-14.64  c-14.24,1.5-26.69,22.26-27.12,35.75c-0.6,2.3-2.02,2.97-4.24,2.06c-12.26-6.47-25.08-9.9-38.41-4.73  c-8.82,3.42-17.29,8.33-2.62,6.23c3.28,2,7.29,3.05,12.05,3.14c5-2.77,8.35-2.16,10.05,1.81c18.29-1.99,15.65,7.96-0.85,7.73  c-15.78,3.97-25.69,18.71-28.22,34.33l8.39-8.03c3.94,1.11,6.25-1.52,6.92-7.89c3.17-4.31,4.95-3.23,7.96,0.88l10.73-5.57  c6.53-0.57,5.56,2.81,3.55,7.78c-6.79,9.09-7.59,21.7-6.23,32.76c1.99,16.26,3.04,11.62,4.11-0.6c2.42-1.21,3.36-3.7,2.81-7.48  c0.99-1.47,2.72-2.15,5.19-2.06c-2.14-8.54-0.4-12.76,5.2-12.68c3.12-5.1,5.11-10.44,5.97-16.01c0.6-3.27,1.62-5.27,5.18-4.39  c1.97,0.82,3.19,2.25,3.96,4.16c11.41,28.11,21.78,74.12,20.49,104.35c-0.23,5.49-0.92,11.06-3.12,16.12  c-0.47,1.55,0.57,2.27,2.53,2.48c0.45,17.02-3.78,22.39-12.7,16.1c-2.52-15.47-6.17-30.66-10.97-45.57  c-3.24-7.32-3.39-6.83-0.45,1.46c3.95,8.47,11.13,30.65,9.97,39.43c-0.49,3.68-1.84,3.94-5.32,3.81c-4.77-1.74-9.81-2.23-14.3,0.63  c-7.3,6.66-15.15,9.49-23.54,8.47c-7.66-22.05-16.6-41.7-32.28-59.09c-1.21,0.41-2.98-1.38-2.89-2.28c0.16-1.6,3.03,0.8,1.62,3.41  c16.85,14.33,28.66,36.43,29.18,59.06c-6.2,3.52-11.95,7.6-17.24,12.24l-4.21,0.98l-1.67,2.6l-32.77-1.66  c-23.69,13.08-45.43,28.89-65.23,47.44l-6.05,2.78l-1,2.87c-28.12,6.03-55.94,13.28-83.44,21.75l-0.08,1.79  c-18.7,1.28-37.76,1.81-57.18,1.59l-1.6-2.66l-1.74-3.14c0.93-8.58,6.53-28.48,14.77-31.73c35.84-3.57,61.08-29.74,59.81-66.52  c-6.21,0.14-9.82-1.53-10.84-5.01c2.9-26.33,6.54-52.47,10.93-78.43l71.11-54.11c3.36-3.55-0.49-9.16-5.14-6.87L861.1,862.2  c-6.96,6.98-11.54,8.02-13.75,3.1c-11.55-6.9-22.26-14.88-32.13-23.92l1.16-3c-0.76-0.14-1.46-0.34-2-0.76  c-3.13-2.47-25.86-28.6-25.71-30.59c0.09-1.14,1.61-1.66,2.93-1.73l3.9-2.07c12.91,1.37,26.96,9.76,36.74,17.99  c5.03-16.55,17.77-24.26,32.01-31.71c25.23-51.28,96.13-57.97,132.79-14.97c14.51-18.91,28.15-38.32,40.91-58.25  c3.56-7.86,11.93-1.32,5.38,4.17l-38.05,57.21c6.66-0.82,30.65-5.67,34.32-9.47l32.78-47.51c2.17-0.27,3.44,1.11,4.52,2.96  l-25.91,42.31c1.56-0.16,2.98-0.93,4.28-2.32c11.66-13.09,25.26-22.42,42.61-26.9c8.95-2.31,34.13-4.92,41.76-0.76  c3.16,1.72,2.88,3.02,1.42,6.19c-5.55,3.72-10.6,7.62-15.14,11.7c24.09,0.66,48.25,0.98,72.5,0.95L1200,757.53z" />
<path class="cls-10" d="M1200,234.13v198.19l-2.97,3.47c-41.61,10.63-68.55,48.74-66.4,91.44c-0.02,2.71-1.37,3.8-4.04,3.26  c-46.02-12.11-93.72,17.96-95.08,67.05c-0.45,3.94-1.08,6.66-4.97,5.28c-46.27-22.74-99.56-7.74-120.78,40.78  c-12.8,2.5-23.64,7.23-33.69,15.63c-33.61-11.95-72.39-3.98-93.98,25.19l-2.92,0.9l-1.22,2.69c-23.14,0.24-46.28,0.48-69.44,0.73  l-1.64-2.66c-5.22,2.28-8.16-12.88-8.43-16.94l1.94-2.36c-0.75-5.1,4.41-10.76,7.88-14.46c19.7-21.02,46.76-26.86,73.81-17.46  c-0.17-27.69,27.83-44.92,53.64-40.7l0.86-1.04c-7.28-18.33-0.82-35.11,9.15-50.52l3.23-0.29c1.04-8.17,12.15-15.22,19.28-19.42  c17.08-10.06,36.42-10.9,55.6-7.26l1.36-1.1c-12.25-51.57,34.33-95.44,84.61-92.38c-4.31-0.9-8.38-2.42-12.19-4.56  c-1.87-2.96-0.37-14.45,0.26-18.61c1.21-8.08,3.67-22.07,11.47-24.89l-0.14-4.68c18.9-27.98,52.37-42.12,85.61-36.17  c5.96-54.46,50.42-96.94,105.19-101.54L1200,234.13z" />
<path class="cls-8" d="M213.15,1354.14c-1.15-9.54,11.16-6.14,17.34-3.77c23.04,14.27,45.92,29.1,68.63,44.49l-17.31-30.28  c-1.89-7.32-2.08-8.7,4.76-5.91c34.49,21.06,70.46,39.87,108.05,54.47l-21.42-17.98c-0.84-4.26,0.18-6.1,4.79-6.09  c31,12.38,62.41,23.73,94.24,34.07l-20.77-11.68c-0.65-2.14,0.44-3.72,2.09-5.13c46.54,10.87,94.03,20.81,141.1,28.04l2.88-2.07  c4.95,1.42,9.89,2.64,14.98,3.48c37.5,6.15,80.6,11.58,119.17,15.08c17.54,1.59,35.11,3.13,52.71,3.06  c3.29,0.42,6.24,0.92,5.77,4.73c1.37,2.18-0.13,4.19-4.51,6.03l-26.45,11.3c30.13-10.12,60.04-20.83,89.73-32.13  c3.78,1.28,4.7,4.1,2.25,7.26l-20.43,18.02c36.95-18.86,72.85-39.16,107.71-60.9c25.57-12.79,44.38-6.51,32.23,24.68l-6.62,12.07  c6.01-4.06,11.78-8.53,17.3-13.4l2.99,1.3c20.84-17.14,49.25-34.46,75.83-40.69c17.43-4.09,23.16,0.48,31.12,16.17  c4.7,6.28,12.25,7.28,19.15,4.31c25.14-17.78,54.15-27.27,84.61-30.74l4.94,2.05v37.27l-5.16,5.78  c-30.51,18.09-57.91,39.56-82.19,64.41c-3.59,1.24-7.99,1.85-6.63-3.68c9.03-11.79,16.62-24.37,22.77-37.73  c-29.5,30.68-65.85,55.74-104.71,74.2c-7.87,3.74-46.51,20.97-49.98,17.37c-0.34-0.35,2.24-4.77,3.71-6.6  c38.08-28.68,78.18-65.75,88.37-113.22c-64.43,44.19-135.29,89.31-209.51,114.59c-4.72,1.61-8.04-1.98-4.92-6.76  c28.58-18.43,57.32-39.84,76.34-68.55c-51.58,26.3-104.59,49.44-158.75,69.96c-12.22,4.63-24.83,8.35-36.76,11.85h-180.8l5.32-3.35  c49.19-14.05,97.9-29.59,146.11-46.63c-39.79-4.12-81.06-9.79-118.93-18.03c18.76,6.12,37.68,11.5,56.75,16.13  c5.07,2.78,5.59,6.88-0.48,8.34c-98.48-9.49-198.39-35.94-287.18-73.92c43.23,32.3,93.96,53.5,144.77,72.44  c9.55,5.66,9.37,6.81-1.8,7.23c-99.47-16.91-198.38-50.31-285.58-101.79c10.1,10.75,20.65,21.13,31.66,31.13  c0.8,1.72,2.02,4.47,1.56,5.83c-1.26,3.76-26.81-8.29-31.27-10.54c-28.63-14.47-57.66-42.24-77.9-66l0.58-3.26  c-4.1-2.25-7.97-10.27-4.1-13.55c1.91-1.66,2.86-2.49,2.86-2.49c21.6,10.36,43.03,21.14,64.28,32.34  c21.94,11.07,27.35,7.17,16.23-11.7C213.46,1361.37,212.95,1357.75,213.15,1354.14z" />
<path class="cls-2" d="M135.4,1360.43l28.98,30.19c21.3,22.19,48.24,39.07,78.89,48.56c-15.12-16.3-31.95-27.23-43.7-46.27  c55.14,36.85,132.24,67.9,197.41,86.42c35.01,9.95,69.57,20.38,107.15,23.86c-38.59-16.04-75.07-27.52-109.4-48.23  c-19.34-11.67-38.86-21.51-55.34-38.05l58.97,23.63c60.18,24.12,178.56,52.2,244.46,56.29c-0.18-3.1-3-3.49-5.85-4.23  c-27.04-6.98-53.81-13.32-78.97-25.85l43.62,8.89c37.5,7.64,74.85,11.5,112.72,15.79c-54.24,21.46-108.33,36.17-162.54,51.43H0  v-172.77l2.26-2.42c90.02,76.9,201.6,125.83,318.33,147.68c-65.64-20.86-142.56-50.07-196.21-95.16  c-15.75-13.23-31.18-29.08-39.55-48.13c-3.69-8.39-9.21-22.25-4.32-30.11c0.84-0.52,1.69-1,2.6-1.3c5.13-1.72,41.28,12.44,49,15.89  L135.4,1360.43z" />
<path class="cls-16" d="M143.36,1087.53c2.48,0.64,3.9,1.29,5.76,3.03c2.99,2.81,10.91,12.29,8.77,15.62c3.66,0.77,4.67,2.06,3.03,3.88  c3.69,1.17,6.46,4.06,8.31,8.67c-0.97-5.9,0.47-6.33,5.72-5.42c5.89,1.02,11.07,5.86,12.43,11.64l3.52,1.43  c4.75,19.25,13.64,35.59,26.66,49.01c18.96-18.39,45.53-12.38,65.12,2.16l0.21,3.24c2.19-0.59,4.27,0.33,6.23,2.79  c31.77-8.7,63.53,2.77,90.19,20.21c9.28-4.79,18.76-9.22,28.43-13.28l-9.51-0.16c-11.6,1.85-25.15,0.21-8.21-9.12  c29.83-16.44,72.35-12.59,100.33,5.84c18.97-12.25,42.2-18.85,64.9-17.74c-9.93-4.57-20.98-5.77-31.81-5.71  c-9.97,1.86-24.7-0.73-8.4-7.86c23.15-10.13,56.25-8.59,79.27,1.36c-7.33-7.93-20.12-12.72-31.21-16.24  c-7.42-6.41,0.84-6.5,7.87-6.43c28.22,0.25,55.07,14.69,72.65,36.35c-12.46-19.95-2.52-19.65,12.04-5.84c0,0,6.67,8.29,20,24.88  l2.29-0.24c3.28-1.71,13.77,4.03,11.7,8.01c3.18-0.53,6.43,1.11,9.73,4.91l6.41,3.7l14.58-36.12c1.54-4.86,3.86-7.31,6.96-7.35  c12.22-20.55,40.3-34.57,62.81-42.74c3.15-1.14,13.57-4.72,16.03-2.24c2.56,2.58,3.62,3.84,0.76,6.34  c-17.96,7.14-34.54,18.36-43.68,35.81c8.6-5.25,18.09-9.08,28.14-10.28c6.3-0.75,16.69-1.86,20.18,3.76c3.88,0.11,3.16,2.7,0.82,5.1  c-14.05,2.77-26.17,8.35-36.36,16.76c4.86-1.13,9.77-1.81,14.73-2.01c2.45,0.13,4.17,1.61,5.15,4.44  c11.01-1.13,38.56-3.79,33.65,13.87c-5.74,1.21-11.44,2.4-17.1,3.57c18.77,12.44,38.45,16.52,60.95,21.1  c0.96,0.2,1.77,0.63,2.41,1.37c46.26-74.03,142.09-52.21,211.71-29.05c35.52,12.52,71.21,24.85,107.06,37.01l5.42,3.42v6.79  l-1.78,2.54c-34.05-3.43-69.41-5.73-104.03,1.19c-5.42-0.11-8.71-3.89-11.83-7.83l-19.89,7.35c-25.52,6.03-19.97-10.74-4.41-19.94  l0.76-3.11l8.86-5.41c-16.67,2.49-32.75,7.48-48.26,14.99c-10.17,2.22-16.3,2.71-16.53-9.73c-9.91,5.64-19.77,11.43-29.56,17.38  c-24.1,9.72-24.77-8.93-19.49-26.14c0.12-4.16-3.03-5.93-6.98-5.64c-26.52,1.97-45.49,19.43-63.59,37.25  c-19.07,22.63-40.47,42.74-64.2,60.34c-2.88,1.97-5.46,3.13-7.52-0.27l-1.45-2.67c8.02-9.85,9.35-14.38,3.98-13.58  c-37.82,19.66-76.75,38.05-116.79,55.17c-4.86,1.49-5.43-0.61-4.48-5.18l24.63-16.16c-27.24,8.52-55.16,14.58-83.78,18.15  l-4.32-1.98c-0.03-1.08-0.07-2.67,0.71-3.02c6.28-2.85,19.49-6.22,26.49-7.67c1.08-0.22,1.94,0.55,2.52,1.58  c4.14-3.11,6.21-4.67,6.21-4.67c32.84-9.68,64.61-20.87,95.28-33.56l2.79,1.79c1.08-1.72,2.27-3.53,4.08-4.55  c7.96-4.49,19.65-10.22,28.28-10.13c5.34-4.39,8.02-6.58,8.02-6.58c21.06-10.08,41.93-19.96,62.62-29.65  c-0.72-2.47,0.1-5.3,2.47-8.49c-23.31-2.38-46.39-5.55-69.23-9.5l-1.15-2.89c-15.36-1.91-30.68-4-45.98-6.26  c1.12,3.41-0.59,5.38-4.07,5.54c-7.11-1.29-13.01-0.32-17.69,2.93c17.13,6.98,34.73,13.02,52.8,18.13c4.39,3.71,5.52,5.21,0.02,6.67  c-40.24,1.41-81.06-6.15-117.45-23.45c-3.4,3.45-10.67,4.08-15.29,2.89c-4.82-1.24-14.55-4.59-14.44-9.82  c-8.34-6.55-16.35-13.56-24.03-21.03c1.65,6.85,0.14,11.35-4.52,13.48c-9.79-5.06-19.9-9.1-30.33-12.12l-1.63-2.86  c-1.36,2.59-5.63,3.06-6.8,0.14c-1.83,2.54-4.96,4.04-9.38,4.51c-4.69,2.92-9.17,4.25-13.44,3.98c1.5,2.44-0.48,4.2-3.03,4.73  c-7.9,1.63-8.18-3.56-6.98-10.06c-4.05,0.06-8.33,1.06-12.83,3.02c-18.77,9.3-37,19.3-54.68,29.98c0.47,2.69-0.61,3.26-2.51,1.25  l-1.44,1.36l-2.63,3.72c-9.35,4.37-46.51,14.59-54.7,10.41c-2.63-1.34-3.14-2.28-0.84-4.29c17-7.46,32.69-16.49,47.08-27.08  c-27.99,4.18-55.64,10.62-82.95,19.31c-22.77,5.38-43.91,7.54-66.86,8.81c-5.04-0.82-6.72-5.38-1.42-7.71  c5.57,0.32,58.19-14.84,56.72-17.43c-2.01-3.52-34.33-8.94-40.36-6.43c-27.05,4.31-54.19,7.57-81.44,9.79  c-2.86-0.98-2.74-2.97-1.82-5.62l30.42-13.93c-13-2.99-25.2-4.39-38.65-2.68c-16.11,2.05-32.1,5.51-47.7,9.17  c-5.35,1-13.3,2.26-9.88-5.22l19.99-12.49l-146.48,0.4l-1.64-2.67l-4.01,2.64c-11.14-0.78-22.28-0.99-33.42-0.63L0,1183.93v-5.36  l1.04-2.76l55.29-3.95c-11.82-24.07,25.59-22.15,39.75-18.17c-5.61-5.49-11.85-10.29-18.72-14.4c-1.3-1.42-0.98-2.58-0.17-4.11  c5-9.46,33.06-1.25,40.09,4.05c-9.43-21.19-32.1-31.28-52.86-38.39c-2.92-2.39-4.33-3.82-1.13-6.03  c10.19-7.05,47.18,2.24,57.44,10.01c-0.96-5.63-6.58-11.5-11.58-15.43l-0.51-3.56l-2.73-0.66c-17.06-23.02-42.48-39.08-68.68-50.41  c-3.69-3.04-1.8-4.19,2.9-5.48c5.76-1.58,34.73,10.05,41.77,13.31c19.22,8.89,47.11,26.42,61.73,41.7L143.36,1087.53z" />
<path class="cls-12" d="M1200,133.88v100.26c-53.03,2.3-103.63,44.78-105.81,102.49c-35.73-7.78-70.09,7.33-88.84,37.47l-2.84,2.73  c-69.71-28.23-150.39,16.03-156.56,92.66c-0.25,3.9-2.86,3.83-6.5,3.39c-39.78-7.29-74.77,10.95-85.78,50.89  c-0.88,10.39-3.49,13.32-7.81,8.81c-7.27-17.5-19.48-35.59-39.18-39.64l-2.27-3.05l-0.9-3.86c8.53-16.91,16.2-34.17,23-51.76  c2.45-5.44,5.37-9.28,10.15-12.76c2.17-1.57,23.99-11.65,25.38-11.59c2.29,0.11,3.6,0.44,4.85,2.58l1,20.71  c0.87-9.26,2.13-18.45,3.8-27.58c6.73-3.79,13.62-7.3,20.7-10.52l60.99-121.27l5.08-4.84c23.88,13.96,48.8,24.85,77.76,24.39  c62.75,3.52,127.64-38.14,143.68-99.78c28.77,2.89,52.03-14.49,57.77-41.69c20.72,2.62,39.21-3.15,55.42-14.16  C1195.5,136.1,1197.45,134.18,1200,133.88z" />
<path class="cls-4" d="M1200,432.33v253.92l-1.24,2.68c-91.23-0.04-182.58,0.06-274.03,0.28l-1.62-2.68  c-1.96,1.99-2.91,1.98-2.84-0.04c-0.65,1.5-1.89,2.32-3.46,2.63c-6.62,1.31-39.5,0.24-47.41-0.71l-1.54-2.7  c-1.04,2.62-1.9,3.01-2.88,0.14l-1.25,2.67c-28.98-0.17-57.97-0.34-86.98-0.51l-1.59-2.69c0.26-1.46,0.59-3.12,1.9-4.65  c23.54-27.5,60.48-36.73,94.58-23.83c9.38-8.88,19.99-13.31,32.56-15.16c21.76-49.7,75.88-65.14,124.57-40.31  c-0.2-20.39,6.53-38.58,20.47-52.86c20.47-20.96,49.71-28.14,79.17-19.93C1124.79,481.2,1155.91,442.03,1200,432.33z" />
<path class="cls-2" d="M1012.38,1242.8l4.26-0.73c1.51,20.72-12.16,40-26.09,54.37c-24.84,25.64-57.61,43.68-88.74,60.47  c60.67-23.5,117.57-56.53,161.86-104.61c3.75-3.04,5.73-1.27,7.29,2.46c4.01,9.6-7.55,36.17-13.19,45.1  c12.56-12.2,25.38-24.3,38.45-36.27c15.76-9.39,10.47,12.68,6.3,20.92c14.99-18.43,34.64-26.2,56.11-34.07  c1.53-0.38,3.56-0.85,4.63,0.12c4.22,3.84-8.12,19.8-11.29,23.32l40.71-28.7c2.12-1.76,4.67-1.9,7.3-1.13v63.54l-5.78,2.9  c-64.01,4.25-126.65,22.82-185.42,48l-129.13,60.16l-2.6-1.74c-103.76,4.66-208.11,7.35-313.07,8.07l-12.22-1.41  c-2.9,1.45-4.36,2.18-4.36,2.18c-40.14-8.39-79.91-17.96-119.31-28.71l-0.91-3l-0.09-1.79c25.4-3.77,51.49-7.02,78.29-9.74  c53.71-9.06,105.76-21.18,156.14-36.36c9.38,2.98,4.95,7.44,0.13,12.3c-16.27,11.42-33.5,21.43-51.68,30.01  c49.37-11.97,98.53-28.02,144.19-51.34c4.5-3.15,6.63-2.2,8.44,2.08c2.3,5.44-33.2,33.52-39.39,37.74l-2.84-1.25  c-2.61,4.81-3.26,6.39-1.96,4.75l3.11,1.73l4.56-3.42c45.17-16.69,88.51-36.73,130.04-60.11c5.76-1.45,5.28,2.46,2.94,6.78  c-9.21,9.1-18.87,17.51-28.99,25.21c48.9-23.18,91.79-55.85,126.15-98.4l6.57-3.63c-0.26-1.05-0.63-2.65,0.04-3.08  c9.04-5.88,20.93-11.93,30.78-15.56c2.24,3.34,4.55,6.66,6.95,9.96C1004.8,1240.62,1008.74,1241.58,1012.38,1242.8z" />
<path class="cls-12" d="M119.08,685.77c4.99-1.76,7.49-2.65,7.49-2.65c31.14,1.87,61.94,1.81,92.38-0.18l2.06,2.4  c4.3-3.05,5.99,2.1,6.99,6.14c7.91,31.73,3.43,64.86-9.74,94.55l1.26,0.81c14.55-7.4,30.49-15.48,46.6-18.56  c0.85-0.16,1.77,0.04,2.73,0.3c1.01,0.27,1.97,0.72,2.92,1.22l1.19,3.05c-3.42,15.61-7.8,30.78-13.13,45.5l-0.62,3.2  c-30.06,0.74-60.21,0.86-90.43,0.37l-1.6-2.68c-0.6-1.12-1.41-1.37-2.43-0.81c0.51,1.83,0.12,3.24-1.73,3.33  c-7.76,0.14-32.01,0.69-8.97,3.78c12.43,7.25,18.11,26.04,18.73,40.02c-3.46,3.5-7.42,6.5-11.91,9c2.06,0.29,3.34,1.61,3.86,3.97  c2.77,1.59,2.11,4.6-1.99,9.03c-2.27,7.02-3.63,14.36-4.07,22.02c-0.32,0.93-0.79,1.8-1.49,2.5c-1.66,1.66-36.73,3.94-39.07,2.99  c-12.67-12.68-28.88-19.64-46.89-19c-19.13,0.68-31.8,9.34-43.98,23.35c-6.26-5.02-12.99-9.2-20.22-12.54  c-3.52-0.29-5.86-1.69-7.01-4.19v-28.12c1.42-2.94,1.42-4.27,0-4.02V685.71l0.92-2.68c37.77,0.01,75.56,0.03,113.37,0.06  L119.08,685.77z" />
<path class="cls-12" d="M775.17,685.32l89.81,0.53c0.97,0.52,1.93,0.46,2.88-0.14l52.41,0.78c0.62,0.81,1.57,0.82,2.84,0.04  l133.17-0.11l35.34-0.32l108.38,0.15v71.29l-72.16-0.54c-2.34-0.02-4.78-1.25-6.11-3.02c4.88-6.86,12.61-8.29,18.89-15.17  c-28.23-6.13-58.04,0.57-77.89,21.04c-4.87,5.02-8.78,10.6-17.09,9.74l29.45-48.08l-33.8,48.99c-13.45,5.12-26.04,9.79-40.32,10.29  c2.53-6.86,7-11.96,10.92-17.84l29.47-44.23c0.57-0.86,1.89-0.98,1.99-1.56c0.16-0.94-0.03-1.66-0.73-1.98  c-2.11-0.97-1.57,1.25-2.34,2.39l-28.97,43.06c-4.36,6.48-8.63,12.43-14.69,18.09c-18.41-23.67-46.19-33.33-75.07-28.61  c-23.18,3.79-42.55,17.09-53.04,38.21c-5.17,10.41-25.48,6.12-35.11,37.91c-11.42-11.79-26.45-18.73-41.79-20.9  c-1.46,3.22-4.12,2.33-7.97-2.68c-24.3-29.84-48.35-60.27-72.15-91.29c-0.99,0.68-2.62,1.21-3.11,0.43  c-3.38-5.3-6.84-17.14-7.57-23.4l2.07-2.3L775.17,685.32z" />
<path class="cls-12" d="M243.81,425.45l4.39-1.93c15.39,2.46,31.31,1.08,45.77-4.87l4.71,0.84c34.12-0.83,63.17,26.71,80.43,54.41  c3.41,0.24,7.18-0.54,11.28-2.35l2.14,2.6c0.77,0.44,1.36,0.83,1.3,0.99c-1.2,3.58-4.76,12.75-8.05,12.25l-3.03,2.11  c-26.69-3.77-57.06,9.87-68.36,35.04l-3.41,1.53c1.03,0.58,0.9,1.07-0.27,1.48c-2.21,4.58-3.92,9.52-5.12,14.81  c-3.92,4.98-8.25,2.86-12.99-6.36c-23.12-25.77-60.04-16.8-67.38,16.88c0.25,6.88-1.5,10.38-5.28,10.49  c-34.86-18.25-73.03,3.68-71.2,43.58l-2.71,1.79c-14.26-0.62-26.05,3.57-35.37,12.57l-3.13-0.87l-3.39-1.7  c-9.34-25.94-32.84-36.19-58.87-31.12l-4.42-1.66C40.14,560.72,27.28,537.18,2,529.63l-2-3.29v-50.89c0.1-1.06,0.46-2.66,1.2-2.7  c21.6-1.16,46.57-1.58,68.22-1.04c4.87-0.92,8.53-0.08,10.98,2.51l1.34-2.6c43.84,1.1,87.86,1.12,132.04,0.04  c-11.95-7.3-25.57-6.07-38.91-4.64c-11.92-13.8-24.37-22.28-43.21-17.76c-3.02,0.28-5.35,0.09-5.66-3.02  c0.99-32.65-26.1-59.36-58.89-49.77c-3.67-0.3-4.82-0.62-4.87-4.35c-0.04-2.77,3.52-16.94,4.7-20.45l3.16-3.08l2.03-2.81  c35.92-6.74,73.05,20.96,72.66,58.47c7.73,4.83,16.5,6.82,26.3,5.95c9.49,2.47,17.87,7.91,25.15,16.32  c9.54,6.44,18.45,3.64,26.72-8.38c5.35-4.25,10.82-8.33,16.4-12.25L243.81,425.45z" />
<path class="cls-4" d="M347.02,167.35c6.1,1.97,10.76,6.54,13.98,13.71c2.42,3.41,4.4,6.97,5.96,10.66  c20.1-0.77,41.56,1.99,60.46,9.13c5.81,2.19,21.62,8.27,22.94,13.43c0.18,0.7-1.39,2.36-2.27,3.24l-108.48,0.81l-3.47-2.39  l-2.03,2.4c-38.15,0.22-76.33,0.2-114.55-0.04l-1.6-2.68c-0.55,1.28-1.56,2.33-2.94,2.65c-30.69-0.89-61.29-0.78-91.8,0.32  l-2.87-2.56l-1.64,2.6c-38.89-1.54-77.92-2.1-117.11-1.66L0,214.29v-75c25.54-8.33,37.89-11.36,66.32-1.66  C63.6,115.33,73.07,97,90.82,85.19C107.54,74.06,127,70.56,147.26,71.5c29.55,1.37,55.74,14.39,75.04,36.93  c9.12,10.65,13.98,23.41,17.54,37.75C276.5,128.36,319.16,141.49,347.02,167.35z" />
<path class="cls-5" d="M41.58,1184.18c2.26,1.19,2.66,2.56,1.9,4.81c24.32,1.96,48.74,3.31,73.27,4.04c12.96,2.69,7.38,12.76-3,13.09  l1.54,2.54c3.74,0.36,4.76,4.21,1.43,6.14l-2.84,3.12l-18.23,4.08l16.06,2.18c7.83-0.41,14.9,0.7,21.22,3.31  c15.85,3.45,31.92,5.07,48.19,4.87l2.31,2.88c2.37,2.9,0.02,5-7.04,6.29c-3.41,1.9-2.41,5.41,1.42,6.15  c65.2,1.29,131.02,3.07,197.46,5.34c4.39,0.9,4.42,2.51,2.56,5.85l-82.44,8.5l49.92,0.82c21.37,4.05,9.97,21-6.01,20.26l102.05,2.51  c10.16,2.63,9.33,10.57-0.63,13.52l-81.39,3.91l79.57,1.73c5.23,1.01,8.52,4.56,9.88,10.65c80.5,1.3,120.75,1.95,120.75,1.95  c-4.67-0.48-8.66-4.09-3.94-7.13c30.36-0.34,60.49,0.11,90.38,1.33c4.26,1.35,8.31,3.59,3.08,6.43l-29.72,9.1  c0.2,1.03,0.22,2.67-0.41,2.8c-84.88,17.66-170.68,31.03-257.73,37.31c-4.51-0.8-8.97-1.06-13.37-0.77l-1.96,2.31  c-28.59-8.06-56.89-17.38-84.92-27.96c-15.8-22.77-47.06-46.45-73.44-26.45c-2.93,1.27-5.06,1.61-6.52-1.6  c-28.55-54.87-89.88-82.02-147.72-93.84c20.05,6.81,69.19,39.75,60.05,64.99c-2.59,7.16-10.64,14.06-18.37,10.36  c-22.91-19.41-50.78-33.16-81.39-29.31L0,1268.3v-84.38C13.75,1182.12,27.77,1184.22,41.58,1184.18z" />
<path class="cls-15" d="M150.38,1027.53l3.33,1.78c2.56,10.93,3.66,22.03,3.29,33.29c2.27,3.34,5.54,5.72,9.81,7.12l0.77,3.23  c5.27,1.25,11.88,6.33,11.94,11.88c3.55,0.48,3.25,1.74-0.21,2.52c-0.12,1.05-0.44,2.62-1.18,2.68c-4.18,0.38-26.96,0.93-29.76,0.15  c-1.95-0.54-3.4-1.53-5.01-2.65l-16.18-13.4c-23.13-19.15-59.92-39.38-91.22-42.69c27.33,11.01,51.73,27.15,70.85,49.8  c1.35,1.6,1.79,3.12,1.82,4.59l-5.13,2.01c-32.68,2.22-66,1.95-98.39,1.35c-0.84-0.02-1.69-0.51-2.6-1.04  c-0.91-0.54-1.73-1.24-2.52-1.98V902.68c10.41,0.99,19.34,6.39,27.01,14.73c20.13-31.97,68.84-30.59,91.92-4.65  c8.25-2.1,33.91,0.04,36.43-2.52c2.45-2.48,0.62-15.8,5.03-23.98c1.52-2.82,4.04-4.85,4.33-7.73l2.18-2.35  c1.51-0.45,22.02-2.97,23.68-2.89c3.92,0.2,10.19,0.52,7.12,6.1c-7.34,6.08-14.13,12.71-20.35,19.87  c11.66-1.79,15.16,1.02,10.49,8.43c-7.75,10.22-16.58,19.49-26.47,27.82l15.46-1.38c4.95,1.23,5.47,6.22,1.55,14.98l-10.47,28.68  l1.3,1.03c15.75-7.86,32.09-13.43,49.03-16.7c4.35,7.63-1.46,19.53-6.98,25.44l-69.22,6.62c5.93,0.44,10.2,2.3,12.82,5.58  c1.1,6.5,1.53,13.01,1.29,19.55C153.75,1021.98,151.83,1024.72,150.38,1027.53z" />
<path class="cls-7" d="M807.55,1086.76l10.89-2.66c127.41,0.21,254.06,0.46,379.95,0.75l1.61,2.68v54.93c-0.1,1.04-0.44,2.56-1.2,2.63  c-8.23,0.78-45.91,1.81-50.46-3.12c-7.19-7.8,5.16-9.76,10.79-10.49c10.77,0.43,21.32-0.31,31.65-2.21  c-23.03-1.61-46.25-2.52-69.64-2.73l-1.5-2.72c-5.36-2.78,1.28-6.81,5.67-7.58c-13.95-0.61-27.9-0.39-41.85,0.68l30.21,3.39  l3.33,3.21c4.82,2.25,1.67,4.02-2.67,5.13c-49.76-4.44-100.26-5.88-151.49-4.32c-1.94,4.61,4.24,6.55,18.54,5.82  c9.72,2.31,8.43,8.31-0.28,10.84c-41.52,0.31-82.94,0.71-124.25,1.19l-2.49,1.29c-1.56,2.36-4.95,3.2-10.15,2.51l-0.35,2.93  c-0.14,1.07-0.37,2.68-1.16,2.86c-3.7,0.85-28.54,4.3-30.03,3.22c-0.51-0.37-0.84-0.97-1.12-1.65c-19.14-4.38-37.08,0.9-54.74,14.12  c8.25-22.86,27.98-38.21,50.35-46.11c-3.12-2.57-7.28-1.73-11.03-0.56c-23.31,7.29-44.7,19.2-62.23,36.16  c-2.38,2.3-3.54,5.39-6.6,5.75c-1.98-1.56-2.98-2.34-2.98-2.34c5.03-21.79,11.58-44.42,19.01-66.02c0.44-1.28,1.32-2.43,2.23-3.6  c0.92-1.18,1.99-2.25,3.11-3.28L807.55,1086.76z" />
<path class="cls-11" d="M120.35,216.03c4.43,1.13,6.99,4.95,7.68,11.46c14.11,7.27,40.54,6.68,56.11,4.53  c11.42-1.58,24.94-5.64,31.2-15.73l2.63-0.67l118.18,0.32l1.45,3.13c-2.81,8.89-3.08,18.16-0.8,27.81  c-0.58,3.63-0.95,4.92-4.67,4.41c-32.58-16.32-70.86-17.49-97.26,10.1l-3.33-1.18l-2.2,2.49c-12.51-3.37-23.89-2.91-34.15,1.38  c-4.92,4.76-9.21,10.14-12.86,16.12l-2.52-0.59c-28.8-22.92-76.99-5.49-74.93,33.55l-1.57,3.52c-15.93,0.96-30.35,2.02-43.09,12.78  l-2.42-2.27l-4.2-1.36c-12.06-16.65-30.19-28.58-50.54-32.07L0,290.62v-76.34l92.33,0.34L120.35,216.03z" />
<path class="cls-16" d="M1200,1307.6v16.82l-3.51,4.17c-27.16,13.48-50.74,31.97-70.75,55.46c-3.93,4.31-8.48,7.29-13.65,8.94  l-3.5-1.65c-13.86-37.59-43.06-21.12-68.49-3.51c-18.9,14.98-37.48,30-55.75,45.03c-8.25,4.71-13.63,14.02-24.64,16.62  c2.67-11.86,12.48-17.49,12.2-33.61c-0.08-4.76-2.97-9.56-7.69-10.89c-13.18-3.71-30.65,9.36-44.11,17.34  c-34.19,20.28-67.46,40.8-105.61,57.51l34.69-30.52c1.15-1.01,1.28-1.97,0.09-2.77c-0.52-0.35-1.46-0.12-2.39,0.25l-43.16,16.92  l-42.86,14.58c-14.37,4.89-27.97,10.65-43.15,12.45l66.66-28.42l5.78-3.67l6.1-5.37c25.55-12.24,51.07-24.36,76.56-36.36l4.25-0.03  l122.42-57.12C1055.86,1333.48,1138.6,1309.22,1200,1307.6z" />
<path class="cls-10" d="M57.79,327.2l3.69,0.88c5.89,11.99,9.54,24.75,10.95,38.26l-2.33,2.24c-1.04,8.2-3.31,16.45-5.84,25.64  c10.1-1.62,19.2-3.9,28.77-0.86c23.16,7.37,36.76,29.22,35.27,53.74c23.73-4.26,32.53,0.29,47.4,17.61  c15.84-3.1,33.42-2.26,45.91,9.56l-122.37,1.09l-18.84-1.15l-3.51-1.18c-8.52-16.51-25.9-20.98-43.34-19.83  c-5-11.16-12.4-19.65-22.21-25.46c-5.05-1.14-8.83-3.1-11.34-5.87V290.62C23.45,293.47,44.69,307.38,57.79,327.2z" />
<path class="cls-10" d="M107.54,620.44c2.31,0.49,3.59,2.63,3.82,6.41c37.23-14.48,74.27,3.95,82.07,43.49l23.84,3.14l2.37,3.12  c4.72,0.94,5.76,6.64,1.36,8.74c-6.53,1.31-43.42,2.18-49.55,1.89l-10.61-0.5c-14.44-0.67-28.07-0.96-41.76-0.96  c-4.92-2.23-9.62-5.19-14.11-8.88c-9.86-4.66-20.56-6.39-32.12-5.18l-1.15-2.22c-2.19-26.46-23.45-38.69-48.42-34.48l-1.86-3.22  c-1.93-11.41-8.75-24.07-20.36-27.57L0,601.34v-75c25.97,6.03,43.9,31.27,42.65,58.32c5.11,0.85,9.03-0.24,13.62-0.67  C80.67,581.66,100.59,598,107.54,620.44z" />
<path class="cls-8" d="M80.51,1341.95c1.17,35.99,27.31,62.08,54.4,83.32c40.03,31.38,126.83,70.44,175.56,84.39l55.41,15.86  c-60.62-8.25-118.96-22.94-175.81-44.17c-67.52-25.21-129.06-61.8-184.18-107.5c-2.32-1.92-3.21-4.11-5.89-3.77v-44.2  c1.15-0.51,2.31-0.98,3.52-1.27c1.18-0.28,2.32-0.55,3.38-0.39c22.96,3.3,45.72,6.91,68.1,13.2c1.03,0.29,1.95,1.03,2.9,1.81  C78.86,1340.03,79.7,1340.97,80.51,1341.95z" />
<path class="cls-3" d="M1129.98,886.61c-1.2,0.25-2.49,1.36-3.17,3.04c-15.84,39.18-21.4,62.08-19.09,105.36  c0.16,2.93,3.34,3.46,4.86,3.76c1.68,0.33,5.55,0.73,6.23-2.08c4.47-18.34,10.56-35.34,19.59-51.16c1.76-2.08,2.65-1.36,1.6,1.24  c-6.76,16.62-13.41,33.56-14.17,52.3c-0.47,11.71,10.48,2.68,20.11,7.47c11.34,5.64,18.19,16.84,19.24,29.64  c23.61,3.11,19.15,18.83,34.82,25.92v10.52c-5.07,0.35-7.61,0.53-7.61,0.53c-55.7-16.87-113.83-18.95-169.78-3.48  c-3.77,0.54-4.73-1.37-4.86-4.83c-0.18-4.88,23.63-12.65,28.26-10.95c-1.25-2.39-0.38-4.35,2.63-5.87l8.4-4.73  c19.18-5.21,22.04-9.51,8.59-12.89c-21.86-4.21-43.52-9.58-64.99-16.09l-2.91-3.34c4.61-6.53,11.64-10.58,19.36-14.22  c-3.94-28.07-11.8-37.84-27.08-58.06c-2.11-1.94-1.26-2.73,1.27-1.13c19.1,16.41,25.83,32.5,33.74,57.34  c19.23-0.76,18.52-17.45,39.22-9.13c-0.38-14.6-3.68-28.03-7.49-41.44l0.45-1.46c7.69,8.19,10.91,42.57,13.32,44.32  c1.06,0.77,5.28,2.24,5.68,0.82c1.78-6.29,1.73-12.39,2.13-18.16c0.72,0.07,0.38,0.92,0.39,0.87c1.85-7.75,3.65-15.87,3.07-23.85  c4.02-10.49,7.17-3.4,7.07,4.15l1.33,2.55c3.95,0.32,3.98,2.64,0.36,4.03c-1.04,6.45-0.74,11.86,0.89,16.23  c4.01-0.56,3.86,5.77,0.14,6.54c-1.76,1.98-1.74,3.76,0.05,5.36l2.36,0.71c2.38-34.21,7.45-71.77,30-99.83  C1118.92,876.72,1138.11,878.3,1129.98,886.61z" />
<path class="cls-14" d="M1046.01,1053.88l-19.72,7.46c-2.87,1.08-5.92,2.56-6.65,6.21c16.59-3.32,31.99-7.63,49.24-9.56  c44.78-5.02,88.87,1.65,131.12,14.62v14.91l-103.3-0.24l-289.15-0.53c4.08-6.98,79.19-24.07,84.45-24.62l5.96-3.32  c44.9-6.11,90.28-9.45,136.16-10.03C1040.5,1048.47,1044.47,1050.17,1046.01,1053.88z" />
<path class="cls-15" d="M1200,1324.42v59.55c-34.06,4.31-57.66,10.44-86.86,30.18c-5.2,3.52-11.93,3.33-17.64,1.22  c-10.32-3.8-9.88-22.43-24.23-21.97c-27.01,0.86-63.45,26.07-86.93,39.47c0.1-1.48,0.86-2.92,2.3-4.17l24.56-21.28  c16.97-14.7,44.93-37.45,66.91-41.16c25.71-4.34,29.7,22.25,33.15,23.96c5.03,2.49,30.38-26.78,37.76-33.55  C1164.35,1342.63,1181.07,1331.06,1200,1324.42z" />
<path class="cls-4" d="M119.08,685.77L0,685.71v-84.38c12.56,1.36,23.3,18.55,24.25,31.86c12.7-3.31,24.8-1.13,35.28,6.63  c8.97,6.64,13.8,17.62,14.59,30.21C92.25,666.41,109.14,672.51,119.08,685.77z" />
<path class="cls-4" d="M80.4,474.22L0,475.45v-53.57c15.75,1.16,28.48,13.48,34.69,29.33C53.76,448.18,72.83,456.56,80.4,474.22z" />
<path class="cls-12" d="M0,1114.29v-6.7l0.96-2.66c23.75,0.42,47.5,1.03,71.23,1.83c5.08,1.04,9.58,2.02,4.69,7.41L1.7,1116.9  L0,1114.29z" />
<path class="cls-15" d="M0,874.55v-4.02l6.56-7.24C5.36,868.2,2.62,871.54,0,874.55z" />
<path class="cls-12" d="M427.3,135.42c18.09-2.84,41.75-2.17,55.1,12c3.6,2.11,6.59,6.56,9.97,9.84  c29.56,28.74,71.58,36.23,112.13,24.28c2.57,43.95,25.23,80.35,61.4,103.5c47.38,30.34,107.97,29.73,156.41,4.34  c0.67,8.18-1.15,16.42-5.45,24.72c-9.93,24.62-20.52,48.85-31.77,72.7l-57.25,31.65c-6.64,22.25-15.41,44.1-26.31,65.53l-3.63,3.5  c0.12,3.33-15.19,7.15-16.39,6.47c-17.01-24.37-42.22-41.06-72.5-41.46l-3.76-2.67c-4.26,2.37-9.4-6.83-5.02-9.11  c-0.32-1.08-0.15-2,0.63-2.73c6.61,0.17,9.59-0.48,8.97-1.95l-58.03-0.34c-2.57-1.72-3.86-2.58-3.86-2.58  c-0.25-48.14-0.27-97.07-0.07-146.79l-1.39-4.69c-12.96,8.2-28.64,9.78-43.41,6.31l-38.18-10.47c-22.32-4.19-46.56,1.01-65.14,14.22  c-0.33,0.23,0.03,1.15,0.57,2.17c5.3,0.26,8.04,9.35,2.77,11.55c-0.31,2.71-2.49,4.69-6.54,5.95c14.31,6.42-3.07,11.49-11.44,13.31  c-16.15,1.31-32.4-0.39-48.73-5.08c-15.36-2.51-30.54,0.68-44.68,7.07l-7.87,1.23c-1.05,4.61-5.93,1.98-8.56-0.77  c-9.16-24.84-23.42-45.69-42.78-62.53l-0.95-4.38c3.24-1.44,5.36-4.42,8.42-6.93c27.48-22.6,62.08-19.9,94.53-3.6  c-1.66-12.2-3.86-23.54,1.67-33.74c5.98-0.63,12.06-0.61,18.86-0.64l94.32-0.46c-25.29-16.53-54.45-20.84-83.46-20.91  c-5.98-9.07-11.05-19.34-18.84-26.58c22.73,0.66,45.69-10.06,58.56-28.79C412.65,138.94,420.21,134.83,427.3,135.42z" />
<path class="cls-16" d="M858.43,268.98c-5.99,14.02-13.24,27.11-20.41,41.36l-43.81,87.07l-20.49,9.57l-6.97,58.18l-2.59-53.45  c-8.94,5.68-21.77,7.61-29.53,14.67c-8.99,10.72-10.71,25.75-17.68,37.72c-4.9,8.41-8.02,18.21-12.55,25.76  c0.84,0.64,2.02,1.75,1.68,2.41c-2.11,4.14-19.02,33.74-20.91,34.43c-5.45,2-4.09-4.13-3.31-7.09l10.64-22.6  c0.99-4.23,2.79-7.41,5.39-9.54c10.84-22.59,19.8-46.01,27.28-70.63l57.93-31.7c8.38-15.01,13.76-32.47,21.2-48.4  c7.4-15.85,13.41-31.33,18.01-47.38c5.94-3.11,30.81-23.49,33.89-22.81C857.16,266.78,858.07,267.7,858.43,268.98z" />
<path class="cls-10" d="M482.4,147.42c-8.49-2.79-16.02-8.79-25.7-9.58l-29.4-2.42c13.99-4.88,27.77-9.92,41.74-18.28  c2.96,8.21,5.09,15.68,9.7,22.7C480.41,142.4,482.24,144.66,482.4,147.42z" />
<path class="cls-1" d="M600.23,440.72l-1.26,2.66c-59.51-1.2-118.87-1.62-178.09-1.26c14.47,9.93,27.49,21.48,39.06,34.66  c1.36-4.78,2.07-9.68,2.16-14.69c1.71-4.05,2.48-5.21,6.92-2.95l21.01,12.45l-2.69-12.05c-1.23-4.77-1.31-12.76,5.07-9.95  c10.31,13,22.04,24.03,35.21,33.09l-0.49-17.51c2.29-4.02,3.59-4.93,7.34-1.36l22.67,21.21l1.09-0.33l-1.5-13.57  c-1.14-6.02,0.46-9.07,4.8-9.14l33.92,13.71c-1.54-4.78-3.78-9.68-6.71-14.7c0.44-2.58,2.25-2.89,4.64-3.25  c1.52-0.23,21.96,16.33,24.14,18.87c0.89,0.34,1.75,0.71,2.51,1.24c8.16,5.61,11.94,55.53,11.74,67.48  c-0.02,1.24-3.38,19.7-4.19,20.35c-1.92,1.56-3.08,2.05-5.53,0.89l-21.44-26.78c-2.51,5.33-5.85,8.53-10.01,9.59l-1.84-2.38  c-0.57-9.79-1.79-19.46-3.67-29c-4.17,6.51-6.83,13.71-7.98,21.61c-1.17,2.55-2.54,4.12-5.2,2.91c-5.72-4.4-11.87-7.96-18.46-10.7  c0.37,3.29-0.52,5.41-2.66,6.37c2.54,3.64,2.58,5.9,0.12,6.77c3.03,3.43,3.61,7.69,2.85,12.07c-0.79,4.52-4.11,11.62-7.81,5.82  c-2.77-4.35-0.56-28.42,0.75-34.48c-5.16-1.24-27.63-3.65-32.28-2.67c-0.21,0.04-0.4,4.23-0.04,4.32  c38.66-0.75,36.63,29.25,1.71,34.36c-0.45,0.73,0.05,8.11,0.45,8.23c1.45,0.44,26.68,0.73,28.03,0.33  c0.12-10.59,9.7-10.32,8.34,0.06c0.78,0.61,16.93,1.57,16.46-2.75c-1-1.33-0.74-1.59,0.75-0.82c2.09-1.24,4.35,0.02,6.77,3.8  l46.97,0.43c1.02-5.31,4.48-5.32,10.4-0.03l26.97-0.14c14.56-2.71,19.88,12.94,5.57,16.82c-4.06,1.1-10.21,1.72-12.04-2.61  l-3.22,2.14c-7.98-1.11-15.78-0.9-23.41,0.62c-1.58,1.23-3.34,1.05-5.27-0.55c-11.94-0.6-23.73-0.41-35.36,0.56  c13.41,23.63,27.57,46.77,42.47,69.44c1.67-8.51,6.35-11.83,14.04-9.95c11.7,3.83,14.2,3,7.49-2.51c-0.83-3.02,0.02-6.23,2.56-9.64  l-21.01-30.18c-3.89-5.13-5.13-9.85-3.7-14.16l3.98,0.19c8.75,12.36,17.58,24.38,26.49,36.07l11.35-2.43  c-0.08-2.87,0.86-4.77,2.83-5.72c3.35-2.27,5.36,0.31,6.05,7.74l2.79,1.18c4.8,10.83,9.75,21.72,14.86,32.65l-1.31,3.62  c2.91,6.5,1.63,13.51,6.49,19.3c0.8,0.95,3.73,20.51,8.61,25.27c1.09,1.45,1.07,2.27-0.04,2.47c4.72,13.23,7.84,27.08,9.34,41.54  c1.67,5.46,1.21,10.02-1.38,13.69l-2.13,2.64c-25.73-17.87-50.87-36.82-75.43-56.87c31.59,29.62,56.93,64.33,78.73,102.72  c0.57,1.01,0.79,2.23,1,3.5c0.21,1.29,0.24,2.61,0.22,3.95c2.45,5.37,3.48,10.84,3.1,16.41l-2.92,2.3c-0.65,0.82-1.89,1.9-2.4,1.5  c-40.17-31.08-79.69-64.41-117.99-97.26c-2.11-2.25-2.96-4.07-0.18-6.12l2.78-2.24c9.54,1.11,8.99-8.83,5.07-15.05l2.23-3.05  c19.45-3.84,7.01-21.82-6.04-7.96c0,0-2.09,0.42-6.26,1.25l-34.32-11.43c-7.28-1.3,24.26,16.5,24.35,14.55  c7.73,4.76,14.37,11.62,8.51,20.09c-2.61,2.3-5.73,1.98-9.38-0.96c22.73,29.02,40.48,62.72,54.17,97.15  c4.23,10.65,14.61,36.82,14.38,47.18c-0.02,0.86-0.46,1.57-1.08,2.14c10.09-4.54,47.59-8.28,55.66-2.69  c0.88,0.61,1.65,1.37,2.39,2.18c0.43,1.34,0.8,2.69,0.97,4.07c0.18,1.36,0.33,2.68,0.05,3.88c-7.31,30.84-19.37,59.74-31.45,87.76  c6.7,1.33,16.52-0.67,22.8-5.91c29.22-22.02,57.95-43.8,86.19-65.37c-5.43-4.7-11.79-8.33-18.63-10.57  c-14.99-4.89-31.41-7.71-47.06-9.93l-4.89-3.09c-5.72-2.58,0.59-5.85,5.26-5.06c-10.16-6.61-21.88-10.66-33.54-13.98  c-2.95-1.48-2.71-3.47-1.16-6.06c1.08-1.81,36.71-4.08,41.89-4.33c1.77-2,3.72-0.84,5.85,3.47l2.98,0.05l56.7,44.06l43.86-33.55  c0.11-0.49-0.03-0.99-0.35-1.39c-8.54-10.69-61.05-18.16-75.15-14.92l-4.9-2c-2.5,0.37-5.22-5.41-5.61-7.48  c-3.95-21.15,23.46-19.55,36.5-15.09c-0.66-3.76,1.24-2.96,4.08-1.72l10.82,9.43l1.38-1.22c1.81,1.63,3.79,3.09,5.94,4.38  c2.18,3.51,5.85,5.95,9.34,8.68l24.84,19.46c12.18-8.6,23.2-17.38,34.78-26.57c3.14-2.49,7.47-1.85,9.8,1.1  c1.56,1.98,2.67,6.92-0.65,9.46l-63.62,48.62c-2.51,1.92-7.14,3.51-7.86,6.58l-9.84,76.89c3.41,0.34,7.94-0.5,10.79,1.88  c1.54,34.73-17.84,61.91-52.77,69.04c-4.09,0.83-8.67,0.96-11.85,2.98c-6.33,9.62-6.96,21.06-10.67,30.95  c-7.73,20.62-13.49,41.88-19.46,63.76c-1.12,4.11-2.96,7.71-1.91,11.47l-3.71,6.91c-6.74,12.54-9.58,26.87-16.64,39.9  c-7.33-2.54-12.52-7.31-17.32-11.94c-0.67-0.9-1.1-2.02-0.6-3.07c6.13-12.83,11.19-24.14,15.62-38.35  c9.28-35.71,19.56-71.04,30.85-105.99c7.68-2.08,15.42-3.96,23.22-5.62c29.03-5.67,50.73-27.66,46.61-57.95l2.03-2.39l-2.81-0.35  l-7.58-37.26l-1.35,10.45c-7.3,22.86-14.97,45.49-23.01,67.89l-2.82,2.17c-0.44,4.25-11.11,7.53-15.43,8.4  c-1.93,0.39-8.01,1.52-9.26,0.71c-1.83-1.18-2.85-2.31-2.85-4.54l15.05-40.93c-13.59,10.25-26.13,23.04-31.15,39.73  c-3.72,15.54-8.05,30.86-13.01,45.95c-45.12,13.42-90.94,24.64-137.2,33.42c-12.8-9.64-23.89-14.47-39.63-15.96  c-8.9-3.71-11.15-9.06-0.7-12.67c48.27-10.8,95.94-23.11,143-36.93l-1.12-0.88c-31.15,7.96-62.46,15.99-93.95,24.07  c-2.39-1.29-4.13-3.86-5.22-7.71c-9.2-6.48-20.47-8.83-33.83-7.03c-8.22-4.32,0.38-7.56,6.57-9.82  c47.1-13.48,94.18-26.59,141.22-39.34c18.57-7.27,71.72-36.69,80.87-52.75c2.22-3.89,2.43-8.05-1.47-3.04l-2.96-0.94  c-10.97,10.32-22.89,19.8-36.28,26.81l-1.09,4.16c-12.28,10.57-25.78,18.8-40.51,24.69c-71.18,18.38-142.99,37.79-215.44,58.22  c-5.97,0.87-7.85,0.69-5.34-4.17c-2.33-2.39-1.32-3.14,1.7-3.47l1.97-3.02c31.27-10.18,62.78-20.22,94.53-30.13  c2.45-2.2,2.57-5.41,0.38-9.64l2.12-2.23l-2.89-0.48c-13.1-52.15-19.65-78.23-19.65-78.23l2.14-2.54l3.35-0.85  c1.14,3.13,12.21,1.95,12.72,1.47c0.84-0.79-2.96-13.66-4.56-14.6c-1.98-1.16-12.3,0.06-14.4,2.16c-2.18,2.94-3.68,1.09-4.25-2.16  c0,0-5.35,0.17-16.04,0.5c-9.72-1.08-12.69,2.33-8.91,10.21l0.43,93.11c-0.18,2.59-0.82,5.11-3.03,6.69  c2.16,5.16-12.3,8.31-16.33,8.56l-2.34-2.07l-1.4-1.36l-2.68-0.92l-0.04-108.99c-5.53-0.76-11.66-0.12-18.39,1.9  c-11.7,59.51-24.65,118.25-37.88,176.33l-2.59,1.39c2.31,2.38,1.05,4.44-2,5.18c-34.91,8.48-73.86,17.53-109.29,20.83  c-26.53,2.47-40.83-8.79-47.18-33.99l-94.45-2.65l-1.55-2.72c-4.49-3.37-8.31-7.6-11.94-11.88c2.94-2.97,6.55-3.22,10.55-2.86  c32.29,2.07,64.03,3.09,95.23,3.05c-6.94-12.97-11.81-26.71-14.61-41.21l-106.59-1.66l-1.79-2.73c-0.5-1.58-1.65-2.91-1.54-4.82  c0.09-1.74,3.97-1.85,4.58-3.01c1.09-6.48-1.02-13.56-1.17-20.45c-2.79-1.75-14.65-0.61-12.95-6.2c0.34-1.11,2.3-1.66,4.04-1.82  l67.49-6.09c3.61-6.9,6.97-13.67,6.71-21.29c-20,5.66-37.61,12.54-55.8,21.48c7.19-16.35,13.18-31.78,17.24-48.75l-25.08,2.82  c10.16-11.56,27.56-23.4,34.3-37.89c-6.11-0.59-10.66,1.91-15.98,0.22c6.83-10.08,15.54-17.03,24.79-25.12  c-9.84-2.79-21.83,4.19-32.28,1.91c-3.72-0.81-7.08-0.98-12.2-1.59l17.97-12.07c-1.24-12.71-5.72-24.6-13.63-34.68  c-3.87-4.92-14.65,0.16-14.46-7.23c0.16-6.44,16.23-1.53,22.34-4.53c1.47-3.28,2.52-2.75,2.43,0.81l88.59,0.33  c1.84,0.01,3.03-0.8,4.07-1.21c0.95-3.3,1.87-3.14,2.72,0.17c1.94-2.24,5.5-2.72,10.66-1.46l7.58-0.49  c0.87-4.43,3.23-5.13,6.91-2.33c-1.3,3.67,14.52,2.93,15.04,2.27c0.64-0.83,0.83-10.09,0.18-11.18l-14.82-5.91  c-10.63-7.21-10.66-21.27,3.57-20.71c2.35-6.4,2.1-9.9-0.77-10.51c-5.67,1.71-10.67,1.84-14.99,0.39c-1.43,2.44-2.42,4.04-4.13,1.22  c-21.11,4.12-40.54,13.14-60.55,24.75c16.75-32.6,22.66-67.91,14.19-102.43c-0.83-3.36-1.91-5.86-4.4-6.8  c0.54-2.97-0.44-5.93-1.36-8.74c-2.8-1.09-4.57-3.43-5.33-7.03l-2.41-3.51c-8.74,2.4-21.9-3.92-10.87-11.02  c2.42-1.56,50.38-1.15,57.57-0.95l2.7,2c1.37-1.97,2.16-2.02,2.35-0.14l2.89-1.74l32.49,0.25l1.93,2.68l2.71-2.52  c-2.32-0.83-3.72-3.7-4.22-8.62c-16.34-10.26-13.32-24.44,7.39-22.35c0.84-1.51,3.91-34-6.99-29.8c-2.02,0.51-3.76,0.22-5.24-0.87  c-0.46,0.86-0.94,0.78-1.43-0.12c-16.9-5.32-31.15-1.84-45.13,9.45c-15.07,7.83-30.38,9.59-45.91,1.63  c-3.46-1.77-10.03-5.3-11.27-8.7c-1.36-3.73,0.83-4,4.7-3.41c18.19,6.73,35.92,2.68,47.26-13.49c-6.05,2.08-10.72,1.61-14.02-1.39  c-0.51-3.07,10.46-11.87,13.63-14.22c7.14-5.28,14.64-8.17,23.48-8.46c16.13,1.9,30.19-1.61,42.19-10.54  c-1.02-6.4-0.16-11.79,2.61-16.17c0-0.46,0.13-1.04,0.27-1.48c2.99-4.89,5.62-4.28,8.04,0.92l0.28,46.93l-1.18,4.24  c1.41,15.17,1.9,30.4,1.48,45.69c10.26-0.68,22.71,4.8,12.43,15.18l-0.27,3.02l-11.07,4.64c0,0,0.15,2.67,0.46,8.02  c16.26-1.13,32.05-0.25,47.36,2.64c1.92-4.4,5.58-1.55,4.99,2.86c-2.96,2.19-3.4,4.14-1.3,5.84c3.3-0.45,5.23,0.46,5.8,2.71  c2.05-3.39,9.68-3.89,11.94-0.56c3.78-3.48,6.18,2,2.46,5.04l-12.38,2.47l3.03,15.9c1.85,27.4,2.45,54.67,1.8,81.81  c3.18,7.48,7.24,7.89,12.16,1.23c6.12-3.27,12.42-5.16,18.87-5.67c2.01-5.34,4.96-7.15,10.65-6.77c5.69-5.51,12.74-9.31,21.17-11.38  c5.25-6.28,10.94-8.62,17.07-7.01l-0.28-2.23c-3.91-1.52-6.36-7.56-2.4-10.12c3.06-4.21,7.72,0.41,9.99,4.08  c2.14,10.51,6.21,13.68,12.21,9.51c1-5.35,2.02-10.7,3.06-16.06c8.85-7.39,18.19-14.09,28.02-20.1c0.74-2.68-0.25-2.75-2.78-2.49  l-2.16-1.98c-3.98-1.84-3.27-5.61,1.15-5.54c3.67-3.98,11.11-2.34,13.61,2.69c-0.05,4.53,0.32,8.91,1.14,13.16  c0.26-7.08,5.47-11.22,8.64-3.71c2.54-9.71,9.11-5.49,9.4,2.69c-0.13-7.92,2.14-10.89,6.81-8.9c4.18,11.77,5.14,8.68,2.88-9.28  l2.47-1.99c8.68,0.55,11.05-4.88,7.09-16.3c-0.53-5.47,0.88-9.31,4.24-11.54c3.6-1.53,5.18,1.43,3.78,4.83  c1.54,1.55,2.2,4.04,1.99,7.47c7.61-4.25,15.23-8.56,22.85-12.94l6.42-0.61c15.84,9.92,23.64-9.92,5.23-8.83  c-2.65-2.02-3.28-5.67-1.89-10.96c-3.32-3.21-4.58-5.91-3.76-8.1c-1.61-5.81-23.11-45.89-25.54-47.06l-63.41-0.23l-1.93-2.69  c-1.78,2.15-6.45,2.23-8.04-0.08c-0.32,2.67-1.65,2.55-2.68,0c-5.88,0.82-11.68,1.59-17.42,2.33c-0.95-1.4-2.93-1.37-5.95,0.11  c-43.75-0.55-87.53-0.96-131.36-1.24l-4.38-2.32l-1.78,2.78c-19.16,0.83-25.74-4.31-19.74-15.42c6.39-1.6,13.03-2.31,19.92-2.13  c1.76-2.88,3.67-4.14,5.72-3.79c1.08-0.52,1.29-0.2,0.69,0.9c1.38,1.12,2.25,2.35,2.6,3.69l97.87,0.54l1.61,2.69  c1.08-2.28,2.13-2.48,2.68,0.04l6.49-2.36l37.17,0.01l-0.34-7.51c-35.19-5.34-38.54-33.94,0.83-34.52c1.07-0.87,1.34-2.26,0.79-4.17  c-10.09,0.64-19.76,2.13-29,4.46c-0.33,0.98-0.88,0.95-1.63,0.07c-1.62-0.81-2.74-0.56-3.37,0.76  c-22.42,5.27-43.24,15.25-63.82,25.33c-4.42,1.66-4.8-0.63-4.8-4.97c4.75-9.2,8.58-18.72,11.49-28.55  c-6.76-2.42-8.42-5.22-4.97-8.42c9.87-4.14,19.52-8.63,28.96-13.46c-5.53,0.7-10.79,2.84-15.8,6.42c-3.43-0.61-3.82-2.76-4.14-5.62  l-12.85-8.28l0.06-3.52l1.66-3.3c4.24-1.46,8.48-2.7,12.71-3.71c-0.51-9.91-2.33-19.59-4.84-29.23c-1.07,2.1-1.55,2.23-1.69-0.21  c-1.42-4.34-3.25-8.6-5.47-12.77c-13.54-0.31-17.51-4.11-11.92-11.39c21.44-0.39,42.85-0.8,64.23-1.25l3.2,1.27  c1.35-1.58,1.89-2.08,2.26,0.12l2.58-1.3l37.91,0.89l-0.02-40.85c-1.38,0.21-2.82-0.33-4.32-1.62c-1.43,1.26-2.27,1.3-2.53,0.13  l-2.47,1.16c-7.24-0.81-14.51,0.43-21.79,3.72L463.5,390l-2.33,3.51c-28.08,10.27-55.01,15.03-83.22-0.29  c-30.75-9.56-41.13-0.96-63.24,19.31c-4.97,5.06-10.3,7.38-16.02,6.96c-17.07,8.11-36.39,9.69-54.88,5.97  c-5.14,4.26-30.04-7.86-32.27-11.26c-2.27-3.46-3.33-5.53,0.79-6.02c33.95,9.92,69.61,1.97,89.79-28.56l-13.72,1.66  c-4.09-0.11-15.26-0.59-9.35-6.39c17.85-9.48,35.28-19.33,52.3-29.54c-7.8-2.14-15.76-0.54-22.5,3.66  c-25,19.37-47.65,28.64-79.25,15.54c-5.28-2.19-21.7-9.47-20.84-15.55c0.07-0.52,1.24-0.87,2.72-1.13  c31.04,8.47,60.6,7.13,84.84-15.42c-5.61-0.2-9.77-1.71-12.49-4.53c55.41-30.5,74.66,10.31,117.01-11.7  c-3.72-2.68-7.55-2.04-11.24-5.44c5.18-1.38,9.28-3.93,13.5-5.34l0.61-3c11.3-2.72,12.75-4.67,4.36-5.87  c-3.59,0.24-6.17-0.65-7.74-2.67c-1.65-0.39-3.75,0.23-5.34-1.72c22.72-17.42,51.13-23.22,78.43-15.4l27.26,7.81  c15.5,4.44,32.15,3.05,45.53-5.89c0.62-4.24-2.13-16.36,2.21-16.35c4.46,0,1.89,13.86,1.96,16.31c1.06,40.85,0.19,80.84,0.01,121.74  l-0.15,32.65l57.82,0.22c2.1,0.01,4.38,0.38,4.85,1.72c0.52,1.49,0.47,3.14-0.4,4.27c-0.71,0.92-2.63,0.8-4.37,0.93L600.23,440.72z" />
<path class="cls-5" d="M1129.98,886.61l-0.59-3.7c-0.09-0.58-1.78-1.47-2.58-0.65c-1.04,1.06-2.19,2.99-2.84,4.33  c-5.39,7.45-8.09,11.18-8.09,11.18c-6.63,2.25-11.67,7.32-15.13,15.21c-4.25,2.93-5.83,2.36-6.24-3.03l3.26-17.76  c-4.19,1.29-7.95,3.46-11.28,6.51c-5.04,0.79-5.04-1.53-4.92-6.38c0.13-4.87,6.73-11.24,10.32-14.23  c-4.24-5.36-9.16-10.06-14.75-14.11c-0.51-3.96-2.47-5.12-5.88-3.47c-2.45-5.34-5.5-10.33-9.16-14.99c-1.37,1.14-3.07,1.03-5.1-0.33  c-4.13,3.79-2.01,10.69-5.49,15.19c-2.75,3.55-3.85,6.53-3.4,11.77c-3.4-1.09-3.25-3.96-6.1-4.38c1.26,6.24,2,11.75,0.36,17.71  l-4.17-5.76c-1.28,5.03,1.4,8.33-0.27,12.87c-1.16-1.63-0.51-3.79-2.67-4.95l-2.61,21.44c-7.94-13.95-9.39-31.22-4.62-47.02  c1.35-4.47,5.1-6.59,6.03-12.67l-16.89,8.77c-0.24-2.69,0.77-5.19-1.59-6.57c-1.54,5.14-2.3,9.65-5.57,13.06  c-1.22-0.92-2.44-2.4-3.42-2.09c1.37-0.43-11.47,11.56-12.95,13.03c0.66-17.11,8.87-33.13,23.68-41.54  c6.49-3.68,14.08-2.66,20.71-4.41c-5.5-1.64-10.54-0.15-15.69-0.6l1.18-4.19l-7.14,2.53c-3.86-0.98-7.64-1.3-11.28-0.6  c-0.54-1.07-0.07-2.62-0.54-2.88c0.3,0.16-14.67,0.52-17.52,2.11c17.01-18.4,38.51-20.96,60.18-7.55  c1.39-25.27,18.27-39.45,40.35-41.12c-5.84,3.07-9.5,7.19-12.16,12.73c-6.46,13.48-6.45,0.69-11.83,18.98  c14.08-13.26,35.15-16.14,49.75-2.84l-14.96,2.46c-2.97,5.26-9.38,5.59-14.76,4.49c0.76,2.01,2.31,1.9,2.96,2.5  c4.5,4.2-9.45-0.06-8.33,5.46c-2.48,2.15-6.43,0.57-8.39,4.45c18.94-6.27,35.99-1.01,49.38,12.13c8.22,8.07,14.42,16.99,15.52,28.85  c11.35-8.27,25.02-6.43,33.6,3.85c-12.68-0.7-15.71,1.61-27.42,3.56c17.55,3.34,26.97,6.96,28.2,26.53  c-4.93-2.87-9.71-7.03-13.56-10.07l-5.75,0.14c3.71,10.54,5.79,20.8,1.63,30.77c-5.18-12.31-1.23-18.15-15.16-23.96  C1132.82,895.98,1130.46,889.63,1129.98,886.61z" />
<path class="cls-10" d="M997.72,1010.96c18.92,3.63,42.48,13.06,60.02,15.15c5.66,0.68,20.63,3.49,18.97,10.87  c-1.18,5.24-20.16,5.54-30.7,16.9c-4.97-1.76-11.22-2.64-17.4-2.64c-40.57-0.01-57.9,2.64-96.7,6.71l-39.91,4.18  c9.71-11.81,30.02-28.38,44.25-36.08c8.99-4.87,17.06-13.77,26.63-16.76L997.72,1010.96z" />
<path class="cls-2" d="M1062.09,845.53c4.53,5.28,8.64,13.04,10.9,19.62c9.11,26.6,15.92,52.1,19.02,80.31c0.14,1.29-0.14,2.63-0.45,4  c-0.32,1.4-0.82,2.75-1.38,4.09c-4.22-1.04-1.54-5.96-3.62-10.24c-4.19,3.55-0.84,8.39-2.1,12.36c0.42-1.32-7.08,22.32-6.12,14.16  c2.75-39.01-7.31-88.19-21.34-124.64c0.77-0.71,0.57-1.62,1.82-1.56C1060.47,843.73,1061.07,845.02,1062.09,845.53z" />
<path class="cls-5" d="M1057.19,942.86l-0.45,1.46c-0.64-2.27-3.65-4.84-4.3-8.82c-5.15,6.19-6.37,13.07-9.08,20.49  c-3.9-6.46-1.93-13.93-0.16-21.83c-8.25,0.71-10.92,6.28-14.15,11.63c-1.42-10.4,5.63-18.13,15.6-20.24  c-4.24-3.75-9.22-3.02-14.49-4.81c6.19-4.77,13.68-2.66,20.21,1.52c3.43-6.69,8.38-12.74,15.38-11.17  c-1.69,3.65-4.71,5.19-5.43,8.92c6.61,2.18,12.77-1.06,14.37,6.99c-4.69-0.33-8.4-1.46-12.22,1.04c4.25,5.95,9.37,10.22,9.88,17.49  c-4.18-1.65-5.1-6.03-8.76-7.93c-1.13,0.8-1.6,1.78-2.56,2.28c-1.95-1.92-2.7-4.15-5.88-5.01  C1057.12,937.48,1056.09,940.96,1057.19,942.86z" />
<path class="cls-5" d="M791.61,805.31c-1.15,2.22,0.8,3.53,2.19,5.38c7.39,9.83,16.44,17.77,22.59,27.7  c-3.38,1.16-5.04-1.68-7.32-3.16c-8.69-7.54-18.28-16.33-25.05-25.64c-1.3-1.79-1.85-3.95-2.2-6.11l-3.94-1.78  c-21.11-26.07-42.05-52.41-62.82-79l-3.61-8.9l0.04-2.47c12.96,12.63,22.33,28.31,34.28,42.71l39.45,47.54  C787.28,804.07,789.05,804.95,791.61,805.31z" />
<path class="cls-5" d="M991.27,937.55c-1.03,0.36-1.33,0.63-1.27,1.13c-1.41-0.83-1.79-1.65-3.98-2.6c-1.49,8.53-3.17,17.43-0.7,26.67  c-6.55-4.31-8.5-10.79-10.67-19.09c-5.79,14.79-6.19,5.3-6.91,21.98c-7.65-10.08-5.07-23.4,5.18-32.69c-5.46-1.25-10.01,1.61-14.9,1  c-3.73-0.46-6.55-0.38-9.7,2.16c5.07-10.89,16.4-15.7,27.8-12.17l0.45-10.43c0.34-7.87,5.79-13.52,13.35-15.97  c-3.36,7.56-6.6,14.15-5.23,23.18c7.63-10.22,18.07-14.73,29.22-10.54c-8.87,1.24-15.7,6.81-20.22,13.43  c11.44,0.73,20.97,2.35,24.62,12.59c-4.92-1.48-8.28-1.59-12.69-1.67l-11.34-0.19c-1.2-0.02-2.62-0.95-3.09,0.2  C990.81,935.5,991.18,936.59,991.27,937.55z" />
<path class="cls-5" d="M1140,946.77c-0.44-0.52-0.99-0.93-1.6-1.24c0.78-1.37,1.55-3.28,1.15-5.15c-4.78,1.04-8.84,5.01-13.72,5.36  c-4.26,0.31-7.02,0.9-11.09,5.32c1.53-10.98,9.42-10.57,16.05-20.16c-4.8-3.28-9.56-1.78-15.54-3.08c7.51-7.64,18.27-7.03,27-1.52  c-0.88-7.97-6.02-11.69-9.78-18.47c10.41,1.52,15.68,10.13,17.71,19.91c10.96-5.17,21.41-1.1,27.99,6.61  c-7.64-1.68-14.28-1.51-21.31-0.32c9.23,5.32,14.7,12.94,12.57,22.92c-5.82-4.09-7.02-10.37-13.64-13.34  c1.1,8.18,1.34,15.57-4.37,19.95c-0.45-8.58-2.43-16.31-7.22-23.45C1142.82,942.81,1140.85,944.68,1140,946.77z" />
<path class="cls-15" d="M1005.35,374.09c-7.62,12.24-10.2,27.74-9.8,42.17c10.03,3.36,19.52,4.78,28.1,11.16  c-36.14-8.8-72.79,4.43-91.79,35.46c-10.72,17.5-12.74,36.83-6.51,56.56c-34.53-7.45-57.21-2.09-80.38,22.87l-2.68,1.33  c-21.22-7.46-36.67,7.27-40.93,28.19c-15.03-1.04-28.09-1.74-42.15,4.92c-15.97,7.57-24.07,20.08-32.28,35  c-17.55-6.77-41.63-6.92-44.16,15.97l-2.71,1.6c-2.73-2.04-2.98-6.04-6.05-7.74l-3.26-1.18c-6.12-10.05-12.15-20.14-18.07-30.24  l2.1-2.46c4.58,0.99,10.51,0.71,15.25-1.07c3.23-1.21,2.61-8.5,0.19-9.96c-11.05-1.22-23.67,0.17-35.33-0.31  c-4.03-0.17-5.41-2.79-7.44-5.38c-0.8,0.95,0.05,5.39-2,5.37l-50.15-0.46l-5.16-6.46c-5.47-8.71-11.29-17.35-17.46-25.93l-1.86-5.31  c-0.05-2.88-0.94-6.36,0.96-9.7c8.36,2.3,15.02,7.03,22.28,12.59c2.37-10.25,3.96-20.92,12.76-28.88  c3.19,12.28,3.41,23.63,4.74,36.2l8.74-13.29l24.61,30.74c1.17-5.51,1.07-10.69,2.73-14.28c2.62-5.68,1.01-9.25,0.83-14.67  c-0.69-21.09-2.3-41.68-10.93-60.27c-4.22-3.52-7.25-8.47-9.08-14.85c-5.19-5.68-6.26-9.66-3.21-11.95  c31.22-0.77,60.39,15.24,77.2,42.05c5.92-1.91,10.42-4.32,15.44-4.38c0.75,8.01-13.41,27.99-14.97,38.22l21.48-35.83  c22.96,2.66,37.46,24.73,44.88,44.05c4.74-48.58,49.43-73.72,94.13-62.92c1.11-25.91,11.33-48.74,28.62-67.82  c31.61-34.88,81.03-46.32,125.53-30.68C1000.45,373.51,1002.83,374.7,1005.35,374.09z" />
<path class="cls-13" d="M844.96,542.31l-7.27,12.98c-7.34,13.11-7.35,27.96-0.07,42.91c-15.9-4.46-31.11-1.42-43.51,8.59  c-9.75,7.87-14.41,18.87-13.15,32.31c-29.29-12.89-62.18-4.26-79.89,21.64c-1.65,2.42-2.58,4.74-4.69,6.04l-9.12-20.34  c-2.55-5.69-7.04-11.06-7.21-17.11c-0.16-5.79,2.68-10.95,5.32-15.72c1.97-3.55,3.09-3.21,6.28-4.79c11.19-5.52,23-5.23,34.47,0.98  c11.64-30.71,41.54-46.97,74.08-39.72c0.8-11.31,6.28-19.63,14.67-25.94c3.04-2.28,4.11-3.83,8.79-4.09  C831.05,539.63,839.25,537.44,844.96,542.31z" />
<path class="cls-5" d="M877.07,1416.9c-28.99,13.53-57.01,30.04-86.91,41.76c-1.79-0.75-3.93-2.09-6.68-2.09  c-30.94-0.08-60.38-3.73-91.06-7.71l-80.29-10.41c-6.63-0.86-11.87-2.82-17.49-4.06c-0.24,0.25-0.48,0.45-0.74,0.47  c-3.02,0.27-39.89-6.72-41.59-7.97c-0.95-0.7-0.9-2.06-0.53-3.31c0.22-0.6,1.32-1.64,2.66-1.56c18.34,1.08,35.57-0.1,53.97-0.41  l147.73-2.48l112.97-4.22C872.26,1414.76,875.42,1415.25,877.07,1416.9z" />
<path class="cls-12" d="M213.15,1354.14l9.63,23.66c0.79,1.94,0.23,4.27-0.45,5.35c-4.06,6.42-23.3-3.03-29.45-6.2l-52.26-26.92  c-3.23-1.67-6.02-3.45-9.29-3.15c-5.02,0.02-24.55-16.7-24.21-19.1c0.71-5.02,18.34-2.01,22.43-1.23  c28.74,5.48,55.79,22.23,79.77,38.33C207.9,1358.13,209.18,1354.55,213.15,1354.14z" />
<path class="cls-16" d="M357.84,1371.81c3.76-0.42,7.55-0.26,11.39,0.47c17.81,5.72,35.58,11.62,53.3,17.72l4.67,4.04l95.14,24.16  c10.04,2.55,19.96,4.78,29.44,5.36c1.77,1.89,4.85,2.39,7.8,3.04l35.06,7.77c-0.83,2.35-3.83,1.26-6.19,0.86l-76.96-13l-59.42-13.49  l40.44,22.77c-39.02-10.06-75.37-24.29-111.99-38.98c-2.12-0.85-4.44-1.61-6,0.53l35.58,29.25c-8.02-1.56-13.49-5.73-20.47-8.43  c-38.05-14.73-72.9-33.56-108.29-55.4c8.83,15.2,17.52,28.28,23.97,43.66L238.33,1358c-8.35-5.5-19.5-11.76-25.18-3.86  c-3.15,4.39,0.01,9.28-1.26,15.86c-27.16-19.55-70.31-44.92-103.34-42.23c8.54,6.04,15.85,12.25,22.76,19.11l4.1,13.55  c-18.07-5.66-35.63-14.89-54.89-18.48c-26.03-8.51-53.44-11.9-80.51-16.06v-57.59c13.52-3.13,27.55-0.66,41.23,3.01  c17.47,4.69,30.41,14.79,44.09,25.37c6.86,5.3,16.37-5.5,16.25-12.09c-0.18-9.59-3.52-15.92-9.6-22.97  c-17.39-20.16-41.28-33.42-66.89-40.95c7.48-2.5,14.13,0.1,21.37,1.55c55.66,11.14,121.95,41.49,147.79,96.65  c4.69-3.7,8.62-6.79,14.14-8.01c27.44-6.09,48.97,12.42,64.16,33.24l72.66,24.91L357.84,1371.81z" />
<path class="cls-2" d="M1200,1421.24v121.62H732.59c-0.16-1.4,0.87-2.22,2.46-2.75c69.4-22.86,136.34-53.17,199.43-85.54  c-12.15,28.34-57.05,62.8-82.2,77.72c0.15,1.67,2.22,2.04,3.61,1.51c28.48-10.74,55.69-22.46,82.74-36.75  c45.65-24.11,88.73-49.91,131.07-81.15c-0.97,17.21-8.38,31.1-16.39,44.74c-18.65,31.79-48.54,58.22-78.68,79.97  c38.81-11.86,73.47-29.98,106.01-52.68c15.18-10.58,28.31-22.22,41.54-34.88c3.52-3.37,5.98-7.66,11.51-9.19  c-5.11,17.79-16.01,31.44-26.43,46.68c5.07-0.88,8.07-4.52,11.32-7.82C1142.86,1458.08,1169.63,1436.86,1200,1421.24z" />
<path class="cls-8" d="M217.73,1534.01c-26.56-2.08-77.75-16.99-102.69-27.39c-23.37-9.75-44.59-22.22-65.8-35.68  c5.3-2.02,8.36,1.74,12.53,3.9c38.49,20.02,78.46,36,120.2,48.13C194.29,1526.55,205.89,1527.89,217.73,1534.01z" />
<path class="cls-2" d="M464.72,1228.11l1.44-1.36c0.95-0.17,1.64-0.97,2.51-1.25c21.81-12.25,32.71-18.37,32.71-18.37  c6.09-3.12,10.92-3.25,14.49-0.39c4.21,0.41,3.08,4.5,2.09,7.68c-7.38,23.73-55.29,42.8-78.79,42.94l-1.17,2.31  c25.95,2.35,52.95,2.45,77.98-5.31l-0.3-2.52l2.57-3.49c25.22-9.93,48.89-23.1,71.02-39.52c3.14-1.34,6.74-1.19,10.81,0.45  c2.37-1.18,5.29-0.79,8.78,1.19c7.73,2.81,10.86,1.58,9.38-3.7c1.32-4.41,4.77-4.71,10.34-0.9l7.76,5.89  c4.32,1.18,15.37,13.29,29.86,4.47c37.58,17.06,78.63,25.15,120.44,23.21c-20.01-7.41-40.27-10.68-57.97-21.07  c1.73-10.7,15.83-5.07,22.29-7.07c-1.27-2.75-4.9-2.56-6.06-6.21c18.74,2.54,36.23,5.74,53.55,10.05c-1.98,2.29-5,2.99-9.08,2.1  c23.05,8.28,47.32,12.67,71.65,15.48l5.34,3.29c-0.72,0.65-1.06,2.29-2.46,3.05c-22.51,12.31-45.36,22.86-68.18,33.17  c-1.52-0.91-29.78-2.21-29.05-0.93c3.22,5.62,3.93,7.11-3.65,8.51c2.06,2.59,3.88,5.26,0.34,7.11l-44.65,17.39  c-19.92,7.76-39.9,13.02-59.63,19.06c0.15-0.69,0.28-1.66-0.1-2.14c-0.75-0.94-2.14-1.63-3.79-1.67l-59.21-1.58  c-10.95-0.29-21.16,1.05-32.31,0.18l20.61,6.3c-31.53,2.27-61.54,0.89-92.63,0.4c-14.49-0.23-28.06-0.02-42.22-1.18  c-6.7-0.55-1.25-10.93-12.86-11.01c-35.06-0.22-69.34-0.7-104.34-3.07c-4.46-0.3-9.46,2.43-13-1.93l121.24-5.82  c2.91-0.14,4.86-1.75,5.19-3.57c0.51-2.82-1.55-4.57-5.11-4.66l-128.67-3.13c9.58-7.05,34.41-1.69,40.16-8.57  c1.74-2.09,3.52-6.52,0.63-8.78c-3.85-3.02-10.1-2.14-15.15-2.28c-22.69-0.63-44.36,0.38-67.34-3.07l37.94-4.63l70.69-7.04  c-29.17-3.22-56.56-2.26-85.55-2.95l-114.8-2.73c-3.89-0.09-6.72-2.88-6.73-5.57c-0.03-8.54,11.19-5.57,11.72-9.6l1.14-2.8  l50.33-4.28c-31.11,0.57-62.2,0.83-93.28,0.79l-8.7-1.46c-13.28,0.52-26.88-0.8-40.44-3.34c-4.73-0.88-9.02,0.94-13.88-2.82  c13.23-0.16,25.53-4.95,38.1-6.54c3.81-2.21,5.72-3.31,5.72-3.31c-4.02,0.73-6.4-0.21-7.15-2.83c-5.45-0.12-10.8-0.6-17.21-1.76  l19.68-4.29c2.1-0.46,4.63-2.49,3.73-4.64c-0.51-1.21-2.99-2.19-4.97-2.28l-64.13-2.9c-4.6-0.21-8.72-0.46-13.12-2.53  c1.46-1.93,2.45-3.92,2.31-6.08l158.57-0.43l-30.37,18.28c5.98,0.7,11.64-0.99,17.59-2.35c16.82-3.85,33.05-7.36,50.48-8.2  c10.09-0.49,24.81,2.93,36.98,5.07l-39.32,18c29.49,0.44,69.99-10.85,95.24-10.21c12.36,0.31,23.63,4.93,35.39,9.3  c-21.08,10.74-42.52,16.59-65.74,20.69c3.39,4.19,7.73,0.66,11.59,0.74c47.44,0.91,78.57-15.93,121.42-23.78  c9.67-1.77,18.68-3.92,29.12-2.92c-19.76,14.75-32.5,21.77-56.21,31.85C427.51,1241.48,446.09,1234.41,464.72,1228.11z" />
<path class="cls-9" d="M769.79,1027.09l1.84-3.28c17.63-4.87,24.32-19.56,25.99-36.41c1.94-4.79,6.96-8.48,9.73-3.2  c0.42,2.05,2.14,3.83,1.75,6.98c-1.22,10-2.75,20-7.66,28.84c-12.26,22.09-41.36,27.53-64.27,31.91  c-13.97,38.78-25.44,102.28-41.83,136.54c-1.68,3.52-2.97,7.05-5.72,9.11c-3.28-2.93-8.58-4.55-11.7-8.01l-2.03-3.17  c13.42-31.5,23.54-65.86,30.11-99.42l-180.36,48.85c-78.95,20.83-159.33,37.73-240.38,46.54l-2.37-1.58l-13.97-8.28  c-16.71-9.91-36.62-7.01-51.41,5.16c-21.68-17.05-20.63-31.16-30.13-52.72c-3.61-4.29-3.95-7.76-1.02-10.4  c-3.85-0.81-5.33-6.28-1.52-8.21c-2.93-1.43-4.51-4.63-4.73-9.59c-1.96-3.7-2.23-6.83-0.79-9.41l0.21-2.52l98.12,2.49  c3.43,16.97,13.33,33.33,32.52,34.32c10.47,0.55,20.37-0.69,30.89-2.54c30.46-5.35,60.07-11.42,90.17-18.29  c1.66-0.38,2.34-1.79,2.78-2.63c2.1-2.83,5.46-5,10.08-6.51c10.27-9.36,17.87-21.21,22.8-35.56l3.17,0.44  c0.05,0.56-0.1,1.43,0.46,2.56c32.71-7.35,63.88-18.3,96.79-26.92l119.35-31.26c17.57-4.6,31.86-16.99,45.79-27.29  c13.38-7.03,25.3-16.48,36.28-26.81c2.07-1.53,3.45-4.7,6.99-4.39c14.83,16.7-78.82,62.99-85.43,64.78l-112.07,30.32  c-12.85,3.48-24.47,6.16-36.33,12.48c12.52,0.25,40.34-2.31,40.8,15.19l56.3-14.69l34.87-9.61c3.37-0.93,7.85-0.07,8.9,5  l-105.94,29.02c-13.46,3.69-26.03,6.25-39.58,8.65c-2.87,0.51-5.92,2.09-6.27,3.95c5.86,5.63,12.98,4.93,20.04,6.07  c9.81,1.59,16.9,8.29,25.15,13.74c45.97-9.1,90.27-20.28,135.55-32.84l11.4-43.17c5.77-21.84,23.9-36.93,39.81-47.97l-18.5,50.08  C754.44,1034.87,762,1029.16,769.79,1027.09z" />
<path class="cls-8" d="M962.81,1248.59c-30.93,36.97-62.54,67.96-106.34,90.94c-13.78,7.23-26.02,15.31-41.6,19.94l33.03-26.85  c4.69-3.82,8.96-7.94,11.91-12.98c-14.18,7.65-27.37,15.88-42.22,22.87c-31.63,14.9-63.43,28.82-96.06,39.67  c-5.78,0.84-4.04-3.22-1.15-6.47c4.05-2.86,42.96-32.06,39.47-38.45c-43.23,22.02-86.53,38.09-132.48,49.38  c-12.17,2.99-22.92,7-35.64,7.33c9.86-3.57,74.87-36.25,72.63-43.43c-0.31-0.98-2.16-2.13-3.89-1.63l-42.63,12.22  c-42.66,12.23-85.09,21.3-129.28,26.16l-61.35,6.75c-23.52-5.97-46.01-17.05-69.37-22.23c0.61-0.75,2.03-1.63,3.63-1.54  c12.9,0.7,135.55-13.08,152.89-16.32l114.99-21.49c13.64-2.55,27.45-2.67,41.79-6.52l60.29-16.18c-8.97,7.07-18.05,12.4-27.38,18.78  c-3.71,2.54-8.37,3.41-10.87,7.83c19.39-7.33,36.6-15.01,54.32-23.81l65.33-32.46c1.66-0.82,4.75,0.05,5.94,0.46  c1.64,0.56,1.97,4.13,0.71,6.05l-7.93,12.1l0.06,2.76c-5.26,4.46-9.95,9.48-14.06,15.06c20.87-8.36,40.86-18.8,59.66-31.15  c21.71-16.23,43.88-31.28,66.52-45.14c11.41-5.64,18.69-8.34,23.48,5.83l7.71,1.34C958.45,1246.54,961.08,1246.94,962.81,1248.59z" />
<path class="cls-1" d="M677.93,1189.57c-0.28,1.49-0.58,3.29-1.97,5.37c-8.54-12.14-22.34-32.99-37.11-38.24  c4.34,7.44,8.85,13.29,9.03,21.71c-2.96-1.91-5.04-4.24-7.31-6.99c-19.47-23.55-48.51-36.58-79.8-34.03  c17.55,4.99,34.62,12.47,45.53,28.22c-17.1-8.64-32.52-14.12-50.53-13.95c-16.58,0.16-33.06,1.93-47.24,10.31  c17.45-2.31,44.53-1.88,58.15,12.11c-25.3-6.51-53.13,2.1-76.39,15.41c-31.15-19.24-76.03-22.93-107.44-0.75  c12.06-0.87,23.87-2.64,36.69,1.28c-14.08,3.93-26.69,9.94-40.32,16.24c-12.09-6.86-23.2-13.11-35.9-17.3  c-17.67-6.79-36.04-7.2-54.07-2.76c-3.05,0.11-4.88-4.12-6.38-5.42c0.74-0.93,2.73-1.33,4.51-1.53  c95.59-10.55,177-29.47,269.38-54.51l63.4-17.18l89.09-24.25c-0.15,6.97-2.38,12.47-3.89,18.74c-5.28,21.92-10.28,43.28-18.47,64.27  C683.75,1174.45,679.42,1181.55,677.93,1189.57z" />
<path class="cls-12" d="M636.34,1211.74c-5.01-1.37-9.53-3.88-15.41-6.68l-0.05,9.85c-6.64-0.58-15.44-1.34-20.8-5.64l-1.7,0.14  c-9.67-4.78-19.54-6.62-29.6-5.52c-4.45,1.94-8.34,2.34-11.67,1.21c-1.56,0.06-3.06-0.68-4.52-2.21c-7.11-0.14-9.24-1.82-6.39-5.05  c6.95-4.47,14.51-8.36,22.82-8.49c2.11,2,4.37,1.95,6.8-0.14c17.67,1.35,32.46,16.68,33.75,11.21c1.29-5.5-0.81-11.16-2.64-16.57  C615,1187.81,632.16,1204.85,636.34,1211.74z" />
<path class="cls-13" d="M546.2,1197.85c-0.34,4.58,9.28-1.43,10.91,7.26l-0.41,3.3c-4.16,3.27-31.53,21.51-34.45,20.59  c-2.48-0.78-3.52-1.49-3.66-4.34c6.09-12.13,5.89-17.31-0.62-15.53l-2.1-2.38c-18.31,1.01-28.11,12.61-47.2,18.76  c-0.33-2.05,1.62-2.58,3.4-3.67l35.52-21.78c9.44-5.79,19.77-9.14,31.24-11.67c0.88,4.64-1.65,7.88,0.22,12.27  C541.85,1200.77,544.29,1199.08,546.2,1197.85z" />
<path class="cls-7" d="M798.44,1215.13l45.59,7.08c9.73,1.51,19.05,1.32,28.87,3.31c-1.85,4.16-3.58,7.81-6.55,10.49  c-35.28-3.81-61.72-9.21-95.12-22.44C780.9,1215.39,790.11,1213.83,798.44,1215.13z" />
<path class="cls-7" d="M179.32,1087.34c3.23,5.79,4.34,12.63,5.52,19c-6.27,5.64-19.4,2.4-26.95-0.16l-14.53-18.65L179.32,1087.34z" />
<path class="cls-5" d="M795.71,1272.23c-10.75,4.86-21.15,10.32-32.36,14.69c-0.56-2.3-1.16-5.29-3.99-6.24  c-4.39-1.47-8.93,1.68-13.08-2.07c-0.2-1.74,27.38,0.41,19.16-4.98c-2.54-1.66-37.26-1.3-45.02-4.88l71.11-0.26  c1.61-0.01,2.97-0.42,3.73,0.79C795.75,1270.05,795.7,1271.25,795.71,1272.23z" />
<path class="cls-7" d="M186.36,1114.55c0.64,3.47,1.07,6.82,1.02,10.4c-2.8-1.65-11.73-12.39-15.01-10.52  c-3.52,2.02,5.41,13.48,2.22,17.5c-4.05-5.57-10.52-16.31-13.66-21.87c0.33-1.01,0.67-1.81,1.04-1.82  c4.99-0.25,18.45,1.35,22.8,3.41L186.36,1114.55z" />
<path class="cls-11" d="M184.84,1106.34l1.52,8.21c-10.34-1.1-14.58-5.02-25.44-4.49c-0.61-1.09-2.27-2.91-3.03-3.88  C166.86,1106.43,175.91,1107.14,184.84,1106.34z" />
<path class="cls-13" d="M575.83,1189.22c0.01,2.27-1.18,3.71-3.27,4.04c-2.71,0.42-3.23-1.65-3.53-3.89  C571.35,1189.32,573.47,1189.04,575.83,1189.22z" />
<path class="cls-5" d="M1117,1123.53c1.01-0.99,1.89-0.89,2.64,0.3l58.94,1.65c5.75,0.16,11.58-0.72,16.36,3.23  c-0.06,9.83-47.85,0.61-45.83,9.94c1.47,6.79,43.55,3.28,50.89,3.81v86.47c-29.65-8.41-58.58-18.49-88.19-29.07  c-56.86-20.31-121.05-42.56-180.42-23.42c-23.33,7.52-41.74,22.29-54.65,43.27c-16.99-4.18-34.37-5.94-50.08-13.47  c-6.83-3.27-11.8-10.13-21.36-9.14c6.74-7.67,14.37-5.79,22.53-7.14c3.79-13.71-27.9-10.6-35.98-8.97c-0.51-2.04,1-2.83,1.02-4.96  c-8.2-0.93-14.84,2.09-22.98,3.94c8.11-19.12,39.81-21.64,41.43-23.96c0.44-0.63,0.32-1.75,0.24-2.65l32.3-4.43l0.22-1.83  c3.69-1.38,7.91-1.84,12.65-1.38l-2.37-2.23c-0.42-0.61-0.17-1.3,0.18-1.64c0.53-0.53,1.36-0.91,2.52-0.96l49.65-2.05l72.31-0.28  c2.74-0.01,7.95-2.01,6.16-4.33c-7.62-4.4-24.71,1.45-26.07-7.32c-0.45-2.9,1.59-5.5,5.46-5.65c36.55-1.46,72.46-0.65,108.96,1.89  l40.86,2.85c1.05,0.07,1.94,0.05,2.33-0.58C1117.04,1124.89,1117,1124.1,1117,1123.53z" />
<path class="cls-7" d="M108.64,1085.83c8.88,5.45,15.15,15.21,18.61,26.24c-19.59-13.41-41.55-20.06-64.67-14.67  c24.2,8.04,51.98,19.98,59.89,47.94c-11.88-7.47-32.68-17.18-44.15-8.28c9.24,6.24,19.44,10.87,23.42,21.18  c-13.31-4.72-42.56-8.37-45.58,5.03c-0.96,4.26,2.4,6.07,4.98,10.94L0,1178.57v-64.29l78.02-2.83c-6.64-3.43-14.19-2.4-21.79-2.58  L0,1107.59v-21.43c14.87,1.26,29.85,0.06,45.56,0.39C67.11,1087,87.86,1086.8,108.64,1085.83z" />
<path class="cls-15" d="M874.98,354.88c1.75-5.06,4.65-9.64,8.68-13.73C882.15,346.54,879.34,350.66,874.98,354.88z" />
<path class="cls-15" d="M888.59,333.39c0.42-3.73,2.73-6.53,5.41-9.51C893.65,327.73,891.62,330.41,888.59,333.39z" />
<path class="cls-15" d="M808.05,456.45c1.87-6.94,6.55-11.99,10.8-18.24l55.39-82.16l-46.01,71.84  C821.57,437.58,816.47,447.27,808.05,456.45z" />
<path class="cls-15" d="M886.63,337.82c0.1,1.1,0.12,2.01-0.7,2.37c-0.77,0.33-1.61,0.06-2-0.69c-0.41-0.77-0.18-1.66,1.31-2.31  c-0.1-1.1-0.12-2.02,0.7-2.37c0.77-0.33,1.61-0.06,2,0.69C888.35,336.28,888.13,337.17,886.63,337.82z" />
<path class="cls-15" d="M923.11,686.52l-29.69,44.92c-3.79,4.52-5.84,9.91-10.97,13l31.75-48.57c2.18-3.34,5.58-5.7,6.07-9.38  L923.11,686.52z" />
<path class="cls-15" d="M867.86,685.7c-0.81,2.11-0.33,5.69-3.84,5.51c-0.7-2.39,1.04-3.74,0.96-5.37L867.86,685.7z" />
<path class="cls-7" d="M721.53,1382.18c-10.07,3.35-19.59,10.58-31.87,11.68c10.15-6.37,21.14-11.38,30.72-18.15  C720.85,1377.79,719.29,1381.01,721.53,1382.18z" />
<path class="cls-8" d="M1058.06,1219.03l-9.47,12.65c-1.02,1.37-1.34,3.52-0.63,4.77c3.47,6.13,29.73-6.16,35.95-8.26  c2.3,4.51,5.86,9.77,13.14,8.4c23.9-4.52,47.66-5.6,72.06-3.5l30.89,2.65v8.33c-20.79,11.29-36.49,27.86-58.93,39.18  c7.5-10.66,17.13-18.34,21.15-31.46c-26.75,12.32-29.37,7.75-51.83,28.47c-4.07,3.75-6.9,8.33-12.3,10.89  c0.02-6.94,10.21-21.39,4.49-28.58c-7.6,4.51-12.67,10.37-18.47,15.91l-33.6,32.06c-0.18-6.17,3.79-9.71,6.27-14.09  c5.21-9.16,15.71-33,10.62-44.06c-10.98,10.66-20.14,20.71-31.33,30.26c-28.89,24.66-60.46,44.26-95.07,60.23  c-24.09,11.12-47.54,21.19-73.57,28.49c44.99-22.74,145.87-69.68,147.22-128.21c0.01-0.59-2.27-0.37-2.27-0.33  c4.57-5.38,10.56-9.7,17.96-12.97c7.9-7.09,16.5-11.51,25.8-13.27L1058.06,1219.03z" />
<path class="cls-5" d="M167.16,819.24c-0.81,0-1.61-0.75-2.43-0.81l27.84-65.14l24.5-56.81c-4.57,22.4-14.87,40.48-23.26,60.2  L167.16,819.24z" />
<path class="cls-15" d="M124.16,755.41l-46.19,72.64C92.34,802.94,106.76,779.01,124.16,755.41z" />
<path class="cls-4" d="M275.89,768.59c0.98,0.4,2.41,1.17,2.25,1.89c-3.07,14.02-8.37,32.64-12.81,46.33l-2.79,1.71  c-0.68-0.28-2.02-0.15-2.72-0.17c3.97-16.18,9.31-32.08,11.95-48.54C272.95,769.58,274.71,768.99,275.89,768.59z" />
<path class="cls-15" d="M60.72,779.38c5.65-11.79,13.74-22.44,21.93-33.58C76.79,757.73,69.77,768.35,60.72,779.38z" />
<path class="cls-15" d="M152.2,711.07c-4.38,10.39-10.45,19.27-17.88,28.55C138.48,729.31,144.86,720.5,152.2,711.07z" />
<path class="cls-15" d="M37.83,814.4c4.13-9.32,9.79-17.23,16.73-25.83C50.64,797.78,44.86,805.87,37.83,814.4z" />
<path class="cls-15" d="M37.16,815.47c-2.79,6.94-6.62,12.42-11.45,18.27C27.93,826.44,31.96,821.21,37.16,815.47z" />
<path class="cls-15" d="M67.91,843.24c-3.1,8-7.47,14.51-12.44,20.21C58.37,855.13,63.11,849.36,67.91,843.24z" />
<path class="cls-15" d="M7,862.68c1.55-5.37,4.47-9.35,8.6-13.87C14.49,854.04,11.38,858.18,7,862.68z" />
<path class="cls-15" d="M25.14,834.21c-1.71,5.34-4.64,9.33-8.59,13.91C17.8,842.91,20.59,838.58,25.14,834.21z" />
<path class="cls-15" d="M133.65,740.45c-1.97,5.67-4.73,9.92-8.86,14.37C126.26,748.83,129.33,744.86,133.65,740.45z" />
<path class="cls-15" d="M77.35,828.83c-1.47,5.25-4.33,9.11-8.62,13.53C70.59,837.71,72.83,833.23,77.35,828.83z" />
<path class="cls-15" d="M87.3,741.2c-1.35,1.11-1.46,2.18-1.62,2.76c-0.35,1.29-2.95,1.16-2.65-0.76c0.22-1.38,3.16-1.83,2.65-4.7  C88.11,736.75,89.58,739.13,87.3,741.2z" />
<path class="cls-15" d="M863.36,692.27c-10.88,18-22.21,35.01-35.35,52.48C838.25,726.75,849.45,709.11,863.36,692.27z" />
<path class="cls-15" d="M812.08,771.38c0.04,3.12-3.03,4.12-3.26,0.87l13.33-18.77C820.61,760.35,814.95,764.44,812.08,771.38z" />
<path class="cls-15" d="M1083.86,708.76c1.05-4.73,4.81-8.28,8.12-11.8C1089.97,701.26,1088.47,705.28,1083.86,708.76z" />
<path class="cls-13" d="M231.52,260.22c13.67,11.86,26.34,23.27,34.3,40.67l10.38,22.68c1.82,3.99,4.52,4.15,7.62,4.33  c6.03,0.35,12.09,1.22,18.7,3.69c-33.95,26.01-49.21,28.57-92.95,18.27c16.94,12.82,39.61,21.44,59.91,17.03  c32.5-7.06,36.84-33.62,68.77-22.5l-38.6,22.44c-7.08,4.11-13.63,8.01-21.01,10.93c10.04,2.46,18.32-1.1,28.8-1.19  c-22.79,35.89-57.4,45.15-97.25,33.51c10.05,6.72,21.69,12.93,33.61,15.34c-11.46,10.22-14.18,8.55-26.52,22.21  c-4.33,4.79-10.85,6.52-16.89,4.15c-5.52-2.16-9.66-6.15-13.78-10.3c-17.01-17.11-26.15-1.53-44.06-16.09  c-1.17-12.31-3.36-24.61-11.43-34.41c-8.44-10.24-20.2-17.73-32.74-21.81c-9.68-3.15-19.01-1.1-28.29-0.63l-2.76-15.68  c-1.5-8.55-4.84-18.56-9.55-25.69c2.37,0.12,3.96-1.92,6.1-3.47c10.91-7.89,24.28-9.32,38.08-8.8c1.09-8.11,0.04-15.99,4.05-23.04  c15.32-26.91,51.52-33.9,75.85-13.63C193.46,250.47,210.79,258.52,231.52,260.22z" />
<path class="cls-15" d="M310.72,527.56c0.01,5.49,0.26,11.2-0.3,17.25c-22.91,21.34-42.25,4.68-62.85,17.62  c-6.53,4.1-11.44,9.53-17.27,14.56c6.55,0.6,10.97-2.64,17.43-0.73c-14.82,21.14-30.69,26.12-56.25,17.02  c17.89,16.37,41.24,17.46,60.79,3.09c10.83-7.95,22.81-10.81,36.2-7.28c2.25,0.59,4.79,1.26,4.71,3.76  c-9.41,20.71-19.5,41.47-30.25,62.28l-1.62,0.95c-1.56,0.63-3.3,0.88-5.55,0.89l-52.28,0.13c-2.1,0.01-3.66,2.37-3.67,3.76  c-0.04,5.5,10.88,0.43,13.83,3.21c3.55,3.34,4.72,8.53,6.02,12.52c-8.95-1.45-17.94-3.63-27.87-2.9l-5.99-17.2  c-10.16-29.17-47.48-39.39-76.1-25.98c-2.62-3.13-1.13-6.88-2.12-10.08c6.27-5.21,12.13-11.43,21.05-12.43l18.29-2.06  c-1.29-16.26,4.2-31.36,17.14-41.39c16.62-12.88,38.11-13.84,57.97-2.8c-0.69-20.2,11.24-36.59,29.48-41.8  c18.35-5.24,37.19,3.29,46.99,19.79C305.54,551.65,302.35,527.4,310.72,527.56z" />
<path class="cls-13" d="M463.5,390l2.16,2.31c-1.91,7.49-2.1,12.41,4.48,16.57c0.49,0.65,0.84,1.28,0.75,1.84  c-0.19,1.16-12.82,15.84-14.92,18.21c-0.44,0.5-0.98,0.79-1.66,0.84c-1.8,1.28-4.09,2.09-6.97,2.09l-58.45-0.07  c-2.28,0-2.38,4.34-1.24,5c5.31,3.07,11.75-3.12,15.63,6.6c1.15,2.88,3.4,7.72,0.98,10.53c-1.48,4.46-6.61,17.97-10.21,20.84  c-0.21,0.17-0.81-0.14-1.52-0.6c-6.43-0.55-12.31,7.25-17.16-0.61c-14.68-23.82-35.46-43.41-63.34-50.31  c-4.86-1.2-9.75-1.13-13.35-3.75c31.93-15.16,35.48-48.7,90.09-24.89c15.82,6.9,32.58,8.16,49.24,3.12L463.5,390z" />
<path class="cls-15" d="M332.04,639.04c0.86,4.15,28.57,6.03,37.89,3.89c0.94-2.54,2.02-2.37,2.31,0.3c3.35,3.27,0.85,6.13-7.5,8.6  c3.4,0.86,5.88,2.03,3.78,5.53l-49.77,0.04c-0.48-3.75-2.09-10.11,0.13-12.79L332.04,639.04z" />
<path class="cls-15" d="M385.79,487.39c2.24,0.31,2.23,2.24-0.04,5.8c-12.68,25.05-25.96,49.59-39.85,73.62  c-1.17,2.24-2.64,6.3-5.76,6.46l-14.99,0.78c-3.38,0.18-5.87,1.84-5.57,5.26c0.19,2.19,2.11,5.02,5.63,4.95  c5.52-0.1,11.54,1.64,16.58,1.11l4.19,2.5c4.01,6.12,16.31,26.97,17.58,32.76c0.37,1.68-0.22,3.36-0.9,4.87  c-7.44,3.13-14.07,8.77-22.23,11.12l-8.39,2.41c-0.64-3.1,1.77-6.05,0.61-9.6c-4.45-3-9.66-2.51-15.7-3.1l-0.6-100.56  c-2.69-0.52-4.06-0.29-5.35,0.3C320.1,498.41,358.29,480.98,385.79,487.39z" />
<path class="cls-4" d="M405.96,454.11l1.29,1.44c-2.55,8.61-6.47,16.98-11.77,25.11c-1.13,4.58-3.07,7.26-5.82,8.06  c0.88,0.6,2.11,1.69,1.78,2.36c-11.08,22.51-24.62,48.9-37.57,70.35c-1.55,4.47-3.98,6.56-7.27,6.29l-0.69-0.9l38.63-74.17  c1.01-1.94,1.09-3.78,1.26-5.24c2.66-4.2,6.37-8.15,6.75-13.24c5.91-4.35,6.47-14.13,11.73-20.25L405.96,454.11z" />
<path class="cls-10" d="M217.96,215.62c-0.93,5.5-6.19,9.2-11.46,12.18c-14.28,8.07-30.79,7.99-47.1,7.58  c-6.76-0.17-32.55,0.98-34.37-8.34c-0.81-4.16-2.33-7.89-4.68-11.01l28.36-1.17L217.96,215.62z" />
<path class="cls-7" d="M183.45,1235.25c-5.93-0.42-11.97-1.4-18.75-0.93c-11.44,0.8-22.51-1.32-31.76-6.82  c43.21-1.69,86.34-2.31,130.14-1.26C257.75,1229.56,182.61,1235.19,183.45,1235.25z" />
<path class="cls-16" d="M250.92,1302.02c-2.44,9.45-17.88-2.25-23.57-6.2c5.54-6.01,15.06-4.63,21.29-0.34  C251.09,1297.16,251.45,1299.96,250.92,1302.02z" />
<path class="cls-7" d="M116.73,1214.81c-0.55-2.03-1.27-4.04-1.43-6.14l50.89,1.08C149.85,1213.47,133.11,1212.74,116.73,1214.81z" />
<path class="cls-16" d="M304.14,1333.91c-1.15,3.34-6.64,2.6-9.08,0.82c-2.87-2.1-7.31-6.26-6.53-10.19c0.66-3.01,7.48-2.1,10.08-0.61  C301.4,1325.52,305.85,1328.94,304.14,1333.91z" />
<path class="cls-16" d="M24.23,1251.32c-3.74,5.85-16.42-1.5-15.07-7.63c0.98-4.48,7.4-2.95,9.7-1.52  C21.1,1243.57,26.85,1247.22,24.23,1251.32z" />
<path class="cls-16" d="M203.26,1295.39c-5.36,2.59-12.2-5.93-11.46-10.78c1.41-3.23,8.17-1.53,10.35,0.48  C204.2,1286.97,207.35,1293.41,203.26,1295.39z" />
<path class="cls-16" d="M84.26,1275.79c0,2.95-8.05,2.69-9.93,1.06c-2.44-2.1-4.71-6.01-5.25-9.51  C74.46,1264.31,84.17,1267.89,84.26,1275.79z" />
<path class="cls-9" d="M167.59,1072.94c-24.08-9.82-7.04-13.22-17.21-45.42l25.15,0.71l86.21,1.04c2.83,17.32,6.89,32.8,17.1,47.36  l-65.87-2.04C197.34,1073.8,182.48,1072.19,167.59,1072.94z" />
<path class="cls-16" d="M62.05,1076.06c-1.19,4.35-6.73,3.99-10.05,3.05c-2.69-0.77-6.47-2.89-6.5-7.59  C50.74,1069.45,58.61,1070.81,62.05,1076.06z" />
<path class="cls-12" d="M1119.64,1123.83c-0.88-0.02-1.78-0.15-2.64-0.3c-14.13-2.35-28.59-1.94-43.81-6.11  c9.68-4.91,19.37-4.19,29.07-4.09l36.12,0.36c9.34,0.09,18.21-0.98,27.46,1.73C1156.52,1121.7,1119.51,1113.43,1119.64,1123.83z" />
<path class="cls-8" d="M1123.62,1157.34c-22.91,8.88-64.27,4.68-86.47,0.49C1065.74,1155.04,1094.07,1152.35,1123.62,1157.34z" />
<path class="cls-11" d="M854.36,1143.49c13.63,0.01,27.25-1.26,42.29,2.23c-0.8,1.48-2.77,1.74-4.63,1.76l-40.27,0.54  c-2.63,0.04-5.9,0.63-7.89,0.91c-1.34-1.94-4.25-2.46-7.04-2.48l-24.08-0.25C813.75,1142.15,849.7,1143.48,854.36,1143.49z" />
<path class="cls-12" d="M870.56,1102.11c-2.82,1.71-2.63,4.29-4.4,7.43l-85.63-6.37c17.98-4.49,36.29-4.8,55.15-5.24l49.75-1.17  l151.03,1.7c1.25,0.01,2.5-0.32,2.76,0.26c0.18,0.41-1.2,2.13-1.76,2.13L870.56,1102.11z" />
<path class="cls-15" d="M1123.96,886.6c-10.62,21.62-21.12,43.07-23.99,67.76l-4.83,41.52c-5.25-2.86-2.52-6.97-3.53-10.17  c-2.29-0.81-2.17-4.37-0.05-5.36l-0.14-6.54c-1.6-4.94-1.9-10.35-0.89-16.23c-0.5-1.13,0.34-2.87-0.36-4.03  c-2.76-28.58-8.54-56.96-18.55-84.48c-3.07-8.43-7.26-15.58-9.54-23.55c5.28,2.61,9.22,6.65,9.96,13.33c2.6-0.9,3.25-5.56,4.91-3.69  c1.55,1.75,0.94,5.8,2.51,7.58c0.53,0.6,1.41,0.14,3.34,0.44c-0.94,4.92,4.3,4.4,5.78,6.24c2.22,2.78,2.44,6.38,8.56,8.27  c-7.63,5.39-13.38,10.26-13.56,19.82c5.58-4.1,9.92-8.49,17.81-8.31c-1.51,8.51-4.86,15.69-4.15,24.28  c3.68-5.72,6.99-12,12.28-16.38c1.15-0.95,3.87,0.43,5.23-2.09C1116.82,891.2,1120.4,888.15,1123.96,886.6z" />
<path class="cls-2" d="M1091.42,973.82c-4.16,4.78-3.04-20.78-0.89-16.23C1092.77,962.63,1091.3,968.38,1091.42,973.82z" />
<path class="cls-2" d="M1091.56,980.36c0.04,1.69-0.47,3.74,0.05,5.36c-2,0.41-2.8-0.18-2.86-1.99  C1088.66,981.32,1088.93,979.7,1091.56,980.36z" />
<path class="cls-16" d="M56.76,1138.9c-4.6,2.17-17.47-1.21-16.97-6.93c-0.48-7.28,19.46-5.34,20.36,1.9  C60.36,1135.55,59.81,1137.46,56.76,1138.9z" />
<path class="cls-4" d="M600.23,440.72c0.7,3.47,2.57,6.59,5.02,9.11c0.6,0.94,0.2,3.28,1.2,4.4c6.13,6.79,7.73,15.18,11.08,22.4  c-1.21,0-2.7-0.09-4.06-1.08l-22.62-16.32c3.05,7.2,7.58,12.37,9.52,21.35l-40.95-16.56c-0.74,8.46,1.71,16.66,1.91,27.35  c-11.71-7.69-20.12-18.33-31.56-28.16l0.7,25.34c-16.6-10.43-28.61-24.22-41.11-38.6c-0.48,9.21,2.6,16.51,5.18,26.46  c-10.81-3.9-19.2-11.11-29.61-16.44c-0.61,8.5-0.63,15.43-4.6,22.46c-9.63-10.81-18.38-21.97-29.93-30.23l-17.89-12.79l56.25-0.42  l45.59,0.62L600.23,440.72z" />
<path class="cls-15" d="M706.55,406.77l-39.67,60.75l37.34-61.03C704.22,403.21,708.57,404.06,706.55,406.77z" />
<path class="cls-13" d="M403.09,305.42c1.08-4.14-1.01-7.84-2.77-11.55c6.37-1.4,13.04,0.99,18.87,4.08  C414.18,302.95,408.37,303.65,403.09,305.42z" />
<path class="cls-15" d="M724.68,379.65c-5.2,2.68-4.14,9.29-9.64,11.36l28.93-44.53C739.61,358.36,730.85,367.62,724.68,379.65z" />
<path class="cls-3" d="M503.57,586.49c1.87,2.04,6.26,1.97,8.04,0.08l36.15,0.13c10.04,0.04,19.39,0.24,29.33,0.09  c2.25,0.29,4.49,4.76,5.54,6.61l20.96,36.96c1.34,2.36,0.29,4.8-1.11,6.19c-1.22,2.23-3.26,4.26-6.11,6.08  c0.99,9.83-2.3,16.97-9.89,21.43c-4.87,4.85-9.82,7.01-14.84,6.47c-1.66-1.25-2.55-3.19-3.78-4.83l-2.71-1.95  c-2.81-35.74-65.16-31.78-58.58,5.27c3.5,7.03,4.78,14.22,3.83,21.57c1.89,3.35,2.29,6.12,1.18,8.29c-1.1,1.63-1.07,3.64-1.15,5.54  c-0.18,1.65-0.58,3.33-1.74,4.56c-4.76,5.05-21.39,12.41-28.6,13.16c-12.09-6.25-18.15-5.35-18.19,2.72  c1.69,2.55,1.76,4.75,0.2,6.59c1.29,2.36-0.4,6.29,3.91,8.1c1.24,0.52,1.08,3.23,1.41,4.21c0.33,0.97-1.48,3.52-2.45,3.07  c-5.67-2.93-9.05-0.08-13.02,4.08c-4.96,5.2-14.44,4.69-19.85,9.58c-2.74,2.47-3.72,5.56-8.81,4.36c-1.52-0.36-3.87,2.32-4.22,3.6  c-1.33,4.82-5.15,2.74-7.92,3.55c-3.92,1.14-8.21,3.2-12.24,4.71c-3.3,1.23-5.87,7.5-10.4,5.28c-2.52-1.23-3.92-5.6-6.07-7.64  l-0.41-53.8c-0.12-16-0.72-31.29-5.73-46.38c5.73-2.21,10.26-2.53,16.14-3.3c-0.42-1.56-1.8-1.83-2.51-2.65  c-2.88-2.21-6.03-4.06-9.48-5.56c0.69,3.24-0.13,5.28-2.47,6.12c-1.91-0.28-4.17,0.59-6.65-0.2c-2.53-0.81-4.25-5.14-2.41-7.3  c1-1.18,2.83-1.32,2.15-2.94c-0.39-0.92-1.77-0.82-2.58-0.96c-1.89-3.74-7.36-2.75-12.03-5.08c2.41-2.95,16.01-3.68,15.76-9.05  l0.92-2.79c7.46-4.82,15.42-8.29,23.88-10.43l7.42-4.62c12.33-2.94,23.45-7.8,33.36-14.58l6.41-8.61c5.5-0.68,10.2-2.76,14.09-6.25  c7.97-2.93,15.89-5.83,23.78-8.67c3.27,2.65,4.96,2.94,5.07,0.88c4.59-0.59,9.16-1.15,13.72-1.66  C501.78,586.51,502.68,586.42,503.57,586.49z" />
<path class="cls-4" d="M597.72,737.96c2.28-4.27,7.63,1.01,3.68,3.84c0.43,1.83,1.16,3.55,3.01,5.16l25.11,21.81l92.45,74.92  c0.5-0.42,1.01-0.78,1.58-0.98c0.86-0.29,14.76,8.92,10.74,11.68c0.15,1.19-0.47,2.09-1.23,2.38c0.49-0.18-35.31,3.08-41.08,4.81  c15.76,4.1,30.15,9.94,43.6,19c-3.5,2.55-15.93-1.38-13.74,3.24c-2.88,3.5-5.91,3.19-7.98-0.85c-19.31-3.16-38.82-2.42-59.06,2.36  c-5.18-37.01-33.48-95.21-53.46-126c-6.58-10.15-14.59-18.39-21.05-30.09C585.44,727.19,587.27,735.43,597.72,737.96z" />
<path class="cls-15" d="M495.58,1028.47c0.63,0.5,0.52,0.96-0.24,1.36l-0.14,2.92l-20.52,7.9c-1.28,3.18-1.47,6.64-0.56,10.37  l-2.36,2.05c0.26,1.34-0.72,2.69-1.7,3.47c-5.4,4.28-10.36,37.97-36.05,41.64c-0.52-3.95,1.37-7.6,2.35-12.02L459.1,983.2  c4.83-21.85,7.31-42.97,13.47-64.32c7.57-2.91,14.96-3.99,22.97-3.9L495.58,1028.47z" />
<path class="cls-15" d="M721.84,883.82c15.53,0.99,30.75,4.78,46.39,8.62c11.03,2.7,20.48,7.4,28.37,15.21l-41.25,31.19  c-17.67,13.36-33.86,27.85-52.74,39.41c-6.92,4.24-16.08,2.6-24.07,5.13l13.48-31.98c9.45-22.43,17.1-45.07,21.83-68.42  C716.5,883.4,719.17,883.65,721.84,883.82z" />
<path class="cls-15" d="M396.43,490.35c4.19,4.08,9.81,6.39,14.77,10.1c1.23,1.46,0.58,4.42,1.92,5.3c6.26-5.48,13.74-9.24,21.98-5.71  c-9.71,9.93-25.72,11.14-35.14,18.19c2.79,1.49,6.02,0.75,8.28,2.8c-1.59,12.42-8.38,21.75-13.17,34.56  c23.03-11.55,44.86-22.07,69.56-27.44c1.07-0.23,1.12,2.12,1.04,2.5c-4.9,14.81-10.44,29.92-17,43.97l-103.63-0.57  c0.58-2.79,0.79-5.22,1.56-6.35c2.98-3.63,5.04-7.81,7.53-12.47l35.53-66.52C391.47,485.4,396.19,486.7,396.43,490.35z" />
<path class="cls-4" d="M719.41,769.04l6.05,1.84c12.92,10.18,26.05,19.97,39.39,29.37l1.47,3.07c6.39,2.15,26.65,15.9,29.08,21.25  l-1.23,2.95c-1.9,3.23-29.57-5.32-33.84,7.26c-2.63,7.76,3.17,10.02,2.95,15.32l-2.3,3.17c-3.46,1.58-18.41,6.24-20.63,4.78  c-5.11-3.37-16.83-26.05-18.56-33.07c-18.15-31.51-37.35-63.03-63.23-89.35l-35.82-36.43c13.58,5.72,22.97,15.86,34.37,24.53  l55.41,42.14C714.87,767.65,716.7,769.58,719.41,769.04z" />
<path class="cls-4" d="M285.94,842.17l-1.29,27.01c-12.11-5.72-21.5-14.91-30.45-25.32l-7.24,35.51c-6.09-8.56-16.25-25.95-16.5-36.33  l-8.12,21.62c-14.51-18.09-32.71-26.68-52.94-35.13c30.8-1.12,58.61-1.27,87.75-1.06l64.22,0.46c9.2,0.07,17.49-0.98,27.16-0.18  c5.51,16.23,0.7,31.5-7.16,47.03l-21.01-32.86l-10.9,33.69C300.26,865.66,293.54,854.66,285.94,842.17z" />
<path class="cls-15" d="M547.46,914.98c3.18,2.16,6.18,8.9,2.89,11.81l9.63,39.98l10.78,41.27c0.02,1.09-0.02,2.74-0.79,3  c-13.12,4.42-32.56,10.21-45.92,12.74c-3.82,1.93-6.62,1.78-8.39-0.45c-1.87-1.74,0.37-4.17,0.36-6.82l-0.43-93.32  c-0.01-2.77-3.71-9.43,0.68-10.62c9.14-2.48,19.98-2.73,28.96-2.36C546.13,912.21,545.78,914.78,547.46,914.98z" />
<path class="cls-4" d="M500.89,586.49c-5.75,4.83-9.59-2.97-12.96,6.04c-0.55,1.49-3.71,1.31-4.1-0.09c-0.3-1.04-0.75-2.02-1.76-4.19  c-10.41,10.84-12.69,1.09-27.45,13.88c-2.15,1.86-5.81,0.6-8.81,2.1c-3.21,5.27-7.97,12.39-14.57,14.12  c-6.18,1.62-10.65,4.69-16.32,7.01c-3.78,1.54-8.64,1.04-11.96,4.16c-4.7,4.41-11.25,3.96-16.51,6.52  c-4.86,2.36-8.41,6.89-14.22,7.2c-0.73,0.04-1.61-0.46-2.31-0.3c-1.68-6.08-5.07-11.65-7.27-17.42  c-5.38-14.12-14.51-26.43-20.87-40.14c12.59-1.32,25.07-0.29,38.68-0.14L500.89,586.49z" />
<path class="cls-15" d="M612.31,963.33l-0.25-1.4c8.24-13.61,15.79-27.51,22.65-41.7c18.17,0.44,54.02,24.88,51.27,37.26  c-2.25,10.12-8.33,18.71-13.08,27.35c-16.03,3.34-30.98,5.87-46.24,10.12c-4.86,1.35-6.25-2.95-9.25-3.29  c-7.7-0.87-15.75,2.86-23.54,0.63l-8.56-26.46l19.92-0.29l9.74,25.5C622.72,989.15,605.36,971.94,612.31,963.33z" />
<path class="cls-15" d="M281.92,996.62c2.66-2.14,10.68-0.37,11.65-4.86c0.33-1.55-1.02-2.73-3.04-2.96  c-18.9-2.08-28.16-5.96-48.72-5.53c1.54-18.16,7.74-34.22,13.84-51.47c3.68,0.77,3.05,4.24,4.91,7.27  c7.6-7.01,12.71-17.14,23.9-19.69l-15.55,33.21c12.64-4.13,23.87-8.15,36.89-8.86l-0.46,76.98c-7.74,0.77-14.86,0.31-22.76-0.05  L281.92,996.62z" />
<path class="cls-16" d="M567.88,665.71c-0.1,5.23-3.03,9.27-0.7,15.18c1.37,3.48,0.97,10.31-1.64,13.15c-2.42,2.63-6.62,0.91-9.37,2.55  c0.04,5.64,2.66,11.03,1.88,17.08c-0.27,2.12-4.71,1.29-5.65-0.22c-1.76-2.83-1.53-5.9-4.37-7.97l-1.11,10.31  c-0.16,1.53-3.5,1.1-4.35,0.11c-1.77-2.09-0.87-7.29-2.84-7.91c-3.75-1.18,0.42,11.38-5.29,8.56l-3.51-8.15  c-1.98,3.19-1.02,6.17-2.78,8.52c-0.91,1.21-3.21,0.85-3.89-0.29c-0.43-0.72-1.09-1.83-1.16-3.22l-0.64-13.13  c-4.07-0.67-7.57-0.48-10.86-1.39c-8.19-10.3-0.06-12.27-5.25-22.66c-4.6-9.22-4.5-21.2,2.85-29.09  c10.02-10.76,25.35-13.17,39.13-8.65C560.38,642.44,568.11,653.42,567.88,665.71z" />
<path class="cls-15" d="M763.28,850.09c17.51-2.9,35.41-1.25,53.05,3.41c11.67,2.83,22.52,6.45,32.64,14.24l-49.46,37.83l-65.22-51.19  c-1.79-1.4-2.91-4.39-6.02-5.17c-3.26-0.82-4.41-4-6.29-5.53c0.85-6.2-0.09-12.46-0.18-18.7c5.99,10.39,14.6,19.83,18.92,32.26  C748.78,854.22,755.5,851.39,763.28,850.09z" />
<path class="cls-3" d="M628.14,590.46c-0.35,1.34,0.82,2.01,1.22,3.02c8.93,22.55,16.84,25.39,28.43,45.36l-4.71,5.43  c1.4,5.12,6.76,6.53,7.59,13.33c-7.87-3.18-17.24-6.41-25.52-4.78c-1.21,3.56-0.75,9.01-6.12,10.61l-35.12-55.67  c-4.33-6.86-6.91-13.63-11.91-21.16c13.39,0.45,24.46,0.89,36.82,0.22C622.86,586.59,625.89,587.76,628.14,590.46z" />
<path class="cls-3" d="M654.77,587.7c2.07,9.72,15.08,20.82,19.23,33.88c0.67,2.11,0.27,7.94-1.93,8.38  c-4.32,0.86-9.16,1.89-13.14,2.09l-6.79-7.7c-8.77-9.94-13.66-22.4-22.78-30.87c-0.11-1.08-0.51-2.16-1.22-3.02  c0.24-0.94-0.32-1.94,0.19-3.51C637.6,586.77,646.32,585.87,654.77,587.7z" />
<path class="cls-15" d="M348.02,957.86c3.76-0.8,4.81,5.77,3.01,7.72c-0.08,6.67,1.98,10.79,6.16,12.35c3.91-0.68,6.6-0.25,8.06,1.29  c0.78,4.16,2.94,8.07,2.5,12.75c-1.83,0.92-3.63,0.31-4.89,2.1c1.77,1.37,5.43,0.25,6.54,2.25c2.29,4.1,2.91,8.72,2.99,13.16  c-3.94,0.55-6.98-0.02-11.22-0.34c-1.14,2.15,0.43,3.55,0.73,5.03c1.87,0.77,2.42,5.04,0.97,6.4l-41.34,0.73l-0.26-79.05  c5.9-0.81,11.04-0.68,16.37,0.28l-9.97,20.52C335.4,961.59,341.28,958.12,348.02,957.86z" />
<path class="cls-16" d="M519.05,375.09c-0.2-1.25,0.41-6.09-1.08-6.4c-48.7-13.52-11.96-8.37-57.17,0.3l0.38,6.23  c0.09,1.52-2.35,4.9-4.33,3.85c-3.43-1.8-5.34-3.23-9.44-2.1c-1.33,0.36-2.36-2.75-1.61-3.89c2.78-4.22,5.07-3.7,5.68-5.5  c0.95-2.79-5.36-4.21-5.33-8c0.02-2.77,2.35-4.01,4.63-4.32c6.56-0.92,4.06,8.59,9.68,7.46c7.22-1.45,13.72-3.17,20.72-5.96  c-29.11-16.46-46.68-35.73-45.14-68.95c8.74,28.82,28.11,56.43,58.12,63.81c27.75-15.66,36.48-33.15,49.35-59.76  c-0.1,28.01-17.06,50.52-40.35,63.14c7.67,2.88,19.48,9.71,23.24,2.48c1.25-2.4,3.23-3.49,5.76-2.17c4.72,2.46-1.57,8.75-1.57,9.78  c0,2.77,4.95,3.1,5.67,6.85c0.24,1.24-0.21,3.06-1.65,3.55c-2.7,0.94-6.17-3.59-7.2-3.09c-2.47,1.2-1.85,5.15-4.65,5.8  C521.27,378.53,519.51,377.91,519.05,375.09z" />
<path class="cls-12" d="M368.37,806.92c8.19,2.65,7.89,10.25,0.04,12.58l-47.86,0.3c-0.46-6.1-0.43-11.43,0.11-17.29  c8.94-1.74,26.88-8.97,20.64-19.66c-2.82-1.79-7.16,0.12-10.55-1.33c-0.61-5.04-0.66-9.75,0.13-15.81  c10.09,0.51,52.19,6.97,51.17,18.49c-0.7,7.96-20.88,10.53-28.93,19.07L368.37,806.92z" />
<path class="cls-15" d="M633.4,920.2c-5.11,14.53-13.44,30.25-22.73,42.78c-5.43,1.1-5.27-10.54-9.33-13.43  c-1.26-0.93-1.7-2.72-1.34-5.36l-1.34,1.34c1.94,0.54,1.92,3.61,1.34,5.36c1.15,3.03,3.91,5.24,3.76,9.85  c-6.32,0.89-12.85,1.29-19.83,0.62l-8.18-26.71l18.15-0.53c2.11,3.15,1.83,6.61,4.41,8.78c0.85-3.55-0.37-10.79-3.58-12l-20.03-0.84  c-2.25-3.15-3.07-9.3-4.06-12.77c0.08-0.67,0.21-1.3,0.53-1.82c0.6-0.96,12.32-2.31,14.62-2.01c0.95-0.32,1.72-0.53,1.86-0.32  c1.62,2.5,3.8,8.18,3.83,10.89c0.93,1.19,1.46,1.18,1.58-0.04c-1.36-0.73-5.72-10.71-5.28-11.16c0.44-0.44,1.06-0.72,1.72-0.94  C596.77,912.39,629.48,914.99,633.4,920.2z" />
<path class="cls-12" d="M781.83,803.49c-2.01,4.94-11.42,1.89-15.5-0.17c-16.25-10.4-32.84-21.19-46.92-34.28  c-0.75-18.29-6.52-37.66-7.96-55.23l60.13,76.15C775.38,794.77,779.69,798.36,781.83,803.49z" />
<path class="cls-15" d="M303.66,654.61c-0.09,1.49-1.49,2.36-2.71,2.52l-31.73,0.05c-2.27,0-4.08-0.46-5.57-1.24  c-0.45-0.37-0.79-0.69-0.73-0.82c9.97-20.8,20.66-42.28,31.68-62.15c2.3-3.69,13.35-1.25,14.37,2.7c2.54,9.87,0.07,20.65,0.62,30.26  c-5.83,1.49-13.04-1.19-16.92,3.02c-3.4,3.68,1.82,11.01,5.55,12.75C304.02,644.43,302.94,649.72,303.66,654.61z" />
<path class="cls-15" d="M550.93,544.96c0.35-0.62,0.74-1.15,1.27-1.41c2.18-1.06,15.76,23.49,17.19,26.69c0.74,1.37,1.22,3.54,2,5.73  l-20.77-0.12c-1.28-3.29,1.22-6.02-1.47-8.88c-2.8,2.83-0.77,5.59-1.75,8.65l-32.91-0.2c-1.29-4.61-1.45-9.05-0.78-13.51  c8.45-1.57,16.8-3.11,22.92-9.03c4.49-4.33,5.45-11.8-0.02-15.15c-7.5-4.6-15.94-5.07-24.61-5.05c-0.81-3.49-0.54-6.4,0.3-9.99  c12.07,0.71,24.13,0.97,36.18,4.22c-0.1,12.53-2.12,24,0.21,36.75C552.64,557.03,551.03,550.83,550.93,544.96z" />
<path class="cls-9" d="M570.75,1008.05c0.98,3.74,4.86,10.7-1.37,14.28c-28.07,9.91-55.84,16.4-83.95,26.92  c-4.72,1.77-9.11,3.27-13.67,3.82c-0.75-3.88-2.09-13.37,2.17-15l21.42-8.23c0.55-0.61,1.09-0.61,1.63,0  c6.27-2.18,13.54-2.18,18.67-6.5L570.75,1008.05z" />
<path class="cls-15" d="M382.87,986.97c0.37-1.39,0.4-2.93-0.76-3.94l-4.09-5.73c0.8-5.41-1.05-10.58-5.54-15.5  c0.61-1.75,0.86-3.63,0.76-5.64c-4.99-10.42,29.88,4.75,35.68,5.89l-13.32,37.71c6.34-3.66,3.93-11.79,8.99-15.3  c3.3-2.29,8.67-1.09,13.19-1.21l-8.93,29.33l-15.49,0.66c-0.25-2.78,0.79-3.9,1.13-6.64c-1.63-0.69-2.67,0.46-4.72,0.37  C389.02,1003.15,385.37,987.76,382.87,986.97z" />
<path class="cls-15" d="M380.26,983.04c0.07,1.84,0.81,3.37,2.62,3.94c-0.39,1.47-0.44,2.78-0.68,5.24c-2.61,0.3-7.89,1.85-9.96-0.76  c-2.9-3.66-3.3-8.56-3.55-12.41c1.29-0.73,8.9-2.31,10.04-2.21C379.28,976.88,381.92,982.08,380.26,983.04z" />
<path class="cls-12" d="M541.11,431.25c-2.87-3.04-3.78-3.02-2.72,0.08c-9.4,1.6-18.14,1.12-28.05,0.88l0.41-33.16  c0.06-4.62,1.19-8.14-0.97-13.81c14.55,3.36,27.05,6.78,38.26,14.97l-0.66,32.08C545,433.07,543.01,431.81,541.11,431.25z" />
<path class="cls-12" d="M262.54,818.52c0.08-4.68,1.82-9.2,3.22-14.15l10.13-35.77c6.25-2.09,12.85-3.12,19.96-3.43  c0.41,5.71-0.47,10.72-2.21,16l-9.12,1.13c-2.37,5.74-0.62,12.58,4.71,14.71l15.53,6.22c2.6,3.85,0.42,11.13,0.64,15.91l-18.96,0.34  c-1.38-1.72-0.41-3.91-1.87-5.25c-1.35,1.79-0.87,3.11-1.43,4.02C281.71,820.56,265.7,819.83,262.54,818.52z" />
<path class="cls-15" d="M807.36,984.19c-1.72-0.01-3.52,0.28-5.15,0.76c-5.77,1.71,2.62,32.83-32.41,42.14  c-0.12-2.1,0.49-4.27,1.36-6.71l14.84-41.81c4.37-12.32,9.63-24.94,7.88-38.44c-0.47-3.65-7.73-2.76-9.87-3.73  c3.44-3.37,6.79-6.67,11.82-8.93L807.36,984.19z" />
<path class="cls-16" d="M495.66,341.99c-1.21,1.03-2.25-1.18-2.94-1.42c-1.6-0.55-2.06,1.8-3.14,3.07c-0.96-1.11-1.42-3.11-2.8-3.49  c-1.69-0.46-2.53,1.04-5.38,2.28c1.63-4.71-4.28-6.01-5.01-8.41c-2.17-7.15-4.92-15.51-4.36-23.18c0.68-9.33,10.8-14.29,18.69-13.75  c8.08,0.55,16.93,5.94,17.34,15.16c0.95,21.23-4.8,17.57-5.48,26.94c-0.09,1.27-4.55,1.27-3.55,3.71  C498.59,338.47,497.33,337.55,495.66,341.99z" />
<path class="cls-15" d="M451.34,574.67l-0.53-2.72c0,0,5.49-13.79,16.48-41.36c0.6-1.81,1.79-3.5,4.36-3.91  c9.18-1.45,17.78-3.23,26.79-3.66c0.76,3.45,1.17,6.83-0.13,9.68c-8.54,0.95-26.19,1.86-28.71,10.09  c-3.5,11.43,18.31,19.12,27.65,19.58c0.67,4.7,1.15,8.62-0.2,12.93C481.15,575.24,466.23,575.58,451.34,574.67z" />
<path class="cls-12" d="M456.58,429.88c-0.43-0.27-0.77-0.53-0.76-0.77c0.15-2.8,32.01-37.51,36.9-42.1c1.66-0.73,4.76-2.77,6.99-1.23  l0.12,46.42l-37.92-0.51C459.62,431.65,457.71,431.22,456.58,429.88z" />
<path class="cls-16" d="M601.4,741.8c-0.4-1.71-2-3.43-3.68-3.84c-1.19-3.62,0.02-10.13-3.35-13.19c-6.17-7.27-32.28-12.7-32.27-19.69  c0-1.53-0.05-5.13,3.06-4.42c11.21,2.55,21.28,7.55,31.94,10.97c10.35,3.32,14.37-12,23.54-4.4c2.93,2.42,5.25,7.99,2.05,11.76  c-2.91,3.43-7.09,3.53-11.62,5.52c5.37,3.88,4.24,13.57-0.31,16.58C608.31,742.73,604.66,742.52,601.4,741.8z" />
<path class="cls-16" d="M462.11,731.47c-2.01-3.68-4.56-7.98-2.37-11.64c6.54-10.9,18.92,1.68,23.49-0.32  c9.87-4.31,19.24-9.01,27.21-15.08c1.4-1.07,5.11-0.92,6.48-0.02c1.6,1.06,1.92,5.26,0.03,6.62c-9.25,6.68-19.16,11.82-27.56,19.63  c-2.72,2.53,2.71,17.28-8.11,18.73C467.71,751.25,476.15,734.57,462.11,731.47z" />
<path class="cls-15" d="M411.05,1015.74l17.67-0.79c0.39,5.59-2.72,9.07-1.69,14.47c3.99-4.45,3.27-9.63,6.22-14.14  c4.85-1.78,9.98-1.68,15.61-2.46l-6.22,27.51l-40.8,2.48L411.05,1015.74z" />
<path class="cls-16" d="M602.49,636.56c7.35,7,7.33,5.61,5.33,16.89c4.83-1.09,9.38-0.74,11.78,2.62c2.4,3.35,1.91,8.24-0.77,11.52  c-2.4,2.93-7.34,3.36-11.23,1.21c-12.88-7.1-21.85,9.41-33.85,11.84c-3.71,0.75-3.91-7.69-2.09-10.09  c6.97-4.03,13.92-8.5,20.1-14.47c3.48-3.36-0.98-12.52,3.74-16.59C597.03,638.15,600.08,636.92,602.49,636.56z" />
<path class="cls-15" d="M810.83,978.01c-3.74-4.8-3.26-10.51-4.66-16.07c-3.17-12.56-6.27-24.57-7.98-37.52l20.6-15.67  c0.5,6.75-0.95,12.8-1.77,19.43L810.83,978.01z" />
<path class="cls-15" d="M590.46,992.27c-6.6,2.86-12.46,1.02-19.25,2.61l-8.15-28.14l18.34-0.99L590.46,992.27z" />
<path class="cls-15" d="M430.96,1010.16c-6.66,1.48-12.47,1.88-18.56,1.65l8.93-29.27c5.55-1.28,10.74-1.99,16.8-0.67L430.96,1010.16z" />
<path class="cls-15" d="M580.54,961.14c-6.75,2.04-12.63,1.72-18.45,0.66l-6.98-26.96c6.34-1.05,11.05-0.68,17-0.08L580.54,961.14z" />
<path class="cls-13" d="M396.43,490.35c-2.34-0.17-4.55-0.95-6.78-1.63c1.31-8.78,12.98-24.03,16.31-34.61  c0.3-1.09,1.75-1.31,2.19-0.09c3.29,10.06,5.6,20.08,4.65,30.68C407.11,487.4,401.65,488.74,396.43,490.35z" />
<path class="cls-15" d="M413.42,1068.81c-2.67,2.15-10.64,2.73-13.64,1.31c-5.3-4.89-4.11-18.42,2.26-22.25  c5.73-3.44,13.47-0.76,19.43-1.76C419.14,1053.91,417.16,1061.78,413.42,1068.81z" />
<path class="cls-15" d="M417.6,1069.39l7.89-22.67c5.45-1.65,10.67-1.85,16.15-2.73c-0.57,9.26-2.35,16.67-5.14,24.57  C429.98,1069.68,424.26,1069.76,417.6,1069.39z" />
<path class="cls-15" d="M457.77,973.02c-1.09,3.85-9.59,4.65-11.2,2.02c-0.27-8.09,2.62-17.65,3.44-25.57  c0.38-3.68,1.66-8.18,5.45-8.78c2.78-0.44,5.71,1,8.74,1.74C462.08,953.04,460.84,962.21,457.77,973.02z" />
<path class="cls-15" d="M450.15,1009.33c-5.93,1.25-10.59,0.97-16.15,0.02l6.11-22.45c3.45-0.95,5.13-2.96,6.19-6.29  c2.06-1.07,9.17-1.86,9.23,0.66C455.76,991.12,452.11,999.56,450.15,1009.33z" />
<path class="cls-13" d="M550.35,926.79c-0.91-4.23-3.87-7.99-2.89-11.81c0.63-2.44,1.3-3.63,1.83-5.06l15.21,0.26l6.34,19.79  C554.32,930.14,558.77,933.06,550.35,926.79z" />
<path class="cls-12" d="M490.2,387.13c-5.09,7.78-11.07,15.09-17.95,21.91l-2.11-0.17c-3.5,0.67-6.93-0.66-7.78-4.83  c-1.03-5.05-0.06-9.63,1.14-14.04C467.15,388.89,486.53,381.24,490.2,387.13z" />
<path class="cls-4" d="M387.06,894.15c8.48-7.05,33.58-28.01,43.76-28.46c-3.18,7.11-7.12,13.26-12.55,18.57  C409.06,889.65,399.44,893.82,387.06,894.15z" />
<path class="cls-4" d="M360.38,953.77l3.01,0.84c0.25,6.3,5.04,6.78,7.84,1.57c0.67,0.05,1.34,0.06,2-0.01  c3.18,8.87,7.23,17.6,8.87,26.87h-1.86c-0.1-2.62-2.06-4.42-5.32-4.04c-2.43,0.28-4.44,0.14-6.25,0.04l-0.17-2.56  c0.31-2.38,2.02-3.21,5.14-2.5c2.34-5.55-7.5-11.03-4.82-3.04l-2.09,2.62l-1.68,0.27c-1.39,0.31-1.25,1.11-0.02,2.25  c0.14,1.02,0.04,2.12,0.23,3.13l-9.74,0.1c-0.84,2.58,1.05,4.93-1.59,6.83l-5.91-28.29c1.57-0.06,3.25-2.87,4.97-0.74  c0.34-3.2,1.14-4.42,2.41-1.64L360.38,953.77z" />
<path class="cls-15" d="M781.83,803.49c9.82,9.78,18.62,20.89,27.25,31.75c0.78,0.51-16.99-10.67-14.9-7.72  c-4.88-8.14-20.81-15.75-27.85-24.2C771.41,802.04,776.62,803.66,781.83,803.49z" />
<path class="cls-15" d="M430.34,1092.96c-6.32-0.38-10.9-2.07-16.09-4.57c-0.48-4.08-0.45-11.01,2.65-13.52  c6.12-1.93,12.59-1.06,18.88-1.78C434.76,1080.85,433.11,1086.05,430.34,1092.96z" />
<path class="cls-15" d="M274.64,1019.51c-3.73,1.53-7.3,1.57-11.46,0.2c-0.71-7.6-2.58-16.73-1.14-24.14  c1.94-2.24,10.63-1.93,11.54,1.04C275.65,1003.9,273.81,1011.69,274.64,1019.51z" />
<path class="cls-15" d="M212.97,1019.82c-4.83,1.4-8.39,1.07-12.52-0.16c-0.58-7.46-0.61-14.08-0.41-22.06  c2.63-2.19,9.84-3.01,11.54,1.11C214.21,1005.07,212.01,1012.18,212.97,1019.82z" />
<path class="cls-15" d="M254.68,1019.92c-4.97,1.16-8.53,1.27-13.11-0.04l-0.74-23.07c1.12-2.84,9.34-2.33,10.6,0.77  C254.28,1004.6,253.4,1011.68,254.68,1019.92z" />
<path class="cls-15" d="M232.86,1019.88c-3.96,1.39-7.41,1.31-11.16,0.04c-0.01-7.47-0.93-14.47-0.48-22.18  c0.16-2.7,4.7-2.19,6.43-1.89C235.11,997.16,232.44,1011.49,232.86,1019.88z" />
<path class="cls-13" d="M399.89,1040.09c-0.61,1.65-6.07,0.2-6.86-1.52c-4.27-9.21,2.01-8.29-1.96-20.83c5.38-1.3,10.4-1.5,16.13-0.91  C404.87,1024.55,403.01,1031.71,399.89,1040.09z" />
<path class="cls-15" d="M192.18,1019.31c-0.51,2.67-9.07,2.67-9.9,0.06c-2.2-6.88-1.17-14.08-2.44-21.22  c3.88-1.09,6.99-1.53,11.19-0.52C192.52,1004.04,193.51,1012.37,192.18,1019.31z" />
<path class="cls-15" d="M464.78,936.37c-1.88,3.31-9.35,1.23-12.66,1.05c0.67-5.03-0.75-11.22,1.81-15.05  c3.69-3.32,10.58-2.76,15.63-3.61C468.55,924.64,468.12,930.47,464.78,936.37z" />
<path class="cls-15" d="M171.54,1019.35c-0.42,2.07-7.57,2.22-8.33,0.25c-2.54-6.59-2.26-14.33-2.45-21.16  c3.96-0.73,6.74-0.87,10.85-0.27C172.12,1004.69,173.01,1012.13,171.54,1019.35z" />
<path class="cls-13" d="M368.41,819.5c-0.03-2.22,2.66-3.47,3.48-5.77c1.02-2.82-2.53-4.74-3.52-6.82c3.65,0.88,6.97,1.2,10.92,3.25  c6.37,3.3,13.91,2.64,20.4,6.71c-3.49,7.94-14.66,3.31-21.98,2.6c-1.13-3.17,1.35-5.94-0.51-8.23c-2.07,2.9-0.45,5.87-2.29,7.5  C373.14,820.29,370.51,819.79,368.41,819.5z" />
<path class="cls-15" d="M402.14,375.3c-15.76,7.33-26.92-1.14-40.64-9.2C370.54,362.52,391.72,370.75,402.14,375.3z" />
<path class="cls-4" d="M294.6,592.98l-30.95,62.97c-0.56-0.14-1.79-0.08-2.35,0.14l31.87-63.23  C293.65,592.71,294.15,592.75,294.6,592.98z" />
<path class="cls-15" d="M238.64,981.72c-2.04,3.36-7.39,2.29-10.74,2.12c0.45-4.91,2-9.27,3.95-13.94c2.92-1.33,5.38-2.12,9.53-1.41  C240.92,972.68,241.22,977.45,238.64,981.72z" />
<path class="cls-15" d="M377.26,1008.81c-3.24-2.93-2.65-9.18-3.74-13.02l9.2-1.31c2.95,4.61,4.37,9.47,5.32,14.67  C384.91,1008.76,380.33,1010.97,377.26,1008.81z" />
<path class="cls-5" d="M492.73,387l-36.15,42.87c-0.75-0.08-1.51-0.12-2.26-0.12c3.18-7.06,13.63-15.02,15.82-20.89  c7.72-6.13,13.16-14.67,20.05-21.74L492.73,387z" />
<path class="cls-15" d="M419.44,978.5c-4.78,0.99-8.21,1.04-12.44,0.44c0.71-5.15,2.2-9.5,4.69-14.6c3.3,0.36,7.65,1.52,9.49,4.57  C422.85,971.68,420.75,975.45,419.44,978.5z" />
<path class="cls-12" d="M307.04,780.84c-2.99,1.52-6.19,0.88-9.74,0.54c-0.16-5.47,0.52-10.55,1.73-16.08c3.08-0.96,5.72-1.12,8.28-0.3  L307.04,780.84z" />
<path class="cls-3" d="M634.72,920.23c-3.9,12.84-14.73,33.62-22.4,43.1c-0.52,0.03-1.14-0.45-1.65-0.35  c1.02-4.04,3.85-7.52,6.05-11.62l16.69-31.16L634.72,920.23z" />
<path class="cls-15" d="M591.66,998.48c6.92,3.95-13.88,8.22-16,8.19c-2.76,0.05-3.6-6.09-3.5-8.54l15.97-0.52  C589.46,997.57,590.98,998.1,591.66,998.48z" />
<path class="cls-11" d="M328.11,780.61c-0.1,1.87-6.25,1.91-7.75,0.61c-1.53-4.57-0.23-10.89-0.07-16.2c3.26-0.46,5.83,0.01,8.6,1.29  L328.11,780.61z" />
<path class="cls-15" d="M224.35,983.09c-2.4,2.52-7.04,2.08-9.45,0.49c2.43-4.31,2.28-8.37,4.53-11.16c1.57-1.94,5.62-1.08,8.36-1.3  C227.35,975.24,227.49,979.79,224.35,983.09z" />
<path class="cls-6" d="M467.29,530.59c-4.93,14.84-11.98,29-15.95,44.08c-0.89-0.05-1.79-0.03-2.68-0.04  c4.71-14.95,10.43-29.77,17-43.97C466.21,530.67,466.75,530.64,467.29,530.59z" />
<path class="cls-15" d="M365.06,973.83c0.01,0.75-0.12,1.51-0.02,2.25c-2.92-0.05-7.67,1.77-10.2-0.66c-2.44-2.34-1.5-6.54-2.47-10.22  c2.54-0.87,7.18-2,9.26,0.54C363.61,968.19,362.62,972.14,365.06,973.83z" />
<path class="cls-4" d="M570.13,569.42c-0.6-0.12-0.85,0.26-0.75,0.82c-4.91-4.1-12.62-23.53-18.46-25.28l-0.12-6.77  C552.58,537.05,571.51,571.15,570.13,569.42z" />
<path class="cls-15" d="M368.51,976.48c-0.75-0.83-1.52-1.79-1.78-2.92c-0.56-2.47-1.47-4.61-1.62-8.6c2.49-0.52,6.24-1.21,8.36,0.67  c2.93,2.61,3.55,6.8,4.3,10.62C373.91,977.05,371.33,976.4,368.51,976.48z" />
<path class="cls-16" d="M732.46,973.63l36.28-26.81C759.06,958.41,746.76,968.81,732.46,973.63z" />
<path class="cls-15" d="M371.24,956.18c0.49,1.57,1.25,2.99,1.12,5.52c-2.96,0.26-6.48,1.35-9.04-0.43c-2.32-1.62-2.12-5.36-2.94-7.49  c1.35-2.46,4.24-2.29,7.06-2.26C369.81,951.54,370.53,953.94,371.24,956.18z" />
<path class="cls-15" d="M389.95,668.21c-3.94,0.74-7.96,1.13-11.94,0.56c0.13-2.63-0.71-5.05-0.04-9.1  C382.95,659.72,390.25,662.81,389.95,668.21z" />
<path class="cls-15" d="M245.08,955.52c-0.82,3.77-1.45,7.29-3.19,8.8c-1.71,1.49-7.08,2.75-8.47,1.19c-1.14-2.81,0.36-6.9,2.77-8.08  C238.7,956.21,242.13,954.57,245.08,955.52z" />
<path class="cls-13" d="M585.45,911.01c2.22,0.84,2.83,1.76,0.36,2.47c-3.47,4.43-9.89,3.51-15.16,3.82  c-0.48-1.68-3.77-5.18-1.53-6.54C574.78,909.43,580.45,911.02,585.45,911.01z" />
<path class="cls-3" d="M541.11,431.25c-1.43-0.19-2.19,0.22-2.72,0.08c-5.85-9.82-15.21-17.05-19.91-28.85  C527.1,411.52,534.18,421.45,541.11,431.25z" />
<path class="cls-15" d="M412.16,1074.25c-0.33,4.41-0.35,8.01-1.97,12.03c-4.43-3.45-7.3-6.27-9.96-11.38  C404.13,1073.27,407.76,1073.95,412.16,1074.25z" />
<path class="cls-15" d="M365.43,1020.57c-2.55-0.72-2.96-6.11-1.16-8.08c2.45-0.29,4.95-0.81,7.99-0.36c2.59,0.38,5.59,5.44,3.39,7.77  C373.24,1022.45,368.09,1020.27,365.43,1020.57z" />
<path class="cls-3" d="M589.53,911.92c0.14,4.31,2.86,7.89,3.55,12.09c0.21,1.87-0.73,1.81-1.58,0.04l-5.69-10.57l-0.36-2.47  C586.92,911,588.29,911.69,589.53,911.92z" />
<path class="cls-6" d="M365.43,1020.57c-0.42,0.25-0.9,1.04-1.47,0.76c-0.46-0.22-0.8-0.52-1.08-0.77c-0.54-2.09-0.54-4.29-0.97-6.4  c0.83-0.34,1.54-1.43,2.37-1.67C364.2,1015.23,364.45,1017.99,365.43,1020.57z" />
<path class="cls-4" d="M511.61,586.58c-0.01,0.6,0.29,1.6-0.07,1.99c-1.17,1.27-5.99,0.87-7.13,0.58c-0.93-0.23-1.09-1.52-0.83-2.65  C506.25,586.73,508.93,586.57,511.61,586.58z" />
<path class="cls-3" d="M318.92,701.51c-12.53-4.58-23.8-11.18-34.4-20.46c-3.43,12.63-6.58,22.51-11.35,33.47l-23.09-26.53  c-2.48,6.27-1.37,12.27-3.21,19.39c-10.72-16.54-11.42-24.86-27.7-38.66c-0.75-0.64-1.86-1.82-1.74-2.46  c0.17-0.86,1.94-2.41,3.58-2.4l119.07,1.22c6.1,0.06,11.37-1.64,17.32-0.37l13.58,48.53c-11.81-7.58-18.32-19.02-27.65-28.75  l3.53,26.76c-11.33-6.57-19.76-16.58-29.17-26.49L318.92,701.51z" />
<path class="cls-15" d="M1105.06,844.25c1.26,0.36,2.38-1.5,2.94-1.04l3.03,2.55c6.05,5.08,12.59,8.57,13.53,18.07  c-7.04-6.05-16.71-6.3-25.24-9.43c-4.97-3.51-7.7-12.26-14.3-14.07c5.71-1.04,7.98,2.6,11.93,3.49c1.2-1.06,1.48-2.43,2.34-3.52  L1105.06,844.25z" />
<path class="cls-8" d="M600.08,1209.28c-1.36,2.12-4.31,0.38-6.57,0.79c-9.04,1.67-41.69,32.49-77.84,41.76  c-0.56,0.84-1.16,1.64-1.89,2.3c-5.15,4.63-59.24,7.18-69.84,6.87c-2.65-0.08-5.92-0.49-4.77-3.64c0.5-0.7,1.34-1.25,2.69-1.56  c25.74-5.85,54.06-14.14,70.47-36.45c2.92-3.98,4.43-8.17,3.54-12.61c2.89-0.16,5.3-2.18,7.32-0.17c6.89,6.84-1.83,12.93-2.19,20.14  c10.73-2.98,25.82-16.14,36.1-21.61C570.94,1197.75,588.21,1199.78,600.08,1209.28z" />
<path class="cls-12" d="M661.64,1259.72c3.75,0.11,3.38,2.11-0.19,2.85l-75.86,3.17c-1.72,0.07-2,4.11-3.71,4.35  c-12.63,1.77-61.64,1.8-75.86-3c6.87-3.03,13.94-2.73,21.11-3.17c14.14-0.86,27.48-1.67,41.27-5.87L661.64,1259.72z" />
<path class="cls-11" d="M588.14,1300.32c-2.1-0.08-2.71-0.51-1.82-1.28l-22.69,0.23c-1.97-0.66-3.96-0.22-5.02-0.24  c-3.85-0.51-3.85-3.35-0.22-4.55l68.32-2.11c-0.4,0.01,30.92,3.04,28.76,5.48C632.32,1301.24,610.28,1301.04,588.14,1300.32z" />
<path class="cls-1" d="M515.67,1251.83l3.28,0.93c0.68,0.19,1.07,1.34,0.18,2.19c-0.51,0.48-1.51,1.77-2.69,2.04l-20.33,4.76  c-16.42,3.84-49.75,0.43-67.99-0.16c1.69-4.92,8.01-4.49,11.04-4.24c1.25,0.1,3.09,2.62,5.63,2.22  C468.26,1255.81,493,1257.64,515.67,1251.83z" />
<path class="cls-8" d="M558.4,1294.48l0.22,4.55c-19.82-0.36-29.1-0.63-48.59-1.54c4.6-2.56,9.55-2.23,14.89-2.34L558.4,1294.48z" />
<path class="cls-8" d="M661.45,1262.57l0.19-2.85c8.01,0.14,14.87-1.95,21.39,1.38C675.18,1262.86,668.32,1262.51,661.45,1262.57z" />
<path class="cls-8" d="M588.14,1300.32c-9.02-0.29-17.08,1.45-24.5-1.05c-0.29-1.06,1.5-1.5,2.86-1.5l20.14,0.02  C587.94,1297.79,588.85,1299.51,588.14,1300.32z" />
<path class="cls-1" d="M478.71,1119.17c2.36-0.8,7.89,1.51,9.5-2.63c3.1-8-8.4-15.11,0.91-19.15c2.18-0.95,6.02-0.86,8.1,0.68  c5.03,3.71,6.56,9.37,6.13,15.44c-0.38,5.35-3.47,11.04-9.3,13.87c-3.23,1.57-6.7,1.58-9.76,0.28  C481.85,1126.64,477.53,1122.83,478.71,1119.17z" />
<path class="cls-1" d="M411.08,1125.31c-3.82-0.3-3.24-1.6-0.18-3.23c0.18-1.65,0.55-3.79,1.67-4.62c2.15-1.6,4.63-0.41,6.8,1.01  c5.08,3.29,6.06,9.06,5.24,15.14c-0.6,4.43-3.6,9.79-9.16,11.65c-2.98,1-6.42,1.14-8.75-0.52c-1.75-1.24-4.49-4.74-3.19-7.19  c1.33-1.12,5.19,0.22,6.8-1.49C413.05,1133.12,411.27,1129.25,411.08,1125.31z" />
<path class="cls-1" d="M377.98,1130.7c3.59-0.02,4.22,1.17,1.36,3.59c0.51,6.48-0.18,12.03-3.74,16.67  c-2.75,3.59-8.27,5.42-11.98,3.7c-2.66-1.24-7.17-5.96-5.08-8.62c17.75,1.5-0.24-20,13.69-20.04  C375.08,1125.99,376.32,1129.49,377.98,1130.7z" />
<path class="cls-1" d="M252.38,1153.91c-5.56-0.87-5.48-10.4-5.12-13.81c1.95,0.32,2.22,1.63,2.91,1.94  c4.42,1.97,4.14-11.36,5.75-14.41c1.03-1.96,5.39-0.74,6.7,0.5c2.09,1.97,3.06,4.1,3.65,7.81  C267.53,1143.89,262.91,1155.55,252.38,1153.91z" />
<path class="cls-1" d="M321.17,1148.52c0.81,0.9,3.34,3.96,5.3,2.77c6.3-3.82-1.86-15.22,4.61-18.37c2.17-1.06,5.01-0.46,6.91,2.64  c4.12,6.71,3.68,16.78-2,22.46c-3.12,3.12-8.05,3.79-11.53,1.96C320.92,1158.12,319.85,1152.78,321.17,1148.52z" />
<path class="cls-6" d="M410.9,1122.07l0.18,3.23c-7.42,0.96-23.28,8.23-31.74,8.98c-0.07-0.91-1.23-1.79-1.36-3.59  C389.18,1129.31,400.32,1125.98,410.9,1122.07z" />
<path class="cls-12" d="M1058.06,1219.03c-5.04,0.56-9.59,1.36-14.68,5.14c-9.86,7.32-20.3,13.44-31,18.63  c-3.42,1.66-9.02,1.35-12.25-0.1c-3.68-1.66-5.54-6.08-7.17-10.82l-30.17,16.71c-4.43,2.45-11.48,1.5-16.26,0.03  c-9.23-2.82,8.93-31.88-64,22.3c-28.44,21.13-58.1,38.99-92.38,51.04c3.12-4.78,17.58-23.14,21.38-23.27c1.9,0,4.02-0.56,6.03-1.96  c44.22-30.81,53.93-56.32,89.05-82.23c11.93-8.8,25.25-14.9,40.16-15.81c3.69-0.22,6.83,1.32,8.34,3.25  c4.68,5.95-4.08,16.2-0.69,25.59c7.42,20.53,43.78-18.77,50.86-14.24c1.5,0.96-0.59,7.7,2.04,9.71c4.71,3.6,15.4-1.53,21.64-4.21  c15.08-6.48,30.24-12.08,47.42-11.14C1069.85,1211.85,1064.3,1217.17,1058.06,1219.03z" />
<path class="cls-16" d="M502.67,686.43c-9.85-3.69-18.5-7.4-27.31-11.49c-10.67-4.95-13.76,8.13-22.63,0.81  c-2.54-2.1-3.49-6.08-1.94-10.02c1.33-3.4,5-5.24,10.59-5.45c-4.49-5.59-4.3-12.93,1.55-16.32c2.78-1.61,6.06-0.62,8.37,1.08  c5.74,4.22,3.06,13.81,5.71,16.37C487.85,671.93,507.46,671.93,502.67,686.43z" />
<path class="cls-3" d="M545.67,694.85c-3.4,2.68-6.6,1.97-10.45,3.12c-0.95-5.13,0.48-9.46,3.15-14.51  C542.14,686.51,543.17,689.45,545.67,694.85z" />
<path class="cls-3" d="M601.34,949.55c-0.4,0.49-0.85,0.94-1.34,1.34c-0.66-1.74-1.75-3.36-1.34-5.36l1.34-1.34  C603.17,943.68,600.58,948.23,601.34,949.55z" />
<g>
</g>
<g>
</g>
<g>
</g>
<g>
</g>
<g>
</g>
<g>
</g>
<g>
</g>
<g>
</g>
<g>
</g>
<g>
</g>
<g>
</g>
<g>
</g>
<g>
</g>
<g>
</g>
<g>
</g>
</svg>