<?xml version="1.0" encoding="iso-8859-1"?>
<!-- Generator: Adobe Illustrator 30.2.1, SVG Export Plug-In . SVG Version: 9.03 Build 0)  -->
<svg version="1.1" id="Layer_1" xmlns="http://www.w3.org/2000/svg" xmlns:xlink="http://www.w3.org/1999/xlink" x="0px" y="0px"
	 viewBox="0 0 1200 1543" style="enable-background:new 0 0 1200 1543;" xml:space="preserve">
<style type="text/css">
	.st0{fill:#F8EDDF;}
	.st1{fill:#AD8EB8;}
	.st2{fill:#F1807E;}
	.st3{fill:#EB5A82;}
	.st4{fill:#F39573;}
	.st5{fill:#F68768;}
	.st6{fill:#D1849C;}
	.st7{fill:#DC8292;}
	.st8{fill:#C687A5;}
	.st9{fill:#9FC1D2;}
	.st10{fill:#F6AF68;}
	.st11{fill:#3A9CAA;}
	.st12{fill:#8194AF;}
	.st13{fill:#AEC7CF;}
	.st14{fill:#F9E7C9;}
	.st15{fill:#9BB2B8;}
</style>
<path class="st0" d="M642.67,1003c0.17-0.66,0.4-1.28,0.8-1.73c0.45-0.51,12.77,0.51,13.33,0.9l9.67,10.84
	c-1.96-4.14-1.66-9.82,3.91-7.68l20.22,20.61c-1.96-4.35-3.4-10.22,3.24-9.18l17.14,15.93c-1.77-5.99-0.42-8.87,4.06-8.64
	l11.93,7.71c-0.37-3.65,1.8-4.71,5.19-3.52c15.01,7.33,29.88,14.94,44.6,22.83c30.93,12.83,62.06-4.7,58.64-39.4l2.06-3.06
	c0.31-1.04,0.76-2.52,1.63-2.64c8.67-1.18,34.88,0.15,44.29,1.21l1.88,2.73l2.19,2.49c-4.75,8.38-9.43,16.77-14.04,25.16
	c1.9,5.12,5.43,9.88,10.58,14.29l-1.26,3.33c-1.81,2.84-5.11,3.84-9.91,3l35.99,2.21c50.14-0.93,100.24-1.61,150.31-2.06
	c15.32-0.83,20.76-2.26,16.31-4.28l-2.95,0.12c-2.71-4.62-7.26-7.1-13.66-7.45c-7.26-7.39-12.02-16.69-14.29-27.9l1.67-3.76
	c0.22-3.52,2.31-3.89,5.43-3.51c10.19,3.44,19.58,8.89,28.19,16.34c5.64,4.15,8.21,1.06,7.71-9.28l2.66-2.22l0.97-2.66
	c35.74,0.57,71.49,1.15,107.25,1.72l1.59,2.7v107.87l-0.65,2.76c-91,9.66-182.02,19.32-273.06,28.98l-1.92-2.49
	c-0.57,0.49-1.04,0.36-1.44-0.32l-1.51,0.47l-2.55,2.34c-2.55,0.7-23.59,2.19-24.43,1.28c-0.48-0.52-0.86-1.14-1.21-1.78
	c-9.82,2.64-20.09,3.79-30.79,3.43c0,0-10.94,1.52-32.83,4.56c-6.74,2.6-13.24,3.51-19.51,2.72l-4.64,4.26
	c-5.42,2.5-17.97,5.35-23.2,2.92c-10.83,5.65-22.5,9.57-35.01,11.78l-2.57-2.1l-8.03,4.93c-25.94,8.56-52.02,16.3-78.24,23.22
	l-4.85-0.55c-18.27,7.66-37.2,13.54-56.8,17.65l-2.22-2.19l-7.88,4.68c-14.02,3.43-28.04,6.85-42.05,10.28l-2.17-2.23l-7.69,4.5
	c-31.64,7.2-63.24,14.4-94.79,21.59l-2.17-2.25c-2.05,1.98-4.44,3.45-7.13,4.37c-6.15,2.1-16.58,4.98-22.13,2.35l-5.44,4.02
	l-55.83,13.03l51.29-7.55l2,2.41c4.33-3.72,18.39-6.75,24.22-6.47l2.31,2.35c2.3-1.06,4.62-2.06,7-2.88
	c2.37-0.81,4.73-1.58,7.15-1.98c19.34-3.15,38.85-6.03,58.27-8.68c2.43-0.33,4.91-0.33,7.4-0.29c2.52,0.04,5.03,0.27,7.54,0.55
	c9.54-4.3,19.98-6.62,31.32-6.94c7.03-2.1,13.6-2.47,19.7-1.09c4.63-3.23,12.98-6.83,16.94-1.99l12.67-4.68
	c32.7-5.09,65.33-10.17,97.89-15.24l2.03,2.4c4.36-2.78,12.6-7.13,16-2.15l6.79-3.24c20.03-2.63,39.96-5.92,59.77-9.88l7.52,0.92
	c0.46-1.16,0.86-1.09,1.2,0.15l11.04-3.89c18.9-2.65,37.79-5.2,56.65-7.68l5.94,0.69l8.37-4.34
	c109.99-21.19,219.86-42.35,329.6-63.49l2.14,2.31v56.44l-1.01,3.19c-29.32,10.28-58.65,20.56-87.98,30.84l-2.4-2
	c-1.95,4.1-7.81,6.42-11.66,4.07c-2.03,2.84-3.47,3.25-4.33,1.24c-8.31,5.17-17.23,9.14-26.76,11.94l-2.51-2
	c-13.32,7.71-31.19,13.71-46.3,17.24c-3.94,2.13-6.75,2.07-8.42-0.18l-5.46,4.61c-17.58,5.81-35.15,11.61-52.73,17.41l-2.35-2.05
	l-2.61,3.54c-78.92,28.31-157.88,56.43-236.87,84.37c-1.97-1.02-2.22-2.88-2.01-5.05c108.89-50.57,218.26-98.12,330.21-144.69
	l-49.95,17.83c-255.64,98.81-509.91,197.47-762.8,296l-13.92,2.53H180.7c5.69-3.34,11.4-6.63,17.21-9.74
	c5.81-3.11,11.62-6.19,17.61-8.89c126.1-56.87,254.08-109.56,382.92-159.89l295.01-104.73c-131.92,43.37-263.4,90.36-394.45,140.96
	l-367.54,139.41l-15.13,2.88h-7.92l24.68-12.37c243.07-104,489.57-200.89,738.57-289.47c-52.65,15.13-104.47,31.56-156.54,48.33
	c-5.21,1.68-10.66,2.42-16.09,3c-12.41,4-24.88,7.85-37.59,10.76c-101.39,23.17-202.66,46.67-303.96,70.2
	c-12.7,2.95-25.63,4.79-38.54,6.56l-5.87,2.65c-31.83-1.27-63.58-0.89-95.26,1.14l-6.21-1.76l-4.06,2.53
	c-33.15,8.27-66.32,16.63-99.51,25.07c-7.59,2.71-15.03,3.38-22.32,2.01l-4.81,3.63c-26.27,4.96-52.54,9.91-78.82,14.87L0,1427.68
	V1281.7c2.73-1.51,5.57-3.08,8.69-3.56c25.22-3.91,50.67-7.7,75.96-11.09c1.47-0.2,3.01,0.03,4.59,0.28c1.59,0.25,3.15,0.7,4.7,1.2
	c9.66-4.04,20.06-6.23,31.22-6.56l2.24,2.42l9.51-4.03l370.78-51.71l-302.2,1.16l-1.67-2.67c-7.43,2.55-15.44,3.3-24.04,2.27
	c-5.37,1.18-9.92,0.77-13.66-1.22l-5.78,1.67c-34.6,1.49-69.19,2.47-103.79,2.93l-5.84-1.56c-6.85,4.05-18.17,4.7-25.28,1.12
	c-1.2,1.9-2.11,2.39-3.9,2.95c-1.28,0.4-16.2,0.55-18.54,0.34L0,1213.39v-192.86c2.92-0.88,5.85-1.71,8.82-2.35
	c2.96-0.63,5.91-1.24,8.88-1.42c35.72-2.13,71.56-3.17,107.35-3.06c2.97,0.01,5.95,0.47,8.94,0.94c3,0.47,5.97,1.15,8.93,1.88
	l2.59,3.14c0.01,13.12,4.95,25.72,13.36,35.76l21.35,24.29l-0.74,3.22c-4.89,2.24-7.33,3.36-7.33,3.36
	c-41.43,1.42-82.64,4.36-123.63,8.83c28.39,3,56.95,3.85,85.47,3.91c205.6,0.46,412.98-3.2,618.08-16.76
	c21.76-1.44,43.62-3.98,65.13-7.26c-52.43-5.7-113.66-5.35-169.25-4.56c-2.32,5.5-4.11,3.21-6.28-0.64
	c-2.49-0.44-4.72-2.23-6.71-5.37c-7.87-4.24-16.57-6.93-26.09-8.07c-23.32-6.66-15.66-36.41-10.71-53.85l3.06-1.04l1.28-2.43
	c4.93-0.2,37.76,0.56,39.35,2.14C642.29,1001.62,642.52,1002.28,642.67,1003z"/>
<path class="st1" d="M0,132.59V0h1200v117.99c-3.39,2.56-7.93,3.85-13.62,3.88c-24.43,8.66-47.77,7.87-73.78,6.85
	c-26.09,2.8-48.03,4.39-72.11-6c-5.08-0.33-8.65-1.94-10.69-4.82c-23.55-6.77-48.14-7.03-72.37-4.23l-3.71-2.37
	c-5.67,0.58-7.05-2.53-1.23-5l116.01-16.85l-75.69,0.71c-30.36,1.63-60.43,5.53-90.2,11.71c-8.61-0.91-17.09-2.66-25.42-5.24
	l-1.39-2.88c0.95-2.88,3.73-4.08,8.35-3.6c-33.33-13.01-76.55-6.01-110.69,0.5c-10.22-11.76-23.26-14.73-38.56-15.97
	c-46.71-3.79-88.84,14.7-118.61,50.81c-30.35-7.62-61.1-14.05-91.29-2.33c-48.03-20.54-103.28-28.23-150.07-1.24l-5.54,0.04
	c-14.64,12.17-30.66,14.6-50.13,14.31c-70.31-1.38-139.11-2.21-209.32,0.07c-33.16-1.75-66.14-1.86-98.95-0.31
	C6.02,136.8,2.36,135.65,0,132.59z"/>
<path class="st2" d="M1200,512.79v99.99l-2.12,3.03c-10.23,2.9-19.23,8.59-26.99,17.07c-25.42-8.22-51.58-8.32-77.55-3.05
	c-32.55,8.09-63.45,14.32-97.48,14.24c-32.15,5.95-64.78,8.11-97.21,6.82l-2.75-0.78c0.07-2.31-2.27-3.45-7.04-3.42
	c-80.43-0.35-161.22-1.99-242.36-4.94c-199.87,4.68-402.69,5.16-604,0.13c-14.3-0.08-28.5-1.55-42.51-4.38v-50.89l0.77-1.48
	c63.66-8.94,127.48-16.81,191.47-23.61l1.95,2.47c93.65-10.6,187.4-21.07,281.24-30.05c22.7-2.17,45.4-4.28,68.13-6.19
	c73.32-6.14,144.11-5.62,216.91-2.06c75.22-1.25,150.14-7.19,224.75-17.8c69.92-3.49,139.79-2.49,209.61,2.99L1200,512.79z"/>
<path class="st3" d="M1200,217.37v139.06l-6.3,0.42c-70.55-25.15-149.69-8.57-209.3,35.32c-59.71-41.67-142.39-37.35-200.04,5.91
	c-17.58,13.19-26.69,30.01-32.99,50.53l-2.9-0.33c-30.29-17.2-62.97-11.23-83.88,16.99c-42.64-22.26-87.23-37.48-135.48-25.89
	c-35.36,8.5-61.56,29.31-80.93,59.73c-37.74-17.4-79.57-20.61-115.57,2.66l-5.61,0.46l-4.95,2.7
	c-106.84,0.44-213.63,0.87-320.39,1.31L0,503.57v-17.41l1.2-2.7l84.61-1.17c29.28-20.36,67.51-30.94,102.32-20.16
	c26.75-25.11,68.93-34.89,102.39-18.18c12.66-17.26,38.38-26.59,59.28-20.77c46.06-78.42,145.23-73.63,220.27-42.52
	c11-11.4,25.14-21.96,40.41-26.8c0.69-1.04,1.43-2.04,2.3-2.9c0.85-0.84,1.68-1.63,2.66-2.03c41.06-16.76,89.1-17.88,131.79-7.13
	c7.08-6.97,17.58-10.51,27.41-11.68c34.81-31.8,79.53-56.96,126.56-63.52c0.86-0.93,1.76-1.81,2.76-2.54c0.98-0.71,1.95-1.37,3-1.63
	c33.78-8.36,70.39-7.31,104.92-5.97c56.98-31.38,117.76-43.22,182.36-41.66L1200,217.37z"/>
<path class="st4" d="M898.66,650.89l-0.31,0.91l47.84-1.4c84.38-2.35,168.42-3.86,252.1-4.51l1.7,2.66v142.96
	c-13.31,3.23-26.94,3.26-40.56,3.13c-77.18,0.45-153.12,0.04-227.84-1.23c-4.35-0.83-9.98-2.17-7.65-7.12
	c-1.73-1.74-0.81-3.23,2.74-4.47c-0.19-1.87,1.49-3.63,5.04-5.29c7.57-7.07,12.18-15.4,13.83-24.99c-2.9-1.77-5.15-3.83-6.76-6.18
	c-4.1-1.11-7.86-3.39-11.26-6.84c-11.84-5.94-21.37-13.75-28.59-23.44c-1.25-2.41-1.67-4.88-1.28-7.41
	c-1.61-3.08-10.96-8.24-14.43-10.11c-27.21-14.62-55.9-26.77-87.85-23.82c-9.4-8.9-17.91-9.43-25.55-1.6
	c-41.04,5.52-80.48,3.91-118.5-11.44c-13.66-3.43-27.67-1.46-40.38,4.74c-23.89,13.83-50.28,22.02-78.14,20.58l-83.57-4.82
	c-63.21-3.38-125.55,18.21-170.7,63.01l-6.7,2.94c-7.61-0.36-15.26,0.1-22.97,1.38l-247.22,0.1L0,745.98V637.5
	c156.26,7.02,311.91,5.05,470.71,4.15c55.06-0.31,109.05,0.88,163.83-2.33c18.88-1.11,35.25,1.62,53.83,1.88l200.65,2.82
	c2.96,0.04,5,1.02,7.38,1.64C898.35,646.17,898.49,648.83,898.66,650.89z"/>
<path class="st5" d="M1200,356.43v74.12l-4.66,2.22c-39.17,5.51-77.88,13.47-115.68,25.57c-59.41-47.08-156.68-40.63-202.64,22.13
	l-2.93-1.15c-37.28-31.74-84.02-32.12-116.87,6.16c-28.88-12.9-56.19-1.86-75.88,21.19c-22.7-1.76-44.64-8.18-65.83-19.27
	c-36.62-12.94-58.86-4.36-88.24,21.65c-22.86-6.37-43.54-0.02-59.44,17.54c-13.4-3.04-26.71-6.73-39.94-11.09
	c-40.59-7.88-72.19-1.45-101.8,29.37c-43.15,8.23-88.21,14.29-131.91,19.12L0,586.61v-2.68c1.86-3.44,5.01-4.48,8.72-5
	c39.92-5.25,76.97-14.34,114.18-29.67c29.34-9.34,62.52-15.42,92.04-4.3c0.47-5.77,5.9-12.01,10.08-16.28
	c21.66-22.13,57.5-15.84,84.45-8.95l12.44-15.43l5.1-2.05c36.09-24.57,78.87-26.49,120.58-5.24
	c20.71-37.25,57.51-58.93,100.11-63.56c41.1-4.13,80.19,8.9,116.56,29.65c19.7-29.84,55.69-34.91,86.29-16.22
	c3.29-20.81,14.67-36.29,30.19-49.37c55.37-43.71,144.69-51.75,203.59-7.66C1042.71,343.73,1131.56,328.44,1200,356.43z"/>
<path class="st6" d="M302.86,259.67l-3.54,3.5c-16.54,3.53-32.08,10.43-45.82,20.31c-41.55-6.11-84.73-0.72-119.24,24.59
	L24.64,328.69l18.75-1.86l3.29,2.41c78.64-9.63,158.22-14.76,238.85-18.32c39.96-2.56,80.53-5.39,118.65-18.15
	c69.69,4.32,137.6-4.25,202.71-20.37c39.78-5.36,79.68-9.79,119.71-13.29c8.46-2.4,16.67-3.11,24.62-2.12
	c3.03,2.21,1.08,4.14-1.69,5.96c-15.76,5.68-32.39,9.25-49.89,10.7c16.2,1,32.37-0.03,48.53-3.06c46.32,8.45,93.83,3.37,139.2-6.52
	c6.12-1.49,10.73-0.65,13.82,2.5c-46.21,12.12-90.34,32.81-125.33,65.81c-11.05,1.64-19.87,5.05-28.25,11.86
	c-47.02-11.1-93.8-8.98-137.13,9.59c-8.27,3.92-17.3,5.26-26.43,4.98c-57.09-3.52-114.38-3.69-171.88-0.52
	c-133.11-2.01-268.19-2.19-405.23-0.52L0,356.25v-85.71l1.11-2.55c33.7,0.42,67.69,0.77,101.99,1.06
	c34.79-4.8,69.61-6.75,104.46-5.85l32.91-5.02c6.45-0.29,13.34,1.33,18.21,5.79c13.93-4.05,27.95-6.48,42.04-7.28L302.86,259.67z"/>
<path class="st3" d="M1200,430.55v82.23c-77.96-1.57-157.01-9.56-235.48-0.1c-72.76,8.78-142.35,17.61-215.98,15.42
	c-53.05-1.58-106.14-4.54-159.2-1.06c-133.08,8.72-264.23,27.88-395.14,36.94l130.52-21.28c28.05-29.99,67.74-40.67,106.08-29.17
	l36.16,10.84c15.94-18.47,37.34-24.53,59.71-17.72c67.19-61.85,97.98-3.43,153.65-2.28c20.31-24.11,48.69-34.81,76.36-21.17
	c35.52-41,80.98-37.77,120.02-4.81c40.42-63.58,149.89-69.43,203.25-22.49C1120.15,442.59,1159.66,434.01,1200,430.55z"/>
<path class="st3" d="M1029.79,117.91c16.04,1.42,34.27,12.42,50.51,10.44c23.42-2.84,44.31-2.84,67.23-1.67
	c17.29,0.89,35.11-9.73,52.46-8.69v17.55l-0.83,2.81c-24.2,2.85-48.77,6.83-73.71,11.95c-39.84,10.32-80.11,18.07-120.82,23.23
	c-7.25,12.58-22.29,17.81-35.97,19.76c-15.96-0.17-31.03,2.72-45.21,8.66c-44.57,26.15-92.14,32.51-143.19,31.26l-5.75,4.05
	c4.9,9.29-11.83,20.5-19.48,21.43c-1.71,0.21-2.67,0.11-3.84-1.69c-48.09,11.82-98.37,8.25-147.3,18.76l-53.92,11.57
	c-47.62,10.22-96.42,8.7-145.43,8.07C349.79,314.99,258,313.75,199.5,318.04L46.68,329.25c4.01-3.84,9.34-5.82,16-5.95
	c29.53-2.95,58.95-6.66,88.25-11.13c13.38-3,26.16-7.4,38.36-13.2l11.9-2.91c21.55,0.33,43.38,1.82,64.79,3.95
	c0.75,0.07-0.91,1.32,0.07-0.2c15.42-23.87,31.69-32.05,59.8-31.14l59.74,9.43c25.12-6.14,50.9-9.07,76.54-10.57
	c12.71-4.13,25.48-6.37,38.31-6.7c13.37,4.16,26.54,4.74,39.5,1.72c4.08-39.13,67.52-47.02,95.89-32.4
	c14.96-14.54,37.05-24.23,58.16-20.52c18.14-21.75,49.37-24.98,75.95-25.08c-0.39-1.66,1.49-3.93,2.73-5.25
	c23.08-24.59,74.53-20.05,105.46-17.15c10.43-9.82,23.95-13.61,40.56-11.36c0.91-11.8,8.81-19.29,18.95-24.4
	C962.02,114.13,1003.5,111.55,1029.79,117.91z"/>
<path class="st7" d="M610.47,353.85c-13.79,9.22-27.94,17.6-40.03,29.19c-34.99-12.94-69.42-21.12-105.47-20.87
	c-47.3,0.32-89.06,22.51-114.11,63.13c-22.98-4.53-44.57,3.35-59.89,20.96c-35.48-15.61-72.94-7.33-102.3,18.3
	c-35.2-9.96-71.36-0.73-101.97,20.19L0,486.16V356.25c66.57-2.37,127.94-3.2,196.22-2.57l207.07,1.92
	c57.72,0.54,114.5-6.12,171.79,0.12C586.99,357.03,599.03,355.06,610.47,353.85z"/>
<path class="st0" d="M1200,1277.74v42.96l-0.92,2.98c-17.95,7.86-36.03,15.5-54.24,22.94l-2.5-1.86l-6.79,4.96
	c-27.91,8.83-41.86,13.25-41.86,13.25l-2.31-2.08c-2.01,2.04-3.88,3.74-6.5,4.89c-7.88,3.45-20.34,7.64-28.28,5.8
	c-1.42,1.09-2.86,2.14-4.39,3.04c-1.5,0.88-3,1.71-4.61,2.22c-14.36,4.55-28.92,8.95-43.43,13c-1.61,0.45-3.33,0.51-5.09,0.54
	c-1.78,0.03-3.55-0.13-5.33-0.35l-2.55,3.44l-43.76,12.16c0,0-1.16-0.61-3.47-1.82l-5.18,4.28c-36.65,9.17-73.56,16.6-110.72,22.3
	l-2.05-2.35l-5.11,2.73c-37.73,7.44-75.53,14.57-113.41,21.4l-5.74-0.43l-6.39,4.36l-290.2,72.67c-18.28,6-36.82,10.7-55.62,14.08
	h-66.96c-0.36-0.99-0.61-2.61,0-2.84c79.6-29.31,166.28-58.38,252.86-84.64c123.19-36.08,247.16-69.58,371.1-103.02
	c3.75-1.01,7.6-1.68,11.46-2.31c3.88-0.63,7.78-1.08,11.7-1.47l3.11-3.62l27.45-7.67l2.59,1.84c2.29-2.65,3.76-2.98,4.42-0.97
	c5.26-3.22,34.71-14.37,38.39-13.53c1.1,0.25,1.88,1.24,2.55,2.15l7.01-4.14l37.38-10.64c0,0,2.74,0.15,8.23,0.45
	c5.01-4.23,11.24-6.89,18.69-8c4.76-2.33,8.29-2.39,10.6-0.18l1.8-3.19c35.29-8.52,70.58-17.05,105.86-25.57L1200,1277.74z"/>
<path class="st3" d="M953.71,111.3l-4.19,3.13c-17.91,3.19-35.56,7.53-52.95,13.01c-13.9,5.47-25.81,14.39-35.71,26.75l-68.61,4.6
	c-23.63,1.7-47.21,6.32-68.69,16.56l-5.92-0.03l-8.6,1.94c-97.66,6.25-195.34,11.57-293.05,15.96
	c-46.38-0.75-92.69-0.15-138.95,1.79c8.17,1.06,16.43,1.44,24.77,1.14c9.95,0.19,13.17,2.79,9.65,7.79L213,212.81L1.69,216.93
	L0,214.29v-1.34l0.73-2.08c56.62-6.37,113.31-12.21,170.08-17.51c9.7-16.57,32.91-25.65,52.43-18.02
	c9.82-1.48,19.77-2.63,29.71-2.93c43.97-1.34,89.62,3.16,130.88,7.67c40.61-66.26,115.33-63.4,180.8-39.07
	c18.38-9.4,42.47-11.89,61.29-3.2c20.75-44.74,88.45-56.71,129.05-31.83c34.46-14.7,77.59-20.12,114.84-15.44
	c1.03,0.13,2.03,0.61,3.04,1.15c1.05,0.56,2.01,1.29,2.95,2.07c9.24,0.89,20.27,7.1,30.9,5.02c30.1-5.88,58.72-11.07,89.76-11.35
	l111.57-1.01l-155.27,22.54c-1.57,0.23-2.32,2.06-1.16,2.18C952.48,111.23,953.18,111.16,953.71,111.3z"/>
<path class="st8" d="M717.64,175.32l-2.24,4.31c-10.06,6.42-19.16,14.07-27.3,22.94c-56.49-7.82-137.47-14.77-169.98,43.03
	c-37.86-2.61-75.11,1.53-110.23,16.37c-32.57-4.13-65.64-6.5-98.16-0.87l-6.87-1.43c-13.78-2.39-30.23,5.37-44.79,6.79
	c-15.21-11.37-25.54-2.31-50.55-0.59c-50.57-4.99-90.85,10.69-139.5,4.84c5.3,0.64-64.43,0.76-68.02-0.18v-56.25l212.84-4.15
	l99.62-8.97c-14.7-6.1-31.51,2.32-45.6-7.94c56.3-5.04,109.61-1.46,164.48-3C527.56,187.55,622.52,176.75,717.64,175.32z"/>
<path class="st9" d="M948.1,1288.33l2.2,1.97l-17.01,55.72l-3.58,2.56c-171.93,49.1-346.29,90.08-515.86,148.82l-131.26,45.47
	h-72.45l233.7-90.81l461.28-179.36c61.14-23.77,122.04-47.32,185.52-66.16l-229.07,97.24l-154.71,70.26L948.1,1288.33z"/>
<path class="st10" d="M923.95,786.3c2.48,4.56,9.59,4.91,15.68,4.95l137.96,0.87c41.45,0.26,81.79-0.07,122.42-0.61v52.4
	c-0.14,1.83-1.63,2.87-4.49,3.15l-109.75,11.07l-157.27,25.63l-9.6-2.49c-39.91-15.68-85.09-20.93-127.99-25.69
	c-10.93-1.21-21.31-1.9-31.83,1.05c-13.9,5.03-27.84,7.51-41.81,7.43c-0.38-0.69-0.79-1.35-1.32-1.9
	c-1.51-1.59-1.8-18.17,2.27-18.57l1.49-3.29c16.33-10.01,33.6-16.66,51.8-19.95c4.09-2.33,8.15-4.37,12.2-6.14
	c3.27,3.06,6.13,2.57,8.58-1.48c27.62-8.9,55.4-16.19,83.35-21.86l15.08-0.7c0.97-2,1.45-3,1.45-3c9.86,0.35,19.51-0.38,28.94-2.18
	L923.95,786.3z"/>
<path class="st8" d="M1200,135.54v81.82c-84.18,1.46-111.26,4.62-187.6,41.66c-37.44-1.59-75.25-1.85-111.21,7.57
	c-25.97-2.03-45.86,10.54-82.18,10.19c-24.6-0.24-47.34,2.43-71.04-3.54l-26.51,3.5c-11.37,1.5-22.28-0.61-35.47-1.17
	c9.99-8.23,61.64-6.59,65.24-18.58c7.58-1.86,16.25-6.28,21.08-12.71c2.11-2.81-2.54-7.15-0.87-8.09c1.92-1.09,6.08-5.54,8.67-5.63
	c29.89-0.99,59.17-0.2,88.46-8.09c23.95-6.45,43.77-20.06,66.99-28.24c13.88-4.89,50.81,2.96,68.02-22.96
	c57.6-5.57,111.19-24.34,167.02-31.8L1200,135.54z"/>
<path class="st10" d="M271.85,747.18l1.07,2.75l-37.91,39.24c3.35,0.86,5.14,2.9,3.12,6c-11.52,15.54-17.28,23.3-17.28,23.3
	c2.68,0.49,3.86,0.91,4.35,3.68c0.53,3.03-6.96,20.26-9,24.14l-3.23,1.42l-1.86,2.29l-95.03-24.07L2.04,844.79L0,842.41v-96.43
	l248.84-0.1C257.12,745.88,266.16,741,271.85,747.18z"/>
<path class="st5" d="M875.79,93.76c-41.37-3.97-82.24-1.67-120.89,14.72c-29.37-16.88-63.15-16.2-92.79-2.29
	c-15.62,6.94-27.29,17.79-35.36,33.73c-21.16-7.32-42.06-5.98-62.03,3.64c-63.5-23.67-141.65-27.01-179.59,38.53l-67.82-5.36
	c-31.94-2.53-62.94-3.38-94.22,1.25c-19.59-6.91-40.41,0.09-50.4,17.89L0,212.95v-4.02l3.76-3.1c22.4-3.24,44.22-8.67,65.45-16.28
	c20.15-5.07,43.37-8.43,63.96-4.22c-0.27-0.53-0.41-1.16-0.07-1.69c22.72-35.86,80.77-35.44,117.09-24.14
	c21.46-14.93,62.44-12,84.77-0.23c0.83,0.44,1.5,0.85,1.69,1.85c3.84-16.82,17.57-30.98,32.73-39.15
	c23.32-13.51,48.51-21.35,76.74-19.98c27.16,0.55,52.9,7.38,79,18.63c28.71-11.31,58.7-6.73,90.44,2.62
	c31.57-41.11,85.72-59.69,135.91-48.68c9.61,2.11,17,6.34,22.6,13.78c38.74-9.33,79.96-12.7,118.46,1.9
	C887.48,94.43,880.94,92.28,875.79,93.76z"/>
<path class="st9" d="M108.42,1542.86H58.93l0.2-2.95l68.37-26.35l79.28-128.93l4.83-2.73c34.96-5.99,71.9-0.68,107.34-2.03
	l1.08,2.62L204.64,1484.4l476.57-181.94c6.28-2.95,12.22-6.33,17.83-10.12c65.59-24.27,134.57-44,204.35-61.02
	C634.97,1328.15,370.55,1431.81,108.42,1542.86z"/>
<path class="st11" d="M211.61,1381.9l-82.32,133.86l-70.36,27.1H2.45c-1.38-1.16-1.26-3.02,0.35-5.55l49.33-77.82l28.34-44.71
	l5.24-3.27C127.81,1403.56,169.14,1389.17,211.61,1381.9z"/>
<path class="st9" d="M943.98,1403.81l1.79,2.19c0,0-27.79,45.07-83.37,135.2l-4.16,1.65H724.03l-1.39-2.47
	c32.21-36.26,64.46-72.56,96.75-108.9l6.64-3.44l84.9-15.31C922.16,1410.71,933.61,1406.68,943.98,1403.81z"/>
<path class="st2" d="M327.01,502.24l-16.49,20.46c-35.75-9.07-76.61-15.19-94.77,24.37c-47.28-14.34-88.79,2.94-132.42,19.34
	c-26.47,9.95-56.51,9.73-83.33,17.52v-80.36L327.01,502.24z"/>
<path class="st8" d="M369.38,121.97c-13.63,11.4-25.32,23.71-31.85,41.13c-29.78-11.43-59.9-17.64-87-1.11
	c-31.26-10.77-99.92-11.52-116.32,25.45C66.89,181.55,60.14,202.97,0,208.93v-76.34c14.07,1.97,28.1-0.48,42.33-0.59
	c25.79-0.2,49.83,2.06,75.17,1.6l101.5-1.87l74.74,1.89c18.48,0.47,35.72,0.09,53.23-2.29C353.24,128.69,364.14,125,369.38,121.97z"
	/>
<path class="st11" d="M1200,1320.7v55.72l-2.38,6.48c-49.07,52.76-98.14,105.47-147.22,158.15l-5.28,1.8h-52.64l-1.28-1.27
	c47.28-64.3,95.34-128.31,144.16-192.03l6.98-4.79L1200,1320.7z"/>
<path class="st9" d="M701.77,1451.74c0.82,0.64,1.91,1.87,1.52,2.39c-20,26.47-42.76,55.86-64.49,80.93
	c-2.33,4.09-5.55,6.7-9.65,7.81h-279.6c19.19-6.25,38.36-12.54,59.07-17.73L701.77,1451.74z"/>
<polygon class="st9" points="1200,1376.43 1200,1542.86 1045.12,1542.86 "/>
<path class="st9" d="M1200,1126.02v21.56l-340.12,65.52c-0.62-0.86-1.4-2.3-0.87-2.82c16.36-15.79,35.75-33.28,53.31-47.79
	c3.58-3.61,6.84-6.33,12.05-7.2L1200,1126.02z"/>
<path class="st11" d="M826.03,1428.04l-102,114.82h-94.87l72.61-91.12C742.55,1441.53,784.51,1435.53,826.03,1428.04z"/>
<path class="st11" d="M993.76,1390.03l2.28,1.68c-15.46,50.11-30.94,100.23-46.44,150.36l-3.03,0.78h-88.34l85.74-139.05
	L993.76,1390.03z"/>
<path class="st9" d="M180.7,1542.86h-64.36l267.1-101.42c146.54-55.64,292.57-110.76,440.57-161.98c38.72-13.4,77-26.7,116.45-33.7
	l-341.08,121.09C457.88,1421.78,318.16,1480.48,180.7,1542.86z"/>
<path class="st9" d="M1056.6,1371.58l2.03,1.98c-26.28,56.02-52.56,112.07-78.86,168.13l-3.5,1.16h-29.69l47.18-152.83
	C1014.74,1384.22,1035.47,1377.2,1056.6,1371.58z"/>
<path class="st9" d="M1200,1204.02v73.72l-109.86,26.53c-0.47-1.25-0.89-2.52-1.11-3.81c-0.22-1.27-0.41-2.51-0.19-3.65
	c3.61-18.33,9.36-37.01,15.12-54.81c0.36-1.11,1.11-2.1,1.9-3.11c0.81-1.03,1.76-1.96,2.75-2.85L1200,1204.02z"/>
<path class="st12" d="M205.09,881.09c2.46-5.71,4.73-6.94,6.83-3.68c-1.73,8.69-4.18,17.3-7.35,25.84c1.18,0.22,2.56,0.56,3.26,1.58
	c1.37,2-7.49,20.82-10.6,23.27l-3.16-0.79c-6.12,1.14-12.3,2.26-18.55,2.21c-52.37-0.41-104.6-0.75-156.98-0.68
	c-6.24,0.01-12.42-0.96-18.55-2.06v-48.21l2.22-2.65c18.11,4.47,35.41,12.08,51.9,22.83l11.19,4.16c22.12,1.23,44.31,0.8,66.58-1.29
	l6.73-23.57c2.2-3.33,6.17-5.25,11.93-5.75c3.06-7.77,6.65-15.26,10.78-22.46c5.7-0.78,21.78-2.23,25.17,1.99
	c0.51,0.64-0.02,2.11-0.84,3.82c-9.25,14.38-17.88,29.07-25.92,44.07l37.56-17.52L205.09,881.09z"/>
<path class="st11" d="M166.12,1208.19l0.76,2.85c-21.56,18.03-43.15,36.07-64.77,54.14l-8.18,3.35
	c-31.23,3.86-62.5,10.36-93.94,13.16v-12.05l2.35-6.8c14.38-16.69,28.85-33.28,43.41-49.78l4.95-1.85
	C89.15,1209.78,127.76,1207.22,166.12,1208.19z"/>
<path class="st12" d="M1200,847.61v87.56l-0.24,1.7c-38.93-0.02-77.87-0.11-116.81-0.27l-0.92-1.79c-2.29,0.62-2.33-0.19-0.14-2.43
	c-0.53-1.09-0.86-2.6,0-3.24c3.07-0.46,32.89-22.5,24.66-24.78c-6.34,0.78-7.23-2.31-5.43-7.62c-8.32-0.75-16.25-3.53-23.81-8.33
	l-0.52-3.08l1.2-2.68c28.69,0.55,56.32,1.03,82.93-13.71l34.84-22.15L1200,847.61z"/>
<polygon class="st9" points="85.71,1411.51 2.45,1542.86 0,1542.86 0,1427.68 "/>
<path class="st0" d="M194.07,927.31c4.37,1.15,3.31,5.96-1.25,6.1l-0.41,1.4c-4.98-0.24-4.83,0.23,0.45,1.4
	c5.74,2.39-2.04,15.51-5.07,18.99l-3.15,0.01l-6.64,2.19c-56.02,5.14-112.69,1.41-168.76-2.74c-6.53-0.18-8.04-1.55-5.62-6.03
	l62.79-6.06l-64.91-2.33L0,937.5v-10.71C64.64,924.27,129.4,925.65,194.07,927.31z"/>
<path class="st3" d="M1200,612.78v35.78l-308.71,4.23c1.95-3.45,5.09-1.63,7.37-1.9c22.11-2.67,45.63,0.15,68.07-4.91
	c22.54-5.08,42.76-5.87,66.11-6.68c28.95-1.01,85.22-28.36,137.58-8.75C1178.97,620.88,1188.49,614.09,1200,612.78z"/>
<path class="st9" d="M1142.33,1344.77l-149.86,198.09h-4.89l-1.87-2.13c33.44-58.76,67-117.51,100.68-176.25l4.99-3.57
	L1142.33,1344.77z"/>
<path class="st0" d="M173.86,972.52l0.71,4.38c-3.94,8.26-14.62,21.17-21.76,26.96l-4.39,0.35c-2.05,0.65-4.11,1.25-6.2,1.66
	c-2.08,0.41-4.14,0.8-6.18,0.76c-33.24-0.58-66.5-1.91-99.62-4.96c-8.89-0.25-8.49-2.64,1.19-7.17l21.86-3.21l-57.86-0.21L0,988.39
	v-17.41l0.95-2.67c57.09,0.51,114.18,1.01,171.29,1.52L173.86,972.52z"/>
<path class="st13" d="M184.65,955.21c1.36,5.63-5.4,15.6-10.78,17.32L0,970.98V937.5l107.01,3.84L2.66,951.41
	C64.12,956.68,124.05,959.07,184.65,955.21z"/>
<path class="st11" d="M1091.38,1360.9l-103.8,181.96h-11.32l80.33-171.27C1067.85,1368.59,1080.22,1364.43,1091.38,1360.9z"/>
<path class="st13" d="M148.43,1004.21c3.18,3.77-1.72,10.43-5.5,12.32c-47.7-0.65-95.32,0.9-142.92,4v-32.14l105.89,0.38
	c-25.82,3.21-50.59,4.9-75.21,9.72C70.65,1002.45,109.38,1003.42,148.43,1004.21z"/>
<path class="st0" d="M1200,945.61v19.18l-0.92,2.68c-46.81,0.2-93.64,0.39-140.47,0.59l-1.64-2.67c-1.02-0.84-1.88-2.02-1.4-3.07
	c2.37-5.21,9.58-19.11,15.16-20.36c0.64-0.14,1.37,0.13,2.13,0.52l5.55-1.7c38.89-1.13,77.62-0.26,116.19,2.61L1200,945.61z"/>
<path class="st13" d="M1200,964.79v21.8l-1.03,2.64c-43.19-1.66-86.46-3.38-129.79-5.15l-9.37-2.99
	c-8.63,2.92-11.37-14.34-2.83-15.7L1200,964.79z"/>
<path class="st13" d="M1200,995.81v22.35l-109.8-1.76c-3.07-1.15-6.17-12.57-6.16-15.75c0-1.73,0.21-2.67,2.15-3.6l0.9-2.69
	c37.08-0.4,74.16-0.8,111.26-1.2L1200,995.81z"/>
<path class="st0" d="M1200,986.59v9.22l-113.81,1.23c-0.78,0.75-1.94,1.84-2.71,1.49c-4.55-2.04-13.15-7.52-17.41-10.52
	c-4.44-1.62-6.53-3.92-6.26-6.91L1200,986.59z"/>
<path class="st9" d="M50.71,1211.22L0,1269.64v-9.38c2.69-10.05,7.09-19.61,13.22-28.68c2.92-7.75,6.99-14.16,12.21-19.25
	C33.85,1211.43,42.26,1211.54,50.71,1211.22z"/>
<path class="st11" d="M25.43,1212.34c-6.76,16.52-16.53,32.29-25.43,47.93v-46.88C8.36,1211.76,17.02,1213.26,25.43,1212.34z"/>
<path class="st13" d="M1081.88,932.37l0.14,2.43l0.02,1.87l117.03,0.2l0.93,1.7v7.04c-42.33-3.42-84.73-2.4-127.15-3.11
	c-3.65-0.57-2.74-1.59-0.18-3.52C1070.06,935.03,1078.36,929.61,1081.88,932.37z"/>
<path class="st0" d="M1082.02,934.8l117.98,0.37v3.4l-121.53-0.03c-0.52-1.5-0.29-2.99,0.58-3.18
	C1080.02,935.14,1081.11,934.8,1082.02,934.8z"/>
<path class="st14" d="M1076.79,885.32c10.19,3.73,17.1,11.65,30.13,7.54c-0.16,5.74-4,4.28-4.25,6.4c-0.26,2.16,2.35,5.77,2.82,0.45
	c15.08,10.26-12.69,25.08-23.6,32.65c-2.94,2.04-7.2,3.75-9.21,6.61l-0.41,1.6c-21.73,15.65-24.63,47.04-23.89,71.82l-2.17,2.66
	c14.33,48.89,17.45,18.06,29.23,38.99c-0.3,1.17-0.66,2.11-1.23,2.26c-8,2.1-35.7,4.33-42.26,1.54c-1-0.42-4.69-6.68-3.86-8.13
	c-11.92-16.01-22.49-33.62-28.34-53c-4.12,11.5-31.37,21.21-42.36,21.55c-7.15,0.22-9.09,0.11-7.22-8.12
	c-5.35,9.99-12.86,15.63-22.08,21.45l0.32,3.11c-5.1,2.41-9.79,5.25-14.08,8.54c3.57,0.92,9.62,2.77,12,5.57
	c1.15,1.35,1.62,2.23,0.75,4.26c0.35,1.08,0.74,2.31,0.29,3.31c-2.71,5.93-41.1,3.94-43.26,1.75c-0.8-0.81-1.21-1.85-1.37-2.97
	c-2.55-6.61-14.3-11.12-11.61-19.63c2.99-9.47,12.52-15.87,14.14-25.64c-3.85-1.61-0.61-12.14,2.59-13.38
	c-5.09-3.27-2.7-18.78,2.57-21.2c-4.07-2.1,2.04-14.07,5.64-14.79c-2.63-2.99,4.45-12,7.18-15.16c1.9-3.38,3.64-5.44,7.55-6.24
	c0.25-2.14,1.98-3.5,5.2-4.08c0.13-1.66,0.77-3.06,1.79-4.35c5.2-6.61,31.37-14.77,40.88-15.59c21.7-0.38,46.34-2.12,63.18-18.25
	c0.07-3.26,1.12-5.79,3.17-7.58c9.32,0.16,18.54-0.72,27.65-2.64c1.45-4.19,11.17-4.65,15.65-4.66
	C1073.12,881.1,1075.94,882.21,1076.79,885.32z"/>
<path class="st11" d="M699.04,1292.34c-0.4,7.34-10.22,7.49-16.59,12.48l-491.39,187.64l127.89-112.59
	C445.31,1349.25,571.78,1319.15,699.04,1292.34z"/>
<path class="st11" d="M127.39,1264.4l-0.61-2.89c23.3-17.47,46.63-34.94,69.99-52.4l7.05-1.97l344.11-1.32L127.39,1264.4z"/>
<path class="st11" d="M744.67,1184.84l1.12,2.72c-14.76,15.83-29.52,31.68-44.3,47.53l-6.51,3.06l-112.58,17.53
	c-0.45-0.96-0.96-2.51-0.33-2.93c21.85-14.9,47.42-29.58,71.49-40.32C684.21,1204.41,713.97,1192.74,744.67,1184.84z"/>
<path class="st11" d="M845.23,1139.88c2.63-9.13,11.46-18.53,19.86-22.82c3.95-5.1,12.63-5.93,19.06-6.27l235.88-12.45
	L845.23,1139.88z"/>
<path class="st11" d="M816.96,1126.29c0.32,1.01,0.62,2.6-0.06,2.95c-19.35,10.11-42.21,18.76-63.13,24.91
	c-30.88,4.82-61.23,11.84-93.45,13.63l-173.35,9.65c46.46-8.42,91.34-7.52,136.84-15.08
	C689.18,1151.48,753.45,1141.82,816.96,1126.29z"/>
<path class="st11" d="M859.88,1213.09c-24.33,4.69-49.06,8.4-73.63,10.87c0.05-1.57,0.95-3.17,2.68-4.83l90.71-56.55
	c4.07-2.79,8.6-4.57,13.6-5.32c9.24,0.09,18.8-3.29,28.19-1.84l1.51-0.47c0.47-0.01,0.97,0.37,1.44,0.32L859.88,1213.09z"/>
<path class="st11" d="M962.86,1339.13c-7.93,3.4-24.22,6.9-33.15,9.45l18.39-60.25l60.54-19.97c0.83,0.67,1.96,1.85,1.58,2.49
	c-13.42,22.58-28.86,44.9-44.09,66.25L962.86,1339.13z"/>
<path class="st9" d="M893.24,1157.27l-106.98,66.7c-0.38,0.04-0.83-0.25-1.2-0.15c-0.33-1.2-0.6-2.41-0.68-3.63
	c-0.51-7.77,15.17-39.31,20.32-47.77l5.39-4.43C836.85,1158.69,864.96,1156.98,893.24,1157.27z"/>
<path class="st11" d="M810.1,1167.98c-9.62,17.91-18.79,36.53-25.04,55.83c-24.12,6.23-49.28,8.86-74.08,12.19l-0.8-2.84
	c20.62-17.6,41.27-35.23,61.96-52.9l10.1-5.1C791.19,1172.86,801.39,1171.01,810.1,1167.98z"/>
<path class="st9" d="M687.16,1107.67c0.69,2.86-1.33,5.31-6.06,7.33c-4.27,2.89-8.99,5-14.17,6.35l-162.44,19.37l0.23-3.9
	c10.49-8.92,23.38-13.89,36.53-17.31L687.16,1107.67z"/>
<path class="st13" d="M1075.44,1054.06c3.21-1.06,10.16-0.64,12.13,3.28c-79,5.61-156.99,6.72-234.93,2.36
	c10.29-4.25,20.82-4.01,30.09-4.51c14.02,2.48,34.23,7.9,44.35-2.09l1.48-2.7c7.68-0.1,15.36-0.21,23.04-0.31l1.93,2.65l3.22-1.28
	c14.14,6.21,30.21,3.01,44.61-0.71l3.07,1.91c0.6-1.97,0.9-2.96,0.9-2.96c5.85,0.02,11.69,0.07,17.54,0.15
	c-9.86-9.75-17.36-20.7-22.51-32.85l-15.11-0.65l-2.09-2.24l-3.68,3.98c-5.86,2.59-30.62,11.3-34.83,10.27
	c-1-0.24-1.95-0.66-2.89-1.13c-0.65,2.63-3.08,3.82-7.28,3.57c-2.5,1.75-4.63,2.02-6.39,0.83c13.19-12.97,26.6-25.63,25.74-45.95
	c3.69,10.24-0.18,20.05-2.08,30.44c9.35,0.26,38.51-9.22,43.19-15.89c5.52-7.86,0.8-14.68,4.02-23.69
	c1.21,22.33,11.33,41.21,23.3,60.76l11.83,19.33C1048.06,1059.13,1062.87,1058.21,1075.44,1054.06z"/>
<path class="st9" d="M203.82,1207.14l-76.43,57.26l-33.45,4.13l72.18-60.35C178.39,1205.58,191.31,1207.19,203.82,1207.14z"/>
<path class="st11" d="M1092.61,1241.36l1.1,1.42c-25.19,27.04-51.04,53.63-77.54,79.75l-7.96,4.24
	c-10.96,2.43-30.84,9.92-40.94,11.38l-0.95-1.41c28-26.95,56.71-53.36,86.13-79.22l10.89-6.24
	C1071.24,1248.84,1085.02,1242.78,1092.61,1241.36z"/>
<path class="st9" d="M1096.94,1240.12c0.89,0.57,2.15,1.62,1.85,2.29c-8.48,18.86-19.13,39.94-29.04,58.19
	c-1.75,5.26-4.72,9.21-8.91,11.85c-17.49,4.88-34.86,10.4-52.62,14.33l84.39-85.42C1093.74,1241.15,1095.9,1240.53,1096.94,1240.12z
	"/>
<path class="st9" d="M1063.35,1251.3l-96.07,86.86c-1.14,0.16-3.36,0.51-4.42,0.97l45.77-70.77L1063.35,1251.3z"/>
<path class="st15" d="M1072.85,942.5c-7.23,6.15-13.62,13.62-15.88,22.9c-0.67,2.75-4.41,4.69-2.88,8.49
	c0.94,2.34,3.04,5.59,5.71,7.21l26.38,15.94c0.65,6.54,3.86,12.71,4.01,19.35c0.94,40.45-26.88-9.37-43.98-1.32
	c-3.5-11.94,2.1-67.45,26.46-76.09L1072.85,942.5z"/>
<path class="st9" d="M542.42,1240.63c0.82,3.47-0.88,6.57-5.1,9.3c-6.87,6.64-14.5,11.89-22.89,15.77
	c-29.01,4.94-58.31,8.77-87.37,13.28c-0.51-0.63-0.96-1.28-1.25-1.99c-1.62-4.02,8.52-10.7,11.96-12.52L542.42,1240.63z"/>
<path class="st9" d="M865.09,1117.07c-6.19,7.99-13.01,15.35-19.86,22.82l-91.45,14.27l63.18-27.86
	C832.84,1122.41,849.04,1118.06,865.09,1117.07z"/>
<path class="st9" d="M513.17,1122.76c0.44,0.94,0.89,2.49,0.31,2.81c-15.14,8.49-33.64,15.8-50.33,20.47
	c-22.93,2.95-46.29,4.93-69.31,4.3l-0.17-2.82c13.9-6.14,28.17-11.11,42.98-14.57C462.08,1129.15,487.6,1125.72,513.17,1122.76z"/>
<path class="st11" d="M1108.61,1236.05c-6.93,22.5-14.37,45.11-18.47,68.22l-29.3,8.17l36.1-72.32
	C1099.69,1238.15,1105.37,1237.19,1108.61,1236.05z"/>
<path class="st9" d="M393.92,1139.29c1.98,3.82-0.71,7.02-8.05,9.6l-8.14,2.99l-190.34,11.74L393.92,1139.29z"/>
<polygon class="st9" points="782.25,1175.16 710.98,1236.01 694.98,1238.15 744.67,1184.84 "/>
<path class="st13" d="M751.3,1111.14c-0.34-2.46-0.5-3.69-0.5-3.69c4.72-2.28,9.84-4.11,15.35-5.48
	c66.9-4.83,133.91-12.24,201.12-13.97L751.3,1111.14z"/>
<path class="st11" d="M594.53,1227.9c0.66,0.82,1.55,2.14,1.08,2.73c-3.38,4.22-19.69,21.56-23.33,23.89l-6.82,3.15
	c-16.69,4.35-34.07,5.15-51.02,8.03c8.69-9.1,20.39-15.15,27.99-25.07L594.53,1227.9z"/>
<path class="st9" d="M653.55,1212.44l-71.15,43.25c-5.32,0.83-11.92,0.68-16.94,1.99l29.07-29.77L653.55,1212.44z"/>
<path class="st11" d="M766.14,1101.97c-3.77,5.04-11.77,3.58-14.84,9.17l-84.37,10.21l20.23-13.68L766.14,1101.97z"/>
<path class="st9" d="M408.51,1271.19c3.31,4.21-3.66,10.27-7.97,11.92l-116.43,17.13L408.51,1271.19z"/>
<path class="st13" d="M887.86,996.54c0.45,4.93-1.8,8.58-2.59,13.38l-47.8-1.31c-3.93,1.41-6.83-10.46-3.19-12.35
	c0-1.04,0.27-2.64,0.92-2.67c12.87-0.68,32.88-0.99,45.43,0.23C884.65,993.03,887.06,993.93,887.86,996.54z"/>
<path class="st11" d="M541.24,1119.5c-12.27,7.21-27.06,11.35-36.75,21.22l-41.34,5.31l50.02-23.28L541.24,1119.5z"/>
<path class="st11" d="M437.77,1264.46c-2.48,5.77-9.3,8.3-10.7,14.52l-26.53,4.12l7.97-11.92
	C417.59,1269.07,428.44,1266.59,437.77,1264.46z"/>
<path class="st11" d="M436.65,1132.94l-42.81,17.4c-4.75,1.93-11.24,1.25-16.1,1.55c3.87-6.25,13.14-5.77,16.19-12.59
	L436.65,1132.94z"/>
<path class="st13" d="M638.66,996.14c4.47-2.57,10.08,5.81,4.02,6.87l-41.45-1.53c-3.33-2.17-2.62-4.81,1.38-4.93l1.91-2.7
	l31.28-0.32L638.66,996.14z"/>
<path class="st13" d="M641.68,1069.81c0.37,0.37,1.09,0.55,1.28,1.02c0.47,1.13,1.77,0.4,2.34,0.2c0.56-0.2-0.89-3.79-0.25-3.79
	c53.68-0.11,107.26-0.09,161.13,3.75c6.55,0.47,13.11,0.05,17.73,5.45c-35.55,6.29-69.77,8.62-105.11,10.69
	c-185.89,10.89-371.49,15.79-557.83,14.73c-43.59-0.25-86.54,0.19-131.08-6.41c50.78-10.31,100.53-7.64,149.59-12.5
	c3.98-0.4,8.32,0.77,13.02,3.51c22.65,4.78,45.7,4.8,69.15,0.05c-1.37-3.76-1.07-6.48,0.89-8.16l1.1-2.74
	c25.77-1.35,51.56-2.7,77.35-4.05l1.75,2.59l3.08-0.12c3.51,4.75,10.46,7.94,16.39,7.84c39.01-0.67,78.15-1.45,117.14-3.2
	c-2.29-1.49-5.38-8.16-1.37-9.77l4.52-3.15c6.26-1.23,32.33-3.82,36.16-1.49c0.83,0.5,1.56,1.16,2.26,1.86
	c0.59-3.54,1.84-3.32,2.73,0.12l1.49-1.48c-1.73-5.13,6.97-8.83,10.06-3.23l0.07,11.91c1.76,3.37,5.35,5.3,10.77,5.8
	c24.82,2.45,49.73,2.74,74.73,0.87c-5.47-14.14,3.79-9.74,11.47-3.21c-4.61-8.48,2.61-9.3,8.08-3.17
	C639.23,1072.06,640,1071.02,641.68,1069.81z"/>
<path class="st15" d="M718.22,843.61c0.64,5.73-1.84,13.7,0.33,18.55c20.7,0.2,39.77-11.52,59.49-10.28
	c35.1,2.21,69.03,9.28,103.58,14.7c16.43,2.58,30.54,10.99,47.02,14.55l156.79-25.65L1200,843.92v3.69
	c-15.32,7.12-27.88,20.21-44.21,26.59c-13.29,5.19-27.76,10.95-41.51,11l-37.5,0.13c-7.65-1.89-16.55,0.63-24.11,1.35
	c-7.46,2.08-14.93,2.77-22.39,2.06c-45.57,5.17-91.11,10.9-136.6,17.19c-10.23-1.36-4.04-5.96,1.47-9.78l13.36-7.24l-15.95-3.16
	c-21.39-0.68-42.59,2.38-63.6,9.16c-7.86,2.04-15.5,2.11-22.93,0.2c-7.52-3.91-15.25-7.12-23.16-9.61
	c-20.33-0.7-40.68-0.75-61.05-0.15c-0.57,1.91-2.22,3.29-4.96,4.15c1.44,8.01,3.59,15.84,6.43,23.48l-3.54,2.53l8.14,11.52
	l-0.65,3.69c4.07,0.67,5.94,2.19,5.61,4.53c5.12,0.94,7.31,3.1,6.58,6.49l6.16,2.21c5.71,6.48,12.42,11.07,20.11,13.78l1.36,2.93
	c12.03,4.26,24.3,7.86,36.78,10.8l1.03,3.3c8.09,1.22,14.48,2.7,21.11,7.76c3.96,3.02,11.43,8.89,8.29,13.75l3.19,12.35
	c4.2,16.25-2.38,32.09-15.84,41.54c-33.36,23.42-59.6-8.26-92.97-20.38c0.84,3.92,4.65,5.55,4.57,9.22l-20.62-13.34l2.36,13.54
	c-9.03-6.47-15.66-14.08-24-21.53c0.96,6.56,5.01,10.71,4.89,16.43c-11.07-9.28-19.74-18.42-28.8-28.5l5.09,16.44
	c-6.63-5-10.67-11.08-16.35-17.65c-4.46,0.99-9.39-1.25-13.12-1.39c1.52-3.56-2.9-4.68-4.02-6.87l-3.61-1.2
	c-4.47-8.05-10.04-15.68-17.95-20.61l-1.01-3.66c-1.31-0.17-3.17-0.47-3.44-1.49c-2.01-7.43,11.88-45.66,16.2-48.03
	c1.51-0.98,3.14-0.68,4.87,0.89c1.78-11.97,7.09-20.99,15.92-27.07l7.06-13.68c1.52-3.86,3.58-5.19,6.17-3.96
	c6.9-10.47,14.37-17.24,25.04-23.65C696.43,848.53,708.7,841.37,718.22,843.61z"/>
<path class="st5" d="M1029.79,117.91c-23.97-2.12-110.55-2.54-108.22,35.4c-14.45,1.13-32.71-2.72-41.85,11.76
	c-26.57-3.76-95.29-7.61-108.52,21.57c-27.48,1.38-57.33,3.28-76.33,25.32c-22.14-2.98-40.94,5.54-58.6,20.54
	c-29.65-15.54-95.76-2.63-93.73,31.8c-12.26,4.85-25.86,3.15-37.42,0.11c-17.13-4.5-32.42,5.78-48.36,6.37
	c-24.91,0.93-47.64,4.71-70.99,9.95l-58.72-9.2c-24.4-3.82-47.51,8.96-59.68,31.26l-56.6-4.27c-18.08-1.36-28.26,7.4-42.29,11.81
	c-40.26,12.65-83.06,9.42-121.8,18.9C32.51,330.29,17.5,333.6,3.14,330l130.51-24.46c33.91-25.46,78.92-31.05,119.25-24.53
	c14.93-11.52,31.96-17.66,49.96-21.34c34.16-6.98,68.76-5.13,104.7-0.3c34.51-14.31,70.28-19.73,109.56-15.89
	c23.93-54.83,118.94-53.52,170.12-43.2c9.01-10.37,18.84-18.89,30.4-24.96c23.61-12.42,50.03-17.65,77.12-19.39l65.82-4.22
	c9.33-11.77,20.8-23.04,36.76-27.26c18.5-4.89,37.57-11.58,56.38-13.15C979.11,109.18,1008.29,105.99,1029.79,117.91z"/>
<path class="st3" d="M262.46,597.74c40.92-20.4,68.53,3.15,94.95-10.91c38.47-20.46,58.12,6.02,87.48,7.74
	c18.15-16.88,40.88-22.58,61.19-7.59c8.94-10.76,20.74-18.92,34.13-17c14.52,2.08,25.51,10.37,39.31,17.98
	c-2.04-10.18,2.27-19.8,11.69-24.76c19.14-10.08,40.83-7.78,59.49,3.76c34.95-29.64,75.61,2.28,103.64,1.98
	c22.22-0.23,39.92,5.66,61.01,8.94c32.17,5,65.22,0.16,98.26,1.75l153.78,7.4l-328.09,5.24l-281.11,15.26l-322.49,2.1
	c-6.96,0.05-13.32,3.88-19.65-1.11L262.46,597.74z"/>
<path class="st11" d="M938.81,745.38c3.95,0.07,6.87,2.53,8.42,4.06c6.76,6.68-13.64,30.64-20.54,32.39
	c-7,9.34-44.1,2.75-41.62-9.33c0.4-1.93,0.92-2.87,3.12-2.54c9.33,5.65,19.89,9.81,30.89,7.48c7.05-1.49,16.86-5.34,7.39-11.03
	C915.99,756.06,924.8,738.39,938.81,745.38z"/>
<path class="st12" d="M1052.68,886.67c-5.25,0.5-9.74,5.56-15.15,4.82c-3.81-0.52-6.39-1.91-10.29-0.85
	c-3.04,0.82-1.77,6.52-3.5,8.2c-46.69,34.78-55.85,1.76-107.72,36.23c-1.44,1.34-3.13,2.04-5.07,2.13
	c-17.56,0.78-38.99,0.66-56.55-0.19l-5.27-2.26c-37.73-0.39-75.45-1.12-113.16-2.21l-8.71-1.81c-4.45-6.36-9.77-12.29-12.74-19.74
	c3.15-0.33,4.08,2.9,6.91,1.53c-5.15-10-8.21-19.66-7.08-29.54c2.01,0.95,2.56,3.67,4,3.43c0.78-0.13,1.03-3.7,2.19-3.68
	c20.75,0.33,40.89-1.53,61.72,0.03c11.16,0.83,20.87,11.32,32.18,11.12c29.16-0.52,55.6-21.03,100.67-5.71
	c-8.74,5.99-18.31,8.79-26.19,15.64C944.75,897.53,998.8,886.46,1052.68,886.67z"/>
<path class="st13" d="M890.73,790.19l-52.36,11.98c-15.99,3.66-30,7.49-44.85,12.93c-1.75,0.64-3.17,4.78-5.02,4.7
	c-1.43-0.06-5.19-3.86-6.42-3c-6.94,7.48-17.41,7.82-25.82,9.49c-13.47,2.68-25.67,13.82-38.03,17.32
	c-21.64,6.11-39.88,17.26-55.37,33.71l0.01-5.05c17.8-27.35,24.08-59.57,13.19-90.87c0.02-1.51,0.17-2.76,0.79-3.07
	c4.96-2.5,8.79,6.43,10.39,10.22c5.75,18.04,11.93,31.55,33.62,27.33c7.82-1.52,15.24-4.66,22.49-7.92
	c18.67-10.54,38.08-18.44,58.24-23.71c15.35-0.04,30.69,1.08,46.01,3.37c13.89-2.31,27.59-2.45,41.12-0.41L890.73,790.19z"/>
<path class="st0" d="M910.8,939.16l-14.73,21.4l-1.61,2.68c-39.84,0.03-79.74,0.07-119.67,0.1l-7.72-2.67
	c-10.66-1.16-20.08-11.85-27.63-18.92l0.89-2.69c56.53-0.97,113.04-1.52,169.53-1.67L910.8,939.16z"/>
<path class="st13" d="M896.07,960.55c-0.39,4.84-4.58,10.21-5.64,14.79l-1.27,2.67c-24.08-0.14-48.21-0.32-72.38-0.55l-11.91-2.71
	c-12.63-5.47-28.67-4.28-37.81-14.1L896.07,960.55z"/>
<path class="st0" d="M890.43,975.34c-1.54,6.63-3.2,14.41-2.57,21.2l-53.58-0.27c-5.94-12.12-17.66-16.42-29.4-21.51L890.43,975.34z
	"/>
<path class="st13" d="M849.11,934.74c22.07-2.23,44.8,1.43,66.9,0.33c-1.95,1.3-1.52,4.03-5.2,4.08l-171.37,2.59
	c-2.29-2.14-5.36-3.43-6.58-6.49l3.58-1.92C773.97,933.5,811.53,933.97,849.11,934.74z"/>
<path class="st0" d="M638.66,996.14l-36.05,0.41c-3.18-2.39,0.38-12.35,1.94-16.19c1.48-5.31,6.46-15.82,11.53-9.68
	C626.44,976.08,633.39,985.84,638.66,996.14z"/>
<path class="st0" d="M849.11,934.74c-38.55,3.9-77.59-1.14-116.25,0.51c-1.79-1.05-4.21-2.52-5.61-4.53
	C767.93,930.76,808.57,931.88,849.11,934.74z"/>
<path class="st15" d="M212.98,847.72c1.41,8.21-1.34,19.59-4.08,27.81l-3.81,5.56c-16.31,8.94-33.42,16.17-51.41,24.29
	c8.91-19.08,19.98-34.74,31.11-52.91c-7.25-0.84-14.64-0.86-22.33-0.52l-10.22,23.16l-10.53,1.88l-8.01,28.03
	c-22.93-2.15-46.47,4.8-68.9,0.54c-16.48-3.13-45.34-27.62-64.8-26.97v-36.16l116.3-19.1L212.98,847.72z"/>
<path class="st13" d="M192.83,933.41c3.74-0.19,3.54,1.8,0.04,2.8c-22.83,0.03-45.56-0.17-68.93-2.73L192.83,933.41z"/>
<path class="st0" d="M268.19,1016.23c2.03-1.1,4.19-2.14,6.53-2.25c8.16-0.38,39.92-1.1,44.75,0.86c1.13,0.46,2.19,1.09,3.23,1.76
	c1.96-1.99,2.97-1.11,3.16,1.45c3.67-1.34,4.68-1.39,6.91,2.08c4.23,6.6,13.64,44.69,11.43,51.08c-0.35,1.02-0.88,1.98-1.45,2.92
	l-80.21,4.2l-3.21-0.45c-7.08-7.77-16.96-12.36-29.64-13.78c-9.75-14.49,4.24-31.28,18.29-36.14l10.62-13.52
	C262.55,1012.21,266.12,1011.41,268.19,1016.23z"/>
<path class="st0" d="M507.27,1022.92c8.63-5.8,12.98-5.36,13.06,1.32c-3.76,5.2-6.03,10.74-6.83,16.6
	c9.26-0.33,14.63,8.71,7.22,15.67c1.52,4.05,1.59,7.25,0.21,9.6c-13.66-0.6-28.63,1.36-42.95,2.78c-2.58,0.42-5.17-0.74-7.75-3.48
	c-9.2-3.35-18.74-5.91-28.63-7.68c-10.45-4.44-13.98-13.07-16.43-23.49c-1.1-4.67-3.61-15.47,0.85-17.57l1.24-2.67l77.51,0.27
	l2.74,1.68C506.43,1019.56,506.35,1021.89,507.27,1022.92z"/>
<path class="st0" d="M436.48,976.23c0.11-1.05,0.49-2.65,1.22-2.68c8.95-0.31,69.92-1.49,72.51,1.05c0.4,0.4,0.62,0.95,0.69,1.57
	c-2.28,6.82-3.43,13.55-3.46,20.17c1.75-3.83,4.51-2.4,3.17,1.62c4,1.65-0.68,12.4-3.06,14.28c-3.15,2.48-70.24-0.25-80.05-0.76
	l-1.56-2.71c-5.34-2.41-5-15.26,2.29-15.12l-0.28-17.87C429.58,970.28,434.13,973.3,436.48,976.23z"/>
<path class="st13" d="M507.44,996.34c-4.69-5.32,2.12-13.38,1.43-20.06l-72.39-0.06c-5.3-1.75-7.6-14.89-3.7-18.66
	c3.25-1.08,6.61-2.17,10.07-2.13c18.13,0.24,36.44,0.63,54.56,1.12c3.45,0.09,6.77,1.23,9.98,2.4c3.85-0.56,3.66,2.58,0.26,3.74
	c0.74,1.04,1.9,1.07,3.49,0.09c-2.57-6.39,7.2-13.3,7.69-3.38c0.3,6.11-5.41,27.15-7.85,33.73L507.44,996.34z"/>
<path class="st0" d="M507.83,949.75c6.41-3,5.55,10.31-0.44,9.2c-24.81,0.93-49.81,0.07-74.61-1.38c-3.58,0.17-3.64-1.1-0.46-2.69
	c0.45-1.45,1.31-2.57,2.5-3.48c3.93-3,33.93-8.08,40.61-8.51c7.32-0.47,23.87-0.37,29.86,3.13
	C506.65,946.81,507.3,948.36,507.83,949.75z"/>
<path class="st13" d="M507.27,1022.92c-3.95,3.35-0.54-3.25-1.79-5.99l-79.46-0.25c-3.88-2.01-3.96-5.82-0.09-7.9l80.28,1.43
	c2.71-3.94,4.01-8.14,4.4-12.25c-1.58-5.49,7.88-10.03,8.46-3.22c0.27,3.14-5.91,21.37-7.86,25.15L507.27,1022.92z"/>
<path class="st13" d="M321.23,1007.24c4.27,0.46,5.6,7.74,1.47,9.37c-18.16,0.08-36.43,1.12-54.51-0.38
	c-1.58-4.66,4.67-10.97,9.3-9.11l5.38-1.82c11.6,0.18,23.2-0.08,34.81-0.77L321.23,1007.24z"/>
<path class="st0" d="M311.85,987.05c1.37,1.17,0.77,2.57,0.07,4.02c1.94,0.59,2.11,2.34,0.5,5.23l2.27,0.66
	c5.95-9.32,12.42,5.57,6.55,10.28c-14.67-0.34-29.52,2.38-43.73-0.12c0.21-5.51,11.32-15.14,15.42-8.87l14.31-14.39l3.23,0.55
	C313.9,982.86,314.54,984.58,311.85,987.05z"/>
<path class="st13" d="M796.13,687.1c-2.94,4.28-8.48,7.19-9.72,13.76c-7.31-3.64-15.08-19.46-7.1-25.88
	C784.87,670.51,796.06,681.64,796.13,687.1z"/>
<path class="st0" d="M511.14,962.78c-0.07,0.1-3.74,7.31-4.31,5.79c-1-2.7,0.44-4.79,0.81-5.87
	C508.55,959,510.11,959.17,511.14,962.78z"/>
<path class="st13" d="M507.83,949.75c-25.13-9.66-51.42-1.6-75.51,5.13l-4.03,2.95c-31.26,8.9-63.19,15.15-95.77,18.75l-14.68,17.23
	c-1.72,1.67-3.52,2.5-5.42,2.49c-0.29-1.67-1-3.52-0.5-5.23c0.98-1.65,0.95-2.99-0.07-4.02l-1.38-2.65
	c-5.33-2.84,4.75-14.67,9.22-8.91c33.96-30.26,55.93-72.16,65.4-116.52c0.76-1.71,1.53-3.04,2.35-3.07
	c5.27-0.18,3.84,26.96,3.48,32.18c-1.1,15.99-4.61,31.58-8.65,47.04c5.94-3.18,8.57,1.25,6.34,6.83l21.05-12.6
	c5.72-0.42,5.18,4.74,2.86,8.87c10.42-4.56,20.6-9.88,30.53-15.96c7.42-2.14,5.75,4.25,3.71,9.09
	c12.19-6.07,23.77-13.17,34.72-21.32c2.19-0.89,3.93,0.15,5.23,3.11c4.81-4.68,8.31-10.47,11.27-16.45
	c12.35-29.6,26.9-58.11,43.67-85.54c7.46-5.72,9.63-5.1,6.51,1.86c-14.76,39.31-27.13,79.26-37.1,119.84l-3.38,3.35
	C514.89,940.65,516.99,947,507.83,949.75z"/>
<path class="st0" d="M941.76,1027.22c3.91,0.36,7.01,3.01,9.28,7.94c2.81,4.52,8.34,14.57,2.5,17.58l-26.45,0.36
	c-5.28-5.28-11.19-7.46-18.57-7.87c5.32-8.05,13.63-8.74,19.57-13.62C932.75,1026.7,937.57,1028.2,941.76,1027.22z"/>
<path class="st15" d="M432.32,954.88l0.46,2.69c1.06,6.23,1.38,12.75,3.7,18.66c-1.71,0-3.8,1.74-5.89-2.37l0.41,26.38
	c-1.27-0.34-1.57-1.42-3.82-4.46c-3.77,2.24-1.05,8.76-1.25,13c-0.12,2.65,0.01,5.26,0.09,7.9c0.42,13.58,2.54,34.14,17.44,38.87
	c12.57,3.99,26.16,2.2,34.52,13.35c-0.04,3.8,3.48,6.46,2.52,11.58c-39.7,2.79-78.12,3.97-117.48,4.07
	c-7.98,0.02-16.66-3.83-20.27-10.41c-2.19-18.88-5.91-37.66-13.36-55.3c-2.42,1.46-2.09,3.24-3.14,4.9
	c-2.38,3.75-3.58-10.64-3.55-7.13c-0.03-3.22-0.82-6.22-1.47-9.37c-0.8-3.89,0.16-9.28-3.05-11.82c-1.96,3.14-4.76,8.48-5.44,5.65
	c-0.57-2.38-0.13-3.64-0.32-4.77c5.94-7.27,11.5-15.23,19.07-22.1C365.64,969.11,399.48,964.06,432.32,954.88z"/>
<path class="st15" d="M983.17,1014.1l2.81,1.29c-2.18,16.45,2.84,26.16,15.05,29.13c3.74,1.74,7.36,4.87,3.4,8.14
	c-15.85,4.66-37.46,8.26-50.9,0.09c0.75-10.33-5.61-17.7-11.77-25.52C956.51,1023.76,969.58,1018.28,983.17,1014.1z"/>
<path class="st0" d="M1004.43,1052.65c-0.7-7.11-9.1-5.93-13.64-9.27c-8.88-6.53-6.55-19.73-7.63-29.28
	c6.38-1.96,12.35,1.08,19.1-0.46c3.37,15.47,15.66,24.73,25.21,37.82C1019.27,1054.78,1011.26,1050.65,1004.43,1052.65z"/>
<path class="st15" d="M943.91,914.7c-34.8,5.45-67.74,10.96-104.35,10.91c9.67-6.83,21.07-15.52,32.29-18.4
	C896.3,907.05,919.28,912.1,943.91,914.7z"/>
<path class="st15" d="M311.92,991.07c0.05-1.34,0.03-2.68-0.07-4.02c1.32-0.32,1.6,0.74,1.58,1.86
	C313.41,989.82,312.15,990.3,311.92,991.07z"/>
<path class="st14" d="M938.81,745.38c-6.09-0.11-14.11,2.56-14.38,8.98c-0.27,6.37,3.72,11.01,11.13,16.52
	c-12.57,13.98-33.31,12.14-49.21,0.69c7.33,14.58,25.89,12.52,40.35,10.26c-0.75,1.59-1.7,3.06-2.74,4.47
	c-10.37,6.03-22.35,1.39-33.22,3.88c-9.04-1.22-19.77-3.28-29.51-1.13c-20.3,4.48-40.51-4.76-59.28-2.16
	c-35.52,4.91-82.41,49.26-106.07,25.42c-9.02-9.09-8.19-23.44-17.95-33.65c12.85,37.96,4.91,67.53-15.07,98.65
	c-7.21,7.39-8.13,20.57-16.25,23.25c-8.11,5.36-7.56,19.93-13.96,30.18c-0.65-4.82-1.38-4.94-1.01-9.3
	c-4.7,9.92-21.25,39.95-15.55,49.23c-8.22-0.71-9.64,15.28-13.47,25.87c-0.61,1.67-0.93,3.24-1.38,4.93
	c-4.08,15.13-11.43,38.84,2.29,50.11c12.32,6.04,33.04,2.87,38.17,18.23c1.51,4.52,4.57,8.74,4.57,13.96
	c-6.6-4.06-7.5-10.65-14.16-12.15c2.29,3.71,6.19,7.53,4.47,12.12c-6.38-3.65-8.58-9.55-15.76-10.74c0.71,3.27,2.98,5.19,3.17,9.82
	c-17.85-0.54-78.65,5.6-90.05-5.83c-2.92-2.92,0.01-10.83-1.41-15.72c-2.62-1.02-5.08,2.43-7.35,3.48
	c-0.62,0.29-0.95,1.09-1.49,1.48l-2.73-0.12c-9.76-19.08,9.26-9.94-3.34-22.38c-1.47-1.45-3.41,0.03-5.93,2.04
	c-3.06-9.75,2.99-16.06,7.04-24.21c-5.17-1.77-7.45,5.77-11.43,1.36c3.55-9.86,7.22-19.51,9.71-30.61c-2.84,1.84-3.73,4.6-6.37,5.65
	c-0.76-1-1.94-1.49-3.17-1.62c3.2-13.61,7.91-26.69,9.2-41.47c-1.71,2.97-3.67,5.32-5.5,7.91l-3.49-0.09l-0.26-3.74
	c1.26-2.26,3.89-7.88,0.44-9.2c0.18-3.17,3.65-4.44,4.13-7.4c-2.41-0.45-7.8-4.82-7.17-6.65c0.69-1.98,4.39-3.35,5.14-6.5
	c9.82-41.65,21.35-81.68,37.69-121.92c-18.58,25.71-30.59,54.58-43.75,83.23c-5.38,11.71-10.61,22.51-21.67,29.6
	c0.94-2.91,0.71-5.59,2.22-8.9c-13.13,9.03-26.25,18.86-42.53,25.08c1.26-5.05,3.45-8.82,5.23-13.32
	c-12.78,7.4-25.13,14.47-38.65,20.58c0.53-5.6,2.91-8.45,3.83-12.71c-9.31,5.47-17.62,11.72-27.2,15.66
	c-0.86-3.79,5.08-12.66-0.85-9.42c-1.76,0.96-3.24,2-6.67,2.89c8.79-26.57,13.21-54.86,10.18-82.99
	c-9.09,50.95-35.37,93.43-70.58,125.11c2.78-15.33-8.2,2.77-6.73,2.32l-18.66,18.77l-2.56-5.87c-4.14,4.09-7.86,6.97-11.75,9.83
	c-3.53,2.59-6.45,5.74-9.3,9.11c-1.9-0.16-4.39-0.7-6.1-1.07c-7.17,4.61-8.84,15.29-17.11,17.46
	c-10.26,2.69-20.63,20.56-13.87,29.39c12.61,3.37,25.95,4.07,31.42,16.33c1.19,2.66,1.55,6.24,2.17,10.42
	c-24.98,3.61-65.27,9.01-85.23-5.83l-21.62-24.57c-10.36-11.77-15.8-26.64-14.94-41.83c0.28-4.96,4.22-7.72,5.5-12.32
	c9.85-8.66,19.52-19.84,25.43-31.69c3.05-6.11,6.98-11,10.78-17.32c3.39-5.63,8.31-12.03,8.22-19l-0.04-2.8
	c1.18-1.8,1.38-3.99,1.25-6.1c6.63-5.15,7.1-14.59,12.38-21.72c-3.86,0.07-3.62,3.77-6.97,4.76l10.66-33.23
	c-1.79,1.91-3.22,2.97-5.05,3.97c2.01-11.19,4.94-22.35,7.89-33.37c2.34-8.76,8.35-16.94,9.95-26.78c-3.18,0.02-5.29,3.15-8.88,3.97
	c6.49-12.25,14.54-22.3,23.33-32.95c-4.41-1.16-5.72,4.09-9.95,1.2l44.43-45.99c47.74-49.42,110.81-72.54,181.02-68.45l77.43,4.51
	c26.33,1.53,50.47-4.27,73.27-16.98c46.12-25.71,64.59,6.93,108.18,5.48c18.45-0.62,37.04,1.24,55.3-1.47
	c4.89-0.73,8.01-8.12,14.67-6.67c4.27,0.93,10.18,4.05,14.34,7.7c24.35-1.47,46.45,2.28,68.01,14.3
	c11.86,6.62,27.45,10.4,36.01,21.17C898.95,724.73,928.06,730.61,938.81,745.38z"/>
<g>
</g>
<g>
</g>
<g>
</g>
<g>
</g>
<g>
</g>
<g>
</g>
<g>
</g>
<g>
</g>
<g>
</g>
<g>
</g>
<g>
</g>
<g>
</g>
<g>
</g>
<g>
</g>
<g>
</g>
</svg>
