<?xml version='1.0' encoding='UTF-8'?>
<svg xmlns="http://www.w3.org/2000/svg" id="Layer_1" viewBox="0 0 1200 1543" xml:space="preserve" width="1200" height="1800">
<style type="text/css">
      .cls-1 {
        fill: #491f15;
      }

      .cls-2 {
        fill: #944324;
      }

      .cls-3 {
        fill: #b75930;
      }

      .cls-4 {
        fill: #cf7220;
      }

      .cls-5 {
        fill: #d78137;
      }

      .cls-6 {
        fill: #df8624;
      }

      .cls-7 {
        fill: #cc7f91;
      }

      .cls-8 {
        fill: #aba793;
      }

      .cls-9 {
        fill: #e79281;
      }

      .cls-10 {
        fill: #e79d4b;
      }

      .cls-11 {
        fill: #f2a938;
      }

      .cls-12 {
        fill: #eea478;
      }

      .cls-13 {
        fill: #f5b471;
      }

      .cls-14 {
        fill: #efb49d;
      }

      .cls-15 {
        fill: #f8c67f;
      }

      .cls-16 {
        fill: #fae8b3;
      }

    </style>
<path class="cls-7" d="M0,127.23V0h1200v125.86l-0.92,2.68c-265.17,2.54-532.03,3.72-800.6,3.55l-201.42,2.66  c0,0-4.94,0.64-14.81,1.93l-7.2-0.53c-52.64-24.92-112.71-26.23-167.78-8.5L0,127.23z" />
<path class="cls-9" d="M1200,125.86v32.15l-5.02,1.26c-116.53-10.13-229.2,23.18-332.72,74.84l-57.2-5.29  c-90.39-10.43-177.94,1.85-265.52,22.62c-85.48-1.87-170.54,5.59-255.48,13.72c-4.36,1.27-8.81,2.52-13.38,2.68  c-77.21,2.56-155.17,4.03-231.54,2.86L9.9,272.96c0,0-1.06,0.91-3.17,2.74c-0.23,4-6.68,2.68-6.73-1.15v-77.68l1.29-2.68l602.34,0.1  c-71.45-12.03-144.12-15.11-216.4-15.42c-22.37,0.1-42.02-8.66-61.22-19.37c-19.37-9.29-40.8-12.01-61.2-5.98  c-12.2,5.02-24.47,7.63-36.79,7.84c-15.45-6.14-30.54-13.28-45.25-21.42l-0.52-3.26c3.39-4.54,10.32-4.54,17.1-4.65  c106.38-1.64,212.17-3.32,318.76-3l203.44,0.61l256.08-2.48L1200,125.86z" />
<path class="cls-12" d="M284.06,265.17c32.09-1.14,64.2-2.17,96.31-2.16c241.04,0.03,482.1,0.23,723.14,0.76  c16.08,0.04,32.16,0.48,48.25,0.94c16.09,0.47,32.17,1.14,48.25,1.86v93.76c-11.08,1.6-16.62,2.41-16.62,2.41l-115.8-1.75  c-149.7,2.03-298.86,3.05-447.47,3.05l-18.4-1.79c-4.68-0.46-7.87,1.06-9.58,4.56l-5.55,2.02c-15.08-1.59-30.34-1.42-45.33,0.88  l-5.65-1.73c-1.52-0.18-2.69-1.39-3.48-3.64l-5.39-1.11l-157.8,4.08c-118.52,0.45-237.9,0.96-358.14,1.52c0,0-3.59-1.07-10.77-3.2  v-12.05l1.29-2.68l456.44,0.52c-40.33-6.64-81.3-7.17-122.11-6.54c-63.21-21.29-130.23-25.2-195.84-13.81  c-40.24-21.52-81.43-42.45-126.51-51.42l-6.54-3.94c-0.26-0.72,0.26-4.14,1.83-5.16c28.4-3.92,56.06-2.76,85.11-2.05  C157.87,270.06,221.66,264.77,284.06,265.17z" />
<path class="cls-6" d="M1200,577.43v171.25l-1.2,2.57c-60.02-6.09-120.05-12.18-180.11-18.28l-2.26-2.92  c-5.14-2.62-10.03-15.36-6.47-20.22l1.08-2.72l32.53-1.57c-4.81-16.48,5.11-15.23,9.93-1.06c6.22,3.95,7.58,1.11,4.1-8.51  c3.84-9.72,9.76,3.3,11.51,8.68c9.85,1.53,18.75,0.47,26.7-3.18l4.23,1.18c-1.39-16.08,7.16-14.2,9.68-0.09  c4.72,1.73,5.88,1.66,3.75-3.4c1.54-4.29,4.53-4.25,8.97,0.13c11.13,5.53,20.22-0.65,28.18-8.72l2.41-0.24  c1.23,2.64,2.99,2.41,5.27-0.69c4.2,0.16,4.65-1.03,1.36-3.56c-45.74-11.93-84.59-38.3-120.42-68.28  c-44.03-31.22-98.17-32.7-143.06-2.28c-36.43,29.55-74.99,55.94-120.23,69.79c0.96,3.74,3.21,7.59,5.85,10.35  c4.52-4.94,4.93-4.43,8.17,0.36c1.31,1.94,10.16,4.2,12.07,1.26c2.12-5.05,5.5-11.75,9.26-4.38c-3.78,6.99,1.39,9.68,15.53,8.07  l1.1-13.11c2.49-3.74,3.94-2.8,6.21,0.39c0.26,4.77,0.37,9.35,0.35,13.71l19.76,1.03c5.79-9.91,10.21-11.99,13.26-6.24  c4.51,0.78,5.06,3.02,3.58,6.88l23.02,1.17l4.42,2.54c3.64,0.12,3.82,0.9,0.64,2.71c2.24,2.59,4.61,7.56,0.79,9.34l-1.14,2.6  c-90.27-7.13-180.56-14.26-270.86-21.4l-1.43-2.8l-2.67-1.85c1.43-4.22-1.02-5.55-7.35-3.99c-2.21-2.76-3.18-2.18-2.91,1.74  c-2.2,0.88-4.51,1.85-6.93,2.9c-1.48,0.67-2.98,1.28-4.53,1.71c-1.52,0.42-3.03,0.78-4.52,0.77c-14.67-0.08-31.5-0.3-44.78-5.88  c-1.44-2.57-3.06-3.29-4.88-2.14c-1.25-2.35-2.46-2.21-3.64,0.42c-2.81-0.28-5.24-0.04-7.31,0.7c-4.82,2.76-10.78,3.45-17.87,2.06  c-4.86,0.53-8.33-0.77-10.4-3.9c-1.63-3.47-2.78-4.34-3.47-2.61c-2.43-0.09-4.39,0.58-5.88,2.01c-4.16,4.03-16.5,3.69-19.81-1.25  l-6.14-2.2c-0.3-3.2-1.36-4.7-3.2-4.51c1.15,3.8,0.28,5.8-2.6,6c-2.99,0.51-5.99,0.96-9.01,1.23c-3,0.27-5.99,0.5-8.96,0.37  c-62.41-2.74-124.84-5.83-187.15-10.26c0,0-5.83-1.4-17.49-4.2c-2,0-3.08-1.66-3.24-4.96c-2.44-0.16-4.02-1.11-4.76-2.84l-3.57-0.57  c-11.04-17.5-53.17-14.17-60.68,5l-3.11,1.19l-1.71,2.64c-55.47-1.44-110.94-2.88-166.4-4.32L0,668.3v-28.12l0.73-2.74  c45.07-3.26,90.15-6.52,135.24-9.78l1.81,2.55l43.31-5.12c169.9-9.57,339.22-19.1,507.96-28.61l1.81,2.58  c-1.85,4.64-6.12,7.98-12.79,10.02c-7.7,2.59-14.75,5.98-21.15,10.16c9.97,2.42,20.51,2.96,30.89,3.45  c54.13,2.54,109.22,1.79,163-1.13l0.83-4.84c-13.85-4.43-26.52-10.79-38.03-19.1l-0.71-4.23l15.94-2.86  c112.76-7.93,225.7-12.91,338.8-14.95C1167.64,575.59,1178.43,576.2,1200,577.43z" />
<path class="cls-11" d="M149.94,918.77c1.26-3.72,5.49-2.14,5.17,1.71c3.08-0.42,6.29-0.78,9.63-1.06l8.16-12.28  c3.16-4.3,6.59-7.54,8.6-0.63c-2.46,4.64-4.19,9.13-5.19,13.47l3.57-0.53c3.54-7.92,12-12.14,9.37,0.03l13.6-0.06  c-0.76-8.35,9.23-6.45,12.11-0.72c0.53,1.05,23.02-0.28,23.38-1.4c-8.51-15.17,1.55-19.65,8.43-2.62l1.3,0.89  c1.02-9.82-0.75-19.93-5.31-30.35c-0.25-3.98,1.71-4.06,5.19-3.51c2.04,0.32,5.97,9.93,6.86,12.28c2.43-5.24,8.76-15.25,11.02-5.78  c-3.45,8.09-12.55,33.72,4.68,26.76l-2.49-14.46c2.8-3.86,5.64-2.31,7.87,1.41c0.96,6.36,3.26,11.37,6.87,15.04  c1.41-2.86,3.11-4.26,5.22-0.94c1.56-3.78,4.37-4.04,6.62-0.34c1.48-3.6,6.2-3.76,7.84-0.2c0.02-3.95,5.88-4.5,7.21-0.78  c1.07-3.98,7.76-4.79,10.45-1.78c-0.07-2.57,1.38-3.37,4.35-2.38c6.42-16.73,13.65-33.35,24.21-47.95c2.5-1.99,4.12-0.95,5.77,1.47  l-16.23,44.98c6.26-0.07,11.64-3.84,16.14-11.29c5.73-4.8,10.83-10.14,15.3-16.01c2.54-6.54,5.2-8.49,8-5.84  c-1.62,9.83-4.03,19.61-7.24,29.32l2.85-0.56c5.45-6.03,9.16-6.5,11.11-1.43c3.22-0.02,4.59-2.19,4.09-6.51  c0.94-8.18,10.66-18.65,10.75-4.9c2.43,3.01,3.03,5.6,0.55,8.78c-1.03,5.24,16.67-13.03,17.17-13.95c5.32-5.56,9.04-6.69,11.17-3.37  l-8.38,13.57l0.81,2.9c-0.5,7.47-3.05,14.57-7.63,21.29c-30.4,51.64-58.84,103.3-85.32,154.96c1.14,12.33-2.37,29-6.11,41.04  l-3.03,1.27c0.36,4.09-8.91,5.08-10.33,2.42c-2.43-4.55-0.55-27.34,0.86-33.49l3.12-3.87c1.74-2.38,4.32-3.13,7.75-2.22  c1.26-40.52,9.63-80.41,18.64-119.81c-11.95,32.59-22.08,66.04-26.83,100.51l-4.67,18.73c1.03,0.25,2.55,0.8,2.5,1.53  c-0.36,6.09-3.22,34.22-4.89,38.25c-2.1,5.08-6.18,6.46-11.72,6.96c-8.45,0.77-9.26-0.74-11.8-8.84c2.01,5.87,1.15,9.19-2.6,9.96  c-18.42,2.03-36.97,4.65-53.75,13.01c-3,0.98-4.35-0.55-5.36-3.28l4.4-17.52l-7.79,19.82c-6.75,11.31-13.56,13.65-15.46-2.2  c0.88,7.15-0.91,11.85-5.39,14.09c-6.25,2.35-12.59,3.47-19.02,3.37c-3.34-8.54-6.87-17-10.59-25.39  c3.82,14.3,5.73,21.46,5.73,21.46c0.87,2.51,0.13,4.27-0.84,6.35c-0.98,2.12-39.1,12.34-44.51,13.57l-2.27-2.13l-2.77-0.99  c-0.43-16.4-1.37-15.45-2.83,2.85l-2.85,1.64c1.59,3.46,0.86,4.26-2.74,3.02c1.76,3.79-11.33,7.27-13.06,6.39  c-0.56-0.28-0.99-0.81-1.38-1.41c-2.08-11.1-1.98-22.62,0.3-34.57l-2.9,14.08c-0.46,8.91-2.43,17.05-5.9,24.42  c-0.07,1.57-0.44,3.1-1.48,4.32c-2.07,2.44-19.05,11.97-23.14,13.83l-4.54-0.33c-0.71-0.73-1.37-1.48-1.87-2.33  c-0.49-0.82-0.92-1.6-0.93-2.37c-0.23-19.41,4.63-38.48,9.51-57.12c-8.31,22.51-15.5,45.38-21.59,68.61l-2.64,3.92  c4.22,4.73-8.85,12.92-13.1,14.45l-2.82-1.47c-2.44-5.96-2.49-12.69-0.15-20.2c0.03-0.64,0.1,9.17-7.63,6.88  c-1.16-0.34-17.15-15.33-17.83-16.34L0,1193.3v-150c3.24-1.27,9.83,16.16,9.4,15.34c-3.56-6.74-7.19-14.8-9.4-22.03v-29.46  c5.05,2.98,8.61,7.85,10.66,14.63c1.11,1.02-9.99-22.61-10.66-24.01v-80.36c0.46-2.63,3-3.86,7.61-3.69  c-1.9-6.87,0.98-10.3,7.04-5.1L2.48,885.73c-1.47-4.03-3.85-11.47,0.78-11.65c5.96-0.24,25.02,33.33,26.03,40.33l1.47-0.93  c1.05-3.89,4.03-4.05,5.37-0.21c1.95-0.76,3.29-0.76,4.25,1.02c-1.5-15.47-4.91-30.66-10.23-45.56c0.83-2.8,1.6-4.48,4.47-3.37  c4.41,1.71,11.79,22.56,12.88,28.13c5.5-0.85,8.22,3.98,9.96,8.55c0.8,5.89,2.99,10.57,6.57,14.04c0.33-1.19,0.99-2.15,1.96-2.88  c-0.88-4.93,0.33-6.65,3.64-5.16c1.16,0.33,1.13,0.78,0,1.34c0.72,0.04,1.29,0.12,1.35,0.34c1.34,4.91-1.66,6.38-0.03,0.38  c0.09-0.34,0.66-0.55,1.35-0.72c1.6-2.21,2.13-0.87,1.6,4.02c2.16,0.22,2.84,0.87,2.58,2.82c3.13-0.52,5.22,0.4,6.28,2.77  c0.24-3.97,3.22-3.69,4.4,0c1.67-2.63,3.33-3.35,5.03-0.15c1.07-2.55,3.94-3.17,8.64-1.89c-0.25-5.19,1.6-12.01,4.94-15.73  c-0.94-4.35,2.49-5.09,3.94-0.94c3.31,1.16,5.04,4.65,5.16,10.48c-0.55,6.67,0.69,8.85,3.71,6.54l-0.57-55.34  c1.59-1.53,3.46-1.22,5.45-0.39l7.04,46.11l-0.65,13.47c1.12-3.44,1.71-3.4,2.75,0.13c0.41-2.2,2.13-3.06,5.15-2.57  c2-21.41,4.37-42.7,7.1-63.87c2.31-5.78,6.34-5.65,6.66-0.04l-2.6,60C147.63,919.92,147.96,921.24,149.94,918.77z" />
<path class="cls-13" d="M1200,360.34v129.44l-0.84,2.7c-46.51,1.38-93.03,2.76-139.56,4.14l-1.7-2.63l-2.24-2.61l1.64-10.41  c-0.25-26.07-23.7-1.87-30.47,7.38c-3.58,0.85-5.48,0.96-5.58-3.19l0.57-14.76c-2.47-39.32-27.02-6.4-33.06,11.47  c-2.27,1.69-4.06,0.52-5.64-1.75c-1.36-12.96-4.6-25.29-9.71-36.99c-11.37-18.4-21.76,14.85-23.57,23.51  c-3.82,1.82-6.87-0.65-9.16-7.41c-11.5-15.64-13.1,16.74-13.04,23.52c-0.64,4.82-2.01,7.96-7.07,4.89  c-3.92-7.61-8.66-14.58-14.22-20.91c-12.41-8.18-17.15-1.05-14.24,21.39c-1.29,4-2.28,5.24-6.45,3.34  c-6.39-6.24-13.23-9.93-20.53-11.07c-4.93,2.54-6,7.97-3.21,16.3l-2.05,2.76l-0.85,2.7c-38.06,0.96-76.12,1.92-114.2,2.88  l-1.68-2.64l-3.92-4.43c-18.16-66.17-74.68-116.5-142.26-127.71l-4.82-3.44c-0.45-1.02-1.41-2.57-1.81-4.11  c10.16-6.65,21.79-0.49,32.22-1.45c17.69-1.63,33.43-0.13,50.92-0.19l313.02-1.08c22.07-0.08,42.4-1.2,64.47-1.52  C1100.86,357.74,1150.24,359.64,1200,360.34z" />
<path class="cls-2" d="M438.23,1390.2c1.19,1.44,2.26,2.93,2.9,4.59c15.96,41.4,26.92,93.25,32.59,137.34  c0.22,1.72,0.01,3.5-0.23,5.31c-0.24,1.83-0.67,3.63-1.16,5.42h-11.56l-2.84-2.22c-10.26-23.2-22.2-45.51-35.84-66.94  c11.9,20.86,21.08,42.67,27.53,65.43l-0.75,3.74H436.8c-4.15-4.22-5.36-5.04-3.63-2.48l-2.19,2.48h-70.66l-0.13-3.6  c9.45-18.42,20.7-35.88,33.75-52.38c-16.53,15.68-31.86,32.68-44.75,51.5l-6.17,4.47h-16.3c-0.25-1.23-0.44-2.47-0.44-3.7  c0-1.22,0.01-2.38,0.44-3.35c11.59-26.63,27.86-50.76,44.15-74.64c-20.43,24.91-38.53,51.43-54.28,79.55l-3.18,2.14h-8.37l-0.85-3.8  c7.54-28.34,18.22-55.68,32.04-82.02c-16.23,26.43-30.72,53.76-43.45,82.01l-3.46,3.81h-3.83l-1.08-4.81  c3.28-27.32,6.2-54.73,8.76-82.22c-3.12,27.81-8.3,55.13-15.53,81.98l-3.04,5.05h-5.41c-1.53-5.65-2.57-5.89-3.12-0.71l-1.87,0.71  h-26.62c-0.28-1.16-0.51-2.32-0.56-3.49c-0.04-1.13-0.05-2.22,0.32-3.15c4.41-11.18,10.52-21.99,16.62-32.33  c4.45-7.53,9.25-14.89,14.17-22.09c-14.97,17.26-27.86,36.2-38.62,56.33l-5.51,4.73h-17.77c-0.35-1.44-0.65-2.88-0.75-4.33  c-0.1-1.42-0.15-2.81,0.16-4.1c2.79-11.51,7.01-23.08,11.17-34.18c8.76-23.33,19.69-45.84,31.07-67.96  c-19.84,31.77-36.98,64.94-51.41,99.51l-3.13,3.02c-0.51-1.58-0.96-3.18-1.22-4.8c-0.26-1.61-0.5-3.19-0.28-4.69  c5.41-38.21,15.26-75.56,25.85-112.62c-16.51,40.73-30.61,82.29-42.29,124.69l-3.19,5.45h-4.04l-1.61-5.05  c1.05-45.07-0.78-90.02-5.48-134.84c1.07,42.56,0.7,85.37-3.31,127.82c-0.19,2.04-0.82,4.05-1.48,6.08  c-0.66,2.04-1.51,4.02-2.41,5.99h-25.99l-2.61-5.18c0.39-22.19-0.27-44.52-5.08-66.25l0.39-7.89c-0.41-8.05,1.76-16.19,6.52-24.41  c-1.21,3.89-3.37,5.85-6.49,5.87c-2.65-2.02-3.98-3.03-3.98-3.03c0.38,3.85,0.64,8.14-1.97,11.32l1.01,5.02  c-11.94,26.03-21.25,52.88-27.94,80.57l-3.46,3.99h-8.15c-1.39-4.53-2.73-9.15-2.89-13.91c-1.1-34.27,1.48-70.45,4.71-104.63  c3.44-36.4,8.1-74.93,15.82-110.62c1.01-4.65,3.13-8.97,5.29-13.19l3.46-1.52c12.71,2.96,25.81,3.23,39.31,0.82  c3.37,2.97,2.11,6.89-3.78,11.77c-2.06,2.93,0.07,5.51,6.37,7.74c20.34,25.44,51.38,32.6,81.82,23.01  c9.06-0.1,16.6,4.62,22.61,14.16c8.33,5.81,18.37,8.65,30.13,8.52c27.45,11.27,50.08,10.2,77.7-0.05  c14.21-3.66,29.44-4.84,42.66,2.51c9.48,7.03,19.38,13.23,29.7,18.61C433.32,1386.4,436.39,1387.77,438.23,1390.2z" />
<path class="cls-2" d="M735.16,1159.73c3.16-3.7,7.44-1.29,9.25,2.7l4.15-1.32l17.5,6.14l2.63,3.39c2.81-2.25,10.57,1.28,10.63,5.11  c2.68-1.89,6.32-1.02,10.91,2.62c3.12,0.63,4.83,2.09,5.14,4.38c2.96-2.07,5.76,0.2,5.26,3.69l3.52-1.08  c6.64,3.09,12.17,7.09,16.61,12c3.58-0.62,11.4,2.32,9.53,6.56c3.94-1.06,9.47,1.01,9.48,5.47l4.63-0.01  c10.61,8.72,21.74,16.66,33.39,23.83l2.08,4.03c2.59,0.22,4.88,1.81,5.23,4.51c2.44,0.52,4.89,1.22,6.93,2.71  c14.76,10.77,28.91,24.3,41.96,37.08l5.2,0.78c9.65,8.82,19.68,17.15,30.08,24.99c3.41-0.79,6.32-0.22,8.76,1.7  c0.9-1.67,1.92-2.29,3.62-2.96c3.41-1.34,14.18-3.96,15.97-0.47c4.31,0.61,4.05,17.09,2.32,19.12c-1.9,2.23-3.3,2.54-6.14,2.52  c17.41,14.03,26.12,21.04,26.12,21.04l1.99,4.35c3.57-0.43,8.58,2.63,7.81,6.56c0.77-0.72,2.05-1.7,2.63-1.28  c3.85,2.82,22.22,17.93,24.08,20.81c3.13,4.85,8.76,30.96,9.43,37.75c0.47,4.75,0.81,9.76-1.42,14.05  c-7.68,16.57-14.68,33.64-21,51.22c-2.4,2.05-3.43,2.69-6.01,0.61c-1.89-1.53-10.17-16.84-10.52-19.35c0,0,1.82-5.69,5.47-17.07  c-7.23,0.29-9.71-12.4-9.41-18.42c-2.81-3.06-2.85-7.32-0.13-12.79c-18.73,35.4-31.42,73.6-43.44,111.66l-2.96,4.34  c-2.14-3.54-3.13-7.39-2.62-11.49c3.14-47.72,11.44-94.76,24.89-141.13c-19.45,46.62-33.75,95.57-39.85,145.84  c-4.24,11.43-6.32,12.58-6.25,3.45c0.6-46.72-0.08-93.47-4.65-139.97c0.37,12.86,0.58,25.74,0.37,38.62  c-0.29,17.02-0.86,34.35-3.1,51.23c-0.18,1.38-0.77,2.72-1.4,4.08c-0.64,1.38-1.46,2.67-2.34,3.94l-2.37-1.97  c-1.39-10.66-3.28-21.2-5.66-31.61c-9.08,27.24-16.73,55.09-20.9,83.57l-3.71,7.6h-4.77c-2.83-21.67,0.86-45.04,5.02-66.63  l-2.46-3.5c1.99-12.07,5.31-23.62,9.98-34.64l-2.04,0.05c-0.7-0.95-1.36-1.92-1.84-2.97c-0.47-1.04-0.91-2.03-0.89-2.99  c0.42-27.47,6.3-54.35,12.28-81.06c-10.03,35.28-18.42,70.96-25.17,107.05l-2.69,5.64c3.44,1.51,3.33,2.47-0.31,2.87  c3.54,1.61,1.56,9.12-1.46,10.57c1.02,0.28,2.52,0.87,2.46,1.61c-0.39,4.47-4.74,36.98-6.07,38.39c-0.82,0.87-1.73,1.43-2.95,1.52  c-2.26-5.23-3.39-7.85-3.39-7.85c-2.76-53.21-9.89-105.74-21.41-157.57c8.6,58.06,12.83,117.13,10.58,175.86  c-0.09,2.28-0.59,4.55-1.13,6.84c-0.54,2.31-1.27,4.57-2.06,6.81h-1.34l-2.45-4.74c-8.85-48.16-20.5-95.9-39.17-141.38  c7.87,29.87,15.18,60.17,20.19,90.76c2.44,14.86,4.79,30.03,5.77,45.05c0.11,1.68-0.16,3.39-0.48,5.12  c-0.32,1.76-0.84,3.48-1.42,5.19h-11.43c-2.8-3.66-4.2-5.49-4.2-5.49c-6.66-29.7-14.84-58.93-24.54-87.69  c2.69,10.54,5.34,21.1,7.56,31.75c3.53,16.92,7.06,34.38,8.7,51.58c0.15,1.59-0.07,3.22-0.35,4.87c-0.28,1.68-0.75,3.33-1.28,4.97  h-10.67l-2.96-0.96l-3.66-16.17l1.3,15.33l-2.53,1.81h-9.73c-2.45-4.15-3.68-6.23-3.68-6.23c-4.03-32.76-7.5-65.65-10.43-98.67  c-2.24-36.37-10.2-71.47-18.34-106.63c-0.41-1.79-0.01-3.52,0.84-5.14l2.45-2.95c13.28-0.21,25.49-3.22,36.64-9.01  c-3.74-5.48-9.09-9.98-16.06-13.48c0,0,0.15-1.28,0.44-3.85c7.58-2.85,15.47-5.01,23.64-6.46c13.07-1.85,19.46-7.12,19.17-15.8  c-6.75-11.09-16.36-20.24-28.81-27.43c-1.91-2.18-1.66-4.52,0.92-6.06c10.75-2.1,16.16-6.91,16.25-14.42  c-5.14-5.87-12.12-9.45-20.95-10.72c-8.88-1.25-17.09-3.67-24.65-7.25c5.22-26.5-22.02-35.23-42.52-40.67l-27.36-6.63  c-3.8-4.77-0.88-7.53,4.37-7.14C716.8,1151.62,730.27,1153.85,735.16,1159.73z" />
<path class="cls-14" d="M1200,158.01v108.57c-305.58-0.56-611.06,0.53-915.94-1.41c84.14-13.69,169.37-16.97,255.27-16.38  c40.15-7.21,77.84-17.56,118.39-22.28c68.13-7.93,135.08-2.23,204.1,5.03C968.57,178.92,1080.2,144.6,1200,158.01z" />
<path class="cls-13" d="M535.59,367.98l-4.72,3.72c-55.34,12.39-102.87,50.28-125.44,102.53l-4.53,3.95l-1.57,2.36  c-46.28-12.54-92.72-24.38-139.31-35.52c-27.68-0.1-54.97,4.55-81.88,13.93c-26.88,8.62-53.92,16.52-81.14,23.71  c-30.11,5.84-60.7,6.68-91.77,2.51L0,482.14V365.62c45.35,2.58,90.27,0.05,136.67-0.13l232.19-0.87l52.82-1.28l105.11-2.8  c2.59-0.07,5.33,1.13,7.72,1.65C536.27,362.57,535.7,366.25,535.59,367.98z" />
<path class="cls-11" d="M1051.04,509.62c2.12-0.76,4.26-1.47,6.44-1.97c2.17-0.51,4.32-1,6.47-1.03c41.09-0.65,82.21,1.24,123.24,3.35  c2.15,0.11,4.28,0.64,6.43,1.19c2.16,0.55,4.28,1.29,6.38,2.08v15.63c-3.14,1.03-6.41,2.09-9.75,1.99  c-55.89-1.67-109.49-3.22-165.66-1.25c-80.24,2.82-160.38,9.47-239.99,18.75l-440.24,53.28c-68.9,9.29-137.76,18.82-206.57,28.57  L0,640.18v-61.61c30.66-5.99,61.73-9.51,93.22-10.57c89.43-5.55,178.84-11.36,268.22-17.43l34.93-0.22l6.65-2.2  c28.31,0.51,56.54-1.15,84.69-4.99l13.27,1.48l0.71-2.75c121.07-10.01,242.53-19.6,364.36-28.77l1.85,2.54l0.84-2.71  c60.18-1.99,120.37-3.98,180.57-5.97L1051.04,509.62z" />
<path class="cls-3" d="M105.79,901.22c2.41,5.89-5.25,10.83-1.31,18.06c-4.6,1.11-8.02-0.47-12.27-0.44  c-3.73-8.13,2.29-19.29,6.6-26.98C101.98,883.15,108.94,896.98,105.79,901.22z" />
<path class="cls-3" d="M135.09,759.43c2.55,3.88-1.05,11.34-5.53,12.17l-2.22,2.86c-18.75,2.19-39.03,4.98-56.5,12.74  c-18.92,8.4-16.54,17.64,0.86,25.68c42.72,19.74,117.95,20.06,163.45,13.59c17.7-2.52,43.64-6.54,59.4-15.93  c29.32-17.48-26.93-30.41-39.73-32.18l-1.9-2.9c-4.23,0.77-8.6-10.87-5.28-13.46c1.02-0.59,2.05-1.13,3.14-1.49  c10.29-3.38,56.14,12.23,68.62,17.16c0.9,0.36,1.67,1.08,2.46,1.86c0.81,0.8,1.49,1.73,2.14,2.7c3.14-2.96,5.45-0.79,6.62,2.79  c2.49-3.16,6.1,0.67,6.97,3.64c1.56-2.66,2.87-2.08,3.92,1.72c2.8-1.97,3.98-0.8,4.03,2.51c2.9-1.08,7.13,0.01,6.53,3.78  c5.5-1.05,15.52,5.68,17.77,10.7c1.74-1.74,3.02-0.69,3.84,3.12l2.46-1.64c22.83,14.01,45.66,28.03,68.51,42.05l-0.03,3.12  c0.31,0.98,0.58,1.97,0.66,2.97c0.35,4.41-16.25,33.34-20.2,39.59l-4.52,3.17c-1.47-0.2-3.08,0.18-5.13-0.32l12.03-16.75  c-10.03,4.79-15.25,13.85-23.26,20.49c-1.24,1.03-4.22,0.05-5.64,0.93c-1.55,0.97-3.63-0.14-2.51-2.78c0.49-1.15,2.3-2.76,2.81-4.67  c0.49-1.85-2.44-2.36-2.67-3.39c-0.35-1.55,2.08-3.41-0.18-6.53c-11.49,17.61,1.99,16.02-13.56,19.72  c-3.41,0.81,0.12-2.39-1.65-5.59c-3.76,5.64-8.61,8.6-13.32,6.61c1.06-12.24,7.24-20.71,8.14-32.3  c-3.87,11.97-11.38,16.53-18.83,23.94c-6.98,6.94-10.5,16.17-22.11,11.61l17.59-48.44c-11.47,15.09-18.54,32.12-25.51,49.61  c-1.01,2.55-5.03,0.47-6.61,1.03c-0.49-1.22-0.92-2.45-1.17-3.72c-0.24-1.24-0.45-2.44-0.25-3.55c2.48-13.6,6.31-26.95,10.16-40.21  c-6.52,14.31-12.26,29.08-15.55,44.53l-3.65,4.73l-7.21,0.78c-2.68-7.08-2.81-14.92-0.38-23.54l-4.07,19.27l-3.4,4.47  c-2.07-0.16-4.5,0.38-6.62,0.34l-2.76-4.16c-0.33-11.91-1.78-23.79-4.9-35.31c1.98,11.24,3.28,22.66,4.48,34.06  c0.1,0.99-0.22,2.03-0.58,3.13c-0.36,1.12-0.89,2.18-1.47,3.22c-9.91,2.12-4.4-12.21-12.29-17.04c0.34,5.89,3.05,11.13,2.76,17.73  c-2.9,0.75-9.81,2.32-12.62,0.44c-6.71-10.28-0.49-20.67,3.27-32.55c-4,3.73-6.35,9.18-8.97,14.32c-4.07-5.91-4.43-13.25-9.9-17.06  c2.24,13.53,11.19,24.87,3.93,37.08c-6.32-2.36-6.1-10.86-11.87-14.89c0.31,5.75,3.6,9.69,5.1,15.08c-10.6,0.75-20.5,1.8-30.48,1.1  c1.12-3.96,0.88-5.34-1.4-3.15c-2.93,2.82-2.88-2.39-4.56-2.67c-1.05-0.18,1.1,5.09,0.3,6.26c-5.82,1.26-13.84,0.61-19.93,0.43  c-0.17-3.68,2.29-5.62,0.89-8.75c-1.93,2.77-3.2,5.91-4.85,7.67c-2.69,2.86-7.19,1.69-10.3,0.62l7.78-17.51  c-6.1,4.61-8.12,11.26-12.73,16.9c-2.24,2.73-10.14,2.36-11.81-0.5c-0.17-1.22-0.28-2.44-0.21-3.65c0.07-1.19,0.15-2.33,0.63-3.23  c4.23-7.91,8.56-15.77,13.51-23.22c-6.23,7.81-11.27,16.48-15.14,25.69l-3.97,2.7c-8.89,20.2,1.52-65.37-1.7-67.2  c-4.64,22.8-6.75,45.73-8.18,69.39c-2.68,0.82-5.11,0.44-7.45,0.33c-0.47-4.54,0.17-9.26,1.93-14.15l-3.15,13.46l-1.52,0.56  l-9.17-60.07l0.6,58.59c-2.85,1.77-6.52,1.06-9.57,0.13c1.99-7.56-0.66-13.41-2.01-19.53c-1,0.14-1.97-0.03-2.46-0.9  c-2.24-3.98-4.22-12.14-4.86-16.74c-7.05-11.68-7.86-12.75-2.44-3.2c3.6,2.46,4.35,12.36-1.15,12.41  c-5.05,7.62-7.27,16.57-8.82,25.46l-2.8,1.67c-1.1-0.28-3.17,0.05-4.4,0l-1.77-2.9c-0.76-15.38-1.45-30.81-2.09-46.29  c-0.3,11.72-0.78,23.44-1.63,35.13c-0.1,1.43-0.65,2.83-1.22,4.27c-0.58,1.45-1.34,2.83-2.15,4.19c-0.29-0.88,0.89-5.4-1.6-4.02  c-0.43,3.56-1.66,3.4-2.68,0c-0.08-0.43,0.01-0.9,0-1.34c-2.9-4.11-4.54-9.32-4.92-15.61c-4.99-17.77-5.35-17.12-1.08,1.97  c2.44,7.8,2.57,15.03,0.39,21.69c-9.36,3.61-5.12-16.43-15.48-20.98c0.93,7.13,9.45,16.89,3.58,24.72  c-7.26-19.12-7.23-38.77-20.27-53.68c2.21,4.83,21.99,71.17,4.26,47.12c-2.81-3.97-4.13-8.82-3.97-14.55l-2.3-12.18  c2.6,9.48,2.9,18.46,0.9,26.94c0.72,16.32-16.42-33.6-30.11-37.58c6.94,15.48,16.16,27.48,20.57,42.25  c-6.75,1.33-6.47-6.21-10.62-10.49c-3.09,2.71,1.94,8.37-0.12,8.6L0,917.41v-41.52v-2.68v-76.34c0.73-1.21,1.49-2.38,2.41-3.43  c0.9-1.03,1.79-2,2.88-2.61c35.85-20.05,81.12-32.37,122.15-33.8c1.25-0.04,2.51,0.32,3.81,0.73  C132.57,758.18,133.84,758.78,135.09,759.43z" />
<path class="cls-8" d="M400.89,478.2l3.67-1.84c109.54,19.46,223.68,22.5,334.89,23.45l3.68,2.6l116.74-2.95  c4.02,1.99,7.1,5.51,9.24,10.57c1.42,2.75,2.04,4.51-1.2,5.64l-226.33,17.45l-140.58,11.52c-10.36-0.09-19.1-3.99-28.01-8.97  c-16.9-10.62-33.63-21.36-50.19-32.22c-31.78-14.89-58.72-1.15-83.31,20.39c-13.52,8.84-28.33,17.34-44.84,17.55l-1.12,2.6  l-163.3-12.01c-38.05-1.1-75.84-1.61-113.89-2.01c-5.52-0.06-10.96-1.12-16.34-2.29v-45.54c27.99,1.84,56.42,5.31,84.86,0.29  c53.53-9.45,140.87-49.95,185.16-38.39L400.89,478.2z" />
<path class="cls-2" d="M762.14,1326.98c0.99,1.59,1.93,3.2,2.7,4.89c0.76,1.68,1.49,3.34,1.81,5.06  c8.67,46.86,14.86,95.42,13.72,142.97l-1.79,5.28l-3.42-2.93c-11.84-22.34-24.52-44.2-38.04-65.58  c17.48,35.09,35.05,71.39,40.37,110.54c1.72,6.54,1.02,11.75-2.09,15.63h-16.4l-3.9-1.38c-5.94-8.65-11.76-17.4-17.48-26.24  l1.18-3.07c-3.23-4.12-4.18-9.12-4.7-14.22c1.07,3.14,0.38,5.15-2.06,6.02c-4.4-0.43-8.12-3.01-11.17-7.75l8.75,12.1  c4.2,4.68,5.86,9.4,4.99,14.17c2.82,5.27,4.57,17.14-0.63,20.37h-4.89l-4.09-1.5c-7.73-11.08-11.44-15.91-2.5-1.54l-1.3,3.04h-28.07  c-1.43-2.34-3.14-2.34-5.14,0h-12.02c-0.56-1.2-1.07-2.41-1.39-3.67c-0.31-1.23-0.59-2.42-0.46-3.56  c1.55-13.77,4.83-27.41,8.11-40.85c2.67-10.92,5.79-21.76,8.96-32.52c-9.82,25.47-18.05,51.42-24.69,77.84l-2.46,2.76h-9.41  l-2.75-0.71l-6.62-80.71l-1.05,79.82l-2.7,1.59h-11.13l-2.68-0.9l0.02-28.9l-1.92,23.77c0,0-1.01,2.01-3.04,6.04h-17.34l-2.45-1.66  l9.7-60.04l-12,36.36c-1.24,2.76-3.9,2.52-5.75,0.26c2.12,8.19,2.16,16.17,0.11,23.93l-2.99,1.14H574.7  c-3.97,0-7.94-12.22-8.27-15.92l8-38.16c-2,9.4-5.09,18.14-9.26,26.21c-4.5-2.29-7.62-6.26-9.36-11.92  c6.54,12.94,8.83,25.8,6.86,38.58l-2.8,1.21h-7.8c-2.54-2.62-4.43-2.62-5.67,0h-15.82l-2.51-5.76c-3.5-19.69-6.85-39.45-10.07-59.26  c-6.14-27.44-11.79-54.92-16.95-82.44l1.51-2.92c10.4-0.04,18.82-3.26,25.27-9.64c2.22-5.6,4.9-7.97,8.03-7.1  c11.99,20.88,41.19,26.52,57.08,6.63c0,0,3.91-2.51,11.73-7.53c13.98-2.98,28.55-3.22,43.71-0.74c31.32,0.69,73.13,0.98,79.71-38.01  c8-7.77,18.67-11.57,32-11.42L762.14,1326.98z" />
<path class="cls-10" d="M1200,528.87v48.56c-129.1,3.27-258.74,7.16-387.09,15.97l-1.98,1.08c-8.03-3.24-15.73-7.99-23.11-14.24  c-25.09-15.01-45.87-7.93-69.69,5.01l-23.4,14.53l-3.87-0.71l-553.08,31.15c103.25-19.88,209.53-31.62,315.5-44.45l326.17-39.48  C904.29,531.17,1076.79,519.48,1200,528.87z" />
<path class="cls-3" d="M1126.44,907.74c1.37-4.09,5.13-2.6,5.35,1.29c1.34-3.95,5.39-2.87,4.97,1.31c2.09-2.86,8.62-2.13,8.44,1.92  c2.37-2.14,7.85-1.04,8.03,2.56c3.3-1.04,10.62-0.51,10.38,3.86c2.11-0.31,4.37-0.59,6.42,0.17c6.01,2.22,25.49,11.44,28.33,15.4  c0.67,0.93,1.18,1.97,1.65,3.04v154.36l-2.74,7.06c-12.31,15.97-22.72,33.17-31.23,51.59c-4.08,4.35-5.84,6.14-6.9,0.35  c2.67-20.55,4-30.82,4-30.82c-3.46,14.33-7.31,28.54-11.54,42.63l-3.64,1.73c-1-0.28-2.45-0.77-2.48-1.54  c-0.06-2,2.73-21.15,3.39-22.8l2.92-1.45l-2.31-1.82l3.41-14.33c-1.09,5.43-2.38,10.8-6.27,14.95c3.45,2.82,1.11,11.72-2.86,13.24  c-0.49,2.32-1.04,2.36-1.69,0.04l-1.54-3.93c0.52-20.23,3.15-40.33,7.87-60.31c-6.35,24.69-11.91,49.55-16.67,74.58l-2.44,4.28  c1.02,4.01-1.74,4.96-3.98,1.44c-2.41-7.73-2.77-15.96-1.08-24.71c-3.52,6.36-5.61,6.74-6.26,1.14l-9.24-61.26  c1.19,9.81,2.26,19.64,3.02,29.5c1.18,15.24,2.24,31.25,1.52,46.49c-0.07,1.41-0.51,2.8-1.01,4.21c-0.51,1.44-1.2,2.82-1.95,4.18  l-4.1-3.63c-5.79-19.09-11.99-38.04-18.61-56.85c4.78,13.8,8.63,27.96,10.67,42.47c0.33,2.35,0.58,4.69,0.67,7.05  c0.02,0.6-2.58,11.05-2.87,11.58c-3.61,6.51-12.32,6.1-14.38-1.76c-5.14,13.49-13.14,3.51-16.37-5.51  c4.64,10.36-2.54,17.24-11.22,10.86c-3.7-4.9-5.98-10.78-6.82-17.64c-24.04-77.75-73.8-120.38-145.89-154.19  c-11.7-6.51-23.09-13.57-33.69-21.77c-0.72-0.56-1.19-1.48-1.66-2.46c-0.48-1-0.79-2.08-1.05-3.18l1.73-2.38  c26.52,4.99,52.82,10.65,78.89,17c0.17,1.07,0.6,2.06,1.03,1.92c19.73-6.33,40.79-7.6,59.85,1.44l2.84-1.07  c25.37-2.98,50.75-5.38,76.16-7.2c14.89-5.95,30.02-10.1,45.4-12.45l0.77-2.4c36.88-25.72-13.45-39.79-35.86-43.21l-0.93-2.88  c-4.18-2.47-5.36-13.79-2.25-17.4c0.53-2.59,2.89-3.28,7.08-2.08c-2.19-13.88,9.06-11.82,6.48,1.03c6.65-0.22,12.74,1.02,18.29,3.72  L1126.44,907.74z" />
<path class="cls-14" d="M182.24,136.69l39.16,19.79c25.6,12.94,51.33-29.85,115.1,5.35c18.48,10.2,33.24,14.31,54.77,14.44  c79.94,0.5,159.88,4.02,239.06,20.57L0,196.88v-69.64C61.21,106.22,124.84,107.68,182.24,136.69z" />
<path class="cls-11" d="M1200,748.68v188.61c-11.76-7.03-24.18-12.52-36.4-18.61l-1.23-2.97c3.46-18.31,9.4-36.04,17.83-53.2  c-10.44,14.74-17.79,31.37-23.07,48.59l-3.9,3.73c-2.36-0.54-6.1-0.3-8.03-2.56l-2.27-1.89l12.03-44.79  c-5.94,12.55-10.57,25.7-14.07,39.14l-4.12,5.62c-1-0.81-3.7-1.14-4.97-1.31c-1.37-2.17-2.01-4.55-2.42-7.05  c-1.04-6.29,0.9-9.74,0.04-3.11c-0.41,3.14-1.45,6.09-2.97,8.87c-4.5,0.7-7.67-2.69-10.42-3.69c-2.89,0.1-8.87,2.38-12.03-1.21  c-1.68-1.91,1.25-7.01-1.23-10.54c-1.94,3.62,0.84,8.82-1.12,10.12c-2.43,1.62-6.67-0.49-9.05,0.02l-3.22-1.6l-6.99-20.02  c-2.3-5.33-1.99-9.2,0.94-11.6c0.61-6.04,0.13-7.44-1.44-4.21l-2.15,0.04c-0.92,0.49-2.49,0.99-2.79,0.44  c-21.63-39.34-43.33-81.67-59.99-124.65c-1.59-3.47-1.64-7.12-0.54-10.78L1200,748.68z" />
<path class="cls-6" d="M1110.31,1166.1c3.87-1.75,13.22-4.42,15,0.46c1.35,0.3,2.83-0.98,3.98-1.44c0.72-1.9,3-3.1,6.87-3.58  c0.73-5.3,2.7-8.98,5.9-11.05l1.69-0.04c2.58,2.35,2.79,5.96,0.62,10.83c1.92,0.01,2.88,0.87,3.58,2.91  c9.25-20.68,7.69-45.82,23.66-66.66c-5.59,17.94-8.99,36.1-10.26,55.99c11.5-22.23,22.11-44.6,38.64-61.87v8.13l-2.72,8.6  c-9.27,16.87-17.16,34.41-23.68,52.61c6.45-14.02,14.06-27.05,22.83-39.1l3.57,0.77v5.6c-9.57,21.64-14.35,32.46-14.35,32.46  c7.87-1.73,11.81-2.6,11.81-2.6l2.55,1.87v65.36l-2.64,8.86c-15.21,24.35-23.7,52.07-28.5,80.24c-1.07,3.93-2.84,3.67-6.07,2.54  c-1.46-0.51-12.03-26.95-11.89-28.49c2.81-14.66,7.13-28.88,12.97-42.65l-14.05,34.07c-5.41,5.23-9.24-3.33-11.01-8.43l8.44-31.73  c-11.28,27.76-19.46,56.14-24.52,85.16c-1.19,4.92-4.55,18.54-9.71,16.83c-3.9-8.55-8.23-16.8-13-24.76  c9.6,19.42,17.21,39.73,22.82,60.93l0.7,9.39c4.61,2.56,1.39,17.86-5.02,15.11c-3.56-1.81-5.67-5.34-6.32-10.58  c2.17,7.37,4.15,14.79,5.93,22.25c6.36,2.48-0.26,15.95-5.35,10.09c-2.61,5.43-12.1-2.84-10.3-7.54l-3.01-4.54  c-4.3-24.54-10.72-48.63-19.26-72.25c-0.7-3.72,1.4-4.7,4.92-4.74l0.43-24.58c0.11-4.14,1.67-6.19,4.67-6.12  c1.58-4.42,1.43-9.63-0.46-15.62c1.77-4.03,0.58-7.24-3.58-9.63c-3.57-1.26-3.64-2.34-0.24-4.05l-0.29-2.77  c5.32-17.01,7.1-34.95,5.34-53.8l-8.64,14.42c-0.58,0.94-1.84,1.48-3.78,1.62c-1.51,9.91-8.66,16.7-17.51,20.71  c-4.49,2.03-15.23,6.03-17.75,1.08l-1.68-3.55c0,0,4.16-10.47,12.47-31.42l-2.29-4.36c1.27-14.04,2.15-28.23,0.29-42.27l1.98-4.48  c3.36-0.89,7.36,0.18,10.2-1.53c-0.53-10.5-5.87-17.37-10.45-26.6c10.47,3.54,17.77,26.51,19.85,26.58  c13.29,0.41-2.82-19.54,0.85-38.58c3.68,12.54,5.6,25.86,11.7,37.8c1.5,2.1,8.68-0.95,7.55-3.8c-1.07-2.71,2.82-6.69,2.48-10.09  c-3.05-30.19-14.72-57.92-26.78-87.48C1091.91,1096,1098.33,1132.48,1110.31,1166.1z" />
<path class="cls-2" d="M112.48,1176.15c5.98,0.96,9.91,3.39,11.8,7.29l-1.26,2.03l-24.24,10.74c-17.29,8.9-39.14,28.32-6.03,32.79  c1,2.49,1.5,3.73,1.5,3.73c-9.81,9.99-17.98,20.87-24.52,32.63c-1.78,8.9,4.61,14,19.17,15.28c5.62,1.32,6.85,5.65,3.7,13l1.36,5.62  c0.03,7.34,0.05,11,0.05,11c-15.72,61.84-26.62,124.76-30.48,188.42l-1.91,5.31c-1.06,0.07-2.69-0.01-2.85-0.73  c-3.89-17.07-7.87-38.49-10.03-55.82c-0.9-4.07-1.67-7.97,0.6-11.81l-3.03-2.31c0.03-12.3,2.28-24.42,6.74-36.36  c-1.56,6.38-4.43,10.3-8.59,11.78l-2.96-4.7c-8.71-33.95-17.54-67.91-26.51-101.89c8.76,36.64,14.9,73.58,18.44,110.83l-1.27,5.29  c6.18,8.97,1.75,47.22-4.72,53.35c-0.74,0.7-1.6,1.27-2.5,1.81l-2.49-2.94c-7.73-30.99-15.48-62.44-22.42-93.73v-123.21  c0.93-5.18,2.73-7.45,5.39-6.8c-0.14-3.47,2.07-6.3,5.48-4.27c-0.98-3.88,3.08-6.82,6.45-7.49c1.61-3.32,3.78-6.43,6.51-9.34  l3.13,0.89c5.92-3.44,12.94-6.7,15.92-12.97c3.97-4.48,8.79-8.44,14.45-11.87l3.07,1.17c9.25-5.92,20.47-11.4,29.15-17.82  c1.05-3.47,5.66-7.19,8.49-3.93L112.48,1176.15z" />
<path class="cls-11" d="M169.69,672.7c0.42,1.18,0.78,2.36,0.96,3.58c0.17,1.18,0.3,2.32,0.04,3.36  c-6.71,26.64-19.86,53.56-32.62,77.63l-2.98,2.16C87.34,760.6,41.32,772.94,0,796.88V668.3L169.69,672.7z" />
<path class="cls-14" d="M6.73,275.71c47.28,8.1,90.54,29.27,133.44,52.81c67.09-11.81,131.96-7.49,195.85,13.73  c49.74-0.82,99.04,0.03,148.08,11.86L0,353.57v-79.02L6.73,275.71z" />
<path class="cls-4" d="M1064.9,1282.89l2.3,1.82l-8.96,35.39c1.74,1.13,4.06,0.65,5.87,0.11l7.13-24.36  c0.27-5.5,1.73-9.77,4.39-12.81c-1.18-0.41-1.17-0.91-0.03-1.5c-0.33-4.96,0.96-8.07,3.87-9.35c2.03-3.41,7.33-0.82,6.49,2.91  c-0.12,1.36,0.23,2.71,0.24,4.05c3.16,1.71,6.16,21.6,5.45,23.31c-0.3,0.72-0.82,1.35-1.41,1.94c-5.21,10.7-0.03,22.52-3.25,35.4  c-1.24,0.64-1.89-2.75-4.83-2.77c7.41,26.33,18.72,52.35,20.32,79.59l-2.86,1.19l-30.17-22.52c8.86,30.81,15.12,62.37,19.94,94.02  l14.83-8.8l2.78,1.85l2.62,1.06c-1.14,19.33-2.28,38.67-3.42,58.01l-2.77,1.42h-40.81c-5.26-5.19-8.57-17.07-7.43-24.35  c-7.49-0.83,1.37-12.32,5.99-11.59c2.29-3.07,8.09-8.58,10.76-7.13c-1.94-19.7-4.47-39.35-7.59-58.95  c-5.56,10.1-8.38,20.35-8.45,30.74l5.8,28.73l-2.15,3.47c1.9,2.32-2.64,6.33-4.82,4.06c-1.24-2.68-2.25-1.68-3.05,3.02  c0.58,0.39,1.07,0.81,1.25,1.34c0.56,1.63-16.86,27.66-18.52,28.93l-4.41,1.73h-40.63c-4.2-2.25-2.39-11.26,2.1-12.26l2.71-3.54  c5.52-25.68,14.91-50.55,28.33-73.17c-2.89-8.8-3.15-17.13-0.79-24.99c-2-1.78-1.2-2.6,1.27-1.41l7.44,16.92  c5.87-6.29,8.05-13.42,14.14-18.03c-5.11,12.25-12.16,22.8-15.09,36.29c3.52,7.09,6.89,13.26,10.91,19.49l22.9-55.85  c1.55-14.49-5.54-32.34-9.06-46.29l-24.49-20.86l-1.89-3.3c1.51-9.43,1.53-18.92,0.06-28.47l2.42-3.01  c1.3-2.98,4.93-4.21,10.89-3.71c3.76-9.99,8.13-21.12,13.13-33.37l2.81-2.95c-4.44-1.23,4.61-15.13,5.96-16.12  C1071.55,1262.11,1071.57,1281.32,1064.9,1282.89z" />
<path class="cls-10" d="M294.65,541.39l13.29-1.52c29.08,2.56,58.1,5.12,87.05,7.66l1.39,2.81C265.38,561.93,132.14,565.44,0,578.57  v-50.89c54.35-1.56,108.19-0.4,163.31,3.77L294.65,541.39z" />
<path class="cls-4" d="M1200,1225.35v12.67c-3.42,13.2-7.18,26.34-11.29,39.4c-3.95,21.6-5.93,32.41-5.93,32.41  c7.19-16.89,10.79-25.34,10.79-25.34c1.3-2.95,3.01-4.97,6.44-5.16v86.71c-4.78,13.61-10.45,26.91-16.98,39.91  c-13.91,33.84-25.9,68.37-35.96,103.6c-1.03,2.27-2.03,4.03-2.96,3.99c-5.23-0.23-2.02-44.51-1.37-51.53  c0.3-9.3,1.85-18.05,4.65-26.27l2.73-0.99c-2.61-19.06-7.59-37.35-14.96-54.87l0.41-4.49c-0.67-0.66-1.3-1.35-1.77-2.14  c-3.82-6.29,5.9-42.07,9.9-50.13l2.82,0.12l9.58,32.82c1.51-6.62,3.4-12.99,5.65-19.12c-6.71-8.64-11.32-18.76-13.84-30.35  c0.31,3.9-0.74,6.32-3.16,7.25l-16.82,66.23c0,0-1.46,2.41-4.39,7.24c-7.26-16.75-9.15-35.69-18.32-52.44  c-4.44-8.11-9.21-16.16-9.07-25.71c10.78,8.88,13.05,20.62,19.28,31.99c0.01-7.1,4.8-13.7,5.22-20.08  c1.42-21.59,27.98-98.24,39.21-116.92l-18.52,67.02c1.4,3.35,3.5,6.66,5.47,9.27c8.2-19.79,13.81-39.59,27.63-56.5  c-6.67,21.79-16.96,41.81-20.96,64.42l12.23,28.67C1171.32,1282.85,1181.18,1252.32,1200,1225.35z" />
<path class="cls-2" d="M499.09,1395.36c11.98,46.03,18.21,94.55,19.71,142.08l-1.55,5.41h-5.08l-2.46-2.71  c-5.78-21.59-12.49-42.93-20.14-64.03c6.63,20.57,11.22,41.45,13.76,62.64l-1.2,4.09h-16.41l-2.71-5.09  c-7.1-34-16.04-67.52-26.83-100.54c-6.14-15.41-11.29-31.06-15.43-46.95l2.12-3.04c9.24-1.74,16.96-7.3,24.44-12.7  c3.54-2.46,5.6-2.03,7.46,1.82c3.49,10.22,11.69,15.93,22.37,16.22L499.09,1395.36z" />
<path class="cls-4" d="M976.45,1530.7c3.41,2.1,1.1,11-2.42,12.16h-36.56c-3.79-1.59-1.19-12.25,2.22-13.41  c1.21-14.25,1.23-28.52,0.06-42.81l1.75-1.37c6.86-48.41,3.68-99.87,2.12-150.12c11.22,65.59,12.65,130.47,11.54,197.92  c6.18-61.45,25.07-123.53,52.47-181.02C993.81,1411.79,975.56,1471.03,976.45,1530.7z" />
<path class="cls-11" d="M99.06,1300.51c-15.89,79.72-24.75,161.07-22.93,242.35H60.97c-1.04-0.14-2.58-0.49-2.66-1.26  c-0.68-6.45-0.49-29.55,0.58-35.65l2.71-1.93c1.3-69.8,15.61-137.34,32.34-204.73c-4.29-3.78,6.07-24.9,9.28-24.04  C106.78,1276.2,104.37,1298.57,99.06,1300.51z" />
<path class="cls-8" d="M1200,489.78v23.46c-49.58-2.25-99.31-5.26-148.96-3.62c-5.34-2.6,2.42-14.26,6.86-15.63L1200,489.78z" />
<path class="cls-4" d="M1200,1403.2c-9.25,18.91-13.87,28.37-13.87,28.37l-12.61,43.23l23.38-52.44l3.1-0.38v32.4l-3.38,12.15  c-11.24,23.64-20.83,47.92-28.78,72.84l-2.82,3.48h-19.88c-0.61-3.78-1.03-7.65-0.42-11.45c3.68-22.86,11.7-47.91,18.85-70.09  c7.31-22.71,15.58-46.22,25.22-68.03c2.26-5.12,4.54-10.16,7.34-15.01c0.95-1.65,2.34-3.05,3.86-4.38V1403.2z" />
<path class="cls-11" d="M1143.69,1323.11c-2.93,17.23-8.22,34.92-8.13,52.27c0.26,3.56,0.17,7.15-0.27,10.77l-2.94,1.68  c0.52,9.32-0.08,18.62-1.77,27.9l-0.46,17.51l-2.4,5.19l0.92,2.84c-3.5,7.15-4.78,15.23-3.84,24.23l-3.1,5.1l2.63,1.34  c-0.81,23.13-1.62,46.26-2.42,69.4l-2.73,1.52h-15.73l3.57-60.49l-2.44-3.11c4.39-17.44,6.46-34.74,6.2-51.89l2.01-3.2  c4.93-0.28,5.68-5.78,5.35-10.09c-2.42-5.12-2.3-9.01,0.39-11.67c4.88-2.98,3.9-10.09,5.02-15.11  c5.54-24.82,12.08-49.82,21.21-73.46C1148.47,1315.96,1147.84,1322.03,1143.69,1323.11z" />
<path class="cls-4" d="M887.95,1518.75c3.27,6.18,0.04,19.05-4.63,24.11h-12.78c3.34-75.67-1.88-149.39-16.08-225.72  C878.78,1382.28,881.83,1451.5,887.95,1518.75z" />
<path class="cls-4" d="M49.33,1435.66c-3.6,18.33-5.4,27.49-5.4,27.49l-3.04,1.03c-2.86,25.43-3.91,50.86-3.13,76.29l-2.36,2.39  H14.35c-5.04-4.58-6.31-15.74-2.33-21.37c1.93-8.08,3.63-16.25,5.1-24.5c-0.81-3.54-0.17-5.99,1.92-7.36l2.63-14.46l3.24-1.71  c6.58-18.95,9.05-35.88,7.22-55.15c1.38-4.11,4.25-1.78,5.6,1.71l3.35-10.51l3.35-0.74c5.21-8.9,8.01-19.62,13.98-27.75  C57.47,1401.2,46.14,1417.95,49.33,1435.66z" />
<path class="cls-6" d="M869.2,1542.86h-17.55c-4.05-60.61-19.09-118.28-35.69-179.54C842.15,1419.5,861.07,1481.18,869.2,1542.86z" />
<path class="cls-4" d="M1145.64,1428.9c-1.49,21.72-3.72,43.43-6.68,65.13c-0.97,14.53-2.18,29-3.63,43.42l-1.92,5.4h-14.25  l2.52-72.26c2.73-4.99,5.95-9.78,9.64-14.36l3.7-10.09c-4.46-1.73-6.9-4.3-7.33-7.71c-1.24-16.96,0.84-34.07,4.64-50.6l3,0.7  l9.26,31.01C1147.73,1423.75,1148.07,1426.87,1145.64,1428.9z" />
<path class="cls-11" d="M1200,1373.9c-23.8,54.14-43.64,110.73-54.86,168.96h-11.73c0.76-38.25,5.07-76.38,12.22-113.96  c4.11-0.18,5.7,4.86,1.74,6.82c-2.01,25.18-4.25,50.18-3.42,76.66c14.42-50.62,30.09-101.06,56.04-146.35V1373.9z" />
<path class="cls-4" d="M766.24,1326.19c19.92,55.61,22.46,161.22,31.62,216.67h-7.76l-3.09-3.2c-0.88-17.3-4.02-34.01-9.4-50.11  l0.97-4.35c0.33-52.68-6.94-106.21-16.43-158.21c-4.81-0.59-4.91-14.17-1.77-15.37C764.47,1310.06,770.09,1323.68,766.24,1326.19z" />
<path class="cls-3" d="M193.33,1534.82c3.63,1.62,2.52,7.98-1.81,8.04H172.2c13.43-55.03,32-109.39,56.61-161.12  C215.04,1433.34,199.3,1482.97,193.33,1534.82z" />
<path class="cls-6" d="M778.57,1485.2c8.46,17.4,9.11,39.09,11.52,57.66h-14.71c2.26-45.5-35.31-115.55-57.45-156.84  C742.82,1416.47,761.66,1450.43,778.57,1485.2z" />
<path class="cls-11" d="M1022.98,1427.5c-0.35,0.51-0.98,0.87-1.27,1.41l-1.71,8.91c-11.26,29.25-19.98,59.35-26.17,90.28l-2.36,2.5  c-0.88,4.06-2.02,8.07-2.1,12.26h-15.33c-0.1-4.23,1.4-8.15,2.42-12.16c13.82-54.48,35.41-107.21,65.2-153.78  C1036.45,1395.91,1023.93,1409.99,1022.98,1427.5z" />
<path class="cls-4" d="M168.16,1542.86h-14.29c6.4-59.53,5.82-118.68,3.19-179.9C169.4,1422.13,170.4,1483.01,168.16,1542.86z" />
<path class="cls-3" d="M49.33,1435.66l12.28,68.36l-0.63,38.84H46.61c-0.84-0.95-1.64-1.93-2.27-3.01c-0.61-1.05-1.17-2.08-1.34-3.16  c-3.59-23.45-3.75-48.88-2.12-72.51C43.73,1454.45,41.72,1442.08,49.33,1435.66z" />
<path class="cls-11" d="M440.76,1390.27c21.35,48.66,35.94,100.24,44.96,152.59h-13.39c-5.85-51.99-19.09-102.62-34.1-152.66  C439.01,1387.69,440.13,1387.74,440.76,1390.27z" />
<path class="cls-6" d="M941.5,1485.27c0.25,14.77,4.1,30.84-1.81,44.18l-3.07-4.6c-0.54-14.85-1.53-29.65-2.98-44.41l-7.22,61.12  l-2.85,1.29h-14.71c4.32-35.97,14.72-71.39,27.06-106.69C934.71,1462.82,941.18,1466.76,941.5,1485.27z" />
<path class="cls-11" d="M206.22,1542.86h-14.7c1.33-2.42,0.84-5.58,1.81-8.04c18.05-45.53,39.62-90.5,71.88-130.65  C241.99,1449.3,218.22,1493.6,206.22,1542.86z" />
<path class="cls-6" d="M120.58,1463.54c0.25,2.75-0.01,12.68-1.79,13.92c-0.95,0.66-1.94,1.02-3.12,0.91  c-1.13,9.04-2.72,18.04-4.79,27.01l-2.63,2.38c2.35,2.06,1.73,3.1-1.38,3.21c-0.18,8.63-1.66,21.18-4.27,29.5l-3.24,2.39H84.28  c6.74-38.3,17.8-54.83,30.39-89.57c0.85-5.48,2.84-8.24,5.94-8.28c5.94-9.29,9.88-19.86,18.28-28.03  C132.7,1433.3,125.75,1447.94,120.58,1463.54z" />
<path class="cls-4" d="M530.58,1542.86h-13.33c-1.93-49.68-10.72-98.46-18.16-147.49c0.24-2.57,1.32-2.51,1.96,0.04  C515.41,1443.6,524.55,1492.94,530.58,1542.86z" />
<path class="cls-2" d="M19.04,1489.62c2.57,9.92-1.75,24.75-7.02,31.86l-2.82-0.17c-4.25-14.46-7.98-29.01-9.2-44.08v-72.32  c0.91,0.41,1.79,0.85,2.56,1.44c6.67,5.13,15.99,65.49,17.79,78.12C20.6,1486.28,19.82,1488.04,19.04,1489.62z" />
<path class="cls-11" d="M909.11,1476.23c-4.49,20.76-8.63,41.6-10.83,62.76l-3.24,3.86h-11.73c0.87-8.15,3.35-16.03,4.63-24.11  l6.57-41.52c1.69-2.3,3.07-5.03,4.13-8.18l-2.67-2.39c0.33-0.85,0.17-1.96,0.31-2.87c2.3-0.84,4.09-2.07,5.38-3.7l9.39-21l3.53-0.96  c4.16-7.72,5.61-17.66,12.47-23.8C922.68,1436.97,909.8,1455.5,909.11,1476.23z" />
<polygon class="cls-4" points="654.64,1542.86 641.52,1542.86 643.34,1404.71 " />
<path class="cls-4" d="M305.02,1542.86H289.3c15.53-39.01,36.21-76.86,61.44-111.95C334.47,1469.22,314.94,1503.95,305.02,1542.86z" />
<path class="cls-11" d="M1200,1479.69c-4.62,18.96-10.2,37.89-15.88,56.61c-0.36,1.18-1,2.28-1.71,3.37c-0.74,1.13-1.62,2.17-2.55,3.18  h-14.84c8.3-30.49,19.73-60.86,34.98-88.48V1479.69z" />
<path class="cls-4" d="M840.22,1542.86h-14.11c-4.36-44.61-15.13-87.35-27-127.59C821.3,1457.29,829.09,1500.84,840.22,1542.86z" />
<path class="cls-4" d="M326.71,1542.86h-13.32c19.85-36.94,42.99-74.07,75.05-103.6C366.19,1474.39,341.33,1505.56,326.71,1542.86z" />
<path class="cls-4" d="M285.47,1542.86h-10.89c11.06-45.4,17-91.65,22.11-138.22C298.38,1451.89,292.35,1497.4,285.47,1542.86z" />
<polygon class="cls-4" points="605.43,1542.86 592.06,1542.86 594.24,1532.95 589.7,1494.54 597.64,1518.22 620.74,1448.2 " />
<path class="cls-11" d="M675.97,1542.86h-11.93c8.14-35.77,17.84-72.42,36.62-105.52C691.15,1473.89,679.62,1507.11,675.97,1542.86z" />
<path class="cls-4" d="M360.32,1542.86h-17.31c18.06-28.18,42.13-52.77,68.19-75.12C393.51,1493.66,374.03,1516.2,360.32,1542.86z" />
<path class="cls-4" d="M574.7,1542.86h-14.83c0.39-5.8,2.76-11.86,0.66-17.95l-17.94-51.96c9.87,12.54,13.61,27.31,21.86,40.69  c6.54-22.64,12.16-43.78,21.41-65.37l-16.84,78.4L574.7,1542.86z" />
<path class="cls-4" d="M127.88,1542.86h-9.04c-3.45-2.82-5.68-6.96-6.69-12.42c-3.63-6.44-5.39-12.93-5.29-19.48  c0.47-1.05,0.49-2.34,1.38-3.21c2.56-1.88,5.04-0.69,7.43,3.57c-0.68-11.04-0.68-22.03-0.01-32.96l4.91-14.82  C128.27,1488.35,128.28,1516.33,127.88,1542.86z" />
<path class="cls-3" d="M24.92,1473.46c-1.91,5.51-0.93,13.16-5.88,16.17c-7.29-28.13-7.67-58.86-19.04-84.71v-28.12  C12.17,1407.89,17.59,1441.32,24.92,1473.46z" />
<path class="cls-11" d="M460.77,1542.86h-11.9c-9.61-33.22-26.93-62.98-42.71-94.07C431.21,1477.2,447.37,1509.93,460.77,1542.86z" />
<path class="cls-6" d="M237.56,1542.86h-13.57c15.41-30.09,35.52-58.82,62.04-83.12C268.11,1486.79,249.03,1512.7,237.56,1542.86z" />
<path class="cls-2" d="M939.69,1529.45c0.4,4.31-1.56,9.26-2.22,13.41h-13.9l9.65-81.67C938.8,1484.68,937.63,1507.07,939.69,1529.45z  " />
<path class="cls-6" d="M1200,1403.2v18.78l-38.77,87.1l16.49-59.43C1182.46,1432.57,1187.74,1415.33,1200,1403.2z" />
<path class="cls-4" d="M26.95,1226.56c-3.38,1.96-4.67,8.52-9.64,8.45l-2.93-2c-1.04-4.97-2.63-9.78-4.76-14.42  c-4.44-4.83-7.64-10.14-9.62-15.91v-9.38c9,3.84,13.89,13.49,22.49,18.98c5.21-18.58,6.76-37.31,17.7-52.95  C35.08,1182.66,28.52,1204.05,26.95,1226.56z" />
<path class="cls-6" d="M1200,1238.02v41.31c-11.15,15.75-15.3,35.21-22.54,53.83C1180.5,1299.98,1185.75,1266.04,1200,1238.02z" />
<path class="cls-4" d="M1200,1479.69v63.17h-20.14C1184.65,1521.3,1191.12,1499.84,1200,1479.69z" />
<path class="cls-4" d="M512.17,1542.86h-10.04c-4.53-31.77-14.18-61.92-22.81-94.08C495.96,1478.31,504.71,1510.65,512.17,1542.86z" />
<path class="cls-11" d="M46.61,1542.86H35.39c-3-18.24,0.61-61.98,5.49-78.68C43.19,1490.42,42.4,1516.8,46.61,1542.86z" />
<path class="cls-11" d="M732.03,1503.97c2.46-0.74,3.98,0.73,4.58,4.4l2.17,3.79l20.19,30.69h-11.12c-6.7-2.92-10.8-13.38-13.26-20.37  c-9.02-19.01-24.33-33.62-37.25-52.69C710.45,1479.33,720.35,1492.64,732.03,1503.97z" />
<path class="cls-11" d="M12.02,1521.48c0.32,6.86,1.13,14.46,2.33,21.37H0v-65.62L12.02,1521.48z" />
<path class="cls-3" d="M1200,1122.66c-12.9,7.02-23.21,52.57-29.93,39.66c9.52-21.81,16.21-44.62,29.93-62.54V1122.66z" />
<path class="cls-4" d="M909.11,1476.23c-0.74,22.26-2.97,44.43-5.02,66.63h-9.05C898.25,1520.45,899.75,1496.31,909.11,1476.23z" />
<path class="cls-11" d="M17.31,1235.01c0.3,3.62-4.75,5.39-6.45,7.49c-3,0.59-4.39-1.52-4.19-6.33c0.09-8.06-0.4-16.61-0.19-1.94  c1.38,5.13,1.02,9.31-1.09,12.54c-1.72,1.99-2.69,5.42-5.39,6.8v-50.89C8.46,1211.28,16.32,1222.93,17.31,1235.01z" />
<path class="cls-3" d="M1200,1128.26v31.73c-6.02,2.43-11.84,4.66-18.99,2.65C1186.98,1150.21,1191.27,1137.49,1200,1128.26z" />
<path class="cls-2" d="M118.84,1542.86H99.35c2.4-10.65,3.11-21.95,7.51-31.89C111.29,1521.39,116.29,1531.82,118.84,1542.86z" />
<path class="cls-6" d="M0,1043.3v-6.7c10.25,17.37,23.33,37.53,18.93,59.36C9.54,1078.18,9.41,1058.9,0,1043.3z" />
<path class="cls-4" d="M630.39,1542.86h-7.62c1.18-20.68,2.79-41.4,7.62-61.82L630.39,1542.86z" />
<polygon class="cls-10" points="815.44,1542.86 807.59,1542.86 802.68,1485.09 " />
<path class="cls-11" d="M1061.17,1506.92c-2.69,2.74-7.93,7.26-5.99,11.59c0.46,3.04-2.31,4.86-5.12,4.27  c1.63,4.66-4.17,14.91-7.12,19.01l-3.14,1.07H1030l21.68-32c-0.69-3.63,0.33-4.64,3.05-3.02c1.85-1.08,3.81-1.98,4.82-4.06  C1060.5,1494.69,1069.49,1502.7,1061.17,1506.92z" />
<path class="cls-6" d="M0,1007.14v-9.38c12.14,11.7,15.46,26.74,15.51,44.21C11.74,1029.69,6.48,1018.16,0,1007.14z" />
<path class="cls-4" d="M1056.69,1542.86h-16.88c1.99-7.42,7.51-13.02,10.27-20.08c5.4-1.57,8.47,13.24,8.72,17.65L1056.69,1542.86z" />
<path class="cls-6" d="M747.87,1542.86h-13.89l0.63-20.37C740.09,1527.73,744.07,1535.65,747.87,1542.86z" />
<path class="cls-11" d="M729.09,1542.86h-7.89l-16.42-27.26C715.45,1523.48,723.15,1532.99,729.09,1542.86z" />
<path class="cls-3" d="M552.07,1542.86h-5.67l-8.96-33.56C544.29,1520.47,548.4,1531.67,552.07,1542.86z" />
<path class="cls-4" d="M436.8,1542.86h-5.82l-7.41-33.19C428.17,1520.46,433.68,1531.24,436.8,1542.86z" />
<path class="cls-6" d="M1055.19,1518.5c3.46,7.72,5.61,16.04,7.43,24.35h-5.94c-1.99-6.68-2.38-14.63-6.62-20.08  C1050.94,1520.55,1052.74,1518.67,1055.19,1518.5z" />
<path class="cls-6" d="M269.16,1542.86h-4.99l4.41-43.04C269.93,1514.24,269.33,1528.53,269.16,1542.86z" />
<path class="cls-4" d="M693.13,1542.86h-5.14c2.51-8.42,6.41-16.43,11.86-23.76L693.13,1542.86z" />
<path class="cls-16" d="M592.13,366.82c73.08,10.05,133.51,63.96,151,135.58c-74.84,1.89-280.14-8-342.24-24.21  c22.66-57.31,74.25-98.48,134.7-110.21C553.75,364.46,573.86,364.3,592.13,366.82z" />
<path class="cls-14" d="M1079.94,324.45l-389.19-0.27c38.5-18.84,78.95-23.01,118.61-12.64c41.91-17.06,85.86-23.49,127.88-9.81  c25.85,8.41,50.36,15.44,78.03,14.21C1037.12,318.72,1059.09,317.39,1079.94,324.45z" />
<path class="cls-11" d="M467.67,687.75c2.53-4.97,9.23-1.76,11.94,0.7c6.59,1.11,13.14,0.92,19.81,1.25c0.54-3.73,9.55-3.5,9.35,0.6  c9.36,1.76,18.81,1.34,28.27,1.84c4.13-3.48,12.06-3.12,15.83,1.02c17.9,1.85,35.9,3.18,53.84,3.4c1.47-2.16,2.92-3.47,4.52-1.4  c4.38-1.55,12.62-1.8,15.33,2.6l273.44,21.6c3.83,0.71,5.17,4.24,4.02,10.56c3.25-1.66,3.9-0.14,1.37,2.51  c2.62,1.13,5.06,2.94,7.32,5.44c10.95,4.36,18.78,11.05,23.47,20.09l0.08,6.21c-3.72,14.88-6.31,29.95-7.76,45.2l-2.88,4.79  l-2.39,8.58c-10.2,12.45-16.83,25.91-19.89,40.39l-1.58,34.69l-2.93,3.08l-2.21,2.66c-6.51-0.6-12.82,0.06-18.94,1.98l-2.96-1.62  l-2.5-2.51c2.66-10.72,5.18-21.45,7.58-32.2c-4.99,10.38-8.07,21.6-10.84,32.78l-3.57,3.35c-0.38,1.23-0.89,1.2-1.54,0.02l-2.82-1.2  l-1.16-10.88c-3.98,3.46-7.9,7.4-11.75,11.83c-2.47,0.45-3.74-1.17-4.23-3.57l4.2-17.83l-4.47,13.06  c-0.48,5.86-2.24,10.54-5.28,14.06c0.52,3.95-2.96,4.06-5.07,1.21l-1.77,0.25c-3.09-10.02-5.51-20.58-7.26-31.67l3.06,28.42  l-2.26,4.5c0.32,4.44-5,6.61-7.81,2.78c-0.99-0.29-1.95-0.63-2.83-1.13c-11.79-6.73-23.49-62.39-22.76-77.8  c7.47-10.44,5.95-12.88-6.02-14.14c-15.18-14.1-31.84-25.08-49.98-32.95c-16.41-2.11-33.36-1.38-50.84,2.2l-4.37-2.42  c-1.34,2.1-4.37,3.37-9.1,3.82c0,0-2.6,9.57-7.81,28.7c0.12,4.08-0.97,7.03-3.25,8.84c3.02,2.07,4.91,5.81,5.66,11.22  c3.82,8.39,9.8,15.39,17.93,21c6.36,6.12,12.64,13.53,14.82,22.28c2.29,9.21-3.08,48.07-4.88,59.44l-2.88,1.65  c-4.22-1.77-6.67-5.94-7.35-12.51c0,0,0.06,11.77,0.17,35.3c0.61,9.65-1.59,13.41-6.6,11.28c-3.32-6.57-5.32-13.74-6.01-21.51  c-1.95-2.72-2.76-5.27-2.41-7.63c-2.27-2.9-2.98-1-3.1,3.01l2.51,2.95c0.76,4.49,3.11,29.22,1.7,31.15  c-3.25,4.45-10.79-0.54-12.27-4.94l-5.03,11.89l-3.2,0.7c-4.9,1.32-10.67-8.08-6.33-11.2c0.53-1.6,0.15-2.4-1.36-2.22  c-0.92,0.51-2.37,1.16-2.88,0.6c-3.79-4.24-18.52-23.84-20.38-28.13l-1.98-7.3l-2.66-5.02c-2.45-26.48-7.28-52.62-14.49-78.42  c6.04-11.06,15.87-19.34,29.48-24.85c0,0,4.12-3.47,12.35-10.41c1.42-3.84,3.44-6.31,6.05-7.4c0.52-1.73,1.43-2.89,3.62-2.82  c-0.31-4.33,0.38-8.86,2.08-13.6c-0.26-8.01,1.36-15.11,4.83-21.29l-2.33-2.31c1.37-6.91-2.25-11.72-8.11-14.95l-0.2-3.24  l-6.41-0.63c-18.04-11.46-36.75-21.63-56.14-30.52l-8.85-1.57c-26.56,0.59-52.42,6.91-77.59,18.97  c-13.26-5.01-19.54-3.32-16.38,12.01c-9.49,31.33-20.77,61.63-33.85,90.89l-3.21,0.73l-70.93-43.54l-1.73-2.63  c0.8-4.36,0.09-4.52-2.11-0.5c-6.42-2.54-12.1-6.82-17.77-10.7c-2.41-4.91-1.88-10.74,1.59-17.51c4.88-11.54,7.83-20.44,0.69-3.02  c-1.89,4.61-3.59,9.28-5.12,14.01l-3.68,2.74c-1.37-0.43-3.33-0.99-4.03-2.51c-0.89-0.54-1.8-1.18-2.07-2.28  c-1.31-5.3,0.71-9.72-0.4-3.28c-0.23,1.32-0.79,2.59-1.45,3.84c-2.82,0.22-5.11-2.43-6.97-3.64c-2.5-3.89-4.71-4.82-6.62-2.79  c-24.81-9.26-49.87-17.87-76.36-20.23c-0.85,0.76-1.76,0.85-2.83,0.7c-1.68-0.23-10.3-14.63-10.23-17.92  c-1.32-1.15-2.61-2.46-3.16-4.16c-1.52-4.71-8.79-37.29-8.31-39.25c3.1-1.93,6.4-3.52,9.9-4.77c4.69-2.7,6.04-7.52,4.06-14.46  l2.93-2.12c-2.35-3.17,1.53-7.12,5.05-5.16C318.76,681.7,393.48,683.03,467.67,687.75z" />
<path class="cls-11" d="M668.7,951.96c4.05,4.18-1.65,8.82-3.1,3.01C663.39,950.51,665.95,947.02,668.7,951.96z" />
<path class="cls-5" d="M1009.96,709.84c1.3,6.88,4.56,13.55,6.47,20.22c8.6,29.99,23.16,58.11,37.92,86.37l25.4,48.62  c3.47-0.77,4.57,0.98,3.59,4.17c-0.07,11.53,6.45,22.14,9.27,33.23c1.35,5.31,1.82,11.91,2.25,17.4l2.96,4.09  c2.01,17.51-0.64,38.62-7.12,54.94c-16.63,3.75-33.76,5.52-51.38,5.31c-11.61,2.2-23.15,3.32-34.62,3.37l-1.76-3.22  c-8.17-5.67-11.54-19.51-13.68-29.32c-2.84-13.07-0.69-21.82,4.75-33.41c10.15-14.78,16.61-29.5,8.71-47.45l1.54-3.51  c1.11-3.42,3.76-6.39,7.96-8.92c6.39-6.07,7.52-7.45-0.16-1.21c-13.94,11.33-27.82,13.27-45.1,15.59l0.1,3.04  c-4.56,4.29-7.68,9.73-9.37,16.33c-0.97,1.88-2.82,2.71-5.56,2.48c-0.58,4.44-3.23,6.76-7.58,4.69  c-11.42-5.43,0.02-40.14,9.65-45.04c17.27-12.38,24.56-26.87,19.29-47.96c0.56-12.15,3.78-23.89,9.66-35.21  c1.87-11.09-5.06-17.35-15.36-20.01c-27.69-0.36-35.72-16.85-43.44-39.44l-3.13-4.33c-2.94-1.86-4.17-3.96-3.67-6.32l-2.93,1.05  c-2.46-3.57-5.46-6.52-9-8.84l0.7-3.45c8.23-6.52,27.73-19.19,37.96-20.17c15.66-1.5,31.94,4.3,46.57,9.6  c6.04-2.91,11.82-3.61,15,3.2l1.52,15.07C1009.7,704.39,1010.56,707.4,1009.96,709.84z" />
<path class="cls-3" d="M1009.96,709.84c-13.52-11.43,3.38-33.22-19.22-24.74c-57.14-20.39-54.47-5.12-85.13,11.44  c-1.26,4.03-3.61,7.62-7.06,10.79c-10.2,0.53-20.63-0.49-31-1.01c3.6-12.61,1.89-6.72-2.29-2.93c-5.3,4.8,0.43-5.46-0.43-8.37  c-4.42,1.61-5.33,7.33-9.06,10.73c-7.83-0.61-15.66-0.21-22.84-1.95c-2.11-6.09-0.73-11.53-1.66-16.91  c-2.09,1.08,0.04,15.18-3.15,16.79c-0.34,0.17-18.9,0.75-20.58-3.79c-0.89-2.42,1.94-5.3,0.86-8.95c-4.19,6-3.5,12.6-12.16,10.06  c-3.61-1.06-9.2-0.13-9.62-7.73c-4.28,9.32-8.17,3.45-10.38-0.77c-1.45-2.78-5.67-8.44-0.17-10.19  c39.29-12.52,74.11-33.05,105.26-59.03c52.41-43.7,118.32-43.21,170.52,0.87c32.04,27.05,67.52,48.16,108.32,59.28  c2.36,0.64,4.5,4.37,4.88,6.54c0.31,1.77-2.67,8.16-3.73,0.99c-4.37,1.46-10.05,14.51-8.26,0.72c-21.34,23.75-37.65,6.28-35.51,6.16  c-1.72,0.1-1.79,1.56-1.3,2.44c0.39,0.69,2.65,3.12,1.94,3.96c-1.85,2.21-9.81,2.92-11.04-1.01c-0.89-2.83-1.14-6.71-4.6-10.7  c-0.28,4.33,1.44,7.23-0.33,12.05c-1.34,3.64-3.51-0.3-5.91-0.73c-8.31,7.01-20.09,1.62-28.74,4.31c-2.44-6.3-3.58-10.16-7.79-14.53  l3.29,13.96c-4.45,0.89-9.43,2.3-11.99-1.93c-1.53-2.53-2.2-7.1-6.83-10.7l2.57,13.41L1009.96,709.84z" />
<path class="cls-5" d="M237.05,667.08c0.13,3.53-1.64,4.93-4.98,3.63c-1.08,2.59-2.81,5.1-5.2,7.52  c-5.65,20.24-17.84,29.8-38.95,28.28c6.72,9.13,10.44,19.03,11.14,29.69c-3.72,15.69,1.33,24.13,13.21,33.87  c5.33,5.73,10.84,14.35,9.67,22.49c-2.32,16.25-13.94,2.48-18.73-4.98c-2.72-1.36-3.93-3.08-3.62-5.14  c-8.4-0.83-15.93-3.17-23.83-5.71c-0.05-0.02,0.67,0.11,0.83,0.56c0.22,0.61,0.19,1.31,0.1,2.03l1.85,3.24  c-4.21,12.41-3.1,20.52,7.52,28.77c2.8,3.82,8.44,12.39,3.87,15.78c-1.99,1.47-4.23,2.48-6.73,2.47  c-19.8-0.02-38.18-1.02-57.85-3.28c-2.52-0.29-4.64-1.28-6.37-3.21c-0.73-0.13-0.81-0.53-0.32-1.17l-2.5-4.67  c0-12.17,4.83-30.86,9.35-42.28l4.04-3.38c1.48-4.09,3.69-8.23,5.53-12.17c13.16-28.24,27.4-56.45,34.6-86.73  c3.73-15.69,18.44-17.92,32.68-19.56C217.28,651.43,228.98,653.84,237.05,667.08z" />
<path class="cls-3" d="M812.91,593.4c11.96,11.36,27.44,15.7,42.05,21.64c-0.41,2.36-1.8,4.23-1.34,5.43c0.47,1.24,4.02,0,3.29,2.99  c-17.29,3.89-204.64,6.04-203.12-3.5c1.23-7.72,15.41-7.14,37.08-20.89c32.31-20.5,66.87-46.41,105.57-16.07  C801.65,587.09,807.23,591.01,812.91,593.4z" />
<path class="cls-1" d="M917.54,704.32c1.42,3.2-0.52,6.85-5.83,10.96c-2.27,3.34-0.98,6.55,1.1,9.74c11.47,9.41,1.6,14.26-7.43,7.43  c-0.25-0.67-0.96-1.89-1.37-2.51c0.31-7.54-1.1-13.3-4.82-19.9c-0.02-0.89-0.49-1.82-0.64-2.71c-0.89-5.19,2.71-8.44,7.06-10.79  C912.69,694.4,914.23,702.4,917.54,704.32z" />
<path class="cls-4" d="M626.55,697.77c-6.22-0.49-13.66-1.13-19.85-1.21c0.48-5.76-3.84-9.97-5.06-16.53  c5.24,3.18,5.96,8.82,9.74,13.73l-0.07-21.6l6.25,19.18c1.73-7.88,1.24-15.04,4.77-22.02l0.89,21.82  c3.39-5.59,3.41-12.29,8.85-14.52C630.17,684.98,626.23,690.84,626.55,697.77z" />
<path class="cls-4" d="M552.86,693.17c-5.15-0.53-10.64-0.75-15.83-1.02c0.22-6.23-0.85-12.38,1.19-19.56l3.95,18.37  c3.06-6.27,2.54-13.49,7.82-18.88c1.21,6.46-2.2,11.32-1.78,17.41c4.15-3.29,4.21-8.73,9.67-11.98L552.86,693.17z" />
<path class="cls-4" d="M479.61,688.45c-3.75-0.63-8.11-0.46-11.94-0.7c1.36-6.36-3.04-11.94-2.8-19.54c3.88,3.23,3.77,8.03,6.87,12.1  l2.69-6.82c1.79,3.42-0.11,10.4,1.78,12.32C477.3,686.9,481.04,682.34,479.61,688.45z" />
<path class="cls-4" d="M508.76,690.31c-2.76-0.52-6.51-0.46-9.35-0.6c-0.12-8.61-0.45-17.14,2.3-25.61  c1.32,7.77-0.47,14.59,2.03,22.2l10.2-11.31L508.76,690.31z" />
<path class="cls-1" d="M245.06,674.88l-5.05,5.16c-4.22,0.46-11.53-5.43-7.94-9.33c1.21-1.61,2.96-3.13,4.98-3.63  c2.22-0.55,5.61-0.53,7.05,1.45C245.36,670.27,244.9,672.9,245.06,674.88z" />
<path class="cls-15" d="M904.01,729.94c-2.13-3.18-2.65-7.03-4.02-10.56c-1.15-2.95-0.71-6.24-0.79-9.34  C906.2,713.01,908.39,723.97,904.01,729.94z" />
<path class="cls-5" d="M647.02,764.16l-0.71,3c-5.52,0.8-10.25,2.83-14.18,6.09l-2.95-0.5l-1.14,3.26  c-9.25,3.71-16.26,10.99-19.37,20.47c-3.59,18.4-10.96,37.41-24.31,51.08c-17.2,17.62-42.46,18.4-65.5,18.14  c21.62,18.82,33.48,46.26,33.84,74.8c-2.04,22.22,3.14,38.68,17.62,55.09l27.26,26.43c5.4,6.22,9.83,13.61,11.22,21.85  c0.99,5.87,2.25,16.62-3.43,19.52c-0.75,3.09-3.18,3.03-7.3-0.2c-3.54,0.64-6.87,1.65-10,3.03c-3.63,1.57-6.79-0.67-9.46-6.73  c-2-8.43-6.04-13.82-12.13-16.16l-1.09-2.91l-10.06-2.55c-35.98,0.19-70.8-11.49-93.04-41.64c8.04,13.85,19.43,25.75,33.72,33.19  l2.28,4.09l0.6,4.27c-23.28,38.65-36.91,87.44-1.23,123.53c23.15,35.04,23.41,70.77,5.47,108.25  c-5.33,11.14-12.65,25.86-23.47,31.71l11.97,2.73c15.56,0.74,37.65,3.25,46.15,18.4c9.5,16.95-4.32,11.89-14.17,6.57  c2.91,4.55,7.49,12.21-0.83,12.58l-18.54-10.55c3.58,4.57,4.48,11.83-2.77,11.07c-24.65-10.6-50.69-16.18-78.13-16.73  c-16.06-2.59-41.85-11.5-53.16-23.15c-1.22-1.25-1.57-3.08-1.85-4.74c-13.06-7.3-23.18-21.82-31.62-34.29l0.7-4.39l-5.04-4.3  c-13.99-31.02-23.63-68.31-19.99-102.52c0.11-1,0.59-1.96,1.13-2.94c0.56-1.02,1.29-1.95,2.07-2.85c-1.02-0.24-2.45-0.66-2.54-1.47  c-0.24-2.24,1.87-22.25,2.56-24.69l2.86-1.65l7.27-32.55c0.92-4.1-2.64-8.82,0.54-14.67l39.38-72.39  c18.34-33.7,39.14-65.16,54.9-98.97c7.16-15.37,17.45-30.06,24.06-45.73l11.13-26.39c8.64-20.49,15.8-41.59,23.14-62.22  c1.04-5.53-3.8-13.44,3.11-18.79c5.05-3.92,9.95,0.04,15.85,1.19c31.11-12.01,70.42-29.49,100.51-11.99L647.02,764.16z" />
<path class="cls-6" d="M60.2,1063.64c-5.66,3.5-4.75,9.97-9.26,16.52l-16.87-65.83c10.5,14.76,14.31,30.89,19.44,46.06  c-3.12-42.14-15.65-79.57-26.81-119.11c25,46.94,38.64,97.75,48.3,150.1l-21.67,0.93L60.2,1063.64z" />
<path class="cls-6" d="M312.1,1083.41c-1.02-3-2.72-3.93-5.1-2.79c3.81-52.17,21.95-104.53,42.42-154.28  c-12.31,52.34-24.85,102.67-27.24,155.73C320.13,1084.71,314.08,1083.75,312.1,1083.41z" />
<path class="cls-6" d="M242.73,1085.65c-1.35-16.35,0.26-32.99-2.33-50.05c-1.28-8.42-0.27-16.51,7.08-21.77  c4.3,12.47,16.09,63.94,8.58,70.76C253.52,1086.89,249.62,1085.12,242.73,1085.65z" />
<path class="cls-6" d="M122.84,1099.2c-8.67-16.7-1.13-34.13-0.37-50.85c1.2-26.44,6.8-52.63,16.64-77.68  c-7.89,38.46-10.15,78.53-7.52,118.23c-1.81,1.56-5.35-0.41-6.58,0.44C122.92,1090.78,123.95,1093.15,122.84,1099.2z" />
<path class="cls-6" d="M279.33,1085.39c-3.75-11.94-2.28-23.87,6.93-32.34c1.93,8.49,1.53,16.01,2.01,23.93  c4.86-20.13-0.62-39.94,18.31-58.19c-3.62,21.67-4.74,42.68-6.72,65.22L279.33,1085.39z" />
<path class="cls-4" d="M60.39,1202.88c-5.66,3.62-10.87,9.14-17.52,10.71c7.3-35.86,19.45-71.6,35.49-105.43  C71.02,1140.65,58.91,1171.44,60.39,1202.88z" />
<path class="cls-6" d="M49.44,1089.61c-4.43,5.35-12.75,4.17-17.58,2.17l-15.48-70C28.98,1043.03,40.54,1064.69,49.44,1089.61z" />
<path class="cls-6" d="M91.07,1057.27c-4.38,6.65-4.96,13.26-10.39,19.73c-1.12-32.63-7.69-63.12-14.81-95.36  C79.31,1006.05,83.72,1031.91,91.07,1057.27z" />
<path class="cls-6" d="M244.22,966.47c7.71,11.86,41.41,97.05,19.88,102.08C262.17,1033.22,253.81,1000.55,244.22,966.47z" />
<path class="cls-6" d="M230.6,1029.46c-2.93,4.51-4.29,8.36-9.47,11.73c-3.17-35.02-7.47-68.71-13.4-103.98  C218.14,967.3,223.29,998.48,230.6,1029.46z" />
<path class="cls-6" d="M203.19,1068.1c-0.5-20.21-15.02-43.97-2.69-55.56l14.42,39.71C210.85,1057.76,209.61,1063.04,203.19,1068.1z" />
<path class="cls-6" d="M237.46,1085.55c-5.09,1.55-10.7,1.01-15.81,0.56c-3.75-16.82-0.29-31.16,10.29-44.62  C233.93,1055.65,237.09,1069.5,237.46,1085.55z" />
<path class="cls-6" d="M320.13,912.94c-2.67,0.95-7.42,1.45-10.45,1.78c4.66-26.53,16.74-51.83,29.82-75.81  C332,864.56,324.27,888,320.13,912.94z" />
<path class="cls-5" d="M82.78,918.98c-2.19-0.09-4.43,0.16-7.02-0.24c-2.45-0.37-2.01-3.03-1.84-5.35  c2.2-24.51,2.52-49.19,2.89-75.21C83.12,864.76,82.89,891.96,82.78,918.98z" />
<path class="cls-6" d="M106.62,1036.47c-2.69,27.99,8.78,33.05-6.9,56.44C93.49,1073.06,95.53,1052.83,106.62,1036.47z" />
<path class="cls-6" d="M268.09,966.65c2.16,9.67,26.14,80.55,8.91,81.25C275.11,1019.86,271.93,994.14,268.09,966.65z" />
<path class="cls-4" d="M98.04,1181.13c-2.34,0.81-5.62,4.07-8.49,3.93c1.99-23.73,7.15-47.36,15.63-71.12  C101.49,1136.39,99.91,1158.7,98.04,1181.13z" />
<path class="cls-6" d="M246.13,1009.15c-2.73,2.65-3.19,5.3-7.36,7.74c-3.32-23.96-9.86-46.15-14.95-70.32  C234.58,966.39,239.03,988.07,246.13,1009.15z" />
<path class="cls-6" d="M69.64,908.04c-2.03,1.23-1.19,3.68-1.23,4.94c-0.07,2.35-1.77,4.06-4.37,3.1  c-2.26-21.57-6.73-41.65-14.21-63.97C60,869.24,69.11,888.77,69.64,908.04z" />
<path class="cls-6" d="M288.01,916.04c-1.54-0.03-3.34,2.3-5.22,0.94c-2.25-22.32-4.7-43.93-10.87-66.99  C284.13,870.16,287.79,893.45,288.01,916.04z" />
<path class="cls-6" d="M187.55,1040.22c6.82,8.47,20.04,38.91,4.26,45.67C192.4,1069.56,182.78,1056.55,187.55,1040.22z" />
<path class="cls-6" d="M106.31,1025.44c0.32,5.01-4.16,10.53-7.51,14.13c0.27-26.65,3.95-51.48,8.5-77.42  C107.19,983.5,104.93,1003.54,106.31,1025.44z" />
<path class="cls-6" d="M196.88,1005.32c-2.07,3.32-2.48,6.06-6.14,8.65c-4.8-19.78-14.87-36.66-21.9-56.88  C181.79,971.45,188.46,988.75,196.88,1005.32z" />
<path class="cls-6" d="M36.13,913.27c-1.79-0.12-3.58,0.08-5.37,0.21c-2.43-22.13-5.92-43.39-12.06-65.98  C28.7,868.26,35.46,890.88,36.13,913.27z" />
<path class="cls-6" d="M154.31,1075.36c-0.65-23.19-1.71-45-4.18-68.37C158.82,1029,162.81,1052.29,154.31,1075.36z" />
<path class="cls-6" d="M155.11,920.48l-5.17-1.71c6.92-18.12,18.45-35.31,35.1-47.34C173.44,888.01,163.32,903.34,155.11,920.48z" />
<path class="cls-6" d="M302.47,915.5c-2.7,0.29-5.12,0.41-7.84,0.2c2.58-17.99,7.09-35.86,15.65-53.22  C306.58,879.88,303.12,897.57,302.47,915.5z" />
<path class="cls-6" d="M308.34,1008.94c-0.87,4.14-4.84,7.54-8.48,9.99c4.56-19.74,9.14-38.59,18.42-57.48L308.34,1008.94z" />
<path class="cls-4" d="M123.65,1169.63c1.93,4.61-6.63,8.59-8.44,3.5l5.17-44.08L123.65,1169.63z" />
<path class="cls-6" d="M109.73,900.28c-1.38-0.11-2.93-0.15-3.94,0.94c-2.03-3.24-2.9-13.05-6.98-9.37  c2.89-7.26-0.55-11.74-3.52-19.98c5.07-0.05,4.75,11.67,9.07,5.79c1.13-1.54,1.87-2.98,4.07-3.99  C101.21,882.21,107.58,890.52,109.73,900.28z" />
<path class="cls-6" d="M98.81,891.85c-3.42,8.6-5.26,17.92-6.6,26.98c-1.58,0.01-3.35,1.7-5.03,0.15  C89.03,909.36,91.58,898.66,98.81,891.85z" />
<path class="cls-6" d="M182.85,1087.38c-3.19,2.83-7.14,1.67-11.3,1.1c1.29-7.7,4.09-14.27,7.33-21.15L182.85,1087.38z" />
<path class="cls-6" d="M95.29,1090.94c-4.1,1.18-6.91,1.33-10.34-0.07c1.9-7.63,3.27-13.67,6.93-19.48L95.29,1090.94z" />
<path class="cls-5" d="M132.62,921.29l-2.75-0.13l12.02-49.51C140.08,889.13,136.27,905.18,132.62,921.29z" />
<path class="cls-6" d="M121.74,1129.86c-3.01-9.58,0.52-18.54,1.47-28.65C124.49,1110.94,124.94,1119.98,121.74,1129.86z" />
<path class="cls-6" d="M72.32,909.38c-0.67,3.17,1.57,6.83-1.44,10.34c-2.63-3.89-0.65-7.16-1.24-10.34H72.32z" />
<path class="cls-4" d="M40.5,1154.77c0.9-0.88,2-0.31,2.38,0.37c0.86,1.54-2.2,3.14-2.03,3.2  C39.8,1157.94,39.78,1155.47,40.5,1154.77z" />
<path class="cls-3" d="M312.1,1083.41c-1.27,11.79-2.91,23.6-2.22,36.13c3.18,0.31,5.93-0.81,8.57-1.19l-2.88,27.81l-1.82,2.77  c-53.98,6.89-126.16,18.81-170.58,52.03c-23.83,17.82-28.6,40.78-4.44,60.6l59.54,38.01c1.25,4.16-0.34,5.25-3.75,7.07  c29.31-10.3,63.82-2.76,85.26,19.83c45.49-3.86,93.21,4.49,136.41,19.16l39.44-4.74c16.57-1.85,32.22,3.69,46.61,11.88l0.62-2.58  c40.54-19.26,92.44-18.73,134.75-4.7c-5.17-2.3-8.83-5.45-10.99-9.44l1.02-1.98c8.82-2.94,18.2-4.56,28.14-4.86  c29.39-16.43,61.95-28.98,94.07-39.9c-1.47-1.8-1.68-3.41-0.63-4.83l15.28-13.37c20.84-22.14,11.31-42.5-10.89-59.63  c-38.66-29.8-95.59-42.72-142.49-52.6l-1.8-3c-1.01-0.26-2.51-0.77-2.5-1.51c0.07-4.82,1.66-16.57,2.81-21.4  c-0.28-4.01,0.93-6.33,3.62-6.95l2.09-1.67c10.1-0.21,20.19,1.67,30.29,5.66c-0.74-12.92-2.34-25.94-4.79-39.05  c0.82-4.63,2.88-3.13,6.24,0.23c5.52,14.72,9.77,29.82,12.75,45.31c5.03,3.95,11.03,6.25,18,6.89c3.46-20.19,9.34-39.61,17.64-58.24  c4.01-3.86,6.09-5.25,6.56,0.16c-4.14,20.07-7.32,40.26-9.54,60.58l16.57,5.49l0.72,2.97c0.2,1.08-6.28,4.12-3.14,4.9l5.27,1.31  c19.32,4.79,74.76,12.41,65.38,47.27c10.3,4.3,52.06,6.94,46.03,24.12c-2.67,7.61-11.79,9.15-19.07,12.3  c10.53,8.63,35.8,22.59,30.65,37c-3.98,11.13-32.82,13.48-44.37,17.65c7.54,5.26,16.61,7.23,17.86,16.89  c-12.51,8.31-28.17,8.95-42.12,10.45l-4.98-13.91c-0.44,5.48,0.06,10.2,0.88,14.7c-9.82,2.23-25.22,1.14-31.63,10.13  c-7.45,47.21-68.82,40.93-105.99,37.99c-17.32-1.37-24.41,3.83-36.07,15c-15.02,14.38-46.64,6.21-54.5-13.7  c-5.32,16.66-18.43,16.86-32.89,19c-0.63,0.09-1.32-0.01-1.96-0.04c-13.44-0.52-22.48-4.88-27.69-20.46  c-11.2,8.03-19.03,13.95-30.65,15.37c-0.83,0.1-1.7-0.09-2.53-0.07c-18.04,0.32-28.84-15.92-44.15-22.29  c-23.72-9.87-49.82,6.13-73.54,8.4c-18.6,1.78-33.72-9.18-51.48-9.97c-32.95-1.46-23.06-27.2-47.62-20.32  c-30.2,8.47-58.36-0.42-78.29-24.2c-2.63-3.13-9.63-2.75-8.64-8.72c0.59-3.57,4.85-6.76,8.5-10.86  c-14.95,1.41-30.32,4.16-43.95-1.74c1.59-7.99,3.35-16.03,3.59-24.29c-2.8,8.29-6.89,15.75-8.71,23.07c-3.3-0.47-4.33-3.22-3.99-6.2  c0.26-2.28,1.11-4.73,2.54-7.74c-6.67-4.96-21.86-2.92-25.29-11.8c-5.21-13.48,17.24-32.28,25.42-41.95  c-8.2-2.61-23.11-4.44-19.74-13.6c7.87-21.37,31.3-26.29,49.61-34.87c-4.68-4.41-11.25-1.67-10.02-6.98  c0.96-0.96,1.89-1.96,2.74-3.02c3.33,0.65,6.39-1.86,8.44-3.5l45.61-13.19c-2.44-18.22-9.17-32.62-15.26-48.87  c11.43,13.56,18.42,28.92,23.37,46.39c7.36-1.53,13.47-2.72,19.54-5.03c2.37-12.17-0.83-23.67,0.28-36.26  c4.39,10.29,5.33,22.28,7.25,33.15c9.94,7.53,15.29-33.89,26.84-44.03l-9.59,38.23c18.81-9.6,37.81-12.46,58.12-14.06  c-1.62-10.49-4.95-20.06-7.93-30.63c7.7,8.63,10.29,19.36,14.64,29.76c5.44,0.1,9.99-0.91,15.19-3.1l5.28-41.37l9.07-22.65  C313.96,1066.94,312.99,1075.1,312.1,1083.41z" />
<path class="cls-5" d="M1057.9,493.99c-0.86,5.07-7.02,9.91-6.86,15.63l-183.13,6.05c-0.26-6.14-6.52-10.75-8.05-16.22  c-1.75-6.26-3.93-18.02,2.56-20.94c10.48-4.71,18.02,8.07,26.89,11.82c0.89-9.04-4.35-27.6,7.12-29.49  c13.36-2.21,20.43,16.72,27.19,26.57c4.15-9.75-1.11-25.8,8.22-33.74c6.91-5.88,12.71,5.9,15.25,12.88  c3.79-9.86,7.02-33.43,21.53-31.08c10.97,1.78,15.65,34.57,17.42,46.13c4.33-10.48,16.78-36.52,29.85-31.79  c11.76,4.26,8.12,28.64,7.93,37.73c9.01-8.69,18.47-25.06,31.5-19.7C1063.33,471.14,1059.13,486.73,1057.9,493.99z" />
<path class="cls-4" d="M120.62,1445c-1.82,2.85-2.5,7-5.94,8.28l-3.07-48.51C115.03,1418.28,115.69,1432.2,120.62,1445z" />
<path class="cls-5" d="M817.22,916.32l3.08-0.16c1.92,2.31,11.86,17.7,11.52,19.45c-0.12,0.61-0.53,1.17-1.02,1.72l3.41,0.36  c6.86,14.01,16.63,24.1,29.31,30.27l1.46,3.12c25.05,21.02,56.87,34.15,86.11,51.9c54.44,33.05,91.36,85.11,103,147.34  c3.04,16.24,1.55,34.81,0.01,51.1c-9.28,19.34-18.09,38.79-25.44,58.97l-4.02,2.51l-2.77,0.57c1.18,5.77,0.2,9.67-2.95,11.7  c-0.71,4.23-6.91,8.56-10.37,5.33l-3.92-2.84l-4.4-16.62c0.75,6.77,0.61,13.52,0.42,20.31c-0.02,0.7-0.51,1.41-1.05,2.17  c-0.55,0.77-1.25,1.44-1.99,2.08l-16.57,3.32c-1.47,3.92,1.11,8.56-2.72,10.95c-3.21-3.25-0.77-7.41-2.24-9.18  c-1.77-2.15-6.43,0.2-8.5-1.23c-12.39-8.59-22.47-19.08-33.6-27.89c-23.04-19.1-32.07-41.7-30.83-70.47  c11.25-48.32-14.62-78.19-55.42-102.38l-44.5-24.5c-12.04-5.81-49.91-36.39-49.66-48.44c0.02-0.95,0.22-1.9,0.46-2.85l0.79-3.45  c7.06-4.21,12.01-11.04,15.33-18.46c-14.2,17.46-32.49,26.04-55,25.45c-0.93,4.69-4.26,2.72-6.59-0.6l-2.28,2.22  c-12.53-1.6-20.91,10.29-26.53,19.9c-2.93,1.82-4.59-0.39-4.99-6.65c-5.19-0.86-6.86-3.43-4.99-7.71c-3.98-0.83-4.62-4.24-0.73-5.88  c-3.01-3.66-0.2-12.09,4.47-11.61c-0.63-0.84-1.47-2.18-0.98-2.76c1.66-1.99,17.97-17.86,19.22-18.31c1.04-0.38,2.22,0.13,3.24,0.61  l0.95-4.47c13.28-9.7,20.81-19.59,21-36.88c4.32-16.04,10.63-31.31,18.95-45.8c4.45-12.67-4.29-25.37-13.62-33.34  c-28.53-14.51-35.03-37.2-33.77-66.79l-2-10.61l1.93-2.64c-2.92-0.92-4.83-3.68-5.73-8.29c-2.25-2.36-3.02-4.62-2.3-6.76  c47.48-2.37,47.85-18.15,105.81,30.41c3.91,2.98,10.62-0.81,12.14,5.51c1.07,4.45-0.98,8.83-4.32,12.04  C795.96,865.05,802.24,893.17,817.22,916.32z" />
<path class="cls-15" d="M754.06,1032.91c29.38,54.54,97.55,63.01,130.91,100.57c55.17,62.11-13.67,75.64,49.03,148.08  c-16.41-12.98-33.68-25.47-48.89-39.79l-2.2-1.95l4.89-15.67c-1.45,6.14-4.09,10.51-7.92,13.11c-14.64-6.82-26.74-18.69-40.1-27.85  c-0.63-0.93-1.2-1.89-1.61-2.91c-0.4-1.01-0.76-1.96-0.67-2.85c0.8-7.77,1.9-15.48,3.35-23.11l-6.83,21.51l-3.73,1.9  c-2.11-2.53-8.16-3-9.53-6.56c-4.07-4.17-6.95-9.57-8.64-16.2c-3.21-4.25-4.82-8.28-4.82-12.1c-3.19-1.39-3.49-4.53-0.9-9.41  l-2.78,0.51l-3.12,0.99c-4.99-6.09-9.94-12.2-14.83-18.34l-0.65-3.49l-2.49-1.54l1.61-11.8c-1.13,3.13-3.06,4.94-5.79,5.4  c-1.12-0.25-2.22-0.55-3.25-1.01c-1-0.45-1.94-0.89-2.58-1.59c-14.74-16.29-30.14-33.58-42.89-51.43  c-5.52-7.73-21.54-30.33-21.51-38.11c0-1.14,0.2-2.28,0.44-3.42c1.75,0.49,4.77,0.74,6.59,0.6c10.16-0.73,20.27-1.93,30.32-3.6  C748.94,1031.28,751.8,1031.3,754.06,1032.91z" />
<path class="cls-6" d="M668.7,951.96c-0.78,0.22-1.69-0.04-2.35,0.31c-1.08,0.56-1.94,1.65-0.75,2.71  c-8.03-18.57-12.98-38.8-20.79-58.34C657.2,913.67,667.58,933.14,668.7,951.96z" />
<path class="cls-6" d="M690.9,947.03c1.09,1.36,2.05,2.87,2.28,4.63c0.7,5.44,0.88,20.96,0.41,26.54c-0.15,1.78-1.31,3.29-2.39,4.64  l-1.64,6.2c-7.3,8.78-14.57,17.72-19.82,27.93l-4.06,2.28c0.97,2.6,1.22,5.61,0.73,9.03c1.4,3.08,2.29,6.23,2.66,9.45  c-0.22,1.74,0.6,4.08,0.73,5.88c-0.19,4.64-0.04,9.3,0.44,13.97c1.36,2.62,1.97,1.08,1.82-4.61l2.73-1.65  c2.13,0.68,0.83,3.44,2.47,5.86c6.31-11.92,17.59-25.18,31.32-21.33c15.81,36.72,43.82,65.67,69.78,95.57  c0.98,0.37,2.42,1.06,2.31,1.8c-0.93,6.61-6.45,30.79-8.93,36.2l-3.06,1.24c-8.35-1.78-16.24-5.31-24.28-8.21l-3.74-3.82  c-1.58-5.98-3.42-11.87-5.55-17.68c-6.96-18.98-6.88-15.26-1.11,1.37c2.97,6.57,3.35,12.38,1.15,17.42  c-8.31-2.43-17.07-3.45-25.4-5.42c-5.94-1.4-12.11-5.65-20.13-5.41c1.42-22.84,6-43.12,10.43-66.59  c-11.18,19.31-15.5,41.65-19.35,64.28c-8.13-1.48-18.65-2.9-23.25-8.99c-4.51-16.71-6.78-33.53-14.52-48.93  c2.49,15.74,5.59,30.31,5.97,45.27c-12.47-4.38-23.93-7.43-35.66-7.93l-1.87-7.13c1.71-32.16,1.92-64.36,0.64-96.6  c0,0,0.93-2.3,2.79-6.89c4.06-3.17,13.04,4.14,15.52,7.86c4.4,6.6,4.36,11.42,2.36,18.73c2.16-0.02,3.64,0.61,4.71,2.86  c3.57,0.13,3.52,1.34,0.2,2.59c0.55,1.77,1.82,1.78,3.79,0.02c0.36-7.01,6.5-2.2,6.2,3.09c3.19-1.94,4.78-5.61,4.79-11l2.94-1.57  l-2.3-3.23c0.2-11.63-1.64-23.09-5.51-34.4l1.81-3.62l8.3-19.64c2.74,5.07,3.53,12.47,10.43,10.67c-0.12-11.2-3.41-22.25-2.45-32.78  c0.94,0.84,1.22,0.86,2.06,0c0.76-0.79,1.11-1.92,1.04-3.01c9.05,5.39,3.63,19.89,11.6,28.81c2.91-33.42-0.38-65.31-3.98-96.98  C684.74,905.27,681.39,928.5,690.9,947.03z" />
<path class="cls-6" d="M914.6,1438.13c-9.52,17.63-9.7,30.38-18.31,25.66c7.84-51.36,20.12-102.42,38.06-151.76  C927.76,1355.23,913.53,1396.48,914.6,1438.13z" />
<path class="cls-4" d="M1008.57,1300.47l1.78,0.61c0.42,4.65,0.34,9.51-0.23,14.57c1.22,10.16,3.03,7.46,5.41-8.1l3.55-0.4  c3.78,2.25,5.42,6.59,4.94,13.02l0.31,29.21l-2.41,3.23c-12.68-7.33-24.33-18.62-36.13-27.56l11.56-0.75  c2.54-6.39-0.33-12.93,0.28-18.73c2.62-25.06-4.65-50.02-6.46-76.48C1000.6,1252.46,999.73,1278.38,1008.57,1300.47z" />
<path class="cls-11" d="M1024.66,1282.88l3.05,1.88c-0.04,5.32,0.16,10.58,0.61,15.79l2.8,1.29c0.57,6.8,1.15,13.61,1.72,20.42  l-2.51,2.12c0.97,11.5,2.81,23.64-0.59,34.78c-2.14-1.82-6.8-3.31-7.81-6.56c-1.59-15.23,1.6-31.28-2.84-45.46  c-4.26-1.63-4.01-9.53-0.15-12.01c1.21-8.57-0.91-16.91,0.98-25.7L1024.66,1282.88z" />
<path class="cls-6" d="M803.64,1160.19c2.23,1.32,2.24,3.91,0.02,7.76c-1.19,4.33-4.22,14.61-8.27,14.81  c-5.76-0.56-10.75-4.97-16.06-7l-2.59-3.54c1.12-10.11,2.84-20.13,5.16-30.06l3.14-2.82  C793.44,1143.97,795.85,1154.82,803.64,1160.19z" />
<path class="cls-3" d="M785.04,1139.35c-1.64,11.96-5.77,23.88-5.71,36.41c-3.6-1.37-7.99-2.64-10.63-5.11l9.68-39.24  c2.93-6.27,6.49-13.51,10.42-19.49L785.04,1139.35z" />
<path class="cls-3" d="M744.41,1162.44c-2.86-1.03-6.25-1.83-9.25-2.7c-2.6-18.45-10.78-35.28-15.48-54.03  C732.42,1123.4,739.61,1142.89,744.41,1162.44z" />
<path class="cls-3" d="M839.78,1209.41c-3.07-2.1-6.73-2.17-9.48-5.47c7.61-16.81,8.77-36.31,20.16-52.39  C845.49,1171.4,840.84,1189.99,839.78,1209.41z" />
<path class="cls-11" d="M820.77,1197.38c-6.88-2.37-13.66-7.36-20.13-10.93c-4.25-3.17,1.03-19.48,6.67-17.37  C814.55,1176.46,817.55,1187.54,820.77,1197.38z" />
<path class="cls-3" d="M807.31,1169.09c-4.33,4.48-5.32,11.37-6.67,17.37c-1.84-1.01-4.07-1.93-5.26-3.69l8.25-22.57  c2.51-6.85,8.84-12.87,12.81-19.55C814.71,1151.49,806.57,1159.03,807.31,1169.09z" />
<path class="cls-3" d="M885.12,1241.77c-3.51-0.42-4.51-0.92-5.23-4.51c4.09-11.58,8.49-23.49,17.05-33.36L885.12,1241.77z" />
<path class="cls-6" d="M894.52,1477.23c0.55-3.48,0.13-7.18,1.46-10.57c4.9-1.07,6.97,0.46,4.46,4.7  C898.78,1474.17,898.32,1478.47,894.52,1477.23z" />
<path class="cls-2" d="M500.99,544.64c-34.61,2.84-69.99,8.76-104.61,5.71l-101.73-8.96c20.56-5.67,39.48-15.38,56.41-29.6  c26.31-22.11,59.69-23.08,87.91-1.65C458.25,524.79,477.82,537.31,500.99,544.64z" />
<path class="cls-1" d="M129.56,771.6c-5.91,16.29-10.61,32.96-10.89,50.33c-0.81,0.33-0.62,0.72,0.32,1.17  c23.32,4.11,47.3,4.59,70.95,4.01l4.09-2.76c10.26,0.16,20.48-0.34,30.66-1.52l4.48,1.95c1.04-2.44,3.6-3.51,7.67-3.21  c1.74-3.67,1.16-7.72-1.74-12.16l-1.12-8.52l-2.63-1.61c-0.22-2.11,0.23-21.29,0.72-22.3c0.48-0.99,1.67-1.45,2.74-1.82  c2.21-6.92,8.91,0.07,8.08,5.81l3.42,1c1.29,5.26,2.34,5.67,3.17,1.24c0.05-3.68,1.2-6.26,3.44-7.75  c11.17,0.87,52.7,10.71,53.16,24.75c0.37,11.27-24.5,19.77-34.52,21.92c-55.38,11.87-112.8,13.15-168.58,2.83  c-12.24-2.27-49.4-11.03-48.07-26.01C56.56,780.5,115.1,772.51,129.56,771.6z" />
<path class="cls-5" d="M247.64,762.01l5.28,13.46c0.48,6.95-1.83,15.82-8.82,15.44c-0.36-2.37,1.36-4.62,1.18-6.47  c-0.2-2-3.41,0.59-4.22-0.61c-1.25-1.87-0.68-4.38-1.23-6.34c-0.58-2.06-2.51-3.21-5.02-2.33c-3.86-8.37-3.62-21.81-0.23-30.37  L247.64,762.01z" />
<path class="cls-6" d="M352.06,796.68c-2.01-1.38-5.63-0.79-6.53-3.78c5.54-17.82,13.04-36.13,26.18-49.36  C364.57,762.59,354.3,778.35,352.06,796.68z" />
<path class="cls-6" d="M341.5,790.39c-1.14-0.26-2.99-0.97-3.92-1.72c-1.84-19.71-2.25-39.49-0.75-60.15L341.5,790.39z" />
<path class="cls-6" d="M330.62,785.03c-2.48-0.21-4.54-2.01-6.62-2.79c4.97-13.73-1.31-28.97,2.28-44.37L330.62,785.03z" />
<path class="cls-6" d="M373.67,810.51c-1.34-0.82-2.91-1.96-3.84-3.12c0.62-11.35,3.59-22.97,9.5-32.84  C378.13,787.88,373.13,798.77,373.67,810.51z" />
<path class="cls-5" d="M738.79,1512.16c-3.85-0.79-5.21-5.64-6.76-8.19l-4.37-45.76C732.83,1476.07,736.61,1494.02,738.79,1512.16z" />
<path class="cls-11" d="M699.67,1509.5c1.61,1.61,3.93,2.62,4.44,5.18C702.52,1513.4,700.49,1512.47,699.67,1509.5z" />
<path class="cls-1" d="M928.14,914.86c3.82,0.52,4.09,6.28,0.7,7.84l-0.96,5.2c-12.45,19.4-1.83,62.49,27.24,52.73l2.78,2  c1.76-3.26,5.54-4.57,11.35-3.93c10.06-0.64,26.42-1.32,33.68,5.62c10.81,3.11,19.11,1.24,31.17-1.03  c17.71-3.34,36.32-0.34,54.86-6.19c6.55-18.11,7.38-38.22,5.9-57.27c14.69,2.53,51.99,9.79,52.87,29.02  c0.72,15.73-25.84,16.76-7.49,23.38c-19.36-5.69-42.3,10.14-58.05,11.69c-25.14,2.47-53.18-0.45-75.73,7.66  c-16.29-8.04-47.94-13.98-67.06,4.75c-0.84-6.31,3.99-5.3,4.7-9.32l-79.11-15.95c-16.12-3.25-25.97-21.07-34.18-33.74  c0.35-0.96,0.74-1.9,1.29-2.73c8.28-12.68,73.94-20.16,90.97-21.84L928.14,914.86z" />
<path class="cls-11" d="M1125.31,1166.56c-5.08-1.14-10.42,2.55-15-0.46c2.07-46.5-4.95-92.07-11.96-139.12  c12.48,38.42,16.76,78.4,22.38,118.91c6.92-32.21,6.06-63.46,9.06-94.66C1131.95,1090.48,1127.31,1128.38,1125.31,1166.56z" />
<path class="cls-11" d="M1142.06,1150.49c-0.2,3.58-2.4,8.05-3.06,10.99c-0.94,4.2-6.34,3.86-9.71,3.64  c6.14-42.5,16.04-85.04,31.6-124.29C1152.59,1078.83,1144.15,1113.77,1142.06,1150.49z" />
<path class="cls-6" d="M1163.6,918.68c-3.07-1.53-8.02-0.51-10.38-3.86c7.11-24.86,18.34-49.37,37.23-68.86  C1180.06,870.95,1168.33,893.5,1163.6,918.68z" />
<path class="cls-6" d="M1145.2,912.26c-1.96-0.71-6.69-0.5-8.44-1.92c5.27-23.08,14.31-46,27.03-67.34L1145.2,912.26z" />
<path class="cls-6" d="M1131.79,909.03c-1.45-0.2-3.98-1.5-5.35-1.29c0.96-23.88,0.33-47.34-1.08-72.32  C1130.99,859.59,1133,884.62,1131.79,909.03z" />
<path class="cls-6" d="M1151.79,1138.39c-2.13,2.09-4.12,1.94-5.17-1.19c5.06-23.52,12.22-46.59,22.12-69.92L1151.79,1138.39z" />
<path class="cls-11" d="M1151.79,1138.39l-3.83,25.79c-3.94,0.16-6.82-0.53-6.01-4.08c0.78-3.41,1.54-6.56,1.81-9.66  c0.39-4.55,1.91-8.79,2.86-13.24C1148.36,1137.28,1150.87,1136.49,1151.79,1138.39z" />
<path class="cls-6" d="M1100.36,793.77c-0.1,4.52-1.14,12.37-3.67,14.77c-2.73,2.59-12.35,2.23-15.81,0.75  c-3.46-1.48-1.64-11.02-4.02-15.74c6.01,1.8,4.35,8.58,8.51,13.71l3.46-18.7c2.92,5.92,2.53,12.41,3.65,18.81  C1095.67,802.87,1094.82,797.43,1100.36,793.77z" />
<path class="cls-6" d="M1083.34,869.21c-1.92-0.72-2.72-2.49-3.59-4.17c5.56-8.34,7.53-18.53,15.19-27.04  C1091.8,849.02,1087.91,859.32,1083.34,869.21z" />
<path class="cls-2" d="M1102.48,1416.62c3.3,2.51,5.49,7.36,10.3,7.54c4.9,18.32-4.63,38.79-5.78,58.2  c-6.68,2.05-11.69,7.35-19.3,10.79c-6.4-35.63-12.24-70.41-23.41-105.52L1102.48,1416.62z" />
<path class="cls-5" d="M1085.96,1275.09l-6.49-2.91c-1.18,0.08-2.89-0.27-2.92-1.13c0.75-21.41,0.44-17.92-0.95,10.47l0.03,1.5  c-1.85,3.33-8.9,3.13-10.73-0.15c1.1-4.36,2.85-9.28,1.42-14.96c-2.74,5.41-7.54,11.25-9.17,16.44l-2.35,2.98  c-6.2,0.73-12.39,1.47-18.58,2.2l-2.15-2.44c-0.98-1.46-1.64-3.07-1.62-4.85c0.05-3.52,5.22-18.68,7.05-22.63l3.82-3.27  c12.43-0.14,27.54-5.93,31.89-18.93c2.8-8.35-2.31-18.07,1.1-26.74l2.77,22.08c5.31-6.22,7.07-14.53,14.54-21.28  C1093.99,1221.6,1095.29,1272.98,1085.96,1275.09z" />
<path class="cls-5" d="M1119.54,1233.83c-1.14,3.7,1.74,6.18,1.75,10.66c-5.16,5.39-10.04,11.56-17.53,15.34  c0.39-12.11-12.18-68.42,7.35-58.17c3.18-1.36,6.83-4.28,10.68-4.03c5.4,0.36,8.14,1.71,10.23,6.41  C1141.05,1224.33,1121.23,1250.48,1119.54,1233.83z" />
<path class="cls-4" d="M1043.32,1256.36c-3.07,10.23-7.02,20.19-9.26,30.74c3.62,3.18-2.2,11.56-5.76,13.45  c-4.9-4.13-2.14-12.12-3.66-17.67c9.27-20.62,14.72-43.9,29.46-61.48C1053,1233.14,1046.68,1245.17,1043.32,1256.36z" />
<path class="cls-4" d="M1118.52,1402.41c1.35,3.57-0.66,7.98-0.39,11.67c-7.81-12.34-11.96-27.04-6.69-41.37  C1112.75,1383.77,1115,1393.1,1118.52,1402.41z" />
<path class="cls-2" d="M1108.77,1317.41c-3.18-9.85-5.05-17.16,1.47-23.54C1117.28,1301.36,1114.39,1310.46,1108.77,1317.41z" />
<path class="cls-2" d="M1090.23,1304.4c-1.74-8.36-3.97-16.7-4.04-25.25c1.68-0.24,3.85-0.72,5.44,0.29c1.45,0.92,0.38,2.6,2.01,5.27  C1089.33,1290.56,1098.67,1305.01,1090.23,1304.4z" />
<path class="cls-3" d="M44.44,1408.77c-3.09,5.28-2.96,13.9-8.14,18.44c-0.64-4.3-0.68-9.09-4.15-8.91  c-5.01-52.73-18.13-103.74-27.87-157.13C21.99,1309.42,32.57,1359.38,44.44,1408.77z" />
<path class="cls-6" d="M10.86,1242.5c-1.56,1.94-3.41,3.09-5.48,4.27c-1.9-9.88-2.61-21.19-0.11-31.4  C12.59,1224.77,6.92,1234.44,10.86,1242.5z" />
<path class="cls-6" d="M40.32,760.13c-3.15-11.61-4.28-23.1-1.28-35.38C39.67,736.87,43.63,747.41,40.32,760.13z" />
<path class="cls-6" d="M15.47,767.97c-5.04-11.86-7.98-23.15-9.66-35.9C10.34,743.38,16.42,754.58,15.47,767.97z" />
<path class="cls-2" d="M1061.17,1506.92c-0.65,0.66,3.39-6.43,0.31-4.78c-0.7,0.37-1.58,0.93-1.93,1.64  c-7.4-46.41-12.46-27.44,5.68-72.18c5.07,23.64,7.12,45.82,8.83,69.05C1068.8,1502.66,1065.63,1506.56,1061.17,1506.92z" />
<path class="cls-2" d="M991.46,1530.6c7.45-34.45,13.69-70.64,30.25-101.69c-1.48,8.52,3.28,16.2,3.28,25.75  c-13.46,23-22.39,47.62-29.03,73.16C995.42,1529.91,992.63,1530.04,991.46,1530.6z" />
<path class="cls-2" d="M1057.15,1284.37c-4.05,12.83-8.54,25.74-13.95,38.82l-12.88,1.2l-2.01-23.84c-0.37-4.37,4.96-9.7,5.76-13.45  L1057.15,1284.37z" />
<path class="cls-2" d="M1030.4,1515.36c-2.58,5.8-10.97,6.71-18.17,7.47c3.08-18.66,8.74-34.27,14.21-51.33  C1037.55,1485.62,1037.93,1498.4,1030.4,1515.36z" />
<path class="cls-2" d="M1075.63,1283.04c0.24,12.71-6.05,24.81-9.1,38.18c-1.34,3.02-8.87,2.51-11.59,0.98l9.96-39.31  C1068.45,1282.18,1072.09,1282.37,1075.63,1283.04z" />
<path class="cls-2" d="M1054.73,1507.84c-1,0.58-1.59,2.85-3.05,3.02c-1.5-5.8-7.36-11.12-7.98-17.51l6.35-20.39  C1053.8,1484.87,1053.13,1496.41,1054.73,1507.84z" />
<path class="cls-6" d="M1079.47,1272.18c0.68,2.63-2.24,7.77-3.87,9.35c-3.03-8.41-1.25-20.02-2.28-29.97  C1084.36,1254.68,1077.59,1264.87,1079.47,1272.18z" />
<path class="cls-6" d="M1143.69,1323.11c0.5-2.94,0.73-6.24,1.06-9.27c0.48-4.4-0.89-9.95,3.26-14.07c6,12.94,6.73,26.41,16.12,36.53  l-7.94,29.78L1143.69,1323.11z" />
<path class="cls-6" d="M1147.38,1435.72c0.22-2.77-1.65-4.99-1.74-6.82c-0.15-2.97-2.78-5.86-3.7-8.95l-9.59-32.12  c0.91-3.96-0.61-9.47,3.22-12.45c10.98,18.35,13.26,41.4,17.97,62.56C1150.13,1439.64,1148.67,1437.13,1147.38,1435.72z" />
<path class="cls-6" d="M1163.88,1421.84c-6.3-24-6.2-43.18,1.15-63.22C1170.45,1380.43,1168.12,1401.6,1163.88,1421.84z" />
<path class="cls-6" d="M1139.18,1306.96c-5.43-8.51-6.71-18.78-0.82-28.33C1147.12,1285.73,1142.38,1292.88,1139.18,1306.96z" />
<path class="cls-2" d="M1127.71,1438.43c3.36,1.33,6.22,3.99,9.62,6.79c-0.65,10.56-7.47,19.89-15.63,25.38  C1123.17,1459.88,1120.17,1444.87,1127.71,1438.43z" />
<path class="cls-2" d="M108.25,1507.76c-0.62-10.2,4.25-19.83,7.42-29.39c3.11,12.82,2.52,26.8,2.77,41.05  C112.97,1515.61,112.99,1509.67,108.25,1507.76z" />
<path class="cls-15" d="M629.18,772.75l2.55,1.84c0.73,7.49,5.56,12.79,14.49,15.89c-0.22,8.84-1.38,19.01-4.78,27.29  c4.02-1.77,7.99,0.51,5.69,4.6c-4.06,22.46-40.92,25.14-45.53,43.96c6.93,27.82,15.47,54.2,14.8,82.14l2.5,7.47  c-0.46,19.31-0.92,38.61-1.38,57.91l-2.72,1.53c-0.88,36.86,3.24,74.1-1.56,110.62l-3.93,29.86l2.43,1.86c0,0-1.66,6.72-4.98,20.16  l-3.02,0.55c0.56,2.98,0.53,5.59-0.27,8.47c-7.09,25.33-29.71,60.66-48.15,79.43c-6.72,6.84-28.46,26.45-36.68,26.8  c-1.08,0.05-2.17-0.09-3.27-0.29c-1.68,4.19-5.79,6.61-12.34,7.27c-8.23,2.81-16.03,3.18-23.39,1.13  c34.69-42.64,49.08-99.39,10.33-145.49c-31.69-37.71-13.56-85.41,8.3-122.27c3.3-1.34,7.06-1.01,11.28,0.98  c17.03,1.71,34.09,3.14,51.2,4.31l4.62,1.63c15.77,2.16,10.16,17.85,22.69,25.8c2.04,2.31,3.77,2.58,5.19,0.81l3.6,0.25  c3.69,7.16,7.42,1.87,8.51-3.88c12.31-53.4-58.48-50.85-55.45-116.61c1.58-34.19-13.53-66.37-40.77-85.25  c24.41,3.08,46.11,1.77,66.05-9.03c15.41-12.74,24.75-30.53,29.46-49.94C606.22,788.2,616.22,776.98,629.18,772.75z" />
<path class="cls-15" d="M966.96,876.1c11.56-1.55,22.94-3.88,34.13-6.99l3.16,1.52c20.88,53.12-37.61,41.38-1.33,113.69  c-12.15-3.5-32.94-3.99-45.03-1.69l-4.47-1.57c-8.44-9.64-25.96-39.63-26.23-51.97c-0.05-2.32,0.58-4.31,1.64-6.38  c-0.28-2.13-0.96-5.78-0.7-7.84c-3.36-2.12-5.73-14.38-1.46-16.14c-1.04-0.12-2.58-0.42-2.68-1.18c-0.53-3.83-0.39-34.38,0.65-35.87  c0.52-0.75,1.13-1.41,1.89-1.93c-4.66-13.75-5.04-31.56-0.92-45.57c0.35-16.5,4.19-32.99,7.84-49.6  c4.13-18.81-26.49-19.91-28.07-32.12l20.8,0.12c-9.24,2.14-14.01-2.56-16.82-8.27c-5.19-10.56,3.74-12.02,8.19-19.98  c21.03,12.2,6.21,43.01,46.87,46.84c6.72,0.63,13.06,3.46,17.03,7.85c15.45,17.1-10.34,26.74-4.43,57.73  c2.84,14.9-2.52,27.59-14.73,37.22c-29.14,22.97-18.46,50.73-13.99,46.71c2.86-2.57-0.47-13.8,3.59-9.27  c0.68,0.75,0.45,3.05,2.76,4.55C957.21,889.26,959.95,879.63,966.96,876.1z" />
<path class="cls-15" d="M695.02,1005.66c-5.5-4.6-7.01-16.31-3.81-22.82c-0.75-11.93-1.59-23.97-0.3-35.82l5.76-52.7  c1.47-13.41-10.87-26.09-20.46-33.75c-10.86-8.69-13.73-17.21-15.94-29.14c0.5-3.55,1.45-5.07,5.07-3.71  c-0.33-4.34-0.18-13.96,2.56-17.32c4.44-5.45,14.03-6.21,20.55-5.27c8.96,24.43-8.31,51.22,30.2,74.19  c13.37,7.98,26.65,27.08,18.95,41.93c-9.57,18.46-17.83,34.32-19.85,55.31C716.45,989.96,703.4,997.67,695.02,1005.66z" />
<path class="cls-15" d="M232.07,670.71c1.23,4.22,6.15,5.4,7.94,9.33c-1.18,5.13,2.16,10.36-1,14.82c-2.72,3.84-7.96,6.17-13.96,7.28  c3.93,14.51,8.26,28.32,9.53,42.65c0.9,10.04,0.55,20.31,0.23,30.37l-0.83,25.73c2.13,7.68,2.25,19.48-4.81,23.9  c-12.92,2.51-26.16,2.01-39.24,2.33c-4.93-26.31-23.72-13.01-13.25-47.79l1.47-1.31c7.04,1.9,14.18,3.38,21.43,4.43  c8.67,2.26,8.79,12.22,18.03,15.68c5.35-11.15-2.62-22.25-11.03-29.91c-26.61-24.23,6.38-24.53-24.62-64.73  C230.8,707.59,214.83,675.2,232.07,670.71z" />
<path class="cls-3" d="M641.63,983.3c2.57-0.75,3.19,0.28,1.36,2.22c0.59,4.04,3.77,8.48,6.33,11.2c3.57,13.63,8.18,27.28,6,41.24  c-0.49,2.23-2.22,3.54-5.21,3.92c-1.94,2.54-3.38,4.05-6.05,1.21c-1.39,2.23-4.74,4.04-6.66,1.75  c-19.46,1.04,10.21-13.99-22.59-29.45l1.6-66.91L641.63,983.3z" />
<path class="cls-3" d="M898.83,900.9c0.27-3.97,4.56-3.71,5.5,0.01c4.71-4.04,17.23-5.89,22.36-2.19c0.02,5.13,2.15,10.69,1.46,16.14  c-33.24,3.93-67.92,6.07-97.32,22.46l-13.59-21c2.98,0.51,5.31-2.28,7.81-2.78c-0.18-3.98,6.01-4.24,8.23-1.5  c1.1-0.71,3.79-0.89,5.07-1.21l1.22-2.85l15.98-4.93c4.65-1.56,7.42-0.79,8.31,2.31c0.49,0.08,1.05,0.01,1.54-0.02  c1.15-3.45,7.42-4.56,9.33-1.42C882.68,900.07,890.02,900.87,898.83,900.9z" />
<path class="cls-5" d="M926.53,859.74c-6.08,9.05-9.13,13.58-9.13,13.58c-1.35,9.9-2.03,14.85-2.03,14.85  c-7.32,0.95-8.44,4.46-8.34,11.44l-2.71,1.3l-5.5-0.01c4.62-55.66-5.91-36.38,26.79-86.73  C925.29,829.35,926.47,844.57,926.53,859.74z" />
<path class="cls-1" d="M647.02,764.16c8.93,5.2,12.74,9.71,10.64,20.51c-7.28,10.23-9.45,20.51-6.51,30.85l-0.4,4.04  c-0.43,0.65-0.09,2.35-1.13,3.05c-0.59,0.4-1.57,0.05-2.49-0.23c-5.42-8.92-6.58,7.08-20.98,6.82c-5.81-0.11-12.37-2.06-12.07-10.35  c4.47,3.49,8.13,6.55,12.17,6.12c16-1.7,15.58-18.06,18.06-33.28c-10.02-2.92-16.27-9.5-15.14-18.94  C632.93,766.91,640.63,766.15,647.02,764.16z" />
<path class="cls-1" d="M680.42,790.07c5.58,4.06,6.1,9.82,8.03,15.05c-4.33,3.8-11.88,2.03-16.96,4.65  c-4.89,5.67-5.58,24.95,2.16,29.58c2.51,1.5,5.94,0.28,8.84,1.5c-1.87,4.26-7.6,2.83-10.96,1.37c-8.16-3.53-2.91-17.03-11.27-10.8  c-1.43-7.73,7.65-38.44,9.15-39.47C673.2,789.35,676.6,790.26,680.42,790.07z" />
<path class="cls-6" d="M863.84,905.35c-9.29-1.56-16.96,4.76-25.51,5.47c1.39-17.24,9.53-34.6,17.99-50.42l-10.2,43.28l15.66-17.59  L863.84,905.35z" />
<path class="cls-6" d="M874.72,903.91c-2.84,1.37-6.28,1.24-9.33,1.42c3.84-15.94,8.18-32.28,16.7-46.12  C884.97,876.74,875.34,889.31,874.72,903.91z" />
<path class="cls-6" d="M833.27,912.04c-2.12,1.37-5.87,1.04-8.23,1.5c-1.71-19.77-5.9-39.33-3.31-59.09L833.27,912.04z" />
<path class="cls-6" d="M642.99,985.52c-0.44-0.53-0.96-1.67-1.36-2.22c3-15.87-12.03-29.62-13.16-47.84  c7.86,11.38,13.38,23.57,19.47,36.05l1.83-7.6C655.12,971.52,649.31,982.45,642.99,985.52z" />
<path class="cls-15" d="M650.75,819.55c-7.8-9.59-3.42-27.78,6.91-34.89C655.4,796.33,657.64,809.19,650.75,819.55z" />
<path class="cls-6" d="M855.21,791.76c1.28,5.86-1.82,9.05-1.98,12.98c-0.15,3.72-5.43,5.02-9.47,3.17  c-2.68-5.83-0.71-14.2,0.39-21.88c3.49,6.01,1.84,12.69,4.28,19.16C851.42,799.93,851.24,794.73,855.21,791.76z" />
<path class="cls-6" d="M821.55,797.26c3.97-0.12,5.55,3.79,10.99,5.5l-0.29-14.01c3.09,6.41,7,12.5,9.21,19.16  C832.31,811.55,828,805.28,821.55,797.26z" />
<path class="cls-3" d="M1004.26,870.63c-10.99,5.48-25.65,3.3-37.3,5.47c28.34-6.04,54.38-15.54,60.76-48.18  C1028.07,844.76,1020.4,862.58,1004.26,870.63z" />
<path class="cls-1" d="M967.11,691.28c0.63,4.35-5.27,7.71-8.37,8.87c-3.3,1.24-11.99-0.26-12.44-3.54  c0.04-4.26,4.57-8.88,7.63-10.17C957.8,684.8,966.23,685.24,967.11,691.28z" />
<path class="cls-2" d="M992.18,702.34c-7.54-3.64,1.58-13.88,7.15-14.47C1000.11,692.42,996.92,702.25,992.18,702.34z" />
<path class="cls-3" d="M118.67,821.93l0.32,1.17c-7.43-1.31-15.77-0.53-23.42-4.78c-7.36-4.08-11.21-21.85-2.29-25.93  C106.61,788.87,105.42,814.68,118.67,821.93z" />
<path class="cls-3" d="M199.59,782.45c-7.02-1.38-16.21-0.03-22.9-3.12c-8.35-3.86-15.38-11.45-17.44-20.79  C166.96,774.41,183.26,778.2,199.59,782.45z" />
<path class="cls-1" d="M202.11,658.38c3.72-1.33,6.57-0.14,8.34,3.21c1.58,3,1.58,6.14-3.87,7.02c-2.06,0.33-4.48,0.52-7.36-2.89  C197.41,663.57,196.64,660.34,202.11,658.38z" />
<path class="cls-2" d="M337.4,1258.76c7.51,15.12,20.59,25.84,30.92,38.67l-4.42,2.3c-48.04-4.04-101.81-19.94-119.89-69.25  c-5.8-15.81-6.97-33.28,5.52-46.06c16.57-16.96,37.14,8.05,46.6,21.58c5.64,20.82,15.84,41.6,37.49,49.03L337.4,1258.76z" />
<path class="cls-3" d="M565.37,1040.42c-21.8-2.99-46.34,2.54-67.1-6.92c-29.14-13.29-46.53-43.51-51.47-72.24  c16.2,45.36,50.06,70.42,95.31,73.47C549.96,1035.25,560.25,1035.71,565.37,1040.42z" />
<path class="cls-1" d="M577.69,768.8c-7.42,3.23-16.49,6.85-23.68,4.07c-5.04-1.95-11.57-8.37-14.2-15.29  c2.96-6.72,15.41-11.4,23.8-7.98C569.91,752.17,578.32,762,577.69,768.8z" />
<path class="cls-2" d="M502.76,769.49c1.53,4.32-3.3,8.22-5.78,9.08c-3.48,1.2-16.92-22.71-11.66-26.67  C492.33,755.12,500.04,761.77,502.76,769.49z" />
<path class="cls-1" d="M605.36,1063.39c2.73,2.66,1.06,4.73,1.07,6.85c0.01,3.91-3.08,0.77-5.23,2.58c-0.91,0.76-2,3.47-2.45,4.93  c-2.6,8.6-1.7-6.24-2.98-8.52c-5.19-0.06-3.19,6.69-8.31,9.17l0.6-12.18c3.89-5.01,0.02-9.77,0.27-14.98c1.42,0.66,1.35,2.28,2.15,4  l2.33,5.03c1.15,2.48,3.43,1.39,4.14,0.31c3.02-4.53-1.08-9.22,0.93-10.6C601.99,1054.66,597.73,1063.58,605.36,1063.39z" />
<path class="cls-1" d="M315.57,1146.15c-4.02,38.85,4.37,77.47,21.84,112.61c-24.14-5.62-36.9-26.28-43.25-50.72  c-3.34-7.78-23.43-28.1-33.01-27.21c-4.69,0.43-10.89,5.82-13.66,10.18c-12,18.88-0.27,47.25,14.33,64.53  c24.9,29.46,67.8,38.66,106.51,41.9c55.69,42.78,76.11,13.52,135.69,43.02c2.01-5.91-4.99-8.86-4.44-15.18l25.54,14.52  c-0.51-7.28-5.89-10.35-8.27-16.72l21.9,9.59c-2.23-12.84-12.1-19.14-23.52-22.86c-12.36-4.21-29.12-0.22-35.57-8.55  c11.73-1.74,24.9-2.78,35.73-8.4c2.31-0.55,4.74,0.37,7.29,2.75l6.78,2.18c27.4,1.26,54.28,5.75,80.63,13.49  c-4.06-4.22-6.72-11.3,1.76-9.6l16.11,7.76c-7.69-7.34-8.56-11.54-2.62-12.61c7.72,3.7,21.63,8.77,7.31-2.14  c-4.61-3.51-10.25-5.31-15.96-6.02l-39.61-3.94c-2.63-1.08-4.26-2.39-3.13-5.14c18.33-27.26,39.62-60.39,29.67-94.43l0.14-6.7  c2-5.62,4.8-16.74,5.56-22.57c41.22,6.41,161.41,37,169.16,86.39c3.05,19.45-13.56,33.53-28.21,44.35  c2.73,1.66,7.62,0.67,11.92,2.47c-16.24,1.67-91.22,33.01-102.16,40.93c-7.83,5.67-20.91,0.42-31.62,6.39  c5.95,4.62,14.82,7.06,18.77,16.64c-34.71-20.11-107.24-18.82-142.41-1.53c-0.28,3.31,3.41,4.58,4.06,8.15  c-42.08-25.4-49.49-14.53-93.01-11.43c-40.96-15.37-104.81-23.18-136.87-19.4c-21.98-22.34-57.14-31.07-88.16-17.89  c-2.78-4.09,2.5-6.93,6.53-8.95l-59-37.51c-11.7-7.44-18.4-20.03-18.04-32.96C121.73,1178.3,273.97,1147.72,315.57,1146.15z" />
<path class="cls-3" d="M695.02,1005.66l-21.47,20.46c-3.15,5.46-9.17-2.61-7.86-6.87c6.08-13.59,16.1-24.93,25.52-36.41  C691.68,990.53,693.78,998.08,695.02,1005.66z" />
<path class="cls-3" d="M754.06,1032.91c-11.67,5.58-26.56,2.63-38.88,3.54c26.53-2.48,46.4-14.65,61.83-39.57  C775.09,1010.62,767.19,1026.62,754.06,1032.91z" />
<path class="cls-1" d="M750.46,816c-2.01,4.91-11.11,5.51-15.68,3.93c-3.72-1.29-10.4-6.04-8.98-10.07  c3.78-5.33,10.69-7.04,15.41-6.89C746.81,803.15,753.44,808.72,750.46,816z" />
<path class="cls-2" d="M1018.93,1295.15c-0.55,3.88,0.39,8.1,0.15,12.01c-4.73,4.87,0.12,13.6-6.88,18.73  c-7.97-4.95-3.53-18.29-3.64-25.41L1018.93,1295.15z" />
<path class="cls-2" d="M774.12,839.3c-0.16-10.14,12.97-11.99,20.13-11.33C790.36,836.08,781.6,840.29,774.12,839.3z" />
<path class="cls-2" d="M674.79,1051.31c-0.13,3.7-0.05,7.78-1.22,11.37c-5.15-1.16-6.63-4.66-6.75-8.04  c-0.15-4.32,1.13-7.81,2.98-11.04c0.17,2.35,1.84,5.32,2.56,4.46C673.64,1046.51,677.64,1043.9,674.79,1051.31z" />
<path class="cls-2" d="M673.54,1026.12c-1.34,3.62-3.96,7.66-4.47,11.61c-5.48-4.25-7.34-12.66-3.39-18.48  C669.14,1021.07,669.2,1026.35,673.54,1026.12z" />
<path class="cls-2" d="M655.32,1037.96c-0.93,5.99-1.55,16.1-9.12,15.33c-1.24-0.13-1.55-4.42-1.7-5.46c-0.27-1.88-1.16-2.03-3.1-0.38  c-0.93,2.78-2.98,2.84-3.79-0.02l-0.2-2.59c6.29-0.4,7.06-15.27,8.62-1.27C647.45,1038.39,651.42,1038.69,655.32,1037.96z" />
<path class="cls-3" d="M641.39,1047.44c-0.1,1.18-0.28,2.4-0.87,3.41c-0.7,1.19-2.88,0.89-3.5-0.53c-0.36-0.81,0.02-1.86,0.58-2.9  C638.86,1047.52,640.13,1047.51,641.39,1047.44z" />
<path class="cls-3" d="M229.18,824.79c2.17-7.62,4.55-15.84,4.81-23.9c2.13,6.8,8.72,13.01,5.97,21.08  C238.67,825.72,232.15,824.21,229.18,824.79z" />
<path class="cls-3" d="M928.84,922.7c3.05,23.11,15.57,41.59,29.07,59.93c-7.16,1.37-20.57,4.45-26.95-4.19  C918.49,961.59,914.77,936.97,928.84,922.7z" />
<path class="cls-3" d="M1129.97,965.02c-9.26,7.45-23.11,7.24-34.04,10.72c4.89-10.71,17.63-41.51,31.8-31.3  C1132.27,947.72,1136.46,959.8,1129.97,965.02z" />
<path class="cls-3" d="M515.38,1292.85c45.12-23.41,71.63-67.48,88.38-114.42c16.05,33.07-7.83,74.93-28.35,103.41l40.47,4.02  c12.69,1.26,23.69,7.39,27.68,20.05c-8.2-1.05-13.3-5.18-20.95-7.08c3.57,5.01,8.23,7.41,9.83,14.77  c-8.59-1.92-15.66-6.65-24.36-10.79c1.13,5.16,5.75,5.67,6.5,12.95c-24.14-9.25-48.63-12.37-74.8-14.07  C530.59,1301.08,520.03,1299.85,515.38,1292.85z" />
<path class="cls-11" d="M926.53,859.74l0.15,38.98c-7.46,0.66-14.96,2.21-22.36,2.19c0.01-5.52,1.76-10.41-0.92-15.8  c3.41,0.17,1,3.46,3.26,4.39c2.37,0.49,2-4.77,3.24-4.21l4.24,1.88C910.34,878.2,917.15,862.7,926.53,859.74z" />
<g>
</g>
<g>
</g>
<g>
</g>
<g>
</g>
<g>
</g>
<g>
</g>
<g>
</g>
<g>
</g>
<g>
</g>
<g>
</g>
<g>
</g>
<g>
</g>
<g>
</g>
<g>
</g>
<g>
</g>
</svg>