<?xml version="1.0" encoding="iso-8859-1"?>
<!-- Generator: Adobe Illustrator 30.2.1, SVG Export Plug-In . SVG Version: 9.03 Build 0)  -->
<svg version="1.1" id="Layer_1" xmlns="http://www.w3.org/2000/svg" xmlns:xlink="http://www.w3.org/1999/xlink" x="0px" y="0px"
	 viewBox="0 131.6 1200 1539.2" style="enable-background:new 0 131.6 1200 1539.2;" xml:space="preserve">
<style type="text/css">
	.st0{fill:#F6D0A0;}
	.st1{fill:#FFFFFF;}
	.st2{fill:#919880;}
	.st3{fill:#8434BA;}
	.st4{fill:#EEB268;}
	.st5{fill:#F1BD7C;}
	.st6{fill:#E0C193;}
	.st7{fill:#9A5FC4;}
	.st8{fill:#9C7D5E;}
	.st9{fill:#EFC793;}
	.st10{fill:#165D4F;}
	.st11{fill:#6B764F;}
	.st12{fill:#515758;}
	.st13{fill:#C4AF9A;}
	.st14{fill:#7A8C9A;}
	.st15{fill:#B4A190;}
</style>
<path class="st0" d="M1199.8,343.23v286.61l-1.04,1.83c-99.52-11.51-204.11-5.16-302.49,7.44c-38.14,4.65-76.57,2.76-112.67-11.35
	c-38.64-14-77.12-29.97-115.43-47.91c-36.39-20.1-72.04-39.98-106.98-59.65l-0.81-2.1c-2.86-0.62-5.74-1.32-8.34-2.69
	c-31.91-16.73-61.88-32.08-95.51-44.79c-22.46-8.48-46.15-14.66-70.18-15.78l-4.12-1.99c-1.92-1.33-5.2-1.34-7.14-0.01l-4.53,1.96
	c-30.79,2.2-61.14,7.13-91.06,14.78l-1.89-1.84c-0.67,0.51-1.46,0.97-2.37,1.4c-0.15,3.07-8.95,4.13-10.15,1.37
	c-0.22,1-1.3,1.13-2.22,0.93c-0.03,0.78-0.1,1.92-0.67,2.12c-5.63,1.94-22.15,5.84-27.88,6.32l-1.8-1.56
	c-0.67,0.52-1.45,0.99-2.34,1.42l-2.78,1.86c-22.27,5.91-44.33,12.39-66.2,19.43l-2.07-0.63c-1.22,2.07-2.23,1.58-3.91,0.37
	c-18.06-13.03-36.08-25.59-54.45-38.14c-2.22-1.52-3.98-3.59-5.66-5.67c-1.37-1.03-2.72-1.99-4.07-2.88l-2.71,0.04
	c-13.42-6.61-26.94-13.13-40.56-19.56l-3.7-3.53c-4.1-5.76,5.19-3.48,8.84-1.91c32.66,0.54,65.28,0.21,97.88-0.99l7.21,0.97
	c107.11,0.25,160.67,0.38,160.67,0.38c25.29-1.09,50.66-1.94,76.1-2.55c22.13,1.94,44.19,2.29,66.17,1.07
	c13.61-2.13,28.6-1.31,42.29,0.34c34.9,0.28,69.54,1.23,103.94,2.86c7.09-1.57,13.78-1.55,20.09,0.04
	c19.28,0.34,38.31-0.13,57.1-1.43c15.36,1.29,30.88,1.66,46.57,1.12l11.85,0.75c11.56-1.88,23.35-2.42,35.39-1.63
	c6.89,1.32,13.99,1.32,21.3,0c8.42,1.63,15.97,1.87,24.35-0.28c4.28,1.98,8.36,2.43,12.22,1.35c22.01,0.87,44.13,1.15,66.37,0.83
	l26.92,1.58C620.27,404.65,314.41,396.93,1.19,398.4L0,396.48v-44.16l1.83-1.78l74-4.77c4.72-0.94,8.82-0.41,12.3,1.6l0.29-0.7
	c5.85,0.17,11.29-0.08,16.32-0.76l0.99-0.24c1.41-2.83,8.52-2.63,10.26-0.17c2.04,0.57,4.47,0.76,6.05-0.79
	c1.76-3.04,9.94-3.23,12.32-0.83l3.17,0.64c11.11-1.1,22.07-1.84,33.23-2.37c40.6-1.95,81.4-3.56,122.08-2.57
	c7.11-1.13,14.19-1.72,21.24-1.77c3.62,2.37,6.86,3.76,11.32,3.32c27.4-2.2,55.17-3.74,82.59-4.73c1.08,2.33,1.29,2.27,0.64-0.19
	l10.99,0.85c8.96-1.82,18.09-1.93,27.37-0.32c10.56-1.26,20.11-2.27,30.59,0.26l38.78-2.48c12.81,2.65,25.4,2.88,37.76,0.71
	c7.28,0.61,14.63,1.13,21.9-0.26c7.44,1.97,13.93,1.43,21.5,0.23c0.74,0.13,1.31,0.27,1.32,0.44c0.12,2.01-2.59,2.02,0.09-0.27
	l61.44,0.93c-0.34,2.47-0.15,2.49,0.55,0.06l21.21,1.94c5.89,0.59,11.89,0.6,18.01,0.04c3.55-2.43,6.72-1.36,9.52,3.22
	c4.28-3.43,8.21-3.46,11.8-0.09c3.92-3.35,6.5-3.07,10.89-0.86c12.11-1.93,22.74-2.71,34.97-0.5c2.72-0.35,5.43-0.98,8.12-1.9
	c11.36,0.84,22.55-0.55,33.46-3.11c17.67,1.88,35.18,1.77,52.52-0.33c8.05,1.93,16.18,2.97,24.36,3.12l9.85,2.43
	c10.87-0.63,21.8-0.15,32.8,1.44c29.71-0.29,59.26-0.51,88.66-0.68c11.42-2.94,23.29-3.42,35.58-1.44
	c12.37-0.57,24.66-0.19,36.85,1.13c30.06,0.17,60.38,0.36,90.96,0.55c0,0,6.31-0.05,18.94-0.15L1199.8,343.23z"/>
<path class="st1" d="M11.58,1671.46c3.33-2.01,10.93-2.18,14.87-1.65l2.09,1.63c0.71-2.84,3.13-2.85,3.98-0.08l1.18-1.9
	c35.06,0.11,70.12,0.24,105.19,0.38l1.16,1.92c0.79-2.48,1.47-2.61,2.91-0.43l2.27-1.6l13.18,0.09l2.11,1.89
	c0.14-2.86,2.8-2.65,3.5-0.01c6.96-2.94,16.32-2.77,23.38,0.01c1.13-1.9,2.47-1.89,3.57,0.02c1.75-2.67,7.85-2.69,9.87-0.3
	c1.74-2.37,2.55-2.55,3.62,0.32l3.52-1.92l20.9-0.06l3.61,1.64c1.91-2.22,3.19-2.67,4.32,0.3l2.02-1.92c8.2,0,16.4,0,24.59,0
	l1.38,1.92c1.66-2.32,2.48-2.51,3.99,0.02c3.95-1.2,8.62-1.6,12.89-1.89c8.49-0.58,17.49-0.78,25.85,0.17l2.56,1.33l1.7-0.85
	c3.32,0.89,6.04,0.61,8.17-0.81l14.41,0.37l1.33,1.95c5.27-0.94,10.64-1.76,16.12-2.45l1.41,1.87l2.58-1.92l110.8,0.16
	c3.07-0.58,4.94,0.07,5.62,1.93c0.78-1.18,1.59-0.74,2.16,0.4c0.08-0.75,0.3-1.87,0.84-1.93c3.02-0.35,27.11-0.73,28.59-0.21
	l2.05,1.84c4.82-3.04,13.25-3.39,18.01-0.3c-0.29-2.75,11.26-2.1,12.37-1.63l1.26,1.95c1.3-0.41,2.19-1.05,2.66-1.92
	c5.04-0.54,9.63,0.1,13.76,1.93c0.08-0.74,0.23-1.8,0.79-1.94c2.4-0.61,11.76-1.04,12.56,1.62c3.33-3,10.05-2.66,13.39,0.26
	c0.1-2.71,9-2.39,11.02-1.9l2.53,1.93c2.4-2.79,7-2.77,9.4,0.02c4.64-3.05,12.38-2.55,17.3-0.04c0.88-1.88,2.66-2.48,5.35-1.79
	c0.15,1.27,0.98,1.96,2.48,2.08c3.41-2.72,11.06-3.13,14.37-0.26c0.74-2.07,3.26-2.77,7.58-2.09c3.47-0.75,5.73-0.16,6.77,1.77
	c6.36-2.77,12.94-2.79,19.31-0.02c1.33-2.18,15.27-2.27,16.7-1.59c0.7,0.34,1.03,1.19,1.29,1.95l0.65-1.92c14.51,0,29.03,0,43.54,0
	l1.13,1.92l0.66-1.92c38.22-0.09,76.43-0.04,114.65,0.14l1.81,1.77c0.75-0.49,1.51-0.94,2.33-1.27c3.49-1.42,22.3-0.9,27.73-0.59
	c1.69,0.1,3.24,0.87,4.7,1.67c1-2.99,2.88-2.64,4.53-0.16l2.74-1.61l13.97,0.01l2.69,1.77c0.97-2.91,3.17-2.92,4.47-0.18
	c2.04-1.63,4.84-2.06,8.41-1.29c3.08-0.68,5.52-0.27,7.32,1.23c1.19-2.53,3.22-2.01,4.28,0.39l1.92-1.9
	c4.62,0.35,9.22,0.33,13.8-0.08l2.13,1.55c-0.18-2.87,3.97-2.48,4.32,0.28c0.88-2.63,5.08-2.51,6.06-0.02
	c0.28-2.94,2.89-2.85,3.66-0.09c5.65-2.3,14.7-2.41,20.29,0.07c0.83-2.9,3.21-2.76,4.39-0.06l2.47-1.73l12.51,0.06l2.51,1.6
	c1.32-2.51,3.5-2.88,4.58-0.15l2.23-1.63c0,0,6.63,0.05,19.88,0.14l2.21,1.77h0.96c0.98-2.47,1.89-2.48,2.88,0
	c1.06-0.96,2.81-0.81,3.88-0.05c0.13-2.57,1.05-2.43,1.82,0c0.28-0.52,0.61-0.53,1.01-0.07c2.33-0.52,4.86-1.15,7.58-1.9
	c43.91,0.13,87.74,0.25,131.51,0.38l1.16,1.92c-0.34-2.86,5.18-2.68,5.65,0.09V1800H0v-127.68
	C2.24,1669.17,9.08,1668.5,11.58,1671.46z"/>
<path class="st2" d="M44.06,431.05c16.36,6.2,31.44,15.09,46.96,23.05c1.44,0.98,2.79,1.94,4.07,2.88
	c21.24,12.58,41.29,27.1,61.2,42.24c1.05,0.8,1.98,0.98,2.82,1.21c2.61,0.25,5.3,1.93,8.08,5.04c3.48,1.82,5.94,3.97,7.39,6.45
	c1.47-0.22,2.81,0.53,4.01,2.26c36.22,28.02,72.32,60.39,106.95,91.6c1.87,1.68,3.54,3.59,5.21,5.51c1.67,1.92,3.24,3.94,4.78,5.98
	c1,0.46,1.68,1.12,2.04,1.97l1.78-0.97l63.89,58.65c1.46,0.74,1.87,1.99,1.22,3.73c0.69-0.9,1.8-0.86,2.65-0.13
	c37.79,35.32,75.09,70.86,111.87,106.63l0.42,2.27c-4.12,3.79-8.34,7.31-12.67,10.56c2.92,1.02,7.27,5.49,8.61,8.28
	c2.27,4.73,1.38,29.63,0.75,36.14l-1.84,1.24l-1.9,1.95c-71.05-1.24-142.35-2.08-213.9-2.53L242,927.49l7.34,0.69l1.18,1.99
	c2.58,0.49,2.87,4.42,0.13,4.92l1.92,0.67c-0.06,38.67-0.12,77.36-0.18,116.04l-1.92,1.17l-2.88,1.35
	c-14.32-4.03-27.47-1.44-41.12,1.83l-20.5-5.42l-2.67-2.43l-0.44-2.91c10.3-14.69,6.6-27.73-4.49-40.59l1.72-2.84
	c7.71-6.6,14.17-13.58,14.16-24.28c-0.02-17.13-16.66-26.28-29.99-33.32c4.54-12.54,6.25-24.41-1.64-36.07
	c-11.45-16.94-32.5-18.81-51.29-16.88c-5.26-19.58-16.93-31.8-37.14-36.42c-36.2-8.28-73.9,19.68-57.22,57.14
	c-0.53,4.07-10.93,7.09-15.09,7.97L0,918.72V418.56c1.7-1.98,4.65-2.13,8.84-0.45c0,0,11.54,3.56,34.63,10.67L44.06,431.05z"/>
<path class="st3" d="M1199.8,1049.24v254.66c-1.44,2.42-3.86,2.38-7.29-0.1c-31.17-18.14-61.72-37.46-91.66-57.97
	c-26.66-17.67-60.51-22.16-91.37-17.8c15.56,7.96,30.25,17.68,44.08,29.18c48.53,27.7,96.98,54.91,145.34,81.61l0.9,2.08v195.66
	c-2.16,1.67-4.44,0.92-6.84-2.25c0,0-24.95-18.92-74.85-56.75c-31.6-32.57-65.02-62.17-100.28-88.81
	c-24.98-28.97-53.17-54.37-80.84-79.18c-24.79-21.45-48.76-43.9-71.94-67.36c-12.02-7.87-25.61-12.56-40.78-14.08
	c-18.31-5.12-27.93-15.11-39.82-30.25c-30.5-43.15-62.68-83.52-95.38-123.95c-3.12-3.81-3.48-6.52-1.08-8.14
	c-1.34-1.51,0.75-4.69,1.99-5.95c9.89-10.05,27.83-6.24,38.1,1.39l0.38,2.64l2.81,0.91c44.31,45.94,91.13,89.52,140.42,130.71
	c6.89,5.04,14.52,8.49,22.77,10.6c3.11,0.79,39.74,5.57,38.27,4.3c-29.15-17.31-58.05-35.43-83.45-58.08
	c-37.85-24.49-77.11-49.91-109.74-82.71c-1.29-2.13-1.8-3.54,0.57-5.02c-1.16-2.83,5.15-6.86,7.67-7.88
	c9.24-3.73,18.19-2.7,27.37,0.27c3.55,1.15,10.31,4,11.74,7.07c2.97,0.47,3.97,1.62,3,3.46c0.84,0.37,1.57,1.25,2.07,1.89
	c0.16-0.84,0.4-0.79,0.7,0.06c1.07,1.19,2.53,1.76,4.37,1.7c-0.42-2.31-0.29-4.17,0.38-5.59c-2.62,0-2.46-0.95,0.06-1.74
	c-2.34-3.58,4.62-6.51,7.69-7.67c7.5-2.84,19.14-2.5,26.84-0.41l1.03,2.08l2.45-0.62c5.84,3.75,11.44,5.11,16.81,4.07
	c12.61-9.95,28.05-8.12,42.77-5.68l1.64,2.16l1.54-1.58c5.71,3.23,11.44,4.99,17.18,5.28c18.59-13.44,42.51-7.86,62.78-1.99
	l1.58,2.44c1.27,0.93,2.35,0.88,3.24-0.15l0.69-2.78c5.83-5.73,23.21-7.04,31.27-6.52c14.38,2.85,28.43,2.31,42.17-1.62
	c18.04-1.07,36.1-2.32,54.19-3.73l2.82,1.82l2.9-1.63c21.85-1.3,43.87-1.78,66.05-1.43
	C1189.55,1045.44,1195.11,1046.55,1199.8,1049.24z"/>
<path class="st4" d="M1199.8,128.89v95.02l-1.2,1.83c-13.01-0.63-26.11-1.15-39.29-1.56c-4.33-1.54-8.8-1.65-13.41-0.34
	c-11.21-0.84-22.6-1.06-34.18-0.66c-19.85-1.99-40.76-2.13-60.7-0.48c0,0-39.58,0.64-118.74,1.92l-2.81-0.69
	c-15.72,1.57-31.26,1.16-46.61-1.23c-24.74-0.41-49.49,0.23-74.23,1.91l-14.35-1.01c-36.95-0.29-73.89-0.76-110.82-1.39
	c-19.72,1.67-39.19,1.26-58.39-1.22c-8.12,1.81-15.74,1.57-22.87-0.72c-27.4-0.66-54.78-0.46-82.13,0.6
	c-23.56,2.27-47.16,2.9-70.79,1.9c-20.22,0.9-40.35,0.74-60.37-0.47c-5.52,0.9-10.89,0.86-16.11-0.1
	c-25.14-0.07-50.3,0.53-75.5,1.81c-8.52-1.78-17.19-1.75-26,0.07c-6.57-1.02-12.88-0.75-18.91,0.8c-3.33-2.26-7.37-2.36-12.12-0.29
	c-10.99,0.48-22.05,0.1-33.18-1.16c-60.45,1.41-120.97,1.82-181.56,1.24c-8,0.28-15.96,0.65-23.89,1.1L0,223.68v-95.04
	L1199.8,128.89z"/>
<path class="st5" d="M1199.8,223.91v36.37c-2.38,1.81-3.57,2.72-3.57,2.72c-156.72,23.22-315.3,34.82-473.58,45.66
	c-181.33,11.06-362.59,22.24-543.79,33.57c-13.49-0.05-27.32,0.65-40.91,2.24c-1.27,0.15-2.45,0.11-3.6-0.58
	c-3.87,0.75-8.35,0.54-12.32,0.83c-1.25,1.61-4.25,1.37-6.05,0.79c-3.25,0.57-6.94,0.18-10.26,0.17c-0.03,0.59-0.29,0.9-0.85,0.88
	c-5.95-0.45-11.53-0.18-16.75,0.81c-6.02-0.04-12.1,0.26-18.52,0.71l-42.9,2.98l-11.38,0.49c-5.4,0.23-10.39,1.35-15.33,0.77V223.68
	c5.62,0.77,11.27-0.61,17.21-0.77c16.85-0.46,28.59,0.06,45.3,0l117.51-0.38c12.43-0.04,25.91-1.92,37.84-0.49
	c4.42,0.53,7.87,1.53,12.61,0.98c4.74-0.55,9.34,0.51,14.13-1.43c2.7-1.09,5.71-0.94,8,1.62c5.64-3.13,11.3-1.06,17.13-1.02
	c7.67,0.06,15.94-3.21,23.48-0.72c4.55,1.5,7.22-0.16,11.43-0.22l51.36-0.76c2.81-0.04,15.7-0.74,17.72-0.04
	c5.01,1.74,10.76-0.31,15.84-0.04c13.9,0.74,15.54,1.89,29.86,0.62c6.01-0.53,12.02,0.39,18.03,0.2l11.8-0.37l50.78,0.23l8.6-0.98
	c19.71-2.24,34.02-2.83,53.72-1.85c3.85,0.19,6.89,0.34,10.78,0.02c9.5-0.76,19.02-0.54,28.43,0c3.78,0.21,7.97,3.08,11.63,2.29
	c15.01-3.27,18.43-0.16,20.48-0.05c14.92,0.78,29.99,0.96,44.81-0.04c6.86-0.46,12.55,0.09,19.35,0.16l35.49,0.37
	c6.98,0.07,13.7-1.09,20.56,0.32c5.4,1.11,41.3-0.51,49.93,0.95c8.23,1.39,15.52-1.05,23.71-1.1l55.5-0.37l11.58,1.88
	c4.19,0.68,35.17-0.62,35.12-0.63c6.54,2.22,13.8-0.36,20.41,0.01c6.1,0.35,11.34,0.03,17.51-0.14l14.19-0.39
	c5.14-0.14,9.78-0.39,14.82-0.42l54.31-0.33c2.95-0.02,5.6-1.1,8.73-1.07l45.02,0.43c2.58,0.02,4.9,1.16,7.68,1.13
	c8.15-0.08,15.88,0.51,24.06-0.21c4.2-0.37,8.92,1.86,13,0.28c3.91-1.51,6.54,0.25,10.21,0.94c12.97,2.43,21.58-1.17,30.75,1.12
	C1193.7,224.24,1196.84,223.57,1199.8,223.91z"/>
<path class="st6" d="M560.38,518.1c4.71,0.64,8.51,4.04,12.91,6.51l21.1,11.83l42.03,24.01c27.67,15.81,55.37,29.83,85.16,41.34
	l58.22,22.49c44.29,17.11,76.45,17.49,123.31,12.16l51.98-5.9c64.34-7.31,152.46-9.26,216.39-3.32l28.32,2.63v26.93l-2.24,1.34
	c-24.94-5.23-51.5,0.88-75.44,7.76l-1.77-1.29l-2.29,1.58c0.51,2.92-5.86,4.76-7.29,2.27l-2.35,1.65l-0.26,2.19
	c-13.27,5.62-25.46,13.3-37.55,21.03l-2.25-1.13c-3.49,1.33-7.36,1.69-11.62,1.07c-4.62,2.62-8.89,3.59-14.02,1.62
	c-2.14,6.81-7.34,6.01-12.35,2.72c-7.67-0.26-15.33-0.96-22.98-2.08c-3.22,1.01-6.3,0.95-9.22-0.18
	c-8.32,2.62-16.64,5.26-24.95,7.91c-4.1-0.92-8.19-2.04-12.27-3.35c-19.32,3.84-38.72,5.07-58.21,3.7
	c-23.76-0.01-47.48-0.67-71.17-2c-3.04-1.49-5.9-3.67-8.58-6.55l-16.1,1.61c-4.73-1.61-9.53-2.51-14.42-2.71
	c-12.75,2.12-25.23,2.23-37.46,0.32c-2.23,0.82-4.32,1.92-6.29,3.31l-9.13-1.86c1.98,5.23-3.61,9.6-7.38,4.87l-7.87-0.62
	c-10.16,2.39-20.47,4.09-30.95,5.09c-3.26-2.04-6.73-2.61-10.42-1.72c-6.4-1.46-9.61-2.19-9.61-2.19
	c-4.91-6.47-9.36-7.16-13.34-2.08c-6.23,1.55-13.31,3.1-19.79,3.32c-6.69-2.22-15.51-4.63-21.34,0.03l0.21,32.85l-1.91,1.14
	c-1.54,2.23-2.17,1.92-1.95-0.81l-1.91-0.88c-0.05-23.81,0.31-47.62,1.06-71.43c2.72-1.09,4.07-1.63,4.07-1.63
	c-14.12-19.99-28.37-40.06-42.75-60.2c-0.56-2.56-0.66-2.68-0.3-0.36c-11.28,15.72-22.98,31.08-35.1,46.09l-10.59,15.67
	c2.1,1.08,2.84,1.87,3.75,4.07c0.54,1.31,1.02,20.88,0.89,24.03l-1.94,1.45c-0.43,2.5-1.67,2.31-2.95,0.16
	c-0.45-4.29-1.26-8.24-2.43-11.84c-39.71-1.86-79.45-2.3-119.22-1.32c-7.82-1.29-15.76-1.7-23.82-1.22
	c-6.86,1.23-13.37,2.06-19.54,2.49l-66.9-61.4l-2.04-1.97c-37.51-33.52-75.29-67.17-114.66-98.96c-2.78-2.24-5.37-3.47-6.29-6.39
	c-1.87-3.39,2.41-2.91,4.85-2.53c7.7-3.23,16.17-4.62,24.53-4.93c28.41,0.38,57.06,0.86,85.93,1.46l4.62,1.11
	c4.72-2.21,10.39-1.95,15.1,0.15l63.27,0.6c39.76-0.59,79.25-0.59,118.48,0.01c16.59,2.76,32.94,5.82,49.49,9.48
	C540.87,517.26,547.37,517.54,560.38,518.1z"/>
<path class="st7" d="M515.68,1064.58c1.81,1.24,1.88,3.15,0.22,5.74c-23.78,34.63-47.3,69.49-70.56,104.57
	c-5.86,11.57-11.91,22.23-20.03,32.32c-16.59,20.63-31.56,24.06-56.78,25.8c-19.76,1.98-33.22,15.75-46.13,29.91
	c-35.36,32.49-70.47,64.51-105.35,96.06l-2.15-0.64c1.09,3.5-3.46,4.23-5.67,1.93l0,1.76c-4.17,6.49-8.6,12.9-13.31,19.21
	l-2.14,0.07c-3.7,4.59-8.32,8.54-13.84,11.84l-6.9,6.93l-2.92,0.6c-1.09,2.78-2.53,4.73-4.31,5.87c-2.14,4.47-4.32,5.9-6.55,4.29
	c-2.43-1.2-1.05-6.89,0.96-8.26c-0.43-1.44-0.85-1.75-1.26-0.93c0.14,4.08-0.79,7.7-2.79,10.86c0.74,1.83,0.4,5.03-1.73,5.39
	c-1.44,3.59-9.07,9.44-11.09,4.99l-1.5-3.11c0.54,4.24-0.03,7.78-1.71,10.63c-0.49,2.47-4.83,4.65-6.93,2.94
	c-1.29-1.67-1.93-2.51-1.93-2.51c1.69,4.45,1.5,7.47-0.59,9.06c0.36,3.23-3.08,4.76-4.91,1.97l-1.6,0.04
	c0.95,2.39,0.56,3.67-1.19,3.84l0.11,2.18c-9.24,7.12-18.2,14.78-26.87,22.96c-31.41,25-62.79,49.12-94.17,72.37L0,1541.76V1344
	l1.01-2.69c42.98-22.23,86.45-45.42,130.42-69.57c16.11-10.06,32.01-20.42,47.67-31.07c45.33-24.05,91.19-48.58,130.74-83.96
	c38.42-32.37,76.7-63.23,114.83-92.58l3.27-1.34l0.59-2.5c7.88-4.16,17.47-7.94,26.39-5.09c3.74,1.2,10.62,4.25,9.78,8.58
	c2.1,1.43,1.51,3.01,0.48,4.87c-26.53,29.46-57.98,56.58-91.34,80.87c-23.55,22.19-47.07,44.02-73.84,62.38
	c19.41-1.15,39.3-3.61,54.14-17.07c38.31-35.99,75.31-74.58,109.45-115.34c4.06-6.25,8.84-11.51,14.35-15.77
	c-0.19-0.8-0.23-1.77,0.39-2.22c9.52-6.96,23.65-13.31,34.33-4.64C514.88,1058.63,518.52,1062.33,515.68,1064.58z"/>
<path class="st2" d="M1199.8,656.77v392.47c-27.1-3.29-45.45-1.01-71.88-0.54l-13.74,0.25l-0.44-2.58c4.18-3.7,8.04-7.67,11.6-11.93
	c13.2,8.96,30.22,11.68,41.96-1.21c8.74-9.59,6.8-20.58-1.08-29.91c1.49-2.39,3.18-4.65,5.07-6.77
	c10.38-15.27-2.73-27.9-16.19-34.77c9.3-25.23-10.65-42.63-35.63-36.13c-6.44,3.89-9.77,2.28-14.22-2.79
	c-4.74-45.43-10.61-91.06-23.38-134.81c-9.66,27.83-17.14,56.57-22.42,86.23c-2.34,8.83-3.19,9.05-6.47,0.84
	c-4.96-25.85-12.08-50.84-21.37-74.97c-10.17,22.82-17.9,46.89-23.18,72.23c-3.18,5.85-3.84,6.73-5.71,0.58
	c-5.43-37.53-12.86-74.63-22.29-111.29c-12.83,36.98-22.55,74.72-29.16,113.24c-2.86,1.76-4.09,1.49-4.75-2.57
	c-4.32-22.99-9.28-45.83-14.32-68.66c-0.45-2.05-5.41-23.71-6.61-24.05c-0.92-0.26-5.58,13.92-6.54,16.95
	c-9.11,28.6-15.11,58.52-20.33,88.23c-0.62,3.05-1.98,5.89-3.37,8.66c-1.7,1.73-2.69,1.09-3.52-0.93L876.3,845
	c-57.72-0.45-115.53-0.6-173.42-0.46l-1.18-1.92c-0.76-0.58-1.49-1.58-1.04-2.23c25.7-13.22,51.43-26.93,77.17-41.13
	c4.73-2.18,16.04-6.94,20.83-6.31c1.07,0.14,1.9,0.98,2.61,1.76c0.63-0.55,1.41-1.05,2.32-1.52c-0.12-0.74-0.23-1.83,0.27-2.08
	c1.16-0.59,11.33-3.61,11.94-3.53c0.77,0.11,1.35,0.82,1.84,1.46c0.11-1,1.19-1.23,2.1-1.02c0.05-1.92,0.93-1.92,1.66-0.09
	c0.67-0.5,1.46-0.98,2.36-1.43c-0.14-2.98,7.11-4.12,8.22-1.43c0.34-0.95,1.34-1.03,2.24-0.87c1.76-3.64,11.6-5.34,14.08-1.96
	c0.3-0.98,1.38-1.1,2.31-0.83c0.25-2.81,3.7-2.84,4.42-0.19c2.23-0.5,4.62-0.96,7.17-1.38l2.11-1.83
	c1.07-0.29,15.62-2.05,16.29-1.59c0.68,0.46,1.08,1.15,1.31,1.93c0.5-1.02,1.38-1.54,2.27-0.8c1.97-3.09,8.82-5.79,12.31-4.61
	l1.05-1.02l-0.05-2.1c5.65-5.5,10.79-11.51,15.42-18.04c11.83-13.52,25.7-23.37,41.61-29.55l2.28,1.51c0.4-0.62,1.18-1.12,2.34-1.5
	c3.02-3.32,12.5-4.68,15.85-1.51l1.96-0.83c12.95,0.11,25.87,0.16,38.76,0.16l1.29-2.07c6.59,0.27,12.77-0.72,18.56-2.99
	c10.45-7.75,20.94-15.34,31.46-22.76l1.34-0.07c3.36-1.27,6.78-3.67,10.05-6.05c6.17-4.51,22.97-13.15,30.01-16.04
	c0.56-0.69,1.35-1.24,2.35-1.65l7.29-2.27c0.5-0.63,1.26-1.16,2.29-1.58C1118.55,664.47,1172.05,647.88,1199.8,656.77z"/>
<path class="st8" d="M685.33,1065.41c1.24-2.41,2.2-2.23,2.68,0.38c0.02,2.63,1.12,5.16,3.02,7.5l32.22,39.92l33.36,43.49
	c6.7,8.73,13.59,16.22,19.43,25.66c7.7,12.46,16.82,23.67,27.77,33.37c20.76,18.37,44.3,6.47,67.09,29.11l35.08,34.85l32.31,28.44
	l33.18,30.06c17.1,15.5,32.14,32.12,47.71,49.18l33.76,26.88c23.89,19.03,45.63,39.54,66.49,61.91l36.37,27.09l38.48,29.65
	c1.67,1.83,3.4,3.27,5.54,3.66v24.16c-0.7,2.06-1.21,4.23-1.53,6.53c-3.25,0.13-5.23,0.75-5.94,1.86c3.88,6.17,7.06,13.32,5.39,20.8
	c0,0,0.69,1.07,2.08,3.21v3.37c-1.26,3.13-1,6.44,0,9.6v54.72c-3.3,2.48-8.58-3.55-10.78-6.38c-1.61-2.08-4.71-7.15-3.84-9.53
	c6.57-9.68,6.09-14.85-1.44-15.5c-1.87-2.08-2.49-4.94-1.87-8.59c-3.05-12.29-4.58-18.44-4.58-18.44c-2.41,0.3-4.42-0.25-6.04-1.66
	c0.83-3.93,0.01-7.78-2.46-11.55c-0.01-5.35-1.69-9.36-5.05-12.02c0.05-4.32-1.19-7.63-3.73-9.92c-4.5-10.15-9.03-3.5-10.64,4.17
	c3.48,2.93,4.68,7.11,3.59,12.53c3.09,3.38,4.75,6.8,4.98,10.26c-2.72,2.29-1.62,4.92,3.29,7.89c1.09,1.48,0.82,3.25-0.8,5.3
	c5.77,3.46,7.4,6.87,4.88,10.23c1.8,5.67,4.98,10.88,9.54,15.62c0.86,3.65-2.72,7.68-4.62,3.83c-2.47,0.44-4.97-0.73-7.51-3.51
	c-6.83-5.26-17.27-14.64-18.94-23.17c-4.08-0.49-5.94-3.83-5.57-10.03c-5.61,0.08-8.22-3.77-7.85-11.54l-0.63-0.18
	c-0.21,5.14-3.36,6.6-7.22,3.11c-1.8,3.04-4.18,4.9-7.29,2.05c-30.13-27.6-59.19-56-87.56-84.27
	c-22.67-21.78-44.69-44.4-66.06-67.87c-39.07-50.61-79.12-100.85-120.15-150.72c-17.44-22.34-36.73-42.39-57.87-60.13
	c-10.2-3.87-19.01-9.55-26.42-17.02c-15.57-21.09-30.59-42.52-45.06-64.28c-14.79-26.96-29.55-53.92-44.27-80.87l0.44-2.95
	c0.03-0.84,0.44-1.41,1.06-1.94c0.55-0.48,13.22-0.38,14.6-0.23L685.33,1065.41z"/>
<path class="st8" d="M535.33,1065.65l1.5,1.66c-1.45,2.7-3.06,5.28-4.83,7.77c-23.39,51.57-48.59,102.91-86.8,144.59
	c-17.35,10.91-32.62,24.27-46.6,39.96c-17.07,19.17-34.09,38.52-50.16,58.61c-35.52,45.13-71.05,89.83-106.58,134.11
	c-29.58,31.16-59.7,61.77-90.36,91.86c-2.53,4.61-5.1,6.41-7.73,5.42c-2.6,2.17-3.06,0-3.55-2.52c2.93-8.83-8.5-8.13-11.8-3.16
	c0.99,5.55,0.65,11.23-1,17.04c0.38,3.07-0.2,5.36-1.75,6.87c0.38,0.68,0.9,1.7,0.51,2.14c-5.74,6.45-13.87,13.75-20.93,18.54
	l-1.55-1.57l-2.17-0.07l-3.94-11.34c-2.66-5.02-9.94-8.56-13.81-3.44l-2.18,0.24c-1.9,4.17-7.64,7.03-9.22,0.81l-6.1,1.9
	c1.62,5.56,0.45,9.03-3.53,10.4c-2.16,2.26-2.93,5.4-2.32,9.42l-0.78,1.88c-3.85,1.44-5.68,3.2-5.47,5.31
	c2.57,2.73,2.96,4.9,1.14,6.5c-8.07,0.92-10.49,7.51-10.28,14.8c-0.87,3.35-2.82,6.28-5.85,8.79c-0.36,3.46,0.56,6.91,2.77,10.34
	c-1.65,3.68-4.62,3.77-8.92,0.27c-3.66,1.44-3.82,5.3-0.48,11.57l-1.93,1.37c-0.04,0.68-0.1,1.45-0.57,1.9
	c-5.24,4.97-11.92,11.09-18.49,13.85c-3.81-0.02-7.78,0.56-11.58,0.86V1656c2.38-8,4.88-16.05,7.49-24.17l1.99-2.08
	c5.63-1.45,9.49-4.39,11.56-8.83c-2.45-1.31-3.51-3.01-3.18-5.08c4.11-8.81,8.28-17.35,12.52-25.61c-4.08-2.57-3.77-6.04,0.91-10.41
	c0.15-5.32,1.4-7.99,4.96-11.98c-0.62-6.05,0.92-10.5,4.63-13.37l-0.17-5.06c3.29-6.58-2.1-12.01-7.65-6.05
	c-3.21,0.39-4.34,3.03-3.41,7.92c-0.4,1.92-1.87,3.37-4.43,4.34c-1.9,4.15-2.85,8.87-2.85,14.16c-1.18,1.64-2.84,2.95-4.99,3.91
	c1.53,6.27,0.19,9.71-4.02,10.31c1.38,6.5,0.09,10.42-3.86,11.77c-1.84,4.72-2.12,10.02-0.82,15.9c-0.87,6.33-5.4,6.38-8.68,2.08
	v-19.2c1.07-1.95,2.29-3.85,3.64-5.72l-0.29-1.85c-4.18-2.51-3.35-5.71,2.49-9.61c-2.7-3.28-1.83-6.74,2.62-10.38
	c-3.58-2.37-3.27-6.16,0.94-11.37l-0.56-1.41c-4.28,3.58-7.23,1.98-8.85-4.78v-7.68c1.64-0.06,2.99-1.01,4.53-2.19l44.4-34.27
	c18.06-13.94,36.2-26.63,53.01-41.99c5.47-5,15.79-14.49,21.06-17.54c0.69-0.49,1.39-0.63,2.1-0.27
	c4.32,8.94,8.88,17.33,16.24,24.03c5.99,5.45,7.64,5.85,15.02,3.35c-2.6-0.63-3.24-1.51-1.37-3.79l-1.02-2.81
	c12.11-21.37,24.01-43.07,35.7-65.09l6.27-2.19c-3.31-3.26-3.02-7.27,2.21-7.28c3.83-2.4,5.41-5.6,4.72-9.6
	c3-2.52,5.35-5.69,7.05-9.48c1.99-0.9,2.77-2.77,2.33-5.6c0.78-1.7,1.85-3.24,3.2-4.59c-1.69-1.39-2.7-2.6-0.54-4.09l62.37-56.68
	c18.2-16.54,36.23-31.73,53.1-49.63c7.25-7.69,15.16-14.22,25.21-17.86c21.73-7.85,43.5,0.87,64.21-23.29
	c6.6-7.7,14.1-17.79,18.45-26.82c5.65-11.74,12.84-21.71,20.12-32.45l29.11-42.95c5.82-8.58,11.61-16.38,17.22-25.11
	c3.96-6.17,9.96-11.84,11-18.97c0.55-0.85,1.18-1.77,2.14-2.04c1.72-0.5,13.11,0.54,15.44,1.08L535.33,1065.65z"/>
<path class="st9" d="M1199.8,260.28v82.95c2.67-0.41-22.84-0.32-17.42,0.19c-13.04-1.24-25.57-0.41-38.36-0.04
	c-8.61,0.25-17.16-1.41-25.78-0.4c-4.26,0.5-7.93-0.44-11.89-0.4l-10.95,0.11c-4.39,0.04-7.55,0.27-12.05-0.87
	c-4.03-1.02-28.9,0.47-34.7-0.57c-6.43-1.16-13.09-0.13-19.7-0.61c-3.64-0.26-6.55,0.99-9.77,1.91c-6.35,1.81-12.94,0.57-19.41,0.63
	l-23.75,0.21c-4.9,0.04-9.52-0.41-14.44-0.3l-11.39,0.25c-11.8,0.26-23.53,1.06-35.18-0.76c-5.86-0.92-10.67-1.33-16.8-0.36
	c-4.78,0.75-10.18-2.63-15.06-2.62c-4.15,0.01-7.54,0.57-11.45-0.88c-13.87-5.14-19.15,1.47-31.04-0.46
	c-9.24-1.5-18.96,1.08-28-0.93c-5.71-1.27-10.47,1.76-16.09,2.23c-4.69,0.4-9.69,0.72-14.19,0.86c-3.8,0.12-6.48-1.19-10.33,0.78
	c-2.37,1.21-7.97,0.95-10.74,0.46c-18.2-3.22-13.51,0.31-28.68,0.9c-2.58,0.1-4.88-2.99-7.49-1.32c-1.09,0.69-2.02,1.87-2.92,2.06
	c-1.31,0.28-2.57-0.01-3.61-1.15c-4.54-4.97-5.69,3.26-10.61,0.92c-0.96-0.46-1.41-2.15-2.32-3.45c-1.55-2.22-4.12,0.89-5.85,0.67
	c-4.63-0.61-8.33,0.54-12.35,0.95c4.31-0.44-28.51-3-27.25-2.99l-36.4-0.36c0.39,0-30.42-0.29-25.8-0.86l-11.6,1.41
	c-3.65,0.44-8.29-1.97-11.15-1.46c-7.17,1.27-12.68,0.98-19.47,0.24c-3.87-0.42-8.96,1.76-13.1,1.61l-8.21-0.29
	c-5.09-0.18-9.24-0.86-14.36-1.79c-4.67-0.84-10.08,0.45-14.76,0.66l-17.52,0.78c-5.43,0.24-11.55,1.66-16.77-0.18
	c-6.66-2.35-18.08,0.8-24.75,0.67c-7.28-0.14-14.56-2.63-21.68-0.46c-5.33,1.63-10.46,0.31-15.86-0.11
	c3.75,0.29-24.89,1.22-23.95,1.29c-9.65-0.74-18.34,0.93-27.71,1.86c-3.17,0.31-6.25-0.81-9.9,0.04c-4.17,0.97-8.78,0.48-13.27,1.05
	c-23.14,2.99-15.04-4.28-25.13-2.82l-9.95,1.43c-7.93,1.14-13.48,0.34-20.74,0.34l-19.78,0c-7.26,0-21.65-0.01-27.97,0.56
	c-10.11,0.92-16.41-0.67-25.74,0l-17.19,1.23c-4.73,0.34-9.98,1.21-14.7,0.32c-3.5-0.66-5.9,0.53-9.02,0.62
	c-8.65,0.25-16.98-0.84-25.55,1.62c-1.49,0.43-3.55-0.82-3.9-1.73c10.78-2.09,21.84-2.04,33.19-2.61l18.42-0.93
	c6.29-0.32,12.19-1.35,18.51-1.67l19.22-0.96l46.49-3.13l18.39-0.99l62.75-3.98l22.06-1.53l21.15-1.04l25.65-2l20.37-0.83l14.43-0.8
	c10.09-0.56,19.61-1.58,29.66-2.13c5.77-0.32,11.56-0.59,17.32-1.01l26.58-1.91l21.88-1.08l32.16-2.09l17.24-0.99
	c8.99-0.52,17.32-0.97,26.23-1.53l53.09-3.34l22.51-1.45l20.86-1.16l46.25-3.23c7.3-0.51,13.98-1.27,21.19-1.74l16.28-1.05
	l18.25-1.23l33.18-2.48c5.25-0.39,10.55,0.15,15.69-0.84c5.27-1.01,10.05-1.3,15.48-1.66l14.4-0.96l29.66-2.65
	c7.9-0.71,15.54-0.85,23.29-1.81c7.69-0.95,15.13-1.36,22.92-2.14l36.37-3.61c3.71-0.37,6.98-0.74,10.59-1.15l33.63-3.79l26.96-2.94
	l32.3-3.9l22.41-2.84l30.25-4.05C1181.29,263.4,1190.64,262.38,1199.8,260.28z"/>
<path class="st10" d="M183.3,1048.31c-0.49,2.16-2.54,3.1-6.16,2.81l-34.13-0.27c-16.37-1.87-32.82-2.83-49.33-2.87
	c-26.73-3.02-53.83-3.66-80.42,1.11c-2.03-0.12-3.17-0.77-2.76-2.89c-4.56-0.96-8.79-5.17-10.49-9.39v-40.32l2.39-4.58
	C1,991.14,0.21,990.11,0,988.8v-70.08l15.47-5.33c-2.43-6.8-5.1-12.7-4.71-19.65c0.88-15.47,9.85-28.71,23.63-35.66
	c19.55-9.86,43.22-8.37,60.97,4.34c9.43,6.75,14.51,16.31,16.82,27.67c14.22-2.55,28.2-1.22,40.04,5.85
	c16.84,10.06,22.87,30.26,13.43,47.84c9.99,3.88,18.6,9.22,24.84,17.51c7.12,9.47,7.56,21.29,1.22,31.27
	c-3.24,4.72-7.59,8.1-11.78,12.24C194.52,1020.33,193.69,1032.28,183.3,1048.31z"/>
<path class="st9" d="M44.06,431.05c-9.91-3.75-33.9-11.74-44.06-12.49v-22.08l254.75,0.59l23.27,0.71l56.39,1.12l46.22,1.03
	l23.86,0.81l29.75,0.95l34.53,1.1l27.04,0.91l14.11,0.89l25.3,0.89l26.1,0.98l37.84,1.98l26.94,1.05l26.65,1.35l42.04,2.5
	l39.05,2.86c6.44,0.47,12.63,0.54,19.07,1.01l56.26,4.12l83.32,6.83l17.66,1.47c2.71,0.23,28.18,1.46,26.99,5.43
	c-10.53,1.07-20.6-0.28-30.94-1c-10.61-0.75-18.68,0.78-27.93,0.34l-14.27-0.68c-3.77-0.18-6.91-0.32-10.57-0.41l-9.76-0.26
	c-3.71-0.1-6.84-0.55-10.64,0.72c-3.43,1.14-7.02-2.73-10.35-1.97c-20.24,4.65-15.07-2.41-33.71,1.31
	c-4.16,0.83-7.61-1.15-11.45-1.13L766.94,432l-12.47-0.29c-4.54-0.11-8.43,2.35-12.93,1.82c-10.65-1.24-21.32-0.51-32.21-0.36
	c-2.81,0.04-5.89-0.86-8.14-0.59c-4.27,0.51-7.13,0.24-11.34-0.42c-10.98-1.72-15.65,2.51-23.82,0.17
	c-11.03,1.46-26.53,0.03-39.06,0.78c-6.65-3.26-13.65,0.36-20.45-0.01l-11.2-0.6c-2.99-0.16-5.2,0.45-8.03,0.18l-11.74-1.11
	c-16.34-1.54-40.13,0.3-51.67-0.9c-6.21-0.65-12.62-0.87-18.94-0.42c-3.56,0.25-6.41-1.11-9.68-1.16l-26.84-0.41
	c-2.87-0.04-5.27,1.2-7.83,1.25l-22.86,0.44c-9.31,0.18-21,1.44-32.14-0.69c-9.08-1.74-18.51-0.26-27.81-0.09l-45.07,0.83
	c-5.61,0.1-11.28,1.4-16.82,0.83c-0.85-0.09-30.61-0.06-34.61-0.1l-30.1-0.3l-12.66,0.11l-49.02,0.08l-23.26-0.39
	c-4.42-0.07-8.27,1.03-12.81-0.26c-3.38-0.96-7.4,0.4-10.92,0.42l-61.75,0.38c-3.73,0.02-6.99,0.01-10.7,0.06l-13.41,0.17
	C48.73,431.54,44.27,426.16,44.06,431.05z"/>
<path class="st7" d="M183.3,1048.31c7.13,1.13,14.05,3.31,21.34,5.61c3.45,1.08,7.17-0.79,10.43-1.7
	c11.98-3.35,23.79-1.79,35.4,0.77c1.37-0.81,3.06-0.71,5.08,0.32c5.8-0.14,11.71-1.11,17.72-2.92c9.49-1.99,37.7-2.62,43.08,5.55
	c1.32,2.01,1.72,3.48-0.68,4.61c-0.9,1.04-1.97,1.93-3.32,2.27c-9.75,2.5-17.84,4.6-27.46,7.92c-32.8,14.91-66.4,28.95-100.78,42.12
	c-61.72,19.85-122.68,39.97-182.89,60.38L0,1171.2v-26.88l0.99-1.6c22.31-6.76,44.64-13.59,66.99-20.48l0.96,0.84
	c0.8-0.85,1.63-1.6,2.61-2.03c12.05-5.26,10.59-2.46-0.68,0.23c-0.79,0.19-1.67,0-2.58-0.3l-0.66,1.37
	c-22.07,6.73-44.09,13.49-66.07,20.29l-1.57-1.2v-95.04c2.96-2.85,7.27-2.39,10.49-0.21c0.81-0.06,1.86,1.2,3.11,0.98
	c24.17-4.27,48.25-4.48,72.75-1.72c7.53,0.85,14.7,0.93,22.09,0.74c11.89-0.3,22.91,2.63,34.6,2.74l32.58,0.31
	C178.47,1049.27,181.15,1048.7,183.3,1048.31z"/>
<path class="st7" d="M417.54,1062.79c1.94,0.82,1.82,2.05,0.56,3.59c-44.83,37.58-95.67,66.82-146.73,95.42
	c-29.97,19.77-58.76,38.62-91.06,55.77l-18.24,7.82l8,1.39c3.81,0.37,7.67,2.84,3.82,5.78c-18.47,0.68-36.11,3.92-52.9,9.72
	c-21.31,11.71-42.35,24.26-63.1,37.64c-18.05,11.21-36.58,21.25-55.6,30.1c0,0-0.76-0.51-2.29-1.54v-81.6
	c3.17-1.72,4.75-2.57,4.75-2.57c48.64-3.55,96.13-11.54,139.47-35.22c76.48-40.97,152.29-82.48,227.41-124.54l5.42-1.61
	c0.02-0.45,0.07-0.89,0.23-1.27c0.52-1.19,15-6.71,17.64-7.23c4.31-0.85,8.88-1.05,13.16,0.07
	C411.76,1055.47,419.14,1058.48,417.54,1062.79z"/>
<path class="st11" d="M427.94,1062.78c-1.49,3.19-4.81,5-7.81,7.35l-30.76,24.07l-23.46,18.64c-10.85,8.62-21.35,16.56-31.87,25.75
	c-26.12,22.82-52.5,44.27-81.54,63.28c-14.16,9.26-27.9,16.74-42.78,24.51l-18.39,9.6c-16.18,8.44-30.36,18.77-45.23,29.47
	c-27.48,16.17-54.78,30.7-83.06,45.52L0,1344v-35.52c2-0.1,3.7-1.04,5.83-2.08c23.53-11.41,45.49-24.54,67.73-38.35l29.13-18.09
	c28.7-17.82,39.23-15.25,72.11-19.38c-1.89-2.19-16.71-3.74-20.54-4.29c2.53-3.03,5.95-2.12,8.97-3.3
	c14.35-5.6,27.44-12.61,40.56-20.64l37.52-22.95l18.88-12.77c10.81-7.31,21.83-13.13,33.21-19.71c35.11-20.29,67.14-37.58,99-63.23
	c6.51-5.24,12.89-9.95,19.72-14.76c2.44-1.72,5.15-3.32,5.43-6.16C418.15,1059.76,427.08,1059.89,427.94,1062.78z"/>
<path class="st7" d="M369.45,1062.64c1.27,1.72,0.44,2.72-1.41,3.48l-13.28,4.04c-72.9,32.59-146.18,67.13-219.82,103.59
	c-42.06,19.64-85.13,39.07-129.98,50.13c-2.93,0.91-4.58,0.3-4.95-1.81V1200c0.99-1.49,2.55-2.47,4.68-2.92
	c70.98-35.68,142.58-66.55,217.79-94.33c30.28-13.01,59.92-26.23,88.92-39.68c2.51-1.19,4.85-1.56,7.02-1.1
	c0.1-2.6,2.15-2.98,4.2-2.08l1.8-2.35c8.83-4.14,40.19-8.25,45.89,2.63C370.69,1060.86,370,1061.89,369.45,1062.64z"/>
<path class="st11" d="M1199.8,1303.9v37c-3.09-0.2-5.39-2.51-8.24-4.09l-24.75-13.79l-105.46-58.52
	c-9.89-5.49-17.68-12.94-26.92-19.16l-16.01-10.79c-4.35-2.93-9.61-3.73-14.14-7.76c14.18-3.7,27.9-2.03,41.87-1.24
	c25.67,1.44,44.29,10.79,64.49,24.31l25.95,17.36c7.63,5.11,14.69,10.09,22.59,14.75l33.85,19.92
	C1195.34,1303.24,1197.35,1304.29,1199.8,1303.9z"/>
<path class="st11" d="M377.05,1062.93c-0.41,0.81-1.18,1.41-2.28,2.04l-55.03,31.34l-47.91,26.12l-49.05,25.78l-50.36,27.4
	c-14.36,7.82-27.51,16-42.5,22.59c-30.24,13.29-61.33,22.31-94.3,24.76c-12.48,0.93-23.94,2.32-35.63,3.92v-4.8
	c3.51,0.67,6.77-0.64,10.65-1.63c68.59-17.51,161.43-67.77,227.4-98.71l43.39-20.35l60.35-28c7.3-3.39,14.14-6,21.92-7.84
	c2.25-0.53,4.54-1.3,5.73-2.91C370.52,1059.65,376.04,1059.98,377.05,1062.93z"/>
<path class="st11" d="M315.67,1060.55c0.62-3.38,4.79-1.44,2.75,1.42l-36.49,16.69c-27.33,12.5-55.36,24.96-83.51,35.81
	l-70.56,27.19l-38.8,17.12l-69,33.28l-13.21,6.14c-2.34,1.09-4.55,2.12-6.84,1.8v-28.8c1.83,0.6,3.19-0.82,5.19-1.48l76.16-25.47
	l45.81-14.75c34.07-10.97,67.71-21.18,100.49-35.7l48-21.25C288.7,1066.77,301.83,1062.11,315.67,1060.55z"/>
<path class="st12" d="M0,1656v-10.56c1.24-3.96,2.25-8.07,3.03-12.33c0,0-1.01-1.33-3.03-3.99v-15.36c2,0.18,3.87,0.97,6.37,0.94
	c1.69-6.25-2.81-13.92,1.54-19.98c0.85-1.19,3.1-1,3.46-1.92c1.39-3.58-1.55-8.84,1.13-10.61c1.01-0.67,2.7-0.26,3.36-1.09
	c1.42-1.77-2.14-5.48,0.24-9.08c0.65-0.98,3.3-1.16,4.23-2.23c1.94-4.64-1.54-15.57,7.31-17.37c0.34-3.7-0.35-6.64,0.71-9.9
	c3.05,0.14,4.9-1.41,6.77-2.98c2.74-2.3,5.64,0.3,7.48,2.14c2.51,2.51,0.32,4.75,0.01,7.92c-0.29,2.93,1.67,5.9-2.18,7.83
	c-4.28,2.14,0.59,9.44-4.21,13.82c-6.22,5.68,1.78,6.54-7.7,14.61l4.03,3.79c1.5,1.41-2.25,3.13-2.33,4.29
	c-0.29,4.12-2.63,6.01-4.24,9.16c-2.3,4.48-5.06,9.6-6.62,14.09c1.05,1.22,3.29,1.92,3.51,3c0.87,4.31-5.71,9.06-10.96,10.52
	c-3.69,1.03-3.88,5.32-4.86,8.4c-1.48,4.64-3.18,8.68-3.95,13.44C2.82,1654.37,1.5,1655.93,0,1656z"/>
<path class="st12" d="M1199.8,1660.8v11.05l-5.65-0.09l-2.15-1.29l-8.51-19.57c-3.01-1.12-6.24-1.98-9.7-2.59
	c-4.23-2.21-8.48-8.35-3.57-11.27c1.04-0.03,2.21-0.29,2.5-1.03c1.68-4.23-1.92-2.14-8.07-13.94c-1.39-2.66-2.43-5.01,0.73-7.38
	c-1.52-3.44-6.4-4.38-6.82-7.26c-0.18-1.24,1.01-2.14,1.95-3.77c-2.77-1.76-6.8-4.64-5.99-8.16c0.29-1.26,2.5-2.01,1.88-3.23
	c-3.43-6.81-7.24-4.85-4.72-15.49c-0.85-1.84-4.95-3.6-4.07-6.02l3.24-8.87c1.1-1.89,7.35-1.81,8.55,0.02
	c1.58,2.41,1.91,5.83,5.68,6.71c0.02,2.6-0.3,5.16,0.14,7.48c5.18,2.58,4.16,7.96,5.4,12.48c1.04,3.8,5.02,6.88,1.84,11.66
	l7.26,0.25c-1.73,1.44,4.05,20.83,4.06,19.66l-0.03,6.88c1.26,1.62,4.3,0.41,5.6,1.87c7.56,8.55-5.8,14.95-1.93,20.3
	C1190.81,1653.89,1194.82,1658.64,1199.8,1660.8z"/>
<path class="st12" d="M0,1594.56v-45.12c2.2-0.05,2.92,2.24,3.23,4.78c2.23,0.64,3.33-1.68,5.47-1.85c2.09-0.17,2.61,2.05,2.62,3.3
	c0.01,3.83-3.65,3.77-3.82,7.73c-0.04,1.08,2.72,1.89,2.8,3.31c0.17,3.12-3.71,4.12-4.73,6.7c1.19,1.62,2.84,3.09,1.9,5.02
	c-1.55,3.19-6.68,2.97-5.5,5.87c0.28,0.7,2.44,0.66,2.96,1.52C7.15,1589.51,3.59,1593.76,0,1594.56z"/>
<path class="st11" d="M68.3,1120.97c2.8-0.72,3.18,0.71,0.65,2.1l-62.98,20.23c-2.2,0.71-4.13,0.95-5.97,1.01v-2.88l55.63-17.09
	C60.09,1122.98,64.42,1122.3,68.3,1120.97z"/>
<path class="st12" d="M1199.8,1560.72v32.39c-1.69-0.2-2.89-1.14-3.63-2.17c-1.15-1.61,0.89-3.89,0.55-5.21l-2.31-9.07
	c-0.87-3.42-6.56-6.42-2.62-10.25c1.02-0.99,4.53,0.53,5.74-1.01C1198.71,1563.91,1197.67,1560.83,1199.8,1560.72z"/>
<path class="st8" d="M0,1645.44v-16.32c1.93,0.51,4.03,1,5.65,2.68C3.59,1635.57,2.71,1646.2,0,1645.44z"/>
<path class="st2" d="M10.49,1046.19C7,1046.46,3.5,1046.56,0,1046.4v-9.6C0.38,1035.61,10.09,1045.5,10.49,1046.19z"/>
<path class="st2" d="M0,996.48v-7.68c1.91,0.61,4.04,0.86,5.46,2.14C3.36,993.45,2.59,996.11,0,996.48z"/>
<path class="st12" d="M1199.8,1606.08c-2.04-2.79-2.57-7.06,0-9.6V1606.08z"/>
<path class="st13" d="M375.09,452.86c1.52-1.41,5.71-1.3,7.14,0.01c29.17,0.02,61.41,10.15,89.19,21.5
	c30.89,12.62,60.81,26.84,88.96,43.74c-2.96,1.64-6.67,3.15-10.34,0.98c-8.57,1.64-16.26-1.79-24.4-3.08
	c-4.26-0.68-7.69-0.97-11.81-2.6c-4.68-1.85-10.51-0.66-15.34-2.13c-11.68-3.56-15.29-0.47-25.98-1.83
	c-14.56-1.85-26.35,0.9-30.6,0.03c-1.49-0.31-24.86-0.27-28.21-0.2l-17.3,0.36c-18.27,0.38-35.41-0.18-53.73-0.32l-33.45-0.26
	c-4.78-2.12-9.82-2.13-14.63-0.14c-7.62-2.28-15.1-1.32-22.92-1.49c-14.98-0.33-29.43-0.28-44.22-0.57l-21.9-0.44
	c-7.48-0.15-18.97,1.86-25.15,4.7c-1.77,0.81-4.65-1.13-5.8,0.84c-0.21,1.96-16.91-10.86-15.47-11.5c0.47-0.2,0.85-1.22,1.8-1.5
	c23.17-6.89,45.9-14.63,69.24-19.17l2.34-1.42l30.36-6.88c0.9,0.05,1.64-0.26,2.22-0.93l10.15-1.37l2.37-1.4
	c4.37-0.02,8.58-1.38,13.21-2.49c17.34-4.16,34.47-7.18,52.07-10.04C353.76,453.46,364.45,452.85,375.09,452.86z"/>
<path class="st9" d="M105.73,345.68c0.52,0.55-0.06,1.81-1.15,1.8l-16.45-0.11c-0.59-0.68,0.2-1.71,1.13-1.71L105.73,345.68z"/>
<path class="st9" d="M382.23,452.86l-7.14-0.01c-0.25-2.04,2.19-1.73,3.57-1.73C380.04,451.12,382.48,450.82,382.23,452.86z"/>
<path class="st9" d="M122.03,344.72c0.53,1.78-1.44,2.06-2.54,1.94c-1.31-0.15-3.07,0.17-3.51-1.15
	C118.01,345.15,119.82,344.88,122.03,344.72z"/>
<path class="st6" d="M95.09,456.98c-1.41-0.84-4.47-0.3-4.07-2.88C92.54,454.87,95.53,454.32,95.09,456.98z"/>
<path class="st3" d="M668.29,1065.67c13.96,22.32,38.12,73.64,52.98,94.51l21.55,30.26c8.37,11.75,15.83,26.03,28.29,32.1
	l12.44,6.06c20.51,9.99,98.77,108.81,117.15,132.26l32.91,41.98l15.26,19.29c9.27,11.73,17.52,23.52,28.25,34.23l51.89,51.79
	l33.9,33.1l24.56,23.43c9.82,9.37,19.59,18.02,29.04,27.69c0.63,0.64,1.53,1.06,2.07,0.96c1.51-0.27,1.86-3.7,3.92-3.53
	c2.01,0.17,2.71,2.74,4.52,1.82c1.26-0.64-0.34-4.78,2.16-4.91c6-0.29,2.16,8.42,4.74,11.11c1.96,0.26,4.31,0.06,5.44,1.01
	c2.28,1.91-0.18,7.71,2.69,9.36c0.67,0.38,2.04,0.02,3.46,0.46c0.6,10.01,8.85,13.41,14.11,19.46c3.14,3.61,7.3,5.9,10.59,8.95
	c0.12,1.71-0.62,4.23,0.59,6.12c5.19,8.11,13.8,0.43,16.08,10.61c1.15,5.14,7.1,13.52,7.27,17.98l-140.25-0.4
	c-0.64-0.28-0.63-0.6,0-0.96c1.11-1.6,2.87-2.83,5.3-3.7c2.54-2.33,1.68-4.05-2.56-5.15l-1.19-1.71c0.16-1.89-0.68-2.61-2.52-2.17
	c-6.37-6.45-7.99,0.53-7.85,6.67c1.82,2.47,3.46,5.87-0.65,6.06l-1.08,1.07c-7.47,0.57-17.18,0.85-24.33-0.27
	c-1.46-1.31-2.99-1.25-4.58,0.15c-5.74,0.95-11.69,0.55-17.49,0.07c-1.88-0.11-2.36-1.07-1.81-2.77c-0.25,1.65-0.71,2.62-2.58,2.84
	c-6.73,0.54-13.58,0.69-20.29-0.07c-3.04,0.2,0.31-17.59,0.21-16.72l-1.88,15.04l-1.99,1.78c-2.09,0.33-3.98,0.15-6.06,0.02
	l-1.92-0.88l0.05-44.06l-0.52,43.55l-1.93,1.11c-5.81,1.31-11.9,0.39-17.86,0.43l-2.03-0.59c-3.05-20.36-6.12-40.63-9.2-60.8
	l1.71-1.43c-3.33-0.79-1.54-3.5-0.08-5.7c4.77-3.42,6.28-6.88,4.54-10.37c-5.46-1.87-6.61-5.91-3.45-12.13
	c-1.63-3.05-1.74-6.51-0.33-10.37l-0.04-6.21c-4.16-0.63-4.96-3.73-2.42-9.28c-2.36-4.33-2.61-9.02-0.74-14.07
	c-2.48-4.76-2.95-9.05-1.41-12.88c0.06-0.59-3.01-10.68-3.34-11.17c-0.4-0.6-3.43-1.6-4.26-1.46c-0.5,0.08-5.22,6.29-5.46,6.79
	c3.2,4.9,3.33,8.64,0.39,11.21l-0.71,3.37c3.51,6.36,3.57,11.77,0.2,16.23c1.45,3.46,2.25,6.2,1.09,9.92
	c3.15,1.71,5.5,4.69,2.44,7.73c0.21,3.43,0.1,6.87-0.32,10.32c3.56,4.84,4.93,9.65,4.09,14.45c-6.58,2.17-3.41,7.92,1.24,10.46
	c3.59,0.07,5.21,1.17,4.87,3.32c2.78,0.94,2.94,3.33,0.23,4.53c0.56,1.2,1.03,2.63,1.42,4.31c1.74,1.65,2.51,4.18,2.29,7.58
	l6.74,44.44l-1.73,1.41c-5.12,1.05-10.57,0.76-15.73,0.06c-3.41-4.01-5.64-8.74-6.69-14.19c2.1,4.81,2.84,9.61,2.21,14.38
	c-6.44,0.38-13.01,0.74-19.39-0.17c-2.03-1.44-3.54-1.39-4.53,0.16c-11.56,0.79-23.18,0.19-34.76,0.19l-2.55-0.91
	c-10.36-14.91-18.43-31.56-25.23-48.68c-24.8-77.25-53.07-153.42-81.62-230.34c-19.76-57.25-41.94-116.85-68.8-172.17
	c-8.84-27.84-17.91-55.5-28.05-82.71c-5.48-23.58-12.27-46.87-20.77-69l1.39-2.2c-2.39-2.98,2.77-7.16,5.37-8.98
	c7.96-5.58,17.63-5.18,25.58,0.24C665.18,1058.8,670.28,1062.53,668.29,1065.67z"/>
<path class="st3" d="M568.18,1066.53l1.57,1.57c-10.92,44.58-16.37,66.86-16.37,66.86c-7.76,21.68-14.39,43.29-19.88,64.83
	c-16.75,41.04-33.23,82.45-49.45,124.24c-23.72,69.78-47.97,138.58-72.78,206.41c-7.6,22.65-14.78,45.4-21.53,68.24
	c-7.87,24.02-18.09,48.28-31.97,69.46c-0.47,0.72-1.21,1.28-1.99,1.85c-0.78,0.57-1.65,1.03-2.54,1.46l-17.53,0.58
	c-2.63-1.88-1.24-2.7,1.4-3.49l6.78-0.08c4.92-6.69,4.01-9.93-2.73-9.72c-2.81-2.45-4.75-2.91-5.82-1.37
	c-1.23,4.77-3.37,7-6.44,6.71c-3.95-2.55-6.75-0.36-8.42,6.57c-3.72-0.17-7.18,0.08-10.39,0.73c-13.71-0.35-27.52,0.8-41.3,0.39
	c-0.79-1.23-2.12-1.23-3.99-0.02l-27.99-0.01c-0.27-3.98-0.81-4.36-1.63-1.15l-2.68,0.84c-9.29,0.93-18.68,0.27-28.02,0.34
	c0.39-6.91,0.34-7.34-1.28-1.12l-2.34,0.8c-3.26,0.6-6.55,0.45-9.87,0.3c-0.86-1-2.05-1.01-3.57-0.02
	c-7.79,0.22-15.59-0.02-23.38-0.01c-1.34-3.3-2.03-3.58-2.07-0.84l-1.43,0.84c-5.85,0.01-11.79,0.68-17.56-0.39
	c-0.61-1.68-1.58-1.54-2.91,0.43l-107.53-0.41l-1.36-2.01c1.93-9.24,5.73-16.63,15.85-17.65c3.56-2.23,2.37-4.49-3.59-6.79
	c0,0-0.28-1.19-0.83-3.58c5.54-2.88,9.91-6.51,13.1-10.88l2.09-0.44l4.44-5.84l18.94-16.93c1.62-2.48,3.4-3.79,5.35-3.93
	c1.98-2.62,4.19-5.06,6.65-7.3l3.69-1.11c-0.57-4.88,1.55-9,6.84-7.95c2.23-0.43,4.07-1.94,5.92-3.72l16.05-15.39
	c5.07-1.94,3.73,4.93,2.81,8.25c0.24,3.06,1.53,6,3.86,8.82c-2.95,2.76-4.4,5.56-4.37,8.42c3.77,3.36,5.23,6.83,4.38,10.41
	c-10.14,4.77-2.9,11.25,4.8,13.86c0.43,2.55,0.69,2.37,0.78-0.54c6.19-2.22,8.78-5.76,7.76-10.62c-4.6-1.7-6.28-3.72-5.05-6.05
	c5.07-3.55,4.77-8.74-0.84-11.4c0.3-2.31,0.46-3.46,0.46-3.46c6.62-5.61,6.8-9.25,0.54-10.91l-0.65-2.13
	c1.31-4.7,1.93-9.39,1.86-14.06c-2.43-5.47-1.84-8.41,1.76-8.81c3.06-1.16,4.15-4.91,6.71-7.08c7.29-6.18,13.04-12.83,19.78-19.64
	l56.78-57.39c13.42-13.57,24.52-27.57,36.25-42.52l49.78-63.44c26.24-33.44,52.36-66.05,80.82-97.61
	c10.91-12.1,21.96-23.52,34.75-33.33c6.54-5.02,13.8-7.77,19.44-14.52c10.43-12.49,20.03-25.35,28.92-39.15
	c5.52-8.57,11.18-16.09,15.99-25.16c13.19-24.86,25.43-49.5,37.02-75.04c1.6-3.52,4.49-5.64,5.29-9.07
	c-2.49-1.85,0.44-5.8,3.04-5.81c-0.84-3.18,3.2-5.11,5.86-6.23c7.73-3.24,17.08-1.03,22.47,5.38
	C568.44,1061.05,571.55,1065.12,568.18,1066.53z"/>
<path class="st3" d="M616.22,1066.57l1.99,0.36c6.39,45.85,14.26,91.57,23.61,137.15c15.24,49.5,24.8,99.28,33.31,149.88
	c15.34,68.27,28.73,137.03,40.17,206.28c7.35,37.39,16.12,73.94,26.29,109.65l-1.49,1.86l-45.32,0c-4.76-2.26-1.09-8.25,3.64-8.98
	l0.77-2.82c-0.73-1.61-0.91-3.01-0.55-4.18c4.17-3.55,9.24-9.78,0.01-7.12c-3.14-5.09-5.19-4.1-6.14,2.96
	c-4.37,1.15-5.83,3.56-4.37,7.25c-2.47,3.38-4.44,6.96-5.91,10.74c-2,0.24-3.82,0.84-5.44,1.8c-6.44-0.13-12.83-0.12-19.31,0.02
	c-2.67-3.23-0.24-10.02,2.88-12.96c-3.21-2.07-2.65-4.99,1.68-8.75c1.96-2.72,2.48-5.98,1.54-9.8c3.53-3.16,4.47-9.13,4.99-13.76
	c0.85-7.64-8.07-6.19-8.35,0.74c-3.39,2.94-4.39,7.17-3.03,12.69c-1.2,1.18-2.68,1.99-4.45,2.43c-0.72,3.07-0.79,6.23-0.21,9.5
	c-1.31,1.41-2.66,2.75-4.03,4.01c0.33,6.7-1.46,12.11-5.37,16.22c-4.64,0.1-9.68,0.48-14.37,0.26c-4.69-0.89-3.72-2.94,2.92-6.16
	c2.3-1.59,1.83-3.47-1.41-5.64c-0.27-6.02,0.76-12.6,4.4-17.66c-3.71-2.65-2.9-6.04,2.41-10.15c-2.5-4.81-2.14-8.71,1.09-11.69
	c-1.92-4.3-1.57-6.94,0.45-11.02c-6.99-3.85-9.62-3.03-7.9,2.48c-0.82,2.31-2.12,4.58-3.92,6.79c1.16,4.92,0.49,7.45-2.06,11.67
	c1.01,4.45-0.07,7.63-3.23,9.54c0.68,3.77,0.58,7.64-0.31,11.61c2.85,6.28,1.81,9.73-3.13,10.35c-1.71,2.45-0.39,4.98,3.96,7.59
	l-1.11,1.99c-5.77,0.31-11.53,0.03-17.3,0.04l-1.14-2.24c1.42-3.01,2.41-6.12,2.97-9.33c-4.42-3.79-2.66-14.08-0.8-19.01
	c-5.44-3.36-3.71-6.22-0.91-10.75c-3.34-4.22-3.68-7.36-1.13-12.19c-3.6-1-6.34-0.34-8.22,1.98c-3.94-2.62-4.48-1.23-1.62,4.17
	c-0.96,4.32-0.56,8.21,1.18,11.68c-2.19,2.65-2.15,4.7,0.11,6.15c1.58,2.32,1,4.61-1.74,6.88c-0.33,2.76,0.59,5.59,2.75,8.49
	c-0.25,2.35-0.87,4.73-1.88,7.16c1.28,2.76,1.62,5.09,1.02,6.99l-13.55-0.03c-1.9-1.15-2.56-3.57-1.98-7.27
	c-1.61-3.52-3.24-7.1-2.73-11.11c-3.47-0.55-3.85-3-1.14-7.32c-3-4.09-3.92-8.11-2.75-12.08c-2.53-4.76-4.07-9.61-4.62-14.54
	c-1.69-1.42-2.86-3.08-3.5-4.97c-6.26,0.48-5.38,5.07-2.67,9.39c-2.27,4.12-1.29,8.45,2.92,13c-2.24,3.81-2.46,7.28-0.64,10.43
	c3.53,2.32,4.02,5.43,1.47,9.33c2.31,3.75,5.71,11.7,2.25,14.87l-13.35,0.32c-2.26-0.88-4.41-1.77-6.45-2.68
	c1.26-2.92,2.04-5.87,2.36-8.84c-1.72-1.03-3.46-2.22-5.2-3.55c-0.08-6.26-2-11.65-5.75-16.17c0.05-1.79,0.48-3.56,1.3-5.33
	c-1.28-2.45-2.93-2.64-4.94-0.55c-4.69-3.14-7.01,1.24-5.68,5.45c3.61,1.84,4.43,5.01,2.47,9.51c3.54,4.58,5.18,9.26,4.92,14.03
	c4.78,2.95,8.16,6.64,0.55,8.13l-13.64-0.32l-8.48-4.11l-0.75-2.17c1.31-4.12-2.65-6.94-6.06-8.4c-0.25-0.11-4.31,2.11-4.76,2.68
	c-0.96,1.21,1.82,8.9,3.06,10.34l-1.02,1.97l-31.48,0.3c-1.23-0.47-1.65-1.05-0.55-1.89l-1.67-1.3l21.2-93.67
	c11.01-71.67,24.15-143.22,39.41-214.65c8.53-58.59,20.53-115.32,34.61-171.68c6.04-39.8,11.43-80.62,14.87-120.99l2.29-1.41
	c-3.08-2.31,1.25-6.73,3.5-8.7c8.02-6.99,21.63-5.93,27.77,3.02C617.23,1062.75,618.93,1065.27,616.22,1066.57z"/>
<path class="st11" d="M584.57,1066.44c-1.64,6.09-0.92,13.49-1.79,20.42l-10.38,82.98l-2.79,17.47c-1.89,11.83-5.75,22.8-8.31,34.41
	l-7.49,33.98c-5.97,27.06-11.31,53.32-15.12,80.81c-2.95,21.27-7.37,41.23-11.59,62.18l-5.83,28.98l-14.26,73.01l-9.62,62.57
	c-3.03,19.7-7.87,38.05-12.29,57.47l-11.26,49.42c0.33,0.95-0.56,1.54-1.61,1.49l-119-0.17c17.28-25.04,29.93-56.36,38.66-86.23
	c7.33-25.1,15.12-49.14,24.06-73.81l28.89-79.69c11.95-32.96,23.48-65.02,34.04-98.43c4-12.65,8.77-24.14,13.6-36.36l11.43-28.89
	l27.76-68.84l5.24-20.19c4.28-16.49,11.84-31.67,15.53-48.36l5.62-25.43l10.12-38.7c0.17-0.75,0.41-1.65,1.07-1.93
	c0.64-0.27,12.6-0.3,13.95-0.08L584.57,1066.44z"/>
<path class="st11" d="M631.59,1065.73c3.43,13.12,6.7,15.57,10.5,30.75c2.59,10.36,6.43,20.11,8.37,30.63
	c2.1,11.44,9.49,29.06,13.63,40.23c7.4,19.95,13.76,48.06,22.19,64.31c10.41,20.05,18.46,40.34,27.22,61.24
	c10.23,24.41,18.42,48.57,27.27,73.41l8.85,24.86l49.46,134.55l11.8,34.54l17.11,52.2c4.76,14.5,11.33,27.72,18.09,41.24
	c3.3,6.59,8.39,11.69,11.13,18.05l-117.12,0.02l-6.83-25.28l-7.77-29.81c-5.58-21.39-10-42.34-13.42-64.28l-4.42-28.3l-10.71-56.28
	l-5.68-28.97l-10.99-50.32l-7.03-34.19l-12-66.85l-11.59-48.73c-4.38-18.43-10.58-33.82-13.52-50.69l-5.3-30.38l-8.76-51.9
	l-5.85-39.2c0.05-0.74,0.19-1.85,0.71-1.96c1.47-0.32,12.64-1.02,13.23-0.72C630.9,1064.26,631.31,1064.99,631.59,1065.73z"/>
<path class="st7" d="M164.03,1671.72l-3.5,0.01c0.82-4.71,0.61-9.47,0.88-14.86l1.67-33.93c-3.89-1.58-7.46-3.63-7.54-8.53
	c-0.03-1.93-0.9-4.37,0.96-5.88c1.16-0.94,2.69-0.46,5.6-1.18c-4.63-5.28-2.44-9.86-1.02-15c1.04-3.76-2.81-8.68,0.04-12.55
	l6.13-1.49l-6.12-4.29c5.42-8.38-1.17-6,2.13-14.43c0.55-1.42,3.83-1.32,4.75-2.56c0.34-5.03-2.77-11.09-0.14-15.73
	c1.15-2.02,4.19-2.8,2.98-6.36c-1.03-3.05,1.45-3.94,3.73-5.12c2.59-1.35,8.16-3.29,9.46,0.6c0.98,2.94,1.34,6.36,2.09,9.38
	c0.58,2.36-2.47,4.27-3.69,6.29c2.72,4.06,2.93,8.83-0.18,12.74c-4.86,6.12,3.7,8.16-4.78,18.89c2,0.62,4.18,0.46,4.39,2.02
	c0.12,0.86-0.38,2.89-1.21,3.42c-3.07,1.96-2.31,3.75-2.52,6.59l-0.71,9.44c-0.2,2.68-3.1,4.31-3.76,7.17
	c1.26,1.11,3.95,1.05,4.41,2.96c0.75,3.17-0.14,7.34-2.72,8.92l-7.78,4.76c-2.28,5.48-1.45,11.74-1.81,17.71
	C165.12,1651.37,163.87,1661.55,164.03,1671.72z"/>
<path class="st12" d="M962.56,1671.54l-4.32-0.28l0.37-42.06c0.03-3.66,0.87-6.89,0.02-10.61c-4.76-0.04-8.11-4.07-8.15-8.64
	c-0.05-6.85,13.32-2.28,8.52-5.75c-11.12-8.03-3.24-12.07-5.07-20.05c-1-4.4-1.8-9.44,0.26-13.51c0.94-1.86,3.87-1.62,4.86-4.06
	c-2.53-1.62-5.15-5.06-3.25-7.83c1.63-2.37,3.28-5.49,1.31-8.26c-2.76-3.88,0.6-6.66,1.05-9.74c0.38-2.61-5.33-7.74-0.58-9.94
	c1.9-0.88,4.57-1.03,6.18-3.55c1.29-0.26,2.81,2.02,3.29,2.83c1.75-0.71,1.84-3.07,3.43-3.42c2.21-0.48,3.9,2.01,4.36,3.39
	c1.23,3.67-3.44,6.6-2.45,9.13c0.32,0.82,2.3,0.73,2.81,1.48c4.49,6.58-9.55,9.16,0.9,13.27c-0.84,2.82-3.73,4.01-4.02,7.02
	c1.43,0.79,4.68,2.51,3.49,4.45c-1.68,2.75-2.22,5.91-3.65,8.62c-5.9,11.16,3.4,12.77-2.65,20.5l-7.93,10.13
	c3.37,0.97,7.15-0.15,9.09,2.42c4.91,6.49-7.82,9.8-7.82,12.49L962.56,1671.54z"/>
<path class="st12" d="M920.37,1671.36c-1.2-0.16-3.21,0.11-4.47,0.18c-5.62-19.39-11.56-38.7-15.13-59.06
	c-6.61,0.07-13.38-4.54-11.4-10.63c0.45-1.38,4.18-0.8,3.68-3.01c-1.16-5.15-5.47-3.31-6.63-8.8c-0.45-2.14,1.25-3.51,2.11-5.52
	c2.13-5-9.76-8.16-4.51-17.27c-1.69-3.05-3.14-5.56-4.36-8.58c-0.67-1.66,0.73-3.88-0.49-5.23c-1.3-1.44-3.09-2.39-2.74-4.39
	c0.21-1.22,1.33-2.38,2.52-3.91c-1.87-2.35-5.98-6.48-3.83-9.39c1.95-1.11,4.22-1.81,5.31-4.82c0.78-2.14,4.36,0.94,4.85,3.2
	c1.31-1.46,2.68-4.71,4.97-3.39c3.38,1.95,2.4,6.37,0.22,9.24l5.23,3.17c1.83,2.9-0.33,7.02-0.03,9.79
	c10.04,10.96,1.55,21.07,4.26,21.45c1.99,0.28,4.97-0.26,5.72,1.02c1.14,1.95-2.45,17.18-1.06,19.21c1.15,1.69,5.83,1.4,6.67,2.86
	c2.03,3.54-3.61,9.75-7.18,12.92C907.84,1631.29,913.46,1651.58,920.37,1671.36z"/>
<path class="st12" d="M972.28,1671.42c-1-0.11-2.66-0.07-3.66,0.09c0.09-3.1,0.33-6.29,0.88-9.9l9.48-62.5
	c0.53-3.51,0.37-5.53-2.62-7.81c-2.84-2.16-4.14-7.67-1.43-10.22c1.18-1.12,3.35-0.85,3.78-1.87c2.25-5.34-3.26-7.61,0.06-14.76
	c1.07-2.32,0.54-5.28,2.17-7.39c0.77-0.99,2.55-1.31,2.74-2.47c0.53-3.32-2.86-0.58-2.17-9.71c0.19-2.56,3.73-2.44,4.76-4.34
	c2.1-3.88-1.44-9.9,1.22-13.71c1.58-2.27,4.82-3.17,3.13-7.32c-1.43-3.52,7.04-7.84,8.88-7.22c1.39,0.47,4.63,1.22,4.38,3.47
	c-0.34,3.12,1.31,5.7,1.18,8.36c-0.09,1.88-4.05,3.19-2.97,5.84c1.21,2.98,0.9,6.37-1.09,8.9c-1.93,2.45-1.09,4.78-1.2,7.55
	c-0.1,2.46-3.73,3.68-3.4,6.33c2.05,0.72,3.5,1.45,3.82,2.91c-0.06-0.25-4.72,12.76-4.23,10.64c-0.92,3.94-2.39,8.38-4.43,11.96
	c0.54,1.9,3.64,3.61,3.45,5.42c-0.23,2.21-0.74,4.62-2.78,5.94l-9.31,6.06c0.22,6.67-1.89,12.63-2.81,19.07l-6.72,47.14
	C972.92,1665.32,972.8,1668.44,972.28,1671.42z"/>
<path class="st7" d="M190.99,1671.75c-1.19-0.05-2.38-0.05-3.57-0.02l5.53-24.41c0.88-3.89,1.27-7.48,3.07-11.07
	c-7.6-0.56-9.51-8.62-7.72-11.67c1.55-2.63,4.71-1.8,7.52-2.32c-6.97-19.67,5.16-13.95,2.56-28.73c-1.27-7.19,10-5.04,7.21-9.58
	c-2.5-4.06-0.11-6.71,2.75-9.52c2.38-2.33-3.04-7.28,0.49-12.62c0.99-1.49,3.57-0.52,4.66-1.49c1.31-1.17-0.61-3.55-1.39-5.03
	c-0.97-1.85-0.66-5.85,1.76-5.44c2.76,0.47,3.4-0.33,5.63-2.14c1.28-1.04,3.09,2.83,3.55,4.47c2.28,0.37,3.4-2.41,5.41-2.45
	c2.28-0.04,2.86,2.53,2.85,4c-0.05,5.1-6.83,6.61-5.95,9.91c0.38,1.42,3.6,1.74,3.24,3.65c-0.99,5.24-5.03,4.54-5.65,6.69
	c-0.21,0.74,1.5,1.58,1.6,2.51c0.46,4.33-3.11,6.92-7.11,8.27c1.53,2,3.38,2.79,3.36,4.58c-0.08,7.22-8.15,2.04-7.35,18.76
	c0.46,9.68-13.25,13.38-11.66,15.75c0.78,1.16,3.89-0.51,7.47,2.93c1.26,1.21,1.53,3.4,0.56,4.91c-2.26,3.53-6.58,3.61-10.55,4.83
	L190.99,1671.75z"/>
<path class="st12" d="M81.6,1572.35c5.29,0.12,3.25,6.53,0.57,9.67c1.29,1.44,1.53,2.42-0.29,3.65c2.13,1.37,1.13,2.99-3,4.88
	c2.15,5.05-0.53,9.35-5.7,10.91c4.16,3.34,2.43,5.44-0.92,8.4l-3,6.36c0,0-3.82,4.6-11.45,13.8c-1.14,6.02-8.72,9.07-13.22,11.84
	c-3.33,2.05,7.1,2.43,6.37,7.75c-0.82,5.93-10.63,4.26-13.08,7.84c-2.93,4.28-3.79,9.46-5.35,13.92c-1.11,0-2.92-0.12-3.98,0.08
	l-1.83-1.53l4.98-11.19c0.2-0.9-0.15-1.9-1.05-3.01c0.67-3.79-5.08-9.22-1.2-12.93c1.21-1.15,3.2-2.78,5.31-1.36
	c1.74,1.17,3.73,3.44,5.66,1.05c-2.9-2.98-5.02-10.12-1.72-12.8c3.37-2.74,4.63-4.51,4.64-9.2c0.01-7.19,4.31-13.34,12.05-13.63
	c-2.28-2.94-3.81-4.1-3.1-6.73c0.49-1.82,1.93-2.96,4.39-3.52c5.27-1.21-3.1-10.59,8.71-14.5c-0.41-2.98-2.39-8.01,0.46-8.95
	l6.76-2.24c1.78,0.52,1.84,3.13,3.1,4.73C77.66,1573.5,79.77,1572.63,81.6,1572.35z"/>
<path class="st7" d="M204.48,1671.77c-1.11,0.01-2.59-0.38-3.62-0.32c0.03-0.58,0.85-1.08,1.11-1.95
	c5.5-17.94,11.71-35.1,18.83-53.06c-5.89-4.37-5.46-14.53-1.89-16.53c1.27-0.71,2.87-0.02,4.97,0.62c2.52-8.81-2.16-8.55,4.69-14.65
	c1.61-1.44,0.23-4.83,1.56-6.76l5.27-1.52c-0.98-1.73-2.12-2.33-1.98-3.48c0.09-0.74,1.5-1.84,1.48-2.69
	c-0.11-5.98,2.44-10.62,8.53-11.19c0.48-16.65,4.42-11.88,6.07-13.29c1.74-1.49-0.18-5.9,2.55-6.33c5.58-0.89,5.66-2.3,8.3-1.56
	c2.98,0.84,5.42,10.04,4.17,11.24l-4.61,4.39c-0.48,3.23,1,6.94-2.03,9.98l-5.3,5.33c1.62,4.56-0.66,8.7-5.34,9.94
	c-0.94,0.25-2.02,1.11-2.27,1.74c-0.8,2.07,4.23,1.87,3.57,5.61c-0.57,3.22-4.98,4.05-5.45,6.47c-1.62,8.21-7.81,8.06-6.07,10.85
	l1.73,2.76c2.77,4.42-4.32,9.27-9.86,10.01c-1.61,0.22-5.07-0.41-5.87,1.67C216.18,1636.69,209.91,1654.1,204.48,1671.77z"/>
<path class="st12" d="M896.51,1671.38c-1.25-0.18-3.23,0.07-4.53,0.16c-0.21-0.89-0.26-2.01-0.87-3.31l-11.82-24.78
	c-5.35,0.39-13.21-0.53-13.29-7.77c-0.02-1.77,2.79-3.61,1.38-5.66c-3.94-5.74-5.53-1.71-8.96-7.39c-1.07-1.78,1.43-3.59,1.68-5.1
	c-1.68-2.62-3.01-6.38-4.35-9.02l-4.85-9.53c-1.73-3.4-6.94-3.58-6.38-9.23c0.55-5.58-5.77-2.95-8.16-8.4
	c-0.75-1.71,1.17-3.19,1.15-4.94c-0.03-2.22-0.88-4.11,0.74-5.89c1.44-1.58,3.7,1.04,5.41,0.54c2.33-0.68,4.03-4.87,7.07-2.64
	c2.71,1.99,2.68,6.68,3.9,9.24c4.43,0.87,7.15,3.24,7.06,8.53c-0.02,1.16-0.12,2.97,0.73,3.64c0.75,0.59,2.27,0.09,3.17,0.37
	c5.75,1.82,8.9,16.02,6.99,21.36c8.49-0.26,3.57,9.8,6.36,15.05c2.65-0.97,6.07-2.42,7.5-0.09c2.96,4.8-0.06,9.93-2.28,14.36
	c-0.78,2.88,1.6,6.46,2.78,9.1L896.51,1671.38z"/>
<path class="st12" d="M996.95,1671.43c-1.3-0.11-3.08-0.04-4.39,0.06c0.29-2.44,1.22-4.98,2.28-7.6c3.27-8.09,4.63-16.3,7.36-24.51
	l8.41-25.29c-5.28-2.49-8.45-8.52-5.61-12.29c2.02-2.69,6.62-0.37,7.42-3.05c0.94-3.14-1.7-1.04-1.62-10.09
	c0.02-1.87,3.08-1.58,4.17-3.31c1.8-2.86-0.14-7.97,3.09-10.31c7.7-5.58-2.01-10.99,9.94-15.01c-0.03-3.3-2.35-6.68-0.36-9.16
	c0.85-1.06,4.85-0.72,4.16-3.4c-0.45-1.75-0.81-6.79,1.68-6.56c3.6,0.33,4.98,0.34,7.49-2.65c0.52-0.62,2.48,0.94,2.71,1.7
	c0.27,0.91,0.02,2.13-0.18,3.57l5.28,0.29c1.79,6.35-6.73,5.28-3.81,11.62c1.16,2.52-0.31,5.3-2.36,6.54
	c-3.38,2.04-2.79,4.23-2.87,7.51c-0.04,1.9-2.43,4-2.91,6.08c-0.76,3.3-4.19,5.39-6.16,8.44c1.55,16.74-10.45,14.98-10.61,17.77
	c-0.11,2.09,5.33,1.32,4.9,5.68c-0.44,4.48-7.07,5.56-11.01,6.82l-10.72,34.42c-1.67,5.38-2.61,10.65-4.45,15.86
	C997.95,1666.98,996.43,1669.03,996.95,1671.43z"/>
<path class="st7" d="M236.82,1671.74c-1.34,0-3.04-0.43-4.32-0.3l12.87-22.79c-4.07-3.62-5.6-8.52-3.47-12.84
	c0.83-1.69,2.71-2.53,4.25-2.57c1.5-0.04,2.54,1.76,4.74,2.81c1.58-3.86-0.15-7.77,0.66-11.82c0.85-4.28,7.69-4.99,8.6-8.38
	l2.27-8.51l5.58-1.68c1.65-0.49,1.06-4.43,1.78-6.24c1.13-2.85,3.68-2.56,5.55-2.78c0.27-2.72-2.52-7.05,0.03-8.07l6.03-2.42
	c0.13-2.84-0.02-5.05,1.07-7.82c3.94,2.18,9.34-1.83,10.12,0.52c0.7,2.12-1.66,4.58-0.35,5.13c1.49,0.63,4.87-2.38,6.7,0.11
	c0.9,1.23,0.8,2.9,0.25,4.39c-1.19,3.2-5.75,2.84-7.33,5.39c-1.03,1.67,1.23,4.55,0.38,6.23c-0.85,1.68-2.34,2.75-4.25,4.09
	c-1.41,0.99-0.92,3.4-2.34,4.51c-1.98,1.55-6.22,2.37-6.75,5.4c-0.83,4.77-3.19,8.06-8.52,8.73c1.21,2,2.23,2.7,2.2,3.99
	c0-0.19-4.76,9.69-11.54,9.76c-1.64,0.02-2.6-2.2-5-1.78c-0.66,3.08,2.05,4.74,4.75,5.59c2.04,0.64,1.38,4.01,0.7,5.87
	c-1.32,3.61-9.17,4.1-12.49,4.25C243.69,1656.95,239.64,1664.43,236.82,1671.74z"/>
<path class="st12" d="M1019.02,1671.21c-1.18,0.27-3.4-0.04-4.58,0.15c2.23-6.81,6.31-12.87,9.19-19.87
	c2.72-6.6,5.35-13.01,8.59-19.33c1.39-2.7,0.44-4.64-1.23-6.96c-2.44-3.38-2.77-9.87,1.72-11.46c1.49-0.53,4.73,2.41,5.47-0.28
	c0.68-2.52-2.47-9.62,0.85-12.14c0.85-0.65,2.15-0.5,3.62-0.19c1.91,0.41,2.53-1.12,2.91-2.28c0.39-1.19-1.27-2.08-1.43-2.93
	c-1.23-6.5,3.96-10.18,8.3-13.11c2.06-4.1,0.07-12.4,3.83-13.62l4.05-1.31c0.96-0.31,1.49-2.43,1.46-3.83
	c-0.09-4.03,2.34-4.37,5.17-5.58c3.14-1.34,6.24-1.95,8.23,1.65c2.75,4.99-0.1,10.93-5.18,13.17c0.21,1.79,1.94,3.2,1.75,4.31
	c-0.18,1.05-7.67,12.27-10.68,14.02l3.01,3.85c-1.45,3.61-4.87,5.23-8.3,6.67c-2.46,1.03,4,5.94-7.89,15.27
	c0.67,1.85,2.65,3.19,2.16,4.95c-1.5,5.42-7.01,7.5-12.68,6.25l-16.07,36.16C1020.27,1667.08,1018.55,1668.99,1019.02,1671.21z"/>
<path class="st12" d="M1053.91,1670.4l-1.01,1.03l-1.82,0c-1.11-0.78-2.84-0.85-3.88,0.05c-0.96,0.09-1.92,0.12-2.88,0l0.12-1.07
	c2.67-5.44-3.69-1.11-0.43-12.81c0.66-2.39,1.73-4.17,3.76-4.38c5.38-0.56,5.57,4.95,7.14,2.24c0.96-1.67-4.27-10.2,3.32-15.28
	c0.98-0.66,3.96-0.01,4.35-1.43c1.44-5.26,4.67-8.18,8.55-11.54c-1.25,1.08,4.94-7.86,6.4-7.73c1.84,0.16,3.59,0.37,5.57,1.09
	c2.78-17.29,9.67-7.4,9.78-16.16c0.02-1.63,2.05-2.71,3.11-3.02c1.6-0.46,3.01,0.51,4.45,1.5c1.29,0.89,3.07-0.73,4.35-0.33
	c2.95,0.92,3.31,4.92,3.01,7.02c-0.54,3.69-3.95,3.65-6.35,5.75c-1.58,1.38,0.47,5.46-1.81,7.07c-1.24,0.88-2.96,2.34-5.32,2.71
	c-2.72,0.43-2.47,3.23-3.75,5.13c-0.61,0.9-2.13,1.25-2.6,1.86c-1.26,1.66,1.33,4.27-0.38,6.22c-1.58,1.8-7.35,0.73-7.64,4.16
	c-0.35,4.16-3.13,4.39-6.1,5.91c-2.75,1.41-3.45,6.05-6.05,7.86c-3.11,2.17-6.55,1.22-10.24,1.03c-1.28-0.07-0.29,3.29,1.43,3.42
	c2.39,0.18,4.35,2.36,3.38,4.8C1060.93,1669.03,1057.19,1670.32,1053.91,1670.4z"/>
<path class="st7" d="M268.8,1671.76c-1.33-0.04-2.67-0.01-3.99-0.02l2.6-5.77c-3.75-4.29-3.54-11.4,1.48-14.43
	c2.55-1.54,8.61,4.95,8.2,0.73c-0.74-7.7-3.09-9.1,3.85-14.89c2.69-2.25,4.4-2.4,7.77-1.89c2.51-0.26,1.48-5.14,2.33-6.92
	c1.69-3.58,5.21-7,8.61-8.64c6.95-3.35,1.05-10.22,6.6-10.68c1.38-0.11,2.74,0.69,3.74,0.09c3.08-1.84,1.63-5.6,6.28-6.34
	c1.91-0.3,2.33,2.2,4.32,2.83c1.66,0.52,4.46-0.34,5.25,1.14c0.58,1.1,0.97,4.04-0.33,4.99c-2.67,1.96-2.41,4.49-3.53,7.11
	c-1.44,3.39-6.11,2.96-9.34,3.91c1.98,7.94-3.16,13.08-10.39,14.65c0.21,2.88,0.07,5.39-1.29,6.92c-3.01,3.38-8.35,0.68-10.01,3.31
	c-0.55,0.88,1.66,1.93,1.63,2.94c-0.14,4.38-5.03,7.46-9.3,8.55l1.62,3.05c0.7,1.31-0.73,2.38-1.45,3.49
	C278.23,1673.89,270.13,1665.73,268.8,1671.76z"/>
<path class="st7" d="M628.77,1671.98c-2.56-0.12-5.27-0.43-7.83-0.29c-1.12-3.38-6.69-2.61-5.46-9.27c0.37-2.02,2.74-2.56,5.29-2.74
	c0.84-3.11-1.65-5.53-1.47-8.51c0.19-3.23,1.51-6.18,0.47-9.62c-0.82-2.7,1.36-4.24,3.72-4.88c-2.91-11.4,3.86-7.92,1.62-15.24
	c-1.18-3.86,1.45-5.55,3.49-8.11c0.86-1.08-0.93-4.03-0.16-5.15c0.71-1.04,1.91-3.75,3.98-2.93l6.88,2.71
	c3.06,1.21-0.46,5.1-0.68,6.97c-0.24,2.08,2,4.45,1.31,6.57c-0.43,1.34-3.23,3.07-2.9,4.6c0.51,2.4,3.29,5.86,1.21,7.96l-4.59,4.63
	c0.37,1.41,3.91,2.7,2.99,4.28l-2.47,4.22c-1.77,3.03-1.2,8.03-2.62,11.53c0.62,1.6,4.13,2.86,3.64,5.02
	c-0.85,3.72-4.69,5.15-8.36,6.99C626.97,1671.6,628.32,1671.27,628.77,1671.98z"/>
<path class="st7" d="M580.68,1671.69c-4.52-0.01-8.97-0.37-13.39-0.26l-1.38-9.16c-0.33-2.2-2.77-3.44-2.77-5.8
	c0-1.76,1.02-3,2.42-5.06c-5.87-3.27-6.67-9.5-3.01-14.47c-9.54-11.12-1.54-10.47-3.44-14.06c-0.79-1.49-2.08-2.54-2.15-3.9
	c-0.08-1.54,0.95-2.61,1.68-4.01c1.23-2.35,2.87-2.17,5.22-2.38c2.2-0.2,2.05,2.94,3.28,3.78c3.97,2.71,1.82,5.64,2.89,8.43
	c1.35,3.53,5.36,6.72,3.45,11.79c-1.67,4.44,3.81,5.37,3.2,10.17c-0.17,1.37-1.41,2.63-2.55,4.15l2.99,0.71
	c2.58,0.61-1.52,2.59,2.83,10.71C581.55,1665.29,580.19,1668.8,580.68,1671.69z"/>
<path class="st7" d="M603.64,1671.74c-3.08,0.01-6.35-0.01-9.4-0.02c-7.45-10.24,2.16-10.62-2.04-15.69c-1.94-2.34-2.96-6.1-1-8.77
	c0.7-0.96,2.06-1.29,1.96-2.35c-0.27-2.76-3.31-2.63-2.78-5.63c0.15-0.84,0.78-1.95,2.01-3.1c-3.22-3.22-1.67-7.04-1.43-10.9
	c0.15-2.31-4.11-6.03-0.44-8.44c0.98-0.65,2.63,1.19,3.65,1.87l2.82-4.31c2,2.39,4.25,2.79,6.92,1.04c2.42,3.48-2.41,7.25-1.02,9.73
	l2.61,4.66c0.87,1.56-3.27,5.8-2.69,7.26c0.37,0.95,5.26,2.94,3.45,5.15c-2.34,2.85-0.79,5.75-1.25,8.5
	C602.75,1664.41,612.33,1651.42,603.64,1671.74z"/>
<path class="st7" d="M657.49,1671.41l-14.35,0.31c-0.75-2.98,1.9-5.22,2.71-8.14c0.97-3.5-0.73-7.69,2.01-10.51
	c0.78-0.81,2.43-0.85,2.7-1.58c1.3-3.45-2.05-4.23,0.43-10.18c0.7-1.67,2.91-1.45,4.75-2.46c-2.98-14.18,2.36-7.13,4.34-17.3
	c0.4-2.03,5.95-2.86,7.94-1.75c4.11,2.29,2.35,7.47,1.39,11.13c-0.92,3.53,0.12,6.27-3.38,8.78c-3.24,2.32,5.17,4.76-6.48,15.49
	c0.57,1.27,3.11,1.86,2.95,3.17c-0.18,1.5-1.62,2.11-2.42,3.26C658.01,1664.62,658.97,1668.45,657.49,1671.41z"/>
<path class="st7" d="M553.95,1671.74l-16.42-0.01c-0.04-1.16,2.53-1.32,2.59-2.2c0.14-1.99-2.49-3.07-3.67-3.82
	c-2.88-1.84-0.54-5.14-1.51-7.32c-1.68-3.8-6.03-6.81-4.57-11.37c0.24-0.75,1.29-1.43,1.25-2.12c-0.14-2.32-3.53-1.71-4.57-5.86
	c-0.39-1.55,2.63-7.79,3.39-7.99c1.97-0.5,3.08,2.02,4.53,1.78c0.72-0.12,1.17-1.08,2.08-1.51c2.04-0.95,3.56,1.47,4.61,2.72
	c1.27,1.52-0.73,3.88-1.12,5.88c8.24,8.4,3.57,16.32,7.06,17.12c0.57,0.13,2.07-0.03,2.7,0.56c3.25,3.06,0.99,7.35-1.5,11.09
	C551.29,1669.28,553.95,1669.41,553.95,1671.74z"/>
<path class="st7" d="M694.79,1671.75l-17.99-0.36c-0.15-2.47,2.55-2.86,4.89-3.43c1.54-10.43,6-6.99,4.32-11.45
	c-0.6-1.59-0.17-3.87,0.78-4.25l3.9-1.56c1.91-0.77,0.08-6.58,3.3-6.92c1.78-0.19,3.95,0.1,5.44,0.08c0.06,1.1-0.55,2.18-0.37,2.86
	c0.35,1.34,2.41-0.74,2.96-0.88c1.93-0.48,2.88,1.28,3.34,2.31c0.61,1.35,0.56,3.18-0.56,4.2l-4.95,4.51
	c1.99,2.25,1.21,4.22,0.58,6.15c-0.78,2.35-3.22,1.76-4.89,3.13C694.04,1667.35,694.99,1670.31,694.79,1671.75z"/>
<path class="st7" d="M335.71,1672.03l-25.61-0.66c1.35-4.18,6.18,0.43,8.53-1.33c1.75-1.31,0.79-6.62,5.58-8.84
	c2.15-0.99,4.62,0.99,6.5,1.47c1.84-2.4,2-6.44,4.63-7.92c2.63-1.48,4.24,1.42,6.41,2.15c1.84,0.62,4.52,0.14,5.7,1.41
	c0.89,0.96,2.67,3.21,1.29,4.87c-1.61,1.95-2.04,4.37-3.31,6.35C343.86,1671.98,334.4,1668.7,335.71,1672.03z"/>
<path class="st10" d="M930.85,1608.86l9.53,62.82c-1.37,0.01-3.02-0.04-4.28-0.39l-5.72-38.31c-0.79-5.3-2.01-10.21-1.58-15.12
	c-0.42-1.54-0.9-2.97-1.42-4.31c0.02-1.51-0.12-3.02-0.23-4.53C927.01,1606.23,930.13,1606.2,930.85,1608.86z"/>
<path class="st7" d="M523.89,1671.42c-5.99-0.14-11.95,0.25-18.01,0.3c-2.62-3.93-4.89-9.57-3.65-14.19
	c2.11-0.21,5.26-2.98,6.94-2.94c7.05,7.17,7.17,0.4,7.45,11.64C520.31,1666.49,522.53,1668.69,523.89,1671.42z"/>
<path class="st3" d="M30.64,1655.71c8.28,0.13-2.81,11.44-2.1,15.73c-5.6,1.06-11.34,0.06-16.96,0.02c4.1-4.97,9.86-8.39,14.63-13.2
	C27.6,1656.85,28.78,1655.51,30.64,1655.71z"/>
<path class="st7" d="M142.97,1671.34c-0.84,0.18-1.97,0.44-2.91,0.43c0.39-2.54-3.73-11.03,1.25-10.95
	C142.33,1664.39,142.81,1667.89,142.97,1671.34z"/>
<path class="st12" d="M635.26,869.8c1.81-0.52,3.71,0.77,5.69,3.86l2.59,1.51l35.31,0.34c0.66-9.92,0.88-20.03,0.67-30.35l1.93-1.4
	l2.03-1.95c5.33,0.24,10.62,0.02,15.88-0.66l2.34,1.46l175.88,0.12l15.18,46.22c0.65,1.97,0.7,4.04,2.59,4.49l1.39,3.34
	c-1.66,9.99-3.02,19.9-4.08,29.73l-2.19,0.96l-2.09,1.95c-67.09,0.75-134.31,1-201.66,0.77l-1.18-1.92
	c-2.74-0.57-2.82-2.97-0.05-3.6c-0.27-1.31,0.28-2.48,1.64-3.54c-18-2.41-36.1-3.73-54.28-3.96l-2.31-1.29l-0.67,1.92
	c-36.15-0.46-72.28-0.54-108.38-0.26l-1.99-1.68c-0.87-0.43-1.66-0.22-2.38,0.61l-5.79,2c-14.46,0.61-29.11,1.44-43.24,4.4
	c1.92,1.5,2.36,3.01,1.33,4.54l0.28,1.55c-4.06-0.14-7.78,0.17-11.15,0.92l-0.67,1.92c-68.71,0.09-137.43,0.17-206.17,0.26
	l-1.19-1.92l-10.89-0.62l11.67-57.93l5.54-28.35c7.91-0.73,15.17,0.08,23.2,0.15l120.55,1.07l61.01,0.58
	c4.48,0.04,8.62,0.76,12.68,0.56c0.53,0.52,1.04,1.06,1.43,1.67c0.38,0.58,0.72,1.15,0.78,1.73c0.85,8.63,0.73,17.38,0.58,26.04
	l31.89,0.51c0.77-0.89,1.73-1.5,2.88-1.84l0.56-1.89c20.42-19.23,41.06-38.22,61.9-56.95l2.1,0.52l57.69,51.73L635.26,869.8z"/>
<path class="st9" d="M532.43,692.39l1.82,3.77c0.44,5.99,1.15,32.34-0.91,35.59c-0.4,0.64-0.92,1.2-1.47,1.75
	c-0.62,1.75-1.3,3.58-2.59,4.97c-15.68,16.75-31.92,33.51-47.93,49.02l-2.35-0.34c-2.05,0.56-2.82-0.81-4.49-2.38L364.47,680.65
	c-4.94-1.46,20.1-4.39,19.43-4.4c5.83,0.06,11.4-0.24,17.07,0.11c2.95,0.19,5.66,1.57,8.92,0.95c7.73-1.48,15.32,0.18,22.97,0.02
	c22.2-0.49,50.29-1.32,71.69,1.05c2.67,0.3,5.23,0.03,8.15,0.1l16,0.34C530.99,681.93,530.11,694.75,532.43,692.39z"/>
<path class="st12" d="M615.26,735.58c0.35,0.68,1.5,0.47,1.95,0.81l1.78-0.99l64.81,57.97c2.48,1.9,2.98,3.66,1.49,5.28l-1.22,1.85
	c-53.12-3.44-108.12-3.51-161.79-2.45c-17.77,0.83-35.55,2.05-53.32,3.68c-1.09-0.1-1.86-0.67-2.21-1.75
	c1.73-5.33,8.08-8.54,12.25-12.83l22.73-23.36c10.13-10.41,19.62-20.93,30.15-30.29c1.42-0.3,3.01-0.2,4.77,0.32l77.44-0.15
	L615.26,735.58z"/>
<path class="st14" d="M327.12,977.97l1.28,1.67l-2.86,8.45c-2.41,6.16-3.4,12.24-2.98,18.23l1.92,0.88
	c0.02,17.17,0.04,34.35,0.06,51.54l-1.92,1.15c-0.57,1.82-2.84,1.46-4.2,2.08c-0.46-1.03-1.65-1.54-2.75-1.42
	c0.3-2.77-1.72-5.41-4.83-6.37c-15.29-4.73-31.04-3.92-46.61,0.12c-4.93,1.28-10.16,1.96-13.77-1.32l0.18-117.89
	c-0.01-0.75,0.19-1.91,0.66-1.92c24.99-0.66,50.97-0.18,75.8,0.63l1.13,1.91l0.06,37.4C328.92,975.45,328.53,977.07,327.12,977.97z"
	/>
<path class="st13" d="M458.54,929.92c2.28-0.49,9.14-1.53,11.06-1.19c0.51,0.09,0.93,0.63,1.34,1.3c0.76,0.08,1.9,0.35,1.92,0.88
	c0.24,5.7,0.93,44.14-0.38,46.04c-0.31,0.45-0.63,0.83-1.01,0.91c-1.91-0.58-4.54-1.28-6.01,0.09l-0.88,1.92
	c-15.21-0.01-30.42-0.02-45.64-0.02l-1.13-1.92c-1.21-1.04-2.35-1.04-3.41,0l-0.89,1.92c-19.29,0-38.59,0-57.89,0l-1.16-1.92
	c-2.05-1.13-8.34-1.26-12.05,0c-2.26,2.06-10.04,2.34-13.32,1.93l-1.96-1.87c-0.62-1.55-0.75-3.34-0.75-5.46l-0.05-37.45
	l-75.67,0.03c0-1.63-0.34-3.28-0.13-4.92L458.54,929.92z"/>
<path class="st13" d="M685.29,798.65l2.46,0.79c-0.08,3.6-1.61,7.16-4.6,10.67c-0.93,10.55-1.23,21.36-0.18,31.92l-1.52,1.72
	l-0.17,33.69l-37.4-0.33c-3.48-0.03-6.93-4.91-8.61-7.31l-1.39-1.45c-0.59-20.95-0.73-41.99-0.41-63.12
	c-44.45-0.71-88.99-0.51-133.64,0.58l0.08,45.58l-1.92,1.14l-0.5,2.34l-8.7,2.87c7.88-0.98,15.4-0.55,22.57,1.31
	c0.47-0.17,0.92-0.28,1.36-0.23c1.71,0.21,1.17,11.18,0.77,13.42l-1.67,1.5c-0.03,1.62-0.82,3.78-3.13,3.75l-33.62-0.33
	c0.42-11.49,0.1-21.5-0.82-31.54c-0.73-7.91,1.81-26.91-0.46-36.04c-0.9-3.6-7.94-6.93-7.06-9.62l37.16-2.97l18.32-0.88l123.63-0.06
	l14.56,1.01L685.29,798.65z"/>
<path class="st10" d="M1114.19,1048.94c-10.9,0.19-21.8,2.91-33.38,2.22c-7.04-0.42-13.59,1-20.37,1.31
	c-7.13,0.33-13.23,3.14-20.28,3.94c-10.36,1.18-37.91-8.38-57.11,5.35c-0.53,1.45-2.47,1.43-3.24,0.15
	c-20.12-5.7-44.56-12.59-63.53,1.25c-6.46,2.04-13.67-4.1-19.55-5.42c-0.67-0.66-1.32-1.34-1.85-2.1c-0.52-0.75-1-1.49-1.2-2.29
	c-9.88-38.75-8.43-81.21-5.99-119.7l1.99-1.27c-2.93-0.49-2.14-4.82,0.8-4.91c0.79-2.91,1.31-8.74,1.58-12.32
	c0.58-7.7,2.17-14.68,3.3-21.71c4.07-25.48,9.03-50.77,15.75-76.11c3.86-14.58,7.79-28.24,13.98-42.43
	c3.31,4.55,3.96,9.13,5.32,14.08c7.81,28.46,12.58,56.68,18.76,86.64l10.08-48.44c1.36-6.53,17.58-72.21,22.03-68.79
	c0.32,0.25,0.64,0.55,0.93,1.61c10.3,38.13,16.47,76.21,23.01,116.68c6.16-21.03,9.82-41.3,17.63-60.93
	c2.49-6.27,4.03-12.55,8.34-18.33c2.69,1.09,3.28,3.88,4.28,6.49c9.44,24.59,14.38,49.62,20.75,76.48
	c6.27-29.46,11.47-57.47,21.04-85.08c1.44-4.16,2.03-8.27,5.55-11.57c6.55,21.28,10.57,41.73,14.29,63.06
	c4.4,25.21,7.77,49.87,9.84,75.36c2.28,1.62,3.79,3.4,6.28,4.21c12.8-7.3,29.01-5.35,39.18,5.13c7.81,8.05,9.24,19.59,4.18,29.72
	c7.6,3.1,14.37,7.79,18.13,15.25c4.76,9.45,1.36,19.7-6.94,26.83c9.19,8.27,9.55,20.86,1.66,30.41
	c-10.77,13.03-30.8,13.52-43.92,2.14C1120.22,1045.68,1118.22,1043.23,1114.19,1048.94z"/>
<path class="st14" d="M832.25,1003.15c2.35-1.03,2.78,1.02,2.83,3.15l-0.11,50.38l-1.92,1.15l-12.38-1.71
	c-6.46-0.89-19.04,1.22-23.17,7.7c-2.18,2.97-7.71,2.43-10.59,0.22c-3.83,0.54-14.97-11.37-35.21-6.71
	c-4.87,1.12-7.97,4.61-11.57,7.25c-2.39,2.02-9.15,1.5-11.65-0.71c-10.19-7.64-23.5-11.52-35.17-4.56
	c-2.58,1.54-3.12,4.97-5.31,6.47c-0.9,0.12-1.8-0.39-2.68-0.38l-1.92-0.9c0.07-20.09,0.15-40.18,0.22-60.28l1.92-1.15l0.67-1.92
	c48.28-0.01,96.56,0.04,144.86,0.12L832.25,1003.15z"/>
<path class="st13" d="M889.67,932.4l-1.44,25.65c-1.8,32.11,0.73,69.5,8.48,99.71l-13.63-1.82c-10.03-1.33-20.44,0.13-28.45,6.14
	c-4.09,3.08-9.3,2.11-13.71-0.44c-2.59-1.5-5.87-1.99-7.87-3.81l0.11-51.8c0-1.37-0.71-2.11-0.91-2.88l-2.41-1.46
	c-3.8-8.1-7.47-16.09-11.02-23.95l-1.28-0.08c-0.64-5.23-1.34-44.42,0.26-46.11c0.55-0.58,1.34-0.83,2.1-1.01l68.62-0.07
	L889.67,932.4z"/>
<path class="st11" d="M740.13,1064.58c-0.27,5.06,4.25,6.66,7.56,9.84c21.43,20.6,44.33,38.22,69.23,54.44l30.92,20.13
	c8.72,5.68,15.54,12.96,23.81,19.33c16.22,12.5,33.21,23.18,50.86,33.44c5.13,2.98,9.97,5.53,14.81,9.89
	c-4.21,1.95-8.03,0.19-12.1-0.04c-25.46-1.4-41.79-2.97-61.08-19.68l-41.08-35.6l-33.47-31.79l-8.3-7.23l-25.89-24.99l-10.99-11.02
	c-3-3.01-15.34-15.17-15.92-17.44C732.37,1063.63,736.44,1063.18,740.13,1064.58z"/>
<path class="st11" d="M999.37,1143.35c-0.86-0.58-1.59-1.22-2.2-1.92c-3.54-1.65-7.4-3.33-10.36-5.63
	c-1.83-1.79-1.17-2.35,1.12-1.27l89.49,34.15l34.02,13.4l42.52,17.72c7.65,3.19,14.81,6.03,22.47,11.26
	c-55.34,0.49-83.8-16.73-129.28-41.78l-23.65-13.03C1015.31,1151.74,1007.86,1146.43,999.37,1143.35z"/>
<path class="st12" d="M797.44,1065.57c-0.25,2.79,1.2,5.44,4.11,6.79c5.17,2.4,9.43,5.68,14.07,8.9l14.69,10.19l16.83,11.14
	c8.22,5.44,16.81,9.97,25.44,14.69l10.11,5.52c30.41,16.61,62.78,29.03,91.44,48.37l27.65,18.66c6.02,4.06,12.04,7.44,17.87,11.84
	c0.83,0.63,1,3.15-0.24,2.86c-12.93-2.99-23.78-8.52-35.62-14.39c-32.42-16.07-62.78-34.71-93.09-54.5
	c-6.72-4.39-12.9-7.87-19.54-12.33l-10.85-7.28c-8.57-5.75-33.02-19.43-42.45-27.52c-5.02-4.31-14.71-9.66-21.26-15.34
	c-1.49-1.29-4.21-1.38-3.91-3.72C794.22,1065,795.8,1063.7,797.44,1065.57z"/>
<path class="st12" d="M987.94,1134.53l-1.12,1.27c-5.4-1.61-11.39-3.29-15.33-8.57C977.54,1129.02,983.88,1130.55,987.94,1134.53z"
	/>
<path class="st11" d="M797.5,1063.83c-0.27,0.43-0.02,1.24-0.06,1.74c-1.26-0.38-1.78,0.39-1.56,1.41c0.12,0.57,0.81,1.65,0.52,2.57
	c-0.45,1.39-2.71,0-3.7-0.09l-0.7-0.06l-2.07-1.89c-1.07-1.04-2.71-1.87-3-3.46C790.43,1063.55,793.96,1063.86,797.5,1063.83z"/>
<path class="st9" d="M1068.37,692.16c-4.09,4.72-9.81,7.83-14.98,12c-5.48,4.43-10.81,9.2-16.92,12.52
	c-6.68,3.63-13.97,2.5-20.75,3.37c-13.07-0.01-26.21-0.06-39.44-0.17l-1.27,0.83c-5.36-0.07-10.51,1.04-15.85,1.51l-2.34,1.5
	c-5.28,0.83-10.04,3.39-14.93,6.2c-7.62,4.38-13.86,10.09-20.24,16.16l-6.89,6.55c-3.2,3.04-12.47,17.6-17.21,19.26l-1.05,1.02
	c-3.89,2.14-7.94,3.84-12.31,4.61c-1.24-0.4-1.48-0.26-2.27,0.8c-4.95-0.25-11.23,2.09-19.72,1.49c-2.26,0.4-4.65,0.86-7.17,1.38
	l-4.42,0.19c-0.92-0.09-1.68,0.19-2.31,0.83c-4.71-0.18-9.51,0.97-14.08,1.96c-0.91-0.11-1.66,0.18-2.24,0.87l-8.22,1.43l-2.36,1.43
	c-0.55-0.03-1.11,0.09-1.66,0.09c-0.78-0.02-1.48,0.32-2.1,1.02l-14.05,4.15l-2.32,1.52c-19.09,0.63-36.84,15.11-55.11,24.33
	l-41.72,21.07c-1.36,0.69-2.63,1.18-2.75,2.52c-6.62,1.64-13.46,0.98-20.25,1.14c-1.64-3.62-1.02-29.98-0.16-34.12
	c0.79-3.79,6.9-6.69,4-10.99c-0.91-1.35-1.1-2.35-2.81-3.89l-65.27-58.37l-0.23-35.72c7.47-4.34,15.52-3.02,22.73-0.43
	c4.31,1.55,9.75-2.01,13.54-1.67c4.87,0.43,6.05-1.29,8.71-3.69c4.51-4.06,9.33,1.6,12.09,4.57c2.42-0.06,5.46,0.15,7.94,1.66
	c2.02,1.23,6.02-1.64,8.35,0.62c2.41,2.34,5.28,1.16,7.9,0.79l12.83-1.8c3.97-0.56,5.98-0.44,9.61-1.98c3.21-1.37,8.54-0.47,11.93,0
	c1.54,0.22,2.1,3.2,3.81,1.82c1.1-0.89,2.34-1.28,1.6-3.31c-0.32-0.86-0.52-1.67-0.3-2.15c0.32-0.69,1.2-1.47,2.24-1.24l9.16,1.96
	c2.77-4.05,6.7-4.13,10.83-2.51c3.51,1.39,19.2,0.02,24.07-0.65c17.34-2.39,19.5,2.52,23.99,2.04l14.57-1.57
	c3.63-0.39,5.74,5.79,8.57,6.48l14.4,1.09l56.33,0.91c3.92,0.06,7.77,1.01,11.81,1.12c6.89,0.2,12.52-0.53,19.76-1.28l15.76-1.64
	c4.62-0.48,11.48-3.08,15.76-1.22c3.36,1.46,4.91,3.59,9.48,2.44c7.94-2,15.47-6.22,23.62-7.64c1.66-0.29,3.64,1.88,6.03,0.75
	c2.98-1.41,6.46,0.04,9.49,0.64c5.66,1.1,11.59-0.94,17.05,0.82c2.83,0.92,6.56,4.93,9.43,0.69c0.65-0.96,0.86-3.89,3.13-3.25
	c12.83,3.59,7.52-4.43,20.98-1.08C1065.46,692.3,1067.97,690.3,1068.37,692.16z"/>
<path class="st13" d="M615.26,735.58l-78.68,0.15c-2.31,0-3.88-0.59-4.7-2.24c1.55-13.6,0.04-27.39,0.56-41.11
	c0.11-2.93-0.19-5.61-0.3-9.01l-0.52-16.16c-0.06-1.9-2.76-2.29-4.68-3.31c5.09-9.47,18.05-26.64,25.37-34.68
	c6.5-7.14,14.35-21.71,23.19-31.07c13.88,17.3,23.53,33.59,36.54,51.31l9.52,12.97c-1.88,1.38-3.79,1.02-5.75,1.73l-0.29,41.48
	L615.26,735.58z"/>
<path class="st14" d="M538.37,1059.83c-0.15,2.01-2.65,4.13-3.04,5.81c-6.58-0.19-13.06-1.65-19.65-1.06
	c-3.48-11.61-20.47-12.35-31.37-5.12c-2.36,1.57-3.99,3.53-6.37,4.23c-2.01,2.08-5.71,3.11-6.77-0.25l-1.93-0.86
	c-0.25-18.44-0.5-36.88-0.75-55.33l1.9-1.18l-1.91-2.27c0.75-7.93,0.91-15.85,0.49-23.76c-1.95,0.05-3.12-0.64-3.52-2.09
	c-1.17-2.56,3.97-0.53,5.58-1.88l-0.1-46.03c-1.8-0.68-1.58-1.48,0.36-1.61c0.4-2.58,13.39-3.84,14.5-3.33
	c0.81,0.37,1.24,1.23,1.59,2.01c1.61-0.45,3.37-0.9,5.27-1.34c0.03-0.76,0.22-1.92,0.75-1.98c5.44-0.61,42.98-3.74,44.72-2.33
	c0.61,0.49,0.94,1.22,1.2,1.94l0.2,134.83L538.37,1059.83z"/>
<path class="st13" d="M470.39,1006.07l0.78,57.37c-0.51,2.87-5.89,3.32-6.46,0.33c-11.36-11.99-24.1-7.92-36.76-0.99l-10.4,0.01
	c-8.16-10.62-24.63-8-35.52-1.12c-1.37,0.87-3.62,1.32-4.97,1.27c-2.53-0.1-5.06-0.47-7.6-0.29c-1.53-5.33-14.71-7.95-19.27-7.99
	c-9.55-0.09-18.67,3.45-27.56,5.24l-0.06-53.56l0.67-1.92c48.65-0.08,97.31-0.17,145.98-0.25L470.39,1006.07z"/>
<path class="st12" d="M143.36,1422.9l1.93,2.6c-0.57,9.04-0.38,18.05,0.57,27.02l6.21-31.48l2.38-3.12
	c-0.07-1.94,1.47-3.56,1.73-5.39c0.09-1.29,0.67-1.28,0.96-0.04c2.23,0.36,2.89,2.31,1.99,5.85l-1.25,6.2
	c1.33-6.78,3.98-12.77,7.95-17.97c0.21-2.58,2.95-4.08,4.31-5.87l0.65,2.33c-10.46,36.04-15.69,54.06-15.69,54.06
	c11.01-18.29,21.53-36.68,30.24-55.39c-4.4-3.68-3.96-9.81,2.38-10.64c0.55-4.04,3.34-7.38,6.08-9.72
	c-0.22-0.93,7.07-8.77,8.74-12.92c1.09-2.71,2.32-3.68,4.49-5.5c1.06-0.89-1.03-5.16,2.38-4.75c0.94,0.11,1.99,2.06,2.88,1.63
	c0.69-0.33,2-0.85,2.64-1.44c0.13,2.03,2.57,2.4,3.39,5.09c-3.51,1.65-4.96,3.87-4.37,7.47c0.27,1.65-1.86,2.1-2.6,3
	c-1.84,2.24-2.17,5.19-4.39,7.18c-0.84,0.76-2.53,1.24-2.47,1.9l0.33,3.71c0.18,2.01-4.33,4.24-4.98,7
	c-1.26,0.11-4.55-0.73-4.27,1.37c0.2,1.51,3.76,3.33,1.73,5.23c-1.51,1.42-4.22,1.23-6.39,2.26c-4.83,7.28-8.84,14.89-12.59,22.84
	c-4.71,9.98-18.22,29-23.22,41.64c3.72-2.62,7.05-5.03,9.75-8.19c12.99-15.22,25.08-30.82,36.36-47.63c0.42-2-3.64-6.21-0.62-7.85
	c1.11-0.6,2.9-0.94,3.74-1.49c1.61-1.07,0.44-3.56,1.52-4.96l7.69-10.01c-0.38,0.5,9.37-15.42,10.87-15.88
	c1.77,0.92,3.83,1.38,5.62,1.43c1.4,0.05,0.96,2.74,1.24,3.7c0.43,1.48-2.79,1.83-3.21,2.98c-1.11,3.05-0.55,5.86-3.87,7.67
	c-2.32,1.27-2.64,4.02-1.93,6.52l-4.59,2.47c0.35,4.6-2.24,7.61-6.62,8.56l1.14,5.97c-5.84,0.09-9.13,2.72-12.18,7.11
	c-13.53,19.43-28.74,39.5-45.23,54.4c6.98-1.66,11.47-5.79,16.52-9.25c11.62-7.96,21.9-16.82,31.2-27.31
	c2.14-2.41,4.7-3.31,3.49-7.88c-0.22-0.84,0.93-2.49,1.4-3.26c0.72-1.19,2.27-0.99,4.15-0.34c1.65-1.78,1.74-4.08,3.02-6.4
	c3.78-0.24,6.22-2.62,7.15-6.34c1.74-0.89,3.38-0.86,5.79-0.9c1.09-4.43,4.69-5.95,8.44-7.92c1.43-0.75,1.72-3.23,2.89-3.45
	c1.54-0.29,8,0.47,8.51,2.45c0.26,1.03-0.48,3.57-1.89,3.69c-3.41,0.28-2.95,4.11-4.55,5.11c-3.18,1.99-4.11,4.92-6.88,6.81
	l-5.74,3.93c-2.37,1.62-5.57,4.29-8.32,5.76c-1.01,0.54-2.54-0.36-2.99,0.55c-0.63,1.28,1.46,3.61,0.67,5.39
	c-1.09,2.43-8.35,1.1-11.21,1.71c-9.12,11.55-19.77,20.48-31.52,29.02c-4.82,3.5-22.55,15.63-27.76,12.84
	c-7.76-4.16-12.47-11.15-16.96-18.33c-2.62-4.19-3.7-8.98-7.19-11.97c0.76-2.18-0.9-3.79-1.73-5.92
	c-3.92-10.12-7.41-20.38-9.38-31.13c-0.63-3.41-1.24-5.96-5.33-6.44c-6.6-0.78,0.59-7.46-3.32-9.69c-4.84-2.75,1.14-3.11-3.93-17.23
	c-0.94-2.61-3.4-4.23-2.96-7.42c0.27-1.95-2.23-2.93-2.64-4.26c-0.58-2.17,1.34-4.39,1.49-7.11c2.59,0.81,4.78,0.85,7.45,0.03
	c1.26,1.95,1.13,3.84,1.33,6.2c4.31,0.79,2.32,4.71,3.26,6.69c0.97,2.04,5.07,2.21,4.11,6.29c-1.42,5.99,1.85,8.99,0.15,17.03
	c1.65,0.3,3.14-0.57,4.15-0.49c2.45,3.36-2.3,6.42-2.07,9.41c0.67,8.62,6.87,34.1,12.21,40.15l1.93,0.71
	c3.97,9.92,8.34,18.57,2.16,0.34l0.83-3.02c0.33-2.86-0.04-6.27-0.94-9.56c-3.8-13.91-2.61-34-5.03-42.37
	c-0.56-1.93-6.86-3.28-3.69-6.59c0.66-0.68,2.36-1.41,2.55-2.5c0.4-2.37-6.09-5.1-2.49-7.08c5.43-2.99-3.56-5.93-0.12-13.61
	c0.92-2.06-1.55-4.25-1.54-5.96l0.04-9.17c0.01-3.74,7.54-2.52,10.21-2.47c0.11,2.51-0.41,3.45-1.05,5.25
	c3.46,1.98,2.51,4.66,2.18,7.76c-0.35,3.27,1.24,6.56-1.35,9.82c1.38,0.9,2.13,0.72,3.91,1.28c-1.63,2.41,0.04,5.14-0.55,7.69
	c-0.31,1.35-1.96,2.93-2.28,3.97c-0.76,2.45,1.79,2.89,2.63,4.35c1.83,3.19-3.41,5.48-4.35,7.56c-1.35,15.54,1.27,30.68,4.41,45.08
	l2.46,2.36l4.13,18.66l-1.52-22.57l1.86-1.38c-0.38-8.43,1.21-16.97,0.73-25.88c-0.3-5.65,0.94-11.68,0.23-17.01
	c-1.97-1.05-3.9-2.65-4.87-4.09c-1.25-1.87,2.83-4.32,2.58-5.94c-0.77-5.1,1.11-11.17,0.78-15.76c-0.31-4.24-0.23-6.33,1.17-10.48
	c0.04-0.13-0.61-22.16,7.93-18.58c4.27,10.93,2.01,3.22,1.42,13.46l-0.54,9.43c-0.09,1.6-1.22,2.31-2.73,3.28
	c1.01,1.07,2.39,0.44,4.08,1.47c-2.1,3.7-1.89,7.31-2.75,11.13c-0.47,2.1-2.48,4.36-0.55,6.36c0.79,0.81,1.99,1.34,2,2.29
	c0.05,5.72-5.14,0.41-6.01,15.74C143.09,1405.2,143.22,1414.06,143.36,1422.9z"/>
<path class="st11" d="M471.17,1063.44c2.25-0.03,4.51,0.46,6.77,0.25c-17.44,24.94-39.35,46.68-59.5,68.97l-13.71,15.17
	c-8.94,9.89-17.93,18.91-27.69,27.98c-19.35,17.98-28.56,31.8-56.23,35.74c-8.74,1.24-17.56,2.68-26.9,2.18
	c18.99-14.38,37.59-26.35,53.66-42.37c11.91-11.86,23.17-22.49,36.64-32.57c16.54-12.38,32.87-24.23,47.5-38.82l30.28-30.19
	c1.7-1.7,2.5-4.16,2.71-6.02C466.87,1063.96,469.03,1063.47,471.17,1063.44z"/>
<path class="st12" d="M160.23,1402.6c-0.95,0.41-1.38,0.1-1.26-0.93c2.4-3.65-3.88-6.27-4.32-8.23c-0.58-2.58,4.28-1.64,4.93-3.45
	c-4.51-7.49,0.92-3.91-0.11-16.07c-0.27-3.23,2.21-4.26,3.09-6.3c1.82-4.21,0.81-9.28,2.22-13.41c2.95-8.62-0.22-4.48,2.19-8.85
	c-0.38,0.68,10.38-2.87,9.74,1.33c-0.33,2.19-0.88,4.32-0.87,6.9c0.01,2.26-4.31,5.78-2.04,8.68c0.48,0.62,1.9,0.26,1.75,1.44
	c-0.13,1-0.79,1.02-1.77,1.55c-2.32,1.24-0.66,4.32-1.77,6.19c-1.18,2-4.3,5.48-1.56,7.49c1.87,0.62,3.78-3.67,3.68-5.83
	c-0.15-3.54,3.93-6.23,3.95-9.17c0.04-4.24,2.24-5.76,3.63-8.86c1.51-3.36,1.18-6.67,4.11-9.75c1.51-1.58,0-5,4.07-5.62
	c1.17-0.18,2.29-2.38,4.06-1.18c4.02,2.74-1.2,11.61-1.48,12.78c-0.95,4.03-1.82,8.25-4.93,11.12c-0.39,0.47,0.91,1.98,1.12,2.53
	c-0.03-0.07-5.14,9.79-5.66,13.03c-0.51,3.13,0.66,5.18-2.94,7.21c-3.75,2.12-8.03,2.09-11.21-2.01c-2.62,2.12-4.34,4.53-5.52,7.36
	c1.97,0.35,3.74,0.4,3.93,1.87c0.23,1.71-0.28,3.82-2.32,4.35c-1.52,0.39-2.98,0.51-3.69,1.47
	C160.32,1399.52,160.5,1401.19,160.23,1402.6z"/>
<path class="st8" d="M193.78,1381.33c1.14,4.79-3.31,2.04-4.45,11.79c-2.14,0.06-4.31,0.08-4.67,1.45
	c-1.76,6.85,5.48,3.41,1.2,11.36l-14.12,26.26c-6.14,11.41-12.14,22.42-20.11,33.16c3.59-23.63,12.44-43.76,18.49-64.65
	c4.48-5.9,9.59-10.45,16.31-14.28C189.06,1384.91,190.26,1380.35,193.78,1381.33z"/>
<path class="st8" d="M154.45,1417.91c0.12,3.23-8.92,40.06-8.03,48.07c-0.44-3.75-1.15-6.85-1.91-10.27
	c-2.44-11.06-0.99-22.04-1.16-32.81C148.5,1423.1,150.24,1419.05,154.45,1417.91z"/>
<path class="st8" d="M165.82,1406.57c-0.31,3.82-2.66,7.06-3.85,11.03l-11.74,38.94c-1.16-5.69,0.97-10.59,2.08-15.84
	c0.72-9.23,6.46-21.46,4.83-28.21c-0.42-1.83,0.48-3.09,2.14-1.63C161.98,1410.17,163,1407.01,165.82,1406.57z"/>
<path class="st8" d="M140.15,1430.43l0.52,11.42l2.33,27.21c-5.63-11.62-7.18-23.81-9.78-35.69
	C135.5,1432.24,137.5,1430.33,140.15,1430.43z"/>
<path class="st8" d="M125.78,1441.88c1.84-0.02,3.35-1.11,4.91-1.97c3.25,7.3,4.49,15.45,6.96,24.01
	C135.19,1463.69,124.71,1442.96,125.78,1441.88z"/>
<path class="st3" d="M158.97,1401.66c0.38,0.36,0.8,0.68,1.26,0.93c-0.52,2.73-1.06,5.47-0.96,8.26c-0.81,0.21-1.47,1.16-2.14,1.63
	c-0.51,0.36-0.63,0.86-0.96,0.04C156.7,1408.71,156.87,1404.86,158.97,1401.66z"/>
<path class="st6" d="M1015.72,720.05c-13.35,1.71-27.13,0.83-40.71,0.67c-0.51-0.55,0.29-1.69,1.17-1.69l38.33,0.04
	C1015.24,719.17,1016.04,719.5,1015.72,720.05z"/>
<path class="st6" d="M862.19,779.82c1.44,2.64-6.99,1.38-7.17,1.38C853.84,778.4,861.31,779.76,862.19,779.82z"/>
<path class="st13" d="M630.54,915.91c1.48,0.91,2.11,2.44,1.89,4.58l45.74,1.14c3.51-0.27,5.95,0.76,7.32,3.07
	c-0.09,1.2,0.05,2.4,0.05,3.6l1.92,0.88c-0.02,15.94-0.03,31.89-0.05,47.84l-1.92,1.13c0.75,0.2,1.87,0.52,1.92,1.1
	c0.51,6.02,0.53,16.43,0.06,22.45l-1.92,1.39l-0.23,62.32l-17.04,0.26c-3.9-6.24-10.85-10.7-18.1-11.01
	c-7.8-0.33-15.15,4.31-18.6,11.06l-15.37,0.84c-1.07-7.17-9.38-11.53-15.82-11.59c-6.36-0.06-13.94,4.45-15.83,11.46l-16.39,0.1
	c-0.49-6.02-7.07-10.42-11.57-11.81c-7.34-2.27-13.43,0.68-18.24,5.11c-1.06-0.97-0.91-2.8-0.91-4.88l-0.05-132.24l-44.76,3.04
	c-1.76,0.47-3.52,0.92-5.27,1.34c-5.44-0.51-10.67,1.32-16.09,1.33c-1.01,1.15-2.25,0.62-1.88-0.98l-5.37-6.34
	c18.01-2.63,35.55-4.56,53.07-4.61c0.32-1.05,1.57-1.32,2.38-0.61c3.25-0.48,6.54-0.63,10.44-0.6L630.54,915.91z"/>
<path class="st7" d="M143.78,1549.61c-2,2.52-1.2,4.39-0.3,6.9c2.55,7.04-3.3,16.02-0.75,17.52c0.5,0.29,2.65-0.27,3.04,0.22
	c5.61,7.15-5.6,11.74-4.44,13.94c0.29,0.56,1.54,0.56,2.23,0.97c2.7,1.62,2.57,4.6,2.34,7.63c-0.15,1.97-2.28,3.13-4.54,5.65
	c2.14,1.46,4.55,0.48,5.67,2.36c1.69,2.83,1.08,5.9-0.55,8.79c-1.09,1.95-4.52,2.96-7.09,4.39l0.85,26.41
	c0.04,1.39-0.39,2.14-1.4,1.85c-0.33-0.09-1.19-0.31-1.24-1.08l-1.72-26.45c-4.2-1.47-8.51-2.75-9.83-6.95
	c-0.65-2.08-0.55-4.38,0.27-6.27c0.55-1.26,3.59-1.64,4.5-2.75c1.24-3.16-2.78-5.59-4.26-8.02c-2.09-3.43,0.7-7.72,4.39-9.78
	c-9.71-8.23,0.39-13.62-5.27-17.13c-1.12-6.39,0.81-11.63,1.69-17.41c0.4-2.62-1.89-5.76-0.28-8.36c3.1-5,13.7-3.2,14.43-2.16
	C143.17,1542.21,140.69,1549.21,143.78,1549.61z"/>
<path class="st7" d="M103.71,1586.95c-0.09,1.97-2.94,1.5-4.05,2.69c-1.66,1.78-0.2,4.98-1.36,7.34
	c-10.75,0.52-4.31,6.79-11.78,6.33c-0.87-0.08-1.92-0.46-1.98-1.22c0.41-6.08,0.17-11.08-2.67-16.43c-0.16-1.58-1.6-2.5-2.3-4.37
	c3.41-2.2,4.46-6.24,2.02-8.95c0.74-1.95,2.01-4.3,5.04-4.42C101.3,1567.36,99.39,1578.72,103.71,1586.95z"/>
<path class="st14" d="M68.94,1123.08c0.09-0.77,0.02-1.62-0.65-2.1c17.67-6.06,35.41-12.95,54.5-16.49
	C104.39,1111.83,86.69,1117.38,68.94,1123.08z"/>
<path class="st12" d="M930.85,1608.86l-3.7,0.17c-1.4-1.22-3.51-0.76-5.59-1.55c-4.47-1.69-7.23-7.58-6.13-11.8
	c1.59-0.54,3.99-0.45,4.18-1.76c0.87-5.97-4.77-9.99-4.63-13.78c0.13-3.42,1.08-6.82,0.33-9.94c-0.19-0.78,2.19-2.01,1.53-3.02
	c-0.51-0.77-1.12-1.81-2.19-2.28c-3.28-1.45-0.82-4.33-1.11-6.69c-0.31-2.53-3.26-5.39-0.66-7.87c5.74-5.48-4.47-10.63-0.2-18.19
	c0.63-1.12,2.15-1.34,2.06-2.38c-0.28-3.56-4.22-7.54-2.08-9.12c2.25-1.66,2.64-3.83,3.91-5.74c1.95-2.93,5.65-1.14,7.57-0.16
	c2.48,1.26,1.46,5.08,2.65,7.21c1.45,2.59,3.18,4.33,1.48,7.55c-2.97,5.63,4.29,7.09,1.18,15.42c-3.12,8.37,5.22,5.17-0.58,16.14
	c1.45,1.2,2.98,0.43,5.4,1.22c-2.06,2.96-0.36,6.34-0.96,9.14c-0.73,3.4-1.76,5.45,0.37,8.96l-2.06,8.77
	c3.48,0.38,5.8,2.01,6.46,5.38C939.36,1601.04,929.95,1602.92,930.85,1608.86z"/>
<path class="st12" d="M928.81,1617.87c-1.34,0.51-1.55-1.1-1.62-1.83c-0.07-0.77,0.19-1.86,0.2-2.48c1.02-0.64,1.53,0.4,1.68,0.94
	C929.35,1615.54,928.88,1617.09,928.81,1617.87z"/>
<path class="st7" d="M110.95,1647.72c-1.59,1.39,4.79,19.74-1.18,16.6c-0.39-5.74-0.77-11.39-1.94-17.24
	c-6.17-0.33-11.49-3.23-12.84-9.26c-1.24-5.55,3.67-3.86,3.93-6.26c0.27-2.53-3.12-3.05-3.08-4.83c0.06-3.11,5.52-2.39,4.48-9.89
	c8.15-5.59,6.6-11.6,8.63-11.53c4.67,0.16-2.85,16.75,4.1,11.24c1.23,4.21-2.91,9-0.98,12.47c0.68,1.23,3.09,1.23,4.7,1.62
	c2.58,0.61,2.33,3.86,1.95,6C117.85,1641.53,113.01,1643.9,110.95,1647.72z"/>
<path class="st8" d="M86.53,1603.31c-1.97,4.71-7.07,7.45-10.82,11.35c-5.6,5.81-11.8,10.8-17.9,15.36
	c1.15-6.09,4.75-9.69,9.48-14.43c2.35-2.35,2.02-7.29,6.06-9.29c2.52-1.24-3.5-4.33-2.98-5.41c0.88-1.79,3.69-0.39,6.8-4.49
	c1.62-2.14-0.62-4.45,0-6.62c0.47-1.67,4.39-2.02,4.71-4.12C88.31,1587.87,86.07,1597.53,86.53,1603.31z"/>
<path class="st14" d="M890.47,927.49c-0.33,1.22-0.73,3.65-0.8,4.91l-70.65,0.07l-0.2,45.28l-0.66,1.92
	c-43.82,0.13-87.65,0.26-131.49,0.39l-1.18-1.92l0.05-49.85l183.51-0.18C876.7,926.77,883.46,927.71,890.47,927.49z"/>
<path class="st14" d="M635.26,869.8c-1.49-0.32-2.68-1.3-4.15-2.62l-56.51-50.77l-58.47,54.86c-1.49,1.4-2.49,2.7-4.31,2.47
	c-1.3-6.4,1.67-11.85-0.47-14.69c-4.67-0.82-9.11-2.21-13.3-4.16l-0.07-2.35l-0.09-48.82l56.54-0.67l80.95-0.34L635.26,869.8z"/>
<path class="st14" d="M685.49,924.7c-9.86-2.32-20.26-1.11-30.92-1.65c-8.06-0.41-15.66-0.93-23.61-0.7
	c-0.86-2.43-0.64-4.44-0.42-6.44c19.25,0.12,39.61,0,59.62,3.54C689.49,921.27,687.68,924.5,685.49,924.7z"/>
<path class="st2" d="M471.29,928.42c-0.03,0.54-0.36,1.07-0.36,1.61c-4.14-0.26-8.27-0.11-12.39-0.11
	c-0.94-3.89,9.21,0.91,10.88-2.47C470.13,927.55,470.77,927.92,471.29,928.42z"/>
<path class="st12" d="M342.4,977.92c3.52-1.08,8.61-1.32,12.05,0h59.94c0.42-1.26,2.84-1.15,3.41,0l47.65,0.03
	c1.55,0,3.88-0.3,5.18,0.47c1.59,9.39-0.36,18.77-0.24,27.65l-147.83,0.25c-0.79-0.05-1.68-0.08-2.25-0.44
	c-2-1.26,5.29-25.96,6.81-27.91C332.14,977.92,337.38,977.21,342.4,977.92z"/>
<path class="st14" d="M354.45,977.92c-4.07,0-7.96,0.58-12.05,0C339.28,975.57,357.56,975.57,354.45,977.92z"/>
<path class="st12" d="M497.99,852.54c5.36,3.89,10.45,2.63,13.37,6.51l-30.93,0.83C486.04,855.45,492.44,855.28,497.99,852.54z"/>
<path class="st12" d="M818.82,977.75c0.71,0,2.32,0.64,2.71,1.66c3.18,8.42,8.66,15.48,10.72,23.75l-146.7-0.07l-0.06-24.94
	L818.82,977.75z"/>
<polygon class="st12" points="578.83,662.17 537.58,661.81 574.77,606.08 612.31,660.9 "/>
<path class="st6" d="M586.24,721.43c-9.04,0.96-16.68,0.33-25.69,0.38c0.89-12.89-1.12-25.56,0.76-38.01
	c1.05-6.97,10.84-7.83,15.94-6.64c5.87,1.37,8.35,4.55,8.26,10.25C585.34,698.56,585.38,709.41,586.24,721.43z"/>
<path class="st8" d="M513.48,1029.44c-5.62,1.51-11.59,0.46-17.47,0.53c-1.24-4.5,0.87-8.73,0.1-13.37
	c-1.08-6.54-0.5-12.56-0.18-19.14c0.26-5.41,1.64-11.16,7.51-13.13c4.41-1.48,8.73,2.29,9.56,6.93c1.85,10.29,1.45,20.45,0.87,31
	C513.77,1024.06,515.42,1028.17,513.48,1029.44z"/>
<path class="st15" d="M492.65,925.75c-0.08,2.62-3.48,1.51-5.27,1.34C487.39,924.22,490.85,925.87,492.65,925.75z"/>
<path class="st8" d="M594.15,1029.93l-26.75,0.24c0.24-12.05-0.59-23.41,0.57-34.98c0.53-5.24,2.78-9.62,7.07-11.56
	c4.37-1.99,9.48-1.15,13.31,2.19c3.88,3.38,5.95,8.24,5.85,13.53L594.15,1029.93z"/>
<path class="st8" d="M662.37,1029.9c-5.58,0.46-10.13,0.32-15.51-0.04l0-33.42c0-3.87,1.49-7.64,4.13-10.21
	c2.01-1.95,4.84-2.51,7.11-1.48c2.02,0.92,4.11,3.15,4.12,6.06L662.37,1029.9z"/>
<g>
</g>
<g>
</g>
<g>
</g>
<g>
</g>
<g>
</g>
<g>
</g>
<g>
</g>
<g>
</g>
<g>
</g>
<g>
</g>
<g>
</g>
<g>
</g>
<g>
</g>
<g>
</g>
<g>
</g>
</svg>
