<?xml version='1.0' encoding='UTF-8'?>
<svg xmlns="http://www.w3.org/2000/svg" id="Layer_1" viewBox="0 0 1200 1543" xml:space="preserve" width="1200" height="1800">
<style type="text/css">
      .cls-1 {
        fill: #172935;
      }

      .cls-2 {
        fill: #273843;
      }

      .cls-3 {
        fill: #344a57;
      }

      .cls-4 {
        fill: #405643;
      }

      .cls-5 {
        fill: #265e6f;
      }

      .cls-6 {
        fill: #4b5a62;
      }

      .cls-7 {
        fill: #3a7887;
      }

      .cls-8 {
        fill: #677578;
      }

      .cls-9 {
        fill: #777858;
      }

      .cls-10 {
        fill: #518f9a;
      }

      .cls-11 {
        fill: #888371;
      }

      .cls-12 {
        fill: #aa8d68;
      }

      .cls-13 {
        fill: #d79431;
      }

      .cls-14 {
        fill: #78adaf;
      }

      .cls-15 {
        fill: #9ec2ba;
      }

      .cls-16 {
        fill: #f6f0df;
      }

    </style>
<path class="cls-16" d="M0,13.39V0h1200v146.16l-0.87,2.82c-88.63,12.79-177.82,22.68-267.55,29.66  c-11.06,17.06-23.68,33.56-37.85,49.48l-3.39,1.11l-4.99,2.67c-114.1-0.04-228.15-0.17-342.15-0.39l-1.66-2.58  c-4.26,0.49-5.26-4.29-1.01-5.23c-5.43-5.99,12.84-17.17,16.73-10.55c1.79-1.23,4.31-1.21,7.55,0.05c3.21-0.9,5.57-0.53,7.06,1.11  c14.87-3.27,29.92-5.93,45.16-7.97c-5.53-26.83-29.78-47.45-56.05-54.32l-2.69-3.41c-1.24,0.26-2.47,0.18-3.44-0.62  c-13.93-11.45-22.35-14.52-40.93-12.59c-46.23,4.81-50.32,53.32-49.72,90.93l-2.55,2.51l-1.22,2.68  c-18.27,0.08-36.55,0.16-54.85,0.25l-2.47-2.67l-3.96-2.24l-14.53-27.56c-14.19-7.63-29.28-13.07-45.25-16.33l-2.77-3.56  c-3.23-6.59-1.52-16.02,1.98-22.45c-1.84,1.11-3.73,1.75-5.66,1.91l-81.8-11.42c-7.47,8.31-16.7,16.35-27.69,24.12l-3.74-0.13  c-0.77,6.15-2.94,8.75-6.51,7.82c-0.01,3.87-3.05,3.7-4.01,0.09c-2.87,1.54-5.84,0.15-8.91-4.18c-8.04,1.63-16.67,2.06-24.86,1.05  c-6.1-0.76-17.84-2.23-18.68-8.86l2.8-2.97c11.93-2.77,28.77-0.92,40.73,1.49c4.59-11.05,12.54-20.19,23.87-27.41  c8.61-8.94,9.77-16.62,9.24-29.04c7.06-4.86,14.2-9.56,21.4-14.08c-1.24-3.36-2.25-6.52,2.15-6.83c-3.55-3.77,1.81-9.84,5.82-6.56  c3.22,2.01,6.65,3.16,10.29,3.47l1.17,2.01c3.85-0.33,7.53-0.02,11.07,0.92c-1.89-1.19-2.8-3.33-2.73-6.39  c-3.32-6.15-7.26-11.96-11.83-17.45c-2.66,0.72-4.73-3.16-5.64-5.59c-14.41-9-33.99-2.82-34.95,15.3  c-2.26,15.45-3.6,20.03-17.38,29.5c-5.64,3.87-13.45,8.81-19.55,11.67l-4.52-0.38l-2.31-2.16c0.78-9.56,0.77-18.99-0.02-28.28  l-5.03,1.04c-19-4.83-37.6-10.74-55.81-17.75c-6.86,6.28-14.22,11.91-22.08,16.88l-3-0.36c-0.06,4.61-3.08,5.26-5,1.31  c-3.87,1.23-7.85-3.33-4.27-6.23c-1.03-3.42,0.62-6.76,4.95-10.03c11.45-9.57,19.13-17.1,18.01-33.25  c3.71-1.75,7.58-3.13,11.63-4.15l4.17-3.84c2.28-4.19,11.92-3,13.46,1.25c0.45-2.26,1.99-2.87,4.64-1.82  c-2.08-5.1-5.47-9.9-10.18-14.41c0.73,9.9-0.98,12.69-5.12,8.38c-3.63,3.32-9.45-1.05-9.53-5.53c-3.95-4.65,5.92-7.34,9.35-5.38  c0.04-10.13-20.99-6.53-21.37,5.71c0.73,6.11-2.83,12.45-6.95,16.88c-4.46,4.79-15.01,12.74-21.03,9.41l-5.36-0.35  C55.52,28.4,29.68,22.03,4.14,16.94L0,13.39z" />
<path class="cls-10" d="M1200,267.9v371.14c-4.01,1.74-6.01,2.61-6.01,2.61l-52.99-4.19c-17.5-1.1-35.67-0.3-51.72,6.99  c22.34,3.21,44.72,6.46,67.15,9.77c10.19,5.01,3.46,7.82-6.3,9.95c-44.99,4.84-90,7.17-135.03,6.99  c-5.53,0.22-11.05,0.84-16.38,2.35c15.7,2.38,31.37,4.96,47.02,7.73c7.56,2.02,9.98,5.19,7.26,9.52l-38.41,10.43  c32.18,3.45,64.3,7.37,96.36,11.74c12.55,4.13,15.22,10.39,1.22,15.59l-27.48,4.7c22.95,3.33,45.99,5.91,69.13,7.75  c14.12,1.42,28.05,3.9,41.77,7.56c0.84,0.23,1.58,0.9,2.36,1.63c0.78,0.74,1.44,1.61,2.06,2.52v1.73l-1.77,4.06  c-16.44,4.04-33.38,6.51-50.84,7.39c-16.12,2.38-17.83,4.97-5.13,7.76c8.99,1.77,17.9,3.94,26.71,6.5c1.71,0.43,3.86,3.34,3.79,4.81  c-0.2,4.16-27.09,4.75-32.38,4.81c-47.54-3.11-94.6-7.31-141.19-12.62c-3.54-4.93,0.3-7.28,11.52-7.04  c17.48,0.83,34.23-1.12,50.25-5.85c2.59-6.66-129.68-7.82-142.38-7.79c-6.08-0.15-12.08-1.27-18.02-2.54l-1.97-4.38l9.84-40.73  c0.77-8.56,2.48-16.6,5.12-24.13c-2.71,2.19-3.05,1.79-2.63-1.67c-17.63-4.37-35.13-9.24-52.5-14.6l-11.97-2.21  c-6.28,0.29-11.64-0.86-16.09-3.43l-20.26-1.72c-4.34-1.44-5.69-3.49-4.04-6.16c-5.05-5.16,3.75-9.04,9.08-10.29  c23.79,2.95,47.37,2.49,70.76-1.38l10.13,0.08l3.08-1.81c11.45,5.25,23.15,7.83,35.11,7.76c-4.22-6.3-9.86-11.94-16.93-16.94  c-4.62-3.11-6.34-6.35-5.18-9.73l0.85-2.8l16.25-1.89l2.45-1.99c-13.89-9.07-28.11-17.61-42.66-25.61  c-7.66-5.35-14.52-12.24-18.85-20.66c-12.72-38.27-36.48-67.33-67.19-92.09c-3.97-2.81-17.2-19.54-16.13-23.42  c0.32-1.17,1.06-2.06,2.03-2.77c6.35-2.45,9.53-3.68,9.53-3.68c57.57-2.8,115.09-3.76,172.57-2.87c14.42-0.02,28.83-0.64,43.09-2.89  c6.23-0.98,12.99-2.36,18.94-4.41c8.51-2.94-83.77-17.03-84.18-16.35c-12.88-1.15-54.05-10.33-25.54-24.28l117.5-15.42  c7.93-2.16,6.61-4.19-3.95-6.09c-39.35-4.43-78.8-8.41-118.36-11.96c-4.17-0.57-19.52-3.04-16.9-9.2c2.19-5.13,20.68-8.35,26.6-8.96  c50.41-1.8,100.49-4.22,150.25-7.24c5.65-2.1,5.83-2.87-0.33-5.2c-22.46-8.48-53.34-11.19-77.49-13.12  c-102.93-8.23-206.66-13.48-309.43-13.57c-7.54,0.05-47.27-2.35-47.66-8.3c-0.43-6.5,35.64-8.32,42.27-8.62l276.87-3.82  c12.56-0.19,25.49-0.39,37.23-5.26c-10.23-3.5-20.8-5.8-31.71-6.9c-8.41-0.7-11.1-3.27-8.08-7.7l238.27-0.28L1200,267.9z" />
<path class="cls-14" d="M1200,146.16V267.9l-240.85,0.29c16.58,5.33,31.72,3.1,46.85,12.08c-13.52,7.21-28.26,7.55-43.32,7.79  l-240.61,3.69c-25.97,0.4-50.91-1.83-77.25,5.88c28.61,7.59,56.47,5.51,85.22,6.19c96.87,2.29,192.63,4.33,288.86,15.12  c23.76,2.66,46.86,4.72,68.6,14.91c-4.84,7.94-12.9,7.98-20.53,8.29l-117.24,4.64c-15.78,0.62-31.54,0.33-46.31,8.27  c1.44,12.66,165.49,10.19,143.98,26.08c-1.59,1.18-3.66,2.62-6.13,2.95L924.84,399.3c-3.63,0.47-8.12,3.22-8.73,5.78  c-4.02,16.99,112.45,16.67,122.47,33.39c-30.48,10.7-61.19,8.66-91.79,9.14c-53.31,0.83-105.82-2.2-157.95,3.74l-3.17-2.04  c-1.2-17.99-0.83-36.11,1.1-54.36l2.71-3.89l-2.73-2.64c-0.9-35.82-30.86-52.23-63.02-39.65l-3.31-1.72  c-1.9,3.45-5.43,5.61-10.58,6.48c-22.33,6.19-46.27,18.26-52.21,43.55c-2.37,1.33-1.97,1.62,1.21,0.85l33.51,8.69l5.17,3.16  c1.38-4.21,9.17-0.53,12.03,1.48c2.71-6.36,13.84,4.88,8.25,8.03l1.06,3.1l-5.75,9.46c-0.8,4.52-2.38,7.82-4.76,9.89  c1.02,3.96-6.19,13.9-10.48,12.33l-3.11,2.83c-8.89,0.84-17.7,0.93-26.44,0.26l-127.41-77.68l0-3.14l0.38-5.6  c17.9-28.77,24.1-63.27,14.46-96.02l1.11-5.52l0.92-2.69l279.59-1.89c6.96-10.25,17.66-15.3,29.64-16.99  c7.44-3.53,13.51-9.04,18.23-16.54l5.1-1.85c14.44-15.87,25.93-34.11,39.37-53.1l160.76-15.05L1200,146.16z" />
<path class="cls-12" d="M603.79,502.32c3.96-2.98,20.21,2.05,13.38,7.69l-3.51,6.43c-24.07,20.1-48.12,40.19-72.17,60.28l-2.95-1.03  c-3.56,2.5-5.34,3.76-5.34,3.76l-60.61,10.12c12.89-3.22,25.36-3.19,37.43,0.09l1.14,3.46l-2.54,4.82  c-13.64,7.75-26.81,16.19-39.5,25.32l-5.27,0.89c-0.03,3.71-2.3,5.73-5.53,3.62l-2.53,3.4c-22.26,14.36-44.72,28.36-67.39,42.01  l-4.23,0.65c-6.35,1.69-9.53,2.54-9.53,2.54c-45.81-2.85-91.43-3.99-136.85-3.41c26.58,4.96,53.24,9.49,79.98,13.58  c5.47,0.32,9.71,2.27,12.72,5.87l0.24,2.94l-100.22,56.44l-53.77,22.62l-2.51-1.85l-0.62,2.7c-41.67,4.86-83.44,9.67-125.31,14.43  l90.15,26.89l0.78,3.03l-1.76,4.58c-25.71,18.59-51.42,37.17-77.13,55.76l-2.87-1.23c-0.66,3.71-2.75,6.26-6.61,5.15l-1.63,3.65  c-8.52,4.68-16.48,10.21-23.9,16.57l-4.05-0.27l-0.25,3.05c-1.72,1.12-17.22,8.22-18.22,8.21c-1.08-0.01-2-0.89-2.79-1.68V751.34  c2.31-1.57,5.42-1.78,9.32-0.65c9.4-2.25,18.59-6.05,27.59-11.42l32.89-5.32c8.93-0.89,16.41-4.02,22.45-9.39  c0.25-3.16,0.61-6.3,1.08-9.41c-4.22-0.59-4.72-6.5-0.73-7.89l1.65-3.05c15.03-0.03,29.9-0.83,44.61-2.39  c-12.68-1.72-22.98-7.86-4.33-13.23c16.59-4.14,32.49-9.89,47.69-17.27c-1.14-3.65,0.22-7.14,4.07-10.47  c15.64-3.44,30.3-9.09,30.57-27.69c9.65-3.25,19.79-4.34,30.42-3.27c-11.57-2.2-23.3-3.36-35.19-3.49  c-3.89-0.95-5.79-1.74-3.65-5.21c5.88-9.53,40.41-15,51.89-16.33c-13.28-0.79-26.61-0.33-39.97,1.37  c-6.86-1.38-5.67-6.01,3.59-13.89l26.87-22.88c-11.99,6.63-23.51,14.04-34.56,22.25c-13.1,7.85-25.85,12.54-18.95-9.66l24.56-24.9  c-8.53,7.97-17.68,7.04-9.17-4.2c0.82-3.49,2.39-7.2,4.73-11.14c-0.38-3.72,0.73-6.13,3.31-7.24  c21.39-10.06,43.51-17.95,66.34-23.64l3.7,1.8c1.3-1.66,2.79-3.21,4.73-4.1c5.95-2.74,42.06-16.42,45.15-16.23  c1.11,0.07,2.2,0.31,3.29,0.61l2.28-3.68c16.47-4.35,33.26-7,50.37-7.94l3.56,2.28c0.84-1.78,2.49-2.57,4.97-2.36  c9.84,3.3,18.94,3.56,27.3,0.77l2.79,1.22c4.83-1.37,7.06,12.34,4.03,14.69l-4.2,2.98c-35.47,0.76-70.23,5.32-104.28,13.69  c-10.61,1.34-49.22,22.31-50.61,31.3c-0.14,0.87,16.01,1.65,17.59,1.42c50.46-2.28,100.62-6.63,150.48-13.07  c11.86,0.46,23.48,2.89,34.85,7.29c8.01,2.26,15.98,3.08,23.2-1.72c-0.83-3.19,0.05-6.83,2.64-10.92c0.31-4.71,1.63-8.29,3.96-10.74  l2.1-2.22c10.81,0.82,17.43-4.7,22.7-13.63c-3.42-2.12-5.38-4.81-5.9-8.09c-2.33,0.71-4.98-0.01-7.96-2.15  c-10.66-1.15-21.56-0.36-32.7,2.36c-7.01,0.28-13.01,0.34-18.02-5.63c-1.93-2.3-3.31-4.52-0.42-6.59c2.51-1.35,5.17-2.62,8.05-2.84  c31.98-2.44,85.76,7.16,116.16,17.95C599.59,498.34,601.74,500.38,603.79,502.32z" />
<path class="cls-2" d="M453.14,1542.86h-98.26l1.15-4.46c3.56-0.34,30.42-30.47,28.44-29.86c-18.54,5.72-45.19,17.55-62.63,26.09  c-5.51,3.73-11.41,6.47-17.69,8.23h-18.02c0.22-1.33,0.48-2.64,0.93-3.89c0.44-1.22,0.9-2.39,1.66-3.29  c23.84-28.09,57.39-54.19,88.07-73.5c4.51-1.87,7.33,0.73,10.32,3.71c7.14,1.55,14.71,2.22,22.72,2.01  c-0.51-2.53,1.02-3.78,4.61-3.75c3.72-23.93-24.59-38.59-42.74-47.66c-0.37,2.39-0.9,3.59-3.73,3.38  c-3.74,12.08-1.48,22.26,4.34,33.35c-0.31,5.04-7.98,12.2-11.73,15.57c-22.83,17.42-44.7,36.45-65.44,56.5  c-7.65,5.69-9.4,0.7-7.99-6.29c-1,8.03-3.44,15.32-7.33,21.87l-4.78,2h-39.43c0.21-1.9,0.47-3.78,0.92-5.62  c0.45-1.82,0.92-3.6,1.74-5.19c8.15-15.79,17.41-31.78,27.08-46.69c0.97-1.5,2.29-2.79,3.65-4.07c1.38-1.3,2.89-2.45,4.44-3.56  c1.58-5.81,9.22-6.07,11.05,0.35c4.26,3.63,15.37,12.44,17.78,4.22l3.35-2.02c9.87,7.98,13.94,6.66,12.2-3.96  c1.67-1.87,3.71-3.33,6.13-4.39c-3.87-3.78-4.87-6.81-4.88-12.15c-6.3-11.49-14.81-21.78-25.54-30.87l1.09-2.88l-0.12-3.12  c5.18-6.72,10.17-13.63,14.96-20.73c7.14,1.83,14.35,2.85,21.65,3.07c4.58-1.06,8.85-2.95,12.83-5.66c0.57-1.59,2.01-2.97,4.32-4.15  c-6.02-16.77-30.25-34.35-48.61-31.24l-7.13-1.51c0.29,3.28-0.84,4.87-3.41,4.77c0.02,13.06,4.86,21.79,14.35,30.72  c-1.58,8.99-5.09,17.45-10.56,25.4l-3.64,1c0.05,4.09-3.43,3.48-6.76,2.48c-3.1-1.59-6.3-2.58-9.6-2.95  c-3.71,4.84-10.52,6.27-10.83-0.7l-1.93-2.49l4.09-8.76c-13.35,12.47-28.25,23.17-44.04,32.36c-3.36,1.67-4.53,0.19-6.09-2.59  l13.85-89.42l2.89-1.17c2.6-0.9,5.01,0.86,7.22,5.3c4.02,3.9,7.34,2.73,9.25-2.25c2.72-2.41,6.07-1.31,10.06,3.3  c3.53,2.37,5.72-0.08,6.57-7.35c1.78-1.62,4-2.47,6.69-2.57c-4.28-4.48-4.35-9.55-0.22-15.21c-0.76-2.38-15.66-15.57-19.53-14.6  c-4.44-9.83-20.08-9.66-29.67-8.95c-4.47,2.58-9.6,3.43-15.4,2.55c-0.23,2.61-0.27,5.39-0.11,8.35c-6.07,1.35-8.01,3.6-5.83,6.73  c4.45,2.55,6.27,5.37,5.46,8.43c-6.03,4.78-2.93,6.96,9.29,6.52c2.17,1.98,3.06,4.65,2.67,8.01c3.73-0.31,6.29,0.61,7.68,2.75  l2.41,1.69l-17.51,95.91c-1.66,4.31-17.07,14.06-21.2,13.88c-3.42-0.16-3.7-1.79-3.35-5.13c2.82-8.63,4.33-17.42,4.51-26.36  c-23.2,33.42-52.33,61.73-82.43,88.87c-7.26,3.88-8.8,4.49-6.91-3.29c16.25-38.29,34.61-75.73,53.54-112.75  c3.56-6.96,8.32-13.75,15.74-16.92c12.93,5.28,20.53,0.62,29.9-7.71c3.53-14.4-20.96-27.63-33.94-27.78  c-4.9-4.85-9.03-5.08-12.4-0.7l-7.37-0.34c0.02,1.92-0.82,3.11-2.53,3.59c-6.37,7.74,8.21,24.48,15.11,29.99  c0.34,3.09-0.11,6.16-1.34,9.19c-22.47,44.84-44.3,91.25-65.75,137.2c-1.91,4.1-4.69,7.7-7.53,11.19H69.54l-2.53-1.52  c3.76-35.68,7.53-71.38,11.29-107.08l2.83-1.32c-4.48-4.21-1.27-8.16,4.86-6.81c6.25,7.31,10.26,8.99,12.03,5.03  c-0.92-10.3,3.1-11.34,12.08-3.1c3.55,2.73,5.1-0.51,4.65-9.72c4.6-3.11,6.26-5.51,4.99-7.2c-4.19-2.24-6.33-5.08-6.44-8.53  c3.01-4.35,1.21-7.35-5.39-9.02c-5.3-1.11-8.65-3.13-10.05-6.07l-1.08-1.36c-3.74,0.28-3.58-1.76-0.11-2.86l5.52-3.96  c14.69-19.07,27.36-39.5,38.03-61.29l3.08-0.07c7.85-5.96,16.69-10.84,26.51-14.64c25.6-15.46,52.06-28.22,79.39-38.28  c14.88-0.41,28.49-3.55,40.81-9.42l3.51,0.64l0.44-3.76c12.91-6.89,27.12-10.98,42.63-12.28c29.67-10.13,58.71-22.14,87.14-36.02  c0,0,2.54-0.09,7.63-0.28l1.89,9.64c1.29,51.63,0.36,103.27-2.78,154.92l13.34,49.57c7.87-10.13,13.23-22.34,16.07-36.64  c6.48-28.69,11.1-57.66,13.88-86.89c9.91-43.91,16.53-88.68,19.86-134.31l2.05-4.64c-3.32-3.68,2.35-8.77,6.19-6.29l1.67,4.64  c-0.83,37.17-4.71,74.19-11.64,111.04c-2.98,2.8-5.28,5.54-5.62,9.67c-2.57,45.9-5.4,93.46-20.17,137.17  c-5.05,8.61-8.69,17.57-10.91,26.9l0.62,102.51L453.14,1542.86z" />
<path class="cls-2" d="M754.04,805.35l2.49,1.35c-21.51,132.01-45.64,264.48-72.39,397.43c11.48-12.71,22.09-26.17,31.85-40.39  l62.08-92.19c0,0,2.36-1.78,7.09-5.34l2.62,1.05c-0.91,16.56-1.83,33.12-2.74,49.68l-2.76,1.42l-1.26,4.57  c-12.69,9.3-24.17,19.83-34.45,31.59l-114.49,155.43l8.4,46.5l2.91,184.71l-2.65,1.68H468.99c-0.13-1.32-0.21-2.64-0.11-3.94  c0.1-1.28,0.21-2.51,0.69-3.56c10.29-22.67,20.94-45.27,33.67-66.71l113.18-172.36l49.7-258.85l0.25-4.07  c-1.5-3.59-1.24-6.45,0.79-8.58c-1.96-0.25-3.47-1.69-4.53-4.33c-36.41-22.8-74.33-42.87-116.5-50.06  c-20.54-6.88-30.81-10.32-30.81-10.32s-0.73-1.25-2.18-3.74c-4.66-0.44-9.37-1.01-13.81-2.56c-17.28-6.04-34.68-12.37-51.81-18.81  c-4.4-1.65-8.38-4.2-12.24-6.84c1.27-0.62,2.54-1.19,3.88-1.58c1.31-0.39,2.58-0.75,3.84-0.71c36.28,1.25,71.51,3.42,106.43,11.38  l13.84,1.32c33.31-20.93,66.54-41.98,99.69-63.16c7.56-5.65,15.59-9.08,24.08-10.29l2.74,0.72l10.29,136.07  c5.11-9.37,9.11-19.45,11.35-29.92c7.21-43.57,12.23-87.84,16.6-131.81l2.98-3.19c-2.15-0.21-2.89-1.04-2.26-2.91  c-32.3-10.53-64.84-19.81-97.63-27.83c-2.56-0.97-11.97-4.86-12.69-6.54c-1.03-2.4-0.23-3.89,1.68-5.53l132.51,8.43L754.04,805.35z" />
<path class="cls-5" d="M1200,1130.09v176.55l-6.37-0.03c-33.93-14.85-71.02-20.02-107.51-24.33c0,0-1.82-1.11-5.45-3.33l-2.49-1.51  c1.57-6.26,0.13-9.64-4.31-10.14c-9.59,0.21-19.09,2.54-28.49,6.99c-4.07-0.61-5.61-1.27-3.65-5.48l14.54-18.71  c3.04-2.63,11.28-19.9,7.89-21.97c-6.02-3.69-30.15,17.75-35,22.08c-2.75,0.69-4.1-0.99-4.7-3.7c1.37-5.01,2.03-9.9,1.98-14.67  c-12.82,6.24-23.83,15.75-33.02,28.53c-4.52,1.06-4.76-1.63-4.75-5.14c3.4-15.11,6.41-30.34,9.02-45.67  c6.99-81.65-47.78-19.54-61.2,15.39c-1.99,1.81-3.71,0.82-5.65-0.84l-7.67-25.65c-26.3-57.87-32.49,0.54-25.85,28.71  c-0.68,4.7-2.11,4.5-5.93,2.79l-10.55-11.47c-20.31-17.53-24.91-11.63-13.81,17.68c1.37,5.84,1.93,10.63-5.48,9.13l-3.06-0.5  c-6.03-15.84-12.07-31.68-18.11-47.53l1.81-2.78l-4.28-4.26c-2.89-9.62-7.1-18.54-12.64-26.76c-11.79-12.89-23.74-25.56-35.84-38.03  c-3.97-1.72-6.35-4.07-7.15-7.07l2.88-52.15c0.33-9.57,8.84-22.2,17.1-27.12c1.72-0.67,3.45-1.29,5.23-1.71  c1.76-0.42,3.5-0.78,5.23-0.78c28.15,0.12,56.36,3.73,84.16,7.81c9.96,3.63,4.99,7.38-1.87,9.62c-49.91,8.29,8.01,20.34,27.72,23.64  c43,4.91,86.22,6.97,129.64,6.2c28.57,0.52,56.98,3.21,84.98,8.98c10.89,2.24,15.49,11.16,4.42,17.04  c-22.58,2.45-45.06,5.08-67.43,7.9c-2.66,5.64,115.18,11.36,123.59,9.84L1200,1130.09z" />
<path class="cls-6" d="M468.99,1542.86h-15.85l-0.8-100.91c-0.11-14.38,10.32-25.04,14.18-39.07c11.32-41.18,14.93-83.76,16.91-126.37  c0.23-5,1.6-9.35,6.17-12.59c5.47-37.84,11.52-76.49,12.26-114.62c0.82-1.65,1.68-3.27,2.71-4.78c1.02-1.49,2.04-2.94,3.33-4.08  c15.36-13.6,32.15-26.5,48.74-38.58c1.38-1,3.01-1.67,4.67-2.33c1.68-0.67,3.43-1.15,5.2-1.58l-0.83-2.71  c32.86-23.89,65.73-47.78,98.6-71.67l2.88,1.22c0.58,5.04,2.88,6.42,1.46,13.79l-49.81,258.8l-107.53,163.51  C494.05,1487.1,482.05,1515.32,468.99,1542.86z" />
<path class="cls-8" d="M154.17,1044.57l7.88,0.05c27.43,9.22,56.74,8,84.83,2.85c4.43,0.94,10.9,5.94,8.78,10.44l-1.26,2.96  c-39.85,8.78-81.58,19.12-119.03,36.3c-4.78,2.19-30.29,15.47-30.51,19.61c-0.05,0.92,15.57,1.59,17.74,1.61  c50.84-1.6,101.48-4.19,151.91-7.77l1.39,2.77c1.1,0.24,2.39,0.61,3,1.62c3.21,5.27-11.39,14.11-15.27,16.44l0.76,43.26  c6.11,3.3,16.15,21.16,17.78,28.22c1.8,7.82,1.41,11.71-2.29,18.33c6.07,1.45,7.03,5.15,2.89,11.12c0,0,4.31,6.93,12.92,20.8  l-2.17,3.11c-14.6,12.43-34.42,7.05-51.89,13.71c-34.17,13.01-64.07,35.63-98.32,47.99l-0.6-4.41c6.4-10.05,12.03-20.5,16.89-31.35  c-18.2,14.83-34.01,32.46-47.88,51.39l-6.15,4.01c-5.39,5.05-19.49,11.79-26.77,13.01l-2.74-1.83c-0.4-1.14-0.75-2.28-0.92-3.45  c-0.17-1.15-0.32-2.25-0.06-3.23c5.84-22.37,11.76-44.26,20.7-65.65c0.39-0.93,1.2-1.69,2.07-2.48c0.88-0.8,1.88-1.46,2.92-2.08  l1.44-2.7c12.24,1.47,23.84,0.59,34.79-2.63c3.24-3.07,3.63-7.18,1.17-12.34c-0.56-10.41-6.58-18.46-18.08-24.15l0.35-3.19  l0.16-3.11c6.17-10.76,6.28-12.61,0.31-5.56c-1.79,3.95-4.11,6.39-6.98,7.33l-3.23,1.49c-9.19-3.93-25.26-1.58-33.92,2.7  c-1.09,0.54-5.34,12.84-6.02,15.02c-0.51,1.65,17.94,16.47,22.2,19.77l0.99,4.24c0.13,1.71,0.21,3.42,0.1,5.12  c-0.1,1.67-0.23,3.31-0.71,4.84c-7.22,22.97-15.07,45.8-23.08,68.5c0,0-1.97,2.66-5.92,7.97l-2.24,3.22  c-10.81,3.91-21.25,8.75-31.32,14.5l-3.79-1.3c-3.94-13.53-3.36-29.89,1.74-43.03l2.34-2.4c3.84,0.26,7.01-1.65,9.5-5.75  c7.71,3.21,12.15,1.74,13.32-4.41c2.89-2.58,6.78-4.15,11.67-4.71c0.4-0.78,3.47-16.54,3.15-17.36  c-7.14-18.44-43.66-29.35-61.32-20.32l-3.47-1.42c-1.2,0-1.93-0.42-1.89-1.46c0.32-6.85,2.51-34.75,4.59-39.51l2.91-1.58  c6.02-5.95,9.02-8.92,9.02-8.92c6.75,1.21,15.75,1.57,21.12-3.46c0.69-0.65,4.74-17.08,4.5-18.14  c-2.54-11.08-30.46-24.61-41.72-18.93L0,1178.57v-40.18c5.29-4.99,7.93-7.49,7.93-7.49c44.27-23.02,84.76-51.6,125.35-80.31  c2.98-2.11,6.39-3.44,9.87-4.49C143.56,1041.75,153.53,1039.28,154.17,1044.57z" />
<path class="cls-7" d="M1126.34,972.43l5.49-2.74c0,0,16.29-1.02,48.86-3.05c6.8-2.11,13.24-2.53,19.31-1.25v164.71  c-0.68,1.55-153.65-2.57-126.82-14.69c1.44-0.65,2.89-1.41,4.74-1.58l59.71-5.49c2.78-0.26,5.58-2.12,6.79-3.58  c1.8-2.18,1.18-5.48-1.25-6.52c-1.69-0.72-3.78-2.19-6.42-2.76c-86.83-18.96-174.59,1.66-253.48-24.58  c-5.34-1.78-13.57-6.24-10.15-11.44c6.21-9.45,18.34-3.87,28.44-11.53c-32.95-5.68-66.44-8.47-99.29-8.81l-1.25-3.11l10.33-20.12  c3.13-6.15,6.71-8.63,10.74-7.44c0.45-0.98,1.11-2.41,1.97-2.39c4.07,0.09,25.41,3.55,28.94,4.84l1.46,2.96  c21.16,4.5,43.72,6.98,65.37,6.55c0.68-0.01-13.48,0.51-11.8-3.38c0.58-2.84,3.24-4.84,7.99-6c4.71-2.97,8.02-7.56,9.95-13.78  c21.49,3.25,43.08,4.59,64.77,4c20.45-0.51,23.73-1.82,9.84-3.93c-5.17-1.46-11.09-3.59-7.35-9.17l-16.18-1.15  c-7.12-0.11-11.68-2.56-13.66-7.35c-5.52,0.02-8.75-1.49-9.68-4.52c0.41-3.47,3.4-5.18,8.97-5.14c20.84,0.98,41.72,3.75,62.65,8.32  c10.86,1.03,22.78,1.56,32.63-3.67c-7.14-1.71-14.43-2.92-21.86-3.62c-2.65,0.07-7.37-3.34-6.1-5.79  c2.56-4.94,29.22-1.61,35.81-0.72C1086.63,969.86,1105.35,972.7,1126.34,972.43z" />
<path class="cls-5" d="M1200,1427.79v115.06H754.92l-2.85-0.58c-1.99-8.87-3.97-17.74-5.93-26.62l2.2-2.44l1.98-2.92l27.23,0.09  c13.06-0.18,14.37-3.41,3.92-9.68c-5.12-10.14,7.07-11.05,14.96-11.05l55.92,5.66c3.98,4.15,80.04,0.06,75.31-2.12  c-11.52-5.28-26.98-7.78-39.58-8.31l-2.91-2.54c-7.21-1.85-14.73-2.81-22.56-2.88l-1.53-3.35c-21.7-4.77-17.58-14.73,1.68-18.43  c30.7-5.9,68.12-1.24,98.44,5.54l1.75,3.3l21.51,3.52l-6.95-3.42c-2.4-0.51-2.3-1.92-2.03-3.84c-3.91,0.05-7.03-2.19-3.43-5.1  c4.05-2.36,9.07-3.49,15.06-3.4c7.1-2.36,14.23-3.64,21.39-3.84c0.04-3.01,2.4-4.45,7.05-4.32c22.23-0.08,44.51,1.03,66.85,3.35  c7.39,0.29,14.79,0.3,22.12-0.56c23.08-2.69,10.47-6.74-2.08-10.57c-5.04-2.08-8.5-5.22-1.68-7.85c31.01,3.14,62.73,4.3,93.12-3.74  L1200,1427.79z" />
<path class="cls-6" d="M842.2,1194.48l-2.32,1.82c-20.65-10.67-41.38-21.14-62.19-31.4c-0.08,3.43-1.31,5.68-3.68,6.76  c1.35,3.77,2.02,5.65,2.02,5.65c-2.75,12.53-4.69,25.15-5.82,37.87l-2.62,3.47c0.84,0.46,1.59,1.04,2.22,1.77  c0.85,1-5.61,24.34-6.29,25.47l-3.06,1.19l1.76,4.14c-0.41,4.15-4.01,20.02-5.84,22.94c-0.82,1.31-2.35,1.93-3.75,2.4l1.3,4.17  l-6.71,26.55l-3.55,2.6c-0.86,5.09-1.78,10.17-2.89,15.2c-1.12,5.03-2.26,10.03-3.79,14.91c-18.42,58.58-38.32,116.78-58.69,174.72  c-1.7,4.83-3.8,9.52-5.92,14.21c-2.12,4.7-4.43,9.32-6.79,13.92h-24.83l-2.93-186.46l-8.87-46.69l114.28-155.18  c10.96-14.88,25.77-24.74,39.05-36.15c16.25,6.24,25.09,24.8,38.47,36.46C833.68,1166.09,836.44,1179.35,842.2,1194.48z" />
<path class="cls-8" d="M338.58,156.98c-4.15,11.39-18.87,18.78-29.84,23.37c-4.16,1.74-8.56,2.85-12.94,3.83  c4.18,1.66,6.9,3.12,4.27,7.95c-0.89,1.64-25.53,20.95-29.01,23.38l-2.91-1.1c-6.82,4.1-14.67,6.13-23.55,6.09  c-47.08,2.96-94.23,4.28-141.45,3.95c40.12,3.35,80.17,5.84,120.14,7.49l1.48,2.76c-2.58,6.3-7.63,11.39-15.15,15.27l-11.67,7.06  l-4.08-0.97l-0.1,2.72C141.92,284.5,88.97,308,35.15,329.28l-4.24-1.14c0.28,2.58-0.75,2.6-1.53,0.02  c-3.35-1.99-0.9-10.88,0.28-14.57c0.73-2.27,4.34-11.43,5.85-12.1l4.5-0.27l0.98-3.03c23.58,3.68,10.93-12.79-2.27-16.99  c-13.73-4.37-31.68,2.39-11.7,13.21l0.99,3c10.08,2.49,2.94,15.12-0.76,21.59l-2.99,1.12c-3.39,6.1-12.34,0.54-13.57-5.51  c-3.56-0.4-9-1.93-10.69-5.23V231.7l3.66-2.69c27.3-6.89,54.34-14.73,81.12-23.53c5.03-2.44,8.9-6.63,11.61-12.57  c-5.03-1.61-3.54-8.5,0.34-11.22c17.85-4.64,35.52-9.17,53.02-13.6c0.04-3.96,5.88-4.36,6.98-0.7c12.34,7.79,29.09,7.5,44.12,5.35  l8.33,6.64c3.71,0.95,3.54,4.93-0.27,5.58l-3.59,2.67c-18.02,0.05-36.55,1.01-53.39,7.97l62.47,1.8c6.75,2.8,14.13,3.25,21.33,3.29  c0.47-3.31,1.8-5.88,4.01-7.71c-1.39-1.75-0.54-3.22,2.56-4.4c-2.94-2.34-2.06-3.59,1.42-2.12c1.39,0.12,0.43-1.04-0.1-1.67  l-2.34,1.7c-9.31,0.26-30.74-1.23-21.57-15.03c9.46-9.48,21.84-14.7,30.22-26.86L338.58,156.98z" />
<path class="cls-7" d="M1200,1306.65v121.15c-32.54,9.96-67.08,8.77-102.3,5.07c8.06,5.78,18.88,4.46,24.8,13  c-22.51,15.93-93.01-3.67-114.02,4.57l-8.79,0.55c-17.99-1.63-42.39-6.61-60.2-10.81c-5.26-1.24-29.37-7.06-29.47-13.57  c-0.03-2.32,0.2-3.77,2.47-4.82c6,0.06,11.92-0.42,17.77-1.44c-4.11-13.59,10.22-14.1,20.32-13.09  c22.71,6.32,45.55,12.56,68.52,18.7c18.7,5.33,35.96,4.35,51.77-2.96c-30.18-2.19-77.62-8.11-99.51-31.08  c-7.66-8.04,0.71-10.13,8.38-10.27c15.73,0.88,30.95-0.01,45.66-2.67c-8.24-8.28-12.7-13.18,4.46-12.9c27.1,2,53.95,6.73,80.57,14.2  c22.86,4.72,46.71,6.22,69.43-0.17c-19.62,0.83-38.83-1.3-57.62-6.39c-12.66-3.32-16.2-6.98-10.62-10.98  c26.05-1.77,102.04-13.91,42.48-42.32c-20.49-8.11-41.26-15.28-62.32-21.51c-2.18-2.96-2.93-4.77,0.91-6.14  c20.57-1.62,24.18-2.29,10.81-2.02c-10.92,2.6-21.92,4.29-32.99,5.08c-0.76-0.42-1.44-0.91-1.87-1.56  c-1.74-2.62,7.84-17.28,12.05-15.35C1119.79,1283.49,1164.39,1289.18,1200,1306.65z" />
<path class="cls-2" d="M847.47,1390.25c6.37-3.37,15.54,14.06,6.25,15.65c0,0-7.52,0.83-22.55,2.48  c-36.05,0.47-72.03,0.48-107.94,0.03c1.55,2.33,2.51,5.62,2.9,9.87c3.07,7.73,4.9,15.3,5.49,22.72l-1.6,1.47l3.23,3.76  c1.96,10.22,4.6,20.28,7.93,30.16l-1.34,4.86c6.82,8.34,10.42,21.37,8.51,31.97l6.58,29.63h-89.33  c27.25-77.37,53.7-154.72,78.08-232.97c5.36,1.57,10.33,4.94,14.91,10.12c10.21,7.7,21.34,13.79,33.41,18.26  c12.03,7.46,21.96,17.51,29.78,30.14c6.67,7.77,13.96,14.93,21.85,21.48C844.65,1388.55,845.93,1389.23,847.47,1390.25z" />
<path class="cls-7" d="M1200,639.04v113.64c-39.1-12.77-87.91-9.38-129.62-19.75l41.22-7.02c2.3-0.39,4.6-1.45,6.01-2.91  c14.01-14.51-104.66-12.58-111.41-22.54l46.98-12.52c-19.07-12.46-41.68-4.14-62.06-14.48c15.34-7.05,32.17-4.42,48.34-5.4  c39.6-2.4,79.35,0.49,120.09-8.49c1.29-8.08-93.71-8.36-71.98-17.32l3.69-1.52C1123.52,627.43,1163.91,639.25,1200,639.04z" />
<path class="cls-2" d="M21.27,903.81l3.33,3.54c7.14,21.62,14.7,43.17,22.68,64.66c7.52,35.45,14.56,70.7,21.13,105.73l51.75-26.35  l12.45-3.33c-1.21-4.93,9.66-6.77,10.55-1.96C99.5,1081.41,49.23,1111.06,0,1138.39v-225L21.27,903.81z" />
<path class="cls-4" d="M230.86,1351.34l-14.29,92.22c18.99-11.08,37.26-23.7,52.19-40.16c0.34,8.02-4.45,13.43-6.67,20  c-1,1.81-2.59,3.41-4.77,4.79c0.54,6.79-0.43,9.15-7.67,9.05c-0.51,2.48-1.69,4.03-3.54,4.66l-1.52,4.07  c-9.69,7.45-19.87,13.92-30.54,19.41l-3.6,19.14l7.66-9.69c13.13-12.4,10.73,0.25,6.47,12.97c-5.19,15.51-12.93,30.11-22.14,43.57  l29.96-7.39l31.25-48.39l3.11,0.12c0.72-3.95,7.06-1.83,6.69,1.99c-13.79,21.03-26.24,42.77-37.84,65.13h-84.26l0.03-4.91  c12.42-15.68,26.92-29.4,43.49-41.15l4.87-24.44c-5.3,3.27-10.89,5.81-16.77,7.63c-6.77,16.24-18.92,29.55-32.31,40.66  c-10.94,9.08-24.24,19.08-38.14,22.22H83.96c19.06-47.03,42.26-92.27,65.84-137.73c3.26-6.29,5.42-11.77,6.71-18.95  c-8.17-1.86-26.41-34.58-13.04-30.88l3.75,1.53c9.49,17.97,29.59,24.99,49.01,21.63l3.47,2.08c-4.1,11.46-17.85,15.73-29.63,10.15  c-6.25,3.87-10.46,9.16-13.62,15.67c-18.78,38.69-38.71,75.74-55.43,117.1c36.29-33.49,63.4-57.61,90.37-98.79  c3.24,12.82-0.84,23.89-4.12,37.34c6.97-2.57,12.77-7.06,19.69-10.97l18.01-98.7C220.87,1346.16,235.43,1344.37,230.86,1351.34z" />
<path class="cls-8" d="M186.34,84.59c0.89,3,1.48,5.31-0.7,7.74c-3.32,3.71-55.95,20.16-61.93,21.44  c-12.13,2.61-24.41,4.38-36.86,3.42c3.77,0.48,15.83,8.11,12.78,12.6c-2.89,4.24-35.98,11.48-42.29,10.71  c-1.5-0.18-2.7-1.45-3.75-2.58c0,1.04-0.25,2.65-0.9,2.68c-15.7,0.82-35.4,0.81-51.1,0.02L0,137.95v-20.09l3.22-2.68  c6.17,1.08,42.62-2.06,43.72-5.51c0.86-2.69-28.14-26-33.35-29.32l-1.37-4.42c2.23-4.35,6.92-6.67,14.07-6.98  c6.35-1.3,17.21-3.51,21.96,0.42c7.52-1.51,16.22-1.33,9.32,7.89l28.96-0.41l4.62,2.64c0.45,2.67,3.3,3.87,4.27,6.23  c3.08,0.69,3.34,2.08,0.7,3.84c-4.55,2.78-10,4.1-16.34,3.95c-18.94,2.99-16.81,3.35,1.65,4.01c10.52,0.38,20.76,0.78,31.18,1.53  c-0.12-1.46,0.53-2.58,1.96-3.35c-10.99,1.14-16.55-2.12-16.7-9.79l2.55-1.5c5.55-8.95,17.53-8.16,23.9-20  C143.88,74.27,165.62,76.82,186.34,84.59z" />
<path class="cls-3" d="M53.58,137.92c0.88,0.52,1.72,1.08,2.44,1.77c0.69,0.66,1.32,1.31,1.54,2.06c3.25,10.91,4.62,22.17,5.94,33.43  c1.05,8.92,1.55,17.95,2.03,26.92l15.78-4.92c5.26-3.17,10.28-4.59,15.06-4.27c0.25,7.93-3.91,12.64-11.51,15.4  C56.84,218.49,28.45,225.07,0,231.7v-93.75L53.58,137.92z" />
<path class="cls-9" d="M34.89,505.22c1.61,4.84,2.41,7.25,2.41,7.25c-2.52,30.51-4.63,61.04-6.32,91.59  c3.1-13.03,6.93-25.95,12.64-38.13c3.91-8.34,14.25-27.9,21.42-32.19c3.49-2.08,3.69-1.99,4.9,2.04  c4.45,14.89-6.05,48.58-11.17,63.77c8.8,11.88,3.41,55.16-11.2,58.42c-2.4,0.53-3.45,0.37-3.66-2.37  c1.92-11.38,2.38-22.25,1.38-32.62c-6.71,15.01-11.88,30.64-15.52,46.89c-3.53,4.84-5.08,5.19-6.74-0.93  c-1.68-19.54-2.85-38.92-3.5-58.16c-4.22-13.24-9.84-26.06-16.86-38.47L0,561.16v-34.82l4.28,1.13  c10.3,14.12,14.16,31.44,17.54,48.28l3.7-58.87c0.26-7.1,2.49-11.12,6.7-12.06C33.19,501.36,34.39,501.7,34.89,505.22z" />
<path class="cls-9" d="M83.18,42.72l0.62,3.66c-7.81,15.11-17.91,24.88-35.54,23c-12.17,1.02-25.03,1.43-36.03,6.56  C9.41,78.09,0.25,74.62,0,70.98V13.39C28.68,18.94,59.35,26.1,83.18,42.72z" />
<path class="cls-4" d="M28.74,1328.61c-1.02,14.36-1.47,28.7-1.74,43.03l2.56,4.02c-4.51,35.34-2.98,68.1,9.2,100.76l6.15-29.7  c0.85-9.13,3.72-16.73,8.61-22.79c1.9-3.43,5.56-1.13,5.57,2.33l2.48,4.25c-2.38,18.59-6.02,36.96-10.91,55.13  c-3.5,18.32-3.85,36.69-1.07,55.11l-2.51,2.12H26.25c-4.58-4.83-6.91-11.46-7.01-19.91c-2.51-46.98-4.26-93.72-5.26-140.22  l2.63-1.71l-2.69-3.57c1.99-15.98,4.02-31.94,6.1-47.91l2.69-3.57c-2.78-0.97-2.55-2.35-0.51-4.24  C27.36,1316.96,33.76,1325.33,28.74,1328.61z" />
<path class="cls-12" d="M28.74,1328.61c-0.09,1.27-1.09-6.94-3.34-5.95c-1.06,0.46-2.7,2.24-2.68,3.31c-2.29,6.2-11.82,1.32-14.86-3.46  c-4.02,1.18-6.64,0.52-7.86-1.97V1275c0.83-3.01,2.14-3.93,3.93-2.76c22.02-10.3,53.91-2.52,67.29,21.16  c0.06,0.1-3.1,18.82-3.4,19.25c-2.43,3.41-7.04,1.59-10.25,3.39c-3.1,1.74-2.11,8-6.47,8.18c-3.75,0.16-7.21,1.12-10.26-1.89  C39.45,1328.85,33.9,1329.51,28.74,1328.61z" />
<path class="cls-2" d="M73.92,1433.1l2.53,1.52c-3.84,35.63-7.68,71.27-11.52,106.93l-2.84,1.31H47.08l-1.96-23  c-2.69-31.62,13.13-62.38,13.96-93.61C67.04,1415.12,73.23,1421.58,73.92,1433.1z" />
<path class="cls-10" d="M1200,935.04v30.34c-24.23,6.48-48.76,6.78-73.66,7.05c-5.19-0.04-31-0.99-29.96-7.9  c0.22-1.45,2.33-2.25,3.89-2.76c17.21,1.33,34.07,1,50.57-0.99c9.53-4.36,19.55-6.88,30.07-7.56c1.32-0.08,8.37-2.64,8.3-3.1  c-1.25-8.11-57.53-16.45-67.06-17.04c-5.74-3.16,1.73-13.29,6.8-10.35c0.79-0.69,1.6-1.33,2.49-1.82  c7.51-4.04,54.35,6.38,64.47,10.22L1200,935.04z" />
<path class="cls-2" d="M151.36,1542.86h-38.82c28.1-16.36,54.55-33.88,68.69-64.72c8.33-2.76,14.38-6.96,22.36-10.7l-6.6,30.82  C180.03,1512.4,162.48,1525.01,151.36,1542.86z" />
<path class="cls-12" d="M9.55,1229.69c-2.03,1.65-3.23,1.03-4.41-0.97c-1.49,2.44-3.21,3.13-5.14,2.08v-29.46l2.17-2.34  c20.97,3.58,19.02-8.57,0.35-6.27L0,1190.62v-12.05c11.45-7.37,37.72,3.86,45.58,17.09c4.04,6.81-2.04,9.22-1.92,19.04  c0.1,7.91-17.55,12.06-24.29,8.1C17.41,1227.34,14.49,1231.21,9.55,1229.69z" />
<path class="cls-4" d="M367.97,1419.86l3.09,3c2.84,20.23,17.22,35.3,36.39,41.48l2.38,3.57c-41.69,10.53-13.36-19.05-49.56,8.19  c-26.83,20.19-52.98,41.2-74.14,66.77h-11.08c12.36-15.54,4.05-21.23,14.7-32.74c1.96,6.06-1.13,10.78-0.1,16.75  c21.11-20.42,42.39-39.61,65.5-57.18c6.06-4.6,11.31-9.4,14.71-16.48C363.65,1442.83,359.76,1428.45,367.97,1419.86z" />
<path class="cls-2" d="M16.61,1381.02l2.83,92.84c0.72,23.75-0.05,46.64,6.81,69h-9.43l-3.32-4.03c-1.48-5.32-5.44-27.87-3.76-31.25  c0.42-0.86,1.01-1.63,1.64-2.39l-2.16-8.45c-3.1-36.29-5.31-72.61-6.64-108.97l2.5-1.76C3.2,1381.16,14.24,1376.55,16.61,1381.02z" />
<path class="cls-4" d="M12.22,75.93c13.36,10.3,28.12,20.1,39.08,34.85c-17.67,7.71-34.72,7.05-51.3,7.08V70.98  C3.9,71.7,8.97,73.42,12.22,75.93z" />
<path class="cls-4" d="M354.88,1542.86h-50.72c13.15-10.7,29.6-16.83,46-23.42l41.31-16.6  C381.77,1519.92,368.32,1531.64,354.88,1542.86z" />
<path class="cls-8" d="M22.72,1325.97c0.39,18.16-6.64,37.61-6.11,55.05c-4.18,0.68-8.34,2.16-11.53,4.99  c0.38,3.93-4.05,3.85-5.08,0.15v-65.62l10.11-0.93C11.84,1325.96,17.59,1326.43,22.72,1325.97z" />
<path class="cls-6" d="M0,751.34v-6.7c2.71-3.08,6.78-5.17,12.21-6.27c12.65-7.47,25.83-12.7,39.52-15.68  c11.81,2.02,22.79,1.24,32.92-2.33c2.85-3.17,5.74-4.91,8.68-5.2c15.22,23.59-48.06,22.46-58.85,27.76  C23.44,748.35,14.49,757.44,0,751.34z" />
<path class="cls-4" d="M81.13,1432.94l-11.59,109.92H62.1l11.82-109.76C73.93,1429.08,80.36,1429.21,81.13,1432.94z" />
<path class="cls-9" d="M24.26,320.12l1.46,2.42c-2.43,16.62-6.99,32.97-13.67,49.02c-4.66,5.25-7.83-0.82-8.92-5.79L0,352.23v-24.11  c1.03-3.2,4.27-5.22,9.71-6.04c-1.93-3.89-1.6-6.38,0.98-7.47C14.04,318.69,19.06,320.38,24.26,320.12z" />
<path class="cls-3" d="M5.08,1386.01l6.3,119.18l-3.53-0.65c-4.28-12.02-6.9-24.69-7.85-38.02v-80.36L5.08,1386.01z" />
<path class="cls-4" d="M11.38,1505.19c0.67,12.73,3.65,25.02,5.44,37.67H0v-76.34C6.31,1478.67,3.86,1494.05,11.38,1505.19z" />
<path class="cls-6" d="M0,646.88v-41.52c1.61,0.39,3.38,0.86,4.38,2.14c3.29,4.26,6.18,13.52,7.78,18.96  c2.62,8.96,7.62,42.17,4.44,49.51c-2.96,6.83-9.03-2.87-9.74-7.71L0,646.88z" />
<path class="cls-4" d="M9.55,1229.69l-5.62,42.55C2.68,1272.82,2,1275.41,0,1275v-44.2c1.68-1.05,2.82-5.61,4.67-5.74  C6.22,1224.95,8.22,1228.8,9.55,1229.69z" />
<path class="cls-11" d="M0,1201.34v-10.71c7.98-2.36,18.54-1.83,21.26,8.46C14.67,1202.97,6.62,1202.6,0,1201.34z" />
<path class="cls-13" d="M10.69,314.61c-0.33,2.97,3.76,8.81,0.26,9.95L0,328.12v-18.75C4.25,309.42,8.85,310.51,10.69,314.61z" />
<path class="cls-1" d="M558.3,148.62c3.89,1.54,4.06,3.75,0.16,5.26c-4.28-0.36-8.64-2.26-13.09-5.7c-5.79-1.38-10.42-3.69-13.9-6.93  l-2.51,2.39c-9.45-0.93-17.25,4.28-23.5,10.83c-8.9,11.81-19.42,21.22-31.57,28.24c4.52,8.4,10.32,15.87,17.39,22.42l-0.02,3.87  c13.31,10.76,30.74,13.01,47.22,14.67c0.31-2.58,1.35-2.52,2.05,0.04c-0.41,1.48,0.47,3.85,1.01,5.23c5.34,1.84,8,14.18,5.07,18.73  l0.72,2.86l-55.23,44.25c23.44,41.27-19.52,82.56-48.26,108.15c-10.71,14.79-17.38,31.83-20,51.12c-2.78,1.81-5.16,1.3-6.98-1.35  c-4.72,1.72-8.82,0.06-12.31-4.98c-19.4,4.51-38.88,6.1-58.44,4.77c-6.52,2.47-12.87,3.43-19.07,2.88l-1.86,2.93  c-8.75,2.75-39.1,8.11-45.5,1.16c-2.24-2.43-1.47-3.82,0.84-6.12l18.14-14.14c3.65-4.43,7.64-7.83,11.97-10.2l3.79-2.81  c30.46,1.75,58.93-3.39,85.41-15.41c-18.18-1.41-34.76-6.73-49.74-15.98c-18.7,10.52-37.57,20.31-56.61,29.36l-1.64-1.15  c-3.1,4.48-6.12-0.11-3.52-5.04c1.74-3.3,31.86-21.23,37.28-24.14l2.66,1.39l0.23-3.43c8.3-4.04,15.83-8.96,22.59-14.76l29.1-51.77  l3.12-0.08c0.13-1.22,0.31-2.43,0.67-3.58c2.02-6.44,27.16-30.35,34.24-36.56l6.29-2.57c0.42-2.38,2.3-4.2,5.65-5.47  c4.16-4.98,8.59-7.51,13.29-7.6l0.7-3.66c11.12-7.79,15.36-21.05,14.97-34.2l2.57-2.7c-1.94-31.61,3.3-86.33,42.17-94.54  C524.8,129.87,546.82,132.08,558.3,148.62z" />
<path class="cls-15" d="M890.34,229.23c-8.42,9.26-13.29,20.48-28.72,22.35c-9.29,1.12-17.35,8.33-23.17,15.31l-281.59,2.31l-3.5-1.79  l-7.88-15.95l1.13-3.79c-1.9-5.99-2.75-12.77-5.07-18.73L890.34,229.23z" />
<path class="cls-15" d="M728.91,102.17l-394.86-0.28c8.64-16.51,29.56-20.36,46.62-17.19c6.38-7.1,13.27-14.59,22.09-15.27  c11.14-0.86,20.38,2.11,29.67,10.78c12.38-24,36.3-38.28,62.59-39.16c26.94-0.9,51.93,13.29,66.75,36  c11.35-9.48,23.3-14.71,36.9-13.63c12.29,0.98,23.68,7.38,30,19.57c21.57-8.53,42.41-2.9,58.35,10.7  C700.27,95.75,714.7,92.94,728.91,102.17z" />
<path class="cls-6" d="M188.67,115.04l0.62,4.18c-6.43,14.8-23.85,30.35-38.65,36.51c4.95,4.72,3.57,7.39-2.25,10.13l1.35,2.23  c-2.88,5.03-51.26,15.6-52.42,16.18c-1.99,0.99-1.01,6.39-0.94,8.64c-9.6,5.99-21.5,9.55-33.07,12.5  c-2.01-24.02-2.72-46.25-9.73-67.49c14.33-0.01,30.28-4.48,44.37-9.16c-5.41-10.23-15.61-7.21-22.19-15.49  c23.67,3.82,44.46-0.17,65.97-7.56l36.75-12.63c4.22-1.45,8.67-4,7.85-8.48C190.55,91.6,190.55,106.29,188.67,115.04z" />
<path class="cls-10" d="M403.12,229.11l3.8,2.17c3.47,10.98,7.45,21.75,11.95,32.3l-0.7,4.28c4.65,0.01,8.12,11.09,6.31,14.61  c-13.81,14.23-28.51,27.34-41.2,42.71l-3.35-4.44c-2.49-12.62-5.76-25.04-9.84-37.26c-15.41-6.56-30.15-14.44-44.2-23.65l-3.33-5.19  l-0.9-4.77c6.41-21.58,10.28-43.9,11.6-66.96l3.32-3.49c16.77,4.81,34.58,8.02,49.93,18.09  C392.12,207.73,398.73,219.12,403.12,229.11z" />
<path class="cls-6" d="M336.6,179.43c-4.98,26.98-2.49,49.19-14.03,75.21l-0.01,5.54l-8.89,17.25c-2.04,6.96-5.24,12.64-9.6,17.04  l-0.64,7.54c-7.94,20.52-17.05,40.5-27.33,59.93c-5.99,7.58-9.03,3.83-9.11-11.25c0,0-0.93-16.9-2.8-50.69  c1.64-26.74,2.26-53.44,1.86-80.12l2.09-5.46l31.19-25.13c-6.9-6-15.92-1.43-24.07-5.98c26.38,0.53,45.97-9.07,63.32-26.32  C338.59,164.35,337.95,172.1,336.6,179.43z" />
<path class="cls-2" d="M265.07,58.96c3.01,2.89,2.16,4.27-0.9,1.73c-2.4,1.86-7.75,0.38-9.04-2.54c-1.02,1.87-1.73,1.6-2.16-0.6  l-1.68,2.57c-4.89,0.92-9.68,2.81-14.36,5.67l0.27,2.91c-9.86,2.88,11.59,18.44,17.31,17.36l2.41,2.5  c-3.37,10.74,13.35,1.21-21.41,21.99c4.73,36.28-29.88,33.41-33.15,58.75c-15.63-4.86-31.48-3.33-45.62-1.91l-6.98,0.7  c-2.49,0.25-7.41,1.69-8.42-1.62c3.86-2.32,6.17-2.57,8.1-4.12c2.16-1.73,2.97-3.7-0.08-4.22c-2.65-0.45-4.7-0.23-8.3-2.95  c22.89-4.32,36.06-20.46,47.63-40.14c10.88-6.78,23.26-12.74,33.23-21.47c6.74-9.69,2.3-33.46,20.07-39.98  C250.38,50.51,260.03,52.26,265.07,58.96z" />
<path class="cls-11" d="M531.47,141.25c4.47,1.98,10.95,12.97,3.4,13.18c-3.33,4.74-5.88,10-7.67,15.75l-3.29,1.29l-1.52,2.75  c-5.47,0.34-24.7,3.09-27.67,6.69c-1.7,2.06,43.15,19.2,50.16,12.73l3.2,1.85c3.45-3,13.56,2.61,14.48,6.68  c4,2.55-0.23,13.47-5.31,10.98c-6.54-0.12-14.95,4.12-16.73,10.55l-2.05-0.04c-16.49-1.65-33.88-3.92-47.22-14.67  c-7.95-8.44-16.48-16.35-20.95-27.85C495.83,172.87,503.41,136.82,531.47,141.25z" />
<path class="cls-2" d="M132.53,10.72c-1.78,0.72-3.78,0.2-6-1.56l-2.98-0.07c-3.72,2.17-7.4,4.06-11.01,5.67  c2.05,1.88,3.98,4.19,5.8,6.94l4.38,2.57c3.44,0.39,5.83,1.7,7.19,3.95c1.36,7.45-7.73,7.5-13.93,9.26  c2.14,24.34-11.43,23.29-24.83,42.02c-13.87,0.19-27.31-0.4-41.2,1.83c1.51-4.18,4.04-4.53,5.2-5.49c2.41-1.98,3.69-4.89,0.61-5.38  c-2.67-0.42-5.27-1.28-7.51-1.09l18.47-5.4c6.86-6.03,11.2-14.43,16.45-21.25c38.82-13.39,16.49-37.37,40.89-39.51  C127.88,2.88,139.58,8.17,132.53,10.72z" />
<path class="cls-13" d="M571.88,214.32l0.34-3.27c20.1-10.19,12.28-28.82,1.26-43.83c0.81,7.77,1.07,15.58-1.38,23.17  c-1.5,4.65-4.11,12.44-9.53,11.79c-5.2-1.31-9.56-4.62-14.48-6.68c-3.66-2.25-0.59-6.81,1.43-9.73c3.01-4.35,7.12-7.54,12.2-9.13  c0.61-6.71-1.61-13.4-4.55-19.41l1.28-3.36c-0.27-1.52,0.54-3.87-0.16-5.26c29.37,6.6,55.3,27.92,62.69,60.01  C603.96,210.15,588.13,215.57,571.88,214.32z" />
<path class="cls-15" d="M461.66,228.85c1,16.34-3.9,31.85-18.23,40.56l-4.08,1.18c-6.27-1.12-12.67-1.17-19.2-0.14l-1.97-2.58  c-7.1-12.05-9.57-26.24-15.06-38.75L461.66,228.85z" />
<path class="cls-6" d="M571.88,214.32c-4.8,2.62-11.44,1.81-14.62-1.15c3.64-2.37,3.81-7.46,5.31-10.98  c10.37-12.27,10.9-28.44,5.32-44.63c9.04,7.59,14.96,18.04,18.4,28.73C590.66,199.92,583.09,208.21,571.88,214.32z" />
<path class="cls-3" d="M1047.62,103.31c-28.26-23.51-35.74-3.06-43.26-4.79c-5.46-1.26-7.19-0.89-6.15-6.72  c2.19-12.3-15.77-19.43-30.54-15.74c17.44-13.73,29.42,3.2,43.33,9.02C1023.24,90.19,1042.52,83.34,1047.62,103.31z" />
<path class="cls-3" d="M715.96,145.25c-11.78-8.62-23.82-1.7-34.45,3.32c-7.47-8.41-16.6-17.95-31.93-10.15  c10.75-13.17,23.37-1.77,35.02,0.49C694.7,140.89,708.3,131.09,715.96,145.25z" />
<path class="cls-11" d="M237.01,66.86l2.96,0.27c5.72,6.2,13.48,8.91,23.29,8.14l1.59,2.73c4,1.5,1.81,6.21-2.12,3.98  c-2.8,0.96-4.94,3.74-5.82,6.56c-11.28,2.05-28.31-14.24-24.87-20.05c0.82-1.38,3.52-1.74,4.88-2.72  C238.12,65.87,238.12,66.24,237.01,66.86z" />
<path class="cls-3" d="M816.53,61.7c-8.57-7.99-18.11-9.84-29.86-5.19c8.23-9.76,19.07-4.51,28.47-4.06  c8.17,0.4,16.38-9.39,25.88-3.17C831.74,48.85,823.44,52.51,816.53,61.7z" />
<path class="cls-3" d="M917.2,124.55c-6.83-3.35-11.82-7.55-19.99-7.47c5.38-6.42,12.67,0.94,18.7-0.32  c9.42-1.98,18.7-6.74,26.89-1.02C931.66,114.85,923.76,115.91,917.2,124.55z" />
<path class="cls-8" d="M270.71,64.55c5.05,5.16,6.42,12.5,6.49,19.49c5.48-0.59,8.17,0.86,8.07,4.36c-8.14-1.4-21.22,2.68-22.53-6.4  c1.9-0.65,1.29-2.75,2.12-3.98c-1.29-2.02-1.25-4.78,0.13-8.3c-1.09-3.48-1.36-6.48-0.82-9.02c1.55,1.06,0.9-1.11,0.9-1.73  C266.52,60.88,269.88,62.04,270.71,64.55z" />
<path class="cls-6" d="M812.6,173.4c-7.05-7.21-14.41-7.97-24.79-5.47c6.17-7.77,15.91-2.01,23.84-3.18c8.25-1.22,15.82-8.14,24.8-2  C826.72,161.9,818.03,162.73,812.6,173.4z" />
<path class="cls-13" d="M243.61,184.79c1,0.39,0.99,1.05,0.1,1.67c-0.45,0.6-1.42,1.3-1.42,2.12l-0.71,1.06  c-8.13,2.01-24.39,3.5-26.35-7.46c-3.27,2.67-5.34-0.14-2.04-2.89c2.31-2.6,4.06-5.36,6.51-7.82c-0.12,2.89-0.63,8.5,3,9.96  C229.67,184.22,237.38,181.41,243.61,184.79z" />
<path class="cls-13" d="M285.27,88.39c-2.77-2.22-6.17-1.24-11.07-1.6c1.51-8.13-2.37-14.89-3.49-22.24  C279.08,69.02,287.74,79.71,285.27,88.39z" />
<path class="cls-13" d="M112.61,99.05c-3.63,0.22-11.75,0.68-14.7-1.28c-2.46-1.63-5.47-6.6-1.79-8.21c-0.29-1.21-0.73-2.6-0.7-3.84  c1.25-0.31,4.17,0.03,5-1.31c-0.2,2.44-0.38,6.09,1.57,7.21c3.65,2.08,10.84-0.07,13.98,1.87c1,0.62,1.93,2.43,0.89,4.13  C116.24,98.63,113.87,98.93,112.61,99.05z" />
<path class="cls-9" d="M137.83,13.25c2.55,2.7,10.53,11.98,7.44,14.96c-0.54,0.52-1.2,0.91-1.9,1.27c-3.67-0.2-9.58-1.5-13.46-1.25  c-3.49-2.24-0.87-6.43,2.79-6.6C138.39,21.74,134.69,15.61,137.83,13.25z" />
<path class="cls-12" d="M143.37,29.47c1.07-6.3-5.53-10.03-5.54-16.23c5.73,2.66,12.87,7.52,12.87,15  C150.7,32.12,145.45,29.59,143.37,29.47z" />
<path class="cls-12" d="M213.19,179.29c-0.29,1.57,1.44,2,2.04,2.89c3.88,4.48,4.95,8.01,3.21,10.6c3.57,0.73,3.98,3.19,0.91,5.11  c-5.17,3.66-14.61-8.73-10.45-12.92l0.27-5.58L213.19,179.29z" />
<path class="cls-9" d="M761,657.43c3.11,1.11,2.83,6.45,1.7,9.13c-3.19,7.6-12.21,7.75-19.25,7.51c-12.47-2.02-24.67-2.38-36.61-1.07  l-2.21-1.95l-0.92,3.13c-15.52,2.83-6.33,20.12,5.73,19.94c5.18-0.17,8.47,1.04,9.87,3.64c3.6,0.37,3.37,1.98,0.95,4.05  c1,2.48,2,4.92,2.99,7.33c1.4,11.02,6.28,15.25,14.64,12.69c31.18-12.21,61.15-22.32,94.45-25.92  c19.24-3.45,37.75-10.08,55.62-18.11c7.78,1.14,15.44,2.87,22.97,5.21c0.99,0.34,1.86,0.97,2.63,1.67  c-2.94,6.92-8.09,12.72-15.44,17.4c-37.9,28.71-75.86,57.68-113.86,86.91c-9.31,7.82-19.38,13.29-30.2,16.39L619,796.76  c7.33,5.84,16.8,8.42,26.56,10.84c28.79,7.15,56.84,14.05,84.87,23.77c1.77,0.61,0.67,4.25,0.55,5.58l-1.97,3.75  c-12.91,7.81-25.49,16.19-37.74,25.12l-4.24-0.74c-42.36,21.81-80.3,51.49-123.05,75.95c-18.81-0.16-36.14-5.91-55.25-8.34  c-24.96-3.17-49.5-3.23-73.46-4.58l-4.15,1.58c-4.27-0.46-31.69-5.05-33.07-6c-1.29-0.89-2.23-2.01-2.73-3.51  c1.74-5.44,5.55-9.86,11.45-13.26c48.77-31.34,93.82-65.43,138.42-103.14c5.36-4.53,7.5-10.14,9.12-16.75l3.71-4.69  c-1.36-3.02-1.65-6.14-0.39-9.21c7.68-23.47,14.41-47.19,20.17-71.16l3.61-5.26c5.12-4.28,11.48-7.32,19.07-9.14  c32.07-16.02,65.18-24.17,100.67-27.34l4.76,1.7c0.65-0.84,1.32-1.65,2.12-2.32c5.14-4.34,44.8-7.79,50.53-4.21  C759.44,655.97,760.23,656.68,761,657.43z" />
<path class="cls-6" d="M900.56,753.9l2.17,3.05c-2.33,8.99-4.61,17.89-6.82,26.69c25.9,7.8,43.79,37.92,56.36,60.27  c14.28,7.59,24.46,17.98,30.55,31.16l-2.28,2.46c3.67,6.21-0.91,11.09-5.45,15.2c-11.13,10.07-17.59,7.69-29.15-1.44  c-17.99-8.51-33.44-19.57-46.35-33.19c-3.97-9.29-8.94-17.63-14.91-25.05l-18.55,63.05c-0.45,0.51-1.69-1.58,1.18,0.59  c14.34,10.87,35.81,27.91,45.66,42.58c6.78,10.1-0.42,9.44-8.86,8.46c-4.55-0.53-9.65-2.28-13.68-4.45  c-9.95-8.44-20.93-14.04-32.97-16.79l-15.53,48.17l-3.3,1.5c0.71,6.24-5.08,16.16-10.87,18.61c2.65,3.15-1.98,12.55-5.65,13.65  c-10.32,6.49-13.4,20.58-19.83,30.67c-5.67,8.9-11.98,17.69-17.1,27.12c-34.62,47.96-62.98,100.27-105.68,148.02l54.24-284.68  l20.31-124.2c26.55-15.9,51.27-34.37,75.61-54.67c27.84-23.21,58.99-41.46,83.89-66.02C914.56,707.17,904.2,730.55,900.56,753.9z" />
<path class="cls-1" d="M789.5,391.06c-0.02,27.45-4.72,42.88-0.65,60.29c7.31,31.28,54.12,38.12,79.87,108.56  c12.59,34.44,42.14,33.27,62.93,55.98c-1.6,0.02-3.18-0.02-4.74-0.26c-11.37-1.71-39.11-19.34-49.9-26.83  c-11.83,8.44-25.8,12.43-41.9,11.98c22.36,14.3,47.7,17.77,73.64,15.6c3.21,1.12,5.67,2.89,3.35,6.19  c7.26,10.61,20.25,15.92,27.42,28.38c-15.52,4.13-29.77-3.32-43.49-7.65c-21.83-1.49-44.46-3.42-65.59-9.45  c-5.25-1.09-8.31-3.54-9.18-7.35l-3.34-0.48c-6.67-17.31-17.12-30.83-31.35-40.56l-4.13-0.26c-26.88-24.25-52.36-58.98-32.89-95.59  c-22.37-21.95-33.55-32.93-33.55-32.93c-5.25-4.64-7.79-9.62-7.64-14.94c-0.5-8.28,4.62-15.88,9.46-22.45l3.89-2  c23.18,3.95,45.95-5.62,59.34-24.94l4.15-1.37C786.82,387.47,788.01,387.5,789.5,391.06z" />
<path class="cls-16" d="M708.36,441.74c11.03,18.15,28.52,31.41,43.53,47.41c-18.76,42.07,7.09,69.8,34.68,96.31  c2.42,1.11,5.09,2.64,6.7,4.81c1.19,3.36,18.9,46.82,23.86,42.27c0.1-3.8,1.47-5.82,4.12-6.04c21.56,13.13,46.94,8.01,74.78,16.81  c-21.83,6.76-46.94,7.45-70.56,4.32c-8.03-1.06-16.97-1.47-19.41,7.26c-1.6,3.65-10.19,6.76-13.49,4.14  c0.78,3.97-6.99,6.23-8.93,2.73c-5.4,0.3-8.83-11.27-7.79-16.08l-2.78-1.42c-3.39-8.51-9.28-15.69-17.66-21.54l-5.15-1.04  c-30.62-27.92-62.11-62.04-66.55-105c-1.36-13.12,1.86-53.14,11.49-60.95c0.81-0.66,1.73-1.17,2.68-1.65  C701.4,450.39,704.35,444.94,708.36,441.74z" />
<path class="cls-14" d="M1195.87,522.66c-39.9,6.49-78.23,5.41-117.83,5.07c-53.39-0.47-106.71,1.35-160.64-10.52  c61.25-10.79,120.19-6.95,179.35-5.14C1129.97,513.08,1162.05,513.34,1195.87,522.66z" />
<path class="cls-6" d="M830.36,662.76c27.54-1.25,54.39,11.36,80.56,20.23c-6.93,0.05-15.4-4.74-23.06-2.42  c-61.57,28.62-81.7,12.75-146.85,42.94c-3.77,1.75-9.82,2.34-12.61,0.88c-7.2-3.76-1.03-16.33-10.73-15.05  c-8.69,1.15,6.31-5.76,2.58-7.56l3.56-0.73c2.49,5.01,4.55,10.32,6.19,15.94c14.47,1.02,37.74-9.51,49.69-17.68l9.69-29.55  c1.11-3.94,3.21-5.75,6.29-5.45c1.07-2.81,4.28-3.85,9.61-3.12C805.29,661.21,813.64,661.73,830.36,662.76z" />
<path class="cls-2" d="M931.65,615.89c0.72,0.78,1.42,3.58,0.54,4.34l-20.09,2.34c-2.08-3.04-3.31-4.3-8.06-3.73  c-28.23,3.34-54.94-4.32-77.91-20.8c18.86,0.13,36.39-1.02,51.06-11.6C895.43,597.3,913.09,607.28,931.65,615.89z" />
<path class="cls-9" d="M806.06,654.88c5.66,7.03,16.23,4.19,24.29,7.88l-34.68,1.57c-2.94-0.08-4.02-2.79-3.1-5.31  C797.17,657.61,800.99,654.7,806.06,654.88z" />
<path class="cls-10" d="M697.88,454.07c-32.71,72.25,5.82,122.43,57.53,168.64c6.53,4.05,10.79,9.3,12.8,15.74  c1.22,4.33,0.23,6.63-2.96,6.9c3.94,1.63-0.23,12.48-4.25,12.09c-18.95-1.94-36.74,0.18-55.09,4.51c-3.87-0.03-6.74-2.34-8.62-6.94  c-5.7-13.64-11.93-26.99-18.7-40.06l-76.16-24.13l-0.7-3.04c-1.01-0.32-2.5-0.99-2.39-1.73c2.97-19.28,7.5-41.19,11.96-60.28  c0.45-5.97,2.4-11.23,5.86-15.76c0.09-6.73-9.26-3.92-13.38-7.69l-3.8-2.99l-17.07-53.23c-21.96-10.59-42.64-22.93-62.03-37.03  l-1.48-3.29l0.4-4.37c6.21-7.44,11.85-15.3,16.93-23.58l4.18-1.5l129.6,79.01L697.88,454.07z" />
<path class="cls-16" d="M556.87,269.2c12.32,37.49,5.55,74.34-15.95,107.14c-6.38,9.73-13.38,21.11-21.51,29.45  c-0.25,1.23-0.54,2.44-1.01,3.58c-2.69,6.55-35.14,34.85-41.97,36.43c-1.21,0.28-2.46,0.37-3.73,0.42  c-2.78,4.48-6.48,8.46-11.12,11.96c-1.63,3.88-3.67,6.88-6.13,9.02c1.32,3.33-3.06,11.96-6.8,12.17c0.79,4.13-12.19,5.3-13.52,1.38  c-3.22,1.04-6.1-0.71-8.66-5.27c-2.26-5.07-5.58-8.75-9.96-11.06c-6.72,4.47-12.73,4.81-20.61,5.12  c-15.84,0.62-40.72-3.44-56.06-7.86l-3.58-3.46c-1.53,4.12-10.73,1.55-9.23-2.86c7.26-0.78,13.68-6.87,23.32-5.35  c21.06,3.31,60.51-7.57,54.94-4.34c2.16-1.25,4.05,4.91,6.54,5.16c2.34,0.23,3.9-1.02,5.49-1.35c1.38-0.3,1.89,4.15,4.81,3.1  c3.4-19.66,7.91-42.04,24.17-55.69c25.3-21.24,67.85-67.32,42.2-102.66l58.1-46.55C549.83,254.49,554.43,261.79,556.87,269.2z" />
<path class="cls-11" d="M785.19,390.97c-14.93,23.39-40.14,34.02-67.38,28.31c0.33-2.44-5.35-9.22-8.25-8.03  c-4.8-2.02-5.93-11.18-2.08-14.57c0.52-3.43,9.2-4.98,11.58-2.93l3.48-1.48c9.69,4.39,34.92,1.72,42.29-5.11  c4.4-4.08-28.27-9.17-30.35-7.49c-8.38-1.98-9.69-11.37-2.15-12.6c1.86,0.57,3.6,1.54,5.24,2.9c-0.63-6.13-0.01-11.94,1.88-17.43  c-1.8-1.31-0.93-2.38,2.61-3.22c3.23-3.24,7.79-2.67,13.69,1.69c9.78,8.37,17.93,18.43,24.44,30.18  C783.97,384.6,785.63,387.87,785.19,390.97z" />
<path class="cls-13" d="M720.43,347.05c0.73,2.13,1.33,3.92,1.8,5.37l0.29,2.95c-11.07,8.41-17.05,21.82-2.99,31.09  c2.08,3.07,3.5,5.43-0.48,7.29c-3.31,2.48-7.54,2.8-11.58,2.93c-7.35-1.22-7.92-14.36-7.6-20.98c0.18-3.7,1.04-7.32,2.12-10.85  c-8.32,6.37-13.82,16.47-16.07,26.72l12.46,15.06l-0.85,3.14c-14.21-1.17-28.27-6.9-43.18-10.14c4.5-23.91,22.66-37.62,42.51-44.46  L720.43,347.05z" />
<path class="cls-2" d="M789.5,391.06c-1.43-0.13-2.87-0.18-4.31-0.08c-12.69-10.75-21.52-41.13-43.12-41.67  c-5.16,2.28-10.86,3.87-17.11,4.77l-2.73-1.65c-1.57,1.09-3.54-0.38-3.05-1.97c0.3-1,0.78-2.19,1.25-3.41  c16.06-5.54,33.37-8.52,49.45,1.73C782.96,357.11,789.51,374.55,789.5,391.06z" />
<path class="cls-6" d="M707.47,396.68c0.48,4.89,0.9,9.8,2.08,14.57c-4.9,2.02-7.87-1.13-12.03-1.48l-14.48-17.11  c2.37-15.59,13.24-29.14,26.64-37.83C701.4,367.74,699.67,384.11,707.47,396.68z" />
<path class="cls-6" d="M601.74,587.78c0.23,2.39,0.41,4.77,0.4,7.15c-0.01,2.36-0.07,4.71-0.48,6.98  c-4.89,27.2-10.08,54.53-15.43,81.65c-0.91,4.6-2.84,8.92-4.81,13.16c-4.41,28.79-16.58,57.31-23.39,85.63l-3.68,5.64l-99.62,65.73  c-2.36,1.42-4.02-0.31-5.47-2.36l4.37-123.77c2.94-29.17,5.75-58.51,8.44-88.04c-0.99-5.87-0.39-11.01,1.8-15.4  c14.17-12.26,31.58-20.67,47.31-31.03c3.18,4.16,4.28,9.4,3.29,15.73c-2.29,29.61-6.2,59.06-11.72,88.34  c10.85-40.14,21.74-80.06,32.67-119.74l3.14-1.75l78.63-65.67L601.74,587.78z" />
<path class="cls-3" d="M304.07,294.48l2.9,0.59c7.76,32.35,15.53,64.71,23.3,97.09l-2.02,3.06c-13.19,9.75-47.92,25.71-36.41,27.79  c2.86,0.34,5.98,1.27,9.37,2.79c4.43-0.27,7.57,0.79,9.42,3.19c-5.93,11.7-19.14,18.06-30.54,28.26  c15.59,7.28,31.72-0.26,46.95-1.89c2.74,1.74,6.07,2.23,9.23,2.86l2.94,3.49l2.19,14.63c2.49,5.97,3.35,11.53,2.57,16.67  c-17.5,6.93-34.75,14.92-53.18,19.72l-4.26-2.58c-14.9-23.51-34.33-43.26-58.29-59.25l-1.77-4.75l-1.47-2.53l12.45-17.21  c-6.24,3.34-11.01,8.75-15.55,14.05l-3.52,0.04c-0.68,0.81-1.82,1.93-2.47,1.58c-6.71-3.62-18.61-11.41-24.51-16.14  c-3.85-1.56-5.5-3.71-4.94-6.46l-0.58-4.78c1.53-3.61,10.71-20.99,12.55-22.46c0.67-0.54,1.51-0.87,2.39-1.15l2.4-1.97  c11.06,9.19,24.84,8.56,19.73-9.04l2-2.39l-1.67-4.49c0.7-35.76,1.01-71.57,0.92-107.44c-1.49-10.74-1.3-21.1,0.58-31.06  l-101.85-5.49c-17.69-0.95-33.58-5.23-50.94-5.17c66.28-6.68,133.02,1.83,196.18-9.64c3.71,28.61-1.91,58.15-1.23,88.29  c0.47,20.96,1.92,41.14,4.17,62.21C286.11,341.78,292.74,317.12,304.07,294.48z" />
<path class="cls-6" d="M328.44,741.77l-1.66,3.16c-37,13.77-42.67,57.75-38.98,92.27c-0.41,12.15-2.71,22.34-13.39,29.85  c-45.59,21.89-72.9,59.06-100.78,98.71c-3.45,5.36-7.33,7.97-11.64,7.83l-2.62-1.09c4.01-66.15,8.03-132.31,12.05-198.48l2.77-1.47  l55.08-23.17l101.18-56.99c0.71-0.06,1.41-0.08,2.09,0.03c7.85,1.29,0.74,33.31-0.85,39.24  C331.99,736.43,330.91,739.8,328.44,741.77z" />
<path class="cls-6" d="M136.6,991.09l-0.8,3.23c-6.85,3.98-13.57,8.09-20.15,12.32l1.04,3.27c1.71,1.21,2.1,3.08,1.17,5.61  c7.16,0.06,10.8,2.04,10.91,5.96l0.67,3.02l-21.77,19.88c7.35,2.13,15.01,2.49,22.99,1.08l1.95,2.58L66,1081.96  c-9.09-40.01-11.99-78.59-23.35-116.33c-6.47-21.47-18.18-39.98-21.39-61.82c9.2-6.95,18.78-15.55,29.58-19.95l2.78,0.99l1.41,15.25  l-0.22-17.85l2.64-3.55l81.76-59.11l2.66,0.97c0,0-0.85,56.01-2.56,168.03L136.6,991.09z" />
<path class="cls-9" d="M92.87,363.44c9.98,4.25,19.87,8.92,29.67,14c2.55,1.28,4.17,2.49,3.29,5.59l2.46,3.29  c-0.07,11.49,3.54,22.53,8.71,32.7l7.46-23.08l3.13-1.03l4.77-0.82l16.34,8.13c7.09,2.87,11.58,7.03,13.47,12.5  c-1.03,1.46-0.73,2.48,1.26,3.42c-9,12.83-14.38,27.41-0.55,2.55l3.58-1.18l31.93,21.02c1.59,3.52,3.51,4.6,5.78,3.24l2.31,2.4  c24.32,18.81,51.48,38.85,64.32,66.58c-43.13,11.25-28.32,7.99-70.28,24.77c-2.24,6.45-3.73,11.6-7.8,15.45  c-0.82,2.21-1.43,2.47-2.06,0.06c-3.16-0.6-2.8-2.42-1.46-4.93c2.69-3.4,4.33-7.1,4.9-11.1c-1.89-0.92-3.03-3.17-3.41-6.74  c-7.62-0.6-18.24-5.78-10.94-13.32l1.06-1.5c27.22,3.39,17.45-18.61,0.37-27.18c-7.05-3.54-21.04-8.97-22.88,2.28l-2.83,0.76  c-3.47,19.76-21.33,6.89-11.22-8.55c0.87-3.48-0.62-6.69-4.46-9.61c-2.52-1.5-4.02-3.37-4.53-5.61l-1.12-2.91  c17.53-24.44-34.52-45.01-49.16-26.52l-3.22,0c-1.26,2.91-1.52,6.15-0.79,9.71c2.79,5.57-0.37,8.28-4.97,3.61  c-1.86-1.9-2.56-38.41-1.85-43.87c-3.53,1.53-4.4,0.74-3.17-2.91c-1.07-2.33-0.9-5.5,0.53-9.51c-6.44,2.94-11.04,8.81-13.82,17.6  l-3.1,0.26c-3.15,3.98-9.41-1.12-7.56-5.73l-1.36-4.19c3.61-12.81,7.59-25.48,11.93-38.01l4.06-2.01  C83.25,360.07,91.87,359.95,92.87,363.44z" />
<path class="cls-2" d="M174.21,772.55l-12.2,201.04c0.13,5.42-8.01,10.8-12.66,13.77c-4.59,4.16-8.84,5.4-12.75,3.73l2.62-171.5  l-104.2-31.09L174.21,772.55z" />
<path class="cls-7" d="M603.79,502.32c-43.54-13.78-85.13-21.48-131.1-20.05c-5.59-1.65-7.85-17.18-2.64-20.09  c-4.06-5.03-1.51-11.71,2.65-15.97c17.11-11.71,32.32-25.66,46.71-40.43c19.95,14.8,42.78,25.63,65.35,38.57L603.79,502.32z" />
<path class="cls-6" d="M439.25,497.98l3.31,0.73c2.31,8.69,5.41,17.02,9.28,24.99c16.27,9.83,33.35,14.5,51.24,14.03l3.2,2.14  c-11.79,16.62-33.81-5.58-61.62-2.64c-12.66,1.34-181.64,22.65-167.3,7.28l3.88-4.16C316.54,502.53,384.73,501.97,439.25,497.98z" />
<path class="cls-3" d="M558.01,782.35c-2.08,8.62-3.02,16.7-11.08,23.46c-31.61,26.51-62.78,53.23-97.72,75.7  c-19.23,12.37-37.74,23.49-53.89,38.67c0.97,5.25-10.18,6.45-13.04,2.63l-2.4-2.09l0.02-13.53l2.47-2.04l3.53-5.09  c13.93-7.87,27.4-16.6,39.83-26.68l13.98-46.4c5.07-29.41,7.6-59.21,7.59-89.37c4.91-34.47,7.8-69.03,8.66-103.68l2.34-6.17  c0.96-1.75,4.15-2.43,5.53-3.62c3.83,29.58-5.97,57.86-7.04,88.1l-4.93,140.13L558.01,782.35z" />
<path class="cls-2" d="M384.16,673.82l2.44,1.66c-4.23,25.31-8.46,50.63-12.7,75.96l-2.91,1.14l-3.3,1.41  c-11.61-6.81-23.76-10.14-36.43-9.97l-2.81-2.24c-1.21-16.95,10.66-35.42,2.02-49.38c-35.15-9.87-72.33-9.04-110.39-21.72  C273.82,666.63,328.86,673.34,384.16,673.82z" />
<path class="cls-2" d="M538.53,575.69l-40.97,150.69c0.92-46.31,17.62-90.78,13.6-133.27c-17.39-8.81-39.01,2.86-60.31-0.45  C479.49,583.26,509.47,581.55,538.53,575.69z" />
<path class="cls-13" d="M448.66,479.36c4.01-1.14,5.1,1.78,1.53,4.06c3.19,2.27,4.2,10.94,1.14,13.54l3.11,2.01  c-0.47,8.46,2.47,12.17,8.81,11.13c9.15-0.98,42.47-0.66,48.73,4.22c1.38,1.07,1.49,1.99,0.91,3.89c0.61,8.21-2.18,15.42-6.6,21.66  c-18.68,4.05-39.43-5.51-56.15-14.18c-6.45-8.62-6.61-19.48-10.88-27.71c-2.16-4.16-1.54-10.44-4.03-14.69  c-3.7-0.04-3.52-1.34-0.08-2.54L448.66,479.36z" />
<path class="cls-5" d="M416.52,464.42c3.21,2.94,0.44,4.43-3.07,5.48c3.02,6.56-0.59,10.8-10.81,12.75l-2.48,1.02  c-17.02,2.12-39.87,2.88-56.2,9.35c-4.78-10.74-7.01-23.06-7.7-34.8C363.02,463.56,389.59,470.7,416.52,464.42z" />
<path class="cls-13" d="M470.05,462.18c-0.75,6.72,0.7,14,2.64,20.09c7.46,23.45,44.02-5.22,59.09,12.01  c11.14,23.77-15.72,22.95-31.05,17.45c-6.36,0.84-42.53-6.93-38.72-15.97c0.29-0.7,0.77-1.32,1.29-1.92  c-2.54-1.7-5.81-8.74-2.37-10.51c-4.43-1.1-5.79-12.95-2.95-16.05C456.85,462.39,467.2,458.26,470.05,462.18z" />
<path class="cls-6" d="M92.59,707.27c-1.52,2.29-2.1,2.14-4,1.04c-10.52-6.12,7.02-14.77,11.95-16.89  c21.7-9.3,55.48-17.07,79.04-22.01l2.64,1.91c-12.9,13.27-37.08,14.88-56.73,23.58c5.78,3.28,14.02,3.77,21.79,6.45  C132.76,710.26,108.34,703.66,92.59,707.27z" />
<path class="cls-6" d="M463.3,493.85c2.93,15.35,56.31,19.78,63.83,18.22c7.53-1.56,3.29-12.61,4.66-17.79c2.62,3,7.58,3.99,9.11,8.6  c-6.34,8.38-17.25,18.77-28.01,15.33c-16.22-13.01-52.8-1.31-58.03-7.24c-3.01-3.41-2.37-9.66-3.52-14  C451.73,492.51,460.81,489.45,463.3,493.85z" />
<path class="cls-6" d="M398.32,603.65c-26.73,5.25-48.43,23.74-75.69,23.14c17.52-4.83,31.34-11.73,45.82-19.88  c5.98-3.37,67.72-15.01,74.28-11.99L398.32,603.65z" />
<path class="cls-7" d="M435.14,480.75c0.29,0.72-0.31,1.88,0.08,2.54c-9.44,8.3-26-0.26-35.06,0.37c-1.15-5.73,7.12-4.07,10.84-6.99  c3.43-2.69-1.6-6.58-0.65-8.14c1.08-1.79,5.94-1.11,6.16-4.12C426.5,462.09,422.38,470.04,435.14,480.75z" />
<path class="cls-2" d="M57.46,878.71l1.09,88.38l-7.69-83.23C51.94,881.15,55.32,880.25,57.46,878.71z" />
<path class="cls-11" d="M395.31,920.18c12.86,3.83,26.77,3.71,39.95,7.94c26.23,8.41,52.25,17.97,77.86,28.21l3.88,3.16  c-1.03,5.19-3.52,10.07-7.47,14.65c0.24,7.26,2.25,14.33,6.04,21.2c2.91,6.17,2.43,10.36-1.43,12.55l-2.76,3.26l-15.72,1.66  c16.74-1.47,33.4-4.64,49.96-9.51l1.99,1.42l2.37,1.99l-4.14,22.49c8.3,20.27,12.28,40.77,11.92,61.51c1.4,2.07,3.81,3.33,7.22,3.78  l1.52,3.45c-22.11,16.07-44.05,32.94-64.65,51.36c-2.05,1.83-5.3,3.39-6.19,6.29l-2.69,5.38c-39.14,29.43-58.71,44.14-58.71,44.14  l-2.9-1.17c-29.71,12.13-58.23,27.77-89.3,37.58c-16.39,5.18-34.97,3.21-48.55,14.76c2.47,0.3-13.87-25.56-15.02-24.17l4.98-6.01  c0.42-0.51-4.26-2-9.12-4.44c11.45-8.77,5.28-19.41-0.4-29.14c-3.28-5.62-3.51-13.47-12.22-15.81l-0.82-46.78  c6.73-5.19,17.45-8.21,14.98-16.54c3.45-1.45,5.17-2.17,5.17-2.17c15.36,3.6,30.75,6.99,46.18,10.19c0,0,1.56-0.65,4.69-1.95  l-0.7-3.1c4.27-6.68,6.22-14.41,5.85-23.19l2.84-1.59l1.75-2.2c10.29,0.21,15.6-3.14,15.92-10.04c-3.4-0.63-3.84-3.75-1.3-9.36  c1.12-11.29-43.61-7.69-50.91-4.52l-2.46-2.16l-2.32-2.11c0,0-0.11-7.92-0.32-23.76c-2.93,0.48-4.71-0.37-5.36-2.53l2-4.82  c35.39-26.44,71.5-58.36,81.79-103.21l3.54-4.06C386.27,921.88,391.77,922.6,395.31,920.18z" />
<path class="cls-6" d="M495.68,1155.59c-1.56,30.15-5.8,60.11-9.33,91.87c-2.1,18.91-9.2,36.87-11.3,57.08  c-2.91,28.02-10.81,100.1-32.31,119.88l-14.92-55.77c2.64-55.57,4.25-110.01,3.54-164.71L495.68,1155.59z" />
<path class="cls-13" d="M289.29,1424.57c2.37-3.37,5.34-2.63,5.36,1.44c7.83,9.81,29.7,25.48,27.28,38.33  c-0.42,2.23,5.67,5.34,4.54,8.28c-0.95,2.49-4.53,2.97-6.39,4.65c0.48,4.31,1.11,10.74-4.2,10.98c-2.98,0.14-6.87-2.33-10.09-5.89  c-2.67,2.48-3.24,5.71-5.48,6.46c-1.16,0.39-19.28-5.04-19.4-13.01c-3.1-0.36-5.27,2.55-7.45,1.9l-6.69-1.99  c-2.74-0.14-3.9-3.05-3.46-8.73c-11.41,0.93-18.64-5.86-11.34-16.26c-5.77-2.75-7.72-5.69-5.86-8.83c-0.21-2.34,0.27-5.4,1.9-6.72  c1.81-1.46,5.48-0.33,6.99-1.32c-0.3-2.47-1.38-5.88,0.84-8.19c1.32-1.38,3.97-2.62,6.25-2.28c1.69,0.25,3.12,2.31,5.09,2.21  c1.52-0.07,2.65-3.29,4.28-3.96C278.23,1420.09,282.87,1426.9,289.29,1424.57z" />
<path class="cls-13" d="M70.97,1377.98l2.32-1.98c4.68,0.78,9.49,0.65,14.42-0.4l1.8,2.58c3.85-2.79,8.64,0.67,7.17,5.12l0.11,2.86  l1.08,1.36c2.82-0.4,18.75,6.36,19.67,8.95c0.82,2.32-1.96,6.01-1.79,8.02c2.5,2.81,7.17,4.2,7.47,7.86  c0.37,4.49-6.23,4.78-6.25,7.84l-0.06,9.81c-0.02,2.43-8.12,3.64-15.82-6.37c-0.8,4.53,0.98,10.1-2.98,11.98  c-8.85,4.2-15.43-17.14-16.95-2.69l-7.21,0.16c-3.79-2.02-4.49-6.42-5.23-10.88c-3.75,1.8-6.45,3.92-9.62,4.03  c-1.95,0.07-3.83-1.73-5.57-2.33c-2.47-1.42-3.05-4.31-1.74-8.66c-12.52-2.92-17.74-14.86-4.46-21.72  c-3.25-4.93-3.53-11.41,3.05-13.46c3.2-1,9.23-0.58,9.69,3.28C61.16,1378.12,68.43,1371.15,70.97,1377.98z" />
<path class="cls-13" d="M230.86,1351.34c-0.78-1.49-0.86-2.95-2.77-1.69c-1.2,0.79-2.83,1.24-3.1,2.69c-2.79,0.14-6.01,0.79-9.17-0.56  c-2.18-0.94-0.4-6.68-2.3-8.05c-4.24-0.16-9.94,1.96-13.28-2.76c-1.8-2.54,0.3-5.68,4.11-8.18c-5.8-2.56-7.54-5.08-7.98-7.89  c-0.66-4.25,2.78-6.08,7.93-6.19c-1.93-3.4-2.28-6.64-0.74-8.61c2.87-3.65,9.62,0.19,12.02-0.8c7.55-8.74,33.71,1.72,32.33-0.26  l5.63,8.05c-6.75-9.64,21.56,13.68,20.09,16.13l-3.96,6.59c-1.28,2.12,3.88,5.38,3.62,8.23c-0.33,3.59-5.94,1.92-7.27,3.92  c-2.31,3.48,0.46,9.38-5.45,9.14c-3.45-0.14-6.51-1.25-10.26-6.76c-2.55,5.65-4.86,8.61-10.4,6.7  C235.41,1359.47,234.01,1354.89,230.86,1351.34z" />
<path class="cls-4" d="M143.31,1317.98c-3.22,5.87-40.18,77.17-46.63,65.32c-1.72-2.04-4.74-4.06-7.17-5.12  c-2.49-3.01-2.52-7.11-0.09-12.32c2.48-11.96,7.86-21.37,16.14-28.24c16.38-23.46,35.77-44.95,59.51-63.43  C160.57,1291.07,150.95,1304.05,143.31,1317.98z" />
<path class="cls-13" d="M409.84,1467.9c-23.68-6.97-39.28-23.19-41.86-48.04c1.34-2.48,0.27-8.08,5.07-5.68l6.17,3.08  c46.45,23.19,39.41,48.42,36.44,49.17L409.84,1467.9z" />
<path class="cls-13" d="M343.96,1399.58c-5.49,4.82-16.51,1.3-23.22-1.1c-12.74-4.55-30.45-17.03-31.62-31.02  c1.39-2.28-0.64-8.48,2.39-7.77l7.99,1.89C321.14,1354.04,368.88,1399.4,343.96,1399.58z" />
<path class="cls-13" d="M199.71,1380.53c-23.39,4.89-46.06-3.18-56.24-25.23c0.66,1.44-2.58-7.41,0.71-6.69  c15.91,3.47,5.62-2.97,15.47-2.47c3.08,0.16,5.19,4.34,8.02,4.26C186.22,1349.81,213.47,1377.07,199.71,1380.53z" />
<path class="cls-4" d="M343.96,1399.58c-4.45,11.99-22.12,8.88-33.68,4.77c-6.08,8.16-8.2,17.33-15.64,21.67  c-1.64-0.07-3.8-1.66-5.36-1.44c4.51-8.14,9.81-16.12,11.89-25.76c-9.42-7.3-17.94-21.67-12.04-31.35  C301.18,1388.3,319.73,1399.75,343.96,1399.58z" />
<path class="cls-12" d="M667.16,1024.78l-100.65,73.16c-5.52-2.42-10.47-2.16-11.4-6.92c-1.2-6.17,0.44-11.31,0.03-16.6  c-1.19-15.21-8.13-29.41-11.92-45.06l4.4-24.64c2.83-2.09,4.25-3.13,4.25-3.13l-35.56,8.56l-2.15-2.26  c3.18-11.42-9.24-21.45-7.14-34.55c2.82-6.36,10.3-10.86,6.12-17.02c64.41,25.73,50.77,3.51,140.68,55.57  C661.69,1016.47,666.33,1017.49,667.16,1024.78z" />
<path class="cls-6" d="M730.98,836.96c-3.02,33.89-10.81,99.97-16.61,133.69c-2.75,16-10.34,28.63-16.13,42.73l-11.21-148.29  C702.18,857.29,714.78,843.29,730.98,836.96z" />
<path class="cls-16" d="M1080.67,1278.95l-10.72,14.29c11.74,1.91,42.44-12.23,48.39-1.17c-9.13,3.8-18.47,1.53-27.08,3.79  c19.69,7.98,85.15,21.72,88.06,43.31c2.53,18.81-55.19,25.69-69.94,26.41c28.43,14.27,58.54,11.73,88.53,10.91  c-67.46,29.88-122.88-13.58-179-7.06c35.51,24.03-44.33,9.32-49.05,17.55c28.78,26.87,69.03,31.25,107.11,33.78  c-18.73,24.37-84.13,1.49-105.48-5.36c-12.31-3.95-27.08-9.08-38.62-3.08c-2.26,1.74,1.81,9.1-0.48,10.07  c-10.01,4.27-24.14-1.19-19.07,4.64c10.72,12.32,81.21,18.34,95.18,23.39c-12.19,4.78-23.44,8.42-36.45,7.24l-5.35,2.15  c-33.56-5.48-66.34-14.09-98.35-25.84c-16.5-4.15-33.79-6.09-50.77-4l30.31,14.16c2.26,1.85,3.03,3.22,1.39,5.7  c-3.19,4.85-20.59,8.23-26.67,8.6c-6.32,0.39-16.36,0.98-19.21-4.8c-6.84,0.84-14.04-0.31-21.59-3.44c0,0-10.05-1.73-30.16-5.2  c-7.9,0.56-15.11-0.29-21.62-2.56c-1.39-11.81-8.47-23.16-8.11-35.75c46.72-3.82,88.44,3.81,134.34-3.89  c-2.1-5.64-4.76-10.04-8.77-12.58c-4.39,2.07-7.17-4.45-3.41-6.89l3.98-2.59l58.28,4.55c4.18,0.7,35.83-0.78,35.04-3.05  c-1.25-3.59-21.01-22.67-25.57-26.85c-5.05-2.98-8.49-6.61-10.3-10.89c-3.78,1.37-5.24-1.19-2.64-4.06  c-0.03-0.63-0.01-1.24,0.2-1.78c0.83-2.1,39.74,1.02,44.7,1.46c5.33-0.49,9.94,0.65,13.83,3.41c1.95-3.59,8-2.46,10.64-0.02  l4.82-1.78c20.29,3.96,41.24,6.44,61.72,2.51c-11.17-10.9-22.65-21.56-35.61-30.3c-8.64,1.09-17.16,4.13-25.55,9.13l-2.39-2.09  l-4.7-1.77c-12.1-17.31-24.62-34.02-37.54-50.14c0,0-3.89-2.56-11.68-7.69c-18.39-5-37.18-9.21-56.38-12.61l-3.36-3.48  c13.55,1.24-17.4-43.36,5.28-38.55c12.01,2.55,18.99,14.04,28.06,22.94c-1.19-11.88-7.76-55.46,7.24-58.03  c18.34-3.14,27.48,38.32,31.64,53.02c7.47-16.51,36.28-67.93,57.58-56.41c22.23,12.02,1.43,72.17-0.58,91.11  c11.82-12.56,20.75-26.26,36.73-31.16c4.69,6.24-0.79,13-0.41,20.42c12.48-10.01,23.51-24.14,40.31-23.21  c1.8,19.17-14.79,31.43-24.79,46.85c11.94-3.15,23.12-10.58,34.54-6.94C1082.55,1267.07,1081.22,1275.07,1080.67,1278.95z" />
<path class="cls-3" d="M842.2,1194.48l19.36,50.81c85.5,18.93,57.84,2.21,113.66,75.7c6.28,0.4,1.52,17-0.2,21.29l-2.81,1.26  c-3.17,1.83-7.05,0.21-10.64,0.02l-5.49-2.65c-13.21-15.4-24.8-31.86-34.78-49.4c-17.99-5.25-36.15-9.86-54.48-13.84  c-2.23-5.48-3.85-11.26-4.85-17.36c-4.05,7.38-11.11,3.62-15.64-1.84c-12.8-14.59-23.33-30.86-31.6-48.82  c-8.72-15.25-22.3-26.48-38.28-33.9l-2.44-4.08c0.33-3.57,0.38-7.48,2.68-10.57L842.2,1194.48z" />
<path class="cls-16" d="M1154.42,1252.99c-14.13,10.96-31.9,5.52-47.67,10.74C1120.3,1254.05,1139.03,1249.06,1154.42,1252.99z" />
<path class="cls-16" d="M946.79,1166.05c0.08-15.23-0.26-32.78,7.7-49.09C960.04,1132.79,953.14,1149.51,946.79,1166.05z" />
<path class="cls-16" d="M1116.35,1199.1c-1.32,6.66-27.18,16.76-36.14,21.62C1081.57,1212.96,1118.2,1189.76,1116.35,1199.1z" />
<path class="cls-16" d="M908.91,1151.5c-7.69-12.96-18.27-24.88-19.48-39.47C903.84,1119.99,905.38,1137.42,908.91,1151.5z" />
<path class="cls-16" d="M1058.51,1151.79c5.08,3.23-14.6,21.26-19.26,23.42C1039.59,1168.7,1053.61,1148.67,1058.51,1151.79z" />
<path class="cls-16" d="M1042.08,1192.99l-19.63,18.81C1028.52,1187.21,1050.25,1185.16,1042.08,1192.99z" />
<path class="cls-16" d="M873.23,1187.65c-7.24-6.74-15.24-13.22-18.25-22.89C865.28,1168.32,870.36,1177.98,873.23,1187.65z" />
<path class="cls-1" d="M370.99,752.57c3.69-1.04,7.77,3.83,5.47,7.14c4.18,3.14,7.41,8.11,2.52,11.71l-3.52-0.33  c-5.28-6.96-13.41-10.49-21.66-12.63l-1.65-2.98c-2.61,1.99-6.23,3.01-10.84,3.05c-13.24,6.51-25.33,15.36-36.27,26.55l-9.12,5.66  c-0.16,3.96,15.78,21.35,19.76,25.12l0.35,4.06c11.91,9.36,26.76,12.91,41.68,13.3c0.12-1.22,0.52-1.16,1.16,0.02  c8.16-3.59,11.24,15.66,11.67,21.8l-2.2,2.01c-1.21,3.68-3.34,6.72-6.62,8.8c-14.43,11.71-29.48,22.47-45.16,32.3  c23.44,35.64-16.21,79.67-44.82,99.28l-23.53,43.8c-2.69,2.49-6.23,1.51-10.62-2.95c-4.45-2.37-9.8-1.83-16.08,1.63  c-12.57,2.53-25.52,2.81-38.85,0.84c-7.32,0.57-14.53,1.96-21.64,4.17l-6.84-0.37c-3.85-1.56-7.34,1.55-11.02,1.53  c-4.02-0.02-6.92,0.11-10.55,1.96c-9.42,0.35-20.43,2.99-29.58-3.05l25.75-23.51l3.14-2.86l42.42-0.12  c17.66-0.38,35.62-3.4,50.89-12.82c-18.61-1.36-36.89-5.95-52.73-16.08l-53.29,22.17l-2.51-1.86c-2.6-1.75-5.37,0.38-8.31-4.05  c11.11-2.4,18.91-11.31,28.23-14.78c10.23-3.81,17.22-10.47,25.41-17.5c30.09-25.86,35.31-66.7,104.36-104.54  c38.26-20.97,0.93-51.65,30.61-102.52c6.55-11.23,18.27-22.03,31.47-24.76C343.24,738.71,358.11,746.58,370.99,752.57z" />
<path class="cls-6" d="M263.82,1063.38l3.03,2.06c1.01,12.05,4.19,23.27,9.53,33.65c14.82,12.26,34.45,14.91,52.91,17.31l2.66,3.06  c-1.39,1.28-1.87,5.22-5.11,4.45c-17.06-4.08-33.92-9.14-50.93-10.51c-23.91-1.93-134.37,13.27-175.96,5.66  c15.87-28.31,126.5-55.87,155.71-61.15C259.23,1055.57,264.9,1059.15,263.82,1063.38z" />
<path class="cls-2" d="M64.33,1355.21c2.99,0.72,3.85,3.25,2.58,7.58c-1.14,7.45-3.42,14.31-6.86,20.56  c-3.28-0.21-7.47-1.97-10.2-0.15c-5.26,3.51,0.47,8.28,0.39,11.07c-2.09,3.25-10.43,5.01-7.69,11.23c2.12,4.81,7.1,7.37,14.9,7.82  c-4.68,2.69-2.94,7.28-3.95,10.59c-6.18,20.18-9.24,40.88-14.36,63.53l-11.16-38.71c-7.13-24.72-1.47-51.73-0.99-77.1  C39.67,1366.53,50.69,1357.68,64.33,1355.21z" />
<path class="cls-12" d="M113.92,1225.56c2.06-3.05,4.99-1.76,6.51,1.34c8.95,7.69,20.18,11.33,20.2,24.91  c0.01,5.79,4.42,8.98-0.33,15.26c-5.61,7.43-28.41,4.54-39.55,4.82c-2.12-0.59-4.16-0.94-6.13-1.07l-0.68-2.06  c-8.87-7.23-17.83-13.53-26.35-23.28c2.72-6.61,4.44-14.52,7.81-17.95C90.48,1222.63,101.24,1219.41,113.92,1225.56z" />
<path class="cls-4" d="M100.76,1271.9c-11.38,24.22-17.73,50.98-24.71,76.91l2,2.78c-3.19,7.88-4.78,15.89-4.78,24.02l-2.29,2.38  c-4.29-1.86-7.88,3.95-10.92,5.37c-0.46-9.81,5.95-18.86,4.28-28.14c11.07-28.03,19.48-57.71,29.61-86.43  c1.65,1.34,4.7-1.98,5.9-1.34C101.23,1268.17,101.31,1270.72,100.76,1271.9z" />
<path class="cls-3" d="M120.43,1226.91c-2.32,0.32-4.48-0.36-6.51-1.34c5.01-14.76,16.86-17.22,27.12-24.08  c30.62-20.45,55.73-45.26,83.91-66.95c-7.5,11.94-19.49,19.43-28.9,29.91c-18.85,20.97-40.38,38.64-67.08,49.36  C124.9,1218.16,125.74,1224.9,120.43,1226.91z" />
<path class="cls-2" d="M105.56,1337.63c-8.12,11.62-14.4,27.83-16.06,40.55c-6.75,0.2-12.18,2.55-18.53-0.2  c-2.16-9.43,2.55-19.78,5.08-29.18L105.56,1337.63z" />
<path class="cls-6" d="M75.29,1194.94c10.98-7.97,26.46-10.73,41.44-11.78C104.19,1187.94,91.92,1194.05,75.29,1194.94z" />
<path class="cls-9" d="M30.92,328.14c6.54,0.59,21.35,5.67,21.49,13.25l2.91,0.84c4.45,7.28,11.05,13.12,19.82,17.51l-0.3,3.16  l1.53,3.72c-3.37,12.31-6.96,24.55-10.78,36.72l-3.74,1.46c-2.31,3.3-4.73,2.54-4.33-1.6c-1.44-0.36-2.62-1.11-3.17-2.51  c-0.3-9.82-2.53-18.83-6.69-27.03c-0.34,8.06,0.54,16.04,2.63,23.92l-2.19,2.77l-0.67,2.78c-11.47,0.28-21.89,3-31.28,8.16  l-2.98-0.03l-2.22-3.09c5.86-15.18,13.43-29.83,22.7-43.96c-5.47,4.74-9.79,10.53-12.94,17.37c-3.87,1.53-5.74,1.68-5.58-2.98  c2.39-15.19,5.73-30.24,9.94-45.01c0.29-1,0.98-1.9,1.72-2.83c0.75-0.95,1.65-1.78,2.59-2.58L30.92,328.14z" />
<path class="cls-12" d="M34.89,505.22l-2.67-0.41c-4.56-0.88-9.24-1.83-14.03-2.84c-1.4-0.79-13.61-12.28-14.14-13.66  c-2.37-6.14-1.85-17.9,2.64-22.95c17.17-19.29,69.28-5.52,65.4,25.24c-1.08,8.54-5.52,18.39-15.67,15.71  c-3.51,2.82-7.99,3-13.44,0.52C39.07,507.53,36.37,507,34.89,505.22z" />
<path class="cls-9" d="M113.97,523.53c-9.3,28.03-21.26,55.13-29.08,84.59c8.29-9.03,14.96-19.31,27.81-25.16  c-5.67,15.41-8.33,33.12-19.13,46.53c-16.87,20.96-32.63,42.13-53.51,63.37c-1.02-15.23,7.44-28.21,13.64-40.31  c2.75,5.52-3.69,11.16,4.26,15.47l18.86-50.23l31.81-96.98C110.19,516.61,115.04,519.61,113.97,523.53z" />
<path class="cls-12" d="M48.1,400.34c2.46-3.58,8.2-0.6,9.42,2.85c0.94,0.88,3.27,1.15,4.33,1.6c2.81-1.86,4.92-1.17,5.18,2.45  c2.04,2.45,4.32,4.95,7.56,5.73c3.65,0.66,4.02,3.3,0.57,4.78l1.29,1.47c0.23-3.82,3.24-3.54,4,0.15c2.82,2,3.22,5.41,1.22,10.22  c-0.7,6.04-2.94,9.68-6.7,10.94c-2.65,5.45-14.44,6.03-20.63,6.29c-15.75,0.66-40.31-8.13-44.38-25.07  c-0.9-3.75-1.73-10.47,3.21-10.49C15.91,402.52,48.79,400.45,48.1,400.34z" />
<path class="cls-12" d="M113.97,523.53c-1.45-0.13-2.84-2.58-5.34-2.7c-9.78-4.11-22.2-13.92-19.81-27.15c1-5.52,5.79-7.9,13.29-10.44  c22.41-7.61,55.58,17.48,48.4,34.04C145.38,529.07,126.7,528.37,113.97,523.53z" />
<path class="cls-9" d="M84.31,674.03c-7.38-0.62-10.47,8.33-19.7,7.83c24.67-31.4,38.19-56.06,72.05-77  c4.94-3.06,5.56-12.47,13.52-12.95c-15.94,22.61-27.76,43.48-45.82,62.82c12.17-2.22,20.34-9.33,31.86-8.16  C123.73,662.63,104.64,675.73,84.31,674.03z" />
<path class="cls-12" d="M155.26,467.52l-1.64,2.92c-20.81,5-39.21-1.74-52.79-17.98c0.7-3.2,0.25-5.02-1.38-5.47  c-1.43-4.57-0.66-7.53,2.31-8.89c10.56-17.65,43.9-9.12,54.76,5.44C163.47,452.85,161.09,460.4,155.26,467.52z" />
<path class="cls-13" d="M199.74,516.93c-5.19,3.28-15-4.59-18.96-8.78c-4.23-4.46-8.94-10.86-5.32-16.86  c0.75-6.15,4.39-10.88,10.91-10.18c11.46,1.23,23.99,7.32,30.3,16.71c3.98,5.91,5.5,13.64,0.6,17.99  C213.98,518.74,204.74,518.96,199.74,516.93z" />
<path class="cls-13" d="M177.86,585.71c-7.36,8.22-30.46-0.81-29.91-7.91c-6.37-1.9-8.22-9.14-6.69-14.2  c1.8-5.96,7.36-9.12,14.09-7.54c9.23,2.17,18.21,7.45,23.24,15.25C181.91,576.46,180.95,582.25,177.86,585.71z" />
<path class="cls-13" d="M40.02,301.21c-3.65,2.8-7.65,1.53-12-3.81c-6.91-1.16-17.31-10.43-10.38-16.56  c10.73-9.49,37.95-0.04,38.99,14.28C57.31,304.68,45.31,299,40.02,301.21z" />
<path class="cls-6" d="M94.16,407.55c-0.01,7.51-0.99,42.16-4.87,46.25c-0.57,0.61-1.12,1.14-1.74,1.27  c-1.32,0.27-11.94-9.49-13.3-11.43l0.73-3.12c2.86-6.56,5.41-14.13,5.48-21.16c-1.32-5.8,4.56-14.25,10.53-14.73  C91.97,405.69,93.05,406.64,94.16,407.55z" />
<path class="cls-12" d="M210.64,553.02c2.96,8.61-16.53,27.04-23.48,21.77c-4.67-3.55,16.98-33.59,22.55-37.28l4.37-0.52  C220.29,541.51,210.44,546.84,210.64,553.02z" />
<path class="cls-16" d="M1128.95,922.73c-2.81,1.9-5.48,4.72-7.62,7.69c24.81,3.81,52.05,3.96,72.82,19.6  c-12.31,9.65-24.91,4.79-36.56,10.88c-17.39,9.08-39.26,1.42-59.87,3.81c8.97,4.36,19.36,5.13,28.62,7.73  c-9.49,0.1-20.63,4.08-31.39,1.21c-21.12-5.65-42.42-10.06-64.1-7.52c10.76,5.98,22.79,0.9,32.98,8.9  c-32.06,19.58-85.27-11.73-110.12,0.1c14.76,15.18-5.38,18.07-18.21,18.75c-20.16-1.03-40.21-1.61-60.12-1.76  c-13.8,5.61-28.65,7.41-44.54,5.41l-3.09-2.74c3.24-6.31,7.04-12.94,10.87-18.61c13.47-3.97,27.57-5.75,42.31-5.33l45.13-1.62  c-4.09-6.3-7.07-12.8-8.91-19.48l3.1-2.21c29.42,2.94,58.95,5.62,88.58,8.04c8.84,0.95,16.01-0.91,21.5-5.57  c-1.81-7.62,1.72-8.96,10.59-4.01c5.3,1.8,44.27,3.08,45.18,1.01c0.75-1.7-24.22-21.8-28.1-24.24c-7.75,1.48-15.2,4.93-22.32,10.36  l-3.49,0.04c-4.13-8.21-8.78-16.11-13.95-23.69c-3.02-2.03-4.41-4.38-4.16-7.06c-0.78-1-1.36-2.05-1.75-3.17  c-14.63-9.09,0.49-11.67,8.96-5.02c-2.35-4.8-5.04-19.9,1.72-21.21c5.17-1,11.02,10.45,13.07,14.53c2.29-5.45,7.03-4.5,10.35-0.34  c11.47-33.37,29.23-15.37,22.78,10.34c6.2-7.21,12.94-10,20.21-8.36c1.65,5.22,1.27,10.75-1.14,16.59  c15.06-11.44,35.5-10.36,17.99,11.86l16.02-3.6C1130.17,911.48,1138.03,919.61,1128.95,922.73z" />
<path class="cls-10" d="M908.04,1017.02l-5.24,2.41c-16.24-0.28-32.53-1.62-48.33-5.58l-32.37-5.41c0.73-5.04,3.41-9.29,5.65-13.65  c16.32,0.28,32.29,1.79,44.77-4.02c5.91-7.32,72.89,9.18,84.94-6.46c-1.26-2.41-3.08-3.9-3.94-4.65c-1.41-1.22-1.9-3.53,0.2-4.53  c3.64,1.89,13.89-0.16,12.39,5.89c8.12,4.88,21.04,3.21,33.33,5.15c0.1,3.06-3.87,1.62-5.44,5.6c10.22,5.25,20.52,5.26,31.99,7.93  c-32.49,6.22-65.8,6.08-99.21-0.56C925.48,1011.06,917.1,1014.05,908.04,1017.02z" />
<path class="cls-10" d="M1122.16,1044.16c-42.48,7.24-88.17,9.37-131.58-6.38L1122.16,1044.16z" />
<path class="cls-16" d="M908.04,1017.02l47.24,2.95c-34.09,5.1-70.3,4.47-100.81-6.13C871.94,1016.76,890.15,1015.9,908.04,1017.02z" />
<path class="cls-16" d="M1154.69,988.41c-31.43,3.84-66.01,3.9-96.37-6.33L1154.69,988.41z" />
<path class="cls-3" d="M980.53,877.53l3.34,0.18c5.18,8.19,12.72,13.89,22.6,17.1c3.75,2.22,6.28,4.75,7.58,7.58  c9.63,6.18,14.05,17.22,19.12,28.87c8-3.14,16.74-12.74,25.8-10.95c12.61,7.81,22.53,18.98,34.06,29.36  c-16.79-0.66-50.8,4.9-61.27-5.52c14.78,29.89-99,2.31-112.86,6.32l11.77,21.7c-31.66,0.21-61.9,1.66-92.08,4l17.03-52.82  c14.08,1.55,24.98,9.7,36.15,17.65c6.27,3.41,14.99,5.03,22.92,4.72c-15.11-19.23-32.13-34.44-51.62-48.83l20.14-68.45  c12.59,8.08,13.02,24.07,22.96,33.59c14.41,13.8,34.01,21.18,51.47,33.83C964.62,900.89,981.92,885.76,980.53,877.53z" />
<path class="cls-15" d="M1112.62,862.84c-6.54,8.84-12.48,13.13-21.57,16.3C1096.16,871.98,1103.71,861.39,1112.62,862.84z" />
<path class="cls-16" d="M1038.71,860.85c-2.77-9.33-8.05-18-9.47-29.09C1037.51,838.59,1038.85,849.63,1038.71,860.85z" />
<path class="cls-16" d="M1066.22,865.21c2.21-10.19,4.84-22.74,13.96-27.9C1078.27,848.75,1070.18,855.82,1066.22,865.21z" />
<path class="cls-7" d="M972.03,1457.68c0.3,4.25,5.46,1.34,7.61,2.71c1.98,1.26-2.66,4.07-2.14,6.23l-1.15,1.66l-13.41-1.76  c-46.25-14.06-134.64-9.29-109.14,5.35c1.85,1.06,4.81,2.13,7.28,4.24c-0.76,0.66-1.55,1.28-2.42,1.73  c-7.5,3.92-61.34-9.11-62.6-14.97c-0.74-3.46,2.53-5.9,5.54-6.62l1.79-2.59c13.97,4.42,33.19,2.24,45.13-6.25l-41.3-19.3  C876.17,1418.98,897.51,1450.89,972.03,1457.68z" />
<path class="cls-7" d="M885.17,1482.36c16.38-1.27,37.94,5.8,53.26,12.16c-46.75,10.98-92.33,2.25-136.84-1.66  c-7.51-0.66-15.75-2.49-19.72,4.65l12.57,10.84c-14.84,8.53-30.97,2.8-46.09,4.87c-2.38-10.72-5.35-21.33-8.51-31.97  c0.62-0.81,1.28-1.59,2.06-2.22c6.57-5.36,42.37-2.66,52.64-1.72c28.18,4.89,55.44,6.79,83.81,3.12  C878.35,1480.43,880.62,1481.07,885.17,1482.36z" />
<path class="cls-10" d="M803.39,1453.68c0.25,1.28,2.01,3.08,1.33,4c-1.39,1.89-4.58,0.59-6.96,4.35c19.31,8.64,42.19,13.8,63.32,14.09  c7.57,3.5,21.31-1.37,24.09,6.24c-22.19,1.72-42.33,4.88-65.96,1.04c-26.16-4.25-54.27-7.29-79.36-2.14  c-3.84-12.95-8.25-25.44-9.82-38.78C755.5,1440.12,779.35,1446.07,803.39,1453.68z" />
<path class="cls-16" d="M977.5,1466.62c47.15,6.5,93.54,15.13,142.43,15.1c-36.31,16.65-122.22-4.62-156.99-15.19  C967.71,1466.9,972.76,1465.97,977.5,1466.62z" />
<path class="cls-2" d="M961.58,1343.56l-58.72-3.09c-3.99,4.78-15.06-0.82-19.98-3.72c-17.43-10.27-27.9-32.34-36.07-50.06  c-12.29-12.73-26.52-23.37-42.7-31.92c-11.79-8.86-22.38-19-31.76-30.43c-3.09-1.29-4.68-3.19-4.76-5.69  c-0.72-15.75,4.95-31.13,6.42-46.98c53.08,23.76,42.08,55.49,77.78,88.35c1.64,1.5,3.96,2.04,5.73,1.59  c2.05-0.52,1.59-4.12,4.46-6.46c4.91,5.86,3.63,13.63,6.27,20.56c18.64,4.31,36.81,6.96,54.73,13.86  C933.98,1309.78,948.03,1326.28,961.58,1343.56z" />
<path class="cls-2" d="M905.5,1344.53c16.08,9.59,27.75,25.44,42.06,40.45c-45.17,7.58-63.76-0.98-103.49-1.63l-3.59,0.33  c-10.14-14.61-18.04-30.78-23.71-48.52c-11.21-23.11-39.63-41.53-61.46-54.39l-2.68-4.2c3.68-9.14,5.33-19.51,7.83-29.48l3.81-0.42  c9.55,11,20.31,19.82,32.27,26.48c25.46,6.56,38.76,18.79,49.56,42.37c9.68,12.56,42.56,23.66,57.92,28.7  C903.17,1345.38,903.66,1345.49,905.5,1344.53z" />
<path class="cls-3" d="M902.85,1340.47c1,1.1,1.51,3.12,2.64,4.06c5.21,10.21-50.52-17.95-53.66-19.93  c-10.56-6.67-13.76-19.41-20.66-29.12c-9.62-13.51-26.88-14.92-40.96-22.36c-11.69-6.18-19.39-18.36-29.75-26.03l7.13-28.43  c11.49,4.32,16.51,16.4,25.92,24.75c17.24,15.3,40.59,22.72,55.55,41.87C859.49,1308.59,875.24,1339.02,902.85,1340.47z" />
<path class="cls-3" d="M844.06,1383.36c0.95,2.2,1.07,5.41,3.41,6.89c-1.09,0.8-2.29,1.89-3.32,2.13c-2.05,0.48-2.72-1.54-4.11-2.6  c-30.89-23.59-27-41.07-57-52.59c-15.89-6.1-28.05-15.5-39.36-27.3c3.43-11,4.55-22.39,8.96-33.32  c20.62,9.1,40.45,26.24,57.04,42.67C824.03,1333.47,828.37,1370.1,844.06,1383.36z" />
<path class="cls-3" d="M193.86,256.08l2.8,0.41c7.1,37.41,14.2,74.83,21.3,112.26l-2.33,2.09l-3.44,1.13  c-16.78-8.76-37.56,0.01-13.02,15.37l0.39,3.46l-1.03-0.6c-0.69,2.28-12.8,26.51-14.31,26.87c-2.47,0.59-3.35-0.48-2.07-2.37  c-10.26-8.66-22.31-14.45-34.57-19.8l-2.39-1.71c1.92-3.5,0.67-2.8-3.75,2.09c-1.36,0.28-17.05-8.44-15.62-12.26  c-10.34-8.63-25.21-10.03-32.96-19.59l2.21-2.88c12.97,1.86,16.7-8.59,8.67-17.27c-12.46-13.49-31.75-20.02-47.64-8.41  c0.82,4.86-0.41,7.03-3.7,6.51c-5.8-6.48-15.17-7.49-21.49-13.25l77.87-32.11L193.86,256.08z" />
<path class="cls-6" d="M224.94,377.71c-3.63,3.42-10.59-2.75-9.3-6.88l-21.77-114.76c10.88-5.11,22.37-13.79,30.91-21.37  C229.63,281.5,226.12,330.39,224.94,377.71z" />
<path class="cls-6" d="M208.9,184.96c2.63,5.41,4.75,11.18,10.45,12.92c1.9-2.08,5-2.04,9.32,0.13c3.43-0.19,5.77,0.71,7.05,2.68  l-94.81-2.73C161.57,185.76,186.88,184.86,208.9,184.96z" />
<path class="cls-13" d="M239.73,192.98c-0.68,1.02,0.72,3.9-0.2,5.46c-0.64,1.07-2.18,1.83-3.8,2.25c-5.81,1.48-11.05-1.18-16.37-2.81  c-0.67-1.62-0.93-3.36-0.91-5.11c0.24-2,0.64-2.91,2.41-3.29c0.89-0.19,16.1,1.29,18.06,1.66  C239.28,191.21,239.52,191.99,239.73,192.98z" />
<path class="cls-4" d="M242.28,188.58c-0.01,1.97-1.48,3.13-2.56,4.4c-7.14-0.43-14.38-2.41-21.29-0.21  c-2.22-3.08-2.34-6.98-3.21-10.6C220.97,190.64,232.61,189.98,242.28,188.58z" />
<path class="cls-4" d="M40.02,301.21c-8.72,5.75-7.98,17.72-10.63,26.95c-4.97,17.32-9.35,34.82-12.1,54.07  c5.6-10.14,10.56-19.9,21.3-23.64c-5.92,19.79-23.18,33.95-25.41,52.67c-4.81,12.89,6.7,22.51,18.54,28.76  c12.92,6.81,29.11,4.18,43.25,0.51c3.83,4.23,8.45,7.01,12.41,13.01l6.77-45.98l4.63,44.78c4.42-4.61-0.05-10.21,2.97-14.23  c-6.7,11.2,8.94,19.23,14.45,24.28c9.37,8.59,26.44,6.84,39.05,5.15c4.3,0.1,8.62,6.22,11.01,9.18c3.29,4.08-1.97,12.03-2.64,16.33  c-0.62,3.92,4.72,7.11,6.48,4.92l5.37-6.66c1.61,12.96,11.58,20.48,24.28,25.64c-0.1,2.13-0.03,4.34,0.98,6.47  c2.31,4.84,10.64,2,12.53,5.93c1.25,2.6,1.14,5.19,0.83,7.66c-10.43,9.92-19.88,21.68-25.54,36.98  c11.07-3.26,17.91-11.35,22.1-20.95l2.06-0.06c0.04,2.43-2.44,4.6-1.09,7.99c7.64-4.92,13.47-10.47,21.7-11.33l-32.16,31.81  c-2.31,2.28-3.13,5.53-3.32,8.33c-1.57,22.68,41.56-25.53,63.23-25.86c-14.03,13.48-30.48,23.42-43.89,39.8  c19.45-0.57,38.06-5.51,56.69,1.82c-22.46,4.02-45.22,3.93-65.03,17.99c20.13,1.54,38.45,0.37,55.21,9.74  c-15.3-0.15-28.66-2.51-45.54,1.41c2.07,15.74-13.87,26.25-29.69,27.56c-3.2,2.15-3.94,6.38-6.59,9.11  c-9.2,3.91-100.25,21.43-93.28,33.05c0.65,1.09,2.04,3.27,3.65,2.9c0.01,2.65,0.15,5.3,0.73,7.89c-11.18,18.18-33.45,8-45.47,10.67  C29.97,729.8,16.59,742.53,0,744.64v-97.77c7.6,8.06,7.48,20.21,13.96,30.55c1.33-24.87-0.81-51.08-13.96-72.07v-44.2  c35.06,68.37,17.2,37.29,26.14,111.23c7.27-21.66,9.15-43.3,23.4-60.32c-2,14.99,0.39,29.02-3.63,44.99  c15.62-13.81,18.12-36.98,10.29-57.62c7.83-21.04,12.02-42.71,11.5-65.76c-24.62,28.28-33.87,60.82-38.58,98.27  c-3.49-41.88,4.52-83.9,5.77-126.75c11.83-4.88,20.55,7.23,17.73-2.96c-0.36-1.3,1.45-1.49,2.28-0.64c0.62,0.64,1.73,2.49,4.19,2.65  c8.06,0.54,12.91-13.97,9.16-24.04c-7.66-20.59-41.17-27.4-58.6-13.89c-7.42,5.76-3.11,11.25-3.57,16.19  c-0.89,9.61,6.12,7.08,10.55,14.57c3.64,6.16,12.06,0.25,15.58,7.71c-3.5,5.77-4.4,13.12-4.82,20.58l-4,70.52  c-6.06-24.9-7.87-50.91-23.4-69.58V352.23c5.5,4.6,4.1,12.96,9.02,20.31c5.38-17.42,12.96-34.57,15.24-52.42  c0.96-7.49,12.31-17.02,3.75-22.72C32.28,298.12,35.44,301.34,40.02,301.21z" />
<path class="cls-16" d="M1116.01,1405.77c-30.67,7.42-61.02-4.2-86.21-13.72C1061.35,1397.92,1087.44,1402.93,1116.01,1405.77z" />
<path class="cls-5" d="M1095.66,1432.46c-4.37,1.55-7.78,0.38-11-1.66C1089.04,1429.63,1092.29,1431.11,1095.66,1432.46z" />
<path class="cls-2" d="M246.12,1441.92c2.08,3.72,5.77,5.61,10.33,8.42c-4.03,3.49-6.2,7.91-3.95,10.89c2.83,3.76,8.21,3.37,13.2,2.21  l1.08,12.3l-32.97,51.05l-37.6,8.82c14.32-19.48,25.13-41.11,30.31-64.61c-10.08,6.48-11.68,16.97-21.58,20.86  c4.15-8.81,4.86-17.95,7.17-28.02C224.66,1458.02,234.66,1448.65,246.12,1441.92z" />
<path class="cls-6" d="M96.12,89.56c1.82,7.64,8.98,10.45,16.49,9.49c-18.57,1.89-37.92,1.98-59.19-1.81  C67.47,92.47,81.73,89.66,96.12,89.56z" />
<path class="cls-11" d="M42.5,1288.26c0.46,6.16-7.53,7.65-12.07,6.87c-3.85-0.66-11.52-3.28-10.71-8.85  c0.66-4.54,7.67-6.81,10.97-5.2C34.02,1282.72,42.16,1283.76,42.5,1288.26z" />
<path class="cls-7" d="M383.29,325.18l-30.08,53.45c-6.45,7.58-17.51,11.08-24.96,16.58l-24.17-100.74  c4.34-13.97,11.42-27.11,18.5-39.83c15.8,9.68,31.22,19.32,49.37,27.1C377.05,296.21,381.45,310.52,383.29,325.18z" />
<path class="cls-2" d="M310.63,428.98c-6.54,0.24-15.58-0.14-18.79-5.98l58.5-31.43c16.41,13.63,35.67,13.38,57.77,17.1  C379.06,429.09,343.49,427.77,310.63,428.98z" />
<path class="cls-16" d="M558.45,153.88c4.07,7.53,6.77,15.54,6.01,24.8c-8.96,1.93-14.35,8.85-16.37,16.82  c-19.52,6.5-39.9-5.64-59.67-13.46c8.34-7.58,26.14-10.22,35.5-10.56l2.02-2.5c6.86,2.58,14.51,0.69,8-6.47l0.92-2.07  c-3.27-1.97-3.57-4.41,0.02-6.01c3.31-4.5-3.64-8.06-3.4-13.18C541.68,142.87,550.68,146.65,558.45,153.88z" />
<path class="cls-14" d="M443.42,269.41c-6.03,3.66-11.21,11.78-18.94,13.07c-3.44-4.1-3.86-10.44-6.31-14.61  C426.54,267.58,436.01,265.35,443.42,269.41z" />
<path class="cls-16" d="M538.48,223.67c-17.06-0.32-35.51-2.24-47.22-14.67C505.97,218.04,521.94,220.55,538.48,223.67z" />
<path class="cls-16" d="M264.17,60.69c4.78,4.82,4.34,11.88,0.69,17.32c-10.6-0.32-23.34-0.93-27.84-11.14  c4.09-6.1,10.61-3.3,16.13-0.83l-0.17-8.49C256.73,57.99,261.02,57.51,264.17,60.69z" />
<path class="cls-15" d="M252.97,57.55c5.08-1.8,2.95,18.69-0.59,11.78c-4.03-3.42-9.63-4.46-15.37-2.46c-0.14-0.31,0-0.75-0.08-1.08  C240.22,59.91,246.43,56.79,252.97,57.55z" />
<path class="cls-9" d="M534.87,154.44c-3.23,4.93,10.56,4.18,0.59,8.09c6.17,1.36,3.13,5.93,1.68,8.52c-2,3.6-10.38,0.33-13.23,0.44  C526.15,165.52,528.27,154.76,534.87,154.44z" />
<path class="cls-11" d="M123.18,16.1c3.47,1.38,5.8,4.67,9.53,5.53c-0.43,2.41-2.08,4.3-2.79,6.6c-7.71,0.5-18.49-5.34-17.37-13.46  C114.53,11.7,121.98,12.84,123.18,16.1z" />
<path class="cls-15" d="M132.53,10.72c-2.29,3.43-7.97,1.32-9.35,5.38c-3.61,0.53-7.18-0.25-10.63-1.34c0.53-3.84,5.55-6.01,8.2-7.43  C125.26,4.92,130.33,6.84,132.53,10.72z" />
<path class="cls-7" d="M705.91,661.94c-20.39,4.81-41.59,4.37-62.18,11.04c-21.74,7.04-41.02,18.45-62.32,23.75  c5.54-36.23,13.14-72.66,20.33-108.94l78.51,25.19C691.97,628.88,693.49,649.62,705.91,661.94z" />
<path class="cls-4" d="M463.64,927.34c10.77-20.95,32.42-24.45,51.45-29.82c23.43-6.61,43.13-22,64.19-33.69  c-0.16,0.09,69.67-22.49,74.35-19.97c-20.67,13.41-46.83,11.36-67.13,23.68c-16.35,9.92-29.18,23.65-48.58,31.15  c-12.34,4.77-17.95,22.76-30.89,26.8C493.82,929.54,477.91,926.28,463.64,927.34z" />
<path class="cls-13" d="M792.57,659.02c2.08,0.99,3.46,2.97,3.1,5.31c-7.67,10.3-8.34,24.25-13.93,36.63  c-13.87,10.88-34.94,17.77-52.46,18.46c-6.81-5.9-2.44-14.32-9.02-17.62c-1.26-0.64-0.77-3-0.95-4.05l1.12-3.63  c16.65-4.32,33.9-5.26,51.73-2.82l4.63-11.56c0.55-6,2.32-10.67,5.31-14.01c-2.79-2.58-2.08-3.91,1.55-3.98L792.57,659.02z" />
<path class="cls-13" d="M774.3,646.73c2,1.22,2.08,3.92,2.02,6.22c-0.07,2.95-2.98,12.99-6.42,12.95c4.82,1.91-2.02,14.17-4.69,16.5  c-6.59,5.74-35.19,10.17-44.58,11.12c-20.46,2.07-30.27-3.26-16.01-22.49c12.77-6.4,46.95,6.46,54.63-3.59  c2.37-3.11,0.69-7.03,1.74-10.01l4.25-12.09C765.93,640.5,775.51,641.77,774.3,646.73z" />
<path class="cls-6" d="M782.09,665.73c-0.79,9.48-3.11,18.84-8.53,27.62c-20.33,2.67-35.26-6.41-54.25,4.4  c-7.03,0.02-18.69-1.71-22.8-6.8c-3.29-4.08-4.34-10.4-2.92-13.8c1.7-4.08,7.45-4.31,11.04-6.11c3.3,6.51-6.39,9.51-4.09,17.45  c9.63,7.59,59.68-3.05,63.68-8.86c2.18-3.16,4.84-9.26,5.68-13.72C770.84,661.84,780.82,661.7,782.09,665.73z" />
<path class="cls-4" d="M594.12,775.1c9.82-11.7,24.58-17.02,39.41-22.45c23.24-8.51,43.75-21.93,67.79-29.16  c-22.6,15.33-48.17,21.07-71.15,33.86C618.7,763.73,609.47,773.71,594.12,775.1z" />
<path class="cls-3" d="M775.27,994.47c2.4-28.35,11.69-55.5,13.82-83.78c1.11-14.84-0.4-28.09,3.37-43.11  c7.32-29.17,10.01-59.3,21.54-87.2c-2.41,34.73-10.18,67.73-18.46,100.9c-2.09,8.38,1.22,14.27,0.64,21.5  C793.65,934.13,785.12,964.42,775.27,994.47z" />
<path class="cls-6" d="M821.25,626.49l-2.33,10.24c-19.29-7.74-21.84-41.17-32.36-51.28C803.72,587.21,812.71,611.52,821.25,626.49z" />
<path class="cls-8" d="M783.64,661.75c0.19,1.46-1.44,2.68-1.55,3.98l-12.19,0.18c1.24-6.61,4.53-12.28,4.4-19.18  c-0.32-1.21,0.24-1.51,1.55-1.06L783.64,661.75z" />
<path class="cls-6" d="M775.85,645.68c-0.49,0.39-1.01,0.74-1.55,1.06c-2.71-1.65-5.96-1.89-9.05-1.39  c2.57-7.32-3.62-17.08-9.84-22.63C764.56,628.65,775.63,634.3,775.85,645.68z" />
<path class="cls-4" d="M472.7,446.21c-1.22,5.22-2.07,10.75-2.65,15.97c-4.26,1.08-8.52,2.45-12.07,5.1  c-0.31,3.57-1.58,3.33-2.53-0.09C456.16,455.59,465.24,451.32,472.7,446.21z" />
<path class="cls-8" d="M457.98,467.28c1.83,4.86,1.92,11.16,2.95,16.05c-1.89,4.38-8.8,4.47-10.75,0.09c0.22-1.39-0.96-2.92-1.53-4.06  c1.4-4.42,3.52-9.26,6.8-12.17L457.98,467.28z" />
<path class="cls-16" d="M742.07,349.3c-0.5,1.35-1.79,2.14-2.61,3.22l-1.78,7.87c-0.98,4.04-2.76,6.26-5.34,6.66  c-10.43,19.68,21.47,1.17,37.56,20.29c-15.34,9.37-35.2,13.37-50.84,6.4c1.09-6.89-7.91-9.1-9.96-15.43  c-2.98-9.18,5.37-21.62,13.14-25.89C727.89,349.31,735.92,349.15,742.07,349.3z" />
<path class="cls-2" d="M732.33,367.06c0.88-4.6,4.08-10.51,7.12-14.53l1.23,18.42c0.13,1.96-4.26,2.02-5.48,1.07  C733.92,371.03,732.85,369.08,732.33,367.06z" />
<path class="cls-3" d="M531.56,770.3c6.97-59.03,22.69-115.85,40.1-171.81C559.74,656.4,550.62,713.73,531.56,770.3z" />
<path class="cls-12" d="M215.64,370.84c3.62,2.33,5.73,5.9,9.3,6.88c1.87,5.14,3.08,9.68,0.96,13.71c-2.16,4.11-6.13,7.7-11.55,6.48  c-5.38-1.21-8.9-5.41-13.54-6.8c-0.56,1.11-0.97,0.97-1.24-0.3c-6.96-4.56-19.22-12.38-12.62-20.87  C192.64,362.61,208.7,366.38,215.64,370.84z" />
<path class="cls-4" d="M199.57,390.81c0.17,0.11,0.39,0.13,1.24,0.3c-3.87,9.95-9.69,18.9-14.36,28.39  c-3.68,7.47-8.32,16.08-15.07,22.46c-2.3-11.01,6.69-18.44,10.78-27.25C176.77,426.32,202.54,376.52,199.57,390.81z" />
<path class="cls-4" d="M226.47,446.16c-2.9,0.1-5.89,1.75-7.47,0.85c-1.35-0.77-1.62-5.29-0.63-6.49c4.94-5.99,16.61-19.93,25.3-17.73  L226.47,446.16z" />
<path class="cls-2" d="M128.76,1021.5c-3.9-3.78-10.04-1.36-15.08-5.09c0.88-2.33,2.71-4.38,3-6.49l56.62-23.55  c17.22,12.66,36.97,15.6,59.66,17.3C200.48,1028.03,162.38,1019.26,128.76,1021.5z" />
<path class="cls-11" d="M352.15,755.48c2.4,0.86,2.58,1.86,0.05,2.47c0.59,6.51-0.76,16.72-6.46,20.09c2.91,2.24,1.75,4.4-1.22,5.55  l-2.71,2.24c-3.34-2.51-29.23,5.03-28.42,6.25c2.48,3.72,40.33,18.89,47.67,13.79l3.34,0.81c3.95,1.38,7.77,4.09,11.45,8.14  l-0.47,3.75c1.57,3.44-10.53,14.62-12.72,15.28c-1.29,0.39-2.62-0.05-3.79-0.58c-0.38,0.02-0.78-0.07-1.16-0.02  c-14.83-0.36-29.84-3.96-41.68-13.3c-8.94-8.57-17.33-17.36-23.82-30.6C311.1,783.07,328.38,750.72,352.15,755.48z" />
<path class="cls-13" d="M375.38,818.55c-2.9-4.76-9.32-6.37-10.98-11.88c-2.8-6.57,9.26-12.3,15.18-13.43c1-6.46,0.04-13.06-2.88-19.8  l2.29-2.01c-0.76-3.76,0.22-8.19-2.52-11.71l4.02-0.76c26.84,14.82,57.06,37.07,55.31,71.02c-14.36,1.13-28.79,1.89-43.29,2.28  c-17.31-0.72-23.66-6.1-4.83-8.45c25.89-4.16,12.4-29.42,2.48-43.87c1.01,10.44-1.47,31.48-10.27,38.08  C378.38,819.13,377.44,819.59,375.38,818.55z" />
<path class="cls-12" d="M92.87,363.44c-3.59,0.42-7.72,0.82-11.2-0.4c-1.91,3.07-4.6,2.51-6.82-0.13  c-8.07-6.54-20.87-11.34-22.44-21.51c2.18-1.5,0.06-6.95,1.91-8.39c16.03-12.42,36.11-6.52,49.41,6.39  c5.4,5.24,7.76,10.24,6.29,16.75C108.23,364.07,99.95,362.61,92.87,363.44z" />
<path class="cls-4" d="M147.59,394.91l-9.85,31.23c-7.67-13.75-13.12-27.91-11.91-43.11c4.26,3.55,11.65,6.13,15.24,10.32  c9.36-14.07,2.1-29.65,14.92-40.9L147.59,394.91z" />
<path class="cls-4" d="M90.99,404.64c-3.87,4.49-7.35,9.66-10.53,14.73l-4-0.15l-1.29-1.47c-0.29-1.58-0.6-3.16-0.57-4.78  c4.08-8.29,7.3-18.91,18.38-21.57C95.55,394.42,93.62,401.58,90.99,404.64z" />
<path class="cls-4" d="M81.66,363.03c-7.56,13.62-9.56,29.48-14.63,44.21c-1.64-0.59-4.16-0.63-5.18-2.45  c7.19-12.42,7.78-28.12,12.99-41.89C77.42,361.92,79.44,362.25,81.66,363.03z" />
<path class="cls-12" d="M460.94,483.33c0.58,2.76,4,6.72,2.37,10.51c-4.23-0.33-7.87,2.32-11.97,3.12c-1.18-4.44-1.88-8.82-1.14-13.54  C453.76,483.89,457.37,483.81,460.94,483.33z" />
<path class="cls-13" d="M273.11,1060.7l1.89,0.1c3.48,8.8,6.62,17.9,9.41,27.28c10.21-0.12,20.33-1.5,30.37-4.15  c0,0,7.91,1.39,23.73,4.18l1.43,3.49c-1.07,9.99-0.37,20.83-7.99,27.87c-19.43-2.62-41.81-4.94-57.55-18.6  c-6.95-10.27-8.71-25.77-10.58-37.48C264.77,1059.55,270.4,1057.45,273.11,1060.7z" />
<path class="cls-13" d="M293.25,1040.86c3.48,1.43,4.27,5.22,1.65,7.91c1.11-0.12,2.68-0.02,2.92,0.82  c-0.03,5.58,1.68,10.15,5.12,13.71c11.23-2.88,46.24-8.49,55,3.18c3.17,4.22-1.79,7.28-0.33,12.87c1.15,9.48-11.01,9.96-17.96,9.17  c-16.83-3.33-33.65-6.69-50.46-10.09c-3.18-3.21-9.7-14.27-5.24-17.55c-6.95-2.73-0.26-20.55,5.06-22.57  C292.15,1037.11,293.51,1037.14,293.25,1040.86z" />
<path class="cls-3" d="M330.09,1208.22c4.38-17.95,20.07-29.24,34.45-39.67c12.89-9.36,19.89-19.88,29.39-31.19  c12.53-14.92,28.67-26.77,43.57-39.24c-6.17,8.76-13.59,18.22-22.17,24.12c-15.32,10.53-20.86,26.82-33.96,38.86L330.09,1208.22z" />
<path class="cls-3" d="M547.62,1004.72c-16.18,3.06-31.82,10.73-47.71,10.71c-24.78-0.03-47.05,5.34-72.3,3.54  c30.29-11.52,62.18-5.9,86.54-11.08l71.53-16.2C572.97,997.7,560.26,1002.33,547.62,1004.72z" />
<path class="cls-6" d="M275.54,1059.11c2.74-1.57,6.91-1.38,8.41,1.77c0.73,4.66,3.7,9.25,5.23,15.07  c11.37,0.47,69.75,20.29,68.43,3.4c1.34,5.12-0.05,8.29-4.93,10.03c-3.38,1.21-9.54,3.85-12.73,2.21  c-25.27-12.98-35.5,2.22-58.01-1.12l-8.82-29.77C271.08,1057.4,272.73,1056.37,275.54,1059.11z" />
<path class="cls-8" d="M294.93,1034.91c2.3-0.36,6.73-0.61,7.58,1.25c0.86,1.87,1.88,21.67,0.42,27.14  c-7.25,1.86-6.61-8.87-8.04-14.53l1.65-2.55c-0.46-1.93-1.56-3.72-3.3-5.36c-1.5-0.66-5.2-2.79-6.35,0.23  c-2.26,5.94-3.93,13.61-2.95,19.79c-2.96,0.43-6.25,0.56-8.41-1.77c-3.92-3.74,2.94-15.19,6.17-19.05  C284.62,1036.58,291.57,1029.94,294.93,1034.91z" />
<path class="cls-2" d="M972.21,1343.54c0.44-7.76,5.39-15.08,3.01-22.55c9.37-2.35,18.37-11.5,28.96-9.45  c14.57,9.41,27.18,21.86,40.14,34.37C1019.46,1351.65,995.98,1348.3,972.21,1343.54z" />
<path class="cls-16" d="M378.98,771.43c1.51,7.44,6.51,16.19,2.46,24.21c-6.77,0.63-13.22,5.17-17.05,11.03  c-10.02,10.33-47.48-9.2-57.6-15.24c13-4.75,25.2-10.59,37.73-7.84c1.04-2.26,3.46-2.57,7.25-0.91c4.3-3.15,5.35-8.67,3.17-16.57  c-2.91,0.99-3.82-1.73-2.73-8.16c0.2-0.76-0.2-1.69-0.05-2.47C362.61,757.58,372.76,761.89,378.98,771.43z" />
<path class="cls-15" d="M357.71,833.23c-15.35,1.82-30.66-2.74-41.68-13.3C329.05,828.25,343.08,830.57,357.71,833.23z" />
<path class="cls-16" d="M368.33,857.06l3.91,0.86c6.88,11.7,12.52,30.36,12.42,43.96l-2.29,3.27c0.64,5.11,0.79,12.6-0.1,17.66  c-8.68,49.15-49.55,84.22-87.33,112.1c-11.28,1.74-15.96,13.9-19.4,24.2c-1.17-0.31-1.77,1.16-2.43,1.59  c-2.78,0.73-6.31,2.43-9.28,2.68c-2.53-2.06-5.56-3.59-8.17-5.47c-2.73-1.97-4.69-7.56-9.62-7.88c-30.49,6.31-63.29,6.12-91.86-5.46  c44.34-15.81,39.46,4.02,77.62-10.97c3.88,0.29,9.63,2.87,13.29,7.75l24.71-45.98c26.9-15.86,69.92-68.28,43.04-97.44  C333.19,884.44,350.91,871.39,368.33,857.06z" />
<path class="cls-11" d="M118.42,1242.91c-0.04,8.58-7.57,5.81-11.12,4.42c-4.55-1.78-10.66-5.44-7.62-11.11  C103.98,1233.5,118.45,1236.44,118.42,1242.91z" />
<path class="cls-4" d="M57.53,403.2c-3.14,0.49-6.33-2.37-9.42-2.85c-1.95-10.43-5.22-21.72-1.91-33.03  C56.53,377.94,55.09,391.26,57.53,403.2z" />
<path class="cls-11" d="M50.35,478.2c0.63,4.66-7.87,5.83-10.87,4.33c-2.85-1.43-9.87-4.4-7.63-9.06  C34.95,467,49.45,471.62,50.35,478.2z" />
<path class="cls-11" d="M60.32,419.01c-7.41,6.41-17.94,3.16-21.92-4.91C45.73,410.63,54.4,411.17,60.32,419.01z" />
<path class="cls-11" d="M130.31,500.46c-1.77,8.64-17.93-0.9-16.89-6.59C116.41,489.37,130.99,494.23,130.31,500.46z" />
<path class="cls-11" d="M143.53,446.67c-6.97,5.44-15.02,0.35-19.48-6.57C130.97,438.39,138.75,440.17,143.53,446.67z" />
<path class="cls-7" d="M1200,754.41v180.63c-23.15-6.38-47.08-12.84-71.05-12.31c0.61-1.07,1.13-2.36,1.28-3.32  c1.28-8.22-24.46,2.72-30.13,2.51c4.02-7.8,11.85-11.92,9.9-20.69c-10.52-1.45-18.33,6.35-27.75,11.13  c3.18-6.98,6.48-14.37,5.59-21.66c-9.61-0.71-14.16,8.23-21.58,12.25c-0.11-10.26,4.41-24.31-2.85-31.08  c-10.43-1.88-13.12,13.61-16.25,21.24c-2.38-1.6-2.7-4.09-3.49-5.02c-1.31-1.55-4.03-2.7-4.55-0.87l-1.94,6.87  c-4.81-5.73-6.44-14.48-13.77-19.03c-5.66,8.49,1.07,16.27,2.56,25.28c-6.05-3.77-12.06-8.56-18.5-7.16  c3.57,3.1,9.67,5.58,6.61,9.21c-21.82-14-21.31-6.38-33.53-24.87c-1.61-13.48-19.24-23.75-30.28-31.91  c-14.13-25.03-28.07-48.34-56.32-60.68c0.46-11.86,5.04-20.88,6.63-31.03c45.01-0.56,90.08,0.42,135.58,3.37  c10.56,0.68,22.07,0.71,30.7,7.5c-22.02,11.08-44.89,5.11-68.99,9.52l94.9,9.54c26.8,2.69,52.86,5.51,78.96,0.32  c-15.11-6.96-30.41-4.71-43.63-14.22C1142.04,758.11,1186.5,763.96,1200,754.41z" />
<path class="cls-12" d="M181.74,351.18c-5.18,15.23-40.95-5.25-50.39-15.75c8.34-10.94,21.53-12.66,32.09-8.05  C171.23,330.78,185.27,340.81,181.74,351.18z" />
<path class="cls-9" d="M344.52,783.59c-1.16-2.1,0.93-3.81,1.22-5.55c1.28-1.72,3.09-2.07,5.43-1.05  c-0.93-7.31,0.33-10.93,3.76-10.88c3.34,4.11,3.35,9.61,1.65,15.46C354.78,787.79,350.3,784.85,344.52,783.59z" />
<path class="cls-1" d="M354.94,766.11c-3.16,1.53,1.82,12.22-3.23,13.43c-1.63,0.39-4.07-0.76-5.96-1.5  c1.17-6.99,4.64-13.25,6.46-20.09L354.94,766.11z" />
<path class="cls-6" d="M458.31,627.76c2.89,40.29-7.62,83.06-9.35,126.24c-1.07,26.69-0.18,53.04-8.03,78.45l-13.14,42.51  c-13.98,11.95-30.09,21.54-45.43,30.19c-2.06-16.57-4.03-35.11-14.04-48.09c-2.57-8.02-1.26-19.38-9.47-23.81  c6.29-4.16,11.26-10.4,16.51-14.7c12.74-10.42,13.91-30.97,10.88-48.9c8.67,12.08,20,27.5,18.97,43.06  c-0.78,11.7-19.37,15.27-28.53,14.77c18.88,5.18,38.42-1.09,57.61,1.14c-3.57-37.26-31.17-53.37-57.84-68.9  c-1.84-2.37-4-4.5-5.47-7.14l13.17-78.76C407.91,658.17,433.46,641.02,458.31,627.76z" />
<path class="cls-11" d="M294.9,1048.77c-0.66-2.61-1.15-5.27-1.65-7.91c1.06,0.46,2.95,0.23,3.81,0.72c1.6,0.92,1.78,3.15,1.74,5.09  C298.75,1048.7,296.91,1049.09,294.9,1048.77z" />
<g>
</g>
<g>
</g>
<g>
</g>
<g>
</g>
<g>
</g>
<g>
</g>
<g>
</g>
<g>
</g>
<g>
</g>
<g>
</g>
<g>
</g>
<g>
</g>
<g>
</g>
<g>
</g>
<g>
</g>
</svg>