<?xml version='1.0' encoding='UTF-8'?>
<svg xmlns="http://www.w3.org/2000/svg" id="Layer_1" viewBox="0 0 1200 1800" xml:space="preserve" width="1200" height="1800">
<style type="text/css">
      .cls-1 {
        fill: #010206;
      }

      .cls-2 {
        fill: #040b31;
      }

      .cls-3 {
        fill: #16205f;
      }

      .cls-4 {
        fill: #1f215c;
      }

      .cls-5 {
        fill: #243376;
      }

      .cls-6 {
        fill: #45346e;
      }

      .cls-7 {
        fill: #384992;
      }

      .cls-8 {
        fill: #c21c32;
      }

      .cls-9 {
        fill: #d11f2f;
      }

      .cls-10 {
        fill: #de222c;
      }

      .cls-11 {
        fill: #4d5d9c;
      }

      .cls-12 {
        fill: #ee2627;
      }

      .cls-13 {
        fill: #6a77b2;
      }

      .cls-14 {
        fill: #f95b4e;
      }

      .cls-15 {
        fill: #e2dae7;
      }

      .cls-16 {
        fill: #e5dee8;
      }

    </style>
<path class="cls-1" d="M1200,1229.45V1800H0v-445.31l2.51-7.11c15.34-20.29,27.31-42.79,37.47-66.06c4.42-2.83,13.61-3.37,14.08,3.13  l-31.56,90.64c17.84-16.26,34.15-34.37,46.64-55.11c-2.57,2.55-13.84,7.6-14.56,2.12c-0.47-3.63,15.3-29.71,18.82-35.46  c5.35-8.76,11.1-16.6,18.41-23.79c9.88-9.72,30.63-28.29,42.31-33.64c12.72-2.71,24.34-5.66,31.24-18.03  c-12.78-1.48-26.04,3.39-38.08,8.02c-4.95,0.01-3.66-3.23-2.02-6.55c0.54-1.08,14-14.99,14.94-15.5  c15.99-1.43,31.74-4.34,47.24-8.74c15.23-3.59,30.55-3.09,45.37,2.11c12.24,4.72,24.72,8.56,37.45,11.5  c15.95,0.7,38.31,6.11,48.91,18.92c7.11,8.59,0.68,7.8-6.39,5.96c-0.92-0.69-16.46-5.91-15.93-5.17  c1.58,2.21,10.38,10.1,12.95,11.25c18.01,6.57,35.3,14.53,51.85,23.86c2.96-2.63,5.3-5.67,7.01-9.1l2.61-0.55l2.43-2.05  c10.65,0.59,21.18-0.45,31.57-3.1c10.52-4.18,34.44,9.49,36.45,18.69c0.51,2.34,0.38,3.22-2.31,3.18  c-11.26-2.44-22.2-3.89-33.49-0.96c-2.83,0.73-15.82,5.51-16.2,7.04c-0.13,0.51,6.42,6.61,7.7,7.23l46.84,13.26  c0.99,0.54,12.17,17.75,12.22,18.87c0.14,3.52-0.15,5.17-3.96,4.08c-7-3.97-14.21-7.34-21.63-10.1l-47.16-5.4  c-12-4.13-23.01-10.95-33.05-20.45c-3.79-3.96-25.37-14.1-29.21-12.03c-1.94,1.05-1.99,19.13,1.28,21.77  c6.75,9.31,7.28,13.64-5.38,10.1c-10.9-3.05-14.68-15.25-17.08-24.97c-7.48-12.9-15.94-25.23-25.38-36.98l-40.84-7.45  c-9.42-1.09-25.07-2.14-33.72,1.67c-21.01,9.26-49.3,31.65-67.23,46.72c-3.47,2.91-5.88,6.75-8.08,10.65  c-2.53,4.47-10.26,20.55-11.16,24.78c-0.41,1.95,14.63-1.78,15.57-2.32c4.24,3.02,7.98,6.6,11.22,10.76  c11.48,2.49,33.27-4.1,44.27-8.5c6.16-2.47,8.62-5.65,10.66-11.8c-0.22-5.93,6.75-32.27,14.28-30.01  c4.85,1.45,5.11,19.86,4.83,24.65c10.11-13.21,22.83-3.75,15.8,9.7c15.65-4.94,50.56-14.68,56.76,8c1.1,4.03,1.98,10.37-3.38,10.06  c-24.51-12.49-58.77,0.32-74.64,21.34c-5.62,4.77-9.28,5.96-15.68,1.65l-4.46,1.54c-22.81-3.75-46.5,0.01-66.97,10.78l-4.7-0.07  l-0.89,3.31c-5.53,3.62-9.67,8.55-12.47,14.5c-3,6.39-7.61,33.82-5.15,39.19c0.89,1.95,10.24-3.71,12.26-5.09  c11.41-7.82,18.56-20.17,22.79-33.11c8.68-5.43,17.97-9.91,27.89-13.42c-1.29-3.2,2.48-5.2,4.78-2.75  c2.26,4.82-4.02,12.13-7.33,15.98c-6.19,1.45-20.39,27.04-17.51,29.23c5.86,4.45,35.13-10.39,41.21-14.54  c28.37,4.14,55.51,11.76,81.42,22.86c14.86,9.24,29.18,19.02,42.96,29.35c14.7,1.13,29.11,3.73,43.22,7.8  c2.47,1.04,18.75,8.74,19.54,9.49c5.01,4.78-10.29,13.92-16.45,12.34c-13.6-7.16-28.66-9.49-43.65-5.77  c2.81,4.6,6.11,8.88,9.9,12.85c1.36,3.08,1.73,4.31-1.46,5.58c-2.88,1.15-19.07,0.76-21.29-0.79  c-13.26-32.87-43.3-40.44-74.96-45.54l-32-4.05c-11.1,5.16-22.03,12.11-31.19,19.72c10.94,8.5,23.49,14.42,37.67,17.75  c2.97,1.57,4.31,2.64,1.92,5.07c-4.54,4.64-28.73,8.11-34.88,2.51c-7.36-4.83-14.98-9.27-22.84-13.33  c-19.97,4.71-37.41,21.23-36.27,42.83l13.88-0.08c18.29,2.58,35.95,8.01,53,16.29c15.23,3.92,25.4-4.85,35.94-15.24  c11.28-3.14,20.07-8.97,26.35-17.49c2.33-5.07,13.62-29.47,19.44-27.2c5.49,2.14,0.97,27.11-5.42,30.55  c-1.94,2.83-2.86,5.54-2.76,8.13c6.4,0.23,12.24,1.48,17.53,3.75c3.99,8.4-18.73,12.75-24.76,12.18c-4.05,1.59-7.86,2.02-11.41,1.32  c-0.06,2.5-2.09,3.76-6.08,3.79c-5.83,5.92-11.99,11.72-18.45,17.4c14.31,10.3,29.67,21.87,38.88,36.77  c-0.13-0.96,0.13-1.8,0.6-2.62c1.79-3.13,12.69-18.54,14.61-20.1c2.06-1.68,3.29-1.89,5.46-0.5l19.18,38.37  c8.02-7.88,15.34-16.21,21.97-25.02c0.87-8.35-0.27-16.9-3.44-25.65c-2.57-15.77,4.11-10.46,12.03-2.16  c8.52,8.93,9.3,13.76,9.43,25.85c12.37-3.9,24.85-7.79,37.44-11.65c8.03-1.97,10.08,2.06,6.29,8.24c-2.3,3.76-6.85,6.05-10.76,7.75  c-18.78,5.68-36.52,14.51-47.71,31.54c-4.14,1.07-3.8,1.14,1.01,0.22c37.29,6.49,74.44,15.86,109.06,31.34  c82.57-55.25,193-105.51,291.74-65.98c48.6-57.59,134.28-92.75,208.59-71.56c29.35-31.26,71.2-52.48,114.34-54.23  c4.87-11.93,12.05-23.09,19.41-33.76c3.91-1.76,4.11-1.98,0.62-0.66c-70.73-13.95-137.52,15.65-194.6,55.26  c-32.33-15.35-65.89-25.56-100.69-30.64l-5.37-2.79c-1.79-1.81-1.07-4.41,2.16-7.82c-6.53-1.63-6.48-5.19-3.49-10.3  c7.62-7.07,9.32-11.89,5.09-14.47c-0.31-4.57,10.4-22.05,13.65-22.09c6-0.07,13.01,24.33,12.82,30c0.1,1.01,2.04,5.07,2.25,4.91  c3.03-2.17,10.43-14.62,5.9-18.63c-0.25-2.07,12.16-32.02,13.71-32.9c5.3-2.99,9.93,4.65,11.45,8.77  c1.39,13.23,3.64,24.13,14.33,33.36l5.15-7.53c-3.95-1.13-7.08-3-9.39-5.6c0,0,4.56-7.32,13.69-21.95  c-4.24-0.72-7.12-1.92-5.98-6.72c4.01-4.54,6.3-9.5,6.89-14.87c-1.74-4.41-2.42-10.46,3.94-10.22c-0.65-0.73-1.21-1.66-0.89-2.53  c4.26-11.46,12.35-25.33,17.91-5.82c0.99,3.47,2.87,12.44-0.85,13.72c2.28,1.88,3.89,4.85,4.83,8.91c3.72,7.53,6.31,8.44,7.76,2.72  c0.82-3.63,2.33-5.85,4.55-6.66c-0.65-2.21-0.01-4.74,1.92-7.58c-7.05-1.39-6.78-6.08,0.8-14.09l1.19-2.51  c-3.59-9.42,6.43-52.3,18.58-28.35l4.59,13.01c5.8,7.51,5.76,11.67-0.12,12.48l2.01,3.5c6.77,5.79,7.61,10.2,2.51,13.22  c3.12,4.99,7.28,9.28,12.48,12.89l1.53,3.2c4.98-2,11.37-8.71,13.91-13.48c-6.12-0.61-10.81-2.92-14.06-6.91  c6.24-7.34,11.89-15.13,16.96-23.38l2.85-6.65c-5.12-0.76-8.95-3.03-11.48-6.81c5.68-8.74,10.69-17.83,15.02-27.26  c-3.76-0.93-6.13-2.84-7.11-5.74c6.15-8.69,11.46-17.86,15.93-27.51c7.31-6.79,12.09,2.35,14.48,9.1  c1.81,12.51,5.6,24.11,11.37,34.79c8.81,7.89,9.32,12.76,1.53,14.61c-6.27,0.23-7.29,2.84-3.07,7.84l3.43,5.32  c4.07,4.44,8.14,8.76,12.2,12.96c-2.36,3.53-6.28,5.56-11.76,6.07c3.23,5.1,6.79,9.78,10.7,14.04c5.24-5.7,9.91-11.94,14.02-18.72  c-7.3-1.47-13.64-4.22-19.02-8.25l2.36-3.87c11.22-8.79,17.14-22.05,21.84-35.13c-6.76-1.47-12.08-4.43-15.95-8.87  c8.6-10.2,15.93-21.23,22-33.1c-0.89-1.3-2.75-2.32-5.59-3.04c-2.84-2.86-1.43-6.47,4.24-10.85c6.36-8.46,11.57-17.64,15.63-27.55  c1.37-2.03,2.76-2.02,4.18,0c5.66,13.26,12.96,25.45,21.9,36.57c1.65,3.87-0.64,6.85-6.86,8.93c4.54,8.7,11.56,15.6,18.94,21.91  c1.95,2.15,0.75,4.31-1.62,5.72l-11.78,3.68c5.27,10.67,14.73,18.13,24.87,23.95c5.61,6.1-8.18,8.73-12.52,8.95  c-0.17,2.78,8.97,17.02,12.12,18.36c5.1,2.17,17.11-8.1,18.11-13.49c-5.67-1.7-9.93-4.46-12.79-8.28c0,0,6.08-6.08,18.24-18.24  l4.34-6.77c-6.93-0.95-11.53-3.89-13.8-8.82c7.93-7.34,14.3-15.64,19.1-24.9c-3.59-0.21-6-1.64-7.22-4.28  c2.44-7.22,15.39-37.24,20.85-39.95c2.81-1.39,4.38-0.94,6.06,1.68c2.66,5.21,4.81,10.63,6.44,16.27c2.12-6.92,4.85-8.86,8.19-5.82  c1.07,7.04,1.61,14.07,1.63,21.11c-5.08,1.55-5.62,4.22-1.63,8.02c10.03,8.56,9.42,13.35-1.81,14.37  c-1.89,3.99,9.82,24.4,11.05,22.79c4.22-5.56,5.47-18.88,3.73-25.69c0.46-1.78,2.36-2.94,5.71-3.48  c3.58-10.19,5.89-20.93,6.95-32.21c5.42-12.61,7.93-25.63,10.12-39.21c1.57-2.08,3.13-1.2,5.06,0.31l3.75,27.82  c2.36,0.3,3.88,1.18,4.56,2.64C1196.52,1210.8,1197.42,1220.38,1200,1229.45z" />
<path class="cls-4" d="M1200,122.94v131.24c-5.18,1.88-7.77,2.82-7.77,2.82c-41.75,1.06-83.3,4.17-124.66,9.32l74.71,9.11  c4.81,0.99,20.75,4.31,20.57,10.69c-0.21,7.1-31.57,13.77-38.15,14.23c-52.81,4.94-105.59,5.54-158.33,1.81  c-7.85-0.11-15.71,0.31-23.41,1.83l58.48,10.72c2.28,4.02,1.1,5.35-4.75,5.44c-65.95,4.62-136.52,8.88-201.57-1.93  c-7.16-1.19-41.49-9.33-41.49-16.29c0-5.47,29.82-11.58,35.8-12.43c23.9-2.5,47.27-7.16,70.09-13.99c0.33-0.34,0.2-0.92-0.27-1.18  c-8.82-4.81-33.81-7.89-44.83-9.13c-71.86-8.07-145.3-11.25-217.77-8.01l52.46,14.34c10.63,1.67,7.79,12.24-0.31,13.32  c-85.32,11.35-170.95,13.36-256.5,2.41c-4.22-3.74-6.22-3.07-7.57-2.41c-2.39,1.16-13.29-5.64,0.1-10.43  c25.62-3.89,51.49-7.01,77.61-9.35l-32.83-1.38c-86.75,1.12-174.49-0.43-261.4-6.07c-6.03-0.39-17.18-5.22-11.46-11.54l109.47-17.53  c-7.92-1.65-15.97-2.61-24.16-2.88c-77.35-3.39-155.04-5.05-233.07-4.99l-9-1.53v-96.09l1.13-2.34  c399.09-0.04,798.22-0.07,1197.39-0.11L1200,122.94z" />
<polygon class="cls-1" points="0,123.05 0,0 1200,0 1200,122.94 " />
<path class="cls-1" d="M395.98,516.85l1.29,0.16c0.5-0.95,0.89-0.91,1.17,0.12c2.33,0.19,4.28,0.93,5.86,2.22  c0.39-0.96,0.78-0.89,1.17,0.12l4.69,2.22c0.48-0.89,0.88-0.86,1.17,0.11l2.34,1.05c2.74-0.6,5.83,0.29,9.3,2.68  c13.25,3.16,26.71,5.64,40.36,7.43c9.06-0.8,39.06,18.86,36.29,26.76c-1.18,3.37-6.44,4.3-7.33,0.48c-5.84,1.12-7.4,1.46-4.67,1.03  l0.78,1.39l-0.38,2.55l-54.81,15.8c1.22,6.29,2.9,12.75,5.03,19.39c-0.63,2.16-2.29,2.59-4.44,2.3l6.44,21.95  c-0.76,1.91-2.41,2.3-4.43,2.1l-7.74-7.09l3.95,20.58l-1.98,2.1l2.87,3.03c1.15,15.08,0.1,30.15-3.18,45.19l-2.85,3.02  c-2.86,1.14-4.88-0.74-6.04-5.66l-1.53-6.78c-2.25,13-13.04,57.91-23,63.94c-0.79,0.48-1.66,0.81-2.55,1.11l0.31,3.81  c-8.99,11.68-15.61,24.39-19.85,38.12l-2.97,2.58l1.8,2.5c-6.05,11.33-11.86,22.77-17.44,34.33c-2.97,3.57-6.66-0.02-8.62-3.22  c-7.39,13.16-11.09,19.75-11.09,19.75c-4.28,2.55-7.01-0.2-8.19-8.26c-4.06,5.17-8.16,10.01-12.31,14.51  c5.38,10.83,12.71,20.08,22,27.73c15.4-9.48,27.14-4.02,37.45,9.8l-1.13,2.74c5.32,0.56,5.73,11.07,5.06,15.62  c-0.88,5.92-1.62,10.23-8.1,6.83c0.65,5.3,0.78,10.85-1.48,15.9l39.29-6.96c-5.64-9.19-10.63-18.69-14.99-28.49l1.29-3.58l4.06-3.7  c18.25-6.71,35.89-14.81,52.92-24.31c3.4-1.84,4.24-0.17,5.67,2.77c3.79,7.77-11.24,24.54-18.1,27.92  c-0.85,1.06,23.11,9.2,24.94,9.66c8.92,2.2,17.64,3.56,26.04-1.25c-6.89-11.47-3.17-24.42,8.62-30.81  c30.59-14.82,59.75-32.15,87.5-51.99c6.98,2.73,3.74,9.69-0.36,13.96c-6.55,5.93-12.3,12.49-17.27,19.68  c29.53,1.51,52.17-10.56,76.29-26.51c3.06-0.86,16.65,3.6,13.01,8.6l-39.8,25.29c7.55,1.51,15.25,2.37,23.1,2.58  c4.06,4.12-6.23,8.19-9.87,9.03c-17.34,1.25-34.76,1.31-52.26,0.19c-21.01,1.28-41.12,7.49-60.33,18.62  c0.66,5.8,2.9,12.61,8.08,15.77l41.48-5.35c2.35,1.2,3.74,2.08,2.4,4.48c-0.95,1.7-25.42,17.77-29.11,19.57  c-12.45,4.11-25.16,7.08-38.13,8.92c-2.18,1.07-3.99,2.64-5.44,4.72c10.12,4.69,23.27,14.6,29.34,24.63  c4.29,7.09-1.91,10.54-8.58,9.87l-60.16-22.26l-14.52,3.53l-31.66-7.12c-36.32,2.38-77.85,16.88-105.92,40.66  c31.71-7.9,53.69,1.52,70.03,27.99c6.43,5.4,9.1,5.89,17.08,4.96l53.64-10.7c4.35-0.22,18.13,8.17,17.04,12.25  c-0.22,0.84-1.19,1.47-2.37,2.05c-20.5,4.42-40.68,9.77-60.54,16.06c11.19,6.12,23.43,10.21,36.7,12.27c4.86,1.1,13.1,3.69,7.4,8.16  l-37.56,2.49c-33.24,0.14-50.73-11.37-66.28-39.41c-5.49-3.16-12.24-3.23-18.39-2.49c-13.04,7.76-26.69,14.11-40.95,19.04  c-2.97,12.72-6.88,25.08-11.74,37.06c-5.67,8.71-17.82,25.82-25.49,31.86c-1.47,1.15-3.24,1.7-5.07,1.95l0.93,2.41  c-16.79,17.44-33.6,34.9-50.41,52.36l-5.38,2.21l-1.02,3.36c-15.69,5.88-32.38,8.79-50.07,8.71l-48.8,50.76  c-3.5,0.49-7.15-1-10.94-4.48c-0.79-0.37-2.14-0.92-2.85-0.34c-24.99,20.27-47.08,42.62-56.69,73.8l-4.94,9.37  c-2.56,5.54-5.91,8.38-10.04,8.52v-77.34l2.12-2.85c14.75-3.02,23.78-14.3,31.9-26.14c9.35-10.29,19.51-19.75,30.48-28.38  c-20.6,11.61-41.64,23.62-53.94,43.97c-3.32,5.28-6.84,7.41-10.56,6.37v-80.86l0.6-1.45c3.33,0.31,6.9,1.2,10.72,2.66  c9.43-6.25,23.58-22.69,18.31-34.68c-6.72-15.27-16.56-28.11-26.9-41.1c-1.28-2.3-2.19-4.79-2.72-7.47v-92.58l2.56,0.03  c5.68,16.3,14.03,31.03,25.06,44.19c10.49,11,20.28,22.58,29.35,34.74c1.49-4.58,3.69-8.27,6.62-11.06  c14.41,8.52,17.57,25.38,20.03,40.45c0.44,1.58,1.17,3,1.98,4.41c1.59,2.74,3.61,5.89,4.74,2.52  c26.75-15.95,51.98-34.04,75.12-54.91c21.98-19.82,29.72-36.15,39.27-63.25l10.49-18.94c1.59-5.2,1.14-10.74-1.33-16.62  c16.02-12.09,32.87-21.6,50.56-28.54c0.56-3.82-0.96-6.9-2.72-10.13c-3.42-6.27-19.99-30.5-24.51-34.74  c-0.14-0.13-0.33-0.17-0.49-0.09c-6.5,7.04-13.77,12.16-21.81,15.36c-1.57-2.47-2.66-3.75-3.25-3.84  c-14.59,34.43-29.28,68.87-44.07,103.34c-2.27,4.12-21.62,23.01-24.32,22.67c-3.44-0.43-4.42-8.21-4.79-11.16l-13.24,23.31  c-6.93,8.91-20.19,15.79-19.98-0.83c-7.29,7.25-21.71,21.17-31.78,22.91c-4.14,0.71-4.86-2.19-5.36-5.96  c-0.35-8.81-0.12-17.51,0.69-26.09c-4.46,2.81-8.58,3.74-12.37,2.8l-1.07-2.89l33.21-79l5.04-5.95l1.4-4.25  c3.85-1.2,36.17-34.86,33.81-35.53c-3.56-1.02-49.69,41.8-55.83,48.58c1.7-0.45,2.52,0.1,3.29,1.91c-0.23,0.92-0.5,1.81-0.92,2.63  c-2.28,4.52-18.21,12.57-23.85,15.31c-4.7,2.29-23.57,11.42-26.69,7.7c-0.57-0.68,0.4-2.66,1.82-5  c17.04-24.21,35.49-47.39,54.84-69.75c0.93-1.07,2.15-1.91,3.4-2.75c1.26-0.85,2.62-1.56,4-2.23l-1.06-2.35l30.56-35.48  c-3.11-0.81-4.81-3.44-5.11-7.87c-8.75,4.1-17.73,6.33-26.92,6.69c-2.84-0.96-3.95-1.6-3.06-4.49c0.65-2.09,12.11-20.77,14.14-23.45  l3.39-0.82l0.13-4.14c6.21-7.24,11.84-14.76,16.91-22.55c-7.51,0.21-13.49-2.75-7.79-10.64c6.08-8.41,22.14-27.29,30.13-32.07  c1.3-0.78,2.7-1.41,4.11-2l1.04-4.37c9.17-8.31,18.07-16.9,26.71-25.76c-2.14,2.75-19.7,6.06-17.05,0.36c0.46-1,0.9-1.87,2.03-2.29  c1.73-1.91,3.73-3.7,6-5.38c26.45-37.8,59.39-71.67,96.92-98.48l4.08-1.18l1.15-2.78c9.04-4.64,16.12-11.95,21.25-21.94l2.99-0.16  l-0.2-3.61l17.34-20.04c-4.48-0.36-8.15-1.78-4.87-6.11c12.79-9.99,26.11-19.22,39.96-27.7l5.48-0.85c1.36-3.33,4.83-5.55,8-2.82  c0.62-0.67,1.27-1.31,2.01-1.81c4.35-2.94,33.04-1.15,37.04,2.26C394.86,515.42,395.43,516.12,395.98,516.85z" />
<path class="cls-8" d="M1200,254.18v93.93c-0.98,3.32-4.33,3.8-6.02,0.72c-2.34-1.03-3.5-1.54-3.5-1.54  c-8.25,2.17-16.55,0.77-24.9-4.18c-16.39-1.78-32.95-1.17-49.68,1.84c-26.22,4.23-52.37,8.21-78.45,11.94  c-18.38-1.51-36.78-2.6-55.21-3.26c-10.18,1.32-20.04,4.03-29.57,8.12l-20.97,0.76c-15.77,14.18-38.22,13.4-54.92,1.23  c-13.6-2.69-27.28-4.72-41.03-6.09c-13.68,2.53-27.49,2.04-41.41-1.47c-7.91-0.71-15.61,0.71-23.1,4.25  c-13.02-4.33-26.19-5.98-39.52-4.94c-16.83-2.95-33.49-2.95-49.99-0.02c-13.94,0.72-27.76-0.41-41.46-3.38  c-13.63,1.88-27.25,2.82-40.87,2.82c-4.91-1.86-10.19-1.69-15.85,0.52c-3.49-1.36-6.77-3.72-9.84-7.06  c-5.85-2.15-11.86-1.3-18.01,2.56c-5.21,0.52-10.49-0.17-15.82-2.05c-6.54,1.6-12.54,1.43-18-0.49c-16.18,2.29-32.6,2.36-49.26,0.22  c-23.43-4.18-46.33-4.49-68.69-0.94c-4.56,2.77-6.7,3.4-11.11-0.14c-11.86,2.43-23.27,1.11-35-1.47  c-22.19-0.22-44.31,1.98-66.36,6.63c-7.8-0.36-15.52-1.54-23.15-3.53c-18.28,0.29-36.69,0.64-55.22,1.06  c-9.22,2.98-18.15,3.82-26.77,2.52l-5.58-3.46c-3.98,5-10.81,6.66-14.43,0.46c-6.81,2.81-13.98,1.67-21.49-3.41  c-18.81,0.19-37.79,0.6-56.96,1.25l-11.45,1.72c-20.13,5.86-38.5,10.19-58.11-1.26c-5.45,1.44-10.82,3.25-16.1,5.42L0,351.56V219.14  c71.93-0.22,143.66-0.67,215.96,3.05c21.25,1.09,42.2,0.65,63.02,6.69l-122.66,19.65c4.05,6.12,9.22,6.57,13.53,6.88  c73.99,5.38,147.73,6.63,222.57,6c28.74-0.24,55.6-0.61,85,2.77c-14.29,6.18-91.68,8.1-97.02,14.78c-1.81,2.27,8.82,5.56,5.71,5.16  c86.33,11.28,174.96,10.61,261.19-1.3c2.33-0.32,4.31-2.67,5.84-3.03c1.63-0.38,0.9-3.11-0.23-4c-1.15-0.9-2.67-1.52-4.45-2  l-65.55-17.92c71.95-5.4,142.63-1.09,213.76,5.19c24.3,2.15,47.45,5.01,70.79,13.63c-34.71,16.41-82.44,12.18-112.33,27.22  c18.44,11.41,39.59,14.5,60.94,16.6c61.26,6.02,122.8,4.79,186.31-1.24l-70.04-12.83c21.32-7.42,43.21-3.87,65.01-3.29  c33,0.88,139.69,5.24,163.68-15.1c-6.24-6.53-14.57-7.8-22.74-8.8l-85.81-10.48C1102.06,256.89,1151.28,257.31,1200,254.18z" />
<path class="cls-9" d="M1193.98,348.82l-0.5,2.43l-184.42,24.38c-31.58,6.37-47.36,9.56-47.36,9.56c-3.41,0.35-5.61,1.37-6.61,3.05  c16.97,5.43,34.76,7.03,52.4,8.57l3.8,2.71l1.32,0.13c-0.22-4.36,6.08-2.49,5.94,1.25c3.85,0.42,3.6,2.43-0.01,3.14  c-1.76,3.56-11.74,3.33-14.05,0.38c-3.94-0.95-7.59-0.67-10.96,0.83c-1.91,1.08-3.93,2.06-6.14,2.26  c-6.97,0.66-28.72,2.16-33.65,0.61c-1.09-0.34-2.13-0.83-3.15-1.37c-1.13,0.18-2.36,0.23-3.71,0.14c-6.22,2.27-9.34,3.4-9.34,3.4  c-42.73,4.62-85.54,9.67-127.55,18.79c-0.1,0.02,1.18,1.09,1.7,1.04c3.73-0.04,5.79,1.1,6.18,3.44c0.62,0.37,0.61,0.78,0.02,1.24  l7.06,2.06c5.49-1.04,10.48,3.32,5.05,7.38c-9.7,5.59-19.64,7.32-29.83,5.19c-10.88,0.29-21.72,1.41-32.52,3.34  c-16.05-1.34-32.1-3.47-48.15-6.4c-9.61,0.91-19.11,1.56-28.5,1.94c-10.42-3.07-19.2-4-29.83-1.36  c-13.22-1.17-26.48-1.82-39.76-1.95c-11.81-8.71-21.69-7.7-35.41-4.3c-13.28-0.59-26.05,0.9-38.32,4.46  c-10.69,0.78-21.36-0.93-31.99-5.14c-8.79-1.41-17.76-0.45-26.89,2.9c0,0-27.11,1.2-81.32,3.59c-15.48-2.64-29.17-1.96-44.57,0.58  c-31.39-4.19-62.97-7.12-94.72-8.79c-8.32,7.73-22.02,15.61-26.6-0.36c-8.67,1.08-17.43,1.4-26.3,0.95  c-13.78,3.14-27.65,5.08-41.6,5.83c-7.16-4.95-14.68-7.46-23.44-7.15c-2.33-2.72-4.25-5.72-5.77-8.99  c-8.85-0.9-17.49-4.03-25.92-9.39c-1.66-2.96-3.14-2.46-4.45,1.5c-0.76,0.51-1.94,1.2-2.44,0.77c-1.39-1.19-9.86-10.67-9.97-11.42  l0.66-0.82c-11.87,7.47-36.43,21.5-49.33,24.37c-0.33,0.07-0.73-0.17-1.15-0.5c-16.87-19.33-33.46-39-49.78-59.02L0,367.97v-16.41  c6.13-1.18,11.69-5.32,18.7-5.78c41.65,18.99,35.35-5.02,100.73-0.89c8.19,0.52,19.97-3.42,27.43-0.32c6.53,2.71,12,8.33,20.77,1.46  c0.72,4.43,3.08,5.89,6.17,5.21c2.09-0.46,3.7-0.79,6.12-6.18c10.33,12.46,22.2,3.28,33.65,2.77c16.11-0.7,30.93,0.51,45.88-1.39  c10.99-1.4,25.32,6.07,35.05,3.37c9.77-2.71,17.99-2.54,26.09-3.77c52.44-7.93,37.5,4.28,71.9-0.81c2.17-0.32,4.48,2.92,6.44,2.84  c-0.11,0,4.79-9.79,62.63-2.86c6.92,0.83,57.17,5.34,60.01,0.02c5.62,4.95,11.47,1.24,17.6,1.25c5.46,0,11.84,5.01,18.97,0.92  c6.98-4.01,16.47-4.2,21.48,3.28c4.08,6.08,11.7-1.52,15.34,0.42c10.48,5.58,39.41-3.41,50.27-0.93c16.91,3.85,30.72,4.6,47.51,1.3  c16.28-3.19,33.73,3.51,50.19,1.29c9.78-1.32,19.03,4.46,29.35,5.45c19.83-11.53,33.86,2.36,56.89-1.87  c5.71-1.05,8.29-1.74,15.23-0.53l33.33,5.81c17.01,11.82,36.66,12.83,52.96-1.18c8.15-1.8,18.69,1.16,26.28-2.45  c29.96-14.23,56.68-2.21,79.64-3.41c21.52-1.13,108.79-21.23,131.86-13.09c6.75,2.38,12.81,8.03,21.67,3.81  C1191.47,344.68,1193.96,347.49,1193.98,348.82z" />
<path class="cls-10" d="M1200,409.96v90.27l-1.68,1.96l-59.9-16.95l-49.32,32.44l-2.46-1.19c-4.09,0.96-11.14,0.31-14.19-2.42  c-2.68,3.05-6.24,5.22-10.67,6.52c-16.62,3.23-33.8,3.6-51.56,1.11c-25.25,0.2-50.31,0.76-75.19,1.7c-2.24-2.32-1.58-3.57-0.4-0.62  c-10.75,1.28-21.12,3.72-31.1,7.31l-1.14,2.03l-4.95-1.69c-43.1-42.83-112.65-44.05-157.68-3.48l-5.02,1.44  c-2.03-0.55-2.47-2.44-1.33-5.68c-25.74-5.39-52.31-5.56-79.05-4.02L625,517.94c-16.56,2.86-31.6,2.81-48.18,0.56  c-28.59,3.8-57.62,4.07-87.09,0.8c-23.34,1.56-45.29,0.1-68.05-4.53c-9.36,0.01-18.32-1.26-26.88-3.79  c-10.62-7.22-29.6-10.75-36.99,2.16l-2.68,1.25c-2.17,0.84-5.62,2.45-8,2.82c-1.71-4.04-2-4.35-6.95-5  c-7.12-0.94-16.18,0.26-23.32,1.36c-29.46,8.33-58.79,7.53-87.86-2.93c-14.04-2.63-28.23-4.29-42.56-4.98l-5.12-2.96  c-8.11-4.43-16.02-13.67-19.49-22.23l-2.57-3.49c-1.65,1.61-2.29,0.85-1.03-1.17l-11.9-15.27c-1.04,0.49-1.42,0.17-1.13-0.95  l-2.28-2.58c-1.68,1.64-2.4,0.82-1.37-1.35l-3.34-4.49c-1.4,1.88-2.23,1.19-1.56-1.11l-2.84-0.57c-0.88-0.74-11.9-14.38-11.9-15.35  c0-1.06,0.43-1.99,1.09-2.8l-7.03-8.37c-3.1,1.44-3.86,0.54-1.9-2.26c-0.38-1.27-1.29-2.89-1.16-4.04c0.25-2.31,2.52-1.59,3.56-1.87  c1.8-0.5,2.15,1.91,3.32,2.46l17.93,8.54c2.38,1.13,7.4-1.01,8.97,1.89l4.33,7.99c8.72-1.25,17.19,2.51,23.25,6.87  c15.69,0.45,30.03-5.67,45.29-6.32c7.32-0.31,14.92,2.31,22.99-1.15c2.92,3.49,2.28,7.43,5.56,9.41c7.58,2.14,13.93-4.62,19.59-8.37  c21.97,2.4,67.34,2.98,89.25,8.04c10.63,2.46,22.55-3.48,34.52-1.81c6.05,0.84,12.42,2.39,19.4,1.65c23.06-2.44,45.68-2.3,68.5-2.27  c10.96,0.02,23.33-6.47,32.95-4.79c13.42,2.35,25.6,9.85,38.65,4.82c12.94-4.99,28.47-1.24,41.82-4.53  c11.25-2.77,17.46-2.45,28.17,5.47l29.54,0.85c7.96,0.23,10.26,2.29,17.58-0.02c10.3-3.25,22.63,4.83,31.55,2.47  c14.04-3.72,27.46-1.86,41.35,1.19c42.14,9.24,36.09-4.82,70.04,1.3c6.19-0.22,13.32-5.73,19.85-6.85  c-4.18-7.29-11.67-0.24-12.98-6.85l1.25-1.09c1.34-3.33,3.91-2.61,4.69,0.91c1.31,0.85,2.51,0.92,3.61,0.22  c1.48-2.19,3.09-2.09,4.3,0.25c1.03,0.61,1.57,0.91,2.83,0.72c0.52-2.24,1.47-2.18,2.05,0.07c0.76,0.78,1.77,1.01,2.54,0.13  c0.68-3.24,2.26-2.93,3.21,0.09c3.74,1.71,7.99,1.83,12.02,1.13c0.53-3.77,6.71-2.08,7.99,0.82c3.93,0.6,7.96,1.07,11.93,0.33  c-0.15-3.37,2.54-3.1,3.2,0.08c1.43,1.01,3.14,1.27,6.32,0.91c0.68-1.02,1.34-1,1.96,0.05c1.26,0.85,3.63,0.98,4.92,0.14  c0.75-3.54,8.81-2.71,9.28,0.77c1.11,1.06,2.39,1.14,3.7,0.16c0.25-0.91,0.66-2.28,1.37-2.33c7.67-0.53,20.56-0.38,28.22,0.3  l1.65,2.36c22.36,1.79,44.87,1.79,67.23,0c-1.09-3.52,14.88-2.82,15.66-2.46c0.85,0.39,1.26,1.42,1.61,2.33  c0.93,0.83,2.87,0.81,3.76-0.08c0.65-3.63,5.41-3.04,6.7-0.11l15.54-1.06c-0.31-3.34,2.33-3.25,3.17-0.07  c2.87,0.53,5.38,0.27,7.52-0.76c1.52-3.52,8.22-3.55,10.13-0.36c2.55,0.61,5.14,0.23,7.41-0.93c0.23-3,0.94-2.83,2.01-0.06  c4.03,0.61,8.29,0.62,12.02-1.16c0.33-2.16,1.2-2.14,2.05-0.06c2.95,0.68,5.95,0.66,8.59-0.93c0.52-3.08,1.61-2.84,3.12-0.21  c10.77,0.05,21.43-2.04,31.76-4.94c-0.1-3.13,1.03-3.06,2.22-0.19c2.06-1.78,3.01-3.33,1.19-4.45c-1.06,0.04-1.02-0.27-0.04-0.89  l-2.33-1.25c-0.37,2.33-1.47,2.2-2.13-0.14c-0.96-0.99-2.21-1.67-3.73-2.05c-0.81,2.27-1.82,2.18-2.23-0.19  c-0.43-0.72-0.86-0.79-1.28-0.21c-1.96,2.7-3.22,2.31-3.4-0.97c-5.71-2.13-11.58-3.38-17.6-3.75c-1.43,2.8-5.98,1.81-8.54,0.67  c-4.8-2.13-4.06-7.8,2.72-7.19c32.39-2.98,64.71-3.39,96.95-1.23L1200,409.96z" />
<path class="cls-7" d="M1200,1137.33v92.13c-7.27-5.36-4.33-19.5-4.78-28.76c-1.21-0.14-4.32,1.29-4.58-0.64l-4.15-30.8  c-3.04,12.4-2.94,24-8.41,34.45c-5.54,10.59-3.4,46.5-14.93,39.75c3.05,11.1,0.11,21.09-5.24,31.38  c-7.98-7.18-12.85-17.64-14.51-28.83c4.21-1.08,7.42-0.93,10.64-3.13c-4.65-4.79-9.91-8.79-11.89-16.25  c1.45-1.53,3.9-1.02,5.87-2.26l-2.29-20.9l-5.66,11.87c-4.91-7.14-4.25-15.93-10-22.15c-5.96,2.51-21.3,38.8-21.45,38.44  c0.85,1.94,4.99,2.08,8.4,3.01c-3.69,10.67-11.27,19.3-20.47,27c3.7,4.45,9.39,5.18,15.61,6.62c-5.46,11.05-13.67,20.29-24.77,27.2  l14.45,6.76c-2.97,8.81-12.33,18.14-21.96,16.8c-7.3-4.31-10.81-14.41-14.97-22.02c5.73-1.89,11.53-0.83,15.98-4.94  c-12.39-6.82-22.47-15.11-28.02-28.01c5.49-2.33,11.14-2.05,16.15-5.43c-9.1-7.35-16.87-15.25-21.8-25.96  c2.94-2.22,6.46-1.4,9.61-4.61c-11.07-11.75-17.03-25.06-23.4-39.42c-5.58,14.38-11.28,26.29-22.24,35.58  c3.16,2.31,5.85,2.28,9.69,3.56c-5.79,12.88-13.25,25-24.01,35.68c5.55,3.66,10.67,5.02,17.35,7.05  c-5.49,15.23-11.54,30.46-25.82,40.41c6.49,2.75,13.32,4.88,20.92,7.15c-4.41,8.66-9.64,15.61-17.25,22.12  c-6.52-4.41-10.96-11.02-14.59-17.94c4.8-1.23,8.96-1,13.92-3.95c-9.32-6.34-16.32-14.84-19.92-26.3c4.56-1.82,8.97-1.37,13.39-5.06  c-23.24-17.52-12.96-53.14-29.13-53.88c-4.48,10.03-9.31,19.49-16.73,28.11c2.06,2.92,5.13,2.11,8.12,3.81  c-2.68,10.86-9.75,19.34-16,29.03c3.09,3.46,7.7,3.37,12.68,4.65c-3.74,12.86-11.83,23.16-21.25,32.2  c4.78,3.01,9.82,3.87,15.57,5.19c-2.86,8.53-10.26,13.86-18.64,18.85c2.71,2.5,6.12,1.65,9.78,3.44c-3.34,2.25-9.34,7.98-13.54,5.94  c-2.93-1.42-4.71-6.34-5.4-8.48c-1.14-3.52,5.31-2.57,8.74-4.94c-5.1-4.84-12.5-9.34-15.12-16.19c1.09-1.87,5.49-2.42,4.18-4.85  c-1.02-1.87-6.29-5.87-8.07-11.2c-1.06-3.15,2.68-2.04,5.77-3.66c-10.16-10.59-8.11-27.32-15.85-27.38  c-4.74-0.04-10.44,29.55-9.53,29.03c4.64,6.24-3.48,10.97-6.56,17.43c2.27,1.8,6.84,1.02,5.94,4.21c-0.76,2.72-2.76,5.64-4.33,7.19  l-2.62,1.65l-12.93-4.05l-1.58-2.57c-0.45-7.19-0.44-16.92-6.13-21.38c-7.4,3.84-5.51,11.64-10.04,16.01l-2.83,1.94  c-9.42-1.44-18.85-2.87-28.27-4.31l-1.34-2.58c-2.11,0.68-5.83,0.68-7.23-1.02c-0.13,1.56-1.67,1.45-4.59-0.32  c-3.26,2.02-7.05,2.59-11.38,1.72c-3.15-2.22-8.06-2.26-11.2,0c-10.37,0.31-20.7,1.56-30.76,4.12l-4.93-1.07  c0.14,0.9,0.3,2.21-0.31,2.54c-2.01,1.07-7.62,2.44-10.13,3c-2.97,1.58-5.15,1.41-6.54-0.5l-2.49,3.27  c-13.8,4.93-25.52,13.99-36.29,23.73l-4.12,0.58l-4.16,1.02c-16.22-7.4-32.92-13.06-50.1-16.96l-3.17-2.72  c-2.28,3.34-5.72,1.67-4.41-2.13c0.29-0.98,0.62-1.94,1.09-2.83c0.47-0.86,0.92-1.68,1.6-2.17c27.2-20,60.05-29.71,93.49-31.88  c10.73,0.82,20.66-0.21,29.78-3.09c20.78-14.38,40.89-29.58,60.35-45.62l5.55-1.37c1.41-2.98,2.11-4.47,2.11-4.47l18.25-11.57  c3.39-3.15,7.12-5.15,11.2-6.01c0.45-2.86,3.04-5,7.76-6.44c2.29-2.17,4.45-2.82,6.48-1.95c0.3-1.92,1.41-2.85,3.24-2.13  c0.12-2.85,2.53-5.06,4.95-2.67c2.7-4.47,7.03-7.54,12.99-9.2c28.38-22.01,64.26-33.31,99.07-43.45  c61.57-17.93,123.84-30.65,187.34-17.9c10.88-6.7,22.23-12.02,34.06-15.96L1200,1137.33z" />
<path class="cls-6" d="M1200,500.23v37.18l-2.06,5.47l-50.78,52.07c-3.5,1.88-7.65,1.8-12.44-0.23l-29.15-9.01  c-9.52-3.56-19.03-4.84-28.52-3.84l-58.95,29.97c-5.6,1.58-10.35,4.09-14.24,7.54c-4.62,12.69-11.7,16.02-24.66,15.34  c-9.76-1.69-19.51-3.09-29.25-4.2l-99.58,65.22c-5.84,2.73-11.87,4.96-18.09,6.68l-2.53-1.47l-4.31,0.12l-73.49-45.03l-25.01,4.6  c-9.49,2.09-28.18-3.51-34.66-10.14l-1.13-3.51c-2.57-2.63,12.02-9.43,12.89-9.47c0.94-0.05,1.79,0.67,2.52,1.32l-0.08-2.48  c37.79-14.77,75.69-29.2,113.71-43.29c13.02,6.19,28.75,13.48,43.43,13.36L912.09,569l8.7-4.37l2.52,1.47l0.18-2.58l72.59-27.39  c0,0,9.87,5.38,29.6,16.15c14.49-7.27,28.31-15.75,41.49-25.18l5.16-0.73l2.33-1.41c0.45-3.67,8.03-9.82,11.99-8.48l51.39-33.8  L1200,500.23z" />
<path class="cls-3" d="M1200,537.41v103.6l-1.75,1.75l-37.73-18.68l-13.56,20.3c-3.05,5.35-6.42,7.39-10.13,6.12  c-7.56-8.07-15.89-12.4-24.97-12.97l-68.4,69.7c-2.91,0.76-4.37,1.14-4.37,1.14l-41.29-19.08l-183.07,85.5l-4.87-0.31l-4.77,0.7  c-27.68-9.78-57.43-6.56-85.76-1.36c-9.56-5.07-18.3-11.62-26.2-19.65l-0.4-3.18c0.92-2.35,2.46-4.14,4.9-4.82  c25.27-8.05,49.9-17.58,73.91-28.6l19.35,4.24c9.5-7.45,22.79-17.61,34.27-21.31l4.62,0.44c6.63-3.02,13.89-3.5,21.32-8.38  l98.27-64.45c16.39-0.31,43.51,13.5,50.7-6.3c3.35-9.22,9.96-8.47,17.65-12.41l56.76-29.04c13.66-6.99,53.99,12.42,70.03,13.95  L1200,537.41z" />
<path class="cls-15" d="M1200,1064.07v73.26c-12.39,4.63-23.78,11.03-36.49,17.58c-38.2-6.2-75.64-7.35-113.9,0.35  c-46.29,9.31-91.6,21.03-135.19,39.14c-18.57,7.71-33.39,20.28-50.63,28.82c-2.11-0.61-2.38-1.34-2.43-3.14  c-0.23-8.18,7.53-9.78,13.57-9.7c0,0-5.19-0.44-15.57-1.32c-12.07,5.17-24.39,9.67-36.98,13.49c4.06,10.42-2.41,11.01-10.7,7.79  c-8.86-3.43-8.77-5.93-3.47-13.08c-5.95-4.92-4.25-15.45-2.65-23.07c1.64-7.83,8.87-25.44,15.93-29.13  c2.36-1.23,3.22-1.37,5.68,0.09c0.81-12.03,7.95-17.02,17.58-22.23c5.11-7.07,11.17-12.34,18.19-15.81l21.05-6.1  c-4.47-1.12-13.2-3.87-9.59-8.84c2.25-1.71,4.83-2.89,7.62-3.42c33.72-6.42,78.65,5.87,108.57,21.43  c26.78-17.35,54.08-34.22,83.79-46.25c0.84-0.34,1.85-0.29,2.91-0.24c1.07,0.05,2.12,0.28,3.18,0.54c2.7-2.87,5.97-4.83,9.83-5.61  c25.31-9.46,75.03-16.88,102.21-16.54C1195.13,1062.13,1197.62,1063.04,1200,1064.07z" />
<path class="cls-2" d="M1200,641.01v83.87c-2.3,1.84-5.02,0.28-8.16-4.66c-1.27,4.51-3.39,6.18-6.36,5.01l-9.82-10.24l-3.6,23.86  c-0.11,5.88-1.89,10.35-5.33,13.4c-3.08,0.18-5.32-2.38-6.72-7.69c-2.03,3.09-3.94,6.84-5.71,11.26c-3.38,0.98-6.82-0.71-10.32-5.06  c-2.61,5.18-5.91,9.28-9.88,12.29c-4.26-3.48-7.92-7.81-11-13c-3.85-5.52-6.19-6.17-7.04-1.94c-0.79,5.28-2.82,9.41-6.11,12.4  c-6.76-3-11.21-2.55-18.02-0.29l-4.99,1.57c-65.69-9.58-139.67-14.97-198.09,22.15l-5.31,0.86l-4.35,1.37  c-16.2-3.67-32.41-1.63-48.15,3.2l-19.62-11.65l-1.57-3.24l188.25-87.92l42.7,20.03l70.05-71.1c11.38-2.8,19.61,8.02,28.58,13.95  c8.28-8.04,13.12-18.81,20.21-28.42L1200,641.01z" />
<path class="cls-16" d="M88.87,876.66c-21.65,24.89-42.29,50.22-62.88,79.54c18.45-5.51,35.75-14.45,50.28-25.44l0.64-2.59  c0.6-0.62,13.38-9.65,14.22-9.52c0.99,0.15,1.8,0.7,2.48,1.41l-36.41,86.61c6.01-0.48,9.71-4.6,14.66-4.41  c-0.71,11.82-3.48,22.13-0.46,33.4c14.41-5.74,25.99-15.58,35.51-26.83l1.85,13.55c6.86-0.77,12.26-4.43,15.47-10.11l15.77-27.96  c1.07,5.63,0.32,10.54,3.43,16.99c7.94-8.9,19.98-15.65,24.73-27.09l41.08-98.8c1.63-0.65,3.94-1.74,4.68-2.97  c3.44-5.66-0.33,1.75,1.37,6.67c8.15-4.32,14.6-11,22.11-17.4l23.84,33.57c3.69,5.19,6.76,10.33,5.25,16.94  c-17.03,7.43-35.35,15.92-50.8,27.4c6.56,12.22,1.24,18.29-4.73,28.14c-10.81,17.82-13.64,40.65-28.58,56.53  c-27.1,28.8-59.97,51.85-94.05,72.28c-14.91-12.19-0.61-26.21-24.75-49.69c-2.06,4.48-2.92,9.12-6.6,13.76  c-14.19-22.88-38.39-39.96-48.41-63.32L0,977.34V844.92c0.95-0.47,1.91-0.9,2.91-1.17c6.75-1.79,29.09,5.97,37.08,8.75  c15.35,5.35,30.56,12.35,45.08,19.65c0.79,0.4,1.43,1.13,2.08,1.9C87.81,874.85,88.36,875.74,88.87,876.66z" />
<path class="cls-2" d="M8.38,452.2l3.7,0.53l18.48,19.88l19.46,37.29l68.34,81.71c-2.93-14.84-5.9-29.84-11.37-44.01L73.34,477  c0.52-2.02,2.16-2.52,4.21-2.53l54.03,49.41c11.3,18.97,23.61,37.29,36.95,54.96c15.38,12.87,31.78,24.45,49.2,34.76l1.31,3.85  c5.11-1.09,6.82,4.3,2.77,8.31c-22.51,17.76-40.46,40.26-55.54,64.5c-3.26,1.07-8.21,1.77-7.79-2.54l-3.53,0.59l-23.29-11.27  l-23.05-41.64l-3.94,20.05c-1.04,1.49-2.57,1.88-4.33,1.63C84.67,647,69.26,636.62,54.07,625.92c-0.87-9.25-2.59-18.15-5.16-26.71  l-6.36,14.21c-4.89,3.57-5.83,0.7-7.2-4.49c-1.57-7.37-2.94-14.65-4.09-21.83c-2.98,4.74-6.44,8.54-10.37,11.39l-2.81-1.37  l-8.25-15.84c-4.93,4.76-8.3,4.86-9.84-2.37V446.48C2.62,443.41,9.68,448.29,8.38,452.2z" />
<path class="cls-15" d="M1200,862.47V927c-1.46,1.31-2.22,1.16-3.65,0.46c-5.64-2.74-13.41-13.84-8.73-19.78  c0.04-0.96-8.82-16.93-9.64-16.43c-0.76,0.47-7.1,15.64-7,16.53l1.98,1.82c0.67,5.08-1.38,10.2-6.16,15.37  c1.7,0.17,3.14,0.79,4.34,1.87c-0.34,6.23-2.62,12.27-6.84,18.14c11.73,3.15-1.3,19.47-8.28,13.51c-2.81-2.4-5.15-9.3-0.43-10.95  c-4.55-7.4-7.28-15.79-8.18-25.18c-3.94,8.11-7.56,16.43-10.85,24.96c4.61,1.79,5.7,8.35,0.43,8.96c2.79,1.92,1.51,3.68-1.59,3.38  l-1.21,2.43c1.6,2.41,0.65,3.67-2.22,3.34l-1.1,2.53c1.02,0.33,1.01,0.72,0,1.17c-0.58,0.54-0.63,0.81,0,1.33  c0.43-0.65,0.82-0.63,1.17,0.06c6.94-1.64,6.55,4.54,2.22,7.99l1.65,2.19l-5.06,7.42c12.51,1.69-2.07,19.37-8.29,14.23  c-0.63-0.52-5.31-14.64-5.31-15.46c-0.01-2.12,0.43-3.06,1.35-4.87c-3.71-7.61-6.81-15.49-9.31-23.64  c-4.43,9.47-7.26,19.49-8.48,30.06c-3.44,14.35-8.06,17.1-17.98,5.08c-3.38-4.1-5.26-6.97-0.92-11.49  c-0.11-1.32-11.19-22.72-12.2-23.58c-0.9-0.77-11.8,18.75-7.03,21.04c-0.71,4.18-2.87,8.1-6.49,11.76c3.44,1.26,4.83,3.24,4.17,5.93  c-2.38,3.88-5.12,7.47-8.24,10.78c12.2,1.25,7.54,8.61,1.06,15.07c9.29,4.63,0.44,14.31-7.61,7.96c-3.82-3.02-9.48-11.29-2.6-13.61  c-2.38-2.27-4.52-4.79-6.42-7.56c0.24-2.35-10.26-27.74-12.21-26.02c-2.54,2.24-8.99,20.65-8.07,24.43  c1.55,6.62-0.95,13.18-7.5,19.66c13.36-0.25,2.06,17.58-3.39,20.84c-6.65,3.97-14.35-6.95-7.86-11.57c0,0-4.24-8.31-12.73-24.94  l-2.5,0.37c-1.3,4.22-5.97,1.42-8.43-1.22c-2.75-5.58-5.03-11.29-6.82-17.12c-11.2,2.38-22.23,3.26-23.35-11.66  c-0.75-9.99,2-16.64,12.8-12.24c2.82-4.65,5.71-5.64,8.67-2.97c2.86,6.54,4.24-12.88-3.29-7.59c-4.43-0.31-5.02-4.3-5.43-7.98  c-3.93-0.09-5.41-0.74-5.83-4.85c0.65-10.84,0.81-21.71,0.48-32.63c0.44-1.71,1.47-2.46,3.16-2.15c7.3,4.28,11.91,4.23,13.82-0.15  c-1.86-2.53-2.7-4.91-2.53-7.15c2.41-4.31,13.57-8.09,17.58-4.86c0.84-0.74,1.71-1.44,2.66-1.99c6.87-3.99,39.43-3.52,49.17-2.65  l5.68,2.64l2.44-1.61c1.63,0.05,14.49,1.76,15.15,2.14c1.24,0.71,1.66,1.2,2.29,2.87l2.81-1.64l18.92,5.87  c16.09-12.11,33.28-21.88,51.57-29.32l3.01,0.44c0.53-0.86,1.08-1.68,1.76-2.39c5.44-5.73,51.57-16.43,58.87-13.4  C1198.34,861.37,1199.18,861.9,1200,862.47z" />
<path class="cls-2" d="M1200,957.61v106.47c-40.49,1.77-81.21,7.13-119.53,20.18l-2.2-1.82c2.25-7.05,6.22-13.43,11.89-19.12  c-2.04-2.22-39.44-3.23-46.69-3.18c-32.28,0.22-57.83,6.04-88.8,13.1c-2.5,0.57-5.1,0.22-7.61-0.16c-5.07,0.4-14.7-1.1-15.58-6.46  c-0.41-2.44,1.08-5,4.49-7.66c-3.96-0.93-5.73-2.57-5.33-4.92c3.4-5.52,6.29-11.25,8.68-17.2c-2.32-0.52-4.07-1.64-5.24-3.35  c4.89-10.25,9.02-20.9,12.4-31.96c1.01-2.91,2.66-3.95,4.95-3.12c1.53-0.75,2.33,1.15,1.31,2.48l2.68,1.6  c4.23,9.48,8.58,18.92,13.07,28.31l-1.83,2.58c-1.11,0.37-1.53,0.86-1.26,1.49c2.28,0.82,3.98,3.01,5.09,6.55  c2.74-3.95,4.36-7.3,3.32-12.16c2.05-5.21,4.1-10.4,6.14-15.58l2.3-1.05c0.09-1.74,2.37-4.16,2.76-6.08  c4.79,11.67,9.12,22.13,16.06,31.47c-4.74,1.89-4.9,3.66-2.57,6.52c1.2,1.48,2.97,4.62,5.32,2.45c3.23-2.98,8.83-10.14,9.49-14.48  c0.37-2.42-6.03-1.55-7.71-3.52c2.81-7.36,13.55-13.86,7.66-21c0.99-8.13,5.7-18.88,10.75-28.8c20.77,27.01,5.41,24.36,23.36,38.51  c-2.29,2.71-7.66,1.24-5.04,5.28c2.63,4.05,5.91,9.29,9.92,7.75c1.32-0.51,3.42-2.51,2.68-4.14c-0.62-1.37-5.78-0.5-5.38-2.23  c2.3-4.94,8.41-7.87,8.01-13.13c-3.44-0.4-8.24-0.44-7.63-3.74c0.38-2.06,6.21-6.8,8.54-11.75c0.77-1.63-5.08-1.56-5.08-3.1  c0.54-6.35,10.95-10.03,5.41-15.5c0.06-7.06,6.53-15.42,10.96-23.67l15.36,29.69c-9.95,4.57,4.61,11.84,7.6,16.89  c9.51-9.98,4.07-25.43,16.59-47.5c5.39,11.22,6.9,22.35,12.47,30c-4.91,5.48-1.21,0.44,1.83,16.94c1.11,6.05,10.96-5.06,10.16-7.57  c-0.59-1.84-4.07-1.12-6.53-2.09c1.85-4.36,5.67-7.15,7.03-11.32c4.35-3.73,4.87-9.33-2.22-7.99c-0.27,0.39-0.91,0.26-1.17-0.06  c-0.63-0.41-0.61-0.88,0-1.33v-1.17l1.1-2.53c0.43-1.32,0.87-2.68,2.22-3.34l1.21-2.43c0.23-1.3,1.13-2.21,1.59-3.38  c2.7-6.56,7.63,0.45,9.35,4.76c8.39,0.77,16.51-1.2,24.37-5.9c-8.23-13.24,13.4-17.44,13.1-1.83c4.95,1.16,10.03,1.73,15.23,1.72  L1200,957.61z" />
<path class="cls-3" d="M444.33,1132.43c15.35,2.24,30.63,5.09,45.86,8.55c3.12,1.54,2.97,3.9,0.32,5.59l-45.87,14.87  c-13.09-2.84-26.11-6.26-39.08-10.26c-21.51-3.09-46.15,3.49-64.44,14.6c-4.89,1.98-19.43,5.92-16.32-3.17  c0.72-2.09,31.26-23.82,35.87-25.61c-5.68,1-11.6,2.28-16.57,5.4c-18.39,11.53-36,24.12-53.18,37.37  c-10.37,2.78-20.93,4.47-31.7,5.06c8.7,2.75,17.89,4.05,27.57,3.91c8.87,2.23,17.52,5.21,25.95,8.91l1.36,2.47  c0.67-0.65,1.81-1.51,2.33-1.12c16.14,12.39,33.69,26.99,48.99,40.5c4.32,2.46,6.27,5.09,5.86,7.88c-1.19,4.87-5.18,8.25-9.02,12.43  c-17.31-10.84-35.47-16.7-53.43-24.52c-6.83-2.97-11.34-12.77-20.47-15.32c12.23-3.31,20.44,5.27,32.76,6.61  c-10.06-11.7-26.29-20.27-42.72-21.12c-22.72-1.19-40.86-13.26-62.23-16.34c-25.09-3.61-50.34,10.62-75.07,10.16  c-5.39,8.12-11.71,9.61-16.14,18.61c14.64-6.37,28.52-10.03,44.91-9.58c-14.45,26.41-29.95,17.85-40.44,26.22  c-46.35,36.98-44.01,34.63-73.27,87.49c7.83,2.21,9.54-5.95,17.26-4.7c-14.02,24.8-33.04,45.47-56.12,65.67l34.79-99.9  c-2.81-1.53-7.68-1.6-10.49-0.14c-10.67,25.92-24.54,50.05-41.62,71.71v-37.5c14.12-12.58,16.58-33.83,27.53-50.21  c11.05-16.53,27.88-29.12,42.27-42.93c4.06-3.9,10.66,3.58,13.75,5.02l49.82-51.58c17.75-2.85,37.42-0.45,51.99-10  c2.07-1.48,4.23-2.33,6.48-2.53c31.77,1.91,62.84-0.68,93.21-7.76c10.7-4.82,20.68-11.48,29.95-19.97l3.82,0.66  c2.76-5.32,12.17-9.38,18.11-11.74c22.32-8.87,46.26-14.05,70.39-13.44l16.68,8.43C431.86,1123.79,438.64,1127.56,444.33,1132.43z" />
<path class="cls-4" d="M1200,348.1v61.86c-35.21-1.91-70.42-0.64-106.8,2.12c2.93,3.83,7.36,2.68,10.7,3.81  c6.06,0.05,11.9,1.89,17.6,3.75c1.13,0.07,2.26,0.79,3.4,0.97c0.5-0.6,0.92-0.51,1.28,0.21c0.71,0.12,1.51,0.25,2.23,0.19  c1.76,0.29,3.01,0.97,3.73,2.05c0.7,0.11,1.42,0.08,2.13,0.14l2.33,1.25c-0.06,0.28,0.03,0.6,0.04,0.89  c2.35,1.03,0.67,3.23-1.19,4.45l-2.22,0.19c-10.33,2.92-20.98,4.99-31.76,4.94c-1,0.12-2.12,0.33-3.12,0.21  c-2.45,1.74-5.79,1.61-8.59,0.93c-0.66,0.01-1.4,0.19-2.05,0.06c-3.46,1.95-8.12,1.73-12.02,1.16c-0.6-0.04-1.47,0.29-2.01,0.06  c-1.77,1.36-5.17,1.59-7.41,0.93c-3.31,0.41-6.8,0.21-10.13,0.36c-2.1,1.1-4.61,1.35-7.52,0.76l-3.17,0.07l-15.54,1.06  c-1.87,0.83-4.71-0.39-6.7,0.11c-0.95,0.98-2.72,0.88-3.76,0.08l-17.27,0.13c-22.25,1.79-44.95,1.79-67.23,0l-31.24-0.33  c-1,1.01-2.82,0.99-3.7-0.16l-9.28-0.77c-1.32,0.87-3.58,0.68-4.92-0.14c-0.64-0.02-1.31-0.09-1.96-0.05  c-1.91,0.3-5.08,0.79-6.32-0.91l-3.2-0.08c-3.95,0.75-8.01,0.35-11.93-0.33c-2.39,0.8-5.52-1.06-7.99-0.82  c-3.98,0.66-8.43,0.76-12.02-1.13c-1.02,0.22-2.17-0.15-3.21-0.09c-0.84,0.83-1.74,0.78-2.54-0.13l-2.05-0.07  c-1.08,0.47-2.3,0.44-2.83-0.72c-1.44-0.07-2.87-0.17-4.3-0.25c-0.96,0.98-2.56,0.41-3.61-0.22c-1.48-0.59-3.13-0.68-4.69-0.91  l-1.28-0.15c-4.14-1.15-10.18,0.06-10.72-6.04c46.69-10.81,93.36-15.43,139.73-20.64c1.1-0.34,2.34-0.38,3.71-0.14  c14.25-0.88,28.64-1.88,42.94-1.51c3.3-1.56,6.95-1.84,10.96-0.83c4.34-0.82,9.61-0.27,14.05-0.38c2.97-1.57,2.98-2.62,0.01-3.14  c-1.8-0.02-3.87-2.12-5.94-1.25l-1.32-0.13c-21.4-2.04-43.13-3.19-65.16-12.01c25.05-8.46,49.3-12.53,74.71-15.88l173.15-22.81  C1195.98,348.56,1197.97,348.15,1200,348.1z" />
<path class="cls-2" d="M1200,739.45v100.1l-5.59,1.86c-22.69-1.68-45.58,1.66-66.86,9.74l-5.83-0.21l-3.08,3.81  c-19.15,7.89-38.48,16.13-54.72,29.23l-4.8,0.99c-3.47,2.46-8.14,2.64-13.99,0.54c-5.68-0.32-9.57-2.21-11.66-5.65l-4.02,1.13  c-10.93-3.33-22.36-4.13-33.71-4.5l-3.44-2.46l-2.89,2.32l-25.73,1.98c-4.61,0.88-7.89-0.06-9.86-2.82  c-0.75-0.59-1.85-1.49-1.63-2.17c0.91-2.72,8.86-22.12,9.95-22.69c5.62-2.92,8.21,5.58,9.28,9.99l5.73-18.26  c2.02-4.34,3.72-7.74,8.1-3.79c2.13,7,4.55,13.21,7.28,18.62c3.01-9.96,7.04-19.37,12.09-28.24c1.91-2.71,3.33-1.96,5.74-0.3  c1.66,1.14,11.88,19.76,11.32,22.91c1.14,0.03,2.26-0.76,3.36-2.37c-1.47-3.37-0.47-7.3,2.99-11.79  c-2.02-4.08,6.28-24.92,8.32-26.55c2.47-1.97,4.71-1.98,5.99,0.95c2.48,7.36,5.03,14.46,7.65,21.29c0,0,3.32-10.22,9.96-30.67  l2.76-0.81c-2.91-0.47-0.78-5.43,0.72-6.41c5.31-3.46,8.98,3.37,7.4,7.76c2.25,1.26,3.69,3.71,4.32,7.35  c4.24,9.4,6.26,10.47,6.07,3.24c-0.26-4.85,0.7-8.1,2.88-9.76c-0.71-0.57-1.73-1.48-1.48-2.08c2.04-4.83,10.11-19.71,14.37-11.34  c3.87,7.85,7.05,16.01,9.54,24.47c1.96-0.65,1.49-2.39-1.41-5.24c2.52-3.59,4.09-7.11,4.7-10.57c-1.47-2-1.56-2.76-1.11-5.1  c0.29-1.54,8.12-20.91,8.82-21.86c3.64-5,9.71,3.22,6.35,7.23l3.59,2.46l6.7,21.04l8.61-24.49c4.06-1.64,6.92,0.93,8.57,7.71  l3.81,14.56c1.98-1.71,3.33-3.69,4.05-5.93c-0.2-11.37,1.9-21.91,6.3-31.6c3.96-4.91,7.1-2.64,9.43,6.82c0,0,1.71-3.46,5.14-10.37  c-0.83-0.38-2.05-1.07-1.91-1.7c0.53-2.38,6.27-21.45,7.23-22.12c1.7-1.18,3.26-0.72,4.86,0.56l5.08,16.13  c-1.3-6.22-0.39-10.68,2.75-13.39L1200,739.45z" />
<path class="cls-5" d="M155.95,698.31c4.67-4.68,6.82,6.04,1.07,7.12c-0.11,10,17.85-4.14,23.34-4.43  c-10.92,14.53-24.59,24.69-36.06,36.49l-5.02,0.47c-31.32-12.63-65.38-11.56-96.18,2.17c-12.39-7.18-25.76-10.68-40.05-10.14  L0,727.73v-80.86c0.71-0.57,1.44-1.09,2.24-1.47c0.79-0.38,1.53-0.71,2.21-0.65c40.46,3.9,73.36,24.6,100.03,54.55l49.94-3.25  L155.95,698.31z" />
<path class="cls-15" d="M144.3,737.49c-11.93,12.29-23.9,25.15-35.24,38.92c3.85,5.11,8.3,3,13.45,3.31  c-6.1,10.74-14.86,19.53-21.7,29.17l-4.07,0.94c-17.4-4.79-35.4-6.05-53.98-3.76l-2.2-3.38c-7.83-18.59-18.11-39.77-38.71-46.31  L0,753.52v-25.78c15.08-0.62,29.82,1.47,43.17,10.24C76.34,722.52,111.83,723.55,144.3,737.49z" />
<path class="cls-5" d="M100.81,808.89c-5.57,7.86-9.43,17.98-16.42,26.21c12.9,1.79,21.07-5.21,31.67-7.22  c0.12,3.12-0.22,5.6,0.72,7.63c0.75,1.62,4.2,0.78,6.45,1.64l-34.37,39.52C60.75,862.59,31.18,849.05,0,844.92v-91.41  c22.35,4.77,35.03,28.92,43.73,50.78C63.42,802.12,82.86,801.46,100.81,808.89z" />
<path class="cls-3" d="M158.48,687.72c4.07,1.85-0.12,8.39-2.53,10.59l-52.69,3.43C76.9,671.16,40.17,648.17,0,646.88v-67.97  c1.64,0.57,2.44,3.68,4.21,3.43c2.26-0.32,3.35-3.01,6.22-5l10.21,19.6l12.29-15.79c2.18,11.08,2.36,22.05,6.54,32.78  c4.96-7.36,5.46-14.77,10.78-21.08c2.89,10.93,4.84,20.86,5.78,32.11l46.25,30.61l5.28-27.02l25.58,46.78  C141.77,680.19,150.74,682.68,158.48,687.72z" />
<path class="cls-4" d="M114.07,420.72c0.43,0.89,1.03,1.75,1.9,2.26l7.03,8.37c3.64,6.96,10.67,11.41,13.64,18.71  c-0.56,0.69-1.15,1.35-1.83,1.88c-3.48,2.7-45.52,3.76-53.71,3.81c-11.8-2.03-23.58-2.82-35.36-2.39c0,0-4.14-1.79-12.43-5.38  c-7.36,1.09-14.55,3.03-21.59,5.83l-3.35-1.61c-2.02-2.16-5.78-4.53-8.38-5.71v-78.52l53.04,63.69c16.8-7.18,32.5-15.86,49.31-24.38  L114.07,420.72z" />
<path class="cls-1" d="M1200,927v12.84v2.34v15.42c-6.21-1.41-12.94,0.61-19.12-3.15c1.33-4.33-0.34-7.93-3.81-8.71  c-2-0.44-5.56,0.12-6.47,3.9c-0.62,2.56,1.8,3.41,4.89,6.29c-9.92,3.04-20.49,10.48-30.41,7c-2.28-1.97-3.15-8.99-8.1-6.66  c0.58-1.49,1.45-3.68,0.84-5.18c-0.59-1.45-2.22-1.31-4.81-2.8c7.14-9.06,6.24-22.03,15.2-30.76c4.77,11.49,1.95,22.89,11.51,30.61  c-4.25,2.19-6.32,2.17-3.79,5.75c1.38,1.95,2.67,6.08,5.28,3.85c1.99-1.69,4.35-4.26,5.49-6.22c2.39-4.08-2.41-3.27-5.94-4.71  c3.31-7.05,7.42-12.29,8.82-19.1c-15.81-0.51,11.13-15.52-1.71-18.61l10.03-23.67c4.43,8.94,10.3,15.65,11.92,22.58  C1184.76,914.71,1194.62,924.11,1200,927z" />
<path class="cls-11" d="M1200,839.55v22.92c-21.55,0.53-43.07,6.11-63.19,14.31c-2.69,0.99-4.42,0.74-5.2-0.76  c-1.64-8.95-5-16.43-10.07-22.45l0.2-2.64C1146.64,840.61,1172.84,836.69,1200,839.55z" />
<path class="cls-4" d="M0,1151.95v-82.03c10.78,14.56,24.01,29.27,31.49,46.94c6.32,14.92-8.96,31.79-20.06,39.06L0,1151.95z" />
<path class="cls-3" d="M1200,724.87v14.58c-6.06,4.17,1.03,13.06-4.77,20.41l-7.51-23.88l-7.63,23.55c-2.26,5.03-16.2-2.75-13.36-7.29  c3.67-12.88,4.59-26.44,6.83-41.02c6.96,2.47,8.47,9.54,14.32,12.73c0.91-2.45,1.28-5.7,3.7-6.82  C1195.49,719.4,1196.51,723.5,1200,724.87z" />
<path class="cls-4" d="M0,1239.84v-7.03c9.85-5.47,13.89-17.78,22.87-25.4c16.82-14.27,36.73-25.13,55.66-35.73  c-14.4,16.96-33.46,27.07-45.81,44.8C23.93,1229.1,15.55,1236.85,0,1239.84z" />
<path class="cls-16" d="M692.71,750.99c8.9,6.11,15.95,15.9,26.81,20.58c30.57-5.96,61.85-8.54,90.32,2.91  c7.37,2.96,13.91,7.88,21.43,12.71c17.19-6.01,34.96-6.94,52.27-2.39l3.97-1.15c10.36,5.77,21.03,10.49,32.03,14.16  c44.53-1.57,89.03-1.33,133.5,0.72c0,0,3.23,1.03,9.7,3.1l-6.67,19.19c-1.59,4.56-0.59,10.47-4.91,14.2c2.1,0.97,3.84,1.74,3.35,3.3  c-4.8,15.32-11.02-23.19-15.61-27.58c-2.99,8.19-7.79,15.59-9.18,22.74c2.42,4.21-1.17,8.32-3.99,12.15  c0.95,2.2,3.67,2.79,1.71,4.56c-2.19,1.97-3.35,3.78-5,3.78c-4.57,0-2.36-4.05-3.43-5.88l-11.32-19.39  c-12.06,17.08-4.56,14.27-15.29,33.87c-6.1-7.92-5.5-17.04-10.04-24.41c-6.7,8.92-5.62,19.48-11.65,29.84  c-1.64-5.94-1.61-12.06-6.63-16.71l-10.23,24.21c-0.44,4.52-9.05,6.8-13.4,7.88c-5.58,2.33-9.69,2.11-12.34-0.66  c-7.61,2.24-15.61,1.94-24-0.89c-30.8-9.95-61.99-14.43-94.82-13.6c-4.05,0.26-6.59-0.85-7.62-3.35l-7.8,1.55  c-35.24-3.04-71.07-0.95-105.64,6.67c-3.61,0.8-17.98,4.07-15.86,5.17c18.1,6.25,36.21,13.7,51.62,25.18  c23.76-9.81,49.4-17.59,75.1-18.81l3.52,1.21c0.95-0.67,1.92-1.3,2.97-1.77c1.02-0.46,2.01-0.88,3.02-0.95  c28.21-1.85,60.23,2.69,88.23,7.04c0.99,0.15,1.94,0.66,2.91,1.19c0.99,0.55,1.91,1.23,2.81,1.96l-2.21,2.78  c-22.28,11.3-44.36,23.06-66.23,35.28c-4.06-3.53-7.58-7.62-10.57-12.28l-3.88,15.72c-4.4,11.55-8.88,9.41-13.44-6.42l-7.95,19.36  c-3.8,0.97-6.65-2.07-8.54-9.11c-4.1,4.78-7.27,10.93-9.53,18.46l-2.99,0.43c-4.28,1.17-6.42,1.76-6.42,1.76  c-42.04-3.84-85-4.57-126.03,6.68c-27.61,8.56-54.94,16.91-81.99,25.05c39.8,3.23,78.53,14.18,116.22,26.82  c5.86-5.62,12.89-10.33,21.08-14.11l9.75-6.93c45.38-13.8,95.56-17.82,138.49,7.06c18.5-7.1,37.51-12.62,57.02-16.58  c0.3-2.78-47.27-14.98-53.42-16.22l-4.72-3.16c0.35-1.12,0.74-2.21,1.29-3.23c0.53-0.99,1.07-1.93,1.84-2.62  c24.76-22.58,63.76-43.68,95.8-53.42c0.98-0.3,2.07-0.27,3.2-0.2c1.15,0.07,2.29,0.3,3.43,0.58l2.41-0.87  c-0.62-4.17,8.3-6.65,10.38-3.26c2.25,1.58,4.47,4.57,4.83,6.8c0.63,3.97-3.51,5.58-5.85,6c-3,0.53-5.9-0.93-11.24-4.04  c-0.74,11.12,1.75,22.67-0.61,34.87c0.81,1.56,4.72,0.14,5.52,1.44c1.15,1.86,0.44,5.49,2.24,7.12c1.7,1.53,5.31-1.64,6.61-0.59  c2.94,2.36,2.38,9.65,2.5,13.17c0.08,2.14-2.02,2.04-4.34,2.01c-1.29-0.02-1.64-3.85-2.91-3.76c-2.45,0.29-2.93,4.14-4.54,4.72  c-2.26,0.82-6.12-2.81-9.23-0.88c-5.64,3.5-2.16,20.37,4.86,21.82c5.62,1.16,14.52-5.72,16.83,1.43c2.46,7.62,2.84,17.86,12.04,17.6  c0.68,7.28-7.36,12.46-5.97,18.9c1.3,6.04-4.3,9.61-5.24,14.98c-3.07-4.44-5.04-7.66-5.64-11.63c0.03-0.83,0.45-1.32,1.26-1.49  c-2.03-11.4-12.12-20.28-13.92-32.49c0.29-1.18-0.15-2-1.31-2.48c-8,9.03-6,24.19-15.72,34.72c3.58,1.46,6.77,1.09,6.19,3.22  c-2.05,7.56-5.98,12.75-9.77,19.14c5.37,0.87,8.32,1.38,5.34,5.42c-1.39,1.88-3.89,3.82-5.98,5.71c-0.33,3.12-1.45,2.89-2.23-0.12  c-3.29-0.46-6.1-1.66-8.42-3.6c-4.55-12.26-10.27-24.07-17.16-35.44c-6.21,8.73-9.64,17.2-10.34,27.55  c-1.5,3.85-3.94,6.15-7.33,6.88c-0.89,3.34-10.75,3.67-11.91,0.43c-3.62-0.49-5.76-3.15-6.41-7.98l-2.95-12.19  c-2.51,4.79-5.43,9.26-8.74,13.41c2.12,2.92,1.44,6.49-2.75,6.96c-5.9,2.77-12.41,4.17-19.51,4.21  c-45.98,8.51-90.76,21.94-134.35,40.31c-27.15,7.47-54.8,12.66-82.96,15.58l-14.71,2.76l5.96,2.6c30.47-7.43,66.95-6.6,97.72-0.47  l4.47,2.95c3.5-1.34,9.37,0.85,8.64,4.96l4.14-1.05l58.79,20.34c0.51,0.39-1.3,1.16,0.29-0.52c16.09-16.92,35.14-27.2,56.83-35.41  l6.23,0.07c0.3-1.15,0.68-2.43,1.65-3.06c2.83-1.85,17.97-4.67,20.74-1.75l2.34-0.88c-0.33-3.54,2.01-4.02,3.65-1.07l1.23,0.08  c2.45,6.25,9.3,5.41,16.69,8.83c-9.34,4.3-19.33,5.6-28.88,8.8c-7.84,2.63-12.22,14.17-20.24,17.74  c-19.18,8.52-6.61,25.86-18.14,18.38c-13.04,11.87-18.81,30.2-16.89,47.64c3.55,0.96,4.06,2.96,3.26,5.44  c-0.44,1.37-2.09,2.81-4.17,4.89c2.06,2.34,11.7,10.4,15.07,5.25c1.13-1.73-1.36-5.71-1.6-8.65c12.25-3.93,25.48-6.58,36.49-12.98  c3.44-2,22.26-0.97,21.49,2.48c-1.5,6.78-9.19-0.16-11.89,5.34c-1.11,2.26-2.61,5.05-1.83,7.88c-1.61,0.8-2.82,2.8-4.95,2.67  c-1.27,0.41-2.34,1.12-3.24,2.13c-3.75,3.97-9.66,6.03-14.23,8.39l-3.99,1.7c-6.36-0.5-12.68-1.37-18.95-2.6  c-30.2-6.45-60.14-11.88-91.36-6.93c-79.69-33.28-171.57-6.31-246.98,26.91c35.47,3.53,73.07,9.8,101.55,32.74  c66.17-38.03,143.74-42.24,218.65-33.26c1.62,0.19,3.21,0.75,4.81,1.34c1.62,0.59,3.17,1.35,4.71,2.15l-42.28,33.13  c-9.22,7.22-20.41,17.72-32.45,18.8c-42.74-0.78-84.14,8.96-117.14,35.02c-0.15,3.57-3.45,4.18-5.04,1.05  c-1.08,0.55-2.39,1.02-3.52,0.21l-2.63,1.73c-29.45,2.08-58.07,7.96-85.84,17.66c16.56-0.58,33.87-0.56,51.92,0.06  c8.27-0.39,15.4,1.28,21.39,5c1.25,2.66-0.16,5.03-4.23,7.12c-3.59-0.18-8.46,6.6-6.38,9.12c0.62,0.76,17.82,4.84,18.98,4.85  c3.19,0,10.76-12.51,9.27-16.51l2.04-1.95c0.8-4.41,8.27-0.59,10.94,1.66l1.35-2.07c12.9,3.39,25.82,6.64,38.75,9.77l6.27-8.96  l2.81,0.59c2.92-0.64,4.08-1.94,3.47-3.91c-2.45-1.98-0.95-5.4,2.3-4.62c12.7-11.68,26.36-22.68,42.9-27.58  c1.63-0.44,2.24-0.22,3.12,0.79c4.98,5.73-3.3,16.52-7.26,20.65c-3.18,1.93-7.83,6.48-1.62,5.09c1.49-0.33,25.9-12.37,26.78-13.59  c1.13-1.57-1.89-13.23-4.15-14.96l0.11-3.02c18.74-5.56,38.72-6.32,58.27-4.77c7.53,1.83,3.98,4.82-0.92,7.7  c-5.12,3.01-20.42,5.02-15.53-3.91c0.06-0.11-2.17-0.47-2.46-0.23c-0.61,3.65-2.74,6.36-5.73,8.4c0.11,2.81-0.52,4.74-1.81,7.18  c-3.44,6.51-16.79,11.19-23.44,13.33c-14.13,10.08-29.22,16.38-45.28,18.89c-1.41,2.39-3.57,4.48-6.5,6.25l-0.31,2.01  c8.68,25.74-26.03,23.34-40.91,16.67c-12.3,2.8-7.87,9.63-0.28,15.06l0.66,1.72c-4.98,4.99-6.92,10.57-5.84,16.73  c1.78,2.94,2.38,5.47,1.8,7.61l-2.11,2.9c-3.03,1.38-18.91,6.82-20.51,6.15c-0.64-0.27-1.23-0.67-1.81-1.11  c-2.09-1.49-1.94-2.88,0.28-4.03c-3.27-3.01-4.95-1.85-5.04,3.49c-16.09,9.41-12.9-18.53-3.02-23.84  c-17.87-0.95-21.8-11.14-7.75-22.37l-2.08-3.18c-8.36,4.4-19.07,2.89-27.96-0.14c-2.62-7.04-6.06-11.05-13.63-12.35l-13.66-1.4  c-13.4-3.96-26.24-9.48-38.51-16.56c-4.07,0.63-6.62,3.93-7.65,9.89c-0.84,7.02-3.05,12.91-6.62,17.67l-2.18,0.79  c-6.48-1.23-12.81-3.56-18.99-6.99c-10.67-3.19-20,7.67-22.72,17.04l0.66,5.25c-0.72,4.54-8.39,26.72-11.71,27.07  c-3.25,0.34-11.02-14.88-7.25-18.3c-0.4-0.81-0.39-1.76,0.36-2.37l-2.47-1.21c-1.16-4.32-2.8-8.47-4.92-12.47l1.54-2.45l1.16-3.85  c-8.84-7.51-6.87-15.9,5.51-13.68c0.21-10.06-8.9-15.14-7.94-1.51c-1.44,3.6-4.55,5.23-7.03,2.12l-0.13,5.02L413,1417.54  c5.09,4.76-3.56,15.98-7.53,9.81c-0.29,1.31-0.72,1.4-1.43,0.23c-3.49,4.54-15.81-6.72-11.54-10.61c-0.97-0.66,0.3-1.09,1.38-1.38  l-0.01-1.84c-3.88-4.17-4.45-7.11-1.71-8.82c-1.17-3.72-1.56-9,1.41-11.7l-3.52-2.27c-4.84-10.04-8.77-20.42-11.79-31.13l1.54-3.97  c1.93-8.41,1.23-12.16-2.12-11.27c1.29,3.02,0.32,5.53-2.91,7.53c-4.03-0.42-6.28,1.12-6.74,4.62c0.49,4.16,0.47,8.18-0.06,12.06  c3.01,1.79,1.14,5.97-2.36,4.55c-1.06,0.93-1.82,2.19-2.28,3.79c3.55,2.13-1.02,9.73-4.6,8c-0.91,0.84-0.89,1.48,0.21,1.89  c0.19-1.03,0.51-0.97,0.93,0.06c1.13-0.01,1.49,0.52,1.05,1.57c1.04,0.26,1.01,0.66,0,1.17l-2.16,4.79  c3.52,2.31-1.32,9.44-4.79,7.18c-0.96,2.43-2.28,2.44-3.24,0.01c-3.97,1.48-8.65-3.37-7.11-7.29c-2.2-3.34-2.23-5.36,1.78-6.79  c-2.73-0.3-3.95-2.75-1.93-4.93l-2.63-3.5c-4.8,1.97-9.17-6.54-5-9.39c0.62-0.99,1.59-1.79,2.9-2.39c-0.04-1.05,0.3-1.11,0.99-0.25  l0.51-1.59c6.67-0.03,2.4-6.9-2.51-4.33l-2.19-1.85c-3.43,1.35-6.15-4.02-2.8-5.81c0.21-1.84-0.6-3.47-2.42-4.88  c-3.18,0.84-4.12-1.62-1.09-3.35c-0.24-1.05-0.56-1.68-1.29-2.51l-2.82-0.38c-4.23,6.11-7.46,12.48-9.68,19.11  c1.29,4.81-0.62,9.39-5.73,13.75c2.71,1.36,3.82,3.1,3.32,5.22l-8.48,10.21c2.53,1.07,5,2.31,7.4,3.71  c-2.66,11.52-12.77,17.37-17.7,2.23c0.47-4.51-10.28-29.85-11.7-30.7c-1.13-0.67-9.49,19.47-10.52,22.03  c-2.94,5.13-3.92,4.48-7.1,0.08c-3.69-11.16-6.72-22.3-9.1-33.42c-4.3,7.57-7.51,15.67-9.63,24.29c-2.05,2.27-3.32,1.2-5.05-1.22  l-5.17-17.55c-4.41,7.05-8.26,14.43-11.55,22.14l-3.12,0.7c-1.75,2.68-2.53,2.53-2.59-0.65l-2.62-1.94  c-2.5-13.32-12.72-23.06-22.37-31.8l-0.18-3.31c20.51,4.29,11.11-16.69,51.64-27.36c13.94-3.67,25.26-5.85,40.37,2.88  c1.42-13.2-7.68-19.8-20.84-20.93c-12.63-1.08-25.37,6.42-38.46,7.2c1.64-4.15,2.76-7.4,4.31-10.31c1.31-2.46-3.72-6.95-7.07-6.33  c-5.28,0.98-6.96,7.92-12.74,10.13c2.77-10.31,1.85-20.19-1.38-29.16c-18.8,18.54-1.07,35.04-27.32,43.9  c-13.79,4.66-27.45,8.85-42.31,6.96l-10.69-10.77c-6.48,2.51-11.33,4.61-18.87,1.51c7.84-12.22,10.58-30.6,23.08-39.82  c21.01-15.51,42.08-34.15,66.18-45.74c23.6-7.53,52.69,1.82,76.66,6.09c9.01,13.95,20.68,23.91,26.36,38.04  c3.62,13.12,6.28,24.09,23.96,25.03c-10.03-11.3-10.38-21.49-6.62-33.42c29.41,0.38,46.62,30.44,64.21,32.43l45.44,5.13  c9.21,1.04,16.16,7.86,25.91,11.27l-12.41-19.7l-46.1-12.73c-4.47-2.16-7.29-7.36-11.16-9.79c17.11-11.55,34.13-13.58,55.28-7.5  c-28.4-33.03-37.41-10.36-69.74-15.09l-57.18-47.27c0.02-0.88,0.08-1.76,0.3-2.59c0.21-0.81,0.43-1.55,0.9-2.03  c23.81-24,60.63-37.18,94.12-34.18l29.03,23.2c-1.07-4.55-1.11-9.12-0.11-13.7c19.88-0.87,43.75,8.85,61.14,18.65l2.22,3.64  c1.55,1.62,3.19,2.64,4.94,3.05c0.77-4.38,8.07-1.4,7.82,2.53l2.34,2.47c0.94-2.11,3.01-2.9,6.21-2.36l-1.62-12.21l2.24-1.83  c-3.57-3.3,4.98-7.21,7.05-3.67c7.58-2.35,15.29-3.02,23.13-2.01c-0.77-3.1-4.09-4.93-9.95-5.49l-1.28-2.82l-4.59,0.95  c-8.46-2.19-43.85-13.44-47.1-18.99c-0.43-0.74-0.73-1.56-0.99-2.4c-1.81-2.04-0.84-3.91,2.93-5.62c-0.25-0.47-0.41-0.87-0.28-1.06  c2.23-3,17.19-20.71,19.12-21.58c11.51,1.5,23.01,3.43,34.49,5.78c5.87,0.61,11.55-0.97,16.89-3.36  c7.55-3.39,26.68-16.27,31.7-22.33c0.69-0.84-9.41-4.66-11.19-4.63c-3.8,0.06-4.65,0.67-7.34,3.63  c-9.4,13.47-25.16,18.61-40.89,14.03c-9.83-2.86-14.84-8.72-12.04-19.19c4.21-15.76,36.43-20.83,50.2-21.58  c7.33-1.02,14.63-3.57,20.02-8.84c-15.69,3.23-32.31,5.37-47.98,1.03c-0.93,1.08-2.02,1.99-3.18,2.82  c-14.59,10.48-28.27,20.58-42.04,32.16c-2.05,1.72-3.87,4.17-5.4,6.4c-7.92,21.33-29.6,27.6-50.57,24.44  c-12.28-4.63-24.93-10.6-37.6-17.5c-21.88-0.32-45.17,4.23-65.88,12.14c-8.15,3.11-14.87,7.59-22.03,10.82l-3.07,0.49  c-14.15-4.64-28.61-8.39-43.37-11.25l-31.57-13.81l-0.58-2.82c9.49-9.86,19.08-21.4,27.27-33.04c7.94-11.28,7.48-26.92,13.63-39.54  c14.48-4.9,27.78-11.98,41.54-19.5c6.12-1.37,18.95-0.35,21.94,4.18l11.46,17.35c6.32,9.57,22.11,17.1,34.86,19.09  c18.42,2.87,36.93-0.61,56.39-1.4c-13.83-7.02-38.69-6.59-50.21-19.01c21.8-9.16,44.12-11.06,66.35-17.92  c-4.98-3.11-9.99-8.58-15.9-9.17l-52.45,10.53c-35.97,7.23-16.36-49.85-93.92-31.35c13.32-25.09,96.74-50.18,111.95-46.69l31.1,7.12  l14.55-3.75l61.29,22.67c2.06,0.76,7.16-2.03,7.18-3.85c0.02-1.5-20.15-27.32-34.12-26.17c3.77-3.9,6.15-8.7,10.89-9.59l26.59-5  c14.53-2.73,26.32-15.27,39.92-23.38l-42.5,5.61c-5.95,0.78-11.97-12.9-11.36-19.41c54.1-27.25,55.59-18.03,109.12-18.76  c5.89-0.08,11.16-4.47,16.26-5.4c-10.85-1.44-19.78,0.02-29.33-4.17l44.83-28.48c-4.36-1.85-7.97-3.41-11.96-4  c-38.91,23.15-32.2,22.93-80.73,27.6c5.29-16.41,29.66-27.12,21.81-35.11c-28.18,20.15-55.05,38.16-85.86,51.89  c-5.8,2.58-9.16,7.98-11.02,12.48c-2.45,5.93,0.86,10.64,3.58,17.9c-9.19,5.33-20.71,5.52-30.94,1.78l-28.47-10.39  c11.88-8.84,22.92-16.21,20.98-30.83c-20.48,10.54-39.25,21.02-60.12,27.06c-0.09,0.91-0.3,2.26-0.97,2.38  c-2.6,0.47-11.84,0.77-14.74,0.48c-2.55,0.66-4.34-0.06-5.36-2.17c-3.1-6.09-10.01-10.66-14.57-13.58  c-6.95-4.45-14.9,0.87-21.78,3.8c-10.68-6.92-18.89-19.32-24.07-30.6l15.22-19.74l4.3,13.98c6.01-8.8,10.38-17.62,14.64-26.49  c2.96,3.41-0.39,5.97,6.19,9.49c1.95-12.75,15.19-24.63,17.58-36.73c2.45-1.06,4.95-1.26,7.35-0.05c0,0,9.32,4.13,27.97,12.38  c28.39-12.33,60.37-6.92,88.84,1.01c-0.27-0.83-0.42-1.56-0.13-1.91c3.92-4.61,23.77-9.09,30.86-10.52  c7.71-1.56,21.87-4.24,29.16-3.15c1.83,0.27,3.42,1.21,4.84,2.37c0.12-0.92,0.48-2.31,1.12-2.32c30.49-0.36,62.61,1.04,93.32,5.03  c11.74,1.53,22.04,5.44,30.91,11.73l4.81-0.05c13.6,6.41,26.46,13.92,38.58,22.53c24.58-10.89,52.22-12.26,78.66-9.95  c25.46,3.6,51.01,5.71,76.65,6.32l-23.18-2.92c-62.76-12.6-125.2-25.73-187.32-39.36l-0.92-2.59c-0.92,0.33-1.84,0.62-2.79,0.75  c-7.98,1.06-52.16-23.31-62.19-29.19l-3.19-4.26l3.22-2.99c26.51-4.84,57.36-8.34,82.48,3.73c0.56,0.27,0.98,0.86,1.4,1.51  C692.12,749.43,692.43,750.2,692.71,750.99z" />
<path class="cls-3" d="M226.44,1521.94l4.14-0.01l14.37,8.52c78.35-38.15,162.51-28.65,241.66,1.16  c13.56-12.82,29.36-23.19,45.1-33.18c16.69-10.58,34.26-21.62,52.97-27.86c3.03-3.02,7.22-5.12,12.57-6.3  c9.27-4.78,18.57-8.53,27.89-11.23l1.82,1.11c8.09-2.2,16.33-6.29,24.42-7.94l4.24-3.28c23.82-6.22,47.91-10.85,72.28-13.88  c8.34-1.63,15.7-0.92,22.09,2.1c36.45,2.39,71.82,16.08,105.86,31.3c58.36-41.05,124.84-70.3,198.6-54.51  c-9.98,13.19-16.23,25.21-22.72,37.63c-43.61,2.28-84.8,23.5-114.91,54.46c-71.84-21.29-160.57,14.7-208.7,71.51  c-96.09-39.75-212.12,12.56-292.08,66.13c-36.87-15.58-74.88-25.51-114.08-32.02c10.83-17.49,26.78-28.11,46.37-33.71  c7.1-2.65,15.37-5.83,15.75-13.89c-16.84,1.1-29.96,10.45-45.57,13.33l-1.44-17.95c-4.03-6.4-10.7-13.27-16.63-17.83  c0.04,14.13,10.81,30.08,1.28,40.27l-21.73,23.26L259,1557.01c-6.23,8.48-11.41,17.05-18.35,24.67  c-12.55-15.26-26.09-27.19-42.43-38.47c6.85-5.52,12.77-10.62,17.56-17.17C218.47,1522.38,223.51,1523.4,226.44,1521.94z" />
<path class="cls-5" d="M218.74,1382.54c0.81-0.06,1.73,0.78,2.59,0.65l1.56-0.32c5.92,2.36,12.13,4.3,18.63,5.82  c13.56,12.01,27.95,23.08,43.06,33.13c31.67-6.64,66.15,0.31,91.44,20.84c26.17-5.18,48.82,2.03,70.34,15.48  c11.66,5.41,24.87,5.89,37.64,4.61c-9.17-3.98-17.97-12.11-15-22.95c4.48,1.09,9.33,1.62,13.8,0.35c1.02-0.97,2.17-2.04,3.55-2.15  c20.38-1.54,51.33,22.1,62.39,38.33c10.28-4.11,21.12-6.63,32.5-7.58l3.45,1.81c-33.79,18.82-67.62,37.25-97.63,63.14  c-92.8-29.59-148.84-40.28-242.09-1.06c-6.78-3.4-12.91-6.7-18.53-10.71c17-8.5,27.5,0.45,34.69-12.79l-20.05-2.62  c8.05-24.38,13.34-10.21,11.65-39.22c-21.13,21.24-6.96,31.85-44,45.33c-39.41,40.4-46.11-5.82-106.19-0.38  c-2.97-23.96,16.92-43.5,38.64-47.61c28.22,12.44,22.36,23.06,57.53,11.18c-17.58-6.29-32.35-9.02-44.11-22.16  c11.73-6.08,22.39-15.95,35.35-20.77c40.1,5.3,91.53,5.87,108.5,50.15c7.28,0.84,14.11,0.84,21.13,0.27  c-4.8-6.42-10.47-11.42-13.42-17.65c18.21-4.84,32.54-2.96,48.21,5.01c5.53,1.32,11.53-4.77,15.84-7.74  c-11.16-3.17-19.69-11.4-30.5-12.91l-33.24-4.65l-30.8-21.92c-25.64-18.25-60.71-23.07-92.4-30.17  c-14.18,8.23-27.6,17.13-45.51,14.2c14.11-40.71,15.01-18.61,28.88-47.09l2.7-0.63c3.22,4.77,5.96,9.81,8.23,15.11  c7.91-0.12,16.5,3.31,22.11,8.88c5.07-1.63,10.28-2.7,15.62-3.23L218.74,1382.54z" />
<path class="cls-15" d="M802.53,1329.11c1.99,1.6,4.78,1.69,7.23,1.02l32.43,4.95c-8.88,8.58,7.1,5.83-9.48,27  c1.71,2.74,4.81,1.94,7.67,3.25c-2.85,9.03-8.59,15.9-15.08,23.42l11.13,4.26c-3.83,7.93-9.06,13.91-15.25,18.3  c-1.79-2.1-3.67-4.93-2.44-6.01c1.58-1.38,3.98-0.84,7.25-3.02c-21.65-16.06-6.82-38.5-22.86-40.72l-12.61,30.83  c6.42,7.87-5.37,15.64-6.97,23.8c-10.98-10.81-1.26-16.52-16.1-38.04c-5.73,8.1-9.05,13.37-11.92,19.74  c13.83,4.51-19.89,22.66-0.23,23.39c-0.52,4.06-3.95,6.49-5.28,9.89c-33.37-2.19-66.29,8.46-98.62,15.06  c-6.28-5.32-6.64-19.02,2.4-24.31c-5.21-3.24-8.99-7.16-8.94-11.65c0.04-3.48,7.76-9.04,12.16-7.09c19.42,8.59,35.81,1.21,36.78-1.2  c3.55-8.84-2.39-11.92,0.79-17.35c1.02-1.74,4.33-1.87,6.75-5.4c-4-1.29-7.3-2.95-6.89-6.28c0.91-7.52,12.03-6.17,12.96-5.78  c2.22,0.91,1.59,2.04,0.32,4.4c-0.76,1.42-2.62,1.25-3.97,6.3c15.48-0.72,29.34-11.3,43.38-18.72c-0.13,0.07,28.02-7.81,23.18-19.17  c4.16-2.66,6.74-5.15,6.31-9.85c3.1-0.26,6.1,0.26,7.69-0.06c0.87-0.17,2.91-0.08,1.71,2.46c-0.42,0.89-3.8,0.46-3.49,4.06  c6.41,0.56,13.42-0.65,17.94-5.5c0.74-0.8-1.96-2.33-2.53-2.25C799.42,1328.9,801.04,1329.2,802.53,1329.11z" />
<path class="cls-13" d="M193.57,1345.49c11.33,10.14,23.68,21.67,25.17,37.05c-6.33,0.49-12.55,1.77-19.48,3.36  c-6.65-5.57-14.28-8.72-22.67-9.07c-4.58-5.74-5.63-12.73-9.94-16.44l-4.78,2.75c-5.15,2.96-25.95,5.74-31.01,4.34  c-4.5-1.25-10.93-5.98-13.43-9.74C139.95,1344.61,167.87,1340.12,193.57,1345.49z" />
<path class="cls-5" d="M117.44,1357.75c5.67-0.02,9.83,7.94,15.33,7.53l29.11-2.14c-5.84,7.92-17.32,7.63-26.01,14.69  c-5.42,18.18-18.85,36.12-39.26,40.87C96.47,1393.72,95.91,1370.32,117.44,1357.75z" />
<path class="cls-15" d="M875.49,1345.4c-0.31,5.28-4.68,11.55-7.57,16.86c2.8,3.75,10.37,0.16,8.11,5.2c-1.25,2.78-3.61,6.51-6.5,7.83  c-4.6,2.1-9.24-10.94-8.36-12.35c1.01-1.63,3.61-0.1,7.66-2.71c-6.53-6.43-9.99-11.99-10.49-19.79  C864.34,1340.98,869.74,1343.78,875.49,1345.4z" />
<path class="cls-8" d="M863.31,243.04c-32.12,0.96-106.89,4-132.79-8.74c59.76-12.63,119.29-10.92,179.48,0.14  C895.16,241.86,879.72,242.55,863.31,243.04z" />
<path class="cls-12" d="M734.74,528.39l-1.09,4.75c-24.06,27.69-34.54,65.08-25.88,100.98l-1.21,4.74l-15.4,8.15  c0.11,3.12-1.08,2.98-1.99-0.01c-0.55,0.44-0.98,0.34-1.29-0.3c-2.84,1.51-6.04,0.29-9.62-3.67c-8.03-10.47-16.96-13.59-26.79-9.37  l-73.66,33.2c-12.37-5.4-24.69-11.02-36.95-16.86l-42.94,20.85l-2.27-1.51c-2.07,2.89-5.22,1.5-9.46-4.15l-54.1-19.65l-2.07-3.25  l-5.76-30.02l13.9,13.46l-8.32-28.16l6.4,3.66l-6.61-21.68l58.76-16.94c-0.33-1.29,0.97-2.09,3.89-2.42  c1.15,0.1,2.17-0.07,3.82-0.04c1.2,0.02,1.97-0.47,1.07-1.91c-21.58-34.57-64.6-19.25-83.51-35.39l-2.34-1.05  c-0.33,0.09-0.84-0.03-1.17-0.11l-4.69-2.22c-0.37,0.05-0.8-0.06-1.17-0.12c-1.72-1.21-3.67-1.95-5.86-2.22  c-0.37,0.06-0.79-0.15-1.17-0.12l-1.29-0.16c-13.36-3.16-27.16-4.2-40.84-2.46c1.78-12.54,23.53-15.4,34.82-8.56  c10.42,6.31,16.09,5.33,27.08,6.13c16.98,1.25,33.43,6.9,51.45,5.45c26.69-2.14,53.1,2.7,79.96,1.88  c14.72-0.45,26.56-5.5,41.93-1.91c12.55,2.93,26.96-2.55,38.82-1.74c18.31,1.25,34.75,0.71,52.9-0.47  c0.5-0.03,54.89,2.34,53.96,6.85L734.74,528.39z" />
<path class="cls-3" d="M136.65,450.06c0.58,0.26,1,0.82,1.56,1.11l3.34,4.49c0.53,0.35,0.87,0.97,1.37,1.35l2.28,2.58  c0.42,0.2,0.7,0.81,1.13,0.95l11.9,15.27l1.03,1.17l2.57,3.49c7,6.98,13.48,14.6,19.49,22.23c3.78,1.54,6.96,4.17,9.53,7.89  c15.1,1.16,30.17,2.64,45.2,4.43c16.87,19.23,34.05,38.12,51.54,56.66l1.82,3.83c-7.06,9.69-12.66,21.69-25.39,24.88  c-3.63,2.05-5.65,1.89-6.06-0.49l-3.7-1.92l-15.74-23.08l-38.08-24.23c11.95,17.61,22.26,36.34,28.41,56.51l-1.59,2.4  c-1.94,3.19-4.68,5.81-8.22,7.87c-20.65-15.3-47.73-26.88-61.33-48.24l-27.88-43.78l-54.66-49.95l31.59,65.8  c9.22,19.21,10.84,40.54,17.23,60.74l-75.94-90.86l-19.39-37.19L8.38,452.2c8.13-1.62,16.75-6.66,25.47-6.45  c6.41,3.39,11.15,6.59,18.36,5.19c9.87-1.92,20.56,3.32,30.84,2.37C101.49,451.59,119.59,453.02,136.65,450.06z" />
<path class="cls-3" d="M495.66,669.34l3.37,0.73c9.97,17.28,22.04,27.04,39.43,37.63c19.53,11.89,39.5,22.96,60,33.08  c0,0,2.04,1.9,6.11,5.7c22,11.05,44.45,25.36,68.17,32.7l1.23,2.42c-3.92,3.87-4,6.99-0.22,9.36l8.09,6.05  c4.44,2.99,5.64,5.72,3.61,8.2c-19.8-7.73-39.9-12.43-62.06-12.95l-63.28-1.49c-2.86-0.95-5.4-2.48-7.61-4.61  c-4.18-2.41-8.76-2.45-13.74-0.13c-6.24-6.18-13.03-11.62-20.35-16.3c-1.73,5.23-3.86,10.23-6.39,14.99  c-20.41-2.84-37.13-16.05-50.96-30.61c-3.3-1.44-6.9-2.09-10.81-1.97c-3.24-2.26-4.6-11.1-3.18-14.72  c6.89-4.16,14.43-7.32,22.63-9.48l-43.09-31.71l0.27-2.71c2.59-16.89,6.35-34.56,3.15-51.24l56.63,20.55  C490.24,664.14,491.65,669.81,495.66,669.34z" />
<path class="cls-3" d="M394.79,889.83c3.5,11.76,11.31,21.73,17.24,33.86c-60.69,9.53-91.57,15.99-141.05,55.67  c2.59-16.08,16.46-24.31,27.11-36.81c-6.62,2.52-16.82,6.32-21.06,13.04c-29.77,47.06-22.06,25.64-31.48,84.96  c-18.14,20.66-31.45,45.01-50.51,63.76c-13.8,13.58-32.93,21.37-48.16,33.76c-10.1,8.21-25.67,8.14-37.52,14  c10.2-32.99,13.55-27.54,36.64-48.11c1.55,6.34-3.48,9.27-0.22,16.46c11.04-14.25,29.02-20.92,39.85-34.1  c33.98-41.39,56.3-113.32,52.54-107.57l14.41-22.06l-25.43,10.41c15.18-23,41.62-38.31,66-46.95c9.63-3.41,14.25,0.35,21.38,5.19  c4.18,2.83,11.66,2.04,13.73,10.45c4.27-7.08-1.74-13.06-1.59-17.99c4.11-4.22,1.31-8.94-3.6-14.12c4.35-3.79,11.97-3.46,18.91-2.08  c4.49,0.9,6.41,8.92,11.18,12.21c6.49,4.47,11.5,6.3,12.73,16.54c4.9-8.64,2.16-15.22,1.88-23.96c3.66,0.88,3.1,4.86,6.57,6.56  c3.46-6.16,2.84-15.67-0.59-22.4L394.79,889.83z" />
<path class="cls-5" d="M450.24,752.15c3.74-4.36,11.65-1.45,15.11,2.52c12.74,14.63,27.54,23.21,45.92,28.32  c1.98-6.31,3.39-11.07,5.79-16.52c8.74,3.93,15,10.06,22.17,17.63c7.63-5.18,16.54-0.64,20.89,6.67  c-21.64-0.51-43.48,4.02-63.44,12.16c1.83,3.38,5.92,2.77,5.51,6.33c-32.41-11.43-65.01-16.38-95.79-4.09  c-12.19-6.21-23.39-10.89-35.16-14.53c3.58-18.1,13.18-30.1,22.51-44.51l3.5-1.13c15.91,3.89,31.94,6.57,48.09,8.01  C447.18,751.53,448.81,751.24,450.24,752.15z" />
<path class="cls-11" d="M240.22,1110.5l29.35,13c16.13,7.14,35.59,5.07,49.25,14.39c-10.83,4.89-18.45,17.13-30.83,20.88  c-38.29,11.61-65.83,7.37-102.63,8.71L240.22,1110.5z" />
<path class="cls-12" d="M347.13,517.21c-15.29,10.37-31.39,19.56-45.72,31.75c3.32,0.98,6.86-0.59,10.18-0.54  c-6.04,10.47-15.56,18.01-22.18,27.1c-19.43-17.91-36.71-37.99-54.55-58.63l-45.59-4.08l-7.95-10.1c17.04,2.3,36.56,1.71,53.6,7.18  c24.41,7.85,48.21,9.97,73.17,3.01C314.85,511,354.97,504.66,347.13,517.21z" />
<path class="cls-2" d="M426.87,693.53l47.91,35.25c-9.73,5.02-19.45,4.15-26.7,10.73c1.14,4.39,2.73,8.64,2.16,12.64  c-3.66,4.27-6.48,3.88-13.15,2.41c-14.59-3.23-29.99-2.65-43.35-8.43c14.43-22.28,20.83-49.32,25.11-75.71  C422.37,677.1,420.91,688.31,426.87,693.53z" />
<path class="cls-16" d="M318.15,885.5c0.26,5.57-11.7,11.07-16.5,6.21c-7.58,1.72-10.68,7.53-18.09,7.59  c-10.59-10.09-14.95-24.56-20.58-37.78l19.76-19.68c0.65,5.42-0.45,10.84,1.52,16.52l9.07-4.23L318.15,885.5z" />
<path class="cls-4" d="M264.02,600.39c-37.46,28.84-71.31,60.73-98.54,100.28c-2.11,3.06-5.52,5.48-8.46,4.77  c0.02-1.46,0.98-2.79,1.22-4.21c0.27-1.54-0.62-2.61-2.29-2.91c-1.4-4.1,2.73-6.68,2.53-10.59c1.37,0.89,4.38,1.13,6.48,0.84  c15.01-25.43,34.09-48.15,57.63-66.33c-1.33-1.79-2.22-3.79-3.55-4.78c0.11-4.45,4.13-6.94,8.22-7.87c1.82-1.19,3.28-0.07,4.39,3.35  l21.79-13.13l4.53,0.11L264.02,600.39z" />
<path class="cls-4" d="M268.49,712.38c2.59,4.14-1.34,7.33-0.92,12.35c12.58-5.75,22.8-14.14,29.46-26.32l-1.3,18.6  c12.18-5.15,20.63-14.08,31.46-21.01c-12.08,22.49-32.77,39.48-57.43,46.31l4.25-12.52c-11.94,6.11-22.03,15.81-35.96,15.25  C249.41,734.06,259.29,725,268.49,712.38z" />
<path class="cls-4" d="M93.6,920.06c-6.67,2.84-10.79,9.32-17.34,10.7c-2.99,0.63-5.63,0.57-9.44,0.2c22.62-20,42.58-42.1,69-58.02  C125.49,892.78,109.66,906.5,93.6,920.06z" />
<path class="cls-4" d="M160.9,1096.38c0.03-5.14,1.8-13.45,5.17-18.58c14.34-7.55,23.02-18.44,34.81-32.1  C193.42,1065.46,182.78,1086.03,160.9,1096.38z" />
<path class="cls-4" d="M229.67,820.09c12.18-15.76,23.58-33.52,42.45-46.13C265.51,793.43,251.55,811.66,229.67,820.09z" />
<path class="cls-4" d="M204.18,742.94l41.57-34.91C238.86,726.7,224.28,739.38,204.18,742.94z" />
<path class="cls-6" d="M492.28,560.19c-0.9,1.29-2.41,1.99-3.89,2.42l-75.84-1.27C440.54,559.8,466.5,557.95,492.28,560.19z" />
<path class="cls-16" d="M392.98,534.16c2.93-0.46,5.3,1.76,5.78,3.75c0.81,3.4-1.53,5.78-3.72,6.37c-3.56,0.95-6.2-0.83-6.72-3.71  C387.77,537.52,389.64,534.68,392.98,534.16z" />
<path class="cls-10" d="M404.3,519.35c-2.09-0.31-4.41-0.55-5.86-2.22c1.19-0.21,2.36-0.52,3.85-0.18  C403.2,517.15,404.08,518.11,404.3,519.35z" />
<path class="cls-10" d="M410.16,521.69c-1.7-0.42-3.49-0.89-4.69-2.22C407.37,519.24,409.36,519.84,410.16,521.69z" />
<path class="cls-4" d="M134.32,852.85c19.08-14.06,36.67-28.4,53.94-43.98L184.19,822c17.81-10.03,30.56-24.26,46.18-38.17  C224.8,815.98,164.54,847.88,134.32,852.85z" />
<path class="cls-4" d="M301.44,766.41c6.47-12.69,9.58-28.57,19.33-40.2c21.15-23.43,39.38-56.48,26.43-88.13  c-7.81-19.1-33.48-21.68-52.1-27.48c15.57-4.41,35.46-2.37,49.95,6.45C397.13,648.71,334.01,737.17,301.44,766.41z" />
<path class="cls-4" d="M94.25,1005.47c8.79-25.55,21.58-47.16,41.65-66.87C128.68,964.82,114.29,987.63,94.25,1005.47z" />
<path class="cls-8" d="M1018.53,404.04c0.48-1,0.44-2.12,0.01-3.14c10.67,0.12,21.35,1.18,32.73,2.83  C1040.32,405.11,1029.43,403.79,1018.53,404.04z" />
<path class="cls-8" d="M1004.48,404.42c-3.79,0.71-6.86,0.94-10.96,0.83C994.79,401.33,1001.62,402.63,1004.48,404.42z" />
<path class="cls-14" d="M902.39,532.12l3.85,0.79c6.85,9.18,12.72,18.98,17.62,29.39l-0.55,3.8c-2.67,1.02-6.91,3.49-10,4.89  l-49.21,37.63c-16.48-0.67-30.13-5.74-44.17-13.36l-113.36,43.59c-10.99-39.86,0.4-80.21,28.17-110.46  C782.66,482.55,856.68,483.85,902.39,532.12z" />
<path class="cls-12" d="M1086.64,516.49c-3.98,2.61-7.38,6.74-11.99,8.48l-2.33,1.41c-14.65,10.17-29.18,20.41-46.53,28.07  l-29.73-16.12l-72.76,27.77c-6.61-11.5-11.65-24.2-20.92-33.99c-8.53-8.28,35.75-10.72,31.21-11.22  c14.29,1.57,25.71-0.87,38.53-1.42c17.17-0.74,33.97-0.5,50.79,0.46c16.79,0.95,34.68,4.17,49.36-7.94  C1076.56,515.24,1083,512.94,1086.64,516.49z" />
<path class="cls-8" d="M1002.17,440.83c-21.25,3.57-45.98,3.57-67.23,0H1002.17z" />
<path class="cls-8" d="M1133.22,429.97c-9.21,4.74-21.7,6.46-31.76,4.94C1112.11,433.63,1122.58,430.88,1133.22,429.97z" />
<path class="cls-8" d="M1121.51,419.64c-5.96-0.39-11.94-1.82-17.6-3.75C1109.23,413.89,1116.76,416.51,1121.51,419.64z" />
<path class="cls-4" d="M158.23,475.81c-4.19-4.73-10-9.19-11.9-15.27C152.23,462.42,153.73,470.98,158.23,475.81z" />
<path class="cls-8" d="M1045.44,439.44c-4.84,1.05-10.91,3.51-15.54,1.06C1034.83,438.31,1040.19,439.57,1045.44,439.44z" />
<path class="cls-8" d="M854.39,437.25c-3.39,1.24-10.47,3-12.02-1.13C846.47,435.22,850.3,437.64,854.39,437.25z" />
<path class="cls-8" d="M1087.7,436.11c-1.53,4.15-8.62,2.37-12.02,1.16C1079.78,437.51,1083.59,435.31,1087.7,436.11z" />
<path class="cls-8" d="M874.31,438.4c-3.4,1.64-8.84,2.17-11.93-0.33C866.34,436.75,870.17,438.29,874.31,438.4z" />
<path class="cls-8" d="M1056.13,438.61c0.47,2.03-2.11,2.22-3.26,2.13c-1.48-0.12-3.67,0.13-4.26-1.37  C1050.76,437.31,1053.6,438.73,1056.13,438.61z" />
<path class="cls-8" d="M1073.67,437.32c0.7,2.09-1.94,2.35-3.16,2.25c-1.57-0.12-3.61,0.16-4.24-1.32  C1068.67,437.95,1071.03,436.19,1073.67,437.32z" />
<path class="cls-8" d="M883.83,439.39c-0.25,1.35-2.07,1.14-3.19,1.33c-1.38,0.23-3.85-0.2-3.13-2.23  C879.68,438.53,882.04,437.91,883.83,439.39z" />
<path class="cls-8" d="M1098.34,435.12c-0.82,3.4-6.36,2.53-8.59,0.93C1092.66,436.02,1095.4,434.74,1098.34,435.12z" />
<path class="cls-4" d="M141.55,455.66c-1.62-1.06-2.73-2.66-3.34-4.49C139.96,452.08,140.82,453.88,141.55,455.66z" />
<path class="cls-8" d="M1135.45,429.78c1.07-1.23,1.26-2.87,1.19-4.45c1.89-0.83,3.34,0.94,1.9,2.42  C1137.7,428.6,1136.69,429.67,1135.45,429.78z" />
<path class="cls-9" d="M123.01,431.35c-3.64-1.5-5.12-5.12-7.03-8.37C119.14,424.85,121.31,428.08,123.01,431.35z" />
<path class="cls-8" d="M890.72,439.57c1.68,1.61-6.62,1.2-4.92-0.14L890.72,439.57z" />
<path class="cls-13" d="M841.37,1236.4c-8.9,8.99-21.45,14.12-31.56,22.04c-42.32-5.4-85.3-6.18-128.46-1.86  c-35.2,5.17-67.49,17.35-99.81,33.74c-31.68-23.68-69.54-30.27-110.8-32.97c69.3-34.19,181.9-66.22,256.67-31.05  C778.09,1219.55,797.58,1231.88,841.37,1236.4z" />
<path class="cls-11" d="M622.35,1347.53c4.56,3.05,0.41,5.96-3.08,7.93c-14.28,2.21-9.29,10.18,1.86,12.95  c2.92,1.74,6.8,4.15,3.7,6.98l-10.94-1.66c-2.1,3.09-6.95,2.09-8-1.38c-2.7,0.66-6.99,0.76-9.22-1.26c-0.26,3.21-1.49,3.1-2.46,0.02  c-28.56-5.3-57.87-2.84-87.25-1.56c32.9-15.74,67.78-20.82,102.41-22.88c1.1,0.61,2.27,0.54,3.52-0.21c1.68-0.34,3.4-0.51,5.04-1.05  C618.95,1346.72,620.69,1347.38,622.35,1347.53z" />
<path class="cls-13" d="M679.78,1366.18c-1.02,0.93-1.08,3.94-2.3,4.62c1.27,2.25-1.04,4.27-3.47,3.91  c-3.43,2.83-5.05,6.93-8.19,11.17l-40.98-10.5c-4.03-8.47-13.35-4.3-16.05-12.52c-3.88-11.85,14.21-5.28,13.56-15.34  C642.23,1349.28,660.69,1359.69,679.78,1366.18z" />
<path class="cls-15" d="M739.66,1333.56c4.91,3.25,7.24,14.44,6.17,19.68l-20.16,9.76c-2.86,1.39-5.51,3.8-8.24,4.4  c-2.74,0.61-6.61-0.82-7.47-3.91c9.18-5.41,18.75-16.05,12.71-24.9L739.66,1333.56z" />
<path class="cls-16" d="M809.75,1330.12c-0.62,1.54-2.6,1.14-4.08,1.25c-1.36,0.1-3.64-0.24-3.15-2.27  C805.01,1328.95,807.34,1329.75,809.75,1330.12z" />
<path class="cls-5" d="M687.88,646.7c0.48,0.62,0.82,0.98,1.29,0.3l1.99,0.01c28.02,18.26,31.83,10.75,61.19,6.83l77.41,47.13  c-13.33,6.07-26.28,12.89-38.02,22.93c-7.03,0.29-12.61-2.62-19.78-4.13c-25.48,14.99-54.26,19.09-79.25,31.23  c-27.59-13.97-58.41-10.18-88.13-4.5c-28.67-14.4-57.6-29.31-84.33-48.04c-10.4-7.29-17.9-19.65-24.58-29.11l45.43-22.05  l36.54,17.41l71.98-32.77C670.18,622.56,672.31,639.1,687.88,646.7z" />
<path class="cls-11" d="M1080.47,1084.25c-31.76,10.81-60.7,31.04-89.79,48.1c-36.36-18.38-76.94-26.6-116.27-20.17  c-0.4,0.06-0.83-0.11-1.23-0.08c0.49-1.86,1.28-3.61,2.63-4.99c6.58-6.71,22.42-15.13,31.26-19.8c8.99-4.75,22.2-11.73,31.79-13.98  c2.84-0.67,5.22-0.93,8.21-0.26c47.39-14.78,97.75-19.35,147.22-11.48C1089.26,1069.86,1080.66,1075.55,1080.47,1084.25z" />
<path class="cls-11" d="M1091.93,760.22l4.49-1.48c10.68,3.67,21.51,6.68,32.5,9.05c5.44,2.28-0.2,14.1-5.02,11.54  c-1.16-2.58-1.89-5.15-3.81-7.87c-2.5,9.22-6.41,16.96-9.74,24.42c4.21,3.8,1.2,9.03-3.42,13.59c2.44,1.87,5.52,2.58,2.84,5.57  c-8.4,9.37-5.64-11.67-16.59-26.09l-9.06,14.86c-0.09,3.7-12.48,2.79-13.27-0.83c-2.43-0.92-3.38-10.19-5.8-5.99  c-0.84,1.46-1.92,3.5-2.32,4.64c-47.67-4.1-95.22-2.06-143.35-1.49c-13.62-2.05-23.61-12.12-35.84-15.34  C939.45,743.97,1026.92,749.56,1091.93,760.22z" />
<path class="cls-5" d="M1166.73,752.25c3.06,3.77,8.21,6.99,13.36,7.29c1.77,4.23-0.73,10.12-5.16,14.36  c-3.77-3.93-3.19-8.65-5.72-12.03c-12.19,15.9-1.98,34.83-12.34,39.37c1.91,1.88,4.3,1.87,4.35,3.09c0.07,1.98-2.14,2.96-2.89,4.03  c-5.29,7.54-5.9-21.77-13.35-29.61l-10.98,31.84c-3.42-11.04-5.61-21.29-10.09-31.26c2.79-2.36,4.36-4.94,5.81-9.22  c-13.59-1.12-25.44-7.87-37.78-9.9c3.72-5.49,11.58-5.68,17.67-1.58c3.99-5.48,2.56-12.47,8.08-16.78  c7.54,4.87,11.01,12.73,16.5,19.43c4.06-4.73,5.7-10.57,10.21-14.25l7.56,8.09c3.49-5.14,3.42-10.75,8.05-15.48  C1163.05,744.49,1163.89,748.74,1166.73,752.25z" />
<path class="cls-3" d="M992.3,874.02c3.29,1.04,3.98,4.11,2.07,9.21c-3.87,5.67-7.62,11.28-11.26,16.81  c-5.88,0.95-11.75,3.5-17.58,4.86c-3.52,0.82-7.24,1.46-10.38,3.26l-2.41,0.87c-38.45,11.54-75.72,32.1-105.55,58.89l-1.41,2.16  c-22.51-3.33-45.02-6.67-67.55-10l-1.03-2.52c4.94-5.81,4-15.97,10.68-20.83c5.09-2.51,5.66,6.51,8.13,10.59l10.05-24.76  c3.19,4.73,5.02,11.54,7.04,18.36c7.94-7.69,4.17-18.12,10.52-26.67L834,929.58c22.38-14.73,45.52-25.27,68.52-36.25l0.72-2.88  c8.23-2.8,16.52-5.37,24.85-7.73c8.74,0.35,18.13-3.46,25.74-7.22C966.32,877.33,979.16,873.61,992.3,874.02z" />
<path class="cls-7" d="M1121.73,850.93c11.63,6.61,8.14,26.45,15.08,25.85c-19.12,7.8-36.58,19.6-53.97,31.04  c-8.02-0.78-15.26-4.56-22.33-6.39c-4.49-2.63-5.14-13.01-1.37-16.47C1077.08,869.11,1099.91,859.98,1121.73,850.93z" />
<path class="cls-4" d="M1033.48,879.85c2.53,2.25,3.88,5.77,4.04,10.56c1.43,2.55,2.46,5.1,3.1,7.63c-19.32-1.12-38.35-1.09-57.51,2  c-4.5-7.72,13.18-11.5,9.19-26.02C1006.44,874.46,1020.18,875.08,1033.48,879.85z" />
<path class="cls-5" d="M1059.13,884.97c0.03,5.54,0.18,11.04,1.37,16.47c-6.46-1.67-13.59-0.82-19.88-3.4  c-6.09-2.5-6.24-11.59-7.15-18.19C1041.39,882.69,1051.24,884.64,1059.13,884.97z" />
<path class="cls-5" d="M929.27,1066.5l2.23,0.12l15.58,6.46c-26.48,8.26-52.65,22.23-73.89,39.03c-1.08,0.54-2.67,0.34-3.65,1.07  l-2.34,0.88c-7.23,1.39-15.44,2.11-22.39,4.81c-6.47-0.2-12.99-1.19-19.58-2.99l-2.47-2.72l-4.8,1.69  c-34.87-3.68-71.5-1.13-102.98,15.46l-5.09,0.17c-34.29-4.47-67.68-9.41-102.29-0.22c-5.59-2.47-11.27-4.32-15.64-5.34  c37.22-8.68,76.11-8.66,111.81-21.89c49.33-18.27,97.21-37.56,149.48-40.5l2.57-2.43l15.52,0.13l2.77,2.09  c3.38-0.42,8.61-0.6,11.91-0.43c2.99-2.33,6.32-2.18,9.91-1.53C906.76,1060.8,919.22,1062.95,929.27,1066.5z" />
<path class="cls-1" d="M489.88,1150.33l-1.39,2.71c-1.55-0.61-19.48,5.91-18.15,6.6c15.99,8.39,32.66,16.09,49.8,21.76l3.48,3.36  c0.15,5.73,2.39,11.18,1.55,17.53c-3.2-0.54-5.81-1.66-8.37-1.13c-1.07-0.41-1.84-1.64-2.34-2.47c-2.57-0.76-5.02-3.03-7.82-2.53  c-1.78-0.08-3.43-1.09-4.94-3.05c-19.88-9.32-39.49-19.96-62.31-20.83c0.12,6.6,2.55,11.12,1.97,17.58l-33.47-26.89  c-35.13-1.2-70.51,12.02-93.79,37.15c-8.46-0.32-15.6-7.31-24.49-8.66c-12.87-1.97-26.61,0.5-37.85-7.72  c12.13-2.72,25.78-1.93,38.06-6.01c16.87-12.83,33.81-25.6,53.09-37.34c12.07-7.36,29.51-6.12,43.74-9.41  c-9.37,8.3-22.76,4.63-31.71,11.49l-29.54,22.63c12.29,3.97,20.4-6.43,30.24-9.42c16.94-5.15,36.84-10.76,53-6.15l34.66,9.89  l48.54-15.71c-18.15-3.84-33.08-5.85-47.51-11.29c51.54-4.43,37.92-17.17,54.37-32.56c14.39-13.47,30.85-23.43,46.28-35.4  c18.86,4.31,36.3,1.7,55.33-2.84c-16.72,21.65-34.97,11.51-60.26,21.89c-7.32,3-18.38,13.25-15.09,20.69  c4.84,10.95,18.91,9.97,27.79,9.54c12.63-0.6,15.05-8.83,25.25-17.38c4.55-3.81,16.01,1.77,21.01,5.38  c-16.68,13.04-35.95,31.71-55.24,28.1l-31.25-5.85L489.88,1150.33z" />
<path class="cls-15" d="M1084.13,803.81c1.25-3.61-1.27,28.79-6.98,20.71c-1.8-2.54-3.93-2.17,1.46-4.14  c-3.99-5.42-7.23-10.75-7.75-17.4L1084.13,803.81z" />
<path class="cls-13" d="M777.19,957.56l69.99,10.37c23.23,3.45,44.77,12.22,67.22,19.73c-23.07,5.15-44.03,10.01-66.21,18.43  c-40.13-22.01-85.7-22.58-128.48-8.99c-5.94,1.89-8-0.02-13.12,4.67c-7.73,7.08-19.7,10.23-27.33,18.19  c-48.36-14.81-87.56-26.81-136.04-27.44c32.85-7.32,61.31-16.29,91.77-26.05C681.6,951.51,729.57,953.02,777.19,957.56z" />
<path class="cls-3" d="M327.97,1342.97c1.15,0.37,1.8,1.3,1.29,2.51c-0.29,1.13,1.23,2.34,1.09,3.35c1.49,1.06,3.22,3.19,2.42,4.88  c0.57,2.27,1.7,3.79,2.8,5.81c3.46-0.87,6.84,5.34,4.19,7.77l-0.99,0.25c-0.71,0.75-1.67,1.55-2.9,2.39c-0.05,3.54,1.94,7.4,5,9.39  c1.18,0.85,2.05,2.02,2.63,3.5c0.64,1.35,2.71,3.25,1.93,4.93c-2.78,1.92-3.51,3.83-1.78,6.79c2.11,2.68,4.42,5.16,7.11,7.29  c0.61,1.02,1.69,1.02,3.24-0.01c2.25-2.14,3.8-4.18,4.79-7.18l2.16-4.79c-0.17-0.32,0.11-0.82,0-1.17c0.29-0.91-0.08-1.42-1.05-1.57  l-0.93-0.06c-1.97-0.27-2.04-1.15-0.21-1.89c1.88-2.37,3.79-5.06,4.6-8c0.47-1.81,1.22-3.07,2.28-3.79c1.47-1.2,1.38-3.19,2.36-4.55  c-0.68-4.34,5.64-18.09,8.97-19.3c2.6-0.94,5.93,4.32,2.86,6.35c2.53,13.28,8.6,25.06,13.76,37.37c-0.16,3.13-1.25,2.97-2.17,0  c-2.26-0.08-3.83,0.35-4.69,1.29c2.66-0.28,4.27,1.29,4.83,4.73l0.61,5.67c-0.71,4.5,8.48,9.83,1.72,10.66  c-1.15,0.21-1.61,0.67-1.38,1.38c1.86,4.95,6.47,9.12,11.54,10.61c0.69,1.13,1.16,1.05,1.43-0.23c2.68,0.5,4.32-0.8,6.11-3.77  c1.05-1.74,2.44-2.61-1.86-5l15.62-27.83c2.96,0.8,4.67,3.44,5.13,7.93c3.99,3.48,5.04,6.48,3.16,8.99  c2.03,5.41,5.61,10.64,5.86,16.14c-0.76,0.67-0.69,1.44-0.36,2.37c1.54,5.66,3.71,11.39,7.05,16.82  c5.22-10.66,7.63-20.86,11.25-30.83c1.27,0.19,2.67,0.46,3.6,1.44c4.21,4.46,8.54,18.2,9.14,24.46c3.45-0.51,7.13-0.6,11.04-0.3  l1.59,2.38c-2.79,2.58-7.26,1.14-12.43,0.81c0.26,13.68,9.19,18.75,25.54,22.59c-69.76,11.38-49.87-27.01-120.52-18.74  c-25.31-19.99-57.85-27.21-91.32-20.8c-15-9.45-28.94-20.08-42.45-32.28c-6.46-5.84-17.13-0.96-20.31-8.53  c5.22-8.49,7.38-18.58,15.05-27.17c4.12,6.55,4.35,14.71,7.8,23.21c3.01-11.8,5.5-21.87,13.54-30.49  c3.04,14.14,4.19,27.48,10.77,41.77c4.79-10.99,8.36-20.91,14.7-31.04c2.15,11.46,9.55,19.96,11.99,29.48  c1.17,4.58,0.69,11.22,6.5,15.4c3.39-1.95,7.47-5.29,8.68-9.14c-3.02-0.55-8.35-1.15-8.04-4.36c0.2-2.09,3.31-4.54,5.01-6.58  l3.65-4.38c1.29-1.55-2.07-1.38-4.36-2.4c0.49-6.26,9.97-8.87,6.58-15.39c0.04-7.24,8.2-15.36,11.17-23.79  C327.21,1339.44,326.88,1341.54,327.97,1342.97z" />
<path class="cls-15" d="M626.97,1454.14c-14.47,3.94-27.43,13.9-42.28,16.43c-11.77,2.01-23.86,2.97-36.46,7.77  c-17.44-20.51-38.9-37.39-65.42-38.19c-4.36-0.13-8.44,0.13-14.1-0.65c-1.92-9.9-6.22-19.16-11.28-27.34  c-4.21-6.81,5.97-13.7,10.36-17.3c12.43-10.2,26.7,10.37,33.38,3.67c3.68-3.68,3.73-32.94,17.52-26.14  c16.13,7.96,26.71,16.3,46.99,16.81c8.15,0.21,15.3,4.9,17.12,13.29c34.73,7.9,20.92-9.94,30.3,2.86c3.64,4.97-8.8,8.96-8.08,14.19  c1.51,11.02,18.61,4.69,19.22,11.24c-6.65,0.75-8.16,5.33-10.08,10.55c-1.5,4.08-1.69,13.45,4.25,12.83  c3.16-0.33,1.59-7.6,3.39-8.28c2.82-1.07,5.87,3.22,10.56,2.89C632.81,1452.85,627.19,1450.54,626.97,1454.14z" />
<path class="cls-5" d="M685.46,805.21c-2.75-7.28-12.11-9.37-16.71-16.39c-1.44-2.83,2.68-7.32,4-9.64L837,814.3  c24.65,5.27,48.18,8.3,72.48,9.31c-64.09,12.11-114.22-20.21-180.88,6.23C714.29,819.55,699.6,813.05,685.46,805.21z" />
<path class="cls-13" d="M801.64,864.89c3.28,0.67,5.5,10.19,5.57,13.46c0.09,4.31-0.22,6.5-4.64,7.52  c-26.73,2.53-52.47,9.4-78.78,19.76c-19.13-12.85-39.08-21.41-62.31-28.31C707.43,864.28,754.92,859.49,801.64,864.89z" />
<path class="cls-13" d="M844.8,1118.86c-23.28,9.03-46.25,19.14-62.79,38.53l-63.5-21.96l0.27-3.32c11.14-8.64,25.59-10.6,39.3-11.48  c14.5-0.22,28.96-0.75,43.38-1.57c7.32-1.22,14.42-3.19,21.29-5.91C830.24,1114.14,838.02,1115.68,844.8,1118.86z" />
<path class="cls-11" d="M928.09,882.72c-6.71,6.35-17.4,6.72-25.57,10.61c-33.23-4.51-66.34-10.05-99.94-7.46  c5.58-7.17-0.48-12.91-0.94-20.98c4.24,0.49,9.33,1.44,14.09,1.38C883.62,865.39,889.79,881.21,928.09,882.72z" />
<path class="cls-11" d="M489.88,1150.33c16.37,9.94,34.67,14.37,52.68,20.44c3.44,1.11,2,5.64,0.72,8.36  c-4.34,0.32-8.54,0.97-12.61,1.96c-1.83,1.1-5.93,1.04-7.05,3.67c-20.06-4.93-38.45-15.94-58.36-24.87  C473.51,1153.66,481.98,1152.13,489.88,1150.33z" />
<path class="cls-15" d="M822.74,1113.15c-16.36,18.7-78.72-1.28-104.24,22.28l-8.64-4.96C742.71,1111.19,785.05,1108.15,822.74,1113.15  z" />
<path class="cls-15" d="M596.67,1371.08c2.72,1.7,6.11,2.03,9.22,1.26c2.75,0.28,5.3,0.97,8,1.38c1.86,7.17-4.27,18.23-11.15,20.71  l-19.25-4.64c-3.76-0.91-1.83-5.72-1.6-8.09c0.44-4.56,6.01-2.35,12.32-10.6C594.95,1371.24,595.91,1371.17,596.67,1371.08z" />
<path class="cls-3" d="M874.1,1062.32c-7,0.88-13.92-0.19-20.87,0.2c2.2-2.32,1.48-5.03,0.62-7.36c3.79-5.21,7.75-12.16,10.95-18.71  C869.79,1045.41,868.17,1055.36,874.1,1062.32z" />
<path class="cls-15" d="M433.64,1407.66c-2.13-5.68-6.65-10.86-8.29-16.92c1.68-1.2,5.08-0.18,4.76-2.75  c-0.28-2.31-0.49-4.59,0.55-6.69c2.58-5.19,8.58-3.66,10.1,0.69c1.39,3.97,4.25,11.04-1.7,10.41c-3.41-0.36-6.52-0.81-7.4,1.9  c-2.19,6.72,6.21,5.68,5.37,10.09C436.66,1406.35,435.89,1408.06,433.64,1407.66z" />
<path class="cls-15" d="M379.81,1355.86c-0.29-1.53-1.13-3.21-2.44-4.81c-3.68,6.17-5.56,12.41-9.39,17.75  c-2.22-5.4-4.39-13.38,0.69-17.94c1.45-1.3,6.4-0.07,7.26-2.14c0.55-1.32-1.79-5.06,0.32-6.22c4.9-2.7,7.09,1.47,6.73,5.66  C382.75,1350.84,383.5,1355.53,379.81,1355.86z" />
<path class="cls-15" d="M520.56,1326.31c-2.46,3.5-15.73,0.55-16.1-7.53c-0.26-5.69,15.55-7.25,16.97-2.66  C522.2,1318.65,522.21,1323.96,520.56,1326.31z" />
<path class="cls-15" d="M345.35,1349.79c-3.43-1.36-6.12-6.53-4.49-9.39c1.34-2.36,4.86-5.87,9.19-6.98c4.37-1.12,6.01,6.15,5.23,9.93  C354.53,1347.01,350.51,1351.83,345.35,1349.79z" />
<path class="cls-6" d="M530.67,1181.1c2.07-3.17,6.87-1.44,9.21-2.17c3.2-1.01,1.91-5.82,2.68-8.15c6.31,2.13,14.37,1.51,14.72,11.11  C548.58,1180.68,539.51,1180.15,530.67,1181.1z" />
<path class="cls-15" d="M339.74,1367.29l-4.19-7.77c2.6-0.59,5.45-1.95,7.53-0.44c1.78,1.29,3.45,4.35,3.01,6.8  C345.56,1368.85,341.64,1366.99,339.74,1367.29z" />
<path class="cls-15" d="M453.57,1401.77c-5.4,2.49-11.43,1.85-15.5-1.18c1.19-2.79,5.21-6.52,7.54-4.95  C448.18,1397.38,452.09,1398.15,453.57,1401.77z" />
<path class="cls-15" d="M824.97,1151.15c-2.92-4.26-3.93-10.92,1.28-14.94C829.99,1139.91,827.84,1143.21,824.97,1151.15z" />
<path class="cls-15" d="M384.56,1333.4c-2.53,2.01-4.9-2.74-6.01-4.17c-1.35-1.74-2.85-6.77,1.5-7.33  C383.67,1321.43,388.22,1330.5,384.56,1333.4z" />
<path class="cls-15" d="M353.99,1401.82c-2.13,2.02,0.5,4.62,0.43,5.93c-0.12,2.21-3.74,2.34-5.03,1.25c-0.99-0.84-4.68-2.18-3.73-3.2  c1.75-1.88,4.75-1.89,5.1-3.97C351.82,1402.02,352.91,1401.98,353.99,1401.82z" />
<path class="cls-15" d="M393.57,1393.23c1.43,3.4-0.53,8.48-1.41,11.7c-2.89-2.84-3-7.23-5.44-10.41c0.86-1.02,2.42-1.45,4.69-1.29  L393.57,1393.23z" />
<path class="cls-15" d="M674.01,1374.71c1.3-1.08,1.52-3.22,3.47-3.91c1.61-0.53,2.42,1.54,1.8,3.02  C678.27,1376.25,675.91,1375.32,674.01,1374.71z" />
<path class="cls-15" d="M345.41,1387.74c-1.18,2.16-2.81,4.22-1.78,6.79c-1.03-1.31-2.7-2.47-3.14-4.75  C340.13,1387.89,343.73,1388.18,345.41,1387.74z" />
<path class="cls-15" d="M506.63,1196.17c-1.21,0.49-2.09,1.96-3.15,0.14c-0.62-1.07-1.38-2.06-1.79-3.19  C503.37,1193.91,506.57,1194.12,506.63,1196.17z" />
<path class="cls-15" d="M332.76,1353.71c-0.41-1.64-2.7-2.77-2.42-4.88c1.46-0.13,2.58,0.68,3.2,2.24  C333.89,1351.94,334.33,1353.35,332.76,1353.71z" />
<path class="cls-15" d="M358.78,1394.64c-0.44-1.96-0.02-4.29,2.16-4.79C362.18,1392.18,359.24,1393.26,358.78,1394.64z" />
<path class="cls-16" d="M605.89,1372.34c-0.79,1.96-3.34,0.78-5.71,1.46c-1.44,0.41-2.83-0.68-3.51-2.72  C599.83,1370.72,602.8,1372.03,605.89,1372.34z" />
<path class="cls-16" d="M391.41,1393.24c-1.24,1.21-3.01,1.45-4.69,1.29c-0.27-1.35,0.02-2.79,1.52-2.15  C389.3,1392.84,390.39,1393.01,391.41,1393.24z" />
<g>
</g>
<g>
</g>
<g>
</g>
<g>
</g>
<g>
</g>
<g>
</g>
<g>
</g>
<g>
</g>
<g>
</g>
<g>
</g>
<g>
</g>
<g>
</g>
<g>
</g>
<g>
</g>
<g>
</g>
</svg>