<?xml version="1.0" encoding="iso-8859-1"?>
<!-- Generator: Adobe Illustrator 30.2.1, SVG Export Plug-In . SVG Version: 9.03 Build 0)  -->
<svg version="1.1" id="Layer_1" xmlns="http://www.w3.org/2000/svg" xmlns:xlink="http://www.w3.org/1999/xlink" x="0px" y="0px"
	 viewBox="0 129.7 1200 1542.3" style="enable-background:new 0 129.7 1200 1542.3;" xml:space="preserve">
<style type="text/css">
	.st0{fill:#822F23;}
	.st1{fill:#FFFFFF;}
	.st2{fill:#787960;}
	.st3{fill:#F1C582;}
	.st4{fill:#F2C888;}
	.st5{fill:#E5B49E;}
	.st6{fill:#D1C2B6;}
	.st7{fill:#BDB3AC;}
	.st8{fill:#8D897A;}
	.st9{fill:#C07967;}
	.st10{fill:#E09F86;}
	.st11{fill:#C49583;}
	.st12{fill:#A44C38;}
	.st13{fill:#EFEAE6;}
	.st14{fill:#ECB766;}
	.st15{fill:#D18A72;}
</style>
<path class="st0" d="M1200,128.9v1504.02c-2.03,1.54-4.83,2.25-8.39,2.11c-4.82,0.14-19.85,13.73-21.02,16.68
	c-0.72,1.82,24.88,2.04,27.09-2.13l2.31,0.81v8.3l-1.72,2.19l-8.5,2.66c-5.11,3.23-10.36,5.92-15.73,8.07
	c-1.06,3.05-10.03,3.39-10.49-0.18c-1.39-0.72-2.62-0.71-3.67,0.03c-0.62,2.43-1.81,2.35-2.86,0.07c-9.85-6.2-14.77-9.31-14.77-9.31
	c-9.81-2.92-14.71-4.38-14.71-4.38c-4.78-2.79,0.4-8.04,3.83-10.34c8.52,2.47,16.99,3.49,25.41,3.08
	c-4.74-9.29-11.42-15.46-21.08-19.53c-18.57-7.83-32.01-8.52-51.84-1.42c-12.93,4.63-34.75,17.69-43.26,28.33
	c-1.06,1.32,8,5.14,9.27,5.53c18.3,5.59,40.56,5.09,59.08,0.07c2.61,1.64,7.68,5.42,4.72,8.12l-0.66,1.92
	c-24.72,0.02-49.44,0.05-74.17,0.07l-1.17-1.92c-1.84-2.26-2.76-3.39-2.76-3.39l-10.24-57.28c0.87-1.53,0.97-2.89-0.68-3.6
	l-14.98-79.77c-2.75-12.79-5.35-25.79-7.8-39l0.65-2.83c17.39-2.36,45.32-10.74,51.1-29.85c1.81-5.98-1.38-10.11-7.36-11.01
	c-18.09-2.72-32.5,18.5-40.34,32.19c-2.65,2.74-3.94,2.48-5.7-0.84c-2.59-4.89-3.01-16.87-1.33-22.29
	c14.69-5.91,33.86-21.89,35.18-38.45c1.45-18.09-24.96,0.34-28.17,8.32l-2.4-0.26l-1.84-0.85c5.16-44.54,7.99-89.53,10.54-134.35
	l1.98-1.04c-0.74-0.12-1.84-0.39-1.88-0.93c-0.41-4.73,0.21-21.16,1.07-25.73l1.98-1.3c-1.2-0.35-1.74-1.36-1.73-2.58
	c2.58-32.92,3.9-65.91,3.98-98.95l1.94-1.11c-1.18-3.17-1.77-4.75-1.77-4.75c4.74-105.11,8.12-209.94,10.15-314.5l1.94-1.38
	c-0.47-0.58-0.91-1.18-1.24-1.83c-1.11-2.22-0.15-17.53,0.31-21.39l1.89-3.57c-0.63-1.66-0.72-3.98,0.61-5.22l-1.91-0.69
	c2.87-124.15,6.22-248.43,10.08-372.83l1.51-1.74c-2.93-3.56-3.12-12.81,0.27-16.05c-2.25-7.4-1.91-17.05,0.78-24.31
	c-2.98-1.4-2.5-8.64,0.11-10.29c-2.02-0.25-1.92-1.29,0.01-2.1c-2.41-4.36-2.7-13.18,0.05-17.37c-3-0.73-2.23-7.02,0.66-7.54
	l-1.87-0.71c1.41-59.59,2.12-89.39,2.12-89.39l1.94-1.12l-1.82-1.22c1.69-20.45,1.47-41.33,0.94-61.9l1.69-1.34
	c-2.39-1.76-1.96-8.47,0.46-10.11c0.4-4.43,0.84-8.75,1.34-12.96c-0.75-0.21-1.86-0.54-1.91-1.13c-0.21-2.29-0.39-20.35,0.12-21.29
	c0.4-0.75,1.15-1.14,1.93-1.39c-2.94-5.48-2.32-14.35,0.89-19.7l0.66-1.92c0,0,50.01-0.06,150.03-0.18L1200,128.9z"/>
<path class="st0" d="M137.42,128.94c0.75,0.04,1.9,0.21,1.97,0.74c0.43,3.16,2.13,26.84,1.71,28.19c-0.23,0.74-1.1,1.15-1.83,1.5
	c2.11,8.69,2.91,17.81,2.4,27.36l-1.59,3.2c0.3,0.96,0.34,2.21,0.05,3.26c0.75,0.08,1.88,0.3,1.93,0.83
	c0.26,2.64,0.75,23.09,0.29,24.2c-0.3,0.73-1.15,1.11-1.9,1.4c0.45,4.08,0.89,8.4,1.33,12.97c0.75,0.08,1.87,0.3,1.93,0.83
	c0.27,2.48,0.45,19.27-0.45,20.22c-0.31,0.32-0.77,0.5-1.27,0.64c0.91,1.53,1.06,3.61,0.05,5.13c0.75,0.06,1.88,0.26,1.95,0.79
	c0.71,5.5,0.89,14.5,0.74,20.12c0.76,3.38,0.2,5.6-1.67,6.67c0.93,1.17,0.65,2.71-0.03,4.02c2.7,0.92,2.86,2.4,0.24,3.65
	c2.56,1.86,2.81,8.1,0.03,9.81c2.93,2.25,2.93,10.43,0.61,13.17c0.1,2.4,0.15,4.76,0.15,7.07c2.52,1.44,2.83,3.88,0.25,5.45
	c0.74,0.1,1.83,0.3,1.92,0.83c0.47,2.93,0.84,11.43-1.93,12.49c0.47,5.04,0.91,10.32,1.32,15.85l1.79,2.57l0.37,13.75l-1.89,2.55
	c2.97,0.44,2.81,7.87-0.03,8.54c0.53,0.68,0.4,1.65,0.05,2.29c1.93,0.62,2.02,1.66,0.19,2.54c2.74,0.54,2.37,8.51,1.93,11.13
	l-1.92,1.29c0.32,0.17,0.61,0.36,0.8,0.62c0.79,1.13,0.33,17.74,0.19,20.69c3.12,2.02,3.12,7.28,0.08,9.39
	c0.97,3.27,1.19,7.02,0.66,11.24l0.68,1.71l1.74,3.46l0.31,18.61l-1.86,3.45c0.4,1.79,0.42,3.5,0.06,5.13c1.47,2.66,2.21,4,2.21,4
	c13.48,405.38,20.22,608.08,20.22,608.08l-1.88,1.25l1.96,0.97c1.86,44.91,3.32,89.82,4.38,134.73l-0.8,0.69
	c2.82-0.12,2.99,1.03,0.83,2.77c2.36,1.43,2.89,3.72-0.07,4.6c0.44,0.65,0.39,1.53,0.12,2.3l1.99,1
	c2.33,35.98,5.12,72.22,8.38,108.71c6.08,67.37,21.19,133.93,36.66,199.86c0.49,2.1,1.01,4.65-0.84,6.12
	c-0.5,0.68-1.31,1.4-1.97,1.09c-1.69-2.5-17.55-8.71-16.52-2.39c1.45,8.87,14.31,13.21,21.84,15.58c4.08,15.47-5.06,10.72-12.44,2.7
	c-2.86-3.88-21.11-5.09-20.03,1.15c1.72,9.92,22.72,8.77,30.18,7.93c1.74,0.85,1.86,1.21,2.34,3.02c0.42,1.56-3.06,18-4.47,18.53
	c-0.94,0.35-1.95-0.02-2.76-0.49c-7.04-6.88-14.83-11.48-23.34-13.78l-7.43,0.88c-2.16-0.62-3.01-2.65-2.53-6.08
	c-15.53-31.92-61.79-25.14-89.52-14.84c-5.55,1.13-6.01,1.01-5.38-5.26c0.98-12.21,3.36-24,7.12-35.38l4.45,1.91
	c19.96,17.29,52.78,27.29,75.44,9.77c4.59-3.55,5.57-6.87,2.08-11.46c-15.04-19.78-58.46-11.05-77.17-0.6
	c-5.19,1.33-5.05-2.26-4.84-6.2c0.16-3.12,4.39-27.92,5.25-29.6c1.95-1.42,2.18-2.68,0.69-3.78l5.78-34.56
	c0.28-1.73,1.5-2.5,3.19-2.57c15.89,4.63,46.48,2.67,56.6-11.71c3.38-4.81,2.56-8.29-1.93-11.82
	c-15.26-12.01-40.39,5.46-51.75,16.36c-1.78,1.02-2.34,0.42-3.16-1.11c-1.3-2.4,2.35-22.22,3.75-23.13
	c15.54,0.35,45.79-10.5,48.3-27.91c2.78-19.25-36.59,0.77-40.25,9.07c-1.44,0.88-2.69,0.86-3.72-0.53
	c-3.64-4.92,7.03-29.38,12.34-33.31c6.9-11.48,16.22-27.25,2.18-37.18c-3.86-2.73-6.74-3.37-10.5-0.13
	c-9.22,7.94-7.43,38.77-5.68,49.76c0.46,4.72-0.46,20.45-3.29,23.35c-1.7,1.74-2.6,0.85-4.15-0.86
	c-2.64-11.25-15.02-36.62-28.08-37.04c-6.06-0.19-6.22,4.21-5.36,9.28c2.92,17.24,19.9,32.61,35.46,39
	c0.3,3.55-2.77,23.55-4.52,25.16c-0.95,0.88-1.74,1.17-2.89,0.33c-6.93-12.98-16.22-23.4-27.86-31.28
	c-6.02-4.23-23.11-5.73-20.99,5.35c4.3,22.57,31.1,29.08,50.59,32.66l0.93,2.13l-6.82,38.27c-1.06,0.97-1.13,2.3-0.21,3.99
	l-14.63,80.57c-0.9,1.34-2.22,1.51-3.74,1.06l-26.05-19.17c-15.93-9.59-35.17-17.31-53.98-13.69L0,1535.04V128.64l0.67-1.92
	c45.18,0.1,90.38,0.2,135.58,0.3L137.42,128.94z"/>
<path class="st1" d="M0,128.64V0h1200v128.9l-151.87,0.19l-0.66,1.92c-37.4,0.47-74.66,0.38-111.77-0.27l-0.67-1.28
	c-1.5,0.98-3.12,1.69-4.9,1.9c-7.29,0.88-18.18,0.16-24.9-2.27l-0.67,1.92c-25.67,0-51.34,0.01-77.02,0.01l-1.17-1.92l-0.66,1.92
	c-35.69,0.28-71.32-0.02-106.9-0.91l-0.66-1.25c-1.37,0.16-2.22,0.8-2.55,1.93c-24.06,0.09-48.1,0.18-72.15,0.28l-1.17-1.92
	c-0.58,0.91-1.45,1.55-2.61,1.92c-41.48,0-82.96,0-124.44,0l-1.83-1.92l-0.66,1.92c-28.82-0.01-57.64-0.01-86.47-0.02l-1.16-1.92
	l-0.66,1.92c-29.16-0.03-58.32-0.06-87.49-0.09l-1.15-1.92l-0.67,1.92c-65.5-0.03-131.02-0.06-196.54-0.09l-1.18-1.92L0,128.64z"/>
<path class="st1" d="M56.68,1671.58c0.77-2.81,8.46-2.63,9.55-0.16c0.3-3.09,5.55-2.35,6.78,0.04c0.55-3.07,3.09-2.85,3.98,0
	l7.55-1.91c35.84,0.06,71.62,0.12,107.33,0.18l1.17,1.92l9.85-1.68c2.59-0.49,4.64,0.08,6.13,1.71c0.69-2.78,2.75-2.75,3.37,0.05
	c2.68-3.38,7.76-1.76,11.29-0.12c3.87-1.21,5.81-1.82,5.81-1.82l34.55-0.03l5.84,1.61c0.63-2.98,2.73-2.47,3.89,0.03
	c1.46-2.4,2.51-2.3,3.5,0.33l1.88-1.72l12.86-0.51l1.72,1.95c18.1-1.94,36.8-1.98,55.04-1.2l3.44,1.28
	c0.09-0.75,0.32-1.86,0.85-1.92c1.82-0.21,18.01-0.36,18.87,0.02c0.72,0.32,1.08,1.16,1.36,1.92l1.13-1.92
	c2.54-1.23,31.12-0.13,35.51,1.96l0.67-1.92c42.96-0.06,85.92-0.13,128.9-0.19l1.18,1.92l0.08-1.28
	c13.39-0.65,27.03-0.76,40.92-0.32l1.11,1.93c0.08-0.74,0.22-1.78,0.79-1.94c2.08-0.6,11.02-1,11.58,1.6
	c0.53-2.99,8.72-2.8,9.47,0.08c0.12-0.73,0.31-1.77,0.88-1.9c2.11-0.49,11.06-0.46,11.49,2.17l0.66-1.92c35.65,0,71.3,0,106.97,0
	l1.17,1.92c0.35-1.01,0.7-1.63,1.68-1.92c1.4-0.41,10.71-0.14,12.89-0.02c3.75-0.7,6.23-0.06,7.43,1.91
	c3.18-2.19,11.17-2.34,15.25-1.89l2.15,1.62c0.21-2.85,1.96-2.23,3.08-0.06c1.42-2.01,1.72-1.66,1.65,0.73
	c0.23-1,0.68-1.57,1.62-1.96c0.96-0.4,19.35-0.73,20.88-0.48l1.41,1.89c1.85-1.37,2.84-1.39,2.97-0.07
	c5.65-1.03,11.62-1.64,17.15,0.19c0.55-2.16,2.34-1.48,3.96-0.37c3.83-1.57,8.19-1.98,13.07-1.26c5.58-0.93,10.51-0.49,14.78,1.33
	c3.93-1.64,10.53-2.8,13.49,0.36c0.39-2.94,2.65-2.79,3.72-0.02c0.72-2.67,3.36-2.65,4.71-0.2l0.89-1.7
	c20.41-0.2,40.86-0.21,61.36-0.03l1.15,1.92l1.44-1.92c26.38-0.07,52.76-0.15,79.15-0.22l1.16,1.92c5.06-2.43,13.71-2.58,18.31,0.28
	c0.81-2.95,5.55-2.86,6.49,0l76-0.07l1.83-1.92c5.11-0.24,38.94-0.52,40.64,0.6c0.38,0.25,0.66,0.68,0.89,1.15
	c0.71-0.05,2.26-0.46,2.86-0.07c1.14-2.22,2.66-2.63,3.67-0.03c3.48,0.88,6.99,0.14,10.49,0.18c6.67-2.5,17.31-2.42,24.58-1.69
	l1.38,1.93V1800H0v-127.68l0.85-1.93c16.99-0.22,33.99-0.44,51.01-0.66L56.68,1671.58z"/>
<path class="st2" d="M221.89,1553.34c1.84-1.55,2.78-0.66,3.49,1.41c0.99-7.29,0.63-14.7-1.08-22.23
	c-1.62-19.24,27.06-20.88,17.62,1.35c-2.91,4.85-5.55,9.82-7.92,14.89c4.51-3.57,22.9-11.32,23.51-0.91
	c0.15,2.6-0.59,5.11-3.49,4.69c-0.34,2.32-2.72,3.71-4.84,4.53c2.14-1.59,3.84-2.25,5.1-1.99c1.82-2.32,4.95-2.91,9.38-1.77
	c2.92,0.42,10.11,1.92,10.47,4.71l1.95,0l9.9,8.16c0,0,0.97-4.95,2.91-14.84c-2.27-1.4-2.1-2.31,0.52-2.81
	c0.83-5.64,1.72-11.39,2.66-17.24c-2.28-1.45-1.49-2.52,1.05-1.88c0.64-5.83,1.39-11.72,2.24-17.64l1.32-1.64
	c-2.64-0.97-0.73-5.4,1.18-6.65c0.69-2.35,1.94-8.27-1.06-10.05c-2.51-0.64-4.11-1.84-4.79-3.58c-2.71,0.89-6.71-8.61-7.36-11.22
	c-1.07-4.3-1.19-9.25,4.29-9.87c1.98-0.22,5.84,0.82,6.2,3c1.9,0.33,3.68,1.85,5.32,4.56c-1.71-6.98,2-25.34,11.94-21.62
	c7.7,2.89,6.17,12.96,3.15,19.02l-7.85,11.53c13.34-12.82,29.61-1.59,11.33,11.53c6.05-0.78,12.58,2.49,11.03,9.45
	c-2.31,10.37-19.83,10.99-28.27,10l-1.79,10.27c6.19-6.29,30.66-13.26,31.09,0.38c0.41,13.02-23.93,15.8-32.75,9.65
	c0,0-0.48,3.41-1.45,10.23c7.97-4.76,32.11-8.15,37.3,1.6c5.07,9.52-9.33,14.35-16.7,15.16c19.88,2.92,29.61,19.92,2.53,24.25
	c11.07,2.24,21.05,7.4,9.73,17.8c-11.09,10.19-31.49,6.84-41.78-3.23c-1.4,5.67-1.93,11.33-1.58,16.99
	c11.46-7.65,38.11-9.59,47.28,2.47c4.36,5.73,2.21,10.44-3.24,14.45c-11.89,8.76-36.02,1.57-45.71-8.32
	c-0.67,8.12-2.07,16.01-4.22,23.69c0.27,5.73-0.05,11.49-0.95,17.26l-2.29,2.86c-1.06-0.16-2.44-0.3-3.5-0.33l-1.79-1.84l1.63-14.95
	c-3.59,1.61-7,3.23-10.22,4.88c3.67,2.53,11.83,8.52,6.49,11.89c-15.33,0.99-30.81,0.49-46.2,0.23c-3.48-0.67-6.08-1.99-8.72-4.39
	c0.26,2.8-0.6,4.31-2.57,4.51c-1.08-0.1-2.3-0.15-3.37-0.05c-2.22-1.24-2.16-3.5,0.18-6.8c-0.39-2.09-0.59-3.14-0.59-3.14
	l3.08-19.96c-13.09,5.11-29.4,10.11-42.76,4.31c-30.56,17.71-62.66-0.07-86.12-21.3c-2.87,14.47-5.37,29.11-7.52,43.92l-2.29,2.74
	c-1.73,0.76-5.12-0.43-6.78-0.04l-1.74-1.2l7.61-43.86c-21.21,10.23-43.86,12.34-66.72,7.28c-1.86-0.41-4.8-1.71-5.39-3.56v-43.2
	c0.65-0.42,1.3-0.81,2.01-1.08c0.67-0.25,1.31-0.48,1.92-0.42c26.09,2.23,49.72,15.04,69.34,31.81c2.84-13.43,5.37-27.17,7.58-41.21
	c-25.35,9.98-53.1,8.31-74.84-8.92c-2.22-1.76-5.16-4.49-6.02-7.05v-24.96c18.99-5.88,47.04,5.29,62.68,16.98l21.64,16.18
	l14.75-81.61c-3.67-0.69-7.09,1.2-10.93,1.26c-21.84,0.34-50.02-14.88-52.42-38.28c-0.61-5.97,4.48-10.16,10.43-9.56
	c21.78-0.89,39.23,28.93,52.81,44.38l7.14-40.03c-14.28-1.48-27.73-5.25-39-13.77c-6.49-4.86-11.41-11.26-12.58-19.26
	c-0.83-5.65,1.81-10.13,7.63-10.99c19.79-2.92,35.97,20.27,44.65,35.56l4.55-23.96c-14.83-4.12-32.02-22.16-35.55-37.16
	c-0.87-3.7-2.19-9.63,1.1-12.21c4.7-3.69,11.27-1.05,15.47,2.28c8.23,6.53,18.51,24.5,20.37,35.96c7.71-21.15,0.07-30.57,2.11-52.02
	c0.75-7.91,4.51-29.58,16.72-24.73c4.22,1.68,8.82,5.45,10.56,10.02c5.27,13.82-7.64,30.79-15.72,42.15
	c-3.05,4.28-5.23,15.49-5.11,21.93c7.55-9.52,34.66-26.68,42.93-14.62c4.35,6.34-2.2,16.06-7.27,20.45
	c-11.4,9.88-25.24,15.08-40.65,14.74c-0.75,7.85-3.64,14.26-3.34,22.23c8.7-7.28,15.76-13.98,25.4-18.02
	c21.81-9.16,35.66,2.63,33.98,10.07c-3.8,16.86-37,21.5-46.34,20.03l-15.29-2.4l-6.08,36.32c16.46-10.27,45.24-32.5,64.04-17.87
	c2.57,2,5.41,5.62,4.72,9.07c-1.62,8.01-7.78,13.4-15.1,16.66c-17.56,7.82-37.23,5.38-54.04-5.82l-5.44,30.68
	c-0.31,1.74-0.43,3.6,0.81,4.91c11.17-6.15,22.41-9.12,34.57-11.23c13.68-2.37,27.87-1.3,39.71,6.04c4.07,2.52,8.27,6.23,9.04,10.99
	c0.61,3.77-2.74,7.15-5.52,9.25c-9.95,7.49-21.88,9.62-34.5,8.93c-16.93-1.95-31.73-9.57-45.36-21.46
	c-2.82,13.71-4.99,25.9-6.29,39.07c12.06-5.2,22.8-7.71,34.61-8.99c20.31-3.49,48.96,0.95,59.6,20.6c1.43,2.65,1.56,4.94,0.87,8.2
	c15.3-5.2,22.85,6.51,34.01,13.67l3.18-18.42c-10.95,0.07-20.19,3.02-29.82-4.74c-2.11-1.7-3.25-3.67-2.73-6.37
	c1.17-6.11,18.39-8.8,28.48,3.6c1.09,1.34,2.31,2.43,4.37,2.83c0.71-2.58,0.84-5.08,0.21-7.75c-7.75-1.71-15.17-4.77-20.11-11.07
	c-1.99-2.54-4.05-7.44-0.67-9.37C209.64,1544.77,217.62,1551.03,221.89,1553.34z"/>
<path class="st0" d="M0,1586.88V1560c1.45-0.1,2.57,0.79,3.71,2.07c18.2,20.31,56.11,23.28,79.76,10.06l-8.51,48.98
	C50.45,1600.41,31.26,1589.96,0,1586.88z"/>
<path class="st0" d="M66.23,1671.43c-2.62,0.63-6.35,0.11-9.55,0.16l-5.34-1.87c-14.03-10.69-30.89-16.8-48.14-19.87l-3.2-2.48
	v-17.28c2.32-0.51,4.17,1.37,6.71,1.95c23.06,5.19,46.71,2,68.06-9.13L66.23,1671.43z"/>
<path class="st2" d="M56.68,1671.58L0,1672.32v-24.96C20.69,1650.58,40.82,1657.82,56.68,1671.58z"/>
<path class="st2" d="M1200,1632.91v17.48c-8.18,5.68-23.44,5.95-33.29,2.18C1179.17,1642.21,1183.01,1630.8,1200,1632.91z"/>
<path class="st2" d="M1200,1658.69v13.17l-25.95-0.25C1181.36,1665.27,1190.35,1659.75,1200,1658.69z"/>
<path class="st3" d="M964.73,300.33l2.51,0.05c15.44,12.24,31.01,24.31,46.71,36.2l-0.26,2.22c3.94,0.09,9.68,3.73,11.51,7.7
	c0.28,0.61-0.78,1.41-1.71,1.75l-2.56,1.7c-8.23-0.59-16.64-0.12-24.55,2.33c-3.45,1.07-15.84,6.35-17,9
	c-1.48,3.35,32.72,6.16,36.76,2.49l22.59-6.14l2.93,1.22c0.23,5.76,0.6,11.58-0.05,17.37c-0.02,0.99-0.89,1.33-2.62,1.05l-1.41,0.8
	c0.45,2.92-6.7,2.99-7.3,0.2c-0.79-0.44-1.57-0.2-2.33,0.72l-2.29,1.83c-21.01,0.66-62.9,10.62-73.3,30.37
	c-0.21,0.39-0.33,0.74-0.21,0.89c1.76,2.11,22.56-0.26,26.45-0.94c22.23-3.94,41.35-13.34,60.38-24.15
	c1.23-0.61,1.98,0.32,2.51,1.63c0.29,8.16,0.01,16.26-0.78,24.31l-2.25,2.58c-31.18,9.17-66.99,25.24-83.63,54.62
	c1.89,1.49,5.11,1.96,9.66,1.42l1.24,1.96c2.91,0.86,4.2,3.53,3.87,8.02c-0.66,26.34,0.3,52.58,2.87,78.71
	c-0.76,18.92-0.34,37.66,1.26,56.2c0.1,17.66-0.28,35.28-1.14,52.84c2.85,23.78,4.59,47.57,3.84,71.9
	c-0.14,4.59-2.58,15.92-7.91,13.47c-1.79,0.37-2.68,0.55-2.68,0.55c-14.05-18.33-27.83-36.92-41.33-55.79l-2.67-5.42
	c-3-3.91-3.03-11.84-3.04-17.09c-0.65-2.92-0.01-5.14,1.92-6.66l-0.12-4.23l-1.94-0.83c-4-134.86-7.86-269.86-11.58-405l1.9-1.16
	l2.01-1.56c17.78,13.36,35.42,26.95,52.92,40.76L964.73,300.33z"/>
<path class="st4" d="M1040.44,428.99l-2.28,84.9l-0.97,42.74l-1.8,60.05l-1,44.37l-1.05,44.19l-1.88,61.19l-0.7,37.82
	c-1.29,1.41-1.17,3.48-0.61,5.22c0.23,8.96-0.82,17.86-0.96,26.79c-2.04,1.64-4.4,0.71-7.07-2.8l-9.9-13.72
	c-2.3-2.21-3.91-4.7-4.83-7.48c-1.62-0.82-2.87-2.26-3.73-4.32l-24.6-33.9l-1.75-4.08l-1.98-0.21c-1.08-1.34-8.46-12.48-8.3-13.25
	c0.17-0.87,0.74-1.46,1.51-1.86c3.54-1.13,5.79-9.65,5.86-10.87c0.53-9.87,0.58-19.6,0-29.62l-0.93-16.31
	c-0.25-4.31-0.26-9.11-1-13.3c-4.22-23.88,0.52-23.61-1.12-34.65c-0.07-0.46,0.97-29.85,0.26-39.42l-1.18-16.03
	c-0.79-10.71-0.74-21.15,0.11-31.84c0.33-4.13-0.91-7.85-1.21-11.62l-1.2-15.42l-0.35-49.78c-0.03-4.52,0.01-8.66-2.03-12.28
	l2.92-1.9c29.39-0.46,50.39-22.38,68.28-42.98C1038.02,427.56,1039.25,428,1040.44,428.99z"/>
<path class="st2" d="M1002.83,1423.71c6.24-6.37,10.61-14.46,21.36-17.1c3.39-0.83,8.18-0.78,9.86,2.45
	c1.91,3.69,1.53,8.92-0.06,12.9c-6.26,15.62-18.84,27.32-34.42,33.26c-1.39,7.96,0.25,15.08,2.39,22.63
	c3.69-3.16,4.66-6.79,6.86-10.15c6.45-9.88,15.96-21.02,27.94-23.97c5.73-1.41,13.64-1.38,17.16,4.03
	c6.22,9.55-8.98,25.81-18.37,29.53c-10.06,5.54-20.46,9.21-32.72,9.69l7.26,37.47l19.86-26.06c9.02-11.83,22.31-21.3,37.75-17.45
	c12.7,3.17,5.3,27.73-18.6,39.42c-12.14,5.94-24.59,8.95-38.41,5.9l7.77,41.44l7.54,40.09c19.02-18.65,41.69-36.29,68.35-38.05
	c7.76-0.51,21.95,1.84,19.99,11.36c-1.87,9.08-7.44,15.94-14.55,21.85c-18.61,15.5-51.95,18.72-73.44,6.67l8.35,46.4
	c1,5.56,1.64,10.75,2.97,15.74c-2.12,0-4.39-0.21-6.49,0l-1.97-1.46c-0.13-3.14-0.78-6.15-1.95-9.03
	c-4.25,4.72-9.05,8.12-14.39,10.21l-81.75,0.23c-1.29-0.57-1.52-1.05-1.49-2.16c0.16-4.82,13.83-14.9,17.79-17.4l2.22,0.72
	c0.24-3.06,4.06-4.06,6.44-2.58l1.77-2.58c22.18-6.56,46.12-3.51,67.96,3.44l-7.83-40.28c-13.8,11.62-28.87,23.44-46.36,29.96
	c-3.58,1.34-10.97,2.97-13.58,0.06c-0.92,3.02-10.59,2.59-11.57-0.38l-1.75,1.33c-8.38-2.6-20.89-7.39-21-17.31
	c-0.02-2.16,1.06-5.73,3.48-6.05l-0.07-2.13l5.98-4.4c8.25-10.5,21.26-15.03,34.17-16.47c2.28-1.27,3.92-1.19,4.92,0.21l3.33-1.52
	c13.98,0.42,27.56,2.37,40.72,5.86l-6.2-33.34c-3.04,5.24-33.3,26.23-36.3,25.06c-0.51-0.2-0.96-0.52-1.41-0.87l-1.48,2.36
	c-10.05,2.46-21.29,3.79-31.06-0.39c-4.03-1.72-11.08-5.16-10.59-9.84c-2.74-0.32-3.33-3.03-0.44-3.82
	c-2.9-2.43,0.78-6.89,2.81-9.32c10.39-12.41,31.07-16.65,46.64-16.78l2.82,1.92c2.88-2.05,6.68-2.28,11.4-0.67l16.38,3.28
	c-2.35-10.5-4.02-21.08-5.01-31.73l-1.23-1.89l-6.84-36.81l-2.17-0.26c-3.08,3.8-6.97,6.88-11.65,9.26l-1.78-1.38l-0.71,2.24
	c-13.38,5.07-35.9,11.95-45.82-2.64c-4.4-6.48-0.6-12.22,4.63-16.68c3.44-2.94,11.22-8.49,14.98-5.26l2.52-2.37
	c11.41-2.3,25,1.12,35.6,5.36c0.53,0.07,1-0.02,1.2-0.32c0.48-0.69-1.48-13.04-3.68-13.02c-5.98,3.7-12.57,5.89-19.5,6.82
	c-4.78,0.64-13.12,1.67-16.05-2.18l-1.72,1.55c-11.3-3.41-28.45-15.61-14.71-26.99c2.81-2.32,10.71-6.65,13.59-4.17
	c0.96-3.53,7.47-2.27,9.3,0.26c0.9,0.39,1.7,0.84,2.39,1.35l2.73-1.53c7.61,0.26,16.93,6.29,23.13,10.46
	c-1.21-3.97-1.94-8-2.22-12.1c-10.3,1.34-26.63-1.82-35.02-7.88l-1.39-2.95l-2.39,0.65c-4.81-5.09-11.33-14.99-6.04-21.56
	c1.59-1.98,3.45-3.51,5.59-1.57c0.58-4.46,10.67-1.94,14.03-0.74c6.79,2.41,12.34,6.03,18,10.39l-7.61-15.04
	c-5.31-11.89-12.48-30.26,2.79-38.13c17.52-9.02,22.4,15.86,21.4,28.78c-4.32,16.89-4.03,30.89,0.44,47.68l4.93-11.05
	L1002.83,1423.71z"/>
<path class="st5" d="M1029.19,836.26l-0.51,31.97l-0.98,38.63l-2.04,59.24l-0.89,32.87l-1.01,37.61l-0.82,29.08l-1.97,55.18
	c-0.45,12.49-1.89,24.41-2.11,36.05c-0.94,0.12-1.31,0.83-1.1,2.13c-0.8,0.44-16.86,4.21-17.77,4.08c-0.88-0.12-1.56-0.88-2.15-1.58
	l-1.89-0.95c3.6-115.83,6.76-231.57,9.47-347.21l1.95-1.1C1015.67,817.3,1020.51,833.13,1029.19,836.26z"/>
<path class="st5" d="M1014.68,1259.52l-1.17,27.96l-1.35,1.74c-18.94,2.42-37.43,7.6-55.45,15.55c-4.62,1.92-9.26,3.09-13.91,3.49
	l-1.81-0.88c-0.75-0.01-1.87-0.21-1.91-0.74c-1.17-14.86-1.86-32.72-1.89-47.64l1.8-1.26c0.46-2.01,0.6-4.12-0.18-6.09
	c-0.74-0.09-1.8-0.27-1.93-0.84c-0.39-1.71-0.51-16.47-0.21-18.45l1.9-1.41c-0.44-4.24-0.89-8.56-1.34-12.96
	c-0.75-0.19-1.86-0.49-1.93-1.08c-0.53-4.45-0.31-11.76-0.16-16.4c-0.75-4.01-0.14-6.71,1.84-8.12l0.98-6.07l21.75-11.31l2.1,1.07
	c0.35-0.81,0.68-0.77,1,0.08l1.97,0.87C981.71,1204.65,998.34,1232.13,1014.68,1259.52z"/>
<path class="st6" d="M1013.52,1287.48l-2.65,45.05l-4.15,54.71l-3.88,36.48l-7.47,17.12c-2.22-5.1-2.13-9.7-3.26-14.7
	c-1.49-6.64-3.41-13.72-2.1-20.59c2.6-13.65,8.09-31.63-3.93-44.37c-2.18-2.31-5.17-3.48-8.35-2.19
	c-25.48,10.32-0.8,42.48,5.73,58.65c-9.36-5.99-16.06-12.91-26.34-14.98c-3.64-0.73-7.32-1.49-10.58-0.36l-1.81-2.95
	c-1.89-29.96-3.79-59.85-5.68-89.66l1.86-1.44c-0.82-0.28-0.77-0.57,0.09-0.87c23.61-5.56,36.35-15,61.7-18.78
	C1006.52,1288.02,1009.98,1286.76,1013.52,1287.48z"/>
<path class="st2" d="M1157.03,1671.53c-10.81,0.72-31.65,0.16-43.36,0.17c-0.85-2.37-2.64-4.21-4.97-6.4
	c-16.59,5.35-33.15,5.02-50.14,1.99c-7.64-1.36-15.5-2.47-20.69-9.24c20.41-20.24,45.23-35.13,73.42-35.33
	c7.55-0.05,13.55,2.59,20.27,4.84c7.4,2.49,14.19,5,19.24,11.51c2.28,2.94,9.29,9.74,7.81,12.42c-1.99,3.59-21.96-0.4-26.67-2.37
	c-1.96,1.99-3.44,3.32-5.18,6.75c10.43,1.28,19.32,5.08,27.33,11.6C1155.54,1668.66,1157.13,1669.69,1157.03,1671.53z"/>
<path class="st7" d="M970.6,151.8l3.45,1.56c19.58,16.07,42.37,29.99,66.71,38.71l4.55,3.61c1.21,2.27,0.2,53.03,0.12,53.89
	l-0.93,10.56l-2.24,1.44c-9.38-3.93-17.17-10.18-23.38-18.75l-1.93-1.37c-0.95-5.83-1.09-11.64-0.42-17.43
	c-5.16-2.2-9.7-5.15-13.6-8.83c-2.7-2.42-4.04-3.63-4.04-3.63c-11.82-22.9-27.13-43.95-45.44-61.89c-0.89-1.06-0.18-2.01,0.98-2.85
	C959.53,145.01,967.54,147.39,970.6,151.8z"/>
<path class="st6" d="M1018.87,1156.89l-0.77,40.78c-0.17,9.11-0.16,18.08-0.84,27.22l-2.57,34.63c-1.18-0.2-2.95-0.64-3.58-2.22
	c-1-2.53-12.33-21.47-14.4-23.95c-3.33-3.97-4.97-8.45-7.59-12.73l-22.87-37.28c-1.52-2.48-3.52-4.43-3.4-7.16
	c-0.22-0.72-0.43-1.86,0.04-2.1c6.06-3.13,17.27-8.2,23.44-10.39c0.66-0.23,1.32-0.37,2.03-0.27c3.19-0.81,6.36-1.45,9.51-1.91
	c6.26-0.88,12.44-3.82,19.16-4.13c0.41-0.02,0.74-1.48,1.15-1.39C1018.67,1156.1,1019.03,1156.32,1018.87,1156.89z"/>
<path class="st5" d="M1044.51,260.12l-0.7,50.17l-1.49,41.04c-5.89,1.69-13.76,0.37-18.82-3.07c1.48-1.53-7.24-7.49-9.8-9.46
	c1.19-1.33,1.79-1.99,1.79-1.99l1.47-92.88l1.94-1.13c2.96-0.1,4.72,2.25,6.72,4.51C1030.95,253.36,1036.92,258.62,1044.51,260.12z"
	/>
<path class="st7" d="M1040.72,412.94c-0.51,5.21-0.13,10.8-0.27,16.05c-3.08,0.82-4.84,3.89-7.05,6.42
	c-17.44,20-38.84,39.01-67.66,38.12l-9.58-0.3c-1.09-0.03-2.16-0.46-2.45-0.97c-0.28-0.52-1.07-1.96-0.56-2.91
	C968.74,439.96,1010.27,420.73,1040.72,412.94z"/>
<path class="st2" d="M1048.13,129.08c-0.25,6.56-0.86,13.13-0.89,19.7c-0.52,0.57-1.07,1.12-1.69,1.55
	c-3.01,2.11-36.56,3.7-44.06,3.94c-5.25,0.17-25.28,0.75-28.76-1c-0.78-0.39-1.51-0.86-2.13-1.49c-5.26-2.04-10.72-3.57-16.17-5
	c-0.52,0.55-1.39,1.3-1.84,1.02c-3.56-2.22-18.92-13.55-19.28-16.48c-0.09-0.73,0.94-1.41,1.71-1.89L1048.13,129.08z"/>
<path class="st2" d="M1099.49,1536.4c-13.81,25.43-52.55,34.38-79.82,28.9c14.02-22.62,36.21-42.75,62.1-44.81
	c6.61-0.53,13.84,0.28,18.15,5.11C1102.34,1528.33,1101.08,1533.48,1099.49,1536.4z"/>
<path class="st2" d="M1163.56,1671.44c-1.02-0.26-2.6,0.8-3.67,0.03l2.72-44.24l-13.25-0.33c-7.72-0.19-23.5-6.95-20.86-14.14
	c2.05-5.58,16.74-5.67,26.6,2.7l6.56,5.56c1.44-2.96,1.16-5.77,0.29-8.73c-7.03-1.07-13.93-3.35-18.46-9.1
	c-1.58-2.01-4.23-5.68-3.3-8.14c1.32-3.47,6.43-2.36,9.08-1.39c4.91,1.8,6.95,5.97,11.68,8.82c-1.68-7.35-11.09-17.54-5.21-24.73
	c1.66-2.03,3.81-2.61,6.86-2.58c5.24,0.05,8.82,3.59,8.72,8.89c-0.22,10.99-7.37,14.22-4.65,22.32c2.13-6.3,13.36-17.56,18.49-11.9
	c4.81,5.31-8.8,19.3-19.06,18.85c-1.1,3.93-1.14,7.34-0.46,11.18c7.74-7.95,15.66-17.91,28.95-13.77c3.35,1.05,4.74,4.18,3.81,7.54
	c-3.03,10.98-22.68,13.7-33.56,12.45L1163.56,1671.44z"/>
<path class="st8" d="M1047.24,148.79l-0.13,23.81c-0.53,4.3-0.98,8.62-1.34,12.96c0.47,3.26,0.14,6.93-0.46,10.11
	c-24.42-8.09-46.86-20.67-67.37-36.8c-2.91-2.29-6-4.03-7.35-7.07c16.84,0.62,22.35,1.25,40.26,0.05l13.4-0.9
	C1032.24,150.42,1039.8,150,1047.24,148.79z"/>
<path class="st7" d="M1037.59,378.09c1.04-1.29,3.33-1.36,4.02,0.26c0.37,3.42-0.24,6.87-0.11,10.29c-2.05-0.38-3.53,1.19-5.46,2.21
	l-16.44,8.65c-17.71,9.32-51.14,19.01-70.89,13.83c11.5-19.52,37.66-28.79,57.59-32.01c7.52-1.22,14.46-2.77,21.66-2.29
	c0.47-1.07,1.46-1.58,2.33-0.72L1037.59,378.09z"/>
<path class="st7" d="M1023.5,348.26c6.32,0.65,12.59,1.72,18.82,3.07c-0.08,2.35-0.75,5.2-0.66,7.54
	c-24.76,6.28-38.72,14.12-66.5,3.58C988.93,349.36,1006.64,346.52,1023.5,348.26z"/>
<path class="st2" d="M1047.11,172.6c0,0.72,1.37,15.48-1.34,12.96C1045.68,184.95,1044.23,170.15,1047.11,172.6z"/>
<path class="st5" d="M1030.76,804.25c-0.03,1.69-0.31,3.85-0.61,5.22c-1.14-0.13-0.97-1.65-1.11-2.6
	C1028.9,805.83,1029.14,803.81,1030.76,804.25z"/>
<path class="st5" d="M1041.61,376.24c-0.08,0.67-0.08,1.43-0.01,2.1c-1.34,0.12-2.69-0.29-4.02-0.26c-0.61-1.27,0.91-1.76,1.65-1.83
	C1040.17,376.16,1040.88,376.18,1041.61,376.24z"/>
<path class="st9" d="M266.11,449.26c1.03,2.12,1.73,4.47,2.09,7.06c4.29,169.51,8.7,339.29,13.22,509.34
	c0.5,5.04-0.09,9.79-1.76,14.26c0.72,2.98,0.95,6.39,0.7,10.22l0.92,1.55c0.69,5.73,0.66,11.81-0.09,18.24l1.59,2.73
	c1.23,30.41,2.3,60.73,3.22,90.96l-1.88,1.22c3.05,3.28,3.01,10.15-0.04,13.42c-0.26,4.56-0.01,8.86,0.75,12.89l1.94,0.85
	c0.58,42.93,2.05,86.19,4.23,129.32l-2.01,1.93l-2.97,0.94c-10.3-3.96-20.85-6.81-31.87-5.67c-28.67,5.64-51.57,0.4-71.55-21.39
	c-3.35-1.72-5.66-3.84-6.92-6.36c0.01-0.91-0.77-1.76-0.83-2.77c0.35-0.76,0.63-1.32,0.84-1.65c0.12-42.82,1.35-85.43,2.76-128.99
	c0.04-1.11,0.32-2.22,0.64-3.33c0.33-1.14,0.79-2.24,1.28-3.34c-1.46-1.95-2.18-4.14-1.82-6.55l3.85-133.43c0,0,0.66-1.69,1.99-5.08
	l-0.94-3.44l-0.12-45.35c3.08-140.21,5.87-280.29,8.38-420.23l1.94-1.36c-0.75-0.09-1.88-0.34-1.91-0.87
	c-0.49-6.67-0.27-16.48,0.14-23.21c-0.62-3.42,0.04-5.63,1.96-6.62c-2.98-2.99-2.83-11.58,0.14-14.55
	c-1.86-1.65-2.24-4.52-1.17-8.59l2.18-128.71c-0.02-1.7,0.97-2.13,2.66-1.66l2.11,0.02c22.81,50.72,45.17,101.79,67.07,153.21
	C268.33,446.86,268.08,448.53,266.11,449.26z"/>
<path class="st3" d="M335.81,129.04l1.9,0.71c-3.1,149.28-6.26,298.95-9.5,449.02l-1.95,1.13c-1.61,1.95-3.33,1.02-5.16-2.78
	c-9.27-19.37-18.12-39.02-26.56-58.93l-1.42-6.4l-2.22-1.03c-7.04-18.27-14.63-36.35-22.78-54.25c-0.36-2.56-1.03-4.98-2.02-7.25
	c-0.07-2.97-1.71-5.6-3.04-8.67l-42.45-98.53L197.65,291l-2.03,0.16L141.51,167.3l-2.25-7.94l-1.84-30.42L335.81,129.04z"/>
<path class="st7" d="M288.97,1263.24l2.26-0.17c5.94,3.72,11.54,7.91,16.78,12.58l0.8,2.25l1.88,0.98
	c-1.93,48.73-4.88,98.07-8.85,148.04c-0.58,15.37-2.8,30.31-6.67,44.82c-2.13,0.59-4.55-1.78-7.08-0.91
	c-2.94,1.01-2.36,5.62-1.27,7.94l5.23,11.06c2.6,0.65,2.32,1.49-0.19,2.03l-1.29,1.63c-20.24-9.94-14.2,5.57-3.29,12.51l0.52,2.52
	c2.3,1.12,2.3,1.2-0.09,2.27c-0.43,1.22-0.88,2.34-1.35,3.35c1.85,0.57,1.67,1.39-0.26,1.65l-1.03-0.05
	c-1.65,1.66-4.15,0.67-7.49-2.97c-20.04-6.97-7.7,14.93,3.53,17.31l0.45,2.34c2.78,0.62,2.45,2.33-0.32,2.85
	c-0.49,1.36-1.21,2.33-2.51,1.79c-7.54-5.2-15.7-8.55-24.4-3.69c2.26,10.29,11.45,14.54,20.64,17.23c0,0,0.22,0.9,0.66,2.7
	c2.84,1.07,1.19,4.54-1.47,4.71c-9.75-1.79-7.36-3.64-19.86-2.94c-1.63-0.05-1.72-0.89-0.26-2.54c1.17-1.54,1.85-3.53,1.49-5.42
	c-0.46-2.45-3.3-2.67-6-2.53c-6.85,0.36-11.91,4.75-18.01,8.26c-0.76-10.05,15-21.49,9.25-31.28c-1.57-2.68-5.69-2.28-8.06-1.29
	c-9.93,4.13-5.83,16.77-4.67,23.89c0.75,4.62-0.99,9.67-1.01,14.46c-4.03-0.66-2.76-4.43-5.12-5.28c-0.95-1.97-0.56-4.08-1.26-6.78
	c-13.12-50.43-23.09-100.87-30.73-152.53c-2.53-17.09-4.61-32.69-6.01-49.67l-5.89-71.34l-2.3-35.36l-0.12-2.3l0.07-4.6
	c7.04,2.18,15.53,12.14,23.91,18.3c10.7,7.86,24.11,10.66,37.53,9.23C261.28,1255.7,265.68,1254.47,288.97,1263.24z"/>
<path class="st10" d="M170.79,468.6l1.98,2.5c3.22,141.92,6.73,283.71,10.53,425.38l0.1,47.96c0.11-0.96,0.43-0.57,0.97,1.16
	c-0.06,7.66-0.37,15.36-0.59,23.45l-1.14,42.21l-0.82,33.95l-0.89,25.57c-0.24,6.83-0.58,13.43-0.58,19.88
	c-1.36,3.22-9.41,4.21-11.06,0.93l-5.51-155.05l-6.82-200.04l-0.97-34.33l-6.19-188.4c-0.41-12.53-0.07-23.81-1.05-35.51l-0.06-5.13
	c-0.08-8.51-0.8-17.04-0.2-25.53c-1.11-1.74-1.39-7.63,0.62-8.79l1.99-1.04c5.73,5.02,11.26,7.03,18.66,8.41
	c1.63,6.69,2.48,13.66,2.56,20.93L170.79,468.6z"/>
<path class="st7" d="M197.65,291c-0.36,0.3-0.74,0.91-0.75,1.79l-0.65,37.86l-0.94,53.12l-0.59,37.67
	c-0.05,3.06-0.73,5.91-0.75,8.53c-1.51,2.7-3.66,5.26-6.46,7.65c3.02,1.95,5.13,4.25,6.32,6.9l-0.19,30.7
	c-2.83,4.38-11.04,1.69-15.25-0.13c-2.72-1.18-7.02-3.47-7.59-6.49c-1.9-4.59-0.12-13.51-2.17-21.14
	c-13.24-1.69-10.81-3.49-19.51-8.63c-0.83-0.92-1.49-2.3-1.97-4.17c0.18-3.09,0.23-6.31-0.08-9.39l0.19-9.25l0.81-0.61l1.45-1.91
	c5.89,1.17,11.56,3.26,17,6.27c0.6-6.39,0.66-12.98,0.19-19.77c-5.41-0.38-10.83-2.12-16.26-5.25c-2.6-0.36-4.06-1.43-4.38-3.21
	c0-0.8-0.13-1.73-0.19-2.54l-0.05-2.29l0.03-8.54c0.66-0.86,1.44-1.73,2.51-2.01c3.84-1.01,14.66,0.78,18.57,2.07
	c-1.01-16.32-1.58-32.74-1.73-49.25c-0.12-1.79-0.69-2.47-2.46-2.36l-16.63,4.94l-1.85-1.45c0-1.78-0.54-3.65-0.25-5.45l-0.15-7.07
	c-0.8-4.32-0.51-8.82-0.61-13.17l0.96-1.93c5.65-2.46,15.28-8.15,19.83-12.39c0.6-0.56-15.82,2.4-15.13,4.98
	c-2.43,1.5-4.41,2.69-5.68-0.47c0.14-1.18-0.29-2.45-0.24-3.65c0.29-1.43,0.68-2.72,1.18-3.88c-0.23-1.35,0.39-2.63,1.86-3.86
	c3.52-8.34,7.79-16.42,13.75-23.33l-15.09-0.76l-1.32-1.97c-0.64-0.48-1.11-1.46-1.42-2.94l-0.2-21.68
	c-0.39-4.1-0.83-8.43-1.33-12.97l-0.31-26.44c-0.02-0.93-0.04-2.02-0.05-3.26c-1.29-10.09-0.2-20.43-0.81-30.55
	c1.52,1.07,2.03,2.64,2.98,4.81L197.65,291z"/>
<path class="st2" d="M26.41,1516.29c-7.72-4.59-19.38-16.06-18.36-26.18c0.49-4.82,5.48-6.67,9.62-7.64
	c27.33-3.93,57.42,20.65,72.88,43.34C68.1,1531.46,45.34,1527.54,26.41,1516.29z"/>
<path class="st10" d="M145.86,378.18c0.02-6.26-0.76-12.61-0.27-18.88c-0.39-5.4-0.83-10.68-1.32-15.85l0.01-13.33l17.52-5.22
	c1.52-0.45,2.99-0.13,3.81,0.54c1.01,0.83,1.52,2.18,1.52,3.81c0.02,18.38,1.44,31.22,0.88,50.07
	C160.03,378.83,153.09,377.77,145.86,378.18z"/>
<path class="st6" d="M180.35,1090.66c0,12.24,0,24.43-0.45,37.14l-1.9,53.75l-1.38,44.38c-0.03,0.89-0.02,1.45-0.51,1.9
	c-0.33,0.3-0.79,0.52-1.28,0.15l-1.5-29.31l-0.87-24.01l-2.05-43.83l-0.74-28.76l-0.38-10.47
	C173.02,1091.87,176.66,1091.08,180.35,1090.66z"/>
<path class="st10" d="M148.07,415.42l-0.85-0.4c0.35-4.12-0.03-7.8-1.14-11.04l-0.01-12.42c7.91,1.33,10.89,5.68,21.94,7.42
	c1.09,8.38,1.29,15.77,0.65,23.9l-10.09-4.62C155.06,416.64,151.7,415.24,148.07,415.42z"/>
<path class="st10" d="M144.19,287.11c-0.05,1.87-0.81,1.78-1.15-0.14l-1.02-27.58c0.27-1.14,0.73-1.87,1.37-2.19l20.75,0.76
	c-7.39,7.81-12.04,15.86-15.75,24.9C147.55,284.9,146.03,286.76,144.19,287.11z"/>
<path class="st10" d="M143.28,304.45c-0.07-3.27-0.42-6.53-0.03-9.81c2.44,0.6,4.73-0.58,6.27-3.05c2.9-1.09,16.02-5.04,17.32-3.03
	c1.6,2.47-7.92,6.91-12.64,10.62C150.8,301.85,147.41,304.64,143.28,304.45z"/>
<path class="st11" d="M148.07,415.42c0.07,3.28,0.37,6.88-1.01,9.86c-0.55-5.43-0.98-15.63-0.98-21.31
	c0.54-0.64,1.75,0.26,1.77,1.14L148.07,415.42z"/>
<path class="st11" d="M145.6,359.3c-2.77,3.03-1.32-15.18-1.32-15.85C147.15,340.45,145.64,358.76,145.6,359.3z"/>
<path class="st11" d="M141.77,232.58c-2.78,2.48-1.32-12.37-1.33-12.97C143.33,217.16,141.76,232.1,141.77,232.58z"/>
<path class="st11" d="M149.11,438.83l-0.62,8.79c-2.71,2.49-1.39-12.18-1.34-12.96C149.08,434.51,149.22,437.34,149.11,438.83z"/>
<path class="st11" d="M144.04,324.68c-1.47-1.97-1.69-5.15-0.15-7.07C144.29,319.74,146.59,322.6,144.04,324.68z"/>
<path class="st11" d="M143.39,257.2c-0.05,0.78-0.46,2.17-1.37,2.19c-0.07-1.82-0.03-3.3-0.05-5.13
	C143.01,254.76,143.46,256.08,143.39,257.2z"/>
<path class="st11" d="M148.74,478.27c-0.13-1.56-2.16-3.58-0.06-5.13C150.38,474.09,150.34,477.26,148.74,478.27z"/>
<path class="st11" d="M143.01,290.99c0.05-1.33,0.08-2.68,0.03-4.02l1.15,0.14C144.08,288.42,144.31,290.33,143.01,290.99z"/>
<path class="st12" d="M425.12,129.13c0.75,0.06,1.89,0.27,1.95,0.8c0.71,6.12,1.84,25.59,1.01,31l-1.87,1.45
	c2.84,1.84,3.21,9.77,1.06,12.24c3.62,0.9,2.92,9.87-0.08,11.6l1.91,3.46c0.47,3.75,1.45,18.58,0.33,20.73
	c-0.33,0.64-0.77,1.21-1.25,1.77c0.75,0.08,1.87,0.31,1.93,0.83c0.27,2.51,0.46,19.48-0.44,20.44c-0.31,0.33-0.77,0.51-1.27,0.65
	c2.9,4.14,2.97,10.15,0.06,14.3c1.29,1.02,1.08,3.65,0.63,5.25c3.25,0.78,3.37,6.27,0.31,7.51l1.8,2.39l0.94,16.31l-1.88,2.41
	l1.92,2.6l0.96,28.37l-1.84,2.63l2.07,5.09c5.64,182.34,11.11,363.8,16.41,544.38l-1.2,2.44c1.17,2.01,1.88,4.34,2.13,6.99
	c3.1,118.96,7.1,237.5,11.99,355.62l-1.87,1.26c1.38,3.45,2.07,5.18,2.07,5.18c1.38,79.88,6.41,158.97,18.13,238.08l-1.75,1.4
	c0.64,1.63,1.52,2.69,2.64,3.17l12.15,62.19c9.76,44.17,28.65,87.07,48.55,127.97l-1.91,1.72l-130.75,0.19
	c-9.16-2.98-17.99-5.62-27.72-3.5c-2.79-0.29-4.04-0.54-3.39-3.43c6.23-11.5,13.02-22.45,20.37-32.85c1.36-0.73,2.54-0.26,3.64,0.75
	c4.73,7.58,10.71,12.9,17.95,15.94c28.67,2.23-4.62-21.51-17.21-16.88c-1.32-0.27-1.91-1-1.95-2.25
	c-0.04-1.25,8.19-16.61,11.45-11.75c4.26,9.12,17.64,17.5,27.42,12.48c0.42-0.21,0.28-1.08,0.17-1.41
	c-3.64-10.99-17.81-11.49-27.54-11.44c-2.18-0.82-2.96-1.56-1.22-3.5c1.15-3.01,5.55-13.72,8.61-8.53l2.42,0.03
	c2.98,4.8,19.19,11.47,21.33,3.67c2.42-8.86-15.61-7.09-20.55-5.06l-2.01-1.49c-1.32-0.54-1.64-0.88-1.55-2
	c0.08-1.07,5.09-9.31,6.84-8.81l1.43-2.03c2.87,2.28,21.21,8.22,22.71,2.83c2.56-9.2-15.3-5.35-19.6-4.3
	c-4.48,0.13-6.25-3.52-5.33-10.95c1.25-3.14-7.03-14.41-8.94-11.06c-3.76,6.6,5.01,17.14,9.75,21.24c0.9,1.61,0.31,2.51-1.47,3.2
	c0.26,0.45,0.43,0.85,0.31,1.08c-0.58,1.03-5.86,9.62-6.41,9.85c-2.94,1.24-3.02-2.38-2.92-4.71c-2.74,0.1-2.75-2.07-0.17-2.87
	c-0.5-0.68-0.96-1.47-1.38-2.38l-1.9-1.2c-3.71-20.52-18.01-12.46-6.79,3.21c0,0,3.1,2.29,9.31,6.87c3.96-0.43,3.16,3.43,0.33,5.71
	c-1.48,2.81-3.18,5.39-5.1,7.73c-0.06,0.87-0.37,0.83-0.88,0.02c-1.15,0.97-2.46,1.51-2.68-0.25l-2.15-1.85
	c-0.76-7.86-6.97-21.42-15.88-22.4c-3.32-0.36-3.53,0.38-3.19,4.03c0.91,9.71,11.25,17.69,20.15,20.12l0.65,2.09
	c0.35-1.49,1-1.33,1.29,0.23c1.44,0.73,1.2,1.93-0.72,3.62l-5.82,9.42c0.31,1.09-1.24,2.25-2.33,2.22
	c-1.97-0.06-1.26-1.45-0.78-0.17c0.16,0.42,0.2,0.88,0.21,1.35c0,0.94-9.69,15.14-10.61,15.26c-0.85,0.11-1.68-0.57-2.35-1.16
	c-3.99-7.01-8.67-13.32-14.04-18.91c-26.35-16.34-12.17,19.18,5.08,18.35l1.2,1.9l2.38,1.37c0.95-3.16,5.61-2.21,6.87,0.35
	c0.47,0.95-8.46,17.14-11.51,17.12c0.68,2.33,0.3,4.96-2.43,5.07l-21.08-0.03c-6.51-3.52-13.35-6.3-20.52-8.34
	c-0.84-1.76-1.26-2.64-1.26-2.64c7.43-13.77-11.58-17.85-21.98-17.92c-3.62-0.03-26.85,4.69-24.91,9.52
	c2.86,7.11,27.19,13.4,35.34,11.63c4.56,1.13,5.39,5.33,1.2,6.74c-8.94-0.84-17.73-0.52-26.37,0.94
	c-5.39-0.25-11.01,1.12-16.46,0.27c1.12-8.18,1.29-16.57,3.07-25.03c2-9.49,0.56-25.14,6.06-19.85c5.28,5.08,11.86,7.76,18.77,10.15
	c14.49,5,29.27-2.52,28.89-9.33c-0.51-9.11-16.92-13.06-24.89-12.83c-9.19,0.27-16.89,3.51-25.12,7.83
	c-0.11-8.44,0.94-15.8,2.61-23.85c5.23,4.16,9.05,7.3,14.55,9.26c19.74,7.01,36.29-8.58,30.66-13.24
	c-11.89-9.83-31.35-4.84-44.66,1.14c-0.39-4.49,1.23-7.47,1.58-11.1c0.35-3.67-0.01-7.25,1.9-10.82
	c12.83,10.76,27.85,16.74,42.19,6.9c1.57-1.08,2.06-2.73,2.15-4.14c0.36-5.41-14.34-13.62-25.17-11.1l-17.96,4.18l0.82-12.74
	c0.07-1.04,0.54-1.84,1.03-2.36c0.51-0.56,2.01-0.49,2.89,0.26c16.82,14.29,38.38,2.01,36.99-3.3c-1.45-5.54-7.43-6.98-12.59-7.67
	c-9.26-1.23-17.42,1.93-26.37,5.65c0.53-5.8,0.61-10.93,2.7-16.27c9.42,5.83,20.7,6.1,28.75-0.47c2.44-1.99,3.76-4.91,2.75-7.74
	c-0.69-1.94-3.51-4.09-6.63-4.4c-9.02-0.9-16.99,4.2-24.52,9.83c0.31-6.17,1.57-11.22,2.6-16.96c7.58,1.86,21.4,1.01,26.05-4.53
	c1.56-1.86,2.68-4.56,1.67-6.9c-3.3-7.6-19.97-2.16-25.75,4.31c-1.1-1.76-0.01-5.73,1.46-6.89c8.05-1.13,15.78-3.77,20.57-10.7
	c1.42-2.05,1.5-6.24-1.15-7.06c-9.29-2.85-14.92,7.42-17.32,5.97c-2.89-1.75,5.88-11.85,8.08-15.24c2.51-3.88,4.1-14.78-2.56-16.32
	c-3.5-0.81-8.85,5.13-8.88,8.6l-0.16,18.59c-3.14-6.93-5.85-7.62-7.17-11.82c3.9-32.11,6.68-64.16,8.64-96.94l1.94-32.35l3.08-64.55
	l-1.85-2.05c1.68-49.26,3.28-99.11,4.82-149.56l1.24-4.8c-2.69-0.83-2.42-5.9,0.25-6.68c0.37-1.91,0.8-4.64,1.3-8.19
	c-1.26-4.98-1.88-7.47-1.88-7.47c4.21-173.16,8.09-345.78,11.65-517.87l1.93-1.38l2.51-107.71l0.95-51.38l1.88-85.15l1.03-59.75
	l1.07-59.51l0.94-47.49l1.16-39.86L425.12,129.13z"/>
<path class="st12" d="M905.22,129.09l1.85,3.85c0.66,20.76,1.29,41.54,1.9,62.34l-1.51,4.41l2,3.74l1.4,54.21l-1.86,1.38l0.56,34.74
	l3.01,93.42l1,37.91l1.8,55.43l0.89,38.8l1.89,59.14l1.05,34.28l1.42,53.28c0.17,1.32,0.21,2.73,0.12,4.23
	c-0.44,7.84,1,15.92,1.12,23.76c1.18,0.89,1.84,2.27,1.99,4.13l12.3,426.24c0.2,2.28-0.45,3.64-2.78,2.57l-1.99,0.41L812.45,929.51
	l-1.87-5.82c-2.88,0.19-3.13-5.12-0.43-5.81c-1.53-0.54-2-2.86,0.02-3.07c-1.76-5.8-1.41-13.51,0.66-19.16
	c-0.65-0.14-1.16-0.28-1.18-0.46c-0.14-1.89-0.4-15.47,0.19-16.02c0.33-0.31,0.79-0.48,1.29-0.61c-0.71-1.64-0.69-3.53,0.03-5.17
	c-0.48-0.08-0.93-0.2-1.27-0.47c-0.87-0.66-0.48-19.41-0.29-21.76l1.87-1.37c0.76-6.82,1.02-14.63,0.8-23.41
	c-0.75-0.11-1.86-0.38-1.9-0.92c-0.37-5.77,0.06-14.59,0.51-20.45c-0.56-3.65,0.14-6.04,2.1-7.16c-0.14-6.47,0.13-12.67,0.81-18.6
	l-1.91-0.91c1.6-75.77,2.91-151.48,3.92-227.14l1.93-1.11l-1.85-3.34l2.18-104.9l1.94-1.11c-0.56-6.43-0.5-12.86,0.16-19.29
	c-3.37-0.49-2.22-5.03-0.17-6.77l-1.54-2.92c1.59-61.86,2.93-123.55,4.03-185.06l1.96-1.28c-0.76-0.09-1.9-0.39-1.91-0.91
	c-0.2-27.87,0.25-57.29,1.29-85.1l1.94-1.38c-2.93-0.63-1.73-8.06,0.61-8.97L905.22,129.09z"/>
<path class="st3" d="M642.28,129.15c1.17,1,1.69,2.11,0.64,3.2c-3.45,3.68-23.17,26.08-22.26,28.99c0.04,0.13,0.7,0.52,0.92,0.55
	c36.2,5.31,85.01-2.7,116.94-20.31c1.38-1.66,2.87-2.4,4.46-2.22c-0.08-2.8,3.05-2.77,3.72-0.1c0.71-0.45,1.72-0.65,2.22,0.11
	c1.13-2.52,6.61-2.5,6.44,0.72c1.57-0.27,4.05-0.49,5.17,0.8c0.11-0.73,0.3-1.79,0.86-1.91c2.39-0.51,11.73-0.58,12.39,2.1
	c0.69,1.15-0.03,2.03-2.15,2.64l-2.14,2.09c-44.41,7.74-82.46,34.57-115.17,65.15c-5.29,2.56-5.42,3.13-0.38,1.7
	c49.17,8.45,104.75,4.54,144.78-27.97c2.71-1.77,3.53-0.44,4.33,2.38c-10.39,14.11-19.82,29.09-28.29,44.94
	c-3.79,3.53-3.69,4,0.31,1.41c15.83-1.92,31.39-5.17,46.67-9.73c1.33-0.47,2.14,0.45,2.72,1.77l-0.35,11.79l-1.04,57.82l-0.67,33.83
	l-1.14,50.95c-0.25,11.22,0.4,24.31-1.26,34.86c-0.19,1.82-1.58,3.39-3.03,4.48l-17.37,9.49c-0.69,0.53-0.78,0.74-1.06,1.55
	c-0.91,2.64-1.39,23.65-1.16,27.49c2.42,11.29,2.66,22.89,0.74,34.77l0.92,10.82l-2.21,6.89c0,3.76-0.99,6.5-2.97,8.23l-2.24,0.52
	c-7-8.82-14.4-18.4-19.47-28.31c-1.77-0.25-3.14-1.6-4.11-4.07l-80.01-110.25l-1.51-3.65c-2.38-0.82-4.27-2.84-5.69-6.06
	l-48.32-66.62c-0.61-2.25-1.5-3.49-2.68-3.73c-18.74-26.16-37.59-52.34-56.57-78.53l-0.08-2.03c-1.98,0.1-2.56-0.75-1.72-2.54
	l-2.1-0.5c-3.41-5.9-7.43-11.38-12.06-16.45l0.6-2.3l-2.66-0.4c-2.37-4.85-5.39-9.05-9.07-12.6l-0.01-2.26l-4.02-4.01
	c-10.26-14.39-20.32-28.88-30.16-43.47l1.48-2.02L642.28,129.15z"/>
<path class="st8" d="M935.02,129.46c-0.18,1.92,1.11,3.61,2.89,4.94l16.52,12.4c0.1,1.62,1.22,2.67,2.65,4.05
	c19.32,18.63,33.89,40.83,45.85,64.32c1.12,0.01,2.41,1.59,3.04,2.65c2.2,3.71,7.84,23.81,7.27,27.88c-0.19,1.33-0.7,3.57-2.05,3.87
	c-5.59,1.24-18.9-2.43-25.03-4.13c-2.36-0.65-21.05-6.63-22.07-7.57c-0.79-0.73-1.05-1.38-1.13-2.53c-1.11,0-2.21-0.03-3.29-0.21
	c-1.06-0.17-2.09-0.36-2.99-0.81c-15.45-7.69-32.43-18.31-45.7-29.34c-0.77-0.64-1.38-1.5-1.97-2.39c-0.6-0.91-1.09-1.9-1.55-2.91
	c-1.54-14.17-0.82-28.44-1.42-43.24c-0.38-9.45-1.14-18.4-0.82-27.37C914.99,129.08,925.36,129.49,935.02,129.46z"/>
<path class="st7" d="M513.41,129.15c0.11,1.01,0.49,2.05,1.28,3.16l22.64,32.13c3.35,4.76,6.91,8.89,8.78,14.2l-4.13-0.03
	c-22.11-12.4-46.31-18.7-71.61-17.25l-41.08,2.83l-3.09-1.82l-1.09-33.25L513.41,129.15z"/>
<path class="st8" d="M718.15,128.86c0.76,1.25,2.23,1.86,4.42,1.82l19.36,6.15l1.03,2.52c-0.51,4.42-19.56,12.13-24.49,13.68
	c-15.09,4.72-30.01,7.69-45.72,10.02c-16.85,2.5-33.62,3.04-50.56,0.95c-1.5-0.19-2.82-1.03-3.29-1.83
	c-2.17-3.66,18.02-26.12,21.88-30.24c0.88-0.93,1.39-1.84,1.5-2.78L718.15,128.86z"/>
<path class="st2" d="M826.37,129.1c0.57,3.01-0.57,6.05-0.61,8.97c-0.04,0.72-0.18,1.93-0.66,2c-13.01,2.1-32.42,4.21-45.22,3.85
	c-0.52-0.01-1.05-0.33-1.6-0.7c-0.57-0.37-1.08-0.85-1.56-1.37c-1.31,0.83-3.1,1.05-2.96-0.78l-13.24-0.2
	c-1.46-0.97-3.19-1.23-5.17-0.8c-1.43-0.77-4.92-0.05-6.44-0.72c-0.92-0.42-1.29-0.48-2.22-0.11l-3.72,0.1
	c-9.21-4.07-15.94-4.52-26.99-9.13l2.17-1.37L826.37,129.1z"/>
<path class="st11" d="M940.91,1308.25c-0.08,0.8,4.08,66.04,4.74,73.14c0.68,7.34,1.29,14.11,0.89,20.9
	c-4.17,1.45-7.26,5.56-5.09,10.71c1.41,3.35,4.36,9.74,7.94,11.77c2.55,2.52,5.34,11.21,1.08,12.39c-5.34,1.86-17.6,5.4-16.66,14.26
	c0.89,8.43,16.72,14.95,19.5,15.36c2.88,0.13,2.66,5.12-0.1,5.71c-6.96,1.34-13.61,5.41-17.73,11.05c-2.92,4-2.48,7.65,0.75,11.06
	c12.27,12.92,31.07,4.22,43.9,0.24c3.5-0.47,5.37,4.25,4.35,7.41c3.41-0.11,5.42,0.86,6.01,2.91c2.23,4.62,1.1,11.9-2.65,15.35
	l-2.87,0.95c-10.13-6.4-44.42-9.93-47.06,6.17c-2.64,16.09,31.57,19.45,41.98,13.63l2.12,1.44c0.8,1.09,0.44,3.23-0.59,4.11
	c2.92,0.26,2.52,7.59-0.38,8.22c-13.03-0.15-26.36,1.73-37.85,8.2c-6.74,3.8-12.72,8.88-14.41,15.97c-0.57,2.35-2.24,2.18-4.99-0.52
	c-9.2-3.61-15,3.37-19.86,10.22c-6.01,0.72-5.95-9.41-1.89-12.48c5.6-1.21,17.41-6.15,15.95-13.37c-1.41-6.99-14.52,4.71-15.54,8.31
	c-5.69,1.62-6.05-3.72-2.79-7.77c6.11-1.98,18.2-22.15,4.68-11.85c-2.91,7.86-5.63,9.55-8.18,5.07c2.33-7.52,2.08-14.29-0.75-20.32
	c-14.88-2.89-5.78,17.19-0.77,23.25c-0.11,1.9-1.45,2.49-3.31,2.5c-4.24-2.44-8.58-3.44-13.02-2.99c-0.7,1.18-0.51,3.16,0.58,5.94
	c-6.76,2.25-12.49,5.81-17.19,10.7c-2.46,4.93-5.63,7.57-9.49,7.91c0.17,4.52-2.69,5.04-8.58,1.54c-8.3-3.14-20.66-4.31-27.83,1.83
	c-3.45,2.95-4.29,3.72-0.8,6.56c9.69,7.88,24.46,2.55,33.67-3.66c6.02-3.39,7.32,13.05,6.42,15.94c-0.88,2.85-1.25,3.86-4.44,2.63
	c-10.91-5.84-25.27-8.07-34.86,1.2c-2.47,2.39-2.62,3.69,0.19,5.79c9.7,7.26,27.14,4.18,35.69-3.86c2.11-1.27,3.09-1.61,4.42,0.48
	c1.24,1.94,2.83,19.64,1.55,20.85c-0.71,0.67-1.49,1.05-2.48,0.97c-10.49-4.21-30.66-11.24-39.96-2.12c-3.57,3.5-0.83,6.6,2.7,8.98
	c11.46,7.72,25.73,4.44,35.9-3.91c2.17-1.3,3.14-1.65,4.54,0.47c1.67,2.53,2.74,17.49,1.61,20.28c-0.96,2.36-1.92,2.21-4.28,1.4
	c-10.23-6.46-25.74-9.27-36.9-3.83c-10.47,5.1-9.12,8.49,0,13.77c0.16,0.86-0.16,1.58-0.83,2.21c-1.11,0.17-2.72,0.37-3.96,0.37
	c-5.6-1.8-11.48-1.16-17.15-0.19c-0.87-0.14-2.08,0.05-2.97,0.07c-0.68-0.44-1.02-1.02-0.92-1.79c21.66-18.65-9.42-17.48-17.39-4.42
	c-1.66,2.78-3.53,5.04-5.61,6.76c-0.69,0.02-1.21-0.48-1.65-0.73c-2.41-0.65-7.71-9.88-6.6-11.76c0.59-1.01,1.57-1.56,2.71-1.76
	c7.9,0.37,16.56-3.15,19.55-10.9c1.62-4.21,1.97-7.38-3.22-7.32c-7.88,0.08-15.39,10.22-18.04,16.96c-1.07,1.77-1.8,1.69-3.56,1.46
	c-1.62-0.21-7.78-8.84-7.27-11.14c-1.8-0.9-3.22-2.56-4.27-4.99c0,0-0.64,0.55-1.93,1.65c-6.4,0-12.85,1.6-18.38,4.86
	c-13.26,7.8-2.99,9.44,6.8,8.92c0,0,0.61,0.74,1.84,2.23c-1.63,2.63-3.67,5.13-6.14,7.51c-0.9,2.55-2.22,4.1-3.97,4.65l-108.8,0
	c-0.55-0.7-1.07-1.41-1.46-2.18c-2.18-4.3-1.53-31.67-1.14-38.72l1.79-4.58l0.86-6.36c3.22-1.32,5.56,0.46,7.03,5.33
	c4.67-3.4,5.96-8.48,3.88-15.22c-0.29-18.7-3.4-38.74-7.79-57.06c-1.59-1.32-1.98-2.7-1.18-4.15c-4.02-6.03,7.37-6.42,10.89-2.86
	c-2.65-15.89,15.59-14.84,20.8-3.54c6.72-1.87,11.37-0.36,13.95,4.52c-0.05,5.85,0.79,7.05,2.54,3.59
	c-6.38-7.99-6.51-17.28,0.9-24.66c-6.58-14.15,11.38-14.95,20.17-9.83l2.85,0.04c4.89-13.25,13.75-10.93,23.12-3.17
	c-0.22-3.78-0.47-7.81-0.75-12.1c0.2-7.28,1.78-14.54,10.29-15.81c0.46-13.28,13.47-16.49,24.02-10.97
	c1.48-17.32,12.22-31.05,30.23-23.32c2.78-3.1,5.82-4.9,9.12-5.4c3.92-41.73,7.07-83.85,8.9-125.52l1.86-2.7
	c-1.7-0.8-1.54-1.56,0.32-1.63c2.21-2.11,5.34-3.31,9.4-3.61c16.05-5.2,32.76-9.35,49.86-8.18c25.26,2.61,50.83,2.84,77.22,3
	C936.86,1306.63,938.93,1307.45,940.91,1308.25z"/>
<path class="st8" d="M928.77,1579.2c-0.28,1.18,0.54,2.62,0.44,3.82c-2.08,10.76-14.23,14.76-23.81,16.92l1.76,8.24
	c5.47-8.64,16.96-19.21,28.18-11.64c9.29,6.27-2.26,17.29-9.05,20.12l0.92,1.81c-0.33,2.12-1.5,4.32-1.61,6.76
	c-0.2,4.71,3.22,7.56,7.12,9.27l13.75,6.01c1.05,1.31,1.55,3.3,1.51,5.96c2.9,2.98,3.45,5.12,1.66,6.4l-12.7,9.75
	c-3.04,2.33-5.37,5.67-5.82,9.09l-63.4-0.2c-1.36-0.51-1.7-1.82-1.04-3.93c-1.83-2.3-2.4-1.33-1.7,2.9l-1.97,1.23
	c-1.11-0.17-2.62-0.19-3.72,0.02c-1.83-0.72-2.44-2.46-1.83-5.24c-3.46,2.18-7.34,3.81-11.66,4.88c-9.22,0.47-18.66,1.1-27.85-0.07
	c0.23-1.73-11.04-5.87-8.32-10.34c8.6-14.15,34.54-12.73,48.53-2.43c0.47-7.75,0.26-14.45-1.62-21.32
	c-9.98,8.84-23.33,12.89-35.25,7.72c-3.8-1.65-10.26-5.53-9.65-10.01c0.83-6.17,9.1-8.66,14.43-9.14
	c18.19-1.65,31.16,10.08,30.45,5.27c-0.94-6.38-0.66-12.04-2.2-19.11c-19.2,18.28-46.33,6.27-41.89-0.83
	c7.87-12.59,27.73-11.4,40.63-3.28c0.5-5.46-0.58-9.94-0.95-15c-0.13-1.72-2.68-1.24-3.66-0.56c-11.57,7.99-28.27,11.59-38.34-0.64
	c6.39-14.27,28.33-12.64,40.3-5.07c-0.09-5.87-1.04-9.74-2.41-14.36c-9.71,4.79-20.14,5.69-29.49,1.64
	c-2.84-1.23-5.3-4.95-4.18-7.78c2.23-5.63,8.3-7.37,13.61-6.46c13.85,2.36,16.92,12.54,19.25,8.49c-0.17,0.3-3.44-15.63-4.59-17.65
	c-4.34,0.29-7.91,1.61-12.43,2.96c-5.38,1.61-15.39,0.11-17.38-5.98c-1.41-4.31,5.75-7.04,8.77-7.8c7.72-1.95,13.55,1.91,20.03,6.48
	c-0.08-3.49-1.85-5.94-3.1-8.86c-6.83-0.26-13.24-0.25-19.23-3.67c-2.61-1.49-5.94-5.69-3.35-8.24c5.14-5.07,12.69-2.61,18.74,1.63
	c2.75-6.26-10.15-11.41-11.02-22.56c-0.24-3.13,0.79-5.99,3.45-6.63c2.69-0.65,5.07,0.53,7.16,2.94c7.94,9.14,0.03,21.18,5.22,24.01
	c1.87-4.55,3.45-8.42,6.5-11.51c1.38-1.4,6.38-2.31,6.86,0.02c2.48,12.14-12.67,18.77-11.49,23c0.58,2.07,0.57,4.97,3.21,5.47
	c0.42-7.26,4.71-14.4,11.64-16.14c2.02-0.51,4.9,0.06,6.21,0.85c8.81,5.34-8.01,21.14-17.48,21.91c2.84,6.74,2.88,12.84,4.76,19.94
	c2.72-8.2,4.92-15.2,11.5-19.82c3.62-2.55,7.89-3.53,11.87-1.47c3.19,1.65,4.23,5.21,2.45,8.3c-10.17,17.71-25.92,11.35-23.8,18.94
	c0.71,2.56,0.47,5.33,1.4,7.61c1.33,1.02,2.88-1.23,3.58-2.34c4.99-7.87,11.67-13.25,20.99-14.97c-1.23-2.35-2.28-3.46-1.89-4.83
	c1.57-5.58,12.36-1.33,17.48,1.36c-3.82-7.14-8.81-12.26-7.79-19.75c0.58-4.26,2.89-7.52,6.91-7.57
	c10.84-0.13,6.68,17.44,5.49,24.53c3.16-1.63,3.03-4.85,4.89-7.59c1.58-2.32,5.71-5.4,8.46-3.31c5,3.82-5.3,14.26-9.26,16.86
	c-2.27,1.49-3.64,4.02-1.15,6.72c2.95-6.75,13.63-15.44,17.98-10.46c3.47,3.98-0.66,12.52-9.74,15.59l-7.36,2.49
	c-0.55,3.17-0.77,6.44,0.73,9.6c5.43-8.49,11.31-14.73,21.73-11.41C925.97,1577.35,926.91,1579.61,928.77,1579.2z"/>
<path class="st11" d="M574.15,1564.8l1.78,1.12c-3.32,18.02-4.97,36.23-4.97,54.62c1.87,5.56,2.19,4.27,0.97-3.88
	c0.66-1.17,1.78-1.78,3.39-1.84c-0.71-4.93-0.08-10.17,1.91-15.72c-0.09-3.39,0.78-5.92,2.61-7.58c0.24-2.07,0.78-2.47,1.98-0.67
	l1.98,0.96l0.76,12.7l-1.84,1.46c1.89,0.38,2.51,0.87,0.93,2.22c0.75,0.2,1.88,0.54,1.92,1.12c0.22,3.79,0.82,30.4-0.08,31.71
	c-0.48,0.7-1.07,1.2-1.92,1.39c-1.17,4.18-1.4,9.39-0.68,15.64c2.02,0.3,2.45,12.12,2.02,12.62c-0.54,0.62-1.27,0.92-2.06,1.06
	l-42.12-0.33c0.41-2.16-0.93-3.83-2.06-6.04c-12.16-23.89-22.61-48.12-31.74-73.34c-16.88-46.63-17-66.04-26.62-110.95l-1.01-4.72
	c1.34-1.17,2.24-1.25,3.08,0.2c11.35-5.58,26.1,0.08,23.98,14.31c9.43,6.19,12.2,18.69,8.76,29.03l4.73,3.19
	c2.8,6.01,3.25,12.7,1.36,20.07c-1.36,4.49,1.18,6.56,7.62,6.22c8.72-15.4,21.91-10.26,21.67,6.88c8.69-8.74,27.24-9.15,23.27,7.25
	L574.15,1564.8z"/>
<path class="st8" d="M768.3,1671.38c-0.92,0.26-2.17-0.11-3.08,0.06l-2.32-0.44c-1.35-3.5-3.4-6.43-6.15-8.78
	c-2.06,2.82-4.07,5.68-6,8.59l-2.92,0.89l-22,0.04c0.68-4.86,4.34-8.54,8.8-12.08c-2.36-1.96-14.51,0.97-15.22-3.46
	c-1.38-8.65,19.02-15.96,26.7-14.18c-1.67-3.77-3.58-6.19-6.15-9.36c-5.45,9.67-16.19,15.41-26.28,10.14
	c-1.84-9.06,14.34-14.26,22.39-13.78c-2.38-15.35-11.4,7.05-25.95,0.1c-3.37-1.61-1.98-7.94,1.2-9.4
	c13.11-6.01,10.05-0.58,18.37-0.41c-1.14-3.07-3.29-5.5-5.25-8.35c-5.8,0.48-12.05,7.95-18.78,2.69c-1.1-0.86-3-0.98-2.98-2.33
	c0.11-7.29,11.44-7.2,17.24-6.02c2.5-6.87-20.71,1.1-22.14-7.45c-1.16-6.97,12.42-2.55,13.39-4.13
	c-6.08-4.16-12.22-6.83-13.98-13.61c-0.62-2.39,1.37-4.78,3.2-4.83c8.64-0.25,9.91,11.78,13.9,18.71c1.64-2.86,0.59-5.52,1.34-8.56
	c0.59-2.38,4.27-5.83,6.21-3.46c4.55,5.57,1.97,12.72-0.6,18.45c-0.94,2.1,1.73,4.55,3.1,5.38c0.78-4.67,0.42-9.18,2.06-13.79
	c0.97-2.73,5.93-4.12,8.04-2.37c5.43,4.48-3.66,16.58-6.26,20.86c-0.48,2.76,2.86,6.23,5.05,8c0.53-4.98-0.35-8.72,1.4-13.14
	c1.61-4.04,7.29-8.69,11.19-5.03c4.56,4.27-3.76,18.73-10.77,21.79l6.29,7.54c4.14-10.59,5.06-23.31,20.44-21.08
	c0.95,12.88-6.63,20.15-18.02,24.02c2.06,6.35,4.39,4.81,8.23,13.35c1.19-10.42,10.25-27.57,21.45-22.24
	c4.03,6.15-1.15,16.78-7.52,19.05l-12.77,4.55c2.37,3.34,3.81,6.59,7.36,9.66c3.56-10.77,16.82-24.75,26.05-17.04
	c1.69,11.52-9.52,20.11-20.37,19.73C757.91,1659.36,768.9,1668.34,768.3,1671.38z"/>
<path class="st8" d="M408.17,1615.77c-0.86-0.88-0.26-1.54,1.8-1.98c0.29,0.03,0.59-0.01,0.88-0.02c0.3-0.84,0.66-0.84,1.08-0.02
	c0.57,2.17,3.31,1.92,5.62,1.8c21.76-1.14,28.2,14.48,23.85,16.18c-11.1,4.34-23.01-1.05-28.54-11.31
	c-0.63-1.17-1.43-2.02-2.55-1.97c-0.88,0.04-1.44,1.17-2.03,2.17l-5.53,9.19c10.98-0.78,21.48,1.99,28.78,10.22
	c1.65,1.87,3.92,7.51,1.32,8.88c-7.99,4.24-17.64,1.36-23.12-5.17l-9.04-10.78c-3.6,2.75-5.37,6.56-7.54,10.34
	c-4.43,7.71-9.34,14.79-13.23,23.25c11.02-2.16,22.18-1.46,30.03,5.04l-36.64-0.04c0.14-1.52,1.12-2.98,0.87-4.9
	c-5.21-0.3-10.03,0.46-15.09-0.36c-16.21-2.64-25.79-18.46-20.26-24.25c1.38-1.44,3.52-1.64,5.82-1.56
	c16.45,0.58,22.93,13.28,31.63,24.64c3.8-5.31,6.9-9.79,9.53-15.35c-1.71-1-3.65-0.81-5.43-0.76l-2.38-1.37
	c-4.36,0.24-7.52-1.58-12.02-3.82c-6.94-3.46-13.99-15.22-8.86-22.03c7.47-3.15,17.27,3.92,21.21,9.85l9.61,14.48l9.59-14.47
	c-9.61-1.16-18.76-4.69-24.43-12.76c-2.4-3.42-6.16-10.46-2.31-13.68c4.14-3.46,11.87,1.23,15.13,4.34
	c9.6,9.16,6.47,10.4,13.4,20.12L408.17,1615.77z"/>
<path class="st0" d="M209.03,1671.69c-5.32,0.5-10.65-0.03-15.98-0.04l0.12-2.09c4.59-1.58,9.04-3.32,13.34-5.21
	c-10.48-8.85-27.99-13.05-41.74-10.15c-7.29,1.54-9.73,3.43-12.3,10.1c-23.14-4.83-46.62-4.93-68.38,5.52l-7.09,1.65
	c-1.01,0-3.06-0.4-3.98,0c0.68-4.93,1.13-10.05,2.12-15.44l6.11-33.27c0.39-2.14,3.35,0.88,4.41,1.84
	c12.08,10.89,27.62,21.27,44.05,25.49c13.44,3.45,27.05,0.34,39.14-5.78c11.8,5.77,33.32,0.28,45.32-5.86L209.03,1671.69z"/>
<path class="st0" d="M616.22,1626.25c0.6,15.13-0.51,30.37,0.81,45.48l-12.38-0.27l-1.98-0.92l-2.81-42.09
	c-1.16,13.17-2.04,26.41-2.66,39.72l-2.01,3.21l-12.36,0.34c0.76-4.37-1.05-9.38,0.05-13.68c-0.68-5.46-0.46-10.68,0.68-15.64
	l0.09-34.22c-0.51-1.26,0.79-1.8,3.9-1.62l28.88-0.27C618.71,1612.81,617.98,1620.19,616.22,1626.25z"/>
<path class="st2" d="M193.06,1671.65L77,1671.46c22.1-12.79,49.4-15.73,74.98-8.47c0.15-3.76,1.4-6.23,4.63-7.89
	c15.25-7.83,36.6-2.43,50.02,6.3c1.32,0.86,2.04,2.41,1.69,3.58c-0.3,1.01-1.47,1.52-2.63,1.96L193.06,1671.65z"/>
<path class="st2" d="M352.23,1671.52c-19.48-0.02-39.02,0.83-58.49-0.07c1.87-4.26,20.82-2.67,26.05-2.27
	c1.25,0.1,1.17-2.29,0.69-3.01c-1.36-2.06-18.93,3.84-37.54-11.76c-0.91-0.76-1.43-1.95-1.42-2.74c0.06-4.62,25.63-18.73,47.74-5.38
	c10,6.04,1.34,13.01,3.4,15.38C332.75,1661.79,348.37,1664.77,352.23,1671.52z"/>
<path class="st8" d="M793.86,1671.56l-23.91,0.54c0.11-5.75,10.39-15.31,17.52-17.6c2.65-0.85,14.47-2.7,15.18,4.86
	c0.21,2.25-0.72,4.22-2.35,5.83L793.86,1671.56z"/>
<path class="st8" d="M604.66,1671.46l-9.47-0.08c0.3-8.67,0.12-17.49,1.52-26.48c1.55-9.98,0.33-19.73,3.46-30.19
	c2.22,14.94,2.66,28.75,3.61,43.16L604.66,1671.46z"/>
<path class="st12" d="M273.78,1671.4c-1.22-0.03-2.69-0.11-3.89-0.03c1.59-5.67-8.4-10.21-11.24-13.14
	c6.56-1.36,10.92-3.45,16.59-7.21C276.37,1658.22,274.13,1664.72,273.78,1671.4z"/>
<path class="st0" d="M1031.18,1671.77c-6.09,0.61-12.26-0.3-18.31-0.28l15.73-13.97
	C1030.01,1663.02,1031.15,1667.27,1031.18,1671.77z"/>
<path class="st11" d="M765.22,1671.43c-5.74,1.07-11.61,0.26-17.39,0.27c3.3-3.5,6.79-12.48,9.69-11.7
	C761.07,1662.85,763.44,1667.51,765.22,1671.43z"/>
<path class="st7" d="M859.28,1671.74c-4.46,0.83-9.14-0.58-13.49-0.36l12.58-8.48C860.17,1666.25,858.96,1668.99,859.28,1671.74z"/>
<path class="st0" d="M223.7,1671.61c-3.75-0.06-7.53,0.49-11.29,0.12c0.84-2.34,0.01-4.57,1.65-7.77L223.7,1671.61z"/>
<path class="st7" d="M813.98,1671.68c-5.71,0.01-11.5,0.69-17.15-0.19C801.77,1668.61,809.44,1668.06,813.98,1671.68z"/>
<path class="st7" d="M867.71,1671.52c-1.55,0-3.11,0.44-4.71,0.2c0.36-1.91-0.89-4.8,0.48-6.66c1.19-1.61,4.06,0.17,4.79,1.47
	C869.12,1668.04,868.23,1669.87,867.71,1671.52z"/>
<path class="st0" d="M219.64,1601.15c0.48,5.15-0.68,9.69-2.09,14.8c-12.66-8.91-37.43-15.4-48.14-1.87
	c-16.32-7.73-33.23-9.64-50.46-6.19c-13.23,1.09-25.08,4.75-37.29,10.77l8.71-48.92c13.86,13.33,29.52,22.82,47.42,28.02
	c12.28,3.56,34.24,1.09,44.87-8.1C185.3,1602.58,207.69,1606.06,219.64,1601.15z"/>
<path class="st8" d="M281.24,1535.28c0.75-0.09,1.36,0.14,1.93,0.61c2.13,1.75,9.24,10.36,6.26,12.65
	c-0.07,0.95-0.26,1.89-0.52,2.81c0.01,0.75-0.03,1.86-0.55,2.02c-2.86,0.9-11.25,2.52-12.74-0.06c-1.63-1.41-3.87-1.85-6.28-2.61
	c-8.59-2.71-15.95-9.19-17.17-18.54c7.56-4.24,16.68-4.09,23.46,0.88C277.5,1534.4,279.07,1535.78,281.24,1535.28z"/>
<path class="st12" d="M257.35,1609.69c-2.13-1.72-1.52-4.12,1.16-4.65c2.61-1.78,5.46-1.27,8.31-1.95l15.85-3.78l-6.38,47.85
	c-5.24-5.71-9.12-8.45-14.99-10.94c-2.57-1.09,0.63-5.33,2.67-5.92c3.77-1.09,14.51-4.23,14.43-7.42
	C278.34,1620.52,262.5,1609.33,257.35,1609.69z"/>
<path class="st8" d="M285.06,1515.75l1.08,1.05c1.41,0.23,2.42,1.34,3.04,3.33c4.32,3.12,5.64,6.21,3.96,9.28l-1.05,1.88
	c-0.35,3.57-9.11,4.14-10.52,1.14c-5.32-2.53-10.87-4.94-14.12-10.5c-1.6-2.75-3.92-7.23-1.61-10.09c3.54-4.38,10.37-2.8,14.3,0.39
	C281.97,1513.72,283.08,1515.3,285.06,1515.75z"/>
<path class="st0" d="M241.79,1606.94c2.54,0.45,2.49,1.3,0.05,2.08l-8.11,3.04c-4.02,1.51-8.95,1.72-11.38,5.33
	c3.33,4.61,8.01,6.66,11.73,10.04c2.1,1.91,3.29,4.11,6.12,5.44c-8.16-0.42-14.67,1.25-22.3,4.12c1.41-13.71,3.76-22.5,5.52-36.33
	c3.96,1.32,7.03,4.37,11.17,5.06L241.79,1606.94z"/>
<path class="st8" d="M291.84,1491.87c0.66-0.33,1.39-0.49,2.08-0.16c0.6,0.28,6.37,10.64,3.96,11.77c1.01,1.94-0.69,4.64-1.18,6.65
	c-1.57,2.82-8.91,1.97-8.91-1.6c-6.36-3.27-16.01-13.67-11.33-18.92C280,1485.65,288.95,1491.28,291.84,1491.87z"/>
<path class="st0" d="M231.47,1653.8c3.62,0.33,7.38-1.73,9.69,2.88c-9.39-0.28-17.58,2.04-26.65,6.6l2.89-24.65
	c4.49,3.27,8.39,6.54,12.52,10.11C230.72,1649.43,229.61,1653.32,231.47,1653.8z"/>
<path class="st0" d="M184.32,1626.32c-1.56-0.13-3.29-1.34-2.42-3.12c10.87,3.06,25.98-1.31,35.2-6.3l-2.42,20.1
	C205.21,1631.2,195.47,1627.25,184.32,1626.32z"/>
<path class="st12" d="M265.9,1582.9c-2.37-1.43-1.65-4.31,1.05-4.63c3.89-1.34,7.48-1.56,11.43-1.83c2.89-0.19,5-2.15,8.02-1.61
	c-0.89,7.24-1.5,13.62-3.23,20.58C278.58,1591.03,267.54,1586.22,265.9,1582.9z"/>
<path class="st12" d="M288.91,1551.34c2.77,0.44-0.83,15.39-1.67,18.71c-3.77-4.41-13.15-9.4-13.09-12.03
	c0.04-1.64,1.33-3.09,1.47-4.71L288.91,1551.34z"/>
<path class="st11" d="M229.63,1575.4c-1.94,1.13-1.77-1.06-0.91-2.67c0.02-2.89-0.42-5.66,0.92-9.08c6.6-0.68,11.8-3.92,18.29-5.47
	c-2.35,2.86-3.22,5.59-3.46,8.46c-2.91,3.17-8.07,3.74-11.47,6.51C231.79,1574.14,231,1575.46,229.63,1575.4z"/>
<path class="st0" d="M229.63,1575.4c-0.54,2.02,1.47,3.8,1.8,5.7c1.78,0.19,2.78,1.74,2.99,4.66c2.48,2.99,2.83,5.3,1.05,6.93
	c-2.58,3.17-6.6,4.78-11.31,7.05c-0.47-2.14,2.48-28.36,4.56-27.01C228.71,1573.71,229.05,1574.68,229.63,1575.4z"/>
<path class="st12" d="M296.7,1510.12c0.64,1.01,1,2.46,0.52,4.17c-2.4,8.62-0.97,15.76-4.09,15.11c-0.11-5.98-6.68-5.68-6.99-12.61
	l-0.05-1c-0.02-0.54,0.32-1.11,0.26-1.65c0.46-1.19,0.91-2.3,1.35-3.35c-0.14-0.74-0.02-1.53,0.09-2.27
	C290.22,1509.78,294.05,1509.71,296.7,1510.12z"/>
<path class="st12" d="M292.08,1531.29c1.33,0.86,1.6,2.27,1.31,4.1l-1.79,11.27c-0.23,1.46-1.09,2.12-2.17,1.87
	c-0.72-5.63-8.56-9.07-8.19-13.26c0.08-0.94,0.45-1.88,0.32-2.85C285.08,1532.2,288.7,1532.39,292.08,1531.29z"/>
<path class="st11" d="M235.46,1592.7c-2.33-7.86-2.44-2.17-4.04-11.59c5.42,0.25,10.96-0.48,16.28,0.4c-2.91,1.46-7.93-0.2-8.57,3.8
	c-0.29,1.8,3.45,4.78,1.23,6.84C239.18,1593.23,236.8,1592.65,235.46,1592.7z"/>
<path class="st8" d="M258.51,1605.04c-0.15,1.6-0.57,3.16-1.16,4.65c-2.5,0.17-4.95-0.25-7.81-0.33c-2.8-0.07-5.43,1.24-7.71-0.34
	l-0.05-2.08C247.55,1606.43,257.24,1600.91,258.51,1605.04z"/>
<path class="st12" d="M297.88,1503.47l-6.04-11.61l0.19-2.03c2.8,0.48,6.39,1.37,8.09,4.32
	C301.32,1496.25,299.83,1507.14,297.88,1503.47z"/>
<path class="st7" d="M266.95,1578.27c-0.14,1.59-0.62,3.11-1.05,4.63l-12.43-2.52c2.25-2.1,4.37-3.61,7.08-4.54
	C263.06,1574.98,265.6,1576.62,266.95,1578.27z"/>
<path class="st11" d="M254.03,1552.54c-0.08,0.86,0.01,1.72,0.26,2.54c-1.76,0.69-3.44,2.98-5.93,2.37L254.03,1552.54z"/>
<path class="st9" d="M968.53,754.65c0.19,3.56,8.69,12.23,8.77,15.31c1,0.94,1.67,2.23,2.02,3.88
	c3.49,129.75,7.12,259.21,10.92,388.4l-1.89,1.18c0.02,0.73-0.76,2.18-1.76,2.61l-23.74,10.15l-1-0.08l-2.43-0.99
	c-7.47-12.89-15.06-25.62-22.76-38.2l0.35-1.32c-2.97-0.3-5.36-6.26-3.65-8.65c0.56,0.17,0.91-1.04,0.88-1.88l-1.53-53.55
	l-2.98-96.47l-0.99-38.7l-1.79-55.42l-0.97-38.7l-3.03-98.21l-0.87-35.53L921.85,694c2.33-0.02,2.86,2.42,4.25,4.33l37.99,51.95
	C965.48,752.17,966.83,753.92,968.53,754.65z"/>
<path class="st6" d="M1018.88,242.81l-0.82,56.29l-0.7,39.48c-1.42,0.64-2.75,0.26-3.67,0.22L978,311.36
	c-4.78-3.67-9.89-6.5-13.26-11.04l-1.97-2.07c-0.19-20.57-0.81-41.11-1.85-61.62l2.03-1.3c2.39,1.17,5.57,1.68,8.46,2.88
	c12.49,5.19,25.58,8.71,39.17,9.79c3.72-3.42-7.67-32.89-7.65-32.84c0.03-0.18,0.25-0.54,0.55-0.76c5.07,3.04,9.36,5.79,15.34,8.44
	C1016.65,229.92,1018.98,236.34,1018.88,242.81z"/>
<path class="st9" d="M962.95,235.34c-0.49,3.68,0.54,7.41,0.63,11.49l1.15,53.49c-1.44-0.22-2.73-1.07-4.2-2.21l-45.79-35.79
	c-1.99-1.55-3.48-3.28-5.75-3.3l-0.53-11.45l-1-47.89C924.59,213.81,943.03,225.54,962.95,235.34z"/>
<path class="st9" d="M920.73,670.25c-0.55-0.64-1.25-1.46-1.07-2.45c0.12-0.66,0.51-1.27,0.95-1.78
	C921.81,664.84,921.99,671.31,920.73,670.25z"/>
<path class="st13" d="M1007.38,812.26l-0.93,38.87l-0.86,33.59l-0.94,30.57l-0.99,44.31l-1.02,40.31l-0.83,28.64l-1.02,38.38
	l-0.87,34.15l-2.06,60.43c0.1,1.94-7.94,5.19-9.51,1.91l-0.96-39.64l-0.94-34.97l-1.87-55.26l-1.06-40.33l-1.01-35.55l-1.82-54.66
	l-0.97-38.71l-2.41-94.33c1.2-0.04,1.81,0.89,2.63,2.03l25.01,34.46C1006.38,808.44,1007.44,810.04,1007.38,812.26z"/>
<path class="st0" d="M956.08,1650.31c-3.49-1.7-1.18-8.17,1.97-9.4c4.23-0.16,8.44-0.71,12.97-1.88
	c18.02-7.32,33.48-17.97,48.04-32.71l9.37,48.2c-15.27-5.5-29.72-9.26-45.35-8.09C973.5,1645.54,964.62,1647.48,956.08,1650.31z"/>
<path class="st0" d="M981.03,1555.03l0.38-8.22c0.49-1.07,1.06-2.44,1.73-4.09l-1.03-2.05c6.21-4.22,12.23-8.65,18.07-13.31
	c-3.61-1.82-7.38-3.29-11.3-4.41l-1.05-2.45c1.12-5.11,1.79-10.21,2.65-15.35c-2.64-1.17-0.74-8.98,0.06-11.91
	c-0.06-2.89,0.95-4.98,3-6.28c0.67-0.13,1.01-1.62,1.33-2.11c0.38-0.57,2.16-1.06,2.4,0.27l13.95,75.07
	C1000.44,1558.44,990.9,1555.14,981.03,1555.03z"/>
<path class="st0" d="M972.2,1595.7c-3.27-0.5-2.85-3.61,0.14-4.81c2.54-0.67,4.82-2.96,7.45-4.23c12.07-5.8,21.9-13.6,31.38-24.46
	l7.42,39.92c-3.25,0.32-5.68-1.2-8.55-1.93C997.37,1597.09,984.63,1597.43,972.2,1595.7z"/>
<path class="st11" d="M929.21,1583.03c12,13,27.6,11.96,43.13,7.87c-0.35,1.59-0.57,3.22-0.14,4.81c-1.74,0.74-3.82,1.72-6.19,1.95
	c-13.7,1.34-25.82,7.76-35.02,17.77c-1.25,1.36-2.48,2.39-3.78,3.06c-2.61-0.33-5.1,0.37-7.38,2.17l-11.37,8.95
	c-1.87-4.63-1.81-8.47-2.01-13.13c11.09,0.01,26.11,0.89,30.23-11.73c0.77-2.36-0.57-4.38-1.65-5.82
	c-2.44-3.28-13.05-4.9-20.04,2.53c-3.22,3.43-4.62,7.6-8.86,11.16l-2.62-12.56c-0.95-4.57,15.63-0.66,23.57-15.41
	C927.59,1583.67,928.38,1583.09,929.21,1583.03z"/>
<path class="st7" d="M962.15,1438.76l-2.39-1.35c-2.89,0.72-6.5-1.16-9.3-0.26c0.83-5.58-1.23-7.31-1.08-12.39
	c22.84,12.92,36.73,8.62,36.88,8.67c1.3,0.43,1.58,1.98,1.58,3.73c-0.01,5.25,3.05,9.39,2.14,15.13
	C981.75,1444.35,972.2,1440.01,962.15,1438.76z"/>
<path class="st7" d="M953.21,1472.49l0.1-5.71c12.75,1.86,25.81,0.22,37.72-8.39c2.06,6.89,3.49,13.3,3.62,20.68
	C981.17,1472.66,967.15,1469.79,953.21,1472.49z"/>
<path class="st7" d="M993.55,1486.96l-3.06,18.19l-8.39-1.34c2.1-7.34-0.7-4.74-1.97-8.97
	C984.97,1493.33,988.46,1487.92,993.55,1486.96z"/>
<path class="st11" d="M958.04,1640.9c-0.24,3.26-2.51,6.02-1.97,9.4c-1.77,1.44-4.51,1.72-6.44,2.58
	c-0.44-3.46-6.16-4.84-3.16-12.36L958.04,1640.9z"/>
<path class="st14" d="M933.35,1126.95c1.54,2.57,2.78,5.88,3.65,8.65l0.94,1.73c-0.18,16.21,0.09,32.57,0.82,49.09
	c-1.15,1.73-1.73,3.73-1.76,6l0.25,25.59c0.42,4.1,0.86,8.42,1.34,12.96l0.23,20.69c0.8,1.94,0.68,4.09,0.18,6.09
	c0.42,2.17,2.16,47.99,1.99,49.64l-0.09,0.87c-16.38,0.86-32.83,1.05-49.61-0.2l-32.06-2.39c-15.05-1.12-28.99,1.17-43.29,5.64
	c-6.05,1.89-11.91,3.79-17.74,4.11c-2.91-1.06-2.99-4.44-0.15-5.72c0.42-1.43,0.86-2.88,1.3-4.35c-0.89-1.45-1.75-3.02-1.87-4.76
	c-0.14-2.11,0.18-24.81,1.71-26.15c0.31-0.27,0.73-0.43,1.17-0.55l-1.9-0.92c3.19-105.59,6.05-211.35,8.56-317.27
	c0.82-9.71,1.4-19.42,1.76-29.14l1.78-2.87c1.74,0.66,1.96,2.25,3.17,4.25L933.35,1126.95z"/>
<path class="st3" d="M961.85,1176.11l-23.29,12.1c-1.42,0.74-0.51,3.35-1.55,4.2c-0.06-6.55-0.59-13.18-0.7-20.18l-0.53-33.73
	c-0.02-1.33,0.54-2.46,1.22-2.9c2.81,1.87,4.24,5.22,6.17,8.43l10.78,17.92C956.86,1166.76,960.14,1171.11,961.85,1176.11z"/>
<path class="st3" d="M938.6,1230.95c-2.86,2.44-1.34-12.35-1.34-12.96C940.07,1215.55,938.59,1230.29,938.6,1230.95z"/>
<path class="st3" d="M939.01,1257.73c-0.5-2.56-0.15-3.46-0.18-6.09C940.39,1253.05,940.43,1256.23,939.01,1257.73z"/>
<path class="st5" d="M326.26,579.9l-0.28,28.41l-1.2,50.62l-0.71,30.75l-1.05,44.17L322,785.82l-0.89,34.77l-0.86,35.16l-1.05,47.22
	l-1.06,47.08l-1.89,68.86l-0.92,46.31c-0.28,14.09-0.78,27.75-0.76,41.4c-0.46,2.8-0.89,5.53-1.3,8.19
	c0.46,2.27-0.27,4.44-0.25,6.68l-1.72,1.8c-6.73-5.07-13.64-9.94-20.73-14.62c-2.8-0.76-4.95-2.05-6.46-3.85l-1.98-62.3
	c-0.35-11.09-2.58-22.07-0.95-32.6c0.6-15.84,0.69-31.51,0.25-47c3.6-149.87,6.85-299.87,9.75-450.01l1.94-1.12
	c0.61,2.66,3.53,5.58,4.59,8.23l5.1,12.75c2.49,6.23,6.01,11.72,8.45,18.08C312.65,554.46,323.19,580.77,326.26,579.9z"/>
<path class="st13" d="M293.13,511.79l-0.83,49.43l-1.01,53.02l-1.91,78.08l-0.89,50.39l-2.01,78.25l-0.9,46.51l-1.13,51.81
	l-0.84,34.75l-0.84,30.66c-0.24,8.84-0.32,17.1-1.58,25.22l0.09-18.24c-1.23-2.87-1.52-6.36-0.88-10.46l-0.74-1.31
	c0.1-13.01-0.42-26.05-0.74-39.5l-0.96-40.55l-1.84-61.18l-1.07-41.31l-0.94-40.55l-1.93-67.88l-0.97-42.51l-1.77-58.33l-1.09-48.01
	l-1-40.35l-1.23-50.49c1.3-0.01,1.5,1.24,2.06,2.54l21.79,50.26C291.51,505.61,292.36,508.48,293.13,511.79z"/>
<path class="st13" d="M193.64,475.22l-0.38,22.18l-1.05,57.82l-0.68,33.65l-0.98,51.07l-1.11,63.37l-1.86,77.33l-1.04,56.87
	l-1.03,49.88l-0.73,26.9c-0.29,10.7-0.3,21.02-0.39,31.3c-0.42,0.01-1.14,0.17-1.47-0.06c-0.79-0.56-0.39-1.67-0.42-2.81
	l-1.38-58.15l-1.03-44.22l-1.8-59.48l-1.12-47.82l-0.97-43.43l-1.83-64.06l-1.07-42.26l-0.72-39.04l-1.76-75.67
	C180.01,473.11,180.56,476.57,193.64,475.22z"/>
<path class="st6" d="M313.01,1121.49c0.17,15.98-0.03,31.92-0.59,48.36l-1.93,56.43l-0.91,29.93l-0.77,21.68
	c-4.52-0.83-7.28-6.5-14.85-10.9c-1.99-1.16-4.01-1.96-4.98-3.76c0.39-4.93-0.51-9.8-0.71-15.24l-2.68-73.95l-0.77-42.92
	c-0.74-3.74-0.99-8.04-0.75-12.89c0.15-4.35,0.18-9.09,0.04-13.42c6.64-0.49,19.19,10.07,24.71,14.82
	C310.2,1120.83,311.39,1121.74,313.01,1121.49z"/>
<path class="st13" d="M193.96,429.97l-0.14,14.55c-3.21-1.54-6.11-3.74-9.02-6.95C187.42,434.25,190.54,431.5,193.96,429.97z"/>
<path class="st7" d="M284.82,1131.13c-3.61,2.4-0.6-17.34-0.75-12.89C286.04,1116.65,284.82,1131.26,284.82,1131.13z"/>
<path class="st5" d="M281.28,991.68c-3.33,2.17-1.63-10.06-1.62-11.76c0.64-0.58,1.57,0.36,1.57,1.22L281.28,991.68z"/>
<path class="st6" d="M496.4,1230.67c2.1-1.16,3.01-0.18,3.43,2.05c0.84,44.8,6.02,89,14.02,133.1c0.09-0.28,0.28-0.62,0.55-0.6
	c6.57,0.56,13.98,0.92,19.88-2.32c33.51-22.78,78.18-33.51,118.42-21.81c-0.61-4.4,0.44-6.64,3.14-6.73
	c0.78-1.29,1.81-1.73,2.72-0.59c2,5.26,4.69,9.67,8.06,13.24c21.28,5.21,49.35,10.58,69.7,0.01c13.05-8.91,26.46-17.24,40.22-25.01
	l16.77-6.54c2.58-0.96,4.11-0.44,4.58,1.56c0.23,5.84-0.21,11.5-0.62,17.86c-2.39,37.2-4.15,73.87-8.64,111.18
	c-4.5,1.72-7.71,3.99-10.83,7.65c-7.74-5.61-17.17-4.07-22.43,3.39c-4.11,5.84-5.05,12.55-6.11,20.03
	c-5.83-3.84-12.19-5.08-17.79-2.46c-4.56,2.13-5.9,7.13-5.61,12.06c-14.87-0.19-9.93,21.2-8.64,30.46l-10.6-7.18
	c-2.99-2.03-5.94-1.99-8.83-0.7c-3.2,1.42-2.91,5.08-4.62,7.77c-5.81,4.14-13.07-5.82-21.8-0.88c-2.09,1.18-3.01,3.04-3.23,4.92
	c-0.18,1.55,1.93,3.46,2.12,5.23c-7.84,7.91-7.9,15.16-0.51,24.15c-2.13,2.47-4.3,4.4-6.83,5.83c-1.59-2.93,2.64-6.87-1.67-11.12
	c-3.24-3.2-7.4-0.67-11.51-0.39c-1.83-4.41-5.33-8.3-10.29-8.9c-2.76-0.33-5,0.37-6.42,1.89c-3.95,4.22,0.97,11.04-1.1,12.92
	c-3.03-4.1-6.98-6.31-11.45-4.69c-1.12,0.41-1.17,2.01-1.46,2.73l-2.18,0.89c-9.01-5.24-13.51-7.86-13.51-7.86
	c-1.8-4.17-1.69-7.63,0.34-10.4c5.95-0.39,6.45-4.71,1.5-12.94c-4.03-2.06-6.08-4.72-6.16-7.99c6.24-10.16-6.7-1.31-10.73,1.64
	c-8.17,5.99-7.83,18.28,3.43,19.4c10.85,7.38-1.43,15.22-9.33,16.92c0,1.83-0.79,2.52-2.55,1.81c-1.54,4.41-2.74,8.94-3.58,13.61
	l-2.08,0.94c-2.75-0.32,1.21-6.28-2.95-10.04c-6.46-5.83-16.12-1.27-22.31,5.77c-1.7-4.42,1.24-15.79-6.52-18.07
	c-2.98-0.88-6.36,0.1-8.18,2.7l-4.42,6.3l-10.15-1.57c-2.51-10.87,7.05-25.84-7.18-28.45c4.54-10.08,2.1-24.15-8.57-29.82
	c1.32-3.92,1-7.15-1.31-10.21c-5.17-6.85-14.33-5.88-21.05-2.32c-0.73-1.48-1.21-2.42-2.22-2.75l-9.31-70.9l-4.9-67.28l-1.78-30.72
	l-1.34-24.86l-0.7-21.54c-0.33-9.98-0.03-19.84-0.41-29.35l2.71-2.29c8.06-1.5,22.23-2.58,30.15-1.05L496.4,1230.67z"/>
<path class="st3" d="M471.31,359.82c2.22,46.01,3.6,92.11,4.13,138.3l0.98,7.71c1.17,65.43,2.99,130.95,5.46,196.55
	c1.22,52.39,2.5,104.82,3.83,157.29c0.76,27.04,1.74,54.2,2.94,81.49c0.61,4.34-0.38,6.78-2.98,7.35c-0.72,0.24-1.88,0.46-2.12-0.02
	c-12.75-26.22-24.64-53.73-34.98-80.67c-0.19-6.36-0.6-12.82-0.78-19.57l-0.75-29.42l-2.08-54.22l-1.01-39.54l-5.71-174.25
	l-1.06-36.01l-5.9-198.89l2.81,1.31c12.84,13.79,25.74,27.41,38.69,40.85L471.31,359.82z"/>
<path class="st10" d="M485.67,948.51c3.18-0.46,4.17,5.24,1.35,6.69c1.17,1.95,1.87,4.18,2.1,6.7c1.9,89.13,4.95,178.31,9.15,267.54
	l-1.86,1.24c-11.75-1.99-23.78-0.55-35.57,1.01l-5.36-132.44l-0.87-32.46l-6.02-198.97c1.83,0.19,2.07,2.05,2.79,3.74l7.23,16.91
	L485.67,948.51z"/>
<path class="st8" d="M468.62,294.69l2.95-0.03c15.61,6.11,31.46,13.22,46.07,21.66c0.76,0.44,1.38,1.15,2,1.89
	c0.63,0.75,1.16,1.6,1.65,2.46c1.02,0.04,2.02,0.11,3,0.33c0.97,0.21,1.91,0.42,2.65,0.91c14.04,9.28,26.18,19.17,38.7,30.34
	c0.66,0.59,1.1,1.43,1.56,2.31c0.46,0.88,0.81,1.82,1.11,2.78l2.22-0.46c5.78,6.59,31.77,37.73,29.27,44.87
	c-2.06,5.87-15.61,4.79-20.58,4.3c-21.89-2.17-39.01-5.16-59.51-13.8c-11.99-5.06-25.36-11.05-34.05-20.73
	c-0.41,0.2-0.82,0.37-1.25,0.41c-0.82,0.07-12.02-8.88-12.85-9.99l-0.26-2.12c-0.27-0.59-0.29-1.78-1.12-2.53
	c-14.34-12.84-26.64-27.08-38.9-41.39c-0.38-12.71-1.1-20.66-1.05-33.61l3.99-0.89c6.04,1.19,30.52,7.91,33.24,11.36
	C467.94,293.34,468.3,294,468.62,294.69z"/>
<path class="st8" d="M534.82,235.98c0.23-0.35,0.47-0.64,0.78-0.73c1.73-0.54,13.83,4.18,15.78,5.44l0.54,2.3l1.83-1.3
	c16.75,8.62,33.33,20.07,47.1,33.19c2.74,2.61,15.82,15.64,13.59,19.24c-2.15,3.47-20.27,2.89-24.87,2.65
	c-19.95-1.06-39.98-5.55-59.04-11.13l-1.4-2.46l-3.67,0.13c-17.91-5.41-35.24-12.42-51.99-21.04c-2.08,0.01-3.44-0.73-4.05-2.24
	c-2.15-0.04-5.83-1.38-4.97-4.05l-2.53,0.37l-32.72-20.19l-0.8-2.04l-0.22-21.92c0.59-0.43,1.2-0.82,1.85-1.1
	c0.63-0.26,1.23-0.48,1.82-0.45c17.75,1.05,38.71,5.49,56.19,9.45c7.93,1.8,42.1,9.73,45.66,14.06
	C534.14,234.69,534.49,235.32,534.82,235.98z"/>
<path class="st7" d="M557.85,193.91c2,2.55,13.17,15.18,13.56,19.26c-0.34,1.53-0.98,2.98-2.24,3.95
	c-10.12,7.78-22.92,16.16-34.35,18.85c-28.81-11.8-75.43-20.7-106.65-23.8c-0.09-8.68-1.18-17.23-0.99-25.97
	c0.75-2.09,2.44-3.67,5.08-4.73c1.75-2.16,3.56-3.14,5.43-2.93c3.32-0.11,4.97-0.17,4.97-0.17c35.08,13.98,73.03,22.3,110.55,14.6
	L557.85,193.91z"/>
<path class="st8" d="M546.11,178.65c5.74,3.12,8.09,10.61,11.74,15.27c-19.82,4.79-39.88,4.9-60.57,1.94
	c-21.14-3.03-40.23-9.94-59.59-17.29c-0.56,0.62-1.33,1.31-2.11,1.17c-1.25-0.23-8.23-3.69-8.32-5.11
	c-1.03-4.12-0.92-7.86-1.06-12.24c24.06-0.67,37.29-4.3,63.2-2.53C510.22,161.26,528.37,169,546.11,178.65z"/>
<path class="st10" d="M464.43,255.95c1.2,1.19,4.94,1.42,4.97,4.05l1.93,1.07c0.05,4.71,0.11,9.41,0.16,14.12l-1.9,1.39
	c1.78,1.16,1.73,3.55-0.14,7.18c2.1,3.04,2.2,5.02,0.31,5.93c3.26,0.82,2.18,5.24-1.13,4.99c-12.06-5.67-25.66-8.85-38.37-12.4
	c0.03-7.04-1.42-14.07-0.86-21.12l0.5-1.23c10.97,0.03,21.7-1.54,32.19-4.7L464.43,255.95z"/>
<path class="st8" d="M457.47,1576.01c-6.43,10.07-20.44,1.3-26.39,7.77c0.03-2.62,2.05-4,3.04-6.78
	c-6.37-5.74-7.63-21.69-4.91-23.27c0.87-0.5,3.32-1.07,4.34,0.01c4.79,5.06,4.43,11.95,3.4,18.84c-0.23,1.51,3.23,0.39,3.52-1.28
	c1.11-6.37,6.58-26.29,14.73-23.26c2.39,0.89,2.96,3.39,2.54,6.28c-1.25,8.52-14.66,9.96-16.78,17.58c5.6-0.9,9.47-3.42,13.97-1.11
	C456.78,1571.75,458.98,1573.66,457.47,1576.01z"/>
<path class="st7" d="M464.43,255.95c-5.02,4.49-28.36,6.1-35.05,5.22c0.16-2.08,0.29-5.53-0.31-7.51c0.41-1.78,0.61-3.79-0.63-5.25
	c0.08-4.69-0.02-9.62-0.06-14.3c1.13-0.01,2.23,0.48,3.41,1.22l21.89,13.72C456.68,250.93,462.19,253.73,464.43,255.95z"/>
<path class="st8" d="M427.01,1591.56c-1.39,0.85-1.99,0.44-1.44-1.08c0.41-2.84-1.18-3.58-2.93-5.07
	c-5.38-4.61-9.71-12.95-7.15-19.96c1.03-2.82,6.17-1.12,7.66,0.55c4.67,5.23,5.99,11.98,4.84,19.21c4.04,3.32,12.54-3.51,21.77,0.22
	c2.62,1.06,3.6,4.44,3.35,6.74c-0.71,6.67-14.93,3.91-19.68,1.84C431.13,1592.99,429.52,1590.82,427.01,1591.56z"/>
<path class="st8" d="M396.24,1648.99c2.41-1.04,6.83-1.24,9.13,0c13.24-1.1,23.97,11.92,19.08,14.9
	c-12.35,7.52-28.25-0.38-33.63-13.29C391.92,1648.78,394.76,1648.83,396.24,1648.99z"/>
<path class="st8" d="M407.29,1613.54c1.99,0.19,1.22,1.37-0.42,2c-10.99-1.93-26.69-15.33-21.83-27.57
	c5.56-2.73,13.45,3.23,16.42,8.09C404.96,1601.78,406.71,1607.48,407.29,1613.54z"/>
<path class="st8" d="M420.54,1605.22c-2.23-1.71-1.46-3.14,1.18-2.85c6.23-1.49,12.65-3.22,19.28-1.33c3.87,1.11,7,5.46,4.68,9.33
	C440.18,1619.53,424.4,1611.26,420.54,1605.22z"/>
<path class="st8" d="M415,1591.45l1.38,2.38l0.17,2.87c0.66,2.37,0.35,3.58-0.93,3.63c-9.44,1.18-19.07-14.72-13.9-23.55
	c4.39-1.71,8.8,0.35,10.65,4.59C413.86,1584.78,415.23,1588.02,415,1591.45z"/>
<path class="st2" d="M427.01,1591.56c-1.81,3.62-5.04,6.71-5.29,10.81c-0.06,0.99-1.03,1.87-1.18,2.85
	c-5.06-0.54-3.55,4.82-8.61,8.53l-1.08,0.02c-0.13-4.98,8.02-10.66,4.76-13.44c0.09-1.26,1.01-2.45,0.93-3.63l1.42,3.81l3.1-4.42
	c1.53-2.19,2.46-4.33,4.5-5.6C426.05,1590.56,426.5,1590.77,427.01,1591.56z"/>
<path class="st10" d="M437.69,178.56c-2.32,3.69-6.41,6.25-10.51,7.65c0.07-3.23,0.82-8.65,0.08-11.6
	C431.29,174.44,434.41,177.31,437.69,178.56z"/>
<path class="st2" d="M405.36,1648.99c-2.75,0.23-5.5,0.64-9.13,0C393.83,1646.61,407.77,1646.61,405.36,1648.99z"/>
<path class="st9" d="M314.57,1106.62c0,0.23,1.48,9.7-1.3,8.19C313.07,1113.87,312.02,1105.09,314.57,1106.62z"/>
<path class="st11" d="M429.07,253.66c-0.61-2.02-0.66-3.02-0.63-5.25c1.3-0.51,1.71,1.05,1.7,1.76
	C430.13,251.39,430.32,253.32,429.07,253.66z"/>
<path class="st3" d="M666.92,675.04l2,1.01c3.29,7.64,6.86,15.24,10.73,22.78l2.08,0.6c33.03,56.86,66.21,113.87,99.54,171
	l-0.76,1.23l2.22-0.05l18.32,29.97c3.33,4.47,5.42,9.15,6.26,14.03c1.49-0.96,2.41,1.03,2.84,2.26l0.43,5.81
	c0.77,10.26-1.33,21.08-1.61,32.07l-1.08,41.12l-1.01,47.07l-1.88,62.19l-1,47.37l-0.96,36.65l-0.83,20.62l-1.05,33.76l-0.77,29.35
	c-0.19,1.33-1.09,2.36-2.7,3.09c-10.72,11.45-22.22,22.17-34.52,32.15c-32.83,16.7-71.79,26.19-107.88,17.43l-1.47-1.76
	c-2.7,1.49-4.61-1.15-2.84-3.74c-0.66-0.27-0.67-0.62-0.07-1.05c-0.63-3-1.6-5.92-2.9-8.75c-0.87-0.11-0.85-0.38-0.02-0.8
	c-0.45-1.1-1.11-2.08-1.97-2.93c-2.79-1.27-4.76-4.05-5.9-8.34c-1.55-2.42-1.54-4.37,0.04-5.85c-0.6-1.03-1.2-2.07-1.78-3.15
	l-2.6-1.2c-2.61-5.21-4.81-10.58-6.59-16.11l1.36-2.57l-1.76-2.2c-2.99,0.97-5.4-5.71-2.09-6.44l-1.73-2.26
	c-2.21,0.45-6.82-10.56-6.61-11.21c0.27-0.85,0.87-1.45,1.63-1.9l-1.75-2.23c-3.69-1.44-6.12-7.65-4.83-11.34
	c-0.42-1.21-1.05-2.23-1.89-3.07l-2.15-0.56l-8.99-20.57c-2.15-3.69-2.34-6.48-0.57-8.37l-6.5-10.01c-0.62-0.57-1.01-1.49-1.14-2.74
	c-3.12-0.52-5.15-7.95-3.18-10.27c-0.44-1.43,0.07-2.89,1.53-4.4l1.06-4.05c2.78-61.64,4.2-123.55,4.27-185.72l1.12-4.86
	c1.73-130.87,4-261.69,6.79-392.48c-1.94-6.25-1.19-9.09,2.26-8.51c1.69-0.28,2.54-0.43,2.54-0.43
	C627.96,609.52,647.42,642.3,666.92,675.04z"/>
<path class="st8" d="M825.75,138.07l-0.54,36.29l-0.79,51.09c-1.27-0.15-2.58,0.11-4.22,0.56c-16.33,4.47-32.45,8.66-49.39,9.65
	c7.58-16.01,16.6-29.68,26.18-43.4c1.62-2.33,4.44-3.77,4.37-7.26c-14.24,11.15-29.39,20.01-46.6,25.62
	c-32.68,8.34-71.7,11.08-105.82,2.89c16.72-16.66,33.87-29.75,52.44-42.15c15.64-10.59,32.3-17.86,50.39-23.23
	c6.83-2.03,13.17-4.1,19.83-4.41c1.4-1.34,3.26-1.71,5.11-1.86c7.47,0.48,15.04-0.09,23-0.96L825.75,138.07z"/>
<path class="st13" d="M817.71,550.11l-0.29,42.04l-1.15,60.33l-1.84,77.47l-0.66,49.32c-0.7,5.22-0.97,11.42-0.81,18.6l-0.72,28.53
	c-0.11,7.58-0.15,15.17-0.1,22.76l-0.7,0.65l-0.3,23.59c-0.7,1.66-0.72,3.49-0.03,5.17l-0.3,17.09c-0.25,2.68-1.58,2.61-2.36,0.08
	l-1.93-0.85c0,0-2.91-121.5-8.74-364.5l2.04-1.44c1-2.19,2.66-1.67,5,1.59C809.71,536.75,814,543.27,817.71,550.11z"/>
<path class="st4" d="M819.98,414.71c0.71,1.72-0.36,5.14,0.17,6.77c-0.48,6.19-0.99,13.1-0.16,19.29l-0.6,35.98l-0.68,27.85
	l-0.99,45.51c-3.67-0.18-14.17-21.34-17.87-21.16c-2.78-0.89-9.29-8.43-6.01-10.52c0.27-5.12,1.01-10.28,3.33-15.32
	c-3.46-16.65,3.74-27.17-1.68-45.13l0.75-24.13c0.07-2.35,0.16-5.61,2.31-6.78l16.79-9.12
	C817.12,416.98,818.03,414.77,819.98,414.71z"/>
<path class="st11" d="M810.83,895.66c-0.11,6.37-0.62,12.82-0.66,19.16c-0.03,2.12-1.39,2.02-1.8-0.08
	c-1.4-0.72-1.92-2.41-2.25-3.93c-0.71-3.23-0.22-13.01,2.36-15.07L810.83,895.66z"/>
<path class="st11" d="M811.45,849.81c0.02-1.92-1.22-24.38,0.8-23.41C812.4,820.39,814.92,855.68,811.45,849.81z"/>
<path class="st3" d="M819.99,440.77c-0.78,0.2-1.11-1.01-1.11-2.02l-0.02-15.4c0-1.03,0.55-2.24,1.3-1.87
	C821.66,426.06,820.07,435.79,819.99,440.77z"/>
<path class="st11" d="M813.78,779.27c0,0.37,1.3,20.7-0.81,18.6C812.84,803.09,810.46,774.75,813.78,779.27z"/>
<path class="st11" d="M811.13,878.57c-1.43-1.16-1.37-4,0.03-5.17C811.13,875.33,811.16,876.64,811.13,878.57z"/>
<path class="st15" d="M772.11,490.65l2.01,4.32c2.87,121.73,5.98,243.47,9.34,365.22c0.63,4.19,0.73,8.16,0.28,11.93
	c-1,1.69-2.08,1.54-3.24-0.45l-60.93-103.05l-37.68-64.22c-1.16-1.98-1.99-3.75-2.25-5.56c-1.21-4.69-1.82-7.04-1.82-7.04
	c2.03-76.31,3.68-150.56,5.21-226.37c0.51-25.42,0.89-50.97,0.96-76.63l1.47-2.66c-1.31-0.98-1.63-2.53-0.94-4.66l-0.05-7.71
	l2.01-1.08c0.91,0.28,1.76,0.74,2.67,1.98l78.12,107.7C769.45,485.36,771.39,487.51,772.11,490.65z"/>
<path class="st10" d="M793.83,518.44c0.12,2.96,6.38,7.54,6.01,10.52c-0.53,4.32,0.55,8.71,0.65,13.45l1.07,52.8l1.59,61.04
	l0.92,41.34l1.15,51.85l1.74,66.33l1.12,50.54l0.4,29.44c0.08,6.28-1.06,12.69-0.11,19l-1.06,0.88c-2.92-3.95-5.12-8.49-7.9-13.04
	l-18.9-30.92c0.37-0.02,1.01,0.12,1.26-0.11s0.91-1.07,0.76-1.76c-1.45-6.86-0.86-13.3-1.04-20.27l-1.55-59.96l-0.93-31.9
	l-0.79-22.7l-1.04-39.52l-1.12-42.26l-0.84-29.63l-1.16-37l-0.7-37.11l-1.24-58.81C778.58,495.3,787.3,512.69,793.83,518.44z"/>
<path class="st7" d="M686.49,372.68c-0.51,4.51,0.81,9.24-1.02,13.45c-0.24,1.69-1.34,2.24-2.92,1.65
	c-1.43-0.53-20.63-19.59-21.69-21.37l-1.86-4.64l-2.19,0.46c-12.98-17.68-21.99-39.15-27.81-60.32
	c-4.86,8.73-10.39,17.31-16.59,25.72l-3.17,0.6l-1.57,4.23c-4.69,5.55-30.91,24.73-36.95,25.06c-0.79,0.04-1.59-0.04-2.39-0.16
	c-14.48-13.53-29.97-26.44-47.03-36.67l-1.61-3.08c1.63-10.88,3.95-21.62,6.96-32.22l2.48-2.22c20.39,6.65,62.52,15.65,84.09,10.22
	c-7.97-17.68-48.15-45.01-61.3-50.39c-0.18-0.69-0.33-1.38-0.35-2.07c-0.12-4.78,14.63-22.44,19.48-25.02
	c0.57-0.3,1.3-0.29,2.09-0.19c1.12-1.36,7.69,9.51,9.87,12.51l33.97,46.7l15.56,21.91l46.35,63.95
	C681.88,364.9,684.76,368.37,686.49,372.68z"/>
<path class="st13" d="M573.14,215.71c-8.46,7.7-15.93,17.12-21.22,27.27l-17.1-7c-0.13-1.32,1-1.55,2.27-2.12
	c12.45-5.59,24.08-12.31,34.33-20.69C572.08,213.7,573.61,214.28,573.14,215.71z"/>
<path class="st11" d="M776.72,141.86c-1.07,1.8-3.24,1.77-5.11,1.86c0.41-1.09,1.3-1.87,2.15-2.64
	C774.89,141.1,775.78,141.8,776.72,141.86z"/>
<path class="st8" d="M760.52,140.89c-2.23-0.03-3.3,0.21-5.17-0.8c0.24-1.08,1.7-0.82,2.59-0.96
	C759.05,138.96,760.96,139.26,760.52,140.89z"/>
<path class="st5" d="M800.39,1273.88l-0.38,9.73c-0.29,7.47-0.63,14.68-0.65,21.72c-0.27,1.18-0.71,2.63-1.3,4.35
	c-0.02,1.91-0.08,3.82,0.15,5.72c0.06,0.53-0.34,1.1-0.32,1.63c-4.47-0.49-8.41,1.99-12.83,3.55
	c-25.98,9.16-44.39,31.65-63.15,33.51c-16.4,1.63-32.14-0.22-48.24-3.11c-3.83-0.69-8.28-1.38-10.69-4.64
	c-3.7-5.02-4.68-12.13-7.14-11.98c-2.88,0.87-4.71-8.32-2.03-9.58c4.93-0.81,9.6,1.26,14.76,2.29c5.65,1.13,11.32,0.52,17.27,1.02
	c11.97,1.01,23.93-2.88,35.49-5.62c17.31-4.1,37.6-9.81,50.53-22.62l24.57-24.34C797.65,1274.32,799.06,1273.86,800.39,1273.88z"/>
<path class="st0" d="M619.01,1548.78c0.49,1.05,2.48,2.16,2.96,3.49c4.32,12.02,5.08,32.59,7.78,46.84
	c0.67,3.51,0.22,6.36,0.13,9.74c-0.11,4.1,1.72,8.15,0.29,12.28c-1.02,2.93-3.29,4.79-6.07,4.09c-1.86-1.16-1.53-2.81-0.78-4.65
	c-3.94-0.94-4.47-3.95-1.59-9.03l-3.16-9.27c0.34,2.95-0.92,6.34-3.7,4.27c-10.36-0.47-20.7-0.32-31.02,0.46l-1.14-1.04l-0.9-15.12
	l-1-0.24l0.73-14.7c-1.07-0.8-1.05-2.64,0.08-5.54l0.15-16.83c-0.67-2.38-0.48-4.08,0.58-5.11c1.9-3.69,6.97-4.42,10.44-7.18
	c1.48-1.18,1.35-6.47-0.3-7.33c-3.59-1.87-8.24-0.91-10.17-5.35c-1.51-3.45-2.42-11.15,0.72-14.5c4.42-4.71,11.35-7.78,16.31-11.01
	c1.61,0.27,3.51,2.52,3.57,3.76c0.07,1.4-1.82,2.98-2.21,4.43c0.05,3.47,5.54,4.01,6.32,6.8c1,3.55,3.08,6.85,3.68,10.33
	c0.52,3-4.33,4.14-6.73,4.78c-0.37,3.09,0.6,5.46,1.1,8.45C610.55,1542.5,614.87,1546.23,619.01,1548.78z"/>
<path class="st2" d="M987.83,1520.5c4.81,1.89,9.7,3.04,15.41,5.83c-4.09,7.49-19.31,12.96-20.1,16.38
	c-0.04,1.86-0.77,1.83-1.14-0.03c-13.3,3.5-29.65,6.49-41.45-4.54c-3.32-3.11-6.16-7.8-3.99-12.42c3.05-6.5,9.77-10.39,16.95-11.45
	C965.6,1512.5,976.97,1516.23,987.83,1520.5z"/>
<path class="st8" d="M624.1,1625.22c-0.65-0.16-1.6,0.42-2.22-0.2c-0.32-0.32-0.72-0.92-0.79-1.66c-0.19-2.02-1.04-2.15-2.55-2.04
	c-2.49,0.17-0.47,5.55-2.32,4.93l-0.74-18.71c-5.59-0.28-28.44-1.63-31.84,0.64c-0.14-0.66-0.88-1.43-0.93-2.22l33.88-0.42l1-54.25
	l1.14,33.18c0.26,7.47,0.59,15.11,3.22,22.12c1.04,2.76,3.08,5.5,0.31,8.53c-0.5,0.55-0.55,2.19-0.47,2.99
	c0.06,0.56,1.47,0.43,1.97,0.08c0.47-0.32,0.4-1.45,1.85-1.53C626.19,1619.76,624.35,1622.53,624.1,1625.22z"/>
<path class="st9" d="M981.41,1546.8c0.06-1.39,0.19-2.78,0.59-4.11c0.35-0.09,0.78,0.09,1.14,0.03
	C983.28,1542.14,983.23,1548.24,981.41,1546.8z"/>
<path class="st11" d="M870.88,1590.35c-4.69,4.16-8.03,8.4-11.41,13.12c-4.32,6.05-4.82-14.22-5.48-17.05
	c5.73-0.85,11.65-0.82,17.29-0.06C872.12,1586.48,871.81,1589.53,870.88,1590.35z"/>
<path class="st11" d="M913.77,1649.26c1.61,2.43,4.6,0.39,6.68,1.53c1.04,3.6-6.14,7.72-8.81,5.72c-3.3-6.01-1.98-13.76-2.75-20.99
	c4.19,3.33,15.44,5.45,13.51,8.66C920.56,1647.24,916.58,1646,913.77,1649.26z"/>
<path class="st11" d="M862.69,1637.44c-3.09,3.62,5.13,5.66,6.53,8.19c-7.73,3.15-1.22,7.3-7.24,11.52
	c-1.4-10.4-2.68-21.22-2.63-31.91c3.18,0.42,5.53,1.9,8.57,3.18C867.28,1632.04,865.02,1634.71,862.69,1637.44z"/>
<path class="st11" d="M902.42,1615.35c-3.17-0.2-7.44-2.63-6.15-5.61c0.61-1.4,2.52-1.8,2.35-3.26c-0.18-1.53-2.34-1.19-3.39-1.87
	c-0.62,0.41,0.02-17.83,3.68-13.92c-0.08,3.64,2.13,6.86,2.43,10.5C901.74,1605.94,900.85,1610,902.42,1615.35z"/>
<path class="st11" d="M872.26,1610.68c-5.81,4.19-8.87,8.05-12.82,13.74c-2.13-5.67-1.11-10.26-2.13-15.57
	C862.69,1609.13,866.49,1609.51,872.26,1610.68z"/>
<path class="st11" d="M906.26,1652.09c-3.43-0.69-11.29-2.82-11.54-5.31c-0.23-2.31,6.29-2.21,10.81-6.32
	C907,1644.24,907.95,1648.38,906.26,1652.09z"/>
<path class="st11" d="M904.1,1628.63c-1.78,0.49-6.59,0.6-6.78-1.78c-0.23-2.91,2.9-6.02,4.98-8.35
	C904.41,1621.61,904.69,1624.49,904.1,1628.63z"/>
<path class="st0" d="M579.8,1550.25c0.4-0.29,0.81-0.51,1.22-0.53c2.05-0.07,0.04,38.51-0.21,40.73c-0.04,0.39-0.46,0.73-0.97,1.06
	c0.18,6.71-2.03,13.08-3.42,19.66c-0.59,2.79,4.59,6.8,0.4,9.44c-1.5-1-0.58-3.76-2.87-4.14c-1.26,3.16,1.23,5.49,1.33,8.43
	c0.04,1.11-2.31,1.01-3.11,0.74c-5.1-1.77-2.94-14.07-3-15.05c-0.36-5.9,0.1-11.22,0.93-17.13l4.05-28.67
	C574.43,1562.8,576.33,1549.37,579.8,1550.25z"/>
<path class="st2" d="M582.35,1548.44c1.13,5.97-0.65,40.6-0.54,42.41l-1.98,0.67c-0.13-4.89,0-9.86,1.03-15.61l-4.95-1.21
	c2.84-0.59,4.83-1.36,4.85-4.18l0.09-17.28c0.01-1.33-0.49-2.38-1.05-2.99C580.22,1549.33,581.34,1548.55,582.35,1548.44z"/>
<path class="st8" d="M583.55,1642.41c-0.01,5.34,0.63,10.48-0.68,15.64C581.47,1661.42,580.69,1637.71,583.55,1642.41z"/>
<path class="st11" d="M756,1656.68c-6.15,0.21-10.76,0.7-16.44-0.19c4.14-3.9,7.05-5.65,9.39-10.9
	C751.75,1649.57,753.52,1651.95,756,1656.68z"/>
<path class="st3" d="M799.36,1305.34c0,0.8,0.62,2.16,0.24,3.35c-0.17,0.53-0.5,1.51-1.54,1c0.01-0.57-0.4-1.79-0.34-2.53
	C797.78,1306.42,797.99,1304.82,799.36,1305.34z"/>
<path class="st13" d="M588.98,1177.14c1.41,3.05,2.24,7.02,3.18,10.27l1.51,9.41c-1.13,27.25-3.14,54.59-5.34,81.77
	c18.51,14.01,37.98,26.86,58.39,38.57l4.25,3.89c0.6,1.48,1.76,2.6,2.84,3.74l2.03,9.58c-1.74,2.35-0.95,5.21-1.36,9.45
	c-19.77-6.45-39.5-7.52-59.74-3.18c-14.62,3.13-29.44,5.93-42.1,13.51l-17.41,10.42c-6.42,3.84-14.93,2.85-22.51,2.49
	c-2.82-8.57-3.65-16.75-4.83-25.28l-2.46-17.69c-1.29-9.26-3.18-17.78-3.83-27.18l-2.93-42.69c-0.5-7.22-1.03-14.08-0.7-21.25
	c0.05-1.02-1.37-1.79-1.56-2.28l-3.4-72.28l-0.95-29.33l-3-94.5l-1.09-44.07l-0.95-35.3c1.44-2.24,2.74-1.15,3.74,0.97
	c32.59,73.29,65.66,146.14,99.22,218.55C590.06,1175.72,589.91,1176.45,588.98,1177.14z"/>
<path class="st4" d="M471.31,359.82c3.64,1.01,5.79,4.3,8.69,6.76c2.2,1.86,4.35,2.68,5.66,4.94l5.73,6.03
	c36.82,63.45,74.14,126.84,111.95,190.17l1.57,6.41c2.78,0.19,3.08,1.04,1.09,2.97c-1.43,0.84-1.65,3.7-0.96,5.42
	c1.37,3.44,0.02,5.92-0.01,9.11l-0.39,32.09l-0.47,21.39l-0.87,67.22l-1.42,68.13l-0.77,39.44l-0.62,54.25l-0.9,48.08l-0.75,56.04
	c-0.02,1.67-1.15,3.1-1.11,4.78c0.21,8.61,0.1,16.83-0.08,25.36l-0.58,27.29l-0.54,45.24l-0.94,35.42
	c-0.12,4.43,0.14,8.47-0.01,12.68l-0.69,19.19l-1.38,20.07c-0.26,3.78-1.66,7.3-4.55,8.82l-38.71-83.84l-61.32-136.48
	c-0.52-1.17-1.24-1.5-1.94-1.63c-0.05-1.91-0.56-4.97-1.35-6.69c2.07-5.09,0.59-10.71,0.3-16.38c-0.36-6.94-0.53-13.52-0.66-20.41
	l-0.64-34.13c-0.05-2.65-1.16-5-1-7.81c0.42-7.38-0.04-14.43-0.23-21.74l-1.08-41.07l-0.83-37.63l-0.63-44.52
	c-0.06-4.57-1.46-8.7-1.09-13.49c0.53-6.97-0.1-13.8-0.35-20.76l-1.85-50.86l-1.04-44.83l-0.75-32.3
	c-0.14-6.16-0.23-11.99-0.36-18.28L475,521.25c-0.08-4.18-1.39-8.15-0.63-12.45c0.65-3.71-0.77-7.08-0.84-10.61l-0.62-32.98
	l-1.11-42.21l-0.55-24.51c-0.06-2.47-0.32-17.48-0.31-17.29l-1.32-19.26C469.53,360.67,470.52,359.71,471.31,359.82z"/>
<path class="st13" d="M609.23,328.22l1.9,0.92c-1.24,81.33-2.66,162.63-4.27,243.9l-1.94,1.1l-73.95-124.76l-45.3-77.85
	c29.86,20.09,64.1,32.73,100.8,32.78c3.93,0.01,8.75,0.44,11.43-2.44c2.43-6.76-26.48-41.64-29.57-44.52
	C583.16,349.41,597.37,340.28,609.23,328.22z"/>
<path class="st13" d="M529.12,283.15c-3.04,13.59-6.49,22.9-7.83,37.52c-16.74-10.04-35.03-17.68-52.67-25.98
	c0.75-1.33,1.4-3.59,1.13-4.99l1.47-1.62c8.64,3.3,10.49,1.97,5.54-3.99l-3.3-3.32c-2.47-1-3.76-2.39-3.87-4.18L469.4,260
	c1.63-0.07,3.55-0.18,5.52,0.78C492.71,269.45,510.62,277.12,529.12,283.15z"/>
<path class="st7" d="M469.75,289.7c-0.13-0.69-0.35-2.33-1.04-3.04c-3.1-3.22,0.91-6.89,0.88-10.07
	c6.55,2.08,11.97,8.78,12.42,16.02L469.75,289.7z"/>
<path class="st5" d="M658.99,361.77l2.01,4.16c2.52,102.55,5.12,205.11,7.8,307.66l-1.88,1.45c-3.21-0.98-4.91-4.33-6.84-7.59
	l-42.76-72.25l-7.28-11.8c-1.41-2.28-1.75-5.1-4.04-6.29c-0.38-0.97-0.56-2.06-1.09-2.97l1.24-58.03l1.03-63.39l1.09-71.02
	l0.95-53.49c8.63-8.77,13.47-21.17,20.73-32.02C631.65,312.81,649.95,352.57,658.99,361.77z"/>
<path class="st13" d="M685.47,386.13c1.99,9.45,0.32,19.35,0.18,29.49l-0.69,49.83l-1.97,86.88l-0.93,48.26l-1.23,55.82
	c-0.32,14.5-1.07,28.39-1.17,42.41c-1.44-0.4-2.37-1.67-3.23-3.44c-4.29-8.8-9.31-13.66-9.5-20.35l-1.01-35.11l-1.14-46.03
	l-0.57-31.42l-2.27-79.14l-1.06-44.85l-1.08-38.18l-0.79-38.55l23.53,23.95C683.29,386.51,685.4,385.49,685.47,386.13z"/>
<path class="st5" d="M593.31,1190.14c2.35,3.07,4.52,6.41,6.5,10.01c1.62,9.09,9.99,22.51,11.7,29.51c0.91,0.67,1.54,1.69,1.89,3.07
	c1.91,3.65,3.26,7.53,4.83,11.34c0.71,0.47,1.29,1.21,1.75,2.23c0.29,3.97,3.09,5.82,4.97,13.11c0.69,0.45,1.26,1.21,1.73,2.26
	c0.04,2.31,1.19,4.35,2.09,6.44c0.73,0.43,1.32,1.17,1.76,2.2c1.43,6.99,5.11,13.3,7.83,19.89c0.71,0.59,1.31,1.64,1.78,3.15
	c1.15,4.95,3.96,9.45,5.86,14.19c0.87,0.56,1.52,1.54,1.97,2.93c-0.02,0.26,0,0.54,0.02,0.8c1.53,2.73,2.5,5.64,2.9,8.75l0.07,1.05
	c-16.46-6.45-30.94-17.68-45.75-28.15l-18.89-13.37l2.32-29.36l2.37-36.92l1.14-25.83C592.83,1188.09,593.45,1189.14,593.31,1190.14
	z"/>
<path class="st4" d="M599.81,1200.15c-1.94-0.27-7.02-6.27-6.5-10.01C597.31,1189.48,599.3,1197.27,599.81,1200.15z"/>
<path class="st4" d="M650.91,1319.99c-3.05-1.43-2.69-5.72-2.9-8.75C651.01,1312.45,652.69,1317.24,650.91,1319.99z"/>
<g>
</g>
<g>
</g>
<g>
</g>
<g>
</g>
<g>
</g>
<g>
</g>
<g>
</g>
<g>
</g>
<g>
</g>
<g>
</g>
<g>
</g>
<g>
</g>
<g>
</g>
<g>
</g>
<g>
</g>
</svg>
