<?xml version='1.0' encoding='UTF-8'?>
<svg xmlns="http://www.w3.org/2000/svg" id="Layer_1" viewBox="0 0 1200 1543" xml:space="preserve" width="1200" height="1800">
<style type="text/css">
      .cls-1 {
        fill: #0c2340;
      }

      .cls-2 {
        fill: #55353f;
      }

      .cls-3 {
        fill: #0d5370;
      }

      .cls-4 {
        fill: #a92828;
      }

      .cls-5 {
        fill: #983236;
      }

      .cls-6 {
        fill: #106e9a;
      }

      .cls-7 {
        fill: #b6322e;
      }

      .cls-8 {
        fill: #1990b4;
      }

      .cls-9 {
        fill: #e64c30;
      }

      .cls-10 {
        fill: #97696e;
      }

      .cls-11 {
        fill: #e25445;
      }

      .cls-12 {
        fill: #ed613d;
      }

      .cls-13 {
        fill: #61bed7;
      }

      .cls-14 {
        fill: #f89573;
      }

      .cls-15 {
        fill: #89d3ea;
      }

      .cls-16 {
        fill: #f9f7f3;
      }

    </style>
<path class="cls-11" d="M1191.83,239.48c1.18,1.85,0.89,3.94-0.89,6.27c-8.81,46.49-16.22,93.67-23.19,141.44  c4.94-4.11,8.16-9.76,10.42-15.7l18.82-66.66l3-0.81v205.03l-4.19-0.57c-11.18-15.86-18.22-33.9-21.11-54.13  c-3.52,20.57-10.25,40.78-23.02,57.52c4.22-2.74,8.25-3.57,12.09-2.49c4.95,6.57-14.62,31.86-20.56,36.99  c11.36-3.79,18.21-3.25,9.51,10c-3.08,4.69-16.31,19.48-21.32,19.39c-4.56-0.08-19.35-18.88-19.26-23.76  c0.06-3.52,1.83-3.71,5.22-3.17c5.29,3.24,5.73,2.62,1.3-1.85c-6.06-17.18-12.22-34.21-18.49-51.09  c-2.89,14.31-8.17,27.44-15.83,39.4c3.4,0.63,5.11,2.19,5.12,4.7c-1.69,4.6-4.28,8.68-7.78,12.23c1.92-1.09,6.01-1.6,7.15,0.25  c3.42,5.55-11.34,24.26-16.24,28.63c3.52-2.41,10.24-5.62,10.69,0.37c0.47,6.3-12.15,20.5-17.33,24.67  c5.06-1.49,9.84-1.59,14.33-0.31c4.69,7.82-20.16,29.78-26.26,34.96c8.36,5.57-5.3,31.87-11.08,31.94  c-3.12,0.04-16.85-15.57-16.04-18.88c0.55-2.24,4.07-2.97,6.2-3.01c-4.83-4.27-7.47-9.04-7.9-14.31c3.76-0.93,3.03-3.38-2.19-7.33  c-3.09-3.46-5.56-7.33-0.4-9.93c-2.46-2.88-4.58-5.69-1.11-8.79l-8.29-18.32c-2.53,6.98-5.52,13.76-8.95,20.34  c5.02,2.71,2.51,7.21-0.51,10.6c3.47,3.26,1.72,7.26-5.23,12.01l3.03,1.53c0.24,5.68-2.36,10.98-7.78,15.91c0,0,1.6,0.6,4.81,1.8  c-0.95,5.67-3.92,10.81-8.93,15.41c14.34,1.71-0.48,16.01-6.74,20.87c14.34-3.1,10.74,6.5,3.74,13.99  c-13.79,14.77-22.39,5.03-24.64-11.31c-2.54,11.51-5.52,22.89-8.94,34.13c-3.15,5.98-7.08,12.59-13.33,6.24l-10.65-32.71  l-13.54,44.56c-2.03,1.81-3.73,2.88-5.61,0.72c-2.07-7.98-4.57-15.77-7.51-23.36l-10.19,28.16c-3.12,3.3-4.67,3.69-7.1-0.59  c-2.54-7.43-5.47-14.66-8.8-21.69c-3.04,5.76-4.92,12.15-5.62,19.15c-1.33,6.71-5.4,6.56-12.2-0.45l-14.24,40.51l-3.17,0.94  l-1.25,2.68c-24.04-0.04-48.11-0.08-72.21-0.12l-8.34-2.69l-4.98-0.89c-28.95-16.67-56.19-36-81.72-57.99c0,0-1.86-2.7-5.58-8.11  c5.04-5.05,11.41-9.02,19.11-11.89c20.2-12.82,41.24-23.95,63.11-33.4l139.24-49.87c29.7-14.85,59.08-30.35,88.13-46.52l12.34-14.49  c13.63-21.28,30.12-39.56,49.49-54.85c-14.39,1.06-28.72,2.66-42.97,4.8l-45.18,62.34l-3.09,2.68  c-48.3,23.2-97.37,46.09-147.2,68.68c-48.17,16.21-95.22,32.63-136.72,62.81l-5.66,0.57l-3.86,0.85  c-11.46-9.22-21.15-20.41-29.06-33.55c-11.42-13.2-25.35-23.77-41.8-31.71l-1.66-4.18c4.05-3.04,6.07-4.56,6.07-4.56  c47.71-10.85,93.62-26.2,137.71-46.06c14.46-9.73,29.55-17.65,45.26-23.76c20.28,0.19,30.34-10.32,36.16-28.69l2.98-3.94  c9.42-6.82,20.72-10.31,33.9-10.48c6.33-1.05,19.07-5.75,22.44-11.25c12.53-20.42,20.64-43.36,26.46-66.5l3.95-5.12l-1.79-3.96  c4.47-13.21,8.5-26.57,12.06-40.07c6.59-2.52,13.42-4,20.51-4.43l2.38,2.43l1.61-1.13c0.37-2.59,1.45-2.61,2.3-0.1  c1.5,3.4,2.25,5.11,2.25,5.11c-7.91,35.59-13.96,71.38-18.16,107.36c-0.64,5.7-2.68,9.96-6.14,12.78l-40.64,17.01  c-9.6,24.33-26.43,45.77-48.44,59.87c18.05-5.18,33.25-13.89,45.58-26.13c12.11-19.91,29.67-35.69,47.87-49.99  c10.01-39.47,18.61-79.16,25.8-119.07c-0.55-5.08,0.38-9.19,2.79-12.32c0.68-0.91,1.39-1.78,2.23-2.51  c4.15-3.61,31.3-8.03,38.77-8.71l6.02,1.66c2.63,3.66,2.38,7.65,1.55,11.91c-4.52,29.44-10.14,58.57-16.88,87.41l-7.32,18.98  c6.21-6.41,11.93-13.4,14.24-22.25c8.25-32.34,15.31-64.97,21.18-97.88c0,0,1.41-1.93,4.23-5.8l0.76-2.85  c20.11-3.42,40.23-6.85,60.35-10.27l2.02,2.37l1.9,4.57c-2.44,23.46-11.58,49.92-31.37,63.73c-2.21,2.48-4.5,5.7-5.79,8.73  c-2.45,5.76-22.07,56.6-19.15,57.49c3.69,1.13,42.53-5.02,43.56-6.98l41.81-118.74c3.24-27.6,6.14-55.19,8.71-82.77  c-7.52,1.59-11.79,0.34-12.81-3.77c8.15-5.87,20.79-9.78,30.83-9.41l2.52,1.3l-16.8,116.14c6.9-1.11,11.01-9.42,12.83-15.99  l26.83-121.36c0.78-1.55,1.99-2.93,3.66-4.14l2.09-3.94l16.78-7.21C1182.68,237.69,1187.63,237.26,1191.83,239.48z" />
<path class="cls-8" d="M1004.64,1082.19c3.87,2.05,0.57,8.18-3.17,9.08c-3.79,2.67-8.41,3.62-13.86,2.87  c18.58,2.19,37.13,4.02,55.64,5.5l1.37,2.55c2.28,0.9,4.6,1.9,6.95,3.02c26.27,2.8,52.73,6.47,79.38,11.03  c4.67-4.82,10.93-6.77,18.78-5.85c15.76,1.91,31.55,3.48,47.35,4.7l2.93,2.54v16.25l-1.08,2.62l-169.54-9.48  c10.21,4.23,20.71,7.79,31.51,10.67c9.92,2.19,16.59,7.29,20.02,15.33l42.32,6.94c1.39,1.88,0.56,3.65-0.81,5.47  c-22.05,0.49-42.84,1.29-62.37,2.37c21.46,2.72,43.41,3.23,65.85,1.53c22.78,0.28,46.39,0.9,68.6,6.38c1.01,0.25,1.93,0.9,2.87,1.59  c0.97,0.72,1.82,1.59,2.64,2.51v46.97l-3.11,3.69c-83.41,27.6-173.31,58.48-239.89,117.5l-4.6,1.03l-2.88,7.4  c-22.48,28.78-42.69,59.17-60.64,91.17l-90.08,36.41c-36.38,15.01-71.97,32.53-103.54,56.22l-7.83,2.67H562.49  c0.67-4.67,4.12-8.37,10.35-11.1l13.71-7.49l4.19,0.96l4.39-5.2c18.51-8.22,32.26-20.32,41.24-36.33c-0.13-3.23,0.78-5.42,2.74-6.58  c6.11-6.11,13.47-11.01,22.11-14.71c7.77-5.75,15.94-9.68,24.52-11.81l4.23,0.69c6.74,8,13.42,15.87,21.47,22.61  c9.29,7.79,25.35,11.19,35.67,3.62c10.77-7.89,5.35-14.63-3.84-20c-14.14-6.84-28.73-12.62-43.77-17.34l-0.28-1.73  c-11.42-0.56-16.23-6.3-5.75-14.62c2.49-1.98,6.74-4.73,9.61-2.76l2.06,0.08l18.6-12.33l3.39,1.13  c7.58-8.59,18.52-13.83,28.77-18.74c11.3-5.41,35.51-15.22,47.61-13.04c1.67,0.3,2.97,1.5,4.09,2.69l1.22-2.66  c7.01,1.61,60.2-4.33,58.34-12.29c-0.82-3.53-31.45-3.87-36.73-3.64c-5.02-3.34-1.83-4.97,2.53-6.09c-0.76-4.12,6.67-6.8,8.03-2.33  l2.87-1.22c-1.86-3.32-0.05-4.09,2.59-1.34l1.98-2.79c6.85,0.35,32.92-3.11,35.59-9.37c1.62-3.78-12.37-3.86-15.07-3.79  c-4.05-0.87-9.17-2.8-4.96-6.99l0.94-3.1c11.59-4.08,23.72-8.49,34.24-15c25.11-15.55,4.37-15.07-10.88-13.28l-31.7,4.84  c-2.19-1.02-2.55-2.93-2.07-5.26l24.21-27.5c-6.59,0.8-13.06,2.42-19.4,4.86c-18.87,4.52-9.92-14.48-3.62-23.47l51.85-55.53  c4.99-6.89-2.74-3.55-6.69-1.5c-22.59,14.44-43.6,31.04-63.03,49.81c-3.89,2.88-15.22,11.24-19.51,8.43  c-3.24-2.12-0.23-8.62,1.14-11.34c4.35-5.29,8.12-10.85,11.33-16.7c-8.39,4.59-16.1,10.4-22.93,17.1l-4.38,0.66l-3.73-1.19  l-9.44-12.06l-0.01-3.95c1.11-7.7,3.88-15.22,8.31-22.55l15.78-37.82l-1.9-3.26c2.96-8.1,4.9-16.38,5.82-24.86l2.66-2.6l2.75-2.77  c33.56-1.07,81.03-6.38,82.99-48.93l2.77-3.14l1.35-2.62c30.77,1.28,61.55,2.56,92.34,3.84L1004.64,1082.19z" />
<path class="cls-6" d="M590.62,886.57c2.04,4.29-2.1,4.91-5.93,5.23c-10.2-1.96-16.05,0.46-17.55,7.28l-3.46,1.11l-1.41,3.06  l-21.6,2.61l19.62,1.49l2.4,2.99l17.16,0.1c3.43,2.17,2.23,3.73-0.51,6c-17.64,2.52-35.44,4.13-53.38,4.84  c-5.49,0.73-10.54,2.61-15.16,5.63l-100.78,3.83l100.92,1.23c0,0,3.38,0.99,10.14,2.97c0.38,4.53-5.68,9.31-9.34,11.66  c-3.55,1.9-5.32,2.85-5.32,2.85c-30.86-1.08-61.31,0.8-91.35,5.64l72.85,13.48c2.27,3.49,2.62,5.18-2.17,6.53  c-19.06,4.42-38.31,8.57-57.68,11.31c-1.37,0.19-2.8,0.02-4.26-0.19c-1.49-0.22-2.95-0.62-4.4-1.07c-0.88,2.16-2.79,2.85-4.92,3.39  c-20.16-0.14-39.97,1.67-59.44,5.44c-5.96,4.87-13.32,7.33-22.06,7.37c17.37-0.89,34.59-0.33,51.69,1.7l5.08,2.11l8.51-2.1  l70.13,4.8c2.78,1.2,3.4,2,2.84,4.92c-1.01,5.34-20.82,9.57-25.88,10.07c-19.57,1.19-38.16,4.91-55.77,11.16  c2.09,2.02,3.85,4.15,5.27,6.39c1.88,3.32,0.34,4.56-2.84,5.86c-33.44,1.57-66.73-0.11-99.86-5.04c-9.58-3.62-5.34-8.08,2.75-9.26  c6.65,1.32,10.81,0.34,12.48-2.95c-42.86-1.15-87.25,2.59-129.2,7.12l37.71-2.7c8.52,5.54-2.36,10.46-8.12,12.12  c-0.28-0.16-43,6.11-38.95,6.26c59.64,2.28,119.49,1.6,180.01-0.56l17.73,0.85c8.38,1.4,11.65,3.83,5.43,10.08  c19.2,6.42,2.88,12.06-9.97,14.83l-15.56,5.72l-68.64,7.31l-1.85-2.5c-1.03,0.47-2.56,0.84-3.05,0.09  c-3.53-14.84-21.82-19.56-5.89-1.93l-0.31,3.05l-5.18,3.31c-25.72,3.36-51.88,7.91-75.38,19.36c14.44,1.95,28.95,3.56,43.54,4.82  c4.24,7.23,8.6,19.45-2.42,22.05l-15.09,3.73c-2.82,15.6-18.01,21.99-32.16,25.83c-10.87,3.18-21.78,5.87-32.72,8.07l-6.31,2.01  c-18.97-1.79-38.11-1.08-56.88,2.15c35.96,3.3,78.28,12.7,106.27,36.87c0.66,0.57,1.08,1.43,1.47,2.35  c0.42,0.97,0.66,2.01,0.86,3.07l-3.58,3.37c-23.72,2.51-46.25,8.39-67.6,17.65l-6.45,0.66c-0.06,1.11-0.51,1.94-1.47,2.4  c-10.01-1.86-20.19-3.62-30.41-3.88c-31.14-0.79-9.46,9.87,4.66,14.61c5.06,1.43,7.46,3.77,7.2,7.02c0.18,1.04,0.27,2.67-0.44,2.91  c-24.35,8.36-51.72,15.44-77.08,19.37c-2.47,4.09-14.2,7.05-17.54,3.22v-174.11l0.99-2.78l96.81-8.88c-5.24-5-6.79-9.96,1.47-12.6  l25.37-4.46c28.3-2.17,56.21-6.16,83.71-11.98c-16.93,0.01-33.83,0.98-50.69,2.91l-3.95-2.51l-1.84-2.31  c3.52-4.89,5.14-9.54,4.83-13.93l-56.1-5.74c-8.5-6.7,7.25-12.71,13.96-13.23c-37.93-1.29-75.6-2.02-113.02-2.17l-1.55-2.7v-6.7  l0.6-2.77l199.56-24.76c20-3.55,40.31-7.31,60.17-11.31c3.85-0.77,7.47-4.63,6.8-8.6c-10.17-0.73-17.77-4.04-22.81-9.92  c0,0,0.48-1.19,1.45-3.57c15.62-2.41,31.4-3.9,47.34-4.47l2.48-2.62l2.95-3.05l29.69-6.18c-13.36-1.1-26.78-2.03-40.24-2.81  l-1.42-3.23l0.89-3.68c8.17-3.79,16.69-6.65,25.55-8.57c-9.88-2.27-20.08-3.73-30.59-4.39c-2.81-1.48-1.95-3.31-0.34-5.76  l39.15-6.12l0.31-2.01l0.83-2.71l54.97-2.12l-79.77-1.75l-1.58-2.71c-5.53-4.15-1.65-11.56,4.49-13.89l87.67-7.55l1.83,2.53  l13.64,0.87c58.43-2.67,116.91-4,175.44-3.98l0.97,1.76C581.09,881.19,590.26,882.57,590.62,886.57z" />
<path class="cls-16" d="M863.97,1328.35l-1.45,3.17l-22.12,3.58c-13.75,2.92-12.81,5.29,2.82,7.13c5.68,2.05,10.37,6.61,3.2,9.05  c-0.92,0.05-1.9,0.78-2.59,1.34l-2.87,1.22c-2.93-0.5-5.46,1.94-8.03,2.33c-4.21,3.05-12.33,4.59-16.09,0.37  c-2.73,0.03-5.37,0.28-7.91,0.74c-17.16-2.97-33.67,4.18-48.33,12.42l-3.93-0.86c-4.96,5-10.48,9.17-16.56,12.52  c-3.53,3.05-6.5,3.72-8.93,2.01c-1.58,2.38-3.34,4.72-5.77,6.27c-8.63,5.5-35.14,20.09-43.53,21.52c-1.44,0.24-2.9,0.31-4.38,0.33  c-3.17,3.96-9.4,2.39-8.28-2.45c0.25-1.06,15.23-12.26,17.21-13.25l3.32,0.94l2.89-5.25c12.66-9.03,24.37-19.37,34.82-30.89  c6.96-7.67,20.7-23.38,24.06-32.4c1.54-4.14-29.4,10.27-29.86,11.57l-2.54-1.91c-4.99,4.62-10.33,8.87-16.02,12.74  c-28.47,32.38-65.77,51.61-106.98,64.49c-4.72,0.12-3.75-2.02-1.66-6.19c15.73-11.79,30.32-24.61,43.78-38.46l-60.23,27.41  l-151.95,55.66c-65.7,25.8-129.89,54.98-192.56,87.52l-7.26,1.81H178c3.63-2.3,7.3-4.54,11.06-6.62c3.75-2.07,7.51-4.1,11.41-5.77  c76.53-32.79,154.69-62.46,232.62-91.07c10.51-4.02,37.2-21.75,44.21-30.02c0.79-0.93-21.21,6.61-23.14,7.77  c-24.38,11.99-49.41,22.16-75.1,30.52c-20.23,4.93-10.18-6.55-2.49-14.81c-25.14,6.66-49.02,17.19-71.66,31.61  c-32.05,14.43-65.09,26.49-99.12,36.18c-5.25,1.58-5.51-0.59-0.77-6.5c21.85-11.54,43.54-23.32,65.09-35.35  c-35.25,7.61-69.63,18.56-103.15,32.84c0,0-2.56,0.01-7.69,0.04l0.07,2.83l-113.89,42.7c-4.08-2.63-4.17-4.16,1.06-7.06  c39.49-22.14,80.64-41.18,121.78-60.01c1.71-0.78,3.59-1.2,5.49-1.6c1.93-0.41,3.89-0.64,5.87-0.81  c11.51-9.58,26.39-15.47,41.41-15.76l0.37-2.93c44.84-13.81,89.82-28.34,134.95-43.57c28.28-8.64,57.51-12.96,87.72-12.96  l26.22-2.77c16.71-16.35,36.37-30.71,58.08-39.7c7.32-3.03,29.58-10.79,36.18-9.49c3.99,0.79,3.58,2.19,2.29,5.81  c-10.68,5.1-19.88,11.61-27.61,19.55c25.88-7.96,52-14.38,78.37-19.26c3.68-1.2,7.91-3,10.88-5.55c7.6-10.91,16.93-19.51,27.99-25.8  c8.18-5.5,12.39-5.4,12.64,0.32c-0.66,0.39-11.24,12.8-9.46,12.66c8.03-0.6,19.04-7.04,25.5-11.74  c19.74-18.96,40.3-36.13,67.57-44.41c3.96-5.31,6.97-6.6,9.02-3.86l3.17-2.69c13.89-3.44,25.57-11.58,35.05-24.42l3.46,0.21  c8.05-8.61,18.75-16.67,30.44-22.5c0.94,13.24-14.01,17.52-14.6,31.18c12.69-3.15,21.79-13.41,31.25-21.81  c6.99-6.21,54.08-47.71,60.79-38.89c1.34,1.77-0.07,5.49-1.79,7.31l-45.21,47.9c-7.17,7.59-14.67,16.42-13.46,27.6  c11.56,0.67,21.41-8.63,33.2-4.9l-28.39,31.97c11.11-0.1,52.95-11.68,56.91-2.7C918.29,1309.35,873.56,1325.46,863.97,1328.35z" />
<path class="cls-3" d="M85.61,451.28c3.54-17.04,6.75-34.19,9.63-51.44c2.03-3.64,3.49-2.01,6.03,1.19  c2.75,17.4,7.38,34.08,13.9,50.02c7.82,9.75,7.95,14.7,0.38,14.86l10.87,13.03c-0.11,6.34-5.95,5.02-10.78,3.51  c5.86,7.43,12.35,14.28,19.48,20.57c0.79,6.03-3.82,7.45-13.85,4.29c-3.35-0.65-3.18,0.71,0.5,4.09l-1.1,3.05l4.94,3.36  c2.41,2.6,18.61,21.78,18.98,23.23c2.04,7.9-14.73,4-18.82,1.41c5.79,11.17,13.22,20.84,22.31,29.01l1.9,4.56  c6.63,3.89-0.01,8.11-6.86,7.39c-11.3-4.19-12.4-2.66-3.29,4.59c5.34,4.01,10.26,8.11,14.76,12.31c4.77-6.03,8.77-12.5,12.01-19.41  c-14.18,1.76-5.87-8.06-0.14-13.75c4.57-4.78,4.43-7.1-0.43-6.96l-1.13-2.98l-1.64-2.85l6.96-9.35c-2.43-4.28-2.37-4.63-1.46-9.39  c0.76-3.96,5.52-14.88,9.27-15.89c-0.72-4.53,0.27-16.99,2.02-20.81c2.11-4.6,3.62-4.72,6.37-0.1c2.26,13.42,7.04,25.04,14.35,34.88  l-0.11,3.31c0.92,1.96,0.22,3.69-2.09,5.2l6.36,13.19l-1.61,2.84c-1.4,2-3.22,2.96-5.44,2.89c3.08,5.7,6.92,10.89,11.51,15.59  c0.86,5.84-3.63,6.46-8.41,4.95c4.88,8.83,11.51,16.54,19.88,23.13c0.42,6.05-4.22,7.89-13.9,5.5c4.41,6.58,9.85,12.31,16.32,17.19  c2.48,8.16-7.44,8.8-13.52,6.33c5.35,6.54,11.52,12.33,18.51,17.36c1.85,8.42-9.37,7.11-15.42,6.02  c6.28,6.68,13.35,12.53,21.22,17.56c2.3,5.82-3.29,6.68-7.95,6.76c-10.57-3.27-8.99-0.62,4.75,7.95c6.34,6.73,4.1,10.8-4.79,10.88  l8.85,6.49l-0.22,3.21c2.15-0.15,2.82,0.17,3.4,1.9c2.55,7.63-9.68,8.75-14.72,5.55c-0.28,2.89-1.53,4.33-3.74,4.32l-3.67,1.64  c-13.33-6.41-25.82-14.49-37.48-24.26C121.99,669.2,64.37,640.69,5.67,613.68L0,609.38V360.27c1.45-12.38,3.42-24.68,5.89-36.9  c2.64-3.36,4.02-5.02,6.18-1.22c3.13,27.26,11.33,52.38,24.59,75.36c10.93,12.17,4.45,16.42-8.24,12.15  c5.95,9.69,12.8,18.72,20.55,27.11c1.5,9.2-9.44,5.78-15.18,2.7c4.83,17.19,17.58,32.07,30.51,44.53c0.94,1.16,1.62,2.25,1.4,3.12  c-1.71,6.9-18.14,2.71-22.94,0.74c7.32,10.44,15.56,20.03,24.72,28.77c2.75-4.68,5.72-9.43,8.91-14.26  c-4.91,2.1-11.55,1.63-9.98-4.83c7.73-8.13,13.41-17.25,17.02-27.38c-4.86,2.06-8.62,1.21-7.92-4.67  C75.74,463.57,82.48,450.57,85.61,451.28z" />
<path class="cls-1" d="M1200,1369.99v172.86H863.71l2.06-3.08c16.06-8.52,32.62-16,49.68-22.45c-18.05-4.25-36.44-6.39-55.17-6.41  c-4.98-1.98-1.78-4.75,2.29-7.59c20.11-14.05,54.46-11.19,76.49-3.08c-8.68-15.45-27.3-24.89-44.48-29.99  c-3.46-1.59-5.08-2.88-2.3-5.58c9.36-9.07,45.25,1.78,54.48,10.48c-5.9-15.73-16.54-29.17-27.39-41.87  c-2.64-5.62,2.74-5.02,7.65-3.7c16.71,4.49,31.59,25.32,39.59,39.77c-2.49-21.36-7.5-42.23-15.03-62.6  c-0.82-11.77,6.65-3.77,12,2.21c17.48,19.52,23.65,47.91,27.4,73.12c2.49-9.63,14.61-41.59,24.82-43.48  c2.95-0.54,3.85,0.84,4.69,3.62l-10.47,41.45l38.64-12.34c-8.29-3.29-16.83-6.07-25.62-8.36c-2.78-2.57-3.95-3.87-0.84-6.26  c11.17-8.61,50.84-2.1,64.4,1.06c-9.11-25.41-24.81-47.74-43.72-66.83c-6.53-9.64-0.28-7.95,8.74-4.55  c26.03,9.81,49,32.1,65.83,53.68c-4.04-26.49-14.28-52.14-27.69-75.41l-0.92-6.68l-4.72-2.47c-14.76-19.93-22.14-29.9-22.14-29.9  c-5.46-10.11,1.39-7.07,9.58-2.83c30.68,15.88,54.99,45.23,68.57,76.64c-2.1-35.04-10.77-69.38-24.11-101.82  c-1.2-6.2,0.55-5.76,6.36-2.84c4.63,2.33,15.73,18.92,19.1,24.42c3.66,5.99,13.95,25.22,14.06,31.05c0.03,1.8-0.29,3.46-1.26,5.01  l2.99,0.69l3.83,13.08c-0.05-6.69,1.73-11.64,5.35-14.84l-1.33-5.79c1.72-6.88,3.51-13.74,5.53-20.54  c2.53-8.52,10.91-34.95,16.04-39.93c2.54-2.46,3.9-2.2,6.24,0.11l-9.38,106.35c3.24-8.38,7.37-16.27,12.36-23.69L1200,1369.99z" />
<path class="cls-16" d="M301.65,1197.62l5.69,1.69c4.29,5.11,9.02,9.71,14.22,13.81c-2.4-5.26-4.7-10.57-6.92-15.92  c0,0,0.8-0.65,2.4-1.96c0.89-4.08,4.23-4.33,5.73-0.44l7.66,2.68l17.88,19.29c3.44,3.79,7.33,5.51,11.68,5.16  c-2.92-4.66-6.38-9.13-10.35-13.41c-3.65-5.88-4.46-11.15,3.94-9.5c2.61-3.14,8.3-0.13,7.84,3.71c4.04,1.55,15.54,8.61,15.61,12.64  c0.01,0.62-0.27,1.25-0.62,1.88c2.48,0.09,4.61,1.82,6.39,5.21c1.52,1.76,3.16,2.73,4.92,2.92c1.37-7.56,3.49-7.91,10.32-5.15  c5.1,2.06,16.97,8.65,14.71,14.47c2.59,3.06-3.02,6.55-5.69,3.81c-6.73,3.44-14.09,6.05-22.08,7.84l-25.69,10.95l-9.47,1.44  l-0.5,1.74c-4.51,1.58-9.22,2.91-14.14,4l-3.54,3.9c-13.34,6.09-27,10.96-41,14.61l-1.69,3.43c0,0-6.08,1.87-18.25,5.6l-0.16,2.94  c-19.74,7.75-39.5,15.46-59.29,23.12l-6.46-0.29l-2.46,1.8c-12.85-8.63-20.7-7.07-23.54,4.69l-3.4,0.13l-3.66,4.02  c-10.93,0.94-20.29,4.22-28.11,9.84l-3.11-0.3c1.17,2.77,1.42,5.94,0.78,9.51c1.31,4.31,1.1,7.74-0.63,10.3l-7.38,3.06  c-42.38,4.63-84.15,12.91-125.3,24.83c0,0-2.65-0.28-7.96-0.84v-53.57l1.92-2.83c9.15,0.29,17.75-1.18,25.82-4.4  c-8.44-3.95-17.38-6.72-26.8-8.32L0,1312.5v-22.77c5.88-0.7,11.62-2.86,17.54-3.22l18.28-2.66l44.62,2.77  c15.26,0.26,37.89-3.11,15.15-18.84l-0.54-3.55c-12.66-8.74-31.6-10.31-30.48-19.37c1.27-10.26,47.29-1.71,50.5-0.78l4.83-0.98  c15.6,5.99,31.29,11.79,47.06,17.38c-5.73-8.29-5.89-13.62-0.48-16l39.67,4.96c2.93-8.74-1.77-16.76-14.09-24.07l0.63-2.98  c-34.25-29.62-81.24-39.26-127.52-40.67c26.29-7.44,54.94-9.1,82.11-5.79c10.27-1.62,20.76-0.19,31.46,4.31l34.76,12.63l3.88,4.39  l9.86,1.4c17.56,10.08,34.69,20.79,51.4,32.13c-3.51-12.35-10.16-23.38-19.93-33.1l0.87-3.29l-4.29-1.32  c-13.99-14.64-28.41-28.74-43.27-42.31c-3.78-6.18,0.2-11.47,6.66-10.2c23.02,4.52,63.66,34.93,80.81,51.73L301.65,1197.62z" />
<path class="cls-16" d="M1200,132.17v104.91c-1.09,3.23-6.01,5.94-8.17,2.4c-11.96,2.02-23.04,7.42-33.75,12.43  c-2.79,3.93-7.05,6.83-12.75,8.7c-2.78,3.03-5.57,4.59-8.36,4.66c-1.3,1.38-2.74,2.28-4.34,2.68l-496.81-0.28  c-2.27-3.07-3.22-4.47,1-6.02c37.03-5.53,74.31-9.07,111.83-10.61l58.92-9.29c20.78-3.96,41.38-4.53,61.81-1.71  c18.27-45.42,72.12-57.6,110.44-27.57c20.28-56.14,85.8-66.34,129.23-29.7c8.64-17.52,21.89-32.34,38.97-41.91  c10.99-6.15,35.76-14.28,47.94-11.57C1197.64,129.67,1198.91,130.92,1200,132.17z" />
<path class="cls-3" d="M922.73,913.19l8.3-2.21c18.56,0.92,37.11,1.87,55.64,2.85l1.45,2.76l1.43,2.54l-7.73,10.2  c16.09,2.82,32.43,4.25,49.03,4.28l4.37,2.92l6.17-1.44c97.6-0.24,146.4-0.35,146.4-0.35s4.07,0.92,12.21,2.76v86.02l-1.21,2.69  l-20.48,0.24l20.22,1.16l1.46,2.76v49.03l-1.38,2.48c-50.93-8.82-101.87-17.64-152.82-26.46l-1.16-2.92l1.18-2.71l76.87-2.14  c-30.82-2.65-61.52-6.11-92.1-10.38c-5.17-1.16-22.6-5.06-23.67-9.77c-0.9-3.98,6.72-4.78,9.7-4.63l-34.43-9.26  c-2.71-3.56-2.72-5.43,1.9-6.81c0,0,8.43-1.82,25.28-5.47c-20.4-4.55-41.18-7.7-62.32-9.45c-5.84-2.49-5.08-9.95,0.64-12.11  c-16.08-3.28-32.22-6.35-48.42-9.2l-3.33-3.66c-0.48-1.09-0.75-2.72,0.1-3.16c5.78-0.81,11.19-2.33,16.25-4.57l7.81-0.26  c0.46,0.55,0.83,0.92,1.34,0.28c34-2.27,68.04-1.48,102.13,2.37c21.46-0.46,42.74,0.86,63.84,3.97c4.21-1.52,4.3-3.16,0.27-4.92  c-1.52,1.09-3.23,2.23-5.16,2.22c-26.04-0.19-52.21-0.55-78.17-2.73c-54.36-10.27-110.01-15.49-164.81-19.83  c-4.04-0.4-14.35-3.08-12.13-8.13l2.16-3.14c27.49-1.54,55.15-1.56,82.98-0.07c-92.77-4.67-139.15-7.01-139.15-7.01l-15.34-2.95  c-3.84,7.06-13.61-4.48-5.27-5.75l4.95-2.8c47.87-1.21,99.72-2.43,150-0.61c2.51,0.09,5.01,0.64,7.54,1.21  C917.77,911.6,920.25,912.36,922.73,913.19z" />
<path class="cls-3" d="M518.07,870.39l-2.33,3.22c-12.65,1.63-25.18,3.77-37.6,6.44l-1.28,2.82c-28.24,2.91-57.64,5.59-86.89,3.67  l-82.84,7.12c-3.28,0.28-7.23-0.13-9.15,2.19c-2.06,2.49-1.9,6.51-2,9.6l-2.51,2.89l-16.41,0.27l43.1,3.34l1.36,2.79  c0.99,1.23,3.57,0.67,4.36,3.59l-44.93,7.44c13.74,1.75,27.51,2.07,41.84,6.53c-12.25,5.54-25.79,6.03-36.25,12.98l-1.11,2.73  c-20.4,1.48-40.63,2.11-60.69,1.88l-0.99-1.61l-3.68,2.81l-37.26,0.22l34.17,1.81c0,0,1.74,1,5.23,3l9.83-1.86  c19.38,2.91,38.83,4.25,58.36,4.01l5.16,2.27c0.31,1.29,0.68,3,0.05,3.89c-1.19,1.7-3.28,0.88-5.07,1.05l-44.39,4.21  c5.99,9.4,15.94,4.82,22.97,9.81c2.91,5.12-2.98,12.39-9.3,12.98c-21.28,2-40.58,8.9-61.84,11.53L0,1028.57V981.7  c14.31-1.24,28.72-1.41,43.24-0.49l-42.3-0.82L0,979.02v-2.68l2.65-3.39c14.31-1.35,28.63-2.52,42.96-3.52l-1.17-3.1  c-4.42-4.77-4.93-8.36-1.54-10.79l36.05-6.45c3.2-7.18,12.24-9.4,19.7-9.84c-2.18-4.91,1.18-7.48,10.09-7.72l4.04-2.21l2.89-3  l32.2-2.06c-11.58-7.86-23.01-15.86-34.31-24l-3.54-4.32l1.18-2.7c24.04-0.49,48.09-0.99,72.15-1.48l1.66,2.65l3.43-2.7l25.69-0.04  c-3.98-1.62-5.84-3.92-5.57-6.9c-4.12-2.66-0.45-5.1,3.31-6.25c19.93-2.06,39.93-2.51,60-1.34c15.94-2.49,32.24-3.21,48.93-2.17  c16.6-1.31,32.91-1.02,48.93,0.87c-0.19-2.46,1.32-4.49,4.53-6.1c45.1-1.49,90.43-2.15,135.97-1.99L518.07,870.39z" />
<path class="cls-12" d="M219.66,721.83l4.85,1.51c19.75,18.13,41.54,33.94,65.38,47.45l2.18,4.77l5.06,0.2l14.1,7.94  c23.29,9.03,47.49,15.38,72.59,19.04c3.82,0.36,5.83,1.97,6.04,4.84l5.25-0.76c15.52,6.3,31.04,12.59,46.57,18.89l0.46,3.08  c6.11,0.4,11.77,2.68,17,6.83c3.82,0.93,6.14,2.67,6.94,5.23c5.5-3.11,15.61,4.05,16.19,9.4c-0.97,1.32-2.08,2.81-3.71,3.34  c-14.34,4.65-38.71-0.48-52.88-5.15c-19.5-8.63-39.53-15.73-60.1-21.28c-41.51-4.75-77.92-19.02-113.08-41.36  c-20.89-10.64-47.17-22.65-70.69-24.4c-2.79-0.21,19.78,17.61,24.1,18.21c42.79,21.61,85.65,43.61,128.57,66  c9.55,4.32,17.19,10.22,22.93,17.71c-2.6,0.13-5.19,0.21-7.78,0.08c-2.58-0.13-5.13-0.27-7.57-0.84  c-46.22-10.9-89.71-25.14-134.47-40.46c-11.42-3.91-22.9-11.44-29.46-21.5c-4.22-11.48-10.74-20-19.56-25.55  c-42.04-11.88-84.41-22.81-127.12-32.81c-3.69-2.22-7.39-4.87-2.03-7.14l1.19-2.56c0,0,17.83,1.94,53.49,5.82l5.56,3.3  c1.63-2.25,4.79-2.83,9.48-1.74c-12.59-13.75-27.52-24.9-44.8-33.44L2.06,679.22C1.01,678.15,0.32,676.75,0,675v-65.62  c57.41,23.73,112.77,53.37,168.94,81.07C187.94,699.81,201.33,716.68,219.66,721.83z" />
<path class="cls-9" d="M1200,1226.79v143.21c-9.58,11-12.76,25.86-20.4,39.38l10.8-122.49c-12.11,21.15-18.23,44.18-23.9,67.3  c-1.19,2.31-3.34,2.39-6.47,0.25c-2.18,2.34-4.08,2.61-5.71,0.82c-6.55-22.36-18.16-44.23-37.3-61.97  c17.07,39.76,26.06,80.43,26.38,122.35c-13.72-42.24-42.09-76.51-82.83-95.43c11.73,11.97,20.17,24.75,28.31,37.8l-2.04,3.43  c-22.84,9.3-63.65,25.76-87.6,23.9c-8.19-0.64-16.07-2.8-23.17-7.01c-6.9-4.1-21.69-17.29-23.92-24.56  c-0.49-1.59-0.25-3.21,0.25-4.76C997.33,1298.67,1133.75,1245.7,1200,1226.79z" />
<path class="cls-3" d="M719.12,1337.87c0.33,0.9,0.61,1.8,0.72,2.72c1.31,11.52-37.56,48.51-48.21,55.76  c-3.12,2.13-6.25,4.16-10.09,4.69c-1.02,1.7-2.09,3.37-3.31,4.91c-1.21,1.53-2.43,3.01-3.89,4.18  c-20.65,16.39-42.7,31.03-65.02,45.02c-40.56,23.43-79.86,48.68-117.89,75.73l-4.98,1.37l-3.29-0.86  c-4.5-9.18-11.93-10.82-21.31-11.27l-42.09,2.41l-2.1-2.56c7.82-8.54,17.39-15.39,28.72-20.56c34.14-18.49,68.54-36.5,103.21-54.03  c-75.78,27.55-149.84,59.91-222.4,95.05l-8.57,2.43h-72.38c66.4-35.12,135.56-68.69,205.67-94.35l145.07-53.11l70.07-31.89  c-13.6,21.75-35.46,32.31-53.49,49.97c29.44-10.89,61.89-22.41,85.93-43.66C693.3,1357.59,702.5,1343.55,719.12,1337.87z" />
<path class="cls-12" d="M1200,687.18v32.25c-4.85,5.74-11.64,9.79-20.37,12.14c-19.17,7.06-38.17,14.55-56.99,22.47  c-35.6,20.32-72.27,38.26-109.98,53.81c-32.96,19.58-24.38,25.32,25.75,17.22c11.87,2.11,11.09,11.33,4.47,19.14  c-20.11,23.72-98.09,43.16-128.87,40.63c-16.95-1.4-18.42-7.64-0.87-14.11l-64.76,23.6c-15.94,5.5-35.69,8.67-52.08,3.67  c-7.33-2.24-16.91-5.37-6.29-9.2l2.68-2.06c2.46-3.23,3.69-4.84,3.69-4.84c24.81-10.4,50.6-20.13,76.79-25.9  c1.63-2.32,4.51-3.69,8.66-4.09c5.76-3.35,11.87-5.49,18.32-6.43l4.21-4.98c33.28-16.46,64.15-38.51,87.81-67.31l5.74-2.97  c0.47-1.15,0.99-2.27,1.66-3.29c0.65-0.99,1.29-1.94,2.16-2.54c25.75-17.92,52.16-32.23,81.73-42.83  c36.58-13.12,74.43-25.82,112-35.08L1200,687.18z" />
<path class="cls-7" d="M89.65,741.64c-11.04-7.24-21.85-14.96-32.43-23.17c-2.12,12.36-11.31,7.98-15.69-0.55  c-2.04,2.08-4.71,3.32-7.98,3.72c-0.72,6.02-5.78,8.09-15.17,6.22l-4.49,0.94l14.19,3.39l1.34,2.9c-0.13,1.39-0.05,2.96,1.05,3.83  c0.94,0.74,2.04,0.77,3.78,1.21l113.91,28.44c40.19,10.04,13.72,34.18,63.49,52.19c48.21,17.44,96.55,31.64,145.77,42.56  c4.37-3.39,16.59,8.12,12.33,12.55c-32.54,2.2-65.25,2.19-97.86,1.3l-4.44-0.08c-43.49-15.35-86.32-32.35-128.49-51.01  c-15.83-9.81-32.17-18.55-49.03-26.2c-28.06-7.56-56.35-14.77-84.85-21.63L0,775.45V675c26.44,15.16,89.49,41.24,104.01,67.5  C99.32,743.51,94.42,742.16,89.65,741.64z" />
<path class="cls-7" d="M1200,763.51c-1.45,1.45-2.93,2.87-4.54,4.13c-1.59,1.25-3.17,2.48-4.92,3.32  c-26.46,12.73-53.22,24.97-80.56,35.68c-35.74,48.76-94.55,74.71-149.9,91.28c-10.09,3.87-19.93,8.4-29.54,13.59l-7.82,1.68  c-42.8-2.22-86.03-1.93-129.73-0.9l-40.23,0.94c-1.33-1.98-0.93-3.05,0-4.76c4.2-7.75,27.79-20.14,36.53-23.02l3.39,1.28  c-1.33,2.47-3.9,3.81-6.54,4.39c23.67,12.09,48.56,5.77,72.31-3.2c36.71-13.87,72.8-26.7,111.49-38.47  c-19.45,16.25-45.63,15.86-68.08,29.98c31.12,13.95,151.38-23.8,142.57-48.14c-1.21-3.33-6.62-4-10.49-3.48l-30.98,4.14  c-3.91,0.52-14.7-2.09-12.41-8.18c4.02-10.69,17.11-17,27.75-21.22c28.57-11.34,54.46-23.78,80.9-39.33  c35.39-20.82,67.26-26.78,100.8-43.76V763.51z" />
<path class="cls-6" d="M163.38,1408.42l4.2,0.74c8.48,11.99,18.23,22.69,29.24,32.08l1.25,4.04c0.15,0.97,0.24,1.93,0.16,2.88  c-0.54,6.42-13.02,15.84-18.57,19.57c-45.95,21.9-92.86,42.01-136.67,67.56l116.29-43.6c3.98-1.23,6.24-0.5,6.79,2.18  c-10.09,13.93-17.59,29.05-22.5,45.35l-3.58,3.64H0v-50.89l1.38-3.41l104.36-40.46l-63.35,16.95c-5.32,0.09-5.33-1.01-3.62-5.91  c1.58-4.54,22.59-14.12,28.13-16.16c29.24-13.12,63.9-25.35,94.27-35.81C162.09,1406.85,162.82,1407.43,163.38,1408.42z" />
<path class="cls-7" d="M6.7,69.27l1.66,4.57c2.47,59.26,7.45,118.88,13.27,177.95c0.45,4.56,9.84,10.75,13.84,12.75l0.69,3.26l2.4,2.9  c5.58,2.3,12.79,10.19,4.11,12.31l-2.76,1.59l-8.65-3.16l25.76,33.32c10.75,35.84,19.72,72.31,26.91,109.42  c2.93,9.21,3.5,18.24,1.69,27.1c-2.4,5.19-4.64,10.6-8.48,16.45c3.67,2.7,4.85-1.69,9.93-2.25c-1.61,13.36-10.09,23.82-19.37,34.31  c4.94,3.06,8.25-1.16,14.01-3.16c-2.79,8.18-7.34,15.25-14.22,22.19c-12.53-9.83-22.79-22.02-31.93-36.31  c9.84,3.28,19.32,7.71,28.49,4.75c-16.21-14.36-28.71-31.83-35.53-52.16c7.65,0.97,11.59,6.55,19.44,4.45  c-9.95-11.43-19.76-22.18-26.04-37.07c6.21,3.06,10.74,8.15,19.12,5.27c-20.6-24.42-26.31-54.77-31.66-86.84  C5.11,334.55,5.41,348.28,0,360.27V66.96C0.99,61.81,7.56,64.64,6.7,69.27z" />
<path class="cls-2" d="M271.88,877.17c-10.64,6.01-63.96-2.3-63.32,7.59c-0.42,3.18-0.76,2.93-2.31,0.27l-4.14-0.09  c-10.97-9.35-24.55-13.07-38.74-13.91c-0.98-2.59-2.33-4.08-4.06-4.47c-19.13-17.98-49.51-22.73-74.67-18.23l-4.72-1.35l0.5,3.08  c-3.97,5.89-7.39,12.28-10.25,19.15c0,0-1.08-0.02-3.25-0.05l-4.93,0.21c-17.64-9.71-37.85-13.27-57.82-13.55L0,853.12v-77.68  c27.15,5.1,54.01,12.17,81.08,18.92c23.75,5.91,39.97,19.75,60.88,30.23C184.07,845.7,229.97,857.53,271.88,877.17z" />
<path class="cls-3" d="M178,1542.86h-38.03c3.71-18.02,12.53-34.44,23.88-49.23c-1.16-1.94-3.32-1.62-4.58-1.94  c39.33-14.75,78.81-31.4,123.28-38.39c-25.06,19.39-54.51,28.95-80.64,46c33.58-11.77,66.88-20.09,98.14-35.38  c26.86-13.14,50.9-31.39,83.12-34.76l-14.99,17.92c40.06-5.69,83.8-38.77,119.69-42.21c-19.86,14.97-37.73,31.53-59.55,39.32  C343.08,1474.64,260.2,1508,178,1542.86z" />
<path class="cls-4" d="M1200,937.5c-54.96-0.63-110.08,2.39-164.78-0.97l1.04-4.08c10.32-11,21.67-20.06,34.04-27.18  c10.61-3.24,20.83-7.33,30.65-12.26l-51.07-5.55l-1.27-2.83c-5.38-2.93,2.91-11.12,7.12-9.23l2.7-2.34  c19.68,2.01,39.38,3.94,59.08,5.8c15.93-0.33,31.56-6.53,44.07-16.28l35.49-29.2l2.93,1.06V937.5z" />
<path class="cls-6" d="M1037.84,1051.38l5.47,1.06c0.5-1.18,0.95-1.16,1.34,0.06L1200,1079.4v38.23c-22.71,1.59-48.51-9.31-66.34-2.04  c16.61,6.68,33.68-0.3,49.2,8.78c-30.36,0.5-58.57-7.69-87.42-11.16l-43.45-5.23c-3.66-0.44-7.59-2.36-7.38-5.79l-0.16-2.46  c-13.68-0.43-27.18-2.01-40.51-4.75l-2.47-3.72c0.17-3.32,2.55-5.88,3.17-9.08c0.26-1.06,0.68-2.62,1.5-2.71  c12.38-1.37,30.56-1.22,43.22-0.77c0.96,0.03,1.6,1.35,2.01,2.43c3.6-2.27,7.65-2.53,11.79-2.27c-2.97,0.19-5.75-0.05-7.9-2.26  c-2.16,2.11-5.02,2.77-8.59,2c-4.79-0.09-13.49-0.45-16.48-3.49c-1.14-0.92-1.74-1-3.24-0.94c-1.73,4.3-8.41,3.32-9.06-1.21  c-3.04-1.31-6.26-2.17-9.65-2.59c-0.35,4.14-7.5,3.03-9.18-0.11c-13.8,2.25-13.49-8.75-1.04-11.84c-3.61-0.48-5.39-2.04-5.33-4.67  c-8.55-2.02-12.82-3.03-12.82-3.03l-0.73-2.08c-2.22-0.99-2.71-1.9-1.47-2.73l6.07-1.69c17.23,1.62,34.34,3.33,51.36,5.14  L1037.84,1051.38z" />
<path class="cls-6" d="M140.64,1357.77c2.16,2.09,4.32,4.3,5.62,7.05c4.82,10.21,9.59,20.83,14.04,31.21c1.2,2.79,1.41,5.88,1.54,8.88  l-6.65,3.91c-49.58,17.37-98.78,35.73-147.58,55.08L0,1465.18v-38.84l0.8-3.02l107.03-31.09c-33.54,2.53-66.87,6.83-100.01,12.88  c0,0-2.61-0.51-7.83-1.54v-18.75C46.42,1373.83,92.71,1359.61,140.64,1357.77z" />
<path class="cls-3" d="M153.72,1075.34l-2.02,2.78c-38.43,6.49-76.84,14.03-115.22,22.63c-11.87,2.74-23.55,3.83-35.05,3.25L0,1102.23  v-66.96l70.97,0.85c21.35,0.26,42.01,0.04,63.09,3.35c-12.14,4.68-26.12,0.31-34.78,11.07l56.6,5.69  C164.96,1057.14,156.32,1069.88,153.72,1075.34z" />
<path class="cls-2" d="M1200,763.51v45.5l-3.87,2.85c-22.66,3.72-44.52,11.01-65.6,21.88c-20.38,5.91-39.36,14.22-56.94,24.91  l-7.59,6.88c-2.87,4.81-6.3,8.09-10.26,9.86c-1.62,3.04-7.33,4.63-7.12,9.23c-0.7,2.19-2.57,3.2-5.63,3.04  c-18.48,7.39-35.8,17.48-51.98,30.27l-2.88-1.36l-65.4-3.4c48.55-28.94,59.68-18.15,116.64-50.59  c26.95-15.35,51.23-32.32,69.09-58.07C1140.08,791.98,1169.95,777.76,1200,763.51z" />
<path class="cls-6" d="M1200,1133.88v45.94c-31.55-8.24-63.22-8.13-96.36-7.61c-18.44,0.29-38.95,3.75-56.07-7.11l75.97-2.39  l-45.47-7.44c2.13-17.25-50.11-18.2-56.18-31.55L1200,1133.88z" />
<path class="cls-3" d="M632.23,1466.9l-3.51,4.72c-10.83,5.87-21.35,12.26-31.57,19.15c2.23-0.95,4.03-0.61,5.4,1.03l2.02,3.8  c-2.14,11.58-6.75,21.46-13.85,29.63c-9.96,4.7-20.69,10.53-28.24,17.63h-90.64c0.11-1.06,0.26-2.1,0.59-3.09  c3.49-10.35,47.76-34.91,59.59-41.41c32.59-15.62,64.15-32.97,94.67-52.07c3.2-1.94,4.54-0.41,6.05,2.53  C630.46,1455.36,630.28,1461.38,632.23,1466.9z" />
<path class="cls-12" d="M1200,809.01v25.41l-36.74,30.23c-12.58,10.35-33.89,18.27-49.47,16.67l-58.06-5.94  c13.63-25.51,41.75-32.33,68.33-42.05C1149.18,824.16,1172.07,809.54,1200,809.01z" />
<path class="cls-12" d="M66.92,869.16c0.66-0.87,1.74-2.04,2.18-1.8c10.64,5.8,30.57,17.23,39.46,24.52c1.95,0.72,1.92,1.99,1.47,4.07  c14.97,9.3,29.97,19.27,45.48,29.74c-16.26,3.31-29.08,1.99-42.73,3.63c-3.86,3.7-14.69,4.62-17.65,0  c-26.01,0.17-44.29-16.34-61.01-33.71c-8.79-8.22-19.82-13.58-31.59-16.37L0,875.89v-22.77C23.05,852.91,47.24,856.94,66.92,869.16z  " />
<path class="cls-8" d="M689.75,1396.75c-5.86,3.93-10.93,9.4-18.66,12.86c2.75,3.65,4.57,1.32,6.41,1.89l0.54,3.8  c-7.22,7.66-15.28,14.4-24.2,20.22c9.17-0.18,16.68,2.52,22.54,8.11l-1.21,2.96c0.43,0.94,0.91,2.42,0.32,2.81  c-7.87,5.22-31.34,15.83-40.66,19.23l-2.58-1.74c-7.79-1.87-2.93-10.16-1.96-19.89c-47.75,34.34-119.45,56.74-158.42,95.85h-12  c-3.75-1.83,2.77-12,6.61-10.61c31.5-22.58,62.25-45.31,96.91-64.9c34.95-19.76,67.38-41.66,98.17-66.31  c6.03-2.15,11.8-4.93,17.32-8.32C684.05,1390.59,691.41,1389.22,689.75,1396.75z" />
<path class="cls-16" d="M397.66,1519.96c-3.1,4.47-7.65,7.91-13.65,10.32c-7.44,5.79-15.38,9.98-23.83,12.57h-61.56  c82.66-43.15,169.3-78.43,259.18-110.36C504.09,1463.99,448.24,1487.01,397.66,1519.96z" />
<path class="cls-1" d="M112.78,929.31c-0.95,6.21-8.53,4.54-13.71,7.03c16.14,10.68-10.47-0.74-18.71,14.83l-38.16,7.22  c2.9,4.02,8.7,10.92,4.67,13.47c-16.04,3.18-32,0.42-46.87,4.48V930.8l1.19-2.7c25.21-0.39,50.48-0.79,75.83-1.19l18.11,2.4  C100.8,929.22,107.41,929.96,112.78,929.31z" />
<path class="cls-16" d="M161.84,1404.9c3.76-0.4,4.43,1.1,1.54,3.51l-84.23,32.74c-14.37,5.59-30.01,10.51-40.66,22.08  c36-7.96,67.59-20.02,101.11-25.39L0,1491.96v-26.79C53.02,1442.68,106.7,1421.68,161.84,1404.9z" />
<path class="cls-8" d="M0,1115.62v-13.39c38.21-0.12,124.4-25.95,153.72-26.89c22.13-0.71,45.46-6.17,68.79-1.25  c-42.56,13.65-84.91,10.74-125.35,20.54c-2.62,0.63,0.55,6.94,2.42,6.87c2.35-0.09,6.2-1.09,8.63,4.22L0,1115.62z" />
<path class="cls-4" d="M95.13,929.31L0,930.8v-54.91C49.18,886.67,37.32,916.35,95.13,929.31z" />
<path class="cls-12" d="M1200,237.07v66.94l-16.52,59.74c-3.12,11.3-7.75,22.8-18.94,28.8c2.28-22.04,5.68-41.64,8.97-61.42  l12.63-75.86c1.01-6.07,1.57-11.69,5.69-15.8C1194.48,239.03,1196.98,236.43,1200,237.07z" />
<path class="cls-6" d="M466.46,1532.25l-6.61,10.61h-99.67c12.04-8.25,24.22-16.88,37.48-22.9l42.97-2.47  C452.58,1516.8,462.24,1521.33,466.46,1532.25z" />
<path class="cls-8" d="M0,981.7v-2.68l177.99-1.94c21.65-0.24,43.49-2.53,64.99,3.99C160.47,989.97,79.97,985.86,0,981.7z" />
<path class="cls-16" d="M0,1426.34v-22.77c42.1-6.16,83.49-14.9,127.66-14.31L0,1426.34z" />
<polygon class="cls-6" points="1200,1023.52 1200,1030.37 1097.25,1024.7 " />
<path class="cls-8" d="M0,1331.25v-18.75c10.35,4.14,22.96,2.95,32.67,12.03C22.36,1331.25,10.39,1330.35,0,1331.25z" />
<path class="cls-5" d="M198.12,246.65l1.52,1.18l4.18-1.12c13.07,4.07,25.59,9.27,37.56,15.59c6.2,6.06,13.3,9.58,21.31,10.55  c4.3,1.84,12.55,6.32,7.92,10.69l3.17,2.8l3.56,12.24c13.09,29.72,23.96,60.72,32.59,93.02c8.67,35.88,17.83,71.86,28.17,107.43  c0.43,1.49,1.83,2.39,3.16,2.98l2.78-0.54l62.09,107.44l80.27,55.9c35.16,15.61,68.67,34.02,100.52,55.22  c24.43,21.82,50.87,40.17,79.34,55.05l-21.53-16.76c-32.44-29.81-67.31-56.64-104.58-80.51c-39.83-23.78-80.23-46.58-121.2-68.4  c-14.49-15.74-23.15-34.81-30.61-54.55c-8.76-23.19-17.21-49.89-24.26-73.84c-10.02-34.05-18.13-67.69-20.84-103.09  c-5.72-22.95-8.71-45.98-8.96-69.09l3.1-3.82c1.43-3.61,13.16-0.3,16.32,1.12l1.2,3.04c3.74-4.09,22.51,4.86,23.98,7.7  c1.88,3.63,4.44,25.2,3.01,28.74c-0.4,0.99-0.96,1.91-1.58,2.82c4.47,5.78,5.89,15.89,2.63,22.47c2.23,3.44,3.35,5.16,3.35,5.16  c3.47,28.09,7.28,56.54,18.47,82.76l-0.18,6.09l3.97,2.38c3.61,14.47,9.33,27.55,17.15,39.25c8.06,5.59,17.38,9.67,27.95,12.27  c6.98,4.2,11.92,10.6,14.82,19.21c5.9,19.16,14.62,36.34,26.15,51.52c26.43,18.19,54.09,34.56,82.98,49.11c0,0,1.22,1.8,3.66,5.4  c12.06,7.62,26.32,14.56,36.92,24.53c14.86,13.97,21.9,34.65,39.46,44.07c3.82-1.49,10.78,5.28,9.41,9.15  c28.97,24.23,59.81,47.84,92.28,67c6.16,1.35,15.44,3.54,14.9,10.89l-0.2,1.79c-44.15,1.86-88.48,2.93-132.99,3.21l-11.39-2.48  c-0.43,0.97-1.26,2.37-1.98,2.18c-17.66-4.76-38.76-11.43-55.88-17.79c-3.75-0.38-5.58-1.9-5.5-4.56l-2.57-3.12  c-0.67-9.27-3.42-25.77-8.63-33.32c-2.44,8.62-4.95,17.24-7.54,25.86c-2.38,2.59-5.67,2.57-9.87-0.05  c-5.6-9.54-9.4-20.22-11.41-32.03l-4.74,14.21c-1.89,4.24-5.74,9.01-9.63,4.47c-2.7-9.71-5.98-19.19-9.85-28.43  c-2.49,5.47-4.16,11.3-4.99,17.48l-3.03,0.49c-7.51-3.09-11.26-4.63-11.26-4.63c-56.1-43.59-112.04-86.98-167.83-130.17  c-4.8-3.52-9.22-7.22-11.26-12.96l-5.01-6.57c-23.85-70.3-47.2-141.76-70.05-214.4c-15.33-40.75-25.65-81.95-34.02-124.41  c-0.24-1.24-0.1-2.56,0.07-3.91c0.17-1.38,0.53-2.74,0.93-4.09C196.1,242.88,197.35,243.18,198.12,246.65z" />
<path class="cls-14" d="M896.19,443.67c-5.56,24.88-14.56,50.64-28.28,73.21c-22.37,23.23-53.2,3.46-62.06,32.06  c-3.6,11.62-13.84,21.65-26.73,22.26c-18.71,0.88-28.63,11.04-43.26,19.38c-48.72,27.75-102.46,38.02-154.61,53.45  c-28.33-17.9-60.75-30.63-87.33-51.46c-18.01-16.82-21.18-44.5-33.71-64.48c-7.49-11.95-25.01-9.14-34.64-17.92  c-12.38-11.3-14.17-30.93-21-45.26l6.15-1.59c24.24,2.99,48.38,6.63,72.4,10.92c31.07,9.74,62.75,13.92,95.24,11.69l192.96-10.33  c6.41-4.53,10.93-11.56,13.56-21.09c0,0,1.08-0.67,3.25-2l106.16-11.32L896.19,443.67z" />
<path class="cls-16" d="M235.71,201.11c-7.37,5.78-19.62-12.85-15.58-16.64c0.95-0.89,2.11-1.16,3.25-0.81  c-5.47-8.7-11.1-21.01-9.07-31.1l2.27-2.99c7.6-2.05,20.83,3.51,27.69,7.08c14.25-26.96,57.21-33.86,79.35-13.52  c0.66,0.6,1.12,1.17,1,2.13c14.07-23.72,44.82-35.79,72.18-32.77c33.63,3.71,64.23,26.85,74.95,58.79  c4.82-3.61,10.96-5.27,18.41-4.97c17.67,2.09,35.11,5.81,52.32,11.17c53.17,4.27,106.07,10.53,158.72,18.78  c6.39,1.01,10.6,2.18,6.81,7.22l-470.63,0.31L235.71,201.11z" />
<path class="cls-9" d="M6.7,69.27c1.82-4,11.96,0.75,12.39,4.31c0.53-0.77,1.27-1.12,2.16-1.33c3.84-0.92,46.84,29.34,46.62,33.57  c-0.06,1.2-0.88,2.16-1.72,2.96l2.85,3.5l8.36,171.63c-0.53,2.58-1.34,3.71-4,3.69c-4.48-0.04-33.13-15.02-37.2-19.79  c-5.39-2.21-16.91-9.63-17.28-16.56C15.57,189.69,4.72,128.16,6.7,69.27z" />
<path class="cls-12" d="M1098.21,285.37c4.5,3.03,10.18,0.12,16.18,1.47l-9.5,85.7l-42.42,120.53c-16.69,3.91-32.21,7.31-50.34,7.31  c7.9-20.54,11.94-41.15,21.18-60.68c12.03-25.42,25.65-6.16,38.02-76.59l-2.42-1.69l12.55-70.98  C1083.88,286.13,1094.89,280.71,1098.21,285.37z" />
<path class="cls-3" d="M235.71,201.11c1.36,4.55-2.65,4.96-6.57,4.7c13.08,10.98,13.57,16.22,1.47,15.71l3.43,4.63  c8.12,6.92,9.38,11.44,3.78,13.58c2.77,2.4,4.55,5.72,5.36,9.95c2.71,0.73,4.73,1.88,6.08,3.44l10.46-29.21  c1.17-2.61,3.92-2.09,6.15-0.44l11.28,35.19c3.56-8.94,8.22-19.85,13.12-4.38l3.01,14.97c3.01-7.07,7.68-5.16,9.63,1.4  c0.44-0.93,0.54-3.03,0.3-6.3c5.43-9.17,10-19.12,13.71-29.85c2.45-3.01,3.68-4.19,6.36-1.3c4.4,4.75,8.02,25.33,8.81,32.5  c3.79,2.12,7.23,5.33,3.17,8.87c1.71,7.26,3.81,4.91,6.31-7.06c2.61-2.75,3.9-3.74,6.4-0.78c3.14,3.71,9.93,33.42,9.27,38.87  l-2.35,3.54L337.36,305l-3.36,0.53c-8.17-5.19-17.28-8.64-27.35-10.38l-1.36-3.21c-1.77,0.7-3.7,1.37-5.63,1.05  c-6.55-1.09-18.1-3.98-24.45-6.05c-1.87-0.61-3.32-2-4.62-3.41c-0.54-4.03-7.27-8.42-10.86-8.6c-9.86-0.49-13.88-6.89-21.24-11.29  c-12.14-7.26-26.38-10.19-38.87-15.83l-1.52-1.18l-2.52-0.22c-2.35,0.92-4.84-0.11-7.46-3.1c-3.42-1.08-5.37-2.79-5.86-5.13  c-3.64-5.16-2.79-15.26,1.24-20.05c1.65-2.22,2.71-5.02,3.19-8.4l10.84-6.15c0,0-1.14-0.9-3.41-2.71l-3.57-0.46  c0.13-5.31,3.58-9.23,10.33-11.78c-7.89-1.88-7.14-6.59,2.26-14.13c-0.11-3.56,0.3-6.16,1.64-9.58c1.47-3.75,5.14-10.66,8.02-12.49  c0.59-1.05,1.09-1.01,1.5,0.12l4.91,16.6c1.97,6.66,5.62,13.43,11.4,18.42c-2.83,1.66-4.6-0.78-9.58-1.81  C224.48,192.69,227.47,201.12,235.71,201.11z" />
<path class="cls-3" d="M183.49,159.18c1.93,3.52-5.61,7.48-8.1,4.39c-4.13-0.09-6.19-0.13-6.19-0.13  c-26.18-15.8-53.4-29.24-81.65-40.34l-4.56-4.15c-0.73,0.79-1.64,1.59-2.68,1.51c-1.93-0.15-14.51-8.12-14.16-11.69  c-0.44-7.37-44.66-35.01-47.06-35.2c-1.76-3.06-0.2-5.42,4.69-7.07c-4.27-4.39-2.46-7.96,5.43-10.69l4.27-3.14  c-2.66-0.96-2.67-2.73-2.6-5.24c0.04-1.44,11.73-25.21,13.07-25.73c2.25-0.86,3.55-0.93,5.46,0.85c3.98,9.13,7.33,18.44,10.06,27.91  c-1.65,2.29-0.13,5.83,4.56,10.61c0.74,1.84-0.04,3.27-2.33,4.29c4.15,3.48,7.53,7.32,6.81,13.06c5.3,3.76,3.58,9.47-2.94,9.36  c4.28,4.59,10.17,4.23,17.67-1.07c-3.85-3.89-2.13-7.89,5.16-12c-1.24-1.6-1.31-3.24-0.96-5.15c0.37-2.04,11.88-26.33,13.2-27.05  c2.13-1.16,3.71-0.18,4.92,1.89c5.2,8.7,8.16,17.49,8.9,26.36l11.27,10.26c-0.67,3.17-2.15,6.41-4.46,9.72  c9.25,5.19,12.57,10.34-0.19,11.64c14.3,7.79,16.36,12.76,6.18,14.91c4.4,1.41,6.82,3.83,7.25,7.26c-3.39,6.26-1.07,6.47,6.95,0.64  c-3.91-0.27-5.37-1.44-4.67-5.7l8.89-8.41c-1.59-1.57-1.25-3.06-0.65-5.08c1.91-6.37,10.93-25.55,15.57-12.7l6.11,15.36  c3.43,4.07,4.57,7.69,3.42,10.86c5.98,1.8,8.87,6.11,2.79,10.26c4.13,2.87,9.03,7.15,3.1,10.83c9.06,5.21,10.24,8.93,3.54,11.16  C183.21,154.08,184.52,156.55,183.49,159.18z" />
<path class="cls-16" d="M382.93,370.88c-0.94-7.51-2.1-14.85-2.63-22.47c1.42-1.66,3.87-2.25,7.35-1.77  c18.33-28.8,60.82-24.51,78.27,2.96c14.85-2.57,31.43-0.99,44.79,6.68c32.79,1.38,65.38,5.51,97.82,10.33  c5.53,0.75,6.4,2.25,4.23,6.17l-228.18,0.78L382.93,370.88z" />
<path class="cls-12" d="M944.19,391.04c0.66,8.1-0.22,16.8-2.36,25.82c-8.44,35.54-13.32,71.96-24.02,106.92  c-16.76,14.05-34.03,28.11-45.5,46.64c-9.67,15.63-24.03,20.17-39.61,26.63l-124.87,51.81c67.57-40.3,127.3-33.55,160.85-111.89  l42.92-18.39c6.12-15.68,5.97-33.19,8-50.5c2.91-24.76,12.07-47.44,13.67-71.67C927.06,390.91,941.43,385.65,944.19,391.04z" />
<path class="cls-12" d="M1158.08,251.91l-27.17,123.28c-2.42,10.96-7.63,20.3-19.48,22.57l17.62-121.79c-1.33-4.49,3.53-9.77,7.92-10.7  C1141.86,257.14,1150.54,255.44,1158.08,251.91z" />
<path class="cls-16" d="M719.91,314.28c11.29-4.82,23.72-0.92,35.38-5.03c18.47-2.21,36.09-3.72,54.37-2.82  c8.17-6.38,18.13-5.06,27.27-1.18c15-17.92,40.68-18.56,56.23-0.56c27.97,1.85,55.76,4.89,83.45,9.84L719.91,314.28z" />
<path class="cls-12" d="M1008.2,373.86c-9.36,35.3-11.97,72.16-23.93,107.74c-4.16,12.38-16.68,22.41-25.8,32.36  c10.86-20.53,17.74-38.13,20.79-59.91c3.46-24.7,10.43-48.37,11.95-72.56C984.86,374.37,1004.15,368.44,1008.2,373.86z" />
<path class="cls-16" d="M212.82,152.45c0.46,7.72-8.03,12.61-6.87,20.58c0.79,5.42-7.79,6.96-8.45,12.58  c27.94-0.57-12.24,8.67-3.36,15.27c-0.32,4.16-8.08,5.48-9.29,1.28l-2.38-4.1c0.14-8.47-0.23-16.93-1.1-25.36  c-6.09-2.76-8.09-5.8-5.98-9.13l8.1-4.39c1.31-6.4,14.96-9.23,21.2-9.5C208.76,148.67,211.47,149.6,212.82,152.45z" />
<path class="cls-15" d="M841.12,788.91c5.58-5.14,9.31,4.74,2.78,7.85l-2.76,2.87c-26.96,12.59-54.25,23.54-81.87,32.87l-10.57,2.01  c0.01,2.97-2.9,5.16-8.73,6.57c-1.26,0.78-1.75,1.21-0.57,2.78l0.74,1.97c43.94,1.91,87.8,4.37,131.57,7.38l1.45,2.77  c-26.1,11.95-54.8,17.31-80.47,30.74c-13.72,7.18-31.69,12.64-39.93,26.51c-1.17,1.97-1.07,3.06,0.42,4.63  c1.44,1.52,3.66,0.38,4.86,1.11c11.95,2.27,23.95,4.42,35.98,6.44c0,0,0.94,1.22,2.81,3.66c-2.08,3.17-7.56,5.2-10.97,3.33  l-6.16,1.65c-26.68-2.72-53.45-3.44-80.3-2.18c-4.6-0.02-7.8-2.22-10.7-5.62l-58.44,1.88l32.73,4.36c1.78,3.49,2.37,4.98-2.22,5.72  L628.21,940c-10.3,1.61-19.73,0.82-28.29-2.38c-1.52,1.76-3.96,2.21-6.16,2.47c-23.72-0.8-47.43-1.61-71.14-2.41l-1.53-2.73  c-54.4-1.84-109.21,1.03-164.33-4.86l154.88-5.88c7.67-10.28,50.5-4.56,68.7-10.88c-5.84-3.56-11.94-2.17-17.64-2.98l0.62-2.76  l127.9-14.07l-73.03-8.53c-5.95-4.71-1.18-9.42,3.29-13.02l-13.54-0.55l-0.95-2.93c-1.78,3.21-18.43,1.72-19.47,0.15  c-0.39-0.59-0.67-1.26-0.91-1.94l-3.44,2.21c-5.33,0.17-27.98-0.84-31.67-2.38c-4.54-1.89-7.16-4.34-2.28-6.67  c28.4-2.52,56.79-4.85,85.17-6.99l5.43,1.71l2.84-1.15c6.73,2.88,14.11,1.98,22.12-2.69l-18.14,0.85l-2.51-2.73  c-0.14,2.13-2.26,2.5-4.24,2.51l-102.09-4.18c-1.49-1.7-0.82-3.56,0.39-5.43l101.52-3.53l1.7,2.62l1.51-2.7  c19.45,0.59,15.36-1.2-1.21-0.99l-1.34-2.84l-4.35,2.17c-7.78,0-49.01-1.06-52.37-3.18c-2.69-1.7-2.45-3.22-0.91-5.76l107.8-5.05  c-3.68-5.77,0.64-6.19,6.41-6.09c-4.25-2.19-6.91-4.68-2-6.47c26.6-0.92,53.18-2.12,79.12-8.38c8.89-0.7,3.75,1.74,0.01,0.11  c-0.2-0.09-0.07-0.93,0.15-2c-4.23-4.2-9.7-7.83-14.9-10.89L841.12,788.91z" />
<path class="cls-12" d="M667.05,721.78c-3.15-2.63-6.86-6.17-9.41-9.15c57.27-38.6,74.88-42.2,138.42-64.79  c24.35-8.66,44.8-20,67.8-30.86l83.34-39.35l46.85-64.64c18.07-2.05,34.66-5.22,54.27-5.12c-38.06,23.15-41.34,43.74-70.13,74.39  c-34.06,16.31-64.62,38.71-100.38,51.41L750.18,679C720.05,689.71,695.91,710.74,667.05,721.78z" />
<path class="cls-12" d="M1158.67,395.69l-35.14,73.94l16.57-121.39c8.14-8.32,17.69-12.37,28.46-12.99L1158.67,395.69z" />
<path class="cls-3" d="M1200,509.04v178.14c-37.07,8.8-72.31,23.4-109.39,34.84c-35.11,10.84-63.44,28.11-92.71,48.17  c-6.78,6-31.81,8.38-20.69-5.57l-10,3.38l-3.05-1.98l-5.3,2.72c-27.48,5.81-54.77,12.51-81.85,20.1  c-10.9,4.34-21.94,6.98-33.11,7.92c0.04-1.58,0.57-3.03,0.93-4.85c0.31-1.56-1.89-2.99-3.7-2.99l15.36-43.76  c3.55-2.03,7.33,3.43,10.4,6.14c3.58-9.16,2.05-20.6,9.75-26.69c7.05,8.5,7.03,18.77,12.44,27.36l12.63-35.14  c6.35,7.88,7.25,18.21,10.84,29.43l16.47-54.25l13.66,41.97c11.7-0.04,12.37-34.16,18.92-47.7c5.25,7.52,3.42,16.13,9.37,22.77  c9.77,0.89,16.38-8.19,20.04-16.46c-5.47-0.07-9.18,1.6-15.72,0.58c7.01-5.83,15.28-10.72,18.79-20.67  c-4.78-0.36-7.33,2.37-11.29,1.37c5.11-6.63,10.35-11.35,14.16-18.82c-4.32-0.43-6.92,2.45-9.91-0.01  c6.02-5.45,10.96-10.75,13.16-17.37c-2.68,0.47-4.48,1.91-7.07,1.16c-4.42-1.29,24.55-21.62,3.88-10.14  c-10.34,5.74,18.72-16.98,2.76-13.51c5.55-10.14,10.33-19.61,12.52-32.82c4.28,10.9,7.6,20.55,13.39,29.94  c-5.83-0.12-3.25,2.52-1.87,4.03c1.74,1.9,2.05,2.29,5.71,5.61c-3.09-0.36-5.14-0.68-7.93,0.43c3.59,6.8,8.96,10.15,13.81,14.94  l-8.53-0.14c2.81,6.78,7.67,11.02,12.52,16.67c-3.82,1.29-7.12-1.24-10.65,0.38c4.65,6.69,9.57,11.15,14.16,16.48  c5.85-7.87,17.15-22,6.93-29.4c9.58-10.69,23.48-17.77,28.86-34.61c-6.88,0.65-13.23,4.1-20.8,2.49  c10.01-7.6,19.33-16.33,23.35-29.32c-5.5,1.35-8.36,6.68-14.64,3.28c9.43-8.78,17.35-18.24,20.73-29.95  c-5.13,1.19-7.85,3.78-12.06,2.38c4.59-5.59,9.54-10.18,12.2-16.99c-3.63-0.42-5.59,1.38-9.35-0.03  c14.09-14.97,16.11-34.05,22.79-54.55c2.82,19.31,12.21,34.5,16.07,51.06c1.82,7.81,3.74,13.8,14.59,18.51  c-7.49,3.17-11.15-0.99-17.65-3.22c3.82,9.44,10.13,16.66,17.56,23.12c10.19-7.25,18.6-15.58,23.6-26.88  c-6.66,0.21-11.73,4.34-17.64,1.67c11.37-11.51,21.61-22.42,24.92-37.94c-6.2,1.95-10.89,5.81-17.64,5.55  c19.16-21.2,25.4-46.5,29.39-74.87C1181.12,465.32,1182.97,491.95,1200,509.04z" />
<path class="cls-9" d="M583.74,1090.42c1.04-0.84,2.24-1.8,3.65-1.84c7.78-0.22,25.42,9.98,30.37,16.83  c5.36,7.56,11.17,14.8,17.43,21.7l-0.14,3.64c3.85,1.39,10.74,6.45,9.32,10.8l3.51,0.22l12.57,15.45l21.07-19.61l4.14-0.82  c2.28-6.25,18.27-1.15,23.21,1.32l1.08,3.16l2.14,2.19c-0.74,5.37-4.25,17.54-8.81,20.19c3.23-2.7,14.49,8.42,13.81,7.93  c-3.2-2.31-3.83-3.79-0.07-5.33c13.86,0.04,12.36-0.41-4.53-1.35l-1.43-2.75l0.31-2.94c24.99-8.55,49.99-17.1,75.01-25.66l2.4,2.01  c3.55-1.04,4.11,3.77,3.14,2.44c-1.27-1.74-2.28-3.64-0.44-5.11c-1.45-1.19-0.62-2.04,2.5-2.55c0.46-0.63,0.96-1.23,1.54-1.71  c1.36-1.11,19.32,0.97,22.69,1.73l2.74,2.68c0.48,10.75-4,20.52-6.57,30.71c-12.31,38.43-42.81,69-74.64,92.61  c-80.04,59.36-202.38,89.58-300.36,102.21c-80.94,10.44-164.28,10.02-244.28-1.91c-10.33-1.54-48.87-8.71-53.46-16.12  c-0.5-0.8-0.84-1.7-1.14-2.63c6.99-10.48,23.1-8.89,34.88-13.56c2.37,0.86,2.48,3.47,0.35,7.83c5.36,2.89,21.99,4.45,17.57-5.54  c11.32-1.35,22.82-1.62,34.51-0.83c-4.01-0.4-19.81-2.3-21.78-4.63c-0.84-0.99-1.22-2.16-1.25-3.45l65.91-25.77  c2.05-1.72,4.49-2.41,7.12-2.51c15.38-0.55,40.32,7.09,55.42,11.76c28.26,8.73,56.21,20.26,82.76,33.06c4,4.57,7.81,6.4,11.44,5.47  l7.56-5.13c22-7.9,44.19-14.9,66.58-21c8.22,6.36,13.92-4.81,2.44-5.54c-46.23-26.96-95.88-46.8-149.83-46.27l-4.38-3.12  c18.35-7.95,37.63-18.8,57.24-20.23c2.89,2.46,1.2,5.07-2.5,4.3l0.43,1.78c-3.55,2.45-5.64,5.2-6.28,8.25l121.63,20.19  c58.29,7.18,124.76,15.06,167.39-34.23c8.16-9.43-5.37-37.12-19.43-25.15l-9.36-1.78c-0.5,1.07-0.95,1.04-1.34-0.08  c-7.45-0.62-14.33-2.77-20.66-6.46c-7.04-2.81-11.4-6.91-13.09-12.3c-8.84-2.55-17.41-10.02-24.44-16.16  c-0.3-0.27-0.24-0.95-0.07-1.76c-8.75-5.44-16.46-12.68-23.13-21.72l-0.43,20.48l-2.72,1.86c-4.9,3.24-11.55-3.78-14.9-7.74  c-16.42-19.42-12.36-65.38,10.43-77.99C573.66,1087.21,579.27,1085.66,583.74,1090.42z" />
<path class="cls-4" d="M790.29,1224.16l0.78,4.01c-8.76,12.85-17.3,25.71-25.63,38.58l-3.66,1.52c-3.28-0.02-5.04,5.25-8.15,6.37  c-63.24,22.8-52.01,48.24-97.56,57.16c0.51-8.96,7.3-12.45,11.86-19.06c-46.51,20.3-17.4,32.63-69.41,40.97  c-22.45,3.6-42.63,8.6-64.95,17.55c5.65-15.97,21.35-19.35,33.53-28.33c-37.23,3.54-68.98,23.75-95.71,49.18  c-20.51,3.05-41.18,4.2-62.52,5.38c-34.49,1.9-64.34,15.52-96.81,25.77l-90.99,28.72c-7.4,1.05-21.1,1.65-23-6.69  c-14.81-9.21-23.37-24.21-34.68-36.86c-0.54-0.88-1.02-2.51-1.54-3.51c-8.04-15.31-15.09-30.96-21.2-47.14  c-2.07-5.49-3.33-15.03-0.15-19.81c23.16,12.61,52.76,16.11,81.15,19.47c133.53,15.79,270.04-0.06,397.28-43.24  c78.39-26.61,160.6-73.11,195.45-150.39C809.06,1184.84,801.01,1205.24,790.29,1224.16z" />
<path class="cls-1" d="M906.66,1064.8c4.59,0.38,7.36,11.56,2.81,13.43c-0.26,47.52-48.27,53.58-88.52,54.84  c-8.88,0.28-18.07-2.35-26.97-2.71c-4.06,2.86-7.87,2.2-12.39,0.48c-18.91-10.23-38.87-6.51-58.98-1.55l-4.39-1.67  c-3.18-2-2.49-10.6,0.96-12.08l2.77-3.37c12.16-1.65,24.14-4.07,35.93-7.28c37.42-31.23,92.17-50.18,140.84-46.85  C902.07,1058.27,909.16,1060.85,906.66,1064.8z" />
<path class="cls-3" d="M731.17,1383.38l1.84,3.3c-2.67,8.58-20.41,31.61-27.79,34.57c-0.61,0.24-1.37,0.09-2.18-0.17  c-4.16,3.09-11.36,5.5-13.52,10.95c8.47,9.09,77.85,20.53,64.56,41.75c-8.98,14.35-30.1,12.94-42.97,3.29  c-10.24-7.67-17.15-17.47-25.41-26.46c-0.74-2.32,0.31-4.09,3.16-5.3l-11.12,3.32l-2.6-2.02c-5.18-8.63-17.41-7.7-28.56-8.54  c10.42-9.42,23.74-15.9,30.91-26.55C695.15,1401.89,713.68,1393.35,731.17,1383.38z" />
<path class="cls-3" d="M816.84,1356.55c0.44,2.71-1.23,4.29-5,4.74l-1.59,17.75l-2.68,1.83c-31.29-0.81-54.29,14.75-80.47,29.09  c-0.22-1.01-0.39-2.02-0.38-3.03c0.11-8.26,22.07-32.38,29.94-38.08C775.45,1358.14,795.28,1349.3,816.84,1356.55z" />
<path class="cls-13" d="M999.06,1070.27c2.46-1.09,6.5,0.36,9.18,0.11c3.74,0.5,6.95,1.36,9.65,2.59c2.6,0.87,6.41,1.47,9.06,1.21  c1.28-0.48,2.62-0.4,3.24,0.94c8.36-1.16,16.93,1.5,25.07,1.49c3.5,1.87,2.2,3.38-3.89,4.53l-46.73,1.06l-95.17-3.96  c0.03-4.57-1.64-9.09-2.81-13.43l3.24-2.75c24.1-2.69,52.56-1.99,74.99,6.79C989.57,1069.69,994.3,1070.16,999.06,1070.27z" />
<path class="cls-6" d="M832.93,1356.18l-4,3.39c14.37,0.32,27.99-0.9,41.32,4.13c0.61,16.18-53.71,17.4-62.69,17.16  c-0.23-7.39,2.69-14.2,1.23-22.66c4.11,1.02,5.88-1.12,8.04-1.66C822.04,1355.25,827.71,1356.97,832.93,1356.18z" />
<path class="cls-16" d="M685.71,1450.6c-15.62,9.97-30.66,18.87-46.62,26.52l-3.52,4.3l-27.83,10.85l-5.19-0.47  c-4.49,2.29-9.93,2.7-15.77,2.4c14.91-9.26,29.54-19.78,45.45-27.3l42.92-20.3l23.89-7.12  C694.67,1445.02,690.08,1447.82,685.71,1450.6z" />
<path class="cls-6" d="M639.09,1477.12c4.66,19.04-33.83,41.25-48.36,48.11c4.25-11.15,9.98-21.37,11.82-33.43  C613.97,1485.99,626.29,1482.42,639.09,1477.12z" />
<path class="cls-6" d="M863.97,1328.35c1.42,9.37,17.57-0.9,24.08,10.42c-9.41,11.17-27.65,11.75-41.63,12.51  c5.56-10.04-17.9-4.67-20.4-12.96C837.67,1329.98,851.88,1332,863.97,1328.35z" />
<path class="cls-3" d="M803.47,1241.36c-11.15,11.93-24.66,27.92-41.69,26.9c8.36-18.26,13.36-17.4,28.5-44.11  C795.29,1229.52,800.08,1234.78,803.47,1241.36z" />
<path class="cls-6" d="M756.66,1368.84c-10.38,13.34-21.51,26.05-29.57,41.11c-8.85,4.85-25.44,18.69-24.05,11.12  c10.02-12.29,24.34-22.16,28.12-37.7L756.66,1368.84z" />
<path class="cls-13" d="M1001.48,1091.28c17.49,6.78,36.55,4.76,55.6,7.06c-3.49,5.79-8.64,2.22-12.46,3.86l-84.19-7.93  C974.49,1091.75,988.44,1091.22,1001.48,1091.28z" />
<path class="cls-6" d="M1113.22,1177.73c-1.52,4.93-6.65,7.82-9.41,11.89c-10.59,1.24-17.55-5.52-24.18-12.58  C1091.62,1175.89,1100.67,1177,1113.22,1177.73z" />
<path class="cls-16" d="M945.02,1140.07c0.71-7.5,9.52-19.09,16.87-16.07C967.62,1131.58,953.28,1142.76,945.02,1140.07z" />
<path class="cls-16" d="M873.5,1175.82c-3.78,9.93-11.08,13.77-18.33,17.59C854.76,1184.34,865.49,1170.4,873.5,1175.82z" />
<path class="cls-6" d="M1108.63,1196.14c-0.45,2.92-2.57,5.91-4.09,6.07c-9.11-1.05-18.13,0.48-27.77-3.68  C1087.62,1193.98,1098.1,1196.58,1108.63,1196.14z" />
<path class="cls-16" d="M954.78,1179.51c-2.31,8.1-12.52,10.24-18.72,9.18C937.77,1181.98,950.84,1172.29,954.78,1179.51z" />
<path class="cls-16" d="M920.82,1236.33c4.97,4.37-12.19,12.71-19.94,10.2C901.73,1240.94,917.09,1233.04,920.82,1236.33z" />
<path class="cls-8" d="M886.7,1025.75l1.85,2.19c14.96,1.44,29.84,3.3,44.64,5.58l0.37,3.25c0.34,3.74-2.71,5.6-9.16,5.59  c-0.27-1.25-21.53,1.76-18.79,2.61c5.85,1.83,13.26,2.26,19.43,2.53c23.64-1.27,45.13-0.2,67.66,6.26l15.21,5.24  c-8.57,2.69-15.66,1.13-16.88,8.76l8.04,2.51c-10.19,4.53-21.06-0.47-27.25-3.28c-16.51-4.85-43.98-2.55-65.15-2.19  c-2.86-2.87-7.04-4.4-11.87-4.39c-50.14,0.05-97.83,15.14-135.59,46.79c-13.48,4.89-27.4,5.26-40.02,8.35  c-9.43-4.26-29.98-8.55-33.33,5.21l-2.97,0.4c-13.17,8.15-32.54,12.05-47.83,9.6c-21.44-20.89-15.59-31.62-51.31-40.34  c-6.57-5.12-13.96-3.29-19.91,1.79c-17.04,14.55-22.76,48.25-13.38,68.44l-1.35,3.19l-3.14,3.28c-15.2,1.43-30.41,0.55-45.61-2.64  l-3.16-3.19c-2.59,1.45-7.8,0.9-8.32-2.56c-1.03,1-2.22,2.06-3.63,2.13c-4.03,0.2-13.56-4.16-17.61-6.15  c-12.15-5.98-14.27-14.73-11.07-27.14l-1.77-3.81c3.02-11.91,6.46-23.89,12.99-34.45c1.91-3.92-28.49,22.11-30.03,23.56  c-13.89,13-33.15,31.14-44.4,46.06c-10.44,13.84-11.41,24.47,2.07,36.59l-0.35,3.12c-0.39,5.71-11.51,7.51-16.77,8.06  c-6.92,0.73-11.13,0.53-16.87-3.97c-2.71-0.91-5.2-2.6-7.84-3.71c-3.98,1.01-8,0.89-12.07-0.39c-6.66,0.02-12.9-1.26-18.72-3.83  c-1.89-0.08-3.88,0.06-5.73,0.44c-2.36,5.43-10.69,5.43-15.39,2.38c-25.02-21.14-49.99-43.23-81.63-54.03  c-2.25-0.77-6.36-0.47-7.48,0.74c-4.33,4.67,30.21,27.22,47.07,50.09c-0.75,0.72-1.53,1.39-2.4,1.92  c-5.73,3.45-31.68,1.76-39.8,0.94c-22.6-8.81-45.82-18.37-70.1-21.33c15.36-11.15,57.6-8,62.88-35.2  c6.91-3.88,14.91-2.83,21.65-7.77c-0.42-5.08-1.73-10.92-3.53-14.68c-16.87-2.95-33.27,0.91-49.52-6.81  c28.43-13.9,58.6-19.34,87.93-22.69c1.77-1.9,4.85-2.31,9.24-1.22l70.39-7.47c9.98-4.47,21.5-7.85,33.12-10.83  c-4.37-5.5-9.68-3.15-13.56-6.98c3.4-1.46,7.8-3.21,6.25-6.87c-31.22-3.91-62.08,1.2-93.63,0.73l-118.23-1.76  c11.61-14.01,50.24-4.1,57.28-18.4c-22.03,0.94-42.34,5.92-63.13,0.17l37.43-4.26c39.28-4.47,78.69-5.38,118.68-5.47  c-1.6,15.14-12.92,3.49-22.82,10.92c29.19,8.09,59.57,5.35,89.64,6.37c6.47,0.22,14.48,2.68,17.46-3.3l0.89-2.69  c36.78-0.39,73.6-0.78,110.44-1.16l5.47,2.62c0.5-1.18,0.96-1.17,1.38,0.04c4.93,3.33,10.07,14.31,7.94,20.02  c3.59,3.5,1.02,11.09-3.87,11.9l-2.42,2.46c-38.2-3.19,0.8,14.82,15.47,9.16c7.72-2.4,15.42-4.38,23.11-5.95  c2.33-2.87,10.88-6.67,13.53-3.12c2.5-4.94,5.06-6.24,7.69-3.9c5.67-7.77,8.76-16.78,9.28-27.03l2.96-1.08  c13.23-1.65,19.85-2.47,19.85-2.47c85.78,2.19,171.56,2.64,257.33,1.37c-46.18-4.16-93.71-6.99-142.57-8.48  c-5.12,0.25-27.72-3.52-26.51-7.44c0.45-1.46,4.1-1.94,8.66-2.14c55.63-2.33,111.3-1.83,166.91-0.02c2.73,0.09,5.45,0.63,8.19,1.17  C881.29,1024.21,884,1024.95,886.7,1025.75z" />
<path class="cls-13" d="M785.85,932.4c39.02,18.99,82.42,22.21,126.71,23.78c0,0,2.96,1.01,8.87,3.03c-0.53,0.5-0.97,0.39-1.34-0.28  c-2.61-0.13-5.21,0.22-7.81,0.26l-2.52,1.81c-19.28,1.01-38.6,0.73-57.97-0.85c-4.87,10.13-14.35,10.6-25.28,10.04  c-16.9-1-33.75-0.84-50.56,0.48c31.53,5.36,63.29,9.18,95.3,11.48c0,0,1.96,1.16,5.88,3.48c3.8,1.91,3.81,4.43,0,6.34  c-3.42,1.87-5.13,2.81-5.13,2.81c-23.26-1.09-46.14-0.66-68.65,1.31c33.95,6.19,68.28,9.97,103.01,11.35  c10.53,1.12,51.24,5.79,57.31,11.59c4.43,4.24,4.87,5.41-1.01,6.96l-48.86,2.59c-9.82,1.31-18.86,0.36-27.1-2.83  c-62.95-2.36-126.04-3.21-191.54-0.2c45.24,9.13,89.74,3.8,134.06,9.56c15.6,2.03,32.42-1.55,46.8,7.88  c-98.19,3.09-193.53-0.49-289.33-1.32l-2.3-2.38l0.67-21.09c-2.02,1.55-2.71,0.69-1.16-1.44c-1.32-2.54,0.59-5.13,5.72-7.78  c2.7-2.74,0.94-7.53-0.33-10.95c-14.24-38.29-74.69-34.05-81.45,6.98l-2.98,2.21c2.98,2.82,2.9,8.05-1.24,9.21l2.69,1.51  c-0.94,7.63,0.88,13.7,5.44,18.21l-0.12,3.04l-116.8,1.23c-3.52,0.92-10.12-5.73-7.28-8.36c18.12-11.88,73.6-7.86,82.25-21.41  l-80.06-5.48c-0.4-0.97-0.87-2.51-0.25-2.93c3.4-2.31,27.26-15.6,29.41-15.33c2.23,0.29-1.83,3.62,0.49-1.76  c23.24-3.92,46.95-7.65,69.61-13.65l-87.07-16.12c36.44-10.66,73.92-7.43,109.8-8.79l1.17-1.79c25.29-2.06,50.82-3.35,76.6-3.87  l10.4-3.32c20.85,0.71,42.38-1.18,64.29-2.27l-66.48-8.86l92.87-2.98c2.91,5.73,6.71,5.77,12.55,5.73  C731.24,929.05,759.1,927.27,785.85,932.4z" />
<path class="cls-13" d="M562.7,910.35c-10.19-1.45-20.95-0.2-31.98-3.39c10.84-6.5,22.79-4.17,32.97-6.76  c5.11-1.28,10.49-2.18,16.14-2.7c6.19,1.18,22.01,0.83,26.89-3.38c5.21-4.5-11.75-5.38-14.6-4.71l-1.49-2.84l-10.59-1.39  c-3.89-0.06-3.72-2.58-0.15-3.72c-4.36-1.78-0.73-6.37,2.73-3.04l2.08-2.93c9.14,0.59,16.57-1.74,22.31-7  c6.33,1.62,14.29-1.11,20.64,2.82c-4.58,2.96-12.99,8.19-8.35,11.35l96.08,10.89L562.7,910.35z" />
<path class="cls-8" d="M192.71,1222.4c8.87,7.67,22.88,15.66,15.95,30.06l-43.68-5.46c-1.03,6.49,5.74,9.93,5.65,17.14  c-19.71-4.39-37.04-14.68-55.54-20.06C136.97,1230.15,166.55,1227.22,192.71,1222.4z" />
<path class="cls-8" d="M419.41,985.16c0.49,1.1,2.06,1.73,2.07,2.35l-31.73,17.66c-32.78-2.24-65.51-1.52-98.97,0.95  c-8.87,0.65-17.6-0.26-25.92-3.83c17.45-4.75,81.08,1.67,88.8-10.53C374.87,984.43,398.09,988.75,419.41,985.16z" />
<path class="cls-8" d="M286.56,945.29c16.51,5.6,33.89-3.22,50.06,6.89c-14.21,3.06-29.16,7.17-41.05,8.37  c-24.98,2.53-49.53-2.84-73.35-4.43c-3.05-0.44-0.73-6.99,1.55-7.84L286.56,945.29z" />
<path class="cls-8" d="M17.54,1286.51l77.51-22.28c5.17,3.57,13.09,6.95,12.65,14.41C106.52,1298.42,54.36,1284.27,17.54,1286.51z" />
<path class="cls-8" d="M478.14,880.05c6.88-2.02,14-3.31,21.16-3.86c24.46-0.57,48.96,0.82,73.38,2.26c1.21,0.07,2.4,0.55,3.62,1.07  c1.25,0.52,2.42,1.21,3.58,1.95l0.15,3.72l-174.04,3.95c-6.08,0.14-11.52-0.37-16.02-2.59c17.22-1.48,35.38-1.27,53.29-3.04  L478.14,880.05z" />
<path class="cls-8" d="M295.99,905.45l171.22,3.67l-145.67,5.63l-67.4-5.21C267.82,904.07,282.15,906.85,295.99,905.45z" />
<path class="cls-8" d="M599.92,937.62c-1.04,3.88-6.6,5.89-11.31,6.07l-76.86,2.92c0.56-5.39,5.45-8.29,9.34-11.66L599.92,937.62z" />
<path class="cls-8" d="M563.69,900.2c1.62-2.99,2.44-7.29,4.46-9.06c4.99-4.38,19.3,0.73,22.48-4.56c6.42,0.84,13.28-0.89,19.01,1.93  c-3.74,4.19-2.06,2.8-0.75,3.02c11.15,1.86-12.94,11.78-25.3,8.91C576.94,898.88,568.79,904.29,563.69,900.2z" />
<path class="cls-16" d="M166.73,1128.36c-13.05,3.71-31.18-1.93-32.84-16.58C146.5,1107.26,158.08,1118.07,166.73,1128.36z" />
<path class="cls-16" d="M275.96,1087.57c-0.3,1.92-1.46,3.52-2.93,2.95c-2.21-0.86-4.6-0.7-6.31-1.73  c-4.68-2.81-13.05-13.67-6.53-16.43C268.72,1068.74,272.44,1082.01,275.96,1087.57z" />
<path class="cls-16" d="M43.2,1221.6c-5.13,5.01-19.42,8.06-23.68,1.72C20,1213.37,37.78,1214.19,43.2,1221.6z" />
<path class="cls-6" d="M689.75,1396.75c-6.41-9.92-15.13,6.92-28.21,4.29c22.29-17.84,46.06-37.06,57.58-63.17  c11.08-3.79,21.18-15.24,36.79-11.72C739.84,1354.46,715.8,1379.27,689.75,1396.75z" />
<path class="cls-3" d="M221.06,1451.97c-13.8,4.36-28.32,9.52-41.41,15.76c6.4-7.25,12.94-14.48,18.41-22.45  C204.73,1449.42,213.64,1450.72,221.06,1451.97z" />
<path class="cls-7" d="M997.9,770.19c-24.43,32.12-60.92,58.06-97.76,75.26l-6.03,1.37c-49.56-0.64-99.15-1.04-148.76-1.2l-5.96-1.77  c-1.27-0.21-3.11-0.12-4.46-1.44c3.34-5.45,9.47-5.35,13.75-7.92l9.34-1.9c9.4,1.36,18.56,0.96,27.5-1.18  c27.96-13.05,56.44-24.83,85.46-35.35c1.92-0.29,3.56-0.34,4.21,0.44c3.13,3.73-4.87,9.69-8.11,11.36  c-20.63,9.79-21.38,12.34-2.24,7.63c27.34-15.62,55.86-28.89,85.56-39.8c4.32-3.67,8.9-6.89,13.75-9.67  c5.59-0.93,11.38-6.07,17.87-3.29c-1.51,4.01-5.47,5.03-5.78,8.77C984.16,773.6,990.93,770.13,997.9,770.19z" />
<path class="cls-12" d="M964.16,766.02c-3.78,4.53-7.82,10.52-14.23,12.75c-26.62,9.25-51.27,20.64-75.24,35.2  c-9.41,5.71-21.97,7.75-31.15,4.7c10.25-8.91,23.16-10.56,31.28-21c-30.54,9.05-57,23.26-86.03,35.39  c-12.39,5.18-26.88,2.06-40.1,1.44c11.78-7.07,26.33-8.32,39.06-14.72c18.67-9.38,37.06-16.32,56.15-23.02  C883.37,782.9,922.9,772.9,964.16,766.02z" />
<path class="cls-11" d="M1134.77,598.26c-5.56,0.59-8.54-8.06-11.37-11.57c9.23,0.56,15.94-0.47,25.2-2.51  C1144.77,588.5,1142.07,597.48,1134.77,598.26z" />
<path class="cls-11" d="M1062.39,653.82c-3.06-4.44-3.73-7.56-3.54-11.83l17.01-5.71C1072.87,643.65,1068.3,649.23,1062.39,653.82z" />
<path class="cls-9" d="M175.39,163.57c1.14,3.91,5.3,4.71,8.36,8.18c1.16,10.19,2.09,20.59,1.1,30.41c4.03,3.57,1.67,12.44-1.33,15.98  c0.01,6.6-0.71,13.49-1.24,20.05c2.04,11.05,2.53,22.51,1.49,34.38c-0.9,29.36,3.17,57.31,12.21,83.85  c9.5,17.71,16.9,36.15,22.2,55.3c2.07,14.71,5.19,29.15,9.38,43.33l48.89,107.84l-1.77,2.58c-1.59,0.28-3.17,0.5-4.76,0.53  c-1.58,0.02-3.12,0.04-4.51-0.38c-20.09-6.14-38.92-13.38-57.95-22.28c-1.32-0.62-2.45-1.66-3.6-2.74  c-1.16-1.09-2.19-2.32-3.18-3.59c-11.99-8.54-12.1-26.25-17.93-40.38c0.32,8-2.8,15.75-4.7,23.1c-5.13-0.58-8.5-10.91-5.42-14.84  c-2.99-3.43-5.29-7.45-6.9-12.08c-17.53-51.99-35.02-103.86-52.47-155.63l2.01-2.41c-0.9-0.56-1.77-1.16-2.51-1.88  c-0.73-0.71-1.4-1.38-1.65-2.17c-2.64-8.31-5.19-16.63-7.04-25.16l-15.6-92.57c1.1-3.48,1.69-4.17,5.51-3.67  c5.45,0.71,32.11,14.4,34.78,18.53c1.67,12.75,2.55,13.45,2.62,2.1c4.63-1.63,9.46-0.76,14.48,2.59  c-18.04-13.97-37.87-25.27-57.74-36.44c-3.18-24.95-5.73-50.05-7.63-75.32l2.52-1.82C116.36,128.23,144.67,148.34,175.39,163.57z" />
<path class="cls-9" d="M42.66,283l2.09-1.91l54.53,30.35l8.44,22.41l-1.75,3.81l2.89,0.6c11.57,54.58,26.41,109.26,44.51,164.02  c0,0,0.28,3.51,0.84,10.54c3.41,1.31,3.35,3.4,1.33,6.11c-5,6.69-29.75,1.84-34.86-4.5c-1.02-2.24-6.97-5.77-3.49-9.12  c4.76-2.45,11.19,2.24,17.14,0.54c-9.06-8.5-18.17-16.52-24.62-27.6c5.55,0.4,9.48,3.72,15.04,2.43  c-4.92-6.29-11.78-10.84-13.35-18.07c2.72-0.14,4.03,0.64,5.72,0.88c1.43,0.2,2.73-1.14,1.3-2.82  c-12.87-15.08-15.04-40.92-20.51-62.07c-2.56,18.54-4.68,36.22-12.29,52.67c0.23-13.61-27.44-130.69-30.84-135.08l-31.51-40.73  C28.64,277.29,37.47,280.15,42.66,283z" />
<path class="cls-7" d="M320.11,725.47c2.21-2.26,4.06-1.15,4.17,2.03c0.13,4.14-5.62,6.22-8.96,7.34c4.03,4.95,1.94,8.59-3.08,11.91  c11.53,6.2-1.26,10.74-8.92,12.07c4.84,7.49,1.33,12.38-7.25,9.63c0.07,4.24-1.26,6.61-3.99,7.11  c-24.35-17.18-53.87-31.27-72.41-53.73c0.88-1.6,0.25-6,1.25-7.35c1.01-1.36,10.53,4.7,14.02,0.9c1.03-1.12,0.72-3.59-0.2-5.32  c-0.29-1.06-0.33-2.6,0.45-2.84c13.14-3.94,27.41-2.17,40.45,1.82c13.84,4.9,27.82,9.3,41.94,13.21L320.11,725.47z" />
<path class="cls-4" d="M274.67,565.47l3.05,0.22c2.24,3.19,7.8,14.33,4.86,17.09l-7.11-0.03c-23.1-7.7-46.25-14.99-69.47-21.87  l-2.68-2.64l-8.74-18.14c2.49-1.05,4.81-1.45,6.08-3.1C224.39,549.04,249.02,558.47,274.67,565.47z" />
<path class="cls-9" d="M164.89,557.2l9.24,1.97c-3.11,8.49-8.81,12.84-13.82,19.09c4.26,1.73,6.9-1.32,11.25-0.88  c-3.82,9.42-8.87,17.28-16.65,25.16c-10.72-6.97-22.38-15.36-27.62-26.15c9.03,1.84,24.55,9.56,22.67-0.38  c-3.6-2.17-4.07-17.63-2.35-19.69C149.99,553.51,164.41,551.7,164.89,557.2z" />
<path class="cls-7" d="M160.98,621.12c-1.59,2.3-6.19,8.62-10.39,8.42c-6.68-3.91-11.34-9.96-16.41-16.44  C143.09,614.25,150.34,616.55,160.98,621.12z" />
<path class="cls-4" d="M74.61,529.81c-1.9,6.78-5.99,9.48-10.32,14.66c-5.82-4.3-11.29-8.03-14.49-14.67  C59.75,532.49,65.57,535.67,74.61,529.81z" />
<path class="cls-4" d="M172.6,504.88c1.68,4.99,3.13,10.36,5.42,14.84c-1.97,7.61-6.51,13.68-7.77,20.65  c7.65,5.87-3.41,10.77-5.36,16.82c-4.78-1.02-10.34-1.1-15.46,0.54l0.54,18.27c-13.83-8.53-21.57-24.67-31.14-39.72  c8.18,3.68,15.62,8.22,24.35,6.41c-7.49-7.24-18.88-20.25-22.51-28.26c5.37,0.95,36.29,11.99,33.53-1.61  c-0.08-1.78,0.38-3.65,1.39-5.62c-2.7-17.09,6.18-26.58,14.02-6.18L172.6,504.88z" />
<path class="cls-7" d="M1166.5,1354.17c-2.13,8.69-2.63,18.2-4.29,27.99l-7.88-26.91c2.13-0.92,3.73-3.74,6.1-3.46  C1162.63,1352.04,1164.28,1354.09,1166.5,1354.17z" />
<path class="cls-4" d="M1088.87,1357.99c17,27.25,28.8,58.89,33.65,93.67c-19.82-28.98-45.97-54.38-81.64-66.52  c22.59,22.2,40.01,46.15,50.11,77.12c-24.01-6.77-46.7-10.42-69.4-2.75c12.12,5.18,23.31,4.88,33.51,12.55l-48.92,15.95l12.11-47.95  c-18.69,12.88-20.72,33.93-28.26,54.91c-4.58-35.69-10.2-68.9-37.14-93.2c7.67,26.08,17.83,51.14,16.44,78.38  c-11.65-22.6-24.56-43.5-49.52-50.1c15.04,16.21,26.38,33.17,33.3,52.97c-18.39-14.21-38.89-23.38-61-16.21  c21.99,5.68,43.78,17.89,53.71,38.8c-30.57-12.17-60.53-14.32-86.93,3.09c22.12,0.21,44.61,0.74,65.88,8.94  c-21.86,8.02-42.02,15.17-61.07,25.22H687.43c35.89-28.52,78.3-48.64,121.41-65.85l78.2-31.23c20.58-34.24,39.48-67.79,65.35-96.77  C987.68,1409.76,1038.63,1373.08,1088.87,1357.99z" />
<path class="cls-1" d="M349.8,1258.74c17.69,1.94,35.34,1.14,53.36,5.03c36.34,7.85,68.93,23.23,101.13,41.52  c3.26,1.85,7.75,1.14,8.44,4.26c1.1,4.95-1.34,6.86-3.36,8.35c-3.36,2.47-7.67-2.58-10.11-1.77l-63.29,21.02  c-4.11,1.36-5.9,5.87-10.82,5.94c-5.21,0.08-6.02-4.25-10.41-6.39c-35.93-17.56-105.11-45.28-144.06-44.68  c3.56-6.91,13.2-6.18,19.93-9.03l14.41-3.42l50.67-2.59c-5.22-4.81-11.71-8.69-18.82-9.71l-1.72-2.79  C336.96,1261.07,345.13,1258.22,349.8,1258.74z" />
<path class="cls-1" d="M204.78,1317.78c31.75,14.67,83.89-5.22,82.32,10.78c-0.98,9.97-15.22,3.23-21.04,2.43  c-24.05-3.31-48.78-2.16-71.65-3.05c3.48,5.17,1.76,6.63-0.71,7.48c-4.78,1.66-15.94,2.86-19.92-1.48c-2.25-2.44,1.17-6.03,1.6-9.55  c3.12-3.14,2.61-10,7.76-12.14C190.09,1309.36,198.21,1314.75,204.78,1317.78z" />
<path class="cls-8" d="M455.69,1215.64c5.13-1.07,5.49,5.47,1.1,6.91c0.01,1.09-0.03,2.73-0.8,3c-9.49,3.35-25.21,7.86-34.96,9.65  c-3.78,1.9-6.54,1.74-8.3-0.49c-4.56-6.36-12.39-10.67-20.45-14.15c-2.41,2.98-1.05,5.94-3.66,8.52  c-6.27-1.97-10.33-6.7-12.24-11.81c0.02-1.08,0.07-2.7,0.84-2.97c4.97-1.71,22.45-6.43,27.13-6.69c0,0,1.81,0.47,5.42,1.42  l2.72-2.27c13.6,5.35,27.02,7.69,40.27,7L455.69,1215.64z" />
<path class="cls-6" d="M259.6,1194.42c8.71,11.81,22.65,23.76,22.06,42.17c-22.53-14.08-41.31-30.36-64.26-39.31  C231.22,1195.04,245.51,1195.23,259.6,1194.42z" />
<path class="cls-9" d="M290.62,1282.98c14.74-6.23,29.12-14.08,44.54-18.5c9.7,0.14,19.63,7.3,27.4,14.83L290.62,1282.98z" />
<path class="cls-7" d="M456.79,1222.54c8.37,1.75,4.28,14.29-4.67,14.91c-6.89,2.02-13.86,3.75-20.9,5.18  c-1.43,1.39-4.09,1.54-7.99,0.44c-2.5,5.05-20.46,7.78-18.69-0.27c0.92-1.22,1.48-3.22,2.5-4.3l5.69-3.81L456.79,1222.54z" />
<path class="cls-1" d="M353.57,1199.02c-12.36,2.28,8.39,16.25,10.1,23.77c-12.66,10.63-29.37-21.8-40.9-27.99  C333.09,1195.26,344.07,1195.03,353.57,1199.02z" />
<path class="cls-1" d="M409.79,1209.02l-33.39,8.23l-14.99-14.52c10.56,3.53,23.96,1.11,33.65-4.1l2.65-1.44  C401.15,1198.33,413.58,1205.05,409.79,1209.02z" />
<path class="cls-1" d="M317.04,1195.24c0.75,7.68,8.34,13.08,7.8,22.66c-9.87-4.02-15.66-13.91-23.19-20.28  C306.84,1197.53,311.96,1196.29,317.04,1195.24z" />
<path class="cls-10" d="M851.79,960.14l27.87,2.01l4.27,3.27l1.34,0.29c0.72-3.51,1.94-3.25,2.68,0.22l4.12,1.09  c0.87-3.77,2.24-3.62,3.86-0.11c19.82,5.67,40.78,5.53,60.38,12.83c-3.3,1.28-6.56,2.2-8.93,2.95c-1.61,0.51-2.86,6.26,0.37,6.64  c25.88,3.07,51.51,5.17,76.39,12.33c-14.53,2.72-28.46,3.45-42.76,8.95l46.67,12.55c-6.21,4.62-12.91,0.92-19.75,3.78  c33.49,17.17,97.09,10.5,136.13,22.84l-99.78,2.71c-0.41-0.07-0.92-0.08-1.34-0.06l-5.47-1.06c-20.07-1.7-40.41-1.78-60.16-5.47  l-1.75,0.5c-11.77-3.64-23.7-6.83-35.8-9.57c-1.02,3.75-4.92,3.41-6.58-0.07c-7.84-5.93-55.45-1.25-46.85-11.02  c25.5,0.95,51.56-0.66,79.66-2.64c-44.64-20.53-126.02-10.1-176.53-28.32c30.09-5.66,58.85-1.83,87.31-2.82  c7.76-3.21,8.86-4.28,3.3-3.23l-3.3-3.11c-37.2-5.26-75.5-4.73-113.51-15.21c26.09-7.03,50.95-1.22,76.67-3.46  C845.79,966.48,846.26,959.84,851.79,960.14z" />
<path class="cls-12" d="M1048.61,884.62l59.86,6.51c-15.03,12.69-34.27,11.89-48.01,22.93c-9.17,7.37-16.13,16.19-25.24,22.47  c-18.75-1.15-37.58-0.66-58.34-5.12l11.24-14.83C1002.04,908.11,1032.53,882.88,1048.61,884.62z" />
<path class="cls-10" d="M796.82,929.07l1.77-2.52l20.27-0.59c6.25,0.35,9.09,2.41,8.53,6.18c4.7,3.95,8.88,5.35,17.29,6.01  c52.73,4.15,104.97,8.62,157.59,19.23c27.87,5.62,56.94,1,85.39,3.22c3.99-0.02,3.45,4.3-0.27,4.92  c-55.47-1.65-110.66-4.69-165.96-6.34c-23.92-0.71-48.51-3.47-73.35-4.87c-2.2-0.12-68.13-15.14-62.23-21.94  C788.73,930.33,793.01,928.57,796.82,929.07z" />
<path class="cls-8" d="M827.39,932.15c-8.21-6.91-20.66-1.77-30.57-3.08c-12.74-4.46-26.7-2.72-38.78-10.1  c59.14,1.59,117.75,3.99,179.4,9.63C908.44,935.83,853.39,926.56,827.39,932.15z" />
<path class="cls-10" d="M1100.6,987.79c3.53,0.9,6.32,1.7,3.28,5.25l-89.08-4.55C1043.43,984.8,1072.08,988.51,1100.6,987.79z" />
<path class="cls-8" d="M1103.88,993.04l-3.28-5.25c27.09-0.69,54.07,1.43,81.29,6.54L1103.88,993.04z" />
<path class="cls-6" d="M912.28,959.19c-0.89,7.58-10.87,3.72-16.35,7.73c-1.13-0.32-2.67,0.32-3.86,0.11l-4.12-1.09l-2.68-0.22  l-1.34-0.29c-10.78-1.47-21.61-2.55-32.14-5.28C871.6,957.37,892.1,959.46,912.28,959.19z" />
<path class="cls-6" d="M1087.39,965.54l0.27-4.92c16.3,1.28,32.61,0.39,50.17,3.86C1120.59,968.09,1103.85,966.03,1087.39,965.54z" />
<path class="cls-6" d="M640.36,834.3c4.09,0.7,4.81,4.7,1.04,6.53l-104.36,3.63l107.09,4.39c5.75,2.12,0.4,8.52-4.32,5.73  c-29.94,6.11-58.98,2.28-92.59,8.24c13.2,3.63,26.44,1.71,39.37,3.89c3.05,2.64-1.78,9-4,11.72c-1.31,0.18-2.78,1.8-2.73,3.04  c-34.13-1.49-69.22-4.63-101.73-1.41c12.34-6.63,26.75-6.7,39.93-9.66c-11.31-4.64-22.39-9.96-33.26-15.98l-2.54-4.18  c-4.87-2.33-10.41-8.56-16.19-9.4c-0.65-3.65,2-5.91,7.95-6.77c11.25-0.34,22.42-1.19,33.5-2.56c0.37-3.06,3.53-4.84,6.35-5.59  c12.73,0.38,25.03-0.68,36.9-3.21c0.09-1.06,0.43-2.65,1.19-2.71c20.25-1.55,46.95-2.22,67.22-1.49l16.99,2.3  c0-3.92,4.47-3.76,5.36-0.01c7.98-0.76,15.99-0.85,24.01-0.26c-10.13-6.14-21.28-10.72-33.46-13.76c-2.37-0.91-3.35-1.94-2.42-4.62  l144.58-2.52c1.25,0.96,2.86,0.97,5.14,2.23c-27.57,9.46-54.82,9.31-86.6,10.7c17.54,4.86,35.41,1.9,53.67,3.92  c-19.7,4.26-38.41,1.16-57.13,3.1l30.41,4.18l-137.79,6.45C602.39,834.31,621.35,831.65,640.36,834.3z" />
<path class="cls-4" d="M482.27,850.24c12.25,5.85,25.21,11.79,35.8,20.15l-140.95,1.1c-2.15,0.02-4.51,4.18-7.38,4.37  c-2.89-6.78-7.49-9.2-12.33-12.55c-40.56-28.12-87.19-46.39-131.26-70.14c-18.27-9.85-37.94-17.53-51.96-35.18  c39.94,2.57,75.78,22.57,109.05,41.93c23.74,13.81,50.37,19.09,77.12,23.54C409.37,831.6,430.03,859.91,482.27,850.24z" />
<path class="cls-4" d="M185.13,888.31c3.97-0.02,3.66,5.38-0.11,6.09l-74.99,1.54l-43.11-26.79c5.38-6.94,5.9-16.83,13.01-22.18  l4.28,0.28c23.12,23.05,46.29,21.93,76.36,18.89c2.25,0.43,2.56,2.13,0.95,5.1l-14.46,4.04c11.03,5.23,22.62,9.98,34.97,10.35  L185.13,888.31z" />
<path class="cls-6" d="M270.98,932.59c-23.99,6.66-47.92,2.94-72.07,0.33C222,928.84,246.98,927.61,270.98,932.59z" />
<path class="cls-6" d="M223.78,948.29c-0.47,1.98,0.45,3.49,2.04,3.53c14.17,0.41-7.53,2.46-3.59,4.3  c-19.79-1.32-38.48-0.96-58.19-4.56C184.71,946.27,204.41,949.22,223.78,948.29z" />
<path class="cls-5" d="M208.56,884.76c3.4,2.87,8.13,4.2,11.3,8.96c-12.01,1.92-23.46,0.45-34.84,0.69l0.11-6.09  c2.74-2.69,6.91-3.73,12.51-3.12c3.25-1.07,6.12-1.12,8.61-0.16C206.68,884.62,208.1,884.37,208.56,884.76z" />
<path class="cls-7" d="M636.16,820.83l-85.39,1.89l-4.01,1.52c-32.19,1.07-64.32,3.09-96.4,6.06l-8.23-1.51l-52.27-21.21l-0.12-3.04  l7.12-4.38c-9.48-3.26-33.98-21.7-13.32-22.35c-9.41-5.59-25.4-20.61-3.44-16.57c-10.81-7.73-20.5-18.96,0.27-18.15  c1.36-0.82,2.89-1.66,4.53-1.53c10.54,0.86,34.31,10.36,44.35,15.33c17.82,11.39,34.83,23.78,51.02,37.16  c14.81,7.58,31.07,10.27,48.79,8.05l-29.81-11.92c-0.88-2.04,0.04-3.7,1.54-5.29c45.83,5.76,90.61,18.35,134.61,32.93L636.16,820.83  z" />
<path class="cls-3" d="M380.36,743.08c-1.89,3.25-6.23,2.37-10.73,4.12c4.24,7.28,11.56,9.61,16.13,15.87  c-5.15,2.13-9.65-0.23-15.13-0.5c4.21,7.19,11.61,10.12,18.24,15.62c-3.15,3.52-7.03,1.72-12.38,2.68  c6.38,8.5,14.83,15.07,25.66,18.32c-3.95,4.66-8.36,5.94-12.3,8.38c-21.67-8.79-60.76-5.88-97.79-32.02l1.93-10.78  c2.67,1.26,4.73,1.63,6.65,1.89c1.74,0.23,3.27-1.39,1.95-3.55c-0.55-0.91-2.04-2.37-3.07-4.7c4.18-4.83,11.68-1.94,15.36-7.41  c-1.78-1.86-5.23-0.6-7.03-2.22c-2.4-2.16,6.44-5.28,7.12-8.86c0.45-2.4-4.1-2.62-4.57-6.43c4.25-1.07,15.59-4.51,9.68-8.01  c-2.77-1.31-2.41-3.28-0.75-5.63l11.15-11.48c-5.07-3.4-4.43-8.27,1.92-14.6c0,0-0.48-1.34-1.45-4.03  c-2.61-2.57-1.43-6.76,2.62-5.69l-0.64-3.43c4.1-6.7,7.29-13.88,9.57-21.53c1.67-2.82,3.09-3.93,5.54-1.67  c2.75,9.14,7.07,17.22,12.96,24.25c1.24,3.31-1.05,5.25-4.33,5.17l10.88,16.93c0.39,3.4-1.9,5.59-6.85,6.57  c5.55,4.29,10.38,8.95,14.49,13.99c-1.2,3.19-3.89,4.97-8.05,5.35l13.21,10.04L380.36,743.08z" />
<path class="cls-7" d="M191.34,735.84c-55.65-6.49-92.68-44.87-136.86-76.62l109.49,52.28C173.14,719.18,186.77,720.36,191.34,735.84z  " />
<path class="cls-1" d="M89.65,741.64l-60.24-6.56c-6.54-0.71-13.63-4.31-21.46-3.79c4.62-9.02,14-5.21,21.78-5.91  c1.16-1.48,0.94-6.27,2.35-6.5l5.49-0.92c1.63-0.27,1.83-5.17,4.44-3.83c1.39,0.71,6.01,11.81,10.72,8.94  c1.78-1.08,0.95-5.28,3.68-9.26C66.62,724.4,82.17,730.23,89.65,741.64z" />
<path class="cls-3" d="M550.77,822.72c-8.72,10.71-38.45-1.4-41.44,10.58c-14.39,6.13-32.7-1.89-43.25,7.54  c-8.96-1.3-16.21-8.93-23.94-12.06C477.45,823.23,514.5,823.52,550.77,822.72z" />
<path class="cls-6" d="M900.14,845.45c-8.45,3.94-16.95,11.14-26.98,10.53l-141.71-8.71l7.94-3.43  C792.94,843.8,846.92,841.48,900.14,845.45z" />
<path class="cls-7" d="M998.79,790.04c18.69-16.14,41.48-27.19,65.56-36.15C1046.47,771.49,1024.4,784.56,998.79,790.04z" />
<path class="cls-4" d="M82.99,118.96l6.89,75.52c24.83,12.8,46.35,26.52,66.69,43.19c-9.6,0.74-14.19-5.7-23.57-6.76  c1.27,30.26,3.74,59.31,8.96,89.36c-12.34-28.55-10.34-59.46-15.35-91.07c-10.55-7.27-22.36-13.52-35.78-18.22l13.78,83.44  c2.38,14.41,6.26,27.35,10.64,40.34c0.03,4.39-6.28,4.99-9.28,2.9c-1.91-8.13-6.05-16.31-8.71-24.66l-54.59-30  c5.42-8.34-8.89-8.65-6.51-15.21c9.7,3.98,27.96,12.53,38.61,17.88l-8.62-176.9L82.99,118.96z" />
<path class="cls-12" d="M206.25,885.03c-3.92,3.75-15.21,3.07-21.12,3.28c-15.99,0.56-30.3-6.28-45.72-13.66l22.84-6.38  c-43.29,2.38-46.02,8.4-82.33-21.29c20.4-7.63,69.22-1.12,84.56,21.82C180.26,868.87,195.25,874.69,206.25,885.03z" />
<path class="cls-13" d="M940.13,1036.84l8.83,2.76c11.08,1.24,21.15,4.26,30.19,9.05c4.77,1.35,9.04,3.56,13.54,5.11  c-10.46,1.75-20.53-3.96-32.45-4.01c-20.3-0.09-41.35,2.78-60.58-3.72c10.16-11,24.28-2.41,33.89-9.25  C935.47,1036.68,938.2,1036.57,940.13,1036.84z" />
<path class="cls-8" d="M1051.37,1081.13c1.65-1.2,3.55-2.38,3.89-4.53c13.29-0.03,26.39,0.8,40.31,3.19  c19.41,3.34,38.56-1.15,58.31,4.77C1119.23,1083.55,1084.19,1080.39,1051.37,1081.13z" />
<path class="cls-8" d="M977.68,1045.92l1.47,2.73c-13.16-3.72-28.6-3.56-39.02-11.8C953.07,1038.63,967.69,1037.27,977.68,1045.92z" />
<path class="cls-8" d="M1017.9,1072.96c-3.25-1.09-9.21,1.99-9.65-2.59C1011.71,1070.05,1018.31,1068.27,1017.9,1072.96z" />
<path class="cls-3" d="M1043.3,1052.44c-1.78,0.05-4.54,0.87-5.47-1.06C1039.64,1051.53,1042.22,1050.55,1043.3,1052.44z" />
<path class="cls-7" d="M337.36,305c-3.63,27.64,7.18,54.64,9.78,82.74c3.9,42.06,14.53,79.22,28.26,119.21  c12.05,35.12,19.53,71.29,45.17,100.36c58.04,32.27,118.77,62.3,171.88,103.38c31.66,24.49,57.9,52.88,94.2,74.33  c-38.48-10.06-66.46-35.14-96.11-58.81c-31.99-25.54-69.61-40.61-105.49-59.11l-80.91-56.48l-62.89-108.62l-2.63-0.51  c-7.5-45.74-14.87-91.51-22.12-137.31l-12.09-53.76c-2.21-7.19-1.92-13.34,0.9-18.47C316.02,295.36,329.27,296.79,337.36,305z" />
<path class="cls-2" d="M195.6,246.43c7.09,32.1,12.89,65.92,24.28,98.06c13.96,39.38,24.57,77.54,37.83,117.35l45.97,137.96l-3.34,0.7  l-13.98-10.05c-3.82-2.28-5.08-4.84-3.78-7.67l-7.91-17.31L227.22,461.3c-9.35-20.54-8.25-42.55-15.63-63.54  c-7.78-22.13-21.56-40.59-25.33-64.49c-5-31.68-6.52-63.76-3.98-95.07C187.51,238.85,192.17,242.52,195.6,246.43z" />
<path class="cls-2" d="M305.29,291.95c0.45,25.13,10.14,48.63,14.21,74.08l21.73,135.98c-1.48,0.29-2.01,2.35-4.13,3.36  c-8.96-31.55-17.77-62.02-25.05-94.42c-5.92-26.37-15.14-51.32-23.19-77.48c-5.31-17.24-15.9-32.17-18.27-49.93  C282.48,285.12,294.02,288.37,305.29,291.95z" />
<path class="cls-3" d="M566.29,782.01l-8.67,0.15l-77.96-19.92c-4.73-1.02-5.65-3.61-3.17-7.17c1.71-2.46,11.19-1.18,14.17-0.13  c-0.52-4.4,0.6-6.86,3.36-7.38c2.96-7.22,1.12-16.09,8.68-22.63c5.93,10.55,8.3,22.3,11.98,33.46c8.51-7.91,5.27-17.37,11.77-25.25  c7.03,12.55,6.25,37.1,17.03,38.04c5,0.44,4.67-23.99,12.36-31.65C561.39,754.02,567.26,767.38,566.29,782.01z" />
<path class="cls-15" d="M183.52,218.15c-0.01-5.56,0.79-10.59,1.33-15.98c3.16,0.07,6.2-0.81,9.29-1.28c1.87-0.28,3.83-0.09,6.25-0.64  c2.42-0.55,2.05,2.79,0.43,4.06c-1.4,1.1-2.76,2.67-4.88,3.64l-6.02,2.75c-3.29,1.5-2.51,4.9-0.81,5.86  c3.25,1.84,6.06,0.69,10.05,0.22c-0.4,3-4.52,4.83-7.15,5.58C188.34,223.4,187.08,218.37,183.52,218.15z" />
<path class="cls-15" d="M0,66.96V0h1200v132.17c-39.82-2.68-73.85,18.71-90.3,55.55c-22.46-19.57-48.01-28.74-75.99-21.83  c-24.28,5.99-44.14,24.12-52.59,51.13c-19.23-15.9-41.22-21.82-64.98-16.31c-19.5,4.53-35.38,20.84-45.77,41.48  c-36.65-4.79-72.04,4.35-108.41,9.84c-42.25,6.37-84.91,3.07-127.8,12.97l502.81,0.29c-2.3,3.82-4.58,7.46-7.92,10.7  c-10.03,4.03-20.23,7.21-30.83,9.41c-4.61,0.95-9.22,1.79-14.1,4.99l-12.77,72.75l-63.14,10.75c-6,1.02-16.54,0.41-16.99,7.63  c-15.73,2.83-31.78,4.97-47.02,9.55c-3.89,1.17-10.52-0.73-10.93,5.38l-2.3,0.1c-0.64,0.03-2.14,0.14-1.61,1.13  c-7.08,0.78-12.56,1.47-21.08,3.53c-2.01,15.06-9.04,28.87-12.08,42.49L787.5,455.26c-4.59,8.12-6.23,20.38-15.7,22.94  l-187.83,10.11c-32.34,1.74-58.63,0.88-90.19-8.53c-28.83-8.59-59.94-9.14-89.21-14.89c-13.87-29.11-17.63-62.01-21.64-94.01  l230.77-0.79c-35.31-5.35-69.01-9.63-103.59-11.25c-14.45-8.27-29.6-8.36-45.21-7.01c-17.23-24.66-50.53-30.52-71.14-9.22  c-2.16,2.24-3.02,5.61-5.29,6.6c-2.74,1.2-5.61-0.38-8.18-0.8c-0.69-9.77-1.9-19.54-3.53-30.21c-7.25-4.18-14.4-7.27-21.89-9.04  c-1.34-14.96-3.55-26.49-9.67-42.81c-4.14,6.39-2.06,14.77-10.44,20.19c2.07-7.43-1.18-10.04-5.67-14.71  c3.52-0.62,4.76,1.74,5.64,0.33c0.43-3.35-10.67-5.67-4.73-8.29c-2.49-9.2-4.72-20.06-9.32-30.85c-8.83,16.68-9.76,29.69-16.87,34.2  c6.22,0.87,3.56,2.86,2.76,3.78c-1.78,2.02-3.27,3.15-4.62,2.35c-2.03-1.21-2.18-3.86-3.54-6.43c-3.74,1.29-1.35,5.91-6.2,8.47  c-3.13-8.75-2.66-18.17-7.07-27.27c-4.23,4.51-2.72,12.42-9.18,15.67l-12.93-40.36c-3.8,5.94-10.69,30.4-11.92,32.1  c-2.69,3.7-18.42-0.35-2.87-1.67c-9.17-0.86-7.93-4.19-9.41-9.79c0.23,0.87-6.26-5.41-5.53-6.14c1.74-1.74,4.68-0.22,6.67-1.7  c-5.69-5.34-10.63-10.95-14.94-17.9c4.85-0.16,8.69,1.98,12.96-0.4c-5.52-5.11-11.05-8.94-14.49-15.8c4.91,0.95,9.45,2.27,12.2-1.01  l473.57-0.31c-54.67-12.81-109.93-13.14-165.95-20.5c-23.18-3.04-45.63-18.73-72.53-7.07c-11.99-27.93-32.12-47.06-59.34-55.09  c-33.04-9.74-66.32,1.64-86.47,29.27c-14.36-10.74-29.09-15.33-45.69-12.58c-13.48,2.24-25.99,11.5-33.79,25.57  c-10.4-5.96-20.71-9.61-31.19-7.83c-0.46,0.08-1.03-0.06-1.5-0.12c-10.02-1.21-20.49,1.94-29.33,6.73l-10.1-9.54  c2.96-1.67,5.87,0.84,8.97-1.75c-4.81-2.89-9.98-4.78-11.81-9.64c2.4-0.21,3.45,0.12,5.28-0.29c2.68-0.6-2.61-4.51-3.33-5.08  l-3.39-2.67c-1.25-0.98-2.18-2.83,0.08-3.19c1.01-0.16,5.27,0.41,4.57-2.16c-0.52-1.92-4.6-2.21-7-4.23  c-3.7-3.12,5.27-1.76,1.25-4.75c-5.95-7.55-7.19-17.16-12.03-25.91l-9.21,18.58c5.58,4.2-5.83,8.73-8.55,13.61l9.07,0.59  c0.07,6.35-15.77,5.57-6.95,10.26c-2.99,1.71-5.22-0.11-7.11-0.96c-4.81-2.15-2.75-6.32-0.69-8.41c-3.66-3.29-8.41-3.93-11.86-7.51  l11.91-2.83c-5.86-4.63-13.07-6.77-17.58-13.69l13.21-0.78l-14.09-9.73c1.56-0.72,3.05-0.34,4.68-0.17  c2.48,0.25,1.91-1.87,0.58-2.67c-1.79-1.09-3.51-1.04-5.88-3.56c3.28-2.69,6.77,1.77,10.78,0.78c-4.69-6.48-14.97-9.01-12.44-16.08  c0.6-7.94-8.68-15.54-9.1-24.02L89.2,72.11c9.95,1.42-6.53,8.07-6.47,11.77c23.63-2.17-11.45,10.62-11.08,10.74  c-4.8-1.6-9.75-5.44-10.96-9.79c3.13-0.18,4.21,0.05,5.67,0.25c1.36,0.19,3.27-0.69,2.71-2.35c-0.36-1.09-3.19-2.63-4.02-3.97  c5.42-8.82-18.36-16.25-2.47-16.09c-4.25-5.74-10.39-10.34-5.31-12.72l-10.8-27.54L32.73,49.69c10.81,1.96-3.79,9.96-9.3,11.75  c0.85,4.16,5.66,1.2,7.23,4.29c-4.6,3.43-9.63,3.8-11.58,7.84c-4.48-0.36-8.04-3.37-12.39-4.31C4.64,68.82,2.75,65.63,0,66.96z" />
<path class="cls-15" d="M75.15,97.48c0.67-2.15,3.41-0.68,4.33-1.06c0.72-0.3,3.17,0.09,2.09,1.94  C80.97,99.38,74.33,100.12,75.15,97.48z" />
<path class="cls-13" d="M821.61,865.51l-196.83,1.25c15.25-8.53,31.33-6.15,47.71-7.67L821.61,865.51z" />
<path class="cls-13" d="M639.82,854.58c2.35-1.3,5.29-2.66,4.32-5.73c13.44,0.55,26.92-3.33,40.37,1.49  C666.96,847.17,652.21,865.5,639.82,854.58z" />
<path class="cls-8" d="M606.99,868.5c1.51,9.79-15.44,8.69-24.39,9.93c-1.53-4.57,1.97-7.8,4-11.72  C593.37,867.85,600.26,866.77,606.99,868.5z" />
<path class="cls-8" d="M641.4,840.83c-0.12-2.21-0.62-4.37-1.04-6.53c7.48,1.04,15.87-1.44,23.36,3.46  C656.14,842.5,648.39,840.59,641.4,840.83z" />
<path class="cls-1" d="M583.74,1090.42c-13.36-3.26-22.82,7.8-27.84,19.67c-10.01,23.66-6.66,55.74,17.17,65.65  c1.74-1.74,4.42-2.18,8.03-1.31l15-1.08c3.33,1.01,4.79,2.57,4.37,4.67c-4.13,4.47-5.98,9.36-5.56,14.65l22.84-2.18l6.09,2.54  c9.73,8.42,22.02,14.4,33.75,18.76l-4.52,2.58c-16.04-0.29-30.73,3.72-45.58,9.33c-18.14,6.86-20.85,10.39-13.92,28.47  c0.26,5.06-1.18,8.45-6.8,8.86c-10.26,0.74-21.05,0.54-31.37,0.05c-41.25-1.97-82.5-9.26-122.57-16.47l-1.62-1.98  c2.43-5.55,25.22-6.81,26.82-11.34c1.21-3.44-0.35-6.04-1.25-8.75c-0.67-2.03,1.44-5.26-1.1-6.91c-2.59-0.21-2.57-1.26-0.05-2.09  l3.88-1.64c7.92,2.78,15.98,5.08,24.17,6.9c1.75,3.6,1.89,2.37,0.4-3.68c-0.67-10.07-0.93-46.52,2.64-53.3  c0.58-1.1,1.33-2.11,2.13-3.1c2.97,0.39,6.36-0.33,8.32,2.56l1.92,7.47c-1.14,17.77-1.28,35.52-0.42,53.27  c10.21,0.73,20.55,1.72,31.02,2.97l21.08-0.67l9.3-43.14l-11.91-14.03l0.91-3.31c-15.54-27.6,1.81-79.64,27.27-79.25  C579.33,1084.63,582.37,1087.05,583.74,1090.42z" />
<path class="cls-3" d="M657.59,1211.79c0.41,0.02,0.96-0.07,1.34,0.08c13.6-0.62,28.66,10.84,20.93,25.13  c-11.09,20.48-67.79,32.39-89.87,32.65c-46.54,0.54-116.73-6.28-160.57-21.69c-1.16-0.41-2.21-1.18-3.25-2  c-1.07-0.85-2.02-1.84-2.93-2.89c2.52,0,5.49-1.09,7.99-0.44c14.3,3.72,29.17,3.43,44.67,6.27c36.43,6.68,72.3,10.92,109.29,9.57  c16.78-0.61-9.38-21.13,8.84-31.22C613.53,1216.46,635.78,1210.89,657.59,1211.79z" />
<path class="cls-1" d="M404.55,1242.8c3.78,5.09,12.57,0.26,18.69,0.27c47.41,16.55,102.93,20.83,155.06,23.91  c34.93,2.06,110.2-17.21,99.96-42c-3.14-7.6-11.75-10.14-19.32-13.11c6.25,2.14,11.7-3.26,18.44-4.15  c11,2.42,20.42,22.16,12.49,32.67c-36.26,48.06-116.8,44.1-169.98,35.28l-123.23-20.46C393.89,1249.06,400.12,1244.99,404.55,1242.8  z" />
<path class="cls-8" d="M793.98,1130.37c-0.62,1.03-1.45,1.94-2.5,2.55c1.21,3.41,0.55,3.64-2.7,2.67l-77.71,26.59  c-1.26,3.19-3.86,3.69-7.78,1.5l6.67-22.38c-2.74-3.27,4.56-13.2,8.27-13.67C775.96,1112.97,770.01,1129.41,793.98,1130.37z" />
<path class="cls-1" d="M711.07,1162.17c9.17,0.36,73.33,5.11,69.34,15.03c-0.62,1.53-4.64,4.48-6.78,3.3  c-17.51-9.64-37.5-12.1-57.85-12.08c19.55,12.24,38.1,21.58,49.26,40.33c-10.73,6.9-19.37,13.19-29.44,24.2  c-10.77-19.98-28.98-29.36-47.45-43.85c20.61,1.18,32.84,20.23,48.37,32.24c6.54-2.52,12.92-7.76,19.35-14.19l-62.07-26.27  c19.49,0.51,35.8,10.85,54.17,16.64l-44.68-33.86C705.82,1163.19,708.44,1162.07,711.07,1162.17z" />
<path class="cls-12" d="M719.18,1115.55c0.44,3.77,0.06,8.44-0.96,12.08c-1.4,5-5.82,9.64-8.27,13.67c-7.98-2.47-15.95-6.15-24.3-4.48  c-3.23-0.18-5.12-2.33-2.62-5.12c-4.44-0.91-4.69-9.03-0.16-10.53c1.27-3.92,3.36-8.33,6.08-10.08  C692.51,1108.8,718.1,1106.37,719.18,1115.55z" />
<path class="cls-7" d="M623.84,1193.04c-10.01-0.09-19.79,1.13-31.01,2.61c-2.01-6.94-0.27-12.64,6.21-19.41  c-11.2-1.19-17.85,2.9-25.99-0.49l0.64-30.54C593.44,1172.23,605.55,1177.2,623.84,1193.04z" />
<path class="cls-1" d="M682.87,1121.16c-0.99,3.06,0.09,7.41,0.16,10.53c-0.42,4.13-3.93,6.65-10.53,7.56l-25.28,4.23l-2.88-1.91  c-2.81-3.25-8.3-5.95-9.32-10.8C651.15,1128.73,667.23,1125.49,682.87,1121.16z" />
<path class="cls-8" d="M685.65,1136.81c-6.79,8.79-16.45,15.49-25.2,23.87c-7.13-6.07-10.94-13.14-16.1-19.12  c12.76-4.02,28.04-2.06,38.68-9.87C683.5,1133.12,686.25,1134.71,685.65,1136.81z" />
<path class="cls-1" d="M788.78,1135.58c0.39-1.32,1.58-2.02,2.7-2.67c0.17,6.87,7.95-2.03,11.09,6.4  c-6.43,3.13-20.5,16.56-24.08,11.68c-0.96-1.3-1-4.11,0.43-5.58c2.14-2.2,7.78-2.21,10.15-4.72  C790.29,1139.39,790.46,1137.14,788.78,1135.58z" />
<path class="cls-4" d="M456.56,1127.57c-0.53,2.48-0.78,4.98-1,7.5c-0.93,10.34-2.48,23.12-8.61,31.45  c-1.73,3.97-4.47,7.55-8.21,10.73c4.01,2.58,6.78,5.7,8.29,9.37c2.55,1.23,3.61,4.03,3.2,8.4c0,0,1.08,3.8,3.25,11.41  c2.31,2.49,3.04,4.86,2.17,7.12l0.05,2.09c-15.58,5.6-30.19-4.42-45.9-6.62c-3.45-5.28-10.09-6.98-14.73-10.38  c-5.94-4.35-11.38-12.27-12.19-18.35c-1.14-8.53,2.86-16.69,8.44-23.1c6.21-7.14,71.59-79.28,81.69-70.87  C463.49,1099.41,460.28,1113.46,456.56,1127.57z" />
<path class="cls-9" d="M583.9,1016.76c0,2.64-2.12,4.94-6.35,6.93l0.25,13.62c-2.28,25.68-12.12,15.16-15.75-2.19  c-7.75,4.76-16.41,7.21-25.42,8.05c-7.01,0.66-19.37,1.48-23.61-3.95c-0.44-0.07-0.93-0.04-1.38-0.04  c-8.33-4.33-7.92-14.13-8.02-22.75l2.49-2.09c8.98,4.57,41.71,4.01,12.48,1.52c-7.93-0.45-12.51-3.32-13.73-8.64  c2.21-22.62,20.95-37.97,43.77-38.29c21.59-0.3,42.81,13.89,45.12,37.12C594.24,1011.07,586.77,1013.53,583.9,1016.76z" />
<path class="cls-3" d="M549.1,1163.84c3.83,5.72,10.03,10.44,13.53,17.06c-3.46,15.47-4.95,30.51-10.23,45.24  c-18.42,3.78-36.64,0.38-55.53-2.71c-2.03-21.11-2.1-41.67,0.31-62.14C514.38,1163.85,532.01,1167.36,549.1,1163.84z" />
<path class="cls-3" d="M488.86,1158.73c-2.34,20.73-2.2,41.22-2.05,63.31c-11.64-1.65-21.39-5.68-31.17-8.49  c-7.06-6.05-8.57-17.69-8.61-26.93c-4.21-4.3-4.11-15.65-0.08-20.1c2.03-13.26,6.22-26.09,9.61-38.95  c-1.29,9.4,1.75,19.11,10.8,23.98C474.24,1155.25,481.58,1157.78,488.86,1158.73z" />
<path class="cls-1" d="M583.9,1016.76c0.22,0.51,1.06,0.9,1.16,1.44c-0.24,17.06-1.32,37.15-10.61,51.58  c-2.79,1.02-4.38,3.44-7.69,3.9c-1.57-2.89-2.08-6.64-1.55-11.26c-0.48-4.55-1.76-8.52-3.86-11.91  c-4.78,6.49-11.35,10.51-19.17,12.19c-5.77,1.24-18.79,2.32-21.23-3.47c-2.69-6.65-6.12-13.06-7.94-20.02  c17.63,2.84,35.38,2.67,51.01-8.71c1.18,8.11,2.57,15.18,8.19,20.73c4.08-9.02,2.76-17.97,2.58-26.8  C574.69,1019.39,581.81,1019.12,583.9,1016.76z" />
<path class="cls-7" d="M566.77,1073.69c-4.31,0.6-8.83,4.57-13.53,3.12c-5.57,1.05-11.32,0.69-17.24-1.08  c-7.44,0.12-13.75-1.41-18.93-4.59c1.68-3.84,3.12-7.77,3.87-11.9c16.65,3.81,32.67,1.6,41.55-15.63  C566.08,1054.22,570.41,1064.24,566.77,1073.69z" />
<path class="cls-1" d="M517.08,1071.14c12.3,0.86,24.33,2.01,36.16,5.67c-16.37,10.58-41.39,13.67-57.73,1.32  C495.57,1066.41,508.74,1070.56,517.08,1071.14z" />
<path class="cls-6" d="M343.49,1106.2c0.83-3.75-11.77,17.55-19.11,10.11c-3.29-3.33-9.52-4.91-4.15-10.83  c-4.46-1.2-9.04-3.13-8.46-7.49c10.06-4.45,22.48-5.26,32.33-3.15C341.98,1100.44,344.21,1102.95,343.49,1106.2z" />
<path class="cls-11" d="M586.7,1041.67c-2.42,10.79-1.86,24.32-12.24,28.11c4.75-17,7.11-34.37,10.61-51.58  C586.38,1025.1,588.32,1034.43,586.7,1041.67z" />
<path class="cls-15" d="M877.13,991.97c0.16-2.11,0.13-4.23,0-6.34c17.9,2.53,36.5,0.2,55.44,5.85  C913.95,994.03,895.43,991.33,877.13,991.97z" />
<path class="cls-4" d="M503.61,1016.43c-0.04-3.4,0.95-6.16,1.24-9.21c9.37,8.35,21.71,5.54,35.53,8.26  C529.39,1024.32,515.36,1019.63,503.61,1016.43z" />
<path class="cls-7" d="M115.25,334.76l57.35,170.12c-6.1-1.1-6.6-9.99-12.18-13.59c-6.39,6.65,2.51,18.17-6.22,21.53  c-11.28-32.21-22.18-64.53-30.17-98.44l-18.07-76.72C108.76,335.3,112.3,336.23,115.25,334.76z" />
<path class="cls-7" d="M333.6,684.04c-1.29,1.43-1.14,4.28-2.62,5.69c-1.13,0.18-2.25,0.3-3.37,0.24c-1.09-0.06-2.12-0.15-2.95-0.59  c-36.16-19.4-67.47-49.97-91.35-83.1c-3.33-11.31,0.68-8.85,10.33-1.43c30.89,20.23,60.58,48.11,86.94,73.79L333.6,684.04z" />
<path class="cls-7" d="M665.52,820.57c-7.94,0.9-16.01,0.25-24.01,0.26c1.34-5.31,14.82-4.92,19.36-3.61  C662.63,817.72,664.3,819.2,665.52,820.57z" />
<path class="cls-9" d="M435.12,1331.08c-3.23-2.4-7.81-1.04-11.04-1.98c-13.08-14.36-25.85-27.76-40.65-41.56  c38.54,5.34,73.59,13.76,111.88,23.08L435.12,1331.08z" />
<path class="cls-9" d="M482.55,1301.04c-36.48-7.44-72.37-16.83-109.85-21.72l-19.92-15.01  C397.99,1264.02,441.95,1276.66,482.55,1301.04z" />
<path class="cls-9" d="M415.63,1329.68c-38.15-16.76-76.49-31.6-117.47-40.78l72.91-3.82  C386.54,1299.77,402.89,1311.48,415.63,1329.68z" />
<path class="cls-3" d="M892.07,967.02c-1.4-0.24-3.3,0.46-4.12-1.09C889.26,966.04,891.64,965.31,892.07,967.02z" />
<path class="cls-8" d="M630.74,836.35c2.59-1.13,4.96-1.04,6.88,0.05C635.47,837.45,632.88,837.59,630.74,836.35z" />
<path class="cls-9" d="M203.32,558.24c26.39,7.77,53.88,13.65,79.26,24.54c5.27,7.14,14.62,11.32,21.1,17.02  c21.16,18.61,44.55,34.46,67.57,52.44c41.25,32.21,80.5,66.17,122.77,95.32c-1.33,3.25,0.46,7.03-0.64,10.84  c-6.3-1.53-12.68-3.9-17.08,0.08c30.9,9.18,61.09,14.33,89.99,23.53l63.35,20.17c11.28,8.46,31.84,5.98,35.88,18.38  c-7.64-1.39-16.4-1.93-24.01,0.26l-5.36,0.01l-82.46-24.52l-54.24-8.93l42.74,17.02c-22.14,0.25-48.06,3.95-65.72-9.79l-33.19-25.83  c-17.9-13.93-41.41-19.74-62.93-25.7c-6.48-5.22-14.41-8.84-18.82-16.35c4.17-1.06,8.01,0.95,11.73-2.22  c-6.17-5.82-13.18-9.1-17.61-16.61l10.35-1.81c-5.21-8.15-10.8-14.39-13.77-22.99c2.56-0.34,4.08,2,7.58,0.66  c-7.82-6.79-10.87-15.96-13.78-26.19c-4.19,9.94-6.1,19.43-12.44,26.46c-31.04-30.24-64.75-57.91-101.49-84.25  c24.95,37.37,61.09,70.32,98.87,89.95c1.36,0.71,4.01,1.36,4.57,2.47c1.06,2.08-4.9,7.44-6.04,10.51c-1.06,2.86,2.71,3.01,5.01,3.33  c-2.49,8.8-13.37,10.92-14.41,19.42c-26.24-4.65-53.5-22.21-78.9-16.8l-6.47,1.38c-5.63-4.54-12.86-7.56-16.85-14.68  c6.02,0.87,10.94,5.27,14.69-0.38c-6.01-7.69-16.18-9.17-20.05-19.04c7.35,1.44,13.82,4.95,20.71,1.27  c-9.34-6.83-19.35-12.35-26.18-23.04c7.07-0.52,13.42,3.28,20.15-0.68c-9.03-7.4-18.61-13.16-22.76-24.31  c7.04,1.91,12.94,5.93,17.74,0.71c-8.13-6.94-16.7-13.41-19.63-23.34c7.05,0.66,12.16,3.61,17.11,0.6  c-9.77-9.31-20.28-16.8-22.73-29.96c3.69,1.13,7.24,3.77,11.01,1.76c-6.24-7.19-12.13-12.7-14.16-21.88  C197.37,558.47,200.84,557.51,203.32,558.24z" />
<path class="cls-8" d="M446.95,1166.52l0.08,20.1c-4.44-2.2-8.15-5.3-12.12-9.41C439.02,1173.12,442.26,1168.7,446.95,1166.52z" />
<g>
</g>
<g>
</g>
<g>
</g>
<g>
</g>
<g>
</g>
<g>
</g>
<g>
</g>
<g>
</g>
<g>
</g>
<g>
</g>
<g>
</g>
<g>
</g>
<g>
</g>
<g>
</g>
<g>
</g>
</svg>