<?xml version='1.0' encoding='UTF-8'?>
<svg xmlns="http://www.w3.org/2000/svg" id="Layer_1" viewBox="0 129.8 1200 1540.8" xml:space="preserve" width="1200" height="1800">
<style type="text/css">
      .cls-1 {
        fill: #2f201a;
      }

      .cls-2 {
        fill: #473229;
      }

      .cls-3 {
        fill: #65420f;
      }

      .cls-4 {
        fill: #6e5246;
      }

      .cls-5 {
        fill: #2f748b;
      }

      .cls-6 {
        fill: #398296;
      }

      .cls-7 {
        fill: #7f886e;
      }

      .cls-8 {
        fill: #c38835;
      }

      .cls-9 {
        fill: #6ba7b2;
      }

      .cls-10 {
        fill: #be9776;
      }

      .cls-11 {
        fill: #9bc2c7;
      }

      .cls-12 {
        fill: #adcccc;
      }

      .cls-13 {
        fill: #c9dcda;
      }

      .cls-14 {
        fill: #dfe7e2;
      }

      .cls-15 {
        fill: #fbf6e7;
      }

      .cls-16 {
        fill: #ffffff;
      }

    </style>
<path class="cls-15" d="M1200,128.76v223.2c-0.12,0.74-0.41,1.86-0.93,1.88c-2.86,0.07-19.78-0.58-21.36-1.31  c-1.28-0.59-8.46-10.15-6.11-11.87l-2.19-1.46c1.03-8.09-1.13-12.45-6.49-13.07l-9.76-0.8l-0.92-2.1l-2.38-1.62  c-2.83-0.15-5.26-2.14-7.27-5.97c-2.79-3.84-7.92-11.4-4.19-15.1l-2.04-1.15c-4.61-12.98-25.19-24.08-38.78-22.26l-2.33-1.58  c-5.26,0.23-8.46-0.1-9.94-5.81c-2.39-0.39-3.06-2.67-1.34-4.42c-2.24-0.96-3-2.88-1.87-5.03c-3.53-1.28-5.32-4.57-5.38-9.85  l-1.14-3c-2.32,7.44-5.1,14.62-8.32,21.55c-7.63-0.49-14.32-2.76-20.08-6.8c0.09-7.41-1.83-14.81-5.76-22.21  c-1.58,6.77-3.62,13.39-6.11,19.85c4.82,7.33-8.78,9.85-11.56,2.26l-2.85-6.63c-0.85,4.47-2.56,7.9-5.12,10.28  c-4.54,0.79-9.01-12.31-10.21-15.9c-2.46,4.79-4.2,9.86-5.22,15.23c-2.63,2.61-4.66,1.13-6-1.78c-4.12,11.91-10.2,2.11-11.78-5.6  c-1.16,3.76-2.95,6.81-5.36,9.15c-1.33-0.1-2.57-0.54-3.74-1.34c-2.87,9.55-6.8,8.47-14.18,2.87c-0.3-1.58-4.35-16.12-5.42-15.68  c-1.64,0.67-5.68,16.61-6.12,19.74c-2.55,2.22-2.81,3.15-0.8,2.8c2.54,4.11-1.72,5.55-5.18,6.7c-5.4,1.79-15.11,0.33-8.11-6.38  c-1.76-1.91-2.64-2.86-2.64-2.86c1.22-2.83-2.41-13.24-4.28-14.97c-1.33-1.23-1.93,8.61-1.47,9.45c-1.61,1.65-1.75,2.44-1.74,4.7  c-2.36,1.96-2.91,3.17-1.63,3.62c3.39,6.43-17.67,8.01-18.83,7.2c-0.76-0.53-1.19-1.35-1.43-2.23c-0.04-0.97-3.09-12.69-3.47-12.18  c-0.98,1.3-9.02,16.87-8.73,17.82c4.02,3.73-0.08,5.84-3.5,7.52c0.11,0.84-0.2,0.86-0.86,0.2c-7.27,4.49-15.34,7.57-24.19,9.25  c-31.76,8.2-63.54,16.15-95.33,23.84c-13.22,2.13-26.54,2.63-39.97,1.5c-2.27,2.37-5.53,3.87-9.76,4.5  c-13.5,5.62-26.68,10.18-41.27,10.97c-3.65,0.65-6.92,2-9.89,4.21c-4.74,3.54-12.27,9.81-14.71,14.98  c151.93,5.43,301.77,10.29,449.53,14.59c33.5-1.46,66.65-1.3,99.45,0.49l1.08,1.96v50.99c-2.43,2.52-4.76-1.67-3.91-3.75  c-15.68-0.68-31.27-2.23-46.76-4.66c-11.58,0.94-23.16,2.05-34.76,3.33c-22.69-1.58-45.56-1.22-68.59,1.09  c-29.82-0.21-59.72-0.16-89.72,0.18c-65.89-3.45-131.55-6.57-196.97-9.37c-40.76-2.09-81.91-4.73-121.5-14.56  c-22.15-1.77-41.35-6.14-59.71-18.96c-18.05-10.12-38.59-9.41-57.76-5.16c-3.89,0.3-12.5,0.92-12.51-4.04  c-7.48-0.65-11.4-4.04-15.78-9.77c-2.33-0.7-3.71-1.79-4.14-3.27c-2.98,1.42-7.08,1.53-10-0.11l-1.45,1.64  c-13.44-3.18-27.13-5.2-41.09-6.07c-5.37-1-10.9-2.38-15.38-5.67c-1.62,0.48-3.44,0.71-5.14,0.71c-12.07,0.01-24.9,0.07-34.4,8.49  c-5.27,4.37-28.61,8.39-33.62,5.51c-0.89-0.51-1.54-1.22-1.94-2.17c-0.82-0.32-1.61-0.82-2.37-1.51c-1.41,1.41-2.84,0.82-4.3-1.78  c-23.87-5.93-47.45-12.79-70.74-20.58c-2.5-4.14-5.84-6.92-10.02-8.33c-1.18-3.58-3.1-6.39-5.76-8.45  c-7.22-1.68-14.38-3.7-21.5-6.05l-0.81-2.1c-1.93-1.08-3.78-2.27-5.54-3.57c-1.36,1.18-2.15,0.76-1.93-1.03  c-1.58-0.62-2.33-2.09-2.25-4.41c-6.89,0.14-13.81-10.63-7.56-14.66c-0.38-0.66-0.26-1.54,0.2-2.22c-2.78-0.94-1.91-4.53,0.7-5.51  c-0.1-0.89-0.09-1.87,0.8-2.3c-1.27-0.93-1.91-1.4-1.91-1.4c1.53-9.44,2.69-18.87,3.49-28.3c-0.76-2.06-0.76-3.9,0-5.51  c-2.66,0.04-2.68-0.66-0.3-1.87c-1.26-0.46-2.26-1.15-3-2.04c-0.29,1.93-1.19,1.74-1.62-0.22c-1.3-0.76-2.65-1.32-4.05-1.69  c-1.09,0.62-2.17-0.07-3.02-0.86c-1.49,4.28-8.15-1.45-3.93-3.72l-1.38-2.38c-0.91-0.06-1.97-0.45-2.05-1.26  c1.55-8.61-0.81-13.65-7.08-15.12c-9.71,0.54-17.48-2.06-23.33-7.8l-108.09-10.2c-16.6-8.7-35.35-12.37-53.83-8.41L0,190.08v-61.44  l0.93-1.92c0,0,399.29,0.04,1197.87,0.12L1200,128.76z" />
<path class="cls-14" d="M507.82,375.21c13.04,7.72,24.12-6.76,57.65,1.92c15.35,3.98,27.73,16.43,43.81,20.07  c11.19,2.53,23.23,2.57,35.04,5.61c42.56,10.97,115.98,13.53,160.81,14.91c56.03,1.72,111.24,7.85,166.78,7.78  c6.55-0.01,56.09-0.84,56.66-0.8c21.26,1.77,41.37-1.46,62.11-2.03c7.52-0.21,15.27,1.59,23.86,1.42  c14.09-0.28,29.18-5.09,41.33-2.66c14.02,2.81,27.68,2.96,41.15,4.48c0.84,2.33,1.12,4.63,2.99,5.17v156.53  c-0.83,0.53-1.64,0.93-2.42,0.86c-24.51-2-39.43-8.56-56.15-25.23c-8.82-7.01-19.05-12.19-30.36-13.69l-51.21-4.89  c-22.3-1.74-44.56,3.22-64.09,14.1l-4.29,0.26l-9.04,4.79c-4.13,1.65-8.26,1.62-12.39-0.08l-105.54-1.1  c-51.6,1.03-104,1.78-152.92-2.2c-48.99,1.02-98.05,1.61-147.2,1.78c-34.33,0.81-68.56,1.96-102.68,3.46  c14.22,2.32,28.21,5.58,41.96,9.79c31.88,14.4,3.58,21.54-14.66,23.2c-18.61,1.06-37.08,1.4-55.4,1.03  c-34.72,3.72-69.52,5.48-104.41,5.27c-97.2-5.08-195.34-9.63-291.59,3.85c-11.6-0.38-23.17-1.07-34.73-2.09L0,604.8V369.6l6.24-1.17  c44.03,2.69,89.02,3.79,134.98,3.28c117.41-0.48,234.39-0.12,350.96,1.7C497.44,373.5,502.65,374.32,507.82,375.21z" />
<polygon class="cls-16" points="0,128.64 0,0 1200,0 1200,128.76 " />
<path class="cls-16" d="M285.16,1671.59l0.68-1.92l171.9,0.17l10,1.93l0.67-1.92c65.22-0.03,130.45-0.05,195.69-0.07l1.19,1.92  l9.98-1.93c65.59-0.06,131.06-0.12,196.4-0.19l1.18,1.92l16.64-1.9c103.37,0.12,206.48,0.23,309.33,0.35l1.19,1.92V1800H0v-127.68  c0-0.73,0.07-1.77,0.6-1.94c1.56-0.49,21.9-0.95,24.13-0.66l5.7,1.76l0.92-1.92c81.86,0.01,163.85,0.06,245.98,0.15L285.16,1671.59z  " />
<path class="cls-13" d="M1200,590.2v3.19l-2.47,2.45c-14.65,1.74-28.86,5.04-42.64,9.9c-34.1,20.55-72.46,20.1-110.94,18.79  c-32.01-7.43-59.86,2.95-90.03,14.2l-37.44,11.21c16.37,1.82,32.81,2.96,49.35,3.42c18.55,3.57,37.23,5.11,56.01,4.62  c12.11-2.06,24.14-2.76,36.08-2.08c35.03,8.12,71.07-4.15,101.73-21.43c10.55-10.17,20.94-20.51,31.17-31.03  c3.4-3.64,6.45-4.82,9.17-3.53V650l-2.64,2.66c-20.12,5.62-36.15,19.8-50.8,34.08l13.29-2.93c12.94-0.38,25.37-2.74,37.29-7.08  l2.86,0.88v4.8l-1.56,3.59c-16.74,13.77-35.1,28.36-57.12,22.3l-32.9-11.67c-29.98-10.82-63-6.41-89.26,11.56l-4.18,0.57l-3.38,0.94  c-27.13-1.23-54.39-1.23-81.5,1.22l15.77,4.89c1.49,1.81,2.25,3.13,0.05,4.43c-19.24,3.73-38.92,4.04-59.05,0.93  c-9.67-0.6-19.25,0.33-28.87,2.16c-56.5,11.86-112.67,16.24-170.71,14.48c-67.03-1.41-133.29-3.86-198.78-7.37  c-3.37-0.2-5.22-1.48-5.56-3.84l-0.99-3.1c9.13-30.95,13.42-66.69-0.3-96.89c-3.77,13.07-7.17,26.24-10.21,39.51  c-8.17,25.36-30.28,44.21-50.22,61.2c-0.55,0.47-1.3,0.7-2.09,0.94c-0.81,0.24-1.65,0.37-2.51,0.45c-6.35,1.13-13,1.1-19.94-0.08  c-46.74,0.94-93.85,2.46-141.32,4.56c0,0-4.19-0.43-12.57-1.29l-5.56-1.4c-32.53-15.15-65.52-30-98.29-44.24  c-41.33-17.97-90.56-32.68-135.74-30.94L0,653.76V604.8c14.64-0.06,29.9,3.55,45.22,1.55c33.35-4.36,65.59-7.5,99.42-8.06  c59.58-0.98,118.3,1.3,177.77,4.49c37.88,2.03,73.4-2.08,110.53-4.93c9.41-0.72,82.67,3.35,82.86-10.8  c0.16-12.64-57.42-18.52-67.71-22.61c34.66-2.09,63.21-2.4,96.34-3.56c55.48-1.94,109.98-0.19,164.78-2.29  c6.2-0.24,9.7,0.55,15.15,0.83l33.9,1.74c35.09,1.81,70.52-0.8,106.28-0.43l105.58,1.1c8.07,0.08-2.97,5,21.39-2.79  c0.41,0.65,0.9,1.71,0.5,2.05c-16.47,13.91-34.17,26.89-51.75,39.73c-10.52,6.05-22.44,11.63-34.82,9.81  c-0.01,2.9-5.82,3.45-6.74,0.73c-1.47,0.3-2.84,0.38-4.11,0.24c-0.45,0.9-1.05,1.77-2,2.19c-2.2,0.97-14.93,0.79-16.78-1.63  c-1.32-0.59-2.74-0.84-4.25-0.75c-0.66,2.91-7.96,2.11-8.33-0.77c-0.92,0.15-1.9,0.2-2.3-0.78l-0.95,1.79l-26.1-4.3  c39.88,25.73,70.1,36.49,113.86,14.72c4.46-3.15,9.2-5.41,14.23-6.78l3.22-2.28c39.42-12.91,77.4-29.83,112.36-52.13  c4.28-2.24,17.92-7.42,22.06-6.47c19.14,13.54,39.57,22.91,61.27,28.11l37.71,6.2L1200,590.2z" />
<path class="cls-8" d="M1200,1211.61v160.32c-2.32,1.64-4.72,3.22-7.41,4.17c-40.52,14.3-79.61,28.63-115.9,52.44  c-38.32,26.05-76.97,52.03-115.94,77.95c-11.51,8.26-23.64,15.13-36.39,20.62c0.35,0.67,0.69,1.8,0.28,2.01  c-37.81,20-76.67,38.94-116.27,57.49c-126.41,48.81-265.91,62.82-400.58,58.04l59.62,24.89l0.33,2.22l-182.58-0.18  c-10.74-2.79-21.03-7.15-30.87-13.08c-25.03-13.13-49.49-27.09-73.37-41.89c-54.33-33.11-113.74-54.83-177.73-57.18L0,1558.08  V1454.4c1.38-0.29,2.76-0.55,4.15-0.66c1.38-0.11,2.74-0.21,4.05,0c73.97,11.66,141.77,37.3,202.56,80.74  c0.9,0.65,1.64,1.54,2.38,2.46c0.75,0.93,1.39,1.95,2,2.99l5.2,2.11c48.47,32.46,98.37,63.02,151.22,87.94  c104.31-14.25,202.84-56.65,296.94-102.2l6.41-1.28l2.82-2.85c21.18-11.33,42.54-22.33,64.09-33l3.92-0.8l2.46,1.47  c28.6,63,114.46,14.25,74.31-43.28l0.23-3.03l3.44-3.6c57.9-37.33,110.63-82.06,158.97-130.98  c56.41-56.08,133.06-81.23,208.77-99.18c0.93-0.22,1.93-0.19,2.95-0.12C1197.92,1211.18,1198.96,1211.38,1200,1211.61z" />
<path class="cls-9" d="M734.53,939.18l0.64-2.26c12.6-3.49,25.84-3.33,38.08,1.5c16.37,1.51,32.86,2.52,49.47,3.01  c18.68-1.29,37.32-1.38,55.93-0.28l2.7,2.31l2.86,1.6c5.28,10.6,14.22,18.76,24.42,24.56l51.17,28.44  c17.66,11.24,36.63,25.19,49.29,42.05c0.52,0.69,0.85,1.54,1.14,2.41c0.3,0.91,0.48,1.87,0.61,2.83l-1.3,2.82  c-7.22,4.42-14.73,8.23-22.53,11.45l-3.03-1.06c-0.26,0.69-0.58,0.62-0.94-0.1c-0.59,2.63-1.56,2.75-2.78,0.35  c-4.37,2.58-8.14,3-13,3.22c-7.82,0.35-19.59-0.5-27.5-1.35l-2.6-1.87l-18.27-0.91l-48.39-9.98c-46.81-7.91-85.06-5.43-122.83,26.12  c-15.43,12.89-30.77,27.53-45.02,41.65l-3.85,1.63l-2.77,1.67c-21.37,3.59-42.26,9.01-62.66,16.27l-6.24,0.4  c-0.46,2.22-1.71,2.03-2.18-0.11l-2.22-0.13c-1.75-1.85-7.17-9.9-3.72-11.23l0.11-2.42c9.33-3.5,18.64-6.94,27.93-10.3l-2.13-0.09  c-10.54,3.89-21.16,6.97-31.85,9.26l-1.4-2.14c-3.29,1.37-11.88-5.46-9.88-8.97c-1.99-1.08-1.76-2.62,0.69-4.64  c7.24-5.02,13.97-10.44,20.19-16.26l-2.1,0.34c-7.9,6-16.02,11.62-24.36,16.86l-1.83-1.64c-2.08,3.57-11.39-1.61-9.85-5.26  c-2.18-0.64-1.97-2.42,0.64-5.33l22.64-24.75c8-9.51,4.56-8.34-2.23-1.02c-8.11,10.57-16.92,20.37-26.42,29.42l-2.25-1.03  c-0.33,0.67-0.88,1.63-1.41,1.54c-1.36-0.24-11.1-3.49-11.44-4c-0.46-0.69-0.71-1.4-0.61-2.25l-1.72-1.69  c6.58-12.98,13.72-25.71,21.4-38.2l0.92-3.29l-25.56,40.85l-2.61,0.38c-1.41,2.89-9.53,2.86-10.63-0.15l-2.07-0.95  c1.5-12.15,2.69-24.29,3.57-36.44l-0.87,0.05l-5.31,35.36l-2.11,1.1c-0.44,2.99-8.55,2.93-9.28,0.07l-1.94-0.83l-1.28-49.99  c-0.23-2.99-1.64-2.86-1.76-0.06l0.76,49.76l-1.9,1.17c-1.86,3.52-8.87,4.06-11.35,0.98l-2.01-0.26l-7.9-38.69  c-1.39-1.38-1.8-0.25-1.66,1.14l7.29,37.78l-1.62,1.74c-0.28,3.17-9.93,4.9-11.61,2.24c-0.26,0.39-0.55,0.75-0.91,0.99  c-2.16,1.38-8-9.11-9.1-11.09c-5.13-11.4-11.43-21.72-18.89-30.97c8.29,13.8,16.06,27.85,23.28,42.15l-1.75,1.57  c1.17,3.57-6.83,7.18-8.93,4.22c-1.79,1.26-3.66,0.7-5.62-1.68c-5.39-7.14-11.26-13.76-17.62-19.86c4.24,6.92,9.36,13.48,15.34,19.7  c2.06,2.58,2.24,4.6,0.54,6.06c1.95,2.13-8.47,9.29-9.64,9.54l-2.13-0.64c-1.27,1.8-3.34,1.67-6.2-0.41  c-8.77-6.08-17.72-11.8-26.86-17.14c18.83,14.16,28.24,21.24,28.24,21.24l-0.9,1.01c2.9,1.79-0.35,4.85-2.9,3.1l-1.32,2.08  c-4.84-1.82-9.64-3.66-14.42-5.53c0.61,2.57,2.97,4.33,7.1,5.29c2.15,1.47,3.64,2.61,1.3,4.67c3.67,2.89-0.55,7.78-5.12,6.94  c-0.05,2.15-1.42,2.34-3.31,2.14c-21.24-4.72-26.03-1.93-1.09,1.55l0.78,2.04l1.06,3.06c-2.64,7.19-4.57,14.56-5.79,22.09  l-2.14,2.37c-0.14,1.5-0.64,2.7-2.13,2.8c-5.32-0.18-10.35,0.3-15.1,1.44c5.27,0.87,10.7,1.03,15.99,0.17l2.08,1.53l1.86,1.76  c0.76,6.49,2.3,12.85,4.62,19.08l-1.45,2.2l0.02,2.1c-6.41,2.67-12.45,5.98-18.13,9.92c1.91,0.1,3.08,0.84,3.51,2.23l-0.18,3.08  c-3.95,4.9-13.03,12.32-18.71,14.94l-3.04-0.58c-0.6,0.02-1.17-0.02-1.66-0.25c-1.05-0.49-8.44-18.72-8.95-21.21  c-0.19-0.94,0.14-1.81,0.68-2.58c-0.76-4.83,0.82-11.23,2.24-16.18c0.16-0.57,0.79-1.01,1.54-1.41c-1.32-6.96-0.88-13.5,1.31-19.61  c0.1-0.93-0.18-1.7-0.85-2.3l-1.77-1.59c-0.82-6.1-1.51-12.24-2.09-18.4l-2.21-1.34c-1.94-8.88-6.19-17.71-14.32-22.38l-0.7-2.49  c-3.83-3.14-7.48-7.81-10.54-12.1l-2.61-0.3c-6.98-8.98-20.29-10.01-30.62-6.97c-27.88,8.22-55.71,21.46-82.12,34.24  c-2.43,1.12-5.11,1.56-7.75,1.93c-1.35,1.89-3.7,2.11-7.03,0.66c1.07,1.02,0.79,1.86-0.28,3.01c3.37,2.25-0.54,4.17-3.37,4.63  l-0.71,1.31c-3.27,0.23-6.58,0.5-9.94,0.8c0,0,0.14,0.91,0.42,2.73l0.65,1.92c-10.54,8.06-21.08,16.11-31.62,24.17l-2.07-0.83  l-4.75,1.43c-56.08-6.41-113.52-12.83-172.3-19.25L0,1154.88v-95.04c1.08-0.01,2.15,0.01,3.2,0.16c1.01,0.14,2,0.32,2.9,0.7  c33.5,14.16,59.37,24.83,96.15,27.88c32.26,2.68,64.55-1.83,96.21-8.08l172.33-37.71c19.98-3.37,40.28-3.72,60.5-3.25  c-43.35-18.21-90.61-20.49-137.04-22.34c-59.69-3.46-116.15-22.22-167.58-51.73c-39.51-23.34-80.18-44.61-122.01-63.79  c0,0-1.55-1.36-4.66-4.09v-24.96l0.84-1.93c0,0,15.58-0.26,46.73-0.77l3.34,1.86l3.56,1.3c20.46,29.13,44.42,51.12,79.15,63.61  c50.03,18.95,108.78,37.76,161.07,24.17c16.84-5.57,33.97-10.52,51.37-14.87c65.91,24.46,129.63,41.07,200.36,33.19  c60.62-6.76,122.14-19.1,179.88-39.02L734.53,939.18z" />
<path class="cls-12" d="M1014.98,708.75c0.37,0.66,0.82,1.74,0.4,2.08c-14.17,11.22-30.34,22.18-46.26,31.27  c-8.14,3.59-16.89,5.57-25.57,7.34c38.93,10.04,74.48-2.89,108.64-21.19c24.25-11.34,50.14-20.16,77.18-15.93l17.7-0.1  c4.24,0.51,4.25,1.57,2.3,4.98c-26.17,17.65-55.66,30.02-87.48,32.74c-12.52,2.36-24.97,6.73-35.05,14.74  c21.52-1.54,43.08-1.22,64.66,0.96l16.04,0.21c34.49,1.66,59.18-15.75,82.18-39.27c3.55-1.23,6.97-2.51,10.28-3.84v111.67  l-0.92,1.92l-309.13-1.37l-187.26-10.42l-1.08-1.98l-0.4-2.6l6.08-10.46c-8.78,2.93-17.24,6.83-25.27,11.47l-4.26,0.3l-5.15,1.06  c-27-2.48-53.97-4.51-80.9-6.11c-50.2-0.4-100.45-0.94-150.74-1.61c-26.87,1.94-53.74,3.77-80.62,5.49  c-6.57,0.86-12.48,0.07-17.72-2.38l1.77-1.65c17.43-3.75,34.76-8.11,51.99-13.07c12.01-4.66,23.9-9.65,35.64-14.97  c-1.17-1.42-0.63-1.89,0.91-0.81l1.06-0.8l1.9-3.36c20.18-12.6,35.56-31.77,44.1-53.93l2.97-2.54c7.68,3.68,16.42,2.59,25.58,2.97  l132.01,5.53c36.57,1.53,72.45,0.42,108.95,0.23c40.4-0.21,78.13-9.43,117.19-15.3c26.37-3.96,53.59,6.51,79.94-1.96l-26.02-8.06  C952.75,706.84,984.62,705.44,1014.98,708.75z" />
<path class="cls-7" d="M140.84,797.13c0.99,0.36,1.78,0.85,2.35,1.48c0.61-2.8,6.24-1.59,6.35,1.31l2.34,1.46l1.4-1.58l56.98,17.05  c34,6.02,71.69,1.3,102.71-13.74l5.75-0.3l1.64-2.66c12.28-3.2,23.91-7.79,34.87-13.79l2.95,0.01c0.56-2.78,4.24-3.14,4.43,0.01  l3.22-0.62c20.1,8.2,42.37,4.41,63.12,0.85l3.06,1.4c-26.09,17.78-58.56,23.67-89.4,29.69l-2.84,1.85  c-21.6,4.57-43.53,7.33-65.79,8.27c29.44,13.28,57.34,27.99,83.7,44.13c33.72-2.27,67.53,1.17,100.71,6.46  c20.17,2.24,42.93-0.53,63.02-4.07c54.1-9.54,104.79-24.67,152.59-52.33l3.75-0.78c10.32-6.33,21.81-11.65,33.57-15.02  c-3.81,6.46-6.15,12.06-9.72,16.32l-0.33,3.38c-26.15,30.16-53.02,61.02-85.62,84.4l-3.35-0.12c-0.27,0.74-0.58,1.47-1,2.12  c-0.41,0.64-0.8,1.24-1.35,1.54c-7.17,3.96-14.45,7.74-21.83,11.25c17.01,3.88,34.44,7.14,52.3,9.78  c20.79,1.22,41.6,1.94,62.45,2.16c4.38-3.38,14.42-3.2,18.89,0.01c1.55-0.49,2.61-0.24,3.18,0.75c0.89-3.25,9.01-1.52,9.59,1.36  c-53.87,20.6-114.08,31.75-172.73,40.05c-84.77,11.99-137.44-4.01-215.88-31.35c-45.4,10.55-59.64,24.66-109.09,18.21  c-48.59-6.34-96.71-20.25-138.86-45.42c-20.01-11.95-32.84-31.81-47.06-48.87l-3.6-1.44c-8.1-12.13-15.27-24.81-21.52-38.03  l0.05-3.81l-2.86-1.17c-4.41-12.24-11.67-20.72-21.8-25.43L0,799.68v-33.6l2.17-1.83c11.25,2.69,22.34,6.35,33.28,10.98  c26.16,4.03,52.29,8.56,78.4,13.58C123.63,790.02,132.63,792.8,140.84,797.13z" />
<path class="cls-6" d="M182.18,1174.28l-2.29,4.22c-23.07,18.45-42.48,41.71-54.34,68.9l-3.48,3.37l-1.05,8.4  c-26.71,96.91,41.31,189.44,121.38,237.92c0,0,1.12,1.44,3.36,4.32l-1.72,2.14c-9.21-0.14-18.15-2.3-26.81-6.49  c13.71,8.86,29.21,14.51,44.86,19.02c23.74,6.83,48.3,10.37,72.66,13.83c2.03,0.95,1.83,2.3,0.81,4.08l-115.24,7.52l-5.18-1.59  c-21.82-15.55-44.58-30.36-69.31-42.18C99.72,1475.7,50,1461.91,0,1454.4v-299.52c50.4,2.79,100.1,10.73,150.7,16.08L182.18,1174.28  z" />
<path class="cls-11" d="M701.61,822.55l188.38,10.48l310.01,1.37v90.19l-0.71,1.9c0,0-36.67-0.94-110.01-2.83l-2.51-1.99l-4.04-3  c-12.52-21.6-55.63-69.75-85.57-61.93c-25.69,6.7-9.84,44.15,1.23,57.75l-0.77,2.17c-0.42,0.56-0.86,1.09-1.38,1.52  c-5.13,4.25-42.19,0.15-50.66-1.61c-0.04,2.56-0.91,2.46-1.72,0.06l-2.36-1.44l-2.74,1.51c-15.12-2.41-31.25-4.7-45.7,1.78  l-3.05-0.65l-2.96,2.85c1.43,1.23,0.86,1.81-0.88,0.93l-3.76,4.82c2.62,1.09,1.38,5.44-1.23,5.59c-1.23,2.38-1.48,5.63-0.01,7.97  c2.54,0.96,2.62,2.28,0.19,3.48c-27.38-4.13-43.89,2.19-76.49-1.1c-12.93-1.31-25.76,1.04-38.66-4.13  c-6.97-2.79-23.68-2.12-31.68,0.93c-3.25-0.18-6.3-1.5-9.59-1.36c-0.82-0.72-1.88-0.97-3.18-0.75c-6.06-0.16-12.77-0.41-18.89-0.01  c-16.24,0.29-32.25-1.34-48.04-4.9c-9.31-4.46-18.9-6.94-28.77-7.46c-1.94-1.04-2.79-3.38-2.55-7.04  c-6.58,0.85-10.83-0.88-12.74-5.19l1.53-2.25C639.77,892.93,680.26,848.06,701.61,822.55z" />
<path class="cls-6" d="M1200,1201.84v9.77c-89.14,23.78-152.53,39.34-219.91,106.41c-48.11,47.89-99.58,92.02-157.37,126.99l-3.07,0.1  c-33.62-27.31-80.05,0.01-72.6,42.17l-1.33,2.58c-22.94,13.48-47.13,24.65-70.83,36.65c-4.43,0.77-8.9,1.46-13.41,1.43  c-65.13-0.47-130.2-0.78-195.36,0.77c-10.27,0.59-9.24-1.37,3.08-5.88c109.86-23.97,209.62-74.66,298.91-143.43  c41.58-31.76,84.16-62.14,127.73-91.14c50.33-31.52,100.93-62.02,151.8-91.51l4.75-1.64c1.7-0.41,3.4-0.79,5.12-1.03  c1.71-0.24,3.41-0.46,5.1-0.41c42.46,1.21,84.97,2.44,127.35,5.38C1189.98,1199.04,1193.32,1199.98,1200,1201.84z" />
<path class="cls-3" d="M1200,1406.37v171.05l-3.42,3.15c-41.96,22.5-88.02,36.83-134.15,48.29l-172.53,40.59l-17.07,2.04l-207.56,0.2  l4.66-3.23c65.82-28.7,136.28-47.45,205.18-63.98c50.05-14.34,94.71-40.73,139.36-67.88c0,0,2.64-0.84,7.92-2.52  c2.55-2.65,5.19-5.25,8.25-7.29c40.63-27.12,80.76-54.78,117.99-86.22c14.16-10.88,28.48-21.59,43.44-31.35  c1.13-0.74,2.44-1.22,3.78-1.7C1197.2,1407.02,1198.59,1406.68,1200,1406.37z" />
<path class="cls-7" d="M0,1059.84V897.6c126.88,53.82,166.52,113.95,316.2,118.85c42.68,1.4,85.28,7.02,125.5,25.29  c-28.13-0.83-53.92-1.02-80.53,4.9l-105.93,23.57C156.11,1092.27,95.47,1107.75,0,1059.84z" />
<path class="cls-9" d="M1200,924.59v277.25c-49.15-4.64-98.63-4.24-147.59-6.74c-0.34-1.8,0.64-3.81,2.94-6.03  c-3.76,3.27-7.82,5.21-12.18,5.83c0,0-0.47-0.78-1.41-2.33c-1.29-2.39,1.11-5.89,3.66-4.01c0.42-0.91,0.92-1.82,1.98-2.03  c2.31-5.55,5.73-10.75,10.25-15.58c9.09-14.38,17.69-28.75,25.78-43.09l2.23-0.7c4.98-10.33,9.53-20.84,13.65-31.53l2.78-2.04  c1.66-3.43,2.97-7.03,3.93-10.77c-0.84-0.6-0.81-1.16,0.09-1.67c0.56-0.66,0.85-1.41,0.88-2.23c-2.55,0.04-2.42-0.92,0.04-1.6  l1.49-2.34l-0.65-5.88c10.39-48.07,3.76-98.42-20.03-141.58l-1.08-5.83L1200,924.59z" />
<path class="cls-10" d="M242.8,731.87l7.93,1.93c32.57,18.19,66.52,33.15,100.66,47.98c2.53,1.1,4.7,2.83,6.8,4.59  c-10.9,8.8-26.24,11.34-39.47,16.44c-1.2,0.18-2.41,0.32-3.61,0.32c-1.2,0-2.36,0-3.44-0.3c-32.91-9.34-64.12-21.39-95.78-33.94  c-30.65-11.22-62.25-20.42-94.82-23.51c-41.89-3.96-81,3.79-119.6,11.8L0,755.52V653.76c40.01-5.85,107.75,16.7,145.5,33.18  C178.54,701.37,211.32,715.67,242.8,731.87z" />
<path class="cls-3" d="M285.16,1671.59l-254.73-0.1c-6.99-2.41-13.57-6.17-19.71-11.3c-4.62-2.02-8.2-4.7-10.72-8.03v-94.08  c78.85,1.56,134.63,27.71,200.61,68.1C228.36,1643.16,256.31,1657.95,285.16,1671.59z" />
<path class="cls-13" d="M221.91,311.09c0.72,0.18,1.37,0.55,1.93,1.03c1.46,1.13,3.12,1.88,4.98,2.25l0.56,1.32  c4.7,0.65,9.85,4.09,14.75,4.25c7.6,0.25,12.55,3.56,14.44,11.03c4.52,0.15,7.42,4.69,9.94,8.11c23.3,8.54,47.06,13.48,70.6,20.48  c1.42,1.26,2.21,2.7,3.43,3.44l2.37,1.51c13.23,1.76,27.39,0.97,38.2-7.46c10.14-7.91,23.75-4.84,37.29-6.88  c12.91,8.44,29.64,5.63,44.22,8.91l13.3,2.99c3.1,1.57,6.8,1.48,10,0.11c5.18,0.06,6.51,3,10.06,7.18c2.51,2.43,6.92,4.12,9.86,5.86  c-62.42,0.75-125.96-1.82-190.08-1.84c-78.71-0.02-156.75,1-235.46-0.37c-28.06-0.49-55.15,0.23-82.29-3.4v-59.52l3.51-0.96  c53.86,3.34,107.8,4.69,161.82,4.05c15.86,0.98,31.34,0.8,46.42-0.52C215.48,311.05,218.86,310.53,221.91,311.09z" />
<path class="cls-14" d="M725.58,328.43c135.9,5.84,266.71,11.42,404.66,11.8c13.97-1.02,27.75-0.87,41.36,0.44l6.88,10.27l21.52,1.03  v28.16l-57.77-1.85c-17.34-0.56-34.41,2.69-51.76,0.73c-6.47-0.73-11.59-0.19-17.63-0.37l-96.98-2.91l-130.52-3.69  c-65.83-1.86-130.81-4.37-197.57-7.65c0.82-7.91,8.27-10.02,12.11-14.39c6.64-7.56,14.05-8.32,23.81-9.11  C698.42,339.7,711.57,330.56,725.58,328.43z" />
<path class="cls-12" d="M215.37,246.79c5.35,6.27-1.77,23.81-1.58,35.21c-0.69,0.79-0.72,1.23-0.8,2.3c0.1,1.69-0.56,3.88-0.7,5.51  l-0.2,2.22c-1.41,3.96,0.08,9.54,4.08,11.79c1.91,1.07,4.66,0.28,5.27,2.39c0.48,1.65,0.64,3.3,0.46,4.9  c-10.11,5.48-22.66,4.7-34.79,4.31c-37.72-1.21-74.41,1.77-111.73-1.12c-25.75-1.99-50.46-1.75-75.39-4.2v-69.12l3.31-1.02  c63.52,2,126.61,2.99,189.27,2.98c4.15-1.44,5.88-1.7,10.08-0.69C206.65,243.18,211.92,245.27,215.37,246.79z" />
<path class="cls-6" d="M1200,1371.93v34.44c-27.59,17.49-53.5,38.06-79.46,58.85c-31.65,25.36-64.02,48.31-98.14,68.84l-5.73,1.52  c-30.46-2.16-60.88-4.32-91.26-6.47l-1.04-2c39.43-24.44,78.38-49.61,116.59-77.1C1089.77,1414.9,1142.69,1388.18,1200,1371.93z" />
<path class="cls-5" d="M1200,1671.86l-327.16-0.37l184.76-43.45c49.72-11.69,97.31-27.71,142.4-50.62V1671.86z" />
<path class="cls-12" d="M318.73,802.81c-10.44,4.03-20.5,9.98-32.36,12.48c-27.33,5.77-57.02,9.67-83.71,1.54l-50.77-15.45l-2.34-1.46  l-6.35-1.31l-2.35-1.48c-33.75-8.98-68.1-13.82-102.78-19.42c-13.4-2.16-24.78-11.56-38.06-11.63v-10.56l40.43-7.86  c80.09-15.57,140.31,4.29,213.57,33.97C275.58,790.38,296.92,796.76,318.73,802.81z" />
<path class="cls-11" d="M1200,682.41v40.33c-1.03,4.32-6.14,3.88-9.21,5.41c-14.01,13.03-27.82,26.44-45.75,33.98  c-44.77,13.46-82.45-2.25-125.36,5.59c34.28-29.65,63.69-14.14,100.37-36.35c9.7-5.87,21.11-8.51,29.64-17.11  c-8.97-0.6-17.11,0.64-25.3-0.43c-37.24-4.89-73.52,18.38-106.24,32.26c-27.29,11.58-56.94,9.83-85.74,3.51  c18.44-3.44,34.39-6.18,48.53-16.36l34.04-24.5c27.24-19.6,59.99-25.4,92.68-14.41C1155.84,710.55,1151.9,719.02,1200,682.41z" />
<path class="cls-11" d="M198.06,233.99c0.56,0.56,1.02,1.36,1.38,2.38c0.13,1.11,0.35,2.34,1.31,3.02c0.72,0.51,1.85,0.44,2.62,0.71  l3.02,1.82c1.21-0.62,3.13-0.46,4.05,0.73c0.54,0.02,1.08,0.23,1.62,0.22l3,2.04c0.13,0.54,0.02,1.42,0.3,1.87  c-5.25,0.86-11.51-2.73-17.04-3.65c-7.75,3.55-15.32,1.56-23.76,1.77c-40.26,0.99-79.66-1.58-119.41-1.89  c-19.14-0.15-36.92-0.54-55.17-2.05v-50.88c19.75-4.99,39.33-2.06,58.09,7.73l108.86,10.2c6.3,11.09,22.68,3.85,28.76,10.85  C199.24,222.91,197.4,229.4,198.06,233.99z" />
<path class="cls-11" d="M1200,593.39v6.52c-13.81,5.38-29.97,32.58-45.53,40.14c-18.4,8.94-38.93,16.03-59.26,19.79  c-18.66,3.46-37.06-4.9-55.51-1.92c-22.11,3.57-41.33,2.73-63.03-1.17c-22.61-4.07-45.63-0.9-69.26-6.31  c27.25-7.35,52.69-15.39,78.42-24.53c16.12-5.73,31.87-7.19,48.63-4.44c18.01,2.96,35.92,0.97,54,0.98  c22.74,0.01,41.99-6.33,61.61-16.54C1165.62,597.82,1183.6,596.79,1200,593.39z" />
<path class="cls-12" d="M1200,587.63v2.57c-51.3-7.06-55.62-5.77-100.81-34c-9.61,1.27-19.08,4.76-27.94,10.4  c-34.04,21.7-70.95,37.53-109.32,48.69c-7.28,1.98-14.96,2.5-23.04,1.57c-6.52-0.2-28.27-1-32.07-4.51  c-0.54-0.5-0.99-1.09-1.41-1.71c15.99-1.73,30.81-8.07,44.06-18.51l42.01-33.08c21.06-12.65,45.53-18.48,70.49-16.11l46.64,4.42  c31.82,3.01,44.01,28.47,60.52,33.41C1179.53,583.88,1189.8,585.79,1200,587.63z" />
<path class="cls-11" d="M25.85,828.52c8.26,14.26,14.39,30.48,25.07,43.28L0,872.64v-44.16c0.09-0.75,0.33-1.88,0.86-1.92  c3.21-0.26,20.03-0.58,22.22,0.03C24.07,826.84,24.99,827.48,25.85,828.52z" />
<path class="cls-11" d="M1200,650v27.61c-26.14,11.27-30.56,2.77-61.12,13.62C1158.02,673.18,1174.95,655.84,1200,650z" />
<path class="cls-12" d="M25.85,828.52L0,828.48v-28.8C14.46,802.42,19.23,817.09,25.85,828.52z" />
<path class="cls-5" d="M30.43,1671.48L0,1672.32v-20.16C10.82,1656.81,20.46,1664.86,30.43,1671.48z" />
<path class="cls-13" d="M885.07,293.84l0.17,1.2l30.7,1.42c0.46,1.65,0.79,1.7,0.96,0.06c72.77,0.17,145.23,1.47,217.37,3.89  c0,0,1.38,0.05,4.13,0.14c0.43,8.36,6.16,14.69,11.46,21.07l2.38,1.62c5.01,0.98,11.76,0.06,16.31,2.66  c3.73,3.75,1.99,10.62,3.05,14.77c-44.4,2.71-90.17,1.37-135.91,0.33l-115.55-2.63l-62.01-2.53l-80.2-3.39  c-18.06-0.76-36.29-0.97-52.35-4.01c14.07-2.14,27.6-0.18,42.41-4.06C807.27,314.09,846.94,306.2,885.07,293.84z" />
<path class="cls-13" d="M1095.25,275.56c-1.55,0.78-3.12,1.52-4.74,2.12c-1.61,0.6-3.2,1.17-4.85,1.45  c-48.63,8.24-98.26,9.92-147.24,10.53c-16.72,1.86-33.38,3.53-50,5.02l-2.5-1.04c0.19-3.45,7.05-4.42,0.9-6.56l11.12-22.89  c4.04,5.78,4.09,10.95,5.92,17.25c4.94-1.85,11.85-0.15,16.34-4.04c1.47-2.65-3.93-1.06-3.17-2.15c1.3-1.89,3.54-2.56,4.49-3.72  c1.62-1.99-1.27-1.94-1.46-2.61c-0.35-1.24,3.54-1.35,3.48-2.17c-0.36-4.97-1.4-10.12,4.49-11.58c1.91,5.39,4.71,10.94,5.78,15.27  c-3.36,2.09,1.52,3.15,1.99,4.83c0.72,2.57-2.77,1.64-3.01,5.14c4.9,0.43,11.23,0.28,13.64-3.36c-1.95-1.33-3.58-0.37-4.33-1.19  c-0.45-0.49-0.19-1.87,0.39-2.14c0.48-0.23,1.3-1.12,3.31-0.79c1.21-7.92,3.24-15.43,7.87-24.25c3.34,5.34,6.28,11.22,6.62,18.05  c1.42,2.13,5.85,3.25,8.7,4.75c0.88-3.61,1.94-4.71,2.75-6.81c0.87-2.23,2.45-1.02,5.19,0.69c2.35-3.52,2.7-8.1,5.51-11.25  c4.08,4.42,2.51,11.11,7.63,13.22c1.91-1.75,2.17-3.7,2.51-4.95c0.36-1.33,1.82-1.68,2.88-0.67c0.89,0.84,0.97,2.34,2.92,3.53  c1.5-6.29,2.95-13.46,7.41-19.42c3.64,6.97,3.77,13.57,9.74,18.5c2.87-3.38,1.47-9.29,5.62-12.4c3.14,4.89,3.38,11.46,8.45,13.06  c1.44,0.45,2.89-0.98,3.86-0.89c0.76,0.07,2.06-1.11,1.27-2.22c-0.81-1.15-2.3-0.23-3.9-1.49c8.76-2.49,3.91-22.34,12.13-23.4  c0.45,8.96,8.7,15.83,5.72,24.64c4.74,3.29,11.85,3.7,17.92,5.99l8.06-24.28c4.66,4.19,4.13,9.64,5.16,13.88  c0.77,0.76,3.61,1.04,4.42,1.94c0.93,1.04-1.26,2.25-0.87,3.59c0.22,0.74,3.92,1.34,3.15,3.19c-0.36,0.87-5.93,2.18,1.41,1.92  C1086.38,272.92,1091.3,274.76,1095.25,275.56z" />
<path class="cls-12" d="M1138.4,300.55c-2.03,2.04-5.29,2-8.55,1.88l-69.69-2.52l-143.95-1.49c7.03,0.07-49.75-1.24-31.14-4.59  c0.27-0.09,0.58-0.17,0.86-0.2c21.27-2.05,42.39-6.28,64.62-6.3c48.94-0.05,96.9-3.34,144.7-11.78c10.65-1.88,17.8,0.38,26.99,6.62  C1129.53,287.14,1137.91,291.05,1138.4,300.55z" />
<path class="cls-12" d="M229.38,315.69c-1.21-0.17-2.4,0.11-3.74-0.39c-1.27-0.47-2.22-1.5-1.8-3.18c1.46-0.02,3-0.2,4.53,0.56  C229.27,313.12,229.43,314.53,229.38,315.69z" />
<path class="cls-14" d="M487.9,362.17c-1.57,2.77-8.7,2.93-10-0.11L487.9,362.17z" />
<path class="cls-13" d="M210.45,242.65c-1.39-0.04-2.72-0.38-4.05-0.73v-0.96c0.68,0.34,2.31-0.36,3.06,0.15  C209.91,241.42,211,241.71,210.45,242.65z" />
<path class="cls-5" d="M924.36,1527.12l98.03,6.95c-34.64,20.84-69.16,41.89-106.68,58.29c-26.75,11.69-53.05,17.48-81.3,24.18  c-57.88,13.72-114.5,33.28-169.14,55.15l-197.55,0.08l-70.66-29.53c128.13,8.39,323.8-12.21,437.75-69.84L924.36,1527.12z" />
<path class="cls-11" d="M278.4,714.27c-28.18-0.19-56.28,0.19-84.04-7.23c6.21-40.68,42.59-68.88,81.67-68.79  c39.24,0.09,76.67,28.7,81.96,69.22C330.87,713.68,304.93,714.45,278.4,714.27z" />
<path class="cls-10" d="M482.96,726.57c-8.58,24.87-26.45,46.97-48.97,59.84l-1.06,0.8c-0.32,0.25-0.58,0.58-0.91,0.81  c-22.58,4.06-49.14,8.49-69.4-1.63l1.06-3.07c6.74-4.75,13.36-9.8,18.65-16.06c8.04-14.03,18-26.47,29.9-37.32  c1.34-0.73,2.81-1.16,4.4-1.27c14.54-12.35,29.11-24.81,41.12-40.4c17-22.07,13.42-40.89,23.52-66.38  C498.41,650.24,492.73,698.24,482.96,726.57z" />
<path class="cls-12" d="M416.64,728.67c-36.09,30.66-17.23,32.58-54.02,57.71c-1.23-0.62-3.13,0.24-4.43-0.01  c-40.07-14.55-77.8-35.17-115.39-54.51c41.6-2.31,83.36-2.41,125.7-4.97C385.17,725.89,401.15,726.29,416.64,728.67z" />
<path class="cls-11" d="M860.9,609.86c0.77,0.66,1.28,0.75,2.3,0.78l8.33,0.77c1.74-0.24,3.15,0.01,4.25,0.75  c6.26-0.4,12.57,0.44,18.78-0.57c1.44-0.08,2.81-0.16,4.11-0.24l6.74-0.73c18.31,5.19,37.98,4.19,56.52,4.66  c-24.12,17.76-55.46,26.59-84.7,16.33c-19.18-6.73-35.57-18.05-54.2-28L860.9,609.86z" />
<path class="cls-12" d="M875.77,612.17c-1.38,0.09-3.55,0.95-4.25-0.75c0.76,0.07,1.54-1.27,2.5-0.97  C874.87,610.71,876.36,610.92,875.77,612.17z" />
<path class="cls-12" d="M898.67,611.37c-0.55,0.2-0.97,1.11-1.64,1.1c-0.87-0.02-2.35,0.26-2.48-0.86  C891.84,612.05,899.47,609.11,898.67,611.37z" />
<path class="cls-5" d="M1052.41,1195.1c-18.81,12.71-38.36,24.5-58.63,35.9c-66.17,37.23-128.91,78.36-189.66,124.09  c-30.82,23.2-62,45.9-94.04,67.36c-75.88,50.83-159.99,85.03-250.45,104.47c72.9-0.46,144.08-3.4,215.29-0.42  c-85.55,43.3-207.28,94.45-303.7,105.31c-54.4-25.71-107.1-56.98-156.07-91.88l120.96-7.89c-39.3-5.45-98.47-13.92-129.08-40.17  c14.04,3.2,25.8,11.61,38.74,9.55c0.99-1.21,2.47-1.36,4.43-0.45l3.97,0.16c23.32-4.22,45.5-2.38,66.5,10.51  c23.06,9.36,47.05,1.89,67.85-9.57c12.46-3.24,25.41-3.37,38.85-0.41c9.42,0.87,18.95-0.51,26.82-6.1l3.79-0.45  c1.75-2.44,4.59-3.67,8.52-3.69l11.48-1.47c19.46,0.61,37.52-3.26,54.19-11.61c12.77-9.24,26.28-17,40.54-23.29  c4.23-2.15,7.87-2.37,10.91-0.68l4.36-2.56c12.79-1.93,25.42-4.83,37.63-9.08l5.03,0.22l1.93-2.8c11.78-4.5,23.04-10.78,31.35-20.47  l3.28-0.93c0.93-4.42,4.09-7.69,9.49-9.8l9.41-4.12c16-3.68,30.06-10.32,42.15-19.93c7.61-9.95,16.88-17.49,27.8-22.61  c21.45-4.87,32.45-16.4,37.98-36.94c5.9-12.5,11.25-17.61,24.84-21.91c20.37-4.46,40.49-11.83,54.48-27.71  c9.35-13.36,21.18-22.95,35.48-28.77c30.06-6.03,56.75-14.53,75.53-39.16c4.97-4.47,11.35-6.6,18-7.11  c10.46,1.04,20.33,0.06,29.63-2.95c2.94-2.31,5.78-3.51,8.52-3.61c0.19,0.88,0.19,0.88,0,0c-2.01-1.68-1.22-2.44,1.25-1.55  c5.69,2.41,9.85-5.27,16.96-7.08C1058.7,1188.36,1055.17,1193.23,1052.41,1195.1z" />
<path class="cls-3" d="M822.73,1445c11.37,15.89,16.84,34.18,7.48,52.72c-8.23,16.29-25.69,27.14-45.94,24.76  c-16.52-1.94-33.55-14.72-38.53-32.63c-5.71-20.54,4.96-41.99,21.16-51.49C786.22,1427.04,806.06,1432.09,822.73,1445z" />
<path class="cls-2" d="M1085.66,1127.15c-1.39,5.34-5.81,9.24-8.4,14.51c-8.05,16.41-17.72,31.73-29.86,44.87  c-1.06,0.37-1.49,1.08-1.98,2.03c-1.45,0.72-2.19,3.18-3.66,4.01c-0.62,0.35-0.8,1.1-1.25,1.55c-6.69,6.72-16.92,9.21-26.27,8.52  c-46.37-3.4-18.52,27.78-94.95,43.48c-47.3,9.71-30.16,43.04-96.52,58.28c-41.17,9.45-17.16,44.09-57.79,56.7  c-36.8,11.41-22,27.45-65.7,41.4c-10.25,3.27-24.9,7.25-32.08,16.23c-1.81-4.24-2.71-6.35-2.71-6.35  c-3.44-42.01-10.15-83.39-20.15-124.16c-0.51-2.23-0.3-4.54-0.03-6.79c0.96-2.18,1.99-4.41,3.65-6.15  c23.25-24.35,53.83-50.58,81.77-69.28c44.38-29.71,96.7-43.37,149.22-49.48l6.08,1.24c1.12-2.32,2.47-4.65,4.06-7  c7.06-20.06,14.75-39.18,30.2-54.93c17.2-17.53,38.61-27.9,60.98-36.98c0.91-0.2,1.86-0.26,2.78-0.35c0.35,0.33,0.61,0.52,0.94,0.1  c9.75-2.75,18.04-8.83,26.86-13.21l1.45-2.91c12.45-6.47,21.72-17.23,25.06-30.8l4.28-21.71c3.57-7.91,8.97-10.97,17.54-8.57  c28.88,8.1,37.66,65.53,37.17,89.38C1095.97,1089.38,1093.44,1110.24,1085.66,1127.15z" />
<path class="cls-4" d="M359.22,1106.97c2.85,3.73,5.8,7.36,8.85,10.89l-0.17,1.45c2.49,0.52,4.32,11.23,3.42,12.65  c-1.08,1.71-9.64,5.28-11.19,2.66c-1.55-0.37-2.46-1.69-2.73-3.96c-8.91-12.91-8.23-3.93-3.01,4.61l-0.94,2.51  c3.55,1.61,0.82,7.04-1,9.58c-1.97,2.75-4.94,4.54-8.01,5.82c-3.14,1.31-10.64,3.88-12.43,0.63c0.19-2.57-0.63-2.21-2.47,1.08  l0.2,3.24c-9.47,14.16-16.57,29.57-15.22,46.99l-14.62,30.21c-4.57,13.01-4.18,23.04,4.19,34.54c4.53,0.45,8.6,1.82,12.22,4.11  c4.55-3.15,9.8-5.38,15.75-6.7c1.67,1.4,2.65,0.61,2.96-2.37c13.25-10.76,23.7-24.51,30.29-40.26c1.27-2.18,2.56-1.77,4.28-0.13  c-1.24-5.64-1.45-9.51,0.52-14.9c0.53-1.46,5.64-12.7,6.18-13.19c2.96-2.7,7.77,6.8,9.04,9.62c2.53,4.19,2.49,6.87-0.11,8.06  c0.18,0.89,0.33,1.78,0.34,2.68c0.01,0.87,0,1.7-0.27,2.43c-5.45,14.46-13.51,30.62-22.38,43.26c-0.45,0.64-1.13,1.12-1.86,1.6  c-0.75,0.5-1.57,0.88-2.41,1.23l-1.23,4.37c-1.74,3.38-17.38,20.9-20.97,24.33c-12.96,12.37-22.16,20.65-39.58,26.72  c-18.45,6.42-36.31,5.69-55.59,4.83c-18.97,1.07-37.61,3.97-55.94,8.69l-6.15,0.15c-3.45,0.34-5.55-0.64-6.3-2.93l0.23-2.23  c7.21-1.77,12.76-5.15,16.66-10.12l-16.4,4.62c-15.54,1.93-21.03-10.48-9.84-20.35l20.22-10.97c-15.52-0.95-31.88,9.76-33.24,26  l-1.98,1.63l-2.58,0.68c-11.92-8.67-17.18-23.84-20.85-37.65c-2.74-10.32-5.38-21.87-3.03-32.33c12.13-30.51,34.4-56.84,60.11-76.49  l33.04-25.26c-0.69-2.41,0.82-3.49,4.55-3.26l6.6,0.23l-0.92-1.82c0.66-1.92,3.07-2.5,3.37-4.63c0.15-2.44,2.08-2.96,5.79-1.56  l1.52-2.12c26.24-14.19,53.34-25.24,81.48-35.6C332.59,1094.76,349.9,1093.42,359.22,1106.97z" />
<path class="cls-1" d="M1086.76,921.68c27.39,47.24,34.29,100.26,21.76,153.29c-0.38,0.96-0.88,1.74-1.49,2.34l-0.04,1.6  c0.27,0.9,0.03,1.89-0.88,2.23c-0.06,0.54-0.11,1.12-0.09,1.67c-0.92,3.78-2.23,7.37-3.93,10.77c-4.2,11.67-8.77,23.9-16.43,33.57  c9.17-35.21,13.42-71.24,1.58-106.89c-5.72-17.22-22.33-44.29-39.02-36.15c-12.56,6.12,2.73,41.37-37.36,61.27  c-15.9-20.37-35.85-36.87-58.84-49.57l-43.12-23.82c-12.19-6.74-22.1-15.99-27.54-28.51c-0.19-0.98-0.22-2.46-0.19-3.48  c-1.47-1.92-1.32-5.92,0.01-7.97c0.06-1.93,0.88-3.71,1.23-5.59l3.76-4.82l0.88-0.93l2.96-2.85c16.06-8.39,33.98-5.39,51.49-2.64  c0.91,0.36,1.69,0.84,2.36,1.44l1.72-0.06c6,0.45,11.2,2.27,16.71,4.39c22.46,8.62,49.66,26.42,66.85,43.25  c0.68,0.67,1.17,1.53,1.65,2.43c0.49,0.92,0.85,1.91,1.18,2.92l2.01,1.95c1.21-0.96,1.66-0.46,1.25,1.02  c1.11,0.45,1.62,0.36,1.53-0.27c-0.84-0.09-0.85-0.37-0.08-0.81l-0.78-1.09l-3.41-2.58c-10.9-14.1-21.33-28.74-31.48-43.42  c-1.6-2.32-2.5-5.05-3.38-7.71c-9.79-12.86-25.99-43.63-8.82-57.8c15.73-13,44.35,3.58,57.07,14.61  C1061.8,887.29,1076.22,903.48,1086.76,921.68z" />
<path class="cls-10" d="M737.1,1116.57c2.31-0.75,5.16-0.98,7.08,0.65c1.06-0.45,2.12-0.86,3.22-1.13c1.1-0.27,2.16-0.54,3.2-0.46  c46.95,3.37,88.57,14.45,129.9,37.29c0.91,0.5,1.66,1.3,2.43,2.13c0.77,0.83,1.45,1.76,2.09,2.71  c-55.62,6.12-109.41,19.21-156.73,51.53c-30.66,20.94-57.45,46.76-83.99,72.15l-0.17,2.82c-6.34,6.06-12.67,12.12-19.01,18.19  l-2.14-0.61c-0.68-0.57-1.33-1.16-1.87-1.83c-0.53-0.67-1.03-1.31-1.22-2.02c-5.71-21.91-6.79-44.56-7.71-67.01  c-1.57-3.82-2.3-7.66-2.19-11.5c-3.06-2.95-3.86-5.27-2.37-6.99c-1.82-3.92,2.56-5.34,6.12-3.74c4.02,6.81,9.79-5.36,10.28-9.76  l1.95-0.9l-2.14-1.78l-3.63-0.18c-15.12-5.92-29.64-13.21-43.56-21.86c-3.5-7.54,0.69-8.97,7.51-7.06  c14.79,7.98,29.54,16.03,44.25,24.13c1-0.39,6.93-20.37-0.22-18.63c-10.86,2.03-30.08-10.29-8.33-10.55  c3.83,1.12,7.7,1.91,11.62,2.36c-0.07-5.07-1-10.03-2.8-14.88l-67.97,4.3c-6.81-1.25-7.98-8.01-0.77-10.46l63.89-3.52l2.81-1.17  c-1.17-0.8-1.1-3.03,0.49-3.09c23.06-9.46,47-15.05,71.67-18.34c4.06-2.29,8.87-3.06,14.43-2.3c1.02,0.95,2.67,1.39,4.94,1.33  c0.02-0.81,0.25-1.61,0.89-1.73c4.03-0.8,12.87-0.67,16.95,0.05L737.1,1116.57z" />
<path class="cls-4" d="M523.04,1088.71l1.28,0.07c0.8,11.94,1.07,24.14,0.79,36.57c0.27,2.42,2.62,2.74,2.85,0.45l-0.7-35.97  l1.9-1.17l9.28-0.07c2.08,0.75,3.9,0.81,5.47,0.18l1.32,0.69l10.63,0.15l1.24,1.75c-2.71,5.54-2.71,7.28-0.01,5.23  c1.68-4.11,3.79-5.79,6.34-5.04l13.46,4.7c2.3,0.8,1.6,2.14,0.34,3.85c-15.31,16.27-18.65,21.16-10.01,14.65l14.08-15.82  c0.89-1.08,2.05-0.77,3.23,0.03c2.7,2.64,6.06,4.79,9.85,5.26c3.7,1.62-0.05,5.03-2.68,6.31c-0.54,2.58,1.03,1.95,4.72-1.89  c2.24-1.51,4.69-2.29,5.37,0.9c2.42,3.8,6.48,6.07,9.88,8.97c3.5,2.23-1.66,4.44-4.46,5.29c-0.89-1.03-16,5.69-12.03,5.17  l21.99-6.24l1.84,1.47c0.63,4.31,4.12,7.44,5.94,11.36c0.77,0.53,1.33,1.59,1.69,3.2c-0.1,0.65,0.42,1.58,0.03,2.05  c-0.53,0.63-1.51,0.97-2.65,1.03l-62.42,3.36c-2.21,0.12-4.07,0.61-4.53,2.67c-0.33,1.46,1.06,4.29,3.66,4.12l69.33-4.52  c1.81,6.39,4.22,13.16,3.14,18.84c-7.87,0.98-15.03-5.3-21.77-1.08c5.15,7.78,15.04,3.16,21.87,7.16  c1.13,7.02-1.26,14.36-3.53,21.41c-10.09-2.62-47.25-28.82-51.36-25.64c-1.03,0.79-2.27,3.69-0.26,4.84  c14.96,8.61,30.12,16.63,45.67,23.27c0.73,0.26,1.51,1.08,2.14,1.78c0.06,5.55-4.42,12.82-9.49,15.6c-1.47-0.01-3.47-3.75-4.73-3.88  c-1.69-0.18-3.19,1.07-4.13,2.67l-2.23,0.61l-10.44-12.83c-6.4-7.21-8.56-4.53-6.46,8.03c-0.06,2.62-0.44,7.61-4.25,5.53  c-2.84-6.84-6.39-13.13-10.64-18.86c-3.65-3.72-5.62-1.98-5.89,5.21l1.51,18.86c-1.02,1.46-2.44,1.38-4.03,0.69l-5.35-10.74  c-9.64-15.98-12.49-9.95-8.56,18.07c-0.64,1.93-1.51,3.07-3.43,2.2c-2.23-3.98-4.87-7.35-7.9-10.12l-1.42,0.41l-6.18,28.26  l-2.17,0.96l-1.74,1.69c-5.7,0.32-25.46-0.05-28.54-4.42c-0.19-0.27-0.25-0.64-0.28-1.03c4.84-19.87,9.99-39.71,15.43-59.5  c0.51-2.79-0.84-4.17-2.08-1.5l-14.85,59.57c-1.02,2.07-1.72,2.32-4.05,2.16c-6.29-0.44-21.06-6.95-26.49-10.63  c-0.94-0.64-1.16-2.03-1.25-3.11c-1.51,0.57-2.55,0.22-3.49-1.21c-0.44,0.24-0.89,0.46-1.37,0.58c-0.87,0.23-8.84-6.64-10.05-8.02  l-0.21-2.33c-1.36-1.33-1.07-2.8,0.86-4.4l34.01-34.47c3.91-3.4,5.1-5.55,3.57-6.44c-14.16,13.76-28.07,27.83-41.74,42.22  l-2.08-0.72l-2.06-0.28c-1.16-0.88-11.01-13.97-6.17-14.17l0.43-2.38c4.09-1.72,7.55-3.98,10.4-6.77  c-4.66,0.97-9.12,2.57-13.39,4.79l-1.97-1.26c-1.71-7.76-5.62-15.01-5.04-23.04c0.84-1.5,1.26-2.25,1.26-2.25  c10.97-1.8,21.98-3.18,33.03-4.14c4.71-0.48,6.63-1.33,5.77-2.56c-13.15,1.41-26.34,3.01-39.55,4.78l-1.36-1.76  c0.61-9.58,4.1-18.41,6.87-27.52l1.1-1.79c9.98,1.57,19.89,2.7,29.71,3.39l0.1-0.74c-8.66-1.64-17.4-3.12-26.21-4.46l-1.08-2.12  c3.24-0.65,4.65-3.87,5.12-6.94c0.31-1.34,1.56-2.29,3.75-2.84c0.77-2.27,1.97-3.49,3.59-3.68c0.66-1.02,2.78-1.53,2.9-3.1  c1.07,0.03,2.13,0.09,3.17,0.29c1.02,0.2,2.02,0.4,2.86,0.87c12.05,6.66,23.59,14.17,35,21.85c0.8-0.6,0.37-1.86,0-2.75  l-35.41-22.74l0.09-2.22l11.76-8.9c1.12-1.8,2.82-1.54,5.09,0.78c1.62,0.9,1.87-0.12,0.75-3.05l1.53-1.94  c3.22-0.77,6.44-2,8.93-4.22c0.76-2.93,2.52-1.48,4.19,0.33c10.67,19.06,15.19,23.04,1.91,0.05c-0.68-1.26,0.07-2.23,1.28-3.03  l11.61-2.24c1.34,0.59,2.44,1.52,3.3,2.79c0.45-2.05,1.32-3.55,2.61-4.51C515.51,1089.74,519.31,1089.52,523.04,1088.71z" />
<path class="cls-1" d="M980.27,1058.83c-8.56,6.77-19.86,10.48-29.95,16.02c-59.06,32.39-53.31,81.57-65.29,82.89  c-42.53-25.36-91.44-38.51-140.84-40.53c-2.1-1.58-4.67-1.37-7.08-0.65c-4.72,0.36-13.97-1.19-18.92-0.18  c-5.59-0.13-6.04-1.6-1.35-4.41c52.39-26.74,109.01-43.53,167.28-50.82c17.63-2.21,35.29-4.13,53.06-2.31  C951.39,1058.32,966.1,1062,980.27,1058.83z" />
<path class="cls-10" d="M369.77,1119.07c9.96,4.46,15.42,15.81,17.23,26.21l1.06,10.25c-0.95,3.45-3.61,4.34-5.62,1.17  c1,5.51,1.91,10.59-1.09,15.61c2.88,1.6,3.85,3.4,2.91,5.41c4.98-1.16,9.34,11.02,3.63,10.81l-6.32-6.09  c-1.7,6.23-0.08,12.31,4.89,18.24l0.16,4.11c4.02,7.47,5.24,16.75,9.92,24.04c4.47,0.34,4.81,11.55-1.03,9.52  c-1.96-0.68-2.57-3.24-0.97-4.69l-2.28-0.81c-1.27-5.93-3.57-11.26-6.93-15.98l-0.11-2.73c0.89-5.87-4.18-11.57-7.42-17.43  c-1.25,7.74-8.04,13.76-7.25,20.46l2.22,18.97c-5.18-2.15-2.11-7.36-5.28-11.94c-6.25,16.03-17.15,30.94-30.92,41.78  c-2.19,8.68-1.8,17.33-6.59,25.18c-2.81-7.92,3.45-14.29,2.76-22.33l-14.4,5.37c-3.23,6.79-2.29,14.08-6.72,20.61  c-1.96-7.24,2.72-13.04,2.73-20.29c-2.91-1.01-6.74-2.13-9.72-2.64c-2.73,5.33-2.25,10.84-6.42,15.64  c-0.84-6.13,2.2-11.2,4.17-17.28c-8.38-10.3-9.68-24.49-3.73-36.71l14.23-29.23c-1.8-19.09,6.68-33.91,16.69-49.4  c0.91-2.18,1.73-2.54,2.47-1.08c10.66-0.77,21.52-4.31,21.43-16.03c0.92-2.05,4.49-3.6,6.67-3.16c2.96-1.17,6.54-1.85,9.74-3.53  c-0.25-4.49-2.41-7.9-1.97-11.78C367.86,1116.75,368.74,1116.74,369.77,1119.07z" />
<path class="cls-2" d="M937.17,1058.83c-78.17,2.84-151.94,19.83-223.23,56.77c1.16-0.69,3.21-0.16,4.23,0.78  c-6.42,1.31-12.95,0.11-19.37,0.97c11.68-14.65,27.6-25.59,41.49-39.11c21-20.44,46.55-33.05,75.97-35.33  C863.89,1039.2,892.69,1053.3,937.17,1058.83z" />
<path class="cls-1" d="M437.59,1202.73c0.18,6.21,7.02,8.8,8.22,14.45l0.62,2.09c-4.29,3.89-7.93,8.28-10.92,13.17  c4.75-3.73,9.24-7.83,13.46-12.3l2.23,0.86c4.43,2.27,7.55,6.88,11.62,9.76c0.03,0.72,0.02,1.44-0.11,2.13  c-0.13,0.67-0.27,1.29-0.63,1.72c-24.83,29.34-57.62,40.97-95.14,40.85l-3.23-1.76c-0.07-0.86-0.1-1.71,0-2.54  c0.72-5.88,22.81-34.84,28.33-36.91c0.79-0.3,1.62-0.46,2.48-0.6c0.23,0.71,0.64,1.47,1.09,2.26c0.33,0.59,1.43,1.87,2.52,0.16  c-0.6-1.72-0.58-5.64-1.61-7.25c8.14-4.02,16-10.58,21.93-17.45c-0.81-2.38,0.67-4.23,4.45-5.56l12.85-4.32L437.59,1202.73z" />
<path class="cls-10" d="M529.17,1088.67l0.72,36.5c0.07,2.64-0.79,3.97-3.45,3.97c-1.72,0-3.23-1.28-3.24-4l-0.16-36.42l-0.78-50.97  c-0.04-2.55,0.91-4.05,3.32-3.76c1.65,0.2,2.23,1.57,2.28,3.76L529.17,1088.67z" />
<path class="cls-10" d="M458.75,1113.62l36.3,23.38c1.53,0.94,1.05,2.62,1.38,3.71c0.27,0.89-1.97,3.48-3.01,2.74  c-13.27-9.53-26.83-17.64-40.39-25.12c3.87,2.13-33.81-21.66-30.71-24.05C427.49,1090.28,449.2,1111.92,458.75,1113.62z" />
<path class="cls-10" d="M584.53,1098.98c-6.59,3.57-18.42,24.63-23.42,20.39c-4.85-4.11,15.18-17.35,15.79-23.1  c8.55-2.89,32.05-41.34,37.52-36.01C618.83,1064.54,584.62,1092.92,584.53,1098.98z" />
<path class="cls-4" d="M387,1145.28c1.13,6.52,4.85,13,3.86,19.99c1.02,0.26,1.1,1.37,0.85,2.3c0.73,12.57-0.64,25.37-5.09,37.2  c-4.42-8.21-11.81-15.54-5.49-25.61l8.69,8.57c0.09-4.57-3.58-6.78-5.57-10.02c0.03-2.16,0.99-4.5,2.87-7.02l-1.47-0.73  c-1.2,2.25-2.63,3.03-4.31,2.35c1-10.84-1.62-20.85-5.45-32.09c6.19,4.14,4.92,11.45,9.29,17.14  C387.69,1153.33,386.04,1148.98,387,1145.28z" />
<path class="cls-10" d="M494.19,1093.64c0.42,6.81,12.48,17.51,8.01,20.51c-5.13,3.45-10.7-18.89-15.38-17.87  c0.39-6.93-25.86-41.99-23.42-44.89C469.78,1043.8,486.65,1090.79,494.19,1093.64z" />
<path class="cls-10" d="M563.44,1091.56c-3.75,2.31-3.73,7.26-7.89,8.37c-1.93-0.89-3.57-3.98-1.9-5.2c1.51-1.1,1.02-3.46,2.22-5.11  c6.04-8.34,25.98-43.11,27.41-43.21C595.02,1045.58,563.4,1082.39,563.44,1091.56z" />
<path class="cls-10" d="M428.03,1174.07c-6.84,1.62-15.72,1.01-22.05-0.51c5.55-7.79,14.7-1.88,21.21-5.43l37.96-4.78  c1.81-0.24,3.55-0.51,4.44,0.61C475.64,1171.63,448.38,1169.26,428.03,1174.07z" />
<path class="cls-10" d="M619.02,1124.22l-23.8,6.75c-1.92,0.58-2.27-2.43-2.16-3.41c0.46-4.05,18.22-4.59,18.62-9.03  c9.08,2.52,37.92-15.95,37.34-6.29C648.84,1115.12,623.57,1120.17,619.02,1124.22z" />
<path class="cls-10" d="M437.68,1134.89l26.67,4.33c1.85,0.27,2.63,1.41,2.58,2.62c-0.06,1.55-1.44,2.9-3.31,2.66l-29.55-3.88  c-7.66-1.01-19.74-1.87-19.39-6.38C415.11,1128.8,429.78,1136.54,437.68,1134.89z" />
<path class="cls-10" d="M511.7,1089.69c-0.03,2.1,0.17,4.1-0.72,5.44c-0.6,0.92-2.55,1.46-3.76,0.36c-1.02-0.93-1.18-2.76-1.43-4.09  l-7.57-39.26c-0.41-2.14,0.65-3.73,2.36-3.86c1.22-0.09,2.76,0.49,3.13,2.3L511.7,1089.69z" />
<path class="cls-10" d="M601.79,1109.56c-4.74-1.73-6.14,4.37-9.83,4.49c-2.39,0.08-3.02-4-1.28-5.12c1.2-0.77,3.68-1.73,3.69-4.7  c7.26,0,25.39-22.48,29.92-16.58C627.91,1092.36,601.86,1104.15,601.79,1109.56z" />
<path class="cls-10" d="M545.24,1089.47c-1.02,0.42-2.05,2.07-3.34,1.93c-1.7-0.18-2.86-1.32-3.45-2.81l5.65-36.84  c0.27-1.73,2.57-1.63,3.72-1.55C551.76,1050.49,543.74,1084.06,545.24,1089.47z" />
<path class="cls-10" d="M437.59,1202.73c-5.71,2.95-14.27,2.99-19.13,8.63c-20.6,1.01,15.59-14.65,14.6-14.25  c5.99-2.43,12.92-6.64,20.11-5.33C449.12,1197.2,442.73,1200.07,437.59,1202.73z" />
<path class="cls-10" d="M477.89,1100.51c0.3,2.08,1.3,3.51,0.88,5.63c-0.28,1.39-2.32,2.06-4.08,1.04c-0.99-0.57-2.11-1.94-4.17-2.46  c-3-11.74-17.7-16.36-18.48-29.23C464.1,1080.17,467.44,1094.98,477.89,1100.51z" />
<path class="cls-12" d="M225.45,1144.18c2.61-0.14,8.14,1.41,9.23,4.15c-6.84,1.18-13.88-3.57-19.47,0.7  c-5.03-5.21-12.5,2.57-20.73,0.86C202.65,1142.6,215.13,1144.72,225.45,1144.18z" />
<path class="cls-10" d="M450.13,1121.43c-1.23,4.7-2.32,6.56-7.33,6.52c-0.65-4.82-9.08-3.54-10.11-8.41  C430.66,1109.96,447.47,1123.65,450.13,1121.43z" />
<path class="cls-12" d="M236.13,1135.88c0.43,2.8,3.72,2.54,2.96,6.02c-3.85-1.62-6.85-3.32-10.26-2.34  c-4.28-7.86-14.41-2.04-22.38-6.93C216.81,1128.79,226.4,1135.07,236.13,1135.88z" />
<path class="cls-2" d="M369.77,1119.07l-1.87,0.25c-4.26-3-7.73-7.17-8.67-12.34C363.57,1109.92,368.89,1113.82,369.77,1119.07z" />
<path class="cls-11" d="M677.76,821.25c-50.49,30.96-107.84,48.3-166.86,56.63c-20.87,2.94-39.67,4.85-60.76,1.36  c-30.88-5.1-61.49-7.18-92.75-5.44l-43.87-24.87c-15.86-8.99-31.57-15.97-49.53-22.39c27.73-1.69,53.03-3.83,78.65-8.84  c37.53,2.73,77.69-6.98,116.48-4.77c38.79,2.21,110.11-1.34,144.56,2.25C629,817.84,653.52,816.73,677.76,821.25z" />
<path class="cls-9" d="M221.67,869.71c10.45,9.96,20.53,19.69,33.61,29.51c-26.11,10.99-51.58,22.07-80.2,27.27  c-16.09-15.53-29.4-33.7-41.47-51.73l0.88-1.93c17.36-0.1,34.72-0.2,52.1-0.3l4.34,1.89l1.23-1.9c8.4,2.13,16.25,2.15,23.55,0.08  C217.71,870.53,219.7,869.56,221.67,869.71z" />
<path class="cls-11" d="M186.39,836.17l0.55,2.17c-6.94,10.25-6.03,25.3,3.83,33.51l0.15,2.57l-57.32,0.34  c-10.11-15.09-22.94-28.94-30.79-45.46c2.66-1.41,3.99-2.11,3.99-2.11c19.67,0.33,39.28-0.28,58.83-1.83l4.22,1  C175.25,829.69,181.47,832.07,186.39,836.17z" />
<path class="cls-12" d="M169.87,826.35c-21.68,4.17-44.72,1.67-67.05,2.94c-10.22-15.49-25.99-25.59-41.91-38.24  C99.05,796.52,137.86,806.47,169.87,826.35z" />
<path class="cls-10" d="M221.67,869.71c-8.44,11.22-20.38,4.65-30.75,4.71c-16.48-12.35-9.66-33.92-4.54-38.25  c10.47-8.86,23.74-8.49,33.39,0.77C228.69,845.49,229.62,859.14,221.67,869.71z" />
<path class="cls-9" d="M702.88,937.07c-27.46,1.82-55.96,2.25-83.38-3.45l-36.85-7.67c10.46-5.71,20.34-9.87,29.67-15.74  c1.2,12.06,16.37-2.24,12.98,12.73c10.47-0.94,19.37,3.41,28.23,6.75C664.24,933.74,693.33,935.37,702.88,937.07z" />
<path class="cls-2" d="M607.61,1212.46c0.9,1.6,1.94,4.41,5.07,5.3c-2.84,4.79,1.33,9.27,1.52,14.15c0.95,23.9,2.04,47.47,8.77,69.9  l2.07,3.68c0.28,4.38,0.75,8.75,1.42,13.09c5.96,38.45,11.67,77.53,6.82,117.04c-0.32,2.59-1.49,4.98-2.65,7.29  c-15.42,5.8-30.66,9.21-47.02,11.43l-1.05-2.99c9.56-40.58-14.24-59.33-51.4-66.79c-40.57-8.14-118.7-7.48-134.31,40.59  c-11.7,36.01,27.63,60.88,58.22,67.29l2.91,2.63c-24.28,19.8-49.31-2.26-72.13,10.37c-21.68,12-48.43,17.77-70.89,5.55  c-36.95-20.11-58.11-2.88-69.2-9.6c-62.91-38.11-117.57-96.57-130.31-171.96c-4.49-26.57-3.14-54.17,6.61-78.68  c0.73,18.16,7.8,59.09,26.46,69.3l1.97,0.94c1.86,8.68,13.99,8.76,21.19,8.63l1.2,1.84c6.61,1.9,14.74,1.05,22.2-1  c20.25-5.58,40.02-7.84,61.17-6.47c31.55,2.04,59.52-8.9,80.03-32.72l22.36-25.97c2.49,0.69,4.16,7.33,1.55,8.54l2.63,3.14  c15.77,62.3,80.76,89.37,140.19,76.78c32.83-6.96,40.04-38.31,39.62-68.47c-2.92-9.44-6.14-18.69-9.68-27.75  c-4.87,0.77-7.18-7.72-2.78-8.82l6.52-30.16c5.28-5.03,8.9,4.56,12.79,10.01l-2.02-23.7c-0.2-2.36,0.67-5.2,2.66-6.24  c7.08-3.69,14.48,16.35,17.18,20.93c0.25-10.26-4.54-20.76,1.62-29.31c10.59,3.06,11.97,14.38,16.89,22.88  c2.66-7.08-3.07-14.47,2.78-19.32C597.39,1196.23,601.32,1207.44,607.61,1212.46z" />
<path class="cls-9" d="M997.61,916.67c13.21,17.36,25.66,36.09,38.26,53.7l0.78,1.09c0.15,0.2,0.01,0.56,0.08,0.81  c0.25,1.52-0.26,1.61-1.53,0.27c-0.28-0.43-0.94-0.61-1.25-1.02l-2.01-1.95c-24.53-24.03-53.95-41.77-86.38-52.99  C962.56,916.03,980.51,919.66,997.61,916.67z" />
<path class="cls-9" d="M881.17,932.02c0.24,2.66,0.07,5.31-0.01,7.97c-2.5,0.25-1.79-2.67-1.91-4.5  C879.17,934.05,879.27,932.27,881.17,932.02z" />
<path class="cls-9" d="M886.16,921.61c-0.87,1.86-1.57,4.33-3.76,4.82C882.81,924.28,883.78,921.93,886.16,921.61z" />
<path class="cls-6" d="M1102.09,1093.58c1.3-3.6,0.91-8.17,3.93-10.77C1106.16,1086.36,1105.19,1091.63,1102.09,1093.58z" />
<path class="cls-4" d="M583.62,1454.35c-14.84,2.01-28.56,11.08-40.71,19.48c-34.46,23.83-49.57,12.87-84.93,21.26  c-16.78-3.59-33.7-10.55-46.68-21.3c-22.4-18.56-24.75-47.98-4.22-68.54c34.22-34.27,102.63-30.71,143.85-17.53  C580.46,1397.17,593.36,1426.42,583.62,1454.35z" />
<path class="cls-1" d="M644.31,1281.42c13.59,43.63,17.18,91.3,22.89,137.31c-9.93,12.41-21.92,18.69-36.55,24.19  c3.53-32.38,2.89-64.17-1.65-96.96c-2.11-15.25-5.69-29.61-6.01-44.14L644.31,1281.42z" />
<path class="cls-3" d="M474.3,1536.75c16.44-3.01,31.35,8.72,34.04,24.01c2.8,15.9-7.82,30.98-23.67,34  c-15.59,2.98-30.76-7.77-33.74-23.5C448.03,1555.93,457.47,1539.83,474.3,1536.75z" />
<path class="cls-2" d="M265.97,1214.76c-9.55,9.88-19.18,3.26-33.86,6.23c10.51-20.94-11.99-22.71,8.98-41.66  c6.63-5.99,14.85-3.57,23.04-2.56c2.74,0.34,9.29-4.5,10.11,0.27c1.29,7.5-4.93,14.29-4.47,21.8  C270.13,1204.64,269.88,1210.71,265.97,1214.76z" />
<path class="cls-10" d="M172.89,1331.49c-9.44,0.75-24.38-0.96-24.35-11.41c0.06-20.15,22.76-33.46,41.39-28.75L166,1304.13  c-4.51,2.41-7.43,7.87-6.05,11.93c4.91,14.48,26.37-1.09,32.43,1.36C190.44,1326.5,180.05,1328,172.89,1331.49z" />
<path class="cls-6" d="M394.53,1233.65c-12.16,11.43-22.44,25.58-30.81,40.05c0.34,2.81-2.77,2.82-3.54,0.18  c-0.55-2.83-1.68-5.58-1.55-8.54c11.38-16.23,19.54-32.72,26.58-51.2C390.65,1218.52,392.28,1226.82,394.53,1233.65z" />
<path class="cls-10" d="M230.66,1169.14c-16.18,5.95-25.56,18.8-38.55,30.68c0.49-10.22,36.08-37.44,39.88-33.53  C232.47,1166.79,232.03,1168.64,230.66,1169.14z" />
<path class="cls-1" d="M360.13,1134.62c-1.55,2.11-3.8,3.67-6.67,3.16c-1.81-4.17-6.29-10.37-4.64-16.42  C354.87,1122.55,360.26,1128.56,360.13,1134.62z" />
<path class="cls-10" d="M233.55,1157.13c-12.28,2.82-22.56,7.91-34.45,10.89C208.92,1160.56,221.66,1155.29,233.55,1157.13z" />
<path class="cls-2" d="M332.03,1153.81l-2.47,1.08c3.67-17.11,0.95-30.98-13.48-44.01C332.6,1118.75,335.56,1137.43,332.03,1153.81z" />
<path class="cls-7" d="M1036.74,972.27c2.4,0.76,4.32,3.44,3.28,6.53c-2.26-2.48-3.53-4.3-4.81-6.26L1036.74,972.27z" />
<path class="cls-2" d="M744.19,1117.21c-2.14-0.09-5.27-0.78-7.08-0.65C738.86,1115.03,743.62,1114.29,744.19,1117.21z" />
<path class="cls-10" d="M530.17,1248.74c-0.71,1.2-0.07,3.98-0.01,5.43c0.08,1.75,1.86,1.57,5.33,1.32  c-0.22,10.65,8.06,18.98,9.05,29.63c1.7,18.23-3.72,38.61-13.56,54.21c-6.15,9.75-18.44,14.29-29.35,16.74  c-58.54,13.17-128.92-17.92-141.45-82.21l3.54-0.18c17.73-0.9,36.21-1.12,53.27-8.51c17.61-7.63,34.11-20.07,45.83-34.43  c1.28-0.29,3.08-0.72,4.2-0.84c1.74-0.19,0.87,3.24,1.71,3.71c8.59,4.79,17.63,8.54,27.23,10.59l15.17-60.82  c0.57-2.3,2.49-3.23,4.41-2.29c1.61,0.79,1.97,2.52,1.37,4.8l-15.71,59.22C511.14,1250.07,521.12,1247.24,530.17,1248.74z" />
<path class="cls-10" d="M451.21,1220.99c-4.83,2.43-14.01,16.92-17.65,12.6c-2.16-2.57,12.68-16.78,12.26-16.41  c10.71-9.33,41.13-44.57,44.1-43.59c1.66,0.55,2.55,1.77,2.75,2.99C493.24,1180.03,454.4,1214.54,451.21,1220.99z" />
<path class="cls-10" d="M547.13,1167.51c7.05,12.89,18.97,21.12,6.13,21.79C530.84,1161.33,545.5,1164.52,547.13,1167.51z" />
<path class="cls-2" d="M384.25,1177.71c-1.44-2.34-3.27-1.57-2.91-5.41l3.17-4.09c0.7-0.9,5.29,0.87,4.49,2.88  C388.04,1173.52,386.25,1176.43,384.25,1177.71z" />
<path class="cls-1" d="M246.19,1203.08c-4.66-3.2-1.57-10.72,0.6-15c2.7-5.33,8.33-6.48,14.52-4c6.57,2.63,6.05,10.75,3.19,16.25  C261.15,1206.77,253.07,1207.82,246.19,1203.08z" />
<path class="cls-10" d="M254.79,1187.16c1.71-0.74,3.7-0.26,4.5,1.41c0.53,1.12,0.46,3.08-1.1,4.05c-1.19,0.74-3.16,0.64-4.29-0.98  C253.11,1190.53,252.52,1188.14,254.79,1187.16z" />
<g>
</g>
<g>
</g>
<g>
</g>
<g>
</g>
<g>
</g>
<g>
</g>
<g>
</g>
<g>
</g>
<g>
</g>
<g>
</g>
<g>
</g>
<g>
</g>
<g>
</g>
<g>
</g>
<g>
</g>
</svg>