<?xml version='1.0' encoding='UTF-8'?>
<svg xmlns="http://www.w3.org/2000/svg" version="1.1" id="Layer_1" x="0px" y="0px" viewBox="0 0 1200 1800" style="enable-background:new 0 0 1200 1800;" xml:space="preserve">
<style type="text/css">
	.st0{fill:#3ABF83;}
	.st1{fill:#FFFFFF;}
	.st2{fill:#FEFEDB;}
	.st3{fill:#5FB630;}
	.st4{fill:#64D292;}
	.st5{fill:#FED231;}
	.st6{fill:#127E3C;}
	.st7{fill:#FD6F43;}
	.st8{fill:#05352D;}
	.st9{fill:#AAF3A6;}
</style>
<path class="st0" d="M1200,128.96v174.46c-3.82-0.23-7.66-0.56-11.35-1.6c-186.18-60.94-385.24-59.02-572.31-1.81l-5.96,0.54  l-3.87-0.73c-35.65-18.92-72.23-36.14-110.16-50.02l-3.13-2.38c-2.74-1.28-5.39-2.91-7.94-4.91c-9.57-3.15-19.63-4.68-30.19-4.6  c-6.75-18.32-18.6-22.15-27.83-3.43c-1.74,0.91-3.14,1.26-4.27-0.52c-6.07-17.76-20.23-35.5-40.5-35.42  c-14.1,0.05-21.05,7.11-26.2,19.32c-0.73,6.43-2.98,9.32-6.75,8.65c-12.35-8.71-23.71-10.11-30.52,5.87l-1.94,1.71  c-7.66,2.79-16.07,3.49-25.23,2.12c-8.97,0.43-20.38,1.91-24.85,10.68l-2.1,0.65c2.94,2.99-2.09,4.23-5.07,4.49  c-34.64,1.15-69.29,1.96-103.94,2.43c-34.35,3.93-69.11,7.49-103.84,10.28c-14.85,1.19-33.12,2.44-47.77,0.67  c-0.74-0.09-1.45-0.44-2.17-0.84c-0.75-0.41-1.43-0.94-2.09-1.51v-134.4l0.93-1.92c399.24,0.11,798.52,0.21,1197.83,0.32  L1200,128.96z" />
<path class="st2" d="M1045.37,428.29c15.51-1.23,31.87,2.54,46.94,6.4c0.66,0.17,1.19,0.85,1.69,1.67  c22.18,2.7,44.09,14.89,61.83,28.4c13.72,10.44,33.28,29.17,41.51,44.18c1.33,2.43,2.13,4.86,2.67,7.6v220.51  c-1.66,3.48-6.02,5.28-9.61,3.78l-2.64,0.19c-4.93-21.03-25.08-26.92-35.7-5.97c-1.72,1.53-3.06,2.34-4.46,0.31  c-25-50.59-94.22-39.76-125.97-1.43c-1.62,4.72-10.25,6.34-12.79,2.49l-2.13,1.9c-15.99,0.2-31.89-0.21-47.7-1.25l-2.93,1.03  c-12.99-4.15-27.29-4.91-40.19-0.01l-3.08-0.79c-138.06,0.8-276.7,1.01-415.91,0.65c-3.95-0.53-3.34-3.53-2.68-6.49  c2.14-9.64,15.82-21.85,26.29-18.22c0.59,0.2,0.66,0.94,0.64,0.89c-1.86-6.29,12.81-24.22,18.06-28.77  c32.82-28.39,95.16-14.94,124.2,13.84l1.07-0.46c11.36-40.52,49.86-77.7,91.61-82c8.5-41.91,53.28-77.35,95.44-58.45l7.14-18.12  l2.29-0.57c-0.45-1.35-0.69-2.77-0.34-4.16c1.43-5.76,8.48-15.86,12.16-21.07c5.19-7.36,12.77-17.19,19.44-23.06  c1.6-1.41,2.92-2.54,5.29-2.68c0.23-0.92,0.49-1.83,0.88-2.68c0.38-0.83,0.76-1.62,1.35-2.2c32.44-31.75,82.68-49.87,127.06-56.01  c0.82-0.11,1.68,0.05,2.56,0.25c0.91,0.2,1.79,0.53,2.66,0.9l3.92-0.58C1036.67,425.71,1043.6,426.93,1045.37,428.29z" />
<path class="st3" d="M1200,1214.91l-0.37,2c-38.42,5.82-76.86,11.64-115.29,17.46l-1.44-1.72c-0.68-0.37-1.7-0.96-1.6-1.54  c1.09-6.78,3.58-16,5.5-22.69c3.2-7.6,0.26-3.12-2.35,1.51c-3.7,6.58-6.31,13.98-5.54,21.63l-1.65,2.03  c-1.22,1.93-2.48,1.33-3.32-0.68l-2.43-11.5c-0.79,4.5-1.95,8.85-3.5,13.04l-2.32,0.19l-1.26-0.09c-5.2-17.5-6.78-17.68-4.72-0.52  l-1.74,1.45c-0.35,0.71-0.85,1.29-1.61,1.56c-1.51,0.54-17.83-6.29-19.93-8.05c-0.73,5.25-1.07,10.61-1.03,16.07  c-7.74,8.43-12.22-2.89-12.88-10.29c0.4,2.2-0.02,4.07-1.25,5.59c-77.6,14.63-154.91,30.12-231.93,46.49  c-3.01,7.63-11.55,10.34-19.15,10.49c10.26,13.16,17.76,27.41,22.52,42.75l-1.48,2.85c-0.18,2.44-0.82,3.44-1.92,3.01l-2.8-2.7  c-4.41-14.14-10.03-28.93-19.46-40.54c-5.94,5.36-15.8,5.09-23.13,2.63c0.73,4.29,2.28,8.44,4.67,12.43  c1.66,13.46-11.16-0.49-13.73-4.64l-46.42,23.22c0,0-1.32,0.28-3.95,0.83c-0.96,2.25-4.41,3.58-6.76,3.85  c-1.37,2.24-3.56,3.97-6.56,5.19l-86,41.51c-5.27,0.36-10.29,1.47-15.07,3.34c-4.48-0.98-8.76-2.78-12.84-5.4  c-3.75-0.47-5.61-1.9-5.6-4.28c-6.2,4.11-12.38,2.67-18.39-0.9c-3.84-3.48-8.07-6.12-12.7-7.9c-0.87,3.24-2.3,7.12-5.72,8.4  c-1.74,0.65-11.66-1.36-12.73-2.27c-2.9-2.48,1.16-11.08,2.95-13.81l-6.55-1.1c-9-4.93-14.47-4.77-13.72,7.19  c-0.32,0.83-0.78,1.64-1.56,2.12c-0.33,0.2-7.22,0.81-7.6,0.79c-3.23-0.18-6.27-1.51-9.04-3.07c-5.73-4.74-11.8-8.87-18.19-12.4  c-2.94-1.9-4.41-2.85-4.41-2.85c2.74,3.47,3.87,7.02,3.39,10.67c0.2,0.73,0.28,1.57-0.25,2.06c-4.24,3.99-46.12-2.48-52.91-5.69  c-9.82-4.64-12.87-15.21,0.8-12.76c3.9-1.71,5.07-5.95,3.5-12.71c1.62-2.9,1.35-4.7-0.82-5.41c-5.51,0.59-10.91,2.52-16.21,5.76  l-2.44-1.22c-0.75-0.83-0.71-1.8,0.14-2.89l5.27-5.39c-0.1-1.58,0.48-2.65,1.73-3.2c-2.09-2.05-0.87-3.03,1.79-3.23  c7.41,2.02,14.34-2.15,13.43-10.11c-1.18-10.23-18.81-19.7-27.51-24.23c3.38,2.86,4.39,5.55,3.04,8.07  c-6.17,2.03-6.28,4.75-0.35,8.17c0,2.72-2.24,4.56-6.73,5.52l2.6,9.53c0.04,1.67-0.74,2.42-2.09,3.2  c-2.97,1.73-57.53-18.97-64.59-23.1c-4.88-3.14-3.59-7.51,3.87-13.11c-5.3,1.2-9.73,0.6-13.28-1.82c-2.77,2.31-12.45,5.5-13.9,0.76  c-2.89-0.04-5.19-3.37-6.73-5.75c4.4-9.81,8.42-19.68,12.04-29.59c0.42-1.46,1.57-1.75,3.04-1.23c4.24-1.52,11.69,0.29,14.46,3.9  c3.11-1.34,4.72-0.95,4.84,1.19l2.26-0.98l12.63,4.84c3.13,0.81,4.56,2.33,4.3,4.57c0.83-1.4,1.26-1.17,1.3,0.69  c1.22-1.84,6.62,0.43,7.23,2.3c1.74-1.81,3.41-0.12,3.84,1.89c1.55-2.03,1.68-1.94,3.43-0.41c1.08,0.94,3.04,3.08,3.57,4.06  l2.83-0.33c6.3,4.49,12.87,7.62,19.71,9.39l67.11-7.29l3.91-33.3l2.27-3.03c1.3-0.48,2.27,0.41,2.92,2.66  c-0.47,10.99-1.05,21.97-1.75,32.92c12.5-1.68,24.99-3.13,37.49-4.35l3.65,0.69c2.32-2.45,4.26-3.79,6.75-0.92  c1.21-0.64,2.43-1.24,3.69-1.72c1.24-0.47,2.48-0.92,3.76-1.12c11.44-1.84,23.03-3.55,34.52-5.03c1.28-0.16,2.59-0.05,3.93,0.09  c1.35,0.14,2.68,0.42,4.01,0.74c-0.51-2.21,1.1-2.42,4.81-0.64l1.62-2.14c4.87-0.23,9.58-1.12,14.13-2.67  c-3.7-5.52-8.66-15.82,0.97-17.81c11.94-2.47,10.26,7.78,6.06,15.25l-0.15,1.55c91.02-16.72,181.94-34.36,272.76-52.9l-9.65-2.4  l-0.96-2.45c-0.66-0.19-1.17-0.38-1.17-0.56c0.1-3.84,0.87-10.34,1.55-14.17c0.04-0.23,0.5-0.39,1.07-0.53l0.49-1.04  c-1.83,0.27-1.76-1.4,0.1-1.63c1.29-1.32,3.15-1.48,5.59-0.48c0.7-1.44,1.75-1.96,3.16-1.55c-1.17-1.18-0.54-2.52,1.88-4.01  c-1.03-2.4-3.45-3.57-7.24-3.54c-1.84-1.97-1.52-4.74,0.96-8.32c2.36-7.54-1.58-10.74-9.2-8.26c3.37,4.78,2.85,10.26-1.54,16.45  c0.28,2.18-0.71,2.5-2.97,0.96l-1.32,1.95c-7.86-2.14-8.07,5.46-1.12,7.6c0.82,0.25,1.25,0.95,1.43,1.78  c2.43-1.19,4.01-2.29,5.82-4.51c-2.6-0.57-2.55-1.14-0.1-2.09c2.64-2.21,5.37,0.84,2.19,2.7c0.66,0.55,1.18,1.1,1.19,1.66  c0.06,3.62-0.83,12.69-1.79,16.03c-0.16,0.55-0.75,0.98-1.46,1.37c-2.3,2.37-14.61,0.3-16.95-1.21c-0.81-0.52-1.12-1.57-1.38-2.52  c-0.47-3.03-0.79-3.02-0.97,0.01l-2.46,1.76c-61.06-11.42-122.23-22.76-183.51-34.02c-2.5-3.86-0.3-5.16,5.99-5.4  c104.34-22.34,206.87-46.08,307.6-71.23c5.78-2.14,10.97-2.39,15.59-0.73c0.64-2.22,2.63-2.7,5.97-1.46l5.24-6.22  c2.6-1.58,4.67-2.5,4.96,1.15l0.83,1.25c12.47-6.25,28.12-6.52,16.28,10.72c1.91-0.16,3.88-0.11,5.9,0.15  c2.44,4.2,5.39,6.63,8.86,7.29c50.91-26.32,103.09-50.64,156.53-72.95c13.31-6.18,26.97-10.63,40.99-13.36V1214.91z" />
<path class="st4" d="M493.22,247.41c40.08,13.04,80.58,32.17,117.15,53.13l-3.23,2.38c-132.94,45.19-259.36,122.24-350.76,224.71  l-2.18-0.51l-3.83,1.89l-143.11-0.94l-7.38-2.93c-28.12-16.98-61.54-25.34-94.42-27.64l-5.44-2.15V263.04  c16.93,1.91,34.08,0.79,51.91-0.24c29.39-1.71,57.78-4.93,86.88-8.7c35.74-4.63,81.63-0.78,120.85-4c2.35-0.19,4.57-0.64,5.24-2.58  l1.5-1.72c75.03-0.59,150.02-0.49,224.96,0.28L493.22,247.41z" />
<path class="st5" d="M1200,993.55v14.6c-57.99,20.45-113.98,46.2-169.01,74.41c-9.43,4.83-17.76,9.47-27.35,13.51  c-4.35,1.83-9.07-3.67-10.25-6.97c-2.14-1.25-4.32,0.65-6.14-0.23c-5.42-2.6,6.67-7.39,1.43-14.41c-3.29-2.91-26.16,8.73-18.08,0.58  l0.68-2.27c11.22-4.1,4.83-17.07-5.2-13.08c2.16,5.72-0.67,7.33-8.48,4.85c-3.88,0.22-7.26,4.95-2.63,5.79  c8.97-1.26,8.79,2.48-0.54,11.23c-10.8,1.05-21.13,4.13-32.24,6.81l-130,31.36c-55.62,13.42-110,25.82-167.75,37.08l164.91,30.47  c7.82,1.45,14.58,3.6,21.88,3.9c0.26-0.88,0.58-0.87,0.97-0.01c5.81,2.27,12.22,2.56,18.34,3.72c0.73-2.55,1.76-2.38,2.47,0.19  c5.06,2.24,10.61,2.46,16.8,4.25c-3.45,2.66-7.29,2.61-11.78,3.51l-118.14,23.66l-46.61,9.32l-103.97,19.53  c-1.63-5.96,2.92-9.57,3.34-14.39c0.3-3.4-7.26-4.25-9.93-1.87c-5.69,5.07,6.53,15.1,2.65,16.53c-5.71,2.1-11.61,2.31-17.11,3.04  l-3.39-0.23c-0.74-13.03-0.45-26.14,0.87-39.31c-0.98-5.44-0.16-7.92,2.46-7.45l2.2-0.02c7.25,16.73,25.04,7.68,12.07-6.82  c0,0,0-1.78,0.01-5.33c5.57-5.93-4.25-12.76-9.48-8.82c-3.35,5.77-5.19,5.97-5.51,0.6l-1.29-0.15c-1.07-9.51-20.41,1.78-9.44,7.55  l-0.06,2.36c1.12,2.48-0.95,3.19-6.2,2.12c-9.8,0.63-4.24,13.7-1.05,18.78c3.68,5.86,10.61-4.48,11.93-8.33l2.21-0.16  c1.85-0.35,2.58,1.14,2.18,4.47c-1.08,13.08-1.47,26.31-1.18,39.68l-1.13,1.72c-16.61,2.22-33.22,5.15-49.91,7.04  c-2.6-1-4.84-0.69-6.75,0.92c-13.78,2.35-27.81,4.25-42.39,5.49c-3.09-2.24,3.86-34.22,0.07-37.41c-2.64-2.09-0.13-3.62,2.64-2.96  c3.98,5.8,8.68,10.35,14.12,13.66c5.81,1.22,8.43-2.35,7.88-10.69c6.83-9.9,0.86-17.36-10.09-10.48l-2.81-0.88  c-1.49,0.63-2.18,0.5-2.08-0.39c-0.79-0.37-0.75-0.59,0.12-0.67l0.68-0.95l-1.21-1.83c7.26-9,7.01-21.97-7.32-13.9  c-5.23-2.56-8.96-2-11.18,1.67c0.63,6.19,3.42,11.92,8.35,17.2c1.39,2.68,0.08,3.48-2.76,3.63c-9.99-10.07-24.23-15.4-18.36,4.44  c-5.46,11.48,4.65,10.78,12.31,6.33c3.05-2.4,6.13-4.27,9.25-5.63l0.45,1.45l-4.2,38.03l-66.77,7.4c-2.92,0.32-6.16-0.09-8.48-1.46  c-5.68-3.35-11.52-5.71-16.38-9.43l-0.76-3.18c2.39-6.22,4.22-12.76,4.54-19.42c-3.88,9.92-5.82,14.88-5.82,14.88  c-1.14,2.25-2.15,4.22-4.96,4.08c-1.69,0.42-2.88-1.05-3.84-1.89l-2.02-3.49c-0.5-9.46-1.14-18.9-1.93-28.29  c-0.38-0.73-0.69-0.77-0.92-0.04c1.9,4.24,3.69,26.74,0.41,29.48c-1.3,1.09-2.75,0.25-4.07-0.65c-5.43-4.01-13.45-5.18-19.18-8.43  c-0.96-0.18-1.54-0.65-1.58-1.54c9.1-11.64,12.67-22.44,12.73-37.07c1.32-5.99,3.12-11.2,8.45-4.17  c8.58-1.61,10.16-13.41-1.35-12.46c-1.53-1.96-0.64-4.26,2.65-6.88c3.4-6.33-2.18-8.33-7.49-5.44c-4.36-1.42-6.31-0.25-5.84,3.49  c1.63,3.01,2.34,5.74,2.13,8.19l-0.95,2.44c-14.81,2.25-11.76,15.58,0.51,2.17l2.01,1.16l1.47,2.1c-1.36,9.33-2.65,18.64-3.87,27.94  c-2.99,6.82-6.59,13.17-10.82,19.07l-2.9-0.19c-4.89-1.13-9.72-2.18-14.46-3.9c-0.67-2.5-1.99-2.74-3.98-0.7l-1.55,1.71  c-15.66-3.6-31.35-7.05-47.07-10.33l-1.18-2.02c-0.57-1.55-2.1-1.7-4.59-0.43l-1.13-0.57l-2.88,1.3l-11.43-2.6  c-3.49-1.34-7.18-2.02-11.06-2.05l-0.54-2.35l-1.37,0.4c-0.83-2.46-1.96-3.6-3.39-3.41c2.01,3.77,0.29,3.81-3.25,3.88  c-2.69,0.05-9.03-1.16-8.26-4.49l-0.6-2.09c5.56-4.51,4.35-13-2.46-15.19l-0.64-2.09c-1.77,0.16-1.63-0.41,0.04-1.1  c-0.61-0.62-1.07-1.45-0.72-2.21c2.69-5.82,3.09-9.34-3.97-12.52c-7.84-3.53-10.04-1.82-12.78,5.67l-2.51,9.51l-2.23,0.56  c-0.79,1.9-1.37,2.02-1.92,0c-2.65,0.08-2.6-1.23,0-1.92c1.17-2.61,1.81-5.52,1.89-8.72l-1.9-0.88c1.19-11.55-1.53-16.2-13.41-12.76  c-11.5,3.33-10.6,10.72-2.64,17.56l-0.97,1.98c2.63,1.93,1.74,2.87-1.21,1.72c-1.54,2.12-3.33,1.67-3.76-0.9l-2.08-0.8  c-0.43,2.8-4.01,2.62-4.6-0.05c-0.73-0.24-0.78-0.57-0.15-1.01c-0.5-0.44-0.95-0.91-1.21-1.46c-0.44-0.93,2.07-19.41,2.74-20.35  c0.35-0.49,0.85-0.87,1.4-1.21c-0.51-0.24-0.56-0.55-0.15-0.94c-1.92-0.06-1.81-1.73,0.1-1.96c-1.94-7.44-0.34-10.09,4.81-7.94  c7.31-0.78,7.84-2.32-0.16-2.77c-2.26-2.75-0.51-4.76,5.26-6.03l0.1-0.81c-4.92,0.03-7.35-1.79-7.28-5.45  c-2.91,3.42-5.33,3.74-7.27,0.94l-0.85,3.5c-2.75,1.59-3.62,2.99-2.59,4.21c4.93,2.91,8.46,6.85,5.71,12.51l0.16,0.83l-0.49,1.05  c0.34,0.69,0.65,1.39,0.83,2.11c0.64,2.61-2.01,22.07-3.3,24.02c-0.43,0.65-1.03,1.19-1.68,1.7c-4.15,0.81-8.17-3.62-8.25-7.74  c-0.58-0.14-0.52-0.45,0.01-0.89c-1.88-0.84-4.1-0.95-6.65-0.34l-9.07-1.67l-1.07-1.86c-0.46-0.69-0.89-1.4-1.2-2.16  c-0.3-0.74-0.56-1.46-0.53-2.16c0.41-8.95,1.78-17.9,3.26-26.73c2.68-16.08,6.49-31.98,10.49-47.78c-0.14-3.11,0.67-4.92,2.43-5.45  c-0.38-2.82,0.3-4.78,2.05-5.88c2.89-1.35,5.11-3.24,6.64-5.69c0.71-3.84,3.31-5.21,7.79-4.12l1.07-1.82  c84.62,9.21,169.66,19.47,255.1,30.78l0.94,2.05c2.72,0.05,5.33,0.56,7.84,1.55c0.6-1.85,1.43-1.78,1.84,0.1  c1.97-0.24,4.03,0.1,5.84,0.93c0.6-2.66,1.76-2.4,2.72,0.13c0.18-0.63,0.74-0.42,1.08,0.11l3.82-1.19l108.97,16.52  c93.15-34.43,188.59-61.28,286.47-85.86c11.98-3.55,24.15-5.64,36.5-6.25l0.47-2.06c23.8-5.06,47.62-10.12,71.46-15.19l5.78,0.74  c0.2-0.87,0.52-0.86,0.96-0.04l3.03-0.64l0.33-2c35.18-6.02,70.37-12.04,105.56-18.06l1.48,1.7l1.99-0.27  c0.26-2.55,1.15-2.46,1.92-0.03c1.58-0.56,3.14-1.35,4.68-2.38l2.11,0.91c-0.02-2.59,0.79-2.43,1.85-0.1  c0.4,0.52,0.73,0.43,1.04-0.13l0.62-2.02c0,0,16.24-2.16,48.72-6.49l1.38,1.75c0.3-2.76,1.13-2.63,2.17-0.18  c-0.19-2.75,2.05-2.61,2.7,0l2-0.68l0.48-1.97c30.4-2.85,60.8-5.7,91.21-8.55L1200,993.55z" />
<path class="st6" d="M1200,1214.91v152.13c-1.21,6.5-1.91,13.18-2.11,20.04c-2.43,1.41-4.74,0.31-6.93-3.28l1.89,10.12  c-0.69,1.52-2.03,1.85-3.66,1.59c-8-7.07-16.2-13.95-24.59-20.62l0.27,0.84c-0.25,0.63-7.04,10.87-7.64,11.2  c-3.42,1.87-3.54-1.65-3.15-4.41c-0.73-1.61-0.58-3.16-0.17-4.81c6.45-25.87,10.03-48.92,4.31-75.07l2.85-4.75  c-2.99-2.07-5.07-4.51-6.25-7.35c3.91-3.3,8.24-6.17,13-8.6c15.16-6.93,6.95-19.54-3.08-5.8c-1.37,0.6-2.53-0.05-3.5-1.95  c2.73-6.4,4.22-13.72-4.38-15.63c-16.59-3.7-12.78,13.59-7.23,22.43l-1.64,1.73l-2.26,0.76c-8.77-7.69-24.15-10.82-28.26,3.05  c-2.18,7.35,1.41,13.61,9.46,11.86l1.96,1.21c5.02-2.2,6.32-1.78,3.91,1.28c0.54,0.59,0.94,1.34,0.67,2.09  c-2.27,6.26-2.83,12.8,6.39,12.91c5.19,0.06,6.39-1.6,8.59-6.25l2.54-0.23l0.86-0.96c-0.84-0.28-0.82-0.57,0.04-0.89l1.13-0.99  c-1.38-1.28-0.79-1.84,0.9-0.88l1.05-1.05c0.27-2.62,0.98-2.48,1.91-0.09c0.86,0.39,1.56,0.81,1.67,1.35  c6.79,33.32-0.15,64.72-13.81,95.27c-0.55,1.24-1.76,1.91-3.01,2.32c-7.87,14.28-26.07,5-31.7-6.62l-17.78,49.67  c-2.75,1.02-4,0.4-3.74-1.88c4.78-19.01,10.61-37.66,17.49-55.95c-4.8-13.89-19.48-25.73-28.58-7.65  c-6.5,11.41-14.34,21.52-23.5,30.31l-2.86-0.55c-11.52,27.09-37.66,8.39-40.61-13.5l-4.44-28.68l-12.25,10.56  c-12.02,12.57-38.59,18.02-40.25-5.68c-0.23-3.29,0.47-10.4,4.68-9.28c3.54-3.09,4.52-5,2.93-5.74  c-13.63,5.08-27.66,9.06-42.09,11.95c-34.19,9.14-68.01,19.46-101.47,30.96l-6.3,0.97c-1.64,0.48-2.31,0.09-2.38-1.45  c-0.45,1.56-1.55,3.01-3.3,4.34c0.49,2.51-0.38,2.6-1.67,0.41l-2.1-0.71c-1.87-4.46-6.44-6.58-13.72-6.38  c-3.34-3.31-0.93-5.1,7.24-5.39c2.93-1.56,5.6-5.14,4.83-8.56c-3.28-14.71-17.24,0.1-21.21,6.47c-1.7,1.12-2.93,1.25-3.93-0.58  c1.2-9.58-1.64-15.85-8.52-18.8c-16.64,5.4-4.4,15.39,4.54,21.21c2.28,4.97-1.05,4.33-4.94,3.27c-10.47-7.23-17.01-6.69-19.59,1.63  c-1.09,3.78,0.75,6.8,5.54,9.05c2.23,4.51,3.33,9.42,3.28,14.71l-0.26,2.09l-25.22,7.86c13.29,15.05,24.47,36.01,28.3,55.84  c0.66,3.43-3.43,16.38-7.16,15.34c-0.78-0.22-1.37-1.16-1.9-2.3c-6.97-23.06-16.47-46.65-29.68-65.88  c-33.7,10.18-67.44,21.09-101.23,32.73l-13.17,1.99c-5.68,4.61-11.02,5.66-16,3.16c-6.93-12.47-20.54-11-28.12-0.1  c-11.43,8.08-6.51-8.16-4.46-14.37c3.16-4.14,3.01-4.44-0.28-8.35c2.61-3.14,4.38-11.43,0.02-13.78c-0.91-0.49-8.53-0.92-8.93-0.72  c-2.67,1.37-5.47,14.12-4.24,17.54c1.76,7.12,2.37,14.07,1.82,20.84c-1.67,5.09-8.91,12.27-13.67,7.76  c-3.03-0.02-4.14,1.82-3.32,5.53c-2.08,1.95-4.84,3.28-8.27,4.01c0.46,3.12-5.79,2.06-8.05,1.33c-10.74-3.49-9.55-15.42,1.19-17.32  c0.22-2.42,2.72-3.19,7.51-2.31c4.82-1.26,12.03-11.16,6.96-15.09c-5.43-4.21-8.89,0.94-7.37,6.46c2.91,4.96,2.6,7.66-0.93,8.1  c-5.33-5.04-8.54-6.07-9.63-3.09c1.87,2.18,2.37,4.07,1.51,5.67c1.17,0.81-3.55,3.13-5.05,3.78c-3.6,1.55-16.64,2.99-19.48,0.59  c-1.55-1.31-4.17-5.1-4.28-7.05c2.22-39.79-12.58-76.32-33.09-109.46l-0.45-4.02c6.75-3.42,14.13,11.65,26.67,13.53  c2.34,0.35,5.25-2,7.66-0.11c0.63-3.61-0.29-5.97,0.96-9.09c1-2.48,5.55-5.3,8.33-3.84c5.16,2.7,9.88,4.71,16.47,3.77  c-3.06,5.67-5.68,9.05-5.49,14.86c3.37-0.94,6.01,1.68,8.82,1.97c4.77,0.49,6.63-5.17,7.06-9.18c5.68,0.65,9.9,4.3,14.39,7.8  c5.89,4.59,13.99,5.58,19.24-0.02c5.69-6.06,9.21-13.64,16.74-18.07l-16.46,22.8c7.87-0.4,14.38,9.58,20.17,5.24  c3.49-2.61,7.95-0.41,11.47-2.11l85.85-41.44c2.82-1.36,4.62-3.52,7.45-3.48c4.02-0.51,4.84,7.06,1.48,9.47  c-1.34-0.11-3.3,0.62-2.22,1.81c0.97,1.07,10.84,7.52,11.76,6.71c3.52-3.12,6.31-7.66,2.6-11.72c0.15-1.92-0.17-3.66-0.97-5.2  c-2.26-1.56-4.22-3.2-5.9-4.91c-0.19-1.69,1.61-1.81,3.12-2.56l48.29-24.16c14.67,21.48,10.57,5.96,10.21,5.56  c-2.67-3.01-3.49-5.93-4.11-9.6c-0.33-1.96-3.94-3.62-0.74-6.26c2.7,7.44,20.17,4.26,21.05,3.71c1.42-0.88,4.5-4.5,6.09-2.48  c10.44,13.22,16.35,28.83,20.9,44.56c0.83,0.26,0.79,0.55-0.06,0.89l-1,1.16c1.41,1,1.43,2.89,0.97,4.47  c2.81,1.2,5.74,1.37,8.54,0.08l-1.03-1.79c0.89-1.29,0.93-2.88,0.12-4.75c-0.77-0.97-2.13-0.7-2.95-0.01  c-0.28,0.83-0.6,0.84-0.96,0.04c-0.53,0.41-1.07,0.05-1.62-1.07c-0.83-0.04-0.86-0.72-0.1-2.04c-1.6-12.1-8.37-23.24-15.36-33.62  c-2.7-4-10.39-13.34-7.17-14.19c8.42,0.63,15.76-1.95,19.54-9.7l67.2-14.38l59-11.97l102.12-20.08c1.53-0.3,3.24,0.91,3.78-0.33  c1.37-3.09-2.23-13.32,2.14-14.54c2.49,7.26,1.7,26.67,11.09,20.97c0.89-5.39-0.94-12.25,1.3-17.42c0.47-1.07,3.27-0.54,3.98,0.32  c1.91,2.32,15.91,6.69,19.12,7.47c1.11-1.25,2.34-1.16,3.69,0.3c1.39-0.64,2.74-1.01,4.03-1.13c4.52-7.33,0.85-12.66,6.89-17.57  l2.64,12.78c0.4,1.94,0.3,3.33,2.05,3.74c1.33-1.27,3.21-1.59,5.64-0.94L1200,1214.91z" />
<path class="st6" d="M1190.39,740.83l-1.89,2.87c-12.95,5.02-25.17,11.4-35.8,20.46c-2.47-1.08-3.71-1.63-3.71-1.63  c-5.99-9.18-13.99-12.41-23.95-7.24c-2.98,3.31-5.92,4.46-8.8,3.46c-12.79-15.83-29.27-7.14-37.64,8.48  c-2.16,1.02-4.45,0.04-6.87-2.92c-11.49-7.96-19.03,16.92-21.04,24.46c0,0-0.89,0.14-2.67,0.42c-7.87-9.12-15.08-11.3-19.32,2.77  c-1.86,2.29-3.54,2.29-5.33-0.1c-2.28-5.34-5.59-9.08-9.92-11.24c-2.04,4.12-4.88,7.61-8.52,10.48c-1.96,6.7-5.36,5.28-8.24-0.12  c-17.81-11.74-28.73,18.48-30.01,32.3c-2.59,2.97-3.88,4.45-3.88,4.45c77.07-27.25,157.12-43.26,235.81-53.76l1.38,1.74v149.8  l-0.54,1.96l-73.27,4.52c-2.03-0.94-3.46-2.93-4.28-5.94c-2.58,5.16-5.3,6.96-8.14,5.4c-2.51-2.74-5.35-5.03-8.51-6.85  c2.45,2.77,3.04,5.56,1.78,8.35c-33.02,4.68-65.64,11.23-97.88,19.64l-5.8-0.12c-0.22,2.26-2.01,2.4-2.83,0.36l-4.15,2.53  c-25.28,8.41-50.17,17.09-74.67,26.04l-1.99-0.3c-0.94,2.17-3.57,2.33-7.9,0.47c-2.9,0.01-5.67,0.76-8.3,2.25  c-1.24,4.3-5.07,5.1-8.61,4.76l-0.14,2.1c-14.31,5-28.48,10.5-42.53,16.49l-6.3-0.08l-1.1,1.71l-80.48-20l-2.06-1.92  c0.48-5.14-0.2-10.39-2.03-15.73l-0.81,0.11c2.16,4.72,3.47,9.95,3.93,15.67l-2.31,0.82l-17.99-3.53l-0.98-2.15  c-0.25,0.51-0.57,0.5-0.96,0.04c0.38,2.75-1.84,2.73-2.65,0.2c-1.28,0.61-2.76,0.46-4.44-0.45l-79.38-17.68l-0.72-2.13  c2.22-3.27,5.51-5.49,9.85-6.67c21.9-8.28,43.33-16.21,64.28-23.78l17.22-8.56c-8.05-4.34-17.24-6.88-27.57-7.63  c-44.26-7.42-88.53-13.95-132.81-19.58l-0.25-2.21l0.4-1.99L701.8,875.9c-1.37-2.5-3.21-4.8-5.53-6.9  c-5.47-11.89,20.24-11.52,14.7,0.66c-1.38,0.06-4.76,5.21-3.44,5.67c1.25,0.44,26.61-2.98,26.11-4.21  c-5.36-4.17-8.87-11.32-7.28-18.13c0.62-2.68,2.31-7.4,5.43-5.63l1.14-1.18c3.15,0.37,6.11,2.41,8.89,6.13l1.25-10.83  c0.42-3.27,1.04-8.04,4.91-6.3c1.39-2.17,3.7-1.58,6.93,1.77c6.92,1.83,10.66,7.52,11.23,17.07c0,0,1.7-1.3,5.11-3.9  c-2.69-11.59,14.73-13.85,12.73-1.29c7.28-5.28,17.34-6.08,16.46,5.99c37.91-10.06,73.81-26.31,108.59-44.21  c15.71-8.5,31.16-16.4,46.35-23.71c0-17.5,8.69-40.2,28.65-40.79l1.51-1.53c6.1,0.28,11.83,1.48,17.19,3.59  c0.07-6.05,2.11-9.96,6.1-11.74c12.03,0.12,8.59-0.56,11.6-4.05c14.66-17.02,35.36-28.51,57.65-32.21  c28.96-4.81,60.25,7.71,71.56,35.4c4.07-8.12,9.96-15,18.75-15.55c9.39-0.59,16.09,6.84,19.32,15.07  C1188.57,737.31,1188.36,739.84,1190.39,740.83z" />
<path class="st6" d="M216.96,942.62l2.13-1.28c14.74-0.22,29.52-0.81,44.33-1.75l4.42,1.33l3.27,0.77  c7.45,7.77,17.03,14.27,27.4,17.38c26.55,7.97,62.29,7.13,90.12,5.37c16.6-1.05,28.48-3.92,41.31-14.3l2.92,0.28  c3.89-2.33,6.17-0.18,8.59,3.08c3.15-6.34,5.67-4.44,9.83-0.34c5.8,0.61,9.57,2.77,11.31,6.48c0.94-2.64,3.64-4.12,8.1-4.44  c6.77,1.92,13.39,4.37,19.85,7.35c8.73,1.83,9.79,5.96-0.24,7.21c-12.98-0.7-26.21-0.35-39.7,1.05  c-17.15-1.19-31.26-1.01-47.56,4.53c-32.96,11.21-65.91,23.01-97.86,36.81c-0.35,0.39,6.25,7.53,6.82,7.9  c10.14,6.42,20.63,11,31.6,15.66c1.5,0.73,1.26,1.85-0.09,2.91c-0.56,0.76-0.08,0.76,1.09,0.26c0.36-2.01,1.81-2.51,4.36-1.51  c32.32,14.27,66.79,21.31,100.94,27.77l29.56,9.4c14.21,1.32,28.62,1.22,43.21-0.31c77.91-7.11,155.06-15.65,231.44-25.6  c28.93-3.41,58.06-5.17,87.16-4.95c2.86,0.02,6.65,0.41,5.43,3.76c-77.16,16.4-152.78,39.04-228.59,61.83l-24.89,8.08  c-23.4,7.59-46.07,15.11-69.17,24.05l-86.46-13.11c-9.3-1.41-17.99-2.18-26.65-4.06c-0.37-0.56-0.73-0.6-1.08-0.11  c-0.88-0.09-1.83-0.23-2.72-0.13c-1.87-0.77-3.82-1.09-5.84-0.93c-0.59,0.09-1.26-0.23-1.84-0.1c-2.47-1.06-5.17-1.31-7.84-1.55  l-207.14-25.91l-49.97-5.1c-2.44-0.57-4.16-0.18-5.17,1.18c-6.26-1.2-12.61-1.77-19.06-1.71l-1.87-2.06l-1.33,1.81  c-35.35-3.17-70.7-6.34-106.05-9.51l-0.99-2.02V942.72l2.85-1.66c22.89-4.1,46.22-8.08,69.44-10.51  c12.16-1.27,24.34-2.32,36.57-2.35c1,0,2.01,0.31,3.05,0.64c1.05,0.34,2.05,0.81,3.04,1.31c2.87,2.01,5.29,4.88,7.25,8.59  c5.47,1.18,7.25-1.1,5.34-6.83c-0.12-2.33,0.32-3.76,2.88-3.58c1.71-3.11,11.83-3.17,12.72,0.62c0.98-1.96,2.95-2.44,4.91-1.62  c0.2-0.75,0.54-1.89,1.11-1.92c7.17-0.4,37.46-1.11,42.42,0.6l1.25,2.26l2.09-0.5c3.19,3.2,8.13,1.81,11.44-0.5l1.95,0.94  c2.02-1.29,3.42-3.11,4.18-5.45l1.58-0.2c0.59,4.01,2.87,23.59,1.07,26.41C214.98,949.27,215.86,942.2,216.96,942.62z" />
<path class="st5" d="M1200,356.11v65.14c-3.87-0.25-7.75-0.59-11.5-1.64c-48.45-13.54-94.02-26.01-143.96-33.85  c-167.88-26.35-366.46-9.61-520.73,63.32c-120.74,57.08-216.13,149.28-273.76,268.39l-3.38,3.49l-2.84-2.99  c-5.37-18.85-12.99-37.37-25.93-52.34l-1.03-4.02c0.39-1.54,0.81-3.06,1.36-4.54c0.55-1.46,1.11-2.9,1.92-4.19  c76.89-122.62,178.72-211.4,311.44-271.59c208.11-94.38,450.61-100.23,664.68-27.69L1200,356.11z" />
<path class="st7" d="M1200,303.41v52.7c-71.1-22.29-131.42-36.92-206.61-44.92c-166.37-17.69-340.73,10.43-490.62,86.04  C439.95,428.93,382.37,469,331.3,517.36c-18.32,17.35-34.48,35.77-50.7,55.13c-23.68,28.27-44.23,58.31-63.72,89.12l-3.96-1.32  c-10.39-10.27-22.99-17.92-36.38-23.64l-2.68-3.19c0.42-1.6,0.89-3.19,1.48-4.73c0.59-1.53,1.2-3.03,2.05-4.37  c20.3-31.78,44.59-62.61,69.16-91.22c1.03-1.2,2.3-2.21,3.58-3.22c1.29-1.02,2.67-1.92,4.08-2.8l29.02-30.13  c83.99-87.2,212.47-159.92,327.14-196.46c61.35-19.55,124.77-32.8,189.35-40.27C938.07,244.25,1068.88,260.97,1200,303.41z" />
<path class="st3" d="M1200,421.26v38.63l-4.22,0.17c-31.11-8.03-62.37-15.54-93.78-22.52l-3.76-1.83c-2.43-0.73-3.64-1.09-3.64-1.09  c-14.77-3.01-29.87-5.49-45.31-7.42c-5.96,0.14-11.92-0.12-17.88-0.79c-68.73-9.1-136.84-11.73-206.64-7.21  c-66.13,4.28-126.51,15.8-189.88,34.56c-16.69,4.94-33.44,10.86-48.48,16.84c-38.28,15.19-74.85,30.85-110.68,53.57  c-74.34,47.15-134.97,112.2-174.23,191.46c-1.28,2.25-2.94,3.66-4.98,4.25l-3.19,0.84c-14.32-5.88-29.44-6.52-43.38,0.77l-3.28-0.52  c2.82-8.14,6.96-15.25,11.36-23.22c18.77-33.97,39.47-66.17,64.25-96.03c14.88-17.93,29.74-34.4,46.79-50.43  c76.92-72.29,171.89-120.49,273.88-147.37c66.91-17.64,135.18-27.59,204.25-30.77c28.27-1.3,55.47-0.91,83.67-0.03  C1023.18,375.99,1112.69,393.03,1200,421.26z" />
<path class="st2" d="M173.86,633.46c16.14,6.5,31.05,15.33,43.02,28.15c15.69,16.81,23.79,37.58,29.79,59.35  c18.21-9.36,31.07-8.45,49.85-1.09c0.68-0.19,1.36-0.34,2.04-0.37c5.57-0.19,27.7,20.58,28.05,26.07c0.04,0.68-0.04,1.37-0.16,2.06  c3.2-0.46,3.72,2.15,1.1,4.01c-2.17,1.59-3.25,2.38-3.25,2.38c-14.22,0.94-28.21,2.93-41.97,6c-2.86,1.98-5.4,2.81-7.65,2.51  l0.5,2.16c-6.22,8.36,0.82,14.21,7.39,19.05c1.75,15.68-7.76,9.65-16.03,3.67c-2.61-0.77-4.09-2.08-4.45-3.95  c-4.53-1.77-6.8-2.66-6.8-2.66c-31.07-17.22-65.12-29.79-100.9-30.85l-3.78-1.92c-1.24,1.96-2,1.75-3.73,0.68  c-38.36-37.11-87.97-61.9-141.96-46.27l-4.88-0.69V576c0.14-1.63,1.3-2.71,3.48-3.24c51.14-37.32,124.93-2.11,135.87,57.88  c6.61-2.2,27.2-3.46,33.02,0.24C173.23,631.42,173.58,632.49,173.86,633.46z" />
<path class="st8" d="M290.81,1247.85c-1.49,1.24-2.47,3.49-3.22,5.8c-2.81,8.69-6.06,16.82-10.23,24.94c1.9,1.86,4.93,3.73,5.1,5.83  c4.15,1.28,1.93,8.25-1.42,10.47c-6.7,15.38-24.54,16.82-28.91-1.76c-3.02,18.98-6.16,38.02-12.36,55.96  c3.39-2.01,5.82-1.89,7.3,0.38c1.55,4.73,3.72,9.02,6.52,12.87c5.99-14.36,12.68-28.49,21.52-41.34c1.68-1.61,2.92-1.7,3.65-0.07  c-1.36-4.31,0.17-14.76,1.75-19.3c1.42-4.07,3.53-7.54,4.88-3.11c0.47,13.03,1.44,26.07,4.6,38.76l4.45-5.43  c2.48-6.89,8.53-7.42,5.86,1.28c-9.07,14.12-9.1,25.08-4.66,40.74l1.95-9.1c0-10.16,1.46-28.47,10.96-11.37  c2.34,11.23,4.42,11.62,6.24,1.19c0.58-3.27,8.51-18.95,11.28-17.35c2.7,1.56,1.53,5.19,0.73,7.54  c-6.31,16.29-11.6,34.59-10.33,52.25c0.84,11.78,4.84-7.87,4.95-10.83c-3.47-13.14,3.63-20.55,7.43-3.89  c0.19,6.26,1.42,12.3,3.68,18.13c4.32-0.94,5.22,1.3,2.69,6.73l17.69-38.9c3.34-3.79,7.33-2.84,6.93,2.37  c4.37-11.09,9.08-21.9,14.15-32.42l1.61-5.13c0.15-5.71,1.84-7.98,5.06-6.79c0.16-5.39,6.58-7.13,5.5-1.5  c0.22,1.19,0.81,3.33-0.45,4.62l-6.69,6.86c0.8,2.15,0.62,4.54-0.52,7.17l-17.59,50.36c6.78,1.44,6.18,5.91-1.78,13.38  c0.35,11.5,0.03,23-0.96,34.51c-1.7,8.23,5.89,8.69,6.58,1.67c-0.81-9.08,1.85-15.26,7.99-18.52c2.43-0.18,4.82,0.13,7.16,0.94  c6.53-11.91,14.44-23.28,23.24-33.57c-3.71-7.57,0.49-7.94,7.37-5.5c15.37,5.43,21.58,23.58,24.25,38.17l3.76,10.39  c1.89-4.08,3.63-8.33,5.21-12.75c3.64-6.87,7.6-7.59,5.93,1.33c-3.98,9.31-7.23,18.71-9.75,28.18c4.03-4.86,6.63-10.9,7.81-18.11  c0.42-1.34,2.69-7.14,3.66-7.34c1.71-0.36,2.39-0.33,3.74,0.98c1.93,1.87-1.26,23.77-1.89,27.68l2.54,0.03  c1.86-11.54,2.34-23.14,1.46-34.8c0.11-1.89,0.35-2.94,2.57-2.71c0.48-0.7,1.09-1.54,1.84-1.55c7.8-0.04,3.92-8.78-0.09-12.24  l0.31-1.48l-1.74-1.2c-1.79-11.72-6.4-22.72-13.83-33.01l1.06-2.03c-4.81-10.29-10.89-19.62-17.6-30.45  c7.14,6.71,12.89,14.68,18.63,22.64c7.74,10.74,12.92,22.69,19.05,34.79c12,23.68,17.41,51.9,16.37,78.48  c0.41,1.8,2.77,5.41,4.31,6.32c-0.38,2.04,24.07-2.24,22.61-3.43c0.64-2.49,1.52-2.26,1.95,0.25c0.13,2.68-7.3,0.4-6.47,9.67  c0.69,7.67,12.86,6.28,13.33,6.33c2.75-0.82,5.37-1.88,7.84-3.17c-0.54-0.25,0.46-6.74,1.27-6.82c1.81-0.17,18.38,28.7,19.4,30.67  c14.6,28.19,24.93,58.18,34.69,88.44c7.07,21.89,15.06,48.49,19.06,70.65c0.04,0.24-0.37,0.57-0.91,0.92l-199.86-0.04  c-0.46-0.03-0.9-0.09-1.29-0.26c-1.37-0.63-0.66-26.26-0.5-29.9c0.01-0.24,0.51-0.45,1.14-0.66c-0.95-1.16-0.93-1.8,0.06-1.92  c-0.38-5.15-0.75-10.3-1.09-15.46c-1.91-0.78-1.91-1.86-0.03-2.7c-0.64-1.19-0.66-2.79-0.06-4c-2.27-1.2-1.95-4.86-0.15-6.5  c1.37-0.54,2.59-0.55,3.16,0.78l6.43,16.08c6.71,12.64,17.58,14.09,25.27,1.54c25.38-15.89-0.63-25.14-17.87-23.66  c-2.33-1.23-2.93-2.29-0.4-3.53l1.19-1.95c21.85,0.97,53.65-10.87,27.51-33.6c-8.48-7.37-18.63-10.48-25.59,0.98  c-5.18,8.53-9.68,17.41-14.11,26.36c0,0-1.16,0.82-3.49,2.46c-2-1.74-2.03-4.39-0.09-7.94l7.28-18.74  c10.45-24.49-40.39-19.79-26.17,2.7l13.26,22.82l-0.95,2.18l-2.26,0.64c-13.02-10.65-35.76-26.08-48.98-7.71  c-7.31,10.16-2.94,17.19,4.75,24.66l0.39,3.07c-3.75,39.66,32.97,4.9,44.27-9.42l4.08-1.73c2.09,0.32,2.41,1.42,0.83,2.82  c0.51,6.89-0.13,14.61-1.37,21.69c0.91,2.9,1.33,5.57,1.27,7.99l1.71,2.14c0.04,9.76,0.04,19.51-0.01,29.27l-1.64,1.38l-132.77,0.05  c-1.82-3.76-2.73-5.64-2.73-5.64c-4.37-40.37-14.62-77.68-27.4-115.98c-0.67-2.02-1.01-4.04-0.71-6.17l2.43-0.33  c4.33,5.09,8.37,10.42,12.12,15.99c16.06,17.75,26.3,14.35,40.96-2.37c8.39-9.57,15.86-21,2.56-30.28  c-5.33-1.76-6.98-4.06-4.97-6.89c21.06-11.73,8.82-33.94-11.9-35.37l-1.43-2.08c-1.45-1.19-1.03-1.82,0.75-1.19l0.53-2.09  c8.93-2.92,13.41-10.94,4.61-17.53l-19.15-10.65l-0.28-2.35l1.52-1.58l17.99,4.66c19.23,5.62,33.77-9.33,11.42-21.21  c-0.64-4.16-1.62-8.23-2.92-12.21c-16.23-17.99-29.25-2.32-32.19,16.81c-1.58,1.46-2.81,0.75-4.16-0.85  c0.16-9.55-1.61-18.24-5.34-26.07c-5.76-6.15-12.13-5.1-19.11,3.15c-28.2,10.76-4.7,25.68,12.94,27.61l0.66,2.16  c1.81,0.76,1.97,1.45,0,1.92c-0.26,2.48-1.03,2.28-1.92,0l-3.9-1.01l-1.93,1.8c-7.44-1.32-14.87-1.64-22.31-0.94  c-15.49,4.95-6.21,17.03,3.72,22.46c0.67,4.92,2.51,9.17,5.52,12.76l-0.25,2.37l-1.77,1.6c-5.68-0.97-11.16,0.78-16.44,5.26  l-1.96-1.2l-3.05-4.45c-8.79-27.2-19.36-53.35-31.73-78.46c-1.1-2.64-1.9-5.33-2.41-8.08c-0.66-0.39-0.81-0.06-0.59,0.82  c0.96,0.16,1.19,1.5,0.16,1.95c0.74,0.69,0.89,1.8,0.53,2.77c0.78,0.28,1.45,0.61,1.7,1.15c12.95,26.74,26.08,54.36,31.21,83.55  l-1.59,1.71l0.36,2.25c-12.74,7.37-8.85,15.13,1.59,22.83l21.88,13.87c3.39,2.32,4.46,4.38-0.11,5.43  c-11.22-5.75-22.76-10.72-34.62-14.9c-30.71-7.86-33.72,27.16-12.4,40.47c5.52-1.03,10.94-2.87,16.26-5.5  c5.09,0.22,4.63,3.38-1.4,9.47c-5.92,9.06-1.18,17.94,7.99,22.23c26.85,12.53,38.69-10.78,36.12-35.14l1.96-2.43  c0.94,1.43,1.84,2.88,2.61,4.4c0.77,1.51,1.51,3.01,1.96,4.59c9.88,34.44,17.1,71.31,20.95,106.94c0.18,1.64,0.06,3.31-0.09,5  c-0.14,1.7-0.43,3.38-0.76,5.06l-69.2,0.05l0.37-2.75c10.92-9.04,16.16-23.44,11.15-37.06c0.17-1.12,1.05-1.86,2.63-2.22  c-1.11-3.82-7.45-14.51-9.88-18.48c-22.54-36.84-48.71-69.93-75.79-101.66c-2.47-2.76-4.41-7.12,0.42-4.14l1.71-1.21  c9.32,2.16,16-0.54,11.44-11.28c-6.38-9.58-2.78-10.94,10.81-4.09c17.59,5.34,14.41-12.25,8.85-22.61  c-8.79-16.39-17.21-6.28-25.39,4.74l-3.38,0.89c-1.78,2.24-2.38,0.47-2.38-2.14c3.86-8.49,6.28-17.27,7.28-26.33  c0.37-3.27-2.8-4.22-9.52-2.88c-17.48-6.83-31.31,6.01-15.57,19.72c0.14,3.19-2.28,3.87-7.26,2.05l-7,0.25  c-5.18-9-10.9-17.71-17.15-26.13c-3.5,0.53-5.05-5.4-5.18-8.61c-0.11-2.84-0.01-7.73,2.29-8.98c-0.06-3.52,0.17-7.01,0.69-10.45  c-0.8,0.08-1.91-0.17-1.89-0.73c0.85-26.18,1.87-53.26,5.36-79.77c0.24-1.79,3.72-22.74,4.92-24.32c0.47-0.62,1.35-0.68,2.15-0.62  l2.19,0.4l9.81,26.51c4.78-10.32,11.31-19.46,19.57-27.41c-0.19-2.48,0.49-3.92,2.03-4.31c1.67-1.21,2.37-0.25,2.84,1.57  c6.56,18.1,12.29,36.39,17.19,54.88c0.81-1.3,0.82-2.84,0.02-4.61l-1.72-1.92c-4.97-17.22-10.39-34.29-16.26-51.23l0.58-2.52  c2.04-0.97,3.6,0.84,4.68,5.43c2.93-0.42,5.95-1.31,9.08-2.67l9.71-1.22c4.68,2.52,9.32,4.83,13.91,6.94l3.01-8.94  c2.32-16.07,4.34-32.19,6.07-48.37c2.96-4.73,4.03-2.39,3.23,7.02l1.45,1.77c0.9,15.68-1.45,31.31-4.59,46.24  c2.57,0.79,3.5,2.87,2.78,6.23c7.81,2.68,14.82,6.4,21.02,11.17c1.63,1.03,0.3,1.94,0.39,1.86c3.9-3.94,19.52-9.96,25.71-9.61  c2.54,1.65,4.57,4,6.09,7.04c6.35-8.61,13.3-16.72,20.84-24.33c-3.69,0.54-12.63,1.69-11.91-3.47c-2.76-1.31-2.18-6.13-0.89-8.57  l1.03-0.92c-0.43-0.32-0.76-0.63-0.72-0.86c2.67-15.47,9.99-34.39,23.77-12.1c0.41-6.94,4.46-23.45,14.33-17.83  c1.06,0.6,11.3,9.33,11.71,9.99c2.01,3.26,0.97,8.95-1.4,11.8c-4.28,3.93-4.33,4.37,1.45,3.45l9.93-24.47c0,0,1.03-0.83,3.1-2.5  c3.73-8.89,4.99-18.72,7.52-27.94C295.34,1228.93,292.65,1238.91,290.81,1247.85z" />
<path class="st8" d="M68.11,1268.01c1.34,3.56,3.29,6.59,5.85,9.09c2.78,1.51,4.37,3.32,4.77,5.42l0.01,3.23  c-10.46,40.11-15.59,81.17-18.45,122.45c0,0-0.8,1.96-2.41,5.89c0.42,0.36,0.37,0.7-0.09,1.04c2.8-0.05,2.74,3.1,0.06,3.75  l1.93,2.02c-2.11,20.52-2.3,40.89-0.56,61.09c0,0,1.77-7.74,5.3-23.22c-0.22-6.95-0.55-13.92-0.97-20.91  c0.96-3.22,2.73-4.61,4.92-1.63c6.27,8.11,11.74,16.68,16.4,25.72c-0.76,4.88,0.08,9.2,2.54,12.97c-1.02,3.72-1.69,7.45-2.01,11.18  c3.6,7.65,10.99,7.04,17.54,3.69c4.34,7.15,8.94,14.19,13.79,21.1c26.84,30.27,51.23,62.86,73.18,97.74  c2.57,3.67,1.61,3.92-2.37,3.67c-11.64-9.19-22.32-7.56-35.19-2.81c-18.58,7.88-37.21,15.42-55.9,22.62  c-3.99,0.73-6.55-0.86-4.48-4.88c12.51-10.29,24.34-21.37,35.48-33.23c27.43-28.64,7.12-53.81-29.31-47.1l-13.44-2.53  c-6.75-0.72-11.22,2.14-16.15,6.54c-2.77,1.14-4.36,1.37-4.82-1.95c-1.65-15.92-1.91-15.48-0.76,1.31  c-1.59,19.71,0.19,31.03,10.27,48.54c4.18,7.27,8.52,14.42,13.54,21.15c1.13,4.03-0.52,5.26-4.37,3.97  c-12.31-12.55-25.32-24.32-39.06-35.33c-18.21-12.09-31.57-10.29-31.65,14.4c-1.93,7.51-4.24,14.94-6.94,22.28  c0.13,40.33,50.89,23.15,71.98,10.26c3.88-1.29,8.4-1.21,5.34,3.58c-13.64,8.8-25.36,19.35-35.17,31.65l-2.58,0.96  c-14.75,0.11-29.6,0.97-44.3-0.36v-408l0.74-2.36c3.91-1.92,8.01-3.3,12.29-4.13l2.15-15.51c-0.18-9.5,9.06-16.49,8.56-3.06  l-2.63,16.08c4.37,4.76,10.38,7.18,18.05,7.26c-1.46-7.1-3.02-14.24-4.67-21.44c-0.41-3.05,0.24-3.2,2.67-2.82  c6.94,1.08,17.91,16.31,20.99,22.92c0.71,0.46,1.97,0.25,3.77-0.61C64.69,1261.83,66.74,1264.61,68.11,1268.01z" />
<path class="st8" d="M1200,1367.04v304.75l-81.87-0.32c-0.85-4.3-2.07-4.34-3.67-0.11c-11.43,0.91-23.05,0.71-34.5,0.06  c-2.61-12.59-4.11-25.47-4.52-38.66c-7.15-51.74-10.72-77.61-10.72-77.61c-2.68-5.33-4.56-10.77,0.94-10.24l28.48,46.64  c8.02,16.01,33.1,18.38,33.08-3.12c2.66-4.82,3.99-7.22,3.99-7.22c14.67-11.11,18.29-35.21-5.94-34.28l-55.67-2.3  c-2.48-0.84-4.23-1.91-1.27-3.61l1.77-2.05c17.38-1.69,34.93-4.17,51.83-8.71c25.85-6.95,38.27-24.98,10.24-39.4  c-2.82-1.57-3.49-3.17-2-4.8c-2.87,0.55-2.77-2.1-1.02-3.79c-0.54-0.88-1.08-2.09-0.14-2.89l-2.01-0.73  c-1.52-3.69-4.23-6.85-8.13-9.46c0.9-5.42,5.31-25.12,8.47-28.32c0.42-0.43,1.01-0.7,1.65-0.92l-0.97-1.14  c7.96-18.6,16.12-37.13,24.51-55.58l1.57-0.66l1.34,3.81c3.19-4.68,4.95-9.17,9.23-13.06c5.2,3.33,9.9,6.96,14.39,10.87l12.06,10.48  l-3.55-18.41l8.44,10.57C1198.6,1382.12,1195.44,1367.99,1200,1367.04z" />
<path class="st0" d="M150.6,748.03l2.49,1.08c17.28,15.98,35.67,31.25,55.15,45.8l14.08,8.61l3.29,3.9  c1.41,2.95,1.62,6.47,0.64,10.55c0,0,0.26,4.26,0.77,12.78c1.35,3.46,1.5,6.56,0.47,9.3c-1.51,2.08-4.05,2.52-7.62,1.34  c-69.92-15.19-142.32-27.9-213.43-35.26c0,0-2.14-0.87-6.41-2.61V701.76c59.99-16.74,102.88,4.27,146.62,44.35  C147.89,747.24,149.21,748.06,150.6,748.03z" />
<path class="st8" d="M1200,925.51v68.05l-93.04,8.72l-2,0.68l-2.7,0c-0.54-0.32-0.98-0.66-1.08-1.09  c-1.15-4.84-2.27-12.76-2.93-17.89c-0.76-3.27-0.68-6.1,0.25-8.5c0.49-0.71,1.28-1.43,1.99-1.15c5.62,4.42,14.32,4.22,11.27-4.54  c-5.03,2.16-6.04-4.46,0.12-4.51c-2.41-9.12-9.58-5.53-15.21-1.17c-3.97-0.04-5.95-0.07-5.95-0.07c-1.61,2.44-3.26,3.66-4.93,3.66  l-1.6,1.47c-8.34-0.89-12.79,7.35-3.96,11.61c3.11,6.81,11.01,0.98,2.93-2.92l-0.17-2.45c-1.88-0.64-1.25-1.63,1.89-2.98  c0.21-0.87,0.57-0.89,1.06-0.12c2.84-2.16,9.41-1.6,11.63,1.67c0.85,9.53,2.07,19.01,3.64,28.44l-1.11,0.7l-50.72,6.76  c-0.2,0.53-0.56,0.53-1.04,0.13l-1.85,0.1l-6.79,1.47l-1.92,0.03l-1.99,0.27l-107.37,18.37l-3.03,0.64  c-0.31,0.05-0.66-0.03-0.96,0.04l-6.16-0.64c-24-7.27-47.92-14.29-71.77-21.05l-0.57-2.16c6.43-1.35,12.03-4.87,18.55-7.28  l30.42-11.23l2.05,0.81c0.42,3.72,2.79,2.82,7.11-2.69c3.91-1.56,9.7,1.56,7.85,5.75c0.58,1.14,1.25,0.53,2.01-1.82  c-0.81-2.25,1.26-3.51,6.19-3.79c0.54-1.25,0.19-2.47-1.06-3.67l0.66-2.07c0.68-1.9,2.72-2.02,4.82-2.8  c25.35-9.31,50.4-18.2,75.99-25.48c1.32,0.9,2.26,0.78,2.83-0.36c19.12-6.53,38.88-10.15,59.25-13.83  c14.78-2.67,28.73-5.54,43.51-6.91c0.46-3.65-4.02-6.47-2.91-8.6c1.77-3.42,10.63,5.71,12.79,7.8c2.46-1.37,2.27-5.73,5.18-6.61  c3.19-0.97,3.38,3.6,4.42,5.8L1200,925.51z" />
<path class="st9" d="M254.22,527.13c-29.02,33.82-56.61,68.56-80.36,106.33c-10.92-4.4-23.5-2.83-35.48-1.58  c-8.59-39.22-40.98-68.65-80.53-72.23c-18.84-1.71-36.11,2.92-51.23,13.42c-2.18,1.51-4.35,2.65-6.58,2.93v-80.64  c28.7,0.85,56.96,7.61,83.83,18.95c8.15,3.44,15.27,9.43,23.73,11.89l93.98,0.52L254.22,527.13z" />
<path class="st5" d="M227.49,840.06l2.87,2.08c4.84,11.86,13.45,21.36,22.8,29.92c-0.57,9.98-0.57,19.92,0.01,29.81l-1.4,2.46  c1.24,5.93-9.63,5.36-10.29,0.76l-2.27-0.47c-0.58-3.62-14.36-11.76-15.27-11.34c-0.67,0.31-1.33,0.54-2.09,0.49  c-1.08,0.37-1.78-0.59-2.09-2.88l-2.11,0.21c-11.78-10.79-13.22,5.54-5.68,12.46c-0.03,2.76-0.34,3.93-3.24,2.66  c-4.88-5.92-9.97-8.13-15.27-6.64c-1.47,2.87-3.22,4.75-5.25,5.64l-5.28,0.31C126.52,890,67.66,882.57,8.84,876.5  c0,0-2.94-0.97-8.81-2.9v-70.08c28.88,3.06,54.71,5.94,84.17,10.7c42.94,6.93,85.04,13.91,127.43,23.47  C217.31,838.96,222.25,840.24,227.49,840.06z" />
<path class="st6" d="M93.08,1195.12c3.82-0.36,6.42,0.92,7.78,3.83c2.94,1.43,1.98,5.73,1.31,8.61c-2.93,12.68-10.56,0.99-7.39-6.4  c-4.61-1.75-7.44,7.11-8.58,10.84c14.54,2.66,21.8,3.99,21.8,3.99c1.21-5.37,3.47-10.01,6.8-13.9l2.17,0.74l1.63,1.79l-2.43,11.22  c0.88,1.17,6.43,1.44,6.38,1.1c-0.86-6,0.35-11.53,6.05-14.07c2.05-9.08,3.04-18.56,4.15-27.83l0.49-1.05  c-0.02-0.28-0.12-0.55-0.16-0.83c2.13-1.97,3.5-0.54,2.28,1.85l-0.1,1.96c-0.47,0.39-0.37,0.62,0.15,0.94  c-0.68,7.7-2.65,15.27-2.93,23.02c-0.58,0.99-0.53,1.33,0.15,1.01l4.6,0.05l2.08,0.8c1.34,0.04,2.55,0.35,3.76,0.9  c1.42,0.43,1.94-0.35,1.21-1.72c-1.28-2.15-3.55-3.51-5.12-5.85c-2.8-4.15-2.52-9.56,1.83-12.51c5.13-3.48,11.89-5.01,18-3.25  c5.44,1.56,4.21,12.25,4.2,15.71c-0.1,3.19-0.73,6.09-1.89,8.72c-0.2,0.44-0.08,1.43,0,1.92c1.04,0.3,1.07,1.5,0.07,3.61l2.55,1.31  c7.2-1.65,14.36-3.26,21.47-4.83c4.68,0.7,7.55,4.24,8.35,8.34c0.97,5.01-1.42,7.97-4.65,11.03l0.41,2.32l-6.81,9.05  c-1.6,2.51-3.32,3.2-5.14,2.07c-8.57,5.13-14.2-7.71-14.62-14.84c-1.02,0.52-2.07-4.47-1.98-4.24c0.88,2.26,1.45,4.86,1.56,7.27  c1.88,0.74,2.91,4.56,0.66,5.71c-0.23,2.92-0.31,6.59,2.07,8.53c-0.41,2.4,0.51,2.74,2.74,1l2.92,0.14  c0.01-2.57,0.91-2.56,1.92-0.22c3.49-0.94,4.88-0.74,7.31,2.14c3.45-3.4,6.11-4.62,8.18,0.76l5.42,23.63  c6.9-10.07,12.01-21.37,15.32-33.9c1.7-4.16,3.05-3.8,4.72,0.21c1.81,4.35-4.55,21.19-7.01,25.93l1.43,0.62  c1.86-4.49,5.59-7.7,9.93-9.7c2.57-1.19,8.26-3.48,9.2-0.04l1.54,0.47c-0.41,3.01-0.89,6.07-1.45,9.17l1.12,0.76  c-2.82,7.59-4.77,15.33-5.85,23.2c0.31,0.88,0.92,1.87,1.84,2.95c4.79,3.74,10.91,1.37,17.9,0.65c-9.86,9-18.41,19.01-26.34,29.31  c-4.51-0.24-3.56-10.26-11.63-7.02c-7.1,2.85-13.84,5.63-20.82,9.02c-2.47-3.81-5.61-5.57-9.36-7.24l-13.43-5.96  c-1.11-2.24,0.63-4.19-0.94-6.31c-1.36,2.61-0.3,6.15-4,7.93l4.51-23.84c2.64-13.97,1.96-27.79,1.6-42.55  c-5.59,21.01-0.59,40.32-10.97,62.8c-3.35-3.25-7.58-4-10.69-6.23c-2.43-1.74-2.95-2.62-6.11-2.11c-4.37,0.7-8.46,0.75-12.59,3.2  c-1.32,0.78-3.37,0.83-4.55,0.45c-2.84-0.9-1.59-5.84-4.04-7.21c-2.07,0.81-2.92-1.86-0.96-2.82l-2.8-7.61  c-1.55-3.54-2.13-10.32,2.88-6.97c1.36-1.45,2.23-1.08,2.06,0.91l1.01,1.12l2.41-1.15c8.67,5.66,19.64-5.37,8.67-11.11  c-1.6-2.47-2.21-5.55-1.83-9.23c-5.18-9.44-12.84-8.49-22.99,2.85c-1.74,0.57-2.71-0.41-3.34-2.1c-0.81-8.01-7.78-21.41-17.02-14.42  c-4.27,3.24-11.31,12.56-2.23,14.59l14.62,4.06c3.07,2.88-0.6,4.04-3.05,4.78l-14.24-0.01c-2.8,0.51-5.52,0.85-8.16,1.01  c-7.11-1.08-3.1-12.08-10.01-3.08c-4.38-11.25-12.19-20.3-22.21-27.04c4.83,23.9,12.11,42.32,16.83,65.86l7.22,24.56  c3.28,11.17,0.73,11.84-9.8,24.36l-1.53-36.58c-0.74-17.7-4.23-34.73-8.06-52.25c-6.83-1.38-16.68-1.47-20.46-7.89  c-3.59-1.01,6.11-25.58-0.21-23.18c-3.99,1.51-4.85,44.01-10.71,42.99c-3.25-0.57,3.74-13.59,3.88-17.18  c-5.25,1.45-9.07,3.06-13.03,4.79v-37.44c2.05-2.93,9.84,0.3,10.52,3.5l-1.64,10.47c2.39-4.57,3.39-9.85,2.99-15.84  c1.91-3.57,4.25-2.46,7.03,3.33c2.5,0.67,4.96-1.28,7.37-5.84c3.26-2.59,7.27-4.05,12.05-4.37c1.19-3.12,10.47-4.71,12.39-1.88  c0.67-2.47,1.39-2.34,2.2,0.03c1.22-0.92,3.03-1.33,5.44-1.25l-2.45-16.97c-1.4-0.6-2.08-1.58-2.03-2.94  c-1.69-0.67-1.22-2.81,0.67-2.92c0.39-1.88,2.31-2.55,5.74-2.01c2.65-0.16,3.95-1.18,3.87-3.07l2.05-0.66l-1.73-1.39  c1.57-5.87,1.61-11.3,0.1-16.27c-3.15,0.14-6.51,0.19-8.85-2.29c-1.65-1.75-5.78-9.65-3.94-11.59c-2.76,0.55-0.83-2.02,0.41-3.65  c2.78-2.22,3.6-3.9,2.46-5.06c-6.71,1.59-11.94-3.61-11.56-10.87c0.63-12,15.89-18.3,20.9-4.52c4.53-20.89,35.63-1.53,19.52,12.15  c11.61,1.92,11.69,11.66,4.43,19.09c-3.79,12.4-10.5,7.53-15.33-0.96c-1.33,6.43-1.76,12.85-1.29,19.28  C84.72,1168.17,92.38,1183.29,93.08,1195.12z" />
<path class="st3" d="M188.19,905.22l1.57,1.43c-0.7,3.36,0.7,5.52,3.97,6.27c4.73-0.42,6.94,0.82,6.63,3.74  c-4.55,2.51-6.54,5.86-5.97,10.05l-1.52,1.55c-3.22-0.87-6.65-1.04-10.45-1.03l-34.33,0.09c-2.55-0.85-2.6-2.97-0.01-3.81  l-0.03-0.96c-2.52-3.36-2.36-8.4,0.49-11.52l-0.61-1.08c-1.71,3.62-2.44,8.42-2.19,14.39l-1.94,1.09l-0.45,2  c1.79,0.59,1.7,1.35-0.17,1.51c-4.13-1.16-8.47-0.55-12.72-0.62l-2.15,0.37c-0.62-2.04-1.9-1.84-3.85,0.63  c-0.43,2.75-2.4,2.71-4.32,0.91c-0.08,2.89-4.56,2.54-5.16-0.09c-38.5-0.66-76.71,7.67-114.95,12.57V873.6  c34.57,3.88,69.05,6.89,103.8,13.16C131.54,891.75,162.62,896.61,188.19,905.22z" />
<path class="st5" d="M51.82,1153.95c1.33,2.5,3.07,5.52,4.07,8.17c2.03,5.39,7.37,3.29,10.45,3.93c2.6,5,0.7,14-0.1,19.44  c-1.69,1.93-7.4,1.35-8.43-1.09c-1.09-0.48-1.47-1.77-1.12-3.87l-1.25,0.13c0.05,1.18-0.71,1.66-2.28,1.43  c-2.46,0.89-8.58,2.1-10.78,0.49c-3.66-1.69-3.1-10.65,0.06-12.37c0.44-5.32,2.34-10.4,5.7-15.24  C49.87,1153.05,51.1,1152.71,51.82,1153.95z" />
<path class="st5" d="M108.41,1087.8l1.33,2.04c-1.66,4.02-1.58,7.27,0.24,9.75c3.41-0.08,5.43,0.89,6.07,2.91l0.7,2.44  c-6.91,29.76-12.88,59.73-17.93,89.9c-0.79,1.71-2.7,1.8-5.74,0.28c-4.27-1.37-2.09-15.4-11.67-17.68  c-4.23-1.01-7.82,3.07-11.65,5.4c-1.88-10.72,0.82-18,1.63-28.98c1.92,3.2,6.5,13.08,10.76,12.94c3.14-0.1,1.25-4.55,7.7-11.39  c2.89-3.06,0.87-8.91-2.81-10.56c-4.07-1.83-7.85-0.58-12.23-0.82c3.34-1.66,7.12-2.51,9.52-5.45c3.41-4.19,2.42-8.63-1.32-11.99  c-3.96-3.56-10.06-6.12-14.57-2.08c-3.21,2.88-2.31,8.09-3.48,12.12c-2.33-4.25-4.1-12.81-10.47-12.89  c-6.47-0.08-11.52,10.64-8.79,15.68c2.1,3.88,6.39,3.72,8.99,5.81c0.71-1.16,1.6,0.15,1.43,1.06c-0.11,0.59-6.85,7.69-7.99,8.67  l-3.16,5.9c-0.82,2.89-2.04,5.13-3.67,6.73c-0.2,3.39-0.64,8.89-3.09,11.19c0.77,5.81-5.93,3.38-8.59,0.03l-0.54-5.78l-1.94-1.24  c0.34-3.56-0.07-6.85-1.24-9.86c-5.38-1.37-12.21-5.87-8.75-11.61c-2.21-1.62-4.1-3.57-4.98-6.17c1.35,2.79,1.18,4.79-0.5,6  c3.63,0.37,3.02,11.41-0.06,12.31c2.29,9.01-4.09,14.52-11.59,8.72v-93.12L108.41,1087.8z" />
<path class="st8" d="M1200,737.05v38.66l-43.7,6.23l-48.15,8.7c-56.61,10.23-110.51,27.1-165.99,45.79  c10.16-12.6,22.36-3.81,23.77-18.38c1.59-16.35,14.12-36.02,28.17-31.16c2.84,0.98,5.11,3.51,6.78,7.43c2.18-1.29,1.5-3.71,2.9-4.7  c8.14-5.75,5.58-10.14,8.77-10.79c5.97-1.22,9.97,8.61,13.44,13.54c3.72-4.08,3.13-10.64,8.93-12.36c4.36-1.3,12.3,3.74,14.06,8.42  c2.82-9.95,7.67-27.82,19-27.45c3.41,0.11,6.04,2.31,8.88,5.77c3.37-5.54,6.53-10.64,11.72-14.12c18.02-12.09,27.87,5.1,29.39,4.93  c0.72-0.08,1.71-0.2,2.53-1.04c6.82-7.03,18.24-7.62,25.47-0.73c2.19,2.09,3,5.03,6.34,6.79c11.06-10.77,24.49-16.04,38.08-21.74  C1193.57,739.49,1196.73,738.13,1200,737.05z" />
<path class="st0" d="M1098.24,435.71c34.4,5.41,68.17,14.94,101.76,24.18v56.65c-24.92-39.79-60.64-67.49-106.01-80.18  C1090.91,433.88,1096.86,433.94,1098.24,435.71z" />
<path class="st8" d="M42.44,1170.21c-1.51,4.05-0.4,8.21-0.06,12.37c1.48-0.54,3.88,1.66,4.04,2.98c0.78,6.41-3.34,23.09-5.66,29.57  l-2.4,2.02c-1.08,3.77-5.26,2.36-8.12,3.63c-3.67,1.63-5.12,7.8-9.43,8.89c-3.75,0.95-4.64-3.95-6.89-6.82l-0.83,12.05  c-0.25,3.62-2.36,7.13-5.83,8.03c-0.82-4.92,0.45-9.32,1.65-14.4l-8.87-2.64v-19.2c1.35-4.05,3.91-8.32,7.73-10.39  c-2.25-1.25-2.3-1.54,0.19-2.09l0.74-3.95c-2.66-2.27-1.04-9.76,1.86-11.4l2.37,0.55c0,0,1.3,9.75,3.91,29.25  c2.59-3.81,5.01-4.81,7.25-2.99c2.45,2.19,4.68,4.77,6.69,7.75c6.32-10.81,8.36-21.65,6.1-32.53l1.36-2.1  c-0.89-3.62,2.19-7.92,3.09-11.19C42.64,1166.49,43.02,1167.36,42.44,1170.21z" />
<path class="st3" d="M10.55,1178.89c-0.17,3.78-1.38,7.58-1.86,11.4l-0.74,3.95c0.31,0.52-0.39,1.51-0.19,2.09  c-0.46,1.35-1.71,2.01-3.75,1.99c-0.87,2.32-1.86,3.68-3.98,1.68v-28.8c3.02-0.76,7.14,1.31,10.27-0.64  c1.94-1.21,1.33-6.01,1.32-8.08c0.56,0.09,1.11,0.21,1.59,0.45c1.53,0.76,0.09,13.04-0.7,14.9L10.55,1178.89z" />
<path class="st2" d="M493.22,247.41l-228.32,0.1c3.45-12.9,24.95-14.1,36.7-12.96c22.32,2.16,14.89-10.43,25.46-15.05  c14.53-6.35,24.44,10.65,25.77,3.85c2.02-10.36,7.62-20.49,17.83-24.5c14.4-5.66,29.53-0.06,40.18,10.56  c6.87,6.85,10.23,15.16,14.24,24.7c4.93-5.68,6.14-13.52,15.39-13.93c8.17-0.36,12.99,8.62,15.61,16.35  C467.34,236.73,487.26,236.09,493.22,247.41z" />
<path class="st8" d="M961.12,1358.5c1.05,1.84,0.07,3.75-2.93,5.74c-4.79,5.56-2.91,13.99,1.47,19.26  c12.98,15.61,37.39-9.75,48.03-18.92c0,3.33,0.58,5.11,0.93,7.48l3.33,22.72c2.17,14.82,13.6,31.89,27.5,26.48  c12.92-5.03,6.98-16.36,14.04-11.43c11.92-11.46,16.64-22.86,26.36-35.28c4.34-5.54,11.07-6.35,16.73-1.99  c3.76,2.9,6.53,6.84,9.4,10.64c2.24,2.96,2.41,5.58,1.16,9.19c-6.26,18.09-14.01,35.69-17.09,54.6l20.61-57.55  c0.03,6.43,2.28,9.23,5.86,12.99c7.13,7.5,18.36,8.86,25.21,1.07l-0.02,2.91c-4.47,10.43-8.92,20.89-13.35,31.4l-2.13,1.98  l0.72,1.68c-5.62,17.43-8.44,26.14-8.44,26.14c-5.16,0.84-10.24,1.94-15.23,3.28l-2.23-1.2l-2.53-0.03  c-18.85-30.89-55.49-19.79-43.87,18.87l8.96,41.08l-1.63,1.52c0.6,4.44-0.64,4.21-3.74-0.69c-1.66-1.83-3.32-3.74-4.32-6.02  c-4.31-11.22-9.21-22.2-14.26-33.1c-20.76-44.77-53.15-20.42-46.33,19.05c0.36,4.05-2.3,6.74-7.98,8.04  c-25.92,15.46-15.9,59.24,15.91,48.35c18.64-6.38,36.66-14,53.99-23.44c0,0,1.81-0.21,5.43-0.64l0.48,2.26  c-16.44,11.83-32.84,23.57-49.21,35.24c-8.92,9.51,0.8,21.78,10.84,26.13c29.74,12.88,35.98-30.87,38.11-50.79l3.14-3.08  c7.22,35.63,9.83,71.93,11.59,108.18c0.09,1.79-0.16,3.6-0.4,5.42c-0.25,1.83-0.63,3.64-1.06,5.45  c-10.84,0.57-21.84,0.81-32.66-0.11l-2.05-0.71c-0.58-2.81-1.07-2.53-1.47,0.84l-77.06,0.24l-1.8-2.72  c-0.84-62.69-14.78-126.39-41.53-184.06c25.36,56.64,37.72,118.55,41.34,180.32c0.06,1.05-0.2,2.12-0.47,3.22  c-0.27,1.11-0.68,2.18-1.12,3.24c-5.4,0.02-12.34,0.5-17.47-0.42c-4.18-2.82-5.78-2.79-4.78,0.07c-23.04,0.68-46.23,0.88-69.26-0.03  l-1.48-0.45c-9.7-26.14-18.14-52.9-25.33-80.31c-0.83-3.94-5.47-26.34-3.02-27.07c0.7-0.21,1.7,0.58,2.78,1.66  c10.16,13.18,20.38,26.24,31.14,38.92c15.87,18.69,40.83,15.69,36.84-11.8c0.64-3.56,2.86-6.27,6.65-8.15  c13.7-13.7,5.97-32.86-13.21-33.2c-19.21,2.3-38.32,5.47-57.33,9.52c-3.24,0.08-3.12-1.17-2.19-3.85  c18.97-5.72,38.03-11.37,57.16-16.94c25.36-5.73,32.07-30.61,7.13-42.25c-8.75-1.44-15.92-4.72-21.51-9.83  c-4.82-13.55-13.75-20.08-27.24-22.95l-0.87-2.46c-1.58-3.17-2.22-3.19-1.92-0.08l-1.06,1.98c-12.88-1.42-23.09,5.87-22.68,19.45  c0.62,20.35,2.88,40.77,5.55,60.73c0.29,4.03,0.67,11.33-4.57,7.55c-0.94-0.68-4.99-20.12-5.38-22.64l1.55-1.79  c-2.31-17.94-6.22-37.15-18.56-51.21c-2.18,0.12-4.58-0.78-7.18-2.71l-3.54-0.92c-2.28,0.25-3.76-0.4-4.45-1.97l-2.78-3.51  c-4.26-17.23-9.54-34.14-15.84-50.74c-2.34-4.2-3.65-9.16-1.89-13.76c-3.44-1.65-1.09-5.94,3.12-4.04c2.02,6.9,5,12.92,8.94,18.05  c4.43,2.71,7.86,1.16,10.31-4.66c3.24-1.86,6.22-3.95,8.92-6.28l1.67-0.41c0.84-2.74,5.54-5.56,5.78-1.9  c0.02,0.27-2.27,0.15-0.09-0.99C860.03,1384.11,910.23,1369.5,961.12,1358.5z" />
<path class="st8" d="M787.28,1471.54l-0.8,2.38c-5.61,2.46-9.37,7.42-10.92,13.26c-0.03,6.6-2.39,11.37-7.07,14.3  c-29.4,10.15-19.25,35.32,7.93,40.71l34.47,10.51l1.19,2.52c1.79,0.61,1.7,1.38-0.18,1.56c-0.59,2.48-1.39,2.34-2.53,0.09  l-1.12-0.71c-2.88,0.82-4.32,1.23-4.32,1.23c-15.9-2.93-31.64-5.19-47.8-4.9c-22.93,0.41-26.22,28.85-4.83,39.86  c5.69,0.99,8.98,3.33,9.88,7.02c-2.81,12.26-0.23,26.07,14.85,25.87c4.04-1.46,7.69-1.21,10.95,0.74  c21.5,20.88,33.02-4.41,37.77-24.46l6.71-36.83l2.92-1.62c5.65,36,15.32,71.09,29,105.28l-0.21,3.01l-111.57,0.08l-2.17-0.91  c-15.93-18.32-32.38-35.71-49.35-52.17c-13.8-15.17-30.36-38.25-33.28-58.95c-0.3-2.13-0.19-3.85,0.17-6.02  c-1.52-0.27-1.76-3-0.65-3.9c-0.72-1.78-0.74-3.39-0.06-4.84c-0.3-2.44-0.65-5-1.07-7.68c-2.24,1.1-2.79-4.51-0.64-4.8  c0.48-5.75,0.4-11.53,0-17.28c-0.49-0.11-0.94-0.25-1.24-0.55c-0.46-0.45,0.91-12.05,2.29-12.25c0.99-0.15,1.85,0.4,2.4,1.15  l6.71,12.11c4.08,5.69,10.38,9.39,14.98,1.81l2.4-0.34c0.75-1.73,0.81-3.36,0.19-4.89c-1.49-1.92,0.12-3.86,4.82-5.82  c7.73-14.62-10.87-14.66-20.4-10.71c-3.2,0.06-3.1-1.26-2.18-3.94c9.83-5.18,20.78-20.63,1.88-19.96  c-15.95-14.17-22.07,1.1-15.39,15.75c0.31,3-1.03,3.02-3.64,2.63c-4.04-5.25-8.78-8.7-14.22-10.37  c-18.42,11.48,2.41,14.82,12.89,16.46c1.55,2.07,2.25,3.44-0.44,4.43c-7.26,0.19-13.56,2-18.9,5.41c-1.31,1.44-1.28,2.5,0.11,3.17  l-0.39,2.32l2.18-0.21c2.09,5.04,5.23,7.6,9.44,7.71c2.49-1.59,4.62-1.95,6.4-1.06l1.38-1.89c-1.91-1.64-1.76-1.93,0.72-2.02  c0.34-3.27,3.03-12.74,7.09-10.87c1.59,0.73-1.27,20.88-2.97,23.81c1.43,0.86,1.95,1.44,2.37,3.14c0.98,3.95,1.19,12.47,1.28,16.81  c0.01,0.24-0.4,0.48-0.91,0.73c5.37,25.64,16.62,49.9,35.11,69.23c17.79,16.92,34.46,34.68,50.03,53.29  c-0.16,0.82-0.71,1.34-1.55,1.65l-143.95-0.08l-1.23-0.81c-15.96-64.59-33.9-132.98-71.31-187.72l0.63-1.72  c6.63,0.62,13.4-6.26,12.3-13.25l-2.12-13.47c-1.19-7.52-0.04-15.21,5.12-21.04c3.24-0.08,6.34-0.38,9.43,0.21  c3.05,0.58,4.23,4.7,4.8,6.91c0.84,3.24-0.5,6.48-3.05,8.89c2.14,1.46,3.18,2.53,3.13,4.25c-0.05,2.02-1.73,3.24-2.61,5.05  c-2.06,4.23-1.81,9.55-3.26,14.37c5.91-1.16,6.79-5.77,10.58-8.38c4.54-3.12,12.12-3.93,17.25-1.8c3.39,1.41,4.92,6.07,7.42,7.89  c5.74,4.18,10.72-2.84,15.19-3.69c5.01-0.95,9.2-0.37,14.38-2.48c12.95-5.3,26.04-9.13,39.55-13.35l61.62-19.28l9.82,17.54  c9.27,16.56,15.02,33.72,20.89,52.35c1.98-4.53,5.5-10.29,4.59-14.84c-2.5-12.51-8.27-23.65-13.71-34.93  c-4.06-8.41-10.24-14.15-15.85-21.65l28.72-8.95l0.82-2.22c3.54-1.25,6.92-2.13,10.15-2.65c1.57-3.46,4.25-4.93,7.52-2.5l9.82,28.09  c2.86,8.75,4.54,17.71,5.03,26.88L787.28,1471.54z" />
<path class="st3" d="M853.45,1462.15c0.05-2.64,1.32-2.53,1.92,0.08c7.08,3.47,20.56,2.55,28.21,21.5  c4.87,12.08,17.58,6.21,30.21,16.9c7.75,6.56,11.66,18.12,6.25,27.18c-9.96,16.67-63.55,23.12-79.78,31.17  c19.99-3.05,38.04-8.02,57.14-9.77c11.12-1.02,20.15,3.53,23.71,13.66c3.25,9.24-0.1,19.28-9.31,24.81  c-7.94,4.77,2.91,15.03-7.95,25.15c-11.98,11.16-26.03,2.74-35.83-7.96c-11.54-12.59-20.85-26.26-31.81-40.36  c1.56,18.63,6.46,35.34,12.02,52.49l17.63,54.36c-0.79-0.03-1.89-0.01-2.68-0.01c-13.82-35.71-26.16-68.84-29.43-107.92  c-4.92,19.29-6,57.47-22.16,68.68c-8.08,5.6-17.95,4.34-24.17-3.11c-2.18-2.62-5.05-3.34-8.33-2.42  c-8.12,2.27-15.64-1.37-18.92-8.99c-5.78-13.43,3.7-19.6-4.25-21.59c-11.76-2.94-21.31-12.81-21.05-25.37  c0.26-12.1,10.77-19.87,22.7-20.14c17.36-0.4,34.01,2.94,50.7,5.67l1.12,0.71c0.79,0.1,1.75-0.34,2.53-0.09  c1.48,0.34,1.54-0.18,0.18-1.56c-14.69-5.9-42.1-10.62-55.04-19.77c-7.15-5.06-10.58-14.12-6.74-22.18  c7.41-15.55,21.52-8.98,22.52-21.48c0.75-9.41,5.84-17.25,14.45-20.25c0.11-3.05,4.62-3.69,5.83-0.92  c5.56-0.66,11.68,1.41,15.17,5.6l2.03,1.9c5.43,12.9,10.35,26.05,14.77,39.43c1.37,3.29,1.95,6.59,1.76,9.89l5.96,25.07  c1.57-6.37-0.17-12.1-0.8-18.3c-1.74-17.08-4.3-33.64-4.22-50.63c0.06-12.08,7.49-21.49,19.99-21.23  C849.73,1462.37,851.79,1462.24,853.45,1462.15z" />
<path class="st6" d="M68.47,1436.22c-7.03-1.71,0.15,14.42-2.52,25.62c-1.18,4.94-3.4,9.24-3.57,14.62  c-0.12,3.79-1.54,7.58-4.01,10.64c-5.56-19.72-0.26-51.03-0.52-68.23c0.84-1.82,2.73-2.46,5.68-1.93c-1.12-5.14-0.21-8.06,2.74-8.76  c-0.22,4.93,0.21,10.11-0.82,15.42C64.48,1428.67,66.12,1432.39,68.47,1436.22z" />
<path class="st6" d="M68.47,1436.22c1.45,0.35,3.74,2.63,4.8,4.31c5.57,8.89,9.9,12.68,13.09,20.39c4.38-1.25,8.58-1.03,12.42,1.06  c-1.43-2.91-4.39-4.18-6.04-7.02c-2.53-4.38-2.22-10.7,1.45-14.17c10.01-9.44,15.92-0.23,27.84-2.69  c11.64-2.4-1.11,28.48-2.53,32.08c-0.35,0.88-0.57,1.74,0.57,1.51c2.51,2.16,0.01,4.43-3.02,4.13l-1.97,1.63  c-2.79,4.92-5.47,9.13-8.04,12.65c0.42,1.64,1.23,2.18,2.44,1.62c1.41,0.73,2.02,2.16,1.84,4.29l1.26,3.08  c2.36,2.1,3.51,4.15,3.44,6.16c-7.36-4.52,13.64,19.26,13.64,19.25c23.1,25.64,43.26,53.07,61,82.75  c5.02,8.4,9.85,15.84,13.88,24.69c3.76,8.28,8.87,15.78,11.27,24.57l-15.73-26.37c6.18,15.76-0.13,31.61-12.96,41.42l-70.86-0.2  l-3.12-1.34l-20.69-32.94l0.52,33.12l-1.9,1.18l-46.74,0.34c4.76-11.06,26.25-26.63,37.96-35.13c-4.95-0.39-8.48,2.78-12.48,4.82  c-17.37,8.9-51.79,19.82-63.83-0.86c-4.81-8.26-4.07-17.63,0.09-25.55c2.7-5.15,4.05-9.8,3.73-15.72  c-0.41-7.71,3.36-15.58,10.24-19.01c11.59-5.79,31.87,11.85,39.98,19.61l23.57,22.55c1.45,1.31,2.24,0.09,1.51-1.59  c-8.09-10.87-14.73-22.48-20.27-34.28c-5.16-10.99-3.88-20.11-3.77-31.4c0.22-22.78-4.41-45.27-8.96-67.46  c-5.98-29.12-16.74-55.03-27.93-82.47c15.16,28.63,25.81,59.42,33.55,90.88c4.51,18.33,5.59,36,8.12,54.66  c17.76-16.75,21.83-3.06,39.6-6.26c10.07-1.81,20.25,0.44,28.12,6.6c34.09,26.63-42.02,75.15-40.88,78.61  c0.15,0.47,1.73,1.11,2.51,0.8l37.39-14.78c22.57-8.92,37.25-20.26,57.9-3.61c-13.5-22.24-26.74-42.47-42.7-61.73l-26.49-31.96  c-7.17-8.66-13.73-17.11-18.92-27.41c-4.79,4.48-10.48,3.95-15.41,0.27c-8.35-6.24,0.71-14.63-1.88-17.19  c-3.96-3.94-1.23-8.68-2.25-12.61C80.78,1453.65,69.62,1443.67,68.47,1436.22z" />
<path class="st6" d="M1061.99,1531.11c0.73-0.35,1.4-0.34,2.01,0.13c0.26,4.27,1.7,7.52,4.33,9.76c-0.46,0.96,0.39,1.35,0.89,1.58  c0.69,0.32,2.08-0.02,3.01,0.02l51.91,2.33c5.83,0.26,12.9,0.59,16.9,4.9c5.32,5.72,4.08,14.14,1.41,20.69  c-2.7,6.62-9.58,10.04-12.5,15.75c-2.34,4.59-0.03,10.75-4.69,14.73c-3.29,2.8-7.94,5.64-13.67,5.06  c-8.35-0.85-14.71-6.33-19.08-13.5l-28.95-47.4c9.29,42.58,14.74,83.98,16.4,126.27c-1.76-0.1-4.03-0.06-5.8,0.04  c-1.51-39.54-4.69-79.06-10.74-118.64c-3.18,14.33-3.62,27.44-8.62,40.26c-5.11,13.11-17.79,20.49-31.07,15.65  c-7.78-2.84-14-8.34-16.58-16.29c-1.86-5.7,0.23-11.51,4.96-14.88l27.12-19.34c5.66-4.03,16.97-10.66,21.45-15.55l-3.7-10.15  l1.27-2.1c1.35-0.23,2.03,0.84,2.85,2.76C1062.08,1532.74,1061.68,1531.8,1061.99,1531.11z" />
<path class="st6" d="M960.93,1671.73l-3.58,0.01c-3.56-78.06-23.29-168.04-68.06-233.75c-2.64-3.87-5.63-6.52-7.9-11.3  c36.67,42.52,54.08,88.55,67.62,144.18C955.41,1597.13,962.33,1645.41,960.93,1671.73z" />
<path class="st7" d="M233.96,1543.63c16.97,39.21,24.98,85.61,30.84,127.79c-2.65,0-5.9,0.09-8.48,0.09  c-4.31-42.68-12.57-84.87-24.69-125.99c-1.93,0.12-2.47-1.88-2.73-3.46C227.71,1534.59,236.74,1538.81,233.96,1543.63z" />
<path class="st0" d="M531.14,1481.27l17.42,28.19c17.24,27.9,49.97,127.07,54.49,162.06l-2.16-0.02l-8.35-31.09  c-10.83-40.31-22.98-79.69-40.45-117.66c-4.49-9.76-9.79-18.26-14.92-27.44c-2.66-4.76-6.83-8.2-8.64-13.39  c-1.62,2.72,1.16,4.32,0.26,6.64c-2.47,2.87-6.14,2.57-9.24,2.24c0.71-3.04,4.82-2.53,6.71-4.31c2.27-2.14,0.49-6.75-1.03-8.75  C527.89,1477.94,529.93,1479.32,531.14,1481.27z" />
<path class="st3" d="M666.96,1553.38c4.68,25.48,18.61,48.13,37.08,66.6l14.02,14.02c12.05,12.05,24.29,23.61,33.53,37.42l-4.6,0.18  c0.12-1.64-1.08-2.59-2.19-3.96c-16.64-20.71-33.88-34.2-50.48-53.12c-16.77-19.12-28.39-42.24-30.93-67.08  c2.64-0.4,2.85,8.94,2.28,9.49C665.51,1557.09,665.36,1552.13,666.96,1553.38z" />
<path class="st8" d="M116.26,1671.36c-8.13-0.02-17.03-0.04-25.18,0.02l-0.76-39.69c4.71,4.52,7.06,9.89,10.29,14.97L116.26,1671.36  z" />
<path class="st6" d="M1118.13,1671.47c-1.06,0-2.64-0.19-3.67-0.11c2.31-32,18.98-61.73,44.56-82.18c-1.44,3.49-4.44,5.93-7.4,8.94  C1132.1,1617.92,1120.11,1644.09,1118.13,1671.47z" />
<path class="st6" d="M1041.51,1671.36c-0.97-0.08-2.5,0.13-3.52,0.13c-7.1-17.39-25.38-34.28-37.92-49.12  C1013.5,1630.77,1036.81,1657.58,1041.51,1671.36z" />
<path class="st0" d="M939.88,1671.32c-1.31,0.52-3.42,0.03-4.78,0.07c-9.21-14.86-22.94-26.38-34.36-39.49  C916.64,1642.92,929.23,1656.65,939.88,1671.32z" />
<path class="st9" d="M860.95,539.59l-8.5,21.57c-22.67-12.84-50.85-4.57-69.09,11.98c-13.05,11.84-21.78,27.63-25.97,44.7  l-12.35,2.58c-32.77,6.85-74.46,46.93-79.61,83.77c-21.72-25.09-60.65-35.21-91.72-31.74c-24.4,2.72-44.42,18.99-51.64,42.98  c-9.51-1.86-17.3,1.17-22.01,9.16c-2.07,3.51-4.98,6.94-4.35,11.43l195.44-0.01l118.09,0.03l42.34,0.04l20.54-0.23  c11.3-0.12,22.35,0.03,33.64-0.08c2.64-0.02,5.26,0.25,7.04,1.52c-3.37,3.79-7.71,6.83-13.02,9.12  c-24.41,17.19-48.13,34.78-71.16,52.79c-18.53,13.92-38.83,23.24-60.74,30.38c-6.31,2.05-13.98,4.45-20.14,4.41  c-4.3,2.09-8.01,4.91-11.11,8.46c-1.24,3.11-2.85,4.75-4.84,4.91c-5.98,5.14-4.6,15.21,1.38,20.75c1.55,1.44,3.08,2.48,4.09,4.74  l-31.46,4.68c-2.15-11.21,9.88-6.91,1.71-14.69c-1.71-1.63-9.55,0.59-9.64,0.71c-3.75,5.15,6.78,7.33,6,14.01l-119.19,16.01  c-3.2,2.67-8.21,2.79-11.44,0.12c-9.17-1.46-18.14-4.2-26.91-8.22c-24.74-5.24-49.66-9.8-74.76-13.69  c-4.63-0.36-7.85-1.95-9.66-4.78l1.11-3.25c17.3-13.22,31.73-39.29,24.4-61.09c-8.08-24.02-27.7-18.14-45.83-10.23  c-1.99,0.15-3.55-0.29-4.67-1.3c-2.81,0.51-3.69-2.51-1.03-3.78l-0.68-1.21c-2.56-0.13-2.43-0.98,0-1.71  c0.26-1.69,1.65-2.88,4.17-3.55c11.02-9.12,8.18-17-5.22-20.61c-3.97-1.07-7.98-1.93-12.03-2.66c-16.25-2.92-32.88-4.32-49.23-5.1  l-1.3-1.93c-0.08-1.04-0.11-2.08-0.01-3.1c0.1-1,0.23-1.97,0.61-2.83c16.48-37.46,52.19-80.71,82.68-107.92  c37.44-33.42,81.38-57.38,128.85-73.27c82.1-27.49,180.5-32.82,266.92-26.58c1.74,0.13,3.46,0.56,5.2,1.01  C857.55,538.36,859.25,538.96,860.95,539.59z" />
<path class="st0" d="M1049.28,427.2c-0.61,0.9-1.92,1.27-3.92,1.09l-9.44,0l-3.92,0.58c-50.02,7.37-98.81,23.64-134.51,59.75  c-3.76,0.6-7.57,1.11-11.39,0.92c-41.88-2.14-81.34-4.03-123.41-1.58c-150.72,8.81-290.23,53.22-384.26,175.72  c-19.6,25.53-32.58,49.98-47.29,78.25c-1.15,2.2-2.92,4-4.69,5.71c-7.65-11.57-17.58-21.38-29.93-27.76  c-0.05-2.5,2.51-3.49,3.74-5.92c24.21-47.9,55.38-91.35,94.21-128.43c14.78-14.12,29.22-26.78,45.56-39.03  c41.75-31.28,87.23-56.24,136.47-73.58c4.34-1.53,7.91-4.04,12.04-5.01c5.25-1.24,9.1-3.9,14.09-5.61  c33.14-11.33,66.32-21.33,100.78-28.58c76.64-16.13,150.35-20.43,228.4-17.63l19.67,0.71  C984.59,417.97,1017.06,422.05,1049.28,427.2z" />
<path class="st4" d="M897.49,488.62c-14.83,15-28.91,31.6-36.54,50.97c-66.31-5.3-133.14-3.71-199.22,6.94  c-97.72,15.75-183.97,56.16-246.28,134.81c-17.14,21.64-32.92,44.39-43.88,69.26c0.13,0.79-0.06,1.91-0.62,1.93  c-11.47,0.35-23.07,0.39-34.54,0.43c-2.51,0.01-5.04,0.21-7.53,0.45l-1.32-1.76c0.08-1.43-0.31-2.82-1.1-4.01  c42.88-97.14,120.94-173.73,219.4-215.2c45.97-19.36,94.08-31.77,143.56-38.96C758.84,483.38,828.24,482.04,897.49,488.62z" />
<path class="st9" d="M1008.82,736.41c-3,4.67-4.31,8.66-4.39,15.93c-5.63-6.75-13.89-3.89-20.42-6.24l-4,0.48  c-6.82-2.32-13.61-4.73-20.37-7.23l-0.65-2.28c0.33-0.75,1.56-1.11,2.83-1.1L1008.82,736.41z" />
<path class="st6" d="M386.18,1324.77c-0.87-0.23-1.09-1.17-2.38-2c-1.1,1.78-1.03,6.05-3.21,6.68c-1.4,0.4-0.59-1.64-2.15-2.73  c-0.39,6.92-2.44,13.38-6.48,19.41c-2.33,3.48-2.35,7.64-4.14,11.51c-11.29,24.34-20.34,49.21-26.38,75.43l-7.96,34.59  c-2.35,10.2-4.92,20.8-5.55,30.86c-1.49,0.29-2.8-0.38-2.24-1.25c0.48-0.75,0.17-1.75,0.38-2.73l11.25-51.67  c5.33-24.51,12.41-47.68,20.41-71.29c0.4-1.17,0.46-3.97-0.53-3.83c-3.63,0.51-3.66,4.39-4.85,6.96l-17.34,37.5  c-2.73-3.53-2.38-6.85,0.27-9.41c0.3-0.29-1.31-1.39-1.47-1.01c-0.17,0.43-0.65,1.86-1.84,1.92c-7.29-14.7-2.08-19.53-8.13-29.91  c-3.71,4.55,0.35,9.12-0.62,13.28l-3.27,13.97c-0.25,1.05-1.29,1.82-1.87,1.94c-0.69,0.14-1.8-0.23-2.23-1.16  c-4.72-10.23,1.9-36.81,5.43-47.86c1.7-5.32,4.58-9.92,4.84-15.79c-5.29,6.37-9.06,13.69-10.93,22.22c-0.5,2.29-3.5,5.57-5.21,4.2  c-1.3-3.58-3.7-16.59-7.95-16.21c-0.77,0.07-1.56,1.05-1.58,2.31c-0.25,10.6-0.99,20.66-5.29,30.88l-4.4-23.05  c-2.48-13.01,7.46-20.15,8.86-30.5c-2.55,0.83-2.44,3.92-4.06,5.41c-3.28,3.02-4.62,6.16-5.74,10.76  c-4.55-15.84-6.23-31.49-6.15-47.36c-4.85,17.37-4.2,34.33-4.82,51.9c-0.25,6.96-4.7,12.95-5.61,19.82  c-0.94,7.02-1.95,14.1-6.02,20.34c-7.36-3.8,6.32-13.22,2.04-27.66c-4.82,1.13-0.13,13.09-5.95,16.81  c-1.18-13.01,1.48-25.44,5.88-37.51c2.56-7.02,7.09-12.76,8.62-20.13c-10.37,14.8-17.23,29.95-24.11,46.64  c-3.4-5.87-6.72-11.29-8.64-17.85c-2.98,0.34-4.22,2.6-7.64,2.44c0.79-7.33,4.24-13.48,5.83-20.68c3.34-15.15,5.68-29.98,7.73-45.52  l5.33,12.68c1.36,3.23,4.54,7.45,8.74,6.89c3.69-0.48,9.55-2.68,11.59-5.79c1.8-2.75,1.81-5.25,4.68-7.19  c1.72-1.16,1.3-5.68,1.14-7.61c4.94,1.33,10.08-0.5,14.13-2.49c5.8,4.98,15.02-1,14.98,3.29c-0.04,3.78-7.19,5.81-7.23,9.44  c-0.05,4.59,56.5,22.71,64.31,25.21c5.37,1.72-2.54-9.91-0.35-12.76l7.31-2.23l-6.23-4.86c0.76-3.84,3.95-5.04,7.26-6.58l-5.6-6.65  c-0.46-0.55-0.56-1.27-0.49-1.67c0.09-0.52,0.96-1.66,1.66-1.24l14.78,9.1c7.31,4.49,15.49,8.99,16.33,18.28  c0.35,3.88-1.33,7.63-3.37,9.84C394.74,1326.75,386.13,1321.14,386.18,1324.77z" />
<path class="st6" d="M447.37,1366.22c0.98,2.09,16.9,25.73,14.52,36.24c-0.57,1.3,0.21,2.76,2.33,4.39c0.11,1.57-0.59,3.18-2.1,4.83  c0.47,3.54-0.29,5.56-2.29,6.05c-2.62,7.22,2.36,17.57-2.27,38.01c-0.34,1.51-2.12,1.61-2.91,1.65c-0.99,0.05-3.66-0.39-3.38-1.98  c0.73-4.09,3.81-25.03,1.76-27.93c-5.87,7.03-5.52,25.85-14.03,26.71c-6.12,0.62,10.58-29.68,9.66-35.7  c-4.16,4.24-4.32,9.79-7.22,14.59c-0.01,2.68-1.43,4.04-4.52,4.92c-0.19-4.94-3.49-9.37-4.45-14.63  c-2.99-16.24-10.67-34.26-29.14-36.46c-0.06,2.27,2.76,4.66,1.33,6.33c-6.27,7.33-19.71,25.62-23.45,34.72  c-3.58-0.48-6.96-2.42-9.92-0.56c-6.64,4.18-2.39,17.2-6.52,21.22c-1.81,1.76-5.51,1.16-8.01,1.43c-1.76-13.9,1.98-28.1,0.62-43.32  l7.19-9.35c-1.42-1.74-3.93-1.66-6.27-1.88l18.4-52.66c1.03-2.95,0.42-4.61,2.35-6.59c7.42-1.96,16.84-10.91,22.04-4.26  c1.47,1.89-0.74,3.68-0.7,5.89c0.07,3.99,1.5,8.03-1.22,11.62c-2.91,3.84-7.73,1.74-10.81,1.55  C382.28,1366.9,441.2,1368.55,447.37,1366.22z" />
<path class="st6" d="M310.1,1252.94c-1.5,0.22-3.48-0.88-4.84-1.19c2.89,0.06,3.31-3.55,4.95-5.52  c14.15-17.02,6.73-26.31,11.18-43.39c-1.06-2.28-1.58-3.42-1.58-3.42l0-2.35c-2.89-3.84-5.93-8.53-2.7-13.11  c1.58-2.25,4.98,0.19,6.76-0.6c3.38-1.5,6.34-2.05,8.7,0.55c2,2.21,1.89,5.48,0.02,8.01c-1.26,1.71-2.69,2.94-4.3,4.14  c3.97,0.59,8.97,0.16,10,4.38c0.88,3.59-2.71,13.14-8.99,11.61c-1.33-0.32-1.99-2.42-4.02-3.95c-8.87,19.95,2.33,16.47-13.28,39.84  C310.76,1249.76,309.68,1251.03,310.1,1252.94z" />
<path class="st6" d="M970.61,1075.05c-0.79,0.1-2.41-1.23-3.06-0.44c-9.2,11.12-4.36,6.11-13.1,6.96c-0.75-3.31,2.04-5.03,4.35-7.63  l1.13-1.27c2.83-3.17-6.49,2.27-8.64-2.41c-0.63-1.38-0.43-3.95,1.27-5.55c3.3-3.09,8.4-2.53,12.26,0.08  c0.45-2.31-1.98-6.41,0.43-7.1c2.26-0.65,6.34-0.96,8.71,0c2.7,1.09,5.41,5.85,5.29,8.86  C979.08,1071.11,973.9,1074.09,970.61,1075.05z" />
<path class="st0" d="M684.49,1337.17c4.94,0.15,9.64,3.9,8.55,9.48c5.22,4.19-0.96,14.46-5.2,14.64c-2.41,0.1-2.99-1.98-5.03-3.23  l-6.87-4.22c-1.25-0.77-1.06-3.05-0.71-4.28c0.3-1.06,3.47-0.26,3.86-1.22c0.87-2.13-0.41-5.43-1.35-7.32  C678.49,1338.35,681.76,1337.08,684.49,1337.17z" />
<path class="st5" d="M843.82,1175.14c-1.82,0.61-3.61-0.17-5.38-2.33c-1.87-1.27-4.23-1.66-7.1-1.17c-2.08-1.22-2.97-2.61-2.67-4.19  c-1.26-3.85,1.21-6.97,2.36-10.55c0.57-1.76-4.51-5.27-1.95-7.32c2.45-1.97,9.08-1.85,11.29,0.89c3.68,4.58,0.95,10.29-2.23,15.33  c3.78,0.14,8.28,0.81,9.37,4.44C848.31,1172.88,844.77,1173.93,843.82,1175.14z" />
<path class="st5" d="M1056.85,1181.95c-3.69,4.28-12.98,2.85-14.48-2.07c-3.8-1.71-6.29-7.31-5.41-11.21  c0.68-3.03,3.7-2.75,5.97-3.01c2.48-0.29,3.71,1.73,4.82,4.31c2.05-0.36,4.23-1.24,5.96-0.28  C1058.24,1172.23,1058.89,1177.89,1056.85,1181.95z" />
<path class="st8" d="M1082.9,1232.64c-0.68,0.82-1.57,1.53-2.57,1.83c-1.24,0.37-2.06-0.65-3.07-0.89  c-2.37-13.37,5.96-28.23,15.48-37.32c-0.34,5.09-3.16,8.74-4.26,13.28L1082.9,1232.64z" />
<path class="st8" d="M348.65,1269.9c-0.96-0.73-3.37,0.44-4.21-1.64c-0.43-1.06-1.75-2.27-2.79-2.01  c7.35-9.65,9.69-21.76,12.13-33.72C356.09,1245.54,353.6,1258.46,348.65,1269.9z" />
<path class="st6" d="M1056.85,1181.95c-2.82,5.59-3.93,1.38-8.67,6.5c-1.56,0.96-2.88,0.46-3.95-1.52c0.33,4.21-0.6,7.22-2.8,9.04  c-0.94,0.2-1.99,0.98-2.78,0.55c-1.29-0.69-0.28-2.64-0.83-3.24c-0.7-1.31-0.71-2.71-0.04-4.2l-1.91,0.33  c-1.9-0.17-3.92,1.12-5.93-0.83c5.52-1.81,9.14-4.91,12.44-8.7C1047.12,1182.02,1052.1,1184.23,1056.85,1181.95z" />
<path class="st6" d="M812.21,1191.18c-0.27-0.11-0.68,0.02-0.97,0.01c-1.04-15.48-4.91-30.69-9.45-45.95l-4.09-1.31  c1.24-1.6,2.9-0.16,4.83,0.11C804.91,1144.39,814.89,1187.17,812.21,1191.18z" />
<path class="st8" d="M493.54,1266.35c-2.16,0.24-4.56,0.54-6.75,0.92c5.29-9.11,12.83-24.63,21.9-30.69  C507.73,1237.55,486.35,1269.82,493.54,1266.35z" />
<path class="st2" d="M222.15,502.53c-12.01,1.29-23.25,0.14-34.82,0.55c-0.34-3.3,2.34-4.87,3.26-7.36c1.77-4.81,4.87-7.9,9.08-8.83  c11.27-2.5,12.66,6.4,13.8,7.83c1.93,2.43,6.58-0.75,8.93,3.12C223.01,498.85,223.91,502.35,222.15,502.53z" />
<path class="st2" d="M237.27,442.23c-11.56,1.74-23.96,0.13-35.72,0.82l5.41-6.76c1.2-1.5-2.28-4.61-0.66-6.98  c1.3-1.9,3.06-3.51,5.94-3.89c5.46-0.72,9.75,2.11,10.15,7.81c0.06,0.92,0.63,2.18,1.16,2.51c0.9,0.57,2.37,0.25,3.66-0.05  C231.86,434.6,237.11,436.27,237.27,442.23z" />
<path class="st3" d="M573.22,893.7c3.8-0.14,7.64-0.28,11.44-0.12c0.98,0.35,2.02,1.11,3.8,1.32c47.64,5.72,94.79,11.72,141.9,20.91  c6.92,1.35,13.14,2.18,18.28,7.67c-7.56,3.67-13.82,7.68-21.06,10.33l-27.51,10.06c-15.8,5.78-31.53,10.78-46.13,18.15l-1.04,1.74  c-32.16-6.56-64.23-13.42-96.19-20.59l-0.2-2.44c-0.8-0.81-1.93-0.74-3.41,0.21l-1.05,1.73l-38.12-8.49  c-4.76,7.9-7.14,11.84-7.14,11.84l-2.13,0.71l-1.26,1.63c-9.21-1.11-6.03,10.54-0.85,1.82l2.39,0.17l1.54-1.66  c5.72,1.18,11.39,0.3,17.03-2.65c7.94-0.82,14.24,4.98,5.53,9.32l2,5.73c-0.97,1.56-1.07,2.83-0.28,3.82  c1.19,0.84,1.32,2.58,0.38,5.21c3.04,1.59,5.06,0.22,6.06-4.1l2.26-0.32c4.85-1.96,14.56,0.9,19.5,3.25  c1.17,0.56,1.89,1.75,2.53,2.82c1.66,0.28,2.65,1.56,2.95,3.83c0.79,1.17,2.16,1.44,4.1,0.81c1.56-1.55,3.08-2.3,4.56-2.23l1.6-1.86  c15.15,3.31,30.14,7.3,44.95,11.98c1.78,1.65,3.22,2.21,4.34,1.7c21.1,4.77,42.17,9.97,63.22,15.58l7.81-6.62  c13.64-6.28,28.12-10.52,43.45-12.72l2.65-0.2c0.38,0.53,0.57,0.44,0.96-0.04l20.18,3.96c0.32-5.3-1.86-10.01-2.83-14.76  c0.06-1.21,0.33-1.23,0.81-0.11c4.15,5.56,0.85,15.01,5.55,16.17l80.13,19.78l48.22,13.95c10.54,3.05,20.93,5.23,30.28,9.9  l-77.71,16.52c-1.18-1.52-3.51-1.83-5.92-1.85c-30.66-0.24-60.48,1.79-91.03,5.49l-81.66,9.9c-29.15,3.53-171.63,21.23-189.98,15.17  l-21.26-7.03c-22.43-7.42-51.27-6.26-106.64-29.3c-1.98-0.82-3.87-1.13-5.62-0.94c-0.42,1.72-1.17,1.56-1.09-0.26  c0.16-1.09-0.71-1.15-1.77-1.64c-10.43-4.82-21.41-8.69-30.89-15.39c-3.53-2.5-4.94-7.69-9.7-9.83  c33.21-14.84,66.22-25.78,99.83-37.74c12.01-4.27,23-6.51,35.85-5.5c13.83,1.09,27.33-0.35,40.99-1.34  c6.4-0.46,12.69,2.42,18.66-1.15c-9.73-0.94-27.07-13.32-31.41-7.58c-0.84,1.12-0.58,3.26-1.48,3.82c-1.01,0.63-2.18,0.7-3.23,0.25  c2.39-9.67-9.98-2.8-13.83-11.9c-3.72,1.78-3.09,4.99-5.75,7.84c-0.54-5.33-3.75-7.72-7.92-8.07l-0.1-2.34  c0.91-1.21,9.02-10.06,9.72-10.1c0.79-0.04,1.49,0.29,2.12,0.75c1.23-1.01,2.81-0.99,4.76,0.05l6.84,0.92l0.73,2.11  c1.21,1.04,1.27,2.54,0.17,4.49c2.9,12.62,16.96,6.85,17.2-3.54c-8.56,3.63-7.18-5.05,0.16-6.14c-1.17-1.85-1.39-4.08,0.69-5.29  c1.36-1.08,2.73-0.75,4.09,0.99l1.35,1.72c-1.6,7.12,3.88,5.05,8.29,2.43l1.83,1.3l1.75-1.54c5.28,1.18,11.18,0.26,15-3.8  c-15.53-3.48-30.95-7.23-46.25-11.26c-2.96,0.1-5.27-0.43-6.94-1.59c-1.65-3.58,0.82-8.72,3.64-11.35c-1.12-1.52-0.64-2.05,1-1.12  c1.54-0.8,3.09-1.57,4.69-2.2c1.59-0.63,3.18-1.23,4.82-1.54c31.23-5.94,62.97-9.28,94.69-11.13L573.22,893.7z" />
<path class="st6" d="M454.92,1221.99l-0.68,0.95c-0.06,0.22-0.07,0.45-0.12,0.67c0.22,0.61,0.91,0.73,2.08,0.39  c2.68-1.11,5.56-2.51,8.62-3.59c4.13-1.45,7.51,1.77,8.71,4.52c1.97,4.48-0.98,6.77-2.4,10.34c-1.41,3.56,0.98,9.61-4.21,12.15  c-10.97,5.38-20.19-15.9-21.58-13.55l-0.87,1.47c1.87-3.14-16.79,16.72-25.09,5.92c-2.15-2.79,1.64-6.5,1.14-8.99  c-0.85-4.24-3.61-7.65,0.09-11.83c8.02-9.05,16.58,5.38,22.25,7.1c-4.06-6.44-8.98-10.99-9.72-18.07c-0.33-3.15,2.58-5.59,4.59-6.33  c2.57-0.95,5.69-0.09,7.95,1.41c2.54-0.61,4.4-2.53,7.04-3.02c3.04-0.56,5.33,1.66,6.53,3.39c1.59,2.3,1.88,5.2,0.65,7.55  L454.92,1221.99z" />
<path class="st3" d="M200.62,1226.79c3.33,0.32,3.92,4.23,3.05,7.28c-1.25,4.35-0.03-3.72,1.72-4.27c1,0.95,4.1,0.71,5.37,0.91  c1.66,0.25,2.01-2.57,2.86-3.74c1.31,1.37-0.03,4.17,1.32,4.61c5.57,1.82,11.06,2.61,16.36,3.92c1.5,0.1,1.92,0.48,1.23,1.15  c0.73,0.22,1.55,0.58,1.64,1.25c0.18,1.37-3.97,12.21-4.96,14.06c-0.29,0.54-1.15,0.63-1.87,0.66c-6.95-0.24-15.65,4.36-17.77,11.65  c-1.96,6.75,3.24,20.72,1.24,21.67c-2.68,1.28-4.02-21.3-3.95-23.55c-2.66,6.04-2.59,12.5-1.9,19.09c-3.14-0.07-5.48-0.36-7.54-1.81  c4.72-17.09,15.02-26.74,14.43-46.28c-5.06,14.66-9.07,28.73-18.51,40.75c-4.04-10.41-4.82-20.3-7.56-30.46  c-3.13,0.87-3.81,2.84-6.55,4.66c-0.82-3.68-3.69-4.48-6.4-5.37c0-1.91,1.57-3.02,4.73-3.35c5.08-3.33,7.18-9.32,11.54-13.45  c3.22,1.85,7.19,2.95,11.18,2.5C200.71,1228.43,200.53,1226.97,200.62,1226.79z" />
<path class="st3" d="M286.83,1247.15c-3.81,9.08-6.74,18.43-11.35,27.84c-1.07,2.19-7.25,1.73-8.52-0.05  c-1.87-2.63,7.51-4.12,5.67-13.68c-0.68-3.54-4.59-4.26-7.55-6.69c-2.06-1.69-3.08-4.33-5.56-4.59c-9.73-1.02-8.47,15.55-11.1,21.56  c-3.66-5.06-5.07-9.98-10.08-12.44c-8.85-4.36-11.82,14.67-13.67,20.59l-1.03,0.92c0.34,2.86,0.27,5.76,0.89,8.57  c-0.63-0.41-2.53,0.2-2.58-0.79c-0.03-0.56-0.98-2.13-0.72-3.1l6.2-23.02c0.84-8.21,3.69-15.97,6.59-23.66  c0.4-1.05,1.08-1.77,2.2-2.13c0.19-0.84,0.46-0.81,0.8,0.02C243.51,1236.66,278.42,1246.07,286.83,1247.15z" />
<path class="st6" d="M237.02,1236.5l-0.8-0.02c-0.95,2.61-2.21,2.41-3.69,0.18l-1.23-1.15c1.04,0.1,2.13-0.13,2.59-0.9  c0.58-0.98,5.76-19.63,5.99-24.03c0.21-3.99-8.77,6.62-15.61,3.11c-3.03-1.55-2.37-5.88-1.25-8.22c1.27-2.65,4.01-3.09,7.69-3.63  l-5.91-5.94c-0.23-7.2,8.55-13.39,15.09-10.17c2.99,1.47,2.26,6.71,3.43,9.11c3.75,1.05,4.98-9.48,14.02-5.81  c3.43,1.39,4.66,4.85,3.72,9.42c-0.6,2.92-4.38,3.46-7.91,5.13c4.96,0.94,9.11,2.56,10.17,7.03c0.71,3.01-1.37,8.23-5.06,9.51  c-6.18,2.14-11.45-1.81-15.5-7.63C240.25,1221.14,237.55,1228.68,237.02,1236.5z" />
<path class="st3" d="M548.2,1211.67c-0.55-0.98,0.1-2.6-1.84-3.11c-0.3,2.49-2.08,3.41-2.78,4.88c-1.7,3.58-7.05,15.11-13.93,11.39  c-2.16-1.17-2.36-3.46-3.34-5.79l-3.15-7.51c-1.29-3.06,0.03-6.66,2.35-8.67c4.3-3.71,11.29,0.38,11.18-1.83  c1.16-1.32,2.92-1.08,5.28,0.74l3.07,0.92l0.46-10.22l1.98-1.2c0.97,0.71,0.66,1.89,1.16,2.95c1.44-3.23,3.16-5.79,5.23-6.4  c4.55-1.33,9.36,1.15,12.28,6.19c1.44,2.49-2.66,2.7-2.01,10.05c2.45,2.66,6.08,6.17,4.84,10.66c-0.92,3.33-2.41,8.13-7.52,8.12  C554.88,1222.84,551.07,1216.79,548.2,1211.67z" />
<path class="st3" d="M120.35,1194.24c-2.85,1.74-2.91,5.52-3.38,8.59c-4.7,3.19-5.29,9.62-7.93,15.73c-8.16-3.1-16.52-3.74-25.69-5  c1.44-5,3.72-9.57,6.9-13.45c1.57-1.91,5.61-1.13,7.69-0.6c-3.42,4.68-2.25,8.25,0.68,12.88c1.9-4.27,2.42-8.69,2.23-13.44  c-3.73-1.08-0.92-9.28,2.72-8.58c3.79-0.42,7.31,1.75,11.43,1.66c1.43-0.03,2.93-1.13,4.09-0.3  C119.85,1192.25,120.21,1193.29,120.35,1194.24z" />
<path class="st3" d="M128.6,1202.87c-0.92,4.07-6.05,7.21-4.61,12.48c0.79,2.89,4.25,4.25,7.56,5.36c-0.18,2.39-2.16,4.77-4.56,6.67  l-1.61-5.7c-0.91-3.2-7.12-2.77-11.11-3.68c-0.34-5.42,1.97-10.23,2.72-15.18c2.49-1.69,2.95-4.85,3.37-7.7  C122.8,1198.02,125.65,1200.5,128.6,1202.87z" />
<path class="st6" d="M185.45,1205.71c-2.25,1.65-22.55,6.92-23.88,6.32c-1.34-0.6,0.34-4.87,1.66-5.31  c2.16-5.63,2.23-13.35,7.11-18.02c3.38-3.24,11.6,0.11,14.64,2.63c2.67,2.22,3.77,4.99,3.74,8.01  C188.69,1201.61,186.97,1203.73,185.45,1205.71z" />
<path class="st8" d="M118.03,1106.08c-0.7,1.55-0.53,3.52-0.79,5.53c3.95,0.6,7.1-0.42,10.41-1.59c-2.62,3.6-6.45,2.57-10.84,2.58  c-5.55,24.79-12.44,53.44-13.24,77.76c-1.66,2.1-2.84,5.56-2.72,8.58c-3.18,0.2-4.92-2.91-7.78-3.83c0.71-0.01,3.6,0.57,3.96-0.92  c1.27-5.39,2.37-10.57,3.16-16.15c4.03-28.5,8.99-48.43,15.84-75.54C118.01,1098.28,120.14,1102.1,118.03,1106.08z" />
<path class="st3" d="M1111.75,969.78c1.88,1.38,1.33,2.14-0.55,3.23c-4.44,0.18-8.67,1-12.71,2.46c-0.11,9.2,2.94,18.26,3.77,27.47  l-2.17,0.18c0.89-6.04-1.4-11.97-2.64-18.49c-0.61-3.23,0.27-8.65-2.46-10.71c-2.43-1.83-6.78,0.31-9.06-1.63  c-1.48-1.62-2.93-3.4-0.15-4.62c0.89-1.92,2.91-6.13,5.61-5.51c8.98,2.05,7.31-5.79,15.62-4.49c3.23,0.5,8.67,5.73,6.54,8.6  c-1.05,1.43-2.72,0.51-4.93,1.77C1109.72,968.25,1110.82,969.53,1111.75,969.78z" />
<path class="st3" d="M135.36,1175.01c-0.64-0.75-1.44-1.34-2.28-1.85c-1.66-1.35-0.9-3.55-1.25-5.68c-0.63-3.84-7.68-3.73-6.77-9.11  c0.23-1.33,2.36-1.45,3.28-2.91c0.7-1.11,0.17-2.94,0.9-3.91c0.41-0.55,2.04-0.74,2.8-0.02c0.49,0.46,0.81,1.03,1.82,1.9  c1.51-1.59,3.79-4.6,5.82-2.93c0.78,0.64,0.04,3.02,0.6,3.71c1.46,1.81,6.67,0.01,6.96,3.18c0.43,4.78-7.24,3.2-7.26,4.94  c3.39,1.29,6.41-0.42,9.05,2.41c-2.72,4.23-8.61,5.8-12.72,2.7C136.41,1171.41,138.1,1173.9,135.36,1175.01z" />
<path class="st3" d="M134.51,1090.4c-0.83,0.17-3.83-0.29-4.47,0.67c-3.31,11.78-8.25,6.74-12.01,15.02  c-0.01-0.92,0.01-1.88-0.23-3.15c-0.14-0.78-1.2-0.34-1.76-0.43l-6.05-0.96c-4.91-0.78-3.29-9.2-1.58-13.75  c5.96,0.53,11.88,0.03,18.46,1.36C129.32,1089.65,132.44,1090.18,134.51,1090.4z" />
<path class="st6" d="M547.49,1191.29l-0.57,11.42c-0.25,4.91-9.92-1.44-10.23-1.66c-2.71-1.99-6.59-5.15-5.16-8.57  c1.94-4.64,8.59-7.75,13.41-6.73C547.72,1186.34,547.35,1189.57,547.49,1191.29z" />
<path class="st3" d="M321.39,1202.83c-2.57,0.46-7.6,9.09-12.83,6.32c-1.88-1-1.41-4.34-0.74-5.93c1.93-4.53,8.03-4.25,11.98-6.16  c0.61,0.81,2.04,0.88,2.47,1.93C322.98,1200.71,321.72,1201.53,321.39,1202.83z" />
<path class="st3" d="M803.91,1405.68c0.73,4.57-4.67,5.23-7.05,7.16c-2.69,2.18-2.78,6.55-6.71,6.91  c-11,1.02-11.98-11.88-16.07-20.59c-1.61,0.21-0.77,2.55-1.46,3.45c-0.6,5.33-2.14,10.84-6.33,14.14c-1.04,3-7.94,3.92-10.97,4.86  c-4.03-3.1-2.08-9.41-3.87-12.39c-1.9-3.16-7.5-3.65-7.2-8.63c0.24-4.01,1.26-8.07,4.66-10.12c7.86-4.72,15.89,5.11,21.97,4.95  c-4.16-4.19-9.71-6.47-13.01-11.25c-2.72-3.94-1.45-8.13,1.42-10.98c2.57-2.56,6.14-4.63,10.07-2.51  c7.09,3.82,8.04,11.56,7.18,20.16c4.49-4.35,7.93-10.72,13.6-13.64c4.91-2.53,10.03,1.28,11.47,5.4c1.49,4.26,0.04,8.28-4.02,11.47  c-2.88,2.27-6.6,1.21-10.5,2.15C793.18,1398.81,802.26,1395.46,803.91,1405.68z" />
<path class="st3" d="M1154.08,1382.53c-6.15,18.93-21.1,45-25.11,57.39c-1.18,2.47-1.93,2.58-2.74-0.13  c4.74-12.21,9.54-24.56,15.5-36.29c14.49-28.53,23.44-67.8,15.16-98.94c-2.57-0.45-4.84-5.37-4.97-8.19  c1.17-3.92-0.39-7.73-4.68-11.45l0.76-2.19c-0.29-4.84-9.47-16.12-3.63-22.39c4.56-4.9,13.87-5.48,18.69-0.51  c4.51,4.65,1.39,10.65-0.3,15.91c2.77-4.44,6.9-9.4,13.05-6.91c3.85,1.56,2.56,7.8-0.44,10.15c-6.08,4.77-12.28,8.11-19.31,11.97  c2.06,3,5.18,3.33,6.55,5.73c1.58,2.76-2.6,4.85-2.7,7.18c-0.31,7.52,2.05,14.51,2.34,22.19  C1162.99,1345.22,1159.95,1364.46,1154.08,1382.53z" />
<path class="st5" d="M1148,1282.72l6.03,8.05c1.6,2.14-1.6,6.22,0.54,8.43c1.81,1.87,1.83,3.48,2.32,5.35  c-0.63,0.09-1.29-0.05-1.91,0.09l-1.05,1.05l-0.9,0.88l-1.13,0.99c-0.12,0.26,0.03,0.61-0.04,0.89l-0.86,0.96  c-1.89,2.1-2.37,5.45-5.38,7.31c-3.97,2.46-11.78,0.75-14.49-3.32c-2.67-4.01-1.2-9.88,1.67-12.52c0.63-2.26-0.68-2.68-3.91-1.28  c-2.42,1.43-6.29,1.42-8.81,0.07c-2.34-1.25-4.58-3.45-5.02-7c-0.95-7.75,3.93-16.01,12.02-17.5  C1135.26,1273.66,1141.87,1278.4,1148,1282.72z" />
<path class="st3" d="M1008.96,1362.03c-0.65-11.32,0.68-21.67,2.43-31.88c0.82-4.79,4.86-8.5,8.41-9.39  c4.75-1.18,9.22,1.39,11.63,4.26c3.55,4.23,2.27,9.27,0.22,14.11C1025.73,1347.64,1018.58,1355.13,1008.96,1362.03z" />
<path class="st3" d="M515.76,1386.3c5.02,4.36-1.63,12.54-8.12,11.36l-0.67,1.88c0.87,1.53,1.13,3.95,0.44,5.78  c-0.46,1.22-2.16,2.02-3.41,2.96l-1.28-0.26c0.22-3.77-0.25-7.24-1.41-10.42c0.58-10.62-11.52-2.68-13.36-11.19  c-0.52-2.41,0.9-6.63,4-7.32c2.34-0.52,7.79-0.29,9.02,1.64c1.9,2.99-1.37,6.98-1.63,10.02c3.67,0.78,2.44-7.76,5.56-8.92  C508.37,1380.53,510.47,1384.54,515.76,1386.3z" />
<path class="st3" d="M512.69,1474.81l-1.95-0.25c-1.43-2.35-3.75-3.91-3.45-6.68c0.22-2.04,2.64-2.49,4-2.72  c3.6-0.6,6.85,6.22,9.37,4.98c-3.19-5.29-4.92-10.42-0.97-14.66c2.42-2.59,5.76-1.35,7.95-0.04c2.55,1.53,4.54,4.22,3.05,7.5  c-1.62,3.56-4.07,8.33-7.33,10.55C520.35,1475.55,515.75,1473.37,512.69,1474.81z" />
<path class="st8" d="M526.14,1394.04c1.36,1.29,1.05,2.28-0.81,2.56c-4.88,2.25-3.72,8.72-9.29,10.52c0.07-4.84-5.09-9.33-9.08-7.58  c-0.4-0.7-1.48-0.91-1.63-1.58c-0.78-3.46,6.18-0.3,9.02-4.83c1.3-2.07,1.56-4.51,1.4-6.82c3.5-2.38,2.25,3.81,5.14,3.87  c1.09,0.02,2.2-0.5,3.51-0.9c1.76-0.54,2.27,1.11,2.34,2.41C526.78,1392.35,526.55,1393.26,526.14,1394.04z" />
<path class="st5" d="M553.1,940.95c1.45-0.76,1.52-0.66,1.7,0.86l1.08-0.94c-0.13-0.86,0.09-0.87,0.64-0.13  c0.92,0.81,1.99,1.22,3.66,1.57l93.77,19.71l80.56,17.94c1.92,0.43,3.21,0.99,3.97,2.31c0.39,1.37-0.35,2.35-2.07,2.72  c-15.49,3.27-39.23,5.52-47.94,18.91l-61.21-15.56c-1.34-0.34-2.38-0.94-3.44-0.25c-1.28,0.84-2.03,4.1-3.19,4.26  c-0.69,0.09-1.34-0.45-1.72-0.79c-1.45-1.28,2.25-3.29,1.28-5.08c-0.01-0.02-43.14-12.99-47.07-12.28l-1.22-2.11l3.47-8.03  l-6.91,4.15c-2.34,2.37-4.66,3.56-6.94,3.57c-7.26-2.31-14.52-4.75-22.03-6.07c-1.29-1.65-0.96-3.69,0.99-6.13l-7.44,5.98  l-2.25-0.64c-2.1-0.08-4.4,1.8-6.65-0.38c1.41-1.86,3.99-1.32,5.27-3.51c-1.47-2.09-2.24-3.83-2.17-5.92  c0.06-1.72,3.71-2.35,4.39-3.91c-1.11-3.91-8.24-4.09-11.47-2.07c-4.9,3.06-10.28,2.2-15.2,1.23c-2.83-0.81-2.95-2.38-0.28-3.62  c0.06-2.49,5.71-11.16,7.98-14.81L553.1,940.95z" />
<path class="st3" d="M824.36,885.93c-1.3-3.88,1.18-7.97-0.71-11.37c-2.18-3.91-8.02-3.26-11.82-4.44  c-8.92-2.78-17.15-4.65-26.62-4.5c7.55-1.66,15.02-0.29,23.17,0.31c20.9-1.75,41.12-2.94,62.45-1.85  c-3.82,2.79-8.97,2.08-12.85,4.67l-14.73,9.8C847.14,875.95,824.85,885.38,824.36,885.93z" />
<path class="st3" d="M919.7,981.09c0.97,0.82,2.18,2.63,2.5,3.73c0.37,1.29-0.17,3.74-2.05,4.13c-2.36,0.49-4.72,0.11-6.24,1.66  c-0.37,2.06-1.04,2.66-2.01,1.82c-1.38-1.74-2.92-4.3-5.73-4.5c-2.77-0.19-4.64,7.81-9.52,5.13c-1.41-0.77-1.53-2.94-1.76-4.5  c0.6-0.51,1.72-2.35,2.85-2.16c3.64,0.63,3.19-3.36,4.74-4.17C913.05,976.75,913.94,981.61,919.7,981.09z" />
<path class="st5" d="M760.24,971.13c-0.25-0.34-0.64-0.29-0.81,0.11c-0.59-2.88-5.56-1.09-6.44-7.59c-2.21,0.93-3.9,1.27-5.05-0.26  c-0.77-1.03-1.21-3.81,0.77-4.22c3.26-0.67,3.58-2.65,5.32-4.89c1.51-1.93,7.71,0.26,8.32,2.62c0.98,3.73-5.83,3.81-4.61,6.22  c1.2,2.38,2.02-3.75,7.18-1.35c1.52,0.71,1.61,3.01,0.74,4.9c-0.63,1.38-2.87,0.84-4.75,1.18  C759.81,968.05,760.2,970.38,760.24,971.13z" />
<path class="st0" d="M747.74,833.98c1.8-0.53,1.94,0.24,0.23,1.19c-3.63-0.99-3.4,16.52-4.86,20.18c-4.97-1.75-6.25-7.97-11.33-8  C734.22,841.1,740.07,833.49,747.74,833.98z" />
<path class="st4" d="M958.99,737.06l25.02,9.03l-9.15,4.31c-12.79,6.03-17,22.93-18,37.39l-20.33,10.66  c-47.92,25.12-85.12,44.39-137.94,59.07c-0.31-4.6,0.54-9.45-3.1-10.25c-5.52-1.2-10.55,3.34-14.82,6.16  c0.25-3.03,2.51-6.21,1.3-9.18c-0.84-2.05-3.73-2.04-5.31-1.68c-6.55,1.47-1.98,8.47-4.15,9.2c-4.61,1.55-5.45,4.21-7.16,8.85  c-1.36-7-1.75-12.53-4.65-17.98c-1.56-2.94-2.78-2.95-5.61-3.57c-2.4-0.53-4.29-4.1-7.12-3.9l-0.23-1.19  c0.76-1.26,2.32-1.93,4.25-2.34c29.51-6.24,55.95-18.98,79.72-37.15l36.1-27.59c14.33-10.95,28.71-22.24,44.98-29.62  C927.34,730.7,944.7,731.9,958.99,737.06z" />
<path class="st8" d="M435.18,784.45v1.71l0.68,1.21c-0.06,1.36,0.81,2.51,1.03,3.78c5.24,0.65,8.67,3.23,10.26,7.72  c3.01-1.57,8.56-4.2,7.92,0.83l-0.5,2.18l-9.83,4.67c-3.11,1.55-5.08,1.26-5.93-0.86c-2.1,0.09-3.58-1.78-4.43-5.62  c-4.48,2.13-9.12,3.83-13.92,5.1l-2.84-1.35c-2.33,3.49-9.95,5.27-13.35,2.7c-1.13,0.65-2.28,1.25-3.48,1.73  c-1.19,0.47-2.36,0.92-3.56,1.06c-24.14,2.74-48.66,3.29-72.88,2.07c-2.04,4.28-4.35,8.53-6.93,12.75  c-15.76,30.21-19.42,50.86,5.65,77.22c34.2,35.95,92.49,45.51,128.89,8.19c2.4-2.55,4.38-2.98,5.94-1.3  c-0.7,3.89-1.85,7.81-3.64,11.35c0.57,0.52,1.41,1.29,1.21,1.86c-1.1,3.11-4.5,9.49-6.29,12.45c-0.91,3.26-2.45,4.87-4.6,4.85  c-3.39,2.52-7.2,8.46-11.74,11.69c-9.04,6.43-18.66,13.12-30.52,14.56c-31.64,3.82-63.19,3.41-94.7-1.73  c-15.65-2.55-29.73-10.66-39.81-22.33l-3.16-0.84c-6.13-8.96-12.47-22-14.11-32.78l1.19-2.97c-2.67-10.04-0.13-20.83-0.22-31.48  c-10.69-9.03-19.4-19.96-24.05-32.79c-3.78-10.44-4-21.91-1.88-32.64c-3.09-1.47,2.03-9.54,3.72-11.88  c7.6-10.48,20.03-19.24,32.76-12.09c6.19,1.51,11,6.87,17.22,9.18c1.05-1.64,3-7.41,0.95-8.83c-4.2-2.91-7.9-4.72-8.8-9.4  c-0.99-5.11-0.41-8.79,3.22-11.89c3.18-0.27,6.63,0.59,10.34,2.59c19.2,3.12,38.48,5.46,57.83,7.02l2.19,1.38  c0.34,0.68-2.77,12.85-3.26,13.34c-1.07,1.06-2.37-0.33,1.93-0.23c29.3,1.24,58.53,0.25,87.69-2.96L435.18,784.45z" />
<path class="st8" d="M219.74,890.88c1.23,3.02,1.39,6.26,0.49,9.72c-0.03-2.92,0.51-5.2,1.61-6.84c0.35-1.31,0.41-2.6,2.04-4.14  c5.3,6.71,14.03,5.83,17.6,15.47c3.76,1.76,0.91,7.36-2.83,7.61c-2.25,15.88-15.23,18.61-23.17,4.33c-2.18,2.83-3.83,6.4-4.94,10.7  l-2.18,0.48c-4.71,3.74-11.66,5.14-15.48,0.06c-2.1-5.68,1.35-10.36,6.76-12.97c-4.83-0.61-7.78,0.3-10.42-2.77  c-1.58-1.84-2.04-4.43-1.03-7.32c1.56-4.41,3.76-9.56,9.58-8.36c5.49,1.13,9.16,5.33,13.22,8.82c-3.7-6.2-7.66-10.34-5.06-16.41  c1.33-3.1,4.92-4.26,8.08-3.48C216.4,886.37,218.39,888.49,219.74,890.88z" />
<path class="st3" d="M267.83,940.92c-16.71,2.58-33.87,1.65-50.88,1.7l-1.26-0.39c-0.16-7.37-0.69-13.93-1.59-19.67  c-1.05,1.52-1.05,3.35-1.12,5.79c-1.71,0.35-3.19-0.03-4.64-0.14l6.58-14.67c2.96,2.83,4.2,5.71,6.59,8.24  c3.19,3.38,8.22,3.78,11.3,0.36c2.74-3.04,2.82-6.83,4.27-10.4c0.47-1.16,3.16-0.91,3.44-1.83c0.43-1.43,1.44-3.49,0.95-4.81  c3.25,1.25,8.71,2.99,10.29-0.76C255.13,916.99,259.05,930.73,267.83,940.92z" />
<path class="st8" d="M130.46,928.33c-1.99,2.7-0.25,6.2-0.55,9.56c-0.27,3.02-4.35,2.67-6.46,2.9c-3.17,0.34-3.49-2.36-5.31-4.78  c-1.46-1.93-3.51-3.44-3.15-5.86l5.16,0.09c1.59,0.18,3.08,0.33,4.32-0.91c0.34-2.25-0.33-4.88,1.15-7.15L130.46,928.33z" />
<path class="st8" d="M174.49,948.83c-1.15-0.57,0.58-3.26,1.57-3.39c6.26-0.83,5.54,3.05,10.76,3.02c2.28-4.31,0.12-8.74,3.35-12.76  c1.22,5.38,0.99,10.45,0.14,16.04C184.89,951.85,179.16,951.14,174.49,948.83z" />
<path class="st6" d="M371.56,750.6c7.97-0.1,67.08,3.97,74.24,13.18c2.8,3.61,2.27,10.18-0.16,13.89c-1.92,2.94-6.23,6.2-10.46,6.78  c-31.39,4.28-63,6.05-95.47,3.82c0.29-5.13,2.28-9.11,4.06-14.11l-48.19-5.04c-7.58-0.79-15.11-2.8-20.9-6.6  c2.62-2.24,4.55-3.75,8.79-4.85c14.61-3.79,29.55-3.9,44.08-6.04c2.58-0.38,6.43-0.58,9.42-0.62L371.56,750.6z" />
<path class="st4" d="M262.09,783.46c-12.59-3.08-26.02,2.77-31.99,14.68c-1.51,3-3.92,6.34-4.5,9.28  c-17.7-8.96-33.52-21.42-48.71-34.76l-24.09-21.14c-1.18-1.04-1.96-2.29-2.2-3.48c12.11-0.21,23.92,1.56,36.45,4.07  c23.82,4.78,45.71,14.49,67.02,25.92C257.22,779.71,260.34,780.81,262.09,783.46z" />
<path class="st5" d="M112.11,1291.27c0.04,1.11,0.67,1.84,0.96,2.82c5.48,18.63,13.42,36.5,17.4,55.67c0.49,1.48,1.13,3.4-0.02,4.61  c-1.13-0.13-1.94-1.41-2.31-3.02c-3.63-15.77-8.9-30.63-14.61-45.79c-1.05-2.8-0.9-5.9-3.1-7.64l-2.02-0.96  c-1.76-6.13-3.77-12.25-6.02-18.34l1.31-1.81c-3.94,0.07-4.51-8.49-0.79-8.76l4.25,5.93  C108.21,1279.92,109.86,1285.68,112.11,1291.27z" />
<path class="st5" d="M115.27,1278.71l-1.01-1.12c-0.64-0.39-1.39-0.58-2.06-0.91l-2.62-0.13c-2.41-2.68-4.63-5.51-6.67-8.52  c-1.45-0.55-2.19,0.2-2.22,2.25c0.49,3.82-0.4,6.3-2.69,7.45c0.91,9.16-17.5,12.28-15.81,1.73l-0.72,0.13  c-0.68,2.06-1.6,3.03-2.74,2.92c-4.89-2.12-13.34-9.28-10.63-14.51c2.98-5.74,21.91-0.82,25.48-3.92  c-6.91-2.06-21.45-3.36-21.43-10.81c0-1.31,6.82-12.54,11.49-13.44c9.73-1.88,15.6,9.34,16.58,19.13c4.55-3.73,7.84-8.06,13.14-9.92  c4.45-1.57,7.97,0.96,10.48,3.28c3.8,3.52,2.39,7.39,2.84,11.41c0.88,2.35,6.24,3.93,6.37,7.76c0.13,4.08-3.41,7.78-6.76,9.16  C122.55,1282.22,118.8,1279.92,115.27,1278.71z" />
<path class="st3" d="M76.82,1302.73c-1.9,3.94-1.76,7.86-2.81,12.68c-3.29,15.17-4.9,29.93-5.61,45.47l-2.13,47.29  c-1.86,2.6-0.82,6.2-0.76,10.28c-2.44,1.04-5.22,0.05-7.66,0.41l-0.06-3.75c0.49-0.29,0.54-0.68,0.09-1.04  c3.85-46.63,6.69-86.15,20.85-131.56c1.04-0.78,2.14-1.73,2.74-2.92c0.32,0.15,0.58,0.32,0.65,0.55c0.46,1.47-2.61,19.07-3.32,21.61  L76.82,1302.73z" />
<path class="st3" d="M1101.06,1469.68c2.04,1.72,2.26,4.38,0.65,7.97c-7.65,16.45-16.14,32.43-25.48,47.94  c14.94-13.84,30.8-27.15,47.38-39.09c2.7-1.95,4.88-2.11,6.55-0.47c1.68,3.03,4.94,4.28,8.19,5.98c8.21,4.3,13.96,13.47,10.31,22.45  c-3.32,8.17-9.35,12.02-19.35,15.52c-14.78,5.17-45.3,10.03-60.99,11.01c-1.05,0.07-3.72,1.02-4.06-0.4l-2.27-9.5l-8.64-39.5  c-1.59-7.27-2.66-14.49-2.26-21.76c0.72-13.02,11.03-21.46,23.59-19.72C1089.87,1452.24,1092.84,1460,1101.06,1469.68z" />
<path class="st6" d="M1128.97,1439.91c-3.01,9.32-6.94,18.42-8.52,28.72c4.17,2.46,8.31,6,8.54,10.72  c-0.68,0.81-0.63,1.78,0.14,2.89c1.17,0.88,0.45,2.77,1.02,3.79c-4.78,1.14-9,3.9-13.14,7.34l-35.06,29.08  c-2.64,2.19-4.35,4.77-6.55,7.12c-2.47,2.64-5.72,3.89-7.72,7.97c-1.63-2.88-1.81-5.33-0.69-7.35c0.95,1.01,1.16,3.46,2.2,2.94  c3.29-1.65,3.69-5.51,5.33-8.43l18.29-32.54c4.07-7.25,8.13-14.56,8.24-22.48c5.03-2.04,9.81-2.85,16.3-3.26  c1.68-9.74,5.59-18.19,8.87-26.64L1128.97,1439.91z" />
<path class="st5" d="M1045.43,963.87c-1.12,2.17,0.73,3.86,2.9,2.79c3.7,0.27,5.25,2.61,5.92,5.16c0.63,2.42,0.84,6.13-2.08,7.42  c-5.59,2.46-11.86,0.16-16.46-4.11c-3.18,4.58-8.21,14.64-14.19,12.07c-1.64-0.7-4.76-2.53-4.65-4.91c0.09-2.01,2.98-2.15,3.68-3.82  c-4.2-0.23-6.95-2.61-7.38-5.69c-0.51-3.6,2.53-5.99,6.3-6.04c5.34-0.07,8.77,3.11,13.55,5.8l-5.66-10.58  c-1.44-2.7-0.17-4.73,1.85-6.25c2.32-1.74,4.06,1.8,5.69,2.11c2.61-1.15,5.57-3.67,8.27-1.59  C1045.72,958.2,1045.91,960.98,1045.43,963.87z" />
<path class="st5" d="M1085.78,967.69c-0.45,1.12,2.05,3.42,0.15,4.62l-1.06,0.12c-1.35,0.82-1.98,1.82-1.89,2.98  c1.22,1.08,3.11,1.57,4.35,3.04c1.88,2.22,1.73,5.82-0.86,6.71c-2.3,0.79-5.78,1.25-6.66-1.86c-0.49-1.75-2.38-1.26-3.1-1.58  c0.3-1.87-1.8-2.79-2.76-4.2c-2.15-3.18,0.59-6.74,2.89-8.43C1079.67,967,1082.51,966.35,1085.78,967.69z" />
<path class="st3" d="M55.45,1180.66c3.15,0.91,1.2,4.7-2.63,3.97l0.01,0.96l-0.85,5.85c0.65,0.17,1.16,0.34,1.16,0.5  c-0.03,6.7-0.59,16.08-1.27,22.76c-0.02,0.23-0.5,0.41-1.12,0.57l-12.39,1.88c2.03-10.19,6.1-20.5,6.32-31.08  c-0.84-1-2.18-2.14-2.3-3.51C46.5,1180.32,50.94,1181.25,55.45,1180.66z" />
<path class="st3" d="M162.94,1224.79c0.61,1.54,0.47,2.56-0.42,3.03l-2.15-6.93l-0.51,19.78c-5.32,0.87-10.34-0.81-15.12-1.81  c5.92-8.06,11.67-14.35,14.81-23.59C161.72,1218.56,161.54,1221.8,162.94,1224.79z" />
<path class="st3" d="M81.5,1211.05c-0.18,4.87-12.07,4.64-15.12,3.39c-1.01-6.3,0.8-11.6,2.83-17.33  C70.98,1198.54,81.49,1211.33,81.5,1211.05z" />
<path class="st5" d="M177.57,1239.63c-1.3,0.85-2.33,3.07-4.73,3.35l-1.92,0.22c-6.99,2.68-8.29-3.97-7.73-9.67  c-0.35-1.58-0.27-4.1-0.66-5.71c-0.23-0.94,0.57-2.06,0.42-3.03C165.72,1230.69,169.95,1241.46,177.57,1239.63z" />
<path class="st6" d="M17.16,1150.33c1.1,2.4,1.46,6.61,4.01,7.64l6.59,2.65c1.64,4.18,1.21,8.45,1.33,12.42  c2.42,6.58-0.32,11.59-8.23,15.01c2.1,3.54,3.6,7.29,4.48,11.26c1.09,3.04,0.66,5.16-1.28,6.37c-4.52,0.8-5.46,5.37-9.57,8.62  c1.42-6.01-0.79-10.97-1.58-16.47c-0.92-6.45,0.6-13.33-2.38-18.95l0.18-3.86c0.2-4.29,2.93-8.85,0.9-12.54  c-0.01-3.48,0.9-8.76,0.06-12.31C11.69,1146.99,15.78,1148.02,17.16,1150.33z" />
<path class="st3" d="M38.22,1178.8c2.1,6.54,3.09,12.52,0.34,19.41c-2.54,6.37-3.38,13.29-8.08,19.44  c-2.88-8.55-6.33-5.62-6.41-11.97c-0.09-6.33-1.76-12.63-6.15-17.81c6.8-5.49,11.48-4.88,11.17-14.83c1.02,3.58,2.47,6.7,6.94,7.35  C37.1,1180.55,37.77,1179.58,38.22,1178.8z" />
<path class="st6" d="M219.92,1480.33c0.05-0.85,0.33-0.79,0.79,0.03c4.04,2.73,9.04,3.39,14.98,1.98c4.67,1.34,6.84,20,6.51,24.62  c3.91-8.3,9.33-15.14,16.26-20.53l5.57-0.54c0.25-3.03,7.36-5.14,9.7-3.59c10,0.91,19.97,4.75,24.55,14.4  c3.99,8.38,0.7,17.69-6.96,22.3c-1.66,1-3.02,1.91-4.05,3.52c6.06,1.78,10.65,5.35,12.63,10.13c5.2,12.52-6.92,23.27-15.88,32.84  c-8.37,8.94-21.17,9.97-30.3,1.85c-11.63-10.32-11.28-15.84-19.76-23.71l-3.29-4.9c-0.64,2.87,1.22,4.57,0.97,6.79  c-0.19,9.01,0.04,18.11-2.72,27.03c-3.76,12.17-14.82,17.19-27,15.04c-9.48-1.67-18.84-6.29-20.77-16.69  c-1.22-6.62,3.11-12.54,8.41-17.49c-1.69-2.31-15.09,7.48-20.16,5.06c-9.04-4.71-14.09-16.2-14.36-25.99  c-0.19-6.93,3.53-12.53,7.86-15.78c14.79-11.1,41.2,7.41,56.9,13.38c-9.4-8.89-24.31-13.17-32.78-23.75  c-4.16-5.2-3.12-12.36,2.54-16.16c1.64-1.1,3.26-2.02,4.46-3.24c1.39-2.16,3.8-2.79,5.74-0.96  C208.83,1481.86,208.3,1477.79,219.92,1480.33z" />
<path class="st5" d="M260.19,1448.49c-2.24,1.02-1.32,3.22,2.77,6.6c8.72,16.17,13.08,24.26,13.08,24.26l-1.56,1.76l-0.75,1.19  c-2.93,1.9-6.42,2.49-9.7,3.59c-14.39,4.99-14.78-16.17-14.62-25.76c-1.94,5.23-3.91,10.51-6.5,15.47  c-4.56,8.74-14.51,9.32-22.19,4.75c-0.26-0.04-0.54,0.03-0.79-0.03c-4.11-3.42-6.02-8.5-6.86-14.21l-8.35-6.18  c-3.51-2.59-4.53-7.79-3.27-11.87c3.76-12.18,25.15-6.47,33.72-6.19l3.9,1.01c0.56,0.07,1.41-0.22,1.92,0  c1.24,0.13,1.24-0.51,0-1.92c-5.54-1.64-31.49-5.33-28.06-20.47c1.63-7.21,7.21-7.96,12.81-10.58c4.6-2.15,7.77-9.43,14.9-7.65  c14.7,3.66,11.12,23.87,13.37,32.88c2.45-8.67,4.26-17.45,10.44-23.31c4.8-4.55,11.93-3.81,17.31-1.44  c12.84,5.66,9.36,16.89,10.81,18.8c1.27,1.67,13.54,5.13,11.43,15.83c-2.41,12.23-19.4,9.96-28.27,7.61L260.19,1448.49z" />
<path class="st5" d="M415.7,1601.28c-1.81,2.04-4.57,3.26-8.27,3.66c-3.96,2.65-7.52,3.03-10.66,1.13  c-9.65,11.1-19.7,21.28-31.6,29.08c-4.66,3.06-9.99,3.24-14.11,0.53c-9.38-6.17-2.7-18.38-5.1-21.4c-2.68-3.39-6.76-5.59-7.78-10.25  c-1.62-7.46,1.65-14.55,6.77-19.4c15.14-14.32,37.37,1.94,49.57,11.91c1.23-1.19,2.38-0.76,3.43,1.3c0.62-1.99,1.7-2.76,3.24-2.32  c5.51-10.06,9.69-20.05,15.65-29.34c2.96-4.62,7.78-8.16,12.04-8.83c5.56-0.87,10.47,1.3,14.4,4.8  c7.44,6.62,16.16,13.81,11.49,24.77C449.39,1599.59,427.17,1601.01,415.7,1601.28z" />
<path class="st3" d="M162.57,1395c0.25,0.55,0.04,0.82-0.59,0.82c-3.92-7.61-5.48-15.87-6.15-25.57  c-4.55,5.37-5.13,27.8-18.49,23.05c-10.73-3.81-2.69-13.01-8.28-15.15c-3.98-1.53-6.2-4.96-6.28-8.8c-0.07-2.89,1.23-8.16,5.23-8.64  c8.67-1.03,17.3,2.74,24.56,5.72c-5.26-7.27-11.89-12.93-11.47-21.39c0.32-6.29,16.99-11.87,22.35-5.71  c2.67,3.07,3.38,7.49,1.43,11.38l-7.06,14.03c4.32-3.68,8.44-7.79,13.15-10.66c6.54-3.99,12.61-1.14,16.04,3.84  c4.77,6.94-3.1,12-5.1,16.39c-1.3,3.67,4.46,10.35-1.57,14.45c-4.36,2.97-9.27,2.46-14.22-1.84c-3.25-2.83-3.73-7.31-7.95-10.1  L162.57,1395z" />
<path class="st3" d="M120.08,1471.67c3.23-3.63,6.57-7.16,9.8-11.26c2.26-2.87,5.39-5.21,8.91-4.91  c10.09,0.87,14.93,15.25,16.4,24.01c0.68,4.05-0.96,7.95-3.4,10.07c-6.77,5.91-18-2.1-24.96-4.29c2.73,4.55,10.13,13.47,3.45,18.92  c-3.41,2.79-10.52,3.59-14.24,1.02c-4.71-3.26-7.77-7.99-6.54-13.53c-1.68-0.81-1.73-2.03-0.91-3.58l6.51-10.7  c0.47-3.59-3.57-6.45-3.11-9.95l1.84-13.79c5.57,12.17-1.42,8.3,3.8,20.73C119.57,1473.68,119.42,1472.42,120.08,1471.67z" />
<path class="st3" d="M415.7,1601.28c-2.08,4.05,11.32-0.31,23.06,4.88c4.37,1.93,7.54,5.74,7.48,10  c-0.15,11.07-8.84,9.09-13.43,16.73c-4.09,6.8-12.48,7.92-18.77,3.57c-10-6.92-10.16-22.73-14.92-26.4  c-1.29,1.57-1.7,0.73-1.51-1.17c-0.22-0.96-0.5-1.9-0.83-2.82c0.52-0.6,0.76-1.15,1.34-1.41c0.6-0.27,2.3,1.57,2.77,1.28  C404.98,1603.33,410.12,1601.79,415.7,1601.28z" />
<path class="st6" d="M98.01,1277.73c1.83-0.63,3.76-0.9,5.69-0.93c1.58,3.28,1.78,7.48,3.67,10.71c2.28,3.9,2.72,6.6,3.06,10.41  c0.42,4.69-0.09,6.36-3.92,9.59c-8.28,6.99-13.52,17.13-17.99,27.53l-11.69-32.31c-0.46,0.95,3.32-21.68,4.65-23.14  c0.43-0.85-0.81-2.75,1.49-2.91c0.09,2.13-0.53,4.34,0.62,5.51c1.42,1.43,3.69,2.08,5.81,2  C93.56,1284.02,95.46,1280.24,98.01,1277.73z" />
<path class="st3" d="M401.19,1595.53c-0.7,1.29-1.18,3.78-3.05,4.47c-1.53,0.56-2.34-2.4-3.62-3.45l-12.77-21.85  c-2.76-4.73-5.78-11.62-2.55-16.73c5.99-9.49,26.05-8.79,30.77-2.21C416.53,1564.89,400.95,1586.98,401.19,1595.53z" />
<path class="st6" d="M227.15,1339.51l-9.22-15.49c9.6-14.68,18.91-21.92,29.88-35.1c-1.83,20.07-5.57,38.63-12.22,57.14  c-3.43-6.43-3.53-12.92-6.18-19.41C226.28,1330.33,228.01,1334.67,227.15,1339.51z" />
<path class="st6" d="M396.6,1435.19l7.41-13.71c-10.24,2.03-10.37,15.05-18.95,7.2c5.56-11.42,13.29-21.9,21.76-32.44  c4.62,4.03,5.86,9.02,8.37,14.25c-3.17,0.09-11.82,9.1-9.48,12.07C403.54,1427.14,402.16,1432.57,396.6,1435.19z" />
<path class="st7" d="M260.19,1448.49l19.26,10.65c4.64,2.56,8.47,7.62,6.23,13.31c-1.79,4.55-6.8,7.83-11.2,8.66  c-0.14-3.26-11.47-23.02-13.14-24.96c-2.47-2.86-5.58-4.97-5.42-9.17C257.65,1446.2,258.88,1447.77,260.19,1448.49z" />
<path class="st5" d="M199.75,1485.98c-1.83,0.83-3.61,1.46-5.74,0.96l-3.1-14.07c-6.76-30.69-17.51-43.73-28.23-72.34  c0.38-0.85,0.19-2.17-0.53-2.77c-0.17-0.58,0.11-1.41-0.16-1.95l0.59-0.82l20.01,42.84C189.94,1453.58,196.01,1469.5,199.75,1485.98  z" />
<path class="st6" d="M521.33,1598.36c4.92,9.95,22.04,51.98,19.11,59.8c-0.31,0.82-2.23,0.69-2.36-0.56  c-0.58-5.38-2.89-9.77-4.26-14.93c-5.81-21.89-13.72-42.27-22.32-63.58C516.23,1584.83,518.07,1591.68,521.33,1598.36z" />
<path class="st6" d="M399.23,1439.59c0.84-2.84,4.29-3.25,6.77-4.36c4.83-2.15,8.24-5.54,12.83-8.83c2.32,2.95,3.12,6.57,2.44,10.32  C414.19,1438.63,407.73,1440.6,399.23,1439.59z" />
<path class="st3" d="M461.89,1402.46c3.32,3.24,8.22,7.68,5.72,12.68c-0.7,1.4-4.97,1.39-3.94,4.92c-1.59-1.44-2.3-2.31-3.84-2.34  c0.82-2.26-0.5-5.23,0.9-7.64c0.6-1.04,2.36-2.1,1.82-3.16c-0.4-0.8-2.62-2.18-3.64-1.14c-1.07,1.09-0.6,3.71-2.04,5.35  c-1.92-2.31-3.23-4.62-3.1-7.42C457.46,1404.62,459.41,1401.44,461.89,1402.46z" />
<path class="st3" d="M1058.25,1530.42c4.39,11.99,4.62,9.85,2.43,12.24c-19.69,10.18-39.72,20.39-61.34,26.66  c-7.34,2.13-14.08,1.46-20.16-2.56c-5.28-3.49-8.33-9.11-9.7-16.19c-3.18-16.4,5.01-31.92,21.37-36.38c1.19-3.1,0.23-5.92,0.02-8.9  c-0.79-11.22,0.43-22.27,6.88-31.12c7.09-9.71,19.29-11.79,28.61-4.37c5.82,4.64,10.21,10.44,13.49,17.35  C1046.68,1501.54,1052.9,1515.83,1058.25,1530.42z" />
<path class="st6" d="M991.95,1411.26l-14.46,35.77c-10.52,26.01-17.09,53.23-21.71,80.92c-1.58,9.49-2.68,19.22,0.76,27.81  l8.74,21.83c3.99,9.97,8.54,18.71,14.68,27.57c-2.75-2.4-7.35-4.48-8.8-7.18c-6.3-11.77-18.85-42.43-19.19-55.72  c-1.03-40.76,19.41-96.39,38.06-132.12C991.54,1407.89,992.61,1408.72,991.95,1411.26z" />
<path class="st5" d="M853.04,1418.97c-1.35,3.15-5.39,17.57-12.57,13.74c-3.88-2.07-4.01-8.68-1.75-11.48c-0.45-1-2.27-1.6-2.02-2.6  c0.17-0.66,2.08-1.46,1.93-2.27c-0.33-1.77-2.15-3.35-0.88-5.08c3.29-4.49,10.06,3.39,14.02,2.82c-1.3-4.18-4.23-7.34-3-11.51  c1.09-3.68,7.31-5.12,10.05-2.8c1.08,0.91,1.11,2.35,1.99,2.66c1.06,0.36,2.11-0.53,3.43-0.61c3.45-0.2,5.36,3.2,6.41,5.98  c1.02,2.71,0.02,7.01-3.27,8.38c-4.38,1.82-9-0.13-14.08,0.95c2.84,2.64,6.75,3.9,8.95,7.03c1.17,1.66,0.36,5.03-0.82,6.01  c-1.45,1.21-5.28,1.74-6.42-0.23C853.13,1426.71,854.66,1423.46,853.04,1418.97z" />
<path class="st6" d="M772.61,1402.61c4.46,24.63,15.14,43.26,20.5,68.01c-1.55,0.18-4.42,0.43-5.83,0.92  c-2.1-6.89-1.13-14.1-2.59-21.34c-2.36-11.7-8-23.08-11.7-34.3c-0.53-1.6-6.15-0.73-6.7,0.85  C768.12,1411.99,769.5,1406.6,772.61,1402.61z" />
<path class="st6" d="M826.85,1527.43c-0.64-2.69-2.4-6.05-3.54-9.23l-15.02-41.98c1.74,0.49,3.48,1.19,4.85,3.11  c7.73,10.9,11.91,23.18,13.59,36.55C827.23,1519.9,829.09,1524.19,826.85,1527.43z" />
<path class="st3" d="M991.95,1411.26l-1.91-1.12l16.59-39.55C1005.55,1385.86,997.16,1398.37,991.95,1411.26z" />
<path class="st5" d="M692.26,1511.92c0.64,1.52,0.58,3.15-0.19,4.89c-1.55,2.94-4.27,6.81-8.52,6.52  c-10.6-0.71-13.43-14.36-17.98-20.2l-1.03,11.75c0.4,5.75,0.48,11.53,0,17.28c0.07,1.24-0.07,3.78,0.64,4.8  c0.61,2.47,1.17,5.4,0.11,7.68c0.42,1.47,0.76,3.08,1.02,4.84c0.62,0.93,0.45,2.81,0.65,3.9c-1.41,0.92,0.04,2.83-1.26,4  c-1.25-3.89-0.4-7.25-2.3-9.94l-1.74-17.06c-0.13-1.28-3.38-1.98-2.77-3.98c2.24-7.38,4.1-14.71,3.97-22.78  c-3.69,3.65-2.59,8.33-6.33,10.21l-2.16-0.53c-0.27-2.2-1.09-3.9-2.45-5.11c-4.72,0.31-9.23,1.75-13.53,4.34l-1.97-1.23  c-1.01-1.42-3.32-1.84-2.4-4.53c2.55-7.48,15.86-6.8,22.6-8.58c-7.35-2.77-17.03-1.23-21.89-7.72c-3.15-4.2,4.1-13.52,8.99-12.84  c7.51,1.04,10.41,7.46,15.81,11.51c-1.73-6.66-4.62-13.43-2.29-19.7c1.72-4.62,6.26-5.28,10.23-5.41c4.23-0.15,6.34,3.79,9.78,5.76  c2.44,1.4,6.99-1.41,9.13,1.68c1.8,2.61,2.83,6.02,1.39,9.66c-2.34,5.9-8.29,8.26-12.99,12.67c6.49-1.08,11.91-3.62,17.91-2.39  c4.83,0.99,7.99,4.58,8.26,8.63C701.61,1510.03,692.38,1508.87,692.26,1511.92z" />
<path class="st6" d="M605.31,1498.52c1.46,3.92-1.85,8.02-4.07,9.55c-3.34,2.3-8.16,3.16-11.57,0.86c-5.15-3.47-6.36-8.9-6.16-15.19  c-4.29,4.16-8.37,6.13-12.94,4.16c-3.92-1.69-7.66-5.65-6.58-10.43c0.81-3.6,2.25-6.78,4.41-8.45c5.2-4,20.47-3.07,24.63,5.23  c0.37,0.73-1.43,1.86-1.49,3.08C597.13,1488.6,602.93,1492.14,605.31,1498.52z" />
<path class="st7" d="M656.54,1513.83c0.18,0.53-0.61,1.47-0.72,2.02l-1.38,1.89c-3.22,1.85-6.58,4.38-10.57,2.4  c-3.79-1.88-5.31-5.83-7.45-8.84c4.64-1.97,9.78-5.3,15.35-5.04C655.16,1506.41,655.73,1511.53,656.54,1513.83z" />
<path class="st6" d="M461.89,867.01c2.15,7.5,3.01,33.27-1.3,38.53c-0.48,0.58-1.06,1.08-1.67,1.56c-0.35,0.36-0.68,0.73-1,1.12  c-4.59,1.5-7.27,5.67-11.29,8.93c-43.67,35.55-108.74,15.27-137.63-30.79c-14.72-23.47,1.03-55.39,14.71-76.62  c27.25,0.76,53.97,0.25,80.56-3.25l2.53,2.87c5.11,18.18,9.63,36.49,13.53,54.93l1.68,16.19c7.47,10.76,14.35-6.79,14.89-14.41  c-1.29-18.54-7.28-36.05-17.97-52.53c-2.72-4.05-3.15-7.3-1.31-9.74c5.98-1.17,12.03-3.33,17.23-6.59c2.22,2.9,2.52,5.94,3.96,8.46  l2.05,0.93c6.07,13.97,11.85,28.14,17.34,42.5c10.48-8.41,23.1-31.52,15.16-44.22c-4.51-7.22-9.34-6.06-16.53-3.72l-1.76-1.48  c-2.32-2.58-5.69,0.37-8.77,2.36c-4.21-12.49-8.57-6.04-9.42-10.91c5.75-0.23,11.19-2.81,16.74-5.21c12.2-5.27,25.2-2.65,32.18,8.84  c5.27,8.69,6.53,18.65,4.55,28.84C486.88,841.64,476.28,856.48,461.89,867.01z" />
<path class="st4" d="M573.22,893.7c-38.37,1.43-76.6,6.08-114.3,13.39c2.88-12.11,3.59-24.57,1.83-37.41  c-0.19-1.39,0.43-2.16,1.14-2.67c23.27,8.22,66.84,9.52,88.34,17.82L573.22,893.7z" />
<path class="st2" d="M639.19,826.19c-2.91,1.49-5.21-0.07-7.97-1.17c-31.19-12.41-62.63-21.5-95.9-29.19  c11.87-2.07,23.15-0.97,35.03,0.29c23.27-5.06,57.58-1.49,71,20.63L639.19,826.19z" />
<path class="st5" d="M490.72,937.77c-0.78-0.17-1.62-0.57-1.65-1.29c-0.24-4.91-2.85-4.61-7.56-3.27l-2.26-0.89  c-0.67,0.04-1.78,1.3-2.28,0.81l-1.81-1.8c-0.06,2.56-0.96,2.46-1.77,0.05l-1.1,0.81c-0.03,2.56-0.93,2.47-1.78,0.07l-1.19,0.86  c-0.96,1.82-2.86,3.24-5.68,4.27c-2.2,2.75-4.43,4.22-6.69,4.42c-4.25-1-8.77-0.32-12.33-3.08l9.67-19.15  c3.39-1.37,6.48-0.54,10.11,0.39l29.14,7.43c5.86,1.5,11.8,1.8,17.12,4.21C505.93,938.49,497.86,939.76,490.72,937.77z" />
<path class="st8" d="M475.15,931.33c0.12,2,1.02,3.98,0.72,6.25c-2.79,1.07-5.34,2.36-6.18,5.04c1.08-0.89,6.01-2.99,6.44-0.88  c1.33,6.65-5.85,14.03-12.35,13.92c-3.03-0.11-6.75-4.27-8.28-6.7c-1.19-1.88,0.45-5.67,1.44-7.16c2.96-4.43,7.05-8.09,12.37-8.69  l1.19-0.86l1.78-0.07l1.1-0.81L475.15,931.33z" />
<path class="st6" d="M573.12,974.21c-1.38,3.71-4.44,4.85-8.05,4.2c-2.58-0.47-3.08-3.92-3.56-6.61  c1.28-2.89,13.68-10.44,17.15-11.22C577.51,965.99,574.73,969.87,573.12,974.21z" />
<path class="st6" d="M556.51,940.74c-0.21,0.05-0.44,0.05-0.64,0.13l-1.08,0.94c-0.35,0.11-0.72,0.41-1.04,0.13  c-0.31-0.27-0.47-0.67-0.66-0.99c2.23-4.45,2.27-9.32,2.14-14.68c2.37,1.03,2.61,3.21,4.18,3.15c4.33-0.16,2.91-5.64,7.96-3.42  c2.02,0.89,2.4,2.79,1.62,5.04c-0.79,2.27-2.72,3.89-4.34,4.67c-1.96,0.96-3.98-1.71-6.01-1.32  C556.51,934.8,556.58,939.02,556.51,940.74z" />
<path class="st6" d="M539.48,965.72l-2.57,5.52c-0.88,1.9-6.47,1.86-7.36,0.02c-1.09-2.26,0.51-4.68,1.22-6.33l14.47-11.81  C543.77,958.2,541.36,961.67,539.48,965.72z" />
<path class="st8" d="M490.72,937.77c-2.78,1.13-5.17,2.87-8.56,3.34c0.03,1.34,1.52,2.22-0.66,3.07c-0.8-3.13-1.78-5.46-4.15-7.81  c1.03-1.22,1.36-3.05,1.9-4.05c3.3-2.34,9.13-2.94,11.71,1.21C491.78,934.85,490.92,936.74,490.72,937.77z" />
<path class="st3" d="M417.64,803.81c0.6,4.23,2.49,8.01,4.73,12.14c9.53,17.62,25.87,48.84,9.74,67.2c-2.11,2.4-5.18,3.08-7.74,2.44  c-3.11-0.78-4.42-3.78-4.59-7.32c-1.38-28.49-10.55-45.86-15.48-71.76C408.71,805.92,413.24,804.67,417.64,803.81z" />
<path class="st9" d="M438.83,805.68c6.01,0.24,10.62-4.35,16.26-5.99c4.2-1.22,8.58-2.92,13.39-1.9  c19.89,10.94,3.69,44.38-11.24,54.45c-4.92-14.26-10.41-27.35-16.71-40.68C439.55,809.49,438.96,807.56,438.83,805.68z" />
<path class="st4" d="M265.86,831.14l-1.96,0.43c-8.76-4.17-17.21-8.7-25.33-13.6l-0.75-3.89c1.35-6.91,4.33-13.7,10.83-16.34  c9.48-3.84,20.84,6.57,30.05,9.25L265.86,831.14z" />
<path class="st0" d="M265.86,831.14l-6.61,15.58c-2.81,4.24-10.93-0.17-14.31-2.77c-5.87-9.01-8.27-19.73-7.11-29.86  C238.03,819.73,264.49,826.82,265.86,831.14z" />
<path class="st5" d="M259.24,846.71c-1.52,3.57-3.13,6.62-3.87,10.25c-5.15-3.7-7.59-8.66-10.43-13.03  C249.96,843.87,254.18,847.48,259.24,846.71z" />
<path class="st8" d="M387.8,769.19c-26.94,0.95-53.17,0.6-79.95-1.59c-6.41-0.52-12.37-1.55-18.38-3.99  c-0.62-6.14,41.94-7.59,46.07-7.76c26.68-1.1,52.97,0.69,79.57,3.08c6.03,0.54,11.67,1.72,17.13,5.15  C417.27,768.56,402.92,768.66,387.8,769.19z" />
<path class="st8" d="M264.03,1485.89c-12.8,4.28-17.96,20.02-25.85,31.24c2.52-9.63,2.81-17.88-0.27-26.97  c-0.73-2.15-1.07-4.66-2.56-5.77c-3.85-2.89-13.05,1.07-14.64-4.02c7.87,4.33,16.73,2.03,20.87-6.36c3.86-7.84,6.41-15.6,9.44-24.5  C252.59,1458.29,247.1,1487.09,264.03,1485.89z" />
<g>
</g>
<g>
</g>
<g>
</g>
<g>
</g>
<g>
</g>
<g>
</g>
<g>
</g>
<g>
</g>
<g>
</g>
<g>
</g>
<g>
</g>
<g>
</g>
<g>
</g>
<g>
</g>
<g>
</g>
</svg>