<?xml version='1.0' encoding='UTF-8'?>
<svg xmlns="http://www.w3.org/2000/svg" id="Layer_1" viewBox="0 0 1200 1200" xml:space="preserve" width="1200" height="1800">
<style type="text/css">
      .cls-1 {
        fill: #22100d;
      }

      .cls-2 {
        fill: #191e20;
      }

      .cls-3 {
        fill: #58341c;
      }

      .cls-4 {
        fill: #3a3e3c;
      }

      .cls-5 {
        fill: #515b5d;
      }

      .cls-6 {
        fill: #a16e3c;
      }

      .cls-7 {
        fill: #84815e;
      }

      .cls-8 {
        fill: #a4a1ab;
      }

      .cls-9 {
        fill: #b5abca;
      }

      .cls-10 {
        fill: #c6bdd6;
      }

      .cls-11 {
        fill: #d6cbe3;
      }

      .cls-12 {
        fill: #d9d0e3;
      }

      .cls-13 {
        fill: #e0dae7;
      }

      .cls-14 {
        fill: #e9e8f2;
      }

      .cls-15 {
        fill: #efeff2;
      }

      .cls-16 {
        fill: #f4f1f8;
      }

    </style>
<path class="cls-13" d="M278.92,1052.27l3.18-1l25.11,8.36l48.32,59.62c44.31-17.49,88.67-35.03,133.1-52.62  c16.14,10.29,32.22,20.43,48.26,30.42c7.89-11.84,16.09-23.3,24.58-34.38c4.53-4.64,22.53-20.28,27.18-21.44  c9.33-2.32,35.06-1.7,45.63-0.65c14.06,1.39,26.68,6.58,39.08,13.27c6.91,4.1,13.95,7.63,21.12,10.59l21.8-32.27l72.58-39.03  l2.34,1.4c3.29,3.86,4.45,9.12,3.47,15.77l-3.93,48.29l41.55,58.35l4.63,10.61c0.9,0.24,2.23,0.78,2.15,1.43  c-2.35,19.99-5.69,43.76-9.77,63.4c0.14,4.39-1.04,6.93-3.54,7.61H0V962.11l1.72-1.93l91.67,28.12l57.17,78.02l72.07-32.03  l55.59,15.35L278.92,1052.27z" />
<path class="cls-10" d="M0,108.98V0h1200v51.41l-1.02,2.39C1088.06,58.1,977,62.41,865.8,66.72l-7.99-2.04  c-2.06,1.88-4.78,1.45-8.15-1.3c-9.08-7.36-18.49-14.13-28.21-20.3c-5.13-1.21-10.54-0.7-16.25,1.5c1.03,3.47-2.46,5.04-4.72,2.4  l-0.52,2.6c-6.84,1.34-12.58,3.17-18.03,7.85c6.07,0.07,12,0.11,17.78,0.11l1,1.7c4.38-1.4,7.86,2.85,5.28,6.52  c-27.98,4.33-56.2,6.62-84.66,6.87c-137.92,3.83-275.76,9.33-413.52,16.49L1.62,111.22L0,108.98z" />
<path class="cls-7" d="M522.61,689.51c0.76-3.38,8.62-2.08,11.82-1.54c20.41,3.51,39.04,10.98,56.76,21.91l1.88,3.57l-2.29,2.91  c-12.51,2.08-24.82,4.6-36.93,7.59c-9.41,6.51-18.42,13.73-27.01,21.65c-13.22-0.19-26.25-1.68-39.08-4.47  c-16.4-9.02-31.36-9.52-44.87-1.51c-11.73,10.49-23.71,20.66-35.92,30.52c-7.67-2.56-15.13-5.75-22.36-9.55  c-12.7-5.04-21.73-8.4-34.51-1.37l-28.61,21.05l-82.89,20.84l239.12,0.47l1.44,2.35c7.48,2.22,14.68,5.39,21.61,9.52l37.78,17.52  l150.92-1.17l3.19,2.32l3.71,1.72l6.72,12.42c3.06,4.53,3.87,8.69,2.41,12.48c-4.27,1.35-6.4,2.02-6.4,2.02  c-21.02-2.96-31.54-4.44-31.54-4.44c-11.4,4.52-22.09,10.15-32.06,16.89c-8.03,10.5-15.79,21.2-23.27,32.1  c-13.59-1.45-27.19-3.57-40.79-6.36l-29.11,27.85l-2.78,1.19c-6.12-4.55-12.23-9.16-18.35-13.81l-35.08,6.47  c-5.12,6.41-10.8,12.23-17.06,17.44c0,0-11.11-6.15-33.32-18.45c-6.32,0.23-12.66,1.35-19.04,3.37l-1.77-2.19l-5.33-0.84  l-130.83-90.53l-194.81,0.32l-3.19-2.34l-3-0.4c-5.56-13.63-19.21-24.2-33.46-27.06l-42.84,1.51L0,799.22v-112.5l1.18-2.98  l107.09-41.77l1.81,0.37l106.35,45.19l297.5-0.35L522.61,689.51z" />
<path class="cls-12" d="M819.93,97.14c3.38-0.05,6.05,6.51,5.18,9.62c5.35-0.17,14.22,8.57,13.06,13.98l-1.02,2.39l-250.81,10.16  l130.55,3.88l1.37,2.39c-0.74,0.94-1.51,1.84-2.39,2.62c-6.43,5.7-35.43,13.19-45.62,15.63c-1.02,0.24-2.13,0.13-3.28-0.01  c-1.17-0.14-2.31-0.45-3.45-0.81l-1.29-1.27c-1.09,4.38-3.02,6.42-5.79,6.13l-2.77,2.84c-31.76,8.37-63.25,18.15-94.47,29.33  c-18.99,6.91-38.32,11.72-57.99,14.44l-1.98-2.3l-62.56,2.06c-145.71-0.65-290.78-1.3-435.21-1.94L0,203.91v-94.92l295.46-21.33  c170.39-12.3,341.22-11.04,510.52-21.88c2.61-1.29,3.58,1.1,2.92,7.18c0.39,3.85,0.97,6.97,5.11,8.25  C815.49,86.79,817.46,92.1,819.93,97.14z" />
<path class="cls-16" d="M629.54,304.68l4,0.9c13.96,16.94,31.38,23.05,52.08,24.69c5.71,1.65,16.45,6.45,15.09,12.99  c3.22,1.54,2.48,3.84-0.9,3.87l-4.51,0.46c-5.11-2.92-31.72-12.22-34.73-9.42c-0.81,0.76,9.11,16.95,11.08,19.12  c4.35,4.81,9.98,7.72,16.06,9.92l1.37,2.98c5.63,3.87-3.25,17.15-9.45,16.7c0.8,3.27-1.91,3.84-3.58,0.98l-4.94,2.37l-218.01,1.09  L611.4,410.6c1.25,1.58,0.57,3.19-0.66,4.76L5.48,419.22c-1.41-1.37-1.15-3.01-0.4-4.79l175.72-31.08L1.43,383.2L0,380.86V277.73  l1.23-2.29c208.95,8.93,417.93,17.88,626.94,26.87L629.54,304.68z" />
<path class="cls-13" d="M720.89,533.4l2.65-0.33l6.66,9.21c1.27-3.01,2.78-5.45,6.32-3.65c7.59,5.39,15.08,10.95,22.46,16.68  c3.72,13.4,11.97,24.01,24.75,31.84c8.88,9.06,14.18,20.69,15.91,34.89c2.31,6.45,2.3,11.99-0.04,16.63  c-0.71,3.79-1.13,7.69-1.25,11.72l-33.55,9.96l-1.99-1.85l-4.21,0.66l-57.24-26.1l-368.15,0.42c10.7,6.54,21.49,12.86,32.36,18.97  c11.78-3.65,24.07-6.78,36.41-7.73c6.75-0.52,12.01-0.9,17.5,3.43c8.38,7.99,17.49,13.63,27.33,16.93l40.63,3.15  c12.07,3.99,23.51,10.1,34.32,18.31l0.85,2.95l-306.72,0.26l-107.46-45.59L0,686.72v-150l1.65-2.1c6.34-0.91,12.72-1.49,19.13-1.74  l26.46,19.4c15.9-4.88,31.87-9.55,47.89-14c14.47,4.96,27.89,11.59,40.27,19.88c10.38,12.37,20.35,25.11,29.9,38.23  c15.77-6.5,30.19-9.58,45.8-1.89c7.98,4.4,15.77,9.08,23.37,14.05c15.64-17.05,28.79-28.93,53.32-21.79  c12.76,3.71,26.11,12.4,35.27,21.51c10.31-4.41,20.44-9.18,30.4-14.33c83.32,2.65,166.58,3.97,250.7,1.26l27.9-3.68l15.08-20.22  l-277.33-2.22c-1.32-1.43-0.96-3.03-0.14-4.75l183.93-13.34c20.65-20.41,51.11-23.68,78.82-23.13l49.13,1.72  c10.68,9.85,24.1,10,36.3,2.84L720.89,533.4z" />
<path class="cls-9" d="M697.97,478.27l2.3,1.4l-0.57,17.28c1.98-0.99,3.7-1.18,4.93,0.77c1.61,7.93,3.77,15.64,6.47,23.11  c5.82-5.42,12.17,7.5,9.79,12.56c-13.4,7.89-27.31,9.91-40.08-1.7c-42.58,0.22-93.27-10.38-126.23,21.31l-185.56,13.72l283.1,2.27  l-19.07,24.52c-21.19,4.32-41.8,5.26-63.59,5.26l-124.15,0.03l-91.93-2.61c-9.62,5.36-19.54,10.67-30.58,14.18  c-16.68-14.25-43.44-32.02-66.18-18.75c-8.27,4.83-13.59,13.16-22.02,19.01c-31.47-16.45-29.97-25.12-69.85-12.25  c-36.41-41.19-14.89-34.75-69.85-57.89l-48.32,14.4l-26.53-19.88c-6.62-0.74-13.83,3.07-20.06,1.68v-33.98l1.12-2.34l367.48-0.12  l-92.16-19.62c-1.18-1.71-0.39-3.22,0.93-4.77l419.14,0.04L697.97,478.27z" />
<path class="cls-11" d="M676.08,387.87c1.46,3.82-1.25,4.22-4.69,4.65l0.38,2.61c-5.51,4.78-1.18,11.93,2.52,16.68l-0.56,2.97l3.2,0.56  c2.42,2.83,5.26,4.62,8.51,5.36c2.92-0.46,4.95,0.18,6.11,1.94c4.34-2.46,11.67,4.66,13.42,9.05l-8.91,35.64  c6.43-0.78,6.58,9.48,1.91,10.93l-421.72-0.04l115.34,24.38L0,502.73V380.86l207.75,0.17L4.68,416.88l607.17-3.86l-195.67-23.83  L676.08,387.87z" />
<path class="cls-5" d="M414.93,920.83l-1.45,2.49c-8.62,3.17-15.99,9.18-22.09,18.05c-7.21,5.46-16,7-26.35,4.63l-5.42,0.56  c-17.23,7.41-34.65,14.41-52.25,20.99l-67.19,2.81l-28.97,17.36l184.37,0.09c2.73,0.16,2.83,2.11,2.66,4.61  c-0.11,1.6-18.51,24.36-19.87,25.21c-21.59,2.29-43.22,4.24-64.9,5.87l-31.4,29.08l-3.14-0.28l-56.02-15.76l-72.96,32.94  L92.16,990.2L0,962.11v-64.45c13.98-0.37,28.04-0.8,42.19-1.3c0.08-3.35,2.73-3.2,3.52,0l221.34-0.08l-6.49-1.98l-33.05-24.66  l-41.95,4.04c-20.74-20.33-44.06-35.77-74.49-30.64c-6.75,3.32-13.61,5.33-20.58,6.02c-4.46-5.51-8.05-11.77-10.76-18.77l1.03-2.82  l198.81-0.33L414.93,920.83z" />
<path class="cls-16" d="M1200,233.7v109.44l-2.14,3.08l-28.09,7.85c-14,5.2-25.45,14.65-34.33,28.35l-3.66,0.82l-1.1,2.08  c-116.95,1.16-233.99,2.08-351.11,2.76c-0.69,4.31-2.24,5.78-4.64,4.42c-3.3,0.23-9.13-9.44-10.08-12.44  c-2.11-6.7,1.35-9.85,7.38-12.25c18.24-1.24,24.43-16.32,24.94-32.38c-13.51,1.83-24.65,7.01-33.43,15.54  c-6.33,5.96-17.09,1-7.7-4.02l0.75-3.48c6.09-5.04,12.77-8.67,20.06-10.9c31.29-7.83,61.35-22.94,86.35-43.18  c3.39-2.75,6.23-6.53,8.4-10.27c5-11.42,12.37-23.35,22.93-30.56l3.65,0.07l6.24-2.66c98.08-4.86,196.08-9.71,294-14.56L1200,233.7z  " />
<path class="cls-14" d="M656.43,161.83c2.5,2.13-0.08,10.46-3.69,9.37l0.94,2.75c-2.31,8.95-5.38,17.6-9.21,25.96l-3.16,0.51  l-0.83,4.62c2.29,7.96,5.68,15.68,10.16,23.17c-2.97,4.9-1.36,7.93,4.82,9.09c3.78,2.7,10.2,23.66,9.59,26.72  c-0.45,2.24-14.52,3.44-14.81-0.62c-0.95-0.34-1.79-2.59-1.75-3.47c0.03-0.79,3.35,14.89-1.79,14.22  c-6.32-1.23-12.59-11.2-11.59-17.48c-2.46-0.89-3.24-3.53-2.34-7.9l2.15-12.01c-2.67-0.66-4.36-3.37-5.05-8.13l-3.92-9.45  c-0.33,15.63-0.19,31.28,0.4,46.97l-2.27,1.36l-139.74,7.68l138.23,13.06c0.93,0.45,1.6,1.3,2.01,2.54c1.07-0.06,1.07,0.3,0.15,1.03  c0.59,3.29,1.79,6.01,3.6,8.17c1.09,0.22,1.1,0.61,0.1,1.17l0.97,1.17c3.13,0.17,3.07,1.25,0.15,2.34L0,277.73v-36.33l0.95-2.42  l433.96-30.66l64.3-2.19C528.84,206.27,622.97,166.73,656.43,161.83z" />
<path class="cls-1" d="M1200,881.71V1200h-185.17c0.79-5.05,1.18-7.57,1.18-7.57c20.21-34.62,41.18-68.75,62.91-102.38l3.06-2.47  c-1.19-0.43-0.9-0.84,0.87-1.23l-0.9-2.31l105.82-90.17l-118.33,37.98l-2.08-1.79l-1.67-1.83l49.56-90.92l-108.83,45.87l13.97,60.04  l-1.96,1.89l1.9,1.58c-5.16,13.49-10.31,26.99-15.47,40.49l-2.95,1.16c0.42,0.83,0.92,2.16,0.38,2.55  c-17.87,13.18-38.95,26.42-58.87,36.01l-2.08-1.35c7.78-32.11,15.74-64.2,23.86-96.25l2.83-2.53l-0.74-7.16  c5.01-26.96,8.75-54.11,11.22-81.45c0,0,1.06-2.17,3.19-6.52l0.36-3.68c13.28-9.58,27.63-17.75,43.06-24.52l4.88-0.32  c0.19-1.1,0.59-1.17,1.2-0.23l2.07-1.8c27.61,8.88,55.25,17.76,82.9,26.65l4.41,3.88c-0.41-0.84-0.87-2.2-0.32-2.57  c22.46-14.98,48.16-31.67,71.58-44.97C1195.1,881.06,1197.82,880.27,1200,881.71z" />
<path class="cls-13" d="M1200,343.14v249.92l-1.61,2.16c-19.06-5.37-30.46,0.06-46.41,10.02l-2.54-1.51  c-5.83,5.8-11.16,12.09-15.96,18.87c3.32,1.74,1.74,4.26-1.52,4.24c-1.1,9.86-13.38,5.66-18.7,1.07  c-6.57-1.07-12.73-3.24-18.89-6.16c-5.38,1.73-11.13-5.69-14.26-9.96c-13.55-18.5-10.09-39.74-2.98-60.16  c1-7.52,2.65-14.82,4.96-21.88c-3.28-1.29-1.12-6.54,2.17-6.01c1.96-1.48,3.81-0.69,5.55,2.38c4.93-19.03,1.74-39.22-19.22-45.98  l-6.34-6.48l-3.57,0.05c-6.55-4.68-13.58-8.55-21.08-11.61l-2.77-3.91l-3.39,1c-3.56-1.03-19.13-7.29-21.05-9.19  c-0.86-0.85-1-2.2-1.09-3.42c-1.17-1.55-0.97-2.36-0.24-3.75c4.13-7.83,21.54-10.87,29.77-10.53c2.74-6.25,6.31-11.82,10.7-16.73  c11.23-7.64,23.14-13.63,35.74-17.97c12.44-0.59,24.85,0.12,37.25,2.11c1.64-4.91,3.13-9.99,4.49-15.26l2.76-1.22  C1158.7,349.5,1158.92,355.49,1200,343.14z" />
<path class="cls-14" d="M898.64,142.8l2.22-1.54c6.22,7.21,13.67,12.09,22.36,14.64c4.74,2.44,9.53,4.82,14.35,7.15  c0.26,0.13-5.24-2.14-3.52-3.58c-4.21-3.62-8.05-7.6-11.54-11.93l-0.14-3.45c-0.49-3.92,2.12-4.45,7.84-1.57  c1.54-2.57,4.36-1.54,8.46,3.1c13.88-1.61,20.82-2.41,20.82-2.41c73.22,0.46,146.44,2.52,219.63,4.74  c3.48,0.11,6.96,0.55,10.44,1.01c3.49,0.47,6.96,1.1,10.43,1.78v82.97l-301.8,14.95c0.6-4.78,8.59-10.94,12.96-13.47  c3.39-1.97,7.41-3.18,11.2-4.13c0.26-1.03,0.62-0.99,1.08,0.03l1.28-1.17c2.71-5.14,4.13-10.6,4.26-16.4  c-2.44,4.33-5.45,7.95-9.03,10.87c-6.81,3.86-20.04,3.5-9.08-4.61c0.6-2.04,1.79-18.61,1.75-21.74c-0.12-9.99-3.74-17.07-8.49-25.72  l-3.12-10.58c0.37,10.61,0.48,21.15,0.33,31.64l-2.99,0.4c-4.29-2.66-8.51-5.48-12.68-8.48c-0.57,0.76-0.98,0.41-1.22-1.05  c-4.58,1.1-6.88,1.65-6.88,1.65c-3.08-11.87-8.78-20.51-18.59-27.82c-1.11,0.03-1.16-0.29-0.22-0.95  c-8.77-6.04-4.34-15.25,4.7-15.39l3.76-1.75c9.24,0.92,18.52,1.17,27.82,0.75L898.64,142.8z" />
<path class="cls-1" d="M944.53,802.85l1.49-2.11l75.2,13.49c1.32,1.62,0.72,3.23-0.49,4.88l-67.2,11.16l29.98,10.64l0.85,2.78  l2.34,1.37c0.02,28.21,0.02,42.31,0.02,42.31l-2.34,1.72c0.25,0.9,0.47,2.31-0.13,2.58c-14.54,6.66-32.22,13.78-47.32,19.14  c-3.72,2.18-7.44,2.84-11.16,1.98l2.15,4.3c0.13,26.44-1.11,52.48-3.71,78.12c-7.68,23.65-17.62,46.66-29.82,69.02l-3.73,3.1  c2.76,1.47,2.18,2.35-0.88,1.87l-0.57,6.9c-14.58,38.1-25.48,77.43-32.7,117.97l-3.75,5.93h-27.02l11.17-72.44  c-0.44-0.8-0.4-1.35,0.13-1.65c-0.2-0.73,0.11-0.92,0.86-0.62l2.84-5.3c10.26-12.1,20.41-24.32,30.45-36.64l7.27-97.13l2.57-2.9  c-2.15-0.86-2.07-1.91,0.18-2.44c2.36-4.92,2.36-4.92,0,0l-3.72,0.12c-22.36-14.18-38.58-28.94-43.23-56.26l1.49-3.4l-1.66-3.07  l13.14-53.38l-41.69-53.26l0.97-2.55c-0.18-2.31,0.83-2.51,1.97-0.42l14.99-1.43l63.15,3.78c4.98-0.54,9.88-1.52,14.72-2.94  l2.14,2.01c12.39-3.06,24.85-5.98,37.54-7.32c0.38-1.09,0.78-1.08,1.17,0C943.02,801.85,943.86,801.87,944.53,802.85z" />
<path class="cls-12" d="M1200,51.41v60.78l-1.04,2.38c-92.54,3.18-185.15,6.36-277.86,9.54l-5.74-2.15  c-4.07,2.28-13.19-4.22-10.57-9.14l1.25-0.06c-0.04-2.88-1.52-5.66-4.44-8.32l-5.64-5.13c-6.03-3.27-10.5-7.35-13.41-12.22  c-2.61-0.12-5.21-1.53-7.81-4.24c-4.51-6.34-9.88-11.45-16.14-15.32l-0.81-2.84L1200,51.41z" />
<path class="cls-7" d="M792.13,745.4l1.62,2.86c-4.1,9-9.51,17.36-16.22,25.08c6.97,1.24,14.27,1.34,21.9,0.32l3.6,2.13  c0.34-0.59,0.7-1.15,1.16-1.61c1.05-1.07,16.32-0.63,19.21-0.23l2.55,2.11c1.93,1.13,1.93,2.3,1.25,4.16l20.36-0.19l3.11,2.32  c0.34-1.08,1.12-1.97,2.21-2.33l111.5,0.62l40.33,11.2l2.23,2.2l192.23,0.49l0.81,1.17v22.79l-1.09,2.34l-91.57-0.25l-25.87,20.22  l-8.19,2.08c1.17,2.16,0.3,3.13-2.63,2.91c0.13,2.26-0.75,2.3-1.62,0.14c-0.85,0.67-1.71,1.3-2.65,1.77  c-0.93,0.47-1.82,0.9-2.73,0.95c-23.26,1.23-50.37-0.46-73.69-2.51l-5.58-2.47l-40.67-14.16l77.73-12.91l-76.89-13.77  c-0.89-0.82-1.4-0.97-2.34-0.11c-0.35-0.04-0.84-0.11-1.17,0c-4.5,0.86-8.89,1.14-13.19,0.86l-0.65-1.6l-2.72,1.08  c-20.26-1.15-40.51-3.17-60.75-6.04c-18.12,5.64-36.53,9.51-55.22,11.61c-0.64-0.04-1.32,0.41-1.97,0.42l-2.62,1.77  c-6.38-2.4-12.86-4.38-19.43-5.93l-1.76-2.51c-5.15-1.72-9.92-4.86-14.32-9.43l-12.11-8.26l-2.37-4.16l-2.98,0.89  c-5.52-4.78-11.28-9.18-17.27-13.2l-25.53,11.68l-2.53-1.42l-4.91,1.23c-7.24-1.09-38.1-7.59-41.46-11.18  c-0.62-0.66-1.12-1.43-1.59-2.24l3.72-3.41c40.72-13.15,83.13-24.17,126.27-20.16L792.13,745.4z" />
<path class="cls-9" d="M80.77,827.45c3.82,5.88,5.95,14.08,10.57,19.64c9.52-0.9,18.5-8.47,28.39-7.57  c38.83,3.52,41.02,10.22,66.58,32.07l42.33-4.43l38.4,29.11L45.7,896.36l-3.52,0c-13.95,1.2-28.48,1-42.19,0.13v-97.27l43.6-1.56  c9.45-0.34,20,9.03,27.64,14.32C75.25,816.42,77.79,822.87,80.77,827.45z" />
<path class="cls-3" d="M968.03,1026.77l-24.61,100.13l13.58-6.28l84.75-24.06c13.38-4.83,26.79-7.83,40.24-8.98  c-20.05,38.64-48.04,73.18-67.15,112.42h-65.75l-2.45-0.8c-2.48-22.05-4.96-44.11-7.44-66.18l1.99-3.28l-2.49,0.68  c-16.42-19.33-32.84-38.69-49.26-58.06l0.36-3.17l0.88-1.87l4.6-4.36c23.06-12.54,46.15-24.98,69.28-37.33L968.03,1026.77z" />
<path class="cls-15" d="M1200,593.06v147.81l-0.37,1.56c-22.51,0.66-45.17,0.77-67.98,0.33c-4.59-0.32-8.71-1.42-12.37-3.28  c-2.19,0.2-2.29-0.75-0.19-1.61c-1.28-1.47-2.43-2.95-3.44-4.45c-1.7-0.6-1.97-1.41-0.31-2.18c-1.42-9.13,0.48-15.88,5.7-20.24  c-1.12-3.52-1.63-7.17-1.53-10.96c-1.83,0.15-3.52,0-5.07-0.46c-1.03-14.6-1.31-29.23-0.84-43.89c2.84-6.2,6.51-1.9,7.78,3.05  c-0.86-9.63,0.67-18.1,4.61-25.43c4.05-1.29,6.04-3.44,5.96-6.45c0.03-1.42,1.6-2.85,1.52-4.24c4.79-6.81,10.11-13.1,15.96-18.87  c10.5-3.88,21.03-14.33,32.03-12.97L1200,593.06z" />
<polygon class="cls-16" points="499.22,206.13 0,241.41 0,203.91 " />
<path class="cls-10" d="M1200,112.2v38.53c-87.17-1.69-174.63-5.77-261.33-5.12c-7.6-6.72-15.23-13.44-22.89-20.17l-0.42-3.47  L1200,112.2z" />
<path class="cls-3" d="M1200,845.11v36.6l-79.43,49.9l-4.75-3.5c-15.51-26.66-31.01-53.29-46.49-79.91l1.31-2.41  c-1.26-0.84-0.04-1.57,0.77-1.98l1.86-0.94l8.36-2.2l116.99,2.05L1200,845.11z" />
<path class="cls-5" d="M1087.51,764.22l1.69,1.92l-4.36,9.46c11.97,2.75,20.17,0.21,24.61-7.61l2.87-0.55  c-2.59-1.73-1.59-3.12,1.22-3.41l1.08-2.34c27.98-0.03,55.97-0.07,83.97-0.1l1.41,2.34v29.44l-0.21,1.17l-193.27-0.49  c-1.77-0.58-2.98-1.87-3.64-3.84c-6.08-1.09-11.51-2.23-16.4-6.38c-2.87-2.44-8.83-9.6-5.89-12.83c-4.81,0.23-2.55-8.13,1.63-7.18  l1.42-2.34c34.15,0.13,68.31,0.27,102.46,0.4L1087.51,764.22z" />
<path class="cls-6" d="M981.7,931.64c-4.18,31.73-6.06,64.16-13.67,95.14c-21.52,8.06-54.62,32.38-77.36,40.55  c42.66-90.53,30.5-58.99,35.11-154.54l4.89-0.04c16.61,3.77,32.98,8.23,49.11,13.38C982.79,927.82,984.31,928.76,981.7,931.64z" />
<path class="cls-6" d="M941.18,1129.74l-0.96,3.77c-26.89,21.5-53.8,43.02-80.73,64.56l-6.18,1.94h-0.54  c10.13-43.93,17.96-90.35,37.02-130.81L941.18,1129.74z" />
<path class="cls-4" d="M861.53,751.21c4.37,0.49,4.48,4.74,3.45,8.39l1.95,1.81l86.4,0.41l1.39,2.35c1.24,1.23,1.18,2.8-0.15,4.73  l22.22,0.04l3.81,2.05c4.01,7.99,7.36,13.69,17.42,15.8l6.27,1.31c1.35,0.28,1.18,2.93,2.56,5.32l193.15-0.06v2.34l-193.86-1.04  l-42-11.71l-113.45-0.6l-1.89-2.33c2.7-3.51,0.56-6.9-6.41-10.18c-4.06-1.61-6.74-3.96-8.03-7.06c-1.69-5.5,0.79-14.22,5.55-17.55  c-2.37-3.99-0.08-12.63,3.76-15.16c1.45-14.98,1.06-30.15-1.94-44.95c7.23-4.86,9.26,6.19,10.15,11.75  c0.15,12.82,0.87,25.52,2.16,38.09c0.9,2.16,2.46,3.87,4.7,5.14L861.53,751.21z" />
<polygon class="cls-1" points="949.07,1200 853.31,1200 941.18,1129.74 " />
<path class="cls-4" d="M1200,818.49v26.61l-126.73-2.22c11.84-5.96,21.77-16.16,33.28-24.42L1200,818.49z" />
<path class="cls-7" d="M1200,745.02v18.91l-86.45,0.1c-2.87,0.78-3.49-3.46-3.29-5.77c0.53-6.07,2.49-8.29,8.71-7.01  c-0.71-2.66-0.19-4.56,1.56-5.72l1.08-2.35c51.31-0.15,76.96-0.23,76.96-0.23L1200,745.02z" />
<path class="cls-16" d="M1200,740.87v4.14l-79.47,0.5c-3.76,0.58-5.6-5.68-1.25-6.04c4.51-1.98,8.31,0.91,12.47,0.94L1200,740.87z" />
<path class="cls-4" d="M42.19,896.35c-13.55,3.08-28.07,0.41-42.19,1.3v-1.17L42.19,896.35z" />
<path class="cls-9" d="M705.5,858.73c2.71,3.43,4.06,5.15,4.06,5.15c4.88,13.04,8.33,26.36,10.36,39.95  c21.87,16.57,43.92,33.05,66.18,49.45l7.13,39.19l-2.02,2.07l-73.33,39.28l-23.11,34.41c-48.62-27.15-50.44-27.52-105.39-24.83  c-35.71,24.75-27.32,24.34-52.31,57.33l-48.49-31.94l-133.51,53.61l-49.12-60.87c-9.23-3.97-18.76-4.66-27.02-9.26l33.53-31.05  l64.75-5.49l19.81-25.59l-194.37-0.09l36.56-22l67.64-2.78c17.57-5.85,33.48-13.73,50.71-20.51c8.4-3.31,19.48,2.14,27.58-1.89  c10.68-5.32,14.58-21.23,29.79-22.05c6.84-0.37,14.18-4.81,21.4-3.44c11.82,4.02,21.26,13.11,32.55,18.7l16.18-17.44l36.47-6.91  c6.84,3.9,11.72,8.85,18.17,14.35l30.79-29.68l40.69,7.14l17.61-26.22c8.43-12.54,25.54-16.55,38.58-23.25  C680.97,856.98,692.9,858.23,705.5,858.73z" />
<path class="cls-3" d="M657.63,766.31c15.29,5.7,31.94,8.22,47.96,12.18l2.55,0.42c5.26,19.05,10.52,38.12,15.78,57.18l-1.88,1.98  l2.25,5.27c-0.48,18.66-0.74,37.25-0.77,55.78l10.36-12.12l2.85,0.28c1.66,0.03,2.85,1.08,3.55,3.14  c4.18,6.06,44.71,35.81,47.36,34.53c1.57-0.76,3.84-29.9,3.47-34.67l2.06-3.1l-3.05-5.66c-3.21-25.82-6.4-51.64-9.58-77.44  l2.15-1.69c8.31,0.41,15.71,4.92,23.82,6.67l43.33,55.02l-14.09,57.25l-2.31,1.15l-33.68-26.97l37.91,106.62l-15.53,52.31  c3.56,20.57,8.92,40.75,14.47,60.85c0.69,3.51,0.86,7.07,0.43,10.61c0.12,0.47-0.06,1.16-0.13,1.65l-48.38-68.45  c0.12-22.28,6.27-43.74,2.66-64.56l-6.94-39.99l-64.5-47.37c-3.95-16.5-9.48-32.96-14.27-48.45c-3.04-9.83-7.41-17.26-12.84-26.62  l-3.16-1.06c-1.09-0.93-14.47-23.3-14.53-24.73c-0.04-1.04,0.5-1.92,1.16-2.66l-3.57-1.46c-6.77-10.3-12.27-21.18-16.49-32.65  L657.63,766.31z" />
<path class="cls-4" d="M857.81,64.69c10.97,3.83,15.85,15.73,24.75,22.4c2.5,2.27,2.12,2.89-1.2,1.99  c-2.1,3.13-11.61-2.56-10.74-6.04c-2.63,0.36-3.74-0.53-3.33-2.67l-2.82-0.81c-5.3-6.95-14.65-8.91-22.96-9.39l-1.38-2.36  l-14.95,2.71c-2.86-0.81-4.89-3.01-6.1-6.6c-7.39-5.88-8.61-11.24-3.66-16.09c-2.92-0.36-5.95-0.5-9.09-0.42l-1.14-2.82  C824.19,28.52,837.17,57.48,857.81,64.69z" />
<path class="cls-8" d="M800.48,46.99c1.97,1.33,4.11,2.4,6.44,3.2c2.42,2.14,3.76,3.43,0.36,5.09c-7.86,2.12-17.28,2.99-25.36,2.16  C783.82,49.38,793.21,49.32,800.48,46.99z" />
<path class="cls-6" d="M807.28,55.29c2.32,4.23-3.03,6.08-6.58,3.97c-5.91-1.04-14.36,2.28-18.78-1.81  C790.38,56.02,798.78,53.52,807.28,55.29z" />
<path class="cls-15" d="M792.13,745.4c-60.08-4.5-78.8,6.29-134.5,20.91c2.79,11.95,11.35,25.04,18.5,37.35l-0.82,2.34  c0,0-62.8,0.09-188.4,0.26l-7.77-2.33l-260.11-0.33l101.84-25.56L347,758.51c19.49-14.57,42.06,2.95,59.6,9.54l33-28.78  c14.05-12.25,29.24-8.13,44.97-1.74c12.57,5.11,27.99,4.22,41.59,5.97c34.98-30.95,20.08-19.39,66.89-30.04  c0.67-2.64,2.87-3.56,6.6-2.76c12.37,3.56,24.41,8.69,36.11,15.38l17.86-26.38c16.13-16.54,44.86-8.77,64.59-3.18  c12.35-14.16,25.75-26.96,40.19-38.41l4.41,0.39l35.63-10.58c-0.64-4.39-1.62-8.11,1.15-9.25l2.45,2.68  c-1.05,13.16-1.22,26.29-0.5,39.38c2.91,11.82,2.76,23.93-0.45,36.34C802.21,727.37,801.1,739.46,792.13,745.4z" />
<path class="cls-8" d="M762.81,658.5c-13,5.39-31.65,29.18-43.93,40.74c-15.58-5.66-53.16-13.45-63.88,2.57l-18.14,27.1  c-15.05-4.51-29.08-18.8-43.81-15.44c-18.59-9.26-38.43-21.75-58.83-23.15l-11.63-0.8c-12.55-5.23-22.85-17.99-36.47-19.04  l-39.56-3.04c-12.89-0.99-22.41-16.15-34.95-20.67c-14.99-0.35-30.64,3.67-46.34,7.88c-11.88-8.4-26.53-11.67-38.45-23.49  l375.07-0.33L762.81,658.5z" />
<path class="cls-8" d="M676.13,803.66l16.52,28.46l-154.92,1.21c-19.59-10.69-41.03-17.13-58.59-29.39L676.13,803.66z" />
<path class="cls-14" d="M836.51,144.47c3.63-0.49,3.86,1.13,2.4,4.16c4.64,3.07,7.74,7.85,9.3,14.33c2.12,0.17,4.13,1.77,6.02,4.79  c1.59-1.72,2.26-1,1.08,1.08l2.01,1.85c6.41,17.41-0.13,19.09-13.55,7.57c-1.17,2.11-3.31,0-2.22-1.99  c-1.71-0.2-1.88,0.47-1.11,1.87c1.04,0.21,1.04,0.57,0.05,1.07c0.24,2.01,0.98,3.62,2.21,4.83c2.94-1.53,3.51-0.18,1.1,2.11  c1.22,5.24,3.39,10.09,6.5,14.56c12.69,9.4,16.88,17.73,17.12,33.47c0.23,14.58-4.69,24.49-20.93,20.92  c-0.44-3.31-1.3-6.36-2.58-9.15c-2.35-0.06-2.35-1.18-0.17-2.17c0.23-5.22,0.06-10.55-2.27-15.35c-3.11,7.79-4.82,14.62-3.79,23.17  l-2.32,1.54c0.06,0.91-0.1,2.34-0.68,2.39c-29.35,2.52-60.03,3.57-89.51,4.51c-19.29,2.1-40.04,4.22-59.25,3.29l-1.56-16.03  c-1.46-0.57,0.04-2.54,1.26-3.45c-1.61-1.61-1.01-2.29,1.14-1.4c5.17-14.82,22.3-16.82,35.88-17.94c4.77-2.93,9.19-6.37,13.25-10.33  l-1.2-1.68l-0.37-2.98c6.77-5.76,12.6-12.3,17.49-19.6c-16.2,13.95-34.27,28.33-55.95,31.52c-3.13-2.3,0.21-10.51,1.86-13.85  c1.45-4.76,3.66-6.75,6.63-5.98c2.37-4.15,6.14-7.63,11.31-10.44c7.61-6.67,5.8-6.66-5.45,0.03l-2.57-1.28l-1.29-1.03  c2.7-6.36,5.53-12.67,8.49-18.92l-1.59-1.33c-6.07,10.58-13.04,20.49-20.89,29.73c-3.6,10.26-8.9,18.82-15.91,25.66  c-4.92,3.17-8.47,3.23-10.67,0.19c-3.05,0.21-6.07-4.21-7.76-6.99c-4.55-7.51-6.76-29.41-2.59-36.9c0.57-1.02,1.78-1.52,2.86-1.95  c-2.16-2.76,1.08-18.16,2.74-20.28c0.63-0.8,1.44-1.14,2.46-1.08c18.53-4.11,37.09-10.41,54.74-17.42l3.33-1.46  c25.2-0.59,50.92-1.14,76.22,0.12c10.9,0.54,21.9,1.17,32.68,2.92c1.06,0.17,2.06,0.69,3.09,1.26  C834.61,142.97,835.57,143.7,836.51,144.47z" />
<path class="cls-10" d="M842.59,143.3c-1.03,3.4-4.4,4.88-6.08,1.17c-38.03-6.62-78.86-3.54-118.25-4.92l-198.21-5.91l318.12-12.91  c5.91-2.06,13.16,7.19,11.9,13.67C849.45,137.59,846.01,144.7,842.59,143.3z" />
<path class="cls-4" d="M825.11,106.76c-2.7-2.58-4.04-6.05-5.18-9.62c-3.63-3.79-3.81-9.33-3.45-14.29  c-6.15,0.31-9.38-12.32-8.38-16.75c1.17-5.16,11.71-4.24,12.08,2.44c2.26-0.33,4.39,0.59,5.99,1.9c3.16,2.59,4.85,30.6,2.1,35.79  C827.86,107,826.23,106.87,825.11,106.76z" />
<path class="cls-8" d="M663.51,156.97l-5.21,21.36c-3.5,1.8-6.74-3.8-5.56-7.13c1.5-2.79,1.91-6.36,3.69-9.37l7.73-13.05  C665.01,152.08,664.09,154.61,663.51,156.97z" />
<path class="cls-2" d="M805.2,44.59c4.58,2.16,9.12-1.84,15.63,2.8c-2.89,0.24-8.06,5.77-6.01,8.33c3.27,4.09,8.26,7.27,8.53,12.73  c5.15-0.85,11.52-2.41,16.79-0.65c1.15,2.47-0.49,3.75-4.92,3.83l-3.18,1.18c0.26,6.7,0.57,10.44,4.64,16.22  c4.72,6.69,10.97,12.38,18.33,15.93l1.45,2.74c0.7-1.58,1.82-2.26,3.23-1.3c6.03,5.22,12.43,8.89,19.21,11l4.75-1.46  c2.44,0.43,18.29,7.94,20.01,9.61c1.16,1.13,1.7,1.87,1.1,3.77l-1.18,2.34c10.04,9.43,20.2,18.69,30.48,27.8  c1.32,1.31,4.23,2.18,4.19,4.61l-27.05-10.28c-4.76-2.72-7.67-9.1-12.55-10.99l-3.89-1.28c-5.72-5.73-13.57-11.29-22.05-9.42  c-1.94,5.57-5.02,8.79-9.23,9.64c-1.94,2.12-5.15,3.67-7.1,6.74c-1.99,3.14,2.3,4.75,2.4,8.65c-1.68,3.12-8.19-0.52-7.13-3.79  c-4.22,3.98-17.33-6.73-9.06-10.03c2.51-4.53,6.21-7.63,5.14-12.38c-1.34-5.91-6.53-7.26-9.55-10.18  c-3.55-5.27-8.33-9.45-13.06-13.98c6.61-7.28-0.95-35.62-1.2-35.92c-0.85-1.04-3.82,1.11-5.01-0.08c-1.61-1.61-1.59-5.01-3.43-5.54  c-2.4-0.69-4.53,0.46-5.28,1.86c-0.92,1.72-0.65,8.68,2.77,12.37c4.05,4.37,1.93-4.75,5.91-6.5c0.65,8.59-1.41,16.49,1.05,24.2  c-7.26-2.96-4.53-13.67-10.14-16.95c-4.55-2.84,0.29-10-3.82-14.41c-1.54-2.29-2.33-5.5-5.28-6.52c2.03-0.79,5.66-1.98,6.58-3.97  c0.67-5.38-9.42-2.99-6.81-8.3C801.7,46.26,804.13,45.5,805.2,44.59z" />
<path class="cls-4" d="M718.59,338.68c4.2,1.84,1.62,4.71-1.02,7.22c-21.88,13.82,5.99,8.61,14.52,4c4.5-3.03,22.44,9.65,23.27,11.91  c1.04,2.81-10.22,23.09-12.55,26.65c-13.36,0.9-28.15,4.08-38.18,12.32c8.35,9.15,0.46,15.7-9.63,14.26  c-1.16-0.16-13.62-3.19-14.14-3.71c-3.97-3.94,6.43-10.52,10.29-10.49c0.8-1.54,2.49-2.9,5.06-4.09c-4.96-4.04-5.81-6.91-2.56-8.61  c9.6-7.7,9.6-7.7,0,0c-1.41,3.54-14.46,3.49-13.99-1.25c5.73-5.83,9.31-9.15,9.45-16.7c-2.09-1.42-3.02-3.98-2.78-7.67  c-0.75-5.03-4.41-8.33-10.99-9.88c-6.09-3.66-19.4-12.54-5.08-13.45c9.37-0.59,21.84,7.63,26.44,15.71l2.71-2.59  c-1.82-2.59-1.67-4.32,0.43-5.18c0.06-1.26,1.04-2.54,0.9-3.87c-0.22-0.88-0.49-2.16,0.09-2.55c2.55-1.74,12.89-5.98,14.98-3.34  C717.62,335.61,718.76,336.15,718.59,338.68z" />
<path class="cls-6" d="M660.67,314.19l3.36,0.03c10.21,9.35,24.51,10.72,37.73,11.58l2.3,2.5c2.7-1.07,5.47,0.45,8.32,4.58  c3.02-1.68,5.55,1.91,3.42,4.5l-15.07,5.89c-19-23.76-34.02,2.92-71.18-38.58l-0.15-2.34l-0.97-1.17c-0.11-0.37,0.05-0.82-0.1-1.17  c-1.81-2.1-3.01-4.82-3.6-8.17c-0.01-0.34-0.09-0.7-0.15-1.03c-5.06-1.57-7.54-16.68,0.52-13.36c5.09,8.06,10.47,15.92,16.15,23.58  C647.72,305.45,654.19,309.84,660.67,314.19z" />
<path class="cls-2" d="M699.82,347.13c-0.05,1.88,2.17,3.65,1.93,5.23c-0.34,2.34-2.43,3.37-5.66,5.98  c-7.34-12.14-16.88-17.61-30.88-16.79c5.52,7.34,13.08,9.88,20.56,13.33c3.54,5.71,3.4,11.03,3.32,15.3  c-20.32-7-22.55-14.53-32.77-35.43C672.28,335.94,686.33,340.55,699.82,347.13z" />
<path class="cls-5" d="M693.65,388.14c-0.88,3.73,4.7,6.19,4.81,8.31c0.19,3.47-4.5,4.68-7.31,4.39c-1.39-1.99-2.97-3.72-4.76-5.19  l-13.72-0.54l-1.28-2.59c1.77-1.15,3.15-3.24,4.69-4.65l3.58-0.98C684.07,388.8,688.99,387.53,693.65,388.14z" />
<path class="cls-2" d="M774.94,392.51c0.84-0.33,2.1-0.78,2.54-0.26c1.53,1.8,4.03,6.94,5.19,9.34c2.52,2.97,3,5.44,1.45,7.43  l1.51,6.62c-3.72,18.28-6.37,34.97,6.37,50.63l0.88-38.26l2.38-1.34c0.52-0.75,1.36-1.82,1.99-1.6c1.64,0.55,13.01,6.3,13.34,6.98  c0.45,0.92,0.63,1.82,0.36,2.83l2.02,2.55c1.41,14.42,4.21,28.84,8.4,43.27l9.34-39.3c-1.33-1.83-1.26-3.37,0.21-4.6  c0.07-3.56,2.7-3.73,4.56-0.68c4.8,2.14,9.34,5.37,13.6,9.69c11.29,6.7,21.59,14.42,30.91,23.15l-0.59,2.85l-11.43,14.94l46.8,48.72  l63.38-27.85l-47.69-37.88l-27.46-11.79c-0.83-4.37,2.63-4.18,6.05-3.49c48.81,9.78,96.73,22.28,143.75,37.5l4.24,3.78  c2-2.8,6.07,0.52,4.56,3.51l2.84,2.14c4.24,9.52,8.98,18.8,14.23,27.85c0,0,1.14,0.17,3.42,0.51c-0.29,11.37-2.11,23.04-6.13,34.76  c-7.22,21.06-0.77,45.76,18.41,57.24c4.49,1.65,8.66,4.42,12.52,8.31l0.25,2.5c0.67-0.82,1.09-0.66,1.26,0.42  c2.72,1.66,3.36,5.47,0.06,6.79c3.15,1.53,3.18,4.22,0.13,5.92l2.42,0.91c1.58,16.85,2.6,33.81,3.07,50.86l1.03,1.12  c1.1,10.91,1.17,21.8,0.23,32.66c0.06,0.73,0.19,1.46,0.31,2.18c1.99,1.14,1.43,1.91-0.84,1.2l-2.48,0.64l-14.17-17.97l-2.27-0.03  l-2.77-2.18l-4.02-31.71c-5.19-23.31-23.56-38.23-42.24-52.06l-1.4-4.08c-3.5,1.97-10.38-6-9.61-9.44l2.32-1.41l33.48,18.22  c-3.82-26.26-44.58-52.28-68.28-55.46c-0.91-0.12-1.64,0.07-1.62,0.14c1.11,3.61,5.94,9.72,8.53,12.93  c3.22,4.01,6.82,7.65,10.66,11.06l1.14,4.07c2.28,4.98,4.17,10.25,5.66,15.82l2.82,4.9c2.42,2.18,3.41,4.53,2.96,7.03l2.68,0.11  c3.26,5.94,6.13,12.07,8.59,18.38c-16.66,28.23-31.42,57.32-44.3,87.28l-3.93,4.45l1.89,1.92c-1.42,11.3-5.42,14.24-11.98,8.82  c-0.24,4.33-1.65,6.91-4.24,7.73c-0.86,2.09-2.82,4.8-1.63,7.18c-9.77,0.97-19.49,0.25-29.95,0.22c1.56-2.63,2.36-5.45,4.08-7.03  l-0.38-2.93l9.35-14.33l4.27-1.55c1.01-4.65,3.5-9.06,7.47-13.22c10.59-19.14,20.72-38.55,30.38-58.2  c-2.02-7.52-2.84-15.4-2.48-23.63l-2.96-0.51c-14.69-15.35-27.44-32.23-38.24-50.61c-4.4,3.12-9.05,5.35-13.92,6.69l-0.4,1.32  c-23.47-0.05-46.78-0.09-69.92-0.1c-1.67,2.95-3.28,6.06-4.84,9.33c0.87,0.29,2.13,0.81,2.1,1.47c-0.18,3.23-1.92,11.88-2.99,14.94  l-2.62,1.16c0.07,5.85-0.29,11.7-1.1,17.56c-6.44,29.24-12.12,58.68-5.55,89.26l-1.59,4.57c3.56,0.16,3.12,4.48,0.25,5.83  c-2.84-2.86-1.01-7.49-5.48-10.85c-1.23,1.52,0.23,3.05-1.61,3.89c1.6-3.86-2.62-6.44-2.98-9.88c-3.3-10.05,2.66-49.51-8.74-48.78  c3,15.35,3.11,30.34,0.92,44.5l-2.2-4.41c0.59-18.63-1.04-37.41-7.02-55.16l1.99-17.52l2.53-1.37c-3.21-0.76-2.36-3.38,0.09-4.63  c-0.11-1.04,0.28-1.07,1.08-0.23l2.09-0.72c6.55-20.69,12.65-41.29,18.31-61.82l-23.19,6l1.05,13.53l-1.94,3.27l-1.97,2.19  l-3.93,26.14l-1.29,0.53c-0.45,3.03-1.27,5.92-2.47,8.65c2.23,1.87,2.06,2.7-0.84,3.36l2.12,3.2c-6.9,26.82-10.42,53.93-10.54,81.34  c1.29,4.98,1.06,9.24-0.69,12.8l2.53,1.2c0.06,8.33-0.16,16.85-10.1,10.38c0.5,4.68-0.51,7.17-3.04,7.46  c2.1,2.93,0.21,10.18-3.2,11.51c-9.8,0.57-19.59,1.43-30.13,0.39c6.94-11.61,16.37-19.13,19.23-30.79  c1.6-6.51,8.41-12.07,6.84-21.03c-1.91-10.86,4.96-25.36,1.82-36.29c-5.05-17.56-0.21-32.4-1.19-49.41  c-0.76-13.23-4.78-28.34-9.86-41.17c-12.75-17.92-26.75-15.97-32.65-40.99l-23.02-16.78l-3.41,7.17l-9.75-13.5  c-2.51-3.47-2.67-9.5-7.03-12.46c-0.68,0.99-2.67,4.23-3.71,3.33c-4.94-8.37-5.07-17.65-7.78-26.51l-5.19,4.37l0.78-23.86l0.75-6.19  c0.11-0.94,0.64-2.97-1.91-2.29c-0.98,0.26-2.18,1.99-4.29,1.92l10.3-40.21c-3.17-4.14-7.85-6.58-11.27-8.84l-0.8-2.43  c5.23-3.01-2.14-3.93-5.49-4.19c-4.48,0.85-8.33,0.44-11.54-1.24c-4.87-5.49-11.58-16.27-2.34-22.26c4.41,0.96,9.11-0.07,13.88,0.49  c4.47,0.52,7.07,4.16,5.88,7.83c-1.69,3.79-6.02,4.49-9.79,8.4c7.77,3.43,17.27,5.18,24.26,1.17c1.51-3.5-2.61-7.6-4.92-11.02  c13.09-7.7,26.32-13.06,41.13-12.8l11.74-24.04l-15.68-10.22c-6.05-3.94-28.18,14.16-31.15-0.5c2.43-5.71,12.9-6.66,11.83-13.16  l2.29-1.44c4.61,1.51,9.39,1.16,14.33-1.08l2.05,1.82l3-0.1l6.48,5.21c3.26,1.2,6.37,2.49,9.32,3.87c-0.43,1.3-1.88,3-1.42,4.47  c7.88,0.94,10.44-6.56,16.01-9.65c9.03-5.01,19.57-6.38,29.94-9.85c-5.75,51.73-29.77,28.06-34.69,45.35  C768.51,381.5,772.17,387.53,774.94,392.51z" />
<path class="cls-4" d="M691.55,422.65c-10.39,2.21-13.68-3.19-17.82-7.86c4.28-1.05,21.13-3.17,21.3,4.01  C695.06,420.33,692.83,421.33,691.55,422.65z" />
<path class="cls-4" d="M267.04,896.27L45.7,896.36L267.04,896.27z" />
<path class="cls-11" d="M1131.78,383.24c-1.66,5.93-2.92,13.16-6.35,18.4c-44.22-2.51-31.81-6.96-69.82,13.96  c-7.21,3.97-9.27,12.91-13.42,18.97c-12.26,0.2-24.89,2-30.89,12.03l-0.69,2.38c-37.45,2.03-74.66,4.02-111.64,5.95L848,437.63  l-0.56-2.67c-1.52,1.61-4.01,1.54-6.03,0.88c-1.49,3.41-3.4,2.13-5.94,0.29c-1.48-0.04-3.19,0.4-4.56,0.68  c-1.81,2.6-8.96,2.68-10.67-0.04c-1.31,1.66-4.09,1.55-4.7-0.77c-1.93,3.1-4.3,2.61-4.6-1.11l-15.7-8.21  c-6.14-2.53-10.5-11.01-11.13-17.65l-9.17-16.52c1.98-1.24,1.6-3.75,2.37-6.75L1131.78,383.24z" />
<path class="cls-4" d="M922.36,231.05c-9.29,4.49-16.38,11.44-24.16,17.6c-31.41,24.84-12.91,30.36-45.09,51.22  c-22.04,14.29-42.93,27.21-68.97,32.61c-11.19,2.32-19.51,8.05-28.09,14.48c-5.86,2.8-15.18-4.32-18.81-8.98c0.41-2,0.61-3,0.61-3  c-2.02-2.35-2.64-4.65-1.85-6.9c-1.28-1.13-1.35-1.92-0.23-2.37c1.32-2.21,0.96-6.41-0.74-8.36c-3.45,0.3-3.34-3.59-0.1-4.47  l0.56-2.92c-0.65-4.35-0.56-13.46,4.62-7.64c2.98,0.32,4.06,3.94,1.71,5.82c2.12,2.44,5.02,9.28,2.4,11.86l12.45,12.65l-0.82,2.65  l1.32-1.25c-0.33-1.06,0.03-1.43,1.09-1.09l11.58-10.4c-1.46-1.72-0.72-2.39,1.31-1.29l1.2-1.34c-1.73-1.58-1.04-2.29,1.08-1.11  l3.62-3.56c-0.34-1.11,0.04-1.46,1.13-1.05l4.63-3.67c-2.02,0.55-2.04,0.07-0.04-1.42c0.26-1.05,0.68-1.07,1.24-0.11l2.15-1.87  c1.11-4.7,6.18-9.35,5.09-2.55c2.35,2.81,1.26,6.88-2.41,7.57c-0.03,2.37-0.96,5.14-3.73,5.28c0.77,2.67-0.66,5.51-4.3,8.52  c8.1-3.5,16.28-6.65,24.54-9.45c1.12-2.91,4.67-4.16,6.73-1.46c1.65-1.53,3.98-2.69,7-3.46c6.99-6.81,11.59-15.34,13.8-25.58  l2.82-1.43c0.73-2.51,1.42-2.8,2.05-0.88c4.56-1.12,4.05,1.97,3.28,5.65c1.6,0.9,1.87,2.38,0.8,4.45c2.8,0.14,13.73-4.84,15.32-7.33  c14.24-22.29,26.89-45.53,39.18-69.05c1.79-3.18,4.38-5.81,6.96-8.36c-0.31-4.96,4.08-8.02,6.43-2.22l-9.41,26.15  c7.32-2.34,14.33-3.51,21.04-3.5L922.36,231.05z" />
<path class="cls-16" d="M627.11,258.03c2.81,1.67,3.58,5.02,2.3,10.06c1.44,0.52,2.99,1.12,3.97,2.35c3.5,4.38,9.51,13.13,12.26,17.97  l0.53,4.56c7.34,3.55,13.82,13.1,14.5,21.22c-8.61-2.89-18.94-7.36-24.23-15.35l-13.88-20.98c-1.16,4.27,1.26,8.53,2.01,12.94  l-172.37-16.18l172.56-9.49c1.75-16.13-2.55-31.46,1.18-45.94C631.72,230.76,629.48,245.54,627.11,258.03z" />
<path class="cls-7" d="M650.23,263.4c3.18-0.27,6.59,14.12,6.19,15.41c-0.32,1.01-1.28,1.65-2.17,2.18c2.35,2.38,5.94,6.07,2.38,8.62  c3.14,2.47,6.07,5.41,8.78,8.84c4.16,2.05,6.58,4.52,7.25,7.41l2.64-1.2c7.37,5.9,15.08,11.28,23.12,16.14  c3.63-4.45,9.3,4.56,5.63,7.51c-15.96-1.05-32.13-2.19-43.38-14.11c-4.43-7.13-9.31-14.43-14.5-21.22  c-0.9-5.75-1.51-11.59-1.85-17.52l2.37-1.31c0.31-4.99,2.15-10.02,1.56-15.36C649.25,260.16,649.93,261.46,650.23,263.4z" />
<path class="cls-7" d="M658.3,178.33c-4.11,16.87-4.54,32.44,7.49,45.84c2.31,3,0.46,4.67-2.3,2.09c-0.71,0.57-1.59,1.13-2.42,0.86  c-2.6-0.85-18.81-19.98-19.97-24.29c-0.66-0.16-0.59-0.97,0.22-2.42c6.23-8.51,6.44-19.97,11.43-29.21L658.3,178.33z" />
<path class="cls-15" d="M641.1,202.83c5.74,11.47,12.09,22.58,19.05,33.33l-0.02,3.93l2.87,4.13c3.86,12.07,6.88,24.29,9.08,36.66  c0.7,4.03-0.31,6.54-3.03,7.5c-3.73,2.71-12.97-3.04-14.81-7.39c-0.22-6.09-3.09-11.62-4.01-17.6c4.25-0.3,8.04,0.85,13.36-0.32  c-3.34-38.41-23.6-16.65-14.41-36c-4.28-11.33-14.73-17.3-7.88-26.67C641.42,201.18,640.92,202.08,641.1,202.83z" />
<path class="cls-3" d="M646.69,274.15c-0.38,6.2,2.77,13.1-0.53,18.82c-6-7.84-12.08-15.99-16.76-24.88  c-0.82-4.09,1.05-11.68,5.69-11.42C638.22,262.87,642.21,268.93,646.69,274.15z" />
<path class="cls-8" d="M634.92,236.76c-0.7,7.09-2.38,13.93-5.03,20.5l-2.78,0.77c-0.14-12.99,0.24-25.96-1.16-38.84  C630.96,221.64,632.84,230.33,634.92,236.76z" />
<path class="cls-7" d="M635.1,256.67l-5.69,11.42c-1.92-3.66-2.25-5.16-2.3-10.06l7.81-21.27L635.1,256.67z" />
<path class="cls-16" d="M628.32,300c-3.88,0-3.49-5.08-3.6-8.17C627.18,293.73,627.13,297.25,628.32,300z" />
<path class="cls-4" d="M1082.85,1086.35c-14.98,2.91-30.43,4.07-46.35,3.48l-33.12,0.81l-1.47-2.31l16.52-43.23l5.25-3.71l37.21-11.7  c0,0,2.15,0.12,6.46,0.36l130.95-42.03L1082.85,1086.35z" />
<path class="cls-3" d="M1067.35,1030.05c-16.24,5.21-32.3,11.2-48.93,15.05l-14.95-63.24l117.16-49.38L1067.35,1030.05z" />
<path class="cls-3" d="M1069.02,845.94l1.35,2.2c-24.3,36.58-36.45,54.87-36.45,54.87l-2.73-0.13c-0.34,0.16-0.89,0.02-1.2,0.23  l-4.46,1.01c-13.41-4.04-26.81-8.14-40.2-12.29l-0.95-2.74l-0.02-45.4C1012.57,844.09,1041.55,848.28,1069.02,845.94z" />
<polygon class="cls-6" points="1070.64,845.8 1120.57,931.61 1031.2,902.88 1069.02,845.94 " />
<path class="cls-8" d="M984.39,889.08l45.61,14.03c-15.58,10.54-35.88,15.22-48.3,28.53c1-7.62-49.8-12.9-55.92-18.85L984.39,889.08z  " />
<path class="cls-6" d="M1082.85,1086.35c-0.3,0.25-0.69,0.88-0.87,1.23l-138.56,39.32l58.49-38.56L1082.85,1086.35z" />
<path class="cls-4" d="M1011.32,446.59c7.78,5.1,17.1,7.48,25.54,11.6l2.9,3.18c5.43,10.79,11.62,21.27,18.57,31.42l-1.28,2.94  l-57.93-18.13l-95.8-22.08l28.39,12.22l49.93,39.62l13.87,66.47c-19.66-11.01-38.96-12.08-61.44-15.04  c28.57-20.62,29.77-14.22,46.72-49.54l-66.67,29.05l-49.03-51.21l19.21,89.51l-42.29-60.64l36.23-46.45  c-14.23-13.06-32.24-19.67-42.74-33.39c1.9,0.05,4.04-0.99,5.94-0.29c2.36,0.44,3.99,0.69,6.03-0.88l51.81,17.67L1011.32,446.59z" />
<path class="cls-16" d="M1131.96,626.85c3.06,4.59-4.4,6.62-5.93,10.26c-3.46,8.2-0.73,17.71-3.18,26.49c-5-0.8-2.58-6.35-6.89-9.59  l-0.5,44.18c9.68-2.88,5.22,5.47,7.18,10.33c3.26,8.09-6.22-0.69-7.31,22.74l-6.75-85.55c2.57-1.84,2.53-3.81-0.13-5.92  c0.13-2.22-0.94-4.55-0.06-6.79c5.97-3.72,1.96-3.07-1.26-0.42c-5.71-1.28-8.32-8.14-12.77-10.81  C1104.29,619.19,1128.75,638.54,1131.96,626.85z" />
<path class="cls-3" d="M1064.27,473.67c7.61,7.55,14,16.28,19.16,26.18c2.32,2.44,2.75,4.59,1.29,6.48c-0.38,0.83-1,2.02-1.68,1.94  c-1.53-0.19-17.87-5.11-18.96-5.8l-2.47-3.21l-4.56-3.51c-5.36-13.5-19.21-24.5-20.19-37.55  C1046.44,462.88,1056.35,466.55,1064.27,473.67z" />
<path class="cls-2" d="M1084.27,523.74c-3.56,0.95-2.33-15.09-1.94-15.87c0.42-0.84,1.46-1.23,2.38-1.55l-20.44-32.66  c5.79,5.2,15.55,6.12,20.95,12.58c14.09,16.88,7.91,27.18,6.25,46.24C1087.37,529.77,1087.67,525.39,1084.27,523.74z" />
<path class="cls-4" d="M1084.71,506.32l-0.44,17.42l-2.17,6.01c-2.65,0.82-0.85,3.43-2.81,6.24c-5.72-13.1-14.28-24.01-17.68-36.74  L1084.71,506.32z" />
<path class="cls-16" d="M1149.44,603.73c-5.42,6.4-7.97,15.57-15.96,18.87C1133.51,623.1,1138.08,607.93,1149.44,603.73z" />
<path class="cls-6" d="M884.45,184.24c0.42,0.33,0.78,0.75,1.22,1.05c8.93,4.19,15.93,13.16,14.53,23.08  c1.73-2.7,2.68-2.49,3.09,0.69c-13.76,26.79-28.1,53.28-44.34,78.87c-5.42,4.85-13.15,7.39-19.35,10.18  c-0.77-3.9,0.24-6.48,1.43-8.76c-0.73-2.99-0.15-4.1,1.73-3.33c2.5-4.04,5.58-6.49,9.23-7.35c2.21-3.56,5.36-6.35,9.44-8.37  l4.52-4.23c0.88-9.47,2.38-18.79,4.49-27.96l1.65-0.56l2.15-4.97l16.56-17.86c-1.47-1.04-1.64-2.11-1.27-3.94  c-2.85-6.8-5.19-13.91-7.01-21.32C881.96,186.97,881.54,185.1,884.45,184.24z" />
<path class="cls-7" d="M924.71,229.9l-1.28,1.17l-1.08-0.03c-8.63-0.22-16.23,4.43-25.89,4.6l11.42-30.61  c-1.63,0.98-2.7,2.45-4.6,4.02c-1.05-0.12-2.09-0.34-3.09-0.69c-0.79-2.68-0.26-5.23,1.59-7.65c0.26-10.35-0.11-20.84-1.13-31.47  l0.34-7.52c20.11,35.97,12.89,29.02,12.14,59.42c-0.02,0.69-9.3,4.96-3,3.54c15.39-3.49,7.04-1.68,22.53-19.4  C929.9,213.99,932.99,226.72,924.71,229.9z" />
<path class="cls-4" d="M895.31,117.01c0.47,0.68,0.86,0.73,1.17,0.13c0.22-2.37,2.13-2.15,2.3,0.24l2.29-0.46  c-0.61-6.07,0.63-7.43,3.72-4.09c1.14,5.05,7.2,6.15,10.57,9.14c8.36,7.43,17.77,13.83,23.31,23.64c-2.94,0.02-5.47-3.41-8.46-3.1  c-7.1-1.9-13.72-5.25-19.88-10.06c-2.97,2.62-6.25,0.76-5.59-3.13c-5.9-5.05-14.01-7-21.19-11.25c-10.12,6.72-19.24-8.63-27.1-10.37  c-3.21-1.85-4.39-4.61-0.84-6.59c0.99-2.36,3.87-2.51,8.64-0.46c0.44-0.6,0.85-1.04,1.14-0.98c4.51,1.06,24.4,12.02,29.53,15.01  C895.49,115.02,895.42,116.09,895.31,117.01z" />
<path class="cls-10" d="M898.64,142.8c-11.65,0.37-23.8,1.14-35.17-1.06c3.11-3.39,6.12-8.26,7.76-12.04  C881.92,127.52,892.33,134.34,898.64,142.8z" />
<path class="cls-5" d="M904.75,129.32c1.48,1.27,3.73,2.56,5.59,3.13c4.59,2.37,8.76,5.31,12.51,8.83l-0.47,2.8  c4.62,4.46,8.85,9.61,11.68,15.38c-14-5.13-22.43-19.95-36.09-29C900.42,127.34,902.67,129.72,904.75,129.32z" />
<path class="cls-8" d="M858.77,157.12c0.01,0.29,0.08,0.69,0.22,0.95c6.65,4.83,11.68,10.79,15.09,17.88l-0.78,1  c-0.59,0.97-1.06,0.92-1.42-0.15c-4.98,2.79-11.45-1.49-13.68-6.42c-1.03,0.33-1.99-0.19-2.89-1.55c-0.43-0.23-0.63-0.89-1.08-1.08  c-1.75-2.29-3.76-4.29-6.04-6c-3.76-2.67-1.02-8.78,3.46-8.41L858.77,157.12z" />
<path class="cls-15" d="M884.45,184.24c-0.48,8.88,6.44,17,5.09,26.54c-0.45,0.93-1.31,1.95-2.12,1.67  c-6.2-2.19-16.39-28.39-14.13-35.5c-1.64-8.05-10.56-11.82-14.31-18.88c10.11,3.86,15.94,15.71,19.36,26.11  c2.07-0.83,3.33-1.07,4.9-1.84C884.19,181.87,884.34,182.92,884.45,184.24z" />
<path class="cls-15" d="M900.2,208.37c-4.11-8.97-5.75-17.12-14.53-23.08l14.57,6.78c2.8-11.18-2.93-20.99,0.76-30.35l3.11,38.52  C904.38,203.53,900.35,205.58,900.2,208.37z" />
<path class="cls-10" d="M930.21,142.51c-2.58,0.27-5.89-0.33-7.84,1.57l-12.04-11.63C917.36,134.61,924.6,137.73,930.21,142.51z" />
<path class="cls-6" d="M835.76,921.33c10.55,38.37,13.62,35.23,45.47,59.54c0.04,0.8-0.12,1.64-0.18,2.44  c-2.14,3.67-5.54,6.69-10.18,9.07l-11.71,9.3l-18.11,118.58l-3.14,5.03l-0.86,0.62c-6.2-23.29-13.23-46.84-17.2-71.49l15.58-52.08  l-40.66-113.86L835.76,921.33z" />
<path class="cls-3" d="M881.04,983.32l-7.59,101.28c-13.58,12.49-21.3,30.5-35.55,40.69l19.14-125.37  C865.37,994.07,872.36,987.31,881.04,983.32z" />
<path class="cls-3" d="M881.22,980.88c-0.7-14.68-6.43-29.35-6.25-44.47c0.19-15.43,14.68-45.55,15.13-68.42l11.56,94  C894.52,968.83,889.18,976.74,881.22,980.88z" />
<path class="cls-8" d="M927.17,801.99c1.62,2.21-0.09,3.02-2.5,3.62c-7.26,0.96-14.32,2.44-21.19,4.44  c-5.89,0.85-11.81,3.66-18.77,3.24l-76.22-4.65l55.12-13.93L927.17,801.99z" />
<path class="cls-9" d="M941.02,802.73c-12.06,3.91-24.99,5.51-37.54,7.32c6.36-6.43,18.44-0.98,23.69-8.06L941.02,802.73z" />
<path class="cls-5" d="M867.3,80.37c1.9-0.43,2.58,1.7,3.33,2.67c-0.65,2.66,1.02,5.37,5.02,8.12c2.74,1.36,4.58,3.11,5.52,5.25  l3.22-0.18c1.93,0.83,20.59,12.14,21.18,13.24c0.55,1.04,0.72,2.12,0.49,3.29l-1.25,0.06c-5.03-1.29,0.04,3.24-2.01,6.46  c-0.26,0.4-3.45,0.3-4-1.91c-7.64-4.44-15.45-8.7-23.46-12.79l-8.37-7.76c0.64,4.1-2.22,4.94-8.6,2.52  c-13.64-11.51-14.44-11.88-2.39-1.09l-0.36,2.85c0.09,2.22,0.51,4.4,0.84,6.59c-12.15-2.69-33.21-25.96-24.42-34.89l7.15-2.34  c8.48,3.12,17.04,5.77,25.66,7.96L867.3,80.37z" />
<path class="cls-1" d="M753.9,780.54l2.69,3.27c3.05,24.1,6.02,48.19,8.92,72.28l24.88,24.97l2.78,6.11  c1.63,13.24-1.86,26.41-3.65,41.62c-9.16-5.39-54.61-32.65-52.8-41.51l-0.8-2.76c3.51-5.36,6.72-10.77,9.62-16.24l-21.89-24.88  l-1.61-5.33l-16.45-59.59l28.05-12.83C741.52,769.18,747.15,776.59,753.9,780.54z" />
<path class="cls-6" d="M782.7,802.39l10.47,84.79l-29.88-29.99l-9.39-76.65C764.14,786.52,774.18,793.69,782.7,802.39z" />
<path class="cls-2" d="M834.35,762.79c6.9,3.02,13.19,7.49,19.39,12.61c-1.49,3-2.89,4.72-3.05,6.96  c-8.74-0.05-17.31,0.87-26.98-0.04c1.57-1.8,1.31-4.76,2.25-6.25c-1.84-3.42,2.6-10.9,6.13-11.93  C831.08,761.83,832.26,761.28,834.35,762.79z" />
<path class="cls-4" d="M832.09,764.13c-1.18,4.39-3.75,8.15-6.13,11.93c-7.58,1-15.4-0.71-22.93-0.27c0.53-4.12,1.39-7.92,3.2-11.51  l1.03-2.35c2.24-0.27,22.09-0.59,23.15-0.13C831.29,762.18,831.73,763.21,832.09,764.13z" />
<path class="cls-4" d="M1114.8,734.62c1.92-0.57,3.47,1.69,4.28,3.25c-0.02,0.48,0.38,1.17,0.19,1.61c-0.97,2.24,0.97,4.08,1.25,6.04  c0.33,2.28,1.07,5.02,1.06,6.63c-0.03,2.97-5.73,0.34-7.1,1.23c-3.33,2.14-1.38,7.64-0.94,10.65c0.24,1.64-0.67,2.2-1.22,3.41  c-0.54,0.73-1.31,1.72-2.04,1.55c-1.03-0.23-15.31-8.16-16.53-9.14l-0.31-2.85c-3.38-1.69-2.09-11.68,2-11.56l-1.49-2.82  c2.19-7.4,1.37-15.17,0.04-22.64l1.89-2.7c1.04-1.21-0.46-2.98,1.46-4.78L1114.8,734.62z" />
<path class="cls-16" d="M1119.09,737.88c-1.64-0.76-3.16-1.83-4.28-3.25l0.84-1.2C1117.93,733.66,1119.17,735.67,1119.09,737.88z" />
<path class="cls-7" d="M1095.45,745.44c-1.37,3.46-1.22,7.95-2,11.56c2.47,2.64-2.81,8.81-5.94,7.22l-105.28-0.41  c1.19-2.89,0.9-6.85,2.64-9.71c1.45-2.38,4.9,1.96,7.91,3.03c2.35-3.7,2.64-8.11,3.79-11.8l1.42-2.17c32-0.18,64.02-0.2,96.06-0.08  L1095.45,745.44z" />
<path class="cls-15" d="M838.94,651.62l-2.23,18.56c6.78,19.77,7.74,39.57,6.95,59.9c-0.84,5.44-2.14,9.99-3.76,15.16  c-6.18,2.99-17,3.25-23.07,0c-7.53-38.19,9.18-85.22,9.11-97.34C829.84,648.08,836.6,648.41,838.94,651.62z" />
<path class="cls-7" d="M967.96,745.35c-5.09,5.41-7.61,13.66-13.23,18.82l-88.29-0.51c-2.17-0.01-3.96-5.77-7.63-3.01  c1.4-3.31,4.73-1.24,4.46-4.02c-0.19-1.95-1.06-3.73-1.73-5.42c-0.7-1.77,0.08-4.01-0.25-5.83l0.81-2.34c0,0,34.81-0.01,104.43-0.02  L967.96,745.35z" />
<path class="cls-7" d="M839.9,745.24c-1.85,5.9-3.32,11.78-5.55,17.55c-0.82,0.33-1.57,0.79-2.26,1.34l-25.86,0.15  c1.22-2.41-0.6-6.96,1.78-10.16c1.33-1.8,3.89,1.78,7.77,3.53c0.92-4.15,1.78-8.76,1.06-12.41  C824.5,744.84,832.25,744.52,839.9,745.24z" />
<path class="cls-6" d="M736.72,887.29l-15.94,18.64l1.25-67.85l27.23,30.9C743.43,874.63,741.21,882.04,736.72,887.29z" />
<path class="cls-7" d="M867.3,80.37c-11.91,2.71-21.49-10.32-35.27-7.55c2.36-2.39,5.55-2.85,8.1-5.01  C849.59,67.73,864.09,71.39,867.3,80.37z" />
<path class="cls-4" d="M842.59,143.3c-3.05,5.52,4.81,7.77,9.06,10.03c-1.81,2.52-3.52,5.26-3.46,8.41c1.03,0.33,1.02,0.73,0.02,1.21  c-5.55-1.15-4-8.3-8.44-11.4c-0.9-0.58-6.45-1.59-5.42-2.4c1.16-0.9,4.78-1.91,2.16-4.69C838.47,144.81,840.61,143.2,842.59,143.3z" />
<path class="cls-11" d="M847.07,144.35c2.22-6.76,10.71-6.64,12.35-15.2c4.04,3.16,2.8,7.88-0.08,11.08  C856.36,143.54,852.31,147.81,847.07,144.35z" />
<path class="cls-7" d="M870.63,83.04l10.74,6.04c1.28,0.72,2.65,3.38,3.26,4.53c0.55,1.03-2.63,2.65-3.46,2.8  C876.77,97.8,860.65,80.76,870.63,83.04z" />
<path class="cls-16" d="M835.37,253.11c3.54,1.34,3.58,11.38,3.15,15.18c0.21,4.84-1.19,7.26-4.19,7.26  c-0.54,6.7-3.18,13.02-7.92,18.96c-2.46,5.14-5.67,7.82-9.61,8.03l-3.09,3.98c-8.26,0.83-15.04,3.48-20.34,7.94  c-3.13,0.92-5.23,1.34-4.52-2.31c1.07-2.32,1.11-5.36,2.41-7.57l-0.83-3.36c3.45-7.71,5.82-17.25,5.28-25.74  c-0.01-0.09-0.45-0.15-1.01-0.2c-2.82,9.13-6.13,18.08-9.95,26.84l-3.22,1.17c-1.62,5.31-3.48,6.64-5.58,3.96  c-10.49-1.94-21.42-3.41-32.79-4.39l-1.43-2.52l-2.25-2.13c1.96-6.92,4.34-13.75,7.15-20.48c-1.94-1.46-2.72-3.84-2.33-7.15  l-11.16,28l-2.43,0.53l1.34,2.43c-0.95,9.38,0.37,18.22,3.96,26.54c1.55,0.71,2.7,4,3.53,5.21c1.41,2.06,0.12,3.96-2.29,4.69  c-6.6,1.99-12.31,4.41-18.66,0.7c-0.89-0.52-1.8-1.01-2.8-1.31l-3.42-4.5c-3.51-0.81-14.38-22.01-14.18-23.38  c0.15-1.03,0.52-1.89,1.35-2.57c1.26-2.15,1.26-2.15,0,0c-2.78,0.54-4.93-1.05-6.44-4.77L685.04,287l0.81-3.03  c-3.15-0.09-3.11-1.82-0.08-2.72l-1.4-2.34c-1.89-4.23-2.47-9.19-1.75-14.87l-1.28-13.16l1.85-3.61c0.33-1.02,0.72-1.01,1.17,0  c2.4,4.08,0.5,8.86,2.5,14.64L835.37,253.11z" />
<path class="cls-3" d="M707.65,189.87c1.45,3.69,0.36,7.59-3.29,11.69c-5.04,4.92-6.58,13.3-8.49,19.83c0.1,0.74-0.2,1.21-0.93,1.41  l1.21,2.68l-9.37,16.93l-1.14,1.4l-2.43,3.45c1.54,10.38,2.67,21.26,1.17,31.64c1.17-0.01,1.52,1.19,1.4,2.34l0.08,2.72  c0.53,3.51-0.6,4.2-3.48,2.12l-2.56-0.21l-11.93-33.84c-2.51-4.03-5.1-8.01-7.77-11.94c-8.18-10.94-15.98-24.08-19.03-37.26  l22.39,23.43l2.41-0.7c2.95,6.65,5.93,9.75,8.96,9.31c13.06-19.81,24.9-40.38,35.51-61.7c0,0,1.49-1.08,4.47-3.25L707.65,189.87z" />
<path class="cls-6" d="M714.84,169.92c-12.72,21.64-22.73,45.84-38.3,66.54c-5.84,5.58-10-7-13.06-10.2c1.06-0.32,1.96-1.02,2.3-2.09  c18.17,0.91,18.71-21.14,26.02-28.89c9.49-10.06,14.92-22.42,23.85-33.12C719.21,165.11,715.65,167.68,714.84,169.92z" />
<path class="cls-6" d="M734.7,212.46c0.38,0.94,0.67,2.06,0.07,2.71c-5.18,5.65-29.1,8.72-37.39,9.46l-2.44-1.82  c0.27-0.5,0.61-0.95,0.93-1.41c23.4-8.75,42.48-20.79,61.67-40.57C754.84,195.6,742.93,203.78,734.7,212.46z" />
<path class="cls-15" d="M864.9,211.68l3.02,2.49c6.46,16.17,0.74,39.04-9.01,52.77c-1.52,4.54-3.82,8.45-6.91,11.73  c-0.91,3.62-6.3,6.2-9.23,7.35l-1.35-2.65l5.11-16.25l-2.29-2.22l-2.36-16.42l2.05-2.56c4.38,0.14,0.89,7.15,3.21,7.03  c3.57-0.18,8.07,0.57,11.31-0.07c12.55-2.49,11.68-41.27-9.05-51.28c-2.06-4.06-6.81-11.06-5.59-15.48l3.08,1.06  c3.87,8.4,8.84,16.74,17.13,21.39L864.9,211.68z" />
<path class="cls-7" d="M841.48,228.4c2.35,4.71,2.53,10.19,2.27,15.35c0.1,0.7,0.1,1.47,0.17,2.17c0.72,7.09,3.05,14.09,2.6,21.2  l-5.63,14.96l-3.13,1.62l-2.05,0.88c-2.35-1.81-2.8-4.82-1.37-9.02c3.51-6.52,1.08-15.29,1.04-22.44  C835.33,243.89,833.81,233.77,841.48,228.4z" />
<path class="cls-6" d="M843.77,178.24c8.02,5.44,16.67,11.95,20.96,20.68c5,0.97,7.37,14.76,0.17,12.76  c-10.92-5.23-16.19-14.83-21.1-25.55c-0.33-0.72-0.43-1.58-1.1-2.11c-1.29-1.02-2.03-2.63-2.21-4.83c0.05-0.35-0.08-0.72-0.05-1.07  c-0.58-1.19-0.21-1.81,1.11-1.87C841.68,177.54,843.12,177.53,843.77,178.24z" />
<path class="cls-7" d="M704.36,201.56c-0.9-4.26,1.93-7.93,3.29-11.69l17.85-9.52C722.35,191.59,712.67,196.25,704.36,201.56z" />
<path class="cls-15" d="M858.2,170.38c3.83,4.94,6.21,10.91,7.14,17.92c1.82,4.41,1.62,7.95-0.61,10.62  c-7.86-5.94-14.35-13.4-20.96-20.68l13.85,5.83c2.09-4.93,0.37-11.14-2.31-15.24C856.27,169.34,857.28,169.77,858.2,170.38z" />
<path class="cls-15" d="M843.75,243.75l-2.27-15.35C845.19,231.62,845.09,239.39,843.75,243.75z" />
<path class="cls-15" d="M842.7,184.02c-1.38,0.09-2.56-0.61-2.55-1.73c0.01-1.27,0.19-2.16,0.33-3.09  C842.16,180.14,842.24,182.32,842.7,184.02z" />
<path class="cls-15" d="M854.22,167.74c-2.14-0.94-3.68-4.3-6.02-4.79l-0.02-1.21C851.35,161.93,852.57,165.38,854.22,167.74z" />
<path class="cls-8" d="M699.54,306.93l12.83,25.95c-2.84-0.83-6.21-2.39-8.32-4.58c-1.37-2.87-1.79-7.1-5.63-7.51  c-7.73-4.23-16.85-14.27-21.72-21.73c-0.48-0.74-0.04-1.79,0.46-2.64c-2.79-2.53,1.86-10.29,5.22-10.34  c1.31-0.43,2.45-1.21,3.48-2.12C690.95,291.31,693.39,300.44,699.54,306.93z" />
<path class="cls-15" d="M1003.32,650.3c3.5,7.04,1.68,14.93,4.67,23.97c-13.53,23.39-21.88,51.8-40.04,71.08l-106.67,0.02  c-3.63-20.06-5.42-42.72-1.42-62.81l9.67-48.58c1.04,0.08,2,0.4,2.77,1.13c1.26,1.21,0.93,16.83,0.38,19.47  c19.49,8.74,38.23,18.93,56.23,30.56c8.92-9.2,19.04-16.36,30.36-21.48c10.8-1.04,21.66,0.21,32.6,3.74  c5.24-3.67,8.53-9.56,9.09-15.97L1003.32,650.3z" />
<path class="cls-13" d="M1003.32,650.3c0.09,6.71-4.26,16.27-11.25,19.35c-36.82-7.5-30.13-7.68-63.15,17.58  c-19.49-10.3-37.81-22.66-57.84-31.24c-1.09-8.11,0.72-15.29-1.56-22.01l3.52-17.58c1.15-2.88,2.45-5.57,3.88-8.07  c51.13-0.67,76.69-1,76.69-1c5.74,0.4-3.3,0.33-4.87-0.13c-0.29-0.08-0.44-0.65-0.55-1.35c4.05-4.13,9.71-6.81,14.5-10.07  l21.98,33.27C990.02,637.14,999.19,641.97,1003.32,650.3z" />
<path class="cls-15" d="M1095.88,717.28c1.8,9.52,3.04,19.35-0.44,28.16l-98.89-0.1c10.1-32.38,29.83-60.98,46.1-91.98l-9.14-18.24  c-1.2-3.68,8.85-10.11,11.94-7.87c9.84,7.84,20.63,15.14,29.42,25.11C1096.5,676.86,1090.52,688.9,1095.88,717.28z" />
<path class="cls-4" d="M721.12,506.16c-9.03-12.19-14.04-25.08-18.69-39.8c17.52-7.5,25.67-23.71,38.59-39.05l16.82,23L721.12,506.16  z" />
<path class="cls-4" d="M1035.85,617.81c-6.2,0.31-12-4.6-13.77-10.44c-10.53-8.76-18.98-18.84-24.82-31.96  c24.11,4.6,44.26,16.12,63.1,32.69c7.94,6.98,11.59,20.15,16.24,31.89L1035.85,617.81z" />
<path class="cls-4" d="M815.54,435.99c1.62,0.71,2.92,1.13,4.7,0.77c3.31-0.82,7.3-0.93,10.67,0.04c0.29,1.47,2.51,3.06,2.06,4.99  l-11.1,46.95l-1.6,54.15l-19.66-8.85l18.69-47.37c0.25-17.36-11.24-35.17-8.36-51.79C812.19,435.54,814.14,435.88,815.54,435.99z" />
<path class="cls-4" d="M840.11,646.76c-1.14-1.47-2.07-3.08-2.42-4.92c-0.9-4.76-3.33-29.43-2.47-32.13  c0.29-0.93,0.74-1.81,1.22-2.68c-0.86-6.57-1.6-12.41-1.34-18.65l29.59-7.66L842.37,653L840.11,646.76z" />
<path class="cls-4" d="M795.24,426.67l-1.09,47.41c-20.6-30.13-13.78-32.9-10.05-65.06C787.45,415.03,791.93,420.4,795.24,426.67z" />
<path class="cls-14" d="M836.44,607.03c1.73,13.21,3.7,26.39,3.68,39.73c-0.36,0.05-0.72,0.19-1.08,0.23c-1.27,4.5-8.46,2.3-9.18-2.12  l-3.07-0.33l5.81-38.6L836.44,607.03z" />
<path class="cls-4" d="M735.87,418.38c-1.83-21.75,0.68-13.47,10.27-35.61c3.28,6.58,3.86,13.13,6.45,20.35  C746.55,408.3,743.03,414.29,735.87,418.38z" />
<path class="cls-14" d="M948.2,605.86c2.43,0.39,6.84-0.27,8.54,2.37l-80.83,2.48c0.16,2.46-0.82,4.78-2.87,5.69  c0.76-3.79,1.67-7.82,3.45-12.31L948.2,605.86z" />
<path class="cls-4" d="M756.59,365.91c20.21-26.2,8.01-17.74,37.63-27.47c-2.67,8.4-13.77,7.52-17.45,15.44  C773.62,360.65,767.98,370.08,756.59,365.91z" />
<path class="cls-13" d="M1035.85,617.81c3.62,2.42,6.24,6.76,9.61,9.44l-11.94,7.87c-7.75-7.43-11.43-16.92-11.44-27.75  C1026.51,611.06,1031.1,614.63,1035.85,617.81z" />
<path class="cls-12" d="M839.03,646.99c0.87,1.49,0.08,3.21-0.09,4.63c-4.67-0.35-9.97,0.25-13-3.72c-0.01-0.88-0.01-2.81,0.84-3.36  c3.13-2.05,1.87-5.43,3.83-8.93l1.63,9.32C832.67,647.43,836.4,647.25,839.03,646.99z" />
<path class="cls-15" d="M1108.4,632.99c-0.41,0.02-0.86-0.33-1.26-0.42c-0.26-2.88,1.31-5.01,4.07-4.21c2.84,0.83,4.96,1.84,4.15,5.74  C1112.76,633.94,1110.7,632.89,1108.4,632.99z" />
<path class="cls-15" d="M1108.59,645.7c-0.16-2-0.25-3.9-0.13-5.92c1.15,0.02,2.54-0.19,3.84,0.46c1.41,0.7,1.01,2.78,0.26,4.41  C1112.01,645.83,1109.99,645.79,1108.59,645.7z" />
<path class="cls-6" d="M835.7,284.57c-2.52,9.59-10.34,33.93-23.62,30.47c-3.92-2.8,1.45-10.02,4.71-12.51  c7.89-7.51,12.4-17.47,17.54-26.99C835.44,277.88,836.42,281.84,835.7,284.57z" />
<path class="cls-15" d="M774.82,308.33c-0.03,0.84-0.11,1.66-0.34,2.44c-0.76,2.63-16.68,15.22-19.97,16.49  c-2.71,1.05-8.64-5.21-10.27-7.26c-1.02-3.98-4.09-7.61-2.4-11.86c4.84-1.75,10.35-2.05,16.54-0.91  C764.47,306.31,769.95,306.67,774.82,308.33z" />
<path class="cls-6" d="M782.77,309.12c-0.05,0.45,0.15,0.98,0.04,1.42l-4.63,3.67c-0.3,0.39-0.88,0.62-1.13,1.05l-3.62,3.56  c-0.43,0.24-0.76,0.75-1.08,1.11l-1.2,1.34c-0.4,0.44-0.82,0.93-1.31,1.29l-11.58,10.4c-0.27,0.42-0.77,0.71-1.09,1.09l-1.32,1.25  c-3.87-4.78-10.02-9.02-11.62-15.29c3.36,0.87,5.72,3.27,9.83,5.24c6.99-5.89,14.41-10.91,20.76-16.92  c-1.7-1.56-1.03-2.19,1.12-1.08c2.21-0.78,3.96-2.31,5.58-3.96c2.45-0.01,2.76,1.68,0.93,5.05  C780.78,307.96,780.88,308.23,782.77,309.12z" />
<path class="cls-14" d="M775.94,307.25c-0.4,0.17-0.79,0.77-1.12,1.08c-10.72,1.92-22.21,1.48-32.98-0.18  c-1.08-1.76-1.69-3.75-1.71-5.82c-2.03-2.4-1.31-3.17,1.58-1.99l31.58,3.6C775.01,304.14,775.44,306.22,775.94,307.25z" />
<path class="cls-8" d="M816.79,302.54l-4.71,12.51c-2.12,0.6-4.45,1.91-6.73,1.46c-5.84,1.89-11.89,2.95-18.14,3.17l-2.1-2.25  c0.52-2.08,0.61-5.06,3.73-5.28c3.11,2.93,5.3-2.58,7.87-3.63C803.53,305.74,810.9,306.16,816.79,302.54z" />
<path class="cls-7" d="M805.35,316.51c-7.67,7.26-19.42,8.61-29.7,14.65c0.96-7.15,6.68-9.34,9.46-13.73  C791.92,317.29,798.61,315.18,805.35,316.51z" />
<path class="cls-3" d="M791.25,304.58c-3.95-5.43-1.9,5.78-7.24,4.43l-0.76-2.01c3.99-10.46,7.8-21.03,11.44-31.72  c0.08-1.68-1.38-3.79,1.22-6.34C797.9,281.49,797.78,293.52,791.25,304.58z" />
<path class="cls-7" d="M794.69,275.28c-0.57,11.94-5.46,23.04-10.68,33.73l-1.24,0.11c-4.43,3.17-0.72-3.81-1.25-5.83  C786.61,294.25,788.66,283.42,794.69,275.28z" />
<path class="cls-6" d="M730.7,299.12c2.84-1.01,3.5-0.47,3.13,2.51c0.95,0.26,1.7,0.56,1.78,0.98c0.2,1.05-0.02,6.1-0.12,7.74  c-0.06,0.88-0.19,1.73-0.55,2.54l0.1,4.47c1.8,1.85,1.99,5.95,0.74,8.36c-0.14,0.76,0.3,1.6,0.23,2.37  C727.6,324.21,729.5,302.22,730.7,299.12z" />
<path class="cls-3" d="M741.71,300.34l-1.58,1.99c-3.09-0.3-4.24,1.35-4.09,4.11c0.11,1.98,0.69,4.5-1.1,6.44  c-0.08-3.76-0.33-7.56-1.11-11.26c-0.46-0.36-0.87-0.75-1.12-1.22c-0.58-1.1,9.49-19.88,11.03-22.28l2.87-0.39  C746.01,285.49,741.72,292.58,741.71,300.34z" />
<path class="cls-3" d="M769.85,322.55c-2.59,4.39-7.01,8.16-11.58,10.4C761.1,328.62,765.7,325.6,769.85,322.55z" />
<path class="cls-3" d="M735.78,325.72c0.53-2.82-0.68-5.55-0.74-8.36C738.26,315.29,737.5,327.88,735.78,325.72z" />
<path class="cls-3" d="M778.18,314.22c1.21-1.6,2.9-2.69,4.63-3.67C782.31,312.61,780.15,313.77,778.18,314.22z" />
<path class="cls-3" d="M677.16,296.43l21.26,24.37c-10.71-0.47-16.73-10.19-25.76-14.94l-1.24-1.07c0.5-2.98,1.43-6,2.77-9.05  C675.43,292.66,676.9,293.25,677.16,296.43z" />
<path class="cls-6" d="M669.05,288.38c1.92,2.49,0.92,4.12-2.17,3.54c-3.2-1.27-6.94-1.71-10.26-2.31c-0.92-2.88-2.26-5.53-2.38-8.62  L669.05,288.38z" />
<path class="cls-7" d="M682.38,286.09c-1.09,3.76-3.66,6.79-5.22,10.34c-1.02-0.03-1.97-0.58-2.97-0.69c-2.86-0.32-4.89-2.87-7.3-3.82  c0.46-1.33,1.2-2.53,2.17-3.54c3.59-15.45-7.67-31.65-8.93-48.29c4.98,2.33,8.6,7.08,10.56,12.68L682.38,286.09z" />
<path class="cls-7" d="M871.88,176.8c2.57,11.74,3.4,24.06,2.49,36.97l0.03,19.73l-2.28,4.05l-4.03,29.41  c-3.45,5.18-10.9,8.83-16.08,11.71c6.28-24.97,23.32-26.24,12.9-66.98c4.91-3.5,0.19-8.3-0.17-12.76  c-0.78-9.77-4.38-18.97-6.53-28.54C862.44,173.2,867.06,175.17,871.88,176.8z" />
<path class="cls-4" d="M889.55,210.78c1.49,0.27,2.84,2.6,4.79,3.89c-7.91,7.89-14.03,16.26-22.22,22.87l-0.23-60.75  c0.44,0.15,0.97,0.03,1.42,0.15C874.68,183.73,883.26,209.64,889.55,210.78z" />
<path class="cls-2" d="M898.79,117.38l-2.3-0.24c-0.42,0.59-0.81,0.54-1.17-0.13l-30.5-15.09l-9.2-0.81l-15.94-14.64  c12.6-1.54,14.73,11.64,25.63,13.14c-1.56-5.6-7.11-7.84-9.57-13.47c26.81,16.75,7.33,11.54,41.76,27.66  c0.98,0.45,3.26,0.36,3.19,1.6C900.65,116.08,899.11,116.68,898.79,117.38z" />
<path class="cls-14" d="M699.54,306.93c-1.66-3.35-3.14-6.12-4.95-10.6l32.64,2.92c0.79,3.03,0.99,5.71,0.2,8.97L699.54,306.93z" />
<path class="cls-8" d="M746.62,277.73l-12.78,23.9c-1.3-0.47-2.49-1.27-3.13-2.51l14.91-38.41  C746.99,266.59,747.04,272.33,746.62,277.73z" />
<g>
</g>
<g>
</g>
<g>
</g>
<g>
</g>
<g>
</g>
<g>
</g>
<g>
</g>
<g>
</g>
<g>
</g>
<g>
</g>
<g>
</g>
<g>
</g>
<g>
</g>
<g>
</g>
<g>
</g>
</svg>