<?xml version="1.0" encoding="iso-8859-1"?>
<!-- Generator: Adobe Illustrator 30.2.1, SVG Export Plug-In . SVG Version: 9.03 Build 0)  -->
<svg version="1.1" id="Layer_1" xmlns="http://www.w3.org/2000/svg" xmlns:xlink="http://www.w3.org/1999/xlink" x="0px" y="0px"
	 viewBox="0 0 1200 1543" style="enable-background:new 0 0 1200 1543;" xml:space="preserve">
<style type="text/css">
	.st0{fill:#C9E5F4;}
	.st1{fill:#495B9F;}
	.st2{fill:#4D76B5;}
	.st3{fill:#4B67A9;}
	.st4{fill:#5189C6;}
	.st5{fill:#95CDF3;}
	.st6{fill:#57A6DD;}
	.st7{fill:#0E5679;}
	.st8{fill:#6BAFE7;}
	.st9{fill:#A3D3F1;}
	.st10{fill:#6A555A;}
	.st11{fill:#3B3443;}
	.st12{fill:#2A263A;}
	.st13{fill:#101737;}
	.st14{fill:#4185BD;}
	.st15{fill:#E18D54;}
</style>
<path class="st0" d="M116.06,1128.77c1.04,0.02,2.63,0.3,2.66,0.95c0.46,10.58,0.71,31.58-0.81,41.53c0.38,2.04-0.74,2.67-2.74,3.34
	l-3.21,3.45c-25.89,6.1-50.46,18.69-66.57,40.34l-4.1,1.89c-0.93,2.44-3.35,4.42-7.25,5.95l90.19,2.5l1.54,2.72
	c3.47,1.51,3.48,3.05,0.03,4.6l0.66,2.88c-1.43,0.37-3.59,6.76-3.1,6.8c52.19,3.32,104.57,6.25,156.91,7.08
	c14.35-0.82,8.53,10.24,3.99,17.29c72.79,13.08,150.22-1.1,223.09-14.61l119.47-23.76c45.3-8.01,91.64-15.45,137.78-15.58
	c3.78-0.01,7.43,1.19,10.94,2.47l1.24-2.68c27.52-0.07,55.05-0.16,82.6-0.29l1.62,2.67c3.11-0.7,6.23-1.35,9.37-1.79
	c3.14-0.44,6.26-0.86,9.38-0.85c28.18,0.06,56.4,1.1,84.54,2.67c78.93,4.4,154.96,14.12,231.43,26.02l4.27,2.07v78.06
	c-4.71,2.37-9.51,4.62-14.62,5.96c-84.55,21.1-167.74,46.1-249.57,74.98c-48.01,15.9-97.63,23.98-148.33,32.23
	c-59.87,11.59-119.69,23.32-179.45,35.21l-10.89,0.48c-16.83,2.53-33.69,4.88-50.56,7.04c-10.87-0.96-21.66-1.75-32.38-2.38
	l-2.65-2.24c1.32-3.25,4.3-5.97,8.92-8.17c3.16-4.07,6.42-6.21,9.76-6.4l-1.21-2.84c9.12-10.31-1.58-15.74-11.32-17.25l-21.02-1.11
	l-1.14-2.81c-2.19-0.43-2.29-1.09-0.11-1.75l0.14-3.29c5.13-2.35,9.86-5.25,14.2-8.7l3.1,0.48c-0.36-2.91,0.9-5.27,3.8-7.08
	c8.96-14.84-31.07-15.7-38.46-14.37l-1.42-1.6l-3.45,1.57c-2.61,3-10.44,5.99-14.2,3.84l-5.37,1.64
	c-106.4-21.96-213.67-43.6-321.81-64.9c-40.32-6.99-79.01-11.53-119.51-16.27c-4.31-0.5-8.43-1.98-12.45-3.56v-182.14
	c1.49-0.89,3.01-1.72,4.59-2.39c1.57-0.66,3.11-1.29,4.71-1.51c32.14-4.48,64.48-8.91,96.91-10.65c1.6-0.09,3.24,0.28,4.91,0.66
	C112.8,1127.56,114.44,1128.14,116.06,1128.77z"/>
<path class="st1" d="M0,127.23V0h1200v126.07l-2.54,2.53c-54.02-0.33-107.9-2.81-161.65-7.42c-61.66-0.83-122.4-0.39-185.47,1.98
	c-33.35,4.03-66.72,3.89-99.8-0.96c-11.48,1.38-23,1.11-34.54-0.81l-42.62,1.11c-16.04,1.08-31.35-0.94-45.95-6.07
	c-2.68,4.65-5.17,5.96-7.47,3.93l-2.52-3.67c0.63-8.37,0.64-16.74,0.03-25.09c-2.64,13.06-5.31,26.16-8.01,39.3
	c-6.18,13.73-21.05,19.88-17.84-0.6c0.03-6.33-1.67-12.51-5.3-17.79c-1.03,7.04-1.72,14.18-2.08,21.41
	c-0.4,9.24-4.46,12.79-12.89,8.05l-1.77,11.31c-1.96,6.49-6.08,18.67-13.64,17.85l-2.41-2.05c1.54-20.69-23.2-30.56-39.14-19.66
	l-3.52-0.67c-5.99-2.58-9.75-10.35-8.09-17.21c-1.79-3.55-1.92-6.33-0.38-8.33l-3.06-1.04c0.62-4.64-5.42,1.12-3.09,3.88l-2.01,2.42
	c5.77,0.68,4.96,19.22-1.49,18.89l-3.1,0.26c-4.8-5.41-12.49-6.76-19.44-7.51c-24.03,0.42-47.87-0.91-71.52-3.99
	c-12.73,0.17-24.96-1.58-36.71-5.24c-3.44,4.11-5.89,4.59-7.35,1.43l-2.79-1.86c-1.58-11.98-8.31-9.47-7.49,1.5l-2.55,1.53
	l-2.08,2.32c-24.07,1.46-46.42-1.32-70.33-4.32c-25.93,2.08-52.01,2.36-78.25,0.81c-49.84-7.19-99.3-8.45-149-2.22
	c-26.29,0.15-39.43,0.22-39.43,0.22L0,127.23z"/>
<path class="st2" d="M1200,246.4v154.89c-0.81,0.79-1.66,1.54-2.6,2.13c-0.93,0.58-1.82,1.12-2.73,1.2
	c-20.8,1.71-40.81,0.25-61.37-1.62c-32.19,1.17-64.83-0.76-96.57-3.87c-7.43-0.06-14.42,2.07-21,5.5
	c-5.82-1.79-11.6-3.13-17.35-4.02c-26.38,2.7-52.96,3.77-79.74,3.21c-28,3.64-55.48,2.6-83.4-0.17c-31.97,0.65-63.8,2.81-95.48,6.46
	l-4.62-1.58l-3.65-0.89c-7.62-10.34-16.35-28.14-17.13-40.99c-0.41-6.61-0.54-18.32,5.78-20.72c11.79,3.58,14.38-4.81,8.47-13.38
	c-2.19-3.18-5.82-4.63-9.32-5.98c-11.96-0.29-9.86-12.39-6.8-20.79c12.42-6.62,19.39-18.37,11.05-31.12l0.65-2.79l-4.74,4.92
	c-17.4,9.7-23.01,24.31-24.88,43.18c-0.41,15.18-1.01,30.35-1.8,45.52c-14.28,9.14-28.95,17.79-44.02,25.94l-2.7-1.54
	c-1.18-0.84-2.33-1.73-3.35-2.73c-0.99-0.98-1.94-1.97-2.57-3.12c-15.25-27.83-30.22-55.87-45.11-83.9
	c-5.83-11.79-11.63-23.72-16.21-36.06c-0.45-1.22-0.52-2.58-0.56-3.99c-0.04-1.43,0.11-2.87,0.32-4.31
	c8.01-6.31,16.26-6.36,26.1-6.38c23.7-9.91,46.3-10,71.75-3.06c30.77,6.16,61.04,5.36,91.14-3.38l19.55-1.34l255.32,1.3
	c50.83,1.81,101.64,2.48,152.41,2.03L1200,246.4z"/>
<path class="st3" d="M1200,126.07V246.4c-59.09,4.4-118.23-1.49-178.11-0.76c-25.44,0.31-48.29-0.75-73.33-0.76l-128.04-0.03
	c-20.92,0-44.38-2.48-63.3,3.07c-34.76,10.2-70.5,3.56-104.88-3.45c-39.32-2.83-34.58,10.4-59.5,7.64
	c-3.79-0.42-9.47,6.6-14.28,3.69c-1.46-0.33-2.61-1.08-3.54-2.23c-1.24-1.53-6.15-34.02-5.65-36.84
	c0.27-1.56,13.41-27.07,14.76-27.9c0.53-0.32,1.33-0.19,2.21,0.06c3.94-3.55,8.04-5.8,12.28-6.76c-0.19-1.22,0.1-2.4,0.87-3.57
	c-7.81-7.92-8.57-17.63,0.58-24.66l1.02-3.42c10.66-5.31,15.28-16.47,16.04-27.88l2.82-2.24c3.12-1.11,3.14-4.23,6.72-7.34
	c23.2,13.31,84.6,2.2,101.56,6.94c9.08,2.54,16.99-1.2,23.98-0.3c26.75,3.41,51.24,5.3,78.47,2.47
	c38.74-4.02,78.83-3.24,118.81-3.66l52.3-0.55c17.52-0.18,34.09-0.13,51.13,2.34C1081.07,124.34,1168.62,124.08,1200,126.07z"/>
<path class="st4" d="M1200,401.29v97.75l-2.72,3.1c-63.45,12.45-122.52,39.88-178.58,73.17c-46.63,22.56-94.27,42.7-142.92,60.43
	l-5.12,0.42c-6.31-8.28-12.58-16.64-17.95-25.57c-34.82-57.83-69.53-115.82-103.91-173.91c-2.65-4.47-4.95-9.14-7.23-13.84
	c-2.28-4.7-4.39-9.49-6.44-14.3c22.64-6.38,47.49-3.02,72.42-6.61c30.13-4.33,60.19,4.79,90.66,0.86
	c33.04-4.26,65.26,0.53,97.14-4.6c6.78-1.09,11.25,1.44,20.03,3.93c14.26-8.75,30.63-5.2,45.49-3.53
	c36.62,4.1,61.63,0.19,82.03,2.35C1162.46,403.01,1181.36,403.85,1200,401.29z"/>
<path class="st4" d="M399.06,399.24c2.44,1.28,2.22,3.71-0.66,7.32c-15.78,21.36-30.31,43.41-43.58,66.14l0.41,2.98
	c-22.77,17.7,5.77,2.22,12.69-2.24c4.83-0.16,10.07,6.05,7.28,10.18l1.81,2.03c0.9,25.9,1.05,51.95,0.47,78.16l-2.69,1.6
	c-1.74,4.16-3.56,8.35-6.3,11.95c-10.67,14.02-21.64,28.05-32.66,41.79c-2.82,3.52-6.43,6.3-10.03,8.98c-3.36-0.62-6.78-1.34-9.79-3
	c-49.66-27.32-99.96-52.67-151.95-75.46c-52.29-27.4-105.62-52.39-160-74.97L0,471.43V381.7l5.01-1.33
	c57.12,0.99,114.27,2,171.47,3.03c21.17,2.99,40.42,2.73,60.54,0.22c53.02-0.13,106.02,1.28,159.01,4.24
	C403.02,387.07,404.04,390.87,399.06,399.24z"/>
<path class="st3" d="M341.81,133.48c2.26-1.81,3.04-1.07,1.43,1.4c2.14,3.64,6.44,3.59,8.95,0.26c-3.1-3.24-1.05-5.56,2.45-2.83
	c2.86,0.27,4.03-2.17,6-5.03c14.36,7.42,30.95,4.11,45.93,7.31c29.86,6.38,75.1-4.87,86.18,12.77c1.21,0.19,1.22,0.64,0.13,1.33
	c-0.79,0.85-1.26,1.81-1.43,2.88c5.24,2.52,5.87,13.42,5.85,19.21c-0.03,7.54-1.53,14.27-8.43,18.34c3.08,3.05,4.09,5.65,3.03,7.78
	c3.07,2.06,4.03,6.07,2.89,12.03c-1.76,7.5-5.92,13.96-12.47,19.38c0.8,2.1,0.9,4.03,0.28,5.79c3.41-0.04,6.13,0.39,6.27,4.25
	c0.65,0.97,1.25,1.96,1.68,3.03c3.1,7.74-5.55,47.21-9.25,56.76c-1.09,2.82-17.43,15.46-21.39,17.29l-2.83-1.81
	c-3.08-0.3-4.44-2.97-4.1-8c1.12-18.14-1.64-26.62-17.59-36.25c-2.33-2.33-2.92-5.41-2.72-8.61c2.61-8.44,2.13-15.76-1.42-21.96
	c-1.24,8.25-1.86,12.37-1.86,12.37c-3.49,20.52-13.82,4.13-14.64-7.18c-0.63-10.69-3.16-27.37-3.46-4.62
	c-3.16,19.02-14.94,1.88-17.64-8.28c1.23-2.32-5.4-22.42-5.84-17.94c-1.04,10.64,3.39,27.28,7.12,37.4l-1,4.01
	c-4.65,4.11-10.95,5.99-18.89,5.64c-25.51-0.46-51.17-2.12-77-5c-30.05,1.42-58.31,0.46-87.63-5.32c-38.12,0.3-76.81-0.4-116.06-2.1
	l-66.04,1.19l-18.93-2.73c-4.24,0.52-7.36-0.31-9.38-2.47V127.23c29.33,4.51,84.22-5.77,110.61-4.11
	c20.98,1.32,40.28,1.2,61.08,4.14c74.38,10.52,77.57-5.45,128.73,5.56C311.37,135.18,331.79,131.1,341.81,133.48z"/>
<path class="st2" d="M393.93,254.55c1.71-0.55,3.57-0.05,5.58,1.49c8.28-0.14,19,2.46,18.5,12.67c-0.16,3.3-0.74,5.28-4.33,4.38
	c0.58,2.02,0.03,4.56-1.67,7.61l2.83,1.74c10.16,1.9,16.9,6.45,20.21,13.64l2.82,3.24c1.26,8.43,2.23,20.7,2.02,29.18
	c-0.17,6.74-0.36,11.15-4.28,17.13c-0.14,1.57-0.32,3.12-0.7,4.62c-2.65,10.6-20.66,33.79-28.44,43.77
	c-0.88,1.13-2.09,2.02-3.34,2.9c-1.27,0.89-2.65,1.62-4.07,2.31c-1.06-2.41,0.45-3.25,2.13-8.66
	c-54.34-0.66-108.92-6.43-164.08-4.29c-13.4,0.52-22.48,3.26-36.15,1.81c-67.44-7.17-134.58,0.02-200.97-6.4V243.75
	c10.4-1.96,20.65,3.03,31.89,2.54c52.17-2.25,103.89-1.21,156.47,1.72c8.65,0.48,17.9-1.6,25.76-0.55
	c18.62,2.49,36.17,7.24,55.91,5.48c20.78-1.86,41.06,0.3,61.89,2.29l23.49,2.24C368.19,258.7,381.54,257.33,393.93,254.55z"/>
<path class="st5" d="M1200,1324.5v94.24c-6.73,2.31-13.53,4.48-20.55,5.69c-77.36,13.4-152.43,26.47-228.79,45.61
	c-76.41,19.15-148.51,43.01-222.98,68.03c-6.75,2.27-13.75,3.61-20.75,4.79H459.44l-0.89-1.72c11.35-14.15,13.44-26.44-5.62-34
	l-1.35-2.94c-2.61-3.11,0.58-5.65,3.88-6.63l40.43-5.42c33.58-7.38,67.32-13.65,101.24-18.81c80.69-17.03,161.07-34.29,243.21-47.43
	c44.38-7.1,85.01-19.42,127.35-33.68C1044.65,1366.31,1121.25,1341.27,1200,1324.5z"/>
<path class="st6" d="M1200,499.04v187.01c-4.15,2.16-8.39,4.22-12.95,5.34c-112.74,21-216.93,70.88-314.64,119.28l-2.62-1.71
	l-2.67-1.26c0.21-24.51,0.42-49.03,0.64-73.56l2.69-1.58c2.71-4.5,12.17-6.06,17.69-6.94c3.98-1.56,7.01-1.08,9.08,1.46l3.07-0.01
	l5.63,10.53c5.76-0.8,11.78-5.86,13.54-11.54l-50.29-87.2l1.52-2.73c21.84-10.27,43.91-19.32,67.28-27.81
	c42.35-15.38,81.19-35.21,119.91-57.84C1090.96,531.15,1163.33,503.89,1200,499.04z"/>
<path class="st5" d="M1200,686.05v291.81c-1.62-0.09-3.43-0.21-4.67-1.29c-4.38-3.84-14.05-19.29-16.88-25.06l0.13-4.79l1.01-2.04
	c4.57-0.97,9.46,0.69,14.67,4.97c-2.83-7.48-7.58-14.53-14.24-21.17c-0.25-5.23,2.91-5.68,6.9-3.84
	c-6.64-14.57-13-29.12-19.07-43.66c-8.21,19.24-14.11,39.39-18.6,59.41c3.74-1.28,10.63-2.46,10.64,2.59l1.2,4.04
	c-0.85,3.05-11.72,20.92-13.88,22.73c-2.28,1.9-3.57,1.68-5.98,0.01l-19.74-28.43c1.99-4.31,6.91-4.33,14.75-0.04l-14.07-26.88
	l0-5.77c-0.05-4.53,4.17-3.3,7.35-1.39c7.29,7.93,6.26,4.73-3.1-9.59c-5.17-10.72-7.89-18.67,5.95-11.73
	c-10.35-24.91-20.38-50.08-28.71-75.77c-8.34,25.88-18.32,51.07-29.92,75.57c7.96-4.44,12.07-3.81,12.33,1.89l-13.7,22.76l11.2-6.38
	c5.33,0.74,5.68,3.42,2.76,6.85l0.38,2.32c-3.03,8.97-6.97,17.64-11.82,26.01c3.57-2.82,14.59-10.09,13.6-1.7
	c-0.49,4.18-16.96,29.75-20.2,29.82c-4.46,0.09-27.95-39.67-27.75-46.2c0.1-3.19,1.26-3.99,4.29-4.44l15.18,7.69l-22.43-42.84
	c-0.44-7.72,7.13-4.42,10.98-0.41c-0.83-2.34-0.96-3.88,1.5-5.36c2-2.85,3.01-4.28,3.01-4.28c-6.8-10.99-12.47-22.52-17.02-34.59
	c1.42-7.42,7.68-2.24,11.05,1.92c-11.17-24.4-20.4-49.73-28.36-75.32c-8.9,25.3-18.2,50.52-29.07,74.96
	c12.7-8.04,9.32,2.17,5.08,11.47l-10.72,20.16c0.86,0.48,1.84,1.59,2.94,3.33c1.49,1.38,2.08,2.54,0.96,4.1
	c4.58-2.47,13.5-6.32,13.26,2.03l-19.89,34.73c2.42-2.16,9.38-8.35,12.14-5.68c3.13,3.02-10.1,22.75-13.32,26.44l-3.78,1.09
	l-2.39,1.52c-32.49-25.87-64.98-51.75-97.48-77.63l0.4-3.1c-4.08,0.23-3.24-8.57,0.66-8.97c-3.3-2.76-6.14-6.04-8.52-9.83
	c-2.73-1.83-3.71-4.71-2.93-8.63c-0.16-6.28-0.4-16.17,3.67-20.5l88.12-42.65C1034.76,729.12,1116.68,702.23,1200,686.05z"/>
<path class="st7" d="M141.78,799.69c1.62-0.61,3.1-0.48,3.33,1.18c1.27,8.94-11.88,4.89-16.56,2.44
	c7.15,14.56,15.2,28.77,24.15,42.64c3.42,5.63,3.01,7.16-3.17,7.69l-18.65-8.1l29.18,51.86l10.15-21.58
	c-5.44,3.51-13.12,5.14-11.65-3.49c7.37-18.58,14.57-37.24,19.89-56.53c1.39-3.94,3.16-3.65,6.36-2.18
	c7.69,20.75,15.19,41.56,22.5,62.44c-1.78,3.58-5.1,3.75-9.97,0.51c6.38,12.28,12.17,24.85,17.35,37.72
	c-0.56,7.8-7.02,3.38-11.21,0.4l5.86,13.38l-1.69,2.79c-9.22,11.25-19.83,21.45-31.82,30.59c-26.58,24.25-52.52,49.13-77.82,74.64
	l-5.61,3.39l0.77,1.77c-3.42,3.38-5.05,6.95-4.88,10.71c2.17-0.25,3.42,1.03,3.74,3.83c7.72-0.65,15.51-1.24,23.39-1.78
	c6.34,2,6.24,15.46,1.26,18.57c1.07,0.37,2.39,1.38,2.65,2.44c1.47,5.9-0.01,36.3-0.49,44.19c0.87,5.11-0.06,8.3-2.78,9.55
	c-38.88,1.28-77.47,7.4-116.06,12.3V882.59c0.87-1.93,2.76-2.86,5.68-2.78c3.46-6.39,7.72-11.54,12.8-15.46c0,0,4.08,4.2,12.23,12.6
	l0.21,3.05l3.61,2.69c5.37,12.95,11.49,25.58,18.37,37.89c0.36,6.49-5.92,5.13-10.15,2.58c-12.22-9.9-13.27-6.91-3.15,8.97
	l7.37,10.85l28.94-46.88L48.1,906.25c-2.29-0.54-3.08-2.31-3.11-4.65l31-54.12c-5.53,2.78-11.34,5.33-17.43,7.66
	c-4.62,0.25-6.49-0.63-5.16-5.43c8.63-15.15,16.68-30.59,24.15-46.31c-6.51,1.72-14.43,2.9-14.7-5.4c-0.04-1.32,3.45-5.53,5.44-3.73
	c-2.88-4.09,4.91-9.13,9.14-7.98l4.08-2.11c5.21-8.38,8.99-9.56,11.34-3.54l6.45,16.99c3.14-6.95,6.75-13.77,10.83-20.46
	C115.43,775.7,136.88,795.02,141.78,799.69z"/>
<path class="st5" d="M247.9,732.84l-0.25,4.72c-8.39,11.62-14.54,24.63-20.62,37.54l-5.65,5.67c1.84,0.42,2.93,1.96,3.29,4.63
	l29.74-10.28c3.38-1.05,4.18,0.46,5.4,3.34c0.48,1.14,0.86,22.3,0.69,24.76l-2.63,1.96c1.14,0.24,2.28,0.88,2.66,2.05
	c-0.21,27.23-0.42,54.47-0.63,81.71l-2.69,1.59c0.58,0.89,1.29,2.35,0.74,2.85c-12.09,10.89-27.3,23.03-40.36,32.85
	c-3.65,4.21-6.96,5.75-9.93,4.63l-9.54-21.38c6.17,1.51,9.44,5.3,15.02,7.69c-7.72-16.55-12.97-32.62-22.89-46.8l14.87,6.81
	l-23.25-63.79c-6.01,22.52-13.59,41.63-21.97,62.72c7.02,0.37,10.3-4.39,15.44-7.12c-5.09,17.32-14.71,31.36-21.87,48.02
	c6.7-0.56,9.46-6.02,16.15-8.65l-12.2,25.36l-31.85-44.17l34.76,13.87L125.26,841c10.36,2.16,17.53,7.7,27.83,11.04
	c-10.27-18.44-21.78-34.37-30.43-53.85c7.47,2.22,12.9,6.62,20.28,5.32c-0.07-1.46-0.76-2.81-1.16-3.82l-4.72-4.7
	c-11.3-28.8-22.61-57.64-33.94-86.53l-2.26-13.1c-2.57,33.22-15.93,64.69-33.13,92.85c-0.5,1.7-0.31,3.72,0.56,6.07l-3.58,5.82
	c7.01,4.17,11,0.9,18.59-3.67c-7.65,19.98-18.55,37.47-28.86,56.86c11.05-1.72,17.75-8.89,27.97-11.64L46.7,904l35.79-13.5
	l-35.4,57.35c-8.93-11.04-14.99-22.82-19.32-36.03c9.21,2.43,14.03,10.22,23.49,11.33c-7.17-15.04-16.31-28.33-20.35-43.16
	c-1.68-6.71-1.84-14.06,7.14-9.18c-10.18-18.8-17.94-38.42-23.29-58.85l-1.53,0.97c-1.4,11.18-4.59,21.67-9.57,31.47L0,845.09
	V641.52c1.73-0.47,3.46-0.89,5.22-1.11c1.73-0.22,3.44-0.38,5.1-0.18c81.52,10.2,165.12,45.15,234.24,88.46L247.9,732.84z"/>
<path class="st8" d="M406.89,1475.97c-4.47,1.85-9.62,2.17-15.47,0.95c-10.58-3.7-74.57,19.22-75.13,28.94
	c-0.27,4.61,15.39,9.07,19.54,9.33c20.52,1.27,43.26-9.92,59.78-21.29l3.15,0.97c4.88,0.31,12.85,8.92,8.34,12.92l-1.4,4
	c-10.46,5.83-20.18,12.66-29.16,20.48c-3.54,4.82-7.58,8.35-12.13,10.59h-48.28c-2.35-0.71-4.38-2.53-6.08-5.46
	c-17.99-13.96-57.3-1.2-77.01,5.46H0v-154.02c2.4-0.4,4.79-0.74,7.2-0.88c2.39-0.14,4.77-0.23,7.1,0.06
	c39.74,4.87,80.09,13.49,119.12,22.52c69.73,16.13,138.43,36.68,206.7,58.02c12.66-7.17,62.34-14.66,68.6,2.5
	C409.74,1473.85,410.06,1474.99,406.89,1475.97z"/>
<path class="st9" d="M459.13,1406.3l-0.09,3.3c-3.71,1.72-15.09,13.4-12.92,17.37c4.6,8.41,30.69,8.6,39.31,7.4l2.16,2.58
	c-2.49,6.34-14.06,11.24-20.53,9.38c-0.64,2.21-0.96,3.32-0.96,3.32c-10.67,3.5-19.45,9.26-26.34,17.26l-4.32,2.31
	c1.64,0.9,2.27,2.57,1.91,5.01c6.45,18.43,56.59,6.76,70.05,0.18l4.16,1.36c10.32-2.3,19.15,1.6,28.79,1.93
	c19.95,0.68,38.75-5.46,56.79-4.36c-46.62,9.84-92.75,22.5-141.14,26.82c-2.32,0.21-3.37,3.38-4.4,4.02l-4.5,2.37
	c-11.79-0.57-23.63,0.42-35.18,2.85l-4.82-1.63c-0.52-5.4-6.15-8.07-8.34-12.92c-0.54-2.68,0.5-5.71,3.11-9.08
	c0.7-4.64,2.38-7.91,5.03-9.82c0.83-20.02-52.51-12.09-66.87-4.88c-110.41-33.97-226.3-68.07-340.02-82.25v-65.62
	c69.63,4.32,138.7,17.83,207.93,31.93L459.13,1406.3z"/>
<path class="st8" d="M1200,1418.74v124.12H706.92C865.28,1483.63,1032.44,1442.34,1200,1418.74z"/>
<path class="st6" d="M325.79,628.13l1.62,2.32c-20.8,28.2-31.19,42.3-31.19,42.3l-3.09-0.32c-7.99-1.21-11.98-1.81-11.98-1.81
	c-88.97-35.59-180.46-64.93-275.45-78.83L0,589.29V471.43c54.24,18.26,104.24,45.94,156.16,71.44
	C213.33,570.94,273.01,594.14,325.79,628.13z"/>
<path class="st4" d="M293.12,672.43l-1.76,5.4c-10.7,16.44-22.07,33.15-34.71,48.27c-2.38,2.85-5.59,4.85-8.75,6.74
	C172.74,686.22,87.87,652.72,0,641.52v-52.23C104.95,601.85,195.63,634.14,293.12,672.43z"/>
<path class="st8" d="M1200,1198.2v48.25c-44.06-2.64-87.11-12.79-132.51-17.4c-68.9-7-137.82-10.96-206.49-10.72
	c-3.51-1.55-3.54-4.11-0.1-5.79l0.86-2.69c19.22-0.72,38.28-0.68,57.17,0.13l0.92,1.77l1.49-2.56c43.82,4.82,88.19,7.98,133.1,9.48
	c3.97-0.02,41.75-0.53,40.01-1.52c-16.15-9.09-32.81-17.38-50.28-23.63l-5.21-4.58c-3.55-4.78-4.4-16.28-0.78-21.09
	c50.68,6.34,101.72,15.24,153.14,26.7L1200,1198.2z"/>
<path class="st0" d="M1200,1151.24v46.96c-51.16-10.87-102.7-19.46-155.13-26.5c-3.36-0.45-5.55-1.42-6.69-3.84
	c-1.34-1.05-2.44-2.34-2.93-4c-1.04-3.55-0.19-22.16,0.43-26.95l2.67-4.08c3.04-0.49,6.09-0.91,9.15-1.14
	c3.06-0.23,6.09-0.45,9.09-0.21c45.08,3.64,90.38,7.93,134.75,16.56L1200,1151.24z"/>
<path class="st4" d="M451.59,1504.2c7.75,0.69,16.86,9.34,18.35,15.61c2.03,8.5-5.29,16.88-10.5,23.04h-3.24l-1.79-3.03
	c2.95-10.46,3.34-15.31-8.26-17.15c-24.02-3.81-45.3,3.61-64.52,18.01l-7.06,2.17H364.4c9.71-15.92,26.89-25.31,42.68-35.07
	C421.08,1504.28,437.21,1502.92,451.59,1504.2z"/>
<path class="st2" d="M456.2,1542.86h-81.63c21.3-17.81,49.18-29.36,77.37-21.57C461.67,1523.98,458.88,1535.44,456.2,1542.86z"/>
<path class="st6" d="M30.91,880c-5.65-2.29-8.85-7.72-12.56-13.79L6.81,882.88c-2.39,0.42-4.7-0.43-6.81-0.29v-21.43
	c2.7-6.37,5.38-12.75,8.02-19.15l5.22-29.07c-0.06-2.37-0.25-5.13,0.95-8.27c7.62,25.06,17.15,48.69,30.7,72.18l-12.97-5.86
	C33.24,875.61,34.01,878.89,30.91,880z"/>
<path class="st2" d="M316.12,1542.86h-83.09C244.41,1531.33,311.19,1517.86,316.12,1542.86z"/>
<path class="st0" d="M0,861.16v-16.07c6.89-9.51,7.51-22,13.24-32.15C13.67,830.01,12.63,849.25,0,861.16z"/>
<path class="st6" d="M1200,985.57v24.3c-1-0.18-1.98-0.41-2.89-0.79c-3.63-1.55-17.62-22.6-18.69-27.02
	c-1.27-5.24,1.82-5.3,6.07-4.69c1.2,0.17,12.72,4.54,14.22,5.33L1200,985.57z"/>
<path class="st6" d="M1200,1022.09v16.94c-5.75,0.56-17.41-17.26-17.77-21.54C1181.45,1008.35,1198.24,1017.75,1200,1022.09z"/>
<path class="st8" d="M571.88,1174.57c1.76-0.83,3.36-1.73,4.81-2.72c9.47-0.78,18.93-0.87,28.39-0.28l2.91,3.13
	c1.16-0.49,2.34-0.92,3.55-1.18c1.19-0.25,2.34-0.49,3.39-0.29c23.19,4.34,44.62,9.17,67,16.86c1,0.34,1.86,1.15,2.76,1.99
	c0.9,0.85,1.68,1.84,2.41,2.87c0.4-0.96,1.19-2.33,1.84-2.15c4.19,1.18,37,14.06,38.49,15.5l1.24,3.39l3.14-1.72
	c11.6,1.87,23.5,2.17,35.67,0.9l2.47,2.78c5.17,0.35,7.04,2.01,5.61,4.97c-136.5,0.48-257.86,47.78-396.61,57.83
	c-33.34,2.42-66.23,3.21-99.05-4.31c2.98-5.17,6.72-9.65,7.32-16.65c-56.6,0.06-110.97-4.36-166.55-7.6
	c-0.25-4.91,1.56-9.39,5.15-11.84l3.53-2.6c23.33,1.43,40.68-10.76,56.74-25.73c6.9-5.53,14.89-10.07,23.72-11.7
	c5.99-1.11,24.26-2.9,27.27,2.59c0.3,0.55-0.38,1.64-1.33,2.88c-12.27,10-22.73,21.81-32.89,33.85c20.43,1.47,41.49-2.5,58.69-13.7
	c13.18-10.57,27.35-19.02,42.51-25.36c10.47-4.09,20.39-4.47,29.75-1.13c2.61-3.99,6.67,0.44,3.79,3.63l-1.27,4.75
	c-13.82,11.17-25.36,24.1-34.61,38.78l10.89,0.28c16.63,4.24,32.28,3.48,46.95-2.27l46.09-28.47c31.91-17.58,62.34-23.05,97.23-8.78
	c-5.02-2.41-7.08-5.17-6.16-8.28c-0.68-4.37,11.83-9.72,14.87-6.61c-0.16-2.23,1.65-2.07,2.95-0.56c4.43-5.68,16.65-9.06,23.64-7.58
	c0.8-2.83,1.88-3.71,4.22-1.69c0.69-3.93,1.82-4.03,3.98-0.8c3.36-1.95,5.18-2.06,5.45-0.34c1.58-3.84,7.76-5.3,10.78-2.41
	l0.23-1.93L571.88,1174.57z"/>
<path class="st9" d="M326.57,1189.15c3.34-2.64,8.1,2.32,7.2,6.01c-63.96-1.49-56.04,48.11-136.86,42.82
	c11.78-12.99,22.58-27.69,38.58-39.23c-58.02-9.36-48.61,39.68-109.7,37.3c-0.15-1.53-0.16-3.07-0.03-4.6
	c0.11-1.25,0.27-2.49,0.62-3.68c1.86-6.43,27.03-32.93,33.36-35.04c1.17-0.39,2.4-0.6,3.65-0.76c0.38-1.14,0.82-1.11,1.31,0.02
	c0.48-3.61,6.27-7.15,9.43-5.25c-0.03-4.17,1.57-4.79,3.92-1.46c3.39-4.38,8.95-6.39,16.69-6.03l17.74,0.3l3.11,3.04
	c3.35-1.47,8.73-0.09,9.58,3.8c1.93-3.97,9.51,0.26,9.06,4.21c2.44,0.39,4.96,0.61,7.54,0.67c5.91-2.38,11.52-5.37,16.83-8.97
	l2.72,1.52c-0.36-2.51,0.55-2.94,2.3-1.13c0.7-3.61,8.47-5.22,10.88-2.63c0.05-3.69,1.46-3.62,2.72-0.12
	c5.05-5.86,17.43-3.53,24.95-2.1C310.06,1179.36,323,1182.15,326.57,1189.15z"/>
<path class="st9" d="M129.83,1176.06c1.51-3.27,11.84-0.87,12.19,3.95c2.18-3.85,5.66-0.24,6.64,2.94c0.61-2.02,1.13-1.71,1.57,0.94
	c1.95-3.62,9.73,2.3,7.93,5.83l0.13,3.26c-8.6,4.19-17.96,7.11-28.07,8.75c-16.19,12.06-33.68,19.15-52.48,21.27
	c-11.26-0.56-22.53-0.66-33.81-0.29l-2.63-2.42c15.16-24.82,45.29-39.79,73.88-45.67C116.87,1170.62,129.74,1171.24,129.83,1176.06z
	"/>
<path class="st3" d="M530.22,1461.21c-4.22,5.93-11.12,11.86-18.68,14.57c-20.04,7.2-41.75,14.35-62.57,9.71
	c-9.65-2.15-16.99-8.44-13.54-16.26l3.87-2.98c10.22-2.16,20.08-5.54,29.58-10.15l4.87,1.04c-0.23-1.21-0.11-2.76,0.92-3.13
	c11.87-4.25,32.55-7.14,44.68-3.65C524.13,1451.75,533.57,1455.76,530.22,1461.21z"/>
<path class="st8" d="M162.15,1192c0.09-1.22,0.52-1.16,1.24-0.03c-14.11,11.86-26.29,24.87-37.62,39.49l-99.43-2.76
	c4.28-4.33,10.06-7.86,14.95-8.42c31.94-3.66,40.58,9.84,83.57-18.76c10.56-7.02,24.47-3.52,33.28-11.81
	C160.1,1186.98,161.43,1187.74,162.15,1192z"/>
<path class="st2" d="M476.79,1400.89l0.77,1.98c11-1.35,24.75-0.83,32.35,8.46c2.91,3.56,6.46,8.53,2.96,12.62
	c-4.38,5.72-11.29,7.25-17.44,11.5c-0.59,1.55-2.52,1.06-3.91,0.25c-0.04,3.54-1.48,3.64-3.93,1.26
	c-14.31,0.61-32.92,2.87-43.73-8.76c-2.1-8.52,8.48-17.43,15.28-21.9C463.28,1403.57,471.89,1401.63,476.79,1400.89z"/>
<path class="st10" d="M129.83,1176.06c-4.28-1.38-10.23-0.84-14.65-1.46l0.89-45.83l0.62-56.19c5.95-5.81,14.4,7.44,14.81,14.15
	C131.85,1116.8,131.3,1146.57,129.83,1176.06z"/>
<path class="st4" d="M638.72,1402.41l-4.99,3.35c-24.77,3.2-49.55,6.4-74.33,9.61l-1.94-2.45
	C560.64,1387.44,652.62,1378.22,638.72,1402.41z"/>
<path class="st3" d="M638.72,1402.41c-15.85,27.59-79.87,32.25-81.26,10.5L638.72,1402.41z"/>
<path class="st4" d="M491.52,1435.7c1.63,0.33,2.97,0.83,4.02,1.5c11.97,1.42,35.01-2.03,39.28,11.98c1.74,5.68-2,8.38-4.6,12.04
	c-8.76-16.27-45.04-8.06-56.47-4.06c-6.84,1.53-14.05-6.81-6.7-10.81c6.86-2.93,14.08-5.73,20.53-9.38
	C488.87,1436.23,489.99,1435.71,491.52,1435.7z"/>
<path class="st4" d="M743.29,1348.77c-14.52,16.31-56.56,27.73-64.88,8.12c1.34-1.49,2.97-2.99,4.78-3.84
	c13.31-6.27,33.7-12.3,48.31-13.23C737.82,1339.42,749.74,1340.35,743.29,1348.77z"/>
<path class="st2" d="M646.65,1358.49c-2.07,16.86-50.9,34.22-63.86,16.64l2.87-4.15c10.23-5.66,45.85-16.92,56.64-15.11
	C644.03,1356.16,645.44,1357.25,646.65,1358.49z"/>
<path class="st4" d="M646.65,1358.49c-22.01-0.24-43.71,7.88-63.86,16.64C572.15,1353,649.13,1338.36,646.65,1358.49z"/>
<path class="st6" d="M743.29,1348.77c0.15-2.38,0.44-5.34-1.97-5.54l-6.95-0.58c-20.09-1.68-37.07,10.67-55.96,14.24
	c4.72-16.72,61.49-36.48,69.02-14.05C748.33,1345.53,744.86,1347,743.29,1348.77z"/>
<path class="st4" d="M812.91,1297.7c-11.64,15.97-40.5,21.63-55.82,10.61c0.25-1.54,0.59-3.25,1.77-4.19
	c8.01-6.34,42.03-13.83,50.73-9.55C811.03,1295.28,812.16,1296.26,812.91,1297.7z"/>
<path class="st4" d="M677.7,1324.74c-0.8-3.78,2.29-5.05,5.47-5.95c15.73-2.69,31.01-6.5,45.84-11.45
	C748.34,1320.41,683.72,1342.33,677.7,1324.74z"/>
<path class="st8" d="M729.01,1307.34c5.01,8.57-44.73,9.46-51.31,17.4C669.62,1312.6,711.28,1295.35,729.01,1307.34z"/>
<path class="st6" d="M812.91,1297.7c-19.16-2.83-39.59-0.07-55.82,10.61C747.77,1290.9,827.24,1278.04,812.91,1297.7z"/>
<path class="st5" d="M860.9,1212.54c0.28,1.92,0.29,3.86,0.1,5.79l-85.46,0.3l-5.61-4.97c0.23-1.24,0.75-1.38,1.57-0.41l1.24-2.68
	c0,0,23.13-0.06,69.39-0.19l1.62,2.67l12.05-0.74C857.33,1208.82,859.71,1208.9,860.9,1212.54z"/>
<path class="st4" d="M512.87,1423.95c-6.35-32.2-53.72-11.22-36.08-23.05c11.33-1.71,40.51-3.63,43.42,11.14
	C521.59,1419,515.46,1420.56,512.87,1423.95z"/>
<path class="st8" d="M795.8,1268.66l-2.37,4.45c-9.58,2.92-22.1,5.4-32.04,6.52c-1.61,0.18-3.21-0.11-4.71-0.72
	C745.16,1268.44,796.57,1253.64,795.8,1268.66z"/>
<path class="st4" d="M756.67,1278.91c12.2-7.07,27.82-2,39.13-10.25C798.45,1284.19,767.23,1288.69,756.67,1278.91z"/>
<path class="st4" d="M824.05,1265.61c-0.49-3.84,2.58-6.1,9.21-6.76c7.88-0.64,15.44-2.36,22.68-5.17c2.6,0.91,5.4,0.47,6.3,2.41
	C867.49,1267.42,828.84,1274.93,824.05,1265.61z"/>
<path class="st4" d="M866.34,1232.26c-8.1,4.9-22.14,5.49-29.5-0.22c1.91-7.84,8.81-9.55,15.65-9.15
	C857.82,1223.2,867.84,1225.32,866.34,1232.26z"/>
<path class="st8" d="M855.93,1253.68c-6.64,10.51-22.52,3.89-31.89,11.93C813.46,1257.28,841.6,1248.67,855.93,1253.68z"/>
<path class="st4" d="M830.07,1241.67c-5.02,10.83-23.76,9.25-33.08,5.1C804.3,1236.7,821.61,1232.91,830.07,1241.67z"/>
<path class="st2" d="M796.99,1246.77c11.2-0.6,24.79,2.64,33.08-5.1C830.96,1254.36,803.89,1257.19,796.99,1246.77z"/>
<path class="st2" d="M866.34,1232.26c-6.58,8.84-27.57,10.59-29.5-0.22C846.72,1232.72,856.58,1234.36,866.34,1232.26z"/>
<path class="st9" d="M495.43,1435.45l0.11,1.75c-1.46-0.17-3.25,0.09-4.02-1.5C492.66,1435.68,494.39,1435.83,495.43,1435.45z"/>
<path class="st11" d="M619.95,120.36c-0.61,14.85-5.98,27.7-19.87,33.55c-6.5,5.13-7.63,12.86-8.69,20.61
	c-5.09,9.13-5.02,10.81,0.22,5.04c3.69-1.89,7.69-2.63,7.01,2.58c-2.73,4.35-9.87,5.09-13.45,9.45c-2.7,9.03-9.3,17.12-13.23,25.48
	c2.35,12.88,2.41,26.97,6.62,38.73c16.71,46.59,45.46,89.26,67.48,134.11c4.25,4.67-9.3,13.24-13.67,10.09l-2.88-1.16
	c-21.92-40.29-43.64-80.96-65.17-122l-68.24,105.12c-3.6,4.05-11.53,33.7-10.43,35.99c0.34,0.71,1.21,1.16,2.23,1.54
	c-0.85,40.88-1.73,81.91-2.64,123.1l-2.88,9.31l0.34,4.63l-10.94,15.47c-2.35-4.55-3.52-6.82-3.52-6.82
	c-2.23-41.23-2.26-82.46-0.08-123.69l1.64-3.7l-2.67-1.73c2.99-12.57,2.46-15.19-1.57-7.84c-9.41,10.3-18.37-13.98-11.86-20
	l-1.57-2.49c12.48-19.19,24.97-38.39,37.46-57.6l3.12,0.12c21-31.13,42.02-62.13,63.06-93.01c-1.34-18.01,1.99-36.19,8.96-52.74
	c6.41-12.46,11.62-25.34,15.62-38.64c2-17.25,4-34.37,5.98-51.36c9.49,3.13,8.1,19.53,7.65,29.09c24.63-6.78,10.77-45.92,25.6-56.82
	C621.32,97.63,620.41,109.16,619.95,120.36z"/>
<path class="st3" d="M555.94,171.13l0.58,3.16c-5.11,7.95-5.76,17.44-1.93,28.48c-0.2,15.39-1.04,30.81-2.52,46.24
	c-10.66,5.44-19.79,12.8-28.65,20.69l-3.66-0.54c-1.38-0.39-2.91-0.87-3.71-2.07c-4.2-6.28-4.97-26.08-4.32-33.94
	c7.46-2.82,7.68-3.87,8.89-10.96c-12.43-4.75-14.06-20.98-11.64-32.05c5.04-1.98,6.92-4.71,5.65-8.18
	c-1.32-1.53-1.83-3.22-1.52-5.08c-4.89-5.42-5.45-12.77-1.66-22.06l-0.84-3.5c-3.49-0.78-3.22-1.96,0.27-2.59
	c9.11-7.54,19.39-8.24,31.08-3.61C551.58,148.94,557.95,160.47,555.94,171.13z"/>
<path class="st10" d="M586.32,112.51c2.9,13.54-1.84,26.66-2.07,40.35c-0.58,34.15-28.47,48.88-25.99,103.01l-65.57,92.38
	c4.71-10.57,7.07-15.85,7.07-15.85l42.4-65.63l5.15-4.47c-10.4,6.45-20.49,13.36-30.27,20.73l-2.73-1.8
	c-4.36-3.13,2.14-9.96,5.46-12.09c9.76-7.39,16.9-16.19,30.3-21.37c-1.6-16.13,4.33-32.05,1.42-47.62
	c-1.86-9.93-4.85-20.77,4.46-29.04c8.97-7.97,12.59-19.12,12.71-32.2c3.98-0.1,6.22,1.95,8.13,2.46
	C586.24,143.91,579.85,112.79,586.32,112.51z"/>
<path class="st11" d="M510.88,148.74l-0.27,2.59l1.39,2.32c-3.2,7.7-5.82,16.54,1.11,23.24c3.53,1.13,5.32,6.02,4.48,9.11
	c-1.02,3.74-5.18,4.67-7.54,6.46c1.61,12.22,1,23.14,10.56,29.74c-1.45,3.92-3.65,3.4-3.63-0.73c-5.04-2.32-10.42-3.71-16.14-4.16
	c-5.63-3.63-7.66-9.84-6.1-18.63l-2.86-1.79c-18.47-18.12,12.25,2.44-0.44-45.33c-0.71-1.2-0.05-2.63,1.43-2.88
	c0.14-0.4-0.18-0.9-0.13-1.33c2.98-4.55,2.82-14.26,1.49-18.89c-0.96-4.69,4.35-7.72,8.16-5.26c1.47,2.76,4.15,7.6,2.71,12.24
	C503.68,140.62,511.38,143.91,510.88,148.74z"/>
<path class="st5" d="M979.65,93.16c3.86-2.05,8.52,2.51,8.41,5.35c-0.17,4.44-0.58,9.05-4.94,10.62c-3.85,1.38-7.44-1.03-8.45-4.73
	C973.64,100.61,974.8,95.73,979.65,93.16z"/>
<path class="st5" d="M419.05,57.23c5.74-2.41,7.78,0.33,8.72,4.27c0.93,3.93,0.48,8.27-3.32,9.89c-3.6,1.53-7.46-0.27-8.4-3.2
	C414.84,64.4,415.04,58.92,419.05,57.23z"/>
<path class="st5" d="M354.64,132.31c-1.02-0.1-2.37,1.87-2.45,2.83c-2.12,3.51-7.26,3.32-8.95-0.26c0.13-0.62-0.92-1.28-1.43-1.4
	c-0.4-3.81-0.42-7.55,1.89-11.29c2.53-4.1,4.81-2.77,8.48,0.63C354.68,125.13,354.36,129.03,354.64,132.31z"/>
<path class="st5" d="M64.76,81.5c3.63-2.38,7.57-0.2,8.61,2.48c1.33,3.41,1.09,7.76-2.72,9.64c-2.31,1.14-6.27,0.54-7.8-1.79
	C60.86,88.8,61.18,83.86,64.76,81.5z"/>
<path class="st10" d="M502.4,123.2c-2.57,2.03-6.13,2.56-8.16,5.26c-0.51-1.77-2.65-6.19,0.05-7.45c1.6-0.75,3.09-4.97,4.94-4.53
	C502.04,117.14,501.59,121.68,502.4,123.2z"/>
<path class="st12" d="M735.13,408.55c45.11,75.88,91.48,151.22,135.54,227.61l52.1,90.33c-3.76,7.81-9.81,12.87-18.58,14.79
	c-1.46-6.2-4.7-9.88-6.98-14.18l-6.25-7.89c-60.86-104.39-122.08-208.08-183.64-311.08c-2.07-0.43-3.45-1.55-4.12-3.38
	c-5.22-6.94-5.64-18.37-3.95-26.92l-2.93-1.44c-2.39-13.41,3.25-51.66,23.02-37.15c1.97-6.48-1.48-10.42-8.11-8.83l-2.7-2.09
	c-7.21,2.17-7.03-5.36-5.67-11.06c2.52-4.83,4.41-9.68,5.68-14.56c-0.55-3.56,0.7-7.34,3.73-11.34c2.31-8.04,6.28-14.52,11.91-19.45
	c7.91,6.24,6.99,22.39-0.57,29.1c-3.99,3.54-9.28,4.67-9.88,8.35c-0.73,4.53-1.73,12.26,1.21,14.37c7.21,1.28,13.13,2.18,16.33,8.12
	c2.7,5.02,4.14,11.5,0.51,16.84c-3.85,0.59-9.42,0.23-12.61-0.49C711.69,373.05,724.09,389.97,735.13,408.55z"/>
<path class="st10" d="M724.18,271.89c-5.81,9.66-8.46,21.9-15.65,30.79l0.26,1.77c-5.5,7.88-7.52,15.95-6.09,24.2
	c2.2-1.59,4.14-1.7,5.82-0.34c4.44-1.31,10.1-1.6,12.58,2.44c2.52,4.12,1.82,10.47-2.28,13.27c-1.55-3.06-3.19-5.63-5.83-5.97
	c-10.72-1.34-16.59,23.32-13.74,39.77c0.47,6.45-3.91,16.27-10.74,15.62l-9.03,6.89c-25.62,13.69-51.11,27.5-76.46,41.41l-4.2,0.28
	l-2.41-2.07c-0.52-7.39,3.14-27.24,13.12-25.98l-0.09-3.09c6.63-4.05,13.26-8.11,19.89-12.17l3.03,1.29
	c4.81-2.94,11.69-4.81,13.67-10.09l44.51-25.36C692.84,323.81,684.47,288.84,724.18,271.89z"/>
<path class="st5" d="M837.22,291.55c4.26-2.18,8.31,0.7,9.12,3.92c0.91,3.63,0.54,8.19-3.81,10.25c-2.66,1.26-6.8,0.02-8.13-3.45
	C833.23,299.21,833.08,293.67,837.22,291.55z"/>
<path class="st5" d="M1074.56,326.52c3.5-2.82,8.24-0.88,9.37,1.7c1.47,3.33,1.04,7.39-1.13,9.43c-2.91,2.73-7.36,1.75-8.92-0.68
	C1071.98,334,1071.38,329.08,1074.56,326.52z"/>
<path class="st5" d="M988.73,380.18c3.75-2.47,7.65-0.91,9.07,2.28c1.36,3.04,0.29,7.7-3.1,9.6c-2.19,1.23-5.63,0.86-7.38-1.75
	C985.48,387.57,985.32,382.42,988.73,380.18z"/>
<path class="st13" d="M598.61,182.14c-4.99-4.35-7.63,3.23-14.3,6.6c-2.26-6.73,5.05-11.53,5.18-18.6
	c0.14-7.34,4.42-13.64,10.58-16.23C586.14,174.07,612.68,178.47,598.61,182.14z"/>
<path class="st5" d="M1141.26,153.76c5.39-1.8,8.71,2.95,9.24,6.36c0.74,4.76-0.67,9.17-5.32,10.49c-4.22,1.2-8.16-1.75-8.98-5.59
	C1135.32,160.83,1136.22,155.44,1141.26,153.76z"/>
<path class="st5" d="M1083.49,511.33c4.44-1.08,7.08,2.92,7.51,5.41c0.71,4.06-1.07,7.6-4.33,8.21c-4.28,0.79-7.31-1.05-7.94-4.93
	C1078.24,516.98,1079.09,512.4,1083.49,511.33z"/>
<path class="st5" d="M873.17,464.22c4.79-1.65,7.86,1.37,8.15,5.2c0.24,3.15-0.27,6.88-4.83,8.18c-2.61,0.74-6.48-0.92-7.23-4.7
	C868.75,470.39,869.2,465.58,873.17,464.22z"/>
<path class="st9" d="M688.51,393.45c-4.1,9-9.79,17.33-17.08,24.98c-57.32,78.08-113.85,156.53-169.61,235.35
	c-4.43,7.8-10.1,13.49-17.02,17.09l-0.5,3.11L294.31,752.7c-3.34,2.23-5.89,2.32-7.65,0.27c-18.41,4.28-35.85,11.8-52.05,21.47
	c-0.32,3.96-10.24,9.71-13.23,6.34c7.06-14.69,15.49-34.22,26.52-47.93c15.6-19.39,30.28-40.16,45.22-60.42l32.67-44.29
	c15.63-21.2,32.17-42.3,48.99-62.72l2.68,3.04c2.11,15.74-1.01,33.9-5.77,48.82c-0.38,1.2,0.52,1.67,1.97,1.47
	c6.71-6.79,12.43-14.66,17.17-23.6l3.13,0.52l0.53-3.31l61.77-32.58c8.36-1.11,5.91,10.12,4.63,15.82
	c-6.68,15.62-5.96,17.4,2.15,5.36c2.19-4.74,5.1-7.72,8.72-8.95l10.05-13.58l93.07-91.05c5.61-6.39,11.3-12.66,17.08-18.82
	c-1.27-3.94,3.15-7.45,6.87-6.54C628.81,425.6,657.95,406.37,688.51,393.45z"/>
<path class="st9" d="M492.69,348.26l-39,59.97c-0.09,1.19-0.45,1.21-1.08,0.13l-1.39,1.42l0.69,2.75
	c-31.42,20.51-62.85,41.02-94.28,61.54l-2.82-1.36c-6.96-5.6,40.82-61.77,44.25-73.46c13.34-16.88,25.5-35.12,36.55-53.61
	c2.26-5.86,6.09-14.47,11.95-16.18l1.55-3.51c9.43-7.24,18.95-14.3,28.56-21.19c3.95,2.57,7.47,3.04,10.57,1.4
	c2.45-2.64,4.88-3.46,7.3-2.46c3.81-7.45,8.65-14.51,14.54-21.2l4.21-1.26c12.45-4.37,18.21-18.6,35.01-20.45
	C529.76,290.3,511.36,319.55,492.69,348.26z"/>
<path class="st13" d="M469.79,437.8c-0.63,2.32-2.57,2.6-5.82,0.86c-0.46,2.86-1.77,4.51-3.95,4.95l-1.21,3.65
	c-21.92,13.53-43.61,27.15-65.05,40.84l-0.18,79.35l54.71-28.87c2.96-1.83,6.24-2.12,9.62-1.32l-1.39,4.66
	c-19.39,12.29-39.6,23.19-60.64,32.71c-0.66,6.1-0.62,12.15,0.11,18.16l-2.03,2.88c-6.89,7.18-10.47,20.08-20.3,23.08l-0.99-3.24
	c5.2-7.42,10.19-15.62,10.33-24.95l0.36-92.44l-1.88-5.72c-2.84-2.72-4.94-5.64-6.3-8.78l-5.3-8.22l-23.63,13.25
	c-2.3-3.83-3.13-8.35,1.15-10.42c2.21-1.07,4.59-3.68,7.41-5.52l96.41-62.93l1.39-1.42l1.08-0.13c-0.45,6.51,1.78,16.01,6.28,20.85
	c6.65-3.6,7.62-10,12.21-13.37C473.36,423.96,469.5,431.11,469.79,437.8z"/>
<path class="st10" d="M373.66,618.75c-1.74,2.45-4.61,4-7.16,3.49c10.07-18.1,8.19-38.07,8.28-56.83l0.41-81.79
	c6.06,2.55,10.95,8.42,10.91,15.95l-0.43,91.05C385.63,601.34,379.24,610.9,373.66,618.75z"/>
<path class="st5" d="M211.83,402.68c4.7-2.6,9.17,0.47,10.22,4.11c1.18,4.08,0.42,9.26-3.74,11.44c-3.45,1.81-8.17,0.21-9.56-3.29
	C207.2,411.04,207.24,405.22,211.83,402.68z"/>
<path class="st5" d="M129.09,460.06c3.21-1.76,7.28-1.44,9.05,2.19c1.12,2.3,0.73,6.38-2.37,8.77c-2.41,1.86-6.62,1.46-8.47-1.58
	C125.61,466.67,125.75,461.88,129.09,460.06z"/>
<path class="st11" d="M431.24,238.78c3.52,6.01,4,13.34,1.44,21.97c0.37,6.57,4.39,12,12.04,16.31c4.85,13.67,6.56,28.34,5.15,44.01
	l-2.45,2.96c4.14,1.42,3.16,2.92,0.14,5.45c-1.82,6.73-8.66,10.67-11.95,16.18c3.7-16.46-0.09-33.22-0.56-49.55
	c-2.65-6.11-6.54-11.1-11.68-14.96c-5.21-1.91-8.44-4.59-9.69-8.04c1.97-1.9,2.2-6.45,0.68-8.81c-6.27-9.73-15.68-0.87-20.43-9.74
	c-7.42-13.84-7.72-29.31-9.23-46.46c17.89,5.21,2.78,25.39,22.59,38.31c2.19-7.93,1.49-15.03,1.93-22.66
	c13.17,0.79,2.11,23.62,15.17,35.43C431.07,252.9,423.66,241.11,431.24,238.78z"/>
<path class="st10" d="M497.98,234.09l2.63,1.32c-0.73,20.81-1.45,41.62-2.18,62.44l-2.88,5.85c-5.16,4.54-10.16,9.68-17.68,3.35
	c-10.8,7.66-19.22,17.1-30.31,22.41c0.43-1.82,0.04-3.64-0.14-5.45c1.12-3.87,6.16-8.51,9.65-10.41
	c8.16-2.5,14.59-11.22,21.99-16.78c5.32-19.32,9.28-38.93,9.8-58.48C482.3,235.57,497.09,228.9,497.98,234.09z"/>
<path class="st12" d="M457.07,313.6c0.09,4.41-5.74,9.43-9.65,10.41c-1.36-13.93,1.49-28.31-3.27-42.38
	c-2.3-6.81-11.56-9.78-13.4-16.64c-2.39-8.92,3.47-17.89,0.49-26.22c12.66,5.68-1.24,25.03,5.99,29.96l11.2,7.63
	C459.13,283.66,453.09,301.42,457.07,313.6z"/>
<path class="st10" d="M516.99,221.47c-0.25,1.15-0.93,2.62-1.88,2.53c-5.91-2.08-11.56-2.17-16.96-0.28
	c5.35,6.8-10.36,13.6-15.55,10.37c-11.49-12.01,14.12-8.18,9.3-37.2c9.62-5.99,2.84,10.06,6.5,14.98
	C503.22,218.37,515.23,216.58,516.99,221.47z"/>
<path class="st5" d="M227.7,153.66c4.56-1.44,7.6,2.15,8.04,5.17c0.6,4.17-0.24,8.6-4.75,9.68c-3.56,0.85-6.81-1.02-7.74-4.99
	C222.47,160.22,222.85,155.19,227.7,153.66z"/>
<path class="st11" d="M498.14,223.72c8.39-4.36,8.79,13.29-0.17,10.38c-2.81,0.14-9-0.08-9.11,4.24c-2.83-0.21-4.49-2.38-6.27-4.25
	C490.61,231.64,495.37,232.35,498.14,223.72z"/>
<path class="st1" d="M352.19,135.14c-0.16,2.07-1.91,4.4-4.45,3.81c-2.59-0.61-5.13-1.01-4.51-4.07
	C345.97,136.8,349.25,136.55,352.19,135.14z"/>
<path class="st13" d="M435.05,296.08c-10.28-12.2-36.3-8.65-21.37-23C426.48,278.92,434.69,283.67,435.05,296.08z"/>
<path class="st5" d="M273.55,287.66c4.08-2.18,8.28,0.29,8.91,3.69c0.6,3.29-0.15,7.32-3.79,9.13c-2.67,1.33-6.91,0.1-8.28-3.34
	C269.29,294.37,269.76,289.69,273.55,287.66z"/>
<path class="st13" d="M897.21,727.1c-9.14,0.44-17.78,3.89-26.76,5.48l-3.03,0.63c-4.2-7.52-9.52-13.41-15.97-17.68
	c-1.11,37.94-1.49,75.88-1.13,113.81l-1.5,6.44c-3.36,4.22-14.47,3.23-19.13-0.12c-2.35-8.36-4.44-16.79-6.26-25.31
	c-1.85-3.37-4.05-6.52-6.61-9.46c-1.54,3.26-6.2,6.43-9.37,8.38l-5.25,3.24c-20.17,3.65-40.11,8.1-59.81,13.34l-3.19-0.96
	c-27.18-3.17-55.32-6.18-84.43-9.04l-1.31-2.83l-2.68-0.92l-0.25-112.38c-5.34-1.89-10.88-2.95-16.6-3.17l0.72,113.35l-2.66,1.66
	c-1.43,3.33-2.69,3.27-3.74-0.25l-2.68-0.92l-0.16-114.14c-4.1-1.73-8.55-2.42-13.35-2.07c-0.25,37.72-0.26,75.48-0.01,113.26
	l-2.67,1.63c-0.9,3.45-1.9,3.12-2.85-0.26l-2.68-0.91l-0.76-114.17c-6.02-1.81-11.4-2.03-16.13-0.66l0.89,111.52l-2.67,1.64
	c-1.72,3.22-2.61,3.15-3.93-0.27l-2.68-0.94l0.39-114.1c-5.93-1.51-11.97-2.21-18.13-2.1c-0.36,37.41-0.24,74.96,0.37,112.64
	l-2.67,1.64c-2.14,3.09-3.33,2.87-3.97-0.84l-1.5-7.28c-0.26-71.67-0.38-107.51-0.38-107.51c-1.65,1.53-9.6,1.41-11.53,0.06
	c0.5,34.65,0.59,69.56,0.56,104.28c0,3.19-1.07,6.28-2.14,9.25c-1.94,3.3-3.99,3.18-5.54-0.33l-2.68-0.92l-0.46-113.4
	c-10.5,9.52-14.76,18.35-16.46,32.38l-3.13,1.63l-0.28,3.02l-10.27,4.28c-0.29,24.46-0.69,50.09-1.19,76.87
	c-0.3,9.67-2.7,12.81-7.22,9.44l-0.21-82.98c-3.58,1.71-6.57,2.13-8.96,1.25c-0.66,3.28-2.65,4.05-5.12,1.53
	c-2.29,3.69-6.53,6.04-12.72,7.04c-4.1,2.57-7.84,3.36-11.24,2.38c-0.35,3.7-1.39,3.79-3.06,0.47l-1.28,3.33
	c-1.33,1.01-29.75,11.79-31.32,11.26c-1.07-0.36-3.64-2.21-3.93-3.42l0.21-9.89c-8.44,3.61-17.03,6.37-25.75,8.27
	c0.36,0.25,0.67,0.58,0.73,1.03c0.54,3.67,0.88,13.4-2.76,14.64c-0.97,3.63-3.63,3.08-5.24,0.05l-1.55,3.37
	c-10.74,2.39-20.75,6.22-30.01,11.48l-3.53-0.61c-0.44,3.89-5.17,4.13-6.36,0.42l-2.72-1.43c1.87-7.66-1.74-9.01-10.83-4.05
	c-3.02,2.13-5.67,2.57-7.95,1.32c-1.6,5.1-2.64,10.36-3.09,15.79l-2.12,0.49l-1.62,3.15c-4.94,0.7-9.6,2.13-13.99,4.3l-2.45,70.41
	c-1.68,1.45-3.55,0.78-5.39-0.41l-0.45-68.07c-2.61,3.52-3.15,8.82-1.62,15.9c-6.39,11.21-8.08-5.27-8.44-11.64
	c-5.16,3.54-7.4,9.57-6.73,18.09c1.32,17.69,0.93,35.03-1.17,52.01c-7.62,6.87-7.59-16.68-6.82-20.72
	c2.89-16.47,2.61-32.16-0.84-47.08c-2.9-2.04-4.95-4.21-6.14-6.52l-0.78-28.15l-34.66,11.98c-0.4-2.7-1.94-6.41-1.06-8.24
	c4.46-1.68,8.63-5.09,13.23-6.34c16.35-9.22,33.73-17.13,52.05-21.47l198.14-82.1c1.15,0.09,2.22,0.53,2.69,1.6
	c2.64,5.94,5.31,9.77,9.86,12.69c7.8-7.63,15.28-15.58,22.45-23.83c57.99-79.48,114.76-161.31,171.1-242.54
	c3.55-5.12,7.88-9.64,12.28-14.03c2.44-0.66,6.43,0.67,8.31,4.03C771.53,516.19,839.75,619.17,897.21,727.1z"/>
<path class="st12" d="M870.44,732.58l-0.66,76.39c-0.08,9.65-1.64,19.42-0.75,29.13l-1.73,2.7c-4.43,0.9-19.34,1.15-18.5-5.02
	c-1.93-40.31-1.59-81.07,0.18-123.81C860.92,714.59,864.02,725.79,870.44,732.58z"/>
<path class="st5" d="M1039.71,678.98c4.11-2.03,7.39,1.08,8.18,3.99c1.02,3.77-0.53,6.88-3.91,9.34c-3.13,2.27-5.21-0.66-7.14-3.64
	C1034.99,685.8,1035.88,680.86,1039.71,678.98z"/>
<path class="st13" d="M877.56,847.93l-0.66,8.97l-1.58,2.64l-27.95-0.64l87.12,145.1c2.39,6.66,1.61,12.85-5.46,16.01
	c-3.06,1.37-6.36,2.04-7.75-1.48l-2.17,2.52l-13.87-2.86c-5.37-1.68-7.15-0.25-5.36,4.29l18.04-0.16l2.22,2.74l1.78-2.59
	l154.91,8.27c3.75-0.33,6.39,1.12,9.45,3.19c6.76-2.58,7.99,7.85,1.15,11.58c-16.02,1.48-31.91,2.85-47.66,4.12l1.26,81.58
	l-2.65,1.64c0.18,11.6-1.15,23.38-0.18,35.02c0.59,7.03,1.39,14.03,0.78,21.09l-5.92,1.01c-34.89-9.86-77.42-9.7-108.04,10.46
	c-1.06,4.01-2.83,6.63-5.33,7.86c-5.95,4.88-10.26-12.23-4.73-15.05l-2.81-1.35c-1.86-9.53-11.34-14.88-20.06-17.19l-1.18-3.01
	c-1.94-5.97-2.91-8.96-2.91-8.96c0.85-42.22,0.74-84.41-0.34-126.59c-1.16-25.45-5.81-33.47-23.6-50.5
	c-8.16-6.24-15.42-13.1-21.78-20.58c-0.33-8.38,23.58-5.88,28.66-5.1l-5.55-10.58c-12.91,0.34-25.76-0.3-38.56-1.92
	c-4.12-2.19-5.89-6.46-5.3-12.82c1.26-18.38,0.62-36.42-1.91-54.11c-3.55-8.1-7.03-9.51-8.68,0.14c-0.66,21.3-1.89,42.55-3.71,63.73
	c-10.13,3.94-21.04,4.81-32.71,2.61c-6.38,0.56-8.37,4.06-10.38,9.66l14.45,1.01c5.17,0.39,12.29,2.47,8.16,8.13
	c-16.65,9.78-31.28,21.66-43.89,35.63c-5.04,13.21-13.1,20.46-24.18,21.74c0.02,4.05-1.07,6.83-3.27,8.36l2.6,5.5
	c0.77,5.09,0.3,29.88-1.17,33.74c-1.59,4.17-2.8,3.45-6.41,1.27c-7.35-17.21-18.43-30.03-33.24-38.46
	c32.75,31.49,44.96,73.81,39.72,118.09c0.43,6.53,0.67,13.03,0.72,19.5c-8.79,2.17-16.31,5.99-22.55,11.45l-2.57,3.46
	c-1.11,4.21-2.91,7.17-5.4,8.88c-25.28-10.18-52.21-15.45-79.11-20.26l-2.31-5.15c-0.36-23.15-0.54-34.72-0.54-34.72
	c-3.47-0.5-5.02,2.13-4.66,7.89c-4.99,3.33-7.29,0.46-6.89-8.61l-2.04-0.48l-2.35,33.64c-3.54,2.65-6.47,1.02-6.42-3.32
	c-0.13-10.28-0.19-20.54-0.16-30.78c-1.87-1.5-2.85,0.35-2.95,5.56c0.28,9.59,0.13,19.18-0.44,28.77c-0.42,4.69-1.6,8.55-6.89,4.94
	l-0.43-39.05c-1.02-0.63-3.83-0.99-4.23,0.33c-0.54,1.79-1.63,34.43-1.13,36.17c4.86,0.42,6.64,1.98,5.34,4.67
	c-2.79-0.04-6.64-0.7-9.3,0.26l-2.81-3.99c0.41-12.82,0.2-25.61-0.61-38.38c-1.33-0.19-2.69,0.07-3.88,0.53
	c0.98,13.83,0.91,27.63-0.22,41.41l-3.26,2.83c-1.68,0.13-3.88-0.28-5.45,0.34c-1.05-1.54-0.61-3.01,1.33-4.42l0.76-40.19
	l-3.56-0.06c-0.17,14.57-0.14,29.19,0.09,43.86l-2.59,1.6c-1.37,0.75-2.81,1.09-4.22,1.69l-2.02-6.68
	c0.96-13.77,1.25-27.56,0.87-41.38c-2.6-0.16-5.39-0.11-8.39,0.17l-1.07,48.54c-1.67,1.42-3.48,0.96-5.41,0.01l-1.65-48.8
	c-1.51-0.87-3.32-1.04-5.43-0.51c-0.71,17.12-0.96,34.55-0.74,52.29l-2.68,1.56c-3.02,1.33-4.66-0.26-4.93-4.77
	c-0.57-15.35-0.68-30.73-0.33-46.14c-0.76-6.86-6.07-5.88-6.78,1.88c1.68,14.39,1.85,28.76,0.53,43.11
	c-1.13,5.29-2.98,11.87-7.96,5.95c1.03-18.51,0.94-36.99-0.29-55.42c-4-1.01-5.8,2.09-5.4,9.3c1.68,15.95,1.48,31.54-0.62,46.78
	l-3.4,0.59c-1.56,3.65-3.59,2.25-2.92-1.39l-1.68-2.08c2.09-15.12,2.65-32.41,1.41-47.68c-1.06-13.07-3.95,2.13-3.44,7.67
	c0.52,25.15,0.78,37.73,0.78,37.73l-2.45,1.89c-1.15,4.22-5.59,2.24-5.79-1.84l-3.44-2.62l-1.93-15.2l-1.95-139.39
	c-9.45-2.11-18.08-1.18-25.9,2.79l-2.92-0.99l1.66,3.05c-1.87,11.45-2.39,23.23-1.56,35.32c0.16,1.87-1.3,2.78-3.1,3.43l-3.02,2.98
	c-2.81,0.76-18.01,2.87-20.71,2.82c-1.43-0.03-2.69-0.89-3.81-1.7l-2.77-2.71c-1.19-4.97-2.49-17.49,1.7-20.32l-2.44-3.01
	c0.49-7.84,1.04-15.49,1.67-22.96c-7.22,1.45-14.63,2.52-22.24,3.19l-3.65-2.31c-1.11,1.38-1.27,2.55-1.45,4.21
	c1.03,0.14,2.54,0.42,2.67,1.18c1.15,6.86-0.19,17.79-2.8,24.2c3.88,0.54,3.3,12.04,2.72,15.57l-2.67,1.82
	c2.82,8.25,0,10.46-8.34,7.21c-7.32,0.35-14.64,1.27-21.95,2.75c-1.06,6.88-1.15,14.06-0.27,21.53l-2.82,1.83
	c3.45,4.94,2.6,12.97-1.56,17.28l2.48,6.68c0.89,22.25,1.53,44.41,1.92,66.48l-1.7,3.4c0.51,3.45,0,3.62-2.62,1.43
	c-0.4-2.1-2.19-2.77-3.79-3.63c-2.61-1.41-4.82-4.48-7.2-6.01l-2.64-2.54l2.23-134.29c-5.29-8.71-7.66-8.48-7.11,0.68l-0.65,22.54
	l-2.93,2.4l-1.24,2.84l-26.49,3.04c-0.67,6.81-0.95,13.72-0.84,20.74l-2.71,1.87c0.68,4.12-11.4,4.69-12.5,0.76
	c-3.63-0.4-6.64-4.73-2.99-7.21c-0.38-4.17,8.4-4.2,10.16-3.08l-0.1-33.14l2.51-5.66l-2.7-2.43c0.49-4.95,0.37-9.81-0.37-14.57
	l-17.41,2.01c-0.47,5.4-0.55,10.87-0.24,16.41l-2.82,2.61c3.97,0.51,3.19,6.02-0.54,6.48l-0.23,2.82c3.86,2.36,3.81,9.74-0.08,12.05
	l-0.71,2.84l-27.04,4.79c-1.1,5.73-1.39,11.56-0.88,17.47l-2.71,1.81c1.02,0.18,2.51,0.5,2.63,1.27c0.55,3.53,0.47,15.05-3.31,15.94
	c0.64,1.39,1.23,2.79,1.65,4.23c0.41,1.4,0.76,2.8,0.8,4.2c0.37,13.88,0.55,28.02,0.44,41.9c-0.01,1.4-0.39,2.8-0.82,4.22
	c-0.44,1.45-1.06,2.85-1.73,4.23c-3.36-0.82-7.34-1.25-9.58-3.8c-1.12-0.11-2.64-0.59-2.63-1.44c1.8-37.31,2.03-74.62,0.68-111.93
	c0.27-4.8-1.1-6.38-4.1-4.73l-1.21,22.29l-2.78,1.73l-0.75,2.83c-8.71,1.39-17.43,2.77-26.15,4.16l-2.31-2.34
	c-1.25-0.52-1.22-0.99,0.07-1.42c-2.05-7.31-2.88-14.99-2.49-23.06l2.74-2.42l-2.56-1.61c3.84-12.83-0.17-16.74-12.04-11.74
	c-0.81,3.17-0.83,6.57-0.06,10.19l-2.64,1.78c3.56,0.35,3.32,1.6-0.11,2.5c-0.7,2.25-1.06,4.63,0.01,6.83
	c0.66,0.11,1.29,0.27,1.78,0.62c0.94,0.67,1.45,20.86-1.85,22.27c-0.15,1.03-0.46,2.56-1.2,2.66c-2.77,0.37-16.7,0.08-17.97-1.25
	c-0.43-0.45-0.66-1.1-0.82-1.8l-2.48-0.59c-0.54,26.75-1.45,53.48-2.72,80.19c-2.36,0.93-3.75,0.84-4.18-0.26l-0.92-87.72
	c-0.08-7.23-6.02-15.11-12.22-15.76c0.05-4.82,1.15-9.79,0.39-15.39c-7.3-2.97-24.41,4.78-27.19,0.09
	c-0.76-1.29-1.27-3.44-1.58-5.31l0.81-2.85l335.45-56.76c1.93-2.15,3.66-2.56,5.2-1.21c1.81-1.38,4.13-1.31,6.98,0.23
	c4.44-0.17,7.12,1.01,8.04,3.53l1.79-2.57l173.22,10.6c2.13-3.88,4.5-5.97,7.14-6.29c1.54-3.22,2.58-2.6,2.18,0.92
	c3.73-0.39,3.63,1.64,0.19,2.84l1.76,2.62c-0.56,5.66,4.7,9.42,9.89,10.43l76.23-4.63c29.95-49.92,61.82-99.93,95.61-150.03
	c2.17-5.85,4.65-7.22,9.17-5.5l90.07,147.95c3.79,4.94,7.71,6.71,11.77,5.31l-93.89-158.14c-0.09-3.19,0.16-5.21,3.75-5.21
	c13.08,1.51,26.19,2.28,39.32,2.31L877.56,847.93z"/>
<path class="st13" d="M514.5,1187.64c-0.81,0.25-2.34,0.01-2.95,0.56c-3.51-0.78-3.39-1.97,0.06-2.92
	C513.38,1180.77,518.49,1184.41,514.5,1187.64z"/>
<path class="st14" d="M876.89,856.9l99.47,79.22c1.47,0.29,2.92,0.63,4.3,1.14c1.36,0.5,2.68,1.02,3.75,1.84
	c35.44,27.28,72.06,56.25,100.55,90.59l1.29,4.23l-166.13-8.87c-2.46-2.41-2.23-5.24,1.14-6.53c3.75,0.13,8.53-0.62,10.63-4.11
	c1.69-2.82,1.69-6.9-0.55-10.63l-88.8-147.69L876.89,856.9z"/>
<path class="st11" d="M848.82,835.77c6.26,3.7,13.06,2.29,20.22,2.32c5.01,0.02,8.85,5.38,8.52,9.83
	c-14.95,1.22-30.22-0.99-46.2-2.29l95.32,159.92c1.2,4.09-7.03,5.37-8.92,3.65c-2.11-1.92-6.03-3.25-8.26-6.92L819.17,853.9
	c-34.81,53.35-68.99,103.2-100.25,157.5l-75.94,4.79c-8.75,0.55-17.86-8.78-13.69-15.79c1.69-3.19,13.26-5.72,14.76-1.7l4.36-3.02
	c19.43-1.48,38.86-2.96,58.29-4.45l1.77,2.55c5.81,0.55,10.19-3.8,13.15-13.06l2.87-0.49l-1.04-1.82
	c26.34-40.38,53.18-80.45,80.53-120.2l3.8-7.67c0.58-5.04,2.29-8.29,5.15-9.77l-2.1-3.53c2.76-10.89,4-21.9,3.71-33.01l2.27-3.36
	c11.96,1.17,10.8,21.43,14.79,33.1C836.12,837.3,843.94,834.38,848.82,835.77z"/>
<path class="st6" d="M1050.07,875.74l-3.96-0.24l-14.62-15.57l-5.18,14.51c-2.3,2.08-4.12,3.18-6.16,0.53l-10.23-17.61
	c-1.56,4.86-4.94,9.25-10.46,7.14l-8.66,9.23l-3.81-0.31l-7.65,0.22c5.68-12.38,13.51-23.01,17.65-36.55
	c-5.26,1.67-7.15,6.72-12.91,6.54c14.04-29.06,23.72-57.65,34.93-88.77c9.07,30.78,19.57,59.39,33.22,88.8
	c-7.4-0.3-8.71-6.59-14.32-9.23c4.97,15.08,13.17,27.53,20.56,41.32C1054.9,877.8,1052.34,873.96,1050.07,875.74z"/>
<path class="st6" d="M1122.18,908.65c1.86,20.77-14.68,5.33-17.51-5.79c-4.2,7.7-9.42,14.01-15.65,18.93
	c-3.1-2.54-3.99-6.18-2.69-10.94c-5.04-4.87,10.86-10.94-21.82,7.39l19.89-33.03c-6.22,0.41-10.15,4.69-15.59,3.83
	c13.02-29.77,27.56-56.74,34.38-88.34c9.96,30.23,21.11,59.81,33.99,89.28c-5.27-0.3-8.31-3.49-13.47-4.81
	c4.23,11.82,11.41,21.45,17.91,32.29C1132.73,917.24,1129.25,905.99,1122.18,908.65z"/>
<path class="st6" d="M1178.59,946.71c-2.25,0.8-5,0.36-8.24-1.34c-5.41,1.08-8.89,0.29-10.45-2.39c-3.96-0.76-8.1-3.14-16.22,4.43
	c3-9.65,6.35-17.49,7.16-24.14c2.03-16.68,13.36-33.21,17.03-53.47c6.54,21.42,14.33,39.96,25.16,59.45l-11.85-3.53
	c7.17,8.2,14.8,16.86,18.16,27.84C1190.49,953.62,1186.06,944.47,1178.59,946.71z"/>
<path class="st7" d="M1050.07,875.74c0.25,4.3,4.04,7.66,3.15,12.45c-5.31-2.72-7.17-7.74-13.98-9.31l27.22,52l-23.91-12.39
	c5.08,17.6,15.62,31.74,25.72,46.9c7.55-10.37,13.26-19.76,18.74-30.8l-20.73,13.31c8.3-11.23,12.93-24.8,20.06-37.05
	c2.34,2.26,1.65,4.91,2.88,9.36c5.25-8.15,11.7-14.71,15.93-24c2.69,7.97,5.59,15.72,13.03,20.89c2.75-2.91,2.56-5.81,4.01-8.45
	l20.08,38.34l-18.93-7.61l20.98,30.1c5.39-8.94,11.96-17.14,15.59-26.5c5.14,0.63,12.66-2.83,18.69,3.73
	c6.82,10.6,12.91,21.82,21.41,31.14v7.71c-6.91-0.6-12.29-5.07-20.37-6.78c6.12,11.67,12.95,21.71,20.37,31.08v12.22
	c-5.56-0.45-9.19-4.94-16.04-7c3.94,8.8,9.63,16.97,16.04,23.94v112.22c-53.53-8.67-107.54-14.68-161.64-18.4l-1.33-86.13
	l46.45-3.11c3.05-0.2,4.91-1.08,5.66-3.63c0.89-3.05-1.24-4.13-2.87-6.05c-31.33-36.79-71.66-67.35-109.9-97.8
	c5.12-8.88,11.97-16.55,16.02-26.6c-6.56,3.67-11.22,8.89-17.39,13.43c5.4-16.96,16.38-29.81,24.66-46.02
	c-6.45-0.26-10.75,3.74-16.68,5.78c1.01-3.48,2.72-6.73,4.03-9.29c4.47-3,7.6-9.97,12.2-11.47c7.13,2.35,7.33-4.21,9.84-10.64
	c5.29,7.65,10.09,15.02,14.13,23.99l7.57-21.21C1036.64,862.93,1043.65,868.97,1050.07,875.74z"/>
<path class="st9" d="M507.88,821.13c-0.13,2.28-0.31,4.56-0.69,6.8c-0.38,2.23-0.78,4.43-1.57,6.48
	c-18.81,49.07-43.02,98.25-67.41,144.84c-1.02,1.95-2.41,3.71-3.83,5.48c-1.43,1.78-3,3.43-4.62,5.06l-3.29,0.2
	c-5.9-6.62-14.8-9.51-23.52-8.29l-96.19,20.17c-11.04,5.81-22.26,9.45-33.66,10.9c-16.03-3.72-33.09-5.24-47.61,3.97
	c-7.92,6.36-16.78,10.34-27.06,9.61c-15.14-3.33-29.93-3-44.37,1c-19.65,7.42-39.55,12.42-59.7,15l-1.96-2.85
	c35.77-38.51,74.81-75.71,115.25-108.62l49.56-40.33l0.88-3.02c82.49-22.84,164.98-45.68,247.47-68.51L507.88,821.13z"/>
<path class="st8" d="M429.76,989.78c1.17,0.39,1.15,0.84,0,1.35c-1.41,0.42-2.02,3.37-4.51,3.79l-336.95,57.04
	c-4.65-0.96-2.8-4.33-0.81-7.4c1.19-1.83,3.24-3.27,4.92-5.08c21.22,2.73,64.3-21.5,88.2-18.11c14.49,2.06,26.76,5.56,39.71-4.32
	c14.79-11.28,32.3-11.69,50.13-7.44c13.39,3.19,24.04-7.92,36.58-10.56l93.25-19.61C412.23,976.93,423.41,981.4,429.76,989.78z"/>
<path class="st6" d="M141.78,799.69c-11.52-3.34-18.87-15.07-31.05-20.49l-10.39,24.24c-6.87-6.98-6.62-16.53-11.73-25.23
	c-4.22,4.92-5.74,10.31-11.18,8.08l-0.27-3.93c17.81-18.26,21.53-39.16,20.43-63.31l3.27-23.7L141.78,799.69z"/>
<path class="st0" d="M100.86,695.36l-1.12,44.71c-0.48,19.16-11.07,32.31-22.31,46.23c-2.56,3.21-6.99,4.48-9.14,7.98
	c-1.48-0.74-4.22-1.69-4-3.57c0.16-1.39,0.88-3.74,1.86-5.28C84.59,756.56,93.93,725.65,100.86,695.36z"/>
<path class="st6" d="M53.66,984.68c-7.14-6.66-8.76-12.59-12.72-18.59c7.26-0.62,16.3,3.94,15.81-4.24
	c2.2-4.03,11.1-4.33,15.66-6.62C69.6,968.33,58.63,972.58,53.66,984.68z"/>
<path class="st10" d="M511.31,720.41c4.15,5.19,5.95,12,5.4,20.43c0.18,18.57,0.64,37.11,1.37,55.64l-2.17,4.85
	c3.54,2.14,2.67,5.7-1.43,6.07c2.42,4.25-1.94,12.67-6.59,13.72l-250.66,69.4l0.66-85.35c22.56,1.82,4.08,53.89,11.22,74.17
	c6.6-16.25-8.44-77.39,13.43-72.33c-0.42,6.8,1.09,11.62,1.9,16.78c3.84-5.82-5.71-21.57,7.96-21.72l0.39,72.34l2.55-73.31
	c5.79-2.99,12.37-3.84,18.22-5.34l1.77,2.64c-0.78,19.55,0.2,38.8,2.92,57.76l23.41-7.12l0.57,1.01
	c-1.29-21.33-0.54-42.51,2.23-63.53l2.18-3.3c9.44-8.14,23.24-9.96,35.09-14.24l2.68,1.23c-0.11,20.62,0,41.21,0.32,61.78
	c0.76-2.3,2.06-4.28,3.89-5.92c0.51-1.19,0.99-1.18,1.43,0.02l2.25-1.72c6.56,1.26,13.46-1.92,18.43-6.06l3.26,0.24l-1.6-3.64
	c1.41-17.79,1.76-35.67,1.07-53.64l-23.1,10.7l-2.87-1.6c-1.28-0.09-1.45-0.56-0.52-1.44c0.32-5.55-0.5-11.01,0.35-17.33
	c10.15-2.73,19.34-6.55,29.46-10.44c1.62,5.3-0.29,9.73,0.62,14.97l33.68-12.41c0.86,0.12,1.52,0.24,1.53,0.38
	c0.55,28.39,0.71,57.58,0.15,85.98l-0.15-85.93l1.53-0.89c7.24-4.54,15.88-6.65,23.96-9.42l1.8,0.36c0.42,4.97,1.53,4.34,3.32-1.89
	c2.83-2.86,7.68-4.03,11.63-4.74l0.22,87.69c6.57-28.89-0.35-61.42,3.07-89.33L511.31,720.41z"/>
<path class="st2" d="M406.89,1475.97c-0.23,5.59-3.02,14.89-8.14,18.9c-20.23,15.84-69.42,36.84-85.88,10.77
	c10.91-14.15,26.84-17.62,41.81-23.72C372.23,1474.76,388.25,1472.19,406.89,1475.97z"/>
<path class="st2" d="M467.06,1446.34c-2.89,4.89,2.64,8.27,6.7,10.81c-12.61,4.41-24.62,11.72-38.32,12.09
	C440.77,1457.14,455.11,1451.44,467.06,1446.34z"/>
<path class="st6" d="M1151.76,988.77c-0.96,4.01-4.07,6.7-7.73,9.22c-6.3-7.49-11.03-14.95-14.8-22.97
	C1137.71,978.94,1144.16,982.64,1151.76,988.77z"/>
<path class="st9" d="M83.13,571.18c4.19-2.31,7.99,0.02,8.66,3.29c0.64,3.13-0.06,6.79-2.54,8.46c-3.25,2.18-7.1,0.81-8.11-1.85
	C79.9,577.77,79.57,573.14,83.13,571.18z"/>
<path class="st5" d="M208.94,662.16c4.5-2.61,8.11,0.28,9.42,4.01c1.13,3.23,0.51,7.66-2.84,9.64c-3.47,2.05-7.43,0.42-9.19-2.95
	C204.8,669.94,204.76,664.58,208.94,662.16z"/>
<path class="st14" d="M1038.96,1188.95c22.45,7.14,44.07,18.46,65.62,30.88c-32.22,0.88-61.32,2.96-92.21,0.2l-92.51-8.27
	c-3.63-1.04-3.68-2.04-0.19-3.47c0.76-5.52,2.43-11.03,8.55-13.9C963.75,1177.7,1001.84,1177.13,1038.96,1188.95z"/>
<path class="st11" d="M914.95,1193.22c0.22,5.49-0.08,13.46,4.73,15.05c-0.07,1.16,0.01,2.32,0.19,3.47l-58.96,0.79
	c-1.7,0.02-3.41,0.02-5.1-0.23c-2.7,0.86-4.8,0.66-6.31-0.59c-4.96-1.98-4.11-15.83,0.01-18.48c0.12-1.05,0.49-2.64,1.23-2.68
	c16.94-0.79,40.16-1.3,56.81-0.01C911.63,1189.71,914.1,1190.6,914.95,1193.22z"/>
<path class="st10" d="M715.39,1031.53c3.55-2.03,9.23,4.88,11.67,7.92c3.25,4.05,6.34,7.98,7.14,13.32l1.54,114.27
	c4.33,1.45,9.33,2.07,15,1.86l1.71,2.78c3.91-3.52,12.64,5,15.61,8.52c2.78,3.28,8.55,11.02,3.16,13.29l-1.29,2.64l-37.5-1.26
	l-1,15.1l-2.77,1.74l-41.57-16.74c0.71-13.71,13.32-22.99,28.68-24.87c-4.38-23.17,2.41-47.22-3.08-68.37
	c-7.85-30.29-21.29-53.28-45.76-73.03c24.44,1.35,36.03,24.68,47.05,44.22C715.51,1059.33,715.12,1045.14,715.39,1031.53z"/>
<path class="st12" d="M607.98,1174.7c-11.77-2.1-24.27,0.04-36.11-0.13c-1.8-2.36-5.53-0.57-8.08-2.79l1.28-41
	c3.77-0.77,6.21-0.72,9.47,0.18l0.47,42.37c5.97-14.58-4.09-49.16,9.3-42.58c3.19,1.57-1.25,31.61,2.21,36.96l2.34-35.4
	c0.16-2.42,7.25-1.28,7.57,1.23c0.35,2.82-0.49,5.86,0.77,9.35c2.7-2.52-0.13-7.96,2.25-9.36c1.83-1.07,6.52-2.25,8.33-0.45
	C609.01,1146.72,609.12,1161.6,607.98,1174.7z"/>
<path class="st12" d="M511.61,1185.27l-0.06,2.92l-14.87,6.61c-4.45,2.64-16.62-2.44-14.24-8.26c8.72-11.38-8.51-69.57,11.46-58.06
	c3.4,19.01,0.79,38.9,0.89,58.78c11.72-25.52-9.23-66.69,12.53-58.53C512.44,1130.66,504.95,1182.19,511.61,1185.27z"/>
<path class="st12" d="M538.14,1180.06c-7.62,3.21-15.73,5.13-23.64,7.58c0.09-0.56-0.02-1.2-0.37-1.48
	c-0.79-0.63-1.7-0.74-2.52-0.89l0.2-56.02c3.57-0.73,9.5-1.5,11.28,1l1.74,51.29l1.13-51c2.59-2.69,9.35-1.31,13.09,0.32
	C540.34,1147.87,539.95,1163.96,538.14,1180.06z"/>
<path class="st11" d="M771.23,1193.49c1.03,0.12,2.56,0.36,2.69,1.1c0.34,1.88,0.73,16.12,0.23,16.8c-0.68,0.93-1.5,1.59-2.65,1.86
	c-0.52,0-1.05,0.44-1.57,0.41c-13.85-0.84-28.57,3.16-41.28-1.95l1.04-19.61L771.23,1193.49z"/>
<path class="st12" d="M562.57,1174.82c-3.51,1.26-6.98,2.12-10.78,2.41c3.1-14.08,0.63-29,0.93-44.45c0.07-3.49,8.61-4.07,8.95-1.34
	C563.56,1146.56,561.92,1160.67,562.57,1174.82z"/>
<path class="st12" d="M546.34,1177.57c-1.19,0.47-2.97,0.25-3.98,0.8l-0.43-40c-0.03-3.05-0.46-7.52,2.44-7.96
	c1.79-0.28,6.57-0.75,6.53,2.39l-0.57,41.58C550.3,1176.11,546.79,1176.69,546.34,1177.57z"/>
<path class="st0" d="M407.14,1170.66c1.8-3.44,10.71-3.97,12.05-0.07c0.38-1.2,0.82-1.17,1.34,0.02c2.07-3.28,18.12-1.88,20.49-0.51
	c1.21,0.7,1.85,1.97,2.31,3.23c7.56-2.45,20.07,1.38,25.02,7.52c2.46,0.8,4.18,1.86,5.79,1.84c2.48-2.14,5.52-0.89,5.37,2.46
	c1.45,0.38,2.03,1.54,2.92,1.39c3.13,5.31,10.69,5.55,14.24,8.26c5.22,5.44,11.89,7.07,15.35,14.86
	c-62.46-27.63-94.24-3.28-142.33,27.95c-30.5,19.81-43.08,4.78-73.12,7.73c10.02-19.1,25.68-32.76,40.99-46.55
	c0.98-0.89,2.11-1.21,2.62-1.43c1.25-4.43,8.83-11.06,13.35-9.25c-2.04-4.05,5.02-5.63,8.02-3.99c0.51-2.48,1.19-3.69,2.84-1.39
	c0.37-3.63,6.37-5.61,9.47-4.16c1.49-3.59,2.95-5.42,5.24-1.6c0.13-4.05,5.37-5.1,8.13-2.45c0.79-3.62,1.42-4.14,3.97-1.35
	c1.56-3.61,10.58-5.09,13.22-2.27C404.67,1167.21,405.91,1167.2,407.14,1170.66z"/>
<path class="st10" d="M326.57,1189.15c-15.65-7.53-32.06-12.06-49.34-9.2l-1.54-1.69c-0.76-13.57-0.89-27.16-0.37-40.76
	c-1.92-6.7,8.61-5.73,13.62-4.76c3.96-2.4,9.34-2.41,13.45-0.48c1.76-2.53,4.7-3.49,8.82-2.87l0.13-1.68l-79.23,3.11l-1.72-2.61
	c-0.71,3.92-4.98,3.19-5.53-0.62l0.67-17.22c1.6-1.19,3.34-2.47,5.36-2.74c6.52-0.88,34.33-3.51,37.95-2.04
	c1,0.41,1.93,0.98,2.85,1.6l12.5-0.76l4.07-2.89c8.33-0.47,16.6-0.72,24.79-0.74c-0.24-7.39-0.38-15.05-0.43-22.97l2.85-1.88
	c2.14-17.68-3.16-51.58,13.18-26.38L326.57,1189.15z"/>
<path class="st10" d="M215.61,1182.59c-12.27-1.53-25.66-1.45-37.55,2.69c-2.54,0.1-3.51-2.39-2.93-7.46l1.72-28.52
	c-0.63-5.22-0.23-10.17,1.18-14.85l-35.09,1l-1.7-2.62c-4.31-0.34-4.09-13.1-0.14-14.28l0.99-2.78l60.1-5.27
	c1.15-6.33,1.36-12.96,0.63-19.88l2.74-2.11l1.38-25.33c0.14-2.54,6.03-2.11,7.72-1.01C219.76,1065.48,216.04,1169,215.61,1182.59z"
	/>
<path class="st10" d="M259.87,1136.77l1.91,1.25l-0.85,30.36c0.61,5.39,0.74,10.54,0.41,15.44c-10.94,6.18-22.68,15.67-27.09,6.77
	l-2.08-4.84c0.36-15.58,0.87-31.04,1.53-46.35l1.86-2.3c2.98-3.62,7.9-4.28,14.75-1.97
	C253.35,1132.95,259.37,1132.41,259.87,1136.77z"/>
<path class="st13" d="M178.07,1185.27c-1.21,0.42-2.98,0.45-3.92,1.46l-2.89-0.9c-0.4-10.83,0.19-21.65,1.78-32.46
	c1.09-8.57-0.69-11.89-5.34-9.97c0.65,15.2,0.57,30.48-0.24,45.82l-2.75,2.76c-0.39,0.13-0.9-0.07-1.31-0.02
	c-0.41,0.05-0.83,0.01-1.24,0.03l-2.6-3.48c0.62-15.08,0.76-29.93,0.4-44.55l-5.25,0.27l-1.72,38.18l-2.75,1.46
	c-0.37-0.28-1.16-0.76-1.57-0.94l-3.03-2.63l0.76-34.55l-3.33,0.7c-5.86,0.14-6.42-11.06-1.82-13.65l64.21-2.4
	c-2.43,10.07-2.67,17.41-4.15,26.51c-4.59-6.37,2.05-11.57-1.07-17.6c-3.4-1.13-9.16-1.86-9.97,2.15c-0.6,2.98,1.77,7.39-2.17,10.33
	C179.02,1095.45,174.03,1184.74,178.07,1185.27z"/>
<path class="st13" d="M277.24,1179.95c-0.81,0.13-2-0.23-2.72,0.12l-2.69-1.17l-0.36-40.13c-4.04,0.97-6.67,0.32-7.9-1.95
	c-1.41,3.48-2.42,3.46-3.7-0.05c-2.31,0.08-6.37-1.38-7.77,0.23c-3.03,3.49-0.42,22.09-2.44,25.75l-1.07-25.14
	c-3.97-1.88-8.77-0.14-13.02-0.51c-3.61,5.97-10.39-6.13-5.17-8.89l81.67-3.39c2.34-0.1,2.27,4.83,1.47,6.14
	c-1.04,1.71-5.26,0.98-8.35,1.1c-3.92,13.3-1.44,28.17-3.14,42.55l-1.01-40.64c-5-0.26-11.55-1.84-12.85,5.04
	c-1.8-1.76-1.31-4.2-2.88-4.3c-2.97-0.19-5.62,0.23-8.82,1.06C276.22,1150.44,274.42,1165.59,277.24,1179.95z"/>
<path class="st11" d="M230.4,1128.21c0.94,3.42,0.96,8.53,5.17,8.89c-0.72,17.89,1.3,36.08-1.32,53.49
	c-3.04-0.98-5.95-3.45-9.06-4.21c-0.21-19.62-1.09-39.23-0.33-58.79L230.4,1128.21z"/>
<path class="st10" d="M274.51,1180.07c-3.27,1.8-7.22,2.42-10.88,2.63c-0.84-0.54-1.53-1.11-1.64-1.78
	c-2.03-11.83-1.29-30.02-0.22-42.2c0.06-0.68,0.83-1.29,1.79-1.89c3.31-0.47,6.64-1.08,10.65-0.51L274.51,1180.07z"/>
<path class="st10" d="M174.14,1186.73c-2.5,2.68-5.98,4.11-9.43,5.25l1.06-42.64c0.07-2.69-1.98-7.17,0.19-8.11
	C184.48,1133.23,170.5,1169.93,174.14,1186.73z"/>
<path class="st11" d="M263.57,1136.82c-0.79,15.25-2.52,30.86,0.07,45.88c-0.59,0.53-1.62,0.75-2.3,1.13
	c-4.28-15.15,0.75-31.38-1.47-47.06C261.06,1136.73,262.39,1136.99,263.57,1136.82z"/>
<path class="st11" d="M139.2,1096.71c4.06,4.32,6.12,17.47,1.89,21.83l0.14,14.28c0.04,4.53-0.86,10.18,1.82,13.65
	c4.8,8.87,3.9,24.69-1.04,33.53l-12.19-3.95c5.61,14.35-0.09-109.34,8.45-83.15C138.64,1094.03,139.21,1095.44,139.2,1096.71z"/>
<path class="st10" d="M162.15,1192l-3.99-2.29l-7.93-5.83l1.81-41.13c2.53-2.26,8.3-1.84,11.2-0.68L162.15,1192z"/>
<path class="st10" d="M148.66,1182.94c-2.31,0.29-4.69-2.3-6.64-2.94c0.72-11.11,1.61-22.39,1.04-33.53
	C153.93,1119.83,146.71,1182.01,148.66,1182.94z"/>
<path class="st13" d="M866.58,1170.58l-1.13,3.05c-7.99,2.42-12.93,9.65-13.27,17.87l-2.68,1.74c0.19,6.05-1.05,12.33-0.01,18.48
	c-1.26,0.76-3.17,1.2-5.75,1.34l-72.25,0.2l-0.27-19.76c-0.13-9.37-10.56-17.47-18.78-21.81l-2.68-0.91l-0.5-141.42
	c0.08-13.74,6.27-24.64,15.89-33.99c4.06-3.94,44.17-32.08,46.93-31.47c9.59,2.09,36.85,26.35,43.2,35.2
	c8.99,12.51,13,26.87,13.2,42.27l0.77,127.6L866.58,1170.58z"/>
<path class="st8" d="M849.5,1211.71c2.1-0.06,4.21,0.5,6.31,0.59c-3.63,2.34-8.02,0.73-12.05,0.74
	C845.17,1211.62,847.56,1211.77,849.5,1211.71z"/>
<path class="st13" d="M632.36,400l-22.83,13.97c-1.99,0.86-3.92,1.45-5.78,1.78l-104.28-16.97c-5.1,5.09-8.6,10.91-10.52,17.46
	c28.49,2.63,56.81,6.37,84.98,11.22c4.65,1.15,4.09,2.91,2.51,6.53c-0.68,1.56-22.59,14.39-26.89,12.31l-1.6-2.83
	c-6.38,1.88-13.2,1.62-20.43-0.78c0,0-0.45,1.43-1.34,4.29c-9.3,0.11-18.53-0.78-27.7-2.68c-2.02-1.91-8.53,1.61-6.29,1.93
	c14.4,2.09,29.18,3.27,43.73,2.1l4.97,2.12c3.62,0.94,3.72,1.88,0.33,3.43l-1.03,2.63l-43.16-2c-7.54,2.89,29.4,7.06,29.64,7
	c5.79,2.52,10.49,6.15,1.9,7.82c-11.99-2-24-2.65-36.03-1.95c-1.28,5.07,1.61,7.63,8.66,7.69c9.42-0.04,18.21,1.28,26.38,3.97
	c1.79,1.34,0.97,2.91-2.47,4.7c-10.64,1.01-21.42,0.84-32.33-0.5c-1.93,4.04,2.53,5.8,13.38,5.27c5.93-0.69,10.89,0.27,14.88,2.9
	c2.37,2.8,1.72,3.41-1.85,3.03l-2.91,2.53l-23.46-1.02c-0.9,2.24-0.84,4.21,0.19,5.89l16.08,2.73l1.37,2.95l1.78,2.2
	c-8.93,14.08-17.85,28.17-26.78,42.26l-3.11-0.1l2.64-120.63c0.38-17.56-0.43-36.5,8.81-50.73l70.88-109.2l57.55,109.38
	C625.92,387.72,631.64,392.7,632.36,400z"/>
<path class="st10" d="M469.79,437.8c1.95,44.91-3.95,90.5,1.96,134.21c-4.75,9.41-12.36,18.65-20.88,25.39
	c2.08-13.62,10.84-21.82,8.05-36l-64.96,34.27c-2.07-6.89-1.37-14.52-0.12-22.5c21.05-13.27,46.08-20.03,64.07-35.91l-2.3-3.39
	c1.96-29.07,2.64-58.18,2.01-87.31l2.4-2.95c-0.03-1.84,1.03-6.35,2.56-7.36C464.27,435.15,467.89,437.52,469.79,437.8z"/>
<path class="st4" d="M591.95,448.56c-3.11,8.12-9.27,14.94-16.23,21.74L471.75,572.01c3.33-6.59,6.49-13.61,10.6-20.1l28.11-44.36
	c-2.72-3.58,4.85-12.1,8.73-13.08c0.28-0.88,1.21-2.34,1.85-3.03c-2.16-4.06,2.87-8.01,6.52-9.6c-0.61-3.41,5.27-8.23,8.41-5.21
	l2.41-4.2c16.92-8.49,34.01-17.06,50.94-25.55L591.95,448.56z"/>
<path class="st12" d="M516.99,221.47c1.1,0.04,2.32,1.43,3.63,0.73c2.26,1.56,2.19,5.72,0.91,8.04c-1.22,2.22-4.04,3.67-7.95,4.08
	c0.65,11.92,1.45,23.99,6.18,34.84c0.67,5.09-5.02,7.3-5.46,12.09c-5.78,8.02-11.37,15.97-18.75,22.45l2.43-69.61
	c1.4-1.61,4.4-3.78,4.18-5.68c-0.28-2.43-2.44-3.39-4.01-4.7C500.68,215.82,510.04,221.24,516.99,221.47z"/>
<path class="st1" d="M513.11,176.89c-10.48-3.35-7.59-16.88-2.51-25.56C519.78,151.89,507.18,165.46,513.11,176.89z"/>
<path class="st12" d="M558.43,186.53c-3.37-9.96,7.59-9.97,11.52-14.55c6.31-7.35-0.92-18.09,3.78-27.19
	c5.44,6.88,3.42,17.09,2.05,26.58C574.85,177.83,565.49,182.49,558.43,186.53z"/>
<path class="st11" d="M703.2,404.75c-53.09,82.89-113.92,161.53-169.99,243.27c-10.09,14.71-21.98,27.92-35.1,39.39
	c-7.16-2.37-13.79-9.76-13.3-16.55c17.94-20.65,32-44.01,48.54-66.81l95.04-130.99c19.92-27.45,38.1-54.7,60.12-79.62
	c4.23-4.78,8.52-9.39,10.74-15.62C700.73,386.45,702.64,395.53,703.2,404.75z"/>
<path class="st13" d="M708.52,328.31c-2.12,0.62-4.17,4.54-7.34,2.5c-2.6-1.67-4.41-13.6,7.35-28.13
	C714.62,306.15,696.82,321.56,708.52,328.31z"/>
<path class="st11" d="M609.53,413.97c-9.72,5.95-9.11,17.53-10.71,28.05c-1.58,2.58-4.72,4.57-6.87,6.54l-55.97,28.08l-2.71-1.65
	c1.8-6.52,3.6-13,5.41-19.46l2.56-1.63c-0.15-1.13-0.01-2.31-0.33-3.43c-1.17-4.01,3.4-6.6,7.06-6.99
	c10.26,1.55,19.16-7.87,28.8-12.66c-29.49-6.69-59.34-8.03-90.75-12.17c0.3-8.82,6.41-15.82,12.48-22.64L609.53,413.97z"/>
<path class="st8" d="M286.66,752.97c-17.21,7.13-33.92,16.55-52.05,21.47C246.56,761.76,268.71,753.67,286.66,752.97z"/>
<path class="st11" d="M457.92,537.26c-22.9,9.49-43.55,23.24-67.02,34.86l0.2-86.03l68.93-42.48
	C460.36,467.05,461.07,512.16,457.92,537.26z"/>
<path class="st11" d="M833.75,685.05c6.74,6.79,9.56,14.57,10.97,23.16l-306-39.19c1.44-6.44,6.98-18.64,15.7-17.56l144.73,17.96
	C744.34,675.04,787.58,682.47,833.75,685.05z"/>
<path class="st12" d="M655.97,654.49c-0.18,3.87-6.56,1.99-9.37,0.91c-2.03-0.78-1.74-2.27-2.48-6.51c0.27,5.7-2.54,6.73-4.45,6.61
	c-1.85-0.12-7.52,0.53-7.5-2.04l0.44-103.79c0.48-5.33,6.02-9.83,9.81-14.32l1.59,96.82c5.27-17.59-3.58-102.79,5.6-107.7
	c2.53-1.35,5.65-0.29,9.03,0.33c2.27-7.62,5.75-13.57,12.27-17.68c-3.36-1.33-6.77-1.72-5.21-5.12c4.58-9.95,15.81-6.34,18.74-11
	c3.3-5.26,3.88-9.58,4.2-15.71c0.23-4.31,7.45-1.99,10.25-0.53c4.41,2.31,6.61,3.3,3.29,9.45c-6.53,12.1,29.96,17.37,17.25,25.98
	l11.03,19.41c-11.07,1.61-14.97-7.84-18.75-15.96c-3.51-7.53-12.07-11.14-15.05-19.92c-30.27,19.77-13.62,26.32-39.02,35.16
	C658.37,571.26,657.98,611.54,655.97,654.49z"/>
<path class="st11" d="M726.86,587.68c4.61-0.96,6.97,8.53,2.17,9.78c-9.37,28.94-4.62,23.12-35.6,41.69
	c-11.12-8.8-18.54-18.52-30.53-21.74l-2.46-34.36c10.16,5.56,18.51,13.82,28.1,21.58c-3.05-37.87-52.2-42.38-16.15-65.29
	c9.03-5.74,12.85-17.41,21.13-24.03l23.42,29.91c5.1,6.52,12.12,9.04,11.11,15.62c-1.75,11.32-6.78,10.1-14.1,13.67
	c-12.71,6.2-19.4,25.24-15.37,38.68C702.12,593.64,710.36,595.74,726.86,587.68z"/>
<path class="st12" d="M581.25,805.94c-6.34,3.64-17.67,2.38-22.7-2.85l-0.97-116.95c8.37-0.13,15.51,0.48,24.08,2.27L581.25,805.94z
	"/>
<path class="st12" d="M653.46,813l-1.96,2.54c-4.45,0.75-19.3,1.39-19.51-4l-1.11-117.81c8.17,0.12,15.31,1.68,22.32,3.44
	L653.46,813z"/>
<path class="st12" d="M606.53,808.79c-4.54,3.42-18.45,2.64-21.35-2.58l-0.94-116.68c7.1-0.37,13.7,0.2,21.5,1.65L606.53,808.79z"/>
<path class="st11" d="M534.04,800.72c-0.09,1.02-0.24,2.36-1.04,2.72c-1.65,0.72-17.04,1.62-17.09-2.09
	c-3.35-26.8,1.19-54.5-4.6-80.93c7.25-30.61,0.66-14.24,22.24-41.8L534.04,800.72z"/>
<path class="st12" d="M628.25,811.29c-3.91,4.13-16.33,3-18.87-2.24l-0.29-117.44c6.95-0.45,12.87,0.17,19,2.1L628.25,811.29z"/>
<path class="st12" d="M554.57,802.25c-2.31,4.73-13.36,3.75-14.99-1.19c-2.64-38,0.13-76.02-0.35-114.6
	c5.73-1.24,10.02-1.12,15.39-0.05C555.85,725.39,556.22,763.75,554.57,802.25z"/>
<path class="st12" d="M729.03,597.46c0.19-4.19-0.72-7.13-2.17-9.78c5.01-20.15,5.33-38.6,4.92-59.69
	c11.91,14.23,13.95,29.67,12.98,46.7c-1.71,30.24-1.93,60.5-1.07,91.24c-3.26,2.44-8.99,1.26-12.36-0.32
	C729.84,642.24,733.86,619.21,729.03,597.46z"/>
<path class="st7" d="M534.04,800.72c1.65-0.06,3.97-0.03,5.54,0.33c4.93,1.14,9.93,1.72,14.99,1.19c1.11,0.31,2.78,0.61,3.97,0.84
	c7.49,1.45,15.11,2.14,22.7,2.85c1.27,0.12,2.69-0.02,3.93,0.27c7.01,1.67,14.27,1.34,21.35,2.58c0.93,0.16,1.94,0.02,2.85,0.26
	c6.13,1.62,12.56,1.89,18.87,2.24c1.12,0.06,2.7-0.15,3.74,0.25c6.88,2.61,14.5,0.73,21.47,1.46l83.92,8.72
	c1.63,0.17,1.64,2.38,1.82,3.15c0.15,4.38-11.87,8.4-13.47,3.69l-3.77,1.31c-68.76-5.68-137.47-12.22-206.13-19.63l-1.36-2.83
	c0.49-1.65,1.21-4.39,1.43-6.07L534.04,800.72z"/>
<path class="st0" d="M807.44,809.25c4.28,1.51,1.91,8.05,0.39,11.43c-2.92,6.51-8.09,10.32-15.03,11.84
	c-15.43,3.38-31.16,6.69-46.72,9.6c-1.5,0.28-3.08,0.18-4.69,0.04c-1.63-0.14-3.24-0.48-4.84-0.87l-0.96,2.91
	c-3.65,1.36-14.63,3.97-16.59,0.46l-1.29-1.36c1.27-3.89,2.68-7.82,4.24-11.79c-1.59-1.98-0.33-2.97,3.78-2.97
	c4.81-0.1,8.99-2.44,13.47-3.69C761.69,818.6,784.17,811.24,807.44,809.25z"/>
<path class="st10" d="M816.81,800.88c2.17,13.46-1.65,26.72-3.88,39.9c-1.16,3.73-3.84,4.34-5.48,0.59l-4.89,3.3l-47,9.02
	c-7.1,2.26-13.44,2.16-19.01-0.3c-4.27-1.31-4.54-11.09,0-12.08c17.92-3.45,36.21-7.89,54.63-11.18
	c11.68-2.09,15.99-10.42,16.26-20.87C807.57,804.28,813.33,800.53,816.81,800.88z"/>
<path class="st12" d="M620.03,652.98c-4.85-0.77-4.3-79.58-3.01-89.2c3.05-3.8,7.63-7.14,12.71-9.69c-2,13.98,2.47,95.92-0.46,98.62
	C627.2,654.63,622.37,653.35,620.03,652.98z"/>
<path class="st12" d="M754.82,666.59c-0.06,3.47-6.39,2.15-8.7,0.56l0.2-111.79c9.17,4.53,10.19,13.79,10.03,23.33L754.82,666.59z"
	/>
<path class="st12" d="M768.6,668.9c-0.12,2.03-7.72,1.38-9.27,0.1c-1.56-1.27-2.92-4.22-2.84-7.61l1.85-87.04
	c3.94,3.38,9.94,8.28,9.96,13.88L768.6,668.9z"/>
<path class="st15" d="M668.73,761.97c0.24-10.26-0.86-19.46,1.02-28.37c0.2-0.92,0.4-1.63,0.57-1.62
	c3.07,0.07,25.45,1.29,26.68,1.82c1.35,0.58,1.8,1.1,2.48,2.28c0.75,1.31,0,28.83-0.87,30.06c-1.03,1.45-24.36-1.44-28.17-2.14
	L668.73,761.97z"/>
<path class="st15" d="M728.22,738.76c2.14,6.71,1.9,21.94,1.5,28.95c-0.79,0.97-1.58,1.73-2.37,1.72c-4.58-0.04-26.07-1.25-27.6-2.7
	c-1.23-1.16-1.27-28.54,0.11-31.56c0.58-1.27,24.98,1.32,27.64,1.74C727.83,736.96,728.04,737.75,728.22,738.76z"/>
<path class="st12" d="M604.44,650.66l-1.66-65.81c4.55-4.96,6.94-10.03,11.74-14.29l0.06,80.34
	C612.04,652.71,608.81,651.79,604.44,650.66z"/>
<path class="st15" d="M697.65,705.94c0.82,0.21,1.46,0.43,1.47,0.67c0.14,3.27-0.03,26.87-1.32,27.38c-3,1.18-21.8-1.24-26.72-1.91
	c-0.57-0.08-1.03-0.89-1.47-1.92c-1.34-9.6-0.93-18.3-0.8-28.15C678.88,702.64,688.61,703.06,697.65,705.94z"/>
<path class="st15" d="M729.51,771.41c-0.39,6.93,1.67,20.52-0.25,27.25c-9.73,0.46-19.28,0.51-27.48-1.97l-2.3-1.63
	c-0.92-1.35-1.03-25.39-0.17-26.9c0.73-1.3,25.97,0.89,29.45,1.41C729.1,769.62,729.32,770.41,729.51,771.41z"/>
<path class="st15" d="M728.26,735.15c-0.65,0.93-1.29,1.66-1.91,1.64c-5.9-0.18-22.61-0.76-26.96-2.52
	c-1.28-0.52-0.49-24.51-0.28-27.42c0.02-0.33,0.67-0.62,1.49-0.89c9.77-0.92,18.83,0.71,28.9,1.31
	C729.42,717.29,730.78,726.48,728.26,735.15z"/>
<path class="st15" d="M697.58,795.42c-8.71-2.64-18.84-0.93-28.74-2.73c-0.59-9.61-0.24-18.31,0.74-26.93
	c0.18-0.67,0.41-1.29,0.84-1.69c1.01-0.96,26.5,2.69,27.65,3.48c1.12,0.76,1.41,23.75,1.26,26.95
	C699.32,794.82,698.56,795.12,697.58,795.42z"/>
<path class="st11" d="M318.75,779.5c2.61,0.87,3.39,3.49,2.32,7.85c0.77,5.74-0.33,10.2-3.29,13.4l2.54,2.6
	c-2.02,16.16-2.12,31.36,1.28,47.22c2-4.29,10.37-5.14,14.94-4.89c1.24-17.61,1.18-35.27-0.2-52.96l2.74-2.77
	c-3.44-2.27-2.59-5.22,1.18-6.3l6.36-0.42c-2.65,22.06-2.91,44.07-2.37,67.83l-29.89,9.09c1.88-22.26-1.03-43.18-0.8-64.38
	C316.01,790.52,313.72,782.76,318.75,779.5z"/>
<path class="st12" d="M700.6,705.96l0.24,26.63c9.5,1.85,18.53,1.79,27.43,2.56c-0.45,1.55-0.24,2.98-0.04,3.61l-26.72-2.32
	c-0.72,9.78-1.02,18.63-0.1,28.7c9.8,1.74,19.1,2.35,28.31,2.57l-0.21,3.71l-28.52-2.12c0.48,9.65-2.04,18.96,0.8,27.4l-4.2-1.28
	l-0.96-26.19l-27.04-3.48c-0.04-1.4-0.88-2.79-0.85-3.78l28.27,2.88l0.26-28.41l-27.51-2.85c0.34-1.63-0.39-2.66-0.14-3.44
	c8.52,1.56,17.29,1.57,27.01,2.07l1.04-26.29C699.12,706.18,700.08,706.01,700.6,705.96z"/>
<path class="st12" d="M780.92,670.7c-3,2.15-5.8,0.93-9.71-0.31l0.91-77.42c2.85,3.58,8.49,8.56,8.51,13.88L780.92,670.7z"/>
<path class="st12" d="M589.36,647.39c1.34-21.91-6.93-45.63,11.17-55.64l1.11,57.67C598.18,650.35,591.69,650.09,589.36,647.39z"/>
<path class="st12" d="M792.96,672.13c-2.2,2.46-7.04,0.97-10.5-0.21c2.29-19.2,0.21-37.7,0.95-58.41c3.53,2.24,7.4,6.82,8.93,10.89
	L792.96,672.13z"/>
<path class="st12" d="M662.9,617.41c14.57,12.08,10.87,39.27,9.27,40.49c-2.74,2.1-8.3-0.06-14.59-0.64
	C662.73,644.23,653.23,626.87,662.9,617.41z"/>
<path class="st12" d="M808.44,673.64c-2.21,2.75-8.15,0.67-13.13-0.37l0.12-43.71C807.24,640.76,812.23,655.77,808.44,673.64z"/>
<path class="st10" d="M340.24,783.65c0.1,2.13-1.08,4.21-1.18,6.3c0.55,3.56-16.49,12.23-18.38,12.33c-1.09,0.05-2.07-0.77-2.9-1.53
	l0.97-21.25c5.55-4.35,12.64-5.35,20.28-8.46C340.7,775.47,340.05,779.51,340.24,783.65z"/>
<path class="st12" d="M728.7,665.28c-15.02,10.78-12.35-42.36,0.88-46.32C728.74,634.43,728.19,649.55,728.7,665.28z"/>
<path class="st11" d="M483.18,732.3c-0.97,28.7,1.14,57.32-2.38,87.07l-2.74-85.54C479.58,733.32,481.28,731.65,483.18,732.3z"/>
<path class="st11" d="M386.93,768.94c-0.03,0.47,0.51,0.96,0.52,1.44c0.69,1.06,1.33,2.13,1.8,3.28c2.13,5.2,1.6,34.23,1.31,42.5
	c-0.12,3.41-0.75,6.73-1.97,9.93c0.18,1.95-0.06,3.95-0.32,6.06c-0.22,1.81-2.87,3.06-6.49,2.54l-0.08-65.7
	C383.34,768.4,385.25,768.75,386.93,768.94z"/>
<path class="st12" d="M586.11,612.14c-0.68,35.11,3.97,34.39-9.19,34.31C575.82,646.44,568,624.01,586.11,612.14z"/>
<path class="st10" d="M823.42,768.13c1.25,0.64,2.33,1.48,2.88,2.81c0.7,1.69-1.31,7.51-2.12,9.51
	c-1.64,4.06-6.78,13.56-11.31,12.38c-8-2.74-9.35-11.64-6.29-17.77C810.06,768.07,816.63,766.83,823.42,768.13z"/>
<path class="st11" d="M812.87,792.83c5.61-7.74,11.96-14.75,10.55-24.7c9.6,1.85,12.68,12.11,8.12,20.87
	C828.04,795.74,818.5,800.33,812.87,792.83z"/>
<path class="st12" d="M676.47,633.5c16.86,5.17,9.56,25.86,9.38,26.01c-1.82,1.48-8.84,1.93-9.68-0.63
	C673.53,650.78,675.58,641.68,676.47,633.5z"/>
<path class="st12" d="M701.77,661.83c-4.51,0.33-10.71,0.41-12.42-1.83c-0.9-3.76-1.07-11.54,1.54-14.57
	c2.2-2.55,7.25-4.75,11.44-6.44C703.7,647.05,704.22,655.26,701.77,661.83z"/>
<path class="st12" d="M716.45,663.06c-2.04,1.85-7.09,0.86-8.54-0.65c-2.08-2.17-1.81-20.76-0.78-23.44
	c1.12-2.9,6.19-4.19,10.43-5.27C716.3,643.22,716.72,653.52,716.45,663.06z"/>
<path class="st12" d="M454.1,743.26l-1.39,86.83l-1.67-86.36C451.93,743.4,453.3,743.75,454.1,743.26z"/>
<path class="st12" d="M822.76,673.34c-3.61,2.87-7.33,2.44-11.07,2.07c0.43-7.3-1.52-13.02,1.04-19.99L822.76,673.34z"/>
<path class="st14" d="M676.55,841.48c4,2.26,0.66,8.64-2.62,10.33c1.16,0.51,1.14,0.98-0.06,1.39c-0.77,0.55-0.81,0.98-0.14,1.27
	l6.79,5.81l0.03,3.28c-0.34,2.33-0.78,4.61-1.61,6.75c-15.66,40.21-31.98,80.5-48.41,120.41c-0.87,2.11-2.18,4.04-3.62,5.92
	c-1.1,2.8-2.74,5.27-4.78,9.11L444.77,994.9c-0.48-0.82-0.92-1.65-1.19-2.54c-0.26-0.87-0.48-1.66-0.28-2.31
	c1.99-6.21,4.12-12.33,6.88-18.25l68.05-143.82c0,0,1.43-0.97,4.28-2.91l152.66,13.59L676.55,841.48z"/>
<path class="st11" d="M890.89,1171.68l-2.58,2.28l-19.54-0.66l-2.19-2.72l-0.75-127.2c-0.24-41.04-22.8-56.33-53.93-77.15
	l-41.19,28.18c-11.19,7.66-18.82,21.55-18.77,34.95l0.51,142.31l-19.35-1.06l-1.3-114.75c-0.12-10.58-10.09-17.69-16.41-24.33
	c0.06-2.92-0.52-6.31,0.89-9.42c1.18-2.61,5.97-1.46,8.7-2.56c9.14-3.69,10.85-13.89,16.68-20.97
	c12.12-14.71,28.39-24.79,45.16-35.93c-8.53-3.96-17.2-1.88-26.18-3.87c7.36-25.88,20.63-7.32,44.72-15.84l2.76-61.12
	c0.15-3.24,1.97-10.38,4.7-10.47c19.71-0.65,7.51,58.44,12.75,73.16c13.82,2.76,27.19,1.5,40.85,2.56
	c3.91,4.38,6.33,10.55,9.09,15.22c-9.73,1.79-21.71-4.38-31.29,2.67c17.99,16.35,42.52,31.71,45,57.34
	C894.07,1072.43,889.23,1122.14,890.89,1171.68z"/>
<path class="st12" d="M725.73,828.56c-1.51,0.03-2.92,1.98-3.78,2.97l-2.26,2.77c-13.45,3.99-27.02,7.31-40.7,9.97l-2.43-2.79
	l-155.2-13.82l-62.17,131.16c-5.85,12.35-11.37,23.67-14.42,36.08c-5.2-0.32-10.74-0.46-15.01-3.76l0-1.35
	c28.36-54.76,56.39-111.22,78.12-168.65c1.71-4.52,4.47-9.22,6.59-13.72L725.73,828.56z"/>
<path class="st10" d="M432.22,1025.45c5.91-2.18,10.88,7.89,12.66,12.97c1.01,2.9,1.63,5.89,1.91,8.94l-0.76,124.36l-2.69,1.61
	c-7.39-1.83-15.3-1.63-22.8-2.72l-0.67-0.25c0.24-15.21,0.25-30.12,0.05-44.71c4.03-0.98,5.89-2.7,5.59-5.16
	c-24.15,1.06-48.25,2.08-72.31,3.05l-5.01-1.44c-1.81,3.86-8.57,1.53-10.7-1.29c0.26-5.89,0.93-11.44,1.56-17.28l3.57-2.32
	c27.75-4.26,55.76-6.53,84.01-6.79c-0.72-7.99-0.84-16.32-0.36-24.98l2.97-2.17C431.44,1053.17,426.6,1037.87,432.22,1025.45z"/>
<path class="st8" d="M728.78,856.33l1.83,2.17c-27.41,46.18-54.91,92.31-82.53,138.41l-4.03,1.78c-4.84,0.37-9.77,2.49-14.76,1.7
	l-0.19-2.84c-0.59-0.32-1.04-0.58-1.01-0.66c16.71-43.87,34.6-89.69,53.45-132.67c0.13-0.29,0.71-0.38,1.43-0.42l3.03-3.19
	c13.13-0.94,26.08-2.86,38.84-5.75L728.78,856.33z"/>
<path class="st11" d="M468.35,1180.85c-7.98-2.61-16-5.29-25.02-7.52l0.94-121.91c0.08-10.79-4.13-20.11-12.06-25.97
	c7.23-7.18,21.35-5.38,31.45-4.34l1.74,121.24C465.6,1155.92,464.79,1168.54,468.35,1180.85z"/>
<path class="st11" d="M633.18,1120.28l-157.09-3.64c-5.23-2.59-4.96-14.59-0.45-18.84c53.16,0.12,105.8,0.19,159.07,3.03
	C639.42,1104.47,638.89,1116.28,633.18,1120.28z"/>
<path class="st12" d="M429.22,1067.25c-1.45,9.23,0.77,19.22-1.32,29.03c-29.89,2.72-59.74,2.81-88.86,7.24
	c0.91-8.44-2.19-16.61,0.58-26.06c9.78,0.66,20.8-6.1,30.41-0.9c3.83,0.81,0.29-4.63,2.39-6.35c5.35-4.59,6.94,8.52,2.77,10.93
	c2.24,1.04,3,2.33,1.43,4.17c6.61,0.03,13.1-0.69,19.46-2.18l2.9,1.76c0.38-1.2,0.84-1.22,1.37-0.08l1.26-1.41
	c-4.21-1.84-3.95-9.98,0.08-12.04C410.54,1068.53,419.99,1068.19,429.22,1067.25z"/>
<path class="st12" d="M205.57,1088.52c-0.43,7.83,1.38,15.74-0.7,24.44l-63.77,5.59c-0.07-7.27-1.94-14.52-1.89-21.83l20,0.39
	c1.2,0,1.24,0.45,0.27,1.3c3.95-0.14,3.6,4.25-0.16,5.03l0.03,1.65c4.78,0.51,9.61,0.61,14.48,0.31c-0.81-4.76,0.09-7.6,2.7-8.52
	c-0.52-1.12-0.48-2.05,0.13-2.78c-1.16,0.25-1.23-0.08-0.3-0.93L205.57,1088.52z"/>
<path class="st10" d="M890.89,1171.68c11.6,2.31,23.6,10.32,24.05,21.54l-65.44,0.01c-0.34-10.54,5.98-20.3,17.08-22.66
	C873.72,1170.79,883.8,1170.27,890.89,1171.68z"/>
<path class="st7" d="M1005.97,1107.56c-2.98,3.13-10.69,2.82-13.93-0.11l-0.77-56.9c6.16-1.04,11.11-1.3,16.95-0.38L1005.97,1107.56
	z"/>
<path class="st15" d="M281.27,1058.1c0.41,13.02,0.78,26.16-0.42,40c-4.31,1.49-8.38,0.94-12.15,1.88c0.06,2.66-0.95,2.62-1.97,0.01
	c-2.53,1.53-7.51,1.7-9.61-0.45c-4.3-1.07-4.28-14.59-0.25-16.07c-0.06-3.85-0.06-8.27,0.08-12.05l0.23-2.82l0.54-6.48l1.05-2.9
	c6.72-1.15,13.44-2.3,20.17-3.45L281.27,1058.1z"/>
<path class="st12" d="M257.12,1099.55c2.54,1.64,6.18,2.21,9.61,0.45c0.58,0.09,1.4,0.13,1.97-0.01c0.24,2.76,3.19,4.34,2.99,7.21
	c-15.39,0.94-30.74,3.26-46.16,3.18c0.27-6.87-1.15-14.96,1.67-21.87l29.66-5.02L257.12,1099.55z"/>
<path class="st11" d="M348.18,1122.09c3.51,2.56,4.07,7.94,0.81,10.54c-0.59,10.47-0.4,20.91,0.57,31.31l2.81,1.54
	c-0.52,7.05,0.33,13.68,2.55,19.89l-1.39,2.74c-3.8,3.14-10.24,7.91-13.35,9.25c-0.51-25.58-3.82-51.12-2.7-76.56
	C341.02,1119.43,344.99,1121.98,348.18,1122.09z"/>
<path class="st12" d="M315.48,1077.95c-1.02,8.45,1.54,17.6-1.03,26.73c-10.33,1.34-20.56,1.16-30.25,1.75l0.43-24.95
	L315.48,1077.95z"/>
<path class="st15" d="M400.61,1048.31c-0.56,7.53,0.98,15.49,1.08,23.03c0.05,3.99-0.4,8.03-0.08,12.04l-1.26,1.41
	c-0.41,0.15-0.97-0.09-1.37,0.08c-6.15,0.48-10.53-9.25-12.88-14.63c-3.09-13.5-3.85-11.48-2.27,6.05
	c-0.8,5.92-4.75,10.97-8.64,4.83c-1.94-3.61,1.64-9.07-2.77-10.93l-0.05-17.39c0.46-4.23,5.86-16.59,9.89-17.27
	c1.68-0.28,15.36,7.86,17.58,9.65L400.61,1048.31z"/>
<path class="st10" d="M582.47,1084.18l-2.25-4.35c0.97-12.32-0.55-24.75-4.52-36.46c-1.83,3.08-4.01,4.89-6.52,5.41
	c-5.05-2.3-3.91-14.74-1.69-19.04c-0.19-1.7,0.38-3.47,0.3-5.17l1.42-1.12c6.42,0.55,12.94-0.86,19.63,0.96l1.77,60.03
	C587.34,1085.63,584.9,1084.15,582.47,1084.18z"/>
<path class="st15" d="M563.89,1084.34l-19.92-1.1l-1.54-2.55l0.11-18.53c0.8-0.61,0.94-2.27,0.09-2.91l0.03-2.43l1.43-3.67
	c1.63-1.95,16.66-13.73,17.8-13.35c0.66,0.21,1.27,0.55,1.87,0.93c0.9,1.12,1.68,2.27,2.01,3.54c2.08,8.01,0.78,27.22,0.02,36.5
	C565.7,1082.01,564.9,1083.18,563.89,1084.34z"/>
<path class="st10" d="M400.61,1048.31c-6.32-1.91-11.24-6.93-17.95-10.6l-10.28,15.11l0.12-25.38c-0.79-1.32-0.53-3.97,1.45-4.21
	c8.9-0.8,17.97-2.73,27.33-2.57C402.66,1030.49,401.26,1039.53,400.61,1048.31z"/>
<path class="st15" d="M582.47,1084.18l-14.75,0.15c-1.06-0.81-1.88-1.62-1.92-2.47c-0.23-5.66-0.43-27.61,1.31-30.74
	c0.49-0.89,1.24-1.63,2.06-2.34c0.38-3.21,4.45-7.48,7.57-10.35C582.58,1053.3,584.34,1069.05,582.47,1084.18z"/>
<path class="st10" d="M562.5,1023.37l1.42,1.19c0.11,1.79,0.24,3.59,0.49,5.37c2.68,0.86,2.57,10-0.63,10.81
	c-7.65,4.64-12.83,12.73-21.11,16.09c0.12-10.75-0.48-21.66,0.1-33.05C549.93,1022.98,556.18,1023.65,562.5,1023.37z"/>
<path class="st11" d="M682.96,863.81l-53.87,133.75l-2.18-0.92c17.45-44.5,33.86-89.6,53.64-133.08
	C681.45,861.12,682.59,861.25,682.96,863.81z"/>
<path class="st10" d="M281.27,1058.1l-23.54,4.02c0.56-6.69-0.47-13.61,0.08-21.37l23.22-2.68
	C282.06,1045.24,281.06,1051.65,281.27,1058.1z"/>
<path class="st12" d="M479.52,1185.16c-1.7-0.44-3.62-0.46-5.37-2.46c-1.03-5.37-2.73-55.4,1.83-55.24
	c1.58,0.06,5.01-0.56,5.69,1.18C481.73,1128.81,483.98,1182.59,479.52,1185.16z"/>
<path class="st15" d="M935.98,1078.45c-0.94,2.88-7.05,2.47-9.19,0.81c-0.4,2.31-4.15,1.92-5.36-0.05
	c-3.41,4.16-5.75,1.11-6.14-3.28c0.59-7.02,0.85-13.88,0.78-20.58c6.13-0.98,12.62-0.72,19.26,0.65
	C936.14,1063.87,936.02,1071.2,935.98,1078.45z"/>
<path class="st15" d="M913.68,1055.73c3.23,2.83,3.04,18.52,1.96,22.52c-0.66,2.43-12.18,1.65-13.25-1.01
	c-1.63,0-5.73,0.54-6.44-1.41c-1.9-5.99-0.68-12.49-1.06-19.37C901.33,1055.04,907.61,1056.7,913.68,1055.73z"/>
<path class="st15" d="M902.75,1080.09c0.22-0.74,0.46-1.33,0.73-1.35c0.95-0.07,9.62,0,10.13,0.08c0.68,0.09,1.28,0.39,1.64,0.89
	c0.63,0.87,0.93,20.32,0.18,21.08c-0.53,0.54-1.24,0.9-1.99,1.21c-5.81-0.25-11.74,0.25-18.2-0.51l-0.14-20.46
	C897.99,1080.43,900.46,1079.87,902.75,1080.09z"/>
<path class="st15" d="M921.18,1081.83c0.93-2.03,4.71-1.77,5.82,0.06c1.17-2.38,8.21-2.55,8.96,0.15
	c-0.04,6.39,0.84,12.87,0.11,20.06c-6.27,0.8-11.82,0.39-17.24,0.15c-1.11-0.22-2.71-0.56-2.85-1.4
	C915.11,1095.71,913.41,1076.27,921.18,1081.83z"/>
<path class="st15" d="M176.67,1066.27c-0.41,8.49,1.54,17.09-0.25,25.47l-2.95,0.93l-7.06-10.23c0.39,5.92,1.01,17.91-6.93,15.96
	c0.01-0.43-0.27-0.87-0.27-1.3l0.07-22.89c-1.1-2.17-0.74-4.63-0.01-6.83l0.11-2.5C161.46,1060.15,175.97,1060.73,176.67,1066.27z"
	/>
<path class="st0" d="M176.42,1091.75c-0.1,0.45-0.2,1.01-0.07,1.42l0.3,0.93c-0.63,0.65-0.67,1.58-0.13,2.78
	c-0.71,5.03,2.28,11.95-4.28,11.07c-4.47-0.6-12.24,2.72-12.9-2.86l-0.03-1.65l0.16-5.03c6.83-4.13,3.64-14.55,4.11-22.81
	C170.15,1079.56,171.22,1087.53,176.42,1091.75z"/>
<path class="st11" d="M835.81,914.1c5.52-2.16,10.8,2.41,12.06,6.72c1.49,5.05-1.42,10.3-6.67,11.89
	c-4.42,1.34-9.75-1.18-11.64-5.91C827.78,922.31,829.87,916.43,835.81,914.1z"/>
<path class="st10" d="M176.67,1066.27c-5.54-2.05-11.46-1.63-17.29-1.38c0.2-4.54-2.81-13.79,2.85-14.82
	c4.46-0.81,13.21-3.59,14.85,1.03C178.85,1056.09,176.89,1061.66,176.67,1066.27z"/>
<path class="st11" d="M916.06,1055.35c6.64,9.16-4.86,22.66,5.36,23.86c3.5,0.75,3.24,1.94-0.25,2.62
	c-7.19,1.5-3.64,14.24-2.35,20.41l-5.38-0.24c1.14-6.66,0.74-13.59,0.07-20.87l-10.77-1.05l-0.37-2.86c2.84,0,8.94,2.36,10.96-0.1
	c1.53-7.55,0.39-14.76,0.33-21.4L916.06,1055.35z"/>
<path class="st11" d="M790.31,915.68c4.9-2.14,10.04-0.45,11.27,4.24c1.05,4.03,0.65,9.71-4.49,11.59
	c-3.57,1.3-8.16,0.08-10.61-4.08C784.31,923.75,784.66,918.15,790.31,915.68z"/>
<path class="st11" d="M567.48,1029.73c0.7,6.37-0.06,12.86,1.69,19.04c-1.39,11.78-2.19,23.75-1.46,35.55
	c-1.28,0.01-2.55,0.08-3.82,0.01c0.68-14.51,0.88-29.11-0.12-43.61c-0.24-3.54,1.13-7.22,0.63-10.81L567.48,1029.73z"/>
<path class="st3" d="M921.27,1018.51c0.14,2.24,0.21,4.64-1.14,6.53c-6.63-0.35-14.01,1.05-21.12-0.19
	c-2.64-0.46-3.23-9.4-0.56-9.66C906.46,1014.41,914.09,1018.27,921.27,1018.51z"/>
<path class="st11" d="M935.98,1078.45l-0.02,3.59c-2.96,0.19-6.01-0.51-8.96-0.15c-3.55-0.3-3.55-1.3-0.21-2.63
	C929.82,1078.63,932.9,1078.7,935.98,1078.45z"/>
<path class="st12" d="M373.94,1023.22c-0.32,1.36,0.24,3.74-1.45,4.21c-0.55-0.91-2.36-2.16-1.52-3.56
	C371.66,1022.73,373.03,1023.31,373.94,1023.22z"/>
<path class="st12" d="M159.27,1074.22c-2.17-1.45-1.62-5.02-0.01-6.83C159.43,1069.66,159.28,1071.94,159.27,1074.22z"/>
<path class="st9" d="M807.45,841.36l1.77,2.21c-27.48,43.91-55.31,87.6-83.51,131.07l-2.66,0.23l-1.03,1.42
	c1.09,0.42,1.03,0.8-0.12,1.16c0.47,3.29-6.94,14.05-9.39,15.92c-1.33,1.01-2.17,1.37-4.03,0.4l-64.43,4.91l84.73-142.36
	c-1.37-3.79,5.75-6.27,7.78-2.95C760.61,851.71,783.75,843.9,807.45,841.36z"/>
<path class="st13" d="M812.93,840.78c-1.08,6.41-2.54,12.8-7.38,19.94l-81.05,119.51c-2.53,0.78-3.54-0.29-2.6-2.77
	c0.11-0.35-0.04-0.83,0.12-1.16l1.03-1.42l84.41-133.52L812.93,840.78z"/>
<path class="st12" d="M721.9,977.46c1,0.79,1.92,1.68,2.6,2.77c0.21-0.31-6.99,16.7-11.41,16.27c-1.8-0.18-3.9-0.58-4.61-2.72
	C713.65,988.84,716.26,981.72,721.9,977.46z"/>
<path class="st15" d="M413.95,818.56c-3.46,0.81-6.27-1.15-8.42-5.85l-3.4-6.91c-2.79,6.48-5.82,12.87-9.09,19.16l-3.04,1.15
	c-0.35-0.17-1.02,0.08-1.43-0.02c-1.71-18.44-1.03-37.15-1.13-55.71l29.24-13.92C413.46,777.77,419.9,799.4,413.95,818.56z"/>
<path class="st0" d="M413.95,818.56c-3.75,5.77-18.96,11.62-23.95,7.54c1.23-6.15,5.05-11.02,8.24-16.75
	c2.83-5.09-0.19-12.19,5.88-16.53C403.07,803.65,406.43,811.89,413.95,818.56z"/>
<path class="st13" d="M420.54,1170.61c-0.17-0.03-0.58-0.06-1.34-0.02l-2.69-1.16l-0.48-38.7c-2.28-0.65-4.77-0.64-7.46,0.05
	c-0.44,11.82-0.23,23.63,0.65,35.42l-2.07,4.46c-0.46-0.05-1.38-0.05-2.72,0.24l-2.89-3.79c-1.27-11.9-1.41-23.76-0.42-35.59
	c-2.26-0.45-4.55-0.45-6.87-0.01l-0.42,36.97l-2.63,4.69c-0.81,0.55-2.18,0.69-3.97,1.35l-2.62-1.32l1.77-40.35
	c-3,0.05-5.91-0.01-8.72-0.19c-2.08,2.73-2.41,2.46-2.75-0.93c-1.25,1.83-3.35,2.67-6.3,2.52l-3.1,2.84
	c-0.28,3.58-1.56,3.35-2.57-0.06c-3.22-2.79-5.27-3.46-10.01-2.69l-0.96,25.93l-2.41,3.66c-2.85-13.49-1-27.91-1.38-41.85
	c26.04-1.78,52.03-4.07,78.84-4.26c1.79-0.01,1.03,4.33,0.81,5.77c-0.28,1.86-3.02,2.79-6.13,3.53L420.54,1170.61z"/>
<path class="st10" d="M362.95,1137.04c0.72,0.09,1.28,0.18,1.28,0.27c0.02,14.7-0.39,30.6-1.22,45.28l-1.45,1.53
	c-1.41,2.75-5.42,1.84-8.02,3.99c-4.89-6.52-3.14-15.98-3.97-24.17c-1.07-10.56,0.62-21.47,0.25-31.89c4.8-0.75,7.21-0.52,11-0.47
	C362.78,1131.61,363.02,1134.43,362.95,1137.04z"/>
<path class="st10" d="M419.2,1170.59c-3.64,0.19-7.28,0.57-12.05,0.07c-2.29-13.76-1.22-27.83-1.07-42.19
	c4.65-0.78,8.43-1.28,12.59-0.61L419.2,1170.59z"/>
<path class="st10" d="M404.43,1170.9c-3.79,1.66-7.97,2.05-13.22,2.27c-0.08-13.83-0.82-28.85,0.84-42.79
	c2.62-2.31,9.12-2.76,11.7-0.31C402.13,1143.95,403.81,1157.83,404.43,1170.9z"/>
<path class="st10" d="M374.91,1131.74c0.75,0.61,1.34,1.24,1.37,1.89c0.36,6.6,1.9,40.78-0.32,43.37c-0.56,0.65-1.3,1.14-2.09,1.58
	c-2.38,1.88-5.28,3.7-9.47,4.16c-0.78-0.22-1.38-0.44-1.38-0.66c-0.06-14.3,0.4-29.8,1.19-44.1c0.02-0.31,0.58-0.59,1.31-0.87
	c0.07-3.05-1.77-5.5,2.06-5.47C370.09,1131.65,372.67,1130.25,374.91,1131.74z"/>
<path class="st10" d="M387.23,1174.53c-2.4,0.89-4.71,1.73-8.13,2.45l-1.8-0.35c-0.35-14.16-0.69-28.5-1.02-43.02l1.38-0.94
	c1.82-3.14,8.38-4,11.41-1.22L387.23,1174.53z"/>
<path class="st11" d="M365.51,1137.1l-1.11,45.63c-0.09,0.68-2.15,0.47-2.84,1.39l1.39-47.08L365.51,1137.1z"/>
<path class="st12" d="M377.66,1132.67l1.44,44.31c-1.17,0.25-3.41,0.93-5.24,1.6c2.95-15.38,0.67-31.18,1.04-46.83
	C375.67,1132.25,376.97,1131.9,377.66,1132.67z"/>
<path class="st13" d="M597.42,1174.07c-2.27-5.45-2.75-11.86,0.48-17.41C598.89,1162.26,599.78,1167.39,597.42,1174.07z"/>
<path class="st12" d="M541.23,453.91c1.12,8.27-5.91,14.53-5.25,22.73c-6.57,3.3-10.22,9.72-14.93,14.81
	c-9.67,0.3-20.4-0.24-30.16-2c-1.79-1.81-1.52-7.22,0.4-8.83c12.43-0.26,23.79,3.12,36.18,0.25c-12.55-3.81-25.42-0.65-36.18-5.89
	c-1.9-1.66-2.31-9.26,0.03-10.01c13.57-2.11,27.51,0.94,40.71,2.01c-10.62-8.54-38.26,0.63-39.43-15.34L541.23,453.91z"/>
<path class="st11" d="M536.46,362.83c-5.02-9.79,4.14-20.19,11.91-22.27c2.71,3.59,3.06,7.94,3.01,10.73
	c-0.08,4.06-6.93-0.23-8.61,1.3c-6.56,6.01,2.93,11.55,6.93,15.1c4.33,3.85-1.8,12.96,6.89,15.65c-0.86-11.26-4.72-40.99,0.92-51.43
	c1.21-2.23,4.58-0.65,4.46,1.21c-0.09,1.42,3.74,5.06,3.16,6.47c-1.6,3.83-6.7,44.1,4.57,43.39c-3.51,3.49-7.51,8.61-12.01,7.76
	C549.1,383.09,541.98,373.6,536.46,362.83z"/>
<path class="st12" d="M547.96,443.48c-0.9,2.57-4.73,5.53-7.06,6.99c-16.48,2.25-33.34,0.77-50.09-2.21
	c-7.73-14.77,28.51-0.08,35.56-4.23c-3.56-2.15-47.52-1.49-34.93-13.3C510.19,436.88,529.23,440.66,547.96,443.48z"/>
<path class="st12" d="M519.2,494.47c-1.6,5.12-6.05,8.85-8.73,13.08l-19.72-3.34c-1.88-2.38-1.43-9.35,0.92-11.2L519.2,494.47z"/>
<path class="st11" d="M571.79,381.51c-2.77-3.35-3.19-8.16-2.72-11.85c0.36-2.82,7.03-4.53,6.59-9.4c-0.34-3.83-5.87-4.23-7.34-5.85
	c-1.99-2.17-2.8-7.97,0.83-10.27c6.18,1.28,11.5,10.65,12.64,17.39C583.01,368.8,578.35,376.53,571.79,381.51z"/>
<path class="st15" d="M436.48,493.06c0.02,10.12,1.51,20.41-0.54,31.19l-17.99,9.96c-0.35,0.86-0.76,0.83-1.24,0l0.13-32.95
	c1.56-4.67,5.35-15.05,9.9-16.67C431.15,483.01,436.09,488.97,436.48,493.06z"/>
<path class="st10" d="M436.48,493.06c-3.49-0.91-4.64-5.95-8.97-6.15c-5.22,4.24-5.06,12.06-10.67,14.34
	c0.03-6.73-4.7-16.38,0.8-23.3c3.52-4.43,11.36-11.59,18.38-9.44C440.85,475.22,436.46,486.02,436.48,493.06z"/>
<path class="st12" d="M416.74,536.04c0.17-1.19,0.57-1.19,1.18-0.08c10.48-0.75,18.92-7.1,27.58-11.67
	c1.24-7.05,0.13-12.7,2.59-19.54c0.8,6.92,2.34,14.02,0.45,21.18l-51.01,25.78C401.71,542.1,412.29,543.17,416.74,536.04z"/>
<path class="st13" d="M701.82,539.74c-14.25,25.83,4.38,23.38-6.23,40.27c-1.34,2.14-4.84,3.46-6.4,0.85
	c-6.54-10.97,6.91-18.65-3.36-41.11l7.42-13.92C696.31,530.3,699.09,534.3,701.82,539.74z"/>
<path class="st13" d="M722.99,601.62c-17.5,29.95-13.07,7.92-26.5,29.29C697.04,617.88,705.3,594.45,722.99,601.62z"/>
<path class="st13" d="M687.38,626.63c-8.33-11.86-24.89-16.57-22.59-28.98c7.69,1.88,14.07,4.89,18.18,8.74
	C688.84,611.88,688.47,619.33,687.38,626.63z"/>
<path class="st13" d="M677.05,565.88c-5.68-2.07-9.34-6.8-9.01-10.66c0.35-4.26,4.03-10.32,9.09-9.46
	c4.85,0.82,7.08,6.82,6.69,10.34C683.44,559.33,680.28,567.06,677.05,565.88z"/>
<path class="st13" d="M707.74,549.93c4.25-2.74,7.33,3.06,9.41,5.02c3.42,3.21,0.92,8.05-1.79,9.21c-4.92,2.09-9.3,1.5-10.44-1.81
	C703.45,558.07,703.52,552.65,707.74,549.93z"/>
<path class="st12" d="M736.55,841.31c-0.76,3.99-0.08,8.05,0,12.08l-7.78,2.95c-13.96,5.29-30.57,4.84-45.82,7.47
	c-0.62,0.11-1.79-0.19-2.4-0.25c-3.45-2.59-8.01-4.2-6.82-9.1c-0.71-0.3-0.59-0.73,0.14-1.27c-0.05-0.46,0.15-0.94,0.06-1.39
	c1.49-1.37,3.15-2.55,5.13-3.07c5.01-1.31,34.33-6.02,36.95-5.29c1.03,0.28,2.01,0.74,2.98,1.24L736.55,841.31z"/>
<path class="st6" d="M721.95,831.53c3.31,4.73-0.54,8.67-2.95,13.15c-14.96,2.88-29.77,6.27-45.06,7.13
	c-0.79-3.85,2.48-6.63,2.62-10.33C692.18,842.87,706.29,831.57,721.95,831.53z"/>
<path class="st15" d="M339.06,789.95c-0.85,18.62,4.75,39.5-2.53,55.73l-3.12-3.76l-3.43-16.09l-5.15,22.6l-3.24,2.14
	c-8.94-12.9-4.59-32.93-3.82-49.82L339.06,789.95z"/>
<path class="st0" d="M336.53,845.68c-3.07,4.06-10.31,3.82-14.94,4.89l7.95-34.86C333.39,825.61,335.53,835.36,336.53,845.68z"/>
<path class="st0" d="M398.98,1084.88c-8.1,3.5-17.5,2.22-26.82,3.58c0.38-3.69,3.78-5.19,3.03-7.33
	c13.24,2.63-1.44-19.76,10.15-29.07C385.32,1066.14,390.75,1075.89,398.98,1084.88z"/>
<path class="st13" d="M266.73,1100c0.29,2.83-3.14,2.25-4.86,2.33c-2.97,0.14-4.7,0.38-4.75-2.78
	C260.33,1099.43,263.55,1099.49,266.73,1100z"/>
<path class="st13" d="M926.79,1079.26l0.21,2.63c-1.84,0.23-4.09-0.42-5.82-0.06l0.25-2.62
	C923.15,1079.41,925.07,1079.61,926.79,1079.26z"/>
<g>
</g>
<g>
</g>
<g>
</g>
<g>
</g>
<g>
</g>
<g>
</g>
<g>
</g>
<g>
</g>
<g>
</g>
<g>
</g>
<g>
</g>
<g>
</g>
<g>
</g>
<g>
</g>
<g>
</g>
</svg>
