<?xml version='1.0' encoding='UTF-8'?>
<svg xmlns="http://www.w3.org/2000/svg" id="Layer_1" viewBox="0 0 1200 1200" xml:space="preserve" width="1200" height="1800">
<style type="text/css">
      .cls-1 {
        fill: #0f272f;
      }

      .cls-2 {
        fill: #113740;
      }

      .cls-3 {
        fill: #29323b;
      }

      .cls-4 {
        fill: #0a454e;
      }

      .cls-5 {
        fill: #2f4a53;
      }

      .cls-6 {
        fill: #3b4c58;
      }

      .cls-7 {
        fill: #156871;
      }

      .cls-8 {
        fill: #4f6268;
      }

      .cls-9 {
        fill: #49676c;
      }

      .cls-10 {
        fill: #287c82;
      }

      .cls-11 {
        fill: #5f6c77;
      }

      .cls-12 {
        fill: #4a797e;
      }

      .cls-13 {
        fill: #36888a;
      }

      .cls-14 {
        fill: #728f9d;
      }

      .cls-15 {
        fill: #8f8d5f;
      }

      .cls-16 {
        fill: #62a1a0;
      }

      .cls-17 {
        fill: #859fab;
      }

      .cls-18 {
        fill: #91acba;
      }

      .cls-19 {
        fill: #baa978;
      }

      .cls-20 {
        fill: #a2c2cc;
      }

      .cls-21 {
        fill: #e8b963;
      }

      .cls-22 {
        fill: #cce5ee;
      }

      .cls-23 {
        fill: #f8de9f;
      }

      .cls-24 {
        fill: #f8fafb;
      }

    </style>
<path class="cls-3" d="M921.09,0.17l-1.85,4.31c-28.24,20.89-45.15,50.8-47.81,85.86c-49.4-0.28-98.25,14.87-132.25,52.03  c-22.04,24.08-34.4,54.99-32.81,87.82l-2.08,4.37c-0.6,0.91-1,0.79-1.23-0.3c-3.97-3.21-8.83-5.48-14.56-6.81  c-13.99-13.62-28.43-32.91-37.85-50.51c-6.56-12.27-12.6-26.69-12.91-40.57c-18.95,3.18-38.22-9.94-50.26-24.08  c-48.52,0.18-88.66-25.2-123.63-56.5c-0.61-0.55-0.96-1.4-1.33-2.3c-0.37-0.91-0.6-1.89-0.78-2.88c-0.82,0.02-1.63,0-2.41-0.17  c-7.15-1.57-25.76-36.19-29.71-44.58l0.39-4.23c162.9-1.43,325.82-1.91,488.73-1.44H921.09z" />
<path class="cls-3" d="M110.16,1.35c1.94-0.24,4.24,0.03,6,0.88c24.89,12.02,45.4,48.54,48.88,75.28c1.24,9.51,2.07,22.09-2.04,30.47  c0.66-0.96,1.57-1.12,2.63-1.27c20.07-2.76,49.98,9.87,64.93,23.04c17.33,15.27,26.75,38.72,25.58,61.37  c16.73-3.37,37.45,2.13,51.91,11.5c12.61,8.17,24.6,22.01,27.08,36.87c31.33-9.21,65.62,8.12,82.11,35.46  c10-1.54,43.75,4.92,48.19,13.4c2.39,4.56,0.92,5.34-3.64,4.66l-0.71,2.38c-44.61,1.96-89.28,3.92-134.01,5.88l-6.99-2.04  l-3.45,1.59c-15.22-4.72-30.69-8.2-46.39-10.43c-9.95-0.42-19.81,0.5-29.6,2.76c-10.65-28.3-27-51.69-54.21-66.01  c-25.96-13.67-53.07-14.42-81.39-8.75C89.71,172.75,50.72,144.8,3.92,137.89L0,134.92v-1.17C0.62,89.49,0.86,45.22,0.71,0.93  C37.34,0.4,73.83,0.53,110.16,1.35z" />
<path class="cls-18" d="M1066.41,0.17l-1.17,4.59c-25.27,26.63-37.63,62.9-30.8,99.3c0.57,2.59-0.43,3.91-3.06,3.94  c-51.82,1.03-99.48,35.7-108.21,88.03l-2.87,3.37l-2.82,3.54c-16.25,7.37-31.14,17.03-44.66,28.97  c-46.17-11.8-85.61,26.27-69.01,72.33c-11.96,10.59-21.47,21.9-28.62,36.27c-52.12-13.03-83.15,32.07-106.3,71.03  c-1.05,1.5-2.16,2.85-3.34,4.24c-2.54,3.01-10.63,9.67-14.02,6.78c-6.04,0.77-12.22,0.41-18.56-1.08  c-13.55-0.91-27.11-0.5-40.66,1.24c-22.78-30.01-63.18-22.66-80.11,9.25c-35.33,0.85-69.85,15.16-89.79,45.27l-4.01,2.02  c-4.34,2.07-6.5,3.1-6.5,3.1l-64.18,6.68c-18.97,3.2-37.95,6.14-56.94,8.82c-0.26,1.01-0.57,0.93-0.92-0.13  c3.1-5.01,7.19-7.97,11.84-11.26c23.34-16.52,55.64-25.73,83.88-28c22.73-28.86,60.67-44.62,97.09-40.87  c25.15-34.88,73.29-51.31,114.58-40.63c20.51-50.29,72.41-84.8,125.81-90.26c15.97-81.89,95.03-141.3,177.1-144.43  c12.54-51.46,49.08-95.71,93.57-123.67c12.94-8.13,26.94-16.49,42.2-18.45H1066.41z" />
<path class="cls-22" d="M1035.94,0.17c-64.02,24.42-116.39,76.79-134.48,143.73c-47.51,3.29-91.42,21.07-125.2,53.5  c-26.32,24.72-44.51,55.83-51.78,90.83c-55.89,7.34-103.79,39.9-126.27,90.52c-43.4-9.3-88.37,5.81-114.65,40.83  c-37.6-2.83-72.94,11.5-96.98,40.88c-35.78,2.87-69.2,15.82-96.72,37.27l-0.84-3.79c15.43-30.3,52.35-46.38,85.17-41.88  c-0.09-2.67,4.23-17.1,6.02-18.25c0.84-0.54,1.97-0.39,2.98-0.23l0.38-4.26c19.81-23.96,53.28-31.13,82.11-20.79  c2.23-11.96,7.17-27.21,14.3-37.14l3.82-1.84c-2.14-3.39,3.34-10.02,7.08-8.69c0.22-1.63,0.46-3.45,1.59-4.73  c9.03-10.24,33.63-23.25,47.12-25.58c3.96-0.69,7.15-0.95,11.19,0.13c1.2-4.18,9.6-3.99,11.79-0.42l3.78-2.04  c11.66-0.25,26.26,4.97,36.99,9.4c0,0,1.94-8.17,5.82-24.51c1.08-5.31,3.49-8.91,7.22-10.81c-0.66-0.62-1.58-1.55-1.3-2.2  c0.66-1.55,8.89-12.94,10.11-13.99l2.86,0.04l1.17-4.27c20.46-18.71,46.68-28.22,74.38-26.19l-1.51-19.28l2.21-1.86  c-6.76-86.37,76.53-150.22,165.87-145.62c0.95-37.72,21.65-67.41,50.93-88.77H1035.94z" />
<path class="cls-11" d="M1037.14,517.94l-2.18,3.05c-14.47,2.75-27.94,7.59-40.43,14.51l35.22-0.42c30.6,5.76,61.23,7.72,91.9,5.9  c24.43-3.03,48.79-7.05,73.08-12.08l5.27,1.43v145.67c-2.88,1.66-4.31,2.5-4.31,2.5c-18.13-0.67-36.23-0.52-54.29,0.46l-4.55-1.65  l-2.87,0.87c-6.24-5.95-12.39-7.78-18.45-5.5c-2.85,3.72-5.56,5.21-8.12,4.49c-2.41,1.34-5.18,1.62-8.33,0.85  c-4.29,0.76-8.1,0.26-11.43-1.48c-4.21,1.21-11.3-4.41-8.75-8.62l-4.44-4.3c-4.72-8.93-9.81-17.66-15.26-26.19  c-4.47,0.99-7.46,0.25-8.98-2.24l-3.19-0.49c-3.64-6.97-7.84-13.54-12.61-19.69l0.12-3.1l-2.62,1.26  c-12.79-0.15-25.64-0.95-38.54-2.4c0,0-4.14,0.42-12.43,1.26l-3.35,0.57c-9.38-9.19-19.22-17.69-29.54-25.5l-1.08-3.1  c-12.87,2.99-26.13,4.3-39.77,3.94l-1.47-2.29l-3.96-1.55c-11.88-16.86-23.77-33.72-35.66-50.58l1.11-2.49  c-4.02-5.11-6.04-7.66-6.04-7.66c-23.04,0.17-46.06-0.04-69.05-0.62l0.82-1.56l7.42-2.12c0.26-1.04,0.65-1.06,1.17-0.09  c5.59-1.16,11.06-2.69,16.41-4.59c0.14-1.07,0.54-1.06,1.17-0.08c5.69-1.34,11.16-3.26,16.41-5.75c0.34-1.06,0.73-1.07,1.17-0.05  c6.41-2.37,12.79-4.88,18.82-8.13l1.18-3.54c9.46-5.83,19.23-10.88,29.33-15.16c9.55-2.78,19.48-3.84,29.8-3.17l54.46,0.03  c8.41,1.05,7.92,2.45,1.59,6.75c0,0-9.14,2.28-27.43,6.84c-10.67,13.96-26.54,22.89-42.99,28.48l134.14-4.91L1037.14,517.94z" />
<path class="cls-11" d="M256.64,0.17c7.25,0.84,11.61,5.26,16.29,10.45c11.56,12.81,17.87,30.59,21.04,47.31  c39.63,16.6,55.39,57.8,36.73,97.09c14.27,1.59,28.38,5.88,40.33,13.99c4.77,3.24,14.36,10.38,15.91,15.53  c0.9,2.97,0.87,3.82-2.97,3.82c-10.54-0.85-57.55,1.65-62.54,7.72c-0.59,0.72,14.79,9.88,15.72,9.98  c38.54-1.75,79.05,3.82,105.05,35.41c11.62-24.28,41-11.44,52.14,6.52l-1,2.81c5.17,3.78,8.78,9.27,10.82,16.47  c4.27,9.69,7.02,19.71,8.25,30.05c14,0.23,31.07,6.94,41.57,16.75c4.03,3.76,11.18,10.9,8.55,16.19c-3.56-0.26-8.28-0.12-11.79,0.42  l-7.73-0.73c-26.98-11.42-53.94-22.83-80.88-34.24l-0.38-2.71c0.6-0.68,1.8-0.79,2.49-1.29c1.2-0.88-1.07-2.02-1.95-2.96  c-13.35-9.65-29.45-11.17-46.19-11.92c-18.38-27.9-47.58-43.02-81.99-35.65c-10.46-34.46-43.25-51.3-79.28-48.66  c-1.01-18.46-5.29-36.27-16.45-51.36c-18.8-22.52-46.9-33.24-76.76-32.02c8.77-43.58-13.99-86.49-51.51-107.81  c-1.02-0.33-1.01-0.72,0-1.17H256.64z" />
<path class="cls-22" d="M1200,101.44v93.59l-3.54,2.64c-26.59,2.59-53.4,9.79-76.43,23.64c-20.55,12.37-34.61,28.27-45.89,49.29  c-27.63-13.44-58.48-18.19-86.04-1.91c-20.24,11.95-26.21,30.82-29.87,52.7l-4,0.15c-29.39-9.55-53.07,11.15-43.14,41.37l-1.54,2.78  c-2.18,2.04-5.29,2.96-9.32,2.77l-6.5,1.84c-15.87,8.17-29.14,19.96-39.81,35.36l-3.18,0.18l-1.37,2.37l-154.3,4.34  c-2.38-2.54-3.17-3.82,0.5-5.68c19.66-7.94,40.15-13.96,61.1-17.27c20.43-36.44,68.17-52.87,107.1-38.29l1.18-0.63  c-7.45-20,13.79-47.01,34.22-46.09c0.6,0.03,1.03,0.26,1.31,0.81c-0.5-43.66,41.73-79.68,84.25-78.06  c3.14-19.15,20.18-41.22,40.67-43.3c4.74-6.49,18.1-6.52,26.08-6.08c9.54,0.52,22.78,2.95,29.33,9.54  c0.82-8.17,5.98-16.86,10.4-24.1c12.73-20.86,31.3-37.32,53.01-48.38c11.79-6,38.3-16.02,51.05-15.42  C1197,99.69,1198.57,100.45,1200,101.44z" />
<path class="cls-11" d="M1066.41,0.17H1200v101.26c-52.98,5.13-100.18,35.71-118.45,87.71c-17.3-9.74-37.98-11.63-56.18-5.09  l-9.79,1.92c-30.01-0.66-59.86,4.4-88.38,13.6l-6.89-0.17c7.08-54.18,55.36-93.41,112.4-93.44  C1024.19,66.45,1038.54,28.22,1066.41,0.17z" />
<path class="cls-20" d="M325.78,0.17c0.96,0.49,0.88,0.88-0.18,1.17c1.85,1.6,3.11,4.15,3.76,7.65c4.96,6.18,8.09,12.69,9.4,19.52  c-4.59,20.18,2.17,33.66,23.31,39.2c9.88,37.25,41.13,63.27,80.62,58.17c15.5,37,50.98,56.61,90.17,57.01l3.75,2.38  c0.33,3.82,0.5,5.74,0.5,5.74c-7.35,13.97-11.03,20.95-11.03,20.95c14.36,6.07,29.19,11.74,44.49,17L607,275.27l19.44,7.42  l1.61,3.47l-11.67,16.15l-1.95,1.69c-32.98-15.44-66.48-30.17-100.48-44.21c-7.89-1.69-14.75-4.68-20.58-8.99  c-5.63-9.5-22-25.74-40-18.48c-5.1,2.06-7.53,7.33-10.26,13.84c-28.98-35.72-64.84-38.51-106.37-37.84  c-7.74-3.41-14.74-10.72-22.68-12.88c23.88-7.81,47.32-10.85,72.44-9.09c-15.6-19.19-36.42-27.43-59.5-29.34  c10.31-19.2,11.84-39.87,4.27-60.96c-6-16.74-23.44-28.2-39.09-36.82c-5.5-24.52-14.23-46.3-35.54-59.05H325.78z" />
<path class="cls-5" d="M1200,276.89v184.93c-0.22,1.05-0.62,1.05-1.17,0.07l-2.34-0.81l0.03-98.19c-33.25,0.25-70.62,13.33-93.53,39.3  c-35.69-7.6-70.24,6.48-89.85,37.36c-7.11,2.24-25.13,7.39-31.52,4.49c-3.79-1.72,0.58-12.07,2.91-14.32  c-27.25,12.9-48.15,22.17-79.35,22.89c-23.74,0.54-46.08-0.83-68.44-9.67c-6.2-2.45-18.42-7.7-22.8-12.09  c-1.19-1.2-1.77-2.79-2.1-4.43c-1.18-2.91,0.54-5.34,5.16-7.29c10.21-3.73,20.47-7.13,30.78-10.22c0.45-1.66,0.82-2.71,2.93-3.09  c13.69-16.61,33.25-42.44,58.82-40.14l2.07-2.07c6.29,1.85,12.22,4.54,17.8,8.07c15.86-3.74,32.32-5.02,49.38-3.85  c10.68-1.69,21.07-4.75,31.17-9.18c10.85-2.81,20.22-2.55,29.65,4.46c17.83-28.06,51.08-52.87,85.44-42.11  c16.77-24.36,43.54-47.81,73.88-50.41L1200,276.89z" />
<path class="cls-22" d="M320.08,299.24c10.6,2.37,20.71,10.54,28.99,17.61c7.87,6.71,16.51,14.6,20.77,23.97  c30.56-13.03,66.08-9.39,94.54,7.62c0.58,0.34,0.96,1.04,1.36,1.79c0.41,0.77,0.67,1.61,0.9,2.48c3.18,0.63,4.78,1.52,6.96,3.76  c2.11,2.16,7.23,9.46,4.66,11.79c-6.08,0.86-9.11,1.29-9.11,1.29c-51.22-7.61-102.66-11.96-154.31-13.05  c13.53,5.22,34.8,14.67,41.99,27.84c0.95,1.74,1.58,2.97,0.5,5.08c-6.16,0.1-9.25,0.15-9.25,0.15  c-55.22-14.96-112.57-23.51-167.59-26.82l-8.22-3.01c-0.4,0.81-1.2,1.97-1.74,1.76c-6.77-2.6-27.98-12.38-33.19-16.24l-0.21-2.71  c1.08-0.6,2.17-1.15,3.32-1.55c1.12-0.39,2.22-0.75,3.31-0.76c34.75-0.31,70.01,2.09,103.9,9.87c-6.01-6.5-13.19-11.9-21.53-16.17  c0.13-35.01-24.05-63.3-59.56-66.07c-19.42-1.51-33.66,5.81-49.52,15.97c-16.68-29.16-35.69-54.81-62.19-75.94  c-15.44-12.31-32.48-22.51-50.71-30.11L0,173.58v-38.67c49,7,90.67,32.52,106.01,81.8c59.01-16,117.51,15.64,135.57,74.8  C268.96,281.87,294.58,293.36,320.08,299.24z" />
<path class="cls-8" d="M1200,195.02v81.86c-1.26-1.02-0.75-3.95-1.95-4.25c-1.83-0.46-4.23,0.43-6.01,0.88  c-28.1,7.14-48.57,25.99-66.25,49.44c-35.49-9.72-66.65,13.48-85.66,43.49c-18.6-14.85-33.78-2.97-49.54,1.72  c-18.61,5.55-41.51-1.7-61.2,5.76c-7.05-2.9-13.28-7.64-19.85-8.23c-4.83-13.38-4.08-29.83,5.56-39.29  c10.96-10.74,27.91-11.53,42.02-6.35c1.59-26.02,12.95-46.33,37.22-57.28c24.25-10.94,54.89-8.48,79.2,6.08  C1094.68,219.94,1152.11,198.45,1200,195.02z" />
<path class="cls-18" d="M137.13,342.51l-5.3,0.12c-25.95-11.33-54.4-14.22-82.35-16.51l-16.74-3.72l-3.61,1.43  c-8.67-1.74-17.42-2.89-26.27-3.44L0,317.7V173.58c50.62,19.5,93.46,59.31,117.59,108.58c21.18-18.76,50.11-21.76,74.85-9.53  c21.97,10.86,36.55,34.58,35.53,60.25c10.06,5.12,19.28,10.33,24.67,20.73C213.3,343.66,175.71,342.68,137.13,342.51z" />
<path class="cls-20" d="M246.88,576.81l1.09,2.23c0,0-31.76,31.72-95.28,95.17l-5.06,1.74l-0.81,2.34  c-48.45,0.09-96.91,0.19-145.37,0.28L0,676.24V563.75c0.39-1,0.78-0.97,1.17,0.06l5.15-1.3c34.13,1.16,68.3,1.59,102.51,1.3  c5.15-0.52,6.23,0.66,5.65,4.63L85.6,582.62l105.91,2.34c17.31-0.56,34.11-4.98,50.76-9.38L246.88,576.81z" />
<path class="cls-8" d="M356.25,0.17c1.24,0.61,2.26,0.64,3.52,0h67.97l1.19,1.36c0.35-0.86,0.72-0.81,1.09,0.08  c8.95,16.56,17.74,35.71,31.73,48.99l1.53,3.83c-2.92,41.73,40.96,74.97,78.97,80.8c9.11,4.33,15.2,12.05,18.27,23.17  c0,0,2.31,3.41,6.92,10.23c3.5,2.57,5.37,5.42,5.62,8.54l-2.08,2.82l-21.93,6.05c-5.31,2.04-9.45,1.79-12.43-0.76  c-40.66,0.16-79.26-17.68-94.97-57.67c-38.75,6.38-71.89-21-81.1-58.41c-9.67-2.23-17.43-7.05-21.75-13.86  c-6.52-10.26-2.16-19.69-2.32-29.16c-1.84-7.79-12.32-15.41-10.86-24.82c0.51-0.56,1.35-0.95,2.53-1.17H356.25z" />
<path class="cls-1" d="M1067.41,905.72l4.69-1.19l76.31,20.03c17.97,3.75,35.16,9.07,51.59,15.97v39.12l-0.88,2.6  c-41.94,9.57-83.89,19.14-125.83,28.71l-1.92-1.96c-3.02-1.26-4.53-4.26-4.52-9l-1.03-10.22c0,0-7.83,7.36-23.49,22.09l-5.26,1.54  l-6.05,2.24c-33.87,1.92-67.75,2.79-101.64,2.62c-5.22-0.06-7.71-0.57-6.25-5.42l58.61-29.72l9.67-2.27  c2.08-0.97,4.18-1.89,6.33-2.64c2.14-0.75,4.28-1.45,6.48-1.83c55.1-9.43,111.95-12.57,167.76-14.35l-99.05-25.5l-53.33,19.89  c-37.92,14.39-76.61,25.99-116.07,34.8l-2.9,2.72l-17.93,3.61l-3.68-1.57l-1.43-2.15c13.76-22.48,27.52-44.96,41.29-67.46l3.14-0.63  c3.95-3.5,13.89-0.08,19.03,1.71c4.96,1.73,9.81,3.84,13.99,7.1c3.57,2.78,10.34,8.91,8.86,12.97  c12.74-9.14,27.61-16.36,42.04-22.96c14.77-6.76,39.21-17.82,54.74-19.68C1062.96,904.6,1065.22,904.98,1067.41,905.72z" />
<path class="cls-6" d="M32.75,322.4c23.1,2.73,44.48,19.79,53.14,40.86c11.86-6.3,29.06-5.11,41.5,0.25  c16.18,6.98,25.93,20.67,30.62,37.33c25.83-5.69,53.33,10.13,62.81,34.38c12.17,2.92,25.64,9.47,32.04,20.62l4.33,2.45  c12.07,18.12,22.84,36.71,32.31,55.77l-1.28,2.59c-0.89,0.28-1.79,0.52-2.7,0.61c-0.88,0.08-1.72,0.14-2.42-0.12  c-11.89-4.54-56.99-24.25-61.06-33.91c-0.35-0.84-0.56-1.74-0.72-2.66c2.64-2.27,2.17-4.51-1.42-6.72  c-34.48-34-94.51-73.2-140.04-36.93c-15.21-3.8-30.5-6.04-45.87-6.73l-2.57,2.23c-9.1,0.83-18.18,2.03-27.23,3.61l-2.7-2.21  C1.08,395.92,0.59,358,0,320.04v-2.34C10.87,319.07,22.18,319.17,32.75,322.4z" />
<path class="cls-6" d="M147.62,675.95l4.72-2.36c30.1-0.08,60.2-0.17,90.3-0.25l1.41,2.34l4.22-2.33c36.7,0.14,73.4,0.29,110.11,0.43  l4.8,2.36c2.76,1.82,2.69,2.85-0.3,4.28l-1.29,2.39c-16.29,1.25-32.52,1.01-48.71-0.72l-0.7,2.38l-58.08,2.57  c39.32,3.17,78.41,8.89,117.15,16.32c5.54,0.68,6.73,2.02,4.67,5.82l-108.73,3.48l-32.82-1.28l-0.78,2.35  c-45.43,0.49-90.98,0.98-136.66,1.47l-13.73-2.2l-2.65,1.61c-10.13-0.88-20.5-0.36-31.12,1.55l-1.3-1.35  c-4.69-0.41-8.47,0.35-11.34,2.29l-32.45-0.14c-1.08,3.17-1.26,6.97-0.53,11.4l-2.37,1.52c1.43,3.92,2.15,5.88,2.15,5.88  l-0.11,24.68l173.93-0.9c7.52,0.24,14.78,0.98,21.8,2.23c29.12-1.78,58.16,0.39,87.11,6.49l3,1.89l-5.79,2.37  c-28.41,1.84-56.6,5.65-84.57,11.45l-26.71,1.24c-0.86,0.63-1.74,1.22-2.69,1.66c-0.91,0.43-1.8,0.83-2.71,0.89  c-12.83,0.81-25.75,0.76-38.6,0.49L3.94,777.99l-0.55,0.47c1.37,6.15,0.24,9.58-3.39,10.26V676.24L147.62,675.95z" />
<path class="cls-4" d="M307.05,1072.16c-0.64,0.96-1.3,1.88-2.09,2.7c-0.77,0.8-1.52,1.56-2.42,1.98  c-25.42,12-64.44,29.36-92.04,31.84c-2.22,0.2-4.39-0.56-6.43-1.38c-0.74-0.74-0.9-1.58-0.85-2.57c0.09-1.99,17.34-18.28,20.6-19.74  c1.64-3.67,4.69-6.87,9.17-9.59l9.81-9.85c-73.52,28.07-151.19,50.38-229.45,60.06c-2.17,0.27-4.39,0.2-6.62,0.1  c-2.25-0.1-4.48-0.39-6.72-0.72v-21.09c0.43-2.45,0.83-4.79,1.17-7.03c-1.39-3.35,1.05-6.29,3.92-3.53l4.29,0.02  c1.27-1.01,3.46-1.08,4.69,0c1.86,0.93,4.01,0.95,5.86-0.02l4.15-1.31c101.92-4.88,199.41-39.61,291.69-81.58  c15.87,4.71,31.8,9.13,47.78,13.26c3.28,0.74,3.81,2.37,1.58,4.89C348.62,1046.46,328.24,1060.49,307.05,1072.16z" />
<path class="cls-7" d="M1200,1060.88v11.86c-2.03,1.34-4.08,2.63-6.21,3.78c-2.12,1.14-4.23,2.25-6.46,3.05  c-66.25,23.79-133.6,46.82-201.46,64.46c-11.21,2.91-47.06,11.21-55.99,8.12c-1.05-0.36-2.05-0.89-3.03-1.46  c2.55-4.23,3.83-6.35,3.83-6.35c35.53-27.47,68.66-57.45,99.4-89.93l8.37-6.78c-0.25-4.11,15.2-13.06,17.75-12.78  c16.55,13.75,36.51,13.52,56.51,8.9c2.39,0.49,4.87,1.59,4.18,3.99c-1.84,6.36-23.55,24.11-30.04,28.73  c-18.32,10.02-36.91,19.49-55.76,28.4c37.4-7.6,70.47-23.03,102.06-43.13c18.44-11.09,36.95-8.86,56.63-4.1  C1194.36,1057.45,1197.77,1058.53,1200,1060.88z" />
<path class="cls-6" d="M1198.83,461.89c0.38-0.08,0.79-0.01,1.17-0.07v68.52c-69,12.38-89.85,19.94-161.49,8.04  c-17.2-2.85-34.3,0.8-50.97-1.01c14.93-11.95,32.86-14.59,49.6-19.43l3.48-2.51c24.95-0.69,47.44-8.69,65.63-24.55l-25.48-1.84  c-1.47-1.28-1.53-2.96-0.96-4.79l38.84-22.3c24.5,3.16,49.38,3.38,73.71-1.18L1198.83,461.89z" />
<path class="cls-4" d="M60.9,909.47l4.47-0.09c23.54,17.95,46.4,29.38,75.18,40.44c47.61,18.3,93.57,32.09,142.26,46.57  c4.41,1.31,8.5,3.47,12.51,5.69c-0.25,0.85-0.55,1.68-0.98,2.43c-2.07,3.62-29.05,15.4-35.24,17.76l-4.7-0.24l-9.36,2.02  c-5.72,0.26-31.05-3.2-34.49-5.92c-0.72-0.57-1.35-1.26-1.95-1.99c-36.77-14.09-70.69-36.64-101.29-61.31l4.78,12.12  c2.59,5.51,2.33,9.15-0.76,10.93l-15.39-6.87c-31.59-19.77-63.09-39.48-94.51-59.14L0,908.23v-45.7c3.56,0.79,5.33,1.18,5.33,1.18  c16.11,14.18,32.9,27.47,50.35,39.88L60.9,909.47z" />
<path class="cls-9" d="M926.85,1150.69c-4.13,6.04-9.81,10.85-17.04,14.43l-52.79,32.76l-7.32,2.1h-2.43h-1.17h-4.69  c-24.44,0.12-48.69-0.3-72.75-1.27c2.09-2.01,4.28-4,6.93-5.24c30.53-14.24,57.2-27.15,85.78-45.51  c31.19-20.04,60.53-42.74,89.67-65.58c3.59-0.43,4.16-1.2,1.71-2.31l2.53-2.34c26.39-7.6,51.94-17.33,76.66-29.19l6.51-0.92  C1007.09,1087.37,964.97,1117.87,926.85,1150.69z" />
<path class="cls-12" d="M1107.41,677.17c0.28,2.65-0.88,5.27-3.46,7.86l38.49,0.16c-3.92-2.49-5.78-5.12-5.59-7.87  c20.55-3.4,42.06-0.3,63.15-1.31v29.56l-0.8,2.35c-82.87,0.69-166.02,1.35-249.46,1.98l-26.3-2.09l-7.58,1.62  c-58.19,0.83-116.38,1.78-174.59,2.84l-7.68-1.12c-16.62-0.36-33.2-0.92-49.81-1.77c-1.08-0.06-2.15-0.49-3.25-0.95  c-1.11-0.46-2.16-1.07-3.19-1.73c6.77-2.2,10.16-3.3,10.16-3.3c53.65-4,107.29-7.98,160.93-11.93c0.24-3.69,6.58-3.4,7.03,0.09  l28.94-2.55c60.18,0.97,120.3,0.62,180.35-1.08c9.02-1.67,18.02-2.8,27-3.4c-3.1-2.65-4.47-5.31-4.1-7.98  C1094.2,675.72,1101.33,674.82,1107.41,677.17z" />
<path class="cls-4" d="M1200,827.38v32.52l-1.19,2.29l-80.14-3.89c-12.53,9.59-26.67,16.72-40.85,23.5  c-17.77,8.5-37.13,17.13-56.15,21.71c-0.98,1.37-2.24,2.51-3.93,2.78c-10.05,1.62-22.23,2.75-32.35,1.82l-4.25-2.41l1.39-3.2  c16.59-13.96,33.49-27.68,50.71-41.15l8.45-4.48l-0.64-2.57l9.04-7.16c1.67-2.94,3.57-4.91,5.69-5.9c3.73-1.19,7.87-0.87,12.39,0.97  c16.67,4.26,15.86,2.54-2.43-5.16c-3.58-1.7-23.68-12.72-21.91-15.49c6.18-2.43,12.91-3.72,20.21-3.88l15.32-3.49  c32.97,11.12,66.37,13.58,100.72,11.41C1187.09,825.27,1193.73,825.86,1200,827.38z" />
<path class="cls-4" d="M1200,1072.74v19.45c-0.42,0.98-0.82,0.98-1.2-0.02c-1.59,1.25-3.21,2.45-4.91,3.51  c-1.7,1.06-3.38,2.09-5.19,2.77c-61.71,23.31-124.66,44.17-189.44,57.03c-31.11,19.94-65.92,38.05-102.77,43.33  c-0.05,0.59-0.83,0.98-2.34,1.17h-44.45c24.96-17.14,52.18-31.12,77.16-49.29c23.66-0.64,46.58-5.69,70.24-11.96  C1066.43,1120.36,1132.8,1095.7,1200,1072.74z" />
<path class="cls-4" d="M155.7,809.62c0.12,0.93,0.12,2.36-0.5,2.53c-32.52,8.92-66.55,16.28-100.41,22.12  c43.13-2.73,86.81-6.08,128.7-16.06l5.23,0.8l-1.72,3.73c-14.55,10.78-29.89,20.1-46.02,27.97l-4.04-1.08l-0.97,2.77l-40.38,12.85  c-8.28,3.48-16.65,5.33-25.12,5.54c-0.96,0.21-1.92,0.37-2.88,0.37c-0.94,0-1.83-0.03-2.54-0.38  C44.48,860.59,19.1,841.12,2.31,825.3L0,820.35v-29.29c2.04-0.43,4.09-0.8,6.16-1.01c2.06-0.21,4.1-0.42,6.09-0.23  c44.16,4,88.35,8.17,132.11,15.45C144.36,805.27,148.14,806.72,155.7,809.62z" />
<path class="cls-24" d="M611.72,1197.49c1.06,1.01,0.28,1.84-2.34,2.49h-77.34c-1.02-0.33-1.01-0.72,0-1.17l2.53-2.81  c11.71-3.47,23.25-7.52,34.61-12.16l5.01,0.93l6.32-4.13l37.59-12.15c0,0,2.52-0.05,7.57-0.14l1.74-2.24  c13.24-4.91,26.88-8.99,40.91-12.22c7.44-2.86,15.08-4.73,22.92-5.6l2.42-3.68c17.71-8.54,33.8-20.56,46.42-35.67l4.12-1.41  c3.98-5.33,9.38-9.68,16.2-13.04c5.55-4.83,11.51-8.3,17.89-10.43c-3.11-2.39,8.26-7.7,8.92-7.67  c54.21,6.16,108.89-1.03,161.03-16.38c5.65-1.67,5.74,0.28,0.28,5.85c-25.5,13.4-52.23,25.11-80.78,30l-57.09,8.78  c-15.34,2.99-29.68,9.49-43.1,17.34c-21.44,14.31-43.32,27.87-65.64,40.68l-17.81,7.37c-23.47,5.95-45.62,14.55-66.45,25.79  L611.72,1197.49z" />
<path class="cls-7" d="M407.73,1056.01c0.38,3.14-0.19,6.11-2.04,8.68c-12.57,20.27-24.42,40.94-35.53,62l-4.49,4.21  c-6.57,7.09-14.66,12.68-24.27,16.78c-33.58,17.11-67.55,33.44-101.89,48.98l-8.39,1.87c2.29,0.19,2.11,1.13-0.26,1.44h-8.2  c-15.36-0.61-30.75-0.86-46.17-0.77l0.2-3.23c22.58-9.98,45.04-20.91,67.38-32.77l22.18-14.81c16.23-13.25,32.95-25.79,50.16-37.63  l0.71-3.56c10.48-5.35,21.18-10.3,32.1-14.85l-0.31-2.57c18.79-11.68,37.58-23.35,56.39-35.04L407.73,1056.01z" />
<path class="cls-24" d="M1017.11,798.12c4.78,2.48,9.2,6,13.25,10.56c10.54-4.13,20.98-8.44,31.32-12.92c0.62-2.25,1.7-2.3,2.53-0.12  l9.41,1.62c38.1,16.32,79.44,21.74,120.44,24.95c0,0,1.98,0.94,5.94,2.83v2.34c-51.25,0.91-69.36,5-120.69-10.91  c-11.07,3.59-21.81,4.76-34.23,5.21c16.5,12.11,34.68,19.6,53.05,27.86c-14.46-2.91-29.11-3.55-42.36-8.3  c-0.41,0.84-1.18,2.04-1.8,1.84c-16.23-5.02-34.17-12.16-48.87-18.27c-8.33,10.21-43.65,37.51-55.34,36.33  c-0.95-0.1-1.88-0.35-2.8-0.66l0.48-3.53c7.49-7.08,12.23-16.37,16.16-25.82c-40.83,19.76-83,36.2-126.51,49.32l-3.89-0.17  c0.49-1.03,1.02-2.04,1.68-2.94c0.65-0.88,1.31-1.7,2.14-2.26c7.67-5.11,33.67-20.65,40.84-21.59c1.13-0.15,2.29-0.14,3.45-0.09  l1.93-2.83c18.47-10.58,36.72-21.6,54.75-33.07c5.67-5.09,11.79-8.76,18.35-11c2.23-2.46,5.67-5.43,9.2-5.54  c13.79,1.94,27.39,2.29,40.85-1.66C1004.6,794.02,1019.42,791.33,1017.11,798.12z" />
<path class="cls-12" d="M111.33,977.89c1.48-9.65-7.36-18.95-7.78-30.26c31.32,29.87,68.65,48.58,105.05,68.52  c-0.28,0.89-0.9,2.19-1.53,2.08c-53.21-9.54-107.87-22.43-161.76-36.96c28.41,16.43,57.63,31.33,87.68,44.69  c4.01,2.14,3.31,3.5,0.32,6c-0.82,0.69-20.47,1.8-19.68-2.89c-1.56,0.19-3.11,0.33-4.67,0.31c-1.53-0.02-3.04-0.07-4.46-0.45  c-31.91-8.57-65.92-19.21-96.03-32.73c-1.34-0.6-2.53-1.53-3.73-2.5c-1.21-0.98-2.32-2.1-3.39-3.25c-0.51,0.93-0.96,0.84-1.34-0.19  v-51.55l4.61,0.42c20.21,8.13,40.64,15.71,61.31,22.73C81.51,966.03,96.64,971.38,111.33,977.89z" />
<path class="cls-7" d="M223.81,1084.99c-4.09,3.48-8.26,6.7-12.89,9.4c-26.66,15.53-62.58,28.35-92.09,38.12  c-34.91,11.56-70.72,20.38-106.9,26.94c-1.71,0.31-3.5,0.24-5.31,0.15c-1.82-0.08-3.64-0.34-5.45-0.65  c-0.27,1.05-0.66,1.03-1.17,0.02v-33.98c86.82-10.77,172.58-33.25,254.2-66.54C243.91,1066.59,235.38,1078.75,223.81,1084.99z" />
<path class="cls-4" d="M1200,979.65v63.68l-3.55,2.24c-15.02,1.13-37.29-5.95-49.21-15.03c-10.5,5.85-21.01,11.62-31.54,17.29  c-0.08-2.19-1.15-3.22-3.28-3.03l-4.34-10.21c-1.59-7.52-2.73-14.85-3.41-22c-5.91,5.14-18.79,13.59-26.77,12.29  c-3.61-0.59-10.91-13.36-6.54-15.89L1200,979.65z" />
<path class="cls-13" d="M952.73,1080.07c0.9,0.55,2.29,0.48,2.97,1.32c-57.07,45.9-119.19,91.52-187.06,117.31  c0.85,0.53,0.49,0.95-1.07,1.27h-76.17c-1.02-0.33-1.01-0.72,0-1.17l3.15-2.74c63.46-21.93,95.19-32.9,95.19-32.9  c48.63-22.07,95.27-47.96,139.92-77.69c0,0,2.97-0.9,8.9-2.7c3.88-2.15,7.95-3.7,12.2-4.65L952.73,1080.07z" />
<path class="cls-7" d="M1200,732.24v23.7c-3.41,0.76-6.83,1.48-10.27,2.01c-3.44,0.53-6.87,1.04-10.31,1.19  c-54.68,2.37-110.34,3.36-165.07,3.25l-20.6-2.01c-9.8,1.34-22.17-2.69-29.4-9.44c-2.96-1.73-1.75-3.51,3.65-5.35  c0.01-0.92,0.14-2.29,0.79-2.44c10.19-2.4,23.72-2.11,34.13-1.21l0.93-2.4c19.94-1.17,39.89-2.35,59.85-3.52l1.53,2.26l25.78-3.28  c15.62,0.28,31.24,0.62,46.88,1.01l0.93-2.4c19.88-1.2,39.76-2.4,59.66-3.61L1200,732.24z" />
<path class="cls-9" d="M1200,859.9v18.21c-3.01,1.57-6.1,3.13-9.45,3.76c-22.75,4.26-45.38,8.57-68.08,13.05  c-3.33,0.66-6.75,0.42-10.1,0.1c-0.93,1.72-1.4,2.58-1.4,2.58c-7.53-0.26-14.94,0.2-22.23,1.36l-2.38-1.56  c-17.86,4.34-36.03,7.16-54.5,8.46l-1.63-2.18c-3.8,1.38-6.66,1.32-8.58-0.19c32.36-14.79,66.06-25.43,96.23-47.32L1200,859.9z" />
<path class="cls-5" d="M1200,719.7v12.54l-62.11,3.75c-13.72,0.29-27.56-0.18-41.1-2.37c-10.41,1.98-20.92,3.53-31.55,4.64  l-62.32,3.67c-13.81-0.98-27.37-3.71-40.67-8.18c-15.62,3.76-31.63,5.53-47.64,6.49c-3.46-0.37-3.6-1.78-2.6-4.62l91.41-14.5  l24.42-1.5l0.82-2.34c56.63,0.03,113.27,0.05,169.92,0.08L1200,719.7z" />
<path class="cls-20" d="M70.47,870.79c1,0.39,0.96,0.77-0.07,1.14l6.13,2.18c11.58,8.55,23.62,16.44,36.11,23.67l2.21,4.23  c22.61,10.42,44.95,21.43,67.01,33.03c5.27,1.97,9.18,5.1,11.7,9.39l-2.67,1.66c-47.81-16.47-96.08-36.35-138.27-64.62l9.86,25.58  l-1.57,2.43C38.17,896.57,20.17,877.94,0,862.53v-42.18C22.19,838.55,44.77,859,70.47,870.79z" />
<path class="cls-13" d="M316.4,1110.78c-28.58,24.23-57.94,49.77-92.1,65.65l-47.35,22.02c15.58,1.54,31.14-1.4,45.71,1.53H87.89  c-1.02-0.33-1.01-0.72,0-1.17l0.06-2.48l148.21-47.47c25.37-11.37,50.16-23.97,74.35-37.8  C310.52,1111.06,312.48,1110.96,316.4,1110.78z" />
<path class="cls-2" d="M172.27,785.2l25.23-1.12c7,0.31,16.72,1.01,21.94,5.33c-1.07,1.05-2.17,2.05-3.38,2.93  c-9.54,6.91-38.67,14.23-51.68,17.5c-1.34,0.34-2.78,0.33-4.25,0.29c-1.48-0.04-2.96-0.25-4.44-0.51  C105.08,800.44,52.12,795.76,0,791.06v-2.34c2.5-3.58,0.7-8.06,1.04-13.33l115.94,9.82C136.23,786.85,153.94,785.87,172.27,785.2z" />
<path class="cls-24" d="M1071.37,1009c1.57,4.72,2.29,10.2,7.07,13.74c11.45-1.17,20.59-7.68,29.55-16.34  c-0.56,14.14,0.02,27.53,7.92,39.59c10.01-6.69,20.04-12.48,31.45-17.59c15.77,11.02,34.25,14.61,52.65,14.93v17.56  c-15.05,0.13-31.36-7.68-46.72-4.21c-21.83,4.93-39.11,20.81-59.29,29.96c-26.12,11.84-53.35,18.8-81.94,24.93l63.57-31.3  c16.04-7.9,29.06-21.01,40.54-34.84c-23.68,5.02-43.04,6.57-60.2-8.51c-6.79,3.43-11.9,7.51-17.52,10.72  c-26.9,15.36-56.08,24.1-85.71,32.45c-4.37,1.23-9.9,0.95-14.18,2.72c2.89-3.9,4.33-5.85,4.33-5.85  c30.23-18.8,59.39-39.07,87.47-60.81l6.71-2.72c10.48-9.35,21.11-18.36,30.76-29.33C1068.38,993.72,1068.79,1001.22,1071.37,1009z" />
<path class="cls-7" d="M1200,705.57v14.13l-172.17-0.08c-11.19,1.05-22.4,1.4-33.62,1.07l-1.6-2.41l-4.9,0.27  c-21.06-1.07-42.15-3.81-63.29-8.21l-0.99-2.54L1200,705.57z" />
<path class="cls-1" d="M1200,787.97v37.07c-48.22-3.85-91.35-8.66-135.78-29.4c0.03-0.93,0.24-2.32,0.9-2.42  c17.65-2.58,37.53-2.93,55.34-1.96c0.64-1.08,1.35-1.13,2.12-0.13c2.23-0.94,4.88-1.12,7.11-0.04l0.99-2.39c22.6-1,45.2-2,67.81-3  L1200,787.97z" />
<path class="cls-4" d="M1200,878.12v61.56c-5.72-1.62-11.46-3.67-17.23-6.15c-23.47-11.96-46.87-23.88-70.21-35.78l-0.19-2.73  C1140.89,887.66,1170.62,882.3,1200,878.12z" />
<path class="cls-5" d="M1200,755.94v19.63c-0.9,1.11-1.97,2.22-3.4,2.58c-3.86,0.97-20.09,0.09-24.79-0.59l-3.44-2.37  c-23.23,0.56-45.29-3.32-66.18-11.64c-6.08,6.23-14.29,10.7-22.98,12.18c-0.41,3.76-11.33,4.71-12.79,1.3  c-5.11-0.28-10.22-0.51-15.32-0.69l-1.08-1.67c-18.6-3-37.3-6.56-55.49-11.67l-0.76-2.61C1062.27,759.17,1131.09,759.09,1200,755.94  z" />
<path class="cls-7" d="M1200,775.57v12.4l-70.31,3.11c-2.28-1.05-4.81-0.87-7.11,0.04c-0.7,0-1.42,0.08-2.12,0.13  c-32.28-2.14-64.55-3.69-96.93-4.65c-6.34-2.27-1.08-5.73,4.46-6.45l26.71-1.98l0.7-1.61l11.01,0.46l12.79-1.3l8.94-2.4  c26.7-0.53,53.67-0.29,80.22,1.86C1178.8,775.12,1189.48,776.52,1200,775.57z" />
<path class="cls-1" d="M111.33,977.89C73.46,967.29,35.58,955.45,0,938.69v-30.46L111.33,977.89z" />
<path class="cls-18" d="M1112.36,895.03l87.64,44.65v0.85l-132.59-34.81l-0.3-2.87c6.02-2.55,12.44-4.36,19.25-5.43  C1094.22,893.74,1104.04,896.6,1112.36,895.03z" />
<path class="cls-6" d="M918.75,0.17c-162.52,0-325.79,0.03-488.73,1.44c-0.32,0-0.81,0.06-1.09-0.08c-0.45-0.46-0.5-0.88-0.02-1.36  H918.75z" />
<path class="cls-3" d="M1200,1092.18v107.8H894.14c0.59-0.74,1.49-0.93,2.34-1.17l16.59-2.34l282.53,0.03l0.88-0.79l-0.03-101.33  l2.34-2.21C1199.15,1092.04,1199.63,1092.27,1200,1092.18z" />
<path class="cls-3" d="M532.03,1198.81v1.17H230.86l0.26-1.44l9.53-2.33c193.29,0.17,289.94,0.26,289.94,0.26L532.03,1198.81z" />
<path class="cls-6" d="M110.16,0.17v1.17L1.42,1.32C0.06,46.11,2.9,90.19,0,133.75V0.17H110.16z" />
<path class="cls-8" d="M1.49,433.81l2.34,1.09c-0.05,17.47-0.09,34.94-0.14,52.42l-2.35,1.39c0.31,2.25-0.6,2.29-1.35,0.06V320.04  C2.74,357.55,1.59,395.79,1.49,433.81z" />
<path class="cls-3" d="M87.89,1198.81v1.17H0v-41.01c0.38-0.04,0.79,0.05,1.17-0.02l2.34,1.37l0.27,36.16l82.69-0.01L87.89,1198.81z" />
<path class="cls-9" d="M4.67,1092.29c2.39-1.14,3.96-1.17,4.71-0.11c1.02,0.33,1.01,0.72,0,1.17c-2.22,2.54-7.64-0.94-8.2,3.52  c-0.33,1.02-0.72,1.01-1.17,0V990.25c0.41,0.15,0.95,0.01,1.34,0.19c1.69,2.97,2.54,4.46,2.54,4.46  c-0.76,26.28-0.79,52.52-0.08,78.73C5.48,1080.29,5.76,1086.51,4.67,1092.29z" />
<path class="cls-5" d="M691.41,1198.81v1.17h-82.03c0.39-1.19,1.43-1.78,2.34-2.49l6.61-2.23c23.92,0.4,47.83,0.79,71.72,1.19  L691.41,1198.81z" />
<path class="cls-6" d="M1.43,489.76l2.33,3.57c-0.08,23.03-0.16,46.06-0.24,69.09l-2.35,1.39L0,563.75v-74.99l1.35-0.06  C2.4,488.72,2.37,489.09,1.43,489.76z" />
<path class="cls-11" d="M841.41,1199.98h-73.83c0.39-0.31,0.61-1.09,1.07-1.27L841.41,1199.98z" />
<path class="cls-7" d="M0,1103.9v-7.03h1.17C0.93,1099.21,2.18,1102.36,0,1103.9z" />
<path class="cls-5" d="M703.06,234.26l-4.22,1.34c-26.1-7.11-53.26-21.74-65.45-46.63c-11.62,7.8-29.04,6.49-42.02,1.58  c-6.24-2.36-17.1-6.84-18.32-13.38c-25.59-20.68-10.7-37.31-41.37-42.2c-33.63-5.36-79.82-48.93-69.94-84.37  c35.56,33.73,76.54,58.94,126.57,59.63c14.09,15.21,29.61,25.72,50.77,24.73c3.93,28.94,18.02,51,35.62,72.95  c6.17,7.69,10.38,18.6,23.15,20.43C700.08,228.65,704.12,231.99,703.06,234.26z" />
<path class="cls-14" d="M573.05,177.17c17.27,13.96,39.58,20.02,61.02,9.96c15.08,26.28,41.22,40.34,68.99,47.13l1.23,0.3l1.9,24.28  c-29.72-4.23-56.98,7.16-78.14,27.32c-6.94-3.83-14.63-6-22.35-9.01l-36.42-46.29l-47.37-17.08c6.88-9.44,11.56-18.56,14.68-28.51  C549.18,185.22,560.93,179.4,573.05,177.17z" />
<path class="cls-17" d="M461.79,293.02l88.99,37.67c-23.11,3.52-43.22,13.82-59.89,30.18l-3.27,0.43c-6.66-3.57-13.65-6.44-20.98-8.61  c-28.19-19.26-64.57-22.18-97.42-9.97c-12.6-19.7-30.68-31.63-49.15-43.49L461.79,293.02z" />
<path class="cls-6" d="M1025.37,184.06c-19.78,7.11-34.7,24.33-39.43,44.9c-44.49,0.41-82.36,33.09-84.01,77.75  c-12.69,0.77-23.16,6.82-29.2,15.03c-7.5,10.2-8.77,22.22-3.39,34.45c-39.45-18.46-88.86-3.35-111.5,35.29  c-22.27,4.2-43.49,9.9-64.28,18.78l157.18-4.41c-0.12,1.35-0.25,3.04-0.76,4.04c-1.03,2.01-3.8,1.19-5.58,2.11  c-10.76,5.94-25.7,5.19-32.53,14.44l-2.45,4.25c-40.67,29.38-87.89,43.15-137.94,46.41L472.14,487.1  c-47.98,4.55-95.98,8.66-144.01,12.33c-0.74,0.59-1.5,1.15-2.33,1.56c-3.63,1.82-29.61,0.92-32.92-1.28  c-0.77-0.51-1.44-1.16-2.09-1.84c41.65-12.19,84.82-13.51,127.62-18.61c1.45-1.54,3.09-2.53,4.9-2.97  c75.02-11.23,152.5-23.97,222.78-53.36l5.46-0.37c6.65-3.59,11.42-5.73,16.45-13.94c23.67-38.63,53.83-83.8,106.32-69.87  c5.9-14.61,15.46-25.46,27.53-35.07c-8.52-20.88-3.85-43.73,11.3-59.2c15.13-15.46,37.51-20.11,59.13-14.67  c14.09-12.17,30.14-24.24,48.03-30.4C954.15,187.74,989.63,181.78,1025.37,184.06z" />
<path class="cls-11" d="M357.33,389.39l3.56,1.34c9.47,12.18,17.34,25.23,23.6,39.13l-1.3,3.72c-4.24,5.66-4.88,13.45-8.1,20.3  c-34.66-3.76-72.31,13.46-85.23,43.85l0.92,0.13c12.04,1.65,24.93,1.57,37.34,1.56c48.25-2.51,96.6-3.31,145.04-2.4l1.44,2.34  c11.74,3.6,23.47,7.27,35.21,11.01l1.4,3.08l7.54,0.8c19.46,6.73,39.11,12.77,58.94,18.11l3.22,2.32l-5.36,2.32  c-8.04,0.63-38.67,1.8-43.7-0.69c-0.93-0.46-1.8-1.08-2.63-1.73l-7.19,1.92l-46.13-0.54c0,0-2.37-0.81-7.12-2.42l-2.26,2.31  c-44.6-0.69-89.27-1.4-134.03-2.12l-10.07-2.49l-2.1,2.25c-10.18-2.98-20.1-7.17-29.74-12.59l-1.1-2.74  c-1.89,0.57-2.52,0.04-1.25-1.49l-16.09-30.31c-5.8-10.93-13.09-20.53-19.28-30.5l-4.57-6.19c-14.33-35.68-42.27-63.46-73.32-85.21  l-2.7-4.73l48.24,3.89C266.96,367.36,312.48,378.39,357.33,389.39z" />
<path class="cls-11" d="M651.54,422.56c-48.75,26.31-176.31,49.92-233.13,56.69c19.05-31.81,55.75-49.31,92.75-49.13  c7.54-15.78,22.44-25.77,37.95-28.33c17.42-2.87,33.54,4.77,43.91,18.91C613.23,417.73,632.78,417.31,651.54,422.56z" />
<path class="cls-17" d="M478.26,368.25c1.03-3.39,4.95-1.58,5.54,1.32c-7.57,12.45-14.18,26.4-16.47,41.76  c-31.07-11.15-64.67-3.7-84.15,22.26c-4.78-17.1-17.14-29.39-25.86-44.2c-11.16-18.94-31.53-26.48-53.75-34.74  C363.65,352.48,420.82,361.62,478.26,368.25z" />
<path class="cls-17" d="M616.38,302.31c-5.96,11.88-9.81,24.52-10.75,39.1c-13.7-7.28-28.21-10.05-43.06-11.14  c-7.7-19.29-30.29-28.89-51.64-31.57c-3.2-17.21-8.85-33.18-17.56-47.9c14.22,4.19,28.5,8.81,42.64,15.2L616.38,302.31z" />
<path class="cls-20" d="M490.89,360.87c-2.06,2.02-5.61,6.28-7.08,8.69c-1.98,0.44-3.77-1.12-5.54-1.32  c-2.95-4.73-6.64-12.14-11.62-15.55C475.49,352.4,484.07,355.22,490.89,360.87z" />
<path class="cls-3" d="M1198.83,461.89c-26.18,5.52-52.42,6.17-79.89,2.29l-38.63,22.49l39.32,2.83  c-13.94,1.17-21.45,12.07-33.45,17.9c-14.58,7.09-32.93,9.95-49.04,10.54l-156.21,5.73c24.9-5.28,46.87-14.24,62.42-33.54  c11.89-2.16,22.6-4.58,32.92-9.22c-30.66-0.44-60.38-0.48-90.21,0.74c-3.03,1.67-5.89,2.32-9.24,2.61  c-13.8,1.18-65.38-3.43-73.26-13.1c-0.05-0.06,0.81,0.72,0.71,1.33c-1.54,9.12-19.53,22.04-27.92,25.41  c-4.93,1.98-14.49,5.65-18.04,1.31c-1.47,1.57-2.2,2.35-2.2,2.35c-49.2,0.11-98.4,0.22-147.58,0.32l-1.43-2.34  c-20.98,0.7-42.3,0.83-63.96,0.41l-3.04,1.85c-19.13-0.02-38.18-0.05-57.16-0.07l-8.32-2.35l-146.48,0.06  c57.41-7.02,115.48-13.6,174.6-16.49l162.88-7.97c26-0.58,49.81-6.04,74.6-12.39c27.67-7.08,48.88-22.3,71.65-36.15  c27.19,20.68,63.07,25.85,97.54,23.61c44.91-2.92,41.7-11.23,80.83-24.85c-3.07,6.01-8.48,10.03-7.64,17.29  c10.27-0.23,19.86-1.68,29.2-4.72c19.79-31.03,54.45-45.87,90.52-37.55c18.76-25.69,66.57-40.31,96.55-40.41L1198.83,461.89z" />
<path class="cls-21" d="M886.05,481.66c-8.91,8.01-20.58,12.06-30.51,18.7c-6.03,3.25-12.41,5.76-18.82,8.13  c-0.37,0.07-0.81-0.07-1.17,0.05c-5.25,2.51-10.71,4.42-16.41,5.75c-0.39,0.02-0.79,0.03-1.17,0.08  c-5.35,1.92-10.82,3.45-16.41,4.59l-1.17,0.09c-8.09,3.23-17.09,5.06-25.78,3.7v1.17c0.34-0.77,0.74-0.75,1.17,0  c16.74,0.37,33.46,0.77,50.17,1.2l39.22,66.87l-1.31,2.39c-0.58,0.98-1.2,1.92-1.94,2.76c-4.07,4.59-35.68,17.88-41.77,17.5  c-1.13-0.07-2.24-0.31-3.36-0.6l-13.7,1.87l-1.51-2.32l-3.01-1.17l-44.16-108.36c-1.44-2.8-0.14-4.42,3.88-4.86  c18.53-0.04,37.66-12.66,44.81-29.86C828.7,480.99,857.45,482.83,886.05,481.66z" />
<path class="cls-3" d="M980.96,612.03c0.29,1.34,0.51,2.83-0.11,4.12c-2.22,4.55-23.39,24.44-28.17,27.08l-11.27,0.25  c-8.33-1.55-16.18-2.61-23.16,3.36c-22.17,18.94-50.98,30.64-78.01,40.88l-0.05,1.62l-6.81,1.98l-0.22,1.18  c-33.15,1.06-66.34,1.19-99.58,0.39l-1.41-2.35c-3.17-0.14-3.98-2.52-2.41-7.12l-11.77-3.11c-3.13,3.57-6.51,6.19-10.15,7.85  l-147.62,0.54l-1.44-2.33c-4.06-2.46,1.14-6.42,3.72-2.87l5.49-2.29c35.18,0.62,70.37,0.99,105.56,1.11l1.41,2.36l8.61-6.3  l60.17-26.16c2.3-0.36,3.43-0.07,4.33,2.11c1.7,4.13-3.04,15.23-5.71,18.96c-0.16,0.97,17.09,6.95,18.07,6.92  c13.88-0.47,28.63-4.08,41.87-8.11l5.01,0.67c-1.54-3.07,2.09-4.31,3.94-1.52l10.53-5.41c14.97-4.59,30-8.71,45.1-12.35  c8.09,2.05,14.13-0.21,18.12-6.78c4.94-8.01,11.15-14.55,18.63-19.61c2.73-4.76,4.1-7.15,4.1-7.15l27.84-28.05l10.07-6.6  c-0.28-0.7,0.18-1.13,1.36-1.31C960.55,589.82,968.4,604.08,980.96,612.03z" />
<path class="cls-3" d="M1050.23,635.18l1.34,2.34l-8.01,14.07l30.98,12.09l4.37,4.22c1.61,4.02,6.14,5.78,8.75,8.62  c3.13,3.41,6,4.95,8.42,11.61c-10.82-3.09-22.55,1.73-32.03,2.16c-68.4,3.11-138.67,0.27-208.58,1.24l3.76-2.37  c23.16-5.33,46.67-9.05,70.53-11.15l17.2-19.85c12.3-4.18,28.52-3.4,32.54,11.46c23.2-10.33,38.15-26.03,47.54-49.61l5.43-5.78  c-1.59-1.22-0.89-2.01,2.07-2.36C1041.55,617.96,1044.69,627.6,1050.23,635.18z" />
<path class="cls-19" d="M867.24,531.02l38.51,54.63c-3.62,2.59-8.32,3.71-14.1,3.34c0,0-5.56,1.12-16.69,3.36  c-3.94,2.17-7.64,2.84-11.09,2.03l-40.48-69.01c-16.48-1.47-32.29,1.5-47.6-1.46c0.11-0.32,0.22-0.57,0.36-0.59  c4.66-0.52,12.12-1.34,16.6-1.3c0.34,0,0.67,0.51,1.01,1.15l66.87,0.17C863.44,524.99,865.65,527.54,867.24,531.02z" />
<path class="cls-15" d="M1034.55,611.9c-0.58,0.82-1.63,1.44-2.07,2.36l-4.96,5.5l-37.81,21.41c-13.45,5.27-27.86,7.41-43.23,6.41  L934.81,649c-5.89,7.98-12.27,15.55-19.13,22.71c-24.46,6.19-49,12.08-73.6,17.69l-1.85-1.68l58.59-29.12  c9.38-4.66,16.12-14.61,25.99-17.95c8.6-2.67,18.39,2.44,26.95,0.87c10.28-9.94,21.61-18.55,29.19-29.5  c3.94-4.83,13.52-3.61,18.94-3.14L1034.55,611.9z" />
<path class="cls-15" d="M946.98,584l-1.36,1.31c-19,10.41-38.9,19.9-58.73,28.86c-11.73,5.3-36.71,15.78-49.65,13.43l-2.79-2.34  c-1.63,1.17-3.35,1.92-5.18,2.25l-45.94-0.86c-1.57-1.46-1.06-3.01-0.23-4.88c0.7-1.59,29.48-8.08,33.69-7.72  c16.32-4.92,32.11-11.86,47.07-19.66c13-6.78,27.48-8.16,41.88-8.73L946.98,584z" />
<path class="cls-5" d="M1078.91,667.91l-38.94-15.2l10.26-17.53c3.2,0.04,6.32-0.22,10.27,0.46  C1067.34,646.2,1074.37,656.57,1078.91,667.91z" />
<path class="cls-3" d="M1136.85,677.32c4.05,3.63,8.27,5.93,11.32,10.24l-49.36-0.2c2.99-4.47,5.7-7.38,8.6-10.19  c5.31-5.12,8.13-9.76,15.66-7.8C1127.64,670.56,1132.26,674.19,1136.85,677.32z" />
<path class="cls-8" d="M800.39,519.05c-1.18,2.56-4.39,1.53-7.12,3.41l68.1,0.41c2.79,1.34,5.02,5.58,5.87,8.16  c-1.65-2.34-3.91-4.51-5.89-7.16l-85.56,0.06h-1.17c-1.02-0.33-1.01-0.72,0-1.17C783.37,522.96,791.7,519.69,800.39,519.05z" />
<path class="cls-8" d="M817.97,514.37c-4.17,3.67-10.92,4.19-16.41,4.59C806.62,516.41,812.35,515.09,817.97,514.37z" />
<path class="cls-8" d="M835.55,508.54c-4.22,3.7-10.82,5.53-16.41,5.75C824.09,511.3,830.07,510.37,835.55,508.54z" />
<path class="cls-8" d="M855.54,500.36c-5.62,3.75-12.03,6.84-18.82,8.13C842.6,505.09,849.28,503.06,855.54,500.36z" />
<path class="cls-14" d="M137.13,342.51l35.14,17.2c35.23,24.1,67.14,55.14,80.58,96.13c-9.88-8.48-20.16-15.63-33.43-18.93  c-10.7-24.85-36.92-40.21-63.6-33.15c-6.18-33.41-38.16-50.25-70.75-38.72C74.4,343.22,55.68,329.4,32.75,322.4  C67.89,325.39,105.53,327.05,137.13,342.51z" />
<path class="cls-3" d="M289.46,518.14c11.23,2.76,21.18,13.11,32.94,13.09c9.99,2.59,19.86,5.69,29.59,9.29  c29,6.69,58.43,11.09,88.29,13.18c1.38,0.39,2.53,0.88,2.84,1.69c1.66,4.33-17.59,12.37-21.69,14.04  c-10.93,4.45-24.23,8.96-35.9,8.34l-2.61,1.64c-8.81-1.45-16.5-4.48-23.1-9.08c-12.48,7.03-25.85,12.05-40.12,15.07l-4.22-1.29  c-6.24,4.29-13.7,5.52-22.38,3.71c-14.56-3.02-29.14-5.86-43.73-8.5l-2.49-2.5c-20.14,5.16-39.75,11.05-61.85,10.52l-109.3-2.6  L114.17,566c-38.9,1.34-75.84-0.23-113-2.18l0.26-74.06l4.36-0.04c28.56,18.44,60.74,9.94,89.54-3.19l2.67-0.39  c16.12,28.77,45.74,42.83,77.25,29.48c14.7,9.31,31.32,11.26,48.23,8.39c16.65-4.19,32.78-4.68,49.75-4.33  C278.92,518.39,284.33,517.87,289.46,518.14z" />
<path class="cls-11" d="M315.48,584.1c0.73,0.56,1.69,1.62,1.35,2.08c-19.24,25.91-40.36,52.58-60.74,77.88  c-3.14,5.56-7.16,9.43-12.04,11.62l-96.43,0.26l99.26-99.14C269.72,577.78,291.27,590.62,315.48,584.1z" />
<path class="cls-4" d="M991.41,980.84l-68.19,34.58c39.04,3.58,76.72-3.07,113.86-2.02c-29.95,26.71-65.67,46.33-98.51,69.39  c-44.81,27.28-88.47,56.39-137.13,77.97c-35.86,15.9-73.59,25.39-110.03,38.05l-79.69-1.32c26.25-20.53,60.09-22.55,89.14-36.92  c38.35-18.97,70.13-52.36,113.49-58.94l50.28-7.64c30.59-4.65,59.66-17.8,87.75-32.83c-55.02,16.4-108.73,23.98-164.83,17.43  c-3.26,2.41-6.83,3.42-9.28,5.47c-2.66,2.66-26.34,2.1-27.89,1.18c-0.88-0.53-1.32-1.46-1.58-2.41c4.7-3.22,7.05-4.83,7.05-4.83  c47.49-15.45,93.24-33.17,137.27-53.17l-164.64,36.54c-3.34-2.87-2.99-4.26,2.18-6.1c46.81-16.87,92.25-36.73,137.77-56.66  c3.34-1.46,6.98-2.08,10.57-2.61c7.79-1.73,16.54-3.93,24.51-4.76c27.53-6.4,54.53-12,82.9-12.79c0.8-0.02,1.63,0.37,2.51,0.79  C989.81,979.65,990.62,980.23,991.41,980.84z" />
<path class="cls-9" d="M922,925.74l-43,70.25c-49.13,24.78-101.17,43.14-152.43,63.4L917.55,1017l-83.1,35.46  c-28.48,12.15-57.09,20.72-85.64,30.36l-1.11,2.22c-37.52-4.98-75.06-9.97-112.6-14.95l-1.11-2.51l-2.89-0.71  c-0.19-0.91-0.31-2.33,0.31-2.56c22.29-8.52,47.22-15.52,70.55-20.38c4.48-3.17,6.72-4.75,6.72-4.75  c41.49-13.94,82.74-28.98,120.99-50.49c28.75-16.18,52.4-39.34,75.58-62.43c0,0,1.88-0.76,5.63-2.28  C912.45,920.18,921.24,921.99,922,925.74z" />
<path class="cls-24" d="M901.93,888.69c6.47-0.4,15.49,1.33,17.92,7.73l11.18,4.51c6.82,5.38,14.24,9.36,22.26,11.97  c27.03,2.43,51.1-2.06,76.94-9.2l56.12-6.29c-6.32,2.95-14.1,3.43-18.95,8.3c-36.19,7.83-70.89,24.69-103.72,43.58  c-7.31-16.91-25.09-21.23-41.68-23.56c-3.7-0.52-7.29-1.79-11.13-1.77c-3.87,1.76-8.33,2-13.38,0.69  c-23.77,18.93-48.63,36.62-75.3,51.28c-1.08,0.59-2.37,0.84-3.69,1.09c-1.33,0.25-2.69,0.32-4.06,0.35l-1.01-2.54  c10.39-10.35,17.44-22.03,21.14-35.06c-27.95,14.72-56.36,28.37-85.23,40.96c-16.96,7.13-34.35,12.59-52.17,16.37l-3.15-0.78  c-21.6,8.46-43.76,14.67-66.46,18.61c-6.96,1.78-13.02,1.36-18.18-1.27l1.79-2.08c14.47-4.06,28.93-8.46,43.35-13.2l84.84-35.67  c17.35-10.17,34.62-20.51,51.82-31.01c0.44-2.79,3.12-4.71,8.05-5.76l1.8-3.63c10.13-6.94,20.13-14.1,30-21.49  c12.14,1.58,24.24,3.13,36.3,4.65c7.98-4.9,15.81-10.27,23.5-16.09c4.22-2.82,7.4-3.05,9.57-0.69L901.93,888.69z" />
<path class="cls-5" d="M991.41,980.84c-29.04-0.89-58.52,7.33-87.89,10.38c56.76-16.5,112.56-35.05,169.08-56.92l114.85,29.43  C1120.01,965.21,1054.97,970.03,991.41,980.84z" />
<path class="cls-5" d="M33.98,430.18c20.94-0.96,40.78,6.29,59.07,15.87c21.35,12.3,43.18,23.63,65.51,33.98l61.31-1.77l1.44,2.31  c18.6,16.16,43.67,26.9,66.9,36.09c0.59,0.23,0.92,1,1.25,1.49c-15.29,7.51-33.43,1.56-50.1,5.24c-22.19,4.9-44.32,7.97-64.3-5.6  c-30.84,13.46-62.73,0.11-77.64-29.81c-34.54,15.43-63.27,23.06-95.98,1.79c0-0.35-0.08-0.7-0.08-1.05l0.14-54.9  C12.46,433.55,22.96,429.32,33.98,430.18z" />
<path class="cls-8" d="M221.32,480.56l-63.29,1.71c-44.25-17.72-75.87-48.33-124.05-52.09c14.44-3.01,29.3,1.83,45.3,4.61  c45.15-39.23,116.67,7.64,148.82,44.48C225.63,480.21,223.34,480.51,221.32,480.56z" />
<path class="cls-17" d="M385.53,577.77c7.26,0.02,14.48,1.24,21.68,3.66c0,0,7.05,0.76,21.15,2.29c5.13-1.11,9.62-0.94,13.46,0.54  c0.78,0.51,1.87,1.45,1.59,2.04c-11.14,23.36-24.03,48.47-36.51,71.16l-2.73,0.19l-5.81-1.11c-2.6-4.93-56.38-27.52-55.54-24.59  c0.36,1.27,0.53,2.06-0.72,3.13c-0.29,1.98-2.19,2.25-5.71,0.82l-0.76,1.8c3.89,1.48,5.66,3.49,5.31,6.06  c4.23,2.79,5.57,5.13,4.01,7.02c3.35,2.44,6.25,5.31,8.7,8.6l-0.88,2.75c3.37,1.08,3.9,2.38,1.6,3.88c3.56,1.98,6.72,4.43,9.47,7.36  l-0.67,2.78l-119.13-0.47l71.44-91.59c15.07-4.06,29.86-7.71,44.32-15.88C368.06,574.2,377.16,574.99,385.53,577.77z" />
<path class="cls-2" d="M234.38,711.39l33.06,1.27c38.75,4.25,77.34,8.48,115.76,12.69l1.18,2.49l-0.62,2.4  c-33.72,3.36-67.5,5.28-101.34,5.73l-2.53,2.29c-7.73,0.36-15.48,0.39-23.25,0.08c-14.79-1.83-29.4-4.69-43.21-10.47  c-21.85,6.08-44.3,8.9-66.95,9.3c-2.47,1.08-5.04,2.17-7.76,2.33c-21.96,1.23-44.12,2.21-66.07,1.19l-1.41,2.16  c-22.92-3.47-45.84-6.95-68.78-10.43l-1.02-2.53c0.2-4.8-0.95-9.26-0.08-15.28l46.76,0.2l0.05,1.35  c12.28,0.19,24.55,0.21,36.81,0.06c-1.77-0.23-2.03-1.35-1.79-3.21L234.38,711.39z" />
<path class="cls-1" d="M72.66,740.68l20.97,0.93c0,0,34.85,5.48,104.55,16.45l1.04,2.54c1.02,0.33,1.01,0.72,0,1.17L1.28,762.8  C1.11,751.62,1,740.44,1.45,729.88L72.66,740.68z" />
<path class="cls-16" d="M406.88,771.36c0.45-0.98,0.85-0.96,1.2,0.06c3.61,1.52,0.76,7.27-2.49,5.57c-1.49,4.8-3.51,6.1-6.08,3.91  c-4.05,3.33-10.18,7.2-15.13,4.59l-6.22,1.76l-43.34-1.71c-1.58,2.21-3.36,3.97-5.35,5.29c2.88,1.31,2.95,4.67,0.11,6.09  c-2.59,0.47-5.18,0.89-7.79,1.14c-2.6,0.24-5.18,0.44-7.75,0.32c-28.07-1.39-57.33-3.03-84.45-9.74c-1.32,2.62-8.55,3.28-10.16,0.78  c-15.09-2.23-31.39-4.79-47.17-4.21c38.97-3.85,78.16-15.46,117.07-15.06l0.84-2.33c38.43,0.4,76.86,0.79,115.31,1.19L406.88,771.36  z" />
<path class="cls-12" d="M312.89,682.09l48.68,3.41c2.42,0.2,4.58,1.31,6.49,3.34c3.3-3.83,13.12,5.76,8.33,8.52  c5.28,2.19,7.63,5.04,7.06,8.54c3.23,1.73,5.94,4.32,8.12,7.77c3.33,2.23,5.08,4.76,5.25,7.6c2.94,0.53,2.95,1.45,0.35,2.96  c3.14,0.09,3.1,1.21,0.23,2.41c-0.52,3.76-11.54,4.59-13.02,1.17l-150-16.44l142.3-4.57c-52.82-10.5-104.44-17.04-159.69-20.29  L312.89,682.09z" />
<path class="cls-4" d="M266.1,753.59c12.42-1.59,24.91-3.11,37.47-2.23c6.12,0.43,11.74,0.9,17.52,3.38c0.2-0.91,0.69-2.26,1.33-2.21  c23.98,1.9,51.53,4.56,75.24,8.28c4.39-0.33,6.98,0.74,7.76,3.21c4.74,0.17,4.9,4.55,1.47,7.33l-117.55-1.21  c-29.6-3.02-60.05-8.53-90.12-8.37v-1.17c2.78-1.31,5.65-2.67,8.74-3.02c16.25-1.83,32.71-3.51,48.99-5.02  C260.03,752.27,263.11,752.91,266.1,753.59z" />
<path class="cls-1" d="M342.09,635.08c5.08-1.59,10.61-0.79,16.6,2.37c23.08,10.28,45.1,22.61,66.05,37.01  c0.48,0.58-1.67,13.61-4.06,13.75l2.33,1.77c1.99,7.38,4.84,14.47,8.55,21.26l-1.44,2.76c0.22,2.26-0.68,2.27-1.35,0.01  c-2.1,0.11-4.94-1.42-4.56-3.95c-18.11-9.68-36.87-17.84-56.26-24.5l-3.63-3.51c-1.29,0.18-1.77-0.36-1.43-1.62  c0.02-1.43,0.11-2.86,0.3-4.28c3-1.96,6.65-1.8,10.96,0.48l31.45,13.75c-14.11-8.78-29.46-15.41-45.36-20.26l-5.86-4.1  c-0.62-1.16-0.89-2.88-1.6-3.88c3.44-2.03,7.53-1.91,12.28,0.35l8.16,2.87c-8.06-3.52-16.09-7.09-24.09-10.71l-4.17-3.87  c-0.93-2.42-4.65-3.87-4.01-7.02c4.54-1.02,9.21-0.04,13.99,2.95c13.54,6.44,26.88,13.27,40.04,20.49  c-16.81-11.62-35.6-20.04-55.03-26.33l-4.31-3.17c-2.78-1.96-3.22-4.58-0.32-4L342.09,635.08z" />
<polygon class="cls-14" points="199.38,697.97 122.96,698 166.78,691.71 " />
<path class="cls-20" d="M83.2,713.01c4.5,2.24,9.28,1.6,13.4,4.42c-20.37,3.17-39.11,0.48-59.14-0.58c3.5-1.48,7.08-1.65,10.67-2.04  C60.74,713.43,71.74,708.82,83.2,713.01z" />
<path class="cls-23" d="M362.88,680.43c0.42,0.59,0.89,1.13,1.43,1.62c3.86,1.99,5.11,4.25,3.74,6.79  c-18.49-3.41-38.08-1.03-55.16-6.75L362.88,680.43z" />
<path class="cls-24" d="M411.29,994.75l6.95,2.53c18.86,13.51,38.9,27.01,62.31,30.61l3.16,2.73c2.52,0.42,4.09,1.28,4.7,2.58  l14.48,1.13l1.02,2.59c27.29,3.43,54.35,8.48,81.17,15.17l0.89,2.59c10.68,0.51,21.06,2.76,31.15,6.75  c5.68,0.64,10.34,2.45,13.98,5.43c0.96,0.13,1.87,0.77,2.89,0.71c-2.68,1.12-5.47,2.11-8.39,2.22c-19.74,0.74-43.3-2.15-63.02-4.9  c-27.56-3.85-54.99-9.8-81.24-19.01c7.74,9.7,16.6,18.34,26.56,25.92l1,3.9c-2.03,0.55-4.19,1.04-6.28,0.57  c-29.82-6.79-61.82-29.86-85.42-48.68c6.64,17.29,17.5,32.53,30.32,45.78l1.19,4.56c-4.64,1.38-9.64,0.06-15.01-3.98l-24.36-15.7  l-1.42-3.54l-2.64,0.64l-17.92-18.28c-22.14,15.93-49.98,26.59-75.72,35.58l-4.6-0.49c19.21-14.94,40.12-27.26,57.96-46.22  c-16.77-2.87-32.35-8.39-49.02-13.27c-28.35,12.89-56.13,25.67-86.24,36.12c-70.53,24.48-134.54,44.3-209.82,44.54  c-1.78,1.01-4.06,0.99-5.86,0.02c-1.39,0-3.36-0.22-4.69,0v-1.17c3.73-1.77,5.59-2.65,5.59-2.65  c46.09-7.54,91.76-16.03,137.09-30.86c31.62-10.35,62.83-22.05,93.36-34.77l8.98-1.86c13.32-7.01,28.04-11.84,40.92-19.96l1.43-3.62  l17.06-10.1l3.69-0.13c-2.44-3.16,9.65-7.33,10.5-7.07c15.48,12.4,35.75,16.14,53.01,5.14l4.65-0.44c-2.4-2.02,9.5-9.34,10.24-9.18  c0.78,0.17,1.49,0.61,2.22,1.11c0.77,0.52,11.88,12.39,12.69,13.56L411.29,994.75z" />
<path class="cls-1" d="M204.07,1107.31l0.77,2.46L169,1141.93c58.01-9.91,114.36-27.57,169.47-48.05c3.45-1.17,7.14-1.34,10.76-1.51  c-10.28,6.39-23.57,10.57-32.82,18.41c-29.9,14.36-57.31,33.59-89.74,43.9l-138.77,44.13l-86.71,0.01l-0.01-39.87  c77.67-13.12,153.29-36.49,222.64-73.96L204.07,1107.31z" />
<path class="cls-9" d="M19.92,1093.34c-1.02,1.94-4.81,1.92-5.86,0.02L19.92,1093.34z" />
<path class="cls-1" d="M208.59,1016.15c15.02,3.08,30.47,5.89,45.8,5.88c-23.73,12.48-49.17,19.81-74.96,29.38  c-38.15,14.16-75.52,25.94-115.97,31.6c-18.66,2.61-36.01,8.75-54.09,9.16l-4.71,0.11c2.13-2.91,3.2-4.37,3.2-4.37  c29.13-13.53,57.38-28.62,84.76-45.27l15.79-12.07l5.2-1.52c6.51,1.83,14.72,0.53,21.5,0.52c-36.85-17.89-72.93-32.95-105.71-56.01  c32.68,11.13,64.14,18.99,97.42,25.81L208.59,1016.15z" />
<path class="cls-7" d="M193.55,944.43l4.33-1.12c19.78,7.95,39.39,16.28,58.82,24.99c4.03,0.07,8.16,1.57,12.38,4.5  c15.2,4.86,30.65,8.96,46.36,12.27l2.04,3.16c-6.82,5.43-14.78,9.19-22.18,13.85c-63.39-16.29-126.4-36.82-187.32-63.23  c-17.59-7.62-31.25-20.39-47.09-29.38L46.99,873.4C69.45,896.39,161.89,935.33,193.55,944.43z" />
<path class="cls-23" d="M473.65,675.7l1.76-2.27c31.7-0.21,63.41-0.35,95.13-0.42l1.42,2.34c1.56,1.79,1,2.65-1.27,1.95  c-0.78,3.44-3.51,5.5-8.19,6.19c-0.98,0.83-4.04,0.58-3.72,2.87c-1,0.64-1.47,1.4-1.07,2.34l173.01-0.51l1.45,2.34l101.2,0.79  c4.01-1.62,13.07-4.34,15.07,0.15c-56.36,8.82-114.12,9.66-171.09,15.23c-0.03,0.92-0.37,2.32-0.94,2.3  c-66.16-2.59-134.27-6.1-200.76-10.2c-7.76,0.62-14.69-0.52-20.79-3.4l-2.85,0.4c-3.06-1.64-10.64-7.16-10.11-10.44  c-4.03,1.32-11.26-4.99-11.09-9.12c0.23-0.92,0.62-2.31,1.33-2.36c9.34-0.7,27.03-1.44,35.89-0.45  C471.03,672.77,472.9,673.53,473.65,675.7z" />
<path class="cls-19" d="M677.34,706.7c18.5,0.94,37.96,1.87,56.25,4.44c-5.73,2.25-11.71,3.39-17.86,3.31l-161.44,5.17  c-0.1,0.93-0.44,2.32-1.09,2.34c-23.63,0.7-50.18,0.82-73.81-0.11c-4.65,0.83-7.61,0.04-8.86-2.36l-2.49-1.36  c-2.52-7.58-7.11-14.21-13.78-19.89l0.6-2.86L677.34,706.7z" />
<path class="cls-23" d="M923.44,707.8l64.28,10.75l-3.34,1.04c-0.95-0.95-2.55-0.88-3.52,0c-26.14,1.04-52.31,1.07-78.52,0.08  c-0.33,1.02-0.72,1.01-1.17,0c-1.2,0.74-2.44,0.79-3.63,0.1c-0.67,1.07-1.41,1.12-2.21,0.14l-20.17,2.32  c-97.14-0.09-194.23-0.19-291.28-0.29l-15.52-2.35c-0.94,3.73-12.78,3.6-14.06,0.04c59.09-5.7,119.45-4.84,179.3-8.48  C796.88,707.29,860.18,708.32,923.44,707.8z" />
<path class="cls-6" d="M1032.48,614.25c-18.25,37.57-20.45,40.48-54.4,58.83c-3.24-5.23-2.84-11.06-8.18-12.9  c-5.65-1.94-15.25-2.05-20.85-0.87l-18.44,20.78c-25.78,3.32-50.78,6.3-75.14,11.46c-2.24,0.03-4.84-0.43-7.03-0.09l-15.07-0.15  c1.3-2.56,4.29-2.97,6.87-3.6l74.94-18.22l18.56-22.47c18.55-4.51,39.16,0.97,54.86-7.92L1032.48,614.25z" />
<path class="cls-7" d="M1055.77,841.24c-0.66,7.35-9.3,11.13-14.09,15.63c-13.7,6.15-29.47,10.93-44.14,14.69  c-29.76,6.12-59.59,11.99-89.5,17.6l-6.12-0.47c-0.4,0.05-1.16-0.1-1.53,0.02l0.75-3.78c13.76-8.57,27.77-16.72,42.05-24.47  l3.77,0.03c21.81-7.57,40.75-20.84,57.46-37.64L1055.77,841.24z" />
<path class="cls-13" d="M1041.68,856.87c-18.86,17.71-40.76,32.1-60.55,48.83c-0.86,0.58-1.73,1.11-2.67,1.49  c-9.67,3.93-47.58-5.98-58.61-10.77c-5.72-3.21-11.81-5.42-17.92-7.73c27.58-8.51,56.84-10.24,85.73-17  C1006.43,867.3,1023.45,860.19,1041.68,856.87z" />
<path class="cls-20" d="M981.13,905.7c13.57,0.24,27.09,0.42,40.53-2.19c2.73-0.53,5.81,0.5,8.58,0.19  c-33.08,13.33-41.66,12.01-77.23,11.51c-11.93-2.6-22.81-12.98-33.15-18.79C940.21,900.64,960.29,905.33,981.13,905.7z" />
<path class="cls-1" d="M1198.8,1092.17l0.03,106.67l-302.35-0.03c35.87-10.1,69.9-23.97,101.92-45.48  C1067.61,1139.71,1133.29,1116.83,1198.8,1092.17z" />
<path class="cls-24" d="M229.6,788.63c1.9,1.15,2.72,3.43,2.45,6.86c4.15,11.38,14.78,15.22,31.88,11.52c3.52,0.6,6.19,3.37,8.04,8.31  c2.37,2.17,3.14,4.27,2.33,6.31c2.19,0.57,3.95,2.38,5.28,5.42c7.56,5.68,15.7,10.79,24.42,15.32l-0.3,2.81  c9.46,4.94,18.94,9.88,28.45,14.81l35.58,13.22l2.56,3.48c16.83,4.37,34.36,13.09,49.55,21.75l3.3,3.93  c-0.39,0.85-1.17,2.06-1.79,1.87c-40.4-12.56-80.99-27.46-121.19-43.51c-18.71-8.54-36.75-18.49-54.34-29.14l7.74,13.09l0.72,5.04  l-4.16,0.85c-18.03-7.84-38.55-18.71-47.61-36.81c-3.18,2.93-9.56,7.03-13.81,5.25c-18.2,6.12-36.74,8.07-56.48,10.47  c-35.46,4.31-70.14,8.84-105.64,6.75c20.12-3.96,38.86-4.82,58.27-9.5l70.84-17.11c21.62-5.22,42.89-12.38,63.74-20.2  C224.41,787.55,226.52,788.3,229.6,788.63z" />
<path class="cls-7" d="M136.93,849.63c3.47,2.51,3.9,11.99,1.41,15.33l-4.39,3.09c-14.08,2.91-42.81,8.1-56.19,6.41  c-2.68-0.34-4.97-1.25-7.36-2.53l0.07-1.14L136.93,849.63z" />
<path class="cls-1" d="M492.03,1140.05l2.08-1.54c53.3,29.02,79.95,43.52,79.95,43.52l0.12,2.73c-13.91,3.57-27.66,11.97-42.14,14.04  l-300.91-0.27c44.63-22.74,91.8-40.9,134.56-67.63l3.49-3c19.29-4.39,38.57-7.37,57.84-8.95c19.38,5.12,38.8,10.76,58.26,16.92  L492.03,1140.05z" />
<path class="cls-13" d="M633.98,1067.58l114.82,15.24l29.47,1.23c-10.52,8.82-22.33,16.35-34.09,23.47c-1.55,0.57-3.12,1.1-4.72,1.47  c-1.58,0.36-3.15,0.7-4.71,0.7c-48.62-0.19-97.45-1.12-145.74-7.11l-13.62-4.39l-5.04,0.05c-17.27-7.49-35.12-13.41-53.54-17.76  l-5.89-3.91c-1.46,1.96-2.42,1.57-2.01-0.85c-12.06-10.16-25.09-20.2-33.03-33.93C527.63,1059.97,581.18,1067.19,633.98,1067.58z" />
<path class="cls-12" d="M508.6,1106.41c14.65,7.53,29.19,15.33,43.61,23.38l69.59,33.79c0,0,1.29,1.59,3.86,4.76  c-17,5.88-34.04,11.95-51.49,16.42l-82.14-44.72c-11.19-7.36-20.33-20.49-27.93-31.75c-4.81-7.12-9.59-14.57-13.12-22.42  c-0.32-0.71-0.32-1.57-0.29-2.47c0.03-0.94,0.23-1.87,0.47-2.81c4.29,0.17,6.44,0.26,6.44,0.26l46.25,21.22L508.6,1106.41z" />
<path class="cls-5" d="M744.18,1107.52c-13.06,17.05-32.98,31.97-52.95,40.76c-8.9,1.86-21.31,0.72-27.95-5.35  c-30-10.17-60.45-25.78-87.78-42.02l-0.11-2.72C631.03,1107.27,687.88,1106.39,744.18,1107.52z" />
<path class="cls-1" d="M567.25,1119.35l4.73-0.14c24.58,6.33,49.29,12.29,74.11,17.9l17.19,5.83c9.18,1.93,18.4,4.57,27.95,5.35  c-20.86,9.18-44.14,12.65-65.57,20.06c-36.79-20.39-83.19-36.72-117.06-61.94c5.43-0.71,11.21,0.05,17.32,2.28  C540.52,1110.08,554.29,1113.63,567.25,1119.35z" />
<path class="cls-4" d="M448.72,1077.93c2.9-2.59,5.24,0,2.44,2.67c9.64,22.31,25.38,40.88,40.87,59.45  c-84.37-21.45-39.13-24.66-126.36-9.15c11.44-26.24,28.8-49.61,42.06-74.89c-0.93-0.51-0.83-0.94,0.2-1.3  C421.61,1062.4,433.52,1073.54,448.72,1077.93z" />
<path class="cls-10" d="M946.96,860.49c-13.96,11.48-33.44,15.94-46.57,28.22c-15.8,2.1-25.62,20.67-35.55,19.18l-33.12-4.95  c-11.47,7.87-20.98,17.18-32.51,23.02c-3.59,1.84-7.24,3.2-11.16,4.1c-20.78,4.75-44.03,8.57-65.2,11.89  c-41.09,6.45-82.85,8.67-124.52,7.32c-1.48-0.05-2.96-0.4-4.45-0.8c-1.51-0.4-2.99-0.97-4.45-1.58l6.21-2.5  c78.96-13.39,155.84-35.59,230.93-63.21l6.61-0.89c44.37-17.37,91.21-29.81,134.88-54.06C962.77,840.02,956.93,852.29,946.96,860.49  z" />
<path class="cls-1" d="M958.42,801.82c2.27,0.69,1.58,2.25-2.08,4.67c-22.63,19-49.19,32.81-75.02,46.9c-1.73-1.02-2.6-1.52-2.6-1.52  c-3.43,3.32-11.68,4.08-12.7-1.06c-30.21,1.72-60.86-3.29-89.57-12.51c-17.32,8.97-25.98,13.45-25.98,13.45l-3.98-1.1  c-9.92,0.25-19.97-0.9-30.17-3.45c-20.39-2.33-40.56-5.49-60.5-9.45l-3.08-2.14l0.5-2.43c51.88-6.9,103.91-13.81,156.09-20.75  l16.12,0.22c0.01-0.93,0.2-2.34,0.85-2.44c20.48-3.18,43.7-4.74,64.34-3.92l3.08-1.85c18.96-1.98,38.86-3.79,58.05-4.24  C954.08,800.15,956.3,800.97,958.42,801.82z" />
<path class="cls-5" d="M881.31,853.4c-16.2,8.84-33.14,17.1-48.11,26.89c-78.61,30.77-159.8,54.4-243.75,66.6  c-1.49,0.6-3,1.15-4.55,1.53c-1.52,0.38-3.04,0.7-4.55,0.71c-16.24,0.11-34.12-0.08-49.49-4.63l3.89-2.31  c35.77-7.25,71.25-15.84,106.43-25.76l4.49,0.09c3.91-1.37,7.45-3.2,10.62-5.5c3.17-0.15,6.16-0.67,8.39-3.03  c29.69-7,58.81-15.73,87.35-26.19l6.27-0.22c15.06-8.81,28.29-19.97,41.49-31.37c22.08,1.24,44.15,1.63,66.23,0.59  c2.9,0.24,7.12,2.97,10.3-0.12c0.89-0.86,3.35-2.02,4.31-1.29C881.78,850.28,881.11,852.27,881.31,853.4z" />
<path class="cls-5" d="M1054.69,778.17c-11.18,2.67-22.92,2.56-33.88,5.96c34.94,2.1,67.86,0.34,99.65,7.12l-56.24,4.39  c-0.82,0.06-1.7,0.11-2.53,0.12c-1.31,0.62-2.64,1.19-4.01,1.61c-6.22,1.92-30.06,3.24-36.4,1.96c-1.41-0.29-2.79-0.73-4.16-1.21  c-2.38-3.62-7.73-0.64-10.72,1.18c-13.58,3.92-27.79,2.99-41.7,1.99c-2,1.22-4.09,1.39-6.28,0.53c-22.44,2.8-45.33,2.28-67.79,4.47  c-18.83-1.81-37.69-3.32-56.58-4.51l-16.05,0.77c-10.13,1.78-20.31,3.05-30.52,3.82c-6.04,1.54-12.56,1.43-19.57-0.3  c-6.34,0.29-11.95-0.83-16.83-3.36l-14.16-2.25l-0.96-2.28l0.51-2.43c36.75-4.62,73.5-9.25,110.26-13.88l1.7,2.15l22.61-6.32  c4.51-1.39,7.92-0.85,10.2,1.64c46.13-2.36,92.64-4.02,138.87-3.63C1031.91,774.89,1043.43,775.71,1054.69,778.17z" />
<path class="cls-1" d="M1061.69,795.75c-8.39,7.9-20.28,11.16-31.63,15.08c-5.57-3.68-9.7-7.76-12.95-12.71  C1031.91,796.82,1046.85,795.88,1061.69,795.75z" />
<path class="cls-2" d="M1006.39,799.3c-12.21,7.46-27.04,6.75-40.85,1.66l-9.2,5.54c1.4-1.18,2.42-2.8,2.08-4.67  C973.95,799.89,990.37,799.32,1006.39,799.3z" />
<path class="cls-5" d="M113.61,1029.07c-29.26,27.26-74.28,44.39-108.95,63.22c-7.99-30.21-1.44-67.11-3.32-101.85  C37.45,1007.07,75.42,1018.35,113.61,1029.07z" />
<path class="cls-9" d="M1027.83,719.62l-116.26,18.44c17.49-0.91,33.73-2.73,50.62-6.6l40.73,10.48L968,745.58l-4.13,2.69  c-41.74,1.95-84.26,2.14-126.18,0.04c-5.01-1.99-10.44-3.36-16.3-4.08c-2.3,1.92-2.74,1.75-2.41-1.21c-1.04,1.1-3.24,0.71-4.54,0.01  c-0.39,4.77-10.61,2.48-11.72-1.23l0.52-2.53c23.87-5.64,47.82-11.3,71.85-16.98l20.22-2.37c0.74,0,1.48-0.11,2.21-0.14  c0.92,0.79,2.65,0.59,3.63-0.1h1.17c30.19,1.56,60.28,1.1,90.27-1.39L1027.83,719.62z" />
<path class="cls-5" d="M968,745.58c-0.75,2.13-3.28,3.02-3.65,5.35c0.19,0.9,0.34,2.31-0.25,2.55c-5.68,2.33-26.79,10.08-31.77,10.57  c-5.55-0.58-11.18-1.85-16.89-3.82l-30.45,12.06l-2.46-1.54c-4.62,1.26-8.17,0.99-10.65-0.79c-12.48-1.54-24.92-3.27-37.33-5.16  c-3.43,1.03-6.16,0.78-8.18-0.77c-1.05-0.11-1.07-0.46-0.12-1.05c-8.31,0.27-16.32-1.38-24.35-3.16l-1.66-2.47  c0.53-0.79,1.09-1.56,1.77-2.2c0.67-0.64,1.3-1.23,2.02-1.42c7.83-2.1,15.71-3.87,23.62-5.45c-3.82,0.1-5.9-1.25-6.24-4.06  C845.93,748.83,948.07,747.66,968,745.58z" />
<path class="cls-20" d="M964.35,750.94c9.6,3.69,19.44,6.92,29.4,9.44l56.25,14.28l-3.1,1.27c-28.77-1.09-57.77-5.29-85.26-14.1  c-25.03,11.91-52.89,16.28-80.39,17.52c-10.5-0.22-22.35,3.37-32.81,4.69c-0.23-0.89-0.46-2.27,0.13-2.57  c9.63-4.8,23.34-9.69,33.95-10.7l31.53-12.53c5.56-2.21,12.59,5.26,17.71,3.56L964.35,750.94z" />
<path class="cls-20" d="M1137.89,735.99c-24.09,1.46-48.08,0.82-72.66,2.27l31.57-6.96C1110.89,733.33,1124.44,736.35,1137.89,735.99z" />
<path class="cls-5" d="M197.81,850.96c3.02,3.91,5.44,8.41,7.24,13.51l11.21,18.36l-0.88,3.27l-2.2,1.9l-10.09-1.18  c20.51,17.98,42.36,34.66,65.95,48.49l5.18,5.62c3.09,0.26,5.4,1.05,6.93,2.36c8.99,3.47,17.65,7.68,26.01,12.63  c24.82,11.06,50.27,20.3,76.37,27.74l2.12,2.19c-16.84,13.27-41.21,12.37-58.01-2.71c-3.16,2.26-7.51,2.98-10.15,5.09  c-20.09-7.13-43.15-6.55-60.78-19.93c-25.47-12.64-47.51-32.43-66.39-53.56c-0.86-0.96-1.48-2.09-1.97-3.27  c-14.99,1.58-30.98,1.5-45.96-0.69c-10.02-1.46-18.62-3.72-27.55-8.77c-14.93-9.88-31.38-18.12-44.45-30.08  c22.92,1.16,45.71-3.42,67.94-6.97l2.77-2.03c16.82-3.45,33.53-7.53,50.12-12.24L197.81,850.96z" />
<path class="cls-24" d="M256.71,968.3c-22.08-3.96-41.39-17.62-63.15-23.87c-25.1-15.36-53.81-25.94-78.71-42.42  c23.43,8.03,48.36,9.13,74.4,7.49C207.25,933.85,232.96,950.28,256.71,968.3z" />
<path class="cls-6" d="M992.61,718.28c-28.44,5.05-60.28,2.29-90.27,1.39l78.52-0.08c1.03-0.91,2.51-0.97,3.52,0  c1.43,0.3,2.2-0.7,3.34-1.04C989.15,718.13,991.12,718.22,992.61,718.28z" />
<path class="cls-5" d="M1129.69,791.08l-7.11,0.04C1124.19,789.3,1128.19,788.93,1129.69,791.08z" />
<path class="cls-2" d="M1050,774.66c5.29,0.51,11.29,1.01,16.41,2.36c-3.82,0.39-7.95,0.25-11.72,1.15  c-57.45-0.92-115.69,2.4-173.44,1.17c27.31-4.69,54.71-7.79,80.29-19.76C991.32,769.07,1020.51,771.84,1050,774.66z" />
<path class="cls-24" d="M1168.36,775.18l-89.16,0.54c7.5-4.37,15.09-8.04,22.76-14.3C1123.52,770.21,1145.92,772.63,1168.36,775.18z" />
<path class="cls-21" d="M580.9,534.68c0.13-0.91,0.4-2.24,1.06-2.33c1.68-0.22,16.64-0.2,17.4,0.23c0.88,0.51,1.34,1.43,1.62,2.37  l2.17,1.19c-7.61,44.19-15.22,88.4-22.84,132.62l-2.84,2.69c2.22,3.62-3.06,7.6-5.51,3.89l-98.31,0.36l-1.8-1.86  c12-31.14,24.05-62.28,36.15-93.42l2.92-1.2l-0.04-4.91c5.43-12.82,10.79-25.57,16.08-38.25l2.26-1.49  C546.37,535.81,563.98,534.46,580.9,534.68z" />
<path class="cls-6" d="M468.77,533.53c0.78,0.5,1.88,1.4,1.62,2c-5.44,12.59-13.13,28.25-19.86,40.17c-1.55,3.52-2.83,6.33-6.57,7.99  c0.64,3.07-0.48,3.19-2.14,0.57c-17.82,4.71-38.35-0.53-56.29-6.49c19.29-5.32,39.27-9.59,56.43-21.81  c-41.27-4.45-84.22-5.85-119.55-24.73L468.77,533.53z" />
<path class="cls-15" d="M529.21,534.57c-5.89,14.95-10.51,30.67-18.29,44.65l-3.68,2.64c-19.88-0.26-39.62,0.83-59.22,3.26l-4.07-1.43  l24.81-50.17C489,533.85,509.17,533.13,529.21,534.57z" />
<path class="cls-15" d="M603.22,521.35l6.11-0.11l30.34,10.03c4.48,2.52,2.65,3.5-2.23,5.53c-3.71,1.54-26.96,1.09-32.54,0.55  l-3.92-2.41l-20.08-0.27c-23.79-5.22-47.23-11.77-69.69-21.23c0.74-1.17,1.58-2.46,2.87-2.89c3.83-1.26,17.59-1.62,21.94-1.08  l3.33,2.32l2.7-2.38c20.14-2.33,41.16-0.66,59.45,8.7L603.22,521.35z" />
<path class="cls-19" d="M607.09,499.54c0.93,0.56,0.83,0.96-0.26,1.22l-1.09,2.34l-61.51-0.31l-2.04,4.41  c-0.07,2.54-1.01,4.08-2.83,4.62c-9.38,0.09-19.08-0.21-28.14,1.64c-11.69-4.93-26-6.16-36.6-14.08L607.09,499.54z" />
<path class="cls-23" d="M758.3,499.21c-0.54,0.7-2.69,1.57-2.01,3.23l45.3,111.15l-1.08,2.34c-16.97,0.09-33.94,0-50.91-0.28  l-4.06-2.13l-1.3,2.31c-3.84-0.69-7.49-0.48-10.94,0.63c-17.17,10.68-34.76,20.57-52.77,29.65c-15.05,0.91-29.78-0.01-44.19-2.76  c-0.24,1.63-1.47,2.76-3.68,3.38c-3.2,3.99-5.89,5.22-8.07,3.67c-0.58,1.94-1.47,3.44-2.86,4.83c-8.81,8.82-26.21,22.62-38.9,16.84  c-1.96,0.28-3.75,0.07-5.36-0.63l23.51-136.51c13.23,0.18,26.07,0.83,40.54-0.94c-13.6-3.55-26.02-7.7-38.3-12.66l-2.08-1.72  c1.03-5.88,2.06-11.76,3.09-17.65l2.6-1.23l0.26-1.22L758.3,499.21z" />
<path class="cls-8" d="M801.59,613.59l15.21,0.45l-34.02,10.26l51.68,0.95c0.46,3.43-1.46,6.43-5.77,8.99l-17.77,12.96l-3.43-0.22  c-1.89,0.04-3.9,0.04-5.63-0.81c-5.67-2.79-26.75-14.02-29.19-17.35c-0.6-0.82-1.07-1.73-1.5-2.67  c-10.58-0.09-19.42-3.39-26.52-9.88l0.9-2.76L801.59,613.59z" />
<path class="cls-6" d="M945.62,585.3c-14.14,13.56-27.55,28.29-42,41.8c-10.01,7.66-21.01,13.97-33,18.91  c-5.78-0.01-11.48,0.11-17.11,0.36c-13.99,8.49-28.08,16.79-42.27,24.89l-3.94,1.52c-6.04-0.66-11.99-2.51-17.87-5.56l-0.79-2.99  l0.06-3.7c4.69-4.88,9.73-9.38,15.1-13.51l3.68-0.02c8.73-7.43,19.76-12.72,26.97-21.73c10.75,0.2,24.42-2.25,34.87-5.86  C895.54,608.58,919.37,594.24,945.62,585.3z" />
<path class="cls-6" d="M674.95,684.67l-112.45-1.18c1.71-2.33,5.25-5.09,8.19-6.19c3.84-0.64,8.08-0.3,12.73,1.02  c17.05-0.7,33.95-3.57,50.7-8.61c-10.34-3.66-17.58-8.21-9.53-19.29c5.21-3.34,6.13-7.12,11.75-7.05  c13.28,2.23,25.9,6.16,37.86,11.79c-1.61,5.25-0.35,7.01,3.78,5.26l45.06-24.28l2.32,1.41c-0.14,0.96-0.33,1.9-0.66,2.78  c-0.33,0.87-0.65,1.68-1.22,2.2C707.69,656.96,691.38,671.09,674.95,684.67z" />
<path class="cls-11" d="M756.86,649.23c-0.23,1.84-0.34,2.77-0.34,2.77l20.42,7.94c3.45-1.05,11.28,0.06,11.72,4.29  c6.11,3.21,13.07,4.42,18.65,8.56c-14.73,5.68-31,8.5-47.09,9.74l-21.98-7.56c5.5-6.87,7.84-13.89,7.72-21.15l-71.01,30.86  c14.49-17.62,33.8-31.23,50.42-47.13c-2.5-2.87,2.39-6.68,4.71-3.52C739.92,635.87,750.38,641.66,756.86,649.23z" />
<path class="cls-24" d="M732.16,690.52L506,691.18c8.38-1.47,19.95-8.74,27.82-8.09c9.29,2.95,15.9,3.3,24.96,3.26l149.86-0.56  c3.42-1.95,6.3-8.09,9.42-7.8c4.46,0.4,9.79,2.21,14.32,3.87C733.13,684.61,729.74,688.18,732.16,690.52z" />
<path class="cls-15" d="M811.25,671.25c12.28-10.24,26.37-18.75,40.74-26.73c5.89-3.27,13.25,1.59,18.32-0.92l33.31-16.5  c-8.78,8.21-14.29,20.54-24.14,28.54c-4.73,1.75-10.69-0.8-15.83,0.66L811.25,671.25z" />
<path class="cls-6" d="M1056.63,677.91l-78.98-0.12l57.69-25.15C1042.99,660.98,1049.54,667.44,1056.63,677.91z" />
<path class="cls-1" d="M910.87,923.97c-23.17,22.91-47.46,47.74-76.58,64.74c-41.52,24.24-87.57,40.05-132.34,55.21  c-25.53,4.93-51.5,8.12-77.91,9.58c-12.8,2.02-25.49,2.41-38.08,1.18l-82.06-17.76c5.11-1.4,7.66-2.1,7.66-2.1  c66.72,2.75,133.58,0.29,197.52-21.76c35.82-11.74,70.94-23.63,105.36-35.68c28.86-14.8,56.1-34.5,82.04-54.76  C901.35,921.75,906.68,923.99,910.87,923.97z" />
<path class="cls-12" d="M701.95,1043.92l-70.86,22.94c-15.44-2.06-30.08-8.93-45.13-12.19L701.95,1043.92z" />
<path class="cls-1" d="M609.38,1013.68c-2.87,2.33-4.3,3.5-4.3,3.5c-38.55,6.74-77.18,11.54-115.89,14.39  c-2.18,0.43-4.01,0.12-5.47-0.95c-26.24-2.43-51.64-19.92-72.42-35.87l5.47-1.04c37.64,2.7,75.32,3.56,113.05,2.59  c16.06-1.54,32.08-1.91,48.06-1.11l4-2.14c25.45-4.91,50.77-10.54,75.96-16.91l8.96,0.08c10.69-5.46,22.19-9.51,34.51-12.18  c28.34-8.99,53.31-19.16,80.62-30.47c2.93-1.21,6.11-1.58,9.25-1.86c-17.35,11.06-33.09,25.7-52.75,33.97l-80.88,34.01  C641.7,1006.35,625.3,1009.5,609.38,1013.68z" />
<path class="cls-5" d="M814.44,977.38c-0.55,0.74-1.19,2.94-2.62,3.64c-45.59,14.64-90.03,32.23-136.65,44.14  c-56.86,14.53-114.37,13.62-171.27,11.76l-15.5-3.72l0.25-1.58c32.92-3.14,65.92-5.81,99.01-8.01  c36.33-4.87,71.78-13.96,106.35-27.28c59.95-15.82,88.83-33.26,142.76-60.69C838.98,950.75,821.46,967.95,814.44,977.38z" />
<path class="cls-4" d="M799.22,925.96c-2.46,1.75-5.06,4.28-8.05,5.76c-39.74,19.66-81.54,33.23-124.37,44.51  c-11.79-0.31-24.16-2.66-35.77-5.16c-0.74-0.16-1.42-0.63-2.11-1.15c-0.73-0.55-1.36-1.22-1.97-1.93  c-30.32-1.45-60.58-9.21-89.89-17.06c-1.72-0.46-3.34-1.31-4.98-2.18c-1.64-0.87-3.21-1.9-4.75-2.97c-1.6-3.81,2.16-5.01,3.52-1.26  c19.19,1.2,38.99,2.32,58.59,2.38c31.18,0.09,62.09,0.59,93.87-2.11C723.08,941.41,760.68,931.51,799.22,925.96z" />
<path class="cls-18" d="M694.01,996.34c-34.03,14.38-71.09,27.08-109.24,29.86l-96.37,7.01c-1.83-0.44-4.24-0.17-4.7-2.58l90.73-10.41  c12.35-1.42,23.61-3.56,34.94-6.53C637.68,1014.07,666.13,1003.7,694.01,996.34z" />
<path class="cls-19" d="M510.93,579.23l-37.27,96.48l-42.85,0.54l-2.2,1.32c-7.94-5.76-16.06-11.43-24.38-17.02l-0.05-2.89  l37.65-73.39l2.14-0.57C464.64,578.23,488.66,581.27,510.93,579.23z" />
<path class="cls-6" d="M404.16,657.65l26.63,18.59c3.73,2.6,7.62,6.3,11.09,9.12c2.85,2.63,1.28,7.57-1.78,9.39  c-0.24,0.97-0.86,1.48-1.71,1.9c-0.77,0.38-15.59-4.9-16.23-5.46l-1.49-2.97c-0.14-4.61,0.4-8.72,2.35-12.89  c-27.29-14.9-51.93-34.38-80.93-40.24c-0.96-1.46-3.87-5.05-1.3-6.04C364.31,634.76,385.5,644.62,404.16,657.65z" />
<path class="cls-5" d="M363.18,676.16c-2.91-3.47-6.65-6.13-8.81-10.14c22.4,6.06,46.06,16.21,64.44,31  C397.95,692.3,382.11,679.48,363.18,676.16z" />
<path class="cls-14" d="M352.77,662.13c-2.7-3.81-6.16-7-7.82-11.35c23.83,9.62,48.1,19.8,69.93,35.92  C393.41,679.11,374.88,665.18,352.77,662.13z" />
<path class="cls-6" d="M146.48,737.16c23.92-1.58,47.76-3.05,71.75-2.42c12.97,0.34,25.65,0.72,38.4,3.59l17.6,0.39  c6.16,0.76,15.7,2.48,20.01,6.38c-2.46,3.3-6.4,5.42-11.81,6.37l-16.33,2.11c-22.03,3.42-44.63,5.35-66.89,7.01L72.66,740.68  C96.79,738.99,121.93,736.87,146.48,737.16z" />
<path class="cls-10" d="M282.42,735.96c35.22-0.8,70.47-1.35,105.71-0.92c1.96,0.02,3.91,0.4,5.88,0.8c1.99,0.4,3.94,0.97,5.88,1.59  c2.07-0.89,2.83-0.09,1.85,1.94c3.54,1.46,2.5,4.39,0.42,6.94c3.77,0.72,5.02,10.13,3.4,13.33c3.32,1.56,3.26,3.06-0.16,4.39  l-84.32-9.28l-24.6-6.9l-2.25-2.73c-12.49-1.66-25.08-5.99-37.6-6.78C265,738.09,273.96,735.5,282.42,735.96z" />
<path class="cls-16" d="M397.4,726.66c1.73-1.45,2.29-0.77,1.09,1.23c3.4,0.62,4.02,4.57,1.66,6.91c3.1,0.91,2.91,2-0.25,2.63  c-39.2-0.24-78.58,0.67-117.47-1.46l101.95-8.13L397.4,726.66z" />
<path class="cls-20" d="M256.64,738.34c-36.86-2.32-73.63-0.73-110.16-1.17c22.38-1.79,44.27-6.3,67.07-11.58  C227.95,730.79,242.25,734.59,256.64,738.34z" />
<path class="cls-6" d="M476.53,752.3c2.57-0.74,5.46-0.98,8.68-0.72c11.39-3.46,22.5-4.25,33.34-2.35c3.64,1.62,10.34,5.15,7.52,9.39  c0.61,4.66-4.74,5.27-8.51,5.04c-0.76-1.62-24.71-2.1-23.22-0.63c1.45,1.44,12.32,10.1,13.14,10.25c5.24-2.79,10.66-4.74,16.24-5.83  l1.28,2.41c1.04,0.42,1.04,0.83-0.01,1.23c2.69,1.99-0.26,6.41-2.24,8.26c-6.04,5.64-21.71,10.23-27.96,2.36c0,0-1.17,0.04-3.5,0.13  c-2.41,1.55-5.49,1.48-9.24-0.23c0,0-4.64-0.31-13.91-0.94c-3.54,1.29-6.46,1.24-8.78-0.15c-4.63,0.14-9.2,0.52-13.71,1.15  c-8.92,3.07-17.29,7.19-25.12,12.37l-3.24-0.46c-1.01,1.97-1,3.32,0.03,4.05l-1.37,2.42c-0.74,0.81-2.28,1.34-4.62,1.58  c-1.22,3.93-6.92,2.08-10.11,0.89c-13.59-5.11-14.74-15.03-1.71-21.61c1.98-1.08,4.12-2.69,6.08-3.91c0.92,1.31,1.97,2.43,3.17,3.35  l3.91-3.58c7.75-2.72,15.61-5.09,23.59-7.12c0.24-8.6,3.66-13.23,10.25-13.89c-1.03-2.01-0.19-2.82,1.58-3.68l1.2-27.6l2.07-3.68  c-1.41-1.34-1.39-3.31,0.06-5.93l-0.48-3.73c-2.23,0.48-3.17-0.03-1.97-2.17c-2.37-1.8-2.04-2.56,1-2.27  c1.49-3.56,4.62-1.76,7.26,0.02c4.56,3.07,7.02,7.24,6.09,12.74c-4.63,9.06-7.2,18.35-7.72,27.88l16.99,2.17L476.53,752.3z" />
<path class="cls-2" d="M329.59,796.92c2.4-2.2,3.24-1.68,2.14,1.37c3.64,0.12,2.92,4.64-0.09,5.78c1.11,4.32,2.56,8.65,4.34,13  l-2.23,2.11l-0.97,2.39c-19.03,0.92-38.03,1.61-57.02,2.07l-1.47-2.02c-3.25-2.73-6.1-7.54-8.18-12.34  c-9.05,0.18-17.84,2.1-26.63-1.16c-8.02-2.98-11.08-11.84-9.89-19.49C262.81,792.27,296.23,795.17,329.59,796.92z" />
<path class="cls-20" d="M399.51,780.9l-7.72,10.59c3.91,7.26,11.71,10.66,19.54,10.14c1.95-1.04,5.63-1.36,5.42,1.22  c0.04,3.73-2.74,6.6-8.32,8.62c-4.52,2.74-7.83,2.83-9.94,0.27c-3.68,2.02-6.03,2.15-7.05,0.38c-1.91,1.05-3.09,1.02-3.55-0.07  l-9.13,1.23l-1.36-2.22c-2.66,1.41-3.8,1.09-3.42-0.94c-2.96,1.13-4.11,0.75-3.44-1.16c-5.81,1.61-8.33-6.78-2.81-9.46  c-1.78-1.04-0.94-2.21,2.5-3.5c-2.33-2.55,0.12-3.77,2.76-2.88c0.03-4.75,6.94-7.33,11.39-7.62  C389.17,783.44,394.55,782.25,399.51,780.9z" />
<path class="cls-5" d="M384.38,785.5c-3.86,1.66-7.33,6.18-11.39,7.62c-2.24-0.07-2.4-0.91-0.34-1.79  c-25.86,0.8-38.78,1.19-38.78,1.19l-4.39-1.69c0.55-2.58,1.88-7.78,5.77-7.62C352.01,783.93,368.35,783.75,384.38,785.5z" />
<path class="cls-18" d="M428.06,758.45l-0.09,3.27c-6.45,6.23-12.85,12.44-19.22,18.61c-0.84,0.29-1.79,1.15-2.89,1.37  c-1.63,0.33-1.26-1.6-0.82-2.62c0.24-0.56,0.31-1.32,0.55-2.1c1.87-1.18,1.91-3.84,2.49-5.57l0.4-3.73  c5.68-5.54,9.56-12.04,9.14-20.18l1.85-2.22c-0.72-2.01,0.56-2.76,3.82-2.24c-1.31-2.34-0.24-3.02,3.2-2.03  c4.28-2.54,5.46,4.22,2.69,7.57C430.39,751.79,431.87,757.22,428.06,758.45z" />
<path class="cls-1" d="M372.65,791.33l-2.17,1.73c-11.28,1.64-22.51,3.7-33.7,6.2l-5.05-0.96c-0.68-0.29-1.36-1.33-2.14-1.37  c-0.5-2-0.54-4.08-0.11-6.09C343.64,788.33,358.78,788.75,372.65,791.33z" />
<path class="cls-1" d="M408.08,771.42c-0.4,0.02-0.81-0.05-1.2-0.06c0.37-2.56,0.11-5.23-1.47-7.33c0.38-1.44,0.52-2.94,0.16-4.39  c-0.26-0.97-0.38-1.99-0.15-2.98c0.34-1.49,11.48-16.74,14.05-11.36C421.36,756.67,415.97,763.66,408.08,771.42z" />
<path class="cls-5" d="M424.2,710.06l-5.96,0.35c-12-4.2-24.26-7.7-36.8-9.88l-5.05-3.16c-0.85-4.15-4.76-6.91-8.33-8.52  c-1.44-1.93-3.18-4.45-3.74-6.79C385.12,688.4,407.07,697.16,424.2,710.06z" />
<path class="cls-11" d="M424.2,710.06c1.99,0.73,3.96,1.78,4.56,3.95c1.54,2.95,0.29,3.56-1.94,1.09c-1.91,1.35-6.42,0.85-7.27-1.42  c-11.04-1.2-22.03-2.88-32.96-5.04l-3.16-2.73c-2.07-2.9-6.25-4.62-7.06-8.54C392.8,699.66,408.66,704.37,424.2,710.06z" />
<path class="cls-6" d="M419.56,713.68l-0.48,1.68c-7.52,0.66-14.39,2.8-20.63,6.43l-1.63-0.5c-5.67-3.96-10.49-9.19-13.37-15.38  C395.59,707.77,408.17,709.12,419.56,713.68z" />
<path class="cls-5" d="M425.42,717.16c3.57,1.44,1.7,5.95-2.07,4.77c-7.77,1.19-15.35,3.78-22.73,7.76l-2.13-1.81l-1.09-1.23  l-0.23-2.41c2.17-6.08,21.99-10.47,27.12-8.5C424.77,715.94,425.11,716.5,425.42,717.16z" />
<path class="cls-1" d="M426.83,715.1c2.2,2.37,1.72,2.75-1.41,2.06c-9.88-0.96-19.35,2.9-28.25,7.09c-0.08-0.81-0.86-2.19-0.35-2.96  c5.54-6.66,14.58-6.03,22.75-7.61C421.94,713.22,424.55,714.74,426.83,715.1z" />
<path class="cls-24" d="M294.25,745.11c9.28,1.23,19.18,5.03,26.85,9.63c-18.4-2.03-36.84-0.48-54.99-1.15  C275.5,752.13,285.05,747.65,294.25,745.11z" />
<path class="cls-8" d="M440.11,694.75c2.37,0.58,4.13,2.99,5.29,7.25c1.72,1.43,3.24,3,4.56,4.7c-0.26,0.79-0.59,1.55-1,2.27  c-2.1,1.48-4.93,2.21-8.5,2.2l-7.21,2.04c-0.24,2.46-1.29,2.73-3.14,0.8c-3.2-8.86-9.15-16.26-9.43-25.79L440.11,694.75z" />
<path class="cls-5" d="M340.94,643.76c-2.45-0.82-3.74-4.4-5.31-6.06c28.28,6.92,55.82,21.95,78.39,40.94  C387.53,667.86,366.17,652.25,340.94,643.76z" />
<path class="cls-4" d="M480.47,969.16l6.89,0.02c27.97,8.46,56.25,15.81,84.85,22.05c0,0,1.89,1.32,5.67,3.96  c-54.42,5.83-111.59,5.05-166.58-0.44c-5.83-4.48-10.31-9.68-15.72-16.49c-2.11,4.27-6.85,5.18-9.91,7.59  c-35.4-9.57-75.08-21.64-104.5-42.56l8.54-0.25c58.01,8.49,116.15,15.92,174.43,22.29L480.47,969.16z" />
<path class="cls-5" d="M508.9,1075.71c0.46,0.39,1.43,0.69,2.01,0.85l7.08,4.52c14.08,13.42,29.74,24.8,46.99,34.16l2.27,4.12  c-18.46-5.96-39.95-6.09-58.65-12.94c-19.8-7.25-38.17-17.6-57.44-25.8c-0.51-1.19-1.08-2.28-2.44-2.67  c-16.01-15.97-29.58-34.58-36.5-57.71C440.58,1045.71,473.47,1065.67,508.9,1075.71z" />
<path class="cls-12" d="M407.93,1054.72c-0.15,0.39-0.01,0.93-0.2,1.3l-58.51,36.36c-61.3,23.01-122.88,43.06-187.61,53.03l42.46-38.1  c36.4-5.05,70.05-19.77,102.99-35.14c26.61-12.42,56.56-18.46,80.77-38.41L407.93,1054.72z" />
<path class="cls-1" d="M454.85,695.4c6.33,7.33,15.14,14.2,15.67,24.11l2.39,1.75l0.1,13.45l-1.9,2.18l2.61,0.74  c0.5,4.42,1.75,8.48,3.77,12.19l-0.97,2.49l-23.04-2.63c-1.69-12.19,4-20.46,7.58-30.84c1.85-5.37-5.75-12.54-11.1-12.14  c-6.29,0.48-8.13-6.1-9.85-11.94c-0.87-2.95,1.64-6.49,1.78-9.39C445.93,688.63,451.43,691.43,454.85,695.4z" />
<path class="cls-11" d="M570.69,677.3c0.46-0.63,0.88-1.28,1.27-1.95c2.59-0.08,3.97-2.18,5.51-3.89c4.21-4.65,11.44,1.43,16.82-0.25  c11.37-4.5,20.24-14.34,30.3-20.79c0.34,3.8-1.79,7.7-0.4,12.1l18.12,8.41C622.65,672.72,589.49,687.35,570.69,677.3z" />
<path class="cls-12" d="M554.3,719.63l14.06-0.04l26.81,4.36l2.61,2.83c-4.33,4-10,6.41-17,7.24l-22.96,1.97l-1.06,2.35  c0,0-28.07,0.29-84.2,0.86l-1.43-2.33c-1.63-5.82-0.27-11.47-0.59-17.38L554.3,719.63z" />
<path class="cls-17" d="M895.33,719.91l-92.59,21.88l-3.95,1.9c-20.86-4.7-41.71-6.75-62.56-6.14l-58.14,7.22l-1.68-2.15l-17.91-2.97  l-2.19-2.43c-19.29-1.35-38.6-4.09-57.59-7.88l-0.95-2.55c-9.97-1.78-20.52-3.2-29.41-7.2L895.33,719.91z" />
<path class="cls-16" d="M333.75,819.18c0.99,0.13,1.05,0.53,0.24,1.18c4.78,0.43,7.17,1.89,7.17,4.38l9.4,0.02l1.21,2.42  c2.02-0.33,3.19-0.22,2.36,1.93c9.54-1.08,18.79-4.1,27.77-9.05l1.2,1.28l1.27-1.17c0.33-1.14,0.78-1.14,1.35-0.05  c2.53-1.04,3.75-0.71,3.68,1c14.85-1.63,29.74-3.12,44.68-4.45c4.2,2.47,5.6,4.84,4.19,7.11c4.3,1.31,6.33,3.21,6.09,5.72  c2.99,0.2,6.33,3.23,4.46,6.12c3.37-0.13,6.09,1.59,6.02,5.11c3.71-0.49,6.04,3.64,4.64,6.84c3,1.29,2.84,4.71-0.42,5.46  c-1.18,0.64-2.37,1.24-3.61,1.68c-1.22,0.43-2.42,0.83-3.64,0.9c-24.36,1.35-48.92,2.25-73.27,2.23l-1.46,2.13  c-21.67-3.67-43.37-7.34-65.1-11.02l-8.28-3.78c-9.16-8.24-26.26-10.14-29.41-23.54L333.75,819.18z" />
<path class="cls-4" d="M423.15,902.36c0.44-0.81,1.19-1.95,1.85-1.78c6.78,1.66,26.2,9.63,32.58,13.03l0.72,2.81l-2.36,2.14  l-25.83-4.73l-3.72,1.09c-14.88-3.7-30.06-6.02-45.54-6.97l-5.87-3.42l-5.8,0.4c-18.37-2.77-36.74-5.68-55.11-8.71l-10.61-3.66  c-4.78,0.03-9.4-1.58-13.84-4.85l-9.75-7.48c-9.32-4.77-17.03-15.1-23.36-23.76c-0.66-0.9-1.06-1.99-1.43-3.13  c-0.38-1.17-0.6-2.39-0.77-3.62c-5.43-7.29-10.18-15.47-14.28-24.47c31.62,19.72,64.02,36.59,99.15,48.54L423.15,902.36z" />
<path class="cls-4" d="M378.55,857.84l17.04,0.78c20.88,4.7,41.91,8.55,63.08,11.55l6.45,3.02c3.57,0.17,4.6,4.24,2.31,6.91  c3.51-0.49,3.44,6.28,0.1,6.94c-0.68,0.43-0.6,0.81,0.05,1.27c2.27-0.15,2.25,0.75-0.04,1.33l-1.38,2.18  c-26.67-3.56-53.42-7.12-80.25-10.7l-15.62-4.45c-23.04-8.94-47.91-14.69-66.59-31.5L378.55,857.84z" />
<path class="cls-10" d="M467.54,889.64c2.33,1.03,3.91,2.98,4.76,5.83c3.17,0.15,3.94,3.28,2.32,9.4l0.34,3.39l-0.2,0.86  c3.21,1.31,2.95,3.56,1.21,6.26c1.05,0.33,0.98,0.66-0.12,1.01c-3.99,3.62-13.73,3.95-17.54,0.02l-35.16-14.06  c-17.73-7.09-34.84-18.7-52.85-25.68L467.54,889.64z" />
<path class="cls-2" d="M279.85,880.23c7.81,4.04,15.96,7.85,23.59,12.33c14.98,5.84,29.56,12.68,43.76,20.51  c44.5,19.55,88.76,37.34,132.78,53.39l0.49,2.69c-66.26-5.64-132.94-15.51-199.32-25.86c-2.64-0.41-4.67-1.12-6.93-2.36l0.87-2.32  l86.89,2.14c-25.06-7.52-47.42-15.65-63.59-38.04c-22.19-2.95-44.3-6.42-66.32-10.39c-6.49-0.5-12.05-2.58-16.7-6.22  c-6.21-11.78-15.51-21.61-17.57-35.14c4.79,0.73,7.18,1.1,7.18,1.1c27.06,15.4,54.9,29.1,83.52,41.09l-9.26-10.11L279.85,880.23z" />
<path class="cls-9" d="M575.39,1098.19l48.01,25.82l39.88,18.93c-32.34-6.78-64.8-13.51-96.03-23.59  c-20.27-12.34-41.28-24.16-56.34-42.79C532.3,1082.57,555.56,1087.53,575.39,1098.19z" />
<path class="cls-12" d="M652.73,835.61c31.16,5.7,63.27,7.6,93.75,15.04c0.8,3.78-3.27,5.42-5.76,2.7l-15.89,4.28  c-67.91,8.21-135.64,16.41-203.21,24.58l-1.72-2.15c-0.35-3.48-0.13-7.16,0.66-11.06c-0.68-0.58-1.2-1.15-1.17-1.69  c0.3-5.47,1.58-10.53,3.79-15.56c-3.41-0.74-2.65-4.45,0.7-4.83l5.54-1.95c31.98-2.94,63.94-6.28,95.88-10.03l17.04-0.15  C643.11,830.66,652.3,831.64,652.73,835.61z" />
<path class="cls-4" d="M751.08,802.71c12.06,0.15,24.57,1.71,36.4,3.66c12.15-0.51,24.38,0.72,36.66,3.68l1.29,2.59l-172.7,22.96  c-3.35-0.61-7.02-1.35-10.39-0.81c-11.05,1.22-21.25-0.3-30.62-4.55c-0.28-0.87-0.46-2.29,0.08-2.48  c29.8-10.33,62.56-20.36,93.4-26.43c1.64-0.9,3.4-1.78,5.3-1.82C723.66,799.21,738.13,800.55,751.08,802.71z" />
<path class="cls-24" d="M866.02,850.82c-21.29,4.52-43.81,2.98-65.57,1.53c-13.69,11.95-25.94,24.33-42.16,29.25  c1.95-4.85,5.28-9.33,9.99-13.44l7.77-10.63c-40.33,11.55-81.16,22.33-122.5,29.63c-1.02,0.18-2.12,0-3.26-0.21  c-1.14-0.21-2.25-0.58-3.36-1c2.39-3.66,6.14-5.1,10.2-6.25c27.81-9.01,55.67-17.78,83.59-26.33c1.67-0.8,4.39-1.46,5.76-2.7  c10.14-3.26,19.2-8.6,29.81-14.56C805.66,845.72,835.68,848.3,866.02,850.82z" />
<path class="cls-7" d="M890.62,806.29l-65.19,6.35l-37.96-6.27C822.34,795.24,857.83,799.25,890.62,806.29z" />
<path class="cls-12" d="M758.29,881.59c-35.41,16.39-75.68,21.84-112.62,34.94c-3.13-0.15-3.07-1.22-0.16-2.29l0.81-2.36  c3.6,0.3,6.54-0.59,8.81-2.68l0.35-1.38c-16.26-2.02-32.43-4.53-48.53-7.53l-3.6-2.61c0.49-0.8,1-1.56,1.64-2.22  c3.15-3.26,34.9-11.86,39.29-10.64c0.91,0.25,1.78,0.66,2.64,1.12c41.88-7.18,93.91-20.24,134.47-32.46  C774.76,864.45,767.19,874.26,758.29,881.59z" />
<path class="cls-9" d="M645.51,914.24l0.16,2.29c-37.19,13.19-75.84,20.72-114.81,27.98c-1.24,0.23-2.95-0.3-3.52,1.26l-4.15,1.28  c-5.37-0.9-27.92-6.7-30.06-9.74c-0.46-0.66-0.8-1.41-1.11-2.18c-3.05-2.57,1.18-8.76,4.72-7.13c1.93-4.16,4.39-6.6,7.38-7.3  c5.2-1.34,7.79-2,7.79-2c39.19,1.72,78.67,2.12,117.5-4.25l7.99,0.97c0.96-0.12,1.84-0.49,2.63-1.12  C640.47,910.88,644.72,910.98,645.51,914.24z" />
<path class="cls-2" d="M871.88,769.97c3.51-0.24,7.66-0.93,10.65,0.79l-34.09,13.27l-112.47,14.16c-1.51,2.36-4.1,2.85-7.77,1.47  c-4.67-0.74-13.57-2.52-15.75-6.24c-0.1-0.93-0.05-2.37,0.58-2.52c25.7-6.17,55-12.79,81-17.08c3.09-1.36,5.2-1.01,6.33,1.06  C823.63,770.12,848.15,767.67,871.88,769.97z" />
<path class="cls-24" d="M712.44,793.41c8.04,1.13,15.3,4.81,23.52,4.78c4.5-0.02,10.74,3.62,15.12,4.52  c-15.04-0.19-30.58,0.41-45.88-1.37c-12,1.91-23.96,4.14-35.89,6.68c-10.49,2.49-14.33,1.11-11.52-4.15l13.45-7.98  c-18.41,4.49-37.01,7.62-55.81,9.4c-11.13-0.05-15.72-2.49-3.58-7.62c19.38-5.73,38.81-11.08,58.28-16.06  c2.97-0.85,6.09-1.01,9.35-0.48c10.01,3.54,20.12,6.69,30.34,9.47L712.44,793.41z" />
<path class="cls-10" d="M802.73,741.79c3.53,0.37,7.57,2.19,11.72,1.23c1.36,0.69,3.36,1.05,4.54-0.01c0.77-0.07,1.75,0.86,2.41,1.21  c4.77,2.56,10.58,0.91,15.89,4.9c-13.07,2.25-25.25,4.36-37.06,8.23c-2.72,1.42-4.08,2.14-4.08,2.14  c-32.63-5.55-63.8-3.62-96.13,3.85c0,0-1.69-0.52-5.08-1.57l-22.77,0.96l-83.5-5.08c-1.3-1.46-0.97-3.09-0.13-4.82l79.46-11.38  l8.44,1.16l59.55-7.4C758.71,732.4,780.83,739.49,802.73,741.79z" />
<path class="cls-5" d="M818.99,743.02c0.39,1.23-1.03,1.27-1.65,1.25c-1.2-0.04-2.87,0.11-2.89-1.25  C815.87,742.69,817.54,743.14,818.99,743.02z" />
<path class="cls-2" d="M800.22,757.36c7.85,0.28,17.87,4.9,26.02,5.64c-2.82,1.54-6.05,2.65-9.69,3.31  c-39.68,3.9-79.28,7.79-118.81,11.67l-1.65-2.19c-30.19,2.3-60.48,2.92-90.88,1.87c-1.43-1.45-0.93-3.07,0.03-4.82l67.36-10.09  l22.32-0.97c18.81-2.82,37.68-7.58,57.31-8.19C768.91,753.06,784.49,756.8,800.22,757.36z" />
<path class="cls-12" d="M826.24,762.99l0.12,1.05c-1.38,3.5-4.61,6-9.66,7.52l-16.34,3.32l-87.91,18.53  c-14.87-2.09-28.04-10.04-42.3-11.8c-0.97-0.47-0.9-0.86,0.16-1.17c0.29-0.65,0.62-1.27,1.07-1.78c0.4-0.45,0.81-0.82,1.27-0.87  c7.78-0.91,15.63-1.5,23.44-2.02L826.24,762.99z" />
<path class="cls-18" d="M871.88,769.97l-71.52,4.91c9.44-1.76,17.87-6.81,26.01-10.84C840.3,758.89,857.34,767.5,871.88,769.97z" />
<path class="cls-13" d="M215.38,886.1c27.25,7.09,55.54,9.82,84,14.59c31.07,34.46,34.86,25.19,75.92,42.74l-101.08-2.49  c-28.83-15.85-54.6-36.31-79.89-58.45C201.89,885.24,209.03,884.45,215.38,886.1z" />
<path class="cls-21" d="M606.83,500.76l-3.61,20.6c-33.38-13.47-28.69-9.87-63.87-9.54c-0.44-3.8,1.17-7.49,3.49-11.38L606.83,500.76z  " />
<path class="cls-15" d="M745.54,613.52c5.78,8.93,17.13,7.71,25.62,12.64l-3.68,2.72c-10.43,1.63-20.78,3.72-31.05,6.26l-6.35-1.13  c-1.79,0.33-3.47,2.33-4.71,3.52l-46.52,25.03c-1.73,0.93-6.81,0.59-8.22-0.28c-1.23-0.76,1.44-4.31,2.02-6.17  c-12.16-4.76-25.07-6.95-36.31-12.76l43.62,0.53c18.94-7.62,34.43-20.69,52.34-29.54C736.52,612.27,741.43,613.52,745.54,613.52z" />
<path class="cls-3" d="M771.16,626.16c12.08,7.01,24.71,13.18,36.33,20.82c-6.48,5.52-13.62,10.67-18.84,17.23  c-3.38-1.77-8.48-1.48-11.72-4.29l-19.29-7.67l-0.78-3.04c-9.03-4.86-18.11-9.83-26.78-15.2  C743.81,631.53,757.28,627.27,771.16,626.16z" />
<path class="cls-6" d="M776.94,659.93c-9.08,0.07-18.03-4.52-26.43-7.9l6.35-2.8C763.45,652.77,771.08,654.83,776.94,659.93z" />
<path class="cls-10" d="M374.97,904.52l6.11,3.08c61.48,54.39,145.26,61.89,225.21,59.28l20.66,1.1c13.37,2.36,27.05,4.17,39.84,8.24  c-29.24,7.7-59.31,14.95-88.92,18.97c-32.29-9.02-65.95-14.06-97.41-26.04l-67.06-25.53c-38.22-14.55-75.14-30.61-109.96-51.07  C327.01,895.47,351.17,899.54,374.97,904.52z" />
<path class="cls-16" d="M430.11,913.82c10.6,2.09,20.92,5.62,30.96,10.59l14.51,4.43l3.28,3.06c2.48-1.06,3.05-0.45,2.61,2.23  c2.49-0.49,4.42,0.79,3.74,3.49c2.62-3.82,4.89-4.65,6.81-2.48c11.23,5,23.58,7.26,35.32,10.64c32.63,9.39,66.18,16.3,99.61,22.21  c-38.19,3.3-77.73,0.76-116.98-2.64c-40.14-3.47-108.03-29.69-135-60.83C392.87,908.27,413.11,906.81,430.11,913.82z" />
<path class="cls-5" d="M420.35,731.35c2.19,0.01,2.74,3.93,0.57,4.75c0.23,2.58,1.02,4.9,2.37,6.94c-0.98,1.15-2.45,1.73-3.82,2.24  c-6.67,2.49-8.6,9.95-13.9,14.34c-2.37-4-2.41-8.83-3.4-13.33c2.14-6.72,9.49-14.16,16.35-16.38  C419.34,729.66,419.97,730.35,420.35,731.35z" />
<path class="cls-1" d="M421.07,727.7c2.3,1.06,1.67,3.41-0.71,3.65c-8.52,1.3-11.18,10.77-18.18,14.96c-0.5-2.27-0.6-4.63-0.42-6.94  c0.04-6.73,11.25-11.17,17.28-13.32C419.8,725.77,420.6,726.72,421.07,727.7z" />
<path class="cls-5" d="M423.3,723.13c3.19,2.31,1.51,5.38-2.23,4.56c-7.79,0.64-13.71,6.45-19.32,11.67  c-0.74-0.52-1.32-1.21-1.85-1.94c-0.12-0.8,0.51-1.86,0.25-2.63c-0.26-5.24,8.16-8.96,12.81-10.62c2.8-1,5.89-2.03,8.89-1.79  C422.35,722.43,422.83,722.74,423.3,723.13z" />
<path class="cls-1" d="M423.35,721.93c1.01,0.38,0.98,0.78-0.05,1.2c-8.74,1.38-16.47,5.93-23.15,11.66  c-0.77-2.25-1.52-4.52-1.66-6.91C406.92,725.61,414.84,718.73,423.35,721.93z" />
<path class="cls-16" d="M557.81,735.99c32.52-3.19,66.01-2.39,98.5,1.23c7,0.09,14.41,1.94,20.1,5.4l-88.37,12.66l106.88,6.49  l-90.4,13.54l91.58,0.47c-8.05,0.79-17.69,3.25-25.78,4.67c-4.78,2.3-9.85,3.99-15.24,5.07c-45.64,8.06-91.16,16.1-136.57,24.12  l-2.6-1.92c-3.4,2.3-13.62-4.93-15.81-7.74c-2.67-3.43-3.19-4.41,0.59-7.56c3.49-3.82,16.29-11.22,21.25-13.05  c4.28-1.59,8.97,1.65,12.1,4.44c2.51-0.63-7.07-11.68-9.04-12.72c0.16-0.34-0.09-0.86,0.01-1.23c-0.57-3.98-0.21-7.73,1.06-11.24  c-11.2-19.36-42.15,1.5-49.54-6.31c-3.96-4.18-4-10.38-5.41-15.42L557.81,735.99z" />
<path class="cls-1" d="M515.91,807.72c3.89-0.31,10.8,9.16,6.83,11.62c5.01,2.87,5.61,22.59,2.93,25.92  c-0.51,0.63-1.13,1.16-1.79,1.66c-3.53,2.07-11.8-5.39-11.89-9.04c-4.98,0.53-7.93-8.08-3.89-11.47c-2.55-1.93-2.07-9.53,1.17-10.54  c-4.12-6.43-8.42-9.81-15.33-13.64c-4.05-3.44-9.73-12.3-4.53-16.07c-2.67-1.83-1.35-4.82,1.9-4.32c0.7-1.25,2.29-1.9,3.17-4.19  c4.77,6.87,10.94,7.04,18.41,4.94c6.29-1.77,9.07-4.79,12.12-11.5c5.65-2.82,4.75,3.91,8.55,6.06c4.15,2.35,3.57,6.94,1.08,11.11  c-3.2-4.15-8.28-8.77-13.83-6.2c-7.76,3.59-14.82,8.77-21.2,14.39C505.34,801.64,510.54,804.73,515.91,807.72z" />
<path class="cls-1" d="M415.95,800.05c4.67-2.12,12.12-0.39,15.3,3.64l3.51-0.53c5.08-1.13,17.54,2.93,17.58,9.07  c-0.87,0.97-1.29,1.76-1.25,2.38c3.99,0.72,6,2.24,6.03,4.56c2.58-0.41,4.51-0.04,5.77,1.12c2.44,2.28,0.61,3.94-1.96,5.44  c-4.61,2.69-18.48,2.16-22.65-1.97c-0.69-1.68-3.52-2.75-4.78-5.11c-15.03,3.19-29.5,2.73-44.1,2.45c0.75-2.4,3.02-4.09,6.81-5.05  l18.65-2.12c8.15,0.23,8.68-2.59,1.61-8.47l0.28-2.63c-1.63-0.95-3.47-1.35-5.42-1.22C412.16,800.44,414.47,799.57,415.95,800.05z" />
<path class="cls-11" d="M451.36,720.78l-1.14,3.52c-2.93,2.48-5.16,5.43-6.69,8.83c-1.07,6.87-1.79,13.87-2.16,21.02l-3.07,1.54  c0.39,3.65-8.48,5.88-10.24,2.76c-0.15-0.22,0.24-6.64-0.71-8.65c-0.58-1.24-0.41-0.19-3.89,0.63c4.11-3.16,4.21-3.38,4.69-4.92  c0.41-1.31,0.61-2.89-1.03-3.36c-1.59-0.46-2.85-0.25-3.83,0.89c-1.9,0.13-3.9-0.68-4-2.98c-0.06-1.27,0.72-2.78,1.64-3.96  c1.34-0.8,1.65-2.22,0.94-4.27c0.81-4.15,3.81-6.8,9.01-7.98c-2.95-4.32,0.42-5.58,4.32-6.54c-4.54-1.07-5.59-2.18-1.34-4.37  c4.02-2.07,12.84-3.29,17.08-1.81c2.66-0.2,3.22,3.46,2.56,5.08C452.98,717.47,452.48,719.64,451.36,720.78z" />
<path class="cls-1" d="M459.38,780.52c1.3,3.27-3.99,5.27-5.85,2.51c-3.41-1.08-5.86,0.4-8.28,2.96c1.85-2.46,5.39-4.4,8.28-2.96  l1.39,0.78c1.38,4.02,6.06,5.46,14.04,4.32l1.96,2.3c3.54,1.4,1.1,5.33-2.12,3.29c0.13,0.9,0.25,2.22-0.37,2.53  c-3.98,2.02-15.54,4.79-19.57,2.94c-2.32,5.85-12.62,2.5-16.55-0.25c-2.35,4.24-15.48-0.8-15.01-5.36  C429.19,784.58,444.9,777.52,459.38,780.52z" />
<path class="cls-1" d="M525.01,769.86c-6.28-0.72-10.59,4.31-18,5.57l-18.78-14.05c27.23-5.61,28.2,4.58,37.84-2.76  C528.06,762.05,528.31,767.21,525.01,769.86z" />
<path class="cls-1" d="M446.51,755.74c-5.36,3.17-8.47,8.3-6.88,15.33c-10.98,3.15-20.99,5.79-30.87,9.26  c4.11-9.06,12.13-15.16,19.3-21.88l10.24-2.76C439.98,751.85,445.56,751.15,446.51,755.74z" />
<path class="cls-11" d="M491.3,781.84c-0.67,1.19-0.99,3.25-1.9,4.32c-1.78,3.44-10.6,6.32-13.69,3.72c-0.45,3.6-3.51,3.87-4.79,0.54  c-3.92,0.16-7.46-0.06-11.96-0.49c-3.45-0.33-6.99-1.87-5.43-6.9l5.85-2.51C469.18,776.31,481.11,778.19,491.3,781.84z" />
<path class="cls-5" d="M446.51,755.74c-2.49-1.02-5.64-0.75-8.21-0.06c5.05-10.92-4.88-22.58,13.06-34.9  c1.48-4.03-2.54,37.16-0.53,31.58C450.32,753.76,448.11,754.8,446.51,755.74z" />
<path class="cls-18" d="M448.96,708.96c0.9,0.23,1.42,1.55,1.97,2.17c-5.64,2.5-12.01,1.18-18.59,3.15c3.79,1.49,7.69,0.1,11.89,2.38  l-13.95,4.83c19.94,0.36-4.62,4.96-6.44,8.94c-1.7,3.72,1.7,5.63,4.03,8.99c-6.42,3.67-3.41-2.89-6.94-3.32  c-0.02-1.57-0.71-3.18-0.57-4.75c0.09-1.08,0.44-2.66,0.71-3.65c1.04-1.35,2.16-2.83,2.23-4.56l0.05-1.2  c1.34-1.22,1.7-3.1,2.07-4.77c0.51-0.48,1-1.48,1.41-2.06c0.34-0.48,1.74-0.24,1.94-1.09l1.35-0.01  C436.03,710.66,442.13,707.24,448.96,708.96z" />
<path class="cls-11" d="M481.85,758.73c-13.79,3.8-25.65,9.58-39.47,10.6C453.15,759.14,467.96,755.3,481.85,758.73z" />
<path class="cls-18" d="M417.3,793.57c4.22,2.34,9.9,5.01,15.01,5.36c7.79,2.17,6.28,4.45-1.05,4.75c-5.2-0.87-10.22-2.02-15.3-3.64  c0-1.44-5.84-5.66-2.51-6.11C415.14,793.71,416.69,794.03,417.3,793.57z" />
<path class="cls-1" d="M370.23,796c-0.38,1.37-1.9,2.36-2.5,3.5c-2.8,3.57-6.75,6.26-11.83,8.07c-9.71,4.55-8.56,5.52,3.43,2.92  c4.21-1.86,7.95-2.37,11.21-1.52c0.92,0.56,2.4,0.83,3.44,1.16c0.06,0.8,0.02,1.52-0.35,1.98c-3.48,4.38-33.22,12.1-39.64,8.27  c-0.15-0.3-0.27-0.85-0.24-1.18c0.45-5.76-6.38-9.6-2.11-15.11c0.48-0.79,0.99-1.55,1.62-2.19c3.03-3.12,30.46-8.68,34.58-7.15  C368.68,795.04,369.46,795.5,370.23,796z" />
<path class="cls-6" d="M372.65,791.33c0.15,0.59,0.26,1.19,0.34,1.79c-0.18,1.19-2.49,1.9-2.76,2.88  c-13.12,1.67-26.07,3.74-38.59,8.08l0.09-5.78C344.95,794.15,358.84,792.31,372.65,791.33z" />
<path class="cls-14" d="M389.4,821.12c-1.29-0.02-2.5-0.55-3.68-1c-0.02-4.46,8.41-7.06,12.77-8.37c6.75-0.36,13.25-4.17,18.26-8.9  c3.93,2.3,6.47,7.35,9.01,10.83C413.16,818.71,399.8,815.15,389.4,821.12z" />
<path class="cls-6" d="M367.73,799.5c-1.84,3.51-0.5,7.44,2.81,9.46c-9.24,5.21-21.11,4.95-31.84,6.44  C348.65,809.01,357.67,803.13,367.73,799.5z" />
<path class="cls-1" d="M387.89,812.05c-0.4,0.85-0.86,1.59-1.52,1.92c-9.42,4.7-22.22,10.76-32.15,13.67  c-0.71,0.21-1.56-0.06-2.45-0.46c-3.65-0.2-7.46-0.48-10.62-2.44l1.32-2.99l20.01-4.69c5.05-2.12,10.02-4.12,14.9-6.01  L387.89,812.05z" />
<path class="cls-5" d="M377.4,811.06c-9.53,8.44-24.15,8.95-36.24,13.69c-2.42-1.5-5.86-1.68-7.17-4.38  c13.59-1.54,28.73-2.75,39.99-10.25C375.01,810.44,376.34,810.96,377.4,811.06z" />
<path class="cls-5" d="M391.44,812.12c0.23,1.6-0.39,2.52-1.64,3.27c-10.52,6.31-23.38,12.98-35.67,13.72  c-0.95-0.39-1.73-1.14-2.36-1.93c12.09-4.96,23.68-11.37,36.11-15.13C389.01,811.71,390.33,812.18,391.44,812.12z" />
<path class="cls-1" d="M398.49,811.75l-12.77,8.37c-0.34-0.13-0.99-0.04-1.35,0.05l-1.27,1.17c-9.84,2.73-19.47,11.66-28.97,7.77  c12.6-4.06,26.76-9.07,37.31-16.99L398.49,811.75z" />
<path class="cls-24" d="M597.77,726.78l58.54,10.43l-98.5-1.23C571.44,734.5,584.67,730.75,597.77,726.78z" />
<path class="cls-12" d="M459.07,853.03c3.09,0.34,7.07,5.25,3.76,7.46c4.21,1.01,5.76,9.68,2.29,12.7  c-29.18-2.63-57.82-10.49-86.57-15.36C404.97,854.18,432.24,853.95,459.07,853.03z" />
<path class="cls-6" d="M487.44,832.14l0.84,3.3c-4.56,8.2-10.2,15.49-16.92,21.89c-2.86,3.36-5.7,4.41-8.53,3.16  c-0.37-2.48-3.83-4.64-3.76-7.46c0.04-1.82-0.01-3.67,0.42-5.46l1.35-2.55c7.81-1.54,14.09-6.82,19.12-12.75l2.82-0.08  C482.73,828.77,486.63,828.87,487.44,832.14z" />
<path class="cls-1" d="M482.77,832.2c-5.25,7.46-14.17,14.51-23.29,15.38c-2.15-1.44-3-5.22-4.64-6.84l1.56-2.72  c6.64-1.12,12.48-3.63,17.52-7.53l2.94,0.24C477.55,826.95,484.34,828.25,482.77,832.2z" />
<path class="cls-1" d="M470.18,827.28c2.33-0.36,3.11,0.16,2.33,1.55c0.47,0.81,0.93,1.84,0.47,2.52c-2.79,4.13-19.68,7.51-24.15,4.27  c-1.93-1.86-3.54-3.55-4.46-6.12l0.96-2.48c7.24,0.6,11.56,0.45,18.19-2.38c0.95-0.41,1.88-0.2,2.73,0.4  C469.1,823.43,470.09,823.99,470.18,827.28z" />
<path class="cls-5" d="M476.87,830.72c-5.77,5.66-14.12,8.45-22.02,10.01c-2.96-0.88-4.02-3.19-6.02-5.11  c8.03-2.33,18.21-0.21,23.68-6.79C473.95,825.84,477.91,827.27,476.87,830.72z" />
<path class="cls-3" d="M466.24,825.04c-4.47,6.28-14.47,3.3-21.88,4.45c-2.16-1.65-4.92-2.88-6.09-5.72  c7.98,0.76,21.45,4.13,24.62-3.48C466.01,815.02,471.6,822.65,466.24,825.04z" />
<path class="cls-9" d="M458.3,916.41c5.83,0.4,11.71-0.05,17.54-0.02c3.01,1.23,3.46,3.71,1.34,7.44c3.95-0.48,5.39,6.85,1.69,8.07  c-17.21-3.12-33.01-11.58-48.76-18.08C439.27,912.1,448.82,915.77,458.3,916.41z" />
<path class="cls-6" d="M472.3,895.48c-3.25,0.2-4.84-2.96-4.76-5.83l0.04-1.33c-0.62-0.3-0.59-0.73-0.05-1.27l-0.1-6.94l0.32-3.62  c7.69-9.68,14.32-20.11,19.9-31.29l3.53-0.99c3.6,2.28,3.53,6.18,3.1,10.12c-0.87,7.86-14.41,32.65-19.11,40.7L472.3,895.48z" />
<path class="cls-3" d="M492.01,840.14c3.28-0.05,3.22,1.57,0.19,2.65c0.88,1.92,0.98,2.34-1.02,1.42  c-8.39,11.68-12.92,25.82-23.76,35.9c-0.03-2.14-2.51-4.61-2.31-6.91l1.16-3.79c8.28-9.88,15.34-20.9,21.19-33.07  C490.64,834.25,494.12,836.89,492.01,840.14z" />
<path class="cls-1" d="M504.92,856.72c1.86-1.07,3.97,0.06,6.33,3.4c3.81,1.23,6.71-1.44,8.7-8.01l3.24-0.36  c-1.34,9.3-1.09,19.08-3.28,28.31c3.64,0.71,0.63,12.75-3.06,12.91c3.58,2.37-2.01,13.34-5.87,13.01l-1.64-3.48  c-2.98,9.05-6.4,18.08-12.59,25.51c-1.83,2.11-3.68,4.53-4.72,7.13c-2.66,0.54-3.94,3.83-6.81,2.48c-1.95-1.7-1.8-4.12,0.47-7.23  c0,0-1.4,1.25-4.2,3.75c-0.92-0.36-2.57-0.84-2.61-2.23c-0.17-2.59-0.57-5.61-1.69-8.07l0.86-4.57  c9.96-12.05,18.17-26.17,20.69-41.76c-3.77,14.08-10.13,26.58-19.06,37.5l-3.71,0.37c-0.71-2.02-1.68-4.23-1.21-6.26l0.2-0.86  c-3.3-3.26-0.67-8.7-2.66-12.79l16.43-31.84c3.36-6.51,4.43-12.69,2.45-19.43l1.02-1.42c3.76,0.52,10.26,7.19,12.61,10.53  L504.92,856.72z" />
<path class="cls-3" d="M477.18,923.84c-1.09-2.39-0.93-4.69-1.34-7.44c-0.05-0.31,0.23-0.72,0.12-1.01  c14.22-13.26,17.98-33.53,25.71-52.81C504.08,885.45,491.14,908.3,477.18,923.84z" />
<path class="cls-11" d="M474.76,909.12l0.2-0.86c4.87-20.95,13.3-28.78,22.62-52.32C497.05,876.24,486.07,894.21,474.76,909.12z" />
<path class="cls-10" d="M254.29,849.72c7.99,10.73,16.65,20.79,25.56,30.51l16.82,18.36c-35.03-11.97-66.32-30.83-98.86-47.63  c-19.52,6.85-39.27,10.79-59.47,14c-1.38-5.01-1.28-10.17-1.41-15.33c18.94-6.03,34.61-20.85,51.78-30.62  c4.43-2.52,8.94-4.55,14.4-7.12C215.13,830.85,234.09,841.75,254.29,849.72z" />
<path class="cls-4" d="M740.72,853.35c-29.78,14.23-62.94,20.53-93.79,32.59c-14.86,2.55-30.13,7.06-43.57,11.74l-1.19,2.28  c-22.36-0.44-44.57-2.37-66.62-5.8l-1.48,2.25l-15.72-1l-1.51-2.44l3.06-12.91L740.72,853.35z" />
<path class="cls-16" d="M611.73,830.25c10.23,1.25,20.47,2.81,30.62,4.55c-38.86,6.17-78.9,9.38-118.47,12.13  c1.31-9.11,0.91-18.52-1.14-27.58l1.36-2.19c28.83,3.53,57.68,7.07,86.53,10.6L611.73,830.25z" />
<path class="cls-6" d="M523.87,846.92l-0.7,4.83c-3.23,3.38-3.94,9.38-7.27,10.64c-6.08,2.3-7.99-2.66-10.99-5.68  c-2.87-1.43,3.55-17.48,4.29-18.11c0.78-0.66,1.8-0.78,2.78-0.73C516.34,839.98,519.82,844.21,523.87,846.92z" />
<path class="cls-10" d="M670.31,780.45l-0.16,1.17c-19.69,10.68-42.83,11.44-64.58,21.11c26.57,2,49.91-7.89,74.46-10.38  c-7.21,7.14-15.6,9.76-22.71,14.65c16.72-0.62,32.2-7.48,47.89-5.65l-93.48,28.9l-88.99-10.9c-0.93-4.11-4.93-8.01-6.83-11.62  L670.31,780.45z" />
<path class="cls-10" d="M535.55,894.17c38.61,5.9,77.39,10.33,116.34,13.31l3.25,1.73c2.7,4.51-6.04,5-9.62,5.04l-5.48,0.06  c-0.72,0.71-1.6,1.34-2.63,1.12c-44.44,8.36-88.34,7.32-133.29,5.29c-0.99-4.72,2.15-12.91,6.85-14.73  c1.67-3.91,4.88-8.85,5.87-13.01L535.55,894.17z" />
<path class="cls-24" d="M603.36,897.68c19.72,1.02,39.01,8.75,60.48,9.29c-2.53,3.3-6.11,2.43-8.7,2.23  c-40.29-3.04-80.58-4.05-119.59-15.03L603.36,897.68z" />
<path class="cls-5" d="M510.97,905.98c-2.11,4.94-4.13,10.05-6.85,14.73c-1.65,2.84-5.28,4.88-7.38,7.3  c8.09-18.6,15.42-37.22,17.73-58.18c0.16-1.46,4.43-1.87,5.08-1.09C518.82,881.57,513.4,893.67,510.97,905.98z" />
<path class="cls-11" d="M485.22,937.62c-1.71-0.81-3.47-1.15-3.74-3.49c11.71-20.82,20.48-41.86,27.87-66.08  C512.12,895.24,489.43,920.19,485.22,937.62z" />
<path class="cls-11" d="M468.8,793.71l3.17,0.4c6.93,6.94,15.34,12.15,25.23,15.65c4.05-1.34,10.38,2.19,12.06,6.11  c-0.02,3.76,0.08,6.82-1.17,10.54c-2.66,6.04-7.11,11.01-13.36,14.92l-2.72-1.19c-0.93-0.58-1.56-1.79-2.5-3.18  c-7.82,12.1-12.6,28.43-24.39,36.24c0.39-4.5-1.64-8.32-2.29-12.7c10.51-5.69,18.79-17.77,24.61-28.35l0.32-1.57  c9.37-4.56,10.39-6.15,3.05-4.76c-1.39-2.45-3.47-3.35-6.25-2.69l-1.77-1.72c-3.71,0.52-13.03-0.51-10.48-5.62l-3.59-0.84  c-3.42,0.54-5.03-0.38-4.83-2.77c-2.96-0.01-5.95-1.29-8.98-3.83c-1.79-2.33-3.86-4.42-6.21-6.25l0.17-2.91L468.8,793.71z" />
<path class="cls-6" d="M489.4,786.16c0.05,20.83,19.95,14.36,19.86,29.71c-4.23-1.48-8.43-3.48-12.06-6.11  c-8.71-2.96-16.02-7.46-21.92-13.5c-2.31-3.27-2.17-5.39,0.43-6.37C480.19,788.43,484.67,786.58,489.4,786.16z" />
<path class="cls-8" d="M508.09,826.41c-1.11,3.29,2.07,8.79,3.89,11.47l-7.07,18.84c-4.31-4.32-9.19-8.75-12.71-13.94l-0.19-2.65  C498.57,836.99,502.15,830.36,508.09,826.41z" />
<path class="cls-20" d="M448.86,799.18c3.06,2.79,7.64,4.59,6.05,9.16c4.57,1.49,0.9,6.94-2.56,3.9c-5.89-5.03-13.44-7.27-21.09-8.55  c1.47-2,6.76-1.37,3.84-2.87c-1.38-0.71-2.22-1.11-2.78-1.88C437.44,799.29,443.94,800.53,448.86,799.18z" />
<path class="cls-14" d="M472.3,815.78c2.63,4.59,8.42,1.44,10.48,5.62c1.4,5.3-8.31,7.51-12.6,5.87c-1.3-0.61-2.81-1.36-3.94-2.24  l-0.29-3.95c-0.09-1.19-1.9-1.16-3.06-0.8c-2.29,0.72-3.91-0.23-5.77-1.12C459.17,814.16,467.49,813.84,472.3,815.78z" />
<path class="cls-20" d="M472.3,815.78c-5.11,0.8-10.4,1.63-15.18,3.4c-2.28-1.1-5.11-1.91-6.03-4.56c2.78-2.38,9.02-4.31,12.8-2.44  C466.62,813.38,470.5,812.63,472.3,815.78z" />
<path class="cls-17" d="M463.89,812.18c-3.71,2.56-8.43,2.2-12.8,2.44c-0.29-0.13-2.2,0.2-2.18-0.7c0.03-1.28,1.21-1.38,1.74-1.46  l1.69-0.23c0.89-0.12,1.8-0.36,2.07-1.07c0.39-1,0.43-1.9,0.49-2.83C458.71,805.53,460.96,810.19,463.89,812.18z" />
<path class="cls-3" d="M475.71,789.88c0.24,10.36,14.9,12.6,21.49,19.87c-11.14-1.82-22.09-6.54-28.4-16.05  c1.14-0.31,1.82-2.39,2.12-3.29C472.27,790.36,474.44,790.29,475.71,789.88z" />
<path class="cls-6" d="M453.53,783.02c-1.91,0.82-3.82,0.59-5.24,2.45c-1.1,1.44-3.4,4.21-1.23,5.5l6.37,3.8  c-4.01,1.82-13.43,0.22-14.42-5.07C439.62,785.38,451.78,778.17,453.53,783.02z" />
<path class="cls-18" d="M487.44,832.14l-4.67,0.05c-1.59-1.72-3.97-0.97-5.9-1.48c-1.44-0.38-2.67-1.9-4.36-1.89  c-0.73,0-1.63-1.22-2.33-1.55c4.38-1.65,9.18-2.63,12.6-5.87c1.12-1.06,3.93-0.39,5.28-0.83c1.74-0.56,3.47,0.07,2.67,3.14  c2.84,0.75,5.04-1.89,9.14-2.24C498.95,827.99,492.48,832.09,487.44,832.14z" />
<g>
</g>
<g>
</g>
<g>
</g>
<g>
</g>
<g>
</g>
<g>
</g>
<g>
</g>
<g>
</g>
<g>
</g>
<g>
</g>
<g>
</g>
<g>
</g>
<g>
</g>
<g>
</g>
<g>
</g>
</svg>