<?xml version='1.0' encoding='UTF-8'?>
<svg xmlns="http://www.w3.org/2000/svg" id="Layer_1" viewBox="0 0 1200 1200" xml:space="preserve" width="1200" height="1800">
<style type="text/css">
      .cls-1 {
        fill: #221842;
      }

      .cls-2 {
        fill: #33356d;
      }

      .cls-3 {
        fill: #404884;
      }

      .cls-4 {
        fill: #30518b;
      }

      .cls-5 {
        fill: #4d5d92;
      }

      .cls-6 {
        fill: #656496;
      }

      .cls-7 {
        fill: #4c79ae;
      }

      .cls-8 {
        fill: #83729a;
      }

      .cls-9 {
        fill: #9d7a90;
      }

      .cls-10 {
        fill: #6d97c2;
      }

      .cls-11 {
        fill: #b97f86;
      }

      .cls-12 {
        fill: #66adca;
      }

      .cls-13 {
        fill: #e28e71;
      }

      .cls-14 {
        fill: #7fb3c0;
      }

      .cls-15 {
        fill: #99b8b4;
      }

      .cls-16 {
        fill: #8cbecb;
      }

      .cls-17 {
        fill: #9dc0c3;
      }

      .cls-18 {
        fill: #9ebcd7;
      }

      .cls-19 {
        fill: #b5bea9;
      }

      .cls-20 {
        fill: #f2b16d;
      }

      .cls-21 {
        fill: #c7c0a0;
      }

      .cls-22 {
        fill: #d9c296;
      }

      .cls-23 {
        fill: #c4c7de;
      }

      .cls-24 {
        fill: #f1ca8b;
      }

      .cls-25 {
        fill: #c7eaec;
      }

      .cls-26 {
        fill: #fcf3ae;
      }

    </style>
<path class="cls-12" d="M0,80.86V0h1200v51.08l-14.98,2.17C1064.67,58.32,944.64,67.4,824.56,76.6c-10.05,0.77-20.13,0.7-30.2,0.48  c-53.3-2.71-106.14-5.21-160.68-0.29c-28.27,3.62-56.4,6.69-84.39,9.19c-67.7-1.07-135.36-1.2-202.98-0.4  c-53.32-1.71-79.99-2.56-79.99-2.56c-79.49,3.71-160.38,3.23-239.24-0.89l-2.65,2.15c-3.4,0.34-20.02,0.25-22.21-0.68  C1.13,83.15,0.52,81.95,0,80.86z" />
<path class="cls-22" d="M1200,328.12v69.5c-0.84,0.6-1.71,1.15-2.63,1.55c-0.92,0.4-1.79,0.76-2.63,0.73  c-6.96-0.3-13.88-0.76-20.78-1.73c-28.2-5.84-56.56-10.14-85.09-12.9l-5-2.36c-0.11,3.12-1.18,2.99-2.13,0.03l-1.72,2.43  c-20.82,5.06-41.25,12.03-61.28,20.92c-16.97,7.12-34.36,11.42-52.15,12.91l-1.98-1.38c-9.86,0.04-18.61-2.23-26.25-6.79  c-0.05-3.41-2.2-5.34-4.93-7.29c-9.54-6.83-19.1-11.98-30.44-15.39c-15.03-4.26-29.92-8.92-44.67-13.96  c-2.17-1.18-2.55-3.3-1.16-6.38c-7.09-2.65-24.86-18.13-26.86-24.81c-0.79-2.63-1.11-4.42,1.7-5.87  c-53.57-42.2-131.36-63.53-195.83-32.84l27.94,2.93c1.2,1.52,0.8,3.13-0.09,4.81l-47.83,4.39c-6.85,1.13-12.64,5.29-17.98,9.54  c-13.57,13.41-28.1,25.52-43.6,36.32c-13.05,4.87-26.69,8.35-40.93,10.44c-11.83,3.07-20.38,10.8-27.61,20.32  c-5.74,3.33-10.18,7.66-13.3,13.01c-23,1.49-45.77,4.85-68.3,10.07c-23.56-1.52-46.94-0.73-70.15,2.37  c-11.79-0.49-23.48-0.2-35.07,0.87c-8.57,5.61-19.08,3.89-28.56,2.17c21.61,17.86,47.6,18.43,73.96,18.52  c5.71,0.47,11.45,1.06,17.07,2.29c6.56,1.43,26.66,6.26,30.79,9.69c1.22,1.01,2.15,2.17,2.67,3.69c-0.38,6.82-10.75,12-16.87,14.62  c-26.44,11.33-52.16-0.86-68.7-22.54c-4.88-4.36-12.45-5.05-18.73-4.54c-17.2,4.17-34.23,5.5-51.09,3.98l-5.91-1.77  c-9.35-6.09-19.08-9.77-29.18-11.04c-10.07,1.47-19.16-0.09-27.28-4.67c-12.85-10.96-24.6-23.29-35.27-36.97  c-40.73-41.16-88.26-36.99-137.73-14.97L0,377.34v-44.53l6.65-1.23c65.44,0.75,129.98,1.59,193.62,2.5  c24.08-1.48,47.83-1.98,71.26-1.51c17.65,4.87,35.62,6.95,54.37,4.06c18.87-4.59,37.43-5.91,55.68-3.95l17.26-4.21  c10.27,0.78,19.03-1.04,26.28-5.45l-69.75-4.13c-1.88-3.04-2.3-4.31,1.89-5.16c31.98-2.46,64.02-4.23,96.09-5.3  c33.62,0.04,60.92-10.85,85.19-33.02c7.48-4.05,15.85-4.95,25.11-2.72c16.46-4.96,32.65-11.69,48.57-20.18  c38.38-16.57,86.58-18.36,127.93-14.02c5.82,0.61,31.4,3.31,32.41,7.11c0.18,0.66-0.84,2.37-1.43,3.3l-10.36,2.3l71.13,2.81  c15.98,12.01,32.64,23.31,49.96,33.9c31.15,23.88,46.73,35.82,46.73,35.82c6.04-1.02,12.5-0.55,19.38,1.44l250.6,0.61L1200,328.12z" />
<path class="cls-19" d="M771.14,172.22l13.05,2.04c23.03,6.88,46.21,13,69.53,18.38c25.23,8.49,50.56,16.62,76,24.38  c1.16,3.4,1.79,3.7,1.82,0.45c13.78,1.75,27.12,4.93,40.01,9.54c2.9-0.82,4.81-0.5,5.71,0.95c0,0,18.68,1.46,56.05,4.39  c0.57,3.03,0.79,3.02,0.68-0.04c9.34,1.64,18.71,2.87,28.12,3.67l136.35-6.15l1.54,2.28v54.29c-9.66,2.01-14.49,3.02-14.49,3.02  c-61.17,1.37-122.35,1.89-183.55,1.57c-6.76-3.05-12.25-2.49-16.5,1.69c-17.44-7.23-35.47-12.75-54.09-16.57  c-10.91-4.26-21.78-7.77-32.62-10.54c-12.23-5.1-11.34-12.12,3.5-11.36c13.15,1.01,26.12,0.38,38.91-1.89l-1.36-0.81  c-34.68-7.35-70.03-9.07-106.05-5.15c-92.44-43.97-192.39-32.86-283.72,7.61c-19.4,0.89-38.81-0.89-58.23-5.33  c-20.9-1.29-41.6-0.88-62.09,1.26l-2.98,4.12l83.71,1.89c2.25,1.11,3.27,1.96,2.34,4.39c-1.48,3.88-13.87,8.82-18.27,9.59  c-24.95,3.09-50.02,7.22-75.19,12.4c-22.79,6.77-45.32,11.74-69.27,10.85c-109.5-0.36-218.56-1.29-327.19-2.79l-17.84,2.11  c-3.08,0.42-4.75-0.59-5.03-3.03v-4.69c3.38-1.37,6.84-2.71,10.49-3.12c67.79-7.73,133.73-16.08,199.77-26.19l-0.79-0.75  c-12.06-0.15-24.14-0.32-36.24-0.5c-11.34,3.2-23.17,3.39-35.47,0.57c-39.89-0.95-80.12-1.27-120.71-0.94  c-6.3,0.66-11.98-0.36-17.05-3.05v-41.02c5.22-1.07,10.5-2.1,15.84-2.13c79.49-0.37,161.72,2.88,241.01,8.79  c44.81,3.34,89.57,7.75,133.97,14.65c10.16-3.25,20.8-5.27,31.92-6.05c11.8-5.36,23.73-7.61,36.61-7.94  c21.15-10.29,41.87-17.32,65.86-21.07l25.73-9.77c13.59-2.42,26.79-5.99,39.59-10.69c0.25,1.84,0.23,1.46-0.04-1.14l0.78-2.35  c59.46-0.72,118.92-1.44,178.4-2.16L771.14,172.22z" />
<path class="cls-25" d="M642.31,705.44c18.17,0.42,36.27,2.96,54.32,7.62l33.56,7.19l6.28,3.33c26.7,6.33,53.35,12.97,79.65,20.83  c8.76,2.62,17.55,5.29,26.17,8.35c2.16,0.77,4.2,1.89,6.2,3.12c8.15-1.5,21.52,6.76,27.51,12.32c4.17,3.87,11.22,12.73,3.85,15.33  c0.33,0.5,0.59,1,0.6,1.5c0.04,3.18-10.2,7.16-13.08,8.27c-14.85,5.72-34.01,10.05-49.8,12.1c-3.54,1.25-6.08,0.8-7.63-1.36  l-2.08,1.75c-50.64,5.96-101.56,11.21-152.77,15.75l-13.15-1.04l-4.55,2.28c-13.69,0.9-27.28,1.97-40.79,3.19l-2.44-1.27  c0,0.92-0.11,2.3-0.74,2.45c-3.82,0.93-14.76,2.24-18.73,2.27l-1.92-2.13c-8.97,4.74-21.68,5.9-31.61,3.63  c0.02,0.91-0.04,2.25-0.69,2.47c-2.17,0.71-19.79,3.29-21.97,3.17l-1.98-2.08c0.21,0.97,0.09,2.33-0.66,2.46  c-30.48,4.46-61.6,9.18-91.68,17.23c-8.67,2.32-38.26,10.35-41.21,19.25c-0.81,2.43,1.2,4.56,2.93,6.01l-0.25,2.77  c3.88-0.11,7.73,1.31,11.56,4.26c17.81,6.9,35.53,14.06,53.14,21.46l2.03,3.84c3.8-0.97,8.13,2.28,9.38,5.79  c3.64,0.17,7.02,0.94,4.58,4.78c4.21,0.34,4.82,11.27,1.4,12.95c0.38,1.31,0.66,2.91,0.25,4.2c-3.22,9.93-48.75,25.38-59.84,27.4  c-1.11,0.2-1.89-0.12-2.48-1.24c-1,1.47-2.85,2.69-5.56,3.66c-21.5,4.1-42.36,10.23-62.59,18.4c-9.44,4.29-10.75,7.79-3.94,10.49  l0.5,2.77c3.28-0.64,4.71,0.02,4.3,1.98l2.3-0.58c27.85,7.56,41.78,11.34,41.78,11.34l3.01,3.31c0.45-0.33,0.9-0.58,1.32-0.53  c9.14,0.97,30.34,14.51,34.01,23.5c1.81,4.42,2.51,14.05-3.63,13.61c0.76,3.26-0.95,6.27-5.13,9.03  c-20.25,16.78-45.78,25.74-70.48,33.64l-2.91-1.58c-11.78,6.12-24.49,10.42-38.13,12.89c-99.88,23.17-199.39,45.66-298.55,67.46  L0,1173.05v-45.7l1.25-2.49c2.61,0.99,76.53-6.06,70.97-10.56l-42.77-12.61c-19.64-12.78,13.46-16.54,23.94-16.36  c27.72,1.29,54.98,6.59,81.8,15.9c27.7,4.12,59.41-1.19,84.67-13.08c12.76-6,11.59-7.81-1.25-9.73c-19.7-0.98-39.09-3.28-58.15-6.9  c-2.01-3.98,0.33-6.72,7.02-8.23l16.91-4.87c15.7-6.24-4.43-10.37-12.37-10.91c-17.96,0.5-35.9,1.37-53.83,2.62  c-9.51-1.8-18.92-4.34-28.22-7.62c-16.29-2.84-32.61-1.56-48.96,3.84c-6.35,1.48-30.03,3.34-34.31,0.3  c-2.28-1.62-1.74-2.91-0.33-5.18l25.84-8.48l-30.85-5L0,1025.39v-11.72l3.86-1.99c18.89,2.62,37.43,6.69,55.63,12.21  c15.69,3.15,31.58,3.72,47.69,1.71c1.23,2.82,2.63,4.65,4.22,5.47c28.74,2.16,57.32,5.73,85.73,10.72  c20.18,5.53,20.63,15.01,1.03,23.24l3.56,1.56l69.44,0.11c19.29-1.68,59.84-8.29,54.47-34.5l1.56-2.29l-3.34-1.76  c-7.91-10.61-20.56-15.28-33.37-16.71l-1.95-2.53l-4.82,1.98l-70.11-5.47c-4.22-0.63-10.66-2.6-7.59-7.22l-0.68-2.46l8.5-7.07  c-12.78-6.48-25.78-12.64-39.01-18.48c-5.66-3.11-13.91-8.99-13.52-16.17c0.33-6.01,6.7-13.38,12.51-14.81  c55.97-13.74,111.17-12.24,167.65-7.87c11.24,0.61,63.94-0.73,67.62-11.99c2.14-6.53-7.3-10.28-12.19-12.06  c-20.67-5.4-41.39-10.52-62.15-15.36c-11.6-3.5-10.41-9.19,3.57-17.06l-53.76-11.14l-0.88-2.58c-3.71,0.04-6-1.1-6.89-3.43  c-6.78-3.15,2.46-7.18,7.5-6.14c35.13,1.27,77.41,2.65,110.08-12.21c1.02-0.46-7.69-3.89-9.2-2.75c-27.43,4.3-55.69,8.27-83.58,4.01  c-5.36-2.26-2.39-4.8,1.5-6.35c1.99-0.79,11.61-1.62,12.22,1.19c0.49-3.1,2.47-3.21,3.48-0.16c0.71-3.45,1.73-3.47,3.32-0.28  c0.47-3.04,3.81-3.69,4.89-0.51c0.48-0.65,0.99-1.22,1.63-1.47c1.03-0.41,18.89-1.08,22.04-1.11c1.19-0.01,2.28,0.4,3.29,1.01  l1.92-2.48c5.38,0.29,9.4-1.2,12.07-4.47c-3.42-5.06-2.07-9.57,3.92-11.85c17.08-6.51,48.92-5.23,67.62-3.5  c22.12,3.95,44.3,6.8,66.54,8.53l3,2.27c4.92-3.75,15.24-5.13,20.77-2.3l0.46-2.43c15.63-2.18,31.27-4.36,46.91-6.55l1.7,2.13  l2.14-2.53c2.9-0.92,14.19-2.15,15.38,1.05l3.76-2.66c16.33-0.52,31.49-3.01,45.48-7.47c-14.03-2.59-28.22-3.51-42.56-2.74  l-3.2-2.35c-3.44,3.43-12.11,4.52-16.01,1.52l-2.04,2.66c-6.21,1.89-33.06,5.18-37.64,1.89c-4.45-3.2-3.82-3.74,0.5-6.54  c6.74-4.37,30.43-7.24,39.22-7.43l3.32,2.1c2.49-3.95,12.56-3.99,14.96,0.06c1.27-1.09,2.87-1.69,4.51-1.93  c5.21-0.76,15.83-1.26,19.1,2.46l11.1-1.25c45.19,5.23,89.21,9.44,135.02,0.82c11.88-2.24,25.91-5.22,34.65-13.79  c-15.67-0.54-31.46-0.45-47.39,0.25c-13.35-0.93-22.65-5.83-3.38-11.35c12.46-1.25,24.9-2.62,37.31-4.09  c-10.39-5.25-21.87-7.8-34.43-7.64l-51.22-0.96c-13.01,0.26-25.58-1.43-37.72-5.06c-11.71-5.49-7.34-8.22,4.37-10.08  c16.54-2.63,36.18-1.44,52.74,0.59c0.37-2.73,4.89-0.89,6.64,0.31c1.05-0.38,1.05-0.79-0.02-1.22c-2.56,0.18-4.98-0.35-7.41-1.09  c-41.52-12.73-82.73-21.93-125.77-28.1c0,0-2.29-1.18-6.86-3.55c-3.21-0.8-3.54-6.14-0.14-6.92l1.17-2.18  c15.64,2.62,31.28,5.23,46.93,7.85L642.31,705.44z" />
<path class="cls-2" d="M1200,1014.07V1200H648.91c0.29-0.85,0.62-1.68,1.09-2.42c3.57-5.66,36.24-16.61,44.85-16.41  c4.37-4.25,9.97-6.97,16.81-8.15c27.74-7.04,55.15-15.08,82.25-24.11l6.5-0.11l31.37-10.23l3.65,1.5c1.26-3.76,4.73-4.35,7.15-1.28  l1.28-0.94l0.18-2.47l120.23-32.23c12.95-3.87,25.43-9.09,37.47-15.19l5.85-0.38l0.12-1.83c11.61-5.88,20.57-13.92,26.85-24.14  l2.64-8.09l-2.48-1.14c-1.04-5.73-4.38-10.79-8.53-14.83l0.43-2.76l2.2-1.31l14.2,10.36c2.96,1.35,21.52,5.09,24.97,4.65  c4.99-0.64,6.74-1.61,7.17-7.14c4.93-10.05,16.72-18.18,27.4-21.09l95.8-8.41L1200,1014.07z" />
<path class="cls-17" d="M396.19,116c-0.09-4.38,11.14-3.39,11.76,0.23c2.29,1.73,3.52,1.7,6.73,0.05c-0.08-3.43,3.83-3.38,4.68-0.11  c0.78,1.03,1.71,1.09,2.78,0.18c0-0.92,0.29-2.33,0.86-2.33c88.71,0.74,178.47,1.9,269.46,4.57c82.22,2.41,162.68,6.52,243.37,24.55  c1.69,0.38,3.31,1.11,4.95,1.87c1.66,0.77,3.24,1.7,4.8,2.67c31.95,4.84,63.75,10.51,95.18,18.08c5.62,0.86,6.88,2.27,4.67,6.05  l-260.97,2.61l-13.32-2.21l-180.64,2.19c0.3,2.13-1.33,2.3-3.15,2.38c-105.96,1.78-213.62,2.27-322.98,1.45  c-89.06-3.64-176.76-8.72-263.09-15.26L0,160.55v-41.02c1.08-2.38,2.52-2.2,3.84-0.1c8.62-3.78,17.89-5.64,27.81-5.58  c31.58-0.62,63.01,0.09,94.29,2.13c19.15-1.29,37.85,0.15,56.09,4.32c2.34-3.19,5.52-4.95,9.5-5.12  c35.87-0.93,71.63-1.94,107.27-3.03c14.95,2.99,29.96,3.78,45.01,2.39C361.28,116.08,378.74,116.56,396.19,116z" />
<path class="cls-21" d="M1200,286.41v41.72l-151.57-0.69l-100.5,0.07c-5.95,0-12.82-4.06-19.99-1.72c-19.8-15-39.24-30.87-60.8-45.21  c-11.73-7.8-26.5-14.28-36.22-24.56l-90.4-3.18l31.45-6.5c-36.05-9.03-71.69-7.53-107.53-5.1c-47.13,3.19-84.93,34.36-101.47,33.8  c-7.7-0.26-15.62-3.83-24.49,3.35c-14.27,11.56-30.98,24.62-51.64,28.35c-42.82,7.72-87.74,4.06-132.74,9.75l75.41,4.27  c-6.98,13.5-22.25,7.28-33.6,10.81c-29.46,9.16-13.5-2.54-49.89,4.31c-58.66,11.04-64.44-2.31-84.25-1.74  c-23.66,0.68-45.75,2.61-68.72,2.26l-69.55-1.07c-40.49-0.62-81.79-0.26-123.5-2.51v-43.36c7.85,2.2,15.86-1.57,23.67-1.42  l101.98,1.89l72.16-0.38l127.93,1.06c26.65,0.22,53.03,1.57,77.95-6.61c19.32-6.34,39.33-7.1,60.1-12.39  c15.42-3.93,34.28,0.34,48.04-13.3l-92.59-2.09c4.41-1.67,6.74-4.87,9.24-8.5l40.3-2.57c26.92-1.72,54.01,10.06,80.67,6.59  c99.44-40.35,179.81-53.14,284.76-7.62c44.55-2.03,72.4-5,115.32,7.66c-19.47,8.91-37.85,2.74-57.67,5.59  c4.03,7.63,13.65,6.47,19.89,9.19c29.98,13.11,52.31,11.76,73.58,24.19c5.87-8.3,11.19-2.03,16.66-2.1  C1068.44,287.81,1134.38,289.83,1200,286.41z" />
<path class="cls-14" d="M794.36,77.09l-12.63,2.8c-49.85,5.92-99.76,11.23-149.72,15.94c167.9-0.14,336.28-0.22,512.45,9.74  c18.62,0.79,37.25,1.74,55.54,5.53v43.2c-1.22,3.33-3.9,5.68-8.03,7.06c-50.8,0.39-101.69,0.05-152.66-1.02  c-31.44-2.46-62.68-6.68-93.72-12.65c-121.89-27.38-219.09-26.1-343.24-28.23l-180.2-3.1c-0.36,1.48-2.26,1.42-2.78-0.18l-4.68,0.11  c-2.24,1.37-5.33,2.53-6.73-0.05c-3.8,0.08-8-1.26-11.76-0.23c-16.82,0.61-33.64,0.15-50.46-1.39  c-107.97-9.23-213.78-19.23-317.44-30l-1.2-2.48c25.93-4.04,54,1.2,82.37,1.13c48.77-0.11,97.64-0.02,147.03-2.42  c15.56-0.76,68.74,1.25,86.64,2.28c9.19,0.53,17.66-0.85,26.78-0.78l160.34,1.12c13.26,0.09,24.81,0.74,37.9-1.12  c62.13-8.84,124.5-14.97,186.8-9.06C768.91,74.62,782.44,73.01,794.36,77.09z" />
<path class="cls-23" d="M395.2,455.92c0.3-6.78,10.66-11.76,16.74-14.23c18.47-7.51,36.81-3.48,52.85,7.46  c13.21,13.01,28.18,21.31,44.93,24.89l36.03,3.7l2.54,2.77l11.82-0.34l1.18,2.44c-0.03,2.4-1.57,4.81-4.62,7.24l-2.06,4.13  c0.01,2.67-0.86,4.35-2.62,5.06c0.1,0.9,0.04,2.32-0.52,2.42c-17.21,2.96-37.28,4.9-54.53,3.87l-1.12,1.69  c-35.51,1.28-70.94-1.04-106.27-6.96l-1.53-2.33l-11.65-1.41c-33.99-6.96-68.64-9.12-103.97-6.46c-3.54-0.23-6.79-0.99-9.77-2.28  l-0.82,2.34c-86.77-0.02-173.56-0.04-260.36-0.07L0,487.5V377.34c43.84-18.53,85.24-29.77,128.72,0.72  c14.61,10.24,25.06,25.1,37.14,38.49c26.66,29.56,32.16,5.2,61.06,23.09c32.81,20.31,68.99-14.08,88.31,10.79  C336.82,478.24,373.14,479.19,395.2,455.92z" />
<path class="cls-3" d="M1200,854.69v159.38l-93.79,7.93c-11.97,1.01-32.88,17.23-28.85,24.93c-10.6,8.8-22.61,0.54-35.16-0.95  l-15.55-11.19l-3.65,0.08c-7.29-4.41-14.36-9.12-21.19-14.12l-6.28-0.35c-19.14-7.57-38.46-14.49-57.96-20.79l-2.36-2.35  c-21.34-5.07-32.01-7.6-32.01-7.6c-4.01-0.52-6.65-2.04-7.91-4.54l1.28-2.42c0,0,3.02-0.55,9.06-1.65  c-14.08-3.5-28.62-5.05-43.61-4.67l-2.92-2.56c-8.18-1.58-14.84-4.87-12.34-14.77c2.93-11.59,43.1-24.3,54.69-26.96l2.08,1.78  l16.83-2.69c51.17-2.81,102.15-7.64,152.95-14.49l5.86,0.77l3.87-2.89c14.59-1.8,29.19-3.78,43.32-7.98  c1.39-0.41,2.46-1.27,3.22-2.45l2.3-2.55c11-0.91,22.26-1.91,32.35-6.72c-21-6.96-43.2-8.36-65.13-9.62l-4.46-2.62l-0.4-0.93  c-11.99-2.3-30.1-9.95-8.91-17.3l113.01-11.87L1200,854.69z" />
<path class="cls-18" d="M53.9,607.06c1.25-0.76,2.73-1.43,4.2-1.47c3.61-0.1,16.05,4.07,15.79,8.55l0.12,1.56  c-7.56,1.97-15.55,3.32-23.95,4.08c10.11-0.45,20.21-1.36,30.28-2.72l4.01,1.91c3.53,1.32,8.08,3.1,11.48,4.87  c2.26,1.18,4.86,2.61,3.81,5.37c3.42-1.58,11.3,2.59,12.62,6.01l3.44-0.29c12.36,8.13,26.24,12.54,41.62,13.24  c9.79,3.51,11.23,7.58,7.97,17.31c8.13,8.13,23.63,11.6,7.5-4.13c-10.17-24.37,9.36-28.27,28.6-21.06  c15.07,5.65,26.41,13.96,34.15,28.18c12.4,2.81,25.05,5.05,37.94,6.71c17.69,0.17,35.29,1.53,52.8,4.08l4.03,2.92  c12.67,2.38,23.94,7.35,33.8,14.92l0.4,3.48c6.8,2.92,11.99,8.35,15.57,16.29l-0.52,3.76c1.63-0.66,2.77,0.51,3.42,3.5  c11.43-1.86,22.32-1.02,32.68,2.53c1.5-11.91,14.82-9.35,18.25,0l2.8,2.24c14.8,5.65,29.85,10.92,45.14,15.79  c7.2,0.84,13.44,3.02,18.7,6.53l1.54,2.15c-2.88,4.59-5.28,9.35-7.21,14.28c8.65,6.61-4.43,17.46-11.13,12  c-5.05,2.98-11.13,4.12-18.25,3.4c-5.82,1.01-10.6,0.12-14.33-2.67c-18.4,0.74-36.78,0-55.16-2.22l-1.18-2.45l-3.71,2.08  c-13.57,0.46-29.8,0.06-43.46-0.5c-7.72-0.32-36.16-1.84-39.87-7.78c-0.39-0.62-0.62-1.35-0.81-2.1l-1.99,1.64  c-23.41-11.85-47.21-22.93-71.39-33.23c-4.79-0.55-8.83-2.04-12.12-4.47l-3.77-1.3c-31.8-38.94-89.12-31.4-132.05-16.81l-4.83-0.91  c-2.45,0.16-4.77-1.1-6.94-3.78l-12-8.33l0.13-2.98l-5.11-1.25c-15.03-11.66-34.96-15.03-53.23-10.25L0,684.38v-73.83l3.16-2.97  c9.82-2.89,38.04-6.11,47.41-3.41C52.01,604.58,53.01,605.88,53.9,607.06z" />
<path class="cls-5" d="M336.54,1114.21c9.94,2.21,20.03,4.15,30.24,5.83c16.47,1.52,32.96,2.65,49.49,3.39l2.33,1.87l13.79-1.08  l68.43,1.86c34.3-0.92,68.58-1.26,102.84-1.04c4.14,3.75-2.29,9.07-6.92,10.22c-54.61,1.09-109.35,4.61-164.24,10.58  c12.95,1.11,25.21,4.54,36.77,10.29c17.05,3.13,34.56,4.43,52.55,3.91c4.89-0.2,8.23,1.25,10.04,4.34l-2.57,1.64  c-21.79,0.81-43.67,1.71-65.64,2.7l52.8,1.63c31.37-0.92,62.73-1.19,94.08-0.82l1.18-2.18c25.08,5.34,50.43,8.58,76.05,9.73  c4.11-0.09,6.47,1.28,7.08,4.09c-15.51,5.82-31.97,10.68-45.94,18.82h-3.21h-1.17H227.34l0.99-2.38l76.18-3.06l-15.34-1.57  c-48.27-0.51-97.69-4.35-146.19-10.46c-7.25-0.91-27.67-5.86-31.96-11.06c-2.25-2.74-1-3.63,1.97-5.37  c68.2-15.92,136.42-31.98,204.64-48.21l16.19-5.14L336.54,1114.21z" />
<path class="cls-7" d="M205.99,998.2c-3.78,0.83-7.63,1.59-11.51,1.38c-57.67-3.1-116.56-13.13-173.01-25  c-7.55-1.54-15.05-3.34-21.47-7.79v-86.72l4.33-0.37c13.23,2.69,26.44,5.66,39.63,8.89l11.4,4.95c1.47-3.43,11.26-1.05,11.45,2.59  l21.51,5.65c30.77,4.44,61.53,6.48,92.26,6.12c-1.24,0.16-2.04-0.48-2.48-1.75l2.52-3c19.49-5.05,36.63-17.8,46.54-35.42l3.54-1.68  l4.47-2.14c14.74,0.08,29.37-1.23,43.88-3.93l4.58,1.15l60.81,12.6l-16.37,11.35c6.72,11.68,89.22,13.44,83.48,34.18  c-4.48,16.2-70.54,15.17-87.04,13.65c-49.7-4.58-100-3.59-148.04,7.89c-6.05,1.45-11.79,7.17-12.66,11.34  c-3.62,17.16,42.41,25.36,53.85,36.67L205.99,998.2z" />
<path class="cls-15" d="M590.49,174.41c13.08,3.64-35.53,13.32-36.41,13.48c-6.14,1.14-14.55,5.48-21.8,8.21  c-11.96,4.51-22.62,5.59-34.38,8.04c-12.77,2.66-35,15.37-39.65,15.54c-9.99,0.37-19.85,0.94-29.5,5.68  c-10.49,5.15-25.6,2.05-37.78,7.97c-126.48-19-262.13-21.88-390.96-23.57v-49.22l160.68,10.79c88.15,5.92,175.83,5.99,264.17,4.97  L590.49,174.41z" />
<path class="cls-8" d="M1200,619.92v65.53l-0.93,2.41l-71.8,4.6l71.59,7.95l1.15,2.49v78.04c-3.61,1.21-7.29,2.37-11.1,2.64  c-22.21,1.55-44.58,2.97-66.81,4.2c-1.86,0.1-3.73-0.1-5.62-0.35c-1.91-0.25-3.8-0.66-5.68-1.13l-0.51-3  c26.03-28.91-9.63-48.5-32.95-60.66l-0.37-2.98l2.28-2.24c6.68,0.69,13.3,0.59,19.87-0.32c-10.81-0.02-21.6-0.08-32.38-0.16  l-0.82-1.66c-1.64,0.1-3.28,0.16-4.91,0.05c-1.6-0.11-3.18-0.26-4.68-0.69c-23.88-6.87-47.64-13.7-71.59-20.32  c-3.1-0.86-5.87-2.56-8.55-4.29c-1.39,1.26-2.08,1.88-2.08,1.88c-2.42-0.13-7.73-3.65-9.85-5.24c-2.88-2.15-9.78-7.49-6.6-10.64  c-1.21-2.64,0.19-4.31,4.21-5.01l3.28-1.5c15.17-0.52,30.39-1.17,45.65-1.95l-13.16-1.55c-5.97,0.46-11.17-0.45-15.6-2.72  l-0.11-2.65c28.02-7.93,56.45-15,85.3-21.2c20.19-5.12,40.45-10.35,59.86-17.83c6.66-2.57,26.19-10.46,27.15-18.34  c0.73-5.96-11.67-11.28-16.2-13.05c-5.69-1.18-10.08-3.46-13.17-6.85c-3.93-1.43-4.14-7.18,0.5-6.1c0.63-0.32,1.27-0.56,1.91-0.57  c18.17-0.15,18.02,0.63,1.06,0.12c-0.93-0.03-1.63-0.12-2.13-1.09c-3.17,4.5-9.86-1.26-10.79-5.35c-1.61-7.02,5.04-10.55,11.06-7.89  c7.11-2.06,14.37-0.39,21.79,5.01c14.62,4.43,31.9,10.51,40.13,24.16c6.06-0.05,9.59,2.56,6.83,8.73c3.29,3.48,4.45,8.47,3.45,14.98  L1200,619.92z" />
<path class="cls-15" d="M1200,154.29v77.82l-133.42,6.17c-11.81,0.55-21.52-2.33-32.69-3.63c5.88,0.68-71.58-4.11-56.58-5.9  l-8.49,1.01c11.85-1.41-40.54-10.69-37.65-9.95c-31.8-8.15-71.66-24.98-99.24-30.32c-21.01-4.07-41.5-10.52-60.79-17.29l275.1-2.76  c-34.06-8.14-67.46-14.33-100.65-21.78c22.09,1.5,73.08,10.06,94.84,10.32l147.51,1.77C1192.93,159.83,1196.23,155.14,1200,154.29z" />
<path class="cls-16" d="M1200,51.08v60.01c-111.3-6.7-222.75-11.57-335.1-12.18l-261.78-1.43c63.68-7.89,127.34-14.2,191.24-20.4  C929.27,64.01,1064.57,56.44,1200,51.08z" />
<path class="cls-4" d="M162.85,757.12l2.4,2.64c2.47,33.48,39.53,45.32,67.61,50.43c2,1.39,1.45,3.1,0.25,5.08  c-12.56,6.25-24.56,12.09-39.15,10.86c2.38-0.41,7.41,3.62,5.83,4.87c-3.04,2.4-17.47,1.05-22.38,0.57  c-15.52-1.51-30.71-5.44-45.06-11.3c-7.03-2.07-10.1-0.19-10.25,7.17c7.25,2.17,14.31,4.74,21.18,7.73l-0.31,2.68l-2.17,2.8  c-12.18,0.82-24.31-0.59-36.39-4.21l29.93,6.8l2.87,3.08c-2.04,2.74-4.11,5.51-6.21,8.32c-1.47-0.23-2.56,0.52-3.27,2.25  l-45.67-3.49c11.24,9.21,24.74,14.15,40.51,14.83l1.75,2.64c2.39-4.79,11.33,0.15,9.83,5.06c-0.84,2.76-33.32,5.04-38.93,3.76  c-4.05-7.01-5.83-5.83-11.37-0.62c-18.72,2.21-37.17-2.95-54.86-8.52c7.43,7.9,16.17,14.54,26.22,19.93l0.15,3.07  c-18.52-4.18-37.14-8.09-55.36-13.47V762.89l0.79-2.72c22.53-10.9,64.63-30.91,84.01-7.2l4.59-0.64c-4.82-9.07-0.86-9.88,8.01-9.8  c20.4,0.19,27.71,10.83,31.78,28.69c1.62,3.31,4.12,2.42,7.09,0.67c6.86-4.06,10.28-12.48,9.99-20.21  C149.85,746.01,161.48,751.73,162.85,757.12z" />
<path class="cls-23" d="M1200,480.12v41.38c-4.33,2.95-9.79,3.89-16.38,2.83c-23.38-1.91-46.85-1.76-69.69,1.74  c-14.06-2.78-28.32-4.26-42.8-4.43c-10.29,1.3-20.13,1.02-29.53-0.82c-5.18-0.69-17.11-2.55-11.96-9.09  c-2.46-1.99-56.52-4.15-62.82,1.41l-1.34,2.29c-6.57-2.23-13.17-3.04-19.78-2.4l-5.12,1.77c-31.6,2.09-63.16,2.15-94.67,0.17  c-10.5,1.58-21.03,3.61-31.59,6.08c-15.81,1.92-40.93,3.33-56.03-1.19c-1.58-0.47-2.7-1.84-3.7-3.09c0.71-2.71-1.77-3.53-7.44-2.45  l-3.13-2.01c-1.91-2.51-0.01-4.34,5.69-5.49c1.16-1.98,2.76-3.71,4.8-5.19l2.6-2.38c6.29,1.27,46.53-1.54,47.24-6.18  c0.47-3.08-55.88,0.11-62.1,1.1c-1.02,0.16-4.52,2.93-5.5,3.91l-3.53,1.21c-7.76-2.61-15.94-2.97-24.06-2.63  c-13.7,0.58-30.49,3.41-43.39,6.77l-2.43-0.98c-2.11,0.23-3.93,0.86-5.47,1.88l-65.23-5.76c-1.37,2.19-2.67,2.83-4.48,0.53  c-5.38,0.23-3.76-6.58,0.5-8.67c-2.22-1.7-3.15-3.56-2.78-5.6c-4.14-1.84-4.06-3.36-0.01-5.4l114.49-0.29l1.44,2.34l4.4-1.56  c30.67-0.56,61.37-0.79,92.08-0.7l4.46,1.27c12.03-1.14,24.05-2.11,36.14-2.48c106.8-3.24,213.94-3.66,320.75-1.76l18.13,2.93  c0.15-0.9,0.47-2.24,1.13-2.3c1.76-0.16,18.7,0.41,19.57,0.85C1199.31,478.13,1199.69,479.18,1200,480.12z" />
<path class="cls-4" d="M205.99,998.2c1.4,4.38,6.92,4.91,11.76,5.28l70.77,5.42l0.62,2.61l-8.55,7.88  c14.01,4.29,28.51,6.95,43.53,7.98l3.06,2.53c3.29,6.95,2.53,14.1-4.51,20.88c-15.09,14.53-36.53,18.42-57.81,18.35l-63.33-0.22  c-1.85-0.01-3.89-1.17-5.41-2.18c-6.01-3.99,13.96-6.78,14.15-13.92c0.41-15.35-96.1-16.2-102.48-20.39  c-1.09-0.71-0.18-3.57-1.31-4.97c-48.88,6.85-59.07-9.75-106.48-13.79V966.8C67.78,984.87,136.17,992.4,205.99,998.2z" />
<path class="cls-6" d="M1200,798.15v56.55l-113.03,11.75c-2.51,0.26-4.64,1.95-6.52,2.64c-13,4.76,21.62,11.01,14.18,13.52  l-4.57,2.15c-25.71,1.61-51.3,4.86-76.76,9.74c-7.81,1.82-14.68,1.35-20.61-1.4c-0.73-2.31-0.97-5.11-0.7-8.38  c-8.16-10.61-19.44-18.07-33.83-22.39l-0.93-2.88c-8.59-4.64-11.1-8.77-3.61-16.23c5.36-5.33,19.37-9.49,26.79-11.67  c31.88-7.49,63.66-16.29,95.35-26.39l1.38-2.61l14-4.61l4.78-1.41c33.07,0.3,66.16,0.42,99.25,0.36L1200,798.15z" />
<path class="cls-4" d="M0,1127.34v-101.95l42.73,6.58L5.78,1044.1c44.14,8.43,52.77-17.7,101.1,1.24  c21.12,8.27,51.26-6.83,80.05,2.82c3.02,1.01,5.71,3.32,5.8,6.04c0.26,8.05-26.33,9.14-31.93,14.96  c10.97,5.95,69.92,3.55,70.74,11.93c0.95,9.68-64.27,32.2-102.91,20.95c-32.52-9.47-64.02-19.7-97.4-11.37  c-2.38,0.59-5.83,1.83-5.71,4.38c0.1,2.09,2.35,3.71,4.67,4.4l44.71,13.18C79.99,1124.42,6.68,1126.31,0,1127.34z" />
<path class="cls-3" d="M338.6,1094.67c2.55,0.11,2.56,1.41,2.46,3.66l8,1.19c5.09-1.46,13.47,0.87,8.59,6.3  c-0.47,2.86-3.31,4.83-8.52,5.91c-4.53,2.66-8.73,3.49-12.59,2.48c-35.44,14.08-177.19,40.59-225.43,54.86  c10.23,6.4,21.26,9.57,32.21,11.13c35.09,4.99,68.94,6.09,104.66,9.44c23.77,2.23,48.32-2.29,72.53,6.74l-93.17,3.62H0v-26.95  l249.12-55.69C279.69,1110.53,309.27,1103.33,338.6,1094.67z" />
<path class="cls-7" d="M206.26,524.92l-1.17,2.98c-6.29,0.04-9.98,2.45-11.08,7.23c0.86,5.46-0.14,8.52-3.01,9.18  c17.27,2.63,34.59,4.75,51.96,6.35c3.18,1.29,9.36,8.59,5.88,11c-6.26,4.33-51.39-2.53-61.22-4.92c-1.41,2.76-6.15,2.11-6.12-1.31  c-1.79-0.23-2.59,0.87-2.4,3.32l-4.99,2.12l19.42,1.96c6.1,0.4,11.55,1.82,16.34,4.24l-0.53,2.53l-62.8,14.53  c-6.94,3.29-14.8,3.51-23.6,0.65l-1.06-2.47c-16.6-2.93-33.22-5.92-49.86-8.96c-15-1.81-40.93-3.62-55.14,0.09  c-2.65,0.69,49.27,10.67,53.77,8.19c7.04-0.78,13.5-0.06,19.38,2.15c1.77,1.71,3.32,4.13,4.64,7.27l11.29,7.76  c1.38,2.59,1.77,3.74-0.82,5.36c-5.87,3.66-24.28,4.26-31.57,1.22c-6.7-1.42-13.26-0.86-19.69,1.67  c-18.24-3.31-35.94,0.15-53.9,3.48v-71.48l5.77-2.36c18.24-1.2,36.4-2.7,54.47-4.52l3.04,1.2l90.47-13.33  c9.98-1.3,20.21-2.58,30.5-1.91c5.29,0.34,14.8,1.29,19.33,3.46C204.88,522.21,205.61,523.64,206.26,524.92z" />
<path class="cls-10" d="M262.63,487.57l2.4,1.11c6.83-0.45,9.86,3.53,9.1,11.95c34.51,1.37,69.03-0.04,103.53-4.25l10.35,1.35  c8.93-0.7,72.78,11.72,108.93,7.59c3.82,0.73,7.75,0.88,11.79,0.43c2.84,2.29,2.43,3.91-1.13,5.13  c-34.72,1.61-69.43,1.66-104.13,0.16l-33.05,0.9l-5.75-1.99c-7.55,2.89-15.6,4.04-24.14,3.47c-26.98,0.05-53.55-0.03-79.71-0.22  c-0.45,3.18-1.84,4.33-4.16,3.47l-4.31,0.9c-14.46-5.22-29.84-7.89-45.21-6.46c-47.53,7.98-96.17,15.5-143.85,22.28  c-20.88,2.53-41.97,5.93-63.28,5.68V487.5L262.63,487.57z" />
<path class="cls-25" d="M221.48,731.38c7.23,2.64,8.57,14.98,8.8,22.16c0.56,17.52-15.38,25.38-23.29,8.5  c-2.37,8.37-6.57,14.44-12.61,18.18c-9.68-7.3-19.69-14-30.05-20.08l-1.48-3.02c-4.47-1.43-7.86-6.03-14.57-5.7  c1.98,10.89-8.5,26.78-19.85,23.97c-3.9-7.68-4.88-20.45-11.82-24.78c-8.53-5.32-18.67-6.84-27.84-5.01c1.8,3.42,3.99,6.98,2.5,8.46  c-1.21,1.19-7.16,1.96-8.21,0.56C64.42,729.6,21.94,755.28,0,762.89v-17.58c1.01-1.2,2.05-2.35,3.2-3.38  c1.15-1.02,2.28-2.02,3.58-2.65c22.33-10.76,45.49-20.71,69.4-27.04l4.64,0.12c27.41-8.93,56.37-16.47,85.62-12.04  C188.96,703.72,209.29,712.93,221.48,731.38z" />
<path class="cls-3" d="M1200,423.51v56.61l-22.25-0.97c-22.02-3.78-43.77-9.15-65.24-16.11c-18.6-5.76-34.81-3.59-49.8,8.04  c-6.25,3.84-13.83,4.92-21.13,4.46c-20.83-1.3-40.47-6.57-60.75-12.25c-1.07-0.3-2.05-0.92-3.04-1.58  c-1.02-0.67-1.95-1.48-2.85-2.32c-0.19-2.36,1.55-3.88,5.24-4.55c1.04-6.58,6.75-14.45,13.55-15.28c1.29-0.43,2.58-0.81,3.9-1.02  c1.29-0.21,2.56-0.38,3.8-0.25c11.03,1.15,22.28,2.56,33.26,4.12c1.23,0.17,2.43,0.61,3.63,1.11c1.24,0.51,2.41,1.16,3.57,1.85  l3.79-2.09c28.69,4.13,50.93-2.1,73.79-18.66l3.17,0.94c0.07-1.11,0.26-2.33,1.09-3.14c4.48-4.37,26.63-3.88,33.35-3.38  c13.36,1.51,26.74,2.29,40.14,2.33L1200,423.51z" />
<path class="cls-16" d="M27.08,82.14l167.47,16.71c67.78,6.76,134.52,12.71,201.64,17.15c-19.05,5.2-39.28-1.12-60.37,1.47  c-16.36,2.01-32.76-4.33-49.19-3.32c-31.04,1.91-60.99,3.22-91.68,3.28c-5.11,0.01-8.95,0.18-11.73,5.69  c-18.36-6.45-37.95-4.41-56.67-4.78c-22.08-0.44-112.78-7.76-122.11,4.14c-1.86,2.38-1.99-3.45-4.43-2.94V80.86  C8.85,82.64,18.33,81.27,27.08,82.14z" />
<path class="cls-9" d="M1200,521.49v98.43c-6.08-3.93,0.66-13.14-5.89-17.51c-2.64-1.76,0.14-4.64-0.21-6.47  c-0.49-2.58-6.27-1.13-7.31-2.66c-4.12-10.27-25.2-19.96-37.13-22.89c-7.06-1.74-14.07-10.16-21.98-5.81  c-2.12,1.17-6.11-2.5-8.58,0.61c-1.76,2.21-2.14,3.68-0.26,6.47c1.87,2.78,4.33,3.96,7.55,4.11c1.86,1.12,1.32,1.68-0.84,1.54  c-1.8,1.61-0.56,3.97-0.5,6.1l-3.59,1.47c-9.9-1.13-50.39-7.11-55.8-12.16c-4.13-3.86,2.2-6.77,5.97-7.76  c22.67-5.53,45.05-11.81,67.15-18.85c1.08-0.35,5.11-2.96,4.89-3.55c-1.96-5.23-57.71-11.23-66.72-11.71l-1.13-2.46  c-6.59,2.65-26.86,0.28-31.93-3.72c-0.8-0.63-1.5-1.39-2.17-2.19c-1.89-0.84-2.07-1.42,0.07-1.67c19.89-1.06,43.18-3.57,61.66,1.45  c10.11,2.74,16.51,1.07,26.81-0.51C1152.82,518.26,1177.15,523.65,1200,521.49z" />
<path class="cls-21" d="M0,284.77v-33.98c37.57,2.49,75.32-1.92,113.74,1.67c7.92,0.74,13.34,0.2,21.23-0.04  c11.57-0.35,22.55,4.88,34.9,0.35c8.19-3.01,16.38-0.77,24.51,0.09c7.2,0.77,15.5-4.8,21,4.23L85.61,275.52  C56.42,279.67,28.54,282.81,0,284.77z" />
<path class="cls-6" d="M1200,397.63v25.88c-24.76,2.15-58.45-8.16-77.35,2.03c-1.37-0.91-2.63-2.02-3.77-3.35  c-5.24,0.4-7.79-1.48-7.64-5.64c-6.28-8.25-13.73-15.65-22.33-22.22c-4.94-3.62-6.62-7.43-5.04-11.41  C1122.61,382.35,1160.03,397.8,1200,397.63z" />
<path class="cls-10" d="M80.83,712.36c-27.66,9.01-54.91,19.6-80.83,32.95v-36.33l0.63-2.5c18.96-3.58,37.93-7.17,56.91-10.76  l4.47,1.54C67.92,702.69,76.43,705.77,80.83,712.36z" />
<path class="cls-25" d="M1200,780.94v17.21c-36.29,2.45-72.55,0.91-108.85-0.21c-14.31,3.98-31.68,1.09-46.04-2.35  c-3.22-1.92-3.45-2.57,0.23-4.12c19.3-4.37,39.89-6.36,59.7-7.09c0.93-0.03,1.88,0.25,2.84,0.58c1,0.34,1.96,0.82,2.9,1.35  C1140.44,784.03,1170.18,781.49,1200,780.94z" />
<path class="cls-7" d="M62.01,697.26L0,708.98v-24.61C21.48,677.66,45.41,682.01,62.01,697.26z" />
<polygon class="cls-6" points="1200,685.45 1200,702.89 1100.01,691.86 " />
<path class="cls-24" d="M964.6,417.83c-0.63,0.64-1.28,1.25-2.02,1.72c-5.77,3.7-50.86-2.74-60.72-4.47l-3.97-2.72l-2.02,2.25  l-10.81,1.48c-23.35,8.35-46.46,17.5-69.31,27.46c-4.08,2.24-7.54,2.47-10.38,0.7l-3.08-3.06c-32.45-113.17-202.25-94.2-201.41,26.9  l-2.06,4.21c-0.82,0.73-1.66,1.42-2.59,1.98c-0.9,0.54-1.78,1.03-2.71,1.19c-14.94,2.47-30.13,4.59-45.23,5.05  c-41.83-6.77-45.71,2.99-82.68-27.73c-20.37-16.92-50.97-17.36-70.41,3.15c-67.64-29.64-77,5.18-134.58-38.05  c14.47,1.49,26.95,6.63,37.79-0.47c12.09-3.15,29.23,0.95,43.62-2.06c24.88-5.19,53.2,1.26,68.89-2.27  c26.71-6.02,32.62-7.55,60.8-8.55c1.85-7.78,10.76-9.62,14.79-15.2c19.34-26.74,46.78-17.77,66.99-28.89  c23.62-13,44.04-44.47,63.3-46.23l47.8-4.37l-35.42-3.72c12.99-9.57,27.41-12.68,42.57-15.43c48.9-8.88,94.91,3.13,137.71,28.09  c10.56,6.16,18.31,15.62,31,18.38l-8.09,2.49c-4.32,1.33,18.76,24.86,25.15,26.08c1.39,0.27,4.05-0.84,4.9,0.39  c0.41,0.59,0.31,2.16-0.86,2.65c-0.64,0.27-2.34-0.2-3.43,3.13c23.35,9.57,58.7,13.41,79.2,32.12  C946.79,412.65,926.91,407.14,964.6,417.83z" />
<path class="cls-9" d="M1081.74,382.94c1.12,0.86,1.89,2.43,2.29,4.72c-1.71,5.68-4.97,10.82-9.77,15.44  c-0.67,6.52-2.83,11.78-6.46,15.8c-12.38,1.85-28.39,5.28-22.42,21.51c0.21,2.92-0.24,4.88-3.46,4.94  c-16.07-1.16-32.22-3.53-48.17-5.79l-3.92,1.79c-16.79-1.91-33.52,1-49.1,7.23c-16.26,7.39-32.83,13.57-49.71,18.55l-2.43-0.88  c-1.38-3.06,0.56-5.52,5.82-7.37l12.2-4.77c-4.21-1.81-7.28-3.82-9.83-7.87c-2.01-3.19-1.59-26.88-1.23-32.18l2.35-1.69  c22.47,1.86,44.19,7.47,66.71,5.47C1008.38,413.95,1059.29,383.27,1081.74,382.94z" />
<path class="cls-8" d="M1083.86,382.91c-1.25,8.07,34.46,27.79,29.62,37.06c3.66-0.83,5.5-0.57,7.31,0.61  c1.5,0.98,2.15,3.01,1.87,4.96c-29.57,15.95-28.01,23.62-80.75,19.81c3.04-4.84-1.1-11.24,0.02-14.97  c2.91-9.74,16.26-12.6,24.88-13.5c5.24-4.87,2.48-12.37,6.93-17.14c4.31-4.62,9.77-10.1,8.01-16.8L1083.86,382.91z" />
<path class="cls-20" d="M1124.86,583.39c117.93,33.68-129.93,70.3-142.84,79.92l-3.19,1.71c-32.37,1.7-64.83,2.64-97.4,2.81  c-0.96,2.03-1.44,3.05-1.44,3.05c25.42,1.41,50.85,2.32,76.31,2.75l1.33,2.39c3.08,5.61,11.27,12.45,18.53,13.99  c-0.14,4.17,2.47,7.45,7.85,9.84c20.23,9.98,40.3,20.32,60.22,31.03c30.4,19.53,12.81,30.71-14.11,37.74  c-28.32,6.42-56.64,12.77-84.97,19.06c-6.48,3.25-12.97,4.52-19.47,3.82c-7.19-4.4-14.64-6-22.35-4.79  c-7.96,3.89-15.22,4.1-21.78,0.63c-2.84,0.18-3.43-1.56-1.72-3.83c5.82-12.42-23.61-25-31.36-27.65c-0.91-2.19,2.6-4.05,4.5-2.51  c-0.3-0.99-0.35-2.11,0.41-2.72c8.91-7.21,7.96-8.7-2.22-14.45c-21.3-6.09-43.02-10.85-65.16-14.28  c-33.21-8.79-10.59-25.09,10.29-28.42l-17.12-0.71l-2.03-2.7l-3.09,1.83c-8.06-0.45-36.25-4.99-40.81-10.46  c-4.69-5.63,6.17-10.07,10.01-11.53c18.5-5.17,37.15-8.55,55.94-10.16c0.27-3.15,2.31-4.02,6.12-2.63c0.06-1,0.44-2.32,1.25-2.37  c40.55-1.55,82.13-3.14,122.66-9.13c3.8-0.56,34.26-5.73,33.93-9.8l-0.86-2.01c-0.17-4.07-3.13-6.34-8.88-6.8l-0.8-2.63  c-0.53-2.13,0.1-3.2,2.18-3.4c14.46-1.82,28.72-4.5,42.79-8.05c4.23-1.34,6.2-2.81,6.7-7.21c-3.79-3.6-6.89-6.52-12.82-6.92  c-47.57-5.97-95.26-11.47-143.06-16.48l-1.16-2.49c1.44-1.95,2.16-2.93,2.16-2.93c53.68-6.92,107.82-11.89,162.42-14.93  c26.25-1.12,50.86-4.73,73.83-10.82l1.63-1.74c-1.27-0.48-1.93-1.56-1.98-3.24l-14.19-3.46l-1.17-2.51  c-9.19-3.08-0.31-10.69,5.67-11.84c7.91,0.74,71.4,5.89,70.11,14.43c-1.59,10.6-67.1,18.92-80.45,27.42  C1084.53,579.59,1105.77,577.94,1124.86,583.39z" />
<path class="cls-13" d="M1065.91,715.28c2.04,2.24,5.14,2.98,9.3,2.22l1.74,2.16c16.51,10.43,45.15,21.03,44.73,44.86  c-0.15,8.37-5.32,15.38-10.9,21.78c-22.28,1.71-44.88,2.53-67.17,7.5c16.8,3.12,32.12,3.67,47.54,4.14  c-4.18,3.74-9.8,6.49-15.37,7.22c-33.79,11.21-68.02,19.47-102.69,24.77c-6.6,1.43-30.23,7.26-32.12,13.85  c-1.03,3.59,6.51,8.51,9.41,9.94c1.84,2.36,4.13,4.26,6.87,5.72c10.59,4.11,46.5,18.38,35.46,33.65c-4.32,1.61-6.48,2.42-6.48,2.42  c-43.44-1.91-86.58,0.02-129.42,5.8c3.04-0.68,4.91,0.09,5.61,2.3c1.75,0.14,2.66,1.05,2.73,2.75l88.61,4.25l1.29,2.41  c-0.37,0.74-0.79,1.39-1.39,1.76c-5.05,3.11-34.91,11.88-41.17,12.33c-1.55,0.11-3.01-0.54-4.34-1.26  c-11.14-0.47-22.36-0.14-33.65,0.99c-25.46-3.47-49.97-3.15-75.79-0.94c-19.57-1.06-38.83-0.17-57.78,2.67l-1.73,2.1  c-5.52,0.03-25.15-2.59-25.09-9.79c0.03-3.5,15.56-14.56,20.65-12.82l1.53-2.16c19.95-7,40.1-13.65,60.44-19.95l-0.37-1.58  c2.25-1.91,4.83-3.67,7.73-5.28l0.16-1.71c3.74-0.9,4.73-1.9,2.97-3.02c-1.9-0.43-3.21-1.97-3.93-4.62  c-7.48-7.37-17-11.97-28.55-13.79l-37-8.26c-30.4-9.55-2.08-20.74,14.49-24.49l-66.5,5.51c18.84,12.01-7.63,18.14-18.28,20.36  c-3.78,0.25-62.88,9.41-60.64,13.31c1.21,2.12,18.35,6.02,22.05,5.82l1.61,2.3c1.85,0.19,2.23,0.73,1.16,1.61  c0.03,0.91-0.14,2.31-0.71,2.37c-10.31,1.02-24.73,1.45-35.08,1.17c-4.12,0.91-6.68,0.22-7.71-2.09l-1.67-3.72  c2.68-10.57,4.48-21.27,5.41-32.1l2.38-3.26l0.86-2.43l60.44-5.69l-12.57-3.17l-1.06-2.68l168-16.47c2.12,2.75,0.7,5.52-4.25,8.29  c21.3-0.64,51.18-7.9,69.19-19.22c2.06-3.07,4.29-4.99,6.69-5.75c3.59-1.99,8.71,1.19,12.63,0.15c7.8-4.2,19-5.36,27.31-0.37  c9.64,5.79,14.86,0.56,23.66-1.87c32.05-8.84,64.76-11.85,96.15-22.55c65.78-22.43-87.35-59.33-65.14-72.67  C1006.46,696.45,1036.38,705.68,1065.91,715.28z" />
<path class="cls-9" d="M683.13,983.98l5.95-1.05c63,2.26,125.87,2.79,188.6,1.58l4.73,1.32c10.93,0.86,21.72,3.21,32.38,7.06  l20.41,4.36c22.49,6.89,45.48,13.21,66.6,23.49c4.61,4.26,9.89,7.56,15.84,9.92c5.8,5.5-2.78,12.66-7.06,5.13  c-41.66,6.61-84.13,4.9-125.94,2.17l-14.82,0.87c15.51,3.75,30.71,8.39,45.6,13.94c5.24,2.43,13.57,12.42,6.88,16.06  c-1.16,3.08-16.81,5.05-18.84,4.3c-1.09-0.4-1.8-1.27-2.28-2.3c-25.87-0.53-51.92-0.31-78.15,0.67c-3.27-0.43-4.08-2.96-2.45-7.59  c-1.52-1.13-1.51-2.18-0.61-3.42c-30.64-2.79-61.31-2.78-92.01,0.02l-0.37,1.34c2.39,1.52,5.03,8.58,0.66,10.08  c-14.28,1.01-28.59,1.15-42.92,0.43c-5.21,0.64-10.46,1.18-15.71,0.83c-84.21-5.49-167.96-10.76-248.6-15.03l-1.29-2.42  c-2.42,1.69-3.24,0.64-2.62-2.18c11.79-16.44-19.58-32.55-31.69-36.58c-2.91-4.87,4.22-4.28,7.65-2.64  c10.11,7.1,22.06,10.73,34.35,11.13c28.87-0.7,57.82-0.52,86.84,0.56c9.7-1.32,19.01-2.52,28.48,0.36  c4.12,1.26,11.63,3.59,10.55,8.39c0.94,0.29,1.82,0.83,2,1.78c3.92,21.31,19.94,20.03,34.86,8.77c-3.77-2.59-3.86-11.81,0.61-13.02  c3-2.01,4.5-3.01,4.5-3.01c50.44-1.86,101.02-1.06,151.74,2.39l107.47-0.78l6.67-5.61c-34.75-14.89-68.93-26.6-104.8-13.31  c-27.69,4.85-55.28,5.61-84.38,6.31c-22.93,0.55-45.87,0.95-68.8,1.06c-2.29,0.01-4.58-0.34-6.88-0.71  c-2.32-0.37-4.61-0.91-6.89-1.49c-4.24,2.02-11.43,0.2-14.17-4.18c-1.56-2.5-2.86-5.04,0.27-6.55c2.28-5.87,5.22-11.31,8.83-16.32  c17.82-7.91,36.94-9.98,57.35-6.19c9.54-1.15,19.03-0.4,28.45,2.25l5.08-0.79C678.17,983.54,680.81,983.08,683.13,983.98z" />
<path class="cls-7" d="M306.99,767.43c6.99,8.86,23.9,12.74,35.02,14.98L418.07,794c1.16,1.58,0.66,3.16-0.34,4.8l-114.15,3.78  c-4.36,1.61,8.23,12.34,10.93,13.02c1.54,2.25,2.07,5.24,1.61,8.98c4.05,1.8,10.74,6.51,5.96,10.45c-0.94-0.29-2.33,0.24-3.32,0.28  l-1.61-0.83c0.95-2.11,0.32-1.78-1.87,0.99c-4.81,1.37-10.06-0.39-15.81,2.49c27.52,4.5,54.85,1.29,82.05-3.31  c6-1.01,13.94-0.35,16.25,5.83c-35.98,15.18-74.9,15.48-112.94,13.48c-2.27-0.12-3.94,0.12-6.45,0.37c-1.22,0.12-2.32,1.22-1.63,3.4  c-1.19,0.99-2.51,2.09-4.1,2.26c-6.8,0.73-19.29,0.09-24.17-4.27c-6.22-0.72-12.37-1.71-18.44-2.97  c-0.43-8.52-3.69-15.89-13.4-12.03c-0.96,7.66-3.58,10.7-7.86,9.12l-12.04-14.27c-13.16,10.45-28.84,15.56-43.92,5.06  c-3.28,5.63-11.07,2.83-9.85-2.76c-4.69-3.97-15.83-5.11-23.32-8.99c-0.8-2.25,0.98-7.36,2.79-9.86c2.08-2.87,9.31-1.67,12.48-0.34  c20.51,8.6,42.85,11.81,64.54,11.52l-21.68-6.39c13.3-0.81,27.58,1.72,38.66-3.41l16.89-7.82c-29.8-4.88-70.72-18.96-70.48-55.46  c11.93,3.8,20.55,13.49,31.66,21.06c7.55-5,7.11-14.24,12.45-20.03c5.31,4.29,4.83,10.95,9.29,10.85  c5.36-0.11,10.21-2.87,11.21-8.83c1.53-9.05-0.61-20.67-5.98-28.8c8.83,0.08,19.21,4.09,27.84,8.25L306.99,767.43z" />
<path class="cls-1" d="M585.88,484.81c1.95,0.94,5.75,4.57,5.59,6.58c-0.71,1.76-4.23,1.76-4.38,3.82c-0.08,1.07,0.8,2.71,1.06,3.86  c3.86,0.47,5.57,12.32,2.26,14.26c1.02,8.75-1.4,14.86-11.57,14.22c-0.92,2.21-2.23,3.71-3.91,4.5l-0.77,2.23  c4.85,10.45,7.77,21.14,8.75,32.07l-1.62,0.57l-0.47,1.5c-3-0.99-5.55-0.67-7.65,0.96c2.52,8.24,1.1,19.53-3.03,27.14  c2.86,3.02,5.1,12.24,1.86,15.1l2.65,1.86c0.23,10.96,2.66,21.05,7.27,30.27l-0.64,3.08c6.31,0.14,5.52,9.95,4.09,14.9  c4.18,2.16,5.14,4.26,2.87,6.31l2.78,2.21c2.08,7.95,3.58,15.99,4.5,24.14l-2.29,2.82c-0.03,2.24,0.4,4.72,0.14,6.92  c3.16,1.61,3.98,5.38,0.77,7.37c3.14,3.76,4.58,13.56,4.63,18.81l-1.97,3.25c3.94,4.31,5.52,12.41,3.37,17.85  c2.01,0.09,3.71,1.69,5.1,4.8c6.25,4.03,13.26,6.36,21.03,7c3.73,1.05,8.3,2.45,6.51,6.81c-0.33,4.02-8.9,4.13-11.75,2.26  l-2.24,2.32l-21.33,2.49c-4.6,0.98-7.64,0.06-9.13-2.75c-3.29-1.6-3.99-8.85-0.58-10.58c-2.31-1.17-2.2-2.49,0.28-3.24l-0.74-2.44  c-3.18-1-3.95-3.29-1.42-5.63c-4.82-3.73-8.59-14.03-7.98-20.07c-2.89-0.88-4.13-1.37-1.59-3.8c-2.05-0.56-3.01-1.02-0.93-2.14  l-2.6-1.89c-1.33-3.86-3.28-14.43-0.03-16.87c-3.39-0.58-3.74-5.88-0.37-6.89c-3.12-1.15-4.38-4.68-1.89-7.13  c-3.08-1.66-5.22-4.7-6.43-9.12c-2.36-8.67-4.91-6.88-7.65,5.37l-2.98,1.15c2.88,2,0.68,7.49-2.7,7.13  c3.03,2.03-0.52,5.41-3.39,5.05l0.35,2.78c-3.52,4.26-6.58,8.87-9.17,13.83l-2.88,0.03c0.43,2.71,0.44,4.91-2.34,5.29  c-2.03,5-4.75,9.93-8.18,14.78c-1.92,5.36-4.72,9.51-8.4,12.43c1.46,1.38,2.02,3.62,1.69,6.72c2.53,2.89,3.24,5.36,2.14,7.41  c3.3,1.16,16.82,6.83,16.5,9.54c-0.06,0.54-0.35,1.06-0.71,1.57c0,0.56-0.05,1.11-0.26,1.58c-0.27,0.61-12.03,2.05-12.19-0.88  c-0.39,0.63-0.85,0.69-1.38,0.17c-0.18,2.32-1.23,2.26-2.01,0.02c-0.32,0.85-0.86,1.53-1.51,2.15c-1.11,1.04-6.43-0.76-8.03-1.35  c-5.1-1.88-13.31-7.29-16.12-11.66c-2.64-5.5,2.91-10.65,5.68-16.43l-1-3.39l4.39-11.18c0.53-4.9,2.1-8.66,4.71-11.28  c-2.49-1.69-2.03-3.07,1.14-3.29c-2.45-2.08-2.06-3.45,1.26-3.53c-1.52-3.22,5.88-16.66,8.07-18.28c1.01-0.74,2.27-0.83,3.48-0.76  c-2.04-2.88,1.37-7.05,4.68-6.95c-1.54-0.98-2.07-2.73-1.61-5.25l-2.06-5.77c3.17-5.29,5.26-10.52,5.44-16.74l2.48-1.57  c-3.68,0.03-2.64-11.34,0.94-11.87l3.03-1.38l23.46,5.79c3.02-13.96-1.44-26.1-7.06-38.51c-2.57-4.6-2.95-8.44-1.15-11.52  c-2.74-1.29-3.91-3.94-3.5-7.95c-1.11-5.29-0.4-9.27,2.14-11.93l-2.37-2.8l-0.22-19.99l-9.01-2.02l-1.02-2.63  c-2.28-0.08-2.32-0.98-0.08-1.62c-3.3-1.35,1.59-14.54,2.46-15.08c0.53-0.33,1.31-0.26,2.17-0.07c0.47-6.7,3.98-12.61,10.52-17.71  c0.77-2.17,2.02-3.72,3.73-4.65c-2.3,0.11-2.28-0.88,0-1.56c-2.35-0.12-2.79-0.51-2.9-2.7c-1.26-3.72-3.79-13.85-0.68-16.03  c-1.21-6.33,3.49-13.23,9.3-16.42c-0.06-0.97-0.15-2.42,0.45-2.65c3.91-1.56,20.98-0.5,22.86,2.08  C584.59,482.04,585.02,482.96,585.88,484.81z" />
<path class="cls-16" d="M726.79,737.81c-20.61,1.53-41.45-1.11-62.73,3.42c19.12,18.15,114.03-0.82,134.23,20.53  c-17.37,6.57-35.49,0.37-52.16,9.38c11.6,8.38,71.42-4.4,62.03,6.72c-15.26,18.07-91.25,21.46-117.94,18.84l-64.47-6.33  c-0.17-0.91-0.3-2.3,0.33-2.56c15.65-6.62,35.3-10.69,51.97-13.89c-28.02-1.08-42.04-1.61-42.04-1.61l-3.2-2.26  c-4.1-6.98-16.21-4-23.57-8.96c-5.64-2.03-7.78-4.77-9.07-9.66l3.1-2.95c11.39-1.43,22.61-3.61,33.66-6.54l-39.11-5.84l-1.03-2.52  c-0.76-7.36-2.56-14.63-2.66-22.06c1.23-0.42,2.47-0.8,3.73-1.02c1.24-0.21,2.46-0.4,3.63-0.25c41.28,5.4,83.06,11.14,122.49,24.93  L726.79,737.81z" />
<path class="cls-3" d="M594.15,824.71c3.59-0.5,3.57,9.09,0.12,9.77c0.16,13.44-3.72,25.99-6.13,39.08  c-4.23,2.47-9.05,3.52-14.46,3.16c6.68-0.29,12.75,0.82,18.2,3.35c5.11,2.02,3.24,9.86-2.9,7.88  c-7.71,12.22-10.97,27.24-12.25,41.47l-2.58,3.25c3.78,1.93,1.12,11.01-1.91,13.18c1.11,1.34,2.26,2.81,2.58,4.57  c0.98,5.4,3.04,21.35,2.16,25.59c-0.01,0.06,0.19-0.95,0.45-1.09c1.26-0.71,5.68-0.68,6.26,1.28l2.36,1.93  c-1.79,9.86-5.31,19.29-10.55,28.29c-0.11,2.31,2.2,7.32,4.39,8.05c2.42,0.81,7.08,0.52,9.5,2.69l2.23,1.42  c0.99,2.88,3.3,13.61-0.85,13.74l-1.09,7.96c-0.27,1.95,1.89,3.01,4.09,4.5c-7.26,9.62-26.3,15.32-35.8,5.45  c-2.87-2.98-6.21-10.67-4.66-15.43l-1.61-2.47c3.11-5.32,4-10.5,2.69-15.54l1.3-2.26c-5.75-2.84-10.22-7.66-13.42-14.47  c-3.51-4.9-4.16-8.98-1.94-12.23l0.2-2.77l8.62-2.93l-0.13-19.23l2.45-3.35l-2.24-2.09c-0.64-4.63-0.61-15.24,3.65-17.52l-1.61-2.89  c5.29-13.31,8.48-26.85,9.55-40.64l-1.11-6.6c-7.16,1.89-14.55,4.39-22.16,7.49l-2.37-1.63l-2.47-0.71l-5.46-38.99  c-1.17-3.01-3.15-5.6-5.93-7.76l0.16-3.22c-4.46,0.5-8.86-7.96-4.98-10.51l24.64-3.55c3.09,0.24,7.51,6.62,6.35,9.56l3.02,0.76  l11,20.79c4.16-6.98,7.02-14.4,8.57-22.26l2.52-2.02c-3.04-3.44-2.98-7.12,0.15-10.46L594.15,824.71z" />
<path class="cls-13" d="M521.48,844.99c2.9,3.29,7.55,6.3,8.28,11.62l5.41,39.08c-15.55,7.01-30.95,14.33-46.19,21.95l-5.15,0.31  c0.85,4.65-11.73,6.44-15.44,6.34l-2.09-1.96c-0.79-1.8-3.29-3.4-4.58-4.78l0.75-2.6c16-0.87,28.53-10.18,1.47-5.09  c-4.2,2.24-8.07,2.87-11.6,1.9c-21.25-12.58-47.24-15.45-66.73-29.56c-1.48-1.07-1.24-1.96-0.78-3.35  c1.39-4.28,16.19-10.4,20.6-11.99c37.06-11.2,74.78-19.13,113.14-23.8L521.48,844.99z" />
<path class="cls-10" d="M394.84,775.72c2.47,0.23,3.18,2.2,2.13,5.91l54.21-1.24c10.9,0.9,21.72,0.05,32.58-0.73  c2.17,1.25,5.32,1.71,9.43,1.41l0.11,2.75l2.24,1.35c2.42,6.39,5.85,12.68,10.28,18.87l-1.83,2.04l-1.39,2.54  c-6.15,0.18-12.11,1.17-17.9,2.95c6.92,0.66,13.85,0.51,20.8-0.44l2.12,2.25c3.86,0.2,5.07,6.33,1.37,8.06  c-36.17,1.48-70.15-17.34-132.84-6.31c-3.08,0.54-5.85,2.51-7.42,4c-2.09,1.98,2.56,5.86,1.44,8.1c-2.65,5.33-11.04,5.31-16.24,5.71  c-5.31-1.16-10.93-1.1-16.86,0.19c-4.16-0.93-7.52-0.47-10.1,1.38c-1.55-0.11-3.21,1.03-4.89,0.51  c-1.78-11.94-10.98-2.61-7.92-16.81c-6.08-4.39-14.67-8.14-13.81-17.87l118.12-3.91l-76.85-11.71  c-4.78-0.73-41.95-10.19-34.63-17.29C331.01,779.01,364.68,773.22,394.84,775.72z" />
<path class="cls-26" d="M799.22,659.77l-55.38,12.44c-3.82,0.86-10.14,3.83-8.89,7.93c13.26,7.23,28.33,7.3,42.22,9.95  c7.98,5.3-1.64,9.27-7.67,10.83c-20.62,1.15-41.24,2.15-61.88,3.03c13.57,0.76,26.32,3.5,38.24,8.23c2.31,4.28-0.24,7.24-7.66,8.89  c36.75,8.04,72.95,17.99,108.63,29.85c3.19-3.3,9.43-1.84,6.15,2.46c-1.52,0.59-3.28,1.48-4.5,2.51  C781.34,732.96,712,717.1,642.31,705.44l0.16-2.52c7.86-1.02,56.2-9.72,25.83-16.97c-12.88-1.71-25.65-3.85-38.32-6.43  c-4.48-2.18-9.77-6.34-3.09-8.25l2.84-1.49c18.42,0.19,36.91,0.21,55.46,0.06l8.49,1.66l3.87-2.78c12.19-1.36,24.35-3.44,35.93-7.59  l4.72,0.7l1.33-0.85c-0.79-3.18,0.21-3.64,2.26-1.06l3.22-2c17.22-0.95,34.43-1.29,51.62-1.03L799.22,659.77z" />
<path class="cls-7" d="M183.04,964.31c-4.43-4.77,5.75-7.9,10.23-8.66c10.19-0.56,19.72-2.54,28.59-5.94  c1.53-4.34,5.32-6.13,11.39-5.36c11.24,0.73,22.36,0.25,33.35-1.45c-7.33,0.46-14.18-0.37-20.55-2.49l0.11-3.07  c65.19-12.12,41.1,5.27,79.79,7.6c24.34,1.46,47.95-2.9,73.01-4.36c-32.91,18.72-70.81,20.1-107.12,18.17  c-17.15-0.91-33.92-4.55-50.66,1.18c2.35,7.18,24.49,8.06,22.75,15.34C261.21,986.64,204.83,977.23,183.04,964.31z" />
<path class="cls-11" d="M555.68,1014.54c4.87,6.42-0.27,13.75-2.38,20.26c-7.33-7.02-20.4-8.97-30.87-7.33  c-23.94,3.75-47.83-2.12-72.73-0.3c-19.96,1.46-38.92,2.2-57.05-10.38c-1.61-1.12-7.24-2.3-7.22,0.21  c-15.71-4.72-32.33-7.11-47.09-14.07c-1.21-2.44,0.99-3.84,6.61-4.2c64.61,5.88,129.56,10.24,194.84,13.08  C545.18,1012.11,550.46,1013.26,555.68,1014.54z" />
<path class="cls-9" d="M399.86,980.9c2.7-1.99,4.3-0.82,3.38,2.37c3.25,0.34,5.23,3.93,2.27,6.11c2.21,1.16,3.43,3.57,3.65,7.25  l12.15,1.64c3.34-0.62,5.87-0.19,7.59,1.29l3.81-1.73c17.66,1.13,35.38,0.22,53.18-2.71l3.78,2.04c14.46-3.26,28.99-6.58,43.58-9.97  l2.34,0.76c0.55-3.61,3.23-3.38,4.72-0.09c1.71,10.8,8.96,18.24,15.37,26.69c-69.16-1.32-137.96-7.85-207.49-13.12  c-3.83-0.29-8.89-1.53-9.86,1.51c-1.3-0.61-3.35-0.65-4.3-1.98c0.44-0.87,0.91-1.7,1.51-2.44c4.88-5.97,48.61-16.52,59.12-18.66  L399.86,980.9z" />
<path class="cls-20" d="M626.89,671.27c-7.71,11.83,49.68,7.06,53.62,18.68c3.57,10.52-32.78,13.28-38.2,15.49l-49.09-8.21  c0.12-9.95-3.39-19.39-4.99-29.16c-0.17-1.9,0.38-2.46,1.72-3.2c5.57-3.1,28.51,2.01,35.36,3.91L626.89,671.27z" />
<path class="cls-10" d="M587.18,778.05c3.66,0.67,3.5,10.74,0,11.72c-14.6,1.1-29.69,2.1-44.94,8.88c14.09,4.58,28.08,0.24,41.58-1.56  c4.1,2.41-1.16,13.74-4.99,15.2l-49.07,6.85l-2.57-0.33c-1.81-3.18-3.71-6.25-5.7-9.21c-3.12-0.1-2.99-1.17-0.04-2.12  c-6.44-3.29-14.26-21.74-4.66-24.36c-0.23-2.97,1-3.11,2.37-0.44l1.74-2.24l28.9-1.5c-3.43,0.86-5.44,0.42-6.03-1.32  c-4.38-0.76-3.38-2.83,0.34-4.72c2.72-1.38,36.05,2.13,41.66,2.93L587.18,778.05z" />
<path class="cls-11" d="M516.5,834.48c0.68,3.49,2.47,7.67,4.98,10.51c-21.29,3.13-128.76,18.27-135.85,37.2  C350.18,856.51,507.17,835.82,516.5,834.48z" />
<path class="cls-5" d="M419.74,1055.76c4.89,0.82,3.17,8.46,1.8,12.19c-6.46,17.6-43.56,34.19-60.94,39.24l-2.95-1.37  c-0.13-2.09-0.99-3.59-2.31-4.09c-2.21-0.84-4.81,0.37-6.7,0.09l-14.83-2.19c1.42-2.45,3.62-1.23,4.66-2.48  c0.43-0.53,0.31-1.6,0.14-2.48c22.4-6.61,64.62-21.71,78.52-41.09C417.98,1054.1,419.41,1054.68,419.74,1055.76z" />
<path class="cls-8" d="M405.64,965.63c2.46,0.15,2.42,1.34,0.07,2.29c-0.35,2.08-1.55,4.28-3.59,6.6c0.2,3.15-0.55,5.27-2.25,6.37  c-22.19,6.02-45.09,10.05-65.82,20.05C299.39,986.9,399.14,967.35,405.64,965.63z" />
<path class="cls-10" d="M475.69,825.11c-25.61,10.44-58.36,7.98-83.15-5.21C418.56,812.21,449.14,814.56,475.69,825.11z" />
<path class="cls-5" d="M236.66,937.55c2.23,1.66,6.34,2.15,8.3-0.34c0.33,0.07,0.91-0.01,1.19,0.14c6.36,7.18,18.29-1.33,26.74,6.2  c-16.04,5.97-33.29,1.58-47.91,3.8c1.13,12.71-39.69,5.57-41.94,16.95c-3.11-1.84-6.45-3.78-5.27-8.21  c3.34-12.52,40.54-9.1,39.94-13.97C219.52,934.07,230.62,939.59,236.66,937.55z" />
<path class="cls-11" d="M879.84,783.52c0.73,0.97,2.08,2.45,1.72,3.83c-5.57,21.57-78.39,27.68-94.82,29.34  c9.02-5.24,20.5-4.5,23.18-12.66C822.69,802.78,870.5,794.09,879.84,783.52z" />
<path class="cls-10" d="M733.41,736.89c1.03,0.33,1.02,0.74,0.02,1.22c-2.2,0.05-4.44-0.47-6.64-0.31  c-41.63-14.73-88.32-19.55-132.65-26.28c-0.03-2.47-1.06-4.78-0.77-7.37C640.43,712.22,689.18,719.26,733.41,736.89z" />
<path class="cls-6" d="M476.77,941.23c2.91,4.31-3.62,10.77-7.15,13.75c-3.58,3.02-11.06,8.37-14.87,4.74  c-5.83,2.61-11.96,4.48-18.12,6.14c-4.71,1.26-26.42,6.69-29.19,4.94c-0.99-0.63-1.41-1.81-1.73-2.87c0.12-0.76,0.08-1.54-0.07-2.29  c11.09-2.92,59.01-17.57,62.07-30.36c2.44-1.06,4.05,0.82,4.83,5.65C474.12,938.98,475.52,938.95,476.77,941.23z" />
<path class="cls-11" d="M641.93,820.51l27.59,6.89l-75.25,7.09l-0.12-9.77C609.84,822.81,625.99,819.98,641.93,820.51z" />
<path class="cls-10" d="M596.34,810.81c-2.14-1.85-2.19-5.15-0.14-9.9c0.08-3.28,1.29-5.06,3.62-5.33c17.52,0.14,36.02-1.32,54.81,5.3  C635.19,808.14,615.39,809.19,596.34,810.81z" />
<path class="cls-5" d="M327.17,1029.92c-16.51-2.32-34.51-2.5-51.19-9.46l12.53-11.55C303.45,1010.05,320.72,1016.28,327.17,1029.92z  " />
<path class="cls-10" d="M678.05,773.92l-52.3,16.45c-7.85-0.77-15.73,0.33-23.61-0.53c-1.95-2.39-0.8-4.46,3.46-6.22  c8.01-2.77,16.19-5.05,24.53-6.84l1.33-1.96c0.82-0.62,1.66-1.2,2.56-1.63c0.88-0.42,1.73-0.8,2.59-0.83  C650.41,771.99,664.31,772.34,678.05,773.92z" />
<path class="cls-5" d="M621.06,772.31c2.69,1.27,5.64,1.43,8.85,0.49l1.53,2.02c8.36,6.9-26.08,5.89-29.32,15.02  c-4.67-0.51-10.27-0.41-14.96-0.06l0-11.72c-3.01-1.81-2.13-3.87,1.18-3.68C599.2,776.36,610.05,771.86,621.06,772.31z" />
<path class="cls-9" d="M489.7,932.82c2.17,3.14-0.3,4.8-3.23,2.35l-2.65,2.26c-0.08,1.04-0.37,1.01-0.84,0.02  c-0.74,0.78-1.64,1.58-2.71,2.38c0.54,3.35-1.24,4.08-3.51,1.4c-3.7-0.03-2.73,5.27-8.12,4.47c2-4.93,0.75-8.11-0.94-10.44  c-0.59-3.95-0.18-8.88-1.4-12.95c6.06-1.41,12.14-1.08,17.53-4.38C493.71,918,494.95,925.01,489.7,932.82z" />
<path class="cls-5" d="M248.47,855.71c9.27,1.65,18.85,1.81,28.28,2.01c2.55,0.05,5.44,1.44,6.89,3.43  c-16.52,3.57-35.43,6.04-52.94,4.92c-3.53,0.32-3.12-6.41,0.24-6.89c1.13-1.43,3.11-2.39,5.92-2.86l2.31-1.02  C241.84,854.51,244.94,854.65,248.47,855.71z" />
<path class="cls-11" d="M572.75,827.3c0.05,3.51,0.01,6.97-0.15,10.46c-0.25,1.3-0.38,1.9-1.43,2.51c-0.95,0.55-20.75,2.64-21.76,2.23  l-1.92-2.02c-2.88-2.52-5.31-5.86-6.35-9.56C551.71,829.4,562.21,828.57,572.75,827.3z" />
<path class="cls-5" d="M599.83,795.57l-3.48,15.24l-17.52,1.49c1.02-5.29,4.53-9.77,4.99-15.2  C589.19,796.38,594.38,795.53,599.83,795.57z" />
<path class="cls-11" d="M461.74,917.54c-3.82-0.21-6.48-4.07-9.38-5.79c9.79-4.22,20.16-8.27,31.72-4.09  C479.61,917.06,470.21,915.22,461.74,917.54z" />
<path class="cls-5" d="M529.76,819.14c-7.08,0.99-13.57,2-20.77,2.3c0.4-2.78-0.89-5.36-1.37-8.06c1.71-3.57,10.5-5.77,13.87-3.78  C526.17,808.8,527.66,815.91,529.76,819.14z" />
<path class="cls-7" d="M353.93,832.94c-8.98,0.69-17.99,2.19-26.96,1.57c0.12-0.84,0.14-1.87,0.59-2.53  c0.85-1.27,2.21-0.57,4.22-1.46C339.17,834.71,349.85,826.68,353.93,832.94z" />
<path class="cls-7" d="M244.96,937.21c2.1,3.71-1.09,3.17-3.89,3.33c-2.44,0.14-4.97,0.23-4.41-2.99  C239.41,937.07,242.21,936.62,244.96,937.21z" />
<path class="cls-10" d="M318.75,835.29c-1.1,0.05-2.43-0.14-3.48,0.16c-0.05-1.17,0.04-2.51,0.41-3.69c0.26-0.83,2.82-1.55,3.2-0.52  C319.41,832.66,318.44,834.29,318.75,835.29z" />
<path class="cls-6" d="M685.34,1072.38c28.81,0.67,65.05,2.6,91.83,14.04c16.01,6.84,13.62,13.76,2.49,25.08  c22.05,6.09,49.88,5.97,73.94,4.68c5.1-0.86,20.62-2.83,24.54,0.71c0.69,0.62,0.31,2.09-0.01,3.17c-6.67,4.32-14.31,7.35-22.91,9.09  c-6.93,3.28-13.87,5.03-20.83,5.27l-0.67,2.83c0,0-11.11,3.85-33.32,11.56c-33.69,14.26-70.95,19.4-105.55,32.38  c-10.09-3.85-22.32-1.16-34.13-3.16l-50.18-8.49l-66.79-2.16c0,0-1.91-0.88-5.72-2.63c-1.03-1.23-2.33-1.3-3.89-0.22  c-0.42,2.31-1.56,2.13-2.28-0.15c-17.82-5.2-37.59-0.44-57.21-4.26c-10.36-2.02-18.66-9.01-28.58-9.99  c-6.72-0.66-15.05-0.27-20.86-6.12l108.55-9.07l54.69-2.55c3.32-0.15,6.13,1.61,9.83-0.01c2.66-1.17,4.33-3.89,5.38-7.34  c-30.93-1.95-61.89-3.7-92.87-5.27c-26-0.13-51.9,1.18-77.72,3.93l-4.26-0.93c-1.66-1.06-3.15-0.82-4.48,0.71  c-1.21,0.92-3.12,1.53-5.73,1.82c-10.76,2.93-22.67-2.78-35.12-1.49c-5.61,0.58-45.79-4.54-46.94-9.6l21.11-8.39  c14.44-5.74,70.12-23.93,62.09-50.06l94.32,5.32C571.65,1064.32,628.53,1066.57,685.34,1072.38z" />
<path class="cls-8" d="M1026.64,1034.79c5.34,4.54,10.15,12.04,10.57,18.73c-1.35,6.77-5.64,17.52-13.1,17.61l-4.19,1.15  c-31.18-0.97-62.36-1.6-93.53-1.91l-4.09-1.52c3.73-22.29-48.01-20.65-59.38-31.01c9.74-2.46,19.89-2.57,30.49-1.79  c38.77,2.85,79.57,3.27,117.76-2.54c1.19-0.18,3.32,4.84,4.51,3.52c7.3-8.14-7.85-2.83-13.88-16.26  C1010.21,1024.84,1019.36,1028.59,1026.64,1034.79z" />
<path class="cls-24" d="M1003.18,1083.92c1.77-1.14,4.79,1.66,4.42,3.65c-15.14,7.97-30.71,14.71-48.08,19.36l-115.66,30.93  l-1.28,0.94c-2.41,0.25-4.79,0.72-7.15,1.28c-4.18,0.67-4.45-3.51-1.03-5.65c14.09-5.96,28.82-10.5,43.75-14.35l0.45-2.54  l80.81-20.94c13.36-4.37,26.75-8.57,40.16-12.59C999.59,1080.63,1002.29,1080.73,1003.18,1083.92z" />
<path class="cls-22" d="M1007.6,1087.57c-1.69-0.94-3.46-1.91-4.42-3.65c-1.12-3.52,0.58-4.69,3.52-2.52c1.26,1.05,1.98,0.59,2.54-0.89  c-0.8-2.03,1.08-3.51,5.63-4.44c1.57-2.77,4.65-4.42,9.25-4.95c5.32-5.42,10.09-10.48,13.1-17.61  C1038.3,1070.82,1021.76,1080.11,1007.6,1087.57z" />
<path class="cls-22" d="M835.43,1140.07c-11.71,2.78-23.15,7.67-35.02,8.73l33.99-14.39C834.08,1136.37,834.44,1138.35,835.43,1140.07z  " />
<path class="cls-16" d="M414.67,116.28c-0.27,1.66-2.17,1.84-3.37,2.61c-2.35,1.52-2.87-0.58-3.36-2.67  C410.2,116.18,412.43,116.34,414.67,116.28z" />
<path class="cls-16" d="M552,499.03l3.58,18.73c-14.75,2.44-29.67,4.32-44.76,5.63c-15.88,3.33-31.85,5.81-47.92,7.42  c-1.13,0.92-2.28,1.8-3.52,2.52c-1.22,0.71-2.43,1.38-3.73,1.72c-59.42,15.65-127.77,12.65-187.17-0.81l-3.61-2.36  c-4.15-0.91-2.93-6.6,1.34-6.85l7.41-0.87c27.03,5.14,54.81,6.8,82.15,4.07c-2.51-5.25-0.9-7.37,2.89-10.89  c1.29-3.7,3.3-6.16,6.03-7.38c57.96-3.87,90.14,2.9,145.24-1.57c-4.57-2.81-10.19,0.66-12.96-3.07L552,499.03z" />
<path class="cls-13" d="M704.34,460.69c3.63-2.2,6.03,12.53,5.76,14.27c-1.28,3.26-4.05,5.44-8.3,6.51l-115.96,0.27  c-1.87,0-0.62,2.74,0.04,3.07c-6.92-1.77-17.64-6.03-24.58-2.21l-13-2.1c16.52-3.97,33.66-5.58,50.53-8.21l4-3.01  c22.66-3.74,45.55-5.51,68.67-5.32l15.02-1.79C692.72,460.21,698.67,459.72,704.34,460.69z" />
<path class="cls-14" d="M388.02,497.73c-38.37,2.99-76.83,8.39-116.02,5.28l-0.92-10.18c-0.31-3.45-7.7-1.09-8.45-5.26  C304.54,487.58,350.66,483.28,388.02,497.73z" />
<path class="cls-25" d="M1094.64,882.61c25.33,1.6,50.32,2.44,75.28,11.73c-12.11,7.85-27.12,8.61-40.34,9.79  c-5.65,2.02-8.48,3.04-8.48,3.04c-48.68,1.64-96.6,1.78-143.77,0.44l-1.36-2.36l-6.83,2.25c-70.23-1-105.35-1.51-105.35-1.51  l-1.39-2.36c-5.69-0.08-12.32,0.49-17.38-2.13c50.04-11.65,98.91-7.62,147.68-8.38C1026.57,894.05,1060.79,880.47,1094.64,882.61z" />
<path class="cls-25" d="M859.1,973.81c17.32,1.4,35.13-0.41,52.5,6.56c-5.22,4.02-11.12,4.44-16.32,4.73l-0.44,1.59  c-4.12-0.13-8.26-0.42-12.42-0.86c-31.1,1.76-61.88,0.84-93.83,1.56c-35.89,0.81-70.46-0.24-105.46-3.41  c-4.18,0.27-2.77-2.92,0.59-4.83c19.87-3.67,40.14-5.08,60.8-4.24c24,0.61,48.12,0.63,72.35,0.06c5.66-1.56,11.16-2.03,16.49-1.41  c1.98-1.81,4.81-2.32,8.48-1.54C847.95,970.97,853.7,971.57,859.1,973.81z" />
<path class="cls-6" d="M1079.17,917.45c-58.35,8.09-117.52,15.89-175.64,16.42l0.22-2.57c17.17-5.81,34.38-11.54,51.63-17.19  l3.24,0.05c-0.28-3.75,3.74-4.57,5.82-1.36l8.23-2.33l103.03,0.25C1079.92,911.66,1084.02,914.76,1079.17,917.45z" />
<path class="cls-24" d="M958.62,914.15l-55.09,19.71c-7.83,2.8-59.47,15.31-54.89,30.8c1.17,3.94,6.58,6.42,10.46,9.15  c-8.69-0.7-17.23,1.74-25.73-0.26c-5.97,1.24-12.61-4.42-13.11-10.34c-0.86-10.18,17.5-17.93,25.22-21.12  c13.87-5.74,40.67-14.99,55.2-16.73c2.45-0.29,5.02-0.06,7.44,0.49c15.58-4.36,32.05-6.38,46.9-12.83  C955.86,909.41,959.47,910.43,958.62,914.15z" />
<path class="cls-5" d="M1129.59,904.12c0.11,0.94,1.12,1.6,1.51,3.18c-16.81,6.16-34.52,7.72-51.92,10.14  c0.15-1.02,0.11-2.53-0.68-3.14c-0.51-0.39-1.71-1.27-2.99-1.27l-111.07-0.25c-0.87-2.41,0.64-4.24,4.55-5.49l6.98-2.06l68.2,1.01  C1072.9,906.67,1100.64,906.71,1129.59,904.12z" />
<path class="cls-25" d="M1153.35,966.21c-22.62,5.94-45.4,5.98-68.1,0.71C1106.87,960.49,1131.3,960.34,1153.35,966.21z" />
<path class="cls-21" d="M895.28,985.11c12.45,5.77,26.57,8.06,39.92,12.15c-17.54-0.92-34.98-7.91-52.78-11.42L895.28,985.11z" />
<path class="cls-7" d="M360.85,622.46l2.58,0.47c7.11,8.92,17.19,14.51,30.24,16.79l34.09,8.55l3.65-1.99  c3.49,0.08,27.9,2.67,29.2,3.35c4.47,2.34,5.09,3.59,0.26,5.06c-15.61,1.25-31.32,1.93-46.98,1.73c-1.19-0.02-2.38-0.38-3.6-0.77  c-1.24-0.4-2.43-0.96-3.6-1.56l-2.33,1.56c-14.75,1.08-29.52,0.29-44.31-2.35l14.76,4.87l1.37,3.2l-4.97,1.36  c-18.93-3.14-37.74-6.69-56.46-10.66l11.06,3.75c27.36,6.48,54.69,10.88,81.98,13.19l1.09,2.49c0.07-0.54,0.18-1.03,0.48-1.37  c1.18-1.34,25.6,1.18,29.21,1.71c4.25-0.4,6.88,0.62,7.91,3.07l-1.54,2.51c-28.08,0.35-56.1-0.43-84.04-2.35l-3.73,2.68  c-0.73,2.45-1.81,4.23-3.22,5.34c-2.75,2.45-10.61,2.18-14.62,1.75c-3.12-0.34-6.32-0.94-9-2.65c-14.51-1.94-28.96-4.41-44.31-4.03  c-16.06,0.39-31.06-4.3-47.09-6.01c-8.3-0.89-8.76-9.35-14.17-15.09c-7.86-8.35-47.85-30.85-52.44-8.17  c-2.76,13.61,13.84,17.42,9.54,25.43c-6.06,1-16.3-2.38-18.81-8.7c8.02-26.22-20.92-6.14-50.8-30.37c-4.61-2.21-1.25-7.58,2.4-9.7  c15.04-3.99,30.2-7.2,45.69-8.88l0.95-2.4c22.51-1.28,45.02-2.56,67.55-3.84l1.54,2.26c1.84,2.72,2.67,2.79,2.48,0.23l1.61-1.18  c0.99-0.71,2-1.38,3.08-1.9c1.07-0.51,2.11-1,3.17-1.09c23.22-1.96,46.82-2.31,69.8,1.73c-0.84-14.83,20.53-12.15,28.11-4.42  c2.64-4.45,5.42-6.07,8.33-4.84c2.79-0.38,4.39,1.72,4.8,6.31c-0.77,7.2,1.83,11.37,7.79,12.5L360.85,622.46z" />
<path class="cls-10" d="M555.58,519.32c0.02,11-10.85,5.45-18.88,37.51l-4.74,1.38l-26.93-4.48c-8.36-0.48-16.55-1.66-24.58-3.54  c-1.29,3.24-3.26,2.97-3.43-0.57c-2.33,0.33-4.92,0.39-7.1-0.27c-0.08,2.2-5.33,1.3-5.86-0.59c-20.1-0.67-40.02,0.52-59.73,3.58  c2.06,2.43-0.71,10.07-3.32,11.52c4.69,2.39-2.05,11.89-4.84,15.08c-2.62,4.05-12.74-3.5-15.27-6.23l0.03-2.9l-3.75,0.27  c-25.59-15.45-57.33-10.32-85.13-4.18c-27.63,7.47-55.11,14.89-82.45,22.29l-1.01-1.08c-9.29,2.99-18.93,5.01-28.91,6.04  l-18.79,2.39c0.72,1.93,0.36,3.13-1.65,4.14l-3.97,3.19c-51.18,8.68-76.76,13.02-76.76,13.02l-4.63-1.73  c-5.74-3.59-13.09-5.83-19.99-7.08c5.98-8.24,20.12-4.31,29.2-1.56c7.13-0.51,15.28-2.05,22.81-3.81c-8.79-6.8-16.9-8.2-15.87-17.91  l0.95-2.39c10.37-0.65,20.63-1.24,30.89,0.93c8.01,0.7,18.06,4.72,23.69-0.27l64.31-14.97c1.82-1.02,2.73-1.53,2.73-1.53  c-8.74-0.1-16.85-1.96-24.32-5.56l-0.67-3.24c20.52-0.95,40.78,6.45,62.44,2.32c-4.12,0.65-4.95-5.6-7.05-5.95  c-8.77-2.97-69-2.19-65.37-16.78c5.55,2.57,8.91,5.89,14.8,5.95c-1.78-5.08-1.05-9.79,2.02-13.24c2.92-3.28,7.88-2.07,11.78-4.13  l4.16-1.04c15.22,3.76,27.79,11.5,40.65,19.66c0.54,0.34,3.79-8.63,2.3-10.56c2.19-4.15,4.8-2.77,8.13-0.72l3.34-0.37  c65.38,14.07,133.13,16.09,198.04-1.07c24.94-3.02,50.29,1.96,74.49,6.81C532.18,523.41,543.89,517.5,555.58,519.32z" />
<path class="cls-25" d="M380.93,569.8c4.82,3.5,9.73,7.97,15.24,9.13c3.14-0.09,5.47,2.65,3.43,5.47c0.13,3.49,1.35,7.05,3.65,10.67  c5.6,15.77-1.46,22.04-11.91,6.08c1.26,4.11,2.41,21.26-3.9,19.82c-0.65-0.15-1.27-0.45-1.88-0.8c-3.22,3.72-5.66-0.89-6.63-4.52  l-6.17,5.1c-5.12,4.05-9.09,4.62-11.9,1.72c-4.2,0.01-10.95-3.5-10.89-8.08c0.08-6.02-0.87-9.1-2.98-13.19l-3-0.52  c-4.8-7.3-13.21-11.84-21.74-12.93c3.57,5.8,1.26,15.51-6.25,11.76c-7.64-16.22-25.02-14.98-40.59-12.42  c-46.17,9.48-92.65,18.61-139.44,27.39c-15.25,3.1-30.51,4.54-45.8,4.32c-0.55,2.31-1.62,2.14-2.27-0.16  c-0.3,0.71-0.7,0.72-1.17,0.08c0.23,1.01-0.56,1.1-2.37,0.26c-18.73,2.02-37.57,5.18-57.85,1.68l47.39-6.51  c32.95-4.53,51.49-7.63,85.37-14.48l0.88-2.57c29.11-5.29,43.67-7.93,43.67-7.93l1.06,1.27l1.25-1.06  c23.45-6.37,46.94-12.89,70.47-19.56c32.74-7.67,69.97-13.46,101.29,1.52C378.1,570.18,379.12,569.67,380.93,569.8z" />
<path class="cls-10" d="M398.34,705.52l2.02-2.11c20.66,2.51,41.31,5.11,61.96,7.79l1.84,2.49c0.09-0.91,0.46-2.28,1.03-2.25  c12.12,0.59,30.46,2.07,42.12,4.37c2.24-0.06,3.32,0.31,3.75,2.74c-0.54,0.81-0.56,2.79-1.26,3.53c-0.85,1.71-3.12,2.01-6.81,0.9  c2.22-0.06,4.1,0.77,5.67,2.39c-0.74,8.94-4.29,17.9-8.1,25.85c-18.86-3.5-36.41-8.4-54.88-17.09c-6.15-2.89-12.47-0.97-15.6-9.89  c-0.78-2.21-6.75-3.57-8.84-3.03c-2.87,0.74-3.49,4.68-1.61,10.2c-17.68-10.98-32.47-2.65-38.61-5.45c-1.7-0.78-0.6-3.84-1.46-5.34  l0.24-2.93c5.62-2.86,10.25-6.7,13.88-11.51l2.84-0.35C396.24,703.59,397.26,703.43,398.34,705.52z" />
<path class="cls-16" d="M398.34,705.52c-0.57-0.07-1.25,0.44-1.81,0.32l-3.86,1.56l-13.41-2.82c-5.39-0.27-10.3-1.6-14.75-4  c-17.13-15.69-28.76-11.14-34.19-18.4c7.73,1.04,15.83-0.67,23.63,0.9l1.52-2.2l31.64-0.66c5.79-9.44,12.49,0.4,8.25,8.26  C410.71,672.25,409.71,700.22,398.34,705.52z" />
<path class="cls-25" d="M364.06,752.61c-20.72,3.49-103.16-4.26-116.27-21.67C290.1,743,322.25,743.43,364.06,752.61z" />
<path class="cls-10" d="M160.35,616.64l-40.04,9.98c-2.42,0.6-5.11,0.49-6.5,2.34c-1.36,1.82-1.66,4.07-1.55,6.26  c-4.63-0.88-8.77-3.42-12.62-6.01c-1.02-3.25,3.96-8.18,7.23-8.01c0.93-1.35,2.07-2.73,3.65-3.01c14.33-2.51,31.06-4.19,45.59-3.7  L160.35,616.64z" />
<path class="cls-14" d="M396.52,705.84c-3.3,6.97-10.57,10.67-16.96,14.79c-4.16-7.28-8.8-14.32-15.05-20.04  C375.12,700.78,385.93,703.57,396.52,705.84z" />
<path class="cls-7" d="M451.17,780.39c-18.3,3.44-37.59,3.26-57.01,3.61c0.32-3.53,1.23-5.77,0.67-8.27L451.17,780.39z" />
<path class="cls-14" d="M520.54,778.52c3,1.47,2.53,2.86-1.39,4.17l-2.37,0.44c-1.77,2.09-2.34,2.27-4.58,2.77  c-0.82,0.18-15.88,0.04-16.69-0.14l-2.22-1.94c-3.05-2.67-10.62,1.21-9.54-4.16c3.5-0.25,7.12-0.7,9.14-2.59  c2.77-2.6,3.55-6.16,1.99-9.41C504.13,770.84,510.51,779.76,520.54,778.52z" />
<path class="cls-7" d="M86.72,618.72c0.47,0.7,0.71,0.57,1.17-0.08c0.75-0.05,1.53,0.25,2.27,0.16c4.22,1.51,9.54,1.43,15.94-0.22  l0.76,2.64c-1.66,3.13-4.39,5.91-7.23,8.01l-15.29-10.25L86.72,618.72z" />
<path class="cls-25" d="M603.66,1125.03c-61.49,4.05-123.63,4.88-185.06,0.26c1.04-2.03,3.74-1.5,5.73-1.82  c1.11-1.65,3.3-2.35,4.48-0.71C486.55,1113.61,547.97,1117.25,603.66,1125.03z" />
<path class="cls-25" d="M531.87,1164.37c0.75-0.03,1.53,0.11,2.28,0.15c0.75-1.56,3.28-1.45,3.89,0.22  c24.21,1.34,49.19,0.85,72.51,4.79c-54.88,3.43-111,5.01-166.16-0.16C474.66,1163.34,503.2,1165.36,531.87,1164.37z" />
<path class="cls-10" d="M148.81,856.41l3.85-1.2c24.86,0.38,49.71,1.15,74.57,2.32l3.71,1.64l-0.24,6.89  c-10.25,20.49-30.25,35.34-52.59,40.1l-3.74,1.54c-36.79,1.47-72.64-2.38-107.55-11.57l-11.45-2.59  c-10.62-8.46-25.03-12.61-31.51-27.36c19.35,6.79,39.32,12.56,59.19,10.79c2.18-1.97,4.31-5.01,7.86-4.56  c3.19,0.41,3.6,2.35,5.2,5.37c12.18,0.5,24.81-1.57,36.84-2.78c-2.19-3.87-5.78-3.69-8.63-4.14l-1.76-2.25  c0.21-1.34,4.36-13.02,4.92-13.46C131.05,852.37,145.26,852.52,148.81,856.41z" />
<path class="cls-25" d="M194.4,932.19c-31.86,4.32-62.16,4.69-93.88,0.84C110.64,929.63,185.64,923.63,194.4,932.19z" />
<path class="cls-4" d="M178.11,906.16c10.21,0.05,22.07,4.11,32.95,4.18l-82.17-2.1c-21.72-0.55-43.1-3.66-62.06-12.11  C103.22,904.35,140.82,905.98,178.11,906.16z" />
<path class="cls-25" d="M982.03,663.32c15.56-0.79,31.84,2.59,48.6,4.27c-22.85,3.57-46.01,3.95-68.77,3.44  c-0.9,0.58-1.82,1.11-2.8,1.51c-0.96,0.39-1.88,0.74-2.79,0.74c-23.25-0.06-46.56-0.35-69.73-2.29c0,0-1.69-1.05-5.08-3.15  C914.49,662.87,948.44,665.02,982.03,663.32z" />
<path class="cls-25" d="M1185,647.82c-24.37,3.39-71,4.08-91.77,0.61c17.74-4.71,35.02-0.7,53.03-2.46  C1159.21,644.71,1173.07,639.5,1185,647.82z" />
<path class="cls-13" d="M881.44,667.84c26,4.42,53.55,2.59,80.41,3.19c-1.09,1.9-2.35,3.8-4.21,5.01l-82.46-2.98  C875.61,669.97,879.17,668.18,881.44,667.84z" />
<path class="cls-25" d="M1076.95,719.66c-2.35-0.1-5.7,0.02-9.54-0.47c-1.71-0.22-4.16-0.57-1.51-3.91  c13.21,1.59,27.69-4.68,41.64,2.13C1097.33,721.39,1086.63,720.06,1076.95,719.66z" />
<path class="cls-23" d="M1125.36,577.29c0.42-0.38,0.51-1.09,0.84-1.54c10.68,0.49,21.42-2.35,33.1,1.5  C1148.03,579.55,1136.33,579.73,1125.36,577.29z" />
<path class="cls-10" d="M142.97,837.85l4.23,3.58c1.5,1.27,3.43-1.95,5.51-4.42c13.51,12.07,31.13,7.8,43.74-5.44l14.79,17.53  c2.8-3.3,1.76-9.41,4.51-10.51c4.3-1.71,9.02-1.81,11.77,0.75c2.77,2.59,4.89,6.82,4.14,12.28l16.82,4.09  c-2.95-0.53-6.29-0.33-9.3-0.41c-3.45,1.24-7.01,1.88-10.67,1.75c-24.95-0.86-49.26-2.49-74.05-5.58c-1.74-0.22-3.44-0.84-5.16-1.47  c-1.73-0.64-3.39-1.44-5.04-2.29c-1.49,3.29-6.91,2.22-7.05-1.39c-16.87-4.08-34.7-5.98-51.8-14.73  C105.77,831.85,124.81,842.01,142.97,837.85z" />
<path class="cls-5" d="M144.25,847.71c1.44,0.87,5.7,4.31,6.08,5.71c0.41,1.53,0.24,2.04-1.52,2.99c-6.34-0.65-12.67,0.09-19.62-1.44  c-0.71,6.48-3.44,10.77-4.88,15.91c-16.69-2.65-36.71-4.19-47.67-20.49l52.34,4.26c1.77-3.97,3.29-8.08,8.21-8.32  C139.37,846.85,142.05,847.39,144.25,847.71z" />
<path class="cls-7" d="M56.04,793c2.06,18.32,15.35,27.25,31.13,38.66c-16.93,0.42-63.04-21.86-62.22-40.48  c7.86,16.38,23.71,25.5,40.74,31.77C58.25,814.19,51.75,804.93,56.04,793z" />
<path class="cls-5" d="M55.83,861.54c-16.28,1.03-34.47-11.78-35.03-30.86C29.82,843.42,40.88,852.3,55.83,861.54z" />
<path class="cls-7" d="M100.42,758.09c7.1,7.32,1.37,13.68,5.57,33.64C92.34,781.27,93.07,750.52,100.42,758.09z" />
<path class="cls-18" d="M663.33,502.43c0.65,2.58,2.73,3.3,5.55,2.74c25.85,0.09,51.63,0.12,77.34,0.09l3.49,1.55l-5.69,5.49  c-3.71,2.87-8.24,4.14-13.59,3.8c-28.53,0.53-57,1.9-85.39,4.12c22.29,1.81,26.47,5.32,12.54,10.53l16.42,3.93  c2.15,3.29,0.73,5.86-4.27,7.7c0.74,2.72,48.2,10.03,55.18,10.93c7.69,0.99,16.11,1.14,22.89-3.12l-20.78-2.79  c-5.15-4.5-0.23-5.91,4.71-7.21c9.74-1.64,19.39-3.59,28.95-5.85c-10.69,0.3-29.34-4.43-8.2-9.73c-6.84-0.49-21.43-4.29-8.3-9.12  c2.47-0.91,9.84-1.98,10.42,1.27c20.32,4.11,44.44,5.24,65.88,0.8c10.83-2.24,19.65-5.67,31.71-4.92  c31.49,1.95,62.46,1.66,93.52,0.38c2.34-2,14.2,0.24,15.08,1.74c1.46,2.51,2.2,4.17-0.69,5.57c-16.35,3.6-32.91,5.58-49.68,5.93  c45.01,5.42,90.32,10.14,135.94,14.16c7.17,0.4,13.19,2.62,18.06,6.65c-4.87,3.54-10.69,5.47-17.46,5.8  c-21.42,2.55-42.89,4.64-64.41,6.28c-3.67-0.12-4.31-2.4-1.92-6.83c-7.28-5.53-16.16-8.68-26.64-9.46  c3.83,1.07,11.83,5.83,9.84,10.34c-2.5,5.69-33.05,10.62-37.95,8.56c-2.33-0.98-3.42-2.31-2.85-4.78c-4.71,1.15-9.44,2.51-14.2,4.09  c-33.9,5.09-67.65,10.04-101.25,14.84c23.94,4.3,48.11,8.08,72.52,11.35l1.05,2.52l9.19,2.69c4.09,1.39,6.05,3.44,5.9,6.14  l-0.93,2.61l-13.9,1.07c-0.49,1.32,24.85,0.55,28.06,0.4c19.21-0.91,21.49-1.97,3.5-2.49l-1.47-2.52c-4.63-0.25-11.84-3.15-5.47-6.7  c1.17-0.94,2.52-1.89,3.99-1.78c16.29,1.25,32.62,2.86,48.75,5.52c3.45,0.99,2.73,3.78,1.93,6.46c4.62-1.22,19.9-3.24,21.23,2.93  c0.46,2.12-0.29,3.36-2.16,4.41l-65.82,10.44c-12.65,0.27-25.18,1.28-37.6,3.02c13.67,0.86,27.35,1.27,41.06,1.22  c17.19,1.46,17.36,9.14,1.16,13.38c-34.03,6.26-69.41,7.67-103.81,7.79c-1.64-1.56-1.14-3.13,0.25-4.87l17.62-6.05l-10.47,0.74  c-15.59,5.49-31.21,7.4-46.87,5.7c-14.86-3.08-29.84-4.73-44.95-4.95l-3.63-1.76c-0.68,0.48-1.26,0.82-1.54,0.65  c-2.9-1.8-16.31-10.76-16.41-12.99c-0.1-2.27,0.74-3.18,3.43-3.16c31.42,1.61,62.69,1.07,93.82-1.64  c-32.96-3.48-66.07-4.43-99.32-2.84c-6.23,0.13-11.39-0.12-17.18-2.56c-3.43-1.45-12.08-5.43-8.39-9.32l2.89-1.57  c21.53-0.33,43.11-0.69,64.76-1.07l-29.34-2.61c-3.86-3.87-1.2-6.56,7.98-8.09c0.28,0.73,37.95-4.6,34.06-5.33  c-39.65-7.45-84.1-4.36-123.98-0.27l-3.73-0.87c-0.7,2.04-2.4,2.37-5.09,0.97c-13.34-2.91-30.13-8.56-43.24-13.09  c-0.71-0.25-0.87-1.21-0.84-2.13c-2.48-0.2-2.28-2.73,0-3.63l0.75-2.36l91.47-2.12c-24.68-0.24-47.86-5.04-69.54-14.4  c-4.62-3.1-13.61-9.78-9.58-15.22c0.75-7.16,13.27-6.93,18.44-3.07c9.44,9.16,20.17,13.52,32.19,13.09  c-13.16-17.32-35.39-20.85-55.67-23.52l-2.26-2.68l-2.26-14.26c1.38,0.52,2.78-2.88,4.09-2.77L663.33,502.43z" />
<path class="cls-25" d="M966.82,513.13c1.93-3.98,10.94,0.01,11.36,3.76c3.13,0.41,2.8,0.97,0.04,2.35l-1.07,1.69  c-10.4,2.51-20.91,4.7-31.53,6.55l1.15,2.14l5.57-0.84c38.58,2.11,77.12,5.09,115.61,8.93c0,0,0.67,0.84,2,2.53  c6.16,0.53,12.37,4.2,18.8,3.7c-0.58,3.27-0.89,4.2-1.46,5.51c-1.8,0.91-3.61,1.77-5.49,2.47c-1.87,0.69-3.72,1.37-5.62,1.66  c-26.65,3.97-53.44,6.77-80.29,9c-52.44,3.47-104.72,8.09-156.85,13.87c4.09,0.04,6.83,1.18,8.21,3.42l140.94,16.16  c7.55,0.87,16.85,2.75,16.1,9.74c1.75,3.78-2.11,4.89-5.34,5.71l-49.3,9.77c2.05,0.26,3,0.87,2.97,3.18  c2.85,0.71,5.35,1.44,8.63,2.72c2.6,1.02,3.98,3.82,1.05,6.7c-2.98,3.66-7.57,5.74-13.78,6.22c-46.1,8.35-92.63,12.92-139.6,13.73  l-3.75-2.19l-3.22,1.68c-17.18,1.45-34.89,1.46-52.25,1.39c-1.06,0-2.12-0.3-3.2-0.65c-1.11-0.35-2.17-0.85-3.22-1.39  c-5.01-7.05-10.19-12.29-17.2-17.8l0.6-1.63c20.32-2.56,39.28,4.19,58.97,5.44c18.88,1.2,36.82-12.33,56.04-5.77l-27.25,9.31  c8.98,0.67,125.47-3.08,112.55-14.76c-4.75-4.29-46.94,0.4-59.61-5.07c16.05-6.95,32-3.4,47.46-5.85l65.57-10.42  c-6.04-10.98-29.65,5.75-20.61-8.78c-17.18-4.92-36.25-4.3-53.81-6.27c-6.87,4.16-17.4,1.62-24.87-1.22l-72.34-10.7l-4.25-1.94  c-0.81-0.37-0.8-1.96,0.02-2.36l4.18-2.07l88.67-11.69c9.71-1.28,17.95-4.42,26.94-7.4c1.58,0,1.2,3.69,0.46,5.85  c12.39-0.52,26.17-0.05,37.18-7.08c-1.87-16.13-85.92-13.64-99.66-17.81c5.65-1.67,142.32,2.22,117.65,22.75  c28.22-3.86,55.37-2.54,83.23-10.41c-21.65-7.02-43.02-7.22-64.87-9.43l-108.6-10.98c25.15-5.36,47.76-1.37,71.18-8.82  c-4.21-3.21-10.51-4.88-15.23-4.68C951.04,508.14,959.62,513.12,966.82,513.13z" />
<path class="cls-11" d="M897.89,412.36l-0.1,28.04c-0.03,7.62,6.53,10.51,13.76,12.92c-7.62,7.22-17.86,5.33-22.98,12.93  c0.05,2.92-1.64,2.98-3.08,0.48c-1.44,0.63-3.2,0.59-5.28-0.12c-1.16,0.6-2.43,1.01-3.71,0.67c-20.23-5.31-33.57-5.85-51.42,7.48  l-7.3,3.03l-0.95,1.43l-14.1,1.25c-33.5,2.42-67.28,0.92-100.94,1c1.69-5.29,7.95-3.38,5.44-9.16c-1.73-3.99-0.28-8.58-2.9-11.62  l3.25-3.31c22.82-5.02,45.89-8.32,69.18-9.9l24.09-4.54l4.51,1.3C834.96,436.72,876.14,410.55,897.89,412.36z" />
<path class="cls-18" d="M1177.75,479.15c-124.25-5.39-251.91,1.47-375.02,1.32c5.21-0.38,9.92-1.86,15.05-2.68l8.49-3.57  c16.86-1.41,33.55-3.88,50.06-7.43l4.83,0.88c1.65-1.52,2.67-1.11,2.43,1.14c1.48-0.82,3.16-0.97,5.02-0.46  c11.41,4.53,23.71,4.98,35.24,0.83c12.78-6.48,25.93-10.93,39.45-13.32c5.71-0.89,9.59,0.28,11.64,3.52  c18.32,4.5,36.83,9.99,55.66,13.34c43.95,7.81,30.34-26.92,87.14-10.71L1177.75,479.15z" />
<path class="cls-26" d="M754.59,516.76c-5.24,0.54-10.44-0.01-14.3,3.15l23.97,4.54l-20.37,4.7c7.8,4.05,15.73,0.68,24.01,4.42  c-13.34,7.81-28.2,4.9-42.24,11.29l28.42,3.82c-9.87,9.03-22.54,8.41-34.5,6.14c-18.91-3.6-37.51-4.9-55.83-11.67l10.38-6.02  l-25.82-6.18l15.96-5.02c-7.68-4.8-18.05,1.37-24.53-7.15c35.79-5.95,70.41-1.79,104.27-6.49c10.31-1.43,20.26,0.47,29.5,0.01  C766.76,514.73,760.26,513.95,754.59,516.76z" />
<path class="cls-26" d="M736.73,498.07c2.44-1.43,5.47-1.3,9.1,0.39c3.93-0.07,6.83,0.99,8.67,3.16c0.22,1.47,0.73,3.61-0.73,4.35  c-1.29,0.66-2.75,0.58-4.07,0.84c-30.12,0.04-60.25,2.53-91.81,0.03c0.32-3.38,3.76-2.76,5.43-4.41c4.67-4.61,11.64-3.23,18.75-4.48  C700.15,494.77,719.65,491.26,736.73,498.07z" />
<path class="cls-18" d="M754.5,501.62c-6.46,0.13-12.05-1.28-17.77-3.56c-1.21-1.34-0.84-3.75,0.49-3.86c1.8-0.14,3.2-2.17,4.83-2.39  c23.36-3.23,46.95-2.46,70.74-1.04C794.44,503.7,774.11,501.22,754.5,501.62z" />
<path class="cls-22" d="M1041.6,520.81l-0.07,1.67l-2.34,1.79c-6.35-1.65-12.67-4.06-17.32-8.89c-7.53-3.47-34.93-0.46-43.69,1.51  c-3.77-0.84-7.4-3.75-11.36-3.76c-2.93-7.49,29.62-5.78,34-5.52l30.75,1.85c2.52,0.15-0.98,5.26-1.95,7.26  C1034.29,517.62,1038.33,519.26,1041.6,520.81z" />
<path class="cls-24" d="M1075.78,805.16c-24.51,11.26-50.85,17.29-77.52,24.16c-10.87,2.8-46.45,10.56-46.71,21.7  c-0.08,3.31,3.16,6.09,5.7,8.43c-5.58-2.17-19.97-8.52-18.54-16.18c1.87-10.01,40.69-17.33,50.77-18.97  C1019.33,819.48,1047.98,813.39,1075.78,805.16z" />
<path class="cls-23" d="M256.66,516.66c2.92-3.82,12.48,4.62,9.53,8.37c-1.11,2.12-1.83,4.47-1.34,6.85c-0.34,2.1-1.71,3.2-3.92,2.62  c-1.48-0.39-2.85-1.97-5.46-2.31c1.03,4.48,0.29,12.18-4.78,13.44c-13.91-10.37-29.15-15.44-44.43-20.71  c-13.41-4.63-26.87-5.63-42.44-3.74l-100.54,12.2l135.71-23.56C219.72,506.22,238.51,509.69,256.66,516.66z" />
<path class="cls-5" d="M121.89,582.32l-31.84,1.46c-27.52,1.27-56.26-1.51-84.76-10.83C45.75,565.18,86.48,570.51,121.89,582.32z" />
<path class="cls-12" d="M179.11,558.76c-0.42-2.47-0.33-3.09,2.4-3.32c1.76,0.68,4.54,0.18,6.12,1.31c13.9,9.95,32.93,5.21,50.6,10.02  c-9.19-0.48-19.31,1.48-28.34,0.32c-28.52-3.67-57.33-4.75-86.22-13.07C142.48,555.84,160.59,558.58,179.11,558.76z" />
<path class="cls-10" d="M181.51,555.44c-0.13,1.47-0.64,3.34-2.4,3.32c-6.2-7.89-19.94-6.03-24.23-18.11  C163.27,546.41,171.87,551.73,181.51,555.44z" />
<path class="cls-14" d="M364.67,509.95c-6.91,19.41-10.66,5.41-5.74,20.45c-31.31,3.15-62.66,1.17-92.74-5.37  c-1.79-3.21-5.69-6.89-9.53-8.37c1.7-1.65,1.43-4.31,2.74-5.26c1.98-1.44,5.5-1.16,7.85-1.08  C300.25,511.44,332.38,512.11,364.67,509.95z" />
<path class="cls-5" d="M993.73,439.56c-22.88,21.2,0.34,12.56-18.79,19.83c-33.5-8.23-48.52,28.6-91.35,9.42  c-1.46-1.97-0.31-3.03,1.91-2.09c1.01-0.2,2.09-0.17,3.08-0.48C932.41,452.68,952.11,433.66,993.73,439.56z" />
<path class="cls-24" d="M1041.53,522.48c10.99,3.02,22.43,4.82,34.1,5.91c-0.29,3.43-3.97,3.45-5.62,5.35  c-2.36,2.72-2.37,3.48-0.05,6.49l-123.18-10.61l-0.1-1.83c9.3-2.39,18.84-4.45,28.64-6.17l2.91-2.38c-0.12-0.66-0.06-1.73-0.04-2.35  c0.16-7.23,39.18-4.87,44.93-3.67C1028.17,518.86,1034.66,520.6,1041.53,522.48z" />
<path class="cls-26" d="M805.37,444.24c-42.39,10.77-59.89,4.98-101.03,16.45c-18.99,5.29-38.4,6.63-58.57,6.4  c-16.3-0.19-31.67,2.82-46.95,5.21c-2.29-25.97,5.08-51.06,22.55-71.65c26.69-31.45,68.24-44.92,109.3-33.67  C766.6,376.82,797.64,406.04,805.37,444.24z" />
<path class="cls-24" d="M852.97,753.37c-0.08-1.32-1.17-1.61-1.81-2.01c-1.2-0.74-3.32,2.33-4.32,1.97  c-36.69-13.09-74.26-21.45-113.03-30.91c2.73-5.62,8.99-3.65,11.68-7.8c-13.98-8.7-29.82-4.25-45.72-10.51  c13.7-9.07,86.3,3.15,77.39-14.02c10.47,2,22.01-0.23,32.12,2.79c-14.04,4.02-30.21,4.2-38.1,16.46  c-2.64,17.55,94.5,13.17,90.41,36.39C860.95,749.3,856.48,751.99,852.97,753.37z" />
<path class="cls-13" d="M1087.3,549.44c1.2,1.6,0.83,3.4-0.29,3.93c-26.35,12.35-201.46,16.45-239.75,26.48  c-4.52-0.52-10.33,0.17-13.73-4.89C919.91,563.03,1003.25,563.32,1087.3,549.44z" />
<path class="cls-13" d="M805.34,657.14c-5.97,2.38-4.23-3.99-0.14-5.54c42.27-1.76,118.8-5.09,157.12-17.76  c1.46-0.48,3.32,0.29,3.3,1.69C965.32,651.66,822.22,656.89,805.34,657.14z" />
<path class="cls-22" d="M805.2,651.6c1.9,2.8-5.15,5.99,0.14,5.54c-1.62,1.58-3.95,2.14-6.12,2.63c-18.67-3.97-38.37,2.74-57.44,0.18  c-1.16-1.76-0.84-3.44,0.96-5.05c-2.05-0.74-2.45-1.46-1.18-2.17c-0.25-2.05,0.33-2.09,1.74-0.1  C763.22,651.47,784.57,652.45,805.2,651.6z" />
<path class="cls-13" d="M952.64,624.42l-4.61-1.15c-20.95-5.24,58.38-11.17,56.28-17.51C1016.27,619.12,954.61,620.95,952.64,624.42z" />
<path class="cls-25" d="M1039.2,613.87c-3.17-1.01-2.92-2.36,0.29-3.05c26.11,1.15,52.86-5.44,80.39-0.46  C1092.88,618.13,1065.27,612.31,1039.2,613.87z" />
<path class="cls-23" d="M942.18,744.07c-0.3,0.66-0.64,1.24-1.15,1.58c-5.88,3.9-31.58,3.08-38.7,0.86c-0.55-0.17-1-0.69-1.42-1.31  c-1.73-0.23-3.49-1.7-2.76-3.4C912.89,740.53,931.22,735.49,942.18,744.07z" />
<path class="cls-23" d="M909.2,711.36c-12.07,2.83-25.08,2.89-37.12-0.26C857.31,704.83,922.05,703.75,909.2,711.36z" />
<path class="cls-23" d="M1083.28,593.16c-12.01,3.04-24.58,3.43-36.9,0.22C1058.78,589.02,1071.36,589.81,1083.28,593.16z" />
<path class="cls-13" d="M900.91,745.2c13.78,0.54,27.95,2.55,41.26-1.13C945.25,753.4,895.95,751.23,900.91,745.2z" />
<path class="cls-13" d="M909.2,711.36c-9.7,5.74-28.13,5.63-37.12-0.26L909.2,711.36z" />
<path class="cls-23" d="M1039.5,610.82l-0.29,3.05c1.85-0.11-13.68-1.46-4-2.56L1039.5,610.82z" />
<path class="cls-11" d="M908.14,925.85c-14.51,4.06-118.89,26.59-74.76,47.7c-17.75,6.4-37.84,4.5-57.61,4  c-5.72-0.14-99.85-2.17-92.63,6.43c-7.02,5.03-14.8,5.83-22.82,2.56c-5.91-2.41-13.53,0.23-20.19-0.38  c-17.76-1.62-37.26-3.66-54.4,5.78c-3.21,3.49-5.71,10.97-10.23,14.48c0.48-10.45,8.78-19.32,8.19-30.22  c3.28-2.77,4.92-4.16,4.92-4.16l33.58-12.36l6.38-0.27c0.06-0.98,0.2-1.79,0.63-1.99c6.32-2.89,15.2-6.82,21.8-8.29  c33.83,1.31,67.71,0.61,101.62-2.1c9.95-0.58,19.03-3.09,27.24-7.53c-11.4-5.02-23.69-7.76-36.88-8.21l-2.06-2.72  c12.03-7.42,29.88-4.74,45.26-4.81c15.93-0.08,30.25-0.81,45.86-2.07c15.36-1.24,30.45,2.98,45.96,2.85  C888.24,924.45,900.3,920.3,908.14,925.85z" />
<path class="cls-24" d="M807.22,874.36l-0.41,1.55c-26.58,0.09-53.28-0.5-80.09-1.78l-1.33-2.39c-30.77-2.62-61.61-2.79-92.53-0.51  l-2.38-0.73c-8.16,0.51-20.98-3.9-28.46-7.34c15.65-15.41,72.2-11.17,87.64-24.88c2.47-6.41-6.96-7.51-13.09-11.17l97.16-8.08  c-16.32,6.86-33.94,7.14-47.48,17.78C723.57,851.37,805.71,848.53,807.22,874.36z" />
<path class="cls-22" d="M734.74,908.06c-6.77,2.29-14.36,6.9-18.7,12.76c6.94,7.82,16.53,6.26,24.87,7.75  c14.04,2.51,29.38,1.67,42.67,10.13c-9.21,17.57-113.79,12.54-134.41,12.73c-6.91,2.02-14.37,5.1-20.6,7.98  c-2.16-0.87-2.24-2.15-0.23-3.31l3.14-3.76c14.6-5.75,29.26-11.66,42.42-20.32l4.8-0.48c-0.14-3.29,1.25-3.17,2.18-0.03l4.98-0.76  c13.76-7.65,27-15.88,39.73-24.7C728.96,904.97,734.84,903.27,734.74,908.06z" />
<path class="cls-25" d="M725.39,871.74l81.83,2.61c4.51,0.14,8.88,1.86,13.3,2.17c-5.68,3.17-11.23,0.51-16.43,2.57  c0.04,0.84-0.41,1.23-1.04,1.67c-2.26,1.58-48.98,2.41-55.06,2.04c-3.58,0.82-5.77,0.09-6.57-2.19c-0.14,1.04-0.45,1-0.91-0.02  l-11.99,2.53c-21.22,0.34-42.4,0.67-63.54,1.01l-1.44-2.32l-1.14,2.09c-23.02-0.29-46.07-0.77-69.16-1.46l-1.35-2.38  c-14.91-0.36-28.54-1.7-42.6-3.11c13.58-1.77,26.2-2.98,38.86-3.4l43.5-1.45c0.11-0.48,0.23-0.85,0.36-0.86  c24.86-1.18,50.21-2.31,75.24-1.14C713.33,870.41,719.36,871.03,725.39,871.74z" />
<path class="cls-24" d="M796.72,885.95c-18.83,10.79-41.24,15.11-61.97,22.11c-9.5-3.89-16.6,7.62-24.15,11.49  c-7.18,3.68-15.27,5.98-21.88,11.79c-2.38,2.09-6.4,2.88-7.84,0.17l1.66-2.9c17.87-11.87,34.87-24.88,51.01-39.03l5.86-2.45  l3.49-2.42c17.46-0.36,34.92-0.71,52.39-1.07L796.72,885.95z" />
<path class="cls-25" d="M882.54,840.57c-42.15,6.42-83.1,5.13-124.57,1.04C799.47,835.02,841.33,833.16,882.54,840.57z" />
<path class="cls-11" d="M975.98,905.24c-3.12,3.58-7.98,4.54-11.53,7.55c-1.91,0-4.03,0.72-5.82,1.36c-0.95-0.93-2.31-1.06-3.59-1.13  l-99.73-4.78c1.39-2.44,4.27-0.8,6.17-1.6c0.86-0.36,1.06-1.54,0.92-3.02L975.98,905.24z" />
<path class="cls-22" d="M804.08,879.09c0.35,4.54-4.25,5.07-7.37,6.86l-57.31,1.17c-1.31-2.17-0.64-4.34,2.01-6.51L804.08,879.09z" />
<path class="cls-6" d="M725.39,871.74l-93.75,0.38l-1.16-1.61C662.2,868.52,694.43,863.79,725.39,871.74z" />
<path class="cls-8" d="M820.6,1063.92c0.73,0.03,2.62,0.88,2.72,1.63c0.1,0.72-3.08,3.44-1.1,3.57c25.57,1.65,73.01-5.13,78.98,1.72  l-0.7,1.54c7.11,0.32,13.6,1.83,19.44,4.53c1.5,0.44,1.96,1.54,1.37,3.31c24.95,1.77,49.9,2.53,74.85,2.28l3.42,1.49  c-17,9.19-36.34,14.11-55.82,19.14l-65.61,16.93c-3.2-4.5-13.26-2.07-19.32-2.66c-11.8,4.68-79.81-0.14-81.37-3.8  c-2.36-5.55,10.76-10.7,8.8-17.22c-4.51-15-84.97-22.38-100.91-24.01l43.57-2.82c0.37-3.13-4.68-2.1-4.13-4  c0.32-1.11,3.4-1.48,2.83-3.7c0.82-1.31,1.84-1.41,3.16-1.35c29.05,1.19,58.16,1.71,87.22,0.99L820.6,1063.92z" />
<path class="cls-11" d="M590.77,1032.32c0.86-6.29-2.14-9.2-1.38-15.16c45.86-0.5,91.56-0.64,137.78-3.6  c60.91-3.9,45.65-25.84,137.84,10.35c-3.07,5.22-6.81,6.71-9.77,9.14l-101.4,1c-29.81,0.29-58.3-3.9-88.4-3.14  C640,1031.56,615.53,1028.34,590.77,1032.32z" />
<path class="cls-25" d="M922.31,1068.84c33.93-0.29,68.06-1.27,101.81,2.29c-2.64,2.69-4.37,4.8-9.25,4.95  c-1.47,0.65-2.95,1.25-4.47,1.7c-1.51,0.44-3,0.87-4.5,0.93c-25.53,1.05-51.46,2.02-76.99,0.97c-1.5-0.06-2.99-0.5-4.5-0.97  c-1.53-0.47-3-1.11-4.46-1.79c-10.7-0.59-21.22-2.09-32.06-3.58c4.85-1.16,9.42-2.7,13.31-2.5  C908.27,1071.21,915.36,1068.9,922.31,1068.84z" />
<path class="cls-25" d="M820.6,1063.92c-23.23-0.86-67.64,2.37-92.99-2.06c-1.15-0.68-3.39,0.92-3.82-2.26  c33.12-4.42,66.46-4.96,100.68-0.94L820.6,1063.92z" />
<path class="cls-25" d="M210.99,774.15c3.37-1.37,6.84,0.11,7.57,2.55c0.96,3.2-0.31,6.6-2.99,7.61c-2.84,1.08-6.14,0.95-7.31-1.61  C206.91,779.78,207.17,775.71,210.99,774.15z" />
<path class="cls-16" d="M399.6,584.4c0.3-3.26,2-2.85,2.43,0.31c4.52,1.32,8.6,4.08,12.24,8.3c13.63,9.55,20.45,14.33,20.45,14.33  c6.58,2.77,11.66,6.55,15.24,11.33c-0.15,3.08-2.68,4.64-7.6,4.67c-13.64,0.44-10.14,1.37,1.08,3.04c7.13-0.69,14.07-0.7,20.83-0.01  l2.02-1.63c5.05,1.34,10.07,2.8,15.06,4.36l0.19,2.72l4.76-0.18l23.93,8.32l1.81,3.2l2.09-1.69c5.9,2.37,11.8,4.74,17.7,7.11  l0.64,2.78l-0.94,11.87l-1.49,2.74l-23.52,5.29c-3.95,4.18-9.5,6.86-16.64,8.03c1.69,1.97,1.74,3.6,0.14,4.88  c1.98,2.23,4.17,4.13,6.58,5.7l25.01,6.94l0.99,2.7c-4.61,5.82-7.45,12.89-11.55,19.04l-46.9-4.86c-2.17-0.79-3.69-2.55-4.57-5.28  l-3.29-4.01c-13.59-8.3-14.51-14.19-6.83-27.25c0,0-0.99-0.75-2.98-2.24l-37.61-3.41c-4.53-1.78-0.03-7.32,3.57-7.93  c1.86-1.41,0.41-2.18-4.35-2.31c-4.15-1.51-6.74-6.51-1.41-7.16c19.2-0.01,38.31-0.09,57.49-2.07c-12.87,0.09-24.55-2.71-36.41-3.76  c-14.19-1.68-26.47-6.78-36.83-15.31c-3.06-3.07-8.61-8.99-5.37-12.8c7.62-3.1,3.61-13.26,3.07-22.43  c6.94,0.12,7.05,9.5,13.71,10.89C406.04,596.25,391.32,584.48,399.6,584.4z" />
<path class="cls-4" d="M473.39,583.57c0.31-1.02,0.69-1,1.12,0.01l1.27,1.19c1.95-2.53,16.48,1.48,17.04,2.9  c0.22,0.56,0.34,1.17,0.42,1.79l6.99-0.09l44.71,12.37c0,0,1.94,1.34,5.81,4.01c5.81,23.02,14.69,25.23,10.15,53.2  c-10.34-3.93-19.77-4.1-28.43-7.58l-20.42-8.2c-1.58-0.84-2.29-2.52-2.14-5.05c-4.57-4.39-9.68-8.38-15.34-11.98  c-2.47-2.9-4.78-6.01-6.93-9.31l-15.23-13.16c-2.94,0.98-5.04-0.76-3.81-3.87l-6.93-5.13c-1.28,3.36-6.25,1.68-5.48-1.73  c-10.55-5.72-22.62-8.43-34.59-8.14l-2.47,2.03c-6.12,0.05-11.82-0.66-17.11-2.14l-2.43-0.31c-1.12-1.91-3.07-3.23-3.43-5.47  c-0.92-5.71,4.98-9.58,4.84-15.08l1.67-1.97c19.82,5.38,39.69,10.81,59.58,16.27L473.39,583.57z" />
<path class="cls-4" d="M644.44,629.2c1.99-3.07,6.67,0.15,8.2,2.53c1.04,0.56,1.89,0.57,2.53,0.03c0.48-2.24,1.42-2.19,2.02,0.05  l5.52-0.4l16.97,5.31c13.02,2.47,25.55,6.27,37.6,11.38l4-1.39c8.02,1.46,15.17,4.19,21.46,8.18c2.12,1.5,0.39,3.49-0.96,5.05  c-0.78-0.11-1.59,0.8-2.26,1.06l-1.33,0.85c-14.34,5.83-29.34,8.09-44.52,9.66c-11.02-2.74-29.27-9.44-37.14-17.77l-0.18-3.47  l-2.88-0.03c-10.26-7.88-23.44-9.21-35.14-3.58l-3.13-1.01l-0.66,3.01c-8.09,3.78-16.81,3.68-26.15-0.3  c-3.23,0.61-5.61,0.11-7.13-1.51c-7.82-9.84-7.3-22.86-9.27-35.22l1.61-2.02c22.78,5.52,45.58,11.05,68.39,16.58L644.44,629.2z" />
<path class="cls-7" d="M677.43,606.03l1.55,2.21c-2.68,7.51,2.33,12.82,7.86,17.2l30.3,19.78l0.13,2.88  c-20.24-4.86-41.44-8.79-60.08-16.3l-0.11-2.99c13.33-13.41-16.97-17.35-10.95-2.04l-1.69,2.42L572,611.64  c-0.84-5.29-2.21-9.68-1.86-15.1l3.16-0.95c16.43,8.14,33.95-0.34,47.61-10.16l4.87-0.67c0.95-0.38,1.91-0.7,2.9-0.87  c0.98-0.16,1.9-0.31,2.69-0.07c9.07,2.75,18.14,5.58,26.18,10.69C664.86,596.67,673.38,599.38,677.43,606.03z" />
<path class="cls-24" d="M581.3,566.94c0.77-3.26,2.61-2.93,3.31,0.32l49.16,14.26c3.34,1.07,7.26,0.93,11.76-0.42  c4.93-1.11,8.56,1.73,10.87,8.52l3.73,2.02c4.61-4.89,8.74-3.72,12.4,3.52c3.27,1.87,6.14,3.93,8.59,6.18  c4.29,9.12,15.78,9.51,25.57,9.53c36.82,0.11,73.52-2.98,111.68,5.05c-35.74,8.53-72.16,3.4-108.53,4.13  c4.01,6.57,12.4,8.24,16.86,13.15c14.36,15.8,5.5-4.41,16.6,19.44l-1.74,0.1l-4.36-1.64c-15.59-18.05-36.67-29.83-57.35-41.07  l-2.42-3.98c-16.38-8.91-33.38-16.77-51.65-21.28l-3.48,1.07c-15.15-5.61-30.56-10.23-46.22-13.85l-2.9-2.57  c0.31-2.28-0.32-4.07,2.89-3.46L581.3,566.94z" />
<path class="cls-2" d="M615.21,645.66l2.87-0.26c9.32,8.6,23.66,7.05,34.94,3.6l3.34,1.28c10,10.61,25.53,13.69,37.31,21.24  c-22.26,2.31-44.47,0.31-66.78-0.24c-12.73-0.83-27.59-8.64-38.65-3.21c-0.46-2.81-3.92-3.48-6.52-6.42  c3.62-2.05,2.71-10.83-0.44-14.79C594.57,642.62,598.55,655.08,615.21,645.66z" />
<path class="cls-7" d="M531.94,560.13l2.28,1.81c0.12,8.99,6.33,16.44,13.9,20.66l1.28,3.27c0.06,6.42-0.23,13.61,1.35,19.88  c-19.21-5.34-38.81-9.63-57.51-16.29l1.04-2.48c8.61-2.18,13.1-8.77,8.94-17.11l-8.49-12.51l1.05-3.11  c0.82-0.78,1.63-1.38,2.42-1.35c5.09,0.15,28.98,3.39,31.83,5.21C530.78,558.61,531.38,559.34,531.94,560.13z" />
<path class="cls-10" d="M575.4,726.46c0.26,0.52,0.51,1.73,0.93,2.14l-1.79,1.5c-4.7-0.87-3.57-0.1,3.39,2.3  c3.51,6.28,5.86,13.2,7.98,20.07c-1.6,0.69-3.2,1.34-4.86,1.82c-1.64,0.47-3.27,0.91-4.91,1c-16.38,0.82-33.24,0.81-49.62-0.04  c-1.64-0.09-3.26-0.54-4.91-1.02c-1.66-0.48-3.26-1.14-4.85-1.84c4.27-11.69,11.47-22.4,18.92-32.5l3.17-1.3  c10.86,2.44,21.9,4.03,33.1,4.79C571.94,723.37,573.1,724.4,575.4,726.46z" />
<path class="cls-13" d="M625.78,584.75c-15.73,11.91-36.25,23.08-55.63,11.79c0.58-9.07,1.81-18.08,3.03-27.14  C591.58,570.28,608.52,580.49,625.78,584.75z" />
<path class="cls-25" d="M590.42,513.34c23.13,3.21,48.1,6.16,62.24,28.3c-34.51,4.69-33.74-25.52-54.95-12.11  c0.27,2.5-1.09,4.8-4.08,6.9c-5.9,5.69-12.13,4.23-18.7-4.37c-0.05-2.26,0.76-4.68,2.1-6.01c2.12-2.09,6.27-0.4,8.53-1.74  C589.67,521.87,586.28,515.29,590.42,513.34z" />
<path class="cls-7" d="M555.57,517.76l0,1.56c-4.78,1.52-10.9,2.03-14.24,5.09c-4.98,4.55-2.46,9.59-0.34,17.22  c-26.89-8.23-52.27-8.9-78.11-10.81C493.27,523.27,524.22,517.37,555.57,517.76z" />
<path class="cls-25" d="M531.54,663.24c-0.54,6.9-1.22,12.89-5.85,18.47c2.67,4.28,3.16,7.39,1.59,10.85c-0.84,0.48-1.7,0.91-2.61,1.2  c-4.3,1.35-29.66-4.22-32.86-7.33c-0.68-0.66-1.25-1.45-1.79-2.26c-0.24-1.61-2.97-3.39-2.51-5.22c1.32-5.29,17.43-2.65,16.1-9.43  L531.54,663.24z" />
<path class="cls-14" d="M587.78,763.79c0.12,3.53,0.77,7.05,0.58,10.58c-0.07,1.22-1.18,2.42-1.18,3.68  c-3.76,1.26-51.8-7.24-43.43-0.42c-0.9,2.65-6.47,2.86-7.37,0c-4.41-5.51-12.1-4.11-15.8-11.11c0.95-0.76,1.93-1.48,2.98-2.04  c1.05-0.56,2.06-1.1,3.1-1.23c18.63-2.25,36.02-2.75,54.75-2.14c1.05,0.03,2.11,0.48,3.2,0.94  C585.72,762.51,586.76,763.12,587.78,763.79z" />
<path class="cls-18" d="M585.9,752.47c0.58,1.88,1.45,3.58,1.42,5.63l0.74,2.44c-0.25,1.03-0.32,2.18-0.28,3.24  c-22.68-1.38-44.75-0.89-67.2,2.73c-4.11-5.33-6.19-7.65-3.83-14.13C539.75,753.79,562.91,753.74,585.9,752.47z" />
<path class="cls-16" d="M572.77,707.69c0.32,5.95,1.99,12.99,2.63,18.77c-13.18-3.1-27.46-1.43-39.73-6.58  c3.78-5.13,6.48-12.62,11.69-16.64c0.41-0.97,1.73-1.79,2.8-1.89c1.25-0.11,19.9,3.18,21.37,3.74L572.77,707.69z" />
<path class="cls-10" d="M600.17,751.44c-1.57-5.93-2.74-11.74-3.37-17.85l50.36,7.52C631.22,747.55,615.99,748.39,600.17,751.44z" />
<path class="cls-13" d="M549.4,585.88c-10.14-4.63-18.36-14.4-17.46-25.74c-0.73-2.81,3.13-3.24,4.84-1.69l12.39,2.78L549.4,585.88z" />
<path class="cls-16" d="M509.8,722.08c-0.61,0.65-0.08,2.72-1.14,3.29c-30.89-4.24-62.56-5.59-93.13-13.45L509.8,722.08z" />
<path class="cls-25" d="M678.05,773.92c-15.47,1.43-31.06,0.4-46.6,0.89c-3.38,0.11-9.8,0.88-10.39-2.5c4.24,0.17,7.83-1.65,11.75-2.26  C647.88,769.64,664.6,769.09,678.05,773.92z" />
<path class="cls-10" d="M527.28,692.57c-1.39,3.07-2.64,4.37-4.68,6.95l-24.8-6.74c-4.48-1.22-8.13-4.3-7.78-8.6  C502.08,688.42,514.65,690.74,527.28,692.57z" />
<path class="cls-20" d="M570.51,693.67c-0.25,0.87-0.68,2.16-1.34,2.17c-1.67,0.02-13.99-1.69-14.5-2.21  c-0.71-0.72-1.15-1.52-1.22-2.56c2.36-5.55,3.48-11.51,6.61-17.56C564.94,680.07,568.01,686.86,570.51,693.67z" />
<path class="cls-19" d="M536.7,556.83c-0.13,0.5,0.15,1.1,0.08,1.62c-1.52-0.08-3.4,1.21-4.84,1.69c-11.94-2.57-23.97-5.11-36.16-5.87  c-3,3.14-7.19,2.66-9.5-1c-1.31,3.98-8.22,0.63-5.83-3.08C499.31,550.23,517.9,554.93,536.7,556.83z" />
<path class="cls-10" d="M572.4,700.8l0.37,6.89l-25.41-4.44c-0.07-1.97,2.91-3.57,3.39-5.05l2.56-2.12l16.86,2.39L572.4,700.8z" />
<path class="cls-25" d="M570.51,693.67c0.99,2.7,1.72,3.97,1.89,7.13c-7.32,0.31-14.37-2.11-21.65-2.6c0.68-2.13,1.78-4.97,2.7-7.13  L570.51,693.67z" />
<path class="cls-11" d="M584.6,563.63c0.07,1.2-0.14,2.42,0,3.63c-1.03-0.3-2.24-0.11-3.31-0.32c1.52-14.2-15.04-35.73-6.36-34.87  c4.72,4.03,7.84,9.8,9.35,17.31C586.92,555.15,587.02,559.9,584.6,563.63z" />
<path class="cls-16" d="M576.33,728.6c0.96,0.94,0.99,2.71,1.59,3.8c-15.14-1.13-30.19-3.25-46.25-6.31  C546.85,724.53,561.47,728.17,576.33,728.6z" />
<path class="cls-25" d="M522.54,778.49c0.46,0.58,1.03,0.43,1.38-0.17l12.45-0.7c2.48-0.14,4.88,0.18,7.37,0  c1.55-0.11,3.79,0.83,6.03,1.32c-9.57,4.15-20.74,1.92-30.64,3.74c0.7-1.3,1.13-2.72,1.39-4.17  C521.2,778.44,521.88,778.54,522.54,778.49z" />
<path class="cls-25" d="M735.7,775.49c-9.84,4.85-21.73,4.9-30.66,0.21C714.55,770.82,725.97,770.34,735.7,775.49z" />
<path class="cls-5" d="M552.87,939.95l-1.66,3l-38.93,13.49c-5.37,2.07-10.97,3.18-16.81,3.32c-3.77,4.23-14.14,7.88-19.53,5.94  l-9.86,5.78c-19.53,6.56-39.03,13.12-58.5,19.66l-2.08-1.77c-0.33-2.09-2.23-3.9-2.27-6.11c-3.39-3.58,3.46-10.4,7.4-12.27  c15.02-2.03,30.09-5.36,44.1-11.26c10.18-2.22,18.11-9.04,22.03-18.49c1.2,0.01,2.32-1.23,3.51-1.4c0.7-0.8,1.61-1.6,2.71-2.38  l0.84-0.02c0.63-0.88,1.52-1.63,2.65-2.26c1.34-0.37,2.5-1.16,3.23-2.35c6.31-20.36,27.17-29.4,45.48-37.14l25.67-9.43  C567.73,901.19,557.8,922.31,552.87,939.95z" />
<path class="cls-5" d="M663.53,881.82c2.93,0.48,1.95,4.61,0.26,6.18c-0.86,0.8-6.57,3.83-6.32,1.36c-1.29,1.27-3.66,2.07-4.54-0.04  c-1.55,3.01-3.53,2.96-4.54-0.27c-1.35-0.77-4.25-0.9-7.64-0.73c-0.05,0.91-0.17,2.25-0.81,2.42c-3.26,0.87-13.79,2.1-15.14-1.14  c-0.76,0.67-1.68,1.36-2.74,2.08c-3.71,7.05,9.45,6.28,14.72,5.95l1.67,2.21c0.29-1.3,1.64-1.37,2.79-1.06  c0.4-2.26,1.29-2.31,1.9-0.09c0.85-1.38,2.32-1.43,2.54,0.29c2.62-1.35,5.51-2.68,8.67-4c2.85-2.93,5.93-5.6,9.23-8.01  c4.4-1.71,32.34-1.94,36.33,0.41c3.12,1.83,4.92,3.77,0.99,5.47l-2.48,3.47c-12.31,3.59-24.5,7.47-36.59,11.64l-5.61,0.04  c-1.95,2.44-8.47,5.51-11.5,3.79l-1.01,2.74c-22.52,6.66-45.04,13.32-67.57,19.99l-2-1.85c0.95-16.08,4.29-32.17,13.34-46.38  c0.72-1.12,6.02,0.91,5.04-1.67c-0.54-1.42-0.69-3.1-0.65-4.55L663.53,881.82z" />
<path class="cls-7" d="M713.76,890.8l0.6,2.57l-21,14.76c-9.36,5.71-13.7,12.81-13,21.28l-1.66,2.13  c-14.93,10.83-33.07,17.71-50.35,24.56l-3.42,0.8c-11.9-9.04-24.44-13.44-37.64-13.22l-11.65,3.31l-3.4-1.13  c-0.17-4.59,1.65-8.76,1.91-13.18l70.58-20.88c1.03,0.22,2.1,0.75,2.21,1.73c0.95,7.93,1.63,11.53,12.02,8.12  c7.12-2.33,4.1-9.9-2.14-11.12l-0.59-2.53c13.84-7.13,29.99-9.15,44.68-15.15C700.6,888.55,712.05,887.54,713.76,890.8z" />
<path class="cls-7" d="M552.87,939.95c-1.69,6.05-0.98,13.37-1.41,19.61l-1.24,3.26c-9.68,5.28-14.44,12.23-14.29,20.83l-1.64,1.98  c-0.32,0.79-0.69,1.43-1.2,1.58c-8.4,2.45-24.21,6.96-32.43,6.82c-0.55-0.01-1.08-0.67-1.61-1.52c-0.91-0.54-1.95-1.62-1.53-2.36  c6.68-9.09,18.76-26.16-0.63-28.21l-1.42-2.18L552.87,939.95z" />
<path class="cls-13" d="M628.34,956.1c0.26,1.08,0.33,2.2,0.23,3.31c-14.46,6.68-29.76,11.59-44.88,16.79  c-2.38,0.82-5.08,1.14-8.16,1.08c-1.64-11.06-2.9-21.2-3.29-31.42C597.31,935.03,605.83,943.88,628.34,956.1z" />
<path class="cls-13" d="M572.6,837.76c-0.49,10.41-6.25,19.62-11.25,29.81l-13.86-27.09L572.6,837.76z" />
<path class="cls-13" d="M551.46,959.56c-0.54,7.78,1.18,15.93-0.28,24.38c-3.61,1.56-7.74,1.99-10.86,3.91  c-1.55-0.08-3.18-0.26-4.72,0.09c-3.13,0.49-3.57-0.28-1.3-2.3C529.15,976.52,541.64,964.75,551.46,959.56z" />
<path class="cls-6" d="M535.18,895.68c-18.03,9.12-34.68,19.47-45.48,37.14c0.67-3.08,2.64-6.34,0.49-9.95  c-1.09-1.84-4.91-2.13-6.35-4.94C499.64,908.25,517.7,902.11,535.18,895.68z" />
<path class="cls-5" d="M516.78,783.12c-5.85,8.23,1.5,15.76,4.66,24.36c-0.32,0.58-0.66,1.07-1.12,1.21  c-3.19,1.02-14.25,0.13-16.34-2.62c-2.1-8.4-11.87-13.5-10.7-22.26C500.94,781.91,509.2,784.52,516.78,783.12z" />
<path class="cls-25" d="M503.99,806.08c5.72-0.83,11.82,0.79,17.46,1.41l0.04,2.12c-4.43,1.33-9.06,3.62-13.87,3.78  c-9.21,0.31-18.75,2.63-29.04-0.82C485.78,806.52,495.46,807.32,503.99,806.08z" />
<path class="cls-13" d="M495.47,959.77c4.45-0.8,9.46,0.79,11.84,4.14c8.04,11.32-5.48,20.91-8.26,28.6l0.37,1.79  c-3.36,0.69-6.61,1.64-9.75,2.84c-20.2,1.51-41.15,6.21-60.77,2.41c-7.19-1.87-5.03-14.04,2.82-15.17  c16.69-2.33,30.25-9.17,44.22-18.67C482.38,963.54,488.78,960.97,495.47,959.77z" />
<path class="cls-7" d="M475.95,965.7c-28.31,29.92-56.61,11.03-47.04,33.85c-6.51,2.88-14-0.68-21.4-0.63c-1.65-3.7-1.5-6.43-2-9.55  L475.95,965.7z" />
<path class="cls-3" d="M454.75,959.73c-13.45,10-42.5,7.23-48.58,18.24l-2.92,5.29c-1.21-0.67-2.26-1.56-3.38-2.37  c-1.37-5.5,0.23-11.12,5.84-12.97C421.72,972.79,438.37,963.29,454.75,959.73z" />
<path class="cls-19" d="M535.59,987.93c-15.1,3.35-30.42,8.05-45.92,9.21c1.36-3.62,6.97-1.74,9.38-4.63  c11.77-0.11,23.73-4.11,35.24-6.88L535.59,987.93z" />
<path class="cls-4" d="M239.17,855.3c0.28,2.47-1.07,3.75-3.09,3.87c-1.93,0.12-3.5,0.05-5.15,0.01  c-27.39-0.66-54.89,0.02-82.13-2.77c-0.02-3.93-5.83-4.39-4.56-8.7C175.73,852.26,207.36,854.51,239.17,855.3z" />
<path class="cls-5" d="M428.81,1122.77l-4.48,0.71c0.24-1.04,0.85-2.52,1.76-2.66C427.89,1120.53,428.88,1121.13,428.81,1122.77z" />
<path class="cls-5" d="M538.04,1164.74l-3.89-0.22c-0.56-1.52,0.8-2.09,1.99-2.12C537.61,1162.38,538.65,1163.29,538.04,1164.74z" />
<path class="cls-6" d="M1014.87,1076.07c-1.28,2.08-3.74,2.92-5.63,4.44c0.49,1.84-1.46,2.73-2.54,0.89  c-1.26,0.73-2.59,1.34-3.52,2.52l-3.6,0.08c-27.06,0.58-54.45,1.59-82.13-1.88l2.49-5.2  C951.64,1078.67,983.2,1077.02,1014.87,1076.07z" />
<path class="cls-5" d="M346.99,601.19c-3.26,1.42-4.8,4.81-8.18,8.18c-6.39-6.47-16.66-10.11-24.72-4.76  c-2.19,1.46-0.63,5.84-1.5,8.24c-26.2-4.11-52.24-4-78.11-1.14c-1.25-1.14-2.62-0.82-4.09,0.95l-70.04,3.98  c-17.99,1.02-35.85,0.21-53.48,4.57c-3.77-3.41-16.76,5.33-16.7-2.42c43.5-5.41,86.07-13.63,129.57-22.78  c22.82-4.8,44.25-10.63,67.18-12.62c13.32-1.16,25.75,2.45,31.39,15.79c5.91-3.87,2.75-8.27-0.07-14.49  C329.78,585.48,341.82,591.18,346.99,601.19z" />
<path class="cls-14" d="M446.48,674.91c2.13-0.24,5.08-1.22,7.2,1.75c-6.48,3.5-9.05,17.8-3.72,20.43c6.56,3.24,13.03,9.45,14.19,16.6  l-65.82-8.17c2.16-6.98,9.41-12.6,5.04-20.57c-4.94,1.33-6,7.94-11.15,6.99c0.41-5.21,5.16-12.02-0.8-13.36  c-2.2-0.5-2.16,4.72-3.34,5.38c5.8-3.23-29.38,0.09-34.14-0.87c-1.23-5.48,2.06-8.01,5.74-10.12  C362.43,671.4,422.21,677.58,446.48,674.91z" />
<path class="cls-14" d="M376.17,661.37c1.98-1.47,4.52-1.56,7.63-0.25c9.26,0.24,18.47,0.53,27.62,0.85l1.03,1.6  c-0.06,3.23-4.13,4.47-3.57,7.93l-39.83-4.7c-29.58-3.49-59.2-10.53-85-27.8C315.35,653.36,342.07,654.09,376.17,661.37z" />
<path class="cls-10" d="M234.48,611.71c-1.4,25.71,23.89,33.98,42.26,42.9c-3.5,1.06-6.31-1.67-9.28-0.21  c3.36,3.73,8.61,1.77,11.01,5.7c-25.74-0.1-53.35-9.39-66.63-32.79c11.15,7.88,19.77,19.61,35.63,20.46  c-10.15-11.11-17.07-21.28-17.06-35.11c0-4.15,1.86-10.05,5.84-11.91L234.48,611.71z" />
<path class="cls-10" d="M385.56,620.16c5.56,17.04,25.94,22.38,42.2,28.11c-14.72-1.29-63.03-8.99-66.91-25.82  c7.61-0.03,13.23-5.21,19.29-11.57C381.39,615.62,381.82,619.74,385.56,620.16z" />
<path class="cls-10" d="M406.68,654.1c-6.43,9.85,34.54,5.95,38.34,10.92l-32.58-1.45c-11.57-0.51-25.46,2.5-36.28-2.2  c-16.29-7.84-36.14-7.49-50.84-20.56C352.72,652.38,378.74,654.12,406.68,654.1z" />
<path class="cls-10" d="M364.23,639.61c-18.64,4.95-42.58-5.93-50.22-25.59C331.98,615.95,351.98,623.02,364.23,639.61z" />
<path class="cls-14" d="M283.44,638.06c-1.05,1.74-13.44-6.87-2.35-2.19C281.73,636.13,284.55,636.23,283.44,638.06z" />
<path class="cls-23" d="M380.93,569.8c-0.62,1.3-0.74,3.15-2.6,4.64c-46.22-26.56-128.73,6.94-173.48,16c-2-1.32-0.76-2.44,3.74-3.34  C239.7,583.13,334.2,535.84,380.93,569.8z" />
<path class="cls-7" d="M427.5,551.14c-0.07,3.15,0.13,6.24,0.61,9.28c3.52,1.88,5.28,2.83,5.28,2.83c16-0.5,30.59,6.62,39.99,20.33  l-72.37-19.72c-0.49-4.04,1.25-7.77,3.32-11.52c14.46-1.85,21.69-2.78,21.69-2.78L427.5,551.14z" />
<path class="cls-20" d="M469.92,549.34l7.1,0.27c0.87,0.4,2.46,0.56,3.43,0.57c0.92,1.61,3.8,2.85,5.83,3.08  c3.59,1.57,2.51,10.56,1.13,13.78c-5.31,12.35-26.84,1.09-27.56-2.52c-0.1-0.52,0.12-1.1,0.41-1.71c0.31-0.63,0.75-1.2,1.24-1.74  c14.28-4.34,15.76-6.72,4.45-7.13l-20.18-0.61l-1.73-2.67l0.23-1.27l19.78-0.64C465.71,548.24,468.18,549.68,469.92,549.34z" />
<path class="cls-14" d="M208.59,587.09c-1.25,1.16-3.86,1.3-3.74,3.34l-45.6,9.23c-0.07-1.92-1.1-4.19-0.75-6.2L208.59,587.09z" />
<path class="cls-19" d="M464.06,548.76l-20.02,1.91c-0.59,2.17-1.55,2.17-2.15,0c-3.5-0.76-7.17-0.95-10.64,0.11  c-0.26,3.37-2.3,3.37-3.75,0.35c-7.72-0.59-15.49,0.36-23.17,1.2C422.6,545.17,444.06,548.89,464.06,548.76z" />
<path class="cls-19" d="M477.02,549.62c-1.66,1.68-6.01,2.32-7.1-0.27C472.1,547.67,474.77,548.47,477.02,549.62z" />
<path class="cls-26" d="M681.12,601.33c-6.05,0.03-12.81-5.15-14.04-10.94c-4.58,1.02-5.45,4.6-8.2,3.2  c-3.61-1.84-5.68-2.46-6.61-6.62c-2.3-10.31-18.53,1.77-18.51-5.46c42.71-7.98,90.01-6.88,134.36-0.1  c-15.81,11.67-33.86,3.81-49.86,12.21l53.77,4.8C741.3,603.47,710.97,601.19,681.12,601.33z" />
<path class="cls-10" d="M597.71,529.53c7.33,29.76,88.8,24.86,113.39,31.2l-126.5,2.9c-0.61-11.23-5.28-21.43-9.67-31.57  c6.26-1.36,6.83,7.04,12.07,5.67C591.99,536.42,593.29,532.33,597.71,529.53z" />
<path class="cls-25" d="M896.24,598.63c4.3-2.74,10.5-3.1,15.25-0.92c8.44,1.07,16.82-0.49,23.54,4.51c-21.56,3.3-41.9,4.57-63.1,1.38  C879.49,597.8,888.48,600.69,896.24,598.63z" />
<path class="cls-23" d="M906.02,591.02c-1.36,3.94,2.85,4.55,5.47,6.7c-4.53-0.58-10.41,3.15-15.25,0.92l-15.09-8.84  C889.28,591,897.86,590.1,906.02,591.02z" />
<path class="cls-22" d="M978.23,519.24c1.66,9.41-25.17,5.17-31.45,10.39c-3.04-0.26-6.62,0.02-9.57-2.74L978.23,519.24z" />
<path class="cls-23" d="M880.22,466.61c1.58-0.94,2.13-0.45,0.95,1.06c-20.42,6.48-42.23,6.76-63.38,10.12  C836.15,461.47,857.61,455.7,880.22,466.61z" />
<path class="cls-9" d="M885.5,466.72c-0.7,0.64-1.31,1.36-1.91,2.09c-0.81-0.36-1.68-0.66-2.43-1.14c-0.39-0.25-0.6-0.77-0.95-1.06  c0.72-0.71,1.63-1.26,2.73-1.21C883.9,465.44,884.82,465.98,885.5,466.72z" />
<path class="cls-13" d="M741.56,652.73c0.45,0.58,0.58,1.74,1.18,2.17c-8.65-1.6-16.96-4.75-25.47-6.79l-31.15-20.32  c-7.69-5.02-13.04-13.53-8.69-21.75C700.35,618.51,725.26,631.82,741.56,652.73z" />
<path class="cls-13" d="M739.4,887.12c-17.47,17.6-37.64,31.19-58.53,44.39c-0.59,0.09-1.64-0.35-2.18,0.03  c-7.87-16.84,24.84-31.72,35.07-40.74l2.4-3.07c7.87-3.27,15.98-5.64,24.33-7.13l0.91,0.02C743.23,882.01,741.01,885.5,739.4,887.12  z" />
<path class="cls-4" d="M740.5,880.6c-8.78,3.48-17.5,7.98-26.73,10.2c-4.02,0.97-8.81,0.41-12.85,2.06  c3.49-8.06-34.79-3.82-39.7-3.26c-3.5,5.54-9.44,10.41-15.52,9.4c-2.04-0.17-1.68-1.78,0.23-2.35c0.38-3.36,1.88-3.95,4.24-1.44  c2.26-2.97,4.7-4.92,7.3-5.83c4.14,0.33,5.4-3.99,6.06-7.54L740.5,880.6z" />
<path class="cls-9" d="M421.61,584.81c12-0.29,24.02,2.41,34.59,8.14c1.69,0.64,3.7,1.45,5.48,1.73l6.93,5.13  c0.99,1.2,3.34,2.12,3.81,3.87l14.17,12.11c8.96,6.02,5.7,18.49-5.03,16.04c-4.51-2.58-12.95-3.12-17.27-5.45  c-4.96-0.14-14.1-2.33-14.31-7.71c-17.14-9.23-34.51-19.51-47.94-33.96C408.17,583.23,415.14,583.9,421.61,584.81z" />
<path class="cls-2" d="M512.05,643.17c-9.93-3.99-21.08-5.96-30.5-11.35c3.96-0.24,6.87-3.52,8.08-7c3.09-8.93-14.96-12.8-17.21-21.15  c10.17,4.72,16.31,14.28,24.58,21.48C503.79,631.07,515.23,633.36,512.05,643.17z" />
<path class="cls-2" d="M449.97,618.67l14.31,7.71c-12.4,2.84-26.42,4.84-38.67-3.67C434.29,620.35,442.72,622.69,449.97,618.67z" />
<path class="cls-13" d="M431.25,550.78c3.47-1.05,7.12-0.89,10.64-0.11c0.68-0.03,1.49-0.13,2.15,0c10.58,2.11,21.73-1.05,32.74,3.06  c-1.41,8.06-9.43,6.02-15.61,10.26c5.9,2.34,13.81,8.55,20.28,6.17c6.18-2.28,4.25-11.77,4.82-16.89c3.14,0.36,6.35,0.8,9.5,1  c3.37,7.89,15.68,16.64,10.03,27.08c-2.34,4.31-7.04,7.75-12.57,8.12c-5.5-1.96-11.98-2.16-17.46-4.69l-1.27-1.19  c-0.34-0.12-0.78,0.09-1.12-0.01c-7.12-5.42-14.71-10.74-22.76-15.65c-6.23-3.8-22.1,1.04-24.98-7.35  c-1.15-3.35-0.36-6.97,1.85-9.43C428.73,551.23,430.01,550.77,431.25,550.78z" />
<path class="cls-13" d="M532.61,622.28c4.44,1.57,5.72,5.51,5.22,8.71c-0.27,1.75-16.37,10.99-21.82,4.09  c-2.67-3.38-4.07-10.68,1.48-12.9C521.91,620.42,528.13,620.7,532.61,622.28z" />
<path class="cls-2" d="M456.2,592.95c-11.16-4.21-22.78-6.48-34.59-8.14C432.72,582.39,447.21,585.94,456.2,592.95z" />
<path class="cls-2" d="M468.6,599.8c-2.72-1.01-6.13-2.11-6.93-5.13C464.8,595.16,467.65,596.62,468.6,599.8z" />
<path class="cls-9" d="M656.36,650.28c-12.85,5.08-32.56,6.33-41.14-4.61C629.08,637.82,646.5,639.81,656.36,650.28z" />
<path class="cls-13" d="M657.19,631.81l-2.02-0.05c-0.62,0.56-1.46,0.55-2.53-0.03c-3.04,1.16-5.61-1.9-8.2-2.53  c-1.8-5.01-2.66-12.46,3.18-13.57c4.72-0.9,12.49-1.72,14.87,3.9C664.15,623.45,660.87,629.07,657.19,631.81z" />
<path class="cls-13" d="M634.62,607.53c0.3,6.63-7.2,6.05-11.41,4.86c-3.95-1.12-6.64-7.31-2.98-11.46  C624.2,596.44,634.33,601,634.62,607.53z" />
<path class="cls-13" d="M539.59,917.35c1.24,6.3-5.56,9.69-9.77,10.07c-4.91,0.44-13.3,1.01-13.69-4.82c-0.37-5.5,5.95-9.96,9.62-9.6  C530.21,913.44,538.71,912.9,539.59,917.35z" />
<path class="cls-13" d="M656.23,908.01c4.59,0.88,8.39,3.23,9.14,8.28c0.71,4.74-4.09,7.92-9.16,8.34c-3.82,0.31-7.56,0.27-9.92-2.34  c-2.46-2.72-1.83-6.91-1.57-10.49C648.01,909.99,651.63,907.13,656.23,908.01z" />
<path class="cls-9" d="M640.76,888.32c2.84-0.46,5.38-0.21,7.64,0.73c1.47-0.3,3.11,0.47,4.54,0.27c1.83,1.67,0.91,3.62-2.76,5.87  c-1.44,0.35-2.75,1.23-4.24,1.44c-0.6,1.04-1.53,1.73-2.78,2.06c-0.63-0.07-1.27,0.12-1.9,0.09c-1.11-0.14-2.04,0.21-2.79,1.06  c-7.65,0.66-15.52,1.21-21.94-5.24c1.6-0.97,3.55-2.25,5.55-2.93c0.77-0.78,1.68-1.47,2.74-2.08L640.76,888.32z" />
<path class="cls-6" d="M657.47,889.37c-1.43,2.97-4.12,5.06-7.3,5.83c0.8-2.04,2.45-3.68,2.76-5.87  C654.4,889.12,656.3,887.81,657.47,889.37z" />
<path class="cls-6" d="M648.39,889.05c-2.58,0.53-5.46,1.01-7.64-0.73C639.2,886.8,650.47,886.18,648.39,889.05z" />
<path class="cls-13" d="M632.53,938.82c-2.85,1.89-5.68,3.02-8.02,2.57c-3.56-0.69-3.67-3.89-3.42-6.81c0.24-2.85,2.4-5.56,6.07-6.11  c2.75-0.41,7.34-1.27,8.72,1.55C637.16,932.64,635.61,936.78,632.53,938.82z" />
<path class="cls-20" d="M441.89,550.67c-3.55,0.16-7.09,0.14-10.64,0.11C434.04,548.61,438.95,549.02,441.89,550.67z" />
<g>
</g>
<g>
</g>
<g>
</g>
<g>
</g>
<g>
</g>
<g>
</g>
<g>
</g>
<g>
</g>
<g>
</g>
<g>
</g>
<g>
</g>
<g>
</g>
<g>
</g>
<g>
</g>
<g>
</g>
</svg>