<?xml version="1.0" encoding="iso-8859-1"?>
<!-- Generator: Adobe Illustrator 30.2.1, SVG Export Plug-In . SVG Version: 9.03 Build 0)  -->
<svg version="1.1" id="Layer_1" xmlns="http://www.w3.org/2000/svg" xmlns:xlink="http://www.w3.org/1999/xlink" x="0px" y="0px"
	 viewBox="0 129.9 1200 1540.5" style="enable-background:new 0 129.9 1200 1540.5;" xml:space="preserve">
<style type="text/css">
	.st0{fill:#1B7EE8;}
	.st1{fill:#FFFFFF;}
	.st2{fill:#0E3D70;}
	.st3{fill:#63C2DB;}
	.st4{fill:#8F98CF;}
	.st5{fill:#589DEA;}
	.st6{fill:#072C58;}
	.st7{fill:#6575BC;}
	.st8{fill:#94C4F5;}
	.st9{fill:#F4F7FD;}
	.st10{fill:#117786;}
	.st11{fill:#70A8E8;}
	.st12{fill:#643A2C;}
	.st13{fill:#D18B59;}
	.st14{fill:#45539F;}
	.st15{fill:#9E6245;}
</style>
<path class="st0" d="M1200,128.89v131.7c-0.12,0.74-0.38,1.83-0.92,1.88c-4.63,0.42-11.19-0.48-15.82-1.27
	c-8.76-22.55-34.32-30.05-51.37-11.28c-2.22,1.96-3.74,1.72-5.72-0.5c-20.81-25.84-46.37-34.73-72.62-10.7l-20.72,23.5
	c-11.84,0.26-23.46,1.6-34.88,4.04l-7.31,3.21l208.18,0.53l1.18,1.92v49.69c-4.05,1.26-6.08,1.89-6.08,1.89l-42.54,0.21
	l-204.18-4.82c-15.42-0.23-30.75,0.98-46.1,2.29c-14.37-18.94-42.35-22.08-64.86-24.21c-32.51-1.98-65.06-2.91-97.63-2.81
	c-33.81-1.25-65.39-7.59-98.83-14.8c-12.04-2.08-24.21-3.4-36.44-3.51c-64.96-0.57-129.93-0.78-194.89-0.44
	c-8.14-0.03-16.24-0.81-24.33-1.65l-1.06-1.25c-0.11-13.49,0.22-26.89,0.98-40.18c-0.57-0.52-0.99-0.55-1.23,0.08
	c0.98,12.83,0.75,26.4,0.25,39.42c-0.02,0.6-0.45,1.19-0.99,1.77l-0.65,1.93c-61.29,0.95-122.81,1.37-184.56,1.27
	c-17.93-0.85-39.33-1.96-55.9-8.33c-5.83-2.24-17.48-9.24-17.63-16.26c-0.07-3.29-0.1-5.23,3.47-5.58
	c-0.88-4.43,5.3-8.24,8.95-10.42c5.86-3.5,12.55-5.36,19.31-6l174.76-0.99l-5.97-2.53c-15.54-2.13-31.16-3.64-46.85-4.52
	c-8.92-8.88-18.24-17.3-27.96-25.24c-30.43-23.39-57.76-8.95-81.53,13.7l-2.5,1.01c-22.98-17.56-47.24-20.45-70.83-2.53
	c-6.65,7.75-14.41,12.97-23.26,15.66c-7.37-1.64-12.96,0.4-16.76,6.12c-11.5,1.34-23.13,0.8-34.68,0.26
	c-2.89-0.48-2.88-1.76-2.19-4.16c15.6-7.77,31.06-15.73,46.39-23.87c-14.69-12.87-35.6-6.62-46.79,7.76
	c-5.33-0.33-10.64-1.11-15.91-2.32L0,206.4v-77.76l0.93-1.92c399.25,0.08,798.54,0.17,1197.87,0.25L1200,128.89z"/>
<polygon class="st1" points="0,128.64 0,0 1200,0 1200,128.89 "/>
<path class="st1" d="M41.31,1671.4l0.93-1.92c249.91,0.09,500.2,0.17,750.88,0.26l12.29,1.92l0.92-1.92
	c101.07,0.02,202.16,0.04,303.26,0.06l1.19,1.92c0.21-0.75,0.51-1.84,1.11-1.92c3.31-0.43,9.96-0.17,13.49,0.03
	c3.76-0.68,6.23-0.04,7.43,1.94c0.21-0.75,0.52-1.85,1.12-1.92c3.77-0.45,10.91-0.23,14.87,0c3.58-0.68,5.91-0.04,7.01,1.92
	l0.08-1.28c14.08-0.73,28.42-0.91,43.01-0.54l1.12,1.92V1800H0v-127.68c0.36-2.9,3.99-3.35,4.92-0.56c0.1-0.73,0.26-1.78,0.82-1.92
	c2.17-0.56,11.83-0.76,12.39,1.89C25.21,1668.78,34.2,1668.48,41.31,1671.4z"/>
<path class="st2" d="M1200,551.04v206.6l-0.47,2.04c0,0-14.85,4.87-44.55,14.61c0.15,0.98-0.13,2.1-0.84,3.37l2.35,3.94
	c8.78,31.54,17.34,63.15,25.66,94.83l-2.33,1.62l-30.35,0.35c5.64,14,11.84,28.32,19.16,41.75l0.4,4.39
	c1.48,0.01,2.76,0.36,3.22,1.75c3.55,9.01,7.69,17.71,12.43,26.08c1.69,4.39,0.78,4.82-4.02,5.2c-7.9,0.03-15.79-0.37-23.65-1.2
	c6.41,14.93,14.52,29.14,24.35,42.63c0,0,0.16,1.43,0.49,4.29c1.18,0.09,2.17,0.56,3.06,1.32c1.16,0.99,12.66,24.58,13.48,27.31
	c0.35,1.16,0.92,3.25,0.76,4c-0.49,2.3-21.23,2.32-25.01,2.2c-4.32,0.69-7.86-0.01-10.6-2.09l-2.75,1.88l-19.29,0.66
	c-6.95-1.59-9.59,0.11-7.92,5.08l33.76,1.68l1.03,1.97c0.66-0.37,1.74-0.82,2.08-0.4c7.7,9.68,15.74,21.31,22.76,31.63
	c3.43,3.78,5.7,8.02,6.8,12.73v30.12l-1.14,1.9l-17.97-0.39c4.96,6.68,10.72,12.63,17.27,17.87l1.84,4.38v79.05
	c-1.94,2.54-8.99,2.29-10.41-0.75l-4.72,1.42c-16.97-0.65-33.91-0.87-50.82-0.67l-2.36-1.23l-1.92-0.66l-0.58-174.21
	c-11.84-0.45-23.96-0.35-36.35,0.32l-1.18-1.89c-2.51-1.31-0.88-4.42,1.79-3.88l1.94-2.07c-2.09-1.5-1.55-2.24,0.95-1.74
	c0.51-0.83,0.85-1.83,1.03-3l1.97-2.26c9.86-0.28,19.74-0.13,29.64,0.47l0.72-0.77l0.11-72.41l-0.68-0.93l-19.62-3.54l-0.32-1.66
	c-4.34-0.13-2.13-6.02,1.13-7.59c6.62-0.13,13.18-0.42,19.69-0.86c-0.05-79.28-0.39-158.51-1.04-237.71l-0.45-1.86
	c-6.38,24.4-12.39,49.13-18.02,74.18c-0.86,5.41-3.02,9.39-6.49,11.94c-1.04,0.93-2.38,1.56-4.02,1.9c0.24,3.72-3.95,3.64-6.27,2.44
	c0.17,0.47,0.28,0.92,0.16,1.3c-0.67,2.2-37.68,15.02-42.7,16.39c-2.56,1.58-4.45,1.6-5.68,0.04c-0.85-0.01-1.55,0.35-2.09,1.08
	c0.33,2.83-3.41,3.95-4.46,1.21c-1.77,0.75-3.48,1.62-5.13,2.63c-0.2,1.92-0.96,2-1.62,0.2c-1.73,0.79-3.43,1.68-5.1,2.67
	c-0.37,2.93-2.62,3.6-4.44,1.25l-4.23,2.59c0.38,2.8-3.09,3.64-4.41,1.24l-2.28,1.64c0.4,2.86-3.43,4.01-4.45,1.23
	c-1.77,0.74-3.48,1.61-5.12,2.63c-0.64,2.97-2.37,3.46-4.45,1.24l-2.3,1.62c0.37,2.85-3.42,3.97-4.45,1.21
	c-1.75,0.75-3.45,1.64-5.09,2.65c-0.19,1.91-0.94,2.01-1.63,0.22c-2.54,0.94-4.88,2.14-7.02,3.62c-0.03,1.91-0.74,1.96-1.62,0.22
	c-1.75,0.78-3.45,1.66-5.11,2.66c0.36,2.83-3.38,3.97-4.45,1.25c-1.81,0.72-3.52,1.59-5.14,2.6c-0.17,1.93-0.93,2.03-1.62,0.22
	l-5.23,2.63c0.4,2.77-3.02,3.64-4.35,1.22c-1.1,0.48-2.16,1.04-3.19,1.68c0.45,3.04-3.32,4.08-4.48,1.22
	c-1.8,0.7-3.5,1.57-5.12,2.62c0.7,3.04-3.08,4.12-4.46,1.25c-0.84,0.35-1.59,0.9-2.25,1.63c0.5,2.96-1.65,3.5-3.56,1.17
	c-1.74,0.78-3.45,1.66-5.12,2.65c0.39,2.82-3.43,3.95-4.46,1.23c-1.78,0.75-3.48,1.62-5.11,2.63c-0.18,1.91-0.94,2.01-1.62,0.22
	l-2.24,1.68c0.46,2.72-5.44,5.16-6.39,2.16c-1.68,0.85-3.38,1.74-5.11,2.65c0.19,2.56-0.71,2.54-1.75,0.22l-1.05,0.69
	c0.28,2.01-0.53,2.38-1.87,0.85c-0.83,0.02-1.5,0.39-2.03,1.12c-0.41,0.94-0.95,1.02-1.62,0.24l-2.32,1.66l-0.33,2.18
	c-1.21,0.68-12.91,5.22-13.64,5.18c-0.78-0.05-1.41-0.71-1.95-1.31l-2.29,1.65c0.62,2.86-4.91,4.61-6.35,2.17l-2.38,1.67
	c0.33,2.81-3.32,3.89-4.37,1.18c-1.74,0.78-3.44,1.67-5.11,2.67c0.23,2.91-3.2,3.92-4.44,1.24l-2.29,1.63
	c0.35,2.85-3.43,3.97-4.47,1.21c-1.76,0.76-3.48,1.64-5.16,2.63c-0.33,2.95-2.59,3.62-4.4,1.25l-2.3,1.63
	c0.11,2.88-3.14,3.82-4.44,1.21l-2.29,1.66l-0.32,2.18c-2.37,1.49-10.86,5.05-12.76,2.86c-1.74,0.82-3.45,1.71-5.11,2.66
	c0.51,2.86-3.46,4.07-4.45,1.24l-2.27,1.64c0.51,2.94-1.61,3.49-3.53,1.18c-1.76,0.75-3.46,1.64-5.1,2.66
	c0.31,2.81-2.07,3.68-3.53,1.2l-2.25,1.67c0.63,2.88-3.59,4.09-4.48,1.22c-1.77,0.73-3.46,1.61-5.09,2.64
	c0.16,1.95-0.72,2.04-1.62,0.24c-1.78,0.72-3.49,1.6-5.13,2.63c-0.35,2.61-2.89,3.37-4.47,1.22l-7.04,3.01
	c0.99,2.09-1.78,2.93-2.57,0.82l-2.35,1.65c-0.1,1.71-3.59,2.86-4.39,1.2l-2.2,1.67c-1.3,1.1-2.88,2.11-4.74,3.04l-2.05,2.55
	l-14.8,5.72l-3.23-0.73l-1.08,1.02l-1.2,2.54l-15.98,7.61c-3.48,2.1-6.36,2.33-8.63,0.67l-0.95,0.64l-1.74,2.87
	c-8.3,4.33-16.86,8.01-25.68,11.04l-3.2-1.15l-1.11,0.78c0.65,2.92-6.15,6.41-8.84,7.42c-3.33,1.88-5.43,1.7-6.29-0.52
	c-0.84,0.38-1.58,0.93-2.22,1.66c-0.1,2.04-1.63,3.51-4.59,4.4c2.76,5.93,12.03,14.32,19.28,11.04l1.85,1.07l-0.14,2.98
	c-4.7,4.37-9.81,8.22-15.33,11.54l-2.9-0.36c-1.38-0.86-1.67-2.33-0.85-4.43l-14.61-25.83c0,0,0.37-0.87,1.1-2.62
	c4.64-0.53,7.69-1.62,9.15-3.29l-14.69-32.64l0.17-1.47c3.96-1.96,8.55-2.52,13.75-1.67c-4.09-9.46-8.66-18.71-13.7-27.74
	c-3.55-12.6-8.85-24.27-15.91-35c-4.66-34.13-7.92-68.37-9.78-102.71c-0.97-8.1-0.25-15.68,2.17-22.73l2.18,2.1
	c1.92,8.42,4.4,16.7,7.42,24.84c0,0-0.33,1.28-1,3.84l1.71,1.78c3.53,13.75,7.86,27.27,12.98,40.56c0.99,4.01-1.81,3.98-4.85,3.61
	c2.48,10.65,6.27,21.11,11.39,31.4c0,4.97-4.6,4.42-8.52,3.72c0.75,3.23,8.56,20,10.26,19.68c0.6-0.11,5.79-10.26,5.43-10.76
	c-3.91,0.55-5.96,0.51-6.39-3.89l13.34-27.01c-6.5,0.9-8.97-0.65-7.39-4.65c6.52-9.28,11.72-19.05,15.58-29.32
	c-3.72,0.54-7.03,0.29-9.92-0.76l-0.68-2.44l16.06-29.52c-7.32-0.52-8.88-3.28-4.66-8.28c2.02-6.1,3.22-12.43,3.6-18.99l2.94-3.58
	l-0.52-4.3c3.16-9.21,5.66-18.66,7.07-28.31l2.4-3.65c0.6-2.36,1.48-3.4,2.65-3.12l2.16,0.79c1.36,2.39,4.91,11.35,1.73,12.49
	c0.6,0.5,1.11,1.28,1.51,2.33c2.53,1.31,4.95,8.87,3.14,11.18l1.97,2.35c2.35,13.34,5.99,26.5,10.94,39.5
	c-0.6,3.32-3.24,3.74-7.91,1.25l14.35,32.03c-0.51,3.67-2.65,4.06-5.71,2.45l6.98,16.78l1.75-10.55c1.05-2.04,1.98-3.03,3.87-1.58
	c2.86,2.19,4.28,15.32,4.12,19.33l1.58-0.48c0.58-0.65,0.83-1.42,0.77-2.31c-2.63-0.7-2.49-1.81,0.11-2.51l1.44-2.38
	c-1.77-2.67-2.1-5.83-1-9.47c0.58-4.98,3.85-22.66,6.01-25.84c1.47-2.16,2.38-1.97,4.36-0.57l0.73,7.74l3.68-10.8
	c-5.15,0.42-7.35-1.06-6.59-4.44c4.6-8.86,8.36-17.95,11.28-27.28c-4.51,1.02-7.05,0.04-7.6-2.92l15.04-60.98l2.14-0.66
	c-2.01-2.59,3-5.58,3.95-1.99c1.92,0.29,2.03,1.14,0.25,1.92c0.5,0.64,0.97,1.42,1.41,2.36l2.08,0.37l15.56,60.04
	c0.08,2.78-1.81,3.75-5.67,2.9l12.19,27.99c0.77,3.68-1.58,5.18-7.04,4.52c0.85,3.82,5.49,14.65,7.69,17.88
	c0.91,1.33,15.39-26.35,15.23-28.37l-9.93,1.34c-1.91-0.89-3.04-1.83-2.14-3.96c6.33-9.74,11.85-19.77,16.54-30.09l-11.66,1.73
	c-1.41-0.65-2.06-1.84-2.1-3.39l17.98-28.21c-5.3,1.51-8.17,0.56-8.58-2.85c6.39-16.11,11.93-32.46,16.64-49.05l1.35-11.23
	l1.94-2.84l1.32-2.43c-1.47-0.05-1.53-0.63-0.18-1.73c-3.39-2.25,2.16-5.76,4.25-2.71c2.06,2.42,3.07,5.73,3.02,9.91
	c5.04,19.07,9.89,38.19,14.57,57.36c0.87,4.05-1.36,5.7-6.69,4.96l15.6,28.35c0.02,3.9-2.84,4.67-8.59,2.32
	c3.51,8.14,7.29,16.26,11.32,24.36l-1.13,2.08c1.21,1.55,2.76,4.94,0.67,5.83c-0.78,2.59-2.49,2.3-3.67-0.07
	c-1.07-1-4.34-1.26-4.78,0.98l2.51,0.3c3.69,7.7,8.49,14.25,14.4,19.64l0.3,2.37l1.91-2.17c-0.57-0.53-1.41-1.32-1.19-1.86
	c1.64-4.01,6.1-12.53,8.51-16.08c0.83-2.81,2.23-4.09,4.21-3.85l1.83-2.19c-1.4-1.2-1.32-3.36,0.22-6.49
	c-3.97-0.1-7.98,0.1-12.01,0.59c-1.97-0.94-3.11-1.92-2.07-4.05c7.92-10.46,14.91-21.22,20.97-32.26c-6.34,1.36-9.54,0.12-9.62-3.71
	l12.75-21.73l2.36-0.23l1.67-2.24c-1.4-0.17-2.07-0.84-2.04-2.1c-3.71,1.07-16.32,4.21-13.58-2.54c6.99-8.8,14.68-18.65,15.99-29.86
	c-4.7,1.43-7.41,0.53-8.13-2.69l20.31-72.46l2.16-0.6c0.32-0.83,0.66-0.8,1.01,0.04l2.53,3.41c3.27,13.64,6.96,27.18,11.07,40.62
	c0.93,2.76,1.39,5.36-0.15,7.97l2.34,1.69c1.42,3.52,6.15,19.96,5.03,22.33c-0.81,1.73-4.28,1.86-6.15,1.62
	c4.37,8.96,8.9,17.89,13.59,26.79l-1.19,1.89c1.23,0.61,1.03,2.33-0.52,2.23c-0.72,2.58-4.8,2.39-5.37-0.18
	c-1.39-1.06-2.38-0.94-2.95,0.35l2.52,0.59l14.94,27.17c-1.36,3.14-4.89,4.14-10.58,2.99c13.15,18.32,19.73,27.48,19.73,27.48
	l8.49-18.6c-4.93-0.01-9.41-0.71-13.45-2.11l-0.52-2.43l16.58-29.43c-5.44,0.96-8.31-0.39-8.61-4.05l16.78-30.44
	c-7.47,1.88-10.75,0.28-9.83-4.81c6-20.58,11.54-41.27,16.63-62.07l3-5.21c-2.82-1.54,0.26-7.36,2.79-8.36l2.03,0.09l22.95,77.5
	c-0.51,3.37-3.55,4.36-9.14,2.98c4.72,8.6,9.42,17.41,14.12,26.43l-0.87,3.16c1.46,1.6-0.21,2.22-2.08,1.66
	c-1.31,2.4-2.54,2.3-3.23-0.41c-2.43-0.11-2.54,1.95-0.57,3.34l1.98-0.42l16.5,28.1c5.15-9.35,10.03-19.09,14.66-29.23l2.22-0.19
	l1.64-2.26c-1.17-1.81-1.76-2.72-1.76-2.72c-4.49,0.47-8.58,0.16-12.27-0.95l-0.67-2.43c5.76-10.5,10.99-20.98,15.71-31.43
	c-3.91,0.62-7.36,0.32-10.34-0.91l-0.52-2.45c5.84-9.64,11.31-19.35,16.43-29.12c-4.58,0.62-7.49,0.27-6.38-5.23
	c5.93-20.65,11.19-41.48,15.8-62.49c0.93-3.24,2.17-3.23,4.66-1.95l18.02,66.16c0.44,4.16-3.21,4.01-6.52,3.75
	c6.14,9.51,11.79,19.32,16.95,29.43c0.16,3.86-2.75,4.72-8.73,2.59c-0.46,3.57,10.37,20.93,12.4,21.02
	c0.84,0.04,5.82-10.64,5.27-12.15c-5.72,1.01-8.48-0.22-8.27-3.67c5.42-9.21,10.15-18.23,14.18-27.06c-5.48,1.05-8.61-0.06-9.4-3.34
	l18.77-33.15c-5.82,1.19-8.99,0.03-9.5-3.48l18.46-68.45c1.28-0.99,2.64-0.73,4.02,0.05l20.93,69.44l-0.67,2.54
	c-6.32-0.09-9.49-0.14-9.49-0.14l18.85,31.9c0.94,5.45-4.31,4.27-8.01,3.02l8.37,17.99c5.37,9.26,4.47,14.15-2.71,14.67
	c0.11,2.86,7.32,16.75,9.51,19.61c0.67,0.88,10.63-18.61,9.8-19.55c-5.43,0.99-8.35-0.3-8.75-3.89l15.5-35.04
	c-4.01-0.13-7.07-1.48-9.17-4.06c5.34-7.92,10.09-16.17,14.24-24.77c-5.6,0.76-8.39-0.48-8.39-3.73l12.15-27.76
	c-3.22,1.22-5.9,2.06-6.99-2l20.13-71.61c3.32-1.27,4.76,0.56,4.32,5.49c0,0,0.94,0.24,2.82,0.73
	C1198.13,528.11,1199.56,539.47,1200,551.04z"/>
<path class="st3" d="M126.81,246.62c-6.9,8.96,9.42,19.86,24.13,22.95c25.23,5.29,50.25,5.89,76.3,5.62l154.84-1.59
	c0.57,0.43,1.02,0.87,1.05,1.33c0.45,7.12,0.15,15.47-0.3,22.44l-1.46,1.15l-0.29,2.19c-8.25,3.1-7.04,14.21-0.15,17.95l0.3,2.1
	c0.52,0.46,1,0.93,1.38,1.48c1.65,2.38,1.78,18.05-1.41,20.44c0.72,3.41,1.46,8.9-2.17,10.4l-1.44,2.38l1.75,1.03
	c-11.5,58.22-23.01,116.44-34.51,174.68l-2.11,0.79l-1.58,1.85c-15.27-4.03-30.61-7.92-46.01-11.67l-5.42-0.13
	c-11.56,6.35-23.1,13.03-34.64,20.02l-4.37,0.5c-1.63,0.73-2.33,0.55-3.8,0.03c-0.79-0.28-12.91-8.59-13.77-9.38l-0.77-2.32
	c-30.64-26.82-61.93-53.44-93.89-79.87c-7.78-4.92-14.63-10.58-20.55-16.97l-1.17,3.02L5.84,507.37C3.54,509.52,1.59,510,0,508.8
	V385.92L0.67,384c76.64-0.41,153.24-0.26,229.81,0.45l0.67,1.28c0.7-0.69,0.72-1.54,0.05-2.57c-2.38,2.16-10.57,0.76-12.09-2.3
	l-2.37-1.38l-3.33,1.7c-8.03,0.05-16.05-0.02-24.07-0.21c-9.55-20.23-31.59-31.63-51.34-17.89l-2.59-0.24
	c-1.02,0.99-2.49,1.74-3.04,0.05l-3.65-0.92c-10.56-10.19-22.49-20.53-37.15-23.6c-27.34-5.71-50.16,18.82-66.89,37.05l-21.67-1.16
	L0,372.48V227.52c0.24-0.84,0.92-1.87,1.57-1.66c8.32,3.36,16.78,6.25,25.4,8.65c11.51-1.24,23.1-1.36,34.77-0.37
	c20.53,4.12,41.14,7.6,61.84,10.42L126.81,246.62z"/>
<path class="st4" d="M342.71,531.96l1.77,1c-8.77,48.24-17.55,96.49-26.32,144.77l-2.35,2.21l-0.76,2.38l-12.59,6.25
	c-5.86,3.99-11.96,7.42-18.29,10.3c0.99,1.24,0.47,2.43-0.4,3.38c5.38,0.28,10.19,1.63,14.44,4.06c28.28-3.11,56.54-6.17,84.78-9.18
	l3.71,0.65c1.65-1.52,2.32-1.01,1.29,0.98c1.42,0.05,2.17,1.24,2.24,3.57l77.86,9.88c0,0,0.73,0.87,2.18,2.61l0.11,127.47
	c-0.74,2.15-1.37,3.47-4.07,3.04l-56.42-1.35c-1.29-0.29-1.81,0.22-1.77,1.85c-6.58-0.25-13.17-0.51-19.75-0.76l-1.31-1.97
	l-1.27-3.31c0.2-44.68-0.23-88.64-1.28-131.87l-81.91,10.26l-1.38-1.76c-1.82,2.07-3.72,4.13-6.07,5.59
	c-34.87,21.81-69.71,43.61-103.83,66.63c-5.66,4.38-11.79,7.39-18.37,9.03l-7.06-1.75c-46.07-19.83-92.24-39.44-138.5-58.83
	l-6.23-3.75l-2.06-0.4l-2.28-9.95c-0.41,3.14-1.56,5.03-3.48,5.67c-0.29,0.39-0.6,0.76-0.96,1.07c-0.48,0.41-10.56-3.24-11.44-3.88
	L0,723.84v-34.56c1.94-1.96,3.95-3.92,6.38-5.26c31.79-17.52,63.48-35.24,95.12-52.98c-1.49-26.28-1.25-52.48,0.73-78.57l1.52-3.43
	c2.32-1.79,5.44,3.79,3.3,5.63c0.31,7.21,0.03,14.5-0.84,21.86c0.75,17.18,0.67,34.33-0.26,51.46c6.91-2.43,13.35-6.11,19.32-11.06
	c39.55-23.31,78.88-47.01,118-71.1l7.42-3.29c11.05-7.21,23.64-13.3,35.16-21.24C294.54,515.29,331.77,532.06,342.71,531.96z"/>
<path class="st5" d="M1200,321.6v128.49c-0.16,3.3-6.14,4.42-8.73,2.97c-3.15-0.65-4.73-0.97-4.73-0.97
	c-21.44-17.85-43.85-34.23-67.21-49.11l-2.88-3.62l-2.89,3.05c-20.77,12.38-41.09,25.5-60.96,39.34
	c-7.33,6.25-15.16,11.34-23.48,15.27l-1.5,1.37c-24.11-13.18-48.23-26.35-72.35-39.54l-0.1-2.24l-7.38-2.84L819.8,323.59l-1.74-0.26
	l-0.54,2.8c-10.33,7.74-20.65,15.47-30.99,23.21l-2.07-0.85c-2.03,1.94-3.36,2.23-4,0.88c0.02,1.26-1.15,1.88-3.5,1.87l-98.24-1.34
	c-10.3-0.56-42.46-4.24-32.98-21.72c5.73-10.56,39.73-11.67,51.05-9.43c0.72,0.5,7.27-0.96,6.92-1.01
	c-13.51-1.95-27.61-3.02-41.2-2.04c-35.83-1.7-73-8.12-108.3-14.64c-32.72-3.52-65.39-7.92-98.01-13.21l-62.13-8.28l-8.68,0.87
	l-1.09-1.96c-1.69-0.64-1.71-3.89-0.17-4.75c72.93-0.99,145.83-0.17,219.23,0.17c35.84,0.17,69,11.65,104.46,16.3
	c52.44,6.88,172.76-7.43,193.83,29.33c25.53-3.64,54.3-2.61,80.96-1.94l162.5,4.04C1164.14,322.13,1181.7,321.41,1200,321.6z"/>
<path class="st6" d="M11.44,1340.91l0.92-1.9c19.48,0.39,38.96,0.78,58.46,1.16l1.11,1.94l4.67,1.84
	c8.99,7.23,18.23,14.14,27.74,20.71l1.23,3.45l5.14,1.76l100.02,82.68c0.47,1.55-0.23,2.73-1.46,3.74l-122.17,0.31l41.65,33.3
	l-0.29,2.22l7.14,3.42l108.34,89.71c1.44,1.37,0.34,2.9-0.98,4.16l-198.55,0.38l-0.73,0.63l-0.44,79.83l-1.93,1.15
	c-7.66,0-15.44,0.31-23.17,0.33l-1.92-0.66l0.01-80.28l-5.15-0.81c-3.24,0.39-5.63-0.27-7.17-1.98c-0.57,2.82-2.94,2.37-3.9-0.16
	v-231.36c1.95-3.08,1.72-5.3,0-7.68v-7.68C0.73,1338.04,10.4,1338.02,11.44,1340.91z"/>
<path class="st7" d="M1200,450.09v100.95l-5.78-33.68c-1.92,0.81-0.24,2.67-2.94,4.14l-0.7-10.85l-20.48,72.86
	c4.04,0.1,5.44-2.26,8.37-1l-13.9,31.41l9.94-0.21c-3.39,9.64-8.95,18.16-15.62,26.87c3.21,2.72,7.14,0.43,10.44,2.63l-16.75,37.88
	c3.13,1.53,6.39,0.04,10.28,0.87c-3.34,8.77-7.29,16.89-12.61,25.25c-5.1-8.25-9.04-16.08-12.48-24.9l7.58-2.08
	c-3.14-11.25-8.95-20.02-13.25-30.71c3.16-1.95,5.82,1.44,9.7,0.29l-21.1-35.71c4.2-1.34,8.21-0.4,11.98,1.13l-21.46-71.19
	l-18.83,69.84c3.61,1.71,7.46-1.46,10.75,0.95l-20.29,35.84l12.02-0.13l-17.02,30.93l10.71-0.23c-2.68,5.52-4.24,11.85-8.44,17.15
	c-7.88-6.92-12.31-15.99-16.23-25.73c4.38-1.14,7.05,1.39,11.21,1.02c-7.06-11.39-11.81-23.45-20.41-33.89
	c3.92-0.29,6.23,1.43,9.36,0.41l-18.55-68.12c-5.85,22.43-9.85,45.45-17.45,68.02c3.23,0.95,6.18-0.86,8.86,0.76l-18.5,31.88
	c4.52,0.52,8.52-0.69,13.08,0.31l-17.86,34.41l13.48-0.01c0.32,1.82-0.11,3.31-0.18,4.64c-0.36,1.09-0.91,1.84-1.64,2.26
	l-16.43,33.99l-18.94-32.25c-2.08-1.36-2.34-4.64,0.57-3.34c1.03,0.29,2.22,0.07,3.23,0.41c2.36,0.1,3.05-0.45,2.08-1.66
	c-3.8-11.13-11.71-20.53-17.04-31.82l11.42,0.9l-23.47-79.25l-0.94-1.9c14.7-18.25,29.43-36.53,44.17-54.84l5.69-4
	c1.93-1.73,3.93-3.44,6.31-4.52c33.23-15.08,66.25-30.29,97.73-48.89c0,0,2.47-0.62,7.4-1.86c0.77-2.05,2.09-3.63,4.17-4.35
	c19.17-8,37.76-17.1,55.75-27.29l4.26-0.61C1193.47,451.48,1197.53,451.25,1200,450.09z"/>
<path class="st2" d="M1197.19,1235.43c1.37-1.17,2.31-0.41,2.81,2.29v96.38l-0.61,1.93l-20.75,0.38l19.26,2.18l2.1,2.15v305.71
	l-2.1,1.31c-12.54,0.48-25.14,0.93-37.82,1.34l-4.37-1.46c-1.6,2.15-4.12,2.91-7.56,2.3c-5.25,0.13-13.38,0.31-17.31-2.61
	l-1.92-0.92c-0.27-136.57-0.55-273.17-0.82-409.78l1.92-1.2l3.3-1.84c20.44,0.54,40.85,0.56,61.22,0.06L1197.19,1235.43z"/>
<path class="st8" d="M103.75,549.04c-1.96,26.85-0.81,54.34-0.75,82.9c-34.92,19.12-67.85,40.54-103,57.34v-148.8l1.13-2.63
	l38.08-17.4c2.86,0.45,4.1,1.12,3.13,4.51c-3.82,17.45-8.09,34.79-12.79,52.03l57.07-60.03c2.14-1.06,2.85-1.07,4.49,0.79
	c2.92,3.31,10.65,22.16,12.83,27.7L103.75,549.04z"/>
<path class="st5" d="M126.81,246.62c-32.3-0.91-62.8-15.97-94.66-10.13c-9.11,1.67-26.41-8.31-32.16-8.98V206.4l16.14,2.91
	c11.52-16.13,36.52-21.45,50.97-5.5l-49.73,25.27c12.88,0.79,24.44,0.95,36.07,0.16c11.45-16.17,12,5.07,35.06-17.62
	c22.17-21.82,52.76-21.87,76.71-1.59l17.1-14.18c19.57-16.23,45.65-16.83,66.22-1.71c10.67,7.84,19.69,17.11,29.4,26.41
	c14.25,2.56,49.24-0.99,57.03,10.56l-174.85,0.78C146.54,231.94,134.4,236.77,126.81,246.62z"/>
<path class="st9" d="M117.9,434.01l1.23,3.95c0.81,26.39,0.84,53.06-0.11,79.51c-0.52,14.41-1.1,28.9-2.75,43.23
	c-0.15,1.28-0.59,2.53-1.05,3.8c-0.47,1.27-1.08,2.5-1.72,3.71c-2.82,1.17-5.61-3.31-2.27-4.51c-0.56-0.56-1.1-1.32-1.6-2.29
	c-2.09-0.64-2.95-2.89-2.59-6.74l-3.3-5.63c-5.7-9.71-9.13-21.28-14.93-31.6l-62.98,66.25c5.51-21.66,11.06-41.09,15.22-61.96
	L0,540.48V508.8L117.9,434.01z"/>
<path class="st7" d="M132.36,362.89c1.1,0.35,2.05,0.55,3.04-0.05c7.85-7.73,21.01-9.32,32.53-5.62
	c9.53,3.06,17.09,11.86,22.21,22.22c9.32-0.05,17.97-0.72,26.59,0.04l2.37,1.38c4.15,0.09,7.99,1.88,12.09,2.3
	c1.22,0.89,1.64,2.27-0.05,2.57L0,385.92v-13.44c7.85-0.53,15.55,0.22,24.08,1.27c20.72-24.34,49.45-50.67,82.84-31.48
	C116.7,347.89,124.7,355.21,132.36,362.89z"/>
<path class="st5" d="M1200,260.59v11.32l-215.72-0.34c13.92-11.71,31.92-9.6,47.77-11.01l19.23-22.19
	c14.66-16.91,37-20.42,56.63-8.64c8.31,4.98,14.52,13.02,21.28,20.09c9.27-8.9,19.75-15.34,31.62-11.78
	c10.23,3.08,20.17,10.24,23.55,21.88L1200,260.59z"/>
<path class="st8" d="M1200,766.42v158.14l-1.99,1.84c-9.06-1.55-17.96-1.73-26.7-0.56l-2.29-1.3c-9.2-14.7-14.74-31.55-23.23-48.01
	l35.11-0.41c-10.64-32.96-18.19-65.8-26.77-98.45l0.4-2.08c14.62-3.59,29.25-7.18,43.88-10.77L1200,766.42z"/>
<path class="st10" d="M18.4,956.37l1.92,0.92c0,0,0,87.79-0.01,263.36l-1.92,1.19c-3.4,2.28-11.55,2.57-15.92,2.15L0,1222.08V955.2
	l1.21-1.85c0,0,5.32,0.34,15.95,1.02L18.4,956.37z"/>
<path class="st10" d="M21.15,733.34l-0.87,2.74l0.9,210.01l-1.92,1.19c-2.37,2.73-9.66,3.13-13.62,3.19
	c-2.85,0.68-4.73,0.01-5.66-1.99V778.56c3.89-15.47,7.46-31.02,10.72-46.66l2.62-3.24c0.79-3.84,1.59-7.78,3.97-12.1L21.15,733.34z"
	/>
<path class="st11" d="M1200,924.56v77.64c-0.05,0.74-0.16,1.79-0.72,1.97c-0.75,0.24-14.62,1.1-15.37,0.92l-2.07-1.78
	c-9.73-15.15-20.65-30.27-28.46-48.95c10.41,0.07,19.98,2.32,31.11,0.97c-7.71-9.58-9.72-21.59-15.47-30.78
	C1178.78,921.1,1189.64,924.32,1200,924.56z"/>
<path class="st10" d="M19.15,1234.46l1.87,0.8c-2.52,34.87-5.05,69.74-7.57,104.63l-2,1.02L0,1341.12V1233.6
	c0.98-2.03,2.94-2.73,5.87-2.1C9.78,1231.49,16.91,1231.59,19.15,1234.46z"/>
<path class="st12" d="M1200,1002.19v89.08l-31.63-43.96c-0.84-0.88-1.39-2.1-1.67-3.65c-3.2-2.83-4.25-5.38-3.16-7.62
	c11.38,0.37,21.11,0.12,34.75-0.6c-6.56-10.63-10.45-22.82-16.44-32.13L1200,1002.19z"/>
<path class="st8" d="M1200,1646.43v25.44l-44.21-0.1c-0.75-0.2-1.84-0.5-1.92-1.1c-0.42-3.06-0.59-18.96-0.07-21.66l1.92-1.38
	C1170.39,1645.79,1185.22,1646.72,1200,1646.43z"/>
<path class="st6" d="M77.68,1222.88c1.41,0.57,2.57,1.86,3.46,3.88c2.59,1.58,4.03,3.54,4.33,5.87c2.5-1.16,3.18,0.97,0.98,2.52
	l-5.94,1.51c-19.53-0.31-39-0.62-58.43-0.91l-2.93-1.3c-6.18-0.05-12.75-1.66-19.15-0.86v-11.52c6.07,0.1,12.32-0.77,18.39-0.23
	l3.17-1.7c17.89-0.97,35.73-0.88,53.52,0.25C75.08,1220.4,75.95,1221.23,77.68,1222.88z"/>
<path class="st6" d="M19.27,947.28c0.1-0.75,0.35-1.87,0.88-1.91c4.2-0.33,23.25-0.43,26.53,0.39l1.35,1.94
	c3.11,0.86,8.08,8.12,4.72,10.24c-1.29,0.72-2.68,1.49-4.2,1.51c-5.02,0.09-25.48-0.22-28.2-1.68c-0.7-0.38-1.34-0.87-1.96-1.4
	L0,955.2v-6.72C6.47,949.24,12.86,947.19,19.27,947.28z"/>
<path class="st0" d="M13.34,728.66c-3.46,16.8-6.33,34.63-13.34,49.9v-54.72C4.91,724,8.68,727.51,13.34,728.66z"/>
<path class="st5" d="M3.9,1588l1.93,0.64c0.33,27.31,0.67,54.62,1,81.94l-1.91,1.18c-1.63,0-3.32,0.35-4.92,0.56v-84.48
	C1.29,1587.6,2.63,1588.13,3.9,1588z"/>
<path class="st9" d="M1200,757.64v8.78l-45.86,11.25c-0.35-1.33-2.4-2.61-1.7-4.3C1152.83,772.43,1195.22,758.63,1200,757.64z"/>
<path class="st13" d="M1200,1121.39v23.76c-7.68-7.57-16.78-13.69-22.6-24.25L1200,1121.39z"/>
<path class="st6" d="M1200,1334.09v6.63c-11.03-1.21-22.58-1.1-33.85-6.02L1200,1334.09z"/>
<path class="st9" d="M1200,1224.2v13.52c-0.78-0.61-2.4-1.31-2.81-2.29c-3.54-0.88-11.73-9.34-7.6-11.98
	C1193.04,1223.88,1196.56,1223.57,1200,1224.2z"/>
<path class="st10" d="M0,1356.48v-7.68c2.65,0.09,3.21,1.65,2.66,4.31C2.36,1354.57,2.13,1356.44,0,1356.48z"/>
<path class="st6" d="M384.13,273.75c0.13,1.52,0.25,3.22,0.17,4.75c2.89-0.2,2.46,5.32-0.3,5.66c1.06,1.85,1.39,4.16,1.01,6.92
	c3.1,0.07,2.71,4.38,0.08,5.42c0.28,1.4-0.09,2.12-1.09,2.16c-1.16,2.36-1.87,2.35-2.63-0.14c1.29-8.25,0.41-16.61,0.71-24.92
	c0.49-13.7-1.01-27.66,0.74-41.19c0.2-0.91,0.62-0.89,1.23-0.08C386.61,246.12,382.97,259.85,384.13,273.75z"/>
<path class="st5" d="M285.28,1524.28l2.19-1.48c6.78,2.33,13.65,3.68,20.6,4.04l1.9,1.75l5.71-0.18
	c15.92,4.17,31.78,8.34,47.59,12.53l2.38,1.9c4.07,0.49,8.14,1.02,12.18,1.69c4.04,0.67,8.07,1.36,12.02,2.34
	c74.91,18.53,150.21,39.21,223.81,62.41c3.89,1.22,7.69,2.71,11.49,4.23c3.8,1.52,7.55,3.18,11.28,4.88l7.27,0.28l161.16,50.82
	l0.55,2.19l-764.1-0.26l0.46-83.53l201.85-0.38l-115.17-95.36l1.04-1.75c51.67,10.59,103.34,21.19,155.03,31.79L285.28,1524.28z"/>
<path class="st8" d="M943.66,1533.44l0.56,2.03l-33.4,28.01l111.43,0.86c1.31,0.96,1.44,2.33,1.06,3.88
	c-37.54,25.74-75.24,51.29-113.11,76.65c63.35,0.54,126.73,1.06,190.12,1.56l9.63,1.16c0.75,0.18,1.88,0.45,1.96,1.04
	c0.56,4.11,0.9,13.49,0.59,17.61c0.68,2.86,0.1,4.68-1.74,5.47l-305.37-0.06l-168.98-53.28l0.15-2.03
	c96.17-26.2,192.8-51.41,289.88-75.63c5.31-1.4,10.45-3.63,14.55-7.4L943.66,1533.44z"/>
<path class="st12" d="M18.14,1671.73l-13.21,0.03L3.9,1588c4.53-0.46,9.08,0.19,14.24,0.99L18.14,1671.73z"/>
<path class="st6" d="M1155.71,1647.63l0.08,24.14l-23,0.01l-2.02-1.47c0.72-7.21,0.36-14.17-1.07-20.87l1.15-2.12
	C1139.08,1647.21,1147.27,1648.69,1155.71,1647.63z"/>
<path class="st12" d="M1130.85,1647.32c3.77,7.4,1.19,16.18,1.95,24.45l-22.02-0.06l-0.81-24.12c0.08-0.75,0.28-1.86,0.81-1.93
	c1.8-0.23,17.83-0.62,18.69-0.25C1130.19,1645.73,1130.55,1646.57,1130.85,1647.32z"/>
<path class="st7" d="M828.55,421.4l0.54,3.21l-80.41,160.95L643.89,708.13c0.98,3.35,4.71,1.99,7.09,0.5
	c4.82-4.01,10.01-6.49,15.55-7.44c7.17,2.3,14.66,3,22.49,2.11c5.09,0.25,9.82,2.14,14.17,5.68c3,0.63,5.03,1.84,6.11,3.61
	c-0.51,0.94-1.04,1.87-1.67,2.71c-0.62,0.82-1.25,1.61-2.02,2.22c-8.47,6.63-17.16,13.25-25.85,19.59
	c-0.79,0.58-1.75,0.93-2.75,1.27c-1.01,0.35-2.07,0.56-3.14,0.74c-1.55-3.2-3.05-7.38-3.14-11.18l-1.51-2.33
	c-0.24-4.68-2.98-8.72-3.89-13.28c-0.76-1.29-1.64-0.25-2.65,3.12c-1.38,12.44-4.75,24.68-8.95,36.26l-2.56,3.95
	c-11.81,9.99-24.3,18.81-37.47,26.49l-5.06,6.22c-2.28,3.06-4.21,3.65-5.78,1.78c-2.22-9.91-7.69-20.05-8.6-30.78
	c-1.89-1-2.94-3.27-3.13-6.82c-5.77,26.63-13.21,53.71-22.31,81.24c5.81-1.14,8.79,0.01,8.94,3.45l-12.55,28.73l1.17,1.93
	c10.01-2.32,7.81,3.69,3.6,10.79c-5.87,9.62-11.01,19.59-15.4,29.91l-2.71,2.14c0.1,2.68-1.38,2.79-2.62,0.47
	c-1.44,1.22-1.95,0.56-0.87-1.03c0.14-1.19-0.18-1.57-1.19-2.27l-2.28-1.08c-0.74-5.29-1.97-10.43-3.72-15.41l0.98-2.27
	c-0.54-0.77-1.01-1.88-1.41-3.33l-2.13-2.41l-2.59-12.63c-2.47-13.61-4.77-13.39-6.89,0.66c-2.29,15.18-6.32,29.86-12.09,44.02
	c-1.39,1.82-2.77,1.36-4.42,0.04l-11.32-55.25c0,0-4.85,20.61-14.56,61.82c-1.06,4.66-2.23,4.28-5.09,1.22
	c-2.55-16.98-6.55-33.55-11.99-49.69c-0.75-0.08-1.87-0.29-1.93-0.81c-0.5-4.23-0.64-13.82-0.28-18.09l1.9-1.39
	c-0.05-1.11,0.86-1.44,2.73-1.01c-20.86-1.78-42.05-3.87-63.57-6.27c-1.3-2-0.66-2.31,1.32-2.05c18.94-2.45,38.61-0.7,58.57-0.52
	l-0.11-129.3l-79.8-10.11c-1.01-1.58-0.49-3.84-0.56-5.29c2.71-1.77,5.9-2.2,9.58-1.27l12.85,1.56c23.35,5.31,46.68,7.02,69.98,5.13
	c1.95,1.13,2.76,0.04,2.43-3.28c-6.88-2.83-13.35-6.5-19.41-11.01c-5.15-2.24-9.15-5.28-12.01-9.12c-1.19-2.13-2.38-4.34-2.84-6.77
	c-3.51-18.87-6.99-37.86-10.31-56.77c-0.21-1.19-0.14-2.43-0.05-3.69c0.09-1.28,0.32-2.55,0.59-3.81l5.33-5.7
	c38.41-30.26,76.99-60.33,115.72-90.19l6.73-3.88c1.88-3.08,4.82-5.48,8.82-7.19c15.36-12.54,31.28-24.26,47.76-35.15
	c0,0,1.27,0.09,3.8,0.28l14.84-8.95l76.66-35.4c2.43,0.51,3.77,1.09,2.8,3.72c-7.06,12.96-14.04,25.95-20.93,38.96l66.66-58.46
	c1.69-0.25,2.66,0.75,3.3,2.31L763.23,455l51.8-55.74c1.61-1.11,2.43-1.27,4.06-0.11c2.61,1.86,8.97,15.93,10.27,19.72L828.55,421.4
	z"/>
<path class="st14" d="M955.18,416.6l73.96,40.41c5.48-0.49,14.3,4.37,16.36,9.51l2.97-0.33c5.98,3.98,12.47,7.27,19.54,8.77
	c18.12,2.45,36.25,4.79,54.38,7.03l0.91,1.96c1.15-2.7,3.88-1.32,3.8,1.35c-35.55,19.41-72.73,40.59-111.44,55.28l-6.17,4.39
	c-39.77,14.99-80.5,31.13-116.18,53.23c-0.86,1.56-1.95,2.79-3.27,3.7l-1.01-0.04l-2.05-0.56c-25.27,15.69-50.47,31.48-75.61,47.35
	l-4.1,1.34c-1.18,0.85-4.04,0.41-4.25,2.71c-0.86,1.09-1.61,2.31-2.24,3.67l-56.61,35.42l-4.01,3.99c-1.63-0.45-2.88,1.18-3.95,1.99
	c-1.08,1.16-2.84,1.95-5.25,2.35l-19.41,13.26l-2.23-0.8c-5.67-0.11-10.48-3.95-14.21-6.55c-9.26-2.38-18.31,1.46-27.45-2.58
	c-7.98-3.52-19.84,16.87-26.4,4.81l105.82-123.73l81.48-163.14l3.18,1.71c2.76,4.09,12.08,21.84,11.09,25.44
	c-0.18,0.64-0.47,1.24-0.81,1.83c0.61,0.01,1.09,0.22,1.47,0.7c1.54,1.91-0.6,1.71-0.03-0.02c0.11-0.33,0.61-0.54,1.23-0.71
	c-2.29-0.67-2.15-3.02,0.16-3.9l-0.35-10.56l5.63-37.44c0.33-1.81,2.06-2.28,3.68-2.09c22.45,15.65,45.89,29.82,69.48,44
	l-14.93-32.33c0.45-3.48,1.5-3.99,5.11-2.9C927.5,408.61,941.41,412.43,955.18,416.6z"/>
<path class="st8" d="M1099.99,794.75c0.95-1.15,3.08-1.44,3.08,0.39l1.69,1.13l-20.12,77.16c9.49-0.16,18.98,0.07,28.47,0.68
	c5,0.6,5.12,4.61,0.37,12.04c-5.63,13.5-12.09,27.84-20.99,39.27l-1.88,1.86l-123.15-4.2c-20.19,20.03-41.38,39.76-63.58,59.19
	l-22.34,22.41c-26.2-0.98-52.44-2.36-78.72-4.12l-1.04-1.98l-2.11-1.15c0.25-5.48,0.11-10.92-0.42-16.3l1.39-1.86
	c-2.31-0.72-4.78-0.92-7.42-0.6l-1.1-0.91c0.39-5.21-1.42-28.98-7.62-29.37c-7.1-0.44-11.08,23.22-10.05,28.9l-1.68,1.65
	c-0.22,1.52-1.77,2.36-4.68,2.52l-0.33,16.57l-1.95,1.32l-3.99,0.8c-31.59-3.13-62.26-2.96-93.88-0.96
	c-2.93,0.19-7.4,4.25-9.54,6.22l-2.56-0.07c-8.33,6.24-20.53-5.86-24.24-12.41c2.61-1.84,5.28-3,7.69-4.11
	c0.35-0.72,1.09-1.27,2.22-1.66c5.14,0.28,10.31-4.25,15.13-6.9l1.11-0.78c10.79-2.52,20.45-8.37,30.62-12.76l0.95-0.64
	c9.24-1.73,17.03-7.56,25.81-10.82l1.08-1.02c6.63-2.74,13.1-5.82,20.08-7.54c74.12-29.38,150.38-53.58,226.01-77.03
	c36.01-9.8,66.28-28.68,96.79-48.61c9.79-6.38,20.04-11.67,30.75-15.88c-0.88-2.17,0.39-4.38,3.8-6.62c0.37,0.9,0.39,0.44,0.05-1.37
	L1099.99,794.75z"/>
<path class="st10" d="M1131.69,1222.97l-0.84,1.94c-19.4,0.35-38.8,0.71-58.21,1.06l-1.17-1.9l-3.39,1.93
	c-14.68-1.21-29.36-1.89-44.05-2.04l-3.53-1.64l-1.85,2.06c-7.58-0.35-15.15-0.29-22.7,0.2c-2.12-0.28-2.23-1.77-1.89-3.79
	l7.72-9.33c0.77-2.39,1.95-3.9,3.51-4.53c0.17-1.76,1.33-3.42,3.49-4.97l5.03-7.9l2.21,0.22l1.65-4.57l64.22-68.53
	c-13.76-0.56-27.54-0.27-41.33,0.88l-2.92-1.94c-3.93-2.15,2.35-9.2,4.9-11.48c-0.81-0.37-0.7-0.58,0.25-0.65
	c-0.41-2.03,0.46-2.69,2.6-1.99l-0.97-1.88c15-19.28,30-38.56,45.01-57.85l2.23,0.27l39.45-1.05L1131.69,1222.97z"/>
<path class="st10" d="M594.28,759.36c-2,40.85,5.1,82.91,9.39,124.84c6.39,8.63,10.51,18.1,13.44,28.29
	c3.47,12.07,13.29,23.54,16.95,36.87c-5.07,0.53-10.5-0.73-15.02,0.52l14.77,32.03c1.16,2.52-0.62,4.77-2.8,4.95
	c-1.82,0.16-4.04,0.37-7.61,1.46l14.84,25.72c1.01,1.76-0.6,3.96-0.75,5.46c-0.09,3.55-6.27,7.87-9.48,9.99
	c-2.61,2.56-4.93,3.15-6.94,1.77l-3.49,1.81c-23.71-0.76-47.41-1.52-71.1-2.28l-1.1-1.96c-2.19-1.8-0.97-3.12,0.92-4.58
	c-2.46,0.17-9.66,0.39-9.93-2.28c-0.04-0.45,0.1-0.92,0.3-1.39l-1.31-1.54l16.8-28.01c-5.23-0.43-7.79-2.33-7.69-5.71l18.31-34.6
	l-13.17-1.01c-2.13-1-3.26-2.04-2.05-4.34c5.38-8.86,10.33-17.94,14.85-27.23l3.03-2.32c-0.17-2.26,1.35-4.6,3.72-4.79l-0.71-1.37
	c-4.88,0.55-7.5-0.57-7.89-3.38l13.92-38.06c-2.69-0.69-5.39-0.79-8.08-0.31c-0.91-0.11-3.23,0.41-3.75-0.81l13.82-31.65
	l-10.36,0.37c11.18-28.96,16.72-58.83,24.02-89.25C593.27,750.53,593.92,755.18,594.28,759.36z"/>
<path class="st10" d="M1097.36,1035.84c-0.16,1.84-0.87,1.79-1.18-0.07c0.03,2.55-0.93,2.42-1.61-0.05
	c-8.34-1.5-16.98-1.55-25.31,0.06c-0.09,0.83-0.38,0.86-0.87,0.14c0,2.5-4.41,2.44-6.08,1.67c-4.39-2.02-3.94-9.57,0.47-11.17
	c-0.56-1.9,0.31-3.96,2.62-6.16c0.63-2.43,1.76-3.91,3.38-4.44c-0.22-1.63,0.63-2.94,2.54-3.92c4.06-6.51,6.1-9.76,6.1-9.76
	l2.44-0.95c-0.22-2.5,1.99-7.24,4.79-7.38c0.62-3.78,0.92-5.67,0.92-5.67l18.46-30.57l-24.09-0.91c-1.95-0.4-2.77-1.01-2.8-3
	c-0.01-0.92,6.75-15.47,7.57-16.66l2.12-1.02c-0.7-1.48-0.28-3.07,1.25-4.8c0.71-3.4,2.18-5.31,4.41-5.75
	c8.28-16.49,15.98-32.52,23.25-49.03c-12.04-1.82-21.93-0.58-33.61-0.97l20.93-80.29c-1.68-1.15-0.86-1.95,0.94-2.28
	c7.1-15.39,8.64-31.69,12.82-48.07l12.02-47.13c3.44,12.33,2.4,23.56,2.44,35.93l0.64,214.54c-7.38,1.82-14.38-0.33-21,0.81
	c-1.8,0.31-3.19,5.69-1.5,6.35c-10.18-3.96,26.62,5.47,22.3,2.16l-0.12,78.38C1119.06,1036.73,1108.08,1033.77,1097.36,1035.84z"/>
<path class="st13" d="M1063.73,1011.8c1.84-3.04,7.56,1.55,5.04,4.02c-0.18,4.15-2.86,7.45-6,10.6c-1.39,2-2.48,2.67-3.28,2.02
	c-0.24,2.94,0.25,22.42,0.87,23.41c0.37,0.6,6.09,0.17,6.65-0.92l-0.5-13.62l1.87-1.39c0.12-0.01,0.38-0.14,0.87-0.14
	c8.33-1.62,16.95-1.57,25.31-0.06l1.61,0.05c1.22,0.34,1.53,2.52,0.16,3.07l-0.95,1.74l-1.94,2.07l-1.79,3.88l-46.27,59.47
	l-1.72,0.83c-1.95-1.8-3.89-3.65-5.82-5.57c-1.52,2.17-2.32,1.5-1.89-1.09l-2.06-1.94c-1.98,1.87-3.34,0.35-2.76-1.98
	c-0.86-0.53-1.55-1.15-2.08-1.88c-1.49,2.09-2.24,1.56-1.75-0.94c-0.85-0.55-1.54-1.2-2.07-1.95c-2.24,1.49-3.27,0.61-2.73-1.89
	l-2.14-1.99c-0.09,0.87-0.36,0.82-0.78-0.03l-1.01-0.91c-2.58,0.75-7.8-2.68-6.68-5.72l-1.06-0.92c-0.07,0.85-0.32,0.83-0.74,0.03
	c-0.92-0.53-1.64-1.2-2.16-2c-1.61,1.92-2.88,1.38-2.64-1.11l-3.81-3.6c-2.18,1.35-4.66-0.83-4.15-3.31l-2.71-2.31
	c-1.83,2.03-2.82,1.07-2.01-1.39l-2.73-2.43c-1.91,1.71-2.39,1.26-1.82-1.19c-0.91-0.53-1.63-1.18-2.17-1.95
	c-2.01,1.58-2.37,1.38-1.88-1.12l-2.99-2.53c-0.46,0.75-0.75,0.61-0.89-0.33l-2.73-2.71c-2.5,1-3.04-0.21-1.14-2.05
	c-1.48-2.8-1.83-6.24-1.04-10.32l-0.36-12.53l-8.01,0.08c0.12,4.05-0.12,8.08-0.71,12.08l-2.28,1.2c-0.61,0.49-1.55,1.2-2.04,0.89
	c-8.03-5.2-18.26-12.72-25.63-18.82l0.01-2.38l-1.31-1.66c-0.11,0.84-0.37,0.81-0.77-0.02l-4.76-3.62l0.59-1.28l-0.73-1.89
	c20.91-18,42.07-35.61,63.48-52.83l2.09,0.57l59.33,42.86C1057.74,1006.36,1060.94,1008.85,1063.73,1011.8z"/>
<path class="st5" d="M889.02,601.86l-20.8,74.22c3.41,0.76,5.95-1.16,9.11-0.05c-1.99,12.64-9.22,23.15-17.9,33.49
	c8.51,1.99,15.2-5.75,14.89,2.58c-0.36,1.03-0.92,1.78-1.67,2.24l-13.89,23.67c4.22,1.09,7.94-0.93,11.62,0.8
	c-6.05,13.32-15.73,23-23.25,35.51c5.42,0.58,10.43-1.97,15.18,0.05c0.05,3.28-1.5,5.55-2.24,7.84c-0.55,0.89-1.16,1.61-1.83,2.19
	l-11.54,21.8l-1.91,2.17c-7.91-3.95-11.86-14.6-17.21-22.3c-0.97-1.84,3.71-2.24,4.78-0.98c1.17,0,2.52-0.2,3.67,0.07
	c1.67-1.24,0.81-3.62-0.67-5.83l-13.58-28.39c3.82-0.74,6.68,1.39,10.85,1.55l-17.73-32.22c3.02-0.75,5.34,0.33,8.46,0.04
	c-2.85-22.17-15.58-50.73-16.09-70.31c25.7-18.43,53.42-34.27,80.58-51.21C888.91,599.75,888.77,600.98,889.02,601.86z"/>
<path class="st9" d="M765.83,999.35c2.9,1.37,2.58,7.01-0.01,8.71c-1.63,2-3.98,2.75-7.04,2.23l-11.21-0.56
	c-16.75-3.44-33.23-4.07-49.43-1.89c26.95,25.03,55.56,48.13,85.82,69.3c10.35,8.06,20.68,16.21,30.25,25.2
	c0.72,0.67,1.23,1.57,1.74,2.51c0.52,0.94,0.91,1.95,1.27,2.99c4.02,0.25,3.6,8.43,0.58,10.32c-0.58,2.54-1.14,2.62-2.53,0.41
	c-3.49,0.75-7.03-0.32-10.62-3.21c-33.39-23.34-67.36-47.17-101.92-71.49l-5.76-5.32c-3.55-3.06-7.35-5.81-11.39-8.26
	c-1.92,1.65-2.3,1.28-1.86-1.16c-1.6-0.83-2.92-1.84-3.98-3.02c-1.01,1.91-2.57,0.74-2.16-1.26c-2.12,0.25-4.25-0.97-6.39-3.65
	l-5.38-3.08c-43.89,32.37-87.17,64.35-129.83,95.93c-1.1,2.73-2.48,4.51-4.14,5.35c-1.74,2.2-5.78-1-7.08-2.92
	c-3.25-4.8-1.63-10.94,2.44-14.6c28.03-23.54,57.08-45.53,87.15-65.99c1.85-2.38,4.09-3.91,6.73-4.59
	c6.19-2.47,11.03-8.07,16.42-11.77c6.36-4.37,13.23-8.23,18.37-14.16c2.58-2.97,8.27-7.78,12.63-8.16
	C701.19,994.37,733.81,995.28,765.83,999.35z"/>
<path class="st5" d="M1015.65,540.58l-48.92,60.74c-0.11,2.84-2.32,5.85-2.79,8.36l-3.05,4.68c-14.19,11.43-28.8,22.2-43.82,32.31
	l-7.79,7.36c-2.23,1.46-4.84,2.82-5.8-0.13c-3.5-17.61-10.78-34.41-13.44-52c-0.85-5.6,6.82-8.05,10.8-10.38
	C937.38,570.12,976.86,555.3,1015.65,540.58z"/>
<path class="st9" d="M1093.71,797.19c2.9,0.2,1.81,2.45,0.47,3.68c-1.19,1.1-3.48,1.27-3.01,5.37
	c-34.46,14.65-63.45,41.2-98.8,54.78c-37.57,14.44-76.42,24.52-114.82,37.28c-47.87,15.9-94.78,33.11-141.25,48.4
	c0.92-1.79,2.9-2.45,4.74-3.04c0.39-0.68,1.12-1.24,2.2-1.67c1.51-0.21,2.94-0.75,4.39-1.2c0.54-0.67,1.32-1.22,2.35-1.65
	c0.73-0.13,2.09-0.08,2.57-0.82l7.04-3.01c1.61-0.05,3.02-0.63,4.47-1.22c1.45-1.05,3.15-1.92,5.13-2.63
	c0.52-0.05,1.12-0.09,1.62-0.24c1.42-1.06,3.11-1.94,5.09-2.64c1.58-0.11,3.03-0.63,4.48-1.22c0.47-0.7,1.22-1.26,2.25-1.67
	c1.21-0.25,2.36-0.8,3.53-1.2c1.44-1.04,3.14-1.93,5.1-2.66c1.28-0.12,2.4-0.64,3.53-1.18c0.36-0.73,1.12-1.27,2.27-1.64
	c1.55-0.14,3-0.74,4.45-1.24c1.57-0.98,3.27-1.87,5.11-2.66l13.08-5.04c0.45-0.67,1.21-1.22,2.29-1.66
	c1.52-0.24,2.96-0.81,4.44-1.21c0.44-0.67,1.21-1.21,2.3-1.63c1.49-0.31,2.95-0.81,4.4-1.25c1.49-1.01,3.21-1.89,5.16-2.63
	c1.54-0.15,2.99-0.81,4.47-1.21c0.41-0.67,1.17-1.21,2.29-1.63c1.53-0.19,2.98-0.77,4.44-1.24c1.47-1.02,3.17-1.91,5.11-2.67
	c1.5-0.2,2.91-0.81,4.37-1.18c0.56-0.63,1.35-1.19,2.38-1.67l6.35-2.17c0.42-0.68,1.19-1.23,2.29-1.65l15.92-6.04
	c0.5-0.68,1.27-1.24,2.32-1.66c0.53-0.05,1.1-0.11,1.62-0.24c-0.02-0.97,1.1-1.26,2.03-1.12c0.68-0.16,1.29-0.47,1.87-0.85
	l1.05-0.69l1.75-0.22c1.57-0.96,3.28-1.85,5.11-2.65c2.26-0.29,4.18-1.7,6.39-2.16c0.45-0.69,1.2-1.25,2.24-1.68
	c0.52-0.08,1.12-0.06,1.62-0.22c1.43-1.04,3.13-1.91,5.11-2.63c1.52-0.2,2.99-0.82,4.46-1.23c1.47-1.02,3.18-1.9,5.12-2.65
	c1.29-0.11,2.42-0.61,3.56-1.17c0.33-0.74,1.08-1.28,2.25-1.63c1.63,0.14,3.03-0.65,4.46-1.25c1.42-1.06,3.13-1.94,5.12-2.62
	c1.58-0.09,3.06-0.54,4.48-1.22c0.57-0.71,1.64-1.27,3.19-1.68l4.35-1.22c1.6-1.01,3.34-1.89,5.23-2.63
	c0.52-0.04,1.12-0.07,1.62-0.22c1.43-1.03,3.14-1.9,5.14-2.6c1.5-0.19,2.99-0.84,4.45-1.25c1.47-1.01,3.18-1.89,5.11-2.66
	c0.5-0.05,1.15-0.03,1.62-0.22c2.04-1.44,4.38-2.65,7.02-3.62c0.53-0.08,1.12-0.05,1.63-0.22c1.43-1.04,3.13-1.92,5.09-2.65
	c1.54-0.17,2.98-0.79,4.45-1.21c0.43-0.68,1.19-1.22,2.3-1.62c1.51-0.32,2.99-0.78,4.45-1.24c1.47-1.03,3.17-1.9,5.12-2.63
	c1.54-0.15,2.99-0.79,4.45-1.23c0.42-0.67,1.18-1.21,2.28-1.64l4.41-1.24c1.11-1.07,2.52-1.93,4.23-2.59
	c1.5-0.31,2.97-0.84,4.44-1.25c1.52-1.04,3.23-1.92,5.1-2.67c0.52-0.06,1.12-0.05,1.62-0.2c1.44-1.04,3.15-1.91,5.13-2.63
	c1.53-0.18,2.99-0.82,4.46-1.21c0.01-0.98,1.15-1.26,2.09-1.08L1093.71,797.19z"/>
<path class="st5" d="M736.19,697.78l-15.53,62.96l8.92-0.49c-3.15,10.95-8.27,21.08-13.24,31.56c2.93,0.67,5.08-0.46,8.04,0.97
	l-7.18,21.34l-1.67-17.67c-3.61,12.07-6.77,24.25-7.38,36.53c-0.31,0.95-0.79,1.75-1.44,2.38l-0.11,2.51
	c0.26,0.93,0.24,1.94-0.77,2.31c-0.31,2.16,0.4,5.05-2.43,6.78c-1.21-8.98-1.04-17.51-4.97-25.39c-1.04,6.08-1.02,11.11-3.74,17.3
	l-10.34-24.86c3.93-0.38,4.7,2.63,7.36,1.35l-15.92-35.37c3.37-0.98,6.06,1.76,9.46,2.5c-3.69-14.96-11.48-28.65-11.35-43.38
	c11.88-8.76,23.31-18.26,35.43-26.53l20.65-14.1C732.01,697.08,734.5,697.14,736.19,697.78z"/>
<path class="st5" d="M803.01,652.71l0.18,1.73c-0.36,0.91-0.8,1.72-1.32,2.43c0.37,21.75-11.73,42.96-18.53,64.94
	c3.88-0.22,6.89-1.85,10.56-0.7l-20.07,31.5l15.92-2.36c-4.69,12.82-12.57,22.63-18.94,34.57c4.78,0.27,8.92-2.52,13.84-0.76
	c-5.65,11.77-9.96,23.59-18.24,33.38c-4.43-7.89-7.12-15.54-10.4-23.69c3.29-1.09,5.85,1.31,8.76-0.33l-14.4-33.05l7.5,1.69
	l-16.06-61.99l-1.41-2.36c-0.1-0.63-0.1-1.31-0.25-1.92c-0.61-2.49,0.51-4.06,2.95-5.59L803.01,652.71z"/>
<path class="st7" d="M963.93,609.68c-4.41,23.44-12.24,46.01-18.51,70.53c3.73,1.36,7.32-1.42,11.98-0.39l-18.69,33.89
	c3.29,1.63,6.83-0.07,10.99-0.17l-18.97,33.66l15.53,1.29l-11.16,24.45l-24-33.57l13.17,0.23l-16.02-28.99
	c-0.43-1.63,2.23-1.66,2.95-0.35c1.64-0.19,3.73-0.04,5.37,0.18c1.1-0.38,1.28-1.12,0.52-2.23l-15.6-30.29
	c2.64-0.89,5.57,0.42,7.94-0.73c-1.22-8.72-4.46-15.78-5.96-23.3c5.72,0.37,8.66-6.47,13.64-9.62
	C933.85,633.71,948.44,621.12,963.93,609.68z"/>
<path class="st5" d="M653.74,751.7c-3.16,8.7-0.37,19.46-7.81,27.92l9.18,0.98l-17.93,32.96l12.92-0.29
	c-5.21,12.16-11.51,23.05-18.9,34.22c4.18,0.28,6.6-1.61,10.19-0.34l-15.08,30.54c2.91,1.88,4.96-0.43,8.43,0.85l-9.08,16.69
	c-5.97-8.7-9.4-17.26-13.66-26.16c4.19-0.24,7.12,1.54,10.47,0.06c-0.42-5.66-21.79-41.63-5.83-34.01
	c-6.69-14.62-10.39-29.83-13.79-44.99c5.72-1.91,6.16-8.1,11.32-10.52C629.24,772.54,640.17,760.03,653.74,751.7z"/>
<path class="st6" d="M1163.53,1036.03c1.91,4.51,7.54,6.89,4.83,11.28l-37.33-1.86c-0.1-3.75,0.49-6.53,1.84-9.22
	C1143.63,1037.42,1153.42,1035.7,1163.53,1036.03z"/>
<path class="st7" d="M1015.3,751.21c-2.19,6.74-4.93,13.03-9.04,20.29l-12.6-24.44L1015.3,751.21z"/>
<path class="st7" d="M934.78,774.94c-1.36,4.76-2.84,8.43-5.67,12.76c-3.28-3.49-5.03-7.25-7.11-11.23
	C925.44,773.99,929.55,773.86,934.78,774.94z"/>
<path class="st7" d="M854.5,817.02c-2.68,6.25-5.88,8.51-8.49,13.1l-3.98-7.51C845.15,820.12,850.44,815.63,854.5,817.02z"/>
<path class="st6" d="M1148.91,954.58c-4.58,2.34-13.74,2.46-17.33-2.65C1137.05,949.76,1143.11,951.8,1148.91,954.58z"/>
<path class="st14" d="M832.35,785.09c-1.62,0.01-3.62-0.31-4.78,0.98c-3.05-1.46-0.39-2.18,0.8-2.11
	C830.41,784.06,832.84,782.74,832.35,785.09z"/>
<path class="st14" d="M984.21,840.23c-0.95,2.6-4.64,2.66-7.02,3.62C977.55,840.72,981.56,840.64,984.21,840.23z"/>
<path class="st14" d="M990.5,712.73c-1.13-0.42-1.49,0.88-1.23,1.58l0.65,1.77c-1.04,0.12-2.11-0.92-2.15-1.93
	c-0.03-0.67-1.18-2.05,0.39-2.28C988.87,711.77,990.05,711.98,990.5,712.73z"/>
<path class="st14" d="M759.59,935.3c-1.13,2.17-4.73,3.49-7.04,3.01C754.05,935.97,756.91,935.39,759.59,935.3z"/>
<path class="st14" d="M836.02,785.16c0.17-1.97-0.35-3.9-0.67-5.83c1.31,0.48,2.03,1.76,2.39,2.95
	C838.33,784.24,838.47,785.73,836.02,785.16z"/>
<path class="st14" d="M665.34,712.32c-1.05,0.91-1.07,3.12-2.65,3.12c0.13-1.21-0.41-2.56,0.68-4.44
	C664.12,709.74,665.17,710.18,665.34,712.32z"/>
<path class="st14" d="M966.01,847.97c-0.33,2.2-3.34,2.03-5.14,2.6C960.78,847.91,964.01,848.23,966.01,847.97z"/>
<path class="st14" d="M917.03,868.1c-0.27,2.25-3.32,2.07-5.11,2.63C911.83,868.11,915.04,868.36,917.03,868.1z"/>
<path class="st14" d="M806.61,915.11c-0.21,2.32-3.31,2.04-5.11,2.66C801.39,915.03,804.77,915.82,806.61,915.11z"/>
<path class="st14" d="M838.29,901.68c-0.25,2.31-3.34,2.08-5.16,2.63C833.12,901.79,836.34,901.88,838.29,901.68z"/>
<path class="st14" d="M975.57,844.07c-0.24,2.25-3.29,2.15-5.11,2.66C970.42,844.16,973.59,844.29,975.57,844.07z"/>
<path class="st14" d="M959.25,850.79c-0.26,2.31-3.38,2.11-5.23,2.63C954.17,850.94,957.25,850.97,959.25,850.79z"/>
<path class="st14" d="M926.61,864.22c-0.23,2.29-3.29,2.13-5.12,2.65C921.43,864.4,924.66,864.39,926.61,864.22z"/>
<path class="st14" d="M769.19,931.46c-0.23,2.34-3.37,1.92-5.13,2.63C764,931.51,767.2,931.64,769.19,931.46z"/>
<path class="st14" d="M854.6,894.93c-0.21,2.35-3.28,2.08-5.11,2.67C849.45,895.04,852.62,895.19,854.6,894.93z"/>
<path class="st14" d="M791.25,921.83c-0.21,2.32-3.3,2.04-5.1,2.66C786.08,921.95,789.26,922.02,791.25,921.83z"/>
<path class="st14" d="M990.93,837.36c-0.24,2.28-3.3,2.07-5.09,2.65C985.76,837.43,988.94,837.58,990.93,837.36z"/>
<path class="st14" d="M942,857.55c-0.24,2.33-3.38,1.88-5.12,2.62C936.81,857.62,940,857.67,942,857.55z"/>
<path class="st14" d="M1038.95,817.22c-0.28,2.25-3.33,2.07-5.13,2.63C1033.77,817.25,1036.95,817.45,1038.95,817.22z"/>
<path class="st14" d="M1032.19,820.05c-0.23,2.31-3.26,2.15-5.1,2.67C1027.01,820.21,1030.26,820.27,1032.19,820.05z"/>
<path class="st14" d="M775.9,928.57c-0.26,2.25-3.3,2.07-5.09,2.64C770.72,928.67,773.91,928.71,775.9,928.57z"/>
<path class="st14" d="M901.65,874.79c-0.23,2.3-3.26,2.42-5.11,2.65C896.48,874.85,899.67,875.05,901.65,874.79z"/>
<path class="st14" d="M1007.27,830.66c-0.29,2.25-3.32,2.06-5.12,2.63C1002.09,830.71,1005.27,830.85,1007.27,830.66z"/>
<path class="st14" d="M911.2,710.27l-2.95,0.35c-0.32-0.59-2.05-0.75-1.01-1.73c0.87-0.82,1.87-0.29,2.37-0.41
	C910.75,708.19,911.71,709.21,911.2,710.27z"/>
<path class="st14" d="M1022.65,823.96c-0.14,2.09-2.59,2.12-4.23,2.59c-0.11-1.07,0.59-1.78,1.32-2.19
	C1020.73,823.78,1021.73,824.15,1022.65,823.96z"/>
<path class="st14" d="M1104.01,792.85c-0.21,0.45-0.67,1.24-0.94,2.28l-3.08-0.39C1100.3,792.8,1102.32,792.59,1104.01,792.85z"/>
<path class="st14" d="M385.83,354.8l1.04,4.13c-0.02,31.25,0.05,62.48,0.22,93.71l-1.2,4.1c0.79,1.09,0.69,3.09,0.08,4.27l1.92,0.66
	c0.35,61.01,0.7,122.03,1.05,183.07l-1.91,1.2l-3.43,3.27c-18.64,8.32-36.93,17.39-54.87,27.21c-4.27,2.8-8.57,3.97-12.9,3.52
	l26.91-147.99l34.87-176.5c0.37-0.94,0.85-1.73,1.44-2.38c0.45-3.49,0.87-7.13,2.17-10.4c1.53-0.76,1.88-0.32,2.66,0.8
	C384.9,344.98,386.44,353.16,385.83,354.8z"/>
<path class="st7" d="M232.35,530.85c6.88,2.17,11.96,8.53,18.34,11.67c-40.31,26.29-81.9,51.07-123.75,75.63
	c-7.67,4.5-13.01,11.01-23.18,12.12c3.59-26.21-2.89-52.68,3.29-75.61c1.19,2.03,2.45,4.27,2.59,6.74l1.6,2.29
	c-0.32,1.91,1.77,3.05,2.27,4.51c2.87,2.64,4.93,6.25,6.17,10.81l23.22-70.56c0.79-2.06,2.26-1.8,4.19-1.19l37.98,39.5l-7.46-29.94
	c0.78-2.67,1.53-3.89,4.76-2.8c15.17,3.79,30.3,8.09,45.07,13.24c0.91,0.32,1.73,0.89,2.56,1.49
	C230.83,529.38,231.6,530.1,232.35,530.85z"/>
<path class="st8" d="M232.35,530.85c-17.44-5.5-34.94-11.59-53.16-15.59l9.54,38.29l-43.65-45.6l-25.3,76.9
	c-2.47-5.62-4.41-11.14-6.28-16.64c5.3-43.49,3.83-89.57,4.4-134.2c38.73,25.27,73.19,60.81,110.63,90.7
	C230.52,526.29,231.79,529.21,232.35,530.85z"/>
<path class="st9" d="M384,298.66c0.63-1.41,1.19-1.29,1.95-0.03c2.11-1.91,5.1,1.61,6.48,3.48c4.15,5.63,3.48,13.07-1.07,18.34
	c-1.65,1.92-4.15,4.65-6.12,2.12c-1.44-0.13-2.77-0.74-4-1.82c-4.82-1.19-7.36-6.49-7.8-11.23c-0.5-5.41,2.98-9.16,7.94-11.01
	C382.11,298.29,383.2,298.83,384,298.66z"/>
<path class="st2" d="M385.24,322.58l1.88,3.22l0.14,14.15c1.06,5.18,0.99,9.93-0.2,14.24c0.29,1.54-0.33,1.82-1.24,0.62
	c0.21-3.31-2.91-9.48-4.62-12.12c0.89-7.24,0.54-14.65,0.03-21.92c0.74-0.28,1.7-1.01,2.36-1.02
	C385.04,319.73,385.25,321.57,385.24,322.58z"/>
<path class="st0" d="M172.95,797.67c6.28,0.67,12.28,2.76,18.01,6.26c33.58,17.62,67.65,33.97,102.03,49.89
	c2.36,1.09,4.35,2.82,6.25,4.56l1.91,0.91c-0.2,20.96-0.4,41.93-0.6,62.91l-1.93,1.14c0.33,3.45,0.22,7.72-1.25,10.67
	c0.2,7.41-2.51,35.13-8.34,38.75c-1.7,1.06-2.74,0.68-4.17-0.66l-5.77-21.05l-8.84,46.45c-1.29,1.11-2.64,0.72-4.02-0.22l-4.4-15.31
	l-2.1,17.79c-1.24,1.31-2.66,0.87-3.97-0.28c-0.87-0.54-7.95-17.85-7.91-18.87c0.12-3.49,4.71-4.78,5.38-1.18
	c1.08,0.87,1.51,0.76,1.29-0.34c-0.67,0.13-1.95-0.17-2.29-0.59c-0.51-0.65-5.72-14.2-5.95-15.4l1.29-1.98
	c-0.59-0.62-1.2-1.37-1.81-2.24c-6.7-3.12-6.27-13.14,2.39-8.14l-9.31-25.42c0.52-2.15,1.96-3.17,4.32-3.04
	c-6.13-21.51-11.46-43.21-16-65.11c-4.33,21.77-9.17,43.33-14.54,64.66c3.93-0.72,4.65,1.63,4.47,5.05
	c-4.24,9.76-8.36,19.46-12.35,29.09c8.37-0.15,6.68,4.72,4.55,10.6c-2.39,4.33-4.58,8.65-6.57,12.97c1.12-0.25,2.71,0.15,3.33,1.1
	c0.91,1.41-5.09,19.5-6.64,20.19c-1.61,0.71-2.7,0.74-4.09-0.46l-10.34-36.66l-9.33,38.89l-2.75,4.44
	c-1.13,3.61-3.05,1.97-5.76-4.92c-0.85-0.14-0.84-0.42-0.04-0.83l-0.91-1.05c-1.93-0.03-1.94-0.92-0.13-1.71
	c-0.61-0.53-1.21-1.28-1.79-2.23c-2.79-0.88-7.38-8.87-4.94-11.23l-1.9-2.19c-2.84,0.07-4.01-2.45-1.94-4.47
	c-1.41-0.61-1.4-2.63,0.17-2.92l1.01-2.08c3.38,0.83,6.46,0.9,9.24,0.21c-0.56-0.58-1.06-1.35-1.51-2.32l-2.02-0.16
	c-8.44-32.19-16.71-64.44-24.82-96.73l1.38-1.55c-0.48-0.69-0.94-1.48-1.37-2.38c-1-0.41-0.89-1.05-0.03-1.68
	c-0.74-1.5-1.19-1.5-1.36,0c1.66,3.18,1.57,5.35-0.29,6.53l-1.98,15.23L112.2,974l10.13,1.14c0.77,2.31,1.15,3.46,1.15,3.46
	l-18.28,38.92l-2.45,0.78c-1.03,1.83-3.22,2.52-6.57,2.07c-2.35,0.84-4.09,0.6-5.24-0.72l-2.1,0.25
	c-12.37-19.98-24.74-39.97-37.12-59.96l1.02-1.99c-0.36-3.87-3.97-6.53-4.72-10.24l0.84-1.93c8.97,0.09,17.55-0.21,25.76-0.89
	l-39.46-65.44c-0.17-1.6,0.73-2.59,2.19-3.23l22.49-0.85l-39.44-137.6c-0.72-2-0.47-3.47,0.73-4.41
	C72.51,752.81,122.79,775.32,172.95,797.67z"/>
<path class="st7" d="M301.21,716.42l1.92,0.89c-0.04,48.86-0.07,73.29-0.07,73.29l-1.92,1.16c-1.35,14.84-0.99,29.79,0,44.64
	c2.97,0.7,2.67,7.53-0.62,7.39c-0.47,0.75-1.18,1.36-2.15,1.81c-0.43,1.64-1.92,2.59-4.47,2.84c2.98-0.23,4.84,0.55,5.59,2.36
	c2.5,1.95,2.51,3.59,0.02,5.56c2.48,0.79,2.22,1.52-0.28,2.02c-43.19-16.71-83.68-41.72-126.29-60.71
	C215.82,772.18,257.85,740.2,301.21,716.42z"/>
<path class="st9" d="M387.05,843.1c0.82,0.29,0.77,0.58-0.09,0.87l-0.51,1.97c-28.55,2.23-57.1,4.46-85.66,6.69l-1.3-1.82
	c-1.96,0.15-3.76-0.25-5.92-0.52c-1.49-0.19-2.75-2.76-0.38-3.62c1.65-0.6,3.54-1.11,5.18-1.06c0.66-0.58,1.37-1.19,2.15-1.81
	c0.76-2.38,0.49-4.92,0.62-7.39c-0.99-14.86-1.35-29.79,0-44.64l0.07-75.34l85.57-10.72l0.56,61.12
	C388.8,792.64,387.09,817.79,387.05,843.1z"/>
<path class="st6" d="M441.55,824.42l-31.77-0.72l0.25-58.85c0.04-9.7,6.16-23.86,16.14-26.2c9.06,3.08,14.92,16.33,14.98,25.52
	L441.55,824.42z"/>
<path class="st9" d="M387.01,645.95c0.87,0.22,0.87,0.59,0.08,1.1l1.78,3.05c0.57,6.69,1.57,25.87,0.24,31.45
	c-0.29,1.21-1.31,2.08-2.22,2.85c-0.05,0.83-0.37,0.89-0.94,0.24l-0.39,1.99c-33.32,4.66-66.64,9.32-99.97,13.98l-1.43-1.74
	c6.69-6.39,21.95-15.15,31.64-18.93C340.37,670.37,362.22,654.41,387.01,645.95z"/>
<path class="st14" d="M385.95,684.64c3.71,2.04,4.06,10.61,0.74,13.15c-29.11,5.25-58.94,6.61-88.77,10.34
	c-7.15-5.65-22.41-0.97-13.76-9.25L385.95,684.64z"/>
<path class="st2" d="M482.81,700.91c1.39,1.05,2.21,2.92,1.94,4.29c-0.48,2.43-3.17,0.69-4.75,0.92
	c-32.48,4.81-59.59-6.01-92.03-7.35c-0.05-0.62-0.67-1.09-1.29-0.98c0.26-4.41,0.21-8.82-0.74-13.15c0.3-0.04,0.65-0.29,0.94-0.24
	l0.98-1.78l86.59,14.9L482.81,700.91z"/>
<path class="st14" d="M409.88,843.98c-16.85-0.65,85.02,7.23,59.52,9.33l-4.09,1.33c-24.65,0.56-49.33-0.12-74.05-2.04
	c-6.06-0.86-8.65-4.77-4.3-8.63c-0.01-0.29,0.08-0.58,0.09-0.87L409.88,843.98z"/>
<path class="st3" d="M780.47,349.38c2.1-0.27,1.83,1.45,0.09,2.15c1.26,1.37,0.73,1.88-0.87,0.87l-2.18,1.91
	c-0.14,0.85-0.44,0.85-0.86,0.05l-0.87,1.04c2.07,2.58-2.41,6.44-4.66,3.67l-3.99,3.04c1.43,1.25,0.91,1.75-0.87,0.87l-2.16,1.91
	c-0.11,0.82-0.41,0.81-0.88,0.05l-0.88,1.03c2,2.67-2.18,6.13-4.6,3.67l-2.27,1.98c-0.14,0.86-0.44,0.85-0.88,0.06l-0.88,1.02
	c1.74,2.69-1.12,4.39-2.89,1.85l-4.02,3.79c-0.04,0.87-0.34,0.84-0.86,0.04l-2.95,2.77c0.37,0.66,0.85,1.69,0.45,2.06
	c-2.62,2.43-16.29,12.81-19.04,14.04l-2.26-0.72l-2.14,1.99c-0.53,1.12-1.09,2.21-1.77,3.22c-0.68,1.01-1.34,1.99-2.21,2.71
	c-27.93,23.08-58.61,43.95-89.06,63.49c-22.13,10.21-38.45,31.63-60.38,42.06l-8.82,4.9c-37.62,13.37-74.91,27.64-111.86,42.82
	c-5.46,0.26-10.93-0.4-16.42-1.97l-1.11-1.88l-2.01-0.29c-9.31-48.24-18.63-96.49-27.95-144.74l1.66-1.52
	c-0.48-0.9-0.94-2.01-1.37-3.34c-2.58-0.41-2.51-1.36-0.18-2.5c0.04-1.26-0.28-2.31-0.94-3.16c-2.77-0.29-4.94-8.92-1.38-9.2
	c-0.44-1.19-0.94-2.28-1.5-3.29c-1.82-0.37-1.85-1.11-0.05-1.6c0.08-1.34-0.23-2.4-0.95-3.18c-2.87-0.85-3.04-3.2-0.34-4.44
	c-0.49-1.21-0.99-2.3-1.49-3.29c-2.55,0.15-2.46-0.82-0.03-1.62c-0.03-1.26-0.36-2.31-0.98-3.15l-1.94-1.18
	c-1.54-4.6-2.15-8.98-1.83-13.12c-2.22-10.46-1.94-20.94-1.83-31.61c4.69-1.7,7.33-6.58,7.96-11.15c0.83-6.06-2.91-9.22-7.25-12.79
	c-1.2-0.27-1.5-1.08-0.87-2.13c-0.34-1.66,0.36-3.82-0.08-5.42c0.25-3.19-0.09-5.5-1.01-6.92l0.3-5.66c3.43,0.31,6.3-1.31,9.98-0.82
	l53.33,7.07c32.58,4.32,64.24,10.27,96.92,13.31c6.65,0.62,13.45,1.36,19.37,2.94c12.69,3.39,91.48,13.71,100.33,12.73
	c14.57-1.61,30.29,1.67,45.65,2.54c-9.76,8.45-20.78,1.89-31.31,3.33c-13.08,1.79-29.88,2.83-31.88,11.41
	c-3.32,14.27,22.57,16.84,32.52,16.98L780.47,349.38z"/>
<path class="st9" d="M844.85,446.46c-0.19,1.24,0.07,2.65-0.16,3.9c-0.77,2.33-1.72,2.27-2.67,0.03
	c-2.79-10.17-8.19-19.71-13.46-28.98c-3.89-6.83-5.75-14.97-11.32-21.69l-56.91,61.45l8.18-52.25l-73.59,64.61
	c6.97-17.67,17.2-31.2,25.39-48.71l-93.37,43.1c30.2-23.83,63.73-43.79,93.04-69.43l2.14-1.99l20.85-15.38l2.95-2.77
	c0.28-0.05,0.58-0.02,0.86-0.04l4.02-3.79c1.08-0.49,2.29-0.67,2.89-1.85l0.88-1.02l0.88-0.06c0.57-0.73,1.33-1.38,2.27-1.98
	c2-0.49,3.31-2.16,4.6-3.67l0.88-1.03c0.23-0.09,0.62-0.06,0.88-0.05l2.16-1.91c0.26-0.2,0.71-0.57,0.87-0.87l3.99-3.04
	c2.05-0.33,3.33-2.24,4.66-3.67l0.87-1.04l0.86-0.05l2.18-1.91l0.87-0.87c0.7-1.22,2-2.23,3.91-3.04l33.59-25.17l2.02,0.24
	c8.12,37.32,16.26,74.73,24.42,112.24L844.85,446.46z"/>
<path class="st8" d="M955.18,416.6c-15.06-1.11-29.68-6.84-45.57-10.39l18.24,39.19l-46.88-28.51l-28.78-19.29l-7.34,48.86
	l-26.78-123.13c0.32-0.43,1.14-2.45,2.57-1.44L955.18,416.6z"/>
<path class="st8" d="M1191.27,453.06c-19.43,13.97-43.79,21.11-64.18,32.24c-1.27-0.1-2.55-1.19-3.8-1.35
	c-2.71-0.46-3.53-4.58-2.15-6.78l-2.18-4.27c-1.46-23.89-2.89-47.77-4.27-71.66l1.77-1.89
	C1143.05,412.31,1165.87,435.58,1191.27,453.06z"/>
<path class="st9" d="M1116.46,399.36l4.67,77.82l-3.47-0.77c-12.33-13.07-24.92-26.06-40.97-34.52
	c-14.15,13.57-21.23,20.36-21.23,20.36c-3.24,3.39-6.56,4.82-9.98,4.28c-4.98-3.37-10.94-6.56-16.36-9.51
	C1056.08,435.71,1085.98,416.01,1116.46,399.36z"/>
<path class="st13" d="M284.89,1367l1.92,0.67c0.13,51.8,0.26,103.6,0.39,155.42l-1.92,1.19l-156.83-32.16l-47.04-37.43l128.51-0.33
	l-104.36-86.25l0.66-1.92c0,0,59.16-0.37,177.47-1.1L284.89,1367z"/>
<path class="st2" d="M86.45,1235.16c2.58-2.73,7.44,2.91,6.65,6.06l1.92,2.01c1.35-1.27,1.84-0.74,0.95,0.95l1.96,1.99
	c1.52,0.44,3.08,0.98,4.25,2.09c3.23,3.04,13.25,13.41,14.33,16.43c0.28,0.79,0.44,1.62,0.57,2.47c0.34,1.07,0.92,1.66,1.98,2.03
	l3.09,0.76l13.72,13.33l0.48,3.15l3.75,1.23c3.97,5.66,8.57,10.57,13.82,14.73l0.48,2.48c2.23,1.42,4.44,3.16,6.63,5.24l2.89,1.12
	c37.31-0.05,74.73-0.63,112.25-1.75l1.21,1.9c2.57-1.03,6.21,0.73,7.63,3.01c3.53,0.75,2.76,10.08-0.15,11.33l-0.67,1.92
	l-106.07,0.02l9.46,12.16c0.22,1.55-0.56,2.64-1.86,3.47l-109.8,0.72l-3.99-1.89l-60.48-1.2l7.7-106.45
	C41.58,1234.65,64.12,1233.34,86.45,1235.16z"/>
<path class="st15" d="M284.86,1325.72c3.28,10.39,2.86,22.8,2.2,33.83c-0.16,2.61-1.16,5.07-2.17,7.45l-179.32,1.11
	c-10.68-8.82-23.85-15.9-33.64-26l114.45-0.75l-12.22-15.63L284.86,1325.72z"/>
<path class="st10" d="M1130.02,1235.42l0.83,411.91l-20.88,0.28c-67.34,0.89-134.79,0.07-204.43-1.51l117.27-79.84l-117.25-0.85
	l38.12-31.96c-1.47-2.68,0.55-3.8,3.06-2.37l2.56-2.54c-1.03-2.48,0.16-3.03,2.01-1.15l2.07-1.96c-0.87-2.48,0.49-3.15,2.83-2.17
	l3.61-3.31c0.14-0.95,0.46-1.02,0.98-0.21l2.15-1.99c-0.96-2.46,2.51-5.58,4.71-3.78c0.49-0.73,1.17-1.39,2.03-1.97
	c-0.21-2.61,0.43-3.1,2.89-2.16l4.51-4.16c-0.48-2.69,0.52-3.53,3.02-2.31l2.08-1.9c-0.28-1.92,0.56-2.4,2.06-1.16l2.45-2.48
	c-1.16-2.47,0.15-3.15,2.04-1.16l2.05-1.9c-0.18-0.93,0.16-1.2,1.02-0.8c1.78-1.69,3.69-3.24,5.76-4.68
	c-1.28-2.58,0.45-3.76,3.07-2.54l2.39-2.37c-1.02-2.5,0.19-3.03,2.04-1.16l2.08-1.96c-0.26-2.55,0.27-2.96,2.65-1.97l4.12-3.71
	c0.07-0.85,0.31-0.83,0.7-0.01l2.12-1.98c-1.37-2.33-0.02-2.84,1.76-0.95c0.41-0.73,1.07-1.38,1.99-1.94
	c-1.27-1.35-0.74-1.84,0.95-0.95l2.06-1.88c-0.86-2.42-0.07-2.66,1.95-1.14l2.51-2.36c-0.93-2.48-0.02-2.93,2.08-1.29
	c0.36-0.92,1.3-1.42,2.17-1.85c-0.66-2.67,0.27-3.39,2.67-2.04l2.06-1.89c-0.5-2.53-0.07-2.77,1.93-1.12l2.58-2.49
	c-1.15-2.46,0.16-3.15,2.04-1.16l2.04-1.9c-1.43-2.5,0.29-3.68,2.81-2.3c2.15-1.38,2.98-2.64,0.82-4.44l-102.66,0.12
	c-0.19,2.56-1.08,2.41-1.78-0.04c-1.88,0.41-3.36,0.03-4.42-1.14l8.07-8.32c-0.63-2.76,3.37-6.48,6.02-5.2l5.49-5.38
	c-1.09-2.52,0.56-3.34,2.88-2.21l2.07-1.88c-1.44-1.24-0.86-1.83,0.87-0.96l4.84-4.48c-2.21-2.02,4.35-7.72,6.72-6.01l1.96-1.99
	c-1.19-1.47-0.62-2.02,1.06-1.14l2.58-2.54c-1.24-1.56-0.58-2.18,1.24-1.31l9.39-9.21c-0.91-3.01,4.14-8.13,6.8-5.94l1-0.99
	c-2.29-2.6,1.22-5.83,3.95-3.96l5.57-5.41c-0.03-3.83,3.72-5.63,6.86-6.99l1.59-2.94c11.1-10.4,22.25-20.8,33.43-31.2l-79.7-0.64
	c-1.48-0.82-1.55-2.07-1.54-3.65c0.01-1.61,18.87-22.81,20.86-24.49l5.18-3.14l-0.94-1.8c19.48-20.67,38.99-41.36,58.51-62.07
	l4.8-2.29c0.21-1.92,1.04-2.09,1.92-0.35c1.59-0.58,3.18-1.12,4.81-1.52c1.62-0.39,3.22-0.75,4.85-0.84
	c16.12-0.9,32.73-0.88,48.88-0.58c1.62,0.03,3.24,0.35,4.87,0.69C1126.8,1234.41,1128.41,1234.9,1130.02,1235.42z"/>
<path class="st6" d="M1189.59,1223.45c0.51,5.03,5.69,7.45,7.6,11.98c-9.03,0.63-18.45-0.9-27.97,0.26
	c-13.56,1.66-26.23-0.07-39.2-0.27c-22.74-0.35-45.59-0.29-68.28,0.89c-1.8-1.12-1.68-2.75,0.35-4.9c2.58-3.45,5.7-5.9,9.37-7.34
	l60.23-1.1C1151.07,1222.62,1170.73,1221.12,1189.59,1223.45z"/>
<path class="st2" d="M52.75,957.94l38.19,61.7c3.67,0.14,3.7,4.38,0.64,6.55c-13.73,0.13-27.37,0.52-40.94,1.17l40.5,60.33
	l-0.95,2.03l2.81,1.43l4.67,8.54l25.89,0.3c0,0,1.41,0.72,4.22,2.15c0.19-2.8,3.36-2.47,3.8,0.26c2.75,1.86,2.59,4.9-0.28,6.54
	l-0.67,1.92l-77.02-0.34c2.43,4.73,6.09,8.92,10.97,12.55l-0.43,2.29l4.08,1.47c18.41,19.14,36.83,38.29,55.23,57.42l-0.58,2.16
	l1.69-0.63c10.07,10.96,20.02,22.08,29.86,33.38l-0.69,2.12c1.69,1.55,3.69,3.58,0.91,4.45c-0.13,2.57-1.05,2.43-1.83,0.01
	c-2.07-0.85-4.38-1.17-6.95-0.94c-0.77,2.4-2.67,2.24-3.56-0.13c-3.06-0.49-6.09-0.95-9.1-1.36c-1.35,3.19-8.01,1.83-10.16-0.21
	c-2.05-0.38-4.09-0.42-6.13-0.11c-1.31,2.4-13.49,2.19-15.16,1.36c-0.88-0.44-1.38-1.32-1.76-2.19c-6.76,0.59-13.5,1.43-20.22,2.5
	l-2.13-1.76c-19.01-4.31-39.4,0.73-59.29-1.04l0.02-265.47C29.85,957.1,41.33,956.61,52.75,957.94z"/>
<path class="st2" d="M21.15,733.34l41.27,144l-25.85,0.81l41.72,69.06l-30.26,0.49l-28.76-0.42l-0.75-210.77
	c0-1.32,0.44-2.1,0.8-2.58C19.63,733.52,20.61,733.13,21.15,733.34z"/>
<path class="st9" d="M433.9,1118.64l-7.18,9.01c-43.64,44.63-86.91,89.56-129.8,134.8c-13.91,14.28-32.03,23.33-52.01,24.5
	l-105.09,1.36l-3.46-1.88c-5.63-5.62-12.29-10.75-17.29-17.24c-1.01-0.3-1.74-0.99-1.98-2.03c-6.47-6.91-13.2-13.68-19.15-20.99
	l-1.96-1.99l-0.95-0.95l-1.92-2.01c-2.45-1.78-3.74-4.96-6.65-6.06l-0.98-2.52c-5.52-9.22,7.6-10.82,14.55-10.49
	c5.56,0.97,11.36,0.3,16.92,0.82c2.02-0.39,4.06-0.36,6.13,0.11c2.76-1.23,7.17,0.67,10.16,0.21c3.05,0.45,6.08,0.9,9.1,1.36
	c0.98,0.06,2.71-0.44,3.56,0.13c2.64-0.32,4.95,0,6.95,0.94l1.83-0.01c2.09-1.09,0.37-3.08-0.91-4.45l-30.87-34.87
	c0.12-1.93,1.39-3.61,3.83-5.04c1.4-2.49,3.03-3.69,4.91-3.61l0.84-3.2c10.69-9.97,20.78-20.52,30.25-31.64
	c10.57-12.67,33.53-24.9,50.25-21.74c1.21,0.23,2.13,1.19,2.94,2.04c2.27,1.9,2.65,4.43,2.6,7.27l0.21,35.72l11.71,0.57
	c2.58-0.88,4.75-0.99,6.52-0.33l1.3-3.72c7.41-7.32,14.3-15.11,20.67-23.37l0.24-16.74c1.79-1.52,2.69-2.27,2.69-2.27l62.03-2.15
	c1.01,0.16,1.86,0.77,2.57,1.83c0.2-0.75,0.51-1.84,1.1-1.92c3.35-0.43,10.27-0.21,13.83,0.02c3.43-0.46,6.48,0.19,9.15,1.93
	l1.56-1.9c4.99,0.58,9.73,0.27,14.22-0.93L300.07,1060c-3.6-2.96-4.39-5.79-2.36-8.47c-0.64-2.29-0.92-5.31,0.58-7.26l-1.92-0.9
	c0.1-24.45,0.2-48.91,0.3-73.37l1.92-1.15c0.65-1.18,0.66-3.08-0.07-4.24c-0.75-0.09-1.85-0.31-1.92-0.86
	c-0.83-6.51-0.26-19.54,0.77-26.12c0.04-0.26,0.48-0.46,1.03-0.65c-0.18-4.48-0.11-9.02,0.22-13.62l0.61-64.96
	c0.01-0.67,0.26-1.35,0.28-2.02l0.56-1.95l86.81-4.71c0.12,1.17,1.05,1.69,2.78,1.56c0.55,88.81,0.73,177.71,0.55,266.7
	c14.03-1.12,27.96-1.36,41.78-0.71L433.9,1118.64z"/>
<path class="st4" d="M100.02,1222.15c-3.96,1.52-14.59-0.29-14.55,10.49c-3.49-2.66-8.03-5.05-7.79-9.75
	C84.78,1222.4,92.9,1220.91,100.02,1222.15z"/>
<path class="st14" d="M385.01,291.08c-1.56-2.05-1.14-4.5-1.01-6.92c1.93-0.5,2.12,1.29,2.01,2.41
	C385.85,288.3,386.34,290.19,385.01,291.08z"/>
<path class="st9" d="M1017.65,1368.88c-2.37,1.91-3.66,5.61-6.86,6.99l-5.57,5.41c-1.46,1.06-3.41,2.21-3.95,3.96l-1,0.99
	c-2.07,0.9-4.83,4.54-6.8,5.94l-9.39,9.21c-0.37,0.41-1,0.82-1.24,1.31l-2.58,2.54c-0.25,0.44-0.78,0.72-1.06,1.14l-1.96,1.99
	l-6.72,6.01l-4.84,4.48c-0.11,0.38-0.69,0.61-0.87,0.96l-2.07,1.88c-0.79,0.88-1.92,1.52-2.88,2.21l-5.49,5.38
	c-1.98,1.84-3.72,3.75-6.02,5.2c-8.26,7.09-9.48,10.25-3.65,9.47l1.78,0.04c35.39,0.06,70.38,0.11,104.97,0.15
	c-0.05,1.68-1.09,3.07-3.13,4.17c-0.95,0.58-2,1.57-2.81,2.3l-2.04,1.9c-0.67,0.19-1.39,0.84-2.04,1.16l-2.58,2.49
	c-0.66,0.3-1.24,0.87-1.93,1.12l-2.06,1.89c-0.87,0.71-1.73,1.43-2.67,2.04l-2.17,1.85c-0.74,0.15-1.39,0.98-2.08,1.29l-2.51,2.36
	c-0.64,0.36-1.26,0.86-1.95,1.14l-2.06,1.88l-0.95,0.95l-1.99,1.94l-1.76,0.95c-0.51,0.73-1.22,1.39-2.12,1.98l-0.7,0.01l-4.12,3.71
	c-0.77,0.77-1.63,1.53-2.65,1.97l-2.08,1.96l-2.04,1.16l-2.39,2.37c-1.15,0.67-2.02,1.76-3.07,2.54c-2.07,1.43-3.99,2.99-5.76,4.68
	c-0.37,0.21-0.66,0.57-1.02,0.8l-2.05,1.9c-0.68,0.2-1.39,0.83-2.04,1.16l-2.45,2.48c-0.68,0.37-1.35,0.86-2.06,1.16l-2.08,1.9
	c-1,0.73-1.87,1.8-3.02,2.31l-4.51,4.16c-0.87,0.81-1.78,1.66-2.89,2.16l-2.03,1.97c-1.6,1.24-2.92,2.82-4.71,3.78l-2.15,1.99
	c-0.28-0.01-0.72,0.1-0.98,0.21l-3.61,3.31c-0.82,0.85-1.72,1.71-2.83,2.17l-2.07,1.96l-2.01,1.15l-2.56,2.54
	c-1.05,0.63-2.19,1.51-3.06,2.37c-7.34,7.34-14.67,8.62-24.36,11.09l-170.47,43.49l-112.41,30.35
	c-89.36-28.18-179.74-53.2-270.78-75.55c-2.92-2.22,0.43-5.12,3.3-6.03c55.26-17.58,110.92-33.83,166.93-48.87l178.19-47.8
	l11.63-1.13c0.63-2.82,4.4-3,5.61-0.23c0.64-0.48,1.43-0.95,2.37-1.38c-0.1-0.76-0.11-1.93,0.4-2.07
	c15.03-4.29,31.81-8.12,47.19-11.5c4.65-1.79,9.21-2.24,13.69-1.36l5.87-2.76c47.19-12.73,94.54-25.47,142.14-36.75
	c20.56-4.87,41.17-9.69,61.94-13.61c2.06-0.39,4.18-0.49,6.31-0.57C1013.36,1368.7,1015.5,1368.77,1017.65,1368.88z"/>
<path class="st12" d="M427.12,1171.96c2.85,1.41,5.15,3.93,6.93,7.57c38.7,41.41,77.55,82.69,116.55,123.85l-0.58,2.18
	c2.54,0.43,2.5,1.29,0.06,2.08l1.94,1.05c0.26,1.33,0.49,12.2,0.24,12.79c-0.31,0.72-1.15,1.09-1.89,1.39
	c2.7,3.72,2.7,7.72-0.03,11.42l1.9,0.7c-0.31,11.9-0.61,23.81-0.92,35.72l-1.95,1.08l1.92,0.9c-0.09,21.01-0.18,42.03-0.27,63.05
	l-1.93,1.15l-4.06,1.71c-67.08,8.27-129.26,28.9-187.98,62.33c-15.52,8.84-30.83,18.4-44.62,27.63l-2.45,0.01
	c-8.39,1.13-16.55-2.64-24.69-4.31l-0.4-157.28c0.58-13.74,0.5-27.55-0.03-41.29c-0.14-3.74,0.9-7.57,0.15-11.33
	c0.54-1.72,1.87-3.24,3.98-4.57c41.42-44.47,84-88.08,127.76-130.82C416.74,1179.01,420.2,1176.66,427.12,1171.96z"/>
<path class="st8" d="M725.69,1439l-161.26,43.21c-65.54,17.56-130.46,35.64-194.82,56.38c-2.37,0.76-3.72,2.55-3.96,4.23
	c-18.71-4.59-37.8-8.24-55.68-14.24c5.08-6.65,13.66-8.86,20.97-13.7c66.12-43.82,139.66-70.08,218.14-77.98l2.17-2.13
	c57.07-3.35,115.21-1.51,172.23,2.12L725.69,1439z"/>
<path class="st4" d="M386.96,843.97c0.08,1.98-0.23,3.91,0.33,6.52c27.61,1.29,54.83,3.26,82.1,2.82l0.32,20.29
	c0.55,3.2,1.06,6.41,1.43,9.63c0.37,3.22,0.72,6.43,0.78,9.65c0.72,38.5,1.13,77.1,0.66,115.6c-0.04,3.18-0.36,6.35-0.7,9.53
	c-0.34,3.18-0.83,6.34-1.36,9.49l1.91,0.68c-0.26,25.59-0.51,51.18-0.77,76.78l-1.93,1.15c2.44,4.55,1.84,12.08,1.26,17.3
	c0.53,3.38-0.19,5.52-2.17,6.43c2.81,3.68,2.28,12.14-0.58,15.73c-1.29,1.69-3.12,1.32-5.48-1.09c-7.71-7.91-15.8-15.33-24.28-22.25
	c-2.6-0.69-4.13-1.89-4.57-3.59c-14.83-0.86-29.83,1.3-45.59,1.19l-0.14-268.26l-88.64,4.8c0.07-1.85,0.07-3.71-0.02-5.56
	L386.96,843.97z"/>
<path class="st2" d="M540.79,885.82c0.47,1.16,0.94,2.27,1.41,3.33c3.42,6.01,3.13,12.34,5.01,18.76c0.96,0.32,1.64,1.3,1.19,2.27
	c0.32,0.24,0.59,0.76,0.87,1.03c2.71,2.18,5.8,3.31,9.27,3.38c3.09-0.7,5.39-0.29,6.9,1.22c-4.22,10.89-10.81,20.69-17.02,31.88
	l17.53,1.35l-20.09,37.76c2.67,2.35,5.59,1.4,9.63,2.42l-18.82,31.36l-0.79,2.02c-5.15,1.31-10.02,3.36-14.62,6.14
	c-13.36,2.85-28.57,2.16-42.37,1.11c-2.91-0.22-5.68-1.28-8.37-2.36c0.51-50.6,0.01-102.46-0.8-153.89
	c10.22,14.06,9.43,33.89,14.49,51.58c5.27-25.52,10.44-49.16,17.44-73.1l13.1,63.9c11.28-23.93,8.92-39.06,17.97-63.17
	C536.01,864.54,540.15,874.88,540.79,885.82z"/>
<path class="st6" d="M390.84,368.49c0.9,0.45,1.23,1.5,0.98,3.15l0.03,1.62c0.61,1,1.1,2.09,1.49,3.29
	c-0.01,1.49,0.17,2.97,0.34,4.44c0.96,0.4,1.28,1.46,0.95,3.18c-0.04,0.53,0.11,1.08,0.05,1.6c0.64,0.86,1.14,1.95,1.5,3.29
	c-0.45,3.19,1.37,6.04,1.38,9.2c0.92,0.43,1.23,1.49,0.94,3.16c-0.19,0.75,0.34,1.72,0.18,2.5c0.51,1.18,0.97,2.29,1.37,3.34
	l28.3,146.56l1.88,0.54c0,0,3.31,17.77,9.92,53.32l-1.38,2.05c4.44,23.82,9.72,47.63,12.61,71.04c-1.24-0.09-2.46-0.22-3.66-0.49
	c-1.18-0.26-2.34-0.54-3.36-1.07c-17.32-9.07-34.65-18.31-51.88-27.54c-2.11-1.13-3.79-2.9-5.4-4.63c0.02-0.36-0.08-0.74-0.08-1.1
	l-1.06-184.93c0.66-1.17,0.68-3.13-0.08-4.27c-0.6-33.96-2.18-68.05-0.05-101.94c-0.22-0.66,0.88-0.49,1.24-0.62
	C388.08,358.96,390.98,363.42,390.84,368.49z"/>
<path class="st4" d="M566.56,509.96c-41.31,34.17-85.06,67-127.78,99.77l-10.43-55.91c5.52-0.46,10.8,3.41,16.97,2.02
	C485.94,540.03,525.6,523,566.56,509.96z"/>
<path class="st11" d="M451.39,680.78c10.8,5.68,22.04,12.99,31.43,20.12l-95.92-16.51c1.56-12.52-0.61-24.87,0.2-37.35
	C408.97,656.96,429.97,669.52,451.39,680.78z"/>
<path class="st2" d="M569.16,911.03c-2.11,1.98-5.33,2.57-9.66,1.76c-3.85,0.66-6.39-0.02-7.61-2.04
	c4.28-14.46,14.13-26.62,20.37-41.16c-1.63-1.4-4.02-1.47-5.87-1.69c2.8-1.86,7.31-2.17,10.74-1.36l-15.07,41.23l7.49,0.62
	C570.85,908.5,571.9,909.59,569.16,911.03z"/>
<path class="st14" d="M551.89,910.75l17.26,0.28c-0.42,1.83-1.61,4.41-3.72,4.79c-5.71,1.04-15.48,1.82-16.17-4.6
	C550.13,911.23,551.04,910.73,551.89,910.75z"/>
<path class="st4" d="M1121.14,477.18c1.54,1.54,1.86,4.88,2.15,6.78l-50.87-6.3c-10.93-1.35-18.57-5.47-26.93-11.13
	c11.72-6.21,20.23-16.78,30.96-26.33C1094.89,448.21,1107.45,463.49,1121.14,477.18z"/>
<path class="st9" d="M1092.49,925.42c-1.6,3.18-2.21,7.67-5.65,10.55c-1.39,0.53-2.79,1.02-4.22,1.37c-1.43,0.35-2.83,0.69-4.23,0.7
	c-28.44,0.25-56.95-0.78-85.24-3.85c-5.68-2.55-5.28-2.18,1.2,1.12c19.47,18.48,39.84,35.91,61.11,52.29c0,0,1.16,1.77,3.48,5.32
	c3.79,0.26,5.94,8.59,1.85,9.12c-6.94-1.9-13.36-5.46-19.28-10.7c-23.86-18.58-47.94-36.84-72.24-54.8l-77.55,64.43
	c3.09-0.04,5.11,0.9,6.06,2.82c3.8-0.86,11.44-0.7,15.33,0.2l1.51,2.04l2.8-0.48l11.52,7.46l1.01,2.62l4.17,4.91l-3.43,0.46
	c-8.44-3.86-17.62-5.63-26.83-6.47c-32.67-2.24-65.56-4.02-98.68-5.33l-3.37-1.19c-3.05-0.63-3.37-8.96-0.04-9.43l78.87,4.57
	c26.23-29.5,59.47-53.19,85.7-82.03L1092.49,925.42z"/>
<path class="st13" d="M772.79,978.94c0.03-0.74,0.24-1.46,0.87-1.9c0.59-0.42,13.66-0.51,13.48,2.21l1.9,0.92
	c-0.4,18.25-0.81,36.5-1.22,54.76l-1.94,1.1c-1.21,2.36-1.65,2.29-2.35-0.28c-1.4-0.78-2.75-1.73-4.06-2.86l-2.44,0.17
	c-0.82-0.48-10.89-9.07-11.29-9.71c-1.58-2.53-2.86-13.55,0.08-15.29c-0.17-3.31-0.04-6.24,0.01-8.71l0.38-19.03
	C767.49,978.86,771.11,978.9,772.79,978.94z"/>
<path class="st12" d="M800.65,979.27c2.45,6.19-0.08,12.95,1.14,19.31c-0.66,3.58,0.07,6.54,0.04,9.43
	c0.75,0.09,1.88,0.36,1.91,0.89c0.2,3.71,0.01,29.17-1.25,30.25c-1.98,1.71-19.1,2.86-16.6-3.12l1.26-56.78
	c1.51-2.43,5.64-2.97,7.06-0.6C796.49,978.38,798.64,978.58,800.65,979.27z"/>
<path class="st9" d="M800.65,979.27c-4.21-0.4-8.44,0.09-13.5-0.02l-14.35-0.31c-1.61-6.82,2.43-33.09,11.86-32.45
	c8.1,0.55,9.89,24.75,9.18,31.64C796.54,978.39,799.34,977.45,800.65,979.27z"/>
<path class="st8" d="M765.82,1008.06c1.17,22.17-0.25,9.31,13.65,24.83l4.06,2.86c0.54-0.1,1.19,0.27,2.35,0.28
	c3.2,4.26,10.35,1.93,15.56,1.95l0.38-29.97c26.81-0.84,53.07,1.79,80.35,3.3c18.44,1.02,35.8,0.87,51.96,9.23
	c0.21,0.11,0.54-0.04,0.77,0.02l1.31,1.66l27.66,20.31c1.87-0.03,3.7,1.03,5.5,3.19c3.87,1.54,6.17,3.64,6.89,6.3l1.14,2.05
	l2.73,2.71c0.31,0.04,0.59,0.27,0.89,0.33l2.99,2.53c0.7,0.24,1.25,0.78,1.88,1.12l2.17,1.95c0.71,0.12,1.22,0.96,1.82,1.19
	l2.73,2.43c0.72,0.31,1.34,1.06,2.01,1.39l2.71,2.31c1.42,0.88,3.21,1.84,4.15,3.31l3.81,3.6c0.94,0.26,1.8,0.61,2.64,1.11l2.16,2
	l0.74-0.03l1.06,0.92c1.93,2.3,5.15,3.03,6.68,5.72l1.01,0.91c0.25,0.05,0.53,0.02,0.78,0.03l2.14,1.99
	c1.06,0.21,1.81,1.28,2.73,1.89l2.07,1.95l1.75,0.94l2.08,1.88c1.09,0.15,1.86,1.3,2.76,1.98l2.06,1.94
	c0.68,0.19,1.21,0.94,1.89,1.09l5.62,5.51l-0.68,1.23c-0.03,0.22-0.27,0.44-0.25,0.65c0,0.89-0.34,1.63-1.21,1.9
	c-65.06-1.06-130.69-1.85-196.89-2.36c-9.33,1.05-18.41,0.94-27.23-0.35c-36.98-35.71-86.05-62.46-122.73-101.12
	C718.2,999.62,740.69,1010.28,765.82,1008.06z"/>
<path class="st12" d="M1016.53,1131.81c0.76,0.09,1.9,0.37,1.91,0.91c0.45,16.6,0.59,36.52-0.44,53.02c0.31,3.2-0.36,5.74-1.99,8.53
	c-3.34,4.39-5.37,10.89-10.73,12.65l-0.68,1.69c-63.42-0.04-126.9-0.29-190.43-0.74l-1.17-1.93l-1.91-0.92
	c0.31-24.02,0.63-48.05,0.94-72.08l1.93-1.13c13.89-2.46,28.07-3.27,42.53-2.44l158.88,0.52L1016.53,1131.81z"/>
<path class="st4" d="M1005.28,1206.93c-0.04,6.34-6.49,9.3-10.29,16.01c8.69-1.82,17.43,0.19,25.51-0.62
	c4.28,2.88,2.41,10.24-2.41,12.29l-170.7,32.73c-11.82,2.89-23.57,4.08-35.27,3.57l-1.91-0.92c0.29-20.96,0.58-41.93,0.86-62.91
	l1.94-1.13L1005.28,1206.93z"/>
<path class="st5" d="M1042.53,1108.64c0.36,4.7-4.89,6.93-4.9,11.48c0.03,2.7-1.34,2.78-2.48,0.35c-2.26,0.74-4.6,1.49-7,1.45
	c-70.41-0.96-139.86-1.55-209.2-1.84l-1.16-1.93c-0.29-3.48,1.02-7.12-0.58-10.32c29.46-2.81,58.72-1.51,89.07-1.08L1042.53,1108.64
	z"/>
<path class="st13" d="M1016.01,1194.28l0.52-62.46l1.39-1.96c4.94-0.71,9.9-1.04,14.88-1.02c-0.55-4.21,0.24-7,2.35-8.38
	c0.83,0.06,1.67-0.36,2.48-0.35c15.55,0.33,30.86-2.97,48.35-0.5L1016.01,1194.28z"/>
<path class="st5" d="M1071.46,1224.07c-2.56,4.66-8.4,6.88-9.72,12.24c-0.64,0.03-1.28,0.28-1.92,0.35
	c-4.71,1.53-9.47,2.97-14.37,3.71c-63.13,9.54-126.22,19.33-189.16,29.89l-7.48-0.04c-0.5,0.88-1.56,1.19-3.18,0.93
	c-0.32,2.62-1.36,2.49-2.53,0.14c-1.28,0.48-2.71,0.95-4.28,1.41c-0.01,0.75-0.11,1.88-0.64,2.01c-1.68,0.4-16.85,2.37-17.68,2.03
	c-0.78-0.31-1.26-1.01-1.6-1.75c-2.81,2.02-9.32,3.53-8.64-1.16c-2.34-2.22-1.2-4.07,1.83-2.94c35.02-4.73,69.68-11.98,104.96-18.79
	l101.3-19.53c3.54-1.79,1.98-7.43,2.12-10.27C1037.56,1220.59,1054.64,1224.38,1071.46,1224.07z"/>
<path class="st4" d="M1045.38,1106c-0.7,0.9-1.26,1.95-2.6,1.99l-4.94-6.74C1041.02,1101.94,1041.92,1105.96,1045.38,1106z"/>
<path class="st11" d="M521.25,1028.75c0.5-0.45,1.06-0.86,1.68-1.14c2.06-0.94,18.56-1.24,21.07-0.71l1.37,1.92l75.69,2.43
	c-4.26,6.09-10.8,10.32-17.53,15.03c-25.38,17.76-50.71,34.88-73.68,55.67c-3.44,3.11-5.27,5.56-4.82,9.88
	c0.49,4.71,3.84,5.4,6.79,7.53l1.04-0.83c3.4,2.23,6.47,2.58,9.21,1.07l9.65-6.98l2.2,0.78l2.37-0.61l6.67,5
	c2.41-0.59,4.56-0.68,6.48-0.27c0.9,0.52,1.88,1.16,2.26,2.18c1.16,3.16,1.11,13.62-1.46,16.07c2.76,3.24,2.61,14.64,1.24,18.58
	c-0.39,1.13-1.38,1.89-2.34,2.53l-0.91,1.91l-47.76-0.85c-16.7-15.83-33.24-31.86-49.62-48.08l-1.13-3.75l0.79-78.61
	C487.41,1028.52,504.35,1028.7,521.25,1028.75z"/>
<path class="st6" d="M536.67,1020.59c3.71,3.22,9.04,0.96,14.28,2.08c-1.9,2.61-5.18,3.35-5.58,6.16l-24.12-0.08
	C523.63,1024.09,531.32,1021.05,536.67,1020.59z"/>
<path class="st8" d="M1086.83,935.97c-0.79,6.5-5.57,11.5-8.21,18.71l29.1,1.1c-8.71,13.13-16.23,25.34-23.08,38.03l-1.75,1.86
	c-7.34-0.25-14.67-0.51-22.02-0.76l-1.95-1.99c-23.4-19.22-47.67-37.28-70.53-60.91C1022.52,935.34,1054.3,936.73,1086.83,935.97z"
	/>
<path class="st12" d="M1062.78,1026.42c-1.54,1.54-1.62,5.75-1.87,7.54c-0.33,2.32,4.7,2.1,7.49,1.97l0.59,16
	c-2.14,2.26-7.34,2.57-10.19,1.45c-1.27-8.93-0.9-17.2-0.72-25.82C1059.91,1026.71,1061.35,1026.71,1062.78,1026.42z"/>
<path class="st11" d="M1084.65,993.81c-1.34,2.49-1.59,5.72-4.79,7.38l-1.44,1.72c-4.92,0.02-9.84,0.28-14.75,0.77l-1.91-1.43
	c-0.44,0.79-0.77,0.7-0.97-0.21c0.81-3.24-0.5-6.18-1.85-9.12L1084.65,993.81z"/>
<path class="st12" d="M1079.86,1001.19c-2.04,5.29-5.14,12.1-11.08,14.63c-1.16-1.81-2.96-3.33-5.04-4.02
	c-3.76-1.55-6.08-7.96-1.98-9.55C1067.47,1000.27,1073.86,1001.71,1079.86,1001.19z"/>
<path class="st15" d="M1094.56,1035.73l-25.31,0.06C1076.36,1032.61,1087.4,1032.73,1094.56,1035.73z"/>
<path class="st15" d="M1060.78,1002.04c0.23,0.14,0.72,0.13,0.97,0.21c-0.14,3.41-0.26,6.83,1.98,9.55
	c-5.82-1.92-10.28-5.63-15.51-9.4l-55.27-39.88l-63,53.11c-5.42-2.39-10.38-6.53-15.34-9.59c0.17-0.91,0.37-1.8,0.7-2.64
	c0.33-0.83,0.65-1.62,1.2-2.19c15.62-16.12,34.36-31.64,52.51-44.42c8.75-6.24,9.44-9.51,2.06-9.8
	c-23.45,18.69-46.86,37.56-70.21,56.59l-3.11,0.22l-11.14-1.09l82.3-68.38C1001.37,955.69,1028.94,982.17,1060.78,1002.04z"/>
<path class="st12" d="M1017.65,1053.7c-3.92,0.6-7.35,0.46-11.21-0.3l-0.25-26.97c3.99-0.35,7.32-0.34,11.24,0.03L1017.65,1053.7z"
	/>
<path class="st12" d="M976.26,1052c-4.35-2.74-10.11-4.88-12.39-9.49c1.4-4.76,0.82-9.68,1.14-15.14c4.12-0.4,7.77-0.38,12.09,0.04
	C976.79,1035.97,977.81,1044.09,976.26,1052z"/>
<path class="st12" d="M677.56,1024.83c0.53,0.39,1.59,0.91,2.16,1.26l3.98,3.02c0.76,0.12,1.23,0.85,1.86,1.16
	c4.04,2.45,7.84,5.2,11.39,8.26c28.08,18.4,55.46,37.39,83.1,57.15c11.78,8.42,22.22,17.46,35.2,22.87
	c3.53,1.85,2.48,11.27-1.46,12.15c-1.22-0.31-2.44-0.65-3.6-1.1c-1.14-0.45-2.25-0.92-3.23-1.59
	c-35.93-24.3-71.75-48.79-106.82-73.67c-2.47-1.64-4.5-3.59-6.07-5.85c-4.3,4.17-9.14,7.96-14.53,11.37
	c-2.85,3.02-6.02,5.17-9.52,6.43c0.51,2.37,0.24,2.5-1.73,1.05c-1.14,1.73-2.34,3.52-4.05,4.73c-23.62,16.68-47.2,33.35-70.28,50.83
	c-5.75,4.02-11.61,7.85-17.6,11.49c-0.84,0.51-1.85,0.75-2.9,0.98c-1.05,0.24-2.14,0.34-3.23,0.4c-0.07-6.09,0.25-12.25-0.8-18.25
	c4.14-5.99,9.42-11.05,15.86-15.18c31.41-22.92,62.67-46.01,93.79-69.26c-2.89-2.4-3.94-4.69-3.16-6.86
	C674.6,1023.77,675.36,1023.13,677.56,1024.83z"/>
<path class="st6" d="M817.79,1118.15l144.39,0.93c24.9,0.16,48.86-0.46,72.97,1.39l-0.54,10.68c-6.17-1.33-12.44,0.67-18.07,0.67
	l-80.6-0.03c-41.13-0.02-81.42-1.11-121.97,0.03c-0.87-0.24-0.93-0.61-0.17-1.11c1.43-3.88,1.79-8.04,1.46-12.15
	C816.09,1118.48,816.94,1118.14,817.79,1118.15z"/>
<path class="st13" d="M677.56,1024.83c-0.7,0.25-1.27,0.75-1.64,1.4c-2.28,3.33-5.82,5.9-10.62,7.71
	c-37.21,24.69-73.19,51.13-107.93,79.33l-3.45,0.14l-10.35,7.49c-5.14,3.72-8.64,0.73-11.75-1.53c0.6-2.12,0.7-5.19,2.89-6.8
	l61.24-45.2c23.25-17.16,44.98-35.04,69.36-50.99C670.68,1017.5,674.56,1021.15,677.56,1024.83z"/>
<path class="st13" d="M696.95,1038.53c-3.87-2.53-8.25-4.75-11.39-8.26C689.68,1032.33,694.76,1034.44,696.95,1038.53z"/>
<path class="st13" d="M683.7,1029.11c-1.92-0.11-4.33-0.72-3.98-3.02C681.51,1026.45,683.37,1027.14,683.7,1029.11z"/>
<path class="st2" d="M385.96,461.01l-0.08-4.27C387.1,455.62,387.23,461.88,385.96,461.01z"/>
<path class="st2" d="M245.78,958.86c0.66,0.63,1.27,1.38,1.81,2.24l6.94,17.98c0.3,1.46-0.36,1.56-1.29,0.34
	c-0.98,0.17-2.79-0.69-3.5,0.4c-0.49,0.75,0.97,1.9,1.29,2.72l6.93,17.24l3.06-27.99l7.3,25.81l10.58-55.78l8.04,30.64
	c8.6-12.02,6.3-26.24,10.43-38.44c0.52,0.72,0.86,1.7,1.03,2.95l0.13,27.63c0.76,1.11,0.69,3.08,0.07,4.24l-0.31,75.43
	c-0.86,2.31-1.33,4.7-1.43,7.17c0.63,0.47,0.64,1.1,0.07,1.59c-1.45,0.54-3.02-1.42-3.96-2.7c-8.56-5.16-16.5-11.5-23.82-19.02
	c-6.01-6.18-12.38-11.05-19.1-14.61c-3.33-0.07-5.36-1.02-6.07-2.85c-5.62,1.87-11.55,2.77-17.8,2.69l-2.31-1.85
	c-0.92-0.14-1.71,0.09-2.36,0.71c-0.04,0.76-0.27,1.92-0.8,1.96c-20.02,1.57-42.91,2.96-62.93,3.03c-2.68,0.7-4.35,0.14-5-1.68
	c-2.29-0.78-4.68-0.45-6.99,0.01c-1.4,2.36-9.29,2.44-10.57-0.22l-1.92-0.68c0.19-42.4,0.39-84.93,0.62-127.6l1.97-14.88
	c0.01-2,0.51-4.59,0.29-6.53c0.1-1.48,0.78-1.42,1.36,0c-0.05,0.54,0.13,1.14,0.03,1.68c0.48,0.69,0.93,1.48,1.37,2.38l25.47,98.44
	l1.51,2.32c0.36,5.16-6.35,0.79-10.25,1.87c-0.44,0.97-0.63,1.92-0.17,2.92c0.64,1.49,1.41,2.93,1.94,4.47l1.9,2.19
	c1.35,3.9,4.15,7.11,4.94,11.23l1.79,2.23c0.07,0.56,0.03,1.15,0.13,1.71l0.91,1.05l0.04,0.83c1.63,5.1,3.55,6.74,5.76,4.92
	c2.84-16.84,7.92-33.12,11.89-51.1l12.56,44.53c4.51-6.43,4.5-13,7.57-19.19c-2.61-0.19-4.09,1.44-5.18,0.09
	c2.44-7.76,8.5-13.42,9.51-21.73c0.3-2.47-5.49-1.53-7.89-1.77l13.1-29.12c0.57-1.27,1.5-3.71,0.21-5.12
	c-0.72-0.79-2.97,1.25-4.94,0.07c7.8-24.79,11.21-49.73,17.58-75.53c5.81,26.1,10.67,51.58,18.75,76.96l-5.61-1.01l11.42,31.19
	l-8.95-4.89C242.77,953.91,245.23,956.1,245.78,958.86z"/>
<path class="st9" d="M243.99,1013.83c-0.36,0.93-0.76,1.85-1.28,2.69c-0.52,0.84-1.02,1.65-1.72,2.18
	c-7.47,5.65-14.95,11.26-22.82,16.37c-28.83,18.01-57.41,36.3-85.76,54.86l-2.96,0.64l-0.68,1.71c-12.02-0.04-24.08-0.24-36.16-0.6
	l-2.4-1.97l-43.3-64.5l45.3-0.96l-1.25-4.62c3.43-1.5,7.89-1.38,11.8-1.35l2.05-1.91c9.68,0.06,19.35,0.12,29.03,0.17l1.38,1.93
	c3.06,0.02,7.68-0.69,10.57,0.22c2.27-0.55,4.76-0.83,6.99-0.01l68.73-3.31c0.45-0.94,1.45-0.83,2.36-0.71
	C230.52,1014.6,237.37,1013.22,243.99,1013.83z"/>
<path class="st10" d="M135.89,875.33l-0.67,143.16l-32.47-0.19l19.37-41.3c-4.54-1.4-7.99,0.33-12.23-1.74L135.89,875.33z"/>
<path class="st7" d="M298.4,936.96c-1.05-0.61-0.94-1.88-1.03-2.95c-0.29-3.54,0.55-7.49,1.25-10.67
	C301.13,927.51,298.38,932.35,298.4,936.96z"/>
<path class="st10" d="M172.91,1007.04c-0.31,1.86,0.66,3.89-1.24,6.04c-1.8-3.98-4.36-7.28-4.52-10.95
	C170.5,1002.66,168.71,1009.47,172.91,1007.04z"/>
<path class="st4" d="M301.15,791.76c-0.01,14.86,0.78,29.78,0,44.64C298.43,822.36,298.43,805.79,301.15,791.76z"/>
<path class="st14" d="M350.3,739.16l1.31,5.68c-1.56,24.03-1.41,48.08,0.44,72.14c0,0-0.56,1.88-1.67,5.65
	c-7.63,1.27-14.18,1.69-22.8,1.98l0.93-66.18c0.09-6.37,6.44-23.88,18.25-23C348.56,735.57,349.5,737.46,350.3,739.16z"/>
<path class="st6" d="M360.93,796.58l-0.01,18.67c-1,2.2,1.2,6.35-1.74,7.11c-2.96,0.76-6.04,0.27-8.81,0.27
	c-1.18-27.77-3.47-56.07-0.08-83.47c7.21,5.76,10.29,14.43,10.36,23.36L360.93,796.58z"/>
<path class="st14" d="M360.92,815.25c-1.54-5.8-1.57-12.87,0.01-18.67C360.98,802.94,363.53,809.53,360.92,815.25z"/>
<path class="st11" d="M746.79,378.31c0.15-2.06,2.28-3,4.02-3.79C749.69,376.06,748.88,378.13,746.79,378.31z"/>
<path class="st8" d="M468.23,1145.57c2.28,1.35,4.58,2.79,6.37,4.77c13.06,14.46,26.17,28.71,39.41,43
	c1.82,1.96,2.99,4.42,4.12,6.82l3.06,1.24c15.16,14.73,30.27,29.98,45.09,45.19c1.48,1.52,2.35,3.52,3.17,5.45
	c2.17,0.45,4.09,2.09,5.77,4.92l13.25,14.29c5.1,5.95,13.2,16.03,9.71,24.29c-1.16,2.76-4.52,7.5-7.52,5.24l-4.08-2.28
	c-16.74-19.1-34.26-37.52-52.56-55.24c-3.43-3.76-6.75-7.63-9.87-11.65c-0.42-0.54-0.6-1.29-0.78-2.07
	c-0.18-0.8-0.22-1.62-0.23-2.46l-0.98-1.11l-1.81,0.92c-25.72-24.82-51.45-49.65-77.19-74.49l-0.52-3.17l-2.33,0.23
	c-1.01-2.15-2.4-3.56-4.16-4.21L279.6,1305.41l-2.2-0.5l-0.67,1.92c-40.47,0.28-80.86,0.08-121.16-0.59l-1.17-1.37
	c-7.67-3.93-12.14-12.54-18.04-18.44l103.25-1.19c23.32-0.27,42.03-9.14,58.43-26.72c44.41-47.59,90-93.97,135.87-139.89
	C444.58,1119.26,459.32,1142.3,468.23,1145.57z"/>
<path class="st15" d="M442.64,1149.23c1.38,2.06,1.84,3.19,0.31,5.3c-2.85,4.1-6.16,7.69-9.92,10.77c0.24,2.47-3.1,7.32-5.9,6.67
	c-47.05,43.33-90.36,91.11-135.09,137.43c-2.35,2.43-4.03,4.7-7.02,4.99c-2.81,0.27-5.63-1.25-7.63-3.01
	c-2.9,0.37-2.75-5.98,0.02-6.46l158.2-161.85C439.87,1143.51,440.62,1147.28,442.64,1149.23z"/>
<path class="st12" d="M277.4,1304.91l-0.02,6.46l-109.17,2.27c-6.07,0.13-12.25-2.9-13.81-8.78L277.4,1304.91z"/>
<path class="st9" d="M1059.82,1236.66l-62.37,66.16c-26.82,9.89-54.09,18.54-81.81,25.95c-65.17,19.87-129.56,41.22-194.14,62.87
	c-6.81,2.28-13.81,3.91-20.83,5.41c0.05,3.47-6.32,2.65-7.4-0.18c-0.93,0.27-1.9,0.07-2.26-0.88c-0.22,2.87-5.87,2.4-6.3-0.44
	c-0.76-0.6-1.19-0.82-2.2-0.84c-0.52,2.67-1.92,2.42-2.61-0.12c-1.23-0.4-2.33-0.87-3.32-1.4l-5.31,0.33
	c-38.96-6.7-77.95-13.32-116.95-19.85l-4.96-1.89l0.97-37.5c7.61-3.38,11.42-5.07,11.42-5.07c71.55-17.22,144.35-32.87,215.86-47.14
	c12.78-2.55,25.21-4.09,37.66-5.57c1.35-0.16,2.52-0.81,3.63-1.52l19.91-2.29c1.36-0.53,2.78-0.99,4.28-1.41
	c0.84,0.06,1.69-0.13,2.53-0.14c1.28,0.02,2.34-0.29,3.18-0.93C919.06,1258.43,989.16,1245.05,1059.82,1236.66z"/>
<path class="st8" d="M997.46,1302.82l-24.99,29.37l85.17,0.67c-13.74,12.64-26.27,24.99-39.98,36.02
	c-74.19,13.66-148.52,35.51-222.69,53.58c-4.99-0.51-9.93-1.84-14.81-3.99c-22.35-5.43-44.78-10.52-67.31-15.29l-11.07-3.58
	l-1.09-2.54C798.11,1361.84,897.97,1331.35,997.46,1302.82z"/>
<path class="st8" d="M1048.3,1448.3c0.82-0.86,1.67-1.79,1.78-2.91c0.18-1.91-3.24-0.8-4.72-0.8c-33.3-0.07-66.23,0.09-98.9-0.61
	l107.13-0.6C1053.13,1446.52,1050.19,1447.14,1048.3,1448.3z"/>
<path class="st8" d="M948.33,1434.48c-1.81,3.02-4.35,5.19-7.2,8.29c1.58,1.15,2.86,0.28,3.55,1.17c-1.36,1.14-4.85,0.94-5.4-0.97
	C941.72,1439.79,945.16,1436.48,948.33,1434.48z"/>
<path class="st8" d="M993.47,1392.17c-2.6,3.48-5.75,6.86-9.39,9.21C987.05,1398.13,989.88,1394.71,993.47,1392.17z"/>
<path class="st8" d="M997.54,1489.28c-1.22,2.27-3.55,3.47-5.76,4.68C991.91,1491.15,995.54,1490.76,997.54,1489.28z"/>
<path class="st8" d="M977.07,1505.66c-0.64,2.1-2.6,3.24-4.51,4.16C973.81,1508.15,975.13,1506.51,977.07,1505.66z"/>
<path class="st8" d="M959.84,1423.9c-0.85,2.59-3.61,3.63-5.49,5.38C955.75,1427.15,957.77,1425.39,959.84,1423.9z"/>
<path class="st8" d="M1010.79,1375.87c-1.26,2.27-3.48,3.89-5.57,5.41C1006.78,1379.43,1008.45,1376.89,1010.79,1375.87z"/>
<path class="st8" d="M970.5,1414.36c-1.29,1.86-2.37,4.33-4.84,4.48C966.34,1416.58,968.3,1415.08,970.5,1414.36z"/>
<path class="st8" d="M1013.89,1475.58c-0.34,2.05-2.15,3.36-4.12,3.71C1010.43,1477.42,1011.8,1475.62,1013.89,1475.58z"/>
<path class="st5" d="M292.97,1050.31c1.03,1.71,2.35,2.61,3.96,2.7l-0.07-1.59c0.28-0.82,0.56-0.76,0.84,0.1
	c-0.34,2.25,1.98,5.62,3.94,7.31l68.86,59.48c-7.06,2.74-13.7,1.74-19.99,1.73l-3.78-2.2c-31.49-30.48-63.92-59.96-97.29-88.45
	c-35.94,23.61-71.43,47.82-106.47,72.63c-3.1,1.71-8.89,3.75-11.4,0.37l-3.8-0.26c-3.46-1.41-1.67-10.7,1.65-11.55
	c34.96-26.79,81.58-49.68,114.55-76.75c4.04,0.38,7.71,0.52,11.74,3.74C268.7,1027.94,280.99,1039.09,292.97,1050.31z"/>
<path class="st6" d="M350.52,1120.05l-24.08-0.04c-2.16-0.63-3.92-2.23-5.3-4.8c-26.89-23.44-54.23-46.9-82.04-70.39l-89.31,63.05
	c0,0-4,1.72-12,5.16c-3.08,1.06-5.15,0.57-6.23-1.49c-2.71-0.13-2.72-1.54-0.25-2.61c0.15-2.18,0.32-4.35,0.28-6.54
	c3.37-0.33,7.36,0.26,10.8-2.29c34.47-25.52,70.31-48.2,107.1-72.37C284.88,1058.05,320.32,1087.09,350.52,1120.05z"/>
<path class="st13" d="M131.06,1124.18l1.19,2.38c-0.23,15.44,0.04,30.92,0.8,46.42l-1.41,4.78c-1.78,3.5-4.76,6.82-8.74,8.65
	l-58.73-61.05l0.85-1.94c21.61-0.38,43.23-0.76,64.86-1.14L131.06,1124.18z"/>
<path class="st15" d="M131.31,1108.93c-0.06,0.86,0.29,1.75,0.25,2.61c2.76,0.56,2,8.84,1.47,11.39l-1.97,1.24l-66.9,1.17
	c-4.43-4.61-10.8-8.35-13.96-16.78L131.31,1108.93z"/>
<path class="st11" d="M129.44,1090.58c-0.71,3.85-1.94,7.62-1.65,11.55c-10-0.69-20.2-0.21-30.82-0.8
	c-3.04-3.64-5.03-7.96-6.77-11.61L129.44,1090.58z"/>
<path class="st4" d="M154.67,1225.72c0.21-1.55,0.09-3.19-0.91-4.45c-0.09-0.1,5.85,3.28,3.89,5.06
	C156.81,1227.09,155.18,1225.54,154.67,1225.72z"/>
<path class="st4" d="M142.33,1224.65c-3.02-0.2-7.87,2.08-9.1-1.36C136.17,1222.84,141.03,1221.83,142.33,1224.65z"/>
<path class="st4" d="M152.84,1225.73c-2.45,0.01-5.08,0.92-6.95-0.94C147.75,1223.51,152.48,1222.86,152.84,1225.73z"/>
<path class="st4" d="M123.08,1223.08c-2.89,1.29-3.51,0.14-6.13-0.11C118.49,1221.52,121.6,1221.53,123.08,1223.08z"/>
<path class="st12" d="M326.44,1120.01l-65.42,2.27l-0.43,17.83c-7.42,9.42-14.85,18.81-23.64,26.33c-0.56-0.51-1.09-1.04-1.51-1.65
	c-2.48-3.58-1.5-40.15-1.1-47.58l1.73-3.75l0.88-1.91l25.66,0.15c1.9-7.85-5.97-9.05-12.19-9.56l-13.74-0.03l-1.33-1.98l-2.06,1.79
	c-9.41-0.8-17.02-1.1-20.41,9.27c1.62,0.99,2.71,2.14,3.26,3.44c3.67,0.63,2.73,7.31-0.23,8.58c-45.61-2.48-52.48,28.52-84.28,54.55
	c-2.17-17.6-1.28-35.77-0.57-53.58l0.5-12.63c10.18,0.67,18.07-5.76,26.6-11.8l80.78-57.16c24.02,18.45,45.18,37.94,67.08,57.59
	C313.4,1106.79,323.03,1111.5,326.44,1120.01z"/>
<path class="st13" d="M236.07,1113.46c1.19,17.75-1.58,35.7,0.88,52.98c-5.09,4.35-12.9,0.91-20.04,1.97
	c-0.67-15.76,0.89-30.41-1-45.2c-0.33-2.54,1.37-5.82,0.23-8.58C220.5,1110.78,231.24,1110.17,236.07,1113.46z"/>
<path class="st2" d="M350.25,929.1c-4.9,1.4-8.67,0.66-13.95,0.39c0.93-10.52-4.22-39.26,9.29-42.17
	C353.05,899.98,349.26,914.24,350.25,929.1z"/>
<path class="st7" d="M298.29,1044.26c-0.01,2.52-0.2,4.72-0.58,7.26l-0.84-0.1C296.77,1049.02,295.21,1044.88,298.29,1044.26z"/>
<path class="st7" d="M298.61,968.83l-0.07-4.24C299.7,963.52,299.88,969.68,298.61,968.83z"/>
<path class="st5" d="M676.59,1393.2c1.05,0.43,2.16,0.9,3.32,1.4c0.84-0.15,1.79,0.21,2.61,0.12c0.84-0.13,1.83,0.02,2.2,0.84
	l6.3,0.44c0.72,0.73,1.24,0.8,2.26,0.88c2.23-0.3,5.22,0.97,7.4,0.18c21.43,9.48,74.82,13.96,94.28,25.4l-61.29,14.93
	c-0.68,0.47-1.47,0.93-2.37,1.38c-1.85-0.26-3.77,0.39-5.61,0.23c-38.4-3.44-138.94-5.9-176.61-2.1l0.28-65.11
	C592.09,1376.8,634.28,1385.49,676.59,1393.2z"/>
<path class="st9" d="M813,1205.94l-0.89,64.96c-1.03,0.66-1.66,1.74-1.83,2.94l-0.51,1.96c-33.49,1.6-66.74,5.79-100.03,10.39
	l-1.38-1.76c-0.48-1.04-0.92-2.08-1.24-3.16c-0.31-1.05-0.58-2.1-0.63-3.15c-0.47-10.42-0.8-21.03-0.93-31.46
	c-0.01-1.05,0.23-2.11,0.5-3.18c0.28-1.1,0.69-2.16,1.14-3.21c-2.63-1.9-3.95-2.86-3.95-2.86l-32.62,0.09l-2.26,54.5l-1.96,1.08
	c-4.04,3.77-9.32,6.08-15.83,6.93c-31.93,6.61-63.6,14.45-95.02,23.52c0,0-1.74-0.22-5.21-0.67l-0.28-15.23
	c1.63-1.58,5.86-1.72,7.89-0.38c5.46-3.81,14.95-1.15,20.99,1.35c0.83-1.38,2.71-1.83,5.66-1.33c1.82-2.63,3.83-4.81,6.03-6.51
	c21.6-12.37-17.96-39.25-21.21-48.75l-1.83-3.32c0.23-13.98,0.49-27.97,0.76-41.95l1.94-1.09l0.92-1.92
	c80.18,0.09,160.37,0.18,240.58,0.27L813,1205.94z"/>
<path class="st6" d="M578.96,1308.62c-7.02-0.25-13.96-1.53-20.99-1.35c-2.25-0.9-4.76-1.1-7.51-0.62l-0.44-1.09l-98.69-104.62
	c-8.98-9.52-18.75-17.69-24.2-28.98c1.6-1.96,2.86-5.36,5.9-6.67c2.16-3.94,5.29-2.98,8.76-1.2
	c43.72,43.69,87.66,89.58,129.57,135.26c2.1,2.29,4.35,4.41,6.8,6.32L578.96,1308.62z"/>
<path class="st8" d="M810.28,1273.84c2.31,2.28,5.59,1.51,8.64,1.16c-0.24,1.87-4.04,3.14-6.52,3.42
	c-27.65,3.1-53.56,9.87-80.94,15.62c-60.87,12.77-121.66,23.87-181.12,40.26c0.1-3.82,0.1-7.6,0.03-11.42
	c13.42-3.45,27.06-6.27,40.57-10.87c24.96-8.5,51.55-9.83,75.49-18.91c-0.07-3.13,5.13-2.94,7.46-1.95l2.01-1.64
	c9.91-0.61,19.78-2.79,29.59-6.53c0,0,0.96,0.49,2.87,1.46l57.72-7.46L810.28,1273.84z"/>
<path class="st13" d="M373.25,1421.01c-6.57,1.01-12.26,0.57-18.66,0.1l0.12-50.81c6.25-0.5,12-0.53,18.52,0.02L373.25,1421.01z"/>
<path class="st13" d="M352.07,1420.78c-5.96,1.16-12.03,1.05-18.32,0.26l-0.22-50.65c6.48-0.62,12.2-0.26,18.78-0.21L352.07,1420.78
	z"/>
<path class="st13" d="M493.36,1421.08c-6.1,0.55-11.53,0.48-17.94-0.03l-0.29-50.9c6.46-0.47,11.88-0.5,18.54-0.09L493.36,1421.08z"
	/>
<path class="st13" d="M514.46,1421.11c-6.36,1-11.84,0.33-18.1,0.11l-0.01-51.1c6.27-0.33,11.85-0.43,18.13,0L514.46,1421.11z"/>
<path class="st13" d="M423.67,1274.44c-5.63,1.37-11.31,1.41-17.34,0.09l0.18-48.37c6.53-0.21,11.61-0.53,17.41,0.17L423.67,1274.44
	z"/>
<path class="st13" d="M442.25,1274.24c-5.2,2.11-10.82,1.26-16,0.67l-0.52-48.89c6.13-0.11,10.94-0.42,16.71,0.35L442.25,1274.24z"
	/>
<path class="st7" d="M557.97,1307.27c-2.62,0.07-5.25,0.48-7.89,0.38l-0.06-2.08C552.69,1306.2,557.16,1303.98,557.97,1307.27z"/>
<path class="st2" d="M569.14,1156.88c2.46,1.19,2.62,10.16,0.08,11.3l-0.86,1.93c0,0-16.29,0.11-48.86,0.32l-1.15-1.91
	c-1.54,1.92-3.8,1.66-6.78-0.79c-14.09-11.72-28.09-23.52-42-35.4l-0.75-2.48l0.91-23.72l51.36,50.11L569.14,1156.88z"/>
<path class="st7" d="M518.35,1168.51l2.02,2.81c0.69,8.74,0.71,17.47,0.06,26.2l-2.3,2.64c-17.36-17.18-34.62-35.53-49.89-54.58
	c-0.11-5.1,0.39-10.68,0.58-15.73C479.13,1134.39,509.77,1168.56,518.35,1168.51z"/>
<path class="st6" d="M914.62,1006.04c-5.41-0.5-11.59-0.18-16.84-2.24l69.43-56.51c2.14-1.74,3.99-2.99,6.3-2.06
	c1.68,0.68,6.04,2.35,4.57,4.88c-4.62,7.96-13.39,10.95-19.95,16.72C943.23,979.92,927.54,991.88,914.62,1006.04z"/>
<path class="st4" d="M783.53,1035.75c-3.12,0.58-3.11-1.81-4.06-2.86C781.24,1033.12,783.5,1033.67,783.53,1035.75z"/>
<path class="st15" d="M813.8,1130.7c0.01,0.37,0.17,0.74,0.17,1.11l-0.97,74.13l-242.69-0.27c-0.47-0.64-0.91-1.3-1.24-2.01
	c-0.78-1.7-1.45-27.16-1.27-31.39c0.06-1.48,0.67-2.84,1.41-4.11c-0.45-3.08-0.63-8.26-0.08-11.3c1.26-6.94,1.18-13.97,1.1-21.1
	c34.48-19.75,64.06-48.14,98.06-68.43l1.92,0.87l-0.04,27.09c0.29,0.59,12.89,0.64,13.18,0.05c0.6-1.2,0.65-25.64,0.1-26.87
	l-12.15-0.23l-1.28-1.94c6.23-7.8,15.53-12.59,24.25-19.41c16.25,14.52,34.27,24.37,51.63,36.96
	C768.49,1100.23,792.11,1114.24,813.8,1130.7z"/>
<path class="st13" d="M910.64,1149.09c-3.22,8.72-0.38,18.05-1.89,27.74c-3.46,1.04-8.04,1.45-11.67-0.48
	c-1.81-9.73-0.46-19.45,0.13-29.18c9.45,0.13,17.34,0.14,26.35-0.88l-0.11,29.69c-3.67,1.5-8.02,1.41-11.75,0.45
	C910.87,1167.44,913.69,1158.95,910.64,1149.09z"/>
<path class="st15" d="M995.67,1175.48c-1.07,2.79-8.01,2.58-10.26,1.4c-0.99-10.19-0.33-19.51-0.22-29.73
	c3.77-0.64,7.05-0.18,11.23,0.29C996.04,1156.72,997.51,1165.67,995.67,1175.48z"/>
<path class="st15" d="M982.91,1176.73c-2.61,1.42-9.44,1.87-10.67-0.96c-1.85-9.16,0.94-18.1,0.22-27.3
	c3.74-1.57,6.76-1.51,10.28-1.07L982.91,1176.73z"/>
<path class="st8" d="M843.1,1271.3c0.47,1.36-1.02,1.77-1.73,1.69l-2.54-0.28c-0.49-1.34,1.02-1.66,1.76-1.7
	C841.37,1270.97,842.44,1271.25,843.1,1271.3z"/>
<path class="st6" d="M675.92,1026.22l5.83,7.08c-36.78,29.52-76.54,54.38-112.32,84.22c-2.27,1.9-5.78,2.97-7.91,1.73
	c-2.89-1.69-4.98-3.96-7.6-5.85C585.3,1090.69,642.77,1041.34,675.92,1026.22z"/>
<path class="st13" d="M670.03,1066.29l15.36,0.29l-0.06,30.66l-17.08,0.08l0.05-29.99C668.77,1067.05,669.41,1066.28,670.03,1066.29
	z"/>
<path class="st10" d="M152.78,1018.69c-2.65,0.13-4.09,0.92-6.99,0.01C147.39,1016.88,151.16,1016.91,152.78,1018.69z"/>
<path class="st12" d="M522.16,1225.97l0.98,1.11c18.39,25.32,48.85,47.68,67.51,73.7c-0.23,2.87-2.36,5.4-3.99,7.25
	c-2.42,2.73-5.11,0.69-7.69,0.6c-9.14-6.25-14.77-15.45-22.8-23.8l-111.83-116.16c-3.54-3.68-6.92-5.27-11.31-3.38
	c1.3-6.51,9.25-9.09,9.62-16.06L522.16,1225.97z"/>
<path class="st4" d="M569.21,1168.17c1.8,12.3,1.34,24.97,1.1,37.5l-0.87,46.36c-18.06-15.93-34.1-34.84-51.31-51.88
	c1.68-10.45,0.51-21.08,0.22-31.64L569.21,1168.17z"/>
<path class="st8" d="M236.07,1113.46c-3.21-1.94-4.11-11.33-0.72-13.33c6.99,0.5,23.35-1.78,27.68,4.49
	c1.83,2.65,2.68,5.39,1.62,9.02L236.07,1113.46z"/>
<path class="st9" d="M235.35,1100.12c-0.42,4.5,0.42,8.96,0.72,13.33c-7.21-0.27-13.55,0.32-19.92,1.16
	c-2.36,0.31-6.02-1.94-4.93-4.26C215.8,1100.58,217.26,1098.83,235.35,1100.12z"/>
<path class="st13" d="M707.21,1240.28c0.62,14.71,1.43,29.43,1.15,44.16c-11.05,1.43-22.47,8.99-34.47,6.71l-1.93-0.87l-0.58-49.74
	c0.73-2.32,0.84-2.41,3.25-3.05c2.93-0.77,27.23-0.51,30.04,0.46C705.79,1238.34,706.57,1239.32,707.21,1240.28z"/>
<path class="st13" d="M776.5,1264.27c-8.64,1.6-16.74,0.76-25.36-0.2c-0.27-10.88-0.8-20.82,0.11-31.24
	c8.92-0.34,16.67-0.55,25,0.12L776.5,1264.27z"/>
<path class="st13" d="M628.38,1264.37c-8.65,1.62-15.57-0.38-24.34-0.05l0.04-31.28c8.25-0.39,15.99-1.01,24.15,0.28
	C629.58,1243.54,628.79,1253.63,628.38,1264.37z"/>
<path class="st15" d="M707.21,1240.28c-10.68-1.88-21.65-0.87-33.92-0.92l0.6,51.79c-1.66,2.19-5.24,1.11-7.46,1.95l2.17-57.5
	l34.14-0.11c1.59-0.01,3.02,0.42,3.74,1.46C707.08,1237.82,707.16,1239.14,707.21,1240.28z"/>
<path class="st13" d="M629.58,1142.72l1.07,0.68c-0.09,10.03-0.28,20.04-0.58,30.03l-1.3,0.62c-6.14,1.31-11.67,0.8-18.21-0.19
	c0.19-10.84-0.69-21.08,1.11-32.05C617.94,1141.85,624.34,1140.44,629.58,1142.72z"/>
<path class="st13" d="M752.68,1173.91l-1.28-0.29c0.35-9.86,0.44-19.74,0.27-29.64l1.05-0.63c4.18-4.24,11.85-1.33,17.67-1.4
	c1.1,10.95,0.89,20.53,0.7,31.61C764.69,1174.31,758.71,1173.74,752.68,1173.91z"/>
<path class="st13" d="M750.63,1143.36c0.57,0.47,1.02,0.95,1.04,1.45c0.32,6.53,0.31,13.88,0.02,20.42c0.5,3.77-0.12,6.63-1.87,8.61
	c-5.51,0.3-11.19,0.54-17.21,0.18l1.01-32.4C739.68,1142.21,746.46,1139.47,750.63,1143.36z"/>
<path class="st13" d="M631.6,1174.05l-1.28-0.3c0-9.92,0.11-19.86,0.32-29.81l1.1-0.63c4.3-3.84,11.65-1.44,17.59-1.42l-0.91,32.49
	C642.47,1175.09,636.77,1175.54,631.6,1174.05z"/>
<path class="st13" d="M703.97,1096.19c-5.09,2.11-10.28,1.01-15.75,0.92l-0.09-31.25c5.61-0.53,10.52-0.91,15.77,0.51
	C704.64,1076.18,705.06,1085.59,703.97,1096.19z"/>
<path class="st12" d="M631.74,1143.32l-0.14,30.74c-1-0.29-2.32,1.17-2.82,0l0.8-31.33
	C630.62,1143.18,631.24,1143.15,631.74,1143.32z"/>
<path class="st12" d="M752.73,1143.35l-0.04,30.56c-1.35,0.04-2.19,1-2.85-0.07c1.67-10.04,0.66-20.31,0.8-30.48L752.73,1143.35z"/>
<g>
</g>
<g>
</g>
<g>
</g>
<g>
</g>
<g>
</g>
<g>
</g>
<g>
</g>
<g>
</g>
<g>
</g>
<g>
</g>
<g>
</g>
<g>
</g>
<g>
</g>
<g>
</g>
<g>
</g>
</svg>
