<?xml version="1.0" encoding="iso-8859-1"?>
<!-- Generator: Adobe Illustrator 30.2.1, SVG Export Plug-In . SVG Version: 9.03 Build 0)  -->
<svg version="1.1" id="Layer_1" xmlns="http://www.w3.org/2000/svg" xmlns:xlink="http://www.w3.org/1999/xlink" x="0px" y="0px"
	 viewBox="0 129.6 1200 1541.2" style="enable-background:new 0 129.6 1200 1541.2;" xml:space="preserve">
<style type="text/css">
	.st0{fill:#F8DBA1;}
	.st1{fill:#FFFFFF;}
	.st2{fill:#01C4BC;}
	.st3{fill:#40DCCD;}
	.st4{fill:#AFF3EA;}
	.st5{fill:#75E9DC;}
	.st6{fill:#03F0D1;}
	.st7{fill:#046767;}
	.st8{fill:#03AD80;}
	.st9{fill:#A4602D;}
	.st10{fill:#F1BC5B;}
	.st11{fill:#FB2420;}
	.st12{fill:#8AD50B;}
	.st13{fill:#AA0906;}
	.st14{fill:#0132B8;}
	.st15{fill:#A5C692;}
</style>
<path class="st0" d="M472.23,1230.76c1.28-0.72,3.4-0.42,4.13,0.9c0.96-2.57,1.86-2.51,2.53,0.14l18.97,1.93
	c24.53,5.03,48.98,10.05,73.33,15.04l0.76,2.12l13.37,4.7c16.94,11.19-12.73,21.99-22.15,25.04c-38.1,9.75-76.66,17.76-115.66,24.03
	c-9.92,2.05-19.8,4.34-29.36,7.55c-40.48,13.6,13.22,27.87,28.54,30.03l169.45,26.67c9.72,1.73,19.58,3.79,28.81,7.54
	c17.67,8.79,12.89,17.61-14.35,26.46c-45.03,22.4,36.91,33.17,52.18,35.1c57.97,6.06,116.15,13.16,174.54,21.31
	c24.65,3.66,66.61,11.17,87.06,24.71c4.25,2.81,0.41,10.17-1.8,13.36l-13.01,12.64c-13.92,15.13,1.46,24.62,17.06,29.16
	c32.96,9.6,67.33,15.43,101.46,20.49l151.01,22.23l0.89,2.07v87.85l-0.92,1.92c-136.16,0.05-272.35,0.1-408.56,0.15l-1.2-1.92
	l-14.17-2.37l-71.67-20.9c-44.73-13.9-97.03-30.54-133.02-61.09c-12.95-10.99-17.82-23.4-19.93-39.5
	c-0.28-20.6-1.98-39.73-24.3-48.22c-73.99-30.04-154.52-46.42-232.82-61.35l-2.57-2.36c-1.85-0.38-1.94-1.21-0.15-1.88
	c-0.03-0.87-0.07-1.88,0.83-2.26c-0.2-2.08-0.36-4.15-0.38-6.23c-0.02-2.07,0-4.12,0.28-6.14c9.07-64.83,25.64-135.54,47.26-197.32
	c0.67-1.92,1.6-3.74,2.57-5.57c0.97-1.83,2.07-3.59,3.2-5.34l0.94-1.8c41.98,6.34,83.96,12.67,125.95,19.01L472.23,1230.76z"/>
<path class="st1" d="M0,128.64V0h1200v128.9l-0.93,1.92c-399.25-0.09-798.54-0.17-1197.87-0.26L0,128.64z"/>
<path class="st1" d="M85.39,1671.77c0.45-2.9,3.4-2.66,4.78-0.21l0.9-1.92c21.48,0.02,42.97,0.04,64.47,0.06l1.16,1.92l6.68-1.93
	c22.96-0.06,45.9-0.12,68.81-0.16l1.16,1.92c-0.12-0.97,0.28-1.63,1.17-1.92c30.85,0.03,61.71,0.07,92.56,0.1l1.17,1.92l5.5-1.94
	c23.44-0.07,46.86-0.13,70.25-0.2l1.17,1.92l2.48-1.76c11.26,0.11,22.53,0.31,33.79,0.61l1.09,1.94c0.87-1.11,3.17-1.74,4.64-2
	c3.82-0.67,29.99-1.25,33.45-0.54l1.16,1.9l4.65-1.91c96.58,0.16,193.3,0.32,290.16,0.49l12.76,1.94l410.67-0.15V1800H0v-127.68
	c0.96-3.21,6.21-3.52,7.69-0.57l4.38-1.92c24.06,0.01,48.12,0.01,72.17,0.02L85.39,1671.77z"/>
<path class="st2" d="M1200,128.9v128.79l-6.05-1.19c-87.03-50.26-189.7-27.49-260.59,39.7c-88.59,0.4-177.26,0.54-266,0.39
	l-1.19-1.92l-2.52-2.29c-4.11-12.3-10.1-23.77-17.96-34.43l0.09-3.41c-0.58-0.61-1.02-1.41-0.7-2.15c3.03-7.11,3.02-9.01-2.14-15.18
	c-73.43-38.78-161.88-11.14-210.52,54.18l-4.3,2.54l-2.59,1.79c-56.15,0.56-112.26,0.72-168.32,0.47
	c-10.46-9.92-15.7-14.88-15.7-14.88c-8.82-33.65-38.21-57.34-73.26-57.06C118.24,196.01,61.49,187,6.08,203.81L0,203.52v-74.88
	L1200,128.9z"/>
<path class="st3" d="M1200,257.69v317.29l-2.25,2.06c-10.14,0.22-20.23-0.08-30.27-0.9l-3.8,0.21
	c-78.12-22.26-159.34-25.97-237.21-0.46l-3.83-0.05l-10.45,1.83c-36.39-0.3-72.7-0.6-108.93-0.9l-1.15-1.93l-1.58-1.99
	c3.18-25.86,6.4-61-13.85-80.64l-0.39-2.57c-1.05-0.25-1.97-0.96-2.76-2.14c-2.8-0.02-2.66-3.16,0.04-3.74
	c-0.88-0.93-1.63-1.99-1.83-3.27c-0.53-3.5,0.8-15.42,1.46-19.56l2.01-3.17l2.21-1.56c15.2,2.76,31.77,2.04,41.8-11.32
	c1.35-1.19,2.09-0.72,3.22,0.43c5.09,5.16,2.2,23.75-1.92,29.66c28-17.24,33.66-56.25,15.13-83.02l-0.06-3.42
	c-2.83,0.52-3.56-4.3-1.01-5.29l-1.68-1.47c-0.26-5.72-3.28-10.37-9.04-13.96l0.33-2.19c-2.62,0.27-5.17-0.67-7.65-2.82
	c-77.63-33.61-147.81,27.38-176.2,97.26l-3.32,2.71c-2.01,2.1-4.89,3.37-8.63,3.81c-39.99,17.73-57.83,66.6-66.45,107.12l-2.72,3.97
	c-3.07-0.61-6.29-0.98-9.66-1.09l-0.64-2.32l-0.63-3.34c9.13-22.31,14.58-46.63,15.79-70.79c1.02-20.43-1.88-38.25-7.8-57.64
	l-1.93-1.07c-0.75-6.35-0.17-12.32,1.74-17.89c-0.75-0.06-1.88-0.25-1.95-0.79c-0.42-3.22-1.32-18.13-0.81-20.59l1.74-4.6
	l-2.05-3.52c-0.05-9.43-0.65-18.82-1.8-28.17l1.3-3.87l2.51-1.4c22.09,4.91,47.18,3.35,61.43-16.55c1.48-1.45,2.2-0.9,3.39,0.65
	c7,9.1,1.7,37.59-4.66,47.1c31.64-19.89,46.86-56.67,39.79-93.18l1.19-3.92l266.35-0.08C1010.64,223.65,1106.74,204.17,1200,257.69z
	"/>
<path class="st3" d="M428.11,293.93l-1.22,3.87c-16.53,26.21-32.98,52.46-49.34,78.75l-3.11,2.63c1.08,2.15,0.2,4.18-2.64,6.07
	c-56.23,33.51-96.22,89.92-121.12,149.88l-6.56,12.11c0.52,1.03,1,2.19,0.78,3.37c-0.69,3.75-8.93,18.62-11.49,22.7l-2.89,1.75
	l-1.82,1.92c-42.08,0.1-84.16,0.14-126.25,0.12l-2.61-1.85c-6.01-4.79-11.36-10.52-16.07-17.21
	c-22.23-27.32-50.08-44.94-79.53-63.05C2.5,493.9,1.21,492.2,0,490.56V203.52c62.76-18.24,110.74-11.95,168.76,18.92
	c35.68-0.04,65.06,23.28,74.31,57.86c5.41,4.3,10.02,8.55,14.96,14.29L428.11,293.93z"/>
<path class="st4" d="M1200,865.53v280.89l-0.89,1.92l-61.53-0.24l-13.58-4.55c-19.84-8.77-40.3-15.33-61.35-19.69l-49.77,10.32
	l-84.36-34.15c-7.13-2.76-15.15-2.96-22.47-0.7c-49.05,15.19-97.82,31.27-146.01,49.11l-391.37-0.28l-1.2-1.92
	c0.18-3.27,0.42-6.6,1.49-9.71c8.21-23.95,19.62-48.25,30.72-71.05c12.42-25.51,26.19-52.43,41.17-76.47
	c1.73-2.78,4.11-5.07,6.49-7.28c3.54,1,5.31,1.49,5.31,1.49c26.18,21.87,53.19,42.62,81.04,62.23l22.9-0.19l1.38,1.92l0.8,5.37
	c-1.5,28.31-2.47,56.71-3.13,85.06c-0.16,6.94,6.35,3.63,7.92-0.91c10.48-22.99,19.19-46.76,26.15-71.33
	c6.64-5.23,11.88-11.31,15.71-18.25l2.29-0.89c0.34-1.03,0.85-1.66,1.52-1.92l362.83,1.15l15.44-28.8l2.23-0.1l2.03-0.9l25.28,18.23
	l19.93-29.79c1.6-0.6,2.76,0.18,3.71,1.55l1.03,46.09l72.98,46.62c-0.22-1.51,0.36-2.88,1.73-4.1l-3.29-11.17
	c-6.7-54.58-21.9-107.72-45.03-157.54l-0.58-4c0.53-0.96,1.09-1.9,1.76-2.76c0.66-0.84,1.31-1.66,2.13-2.21
	c37.88-25.4,77.17-43.74,122.24-51.99c0.98-0.18,2.03-0.03,3.11,0.12C1197.87,864.9,1198.94,865.2,1200,865.53z"/>
<path class="st2" d="M1200,1146.43v56.49l-0.92,1.92c-283.71-0.06-567.46-0.12-851.23-0.18l-1.2-1.92
	c-0.27-0.89-0.49-1.78-0.58-2.68c-0.09-0.89-0.15-1.74,0.07-2.51c4.43-15.27,11.41-32.89,17.9-47.47l3.44-3.82l392.14,0.35
	c47.61-17.02,95.85-34.47,144.79-48.79c10.69-3.13,19.07-2.55,28.93,2.22l79.59,32.3l49.74-10.36
	c26.36,3.54,49.63,16.48,75.25,24.26L1200,1146.43z"/>
<path class="st2" d="M1200,1231.59v81.63c-0.08,0.77-0.38,1.92-0.93,1.92c-227.57,0.59-463.09,0.25-690.62-0.13
	c-7.7-1.83-13.94-1.06-18.71,2.32l-2.19-0.22c-3.43-4.91,4.32-8,8.35-9.48c27.17-5.89,54.42-11.94,81.76-18.16
	c16.36-4.49,57.18-16.13,21.41-30.03c-9.23-2.43-18.27-5.28-27.12-8.55l-93.06-19.09l0.93-1.92c239.63-0.07,479.29-0.14,718.97-0.22
	L1200,1231.59z"/>
<path class="st5" d="M1200,574.98v290.55c-49.2,7.45-92.02,28.23-132.46,56.04c-1.84-1.59-3.71-3.25-4.95-5.36
	c-21.64-36.82-42.94-72.21-74.71-101.63c-5.78-4.6-10.53-9.85-14.25-15.74l0.87-1.83l30.31,3.57l11.08-42.76
	c0.72-1.94,2.53-1.2,4.17-0.02c1.94,15.45,4.15,30.76,6.64,45.93l85.4,12.64l7.19-26.45c0.97-2.61,2.43-1.93,4.39-0.4
	c3.36,10.31,6.93,20.47,10.72,30.48l55.63,11.25c-66.81-76.37-158.23-128.49-259.9-137.97c-3.63-0.34-3.95-1.56-3.13-4.39
	c18.82-9.53,37.2-19.45,55.15-29.77l-16.71-36.08c0.37-1.67,1.68-2.19,3.35-2.25l38.08,26.92l61.5-29.07l-11.82-23.55
	c0.31-1.58,1.48-2.3,3-2.65l29.56,17.17l81.68-30.06c-1.88-0.62-2.98-1.76-3.29-3.43C1177.96,573.66,1189.15,575.82,1200,574.98z"/>
<path class="st1" d="M487.54,1317.11c1.69,2.18,3.55,4.08,5.59,5.72c32.89,12.08,67.31,19.17,103.24,21.29l106.58,9.4
	c17.38,2,35.71,4.18,52.27,9.04c4.5,1.32,8.35,4.38,9.88,9.04c0.65,1.98,0.51,3.83-1.87,3.95c0.96,2.14-0.31,3.66-3.8,4.57
	c-12.12,2.95-24.13,6.29-36.04,10.04c-12.2,3.01-13.34,17.25-0.87,19.95c30.02,6.49,60.13,12.1,90.89,14.17c0,0,2.37,0.86,7.11,2.59
	c1.17,0.35,2.29,0.82,3.34,1.43c0.94-2.82,3.43-2.62,4.41,0.12c2.38-0.45,4.09-0.15,5.14,0.89c2.27-0.35,4.54-0.62,6.81-0.61
	c4.5,0.03,8.94,0.36,13.42,0.73c46.32,3.86,94.59,11.11,139.63,19.81c11.34,2.19,43.04,9.33,46.93,21c1.29,3.88-0.17,8.25-2.34,11.5
	c-10.5,11.39-11.52,21.03,4.44,27.84l0.26,2.29c8.71,2.22,17.24,5.09,25.61,8.6l16.74,4.77l114.3,22.86l0.78,2.11V1584l-143.9-21.17
	c-34.6-5.09-68.11-10.39-101.72-19.38c-10.8-2.89-23.46-6.78-29.93-15.55c-13.04-17.68,26.66-28.8,18.73-42.47
	c-22.87-12.17-48.73-17.71-74.58-22.25c-55.93-9.81-111.6-14.51-167.98-21.06c-15.2-1.77-82.37-8.87-85.28-24.64
	c-3.2-17.3,39.06-20.39,38.63-30.76c-0.4-9.55-33.14-15.18-41.86-16.54l-155.85-24.35c-11.49-1.79-57.35-9.59-54.91-24.3
	c3.91-23.56,173.43-28.86,187.85-58.65c-2.31-7.73-12.84-7.13-17.23-11.99c10.29,2.11,44.19,7.24,43.42,20.63
	c-1.06,18.48-94.89,30.9-116.69,37.26C493.38,1310.33,488.21,1312.36,487.54,1317.11z"/>
<path class="st6" d="M1200,1313.22v63.41l-0.92,1.92c-142.81-0.6-285.37-0.56-427.66,0.13c-4.36,0.52-7.08-0.52-8.17-3.12
	c1.39-6.74-4.96-10.45-12.02-12.2c-66.37-16.39-192.62-11.01-256.52-37.62c-4.55-1.89-7.7-4.76-7.16-8.63
	c4.64-7.29,12.84-4.03,20.92-4.03L1200,1313.22z"/>
<path class="st2" d="M1200,1376.63v49.81l-14.67,1.35c-107.55,0.73-215.17,0.96-322.75,1.08c-9.79,0.01-19.55-0.7-29.3-1.51
	c-1.07,1.12-2.73,1.47-4.99,1.05c-1.39-0.03-3.26-0.23-4.41-0.12c-1.06-0.48-2.17-0.96-3.34-1.43
	c-32.78-2.98-66.13-6.66-98.03-14.77c-5.03-1.28-9.96-5.89-10.72-9.39c-4.27-19.55,45.83-19.41,51.46-27.15
	c7.31,2.36,14.65,0.5,23.19,0.51L1200,1376.63z"/>
<path class="st6" d="M1200,1202.92v28.67l-721.11,0.22c-0.75-0.15-1.78-0.26-2.53-0.14c-1.22-1.14-2.45-1.52-4.13-0.9l-127.76-19.28
	c-2.43-1.54-0.82-8.7,2.17-8.74L1200,1202.92z"/>
<path class="st0" d="M108.38,1191.38c3.28-1.15,4.91-1.73,4.91-1.73c10.68,1.15,21.37,1.86,32.08,2.12l3.28,1.77l1.79,0.96
	c-6.96,44.66-13.93,89.33-20.89,134.01l-2.08,0.87l-2.59,4.83c-19.89,18.05-35.78,39.88-50.4,62.28c0,0-1.48,1.1-4.43,3.3
	c-0.97,2.49-12.88,0.72-13.99,0.02c-0.66-0.42-0.89-1.3-1.08-2.09l-1.78-1.14l6.47-46.24c-4.16-2.83-8.6-5.42-13.3-7.79
	c-1.75-0.99-1.47-1.85-0.9-3.5c0.45-1.32,15.7-6.35,17.59-6.13c4.68-33.31,13.51-65.92,22.34-98.36
	c-28.79,31.1-48.65,69.87-67.01,108.05c-1.89,3.96-3.2,2.99-5.58-0.16c-3.88-15-7.82-29.9-12.8-44.5v-108.48l0.7-1.91
	c35.51,0.63,71.03,1.27,106.55,1.9L108.38,1191.38z"/>
<path class="st6" d="M1200,1426.45v85.05l-0.67,1.92c-49.35,0.12-98.8,0.23-148.34,0.35l-8.41-1.9
	c-5.45-2.81-11.75-5.71-13.91-11.81c-4.32-12.19,12.77-17.96,9.72-29.26c-3.22-11.95-46.44-20.06-58.3-22.18
	c-48.83-8.73-97.68-14.5-146.65-19.31c-2.57-0.11-2.52-1.02-0.15-1.95C955.23,1425.36,1077.72,1427.12,1200,1426.45z"/>
<path class="st7" d="M105.48,1574.11c-4.27-1.22-4.92-0.94-1.93,0.84l-0.8,2.17c0.7-0.27,1.8-0.58,2.1-0.13
	c2.41,3.67,6.87,12.23,8.53,16.33l-1.06,2.11c-1.74,2.04-3.56,4.08-5.83,5.54c-31.93,20.56-63.65,41.19-91.68,67.1
	c-2.09,1.69-4.63,2.71-7.11,3.68c-2.58,0-5.17,0.05-7.69,0.57v-30.72l2.08-7.42c11.73-22.97,25.46-44.57,41.21-64.79
	c-3.99-4.16-1.78-7.21,3.69-5.67l36.53-42.51l2.21,0.38c2.14-4.45,4.97-8.34,8.5-11.68l28.33-26.02l4.16-1.55l3.76-5.06
	c42.17-31.93,92.83-57.41,144.57-68.85c7.34-0.31,9.99-0.08,4.4,4.93c-29.28,25.66-56.54,53.44-82.57,82.36
	c-7.95-0.38-15.81-1.99-23.56-4.82c3.44,6.09,7.05,12.17,10.85,18.23l-0.52,1.94c-19.11,24.7-38.62,49-58.52,72.9
	c-6.25-2.28-12.4-4.81-18.44-7.61L105.48,1574.11z"/>
<path class="st7" d="M54.98,1397.71c0.72,0.29,1.79,0.76,1.76,1.33c-0.15,3.02-2.77,23.7-3.6,24.89
	c-5.23,2.62-10.58,5.02-16.05,7.19l5.74,3.7c3.07,0.9,5.03,2.37,5.88,4.42c0.29,1.49,0.54,2.97,0.65,4.47c0.11,1.5,0.22,2.97,0,4.38
	c-5.59,36.29-12.43,72.69-24.35,107.46l-3.03,0.69l-15.8-1.94c5.26,6.75,10.09,13.79,14.49,21.11
	c-5.01,9.88-10.99,18.91-17.95,27.08L0,1602.24v-304.32c8.85,12.86,9.89,30.49,15.48,46.45c19.92-42.3,41.52-83.23,74.2-118.04
	c-10.23,36.46-19.23,70.91-25.16,107.45l-18.43,6.4l15.73,8.66L54.98,1397.71z"/>
<path class="st8" d="M127.47,1329.37c0.73,0.16,1.82,0.47,1.84,1.02c0.13,3.34-0.68,10.5-1.24,14c0.36,3.34-0.47,5.39-2.47,6.14
	c-0.72,1.02-0.83,1.49-0.86,3.25c2.97,0.8,2.17,9.64-0.78,10.24c0.26,2.01,0,3.74-0.77,5.2c2.85,0.38,2.43,2.57-0.31,2.84
	c-0.3,1.79-1.8,2.58-4.51,2.36c3.22,1.59,4.77,3.54,4.65,5.86c2.87,0.68,3.19,2.26,0.77,3.96c-0.6,0.31-0.29,0.67,0.13,1.08
	c2.68-0.24,2.92,1.17,0.83,2.81l1.09,1.99c2.12-1.2,2.92-0.12,2.91,2.11c2.26,0,1.51,2,0.69,3.66c2.04,1.64,1.64,4.13-1.09,4.52
	c-0.81,2.14-1.67,4.21-2.59,6.2c2.3,1.2,2.25,1.72-0.22,2.48c-0.24,1.17-0.77,2.26-1.59,3.25c0.79,0.14,1.79,0.68,1.62,1.21
	c-4.31,13.76-8.91,27.7-14.06,41.11c-9.3,1.46-18.68,2.49-28.13,3.08c7.65,4.03,14.99,8.43,22.04,13.21
	c0.05,0.35,0.11,0.7,0.18,1.05c0.48,2.14-12.84,37.03-14.77,41.19l-5.12,8.39l-38.23,44.49c-0.26,0.3-6.5-2.66-4.26,0.16l2.41,3.03
	C26.75,1591.55,14.3,1617.3,0,1641.6v-39.36c8.48-6.44,11.9-17.8,19.01-26.95l-16.5-22.78c7.81-0.87,14.06,1.65,21.35,1.92
	c11.86-38.17,19.38-76.62,24.84-115.2c-0.09-0.89-0.14-1.77-0.06-2.65c0.07-0.85,0.17-1.67,0.5-2.37
	c5.04-10.39,10.6-21.78,16.78-31.47c0.42-0.66,1.08-1.16,1.78-1.67c0.72-0.52,1.52-0.92,2.34-1.3
	C86.39,1374.41,104.57,1348.87,127.47,1329.37z"/>
<path class="st8" d="M13.32,1090.48c1.83-0.55,7.62-2.78,8.06-4.12c-3.11-7.41-3.55-14.38-1.33-20.92l2.27,0.09
	c1.27-2.36,2.24-1.8,1.57,0.82c1.94-1.57,2.42-0.97,2.08,1.39l1.21,0.48c0.84,6.35,2.98,12.16,6.44,17.42
	c2.21-0.54,3.46,0.04,3.76,1.74c1.93-2.54,8.88-2.46,10.56,0.31c1.55-0.81,2.43-0.06,3.37,1.06l6.91-13.92
	c0.61-1.2,1.81-1.07,3.09-0.58c3.88-1.04,2.8,8.97,2.19,11.38l-1.84,1.11c0.81,0.07,1.4,0.52,1.37,1.35
	c-0.09,2.68-0.27,5.34-0.62,7.99c1.61-0.55,3.09,0.45,4.43,2.99c1.47,1.69,3.43,2.42,5.89,2.19c3.2-10.4,11.32-22.32,19.73-29.33
	l3.5-0.52c1.95-0.46,1.83,0.58,0.46,1.85l0.96,2.27c-7.75,11.76-13.19,24.25-16.32,37.46c0.3,2.42,0.56,4.8,0.81,7.15l1.81,2.26
	l-0.87,10.07c2.71-0.15,4.51,0.52,5.4,2.03c1.09-1.69,2.67-3.03,4.73-4.01c2.9-3.27,13.4-13.86,17.57-13.33
	c2.11,0.27,2.33,1.49,2.05,3.55c-5.43,5.39-9.46,11.21-12.11,17.45c10.04-3.65,20.49-5.62,31.2-5.02
	c5.54,0.31,19.49,2.44,23.66,5.35c1.04,0.73,1.69,1.79,2.13,2.96l1.75,1.2c-2.81,16.67-5.62,33.35-8.44,50.04l-2.08,0.82
	c-13.44,0.91-26.94-1.92-40.27-2.16l-1.95-2.22c-1.04-33.71-33.22-53.46-64.7-43.09c-1.7,0.55-2.8,0.02-3.25-1.68
	c-4.26-18.22-17.37-32.76-36.37-35.32L0,1106.88v-41.28c2.09-1.15,3.88,0.01,5.36,3.46C7.4,1076.47,10.06,1083.61,13.32,1090.48z"/>
<path class="st8" d="M137.08,873.9c3.07,3.59-1.55,10.26-4.8,13.34c0.58,2.78-0.59,6.73-3.69,6.46c-1.83,2.84-9.52,2.46-13.11,2.13
	c-1.74-0.16-3.53-0.49-4.77-1.88c-4.06,2.2-8.59,2.9-13.59,2.08l-1.59,1.6c-5.99-2.26-11.87-2.76-17.66-1.51l21.8,13.55
	c0,0,1.06,1.48,3.19,4.43c1.84,0.42,3,2.22,3.49,5.41c2.32,2.67,5,4.83,8.04,6.47l0.63,2.43l1.32,1.79l-2.81,11.39
	c-0.6,3.22-1.98,4.56-4.12,4.04c-0.49,0.58-1.31,1.39-1.78,1.13c-2.77-1.54-20.46-13.06-20.9-14.5c-1.16-3.8,5.5-7.19,8.44-8.68
	c-2.22-1.2-4.28-1.56-6.18-1.06c-2.38,5.6-6.36,5.89-11.92,0.88c0.36,5.57-0.05,10.77-1.2,15.59c0.53,2.46-1.22,3.76-5.23,3.89
	c-2.96,0.4-10.95,0.47-12.08-2.21c-2.05-1.66-0.86-8.87-0.13-11.65c0.12-2.75,1.17-3.96,3.16-3.63l2.37-2.73
	c7-1.64,8.73-3.21,5.2-4.7c-2.29-0.54-3.59-1.59-3.89-3.15c-2.98-1.23-1.66-9.23,2.02-6.76c0.73-1.38,2.25-2.29,4.55-2.72
	c-0.46-1.72-1.4-2.6-2.83-2.64l-0.74-2.07c-1.36,1.91-3.12,3.76-5.27,5.54c-1.07,2.63-2.55,4.2-4.42,4.71l-1.88,2.84l-24.85,10.07
	c-2.32-0.01-4.18-1.37-5.59-4.08c0.97,3.03,0.55,5.17-1.27,6.4l-23.01,8.35L0,933.12v-29.76l1.8-3.07
	c8.65-5.43,22.36-9.02,32.48-10.3c0,0-1.12-0.66-3.37-1.98c-0.48-4.05-1.81-4.93-3.99-2.65c-6.88-2.46-13.67-5.19-20.36-8.2
	c-2.24-1.15-2.86-3.31-1.84-6.46c-1.87,1.5-3.22,2.36-4.71,0.02V854.4c2.3-1.84,5.25-2.32,8.85-1.43
	c14.9,2.44,22.34,3.65,22.34,3.65c-3.02-3.57-5.05-7.24-6.11-11.02c-3.73,0.04-16.33-11.8-17.49-14.39
	c-2.32-5.2,0.93-4.79,5.73-4.03c29.8,3.78,56.86,23.49,60.46,54.77c16.64-15.56,40.46-17.04,61.44-10.65L137.08,873.9z"/>
<path class="st7" d="M108.38,1191.38L0,1189.44v-82.56c20.89,1.97,36.13,16.86,40.24,37.84c17.46-6.05,34.71-3.71,48.92,6.4
	C101.27,1159.74,108.51,1175.74,108.38,1191.38z"/>
<path class="st4" d="M58.55,910.87c1.8,1.68,1.95,4.08,0.44,7.2c-0.98,3.9-2.74,10.75-6.15,12.32c-3.3,4.02-6.88,7.83-10.76,11.45
	c3.48-1.16,5.81-0.66,6.99,1.52l1.08,3.36c-9.04,35.38-16.19,71.57-21.01,107.74l-2.22,2.5l-0.1,1.03c2.64,0.86,2.12,3.66-0.24,4.49
	c-0.36,2.54-1.27,3.83-2.7,3.88c-0.4-0.46-1-0.69-1.57-0.82l-2.19-0.41c-3.88-10.5-7.72-21.01-9.42-32.14
	c-1.89,0.18-0.98,0.75-0.67,0.13c0.6-1.22-0.47,3.3-3.12,2.01c-2.87-3.16-5.17-6.76-6.9-10.79v-91.2L25.13,924
	c-1.03-4.04-1.89-6.83-0.62-9.74l6.06,7.96L58.55,910.87z"/>
<path class="st2" d="M1200,1511.5v38.72l-105.6-20.93c-18.36-3.64-35.87-9.21-51.82-17.42L1200,1511.5z"/>
<path class="st4" d="M0,903.36v-32.64c3.38,0.01,4.65-3.73,7.51-5.87l-1.46,10.01l20.68,8.72c3.31-1.28,3.77-5.64,6.89-5.76
	c0.28,3.91-3.24,6.64-1.24,8.96c1.68,1.95,5.4,1.06,8.12,4.78C25.7,891.72,12.86,896.68,0,903.36z"/>
<path class="st4" d="M13.24,1081.83c3.33,1.2,2.6,6.9,0.08,8.65c-8.44-3.12-4.85-18.68-13.32-24.88v-31.68
	c0.99,0.01,2.1,0.08,2.87,0.76C10.11,1041.03,12.98,1071.72,13.24,1081.83z"/>
<path class="st8" d="M10.69,1032.97c3.43,15.24,6.89,30.88,4.89,46.59l-2.35,2.27c-4.29-16.03-3.56-34.95-13.24-47.91v-9.6
	c4.37,1.09,4.82,6.57,8.04,9.65c0.83-0.56,0.91-1.79,1.25-2.29c0.17-0.26,0.73-0.1,0.92,0.16
	C10.51,1032.24,10.59,1032.66,10.69,1032.97z"/>
<path class="st9" d="M617.33,716.98c1.84-2.5,6.74-3.58,7.52-0.09l2.68-1.66c2.84-0.09,19.05,0.46,20.52,0.96
	c8.82,2.95,12.81,28.46,7.4,36.31c-4.41,6.44-1.44,6.63,8.93,0.56c5.64,2.5-0.6,8.84-4.29,11.08
	c-14.13,6.16-27.81,13.42-41.04,21.78c-5.71,4.78-11.77,8.48-18.16,11.09l-1.86,4.05c-0.91,1.15-14.11,12.47-15.08,12.55
	c-0.85,0.07-1.6-0.06-2.29-0.59c-1.29,2.29-2.67,4.59-4.59,6.42c-22.15,21.08-41.64,40.13-60.91,64.16
	c-23.41,29.19-44,60.54-63.23,92.58c0,0-1.85,1.86-5.55,5.58c-30.73,52.06-59.47,107.1-79.88,164.51
	c-6.67,18.75-15.59,37.06-20.82,56.48c-0.73,2.69-1.3,6.24-2.17,8.74c-24.76,70.75-42.19,146.17-52.94,220.58
	c-0.55,0.79-0.83,1.24-0.83,2.26c-0.08,0.6,0.26,1.29,0.15,1.88c0.33,3.3,0.57,6.64,0.1,9.93c-3.72,25.86-7.17,51.63-10.59,77.53
	c-0.44,3.31-1.68,6.44-2.93,9.52c-7.94,3.73-16.41,6.37-25.4,7.92c-46.64,10.82-88.44,30.82-131.05,51.75
	c-2.73,1.34-5.72,2-8.68,2.58l-9.56-18.32c-1.79-2.18,0.26-4.33,2.73-3.01c6.52,1.28,12.27,5.66,19.26,8.24l57.78-72.98
	c-4.58-7.28-9.67-13.44-13.25-21.33c9.63,1.84,17.32,5.57,26.75,6.13c26.88-30.62,54.85-58.6,85.61-85.09
	c-59.36,11.11-108.71,39.85-154.94,73.27l-1.61-1.38c6.19-22.36,12.37-44.73,18.57-67.11l2.16-0.61c-0.15-3.08-0.13-6.18,0.56-9.19
	c6.22-26.99,16.18-56.22,25.4-82.47c7.46-21.25,15.23-42.69,25.76-62.56l3.06-3.5l2.01,0.15c4.02,12.03,12.52,0.76,15.2-5.91
	c12.4-30.88,21.15-63.73,29.07-96.32l2.17-4.35l4.15-11.87c35.3-65.03,74.48-129.46,121.35-186.88c1.31-1.61,2.84-3.04,4.4-4.46
	c1.57-1.43,3.23-2.75,4.93-4.04c0.77-1.73,1.58-3.43,2.51-5.07c0.93-1.63,1.85-3.25,3.03-4.64
	c50.37-59.49,108.95-115.64,173.02-159.02c0.96-0.65,2.07-1.06,3.22-1.47c1.16-0.41,2.37-0.7,3.59-0.95l0.5-2.62
	c7.8-3.69,15.5-7.57,23.08-11.65c-7.64-0.4-15.26-0.21-22.85,0.57l-2.57-1.45c-0.39,1.94-1.29,1.84-1.85-0.08
	c-0.62-0.61-1.56-0.58-2.14,0.08c-1.6,0.89-3.29,1.72-5.14,1.89c-6.68,0.63-28.78,2.42-33.34,1.02c-0.91-0.28-1.79-0.69-2.65-1.13
	l-1.73-2.03c-1.11-10.81-4.22-21.4-9.33-31.76l1.31-2.33l0.76-1.97c16.35-0.98,32.71-1.96,49.08-2.94l1.25,1.85l2.09-1.39
	c11.36-1,22.83-1.25,34.43-0.77C606.28,715.11,612.01,715.44,617.33,716.98z"/>
<path class="st10" d="M789.33,1672l-307.56-0.52l1.19-2.76c14.24-12.83,29.77-24.1,46.61-33.84c-10.75,1.13-22.37,5.61-32.89,9.95
	c-16.09,6.64-31.3,15.21-46.43,23.74c0,0-1.63,0.19-4.9,0.58c0.23-1.13,0.49-2.24,0.88-3.31c0.39-1.05,0.79-2.07,1.43-2.91
	c21.19-27.95,48.61-51.33,76.03-72.97c0.41-0.39,0.28-1.14,0.23-1.12c-44.69,13.69-86.58,42.07-114.42,79.68l-4.32,2.8l-76.91,0.22
	l-0.7-1.07c9.77-8.13,20.02-16.05,30.74-23.76l-5.52-23.06c-0.41-2.72,1.31-2.74,3.73-2.18l13.54,16.13
	c39.66-30.03,82.01-56.66,125.87-80.2c-59.08,8.9-121.62,24.04-175.17,51.18l-6.81,34.4c-0.61,1.98-2.45,1.33-4.16,0.29l-5.31-24.88
	l-38.2,24.45l-2-1l-1.83-0.87l4.03-34.54l2.29-3.05l-0.37-2.08l34.63-24.07l-8.21-24.21c0.43-1.62,1.71-2.16,3.37-2.16
	c8.58,4.94,16.66,10.13,24.22,15.57c27.41-14.77,55.52-28.17,84.32-40.2c-41.88-2.95-83.74,0.63-125.04,7.39l-4.23-0.44
	c3.33-32.38,7.22-65.08,13.42-96.98c55.76,8.88,190.07,39.56,237.42,62.56c44.53,21.63,2.08,56.14,48.92,91.96
	C631,1631.86,726.4,1651.92,789.33,1672z"/>
<path class="st2" d="M476.36,1231.67c-1.52,0.25-2.75-0.7-4.13-0.9c0.02-1.19,1.63-1.02,2.5-1.1
	C475.8,1229.56,476.95,1230.51,476.36,1231.67z"/>
<path class="st8" d="M268.75,1603.39l-2.09,3.7l-31.7,21.1c-1.23,0.89-2.54,0.76-3.81,0l-24.83-23.17l7.96,32.81
	c0,0-0.19,0.97-0.57,2.91l-49.79,28.94l-7.21,1.93l-66.53-0.06l-2.19-0.66c0.3-1.97-0.56-1.68-2.59,0.87l-77.7-0.02
	c32-28.28,67.11-55.33,104.62-76.31c51.58-28.85,107.28-50.15,165.12-62.25c45.16-9.44,91.48-11.84,137.52-8.3
	c-31.73,14.44-62.45,26.37-92.36,43.26l-26.16-16.08l9.12,25.77L268.75,1603.39z"/>
<path class="st7" d="M328.26,1671.54l-94.9-0.1c-3.4-1.43-1.38-4.3,0.74-6.38l28.05-23.93l2.11,0.72l41.5-26.58l6.07,28.44
	l7.25-36.61c59.16-27.61,122.29-45.48,187.17-52.94c-49.06,25.3-93.05,53.87-136.78,85.74l-15.14-18.04l6.16,25.75L328.26,1671.54z"
	/>
<path class="st9" d="M268.75,1603.39l-4.49,38.46l-25.91,22.12c-2.51,2.14-5.66,4.05-4.99,7.47l-76.64,0.17l55.98-32.21
	l-10.13-40.51l30.38,28.34L268.75,1603.39z"/>
<path class="st7" d="M445.35,1669.16c1.1,1,0.15,1.99-2.82,2.96l-37.36-0.8c29.42-42.86,78.4-74.18,130.02-87.75
	C501.38,1609.11,469.86,1636.1,445.35,1669.16z"/>
<path class="st8" d="M481.77,1671.49l-39.24,0.63c-0.24-1.8,2.06-1.93,2.82-2.96c29.61-16.88,59.69-33.74,94.95-38.77
	C519.03,1643.84,499.26,1655.83,481.77,1671.49z"/>
<path class="st9" d="M90.18,1671.56c-1.4,0-3.27,0.21-4.78,0.21c-0.05-2.54-0.1-5.01,0.33-8.17
	C88.11,1665.9,89.41,1668.6,90.18,1671.56z"/>
<path class="st11" d="M645.78,254.54c-1.79,2.25-4.62,3.74-8.52,4.45c-5.86,2.76-10.6,7.13-14.24,13.12
	c-2.35,2.44-7.68,7.45-10.54,4.54c-2.26,1.33-4.28,0.22-6.06-3.33c-1.53-6.74-1.06-13.79,1.41-21.12c-0.18-6.44-3.15-8.69-9.46-9.24
	c-29.68-2.58-55.54,6.57-82.4,18.61l-4.12-0.32c-0.66,0.58-1.42,1.2-2.28,1.86c-0.14,0.54-0.4,0.5-0.75-0.01l-0.48,2.72l-15.82,9.95
	c-32.72,27.07-28.06,80.49,0.36,109.4c15.77,16.04,52.39,36.39,69.44,12.92l2.74-0.54l1.03,25.98c-0.75,5.62-5.36,9.22-9.95,12.05
	c-22.25,13.71-52.37-2.66-68.71-19.09l-16.98-19.45c-28.81-30.57-58.02-29.11-94.34-14.31c-2.8-0.31-2.65-1.13-1.66-3.53
	c17.47-28.49,33.93-58.26,53.66-85.24c36.55-49.98,93.17-80.71,156.11-76.13c20.27,1.48,39.13,9.19,57.59,16.43
	c4.06,1.59,6.18,7.1,7.18,9.93C650.24,247.7,648.12,251.99,645.78,254.54z"/>
<path class="st7" d="M666.17,294.67c8.93,41.87-7.64,81.07-46.35,102.56c10.42-16.62,14.71-34.23,8.2-52.91
	c-14.18,22.68-42.9,22.97-65.49,17.65c-1.43,1.33-1.99,0.75-1.02-1.01l-2.18-2.05c-1.63-10.07,1.18-23.95,5.24-33.24
	c3.02-6.91,12.44-21.14,19.79-23.2c0.97-0.27,2.01,0.19,2.94,0.63c0.5-0.48,1.3-0.94,2.38-1.38c0.06-1.83,0.76-1.77,1.45,0
	c1.06,0.37,1.85,0.91,2.38,1.61c1.35-2.38,2.66-1.71,2.68,0.97l2.21,0.03c4.9,10.53,11.07,20.07,18.5,28.63l4.59,3.09
	c-7.74-8.85-13.98-18.41-18.74-28.68c-1.72-3.84-1.53-6.76,0.58-8.76c-2.2-1.84-2.17-4.8,0.09-8.89l6.69-12.62l2.36-0.47
	c15.7-5.45,9.02-17.35,33.3-22.11C653.86,267.18,662.97,279.66,666.17,294.67z"/>
<path class="st7" d="M1167.48,576.13c2.84,0.85,5.8,2.17,8.65,3.5l-87.47,32.19l-30.65-18.05l12.97,25.82l-64.31,30.35l-39.72-28.08
	l17.97,38.7L927.11,691c45.91,5.25,91.05,15.84,132.81,36.94c51.39,25.97,97.41,61.81,135.06,106.28l-62.4-12.62l-11.09-32.52
	l-7.91,29.45l-88.96-13.17l-6.6-48.17l-11.73,45.5l-32.67-3.85c-2.02-0.56-4.12-1.16-5.82-2.43
	c-23.43-17.56-43.09-32.25-69.98-44.85c-37.95-17.79-81.09-28.49-122.45-27.11c65.91,33.69,127.19,75.68,179.81,127.81
	c68.32,67.68,116.64,147.61,158.65,233.51l2.61,8.51c0.25,2.26,1.22,4.76,0.13,7.57l-76.86-49.09l-0.96-47.92l-21.17,31.85
	l-27.85-20.08l-1.88,0.98c-17.95-13.54-35.63-27.37-53.04-41.5c4.81-17.79,10.16-35.54,16.07-53.26l-32.53,36.5l-2.44,1.05
	c-33.62-25.77-65.14-54.97-91.86-87.97c5.43-14.56,11.27-29.07,17.54-43.52l-30.92,21.32l-2.67,0.37
	c-17.13-24.85-29.54-54.2-39.11-82.87c-0.31-0.94-0.35-1.97-0.38-3.04c-0.02-1.08,0.09-2.16,0.24-3.25
	c-4.56-6.79-7.53-14.6-8.92-23.45c-1.68-7.78-3.42-15.09-5.24-21.91c-0.03-1.06-0.01-2.11,0.14-3.14c0.15-1,0.34-1.97,0.74-2.83
	c22.18-47.16,71.74-89.84,116.98-114.3c15.61-8.44,32.62-17.23,50.18-19.94C1005.04,547.37,1084.69,551.4,1167.48,576.13z"/>
<path class="st12" d="M834.19,365.6c1.19,1.81,0.36,3.33-2.49,4.58l-15.7,5.82c-27.92-11.36-54.01,0.86-76.81,15.89l-1.51,2.66
	c-27.86,13.76-39.38,50.31-21.63,76.72c14.04,20.89,38.99,33.19,63.95,26.04l3.24,1.03l1.46,3c4.83,56.77-11.11,114.87-42.49,162.38
	l-5.78,38.23l1.79,1.8c2.26-2.28,4.75,0.88,2,2.73c0.33,2.32-1.05,3.51-4.15,3.56l-4.32,0.12c-11.46-2.93-20.45-0.91-26.96,6.05
	l-2.88,0.97l-3.07,2.04c-3.99,0.63-20.2,1.81-22.51,0.33c-0.58-0.37-1.08-0.85-1.57-1.35l-2.31-0.46
	c-7.91-12.63-37.49-15.03-45.32-1.41l-2.3,0.57c-2.18-0.23-5.34-0.15-7.52,0.09c0.47-3.52,0.71-5.28,0.71-5.28l26.76-49.16
	c28.52-55.29,57.2-128.36,24.58-186.58l-2.16,0.11c-4.34-6.09-11.41-10.96-19-11.45l-1.18-1.87
	c25.78-58.51,69.92-113.26,140.4-110.88C804.54,352.44,821.43,355.47,834.19,365.6z"/>
<path class="st13" d="M566.1,423.51l0.19,18.96l1.84,8.69c-1.85,62.34-28.43,120.92-63.69,171.39l-6.08,30.96l-2.8,4.22l0.81,2.49
	c-1.78,11.94-3.32,23.95-4.61,36.03l-2.15,4.44c-0.52,1.12-0.54,1.93-0.09,3.08c2.7,0.72,2.6,2.97-0.04,3.67
	c-1.55,2.46-4.54,3.45-8.97,2.99c-8.36-0.89-16.24,0.09-23.65,2.94c-3.32,2.52-6.53,3.74-9.63,3.66c-0.72,0.22-1.83,0.47-2.1,0.01
	c-0.93-1.58-7.65-16.28-7.65-17.22c0-0.79,0.63-1.46,1.2-2.03l-2.14-1.12c-0.38-3.7-1.22-7.28-2.5-10.74
	c-6.48,10.32-13.2,20.34-20.17,30.06c-0.17,0.85-0.47,0.84-0.9,0.03c-1.73,0.34-4.86,0.71-6.11-0.67c-0.23,2.85-2.86,2.57-3.48-0.1
	c-0.92,0.15-1.89,0.24-2.34-0.72c-3.08,2.66-8,2.72-11.05-0.01c-1.49,0.75-3.22,1.01-5.18,0.77c-0.07,2.75-1.74,2.63-2.54,0.07
	c-4.27,1.09-8.41,2.52-12.42,4.3l-1.13-0.98l3.72-5.53c-1.65-1.95-1.47-2.14,0.99-1.69c0.89-1.47,1.86-2.81,2.91-4.02
	c-2.6-1.48-0.79-4.18,1.91-3.66l1.93-2.12c-1.92-1.73-1.41-2.44,1.08-1.83l2.51-2.7c-0.84-0.26-0.73-0.56,0.18-0.91
	c0.59-0.88,1.26-1.62,1.99-2.23c-2.41-1.5-0.54-4.5,2.08-3.77l2.46-2.78c-0.78-0.35-0.68-0.66,0.2-0.93c1-1.42,1.99-2.79,2.97-4.09
	c-0.85-0.09-0.82-0.33,0.01-0.7c0.85-1.48,1.78-2.83,2.8-4.05c-0.82-0.23-0.82-0.46,0-0.69l2.04-3.08c-1.58-1.96-0.41-3.4,1.94-3.64
	c1.2-2.07,2.4-4.11,3.62-6.1l1.67-3.66c34.28-27.93,57.63-69.76,69.93-111.95c7.63-26.16,9.54-51.26,8.47-78.3l-1.74-3.21
	c0.11-57.55-50.88-107.94-106.38-70.83c-43.21,28.9-78.57,76.8-106.98,119.67l-3.27,1.73l-3.19,7.63
	c-5.4,7.41-10.8,14.81-16.2,22.21l-2.22-0.22c20.68-59.17,66.56-128.03,122.14-160.47c3.76-2.19,6.14-4.27,8.18-7.59
	c0.1,0.7,0.5,1.31,0.96,1.67c1.48,1.17,29.76-16.32,62.06-7.91c41.46,10.79,43.22,55.55,91.01,64.56
	C544.86,440.58,556.47,436.43,566.1,423.51z"/>
<path class="st8" d="M647.03,462.75c8.17-0.76,18.94,6.86,22.34,13.21c8.54,11.83,10.25,26.15,10.47,40.41
	c0.2,12.46-2.36,40.5-9.48,50.49c-2.51,3.52-3.83,3.47-6.5,0.09c-3.2-5.77-5.55-11.91-7.06-18.41c0.46,24.14-4.16,46.79-13.86,67.95
	c-3.08,3.46-5.76-0.47-7.34-3.75c-2.54-6.39-4.42-12.99-5.64-19.8c-1.26,17.76-4.2,34.29-10.48,50.97
	c-9.94,26.37-18.04-5.25-19.11-16.19c-1.72,13.2-4.76,26.04-9.12,38.52c-3.65,7.77-10.66,14.03-14.82,2.88l-4.23-21.93
	c-0.65,8.48-2.98,16.14-6.99,22.98l-2.48-0.12l-2.04-2.44c-0.69-27.22,0.85-54.74,4.66-81.68l2.28-2.01
	c0.38-1.08,0.83-2.2,1.38-3.34c-2.67-0.77-2.57-2.55,0.21-2.93c6.2-33.33,17.78-66.58,40.51-92.44
	C619.75,473.81,632.3,464.13,647.03,462.75z"/>
<path class="st10" d="M561.51,360.97c0.26,0.4,0.61,0.75,1.02,1.01c2.22,11.98,2.07,23.58,2.54,35.56
	c-6.88,10.19-15.65,14.75-28.54,12.73c-26.48-4.16-49.42-22.84-60.12-45.07c-12.87-26.73-10.99-58.41,4.79-81.08
	c7.24-10.4,18.51-14.14,27.63-21.01c3.33-0.07,6.04,5.26,7.52,8.35c1.96,4.1,3.29,8.06,2.94,12.71
	c-7.1,31.29,4.17,69.11,39.77,74.56L561.51,360.97z"/>
<path class="st5" d="M569.22,577.65c-0.18,0.94-0.16,1.97-0.21,2.93c-0.45,1.19-0.91,2.3-1.38,3.34
	c-3.69,21.28-6.17,62.84-4.9,86.13l1.37,1.94c0.63,13.9,0.98,27.9,1.05,42l-1.54,4.14l-51.1,3.06l-2.66,0.01
	c-5.95-4.67-12.5-8.4-19.67-11.2l-0.72-2.56c-0.11-1.22,0.08-2.46,0.04-3.67c-0.46-1.07-0.43-2.02,0.09-3.08
	c0.52-14.48,3.12-28.79,5.95-42.96l2.65-4.59c24.42-20.32,43.21-46.6,56.87-75.17l3.85-3.73
	C562.53,576.32,568.35,572.93,569.22,577.65z"/>
<path class="st5" d="M922.64,575.84c-70.07,24.21-134.78,72.89-168.04,140.21c-0.99,2.59-3.74,2.97-4.86,0.24
	c-3.97,0.76-15.29-6.02-9.52-9.82c-0.08-1.24-1.06-2.04-2-2.73c1.36-3.84,2.05-5.76,2.05-5.76c26.93-35.03,48.92-74.48,58.74-117.84
	l3.09-5.29L922.64,575.84z"/>
<path class="st7" d="M786.29,489.64c21.54,13.21,20.23,63.06,15.82,85.2c-9.52,47.81-33.9,90.83-63.88,128.9
	c-1.27,0.24-2.22,1.52-4.19,1.16l6.46-41.98c32.68-49.48,46.55-106.28,42.74-164.6c-1.58-1.51-1.44-7.96,0.98-8.57
	C783.7,488.27,784.39,488.23,786.29,489.64z"/>
<path class="st14" d="M558.92,574.24c-14.47,31.95-35.94,62.11-63.37,83.48l7.19-36.02c37.32-53.67,64.18-114.81,63.54-179.24
	C584.95,476.64,574.43,539.99,558.92,574.24z"/>
<path class="st10" d="M751.57,389.76c4.88-1.94,12,3.68,8.62,7.76c2.57,0.48,2.5,1.24,0.03,1.97c2.12,1.38,1.61,2.33-0.79,2.85
	l0.7,2.07c-2.61,2.72-5.41,5.2-8.39,7.44l-0.1,2.7c-26.37,27.54-6.16,64.68,29.83,67.09l2.09,2.11l-0.04,3.74
	c1.06,0.52,1.64,1.47,0.69,2.26c0.26,2.92,0.57,6.01-0.98,8.57c-18.62,6.1-37.92,2.57-53.57-9.84
	c-16.52-13.09-27.37-31.72-23.43-53.07c3.38-18.33,14.52-36.91,32.96-43.54c2.03-2.27,5.22-3.42,7.51-1.17l1.21-0.82
	C747.63,387.07,750.82,387.11,751.57,389.76z"/>
<path class="st9" d="M845.59,388.51c22.85,30.94,14.69,74.89-21.23,92.64c8.08-10.9,11.63-23.43,6.42-35.76
	c-10.29,15.56-28.94,15.42-45.56,12.36l-1.93-1.16c-2.94-13.5,4.17-24.59,12.9-34.32l2.34,0.04c-1.8-4.65,9.29-10.51,10.82-5.62
	c1.38-1.99,3.11-0.18,1.9,1.79c1.74,1.64,2.65,1.63,2.74-0.02c-2.73-0.24-2.49-2.47,0.17-3c-2.02-1.32,1.03-8.88,2.15-10.69
	c3.61-5.85,15.42-12.24,21.78-14.95C841.07,387.72,843.57,387.28,845.59,388.51z"/>
<path class="st5" d="M1064.32,452.87c22.57-7,44.24,0.14,64.39,8.63l-213.74,0.36c13.5-23.18,46.95-35.8,68.48-18.74
	c10.63,8.43,16.91,13.04,31.22,7.44C1031.22,444.07,1049.65,445.24,1064.32,452.87z"/>
<path class="st8" d="M757.4,410.59c4.08-0.87,3.17,1.92,0.23,3.97c2.5,1.52-1.55,6.32-4,4.94l-1.77,2.17
	c1.4,1.34,1.74,3.33,1.01,5.97c0.7,3.9,0.07,6.57-1.91,7.99c0.38,0.86,0.93,1.6,1.67,2.23l2.79,0.7
	c6.72,9.07,17.2,14.42,28.03,16.88l1.76,2.32c-0.1,8.64-1.57,17.55-1.65,26c-17.57-1.23-35.07-9.26-42.79-26.3
	c-7.04-15.53-1.3-34.88,10.97-45.6C753.29,409.73,755.82,407.57,757.4,410.59z"/>
<path class="st8" d="M844.58,383.22l-2.19,1.1c-6.11-2.88-13.04-4.86-19.28-1.29l-2.28-0.86c-0.99,1.67-2.29,1.85-2.55-0.23
	c-0.71-0.02-0.85-0.35-0.45-0.97c-3.2-0.62-6.48-0.94-9.83-0.94l-1.59-1.88c-1.99,0.9-4.96,1.54-6.66,0.26
	c-2.08-0.85-4.43-1.45-7.02-1.8c-0.39,0.67-0.79,1.2-1.24,1.25c-1.04,0.12-8.48-0.01-9.56-0.15c-0.46-0.06-0.86-0.57-1.24-1.21
	l-3.29,1.51c0.15,0.76,0.36,1.85-0.15,2.22c-5.5,4.03-15.2,6.98-21.78,8.64c-0.5,0.53-1.8,0.83-3.88,0.89l-3.65,0.13l-1.21,0.82
	c-2.14,1.45-5.26,0.36-7.51,1.17c2.63-5.98,10.36-8.06,16.25-11.56c18.77-11.15,39.66-14.16,60.56-6.14
	c6.15-3.43,14.44-3.57,18.19-8.59C839.62,369.91,846.45,375.34,844.58,383.22z"/>
<path class="st0" d="M844.58,383.22l1.01,5.29c-12.68,5.8-30.64,13.13-31.42,26.95c-2.87,4.15-4.54-1.4-2.74-4.98
	c3.42-7.08,3.17-7.49-4.45-8.68c-7.6,1.27-17.46-2.17-4.47-5.77c3.47-0.96,6.88-1.02,10.33-0.24c1.49-3.74,2.15-8.09,1.98-13.04
	c0.21-1.53,1.46-1.89,3.01-1.77l0.45,0.97c0.56,0.71,1.41,0.79,2.55,0.23C828.73,376.95,836.39,379.33,844.58,383.22z"/>
<path class="st10" d="M448.54,499.45c0.6,0.83,1.17,1.68,1.6,2.58c3.67,7.6,2.09,34.2,1.26,44.01c-2.2,25.8-13.89,79.46-34.91,97.63
	c-16.74,14.47-19.62-6.93-19.33-19.7c0.79-13.19,1.94-26.35,3.46-39.5c-3.36,25.23-20.14,80-47.85,89.28
	c-6.34,2.12-11.17,2.08-17.07-1.11c-2.47-1.34-6.35-5.71-3.56-8.09c-0.67-0.49-1.21-1.29-1.63-2.38c-1.86-0.4-1.92-1.11-0.09-1.67
	c-0.75-1.94-1.14-3.93-1.19-5.97c-2.89,0.47-2.94-5.8-0.18-6.35c-1.13-0.56-1.15-1.73,0.01-2.27c-2.91,0.31-2.6-5.96,0.18-6.34
	c0.04-2.35,0.42-4.67,1.16-6.95c-2.52-0.69-2.27-1.6,0.1-2.63c0.4-1.96,0.9-3.68,1.53-5.18c-2.58-0.3-2.37-0.88,0.04-1.62
	c-0.32-1.84,0-3.22,0.94-4.13c-2.77-0.7-2.28-4.92,0.37-5.39c0.39-1.65,0.85-3.4,1.38-5.25c-2.15-0.31-1.92-1.95,0.15-2.52
	c-0.25-2.1,0.07-3.79,0.97-5.07c-2.23-0.28-2.22-2.26-0.08-2.71c-0.53-2.58-1.51-2.57-2.95,0.03c-0.64,4.25-1.83,8.13-3.57,11.64
	c2.33,1.11,2.29,1.68-0.16,2.54c-0.74,2.23-1.62,4.23-2.65,6c0.81,0.26,0.78,0.54-0.04,0.85l-0.9,1.08
	c2.78-0.02,2.47,2.22-0.15,2.71c-0.7,2.25-1.63,4.24-2.79,5.95c0.84,0.01,0.8,0.27,0.01,0.76l-0.93,1.19l0.49,3.55
	c-7.89,18.88-28.91,55.12-52.2,54.12c-11.68-0.5-17.26-10.31-17.95-21.06c-0.79-12.24,5.37-35.25,9.3-47.34l2.04-0.92
	c0.08-2.17,0.59-3.43,1.55-3.78l0.87-1.1c-2.91-1.86-0.11-8.23,1.88-10.25c-0.55-1.37-1.13-1.75-1.72-1.15
	c0.64,3.41-1.02,11.4-4.84,12.56c0.46,0.33,0.82,0.66,0.83,0.99c0.02,8.47-15.91,34.96-21.25,42.6
	c-7.77,11.11-20.08,26.21-34.23,28.22c-3.22,0.46-9.15,1-9.73-2.8c-1.49,1.11-1.94,0.78-2.91-0.47c-2.57-3.31-0.83-13.26,0.02-17.24
	c8.9-31.23,20.3-61.49,34.22-90.79l2.5-0.95c4.04-9.5,10.16-17.99,13.6-27.82l21.6-29.62l1.22,0.57c-0.24,5.5-0.9,11.14-1.99,16.93
	c-2.28,42.87,36.6,1.99,43.92-14.31c1.69-0.89,3.07-1.37,4.06,0.37c4.78,61.36,55.52,15.13,62.8-17.7c2.09-1.94,3.38-2.61,4.38,0.38
	c0.67,11.75,4.91,20.8,12.69,27.15c26.12,8.11,38.58-27.95,41.49-48.26c0.4-0.83,0.83-1.49,1.36-1.58
	c1.61-0.28,11.13,12.56,12.73,15.22L448.54,499.45z"/>
<path class="st5" d="M230.54,575.05c-6.35,14.95-46.03,101.2-33.83,109.45l1.61,1.24c-9.7,28.56-19.39,57.12-29.09,85.7l-2.19,0.48
	c-1.77-4.13-2.65-6.2-2.65-6.2c-7.27-66.51-25.92-131.22-63.66-187.03l-0.87-3.44L230.54,575.05z"/>
<path class="st5" d="M726.68,757.29c0.3,3.2,2.07,3.87,5.29,2.02c6.46-4.29,9.72-3.95,9.79,1.01c1.87-1.83,3.54-2.14,4.99-0.93
	c1.65-2.29,5.45-2.49,6.6,0.26c1.31,0.32,2.76,0.76,4.33,1.33c1.79-3.13,9.18-2.5,11.07,0.43c10.32,30.16,22.05,59.73,39.89,87.84
	l37.61-25.93l-20.61,48.53c26.74,32.28,57.31,59.97,90.52,87.04l39.32-44.11l-19.12,60.65l53.37,41.18l-16.48,30.82l-365.55-1.16
	l-1.06-3.31c5.98-14.99,10.46-30.25,13.45-45.79l2.11-2.72l1.94-4.74c9.96-12.41,15.14-28.91,19.09-44.55
	c14.4-57.09,25.15-113.82,31.27-172.47c3.94-5.32,7.93-10.55,11.96-15.7l2.83-1.36c0.58-0.51,1.18-0.99,1.84-1.35
	c3.29-1.8,26.39,0.1,31.9,0.9L726.68,757.29z"/>
<path class="st8" d="M973.63,798.84c39.21,33.95,70.41,76.66,93.91,122.73c27.42,53.75,42.21,113.06,48.9,172.72
	c-26.76-50.09-52.09-101.99-86.09-150c-70.47-99.5-154.84-167.41-263.99-222.27C844.8,719.72,916.63,749.5,973.63,798.84z"/>
<path class="st5" d="M581.63,813.01c-0.1,9.26-0.3,18.52-1.22,27.74c-5.94,59.68-11.9,119.39-17.95,179.06
	c-0.94,9.21-2.69,18.32-4.47,27.4l-24.93,0.01c-33.32-20.72-55.49-43.76-85.71-65.47C483.49,920.52,526.63,858.78,581.63,813.01z"/>
<path class="st12" d="M622.22,994.45c-0.81,17.93-9.92,34.74-14.51,51.82c-2.39,8.92-11.33,14.98-16.41,20.16
	c-4.72,11.51-21.8,78.4-33.18,77.4c-1.85-0.16-4.43-3.35-4.39-6.39c0.37-30.28,1.48-60.41,4.24-90.24
	c7.24-78.14,14.59-156.22,23.65-234.2L600.87,797c1.11,4.72,1.66,7.08,1.66,7.08c-2.79,33.26-4.35,66.5-4.69,99.73
	c0.92,6.83,4.15,7.28,7.84,1.6l31.74-67.73c3.39-1.05,4.41-0.23,3.8,4.12c-6.04,49.56-11.88,99.11-17.53,148.65L622.22,994.45z"/>
<path class="st14" d="M404.04,664.15c-1.19,2.09-2.39,4.12-3.62,6.1c-0.26,1.41-0.83,2.72-1.94,3.64c-0.5,1.25-1.17,2.28-2.04,3.08
	c0,0.23,0.01,0.46,0,0.69c-0.89,1.45-1.83,2.8-2.8,4.05l-0.01,0.7c-0.88,1.52-1.87,2.88-2.97,4.09c-0.04,0.31-0.11,0.63-0.2,0.93
	l-2.46,2.78l-2.08,3.77l-1.99,2.23c-0.02,0.3-0.14,0.61-0.18,0.91l-2.51,2.7l-1.08,1.83l-1.93,2.12c-0.39,1.27-1.62,2.37-1.91,3.66
	l-2.91,4.02c0.05,0.67-0.92,1.14-0.99,1.69c-2.07,2.25-2.76,4.05-2.06,5.4c-16.75,19.29-33.11,38.89-49.09,58.8
	c-0.75,2.54-1.55,4.92-2.41,7.16c1.76,0.49,1.74,1.23-0.05,1.59c-0.5,3.48-1.46,6.77-2.89,9.89c2.78,0.82,1.42,6.24-1.2,6.39
	c-0.68,2.56-1.55,4.93-2.59,7.09c2.45,1.17,2.57,3.8-0.31,4.42c-0.96,2.01-1.82,4.05-2.59,6.11c2.54,0.25,2.38,1.1-0.09,1.69
	l-0.17,1.12c1.87,0.31,1.83,1.14-0.05,1.63c-0.92,2.05-1.78,4.09-2.59,6.13c2.75,1.27,1.4,4.63-1.31,5.37
	c-0.66,2.3-1.5,4.35-2.52,6.15c2.62,0.72,2.35,2.87-0.29,3.47c-0.9,2.11-1.79,4.17-2.69,6.17c2.4,1.53,1.61,4.86-1.12,5.37
	c-0.86,1.78-1.74,3.5-2.65,5.14c2.59,0.83,2.41,1.95-0.24,2.53c-1.03,2.8-2.23,5.48-3.6,8.03c2.55,0.69,2.3,1.89-0.23,2.54
	c-0.89,1.76-1.77,3.47-2.64,5.14c2.59,0.83,2.4,1.95-0.24,2.53c-0.79,1.84-1.67,3.56-2.65,5.15c2.56,0.93,2.48,2.07-0.25,2.52
	c-1.62,3.25-3.14,6.57-4.56,9.96c2.48,0.74,2.23,1.86-0.23,2.54c-0.81,1.54-1.71,2.97-2.71,4.29c2.63,1.23,1.74,4.43-1.12,4.35
	c-1.67,4.07-3.54,8.02-5.61,11.86c0.73,0.4,1.57,1.18,1.3,1.79c-10.89,24.89-25.66,57.35-42.72,78.34
	c-2.59,3.18-8.99,10.23-13.3,10.08c-1.62-0.05-2.23-0.31-2.65-2.18l-2.6-1.53c-6.08-14.89-4.38-42.53-3.19-58.72
	c2.45-24.33,5.51-48.48,9.18-72.44c-4.14,3.97-8.1,8.13-11.89,12.5l-2.38-0.48c-0.98,1.97-2.03,3.97-3.65,5.49
	c-6.85,6.44-13.97,12.94-21.02,19.16c-1.67,1.48-3.8,2.31-5.86,3.09l0.62,2.1c-2.93,4-6.33,6.49-10.21,7.49
	c2.52,0.64,2.4,1.07-0.1,1.79l-0.98,0.94c-2.85,2.76-5.87,5.43-9.05,8l-2.39-0.11l-1.15,3.13c-10.46,9.26-21.51,17.7-33.13,25.31
	l-3.36-0.5c-0.33,2.76-2.55,2.38-2.98-0.26c-2.57,0.63-4.87-2.28-3.68-4.64c-0.82-0.09-1.3-0.54-1.73-1.18
	c-0.4-0.59,1.98-12.37,4.43-13.25c-2.53-0.59-2.36-1.51,0.19-1.96c3.66-4.76,3.21-12.24,5.62-17.22l-0.88-2.64l6.3-16.13l2.44-1.25
	l-1.13-2.36c0.16-0.63,4.48-10.49,4.82-10.99c0.47-0.69,1.29-1.03,2.03-1.33c-0.1-1.96,4.17-4.37,0.59-7.77
	c6.34-1.89,6.11-7.51,7.9-12.03l-0.74-3.23c6.54-12.44,12.41-25.16,17.61-38.14c2.44-15.75,4.93-31.57,7.47-47.46
	c0.48-5.55,2.35-9.93,5.61-13.16l29.68-87.42c27.76,9.84,56.85-47.81,64.39-69.01c3.24-3.19,3.57,0.58,2.26,3.72
	c-2.21,16.34-19.46,52.41-1.19,64.95c6.19,4.25,15.1,2.58,22.04-1.85c18.61-11.91,28.51-31.8,37.48-51.45l0.93-1.19
	c0.03-0.25-0.06-0.52-0.01-0.76c1.16-1.82,2.09-3.8,2.79-5.95l0.15-2.71l0.9-1.08c0.08-0.27-0.06-0.59,0.04-0.85
	c1.04-1.94,1.93-3.94,2.65-6c0.07-0.8-0.03-1.77,0.16-2.54c1.79-2.85,2.77-6.15,2.94-9.89c0.65-3.17,2.3-5.63,3.58-1.77
	c-0.21,0.78,0.09,1.9,0.08,2.71c-0.73,1.18-1.05,2.87-0.97,5.07c0,0.83-0.23,1.69-0.15,2.52c-0.49,1.85-0.95,3.6-1.38,5.25
	c0.12,1.79-0.33,3.61-0.37,5.39c-0.71,0.86-1.02,2.23-0.94,4.13l-0.04,1.62c-0.47,1.11-0.98,2.83-1.53,5.18
	c0.1,0.87-0.08,1.76-0.1,2.63l-1.16,6.95l-0.18,6.34l-0.01,2.27l0.18,6.35l1.19,5.97c-0.21,0.44,0.2,1.18,0.09,1.67l1.63,2.38
	c0.78,4.47,5.81,8.08,9.6,8.53c19.27,2.28,32.93-19.81,41.09-36.12c12.18-24.33,16.16-50.64,19.14-77.95
	c6.21,16.32-11.76,82.39,3.12,86.81c9.95,2.96,21.5-17.76,25.13-25.86c16.96-37.82,23.55-79.7,18.31-120.5
	c0.98-2.26,2.5-1.47,4.29-0.28c8.46,7.66,12.77,6.44,19.61-2.28c5.55-7.07,8.47-16.13,9.59-24.96l2.09-1.69
	C495.65,532.19,456.05,626.23,404.04,664.15z"/>
<path class="st5" d="M833.28,1427.36l0.15,1.95c-1.74-0.17-3.77,0.73-5.14-0.89C829.4,1427.08,831.62,1427.39,833.28,1427.36z"/>
<path class="st4" d="M1055.49,1346.04c-85.49,1.18-170.27,0.72-255.4-3.65C886.02,1339.32,970.61,1342.2,1055.49,1346.04z"/>
<path class="st4" d="M899.11,1323.46l-130.01,1.58C812.09,1321.87,855.7,1321.05,899.11,1323.46z"/>
<path class="st11" d="M214.32,1011.7c-1.7,17.43-2.55,26.15-2.55,26.15c-17.5,98.97-37.2,197.54-56.91,296.08
	c-0.86,4.28-2,8.51-3.16,12.73c-1.16,4.23-2.45,8.43-3.78,12.61c0.76,0.42,0.73,0.77-0.09,1.05l-0.96,2.88
	c0.8,1.2,0.5,2.83-0.9,4.88c1.14,2.88,0.48,6.21-1.98,9.98c-4.16,7.04-6.24,10.56-6.24,10.56c-1.79,3.05-3.89,4.24-6.3,3.57
	c-0.89,1.86-1.96,1.98-2.7,0.02c-1.34-0.22-2.28-0.98-2.91-2.11l-1.09-1.99c-0.19-0.95-0.73-1.83-0.83-2.81
	c-0.51-0.31-0.57-0.65-0.13-1.08c-0.16-1.33-0.46-2.65-0.77-3.96c-1.47-1.55-1.71-6.68-0.14-8.22c-0.03-0.9,0.48-1.94,0.31-2.84
	c0.66-1.55,0.92-3.29,0.77-5.2l0.78-10.24c-0.36-1.51-0.08-2.59,0.86-3.25l1.88-21.16l21.18-135.83l8.78-52.05l-1.68-1.5
	c18.83-105.26,28.24-157.88,28.24-157.88l2.1-0.82c-2.75,0.53-0.65-8.21-0.12-8.88c0.47-0.6,1.36-0.75,2.14-0.87l-1.06-4.67
	c4.52-23.97,9.11-47.93,13.79-71.86l2.62-3.97c5.76-4.64,9.42-12.55,17.22-15.98C215.18,910.5,202.44,981.5,214.32,1011.7z"/>
<path class="st10" d="M70.05,1399.78c-7.98,12.38-14.51,26.46-21.34,39.45c-5.54-1.19-10.34-4.97-15.72-8.61l18.74-7.7l3.26-25.21
	L70.05,1399.78z"/>
<path class="st10" d="M145.81,1413.25l-19.11,69.1c-12.83,13.68-28.59,24.82-40.98,39.25l18.28-49.91l-26.89-15.31l33.3-3.01
	l13.55-41.03c0.35-1.51,0.77-2.26,2.06-1.25c0.59-0.82,1.28-1.7,2.26-1.93c1.9-0.45,13.17,1.21,15.6,1.92L145.81,1413.25z"/>
<path class="st15" d="M105.48,1574.11l-2.73,3.01c-1.18-2.07-4.65-4.01-4.22-7.02C101.89,1570.51,104.66,1571.8,105.48,1574.11z"/>
<path class="st0" d="M200.58,1255.53c-23.54,49.6-39.99,104.29-54.77,157.72c-6.61-0.72-13.13-2.41-19.8-2.16
	c-1.55-0.19-1.65-1.01-0.47-2c0.01-0.82,0.11-1.67,0.22-2.48c0.91-2.07,1.77-4.13,2.59-6.2c0.28-1.33,0.32-3.37,1.09-4.52
	c0.05-2.05,0.72-3.28,2.01-3.68c7.48-5.76,11.18-15.32,14.53-24.12c1.29-2.64,2.19-5.38,2.72-8.22l1.08-0.57l0.69-5.43
	c15.6-41.54,29.18-83.7,42.6-125.99c1.09-3.44,2.85-6.62,4.67-9.73l1.88,1.69c0,0,0.88,11.29,2.65,33.88L200.58,1255.53z"/>
<path class="st15" d="M122.87,1372.06c1.43,2.46,1.58,5.74,0.14,8.22l-8.96-6.6C117.28,1372.26,120.05,1372.35,122.87,1372.06z"/>
<path class="st15" d="M128.35,1400.4c-0.47,2.21,0.28,5.91-2.59,6.2C126.08,1404.42,125.87,1401.03,128.35,1400.4z"/>
<path class="st15" d="M123.19,1369.22c-0.34-1.81-0.76-3.84,0.77-5.2c1.17,0.41,0.88,2.24,0.88,3.41
	C124.84,1368.14,124.44,1369.76,123.19,1369.22z"/>
<path class="st4" d="M106.51,962.02l-1.24,5.61c-17.5,32.17-31,66.17-40.5,101.98c0,0-1.16,1.55-3.47,4.65
	c-6.2,5.38-6.96,23.27-13.37,13.43l-2.03-0.54c-0.47-1.72-3.13-17.07-2.82-17.92c0.28-0.79,0.97-1.28,1.68-1.64
	c-1.05-1.11-2.15-2.34-2.48-3.88c-1.98-9.06-1.13-22.49-0.51-31.95c1.02-15.59,3.69-31.54,6.52-46.9c0.13-0.68,0.55-1.31,1-1.97
	c0.46-0.67,1.03-1.27,1.62-1.85c2.39-2.73,4.29-5.83,6.27-9.21c8.79-9.16,26.83-20.28,39.85-15.53c3.03-3.72,6.44-7.03,10.22-9.93
	l1.96,1.2L106.51,962.02z"/>
<path class="st9" d="M68.25,900.62c2.86,0.72,1.88,7.21-0.98,7.43c-2.65,1.28-0.94,5.25-2.02,6.76c1.66,2.74-0.39,9.16-3.68,10.59
	c-2.31,4.42-1.35,11.17-3.03,15.28c0.95,1.65,0.82,3.74-0.4,6.3c0.06,4.94-1.34,9.03-4.19,12.26c1.14,2.05,1.16,4.63,0.06,7.75
	c0.05,4.77-0.54,9.23-1.78,13.38l-1.31,0.69c-4.96,28.26-10.55,58.57-6.15,86.54l-2.92,1.04c-0.27,6.13-0.94,12.19-2.01,18.18
	l-2.46,0.57c-1.59-0.21-3.75,0.74-5.46-0.35c-1.12-0.72-7.14-13.57-5.95-19.3c-0.86-1.31-0.66-3.06,0.62-5.26
	c-0.55-1.19,0.26-3.29,0.24-4.49l0.1-1.03c3.19-28.74,13.79-83.29,22.15-113.6c-2.55-3.83,0.64-9.83,3.77-12.97
	c1.83-6.6,4.98-12.63,5.71-19.51C59.24,906.78,64.68,899.9,68.25,900.62z"/>
<path class="st9" d="M110.19,966.66l-0.25,3.3c-17.64,38.77-28.91,80.15-34.19,122.47l-3.03,8.86c-3.05,4.87-8.36-1.35-10.32-5.18
	c1.09-4.1,0.83-7.22-0.76-9.35c-0.52-4.33,1.53-8.63-0.35-12.5c12.01-38.2,23.6-78.71,45.21-112.24
	C108.02,963.31,109.26,964.9,110.19,966.66z"/>
<path class="st7" d="M88.19,1134.53c-1.98,0.22-5.25,0.61-7.46-0.94c0.83-4.73,0.9-9.1,1.13-13.42c0.58-3.29,0.86-4.93,0.86-4.93
	c3.8-8.06,20.58-26.49,28.54-30.35c3.43-1.66,6.84-2.5,5.37,1.34c-10.9,13.74-21.11,28.35-25.75,45.47L88.19,1134.53z"/>
<path class="st7" d="M22.3,1065.52c-4.5,5.73-0.19,14.34,1.33,22.23c-3.13,0.86-8.14,6.34-10.32,2.73c-0.5-2.76,0.65-5.94-0.08-8.65
	c3.31-16.17-2.17-32.89-2.54-48.86L22.3,1065.52z"/>
<path class="st7" d="M44.76,1067.59l3.16,20.1c-3.28,0.1-7.22,0.13-10.56-0.31C41.86,1080.71,35.66,1062.06,44.76,1067.59z"/>
<path class="st15" d="M62.4,1096.1c-1.65-3.22-0.34-5.9-0.76-9.35c2.97-0.38,3.04,1.84,2.6,4.16
	C63.91,1092.68,63.54,1094.6,62.4,1096.1z"/>
<path class="st3" d="M96.41,1073.3l-0.46-1.85c-2.3-4.39,7.96-10.98,7.7-3.44C103.62,1068.96,98.01,1076.91,96.41,1073.3z"/>
<path class="st15" d="M26.58,1062.47c0.97,2.11-0.24,3.46-0.62,5.26c-0.86-0.18-1.52-0.74-2.08-1.39
	C25,1065.19,24.76,1062.55,26.58,1062.47z"/>
<path class="st7" d="M109.4,945.63c-0.19,0.45-0.1,1.47-0.19,1.96c-5.13,2.04-7.15,7.72-11.96,10.52
	c-15.71-4.43-26.35,5.63-38.29,14.7c-2.75,2.09-2.38,8.24-8.05,8.24c1.3-7.39,0.07-14.56,3.03-21.82
	c5.98-9.11,17.11-15.52,27.26-19.38c0.14-3.71-0.89-3.79-3.09-0.22l-2.27-0.64c-1.01-5.89-1.29-12.4-0.56-18.94l9.51,5.89
	c1.43-3.45,3.04-6.69,6.81-5.5c1.99,0.63,6.31,1.12,6.13,4.14c-4.1,2.1-8.1,3.29-9.52,7.16L109.4,945.63z"/>
<path class="st7" d="M97.12,896.02c8.23-0.86,18.08,4.75,24.71,9.54l1.04,2.82c-1.97,6.04-4.99,14.08-7.86,20.02
	c-3.79-1.79-9.16-4.27-8.67-8.9l-0.95-0.54c0.32-2.92-0.52-4.54-2.53-4.87c-9.1-6.15-18.8-12.11-29.53-17.83
	C81.57,890.77,89.94,894.44,97.12,896.02z"/>
<path class="st4" d="M128.59,893.7c0.2,3.97-4.49,10.91-5.72,14.68c-8.43-4.78-16.15-10.25-25.75-12.36l12.23-3.03
	c0.05-1.37,0.18-2.54,0.45-4.26c0.13-0.8,1.43-0.3,1.67,0.57c0.28,1.03,0.83,2.41,0.93,3.97
	C117.47,894.92,123.43,893.27,128.59,893.7z"/>
<path class="st4" d="M53.95,959.23c2.43-5.95,0.92-13.08,4.59-18.56c6.03-0.45,12.61,1.98,17.31-1.68c2.43-1.89,3.83-3.1,2.9-8.21
	c2.99,3.16,4.56,6.17,4.45,10.4C71.13,944.7,63.22,952.64,53.95,959.23z"/>
<path class="st4" d="M61.57,925.39c1.61-3.08,1.43-7.45,3.68-10.59c3.5,0.12,7.11,2.36,9.01,5.69
	C69.9,923.14,65.7,924.07,61.57,925.39z"/>
<path class="st4" d="M67.27,908.05l0.98-7.43c1.55,0.31,3.31,0.22,4.23,1.86c0.77,1.36,2.15,3.48,0.72,4.47
	C71.32,908.23,69.01,908.02,67.27,908.05z"/>
<path class="st4" d="M106.34,919.5c-2.91,0.07-3.08-3.27-3.49-5.41c1.38-0.55,2.08-2.02,3.89-3.28
	C108.35,913.97,106.63,916.75,106.34,919.5z"/>
<path class="st5" d="M40.98,862.48c2.41-2.65,5.5-3.58,8.82-3.95C48.37,861.66,44.79,865.73,40.98,862.48z"/>
<path class="st4" d="M99.85,575.25c42.74,59.52,59.27,125.85,67.18,196.66c-5.55,16.36-7.29,34.59-9.37,52.44
	c-1.94,16.69-14.02,33.05-20.58,49.55c-22.37-7.3-47.57-6.33-64.83,12.31c-2.31-35.26-31.17-54.96-64.84-57.75
	c5.78,5.07,10.98,11.76,16.14,15.32c1.35,0.94,7.01-4.34,5.06-0.49c-0.5,0.98-1.5,2.56-1.89,3.65l9.94,13.49
	c-12.55-4.65-24.54-5.5-36.65-6.03V490.56C38.97,510.72,74.03,539.29,99.85,575.25z"/>
<path class="st7" d="M49.07,943.35c-3.43-0.8-6.65,0.93-11.25,0.66c4.13-5.44,9.11-10.61,15.03-13.63
	C51.63,934.75,50.15,939.42,49.07,943.35z"/>
<path class="st5" d="M563.39,755.53c0.57-0.66,1.53-0.75,2.14-0.08c0.59-0.04,1.27,0.21,1.85,0.08l2.04,0.85
	c1,3.31,2.2,11.93-0.19,14.31c-20.91,14.67-41.84,29.01-61.7,46.06c-44.82,38.46-86.54,79.64-123.67,125.09l-5.01,0.06
	c-18.81-6.28-37.88-11.66-57.22-16.16c0,0-1.29-1.04-3.88-3.12l-1.22-3.67c8.21-46.29,15.18-92.75,20.9-139.4l2.31-2.83
	c-2.79-2.3-1.79-3.58,1.27-4.96l64.35-6.69l1.35,1.79c3.72,4.4-0.47,13.18-2.85,18.15c-1.41,2.95-3.22,5.7-5.05,8.4
	c7.75-0.2,15.07-5.48,20.62-10.94c6.63-2.88,2.82,9.38,0.57,11.94c9.34-7.21,15.41-18.24,16.82-29.94l2.12-2.11l0.76-1.97
	c15.87-0.97,31.75-1.94,47.64-2.91l1.25,1.85c2.24,2.78,2.5,6.5,0.77,11.18c-1.77,6.42-4.48,12.46-8.13,18.1
	c5.35-0.94,10.21-3.48,14.54-6.68c4.61-4.76,7.57-5.37,8.87-1.86c-3.23,9.43-3.29,10.49,3.97,1.98c5.6-6.56,9.75-14.14,11.4-22.66
	l2.29-2.07C535.97,756.56,549.64,755.27,563.39,755.53z"/>
<path class="st7" d="M674.77,718.19c4.57,2.16,4.83,10.45,4.85,15.34c0.03,6.67-1.49,13.28-4.42,19.26c3.5,1.07,7.35,1.4,11.54,1
	l2.56,1.83c-2.87,6.69-8.94,11.06-12.99,17.61c-7.48,61.43-16.35,122.71-33.92,181.78c-4.41,14.81-9.71,29.88-20.17,39.43
	c2.34-51.7,13.21-103.33,17.44-157.01l-31.48,67.28c-1.52,3.24-3.56,6.53-6.92,6.45c-4.24-0.1-5.32-4.69-5.41-8.86
	c-0.8-35.53,3.98-70.33,5.03-105.31c15.67-13.04,33.49-23.5,52.73-31.83c5.13-2.22,10.36-4.53,11.64-10.88
	c-4.84,3.35-9.94,6.45-15.49,4.73c9.03-12.81,8.57-30.45-2.34-41.14c-7.51,0.43-15.63-0.27-22.57-0.99
	c3.44-9.76,14.47-11.92,25.54-11.29C658.88,706.09,670.99,708.53,674.77,718.19z"/>
<path class="st7" d="M617.33,716.98c-17.85,1.91-35.85,0.08-53.71,1.15c-1.78-15.96-0.02-32.23-0.88-48.09
	c7.26-7.27,5.21-19.8,9.88-30.87l5.53,28.77c0.51,2.65,1.49,5.13,4.13,5.15c10.65,0.1,15.42-44.15,17.63-54.2
	c2.55,0.7,6.23,49.56,16.32,27.67c8.85-19.2,10.74-39.94,12.37-61.86c6.2,10.45,3.75,22.56,12.08,32.13
	c12.92-22.85,13.02-49.17,14.6-75.19c6.22,7.87,4.43,18.83,12.21,26.6c12.87-23.51,14.28-69.16,1.89-92.29
	c13.48,14.97,16.3,37.86,16.14,58.9C685.03,600.64,647.86,661.21,617.33,716.98z"/>
<path class="st4" d="M383.85,941.83c-52.6,64.41-96.35,133.82-134.83,207.26c-0.73-0.22-1.8-0.7-1.72-1.23
	c1.98-13.19,4.98-30,8.33-42.79c-0.05-2.42,0.85-3.69,2.7-3.8c0.31-1.65,1.62-2.91,3.92-3.8c7.07-6.18,11.31-15.87,14.98-24.52
	c9.17-21.57,15.44-47.67,20.97-70.98c5.32-22.42,10.5-44.88,15.1-67.46c0.95-4.14,2.68-8.05,4.42-11.91
	C339.7,929.14,362.31,932.83,383.85,941.83z"/>
<path class="st14" d="M258.33,1101.27l-9.31,47.82c-6.29,32.3-15.29,64.15-26.97,95.29c-2.81,7.5-6.33,15.78-14.05,18.82
	c-2.63,1.03-7.01-4.96-7.42-7.68c-1.4-9.27-3.23-27.26-2.85-37.37l-1.68-1.15l46.04-171.83c2.26-2.02,3.73-2.18,4.49,0.85
	c0.79,12.57,1.69,25.17,2.69,37.8c0.44,7.4,3.25,12.53,8.43,15.38L258.33,1101.27z"/>
<path class="st7" d="M512.51,721.19c3.23,11.67,11.49,23.33,9.74,36.12c-2.07,15.18-11.74,27.79-23.89,36.7l4.71-15.53
	c-7.44,6.35-15.1,12.25-26.46,12.5c7.91-9.8,12.28-20.2,11.95-31.66l-1.98-1.59c-0.59-11.7-3.63-23.97-13.67-31.06
	c-6.91,1.74-14.22,1.44-21.21,0.59c-6.31,3.38-9.46,3.1-9.45-0.84c-2.5-2.75,1.1-10.7,4.97-9.38c18.44-13.54,24.83-5.99,42.25-9.59
	C497.43,711.87,506.05,714.04,512.51,721.19z"/>
<path class="st7" d="M569.22,770.68l-1.85-15.15c9.66-2.2,20.48-0.41,31.34-1.5C589.77,762.82,577.85,764.62,569.22,770.68z"/>
<path class="st1" d="M612.48,276.65c-3.21,6.87-9.12,14.1-9.15,21.97c-0.49,2.71-4.44,6.34-7.15,5.68
	c-0.93-0.15-1.78-0.75-2.68-0.97l-2.38-1.61c-0.45,0.08-0.99-0.01-1.45,0c-0.73,0.42-1.52,0.88-2.38,1.38
	c-19.68,9.49-28.87,36.36-25.78,57.86c-36.19-3.71-51.07-39.52-44.65-72.72c2.24-11.59-2.87-17.05-8.02-25.15l0.75,0.01l2.28-1.86
	c26.31-11.33,53.4-22.8,82.54-20.64c5.23,0.39,10.94,1.21,13.53,4.58C614.83,254.16,599.32,269.05,612.48,276.65z"/>
<path class="st3" d="M603.33,298.62c-0.05,17.06,16.06,27.77,22.88,41.77c-9.77-3.03-16.03-10.68-20.78-19.31l-9.25-16.78
	C597.94,301.75,600.47,299.78,603.33,298.62z"/>
<path class="st9" d="M754.6,716.05c0.96,0.21,2.81,1.71,3.05,2.97c2.76,14.58,6.4,28.64,11.1,42.39c-3.7,0-7.37-0.67-11.07-0.43
	c-1.42-0.39-2.86-0.83-4.33-1.33c-2.2,0.27-4.41-0.06-6.6-0.26l-0.41-3.2c6.35-11.48,6.55-24.57,2.4-36.84l1-3.06
	C751.24,716.45,753.13,715.72,754.6,716.05z"/>
<path class="st5" d="M850.7,689.07c-1.11,1.97-5.59,1.81-6.27,0.39c-1.03-2.15-0.88-4.78-1.07-9.11
	C846.44,682.32,847.86,685.21,850.7,689.07z"/>
<path class="st9" d="M701.92,717.17l2.58-1.8c6.85,2.13,13.65,2.78,20.38,1.93c6.45,5.95,9.46,15.74,8.98,24.43
	c-0.28,5.02-1.88,14.54-7.18,15.56c-12.49-0.54-24.88-2.27-37.37-1.66c-5.34,0.26-11.51,0.07-17.56-0.51
	c6.69-11.03,7.81-24.69,3.02-36.93C683.86,718.71,692.98,717.42,701.92,717.17z"/>
<path class="st7" d="M749.74,716.29c5.43,15.4,5.41,28.87-2.99,43.1l-9.22,5.94c0.4-3.2,2.67-5.34,2.3-8.03
	c-5.42,3.17-9.88,5.93-15.86,4.82c1.42-1.57,1.78-3.47,2.71-4.84c7.84-11.63,6.97-26.98-2.37-38.43
	c-7.37,3.11-15.36-1.89-22.39-1.69c10.26-18.12,30.16-4.4,38.31-10.7C738.2,711.19,746.79,712.69,749.74,716.29z"/>
<path class="st11" d="M484.11,470.24c-1,13.21-7.38,29-18.55,35.24c-6.83,3.81-11.34-5.07-17.02-6.03
	c-4.36-4.82-8.09-10.44-12.72-17.21c-2.26,15.44-5.51,29.9-15.82,41.46c-7.15,8.02-19.11,14.61-28.75,8.59
	c-9.96-6.22-10.81-18.23-13.35-29.7c-4.19,21.51-35.22,63.73-56.47,46.7c-8.55-6.85-9.98-17.6-10.32-28.65
	c-5.96,12.55-28.45,39.99-41.17,34.76c-12.41-5.1-5.08-29.37-4.2-37.79c23.75-40.31,76.59-105.14,117.51-128.13
	c22.38-12.57,48.64-10.59,68.48,5.75C473.61,413.25,486.25,442,484.11,470.24z"/>
<path class="st7" d="M401.04,714.53c0.82,0.54,1.34,0.65,2.34,0.72l3.48,0.1c1.74,1,3.78,1.22,6.11,0.67l0.9-0.03
	c0.94-1.46,1.59-1.68,1.71,0.15l2.02-0.67l10.4,6.22c2.91,1.72,3.61,3.4,2.08,5.05l2.75,1.49c5.01,8.34,7.67,21.95,8.1,31.64
	l-2.01,2.48c-0.98,14.88-9.21,28.62-22.2,36.88c0.27-6.43,5.5-9.78,4.58-16.1c-7.2,7.95-16.52,12.67-27.05,13.21
	c7.26-9.38,12.21-18.85,12.43-29.49l-1.91-1.7c-0.31-11.7-3.71-24.39-13.46-31.72c-6.73,0.74-13.46,0.85-20.2,0.31
	c-13.3-2.7-8.1-8.28-1.19-14.87c4.1-0.97,8.21-2.14,12.34-3.51c0.68-0.34,1.82,0.23,2.54-0.07c1.82,0.07,3.55-0.19,5.18-0.77
	C393.67,714.45,397.36,714.36,401.04,714.53z"/>
<path class="st9" d="M372.43,713.15c-0.24,1.75-1.65,2.96-2.73,4.81c4.88,0.06,8.23-3.3,12.56-2.6c-6.95,3.5-15.47,4.37-17.92,13.92
	c7.86,4.95,18.41,2.19,27.54,2.38c10.89,6.84,15.06,23.04,14.8,35.19l-65.69,6.82c-1.29,0.13-1.17,2.29-1.27,3.04
	c-2.74,0.25-5.66,0.23-8.75-0.05c-6.17,0.15-8.96,2.37-8.37,6.66c-1.17,2.59-2.07,4.18-3.72,1.18c0.71-10.31,7.17-16.61,13.84-24.48
	L372.43,713.15z"/>
<path class="st5" d="M438.68,697.79l8.55,19.24c-2.7,1.98-3.93,6.53-4.97,9.38c-2.08,2.02-10.34,3.46-12.17,0.33
	c-2.64-5.17-10.87-6.41-14.5-10.6c1.89-7.84,13.11-14.8,20.28-18.75L438.68,697.79z"/>
<path class="st11" d="M438.68,697.79c-8.02,5.64-17.52,10.44-23.1,18.35l-1.71-0.15c4.77-11.73,12.88-22.18,20.47-34.06
	C437.36,687.08,437.8,692.85,438.68,697.79z"/>
<path class="st9" d="M404.04,664.15c-0.51,2.25-0.88,5.71-3.62,6.1C400.86,667.89,401.4,664.63,404.04,664.15z"/>
<path class="st9" d="M412.97,716.02c-0.17,1.54-2.17,1.03-3.52,1.18c-0.96,0.1-3.14-0.1-2.59-1.84
	C408.93,715.42,411.2,714.7,412.97,716.02z"/>
<path class="st9" d="M389.99,714.52c-0.24,0.97-1,1.58-1.75,1.7c-1.38,0.2-2.5-0.21-3.43-0.93
	C385.85,713.58,388.29,714.28,389.99,714.52z"/>
<path class="st9" d="M393.64,682.4c-0.01,1.84-0.76,4.25-2.97,4.09C390.92,684.69,391.47,682.3,393.64,682.4z"/>
<path class="st9" d="M396.44,677.66c-0.13,1.8-0.65,4.16-2.8,4.05C393.66,679.91,394.29,677.53,396.44,677.66z"/>
<path class="st9" d="M376.34,707.44c-0.3,1.84-0.74,3.83-2.91,4.02C373.6,709.64,374.17,707.32,376.34,707.44z"/>
<path class="st15" d="M817.83,380.98c-3.08,3.63-0.19,9.91-2.61,15.05c-3.75,4.63-2.6-2.43-18.33,3.91
	c6.45,0.56,15.99-2.28,18.18,4.85c0.56,1.8-2.28,4.9-2.47,6.25c-0.22,1.56-1.88,5,1.57,4.42l-0.17,3c0.2,2.77-2.08,2.6-2.74,0.02
	l-1.9-1.79c-2.18-0.35-2.7-2.07-1.58-5.16l1.76-5.28l-12.81,6.66l-2.05-1.25c-1.11,2.67-3.84,3.93-8.19,3.77
	c-7.34-0.96-14.63-1.51-21.88-1.64c-2.74,1.43-5.06,1.68-6.96,0.77c0.72-1.3,1.25-3.06-0.23-3.97c-2.3-3.48,3.26-5.12,4.84-1.93
	c2.87,0.41,5.75,0.76,8.64,0.23c1.16-1.62,3.03-1.94,5.63-0.96c-4.36-2.7-10.45-3.49-15.52-3.64l-1.55-1.94
	c0.06-1,0.22-2.01,0.79-2.85c0.12-1.82,5.88-1.32,5.82-1c-0.06,0.31-5.84-0.22-5.85-0.97c-1.71-4.14-3.98-7.92-8.62-7.76
	c0.82-1.39,2.57-0.81,3.88-0.89c7.09-2.6,13.72-3.73,20.09,1.37c-1.08-11.49,8.71-16.29,18.01-10.79c4.41-0.07,8.69-0.5,12.85-1.29
	C810.28,378.14,816.11,377.26,817.83,380.98z"/>
<path class="st0" d="M770.88,408.89c-2.83,0.56-5.82,0.36-8.64-0.23c-1.46,0.74-4.32-0.53-4.84,1.93l-5.65,1.26
	c0.8-4.21,4.96-6.37,7.69-9.51c22.89,0.08,12.21,9.86,40.8,1.87C791.85,412.66,781.29,410.83,770.88,408.89z"/>
<path class="st0" d="M760.23,399.49c-0.19-0.59,0.2-1.41-0.03-1.97c10.02-3.93,15.56,6.99,32.62,4.83
	C783.96,408.55,773.23,400.09,760.23,399.49z"/>
<path class="st0" d="M794.67,411.66c3.47,0.24,5.29,7.76,3.87,10.66l-10.31,14.18c-5.38,7.39-2.93,14-3.01,21.26
	c-12.71-2.34-25.71-8.98-32.59-19.9c-0.69-0.38-1.24-1.13-1.67-2.23c0.17-4.61-0.56-9.28,0.9-13.96l1.77-2.17l4-4.94
	C772.32,406.26,777.25,417.9,794.67,411.66z"/>
<path class="st1" d="M809.35,416.69c-4.32-0.64-8.2,2.03-10.82,5.62c-1.8-3.2-2.38-7.18-3.87-10.66c5.86-2.1,11.01-7.14,17.87-8.14
	C811.06,408.74,808.58,412.4,809.35,416.69z"/>
<path class="st3" d="M814,418.46l15.7,24.79C819.35,439,811.9,429,811.26,418.48L814,418.46z"/>
<path class="st0" d="M792.72,376.61c2.71,0.36,5.05,0.96,7.02,1.8c2.17,0.24,4.48-0.25,6.66-0.26c-3.12,3.87-8.88-1.29-11.87,3.44
	c1.31,5.09,2.6,11.12-1.24,13.61c-4.06,2.64-9.2,2.14-12.75-2.43c3.85,0.67,6.87,0.75,9.73-1.62c2.55-2.11,5.14-6,3-9.46
	c-2.57-4.15-8.8-4.35-11.91-2.08c-4.57,3.33-3.64,7.79-4.06,15.06c-6.76-7.89-13.54-6.36-21.86-5.81l21.93-10.86
	c0.87-0.59,1.96-1.1,3.29-1.51C784.69,376.23,788.7,376.54,792.72,376.61z"/>
<path class="st15" d="M799.74,378.42c-2.41-0.26-6.38,0.9-7.02-1.8C795.28,376.66,799.96,374.7,799.74,378.42z"/>
<path class="st7" d="M829.19,383.68c1.72-1.18,3.23,0.32,3.54,1.37c0.6,2.04-0.65,3.31-1.48,4.27c-1.61,1.86-3.77,1.48-3.73-0.22
	C827.57,386.72,827.62,384.76,829.19,383.68z"/>
<path class="st7" d="M335.81,598.1c-5.95-1.9-0.83,9.95-6.52,11.66l7.69-31.37C338.25,585.64,337.4,592.15,335.81,598.1z"/>
<path class="st7" d="M267.66,604.07c-0.71,3.4-1.74,6.76-1.88,10.25l-0.87,1.1c-0.01,1.45-0.32,3.02-1.55,3.78
	c-0.25-1.52-0.2-4.02-2.26-3.72c1.49-4.18,3.81-8.19,4.84-12.56C267.29,601.72,267.76,602.32,267.66,604.07z"/>
<path class="st15" d="M267.66,604.07c-0.6-0.35-1.17-0.73-1.72-1.15c1.06-4.47,1.66-9.12,4.2-13.41
	C270.91,594.96,268.62,599.46,267.66,604.07z"/>
<path class="st7" d="M329.25,639.56c-1.7-2.11-0.79-5.28,1.16-6.95C331.73,634.74,330.53,637.62,329.25,639.56z"/>
<path class="st7" d="M329.13,612.31c-0.19,2.17,0.13,5.92-2.65,6C327.27,616.26,326.45,612.53,329.13,612.31z"/>
<path class="st7" d="M330.43,660.49c-1.77-1.39-2.73-4.13-1.19-5.97C330.46,656.14,331.4,658.59,330.43,660.49z"/>
<path class="st7" d="M335.89,600.82c-0.02,1.68,0.79,4.08-0.97,5.07c-0.74-0.97-1.02-2.18-0.93-3.41
	C334.05,601.53,334.62,600.25,335.89,600.82z"/>
<path class="st7" d="M334.77,608.41c0.04,0.45,1.2,6.23-1.38,5.25C333.27,611.85,332.1,608.46,334.77,608.41z"/>
<path class="st7" d="M322.6,628.9c0.5-2.15,0.57-4.98,2.79-5.95C325.28,625.16,325.37,628.76,322.6,628.9z"/>
<path class="st7" d="M332.04,624.81c-0.04,1.79,1,5.13-1.53,5.18c-0.11-0.94-0.39-2.22-0.34-3.46
	C330.21,625.76,330.57,624.27,332.04,624.81z"/>
<path class="st7" d="M333.02,619.06c-0.03,1.36,0.55,3.41-0.94,4.13c-0.67-0.73-0.94-1.68-0.98-2.52
	C331.05,619.53,331.87,618.51,333.02,619.06z"/>
<path class="st15" d="M757.69,760.98c-0.57,0.04-1.78,0.37-2.52,0.33c-0.75-0.04-2.29-0.29-1.81-1.66c0.78-0.1,2.22-0.5,3.31-0.19
	C757.19,759.61,758.2,759.96,757.69,760.98z"/>
<path class="st13" d="M339.72,776.72c-4.87,36.56-13.95,106.66-21.99,145.89c-7.98,38.96-16.51,77.78-27.16,116.61
	c-3.65,13.31-17.49,60.47-32.24,62.06c-16.4-2.14-10.46-44.82-14.07-56.74l-46.52,173.62c-12.83,47.9-30.36,94.71-47.96,141.14
	c-0.73,1.72-1.45,1.85-1.84-0.02c22.63-115.72,46.73-231.35,66.39-347.58c15.48,6.18,52.03-76.05,57.37-88.03
	c2.06-3.83,3.93-7.78,5.61-11.86c0.35-1.45,0.91-2.86,1.12-4.35c0.9-1.49,1.81-2.92,2.71-4.29c0-0.76-0.02-1.82,0.23-2.54
	c1.43-3.38,2.95-6.7,4.56-9.96c0.28-0.76,0.04-1.73,0.25-2.52c0.94-1.74,1.82-3.46,2.65-5.15l0.24-2.53
	c0.83-1.8,1.71-3.52,2.64-5.14c0.16-0.81-0.03-1.76,0.23-2.54c1.37-2.59,2.57-5.26,3.6-8.03l0.24-2.53c0.84-1.79,1.72-3.5,2.65-5.14
	c0.16-1.85,0.69-3.57,1.12-5.37c0.9-2.1,1.79-4.16,2.69-6.17c0.27-1.11-0.06-2.37,0.29-3.47c1.05-1.94,1.89-3.99,2.52-6.15
	c0.05-1.85,1.1-3.55,1.31-5.37c0.82-2.12,1.68-4.16,2.59-6.13c0.14-0.52-0.05-1.1,0.05-1.63l0.17-1.12l0.09-1.69
	c0.76-2.14,1.63-4.18,2.59-6.11c0.4-1.39-0.19-3.06,0.31-4.42c1.09-2.27,1.95-4.63,2.59-7.09c0.02-2.19,0.95-4.24,1.2-6.39
	c1.39-3.14,2.35-6.43,2.89-9.89c-0.09-0.49,0.01-1.09,0.05-1.59c3.22,0.76,0.95-4.72,2.62-6.41
	C324.9,774.64,336.08,773.16,339.72,776.72z"/>
<path class="st8" d="M188.1,971.52l-2.02,9.75c-4.18,2.89-11.2-2.4-9.79-7.64c-0.66,1-1.99,2.4-3.03,2.42
	c-1.06,0.02-17.86-9.13-18.61-9.87c-0.58-1.81-0.68-3.73-0.29-5.75c-2.84,3.1-6.9,3.02-12.19-0.26
	c8.31,12.73,11.84,27.52,11.94,42.61c0.03,3.65-0.86,24.21-3.96,24.02c-4.31-0.27-11.47-15.1-11.77-19.82
	c-4.1-4.78-7.64-10.07-10.63-15.87c0,0,0.24-1.1,0.71-3.29c-5.69-1.11-9.43-9.12-10.2-14.55c-3.51,0.71-8.01-3.54-5.09-6.35
	c14.23-6.47,24.65-19.25,37.63-27.94c1.01-0.52,2.13-0.98,3.29-0.84c4.29,0.51,14.19,7.86,17.81,10.96
	C178.39,954.65,186.88,963.12,188.1,971.52z"/>
<path class="st4" d="M203.44,891.02l-15.34,80.51c-8.94-14.35-21.11-27.12-37.31-32.55c3.72-2.49,6.25-8.17,11.44-7.89l0.98-0.94
	l0.1-1.79c5.52-1.49,11.17-2.76,16.95-3.81c-5.47-0.78-7.92-2.71-7.35-5.78C182.64,909.03,192.78,899.61,203.44,891.02z"/>
<path class="st7" d="M163.32,928.35l9.59-9.59c3.09,4.69,10.01,2.15,14.92,7.44C178.78,924.95,171.16,930.59,163.32,928.35z"/>
<path class="st9" d="M277.3,911.81c-1,4.13-2.14,9.42-5.61,11.86C273.42,919.8,273.84,914.48,277.3,911.81z"/>
<path class="st9" d="M315.93,795.99c0.4-3.38,0.72-7.19,2.89-9.89C319.39,789.16,318.79,794.49,315.93,795.99z"/>
<path class="st9" d="M285.92,890.68c-1.23,3.32-1.27,8.16-4.56,9.96C282.54,897.25,282.39,892.08,285.92,890.68z"/>
<path class="st9" d="M295.52,864.77c-0.26,2.79-0.54,7.16-3.6,8.03C292.85,870.08,292.57,865.76,295.52,864.77z"/>
<path class="st9" d="M314.73,802.38c-0.02,2.48,0.36,6.53-2.59,7.09C313.02,807.08,311.81,802.89,314.73,802.38z"/>
<path class="st9" d="M311.83,813.88c-0.6,2.11,0.15,5.88-2.59,6.11C309.35,817.83,309.2,814.2,311.83,813.88z"/>
<path class="st9" d="M308.93,824.43c-0.56,2.13,0.16,5.89-2.59,6.13C306.59,828.4,306.31,824.77,308.93,824.43z"/>
<path class="st9" d="M305.03,835.94c-0.06,2.23,0.26,5.86-2.52,6.15C303.16,839.98,302.5,836.49,305.03,835.94z"/>
<path class="st9" d="M302.22,845.55c-0.54,2.2,0.1,5.87-2.69,6.17C300.05,849.59,299.47,845.86,302.22,845.55z"/>
<path class="st9" d="M298.41,857.1c-0.17,1.94-0.3,5.08-2.65,5.14C295.94,860.36,295.99,857.12,298.41,857.1z"/>
<path class="st9" d="M291.69,875.34c-0.38,1.92-0.15,5.1-2.64,5.14C289.23,878.6,289.29,875.36,291.69,875.34z"/>
<path class="st9" d="M288.81,883.01c-0.19,1.94-0.17,5.1-2.65,5.15C286.65,886.32,286.39,883.03,288.81,883.01z"/>
<path class="st9" d="M281.13,903.18c-0.01,1.89-0.53,4.13-2.71,4.29C278.66,905.69,278.93,903.18,281.13,903.18z"/>
<path class="st9" d="M149.78,1359.3c-1.1,2.9-1.08,6.44-3.8,8.79c0.56-1.48,0.11-3.4,0.9-4.88l0.96-2.88
	c-0.01-0.33,0.03-0.72,0.09-1.05L149.78,1359.3z"/>
<path class="st9" d="M488.56,759.31l-49.64,3.03c0.82-12.51-3.86-24.35-8.84-35.61c3.59,0.34,8.76-1.51,12.17-0.33
	c3.18,3.7,6.61-1.67,10.43-1.04c6.4,1.05,14.04,0.74,20.55-0.51C485.04,731.68,488.21,747.09,488.56,759.31z"/>
<path class="st7" d="M565.53,254.06c6.67-2.06,10.79,3.33,12.07,8.69c1.36,5.67-2.54,10.58-8.31,12.03
	c-5.4,1.35-10.46-2.39-11.92-7.82C555.95,261.72,559.5,255.92,565.53,254.06z"/>
<path class="st0" d="M774.32,396.2c-5.82-2.48-10.21-1.13-15.34-4.04C764.48,388.34,771.59,391.06,774.32,396.2z"/>
<path class="st9" d="M787.55,390.55c-0.92-1.15-1.23-2.54-1.45-2.98c-0.36-0.76-2.1-0.67-2.49-0.06c-0.35,0.55-0.19,2.88-1.15,2.8
	c-2.86-0.23-3.12-4.78-0.5-5.12c2.03-0.26,4.34-2.69,5.73-1.17C789.53,386.02,789.39,389.56,787.55,390.55z"/>
<path class="st8" d="M770.88,408.89c-2.09,1.68-6.94,2.08-8.64-0.23C765.09,407.22,767.87,408.32,770.88,408.89z"/>
<path class="st0" d="M807,380.2c0.57,2.56,0.71,5.1-0.09,7.78C806.09,385.87,805.99,383.64,807,380.2z"/>
<path class="st4" d="M186.08,981.28l-28.66,160.21c-18.85-8.17-38.41-9.08-58.93-0.26c-1.02-10.28,8.52-14.32,13.07-22.61
	c-14.87,5.83-14.32,14.92-23.37,15.92c4.26-18.48,14.87-34.98,28.02-50.39c-14.65,8.17-25.48,21.73-34.35,36.03
	c-10.08-6.65,10.51-39.09,14.55-46.87c2.85-1.35,4.25-4.45,6.28-7.26c-3.84,0.21-4.8,3.79-6.74,5.41
	c-9.78,8.16-16.5,19.09-23.23,29.84c5.23-45.34,16.36-93.82,37.47-134.63l2.98,0.26c0.69,1.71,1.78,4.2,3.59,4.53
	c2.43,0.43,3.62-2.57,6.82-2.93c-0.34,2.53-3.08,3.42-3.37,4.86c-0.61,3.04,5.9,12.28,6.97,12.4c2.69,0.31,4.8-2.39,7.96-3.63
	c-0.36,3.06-3.44,4.8-5.99,7.77l9.56,15.51c1.34-0.37,2.85-2.21,3.49-2.67c1.17-0.85,2.37,0.41,1.41,1.52
	c-0.79,0.91-1.85,2.53-3.37,3.64c1.65,5.91,5.26,11.51,9.54,17.81c4.96-23.82,2.85-48.81-11.89-68.32
	c5.75-0.01,7.98,2.72,11.61,3.51c3.77,0.83,3.51-4.39,7.55-6.96l-1.16,11.15c6.36,2.51,12.24,5.19,17.32,9.38
	c2.21-2.23,2.59-5.1,5.01-5.91c1.5,3.22-1.35,6.65,0.46,8.94C180.12,979.34,183.76,980.42,186.08,981.28z"/>
<path class="st4" d="M566.45,260.63c1.89-1.51,4.15-0.21,4.62,1.25c0.43,1.34,0.49,3.4-0.86,4.42c-1.19,0.9-3.5,0.68-4.18-0.5
	C565.25,264.47,564.72,262.02,566.45,260.63z"/>
<g>
</g>
<g>
</g>
<g>
</g>
<g>
</g>
<g>
</g>
<g>
</g>
<g>
</g>
<g>
</g>
<g>
</g>
<g>
</g>
<g>
</g>
<g>
</g>
<g>
</g>
<g>
</g>
<g>
</g>
</svg>
