<?xml version='1.0' encoding='UTF-8'?>
<svg xmlns="http://www.w3.org/2000/svg" id="Layer_1" viewBox="0 0 1200 1200" xml:space="preserve" width="1200" height="1800">
<style type="text/css">
      .cls-1 {
        fill: #211945;
      }

      .cls-2 {
        fill: #3b4c5c;
      }

      .cls-3 {
        fill: #425060;
      }

      .cls-4 {
        fill: #724146;
      }

      .cls-5 {
        fill: #5e6773;
      }

      .cls-6 {
        fill: #647380;
      }

      .cls-7 {
        fill: #6e7e89;
      }

      .cls-8 {
        fill: #6e8592;
      }

      .cls-9 {
        fill: #c37356;
      }

      .cls-10 {
        fill: #c1765b;
      }

      .cls-11 {
        fill: #818c95;
      }

      .cls-12 {
        fill: #8fa4ab;
      }

      .cls-13 {
        fill: #94a9b0;
      }

      .cls-14 {
        fill: #d3a186;
      }

      .cls-15 {
        fill: #b2c3c4;
      }

      .cls-16 {
        fill: #c1e2dc;
      }

    </style>
<path class="cls-1" d="M1115.62,0H1200v1200H0v-124.22l1.12-2.34c182.75-0.04,365.7-0.07,548.86-0.11c3,0.21,5.67,0.99,8.02,2.34  l0.82-2.34c71.52-0.03,143.13-0.06,214.83-0.08l7.04,2.34l1.12-2.34l385.71,0.04c-18.15-8.47-36.06-17.22-53.74-26.26  c-0.76-348.36-0.93-696.87-0.5-1045.55L1115.62,0z" />
<path class="cls-8" d="M830.86,0l1.83,1.84c-39.78,110.54-79.8,220.96-120.05,331.27l-2.42,0.67c-0.14,1.08-0.55,1.15-1.23,0.26  l-1.38,2.27c-13.25,0-26.5,0.02-39.76,0.05l-0.16,21.59l-2.36,1.65l-2.56,2.15c-3.6,0.46-22.92,1.26-25,0.43  c-1.07-0.43-1.68-1.61-2.2-2.68l-2.02-1.25c-1.67-15.87-13.42,16.2-4.13,13.34l2.41,0.93l2.37,1.15c-0.31,3.3,0.12,6.44,1.29,9.44  l28.34-0.06l1.69,2.34c0.92,0.1,2.31,0.43,2.34,1.08c0.71,14.69,0.48,31.95-0.04,46.75c-0.25,7.02-0.57,13.42-2.36,20.28  c3.53-0.29,3.08,6.44-0.28,6.9c-2.62,10.14-5.85,20.12-9.7,29.92l-3.79,2.94c2.42,2.01-0.23,10.3-2.65,11.79l0.13,4.66  c-6.74,14.95-12.49,30.31-17.23,46.07l-3.64,3.08c-0.19,1.05-0.57,1.04-1.12,0.06c-2.9-2.37-4.13-5.95-3.7-10.75l0.14-35.78  c0.49-6.57-0.02-9.59-1.53-9.05l-0.7,54.91c-2.96,4.07-17.51,4.46-18.94-1.02l-0.15-26.43l-77.61-1.28  c-1.78-0.42-2.48-1.78-2.69-3.56l-0.4-40.32l-35.96-0.45l-1.7-2.36l-1.75-1.92C547.37,321.05,612.59,161.16,677.83,1.22L680.86,0  H830.86z" />
<path class="cls-12" d="M532.03,0l1.99,1.58c-2.56,13.45,6.63,12.08,7.37-0.11L543.75,0h137.11L483.91,482.83  c-0.2,1.07-0.63,1.12-1.27,0.2c-1.69,3.41-10.57,3.44-11.8-0.26c-0.94-0.27-2.17-0.87-2.08-1.63c6.69-19.59-5.59-18.44-5.93-0.33  l-2.33,1.98l-0.79,2.35l-43.59,0.12c-0.84,12.25-1.1,24.77-0.78,37.55c0.05,4.89-15.97,5.03-19.02,3.72  c-1.68-0.72-2.66-1.4-3.07-3.25l-0.44-98.06l2.32-4.22c-1.24-3.31-2.87-11.8,0.43-14.14c-0.55,0.06-1.09,0.06-1.56-0.1  c-2.27-0.78-0.88-42.87-0.42-47.58c-0.7-3.55,0.1-5.67,2.39-6.36l1.78-2.11c1.89,0.1,12.51-0.5,12.98-0.96  c1.1-1.08,0.61-17.3-0.15-20.19l0.85-0.9c-4.81,2.19-33.38,1.58-39.51,0.07c-1.65-0.41-3.01-1.44-4.2-2.62l-1.74-1.93  C410.55,216.55,455.12,108.89,499.7,1.19L502.73,0H532.03z" />
<path class="cls-8" d="M502.73,0L367.73,326.1c-27.53-1.52-55.35-3.88-82.86-6.82c-1.19-0.13-2.35-0.62-3.53-1.14  c-1.2-0.53-2.33-1.21-3.44-1.94c-0.46-2.35,0.43-5.16,2.68-8.42c6.62-25.95-12.94-12.05-7.85,5.05l-1.94,2.32  c-0.32,2.05-2.04,2.69-5.15,1.91l-0.44,8.52l-2.39,1.46c-6.28,3.54-16.07,3.36-22.46-0.09l-2.34-0.82l0.06-206.19  c-10.46-2.33-20.82-4.93-31.07-7.81c-1.06-10.43-1.44-20.95-1.12-31.57l-1.88,0.13l-0.76,27.93c-2.02,3.99-8.09,2.17-11,0.66  c-1.19,23.67-4.12,47.1-8.81,70.29c0,0-1.14,0.91-3.41,2.73l-1.58-0.33c-0.06-2.37-0.19-4.75-0.41-7.14l-2.22-1.32  c2.26-21.85,4.52-43.7,6.78-65.56l2.48-1.15c0.14-1.45,1.2-2.42,3.2-2.93L197.92,1.2l2.47-1.2H502.73z" />
<path class="cls-2" d="M184.75,105.65c1.08,0.05,1.17,0.43,0.31,1.13l-7.04,68.03c0.09,1.04-0.23,1.09-0.94,0.23l-0.81,2.35  l-106.39,0.32c-1.04,15.06-1.2,30.43-0.47,46.13l61.56-0.1l1.4,2.34c1.91,0.34,3.9,1.01,5.95,2.01c3.87-3.73,6.55-4.41,8.04-2.04  c7.91-3.22,17.99-3.2,25.77,0.2c0.51,0.83,0.99,1.68,1.31,2.58c1.16,3.25-2.27,29.96-3.27,35.95c-0.29,1.78-1.44,3.29-2.53,4.68  c3.67,1.53,2.52,10.85-1.26,11.72l1.89,3.49c-10.48,76.89-20.96,153.79-31.45,230.7c-0.44,1.65-1.48,3.12-2.91,3.96l2.03,2.18  c-1.49,5.31-2.34,10.7-2.53,16.14l-2.13,1.97c0.35,3.03-0.55,3-2.13,0.44c-0.1,0.92-0.44,2.32-1.08,2.34  c-18.73,0.64-42.5,1.08-61-0.23c-3.95,0.75-6.35-0.04-7.2-2.37l-1.12-1.16c7.52-17.47-8.05-19.22-3.89-1.63l-1.09,2.73l-1.06,2.35  c-17.09,0.15-34.19,0.31-51.3,0.46L0,540.23V401.95l0.98-2.38l29.17-0.89c0.67-15.26,0.66-30.34-0.05-45.27l-28.48-0.65L0,350.39  V226.17l4.62-2.26l25.85,0.02c0.13-15.43,0.08-30.82-0.17-46.19L1.65,177L0,174.61V69.14L1.25,67  c60.84,12.02,121.68,24.05,182.54,36.07L184.75,105.65z" />
<path class="cls-9" d="M1115.62,0l-0.17,1045.77l62.63,29.86l-397.39-0.04c-8.56-3.53-16.97-7.55-25.24-12.04  c-25.97-8.81-52.82-14.66-80.54-17.55l-3.25-2.98c-1.2,1.83-3.43,2.67-6.68,2.5l-12.3,3.12l-2.19-2.06l1.13-3.27  c51.42-49.64,78.76-113.76,79.22-185.23l2.57-6.1c4.58-5.22,11.92-7.96,18.8-7.15c3.12,2.48,3.08,16.52,1.75,19.63  c-0.53,1.24-1.59,2.07-2.75,2.69c3.08-0.19,6.44,6.11,3.57,8.07l0.32,2.59c-3.41,3.98-4.85,9.05-4.32,15.22l-2.66,4.78  c0.51,0.85,0.97,1.72,1.27,2.64c0.3,0.89,0.55,1.74,0.46,2.54c-2.49,21.13-13.02,51.17-21.78,70.79l-3.8,3.66  c2.18,0.62,2.16,1.57-0.08,2.05l-0.27,2.82c-5.43,4.68-9.66,10.59-12.68,17.72c-1.87,2.41-4.07,4.17-6.58,5.26  c1.99,3.68-2.59,7.63-6.24,8.39c-0.2,3.39-3.67,6.32-7.01,6.92l0.37,2.93l-9.89,8.62l397.72,0.17l0.91-0.43L1080.47,1.48l2.34-1.48  H1115.62z" />
<path class="cls-13" d="M960.94,0l1.98,1.5c-11.94,36.73-23.89,73.47-35.84,110.22l-2.67,0.64c-0.05,1.04-0.44,1.05-1.13,0.18  l-1.76,2.35l-80.8,0.2l0.44,27.68l69.28,0.38l1.4,2.35c0.87,0.28,2.14,0.96,1.97,1.51c-10.55,34.26-22.48,70.44-34.57,104.35  c-0.81,5.17-2.88,8.93-6.2,11.27c0.39,2.19-0.29,4.68-2.03,7.5l-0.96,7.57l-2.36,1.25c-6.33,25.34-14.6,50.52-23.06,75.32  c-0.36,1.07-1.1,2.02-1.86,3c-0.77,0.99-1.68,1.87-2.62,2.73l-0.01,0.84l-2.92,2.16c-2.97,0.51-14.77,0.01-15.5-3.34l-2.35-1.02  l-0.09-22.08l-22.59-0.42c-1.86-2.21-2.79-3.32-2.79-3.32l-0.13-35.65c-1.44-2.28-2.17-0.1-2.19,6.54l1.57,26.38  c-0.05,3.64-1.03,5-4.67,5.78c-4.96,1.07-23.26,1.1-28.16-0.04c-1.39-0.32-2.4-1.61-3.3-2.76l-1.88-1.79  c36.01-110.2,72.11-220.39,108.32-330.56L866.02,0H960.94z" />
<path class="cls-2" d="M124.17,580.23l2.14,1.44c-4.88,30.28-9.76,60.58-14.64,90.88l-2.54,1.01c-0.16,1.05-0.53,1.05-1.09,0.09  l-0.78,2.35l-38.02,0.22l0.14,32.8l31.04,0.18l1.67,2.35c0.49,1,0.93,2.02,1.22,3.08c0.27,1.01,0.48,2.01,0.4,2.99  c-0.77,10.03-2.65,22.91-7.67,31.23l-1.02,2.35l-34.58,0.3l-2.92,2.05c-0.01,0.95-0.26,1.94-1.11,2.43  c-5.94,3.42-7.63,9.83-2.78,14.77c1.8-0.69,3.36-0.5,4.68,0.57l2.35,0.79c0.13,28.6,0.2,42.89,0.2,42.89l-2.34,1.4  c-1.2,2.58-2.43,5.19-3.71,7.83c-1.2,5.71,2.3,15.76,6.11,5.61l2.47-1.15c0.4-0.45,0.77-0.4,1.12,0.11  c4.04-3.08,12.35-3.23,16.32-0.01c0.86,0.4,2.15,1.02,2.08,1.74c-0.58,6.53-4.12,31.41-6.15,36.35l-2.6,1.3l1.21,2.17  c-2.02,12.46-4.08,25.02-6.17,37.65l-2.56,3.64c0.3,1.98,0.68,3.89,1.15,5.73c-6.43,31.76-12.9,63.49-19.42,95.18l-2.58,0.92  c-1.37,3.94-10.01,3.61-11.67,0.01l-2.34-0.8c0.25-16.38,0.12-32.66-0.38-48.84c-5.13,0.76-8.57-0.13-10.31-2.68  c-1.75,0.02-3.33-1.35-4.73-4.11c-2.32,1.61-4.61,2.98-6.88,4.11c-2.67,3.44-6.91,3.35-9.48-0.22v-39.84l1.05-2.35l31.2-0.07  c-0.06-31.43-0.09-47.14-0.09-47.14l-30.51-0.79L0,868.36v-38.67l1.32-2.36l23.1-0.32c0.81-20.99,0.25-41.87-1.68-62.66  c4.43-10.57,2.5-15.03-5.78-13.37l-15.08,0.34L0,748.83v-37.5l6.45-2.06l24.22-0.3l-0.52-8.07l2.3-3.46l-2.12-1.64  c1.42-4.47,1.65-8.79,0.7-12.96l1.58-2.09l-2.34-1.09l-0.01-61.03l-28.61-0.98L0,615.23v-35.16c33.49-3.95,67.7-3.36,101.46-2.51  C109.09,577.76,116.66,578.95,124.17,580.23z" />
<path class="cls-9" d="M527.22,1034.54c1.9-4.54,9.56,2.34,6.95,5.8c2.76,2.34-0.13,6.7-3.36,7.43c-2.81,4.41-3.07,8.17-0.8,11.27  c8.47,5.21,17.69,9.41,27.64,12.59c2.17,1.08,2.31,2.44,0.35,4.05L0,1075.78v-41.02l1.12-2.34c173.81-0.08,347.7-0.15,521.67-0.23  C524.46,1032.55,526.13,1033.21,527.22,1034.54z" />
<path class="cls-3" d="M1082.81,0l0.05,1034.66l-406.02-0.18c4.1-6.09,10.16-9.28,14.56-13.9l3.78-2.34  c124.4,0.42,248.7,0.46,372.9,0.14L1067.58,1.48l2.34-1.48H1082.81z" />
<path class="cls-8" d="M194.53,0l2.26,1.02c-3.19,34.47-6.39,68.95-9.58,103.43l-2.46,1.2L0,69.14V0H194.53z" />
<path class="cls-12" d="M866.02,0L757,333.04c1.19,1.89,0.38,2.43-1.34,1l-1.38,2.13c-14.09,0.16-28.21,0.15-42.36-0.04l-1.7-2.35  L830.86,0H866.02z" />
<path class="cls-16" d="M1069.92,0l0.52,1021.16l-379.03-0.57c2.3-2.41,3.09-6.36,7.01-6.92l3.22-2.33  c85.62-0.15,171.22-0.27,256.79-0.38l1.46,2.34c0.42-3.42,4.76-3.33,5.55-0.08l0.82-2.34l93.33,0.31  c0.91-47.7,1.17-95.67,0.76-143.89l2.34-1.43l-2.34-1.08c0,0-0.01-16.67-0.02-50l2.34-1.4l-2.34-0.79c0,0,0-14.93,0.01-44.8  l2.34-1.38l-2.34-1.08c-0.01-17.96-0.02-35.92-0.03-53.89l2.34-1.41l-2.32-1.37l0.66-16.41c-6.01-3.97-5.76-13.95-0.59-18.62  c0.13-13.74,0.36-27.39,0.69-40.94l1.55-2.31c-0.92-0.1-2.29-0.4-2.35-1.05c-0.66-8.1-0.54-20.28-0.06-28.43  c-0.79-4.18-0.01-6.89,2.33-8.13c-0.91-0.25-2.19-0.61-2.34-1.38c-1.22-6.34-0.46-30.53,0.16-37.9l2.35-1.7  c-0.92-0.1-2.29-0.4-2.35-1.04c-0.44-5.41-1.07-31.84-0.07-35.63l2.34-1.7l-2.34-0.82c0.02-95.38,0.05-190.77,0.07-286.18l2.34-1.45  l-2.34-1.07c0,0-0.02-25.75-0.06-77.26l2.34-1.4c-0.91-0.11-2.27-0.39-2.35-1.05c-0.59-5-0.93-25.63-0.09-30.08l2.34-1.72  l-2.34-0.82c0.1-36.71,0.2-73.43,0.3-110.16l2.35-1.43H1069.92z" />
<path class="cls-8" d="M1006.64,0l2.33,0.83l-1.26,109.09c0,0,0.82,0.84,2.46,2.52l2.34,1.07l-0.05,29.28l48.84,0.13l1.37,2.34  l0.06,79.72l-0.6,2.51c-17.42,3.41-34.85,6.82-52.28,10.23l-1.81-2.03c-1.65-2.99-2.48-4.49-2.48-4.49  c1.13-24.28,1.59-48.54,1.39-72.78c-1,24.97-1.82,49.95-2.46,74.95c0.55,0.91,1.64,2.06,3.25,3.46l2.31,0.9  c-3.36,91.48-6.71,182.97-10.07,274.47l-2.4,1.36c-0.95,3.38-4.28,3.44-5.19,0l-2.31-0.9l9.68-272c-5.6,1.74-10.99,2.23-16.16,1.46  l-1.35-2.48l-0.85-20.28l-1.79-0.2l-0.63,23.1c0,0-0.89,0.99-2.68,2.98l-101.46,19.38l-1.83-2.04l38.8-117.13  c0.11-1.08,0.51-1.16,1.2-0.28l1.75-2.34c22.59,0,45.18,0,67.77-0.01l1.4,2.34l1.6,0.34c2.65,6.23,2.75,6.17,5.78,0.93  c0.53-0.92,1.57-1.18,2.6-1.12c0.97-2.44,3.75-3.29,8.34-2.57l0.16-28.11c-2.74,0.51-4.88,0.19-6.41-0.95  c-0.32,3.12-1.41,2.9-2.18-0.11l-7.29,2.06c-19.63,0.3-39.14-0.22-58.55-1.56l-3.6-1.75L960.94,0H1006.64z" />
<path class="cls-3" d="M512.06,1020.78l2.49-0.99c4.38,3.66,8.24,7.83,11.6,12.51c2.92-1.53,3.47,0.17,1.08,2.24L0,1034.77v-14.06  l1.12-2.34c169.18-0.07,338.41,0.02,507.7,0.25L512.06,1020.78z" />
<path class="cls-8" d="M1062.89,0l-0.31,112.4l-0.09,1.56c-16.32,0.89-32.96,1.12-49.9,0.68l-1.37-2.35l-2.33-0.84  c0.42-36.68,0.84-73.36,1.25-110.06l2.36-1.4H1062.89z" />
<path class="cls-10" d="M53.78,539.75c-0.35-3.5,5.49-3.24,6.09,0.06l69.28,0.26c0.55,0.9,1.07,1.81,1.42,2.78  c1.56,4.27-1.92,31.05-4.42,34.96c-0.56,0.87-1.25,1.66-1.97,2.42c-41.74-0.72-83.22-0.66-124.17-0.15v-39.84L53.78,539.75z" />
<path class="cls-16" d="M267.02,1013.29l1.78-2.34c24.34,0.04,48.69,0.09,73.05,0.13l1.41,2.35l0.81-2.34c0,0,37.95-0.03,113.85-0.08  l1.43,2.34l2.12-2.34l38.61,0.09c1.46,0.12,2.79,0.9,3.99,2.35c2.34-5.26,10.3,3.56,7.98,7.34L0,1020.7v-7.03  c0.1-0.91,0.38-2.29,1.03-2.35c6.88-0.67,17.42-0.44,24.46-0.14c4.38-0.82,7.26-0.05,8.63,2.3c3.9-0.02,7.76,0.53,11.67-0.01  c1.13-3.56,4.19-3.29,5.64,0.06c0.66-3.55,9.81-3.58,10.73-0.05c4.58-2.32,9.29-2.35,13.89-0.06l2.12-2.35l42.23-0.1  c-0.08-10.77,12.52-10.62,10.16,0.66c38.79-1.38,77.73-1.09,116.58-0.74c3.31,0.03,6.62,0.41,9.94,0.81  C260.41,1012.11,263.72,1012.67,267.02,1013.29z" />
<path class="cls-10" d="M32.6,680.74l-0.78,1.38c-8.89-1.27-12.25,22.33-2.2,14.68l2.83,0.64c-0.55,4.2,1.87,8.81,0.01,13.82  c-10.98,0.64-21.9,0.68-32.46,0.07v-96.09l32.83,1.13L32.6,680.74z" />
<path class="cls-10" d="M0,829.69v-80.86c7.87,0.85,17.4-1.28,25.25,0.64c5.17,4.16-0.87,11.76-0.12,16.01  c3.65,20.53,0.57,43.05,1.78,63.84L0,829.69z" />
<polygon class="cls-5" points="0,921.09 0,868.36 34.72,869.25 34.76,921.01 " />
<path class="cls-10" d="M0,226.17v-51.56l32.87,0.87l-0.06,50.59C21.27,226.81,10.66,226.35,0,226.17z" />
<polygon class="cls-10" points="0,401.95 0,350.39 33.03,351.14 32.72,400.95 " />
<path class="cls-5" d="M9.48,961.16l2.07,1.51C9.18,976.9,17.5,975,18.5,962.43l2.59-1.27l13.1,0.43l-0.07,51.89L0,1013.67v-52.73  C3.16,961.16,6.32,961.29,9.48,961.16z" />
<path class="cls-13" d="M1012.5,0l-1.28,112.3c-0.08,1.05-0.43,1.08-1.04,0.15c-1.17,0.17-4.84,0.64-4.82-1.13L1006.64,0H1012.5z" />
<path class="cls-13" d="M200.39,0l-10,106.27c-1.93,0.99-3.68,0.44-5.33,0.52l-0.31-1.13L194.53,0H200.39z" />
<path class="cls-16" d="M543.75,0c0.17,4.64-1.93,14.12-7.97,13.45c-5.6-0.62-5.01-9.58-3.75-13.45H543.75z" />
<path class="cls-4" d="M780.69,1075.58l-222.7,0.09c1.89-4.05-31.03-8.65-31.94-19.37c-0.32-3.82,0.74-7.76,4.75-8.53  c4.71,4.31,7.06,6.46,7.06,6.46c41.82,11.75,83.33,9.27,125.63,1.35c3.55-0.66,10.69-6.15,6.75-10.14l1.4-2.42  C706.79,1049.68,749.5,1050.86,780.69,1075.58z" />
<path class="cls-2" d="M627.16,558.91c0.97,0.95,1.5,2.09,1.69,3.42c0.31,2.16-8.63,25.35-10.47,27.48l-2.47,0.9l-56.09,0.58  c0.57,7.92,0.82,16.56-2.91,23.77c3.09,5.93,4.63,8.89,4.63,8.89l39.26,0.62l1.34,2.37l1.83,1.82l-26.66,73.34  c-0.37,1.27-1.46,1.97-3.26,2.1c-0.02,1.05-0.34,1.04-0.94,0.1l-1.91,2.43l-9.51-0.02c0.1,11.07-0.66,22.02-2.28,32.88  c0.63,0.33,1.12,0.64,1.1,0.9c-1.09,11.8-2.61,22.55-7.74,33.55c-7.14,15-13.36,30.35-18.65,46.03l-3.08,2.69l-4.65,2.56  c-22.2-0.06-41.8,4.75-62.86,10.54c-1.72,0.47-3.52,0.03-5.2-0.45c-0.06,2.07-1.46,3.38-4.21,3.95  c-3.1,40.7,5.73,83.88,20.96,122.32l0.65,7.56l0.41,5.62c-4.62,12.43-9.25,24.87-13.87,37.32l-2.94,1.17l-116.1,0.08l-2.36-1.03  l-1.23-48.92l-50.99-0.27l-1.39-2.35c-0.84-0.33-2.06-1.03-1.9-1.59c2.74-9.38,8.68-23.8,13.22-32.3c-0.11-2.73,0.78-4.69,3.67-4.68  c-1.26-1.9-0.52-2.46,1.42-1.17l1.71-2.34l34.75-0.24l0.06-47.47l-13.79-0.66l-1.53-2.42l-1.86-1.64c15.34-37,30.68-74,46.03-111.02  l2.71-0.41l2.22-1.35c6.07,3.44,7.36-10.29,4.93-13.98l0.59-2.46c-1.47-4.27-0.67-9.09,2.39-14.48c1.25-5.2,3.7-8.28,7.34-9.25  l1.42-2.35l147.84-0.77l-0.07-30.6l-68.36,0.06l-1.4-2.34l-2.64-1.22c0.96-12.33-6.69-9.06-7.79,0.09l-2.42,1.07l-0.09,1.56  c-16.73,0.92-33.77,1.18-51.12,0.78l-1.37-2.34c-0.44-0.51-0.86-1.03-1.15-1.62c-0.53-1.05,6.33-19.81,7.67-22.07l2.74-1.78  c-0.48-2.22,0.41-2.33,1.32-0.16l2.22-2.34l122.77,0.2l-0.2-31.32l-108.11,0.23l-1.55-2.27c-0.85-0.33-2.07-1.1-1.87-1.63  c15.38-40.21,32.2-82.6,49.27-122.27c1.05-4.86,3.13-7.95,6.26-9.26l1.27-0.2l39.98,0.27l0.44,44.2l80.28,1.04l0.17,30.2l14.38,0.03  l0.59-57.01c0.01-1.36,5.05-1.39,5.71-0.42C627.15,520.34,623.58,540.4,627.16,558.91z" />
<path class="cls-5" d="M738.22,385.41l1.97,1.51c-19.27,58.64-38.55,117.29-57.83,175.94l-2.68,0.64l-2.45,14.13l-18.75,50.26  c0,0-1.47,2.02-4.42,6.05L651,634c-10.8-11.93-21.21-27.23-13.19-43.55c-11.9,0.93-22.7,1.77-23.79,15.98l-2.36,1.72  c-2.02,5.78-3.88,11.65-5.59,17.59l-2.62,0.91c0.68,2.17-0.21,2.36-1.32,0.28l-44.62-0.7c2.31-4.69-1.1-7.96-2.79-11.09  c3.27-7.54,3.69-16.72,2.45-26.38l59.79-0.41c3.35-9.82,8.42-19.27,10.19-29.45l1.12-0.06l1.7-2.3l32.72-0.53l0.09-85.9l2.35-9.72  l0.28-6.9l2.21-12.84c6.69-18.25,13.36-36.47,20.02-54.66l2.68-0.51c1.01-0.65,2.04-1.26,3.13-1.72c1.05-0.44,2.1-0.81,3.17-0.9  c8.13-0.66,32.19-1.35,38.39,0.96C736.14,384.25,737.19,384.81,738.22,385.41z" />
<path class="cls-12" d="M665.15,460.4l-0.11,98.23l-36.76,0.21c6.84-17.98,11.28-37.31,20.74-53.81c8.73,3.51,10.67-2.07,8.41-10.39  c-2.58,0.3-4.5-0.17-5.76-1.4C656.6,482.44,658.74,470.06,665.15,460.4z" />
<path class="cls-10" d="M665.32,359.61l3.03-2.01c9.05,1.57,18.11,2.07,27.21,1.49l2.98,1.91c0.82,0.57,1.72,1.23,1.95,2.18  c0.26,1.05-6.92,18.78-7.69,20.04l-2.44,1.3c-0.27,0.81-0.92,2.07-1.58,2.4c-0.96,0.48-20.58,1.24-21.54,0.75  c-0.91-0.46-1.41-1.36-1.75-2.28l-31.37,0.07c-2.84-4.3-2.15-8.61-2.32-12.93c-4.53-1.65-0.76-13.61,3.75-13.02  C645.32,361.25,655.6,358.54,665.32,359.61z" />
<path class="cls-5" d="M755.66,334.05l1.22,3.84l-6.15,20.03l-2.9,2.71l-0.79,2.34c-14.98-0.01-29.96-0.01-44.94-0.02l-1.38-2.34  c-2.37-1.93-2.57-4.94-0.58-9.03l6.03-16.13l2.82-1.4l1.23-0.26L755.66,334.05z" />
<path class="cls-2" d="M708.98,334.05c-2.26,9.06-7.74,17.26-8.27,26.56c0.41,3.11-0.72,3.15-2.18,0.4  c-10.71,1.98-22.25-0.19-33.22-1.4l0.2-25.68L708.98,334.05z" />
<path class="cls-2" d="M690.36,384.52c1.03,0.22,1,0.55-0.02,0.97l-24.92,68.01l0.06-68.11L690.36,384.52z" />
<path class="cls-15" d="M679.46,56.2c-7.08-2.24-3.54-23.93,5.42-22.47C692.36,34.96,687.97,57.3,679.46,56.2z" />
<path class="cls-15" d="M748.35,127.86c-7.66-1.71-3.28-23.44,5.3-21.78C760.98,107.5,757.16,129.83,748.35,127.86z" />
<path class="cls-15" d="M646.38,164.3c-7.53-1.36-3.09-22.34,4.94-20.73C658.22,144.96,654.31,165.73,646.38,164.3z" />
<path class="cls-15" d="M635.56,359.5c-2.1,4.02-3.92,8.42-3.75,13.02c-1.09,1.48-5.29,3.53-6.61,0.73  c-3.19-6.73-1.17-17.32,5.11-21.47c2.51-1.66,5.19,1.18,5.22,2.87C635.56,355.89,636.29,358.1,635.56,359.5z" />
<path class="cls-15" d="M632.34,476.24c-4.77-0.67-4.67-6.64-4.28-10.26c0.35-3.23,2.12-8.91,7.08-8.51  c5.15,0.42,5.11,6.46,4.74,10.64C639.62,471.11,637.48,476.96,632.34,476.24z" />
<path class="cls-15" d="M563.46,474.88c-7.31-1.77-2.9-20.21,4.95-18.51C575.49,457.9,570.85,476.67,563.46,474.88z" />
<path class="cls-15" d="M549.22,414.03c-4.25-0.86-4.35-6.72-3.84-10.1c0.43-2.82,2.12-7.91,6.57-7.83c5.1,0.09,5.4,5.55,4.84,9.83  C556.38,409.08,555.1,415.22,549.22,414.03z" />
<path class="cls-15" d="M649.02,505.04c-0.81-4.09,1.01-8.2,2.65-11.79c2.12-0.89,5.11-1.92,7.03-0.56  c3.13,2.21,2.65,13.56-2.25,15.57C653.94,509.28,649.61,508.04,649.02,505.04z" />
<path class="cls-15" d="M741.31,62.94c-4.26-0.35-4.83-5.65-4.74-8.32c0.11-3.13,0.99-8.33,5.31-8.51c4.77-0.2,5.34,4.99,5.19,8.34  C746.93,57.5,746.28,63.34,741.31,62.94z" />
<path class="cls-6" d="M395.98,352.81l-0.41,54.04c-3.88,4.08-7.54,8.86-5.46,15.17c1.78-1.48,3.45-1.82,5.03-1.03l0.46,103.08  c5.64,0.84,11,0.37,17.4,0.1l0.1-41.25l47.41-0.13c1.45-0.67,2.95-0.4,4.49,0.82c2.18-1.45,4.13-1.73,5.85-0.84l11.8,0.26  l-53.66,133.16c-0.22,1.06-0.62,1.09-1.21,0.15l-2.21,2.34l-131.73-0.27c-3.35-2.14-5.66-2.4-6.91-0.8  c-13.84,0.59-27.72,0.83-41.65,0.73l-1.4-2.33l-1.84-1.67c36.68-87.11,73.37-174.25,110.07-261.41l3.03-1.17  c0.12-1.05,0.48-1.08,1.07-0.15l3.37-2.24c11.19-0.49,22.35-0.3,33.48,0.58L395.98,352.81z" />
<path class="cls-14" d="M395.98,352.81c-12.95-2.51-26.47-0.61-39.77-1.2c-0.81-0.43-1.99-1.18-1.82-1.81  c0.62-2.27,7.38-21.08,8.43-21.58l2.66-0.77c-0.26-0.96,0.49-1.41,2.25-1.36c14.51,0.92,28.86,2.16,44.67,0.86  c2.26,8.66,0.86,15.87,0.97,25.06C407.65,351.91,401.36,353.86,395.98,352.81z" />
<path class="cls-16" d="M464.89,345.44c-6.19-0.68-5.77-7.7-5.6-11.96c0.16-4.09,2.2-10.82,8.31-10.12c5.39,0.62,5.06,7.84,4.98,12.28  C472.51,339.01,470.37,346.05,464.89,345.44z" />
<path class="cls-16" d="M470.84,482.78c-2.04,1.59-4.08,3.27-6.05,3.13c-1.35-0.1-3.87-1.73-4.29-3.11  c-0.23-7.01,1.39-19.28,9.23-18.13C476.2,466.52,471.63,477.65,470.84,482.78z" />
<path class="cls-16" d="M503.28,404.1c-6.52-2.36-4.33-19.48,2.75-20.19c6.49-0.66,5.99,7.3,5.45,11.07  C511.02,398.26,508.91,406.14,503.28,404.1z" />
<path class="cls-16" d="M577.41,169.81c-7.45-1.4-4.17-20.67,3.8-19.65C588.83,151.13,585.5,171.32,577.41,169.81z" />
<path class="cls-15" d="M455.63,320.39c-8.09-0.74-5.33-20.83,2.78-20C465.66,301.13,462.83,321.05,455.63,320.39z" />
<path class="cls-15" d="M557.47,204.25c-3.94-0.33-4.23-5.52-4.07-7.91c0.2-3.17,1.16-7.99,5.54-7.94c4.57,0.05,4.77,5.7,4.31,8.5  C562.84,199.37,561.33,204.57,557.47,204.25z" />
<path class="cls-15" d="M395.56,406.86c-0.03,4.44,2.48,9.49-0.43,14.14c-1.06,1.7-3.98,3.68-5.63,3.24  c-2.37-0.64-2.52-4.51-2.22-6.73C388.02,412.09,390.09,406.3,395.56,406.86z" />
<path class="cls-15" d="M457.99,208.09c-4.51-0.53-4.57-5.15-4.3-8.23c0.26-2.89,2.46-7.08,6.81-6.12c3.36,0.75,3.19,5.22,2.79,7.85  C462.94,204,462.02,208.56,457.99,208.09z" />
<path class="cls-16" d="M507.1,322c-4.94,0.99-4.88-4.77-4.89-7.22c-0.01-2.66,1.05-7.71,5.67-7.04  C513.07,308.49,512.69,320.88,507.1,322z" />
<path class="cls-16" d="M549.38,112.8c-3.83,0.25-3.85-5.53-3.68-7.69c0.2-2.55,2.12-7.87,6.4-6.33  C557.2,100.63,555.01,112.44,549.38,112.8z" />
<path class="cls-2" d="M240.35,326.95l-0.99,2.37l-35.14,0.89c-0.46,6.38-0.52,12.79-0.17,19.21c10.77-1.03,21.22-0.47,31.34,1.68  l0.98,2.97c3.5,0.6,5.68,2.28,6.54,5.04l-0.45,83.51l-2.35,1.41l-1.8,1.88c-6.94-2.12-8.89,18.01-1.03,13.29l2.5,1.25l1.6,2.82  c1.43,16.71,2.55,34.69,1.29,51.55c-0.07,0.95-0.49,1.87-0.95,2.82c-0.47,0.97-1.1,1.88-1.77,2.76l-2.25,1.81  c-8.6,1.37-1.13,18.58,1.1,3.7l2.6-0.77l0.97-2.36l17.85-0.63l0.48-75.69l0.74-2.34c2.88-1.31,3.28-2.87,1.18-4.65  c0.65-2.25,0.06-4.7-1.75-7.34l-0.67-77.95l2.33-1.43c4.8-1.92,7.2-2.88,7.2-2.88c25.95-1.2,52-0.89,77.97-0.39  c1.23,0.02,2.46,0.38,3.71,0.77c1.27,0.39,2.5,0.94,3.71,1.53L243.86,616.01c-3.07,3.59-4.01,8.07-2.82,13.43l-2.26,2.18l-2.12,10.9  l-43.69,102.05c-0.59,1.94-2.03,3.31-4.31,4.11c-0.19,1.07-0.62,1.13-1.28,0.23l-1.78,2.15c-27.45,0.21-54.92,0.26-82.42,0.14  l-1.41-2.34c-1.62-11.92,0.96-26.35,5.94-37.36c0.2-1.06,0.61-1.1,1.2-0.16l0.79-2.34l47.86,0.05c0.65-10.67,0.77-21.57,0.36-32.7  c-13.58-0.67-27.39-0.81-41.44-0.41l-1.73-2.33l-2.19-1.16c4.65-30.35,9.29-60.71,13.94-91.07l2.53-1.05  c0.05-1.06,0.41-1.09,1.04-0.18l1.05-2.35l29.11-0.09l-0.27-35.68l-16.61-0.72l-1.54-2.41l-1.14-2.59  c4.13-6.46,6.29-15.33-1.15-19.83l-2.21-1.12c10.37-76.49,20.75-153,31.12-229.52l2.52-1.11c0.49-1.73,1.59-3.47,3.31-5.2  c1.44-4.13,1.14-8.28-0.89-12.44c-0.89-0.33-2.19-0.83-2.21-1.57c-0.23-8.38,1.68-29.4,3.36-37.64l2.49-1.49  c1.39-14.31,1.89-28.76,1.5-43.35l1.52-0.74c8.2-22.1,5.63-48.78,10.74-74.37c3.05-0.72,6.69,0.88,10.3,0.94l0.63-29.57  c1.12-1.41,6.51-1.53,6.52,0.15l0.27,31.35l31.94,6.92L240.35,326.95z" />
<path class="cls-10" d="M240.35,326.95c7.34-0.19,15.12,0.06,22.46,0.09c0-0.91,0.25-2.32,0.82-2.34c26.59-0.72,55.67-0.48,82.44,0.35  c6.18,0.19,13.89,0.44,19.42,2.4l-9.27,24.16c-0.36-0.02-0.72,0.14-1.07,0.15c-30.88,0.38-62.03-1.64-92.59,0.98l-1.79,2.45  c-7.39-0.54-14.73-0.41-22.02,0.38l-2.37-1.51c-9.84-4.77-21.93-1.43-34.3-2.53c-0.99-7.3-0.41-15.23-0.41-23.61L240.35,326.95z" />
<path class="cls-3" d="M270.79,315.15c1.73-2.85,5.84-2.09,7.11,1.05c29.98,3.27,60.49,4.31,89.83,9.9c-0.69,0.3-1.46,1.36-2.25,1.36  l-102.67-0.42l0.36-10.83C263.24,313.92,267.79,314.89,270.79,315.15z" />
<path class="cls-15" d="M262.65,41.22c5.5,2.3,3.85,27.37-7.16,24.65c-8.66-2.14-5.27-20.32,1.1-23.94  C259.3,40.39,260.61,40.36,262.65,41.22z" />
<path class="cls-15" d="M277.9,316.2c-2.43-0.27-4.78-0.07-7.11-1.05c-1.81-7.96-1.6-25.34,9.51-23.87  C288.44,293.76,283.88,311.14,277.9,316.2z" />
<path class="cls-14" d="M180,182.28c0.45,6.7,2.85,44.41-3.01,44.09c-1.61,3.11-3.42,3.02-4.85-0.13l-1.55-0.24  c0.65-16.36,1.99-32.97,4.03-49.82l2.46-1.14c0.31,0,0.63-0.2,0.94-0.23C180.97,176.14,179.82,179.53,180,182.28z" />
<path class="cls-15" d="M358.12,36.72c-8.44-1.21-4.8-23.31,4.2-22.28C370.79,15.42,367.26,38.04,358.12,36.72z" />
<path class="cls-15" d="M344.95,210.3c-8.19-0.83-3.78-22.6,4.49-21.53C356.78,189.71,353.57,211.18,344.95,210.3z" />
<path class="cls-15" d="M334.87,145.17c-7.75-1.74-1.95-22.64,6.06-20.27C347.47,126.83,342.7,146.92,334.87,145.17z" />
<path class="cls-15" d="M372.57,57.78c-4.11-0.88-3.84-5.85-3.53-9.04c0.29-3.1,2.58-7.31,7.21-6.5c4.19,0.73,3.8,5.92,3.17,9.54  C378.97,54.29,377.4,58.82,372.57,57.78z" />
<path class="cls-15" d="M344.99,262.12c-6.18-1.58-4.34-15.4,1.69-16.02c5.22-0.54,5.17,5.6,4.63,8.43  C350.83,257.03,349.84,263.37,344.99,262.12z" />
<path class="cls-15" d="M292.52,260.49c-5.82-1.9-4.63-14.7,1.23-15.5c5.25-0.72,5.01,5.43,4.77,8.35  C298.32,255.81,297.14,261.99,292.52,260.49z" />
<path class="cls-10" d="M177.08,175.05l-4.95,51.2c-8.6,0.14-17.18,0.17-25.77-0.2c-2.58-0.69-3.24-3.77-1.99-9.27  c-1.73-9.15-6.61-3.15-8.86,2.86c-0.03,3.28-1.07,5.43-3.13,6.44l-65.55,0.11l-0.09-50.81L177.08,175.05z" />
<path class="cls-10" d="M64.5,463.82c-10.38,0.02-19.67,0.7-29.71-0.36l-0.3-49.19c8.62,1.92,14.58,1.14,18.94-6.27  c2.62,2.54,1.9,4.36,2.74,5.54c1.39,1.97,4.96,1.42,7.93,1.11L64.5,463.82z" />
<path class="cls-8" d="M170.93,284.72l-31.43,231.75c0.94,3.39-3.91,6.67-5.58,2.87l32.46-238.15  C169.38,279.73,171.27,281.64,170.93,284.72z" />
<path class="cls-10" d="M69.49,286.92c4.14,0.52,2.4,8.47-0.38,10.55c-6.63,0.1-13.12,2.3-20.05,0.51l0.31-35.83  c6.69-0.58,12.66-1.18,18.75,0.09C67.82,271.28,67.85,279.12,69.49,286.92z" />
<path class="cls-15" d="M139.51,516.46c6.36-1.23,7.38,4.77,7.14,10.16c-0.18,4.22-2.36,8.42-4.85,12.27  c0.66,3.57-6.26,5.79-6.72,1.55c-1.49,2.85-2.79,2.2-3.79-0.8c-1.12-6.96,1.71-13.48,2.64-20.3  C136.16,519.54,137.54,516.85,139.51,516.46z" />
<path class="cls-8" d="M176.99,226.37l-3.64,40.7c0.02,3.28-3.01,4.16-5.7,2.38c0.3-14.43,3.09-28.78,4.48-43.21  C173.71,226.22,175.44,226.29,176.99,226.37z" />
<path class="cls-15" d="M146.37,226.05c-2.73-0.12-4.99,3.72-7.08,4.26c-2.29,0.6-6.79-1.31-6.92-4.22  c-0.29-6.51,3.34-18.51,11.09-15.64C149.02,212.63,145.6,221.73,146.37,226.05z" />
<path class="cls-14" d="M131.29,539.63c1.25,0.22,2.59,0.37,3.79,0.8c0.88,0.36,2.19,0.94,2.15,1.65c-0.49,8.96-2.17,22.8-3.97,31.51  c0.27,3.69-0.8,5.87-3.19,6.54l-1.04,0.18c-0.52,3.44-3.98,3.22-4.86-0.08c2.15-13.31,4.39-26.77,4.98-40.16  C129.85,540.07,130.61,539.51,131.29,539.63z" />
<path class="cls-15" d="M88.49,332.1c-5.3-0.14-5.93-6.48-5.51-10.39c0.35-3.25,2.27-8.58,7.26-8.24c4.51,0.31,5.5,5.63,5.14,9.08  C95.02,325.99,93.57,332.24,88.49,332.1z" />
<path class="cls-13" d="M59.88,539.81l-6.09-0.06c-2.21-2.71-2.43-8.05-1.91-11.27c0.42-2.64,3.56-7.63,7.52-5.87  C65.88,525.5,63.02,534.81,59.88,539.81z" />
<path class="cls-15" d="M173.35,267.07c4.36,1.09,4.55,5.52,4.03,9.55c-0.49,3.85-2.22,7.6-6.45,8.09c-1.96-0.49-3.11-2.23-4.55-3.53  c0.48-3.55,1.19-8.2,1.26-11.72C169.44,268.4,171.26,267.34,173.35,267.07z" />
<path class="cls-13" d="M73.52,436.73c-4.39-0.84-4.09-5.9-3.69-9.21c0.29-2.4,2.39-6.49,6.26-6.1c3.97,0.4,4.45,4.91,4.12,7.91  C79.86,432.43,78.41,437.67,73.52,436.73z" />
<path class="cls-13" d="M84.03,144.46c-4.04-0.37-4.48-5.2-4.33-7.96c0.16-3.04,1.48-7.78,5.9-7.39c4.26,0.37,4.31,5.04,4.04,8.4  C89.44,139.92,88.21,144.83,84.03,144.46z" />
<path class="cls-13" d="M26.55,254.89c-4.21-0.47-4.12-5.22-4.04-8.12c0.08-2.74,1.62-6.25,5.71-6.11c3.88,0.13,4.18,4.2,4.08,7.14  C32.21,250.62,31.16,255.4,26.55,254.89z" />
<path class="cls-13" d="M69.11,297.48c-1.05-3.38,1.07-7.24,0.38-10.55c1.84-1.79,4.49-3.88,6.89-2.69c4.27,2.11,2.85,11.72-1.07,14.35  C72.9,300.19,70.88,297.74,69.11,297.48z" />
<path class="cls-13" d="M79.37,469.53c-3.71-0.72-3.56-5.36-3.16-8.21c0.3-2.16,2.12-5.49,5.8-4.99c3.5,0.48,3.56,4.28,3.29,7.11  C85.07,465.76,83.5,470.33,79.37,469.53z" />
<path class="cls-2" d="M992.41,513.56c0.01,1.02-0.28,1-0.85,0.06c0.06,0.55,0.07,1.09-0.09,1.56c-0.8,2.36-44.1,0.92-49.41,0.64  c-3.21,0.67-5.12-0.12-5.74-2.36c-1.56-0.64-3.05-1.85-4.45-3.62c-1.94,2.62-3.94,3.81-6,3.56l-1.02,2.36l-28.24,0.57l0.18,32.49  c29,1.18,58.41,1.48,88.21,0.9l5.35,2.21l2.16,2.95c0.37,12.09-0.52,24.02-2.68,35.81l-3.07,2.04c-0.1,0.93-0.43,2.32-1.08,2.34  c-24.54,0.76-51.5,0.76-76.06,0.03l-1.4-2.34c-3.75-0.11-7.23-0.48-10.45-1.11l-2.46-1.7c-4.35-17.34-14.74,16.46-1.64,11.15  l2.48,1.58l2.32,3.86c-0.6,7.37-0.28,14.53,0.95,21.49l48.7,0.37l1.37,2.35l1.95,2.06c-1.73,2.28-1.95,21.42,0.36,21.19  c1.73-0.17,6.63-17.75,5.63-21.25l2.24-2.41c8.08-3.95,18.83-3.89,26.95-0.03c0.79,9.14,1.52,18.32,1.02,27.5  c-5.98,109.63-13.95,218.95-23.11,328.36c-0.38,4.55-1.15,9.07-1.92,13.6c-0.77,4.53-1.71,9.04-2.69,13.53l-261.47,0.37  c1.68-2.61,4.07-5.96,6.24-8.39c2.08-1.7,3.9-2.4,5.43-2.09c15.54-5.92,31.01-12.14,45.73-19.91l4.76,0.13l2.48,1  c0.22,16.23,9.42,5.07,7.8-5.04l2.23-3.05l1.42-3.77c20.76-13.99,38.76-34.05,40.76-59.99l2.52-3.2  c-1.18-27.66-25.77-52.24-54.12-42.22l-3-1.27c-0.25,4.32-7.52,4.77-9.47,1.26c1.27-7.4,0.81-14.88,1-22.32  c-1.74-0.32-2.74-1.75-3-4.28c-6.22-8.93-48.91-13.24-61.23-14.34c-1.85-0.11-3.36-0.92-4.56-2.37l-1.9-1.75  c0,0,7.85-24.25,23.56-72.74l2.66-0.62c0.2-1.06,0.6-1.1,1.19-0.16l1.43-2.34l104.92-0.04c0.4-10.35,0.18-20.4-0.67-30.14  l-92.66-0.11l-1.41-2.35c-0.83-0.38-2.05-1.06-1.92-1.69c1.07-5.08,4.64-16.21,6.72-21.01l2.74-0.86  c9.93-2.94,9.38-11.48,7.84-19.97l-1.88-1.78c7.48-22.39,14.96-44.79,22.45-67.19l2.67-0.6c-2.71-1.71-0.24-10.05,2.74-11.04  l2.07-12.99c18.44-52.63,36.83-105.14,55.19-157.54l2.69-0.58l2.34,0.81c-0.39,54.81-0.24,109.45,0.45,163.93l40.73-0.09  c0.33-62.89,0.11-125.95-0.65-189.18l2.33-1.45c-0.35-4.14-0.79-8.36-1.33-12.67l2.18-2.14l-2.35-1.08  c-0.06-28.33-0.12-56.72-0.19-85.18l2.32-12.35c-0.01-5.77,0.82-13.12,5.35-16.32l103.64-19.8l0.57-24.92  c0.04-1.67,6.39-1.21,6.46,0.46l0.95,22.24c6.71,0.19,11.69-2.1,17.58-3.03L992.41,513.56z" />
<path class="cls-2" d="M796.96,908.1c2.39,27.57-16.92,43.82-38.29,57.67c-1.21,0.78-2.31,1.3-3.81,0.79  c-0.11,0.7-0.28,1.29-0.65,1.48c-8.76,4.42-18.59,8.48-28.26,10.24c-0.49,0.09-1.07-0.31-1.68-0.85  c9.17-26.05,20.89-51.06,23.85-79.63c4.09-10.88,20.24-18.16,31.54-15.88c8.4,1.7,15.89,6.42,18.66,14.81  C799.46,900.21,801.03,906.75,796.96,908.1z" />
<path class="cls-4" d="M710.09,1003.2c-1.22,1.55-3.31,2.56-5.43,2.09c7.41-8.25,9.64-20.98,19.53-25.8c2.17-1.4,4.86-2.29,8.04-2.66  c15.09-6.07,22.63-9.11,22.63-9.11l1.22,0.59l0.65-1.53c21.97-11.87,42.75-31.69,40.22-58.68c1.26-11.77-3.62-20.36-16.82-23.67  c-12.32-3.08-22.96,5.02-32.02,13.37c0.87-8.38-0.52-18.45,6.66-22.59c-0.04-0.54-0.02-1.05,0.21-1.42  c1.08-1.72,20.99-0.33,24.41,0.38c17.09,3.52,28.09,12.84,30.87,30.97C817.98,955.5,748.79,988.73,710.09,1003.2z" />
<path class="cls-1" d="M554.3,1046.49c4.64-1.64,14.28-0.37,19.36,1.01l3.1,2.65l7.26-1.79c16.49,1.07,33.05,0.72,49.48-1.08  l7.34,1.46c2.09-1.98,3.36-2.14,3.83-0.46c2.32-1.84,4.26-2.41,5.82-1.7c8.65-1,14.15-4.89,21.18-3.56  c1.39,2.81,3.47,6.12,1.05,8.77c-2.02,2.22-5.12,5.27-9.22,6.21c-40.02,9.18-83.17,8.87-123.11-0.48  c-5.74-1.34-10.26-5.03-9.56-9.76c0.36-2.76,2.23-4.93,3.36-7.43l2.69-1.05C542.92,1041.16,548.73,1043.56,554.3,1046.49z" />
<path class="cls-16" d="M588.12,820.36c1.18-3.66,9.66-3.69,10.87-0.04l4.07-1.41c23.98-0.3,48.53-0.44,72.52,1.86  c1.33,0.13,2.63,0.6,3.95,1.12c1.34,0.52,2.62,1.21,3.87,1.94c20.56,2.07,41.63,4.03,61.33,10.94c6.11,2.14,7.59,4.98,7.46,10.05  c-6.17,2.66-12.44,4.97-18.8,7.15c-0.69,3.34-2.17,3.39-3.22,0.21c-4.28,1.59-8.48-0.66-3.7-3.41c-0.29-1.04-0.31-2.49,0.53-2.81  c1.31-0.14,13.17-3.55,12.22-4.62c-1.88-2.12-12.56-5.11-16.16-6.07c-14.9-3.95-30.39-4.72-45.72-5.32l-3.56-2.48l-1.85,2.28  L605,827.3l-0.79,0.42l3.17,11.45l-1.82,2.22c-1.28,3.05-2.58,2.72-2.96-0.56c-5.17-2.91-9.89-8.51-12.99-13.44l-45.37,1.99  c0,0-2.08-0.66-6.23-1.97l-3.93,2.57c-23.33-0.23-45.9,3.01-67.71,9.73l-4.6-0.65c-3.29,1.82-5.63-0.45-3.44-3.64  c22.65-9.18,48.15-11.62,72.7-12.65l1.65-2.41c17.72-0.85,35.45-1.52,53.2-2.03L588.12,820.36z" />
<path class="cls-10" d="M760.67,865.89c1.93-0.18,2.96,1.04,3.08,3.66c28.02-8.2,53.4,11.17,54.04,39.82  c-0.88,29.69-20.78,51.33-44.7,66.96c-0.81,4.55-8.46,9.28-12.51,7.09c-15.82,8.45-32.92,16.64-50.49,19.77  c31.17-18.16,91.84-38.06,98-85.94c1.58-12.3-2.32-24.6-10.57-32.42c-14.05-13.32-44.48-8.63-42.75-9.62  c-1.16-2.47-3.07-5.38-3.57-8.07C753.98,867.01,757.96,867.16,760.67,865.89z" />
<path class="cls-4" d="M733.4,851.98c-2.55,83.43-23.26,136.64-82.92,194.6c-1.67,1.29-3.77,1.54-5.82,1.7l1.13-3.38  c46.8-50.56,77.01-114.74,77.48-184.32l2.34-6.44c-0.55-2.28,0.97-2.93,4.56-1.95C731.19,851.99,732.4,852.32,733.4,851.98z" />
<path class="cls-10" d="M754.87,966.56c2.67-1.6,3.13-0.72,1.22,1.74c-9.83,3.92-20.19,12.53-31.9,11.18c0.16-0.64-0.13-1.43,0.08-2.05  C733.9,973.32,745.83,971.89,754.87,966.56z" />
<path class="cls-8" d="M867.68,278.92l0.22,98.62l-0.55,1.5c-7.09,2.46-7.35,10.96-0.3,13.32l1.3,192.97l-46.68,0.11l0.17-167.09  c-3.42,0.21-3.51-3.67-0.28-4.63c1.68-8.63,3.78-17.16,6.31-25.6l3.08-2.63c0.21-1.07,0.63-1.12,1.27-0.19l1.6-2.38  c3.86,0.13,7.5,0,10.94-0.4l-0.03-18.66c-2.84-0.66-4.37-1.96-4.58-3.89C849.76,333.04,856.66,305.07,867.68,278.92z" />
<path class="cls-14" d="M840.13,360.8l1.01,2.52c-2.73,6.72-4.79,13.73-6.19,21.04l-2.74,0.92l-1.27,0.19  c-0.77,3.49-8.37,3.4-9.23-0.12l-3.93,2.27l-19.27-0.05l-4-2.05c-0.98,0.21-1.96,0.19-2.86-0.29c-1.97-1.05-3-15.06-3.18-18.09  c-7.61-3.78-8.52,13.58-0.64,15.5l-0.41,2.64c0,0.91-0.22,2.31-0.78,2.35c-12.96,0.72-30.44,0.92-43.29,0.09  c-2.86,0.62-4.56-0.16-5.12-2.33c-15.93,0.03-31.94-0.8-47.87,0.09l0.02-0.97c0.13-7.92,6.9-15.29,8.17-23.51l2.18-0.4l47.12,0.02  c4.57-3.6,13.15-3.93,17.6-0.22c-0.37-3.49,6.21-3.16,6.67,0.23l4.52-2.26c7.01-0.65,39.37-2.49,42.93-0.42  c0.78,0.45,1.48,1.05,2.15,1.68L840.13,360.8z" />
<path class="cls-6" d="M923.28,112.53c0.84,0.38,2.05,1.04,1.92,1.7c-1.07,5.67-6.98,25.17-9.43,30.06l-2.74,0.91l-1.2,0.28  l-73.3-0.4l-0.17-32.47L923.28,112.53z" />
<path class="cls-2" d="M993.84,113.61c-0.15,2.12-1.19,4.14-3.13,6.04c-2.53,3.21-4.31,17.41,1.34,11.19c3.5-3.86,4.4-9.59,2.77-14.47  l1.2-2.65c1.97-1.49,6.79-2.38,8.76-0.29l-0.18,31.64l-10.67,0.28c-1.53-1.37-2.82-3-3.86-4.9l-1.96,0.44  c-0.92,2.26-2.31,3.69-4.16,4.31l-70.92,0.01l10.25-32.67c0.37,0,0.75-0.2,1.13-0.18C947.59,113.7,971.04,112.48,993.84,113.61z" />
<path class="cls-7" d="M821.71,359.63c-16.16-1.03-33.09,1.57-49.6,1.01c-1.91-0.99-2.09-3.2-0.55-6.65  c-0.03-7.63-3.78-5.73-4.59,0.94c0.7,2.58,0.19,4.41-1.53,5.48c-5.86-0.2-11.72,0.22-17.6,0.22c1.49-9.12,5.06-17.76,7.83-26.58  c0.15-0.48,0.99-0.71,1.34-1c10.48,1.51,21.92,0.79,33.01,0.43c3.71-4.92-7.34-48.36,6.08-38.03l0.15,38.39l25.37,0.29  L821.71,359.63z" />
<path class="cls-10" d="M832.21,385.29c3.34-8.39,2.82-18.59,7.92-24.49c0.05-0.26-0.08-0.59,0.01-0.84l6.92,1.48l0.04,23.88  C841.68,385.75,836.85,384.58,832.21,385.29z" />
<path class="cls-16" d="M912.4,69.59c-6.55-1.75-2.79-22.16,5.38-19.9C923.93,51.39,920.79,71.84,912.4,69.59z" />
<path class="cls-16" d="M840.92,236.17c-5.03,0.46-3.86-6.92-3.52-9.8c0.34-2.84,2.76-8.91,7.3-7.15  C850.23,221.36,847.53,235.56,840.92,236.17z" />
<path class="cls-16" d="M853.38,87.24c-4.72-0.98-4.65-5.87-4.19-8.96c0.43-2.86,2.27-7.11,6.51-6.87c4.24,0.24,4.38,5.36,4.16,8.6  C859.69,82.67,857.36,88.06,853.38,87.24z" />
<path class="cls-10" d="M96.04,748.85l2.12,1.49C93.58,776.11,89,801.9,84.42,827.7l-2.56,0.99c-0.14,1.01-0.49,1.03-1.03,0.1  c-5.43,0.33-10.91,0.54-16.32,0.01l-1.18-1.56c-2.97,2.82-3.75-0.15-4.52-3.15l-0.29-7.7l-0.21-45.08l-2.32-1.62  c0.62-4.74,0.55-9.42-0.21-14.03l1.74-2.11c0.03-0.61-0.28-4.36,1.21-4.38L96.04,748.85z" />
<path class="cls-10" d="M108.04,673.65c0.9,0.12,2.26,0.52,2.22,1.09c-0.28,4.29-3.2,34.63-4.68,35.64c-0.75,0.52-1.62,0.82-2.5,1.06  c0.01,1.03-0.34,1.02-0.99,0.1l-35.19-0.2l-0.01-37.63L108.04,673.65z" />
<path class="cls-8" d="M70.08,917.54c0.75-0.14,1.67,3.02,1.7,3.52c0.35,5.79-5.81,31.52-7.48,38.51c-0.3,1.24-0.85,2-2.31,2.21  c-1.54,17.18-4.21,34.11-7.99,50.8l-2.57,0.95c-1.64,0.01-4.01-0.28-5.64-0.06l20.85-101.83C69.06,910.3,70.2,912.27,70.08,917.54z" />
<path class="cls-7" d="M129.03,580.31l-14.28,93.28c-0.48,3.39-4.85,3.26-5.62-0.03l15.04-93.33L129.03,580.31z" />
<path class="cls-11" d="M78.68,868.4c0.9,0.15,2.24,0.59,2.18,1.16c-1.13,10.98-3.57,27.99-6.27,38.45c0.14,3.6-0.97,5.58-3.34,5.93  c0.88,1.37,0.61,3.52-1.17,3.6c-3.11-0.52-0.86-4.79-3.44-5.9c0.53-14.72,5.08-29,7.53-43.47C75.66,865.26,77.5,865.47,78.68,868.4z  " />
<path class="cls-7" d="M86.61,828.87c0.44,0.94,0.84,1.89,1.08,2.88c0.9,3.65-2.76,25.27-3.95,30.91c-0.4,1.89-1.56,3.48-2.75,4.96  c1.17,3.06-0.54,3.43-2.31,0.78c-1.35,0.46-3.01-0.08-4.51-0.22l6.67-39.39c0.34-0.02,0.7-0.14,1.03-0.1  C83.53,825.71,85.17,825.78,86.61,828.87z" />
<path class="cls-15" d="M102.97,611.51c-7.82-1.72-3.69-23.27,4.92-21.67C116.08,591.35,111.61,613.41,102.97,611.51z" />
<path class="cls-7" d="M107.72,711.49c-1.43,12.51-3.77,24.94-5.94,37.36c-0.4,3.4-5.08,3.28-5.74,0c2.2-12.4,4.7-24.82,6.05-37.3  c0.14,0,0.45-0.1,0.99-0.1C103.56,708,106.91,708.23,107.72,711.49z" />
<path class="cls-15" d="M32.6,680.74c3.02,5.33,0.59,11.06-0.15,16.7c-2.16,1.97-4.85,4.14-7.29,3.5c-5.44-1.43-5.04-11.8-0.4-18.06  C26.29,680.8,29.46,679.65,32.6,680.74z" />
<path class="cls-14" d="M114.75,673.59l1.69,4.17c-2.09,9.92-3.75,19.9-4.96,29.95l-2.57,3.61l-1.2,0.16l-4.64-0.04l4.96-37.8  l1.09-0.09L114.75,673.59z" />
<path class="cls-15" d="M21.08,961.16c-0.87,4.97-1.82,14.55-8.21,13.69c-5.23-0.7-4.37-9.7-3.39-13.69c0.85-3.46,4.11-6.17,6.27-6.4  C19.57,954.35,19.87,958.48,21.08,961.16z" />
<path class="cls-15" d="M58.51,816.39c5.35,1.91,0.01,8.61,4.81,10.85l0.06,1.45c0.08,1.91-1.11,4.17-2.04,5.63  c-0.81,1.27-3.96,3.52-5.94,1.54C50.35,830.79,51.2,818.28,58.51,816.39z" />
<path class="cls-13" d="M57.51,753.54c2.25,5.51,0.76,11.87,0.79,17.77c-1.68,1.37-4.16,2.16-5.86,1.56  c-4.72-1.67-4.4-11.49-1.71-15.91C51.88,755.08,54.55,753.54,57.51,753.54z" />
<path class="cls-13" d="M48.79,714.81c-4.53-0.08-4.62-5.82-4.26-8.62c0.33-2.57,1.68-7.75,5.95-7.55c3.83,0.18,4.3,5.5,3.92,8.23  C54.04,709.57,53.22,714.89,48.79,714.81z" />
<path class="cls-10" d="M474.56,853.13c1.75,3.85,2.62,5.78,2.62,5.78c1.88,68.37,21.45,135.39,74.29,181.82l2.83,5.76  c-6.42-1.83-13.91-1.76-20.13-6.15c-1.67-1.74-3.94-5.65-6.95-5.8l-1.08-2.24c-44.09-49.17-64.95-111.23-64-178.55  C461.39,845.59,473.24,847.43,474.56,853.13z" />
<path class="cls-15" d="M76.88,49.48c-4.64-0.46-4.87-6.46-4.48-9.42c0.5-3.77,2.42-9.33,7.26-9c4.72,0.32,4.99,6.51,4.51,10.29  C83.8,44.23,81.78,49.96,76.88,49.48z" />
<path class="cls-15" d="M791.3,187c-7.79-1.9-4.55-20.48,2.9-20.84c5.3-0.26,5.46,7.89,4.98,11.15  C798.71,180.51,796.99,188.39,791.3,187z" />
<path class="cls-2" d="M1062.75,224.99l-0.07,288.44l-1.07,2.35c-20.86,0.04-41.74,0.08-62.62,0.13l-1.4-2.34l10.16-276.73  c-0.91-0.57-0.79-0.95,0.3-1.13L1062.75,224.99z" />
<path class="cls-2" d="M1062.7,865.88l-0.01,147.67l-97.25-0.33l-2.27-1c3.88-49.14,7.76-98.3,11.63-147.46l2.45-1.25l4.82-1.58  c23.73,1.65,47.53,2.02,71.41,1.09C1057.01,862.87,1060.19,863.2,1062.7,865.88z" />
<path class="cls-2" d="M1062.65,630.39c0.03,14.5,1.28,29.17-0.12,44.01c-4.88,4.89-5.04,12.83,0.48,16.97l-0.35,18.67l-1.38,2.34  l-42.83,0.08l0.43,50.54c13.87,0.97,28.02,1.33,42.44,1.06l1.37,2.35l-0.01,46.97l-1.09,2.34c-26.45-0.08-52.91-0.16-79.38-0.24  l-1.4-2.35l-2.29-0.95c0,0,3.49-60.15,10.48-180.44l2.42-1.29c0.04-1.06,0.41-1.1,1.07-0.21c0.1-0.93,0.44-2.32,1.09-2.34  c18.99-0.7,40.47-0.55,59.53,0.11C1058,627.18,1061.18,627.97,1062.65,630.39z" />
<path class="cls-5" d="M1062.68,813.4l0.02,52.49c-28.55-2.29-57.89,2.72-85.44-2.36l-2.28-0.95c0,0,1.13-16.07,3.4-48.21l2.44-1.21  L1062.68,813.4z" />
<polygon class="cls-10" points="1062.66,710.05 1062.69,766.42 1016.56,766.07 1016.09,709.91 " />
<path class="cls-10" d="M1062.57,592.78l0.08,37.6l-70.16-0.13l-2.59-2.86c0.15-10.59,0.95-21.15,2.39-31.67l2.47-2.8l1.07-2.35  c21.78-0.05,43.56-0.09,65.35-0.14L1062.57,592.78z" />
<path class="cls-10" d="M1062.68,513.44l0.07,38.37l-1.08,2.34c-21.45-0.02-42.91-0.04-64.38-0.06l-1.4-2.35  c-3.29-12.05-2.39-26.38,1.71-38.17L1062.68,513.44z" />
<path class="cls-2" d="M1062.75,551.81l-0.18,40.98l-67.81,0.14l-2.32-0.85c0.36-13.01,0.71-26.01,1.07-39.02l2.38-1.31  L1062.75,551.81z" />
<path class="cls-8" d="M991.42,630.47l-10.61,182.68l-3.55,50.38l-11.81,149.7l-5.55,0.08c10.59-127.53,21.54-255.14,26.7-382.99  C986.94,626.85,990.69,627.19,991.42,630.47z" />
<polygon class="cls-2" points="1062.58,112.4 1062.68,145.27 1010.12,145.29 1010.18,112.45 1011.22,112.3 " />
<path class="cls-13" d="M1008.05,235.7c0.02,0.38-0.29,0.76-0.3,1.13l-6.1,0.65c4.24-31.16-1.96-62.99,5.76-94.92  C1013.01,174.65,1006.8,205.51,1008.05,235.7z" />
<path class="cls-15" d="M993.84,113.61l2.18,0.11c4.48,6.28,0.98,21.46-8.08,21.04C983.5,129.48,987.24,116.05,993.84,113.61z" />
<path class="cls-14" d="M458.35,835.41c0.64,1.61,2.16,2.55,3.44,3.64c2.21,1.56,4.54,3.2,6.99,4.91l13.55,2.88l1.66,2.89  c6.75-0.38,13.5-0.44,20.23-0.19l1.87,2.56l16.71-0.31c53.6,5.81,107.78,5.86,161.37,0.01l16.71,0.32l1.4-2.51l16.1,0.09  c0.15-3.98,6.2-3.58,8.1-0.91c-0.27,1.18,0.17,2.34,0.93,2.68c1.04,0.47,2.02,0.65,2.77,0.73c-1.42,0.28-3.08,2.04-4.56,1.95  l-2.02,2.3l-14.79,2.28l-2.4-2.02l-5.3,2.22c-52.69,7.52-106.88,7.51-159.89,3.42l-5.43-1.85l-1.69,2.24l-21.89-1.68l-1.38-2.35  c-0.66,3.73-9.56,2.69-10.16-1.05l-1.91,1.99l-22.88-4.02l-1.3-2.49c-3.08-0.29-6.52-3.94-10.15-2.38  c1.93,123.16,45.9,148.67,61.73,181.55l-14.08-11.52c-2.62-2.14-3.58-7.33-7.98-7.34l-3.73-1.81l-19.86-28.81  c-3.57-4.22-5.15-8.75-4.74-13.59c-16.98-38.78-24.98-80.12-24.82-123.07c0.01-3.02-0.55-5.17,1.09-7.84  C453.21,836.4,455.98,836.37,458.35,835.41z" />
<path class="cls-11" d="M286.13,961.19l1.93,1.55c-6.03,16.45-12.06,32.91-18.1,49.37l-2.93,1.19c-46.41-0.08-92.65-0.58-139.28,0.24  c0.34-2.37,1.51-4.77,0.92-6.18c-0.9-2.14-3.04-2.6-4.46-1.27c-1.85,1.73-1.22,4.22,0.23,7.22l-48.38,0.11l-1.77-1.88  c6.51-16.13,13.05-32.25,19.63-48.36l3.28-1.96c-0.08-1.06,0.27-1.14,1.04-0.33l2.22-2.34c61.43,0.1,122.84,0.2,184.25,0.3  L286.13,961.19z" />
<path class="cls-5" d="M343.26,1013.43l-76.24-0.14l19.1-52.1c0.05-1.08,0.44-1.17,1.16-0.33l54.97,0.29L343.26,1013.43z" />
<path class="cls-2" d="M114.57,921.52c0.84,0.35,2.05,1.09,1.86,1.63c-3.1,9.08-9.15,24.61-13.61,32.78  c-0.58,2.99-2.11,4.64-4.59,4.96l-1.04,0.33l-2.59,3.04c-9.89,0.61-19.81,0.38-29.76-0.7l-0.32,48.55l-2.35,1.38l-10.73,0.05  l18.65-95.98c0.23-1.19,0.96-2.32,1.17-3.6c2.34-2.34,3.63-0.74,3.87,4.8l38.1,0.41L114.57,921.52z" />
<path class="cls-5" d="M97.19,961.21l-21.14,52.21c-4.64,0.01-9.23,0.04-13.89,0.06l0.32-52.21  C74.54,960.69,86.98,964.45,97.19,961.21z" />
<path class="cls-5" d="M504.08,1013.45l-44.73-0.1l16.4-44.11C482.83,985.4,495.78,998.24,504.08,1013.45z" />
<path class="cls-6" d="M238.78,631.62l2.37,0.95l0.43,17.02l169.5-0.09l1.45,2.34c-1.45,8.96-6.82,16.72-9.26,25.46  c-0.14,1.07-0.54,1.14-1.21,0.26l-2.22,2.34l-158.29-0.14l0.05,30.57l146.16-0.28l1.44,2.34c1,0.05,0.97,0.4,0.06,0.99  c-4.63,7.07-7.32,15.61-9.73,23.73c-3.5,2.84-5.55,6.43-6.16,10.76c1.14,3.52,0.61,5.86-1.59,7.04l-46.88,113.07  c0.47,2.2-0.41,2.37-1.35,0.25c-5.18,1.52-7.77,2.27-7.77,2.27c-46.47-2.51-92.94-3.7-139.42-3.57l-30.37,2.45l-7.87-1.3  c-0.35-0.94-0.64-1.89-0.78-2.87c-0.67-4.77,9.74-29.87,13.57-32.82c0.78-0.6,1.65-1.07,2.56-1.5c0.52-1.18,1.91-1.58,4.19-1.19  l1.99-0.85c2.17-3.23,9.18-3.45,11.2-0.01c19,1.15,38.06,1.49,57.16,1.02l1.56,1.27l1.6,2.04c-7.6,25.57,10.57,15.84,5.01-1.76  l1.64-2.44l1.09-2.34l91.92-0.31l-0.02-75.24l-21.9-0.32c-38.2-3.77-76.2-4.01-114.01-0.7l-6.22-1.36L238.78,631.62z" />
<path class="cls-11" d="M323.54,868.22c0.45,0.71,0.86,1.43,1.12,2.2c1.54,4.55-14.11,40.75-17.54,47.91l-3.43,2.78l-1.42,1.17  c-2.22,1.43-3.53,3.19-3.91,5.3c-3.64,4.13-7.9,1.33-8.6-3.87l-172.49-0.09l-1.43-2.34c-0.82-0.43-1.99-1.25-1.78-1.86  c4.63-13.58,11.12-29.52,16.97-42.68c0.91-4.22,2.87-7.04,5.9-8.48c0.19-1.06,0.59-1.11,1.19-0.18  C198.67,859.18,261.69,868.01,323.54,868.22z" />
<path class="cls-6" d="M302.27,922.29l-14.99,38.57l-1.16,0.33l-187.9-0.31l16.34-39.36c0.18-1.08,0.6-1.14,1.27-0.24l176.14,0.1  c1.27,0,0.08,5.53,1.32,5.61l2.47,0.16c1.07,0.07,2.98-2.09-1.07-2.78C296.49,922.58,299.53,921.22,302.27,922.29z" />
<path class="cls-14" d="M427.77,616.34c0.76,0.57,1.89,1.45,1.68,2.14c-2.35,7.61-7.34,20.72-10.89,27.67  c-0.59,3.35-2.16,5.19-4.7,5.54l-1.32,0.16l-173.23,0.15l-0.52-20.37c-0.18-7.07-1.88-16.38,5.08-15.61l41.44-0.33  c1.53-0.02,2.94-2.96,4.7-2.79c0.96,0.1,1.57,3.17,3.07,3.17L427.77,616.34z" />
<path class="cls-10" d="M455.85,677.31c1.5-0.43,3.2,0.36,5.12,2.36c3.43-3.46,6-4.23,7.73-2.3l72.33-0.06l-0.18,35.44l-151.59,0.63  c0.04-0.31-0.16-0.7-0.06-0.99c-0.85-0.32-2.08-0.99-1.92-1.56c2.18-7.8,6.49-18.86,9.73-26.37c0.69-4,2.37-6.3,5.05-6.9l1.21-0.26  L455.85,677.31z" />
<path class="cls-10" d="M413.85,651.68l13.91-35.34l1.21-0.15c4.02-0.49,99.62-0.26,111.99-0.45L541.2,652L413.85,651.68z" />
<path class="cls-5" d="M573.11,704.29l1.95,1.53l-11.17,32.3l28.56,1.14l1.61,2.41l-0.46,3.87c-18.07,19.74-17.35,48.44-4.95,71.01  l-0.53,3.82l-57.07,2.39c6.23-27.49,26.09-52.67,27.05-80.25l1.33-37.99C563.44,703.42,569.08,704.72,573.11,704.29z" />
<path class="cls-6" d="M617.38,626.88c3.39-2.37,7.7,5.48,5.88,8.59c0.67,3.88-8.76,5.16-11.24,4.76c0.21,0.48,0.38,0.95,0.34,1.41  c-0.37,5.63-1.25,32.51,0.32,35.29c0.35,0.62,13.21,1.93,13.86,0.26l0.54-32.13l2.37-1.65c6.34-1.04,11.18,9.51,13.48,14.93  c2.81,4.7,3.39,8.68,1.74,11.91c-1.8,9.77-4.26,19.43-7.38,28.98c-1.56,3.41-5.51,9.96-9.03,9.68c-1.23-0.42-2.08-1.2-2.58-2.34  l-50.26-0.02l-1.38-2.34l28.09-77.26l1.32-0.28C604.96,622.27,615.01,623.53,617.38,626.88z" />
<path class="cls-11" d="M628.27,708.9c1.28,0.56,0.94,2.07-1.01,4.52c-0.24,0.98-0.51,1.95-0.93,2.85c-1.65,3.5-21.9,19.78-26.97,23.6  c-1.52,1.14-3.46,1.51-5.29,1.81l-33.68-1.34l12.72-36.03l0.94-0.1l53.03,0.02C628.75,704.21,628.75,707.8,628.27,708.9z" />
<path class="cls-10" d="M437.33,802.36l-1.85-1.81c1.25-8.95-5.63-7.37-5.36,0.91l-2.36,1.1l-18.6-0.4l-0.11-51.5l34.71-0.26  l0.31,51.38L437.33,802.36z" />
<path class="cls-5" d="M303.69,921.11c5.83-17.94,16.05-34.48,19.85-52.89c0.44,0,0.92-0.27,1.35-0.25l17.82,0.85l-0.22,52.28  L303.69,921.11z" />
<path class="cls-5" d="M576.18,679.39l-18.52,0.17l0.21-40.69L577,639.6C575.91,652.86,576.08,665.12,576.18,679.39z" />
<path class="cls-15" d="M353.52,1003.52c-8.61-2.41-3.41-26.04,6.17-23.91C368.37,981.54,364.05,1006.46,353.52,1003.52z" />
<path class="cls-13" d="M413.49,880.73c-6.1-0.02-5.28-8.66-4.67-12c0.59-3.25,3.15-10.64,8.63-8.81  C424.45,862.26,422.17,880.76,413.49,880.73z" />
<path class="cls-15" d="M379.52,737.11c5.17,2.63,3.09,18.69-2.88,19.52c-1.55,0.22-3.37-0.66-4.87-1.72  c0.12-3.42-1.72-7.3-0.07-11.16C373.06,740.6,374.93,736.64,379.52,737.11z" />
<path class="cls-13" d="M434.22,745.57c-4.64-0.19-4.86-6.42-4.39-9.33c0.57-3.59,2.33-8.32,7.02-7.74c3.99,0.49,3.79,6.09,3.55,8.98  C440.17,740.18,438.6,745.76,434.22,745.57z" />
<path class="cls-13" d="M468.69,677.37c-2.56,0.34-4.75,4.03-6.92,4.52c-3.09,0.69-4.65-2.2-5.93-4.58c0.13-3.01,0.72-6.01,2.66-8.58  c1.36-1.8,4.5-4.24,7.4-2.29C469.32,668.74,467.61,674.06,468.69,677.37z" />
<path class="cls-13" d="M517.09,764.79c-5.73-1.54-4.07-15,1.73-15.39c4.55-0.31,4.46,5.37,4.13,7.73  C522.61,759.59,521.95,766.09,517.09,764.79z" />
<path class="cls-13" d="M424.61,992.47c-3.98-0.54-3.52-5.51-3.19-8.31c0.27-2.31,1.55-6.32,5.21-6.29c4.13,0.03,4.12,4.48,4.14,7.15  C430.78,988.3,429.82,993.18,424.61,992.47z" />
<path class="cls-15" d="M437.33,802.36c-1.34,3.21-2.6,5.06-5.45,4.86c-2.37-0.16-3.59-2.33-4.12-4.67c0.01-3.79,0.29-7.17,2.81-9.24  c2.17-1.78,5.38-1.59,6.65,1.39C438.29,797.17,438.33,799.97,437.33,802.36z" />
<path class="cls-15" d="M412.04,843.35c-3.9-0.63-3.81-5.16-3.47-7.77c0.35-2.69,2.19-6.74,5.99-6.27c3.84,0.47,3.87,4.82,3.53,7.84  C417.81,839.59,416.36,844.05,412.04,843.35z" />
<path class="cls-13" d="M542.5,563.93c-4.07-0.28-3.04-6.16-2.67-8.42c0.35-2.17,2.54-7,6.45-5.19  C550.5,552.26,548.01,564.3,542.5,563.93z" />
<path class="cls-7" d="M787.41,385.3c1.77-1.06,2.91-0.19,3.41,2.63c0.98-1.4,2.21-2.2,3.69-2.39c9.01-0.88,18.16-0.3,27.21-0.18  l2.34,1.35c0.6,9.16-0.23,18.16-2.49,27l0.28,4.63l-59.94,171.11l-2.36-0.99l-0.31-22.32c-0.43-0.62-14.81-0.43-15.14,0.25  c-0.67,1.41-0.54,29.88,0.08,31.32l13.45,0.39l1.54,2.39l-23.24,69.57l-0.45,1.53c-6.38,2.82-7.91,9.66-5.61,15.93l-1.78,2.52  l-7.53,23.57l-1.66,2.36l-22.69,0.29l0.37,29.8l9.65,0.29l1.53,2.39l-24.33,75.11c-28.03-2.82-56.28-2.38-84.42-3.5  c-3.74-2.03-4.31-8.74-1.34-11.67c2.07-14.41,6.12-28.42,12.13-42.03l0.1-3.77c11.95-10.79,25.44-19.78,40.45-26.95  c39.71-26.51,30.23-63.3,4.46-97.44l-0.75-4.53c7.41-23.82,17.96-47.13,25.62-70.43c1.46-0.54,3.08,1.77,2.32,2.39  c-0.69,0.56-2.15-1.18-2.32-2.39l58.54-178.1L787.41,385.3z" />
<path class="cls-15" d="M654.05,633.94c10.05,11.48,17.74,25.62,22.55,40.13c7.96,24.02-0.44,46.99-21.42,61.45  c-15.39,10.61-33.65,16.22-45.4,31.11c-6.17,13.74-11.67,26.66-12.13,42.03c0.71,3.82,0.84,7.82,1.34,11.67  c-3.34-0.13-7.57-0.1-10.87,0.04c-15.02-25.46-15.72-57.28,5.95-78.69c10.29-10.17,22.28-18.88,33.19-28.25  c5.58-6.86,10.39-14.24,14.42-22.14c1.85-6.83,2.85-13.84,2.99-21.04c-3.18-9.7-6.27-19.74-15.22-26.84  c-3.34,2.3-7.53-4.58-6.19-7.93c-1.97-1.74-3.67-6.84-5.88-8.59c-5.39-1.78-8.85-13.74-5.71-18.73c-0.38-5.07,3.34-14.91,8.07-16.65  c7.61-2.8,13.4-2.33,22.96-4.87C630.13,605.28,641.86,620.02,654.05,633.94z" />
<path class="cls-15" d="M697.74,463.67c-7.81-2.39-3.53-24.25,5.76-23.43C711.14,441.93,707.26,464.54,697.74,463.67z" />
<path class="cls-11" d="M611.67,608.16c0.43,5.76,3.44,13.68,5.71,18.73c-4.64,0.3-9.53-1.16-13.92-0.23  C604.96,620.28,606.56,612.23,611.67,608.16z" />
<path class="cls-15" d="M323.35,530.39c-6.09,0.45-5.74-8.02-5.18-11.28c0.53-3.13,2.5-10.33,7.97-8.78  C332.93,512.26,331.06,529.82,323.35,530.39z" />
<path class="cls-15" d="M360.7,474.55c-6.33-2.58-1.45-22.14,6.09-21.15C373.64,455.35,368.85,475.99,360.7,474.55z" />
<path class="cls-15" d="M374.47,413.87c-6.9-1.92-3.63-20.95,3.17-21.77C385.58,392.96,383.07,414.35,374.47,413.87z" />
<path class="cls-15" d="M332.73,554.01c-5.96,0.11-5.94-7.02-5.38-10.62c0.49-3.19,3.53-9.82,8.96-7.16  C341.96,539,340.12,553.88,332.73,554.01z" />
<path class="cls-15" d="M295.82,610.4c-5.01-0.16-5.43-6.32-5.25-9.71c0.18-3.58,1.95-8.94,7.15-8.53c4.94,0.39,5.07,5.75,4.7,9.59  C302.13,604.68,300.99,610.56,295.82,610.4z" />
<path class="cls-15" d="M312.6,584.05c-5.25,0.36-4.61-6.76-3.91-9.76c0.59-2.53,2.85-7.7,6.84-5.77  C320.48,570.91,318.38,583.66,312.6,584.05z" />
<path class="cls-15" d="M428.35,546.73c-5.23,1.51-5.76-5.11-5.6-8.12c0.13-2.51,1.37-7.86,5.89-6.7  C433.97,533.28,433.79,545.15,428.35,546.73z" />
<path class="cls-14" d="M237.81,828.96c-1.21,3.04-5.83,3.04-6.71-0.24l-1.76,1.19c-19.55,0.39-39.05,0.03-58.5-1.08  c-3.73,0.01-7.47,0.33-11.2,0.01c-1.48,1.39-4.19,1.49-5.22-0.39l-1.75-1.91c10.56-25.49,21.13-50.98,31.71-76.49l3.01-1.13  l1.28-0.23c46.92-8.35,96.36,0.5,144.48,0.22l0.02,79.99L237.81,828.96z" />
<path class="cls-10" d="M187.39,748.91l-32.97,79.53c-0.18,1.06-0.58,1.11-1.18,0.18l-1.08,2.34c-20.93-0.02-41.87-0.04-62.81-0.05  l-1.39-2.34c-0.46-1.32-0.87-2.65-1.11-4.01c-0.24-1.34-0.44-2.65-0.29-3.92c2.64-22.93,7.81-45.91,13.02-68.27l2.21-3.51  L187.39,748.91z" />
<path class="cls-8" d="M262.54,352.74l0.69,80.44c0.09,0.86,4.43,1.27,4.19,1.98c-0.17,0.52,1.06,1.44-0.04,1.87  c-0.59,0.23-3.36,0.54-2.7,1.64c1.71,2.86,3.95,1.87,2.79,4.16c-0.42,0.83-4.42,2-4.42,2.94l-0.49,78.98l-21.14,0.37  c-3.54,1.19-4.92-3.19-1.45-4.74c1.59-19.92,0.03-40.02-0.18-59.94c-3.56-4.15-3.31-12.4,0.33-16.43l0.47-86.02  c-2.45-0.48-4.77-1.84-4.21-3.93C244.59,350.96,253.83,353.48,262.54,352.74z" />
<path class="cls-10" d="M108.92,711.33c0.52-12.71,3.91-25.16,5.84-37.73l45.49-0.25l0.31,38.04L108.92,711.33z" />
<path class="cls-10" d="M141.8,538.89l20.63,0.89l0.29,40.25l-32.65,0.11l5.01-39.7C137.4,541.26,139.68,538.97,141.8,538.89z" />
<path class="cls-10" d="M183.99,465.09c-4.72,1.98-9.59,1.19-14.72,0.59c-0.67-9.21-0.6-17.75-0.24-27.13c5.16-0.53,9.63-0.5,14.7-0.04  L183.99,465.09z" />
<path class="cls-15" d="M300.69,453.61c-7.92-1.03-4.02-21.2,3.67-19.91C311.09,434.83,308.38,454.6,300.69,453.61z" />
<path class="cls-13" d="M240.11,444.03c-0.03,5.26-0.38,10.89-0.33,16.43c-2.41,1.54-5.48,2.83-7.37,1.21  c-4.08-3.5-2.76-12.87,0.83-16.77C234.81,443.2,237.68,443.07,240.11,444.03z" />
<path class="cls-15" d="M182.33,394.82c-4.37-1.09-4.28-6.56-3.77-9.67c0.47-2.86,2.28-7.36,6.57-6.9c4.63,0.5,4.87,5.35,4.54,9.01  C189.39,390.39,187.71,396.16,182.33,394.82z" />
<path class="cls-15" d="M239.96,520.4c-0.13,1.66,0.85,3.42,1.45,4.74c-0.79,2.46-0.71,7.72-3.95,8.79c-5.2,1.73-6.54-4.37-5.82-8.77  C232.29,521.25,235.47,518.66,239.96,520.4z" />
<path class="cls-5" d="M910.3,841.75l-0.74-2.64c8.76-16.1-4.46-15.63-1.63,0.25l-1.74,2.17c-21.62,2.53-63.01,0.87-87.07,1.07  l-2-1.89c4.41-15.88-7.53-12.82-5.27,0.9l-2.01,2.02l-46.16-0.39l-0.69-35.84l182.6,0.02l-0.31,35.7  C932.61,841.73,920.72,845.56,910.3,841.75z" />
<path class="cls-10" d="M925.86,513.4l1.99,1.5c0.16,4.16,1.32,5.83,3.47,5.01c1.27-3.26,2.94-5.41,4.99-6.44l55.25,0.16  c0.64,0.86,1.23,1.74,1.67,2.69c0.42,0.91,0.8,1.82,0.85,2.73c0.57,10.37,0.68,23.89-3.74,32.89c-16.8,0.58-33.62-0.61-51.55,0.58  c-13.53,0.9-28.18-2.96-44.32-0.29l-0.22-38.36L925.86,513.4z" />
<path class="cls-10" d="M708.94,748.56c-0.41-0.82-0.77-1.65-0.97-2.52c-0.87-3.66,6.72-24.08,8.99-29.1l3.58-3.36l97.19,0.11  l-0.1,35.01L708.94,748.56z" />
<path class="cls-10" d="M908.2,592.76l78.54-0.03c0.61-2.22,1.47-1.95,1.35,0.39c0.91,0.14,2.25,0.48,2.3,1.14  c0.49,6.96-0.16,27.83-1.39,34.46l-2.41,1.59c-8.97-0.29-17.98-0.38-26.95,0.03c-3.19-1.17-5.63-0.75-7.31,1.28l-2.87-0.87  l-53.09-0.41c-0.69-9.72-0.24-18.72-0.24-27.67c-3.49-2.02-1.15-7.83,1.85-9.45C900.44,591.74,905.01,592.2,908.2,592.76z" />
<path class="cls-10" d="M949.08,748.87l-0.56-1.47c5.49-11.61-4.83-16.39-2.66-1.28l-1.42,2.41l-81.37-0.15  c-1.97-12.06,0.12-22.94-0.26-34.71l97.98,0.23l0.06,34.5C956.38,749.03,952.76,748.53,949.08,748.87z" />
<path class="cls-14" d="M720.54,713.59c-3.74,11.7-8.69,23.01-11.61,34.97l-1.19,0.16l-13.55-0.41l-0.37-34.54L720.54,713.59z" />
<path class="cls-14" d="M761.89,589.44c0.07,5.22-1.68,7.86-2.74,11.04l-17.37-0.5l-0.04-36.12c6.94-0.34,13.32-0.24,19.8,0.09  L761.89,589.44z" />
<path class="cls-15" d="M817.79,909.38c0.35-11.66-9.34-24.5-16.28-30.59c-10.5-9.22-26.45-10.41-38.32-6.72  c-2.55-1.22-1.94-4.55-2.52-6.18c12.73-5.97,29.29-3.72,40.69,5.3C812.53,880.03,817.83,895,817.79,909.38z" />
<path class="cls-13" d="M744.69,807.76c-9.45-1.32-5.14-25.94,4.84-23.61C757.52,786.02,754.36,809.11,744.69,807.76z" />
<path class="cls-15" d="M959.64,630.35c0.69,9-1.98,19.64-8.03,28.31c-6.14-8.94-4.01-19.33-2.15-27.89c2.51-1.41,3.73-3.77,6.14-3.7  C956.99,627.11,959.5,628.54,959.64,630.35z" />
<path class="cls-13" d="M891.43,306.17c-9.67-1.87-4.92-25.78,4.83-23.59C903.79,284.27,900.83,307.99,891.43,306.17z" />
<path class="cls-15" d="M937.03,885.58c-8.8-0.97-5.37-24.23,4.17-22.61C948.82,864.26,945.44,886.51,937.03,885.58z" />
<path class="cls-13" d="M857.26,681.58c-5.74-0.31-5.58-7.53-5.2-11.61c0.32-3.4,2.55-9.65,7.72-9.34c5.6,0.34,6.12,6.69,5.64,11.25  C865.06,675.37,862.98,681.89,857.26,681.58z" />
<path class="cls-13" d="M897.75,591.65c1.05,0.39,1.12,0.92,0.22,1.58c0.61,3.26-1.85,6.27-1.85,9.45c-3.39,1.34-7.32,2.54-9.08,0.03  c-3.15-4.51-2.72-13.66,1.49-18.38c1.91-2.14,5.49-2.42,7.07-0.49C897.51,586.16,897.6,589.2,897.75,591.65z" />
<path class="cls-14" d="M997.6,513.57c-0.47,12.74-1.36,25.46-1.71,38.17c-0.36,3.43-4.7,3.42-5.55,0.19  c0.99-12.73,1.83-25.6,1.23-38.31c0.28,0,0.57-0.08,0.85-0.06C994.14,513.73,995.87,513.57,997.6,513.57z" />
<path class="cls-7" d="M995.89,551.74l-1.13,41.19c-0.39,3.56-4.79,1.83-6.67,0.2c-0.45-0.04-0.9-0.39-1.35-0.39  c4.33-12.73,2.54-27.18,3.59-40.8L995.89,551.74z" />
<path class="cls-10" d="M830.79,617.42c7.41,1.29,8.33-4.64,6.47-10.95l1.66-2.68c4.3-0.19,6.08-0.67,6.08,2.81l0,8.77  c0,3.54,2.37,10.16,0.04,12.78c-2,2.26-9.34,1.37-12.63,0.72C828.92,628.17,831.68,620.55,830.79,617.42z" />
<path class="cls-15" d="M735.92,670.05c4.2,2.74,4,8.6,2.03,14.44c-1.29,3.81-4.53,7.84-9.87,5.53c-0.79-3.57-2.69-7.87-0.83-12.59  C728.59,674.01,730.76,669.63,735.92,670.05z" />
<path class="cls-15" d="M917.25,332.04c-6.11,0.05-4.19-9.09-3.3-12.71c0.78-3.16,3.65-9.65,8.73-7.59  C927.4,316.09,924.39,330.99,917.25,332.04z" />
<path class="cls-15" d="M851.74,939.57c-6.94-1.9-1.74-22.31,5.9-20.12C864.07,921.28,859.04,941.19,851.74,939.57z" />
<path class="cls-13" d="M884.52,962.94c-6.39,0.54-6.4-6.6-5.75-10.02c0.62-3.21,3.36-9.76,8.52-7.66  C892.69,947.45,891.57,962.34,884.52,962.94z" />
<path class="cls-15" d="M924.17,480.54c-6.38-2.65-3.37-18.75,3.76-18.99c5.57-0.19,4.87,7.37,4.17,10.59  C931.46,475.1,929.21,482.64,924.17,480.54z" />
<path class="cls-15" d="M773.09,976.33c0.27,6.08,0.89,16.73-6.73,18.47c-5.72,1.3-5.2-7.73-5.78-11.38  C764.55,981.3,769.39,978.75,773.09,976.33z" />
<path class="cls-13" d="M915.84,990.08c-4.36-0.89-4.16-6.54-3.82-9.6c0.35-3.2,2.12-8.13,7.01-7.8c4.76,0.32,4.59,6.02,4.22,9.83  C922.95,985.54,921.33,991.2,915.84,990.08z" />
<path class="cls-15" d="M819.12,842.6c-3,1.04-6.48,4.39-9.27,1.03c-1.29-5.57-0.89-16.81,6.79-15.74  C822.64,828.73,819.95,838.41,819.12,842.6z" />
<path class="cls-15" d="M910.3,841.75c-1.55-0.45-3.31-0.32-4.12-0.22c-2.26-5.31-1.33-17.86,6.15-16.53  C917.51,827.35,914.04,838.45,910.3,841.75z" />
<path class="cls-15" d="M838.92,603.79c1.07,3.72,2.52,7.75,0.52,12.3c-1.37,3.12-5.42,5.83-8.65,1.33  c-0.36-4.22,0.09-7.52,1.01-11.23C832.65,602.79,835.57,603.94,838.92,603.79z" />
<path class="cls-15" d="M867.89,377.54c0.01,4.48,3.02,10.28-0.85,14.82c-5.14,2.1-7.51-2.08-7.36-6.19  C859.87,380.62,862.89,376.79,867.89,377.54z" />
<path class="cls-15" d="M936.31,513.46c-0.39,3.39-1.52,6.22-3.15,7.91c-1.8,1.87-5.22,1.31-6.14-0.64c-0.73-1.57-2.13-5.89-1.17-7.33  c1.73-2.6,3.88-6.13,6.32-5.87C935.25,507.85,935.92,511.09,936.31,513.46z" />
<path class="cls-15" d="M949.08,748.87c-1.54,0.14-3.11-0.28-4.64-0.34c-2.63-4.25-2.3-13.25,3.4-14.17c4.04-0.65,4.51,4.65,4.53,6.83  C952.41,744.25,951.94,747.25,949.08,748.87z" />
<path class="cls-15" d="M988.67,438.27c-4.94,0.52-4.47-5.67-4.22-8.3c0.23-2.44,2.46-7.24,6.43-5.66  C995.47,426.15,994.54,437.65,988.67,438.27z" />
<path class="cls-15" d="M884.27,767.14c-3.55-0.61-3.69-5.42-3.18-7.72c0.57-2.58,2.32-6.18,5.9-5.6c3.6,0.59,3.56,4.39,3.3,7.25  C890.08,763.38,888.6,767.89,884.27,767.14z" />
<path class="cls-13" d="M817.61,993.15c-3.53-0.78-3.45-5.3-3-8.09c0.33-2.06,2.06-5.71,5.52-5.16c3.51,0.56,3.9,4.41,3.61,7.35  C823.5,989.68,822.2,994.17,817.61,993.15z" />
<path class="cls-13" d="M897.54,701.1c-4.35-0.99-4.38-12.8,1.44-13.25c4.49-0.35,4.96,3.87,4.69,7.58  C903.5,697.75,901.94,702.1,897.54,701.1z" />
<path class="cls-7" d="M908.2,592.76l-10.23,0.47c-0.1-0.51-0.19-1.06-0.22-1.58C901.2,592.3,905.14,590.61,908.2,592.76z" />
<path class="cls-15" d="M756.09,968.31l-1.22-1.74c10.87-6.41,20.88-15.64,29.47-24.99c8.99-9.78,11.35-21.51,12.62-33.48  C803.23,934.12,780.24,958.69,756.09,968.31z" />
<path class="cls-4" d="M706.4,856.7c0.57,1.19,1.1,2.38,1.46,3.63c0.36,1.22,0.69,2.42,0.66,3.6  c-1.46,51.87-14.21,103.78-40.29,148.8c-7.48,12.91-15.7,26.89-27.4,36.01c-21.22,2.88-42.79,3.32-64.07,1.41  c-1.07-0.74-2.1-1.52-3.01-2.41c-0.89-0.87-1.73-1.75-2.28-2.77c-28.38-52.97-35.84-118.22-37.81-177.45  c-0.04-1.14,0.3-2.3,0.67-3.49c0.37-1.21,0.89-2.38,1.45-3.53C592.7,863.63,649.78,863.88,706.4,856.7z" />
<path class="cls-9" d="M500.65,857.66c1.74,3.9,2.61,5.85,2.61,5.85c1.58,32.31,5.64,64.74,15.9,95.49  c-6.09-30.33-12.55-62.61-10.94-93.65c0.06-1.12,0.45-2.22,0.88-3.34c0.45-1.15,1.05-2.24,1.7-3.31c6.25-0.09,18.2,1.41,24.96,1.78  c2.02,68.45,8.7,128.32,40.98,189.65c-7.88-0.71-15.04-1.54-22.46-3.65c-60.89-54.55-76.2-113.15-79.74-193.36  C481.8,853.81,494.18,856.25,500.65,857.66z" />
<path class="cls-9" d="M725.62,854.15c0.95,73.43-29.46,142.39-80.95,194.13c-1.28,0.1-2.56,0.28-3.83,0.46  c45.18-56.96,63.88-119.15,65.57-192.03C712.83,855.89,719.1,853.75,725.62,854.15z" />
<path class="cls-12" d="M538.02,827.41l3.01,0.83c2.32,2.14,8.59,11.14,6.19,13.78l-2.55,1.74c-20.13,2.58-40.35,4.57-60.69,5.97  c-8.1-2.64-21.38-1.48-22.19-10.67C485.39,828.79,512.43,828.91,538.02,827.41z" />
<path class="cls-4" d="M602.61,840.82l2.96,0.56l3.67-1.77c16.12,0.88,32.29,0.89,48.51,0.02c0,0,1.84,0.85,5.51,2.56  c1.34-0.52,2.7-0.99,4.09-1.3c7.68-1.67,40.49,2.81,47.45,6.47c1.26,0.66,2.43,1.47,3.59,2.33c-5.48,2.56-11.63,1.63-17.5,2.42  l-47.22-2.24l-5.57-2.69c-1.32,0.51-2.65,0.97-4.02,1.29c-6.19,1.42-33.27,0.73-39.25-1.09c-1.34-0.41-2.63-0.97-3.92-1.58  l-3.65,1.55c-24.36,0.56-48.68,2-72.98,4.33l-18.2,0.42c-7.26-0.97-14.9-0.02-22.1-2.37c20.46-5.3,41.99-6.25,63.24-7.71l3.51-2.61  c10.5-1.48,37.61-4.3,46.79-1.72C599.62,838.27,601.19,838.94,602.61,840.82z" />
<path class="cls-11" d="M726.47,848.78c-2.38,1.27-5.87-0.13-8.1,0.91c-18.11-3.81-36.61-6.39-55.13-7.51c-0.6-1.96-0.9-2.93-0.9-2.93  l7.21-7.82c0.96-2.46,2.37-3.77,4.23-3.94c23.02,0.85,47.94,1.74,69.01,12.88C738.8,847.67,731.64,846.02,726.47,848.78z" />
<path class="cls-15" d="M673.78,827.49c-0.69,6.24-7.58,9.28-10.53,14.7c-19.69-1.19-40,2.54-57.68-0.8l-4.59-16.58L673.78,827.49z" />
<path class="cls-13" d="M602.61,840.82c-17.75-3.36-36.96-0.08-55.39,1.19l-9.2-14.61c17.25-1.01,34.27-2.46,52.38-2.04  C594.25,830.92,600.3,834.96,602.61,840.82z" />
<path class="cls-15" d="M993.93,145.35c-0.44,2.94-1.45,5.35-2.76,6.24c-2.08,1.42-4.94,0.91-5.89-0.79  c-1.03-1.84-1.17-3.75-1.33-5.61c0.52-2.9,1.41-5.3,2.94-6.28c1.91-1.23,5.16-1.11,5.99,0.71  C993.66,141.32,994.18,143.68,993.93,145.35z" />
<path class="cls-12" d="M830.95,385.49c-2.42,9.6-4.94,19.58-9.39,28.23l0.16-28.35L830.95,385.49z" />
<path class="cls-16" d="M794.51,385.54c-0.11,1.42-0.72,2.85-1.59,3.72c-1.31,1.31-3.67,1.47-4.16,0.03l-1.35-3.99  c-5.43-4.21-8.16-5.53-7.39-13.48c0.42-4.33,5.87-12.08,10.48-5.7C791.69,371.82,790.82,379.87,794.51,385.54z" />
<path class="cls-15" d="M772.11,360.63l-6.67-0.23c-0.83-2.83-1.09-5.72-0.48-8.74c0.41-2.02,2.63-6.04,6.17-4.44  C776.16,349.48,773.45,356.54,772.11,360.63z" />
<path class="cls-14" d="M101.77,748.85c-4.64,26.55-10.91,52.99-13.82,79.72c-0.22,1.08-0.67,1.18-1.34,0.3  c-1.59,0.08-3.17-0.01-4.75-0.18l14.17-79.84L101.77,748.85z" />
<path class="cls-15" d="M83.16,695.16c-4.02-0.86-3.85-5.89-3.34-8.83c0.46-2.66,2.48-7.55,6.63-6.31c3.64,1.09,3.42,5.79,2.74,8.69  C88.64,691.09,87.38,696.07,83.16,695.16z" />
<path class="cls-5" d="M136.92,868.25l-21.08,53.03l-1.27,0.24l-42.47-0.46c0.07-3.37,1.26-6.53-0.85-7.11l7.43-45.54l2.31-0.78  l4.85-1.92c15.37,1.36,30.86,2.41,46.26,0.81L136.92,868.25z" />
<path class="cls-2" d="M153.23,828.62c3.13,0.04,3.11,1.1,0.23,2.26c-6.28,11.77-11.67,24.38-15.35,37.19l-1.19,0.18  c-18.22,2.68-37.39,1.02-55.93-0.63c0.84-13,3.34-25.66,5.63-38.75c0.45-0.02,0.89-0.3,1.34-0.3L153.23,828.62z" />
<path class="cls-15" d="M1018.02,325.06c-6.88-1.97-1.17-22.12,6.18-20.48C1030.9,306.08,1026.05,327.36,1018.02,325.06z" />
<path class="cls-13" d="M1020.43,477.73c-5.31,0.39-3.96-7.26-3.54-9.93c0.44-2.82,3.08-8.72,7.51-7.33  C1029.32,462.72,1026.82,477.26,1020.43,477.73z" />
<path class="cls-10" d="M1046.45,915.09c-4.9,1.48-10.01,1.32-14.9-0.13l-0.13-26.45c5.17-0.43,9.66-0.6,14.76,0.04L1046.45,915.09z" />
<path class="cls-10" d="M1046.27,997.13c-4.64,1.53-9.34,1.02-14.43,0.37c-0.73-8.87-0.56-17.36-0.07-26.26  c5.04-0.71,9.37-0.64,14.28-0.24L1046.27,997.13z" />
<path class="cls-15" d="M1017.64,940.22c-5.19-1.61-2.71-15,2.82-15.5c4.82-0.44,4.15,5.5,3.69,8.38  C1023.73,935.65,1022.45,941.72,1017.64,940.22z" />
<path class="cls-14" d="M994.76,592.93c-0.34,12.25-3.7,24.87-2.27,37.34l-1.07,0.21l-4.83-0.15l1.5-37.19  C990,591.14,992.51,592.93,994.76,592.93z" />
<path class="cls-15" d="M1012.26,581.03c-6.8,0.17-5.25-9.62-4.65-13.43c0.57-3.6,3.93-11.68,9.65-8.92  C1023.69,561.85,1020.74,580.83,1012.26,581.03z" />
<path class="cls-9" d="M600.91,845.79l1.59,1.63c14.61,1.73,29.31,2.34,44.1,1.81l1.49-2.06c17.63,1.31,35.89,0.3,52.78,4.94  c-63.69,8.56-131.1,8.51-194.8-0.02C536.8,846.45,569.34,845.66,600.91,845.79z" />
<path class="cls-4" d="M510.81,858.71c-2.09,42.53,6.43,83.33,16.9,127.09c-19.48-39.39-25.25-84.41-27.06-128.14  C503.17,858.22,508.22,858.75,510.81,858.71z" />
<path class="cls-15" d="M120.43,998.21c-5.37,0.37-4.11-7.35-3.64-10.17c0.46-2.7,2.8-8.81,7.52-6.59  C129.22,983.77,126.64,997.79,120.43,998.21z" />
<path class="cls-15" d="M236.5,982.56c-4.46-0.7-4.43-5.84-3.92-8.92c0.47-2.84,2.06-6.96,6.49-6.42c3.79,0.46,3.54,5.32,3.35,8.25  C242.26,977.97,240.81,983.24,236.5,982.56z" />
<polygon class="cls-14" points="402.05,677.56 389.2,712.39 239.26,712.82 239.2,677.27 " />
<path class="cls-15" d="M237.81,828.96c2.78,6.84,2.77,22.71-6.64,22.09c-7.1-1.51-4.32-15-1.62-19.92c-1.74-0.81-1.22-1.61,1.54-2.41  C233.34,828.71,235.59,828.54,237.81,828.96z" />
<path class="cls-15" d="M297.13,675.45c-6-2.93-3.56-18.06,3.57-17.84c5.46,0.17,4.83,7,4.3,10.26  C304.54,670.75,302.56,678.1,297.13,675.45z" />
<path class="cls-15" d="M265.57,851.07c-5.17,0.65-5.72-6.22-5.47-9.07c0.29-3.18,1.71-10.11,7.08-8.46  C273.31,835.42,272.24,850.23,265.57,851.07z" />
<path class="cls-15" d="M182.62,858.54c-4.37-0.53-4.35-5.62-4.3-8.29c0.05-3.16,0.8-8,5.64-7.48c3.85,0.41,4.35,5.44,4.06,8.37  C187.77,853.56,186.65,859.02,182.62,858.54z" />
<path class="cls-7" d="M231.1,828.72c-0.04,1.05-1.11,1.61-1.54,2.41c-19.74-1.98-40.31,2.64-58.72-2.29L231.1,828.72z" />
<path class="cls-15" d="M225.7,705.34c-3.89-0.64-4.2-5-4.02-7.42c0.22-2.89,1.64-6.8,5.76-6.46c3.94,0.33,4.34,4.5,4,7.29  C231.12,701.43,229.88,706.03,225.7,705.34z" />
<path class="cls-7" d="M159.64,828.84c-0.05,3-4.02,2-6.18,2.05l-0.23-2.26l1.18-0.18C156.13,828.19,157.9,828.69,159.64,828.84z" />
<path class="cls-16" d="M217.79,904.92c-6-0.17-5.93-9.46-5.38-13.35c0.55-3.85,3.19-12.43,9.42-11.08  C229.82,883.86,226.65,903.19,217.79,904.92z" />
<path class="cls-15" d="M299.47,909.88c-7.73-1.77-2.94-23.2,5.25-21.16C311.44,890.4,307.92,911.82,299.47,909.88z" />
<path class="cls-15" d="M235.73,917.84c-4.82-0.9-4.65-6.46-4.26-9.81c0.38-3.35,2.4-8.27,7.33-7.32c4.36,0.84,4.11,6.54,3.46,10  C241.77,913.36,239.86,918.61,235.73,917.84z" />
<path class="cls-15" d="M155.4,952.17c-7.27-1.58-3.54-19.84,3.97-18.67C166.64,934.62,163.5,953.92,155.4,952.17z" />
<path class="cls-15" d="M195.15,956.13c-3.69-0.84-3.36-5.73-2.88-8.45c0.39-2.19,1.83-5.92,5.61-5.39c3.74,0.53,3.94,4.46,3.51,7.37  C201.04,952.11,199.59,957.14,195.15,956.13z" />
<path class="cls-16" d="M286.75,648.12c-7.75-1.53-4.4-24.12,4.19-23.03C298.89,626.09,295.41,649.71,286.75,648.12z" />
<path class="cls-15" d="M425.92,645.19c-3.9-0.18-3.93-4.54-3.89-7.06c0.04-2.47,1.23-5.83,4.83-6.07c3.37-0.22,4.52,3.51,4.34,6.01  C431,640.87,430.42,645.4,425.92,645.19z" />
<path class="cls-11" d="M629.46,643.4l-0.61,36.29c-5.9,1.74-11.67-0.1-18.17-0.61c-0.95-13.12-1.9-26.7-0.36-39.98l12.96-3.63  C625.57,637.51,627.38,641.75,629.46,643.4z" />
<path class="cls-8" d="M627.26,713.42c-0.16-1.48,0.46-3.23,1.01-4.52c10.54-8.94,8.35-26.85,16.4-38.66  C650.33,687.49,640.41,702.13,627.26,713.42z" />
<path class="cls-14" d="M679.68,563.5l19.8,0.35l-0.36,36.42c-7.16,0.1-12.93,0.18-19.31-0.41L679.68,563.5z" />
<path class="cls-14" d="M730.7,599.89c-6.48,0.96-12.61,0.76-19.33,0.19l-0.07-36.17c6.82-0.48,12.95-0.39,19.55-0.07L730.7,599.89z" />
<path class="cls-14" d="M751.3,493.06c-5.41,0.73-9.93,0.48-14.91,0.04l0.2-25.46c4.55-1.52,9.3-0.84,14.49,0.08L751.3,493.06z" />
<path class="cls-15" d="M716.77,635.78c-6.36,0.76-5-8.51-4.38-11.87c0.59-3.2,3.17-9.83,8.42-8.62  C726.83,617.8,724.23,634.88,716.77,635.78z" />
<path class="cls-16" d="M805.8,414.25c-7.29-1.85-2.52-21.05,5.04-19.46C818.05,396.29,814.16,416.37,805.8,414.25z" />
<path class="cls-6" d="M597.65,808.66c-2.97-16.03,2.72-30.11,12.13-42.03C608.59,780.93,601.92,794.66,597.65,808.66z" />
<path class="cls-15" d="M792.63,742.82c-4.55-0.04-4.94-5.57-4.64-8.44c0.34-3.23,1.25-8.13,5.87-8.19c4.14-0.05,5.46,5.08,5.23,8.03  C798.82,737.69,797.96,742.87,792.63,742.82z" />
<path class="cls-10" d="M648.09,847.18c-0.46,2.83,3.1,1.01,4.86,4.15c-1.43-0.29-60.73,2.58-52.04-5.54  C616.61,845.86,632.4,846.01,648.09,847.18z" />
<g>
</g>
<g>
</g>
<g>
</g>
<g>
</g>
<g>
</g>
<g>
</g>
<g>
</g>
<g>
</g>
<g>
</g>
<g>
</g>
<g>
</g>
<g>
</g>
<g>
</g>
<g>
</g>
<g>
</g>
</svg>