<?xml version='1.0' encoding='UTF-8'?>
<svg xmlns="http://www.w3.org/2000/svg" id="Layer_1" viewBox="0 0 1200 1543" xml:space="preserve" width="1200" height="1800">
<style type="text/css">
      .cls-1 {
        fill: #73322a;
      }

      .cls-2 {
        fill: #31584b;
      }

      .cls-3 {
        fill: #d44826;
      }

      .cls-4 {
        fill: #b37d3e;
      }

      .cls-5 {
        fill: #919464;
      }

      .cls-6 {
        fill: #9b9f3a;
      }

      .cls-7 {
        fill: #ba904e;
      }

      .cls-8 {
        fill: #e39d49;
      }

      .cls-9 {
        fill: #b5ba45;
      }

      .cls-10 {
        fill: #ecb769;
      }

      .cls-11 {
        fill: #f9ce67;
      }

      .cls-12 {
        fill: #f7ca83;
      }

      .cls-13 {
        fill: #f6c99f;
      }

      .cls-14 {
        fill: #f8d3b6;
      }

      .cls-15 {
        fill: #dde3e6;
      }

      .cls-16 {
        fill: #fefefd;
      }

    </style>
<path class="cls-14" d="M1200,132.76v203.03l-1.02,2.65c-81.33-2.57-162.68-5.14-244.04-7.71l-1.56-2.73c-1.03-0.2-2.58-0.66-2.58-1.4  c0-4.3,2.16-36.47,2.98-38.2c0.47-0.98,1.74-1.38,2.82-1.72l1.71-3.25c41.02-10.91,81.76-22.4,122.23-34.47  c12.16-5.54,44.86-20.58,30.38-36.78l0.62-3.47c-48.41-37.34-119.26-46.39-178.03-33.52L449.07,322.52  c-60.84,16.25-122.34,30.06-183.81,43.7c-2.35,0.52-4.78,0.67-7.24,0.8c-2.47,0.13-4.96,0.07-7.44-0.05l-3.08,3.44  c-4.13,1.15-31.48,6.76-33.1,6.28c-0.58-0.17-4.29-2.66-4.63-3.08c-2.08-14.48-3.35-29.03-3.78-43.65  c-67.88-3.01-136.02-4.95-204.4-5.82L0,321.43V198.21l1.28-2.68l544.8-0.48c-29.77-19.12-66.12-17.29-97.91-3.67  c-30.18-25.75-68.97-25.68-104.16-10.36c-22.53-27.72-57.2-38.54-90.89-25.42c-2.37,0.74-3.79-0.08-4.23-2.5  c-2.12-21.1-14.45-37.83-31.38-49.95c-3.62-7.28-0.69-8.23,9.99-6.19c95.49,6.7,191.08,10.78,286.77,12.25  c219.65-5.86,439.28,6.28,658.47,19.33c4.56,0.27,9.1,0.96,13.66,1.66C1190.95,130.91,1195.48,131.81,1200,132.76z" />
<path class="cls-15" d="M0,80.36V0h1200v132.76C971.49,120,744.51,105.24,514.29,111.89c-99.79-0.56-197.47-6.89-298.03-12.92  c19.66,13.67,33.96,31.57,34.93,54.9c33.92-14.67,72.41-3.71,93.29,24.92c35.13-17.1,76.53-14.84,103.99,10.21  c33.09-15.54,70.65-14.58,100.35,4.38c26.4-9.11,56.44-10.54,81.49,4.28L0,198.21v-56.25l1.05-2.63l42.97,2.2  c6.28-22.46,24.94-37.3,44.06-48.92L1.32,83.2L0,80.36z" />
<path class="cls-11" d="M914.63,932.13l-1.76,3.81c-17.71,8.73-28.32,24.44-35.64,42.28c-32.09,0.52-61.4,5.42-92.61,11.66  c-4.18,0.84-8.55,1.42-12.8,1.23c-2.02,1.26-1.97,1.69,0.15,1.29l0.41-0.74c19.54-2.09,39.24-2.66,59.1-1.72l1.58,2.68  c2.61,1.76,5.23,1.74,8.03-0.02c0.82-4.03,8.49-4.43,9.16-0.2c1.21,1.53,2.68,1.53,4.42,0c-0.09-1.14,0.4-1.91,1.16-2.67  c0.66-0.66,17.51-0.93,17.22,2.78c2.52,1.98,5.8,1.99,8.38,0.11l1.29-2.67c105.18,0.45,210.39,0.9,315.61,1.35l1.65,2.69v104.86  l-1.1,2.61l-120.47-8.05c-28.07-0.9-55.81,2.12-83.22,9.08c-12.33,1.34-30.82,3-42.51-1.24l-2.98-3.4l-0.63-2.87l29.4-21.81  c-4.82-6.39-10.43-11.73-16.81-16.04l-26.02,37l-3.32,0.06l-3.76,2.23c-10.01-1.9-20.09-3.04-30.23-3.44l-3.46-2.52  c-3.45,0.23-5.43-1.58-7.15-4.33c-7.54-10.02-14.34-20.39-20.39-31.11c-11.37,11.75-17.06,17.63-17.06,17.63l14.82,11.2l-0.11,3.27  c-3.83,1.95-5.74,2.92-5.74,2.92c-37.4-0.52-72.63,7.69-108.49,16.08c-3.41,0.8-6.36,0.8-8.96-1.78l-3.6-1.1  c-6.34-8.94-13.89-16.94-22.67-24c0,0-0.01-1.27-0.02-3.8l-5.18-1.33c-56.86-51.2-151.43-48.52-206.7,4.01l-5.51,1.75l0.17,3.65  c-8.78,7.23-15.76,15.62-20.95,25.18l-3.35,1.39c-4.23,1.26-6.34,1.89-6.34,1.89l-57.22-8.93c-59.72-2.5-119.31-10.74-177.86-23.43  c-15.81-0.34-31.57,2.47-47.26,8.43l-13.26,2.24c-55.34-3.12-111.36-2.41-166.63,4.78L0,1094.2v-89.73l1.3-2.67l558.53,3.12  c-15.83-13.62-41.95-12.49-61.94-3.81c-11.96-16.94-26.89-24.52-47.59-21.09c-7.39,3.06-11.88,2.46-13.48-1.8  c-2.85-13.74-8.3-27.86-19.74-36.69l-0.64-3.68c6.59-0.93,13.18-1.8,19.79-2.47c6.61-0.67,13.22-1.3,19.84-1.53  c139.45-4.75,279.32-5.79,418.84-4.65c6.62,0.05,13.24,0.52,19.87,1C901.41,930.7,908.02,931.39,914.63,932.13z" />
<path class="cls-12" d="M1200,574.56v232.59l-0.97,3.3c-4.76,1.37-9.24,3.29-13.45,5.77l-2.73-1.17c-11.42,0.5-22.84,0.95-34.26,1.19  c-11.42,0.25-22.84,0.48-34.24,0.28c-251.53-4.37-503.44-12.73-754.29-21.76c-4-0.14-12.69-0.96-12.05-5.98l-0.76-3.74  c8.72-11.27,12-21.36,14.78-34.89c0.26-1.27,1.15-2.13,2.32-2.72l0.94-2.8c32.48-3.54,64.98-7.08,97.48-10.62l1.89,2.49l3.49,1.95  c13.35,39.78,63.68,53,90.92,18.7c27.48-34.61,8.99-86.33-35.04-93.56c-2.99-6.56-4.35-13.79-4.09-21.68l2.26-2.07l5.2-1.57  c127.86-2.62,255.01-5.98,381.45-10.08l1.73,2.63c0.69-0.22,1.38-0.2,2.1-0.09c1.95,0.33,16.25,19.48,18.23,22.72  c3.08,2.75,3.89,5.32,2.43,7.7c0.68,1.68,0.76,3.7,0.25,6.06c14.56,30.79,43.81-13.51,9.72-13.85l-2.78-1.98  c-7.65-2.47-16.58-13.71-16.41-21.82c5.63-2.22,8.44-3.33,8.44-3.33l69.23-3.68l2.64-3.13c8.92-2.27,17.82-4.48,26.72-6.62  l1.97-2.65c30.72-1.82,63.81-4.36,93.46-13.5c7.07-2.18,23.21-7.65,11.16-14.91l-0.28-2.95l2.13-3.54  c18.66-2.6,37.64-3.58,56.95-2.94L1200,574.56z" />
<path class="cls-2" d="M271.65,1373.19l5.83,3.74c4.64,10.86,11.21,15.62,19.7,14.28l16.98-4.57l1.9,2.37  c7.68-2.2,15.13-0.86,22.34,4.02c13.77-0.65,21.75,8.11,29.94,17.6c11.06,3.89,17.31,10.42,18.75,19.59  c6.52-1.97,13.25-0.81,20.2,3.5c5.57-1.64,10.74-1.33,15.5,0.93c7.09-9.97,22.22-13.12,30.64-3.04c9.74-6.84,21.49-4.93,29.2,4.01  c8.05-9.45,22.57-9.71,28.66,2.26c11.67-8.22,19.07-7.51,31.38-2.26c9.4-1.48,15.42-0.66,23.99,4.06  c5.76-1.29,10.82-0.68,15.18,1.81c7.5-11.65,22.53-13.4,31.97-2.97c9.61-8.03,22.12-4.82,29.95,4.11  c8.68-8.62,20.29-8.93,27.68,1.87c11.4-5.91,21.58-3.37,27.3,8.78c7.68-15.26,27.79-15.95,33.45,0.67  c7.87-12.4,24.58-9.21,31.33,2.49l5.46-1.85c10.03-5.83,18.33-9.03,27.55,0.21c5.25-3.58,11.54-3.11,16.51,0.84  c8.01-11.47,22.92-13.25,32.66-2.93c9.14-7.31,21.69-4.51,29.3,3.77c8.58-8.9,23.68-8.78,28.92,3.66  c11.77-11.49,33.51-8.4,43.38,3.67c6.57-9.82,17.56-10.91,26.14-2.65c5.22-1.95,10.79-1.62,16.69,0.99  c9.16-10.64,21.9-13.48,32.44-2.87c10.93-7.67,21.72-4.79,30.44,4.63c9.32-8.77,20.41-9.67,28.35,2.04  c10.84-6.06,21.52-4.01,27.29,7.88c9.01-13.83,27.96-15.59,33.73,2.23c8.21-12.75,23.61-10.24,31.71,1.32  c9.67-3.04,17.68,0.95,19.53,11.07c3.3-2.28,5.42-2.07,6.37,0.62v53.8H965.62l-34.46-2.69c-168.04-26.35-335.58-52.63-502.61-78.82  l-1.23-2.9c-8.03,2.32-14.78,1.44-20.27-2.64c-7.22,1.15-18.04,1.54-22.96-3.83c-6.07,1.65-10.83,1.02-14.28-1.9  c-9.57,0.73-20.7,1.06-28.59-4.75c-6.36,1.54-11.65,0.98-15.87-1.68c-10.97-0.39-21.99-1.11-33.06-2.16L1.86,1463.7L0,1461.16v-44.2  c1.93-3.99,4.34-2.44,7.39-0.3c4.93,7.54,10.45,9.55,16.54,6.02c18.21-16.36,39.03-15.93,55.84,2.2  c8.44-13.6,24.16-17.79,36.02-5.56c12.96-10.31,28.15-16.12,45.05-11.25c0.4-2.3,1.47-3.76,3.2-4.36c-4.35-2.92-0.12-9.56,2.45-13.1  c6.73-9.3,19.14-13.52,30.2-14.4c2.89-6.44,6.87-11.9,11.94-16.37l5.7-0.25c0.28-2.3,1.23-2.84,3.01-3.51  c9.36-3.52,26.65,2.69,32.59,10.75l20.37,3.39L271.65,1373.19z" />
<path class="cls-16" d="M187.37,850.65c4.88,1.78,8.54,5.64,10.98,11.58c9.22,11.25,23.83,62.79,15.97,73.04  c-0.57,0.74-1.28,1.38-2.03,1.98l2.51,1.5l-1.72,15.34c16.08-7.67,34.52-10.18,51.94-6.18c17.49,4.02,29.8,13.66,41.01,26.47  c3.75-14.49,11.59-33.5,27.38-37.11c3.53-8.49,18.27-11.97,27.24-13.52c18.46-3.18,37.57,0.61,53.83,9.79l1.98,4.3  c14.15,8.88,20.88,27.44,23.46,42.27c22.47-8.39,47.01-2.3,58.55,18.85c22.26-11.4,46-8.76,64.63,4.01  c17.09-3.77,38.72-7.72,52.91,4.92l-616-3.44V815.62c0.4-1.01,0.84-2,1.43-2.88c0.56-0.84,1.14-1.62,1.9-2.07  c57.33-34.2,142.28-19.63,182.82,34.11c0.53,0.71,0.77,1.65,0.98,2.65C187.35,848.47,187.39,849.56,187.37,850.65z" />
<path class="cls-6" d="M920.09,1383.48c0.35-0.62,0.81-0.57,1.34,0c2.5-3.4,5.9-1.43,4.18,2.56c2.92,0.31,4.57,2.32,4.97,6.03  c-2.46,10.59-5.96,21.12-10.48,31.58c-1,1.98-1.82,1.89-2.34-0.28c-1.05-0.1-2.56-0.45-2.61-1.22c-0.28-3.92-0.61-34.18-0.05-35.88  c0,0,0.89-0.96,2.68-2.88C917.99,1379.84,919.19,1380.06,920.09,1383.48z" />
<path class="cls-6" d="M624.32,1370.06c3.32-0.32,9.72-0.42,7.81,4.17l2.64,1.28l-1.06,36.48l106.48-0.34l1.63,2.67  c0.12-1.04,0.41-2.58,1.16-2.69c2-0.29,21.39-0.59,22.42-0.14c1,0.44,1.5,1.62,1.9,2.67l0.11-1.79c15.24-0.94,30.82-1.28,46.75-1.02  l0.26-32.54l2.69-1.93l0.22-1.78c19.42,0.19,38.89,1.12,58.39,2.81l1.4,2.77c1.24,4.7,2.56,3.87,3.98-2.48  c1.75-3.62,4.68-7.02,7.08-2.69c2.33-0.8,4.69,0.36,7.09,3.48c0,0,2.82,1.03,8.47,3.08c2.34-1.22,4.22-1.08,5.64,0.42  c3.67-3.12,5,1.93,5.75,5.62c0.05,16.22,0.22,32.43,0.52,48.61c-1.46-6.72-0.39-10.1,3.22-10.14c-0.59-1.51-0.52-3,1.22-2.93  c4.79-11.4,8.63-23.01,11.53-34.85l4.31-4c1.9-4,10.81-3.61,11.95,1.14l3.27,1.98c0.13,5.82,0.95,5.26,2.45-1.69l1.14-2.6  c81.26,6.41,162.54,12.81,243.84,19.22l1.43,2.8v83.38c-3.19,0.26-5.83,2.15-8.71,3.97c-0.2-5.64-1.34-10.12-5.59-12.68  c-3.91-2.36-9.24-1-13.17,0.3c-3.53-6.48-9.36-11.17-17.28-10.32c-6.41,0.68-10.19,5.43-14.1,13.33  c-2.24-10.9-4.42-17.39-14.06-17.8c-7.93-0.33-14.15,4.31-17.34,13.93c-5.75-6.91-6.58-11.85-12.03-13.71  c-6.56-2.24-12.79,0.84-17.31,3.47c-2.93-3.79-6.07-9.53-12.42-9.72c-6.05-0.18-10.94,3.99-15.04,7.86  c-3.83-4.11-8.98-8.6-13.94-9.82c-6.29-1.55-11.91,1.36-16.55,5.35c-4.26-5.4-9.46-8.38-17.22-7.92c-6,0.36-10.64,7.38-14.8,9.93  c-4.4-0.8-11.49-5.64-16.94-0.63c-3.97-2.94-8.81-7.97-15.08-5.98c-4.61,1.47-8.11,3.67-11.08,11.42  c-4.34-11.62-11.13-11.56-19.87-13.68c-10.11-2.44-14.51-0.03-24.77,8.43c-2.12-7.87-6.32-11.25-11.61-11.7  c-6.88-0.59-12.18,1.68-15.66,8.46c-3.51-5.71-8.65-8.92-14.7-10.1c-6.06-1.18-11.62,1.02-16,5.83c-4-7.57-9.99-9.52-17.63-8.3  c-5.08,0.81-10.1,4.54-13.24,11.29c-4.56-5.8-11.87-7.32-17.56-1.81c-14.81-14.81-16.82-2.19-34.68,1.16  c-2.99-7.98-9.59-11.24-17.4-10.76c-6.69,0.42-9.54,5.83-13.79,13.26c-1.03-11.33-4.53-17.48-14.29-17.72  c-7.45-0.18-13.13,4.99-16.95,14.13c-5.33-6.7-6.15-11.66-11.55-13.58c-6.37-2.26-12.44,0.61-16.89,3.02  c-2.91-3.66-6.5-9.01-12.75-9.08c-5.54-0.07-10.34,3.25-14.17,7.54c-4.14-3.92-9.1-9.02-14.06-9.53  c-7.07-0.73-12.02,0.49-16.39,6.04c-3.91-6.98-9.96-9.26-17.78-8.34c-5.22,0.61-9.97,5.57-13.34,11.67  c-4.08-7.71-11.99-3-16.18-3.97c-6.65-1.54-10.38-7.4-19.09-3.94c-5.53,1.58-15.17-4.84-21.38-4.79l-15.87,8.15  c-2.4-6.75-6.75-11-13.58-10.24c-5.83,0.64-11.51,3.43-13.23,9.67c-3.28-6.4-8.88-9.98-14.87-10.83  c-6.05-0.85-11.47,1.49-14.82,6.41c-3.24-8.03-10.41-9.51-17.45-8c-5.4,1.15-9.43,5.14-13.42,11.14c-3.44-8.5-11.96-2.34-16.06-3.61  c-7.8-2.42-13.3-9.24-22.63,0.02c4.53-18.29-12.44-18.59-17.94-24.39c-7.72-8.13-12.13-15.87-25.87-15.94  c-6.83-0.03-15.17-10.33-23.79-6.91c0.82-2.87,3.95-3.73,9.38-2.56c7.24-3.01,15.25-4.43,24.02-4.25  c14.35-2.74,28.59-3.45,42.7-2.11l11.46-2.69c65.62-5.91,131.41-9.15,197.39-9.69C601.02,1367.71,608.78,1368.49,624.32,1370.06z" />
<path class="cls-13" d="M272.27,787.46l4.23,0.31c19.35,17.58,46.87,15.13,67.33,0.71l4.16,0.31c3.77,2.01,7.91,3.14,13.39,3.37  c273.95,11.56,547.63,18.24,821.46,22.9l-0.77,4.53c-9.66,9.61-18.32,20.06-25.99,31.35c-32.73-16.16-69.79-20.04-102.56-1.73  l-5.25-0.04l-8.31,2.69c-283.1,0.53-566.05,0.99-848.84,1.39l-3.75-2.6C142.6,791.79,63.36,778.5,0,815.62v-40.18l9.81-1.31  c84.24,3.98,168.5,7.79,252.77,11.45L272.27,787.46z" />
<path class="cls-12" d="M182.24,591.97c5.28,3.08,8.68,12.92,10.78,19.13c2.05,3.36,2.1,6.32,0.16,8.9l-1.68,3.21l-49.61,8.08  c-7.13,1.29-13.73,3.75-19.8,7.37c1.58,1.6,1.77,2.76,0.04,3.92c1.47,7.82,66.36,18.69,77.14,20.04l1.5,2.96  c2.31-2.78,3.07-2.22,2.76,1.31l3.35,1.61c4.09,19.25,15.76,25.7,23.92,2.7l3.53-0.64l8-2.23c30.59,1.41,61.11-1.53,91.44-5.35  c4.29-1.02,5.67-0.07,5.34,3.7c-0.19,2.21-9.98,26.1-11.03,27.12c-0.49,0.47-1.36,0.56-2.33,0.54  c-54.47-16.18-87.43,48.16-53.71,88.95l0.23,4.15c-90.6-0.51-181.54-7.67-272.27-12.01V597.32l0.86-2.7  c59.88-1.78,119.76-3.52,179.66-5.25L182.24,591.97z" />
<path class="cls-10" d="M473.99,1110.12c5.21-1.18,7.81-1.77,7.81-1.77c47.68,7.79,95.39,10.18,143.12,7.17  c33.68-4.55,68.12-8.83,103.32-12.85c4.66-0.82,9.22-0.17,13.57,1.69c12.94-0.77,25.55-4.11,38.73-7.74  c28.04-7.71,56.15-8.25,84.45-9.49l4.2-0.75l14.67,9.1c6.64,3.5,10.3,7.86,10.97,13.1l-3.9,2.91l-20.33-0.06l-2.64,13.55l-3.06,1.25  l-6.47,2.68c-36.13,2.64-71.96,7.99-107.5,16.04c-55.34,9.23-110.89,17.83-166.63,25.79c-19.81,1.47-39.62,2.68-59.43,3.63  c-0.12,1.04-0.61,2.61-1.26,2.54c-91.69-10.23-183.56-22.98-276.28-37.54c-79.18-10.78-159.73-20.37-241.89-20.76L0,1116.96v-22.77  c55.01-9.28,108.84-9.99,164.71-6.46c23.31,1.47,46.59-15.14,69.71-10.46c53.11,10.75,103.54,19.89,157.82,21.72  C420.21,1099.95,447.08,1106.98,473.99,1110.12z" />
<path class="cls-13" d="M1200,335.79V517.4l-1.02,2.64c-39.74-1.42-79.5-2.85-119.26-4.27l-1.53-2.74l-1.34-1.36  c2.29-4.75,2.61-8.87,0.97-12.35c-2.62-1.95-3.48-4.11-2.6-6.49c-14.56-10.28-30.2-18.18-46.92-23.7l-2.49-3.37l-4.98-3.11  c-14.89-31.07-48.85-31.4-74.94-13.43l-3.81-0.72l-2.58-1.17c3.7-39.32,7.39-78.65,11.09-117.99l2.82-1.36L1200,335.79z" />
<path class="cls-16" d="M1200,807.16v186.84l-318.56-1.36c-1.51,2.03-6.98,1.89-8.38-0.11l-18.39-0.11c-0.74,2.1-3.36,1.99-4.42,0  c-3.05-0.38-6.14,0.19-9.16,0.2c0.24,3.2-6.2,1.36-8.03,0.02l-61.1-0.22c-1.2-0.23-1.24-0.66-0.15-1.29  c32.95-11.54,68.09-13.77,104.18-14.89c5.91-19.29,20.07-35.79,38.64-44.1c4.69-7.75,19.54-8.68,28.52-9.01  c6.75-0.24,26.58,0.93,31.7,3.98c1.37,0.82,2.23,2.14,2.83,3.59c7.59-0.51,18.97,3.63,21.36,10.77c1.03,0.75,1.84,0.69,2.44-0.19  c-4.11-1.93-4.65-10.14-0.47-12.1l-2.35-4.31c0.05-18.01,11.88-42.47,23.23-56.22c6.93-8.39,15.39-17.66,26.39-19.48  c32.66-20.04,73.8-19.54,107.27-0.32c6.93-13.51,17.1-23.73,27.29-33.79C1186.85,811.1,1195.25,809.34,1200,807.16z" />
<path class="cls-9" d="M641.35,1353.29c2.94,2.63-4.06,9.26-6.65,11.53c-2.15,1.88-3.6,2.75-6.58,3.38c0.42,2.64-2.03,2.93-3.79,1.85  c-77.54,0.89-154.86,3.83-232.15,10.03c-8.1-0.98-16.2-2.12-24.09-4.21c-114.18-30.23-228.37-60.1-344.67-81.48  c-8.01-1.72-15.74-4.5-23.41-7.34v-46.88c12.07-0.81,18.11-1.22,18.11-1.22c196.38,20.3,394.39,61.15,589.85,104.29  c5.66,1.25,11.22,2.9,16.8,4.58C630.32,1349.5,635.84,1351.37,641.35,1353.29z" />
<path class="cls-6" d="M965.62,1542.86H201.98l-0.07-2.84c71.67-26.85,143.45-53.74,215.35-80.67l10.07-0.91L965.62,1542.86z" />
<path class="cls-5" d="M865.34,1190.44c0.73-2.61,1.87-2.6,2.5,0.05l3.82-2.07c9.18,0.92,18.4,1.19,27.65,0.82l3.5,2.7l2.3,3.61  c-0.45,9.17-1.42,18.29-2.92,27.34l-3.42,2.78l-13.02,0.97c-103.37-4.73-206.78-6.7-310.25-3.61  c-114.92,3.43-227.79,12.87-341.12,22.56l-6.18,2.77c-18.73,1.61-37.43,2.93-56.1,3.94l-3.22-1.28c-2.96,6.25-14.29,3.31-19.6-0.09  c-5.26-1.74-10.71-1.55-16.35,0.55c-6.39-6.77-10.23-5.12-17.31-1.4c-5.31-5.58-12.52-7.31-21.63-5.19  c-9.39-3.76-18.37-4.19-26.93-1.28c-12.76-4.79-37.94-12.82-50.73-7.8c-3.24,4.4-14.13,0.57-16.34-3.66v-10.71  c4.6-1.22,9.21-2.38,13.86-3.35c4.64-0.96,9.29-1.88,13.97-2.41c112.05-12.76,225.93-19.1,338.62-23.54  c70.67-2.78,141.41-5.37,212.12-2.72l3.03-2.69c14.97,0.81,29.92,0.76,44.85-0.15l3.66-2.23l22.35,2.17l207.3,1.2L865.34,1190.44z" />
<path class="cls-13" d="M250.57,366.97c4.42,0.62,3.9,4.33-0.12,5.64l-1.4,2.8c-11.15,2.58-22.35,4.99-33.62,7.22l-2.45-2.23  c-1.98-1.42-2.97-2.13-2.97-2.13L96.3,402.72c-13.7,3.16-27.16,7.54-39.88,13.56c1.14,2.04-0.09,4.04-3.69,6.01  c-1.81,5.55,6.76,10.85,10.98,13.3c20.07,11.67,44.02,18.31,66.44,23.41l2.59,2.97l3.32,1.23l5.97,17.07l-1.48,3.09l-0.97,2.66  c-45.99-0.84-91.98-1.68-137.98-2.52L0,480.8V321.43l132.55,2.77l76.5,3.21c0.67,16.87,0.41,30.97,3.36,47.42  C225.83,370.68,238.53,369.88,250.57,366.97z" />
<path class="cls-7" d="M524.87,1174.37l17.26-0.61c27.75,3.32,55.43,6.64,83.05,9.97l1.27,2.85c-14.28,5.55-31.9,2.61-47.88,2.84  c-72.05-1.96-144.1-4.52-216.14-7.69c-112.89-4.94-225.61-0.78-338.38,3.41c-8.04,0.3-16.06-0.38-24.05-1.21v-66.96  c41.58-1.04,82.62-0.19,124.73,4.9l118.21,14.27c33.35,4.03,64.05,10.84,97.37,15.03L524.87,1174.37z" />
<path class="cls-8" d="M1200,1127.23v80.66l-3.82,1.98c-10.94-1.08-21.94-1.61-32.98-1.59l-3.38-2.94l-10.19,0.87  c-70.52-4.12-141.06-7.79-211.62-11.02l-10.02-2.11l-2.85-1.29l-5.83-24.38c-1.18-6.61,0.41-10.52,4.77-11.73  c-2.06-3.88-6.51-17.71,1.29-15.95l1.52-0.94c11.77,14.92,23.11,30.58,34.04,46.97l16.32-15.54l-37.39-27.38l0.3-3.1l0.68-3.15  c6.66-1.23,13.5-1.26,20.52-0.09l1.54-15.24l2.83-1.65c10.4-1.91,15.6-2.87,15.6-2.87c67.76,0.9,135.48,3.31,203.15,7.25  C1184.49,1123.98,1189.66,1125.06,1200,1127.23z" />
<path class="cls-6" d="M325.36,1443.63c0.21,1.05,0.29,2.71-0.43,2.94c-91.46,29.28-185.87,58.56-278.59,86.38  c-13.52,4.53-27,8.62-40.99,9.91H0v-81.7l290.49-22.26C302.96,1437.95,314.32,1440.95,325.36,1443.63z" />
<path class="cls-2" d="M1200,1327.86v77.81l-246.41-19.42c-1.06,0.04-2.69-0.11-2.82-0.84c-3.79-21.01-7.5-46.17-9.48-67.38  c-1.29-3.57-0.72-5.9,1.72-6.99c1.58-4.72,7.48-21.03,12.33-21.61c5.47-0.66,19.65,12.98,18.31,19.72l6.05,8.99  c-0.06,6.71,1.82,11.93,5.65,15.67c-0.92,10.23-1.76,20.34-2.52,30.33l12.48,4.01c-10.68-4.79-7.41-25.08-5.36-35.25  c1.91-9.48,14.61-40.22,21.74-43.82c8.75-4.43,28.33,29.19,26.52,37.82c4.69,7.86,5.46,16.97,2.31,27.3l-3.11,12.64  c4.89-0.42,9.64-0.03,14.25,1.16c6.96-12.77,18.21-13.11,30.99-11.03c12.66,2.06,29.87,5.98,39.7,14.13  c0.94-1.91,1.25-4.46,0.95-7.65c7.02-2.22,10.83-6.32,11.45-12.3c-1.48-12.7,1.97-18.65,10.32-17.86c4.69,3.31,7.39,1.01,8.1-6.89  c4.96-5.55,12.23-6.58,21.81-3.1c7.4-6.42,14.22-3.6,19.47,4.01C1196.88,1325.6,1198.72,1325.78,1200,1327.86z" />
<path class="cls-13" d="M153.76,517.01c11.78,18.5,20.13,41.29,26.96,62.41c1.31,4.04,1.46,8.33,1.53,12.55L0,597.32v-81.7l0.95-2.67  c50.09,0.45,100.2,0.9,150.32,1.36L153.76,517.01z" />
<path class="cls-8" d="M578.57,1189.42c-193.18,2.79-386.51,10.19-578.57,32.01v-37.5C190.87,1171.48,388.96,1177.25,578.57,1189.42z  " />
<path class="cls-8" d="M392.17,1380.09c-22.26,1.79-44.39,6.07-66.72,6.36c-12.67-0.14-25.34-2.34-38.01-6.61  c-6.16-0.7-11.42-2.91-15.78-6.65l-23.1-4.16c-8.49-9.62-21.78-13.27-34.23-9.43l-9.6-0.46c-49.43-10.68-99.07-20.34-148.92-28.98  c-19-2.02-37.6-5.68-55.8-10.97v-32.14C131.61,1312.75,263.98,1342.25,392.17,1380.09z" />
<path class="cls-4" d="M214.32,1359.6c-7.92,2.44-12.47,12.64-15.34,19.17c-15.72,0.54-32.79,8.18-34.94,24.94l-1.54,2.38  c-53.84-13.23-107.69-26.47-161.55-39.71L0,1363.39v-44.2C71.83,1328.72,143.91,1342.63,214.32,1359.6z" />
<path class="cls-2" d="M168.88,1251.01c5.76,1.55,11.7,2.2,17.82,1.95c19.55,4.65,39.35,6.75,59.39,6.3  c8.66,3.88,12.98,5.82,12.98,5.82c15.02,0.32,29.79,2.68,44.28,7.1c10.65-1.57,19.52,0.47,26.61,6.14c4.76-0.44,9.29,0.16,13.59,1.8  c17.46-5.27,37.26,3.18,53.06,10.51l4.85-1.25c33.8,6,67.37,13.61,100.71,22.82c22.19,3.9,44.22,8.22,66.1,12.96  c28.7-5.15,57.02-12.58,84.96-22.3l9.59,0.24c2.11-1.15,4.24-2.26,6.43-3.2c2.18-0.93,4.35-1.82,6.6-2.36  c32.68-7.83,65.55-15.37,98.24-22.74c23.22-7.2,46.92-12.36,71.1-15.47c15.25-5.9,30.75-9.81,46.51-11.72l2.86,1.91  c5.27-1.89,5.09,8.24,0.05,8.27l-12.24,4.33c-91.97,19.85-183.28,42.35-273.94,67.5l-13.04,0.95c17.81,2.43,36.51,6.39,53.07,13.57  l0.94,3.15c2.77,3.74-5.57,11.36-8.05,6.02c-141.49-31.08-283.33-60.72-426.92-85.15c-71.61-12.18-142.91-22.56-214.42-27.96v-8.04  c4.57,0.62,8.71,1.7,12.71,4.18c2.67-11.19,50.6,0.99,54.49,4.83c9.33-4.88,16.26-1.48,25.06,0.76c7.14,1.82,18.43-4.55,23.6,6.21  c6.33-6.78,13.79-4.54,17.66,1.15c7.84-4.42,16.71-2.01,23.53,2.78L168.88,1251.01z" />
<path class="cls-13" d="M1056.83,526.4l9.63-2.34c44.07,1.55,88.07,3.1,132,4.64l1.54,2.73v43.13c-20.85,3.38-43.34-2.89-62.54,4.26  c-5.14,3.01-16.47,0.14-20.36-4.24c-23.03-2.88-46.16-3.75-69.39-2.61l-2.97-1.68c-1.06-0.06-2.65-0.31-2.75-1.05  c-0.62-4.69-2.74-37.03-1.72-38.81C1041.37,528.51,1055.17,522.51,1056.83,526.4z" />
<path class="cls-10" d="M1200,1098.86v28.37c-78.08-2.59-156.19-9.08-234.27-7.62l-1.68-1.38c-3.95,1.17-5.68-1.08-5.18-6.75  l-15.02,0.67c-6.01,0.78-9.4-0.64-10.15-4.24c0.99-5.19,11.46-14.98,16.01-10.04c50.77,11.84,64.3-11.45,131.2-6.97L1200,1098.86z" />
<path class="cls-8" d="M164.04,1403.71c-0.3,2.36,0.99,4.68,0.29,8.27c-17.58-6.41-36.29-2.19-48.09,12.43  c-4.28-7.01-10.97-10.17-18.5-9.52c-7.86,0.68-12.23,6.47-17.31,14.58c-12.59-14-28.04-21.56-44.59-11.8  c-5.76,3.4-13.62,12.32-21.78,8.81c-4.64-1.99-7.63-10.51-14.05-9.52v-53.57L164.04,1403.71z" />
<path class="cls-14" d="M140.54,483.37c1.57,0.47,3.2,1.12,4.21,2.48c2.75,3.71,8.75,21.13,10.06,26.44l-1.05,4.71L0,515.62V480.8  L140.54,483.37z" />
<path class="cls-6" d="M407.06,1455.79l0.03,2.84c-74.69,27.13-149.55,54.33-224.58,81.59l-15.1,2.63h-57.59l0.05-2.84l263.98-87.48  l10.25-0.57C391.92,1451.9,399.43,1455.12,407.06,1455.79z" />
<path class="cls-14" d="M0,141.96V80.36l97.64,10.61c-25.35,13.06-44.82,28.06-51.74,53.44L0,141.96z" />
<path class="cls-6" d="M369.82,1450.06l-0.09,2.84c-91.72,29-183.66,58.07-275.83,87.22l-17.56,2.74H33.48l0.08-2.84  c98.99-31.4,198.14-62.81,297.45-94.24l10.21-0.47C350.87,1446.41,360.55,1447.93,369.82,1450.06z" />
<path class="cls-8" d="M369.82,1450.06c4.59-1.45,9.8,1.93,14.28,1.9l-274.28,90.9H76.34L369.82,1450.06z" />
<path class="cls-8" d="M427.33,1458.44l-225.35,84.42h-34.57l239.65-87.06C413.94,1456.4,420.49,1457.36,427.33,1458.44z" />
<path class="cls-8" d="M341.23,1445.31l-307.75,97.54H5.36l320-99.23C330.07,1442.17,336.52,1444.78,341.23,1445.31z" />
<path class="cls-2" d="M1200,1207.89v5.72c-5.11,1.5-10.3,2.86-15.63,3.27c-78.47,6.11-156.73,12.71-233.45,31.7  c-5.25,1-10.62,1.01-15.95,0.88c-3.88-0.17-4.48-5.7-0.85-6.86c1.81-7.02,13.58-8.96,20.28-10.07c5.92,1.07,11.86,1.34,17.82,0.81  l1.13-2.47c56.78-9.69,113.57-17.77,170.39-24.22c5.56,0.48,10.8,0.69,16.08-1.31C1173.4,1206.6,1187.14,1204.99,1200,1207.89z" />
<path class="cls-14" d="M1200,517.4v14.04l-143.17-5.03l1.26-3.37c5.85-2.97,11.33-6.54,16.46-10.7l3.63,0.7L1200,517.4z" />
<path class="cls-3" d="M1111.55,208.71c2.71,3.54,6.66,6.67,6.23,11.73c-1.39,16.16-32.55,30.74-46.04,34.46l-115.12,31.78  l-2.49-2.22c1.68-22.55-5.23-8.6-5.85,4.4l-2.67,1.87c-14.8,8.24-32.71,13.26-49.62,14.33c-3.31,2.52-5.73,3.11-7.26,1.75  c-11.14,6.14-23.46,9.84-36.03,11.76l-3.4-2.41l-2.64-1.32l2.87-89.99c0.11-0.79-1.43-4.47-1.92-4.16  c-4.9,3.07-9.8,30.27-6.09,35.15c0.18,20.49-0.76,40.95-2.8,61.4l-2.84,4.44l-0.6,2.58c-31.09,8.9-62.33,17.52-93.72,25.88  l-2.27-2.16c-0.13-2.44-3.16-1.37-9.09,3.22l-1.57,1.9c-17.95,6.57-36.38,12.14-55.3,16.69c-5.59,2.5-10.87,3.04-15.83,1.62  c-1.8,2.02-4.49,1.42-8.06-1.78c0.98,0.59,1.15,1.79,0.52,3.62c-0.89,1-1.8,1.97-2.84,2.78c-5.01,3.96-38.47,13.19-44.69,12.22  c-1.3-0.2-2.58-0.6-3.85-1.05l-2.7-1.78c0.96-6.35-1.6-5.29-7.68,3.17l-3.19-0.05l-3.92,2.19c-19.2-5.11-38.53-9.5-57.99-13.17  l-3.66-2.94l-2.55-2.01c5.27-10.79,10.19-21.62,14.76-32.49l-2.7,0.26c-5.19,10.56-10.91,20.85-17.16,30.88l-4.16,2.22l-3,2.8  c-10.69-0.66-21.21-0.42-31.76,1.29c-7.36,10.73-20.2,20.46-32.33,25.35c-2.7,4.54-16.44,1.47-21.05-0.42l-1.88-3.16l-3.84-2.05  l-9.73-30.72c-1.3-4.14-3.63-7.26-6.98-9.36c3.4,12.79,7.57,25.52,12.51,38.21l-2.47,2.35l-6.25,0.94  c-34.09-3.99-68.24-7.69-102.47-11.08l-11.93-3.5l-2.09,2.5c-11.17-3.81-21.93-4.92-32.28-3.33l-2.82-1.67  c-4.11-2.04-3.04-7.69,1.19-9.04c1.89-1.1,3.79-2.15,5.78-3.03c1.96-0.87,3.92-1.71,5.96-2.18c51.43-11.93,103.23-23,155.46-30.88  c152.41-49.2,305.72-96.35,458.83-142.83c66.64-20.23,133.47-27.94,200.1-3.35C1089.15,194.97,1101.41,199.6,1111.55,208.71z" />
<path class="cls-8" d="M1111.55,208.71C1032.9,167.42,957.34,171,873.8,197.33c-151.82,47.85-304.5,91.7-455.5,141.78  c-57.35,7.94-112.49,22-167.85,33.5c0.5-1.84,0.5-3.79,0.12-5.64c74.92-18.14,151.17-32.42,225.84-55.19l456.34-139.15  C980.27,158.14,1083.1,171.63,1111.55,208.71z" />
<path class="cls-1" d="M956.61,286.68L953.39,328l-11.33,120.53c3.9,1.22,2.23,9.21-1.73,9.32c-2.21,3.8-7.35,3.97-9.77,0.28  l-2.59-1.16c3.67-42.48,7.33-84.98,11-127.48l2.81-1.4l-2.3-3.87c1.63-9.93,2.79-19.91,3.47-29.92l2.65-3.56  c-0.25-7.87,2.17-17.85,7.6-23.44C958.53,272.8,957.1,280.45,956.61,286.68z" />
<path class="cls-12" d="M1048.28,849.17c-28.09,17.23-45.39,47.52-47.27,80.01l-2.09,2.74c0,0-7.08-0.41-21.24-1.22  c-20.44-6.14-43.05-7.5-63.04,1.44c-165.39-1.21-332.88-0.15-498.19,5.72c-25.54-16.03-57.79-17.12-83.05-0.57l-6.93,2.68  c-37.33-0.01-75.31-0.02-112.56-0.02l-1.62-2.68c3.9-30.15-6.04-61.8-24.91-86.61L1048.28,849.17z" />
<path class="cls-13" d="M741.81,1104.36c-22.3,1.32-44.21,4.3-66.72,7.29l-42.29,5.63c-53.18,7.07-106.39-1.02-158.81-7.15  c4.04-12.64,15.36-21.06,24.13-30.22l7.72-1.99c37.16,1.18,74.35,0.92,111.56-0.8c33.66,2.21,66.36,1.66,98.12-1.65  C724.48,1084.6,736.01,1092.34,741.81,1104.36z" />
<path class="cls-14" d="M715.52,1075.46c8.19,8.01-71.23,4.95-74.76,4.79c-47.94-2.2-96.43,4.42-142.64-0.35  C556.14,1019.2,662.49,1021.37,715.52,1075.46z" />
<path class="cls-13" d="M949.73,1097.86c-6.5,0.26-10.34,7.46-16.01,10.04c0.43,2.12-3.89,4.63-5.56,4.79  c-8.17,0.75-6.43-7.38-1.28-9.16c-0.73-3.05,1.84-9.68,5.46-9.32l29.1-41.38c8.31,6.3,14.96,13.37,20.94,20.8L949.73,1097.86z" />
<path class="cls-10" d="M932.34,1094.21c-1.3,2.98-1.78,7.6-5.46,9.32l-1.17,2.46c-6.59,0.26-13.22,0.34-19.87,0.24l-1.9-2.68  c-4.85,4.9-11.54-8.63-9.05-13.08C907.42,1089.56,919.85,1092.81,932.34,1094.21z" />
<path class="cls-12" d="M841.09,992.61c0.44,2.75-0.18,4.85-2.84,3.14c-1.92-1.23-5.66-0.26-5.19-3.12L841.09,992.61z" />
<path class="cls-12" d="M881.44,992.63c0.58,2.42-2.03,2.57-3.55,2.61c-2.27,0.06-5.47,0.19-4.83-2.72L881.44,992.63z" />
<path class="cls-12" d="M854.67,992.41c0.56,0.67,0.23,1.45-0.2,2.03c-0.74,0.98-2.16,0.85-3.31,0.59c-0.86-0.19-1.58-1.71-0.9-2.62  C851.69,992.59,853.22,992.41,854.67,992.41z" />
<path class="cls-3" d="M537.16,551.61l-0.58,2.89l-67.48,15.99c1.06,1.6,2.38,2.69,3.96,3.27c15.48-4.44,31.13-8.21,46.97-11.31  l6.3,1.26l5.73,0.59c49.4,19.32,99.87,36.11,151.16,49.91l197.12-44.37l2.19,2.25l9.4-0.15c10.15,3.11,20.12,6.24,29.91,9.39  l0.93,2.41l-0.26,2.47c-2.68,0.21-4.39,1.19-5.15,2.95l10.85,0.44c32.37,8.39,65.01,15.33,97.95,20.82l4.98,2.41  c-8.69,5.68-19.06,8.23-29.36,9.75l-51.69,2.5c-83.95-2.98-167.89-3.25-251.8-0.81L633.41,629c-37.68-9.53-75.49-18.38-113.44-26.55  c-4.52-3.52-5.02-3.14-1.49,1.13c1.21,10.59,2.95,21.06,5.22,31.43l-1.5,4.86c1.8,6.43-0.16,14.27,3.27,21.78  c36.05,5.54,56.76,41.59,46.41,76.48c-7.34,24.74-28.62,41.86-54.2,41.38c-25.25-0.47-45.41-18.83-53.03-42.98  c-4.56-0.11-5.76-10.32-1.86-12.11l-2.96-2.37c0.23-12.04,2.9-23.76,8-35.17l-14.29-35.93l-40.06,6.12l-2.36-2.34  c-0.93-0.81-1.58-1.8-1.77-3.02c-0.21-1.3,12.45-20.28,14.31-21.65c6.86-0.49,13.76-0.36,20.69,0.4  c-5.1-14.45-11.11-28.6-18.03-42.44c-40.05-10.74-79.3-24.67-116.63-43.05c-1.12-0.55-2.07-1.46-3.03-2.41  c-0.98-0.97-1.84-2.07-2.65-3.21l0.26-5.98c14.04-25.8,21.58-54.7,19.12-84.15l2.14-5.62l4.18-1.2c19.43,1.11,38.78,3.31,58.04,6.16  c68.61,10.15,140.59,22.73,209.32,40.26l-1.83,3.89c-17.68,18.38-35.23,36.84-52.65,55.36L537.16,551.61z" />
<path class="cls-1" d="M411.12,654.73l-1.06,4.16c-16.58,23.1-32.35,46.8-47.33,71.08l98.23-8.09l1.84,2.54  c0.57,3.79,0.71,8.48,1.86,12.11l-100.31,10.93c0.04,1.47-0.73,2.5-2.29,3.08c-3.88,45.81-62.21,61.63-84.14,18.51  c-17.46-34.33,6.38-81.96,47.22-71.93c0.61-2.8,1.88-4.57,3.81-5.31c8.89-23.66,18.26-47.06,28.1-70.18  c-12.97-1.78-25.44-4.92-37.41-9.41l-2.11-2.46l-8.37-0.41c-3.76-0.37-6-1.83-6.72-4.37l-6.78-0.65l-21.14-11.55l4.74,13.58  l-1.85,2.71c0.68,4.96-10.28,6.33-9.47,0.44l-2.94,0.02c-5.85-12.81-11.7-25.63-17.56-38.45l1.63-2.89  c3.22-2.68,7.58-4.14,13.08-4.4c5.66-2.72,10.75-3.54,15.27-2.49c4.57,1.89,5.46,1.5,2.67-1.15c-0.47-0.97-1.15-2.41-0.59-3.03  c3.48-3.85,11.17-10.13,15.47-13.44c3.12-3.96,6.13-5.4,9.05-4.31c20.48,9.58,40.8,19.42,63.29,27.51  c12.59-17.76,17.76-37.66,24.27-58.95c-0.3,21.58-11.24,40.56-22.11,59.2c18.85,7.78,38.51,12.63,58.48,18.96  c8.3,15.27,14.29,31.03,21.09,47.36l-24-1.41C420.6,640.36,413.6,646.48,411.12,654.73z" />
<path class="cls-3" d="M364.33,747.46c0.78,15.86-7.92,28.46-16.34,41.34c-23.55,17.6-53.95,20.38-75.72-1.34  c-18.57-18.52-21.26-49.11-9.09-71.04c13.26-23.89,38.97-32.41,64.15-24.05c4.09-9.29,7.76-17.47,10.39-27.31  c-35.33,4.81-69.25,7.88-103.41,5.52c-1.06-0.43-0.99-0.81,0.15-1.13l-1.27-5.21c3.54-12.52,6.12-25.36,6.56-38.39l2.73-4.58  c-0.16-1.18,0.24-1.2,1.12-0.25c4.47-2.46,6.71-3.69,6.71-3.69l56.35-8.04l10.85,0.46c13.81,3.96,27.65,7.37,43.38,9.61  l-52.16,123.38c1.69-16.09,11.79-28.25,15.38-43.65c-14.78-3.73-28.9,2.3-37.8,12.71c-9.53,11.14-12.94,25.61-11.01,40.04  c2.88,21.46,19.31,38.81,40.2,39.83c21.57,1.06,39.01-15.26,43.26-36.94c0.38-1.92,0.59-3.87,1.19-5.63  C360.55,747.37,362.67,747.64,364.33,747.46z" />
<path class="cls-14" d="M1124.3,795.24c13.73-3.19,28.6-5.97,41.3,2.63l-344.68,0.04c10.42-16.56,30.19-19.32,48.02-13.81  c-0.24-10.85,2.87-19.84,11.74-26.87c21.81-17.29,53.87-18.35,76.47-1.83c7.75,5.67,12.09,12.93,14.54,22.35  c17.85-6.31,35.34-1.84,47.3,11.65c18.18-7.61,38.32-8.76,53.6,3.97C1089.84,786.16,1108.58,786.5,1124.3,795.24z" />
<path class="cls-1" d="M1001.79,622.59c-25.7,3.82-51.76,4.94-77.68,7.02c-2.07,3.93-10.15,3.25-13.54,1.24l-285.01,8.26  c-35.4,1.03-69.09,2.36-103.37,0.76c-3.53-12.6-4.97-25.91-7.04-40.85c40.33,6.75,78.63,18.43,118.55,27.34l34.89-2.79  C779.39,614.69,891.29,623.65,1001.79,622.59z" />
<path class="cls-1" d="M1117.1,574.59c6.84,0.64,13.64,2.73,20.36,4.24c2.99,0.67,7.13,5.02,7.52,7.72  c2.54,17.77-99.01,26.94-113.83,26.29c-38.22-4.49-76.54-12.97-113.78-23.67c1.2-1.47,2.69-2.54,4.56-2.89  c41.62-7.92,91.18-13.03,133.6-14.35C1076.11,571.28,1096.78,571.52,1117.1,574.59z" />
<path class="cls-3" d="M933.32,661.18c2.64-0.39,5.36,0.89,8.18,3.84c3.81,2.04,4.36,0.47,1.64-4.7c-2.93-3.47-3.81-6.43-2.62-8.9  c7.19-2,14.77-0.97,19.04,6.08c3.33,5.51,3.16,13.33-2.46,18.78c-4.46,4.32-12.98,6.45-19.86,1.3  C933.18,674.54,927.45,665.57,933.32,661.18z" />
<path class="cls-2" d="M924.11,629.6c4.75,7.79,10.66,14.82,16.41,21.82c3.24,3.95,6.68,9.53,7.33,15.18  c-4.16,4.92-11.2-0.98-14.52-5.41l-22.75-30.33C914.49,628.63,920.06,629.93,924.11,629.6z" />
<path class="cls-4" d="M325.45,1386.45c-3.53,0.05-6.73,2.13-9.38,2.56c-10.98,1.79-26.01,10.85-33.34,0.23l-11.08-16.05  L325.45,1386.45z" />
<path class="cls-11" d="M333.4,937.29c-16.01,10.49-24.72,29.12-26.03,46.37c-18.46-36.02-63.47-44.09-97.9-24.66l2.81-21.73  L333.4,937.29z" />
<path class="cls-3" d="M818.44,1372.43c1.56,2.41,1.92,3.48-1.33,4.46l-0.3,37.34l-49.52-0.06l-2.69-1.18l-0.32-33.18  c-13.07-0.13-19.61-0.2-19.61-0.2l-0.18,32.77l-2.69,1.95l-110.87,0.42l1.18-40.52l2.76-1.79c18.55-0.53,37.14-1.58,55.77-3.15  c20.51-15.24,40.41-31.3,59.68-48.18l4.32-1.54l60.88,46.09C817.9,1367.17,818.57,1369.64,818.44,1372.43z" />
<path class="cls-13" d="M924.07,1155.67c-6.41,10.59,2.83,25.5,3.91,37.4l3.02,3.92l2.91,26.77l-1.73,4.64  c4.63,1.34,5.5,11.25,1.94,14.19c0.39,2.08,0.58,4.76,0.85,6.86l2.77,0.55c2.64,19.08,5.03,38.18,7.18,57.31l-1.92,3.72l10.59,75.21  c2.52,17.92,5.15,36.46,5.69,55.94c-10.72-17.97-6.36-38.23-11.41-56.23l-3.36-2.32c0.23-6.83-0.53-13.37-2.29-19.62  c-3.14,0.35-5.27-2.03-6.39-7.13c-3.83-2.03-8.84-2.61-15.01-1.76c-0.22,2.34-1.14,3.74-2.76,4.21c3.56,6.52,5.1,18.86-0.28,24.06  l-0.02,39.97c0.97,0.33,1.34,1.4,1.12,3.21c-3.34,4.78,3.64,13.27-4.94,14.52c-4.55-12.69,3.68-54.26-4.55-58.61l-1.12-2.73  c3.78-2.45,2-23.05,0.89-23.76c-0.88-0.56-19.91-0.9-20.82-0.38c-0.76,0.44,0.14,15.48,1.48,17.48l-1.64,2.41  c-11.68-1.35-7.68,57.6-17.88,67.18c-1.3-21.29,4.79-41.76,6.82-62.01c-0.58-0.99-1.12-1.99-1.48-3.06  c-2-5.93,1.36-23.56,5.57-28.86l-2.47-1.62c4.29-29.09,8.58-58.2,12.87-87.32l3.01-2.06c0.4-2.71,2.08-5.75-0.05-8.27l-1.74-2.7  c-0.12-1.93,3-20.2,3.98-20.61c0.62-0.26,1.29-0.41,1.97-0.53c3-11.1,2.67-22.61,4.04-33.72l-2.27-3.02  c2.61-9.93,4.26-19.96,4.95-30.12l2.49-2.8C910.1,1151.33,921.41,1151.57,924.07,1155.67z" />
<path class="cls-2" d="M881.2,1348.77c-1.52,10.34-3.04,21.48-4.09,31.92l-60-3.8c0.01-1.44-0.68-3.96,1.33-4.46l3.72-5.81  c-2.11-2.96-0.1-4.25,2.43-5.84c7.82-2.25,16.15-2.67,24.99-1.24c6.62-3.23,13.12-4.81,19.48-4.73  C870.58,1350.39,878.11,1342.17,881.2,1348.77z" />
<path class="cls-1" d="M767.29,1414.17l-25.48,0.15l0.2-37.6c8.72-0.58,16.62-0.19,24.92,0.22L767.29,1414.17z" />
<path class="cls-13" d="M822.16,1366.61c1.01,0.55,1.52,3.1,2.24,3.79c1.39,1.33-0.8,2.16-1.62,2.05c-1.49-0.2-2.98-0.37-4.34-0.02  c-17.64-19.88-43.33-32.67-63.99-51.72l-63.21,50.19c-19.65,3.44-39.86,3.3-59.12,3.32c-2.08-2.46-5.97-1.45-7.81-4.17  c1.01-0.8,2.41-1.86,3.79-1.85l5.54-2.59c18.49,0.94,36.95,0.82,55.38-0.34c18.98-13.77,37.21-28.42,54.71-43.94l5.09-1.98  c-0.01-5.63,5.8-4.04,9.86-1.68c19.83,15.08,39.93,29.75,60.29,44.03L822.16,1366.61z" />
<path class="cls-2" d="M909.38,1382.5c-6.97,5.56-16.07,0.04-21.21-6.98c-4.11-5.61-1.53-15.79-2.84-22.45  c9.66-0.68,16.23-0.14,26.74,0.4C912.24,1362.79,916.08,1376.1,909.38,1382.5z" />
<path class="cls-2" d="M942.22,1364.03c7.73,2.18,2.75,14.53,5.65,21.93c-3.3-1.87-8.79-0.07-11.95-1.14  c-4.78,4.47-8.22,4.88-10.32,1.23c-0.6-1.47-2.96-1.85-4.18-2.56c-0.56-0.67-0.77-0.64-1.34,0c-0.68-0.3-1.6,0.12-2.32-0.08  c0-7.83,1.58-16.3,0.28-24.06c2-2.51,4.16-1.3,6.49,3.63C930.13,1360.7,936.02,1361.06,942.22,1364.03z" />
<path class="cls-5" d="M935.92,1384.82c-4.78,13.06-9.38,26.48-15.83,38.84c3.53-25.98,13.76-17.44,5.52-37.62  C929.91,1388.36,932.69,1381.13,935.92,1384.82z" />
<path class="cls-1" d="M146,465.01c3.96,2.1,6.6,5.99,7.9,11.66c2.28,3.81,2.21,6.49-0.21,8.06l3.38,2.59  c3.66,10.47,7.82,20.77,12.48,30.88c0,0-0.46,1.36-1.38,4.07c2.82,4.22,5.57,8.54,7.37,13.3c7.07,18.62,13.99,37.49,20.66,56.26  c1.71,4.8,2.44,9.87,3.05,14.92c3.6,1.51,4.09,4.61,0.41,6.39c1.03,2.57,2.22,7.57-1.48,8.06c-1.28,3.75-4.37,2.26-5.01-1.2  c-2.58-9.7-7.74-18.61-10.93-28.03c-8.58-25.3-18.57-50.17-28.49-74.95c-4.51-11.29-7.59-22.87-13.22-33.64  c-3.14-6.01-5.25-14.86-7.8-21.39l-3.78-2.3c-2.53-3.3-13.07-36.27-12.02-39.66c1.65-5.31,8.05-4.95,11.76-1.93  c2.88,2.34,16.92,37.9,19.04,44.09L146,465.01z" />
<path class="cls-3" d="M198.28,626.83c0.22-1.18,0.58-1.16,1.09-0.01c1.05,0.09,2.63,0.37,2.72,1.12c0.97,7.92,1.43,21.82,1.06,29.77  c0.97,4.08,0.17,6.7-2.4,7.89c-14.59-2.47-73.2-10.68-80.68-21.33c-1.96-2.79,1.11-3.93,2.01-5.59c3.25-2.57,7.14-3.91,11.06-5.05  c10.49-3.05,54.6-11.65,62.13-8.51C196.33,625.55,197.32,626.16,198.28,626.83z" />
<path class="cls-10" d="M242.48,621.27c0.16,16.32-3.33,32.55-8.02,48.18c-0.62,1-1.47,2.14-2.59,2.47  c-1.24,0.38-24.55-1.67-25.76-2.12l-2.61-2.9c-1.06-0.09-1.86-1.16-2.76-1.31l-1.38-38.78l3.74-2.82c6.32-1.3,30.46-5.46,35.12-4.98  C239.89,619.18,241.28,620.17,242.48,621.27z" />
<path class="cls-8" d="M198.19,621.2c3.82,1.6,3.86,3.89,0.1,5.63c-25.51,0.33-51.15,6.27-76.2,11.84  c7.2-13.37,46.69-11.85,71.09-18.67C194.72,619.57,196.67,621.13,198.19,621.2z" />
<path class="cls-13" d="M234.47,669.45c-0.1,0.33,0.04,0.85-0.15,1.13c-4.4,6.27-6.25,18.71-16.01,18.02  c-10.18-0.73-12-13.88-14.8-21.7L234.47,669.45z" />
<path class="cls-8" d="M864.9,1126.23c2.43,1.89,3.66,5.19,3.7,9.91l12.31-0.54c5.08-0.61,7.85,0.72,8.3,3.99l0.79,2.71l-39.46,27.54  l15.48,17.38l-0.69,3.21l-212.92-1.23c-9.44-0.05-17.7-1.63-25.96-2.62l-101.58-12.21c24.15-6.29,50.09-4.1,76.41-8.3l145.99-23.25  C787.04,1136.5,824.62,1125.62,864.9,1126.23z" />
<path class="cls-5" d="M926.88,1103.53c-0.65,1.21-0.47,4-1.44,5.44c-3.65,5.44,5.94-2.02,8.27-1.06c8.79,3.62,18.93-0.36,28.12,1.23  c0.18,7.47-1.08,6.04,0.47,7.57c1.24,1.22,0.12-3.88,2.51-6.25c1.42,3.01,1.17,6.19,0.91,9.16l-1.68,19.54  c-8.62,0.44-16.81-2.71-23.9,0.59c-1.29,2.73-3.66,2.73-7.12,0c-4.18-3.95-6.14-4.35-5.89-1.18l-1.78,1.17  c-5.24,4.14,2.69,10.6-1.29,15.95c-5.38,0.12-10.76-0.45-16.09,0.33c-3.36,5.57-7.32,1.44-7.63-4.37c1.49-4.25,2.24-8.28,2.27-12.08  c-1.2-0.69-1.8-1.98-1.8-3.87c-4.47,3.99-8.34,5.29-11.6,3.91c-7.21-2.69-14.83-0.36-23.18-0.61c0.27-4.18-2.01-9.17-1.14-12.75  c1.3-5.36,2.48-10.17,3.1-17.38c9.56,0.01,18.11,0.39,26.83-0.27c0.58-2.77,2.59-3.46,6.04-2.06c0,0,1.02-0.99,3.06-2.96  L926.88,1103.53z" />
<path class="cls-3" d="M1075.21,492.84c2.66,2.75,5.98,4.98,6.56,9.17c0.56,4.09-1.98,7.39-3.58,11.03  c-6.9,4.81-13.46,10.61-21.35,13.36l-14.53,5.08l2.43,38.81l-4.23,1.96c-65.67,7.38-98.51,11.07-98.51,11.07l-4.5-1.3  c-14.42-1.15-30.91-4.06-44.4-9.45c-1.05-0.42-1.18-1.84-0.92-3.14c0.39-1.24,0.86-2.59,1.94-3.23c3.76-2.25,16.17-1.92,20.89-1.37  c-0.99-2.53,1.08-3.26,6.19-2.18l0.26-2.82l39.37-9.69l-137.99-55.57l-0.51-3.09c0.93-0.92,1.88-1.81,2.93-2.54  c1.02-0.72,2.03-1.39,3.13-1.69c71.73-19.96,144.37-30.52,217.21-8.07C1056.3,482.46,1066.25,485.8,1075.21,492.84z" />
<path class="cls-8" d="M940.33,457.84c1.18-0.67,2.37-1.29,3.63-1.73c1.24-0.44,2.44-0.86,3.62-0.82  c13.23,0.35,26.45,0.73,39.64,1.97c10.61,1,21.75,2.09,32.12,4.43c1.16,0.26,2.25,0.89,3.34,1.58c1.12,0.71,2.14,1.58,3.13,2.51  c17.91,4.02,37.48,14.7,49.41,27.06c-55.97-24.61-120.48-28.19-181.47-18.36c-24.91,4.02-47.84,11.42-71.41,17l-3.91,3.63  c-12.85,2.32-25.56,5.2-38.14,8.64l-7.35-0.29c-0.34,2.77-3.01,3.3-8.01,1.57l-0.27,2.83c-76.81,18.89-153.71,37.8-230.69,56.73  l-7.63-0.88c-17.05,4.19-34.62,6.95-52.36,12.54c-3.83,1.21-8-5.35-9.32-7.54l72.5-17.1c3.16-3.07,5.28-3.56,6.34-1.48l5.19-3.04  c44.37-10.91,88.64-22.27,132.78-34.07l5.87-0.05c2.43-1.68,5.82-2.16,10.18-1.41c3.4-2.01,6.9-3.96,10.75-4.96  c16.62-4.33,33.47-8.55,50.17-12.61c3.84-0.93,7.83-0.83,11.74-0.64c3-2.65,4.49-3.98,4.49-3.98c14.7-2.39,29.2-5.56,43.49-9.53  l4.19,0.89c0.17-1.49,1.4-1.73,3.69-0.72c-0.97-3.97,2.69-4.62,4.13-0.78c0.62-3.66,9.84-7.11,12.07-3.55l4.88-3.61  c12.81-3.49,72.69-18.62,80.55-15.53c1.02,0.4,1.97,0.97,2.9,1.6C933.71,457.94,937.18,457.8,940.33,457.84z" />
<path class="cls-3" d="M1025.8,465.78c-27.85-6.25-56.72-7.51-85.47-7.94l1.73-9.32c17.75-11.75,37.6-19.28,60.21-9.71  C1011.27,442.61,1020.1,455.97,1025.8,465.78z" />
<path class="cls-11" d="M1001.01,929.18c-0.23,4,0.38,8.1,0.47,12.1c-0.39,1.2-1.38,0.92-2.44,0.19c-7.05-3.55-13.72-8.48-21.36-10.77  C984.98,928.05,993.24,929.56,1001.01,929.18z" />
<path class="cls-5" d="M748.84,1319.36c-16.36,18.49-38.88,32.38-58.84,48.34c-20.61,2.32-41.88,0.73-61.89,0.5l13.23-14.92  c3.99,0.31,5.5-4.31,8.05-6.02l1.82-4.55l20.38-16.76l64.36-8.53C740.54,1316.75,744.91,1316.59,748.84,1319.36z" />
<path class="cls-7" d="M898.77,1225.66c-2.01,7.45-0.68,16.69-4.21,23.84c-10.35,3.62-19.55,1.41-30.25,6.33  c-15,6.9-33.32,8.94-50.03,11.17c-14.64,1.95-28.13,8.03-43.51,11.3c-35.99,7.65-71.53,17.15-107.94,24.79l-11.05-0.68  c-132.27-36.2-271.54-49.5-409.39-55.01l-8-1.82c77.61-11.47,157.3-15.66,237.13-20.49  C614.61,1216.45,756.65,1216.47,898.77,1225.66z" />
<path class="cls-4" d="M234.38,1245.58c88.24,0.05,176.15,9.29,264.13,22.42c55.98,8.36,111.43,17.84,164.32,35.09  c-14.62,3.07-85.99,27.74-95.74,24.52c-13.2-4.37-66.08-11-79.6-16.77c-5.68-2.42-58.15-13.64-65.89-14.34  c-7.35-0.67-16-7.55-25.17-2.95c-7.51-5-45.11-18.55-52.31-9.73c-3.59-3.75-10.97-2.48-15.5-2.95c-6.03-8.31-18.07-5.27-25.89-6.1  c3.74,0.4-38.64-9.71-44.38-6.68c-16.08-13.65-28.09-0.44-69.54-11.97c-7.2-2.01-14.6,1.51-19.92-5.1  C190.34,1249.13,212.51,1245.57,234.38,1245.58z" />
<path class="cls-13" d="M902.62,1139.55l1.32,1.02c-10.02,16.93-20.9,33.37-32.66,49.33l-3.44,0.57c-0.79-0.15-1.7-0.04-2.5-0.05  l-19.13-20.82l43.02-30.02l17.22-10.46C904.59,1133.44,904.12,1137.35,902.62,1139.55z" />
<path class="cls-8" d="M907.98,1156c1.3,12.18-3.73,24.3-5.17,35.94c-11.66-0.19-23.54,0.79-34.97-1.46l34.78-50.93  C911.17,1138.24,895.6,1157.8,907.98,1156z" />
<path class="cls-3" d="M213.06,381.43c3.07,1.19,4.47,4.79,4.21,10.82c1.27,3.62,0.76,6.45-1.52,8.49c3.57,1.34,3.41,2.84-0.26,3.55  l-0.97,4.18c-16.64,14.41-24.31,36.07-27.96,57.23l-3.18,2.98c-0.76,0.67-1.54,1.29-2.41,1.75c-3.52,1.88-25.21-0.9-30.63-2.2  l-4.33-3.22l-17.72-43.53c-0.88-2.17-5.75-2.84-7.46-3.03c-5.74-0.62,10.04,38.71,11.92,43.53c-15.01-1.44-82.53-21.09-83.17-37.88  c-0.16-4.34,4.07-5.61,6.85-7.82l17.66-7.16c39.03-10.91,80.11-18.98,119.94-26.74c3.08-0.6,6.25-0.77,9.44-0.93  C206.65,381.3,209.85,381.34,213.06,381.43z" />
<path class="cls-8" d="M212.98,380.39c1.18,0.08,1.18,0.44,0.08,1.04c-52.51,10-104.95,21.27-156.64,34.85  c12.83-10.19,29.46-14.1,46.19-17.69l109.77-23.58C213.18,377.28,212.89,378.9,212.98,380.39z" />
<path class="cls-10" d="M250.45,372.61c-0.8,2.95-1.01,5.99-1.19,9.04c0.04,1.27-0.39,1.36-1.27,0.37l-1.77,3.27  c-9.57,4.26-18.51,9.71-26.83,16.37l-3.65-0.91l-2.69-19.31c-0.05-0.34-0.06-0.7-0.08-1.04L250.45,372.61z" />
<path class="cls-5" d="M1159.82,1205.34c-4.96,5.57-9.83,3.95-15.84,3.97c4.38-0.01-59.94,6.68-56.89,6.24  c-7.7,1.13-118.76,20.21-114.88,17.8c-12.34-0.16-24.73-0.82-37.18-1.96l-2.85-2.97c-2.81-11.66-3.13-23.65-4.19-35.33  C1005.27,1195.6,1082.93,1198.2,1159.82,1205.34z" />
<path class="cls-13" d="M940.16,1139.73l41.44,30.35l-20.91,19.99l-35.33-50.36c0.3-2.8-1.87-5.7-2.46-9.45  C930.04,1132.41,933.47,1138.84,940.16,1139.73z" />
<path class="cls-4" d="M1200,1213.6v114.26c-1.79,0.19-5.53,3.42-7.15,1.53c-2.84-3.3-4.69-5.88-8.44-6.97  c-3.9-1.14-6.32,3.09-9.43,3.69c-5.8-0.58-15.9-5.13-19.44,1.54c-1.71,3.22-0.2,7.09-4.08,9.35c-3.2,1.86-4.93-1.23-8.74-1.37  c-11.74-0.44,3.94,25.39-17.55,28.89c0.73,3.01,1.1,5.88,0.01,7.43c-0.76,1.07-3.25,3.36-4.07,2.31  c-8.12-10.41-23.3-9.83-33.39-13.1c-14.07-4.57-28.98-4.6-35.01,11.02c-7.41-4.01-14.08-3.48-21.6-1.09  c5.21-2.53,13.93-42.48,3.73-42.61c4.52-5.71-14.67-39.77-23.26-36.85c-16.09,27.89-22.37,39.92-20.26,69.36  c0.3,4.25,8.26,2.33,7.12,11.07l-18.98-6.18l3.58-31.96c-6.9-2.44-3.75-9.39-5.84-14.79c-1.84-4.76-7.91-7.23-6.62-14.65  c-2.64-4.15-10.11-9.25-13.57-13.15c-8.94,5.63-6.51,16.39-14.01,19.73l-8.03-61.58C1021.94,1229.19,1110.7,1216.41,1200,1213.6z" />
<path class="cls-4" d="M894.61,1257.78l-13.41,91c-5.7-1.45-8.44,5.62-11.41,8.39c-6.88-1.68-15.19,4.86-20.87,5.12  c-9.54,0.43-19.66-5.02-26.75,4.33c-23.74-13.01-43.52-33.09-67.18-48.14c-1.87-1.19-4.5,0.84-6.15,0.89  c-25.35,0.75-50.38,6.33-76.25,9.01c-8.15,6.94-15.1,13.49-23.19,18.91l-30.6-10.36c-7.61-2.58-14.91,1-23.42-6.35  C693.29,1302.28,793.73,1278.27,894.61,1257.78z" />
<path class="cls-8" d="M1044.74,570.29c24.31-0.88,49.28-0.73,72.36,4.3c-53.79-5.05-145.18,4.78-199.73,14.58  c-2.01-0.6-0.5-3.98,1.16-3.51c1.56,0.44,2.79-1.84,4.25-1.92c3.36-3.11,8.27-3.68,14.72-1.72  C973.28,578.16,1008.65,571.59,1044.74,570.29z" />
<path class="cls-7" d="M972.21,1233.34c-14.51,9.02-9.37-6.41-38.1,9.26c-0.87-4.66-0.83-9.6-1.94-14.19  C945.49,1229.92,959.76,1228.81,972.21,1233.34z" />
<path class="cls-13" d="M728.65,355.01c-8.04,7.57-16.07,15.25-22.85,24l-2.68,2.68c-3.73,3.41-7.36,6.99-10.87,10.74l-5.14,0.44  c-5.14-2.01-27.49-15.18-28.95-18.64c-0.37-0.88-0.55-1.84-0.68-2.82l72.7-20.2C730.95,352.09,730.44,353.36,728.65,355.01z" />
<path class="cls-13" d="M830.16,479.22c-1.04-0.12-3.2,0.29-4.13,0.78l-3.7-0.83l-94.33-60.08c-12.36-6.71-24.05-14.42-35.1-23.14  l-0.65-3.52c3.52-3.73,7.14-7.31,10.87-10.74l2.68-2.68c6.79-8.78,14.79-16.4,22.85-24c2.15-2.92,7.78-10,10.63-7.03l96.59-26.3  l2.66,1.94c0.91,7.74,0.08,15.01-2.49,21.81l1.46,3.21l-4.6,129.06L830.16,479.22z" />
<path class="cls-13" d="M822.35,480.72c-16.25,7.47-35.28,7.57-52.17,12.62l-6.77-0.12l-85.9-38.55c-1.39-1.06-3.46-1.99-6.22-2.79  l-21.41-9.61l-0.39-3.11c-0.8-0.68-1.41-1.23-1.34-1.32c8.21-12.3,8.75-6.39-0.81,0.92c-0.25,0.19-0.95-0.18-1.76-0.72l-3.01,0.54  c-14-6.43-27.98-13.2-41.93-20.32l-3.45-4.25c-2.34,2.98-8.22,1.9-9.32-1.74c-1.37,4.22-6.91,2.23-6.4-2.12l-0.99-3.08l9.79-15.67  c2.65-4.46,5.43-5.86,8.33-4.2c17.36-3.39,34.51-8.54,51.37-13.96l2.21-1.78c56.74,35.77,113.44,71.66,170.08,107.65L822.35,480.72z  " />
<path class="cls-14" d="M407.1,397.77c2.93-4.12,7.95-2.25,10.51,1.56c7.27,1.56,15.58,3.86,22.93,3.57c2.94-1.48,11.61-1.39,10.9,3.07  c3.74-1.57,12.55-0.65,13.14,3.78c2.67-2.31,6.16-0.6,6.81,2.7c2.89-1.86,11.2,2.54,12.18,5.65l1.15,3.11  c-7.97,13.36-6.38,21.38,3.24,3.42l3.03,0.01c3.61,0.01,5.02,1.44,4.25,4.3c5.34,2.14,9.8,5.49,8.36,11.61  c9.2,6.19,3.31,17.65-7.99,16.28l-98.92-11.51c-1.91-0.03-2.88-1.12-3.2-3.07c-2.11-1.57-3.43-1.96-3.97-1.18  c-1.26,0.6-2.54,1.14-3.86,1.49c-1.3,0.35-2.57,0.65-3.8,0.56c-17.08-1.3-35.22-4.53-52.11-7.7c-1.22-0.23-2.38-0.85-3.56-1.51  c-1.21-0.67-2.32-1.5-3.41-2.38l-3.68-2.36c-5.97-16.46-15.58-31.93-30.94-41.03l-1.7-4C326.91,386.59,367.03,392.27,407.1,397.77z" />
<path class="cls-13" d="M519.45,374.61c26.5,1.41,41.59,11.17,65.58,13.92l0.79,4.24c-4.41,7.18-9.44,13.92-15.08,20.2l-4.13,0.81  c-9.26,5.75-16.31,12.99-21.15,21.72l-3.24,1.11c-0.28,1.02-0.88,2.52-1.61,2.45c-7.08-0.69-34.54-4.32-39.5-6.45l-5.87-3.67  c-1.07-1.31-4.83-1.27-4.25-4.3l-0.14-5.47c3.43-7.96,20.21-41.27,25.72-43.73C517.47,375.04,518.45,374.8,519.45,374.61z" />
<path class="cls-1" d="M849.3,316.17l2.55,2.5c-2.57,11.18-0.67,13.43,5.69,6.75c3.58-2.78,6.03-2.8,7.36-0.06l0.75,3.24  l-14.82,11.05l-5.85,134.51l-2.75,1.5c-3.18,0.55-8.87,3.92-12.07,3.55l4.69-131.6c-7.16,2.68-10.45,8.18-17.14,9.91l16.67-14.12  c2.37-6.8,1.31-15.09,1.49-21.72c0.69-25.77,5.8-52.93,1.72-76.12c-3.98,15.84,2.3-25.1,9.89-28.16c1.9-0.76,4.78,5.19,4.71,7.35  L849.3,316.17z" />
<path class="cls-1" d="M895.98,305.07c0.18,0.7,0.33,1.39,0.34,2.09c0.04,2.46-20.34,15.02-24.55,15.99  c-0.92,3.46-2.09,3.14-2.58-0.38c-0.55-0.88-1.3-2.21-0.8-2.81c4.59-5.49,13.81-10.33,20.32-13.14  C891.03,306.45,893.83,305.76,895.98,305.07z" />
<path class="cls-1" d="M869.2,322.77c2.65,3.54-1.92,6.39-4.3,2.59C859.94,322.24,866.79,317.31,869.2,322.77z" />
<path class="cls-5" d="M286.45,384.14c18.81,9.76,29.56,27.56,36.31,47.39c4.49,1.07,4.17,7.15,0.41,9.09l-2.09,1.39  c-15.64,0.25-31.22,1.5-46.74,3.74l-2.12-1.4l-3.14-1.34c-2.49-16.6-10.09-27.77-22.8-33.52l-1.49-3.02c-1-0.24-2.23-0.62-2.5-1.51  c-0.3-0.99,2.23-19.54,2.68-20.56l3.01-2.38c0.41-0.1,0.89-0.18,1.27-0.37C261.78,375.34,274.25,383.4,286.45,384.14z" />
<path class="cls-1" d="M598.59,387.2c-8.25,5.05-11.12,15.77-17.13,22.95l-0.98,5.45c-6.22,7.51-11.42,15.41-15.58,23.72l19.94,3.54  l0.32-28.68l2.7-1.91c3.33,0.06,6.19,0.57,9.32,1.74l2.5,2.83c0.93,7.82,2.54,37.89-1.62,42.63c-0.31,0.36-0.85,0.52-1.45,0.62  c-30.34-4.91-60.69-10.39-91.05-16.43l-1.96-3.09c-2.58-3.94-5.36-7.93-8.36-11.61l46.98,7.67c1.96-1.8,4.93-2.94,8.9-3.43  c3.75-8.12,8.92-14.59,15.49-19.41c6.48-7.97,13.8-15.82,18.42-25.25c1.25-2.57,4.68-4.45,6.1-7.87c1.01-2.42,6.39-2.39,7.22-0.62  C599.28,382.02,598.31,385.21,598.59,387.2z" />
<path class="cls-14" d="M945.6,290.74c0.4,12.64-2.74,24.83-3.82,37.35l-4.7,1.74c-20.4-1.94-40.87-3.1-61.43-3.49l-3.88-3.19  c6.05-8.19,16.78-11.2,24.21-18.08C912.36,299.79,928.98,295.18,945.6,290.74z" />
<path class="cls-1" d="M519.45,374.61c-11.62,14.94-19.43,33.21-28.45,50.04c-3.05,5.69-6.36,12.99-13.38,14.65  c-2.51-6.37,2.21-15.81,5.96-21.2l0.66-5.8l15.5-26.03c0.67-6.18,3.3-10.45,7.9-12.81c5.8-11.74,13.77-22.06,18.89-34.12  c1.06-2.49,5.3-2.24,6.71-1.28C539.1,342.05,518.54,367.64,519.45,374.61z" />
<path class="cls-1" d="M703.12,381.7c-3.65,3.63-6.38,8.3-10.87,10.74C696.08,389.11,698.07,383.16,703.12,381.7z" />
<path class="cls-1" d="M705.8,379.02c5.53-9.1,14.57-17.02,22.85-24L705.8,379.02z" />
<path class="cls-1" d="M739.29,347.99c-3.52,1.31-7.8,4.64-10.63,7.03c0.87-0.91,0.59-2.9,1.55-3.81  c34.07-32.46,63.9-68.89,100.48-100.4L739.29,347.99z" />
<path class="cls-1" d="M657.5,371.4c10.44,8.53,23.06,15.28,34.76,21.03c11.87,6.7,22.71,20.37,37.6,24.57  c4.16-1.24,7.89-6.1,12.17-6.81c-2.66,3.48-6.35,3.62-11.1,8.33l95.1,61.49c-1.09,0.58-2.66,0.25-3.69,0.72L649.96,373.24  l-77.55-53.79L657.5,371.4z" />
<path class="cls-1" d="M472.87,377.56c4.75-1.89,29-1.54,29.04,4.4c0.06,6.91-20.94,25.85-27.03,30.47l-3.49,0.02  c-2.32,0.2-5.22-1.4-6.81-2.7l-0.76-3l18.89-18.41c-2.89-2.01-5.65-0.85-8.27,3.49l-18.37,13.99l-4.63,0.16  c-2.74-1.62-8.76,0.26-10.9-3.07C450.91,393.99,462.02,385.66,472.87,377.56z" />
<path class="cls-13" d="M507.63,373.47c-7.34,14.85-14.04,30.25-24.05,44.63c-4.55-0.12-8.95-2.78-12.18-5.65  c8.33-10.68,22.31-16.53,28.69-30c-9.44-5.21-19-1.57-27.22-4.9C482.36,370.47,495.55,374.32,507.63,373.47z" />
<path class="cls-1" d="M417.61,399.34c-3.31-0.71-7.15-1.1-10.51-1.56c0.55-6.93-18.41-42.45-11.58-43.27  C407.72,353.04,411.64,387.9,417.61,399.34z" />
<path class="cls-13" d="M888.72,306.82l-19.52,15.95c-0.96-0.14-1.97-0.06-3.17,0.13c-1.14,0.19-0.62,1.8-1.12,2.46  c-6.34,0.8-10.41,6.81-16.38,8.99c-0.66-6.34,0.6-12.44,0.78-18.18C862.8,315.52,875.31,308.95,888.72,306.82z" />
<path class="cls-13" d="M871.77,323.14c22.88,3.34,46.94-0.48,70,4.94l-11.22,130.04c-30.32,1.74-58.64,12.45-88.33,17.54l5.99-137.75  c5.76-5,12.51-7.14,16.68-12.55c2.48-0.31,2.5-1.13,4.3-2.59L871.77,323.14z" />
<path class="cls-14" d="M764.93,505.03c3.63,0.14,7.16,0.79,10.53,2.16c43.46,17.7,87.06,34.73,130.78,51.8  c3.38,1.32,6.41,3.01,8.78,5.85c-7.2,2.53-15.36,2.53-22.83,4.6l0.38,1.75c-2.68,1.1-6.02,1.41-10.03,0.92L682.9,617.03  c-53.17-15.22-106.47-30.78-156.57-53.32L764.93,505.03z" />
<path class="cls-5" d="M215.48,404.29l2.82,0.79l1.53,10.69l7.49-6.19c4.21-2.73,13.13-8.31,16.11-2.84c1.01,0.3,2.5,0.89,2.44,1.63  c-0.3,3.71-4.78,32-5.69,33.42c-0.6,0.93-1.85,1.24-2.97,1.46c-0.96,3.46-12.3,2.15-15.62,1.38l-2.2-2.51l-2.98-1.32l-0.9-11.13  c-12.84,18.95-17.36,33.81-14.67,56.62c1.26,10.65,3.4,22.52,9.94,30.86l3.2-19.96l3.17-2.05c0.95-2.19,1.73-2.39,3.64-2.19  c2.34,0.24,9.81,4.98,12.12,6.46c3.02-1.45,3.29-1.22,5.01,1.5c2.16,8.75,3.16,17.93,3.01,27.54  c24.31-14.91,32.08-52.08,29.86-78.86l2.25-2.13c0.9-0.94,1.82-1.71,2.84-1.86c14.22-2.14,32.39-4.48,46.56-3.52  c1.05,0.07,2.06,0.73,3.06,1.56c4.04,34.38-4.48,65.98-21.51,95.75l-23.92,20.78c1.35,2.75-0.16,2.52-2.67,1.15  c-9.07,3.81-18.45,6.93-28.35,6.88c-0.85,3.91-5.36,2.73-6.76-0.47c-1.8,1.45-2.4,0.7-1.01-1.12l-2.61-3.48c0,0-0.95-9-2.84-27.01  c-7.75,1.62-15.38-0.79-21.61-5.4l-3.52,15.91c-1.96,2.72-2.99,3.59-5.98,1.83c-3.55-2.08-16.56-21.73-17.1-25.89  c-0.21-1.58,0.36-3.06,1.16-4.4c-4.06-2.8-6.19-7.53-6.39-14.19l-1.96-15.28l2.34-3.97c-4.57-2.51-4.08-13.82,0.62-16.02  C186.84,444.82,196.15,418.67,215.48,404.29z" />
<path class="cls-12" d="M462.79,724.42l-105.28,8.67c18.24-29.42,34.64-55.08,53.6-78.36l44.03-7.01l15.63,39.3  C466.49,698.92,460.87,711.54,462.79,724.42z" />
<path class="cls-1" d="M549.18,679.13c21.72,15.07,27.93,53.73,5.95,76.47c-10.13,10.48-25.07,15.09-39.81,10.63  c-18.95-5.74-30.31-23.61-32.22-42.26c-2.01-19.56,6.03-39.82,23.93-49.09C521.19,667.54,536.19,670.12,549.18,679.13z" />
<path class="cls-1" d="M393.49,442.25c1.47,0.38,2.54,1.46,3.22,3.23c67.37,10.31,134.76,22.54,201.16,38.46l21.33-20.15  c2.27,0.15,3.07,1.9,3.69,4.03l-15.47,18.22l11.89,2.86l55.09-36.43c2.15,0.55,2.68,2.46,2.77,4.65l-47.14,34.02l66.62,17.41  l0.88,2.99c-3.05,0.6-6.84,2.58-10.18,1.41l-7.66,0.24c-22.18-6.04-44.41-11.76-66.68-17.15c1.73,1.4,1.93,2.98,0.59,4.75  c-21.16,14.38-41.82,29.35-61.98,44.91l-8.11,4.42l-6.34,1.48c16.85-22.02,38.53-39.87,58.5-61.8  c-66.87-16.32-132.12-27.86-199.52-38.45c-2.25,5.92,1.35,10.36-1.56,15.1l-2.93-15.86c-22.31-3.34-44.24-6.17-66.14-6.99  c-17.45-0.66-35.22,0.91-52.45,3.83c-3.69,0.75-3.98-1.18-0.83-3.09c17.07-0.39,33.82-4.73,50.95-3.73  c1.73-0.59,3.48-1.12,5.26-1.47c1.77-0.34,3.51-0.65,5.22-0.54c18.35,1.14,36.76,3.11,54.86,6.12c0,0,0.34-1.22,1.01-3.67  c-0.8-10.2-6.29-19.88-10.64-29.75C388.29,419.24,388.38,431.81,393.49,442.25z" />
<path class="cls-1" d="M937.5,582.02c-4.93,0.53-9.78,1.47-14.72,1.72c-12.53-6.09-26.78-8.05-40.24-11.65l9.65-2.66  C904.98,578.53,922.94,575.52,937.5,582.02z" />
<path class="cls-12" d="M249.05,568.17l18.87,41.32c-1.34,3.42-4.62,5.17-9.82,5.25c-6.04,1.99-10.79,1.6-14.26-1.16  c-0.37,1.17-0.74,1.04-1.12-0.22c-1.05-0.27-2.61-0.71-2.69-1.54c-0.92-8.88-1.6-33.85-0.39-42.12l2.66-1.99  C244.56,566.96,246.84,568.16,249.05,568.17z" />
<path class="cls-8" d="M302.42,604.97c5.35,0.41,10,3.33,15.09,4.79c-23.99,5.54-49.15,7.46-73.91,11.27  c-4.62-0.21-4.28-7.16,0.23-7.44c7.88-0.39,16.77-1.51,24.08-4.09c3.1,2.42,6.39,0.19,9.47-0.44l2.08-3.09  C287.27,604.38,294.92,604.05,302.42,604.97z" />
<path class="cls-12" d="M302.42,604.97c-7.99,2.94-16.76,2.39-25.04,4.08l-8.3-22.3L302.42,604.97z" />
<path class="cls-2" d="M277.4,561.29c0.73-0.3,2.11-0.66,2.67-1.15c15.89,14.29,33.57,23.94,53.97,32.1  C311.12,589.88,293.52,575.14,277.4,561.29z" />
<path class="cls-3" d="M307.46,743.59c1.89-0.36-0.27,4.43-1.16,5.83c-0.75,1.16-1.04-1.12-1.02-1.8  C305.32,746.38,305.24,744.01,307.46,743.59z" />
<path class="cls-13" d="M242.71,613.36c0.35-0.06,0.76,0.24,1.12,0.22c-0.73,2.42-0.88,4.98-0.23,7.44c-0.38,0.06-0.75,0.21-1.12,0.25  c-14.42,1.23-28.82,5.36-43.11,5.54l-1.09,0.01c0.09-1.88,0.08-3.76-0.1-5.63c-0.27-2.84,0.41-5.51,1.48-8.06  c2.68-3.97,4.71,0.1,5.16,3.37l30.95-4.66C235.77,611.85,238.08,612.35,242.71,613.36z" />
<path class="cls-4" d="M911.78,1295.02c2.56,15.24,0.99,33.96,1.47,53.21l-27.26,0.03l13.52-90.71c0.76-5.08,6.67-5.63,9.47-5.61  C918.49,1252.01,910.52,1287.48,911.78,1295.02z" />
<path class="cls-4" d="M932.09,1262.85c2.58,31.49,8.81,47.48,6.4,82.19c-6.96,4.44-13.83,3.83-20.99,2.29  c0.76-23.77-1.73-47.08,1.46-69.39C919.25,1272.14,925.61,1256.36,932.09,1262.85z" />
<path class="cls-7" d="M932.09,1262.85c-8.41,0.04-6.92,11.26-13.12,15.09c-4.32-6.95-0.35-17.12-1.65-25.86  c1.74-1.83,10.64-2.51,12.32,0.28C931.08,1254.76,931.84,1259.71,932.09,1262.85z" />
<path class="cls-4" d="M942.22,1364.03c-5.18,5.2-12.18-5.61-18.46,3.68c-3.25-2.5-1.74-6.81-5.7-8.37  c-1.69-10.14,4.93-6.06,14.44-6.77C939.49,1352.06,938.37,1359.33,942.22,1364.03z" />
<path class="cls-5" d="M926.5,1228.14c-1.47,3.19-5.72,2.19-7.79-0.17c-1.29-11.78-3.42-25.34,1.48-38.3  C925.65,1202.3,924.73,1215.7,926.5,1228.14z" />
<path class="cls-5" d="M913.28,1225.65c0.53,4.05-8.4,3.9-9.14,0.04c2.32-12.76,1.97-25.06,6.09-37.06  C915.43,1201.43,913.21,1213.83,913.28,1225.65z" />
<path class="cls-7" d="M913.28,1225.65l0.12,21.1c-4.27,0.58-7.85,0.57-12.18-0.53l2.92-20.53L913.28,1225.65z" />
<path class="cls-7" d="M926.5,1228.14c0.63,4.46,1.92,9.15,1.9,12.58c-0.01,2.43-5.56,6.3-8.32,4.34  c-4.83-3.44-1.08-11.93-1.37-17.09C921.17,1226.65,923.97,1227.24,926.5,1228.14z" />
<path class="cls-13" d="M188.78,518.15c3.82,10.73,10.71,20.67,18.9,29.72l4.97-22.44c7.43,7.64,16.07,10.33,26.12,7.17  c0.78,12.07,3.01,22.93,2.52,33.98l-2.96,2.33c-7.67,0.52-21.29-9.78-27.38-14.46c-3.56,16.45-6.47,33.38-8.74,50.77l-2.95,1.53  c-11.26-27.8-21.52-56.11-31.09-84.48c-1.47-6.34,1.7-6.88,7.18-7.28C179.05,514.74,186.85,515.09,188.78,518.15z" />
<path class="cls-14" d="M241.28,566.58c0.57,0.05,1,0.56,1.01,1.12l0.43,45.65c-12.86,2.28-26.58,4.48-39.8,5.86  c-1.22-2.58-0.95-6.59-3.25-6.08c0.11-1.94-0.73-4.33-0.41-6.39l9-57.91C218.84,557.46,228.88,565.56,241.28,566.58z" />
<path class="cls-14" d="M182.75,484.71c0.95,11.1,2.24,22.83,6.02,33.44c-7.3,1.59-18.79-4.14-20.61,4.13  c-4.24-12.56-11.67-24.26-14.48-37.54c0.13-1.03,0.4-2.54,1.17-2.68c2.75-0.48,23.34-0.55,26.02-0.03L182.75,484.71z" />
<path class="cls-13" d="M183.37,468.68c-0.73,5-1.05,10.98-0.62,16.02l-29.07,0.03c-1.22-5.79-5.42-14.17-7.68-19.72  C158.45,466.43,170.83,468.63,183.37,468.68z" />
<path class="cls-13" d="M894.89,1090.48c3.37,3.65,3.21,11.32,9.05,13.08c-0.37,2.65,0.63,4.82,1.32,8.11  c-3.38-2.49-6.8-3.37-10.42-3.09c-7.89-8.83-19.27-15.73-29.83-21.44l-18.87-14.26c5.88-7.94,13.35-14.38,21.61-19.99  C878.1,1065.87,884.68,1079.43,894.89,1090.48z" />
<path class="cls-14" d="M822.33,491.48l147.57,59.43l-48.69,11.75l-5.96-0.05c-47.42-18.38-94.65-37.12-141.71-56.23l-0.6-2.91  C788.77,497.43,805.98,495.35,822.33,491.48z" />
<path class="cls-1" d="M772.94,503.46l148.27,59.2l-6.19,2.18c-49.29-20.16-101.39-36.29-150.09-59.8  C767.2,504.47,770.86,504.25,772.94,503.46z" />
<path class="cls-3" d="M645.57,438.03c-0.38,2.29,0.34,2.42,2.15,0.39l1.77,0.74l120.69,54.19c-23.76,7.11-48.12,13.34-72.66,18.21  l-73.88-19.1l52.95-38.22l-56.59,37.18c-5.49,0.41-11.97-2.72-17.44-3.93l19.05-22.3l-22.76,21.51  c-66.93-15.59-133.13-28.04-200.55-38.25c-2.47-0.37-3.43-0.47-4.49-2.03c-0.79-1.17,0.22-3.06-0.33-4.17l100.56,11.82  c3.34,0.39,10.55-0.54,10.89-3.21c0.31-2.4,0.12-8.05-1.35-10.3l92.96,17.44c3.78-15.98-0.62-29.95,0.62-43.99  C613.71,420.18,629.24,430.34,645.57,438.03z" />
<path class="cls-3" d="M687.35,512.96c-45.99,15.4-95.38,25.86-143.84,37.17c19.03-21.04,46.81-33.36,70.21-52.89l-44.06,26.57  c8.42-13.64,19.69-21.33,29.47-33.03C628.93,498.2,658.93,503.03,687.35,512.96z" />
<path class="cls-13" d="M244.8,406.46c-0.14,1.18-0.6,1.25-1.37,0.28c-10.05-0.14-18.11,7.21-25.55,14.67l-2.4-17.12  c-0.15-1.1,0.42-2.45,0.26-3.55c10.84-6.34,19.5-15.67,32.25-18.73L244.8,406.46z" />
<path class="cls-1" d="M792.32,374.95c7.67-6.93,15.57-12.64,25.31-17.29C809.97,364.67,801.71,369.71,792.32,374.95z" />
<path class="cls-3" d="M587.86,412.26l-0.38,33.94l-27.83-5.14c7.43-11.47,13.94-21.53,21.81-30.92  C583.2,411.12,585.8,412.23,587.86,412.26z" />
<path class="cls-1" d="M649.48,439.15L630.74,455c5.94-5.09,9.44-12.29,14.83-16.97l15.65-13.61  C658.41,430.76,651.37,432.96,649.48,439.15z" />
<path class="cls-1" d="M675.92,408.98c-4.11,4.96-8.65,9.92-14.22,14.01C665.77,418.15,669.59,413.96,675.92,408.98z" />
<path class="cls-3" d="M389.51,441.06c0.91,1.29,2.77,3.93,0.92,6.47c-22.33-3.5-45.05-5.61-67.27-6.92c-0.5-2.8,0.52-6.36-0.41-9.09  C345.03,435.2,367.28,439.51,389.51,441.06z" />
<path class="cls-13" d="M464.58,409.75c-3.96-0.74-9.47-1.6-13.14-3.78l21.28-16.2c2.74-2.09,3.3-5.93,7.37-4.96  c2.35,0.56,6.68-0.54,8.07,1.95L464.58,409.75z" />
<path class="cls-3" d="M542.22,436.62c3.49-11.07,13.32-19.46,24.39-22.83C553.03,430.49,557.77,439.16,542.22,436.62z" />
<path class="cls-2" d="M272.23,444.34l0.83,3.09c5.18,19.36-6.9,75.94-33.67,84.69c-5-11.29,2.54-26.36-6.46-32.73l0.68-3.53  c18.35-10.46,22.63-36.58,4.25-49.11l-0.65-3.49l6.22-36.51c0.45,0.01,0.94-0.35,1.37-0.28  C262.29,409.17,267.88,428.09,272.23,444.34z" />
<path class="cls-3" d="M237.21,443.25c11.65,6.29,16.6,18.11,14.71,31.12c-1.54,10.6-8.91,19.29-18.99,25.02  c-6.18,2.44-10.13-4.77-15.76-4.26c-5.23,0.87-11.3-8.25-13.84-12.83c-5.31-9.56-4.58-25.12,2.35-33.87  c2.42-3.05,10.46-9.74,13.72-6.31C225.61,441.36,232.11,443.07,237.21,443.25z" />
<path class="cls-2" d="M219.39,442.11c-11.46,5.41-21.1,15.25-17.96,28.82c2.22,9.58,9.01,17.02,15.73,24.19  c-2.17,9.3-2.03,19.31-5.8,29.55c-20.75-31.04-16.47-72.6,5.32-102.13C219.16,429.49,218,436.06,219.39,442.11z" />
<path class="cls-3" d="M531.03,753.6c-18.08,0.27-28.55-16.17-29.7-31.33c-1.25-16.59,7.3-33.89,25.27-36.32  c18.55-2.51,31.7,14.4,33.29,31.32C561.52,734.67,550.86,753.31,531.03,753.6z" />
<g>
</g>
<g>
</g>
<g>
</g>
<g>
</g>
<g>
</g>
<g>
</g>
<g>
</g>
<g>
</g>
<g>
</g>
<g>
</g>
<g>
</g>
<g>
</g>
<g>
</g>
<g>
</g>
<g>
</g>
</svg>